<svg xmlns="http://www.w3.org/2000/svg" width="340" height="60" fill="none"><path fill="#333" d="M93.52 30.61a.677.677 0 0 1-.247-.028c-.018-.036.01-.1.083-.191.255-.237.455-.465.601-.684.164-.237.337-.61.52-1.121.291-.839.437-1.486.437-1.941 0-.42-.027-.803-.082-1.149v-.082c0-.2.128-.264.383-.191.219.054.465.127.738.218a.83.83 0 0 1 .246-.027 46 46 0 0 1 .52-.082c.62-.091 1.422-.182 2.406-.273 0-.073.073-.329.219-.766l.164-.602c.073-.255.045-.382-.082-.382-.365 0-1.213.09-2.543.273l-1.45.246c-.127.018-.291-.036-.492-.164a1.664 1.664 0 0 1-.437-.437c-.091-.165-.073-.274.055-.329a.82.82 0 0 1 .437-.136h.629l1.805-.055 1.75-.219c.09-.018.2-.045.328-.082.146-.054.282-.09.41-.11.182-.036.492.165.93.602a.34.34 0 0 1 .109.247c0 .109-.073.218-.219.328-.2.2-.328.373-.383.52a4.715 4.715 0 0 1-.109.41 6.066 6.066 0 0 0-.164.628.692.692 0 0 1 .164.465c0 .146-.045.255-.137.328-.073.055-.227.082-.465.082-.82.055-1.467.11-1.94.164-.475.037-1.05.128-1.723.274a8.792 8.792 0 0 1-.493 2.27c-.255.674-.61 1.184-1.066 1.53-.438.31-.738.465-.903.465Zm.601 9.078c-.273 0-.483-.073-.629-.22-.164-.163-.246-.31-.246-.437s.073-.264.219-.41c.018-.018.118-.164.3-.437.402-.638.857-1.45 1.368-2.434.529-1.003.857-1.686.984-2.05.11-.347.21-.648.301-.903.11-.255.2-.383.273-.383.128 0 .237.046.328.137a1.3 1.3 0 0 1 .274.328c.11.128.191.219.246.273.128.146.192.283.192.41a.438.438 0 0 1-.11.274 1.372 1.372 0 0 0-.137.191l-1.203 2.024a55.64 55.64 0 0 1-1.23 2.105.438.438 0 0 0-.11.274c0 .073.082.11.246.11.347 0 .994-.037 1.942-.11.948-.091 1.586-.164 1.914-.22.474-.054.802-.108.984-.163.201-.055.493.082.875.41.456.383.556.629.301.738-.146.073-.428.11-.848.11h-1.093c-.237 0-.611.018-1.121.054-.31 0-.657.01-1.04.028a41.66 41.66 0 0 0-.957.054c-.291.019-.856.073-1.695.164l-.328.083ZM69.156 41.82c-.255 0-.465.01-.629.028-.164.018-.3.027-.41.027-.383 0-.693-.128-.93-.383a2.49 2.49 0 0 1-.519-.82c-.091-.292-.137-.474-.137-.547 0-.11.064-.164.192-.164.073 0 .136.01.191.027.456.11.966.164 1.531.164l9.243-.273v-5.633l-4.102.164-.684.028c-.383 0-.62-.046-.71-.137a2.464 2.464 0 0 1-.63-.739c-.145-.291-.218-.51-.218-.656 0-.11.054-.164.164-.164.073 0 .136.01.191.028.401.09.766.136 1.094.136h.219l4.675-.218.028-4.649-5.113.273c-.584 1.04-1.158 1.905-1.723 2.598-.547.693-1.02 1.203-1.422 1.531-.401.328-.647.493-.738.493-.073 0-.11-.046-.11-.137 0-.164.092-.392.274-.684a26.402 26.402 0 0 0 1.832-3.418A30.34 30.34 0 0 0 72 25.305c.328-1.021.492-1.75.492-2.188 0-.2-.009-.346-.027-.437a.713.713 0 0 1-.028-.22c0-.2.092-.3.274-.3.11.018.328.082.656.192.328.09.638.218.93.382.291.164.437.347.437.547 0 .091-.145.52-.437 1.285a25.542 25.542 0 0 1-.903 2.16l4.32-.245v-5.333c0-.528-.136-.993-.41-1.394-.072-.128-.109-.228-.109-.3 0-.128.1-.192.301-.192.11 0 .337.045.684.136.346.073.665.192.957.356.31.164.465.364.465.601l-.028 6.016 4.813-.273c.419-.037.83-.119 1.23-.246a.467.467 0 0 1 .192-.028c.218 0 .528.173.93.52.4.328.6.601.6.82 0 .219-.227.346-.683.383l-7.082.383-.027 4.675 3.828-.19c.401-.037.766-.11 1.094-.22a.38.38 0 0 1 .164-.027c.091 0 .255.082.492.246.255.146.474.32.656.52.2.2.301.392.301.574 0 .11-.055.2-.164.273a.733.733 0 0 1-.383.137h-.054l-5.934.246-.028 5.66 8.614-.246c.383 0 .802-.082 1.258-.246a.47.47 0 0 1 .191-.027c.2 0 .42.1.656.3.255.183.474.392.656.63.201.236.301.41.301.519 0 .237-.218.374-.656.41l-21.383.656ZM138.309 35.777c-.146 0-.265-.118-.356-.355-.146-.292-.219-.529-.219-.711l.028-.738c.018-.365.027-1.094.027-2.188v-1.367l-.027-.957c-.201 0-.41.027-.629.082l-.629.164c-.091.037-.237-.018-.438-.164-.2-.146-.355-.31-.464-.492a.624.624 0 0 1-.082-.246c0-.055.027-.091.082-.11a.6.6 0 0 1 .191-.027c.857 0 1.65-.046 2.379-.137l.82-.054 1.203-.082c.292-.037.493-.064.602-.082.146-.019.31-.037.492-.055.201-.037.328-.046.383-.027.073.054.164.109.273.163.128.055.265.146.41.274.092.091.165.182.219.273a.34.34 0 0 1 .11.247c0 .072-.046.182-.137.328-.091.146-.182.373-.274.683-.072.31-.127.529-.164.656-.273.912-.61 1.577-1.011 1.997-.292.255-.62.382-.985.382-.164 0-.301-.118-.41-.355-.164-.365-.346-.62-.547-.766l.028-.136c.492.164.829.246 1.011.246.146 0 .246-.028.301-.082a.684.684 0 0 0 .192-.246c.091-.237.164-.447.218-.63.073-.182.137-.346.192-.492.036-.164.082-.382.136-.656.073-.273.119-.492.137-.656 0-.164-.045-.246-.137-.246h-.601c-.274 0-.584.009-.93.027a7.884 7.884 0 0 0-.848.082l-.054 2.488.027 1.422v.575c.018.164.018.282 0 .355v.52c.018.218.018.373 0 .464l-.191.438c-.128.128-.237.191-.328.191Zm5.933-10.062c.091 0 .228.064.41.191-.018.037.019.11.11.219l.191.191c.091.092.182.2.274.329.109.127.227.264.355.41.328.346 1.085 1.248 2.27 2.707.2.291.3.465.3.52 0 .181-.109.273-.328.273-.127 0-.264-.091-.41-.274-.346-.364-.966-.939-1.859-1.722-.693-.638-1.322-1.13-1.887-1.477-.273-.128-.41-.273-.41-.438 0-.127.137-.31.41-.546.255-.256.447-.383.574-.383Zm-22.039 9.324c.182 1.02.274 2.17.274 3.445v.465c0 1.896-.165 3.172-.493 3.828-.328.657-.711.985-1.148.985-.383 0-1.039-.292-1.969-.875a22.68 22.68 0 0 1-2.625-1.86c-.802-.656-1.203-1.093-1.203-1.312 0-.091.064-.137.191-.137.165 0 .42.082.766.246 1.112.584 2.087 1.021 2.926 1.313.857.31 1.349.465 1.476.465.073 0 .119-.055.137-.164.146-.967.219-1.933.219-2.899a22.4 22.4 0 0 0-.274-3.418l-9.433.383-.766.027c-.364 0-.62-.09-.765-.273-.365-.474-.593-.839-.684-1.094a.613.613 0 0 1-.027-.191c0-.11.045-.164.136-.164.055 0 .101.009.137.027.383.11.784.164 1.203.164h.246l9.571-.438a10.166 10.166 0 0 0-.793-1.996c-.11-.218-.164-.4-.164-.546 0-.256.127-.429.382-.52.274-.091.502-.137.684-.137.109 0 .201.037.273.11.092.073.183.191.274.355l.109.219c1.677-1.167 2.871-2.17 3.582-3.008l-8.066.656c-.438.037-.72.055-.848.055-.383 0-.647-.073-.793-.219a3.87 3.87 0 0 1-.629-.793c-.127-.255-.191-.437-.191-.547 0-.127.064-.191.191-.191a.38.38 0 0 1 .164.027 4.88 4.88 0 0 0 1.067.137l.465-.027 9.433-.711.41-.028c.256 0 .502.073.739.22.237.145.428.31.574.491.146.183.219.328.219.438 0 .182-.101.346-.301.492a3.995 3.995 0 0 0-.383.3c-1.677 1.678-3.336 3.054-4.976 4.13l.328 1.011 7.957-.355c.51-.036.92-.11 1.23-.219a.878.878 0 0 1 .246-.054c.128 0 .319.082.574.246.274.145.511.328.711.547.219.218.329.41.329.574 0 .218-.237.346-.711.383l-9.981.437Zm-12.578-7.328c0-.073.036-.182.109-.328a34.686 34.686 0 0 0 2.379-5.496c.055-.2.119-.338.192-.41a.48.48 0 0 1 .355-.137c.11 0 .255.027.438.082.237.091.401.182.492.273.109.091.164.2.164.328 0 .055-.018.155-.055.301l-.191.547 7.765-.437c-1.312-1.058-2.324-1.823-3.035-2.297a1.282 1.282 0 0 1-.273-.246.398.398 0 0 1-.082-.246c0-.165.073-.347.219-.547.164-.22.309-.347.437-.383a.382.382 0 0 1 .164-.027c.128 0 .274.054.438.164l.492.3a84.622 84.622 0 0 1 2.461 1.586c.62.42.957.739 1.011.957l.028.137c0 .128-.064.292-.192.492l7.739-.437h.246c.328 0 .62.11.875.328.273.219.41.428.41.629 0 .127-.082.273-.246.437-.146.146-.237.256-.274.328-.127.22-.41.647-.847 1.285-.42.62-.875 1.222-1.367 1.805-.474.584-.83.875-1.067.875-.146 0-.219-.082-.219-.246 0-.182.082-.41.247-.683a20.496 20.496 0 0 0 1.421-3.172l-16.871.902c-.474 1.258-.856 2.197-1.148 2.816-.274.62-.483 1.021-.629 1.204-.146.164-.283.246-.41.246a5.01 5.01 0 0 1-.41-.137 3.08 3.08 0 0 1-.52-.328c-.164-.146-.246-.301-.246-.465ZM181.84 27.219c-.292 0-.474-.082-.547-.246a3.802 3.802 0 0 0-.273-.547c-.092-.164-.256-.356-.493-.574l.055-.11c.656.237 1.085.356 1.285.356.146 0 .255-.028.328-.082.073-.055.192-.183.356-.383.237-.255.456-.647.656-1.176a10.01 10.01 0 0 0 .52-2.434v-.082c0-.109-.019-.182-.055-.218-.237 0-.866.054-1.887.164-.565 1.403-1.221 2.56-1.969 3.472-.729.894-1.394 1.34-1.996 1.34-.146 0-.218-.055-.218-.164 0-.036.182-.246.546-.629.365-.383.766-.884 1.204-1.504.455-.638.884-1.422 1.285-2.351-.091 0-.356.018-.793.055-.438.036-.811.1-1.121.19a.433.433 0 0 1-.465.056l-.055-.028a.428.428 0 0 1-.109-.082 1.186 1.186 0 0 1-.328-.273.725.725 0 0 1-.11-.356c0-.054.046-.127.137-.218l.328-.438c.109-.146.21-.355.301-.629.091-.291.137-.538.137-.738 0-.128-.01-.21-.028-.246a.308.308 0 0 1-.027-.137c0-.091.045-.137.137-.137.109 0 .264.064.464.192.055.036.155.11.301.218.164.092.255.201.274.329 0 .127-.073.337-.219.628l-.356.63a.34.34 0 0 0-.054.19c0 .055.018.101.054.137a.341.341 0 0 0 .192 0l1.641-.218c.182-.474.328-.975.437-1.504v-.629c0-.2.055-.283.164-.246.237.055.428.127.574.219.274.164.41.3.41.41 0 .09-.036.246-.109.465a12.104 12.104 0 0 1-.383 1.176c.055 0 .392-.037 1.012-.11l.273-.055c.055 0 .155-.018.301-.054a.305.305 0 0 1 .137-.028c.219 0 .355.01.41.028.073.018.182.073.328.164.164.11.274.218.328.328.055.11.073.237.055.383l-.164.902-.191.984c0 .073-.064.31-.192.711a6.433 6.433 0 0 1-.437 1.067c-.31.62-.675 1.084-1.094 1.394-.365.292-.684.438-.957.438Zm-3.555 4.566c-.2 0-.446-.155-.738-.465-.219-.218-.328-.383-.328-.492 0-.055.036-.082.109-.082.073-.018.164-.027.274-.027l.601-.028c.346 0 .574-.009.684-.027.346 0 .638-.01.875-.027 1.567-.146 2.625-.265 3.172-.356.273-.036.519-.073.738-.11.219-.054.392-.081.519-.081.256 0 .511.127.766.383.201.2.301.364.301.492 0 .11-.064.182-.192.219-.091.018-.628.054-1.613.109a36.33 36.33 0 0 0-2.023.137c-.802.073-1.504.146-2.106.218l-.465.082c-.2.037-.392.055-.574.055Zm4.074 6.098c-.182.237-.373.355-.574.355-.055 0-.082-.045-.082-.136 0-.128.037-.274.109-.438l.547-1.094c.019-.073.046-.145.082-.218.037-.073.064-.137.082-.192v-.027c0-.037-.027-.073-.082-.11a.229.229 0 0 0-.191-.027 23.25 23.25 0 0 0-1.312.137c-.566.073-.985.146-1.258.219l-.41.136a1.074 1.074 0 0 1-.356.082c-.328 0-.602-.1-.82-.3a1.669 1.669 0 0 1-.41-.383l-.055-.137c0-.091.155-.118.465-.082.419.036 1.285-.018 2.597-.164l.547-.082c.146-.018.374-.046.684-.082.328-.055.583-.11.766-.164l.164-.055a.434.434 0 0 1 .191-.055c.091 0 .2.046.328.137.146.091.264.173.356.246.127.091.209.173.246.246.054.055.073.128.054.22 0 .09-.045.172-.136.245a2.568 2.568 0 0 0-.192.164 4.312 4.312 0 0 1-.383.41 4.476 4.476 0 0 1-.492.602c-.219.255-.373.437-.465.547Zm-1.367 5.386c0-.054.091-.2.274-.437.2-.219.355-.392.464-.52.274-.364.602-.893.985-1.585.401-.693.629-1.149.683-1.368.037-.109-.018-.164-.164-.164-.291 0-1.093.082-2.406.246-.857.11-1.495.22-1.914.328a.526.526 0 0 1-.273.083c-.146 0-.301-.1-.465-.301a.725.725 0 0 1-.11-.356c0-.073.046-.145.137-.218l.082-.11a5.86 5.86 0 0 0 .192-.437c.072-.183.136-.356.191-.52.091-.291.155-.61.191-.957.019-.2.128-.255.329-.164.255.128.446.255.574.383.146.11.191.191.136.246a2.722 2.722 0 0 0-.437.738 7.296 7.296 0 0 0-.164.575c0 .072.045.109.137.109.273 0 .683-.046 1.23-.137l1.148-.137c.456-.054.821-.109 1.094-.164l.684-.136a.712.712 0 0 1 .219-.028c.091 0 .182.037.273.11.091.054.191.127.301.218.182.164.301.301.355.41.055.092.082.201.082.329 0 .073-.054.164-.164.273-.091.11-.2.283-.328.52-.529 1.075-1.212 1.977-2.051 2.707a3.768 3.768 0 0 1-.793.465 1.293 1.293 0 0 1-.355.054c-.091.018-.137 0-.137-.054Zm5.25-10.445c.091 0 .228.064.41.192-.018.036.019.109.11.218l.191.192c.091.09.182.2.274.328.109.128.227.264.355.41.328.346 1.085 1.249 2.27 2.707.2.292.3.465.3.52 0 .182-.109.273-.328.273-.127 0-.264-.091-.41-.273-.346-.365-.966-.94-1.859-1.723-.693-.638-1.322-1.13-1.887-1.477-.273-.127-.41-.273-.41-.437 0-.128.137-.31.41-.547.255-.255.447-.383.574-.383Zm-18.183.52c1.421 1.403 2.743 2.606 3.964 3.61 1.24 1.002 2.461 1.804 3.665 2.405.328.164.492.32.492.465 0 .146-.164.383-.492.711-.329.31-.575.465-.739.465-.073 0-.355-.137-.847-.41-.474-.274-1.194-.811-2.161-1.613-.948-.802-2.105-1.933-3.472-3.391-.128-.146-.465-.602-1.012-1.367.073.747.109 1.33.109 1.75v7.136c0 .51-.173.766-.519.766-.091 0-.246-.046-.465-.137a2.116 2.116 0 0 1-.602-.382.787.787 0 0 1-.246-.575c0-.109.009-.191.028-.246.109-.82.164-1.558.164-2.215l.027-4.265c0-.42.046-1.03.137-1.832-.128.291-.301.629-.52 1.011-.218.383-.41.666-.574.848a26.074 26.074 0 0 1-2.707 2.79c-.948.856-1.805 1.549-2.57 2.077-.748.51-1.212.766-1.395.766-.146 0-.219-.064-.219-.191 0-.201.183-.447.547-.739.966-.765 2.006-1.804 3.118-3.117a45.368 45.368 0 0 0 3.171-4.21l-2.023.081.027.328V34c0 .328-.136.492-.41.492-.182 0-.437-.064-.765-.191-.31-.146-.465-.356-.465-.63 0-.163.009-.3.027-.41.018-.163.027-.391.027-.683 0-.346-.009-.601-.027-.766l-.355-4.32c-.055-.638-.165-1.103-.329-1.394-.164-.256-.246-.429-.246-.52 0-.11.091-.164.274-.164.31 0 .902.128 1.777.383l3.5-.192.027-1.914-4.21.247a8.778 8.778 0 0 1-.766.027c-.784 0-1.303-.392-1.559-1.176l-.054-.219c0-.09.063-.136.191-.136a.6.6 0 0 1 .191.027c.31.073.638.11.985.11h.328l4.894-.329v-2.351c0-.237-.018-.438-.054-.602a1.504 1.504 0 0 0-.246-.52c-.091-.145-.137-.246-.137-.3 0-.128.109-.192.328-.192.292 0 .647.064 1.067.192.419.11.628.273.628.492v3.172l3.555-.246c.529-.037.93-.1 1.203-.192a.908.908 0 0 1 .274-.054c.291 0 .583.164.875.492.291.31.437.574.437.793 0 .146-.146.237-.437.273l-5.907.383v1.941l3.993-.246h.164c.291 0 .583.1.875.301.291.182.437.41.437.684 0 .09-.027.2-.082.328a7.071 7.071 0 0 1-.082.273l-.601 4.895c.437.492.656.848.656 1.066 0 .128-.064.21-.192.246a1.997 1.997 0 0 1-.382.082h-.301l-3.992.192Zm-17.61 7.984c0-.164.055-.41.164-.738.401-1.167.784-2.698 1.149-4.594.036-.255.091-.428.164-.52a.368.368 0 0 1 .328-.163c.164 0 .355.054.574.164.237.09.356.227.356.41 0 .364-.101 1.148-.301 2.351a22.668 22.668 0 0 1-.793 3.309c-.11.42-.264.629-.465.629-.182 0-.428-.1-.738-.301-.292-.182-.438-.365-.438-.547Zm.192-8.422c0-.11.155-.264.464-.465l.493-.41c.255-.218.729-.756 1.422-1.613a64.36 64.36 0 0 0 2.16-2.762l-.739.082c-1.75.219-2.78.328-3.089.328-.183 0-.347-.127-.493-.382a1.61 1.61 0 0 1-.191-.711c0-.091.027-.164.082-.22.073-.072.137-.127.191-.163a.628.628 0 0 0 .137-.082 2.63 2.63 0 0 0 .738-.684c.201-.219.575-.747 1.122-1.586a31.008 31.008 0 0 0 1.476-2.57c.438-.875.656-1.522.656-1.941 0-.22.101-.329.301-.329.146 0 .401.128.766.383.364.237.547.456.547.657 0 .255-.055.492-.164.71-.11.201-.174.32-.192.356-.255.529-.72 1.322-1.394 2.379a31.347 31.347 0 0 1-1.887 2.68c.765-.073 1.832-.201 3.199-.383 1.039-1.477 1.559-2.407 1.559-2.79.036-.255.118-.382.246-.382.2 0 .446.118.738.355.31.237.465.474.465.711 0 .091-.055.228-.164.41-.091.164-.164.301-.219.41-.383.675-1.23 1.887-2.543 3.637-1.312 1.75-2.333 3.008-3.062 3.774.619-.11 1.75-.392 3.39-.848l.602-.164c-.31-.674-.474-1.02-.492-1.04-.11-.163-.164-.309-.164-.437.018-.164.118-.3.3-.41.183-.11.365-.164.547-.164.255 0 .447.11.574.328.292.42.638 1.085 1.039 1.996.42.894.629 1.44.629 1.641 0 .237-.145.42-.437.547-.274.128-.501.191-.684.191-.164 0-.3-.136-.41-.41l-.383-.957c-.182.055-1.121.32-2.816.793-1.695.456-2.798.693-3.309.711-.255-.018-.492-.164-.711-.438-.2-.273-.3-.519-.3-.738Zm3.5 2.434c0-.219.1-.365.3-.438a1.86 1.86 0 0 1 .575-.109c.145 0 .255.055.328.164.091.091.173.255.246.492l.219 1.04c.455 2.005.683 3.199.683 3.581 0 .31-.146.529-.437.657-.274.109-.511.164-.711.164a.355.355 0 0 1-.328-.192c-.073-.127-.128-.337-.164-.629-.219-1.895-.429-3.263-.629-4.101a3.104 3.104 0 0 1-.082-.63Zm2.625-.656c0-.183.164-.338.492-.465a.968.968 0 0 1 .437-.11c.201 0 .365.128.493.383.364.711.683 1.44.957 2.188.291.747.437 1.23.437 1.449 0 .182-.128.346-.383.492a1.647 1.647 0 0 1-.738.191c-.273 0-.456-.19-.547-.574a18.296 18.296 0 0 0-1.066-3.199 1.063 1.063 0 0 1-.082-.355Zm6.043-2.516 3.144-.137v-5.086l-3.555.192.411 5.031Zm.027-3.8c0-.128.1-.265.301-.411.2-.146.373-.219.519-.219.128 0 .337.192.629.575.292.364.565.774.82 1.23.256.438.383.747.383.93 0 .182-.127.346-.383.492-.237.146-.41.219-.519.219-.182 0-.346-.165-.492-.493-.365-.783-.711-1.412-1.039-1.886-.146-.22-.219-.365-.219-.438Zm7.93 3.445.546-5.196-3.746.246v5.114l3.2-.165Zm-3.008-.547c0-.11.073-.283.219-.52.382-.565.692-1.13.929-1.695.255-.565.383-.985.383-1.258v-.219c0-.2.064-.3.191-.3.073 0 .21.072.411.218.218.128.41.283.574.465.182.164.273.328.273.492 0 .219-.191.574-.574 1.067a9.709 9.709 0 0 1-1.285 1.312c-.456.401-.775.602-.957.602-.11 0-.164-.055-.164-.164ZM223.211 30.227c-.109 0-.255-.119-.438-.356-.182-.255-.264-.474-.246-.656.037-.146.064-.556.082-1.23.019-.456.028-1.258.028-2.407 0-.802-.009-1.34-.028-1.613l-.902.082a11.87 11.87 0 0 1-1.641.137c-.127 0-.309-.1-.546-.301-.237-.2-.356-.346-.356-.438 0-.146.155-.2.465-.164.2.018.793.01 1.777-.027a89.365 89.365 0 0 1 2.926-.164c.31-.018.592-.046.848-.082.273-.055.465-.091.574-.11.164-.018.31 0 .437.055.128.055.247.128.356.219.127.073.228.127.301.164.164.11.246.21.246.3 0 .074-.046.147-.137.22a.4.4 0 0 1-.246.081c-.091 0-.219-.009-.383-.027a3.985 3.985 0 0 0-.492-.027c-.675 0-1.367.018-2.078.055-.018.145-.028.51-.028 1.093-.036.985-.054 1.95-.054 2.899v1.312c0 .31-.028.51-.082.602-.164.255-.292.383-.383.383Zm-2.926 6.48c-.2 0-.446-.155-.738-.465-.219-.219-.328-.383-.328-.492 0-.055.036-.082.109-.082.073-.018.164-.027.274-.027l.601-.028c.346 0 .574-.009.684-.027.346 0 .638-.01.875-.027 1.567-.146 2.625-.265 3.172-.356.273-.036.519-.073.738-.11.219-.054.392-.081.519-.081.256 0 .511.127.766.383.201.2.301.364.301.492 0 .11-.064.182-.192.218-.091.019-.628.055-1.613.11-.547.018-1.221.064-2.023.137-.802.073-1.504.145-2.106.218l-.465.082c-.2.037-.392.055-.574.055Zm11.457-9.078c.219 0 .328.1.328.3 0 .11-.1.265-.3.466-.547.674-1.632 1.96-3.254 3.855-.128.164-.246.246-.356.246-.091 0-.292-.137-.601-.41-.256-.219-.383-.401-.383-.547 0-.164.136-.319.41-.465.419-.237 1.048-.71 1.887-1.422.838-.747 1.458-1.34 1.859-1.777.164-.164.301-.246.41-.246Zm-31.5 15.504v.082c0 .164-.045.291-.137.383-.072.09-.191.136-.355.136-.255 0-.547-.09-.875-.273-.31-.164-.465-.383-.465-.656v-.164c.037-.365.055-.602.055-.711l-.027-.52-.356-6.617a4.79 4.79 0 0 0-.137-.848c-.054-.31-.109-.528-.164-.656-.146-.292-.219-.501-.219-.629 0-.11.064-.164.192-.164.237 0 .884.191 1.941.574l2.735-.11c.601-.655 1.057-1.202 1.367-1.64.31-.437.483-.847.519-1.23.037-.292.11-.438.219-.438.11 0 .283.091.52.274.237.182.446.392.629.629.2.237.3.437.3.601 0 .11-.082.256-.246.438-.164.182-.61.601-1.34 1.258l6.125-.301h.274c.31 0 .601.118.875.355.273.219.41.447.41.684a.69.69 0 0 1-.109.328c-.073.128-.11.21-.11.246l-.656 6.672c.419.565.629.975.629 1.23 0 .164-.064.265-.191.301-.11.037-.274.055-.493.055l-10.937.191.027.52Zm-6.672-14.274c0-.109.119-.173.356-.191.802-.055 1.896-.346 3.281-.875a40.125 40.125 0 0 0 3.609-1.559c.329-.164.584-.246.766-.246.146 0 .219.046.219.137 0 .237-.474.693-1.422 1.367a31.03 31.03 0 0 1-3.063 1.86c-1.093.583-1.832.875-2.214.875-.292 0-.62-.165-.985-.493-.364-.346-.547-.638-.547-.875Zm.301-7.683c0-.146.064-.219.191-.219l.11.027c.273.055.583.082.93.082l.628-.027 6.891-.52h.164c.201 0 .429.092.684.274.273.182.41.41.41.684a.943.943 0 0 1-.055.3c-.018.11-.027.21-.027.301l-.219 7.082v.164l.027.957c0 .347-.118.638-.355.875a1.07 1.07 0 0 1-.82.356c-.183 0-.401-.055-.657-.164a23.421 23.421 0 0 1-2.269-1.203c-.638-.42-.957-.739-.957-.957 0-.128.109-.192.328-.192.201 0 .41.037.629.11a13.61 13.61 0 0 0 2.379.546l.219-7.547-6.071.465c-.291.037-.51.055-.656.055-.492 0-.866-.155-1.121-.465-.255-.328-.383-.656-.383-.984Zm1.859 2.734c0-.182.073-.392.219-.629.146-.237.301-.355.465-.355.073 0 .447.164 1.121.492.693.328 1.322.674 1.887 1.039.565.365.848.656.848.875 0 .146-.101.365-.301.656-.183.274-.374.41-.574.41-.146 0-.347-.1-.602-.3-.693-.547-1.577-1.121-2.652-1.723a5.025 5.025 0 0 1-.329-.219.404.404 0 0 1-.082-.246Zm4.157 13.207 9.953-.383.191-2.597-10.281.492.137 2.488Zm.246 3.965 9.379-.219.218-2.652-9.761.383.164 2.488Zm3.992-13.043c0-.091.091-.146.273-.164.657-.037 1.687-.31 3.09-.82 1.422-.51 2.616-1.003 3.582-1.477.383-.2.693-.3.93-.3.146 0 .219.045.219.136 0 .237-.474.684-1.422 1.34a33.718 33.718 0 0 1-3.008 1.832c-1.075.583-1.75.875-2.023.875-.256 0-.511-.091-.766-.273-.237-.201-.447-.42-.629-.657-.164-.255-.246-.419-.246-.492Zm.328-7.574c0-.146.064-.219.192-.219l.109.027c.273.073.629.11 1.066.11l.629-.027 6.809-.465h.109c.237 0 .492.063.766.191.273.11.41.328.41.656 0 .11-.018.228-.055.356-.018.11-.027.218-.027.328l-.492 8.148v.63c0 .346-.018.61-.055.792-.036.182-.146.365-.328.547-.292.292-.556.438-.793.438-.219 0-.702-.183-1.449-.547a16.922 16.922 0 0 1-2.051-1.23c-.62-.438-.93-.766-.93-.985 0-.11.091-.164.274-.164.164 0 .465.073.902.219.82.273 1.732.51 2.734.71l.465-8.558-5.961.465a7.646 7.646 0 0 1-.82.054c-.401 0-.674-.072-.82-.218-.328-.365-.547-.739-.657-1.121l-.027-.137Zm1.094 2.734c0-.2.082-.392.246-.574.164-.2.328-.3.492-.3.164 0 .602.2 1.313.6.729.402 1.449.83 2.16 1.286.31.2.465.41.465.629 0 .2-.091.437-.274.71-.164.256-.337.384-.519.384-.164 0-.347-.092-.547-.274-.638-.529-1.604-1.166-2.899-1.914-.291-.182-.437-.364-.437-.547ZM265.266 30.473c-.146 0-.292-.028-.438-.082a.715.715 0 0 1-.328-.328c-.055-.165-.173-.356-.355-.575a2.108 2.108 0 0 0-.493-.492l.11-.137c.091.055.31.164.656.328.346.165.602.247.766.247a.987.987 0 0 0 .683-.274c.201-.182.456-.529.766-1.039a7 7 0 0 0 .601-1.23c.183-.474.319-.912.411-1.313l.027-.055c0-.054-.018-.1-.055-.136-.036-.055-.073-.082-.109-.082l-1.258.11c-.839.145-1.714.263-2.625.355a2.862 2.862 0 0 0-.574.136c-.219.073-.374.11-.465.11-.146 0-.337-.119-.574-.356a1.94 1.94 0 0 1-.274-.273c-.073-.11-.091-.2-.054-.274l.218-.218.137-.11c.255-.255.51-.592.766-1.012.182-.255.373-.683.574-1.285 0-.2.045-.3.137-.3.054 0 .145.036.273.109l.438.273c.109.091.182.164.218.22a.384.384 0 0 1 .055.218c0 .11-.073.246-.219.41a4.152 4.152 0 0 0-.383.438l-.628.902-.055.11c0 .054.073.081.219.081l2.105-.273 1.422-.11.547-.054.301-.055h.082c.182 0 .382.155.601.465.255.237.383.437.383.601l-.137.356c-.018.036-.164.465-.437 1.285-.328.784-.611 1.376-.848 1.777s-.492.711-.765.93c-.493.401-.967.602-1.422.602Zm2.898 8.968c-.273 0-.538-.2-.793-.601a8.644 8.644 0 0 0-.957-1.258l-.711-.738c-.383.437-.72.784-1.012 1.039a5.413 5.413 0 0 1-1.039.738c-.784.456-1.44.684-1.968.684-.128 0-.192-.046-.192-.137 0-.055.173-.173.52-.355.346-.183.674-.402.984-.657.784-.656 1.431-1.33 1.942-2.023-.11-.11-.657-.584-1.641-1.422a9.141 9.141 0 0 1-.574-.465 7.016 7.016 0 0 1-.328-.246c-.165-.128-.247-.219-.247-.273 0-.092.046-.137.137-.137.274 0 .711.191 1.313.574.601.365 1.23.802 1.886 1.313.256-.31.456-.602.602-.875.146-.274.31-.611.492-1.012.091-.2.146-.374.164-.52.018-.164.028-.264.028-.3 0-.201.054-.301.164-.301.127 0 .3.1.519.3.383.365.574.611.574.739 0 .073-.045.155-.136.246-.219.219-.42.51-.602.875-.109.219-.31.529-.601.93-.092.109-.165.21-.219.3-.055.091-.11.174-.164.246.419.31 1.039.839 1.859 1.586.201.183.328.356.383.52.073.146.109.346.109.602a.78.78 0 0 1-.136.464.443.443 0 0 1-.356.164Zm2.078-9.625c.091 0 .228.064.41.192-.018.036.019.11.11.219l.191.191c.091.091.182.2.274.328.109.128.227.264.355.41.328.347 1.085 1.249 2.27 2.707.2.292.3.465.3.52 0 .182-.109.273-.328.273-.127 0-.264-.09-.41-.273-.346-.365-.966-.939-1.859-1.723-.693-.638-1.322-1.13-1.887-1.476-.273-.128-.41-.274-.41-.438 0-.127.137-.31.41-.547.255-.255.447-.383.574-.383Zm-14.164 4.594c0 .42-.146.72-.437.903-.274.182-.502.273-.684.273-.237 0-.638-.119-1.203-.355a12.075 12.075 0 0 1-1.531-.794c-.456-.291-.684-.5-.684-.628s.119-.192.356-.192c.127 0 .3.028.519.082.583.128 1.303.237 2.16.328l.028-1.039-4.184.219v2.105c0 .365-.128.547-.383.547-.182 0-.437-.1-.765-.3-.329-.2-.493-.401-.493-.602 0-.128.009-.228.028-.3.109-.657.164-1.113.164-1.368l-3.719.219.055 1.75v.11c0 .29-.11.437-.328.437a7.53 7.53 0 0 1-.438-.137 2.31 2.31 0 0 1-.629-.328c-.182-.146-.273-.32-.273-.52a.84.84 0 0 1 .027-.246c.055-.273.082-.692.082-1.258l-.055-3.28c0-.602-.118-1.095-.355-1.477-.109-.2-.164-.356-.164-.465 0-.091.082-.137.246-.137.255 0 .839.155 1.75.465l3.773-.219v-.848l-4.457.22-.683.027c-.419 0-.748-.137-.985-.41-.237-.274-.355-.53-.355-.766 0-.073.046-.11.137-.11h.082c.364.073.729.11 1.093.11h.329l4.839-.246v-.383c0-.51-.091-.957-.273-1.34a1.21 1.21 0 0 1-.055-.191c0-.11.073-.164.219-.164.255 0 .583.072.984.218.401.146.602.401.602.766v1.012l3.937-.192c.474-.018.875-.09 1.204-.218a.861.861 0 0 1 .246-.055c.255 0 .51.127.765.383.274.255.41.455.41.601 0 .2-.173.32-.519.356l-6.043.3v.848l4.512-.246.3-.027c.329 0 .593.109.793.328.219.2.329.4.329.601a.69.69 0 0 1-.082.301.62.62 0 0 0-.055.219l-.164 4.402v.11l.027.601Zm-21-8.34c0-.182.164-.41.492-.683a22.89 22.89 0 0 0 2.434-2.543 19.748 19.748 0 0 0 1.887-2.68c.145-.237.255-.574.328-1.012.018-.182.109-.273.273-.273.201 0 .501.164.903.492.346.292.519.52.519.684 0 .073-.118.282-.355.629-.237.328-.502.656-.793.984l4.429-.3c.274-.019.584-.083.93-.192.146-.055.283-.082.41-.082.182 0 .429.127.738.383.31.236.465.446.465.628 0 .22-.218.347-.656.383l-4.457.274c.875.71 1.404 1.157 1.586 1.34.2.182.301.364.301.546 0 .128-.101.31-.301.547-.201.237-.383.356-.547.356-.146 0-.301-.1-.465-.301-.328-.401-.857-.948-1.586-1.64-.127-.11-.191-.229-.191-.356 0-.128.073-.274.219-.438l-1.996.137a18.988 18.988 0 0 1-3.719 3.035l-.137.082c-.237.11-.41.164-.519.164-.128 0-.192-.054-.192-.164Zm.192 15.23c0-.09.072-.163.218-.218.31-.128.547-.246.711-.355.164-.128.337-.292.52-.493 1.276-1.44 2.652-3.308 4.129-5.605.328-.51.583-.766.765-.766.091 0 .137.091.137.274 0 .182-.082.483-.246.902a41.432 41.432 0 0 1-1.695 3.473 39.195 39.195 0 0 1-1.887 3.09 3.385 3.385 0 0 1-.492.574.597.597 0 0 1-.465.218l-.164-.027a2.898 2.898 0 0 1-1.039-.465c-.328-.237-.492-.437-.492-.601Zm.328-11.046c0-.2.091-.401.273-.602.182-.218.328-.328.438-.328.182 0 .701.255 1.558.766.857.51 1.641 1.012 2.352 1.504.273.182.41.383.41.601 0 .183-.1.42-.301.711-.182.274-.364.41-.547.41-.146 0-.319-.09-.519-.273a20.71 20.71 0 0 0-3.254-2.324c-.274-.146-.41-.301-.41-.465Zm1.695-4.129c0-.128.073-.292.219-.492.164-.2.337-.301.519-.301.383 0 1.632.756 3.746 2.27.274.182.411.373.411.574 0 .127-.083.337-.247.629-.164.273-.355.41-.574.41-.164 0-.346-.091-.547-.274-1.13-.966-2.16-1.731-3.09-2.296a3.29 3.29 0 0 1-.328-.274.34.34 0 0 1-.109-.246Zm4.074 10.664c0-.091.046-.137.137-.137a.38.38 0 0 1 .164.028c.401.09.756.136 1.066.136h.219l9.024-.328v-.136c0-.237-.019-.42-.055-.547a4.308 4.308 0 0 0-.219-.547.43.43 0 0 1-.055-.164c0-.11.092-.164.274-.164.31 0 .656.09 1.039.273.383.164.574.383.574.656v.575l2.735-.082c.51-.037.911-.11 1.203-.22a.897.897 0 0 1 .273-.054c.109 0 .274.055.492.164.237.11.447.246.629.41.182.164.274.338.274.52 0 .237-.201.374-.602.41l-4.977.191.028 3.5c0 .22.009.41.027.575.037.182.055.355.055.52 0 .437-.146.756-.438.956-.291.219-.546.328-.765.328-.201 0-.611-.164-1.231-.492a22.639 22.639 0 0 1-1.722-1.039c-.529-.364-.793-.61-.793-.738s.1-.192.3-.192c.146 0 .31.028.493.082.82.237 1.658.401 2.515.493l-.027-3.938-8.723.3-.629.028a.957.957 0 0 1-.656-.273 2.975 2.975 0 0 1-.465-.602c-.109-.237-.164-.4-.164-.492Zm3.746-6.316 3.856-.22v-.901l-3.883.218.027.903Zm.082 1.996 3.774-.219v-.93l-3.801.192.027.957Zm.137 6.535c0-.073.046-.219.137-.438.091-.145.164-.246.219-.3a.337.337 0 0 1 .246-.11c.073 0 .41.119 1.011.356.62.218 1.176.465 1.668.738.511.273.766.501.766.684 0 .09-.073.273-.219.547-.127.273-.282.41-.465.41-.109 0-.273-.064-.492-.192-.638-.383-1.495-.82-2.57-1.312-.201-.091-.301-.219-.301-.383Zm.109-13.563c0-.145.137-.364.411-.656a24.696 24.696 0 0 0 2.679-3.363c.784-1.203 1.176-2.05 1.176-2.543 0-.219.091-.328.273-.328.237 0 .529.155.875.465.365.31.547.556.547.738a.294.294 0 0 1-.082.219c-.218.364-.483.747-.793 1.148l5.25-.328c.328-.037.629-.1.903-.191a.891.891 0 0 1 .218-.055c.219 0 .474.137.766.41.292.273.438.483.438.629 0 .2-.183.319-.547.355l-4.403.274c.602.346 1.103.683 1.504 1.012.42.328.629.583.629.765 0 .091-.091.264-.273.52-.164.255-.338.383-.52.383-.109 0-.246-.082-.41-.247a12.318 12.318 0 0 0-2.105-1.668c-.201-.127-.301-.264-.301-.41a.64.64 0 0 1 .082-.273l-2.297.137c-.729.82-1.504 1.55-2.324 2.187-.802.638-1.313.957-1.532.957-.109 0-.164-.045-.164-.137Zm9.188 6.508.027-.93-4.238.22v.929l4.211-.219Zm.055-1.996.027-.93-4.293.247v.93l4.266-.247Zm-3.993-5.797c0-.11.064-.255.192-.437.146-.219.282-.328.41-.328.164 0 .574.228 1.23.683.675.456 1.012.766 1.012.93 0 .091-.073.255-.219.492-.145.219-.309.328-.492.328-.091 0-.228-.073-.41-.219-.328-.31-.811-.674-1.449-1.093-.182-.11-.274-.228-.274-.356Z"/></svg>