<svg width="340" height="60" viewBox="0 0 340 60" fill="none" xmlns="http://www.w3.org/2000/svg">
<path d="M75.1992 30.418C75.0352 30.418 74.9076 30.3815 74.8164 30.3086C74.8164 30.3086 74.7708 30.263 74.6797 30.1719C74.6068 30.026 74.388 29.625 74.0234 28.9688C73.6771 28.3125 73.4219 27.8659 73.2578 27.6289C72.9115 27.1185 72.7383 26.7904 72.7383 26.6445C72.7383 26.444 72.8568 26.1523 73.0938 25.7695C73.4583 25.2591 73.7044 24.849 73.832 24.5391C74.069 24.1016 74.2422 23.7643 74.3516 23.5273C74.4609 23.2721 74.5065 23.0716 74.4883 22.9258C74.4701 22.8346 74.4609 22.7344 74.4609 22.625C74.4609 22.5521 74.4792 22.5156 74.5156 22.5156C74.5521 22.4974 74.625 22.5065 74.7344 22.543C74.9167 22.5977 75.1263 22.7253 75.3633 22.9258C75.418 22.9805 75.4818 23.0534 75.5547 23.1445C75.6276 23.2357 75.6732 23.3177 75.6914 23.3906C75.7279 23.4453 75.737 23.5091 75.7188 23.582C75.7188 23.6367 75.6914 23.6914 75.6367 23.7461L75.5 23.8555C75.3724 24.0195 75.2266 24.2201 75.0625 24.457C74.8984 24.694 74.7435 24.9128 74.5977 25.1133L73.9141 26.0977C73.7318 26.3529 73.6406 26.5352 73.6406 26.6445C73.6406 26.6992 73.7227 26.8451 73.8867 27.082L74.4609 27.7109C75.0078 28.3125 75.263 28.5951 75.2266 28.5586C75.5729 28.9049 75.7461 29.2422 75.7461 29.5703C75.7461 30.1354 75.5638 30.418 75.1992 30.418ZM78.8086 30.3359C78.6445 30.3359 78.5078 30.3086 78.3984 30.2539C78.1979 30.0534 78.0521 29.8164 77.9609 29.543L77.3867 28.5312L76.8398 27.5742C76.4935 27.1003 76.3203 26.7812 76.3203 26.6172C76.3203 26.3984 76.4388 26.1159 76.6758 25.7695L77.1133 25.1406C77.2956 24.8307 77.3958 24.6484 77.4141 24.5938C77.5964 24.2292 77.7513 23.9102 77.8789 23.6367C78.0247 23.3451 78.0885 23.1263 78.0703 22.9805C78.0521 22.9076 78.043 22.8164 78.043 22.707C78.043 22.5612 78.125 22.5247 78.2891 22.5977C78.526 22.6888 78.7812 22.8346 79.0547 23.0352C79.1823 23.1628 79.2643 23.2721 79.3008 23.3633C79.3555 23.4362 79.3828 23.5365 79.3828 23.6641C79.3828 23.7005 79.319 23.7734 79.1914 23.8828C79.0638 23.974 78.9544 24.0742 78.8633 24.1836C78.7539 24.293 78.5078 24.6393 78.125 25.2227C78.0521 25.332 77.9609 25.4596 77.8516 25.6055C77.7604 25.7331 77.6419 25.9062 77.4961 26.125C77.3138 26.362 77.2227 26.5352 77.2227 26.6445C77.2227 26.7539 77.332 26.918 77.5508 27.1367C77.6237 27.2096 77.6966 27.3008 77.7695 27.4102C77.8607 27.5013 77.9701 27.6107 78.0977 27.7383L78.8086 28.5312C79.1549 28.8411 79.3281 29.1419 79.3281 29.4336C79.3281 30.0352 79.1549 30.3359 78.8086 30.3359ZM76.4844 40.1797C75.6094 40.1797 74.8802 39.9609 74.2969 39.5234C73.6953 39.0312 73.3945 38.457 73.3945 37.8008C73.3945 37.2904 73.5859 36.8438 73.9688 36.4609C74.4609 36.0417 75.0807 35.832 75.8281 35.832C75.8646 35.832 75.8919 35.7956 75.9102 35.7227C75.9466 35.6315 75.9648 35.513 75.9648 35.3672L75.9922 34.6562C75.8646 34.6745 75.6185 34.7018 75.2539 34.7383C74.9076 34.7747 74.6523 34.8112 74.4883 34.8477C74.5794 34.8294 74.2969 34.8932 73.6406 35.0391C73.5859 35.0573 73.4857 35.0664 73.3398 35.0664C72.9935 35.0664 72.7018 34.9115 72.4648 34.6016C72.3555 34.4922 72.3008 34.401 72.3008 34.3281C72.3008 34.2188 72.4648 34.1641 72.793 34.1641L73.6406 34.1094L75.9648 33.8086V33.4805V32.7969C75.9466 32.724 75.9375 32.6419 75.9375 32.5508C75.9375 32.4596 75.9284 32.3867 75.9102 32.332C75.8737 32.1862 75.8555 32.0951 75.8555 32.0586C75.8555 31.931 75.9193 31.8672 76.0469 31.8672C76.2109 31.8672 76.4935 31.9857 76.8945 32.2227C77.0221 32.2956 77.0859 32.3958 77.0859 32.5234C77.0859 32.6146 77.0677 32.6966 77.0312 32.7695C77.013 32.8242 77.0039 32.888 77.0039 32.9609V33.7266L77.8242 33.6445L78.8359 33.5352C78.9271 33.5169 79.0273 33.4896 79.1367 33.4531C79.2643 33.4167 79.3646 33.3984 79.4375 33.3984C79.5469 33.3984 79.6836 33.4531 79.8477 33.5625C80.1576 33.763 80.3125 33.9362 80.3125 34.082C80.3125 34.2279 80.1576 34.3008 79.8477 34.3008C79.7565 34.3008 79.6289 34.319 79.4648 34.3555C79.3008 34.3737 79.0911 34.3919 78.8359 34.4102L77.0039 34.5469L76.9766 36.2148C76.9401 36.4883 76.7396 36.6615 76.375 36.7344H76.3203C76.2109 36.7344 76.1016 36.7253 75.9922 36.707C75.901 36.6706 75.8281 36.6523 75.7734 36.6523C75.6276 36.6523 75.4818 36.6615 75.3359 36.6797C75.1901 36.6979 75.0625 36.7526 74.9531 36.8438C74.6432 37.1172 74.4883 37.4362 74.4883 37.8008C74.4883 38.1654 74.6615 38.4935 75.0078 38.7852C75.3177 39.0768 75.8099 39.2227 76.4844 39.2227C77.3776 39.1862 78.1068 38.9401 78.6719 38.4844C78.9089 38.3203 79.0911 38.2383 79.2188 38.2383C79.2917 38.2383 79.3828 38.2565 79.4922 38.293C79.5104 38.3112 79.5469 38.3477 79.6016 38.4023C79.6562 38.457 79.6836 38.5117 79.6836 38.5664C79.6836 39.0768 79.2552 39.4961 78.3984 39.8242C77.7604 40.0612 77.1224 40.1797 76.4844 40.1797ZM81.2422 29.8164C81.3333 29.8164 81.4701 29.8802 81.6523 30.0078C81.6341 30.0443 81.6706 30.1172 81.7617 30.2266C81.8529 30.3177 81.9167 30.3815 81.9531 30.418C82.0443 30.5091 82.1354 30.6185 82.2266 30.7461C82.3359 30.8737 82.4544 31.0104 82.582 31.1562C82.9102 31.5026 83.6667 32.4049 84.8516 33.8633C85.0521 34.1549 85.1523 34.3281 85.1523 34.3828C85.1523 34.5651 85.043 34.6562 84.8242 34.6562C84.6966 34.6562 84.5599 34.5651 84.4141 34.3828C84.0677 34.0182 83.4479 33.444 82.5547 32.6602C81.862 32.0221 81.2331 31.5299 80.668 31.1836C80.3945 31.056 80.2578 30.9102 80.2578 30.7461C80.2578 30.6185 80.3945 30.4362 80.668 30.1992C80.9232 29.944 81.1146 29.8164 81.2422 29.8164ZM53.707 42.9414V43.0234C53.707 43.4427 53.543 43.6523 53.2148 43.6523C52.8685 43.6523 52.5495 43.543 52.2578 43.3242C51.9844 43.1055 51.8477 42.832 51.8477 42.5039L51.875 42.3125C51.9115 41.875 51.9297 41.556 51.9297 41.3555C51.9297 41.0638 51.9206 40.8359 51.9023 40.6719L51.4922 36.2422C51.4193 35.5859 51.3099 35.112 51.1641 34.8203L51.082 34.6836C50.0247 35.194 48.9128 35.6589 47.7461 36.0781C46.5794 36.4792 45.8138 36.6797 45.4492 36.6797C45.194 36.6797 45.0664 36.6068 45.0664 36.4609C45.0664 36.3516 45.1484 36.224 45.3125 36.0781C45.4948 35.9323 45.7318 35.7956 46.0234 35.668C50.0156 34.0273 53.5794 31.9128 56.7148 29.3242C55.6211 28.5221 54.3359 27.4284 52.8594 26.043C51.2734 27.5378 49.724 28.6862 48.2109 29.4883L48.0742 29.5703C47.7279 29.7344 47.4727 29.8164 47.3086 29.8164C47.1992 29.8164 47.1445 29.7708 47.1445 29.6797C47.1445 29.5339 47.3359 29.2969 47.7188 28.9688C49.0495 27.8932 50.3073 26.6992 51.4922 25.3867C52.6953 24.0742 53.6615 22.862 54.3906 21.75C55.138 20.6198 55.5391 19.7995 55.5938 19.2891C55.5938 19.0339 55.6758 18.9062 55.8398 18.9062C55.9492 18.9062 56.1497 18.9883 56.4414 19.1523C56.7331 19.2982 56.9883 19.4805 57.207 19.6992C57.444 19.8997 57.5625 20.082 57.5625 20.2461C57.5625 20.3372 57.4622 20.5286 57.2617 20.8203C57.0794 21.0938 56.5964 21.7318 55.8125 22.7344L62.9219 22.2695L63.3047 22.2422C63.6146 22.2422 63.9154 22.3607 64.207 22.5977C64.4987 22.8346 64.6445 23.0625 64.6445 23.2812C64.6445 23.4089 64.5443 23.5638 64.3438 23.7461C64.1432 23.9284 64.0156 24.0651 63.9609 24.1562C62.776 25.7786 61.1992 27.4831 59.2305 29.2695C62.5664 31.4753 66.1576 33.0794 70.0039 34.082C70.3503 34.1732 70.5234 34.2917 70.5234 34.4375C70.5234 34.5286 70.4323 34.6836 70.25 34.9023C70.0859 35.1211 69.8854 35.3216 69.6484 35.5039C69.4297 35.6862 69.2292 35.7773 69.0469 35.7773C68.9375 35.7773 68.2812 35.5495 67.0781 35.0938C65.8932 34.638 64.4896 34.0091 62.8672 33.207C61.2448 32.3867 59.6406 31.4297 58.0547 30.3359C56.8698 31.2656 55.8398 32.013 54.9648 32.5781C54.0898 33.1432 53.069 33.7174 51.9023 34.3008C52.0482 34.3372 52.4583 34.474 53.1328 34.7109L63.168 34.2188H63.4414C63.8242 34.2188 64.1341 34.3372 64.3711 34.5742C64.6263 34.793 64.7539 35.0026 64.7539 35.2031C64.7539 35.3125 64.7266 35.4128 64.6719 35.5039C64.6172 35.5951 64.5807 35.668 64.5625 35.7227L63.9609 40.5078C64.362 41.0911 64.5625 41.4922 64.5625 41.7109C64.5625 41.8568 64.4987 41.9479 64.3711 41.9844C64.2617 42.0208 64.0521 42.0482 63.7422 42.0664L53.6523 42.3125L53.707 42.9414ZM53.5156 40.7812L62.3203 40.5352L62.7852 35.7773L53.1328 36.1875L53.5156 40.7812ZM53.8984 25.0312C55.3203 26.3255 56.6419 27.4102 57.8633 28.2852C59.6133 26.6628 60.9622 25.1862 61.9102 23.8555L54.582 24.3203L53.8984 25.0312Z" fill="#333333"/>
<path d="M121.902 24.2383C122.139 24.4388 122.258 24.5846 122.258 24.6758C122.258 24.8398 122.03 24.9128 121.574 24.8945H121C120.49 24.8945 119.405 24.9583 117.746 25.0859C117.71 25.3229 117.664 25.569 117.609 25.8242C117.555 26.0612 117.518 26.2435 117.5 26.3711V26.5898C117.5 26.6081 117.5 26.6263 117.5 26.6445C117.5 26.6628 117.5 26.681 117.5 26.6992C117.591 26.6992 117.655 26.6901 117.691 26.6719C117.783 26.6536 117.992 26.6263 118.32 26.5898C118.667 26.5352 119.013 26.4805 119.359 26.4258C119.469 26.4076 119.578 26.3802 119.688 26.3438C119.797 26.2891 119.888 26.2617 119.961 26.2617C120.161 26.2617 120.408 26.3893 120.699 26.6445C120.9 26.8086 121 26.9362 121 27.0273C121 27.2279 120.882 27.5286 120.645 27.9297C120.262 28.6042 119.852 29.1602 119.414 29.5977C118.885 30.1263 118.339 30.4727 117.773 30.6367C117.701 30.6549 117.618 30.6641 117.527 30.6641C117.454 30.6641 117.418 30.6458 117.418 30.6094C117.418 30.5547 117.546 30.4089 117.801 30.1719C118.475 29.5885 119.04 28.9049 119.496 28.1211C119.751 27.6654 119.879 27.3919 119.879 27.3008C119.879 27.2279 119.833 27.1914 119.742 27.1914C119.669 27.1914 119.624 27.1914 119.605 27.1914L118.895 27.2734C118.184 27.3828 117.737 27.4648 117.555 27.5195C117.336 27.6289 117.163 27.6836 117.035 27.6836C116.908 27.6836 116.743 27.5833 116.543 27.3828C116.525 27.3646 116.479 27.3281 116.406 27.2734C116.352 27.2188 116.324 27.1367 116.324 27.0273C116.324 26.9727 116.361 26.8906 116.434 26.7812C116.507 26.6354 116.561 26.4531 116.598 26.2344C116.634 26.0156 116.652 25.8789 116.652 25.8242L116.762 25.1953C116.452 25.2318 115.96 25.3138 115.285 25.4414C115.103 25.4779 114.975 25.4961 114.902 25.4961C114.775 25.4961 114.629 25.4414 114.465 25.332C114.118 25.0951 113.945 24.9401 113.945 24.8672C113.945 24.7396 114.109 24.6667 114.438 24.6484L115.395 24.5664L116.926 24.4023C117.017 23.6732 117.062 23.2266 117.062 23.0625L117.09 22.4883C117.126 22.1784 117.199 22.0234 117.309 22.0234C117.4 22.0234 117.509 22.0599 117.637 22.1328C117.874 22.2604 118.047 22.3971 118.156 22.543C118.284 22.6706 118.329 22.7799 118.293 22.8711L118.102 23.4453C118.047 23.5547 117.974 23.8372 117.883 24.293L120.262 24.0742C120.462 24.056 120.699 24.0013 120.973 23.9102L121.191 23.8828C121.374 23.8828 121.529 23.9375 121.656 24.0469C121.784 24.138 121.866 24.2018 121.902 24.2383ZM118.484 40.1797C117.609 40.1797 116.88 39.9609 116.297 39.5234C115.695 39.0312 115.395 38.457 115.395 37.8008C115.395 37.2904 115.586 36.8438 115.969 36.4609C116.461 36.0417 117.081 35.832 117.828 35.832C117.865 35.832 117.892 35.7956 117.91 35.7227C117.947 35.6315 117.965 35.513 117.965 35.3672L117.992 34.6562C117.865 34.6745 117.618 34.7018 117.254 34.7383C116.908 34.7747 116.652 34.8112 116.488 34.8477C116.579 34.8294 116.297 34.8932 115.641 35.0391C115.586 35.0573 115.486 35.0664 115.34 35.0664C114.993 35.0664 114.702 34.9115 114.465 34.6016C114.355 34.4922 114.301 34.401 114.301 34.3281C114.301 34.2188 114.465 34.1641 114.793 34.1641L115.641 34.1094L117.965 33.8086V33.4805V32.7969C117.947 32.724 117.938 32.6419 117.938 32.5508C117.938 32.4596 117.928 32.3867 117.91 32.332C117.874 32.1862 117.855 32.0951 117.855 32.0586C117.855 31.931 117.919 31.8672 118.047 31.8672C118.211 31.8672 118.493 31.9857 118.895 32.2227C119.022 32.2956 119.086 32.3958 119.086 32.5234C119.086 32.6146 119.068 32.6966 119.031 32.7695C119.013 32.8242 119.004 32.888 119.004 32.9609V33.7266L119.824 33.6445L120.836 33.5352C120.927 33.5169 121.027 33.4896 121.137 33.4531C121.264 33.4167 121.365 33.3984 121.438 33.3984C121.547 33.3984 121.684 33.4531 121.848 33.5625C122.158 33.763 122.312 33.9362 122.312 34.082C122.312 34.2279 122.158 34.3008 121.848 34.3008C121.757 34.3008 121.629 34.319 121.465 34.3555C121.301 34.3737 121.091 34.3919 120.836 34.4102L119.004 34.5469L118.977 36.2148C118.94 36.4883 118.74 36.6615 118.375 36.7344H118.32C118.211 36.7344 118.102 36.7253 117.992 36.707C117.901 36.6706 117.828 36.6523 117.773 36.6523C117.628 36.6523 117.482 36.6615 117.336 36.6797C117.19 36.6979 117.062 36.7526 116.953 36.8438C116.643 37.1172 116.488 37.4362 116.488 37.8008C116.488 38.1654 116.661 38.4935 117.008 38.7852C117.318 39.0768 117.81 39.2227 118.484 39.2227C119.378 39.1862 120.107 38.9401 120.672 38.4844C120.909 38.3203 121.091 38.2383 121.219 38.2383C121.292 38.2383 121.383 38.2565 121.492 38.293C121.51 38.3112 121.547 38.3477 121.602 38.4023C121.656 38.457 121.684 38.5117 121.684 38.5664C121.684 39.0768 121.255 39.4961 120.398 39.8242C119.76 40.0612 119.122 40.1797 118.484 40.1797ZM123.242 29.8164C123.333 29.8164 123.47 29.8802 123.652 30.0078C123.634 30.0443 123.671 30.1172 123.762 30.2266C123.853 30.3177 123.917 30.3815 123.953 30.418C124.044 30.5091 124.135 30.6185 124.227 30.7461C124.336 30.8737 124.454 31.0104 124.582 31.1562C124.91 31.5026 125.667 32.4049 126.852 33.8633C127.052 34.1549 127.152 34.3281 127.152 34.3828C127.152 34.5651 127.043 34.6562 126.824 34.6562C126.697 34.6562 126.56 34.5651 126.414 34.3828C126.068 34.0182 125.448 33.444 124.555 32.6602C123.862 32.0221 123.233 31.5299 122.668 31.1836C122.395 31.056 122.258 30.9102 122.258 30.7461C122.258 30.6185 122.395 30.4362 122.668 30.1992C122.923 29.944 123.115 29.8164 123.242 29.8164ZM102.871 31.6211L102.898 41.0547C102.898 41.4557 102.753 41.6562 102.461 41.6562C102.352 41.6562 102.169 41.6107 101.914 41.5195C101.659 41.4284 101.431 41.2917 101.23 41.1094C101.03 40.9271 100.93 40.6992 100.93 40.4258L100.957 40.207C101.085 39.2044 101.148 37.974 101.148 36.5156V31.7305L97.7852 31.8945L97.8672 41.5195C97.8672 41.8841 97.7214 42.0664 97.4297 42.0664C97.0469 42.0664 96.6914 41.9297 96.3633 41.6562C96.0352 41.401 95.8711 41.1367 95.8711 40.8633L95.8984 40.6445C96.0443 39.5143 96.1172 38.2839 96.1172 36.9531L96.0898 31.9766L92.5625 32.168L92.5352 42.6953C92.5352 43.1875 92.3711 43.4336 92.043 43.4336C91.7513 43.4336 91.4323 43.3333 91.0859 43.1328C90.7396 42.9323 90.5664 42.6497 90.5664 42.2852C90.5664 42.2305 90.5846 42.0755 90.6211 41.8203C90.7305 41.3099 90.7852 40.7812 90.7852 40.2344L90.8125 32.25L89.1719 32.332C88.9896 32.3503 88.7435 32.3594 88.4336 32.3594C88.2148 32.3594 88.0326 32.3411 87.8867 32.3047C87.7409 32.25 87.6133 32.1589 87.5039 32.0312C87.3034 31.7943 87.1484 31.5482 87.0391 31.293C86.9479 31.0378 86.9023 30.8737 86.9023 30.8008C86.9023 30.6914 86.957 30.6367 87.0664 30.6367C87.1393 30.6367 87.2031 30.6458 87.2578 30.6641C87.6771 30.7734 88.0599 30.8281 88.4062 30.8281H88.5703L90.8398 30.7188L90.8672 23.2539C90.8672 22.543 90.776 22.0326 90.5938 21.7227C90.4661 21.5039 90.4023 21.3398 90.4023 21.2305C90.4023 21.0664 90.5117 20.9844 90.7305 20.9844C91.0404 20.9844 91.6875 21.2031 92.6719 21.6406L107.109 20.7656H107.438C107.729 20.7656 108.003 20.875 108.258 21.0938C108.513 21.2943 108.641 21.5221 108.641 21.7773C108.641 21.8503 108.613 21.9505 108.559 22.0781C108.522 22.1875 108.504 22.2604 108.504 22.2969L108.449 29.7891L109.707 29.7344C110.217 29.6979 110.591 29.6432 110.828 29.5703C110.865 29.5521 110.928 29.543 111.02 29.543C111.275 29.543 111.576 29.6979 111.922 30.0078C112.25 30.2812 112.414 30.5273 112.414 30.7461C112.414 30.8737 112.35 30.974 112.223 31.0469C112.095 31.1198 111.931 31.1654 111.73 31.1836L108.422 31.3477L108.34 41.1641C108.34 41.3281 108.349 41.4922 108.367 41.6562C108.404 41.8203 108.422 41.9844 108.422 42.1484C108.422 42.5495 108.276 42.8776 107.984 43.1328C107.711 43.4062 107.419 43.543 107.109 43.543C106.781 43.543 106.316 43.306 105.715 42.832C105.113 42.3763 104.566 41.8659 104.074 41.3008C103.582 40.7357 103.336 40.362 103.336 40.1797C103.336 40.0156 103.418 39.9336 103.582 39.9336C103.71 39.9336 103.919 40.0065 104.211 40.1523C104.995 40.6081 105.797 40.9635 106.617 41.2188L106.699 31.4297L102.871 31.6211ZM96.0898 30.4453L96.0625 22.9805L92.5898 23.1719L92.5625 30.6094L96.0898 30.4453ZM97.7852 30.3633L101.148 30.1719L101.176 22.6797L97.7305 22.8711L97.7852 30.3633ZM102.871 30.0898L106.699 29.8984L106.754 22.3516L102.844 22.5703L102.871 30.0898Z" fill="#333333"/>
<path d="M160.02 30.4727C159.783 30.4727 159.609 30.3906 159.5 30.2266C159.336 29.9896 159.172 29.7982 159.008 29.6523C158.862 29.5065 158.598 29.306 158.215 29.0508L158.297 28.9141C159.135 29.2057 159.728 29.3516 160.074 29.3516C160.366 29.3516 160.685 29.1875 161.031 28.8594C161.396 28.513 161.706 28.0208 161.961 27.3828C162.089 27.0911 162.18 26.8542 162.234 26.6719C162.307 26.4714 162.362 26.2526 162.398 26.0156V25.9609C162.398 25.7969 162.316 25.7148 162.152 25.7148C161.97 25.7148 161.642 25.7695 161.168 25.8789C160.913 25.9518 160.576 26.0612 160.156 26.207L159.938 26.1523C159.919 26.1341 159.874 26.1068 159.801 26.0703C159.746 26.0156 159.701 25.9609 159.664 25.9062C159.573 25.8151 159.527 25.7513 159.527 25.7148L159.5 25.6055C159.5 25.4779 159.564 25.3594 159.691 25.25C159.837 25.1406 159.919 25.0586 159.938 25.0039C160.083 24.8398 160.375 24.4388 160.812 23.8008C160.849 23.7643 160.913 23.6823 161.004 23.5547C161.095 23.4089 161.141 23.2812 161.141 23.1719C161.141 23.0443 160.603 23.1354 159.527 23.4453C158.434 23.7734 157.859 23.9375 157.805 23.9375C157.622 23.9375 157.431 23.7826 157.23 23.4727C157.085 23.3268 157.012 23.2083 157.012 23.1172C157.012 22.9896 157.194 22.9167 157.559 22.8984C157.978 22.8802 158.625 22.8073 159.5 22.6797C160.393 22.5521 160.922 22.4701 161.086 22.4336L161.469 22.3242C161.523 22.306 161.587 22.2969 161.66 22.2969C161.715 22.2969 161.797 22.3333 161.906 22.4062C162.034 22.4792 162.143 22.5339 162.234 22.5703C162.471 22.6797 162.608 22.8073 162.645 22.9531V23.0352C162.645 23.1992 162.553 23.3724 162.371 23.5547C162.298 23.6276 162.152 23.7826 161.934 24.0195C161.715 24.2383 161.578 24.3841 161.523 24.457C161.451 24.5299 161.341 24.6484 161.195 24.8125C161.049 24.9766 160.967 25.0768 160.949 25.1133C160.949 25.168 160.967 25.2044 161.004 25.2227C161.04 25.2409 161.086 25.25 161.141 25.25C161.688 25.1771 162.134 25.0951 162.48 25.0039L162.918 24.8672C163.118 24.8672 163.264 24.9401 163.355 25.0859C163.52 25.2682 163.629 25.4232 163.684 25.5508C163.738 25.6602 163.738 25.7695 163.684 25.8789C163.665 25.9336 163.638 25.9883 163.602 26.043C163.565 26.0977 163.529 26.1615 163.492 26.2344C163.474 26.2708 163.438 26.3438 163.383 26.4531C163.328 26.5625 163.292 26.6719 163.273 26.7812C162.945 27.7292 162.553 28.5404 162.098 29.2148C161.842 29.5247 161.56 29.7891 161.25 30.0078C160.831 30.3177 160.421 30.4727 160.02 30.4727ZM162.508 39.7969C162.435 39.7969 162.353 39.7695 162.262 39.7148C162.171 39.6419 162.052 39.5417 161.906 39.4141C161.268 38.9219 160.648 38.1836 160.047 37.1992C159.445 36.2148 159.017 35.1484 158.762 34C158.743 33.8906 158.716 33.763 158.68 33.6172C158.643 33.4714 158.607 33.362 158.57 33.2891C158.57 33.2708 158.543 33.2617 158.488 33.2617C158.361 33.2617 158.115 33.3438 157.75 33.5078C157.641 33.5625 157.531 33.6445 157.422 33.7539C157.331 33.8451 157.23 33.8815 157.121 33.8633C157.048 33.8633 156.948 33.8177 156.82 33.7266C156.693 33.6354 156.602 33.5534 156.547 33.4805C156.365 33.2253 156.273 33.0703 156.273 33.0156C156.273 32.9062 156.374 32.8424 156.574 32.8242C156.848 32.8242 157.021 32.8151 157.094 32.7969C157.622 32.724 158.124 32.6055 158.598 32.4414C158.671 32.4232 158.771 32.3685 158.898 32.2773C158.917 32.2773 158.944 32.2682 158.98 32.25C159.035 32.2318 159.099 32.25 159.172 32.3047C159.445 32.487 159.582 32.6237 159.582 32.7148C159.582 33.9909 159.947 35.1849 160.676 36.2969C161.405 37.4089 162.471 38.3477 163.875 39.1133C163.948 39.1497 164.039 39.1862 164.148 39.2227C164.258 39.2591 164.312 39.3138 164.312 39.3867C164.312 39.4779 164.012 39.5599 163.41 39.6328L162.727 39.7422L162.508 39.7969ZM165.242 29.8164C165.333 29.8164 165.47 29.8802 165.652 30.0078C165.634 30.0443 165.671 30.1172 165.762 30.2266C165.853 30.3177 165.917 30.3815 165.953 30.418C166.044 30.5091 166.135 30.6185 166.227 30.7461C166.336 30.8737 166.454 31.0104 166.582 31.1562C166.91 31.5026 167.667 32.4049 168.852 33.8633C169.052 34.1549 169.152 34.3281 169.152 34.3828C169.152 34.5651 169.043 34.6562 168.824 34.6562C168.697 34.6562 168.56 34.5651 168.414 34.3828C168.068 34.0182 167.448 33.444 166.555 32.6602C165.862 32.0221 165.233 31.5299 164.668 31.1836C164.395 31.056 164.258 30.9102 164.258 30.7461C164.258 30.6185 164.395 30.4362 164.668 30.1992C164.923 29.944 165.115 29.8164 165.242 29.8164ZM142.301 25.9336C142.921 27.9388 143.777 29.7982 144.871 31.5117C145.965 33.2253 147.232 34.6107 148.672 35.668C148.781 35.7409 148.872 35.8138 148.945 35.8867C149.018 35.9596 149.055 36.0326 149.055 36.1055C149.055 36.2513 148.891 36.4518 148.562 36.707C148.253 36.9622 148.007 37.0898 147.824 37.0898C147.697 37.0898 147.56 37.0352 147.414 36.9258C146.284 36.069 145.245 34.9935 144.297 33.6992C143.367 32.4049 142.565 30.9922 141.891 29.4609C140.943 31.1562 139.949 32.6328 138.91 33.8906C137.889 35.1484 136.978 36.1146 136.176 36.7891C135.374 37.4635 134.845 37.8008 134.59 37.8008C134.462 37.8008 134.398 37.737 134.398 37.6094C134.398 37.4271 134.544 37.1628 134.836 36.8164C136.185 35.2669 137.361 33.763 138.363 32.3047C139.366 30.8281 140.25 29.1602 141.016 27.3008L140.605 26.0156L133.852 26.3711L133.797 42.7227C133.797 43.2695 133.624 43.543 133.277 43.543C133.204 43.543 133.04 43.4883 132.785 43.3789C132.548 43.2878 132.32 43.1419 132.102 42.9414C131.901 42.7591 131.801 42.5404 131.801 42.2852C131.801 42.2122 131.819 42.0664 131.855 41.8477C131.965 41.3372 132.02 40.8086 132.02 40.2617L132.102 26.4531C132.102 25.9062 132.01 25.3958 131.828 24.9219C131.719 24.6484 131.664 24.4479 131.664 24.3203C131.664 24.1745 131.737 24.1016 131.883 24.1016C132.193 24.1016 132.876 24.3477 133.934 24.8398L140.223 24.4844C140.095 23.974 139.986 23.4362 139.895 22.8711C139.694 21.6133 139.576 20.875 139.539 20.6562C139.484 20.3646 139.284 20.0547 138.938 19.7266C138.719 19.5625 138.609 19.4258 138.609 19.3164C138.609 19.1888 138.792 19.125 139.156 19.125L139.812 19.1797C140.25 19.2344 140.569 19.3164 140.77 19.4258C140.97 19.5352 141.089 19.6536 141.125 19.7812C141.161 19.8906 141.189 20.0547 141.207 20.2734C141.389 21.9323 141.608 23.3086 141.863 24.4023L149.984 23.9648H150.312C150.604 23.9648 150.878 24.0742 151.133 24.293C151.406 24.4935 151.543 24.7122 151.543 24.9492C151.543 25.0221 151.516 25.1224 151.461 25.25C151.406 25.3594 151.379 25.4414 151.379 25.4961L151.215 41.1367C151.215 41.3008 151.224 41.4648 151.242 41.6289C151.279 41.793 151.297 41.957 151.297 42.1211C151.297 42.5768 151.16 42.9049 150.887 43.1055C150.613 43.3242 150.367 43.4336 150.148 43.4336C149.766 43.4336 149.046 43.1602 147.988 42.6133C146.949 42.0664 145.992 41.474 145.117 40.8359C144.242 40.1797 143.805 39.6966 143.805 39.3867C143.805 39.2591 143.905 39.1953 144.105 39.1953C144.306 39.1953 144.552 39.2682 144.844 39.4141C146.521 40.2161 148.061 40.8086 149.465 41.1914L149.602 25.5508L142.301 25.9336Z" fill="#333333"/>
<path d="M200.133 26.8359C200.023 26.8359 199.868 26.7539 199.668 26.5898C199.559 26.5169 199.467 26.444 199.395 26.3711C199.322 26.2982 199.285 26.2344 199.285 26.1797L199.312 25.7422C199.331 25.5781 199.34 25.2135 199.34 24.6484C199.322 24.2474 199.312 23.4089 199.312 22.1328C199.312 21.6224 199.267 21.1576 199.176 20.7383C199.176 20.7383 199.139 20.5195 199.066 20.082V20C199.066 19.8359 199.176 19.7904 199.395 19.8633C199.486 19.8815 199.695 19.918 200.023 19.9727C200.37 19.918 201.527 19.7812 203.496 19.5625C203.77 19.526 203.988 19.4896 204.152 19.4531C204.316 19.4167 204.435 19.3893 204.508 19.3711H204.617C204.818 19.3711 205 19.4714 205.164 19.6719C205.456 20.0182 205.574 20.2643 205.52 20.4102C205.447 20.5924 205.374 20.9023 205.301 21.3398C205.264 21.5951 205.219 22.0326 205.164 22.6523V23.9102V25.9062C205.164 26.0703 205.082 26.2891 204.918 26.5625C204.882 26.6536 204.809 26.7266 204.699 26.7812C204.608 26.8359 204.508 26.8633 204.398 26.8633C204.289 26.8633 204.207 26.8359 204.152 26.7812C204.116 26.7448 204.079 26.7083 204.043 26.6719C204.007 26.6172 203.97 26.5807 203.934 26.5625C203.915 26.5443 203.879 26.5352 203.824 26.5352C202.694 26.5352 201.673 26.6081 200.762 26.7539C200.689 26.7721 200.616 26.7812 200.543 26.7812C200.488 26.7812 200.434 26.7904 200.379 26.8086L200.188 26.8359H200.133ZM200.652 25.8242C201.108 25.806 201.728 25.7513 202.512 25.6602C202.876 25.6237 203.086 25.6055 203.141 25.6055H203.359C203.651 25.6055 203.87 25.6602 204.016 25.7695C204.143 24.8581 204.207 23.1901 204.207 20.7656C204.171 20.4922 204.061 20.3555 203.879 20.3555C203.533 20.3555 202.831 20.4193 201.773 20.5469C201.664 20.5469 201.555 20.556 201.445 20.5742C201.336 20.5924 201.227 20.6107 201.117 20.6289C200.807 20.6836 200.579 20.7109 200.434 20.7109C200.306 20.7109 200.26 20.7747 200.297 20.9023L200.27 21.832C200.251 21.9596 200.242 22.0781 200.242 22.1875C200.26 22.2969 200.27 22.3971 200.27 22.4883C200.288 22.6341 200.297 22.8711 200.297 23.1992C200.297 24.6211 200.306 25.4049 200.324 25.5508C200.324 25.6784 200.361 25.7604 200.434 25.7969C200.507 25.8333 200.579 25.8424 200.652 25.8242ZM202.676 24.293C202.475 24.293 202.32 24.1927 202.211 23.9922C201.828 23.3542 201.473 22.8255 201.145 22.4062L200.953 22.1055C200.88 21.9961 200.844 21.9141 200.844 21.8594C200.862 21.7865 200.908 21.7591 200.98 21.7773C201.454 21.9232 201.892 22.1602 202.293 22.4883C202.913 22.9622 203.223 23.3268 203.223 23.582C203.223 23.7096 203.186 23.8372 203.113 23.9648C202.986 24.1836 202.84 24.293 202.676 24.293ZM205.164 34.5195C204.891 34.5195 204.626 34.319 204.371 33.918C204.043 33.4076 203.724 32.9883 203.414 32.6602L202.703 31.9219C202.32 32.3594 201.983 32.7057 201.691 32.9609C201.418 33.2161 201.072 33.4622 200.652 33.6992C199.868 34.1549 199.212 34.3828 198.684 34.3828C198.556 34.3828 198.492 34.3372 198.492 34.2461C198.492 34.1914 198.665 34.0729 199.012 33.8906C199.358 33.7083 199.686 33.4896 199.996 33.2344C200.78 32.5781 201.427 31.9036 201.938 31.2109C201.828 31.1016 201.281 30.6276 200.297 29.7891C200.169 29.6979 199.978 29.543 199.723 29.3242C199.668 29.2878 199.559 29.2057 199.395 29.0781C199.23 28.9505 199.148 28.8594 199.148 28.8047C199.148 28.7135 199.194 28.668 199.285 28.668C199.559 28.668 199.996 28.8594 200.598 29.2422C201.199 29.6068 201.828 30.0443 202.484 30.5547C202.74 30.2448 202.94 29.9531 203.086 29.6797C203.232 29.4062 203.396 29.069 203.578 28.668C203.669 28.4674 203.724 28.2943 203.742 28.1484C203.76 27.9844 203.77 27.8841 203.77 27.8477C203.77 27.6471 203.824 27.5469 203.934 27.5469C204.061 27.5469 204.234 27.6471 204.453 27.8477C204.836 28.2122 205.027 28.4583 205.027 28.5859C205.027 28.6589 204.982 28.7409 204.891 28.832C204.672 29.0508 204.471 29.3424 204.289 29.707C204.18 29.9258 203.979 30.2357 203.688 30.6367C203.596 30.7461 203.523 30.8464 203.469 30.9375C203.414 31.0286 203.359 31.1107 203.305 31.1836C203.724 31.4935 204.344 32.0221 205.164 32.7695C205.365 32.9518 205.492 33.125 205.547 33.2891C205.62 33.4349 205.656 33.6354 205.656 33.8906C205.656 34.0729 205.611 34.2279 205.52 34.3555C205.428 34.4648 205.31 34.5195 205.164 34.5195ZM199.121 42.6953C198.848 42.6953 198.638 42.6224 198.492 42.4766C198.328 42.3125 198.246 42.1667 198.246 42.0391C198.246 41.9115 198.319 41.7747 198.465 41.6289C198.483 41.6107 198.583 41.4648 198.766 41.1914C199.167 40.5534 199.622 39.7422 200.133 38.7578C200.661 37.7552 200.99 37.0716 201.117 36.707C201.227 36.3607 201.327 36.0599 201.418 35.8047C201.527 35.5495 201.618 35.4219 201.691 35.4219C201.819 35.4219 201.928 35.4674 202.02 35.5586C202.111 35.6315 202.202 35.7409 202.293 35.8867C202.402 36.0143 202.484 36.1055 202.539 36.1602C202.667 36.306 202.73 36.4427 202.73 36.5703C202.73 36.6615 202.694 36.7526 202.621 36.8438C202.548 36.9349 202.503 36.9987 202.484 37.0352L201.281 39.0586C200.971 39.6237 200.561 40.3255 200.051 41.1641C199.978 41.2552 199.941 41.3464 199.941 41.4375C199.941 41.5104 200.023 41.5469 200.188 41.5469C200.534 41.5469 201.181 41.5013 202.129 41.4102C203.077 41.3372 203.715 41.2734 204.043 41.2188C204.517 41.1641 204.845 41.1094 205.027 41.0547C205.228 41 205.52 41.1367 205.902 41.4648C206.358 41.8477 206.458 42.0938 206.203 42.2031C206.057 42.276 205.775 42.3125 205.355 42.3125H204.262C204.025 42.3125 203.651 42.3307 203.141 42.3672C202.831 42.3672 202.484 42.3763 202.102 42.3945C201.719 42.4128 201.4 42.431 201.145 42.4492C200.853 42.4674 200.288 42.5221 199.449 42.6133L199.121 42.6953ZM210.742 30.6367C210.961 30.6367 211.07 30.737 211.07 30.9375C211.07 31.0469 210.97 31.2018 210.77 31.4023C210.223 32.0768 209.138 33.362 207.516 35.2578C207.388 35.4219 207.27 35.5039 207.16 35.5039C207.069 35.5039 206.868 35.3672 206.559 35.0938C206.303 34.875 206.176 34.6927 206.176 34.5469C206.176 34.3828 206.312 34.2279 206.586 34.082C207.005 33.8451 207.634 33.3711 208.473 32.6602C209.311 31.9128 209.931 31.3203 210.332 30.8828C210.496 30.7188 210.633 30.6367 210.742 30.6367ZM179.844 43.3242V43.4062C179.844 43.5521 179.798 43.6615 179.707 43.7344C179.634 43.8255 179.525 43.8711 179.379 43.8711C179.142 43.8711 178.841 43.7708 178.477 43.5703C178.13 43.388 177.957 43.1419 177.957 42.832V42.75L177.984 41.9023C177.984 41.6289 177.975 41.4193 177.957 41.2734L177.602 37.0625C177.565 36.7344 177.52 36.4792 177.465 36.2969C177.428 36.0964 177.355 35.9232 177.246 35.7773L177.164 35.668C176.052 36.3424 174.867 36.944 173.609 37.4727C172.37 38.0013 171.559 38.2656 171.176 38.2656C170.975 38.2656 170.875 38.2109 170.875 38.1016C170.875 38.0286 170.93 37.9375 171.039 37.8281C171.167 37.7188 171.34 37.6094 171.559 37.5C173.309 36.625 175.068 35.5495 176.836 34.2734C178.604 32.9974 180.053 31.7578 181.184 30.5547C182.332 29.3333 182.906 28.3672 182.906 27.6562C182.906 27.401 182.997 27.2734 183.18 27.2734C183.307 27.2734 183.517 27.3464 183.809 27.4922C184.1 27.638 184.355 27.8203 184.574 28.0391C184.811 28.2578 184.93 28.4674 184.93 28.668C184.93 28.7956 184.693 29.1328 184.219 29.6797C186.151 31.1016 188.065 32.3229 189.961 33.3438C191.857 34.3464 193.953 35.2487 196.25 36.0508C196.451 36.1237 196.587 36.1875 196.66 36.2422C196.733 36.2969 196.77 36.3607 196.77 36.4336C196.77 36.5794 196.596 36.8255 196.25 37.1719C195.904 37.5182 195.63 37.6914 195.43 37.6914C195.302 37.6914 194.6 37.4089 193.324 36.8438C192.048 36.2786 190.508 35.4766 188.703 34.4375C186.917 33.3984 185.121 32.1589 183.316 30.7188C181.767 32.3776 179.962 33.8724 177.902 35.2031C178.358 35.3125 178.786 35.4401 179.188 35.5859L188.266 35.1211H188.457C188.895 35.1211 189.277 35.2305 189.605 35.4492C189.934 35.6497 190.098 35.8594 190.098 36.0781C190.098 36.1693 190.052 36.2786 189.961 36.4062C189.888 36.5339 189.852 36.625 189.852 36.6797L189.141 40.6992C189.56 41.2096 189.77 41.5924 189.77 41.8477C189.77 41.9935 189.706 42.0846 189.578 42.1211C189.469 42.1576 189.286 42.1758 189.031 42.1758L179.762 42.3945L179.844 43.3242ZM172.816 27.3828C172.816 27.2917 172.862 27.1732 172.953 27.0273C173.372 26.3346 173.773 25.5326 174.156 24.6211C174.557 23.7096 174.904 22.7891 175.195 21.8594C175.25 21.6771 175.314 21.5495 175.387 21.4766C175.46 21.3854 175.569 21.3398 175.715 21.3398C175.824 21.3398 175.961 21.3672 176.125 21.4219C176.508 21.5495 176.699 21.7409 176.699 21.9961C176.699 22.1055 176.608 22.4792 176.426 23.1172L184.082 22.6523C183.991 22.5977 183.882 22.4792 183.754 22.2969C183.335 21.7318 182.615 21.0026 181.594 20.1094C181.503 20.0365 181.43 19.9635 181.375 19.8906C181.32 19.7995 181.311 19.7083 181.348 19.6172C181.384 19.4349 181.512 19.2526 181.73 19.0703C181.967 18.888 182.15 18.8151 182.277 18.8516C182.405 18.8698 182.697 19.0612 183.152 19.4258C183.608 19.7904 184.219 20.3555 184.984 21.1211C185.258 21.3398 185.367 21.5677 185.312 21.8047C185.276 21.9141 185.185 22.0599 185.039 22.2422C184.911 22.4062 184.775 22.5339 184.629 22.625L193.352 22.1055H193.57C193.935 22.1055 194.254 22.224 194.527 22.4609C194.801 22.6797 194.938 22.8893 194.938 23.0898C194.938 23.2174 194.846 23.3633 194.664 23.5273C194.5 23.6732 194.4 23.7734 194.363 23.8281C193.689 24.7031 192.978 25.5326 192.23 26.3164C191.501 27.082 190.982 27.4648 190.672 27.4648C190.544 27.4648 190.48 27.401 190.48 27.2734C190.48 27.0911 190.617 26.7995 190.891 26.3984C191.529 25.487 192.066 24.5664 192.504 23.6367L175.961 24.5664C175.542 25.7878 175.068 26.8906 174.539 27.875C174.411 28.1484 174.247 28.2852 174.047 28.2852C173.755 28.2852 173.473 28.1758 173.199 27.957C172.944 27.7383 172.816 27.5469 172.816 27.3828ZM173.227 31.6758C173.227 31.5482 173.372 31.3932 173.664 31.2109C175.87 29.8073 177.611 28.3672 178.887 26.8906C179.197 26.5078 179.352 26.1341 179.352 25.7695C179.352 25.4596 179.452 25.3047 179.652 25.3047C179.816 25.3047 180.026 25.4232 180.281 25.6602C180.536 25.8789 180.764 26.125 180.965 26.3984C181.165 26.6719 181.266 26.8633 181.266 26.9727C181.266 27.1185 181.184 27.2643 181.02 27.4102C179.944 28.4128 178.868 29.2513 177.793 29.9258C176.736 30.582 175.815 31.0651 175.031 31.375C174.266 31.6849 173.755 31.8398 173.5 31.8398C173.318 31.8398 173.227 31.7852 173.227 31.6758ZM179.652 40.9453L187.445 40.7266L187.965 36.6523L179.324 37.0352L179.652 40.9453ZM185.395 26.3438C185.395 26.2344 185.458 26.0612 185.586 25.8242C185.714 25.569 185.887 25.4414 186.105 25.4414C186.215 25.4414 186.598 25.6146 187.254 25.9609C187.91 26.2891 188.703 26.7448 189.633 27.3281C190.581 27.9115 191.547 28.5677 192.531 29.2969C192.75 29.4609 192.859 29.6341 192.859 29.8164C192.859 30.0716 192.732 30.3451 192.477 30.6367C192.24 30.9102 192.048 31.0469 191.902 31.0469C191.793 31.0469 191.674 31.0013 191.547 30.9102C190.398 29.9622 189.387 29.1784 188.512 28.5586C187.637 27.9388 186.698 27.3372 185.695 26.7539C185.495 26.6445 185.395 26.5078 185.395 26.3438Z" fill="#333333"/>
<path d="M244.676 27.4648C244.384 27.4648 244.211 27.319 244.156 27.0273C244.047 26.7174 243.755 26.3346 243.281 25.8789L243.363 25.7695C243.436 25.806 243.646 25.8971 243.992 26.043C244.339 26.1706 244.576 26.2344 244.703 26.2344C244.812 26.2344 244.895 26.2344 244.949 26.2344C245.004 26.2161 245.068 26.1706 245.141 26.0977C245.359 25.9336 245.633 25.5599 245.961 24.9766C246.198 24.5026 246.408 23.9466 246.59 23.3086C246.79 22.6706 246.891 22.1875 246.891 21.8594C246.891 21.7682 246.818 21.7227 246.672 21.7227L245.633 21.7773L244.922 21.832L244.457 21.8594L244.266 21.8867C244.393 21.9779 244.475 22.0599 244.512 22.1328C244.566 22.1875 244.594 22.2604 244.594 22.3516C244.594 22.4427 244.484 22.6979 244.266 23.1172C244.083 23.5182 243.792 23.974 243.391 24.4844C243.062 24.9219 242.616 25.3958 242.051 25.9062C241.504 26.3984 241.094 26.6536 240.82 26.6719C240.766 26.6719 240.711 26.6628 240.656 26.6445C240.62 26.6081 240.602 26.5625 240.602 26.5078C240.602 26.4896 240.747 26.3164 241.039 25.9883L241.805 25.0859C242.352 24.3568 242.908 23.4271 243.473 22.2969C243.527 22.151 243.5 22.069 243.391 22.0508C243.281 22.069 243.053 22.0964 242.707 22.1328C242.361 22.151 242.051 22.2057 241.777 22.2969C241.759 22.2969 241.695 22.3242 241.586 22.3789C241.477 22.4154 241.385 22.4336 241.312 22.4336C241.203 22.4336 241.112 22.3971 241.039 22.3242L240.82 22.1328C240.656 22.0052 240.574 21.8867 240.574 21.7773C240.574 21.7409 240.592 21.6862 240.629 21.6133L240.766 21.3945C240.839 21.3034 240.957 21.1576 241.121 20.957C241.285 20.7565 241.467 20.4831 241.668 20.1367C241.704 20.0638 241.777 19.8997 241.887 19.6445C242.014 19.3893 242.078 19.2344 242.078 19.1797V19.0703C242.078 18.9609 242.096 18.888 242.133 18.8516C242.169 18.8151 242.251 18.8151 242.379 18.8516C242.507 18.888 242.661 18.9883 242.844 19.1523L243.145 19.4531C243.199 19.5078 243.227 19.5716 243.227 19.6445C243.227 19.8268 242.971 20.1549 242.461 20.6289C242.37 20.7201 242.26 20.8568 242.133 21.0391C242.005 21.2214 241.941 21.3398 241.941 21.3945C241.941 21.5039 242.023 21.5404 242.188 21.5039L242.816 21.4219C244.257 21.2031 245.341 21.0755 246.07 21.0391L246.809 20.9297L247.055 20.875L247.191 20.8477C247.337 20.8477 247.438 20.8659 247.492 20.9023C247.547 20.9388 247.602 21.0026 247.656 21.0938C247.711 21.1667 247.766 21.2305 247.82 21.2852C247.948 21.431 248.039 21.5586 248.094 21.668L248.148 21.9141L248.094 22.0234L248.039 22.1875C248.003 22.2786 247.975 22.3698 247.957 22.4609C247.939 22.5339 247.911 22.6159 247.875 22.707C247.492 24.1836 247.046 25.332 246.535 26.1523C246.371 26.444 246.089 26.7357 245.688 27.0273C245.305 27.319 244.967 27.4648 244.676 27.4648ZM247.164 34.5195C246.891 34.5195 246.626 34.319 246.371 33.918C246.043 33.4076 245.724 32.9883 245.414 32.6602L244.703 31.9219C244.32 32.3594 243.983 32.7057 243.691 32.9609C243.418 33.2161 243.072 33.4622 242.652 33.6992C241.868 34.1549 241.212 34.3828 240.684 34.3828C240.556 34.3828 240.492 34.3372 240.492 34.2461C240.492 34.1914 240.665 34.0729 241.012 33.8906C241.358 33.7083 241.686 33.4896 241.996 33.2344C242.78 32.5781 243.427 31.9036 243.938 31.2109C243.828 31.1016 243.281 30.6276 242.297 29.7891C242.169 29.6979 241.978 29.543 241.723 29.3242C241.668 29.2878 241.559 29.2057 241.395 29.0781C241.23 28.9505 241.148 28.8594 241.148 28.8047C241.148 28.7135 241.194 28.668 241.285 28.668C241.559 28.668 241.996 28.8594 242.598 29.2422C243.199 29.6068 243.828 30.0443 244.484 30.5547C244.74 30.2448 244.94 29.9531 245.086 29.6797C245.232 29.4062 245.396 29.069 245.578 28.668C245.669 28.4674 245.724 28.2943 245.742 28.1484C245.76 27.9844 245.77 27.8841 245.77 27.8477C245.77 27.6471 245.824 27.5469 245.934 27.5469C246.061 27.5469 246.234 27.6471 246.453 27.8477C246.836 28.2122 247.027 28.4583 247.027 28.5859C247.027 28.6589 246.982 28.7409 246.891 28.832C246.672 29.0508 246.471 29.3424 246.289 29.707C246.18 29.9258 245.979 30.2357 245.688 30.6367C245.596 30.7461 245.523 30.8464 245.469 30.9375C245.414 31.0286 245.359 31.1107 245.305 31.1836C245.724 31.4935 246.344 32.0221 247.164 32.7695C247.365 32.9518 247.492 33.125 247.547 33.2891C247.62 33.4349 247.656 33.6354 247.656 33.8906C247.656 34.0729 247.611 34.2279 247.52 34.3555C247.428 34.4648 247.31 34.5195 247.164 34.5195ZM246.508 42.8047C246.435 42.8047 246.353 42.7682 246.262 42.6953C246.171 42.6406 246.052 42.5495 245.906 42.4219C245.268 41.9297 244.648 41.1914 244.047 40.207C243.445 39.2227 243.017 38.1562 242.762 37.0078C242.743 36.8984 242.716 36.7708 242.68 36.625C242.643 36.4792 242.607 36.3698 242.57 36.2969C242.57 36.2786 242.543 36.2695 242.488 36.2695C242.361 36.2695 242.115 36.3516 241.75 36.5156C241.641 36.5703 241.531 36.6523 241.422 36.7617C241.331 36.8529 241.23 36.8893 241.121 36.8711C241.048 36.8711 240.948 36.8255 240.82 36.7344C240.693 36.6432 240.602 36.5612 240.547 36.4883C240.365 36.2331 240.273 36.0781 240.273 36.0234C240.273 35.9141 240.374 35.8503 240.574 35.832C240.848 35.832 241.021 35.8229 241.094 35.8047C241.622 35.7318 242.124 35.6133 242.598 35.4492C242.671 35.431 242.771 35.3763 242.898 35.2852C242.917 35.2852 242.944 35.276 242.98 35.2578C243.035 35.2396 243.099 35.2578 243.172 35.3125C243.445 35.4948 243.582 35.6315 243.582 35.7227C243.582 36.9987 243.947 38.1927 244.676 39.3047C245.405 40.4167 246.471 41.3555 247.875 42.1211C247.948 42.1576 248.039 42.194 248.148 42.2305C248.258 42.2669 248.312 42.3216 248.312 42.3945C248.312 42.4857 248.012 42.5677 247.41 42.6406L246.727 42.75L246.508 42.8047ZM249.242 32.8242C249.333 32.8242 249.47 32.888 249.652 33.0156C249.634 33.0521 249.671 33.125 249.762 33.2344C249.853 33.3255 249.917 33.3893 249.953 33.4258C250.044 33.5169 250.135 33.6263 250.227 33.7539C250.336 33.8815 250.454 34.0182 250.582 34.1641C250.91 34.5104 251.667 35.4128 252.852 36.8711C253.052 37.1628 253.152 37.3359 253.152 37.3906C253.152 37.5729 253.043 37.6641 252.824 37.6641C252.697 37.6641 252.56 37.5729 252.414 37.3906C252.068 37.026 251.448 36.4518 250.555 35.668C249.862 35.0299 249.233 34.5378 248.668 34.1914C248.395 34.0638 248.258 33.918 248.258 33.7539C248.258 33.6263 248.395 33.444 248.668 33.207C248.923 32.9518 249.115 32.8242 249.242 32.8242ZM221.133 39.7148C222.846 39.4049 224.487 39.0677 226.055 38.7031C226.31 38.6484 226.51 38.6211 226.656 38.6211C226.984 38.6211 227.148 38.7031 227.148 38.8672C227.148 39.1406 226.255 39.5508 224.469 40.0977C222.701 40.6263 220.75 41.1367 218.617 41.6289C216.503 42.1211 215.309 42.3672 215.035 42.3672C214.78 42.3672 214.579 42.3125 214.434 42.2031C214.178 41.9479 214.005 41.7474 213.914 41.6016C213.823 41.474 213.723 41.2552 213.613 40.9453L213.586 40.8086C213.586 40.6445 213.659 40.5625 213.805 40.5625C213.878 40.5625 213.932 40.5716 213.969 40.5898C214.333 40.6628 214.598 40.6992 214.762 40.6992C215.035 40.6992 215.664 40.6263 216.648 40.4805C217.633 40.3346 218.581 40.1797 219.492 40.0156L219.52 36.9805L217.578 37.0898H217.141C216.703 37.0898 216.402 37.026 216.238 36.8984C216.038 36.7526 215.874 36.5703 215.746 36.3516C215.618 36.1146 215.555 35.9141 215.555 35.75C215.555 35.6953 215.582 35.668 215.637 35.668C215.691 35.668 215.737 35.6771 215.773 35.6953C216.083 35.7865 216.448 35.832 216.867 35.832H217.113L219.547 35.6953L219.574 33.3711L216.484 33.5625C216.32 33.5807 216.102 33.5898 215.828 33.5898C215.5 33.5898 215.217 33.5078 214.98 33.3438C214.743 33.1797 214.525 32.8424 214.324 32.332C214.306 32.2956 214.297 32.2409 214.297 32.168C214.297 32.1133 214.324 32.0859 214.379 32.0859L214.516 32.1133C214.88 32.2044 215.29 32.25 215.746 32.25H216.02L218.645 32.1133L218.48 31.8945C217.97 31.1107 217.414 30.418 216.812 29.8164C216.648 29.6523 216.566 29.5156 216.566 29.4062C216.566 29.3333 216.648 29.1966 216.812 28.9961C216.995 28.7956 217.186 28.6953 217.387 28.6953C217.551 28.6953 217.824 28.8958 218.207 29.2969C218.608 29.6797 218.982 30.1081 219.328 30.582C219.674 31.0378 219.848 31.3294 219.848 31.457C219.848 31.6393 219.674 31.8398 219.328 32.0586L220.613 32.0039C221.288 31.0924 221.716 30.4089 221.898 29.9531C222.099 29.4974 222.208 29.0964 222.227 28.75C222.227 28.5495 222.299 28.4492 222.445 28.4492C222.518 28.4492 222.673 28.5039 222.91 28.6133C223.165 28.7044 223.393 28.8229 223.594 28.9688C223.794 29.1146 223.895 29.2604 223.895 29.4062C223.895 29.5703 223.712 29.8893 223.348 30.3633C222.983 30.819 222.509 31.3385 221.926 31.9219L223.812 31.8125C224.214 31.7943 224.56 31.7214 224.852 31.5938C224.961 31.5391 225.07 31.5117 225.18 31.5117C225.453 31.5117 225.736 31.6576 226.027 31.9492C226.337 32.2409 226.492 32.4688 226.492 32.6328C226.492 32.8516 226.283 32.9792 225.863 33.0156L221.242 33.2891L221.215 35.6133L222.691 35.5312C223.02 35.513 223.375 35.4401 223.758 35.3125C223.94 35.276 224.049 35.2578 224.086 35.2578C224.268 35.2578 224.46 35.3307 224.66 35.4766C224.861 35.6042 225.034 35.7591 225.18 35.9414C225.326 36.1237 225.398 36.2604 225.398 36.3516C225.398 36.5339 225.18 36.6432 224.742 36.6797L221.188 36.8711L221.133 39.7148ZM213.094 27.1914C213.094 27.1003 213.139 27.0547 213.23 27.0547L213.367 27.082C213.768 27.1732 214.151 27.2188 214.516 27.2188H214.762L218.344 27L218.098 21.5312C218.079 21.112 217.961 20.7474 217.742 20.4375C217.615 20.2552 217.551 20.1185 217.551 20.0273C217.551 19.8997 217.642 19.8359 217.824 19.8359C218.007 19.8359 218.335 19.9089 218.809 20.0547C219.173 20.1641 219.41 20.2734 219.52 20.3828C219.629 20.474 219.684 20.6289 219.684 20.8477L219.82 26.8906L221.27 26.8086L221.434 21.2305V21.0664C221.434 20.8477 221.406 20.6654 221.352 20.5195C221.315 20.3737 221.242 20.2096 221.133 20.0273C221.06 19.8997 221.023 19.7904 221.023 19.6992C221.023 19.5716 221.115 19.5078 221.297 19.5078C221.807 19.5625 222.236 19.6719 222.582 19.8359C222.928 20 223.102 20.2005 223.102 20.4375V20.5195L222.773 26.6992L224.633 26.5898C224.979 26.5716 225.353 26.4805 225.754 26.3164C225.9 26.2617 226.018 26.2344 226.109 26.2344C226.365 26.2344 226.665 26.3893 227.012 26.6992C227.358 27.0091 227.531 27.2552 227.531 27.4375C227.531 27.6562 227.312 27.7839 226.875 27.8203L215.254 28.5312C215.053 28.5495 214.816 28.5586 214.543 28.5586C214.288 28.5586 214.033 28.4857 213.777 28.3398C213.522 28.194 213.303 27.8568 213.121 27.3281C213.103 27.2917 213.094 27.2461 213.094 27.1914ZM214.188 22.625C214.188 22.4974 214.297 22.3424 214.516 22.1602C214.753 21.9779 214.917 21.8867 215.008 21.8867C215.172 21.8867 215.464 22.1602 215.883 22.707C216.302 23.2357 216.694 23.819 217.059 24.457C217.441 25.0768 217.633 25.4596 217.633 25.6055C217.633 25.806 217.496 25.9974 217.223 26.1797C216.949 26.3438 216.74 26.4258 216.594 26.4258C216.43 26.4258 216.293 26.2982 216.184 26.043C215.728 25.0768 215.135 24.0833 214.406 23.0625C214.26 22.862 214.188 22.7161 214.188 22.625ZM223.266 25.9609C223.266 25.8333 223.348 25.651 223.512 25.4141C223.986 24.7396 224.359 24.0924 224.633 23.4727C224.906 22.8346 225.089 22.3151 225.18 21.9141C225.289 21.4948 225.344 21.2396 225.344 21.1484C225.344 20.9115 225.417 20.793 225.562 20.793C225.617 20.793 225.772 20.8659 226.027 21.0117C226.283 21.1576 226.51 21.3307 226.711 21.5312C226.93 21.7318 227.039 21.9141 227.039 22.0781C227.039 22.2057 226.984 22.3424 226.875 22.4883C226.091 23.6367 225.371 24.5299 224.715 25.168C224.059 25.7878 223.621 26.0977 223.402 26.0977C223.311 26.0977 223.266 26.0521 223.266 25.9609ZM227.477 26.2891C227.477 26.1979 227.513 26.1523 227.586 26.1523C227.641 26.1523 227.686 26.1615 227.723 26.1797C228.105 26.3073 228.507 26.3711 228.926 26.3711H229.172L233.109 26.125L233.082 20.6562C233.082 20.1276 232.927 19.6536 232.617 19.2344C232.471 18.9974 232.398 18.8424 232.398 18.7695C232.398 18.6602 232.471 18.6055 232.617 18.6055C232.854 18.6055 233.273 18.7148 233.875 18.9336C234.24 19.0612 234.477 19.1888 234.586 19.3164C234.695 19.444 234.75 19.6445 234.75 19.918L234.777 26.0156L235.816 25.9609C236.309 25.9245 236.71 25.8516 237.02 25.7422C237.165 25.6875 237.293 25.6602 237.402 25.6602C237.658 25.6602 237.94 25.8151 238.25 26.125C238.578 26.4349 238.742 26.6992 238.742 26.918C238.742 27.1185 238.551 27.237 238.168 27.2734L234.777 27.4648L234.859 41.2734C234.859 41.4375 234.868 41.5924 234.887 41.7383C234.905 41.9023 234.914 42.0482 234.914 42.1758C234.914 42.5221 234.823 42.7956 234.641 42.9961C234.458 43.2148 234.258 43.3698 234.039 43.4609C233.839 43.5703 233.702 43.625 233.629 43.625C233.264 43.625 232.672 43.3698 231.852 42.8594C231.049 42.349 230.311 41.793 229.637 41.1914C228.962 40.5898 228.625 40.1706 228.625 39.9336C228.625 39.806 228.707 39.7422 228.871 39.7422C229.035 39.7422 229.29 39.8333 229.637 40.0156C230.712 40.599 231.897 41.082 233.191 41.4648L233.109 27.5742L229.801 27.793C229.637 27.8112 229.418 27.8203 229.145 27.8203C228.652 27.8203 228.333 27.7474 228.188 27.6016C227.969 27.3828 227.796 27.1367 227.668 26.8633C227.54 26.5898 227.477 26.3984 227.477 26.2891ZM227.668 30.5547C227.668 30.4089 227.786 30.2539 228.023 30.0898C228.26 29.9076 228.461 29.8164 228.625 29.8164C228.771 29.8164 228.935 29.9349 229.117 30.1719C229.664 30.9193 230.247 31.8307 230.867 32.9062C231.487 33.9818 231.797 34.6107 231.797 34.793C231.797 34.9206 231.642 35.112 231.332 35.3672C231.04 35.6224 230.794 35.75 230.594 35.75C230.484 35.75 230.393 35.7135 230.32 35.6406C230.266 35.5677 230.193 35.4401 230.102 35.2578C229.701 34.3828 228.944 32.9427 227.832 30.9375C227.814 30.901 227.777 30.8464 227.723 30.7734C227.686 30.6823 227.668 30.6094 227.668 30.5547Z" fill="#333333"/>
<path d="M283.23 30.6367C282.957 30.6367 282.711 30.5273 282.492 30.3086C282.219 30.1081 282.082 29.9531 282.082 29.8438C282.082 29.7161 282.292 29.6523 282.711 29.6523L284.051 29.5703L285.418 29.4336C285.454 29.1419 285.473 28.5859 285.473 27.7656C285.527 27.7656 285.245 27.8021 284.625 27.875L284.105 27.957C283.941 28.0299 283.796 28.0664 283.668 28.0664C283.559 28.0664 283.467 28.0299 283.395 27.957C283.103 27.7018 282.957 27.4831 282.957 27.3008V26.0156C282.957 25.888 282.911 25.3958 282.82 24.5391L282.793 24.2383C282.793 24.0924 282.82 24.0013 282.875 23.9648C282.93 23.9284 283.03 23.9284 283.176 23.9648C283.723 24.1107 283.987 24.2747 283.969 24.457L283.941 24.6484C283.905 24.9036 283.887 25.2318 283.887 25.6328C283.887 26.1068 283.896 26.4076 283.914 26.5352C283.951 26.8997 283.969 27.0729 283.969 27.0547C283.987 27.1276 284.051 27.1641 284.16 27.1641C284.27 27.1641 284.488 27.1367 284.816 27.082C285.163 27.0091 285.391 26.9635 285.5 26.9453V24.5391C285.5 23.8646 285.473 23.4089 285.418 23.1719C285.382 22.9896 285.363 22.8893 285.363 22.8711C285.363 22.7435 285.409 22.6797 285.5 22.6797C285.536 22.6797 285.664 22.7161 285.883 22.7891C286.229 22.9531 286.457 23.099 286.566 23.2266C286.694 23.3542 286.74 23.4909 286.703 23.6367C286.648 23.819 286.612 24.1836 286.594 24.7305C286.557 25.168 286.521 25.8789 286.484 26.8633L287.414 26.8359C287.596 26.8359 287.733 26.8268 287.824 26.8086C287.915 26.7904 287.961 26.7539 287.961 26.6992C288.089 26.0065 288.171 25.4049 288.207 24.8945L288.234 24.5664C288.253 24.5299 288.253 24.4661 288.234 24.375C288.234 24.2839 288.234 24.2201 288.234 24.1836L288.207 23.9922C288.207 23.8281 288.271 23.7461 288.398 23.7461C288.471 23.7461 288.626 23.819 288.863 23.9648C288.918 24.0013 288.991 24.056 289.082 24.1289C289.191 24.1836 289.264 24.2474 289.301 24.3203C289.337 24.375 289.355 24.4479 289.355 24.5391C289.355 24.6484 289.346 24.7396 289.328 24.8125L289.027 26.3438L288.945 26.9727C288.872 27.3919 288.654 27.6198 288.289 27.6562C288.18 27.638 288.089 27.6107 288.016 27.5742C287.961 27.5378 287.915 27.5195 287.879 27.5195C287.66 27.5195 287.204 27.5651 286.512 27.6562L286.484 29.3516L286.949 29.3242L287.387 29.2969C288.061 29.2969 288.562 29.2604 288.891 29.1875C289.036 29.1875 289.164 29.1693 289.273 29.1328L289.355 29.1055C289.538 29.1055 289.729 29.2331 289.93 29.4883C290.167 29.7253 290.285 29.8984 290.285 30.0078C290.285 30.1719 290.03 30.2266 289.52 30.1719L288.48 30.1172H287.113C286.84 30.1172 286.339 30.1536 285.609 30.2266C285.227 30.2266 284.88 30.2448 284.57 30.2812C284.26 30.3177 283.969 30.3815 283.695 30.4727L283.23 30.6367ZM289.164 38.2109C289.201 38.2839 289.264 38.3932 289.355 38.5391C289.447 38.6849 289.492 38.8581 289.492 39.0586C289.492 39.2409 289.419 39.3867 289.273 39.4961C289.128 39.6237 288.964 39.6875 288.781 39.6875C288.617 39.6875 288.48 39.5234 288.371 39.1953C288.316 39.0677 288.271 38.9674 288.234 38.8945C288.216 38.8034 288.198 38.7305 288.18 38.6758C287.943 38.7487 287.633 38.8125 287.25 38.8672C286.867 38.9219 286.594 38.9674 286.43 39.0039C285.555 39.168 284.953 39.2865 284.625 39.3594C284.497 39.3958 284.361 39.4414 284.215 39.4961C284.069 39.5326 283.987 39.5599 283.969 39.5781C283.859 39.6146 283.777 39.6328 283.723 39.6328C283.577 39.6328 283.44 39.569 283.312 39.4414C283.094 39.2773 282.93 39.0586 282.82 38.7852C282.802 38.7669 282.793 38.7396 282.793 38.7031C282.793 38.6667 282.839 38.6211 282.93 38.5664C283.039 38.5117 283.121 38.4753 283.176 38.457C283.413 38.3294 283.832 37.9466 284.434 37.3086L285.172 36.5977L283.559 35.7227C283.376 35.668 283.258 35.6042 283.203 35.5312C283.148 35.4583 283.121 35.349 283.121 35.2031C283.121 35.0938 283.139 35.0208 283.176 34.9844C283.23 34.9297 283.34 34.8477 283.504 34.7383C283.668 34.6289 283.832 34.4831 283.996 34.3008C284.087 34.1914 284.206 34.0729 284.352 33.9453C284.497 33.8177 284.634 33.681 284.762 33.5352C285.309 32.8971 285.655 32.3958 285.801 32.0312C285.892 31.849 285.965 31.7578 286.02 31.7578C286.056 31.7578 286.129 31.7943 286.238 31.8672C286.585 32.1224 286.794 32.3594 286.867 32.5781V32.6602C286.867 32.7513 286.822 32.8242 286.73 32.8789C286.639 32.9336 286.576 32.9792 286.539 33.0156C286.484 33.0521 286.211 33.3164 285.719 33.8086L285.227 34.3008C285.135 34.3919 284.98 34.5469 284.762 34.7656C284.543 34.9661 284.434 35.0846 284.434 35.1211C284.434 35.1758 284.461 35.2214 284.516 35.2578C284.589 35.2943 284.643 35.3307 284.68 35.3672L285.828 35.9141C286.539 35.2031 286.949 34.7839 287.059 34.6562C287.533 34.1094 287.797 33.763 287.852 33.6172C287.87 33.599 287.897 33.5534 287.934 33.4805C287.97 33.4076 288.007 33.3711 288.043 33.3711C288.098 33.3711 288.152 33.3984 288.207 33.4531C288.499 33.7266 288.708 33.9818 288.836 34.2188C288.872 34.2917 288.891 34.3372 288.891 34.3555C288.891 34.3919 288.845 34.4466 288.754 34.5195C288.681 34.5742 288.608 34.6289 288.535 34.6836C287.897 35.2122 287.15 35.9049 286.293 36.7617L284.625 38.3203C284.589 38.3568 284.57 38.3932 284.57 38.4297C284.57 38.4661 284.589 38.4935 284.625 38.5117C284.661 38.5299 284.716 38.5299 284.789 38.5117L287.988 37.9648C287.897 37.6003 287.788 37.2357 287.66 36.8711V36.8164C287.66 36.7617 287.688 36.7344 287.742 36.7344C287.815 36.7344 287.924 36.7891 288.07 36.8984C288.362 37.1536 288.727 37.5911 289.164 38.2109ZM291.242 29.8164C291.333 29.8164 291.47 29.8802 291.652 30.0078C291.634 30.0443 291.671 30.1172 291.762 30.2266C291.853 30.3177 291.917 30.3815 291.953 30.418C292.044 30.5091 292.135 30.6185 292.227 30.7461C292.336 30.8737 292.454 31.0104 292.582 31.1562C292.91 31.5026 293.667 32.4049 294.852 33.8633C295.052 34.1549 295.152 34.3281 295.152 34.3828C295.152 34.5651 295.043 34.6562 294.824 34.6562C294.697 34.6562 294.56 34.5651 294.414 34.3828C294.068 34.0182 293.448 33.444 292.555 32.6602C291.862 32.0221 291.233 31.5299 290.668 31.1836C290.395 31.056 290.258 30.9102 290.258 30.7461C290.258 30.6185 290.395 30.4362 290.668 30.1992C290.923 29.944 291.115 29.8164 291.242 29.8164ZM259.961 36.4609C259.961 36.8438 259.797 37.0352 259.469 37.0352C259.305 37.0352 259.113 36.9805 258.895 36.8711C258.421 36.6341 258.184 36.3607 258.184 36.0508V35.9141C258.293 35.3307 258.348 34.7201 258.348 34.082L258.102 23.582C258.065 22.7253 257.956 22.1237 257.773 21.7773C257.664 21.5768 257.609 21.431 257.609 21.3398C257.609 21.2305 257.682 21.1758 257.828 21.1758C258.102 21.1758 258.74 21.3672 259.742 21.75L263.598 21.4492L263.926 21.4219C264.327 21.4219 264.655 21.5312 264.91 21.75C265.184 21.9688 265.32 22.1693 265.32 22.3516C265.32 22.4245 265.293 22.5156 265.238 22.625C265.202 22.7344 265.184 22.8164 265.184 22.8711L264.828 33.6992C265.302 34.2643 265.539 34.6654 265.539 34.9023C265.539 35.0117 265.493 35.0846 265.402 35.1211C265.329 35.1393 265.193 35.1576 264.992 35.1758L259.934 35.3945L259.961 36.4609ZM255.613 42.3672C255.613 42.2214 255.704 42.0664 255.887 41.9023C256.47 41.3919 257.035 40.7995 257.582 40.125C258.147 39.4323 258.612 38.7396 258.977 38.0469C259.141 37.7552 259.305 37.6094 259.469 37.6094C259.633 37.6094 259.852 37.6823 260.125 37.8281C260.398 37.9557 260.535 38.138 260.535 38.375C260.535 38.5026 260.389 38.8307 260.098 39.3594C259.806 39.888 259.405 40.5078 258.895 41.2188C258.384 41.9297 257.819 42.6133 257.199 43.2695C257.072 43.4336 256.908 43.5156 256.707 43.5156C256.488 43.5156 256.251 43.3789 255.996 43.1055C255.741 42.832 255.613 42.5859 255.613 42.3672ZM259.77 27.6562L263.379 27.4375L263.488 22.8438L259.66 23.1172L259.77 27.6562ZM259.906 33.9453L263.242 33.7812L263.352 28.8594L259.797 29.0508L259.906 33.9453ZM262.75 38.9219C262.75 38.7396 262.841 38.5664 263.023 38.4023C263.224 38.2201 263.415 38.1289 263.598 38.1289C263.798 38.1289 264.145 38.4115 264.637 38.9766C265.147 39.5417 265.63 40.1615 266.086 40.8359C266.542 41.5104 266.77 41.9023 266.77 42.0117C266.77 42.1758 266.642 42.3763 266.387 42.6133C266.132 42.8685 265.885 42.9961 265.648 42.9961C265.448 42.9961 265.266 42.8503 265.102 42.5586C264.445 41.3008 263.753 40.2617 263.023 39.4414C262.841 39.2227 262.75 39.0495 262.75 38.9219ZM265.594 28.9961C265.594 28.832 265.794 28.6133 266.195 28.3398C268.547 26.7721 270.105 24.7214 270.871 22.1875L268.793 22.3516C268.392 22.388 268.128 22.4062 268 22.4062C267.763 22.4062 267.49 22.3333 267.18 22.1875C266.87 22.0234 266.633 21.668 266.469 21.1211L266.441 20.957C266.441 20.8294 266.496 20.7656 266.605 20.7656L266.715 20.793C267.171 20.8841 267.59 20.9297 267.973 20.9297H268.246L276.531 20.3555H276.75C277.096 20.3555 277.388 20.4648 277.625 20.6836C277.88 20.8841 278.008 21.0846 278.008 21.2852C278.008 21.3763 277.98 21.4857 277.926 21.6133C277.871 21.7227 277.835 21.8229 277.816 21.9141C277.579 23.9193 277.27 25.5417 276.887 26.7812C276.522 28.0026 276.012 28.6133 275.355 28.6133C275.082 28.6133 274.635 28.4219 274.016 28.0391C273.396 27.6562 272.822 27.237 272.293 26.7812C271.783 26.3255 271.527 26.0156 271.527 25.8516C271.527 25.7422 271.6 25.6875 271.746 25.6875C271.91 25.6875 272.12 25.7513 272.375 25.8789C273.068 26.207 273.879 26.4805 274.809 26.6992L274.918 26.7266C275.137 26.7266 275.374 26.125 275.629 24.9219C275.884 23.7005 276.048 22.6523 276.121 21.7773L272.703 22.0508C272.156 23.8008 271.4 25.2135 270.434 26.2891C269.467 27.3464 268.201 28.2305 266.633 28.9414C266.323 29.0872 266.059 29.1602 265.84 29.1602C265.676 29.1602 265.594 29.1055 265.594 28.9961ZM267.398 29.1055C267.398 28.9779 267.49 28.9141 267.672 28.9141C267.945 28.9141 268.547 29.0964 269.477 29.4609L275.766 29.1602H276.066C276.376 29.1602 276.65 29.2695 276.887 29.4883C277.142 29.6888 277.27 29.9167 277.27 30.1719C277.27 30.263 277.233 30.3724 277.16 30.5C277.105 30.6276 277.078 30.7188 277.078 30.7734L276.477 34.3281C276.914 34.8385 277.133 35.2031 277.133 35.4219C277.133 35.5495 277.069 35.6406 276.941 35.6953C276.814 35.7318 276.613 35.7591 276.34 35.7773L269.887 36.0508L269.941 36.6523V36.8164C269.941 37.1992 269.814 37.3906 269.559 37.3906C269.322 37.3906 269.012 37.2721 268.629 37.0352C268.264 36.7799 268.082 36.5247 268.082 36.2695L268.109 36.0508C268.164 35.6862 268.191 35.349 268.191 35.0391C268.191 34.8021 268.182 34.6289 268.164 34.5195L267.863 31.0195C267.809 30.4362 267.717 29.9896 267.59 29.6797C267.462 29.388 267.398 29.1966 267.398 29.1055ZM268.191 38.9766C268.191 38.776 268.292 38.5755 268.492 38.375C268.693 38.1745 268.866 38.0742 269.012 38.0742C269.158 38.0742 269.322 38.1562 269.504 38.3203C270.087 38.776 270.807 39.4141 271.664 40.2344C272.521 41.0365 272.949 41.556 272.949 41.793C272.949 42.0299 272.812 42.2852 272.539 42.5586C272.284 42.832 272.056 42.9688 271.855 42.9688C271.691 42.9688 271.536 42.8685 271.391 42.668C270.315 41.2461 269.34 40.1615 268.465 39.4141C268.283 39.25 268.191 39.1042 268.191 38.9766ZM269.777 34.6289L274.891 34.4102L275.328 30.6094L269.477 30.8555L269.777 34.6289ZM274.098 38.6758C274.116 38.6029 274.161 38.4935 274.234 38.3477C274.307 38.2018 274.408 38.0651 274.535 37.9375C274.663 37.8099 274.809 37.7461 274.973 37.7461C275.155 37.7461 275.346 37.8372 275.547 38.0195C276.604 38.8398 277.607 39.6875 278.555 40.5625C279.503 41.4193 279.977 41.9844 279.977 42.2578C279.977 42.4219 279.849 42.6589 279.594 42.9688C279.339 43.2969 279.102 43.4609 278.883 43.4609C278.737 43.4609 278.564 43.3424 278.363 43.1055C277.087 41.5924 275.784 40.2891 274.453 39.1953C274.216 38.9948 274.098 38.8216 274.098 38.6758Z" fill="#333333"/>
</svg>
