<svg xmlns="http://www.w3.org/2000/svg" width="340" height="60" fill="none"><path fill="#333" d="M75.2 30.418c-.165 0-.292-.037-.384-.11l-.136-.136a47.978 47.978 0 0 0-.657-1.203c-.346-.657-.601-1.103-.765-1.34-.346-.51-.52-.839-.52-.985 0-.2.119-.492.356-.874.364-.51.61-.921.738-1.23.237-.438.41-.776.52-1.013.109-.255.154-.455.136-.601a1.539 1.539 0 0 1-.027-.301c0-.073.018-.11.055-.11.036-.018.109-.009.218.028.183.055.392.182.63.383.054.055.118.127.19.219a.677.677 0 0 1 .137.246.23.23 0 0 1 .028.191c0 .055-.028.11-.082.164l-.137.11c-.128.163-.273.364-.438.601-.164.237-.319.456-.464.656l-.684.985c-.182.255-.273.437-.273.547 0 .054.082.2.246.437l.574.629c.547.602.802.884.766.848.346.346.52.683.52 1.011 0 .565-.183.848-.548.848Zm3.609-.082a.913.913 0 0 1-.41-.082c-.201-.2-.347-.438-.438-.711l-.574-1.012-.547-.957c-.347-.474-.52-.793-.52-.957 0-.219.119-.501.356-.848l.437-.628c.183-.31.283-.493.301-.547.182-.365.337-.684.465-.957.146-.292.21-.51.191-.657a1.152 1.152 0 0 1-.027-.273c0-.146.082-.182.246-.11.237.092.492.238.766.438.127.128.21.237.246.328a.491.491 0 0 1 .082.301c0 .037-.064.11-.192.219a1.74 1.74 0 0 0-.328.3c-.11.11-.355.456-.738 1.04-.073.109-.164.237-.273.383-.092.127-.21.3-.356.519-.182.237-.273.41-.273.52 0 .109.109.273.328.492.073.073.146.164.218.273l.329.328.71.793c.347.31.52.61.52.903 0 .601-.173.902-.52.902Zm-2.325 9.844c-.875 0-1.604-.22-2.187-.657-.602-.492-.903-1.066-.903-1.722 0-.51.192-.957.575-1.34.492-.42 1.112-.629 1.86-.629.036 0 .063-.036.081-.11a.973.973 0 0 0 .055-.355l.027-.71c-.127.018-.374.045-.738.081a7.471 7.471 0 0 0-.766.11c.091-.019-.191.045-.847.191a1.102 1.102 0 0 1-.301.027c-.347 0-.638-.155-.875-.464-.11-.11-.164-.201-.164-.274 0-.11.164-.164.492-.164l.848-.055 2.324-.3v-1.012a1.018 1.018 0 0 1-.028-.246.713.713 0 0 0-.027-.219 1.639 1.639 0 0 1-.054-.273c0-.128.063-.192.19-.192.165 0 .447.119.848.356.128.073.192.173.192.3a.542.542 0 0 1-.055.246.607.607 0 0 0-.027.192v.766l.82-.082 1.012-.11c.091-.018.191-.045.3-.082.128-.036.229-.055.302-.055.109 0 .246.055.41.164.31.201.465.374.465.52 0 .146-.155.219-.465.219-.091 0-.22.018-.383.054-.164.019-.374.037-.63.055l-1.831.137-.027 1.668c-.037.273-.237.446-.602.52h-.055c-.11 0-.218-.01-.328-.028a.632.632 0 0 0-.219-.055c-.145 0-.291.01-.437.028a.725.725 0 0 0-.383.164c-.31.273-.465.592-.465.957 0 .364.174.692.52.984.31.292.802.438 1.476.438.894-.037 1.623-.283 2.188-.739.237-.164.42-.246.547-.246.073 0 .164.019.273.055l.11.11c.054.054.082.109.082.163 0 .51-.429.93-1.286 1.258a5.464 5.464 0 0 1-1.914.356Zm4.758-10.364c.091 0 .228.064.41.192-.018.036.019.11.11.219l.191.191c.091.091.182.2.274.328.109.128.227.264.355.41.328.347 1.085 1.249 2.27 2.707.2.292.3.465.3.52 0 .182-.109.273-.328.273-.127 0-.264-.09-.41-.273-.346-.365-.966-.939-1.86-1.723-.692-.638-1.32-1.13-1.886-1.476-.274-.128-.41-.274-.41-.438 0-.127.136-.31.41-.547.255-.255.447-.383.574-.383ZM53.707 42.941v.082c0 .42-.164.63-.492.63a1.56 1.56 0 0 1-.957-.329c-.274-.218-.41-.492-.41-.82l.027-.191c.036-.438.055-.757.055-.958 0-.291-.01-.52-.028-.683l-.41-4.43c-.073-.656-.182-1.13-.328-1.422l-.082-.136a34.51 34.51 0 0 1-3.336 1.394c-1.167.401-1.932.602-2.297.602-.255 0-.383-.073-.383-.22 0-.108.082-.236.246-.382.183-.146.42-.282.711-.41 3.993-1.64 7.556-3.755 10.692-6.344-1.094-.802-2.38-1.896-3.856-3.281-1.586 1.495-3.135 2.643-4.648 3.445l-.137.082c-.346.164-.601.246-.765.246-.11 0-.164-.045-.164-.136 0-.146.19-.383.574-.711a33.2 33.2 0 0 0 3.773-3.582c1.203-1.313 2.17-2.525 2.899-3.637.747-1.13 1.148-1.95 1.203-2.46 0-.256.082-.384.246-.384.11 0 .31.082.601.246.292.146.547.328.766.547.237.2.355.383.355.547 0 .091-.1.283-.3.574-.183.274-.666.912-1.45 1.914l7.11-.465.383-.027c.31 0 .61.119.902.356.292.237.438.465.438.683 0 .128-.1.283-.301.465-.2.182-.328.32-.383.41-1.185 1.623-2.762 3.327-4.73 5.114a35.76 35.76 0 0 0 10.773 4.812c.346.091.52.21.52.355 0 .092-.092.247-.274.465-.164.22-.365.42-.602.602-.218.182-.419.273-.601.273-.11 0-.766-.227-1.969-.683-1.185-.456-2.588-1.085-4.21-1.887a41.32 41.32 0 0 1-4.813-2.871c-1.185.93-2.215 1.677-3.09 2.242a32.312 32.312 0 0 1-3.063 1.723c.146.036.556.173 1.23.41l10.036-.492h.273c.383 0 .693.118.93.355.255.219.383.429.383.63 0 .108-.027.209-.082.3a1.198 1.198 0 0 0-.11.219l-.601 4.785c.401.583.602.984.602 1.203 0 .146-.064.237-.192.273-.11.037-.319.064-.629.082l-10.09.246.055.63Zm-.191-2.16 8.804-.246.465-4.758-9.652.41.383 4.594Zm.382-15.75c1.422 1.295 2.744 2.38 3.965 3.254 1.75-1.622 3.1-3.099 4.047-4.43l-7.328.465-.684.711ZM121.902 24.238c.237.2.356.347.356.438 0 .164-.228.237-.684.219H121c-.51 0-1.595.063-3.254.19-.036.238-.082.484-.137.74-.054.236-.091.419-.109.546v.328c.091 0 .155-.009.191-.027.092-.018.301-.046.629-.082l1.039-.164c.11-.018.219-.046.329-.082a.642.642 0 0 1 .273-.082c.2 0 .447.127.738.383.201.164.301.291.301.382 0 .2-.118.502-.355.903-.383.674-.793 1.23-1.231 1.668-.529.528-1.075.875-1.641 1.039a1.013 1.013 0 0 1-.246.027c-.073 0-.109-.018-.109-.055 0-.054.128-.2.383-.437a8.035 8.035 0 0 0 1.695-2.05c.255-.457.383-.73.383-.821 0-.073-.046-.11-.137-.11h-.137l-.71.082c-.711.11-1.158.192-1.34.247-.219.109-.392.164-.52.164-.127 0-.292-.1-.492-.301a1.629 1.629 0 0 0-.137-.11c-.054-.054-.082-.136-.082-.246 0-.054.037-.136.11-.246.073-.146.127-.328.164-.547.036-.218.054-.355.054-.41l.11-.629c-.31.037-.802.119-1.477.246-.182.037-.31.055-.383.055-.127 0-.273-.055-.437-.164-.347-.237-.52-.392-.52-.465 0-.127.164-.2.493-.219l.957-.082 1.531-.164c.091-.729.136-1.175.136-1.34l.028-.574c.036-.31.109-.465.219-.465.091 0 .2.037.328.11.237.127.41.264.519.41.128.128.173.237.137.328l-.191.574c-.055.11-.128.392-.219.848l2.379-.219c.2-.018.437-.073.711-.164l.218-.027c.183 0 .338.055.465.164.128.091.21.155.246.191Zm-3.418 15.942c-.875 0-1.604-.22-2.187-.657-.602-.492-.902-1.066-.902-1.722 0-.51.191-.957.574-1.34.492-.42 1.112-.629 1.859-.629.037 0 .064-.036.082-.11a.96.96 0 0 0 .055-.355l.027-.71c-.127.018-.374.045-.738.081a7.496 7.496 0 0 0-.766.11c.091-.019-.191.045-.847.191a1.105 1.105 0 0 1-.301.027c-.347 0-.638-.155-.875-.464-.11-.11-.164-.201-.164-.274 0-.11.164-.164.492-.164l.848-.055 2.324-.3v-1.012a1.03 1.03 0 0 1-.027-.246.716.716 0 0 0-.028-.219 1.712 1.712 0 0 1-.055-.273c0-.128.064-.192.192-.192.164 0 .446.119.848.356.127.073.191.173.191.3a.536.536 0 0 1-.055.246.613.613 0 0 0-.027.192v.766l.82-.082 1.012-.11c.091-.018.191-.045.301-.082.127-.036.228-.055.301-.055.109 0 .246.055.41.164.31.201.464.374.464.52 0 .146-.154.219-.464.219-.091 0-.219.018-.383.054-.164.019-.374.037-.629.055l-1.832.137-.027 1.668c-.037.273-.237.446-.602.52h-.055c-.109 0-.218-.01-.328-.028a.63.63 0 0 0-.219-.055c-.145 0-.291.01-.437.028a.724.724 0 0 0-.383.164c-.31.273-.465.592-.465.957 0 .364.173.692.52.984.31.292.802.438 1.476.438.894-.037 1.623-.283 2.188-.739.237-.164.419-.246.547-.246.073 0 .164.019.273.055l.11.11c.054.054.082.109.082.163 0 .51-.429.93-1.286 1.258a5.464 5.464 0 0 1-1.914.356Zm4.758-10.364c.091 0 .228.064.41.192-.018.036.019.11.11.219l.191.191c.091.091.182.2.274.328.109.128.227.264.355.41.328.347 1.085 1.249 2.27 2.707.2.292.3.465.3.52 0 .182-.109.273-.328.273-.127 0-.264-.09-.41-.273-.346-.365-.966-.939-1.859-1.723-.693-.638-1.322-1.13-1.887-1.476-.273-.128-.41-.274-.41-.438 0-.127.137-.31.41-.547.255-.255.447-.383.574-.383Zm-20.371 1.805.027 9.434c0 .4-.145.601-.437.601-.109 0-.292-.045-.547-.136a2.02 2.02 0 0 1-.684-.41.887.887 0 0 1-.3-.684l.027-.219c.128-1.003.191-2.233.191-3.691V31.73l-3.363.163.082 9.626c0 .364-.146.546-.437.546-.383 0-.739-.136-1.067-.41-.328-.255-.492-.52-.492-.793l.027-.218c.146-1.13.22-2.361.22-3.692l-.028-4.976-3.528.191-.027 10.527c0 .492-.164.739-.492.739-.292 0-.61-.1-.957-.301-.346-.2-.52-.483-.52-.848 0-.054.019-.21.055-.465.11-.51.164-1.039.164-1.586l.028-7.984-1.641.082a7.777 7.777 0 0 1-.738.027c-.22 0-.401-.018-.547-.054a.93.93 0 0 1-.383-.274 2.932 2.932 0 0 1-.465-.738c-.091-.255-.137-.42-.137-.492 0-.11.055-.164.164-.164.073 0 .137.009.192.027.42.11.802.164 1.148.164h.164l2.27-.11.027-7.464c0-.711-.091-1.221-.273-1.531-.128-.22-.192-.383-.192-.492 0-.165.11-.247.329-.247.31 0 .957.22 1.94.657l14.438-.875h.329c.291 0 .565.109.82.328.255.2.383.428.383.683a.844.844 0 0 1-.082.301.875.875 0 0 0-.055.219l-.055 7.492 1.258-.055c.51-.036.884-.09 1.121-.164a.472.472 0 0 1 .192-.027c.255 0 .556.155.902.465.328.273.492.52.492.738 0 .128-.064.228-.191.3a1.214 1.214 0 0 1-.493.138l-3.308.164-.082 9.816c0 .164.009.328.027.492.037.164.055.328.055.492 0 .401-.146.73-.438.985-.273.273-.565.41-.875.41-.328 0-.793-.237-1.394-.711a10.86 10.86 0 0 1-1.641-1.531c-.492-.565-.738-.939-.738-1.121 0-.164.082-.246.246-.246.128 0 .337.073.629.218.784.456 1.586.812 2.406 1.067l.082-9.79-3.828.192Zm-6.781-1.176-.028-7.465-3.472.192-.028 7.437 3.528-.164Zm1.695-.082 3.363-.191.028-7.492-3.445.191.054 7.492Zm5.086-.273 3.828-.192.055-7.546-3.91.218.027 7.52ZM160.02 30.473c-.237 0-.411-.082-.52-.246a3.212 3.212 0 0 0-.492-.575c-.146-.146-.41-.346-.793-.601l.082-.137c.838.292 1.431.438 1.777.438.292 0 .611-.165.957-.493.365-.346.675-.838.93-1.476.128-.292.219-.529.273-.711.073-.2.128-.42.164-.656v-.055c0-.164-.082-.246-.246-.246-.182 0-.51.055-.984.164-.255.073-.592.182-1.012.328l-.218-.055a.66.66 0 0 0-.137-.082c-.055-.054-.1-.11-.137-.164-.091-.09-.137-.155-.137-.191l-.027-.11c0-.127.064-.246.191-.355.146-.11.228-.191.247-.246.145-.164.437-.565.874-1.203.037-.037.101-.119.192-.246.091-.146.137-.274.137-.383 0-.128-.538-.037-1.614.273-1.093.328-1.668.492-1.722.492-.183 0-.374-.154-.575-.464-.145-.146-.218-.265-.218-.356 0-.127.182-.2.547-.219.419-.018 1.066-.09 1.941-.218.893-.128 1.422-.21 1.586-.246l.383-.11a.6.6 0 0 1 .191-.027c.055 0 .137.036.246.11.128.072.237.127.328.163.237.11.374.237.411.383v.082c0 .164-.092.337-.274.52-.073.073-.219.228-.437.465a5.666 5.666 0 0 0-.411.437c-.072.073-.182.191-.328.355a2.423 2.423 0 0 0-.246.301c0 .055.018.091.055.11a.304.304 0 0 0 .137.027c.547-.073.993-.155 1.339-.246l.438-.137c.2 0 .346.073.437.219.165.182.274.337.329.465a.353.353 0 0 1 0 .328.74.74 0 0 1-.082.164 1.788 1.788 0 0 0-.11.191l-.109.22c-.055.108-.091.218-.11.327-.328.948-.72 1.76-1.175 2.434a4.36 4.36 0 0 1-.848.793c-.419.31-.829.465-1.23.465Zm2.488 9.324a.49.49 0 0 1-.246-.082c-.091-.073-.21-.173-.356-.3-.638-.493-1.258-1.231-1.859-2.216A10.413 10.413 0 0 1 158.762 34a5.647 5.647 0 0 0-.082-.383 1.688 1.688 0 0 0-.11-.328c0-.018-.027-.027-.082-.027-.127 0-.373.082-.738.246a1.285 1.285 0 0 0-.328.246c-.091.091-.192.128-.301.11-.073 0-.173-.046-.301-.137a1.284 1.284 0 0 1-.273-.246c-.182-.256-.274-.41-.274-.465 0-.11.101-.174.301-.192.274 0 .447-.009.52-.027a7.886 7.886 0 0 0 1.504-.356.996.996 0 0 0 .3-.164c.019 0 .046-.009.082-.027.055-.018.119 0 .192.055.273.182.41.319.41.41 0 1.276.365 2.47 1.094 3.582.729 1.112 1.795 2.05 3.199 2.816.073.037.164.073.273.11.11.036.164.09.164.164 0 .09-.3.173-.902.246l-.683.11-.219.054Zm2.734-9.98c.091 0 .228.063.41.19-.018.037.019.11.11.22l.191.191c.091.091.182.2.274.328.109.128.227.264.355.41.328.347 1.085 1.249 2.27 2.707.2.292.3.465.3.52 0 .182-.109.273-.328.273-.127 0-.264-.09-.41-.273-.346-.365-.966-.939-1.859-1.723-.693-.638-1.322-1.13-1.887-1.476-.273-.128-.41-.274-.41-.438 0-.127.137-.31.41-.547.255-.255.447-.383.574-.383Zm-22.941-3.883a22.857 22.857 0 0 0 2.57 5.578c1.094 1.713 2.361 3.099 3.801 4.156.109.073.2.146.273.219.073.073.11.146.11.218 0 .146-.164.347-.493.602-.309.255-.555.383-.738.383-.127 0-.264-.055-.41-.164-1.13-.857-2.169-1.933-3.117-3.227a23.372 23.372 0 0 1-2.406-4.238c-.948 1.695-1.942 3.172-2.981 4.43-1.021 1.257-1.932 2.224-2.734 2.898-.802.675-1.331 1.012-1.586 1.012-.128 0-.192-.064-.192-.192 0-.182.146-.446.438-.793a50.298 50.298 0 0 0 3.527-4.511c1.003-1.477 1.887-3.145 2.653-5.004l-.411-1.285-6.753.355-.055 16.352c0 .547-.173.82-.52.82-.073 0-.237-.055-.492-.164a2.158 2.158 0 0 1-.683-.438.855.855 0 0 1-.301-.656c0-.073.018-.219.054-.437.11-.51.165-1.04.165-1.586l.082-13.809c0-.547-.092-1.057-.274-1.531-.109-.274-.164-.474-.164-.602 0-.146.073-.218.219-.218.31 0 .993.246 2.051.738l6.289-.356a19.159 19.159 0 0 1-.328-1.613 496.63 496.63 0 0 0-.356-2.215c-.055-.291-.255-.601-.601-.93-.219-.163-.329-.3-.329-.41 0-.127.183-.191.547-.191l.656.055c.438.054.757.136.958.246.2.11.319.228.355.355.036.11.064.274.082.492.182 1.66.401 3.036.656 4.13l8.121-.438h.328c.292 0 .566.11.821.328.273.2.41.42.41.656a.823.823 0 0 1-.082.301.624.624 0 0 0-.082.246l-.164 15.64c0 .165.009.329.027.493.037.164.055.328.055.492 0 .456-.137.784-.41.984-.274.22-.52.329-.739.329-.382 0-1.102-.274-2.16-.82a23.214 23.214 0 0 1-2.871-1.778c-.875-.656-1.312-1.14-1.312-1.45 0-.127.1-.19.3-.19.201 0 .447.072.739.218 1.677.802 3.217 1.395 4.621 1.777l.137-15.64-7.301.383ZM200.133 26.836c-.11 0-.265-.082-.465-.246a1.76 1.76 0 0 1-.273-.219c-.073-.073-.11-.137-.11-.191l.027-.438c.019-.164.028-.529.028-1.094a70.888 70.888 0 0 1-.028-2.515c0-.51-.045-.975-.136-1.395l-.11-.656V20c0-.164.11-.21.329-.137.091.018.3.055.628.11.347-.055 1.504-.192 3.473-.41a8.03 8.03 0 0 0 1.012-.192h.109c.201 0 .383.1.547.3.292.347.41.593.356.74-.073.181-.146.491-.219.929-.037.255-.082.693-.137 1.312v3.254c0 .164-.082.383-.246.657a.422.422 0 0 1-.219.218.572.572 0 0 1-.301.082c-.109 0-.191-.027-.246-.082l-.109-.11a.309.309 0 0 0-.109-.108c-.019-.019-.055-.028-.11-.028-1.13 0-2.151.073-3.062.219a.902.902 0 0 1-.219.027.517.517 0 0 0-.164.028l-.191.027h-.055Zm.519-1.012a26.061 26.061 0 0 0 1.86-.164c.364-.036.574-.055.629-.055h.218c.292 0 .511.055.657.165.127-.912.191-2.58.191-5.004-.036-.274-.146-.41-.328-.41-.346 0-1.048.063-2.106.19-.109 0-.218.01-.328.028l-.328.055c-.31.055-.538.082-.683.082-.128 0-.174.064-.137.191l-.027.93a2.42 2.42 0 0 0-.028.355c.018.11.028.21.028.301.018.146.027.383.027.711 0 1.422.009 2.206.027 2.352 0 .127.037.21.11.246a.307.307 0 0 0 .218.027Zm2.024-1.531c-.201 0-.356-.1-.465-.3a15.847 15.847 0 0 0-1.066-1.587l-.192-.3c-.073-.11-.109-.192-.109-.247.018-.073.064-.1.136-.082.474.146.912.383 1.313.711.62.474.93.839.93 1.094a.766.766 0 0 1-.11.383c-.127.219-.273.328-.437.328Zm2.488 10.227c-.273 0-.538-.201-.793-.602a8.639 8.639 0 0 0-.957-1.258l-.711-.738c-.383.437-.72.784-1.012 1.039a5.413 5.413 0 0 1-1.039.738c-.784.456-1.44.684-1.968.684-.128 0-.192-.046-.192-.137 0-.055.173-.173.52-.355.346-.183.674-.401.984-.657.784-.656 1.431-1.33 1.942-2.023-.11-.11-.657-.583-1.641-1.422a9.152 9.152 0 0 1-.574-.465 6.941 6.941 0 0 1-.328-.246c-.165-.127-.247-.219-.247-.273 0-.091.046-.137.137-.137.274 0 .711.191 1.313.574.601.365 1.23.802 1.886 1.313.256-.31.456-.602.602-.875.146-.274.31-.611.492-1.012.091-.2.146-.374.164-.52.018-.164.028-.264.028-.3 0-.2.054-.301.164-.301.127 0 .3.1.519.3.383.365.574.611.574.739 0 .073-.045.155-.136.246-.219.219-.42.51-.602.875-.109.219-.31.529-.601.93-.092.11-.165.21-.219.3-.055.092-.11.174-.164.247.419.31 1.039.838 1.859 1.585.201.183.328.356.383.52.073.146.109.346.109.602a.78.78 0 0 1-.136.465.443.443 0 0 1-.356.163Zm-6.043 8.175c-.273 0-.483-.073-.629-.218-.164-.164-.246-.31-.246-.438s.073-.264.219-.41c.018-.018.118-.164.301-.438a34.91 34.91 0 0 0 1.367-2.433c.528-1.003.857-1.686.984-2.051.11-.346.21-.647.301-.902.109-.255.2-.383.273-.383a.45.45 0 0 1 .329.137c.091.073.182.182.273.328.109.127.191.218.246.273.128.146.191.283.191.41a.437.437 0 0 1-.109.274 1.436 1.436 0 0 0-.137.191l-1.203 2.024c-.31.565-.72 1.267-1.23 2.105a.438.438 0 0 0-.11.273c0 .073.082.11.247.11.346 0 .993-.046 1.941-.137.948-.073 1.586-.137 1.914-.191.474-.055.802-.11.984-.164.201-.055.493.082.875.41.456.383.556.629.301.738-.146.073-.428.11-.848.11h-1.093c-.237 0-.611.018-1.121.054-.31 0-.657.01-1.039.028a42.09 42.09 0 0 0-.957.054c-.292.018-.857.073-1.696.164l-.328.082Zm11.621-12.058c.219 0 .328.1.328.3 0 .11-.1.265-.3.465-.547.675-1.632 1.96-3.254 3.856-.128.164-.246.246-.356.246-.091 0-.292-.137-.601-.41-.256-.219-.383-.401-.383-.547 0-.164.136-.32.41-.465.419-.237 1.048-.71 1.887-1.422.838-.747 1.458-1.34 1.859-1.777.164-.164.301-.246.41-.246Zm-30.898 12.687v.082c0 .146-.046.255-.137.328-.073.091-.182.137-.328.137-.237 0-.538-.1-.902-.3-.347-.183-.52-.43-.52-.739v-.082l.027-.848c0-.273-.009-.483-.027-.629l-.355-4.21a4.57 4.57 0 0 0-.137-.766c-.037-.2-.11-.374-.219-.52l-.082-.109a27.064 27.064 0 0 1-3.555 1.805c-1.239.528-2.05.793-2.433.793-.201 0-.301-.055-.301-.164 0-.073.055-.164.164-.274.128-.11.301-.219.52-.328 1.75-.875 3.509-1.95 5.277-3.227 1.768-1.276 3.217-2.515 4.348-3.718 1.148-1.222 1.722-2.188 1.722-2.899 0-.255.091-.383.274-.383.127 0 .337.073.629.22.291.145.546.327.765.546.237.219.356.428.356.629 0 .128-.237.465-.711 1.012a48.555 48.555 0 0 0 5.742 3.664c1.896 1.002 3.992 1.905 6.289 2.707.201.073.337.136.41.191.073.055.11.119.11.192 0 .145-.174.392-.52.738-.346.346-.62.52-.82.52-.128 0-.83-.283-2.106-.848-1.276-.565-2.816-1.367-4.621-2.407-1.786-1.039-3.582-2.278-5.387-3.718-1.549 1.659-3.354 3.153-5.414 4.484.456.11.884.237 1.286.383l9.078-.465h.191c.438 0 .82.11 1.148.328.329.2.493.41.493.63 0 .09-.046.2-.137.327-.073.128-.109.219-.109.274l-.711 4.02c.419.51.629.892.629 1.148 0 .145-.064.237-.192.273-.109.037-.292.055-.547.055l-9.269.218.082.93Zm-7.028-15.941c0-.091.046-.21.137-.356.419-.692.82-1.494 1.203-2.406.401-.911.748-1.832 1.039-2.762.055-.182.119-.31.192-.382.073-.092.182-.137.328-.137.109 0 .246.027.41.082.383.127.574.319.574.574 0 .11-.091.483-.273 1.121l7.656-.465c-.091-.054-.2-.173-.328-.355-.419-.565-1.139-1.294-2.16-2.188a1.256 1.256 0 0 1-.219-.218.292.292 0 0 1-.027-.274c.036-.182.164-.364.382-.547.237-.182.42-.255.547-.218.128.018.42.21.875.574.456.364 1.067.93 1.832 1.695.274.219.383.447.328.684-.036.11-.127.255-.273.437a1.608 1.608 0 0 1-.41.383l8.723-.52h.218c.365 0 .684.119.957.356.274.219.411.428.411.629 0 .127-.092.273-.274.437a2.218 2.218 0 0 0-.301.301 31.01 31.01 0 0 1-2.133 2.488c-.729.766-1.248 1.149-1.558 1.149-.128 0-.192-.064-.192-.192 0-.182.137-.474.411-.875a18.768 18.768 0 0 0 1.613-2.761l-16.543.93a22.217 22.217 0 0 1-1.422 3.308c-.128.273-.292.41-.492.41-.292 0-.574-.11-.848-.328-.255-.219-.383-.41-.383-.574Zm.411 4.293c0-.128.145-.283.437-.465 2.206-1.404 3.947-2.844 5.223-4.32.31-.383.465-.757.465-1.121 0-.31.1-.465.3-.465.164 0 .374.118.629.355.255.219.483.465.684.738.2.274.301.465.301.575 0 .146-.082.291-.246.437-1.076 1.003-2.152 1.841-3.227 2.516-1.057.656-1.978 1.14-2.762 1.449-.765.31-1.276.465-1.531.465-.182 0-.273-.055-.273-.164Zm6.425 9.27 7.793-.22.52-4.074-8.641.383.328 3.91Zm5.743-14.602c0-.11.063-.283.191-.52.128-.255.301-.383.519-.383.11 0 .493.174 1.149.52.656.328 1.449.784 2.379 1.367a40.76 40.76 0 0 1 2.898 1.969c.219.164.328.337.328.52 0 .255-.127.528-.382.82-.237.273-.429.41-.575.41a.623.623 0 0 1-.355-.137 53.295 53.295 0 0 0-3.035-2.351 37.394 37.394 0 0 0-2.817-1.805c-.2-.11-.3-.246-.3-.41ZM244.676 27.465c-.292 0-.465-.146-.52-.438-.109-.31-.401-.692-.875-1.148l.082-.11c.073.037.283.128.629.274.347.128.584.191.711.191h.246a.539.539 0 0 0 .192-.136c.218-.164.492-.538.82-1.121.237-.474.447-1.03.629-1.668.2-.638.301-1.122.301-1.45 0-.09-.073-.136-.219-.136l-1.039.054-.711.055-.465.027-.191.028c.127.09.209.173.246.246a.298.298 0 0 1 .082.219c0 .09-.11.346-.328.765-.183.401-.474.857-.875 1.367-.329.438-.775.912-1.34 1.422-.547.492-.957.748-1.231.766a.518.518 0 0 1-.164-.027.187.187 0 0 1-.054-.137c0-.018.145-.192.437-.52l.766-.902c.547-.73 1.103-1.659 1.668-2.79.054-.145.027-.227-.082-.245-.11.018-.338.045-.684.082a3.53 3.53 0 0 0-.93.164.862.862 0 0 0-.191.082.899.899 0 0 1-.274.055.37.37 0 0 1-.273-.11l-.219-.191c-.164-.128-.246-.246-.246-.356 0-.036.018-.09.055-.164l.137-.218c.073-.092.191-.237.355-.438.164-.2.346-.474.547-.82.036-.073.109-.237.219-.492.127-.256.191-.41.191-.465v-.11c0-.11.018-.182.055-.218.036-.037.118-.037.246 0 .128.036.282.136.465.3l.301.301a.265.265 0 0 1 .082.192c0 .182-.256.51-.766.984a3.144 3.144 0 0 0-.328.41c-.128.182-.192.3-.192.355 0 .11.082.146.247.11l.628-.082c1.441-.219 2.525-.346 3.254-.383l.739-.11.246-.054.136-.027c.146 0 .247.018.301.054.055.037.11.1.164.192.055.073.11.136.164.191.128.146.219.274.274.383l.054.246-.054.11-.055.163a1.578 1.578 0 0 0-.082.274 1.969 1.969 0 0 1-.082.246c-.383 1.477-.829 2.625-1.34 3.445-.164.292-.446.584-.847.875-.383.292-.721.438-1.012.438Zm2.488 7.055c-.273 0-.538-.201-.793-.602a8.639 8.639 0 0 0-.957-1.258l-.711-.738c-.383.437-.72.784-1.012 1.039a5.413 5.413 0 0 1-1.039.738c-.784.456-1.44.684-1.968.684-.128 0-.192-.046-.192-.137 0-.055.173-.173.52-.355.346-.183.674-.401.984-.657.784-.656 1.431-1.33 1.942-2.023-.11-.11-.657-.583-1.641-1.422a9.152 9.152 0 0 1-.574-.465 6.941 6.941 0 0 1-.328-.246c-.165-.127-.247-.219-.247-.273 0-.091.046-.137.137-.137.274 0 .711.191 1.313.574.601.365 1.23.802 1.886 1.313.256-.31.456-.602.602-.875.146-.274.31-.611.492-1.012.091-.2.146-.374.164-.52.018-.164.028-.264.028-.3 0-.2.054-.301.164-.301.127 0 .3.1.519.3.383.365.574.611.574.739 0 .073-.045.155-.136.246-.219.219-.42.51-.602.875-.109.219-.31.529-.601.93-.092.11-.165.21-.219.3-.055.092-.11.174-.164.247.419.31 1.039.838 1.859 1.585.201.183.328.356.383.52.073.146.109.346.109.602a.78.78 0 0 1-.136.465.443.443 0 0 1-.356.163Zm-.656 8.285c-.073 0-.155-.037-.246-.11a2.707 2.707 0 0 1-.356-.273c-.638-.492-1.258-1.23-1.859-2.215a10.412 10.412 0 0 1-1.285-3.2 5.647 5.647 0 0 0-.082-.382 1.688 1.688 0 0 0-.11-.328c0-.018-.027-.027-.082-.027-.127 0-.373.082-.738.246a1.285 1.285 0 0 0-.328.246c-.091.09-.192.127-.301.11-.073 0-.173-.047-.301-.138a1.284 1.284 0 0 1-.273-.246c-.182-.255-.274-.41-.274-.465 0-.109.101-.173.301-.191.274 0 .447-.01.52-.027a7.886 7.886 0 0 0 1.504-.356.998.998 0 0 0 .3-.164c.019 0 .046-.009.082-.027.055-.018.119 0 .192.054.273.183.41.32.41.41 0 1.277.365 2.47 1.094 3.583.729 1.112 1.795 2.05 3.199 2.816.073.037.164.073.273.11.11.036.164.09.164.163 0 .092-.3.174-.902.247l-.683.109-.219.055Zm2.734-9.98c.091 0 .228.063.41.19-.018.037.019.11.11.22l.191.19c.091.092.182.201.274.329.109.128.227.264.355.41.328.346 1.085 1.249 2.27 2.707.2.292.3.465.3.52 0 .182-.109.273-.328.273-.127 0-.264-.091-.41-.273-.346-.365-.966-.94-1.859-1.723-.693-.638-1.322-1.13-1.887-1.477-.273-.127-.41-.273-.41-.437 0-.128.137-.31.41-.547.255-.255.447-.383.574-.383Zm-28.109 6.89c1.713-.31 3.354-.647 4.922-1.012.255-.055.455-.082.601-.082.328 0 .492.082.492.246 0 .274-.893.684-2.679 1.23a95.43 95.43 0 0 1-5.852 1.532c-2.114.492-3.308.738-3.582.738-.255 0-.456-.054-.601-.164-.256-.255-.429-.456-.52-.601-.091-.128-.191-.347-.301-.657l-.027-.136c0-.164.073-.246.219-.246.073 0 .127.009.164.027.364.073.629.11.793.11.273 0 .902-.074 1.886-.22.985-.145 1.933-.3 2.844-.464l.028-3.035-1.942.109h-.437c-.438 0-.739-.064-.903-.192a1.782 1.782 0 0 1-.492-.546c-.128-.237-.191-.438-.191-.602 0-.055.027-.082.082-.082.054 0 .1.01.136.027.31.091.675.137 1.094.137h.246l2.434-.137.027-2.324-3.09.191a6.22 6.22 0 0 1-.656.028c-.328 0-.611-.082-.848-.246-.237-.164-.455-.502-.656-1.012a.385.385 0 0 1-.027-.164c0-.055.027-.082.082-.082l.137.027c.364.091.774.137 1.23.137h.274l2.625-.137-.165-.218a12.767 12.767 0 0 0-1.668-2.079c-.164-.164-.246-.3-.246-.41 0-.073.082-.21.246-.41.183-.2.374-.3.575-.3.164 0 .437.2.82.6.401.384.775.812 1.121 1.286.346.456.52.747.52.875 0 .182-.174.383-.52.602l1.285-.055c.675-.912 1.103-1.595 1.285-2.05.201-.457.31-.858.329-1.204 0-.2.072-.3.218-.3.073 0 .228.054.465.163.255.091.483.21.684.356.2.146.301.291.301.437 0 .164-.183.483-.547.957-.365.456-.839.976-1.422 1.559l1.886-.11a2.917 2.917 0 0 0 1.04-.218.724.724 0 0 1 .328-.082c.273 0 .556.146.847.437.31.292.465.52.465.684 0 .219-.209.346-.629.383l-4.621.273-.027 2.324 1.476-.082a4.112 4.112 0 0 0 1.067-.218c.182-.037.291-.055.328-.055.182 0 .374.073.574.219.201.127.374.282.52.464.146.183.218.32.218.41 0 .183-.218.292-.656.329l-3.554.191-.055 2.844Zm-8.039-12.524c0-.09.045-.136.136-.136l.137.027c.401.091.784.137 1.149.137h.246l3.582-.219-.246-5.469a2.01 2.01 0 0 0-.356-1.093c-.127-.183-.191-.32-.191-.41 0-.128.091-.192.273-.192.183 0 .511.073.985.219.364.11.601.218.711.328.109.091.164.246.164.465l.136 6.043 1.45-.082.164-5.579v-.164c0-.218-.028-.4-.082-.546a1.894 1.894 0 0 0-.219-.493.693.693 0 0 1-.11-.328c0-.127.092-.191.274-.191.51.055.939.164 1.285.328s.52.365.52.602v.082l-.329 6.18 1.86-.11c.346-.018.72-.11 1.121-.274a1.07 1.07 0 0 1 .355-.082c.256 0 .556.155.903.465.346.31.519.556.519.738 0 .22-.219.347-.656.383l-11.621.711a7.972 7.972 0 0 1-.711.028c-.255 0-.51-.073-.766-.22-.255-.145-.474-.482-.656-1.01a.307.307 0 0 1-.027-.138Zm1.094-4.566c0-.128.109-.283.328-.465.237-.182.401-.273.492-.273.164 0 .456.273.875.82.419.529.811 1.112 1.176 1.75.382.62.574 1.003.574 1.148 0 .201-.137.392-.41.575-.274.164-.483.246-.629.246-.164 0-.301-.128-.41-.383a19.452 19.452 0 0 0-1.778-2.98c-.146-.201-.218-.347-.218-.438Zm9.078 3.336c0-.128.082-.31.246-.547a11.49 11.49 0 0 0 1.121-1.941c.273-.638.456-1.158.547-1.559.109-.42.164-.674.164-.766 0-.236.073-.355.218-.355.055 0 .21.073.465.219.256.146.483.319.684.52.219.2.328.382.328.546 0 .128-.055.264-.164.41-.784 1.149-1.504 2.042-2.16 2.68-.656.62-1.094.93-1.313.93-.091 0-.136-.046-.136-.137Zm4.211.328c0-.091.036-.137.109-.137.055 0 .1.01.137.028.382.127.784.191 1.203.191h.246l3.937-.246-.027-5.469c0-.528-.155-1.002-.465-1.422-.146-.237-.219-.392-.219-.465 0-.109.073-.163.219-.163.237 0 .656.109 1.258.328.365.127.602.255.711.382.109.128.164.329.164.602l.027 6.098 1.039-.055c.493-.037.894-.11 1.204-.219.145-.055.273-.082.382-.082.256 0 .538.155.848.465.328.31.492.574.492.793 0 .2-.191.319-.574.355l-3.391.192.082 13.808c0 .164.009.32.028.465.018.164.027.31.027.438 0 .346-.091.62-.273.82a1.587 1.587 0 0 1-.602.465c-.2.11-.337.164-.41.164-.365 0-.957-.255-1.777-.766a17.06 17.06 0 0 1-2.215-1.668c-.675-.601-1.012-1.02-1.012-1.257 0-.128.082-.192.246-.192.164 0 .419.091.766.274a18.331 18.331 0 0 0 3.554 1.449l-.082-13.89-3.308.218a6.233 6.233 0 0 1-.656.027c-.493 0-.812-.073-.957-.218a2.588 2.588 0 0 1-.52-.739c-.128-.273-.191-.465-.191-.574Zm.191 4.266c0-.146.118-.301.355-.465.237-.182.438-.274.602-.274.146 0 .31.119.492.356.547.747 1.13 1.659 1.75 2.734.62 1.076.93 1.705.93 1.887 0 .128-.155.319-.465.574-.292.255-.538.383-.738.383a.372.372 0 0 1-.274-.11 2.837 2.837 0 0 1-.218-.382c-.401-.875-1.158-2.315-2.27-4.32a1.275 1.275 0 0 0-.109-.165.62.62 0 0 1-.055-.218ZM283.23 30.637c-.273 0-.519-.11-.738-.328-.273-.2-.41-.356-.41-.465 0-.128.21-.192.629-.192l1.34-.082 1.367-.136c.036-.292.055-.848.055-1.668.054 0-.228.036-.848.109l-.52.082c-.164.073-.309.11-.437.11a.37.37 0 0 1-.273-.11c-.292-.255-.438-.474-.438-.656v-1.285c0-.128-.046-.62-.137-1.477l-.027-.3c0-.147.027-.238.082-.274.055-.037.155-.037.301 0 .547.146.811.31.793.492l-.028.191a7.295 7.295 0 0 0-.054.985c0 .474.009.775.027.902.037.365.055.538.055.52.018.073.082.11.191.11.11 0 .328-.028.656-.083.347-.073.575-.119.684-.137V24.54c0-.674-.027-1.13-.082-1.367a4.39 4.39 0 0 1-.055-.3c0-.128.046-.192.137-.192.036 0 .164.036.383.11.346.163.574.309.683.437.128.127.174.264.137.41-.055.182-.091.547-.109 1.093a51.99 51.99 0 0 0-.11 2.133l.93-.027c.182 0 .319-.01.41-.027.091-.019.137-.055.137-.11.128-.693.21-1.294.246-1.805l.027-.328c.019-.036.019-.1 0-.191v-.191l-.027-.192c0-.164.064-.246.191-.246.073 0 .228.073.465.219.055.036.128.091.219.164a.468.468 0 0 1 .219.191.393.393 0 0 1 .054.22c0 .108-.009.2-.027.273l-.301 1.53-.082.63c-.073.419-.291.647-.656.683a.97.97 0 0 1-.273-.082.27.27 0 0 0-.137-.055c-.219 0-.675.046-1.367.137l-.028 1.696.465-.028.438-.027c.674 0 1.175-.037 1.504-.11.145 0 .273-.018.382-.054l.082-.027c.183 0 .374.127.575.382.237.237.355.41.355.52 0 .164-.255.219-.765.164l-1.04-.055h-1.367c-.273 0-.774.037-1.504.11-.382 0-.729.018-1.039.054-.31.037-.601.1-.875.192l-.465.164Zm5.934 7.574c.037.073.1.182.191.328a.953.953 0 0 1 .137.52.52.52 0 0 1-.219.437.725.725 0 0 1-.492.191c-.164 0-.301-.164-.41-.492a5.692 5.692 0 0 0-.137-.3 1.913 1.913 0 0 0-.054-.22 6.291 6.291 0 0 1-.93.192c-.383.055-.656.1-.82.137-.875.164-1.477.282-1.805.355a5.33 5.33 0 0 0-.41.137c-.146.037-.228.064-.246.082a.875.875 0 0 1-.246.055.577.577 0 0 1-.411-.192 1.503 1.503 0 0 1-.492-.656c-.018-.018-.027-.045-.027-.082 0-.036.046-.082.137-.137a2.07 2.07 0 0 1 .246-.109c.237-.128.656-.51 1.258-1.148l.738-.711-1.613-.875c-.183-.055-.301-.119-.356-.192-.055-.073-.082-.182-.082-.328 0-.11.018-.182.055-.219a2.4 2.4 0 0 1 .328-.246c.164-.11.328-.255.492-.437.091-.11.21-.228.356-.356.145-.127.282-.264.41-.41.547-.638.893-1.14 1.039-1.504.091-.182.164-.273.219-.273.036 0 .109.036.218.11.347.254.556.491.629.71v.082c0 .091-.045.164-.137.219a1.08 1.08 0 0 0-.191.137c-.055.036-.328.3-.82.793l-.492.492c-.092.09-.247.246-.465.465-.219.2-.328.319-.328.355 0 .055.027.1.082.137a.644.644 0 0 1 .164.11l1.148.546c.711-.71 1.121-1.13 1.231-1.258.474-.547.738-.893.793-1.039a.667.667 0 0 0 .082-.136c.036-.073.073-.11.109-.11.055 0 .109.027.164.082.292.274.501.529.629.766a.5.5 0 0 1 .055.136c0 .037-.046.092-.137.165l-.219.164c-.638.528-1.385 1.22-2.242 2.078l-1.668 1.558c-.036.037-.055.073-.055.11 0 .036.019.063.055.082.036.018.091.018.164 0l3.199-.547c-.091-.365-.2-.73-.328-1.094v-.055c0-.054.028-.082.082-.082.073 0 .182.055.328.164.292.256.657.693 1.094 1.313Zm2.078-8.395c.091 0 .228.064.41.192-.018.036.019.11.11.219l.191.191c.091.091.182.2.274.328.109.128.227.264.355.41.328.347 1.085 1.249 2.27 2.707.2.292.3.465.3.52 0 .182-.109.273-.328.273-.127 0-.264-.09-.41-.273-.346-.365-.966-.939-1.859-1.723-.693-.638-1.322-1.13-1.887-1.476-.273-.128-.41-.274-.41-.438 0-.127.137-.31.41-.547.255-.255.447-.383.574-.383Zm-31.281 6.645c0 .383-.164.574-.492.574-.164 0-.356-.054-.574-.164-.474-.237-.711-.51-.711-.82v-.137a9.96 9.96 0 0 0 .164-1.832l-.246-10.5c-.037-.857-.146-1.458-.329-1.805-.109-.2-.164-.346-.164-.437 0-.11.073-.164.219-.164.274 0 .912.191 1.914.574l3.856-.3.328-.028c.401 0 .729.11.984.328.274.219.41.42.41.602a.64.64 0 0 1-.082.273.878.878 0 0 0-.054.246l-.356 10.828c.474.565.711.966.711 1.203 0 .11-.046.183-.137.22a3.194 3.194 0 0 1-.41.054l-5.058.218.027 1.067Zm-4.348 5.906c0-.146.091-.3.274-.465a14.447 14.447 0 0 0 1.695-1.777 12.592 12.592 0 0 0 1.395-2.078c.164-.292.328-.438.492-.438.164 0 .383.073.656.22.273.127.41.309.41.546 0 .128-.146.456-.437.984a19.325 19.325 0 0 1-1.203 1.86 19.882 19.882 0 0 1-1.696 2.05.595.595 0 0 1-.492.247c-.219 0-.456-.137-.711-.41-.255-.274-.383-.52-.383-.739Zm4.157-14.71 3.609-.22.109-4.593-3.828.273.11 4.54Zm.136 6.288 3.336-.164.11-4.922-3.555.192.109 4.894Zm2.844 4.977c0-.182.091-.356.273-.52.201-.182.392-.273.575-.273.2 0 .547.282 1.039.848.51.565.993 1.184 1.449 1.859.456.674.684 1.066.684 1.176 0 .164-.128.364-.383.601-.255.255-.502.383-.739.383-.2 0-.382-.146-.546-.437-.657-1.258-1.349-2.297-2.079-3.118-.182-.218-.273-.392-.273-.52Zm2.844-9.926c0-.164.2-.383.601-.656 2.352-1.568 3.91-3.619 4.676-6.152l-2.078.164a11.19 11.19 0 0 1-.793.054c-.237 0-.51-.073-.82-.218-.31-.165-.547-.52-.711-1.067l-.028-.164c0-.128.055-.191.164-.191l.11.027c.456.091.875.137 1.258.137h.273l8.285-.575h.219c.346 0 .638.11.875.329.255.2.383.4.383.601 0 .091-.028.2-.082.328a1.24 1.24 0 0 0-.11.301c-.237 2.005-.546 3.628-.929 4.867-.365 1.222-.875 1.832-1.532 1.832-.273 0-.72-.191-1.339-.574a13.5 13.5 0 0 1-1.723-1.258c-.51-.455-.766-.765-.766-.93 0-.109.073-.163.219-.163.164 0 .374.063.629.19.693.329 1.504.602 2.434.821l.109.028c.219 0 .456-.602.711-1.805.255-1.221.419-2.27.492-3.145l-3.418.274c-.547 1.75-1.303 3.163-2.269 4.238-.967 1.057-2.233 1.941-3.801 2.652-.31.146-.574.22-.793.22-.164 0-.246-.056-.246-.165Zm1.804.11c0-.128.092-.192.274-.192.273 0 .875.182 1.805.547l6.289-.3h.3c.31 0 .584.108.821.327.255.2.383.429.383.684 0 .091-.037.2-.11.328a.82.82 0 0 0-.082.273l-.601 3.555c.437.51.656.875.656 1.094 0 .128-.064.219-.192.273a3.146 3.146 0 0 1-.601.082l-6.453.274.054.601v.164c0 .383-.127.575-.382.575-.237 0-.547-.119-.93-.356-.365-.255-.547-.51-.547-.765l.027-.22a6.81 6.81 0 0 0 .082-1.01c0-.238-.009-.411-.027-.52l-.301-3.5c-.054-.584-.146-1.03-.273-1.34-.128-.292-.192-.483-.192-.575Zm.793 9.87c0-.2.101-.4.301-.601.201-.2.374-.3.52-.3.146 0 .31.081.492.245.583.456 1.303 1.094 2.16 1.914.857.802 1.285 1.322 1.285 1.559 0 .237-.137.492-.41.766-.255.273-.483.41-.684.41-.164 0-.319-.1-.464-.301-1.076-1.422-2.051-2.507-2.926-3.254-.182-.164-.274-.31-.274-.437Zm1.586-4.347 5.114-.219.437-3.8-5.851.245.3 3.774Zm4.321 4.047c.018-.073.063-.183.136-.328.073-.146.174-.283.301-.41a.604.604 0 0 1 .438-.192c.182 0 .373.091.574.273 1.057.82 2.06 1.669 3.008 2.544.948.856 1.422 1.421 1.422 1.695 0 .164-.128.4-.383.71-.255.329-.492.493-.711.493-.146 0-.319-.119-.52-.355-1.276-1.514-2.579-2.817-3.91-3.91-.237-.201-.355-.374-.355-.52Z"/></svg>