<svg xmlns="http://www.w3.org/2000/svg" width="340" height="60" fill="none"><path fill="#333" d="M118.293 30.637c-.255 0-.447-.082-.574-.246-.164-.31-.502-.647-1.012-1.012l.055-.137c.565.237 1.039.356 1.422.356.237 0 .437-.137.601-.41.182-.292.374-.711.574-1.258.237-.675.365-1.24.383-1.696 0-.054-.027-.1-.082-.136-.055-.055-.1-.082-.137-.082-.164-.019-.474.009-.929.082l-.574.082a4.411 4.411 0 0 0-.575.11c-.2.054-.364.09-.492.108a5.537 5.537 0 0 0-.355.11 1.302 1.302 0 0 1-.356.082c-.091 0-.2-.046-.328-.137a2.833 2.833 0 0 1-.301-.355c-.018-.019-.027-.055-.027-.11 0-.073.055-.164.164-.273l.301-.3c.091-.11.182-.238.273-.384a3.29 3.29 0 0 1 .219-.355c.091-.146.164-.32.219-.52l.054-.246a.832.832 0 0 0-.027-.137c-.018-.09-.055-.136-.109-.136-.729.09-1.267.2-1.614.328a1.684 1.684 0 0 1-.328.11.415.415 0 0 1-.328-.165c-.055-.018-.164-.164-.328-.437-.073-.073-.109-.137-.109-.192 0-.127.191-.2.574-.218l.519-.055c.092 0 .283-.018.575-.055.583-.055 1.394-.118 2.433-.191.365-.018.994-.064 1.887-.137.255-.018.565-.055.93-.11.2-.054.328-.081.382-.081.092 0 .183.036.274.109.091.036.21.11.355.219.146.09.256.191.328.3.073.092.11.183.11.274 0 .091-.046.155-.137.191a.582.582 0 0 1-.355 0 4.296 4.296 0 0 0-.766-.109 11.705 11.705 0 0 0-.492-.027c-.62-.019-1.395.009-2.324.082a4.479 4.479 0 0 1-.575.054c.11.091.21.237.301.438v.055a.464.464 0 0 1-.082.218.482.482 0 0 1-.191.192c-.091.054-.201.182-.328.383-.128.2-.21.328-.246.382-.11.146-.165.265-.165.356 0 .073.073.1.219.082l.793-.11c.419-.072.729-.136.93-.191.055-.018.137-.036.246-.055.128-.018.273-.054.437-.109a.588.588 0 0 1 .383.082c.146.073.365.228.657.465.218.164.328.31.328.437a.438.438 0 0 1-.11.274c-.073.127-.127.3-.164.52-.164.765-.355 1.385-.574 1.859a7.704 7.704 0 0 1-.465.82c-.146.2-.328.401-.547.602-.237.273-.51.41-.82.41Zm.191 9.543c-.875 0-1.604-.22-2.187-.657-.602-.492-.902-1.066-.902-1.722 0-.51.191-.957.574-1.34.492-.42 1.112-.629 1.859-.629.037 0 .064-.036.082-.11a.96.96 0 0 0 .055-.355l.027-.71c-.127.018-.374.045-.738.081a7.496 7.496 0 0 0-.766.11c.091-.019-.191.045-.847.191a1.105 1.105 0 0 1-.301.027c-.347 0-.638-.155-.875-.464-.11-.11-.164-.201-.164-.274 0-.11.164-.164.492-.164l.848-.055 2.324-.3v-1.012a1.03 1.03 0 0 1-.027-.246.716.716 0 0 0-.028-.219 1.712 1.712 0 0 1-.055-.273c0-.128.064-.192.192-.192.164 0 .446.119.848.356.127.073.191.173.191.3a.536.536 0 0 1-.055.246.613.613 0 0 0-.027.192v.766l.82-.082 1.012-.11c.091-.018.191-.045.301-.082.127-.036.228-.055.301-.055.109 0 .246.055.41.164.31.201.464.374.464.52 0 .146-.154.219-.464.219-.091 0-.219.018-.383.054-.164.019-.374.037-.629.055l-1.832.137-.027 1.668c-.037.273-.237.446-.602.52h-.055c-.109 0-.218-.01-.328-.028a.63.63 0 0 0-.219-.055c-.145 0-.291.01-.437.028a.724.724 0 0 0-.383.164c-.31.273-.465.592-.465.957 0 .364.173.692.52.984.31.292.802.438 1.476.438.894-.037 1.623-.283 2.188-.739.237-.164.419-.246.547-.246.073 0 .164.019.273.055l.11.11c.054.054.082.109.082.163 0 .51-.429.93-1.286 1.258a5.464 5.464 0 0 1-1.914.356Zm4.758-10.364c.091 0 .228.064.41.192-.018.036.019.11.11.219l.191.191c.091.091.182.2.274.328.109.128.227.264.355.41.328.347 1.085 1.249 2.27 2.707.2.292.3.465.3.52 0 .182-.109.273-.328.273-.127 0-.264-.09-.41-.273-.346-.365-.966-.939-1.859-1.723-.693-.638-1.322-1.13-1.887-1.476-.273-.128-.41-.274-.41-.438 0-.127.137-.31.41-.547.255-.255.447-.383.574-.383Zm-19.906 12.715c.109-1.02.164-1.941.164-2.761v-3.555c0-.328.036-.957.109-1.887-.346.966-1.02 2.033-2.023 3.2a23.178 23.178 0 0 1-3.117 3.035c-1.057.838-1.768 1.257-2.133 1.257-.128 0-.192-.054-.192-.164 0-.146.137-.346.41-.601 2.352-2.151 4.348-4.694 5.989-7.63l-3.582.165h-.383c-.255 0-.447-.01-.574-.028a.68.68 0 0 1-.3-.164 2.33 2.33 0 0 1-.52-.629c-.146-.273-.22-.473-.22-.601s.083-.191.247-.191l.11.027c.4.091.783.137 1.148.137h.246l4.758-.192v-2.215l-2.844.137.027.356v.082c0 .382-.155.574-.465.574-.237 0-.52-.091-.847-.274-.328-.2-.492-.455-.492-.765l.027-.41c.036-.401.055-.73.055-.985 0-.237-.01-.42-.028-.547l-.41-5.086c-.055-.71-.182-1.312-.383-1.804a1.31 1.31 0 0 1-.082-.383c0-.128.082-.192.246-.192.329 0 .94.192 1.832.575l8.832-.602h.164c.456 0 .803.119 1.04.356.237.218.355.41.355.574 0 .091-.036.21-.109.355-.073.128-.11.22-.11.274l-.711 6.07c.529.529.793.893.793 1.094 0 .11-.054.182-.164.219a1.689 1.689 0 0 1-.437.082l-4.649.218v2.215l4.43-.191c.51-.037.902-.11 1.176-.219a.897.897 0 0 1 .273-.055c.237 0 .52.137.848.41.346.274.519.53.519.766 0 .274-.2.428-.601.465l-5.961.246.765.82c1.295 1.404 2.361 2.507 3.2 3.309.856.784 1.868 1.54 3.035 2.27.146.09.219.182.219.273 0 .036-.046.118-.137.246-.492.547-.875.82-1.149.82-.182 0-.692-.355-1.531-1.066a39.886 39.886 0 0 1-2.734-2.652c-.966-1.04-1.777-2.051-2.434-3.036.073.839.11 1.45.11 1.832l.027 7.137c0 .365-.164.547-.492.547-.255 0-.547-.11-.875-.328-.31-.219-.465-.474-.465-.766v-.164ZM86.82 24.484c0-.109.055-.164.164-.164.073 0 .137.01.192.028.273.073.565.109.875.109l.465-.027 6.671-.356c.53-.09.894-.173 1.094-.246a.87.87 0 0 1 .246-.055c.183 0 .383.082.602.247.237.164.437.346.602.546.182.2.273.347.273.438 0 .219-.21.346-.629.383l-8.313.52c-.2.017-.437.027-.71.027-.347 0-.575-.046-.684-.137-.328-.292-.556-.556-.684-.793-.109-.255-.164-.428-.164-.52Zm1.696 9.926c0-.11.072-.164.218-.164.292 0 .93.182 1.914.547l4.13-.191.273-.028c.237 0 .492.128.765.383.274.237.41.456.41.656a.527.527 0 0 1-.082.274 1.947 1.947 0 0 0-.082.246l-.464 3.61c.4.546.601.929.601 1.148 0 .127-.055.21-.164.246-.11.036-.291.063-.547.082l-4.457.136.028.52v.082c0 .401-.165.602-.493.602-.255 0-.528-.1-.82-.301-.292-.2-.437-.447-.437-.739v-.19c.036-.438.054-.767.054-.985v-.356l-.273-3.61c-.055-.655-.182-1.148-.383-1.476-.128-.255-.191-.419-.191-.492Zm.273-6.453c0-.091.037-.137.11-.137a.38.38 0 0 1 .163.028c.329.054.657.082.985.082h.3l3.692-.22c.365-.036.684-.108.957-.218a.867.867 0 0 1 .246-.055c.182 0 .438.155.766.465.346.292.52.538.52.739 0 .109-.055.2-.165.273a.954.954 0 0 1-.437.137l-5.032.328a5.131 5.131 0 0 1-.601.027c-.383 0-.684-.1-.902-.3-.22-.201-.374-.41-.465-.63-.091-.236-.137-.41-.137-.519Zm.055 3.336c0-.091.045-.137.137-.137l.136.028c.292.072.62.109.985.109h.3l3.528-.164c.291-.018.62-.091.984-.219a.866.866 0 0 1 .246-.055c.219 0 .483.155.793.465.31.292.465.538.465.739 0 .237-.191.373-.574.41l-4.895.273-.601.028c-.31 0-.584-.083-.82-.247-.238-.164-.456-.52-.657-1.066a.38.38 0 0 1-.027-.164Zm.683-10.773c0-.22.073-.42.22-.602.163-.182.327-.273.491-.273.11 0 .274.045.493.136 1.294.529 2.242.948 2.843 1.258.62.292 1.003.51 1.149.656.164.128.246.256.246.383 0 .164-.082.401-.246.711-.164.31-.374.465-.63.465-.127 0-.31-.073-.546-.219-1.221-.82-2.36-1.467-3.418-1.941a2.063 2.063 0 0 1-.465-.246.448.448 0 0 1-.137-.328Zm1.395 19.414 3.172-.11.3-3.718-3.746.136.274 3.692Zm9.351-15.286 3.172-.191v-2.27l-3.336.22.164 2.241Zm.274 3.801 2.926-.164-.028-2.433-3.09.164.192 2.433Zm7.738-4.265.219-2.297-3.418.218v2.27l3.199-.191Zm-.328 3.882.219-2.488-3.063.164v2.461l2.844-.137ZM163.027 29.816c-.273 0-.474-.145-.601-.437l-.246-.547c-.711.182-1.285.319-1.723.41l-1.777.438c-.365.09-.593.136-.684.136a.608.608 0 0 1-.273-.054l-.137-.137a1.215 1.215 0 0 1-.082-.137c-.146-.255-.21-.428-.192-.52l.192-.3c.474-.656.911-1.595 1.312-2.816l-.546.082-.711.082c-.055.018-.174.054-.356.109-.164.037-.292.027-.383-.027-.2-.128-.465-.356-.793-.684-.073-.073-.109-.128-.109-.164 0-.11.2-.164.602-.164h.929a35.67 35.67 0 0 0 1.696-.137c.109-.273.227-.62.355-1.039.128-.42.219-.756.273-1.012v-.328c.019-.164.055-.264.11-.3h.027c.073 0 .173.036.301.109.128.073.246.164.355.273.347.347.447.62.301.82-.073.019-.228.32-.465.903-.018.037-.082.2-.191.492l1.586-.191c.419-.037.738-.082.957-.137.31-.091.556-.137.738-.137.146 0 .265.055.356.164l.191.192c.055.055.119.164.191.328.073.128.101.219.082.273-.072.11-.2.164-.382.164a14.982 14.982 0 0 0-2.16.055 9.263 9.263 0 0 0-.821.11l-1.066.109-.246.738-.301.656c-.091.22-.191.438-.301.657a6.125 6.125 0 0 0-.246.547.385.385 0 0 0-.027.164c0 .09.054.136.164.136.146 0 .647-.082 1.504-.246l1.011-.164.465-.11c-.164-.455-.291-.747-.383-.874a2.854 2.854 0 0 1-.164-.246l.164-.164c.711.455 1.286.92 1.723 1.394.128.164.21.32.246.465.055.146.073.31.055.492a.759.759 0 0 1-.192.383c-.036.091-.145.155-.328.191Zm.465 9.297c.255.164.383.32.383.465 0 .2-.155.328-.465.383-.31.055-.747.091-1.312.11-.821.018-1.349-.01-1.586-.083-.401-.182-.602-.483-.602-.902l.028-1.012a8.12 8.12 0 0 0 .054-.875c.018-.164.028-.483.028-.957a9.201 9.201 0 0 1-1.067 1.805c-.31.383-.583.702-.82.957-.237.237-.52.465-.848.684-.328.218-.629.328-.902.328-.164 0-.246-.055-.246-.164 0-.019.173-.155.519-.41.365-.274.729-.648 1.094-1.122.547-.729 1.021-1.586 1.422-2.57-.711.091-1.185.173-1.422.246a.98.98 0 0 0-.246.082.684.684 0 0 1-.274 0 2.321 2.321 0 0 1-.382-.219 2.49 2.49 0 0 1-.383-.355c-.073-.11-.11-.182-.11-.219 0-.091.137-.137.411-.137.674 0 1.54-.073 2.597-.218.11-.42.164-1.094.164-2.024v-.52c0-.218.046-.337.137-.355.018-.018.055-.027.109-.027.146 0 .347.11.602.328.201.164.328.292.383.383.073.073.082.173.027.3l-.109.22c-.055.109-.091.218-.11.328l-.109.546a5.698 5.698 0 0 0-.109.684c.255-.018.574-.055.957-.11.383-.054.665-.109.847-.163l.547-.137c.183-.037.483.118.903.465.072.054.109.118.109.191 0 .073-.037.137-.109.191a.391.391 0 0 1-.219.055c-.328 0-.93.055-1.805.164l-.902.082c.2.146.328.274.383.383a.42.42 0 0 1 .027.328l-.082.438a64.1 64.1 0 0 0-.109 1.203 8.787 8.787 0 0 0 0 1.011c0 .092.054.174.164.247.127.073.255.109.382.109.456 0 .967-.046 1.532-.137l.246-.054c.109 0 .2.018.273.054Zm5.25-11.484c.219 0 .328.1.328.3 0 .11-.1.265-.3.466-.547.674-1.632 1.96-3.254 3.855-.128.164-.246.246-.356.246-.091 0-.292-.137-.601-.41-.256-.219-.383-.401-.383-.547 0-.164.136-.319.41-.465.419-.237 1.048-.71 1.887-1.422.838-.747 1.458-1.34 1.859-1.777.164-.164.301-.246.41-.246Zm-37.187 14.957c-.511 0-.866-.091-1.067-.273a3.21 3.21 0 0 1-.465-.711c-.127-.274-.191-.483-.191-.63 0-.09.046-.136.137-.136.073 0 .136.01.191.027.602.128 1.103.192 1.504.192h.191l8.696-.246v-2.735l-4.129.164-.656.028a1.67 1.67 0 0 1-.875-.246c-.256-.165-.456-.547-.602-1.149a.385.385 0 0 1-.027-.164c0-.091.045-.137.136-.137l.11.028c.62.109 1.066.164 1.34.164h.218l4.485-.192v-.875c0-.492-.119-.948-.356-1.367a.486.486 0 0 1-.082-.191c0-.128.11-.192.328-.192.11 0 .319.037.629.11.328.073.62.182.875.328.256.127.383.291.383.492l-.027 1.613 3.965-.164c.51-.018.929-.09 1.257-.218a.873.873 0 0 1 .247-.055c.255 0 .546.155.875.465.328.31.492.574.492.793 0 .237-.192.373-.575.41l-6.289.273-.054 2.762 8.34-.219a8.996 8.996 0 0 0 1.75-.246l.191-.027c.292 0 .611.155.957.465.346.31.52.592.52.847a.406.406 0 0 1-.11.301.37.37 0 0 1-.273.11l-21.52.6h-.519Zm-1.149-12.605a.92.92 0 0 1 .082-.356c.821-1.787 1.386-3.582 1.696-5.387.036-.237.091-.4.164-.492.073-.091.191-.137.355-.137.201 0 .41.037.629.11.237.073.356.246.356.52 0 .109-.01.2-.028.273l-.164.984 7-.437.082-4.758c0-.2-.027-.374-.082-.52a3.226 3.226 0 0 0-.273-.574c-.091-.182-.137-.31-.137-.383 0-.127.091-.191.273-.191.292 0 .693.118 1.203.355.529.237.793.474.793.711l-.164 5.25 9.297-.574h.356c.346 0 .656.137.929.41.274.274.411.51.411.711 0 .11-.064.21-.192.3a1.58 1.58 0 0 0-.246.247c-1.185 1.55-2.361 2.707-3.527 3.473l-.137.082c-.237.127-.41.191-.52.191-.109 0-.164-.046-.164-.137 0-.09.101-.282.301-.574.985-1.276 1.668-2.333 2.051-3.172l-17.555 1.012c-.237.966-.592 2.124-1.066 3.473a.928.928 0 0 1-.191.355.408.408 0 0 1-.301.11c-.183 0-.438-.083-.766-.247-.31-.164-.465-.373-.465-.629Zm4.02-8.942c0-.164.109-.346.328-.547.237-.219.419-.328.547-.328.146 0 .51.255 1.094.766a15.77 15.77 0 0 1 1.667 1.64c.529.565.793.93.793 1.094 0 .128-.127.328-.382.602-.237.255-.456.382-.657.382-.164 0-.337-.109-.519-.328-.93-1.221-1.823-2.215-2.68-2.98-.127-.128-.191-.228-.191-.3Zm1.039 7.328c0-.11.091-.164.273-.164.292 0 .83.128 1.614.383l8.476-.465h.164c.237 0 .474.1.711.3.237.201.356.384.356.548 0 .073-.037.164-.11.273a.943.943 0 0 0-.109.246l-.383 2.762c.474.529.711.884.711 1.066 0 .092-.064.155-.191.192a2.58 2.58 0 0 1-.411.027l-8.558.383v.273c0 .31-.119.465-.356.465-.2 0-.474-.082-.82-.246-.328-.164-.492-.383-.492-.656v-.11c.018-.145.027-.346.027-.601 0-.182-.009-.31-.027-.383l-.328-2.734a3.049 3.049 0 0 0-.383-1.121c-.109-.256-.164-.401-.164-.438Zm2.406 4.184 7.027-.328.274-2.68-7.574.383.273 2.625Zm5.77-8.012c0-.2.173-.474.519-.82.985-1.003 1.632-1.796 1.942-2.38.328-.6.546-1.148.656-1.64.054-.219.155-.328.301-.328.218 0 .528.21.929.629.401.42.602.738.602.957 0 .091-.173.319-.52.684-.328.364-.793.793-1.394 1.285-.602.492-1.285.966-2.051 1.422l-.273.164c-.237.11-.42.164-.547.164-.11 0-.164-.046-.164-.137ZM203.359 30.773c-.182.237-.373.356-.574.356-.055 0-.082-.046-.082-.137 0-.127.037-.273.109-.437l.547-1.094c.019-.073.046-.146.082-.219.037-.073.064-.137.082-.191v-.028c0-.036-.027-.072-.082-.109a.229.229 0 0 0-.191-.027 23.25 23.25 0 0 0-1.312.136c-.566.073-.985.146-1.258.22l-.41.136a1.074 1.074 0 0 1-.356.082c-.328 0-.602-.1-.82-.3a1.67 1.67 0 0 1-.41-.384l-.055-.136c0-.091.155-.119.465-.082.419.036 1.285-.019 2.597-.165l.547-.081c.146-.019.374-.046.684-.082.328-.055.583-.11.766-.165l.164-.054a.436.436 0 0 1 .191-.055c.091 0 .2.046.328.137.146.09.264.173.356.246.127.091.209.173.246.246.054.055.073.128.054.219 0 .09-.045.173-.136.246a2.568 2.568 0 0 0-.192.164 4.312 4.312 0 0 1-.383.41 4.475 4.475 0 0 1-.492.602c-.219.255-.373.437-.465.546Zm-1.367 5.387c0-.054.091-.191.274-.41l.464-.547c.274-.364.602-.893.985-1.586.401-.692.629-1.148.683-1.367.037-.11-.018-.164-.164-.164-.291 0-1.093.082-2.406.246-.857.11-1.495.219-1.914.328a.527.527 0 0 1-.273.082c-.146 0-.301-.1-.465-.3a.725.725 0 0 1-.11-.356c0-.073.046-.146.137-.219l.082-.11a5.86 5.86 0 0 0 .192-.437c.072-.182.136-.355.191-.52a4.92 4.92 0 0 0 .191-.956c.019-.2.128-.256.329-.164.255.127.446.255.574.383.146.109.191.19.136.246a2.72 2.72 0 0 0-.437.738 7.286 7.286 0 0 0-.164.574c0 .073.045.11.137.11.273 0 .683-.046 1.23-.137l1.148-.137c.456-.055.821-.11 1.094-.164l.684-.137a.712.712 0 0 1 .219-.027c.091 0 .182.036.273.11.091.054.191.127.301.218.182.164.301.3.355.41.055.091.082.2.082.328 0 .073-.054.164-.164.274-.091.11-.2.282-.328.52-.529 1.075-1.212 1.977-2.051 2.706a3.768 3.768 0 0 1-.793.465 3.23 3.23 0 0 1-.355.082c-.091 0-.137-.027-.137-.082Zm-12.906-4.484a22.272 22.272 0 0 1-1.695 3.254 18.719 18.719 0 0 1-2.133 2.816 75.907 75.907 0 0 1 7.41 3.719c.419.237.629.52.629.847a2.408 2.408 0 0 1-.274.82c-.127.238-.3.356-.519.356-.201 0-.456-.1-.766-.3a61.338 61.338 0 0 0-7.765-4.184 15.934 15.934 0 0 1-4.211 2.516c-1.513.62-2.853 1.039-4.02 1.257-1.166.237-1.905.356-2.215.356-.218 0-.392-.028-.519-.082-.11-.055-.164-.128-.164-.219 0-.11.091-.228.273-.355.182-.11.438-.21.766-.301 1.859-.492 3.409-1.012 4.648-1.559 1.258-.565 2.507-1.358 3.746-2.379-.784-.328-1.941-.784-3.472-1.367a1.597 1.597 0 0 0-.41-.082 1.462 1.462 0 0 1-.493-.191c-.145-.11-.264-.283-.355-.52a1.34 1.34 0 0 1-.082-.41c0-.182.082-.42.246-.711.328-.51.866-1.45 1.613-2.816l-5.551.273-.546.027c-.456 0-.766-.082-.93-.246a4.363 4.363 0 0 1-.492-.601c-.146-.237-.219-.456-.219-.657 0-.127.046-.19.137-.19.054 0 .1.008.136.026.31.11.702.165 1.176.165h.301l6.809-.329c.346-.747.71-1.613 1.093-2.597.401-.985.602-1.723.602-2.215v-.274c0-.182.091-.273.273-.273.255 0 .593.155 1.012.465.437.31.656.601.656.875 0 .255-.556 1.558-1.668 3.91l5.223-.246c.255-.693.392-1.194.41-1.504v-.273c0-.183.091-.274.274-.274.273.018.619.192 1.039.52.419.31.619.601.601.875 0 .109-.064.3-.191.574l3.281-.164c.419-.018.893-.128 1.422-.328l.109-.028c.201 0 .502.183.903.547.401.365.601.638.601.82 0 .201-.191.32-.574.356l-6.125.3Zm-16.051-3.555c0-.091.027-.173.082-.246.419-.674.83-1.513 1.231-2.516a34.307 34.307 0 0 0 1.066-3.09c.091-.31.255-.464.492-.464.201 0 .438.064.711.191.292.128.438.292.438.492-.019.091-.046.237-.082.438a8.74 8.74 0 0 1-.137.574l7.738-.465-.027-.027c-1.568-1.24-2.698-2.096-3.391-2.57a1.282 1.282 0 0 1-.273-.247.398.398 0 0 1-.082-.246c0-.164.073-.346.219-.547.164-.218.309-.346.437-.382a.38.38 0 0 1 .164-.028c.128 0 .274.055.438.164l.492.301a84.41 84.41 0 0 1 2.461 1.586c.62.42.957.738 1.011.957.073.274-.082.602-.464.985l7.629-.465h.191c.364 0 .693.109.984.328.31.2.465.419.465.656 0 .146-.073.292-.219.438a2.053 2.053 0 0 0-.3.355c-.839 1.258-1.586 2.242-2.243 2.953-.656.711-1.112 1.067-1.367 1.067-.091 0-.137-.055-.137-.165 0-.218.128-.546.383-.984.602-1.112 1.067-2.115 1.395-3.008l-16.024.93c-.51 1.422-1.057 2.643-1.64 3.664-.146.219-.301.328-.465.328-.128 0-.356-.11-.684-.328-.328-.219-.492-.428-.492-.629Zm6.344 7.328c1.914.693 3.318 1.222 4.211 1.586.638-.674 1.258-1.485 1.859-2.433a20.168 20.168 0 0 0 1.504-2.817l-5.633.246c-.838 1.604-1.485 2.744-1.941 3.418ZM247.492 28.969c.255.218.383.574.383 1.066-.036.274-.155.401-.355.383-.237.018-.529-.128-.875-.438-.146-.164-.447-.419-.903-.765a11.275 11.275 0 0 0-1.176-.875c-.528.474-1.166.93-1.914 1.367-.729.438-1.312.656-1.75.656-.182 0-.273-.054-.273-.164 0-.036.21-.182.629-.437.492-.274.975-.593 1.449-.957.456-.347.829-.666 1.121-.957l-.629-.356c-.419-.273-.692-.437-.82-.492-.547-.346-.82-.565-.82-.656 0-.055.091-.082.273-.082.146-.018.483.09 1.012.328l1.531.71.41-.437c.055-.073.119-.146.192-.218.072-.073.145-.155.218-.247.274-.346.493-.638.657-.875.182-.255.282-.446.3-.574 0-.073-.063-.11-.191-.11-.182 0-.574.046-1.176.138l-.656.082c-.511.072-.939.154-1.285.246a1.93 1.93 0 0 0-.52.164.824.824 0 0 1-.246.027h-.246a.265.265 0 0 1-.137-.11 2.696 2.696 0 0 1-.164-.19c-.091-.147-.136-.265-.136-.356 0-.037.072-.128.218-.274l.52-.601c.127-.164.282-.42.465-.766.182-.364.282-.647.3-.847 0-.055.037-.082.11-.082.164 0 .355.09.574.273a.933.933 0 0 1 .219.246c.073.091.109.164.109.219 0 .073-.045.155-.137.246-.091.091-.3.364-.628.82l-.383.492 1.586-.273c.674-.055 1.175-.128 1.504-.219l.41-.055c.091-.018.2-.027.328-.027.127 0 .337.137.629.41a.86.86 0 0 1 .219.246.265.265 0 0 1 .082.192.492.492 0 0 1-.055.219l-.11.164c-.182.182-.446.52-.793 1.011-.291.42-.72.93-1.285 1.532l.684.328c.875.437 1.385.729 1.531.875Zm-2.707 10.746c0-.018.046-.082.137-.192.109-.127.228-.282.355-.464.219-.31.438-.766.657-1.368.218-.601.337-1.157.355-1.668 0-.036-.018-.073-.055-.109-.018-.055-.063-.082-.136-.082l-.629.055-.93.082c-.2.656-.547 1.367-1.039 2.133-.219.346-.52.656-.902.93a3.95 3.95 0 0 1-1.067.546 1.31 1.31 0 0 1-.41.055c-.128-.018-.191-.055-.191-.11 0-.073.063-.136.191-.191.219-.146.465-.374.738-.684.292-.31.547-.629.766-.957a5.71 5.71 0 0 0 .41-.71c.146-.31.264-.593.356-.848a9.815 9.815 0 0 0-1.805.41c-.037.036-.1.055-.191.055-.055 0-.137-.037-.247-.11a3.545 3.545 0 0 1-.3-.328c-.037-.091-.019-.173.054-.246l.11-.219c.073-.11.146-.328.218-.656.073-.328.11-.592.11-.793a.77.77 0 0 0-.028-.191c0-.091.01-.137.028-.137.036-.018.082-.018.137 0 .2.036.382.1.546.191a.782.782 0 0 1 .301.301c.073.091.073.173 0 .246a.895.895 0 0 0-.082.11.35.35 0 0 0-.082.164c-.018.018-.055.218-.109.601 0 .019.009.037.027.055a.117.117 0 0 0 .11 0c.054 0 .136-.01.246-.027.109-.019.191-.037.246-.055.127-.018.273-.046.437-.082a6.97 6.97 0 0 1 .492-.082c.055-.2.092-.42.11-.656.036-.256.064-.429.082-.52l.027-.574v-.192c-.583.019-1.194.073-1.832.164l-.492.083h-.109a.527.527 0 0 1-.274-.083 9.745 9.745 0 0 1-.246-.19c-.237-.22-.355-.384-.355-.493 0-.11.082-.146.246-.11.218.037.446.055.683.055l.793-.027 3.801-.274c.146-.018.283-.036.41-.054.128-.037.255-.064.383-.082h.082c.237 0 .401.045.492.136.11.073.173.119.192.137.291.237.437.42.437.547 0 .11-.155.155-.465.137l-.547-.055c-.474-.018-1.185 0-2.132.055l-.11 1.066a6.34 6.34 0 0 1-.055.438c-.018.109-.036.2-.054.273l-.028.082c.438-.036.948-.091 1.532-.164a.832.832 0 0 1 .191-.055c.091-.036.182-.063.274-.082h.054c.11 0 .219.046.328.137.11.091.174.146.192.164.146.128.246.237.301.328.072.073.082.137.027.192a1.457 1.457 0 0 1-.137.218.613.613 0 0 0-.082.192c-.091.765-.237 1.385-.437 1.86-.164.418-.347.737-.547.956-.183.2-.41.392-.684.574-.109.073-.282.137-.519.192-.237.036-.356.036-.356 0Zm7.957-12.086c.219 0 .328.1.328.3 0 .11-.1.265-.3.466-.547.674-1.632 1.96-3.254 3.855-.128.164-.246.246-.356.246-.091 0-.292-.137-.601-.41-.256-.219-.383-.401-.383-.547 0-.164.136-.319.41-.465.419-.237 1.048-.71 1.887-1.422.838-.747 1.458-1.34 1.859-1.777.164-.164.301-.246.41-.246ZM232.59 42.914c0 .438-.173.656-.52.656-.273 0-.574-.1-.902-.3-.328-.201-.492-.447-.492-.739 0-.11.009-.191.027-.246.128-.82.192-1.531.192-2.133l-.055-19.304c0-.383-.082-.748-.246-1.094a.676.676 0 0 1-.082-.3c0-.147.109-.22.328-.22.419 0 .802.082 1.148.246.347.165.52.338.52.52l.027 4.977 2.324-.137c.31-.018.684-.091 1.121-.219l.137-.027c.201 0 .483.136.848.41.383.273.574.52.574.738 0 .11-.046.2-.137.274a.662.662 0 0 1-.328.136l-4.539.246v3.336l2.106-.164c.401-.036.774-.1 1.121-.191a.38.38 0 0 1 .164-.027c.237 0 .519.145.847.437.347.273.52.529.52.766 0 .11-.046.2-.137.273a.649.649 0 0 1-.301.11l-4.32.218.027 3.719 3.09-.11c.438-.036.812-.109 1.121-.218a.386.386 0 0 1 .165-.027c.218 0 .492.154.82.464.346.31.519.584.519.82 0 .11-.036.201-.109.274a.407.407 0 0 1-.301.11l-5.305.136.028 6.59Zm-19.578-8.176c0-.09.082-.164.246-.218.401-.092.875-.283 1.422-.575.492-.237 1.112-.61 1.859-1.12.182-.11.374-.229.574-.356.201-.128.41-.255.629-.383l.028-4.895-1.942.192a8.963 8.963 0 0 1-1.066.082c-.274 0-.456-.046-.547-.137-.31-.31-.511-.574-.602-.793a3.552 3.552 0 0 1-.136-.383.368.368 0 0 1-.028-.164c0-.09.046-.136.137-.136l.109.027c.274.055.575.082.903.082.291 0 .519-.01.683-.027l2.489-.192.027-4.129c0-.291-.046-.547-.137-.765a3.024 3.024 0 0 0-.355-.739c-.055-.09-.082-.155-.082-.191 0-.146.118-.219.355-.219.219 0 .547.082.984.246.365.128.611.265.739.41a.668.668 0 0 1 .191.493l-.027 4.758.355-.028c.31-.018.666-.118 1.067-.3a.486.486 0 0 1 .218-.055c.183 0 .474.155.875.465.402.31.602.565.602.765 0 .237-.228.374-.684.41l-2.46.192-.028 4.02c.511-.329 1.276-.84 2.297-1.532.182-.128.355-.191.52-.191.164 0 .246.072.246.218 0 .31-1.021 1.304-3.063 2.98l-.055 7.93c0 .22.01.42.028.602.018.182.027.355.027.52 0 .346-.1.638-.301.875a1.608 1.608 0 0 1-.629.546c-.237.11-.419.164-.546.164-.347 0-.739-.227-1.176-.683-.037-.037-.438-.465-1.203-1.285-.766-.82-1.149-1.431-1.149-1.832 0-.11.046-.164.137-.164.164 0 .401.118.711.355.784.565 1.595 1.03 2.434 1.395l.027-7.11c-.328.255-.611.483-.848.684a8.43 8.43 0 0 1-1.148.902c-.492.328-.857.492-1.094.492-.164 0-.41-.1-.738-.3-.31-.2-.584-.447-.821-.739-.036-.036-.054-.09-.054-.164Zm7.984 1.614c0-.092.055-.146.164-.164.018-.019.055-.028.11-.028.51-.036 1.139-.182 1.886-.437.766-.256 1.905-.748 3.418-1.477.146-.857.237-1.85.274-2.98l-1.75.136-.903.055c-.583 0-1.039-.428-1.367-1.285a.385.385 0 0 1-.027-.164c0-.091.054-.137.164-.137.091 0 .164.01.219.027.346.092.674.137.984.137h.219l2.515-.137c.037-1.421.055-2.479.055-3.171l-1.914.136a7.436 7.436 0 0 1-.711.028c-.437 0-.766-.1-.984-.301-.219-.2-.41-.529-.575-.985l-.054-.164c0-.109.064-.164.191-.164l.219.055c.292.091.62.137.984.137h.219l2.598-.164c-.037-1.95-.082-3.2-.137-3.746-.036-.547-.128-.948-.273-1.204-.073-.182-.11-.291-.11-.328 0-.146.11-.218.328-.218.31 0 .684.082 1.121.246.438.146.657.337.657.574.036 2.588.054 4.402.054 5.441 0 2.662-.073 4.904-.218 6.727-.146 1.805-.401 3.263-.766 4.375a13.665 13.665 0 0 1-1.504 3.117c-.62.966-1.24 1.74-1.859 2.324-.62.602-1.067.903-1.34.903-.11 0-.164-.064-.164-.192 0-.2.146-.483.437-.847 1.677-2.115 2.744-4.357 3.199-6.727-1.057.675-1.932 1.176-2.625 1.504-.674.328-1.112.492-1.312.492-.237 0-.538-.173-.902-.52-.347-.364-.52-.656-.52-.874Z"/><path fill="red" d="M287.902 24.503a2.86 2.86 0 0 0-2.012-2.024C284.116 22 277 22 277 22s-7.116 0-8.891.479a2.857 2.857 0 0 0-2.011 2.024c-.476 1.787-.476 5.513-.476 5.513s0 3.727.476 5.513a2.814 2.814 0 0 0 2.011 1.992C269.884 38 277 38 277 38s7.116 0 8.89-.479a2.817 2.817 0 0 0 2.012-1.992c.476-1.786.476-5.513.476-5.513s0-3.726-.476-5.512ZM274.673 33.4v-6.767l5.947 3.383-5.947 3.384Z"/></svg>