<svg width="320" height="60" viewBox="0 0 320 60" fill="none" xmlns="http://www.w3.org/2000/svg">
<path d="M108.293 30.0898C108.038 30.0898 107.846 30.0078 107.719 29.8438C107.555 29.5339 107.217 29.1966 106.707 28.832L106.762 28.6953C107.327 28.9323 107.801 29.0508 108.184 29.0508C108.421 29.0508 108.621 28.9141 108.785 28.6406C108.967 28.349 109.159 27.9297 109.359 27.3828C109.596 26.7083 109.724 26.1432 109.742 25.6875C109.742 25.6328 109.715 25.5872 109.66 25.5508C109.605 25.4961 109.56 25.4688 109.523 25.4688C109.359 25.4505 109.049 25.4779 108.594 25.5508L108.02 25.6328C107.855 25.651 107.664 25.6875 107.445 25.7422C107.245 25.7969 107.081 25.8333 106.953 25.8516C106.88 25.8698 106.762 25.9062 106.598 25.9609C106.434 26.0156 106.315 26.043 106.242 26.043C106.151 26.043 106.042 25.9974 105.914 25.9062C105.805 25.7969 105.704 25.6784 105.613 25.5508C105.595 25.5326 105.586 25.4961 105.586 25.4414C105.586 25.3685 105.641 25.2773 105.75 25.168C105.878 25.0404 105.978 24.9401 106.051 24.8672C106.142 24.7578 106.233 24.6302 106.324 24.4844C106.415 24.3203 106.488 24.2018 106.543 24.1289C106.634 23.9831 106.707 23.8099 106.762 23.6094L106.816 23.3633C106.816 23.3451 106.807 23.2995 106.789 23.2266C106.771 23.1354 106.734 23.0898 106.68 23.0898C105.951 23.181 105.413 23.2904 105.066 23.418C104.993 23.4544 104.884 23.4909 104.738 23.5273C104.611 23.5273 104.501 23.4727 104.41 23.3633C104.355 23.3451 104.246 23.1992 104.082 22.9258C104.009 22.8529 103.973 22.7891 103.973 22.7344C103.973 22.6068 104.164 22.5339 104.547 22.5156L105.066 22.4609C105.158 22.4609 105.349 22.4427 105.641 22.4062C106.224 22.3516 107.035 22.2878 108.074 22.2148C108.439 22.1966 109.068 22.151 109.961 22.0781C110.216 22.0599 110.526 22.0234 110.891 21.9688C111.091 21.9141 111.219 21.8867 111.273 21.8867C111.365 21.8867 111.456 21.9232 111.547 21.9961C111.638 22.0326 111.757 22.1055 111.902 22.2148C112.048 22.306 112.158 22.4062 112.23 22.5156C112.303 22.6068 112.34 22.6979 112.34 22.7891C112.34 22.8802 112.294 22.944 112.203 22.9805C112.112 23.0169 111.993 23.0169 111.848 22.9805C111.629 22.9258 111.374 22.8893 111.082 22.8711C110.809 22.8529 110.645 22.8438 110.59 22.8438C109.97 22.8255 109.195 22.8529 108.266 22.9258C108.01 22.9622 107.819 22.9805 107.691 22.9805C107.801 23.0716 107.901 23.2174 107.992 23.418V23.4727C107.992 23.5273 107.965 23.6003 107.91 23.6914C107.855 23.7826 107.792 23.8464 107.719 23.8828C107.628 23.9375 107.518 24.0651 107.391 24.2656C107.263 24.4661 107.181 24.5938 107.145 24.6484C107.035 24.7943 106.98 24.9128 106.98 25.0039C106.98 25.0768 107.053 25.1042 107.199 25.0859C107.327 25.0677 107.591 25.0312 107.992 24.9766C108.411 24.9036 108.721 24.8398 108.922 24.7852C108.977 24.7669 109.059 24.7487 109.168 24.7305C109.296 24.7122 109.441 24.6758 109.605 24.6211C109.733 24.6029 109.861 24.6302 109.988 24.7031C110.134 24.776 110.353 24.931 110.645 25.168C110.863 25.332 110.973 25.4779 110.973 25.6055C110.973 25.6966 110.936 25.7878 110.863 25.8789C110.79 26.0065 110.736 26.1797 110.699 26.3984C110.535 27.1641 110.344 27.7839 110.125 28.2578C109.961 28.5859 109.806 28.8594 109.66 29.0781C109.514 29.2786 109.332 29.4792 109.113 29.6797C108.876 29.9531 108.603 30.0898 108.293 30.0898ZM108.484 39.6328C107.609 39.6328 106.88 39.4141 106.297 38.9766C105.695 38.4844 105.395 37.9102 105.395 37.2539C105.395 36.7435 105.586 36.2969 105.969 35.9141C106.461 35.4948 107.081 35.2852 107.828 35.2852C107.865 35.2852 107.892 35.2487 107.91 35.1758C107.947 35.0846 107.965 34.9661 107.965 34.8203L107.992 34.1094C107.865 34.1276 107.618 34.1549 107.254 34.1914C106.908 34.2279 106.652 34.2643 106.488 34.3008C106.579 34.2826 106.297 34.3464 105.641 34.4922C105.586 34.5104 105.486 34.5195 105.34 34.5195C104.993 34.5195 104.702 34.3646 104.465 34.0547C104.355 33.9453 104.301 33.8542 104.301 33.7812C104.301 33.6719 104.465 33.6172 104.793 33.6172L105.641 33.5625L107.965 33.2617V32.9336V32.25C107.947 32.1771 107.938 32.0951 107.938 32.0039C107.938 31.9128 107.928 31.8398 107.91 31.7852C107.874 31.6393 107.855 31.5482 107.855 31.5117C107.855 31.3841 107.919 31.3203 108.047 31.3203C108.211 31.3203 108.493 31.4388 108.895 31.6758C109.022 31.7487 109.086 31.849 109.086 31.9766C109.086 32.0677 109.068 32.1497 109.031 32.2227C109.013 32.2773 109.004 32.3411 109.004 32.4141V33.1797L109.824 33.0977L110.836 32.9883C110.927 32.9701 111.027 32.9427 111.137 32.9062C111.264 32.8698 111.365 32.8516 111.438 32.8516C111.547 32.8516 111.684 32.9062 111.848 33.0156C112.158 33.2161 112.312 33.3893 112.312 33.5352C112.312 33.681 112.158 33.7539 111.848 33.7539C111.757 33.7539 111.629 33.7721 111.465 33.8086C111.301 33.8268 111.091 33.8451 110.836 33.8633L109.004 34L108.977 35.668C108.94 35.9414 108.74 36.1146 108.375 36.1875H108.32C108.211 36.1875 108.102 36.1784 107.992 36.1602C107.901 36.1237 107.828 36.1055 107.773 36.1055C107.628 36.1055 107.482 36.1146 107.336 36.1328C107.19 36.151 107.062 36.2057 106.953 36.2969C106.643 36.5703 106.488 36.8893 106.488 37.2539C106.488 37.6185 106.661 37.9466 107.008 38.2383C107.318 38.5299 107.81 38.6758 108.484 38.6758C109.378 38.6393 110.107 38.3932 110.672 37.9375C110.909 37.7734 111.091 37.6914 111.219 37.6914C111.292 37.6914 111.383 37.7096 111.492 37.7461C111.51 37.7643 111.547 37.8008 111.602 37.8555C111.656 37.9102 111.684 37.9648 111.684 38.0195C111.684 38.5299 111.255 38.9492 110.398 39.2773C109.76 39.5143 109.122 39.6328 108.484 39.6328ZM113.242 29.2695C113.333 29.2695 113.47 29.3333 113.652 29.4609C113.634 29.4974 113.671 29.5703 113.762 29.6797C113.853 29.7708 113.917 29.8346 113.953 29.8711C114.044 29.9622 114.135 30.0716 114.227 30.1992C114.336 30.3268 114.454 30.4635 114.582 30.6094C114.91 30.9557 115.667 31.8581 116.852 33.3164C117.052 33.6081 117.152 33.7812 117.152 33.8359C117.152 34.0182 117.043 34.1094 116.824 34.1094C116.697 34.1094 116.56 34.0182 116.414 33.8359C116.068 33.4714 115.448 32.8971 114.555 32.1133C113.862 31.4753 113.233 30.9831 112.668 30.6367C112.395 30.5091 112.258 30.3633 112.258 30.1992C112.258 30.0716 112.395 29.8893 112.668 29.6523C112.923 29.3971 113.115 29.2695 113.242 29.2695ZM93.8008 33.125L93.6641 40.0977L93.6367 41L93.5547 41.6289C93.5365 41.7565 93.4909 41.9206 93.418 42.1211L93.1719 42.6133C93.0807 42.7409 92.9987 42.8503 92.9258 42.9414L92.707 43.0781C92.5794 43.0781 92.4518 42.9779 92.3242 42.7773C92.2513 42.668 92.1602 42.4492 92.0508 42.1211C91.9232 41.793 91.832 41.5195 91.7773 41.3008C91.7591 41.1732 91.75 41.0091 91.75 40.8086C91.75 40.5534 91.7956 40.2161 91.8867 39.7969C91.9961 39.3776 92.069 39.0768 92.1055 38.8945C92.1419 38.694 92.1966 38.2747 92.2695 37.6367L92.4336 36.2148L92.4609 35.1758L92.5156 34.4102C91.7682 35.3398 91.1667 36.0417 90.7109 36.5156C90.2552 36.9896 89.681 37.4909 88.9883 38.0195C88.2956 38.5299 87.7214 38.8763 87.2656 39.0586L86.582 39.2773L85.707 39.4961C85.6888 39.3867 85.7435 39.2865 85.8711 39.1953L86.3086 38.8945C86.418 38.8216 86.6185 38.6758 86.9102 38.457L88.4961 37.0352C88.9336 36.6159 89.5078 35.9505 90.2188 35.0391C90.9297 34.1458 91.431 33.4076 91.7227 32.8242L92.2148 31.9766L90.0273 32.4414C89.8268 32.4779 89.5716 32.5417 89.2617 32.6328C88.9518 32.724 88.724 32.7695 88.5781 32.7695C88.3411 32.7695 88.0404 32.6784 87.6758 32.4961L87.3203 32.3594C87.0286 32.2318 86.819 32.1042 86.6914 31.9766L86.5547 31.7305C86.5911 31.5846 86.7096 31.5117 86.9102 31.5117L87.8398 31.457L88.9883 31.3477C89.4076 31.3112 89.8997 31.2565 90.4648 31.1836L92.6797 30.8828L92.7617 28.7773L90.3008 29.0234L90.082 29.2148L89.6719 29.2969C89.526 29.1693 89.4076 28.9779 89.3164 28.7227C89.2435 28.4674 89.1888 28.1393 89.1523 27.7383L88.7148 24.1289C88.6784 23.8737 88.6419 23.6549 88.6055 23.4727C88.5508 23.2904 88.4779 23.0716 88.3867 22.8164L88.1953 22.3516L87.8125 21.668C87.8854 21.5586 88.0404 21.513 88.2773 21.5312L88.9336 21.6406L89.6445 21.832L92.8711 21.3945C93.418 21.3398 94.056 21.2487 94.7852 21.1211L96.3711 20.8477C96.6992 20.7747 96.9909 20.6927 97.2461 20.6016L97.6562 20.4648C97.8203 20.4648 98.0755 20.5195 98.4219 20.6289C98.7682 20.7383 99.0143 20.8385 99.1602 20.9297C99.306 21.0026 99.5065 21.1393 99.7617 21.3398L100.145 21.8047V22.1055L99.8711 22.4883C99.6888 22.7253 99.5521 22.9622 99.4609 23.1992C99.3698 23.4544 99.2878 23.7096 99.2148 23.9648L98.1484 27.6289C98.0026 28.1211 97.8841 28.4492 97.793 28.6133C97.6836 28.7956 97.556 28.9232 97.4102 28.9961L96.9453 29.0508L96.6992 28.9141L96.5625 28.3672L93.9648 28.6406L93.8555 30.8281L95.3867 30.6914L96.5352 30.582L97.8203 30.418C98.1667 30.3815 98.513 30.3268 98.8594 30.2539C99.2057 30.1628 99.4518 30.1172 99.5977 30.1172C99.7799 30.1354 99.9987 30.1992 100.254 30.3086C100.509 30.418 100.746 30.5365 100.965 30.6641C101.184 30.7917 101.384 30.9466 101.566 31.1289L101.812 31.4844C101.794 31.6484 101.712 31.7487 101.566 31.7852C101.421 31.8216 101.238 31.8398 101.02 31.8398L100.309 31.7852C100.163 31.7852 99.6615 31.7669 98.8047 31.7305C97.9479 31.694 97.3372 31.6758 96.9727 31.6758C96.6081 31.6758 96.125 31.7031 95.5234 31.7578L94.5664 31.8398L93.8281 31.9492C94.0469 32.2409 94.2109 32.4414 94.3203 32.5508L95.332 33.7266L96.6992 35.2031C97.1914 35.6953 97.6654 36.1146 98.1211 36.4609C98.5951 36.8073 99.1055 37.1081 99.6523 37.3633C100.199 37.6549 100.637 37.8646 100.965 37.9922C101.311 38.1198 101.603 38.2201 101.84 38.293L102.305 38.457L102.605 38.6484C102.605 38.7943 102.533 38.8945 102.387 38.9492L101.703 39.1406C101.466 39.1953 101.056 39.2682 100.473 39.3594C99.9805 39.4505 99.5521 39.4961 99.1875 39.4961C98.8411 39.4961 98.5859 39.4596 98.4219 39.3867C98.2578 39.3138 98.0755 39.1953 97.875 39.0312C97.6927 38.849 97.474 38.5846 97.2188 38.2383C96.9453 37.8919 96.6081 37.4089 96.207 36.7891L94.8672 34.793L94.0469 33.5078L93.8008 33.125ZM90.1367 25.168L92.707 24.8398L92.6523 24.0195L92.5977 23.582L92.5156 22.9805L92.2695 22.1602L89.8086 22.5156L90.1367 25.168ZM92.7617 25.7148C92.1602 25.7878 91.6862 25.8424 91.3398 25.8789C91.1029 25.8971 90.8932 25.9062 90.7109 25.9062L90.1914 25.8789L90.3555 28.0664L92.7617 27.9023V25.7148ZM94.3203 24.6484L95.2773 24.457C95.7513 24.3659 96.043 24.3112 96.1523 24.293L96.8633 24.4023L97.3828 24.457L97.5742 23.1445C97.6289 22.8529 97.6562 22.5977 97.6562 22.3789L97.6016 21.9961C97.5469 21.8685 97.4466 21.7773 97.3008 21.7227C97.1914 21.6862 97.0182 21.668 96.7812 21.668L93.6367 22.0234C93.9831 22.224 94.2383 22.3971 94.4023 22.543L94.6758 22.9531C94.694 23.0625 94.6576 23.2083 94.5664 23.3906C94.4935 23.6276 94.4388 23.8828 94.4023 24.1562L94.3203 24.6484ZM94.0742 27.6289C94.5299 27.5924 95.0039 27.5378 95.4961 27.4648C95.8971 27.3919 96.1706 27.3555 96.3164 27.3555L96.8086 27.3828L96.9727 26.6992L97.2461 25.25L94.1836 25.6055L94.0742 27.6289ZM83.957 24.5664C83.793 24.457 83.6654 24.3477 83.5742 24.2383C83.4648 24.1289 83.3646 24.0104 83.2734 23.8828C83.1823 23.737 83.0638 23.5273 82.918 23.2539L82.5352 22.4336C82.4258 22.1602 82.2799 21.8138 82.0977 21.3945L81.9062 20.9297L81.9336 20.7109L82.2891 20.6289L82.7539 20.793C82.9727 20.9023 83.1732 21.0117 83.3555 21.1211C83.5378 21.2122 83.7201 21.3216 83.9023 21.4492C84.0846 21.5586 84.2487 21.6953 84.3945 21.8594C84.5404 22.0052 84.668 22.1602 84.7773 22.3242C84.8867 22.4701 84.9505 22.6523 84.9688 22.8711L84.9961 23.1172L84.9688 23.3906C84.9505 23.5547 84.9049 23.7096 84.832 23.8555C84.7956 24.0013 84.7135 24.1654 84.5859 24.3477L85.6523 24.2383C86.0169 24.1654 86.2721 24.1289 86.418 24.1289C86.5638 24.1289 86.7461 24.1654 86.9648 24.2383C87.2201 24.3112 87.4388 24.4023 87.6211 24.5117C87.8034 24.6211 87.8854 24.7852 87.8672 25.0039C87.8125 25.1133 87.7122 25.168 87.5664 25.168C87.457 25.2044 87.2747 25.2318 87.0195 25.25C86.7643 25.2865 86.418 25.332 85.9805 25.3867C85.5794 25.4596 85.1966 25.5234 84.832 25.5781L82.918 25.9609C82.5898 26.0156 82.2253 26.0977 81.8242 26.207C81.4232 26.3164 81.0677 26.4076 80.7578 26.4805C80.4479 26.5534 80.1836 26.6445 79.9648 26.7539L79.5547 26.918C79.3906 26.918 79.2357 26.8997 79.0898 26.8633C78.944 26.8268 78.7799 26.7721 78.5977 26.6992L78.1328 26.5078C78.0052 26.4531 77.8503 26.362 77.668 26.2344L77.3945 25.9883L77.4219 25.6875L77.8047 25.5781L78.5156 25.4961C78.9167 25.4596 79.7188 25.332 80.9219 25.1133L83.957 24.5664ZM80.9492 28.7227L81.3867 28.6406C81.569 28.6224 81.8151 28.5677 82.125 28.4766C82.4531 28.3854 82.7721 28.3034 83.082 28.2305C83.4102 28.1393 83.6836 28.0482 83.9023 27.957L84.2852 27.8477L84.6953 27.8203C84.8229 27.8385 85.0143 27.875 85.2695 27.9297C85.5247 27.9844 85.7161 28.0482 85.8438 28.1211L86.0352 28.2852L85.9531 28.5039L85.707 28.668L84.7773 28.8867L82.5898 29.3789L82.2344 29.4883L81.9883 29.543C81.8607 29.543 81.7148 29.5339 81.5508 29.5156L81.0312 29.4062C80.7943 29.2969 80.6302 29.0964 80.5391 28.8047L80.9492 28.7227ZM81.0039 31.4297L81.4141 31.3477L82.0156 31.2383L83.0547 31.0195L83.875 30.7461C84.0573 30.7096 84.2396 30.6823 84.4219 30.6641C84.5677 30.6641 84.7044 30.6732 84.832 30.6914C85.0508 30.7096 85.2331 30.7461 85.3789 30.8008C85.5247 30.8555 85.6706 30.9193 85.8164 30.9922L86.0078 31.1562L85.9805 31.375C85.9076 31.4661 85.7982 31.5117 85.6523 31.5117L84.3398 31.7852L82.9727 32.0586L82.0977 32.2773L81.4688 32.25C81.3047 32.2135 81.1315 32.168 80.9492 32.1133C80.7669 32.0404 80.6393 31.8398 80.5664 31.5117C80.7852 31.4753 80.931 31.4479 81.0039 31.4297ZM80.8945 34.6289L82.4258 34.3008C82.6081 34.2643 82.7812 34.2188 82.9453 34.1641L83.6836 33.918C84.0117 33.8086 84.2578 33.6992 84.4219 33.5898L84.75 33.4258C84.8776 33.4258 85.0326 33.4622 85.2148 33.5352C85.3971 33.6081 85.6068 33.6992 85.8438 33.8086C86.0807 33.918 86.2904 34.0365 86.4727 34.1641C86.6367 34.2734 86.6823 34.4557 86.6094 34.7109C86.4453 34.9115 86.3177 35.0938 86.2266 35.2578C86.1354 35.4219 86.0534 35.5859 85.9805 35.75C85.9076 35.9141 85.8346 36.1055 85.7617 36.3242L85.2148 37.9102L85.543 38.1289L85.6523 38.5938C85.5247 38.612 85.3971 38.6302 85.2695 38.6484C85.1237 38.6484 84.9688 38.6576 84.8047 38.6758L84.4766 38.7031C84.349 38.7214 84.0299 38.7669 83.5195 38.8398L81.8789 39.2227C81.7695 39.4596 81.5781 39.5599 81.3047 39.5234C81.1224 39.3594 81.0039 39.2044 80.9492 39.0586C80.8763 38.8945 80.8398 38.7396 80.8398 38.5938L80.4844 36.6523C80.4297 36.3971 80.3659 36.1602 80.293 35.9414C80.2383 35.7227 80.1745 35.5404 80.1016 35.3945C80.0104 35.2669 79.9102 35.1576 79.8008 35.0664L79.5273 34.6836C79.5638 34.556 79.6823 34.474 79.8828 34.4375L80.3477 34.5195L80.8945 34.6289ZM81.9336 38.1562L84.1211 37.6914L84.5039 35.3672L84.5312 35.0664L84.3945 34.793C84.2305 34.7747 84.0117 34.793 83.7383 34.8477L81.5508 35.2852L81.9336 38.1562Z" fill="#333333"/>
<path d="M152.152 26.6719C151.879 26.6719 151.642 26.5716 151.441 26.3711C150.84 25.7148 150.229 25.1224 149.609 24.5938C148.917 24.0104 148.306 23.5729 147.777 23.2812C147.522 23.1354 147.395 22.9076 147.395 22.5977C147.395 22.543 147.458 22.4701 147.586 22.3789C147.75 22.2695 148.014 22.0326 148.379 21.668L149.363 20.7109C149.801 20.2552 150.165 19.8451 150.457 19.4805C150.767 19.1159 150.94 18.8607 150.977 18.7148C150.995 18.6784 151.013 18.6055 151.031 18.4961C151.068 18.3685 151.122 18.3047 151.195 18.3047C151.286 18.3047 151.405 18.3503 151.551 18.4414C151.715 18.5326 151.852 18.6237 151.961 18.7148C152.234 18.9701 152.371 19.1888 152.371 19.3711C152.353 19.4258 152.28 19.4896 152.152 19.5625C152.043 19.6172 151.943 19.6719 151.852 19.7266C151.76 19.7995 151.432 20.0911 150.867 20.6016L149.09 22.1328C148.78 22.388 148.625 22.5885 148.625 22.7344C148.625 22.8073 148.771 22.9258 149.062 23.0898C149.409 23.3086 150.083 23.7552 151.086 24.4297C151.469 24.6849 151.833 24.9674 152.18 25.2773C152.471 25.569 152.617 25.8698 152.617 26.1797C152.617 26.3255 152.553 26.4531 152.426 26.5625C152.353 26.6354 152.262 26.6719 152.152 26.6719ZM147.285 31.2383C147.085 31.2383 146.839 31.0833 146.547 30.7734C146.328 30.5547 146.219 30.3906 146.219 30.2812C146.219 30.2266 146.255 30.1992 146.328 30.1992C146.401 30.181 146.492 30.1719 146.602 30.1719L147.203 30.1445C147.549 30.1445 147.777 30.1354 147.887 30.1172C148.233 30.1172 148.525 30.1081 148.762 30.0898C150.329 29.944 151.387 29.8255 151.934 29.7344C152.207 29.6979 152.453 29.6615 152.672 29.625C152.891 29.5703 153.064 29.543 153.191 29.543C153.447 29.543 153.702 29.6706 153.957 29.9258C154.158 30.1263 154.258 30.2904 154.258 30.418C154.258 30.5273 154.194 30.6003 154.066 30.6367C153.975 30.6549 153.438 30.6914 152.453 30.7461C151.906 30.7643 151.232 30.8099 150.43 30.8828C149.628 30.9557 148.926 31.0286 148.324 31.1016C148.215 31.1198 148.06 31.1471 147.859 31.1836C147.659 31.2201 147.467 31.2383 147.285 31.2383ZM151.359 37.3359C151.177 37.5729 150.986 37.6914 150.785 37.6914C150.73 37.6914 150.703 37.6458 150.703 37.5547C150.703 37.4271 150.74 37.2812 150.812 37.1172C150.812 37.1172 150.995 36.7526 151.359 36.0234C151.378 35.9505 151.405 35.8776 151.441 35.8047C151.478 35.7318 151.505 35.668 151.523 35.6133V35.5859C151.523 35.5495 151.496 35.513 151.441 35.4766C151.387 35.4401 151.323 35.431 151.25 35.4492C150.958 35.4674 150.521 35.513 149.938 35.5859C149.372 35.6589 148.953 35.7318 148.68 35.8047C148.57 35.8411 148.434 35.8867 148.27 35.9414C148.124 35.9961 148.005 36.0234 147.914 36.0234C147.586 36.0234 147.312 35.9232 147.094 35.7227C146.911 35.5951 146.775 35.4674 146.684 35.3398L146.629 35.2031C146.629 35.112 146.784 35.0846 147.094 35.1211C147.513 35.1576 148.379 35.1029 149.691 34.957L150.238 34.875C150.384 34.8568 150.612 34.8294 150.922 34.793C151.25 34.7383 151.505 34.6836 151.688 34.6289C151.742 34.6107 151.797 34.5924 151.852 34.5742C151.924 34.5378 151.988 34.5195 152.043 34.5195C152.134 34.5195 152.243 34.5651 152.371 34.6562C152.517 34.7474 152.635 34.8294 152.727 34.9023C152.854 34.9935 152.936 35.0755 152.973 35.1484C153.027 35.2031 153.046 35.276 153.027 35.3672C153.027 35.4583 152.982 35.5404 152.891 35.6133C152.799 35.6862 152.736 35.7409 152.699 35.7773C152.663 35.832 152.535 35.9688 152.316 36.1875C152.225 36.3333 152.061 36.5339 151.824 36.7891C151.605 37.0443 151.451 37.2266 151.359 37.3359ZM149.992 42.7227C149.992 42.668 150.083 42.5221 150.266 42.2852C150.466 42.0664 150.621 41.8932 150.73 41.7656C151.004 41.401 151.332 40.8724 151.715 40.1797C152.116 39.487 152.344 39.0312 152.398 38.8125C152.435 38.7031 152.38 38.6484 152.234 38.6484C151.943 38.6484 151.141 38.7305 149.828 38.8945C148.971 39.0039 148.333 39.1133 147.914 39.2227C147.823 39.2773 147.732 39.3047 147.641 39.3047C147.495 39.3047 147.34 39.2044 147.176 39.0039C147.103 38.8763 147.066 38.7578 147.066 38.6484C147.066 38.5755 147.112 38.5026 147.203 38.4297L147.285 38.3203C147.34 38.2109 147.404 38.0651 147.477 37.8828C147.549 37.7005 147.613 37.5273 147.668 37.3633C147.759 37.0716 147.823 36.7526 147.859 36.4062C147.878 36.2057 147.987 36.151 148.188 36.2422C148.443 36.3698 148.634 36.4974 148.762 36.625C148.908 36.7344 148.953 36.8164 148.898 36.8711C148.716 37.0898 148.57 37.3359 148.461 37.6094C148.37 37.901 148.315 38.0924 148.297 38.1836C148.297 38.2565 148.342 38.293 148.434 38.293C148.707 38.293 149.117 38.2474 149.664 38.1562C149.974 38.1198 150.357 38.0742 150.812 38.0195C151.268 37.9648 151.633 37.9102 151.906 37.8555L152.59 37.7188C152.645 37.7005 152.717 37.6914 152.809 37.6914C152.9 37.6914 152.991 37.7279 153.082 37.8008C153.173 37.8555 153.273 37.9284 153.383 38.0195C153.565 38.1836 153.684 38.3203 153.738 38.4297C153.793 38.5208 153.82 38.6302 153.82 38.7578C153.82 38.8307 153.766 38.9219 153.656 39.0312C153.565 39.1406 153.456 39.3138 153.328 39.5508C152.799 40.6263 152.116 41.5286 151.277 42.2578C151.04 42.4401 150.776 42.5951 150.484 42.7227C150.357 42.7591 150.238 42.7773 150.129 42.7773C150.038 42.7956 149.992 42.7773 149.992 42.7227ZM158.742 30.0898C158.961 30.0898 159.07 30.1901 159.07 30.3906C159.07 30.5 158.97 30.6549 158.77 30.8555C158.223 31.5299 157.138 32.8151 155.516 34.7109C155.388 34.875 155.27 34.957 155.16 34.957C155.069 34.957 154.868 34.8203 154.559 34.5469C154.303 34.3281 154.176 34.1458 154.176 34C154.176 33.8359 154.312 33.681 154.586 33.5352C155.005 33.2982 155.634 32.8242 156.473 32.1133C157.311 31.3659 157.931 30.7734 158.332 30.3359C158.496 30.1719 158.633 30.0898 158.742 30.0898ZM139.93 25.4961C138.07 25.4596 136.703 25.4414 135.828 25.4414C134.953 25.4414 134.051 25.4779 133.121 25.5508C132.191 25.6237 130.943 25.7331 129.375 25.8789L127.57 26.043C127.352 26.0612 126.75 26.1523 125.766 26.3164C124.836 26.4805 124.143 26.6172 123.688 26.7266C123.214 26.8359 122.858 26.8906 122.621 26.8906C122.402 26.8906 122.184 26.8633 121.965 26.8086C121.691 26.7357 121.418 26.6263 121.145 26.4805C120.871 26.3346 120.661 26.1979 120.516 26.0703L120.297 25.7969L120.352 25.5234C120.461 25.4688 120.57 25.4323 120.68 25.4141L121.637 25.3594L122.812 25.332C123.542 25.332 124.471 25.2682 125.602 25.1406L130.688 24.6211L135.992 24.2109C136.831 24.138 137.615 24.056 138.344 23.9648C139.073 23.8737 139.638 23.7826 140.039 23.6914C140.422 23.6185 140.695 23.5729 140.859 23.5547C141.078 23.5547 141.315 23.6003 141.57 23.6914C141.862 23.7643 142.154 23.8828 142.445 24.0469C142.737 24.1927 143.029 24.3477 143.32 24.5117C143.576 24.694 143.703 24.849 143.703 24.9766C143.703 25.1042 143.63 25.2227 143.484 25.332C143.339 25.4414 142.91 25.4961 142.199 25.4961H139.93ZM125.492 28.8594L127.57 28.4492C127.771 28.4128 128.026 28.349 128.336 28.2578C128.646 28.1667 128.938 28.0664 129.211 27.957L129.676 27.793C129.803 27.8112 129.977 27.8568 130.195 27.9297C130.359 28.0208 130.56 28.1393 130.797 28.2852L131.344 28.7773L131.562 29.1328C131.562 29.2604 131.508 29.4336 131.398 29.6523C131.234 29.8893 131.143 30.1445 131.125 30.418C131.052 30.6732 130.997 31.0195 130.961 31.457C130.924 31.8763 130.906 32.25 130.906 32.5781V33.8633L130.961 38.2383C130.961 39.0039 130.852 39.6784 130.633 40.2617C130.414 40.8451 130.195 41.2279 129.977 41.4102L129.539 41.6562C129.411 41.638 129.302 41.5924 129.211 41.5195L128.883 41.082C128.737 40.8815 128.518 40.6081 128.227 40.2617C127.898 39.9336 127.625 39.6602 127.406 39.4414L127.078 39.0859L127.105 38.7305L127.734 38.8945L128.391 39.1406L128.883 39.25C129.047 39.1953 129.174 39.0768 129.266 38.8945C129.339 38.7122 129.393 38.3659 129.43 37.8555L129.539 35.3672L127.078 35.7773C126.714 35.8503 126.349 35.8867 125.984 35.8867C125.656 35.8867 125.438 35.8411 125.328 35.75L124.945 35.5312L124.617 36.6797C124.471 37.0625 124.289 37.4727 124.07 37.9102C123.815 38.3659 123.505 38.8216 123.141 39.2773C122.794 39.7331 122.521 40.0521 122.32 40.2344L121.992 40.4805L121.637 40.3984L121.883 39.9609L122.156 39.332C122.375 38.931 122.594 38.457 122.812 37.9102C123.031 37.3451 123.195 36.8164 123.305 36.3242C123.451 35.8138 123.542 35.3216 123.578 34.8477C123.651 34.3737 123.724 33.7812 123.797 33.0703C123.852 32.3594 123.888 31.8034 123.906 31.4023V30.3086C123.833 29.944 123.76 29.6706 123.688 29.4883C123.651 29.306 123.578 29.1328 123.469 28.9688L123.387 28.5312C123.478 28.4036 123.605 28.3398 123.77 28.3398C123.915 28.3398 124.125 28.3854 124.398 28.4766L125.492 28.8594ZM125 35.2305C125.438 35.1758 125.766 35.1211 125.984 35.0664L127.516 34.6289C127.844 34.5378 128.099 34.4922 128.281 34.4922C128.409 34.5104 128.628 34.556 128.938 34.6289L129.539 34.793V32.5508L127.297 32.9336L126.695 33.043L126.258 33.0977L125.82 33.043L125.383 32.9883L125.219 33.9453L125 35.2305ZM125.328 32.3867C125.474 32.3685 125.656 32.332 125.875 32.2773C126.13 32.2227 126.477 32.1315 126.914 32.0039L127.789 31.7852C127.935 31.7487 128.099 31.7305 128.281 31.7305C128.573 31.7305 128.792 31.7669 128.938 31.8398L129.484 32.1133L129.539 29.8984C129.539 29.6432 129.503 29.4518 129.43 29.3242C129.32 29.2148 129.129 29.1419 128.855 29.1055C128.71 29.1055 128.536 29.1146 128.336 29.1328L127.789 29.2148L125.547 29.5977C125.474 30.4909 125.438 31.0469 125.438 31.2656L125.328 32.3867ZM126.805 20.0273L127.516 20.2734C128.099 20.4557 128.536 20.6107 128.828 20.7383C129.102 20.8841 129.339 21.0482 129.539 21.2305C129.721 21.4128 129.867 21.6315 129.977 21.8867C130.086 22.1784 130.141 22.5339 130.141 22.9531C130.141 23.2448 130.086 23.4727 129.977 23.6367C129.904 23.7826 129.73 23.901 129.457 23.9922H129.211C129.065 23.9375 128.901 23.8372 128.719 23.6914C128.518 23.5638 128.336 23.4089 128.172 23.2266L127.734 22.625C127.589 22.4245 127.333 22.0508 126.969 21.5039C126.641 20.957 126.44 20.6107 126.367 20.4648L126.449 20.0273C126.577 20.0091 126.695 20.0091 126.805 20.0273ZM132.82 23.582L133.148 23.0352L133.695 21.8047C133.951 21.2943 134.133 20.8932 134.242 20.6016C134.352 20.2917 134.434 20.0273 134.488 19.8086C134.543 19.5898 134.579 19.3893 134.598 19.207L134.652 18.9062C134.743 18.8151 134.862 18.7695 135.008 18.7695C135.245 18.7878 135.536 18.8607 135.883 18.9883C136.211 19.0977 136.484 19.2253 136.703 19.3711C136.885 19.5352 137.031 19.6992 137.141 19.8633L137.277 20.2734L136.977 20.4648C136.794 20.556 136.63 20.6562 136.484 20.7656L135.719 21.5586C135.354 21.9596 134.971 22.3242 134.57 22.6523C134.169 22.9805 133.859 23.2266 133.641 23.3906L133.203 23.7461L132.711 23.8281L132.82 23.582ZM137.414 35.6953L137.469 30.9648L137.359 29.3242C137.323 28.8138 137.286 28.4766 137.25 28.3125C137.214 28.1302 137.122 27.9206 136.977 27.6836C136.867 27.4648 136.812 27.2917 136.812 27.1641C136.812 27.0365 136.904 26.918 137.086 26.8086C137.268 26.7904 137.451 26.8086 137.633 26.8633L138.398 27.0273C138.617 27.1003 138.818 27.1914 139 27.3008L139.273 27.6562C139.292 27.8021 139.255 27.9753 139.164 28.1758C139.055 28.3945 138.973 28.7044 138.918 29.1055C138.863 29.5065 138.836 29.944 138.836 30.418L138.891 38.1562C138.891 38.9036 138.863 39.4961 138.809 39.9336C138.754 40.3711 138.672 40.7904 138.562 41.1914C138.453 41.556 138.289 41.8841 138.07 42.1758C137.87 42.4674 137.669 42.6497 137.469 42.7227L137.086 42.832C136.867 42.832 136.685 42.7591 136.539 42.6133C136.411 42.4857 136.229 42.2305 135.992 41.8477C135.737 41.4648 135.5 41.1549 135.281 40.918L134.734 40.3711L134.488 39.8516H134.68L135.172 39.9883L135.773 40.2344C136.047 40.3255 136.32 40.362 136.594 40.3438C136.812 40.2344 136.977 39.9883 137.086 39.6055C137.195 39.2044 137.25 38.8034 137.25 38.4023L137.414 35.6953ZM134.953 31.1562L134.789 33.7266C134.789 34.1458 134.807 34.556 134.844 34.957L134.898 35.5859C134.862 35.8411 134.807 36.069 134.734 36.2695C134.661 36.4701 134.57 36.6523 134.461 36.8164L134.051 37.0078L133.777 36.707C133.686 36.543 133.604 36.3698 133.531 36.1875C133.422 36.0052 133.367 35.8138 133.367 35.6133L133.531 34.793V31.293C133.495 31.0195 133.458 30.7643 133.422 30.5273C133.349 30.2904 133.258 30.0716 133.148 29.8711L133.039 29.543C133.076 29.3971 133.185 29.2786 133.367 29.1875C133.531 29.1693 133.714 29.1966 133.914 29.2695L134.57 29.5156C134.753 29.6068 134.935 29.8073 135.117 30.1172C135.135 30.2448 135.117 30.3815 135.062 30.5273C134.99 30.7461 134.953 30.9557 134.953 31.1562Z" fill="#333333"/>
<path d="M189.23 26.8086C188.957 26.8086 188.711 26.6992 188.492 26.4805C188.219 26.2799 188.082 26.125 188.082 26.0156C188.082 25.888 188.292 25.8242 188.711 25.8242L190.051 25.7422L191.418 25.6055C191.454 25.3138 191.473 24.7578 191.473 23.9375C191.527 23.9375 191.245 23.974 190.625 24.0469L190.105 24.1289C189.941 24.2018 189.796 24.2383 189.668 24.2383C189.559 24.2383 189.467 24.2018 189.395 24.1289C189.103 23.8737 188.957 23.6549 188.957 23.4727V22.1875C188.957 22.0599 188.911 21.5677 188.82 20.7109L188.793 20.4102C188.793 20.2643 188.82 20.1732 188.875 20.1367C188.93 20.1003 189.03 20.1003 189.176 20.1367C189.723 20.2826 189.987 20.4466 189.969 20.6289L189.941 20.8203C189.905 21.0755 189.887 21.4036 189.887 21.8047C189.887 22.2786 189.896 22.5794 189.914 22.707C189.951 23.0716 189.969 23.2448 189.969 23.2266C189.987 23.2995 190.051 23.3359 190.16 23.3359C190.27 23.3359 190.488 23.3086 190.816 23.2539C191.163 23.181 191.391 23.1354 191.5 23.1172V20.7109C191.5 20.0365 191.473 19.5807 191.418 19.3438C191.382 19.1615 191.363 19.0612 191.363 19.043C191.363 18.9154 191.409 18.8516 191.5 18.8516C191.536 18.8516 191.664 18.888 191.883 18.9609C192.229 19.125 192.457 19.2708 192.566 19.3984C192.694 19.526 192.74 19.6628 192.703 19.8086C192.648 19.9909 192.612 20.3555 192.594 20.9023C192.557 21.3398 192.521 22.0508 192.484 23.0352L193.414 23.0078C193.596 23.0078 193.733 22.9987 193.824 22.9805C193.915 22.9622 193.961 22.9258 193.961 22.8711C194.089 22.1784 194.171 21.5768 194.207 21.0664L194.234 20.7383C194.253 20.7018 194.253 20.638 194.234 20.5469C194.234 20.4557 194.234 20.3919 194.234 20.3555L194.207 20.1641C194.207 20 194.271 19.918 194.398 19.918C194.471 19.918 194.626 19.9909 194.863 20.1367C194.918 20.1732 194.991 20.2279 195.082 20.3008C195.191 20.3555 195.264 20.4193 195.301 20.4922C195.337 20.5469 195.355 20.6198 195.355 20.7109C195.355 20.8203 195.346 20.9115 195.328 20.9844L195.027 22.5156L194.945 23.1445C194.872 23.5638 194.654 23.7917 194.289 23.8281C194.18 23.8099 194.089 23.7826 194.016 23.7461C193.961 23.7096 193.915 23.6914 193.879 23.6914C193.66 23.6914 193.204 23.737 192.512 23.8281L192.484 25.5234L192.949 25.4961L193.387 25.4688C194.061 25.4688 194.562 25.4323 194.891 25.3594C195.036 25.3594 195.164 25.3411 195.273 25.3047L195.355 25.2773C195.538 25.2773 195.729 25.4049 195.93 25.6602C196.167 25.8971 196.285 26.0703 196.285 26.1797C196.285 26.3438 196.03 26.3984 195.52 26.3438L194.48 26.2891H193.113C192.84 26.2891 192.339 26.3255 191.609 26.3984C191.227 26.3984 190.88 26.4167 190.57 26.4531C190.26 26.4896 189.969 26.5534 189.695 26.6445L189.23 26.8086ZM195.164 33.9727C194.891 33.9727 194.626 33.7721 194.371 33.3711C194.043 32.8607 193.724 32.4414 193.414 32.1133L192.703 31.375C192.32 31.8125 191.983 32.1589 191.691 32.4141C191.418 32.6693 191.072 32.9154 190.652 33.1523C189.868 33.6081 189.212 33.8359 188.684 33.8359C188.556 33.8359 188.492 33.7904 188.492 33.6992C188.492 33.6445 188.665 33.526 189.012 33.3438C189.358 33.1615 189.686 32.9427 189.996 32.6875C190.78 32.0312 191.427 31.3568 191.938 30.6641C191.828 30.5547 191.281 30.0807 190.297 29.2422C190.169 29.151 189.978 28.9961 189.723 28.7773C189.668 28.7409 189.559 28.6589 189.395 28.5312C189.23 28.4036 189.148 28.3125 189.148 28.2578C189.148 28.1667 189.194 28.1211 189.285 28.1211C189.559 28.1211 189.996 28.3125 190.598 28.6953C191.199 29.0599 191.828 29.4974 192.484 30.0078C192.74 29.6979 192.94 29.4062 193.086 29.1328C193.232 28.8594 193.396 28.5221 193.578 28.1211C193.669 27.9206 193.724 27.7474 193.742 27.6016C193.76 27.4375 193.77 27.3372 193.77 27.3008C193.77 27.1003 193.824 27 193.934 27C194.061 27 194.234 27.1003 194.453 27.3008C194.836 27.6654 195.027 27.9115 195.027 28.0391C195.027 28.112 194.982 28.194 194.891 28.2852C194.672 28.5039 194.471 28.7956 194.289 29.1602C194.18 29.3789 193.979 29.6888 193.688 30.0898C193.596 30.1992 193.523 30.2995 193.469 30.3906C193.414 30.4818 193.359 30.5638 193.305 30.6367C193.724 30.9466 194.344 31.4753 195.164 32.2227C195.365 32.4049 195.492 32.5781 195.547 32.7422C195.62 32.888 195.656 33.0885 195.656 33.3438C195.656 33.526 195.611 33.681 195.52 33.8086C195.428 33.918 195.31 33.9727 195.164 33.9727ZM195.656 37.582C195.857 37.8008 195.957 37.9831 195.957 38.1289C195.957 38.2565 195.884 38.375 195.738 38.4844C195.647 38.5573 195.419 38.9583 195.055 39.6875C194.654 40.3438 194.207 40.9089 193.715 41.3828C193.241 41.875 192.767 42.2305 192.293 42.4492C192.184 42.4857 192.092 42.5039 192.02 42.5039C191.947 42.5039 191.91 42.4857 191.91 42.4492V42.3945C191.91 42.2852 192.001 42.1576 192.184 42.0117C192.512 41.7565 192.758 41.4922 192.922 41.2188C193.104 40.9635 193.241 40.7721 193.332 40.6445C193.715 40.0977 193.988 39.651 194.152 39.3047C194.335 38.9948 194.462 38.6758 194.535 38.3477H194.426C193.952 38.3477 193.186 38.4023 192.129 38.5117C191.965 38.5299 191.491 38.5938 190.707 38.7031C190.543 38.7214 190.288 38.7669 189.941 38.8398L189.613 38.9219C189.54 38.9583 189.467 38.9766 189.395 38.9766C189.303 38.9766 189.212 38.9583 189.121 38.9219C189.03 38.8672 188.939 38.8034 188.848 38.7305C188.629 38.5482 188.52 38.3932 188.52 38.2656C188.538 38.2292 188.556 38.1745 188.574 38.1016C188.611 38.0286 188.629 37.9648 188.629 37.9102L188.766 37.0078C188.784 36.9167 188.802 36.8164 188.82 36.707C188.839 36.5977 188.848 36.4883 188.848 36.3789C188.848 36.0326 188.839 35.7591 188.82 35.5586C188.82 35.3398 188.793 35.112 188.738 34.875V34.793C188.738 34.6654 188.793 34.6016 188.902 34.6016C189.012 34.6016 189.203 34.6836 189.477 34.8477C189.841 35.1029 190.023 35.3034 190.023 35.4492C190.023 35.5039 190.014 35.5495 189.996 35.5859C189.978 35.6224 189.96 35.6589 189.941 35.6953C189.887 36.0234 189.859 36.2057 189.859 36.2422L189.723 37.6914C189.723 37.7279 189.741 37.7734 189.777 37.8281C189.832 37.8646 189.887 37.8828 189.941 37.8828C190.379 37.8828 191.363 37.7734 192.895 37.5547C193.496 37.5 193.924 37.4362 194.18 37.3633C194.344 37.3451 194.48 37.3177 194.59 37.2812C194.717 37.2266 194.799 37.1992 194.836 37.1992C194.945 37.1628 195.018 37.1445 195.055 37.1445C195.219 37.1445 195.419 37.2904 195.656 37.582ZM200.852 31.8945C200.906 31.8945 200.961 31.9219 201.016 31.9766C201.07 32.013 201.107 32.0677 201.125 32.1406V32.1953C201.125 32.3229 201.025 32.569 200.824 32.9336L198.855 36.3516C198.71 36.6615 198.518 36.8164 198.281 36.8164C198.044 36.8164 197.844 36.6706 197.68 36.3789C197.516 36.1419 197.315 35.7865 197.078 35.3125C196.969 35.1484 196.878 34.9844 196.805 34.8203C196.732 34.6562 196.677 34.5378 196.641 34.4648C196.44 34.1185 196.34 33.8724 196.34 33.7266C196.34 33.6536 196.367 33.599 196.422 33.5625C196.477 33.5078 196.531 33.4805 196.586 33.4805C196.786 33.4805 196.969 33.5898 197.133 33.8086C197.26 33.9362 197.361 34.0729 197.434 34.2188L197.734 34.6289L198.281 35.2578L198.527 34.875C198.783 34.4375 199.384 33.5716 200.332 32.2773C200.533 32.0221 200.706 31.8945 200.852 31.8945ZM172.688 22.7617L177.473 21.8047C177.345 21.7135 177.236 21.6224 177.145 21.5312C177.053 21.4401 176.971 21.3398 176.898 21.2305C176.826 21.0846 176.716 20.8932 176.57 20.6562L176.297 20.082L175.941 19.1523L176.242 19.0156L177.117 19.2617C177.354 19.3529 177.609 19.4714 177.883 19.6172C178.138 19.7812 178.339 19.9909 178.484 20.2461C178.576 20.4102 178.612 20.5924 178.594 20.793L178.266 21.6133C178.812 21.4674 179.277 21.349 179.66 21.2578C180.043 21.1667 180.353 21.1211 180.59 21.1211C180.79 21.1393 181.036 21.2031 181.328 21.3125C181.638 21.4219 181.866 21.5495 182.012 21.6953L182.203 21.9688C182.185 22.0964 182.048 22.1784 181.793 22.2148L180.398 22.3789L177.418 22.7617C177.764 22.9076 177.974 23.0352 178.047 23.1445L177.992 23.9922L177.938 24.8945L179.168 24.6758L179.715 24.5391C180.043 24.4479 180.307 24.4023 180.508 24.4023C180.617 24.4206 180.781 24.457 181 24.5117L181.383 24.6211C181.492 24.7305 181.501 24.8945 181.41 25.1133C181.1 25.2227 180.262 25.3958 178.895 25.6328L177.91 25.8242L177.855 27.5742L178.648 27.4648L179.688 27.2461H180.836C181.128 27.2461 181.328 27.2826 181.438 27.3555L181.492 27.7656C181.255 27.8932 181.036 27.9661 180.836 27.9844C180.654 28.0026 180.298 28.0482 179.77 28.1211L177.828 28.4492L177.773 30.2539L179.441 30.0352C179.605 30.0169 179.934 29.9531 180.426 29.8438C180.845 29.7526 181.191 29.707 181.465 29.707C181.647 29.707 181.802 29.7344 181.93 29.7891C182.076 29.8255 182.267 29.8893 182.504 29.9805C182.759 30.0534 182.951 30.1354 183.078 30.2266L183.242 30.3906V30.582C183.206 30.6914 183.087 30.7734 182.887 30.8281C182.704 30.8828 182.404 30.9102 181.984 30.9102C181.547 30.9284 181.082 30.9466 180.59 30.9648C180.098 30.9831 179.587 31.0195 179.059 31.0742C178.53 31.1107 178.111 31.1471 177.801 31.1836L173.016 31.8672L172.934 32.2773C173.243 32.3503 173.526 32.4141 173.781 32.4688C174.036 32.5234 174.273 32.6146 174.492 32.7422L174.848 32.9883L174.984 33.2617L174.82 33.7539L174.602 34.3008L177.609 34.0547C178.557 33.9818 179.25 33.918 179.688 33.8633C180.125 33.8268 180.69 33.7357 181.383 33.5898C182.076 33.4805 182.568 33.4258 182.859 33.4258C183.115 33.444 183.388 33.4987 183.68 33.5898C183.971 33.6628 184.336 33.7812 184.773 33.9453C185.193 34.1094 185.448 34.2734 185.539 34.4375L185.621 34.7383C185.603 34.8477 185.539 34.9297 185.43 34.9844C185.32 35.0391 185.138 35.0664 184.883 35.0664L183.461 35.0938L178.648 35.1211L175.777 35.2305H174.547L174.438 39.2773C174.438 39.6237 174.401 40.1159 174.328 40.7539C174.255 41.3919 174.182 41.875 174.109 42.2031C174.036 42.513 173.945 42.8138 173.836 43.1055C173.69 43.3607 173.535 43.4974 173.371 43.5156L173.125 42.9688C173.052 42.8047 173.016 42.5495 173.016 42.2031L172.906 40.8633C172.87 40.6081 172.852 39.9883 172.852 39.0039V35.3945L170.5 35.6406C169.807 35.7135 169.288 35.7773 168.941 35.832C168.595 35.8685 168.066 35.9414 167.355 36.0508C166.645 36.1784 166.052 36.306 165.578 36.4336C165.177 36.5247 164.849 36.5703 164.594 36.5703C164.375 36.5521 164.129 36.5065 163.855 36.4336C163.582 36.3242 163.345 36.2057 163.145 36.0781L162.652 35.6953L162.434 35.3398C162.488 35.2305 162.607 35.1758 162.789 35.1758H163.5L163.938 35.1484C164.193 35.1302 164.576 35.112 165.086 35.0938C165.596 35.0755 166.052 35.0482 166.453 35.0117L168.312 34.8477L172.852 34.3828C172.833 34.1458 172.815 33.9453 172.797 33.7812L172.77 33.5352L172.633 33.043L172.305 33.0156C172.195 32.9427 172.068 32.7878 171.922 32.5508C171.794 32.2956 171.694 32.0404 171.621 31.7852C171.53 31.5117 171.484 31.3021 171.484 31.1562C171.484 31.0286 171.557 30.6458 171.703 30.0078C171.758 29.7891 171.812 29.4154 171.867 28.8867C171.94 28.3763 171.977 28.0299 171.977 27.8477L172.004 26.4805V24.9492L171.977 24.2383L171.922 23.6367L170.773 24.7578C170.464 25.0312 170.126 25.2773 169.762 25.4961L169.242 25.8242L168.805 25.8789L169.051 25.4961L169.652 24.7852C170.236 24.1107 170.691 23.5365 171.02 23.0625C171.329 22.6068 171.648 22.1055 171.977 21.5586C172.286 21.0117 172.469 20.6471 172.523 20.4648C172.596 20.3008 172.669 20.1003 172.742 19.8633C172.815 19.6081 172.852 19.3893 172.852 19.207L172.988 18.8516C173.262 18.8333 173.499 18.8607 173.699 18.9336C173.9 19.0065 174.128 19.0977 174.383 19.207C174.656 19.3346 174.857 19.4714 174.984 19.6172L175.148 19.8906C175.112 20.0365 175.021 20.1732 174.875 20.3008L174.383 20.7109C174.255 20.8203 174.109 20.9753 173.945 21.1758L172.688 22.7617ZM173.043 30.9648L176.625 30.4727L176.57 28.6406L173.016 28.9414L173.043 30.9648ZM173.016 28.2852C173.526 28.2122 174.091 28.1393 174.711 28.0664L175.668 27.957L176.543 27.793L176.516 25.9883L173.016 26.3711V28.2852ZM172.988 25.7148C173.298 25.6784 173.59 25.6419 173.863 25.6055C174.137 25.569 174.456 25.5143 174.82 25.4414L176.516 25.1406L176.461 24.2109L176.406 23.8008L176.324 23.4453L176.133 23.0078L173.043 23.582L173.18 24.0469C173.198 24.1745 173.189 24.3294 173.152 24.5117L173.07 25.168L172.988 25.7148ZM165.195 24.8672L164.648 24.0469C164.667 23.9193 164.776 23.8646 164.977 23.8828L165.852 24.0195C166.07 24.0742 166.298 24.138 166.535 24.2109C166.754 24.2656 167 24.3568 167.273 24.4844C167.547 24.612 167.729 24.7852 167.82 25.0039C167.93 25.2409 167.984 25.4505 167.984 25.6328C167.984 25.888 167.93 26.0977 167.82 26.2617L167.602 26.5898L167.301 26.6992C167.082 26.6992 166.854 26.599 166.617 26.3984C166.362 26.1979 166.161 26.0065 166.016 25.8242L165.578 25.332C165.359 25.0586 165.232 24.9036 165.195 24.8672ZM168.805 27.7656L169.461 27.082L169.98 26.9727L169.953 27.2461L169.434 28.0938L168.477 29.6523L168.203 30.0898C167.911 30.4909 167.656 30.8828 167.438 31.2656L166.781 32.4961C166.635 32.7878 166.408 32.9154 166.098 32.8789L165.824 32.6875L165.66 32.3047L165.414 31.5664C165.268 31.1836 165.214 30.8372 165.25 30.5273L165.578 30.3086C165.76 30.2174 165.979 30.099 166.234 29.9531C166.49 29.8073 166.781 29.6068 167.109 29.3516C167.419 29.1146 167.729 28.8411 168.039 28.5312C168.367 28.2214 168.622 27.9661 168.805 27.7656ZM167.383 20.875L167.055 19.9727L167.875 20.0273C168.094 20.0638 168.367 20.1367 168.695 20.2461C169.042 20.3372 169.315 20.4466 169.516 20.5742C169.734 20.6836 169.898 20.8294 170.008 21.0117C170.117 21.194 170.172 21.3945 170.172 21.6133C170.154 21.7956 170.108 21.9596 170.035 22.1055C169.944 22.2331 169.835 22.3424 169.707 22.4336C169.579 22.5065 169.443 22.543 169.297 22.543C169.151 22.543 168.951 22.4883 168.695 22.3789C168.477 22.2513 168.24 22.0143 167.984 21.668L167.383 20.875Z" fill="#333333"/>
<path d="M234.266 29.9258C234.12 29.9258 233.974 29.8984 233.828 29.8438C233.682 29.7708 233.573 29.6615 233.5 29.5156C233.445 29.3516 233.327 29.1602 233.145 28.9414C232.98 28.7227 232.816 28.5586 232.652 28.4492L232.762 28.3125C232.853 28.3672 233.072 28.4766 233.418 28.6406C233.764 28.8047 234.02 28.8867 234.184 28.8867C234.439 28.8867 234.667 28.7956 234.867 28.6133C235.068 28.431 235.323 28.0846 235.633 27.5742C235.852 27.2279 236.052 26.8177 236.234 26.3438C236.417 25.8698 236.553 25.4323 236.645 25.0312L236.672 24.9766C236.672 24.9219 236.654 24.8763 236.617 24.8398C236.581 24.7852 236.544 24.7578 236.508 24.7578L235.25 24.8672C234.411 25.013 233.536 25.1315 232.625 25.2227C232.461 25.2409 232.27 25.2865 232.051 25.3594C231.832 25.4323 231.677 25.4688 231.586 25.4688C231.44 25.4688 231.249 25.3503 231.012 25.1133C230.921 25.0404 230.829 24.9492 230.738 24.8398C230.665 24.7305 230.647 24.6393 230.684 24.5664C230.829 24.4206 230.902 24.3477 230.902 24.3477L231.039 24.2383C231.294 23.9831 231.549 23.6458 231.805 23.2266C231.987 22.9714 232.178 22.543 232.379 21.9414C232.379 21.7409 232.424 21.6406 232.516 21.6406C232.57 21.6406 232.661 21.6771 232.789 21.75L233.227 22.0234C233.336 22.1146 233.409 22.1875 233.445 22.2422C233.482 22.2969 233.5 22.3698 233.5 22.4609C233.5 22.5703 233.427 22.707 233.281 22.8711C233.135 23.0169 233.008 23.1628 232.898 23.3086L232.27 24.2109L232.215 24.3203C232.215 24.375 232.288 24.4023 232.434 24.4023L234.539 24.1289L235.961 24.0195L236.508 23.9648L236.809 23.9102H236.891C237.073 23.9102 237.273 24.0651 237.492 24.375C237.747 24.612 237.875 24.8125 237.875 24.9766L237.738 25.332C237.72 25.3685 237.574 25.7969 237.301 26.6172C236.973 27.401 236.69 27.9935 236.453 28.3945C236.216 28.7956 235.961 29.1055 235.688 29.3242C235.195 29.7253 234.721 29.9258 234.266 29.9258ZM236.508 39.25C236.435 39.25 236.353 39.2227 236.262 39.168C236.171 39.0951 236.052 38.9948 235.906 38.8672C235.268 38.375 234.648 37.6367 234.047 36.6523C233.445 35.668 233.017 34.6016 232.762 33.4531C232.743 33.3438 232.716 33.2161 232.68 33.0703C232.643 32.9245 232.607 32.8151 232.57 32.7422C232.57 32.724 232.543 32.7148 232.488 32.7148C232.361 32.7148 232.115 32.7969 231.75 32.9609C231.641 33.0156 231.531 33.0977 231.422 33.207C231.331 33.2982 231.23 33.3346 231.121 33.3164C231.048 33.3164 230.948 33.2708 230.82 33.1797C230.693 33.0885 230.602 33.0065 230.547 32.9336C230.365 32.6784 230.273 32.5234 230.273 32.4688C230.273 32.3594 230.374 32.2956 230.574 32.2773C230.848 32.2773 231.021 32.2682 231.094 32.25C231.622 32.1771 232.124 32.0586 232.598 31.8945C232.671 31.8763 232.771 31.8216 232.898 31.7305C232.917 31.7305 232.944 31.7214 232.98 31.7031C233.035 31.6849 233.099 31.7031 233.172 31.7578C233.445 31.9401 233.582 32.0768 233.582 32.168C233.582 33.444 233.947 34.638 234.676 35.75C235.405 36.862 236.471 37.8008 237.875 38.5664C237.948 38.6029 238.039 38.6393 238.148 38.6758C238.258 38.7122 238.312 38.7669 238.312 38.8398C238.312 38.931 238.012 39.013 237.41 39.0859L236.727 39.1953L236.508 39.25ZM239.242 29.2695C239.333 29.2695 239.47 29.3333 239.652 29.4609C239.634 29.4974 239.671 29.5703 239.762 29.6797C239.853 29.7708 239.917 29.8346 239.953 29.8711C240.044 29.9622 240.135 30.0716 240.227 30.1992C240.336 30.3268 240.454 30.4635 240.582 30.6094C240.91 30.9557 241.667 31.8581 242.852 33.3164C243.052 33.6081 243.152 33.7812 243.152 33.8359C243.152 34.0182 243.043 34.1094 242.824 34.1094C242.697 34.1094 242.56 34.0182 242.414 33.8359C242.068 33.4714 241.448 32.8971 240.555 32.1133C239.862 31.4753 239.233 30.9831 238.668 30.6367C238.395 30.5091 238.258 30.3633 238.258 30.1992C238.258 30.0716 238.395 29.8893 238.668 29.6523C238.923 29.3971 239.115 29.2695 239.242 29.2695ZM209 27.5195C209.146 27.6289 209.273 27.7383 209.383 27.8477C209.51 27.9388 209.638 28.0664 209.766 28.2305C209.893 28.3945 209.966 28.5404 209.984 28.668C209.984 28.7956 209.939 29.0326 209.848 29.3789C209.793 29.5065 209.757 29.6797 209.738 29.8984C209.72 30.1172 209.693 30.3997 209.656 30.7461V31.9766L209.602 36.6523V37.8555C209.638 38.6211 209.665 39.1497 209.684 39.4414C209.702 39.7331 209.711 39.9427 209.711 40.0703C209.674 40.2708 209.62 40.5078 209.547 40.7812C209.456 41.0547 209.365 41.2734 209.273 41.4375C209.201 41.6016 209.118 41.7292 209.027 41.8203L208.617 41.8477C208.471 41.6289 208.344 41.4102 208.234 41.1914L208.043 40.7539C207.988 40.6081 207.934 40.4076 207.879 40.1523L207.797 39.6875C207.797 39.5417 207.842 39.3229 207.934 39.0312C208.025 38.7578 208.089 38.4661 208.125 38.1562C208.161 37.8464 208.198 37.4362 208.234 36.9258C208.289 36.4154 208.326 36.0234 208.344 35.75L208.48 30.8555C208.499 30.6549 208.508 30.4544 208.508 30.2539C208.508 30.0534 208.499 29.8529 208.48 29.6523C208.462 29.2878 208.435 29.0234 208.398 28.8594L208.289 28.4219C208.143 28.6224 208.007 28.7956 207.879 28.9414C207.751 29.0872 207.523 29.3242 207.195 29.6523C206.867 29.9805 206.43 30.3451 205.883 30.7461C205.336 31.1471 204.908 31.4297 204.598 31.5938L203.859 31.7031L204.352 31.2109C204.57 31.0104 204.898 30.6641 205.336 30.1719C205.81 29.6615 206.284 29.1055 206.758 28.5039C207.232 27.9206 207.66 27.3464 208.043 26.7812C208.426 26.2344 208.799 25.6419 209.164 25.0039C209.529 24.3659 209.811 23.8372 210.012 23.418C210.212 23.0169 210.395 22.6159 210.559 22.2148C210.723 21.832 210.832 21.5312 210.887 21.3125C210.941 21.112 210.978 20.9206 210.996 20.7383C211.014 20.5742 211.023 20.3919 211.023 20.1914L211.051 19.8633C211.124 19.7721 211.251 19.7266 211.434 19.7266C211.652 19.7448 211.844 19.8086 212.008 19.918C212.19 20.0273 212.372 20.1641 212.555 20.3281C212.737 20.4922 212.883 20.6289 212.992 20.7383L213.211 20.9844L213.32 21.2578L213.074 21.6133C212.91 21.7227 212.773 21.8411 212.664 21.9688C212.555 22.0964 212.454 22.2331 212.363 22.3789C212.272 22.5247 212.081 22.8711 211.789 23.418C211.497 23.9648 211.206 24.4479 210.914 24.8672C210.641 25.2865 210.331 25.7331 209.984 26.207C209.62 26.6992 209.401 26.9909 209.328 27.082L209 27.5195ZM215.891 28.75C215.471 28.8047 215.161 28.8411 214.961 28.8594C214.742 28.8958 214.432 28.9596 214.031 29.0508C213.63 29.1237 213.302 29.1875 213.047 29.2422C212.901 29.2786 212.701 29.2969 212.445 29.2969C212.245 29.2786 212.026 29.2148 211.789 29.1055C211.388 28.9596 211.197 28.7135 211.215 28.3672C211.525 28.3125 211.88 28.2578 212.281 28.2031C212.682 28.1484 213.12 28.1029 213.594 28.0664C214.086 28.0299 214.396 27.9935 214.523 27.957L216.164 27.793L215.836 24.9219C215.508 24.9583 215.207 24.9766 214.934 24.9766C214.715 24.9766 214.505 24.9583 214.305 24.9219C214.031 24.8672 213.831 24.7669 213.703 24.6211L213.539 24.3477C213.576 24.2383 213.776 24.1745 214.141 24.1562L215.781 24.0195L215.672 23.0352C215.672 22.8529 215.626 22.5794 215.535 22.2148C215.462 21.8867 215.398 21.6406 215.344 21.4766L214.988 20.6562C215.043 20.5104 215.207 20.4284 215.48 20.4102C215.663 20.4102 215.973 20.4831 216.41 20.6289C216.848 20.7747 217.148 20.9023 217.312 21.0117L217.504 21.5312C217.413 21.8047 217.349 22.0234 217.312 22.1875L217.258 22.6523L217.203 23.1172L217.258 23.8008L220.703 23.3086L220.867 22.1328C220.885 21.9323 220.895 21.668 220.895 21.3398C220.895 20.9023 220.84 20.5378 220.73 20.2461L220.539 19.6992L220.566 19.4805C220.676 19.3711 220.831 19.3073 221.031 19.2891C221.25 19.2891 221.478 19.3346 221.715 19.4258C221.952 19.5169 222.216 19.6263 222.508 19.7539C222.799 19.8997 223.018 20.0456 223.164 20.1914L223.355 20.6562L223.082 21.1484L222.918 21.5859L222.781 22.0234L222.617 22.8984C222.781 22.862 222.945 22.8164 223.109 22.7617L223.492 22.6523C223.638 22.6523 223.839 22.6797 224.094 22.7344C224.422 22.8255 224.677 22.9258 224.859 23.0352L225.078 23.3359C225.042 23.4635 224.932 23.5638 224.75 23.6367C224.568 23.7096 224.367 23.7643 224.148 23.8008L223.328 23.9648L222.234 24.1836L221.578 27.1914L223.055 27L224.039 26.8633L225.16 26.6445C225.634 26.5716 225.971 26.526 226.172 26.5078C226.518 26.5078 226.846 26.5625 227.156 26.6719C227.484 26.763 227.767 26.9089 228.004 27.1094L228.277 27.5195C228.241 27.6289 228.141 27.7109 227.977 27.7656C227.794 27.8203 227.548 27.8477 227.238 27.8477C227.092 27.8294 226.938 27.8203 226.773 27.8203C226.609 27.8203 226.445 27.8294 226.281 27.8477C225.953 27.8841 225.434 27.9206 224.723 27.957C224.03 27.9935 222.973 28.0573 221.551 28.1484C220.129 28.2396 219.354 28.3034 219.227 28.3398L217.094 28.6133C217.24 28.7227 217.358 28.832 217.449 28.9414C217.54 29.0508 217.659 29.2786 217.805 29.625C217.768 29.7526 217.686 29.8438 217.559 29.8984L217.094 30.0898L216.465 30.7461L215.672 31.5664C216.018 31.5117 216.283 31.4753 216.465 31.457L218.871 31.1289C219.327 31.0742 219.956 30.974 220.758 30.8281C221.56 30.7005 222.089 30.6094 222.344 30.5547C222.562 30.5 222.827 30.418 223.137 30.3086L223.629 30.1172C223.757 30.099 223.939 30.1263 224.176 30.1992L224.586 30.3359L225.16 30.6367C225.434 30.819 225.643 30.9831 225.789 31.1289C225.88 31.2383 225.889 31.4479 225.816 31.7578C225.689 31.9766 225.589 32.2318 225.516 32.5234C225.443 32.8151 225.397 33.0247 225.379 33.1523C225.361 33.2617 225.352 33.4987 225.352 33.8633C225.352 34.2279 225.333 34.6836 225.297 35.2305C225.279 35.5039 225.27 35.8138 225.27 36.1602C225.27 36.4883 225.279 36.862 225.297 37.2812L225.352 38.5938C225.352 38.9036 225.324 39.332 225.27 39.8789C225.215 40.4076 225.133 40.8451 225.023 41.1914C224.914 41.556 224.704 41.9206 224.395 42.2852C224.158 42.5951 223.893 42.75 223.602 42.75C223.492 42.7318 223.383 42.6862 223.273 42.6133C223.164 42.5404 222.982 42.3216 222.727 41.957C222.49 41.5924 222.253 41.2826 222.016 41.0273L221.496 40.5078L221.168 39.8789H221.414L222.125 40.0703L222.672 40.2617L222.891 40.3164L223.109 40.2891C223.273 40.2344 223.419 40.0703 223.547 39.7969C223.674 39.5234 223.747 39.0768 223.766 38.457L223.82 37.1445C223.674 37.2357 223.529 37.2995 223.383 37.3359C223.273 37.3906 223.036 37.418 222.672 37.418L221.578 37.5L220.238 37.6367C220.184 38.1107 220.147 38.4115 220.129 38.5391C220.111 38.6667 220.047 38.9948 219.938 39.5234C219.846 40.0521 219.737 40.4349 219.609 40.6719L219.336 41.0273C219.19 41.0273 219.09 40.8997 219.035 40.6445C218.98 40.3893 218.953 40.0612 218.953 39.6602L218.898 38.8398L218.926 37.7461C218.689 37.7826 218.479 37.8099 218.297 37.8281C218.096 37.8464 217.768 37.8646 217.312 37.8828H216.902C216.665 37.8828 216.492 37.8737 216.383 37.8555L215.836 37.6914C215.727 38.2201 215.617 38.6484 215.508 38.9766C215.398 39.3229 215.189 39.6875 214.879 40.0703C214.569 40.4531 214.268 40.7721 213.977 41.0273L213.43 41.4375L212.992 41.7109L212.664 41.6562L213.047 41.082C213.302 40.7539 213.53 40.3984 213.73 40.0156C213.931 39.6328 214.104 39.168 214.25 38.6211C214.396 38.0742 214.496 37.5365 214.551 37.0078C214.605 36.4609 214.651 35.8411 214.688 35.1484C214.724 34.4375 214.742 33.9727 214.742 33.7539L214.633 32.4961C214.25 32.7878 213.922 33.0247 213.648 33.207C213.393 33.3893 213.029 33.6263 212.555 33.918C212.081 34.1914 211.68 34.3737 211.352 34.4648L210.695 34.6562L210.559 34.4375L211.023 34.082C211.315 33.8997 211.68 33.6263 212.117 33.2617C212.573 32.8971 212.965 32.5508 213.293 32.2227C213.621 31.8945 214.04 31.4206 214.551 30.8008C215.061 30.1992 215.389 29.7435 215.535 29.4336L215.891 28.75ZM216 37.1445C216.51 37.1081 216.893 37.0716 217.148 37.0352L218.297 36.9258L218.953 36.8711L218.98 35.1211C218.598 35.1576 218.169 35.194 217.695 35.2305C217.331 35.2669 217.039 35.2852 216.82 35.2852L216.137 35.1758L216 37.1445ZM216.164 34.5195L218.953 34.2188V33.6719L218.898 33.0156C218.898 32.6693 218.88 32.4414 218.844 32.332L218.734 31.8672C218.443 31.8854 218.242 31.9128 218.133 31.9492L217.094 32.1133L216.492 32.168C216.419 32.3867 216.355 32.5872 216.301 32.7695L216.219 33.125L216.164 34.5195ZM217.422 27.6289L220.211 27.3008L220.594 24.4023C220.156 24.4753 219.837 24.5208 219.637 24.5391L218.188 24.7305L217.312 24.8398L217.422 27.6289ZM219.938 31.7305C220.229 31.8216 220.439 31.931 220.566 32.0586L220.758 32.3047C220.74 32.4323 220.685 32.5781 220.594 32.7422L220.43 33.0977L220.375 33.9727C220.776 33.918 221.122 33.8633 221.414 33.8086C221.706 33.7357 221.97 33.6901 222.207 33.6719C222.371 33.6536 222.508 33.6536 222.617 33.6719C222.872 33.6901 223.128 33.7539 223.383 33.8633L223.875 34.0273L223.82 33.3984C223.82 33.2344 223.829 32.9245 223.848 32.4688C223.848 32.1224 223.82 31.8945 223.766 31.7852C223.674 31.6029 223.556 31.5026 223.41 31.4844C223.301 31.4661 223.109 31.457 222.836 31.457L219.938 31.7305ZM220.266 36.707C220.831 36.5977 221.268 36.5156 221.578 36.4609C221.906 36.4062 222.171 36.3789 222.371 36.3789C222.699 36.3789 222.982 36.4245 223.219 36.5156L223.82 36.7617V34.3281C223.711 34.4193 223.592 34.5013 223.465 34.5742C223.337 34.6471 223.018 34.7018 222.508 34.7383L221.141 34.9023L220.32 34.957L220.266 36.707Z" fill="#333333"/>
<path d="M277.902 24.5035C277.64 23.518 276.869 22.742 275.89 22.4786C274.116 22 267 22 267 22C267 22 259.884 22 258.109 22.4786C257.13 22.742 256.359 23.518 256.098 24.5035C255.622 26.2896 255.622 30.0162 255.622 30.0162C255.622 30.0162 255.622 33.7427 256.098 35.5289C256.359 36.5143 257.13 37.258 258.109 37.5214C259.884 38 267 38 267 38C267 38 274.116 38 275.89 37.5214C276.869 37.258 277.64 36.5143 277.902 35.5289C278.378 33.7427 278.378 30.0162 278.378 30.0162C278.378 30.0162 278.378 26.2896 277.902 24.5035V24.5035ZM264.673 33.3996V26.6327L270.62 30.0163L264.673 33.3996V33.3996Z" fill="#FF4747"/>
</svg>
