<svg width="340" height="60" viewBox="0 0 340 60" fill="none" xmlns="http://www.w3.org/2000/svg">
<path d="M118.266 30.4727C118.12 30.4727 117.974 30.4453 117.828 30.3906C117.682 30.3177 117.573 30.2083 117.5 30.0625C117.445 29.8984 117.327 29.707 117.145 29.4883C116.98 29.2695 116.816 29.1055 116.652 28.9961L116.762 28.8594C116.853 28.9141 117.072 29.0234 117.418 29.1875C117.764 29.3516 118.02 29.4336 118.184 29.4336C118.439 29.4336 118.667 29.3424 118.867 29.1602C119.068 28.9779 119.323 28.6315 119.633 28.1211C119.852 27.7747 120.052 27.3646 120.234 26.8906C120.417 26.4167 120.553 25.9792 120.645 25.5781L120.672 25.5234C120.672 25.4688 120.654 25.4232 120.617 25.3867C120.581 25.332 120.544 25.3047 120.508 25.3047L119.25 25.4141C118.411 25.5599 117.536 25.6784 116.625 25.7695C116.461 25.7878 116.27 25.8333 116.051 25.9062C115.832 25.9792 115.677 26.0156 115.586 26.0156C115.44 26.0156 115.249 25.8971 115.012 25.6602C114.921 25.5872 114.829 25.4961 114.738 25.3867C114.665 25.2773 114.647 25.1862 114.684 25.1133C114.829 24.9674 114.902 24.8945 114.902 24.8945L115.039 24.7852C115.294 24.5299 115.549 24.1927 115.805 23.7734C115.987 23.5182 116.178 23.0898 116.379 22.4883C116.379 22.2878 116.424 22.1875 116.516 22.1875C116.57 22.1875 116.661 22.224 116.789 22.2969L117.227 22.5703C117.336 22.6615 117.409 22.7344 117.445 22.7891C117.482 22.8438 117.5 22.9167 117.5 23.0078C117.5 23.1172 117.427 23.2539 117.281 23.418C117.135 23.5638 117.008 23.7096 116.898 23.8555L116.27 24.7578L116.215 24.8672C116.215 24.9219 116.288 24.9492 116.434 24.9492L118.539 24.6758L119.961 24.5664L120.508 24.5117L120.809 24.457H120.891C121.073 24.457 121.273 24.612 121.492 24.9219C121.747 25.1589 121.875 25.3594 121.875 25.5234L121.738 25.8789C121.72 25.9154 121.574 26.3438 121.301 27.1641C120.973 27.9479 120.69 28.5404 120.453 28.9414C120.216 29.3424 119.961 29.6523 119.688 29.8711C119.195 30.2721 118.721 30.4727 118.266 30.4727ZM119.359 34.875C119.177 35.112 118.986 35.2305 118.785 35.2305C118.73 35.2305 118.703 35.1849 118.703 35.0938C118.703 34.9661 118.74 34.8203 118.812 34.6562C118.812 34.6562 118.995 34.2917 119.359 33.5625C119.378 33.4896 119.405 33.4167 119.441 33.3438C119.478 33.2708 119.505 33.207 119.523 33.1523V33.125C119.523 33.0885 119.496 33.0521 119.441 33.0156C119.387 32.9792 119.323 32.9701 119.25 32.9883C118.958 33.0065 118.521 33.0521 117.938 33.125C117.372 33.1979 116.953 33.2708 116.68 33.3438C116.57 33.3802 116.434 33.4258 116.27 33.4805C116.124 33.5352 116.005 33.5625 115.914 33.5625C115.586 33.5625 115.312 33.4622 115.094 33.2617C114.911 33.1341 114.775 33.0065 114.684 32.8789L114.629 32.7422C114.629 32.651 114.784 32.6237 115.094 32.6602C115.513 32.6966 116.379 32.6419 117.691 32.4961L118.238 32.4141C118.384 32.3958 118.612 32.3685 118.922 32.332C119.25 32.2773 119.505 32.2227 119.688 32.168C119.742 32.1497 119.797 32.1315 119.852 32.1133C119.924 32.0768 119.988 32.0586 120.043 32.0586C120.134 32.0586 120.243 32.1042 120.371 32.1953C120.517 32.2865 120.635 32.3685 120.727 32.4414C120.854 32.5326 120.936 32.6146 120.973 32.6875C121.027 32.7422 121.046 32.8151 121.027 32.9062C121.027 32.9974 120.982 33.0794 120.891 33.1523C120.799 33.2253 120.736 33.2799 120.699 33.3164C120.663 33.3711 120.535 33.5078 120.316 33.7266C120.225 33.8724 120.061 34.0729 119.824 34.3281C119.605 34.5833 119.451 34.7656 119.359 34.875ZM117.992 40.2617C117.992 40.207 118.083 40.0703 118.266 39.8516C118.466 39.6146 118.621 39.4323 118.73 39.3047C119.004 38.9401 119.332 38.4115 119.715 37.7188C120.116 37.026 120.344 36.5703 120.398 36.3516C120.435 36.2422 120.38 36.1875 120.234 36.1875C119.943 36.1875 119.141 36.2695 117.828 36.4336C116.971 36.543 116.333 36.6523 115.914 36.7617C115.823 36.8164 115.732 36.8438 115.641 36.8438C115.495 36.8438 115.34 36.7435 115.176 36.543C115.103 36.4154 115.066 36.2969 115.066 36.1875C115.066 36.1146 115.112 36.0417 115.203 35.9688L115.285 35.8594C115.34 35.75 115.404 35.6042 115.477 35.4219C115.549 35.2396 115.613 35.0664 115.668 34.9023C115.759 34.6107 115.823 34.2917 115.859 33.9453C115.878 33.7448 115.987 33.6901 116.188 33.7812C116.443 33.9089 116.634 34.0365 116.762 34.1641C116.908 34.2734 116.953 34.3555 116.898 34.4102C116.716 34.6289 116.57 34.875 116.461 35.1484C116.37 35.4401 116.315 35.6315 116.297 35.7227C116.297 35.7956 116.342 35.832 116.434 35.832C116.707 35.832 117.117 35.7865 117.664 35.6953C117.974 35.6589 118.357 35.6133 118.812 35.5586C119.268 35.5039 119.633 35.4492 119.906 35.3945L120.59 35.2578C120.645 35.2396 120.717 35.2305 120.809 35.2305C120.9 35.2305 120.991 35.2669 121.082 35.3398C121.173 35.3945 121.273 35.4674 121.383 35.5586C121.565 35.7227 121.684 35.8594 121.738 35.9688C121.793 36.0599 121.82 36.1693 121.82 36.2969C121.82 36.3698 121.766 36.4609 121.656 36.5703C121.565 36.6797 121.456 36.8529 121.328 37.0898C120.799 38.1654 120.116 39.0677 119.277 39.7969C119.04 39.9792 118.776 40.1341 118.484 40.2617C118.357 40.2982 118.238 40.3255 118.129 40.3438C118.038 40.3438 117.992 40.3164 117.992 40.2617ZM102.215 41.1914C101.905 41.1914 101.632 41.1003 101.395 40.918C101.158 40.7174 100.975 40.4987 100.848 40.2617C100.72 40.0065 100.656 39.806 100.656 39.6602C100.656 39.5508 100.72 39.4961 100.848 39.4961C100.939 39.4961 101.012 39.5052 101.066 39.5234C101.467 39.6146 101.859 39.6602 102.242 39.6602H102.461L105.715 39.5508V31.7578L104.785 31.8125C104.348 31.849 104.065 31.8672 103.938 31.8672C103.664 31.8672 103.445 31.8125 103.281 31.7031C102.68 31.3203 102.379 30.8737 102.379 30.3633C102.379 30.2539 102.434 30.1992 102.543 30.1992C102.616 30.1992 102.68 30.2083 102.734 30.2266C103.044 30.2995 103.418 30.3359 103.855 30.3359H104.211L105.742 30.2812V23.6367L104.32 23.7188C103.883 23.7552 103.6 23.7734 103.473 23.7734H103.336C103.135 23.7734 102.962 23.7188 102.816 23.6094C102.434 23.2448 102.178 22.944 102.051 22.707C101.941 22.4518 101.887 22.2786 101.887 22.1875C101.887 22.0781 101.951 22.0234 102.078 22.0234C102.151 22.0234 102.215 22.0326 102.27 22.0508C102.561 22.1419 102.944 22.1875 103.418 22.1875H103.746L108.668 21.8867C109.087 21.8503 109.497 21.7682 109.898 21.6406C110.008 21.6042 110.081 21.5859 110.117 21.5859C110.19 21.5859 110.354 21.668 110.609 21.832C110.883 21.9779 111.129 22.1602 111.348 22.3789C111.566 22.5794 111.676 22.7617 111.676 22.9258C111.676 23.1263 111.466 23.2448 111.047 23.2812L107.41 23.5273V30.2266L107.902 30.1992C108.413 30.1628 108.914 30.0807 109.406 29.9531C109.552 29.9167 109.643 29.8984 109.68 29.8984C109.971 29.8984 110.29 30.0625 110.637 30.3906C110.983 30.7005 111.156 30.9557 111.156 31.1562C111.156 31.375 110.956 31.5026 110.555 31.5391L107.383 31.7031V39.4961L109.461 39.4414C109.734 39.4414 110.145 39.3776 110.691 39.25C110.837 39.2135 110.938 39.1953 110.992 39.1953C111.193 39.1953 111.402 39.2773 111.621 39.4414C111.84 39.6055 112.031 39.7969 112.195 40.0156C112.359 40.2344 112.441 40.3984 112.441 40.5078C112.441 40.6354 112.378 40.7357 112.25 40.8086C112.122 40.8815 111.967 40.918 111.785 40.918L103.035 41.1641L102.215 41.1914ZM86.8477 38.5664C86.8477 38.4206 86.9297 38.3477 87.0938 38.3477H87.1758C87.4492 38.3477 87.7227 38.3021 87.9961 38.2109C88.2878 38.1198 88.4609 38.0651 88.5156 38.0469C88.8984 37.9193 89.418 37.7279 90.0742 37.4727L90.9766 37.1172L91.0312 30.8555L89.9922 30.9102L89.3086 30.9375C88.9805 30.9375 88.7708 30.901 88.6797 30.8281C88.2969 30.4818 88.0417 30.1354 87.9141 29.7891C87.8594 29.6797 87.832 29.5885 87.832 29.5156C87.832 29.4062 87.8867 29.3516 87.9961 29.3516C88.069 29.3516 88.1328 29.3607 88.1875 29.3789C88.4062 29.4518 88.6797 29.4883 89.0078 29.4883L89.4727 29.4609L91.0312 29.3516L91.0859 24.3203L89.6094 24.4297C89.4271 24.4479 89.1901 24.457 88.8984 24.457H88.7617C88.4154 24.457 88.1237 24.3203 87.8867 24.0469C87.668 23.7552 87.5221 23.5 87.4492 23.2812C87.3945 23.1719 87.3672 23.0807 87.3672 23.0078C87.3672 22.8984 87.4401 22.8438 87.5859 22.8438C87.6589 22.8438 87.7135 22.8529 87.75 22.8711C88.0417 22.944 88.3789 22.9805 88.7617 22.9805H89.0625L93.7109 22.6797C94.112 22.6432 94.4583 22.5703 94.75 22.4609C94.8594 22.4245 94.9414 22.4062 94.9961 22.4062C95.0872 22.4062 95.2422 22.4701 95.4609 22.5977C95.6979 22.7253 95.9076 22.8893 96.0898 23.0898C96.2721 23.2721 96.3633 23.4544 96.3633 23.6367C96.3633 23.8555 96.1536 23.9831 95.7344 24.0195L92.7266 24.2109L92.6992 29.2695L93.0547 29.2422C93.2917 29.224 93.6836 29.151 94.2305 29.0234C94.3763 28.987 94.4674 28.9688 94.5039 28.9688C94.7044 28.9688 94.9779 29.1146 95.3242 29.4062C95.6888 29.6979 95.8711 29.9531 95.8711 30.1719C95.8711 30.3906 95.6523 30.5182 95.2148 30.5547L92.6992 30.7461L92.6719 36.4609L95.8164 35.0117C96.1445 34.8659 96.3815 34.793 96.5273 34.793C96.6914 34.793 96.7734 34.8568 96.7734 34.9844C96.7734 35.3125 95.8438 36.0326 93.9844 37.1445C92.125 38.2383 90.6029 39.0586 89.418 39.6055C88.9622 39.8242 88.5794 39.9336 88.2695 39.9336C88.1055 39.9336 87.9688 39.9062 87.8594 39.8516C87.5677 39.6693 87.3216 39.4505 87.1211 39.1953C86.9388 38.9219 86.8477 38.7122 86.8477 38.5664ZM92.8633 42.8594C92.8633 42.6406 93.1185 42.3034 93.6289 41.8477C95.5794 40.1888 96.974 38.5482 97.8125 36.9258C98.651 35.3034 99.1706 33.4805 99.3711 31.457C99.1523 31.5482 98.9154 31.5938 98.6602 31.5938C98.4232 31.5938 98.25 31.5299 98.1406 31.4023C98.0495 31.2747 97.9948 31.1471 97.9766 31.0195C97.4661 29.4518 96.7826 27.9297 95.9258 26.4531C95.8529 26.362 95.8164 26.2617 95.8164 26.1523C95.8164 26.0247 95.8984 25.9062 96.0625 25.7969C96.3724 25.5964 96.6185 25.4961 96.8008 25.4961C96.9466 25.4961 97.0833 25.5781 97.2109 25.7422L97.293 25.8789C98.0951 27.2096 98.8151 28.6497 99.4531 30.1992C99.4896 29.4883 99.5078 28.349 99.5078 26.7812L99.4805 23.9648C99.4622 23.3451 99.4531 22.4701 99.4531 21.3398V21.0664C99.4531 20.2643 99.362 19.7174 99.1797 19.4258C99.125 19.3346 99.0977 19.2617 99.0977 19.207C99.0977 19.1159 99.1797 19.0703 99.3438 19.0703C99.6719 19.0703 100.055 19.1615 100.492 19.3438C100.93 19.526 101.148 19.7448 101.148 20V25.3047C101.148 27.4557 101.139 28.9141 101.121 29.6797C101.048 32.8151 100.428 35.4128 99.2617 37.4727C98.0951 39.5143 96.3359 41.2461 93.9844 42.668L93.8477 42.75C93.556 42.9323 93.3008 43.0234 93.082 43.0234C92.9362 43.0234 92.8633 42.9688 92.8633 42.8594Z" fill="#333333"/>
<path d="M162.316 30.582C162.189 30.582 162.052 30.5 161.906 30.3359C161.797 30.2083 161.724 30.1081 161.688 30.0352C161.651 29.944 161.651 29.8255 161.688 29.6797L161.715 29.0234C161.733 28.8958 161.742 28.5859 161.742 28.0938V27.1914L160.922 27.5742L159.965 27.9844C159.728 28.0755 159.482 28.1849 159.227 28.3125C159.008 28.4219 158.816 28.4766 158.652 28.4766C158.525 28.4583 158.379 28.4128 158.215 28.3398C158.051 28.2669 157.923 28.2031 157.832 28.1484C157.632 28.0208 157.54 27.8841 157.559 27.7383L157.641 27.4648C157.641 27.319 157.65 27.1914 157.668 27.082L157.695 25.4961V24.0195C157.695 23.7279 157.677 23.4818 157.641 23.2812C157.604 23.0625 157.577 22.9076 157.559 22.8164C157.559 22.7253 157.586 22.6615 157.641 22.625C157.659 22.6068 157.704 22.5977 157.777 22.5977C157.905 22.5977 158.151 22.6797 158.516 22.8438C158.826 22.9896 158.953 23.1719 158.898 23.3906C158.862 23.5182 158.826 23.7096 158.789 23.9648L158.707 27.1094C158.707 27.2005 158.716 27.2734 158.734 27.3281C158.771 27.3646 158.807 27.3828 158.844 27.3828C159.062 27.3828 159.327 27.319 159.637 27.1914C160.22 27.0091 160.721 26.8268 161.141 26.6445L161.742 26.3984V24.5938C161.742 23.8646 161.697 23.1628 161.605 22.4883C161.587 22.4336 161.578 22.3698 161.578 22.2969C161.578 22.1146 161.651 22.0234 161.797 22.0234C161.815 22.0234 161.915 22.0599 162.098 22.1328C162.371 22.2786 162.572 22.4062 162.699 22.5156C162.827 22.625 162.9 22.6888 162.918 22.707C162.991 22.7617 163.027 22.8164 163.027 22.8711C163.027 22.9076 163.009 22.9531 162.973 23.0078C162.954 23.0625 162.936 23.1081 162.918 23.1445L162.836 23.9648L162.809 26.4805L162.836 28.9141C162.836 29.3333 162.809 29.6979 162.754 30.0078C162.663 30.3906 162.517 30.582 162.316 30.582ZM157.285 36.707C157.085 36.707 156.839 36.5521 156.547 36.2422C156.328 36.0234 156.219 35.8594 156.219 35.75C156.219 35.6953 156.255 35.668 156.328 35.668C156.401 35.6497 156.492 35.6406 156.602 35.6406L157.203 35.6133C157.549 35.6133 157.777 35.6042 157.887 35.5859C158.233 35.5859 158.525 35.5768 158.762 35.5586C160.329 35.4128 161.387 35.2943 161.934 35.2031C162.207 35.1667 162.453 35.1302 162.672 35.0938C162.891 35.0391 163.064 35.0117 163.191 35.0117C163.447 35.0117 163.702 35.1393 163.957 35.3945C164.158 35.5951 164.258 35.7591 164.258 35.8867C164.258 35.9961 164.194 36.069 164.066 36.1055C163.975 36.1237 163.438 36.1602 162.453 36.2148C161.906 36.2331 161.232 36.2786 160.43 36.3516C159.628 36.4245 158.926 36.4974 158.324 36.5703C158.215 36.5885 158.06 36.6159 157.859 36.6523C157.659 36.6888 157.467 36.707 157.285 36.707ZM168.742 27.6289C168.961 27.6289 169.07 27.7292 169.07 27.9297C169.07 28.0391 168.97 28.194 168.77 28.3945C168.223 29.069 167.138 30.3542 165.516 32.25C165.388 32.4141 165.27 32.4961 165.16 32.4961C165.069 32.4961 164.868 32.3594 164.559 32.0859C164.303 31.8672 164.176 31.6849 164.176 31.5391C164.176 31.375 164.312 31.2201 164.586 31.0742C165.005 30.8372 165.634 30.3633 166.473 29.6523C167.311 28.9049 167.931 28.3125 168.332 27.875C168.496 27.7109 168.633 27.6289 168.742 27.6289ZM151.242 27.793C151.479 27.793 151.762 27.875 152.09 28.0391C152.418 28.2031 152.582 28.431 152.582 28.7227C152.582 28.8685 152.527 29.0143 152.418 29.1602C152.309 29.2878 152.245 29.3698 152.227 29.4062C151.206 32.0859 149.921 34.4375 148.371 36.4609C149.993 38.2292 152.062 39.8424 154.578 41.3008C154.943 41.5013 155.125 41.6654 155.125 41.793C155.125 41.9753 154.943 42.2214 154.578 42.5312C154.232 42.8411 153.958 42.9961 153.758 42.9961C153.557 42.9961 153.083 42.7227 152.336 42.1758C151.589 41.6471 150.75 40.9727 149.82 40.1523C148.891 39.332 148.061 38.5208 147.332 37.7188C146.129 39.0859 144.944 40.1706 143.777 40.9727C142.611 41.7565 141.626 42.3034 140.824 42.6133C140.022 42.9232 139.521 43.0781 139.32 43.0781C139.102 43.0781 138.992 43.0143 138.992 42.8867C138.992 42.668 139.275 42.3945 139.84 42.0664C142.228 40.7721 144.388 38.9128 146.32 36.4883C145.081 34.9388 143.96 33.2253 142.957 31.3477C142.465 33.4622 141.845 35.3216 141.098 36.9258C140.368 38.5117 139.658 39.7422 138.965 40.6172C138.29 41.4922 137.844 41.9297 137.625 41.9297C137.534 41.9297 137.488 41.8659 137.488 41.7383C137.488 41.5924 137.561 41.3737 137.707 41.082C138.874 39.0039 139.785 36.8802 140.441 34.7109C141.098 32.5234 141.544 30.5911 141.781 28.9141C142.018 27.237 142.21 25.4779 142.355 23.6367L141.453 23.7188C141.052 23.7552 140.77 23.7734 140.605 23.7734C140.241 23.7734 139.931 23.6914 139.676 23.5273C139.421 23.3451 139.193 22.9622 138.992 22.3789L138.965 22.2422C138.965 22.1146 139.038 22.0508 139.184 22.0508C139.275 22.0508 139.348 22.0599 139.402 22.0781C139.73 22.1693 140.077 22.2148 140.441 22.2148H140.688L149.246 21.5039H149.383C149.747 21.5039 150.066 21.5951 150.34 21.7773C150.613 21.9414 150.75 22.1419 150.75 22.3789C150.75 22.4883 150.695 22.625 150.586 22.7891C150.495 22.9349 150.431 23.0625 150.395 23.1719L148.508 27.957L150.859 27.8203L151.242 27.793ZM129.176 41.3281C129.176 41.1823 129.23 40.9453 129.34 40.6172C129.723 39.5417 130.124 38.0104 130.543 36.0234C130.598 35.75 130.652 35.5677 130.707 35.4766C130.78 35.3854 130.889 35.3398 131.035 35.3398C131.199 35.3398 131.4 35.3945 131.637 35.5039C131.874 35.5951 131.992 35.7318 131.992 35.9141C131.992 36.2604 131.892 37.0352 131.691 38.2383C131.491 39.4232 131.217 40.5352 130.871 41.5742C130.762 41.9935 130.598 42.2031 130.379 42.2031C130.178 42.2031 129.923 42.1029 129.613 41.9023C129.322 41.7201 129.176 41.5286 129.176 41.3281ZM129.422 32.8789C129.422 32.806 129.477 32.7148 129.586 32.6055C129.714 32.4961 129.841 32.3958 129.969 32.3047C130.115 32.2135 130.251 32.1133 130.379 32.0039C130.652 31.8216 131.163 31.3112 131.91 30.4727C132.676 29.6159 133.46 28.6953 134.262 27.7109L133.387 27.793C131.564 27.9753 130.488 28.0664 130.16 28.0664C129.978 28.0664 129.805 27.9388 129.641 27.6836C129.495 27.4284 129.422 27.1914 129.422 26.9727C129.422 26.8633 129.486 26.7721 129.613 26.6992C129.741 26.6263 129.832 26.5716 129.887 26.5352C130.215 26.3164 130.479 26.0885 130.68 25.8516C130.898 25.6328 131.299 25.1042 131.883 24.2656C132.484 23.4089 133.022 22.543 133.496 21.668C133.97 20.793 134.207 20.1367 134.207 19.6992C134.207 19.4805 134.307 19.3711 134.508 19.3711C134.599 19.3711 134.754 19.4349 134.973 19.5625C135.21 19.6719 135.419 19.8177 135.602 20C135.784 20.1641 135.875 20.3281 135.875 20.4922C135.875 20.7292 135.811 20.9661 135.684 21.2031C135.574 21.4219 135.51 21.5495 135.492 21.5859C135.237 22.0599 134.736 22.8346 133.988 23.9102C133.259 24.9674 132.585 25.8607 131.965 26.5898C132.803 26.5169 133.97 26.3893 135.465 26.207C136.65 24.6029 137.242 23.6367 137.242 23.3086C137.242 23.0169 137.324 22.8711 137.488 22.8711C137.689 22.8711 137.953 22.9987 138.281 23.2539C138.609 23.5091 138.773 23.7643 138.773 24.0195C138.773 24.0924 138.719 24.2201 138.609 24.4023C138.5 24.5664 138.418 24.7031 138.363 24.8125C137.944 25.5417 136.996 26.8086 135.52 28.6133C134.043 30.418 132.931 31.6393 132.184 32.2773C132.749 32.1862 134.234 31.849 136.641 31.2656L136.094 30.1719C135.984 30.0078 135.93 29.862 135.93 29.7344C135.93 29.5703 136.021 29.4336 136.203 29.3242C136.404 29.2148 136.595 29.1602 136.777 29.1602C137.069 29.1602 137.279 29.2695 137.406 29.4883C137.716 29.8711 138.099 30.5273 138.555 31.457C139.01 32.3867 139.238 32.9427 139.238 33.125C139.238 33.3802 139.083 33.5807 138.773 33.7266C138.482 33.8542 138.236 33.918 138.035 33.918C137.944 33.918 137.871 33.8906 137.816 33.8359C137.762 33.7812 137.707 33.6719 137.652 33.5078L137.215 32.5508L136.285 32.7695C135.173 33.0612 134.016 33.3529 132.812 33.6445C131.609 33.918 130.844 34.0547 130.516 34.0547C130.224 34.0365 129.969 33.8906 129.75 33.6172C129.531 33.3438 129.422 33.0977 129.422 32.8789ZM133.004 35.3672C133.004 35.1484 133.113 35.0026 133.332 34.9297C133.551 34.8568 133.742 34.8203 133.906 34.8203C134.052 34.8203 134.161 34.875 134.234 34.9844C134.326 35.0755 134.408 35.2396 134.48 35.4766L134.645 36.2695C135.155 38.457 135.41 39.7422 135.41 40.125C135.41 40.4349 135.255 40.6536 134.945 40.7812C134.654 40.8906 134.417 40.9453 134.234 40.9453C134.07 40.9453 133.952 40.8815 133.879 40.7539C133.806 40.6081 133.751 40.3893 133.715 40.0977C133.533 38.293 133.323 36.9167 133.086 35.9688C133.031 35.75 133.004 35.5495 133.004 35.3672ZM135.738 34.7383C135.738 34.5378 135.848 34.3919 136.066 34.3008C136.285 34.1914 136.486 34.1367 136.668 34.1367C136.85 34.1367 136.996 34.2643 137.105 34.5195C137.598 35.6497 137.971 36.6068 138.227 37.3906C138.281 37.5547 138.309 37.6914 138.309 37.8008C138.309 38.0195 138.181 38.2018 137.926 38.3477C137.689 38.4935 137.452 38.5664 137.215 38.5664C137.069 38.5664 136.96 38.5208 136.887 38.4297C136.814 38.3203 136.75 38.1654 136.695 37.9648C136.422 36.7253 136.13 35.7682 135.82 35.0938C135.766 34.9479 135.738 34.8294 135.738 34.7383ZM146.676 28.0664L148.562 23.1172L144.023 23.5C143.914 25.1224 143.75 26.7083 143.531 28.2578L146.676 28.0664ZM143.75 29.7344C144.88 31.8307 146.056 33.6536 147.277 35.2031C148.553 33.3802 149.547 31.4388 150.258 29.3789L143.75 29.7344Z" fill="#333333"/>
<path d="M204.316 27.3008C204.189 27.3008 204.052 27.2188 203.906 27.0547C203.797 26.9271 203.724 26.8268 203.688 26.7539C203.651 26.6628 203.651 26.5443 203.688 26.3984L203.715 25.7422C203.733 25.6146 203.742 25.3047 203.742 24.8125V23.9102L202.922 24.293L201.965 24.7031C201.728 24.7943 201.482 24.9036 201.227 25.0312C201.008 25.1406 200.816 25.1953 200.652 25.1953C200.525 25.1771 200.379 25.1315 200.215 25.0586C200.051 24.9857 199.923 24.9219 199.832 24.8672C199.632 24.7396 199.54 24.6029 199.559 24.457L199.641 24.1836C199.641 24.0378 199.65 23.9102 199.668 23.8008L199.695 22.2148V20.7383C199.695 20.4466 199.677 20.2005 199.641 20C199.604 19.7812 199.577 19.6263 199.559 19.5352C199.559 19.444 199.586 19.3802 199.641 19.3438C199.659 19.3255 199.704 19.3164 199.777 19.3164C199.905 19.3164 200.151 19.3984 200.516 19.5625C200.826 19.7083 200.953 19.8906 200.898 20.1094C200.862 20.237 200.826 20.4284 200.789 20.6836L200.707 23.8281C200.707 23.9193 200.716 23.9922 200.734 24.0469C200.771 24.0833 200.807 24.1016 200.844 24.1016C201.062 24.1016 201.327 24.0378 201.637 23.9102C202.22 23.7279 202.721 23.5456 203.141 23.3633L203.742 23.1172V21.3125C203.742 20.5833 203.697 19.8815 203.605 19.207C203.587 19.1523 203.578 19.0885 203.578 19.0156C203.578 18.8333 203.651 18.7422 203.797 18.7422C203.815 18.7422 203.915 18.7786 204.098 18.8516C204.371 18.9974 204.572 19.125 204.699 19.2344C204.827 19.3438 204.9 19.4076 204.918 19.4258C204.991 19.4805 205.027 19.5352 205.027 19.5898C205.027 19.6263 205.009 19.6719 204.973 19.7266C204.954 19.7812 204.936 19.8268 204.918 19.8633L204.836 20.6836L204.809 23.1992L204.836 25.6328C204.836 26.0521 204.809 26.4167 204.754 26.7266C204.663 27.1094 204.517 27.3008 204.316 27.3008ZM199.285 31.7852C199.085 31.7852 198.839 31.6302 198.547 31.3203C198.328 31.1016 198.219 30.9375 198.219 30.8281C198.219 30.7734 198.255 30.7461 198.328 30.7461C198.401 30.7279 198.492 30.7188 198.602 30.7188L199.203 30.6914C199.549 30.6914 199.777 30.6823 199.887 30.6641C200.233 30.6641 200.525 30.6549 200.762 30.6367C202.329 30.4909 203.387 30.3724 203.934 30.2812C204.207 30.2448 204.453 30.2083 204.672 30.1719C204.891 30.1172 205.064 30.0898 205.191 30.0898C205.447 30.0898 205.702 30.2174 205.957 30.4727C206.158 30.6732 206.258 30.8372 206.258 30.9648C206.258 31.0742 206.194 31.1471 206.066 31.1836C205.975 31.2018 205.438 31.2383 204.453 31.293C203.906 31.3112 203.232 31.3568 202.43 31.4297C201.628 31.5026 200.926 31.5755 200.324 31.6484C200.215 31.6667 200.06 31.694 199.859 31.7305C199.659 31.7669 199.467 31.7852 199.285 31.7852ZM199.121 42.6953C198.848 42.6953 198.638 42.6224 198.492 42.4766C198.328 42.3125 198.246 42.1667 198.246 42.0391C198.246 41.9115 198.319 41.7747 198.465 41.6289C198.483 41.6107 198.583 41.4648 198.766 41.1914C199.167 40.5534 199.622 39.7422 200.133 38.7578C200.661 37.7552 200.99 37.0716 201.117 36.707C201.227 36.3607 201.327 36.0599 201.418 35.8047C201.527 35.5495 201.618 35.4219 201.691 35.4219C201.819 35.4219 201.928 35.4674 202.02 35.5586C202.111 35.6315 202.202 35.7409 202.293 35.8867C202.402 36.0143 202.484 36.1055 202.539 36.1602C202.667 36.306 202.73 36.4427 202.73 36.5703C202.73 36.6615 202.694 36.7526 202.621 36.8438C202.548 36.9349 202.503 36.9987 202.484 37.0352L201.281 39.0586C200.971 39.6237 200.561 40.3255 200.051 41.1641C199.978 41.2552 199.941 41.3464 199.941 41.4375C199.941 41.5104 200.023 41.5469 200.188 41.5469C200.534 41.5469 201.181 41.5013 202.129 41.4102C203.077 41.3372 203.715 41.2734 204.043 41.2188C204.517 41.1641 204.845 41.1094 205.027 41.0547C205.228 41 205.52 41.1367 205.902 41.4648C206.358 41.8477 206.458 42.0938 206.203 42.2031C206.057 42.276 205.775 42.3125 205.355 42.3125H204.262C204.025 42.3125 203.651 42.3307 203.141 42.3672C202.831 42.3672 202.484 42.3763 202.102 42.3945C201.719 42.4128 201.4 42.431 201.145 42.4492C200.853 42.4674 200.288 42.5221 199.449 42.6133L199.121 42.6953ZM182.605 42.1211C182.204 42.1211 181.858 42.0208 181.566 41.8203C181.275 41.638 181.029 41.237 180.828 40.6172C180.81 40.5807 180.801 40.526 180.801 40.4531C180.801 40.3438 180.855 40.2891 180.965 40.2891C180.983 40.2891 181.047 40.3073 181.156 40.3438C181.63 40.526 182.132 40.6172 182.66 40.6172L187.691 40.4531L187.773 36.2695L185.477 36.3516L184.629 36.3789C184.137 36.3789 183.79 36.2786 183.59 36.0781C183.408 35.8958 183.243 35.668 183.098 35.3945C182.97 35.1211 182.906 34.9297 182.906 34.8203C182.906 34.7292 182.952 34.6836 183.043 34.6836L183.289 34.7383C183.69 34.8659 184.091 34.9297 184.492 34.9297H184.711L191.328 34.6562C191.802 34.6198 192.285 34.5469 192.777 34.4375H192.914C193.169 34.4375 193.479 34.5833 193.844 34.875C194.227 35.1667 194.418 35.431 194.418 35.668C194.418 35.7773 194.372 35.8685 194.281 35.9414C194.208 36.0143 194.099 36.0508 193.953 36.0508L189.469 36.2148L189.387 40.3984L193.789 40.2617C194.372 40.2253 194.855 40.1432 195.238 40.0156C195.275 39.9974 195.329 39.9883 195.402 39.9883C195.585 39.9883 195.803 40.0703 196.059 40.2344C196.314 40.3984 196.533 40.5898 196.715 40.8086C196.915 41.0091 197.016 41.1641 197.016 41.2734C197.016 41.401 196.961 41.5013 196.852 41.5742C196.76 41.6654 196.642 41.7109 196.496 41.7109L183.262 42.0938L182.605 42.1211ZM171.449 41.1094C171.449 41.0182 171.504 40.8086 171.613 40.4805C171.868 39.8789 172.087 39.2409 172.27 38.5664C172.47 37.8919 172.689 37.0534 172.926 36.0508C172.98 35.8138 173.035 35.6497 173.09 35.5586C173.163 35.4674 173.272 35.4219 173.418 35.4219C173.6 35.4219 173.81 35.4766 174.047 35.5859C174.302 35.6771 174.43 35.8138 174.43 35.9961C174.43 36.306 174.311 37.026 174.074 38.1562C173.855 39.2682 173.564 40.362 173.199 41.4375C173.09 41.8385 172.926 42.0391 172.707 42.0391C172.507 42.0391 172.242 41.9297 171.914 41.7109C171.604 41.5104 171.449 41.3099 171.449 41.1094ZM172.023 32.8516C172.023 32.7604 172.096 32.6602 172.242 32.5508C172.388 32.4232 172.479 32.3503 172.516 32.332C172.734 32.1862 172.889 32.0677 172.98 31.9766C173.236 31.776 173.737 31.2474 174.484 30.3906C175.232 29.5339 175.979 28.6224 176.727 27.6562L175.824 27.7383C174.074 27.9206 173.053 28.0117 172.762 28.0117C172.579 28.0117 172.415 27.8932 172.27 27.6562C172.124 27.401 172.051 27.1549 172.051 26.918C172.051 26.8451 172.078 26.7812 172.133 26.7266C172.206 26.6719 172.27 26.6263 172.324 26.5898C172.397 26.5352 172.452 26.4987 172.488 26.4805C172.798 26.2617 173.053 26.0339 173.254 25.7969C173.473 25.5781 173.865 25.0495 174.43 24.2109C175.013 23.3542 175.533 22.4974 175.988 21.6406C176.444 20.7656 176.672 20.1094 176.672 19.6719C176.672 19.4531 176.772 19.3438 176.973 19.3438C177.046 19.3438 177.191 19.4076 177.41 19.5352C177.647 19.6445 177.857 19.7812 178.039 19.9453C178.221 20.1094 178.312 20.2643 178.312 20.4102C178.312 20.6471 178.249 20.8841 178.121 21.1211C178.012 21.3398 177.948 21.4674 177.93 21.5039C177.693 21.9779 177.219 22.7526 176.508 23.8281C175.797 24.8854 175.132 25.7878 174.512 26.5352C175.168 26.4805 176.289 26.3529 177.875 26.1523C178.987 24.6029 179.552 23.6458 179.57 23.2812C179.57 23.0078 179.643 22.8711 179.789 22.8711C179.99 22.8711 180.245 22.9987 180.555 23.2539C180.883 23.5091 181.047 23.7552 181.047 23.9922C181.047 24.1016 180.992 24.2474 180.883 24.4297C180.773 24.612 180.691 24.7396 180.637 24.8125C180.254 25.5052 179.361 26.7448 177.957 28.5312C176.553 30.3177 175.478 31.5482 174.73 32.2227C175.296 32.1497 176.708 31.8216 178.969 31.2383C178.677 30.5638 178.504 30.1992 178.449 30.1445C178.322 29.9987 178.276 29.862 178.312 29.7344C178.312 29.5521 178.404 29.4154 178.586 29.3242C178.768 29.2148 178.951 29.1602 179.133 29.1602C179.406 29.1602 179.607 29.2604 179.734 29.4609C180.044 29.862 180.409 30.5273 180.828 31.457C181.266 32.3685 181.484 32.9245 181.484 33.125C181.484 33.3802 181.339 33.5716 181.047 33.6992C180.755 33.8268 180.518 33.8906 180.336 33.8906C180.154 33.8724 180.017 33.7357 179.926 33.4805C179.871 33.2799 179.743 32.9609 179.543 32.5234L178.477 32.7969C177.438 33.0703 176.353 33.3438 175.223 33.6172C174.111 33.8724 173.4 34.0091 173.09 34.0273C172.816 34.0091 172.57 33.8633 172.352 33.5898C172.133 33.3164 172.023 33.0703 172.023 32.8516ZM175.496 35.4766C175.496 35.2396 175.605 35.0938 175.824 35.0391C176.061 34.9661 176.271 34.9297 176.453 34.9297C176.599 34.9297 176.708 34.9844 176.781 35.0938C176.872 35.1849 176.954 35.3398 177.027 35.5586C177.665 38.1107 177.984 39.6055 177.984 40.043C177.984 40.3711 177.829 40.5898 177.52 40.6992C177.228 40.8086 176.982 40.8633 176.781 40.8633C176.617 40.8633 176.499 40.7995 176.426 40.6719C176.353 40.5443 176.298 40.3438 176.262 40.0703C176.043 38.3021 175.815 36.9531 175.578 36.0234C175.523 35.8047 175.496 35.6224 175.496 35.4766ZM178.559 34.9297C178.559 34.8203 178.632 34.7018 178.777 34.5742C178.941 34.4284 179.178 34.3555 179.488 34.3555C179.707 34.3555 179.889 34.5104 180.035 34.8203C180.473 35.6589 180.846 36.5156 181.156 37.3906C181.484 38.2474 181.648 38.8125 181.648 39.0859C181.648 39.3776 181.503 39.5964 181.211 39.7422C180.938 39.8698 180.691 39.9336 180.473 39.9336C180.345 39.9336 180.236 39.8789 180.145 39.7695C180.072 39.6419 179.99 39.4414 179.898 39.168C179.589 37.9284 179.197 36.7253 178.723 35.5586C178.686 35.4674 178.65 35.3581 178.613 35.2305C178.577 35.1029 178.559 35.0026 178.559 34.9297ZM181.457 29.0508C181.457 28.8503 181.521 28.6771 181.648 28.5312C182.451 27.5833 183.007 26.8633 183.316 26.3711C183.626 25.8607 183.781 25.4232 183.781 25.0586C183.781 24.9128 183.772 24.8125 183.754 24.7578L183.727 24.6211C183.727 24.4023 183.845 24.293 184.082 24.293C184.283 24.293 184.611 24.4206 185.066 24.6758C185.522 24.9128 185.75 25.1315 185.75 25.332C185.75 25.4049 185.741 25.4505 185.723 25.4688C185.03 26.6354 184.128 27.8294 183.016 29.0508C183.708 29.7799 184.328 30.5182 184.875 31.2656C185.422 32.013 185.695 32.4596 185.695 32.6055C185.695 32.806 185.54 33.0065 185.23 33.207C184.939 33.3893 184.72 33.4805 184.574 33.4805C184.392 33.4805 184.201 33.2982 184 32.9336C183.344 31.7487 182.587 30.6732 181.73 29.707C181.548 29.5247 181.457 29.306 181.457 29.0508ZM181.84 21.8594C181.84 21.75 181.904 21.6953 182.031 21.6953C182.122 21.6953 182.195 21.7044 182.25 21.7227C182.669 21.7956 183.089 21.832 183.508 21.832H183.863L192.066 21.3125C192.522 21.276 193.042 21.1849 193.625 21.0391C193.661 21.0208 193.725 21.0117 193.816 21.0117C194.072 21.0117 194.391 21.1576 194.773 21.4492C195.156 21.7409 195.348 22.0143 195.348 22.2695C195.348 22.3789 195.302 22.4701 195.211 22.543C195.12 22.5977 195.001 22.6341 194.855 22.6523L184.574 23.2539C184.301 23.2721 183.964 23.2812 183.562 23.2812C183.18 23.2812 182.852 23.1992 182.578 23.0352C182.323 22.8529 182.132 22.6523 182.004 22.4336C181.895 22.1966 181.84 22.0052 181.84 21.8594ZM185.559 28.6953C185.559 28.4948 185.613 28.3307 185.723 28.2031C186.707 27.0365 187.336 26.2617 187.609 25.8789C187.883 25.4779 188.02 25.1042 188.02 24.7578C188.02 24.6667 188.01 24.5938 187.992 24.5391L187.965 24.3477C187.965 24.1471 188.065 24.0469 188.266 24.0469C188.521 24.0469 188.867 24.1836 189.305 24.457C189.742 24.7122 189.961 24.9401 189.961 25.1406C189.961 25.1953 189.943 25.2409 189.906 25.2773C189.505 25.8971 189.104 26.444 188.703 26.918C188.32 27.3737 187.801 27.9661 187.145 28.6953C187.199 28.75 187.682 29.2604 188.594 30.2266C189.523 31.1927 189.988 31.8672 189.988 32.25C189.988 32.4323 189.833 32.6146 189.523 32.7969C189.232 32.9792 189.013 33.0703 188.867 33.0703C188.685 33.0703 188.484 32.8971 188.266 32.5508C187.591 31.457 186.771 30.3997 185.805 29.3789C185.641 29.2148 185.559 28.987 185.559 28.6953ZM189.797 28.6406C189.797 28.4401 189.852 28.276 189.961 28.1484C190.891 27.1094 191.51 26.3346 191.82 25.8242C192.13 25.2956 192.285 24.8307 192.285 24.4297V24.293L192.258 24.1016C192.258 23.901 192.358 23.8008 192.559 23.8008C192.814 23.8008 193.16 23.9284 193.598 24.1836C194.035 24.4206 194.254 24.6484 194.254 24.8672C194.254 24.9036 194.236 24.9583 194.199 25.0312C193.27 26.4896 192.331 27.6927 191.383 28.6406C192.13 29.2786 192.814 29.9531 193.434 30.6641C194.053 31.3568 194.363 31.8125 194.363 32.0312C194.363 32.2318 194.217 32.4232 193.926 32.6055C193.689 32.7878 193.488 32.8789 193.324 32.8789C193.215 32.8789 193.115 32.8424 193.023 32.7695C192.951 32.6784 192.841 32.5417 192.695 32.3594C192.021 31.4297 191.137 30.418 190.043 29.3242C189.879 29.1237 189.797 28.8958 189.797 28.6406Z" fill="#333333"/>
<path d="M241.285 27.1367C241.085 27.1367 240.839 26.9818 240.547 26.6719C240.328 26.4531 240.219 26.2891 240.219 26.1797C240.219 26.125 240.255 26.0977 240.328 26.0977C240.401 26.0794 240.492 26.0703 240.602 26.0703L241.203 26.043C241.549 26.043 241.777 26.0339 241.887 26.0156C242.233 26.0156 242.525 26.0065 242.762 25.9883C244.329 25.8424 245.387 25.724 245.934 25.6328C246.207 25.5964 246.453 25.5599 246.672 25.5234C246.891 25.4688 247.064 25.4414 247.191 25.4414C247.447 25.4414 247.702 25.569 247.957 25.8242C248.158 26.0247 248.258 26.1888 248.258 26.3164C248.258 26.4258 248.194 26.4987 248.066 26.5352C247.975 26.5534 247.438 26.5898 246.453 26.6445C245.906 26.6628 245.232 26.7083 244.43 26.7812C243.628 26.8542 242.926 26.9271 242.324 27C242.215 27.0182 242.06 27.0456 241.859 27.082C241.659 27.1185 241.467 27.1367 241.285 27.1367ZM241.121 39.6875C240.848 39.6875 240.638 39.6146 240.492 39.4688C240.328 39.3047 240.246 39.1589 240.246 39.0312C240.246 38.9036 240.319 38.7669 240.465 38.6211C240.483 38.6029 240.583 38.457 240.766 38.1836C241.167 37.5456 241.622 36.7344 242.133 35.75C242.661 34.7474 242.99 34.0638 243.117 33.6992C243.227 33.3529 243.327 33.0521 243.418 32.7969C243.527 32.5417 243.618 32.4141 243.691 32.4141C243.819 32.4141 243.928 32.4596 244.02 32.5508C244.111 32.6237 244.202 32.7331 244.293 32.8789C244.402 33.0065 244.484 33.0977 244.539 33.1523C244.667 33.2982 244.73 33.4349 244.73 33.5625C244.73 33.6536 244.694 33.7448 244.621 33.8359C244.548 33.9271 244.503 33.9909 244.484 34.0273L243.281 36.0508C242.971 36.6159 242.561 37.3177 242.051 38.1562C241.978 38.2474 241.941 38.3385 241.941 38.4297C241.941 38.5026 242.023 38.5391 242.188 38.5391C242.534 38.5391 243.181 38.5026 244.129 38.4297C245.077 38.3385 245.715 38.2656 246.043 38.2109C246.517 38.1562 246.845 38.1016 247.027 38.0469C247.228 37.9922 247.52 38.1289 247.902 38.457C248.358 38.8398 248.458 39.0859 248.203 39.1953C248.057 39.2682 247.775 39.3047 247.355 39.3047H246.262C246.025 39.3047 245.651 39.3229 245.141 39.3594C244.831 39.3594 244.484 39.3685 244.102 39.3867C243.719 39.4049 243.4 39.4232 243.145 39.4414C242.853 39.4596 242.288 39.5143 241.449 39.6055L241.121 39.6875ZM252.742 27.6289C252.961 27.6289 253.07 27.7292 253.07 27.9297C253.07 28.0391 252.97 28.194 252.77 28.3945C252.223 29.069 251.138 30.3542 249.516 32.25C249.388 32.4141 249.27 32.4961 249.16 32.4961C249.069 32.4961 248.868 32.3594 248.559 32.0859C248.303 31.8672 248.176 31.6849 248.176 31.5391C248.176 31.375 248.312 31.2201 248.586 31.0742C249.005 30.8372 249.634 30.3633 250.473 29.6523C251.311 28.9049 251.931 28.3125 252.332 27.875C252.496 27.7109 252.633 27.6289 252.742 27.6289ZM220.477 43.2969V43.4062C220.477 43.7161 220.34 43.8711 220.066 43.8711C219.811 43.8711 219.52 43.7708 219.191 43.5703C218.863 43.388 218.699 43.1602 218.699 42.8867V42.6953C218.717 42.5312 218.727 42.2852 218.727 41.957C218.727 41.6289 218.708 41.3555 218.672 41.1367L218.398 38.7852C218.344 38.3477 218.207 37.901 217.988 37.4453C217.915 37.3177 217.879 37.1992 217.879 37.0898C217.879 36.9622 217.961 36.8984 218.125 36.8984C218.417 36.8984 219.027 37.0807 219.957 37.4453L223.02 37.3359C223.658 36.5156 224.04 35.8594 224.168 35.3672L221.434 35.4766L221.461 35.7227V35.8047C221.461 36.1328 221.315 36.2969 221.023 36.2969C220.768 36.2969 220.477 36.2057 220.148 36.0234C219.839 35.8229 219.684 35.5951 219.684 35.3398L219.711 35.0938C219.729 34.9661 219.738 34.8021 219.738 34.6016C219.738 34.3281 219.72 34.082 219.684 33.8633L219.438 32.1133C219.383 31.694 219.264 31.3294 219.082 31.0195C218.973 30.8372 218.918 30.7096 218.918 30.6367C218.918 30.5091 219.018 30.4453 219.219 30.4453C219.51 30.4453 220.094 30.6003 220.969 30.9102L230.293 30.418H230.594C230.94 30.418 231.259 30.5365 231.551 30.7734C231.842 30.9922 231.988 31.1927 231.988 31.375C231.988 31.4479 231.952 31.5482 231.879 31.6758C231.806 31.8034 231.76 31.9128 231.742 32.0039L231.277 33.7812C231.751 34.2552 231.988 34.5833 231.988 34.7656C231.988 34.875 231.934 34.9479 231.824 34.9844C231.715 35.0208 231.533 35.0482 231.277 35.0664L225.535 35.3125C225.736 35.513 225.836 35.6862 225.836 35.832C225.836 35.9232 225.727 36.1146 225.508 36.4062C225.307 36.6797 225.061 36.9622 224.77 37.2539L232.043 36.9805H232.371C232.717 36.9805 233.027 37.0898 233.301 37.3086C233.574 37.5273 233.711 37.7461 233.711 37.9648C233.711 38.0378 233.674 38.138 233.602 38.2656C233.547 38.3932 233.51 38.4935 233.492 38.5664L232.863 40.8906C233.374 41.474 233.629 41.8659 233.629 42.0664C233.629 42.1758 233.556 42.2487 233.41 42.2852C233.283 42.3398 233.055 42.3763 232.727 42.3945L220.422 42.6406L220.477 43.2969ZM213.914 32.168C213.914 32.0768 213.941 31.9766 213.996 31.8672C214.361 31.1745 214.689 30.3997 214.98 29.543C215.272 28.668 215.482 27.8112 215.609 26.9727C215.646 26.7539 215.691 26.6081 215.746 26.5352C215.801 26.4622 215.892 26.4258 216.02 26.4258C216.311 26.4258 216.557 26.4805 216.758 26.5898C216.958 26.681 217.059 26.8359 217.059 27.0547L217.031 27.2734C217.013 27.4375 216.967 27.7018 216.895 28.0664L217.168 28.0391C217.113 28.0026 217.086 27.9661 217.086 27.9297C217.086 27.8568 217.132 27.7474 217.223 27.6016C217.332 27.4557 217.478 27.3099 217.66 27.1641C218.681 26.2891 219.328 25.3776 219.602 24.4297C219.893 23.4818 220.039 22.5065 220.039 21.5039C220.039 20.8477 220.012 20.3737 219.957 20.082C219.902 19.7721 219.811 19.4896 219.684 19.2344C219.629 19.125 219.602 19.043 219.602 18.9883C219.602 18.8607 219.711 18.7969 219.93 18.7969C220.112 18.7969 220.395 18.8516 220.777 18.9609C221.142 19.0703 221.37 19.1797 221.461 19.2891C221.57 19.3984 221.625 19.5716 221.625 19.8086C221.625 20.9023 221.589 21.8138 221.516 22.543C222.227 22.0508 222.764 21.6133 223.129 21.2305C223.493 20.8477 223.712 20.474 223.785 20.1094C223.822 19.8906 223.904 19.7812 224.031 19.7812C224.177 19.7812 224.414 19.9544 224.742 20.3008C225.089 20.6471 225.262 20.9023 225.262 21.0664C225.262 21.3581 224.797 21.7865 223.867 22.3516C222.956 22.9167 222.072 23.4271 221.215 23.8828C222.491 24.5755 223.667 25.3047 224.742 26.0703C224.979 26.2344 225.098 26.4076 225.098 26.5898C225.098 26.7904 224.988 27.0091 224.77 27.2461C224.569 27.4831 224.414 27.6198 224.305 27.6562L233.219 27.1914C233.055 27.0273 232.645 26.6992 231.988 26.207C231.35 25.6966 230.694 25.2227 230.02 24.7852C229.29 25.8242 228.279 26.6445 226.984 27.2461C226.948 27.2643 226.857 27.3008 226.711 27.3555C226.51 27.4466 226.328 27.4922 226.164 27.4922C226.018 27.4922 225.945 27.4375 225.945 27.3281C225.945 27.1458 226.164 26.8906 226.602 26.5625C227.495 25.9062 228.151 25.2318 228.57 24.5391C228.99 23.8464 229.254 23.1536 229.363 22.4609C229.491 21.7682 229.555 20.9206 229.555 19.918C229.555 19.444 229.464 19.0977 229.281 18.8789C229.19 18.7878 229.145 18.6875 229.145 18.5781C229.145 18.4505 229.254 18.3867 229.473 18.3867C229.728 18.3867 230.065 18.4688 230.484 18.6328C230.904 18.7786 231.113 19.0156 231.113 19.3438C231.113 20.4375 231.059 21.3945 230.949 22.2148C232.28 21.3581 232.973 20.5924 233.027 19.918C233.064 19.6992 233.155 19.5898 233.301 19.5898C233.374 19.5898 233.52 19.6628 233.738 19.8086C233.975 19.9544 234.185 20.1276 234.367 20.3281C234.549 20.5286 234.641 20.7109 234.641 20.875C234.641 21.0573 234.285 21.4128 233.574 21.9414C232.882 22.4518 231.897 23.0078 230.621 23.6094C232.243 24.5208 233.283 25.1497 233.738 25.4961C234.212 25.8424 234.449 26.1068 234.449 26.2891C234.449 26.4349 234.395 26.5898 234.285 26.7539C234.176 26.918 234.076 27.0456 233.984 27.1367L235.789 27.0273H236.172C236.518 27.0273 236.81 27.1367 237.047 27.3555C237.302 27.5742 237.43 27.7747 237.43 27.957C237.43 28.1029 237.375 28.2305 237.266 28.3398C237.156 28.4492 237.083 28.5221 237.047 28.5586C236.445 29.3607 235.743 30.1536 234.941 30.9375C234.158 31.7214 233.62 32.1133 233.328 32.1133C233.219 32.1133 233.164 32.0495 233.164 31.9219C233.164 31.7214 233.292 31.457 233.547 31.1289C234.276 30.0716 234.814 29.1966 235.16 28.5039L216.566 29.4609C216.293 30.5365 215.947 31.6029 215.527 32.6602C215.418 32.9518 215.245 33.0977 215.008 33.0977C214.698 33.0065 214.434 32.888 214.215 32.7422C214.014 32.5781 213.914 32.3867 213.914 32.168ZM216.184 21.0938C216.184 20.9479 216.293 20.8112 216.512 20.6836C216.73 20.5378 216.885 20.4648 216.977 20.4648C217.141 20.4648 217.396 20.7018 217.742 21.1758C218.089 21.6315 218.398 22.1419 218.672 22.707C218.964 23.2539 219.109 23.6276 219.109 23.8281C219.109 24.0286 218.991 24.2109 218.754 24.375C218.517 24.5391 218.307 24.6211 218.125 24.6211C217.997 24.6211 217.897 24.5755 217.824 24.4844C217.751 24.3932 217.678 24.2474 217.605 24.0469C217.259 23.0807 216.849 22.2331 216.375 21.5039C216.247 21.3034 216.184 21.1667 216.184 21.0938ZM224.141 27.6836C223.995 27.6471 223.849 27.5469 223.703 27.3828C222.755 26.526 221.789 25.7604 220.805 25.0859C220.094 26.4531 218.982 27.4375 217.469 28.0391L224.141 27.6836ZM220.258 41.1641L231.195 40.918L231.688 38.4023L220.012 38.8398L220.258 41.1641ZM221.27 34.1914L229.691 33.8359L230.074 31.8398L221.051 32.2773L221.27 34.1914ZM225.754 20.5195C225.754 20.3555 225.854 20.2188 226.055 20.1094C226.255 19.9818 226.438 19.918 226.602 19.918C226.802 19.918 227.066 20.1458 227.395 20.6016C227.723 21.0573 228.023 21.5677 228.297 22.1328C228.57 22.6797 228.707 23.0169 228.707 23.1445C228.707 23.3451 228.589 23.5182 228.352 23.6641C228.115 23.8099 227.896 23.8828 227.695 23.8828C227.641 23.8828 227.559 23.8646 227.449 23.8281C227.303 23.737 227.194 23.582 227.121 23.3633C226.829 22.3971 226.447 21.6042 225.973 20.9844C225.827 20.8021 225.754 20.6471 225.754 20.5195Z" fill="#333333"/>
<path d="M287.902 24.5035C287.64 23.518 286.869 22.742 285.89 22.4786C284.116 22 277 22 277 22C277 22 269.884 22 268.109 22.4786C267.13 22.742 266.359 23.518 266.098 24.5035C265.622 26.2896 265.622 30.0162 265.622 30.0162C265.622 30.0162 265.622 33.7427 266.098 35.5289C266.359 36.5143 267.13 37.258 268.109 37.5214C269.884 38 277 38 277 38C277 38 284.116 38 285.89 37.5214C286.869 37.258 287.64 36.5143 287.902 35.5289C288.378 33.7427 288.378 30.0162 288.378 30.0162C288.378 30.0162 288.378 26.2896 287.902 24.5035V24.5035ZM274.673 33.3996V26.6327L280.62 30.0163L274.673 33.3996V33.3996Z" fill="#FF0000"/>
</svg>
