<svg width="340" height="60" viewBox="0 0 340 60" fill="none" xmlns="http://www.w3.org/2000/svg">
<path d="M118.293 30.6367C118.038 30.6367 117.846 30.5547 117.719 30.3906C117.555 30.0807 117.217 29.7435 116.707 29.3789L116.762 29.2422C117.327 29.4792 117.801 29.5977 118.184 29.5977C118.421 29.5977 118.621 29.4609 118.785 29.1875C118.967 28.8958 119.159 28.4766 119.359 27.9297C119.596 27.2552 119.724 26.6901 119.742 26.2344C119.742 26.1797 119.715 26.1341 119.66 26.0977C119.605 26.043 119.56 26.0156 119.523 26.0156C119.359 25.9974 119.049 26.0247 118.594 26.0977L118.02 26.1797C117.855 26.1979 117.664 26.2344 117.445 26.2891C117.245 26.3438 117.081 26.3802 116.953 26.3984C116.88 26.4167 116.762 26.4531 116.598 26.5078C116.434 26.5625 116.315 26.5898 116.242 26.5898C116.151 26.5898 116.042 26.5443 115.914 26.4531C115.805 26.3438 115.704 26.2253 115.613 26.0977C115.595 26.0794 115.586 26.043 115.586 25.9883C115.586 25.9154 115.641 25.8242 115.75 25.7148C115.878 25.5872 115.978 25.487 116.051 25.4141C116.142 25.3047 116.233 25.1771 116.324 25.0312C116.415 24.8672 116.488 24.7487 116.543 24.6758C116.634 24.5299 116.707 24.3568 116.762 24.1562L116.816 23.9102C116.816 23.8919 116.807 23.8464 116.789 23.7734C116.771 23.6823 116.734 23.6367 116.68 23.6367C115.951 23.7279 115.413 23.8372 115.066 23.9648C114.993 24.0013 114.884 24.0378 114.738 24.0742C114.611 24.0742 114.501 24.0195 114.41 23.9102C114.355 23.8919 114.246 23.7461 114.082 23.4727C114.009 23.3997 113.973 23.3359 113.973 23.2812C113.973 23.1536 114.164 23.0807 114.547 23.0625L115.066 23.0078C115.158 23.0078 115.349 22.9896 115.641 22.9531C116.224 22.8984 117.035 22.8346 118.074 22.7617C118.439 22.7435 119.068 22.6979 119.961 22.625C120.216 22.6068 120.526 22.5703 120.891 22.5156C121.091 22.4609 121.219 22.4336 121.273 22.4336C121.365 22.4336 121.456 22.4701 121.547 22.543C121.638 22.5794 121.757 22.6523 121.902 22.7617C122.048 22.8529 122.158 22.9531 122.23 23.0625C122.303 23.1536 122.34 23.2448 122.34 23.3359C122.34 23.4271 122.294 23.4909 122.203 23.5273C122.112 23.5638 121.993 23.5638 121.848 23.5273C121.629 23.4727 121.374 23.4362 121.082 23.418C120.809 23.3997 120.645 23.3906 120.59 23.3906C119.97 23.3724 119.195 23.3997 118.266 23.4727C118.01 23.5091 117.819 23.5273 117.691 23.5273C117.801 23.6185 117.901 23.7643 117.992 23.9648V24.0195C117.992 24.0742 117.965 24.1471 117.91 24.2383C117.855 24.3294 117.792 24.3932 117.719 24.4297C117.628 24.4844 117.518 24.612 117.391 24.8125C117.263 25.013 117.181 25.1406 117.145 25.1953C117.035 25.3411 116.98 25.4596 116.98 25.5508C116.98 25.6237 117.053 25.651 117.199 25.6328C117.327 25.6146 117.591 25.5781 117.992 25.5234C118.411 25.4505 118.721 25.3867 118.922 25.332C118.977 25.3138 119.059 25.2956 119.168 25.2773C119.296 25.2591 119.441 25.2227 119.605 25.168C119.733 25.1497 119.861 25.1771 119.988 25.25C120.134 25.3229 120.353 25.4779 120.645 25.7148C120.863 25.8789 120.973 26.0247 120.973 26.1523C120.973 26.2435 120.936 26.3346 120.863 26.4258C120.79 26.5534 120.736 26.7266 120.699 26.9453C120.535 27.7109 120.344 28.3307 120.125 28.8047C119.961 29.1328 119.806 29.4062 119.66 29.625C119.514 29.8255 119.332 30.026 119.113 30.2266C118.876 30.5 118.603 30.6367 118.293 30.6367ZM118.484 40.1797C117.609 40.1797 116.88 39.9609 116.297 39.5234C115.695 39.0312 115.395 38.457 115.395 37.8008C115.395 37.2904 115.586 36.8438 115.969 36.4609C116.461 36.0417 117.081 35.832 117.828 35.832C117.865 35.832 117.892 35.7956 117.91 35.7227C117.947 35.6315 117.965 35.513 117.965 35.3672L117.992 34.6562C117.865 34.6745 117.618 34.7018 117.254 34.7383C116.908 34.7747 116.652 34.8112 116.488 34.8477C116.579 34.8294 116.297 34.8932 115.641 35.0391C115.586 35.0573 115.486 35.0664 115.34 35.0664C114.993 35.0664 114.702 34.9115 114.465 34.6016C114.355 34.4922 114.301 34.401 114.301 34.3281C114.301 34.2188 114.465 34.1641 114.793 34.1641L115.641 34.1094L117.965 33.8086V33.4805V32.7969C117.947 32.724 117.938 32.6419 117.938 32.5508C117.938 32.4596 117.928 32.3867 117.91 32.332C117.874 32.1862 117.855 32.0951 117.855 32.0586C117.855 31.931 117.919 31.8672 118.047 31.8672C118.211 31.8672 118.493 31.9857 118.895 32.2227C119.022 32.2956 119.086 32.3958 119.086 32.5234C119.086 32.6146 119.068 32.6966 119.031 32.7695C119.013 32.8242 119.004 32.888 119.004 32.9609V33.7266L119.824 33.6445L120.836 33.5352C120.927 33.5169 121.027 33.4896 121.137 33.4531C121.264 33.4167 121.365 33.3984 121.438 33.3984C121.547 33.3984 121.684 33.4531 121.848 33.5625C122.158 33.763 122.312 33.9362 122.312 34.082C122.312 34.2279 122.158 34.3008 121.848 34.3008C121.757 34.3008 121.629 34.319 121.465 34.3555C121.301 34.3737 121.091 34.3919 120.836 34.4102L119.004 34.5469L118.977 36.2148C118.94 36.4883 118.74 36.6615 118.375 36.7344H118.32C118.211 36.7344 118.102 36.7253 117.992 36.707C117.901 36.6706 117.828 36.6523 117.773 36.6523C117.628 36.6523 117.482 36.6615 117.336 36.6797C117.19 36.6979 117.062 36.7526 116.953 36.8438C116.643 37.1172 116.488 37.4362 116.488 37.8008C116.488 38.1654 116.661 38.4935 117.008 38.7852C117.318 39.0768 117.81 39.2227 118.484 39.2227C119.378 39.1862 120.107 38.9401 120.672 38.4844C120.909 38.3203 121.091 38.2383 121.219 38.2383C121.292 38.2383 121.383 38.2565 121.492 38.293C121.51 38.3112 121.547 38.3477 121.602 38.4023C121.656 38.457 121.684 38.5117 121.684 38.5664C121.684 39.0768 121.255 39.4961 120.398 39.8242C119.76 40.0612 119.122 40.1797 118.484 40.1797ZM123.242 29.8164C123.333 29.8164 123.47 29.8802 123.652 30.0078C123.634 30.0443 123.671 30.1172 123.762 30.2266C123.853 30.3177 123.917 30.3815 123.953 30.418C124.044 30.5091 124.135 30.6185 124.227 30.7461C124.336 30.8737 124.454 31.0104 124.582 31.1562C124.91 31.5026 125.667 32.4049 126.852 33.8633C127.052 34.1549 127.152 34.3281 127.152 34.3828C127.152 34.5651 127.043 34.6562 126.824 34.6562C126.697 34.6562 126.56 34.5651 126.414 34.3828C126.068 34.0182 125.448 33.444 124.555 32.6602C123.862 32.0221 123.233 31.5299 122.668 31.1836C122.395 31.056 122.258 30.9102 122.258 30.7461C122.258 30.6185 122.395 30.4362 122.668 30.1992C122.923 29.944 123.115 29.8164 123.242 29.8164ZM103.336 42.5312C103.445 41.5104 103.5 40.5898 103.5 39.7695V36.2148C103.5 35.8867 103.536 35.2578 103.609 34.3281C103.263 35.2943 102.589 36.3607 101.586 37.5273C100.583 38.694 99.5443 39.7057 98.4688 40.5625C97.4115 41.401 96.7005 41.8203 96.3359 41.8203C96.2083 41.8203 96.1445 41.7656 96.1445 41.6562C96.1445 41.5104 96.2812 41.3099 96.5547 41.0547C98.9062 38.9036 100.902 36.3607 102.543 33.4258L98.9609 33.5898H98.5781C98.3229 33.5898 98.1315 33.5807 98.0039 33.5625C97.8763 33.526 97.776 33.4714 97.7031 33.3984C97.5208 33.2526 97.3477 33.043 97.1836 32.7695C97.0378 32.4961 96.9648 32.2956 96.9648 32.168C96.9648 32.0404 97.0469 31.9766 97.2109 31.9766L97.3203 32.0039C97.7214 32.0951 98.1042 32.1406 98.4688 32.1406H98.7148L103.473 31.9492V29.7344L100.629 29.8711L100.656 30.2266V30.3086C100.656 30.6914 100.501 30.8828 100.191 30.8828C99.9544 30.8828 99.6719 30.7917 99.3438 30.6094C99.0156 30.4089 98.8516 30.1536 98.8516 29.8438L98.8789 29.4336C98.9154 29.0326 98.9336 28.7044 98.9336 28.4492C98.9336 28.2122 98.9245 28.0299 98.9062 27.9023L98.4961 22.8164C98.4414 22.1055 98.3138 21.5039 98.1133 21.0117C98.0586 20.8477 98.0312 20.7201 98.0312 20.6289C98.0312 20.5013 98.1133 20.4375 98.2773 20.4375C98.6055 20.4375 99.2161 20.6289 100.109 21.0117L108.941 20.4102H109.105C109.561 20.4102 109.908 20.5286 110.145 20.7656C110.382 20.9844 110.5 21.1758 110.5 21.3398C110.5 21.431 110.464 21.5495 110.391 21.6953C110.318 21.8229 110.281 21.9141 110.281 21.9688L109.57 28.0391C110.099 28.5677 110.363 28.9323 110.363 29.1328C110.363 29.2422 110.309 29.3151 110.199 29.3516C110.108 29.388 109.962 29.4154 109.762 29.4336L105.113 29.6523V31.8672L109.543 31.6758C110.053 31.6393 110.445 31.5664 110.719 31.457C110.828 31.4206 110.919 31.4023 110.992 31.4023C111.229 31.4023 111.512 31.5391 111.84 31.8125C112.186 32.0859 112.359 32.3411 112.359 32.5781C112.359 32.8516 112.159 33.0065 111.758 33.043L105.797 33.2891L106.562 34.1094C107.857 35.513 108.923 36.6159 109.762 37.418C110.618 38.2018 111.63 38.9583 112.797 39.6875C112.943 39.7786 113.016 39.8698 113.016 39.9609C113.016 39.9974 112.97 40.0794 112.879 40.207C112.387 40.7539 112.004 41.0273 111.73 41.0273C111.548 41.0273 111.038 40.6719 110.199 39.9609C109.361 39.2318 108.449 38.3477 107.465 37.3086C106.499 36.2695 105.688 35.2578 105.031 34.2734C105.104 35.112 105.141 35.7227 105.141 36.1055L105.168 43.2422C105.168 43.6068 105.004 43.7891 104.676 43.7891C104.421 43.7891 104.129 43.6797 103.801 43.4609C103.491 43.2422 103.336 42.987 103.336 42.6953V42.5312ZM86.8203 24.4844C86.8203 24.375 86.875 24.3203 86.9844 24.3203C87.0573 24.3203 87.1211 24.3294 87.1758 24.3477C87.4492 24.4206 87.7409 24.457 88.0508 24.457L88.5156 24.4297L95.1875 24.0742C95.7161 23.9831 96.0807 23.901 96.2812 23.8281C96.3906 23.7917 96.4727 23.7734 96.5273 23.7734C96.7096 23.7734 96.9102 23.8555 97.1289 24.0195C97.3659 24.1836 97.5664 24.3659 97.7305 24.5664C97.9128 24.7669 98.0039 24.9128 98.0039 25.0039C98.0039 25.2227 97.7943 25.3503 97.375 25.3867L89.0625 25.9062C88.862 25.9245 88.625 25.9336 88.3516 25.9336C88.0052 25.9336 87.7773 25.888 87.668 25.7969C87.3398 25.5052 87.112 25.2409 86.9844 25.0039C86.875 24.7487 86.8203 24.5755 86.8203 24.4844ZM88.5156 34.4102C88.5156 34.3008 88.5885 34.2461 88.7344 34.2461C89.026 34.2461 89.6641 34.4284 90.6484 34.793L94.7773 34.6016L95.0508 34.5742C95.2878 34.5742 95.543 34.7018 95.8164 34.957C96.0898 35.194 96.2266 35.4128 96.2266 35.6133C96.2266 35.7044 96.1992 35.7956 96.1445 35.8867C96.1081 35.9779 96.0807 36.0599 96.0625 36.1328L95.5977 39.7422C95.9987 40.2891 96.1992 40.6719 96.1992 40.8906C96.1992 41.0182 96.1445 41.1003 96.0352 41.1367C95.9258 41.1732 95.7435 41.2005 95.4883 41.2188L91.0312 41.3555L91.0586 41.875V41.957C91.0586 42.3581 90.8945 42.5586 90.5664 42.5586C90.3112 42.5586 90.0378 42.4583 89.7461 42.2578C89.4544 42.0573 89.3086 41.8112 89.3086 41.5195V41.3281C89.3451 40.8906 89.3633 40.5625 89.3633 40.3438V39.9883L89.0898 36.3789C89.0352 35.7227 88.9076 35.2305 88.707 34.9023C88.5794 34.6471 88.5156 34.4831 88.5156 34.4102ZM88.7891 27.957C88.7891 27.8659 88.8255 27.8203 88.8984 27.8203C88.9714 27.8203 89.026 27.8294 89.0625 27.8477C89.3906 27.9023 89.7188 27.9297 90.0469 27.9297H90.3477L94.0391 27.7109C94.4036 27.6745 94.7227 27.6016 94.9961 27.4922C95.1055 27.4557 95.1875 27.4375 95.2422 27.4375C95.4245 27.4375 95.6797 27.5924 96.0078 27.9023C96.3542 28.194 96.5273 28.4401 96.5273 28.6406C96.5273 28.75 96.4727 28.8411 96.3633 28.9141C96.2539 28.987 96.1081 29.0326 95.9258 29.0508L90.8945 29.3789C90.7487 29.3971 90.5482 29.4062 90.293 29.4062C89.9102 29.4062 89.6094 29.306 89.3906 29.1055C89.1719 28.9049 89.0169 28.6953 88.9258 28.4766C88.8346 28.2396 88.7891 28.0664 88.7891 27.957ZM88.8438 31.293C88.8438 31.2018 88.8893 31.1562 88.9805 31.1562L89.1172 31.1836C89.4089 31.2565 89.737 31.293 90.1016 31.293H90.4023L93.9297 31.1289C94.2214 31.1107 94.5495 31.0378 94.9141 30.9102C95.0234 30.8737 95.1055 30.8555 95.1602 30.8555C95.3789 30.8555 95.6432 31.0104 95.9531 31.3203C96.263 31.612 96.418 31.8581 96.418 32.0586C96.418 32.2956 96.2266 32.4323 95.8438 32.4688L90.9492 32.7422L90.3477 32.7695C90.0378 32.7695 89.7643 32.6875 89.5273 32.5234C89.2904 32.3594 89.0716 32.0039 88.8711 31.457C88.8529 31.4206 88.8438 31.3659 88.8438 31.293ZM89.5273 20.5195C89.5273 20.3008 89.6003 20.1003 89.7461 19.918C89.9102 19.7357 90.0742 19.6445 90.2383 19.6445C90.3477 19.6445 90.5117 19.6901 90.7305 19.7812C92.0247 20.3099 92.9727 20.7292 93.5742 21.0391C94.194 21.3307 94.5768 21.5495 94.7227 21.6953C94.8867 21.8229 94.9688 21.9505 94.9688 22.0781C94.9688 22.2422 94.8867 22.4792 94.7227 22.7891C94.5586 23.099 94.349 23.2539 94.0938 23.2539C93.9661 23.2539 93.7839 23.181 93.5469 23.0352C92.3255 22.2148 91.1862 21.5677 90.1289 21.0938C89.9102 21.0026 89.7552 20.9206 89.6641 20.8477C89.5729 20.7565 89.5273 20.6471 89.5273 20.5195ZM90.9219 39.9336L94.0938 39.8242L94.3945 36.1055L90.6484 36.2422L90.9219 39.9336ZM100.273 24.6484L103.445 24.457V22.1875L100.109 22.4062L100.273 24.6484ZM100.547 28.4492L103.473 28.2852L103.445 25.8516L100.355 26.0156L100.547 28.4492ZM108.285 24.1836L108.504 21.8867L105.086 22.1055V24.375L108.285 24.1836ZM107.957 28.0664L108.176 25.5781L105.113 25.7422V28.2031L107.957 28.0664Z" fill="#333333"/>
<path d="M162.152 27.2188C161.879 27.2188 161.642 27.1185 161.441 26.918C160.84 26.2617 160.229 25.6693 159.609 25.1406C158.917 24.5573 158.306 24.1198 157.777 23.8281C157.522 23.6823 157.395 23.4544 157.395 23.1445C157.395 23.0898 157.458 23.0169 157.586 22.9258C157.75 22.8164 158.014 22.5794 158.379 22.2148L159.363 21.2578C159.801 20.8021 160.165 20.3919 160.457 20.0273C160.767 19.6628 160.94 19.4076 160.977 19.2617C160.995 19.2253 161.013 19.1523 161.031 19.043C161.068 18.9154 161.122 18.8516 161.195 18.8516C161.286 18.8516 161.405 18.8971 161.551 18.9883C161.715 19.0794 161.852 19.1706 161.961 19.2617C162.234 19.5169 162.371 19.7357 162.371 19.918C162.353 19.9727 162.28 20.0365 162.152 20.1094C162.043 20.1641 161.943 20.2188 161.852 20.2734C161.76 20.3464 161.432 20.638 160.867 21.1484L159.09 22.6797C158.78 22.9349 158.625 23.1354 158.625 23.2812C158.625 23.3542 158.771 23.4727 159.062 23.6367C159.409 23.8555 160.083 24.3021 161.086 24.9766C161.469 25.2318 161.833 25.5143 162.18 25.8242C162.471 26.1159 162.617 26.4167 162.617 26.7266C162.617 26.8724 162.553 27 162.426 27.1094C162.353 27.1823 162.262 27.2188 162.152 27.2188ZM157.285 31.7852C157.085 31.7852 156.839 31.6302 156.547 31.3203C156.328 31.1016 156.219 30.9375 156.219 30.8281C156.219 30.7734 156.255 30.7461 156.328 30.7461C156.401 30.7279 156.492 30.7188 156.602 30.7188L157.203 30.6914C157.549 30.6914 157.777 30.6823 157.887 30.6641C158.233 30.6641 158.525 30.6549 158.762 30.6367C160.329 30.4909 161.387 30.3724 161.934 30.2812C162.207 30.2448 162.453 30.2083 162.672 30.1719C162.891 30.1172 163.064 30.0898 163.191 30.0898C163.447 30.0898 163.702 30.2174 163.957 30.4727C164.158 30.6732 164.258 30.8372 164.258 30.9648C164.258 31.0742 164.194 31.1471 164.066 31.1836C163.975 31.2018 163.438 31.2383 162.453 31.293C161.906 31.3112 161.232 31.3568 160.43 31.4297C159.628 31.5026 158.926 31.5755 158.324 31.6484C158.215 31.6667 158.06 31.694 157.859 31.7305C157.659 31.7669 157.467 31.7852 157.285 31.7852ZM161.359 37.8828C161.177 38.1198 160.986 38.2383 160.785 38.2383C160.73 38.2383 160.703 38.1927 160.703 38.1016C160.703 37.974 160.74 37.8281 160.812 37.6641C160.812 37.6641 160.995 37.2995 161.359 36.5703C161.378 36.4974 161.405 36.4245 161.441 36.3516C161.478 36.2786 161.505 36.2148 161.523 36.1602V36.1328C161.523 36.0964 161.496 36.0599 161.441 36.0234C161.387 35.987 161.323 35.9779 161.25 35.9961C160.958 36.0143 160.521 36.0599 159.938 36.1328C159.372 36.2057 158.953 36.2786 158.68 36.3516C158.57 36.388 158.434 36.4336 158.27 36.4883C158.124 36.543 158.005 36.5703 157.914 36.5703C157.586 36.5703 157.312 36.4701 157.094 36.2695C156.911 36.1419 156.775 36.0143 156.684 35.8867L156.629 35.75C156.629 35.6589 156.784 35.6315 157.094 35.668C157.513 35.7044 158.379 35.6497 159.691 35.5039L160.238 35.4219C160.384 35.4036 160.612 35.3763 160.922 35.3398C161.25 35.2852 161.505 35.2305 161.688 35.1758C161.742 35.1576 161.797 35.1393 161.852 35.1211C161.924 35.0846 161.988 35.0664 162.043 35.0664C162.134 35.0664 162.243 35.112 162.371 35.2031C162.517 35.2943 162.635 35.3763 162.727 35.4492C162.854 35.5404 162.936 35.6224 162.973 35.6953C163.027 35.75 163.046 35.8229 163.027 35.9141C163.027 36.0052 162.982 36.0872 162.891 36.1602C162.799 36.2331 162.736 36.2878 162.699 36.3242C162.663 36.3789 162.535 36.5156 162.316 36.7344C162.225 36.8802 162.061 37.0807 161.824 37.3359C161.605 37.5911 161.451 37.7734 161.359 37.8828ZM159.992 43.2695C159.992 43.2148 160.083 43.069 160.266 42.832C160.466 42.6133 160.621 42.4401 160.73 42.3125C161.004 41.9479 161.332 41.4193 161.715 40.7266C162.116 40.0339 162.344 39.5781 162.398 39.3594C162.435 39.25 162.38 39.1953 162.234 39.1953C161.943 39.1953 161.141 39.2773 159.828 39.4414C158.971 39.5508 158.333 39.6602 157.914 39.7695C157.823 39.8242 157.732 39.8516 157.641 39.8516C157.495 39.8516 157.34 39.7513 157.176 39.5508C157.103 39.4232 157.066 39.3047 157.066 39.1953C157.066 39.1224 157.112 39.0495 157.203 38.9766L157.285 38.8672C157.34 38.7578 157.404 38.612 157.477 38.4297C157.549 38.2474 157.613 38.0742 157.668 37.9102C157.759 37.6185 157.823 37.2995 157.859 36.9531C157.878 36.7526 157.987 36.6979 158.188 36.7891C158.443 36.9167 158.634 37.0443 158.762 37.1719C158.908 37.2812 158.953 37.3633 158.898 37.418C158.716 37.6367 158.57 37.8828 158.461 38.1562C158.37 38.4479 158.315 38.6393 158.297 38.7305C158.297 38.8034 158.342 38.8398 158.434 38.8398C158.707 38.8398 159.117 38.7943 159.664 38.7031C159.974 38.6667 160.357 38.6211 160.812 38.5664C161.268 38.5117 161.633 38.457 161.906 38.4023L162.59 38.2656C162.645 38.2474 162.717 38.2383 162.809 38.2383C162.9 38.2383 162.991 38.2747 163.082 38.3477C163.173 38.4023 163.273 38.4753 163.383 38.5664C163.565 38.7305 163.684 38.8672 163.738 38.9766C163.793 39.0677 163.82 39.1771 163.82 39.3047C163.82 39.3776 163.766 39.4688 163.656 39.5781C163.565 39.6875 163.456 39.8607 163.328 40.0977C162.799 41.1732 162.116 42.0755 161.277 42.8047C161.04 42.987 160.776 43.1419 160.484 43.2695C160.357 43.306 160.238 43.3242 160.129 43.3242C160.038 43.3424 159.992 43.3242 159.992 43.2695ZM168.742 30.6367C168.961 30.6367 169.07 30.737 169.07 30.9375C169.07 31.0469 168.97 31.2018 168.77 31.4023C168.223 32.0768 167.138 33.362 165.516 35.2578C165.388 35.4219 165.27 35.5039 165.16 35.5039C165.069 35.5039 164.868 35.3672 164.559 35.0938C164.303 34.875 164.176 34.6927 164.176 34.5469C164.176 34.3828 164.312 34.2279 164.586 34.082C165.005 33.8451 165.634 33.3711 166.473 32.6602C167.311 31.9128 167.931 31.3203 168.332 30.8828C168.496 30.7188 168.633 30.6367 168.742 30.6367ZM132.484 25.8789C131.974 25.9154 131.655 25.9336 131.527 25.9336C131.236 25.9336 130.98 25.8789 130.762 25.7695C130.543 25.6602 130.333 25.4596 130.133 25.168C130.023 25.0039 129.941 24.8398 129.887 24.6758L129.832 24.457C129.832 24.3659 129.896 24.3203 130.023 24.3203L130.215 24.3477C130.634 24.4206 131.062 24.457 131.5 24.457H131.855L139.074 24.0469L138.828 23.7461C137.971 22.7253 137.033 21.7865 136.012 20.9297C135.829 20.7656 135.738 20.6107 135.738 20.4648C135.738 20.2826 135.829 20.0911 136.012 19.8906C136.212 19.6719 136.376 19.5625 136.504 19.5625C136.65 19.5625 137.06 19.8177 137.734 20.3281C138.409 20.8385 139.029 21.3763 139.594 21.9414C140.177 22.5065 140.469 22.9076 140.469 23.1445C140.469 23.2904 140.396 23.4635 140.25 23.6641C140.122 23.8646 140.031 23.974 139.977 23.9922L142.41 23.8555C143.704 22.6341 144.652 21.6042 145.254 20.7656C145.855 19.9271 146.156 19.3164 146.156 18.9336V18.8789C146.156 18.6784 146.211 18.5781 146.32 18.5781C146.43 18.5781 146.603 18.6693 146.84 18.8516C147.095 19.0156 147.323 19.2253 147.523 19.4805C147.724 19.7174 147.824 19.9362 147.824 20.1367C147.824 20.3372 147.469 20.8294 146.758 21.6133C146.065 22.3789 145.354 23.0807 144.625 23.7188L150.559 23.3906C151.051 23.3724 151.516 23.2812 151.953 23.1172C152.062 23.0807 152.154 23.0625 152.227 23.0625C152.482 23.0625 152.81 23.2266 153.211 23.5547C153.612 23.8646 153.812 24.1471 153.812 24.4023C153.812 24.6029 153.63 24.7214 153.266 24.7578L132.484 25.8789ZM129.941 43.4609C129.941 43.2422 130.042 42.9961 130.242 42.7227C131.044 41.6471 131.673 40.5898 132.129 39.5508C132.585 38.4935 132.913 37.2812 133.113 35.9141C133.332 34.5469 133.441 32.8607 133.441 30.8555C133.441 29.9258 133.423 29.3151 133.387 29.0234C133.368 28.7135 133.305 28.4401 133.195 28.2031C133.068 28.0026 133.004 27.8568 133.004 27.7656C133.004 27.6562 133.086 27.6016 133.25 27.6016C133.542 27.6016 133.97 27.7109 134.535 27.9297L140.25 27.5742H140.441C140.715 27.5742 140.97 27.6562 141.207 27.8203C141.462 27.9844 141.59 28.2031 141.59 28.4766C141.59 28.5677 141.572 28.668 141.535 28.7773C141.517 28.8685 141.508 28.9688 141.508 29.0781L141.59 41.2188C141.59 41.3828 141.599 41.5378 141.617 41.6836C141.635 41.8294 141.645 41.957 141.645 42.0664C141.645 42.3763 141.508 42.668 141.234 42.9414C140.979 43.2148 140.733 43.3516 140.496 43.3516C140.241 43.3516 139.767 43.151 139.074 42.75C138.4 42.349 137.762 41.9115 137.16 41.4375C136.577 40.9818 136.285 40.6628 136.285 40.4805C136.285 40.3711 136.367 40.3164 136.531 40.3164C136.641 40.3164 136.832 40.362 137.105 40.4531C138.108 40.8542 139.047 41.1641 139.922 41.3828L139.895 36.9258L134.508 37.1992C134.253 38.3112 133.833 39.3594 133.25 40.3438C132.667 41.3281 132.065 42.1211 131.445 42.7227C130.844 43.3242 130.397 43.6341 130.105 43.6523C129.996 43.6523 129.941 43.5885 129.941 43.4609ZM139.895 35.4492V32.9609L135.027 33.207C134.973 34.082 134.891 34.9115 134.781 35.6953L139.895 35.4492ZM139.867 31.5391V29.0508L135.137 29.3516L135.082 31.7852L139.867 31.5391ZM144.188 28.5039C144.188 28.3945 144.26 28.3398 144.406 28.3398C144.552 28.3398 144.88 28.431 145.391 28.6133C145.737 28.7409 145.956 28.8776 146.047 29.0234C146.138 29.151 146.184 29.3333 146.184 29.5703L146.293 37.8281C146.293 38.3021 146.147 38.5391 145.855 38.5391C145.783 38.5391 145.628 38.5026 145.391 38.4297C145.154 38.3385 144.935 38.2109 144.734 38.0469C144.534 37.8828 144.434 37.6823 144.434 37.4453C144.434 37.3177 144.443 37.2174 144.461 37.1445C144.534 36.7253 144.57 36.1237 144.57 35.3398L144.543 30.2266C144.543 29.9167 144.525 29.6523 144.488 29.4336C144.452 29.2148 144.379 28.9961 144.27 28.7773C144.215 28.668 144.188 28.5768 144.188 28.5039ZM145.062 40.0977C145.062 39.9701 145.145 39.9062 145.309 39.9062C145.509 39.9062 145.783 39.9974 146.129 40.1797C147.314 40.7995 148.371 41.2188 149.301 41.4375L149.383 28.1211C149.383 27.5742 149.264 27.1003 149.027 26.6992C148.936 26.5169 148.891 26.3984 148.891 26.3438C148.891 26.2708 148.945 26.2344 149.055 26.2344C149.201 26.2344 149.592 26.3346 150.23 26.5352C150.577 26.6445 150.814 26.7721 150.941 26.918C151.087 27.0638 151.16 27.2552 151.16 27.4922L151.105 41.3008L151.133 42.2578C151.133 42.6589 150.987 42.9779 150.695 43.2148C150.404 43.4701 150.112 43.5977 149.82 43.5977C149.51 43.5977 148.973 43.3516 148.207 42.8594C147.441 42.3672 146.721 41.8294 146.047 41.2461C145.391 40.681 145.062 40.2982 145.062 40.0977Z" fill="#333333"/>
<path d="M199.23 27.3555C198.957 27.3555 198.711 27.2461 198.492 27.0273C198.219 26.8268 198.082 26.6719 198.082 26.5625C198.082 26.4349 198.292 26.3711 198.711 26.3711L200.051 26.2891L201.418 26.1523C201.454 25.8607 201.473 25.3047 201.473 24.4844C201.527 24.4844 201.245 24.5208 200.625 24.5938L200.105 24.6758C199.941 24.7487 199.796 24.7852 199.668 24.7852C199.559 24.7852 199.467 24.7487 199.395 24.6758C199.103 24.4206 198.957 24.2018 198.957 24.0195V22.7344C198.957 22.6068 198.911 22.1146 198.82 21.2578L198.793 20.957C198.793 20.8112 198.82 20.7201 198.875 20.6836C198.93 20.6471 199.03 20.6471 199.176 20.6836C199.723 20.8294 199.987 20.9935 199.969 21.1758L199.941 21.3672C199.905 21.6224 199.887 21.9505 199.887 22.3516C199.887 22.8255 199.896 23.1263 199.914 23.2539C199.951 23.6185 199.969 23.7917 199.969 23.7734C199.987 23.8464 200.051 23.8828 200.16 23.8828C200.27 23.8828 200.488 23.8555 200.816 23.8008C201.163 23.7279 201.391 23.6823 201.5 23.6641V21.2578C201.5 20.5833 201.473 20.1276 201.418 19.8906C201.382 19.7083 201.363 19.6081 201.363 19.5898C201.363 19.4622 201.409 19.3984 201.5 19.3984C201.536 19.3984 201.664 19.4349 201.883 19.5078C202.229 19.6719 202.457 19.8177 202.566 19.9453C202.694 20.0729 202.74 20.2096 202.703 20.3555C202.648 20.5378 202.612 20.9023 202.594 21.4492C202.557 21.8867 202.521 22.5977 202.484 23.582L203.414 23.5547C203.596 23.5547 203.733 23.5456 203.824 23.5273C203.915 23.5091 203.961 23.4727 203.961 23.418C204.089 22.7253 204.171 22.1237 204.207 21.6133L204.234 21.2852C204.253 21.2487 204.253 21.1849 204.234 21.0938C204.234 21.0026 204.234 20.9388 204.234 20.9023L204.207 20.7109C204.207 20.5469 204.271 20.4648 204.398 20.4648C204.471 20.4648 204.626 20.5378 204.863 20.6836C204.918 20.7201 204.991 20.7747 205.082 20.8477C205.191 20.9023 205.264 20.9661 205.301 21.0391C205.337 21.0938 205.355 21.1667 205.355 21.2578C205.355 21.3672 205.346 21.4583 205.328 21.5312L205.027 23.0625L204.945 23.6914C204.872 24.1107 204.654 24.3385 204.289 24.375C204.18 24.3568 204.089 24.3294 204.016 24.293C203.961 24.2565 203.915 24.2383 203.879 24.2383C203.66 24.2383 203.204 24.2839 202.512 24.375L202.484 26.0703L202.949 26.043L203.387 26.0156C204.061 26.0156 204.562 25.9792 204.891 25.9062C205.036 25.9062 205.164 25.888 205.273 25.8516L205.355 25.8242C205.538 25.8242 205.729 25.9518 205.93 26.207C206.167 26.444 206.285 26.6172 206.285 26.7266C206.285 26.8906 206.03 26.9453 205.52 26.8906L204.48 26.8359H203.113C202.84 26.8359 202.339 26.8724 201.609 26.9453C201.227 26.9453 200.88 26.9635 200.57 27C200.26 27.0365 199.969 27.1003 199.695 27.1914L199.23 27.3555ZM205.164 34.5195C204.891 34.5195 204.626 34.319 204.371 33.918C204.043 33.4076 203.724 32.9883 203.414 32.6602L202.703 31.9219C202.32 32.3594 201.983 32.7057 201.691 32.9609C201.418 33.2161 201.072 33.4622 200.652 33.6992C199.868 34.1549 199.212 34.3828 198.684 34.3828C198.556 34.3828 198.492 34.3372 198.492 34.2461C198.492 34.1914 198.665 34.0729 199.012 33.8906C199.358 33.7083 199.686 33.4896 199.996 33.2344C200.78 32.5781 201.427 31.9036 201.938 31.2109C201.828 31.1016 201.281 30.6276 200.297 29.7891C200.169 29.6979 199.978 29.543 199.723 29.3242C199.668 29.2878 199.559 29.2057 199.395 29.0781C199.23 28.9505 199.148 28.8594 199.148 28.8047C199.148 28.7135 199.194 28.668 199.285 28.668C199.559 28.668 199.996 28.8594 200.598 29.2422C201.199 29.6068 201.828 30.0443 202.484 30.5547C202.74 30.2448 202.94 29.9531 203.086 29.6797C203.232 29.4062 203.396 29.069 203.578 28.668C203.669 28.4674 203.724 28.2943 203.742 28.1484C203.76 27.9844 203.77 27.8841 203.77 27.8477C203.77 27.6471 203.824 27.5469 203.934 27.5469C204.061 27.5469 204.234 27.6471 204.453 27.8477C204.836 28.2122 205.027 28.4583 205.027 28.5859C205.027 28.6589 204.982 28.7409 204.891 28.832C204.672 29.0508 204.471 29.3424 204.289 29.707C204.18 29.9258 203.979 30.2357 203.688 30.6367C203.596 30.7461 203.523 30.8464 203.469 30.9375C203.414 31.0286 203.359 31.1107 203.305 31.1836C203.724 31.4935 204.344 32.0221 205.164 32.7695C205.365 32.9518 205.492 33.125 205.547 33.2891C205.62 33.4349 205.656 33.6354 205.656 33.8906C205.656 34.0729 205.611 34.2279 205.52 34.3555C205.428 34.4648 205.31 34.5195 205.164 34.5195ZM205.656 38.1289C205.857 38.3477 205.957 38.5299 205.957 38.6758C205.957 38.8034 205.884 38.9219 205.738 39.0312C205.647 39.1042 205.419 39.5052 205.055 40.2344C204.654 40.8906 204.207 41.4557 203.715 41.9297C203.241 42.4219 202.767 42.7773 202.293 42.9961C202.184 43.0326 202.092 43.0508 202.02 43.0508C201.947 43.0508 201.91 43.0326 201.91 42.9961V42.9414C201.91 42.832 202.001 42.7044 202.184 42.5586C202.512 42.3034 202.758 42.0391 202.922 41.7656C203.104 41.5104 203.241 41.319 203.332 41.1914C203.715 40.6445 203.988 40.1979 204.152 39.8516C204.335 39.5417 204.462 39.2227 204.535 38.8945H204.426C203.952 38.8945 203.186 38.9492 202.129 39.0586C201.965 39.0768 201.491 39.1406 200.707 39.25C200.543 39.2682 200.288 39.3138 199.941 39.3867L199.613 39.4688C199.54 39.5052 199.467 39.5234 199.395 39.5234C199.303 39.5234 199.212 39.5052 199.121 39.4688C199.03 39.4141 198.939 39.3503 198.848 39.2773C198.629 39.0951 198.52 38.9401 198.52 38.8125C198.538 38.776 198.556 38.7214 198.574 38.6484C198.611 38.5755 198.629 38.5117 198.629 38.457L198.766 37.5547C198.784 37.4635 198.802 37.3633 198.82 37.2539C198.839 37.1445 198.848 37.0352 198.848 36.9258C198.848 36.5794 198.839 36.306 198.82 36.1055C198.82 35.8867 198.793 35.6589 198.738 35.4219V35.3398C198.738 35.2122 198.793 35.1484 198.902 35.1484C199.012 35.1484 199.203 35.2305 199.477 35.3945C199.841 35.6497 200.023 35.8503 200.023 35.9961C200.023 36.0508 200.014 36.0964 199.996 36.1328C199.978 36.1693 199.96 36.2057 199.941 36.2422C199.887 36.5703 199.859 36.7526 199.859 36.7891L199.723 38.2383C199.723 38.2747 199.741 38.3203 199.777 38.375C199.832 38.4115 199.887 38.4297 199.941 38.4297C200.379 38.4297 201.363 38.3203 202.895 38.1016C203.496 38.0469 203.924 37.9831 204.18 37.9102C204.344 37.8919 204.48 37.8646 204.59 37.8281C204.717 37.7734 204.799 37.7461 204.836 37.7461C204.945 37.7096 205.018 37.6914 205.055 37.6914C205.219 37.6914 205.419 37.8372 205.656 38.1289ZM210.852 32.4414C210.906 32.4414 210.961 32.4688 211.016 32.5234C211.07 32.5599 211.107 32.6146 211.125 32.6875V32.7422C211.125 32.8698 211.025 33.1159 210.824 33.4805L208.855 36.8984C208.71 37.2083 208.518 37.3633 208.281 37.3633C208.044 37.3633 207.844 37.2174 207.68 36.9258C207.516 36.6888 207.315 36.3333 207.078 35.8594C206.969 35.6953 206.878 35.5312 206.805 35.3672C206.732 35.2031 206.677 35.0846 206.641 35.0117C206.44 34.6654 206.34 34.4193 206.34 34.2734C206.34 34.2005 206.367 34.1458 206.422 34.1094C206.477 34.0547 206.531 34.0273 206.586 34.0273C206.786 34.0273 206.969 34.1367 207.133 34.3555C207.26 34.4831 207.361 34.6198 207.434 34.7656L207.734 35.1758L208.281 35.8047L208.527 35.4219C208.783 34.9844 209.384 34.1185 210.332 32.8242C210.533 32.569 210.706 32.4414 210.852 32.4414ZM184.684 43.2148C184.684 43.6159 184.51 43.8164 184.164 43.8164C184.073 43.8164 183.909 43.7799 183.672 43.707C183.453 43.6523 183.243 43.5339 183.043 43.3516C182.842 43.1875 182.742 42.9505 182.742 42.6406C182.742 42.5312 182.751 42.4401 182.77 42.3672C182.879 41.8568 182.934 41.3555 182.934 40.8633L182.961 37.4453L173.855 37.7734L172.953 37.8008C172.698 37.8008 172.507 37.7643 172.379 37.6914C172.197 37.5456 172.005 37.3359 171.805 37.0625C171.604 36.7708 171.504 36.4974 171.504 36.2422C171.504 36.151 171.549 36.1055 171.641 36.1055C171.714 36.1055 171.777 36.1146 171.832 36.1328C172.197 36.224 172.561 36.2695 172.926 36.2695H173.199L182.961 35.9141V35.6133C182.961 35.1393 182.852 34.7292 182.633 34.3828C182.56 34.2552 182.523 34.1549 182.523 34.082C182.523 33.9362 182.633 33.8633 182.852 33.8633C183.18 33.8633 183.572 33.9544 184.027 34.1367C184.483 34.3008 184.711 34.556 184.711 34.9023V35.8594L193.27 35.5312C193.634 35.5312 193.98 35.4674 194.309 35.3398C194.345 35.3216 194.4 35.3125 194.473 35.3125C194.655 35.3125 194.938 35.4766 195.32 35.8047C195.721 36.1146 195.922 36.3789 195.922 36.5977C195.922 36.8164 195.712 36.944 195.293 36.9805L184.711 37.3906L184.684 43.2148ZM172.023 33.0703C172.023 32.9609 172.096 32.8971 172.242 32.8789C172.88 32.7695 173.372 32.5964 173.719 32.3594C174.339 31.9219 175.086 31.3203 175.961 30.5547C176.836 29.7708 177.674 28.9779 178.477 28.1758L178.613 28.0391C178.814 27.8385 178.987 27.7383 179.133 27.7383C179.224 27.7383 179.27 27.8021 179.27 27.9297C179.27 28.2396 178.878 28.9232 178.094 29.9805C177.328 31.0378 176.508 32.0312 175.633 32.9609C174.758 33.8724 174.156 34.3281 173.828 34.3281C173.682 34.3281 173.536 34.2917 173.391 34.2188C173.081 34.1276 172.671 33.8451 172.16 33.3711C172.069 33.2799 172.023 33.1797 172.023 33.0703ZM172.68 24.2383C172.68 24.0742 172.762 23.8828 172.926 23.6641C173.09 23.4271 173.254 23.3086 173.418 23.3086C173.6 23.3086 174.083 23.5729 174.867 24.1016C175.669 24.612 176.398 25.1315 177.055 25.6602C177.237 25.7878 177.328 25.9427 177.328 26.125C177.328 26.2526 177.246 26.444 177.082 26.6992C176.827 27.0638 176.617 27.2461 176.453 27.2461C176.344 27.2461 176.198 27.1732 176.016 27.0273C174.904 26.043 173.865 25.2409 172.898 24.6211C172.753 24.5117 172.68 24.3841 172.68 24.2383ZM174.785 20.4922C174.785 20.2917 174.885 20.082 175.086 19.8633C175.305 19.6445 175.478 19.5352 175.605 19.5352C175.733 19.5352 176.116 19.7539 176.754 20.1914C177.392 20.6107 177.984 21.0482 178.531 21.5039C179.078 21.9596 179.352 22.2878 179.352 22.4883C179.352 22.6523 179.233 22.8711 178.996 23.1445C178.777 23.418 178.568 23.5547 178.367 23.5547C178.24 23.5547 178.103 23.4818 177.957 23.3359C176.918 22.2969 175.952 21.4766 175.059 20.875C174.876 20.7474 174.785 20.6198 174.785 20.4922ZM177.902 27.1367C177.902 26.9909 178.066 26.7266 178.395 26.3438C179.27 25.3594 180.062 24.3659 180.773 23.3633C181.484 22.3607 182.031 21.4857 182.414 20.7383C182.815 19.9727 183.016 19.4349 183.016 19.125L182.988 18.8789L182.961 18.7422C182.961 18.5599 183.043 18.4688 183.207 18.4688C183.462 18.4688 183.809 18.6237 184.246 18.9336C184.684 19.2253 184.902 19.4714 184.902 19.6719C184.902 19.8724 184.638 20.3555 184.109 21.1211C183.581 21.8867 183.161 22.4701 182.852 22.8711L190.727 22.3516C191.146 22.3151 191.474 22.2513 191.711 22.1602L191.93 22.1055C192.112 22.1055 192.358 22.2331 192.668 22.4883C192.978 22.7253 193.133 22.944 193.133 23.1445C193.133 23.3451 192.969 23.4635 192.641 23.5L187.773 23.8008L187.746 25.4688L190.016 25.332C190.417 25.3138 190.745 25.25 191 25.1406C191.036 25.1224 191.091 25.1133 191.164 25.1133C191.365 25.1133 191.611 25.25 191.902 25.5234C192.194 25.7786 192.34 25.9883 192.34 26.1523C192.34 26.2435 192.294 26.3255 192.203 26.3984C192.112 26.4531 192.003 26.4805 191.875 26.4805L187.746 26.6719L187.719 28.4766L190.18 28.3672C190.49 28.349 190.781 28.276 191.055 28.1484C191.091 28.1302 191.146 28.1211 191.219 28.1211C191.419 28.1211 191.611 28.194 191.793 28.3398C191.975 28.4857 192.121 28.6497 192.23 28.832C192.358 29.0143 192.422 29.1328 192.422 29.1875C192.422 29.3516 192.258 29.4518 191.93 29.4883L187.719 29.707L187.691 31.7305L192.012 31.5391C192.322 31.5208 192.632 31.4297 192.941 31.2656C193.014 31.2292 193.078 31.2109 193.133 31.2109C193.315 31.2109 193.497 31.293 193.68 31.457C193.88 31.6029 194.044 31.776 194.172 31.9766C194.318 32.1771 194.391 32.3229 194.391 32.4141C194.391 32.5417 194.336 32.6419 194.227 32.7148C194.117 32.7695 193.98 32.7969 193.816 32.7969L182.387 33.2344V33.4258C182.387 33.8815 182.241 34.1094 181.949 34.1094C181.876 34.0911 181.74 34.0456 181.539 33.9727C181.339 33.8997 181.138 33.7995 180.938 33.6719C180.755 33.526 180.664 33.3529 180.664 33.1523L180.691 32.9609C180.783 32.5599 180.828 32.1315 180.828 31.6758L180.938 25.1133C180.573 25.4779 180.062 25.9336 179.406 26.4805C178.75 27.0091 178.303 27.2734 178.066 27.2734C177.957 27.2734 177.902 27.2279 177.902 27.1367ZM186.133 31.7852L186.16 29.7891L182.387 29.9805V31.9492L186.133 31.7852ZM186.16 28.5586V26.7539L182.414 26.9453L182.387 28.75L186.16 28.5586ZM186.188 25.5508V23.8828L182.414 24.1016V25.7422L186.188 25.5508ZM185.832 19.6445C185.832 19.5534 185.914 19.4076 186.078 19.207C186.242 18.9883 186.397 18.8789 186.543 18.8789C186.671 18.8789 186.98 19.0612 187.473 19.4258C187.965 19.7904 188.421 20.1823 188.84 20.6016C189.259 21.0026 189.469 21.276 189.469 21.4219C189.469 21.6042 189.368 21.7956 189.168 21.9961C188.949 22.2148 188.758 22.3242 188.594 22.3242C188.43 22.3242 188.257 22.2057 188.074 21.9688C187.546 21.3307 186.853 20.6471 185.996 19.918C185.887 19.8268 185.832 19.7357 185.832 19.6445Z" fill="#333333"/>
<path d="M244.266 30.4727C244.12 30.4727 243.974 30.4453 243.828 30.3906C243.682 30.3177 243.573 30.2083 243.5 30.0625C243.445 29.8984 243.327 29.707 243.145 29.4883C242.98 29.2695 242.816 29.1055 242.652 28.9961L242.762 28.8594C242.853 28.9141 243.072 29.0234 243.418 29.1875C243.764 29.3516 244.02 29.4336 244.184 29.4336C244.439 29.4336 244.667 29.3424 244.867 29.1602C245.068 28.9779 245.323 28.6315 245.633 28.1211C245.852 27.7747 246.052 27.3646 246.234 26.8906C246.417 26.4167 246.553 25.9792 246.645 25.5781L246.672 25.5234C246.672 25.4688 246.654 25.4232 246.617 25.3867C246.581 25.332 246.544 25.3047 246.508 25.3047L245.25 25.4141C244.411 25.5599 243.536 25.6784 242.625 25.7695C242.461 25.7878 242.27 25.8333 242.051 25.9062C241.832 25.9792 241.677 26.0156 241.586 26.0156C241.44 26.0156 241.249 25.8971 241.012 25.6602C240.921 25.5872 240.829 25.4961 240.738 25.3867C240.665 25.2773 240.647 25.1862 240.684 25.1133C240.829 24.9674 240.902 24.8945 240.902 24.8945L241.039 24.7852C241.294 24.5299 241.549 24.1927 241.805 23.7734C241.987 23.5182 242.178 23.0898 242.379 22.4883C242.379 22.2878 242.424 22.1875 242.516 22.1875C242.57 22.1875 242.661 22.224 242.789 22.2969L243.227 22.5703C243.336 22.6615 243.409 22.7344 243.445 22.7891C243.482 22.8438 243.5 22.9167 243.5 23.0078C243.5 23.1172 243.427 23.2539 243.281 23.418C243.135 23.5638 243.008 23.7096 242.898 23.8555L242.27 24.7578L242.215 24.8672C242.215 24.9219 242.288 24.9492 242.434 24.9492L244.539 24.6758L245.961 24.5664L246.508 24.5117L246.809 24.457H246.891C247.073 24.457 247.273 24.612 247.492 24.9219C247.747 25.1589 247.875 25.3594 247.875 25.5234L247.738 25.8789C247.72 25.9154 247.574 26.3438 247.301 27.1641C246.973 27.9479 246.69 28.5404 246.453 28.9414C246.216 29.3424 245.961 29.6523 245.688 29.8711C245.195 30.2721 244.721 30.4727 244.266 30.4727ZM246.508 39.7969C246.435 39.7969 246.353 39.7695 246.262 39.7148C246.171 39.6419 246.052 39.5417 245.906 39.4141C245.268 38.9219 244.648 38.1836 244.047 37.1992C243.445 36.2148 243.017 35.1484 242.762 34C242.743 33.8906 242.716 33.763 242.68 33.6172C242.643 33.4714 242.607 33.362 242.57 33.2891C242.57 33.2708 242.543 33.2617 242.488 33.2617C242.361 33.2617 242.115 33.3438 241.75 33.5078C241.641 33.5625 241.531 33.6445 241.422 33.7539C241.331 33.8451 241.23 33.8815 241.121 33.8633C241.048 33.8633 240.948 33.8177 240.82 33.7266C240.693 33.6354 240.602 33.5534 240.547 33.4805C240.365 33.2253 240.273 33.0703 240.273 33.0156C240.273 32.9062 240.374 32.8424 240.574 32.8242C240.848 32.8242 241.021 32.8151 241.094 32.7969C241.622 32.724 242.124 32.6055 242.598 32.4414C242.671 32.4232 242.771 32.3685 242.898 32.2773C242.917 32.2773 242.944 32.2682 242.98 32.25C243.035 32.2318 243.099 32.25 243.172 32.3047C243.445 32.487 243.582 32.6237 243.582 32.7148C243.582 33.9909 243.947 35.1849 244.676 36.2969C245.405 37.4089 246.471 38.3477 247.875 39.1133C247.948 39.1497 248.039 39.1862 248.148 39.2227C248.258 39.2591 248.312 39.3138 248.312 39.3867C248.312 39.4779 248.012 39.5599 247.41 39.6328L246.727 39.7422L246.508 39.7969ZM249.242 29.8164C249.333 29.8164 249.47 29.8802 249.652 30.0078C249.634 30.0443 249.671 30.1172 249.762 30.2266C249.853 30.3177 249.917 30.3815 249.953 30.418C250.044 30.5091 250.135 30.6185 250.227 30.7461C250.336 30.8737 250.454 31.0104 250.582 31.1562C250.91 31.5026 251.667 32.4049 252.852 33.8633C253.052 34.1549 253.152 34.3281 253.152 34.3828C253.152 34.5651 253.043 34.6562 252.824 34.6562C252.697 34.6562 252.56 34.5651 252.414 34.3828C252.068 34.0182 251.448 33.444 250.555 32.6602C249.862 32.0221 249.233 31.5299 248.668 31.1836C248.395 31.056 248.258 30.9102 248.258 30.7461C248.258 30.6185 248.395 30.4362 248.668 30.1992C248.923 29.944 249.115 29.8164 249.242 29.8164ZM216.977 29.3789C216.229 30.4362 215.454 31.375 214.652 32.1953C213.85 32.9974 213.34 33.3984 213.121 33.3984C212.993 33.3984 212.93 33.3346 212.93 33.207C212.93 33.0247 213.048 32.7786 213.285 32.4688C214.543 30.8099 215.71 28.9779 216.785 26.9727C217.861 24.9674 218.745 23.0169 219.438 21.1211C219.529 20.7565 219.574 20.474 219.574 20.2734C219.574 20.1823 219.556 20.0456 219.52 19.8633L219.492 19.7539C219.492 19.5716 219.602 19.4805 219.82 19.4805C220.112 19.4805 220.477 19.6263 220.914 19.918C221.352 20.1914 221.57 20.4375 221.57 20.6562C221.57 20.8568 221.233 21.668 220.559 23.0898C219.884 24.5117 219.21 25.806 218.535 26.9727V42.75C218.535 43.1146 218.371 43.2969 218.043 43.2969C217.788 43.2969 217.496 43.1875 217.168 42.9688C216.858 42.75 216.703 42.4857 216.703 42.1758C216.703 42.0299 216.712 41.9206 216.73 41.8477C216.822 41.4102 216.867 40.8997 216.867 40.3164L216.977 29.3789ZM219.629 34.957C219.629 34.793 219.738 34.6016 219.957 34.3828C222.108 32.3047 223.594 30.3451 224.414 28.5039L221.844 28.6133L221.297 28.6406C221.005 28.6406 220.759 28.5495 220.559 28.3672C220.376 28.1667 220.24 27.957 220.148 27.7383C220.076 27.5013 220.039 27.3464 220.039 27.2734C220.039 27.1823 220.085 27.1367 220.176 27.1367L220.422 27.1914C220.732 27.2461 221.023 27.2734 221.297 27.2734H221.57L226 27.0547L225.973 24.4297L223.512 24.5938C223.366 24.612 223.174 24.6211 222.938 24.6211C222.555 24.6211 222.236 24.4935 221.98 24.2383C221.743 23.9648 221.57 23.6367 221.461 23.2539C221.461 23.181 221.507 23.1445 221.598 23.1445C221.634 23.1445 221.725 23.1628 221.871 23.1992C222.236 23.2904 222.591 23.3359 222.938 23.3359H223.156L225.945 23.1445L225.891 20.9844C225.891 20.401 225.781 19.9635 225.562 19.6719C225.471 19.5443 225.426 19.4531 225.426 19.3984C225.426 19.3073 225.517 19.2617 225.699 19.2617C226.009 19.2617 226.383 19.3346 226.82 19.4805C227.276 19.6081 227.504 19.8359 227.504 20.1641V23.0352L230.73 22.8438L230.785 20.4375C230.785 19.7995 230.712 19.3529 230.566 19.0977L230.512 18.9336C230.512 18.8424 230.594 18.7969 230.758 18.7969C231.013 18.7969 231.359 18.8698 231.797 19.0156C232.234 19.1432 232.444 19.3802 232.426 19.7266L232.316 22.7344L233.848 22.625C234.212 22.6068 234.522 22.5521 234.777 22.4609C234.923 22.4245 235.023 22.4062 235.078 22.4062C235.279 22.4062 235.525 22.543 235.816 22.8164C236.108 23.0898 236.254 23.3177 236.254 23.5C236.254 23.6823 236.072 23.7917 235.707 23.8281L232.262 24.0469L232.18 26.6992L235.762 26.4805C236.053 26.4622 236.372 26.3984 236.719 26.2891C236.865 26.2526 236.965 26.2344 237.02 26.2344C237.202 26.2344 237.375 26.3073 237.539 26.4531C237.721 26.599 237.867 26.763 237.977 26.9453C238.086 27.1276 238.141 27.2552 238.141 27.3281C238.141 27.5286 237.967 27.6471 237.621 27.6836L226.547 28.3398C226.31 28.832 225.927 29.4245 225.398 30.1172L225.809 30.3086L234.422 29.8711H234.695C234.987 29.8711 235.242 29.9805 235.461 30.1992C235.68 30.3997 235.789 30.5911 235.789 30.7734C235.789 30.8281 235.762 30.9284 235.707 31.0742C235.671 31.2018 235.652 31.3021 235.652 31.375V41.1367L235.68 42.0391C235.68 42.513 235.534 42.8594 235.242 43.0781C234.969 43.2969 234.732 43.4062 234.531 43.4062C234.276 43.4062 233.848 43.224 233.246 42.8594C232.645 42.4948 232.089 42.0938 231.578 41.6562C231.086 41.237 230.84 40.9362 230.84 40.7539C230.84 40.6081 230.94 40.5352 231.141 40.5352C231.25 40.5352 231.387 40.5625 231.551 40.6172C232.59 41 233.41 41.237 234.012 41.3281V38.1016L230.32 38.2383L230.293 42.2578C230.293 42.7135 230.165 42.9414 229.91 42.9414C229.655 42.9414 229.382 42.832 229.09 42.6133C228.816 42.4128 228.68 42.194 228.68 41.957L228.707 41.7383C228.78 41.2096 228.816 40.599 228.816 39.9062V38.293L225.426 38.457C225.171 39.3685 224.842 40.1888 224.441 40.918C224.059 41.6471 223.658 42.2122 223.238 42.6133C222.837 43.0326 222.491 43.2513 222.199 43.2695C222.072 43.2695 222.008 43.2057 222.008 43.0781C222.008 42.8594 222.072 42.6406 222.199 42.4219C222.783 41.4375 223.229 40.5443 223.539 39.7422C223.867 38.9219 224.104 37.9648 224.25 36.8711C224.414 35.7773 224.496 34.3919 224.496 32.7148C224.496 31.9857 224.487 31.5026 224.469 31.2656C223.557 32.3047 222.655 33.207 221.762 33.9727C220.868 34.7383 220.221 35.1211 219.82 35.1211C219.693 35.1211 219.629 35.0664 219.629 34.957ZM228.816 36.9258L228.844 34.793L226 34.957C225.945 35.8138 225.863 36.5156 225.754 37.0625V37.0898L228.816 36.9258ZM228.844 33.5078V31.457L226.082 31.6211C226.082 32.5143 226.073 33.1979 226.055 33.6719L228.844 33.5078ZM230.648 26.7812L230.703 24.1289L227.531 24.3477V26.9727L230.648 26.7812ZM234.012 36.7344V34.6016L230.348 34.7383L230.32 36.8711L234.012 36.7344ZM234.012 33.2891V31.2383L230.375 31.4023L230.348 33.4258L234.012 33.2891Z" fill="#333333"/>
<path d="M287.902 24.5035C287.64 23.518 286.869 22.742 285.89 22.4786C284.116 22 277 22 277 22C277 22 269.884 22 268.109 22.4786C267.13 22.742 266.359 23.518 266.098 24.5035C265.622 26.2896 265.622 30.0162 265.622 30.0162C265.622 30.0162 265.622 33.7427 266.098 35.5289C266.359 36.5143 267.13 37.258 268.109 37.5214C269.884 38 277 38 277 38C277 38 284.116 38 285.89 37.5214C286.869 37.258 287.64 36.5143 287.902 35.5289C288.378 33.7427 288.378 30.0162 288.378 30.0162C288.378 30.0162 288.378 26.2896 287.902 24.5035V24.5035ZM274.673 33.3996V26.6327L280.62 30.0163L274.673 33.3996V33.3996Z" fill="#FF0000"/>
</svg>
