<svg xmlns="http://www.w3.org/2000/svg" width="340" height="60" fill="none"><path fill="#333" d="M118.266 30.473c-.146 0-.292-.028-.438-.082a.715.715 0 0 1-.328-.328c-.055-.165-.173-.356-.355-.575a2.108 2.108 0 0 0-.493-.492l.11-.137c.091.055.31.164.656.328.346.165.602.247.766.247a.987.987 0 0 0 .683-.274c.201-.182.456-.529.766-1.039a7 7 0 0 0 .601-1.23c.183-.474.319-.912.411-1.313l.027-.055c0-.054-.018-.1-.055-.136-.036-.055-.073-.082-.109-.082l-1.258.11c-.839.145-1.714.263-2.625.355a2.862 2.862 0 0 0-.574.136c-.219.073-.374.11-.465.11-.146 0-.337-.119-.574-.356a1.94 1.94 0 0 1-.274-.273c-.073-.11-.091-.2-.054-.274l.218-.218.137-.11c.255-.255.51-.592.766-1.012.182-.255.373-.683.574-1.285 0-.2.045-.3.137-.3.054 0 .145.036.273.109l.438.273c.109.091.182.164.218.22a.384.384 0 0 1 .055.218c0 .11-.073.246-.219.41a4.152 4.152 0 0 0-.383.438l-.628.902-.055.11c0 .054.073.081.219.081l2.105-.273 1.422-.11.547-.054.301-.055h.082c.182 0 .382.155.601.465.255.237.383.437.383.601l-.137.356c-.018.036-.164.465-.437 1.285-.328.784-.611 1.376-.848 1.777s-.492.711-.765.93c-.493.401-.967.602-1.422.602Zm1.093 4.402c-.182.237-.373.355-.574.355-.055 0-.082-.045-.082-.136 0-.128.037-.274.109-.438l.547-1.093c.019-.073.046-.146.082-.22a1.4 1.4 0 0 0 .082-.19v-.028c0-.036-.027-.073-.082-.11a.229.229 0 0 0-.191-.027 23.25 23.25 0 0 0-1.312.137c-.566.073-.985.146-1.258.219l-.41.136a1.074 1.074 0 0 1-.356.083c-.328 0-.602-.1-.82-.301a1.669 1.669 0 0 1-.41-.383l-.055-.137c0-.091.155-.118.465-.082.419.037 1.285-.018 2.597-.164l.547-.082c.146-.018.374-.046.684-.082a6.62 6.62 0 0 0 .766-.164l.164-.055a.434.434 0 0 1 .191-.054c.091 0 .2.045.328.136.146.091.264.173.356.246.127.092.209.174.246.246.054.055.073.128.054.22 0 .09-.045.172-.136.245a2.563 2.563 0 0 0-.192.164 4.312 4.312 0 0 1-.383.41 4.476 4.476 0 0 1-.492.602c-.219.255-.373.438-.465.547Zm-1.367 5.387c0-.055.091-.192.274-.41l.464-.547c.274-.365.602-.894.985-1.586.401-.693.629-1.149.683-1.367.037-.11-.018-.164-.164-.164-.291 0-1.093.081-2.406.246-.857.109-1.495.218-1.914.328a.526.526 0 0 1-.273.082c-.146 0-.301-.1-.465-.301a.725.725 0 0 1-.11-.355c0-.073.046-.146.137-.22l.082-.109a5.86 5.86 0 0 0 .192-.437c.072-.182.136-.356.191-.52.091-.291.155-.61.191-.957.019-.2.128-.255.329-.164.255.128.446.255.574.383.146.11.191.191.136.246a2.722 2.722 0 0 0-.437.738 7.296 7.296 0 0 0-.164.575c0 .073.045.109.137.109.273 0 .683-.046 1.23-.137l1.148-.136c.456-.055.821-.11 1.094-.164l.684-.137a.712.712 0 0 1 .219-.028c.091 0 .182.037.273.11.091.054.191.127.301.219.182.164.301.3.355.41.055.09.082.2.082.328 0 .073-.054.164-.164.273-.091.11-.2.283-.328.52-.529 1.075-1.212 1.978-2.051 2.707a3.768 3.768 0 0 1-.793.465 3.232 3.232 0 0 1-.355.082c-.091 0-.137-.028-.137-.082Zm-15.777.93c-.31 0-.583-.092-.82-.274-.237-.2-.42-.42-.547-.656-.128-.255-.192-.456-.192-.602 0-.11.064-.164.192-.164.091 0 .164.01.218.027.401.092.793.137 1.176.137h.219l3.254-.11v-7.792l-.93.055c-.437.036-.72.054-.847.054-.274 0-.493-.055-.657-.164-.601-.383-.902-.83-.902-1.34 0-.11.055-.164.164-.164.073 0 .137.01.191.028.31.072.684.109 1.121.109h.356l1.531-.055v-6.644l-1.422.082c-.437.036-.72.054-.847.054h-.137a.842.842 0 0 1-.52-.164c-.382-.364-.638-.665-.765-.902-.11-.255-.164-.428-.164-.52 0-.109.064-.164.191-.164.073 0 .137.01.192.028.291.09.674.137 1.148.137h.328l4.922-.301a5.66 5.66 0 0 0 1.23-.246.91.91 0 0 1 .219-.055c.073 0 .237.082.492.246.274.146.52.328.739.547.218.2.328.383.328.547 0 .2-.21.319-.629.355l-3.637.246v6.7l.492-.028a8.336 8.336 0 0 0 1.504-.246c.146-.036.237-.055.274-.055.291 0 .61.165.957.493.346.31.519.565.519.765 0 .219-.2.347-.601.383l-3.172.164v7.793l2.078-.055c.273 0 .684-.063 1.23-.191.146-.036.247-.055.301-.055.201 0 .41.082.629.246.219.164.41.356.574.575.164.218.246.382.246.492 0 .127-.063.228-.191.3a.926.926 0 0 1-.465.11l-8.75.246-.82.027Zm-15.367-2.626c0-.145.082-.218.246-.218h.082c.273 0 .547-.046.82-.137.292-.091.465-.146.52-.164.382-.128.902-.32 1.558-.574l.903-.356.054-6.261-1.039.054-.683.027c-.328 0-.538-.036-.63-.109-.382-.346-.637-.693-.765-1.039a.645.645 0 0 1-.082-.273c0-.11.055-.164.164-.164.073 0 .137.009.192.027.218.073.492.11.82.11l.465-.028 1.558-.11.055-5.03-1.477.109c-.182.018-.419.027-.71.027h-.137c-.347 0-.638-.137-.875-.41-.219-.292-.365-.547-.438-.766a.644.644 0 0 1-.082-.273c0-.11.073-.164.219-.164.073 0 .127.009.164.027.292.073.629.11 1.012.11h.3l4.649-.301c.401-.037.747-.11 1.039-.22a.87.87 0 0 1 .246-.054c.091 0 .246.064.465.192.237.127.447.291.629.492.182.182.273.364.273.547 0 .218-.21.346-.629.383l-3.007.19-.028 5.06.356-.028c.237-.018.629-.091 1.175-.219.146-.036.237-.054.274-.054.2 0 .474.146.82.437.365.292.547.547.547.766 0 .219-.219.346-.656.383l-2.516.191-.027 5.715 3.144-1.45c.328-.145.566-.218.711-.218.164 0 .246.064.246.191 0 .328-.93 1.049-2.789 2.16-1.859 1.094-3.381 1.915-4.566 2.462-.456.218-.839.328-1.149.328a.914.914 0 0 1-.41-.082 2.848 2.848 0 0 1-.738-.657c-.182-.273-.273-.483-.273-.629Zm6.015 4.293c0-.218.255-.556.766-1.011 1.95-1.66 3.345-3.3 4.183-4.922.839-1.623 1.359-3.446 1.56-5.469a1.829 1.829 0 0 1-.712.137c-.237 0-.41-.064-.52-.192a.873.873 0 0 1-.163-.383 23.711 23.711 0 0 0-2.051-4.566.47.47 0 0 1-.11-.3c0-.128.082-.247.246-.356.31-.2.556-.3.739-.3.146 0 .282.081.41.245l.082.137a31.826 31.826 0 0 1 2.16 4.32c.037-.71.055-1.85.055-3.418l-.027-2.816a95.156 95.156 0 0 1-.028-2.625v-.274c0-.802-.091-1.349-.273-1.64a.468.468 0 0 1-.082-.219c0-.091.082-.137.246-.137.328 0 .711.091 1.148.274.438.182.656.4.656.656v5.305c0 2.15-.009 3.61-.027 4.375-.073 3.135-.693 5.733-1.86 7.793-1.166 2.041-2.925 3.773-5.277 5.195l-.136.082c-.292.182-.547.273-.766.273-.146 0-.219-.054-.219-.164ZM162.316 30.582c-.127 0-.264-.082-.41-.246a1.656 1.656 0 0 1-.218-.3c-.037-.092-.037-.21 0-.356l.027-.657c.018-.127.027-.437.027-.93v-.902l-.82.383-.957.41c-.237.091-.483.2-.738.328-.219.11-.411.165-.575.165a1.694 1.694 0 0 1-.437-.137 3.678 3.678 0 0 1-.383-.192c-.2-.127-.292-.264-.273-.41l.082-.273c0-.146.009-.274.027-.383l.027-1.586V24.02c0-.292-.018-.538-.054-.739a20.679 20.679 0 0 0-.082-.465c0-.09.027-.154.082-.191.018-.018.063-.027.136-.027.128 0 .374.082.739.246.31.146.437.328.382.547a4.866 4.866 0 0 0-.109.574l-.082 3.144a.72.72 0 0 0 .027.22c.037.036.073.054.11.054.218 0 .483-.064.793-.192a15.257 15.257 0 0 0 1.504-.546l.601-.247v-1.804c0-.73-.045-1.431-.137-2.106a.613.613 0 0 1-.027-.191c0-.182.073-.274.219-.274.018 0 .118.037.301.11.273.146.474.273.601.383.128.109.201.173.219.191.073.055.109.11.109.164a.268.268 0 0 1-.054.137c-.019.055-.037.1-.055.137l-.082.82-.027 2.515.027 2.434c0 .42-.027.784-.082 1.094-.091.383-.237.574-.438.574Zm-5.031 6.125c-.2 0-.446-.155-.738-.465-.219-.219-.328-.383-.328-.492 0-.055.036-.082.109-.082.073-.018.164-.027.274-.027l.601-.028c.346 0 .574-.009.684-.027.346 0 .638-.01.875-.027 1.567-.146 2.625-.265 3.172-.356.273-.036.519-.073.738-.11.219-.054.392-.081.519-.081.256 0 .511.127.766.383.201.2.301.364.301.492 0 .11-.064.182-.192.218-.091.019-.628.055-1.613.11-.547.018-1.221.064-2.023.137-.802.073-1.504.145-2.106.218l-.465.082c-.2.037-.392.055-.574.055Zm11.457-9.078c.219 0 .328.1.328.3 0 .11-.1.265-.3.466-.547.674-1.632 1.96-3.254 3.855-.128.164-.246.246-.356.246-.091 0-.292-.137-.601-.41-.256-.219-.383-.401-.383-.547 0-.164.136-.319.41-.465.419-.237 1.048-.71 1.887-1.422.838-.747 1.458-1.34 1.859-1.777.164-.164.301-.246.41-.246Zm-17.5.164c.237 0 .52.082.848.246.328.164.492.392.492.684a.73.73 0 0 1-.164.437c-.109.128-.173.21-.191.246-1.021 2.68-2.306 5.032-3.856 7.055 1.622 1.768 3.691 3.381 6.207 4.84.365.2.547.364.547.492 0 .182-.182.428-.547.738-.346.31-.62.465-.82.465-.201 0-.675-.273-1.422-.82a30.7 30.7 0 0 1-2.516-2.024 31.837 31.837 0 0 1-2.488-2.433c-1.203 1.367-2.388 2.452-3.555 3.254-1.166.784-2.151 1.33-2.953 1.64-.802.31-1.303.465-1.504.465-.218 0-.328-.064-.328-.191 0-.219.283-.492.848-.82 2.388-1.295 4.548-3.154 6.48-5.579a33.415 33.415 0 0 1-3.363-5.14c-.492 2.114-1.112 3.974-1.859 5.578-.73 1.586-1.44 2.816-2.133 3.691-.675.875-1.121 1.313-1.34 1.313-.091 0-.137-.064-.137-.192 0-.146.073-.364.219-.656a31.781 31.781 0 0 0 2.734-6.371c.657-2.188 1.103-4.12 1.34-5.797.237-1.677.429-3.436.574-5.277l-.902.082c-.401.036-.683.054-.848.054-.364 0-.674-.082-.929-.246-.255-.182-.483-.565-.684-1.148l-.027-.137c0-.127.073-.191.219-.191.091 0 .164.009.218.027.328.091.675.137 1.039.137h.247l8.558-.711h.137c.364 0 .683.091.957.273.273.164.41.365.41.602 0 .11-.055.246-.164.41a1.838 1.838 0 0 0-.191.383l-1.887 4.785 2.351-.137.383-.027Zm-22.066 13.535c0-.146.054-.383.164-.71.383-1.076.784-2.608 1.203-4.595.055-.273.109-.455.164-.546.073-.092.182-.137.328-.137.164 0 .365.054.602.164.237.091.355.228.355.41 0 .346-.1 1.121-.301 2.324a22.294 22.294 0 0 1-.82 3.336c-.109.42-.273.63-.492.63-.201 0-.456-.101-.766-.302-.291-.182-.437-.373-.437-.574Zm.246-8.45c0-.072.055-.163.164-.273.128-.109.255-.21.383-.3.146-.091.282-.192.41-.301.273-.182.784-.693 1.531-1.531a79.25 79.25 0 0 0 2.352-2.762l-.875.082c-1.823.182-2.899.273-3.227.273-.182 0-.355-.127-.519-.382-.146-.256-.219-.493-.219-.711 0-.11.064-.2.191-.274.128-.073.219-.127.274-.164.328-.219.592-.447.793-.683.218-.22.619-.748 1.203-1.586a26.53 26.53 0 0 0 1.613-2.598c.474-.875.711-1.531.711-1.969 0-.219.1-.328.301-.328.091 0 .246.064.465.192.237.109.446.255.629.437.182.164.273.328.273.492 0 .237-.064.474-.191.711l-.192.383c-.255.474-.756 1.249-1.504 2.324a33.784 33.784 0 0 1-2.023 2.68c.838-.073 2.005-.2 3.5-.383 1.185-1.604 1.777-2.57 1.777-2.898 0-.292.082-.438.246-.438.201 0 .465.128.793.383s.492.51.492.765c0 .073-.054.201-.164.383-.109.164-.191.301-.246.41-.419.73-1.367 1.997-2.843 3.801-1.477 1.805-2.589 3.026-3.336 3.664.565-.09 2.05-.428 4.457-1.011l-.547-1.094c-.11-.164-.164-.31-.164-.438 0-.164.091-.3.273-.41.201-.11.392-.164.574-.164.292 0 .502.11.629.328.31.383.693 1.04 1.149 1.969.455.93.683 1.486.683 1.668 0 .255-.155.456-.465.602-.291.127-.537.191-.738.191a.297.297 0 0 1-.219-.082c-.054-.055-.109-.164-.164-.328l-.437-.957-.93.218c-1.112.292-2.269.584-3.473.876-1.203.273-1.968.41-2.296.41-.292-.019-.547-.164-.766-.438-.219-.273-.328-.52-.328-.738Zm3.582 2.49c0-.22.109-.365.328-.438.219-.073.41-.11.574-.11.146 0 .255.055.328.164.092.091.174.256.246.493l.165.793c.51 2.187.765 3.472.765 3.855 0 .31-.155.529-.465.656-.291.11-.528.164-.711.164-.164 0-.282-.063-.355-.191-.073-.146-.128-.365-.164-.656-.182-1.805-.392-3.181-.629-4.13a2.481 2.481 0 0 1-.082-.6Zm2.734-.63c0-.2.11-.346.328-.437.219-.11.42-.164.602-.164s.328.127.437.383c.493 1.13.866 2.087 1.122 2.87.054.165.082.301.082.41 0 .22-.128.402-.383.548a1.347 1.347 0 0 1-.711.218c-.146 0-.255-.045-.328-.136a1.627 1.627 0 0 1-.192-.465c-.273-1.24-.565-2.197-.875-2.871a1.089 1.089 0 0 1-.082-.356Zm10.938-6.672 1.886-4.949-4.539.383a65.245 65.245 0 0 1-.492 4.758l3.145-.192Zm-2.926 1.668c1.13 2.097 2.306 3.92 3.527 5.47a23.47 23.47 0 0 0 2.981-5.825l-6.508.355ZM204.316 27.3c-.127 0-.264-.081-.41-.245a1.656 1.656 0 0 1-.218-.301c-.037-.091-.037-.21 0-.356l.027-.656c.018-.127.027-.437.027-.93v-.902l-.82.383-.957.41c-.237.091-.483.2-.738.328-.219.11-.411.164-.575.164a1.694 1.694 0 0 1-.437-.136 3.678 3.678 0 0 1-.383-.192c-.2-.127-.292-.264-.273-.41l.082-.273c0-.146.009-.274.027-.383l.027-1.586v-1.477c0-.291-.018-.537-.054-.738a20.47 20.47 0 0 0-.082-.465c0-.091.027-.155.082-.191.018-.018.063-.028.136-.028.128 0 .374.082.739.247.31.145.437.328.382.546a4.866 4.866 0 0 0-.109.575l-.082 3.144a.72.72 0 0 0 .027.219c.037.036.073.055.11.055.218 0 .483-.064.793-.192a15.257 15.257 0 0 0 1.504-.547l.601-.246v-1.805c0-.729-.045-1.43-.137-2.105a.613.613 0 0 1-.027-.191c0-.183.073-.274.219-.274.018 0 .118.037.301.11.273.145.474.273.601.382.128.11.201.174.219.192.073.055.109.11.109.164a.268.268 0 0 1-.054.137c-.019.054-.037.1-.055.136l-.082.82-.027 2.516.027 2.434c0 .42-.027.784-.082 1.094-.091.382-.237.574-.438.574Zm-5.031 4.485c-.2 0-.446-.155-.738-.465-.219-.218-.328-.383-.328-.492 0-.055.036-.082.109-.082.073-.018.164-.027.274-.027l.601-.028c.346 0 .574-.009.684-.027.346 0 .638-.01.875-.027 1.567-.146 2.625-.265 3.172-.356.273-.036.519-.073.738-.11.219-.054.392-.081.519-.081.256 0 .511.127.766.383.201.2.301.364.301.492 0 .11-.064.182-.192.219-.091.018-.628.054-1.613.109a36.33 36.33 0 0 0-2.023.137c-.802.073-1.504.146-2.106.218l-.465.082c-.2.037-.392.055-.574.055Zm-.164 10.91c-.273 0-.483-.073-.629-.218-.164-.164-.246-.31-.246-.438s.073-.264.219-.41c.018-.018.118-.164.301-.438a34.91 34.91 0 0 0 1.367-2.433c.528-1.003.857-1.686.984-2.051.11-.346.21-.647.301-.902.109-.255.2-.383.273-.383a.45.45 0 0 1 .329.137c.091.073.182.182.273.328.109.127.191.218.246.273.128.146.191.283.191.41a.437.437 0 0 1-.109.274 1.436 1.436 0 0 0-.137.191l-1.203 2.024c-.31.565-.72 1.267-1.23 2.105a.438.438 0 0 0-.11.273c0 .073.082.11.247.11.346 0 .993-.046 1.941-.137.948-.073 1.586-.137 1.914-.191.474-.055.802-.11.984-.164.201-.055.493.082.875.41.456.383.556.629.301.738-.146.073-.428.11-.848.11h-1.093c-.237 0-.611.018-1.121.054-.31 0-.657.01-1.039.028a42.09 42.09 0 0 0-.957.054c-.292.018-.857.073-1.696.164l-.328.082Zm-16.516-.574c-.401 0-.747-.1-1.039-.3-.291-.183-.537-.584-.738-1.204a.385.385 0 0 1-.027-.164c0-.11.054-.164.164-.164.018 0 .082.018.191.055.474.182.976.273 1.504.273l5.031-.164.082-4.184-2.296.083-.848.027c-.492 0-.839-.1-1.039-.3a2.848 2.848 0 0 1-.492-.684c-.128-.274-.192-.465-.192-.575 0-.09.046-.136.137-.136l.246.054c.401.128.802.192 1.203.192h.219l6.617-.274c.474-.036.957-.11 1.449-.218h.137c.255 0 .565.145.93.437.383.292.574.556.574.793 0 .11-.046.2-.137.273-.073.073-.182.11-.328.11l-4.484.164-.082 4.183 4.402-.136c.583-.037 1.066-.119 1.449-.246a.382.382 0 0 1 .164-.028c.183 0 .401.082.657.246.255.164.474.356.656.575.2.2.301.355.301.464a.344.344 0 0 1-.164.301.483.483 0 0 1-.356.137l-13.234.383-.657.027Zm-11.156-1.012c0-.09.055-.3.164-.629.255-.601.474-1.24.657-1.914.2-.674.419-1.513.656-2.515.054-.237.109-.401.164-.492.073-.092.182-.137.328-.137.182 0 .392.055.629.164.255.091.383.228.383.41 0 .31-.119 1.03-.356 2.16a25.575 25.575 0 0 1-.875 3.282c-.109.4-.273.601-.492.601-.2 0-.465-.11-.793-.328-.31-.2-.465-.401-.465-.602Zm.574-8.257c0-.092.073-.192.219-.301.146-.128.237-.2.274-.219.218-.146.373-.264.464-.355.256-.201.757-.73 1.504-1.586a60.03 60.03 0 0 0 2.243-2.735l-.903.082c-1.75.183-2.771.274-3.062.274-.183 0-.347-.119-.492-.356a1.487 1.487 0 0 1-.219-.738c0-.073.027-.137.082-.191.073-.055.137-.1.191-.137.073-.055.128-.091.164-.11.31-.218.565-.446.766-.683.219-.219.611-.748 1.176-1.586a27.51 27.51 0 0 0 1.558-2.57c.456-.875.684-1.532.684-1.97 0-.218.1-.327.301-.327.073 0 .218.064.437.191.237.11.447.246.629.41.182.164.273.32.273.465 0 .237-.063.474-.191.711l-.191.383c-.237.474-.711 1.249-1.422 2.324a33.939 33.939 0 0 1-1.996 2.707c.656-.055 1.777-.182 3.363-.383 1.112-1.55 1.677-2.506 1.695-2.87 0-.274.073-.41.219-.41.201 0 .456.127.766.382.328.255.492.501.492.738 0 .11-.055.255-.164.438-.11.182-.192.31-.246.383-.383.692-1.276 1.932-2.68 3.718-1.404 1.787-2.479 3.017-3.227 3.692.566-.073 1.978-.401 4.239-.985-.292-.674-.465-1.039-.52-1.093-.127-.146-.173-.283-.137-.41 0-.183.092-.32.274-.41.182-.11.365-.165.547-.165.273 0 .474.1.601.3.31.402.675 1.067 1.094 1.997.438.911.656 1.468.656 1.668 0 .255-.145.447-.437.574-.292.128-.529.192-.711.192-.182-.019-.319-.155-.41-.41-.055-.201-.183-.52-.383-.958l-1.066.274c-1.039.273-2.124.547-3.254.82-1.112.255-1.823.392-2.133.41-.274-.018-.52-.164-.738-.437-.219-.274-.329-.52-.329-.738Zm3.473 2.625c0-.237.109-.383.328-.438.237-.073.447-.11.629-.11.146 0 .255.055.328.165.091.09.173.246.246.465.638 2.552.957 4.047.957 4.484 0 .328-.155.547-.464.656-.292.11-.538.164-.739.164-.164 0-.282-.063-.355-.191-.073-.128-.128-.328-.164-.602-.219-1.768-.447-3.117-.684-4.047a2.319 2.319 0 0 1-.082-.546Zm3.063-.547c0-.11.073-.228.218-.356.164-.146.401-.218.711-.218.219 0 .401.154.547.464.438.839.811 1.696 1.121 2.57.328.857.492 1.422.492 1.696 0 .292-.145.51-.437.656-.273.128-.52.192-.738.192a.413.413 0 0 1-.328-.164 3.635 3.635 0 0 1-.247-.602 26.796 26.796 0 0 0-1.175-3.61 3.433 3.433 0 0 1-.11-.328 1.187 1.187 0 0 1-.054-.3Zm2.898-5.88c0-.2.064-.373.191-.519.803-.948 1.359-1.668 1.668-2.16.31-.51.465-.948.465-1.312 0-.146-.009-.247-.027-.301l-.027-.137c0-.219.118-.328.355-.328.201 0 .529.128.984.383.456.237.684.456.684.656 0 .073-.009.119-.027.137-.693 1.166-1.595 2.36-2.707 3.582.692.729 1.312 1.467 1.859 2.215.547.747.82 1.194.82 1.34 0 .2-.155.4-.465.601-.291.182-.51.273-.656.273-.182 0-.373-.182-.574-.546a17.927 17.927 0 0 0-2.27-3.227.896.896 0 0 1-.273-.656Zm.383-7.19c0-.11.064-.165.191-.165.091 0 .164.01.219.028.419.073.839.109 1.258.109h.355l8.203-.52a9.713 9.713 0 0 0 1.559-.273.465.465 0 0 1 .191-.027c.256 0 .575.146.957.437.383.292.575.565.575.82 0 .11-.046.201-.137.274a.91.91 0 0 1-.356.11l-10.281.6c-.273.02-.61.028-1.012.028-.382 0-.71-.082-.984-.246a1.986 1.986 0 0 1-.574-.601c-.109-.237-.164-.429-.164-.575Zm3.719 6.835c0-.2.054-.364.164-.492.984-1.166 1.613-1.941 1.886-2.324.274-.401.411-.775.411-1.121a.716.716 0 0 0-.028-.219l-.027-.191c0-.2.1-.301.301-.301.255 0 .601.137 1.039.41.437.255.656.483.656.684 0 .054-.018.1-.055.136a15.99 15.99 0 0 1-1.203 1.641 73.369 73.369 0 0 1-1.558 1.777c.054.055.537.565 1.449 1.532.929.966 1.394 1.64 1.394 2.023 0 .182-.155.365-.465.547-.291.182-.51.273-.656.273-.182 0-.383-.173-.601-.52a19.602 19.602 0 0 0-2.461-3.171c-.164-.164-.246-.392-.246-.684Zm4.238-.054c0-.2.055-.365.164-.493.93-1.039 1.549-1.813 1.859-2.324.31-.528.465-.993.465-1.394v-.137l-.027-.191c0-.201.1-.301.301-.301.255 0 .601.127 1.039.383.437.237.656.464.656.683a.412.412 0 0 1-.055.164c-.929 1.459-1.868 2.662-2.816 3.61a19.627 19.627 0 0 1 2.051 2.023c.619.693.929 1.148.929 1.367 0 .2-.146.392-.437.575-.237.182-.438.273-.602.273a.474.474 0 0 1-.301-.11l-.328-.41c-.674-.93-1.558-1.941-2.652-3.035a1.05 1.05 0 0 1-.246-.683ZM241.285 27.137c-.2 0-.446-.155-.738-.465-.219-.219-.328-.383-.328-.492 0-.055.036-.082.109-.082.073-.019.164-.028.274-.028l.601-.027c.346 0 .574-.01.684-.027.346 0 .638-.01.875-.028 1.567-.146 2.625-.264 3.172-.355.273-.037.519-.073.738-.11.219-.054.392-.082.519-.082.256 0 .511.128.766.383.201.2.301.365.301.492 0 .11-.064.183-.192.22-.091.017-.628.054-1.613.108-.547.019-1.221.064-2.023.137-.802.073-1.504.146-2.106.219-.109.018-.264.046-.465.082-.2.037-.392.055-.574.055Zm-.164 12.55c-.273 0-.483-.072-.629-.218-.164-.164-.246-.31-.246-.438 0-.127.073-.264.219-.41.018-.018.118-.164.301-.437a34.91 34.91 0 0 0 1.367-2.434c.528-1.003.857-1.686.984-2.05.11-.347.21-.648.301-.903.109-.255.2-.383.273-.383a.45.45 0 0 1 .329.137c.091.073.182.182.273.328.109.128.191.219.246.273.128.146.191.283.191.41a.437.437 0 0 1-.109.274 1.45 1.45 0 0 0-.137.191l-1.203 2.024c-.31.565-.72 1.267-1.23 2.105a.438.438 0 0 0-.11.274c0 .073.082.11.247.11.346 0 .993-.037 1.941-.11.948-.091 1.586-.164 1.914-.22.474-.054.802-.108.984-.163.201-.055.493.082.875.41.456.383.556.629.301.738-.146.073-.428.11-.848.11h-1.093c-.237 0-.611.018-1.121.054-.31 0-.657.01-1.039.028-.383.018-.702.036-.957.054-.292.019-.857.073-1.696.164l-.328.083Zm11.621-12.058c.219 0 .328.1.328.3 0 .11-.1.265-.3.466-.547.674-1.632 1.96-3.254 3.855-.128.164-.246.246-.356.246-.091 0-.292-.137-.601-.41-.256-.219-.383-.401-.383-.547 0-.164.136-.319.41-.465.419-.237 1.048-.71 1.887-1.422.838-.747 1.458-1.34 1.859-1.777.164-.164.301-.246.41-.246Zm-32.265 15.668v.11c0 .31-.137.464-.411.464-.255 0-.546-.1-.875-.3-.328-.183-.492-.41-.492-.684v-.192c.018-.164.028-.41.028-.738a5.17 5.17 0 0 0-.055-.82l-.274-2.352a4.316 4.316 0 0 0-.41-1.34.723.723 0 0 1-.109-.355c0-.128.082-.192.246-.192.292 0 .902.183 1.832.547l3.063-.11c.638-.82 1.02-1.476 1.148-1.968l-2.734.11.027.246v.082c0 .328-.146.492-.438.492-.255 0-.546-.091-.875-.274-.309-.2-.464-.428-.464-.683l.027-.246c.018-.128.027-.292.027-.492 0-.274-.018-.52-.054-.739l-.246-1.75a2.876 2.876 0 0 0-.356-1.093c-.109-.183-.164-.31-.164-.383 0-.128.1-.192.301-.192.291 0 .875.155 1.75.465l9.324-.492h.301c.346 0 .665.119.957.355.291.22.437.42.437.602 0 .073-.036.173-.109.3a1.14 1.14 0 0 0-.137.329l-.465 1.777c.474.474.711.802.711.985 0 .109-.054.182-.164.218a2.475 2.475 0 0 1-.547.082l-5.742.246c.201.201.301.374.301.52 0 .091-.109.283-.328.574a7.522 7.522 0 0 1-.738.848l7.273-.273h.328c.346 0 .656.109.93.328.273.218.41.437.41.656 0 .073-.037.173-.109.3a2.097 2.097 0 0 0-.11.301l-.629 2.325c.511.583.766.975.766 1.175 0 .11-.073.183-.219.22-.127.054-.355.09-.683.108l-12.305.247.055.656Zm-6.563-11.129c0-.091.027-.191.082-.3a16.08 16.08 0 0 0 .984-2.325c.292-.875.502-1.732.629-2.57.037-.22.082-.365.137-.438.055-.073.146-.11.274-.11.291 0 .537.055.738.165.2.091.301.246.301.465l-.028.218c-.018.165-.064.429-.136.793l.273-.027c-.055-.036-.082-.073-.082-.11 0-.072.046-.182.137-.327.109-.146.255-.292.437-.438 1.021-.875 1.668-1.786 1.942-2.734a9.914 9.914 0 0 0 .437-2.926c0-.656-.027-1.13-.082-1.422a3.113 3.113 0 0 0-.273-.848.624.624 0 0 1-.082-.246c0-.127.109-.191.328-.191.182 0 .465.055.847.164.365.11.593.219.684.328.109.11.164.283.164.52 0 1.093-.036 2.005-.109 2.734.711-.492 1.248-.93 1.613-1.313.364-.382.583-.756.656-1.12.037-.22.119-.329.246-.329.146 0 .383.173.711.52.347.346.52.601.52.765 0 .292-.465.72-1.395 1.286a46.129 46.129 0 0 1-2.652 1.53 34.21 34.21 0 0 1 3.527 2.188c.237.164.356.338.356.52 0 .2-.11.42-.328.656-.201.237-.356.374-.465.41l8.914-.465c-.164-.164-.574-.492-1.231-.984a24.522 24.522 0 0 0-1.968-1.422c-.73 1.04-1.741 1.86-3.036 2.461a3.742 3.742 0 0 1-.273.11 1.342 1.342 0 0 1-.547.136c-.146 0-.219-.055-.219-.164 0-.182.219-.437.657-.765.893-.657 1.549-1.331 1.968-2.024.42-.693.684-1.385.793-2.078.128-.693.192-1.54.192-2.543 0-.474-.091-.82-.274-1.04a.418.418 0 0 1-.136-.3c0-.127.109-.191.328-.191.255 0 .592.082 1.011.246.42.146.629.383.629.71 0 1.095-.054 2.052-.164 2.872 1.331-.857 2.024-1.623 2.078-2.297.037-.219.128-.328.274-.328.073 0 .219.073.437.219.237.145.447.319.629.52.182.2.274.382.274.546 0 .182-.356.538-1.067 1.066-.692.51-1.677 1.067-2.953 1.668 1.622.912 2.662 1.54 3.117 1.887.474.346.711.61.711.793 0 .146-.054.3-.164.465a2.468 2.468 0 0 1-.301.383l1.805-.11h.383c.346 0 .638.11.875.328.255.22.383.42.383.602a.526.526 0 0 1-.164.383l-.219.219a20.808 20.808 0 0 1-2.106 2.378c-.783.784-1.321 1.176-1.613 1.176-.109 0-.164-.063-.164-.191 0-.2.128-.465.383-.793.729-1.057 1.267-1.932 1.613-2.625l-18.594.957a25.955 25.955 0 0 1-1.039 3.2c-.109.29-.282.437-.519.437a2.9 2.9 0 0 1-.793-.356c-.201-.164-.301-.355-.301-.574Zm2.27-11.074c0-.146.109-.283.328-.41.218-.146.373-.22.465-.22.164 0 .419.238.765.712.347.456.656.966.93 1.531.292.547.437.92.437 1.121 0 .2-.118.383-.355.547-.237.164-.447.246-.629.246a.364.364 0 0 1-.301-.137 1.604 1.604 0 0 1-.219-.437c-.346-.966-.756-1.814-1.23-2.543-.128-.2-.191-.337-.191-.41Zm7.957 6.59c-.146-.037-.292-.137-.438-.301a27.609 27.609 0 0 0-2.898-2.297c-.711 1.367-1.823 2.352-3.336 2.953l6.672-.355Zm-3.883 13.48 10.937-.246.493-2.516-11.676.438.246 2.324Zm1.012-6.973 8.421-.355.383-1.996-9.023.437.219 1.914Zm4.484-13.672c0-.163.1-.3.301-.41.2-.127.383-.191.547-.191.2 0 .464.228.793.684.328.455.628.966.902 1.53.273.548.41.885.41 1.012 0 .201-.118.374-.355.52-.237.146-.456.219-.657.219a.875.875 0 0 1-.246-.055c-.146-.091-.255-.246-.328-.465-.292-.966-.674-1.759-1.148-2.379-.146-.182-.219-.337-.219-.465Z"/><path fill="red" d="M287.902 24.503a2.86 2.86 0 0 0-2.012-2.024C284.116 22 277 22 277 22s-7.116 0-8.891.479a2.857 2.857 0 0 0-2.011 2.024c-.476 1.787-.476 5.513-.476 5.513s0 3.727.476 5.513a2.814 2.814 0 0 0 2.011 1.992C269.884 38 277 38 277 38s7.116 0 8.89-.479a2.817 2.817 0 0 0 2.012-1.992c.476-1.786.476-5.513.476-5.513s0-3.726-.476-5.512ZM274.673 33.4v-6.767l5.947 3.383-5.947 3.384Z"/></svg>