<svg width="340" height="60" viewBox="0 0 340 60" fill="none" xmlns="http://www.w3.org/2000/svg">
<path d="M118.293 30.6367C118.038 30.6367 117.846 30.5547 117.719 30.3906C117.555 30.0807 117.217 29.7435 116.707 29.3789L116.762 29.2422C117.327 29.4792 117.801 29.5977 118.184 29.5977C118.421 29.5977 118.621 29.4609 118.785 29.1875C118.967 28.8958 119.159 28.4766 119.359 27.9297C119.596 27.2552 119.724 26.6901 119.742 26.2344C119.742 26.1797 119.715 26.1341 119.66 26.0977C119.605 26.043 119.56 26.0156 119.523 26.0156C119.359 25.9974 119.049 26.0247 118.594 26.0977L118.02 26.1797C117.855 26.1979 117.664 26.2344 117.445 26.2891C117.245 26.3438 117.081 26.3802 116.953 26.3984C116.88 26.4167 116.762 26.4531 116.598 26.5078C116.434 26.5625 116.315 26.5898 116.242 26.5898C116.151 26.5898 116.042 26.5443 115.914 26.4531C115.805 26.3438 115.704 26.2253 115.613 26.0977C115.595 26.0794 115.586 26.043 115.586 25.9883C115.586 25.9154 115.641 25.8242 115.75 25.7148C115.878 25.5872 115.978 25.487 116.051 25.4141C116.142 25.3047 116.233 25.1771 116.324 25.0312C116.415 24.8672 116.488 24.7487 116.543 24.6758C116.634 24.5299 116.707 24.3568 116.762 24.1562L116.816 23.9102C116.816 23.8919 116.807 23.8464 116.789 23.7734C116.771 23.6823 116.734 23.6367 116.68 23.6367C115.951 23.7279 115.413 23.8372 115.066 23.9648C114.993 24.0013 114.884 24.0378 114.738 24.0742C114.611 24.0742 114.501 24.0195 114.41 23.9102C114.355 23.8919 114.246 23.7461 114.082 23.4727C114.009 23.3997 113.973 23.3359 113.973 23.2812C113.973 23.1536 114.164 23.0807 114.547 23.0625L115.066 23.0078C115.158 23.0078 115.349 22.9896 115.641 22.9531C116.224 22.8984 117.035 22.8346 118.074 22.7617C118.439 22.7435 119.068 22.6979 119.961 22.625C120.216 22.6068 120.526 22.5703 120.891 22.5156C121.091 22.4609 121.219 22.4336 121.273 22.4336C121.365 22.4336 121.456 22.4701 121.547 22.543C121.638 22.5794 121.757 22.6523 121.902 22.7617C122.048 22.8529 122.158 22.9531 122.23 23.0625C122.303 23.1536 122.34 23.2448 122.34 23.3359C122.34 23.4271 122.294 23.4909 122.203 23.5273C122.112 23.5638 121.993 23.5638 121.848 23.5273C121.629 23.4727 121.374 23.4362 121.082 23.418C120.809 23.3997 120.645 23.3906 120.59 23.3906C119.97 23.3724 119.195 23.3997 118.266 23.4727C118.01 23.5091 117.819 23.5273 117.691 23.5273C117.801 23.6185 117.901 23.7643 117.992 23.9648V24.0195C117.992 24.0742 117.965 24.1471 117.91 24.2383C117.855 24.3294 117.792 24.3932 117.719 24.4297C117.628 24.4844 117.518 24.612 117.391 24.8125C117.263 25.013 117.181 25.1406 117.145 25.1953C117.035 25.3411 116.98 25.4596 116.98 25.5508C116.98 25.6237 117.053 25.651 117.199 25.6328C117.327 25.6146 117.591 25.5781 117.992 25.5234C118.411 25.4505 118.721 25.3867 118.922 25.332C118.977 25.3138 119.059 25.2956 119.168 25.2773C119.296 25.2591 119.441 25.2227 119.605 25.168C119.733 25.1497 119.861 25.1771 119.988 25.25C120.134 25.3229 120.353 25.4779 120.645 25.7148C120.863 25.8789 120.973 26.0247 120.973 26.1523C120.973 26.2435 120.936 26.3346 120.863 26.4258C120.79 26.5534 120.736 26.7266 120.699 26.9453C120.535 27.7109 120.344 28.3307 120.125 28.8047C119.961 29.1328 119.806 29.4062 119.66 29.625C119.514 29.8255 119.332 30.026 119.113 30.2266C118.876 30.5 118.603 30.6367 118.293 30.6367ZM118.484 40.1797C117.609 40.1797 116.88 39.9609 116.297 39.5234C115.695 39.0312 115.395 38.457 115.395 37.8008C115.395 37.2904 115.586 36.8438 115.969 36.4609C116.461 36.0417 117.081 35.832 117.828 35.832C117.865 35.832 117.892 35.7956 117.91 35.7227C117.947 35.6315 117.965 35.513 117.965 35.3672L117.992 34.6562C117.865 34.6745 117.618 34.7018 117.254 34.7383C116.908 34.7747 116.652 34.8112 116.488 34.8477C116.579 34.8294 116.297 34.8932 115.641 35.0391C115.586 35.0573 115.486 35.0664 115.34 35.0664C114.993 35.0664 114.702 34.9115 114.465 34.6016C114.355 34.4922 114.301 34.401 114.301 34.3281C114.301 34.2188 114.465 34.1641 114.793 34.1641L115.641 34.1094L117.965 33.8086V33.4805V32.7969C117.947 32.724 117.938 32.6419 117.938 32.5508C117.938 32.4596 117.928 32.3867 117.91 32.332C117.874 32.1862 117.855 32.0951 117.855 32.0586C117.855 31.931 117.919 31.8672 118.047 31.8672C118.211 31.8672 118.493 31.9857 118.895 32.2227C119.022 32.2956 119.086 32.3958 119.086 32.5234C119.086 32.6146 119.068 32.6966 119.031 32.7695C119.013 32.8242 119.004 32.888 119.004 32.9609V33.7266L119.824 33.6445L120.836 33.5352C120.927 33.5169 121.027 33.4896 121.137 33.4531C121.264 33.4167 121.365 33.3984 121.438 33.3984C121.547 33.3984 121.684 33.4531 121.848 33.5625C122.158 33.763 122.312 33.9362 122.312 34.082C122.312 34.2279 122.158 34.3008 121.848 34.3008C121.757 34.3008 121.629 34.319 121.465 34.3555C121.301 34.3737 121.091 34.3919 120.836 34.4102L119.004 34.5469L118.977 36.2148C118.94 36.4883 118.74 36.6615 118.375 36.7344H118.32C118.211 36.7344 118.102 36.7253 117.992 36.707C117.901 36.6706 117.828 36.6523 117.773 36.6523C117.628 36.6523 117.482 36.6615 117.336 36.6797C117.19 36.6979 117.062 36.7526 116.953 36.8438C116.643 37.1172 116.488 37.4362 116.488 37.8008C116.488 38.1654 116.661 38.4935 117.008 38.7852C117.318 39.0768 117.81 39.2227 118.484 39.2227C119.378 39.1862 120.107 38.9401 120.672 38.4844C120.909 38.3203 121.091 38.2383 121.219 38.2383C121.292 38.2383 121.383 38.2565 121.492 38.293C121.51 38.3112 121.547 38.3477 121.602 38.4023C121.656 38.457 121.684 38.5117 121.684 38.5664C121.684 39.0768 121.255 39.4961 120.398 39.8242C119.76 40.0612 119.122 40.1797 118.484 40.1797ZM123.242 29.8164C123.333 29.8164 123.47 29.8802 123.652 30.0078C123.634 30.0443 123.671 30.1172 123.762 30.2266C123.853 30.3177 123.917 30.3815 123.953 30.418C124.044 30.5091 124.135 30.6185 124.227 30.7461C124.336 30.8737 124.454 31.0104 124.582 31.1562C124.91 31.5026 125.667 32.4049 126.852 33.8633C127.052 34.1549 127.152 34.3281 127.152 34.3828C127.152 34.5651 127.043 34.6562 126.824 34.6562C126.697 34.6562 126.56 34.5651 126.414 34.3828C126.068 34.0182 125.448 33.444 124.555 32.6602C123.862 32.0221 123.233 31.5299 122.668 31.1836C122.395 31.056 122.258 30.9102 122.258 30.7461C122.258 30.6185 122.395 30.4362 122.668 30.1992C122.923 29.944 123.115 29.8164 123.242 29.8164ZM103.336 42.5312C103.445 41.5104 103.5 40.5898 103.5 39.7695V36.2148C103.5 35.8867 103.536 35.2578 103.609 34.3281C103.263 35.2943 102.589 36.3607 101.586 37.5273C100.583 38.694 99.5443 39.7057 98.4688 40.5625C97.4115 41.401 96.7005 41.8203 96.3359 41.8203C96.2083 41.8203 96.1445 41.7656 96.1445 41.6562C96.1445 41.5104 96.2812 41.3099 96.5547 41.0547C98.9062 38.9036 100.902 36.3607 102.543 33.4258L98.9609 33.5898H98.5781C98.3229 33.5898 98.1315 33.5807 98.0039 33.5625C97.8763 33.526 97.776 33.4714 97.7031 33.3984C97.5208 33.2526 97.3477 33.043 97.1836 32.7695C97.0378 32.4961 96.9648 32.2956 96.9648 32.168C96.9648 32.0404 97.0469 31.9766 97.2109 31.9766L97.3203 32.0039C97.7214 32.0951 98.1042 32.1406 98.4688 32.1406H98.7148L103.473 31.9492V29.7344L100.629 29.8711L100.656 30.2266V30.3086C100.656 30.6914 100.501 30.8828 100.191 30.8828C99.9544 30.8828 99.6719 30.7917 99.3438 30.6094C99.0156 30.4089 98.8516 30.1536 98.8516 29.8438L98.8789 29.4336C98.9154 29.0326 98.9336 28.7044 98.9336 28.4492C98.9336 28.2122 98.9245 28.0299 98.9062 27.9023L98.4961 22.8164C98.4414 22.1055 98.3138 21.5039 98.1133 21.0117C98.0586 20.8477 98.0312 20.7201 98.0312 20.6289C98.0312 20.5013 98.1133 20.4375 98.2773 20.4375C98.6055 20.4375 99.2161 20.6289 100.109 21.0117L108.941 20.4102H109.105C109.561 20.4102 109.908 20.5286 110.145 20.7656C110.382 20.9844 110.5 21.1758 110.5 21.3398C110.5 21.431 110.464 21.5495 110.391 21.6953C110.318 21.8229 110.281 21.9141 110.281 21.9688L109.57 28.0391C110.099 28.5677 110.363 28.9323 110.363 29.1328C110.363 29.2422 110.309 29.3151 110.199 29.3516C110.108 29.388 109.962 29.4154 109.762 29.4336L105.113 29.6523V31.8672L109.543 31.6758C110.053 31.6393 110.445 31.5664 110.719 31.457C110.828 31.4206 110.919 31.4023 110.992 31.4023C111.229 31.4023 111.512 31.5391 111.84 31.8125C112.186 32.0859 112.359 32.3411 112.359 32.5781C112.359 32.8516 112.159 33.0065 111.758 33.043L105.797 33.2891L106.562 34.1094C107.857 35.513 108.923 36.6159 109.762 37.418C110.618 38.2018 111.63 38.9583 112.797 39.6875C112.943 39.7786 113.016 39.8698 113.016 39.9609C113.016 39.9974 112.97 40.0794 112.879 40.207C112.387 40.7539 112.004 41.0273 111.73 41.0273C111.548 41.0273 111.038 40.6719 110.199 39.9609C109.361 39.2318 108.449 38.3477 107.465 37.3086C106.499 36.2695 105.688 35.2578 105.031 34.2734C105.104 35.112 105.141 35.7227 105.141 36.1055L105.168 43.2422C105.168 43.6068 105.004 43.7891 104.676 43.7891C104.421 43.7891 104.129 43.6797 103.801 43.4609C103.491 43.2422 103.336 42.987 103.336 42.6953V42.5312ZM86.8203 24.4844C86.8203 24.375 86.875 24.3203 86.9844 24.3203C87.0573 24.3203 87.1211 24.3294 87.1758 24.3477C87.4492 24.4206 87.7409 24.457 88.0508 24.457L88.5156 24.4297L95.1875 24.0742C95.7161 23.9831 96.0807 23.901 96.2812 23.8281C96.3906 23.7917 96.4727 23.7734 96.5273 23.7734C96.7096 23.7734 96.9102 23.8555 97.1289 24.0195C97.3659 24.1836 97.5664 24.3659 97.7305 24.5664C97.9128 24.7669 98.0039 24.9128 98.0039 25.0039C98.0039 25.2227 97.7943 25.3503 97.375 25.3867L89.0625 25.9062C88.862 25.9245 88.625 25.9336 88.3516 25.9336C88.0052 25.9336 87.7773 25.888 87.668 25.7969C87.3398 25.5052 87.112 25.2409 86.9844 25.0039C86.875 24.7487 86.8203 24.5755 86.8203 24.4844ZM88.5156 34.4102C88.5156 34.3008 88.5885 34.2461 88.7344 34.2461C89.026 34.2461 89.6641 34.4284 90.6484 34.793L94.7773 34.6016L95.0508 34.5742C95.2878 34.5742 95.543 34.7018 95.8164 34.957C96.0898 35.194 96.2266 35.4128 96.2266 35.6133C96.2266 35.7044 96.1992 35.7956 96.1445 35.8867C96.1081 35.9779 96.0807 36.0599 96.0625 36.1328L95.5977 39.7422C95.9987 40.2891 96.1992 40.6719 96.1992 40.8906C96.1992 41.0182 96.1445 41.1003 96.0352 41.1367C95.9258 41.1732 95.7435 41.2005 95.4883 41.2188L91.0312 41.3555L91.0586 41.875V41.957C91.0586 42.3581 90.8945 42.5586 90.5664 42.5586C90.3112 42.5586 90.0378 42.4583 89.7461 42.2578C89.4544 42.0573 89.3086 41.8112 89.3086 41.5195V41.3281C89.3451 40.8906 89.3633 40.5625 89.3633 40.3438V39.9883L89.0898 36.3789C89.0352 35.7227 88.9076 35.2305 88.707 34.9023C88.5794 34.6471 88.5156 34.4831 88.5156 34.4102ZM88.7891 27.957C88.7891 27.8659 88.8255 27.8203 88.8984 27.8203C88.9714 27.8203 89.026 27.8294 89.0625 27.8477C89.3906 27.9023 89.7188 27.9297 90.0469 27.9297H90.3477L94.0391 27.7109C94.4036 27.6745 94.7227 27.6016 94.9961 27.4922C95.1055 27.4557 95.1875 27.4375 95.2422 27.4375C95.4245 27.4375 95.6797 27.5924 96.0078 27.9023C96.3542 28.194 96.5273 28.4401 96.5273 28.6406C96.5273 28.75 96.4727 28.8411 96.3633 28.9141C96.2539 28.987 96.1081 29.0326 95.9258 29.0508L90.8945 29.3789C90.7487 29.3971 90.5482 29.4062 90.293 29.4062C89.9102 29.4062 89.6094 29.306 89.3906 29.1055C89.1719 28.9049 89.0169 28.6953 88.9258 28.4766C88.8346 28.2396 88.7891 28.0664 88.7891 27.957ZM88.8438 31.293C88.8438 31.2018 88.8893 31.1562 88.9805 31.1562L89.1172 31.1836C89.4089 31.2565 89.737 31.293 90.1016 31.293H90.4023L93.9297 31.1289C94.2214 31.1107 94.5495 31.0378 94.9141 30.9102C95.0234 30.8737 95.1055 30.8555 95.1602 30.8555C95.3789 30.8555 95.6432 31.0104 95.9531 31.3203C96.263 31.612 96.418 31.8581 96.418 32.0586C96.418 32.2956 96.2266 32.4323 95.8438 32.4688L90.9492 32.7422L90.3477 32.7695C90.0378 32.7695 89.7643 32.6875 89.5273 32.5234C89.2904 32.3594 89.0716 32.0039 88.8711 31.457C88.8529 31.4206 88.8438 31.3659 88.8438 31.293ZM89.5273 20.5195C89.5273 20.3008 89.6003 20.1003 89.7461 19.918C89.9102 19.7357 90.0742 19.6445 90.2383 19.6445C90.3477 19.6445 90.5117 19.6901 90.7305 19.7812C92.0247 20.3099 92.9727 20.7292 93.5742 21.0391C94.194 21.3307 94.5768 21.5495 94.7227 21.6953C94.8867 21.8229 94.9688 21.9505 94.9688 22.0781C94.9688 22.2422 94.8867 22.4792 94.7227 22.7891C94.5586 23.099 94.349 23.2539 94.0938 23.2539C93.9661 23.2539 93.7839 23.181 93.5469 23.0352C92.3255 22.2148 91.1862 21.5677 90.1289 21.0938C89.9102 21.0026 89.7552 20.9206 89.6641 20.8477C89.5729 20.7565 89.5273 20.6471 89.5273 20.5195ZM90.9219 39.9336L94.0938 39.8242L94.3945 36.1055L90.6484 36.2422L90.9219 39.9336ZM100.273 24.6484L103.445 24.457V22.1875L100.109 22.4062L100.273 24.6484ZM100.547 28.4492L103.473 28.2852L103.445 25.8516L100.355 26.0156L100.547 28.4492ZM108.285 24.1836L108.504 21.8867L105.086 22.1055V24.375L108.285 24.1836ZM107.957 28.0664L108.176 25.5781L105.113 25.7422V28.2031L107.957 28.0664Z" fill="#333333"/>
<path d="M163.027 29.8164C162.754 29.8164 162.553 29.6706 162.426 29.3789L162.18 28.832C161.469 29.0143 160.895 29.151 160.457 29.2422L158.68 29.6797C158.315 29.7708 158.087 29.8164 157.996 29.8164C157.887 29.8164 157.796 29.7982 157.723 29.7617C157.668 29.707 157.622 29.6615 157.586 29.625C157.549 29.5703 157.522 29.5247 157.504 29.4883C157.358 29.2331 157.294 29.0599 157.312 28.9688L157.504 28.668C157.978 28.0117 158.415 27.0729 158.816 25.8516L158.27 25.9336L157.559 26.0156C157.504 26.0339 157.385 26.0703 157.203 26.125C157.039 26.1615 156.911 26.1523 156.82 26.0977C156.62 25.9701 156.355 25.7422 156.027 25.4141C155.954 25.3411 155.918 25.2865 155.918 25.25C155.918 25.1406 156.118 25.0859 156.52 25.0859H157.449C158.069 25.0495 158.634 25.0039 159.145 24.9492C159.254 24.6758 159.372 24.3294 159.5 23.9102C159.628 23.4909 159.719 23.1536 159.773 22.8984C159.773 22.8438 159.773 22.7344 159.773 22.5703C159.792 22.4062 159.828 22.306 159.883 22.2695H159.91C159.983 22.2695 160.083 22.306 160.211 22.3789C160.339 22.4518 160.457 22.543 160.566 22.6523C160.913 22.9987 161.013 23.2721 160.867 23.4727C160.794 23.4909 160.639 23.7917 160.402 24.375C160.384 24.4115 160.32 24.5755 160.211 24.8672C160.357 24.849 160.885 24.7852 161.797 24.6758C162.216 24.6393 162.535 24.5938 162.754 24.5391C163.064 24.4479 163.31 24.4023 163.492 24.4023C163.638 24.4023 163.757 24.457 163.848 24.5664C163.939 24.6576 164.003 24.7214 164.039 24.7578C164.094 24.8125 164.158 24.9219 164.23 25.0859C164.303 25.2135 164.331 25.3047 164.312 25.3594C164.24 25.4688 164.112 25.5234 163.93 25.5234C163.328 25.487 162.608 25.5052 161.77 25.5781C161.405 25.6146 161.132 25.651 160.949 25.6875L159.883 25.7969L159.637 26.5352L159.336 27.1914C159.245 27.4102 159.145 27.6289 159.035 27.8477C158.926 28.0664 158.844 28.2487 158.789 28.3945C158.771 28.431 158.762 28.4857 158.762 28.5586C158.762 28.6497 158.816 28.6953 158.926 28.6953C159.072 28.6953 159.573 28.6133 160.43 28.4492L161.441 28.2852L161.906 28.1758C161.742 27.7201 161.615 27.4284 161.523 27.3008C161.432 27.1732 161.378 27.0911 161.359 27.0547L161.523 26.8906C162.234 27.3464 162.809 27.8112 163.246 28.2852C163.374 28.4492 163.456 28.6042 163.492 28.75C163.547 28.8958 163.565 29.0599 163.547 29.2422C163.51 29.4062 163.447 29.5339 163.355 29.625C163.319 29.7161 163.21 29.7799 163.027 29.8164ZM163.492 39.1133C163.747 39.2773 163.875 39.4323 163.875 39.5781C163.875 39.7786 163.72 39.9062 163.41 39.9609C163.1 40.0156 162.663 40.0521 162.098 40.0703C161.277 40.0885 160.749 40.0612 160.512 39.9883C160.111 39.806 159.91 39.5052 159.91 39.0859L159.938 38.0742C159.974 37.7461 159.992 37.4544 159.992 37.1992C160.01 37.0352 160.02 36.7161 160.02 36.2422C159.746 36.862 159.391 37.4635 158.953 38.0469C158.643 38.4297 158.37 38.7487 158.133 39.0039C157.896 39.2409 157.613 39.4688 157.285 39.6875C156.957 39.9062 156.656 40.0156 156.383 40.0156C156.219 40.0156 156.137 39.9609 156.137 39.8516C156.137 39.8333 156.31 39.6966 156.656 39.4414C157.021 39.168 157.385 38.7943 157.75 38.3203C158.297 37.5911 158.771 36.7344 159.172 35.75C158.461 35.8411 157.987 35.9232 157.75 35.9961C157.659 36.0143 157.577 36.0417 157.504 36.0781C157.431 36.0964 157.34 36.0964 157.23 36.0781C157.139 36.0417 157.012 35.9688 156.848 35.8594C156.684 35.7318 156.556 35.6133 156.465 35.5039C156.392 35.3945 156.355 35.3216 156.355 35.2852C156.355 35.194 156.492 35.1484 156.766 35.1484C157.44 35.1484 158.306 35.0755 159.363 34.9297C159.473 34.5104 159.527 33.8359 159.527 32.9062V32.3867C159.527 32.168 159.573 32.0495 159.664 32.0312C159.682 32.013 159.719 32.0039 159.773 32.0039C159.919 32.0039 160.12 32.1133 160.375 32.332C160.576 32.4961 160.703 32.6237 160.758 32.7148C160.831 32.7878 160.84 32.888 160.785 33.0156C160.767 33.0521 160.73 33.125 160.676 33.2344C160.621 33.3438 160.585 33.4531 160.566 33.5625C160.548 33.6536 160.512 33.8359 160.457 34.1094C160.402 34.3646 160.366 34.5924 160.348 34.793C160.603 34.7747 160.922 34.7383 161.305 34.6836C161.688 34.6289 161.97 34.5742 162.152 34.5195L162.699 34.3828C162.882 34.3464 163.182 34.5013 163.602 34.8477C163.674 34.9023 163.711 34.9661 163.711 35.0391C163.711 35.112 163.674 35.1758 163.602 35.2305C163.547 35.2669 163.474 35.2852 163.383 35.2852C163.055 35.2852 162.453 35.3398 161.578 35.4492L160.676 35.5312C160.876 35.6771 161.004 35.8047 161.059 35.9141C161.113 36.0234 161.122 36.1328 161.086 36.2422L161.004 36.6797C160.967 37.0443 160.931 37.4453 160.895 37.8828C160.876 38.3203 160.876 38.6576 160.895 38.8945C160.895 38.9857 160.949 39.0677 161.059 39.1406C161.186 39.2135 161.314 39.25 161.441 39.25C161.897 39.25 162.408 39.2044 162.973 39.1133L163.219 39.0586C163.328 39.0586 163.419 39.0768 163.492 39.1133ZM168.742 27.6289C168.961 27.6289 169.07 27.7292 169.07 27.9297C169.07 28.0391 168.97 28.194 168.77 28.3945C168.223 29.069 167.138 30.3542 165.516 32.25C165.388 32.4141 165.27 32.4961 165.16 32.4961C165.069 32.4961 164.868 32.3594 164.559 32.0859C164.303 31.8672 164.176 31.6849 164.176 31.5391C164.176 31.375 164.312 31.2201 164.586 31.0742C165.005 30.8372 165.634 30.3633 166.473 29.6523C167.311 28.9049 167.931 28.3125 168.332 27.875C168.496 27.7109 168.633 27.6289 168.742 27.6289ZM131.555 42.5859C131.044 42.5859 130.689 42.4948 130.488 42.3125C130.324 42.1302 130.169 41.8932 130.023 41.6016C129.896 41.3281 129.832 41.1185 129.832 40.9727C129.832 40.8815 129.878 40.8359 129.969 40.8359C130.042 40.8359 130.105 40.8451 130.16 40.8633C130.762 40.9909 131.263 41.0547 131.664 41.0547H131.855L140.551 40.8086V38.0742L136.422 38.2383L135.766 38.2656C135.456 38.2656 135.164 38.1836 134.891 38.0195C134.635 37.8555 134.435 37.4727 134.289 36.8711C134.271 36.8346 134.262 36.7799 134.262 36.707C134.262 36.6159 134.307 36.5703 134.398 36.5703L134.508 36.5977C135.128 36.707 135.574 36.7617 135.848 36.7617H136.066L140.551 36.5703V35.6953C140.551 35.2031 140.432 34.7474 140.195 34.3281C140.141 34.237 140.113 34.1732 140.113 34.1367C140.113 34.0091 140.223 33.9453 140.441 33.9453C140.551 33.9453 140.76 33.9818 141.07 34.0547C141.398 34.1276 141.69 34.237 141.945 34.3828C142.201 34.5104 142.328 34.6745 142.328 34.875L142.301 36.4883L146.266 36.3242C146.776 36.306 147.195 36.2331 147.523 36.1055C147.633 36.069 147.715 36.0508 147.77 36.0508C148.025 36.0508 148.316 36.2057 148.645 36.5156C148.973 36.8255 149.137 37.0898 149.137 37.3086C149.137 37.5456 148.945 37.6823 148.562 37.7188L142.273 37.9922L142.219 40.7539L150.559 40.5352C151.233 40.4987 151.816 40.4167 152.309 40.2891L152.5 40.2617C152.792 40.2617 153.111 40.4167 153.457 40.7266C153.803 41.0365 153.977 41.319 153.977 41.5742C153.977 41.7018 153.94 41.8021 153.867 41.875C153.794 41.9479 153.703 41.9844 153.594 41.9844L132.074 42.5859H131.555ZM130.406 29.9805C130.406 29.8711 130.434 29.7526 130.488 29.625C131.309 27.8385 131.874 26.043 132.184 24.2383C132.22 24.0013 132.275 23.8372 132.348 23.7461C132.421 23.6549 132.539 23.6094 132.703 23.6094C132.904 23.6094 133.113 23.6458 133.332 23.7188C133.569 23.7917 133.688 23.9648 133.688 24.2383C133.688 24.3477 133.678 24.4388 133.66 24.5117L133.496 25.4961L140.496 25.0586L140.578 20.3008C140.578 20.1003 140.551 19.9271 140.496 19.7812C140.441 19.6172 140.35 19.4258 140.223 19.207C140.132 19.0247 140.086 18.8971 140.086 18.8242C140.086 18.6966 140.177 18.6328 140.359 18.6328C140.651 18.6328 141.052 18.7513 141.562 18.9883C142.091 19.2253 142.355 19.4622 142.355 19.6992L142.191 24.9492L151.488 24.375H151.844C152.19 24.375 152.5 24.5117 152.773 24.7852C153.047 25.0586 153.184 25.2956 153.184 25.4961C153.184 25.6055 153.12 25.7057 152.992 25.7969C152.883 25.888 152.801 25.9701 152.746 26.043C151.561 27.5924 150.385 28.75 149.219 29.5156L149.082 29.5977C148.845 29.7253 148.672 29.7891 148.562 29.7891C148.453 29.7891 148.398 29.7435 148.398 29.6523C148.398 29.5612 148.499 29.3698 148.699 29.0781C149.684 27.8021 150.367 26.7448 150.75 25.9062L133.195 26.918C132.958 27.8841 132.603 29.0417 132.129 30.3906C132.074 30.5547 132.01 30.6732 131.938 30.7461C131.865 30.819 131.764 30.8555 131.637 30.8555C131.454 30.8555 131.199 30.7734 130.871 30.6094C130.561 30.4453 130.406 30.2357 130.406 29.9805ZM134.426 21.0391C134.426 20.875 134.535 20.6927 134.754 20.4922C134.991 20.2734 135.173 20.1641 135.301 20.1641C135.447 20.1641 135.811 20.4193 136.395 20.9297C136.996 21.4401 137.552 21.987 138.062 22.5703C138.591 23.1354 138.855 23.5 138.855 23.6641C138.855 23.7917 138.728 23.9922 138.473 24.2656C138.236 24.5208 138.017 24.6484 137.816 24.6484C137.652 24.6484 137.479 24.5391 137.297 24.3203C136.367 23.099 135.474 22.1055 134.617 21.3398C134.49 21.2122 134.426 21.112 134.426 21.0391ZM135.465 28.3672C135.465 28.2578 135.556 28.2031 135.738 28.2031C136.03 28.2031 136.568 28.3307 137.352 28.5859L145.828 28.1211H145.992C146.229 28.1211 146.466 28.2214 146.703 28.4219C146.94 28.6224 147.059 28.8047 147.059 28.9688C147.059 29.0417 147.022 29.1328 146.949 29.2422C146.895 29.3333 146.858 29.4154 146.84 29.4883L146.457 32.25C146.931 32.7786 147.168 33.1341 147.168 33.3164C147.168 33.4076 147.104 33.4714 146.977 33.5078C146.867 33.526 146.73 33.5352 146.566 33.5352L138.008 33.918V34.1914C138.008 34.5013 137.889 34.6562 137.652 34.6562C137.452 34.6562 137.178 34.5742 136.832 34.4102C136.504 34.2461 136.34 34.0273 136.34 33.7539V33.6445C136.358 33.4987 136.367 33.2982 136.367 33.043C136.367 32.8607 136.358 32.7331 136.34 32.6602L136.012 29.9258C135.957 29.5247 135.829 29.151 135.629 28.8047C135.52 28.5495 135.465 28.4036 135.465 28.3672ZM137.871 32.5508L144.898 32.2227L145.172 29.543L137.598 29.9258L137.871 32.5508ZM143.641 24.5391C143.641 24.3385 143.814 24.0651 144.16 23.7188C145.145 22.7161 145.792 21.9232 146.102 21.3398C146.43 20.7383 146.648 20.1914 146.758 19.6992C146.812 19.4805 146.913 19.3711 147.059 19.3711C147.277 19.3711 147.587 19.5807 147.988 20C148.389 20.4193 148.59 20.7383 148.59 20.957C148.59 21.0482 148.417 21.276 148.07 21.6406C147.742 22.0052 147.277 22.4336 146.676 22.9258C146.074 23.418 145.391 23.8919 144.625 24.3477L144.352 24.5117C144.115 24.6211 143.932 24.6758 143.805 24.6758C143.695 24.6758 143.641 24.6302 143.641 24.5391Z" fill="#333333"/>
<path d="M203.359 30.7734C203.177 31.0104 202.986 31.1289 202.785 31.1289C202.73 31.1289 202.703 31.0833 202.703 30.9922C202.703 30.8646 202.74 30.7188 202.812 30.5547C202.812 30.5547 202.995 30.1901 203.359 29.4609C203.378 29.388 203.405 29.3151 203.441 29.2422C203.478 29.1693 203.505 29.1055 203.523 29.0508V29.0234C203.523 28.987 203.496 28.9505 203.441 28.9141C203.387 28.8776 203.323 28.8685 203.25 28.8867C202.958 28.9049 202.521 28.9505 201.938 29.0234C201.372 29.0964 200.953 29.1693 200.68 29.2422C200.57 29.2786 200.434 29.3242 200.27 29.3789C200.124 29.4336 200.005 29.4609 199.914 29.4609C199.586 29.4609 199.312 29.3607 199.094 29.1602C198.911 29.0326 198.775 28.9049 198.684 28.7773L198.629 28.6406C198.629 28.5495 198.784 28.5221 199.094 28.5586C199.513 28.5951 200.379 28.5404 201.691 28.3945L202.238 28.3125C202.384 28.2943 202.612 28.2669 202.922 28.2305C203.25 28.1758 203.505 28.1211 203.688 28.0664C203.742 28.0482 203.797 28.0299 203.852 28.0117C203.924 27.9753 203.988 27.957 204.043 27.957C204.134 27.957 204.243 28.0026 204.371 28.0938C204.517 28.1849 204.635 28.2669 204.727 28.3398C204.854 28.431 204.936 28.513 204.973 28.5859C205.027 28.6406 205.046 28.7135 205.027 28.8047C205.027 28.8958 204.982 28.9779 204.891 29.0508C204.799 29.1237 204.736 29.1784 204.699 29.2148C204.663 29.2695 204.535 29.4062 204.316 29.625C204.225 29.7708 204.061 29.9714 203.824 30.2266C203.605 30.4818 203.451 30.6641 203.359 30.7734ZM201.992 36.1602C201.992 36.1055 202.083 35.9688 202.266 35.75C202.466 35.513 202.621 35.3307 202.73 35.2031C203.004 34.8385 203.332 34.3099 203.715 33.6172C204.116 32.9245 204.344 32.4688 204.398 32.25C204.435 32.1406 204.38 32.0859 204.234 32.0859C203.943 32.0859 203.141 32.168 201.828 32.332C200.971 32.4414 200.333 32.5508 199.914 32.6602C199.823 32.7148 199.732 32.7422 199.641 32.7422C199.495 32.7422 199.34 32.6419 199.176 32.4414C199.103 32.3138 199.066 32.1953 199.066 32.0859C199.066 32.013 199.112 31.9401 199.203 31.8672L199.285 31.7578C199.34 31.6484 199.404 31.5026 199.477 31.3203C199.549 31.138 199.613 30.9648 199.668 30.8008C199.759 30.5091 199.823 30.1901 199.859 29.8438C199.878 29.6432 199.987 29.5885 200.188 29.6797C200.443 29.8073 200.634 29.9349 200.762 30.0625C200.908 30.1719 200.953 30.2539 200.898 30.3086C200.716 30.5273 200.57 30.7734 200.461 31.0469C200.37 31.3385 200.315 31.5299 200.297 31.6211C200.297 31.694 200.342 31.7305 200.434 31.7305C200.707 31.7305 201.117 31.6849 201.664 31.5938C201.974 31.5573 202.357 31.5117 202.812 31.457C203.268 31.4023 203.633 31.3477 203.906 31.293L204.59 31.1562C204.645 31.138 204.717 31.1289 204.809 31.1289C204.9 31.1289 204.991 31.1654 205.082 31.2383C205.173 31.293 205.273 31.3659 205.383 31.457C205.565 31.6211 205.684 31.7578 205.738 31.8672C205.793 31.9583 205.82 32.0677 205.82 32.1953C205.82 32.2682 205.766 32.3594 205.656 32.4688C205.565 32.5781 205.456 32.7513 205.328 32.9883C204.799 34.0638 204.116 34.9661 203.277 35.6953C203.04 35.8776 202.776 36.0326 202.484 36.1602C202.357 36.1966 202.238 36.224 202.129 36.2422C202.038 36.2422 201.992 36.2148 201.992 36.1602ZM189.086 31.6758C188.63 32.7695 188.065 33.8542 187.391 34.9297C186.716 36.0052 186.005 36.944 185.258 37.7461C187.883 38.8945 190.353 40.1341 192.668 41.4648C193.087 41.7018 193.297 41.9844 193.297 42.3125C193.242 42.6406 193.151 42.9141 193.023 43.1328C192.896 43.3698 192.723 43.4883 192.504 43.4883C192.303 43.4883 192.048 43.388 191.738 43.1875C189.241 41.6016 186.652 40.207 183.973 39.0039C182.697 40.0612 181.293 40.8997 179.762 41.5195C178.249 42.1393 176.909 42.5586 175.742 42.7773C174.576 43.0143 173.837 43.1328 173.527 43.1328C173.309 43.1328 173.135 43.1055 173.008 43.0508C172.898 42.9961 172.844 42.9232 172.844 42.832C172.844 42.7227 172.935 42.6042 173.117 42.4766C173.299 42.3672 173.555 42.2669 173.883 42.1758C175.742 41.6836 177.292 41.1641 178.531 40.6172C179.789 40.0521 181.038 39.2591 182.277 38.2383C181.493 37.9102 180.336 37.4544 178.805 36.8711C178.714 36.8346 178.577 36.8073 178.395 36.7891C178.212 36.7526 178.048 36.6888 177.902 36.5977C177.757 36.4883 177.638 36.3151 177.547 36.0781C177.492 35.9141 177.465 35.7773 177.465 35.668C177.465 35.4857 177.547 35.2487 177.711 34.957C178.039 34.4466 178.577 33.5078 179.324 32.1406L173.773 32.4141L173.227 32.4414C172.771 32.4414 172.461 32.3594 172.297 32.1953C172.133 32.0312 171.969 31.8307 171.805 31.5938C171.659 31.3568 171.586 31.138 171.586 30.9375C171.586 30.8099 171.632 30.7461 171.723 30.7461C171.777 30.7461 171.823 30.7552 171.859 30.7734C172.169 30.8828 172.561 30.9375 173.035 30.9375H173.336L180.145 30.6094C180.491 29.862 180.855 28.9961 181.238 28.0117C181.639 27.0273 181.84 26.2891 181.84 25.7969V25.5234C181.84 25.3411 181.931 25.25 182.113 25.25C182.368 25.25 182.706 25.4049 183.125 25.7148C183.562 26.0247 183.781 26.3164 183.781 26.5898C183.781 26.8451 183.225 28.1484 182.113 30.5L187.336 30.2539C187.591 29.5612 187.728 29.0599 187.746 28.75V28.4766C187.746 28.2943 187.837 28.2031 188.02 28.2031C188.293 28.2214 188.639 28.3945 189.059 28.7227C189.478 29.0326 189.678 29.3242 189.66 29.5977C189.66 29.707 189.596 29.8984 189.469 30.1719L192.75 30.0078C193.169 29.9896 193.643 29.8802 194.172 29.6797L194.281 29.6523C194.482 29.6523 194.783 29.8346 195.184 30.1992C195.585 30.5638 195.785 30.8372 195.785 31.0195C195.785 31.2201 195.594 31.3385 195.211 31.375L189.086 31.6758ZM173.035 28.1211C173.035 28.0299 173.062 27.9479 173.117 27.875C173.536 27.2005 173.947 26.362 174.348 25.3594C174.749 24.3568 175.104 23.3268 175.414 22.2695C175.505 21.9596 175.669 21.8047 175.906 21.8047C176.107 21.8047 176.344 21.8685 176.617 21.9961C176.909 22.1237 177.055 22.2878 177.055 22.4883C177.036 22.5794 177.009 22.7253 176.973 22.9258C176.936 23.1081 176.891 23.2995 176.836 23.5L184.574 23.0352L184.547 23.0078C182.979 21.7682 181.849 20.9115 181.156 20.4375C181.029 20.3464 180.938 20.2643 180.883 20.1914C180.828 20.1185 180.801 20.0365 180.801 19.9453C180.801 19.7812 180.874 19.599 181.02 19.3984C181.184 19.1797 181.329 19.0521 181.457 19.0156C181.493 18.9974 181.548 18.9883 181.621 18.9883C181.749 18.9883 181.895 19.043 182.059 19.1523L182.551 19.4531C183.572 20.0911 184.392 20.6198 185.012 21.0391C185.632 21.4583 185.969 21.7773 186.023 21.9961C186.096 22.2695 185.941 22.5977 185.559 22.9805L193.188 22.5156H193.379C193.743 22.5156 194.072 22.625 194.363 22.8438C194.673 23.0443 194.828 23.263 194.828 23.5C194.828 23.6458 194.755 23.7917 194.609 23.9375C194.464 24.0833 194.363 24.2018 194.309 24.293C193.47 25.5508 192.723 26.5352 192.066 27.2461C191.41 27.957 190.954 28.3125 190.699 28.3125C190.608 28.3125 190.562 28.2578 190.562 28.1484C190.562 27.9297 190.69 27.6016 190.945 27.1641C191.547 26.0521 192.012 25.0495 192.34 24.1562L176.316 25.0859C175.806 26.5078 175.259 27.7292 174.676 28.75C174.53 28.9688 174.375 29.0781 174.211 29.0781C174.083 29.0781 173.855 28.9688 173.527 28.75C173.199 28.5312 173.035 28.3216 173.035 28.1211ZM179.379 35.4492C181.293 36.1419 182.697 36.6706 183.59 37.0352C184.228 36.3607 184.848 35.5495 185.449 34.6016C186.051 33.6536 186.552 32.7148 186.953 31.7852L181.32 32.0312C180.482 33.6354 179.835 34.7747 179.379 35.4492Z" fill="#333333"/>
<path d="M247.492 28.9688C247.747 29.1875 247.875 29.543 247.875 30.0352C247.839 30.3086 247.72 30.4362 247.52 30.418C247.283 30.4362 246.991 30.2904 246.645 29.9805C246.499 29.8164 246.198 29.5612 245.742 29.2148C245.305 28.8503 244.913 28.5586 244.566 28.3398C244.038 28.8138 243.4 29.2695 242.652 29.707C241.923 30.1445 241.34 30.3633 240.902 30.3633C240.72 30.3633 240.629 30.3086 240.629 30.1992C240.629 30.1628 240.839 30.0169 241.258 29.7617C241.75 29.4883 242.233 29.1693 242.707 28.8047C243.163 28.4583 243.536 28.1393 243.828 27.8477L243.199 27.4922C242.78 27.2188 242.507 27.0547 242.379 27C241.832 26.6536 241.559 26.4349 241.559 26.3438C241.559 26.2891 241.65 26.2617 241.832 26.2617C241.978 26.2435 242.315 26.3529 242.844 26.5898L244.375 27.3008L244.785 26.8633C244.84 26.7904 244.904 26.7174 244.977 26.6445C245.049 26.5716 245.122 26.4896 245.195 26.3984C245.469 26.0521 245.688 25.7604 245.852 25.5234C246.034 25.2682 246.134 25.0768 246.152 24.9492C246.152 24.8763 246.089 24.8398 245.961 24.8398C245.779 24.8398 245.387 24.8854 244.785 24.9766L244.129 25.0586C243.618 25.1315 243.19 25.2135 242.844 25.3047C242.643 25.3411 242.47 25.3958 242.324 25.4688C242.27 25.487 242.188 25.4961 242.078 25.4961C241.969 25.4961 241.887 25.4961 241.832 25.4961C241.777 25.4779 241.732 25.4414 241.695 25.3867C241.659 25.3503 241.604 25.2865 241.531 25.1953C241.44 25.0495 241.395 24.931 241.395 24.8398C241.395 24.8034 241.467 24.7122 241.613 24.5664L242.133 23.9648C242.26 23.8008 242.415 23.5456 242.598 23.1992C242.78 22.8346 242.88 22.5521 242.898 22.3516C242.898 22.2969 242.935 22.2695 243.008 22.2695C243.172 22.2695 243.363 22.3607 243.582 22.543C243.673 22.6159 243.746 22.6979 243.801 22.7891C243.874 22.8802 243.91 22.9531 243.91 23.0078C243.91 23.0807 243.865 23.1628 243.773 23.2539C243.682 23.3451 243.473 23.6185 243.145 24.0742L242.762 24.5664L244.348 24.293C245.022 24.2383 245.523 24.1654 245.852 24.0742L246.262 24.0195C246.353 24.0013 246.462 23.9922 246.59 23.9922C246.717 23.9922 246.927 24.1289 247.219 24.4023C247.328 24.4935 247.401 24.5755 247.438 24.6484C247.492 24.7031 247.52 24.7669 247.52 24.8398C247.52 24.9128 247.501 24.9857 247.465 25.0586C247.428 25.1133 247.392 25.168 247.355 25.2227C247.173 25.4049 246.909 25.7422 246.562 26.2344C246.271 26.6536 245.842 27.1641 245.277 27.7656L245.961 28.0938C246.836 28.5312 247.346 28.8229 247.492 28.9688ZM244.785 39.7148C244.785 39.6966 244.831 39.6328 244.922 39.5234C245.031 39.3958 245.15 39.2409 245.277 39.0586C245.496 38.7487 245.715 38.293 245.934 37.6914C246.152 37.0898 246.271 36.5339 246.289 36.0234C246.289 35.987 246.271 35.9505 246.234 35.9141C246.216 35.8594 246.171 35.832 246.098 35.832L245.469 35.8867L244.539 35.9688C244.339 36.625 243.992 37.3359 243.5 38.1016C243.281 38.4479 242.98 38.7578 242.598 39.0312C242.233 39.2865 241.878 39.4688 241.531 39.5781C241.422 39.6146 241.285 39.6328 241.121 39.6328C240.993 39.6146 240.93 39.5781 240.93 39.5234C240.93 39.4505 240.993 39.3867 241.121 39.332C241.34 39.1862 241.586 38.9583 241.859 38.6484C242.151 38.3385 242.406 38.0195 242.625 37.6914C242.753 37.5091 242.889 37.2721 243.035 36.9805C243.181 36.6706 243.299 36.388 243.391 36.1328C242.807 36.2057 242.206 36.3424 241.586 36.543C241.549 36.5794 241.486 36.5977 241.395 36.5977C241.34 36.5977 241.258 36.5612 241.148 36.4883C241.003 36.3424 240.902 36.2331 240.848 36.1602C240.811 36.069 240.829 35.987 240.902 35.9141L241.012 35.6953C241.085 35.5859 241.158 35.3672 241.23 35.0391C241.303 34.7109 241.34 34.4466 241.34 34.2461C241.34 34.1914 241.331 34.1276 241.312 34.0547C241.312 33.9635 241.322 33.918 241.34 33.918C241.376 33.8997 241.422 33.8997 241.477 33.918C241.677 33.9544 241.859 34.0182 242.023 34.1094C242.169 34.2005 242.27 34.3008 242.324 34.4102C242.397 34.5013 242.397 34.5833 242.324 34.6562C242.306 34.6745 242.279 34.7109 242.242 34.7656C242.206 34.8021 242.178 34.8568 242.16 34.9297C242.142 34.9479 242.105 35.1484 242.051 35.5312C242.051 35.5495 242.06 35.5677 242.078 35.5859C242.115 35.6042 242.151 35.6042 242.188 35.5859C242.242 35.5859 242.324 35.5768 242.434 35.5586C242.543 35.5404 242.625 35.5221 242.68 35.5039C242.807 35.4857 242.953 35.4583 243.117 35.4219C243.299 35.3854 243.464 35.3581 243.609 35.3398C243.664 35.1393 243.701 34.9206 243.719 34.6836C243.755 34.4284 243.783 34.2552 243.801 34.1641L243.828 33.5898V33.3984C243.245 33.4167 242.634 33.4714 241.996 33.5625L241.504 33.6445H241.395C241.303 33.6445 241.212 33.6172 241.121 33.5625C241.048 33.5078 240.966 33.444 240.875 33.3711C240.638 33.1523 240.52 32.9883 240.52 32.8789C240.52 32.7695 240.602 32.7331 240.766 32.7695C240.984 32.806 241.212 32.8242 241.449 32.8242L242.242 32.7969L246.043 32.5234C246.189 32.5052 246.326 32.487 246.453 32.4688C246.581 32.4323 246.708 32.4049 246.836 32.3867H246.918C247.155 32.3867 247.319 32.4323 247.41 32.5234C247.52 32.5964 247.583 32.6419 247.602 32.6602C247.893 32.8971 248.039 33.0794 248.039 33.207C248.039 33.3164 247.884 33.362 247.574 33.3438L247.027 33.2891C246.553 33.2708 245.842 33.2891 244.895 33.3438L244.785 34.4102C244.767 34.5924 244.749 34.7383 244.73 34.8477C244.712 34.957 244.694 35.0482 244.676 35.1211L244.648 35.2031C245.086 35.1667 245.596 35.112 246.18 35.0391C246.216 35.0208 246.28 35.0026 246.371 34.9844C246.462 34.9479 246.553 34.9206 246.645 34.9023H246.699C246.809 34.9023 246.918 34.9479 247.027 35.0391C247.137 35.1302 247.201 35.1849 247.219 35.2031C247.365 35.3307 247.465 35.4401 247.52 35.5312C247.592 35.6042 247.602 35.668 247.547 35.7227C247.51 35.7956 247.465 35.8685 247.41 35.9414C247.374 35.9961 247.346 36.0599 247.328 36.1328C247.237 36.8984 247.091 37.5182 246.891 37.9922C246.727 38.4115 246.544 38.7305 246.344 38.9492C246.161 39.1497 245.934 39.3411 245.66 39.5234C245.551 39.5964 245.378 39.6602 245.141 39.7148C244.904 39.7513 244.785 39.7513 244.785 39.7148ZM252.742 27.6289C252.961 27.6289 253.07 27.7292 253.07 27.9297C253.07 28.0391 252.97 28.194 252.77 28.3945C252.223 29.069 251.138 30.3542 249.516 32.25C249.388 32.4141 249.27 32.4961 249.16 32.4961C249.069 32.4961 248.868 32.3594 248.559 32.0859C248.303 31.8672 248.176 31.6849 248.176 31.5391C248.176 31.375 248.312 31.2201 248.586 31.0742C249.005 30.8372 249.634 30.3633 250.473 29.6523C251.311 28.9049 251.931 28.3125 252.332 27.875C252.496 27.7109 252.633 27.6289 252.742 27.6289ZM232.59 42.9141C232.59 43.3516 232.417 43.5703 232.07 43.5703C231.797 43.5703 231.496 43.4701 231.168 43.2695C230.84 43.069 230.676 42.8229 230.676 42.5312C230.676 42.4219 230.685 42.3398 230.703 42.2852C230.831 41.4648 230.895 40.7539 230.895 40.1523L230.84 20.8477C230.84 20.4648 230.758 20.1003 230.594 19.7539C230.539 19.6445 230.512 19.5443 230.512 19.4531C230.512 19.3073 230.621 19.2344 230.84 19.2344C231.259 19.2344 231.642 19.3164 231.988 19.4805C232.335 19.6445 232.508 19.8177 232.508 20L232.535 24.9766L234.859 24.8398C235.169 24.8216 235.543 24.7487 235.98 24.6211L236.117 24.5938C236.318 24.5938 236.6 24.7305 236.965 25.0039C237.348 25.2773 237.539 25.5234 237.539 25.7422C237.539 25.8516 237.493 25.9427 237.402 26.0156C237.311 26.0885 237.202 26.1341 237.074 26.1523L232.535 26.3984V29.7344L234.641 29.5703C235.042 29.5339 235.415 29.4701 235.762 29.3789C235.798 29.3607 235.853 29.3516 235.926 29.3516C236.163 29.3516 236.445 29.4974 236.773 29.7891C237.12 30.0625 237.293 30.3177 237.293 30.5547C237.293 30.6641 237.247 30.7552 237.156 30.8281C237.083 30.8828 236.983 30.9193 236.855 30.9375L232.535 31.1562L232.562 34.875L235.652 34.7656C236.09 34.7292 236.464 34.6562 236.773 34.5469C236.81 34.5286 236.865 34.5195 236.938 34.5195C237.156 34.5195 237.43 34.6745 237.758 34.9844C238.104 35.2943 238.277 35.5677 238.277 35.8047C238.277 35.9141 238.241 36.0052 238.168 36.0781C238.095 36.151 237.995 36.1875 237.867 36.1875L232.562 36.3242L232.59 42.9141ZM213.012 34.7383C213.012 34.6471 213.094 34.5742 213.258 34.5195C213.659 34.4284 214.133 34.237 214.68 33.9453C215.172 33.7083 215.792 33.3346 216.539 32.8242C216.721 32.7148 216.913 32.5964 217.113 32.4688C217.314 32.3411 217.523 32.2135 217.742 32.0859L217.77 27.1914L215.828 27.3828C215.391 27.4375 215.035 27.4648 214.762 27.4648C214.488 27.4648 214.306 27.4193 214.215 27.3281C213.905 27.0182 213.704 26.7539 213.613 26.5352C213.522 26.2982 213.477 26.1706 213.477 26.1523C213.458 26.1159 213.449 26.0612 213.449 25.9883C213.449 25.8971 213.495 25.8516 213.586 25.8516L213.695 25.8789C213.969 25.9336 214.27 25.9609 214.598 25.9609C214.889 25.9609 215.117 25.9518 215.281 25.9336L217.77 25.7422L217.797 21.6133C217.797 21.3216 217.751 21.0664 217.66 20.8477C217.587 20.6107 217.469 20.3646 217.305 20.1094C217.25 20.0182 217.223 19.9544 217.223 19.918C217.223 19.7721 217.341 19.6992 217.578 19.6992C217.797 19.6992 218.125 19.7812 218.562 19.9453C218.927 20.0729 219.173 20.2096 219.301 20.3555C219.428 20.4831 219.492 20.6471 219.492 20.8477L219.465 25.6055L219.82 25.5781C220.13 25.5599 220.486 25.4596 220.887 25.2773C220.96 25.2409 221.033 25.2227 221.105 25.2227C221.288 25.2227 221.579 25.3776 221.98 25.6875C222.382 25.9974 222.582 26.2526 222.582 26.4531C222.582 26.6901 222.354 26.8268 221.898 26.8633L219.438 27.0547L219.41 31.0742C219.921 30.7461 220.686 30.2357 221.707 29.543C221.889 29.4154 222.062 29.3516 222.227 29.3516C222.391 29.3516 222.473 29.4245 222.473 29.5703C222.473 29.8802 221.452 30.8737 219.41 32.5508L219.355 40.4805C219.355 40.6992 219.365 40.8997 219.383 41.082C219.401 41.2643 219.41 41.4375 219.41 41.6016C219.41 41.9479 219.31 42.2396 219.109 42.4766C218.927 42.7318 218.717 42.9141 218.48 43.0234C218.243 43.1328 218.061 43.1875 217.934 43.1875C217.587 43.1875 217.195 42.9596 216.758 42.5039C216.721 42.4674 216.32 42.0391 215.555 41.2188C214.789 40.3984 214.406 39.7878 214.406 39.3867C214.406 39.2773 214.452 39.2227 214.543 39.2227C214.707 39.2227 214.944 39.3411 215.254 39.5781C216.038 40.1432 216.849 40.6081 217.688 40.9727L217.715 33.8633C217.387 34.1185 217.104 34.3464 216.867 34.5469C216.448 34.9297 216.065 35.2305 215.719 35.4492C215.227 35.7773 214.862 35.9414 214.625 35.9414C214.461 35.9414 214.215 35.8411 213.887 35.6406C213.577 35.4401 213.303 35.194 213.066 34.9023C213.03 34.8659 213.012 34.8112 213.012 34.7383ZM220.996 36.3516C220.996 36.2604 221.051 36.2057 221.16 36.1875C221.178 36.1693 221.215 36.1602 221.27 36.1602C221.78 36.1237 222.409 35.9779 223.156 35.7227C223.922 35.4674 225.061 34.9753 226.574 34.2461C226.72 33.3893 226.811 32.3958 226.848 31.2656L225.098 31.4023L224.195 31.457C223.612 31.457 223.156 31.0286 222.828 30.1719C222.81 30.1354 222.801 30.0807 222.801 30.0078C222.801 29.9167 222.855 29.8711 222.965 29.8711C223.056 29.8711 223.129 29.8802 223.184 29.8984C223.53 29.9896 223.858 30.0352 224.168 30.0352H224.387L226.902 29.8984C226.939 28.4766 226.957 27.4193 226.957 26.7266L225.043 26.8633C224.861 26.8815 224.624 26.8906 224.332 26.8906C223.895 26.8906 223.566 26.7904 223.348 26.5898C223.129 26.3893 222.938 26.0612 222.773 25.6055L222.719 25.4414C222.719 25.332 222.783 25.2773 222.91 25.2773L223.129 25.332C223.421 25.4232 223.749 25.4688 224.113 25.4688H224.332L226.93 25.3047C226.893 23.3542 226.848 22.1055 226.793 21.5586C226.757 21.0117 226.665 20.6107 226.52 20.3555C226.447 20.1732 226.41 20.0638 226.41 20.0273C226.41 19.8815 226.52 19.8086 226.738 19.8086C227.048 19.8086 227.422 19.8906 227.859 20.0547C228.297 20.2005 228.516 20.3919 228.516 20.6289C228.552 23.2174 228.57 25.0312 228.57 26.0703C228.57 28.7318 228.497 30.974 228.352 32.7969C228.206 34.6016 227.951 36.0599 227.586 37.1719C227.221 38.2656 226.72 39.3047 226.082 40.2891C225.462 41.2552 224.842 42.0299 224.223 42.6133C223.603 43.2148 223.156 43.5156 222.883 43.5156C222.773 43.5156 222.719 43.4518 222.719 43.3242C222.719 43.1237 222.865 42.8411 223.156 42.4766C224.833 40.362 225.9 38.1198 226.355 35.75C225.298 36.4245 224.423 36.9258 223.73 37.2539C223.056 37.582 222.618 37.7461 222.418 37.7461C222.181 37.7461 221.88 37.5729 221.516 37.2266C221.169 36.862 220.996 36.5703 220.996 36.3516Z" fill="#333333"/>
<path d="M287.902 24.5035C287.64 23.518 286.869 22.742 285.89 22.4786C284.116 22 277 22 277 22C277 22 269.884 22 268.109 22.4786C267.13 22.742 266.359 23.518 266.098 24.5035C265.622 26.2896 265.622 30.0162 265.622 30.0162C265.622 30.0162 265.622 33.7427 266.098 35.5289C266.359 36.5143 267.13 37.258 268.109 37.5214C269.884 38 277 38 277 38C277 38 284.116 38 285.89 37.5214C286.869 37.258 287.64 36.5143 287.902 35.5289C288.378 33.7427 288.378 30.0162 288.378 30.0162C288.378 30.0162 288.378 26.2896 287.902 24.5035V24.5035ZM274.673 33.3996V26.6327L280.62 30.0163L274.673 33.3996V33.3996Z" fill="#FF0000"/>
</svg>
