<svg xmlns="http://www.w3.org/2000/svg" width="340" height="60" fill="none"><path fill="#333" d="M118.293 30.637c-.255 0-.447-.082-.574-.246-.164-.31-.502-.647-1.012-1.012l.055-.137c.565.237 1.039.356 1.422.356.237 0 .437-.137.601-.41.182-.292.374-.711.574-1.258.237-.675.365-1.24.383-1.696 0-.054-.027-.1-.082-.136-.055-.055-.1-.082-.137-.082-.164-.019-.474.009-.929.082l-.574.082a4.411 4.411 0 0 0-.575.11c-.2.054-.364.09-.492.108a5.537 5.537 0 0 0-.355.11 1.302 1.302 0 0 1-.356.082c-.091 0-.2-.046-.328-.137a2.833 2.833 0 0 1-.301-.355c-.018-.019-.027-.055-.027-.11 0-.073.055-.164.164-.273l.301-.3c.091-.11.182-.238.273-.384a3.29 3.29 0 0 1 .219-.355c.091-.146.164-.32.219-.52l.054-.246a.832.832 0 0 0-.027-.137c-.018-.09-.055-.136-.109-.136-.729.09-1.267.2-1.614.328a1.684 1.684 0 0 1-.328.11.415.415 0 0 1-.328-.165c-.055-.018-.164-.164-.328-.437-.073-.073-.109-.137-.109-.192 0-.127.191-.2.574-.218l.519-.055c.092 0 .283-.018.575-.055.583-.055 1.394-.118 2.433-.191.365-.018.994-.064 1.887-.137.255-.018.565-.055.93-.11.2-.054.328-.081.382-.081.092 0 .183.036.274.109.091.036.21.11.355.219.146.09.256.191.328.3.073.092.11.183.11.274 0 .091-.046.155-.137.191a.582.582 0 0 1-.355 0 4.296 4.296 0 0 0-.766-.109 11.705 11.705 0 0 0-.492-.027c-.62-.019-1.395.009-2.324.082a4.479 4.479 0 0 1-.575.054c.11.091.21.237.301.438v.055a.464.464 0 0 1-.082.218.482.482 0 0 1-.191.192c-.091.054-.201.182-.328.383-.128.2-.21.328-.246.382-.11.146-.165.265-.165.356 0 .073.073.1.219.082l.793-.11c.419-.072.729-.136.93-.191.055-.018.137-.036.246-.055.128-.018.273-.054.437-.109a.588.588 0 0 1 .383.082c.146.073.365.228.657.465.218.164.328.31.328.437a.438.438 0 0 1-.11.274c-.073.127-.127.3-.164.52-.164.765-.355 1.385-.574 1.859a7.704 7.704 0 0 1-.465.82c-.146.2-.328.401-.547.602-.237.273-.51.41-.82.41Zm.191 9.543c-.875 0-1.604-.22-2.187-.657-.602-.492-.902-1.066-.902-1.722 0-.51.191-.957.574-1.34.492-.42 1.112-.629 1.859-.629.037 0 .064-.036.082-.11a.96.96 0 0 0 .055-.355l.027-.71c-.127.018-.374.045-.738.081a7.496 7.496 0 0 0-.766.11c.091-.019-.191.045-.847.191a1.105 1.105 0 0 1-.301.027c-.347 0-.638-.155-.875-.464-.11-.11-.164-.201-.164-.274 0-.11.164-.164.492-.164l.848-.055 2.324-.3v-1.012a1.03 1.03 0 0 1-.027-.246.716.716 0 0 0-.028-.219 1.712 1.712 0 0 1-.055-.273c0-.128.064-.192.192-.192.164 0 .446.119.848.356.127.073.191.173.191.3a.536.536 0 0 1-.055.246.613.613 0 0 0-.027.192v.766l.82-.082 1.012-.11c.091-.018.191-.045.301-.082.127-.036.228-.055.301-.055.109 0 .246.055.41.164.31.201.464.374.464.52 0 .146-.154.219-.464.219-.091 0-.219.018-.383.054-.164.019-.374.037-.629.055l-1.832.137-.027 1.668c-.037.273-.237.446-.602.52h-.055c-.109 0-.218-.01-.328-.028a.63.63 0 0 0-.219-.055c-.145 0-.291.01-.437.028a.724.724 0 0 0-.383.164c-.31.273-.465.592-.465.957 0 .364.173.692.52.984.31.292.802.438 1.476.438.894-.037 1.623-.283 2.188-.739.237-.164.419-.246.547-.246.073 0 .164.019.273.055l.11.11c.054.054.082.109.082.163 0 .51-.429.93-1.286 1.258a5.464 5.464 0 0 1-1.914.356Zm4.758-10.364c.091 0 .228.064.41.192-.018.036.019.11.11.219l.191.191c.091.091.182.2.274.328.109.128.227.264.355.41.328.347 1.085 1.249 2.27 2.707.2.292.3.465.3.52 0 .182-.109.273-.328.273-.127 0-.264-.09-.41-.273-.346-.365-.966-.939-1.859-1.723-.693-.638-1.322-1.13-1.887-1.476-.273-.128-.41-.274-.41-.438 0-.127.137-.31.41-.547.255-.255.447-.383.574-.383Zm-19.906 12.715c.109-1.02.164-1.941.164-2.761v-3.555c0-.328.036-.957.109-1.887-.346.966-1.02 2.033-2.023 3.2a23.178 23.178 0 0 1-3.117 3.035c-1.057.838-1.768 1.257-2.133 1.257-.128 0-.192-.054-.192-.164 0-.146.137-.346.41-.601 2.352-2.151 4.348-4.694 5.989-7.63l-3.582.165h-.383c-.255 0-.447-.01-.574-.028a.68.68 0 0 1-.3-.164 2.33 2.33 0 0 1-.52-.629c-.146-.273-.22-.473-.22-.601s.083-.191.247-.191l.11.027c.4.091.783.137 1.148.137h.246l4.758-.192v-2.215l-2.844.137.027.356v.082c0 .382-.155.574-.465.574-.237 0-.52-.091-.847-.274-.328-.2-.492-.455-.492-.765l.027-.41c.036-.401.055-.73.055-.985 0-.237-.01-.42-.028-.547l-.41-5.086c-.055-.71-.182-1.312-.383-1.804a1.31 1.31 0 0 1-.082-.383c0-.128.082-.192.246-.192.329 0 .94.192 1.832.575l8.832-.602h.164c.456 0 .803.119 1.04.356.237.218.355.41.355.574 0 .091-.036.21-.109.355-.073.128-.11.22-.11.274l-.711 6.07c.529.529.793.893.793 1.094 0 .11-.054.182-.164.219a1.689 1.689 0 0 1-.437.082l-4.649.218v2.215l4.43-.191c.51-.037.902-.11 1.176-.219a.897.897 0 0 1 .273-.055c.237 0 .52.137.848.41.346.274.519.53.519.766 0 .274-.2.428-.601.465l-5.961.246.765.82c1.295 1.404 2.361 2.507 3.2 3.309.856.784 1.868 1.54 3.035 2.27.146.09.219.182.219.273 0 .036-.046.118-.137.246-.492.547-.875.82-1.149.82-.182 0-.692-.355-1.531-1.066a39.886 39.886 0 0 1-2.734-2.652c-.966-1.04-1.777-2.051-2.434-3.036.073.839.11 1.45.11 1.832l.027 7.137c0 .365-.164.547-.492.547-.255 0-.547-.11-.875-.328-.31-.219-.465-.474-.465-.766v-.164ZM86.82 24.484c0-.109.055-.164.164-.164.073 0 .137.01.192.028.273.073.565.109.875.109l.465-.027 6.671-.356c.53-.09.894-.173 1.094-.246a.87.87 0 0 1 .246-.055c.183 0 .383.082.602.247.237.164.437.346.602.546.182.2.273.347.273.438 0 .219-.21.346-.629.383l-8.313.52c-.2.017-.437.027-.71.027-.347 0-.575-.046-.684-.137-.328-.292-.556-.556-.684-.793-.109-.255-.164-.428-.164-.52Zm1.696 9.926c0-.11.072-.164.218-.164.292 0 .93.182 1.914.547l4.13-.191.273-.028c.237 0 .492.128.765.383.274.237.41.456.41.656a.527.527 0 0 1-.082.274 1.947 1.947 0 0 0-.082.246l-.464 3.61c.4.546.601.929.601 1.148 0 .127-.055.21-.164.246-.11.036-.291.063-.547.082l-4.457.136.028.52v.082c0 .401-.165.602-.493.602-.255 0-.528-.1-.82-.301-.292-.2-.437-.447-.437-.739v-.19c.036-.438.054-.767.054-.985v-.356l-.273-3.61c-.055-.655-.182-1.148-.383-1.476-.128-.255-.191-.419-.191-.492Zm.273-6.453c0-.091.037-.137.11-.137a.38.38 0 0 1 .163.028c.329.054.657.082.985.082h.3l3.692-.22c.365-.036.684-.108.957-.218a.867.867 0 0 1 .246-.055c.182 0 .438.155.766.465.346.292.52.538.52.739 0 .109-.055.2-.165.273a.954.954 0 0 1-.437.137l-5.032.328a5.131 5.131 0 0 1-.601.027c-.383 0-.684-.1-.902-.3-.22-.201-.374-.41-.465-.63-.091-.236-.137-.41-.137-.519Zm.055 3.336c0-.091.045-.137.137-.137l.136.028c.292.072.62.109.985.109h.3l3.528-.164c.291-.018.62-.091.984-.219a.866.866 0 0 1 .246-.055c.219 0 .483.155.793.465.31.292.465.538.465.739 0 .237-.191.373-.574.41l-4.895.273-.601.028c-.31 0-.584-.083-.82-.247-.238-.164-.456-.52-.657-1.066a.38.38 0 0 1-.027-.164Zm.683-10.773c0-.22.073-.42.22-.602.163-.182.327-.273.491-.273.11 0 .274.045.493.136 1.294.529 2.242.948 2.843 1.258.62.292 1.003.51 1.149.656.164.128.246.256.246.383 0 .164-.082.401-.246.711-.164.31-.374.465-.63.465-.127 0-.31-.073-.546-.219-1.221-.82-2.36-1.467-3.418-1.941a2.063 2.063 0 0 1-.465-.246.448.448 0 0 1-.137-.328Zm1.395 19.414 3.172-.11.3-3.718-3.746.136.274 3.692Zm9.351-15.286 3.172-.191v-2.27l-3.336.22.164 2.241Zm.274 3.801 2.926-.164-.028-2.433-3.09.164.192 2.433Zm7.738-4.265.219-2.297-3.418.218v2.27l3.199-.191Zm-.328 3.882.219-2.488-3.063.164v2.461l2.844-.137ZM162.152 27.219c-.273 0-.51-.1-.711-.301a20.73 20.73 0 0 0-1.832-1.777c-.692-.584-1.303-1.021-1.832-1.313-.255-.146-.382-.374-.382-.683 0-.055.063-.128.191-.22.164-.109.428-.346.793-.71l.984-.957c.438-.456.802-.866 1.094-1.23.31-.365.483-.62.52-.766a.918.918 0 0 0 .054-.219c.037-.128.091-.191.164-.191.091 0 .21.045.356.136.164.091.301.183.41.274.273.255.41.474.41.656-.018.055-.091.119-.219.191-.109.055-.209.11-.3.164a38.9 38.9 0 0 0-.985.875l-1.777 1.532c-.31.255-.465.455-.465.601 0 .073.146.192.437.356.347.218 1.021.665 2.024 1.34a9.79 9.79 0 0 1 1.094.847c.291.292.437.593.437.903a.493.493 0 0 1-.191.382.372.372 0 0 1-.274.11Zm-4.867 4.566c-.2 0-.446-.155-.738-.465-.219-.218-.328-.383-.328-.492 0-.055.036-.082.109-.082.073-.018.164-.027.274-.027l.601-.028c.346 0 .574-.009.684-.027.346 0 .638-.01.875-.027 1.567-.146 2.625-.265 3.172-.356.273-.036.519-.073.738-.11.219-.054.392-.081.519-.081.256 0 .511.127.766.383.201.2.301.364.301.492 0 .11-.064.182-.192.219-.091.018-.628.054-1.613.109a36.33 36.33 0 0 0-2.023.137c-.802.073-1.504.146-2.106.218l-.465.082c-.2.037-.392.055-.574.055Zm4.074 6.098c-.182.237-.373.355-.574.355-.055 0-.082-.045-.082-.136 0-.128.037-.274.109-.438l.547-1.094c.019-.073.046-.145.082-.218.037-.073.064-.137.082-.192v-.027c0-.037-.027-.073-.082-.11a.229.229 0 0 0-.191-.027 23.25 23.25 0 0 0-1.312.137c-.566.073-.985.146-1.258.219l-.41.136a1.074 1.074 0 0 1-.356.082c-.328 0-.602-.1-.82-.3a1.669 1.669 0 0 1-.41-.383l-.055-.137c0-.091.155-.118.465-.082.419.036 1.285-.018 2.597-.164l.547-.082c.146-.018.374-.046.684-.082.328-.055.583-.11.766-.164l.164-.055a.434.434 0 0 1 .191-.055c.091 0 .2.046.328.137.146.091.264.173.356.246.127.091.209.173.246.246.054.055.073.128.054.22 0 .09-.045.172-.136.245a2.568 2.568 0 0 0-.192.164 4.312 4.312 0 0 1-.383.41 4.476 4.476 0 0 1-.492.602c-.219.255-.373.437-.465.547Zm-1.367 5.386c0-.054.091-.2.274-.437.2-.219.355-.392.464-.52.274-.364.602-.893.985-1.585.401-.693.629-1.149.683-1.368.037-.109-.018-.164-.164-.164-.291 0-1.093.082-2.406.246-.857.11-1.495.22-1.914.328a.526.526 0 0 1-.273.083c-.146 0-.301-.1-.465-.301a.725.725 0 0 1-.11-.356c0-.073.046-.145.137-.218l.082-.11a5.86 5.86 0 0 0 .192-.437c.072-.183.136-.356.191-.52.091-.291.155-.61.191-.957.019-.2.128-.255.329-.164.255.128.446.255.574.383.146.11.191.191.136.246a2.722 2.722 0 0 0-.437.738 7.296 7.296 0 0 0-.164.575c0 .072.045.109.137.109.273 0 .683-.046 1.23-.137l1.148-.137c.456-.054.821-.109 1.094-.164l.684-.136a.712.712 0 0 1 .219-.028c.091 0 .182.037.273.11.091.054.191.127.301.218.182.164.301.301.355.41.055.092.082.201.082.329 0 .073-.054.164-.164.273-.091.11-.2.283-.328.52-.529 1.075-1.212 1.977-2.051 2.707a3.768 3.768 0 0 1-.793.465 1.293 1.293 0 0 1-.355.054c-.091.018-.137 0-.137-.054Zm8.75-12.632c.219 0 .328.1.328.3 0 .11-.1.265-.3.465-.547.675-1.632 1.96-3.254 3.856-.128.164-.246.246-.356.246-.091 0-.292-.137-.601-.41-.256-.219-.383-.401-.383-.547 0-.164.136-.32.41-.465.419-.237 1.048-.71 1.887-1.422.838-.747 1.458-1.34 1.859-1.777.164-.164.301-.246.41-.246Zm-36.258-4.758c-.51.036-.829.055-.957.055-.291 0-.547-.055-.765-.165-.219-.109-.429-.31-.629-.601a2.024 2.024 0 0 1-.246-.492l-.055-.219c0-.091.064-.137.191-.137l.192.028c.419.073.847.109 1.285.109h.355l7.219-.41-.246-.3a22.84 22.84 0 0 0-2.816-2.817c-.183-.164-.274-.32-.274-.465 0-.182.091-.374.274-.574.2-.22.364-.328.492-.328.146 0 .556.255 1.23.765.675.51 1.295 1.048 1.86 1.613.583.566.875.967.875 1.204 0 .145-.073.319-.219.52-.128.2-.219.309-.273.327l2.433-.137c1.294-1.22 2.242-2.25 2.844-3.09.601-.838.902-1.449.902-1.831v-.055c0-.2.055-.3.164-.3.11 0 .283.09.52.273.255.164.483.373.683.628.201.237.301.456.301.657 0 .2-.355.692-1.066 1.476a25.821 25.821 0 0 1-2.133 2.106l5.934-.328c.492-.019.957-.11 1.394-.274a.899.899 0 0 1 .274-.055c.255 0 .583.165.984.493.401.31.601.592.601.847 0 .2-.182.32-.546.356l-20.782 1.12Zm-2.543 17.582c0-.219.101-.465.301-.738.802-1.076 1.431-2.133 1.887-3.172.456-1.058.784-2.27.984-3.637.219-1.367.328-3.053.328-5.059 0-.93-.018-1.54-.054-1.832a2.264 2.264 0 0 0-.192-.82c-.127-.2-.191-.346-.191-.437 0-.11.082-.164.246-.164.292 0 .72.109 1.285.328l5.715-.356h.191c.274 0 .529.082.766.246.255.164.383.383.383.657a.943.943 0 0 1-.055.3 1.557 1.557 0 0 0-.027.301l.082 12.14c0 .165.009.32.027.466.018.145.028.273.028.382 0 .31-.137.602-.411.875-.255.274-.501.41-.738.41-.255 0-.729-.2-1.422-.601a17.808 17.808 0 0 1-1.914-1.313c-.583-.455-.875-.774-.875-.956 0-.11.082-.165.246-.165.11 0 .301.046.574.137a22.02 22.02 0 0 0 2.817.93l-.027-4.457-5.387.273a10.93 10.93 0 0 1-1.258 3.145c-.583.984-1.185 1.777-1.805 2.379-.601.601-1.048.911-1.34.93-.109 0-.164-.064-.164-.192Zm9.954-8.012v-2.488l-4.868.246a32.202 32.202 0 0 1-.246 2.488l5.114-.246Zm-.028-3.91v-2.488l-4.73.3-.055 2.434 4.785-.246Zm4.321-3.035c0-.11.072-.164.218-.164.146 0 .474.091.985.273.346.128.565.265.656.41.091.128.137.31.137.547l.109 8.258c0 .474-.146.711-.438.711-.072 0-.227-.036-.464-.11a2.394 2.394 0 0 1-.657-.382.751.751 0 0 1-.3-.602c0-.127.009-.228.027-.3.073-.42.109-1.021.109-1.805l-.027-5.113c0-.31-.018-.575-.055-.793a2.313 2.313 0 0 0-.218-.657.64.64 0 0 1-.082-.273Zm.874 11.594c0-.128.083-.192.247-.192.2 0 .474.091.82.274 1.185.62 2.242 1.039 3.172 1.258l.082-13.317c0-.547-.119-1.02-.356-1.422-.091-.182-.136-.3-.136-.355 0-.073.054-.11.164-.11.146 0 .537.1 1.175.301.347.11.584.237.711.383a.776.776 0 0 1 .219.574l-.055 13.809.028.957c0 .4-.146.72-.438.957-.291.255-.583.383-.875.383-.31 0-.847-.246-1.613-.739a18.945 18.945 0 0 1-2.16-1.613c-.656-.565-.985-.948-.985-1.148ZM199.23 27.355c-.273 0-.519-.109-.738-.328-.273-.2-.41-.355-.41-.465 0-.127.21-.19.629-.19l1.34-.083 1.367-.137c.036-.291.055-.847.055-1.668.054 0-.228.037-.848.11l-.52.082c-.164.073-.309.11-.437.11a.37.37 0 0 1-.273-.11c-.292-.255-.438-.474-.438-.656v-1.286c0-.127-.046-.62-.137-1.476l-.027-.301c0-.146.027-.237.082-.273.055-.037.155-.037.301 0 .547.145.811.31.793.492l-.028.191a7.294 7.294 0 0 0-.054.985c0 .474.009.774.027.902.037.364.055.538.055.52.018.072.082.109.191.109.11 0 .328-.027.656-.082.347-.073.575-.119.684-.137v-2.406c0-.675-.027-1.13-.082-1.367a4.378 4.378 0 0 1-.055-.301c0-.128.046-.192.137-.192.036 0 .164.037.383.11.346.164.574.31.683.437.128.128.174.265.137.41-.055.183-.091.547-.109 1.094a52.001 52.001 0 0 0-.11 2.133l.93-.027c.182 0 .319-.01.41-.028.091-.018.137-.054.137-.109.128-.693.21-1.294.246-1.805l.027-.328c.019-.036.019-.1 0-.191v-.192l-.027-.191c0-.164.064-.246.191-.246.073 0 .228.073.465.219.055.036.128.09.219.164a.467.467 0 0 1 .219.191.393.393 0 0 1 .054.219c0 .11-.009.2-.027.273l-.301 1.532-.082.628c-.073.42-.291.648-.656.684a.974.974 0 0 1-.273-.082.269.269 0 0 0-.137-.055c-.219 0-.675.046-1.367.137l-.028 1.695.465-.027.438-.027c.674 0 1.175-.037 1.504-.11.145 0 .273-.018.382-.054l.082-.028c.183 0 .374.128.575.383.237.237.355.41.355.52 0 .164-.255.218-.765.164l-1.04-.055h-1.367c-.273 0-.774.036-1.504.11-.382 0-.729.017-1.039.054-.31.037-.601.1-.875.191l-.465.165Zm5.934 7.165c-.273 0-.538-.201-.793-.602a8.639 8.639 0 0 0-.957-1.258l-.711-.738c-.383.437-.72.784-1.012 1.039a5.413 5.413 0 0 1-1.039.738c-.784.456-1.44.684-1.968.684-.128 0-.192-.046-.192-.137 0-.055.173-.173.52-.355.346-.183.674-.401.984-.657.784-.656 1.431-1.33 1.942-2.023-.11-.11-.657-.583-1.641-1.422a9.152 9.152 0 0 1-.574-.465 6.941 6.941 0 0 1-.328-.246c-.165-.127-.247-.219-.247-.273 0-.091.046-.137.137-.137.274 0 .711.191 1.313.574.601.365 1.23.802 1.886 1.313.256-.31.456-.602.602-.875.146-.274.31-.611.492-1.012.091-.2.146-.374.164-.52.018-.164.028-.264.028-.3 0-.2.054-.301.164-.301.127 0 .3.1.519.3.383.365.574.611.574.739 0 .073-.045.155-.136.246-.219.219-.42.51-.602.875-.109.219-.31.529-.601.93-.092.11-.165.21-.219.3-.055.092-.11.174-.164.247.419.31 1.039.838 1.859 1.585.201.183.328.356.383.52.073.146.109.346.109.602a.78.78 0 0 1-.136.465.443.443 0 0 1-.356.163Zm.492 3.609c.201.219.301.4.301.547 0 .127-.073.246-.219.355-.091.073-.319.474-.683 1.203a8.47 8.47 0 0 1-1.34 1.696c-.474.492-.948.847-1.422 1.066a.9.9 0 0 1-.273.055c-.073 0-.11-.018-.11-.055v-.055c0-.109.091-.237.274-.382.328-.256.574-.52.738-.793l.41-.575c.383-.547.656-.993.82-1.34.183-.31.31-.628.383-.956h-.109c-.474 0-1.24.054-2.297.164-.164.018-.638.082-1.422.191a8.994 8.994 0 0 0-.766.137l-.328.082a.486.486 0 0 1-.218.054.731.731 0 0 1-.274-.054 2.476 2.476 0 0 1-.273-.192c-.219-.182-.328-.337-.328-.465a.854.854 0 0 0 .054-.164.434.434 0 0 0 .055-.191l.137-.902c.018-.091.036-.192.054-.301.019-.11.028-.219.028-.328 0-.347-.009-.62-.028-.82a3.02 3.02 0 0 0-.082-.684v-.082c0-.128.055-.192.164-.192.11 0 .301.082.575.246.364.256.546.456.546.602 0 .055-.009.1-.027.137a5.594 5.594 0 0 1-.055.11 8.41 8.41 0 0 0-.082.546l-.136 1.45c0 .036.018.081.054.136.055.036.11.055.164.055.438 0 1.422-.11 2.954-.328.601-.055 1.029-.119 1.285-.192.164-.018.3-.045.41-.082a.877.877 0 0 1 .246-.082.885.885 0 0 1 .219-.055c.164 0 .364.146.601.438Zm5.196-5.688c.054 0 .109.028.164.082a.267.267 0 0 1 .109.164v.055c0 .128-.1.374-.301.739l-1.969 3.417c-.145.31-.337.465-.574.465-.237 0-.437-.146-.601-.437a9.254 9.254 0 0 1-.602-1.067 3.363 3.363 0 0 1-.273-.492 10.7 10.7 0 0 0-.164-.355c-.201-.347-.301-.593-.301-.739 0-.073.027-.127.082-.164.055-.054.109-.082.164-.082.2 0 .383.11.547.328.127.128.228.265.301.41l.3.41.547.63.246-.383c.256-.438.857-1.303 1.805-2.598.201-.255.374-.383.52-.383Zm-26.168 10.774c0 .4-.174.601-.52.601-.091 0-.255-.036-.492-.109a1.464 1.464 0 0 1-.629-.355c-.201-.164-.301-.401-.301-.711 0-.11.009-.2.028-.274a7.19 7.19 0 0 0 .164-1.504l.027-3.418-9.106.328-.902.028c-.255 0-.446-.037-.574-.11a3.308 3.308 0 0 1-.574-.629c-.201-.291-.301-.565-.301-.82 0-.091.045-.136.137-.136.073 0 .136.009.191.027.365.091.729.136 1.094.136h.273l9.762-.355v-.3c0-.475-.109-.885-.328-1.231-.073-.128-.11-.228-.11-.301 0-.146.11-.219.329-.219.328 0 .72.091 1.175.274.456.164.684.419.684.765v.957l8.559-.328c.364 0 .71-.064 1.039-.191a.38.38 0 0 1 .164-.028c.182 0 .465.165.847.493.401.31.602.574.602.793 0 .218-.21.346-.629.383l-10.582.41-.027 5.824ZM172.023 33.07c0-.11.073-.173.219-.191.638-.11 1.13-.283 1.477-.52.62-.437 1.367-1.039 2.242-1.804a63.756 63.756 0 0 0 2.516-2.38l.136-.136c.201-.2.374-.3.52-.3.091 0 .137.063.137.19 0 .31-.392.994-1.176 2.052a30.157 30.157 0 0 1-2.461 2.98c-.875.911-1.477 1.367-1.805 1.367a.966.966 0 0 1-.437-.11c-.31-.09-.72-.373-1.231-.847a.42.42 0 0 1-.137-.3Zm.657-8.832c0-.164.082-.355.246-.574.164-.237.328-.355.492-.355.182 0 .665.264 1.449.793.802.51 1.531 1.03 2.188 1.558.182.128.273.283.273.465 0 .128-.082.319-.246.574-.255.365-.465.547-.629.547-.109 0-.255-.073-.437-.219-1.112-.984-2.151-1.786-3.118-2.406-.145-.11-.218-.237-.218-.383Zm2.105-3.746c0-.2.1-.41.301-.629.219-.218.392-.328.519-.328.128 0 .511.219 1.149.656.638.42 1.23.857 1.777 1.313.547.456.821.784.821.984 0 .164-.119.383-.356.657-.219.273-.428.41-.629.41-.127 0-.264-.073-.41-.22-1.039-1.038-2.005-1.858-2.898-2.46-.183-.128-.274-.255-.274-.383Zm3.117 6.645c0-.146.164-.41.493-.793a34.743 34.743 0 0 0 2.378-2.98c.711-1.003 1.258-1.878 1.641-2.626.401-.765.602-1.303.602-1.613l-.028-.246-.027-.137c0-.182.082-.273.246-.273.255 0 .602.155 1.039.465.438.291.656.537.656.738 0 .2-.264.683-.793 1.45a43.467 43.467 0 0 1-1.257 1.75l7.875-.52c.419-.037.747-.1.984-.192l.219-.055c.182 0 .428.128.738.383.31.237.465.456.465.657 0 .2-.164.319-.492.355l-4.868.3-.027 1.669 2.27-.137c.401-.018.729-.082.984-.191a.38.38 0 0 1 .164-.028c.201 0 .447.137.738.41.292.256.438.465.438.63 0 .09-.046.173-.137.245a.624.624 0 0 1-.328.082l-4.129.192-.027 1.805 2.461-.11c.31-.018.601-.091.875-.219a.38.38 0 0 1 .164-.027c.2 0 .392.073.574.219.182.146.328.31.437.492.128.182.192.3.192.355 0 .165-.164.265-.492.301l-4.211.219-.028 2.023 4.321-.19c.31-.02.62-.11.929-.274a.443.443 0 0 1 .192-.055c.182 0 .364.082.547.246.2.146.364.319.492.52.146.2.219.346.219.437a.344.344 0 0 1-.164.3.919.919 0 0 1-.411.083l-11.429.437v.192c0 .456-.146.683-.438.683a5.188 5.188 0 0 1-.41-.136 3.09 3.09 0 0 1-.601-.301c-.183-.146-.274-.32-.274-.52l.027-.191c.092-.401.137-.83.137-1.285l.11-6.563c-.365.365-.876.82-1.532 1.367-.656.53-1.103.793-1.34.793-.109 0-.164-.045-.164-.136Zm8.231 4.648.027-1.996-3.773.191v1.97l3.746-.165Zm.027-3.226v-1.805l-3.746.191-.027 1.805 3.773-.191Zm.028-3.008v-1.668l-3.774.219v1.64l3.774-.191Zm-.356-5.906c0-.092.082-.237.246-.438.164-.219.319-.328.465-.328.128 0 .437.182.93.547.492.364.948.756 1.367 1.176.419.4.629.674.629.82 0 .182-.101.374-.301.574-.219.219-.41.328-.574.328-.164 0-.337-.118-.52-.355-.528-.638-1.221-1.322-2.078-2.051-.109-.091-.164-.182-.164-.273ZM244.266 30.473c-.146 0-.292-.028-.438-.082a.715.715 0 0 1-.328-.328c-.055-.165-.173-.356-.355-.575a2.108 2.108 0 0 0-.493-.492l.11-.137c.091.055.31.164.656.328.346.165.602.247.766.247a.987.987 0 0 0 .683-.274c.201-.182.456-.529.766-1.039a7 7 0 0 0 .601-1.23c.183-.474.319-.912.411-1.313l.027-.055c0-.054-.018-.1-.055-.136-.036-.055-.073-.082-.109-.082l-1.258.11c-.839.145-1.714.263-2.625.355a2.862 2.862 0 0 0-.574.136c-.219.073-.374.11-.465.11-.146 0-.337-.119-.574-.356a1.94 1.94 0 0 1-.274-.273c-.073-.11-.091-.2-.054-.274l.218-.218.137-.11c.255-.255.51-.592.766-1.012.182-.255.373-.683.574-1.285 0-.2.045-.3.137-.3.054 0 .145.036.273.109l.438.273c.109.091.182.164.218.22a.384.384 0 0 1 .055.218c0 .11-.073.246-.219.41a4.152 4.152 0 0 0-.383.438l-.628.902-.055.11c0 .054.073.081.219.081l2.105-.273 1.422-.11.547-.054.301-.055h.082c.182 0 .382.155.601.465.255.237.383.437.383.601l-.137.356c-.018.036-.164.465-.437 1.285-.328.784-.611 1.376-.848 1.777s-.492.711-.765.93c-.493.401-.967.602-1.422.602Zm2.242 9.324a.49.49 0 0 1-.246-.082c-.091-.073-.21-.173-.356-.3-.638-.493-1.258-1.231-1.859-2.216A10.413 10.413 0 0 1 242.762 34a5.647 5.647 0 0 0-.082-.383 1.688 1.688 0 0 0-.11-.328c0-.018-.027-.027-.082-.027-.127 0-.373.082-.738.246a1.285 1.285 0 0 0-.328.246c-.091.091-.192.128-.301.11-.073 0-.173-.046-.301-.137a1.284 1.284 0 0 1-.273-.246c-.182-.256-.274-.41-.274-.465 0-.11.101-.174.301-.192.274 0 .447-.009.52-.027a7.886 7.886 0 0 0 1.504-.356.996.996 0 0 0 .3-.164c.019 0 .046-.009.082-.027.055-.018.119 0 .192.055.273.182.41.319.41.41 0 1.276.365 2.47 1.094 3.582.729 1.112 1.795 2.05 3.199 2.816.073.037.164.073.273.11.11.036.164.09.164.164 0 .09-.3.173-.902.246l-.683.11-.219.054Zm2.734-9.98c.091 0 .228.063.41.19-.018.037.019.11.11.22l.191.191c.091.091.182.2.274.328.109.128.227.264.355.41.328.347 1.085 1.249 2.27 2.707.2.292.3.465.3.52 0 .182-.109.273-.328.273-.127 0-.264-.09-.41-.273-.346-.365-.966-.939-1.859-1.723-.693-.638-1.322-1.13-1.887-1.476-.273-.128-.41-.274-.41-.438 0-.127.137-.31.41-.547.255-.255.447-.383.574-.383Zm-32.265-.438a23.108 23.108 0 0 1-2.325 2.816c-.802.802-1.312 1.203-1.531 1.203-.128 0-.191-.063-.191-.191 0-.182.118-.428.355-.738a41.622 41.622 0 0 0 3.5-5.496c1.076-2.006 1.96-3.956 2.653-5.852.091-.364.136-.647.136-.848 0-.09-.018-.227-.054-.41l-.028-.11c0-.181.11-.273.328-.273.292 0 .657.146 1.094.438.438.273.656.52.656.738 0 .2-.337 1.012-1.011 2.434a54.12 54.12 0 0 1-2.024 3.883V42.75c0 .365-.164.547-.492.547-.255 0-.547-.11-.875-.328-.31-.219-.465-.483-.465-.793 0-.146.009-.255.027-.328.092-.438.137-.948.137-1.532l.11-10.937Zm2.652 5.578c0-.164.109-.355.328-.574 2.151-2.078 3.637-4.038 4.457-5.88l-2.57.11-.547.028c-.292 0-.538-.091-.738-.274-.183-.2-.319-.41-.411-.629-.072-.237-.109-.392-.109-.465 0-.09.046-.136.137-.136l.246.054c.31.055.601.082.875.082h.273l4.43-.218-.027-2.625-2.461.164a4.84 4.84 0 0 1-.574.027c-.383 0-.702-.127-.958-.383a2.543 2.543 0 0 1-.519-.984c0-.073.046-.11.137-.11.036 0 .127.019.273.055.365.091.72.137 1.067.137h.218l2.789-.191-.054-2.16c0-.584-.11-1.021-.329-1.313-.091-.128-.136-.219-.136-.274 0-.09.091-.136.273-.136.31 0 .684.073 1.121.218.456.128.684.356.684.684v2.871l3.226-.191.055-2.407c0-.638-.073-1.084-.219-1.34l-.054-.163c0-.092.082-.137.246-.137.255 0 .601.073 1.039.219.437.127.647.364.629.71l-.11 3.008 1.532-.109c.364-.018.674-.073.929-.164.146-.037.246-.055.301-.055.201 0 .447.137.738.41.292.274.438.502.438.684 0 .182-.182.292-.547.328l-3.445.219-.082 2.652 3.582-.219a4.06 4.06 0 0 0 .957-.19c.146-.037.246-.056.301-.056.182 0 .355.073.519.22.182.145.328.309.438.491.109.183.164.31.164.383 0 .2-.174.32-.52.356l-11.074.656c-.237.492-.62 1.084-1.149 1.777l.411.192 8.613-.438h.273c.292 0 .547.11.766.328.219.2.328.392.328.574 0 .055-.027.155-.082.301a1.197 1.197 0 0 0-.055.301v9.762l.028.902c0 .474-.146.82-.438 1.04-.273.218-.51.327-.711.327-.255 0-.683-.182-1.285-.547a12.625 12.625 0 0 1-1.668-1.203c-.492-.419-.738-.72-.738-.902 0-.146.1-.219.301-.219.109 0 .246.028.41.082 1.039.383 1.859.62 2.461.711v-3.226l-3.692.136-.027 4.02c0 .456-.128.683-.383.683s-.528-.109-.82-.328c-.274-.2-.41-.419-.41-.656l.027-.219c.073-.528.109-1.139.109-1.832v-1.613l-3.39.164a11.548 11.548 0 0 1-.985 2.461c-.382.73-.783 1.294-1.203 1.695-.401.42-.747.638-1.039.657-.127 0-.191-.064-.191-.192 0-.219.064-.437.191-.656.584-.984 1.03-1.878 1.34-2.68.328-.82.565-1.777.711-2.87.164-1.095.246-2.48.246-4.157 0-.73-.009-1.212-.027-1.45a27.148 27.148 0 0 1-2.707 2.708c-.894.765-1.541 1.148-1.942 1.148-.127 0-.191-.055-.191-.164Zm9.187 1.969.028-2.133-2.844.164c-.055.857-.137 1.559-.246 2.105v.028l3.062-.164Zm.028-3.418v-2.051l-2.762.164c0 .893-.009 1.577-.027 2.05l2.789-.163Zm1.804-6.727.055-2.652-3.172.219v2.625l3.117-.192Zm3.364 9.953v-2.132l-3.664.136-.028 2.133 3.692-.137Zm0-3.445v-2.05l-3.637.163-.027 2.024 3.664-.137Z"/><path fill="red" d="M287.902 24.503a2.86 2.86 0 0 0-2.012-2.024C284.116 22 277 22 277 22s-7.116 0-8.891.479a2.857 2.857 0 0 0-2.011 2.024c-.476 1.787-.476 5.513-.476 5.513s0 3.727.476 5.513a2.814 2.814 0 0 0 2.011 1.992C269.884 38 277 38 277 38s7.116 0 8.89-.479a2.817 2.817 0 0 0 2.012-1.992c.476-1.786.476-5.513.476-5.513s0-3.726-.476-5.512ZM274.673 33.4v-6.767l5.947 3.383-5.947 3.384Z"/></svg>