<svg width="340" height="60" viewBox="0 0 340 60" fill="none" xmlns="http://www.w3.org/2000/svg">
<path d="M93.5195 30.6094C93.3919 30.6094 93.3099 30.6003 93.2734 30.582C93.2552 30.5456 93.2826 30.4818 93.3555 30.3906C93.6107 30.1536 93.8112 29.9258 93.957 29.707C94.1211 29.4701 94.2943 29.0964 94.4766 28.5859C94.7682 27.7474 94.9141 27.1003 94.9141 26.6445C94.9141 26.2253 94.8867 25.8424 94.832 25.4961V25.4141C94.832 25.2135 94.9596 25.1497 95.2148 25.2227C95.4336 25.2773 95.6797 25.3503 95.9531 25.4414C96.0078 25.4232 96.0898 25.4141 96.1992 25.4141C96.3086 25.3958 96.4818 25.3685 96.7188 25.332C97.3385 25.2409 98.1406 25.1497 99.125 25.0586C99.125 24.9857 99.1979 24.7305 99.3438 24.293L99.5078 23.6914C99.5807 23.4362 99.5534 23.3086 99.4258 23.3086C99.0612 23.3086 98.2135 23.3997 96.8828 23.582L95.4336 23.8281C95.306 23.8464 95.1419 23.7917 94.9414 23.6641C94.7591 23.5365 94.6133 23.3906 94.5039 23.2266C94.4128 23.0625 94.431 22.9531 94.5586 22.8984C94.7044 22.8073 94.8503 22.7617 94.9961 22.7617C95.1419 22.7617 95.2331 22.7617 95.2695 22.7617H95.625L97.4297 22.707L99.1797 22.4883C99.2708 22.4701 99.3802 22.4427 99.5078 22.4062C99.6536 22.3516 99.7904 22.3151 99.918 22.2969C100.1 22.2604 100.41 22.4609 100.848 22.8984C100.921 22.9714 100.957 23.0534 100.957 23.1445C100.957 23.2539 100.884 23.3633 100.738 23.4727C100.538 23.6732 100.41 23.8464 100.355 23.9922C100.337 24.0833 100.301 24.2201 100.246 24.4023C100.191 24.5664 100.137 24.776 100.082 25.0312C100.191 25.1589 100.246 25.3138 100.246 25.4961C100.246 25.6419 100.201 25.7513 100.109 25.8242C100.036 25.8789 99.8815 25.9062 99.6445 25.9062C98.8242 25.9609 98.1771 26.0156 97.7031 26.0703C97.2292 26.1068 96.6549 26.1979 95.9805 26.3438C95.9076 27.1641 95.7435 27.9206 95.4883 28.6133C95.2331 29.2878 94.8776 29.7982 94.4219 30.1445C93.9844 30.4544 93.6836 30.6094 93.5195 30.6094ZM94.1211 39.6875C93.8477 39.6875 93.638 39.6146 93.4922 39.4688C93.3281 39.3047 93.2461 39.1589 93.2461 39.0312C93.2461 38.9036 93.319 38.7669 93.4648 38.6211C93.4831 38.6029 93.5833 38.457 93.7656 38.1836C94.1667 37.5456 94.6224 36.7344 95.1328 35.75C95.6615 34.7474 95.9896 34.0638 96.1172 33.6992C96.2266 33.3529 96.3268 33.0521 96.418 32.7969C96.5273 32.5417 96.6185 32.4141 96.6914 32.4141C96.819 32.4141 96.9284 32.4596 97.0195 32.5508C97.1107 32.6237 97.2018 32.7331 97.293 32.8789C97.4023 33.0065 97.4844 33.0977 97.5391 33.1523C97.6667 33.2982 97.7305 33.4349 97.7305 33.5625C97.7305 33.6536 97.694 33.7448 97.6211 33.8359C97.5482 33.9271 97.5026 33.9909 97.4844 34.0273L96.2812 36.0508C95.9714 36.6159 95.5612 37.3177 95.0508 38.1562C94.9779 38.2474 94.9414 38.3385 94.9414 38.4297C94.9414 38.5026 95.0234 38.5391 95.1875 38.5391C95.5339 38.5391 96.181 38.5026 97.1289 38.4297C98.0768 38.3385 98.7148 38.2656 99.043 38.2109C99.5169 38.1562 99.8451 38.1016 100.027 38.0469C100.228 37.9922 100.52 38.1289 100.902 38.457C101.358 38.8398 101.458 39.0859 101.203 39.1953C101.057 39.2682 100.775 39.3047 100.355 39.3047H99.2617C99.0247 39.3047 98.651 39.3229 98.1406 39.3594C97.8307 39.3594 97.4844 39.3685 97.1016 39.3867C96.7188 39.4049 96.3997 39.4232 96.1445 39.4414C95.8529 39.4596 95.2878 39.5143 94.4492 39.6055L94.1211 39.6875ZM69.1562 41.8203C68.901 41.8203 68.6914 41.8294 68.5273 41.8477C68.3633 41.8659 68.2266 41.875 68.1172 41.875C67.7344 41.875 67.4245 41.7474 67.1875 41.4922C66.9505 41.237 66.7773 40.9635 66.668 40.6719C66.5768 40.3802 66.5312 40.1979 66.5312 40.125C66.5312 40.0156 66.5951 39.9609 66.7227 39.9609C66.7956 39.9609 66.8594 39.9701 66.9141 39.9883C67.3698 40.0977 67.8802 40.1523 68.4453 40.1523L77.6875 39.8789V34.2461L73.5859 34.4102L72.9023 34.4375C72.5195 34.4375 72.2826 34.3919 72.1914 34.3008C71.9362 34.1003 71.7266 33.8542 71.5625 33.5625C71.4167 33.2708 71.3438 33.0521 71.3438 32.9062C71.3438 32.7969 71.3984 32.7422 71.5078 32.7422C71.5807 32.7422 71.6445 32.7513 71.6992 32.7695C72.1003 32.8607 72.4648 32.9062 72.793 32.9062H73.0117L77.6875 32.6875L77.7148 28.0391L72.6016 28.3125C72.0182 29.3516 71.444 30.2174 70.8789 30.9102C70.332 31.6029 69.8581 32.1133 69.457 32.4414C69.056 32.7695 68.8099 32.9336 68.7188 32.9336C68.6458 32.9336 68.6094 32.888 68.6094 32.7969C68.6094 32.6328 68.7005 32.4049 68.8828 32.1133C69.5573 31.056 70.168 29.9167 70.7148 28.6953C71.2617 27.4557 71.6901 26.3255 72 25.3047C72.3281 24.2839 72.4922 23.5547 72.4922 23.1172C72.4922 22.9167 72.4831 22.7708 72.4648 22.6797C72.4466 22.625 72.4375 22.5521 72.4375 22.4609C72.4375 22.2604 72.5286 22.1602 72.7109 22.1602C72.8203 22.1784 73.0391 22.2422 73.3672 22.3516C73.6953 22.4427 74.0052 22.5703 74.2969 22.7344C74.5885 22.8984 74.7344 23.0807 74.7344 23.2812C74.7344 23.3724 74.5885 23.8008 74.2969 24.5664C74.0234 25.3138 73.7227 26.0339 73.3945 26.7266L77.7148 26.4805V21.1484C77.7148 20.6198 77.5781 20.1549 77.3047 19.7539C77.2318 19.6263 77.1953 19.526 77.1953 19.4531C77.1953 19.3255 77.2956 19.2617 77.4961 19.2617C77.6055 19.2617 77.8333 19.3073 78.1797 19.3984C78.526 19.4714 78.8451 19.5898 79.1367 19.7539C79.4466 19.918 79.6016 20.1185 79.6016 20.3555L79.5742 26.3711L84.3867 26.0977C84.806 26.0612 85.2161 25.9792 85.6172 25.8516C85.6536 25.8333 85.7174 25.8242 85.8086 25.8242C86.0273 25.8242 86.3372 25.9974 86.7383 26.3438C87.1393 26.6719 87.3398 26.9453 87.3398 27.1641C87.3398 27.3828 87.112 27.5104 86.6562 27.5469L79.5742 27.9297L79.5469 32.6055L83.375 32.4141C83.776 32.3776 84.1406 32.3047 84.4688 32.1953C84.5052 32.1771 84.5599 32.168 84.6328 32.168C84.724 32.168 84.888 32.25 85.125 32.4141C85.3802 32.5599 85.599 32.7331 85.7812 32.9336C85.9818 33.1341 86.082 33.3255 86.082 33.5078C86.082 33.6172 86.0273 33.7083 85.918 33.7812C85.8268 33.8542 85.6992 33.8997 85.5352 33.918H85.4805L79.5469 34.1641L79.5195 39.8242L88.1328 39.5781C88.5156 39.5781 88.9349 39.4961 89.3906 39.332C89.4271 39.3138 89.4909 39.3047 89.582 39.3047C89.7826 39.3047 90.0013 39.4049 90.2383 39.6055C90.4935 39.7878 90.7122 39.9974 90.8945 40.2344C91.0951 40.4714 91.1953 40.6445 91.1953 40.7539C91.1953 40.9909 90.9766 41.1276 90.5391 41.1641L69.1562 41.8203Z" fill="#333333"/>
<path d="M138.309 35.7773C138.163 35.7773 138.044 35.6589 137.953 35.4219C137.807 35.1302 137.734 34.8932 137.734 34.7109L137.762 33.9727C137.78 33.6081 137.789 32.8789 137.789 31.7852V30.418L137.762 29.4609C137.561 29.4609 137.352 29.4883 137.133 29.543L136.504 29.707C136.413 29.7435 136.267 29.6888 136.066 29.543C135.866 29.3971 135.711 29.2331 135.602 29.0508C135.547 28.9414 135.52 28.8594 135.52 28.8047C135.52 28.75 135.547 28.7135 135.602 28.6953C135.656 28.6771 135.72 28.668 135.793 28.668C136.65 28.668 137.443 28.6224 138.172 28.5312L138.992 28.4766C139.521 28.4401 139.922 28.4128 140.195 28.3945C140.487 28.3581 140.688 28.3307 140.797 28.3125C140.943 28.2943 141.107 28.276 141.289 28.2578C141.49 28.2214 141.617 28.2122 141.672 28.2305C141.745 28.2852 141.836 28.3398 141.945 28.3945C142.073 28.4492 142.21 28.5404 142.355 28.668C142.447 28.7591 142.52 28.8503 142.574 28.9414C142.647 29.0143 142.684 29.0964 142.684 29.1875C142.684 29.2604 142.638 29.3698 142.547 29.5156C142.456 29.6615 142.365 29.8893 142.273 30.1992C142.201 30.5091 142.146 30.7279 142.109 30.8555C141.836 31.7669 141.499 32.4323 141.098 32.8516C140.806 33.1068 140.478 33.2344 140.113 33.2344C139.949 33.2344 139.812 33.1159 139.703 32.8789C139.539 32.5143 139.357 32.2591 139.156 32.1133L139.184 31.9766C139.676 32.1406 140.013 32.2227 140.195 32.2227C140.341 32.2227 140.441 32.1953 140.496 32.1406C140.569 32.0859 140.633 32.0039 140.688 31.8945C140.779 31.6576 140.852 31.4479 140.906 31.2656C140.979 31.0833 141.043 30.9193 141.098 30.7734C141.134 30.6094 141.18 30.3906 141.234 30.1172C141.307 29.8438 141.353 29.625 141.371 29.4609C141.371 29.2969 141.326 29.2148 141.234 29.2148H140.633C140.359 29.2148 140.049 29.224 139.703 29.2422C139.357 29.2604 139.074 29.2878 138.855 29.3242L138.801 31.8125L138.828 33.2344C138.828 33.4349 138.828 33.6263 138.828 33.8086C138.846 33.9727 138.846 34.0911 138.828 34.1641C138.828 34.2734 138.828 34.4466 138.828 34.6836C138.846 34.9023 138.846 35.0573 138.828 35.1484L138.637 35.5859C138.509 35.7135 138.4 35.7773 138.309 35.7773ZM144.242 25.7148C144.333 25.7148 144.47 25.7786 144.652 25.9062C144.634 25.9427 144.671 26.0156 144.762 26.125C144.853 26.2161 144.917 26.2799 144.953 26.3164C145.044 26.4076 145.135 26.5169 145.227 26.6445C145.336 26.7721 145.454 26.9089 145.582 27.0547C145.91 27.401 146.667 28.3034 147.852 29.7617C148.052 30.0534 148.152 30.2266 148.152 30.2812C148.152 30.4635 148.043 30.5547 147.824 30.5547C147.697 30.5547 147.56 30.4635 147.414 30.2812C147.068 29.9167 146.448 29.3424 145.555 28.5586C144.862 27.9206 144.233 27.4284 143.668 27.082C143.395 26.9544 143.258 26.8086 143.258 26.6445C143.258 26.5169 143.395 26.3346 143.668 26.0977C143.923 25.8424 144.115 25.7148 144.242 25.7148ZM122.203 35.0391C122.385 36.0599 122.477 37.2083 122.477 38.4844V38.9492C122.477 40.8451 122.312 42.1211 121.984 42.7773C121.656 43.4336 121.273 43.7617 120.836 43.7617C120.453 43.7617 119.797 43.4701 118.867 42.8867C117.938 42.3216 117.062 41.7018 116.242 41.0273C115.44 40.3711 115.039 39.9336 115.039 39.7148C115.039 39.6237 115.103 39.5781 115.23 39.5781C115.395 39.5781 115.65 39.6602 115.996 39.8242C117.108 40.4076 118.083 40.8451 118.922 41.1367C119.779 41.4466 120.271 41.6016 120.398 41.6016C120.471 41.6016 120.517 41.5469 120.535 41.4375C120.681 40.4714 120.754 39.5052 120.754 38.5391C120.754 37.4453 120.663 36.306 120.48 35.1211L111.047 35.5039L110.281 35.5312C109.917 35.5312 109.661 35.4401 109.516 35.2578C109.151 34.7839 108.923 34.4193 108.832 34.1641C108.814 34.1094 108.805 34.0456 108.805 33.9727C108.805 33.8633 108.85 33.8086 108.941 33.8086C108.996 33.8086 109.042 33.8177 109.078 33.8359C109.461 33.9453 109.862 34 110.281 34H110.527L120.098 33.5625C119.897 32.8516 119.633 32.1862 119.305 31.5664C119.195 31.3477 119.141 31.1654 119.141 31.0195C119.141 30.7643 119.268 30.5911 119.523 30.5C119.797 30.4089 120.025 30.3633 120.207 30.3633C120.316 30.3633 120.408 30.3997 120.48 30.4727C120.572 30.5456 120.663 30.6641 120.754 30.8281L120.863 31.0469C122.54 29.8802 123.734 28.8776 124.445 28.0391L116.379 28.6953C115.941 28.7318 115.659 28.75 115.531 28.75C115.148 28.75 114.884 28.6771 114.738 28.5312C114.465 28.2578 114.255 27.9935 114.109 27.7383C113.982 27.4831 113.918 27.3008 113.918 27.1914C113.918 27.0638 113.982 27 114.109 27C114.182 27 114.237 27.0091 114.273 27.0273C114.674 27.1185 115.03 27.1641 115.34 27.1641L115.805 27.1367L125.238 26.4258L125.648 26.3984C125.904 26.3984 126.15 26.4714 126.387 26.6172C126.624 26.763 126.815 26.9271 126.961 27.1094C127.107 27.2917 127.18 27.4375 127.18 27.5469C127.18 27.7292 127.079 27.8932 126.879 28.0391C126.678 28.1849 126.551 28.2852 126.496 28.3398C124.819 30.0169 123.16 31.3932 121.52 32.4688L121.848 33.4805L129.805 33.125C130.315 33.0885 130.725 33.0156 131.035 32.9062C131.145 32.8698 131.227 32.8516 131.281 32.8516C131.409 32.8516 131.6 32.9336 131.855 33.0977C132.129 33.2435 132.366 33.4258 132.566 33.6445C132.785 33.8633 132.895 34.0547 132.895 34.2188C132.895 34.4375 132.658 34.5651 132.184 34.6016L122.203 35.0391ZM109.625 27.7109C109.625 27.638 109.661 27.5286 109.734 27.3828C110.719 25.5417 111.512 23.7096 112.113 21.8867C112.168 21.6862 112.232 21.5495 112.305 21.4766C112.396 21.3854 112.514 21.3398 112.66 21.3398C112.77 21.3398 112.915 21.3672 113.098 21.4219C113.335 21.513 113.499 21.6042 113.59 21.6953C113.699 21.7865 113.754 21.8958 113.754 22.0234C113.754 22.0781 113.736 22.1784 113.699 22.3242L113.508 22.8711L121.273 22.4336C119.961 21.3763 118.949 20.6107 118.238 20.1367C118.111 20.0456 118.02 19.9635 117.965 19.8906C117.91 19.8177 117.883 19.7357 117.883 19.6445C117.883 19.4805 117.956 19.2982 118.102 19.0977C118.266 18.8789 118.411 18.7513 118.539 18.7148C118.576 18.6966 118.63 18.6875 118.703 18.6875C118.831 18.6875 118.977 18.7422 119.141 18.8516L119.633 19.1523C120.654 19.7904 121.474 20.319 122.094 20.7383C122.714 21.1576 123.051 21.4766 123.105 21.6953L123.133 21.832C123.133 21.9596 123.069 22.1237 122.941 22.3242L130.68 21.8867H130.926C131.254 21.8867 131.546 21.9961 131.801 22.2148C132.074 22.4336 132.211 22.6432 132.211 22.8438C132.211 22.9714 132.129 23.1172 131.965 23.2812C131.819 23.4271 131.728 23.5365 131.691 23.6094C131.564 23.8281 131.281 24.2565 130.844 24.8945C130.424 25.5143 129.969 26.1159 129.477 26.6992C129.003 27.2826 128.647 27.5742 128.41 27.5742C128.264 27.5742 128.191 27.4922 128.191 27.3281C128.191 27.1458 128.273 26.918 128.438 26.6445C129.003 25.6237 129.477 24.5664 129.859 23.4727L112.988 24.375C112.514 25.6328 112.132 26.5716 111.84 27.1914C111.566 27.8112 111.357 28.2122 111.211 28.3945C111.065 28.5586 110.928 28.6406 110.801 28.6406C110.728 28.6224 110.591 28.5768 110.391 28.5039C110.208 28.4128 110.035 28.3034 109.871 28.1758C109.707 28.0299 109.625 27.875 109.625 27.7109Z" fill="#333333"/>
<path d="M181.84 27.2188C181.548 27.2188 181.366 27.1367 181.293 26.9727C181.202 26.7539 181.111 26.5716 181.02 26.4258C180.928 26.2617 180.764 26.0703 180.527 25.8516L180.582 25.7422C181.238 25.9792 181.667 26.0977 181.867 26.0977C182.013 26.0977 182.122 26.0703 182.195 26.0156C182.268 25.9609 182.387 25.8333 182.551 25.6328C182.788 25.3776 183.007 24.9857 183.207 24.457C183.48 23.6732 183.654 22.862 183.727 22.0234V21.9414C183.727 21.832 183.708 21.7591 183.672 21.7227C183.435 21.7227 182.806 21.7773 181.785 21.8867C181.22 23.2904 180.564 24.4479 179.816 25.3594C179.087 26.2526 178.422 26.6992 177.82 26.6992C177.674 26.6992 177.602 26.6445 177.602 26.5352C177.602 26.4987 177.784 26.2891 178.148 25.9062C178.513 25.5234 178.914 25.0221 179.352 24.4023C179.807 23.7643 180.236 22.9805 180.637 22.0508C180.546 22.0508 180.281 22.069 179.844 22.1055C179.406 22.1419 179.033 22.2057 178.723 22.2969C178.577 22.4062 178.422 22.4245 178.258 22.3516C178.258 22.3516 178.24 22.3424 178.203 22.3242C178.167 22.306 178.13 22.2786 178.094 22.2422C177.966 22.1693 177.857 22.0781 177.766 21.9688C177.693 21.8411 177.656 21.7227 177.656 21.6133C177.656 21.5586 177.702 21.4857 177.793 21.3945L178.121 20.957C178.23 20.8112 178.331 20.6016 178.422 20.3281C178.513 20.0365 178.559 19.7904 178.559 19.5898C178.559 19.4622 178.549 19.3802 178.531 19.3438C178.513 19.3073 178.504 19.2617 178.504 19.207C178.504 19.1159 178.549 19.0703 178.641 19.0703C178.75 19.0703 178.905 19.1341 179.105 19.2617C179.16 19.2982 179.26 19.3711 179.406 19.4805C179.57 19.5716 179.661 19.681 179.68 19.8086C179.68 19.9362 179.607 20.1458 179.461 20.4375L179.105 21.0664C179.069 21.1211 179.051 21.1849 179.051 21.2578C179.051 21.3125 179.069 21.3581 179.105 21.3945C179.16 21.4128 179.224 21.4128 179.297 21.3945L180.938 21.1758C181.12 20.7018 181.266 20.2005 181.375 19.6719V19.5078V19.043C181.375 18.8424 181.43 18.7604 181.539 18.7969C181.776 18.8516 181.967 18.9245 182.113 19.0156C182.387 19.1797 182.523 19.3164 182.523 19.4258C182.523 19.5169 182.487 19.6719 182.414 19.8906C182.359 20.0911 182.314 20.2461 182.277 20.3555C182.259 20.4284 182.177 20.6654 182.031 21.0664C182.086 21.0664 182.423 21.0299 183.043 20.957L183.316 20.9023C183.371 20.9023 183.471 20.8841 183.617 20.8477C183.654 20.8294 183.699 20.8203 183.754 20.8203C183.973 20.8203 184.109 20.8294 184.164 20.8477C184.237 20.8659 184.346 20.9206 184.492 21.0117C184.656 21.1211 184.766 21.2305 184.82 21.3398C184.875 21.4492 184.893 21.5768 184.875 21.7227L184.711 22.625L184.52 23.6094C184.52 23.6823 184.456 23.9193 184.328 24.3203C184.201 24.7214 184.055 25.0768 183.891 25.3867C183.581 26.0065 183.216 26.4714 182.797 26.7812C182.432 27.0729 182.113 27.2188 181.84 27.2188ZM178.285 31.7852C178.085 31.7852 177.839 31.6302 177.547 31.3203C177.328 31.1016 177.219 30.9375 177.219 30.8281C177.219 30.7734 177.255 30.7461 177.328 30.7461C177.401 30.7279 177.492 30.7188 177.602 30.7188L178.203 30.6914C178.549 30.6914 178.777 30.6823 178.887 30.6641C179.233 30.6641 179.525 30.6549 179.762 30.6367C181.329 30.4909 182.387 30.3724 182.934 30.2812C183.207 30.2448 183.453 30.2083 183.672 30.1719C183.891 30.1172 184.064 30.0898 184.191 30.0898C184.447 30.0898 184.702 30.2174 184.957 30.4727C185.158 30.6732 185.258 30.8372 185.258 30.9648C185.258 31.0742 185.194 31.1471 185.066 31.1836C184.975 31.2018 184.438 31.2383 183.453 31.293C182.906 31.3112 182.232 31.3568 181.43 31.4297C180.628 31.5026 179.926 31.5755 179.324 31.6484C179.215 31.6667 179.06 31.694 178.859 31.7305C178.659 31.7669 178.467 31.7852 178.285 31.7852ZM182.359 37.8828C182.177 38.1198 181.986 38.2383 181.785 38.2383C181.73 38.2383 181.703 38.1927 181.703 38.1016C181.703 37.974 181.74 37.8281 181.812 37.6641C181.812 37.6641 181.995 37.2995 182.359 36.5703C182.378 36.4974 182.405 36.4245 182.441 36.3516C182.478 36.2786 182.505 36.2148 182.523 36.1602V36.1328C182.523 36.0964 182.496 36.0599 182.441 36.0234C182.387 35.987 182.323 35.9779 182.25 35.9961C181.958 36.0143 181.521 36.0599 180.938 36.1328C180.372 36.2057 179.953 36.2786 179.68 36.3516C179.57 36.388 179.434 36.4336 179.27 36.4883C179.124 36.543 179.005 36.5703 178.914 36.5703C178.586 36.5703 178.312 36.4701 178.094 36.2695C177.911 36.1419 177.775 36.0143 177.684 35.8867L177.629 35.75C177.629 35.6589 177.784 35.6315 178.094 35.668C178.513 35.7044 179.379 35.6497 180.691 35.5039L181.238 35.4219C181.384 35.4036 181.612 35.3763 181.922 35.3398C182.25 35.2852 182.505 35.2305 182.688 35.1758C182.742 35.1576 182.797 35.1393 182.852 35.1211C182.924 35.0846 182.988 35.0664 183.043 35.0664C183.134 35.0664 183.243 35.112 183.371 35.2031C183.517 35.2943 183.635 35.3763 183.727 35.4492C183.854 35.5404 183.936 35.6224 183.973 35.6953C184.027 35.75 184.046 35.8229 184.027 35.9141C184.027 36.0052 183.982 36.0872 183.891 36.1602C183.799 36.2331 183.736 36.2878 183.699 36.3242C183.663 36.3789 183.535 36.5156 183.316 36.7344C183.225 36.8802 183.061 37.0807 182.824 37.3359C182.605 37.5911 182.451 37.7734 182.359 37.8828ZM180.992 43.2695C180.992 43.2148 181.083 43.069 181.266 42.832C181.466 42.6133 181.621 42.4401 181.73 42.3125C182.004 41.9479 182.332 41.4193 182.715 40.7266C183.116 40.0339 183.344 39.5781 183.398 39.3594C183.435 39.25 183.38 39.1953 183.234 39.1953C182.943 39.1953 182.141 39.2773 180.828 39.4414C179.971 39.5508 179.333 39.6602 178.914 39.7695C178.823 39.8242 178.732 39.8516 178.641 39.8516C178.495 39.8516 178.34 39.7513 178.176 39.5508C178.103 39.4232 178.066 39.3047 178.066 39.1953C178.066 39.1224 178.112 39.0495 178.203 38.9766L178.285 38.8672C178.34 38.7578 178.404 38.612 178.477 38.4297C178.549 38.2474 178.613 38.0742 178.668 37.9102C178.759 37.6185 178.823 37.2995 178.859 36.9531C178.878 36.7526 178.987 36.6979 179.188 36.7891C179.443 36.9167 179.634 37.0443 179.762 37.1719C179.908 37.2812 179.953 37.3633 179.898 37.418C179.716 37.6367 179.57 37.8828 179.461 38.1562C179.37 38.4479 179.315 38.6393 179.297 38.7305C179.297 38.8034 179.342 38.8398 179.434 38.8398C179.707 38.8398 180.117 38.7943 180.664 38.7031C180.974 38.6667 181.357 38.6211 181.812 38.5664C182.268 38.5117 182.633 38.457 182.906 38.4023L183.59 38.2656C183.645 38.2474 183.717 38.2383 183.809 38.2383C183.9 38.2383 183.991 38.2747 184.082 38.3477C184.173 38.4023 184.273 38.4753 184.383 38.5664C184.565 38.7305 184.684 38.8672 184.738 38.9766C184.793 39.0677 184.82 39.1771 184.82 39.3047C184.82 39.3776 184.766 39.4688 184.656 39.5781C184.565 39.6875 184.456 39.8607 184.328 40.0977C183.799 41.1732 183.116 42.0755 182.277 42.8047C182.04 42.987 181.776 43.1419 181.484 43.2695C181.357 43.306 181.238 43.3242 181.129 43.3242C181.038 43.3424 180.992 43.3242 180.992 43.2695ZM186.242 32.8242C186.333 32.8242 186.47 32.888 186.652 33.0156C186.634 33.0521 186.671 33.125 186.762 33.2344C186.853 33.3255 186.917 33.3893 186.953 33.4258C187.044 33.5169 187.135 33.6263 187.227 33.7539C187.336 33.8815 187.454 34.0182 187.582 34.1641C187.91 34.5104 188.667 35.4128 189.852 36.8711C190.052 37.1628 190.152 37.3359 190.152 37.3906C190.152 37.5729 190.043 37.6641 189.824 37.6641C189.697 37.6641 189.56 37.5729 189.414 37.3906C189.068 37.026 188.448 36.4518 187.555 35.668C186.862 35.0299 186.233 34.5378 185.668 34.1914C185.395 34.0638 185.258 33.918 185.258 33.7539C185.258 33.6263 185.395 33.444 185.668 33.207C185.923 32.9518 186.115 32.8242 186.242 32.8242ZM168.059 33.3438C169.48 34.7474 170.802 35.9505 172.023 36.9531C173.263 37.9557 174.484 38.7578 175.688 39.3594C176.016 39.5234 176.18 39.6784 176.18 39.8242C176.18 39.9701 176.016 40.207 175.688 40.5352C175.359 40.8451 175.113 41 174.949 41C174.876 41 174.594 40.8633 174.102 40.5898C173.628 40.3164 172.908 39.7786 171.941 38.9766C170.993 38.1745 169.836 37.0443 168.469 35.5859C168.341 35.4401 168.004 34.9844 167.457 34.2188C167.53 34.9661 167.566 35.5495 167.566 35.9688V43.1055C167.566 43.6159 167.393 43.8711 167.047 43.8711C166.956 43.8711 166.801 43.8255 166.582 43.7344C166.363 43.6432 166.163 43.5156 165.98 43.3516C165.816 43.1875 165.734 42.9961 165.734 42.7773C165.734 42.668 165.743 42.5859 165.762 42.5312C165.871 41.7109 165.926 40.9727 165.926 40.3164L165.953 36.0508C165.953 35.6315 165.999 35.0208 166.09 34.2188C165.962 34.5104 165.789 34.8477 165.57 35.2305C165.352 35.6133 165.16 35.8958 164.996 36.0781C164.158 37.0807 163.255 38.0104 162.289 38.8672C161.341 39.724 160.484 40.4167 159.719 40.9453C158.971 41.4557 158.507 41.7109 158.324 41.7109C158.178 41.7109 158.105 41.6471 158.105 41.5195C158.105 41.319 158.288 41.0729 158.652 40.7812C159.618 40.0156 160.658 38.9766 161.77 37.6641C162.9 36.3333 163.957 34.9297 164.941 33.4531L162.918 33.5352L162.945 33.8633V34C162.945 34.3281 162.809 34.4922 162.535 34.4922C162.353 34.4922 162.098 34.4284 161.77 34.3008C161.46 34.1549 161.305 33.9453 161.305 33.6719C161.305 33.5078 161.314 33.3711 161.332 33.2617C161.35 33.0977 161.359 32.8698 161.359 32.5781C161.359 32.2318 161.35 31.9766 161.332 31.8125L160.977 27.4922C160.922 26.8542 160.812 26.3893 160.648 26.0977C160.484 25.8424 160.402 25.6693 160.402 25.5781C160.402 25.4688 160.493 25.4141 160.676 25.4141C160.986 25.4141 161.578 25.5417 162.453 25.7969L165.953 25.6055L165.98 23.6914L161.77 23.9375C161.569 23.9557 161.314 23.9648 161.004 23.9648C160.22 23.9648 159.701 23.5729 159.445 22.7891L159.391 22.5703C159.391 22.4792 159.454 22.4336 159.582 22.4336C159.655 22.4336 159.719 22.4427 159.773 22.4609C160.083 22.5339 160.411 22.5703 160.758 22.5703H161.086L165.98 22.2422V19.8906C165.98 19.6536 165.962 19.4531 165.926 19.2891C165.889 19.125 165.807 18.9518 165.68 18.7695C165.589 18.6237 165.543 18.5234 165.543 18.4688C165.543 18.3411 165.652 18.2773 165.871 18.2773C166.163 18.2773 166.518 18.3411 166.938 18.4688C167.357 18.5781 167.566 18.7422 167.566 18.9609V22.1328L171.121 21.8867C171.65 21.8503 172.051 21.7865 172.324 21.6953C172.434 21.6589 172.525 21.6406 172.598 21.6406C172.889 21.6406 173.181 21.8047 173.473 22.1328C173.764 22.4427 173.91 22.707 173.91 22.9258C173.91 23.0716 173.764 23.1628 173.473 23.1992L167.566 23.582V25.5234L171.559 25.2773H171.723C172.014 25.2773 172.306 25.3776 172.598 25.5781C172.889 25.7604 173.035 25.9883 173.035 26.2617C173.035 26.3529 173.008 26.4622 172.953 26.5898C172.917 26.7174 172.889 26.8086 172.871 26.8633L172.27 31.7578C172.707 32.25 172.926 32.6055 172.926 32.8242C172.926 32.9518 172.862 33.0339 172.734 33.0703C172.625 33.1068 172.497 33.1341 172.352 33.1523C172.206 33.1523 172.105 33.1523 172.051 33.1523L168.059 33.3438ZM150.449 41.3281C150.449 41.1641 150.504 40.918 150.613 40.5898C151.014 39.4232 151.397 37.8919 151.762 35.9961C151.798 35.7409 151.853 35.5677 151.926 35.4766C151.999 35.3672 152.108 35.3125 152.254 35.3125C152.418 35.3125 152.609 35.3672 152.828 35.4766C153.065 35.5677 153.184 35.7044 153.184 35.8867C153.184 36.2513 153.083 37.0352 152.883 38.2383C152.682 39.4414 152.418 40.5443 152.09 41.5469C151.98 41.9661 151.826 42.1758 151.625 42.1758C151.443 42.1758 151.197 42.0755 150.887 41.875C150.595 41.6927 150.449 41.5104 150.449 41.3281ZM150.641 32.9062C150.641 32.7969 150.796 32.6419 151.105 32.4414C151.434 32.168 151.598 32.0312 151.598 32.0312C151.853 31.8125 152.327 31.2747 153.02 30.418C153.73 29.5612 154.451 28.6406 155.18 27.6562L154.441 27.7383C152.691 27.957 151.661 28.0664 151.352 28.0664C151.169 28.0664 151.005 27.9388 150.859 27.6836C150.732 27.4284 150.668 27.1914 150.668 26.9727C150.668 26.8815 150.695 26.8086 150.75 26.7539C150.823 26.681 150.887 26.6263 150.941 26.5898C151.014 26.5534 151.06 26.526 151.078 26.5078C151.37 26.3255 151.616 26.0977 151.816 25.8242C152.017 25.6055 152.391 25.0768 152.938 24.2383C153.484 23.3815 153.977 22.5247 154.414 21.668C154.852 20.793 155.07 20.1458 155.07 19.7266C155.07 19.5078 155.171 19.3984 155.371 19.3984C155.517 19.3984 155.772 19.526 156.137 19.7812C156.501 20.0182 156.684 20.237 156.684 20.4375C156.684 20.6927 156.629 20.9297 156.52 21.1484C156.41 21.349 156.346 21.4674 156.328 21.5039C156.073 22.0326 155.608 22.8255 154.934 23.8828C154.259 24.9401 153.63 25.8333 153.047 26.5625C153.812 26.4896 154.879 26.362 156.246 26.1797C157.285 24.7031 157.805 23.7734 157.805 23.3906C157.841 23.1354 157.923 23.0078 158.051 23.0078C158.251 23.0078 158.497 23.1263 158.789 23.3633C159.099 23.6003 159.254 23.8372 159.254 24.0742C159.254 24.1654 159.199 24.3021 159.09 24.4844C158.999 24.6484 158.926 24.7852 158.871 24.8945C158.488 25.569 157.641 26.7812 156.328 28.5312C155.016 30.2812 153.995 31.5391 153.266 32.3047C153.885 32.1953 155.016 31.9128 156.656 31.457L157.258 31.293C156.948 30.6185 156.784 30.2721 156.766 30.2539C156.656 30.0898 156.602 29.944 156.602 29.8164C156.62 29.6523 156.72 29.5156 156.902 29.4062C157.085 29.2969 157.267 29.2422 157.449 29.2422C157.704 29.2422 157.896 29.3516 158.023 29.5703C158.315 29.9896 158.661 30.6549 159.062 31.5664C159.482 32.4596 159.691 33.0065 159.691 33.207C159.691 33.444 159.546 33.6263 159.254 33.7539C158.98 33.8815 158.753 33.9453 158.57 33.9453C158.406 33.9453 158.27 33.8086 158.16 33.5352L157.777 32.5781C157.595 32.6328 156.656 32.8971 154.961 33.3711C153.266 33.8268 152.163 34.0638 151.652 34.082C151.397 34.0638 151.16 33.918 150.941 33.6445C150.741 33.3711 150.641 33.125 150.641 32.9062ZM154.141 35.3398C154.141 35.1211 154.241 34.9753 154.441 34.9023C154.66 34.8294 154.852 34.793 155.016 34.793C155.161 34.793 155.271 34.8477 155.344 34.957C155.435 35.0482 155.517 35.2122 155.59 35.4492L155.809 36.4883C156.264 38.4935 156.492 39.6875 156.492 40.0703C156.492 40.3802 156.346 40.599 156.055 40.7266C155.781 40.8359 155.544 40.8906 155.344 40.8906C155.198 40.8906 155.089 40.8268 155.016 40.6992C154.943 40.5716 154.888 40.362 154.852 40.0703C154.633 38.1745 154.423 36.8073 154.223 35.9688C154.168 35.7135 154.141 35.5039 154.141 35.3398ZM156.766 34.6836C156.766 34.5013 156.93 34.3464 157.258 34.2188C157.404 34.1458 157.549 34.1094 157.695 34.1094C157.896 34.1094 158.06 34.237 158.188 34.4922C158.552 35.2031 158.871 35.9323 159.145 36.6797C159.436 37.4271 159.582 37.9102 159.582 38.1289C159.582 38.3112 159.454 38.4753 159.199 38.6211C158.944 38.7487 158.698 38.8125 158.461 38.8125C158.188 38.8125 158.005 38.6211 157.914 38.2383C157.641 37.0898 157.285 36.0234 156.848 35.0391C156.793 34.8932 156.766 34.7747 156.766 34.6836ZM162.809 32.168L165.953 32.0312V26.9453L162.398 27.1367L162.809 32.168ZM162.836 28.3672C162.836 28.2396 162.936 28.1029 163.137 27.957C163.337 27.8112 163.51 27.7383 163.656 27.7383C163.784 27.7383 163.993 27.9297 164.285 28.3125C164.577 28.6771 164.85 29.0872 165.105 29.543C165.361 29.9805 165.488 30.2904 165.488 30.4727C165.488 30.6549 165.361 30.819 165.105 30.9648C164.868 31.1107 164.695 31.1836 164.586 31.1836C164.404 31.1836 164.24 31.0195 164.094 30.6914C163.729 29.9076 163.383 29.2786 163.055 28.8047C162.909 28.5859 162.836 28.4401 162.836 28.3672ZM170.766 31.8125L171.312 26.6172L167.566 26.8633V31.9766L170.766 31.8125ZM167.758 31.2656C167.758 31.1562 167.831 30.9831 167.977 30.7461C168.359 30.181 168.669 29.6159 168.906 29.0508C169.161 28.4857 169.289 28.0664 169.289 27.793V27.5742C169.289 27.3737 169.353 27.2734 169.48 27.2734C169.553 27.2734 169.69 27.3464 169.891 27.4922C170.109 27.6198 170.301 27.7747 170.465 27.957C170.647 28.1211 170.738 28.2852 170.738 28.4492C170.738 28.668 170.547 29.0234 170.164 29.5156C169.781 29.9896 169.353 30.4271 168.879 30.8281C168.423 31.2292 168.104 31.4297 167.922 31.4297C167.812 31.4297 167.758 31.375 167.758 31.2656Z" fill="#333333"/>
<path d="M223.211 30.2266C223.102 30.2266 222.956 30.1081 222.773 29.8711C222.591 29.6159 222.509 29.3971 222.527 29.2148C222.564 29.069 222.591 28.6589 222.609 27.9844C222.628 27.5286 222.637 26.7266 222.637 25.5781C222.637 24.776 222.628 24.2383 222.609 23.9648L221.707 24.0469C221.069 24.138 220.522 24.1836 220.066 24.1836C219.939 24.1836 219.757 24.0833 219.52 23.8828C219.283 23.6823 219.164 23.5365 219.164 23.4453C219.164 23.2995 219.319 23.2448 219.629 23.2812C219.829 23.2995 220.422 23.2904 221.406 23.2539C222.755 23.1628 223.73 23.1081 224.332 23.0898C224.642 23.0716 224.924 23.0443 225.18 23.0078C225.453 22.9531 225.645 22.9167 225.754 22.8984C225.918 22.8802 226.064 22.8984 226.191 22.9531C226.319 23.0078 226.438 23.0807 226.547 23.1719C226.674 23.2448 226.775 23.2995 226.848 23.3359C227.012 23.4453 227.094 23.5456 227.094 23.6367C227.094 23.7096 227.048 23.7826 226.957 23.8555C226.884 23.9102 226.802 23.9375 226.711 23.9375C226.62 23.9375 226.492 23.9284 226.328 23.9102C226.182 23.8919 226.018 23.8828 225.836 23.8828C225.161 23.8828 224.469 23.901 223.758 23.9375C223.74 24.0833 223.73 24.4479 223.73 25.0312C223.694 26.0156 223.676 26.9818 223.676 27.9297V28.9961V29.2422C223.676 29.5521 223.648 29.7526 223.594 29.8438C223.43 30.099 223.302 30.2266 223.211 30.2266ZM220.285 36.707C220.085 36.707 219.839 36.5521 219.547 36.2422C219.328 36.0234 219.219 35.8594 219.219 35.75C219.219 35.6953 219.255 35.668 219.328 35.668C219.401 35.6497 219.492 35.6406 219.602 35.6406L220.203 35.6133C220.549 35.6133 220.777 35.6042 220.887 35.5859C221.233 35.5859 221.525 35.5768 221.762 35.5586C223.329 35.4128 224.387 35.2943 224.934 35.2031C225.207 35.1667 225.453 35.1302 225.672 35.0938C225.891 35.0391 226.064 35.0117 226.191 35.0117C226.447 35.0117 226.702 35.1393 226.957 35.3945C227.158 35.5951 227.258 35.7591 227.258 35.8867C227.258 35.9961 227.194 36.069 227.066 36.1055C226.975 36.1237 226.438 36.1602 225.453 36.2148C224.906 36.2331 224.232 36.2786 223.43 36.3516C222.628 36.4245 221.926 36.4974 221.324 36.5703C221.215 36.5885 221.06 36.6159 220.859 36.6523C220.659 36.6888 220.467 36.707 220.285 36.707ZM231.742 27.6289C231.961 27.6289 232.07 27.7292 232.07 27.9297C232.07 28.0391 231.97 28.194 231.77 28.3945C231.223 29.069 230.138 30.3542 228.516 32.25C228.388 32.4141 228.27 32.4961 228.16 32.4961C228.069 32.4961 227.868 32.3594 227.559 32.0859C227.303 31.8672 227.176 31.6849 227.176 31.5391C227.176 31.375 227.312 31.2201 227.586 31.0742C228.005 30.8372 228.634 30.3633 229.473 29.6523C230.311 28.9049 230.931 28.3125 231.332 27.875C231.496 27.7109 231.633 27.6289 231.742 27.6289ZM200.242 43.1328V43.2148C200.242 43.3789 200.197 43.5065 200.105 43.5977C200.033 43.6888 199.914 43.7344 199.75 43.7344C199.495 43.7344 199.203 43.6432 198.875 43.4609C198.565 43.2969 198.41 43.0781 198.41 42.8047V42.6406C198.447 42.276 198.465 42.0391 198.465 41.9297L198.438 41.4102L198.082 34.793C198.064 34.5195 198.018 34.237 197.945 33.9453C197.891 33.6354 197.836 33.4167 197.781 33.2891C197.635 32.9974 197.562 32.7878 197.562 32.6602C197.562 32.5508 197.626 32.4961 197.754 32.4961C197.991 32.4961 198.638 32.6875 199.695 33.0703L202.43 32.9609C203.031 32.3047 203.487 31.7578 203.797 31.3203C204.107 30.8828 204.28 30.4727 204.316 30.0898C204.353 29.7982 204.426 29.6523 204.535 29.6523C204.645 29.6523 204.818 29.7435 205.055 29.9258C205.292 30.1081 205.501 30.3177 205.684 30.5547C205.884 30.7917 205.984 30.9922 205.984 31.1562C205.984 31.2656 205.902 31.4115 205.738 31.5938C205.574 31.776 205.128 32.1953 204.398 32.8516L210.523 32.5508H210.797C211.107 32.5508 211.398 32.6693 211.672 32.9062C211.945 33.125 212.082 33.3529 212.082 33.5898C212.082 33.681 212.046 33.7904 211.973 33.918C211.9 34.0456 211.863 34.1276 211.863 34.1641L211.207 40.8359C211.626 41.401 211.836 41.8112 211.836 42.0664C211.836 42.2305 211.772 42.3307 211.645 42.3672C211.535 42.4036 211.371 42.4219 211.152 42.4219L200.215 42.6133L200.242 43.1328ZM193.57 28.8594C193.57 28.75 193.689 28.6862 193.926 28.668C194.728 28.6133 195.822 28.3216 197.207 27.793C198.592 27.2643 199.796 26.7448 200.816 26.2344C201.145 26.0703 201.4 25.9883 201.582 25.9883C201.728 25.9883 201.801 26.0339 201.801 26.125C201.801 26.362 201.327 26.8177 200.379 27.4922C199.431 28.1484 198.41 28.7682 197.316 29.3516C196.223 29.9349 195.484 30.2266 195.102 30.2266C194.81 30.2266 194.482 30.0625 194.117 29.7344C193.753 29.388 193.57 29.0964 193.57 28.8594ZM193.871 21.1758C193.871 21.0299 193.935 20.957 194.062 20.957L194.172 20.9844C194.445 21.0391 194.755 21.0664 195.102 21.0664L195.73 21.0391L202.621 20.5195H202.785C202.986 20.5195 203.214 20.6107 203.469 20.793C203.742 20.9753 203.879 21.2031 203.879 21.4766C203.879 21.5677 203.861 21.668 203.824 21.7773C203.806 21.8867 203.797 21.987 203.797 22.0781L203.578 29.1602V29.3242L203.605 30.2812C203.605 30.6276 203.487 30.9193 203.25 31.1562C203.031 31.3932 202.758 31.5117 202.43 31.5117C202.247 31.5117 202.029 31.457 201.773 31.3477C200.917 30.9466 200.16 30.5456 199.504 30.1445C198.866 29.7253 198.547 29.4062 198.547 29.1875C198.547 29.0599 198.656 28.9961 198.875 28.9961C199.076 28.9961 199.285 29.0326 199.504 29.1055C200.288 29.3607 201.081 29.543 201.883 29.6523L202.102 22.1055L196.031 22.5703C195.74 22.6068 195.521 22.625 195.375 22.625C194.883 22.625 194.509 22.4701 194.254 22.1602C193.999 21.832 193.871 21.5039 193.871 21.1758ZM195.73 23.9102C195.73 23.7279 195.803 23.5182 195.949 23.2812C196.095 23.0443 196.25 22.9258 196.414 22.9258C196.487 22.9258 196.861 23.0898 197.535 23.418C198.228 23.7461 198.857 24.0924 199.422 24.457C199.987 24.8216 200.27 25.1133 200.27 25.332C200.27 25.4779 200.169 25.6966 199.969 25.9883C199.786 26.2617 199.595 26.3984 199.395 26.3984C199.249 26.3984 199.048 26.2982 198.793 26.0977C198.1 25.5508 197.216 24.9766 196.141 24.375C195.995 24.2839 195.885 24.2109 195.812 24.1562C195.758 24.0833 195.73 24.0013 195.73 23.9102ZM199.887 37.1172L209.84 36.7344L210.031 34.1367L199.75 34.6289L199.887 37.1172ZM200.133 41.082L209.512 40.8633L209.73 38.2109L199.969 38.5938L200.133 41.082ZM204.125 28.0391C204.125 27.9479 204.216 27.8932 204.398 27.875C205.055 27.8385 206.085 27.5651 207.488 27.0547C208.91 26.5443 210.104 26.0521 211.07 25.5781C211.453 25.3776 211.763 25.2773 212 25.2773C212.146 25.2773 212.219 25.3229 212.219 25.4141C212.219 25.651 211.745 26.0977 210.797 26.7539C209.867 27.3919 208.865 28.0026 207.789 28.5859C206.714 29.1693 206.039 29.4609 205.766 29.4609C205.51 29.4609 205.255 29.3698 205 29.1875C204.763 28.987 204.553 28.7682 204.371 28.5312C204.207 28.276 204.125 28.112 204.125 28.0391ZM204.453 20.4648C204.453 20.319 204.517 20.2461 204.645 20.2461L204.754 20.2734C205.027 20.3464 205.383 20.3828 205.82 20.3828L206.449 20.3555L213.258 19.8906H213.367C213.604 19.8906 213.859 19.9544 214.133 20.082C214.406 20.1914 214.543 20.4102 214.543 20.7383C214.543 20.8477 214.525 20.9661 214.488 21.0938C214.47 21.2031 214.461 21.3125 214.461 21.4219L213.969 29.5703V30.1992C213.969 30.5456 213.951 30.8099 213.914 30.9922C213.878 31.1745 213.768 31.3568 213.586 31.5391C213.294 31.8307 213.03 31.9766 212.793 31.9766C212.574 31.9766 212.091 31.7943 211.344 31.4297C210.596 31.0469 209.913 30.6367 209.293 30.1992C208.673 29.7617 208.363 29.4336 208.363 29.2148C208.363 29.1055 208.454 29.0508 208.637 29.0508C208.801 29.0508 209.102 29.1237 209.539 29.2695C210.359 29.543 211.271 29.7799 212.273 29.9805L212.738 21.4219L206.777 21.8867C206.449 21.9232 206.176 21.9414 205.957 21.9414C205.556 21.9414 205.283 21.8685 205.137 21.7227C204.809 21.3581 204.59 20.9844 204.48 20.6016L204.453 20.4648ZM205.547 23.1992C205.547 22.9987 205.629 22.8073 205.793 22.625C205.957 22.4245 206.121 22.3242 206.285 22.3242C206.449 22.3242 206.887 22.5247 207.598 22.9258C208.327 23.3268 209.047 23.7552 209.758 24.2109C210.068 24.4115 210.223 24.6211 210.223 24.8398C210.223 25.0404 210.132 25.2773 209.949 25.5508C209.785 25.806 209.612 25.9336 209.43 25.9336C209.266 25.9336 209.083 25.8424 208.883 25.6602C208.245 25.1315 207.279 24.4935 205.984 23.7461C205.693 23.5638 205.547 23.3815 205.547 23.1992Z" fill="#333333"/>
<path d="M265.266 30.4727C265.12 30.4727 264.974 30.4453 264.828 30.3906C264.682 30.3177 264.573 30.2083 264.5 30.0625C264.445 29.8984 264.327 29.707 264.145 29.4883C263.98 29.2695 263.816 29.1055 263.652 28.9961L263.762 28.8594C263.853 28.9141 264.072 29.0234 264.418 29.1875C264.764 29.3516 265.02 29.4336 265.184 29.4336C265.439 29.4336 265.667 29.3424 265.867 29.1602C266.068 28.9779 266.323 28.6315 266.633 28.1211C266.852 27.7747 267.052 27.3646 267.234 26.8906C267.417 26.4167 267.553 25.9792 267.645 25.5781L267.672 25.5234C267.672 25.4688 267.654 25.4232 267.617 25.3867C267.581 25.332 267.544 25.3047 267.508 25.3047L266.25 25.4141C265.411 25.5599 264.536 25.6784 263.625 25.7695C263.461 25.7878 263.27 25.8333 263.051 25.9062C262.832 25.9792 262.677 26.0156 262.586 26.0156C262.44 26.0156 262.249 25.8971 262.012 25.6602C261.921 25.5872 261.829 25.4961 261.738 25.3867C261.665 25.2773 261.647 25.1862 261.684 25.1133C261.829 24.9674 261.902 24.8945 261.902 24.8945L262.039 24.7852C262.294 24.5299 262.549 24.1927 262.805 23.7734C262.987 23.5182 263.178 23.0898 263.379 22.4883C263.379 22.2878 263.424 22.1875 263.516 22.1875C263.57 22.1875 263.661 22.224 263.789 22.2969L264.227 22.5703C264.336 22.6615 264.409 22.7344 264.445 22.7891C264.482 22.8438 264.5 22.9167 264.5 23.0078C264.5 23.1172 264.427 23.2539 264.281 23.418C264.135 23.5638 264.008 23.7096 263.898 23.8555L263.27 24.7578L263.215 24.8672C263.215 24.9219 263.288 24.9492 263.434 24.9492L265.539 24.6758L266.961 24.5664L267.508 24.5117L267.809 24.457H267.891C268.073 24.457 268.273 24.612 268.492 24.9219C268.747 25.1589 268.875 25.3594 268.875 25.5234L268.738 25.8789C268.72 25.9154 268.574 26.3438 268.301 27.1641C267.973 27.9479 267.69 28.5404 267.453 28.9414C267.216 29.3424 266.961 29.6523 266.688 29.8711C266.195 30.2721 265.721 30.4727 265.266 30.4727ZM268.164 39.4414C267.891 39.4414 267.626 39.2409 267.371 38.8398C267.043 38.3294 266.724 37.9102 266.414 37.582L265.703 36.8438C265.32 37.2812 264.983 37.6276 264.691 37.8828C264.418 38.138 264.072 38.3841 263.652 38.6211C262.868 39.0768 262.212 39.3047 261.684 39.3047C261.556 39.3047 261.492 39.2591 261.492 39.168C261.492 39.1133 261.665 38.9948 262.012 38.8125C262.358 38.6302 262.686 38.4115 262.996 38.1562C263.78 37.5 264.427 36.8255 264.938 36.1328C264.828 36.0234 264.281 35.5495 263.297 34.7109C263.169 34.6198 262.978 34.4648 262.723 34.2461C262.668 34.2096 262.559 34.1276 262.395 34C262.23 33.8724 262.148 33.7812 262.148 33.7266C262.148 33.6354 262.194 33.5898 262.285 33.5898C262.559 33.5898 262.996 33.7812 263.598 34.1641C264.199 34.5286 264.828 34.9661 265.484 35.4766C265.74 35.1667 265.94 34.875 266.086 34.6016C266.232 34.3281 266.396 33.9909 266.578 33.5898C266.669 33.3893 266.724 33.2161 266.742 33.0703C266.76 32.9062 266.77 32.806 266.77 32.7695C266.77 32.569 266.824 32.4688 266.934 32.4688C267.061 32.4688 267.234 32.569 267.453 32.7695C267.836 33.1341 268.027 33.3802 268.027 33.5078C268.027 33.5807 267.982 33.6628 267.891 33.7539C267.672 33.9727 267.471 34.2643 267.289 34.6289C267.18 34.8477 266.979 35.1576 266.688 35.5586C266.596 35.668 266.523 35.7682 266.469 35.8594C266.414 35.9505 266.359 36.0326 266.305 36.1055C266.724 36.4154 267.344 36.944 268.164 37.6914C268.365 37.8737 268.492 38.0469 268.547 38.2109C268.62 38.3568 268.656 38.5573 268.656 38.8125C268.656 38.9948 268.611 39.1497 268.52 39.2773C268.428 39.3867 268.31 39.4414 268.164 39.4414ZM270.242 29.8164C270.333 29.8164 270.47 29.8802 270.652 30.0078C270.634 30.0443 270.671 30.1172 270.762 30.2266C270.853 30.3177 270.917 30.3815 270.953 30.418C271.044 30.5091 271.135 30.6185 271.227 30.7461C271.336 30.8737 271.454 31.0104 271.582 31.1562C271.91 31.5026 272.667 32.4049 273.852 33.8633C274.052 34.1549 274.152 34.3281 274.152 34.3828C274.152 34.5651 274.043 34.6562 273.824 34.6562C273.697 34.6562 273.56 34.5651 273.414 34.3828C273.068 34.0182 272.448 33.444 271.555 32.6602C270.862 32.0221 270.233 31.5299 269.668 31.1836C269.395 31.056 269.258 30.9102 269.258 30.7461C269.258 30.6185 269.395 30.4362 269.668 30.1992C269.923 29.944 270.115 29.8164 270.242 29.8164ZM256.078 34.4102C256.078 34.8294 255.932 35.1302 255.641 35.3125C255.367 35.4948 255.139 35.5859 254.957 35.5859C254.72 35.5859 254.319 35.4674 253.754 35.2305C253.207 34.9935 252.697 34.7292 252.223 34.4375C251.767 34.1458 251.539 33.9362 251.539 33.8086C251.539 33.681 251.658 33.6172 251.895 33.6172C252.022 33.6172 252.195 33.6445 252.414 33.6992C252.997 33.8268 253.717 33.9362 254.574 34.0273L254.602 32.9883L250.418 33.207V35.3125C250.418 35.6771 250.29 35.8594 250.035 35.8594C249.853 35.8594 249.598 35.7591 249.27 35.5586C248.941 35.3581 248.777 35.1576 248.777 34.957C248.777 34.8294 248.786 34.7292 248.805 34.6562C248.914 34 248.969 33.5443 248.969 33.2891L245.25 33.5078L245.305 35.2578V35.3672C245.305 35.6589 245.195 35.8047 244.977 35.8047C244.904 35.7865 244.758 35.7409 244.539 35.668C244.32 35.5951 244.111 35.4857 243.91 35.3398C243.728 35.194 243.637 35.0208 243.637 34.8203C243.637 34.7109 243.646 34.6289 243.664 34.5742C243.719 34.3008 243.746 33.8815 243.746 33.3164L243.691 30.0352C243.691 29.4336 243.573 28.9414 243.336 28.5586C243.227 28.3581 243.172 28.2031 243.172 28.0938C243.172 28.0026 243.254 27.957 243.418 27.957C243.673 27.957 244.257 28.112 245.168 28.4219L248.941 28.2031V27.3555L244.484 27.5742L243.801 27.6016C243.382 27.6016 243.053 27.4648 242.816 27.1914C242.579 26.918 242.461 26.6628 242.461 26.4258C242.461 26.3529 242.507 26.3164 242.598 26.3164H242.68C243.044 26.3893 243.409 26.4258 243.773 26.4258H244.102L248.941 26.1797V25.7969C248.941 25.2865 248.85 24.8398 248.668 24.457C248.632 24.3477 248.613 24.2839 248.613 24.2656C248.613 24.1562 248.686 24.1016 248.832 24.1016C249.087 24.1016 249.415 24.1745 249.816 24.3203C250.217 24.4661 250.418 24.7214 250.418 25.0859V26.0977L254.355 25.9062C254.829 25.888 255.23 25.8151 255.559 25.6875C255.668 25.651 255.75 25.6328 255.805 25.6328C256.06 25.6328 256.315 25.7604 256.57 26.0156C256.844 26.2708 256.98 26.4714 256.98 26.6172C256.98 26.8177 256.807 26.9362 256.461 26.9727L250.418 27.2734V28.1211L254.93 27.875L255.23 27.8477C255.559 27.8477 255.823 27.957 256.023 28.1758C256.242 28.3763 256.352 28.5768 256.352 28.7773C256.352 28.8685 256.324 28.9688 256.27 29.0781C256.233 29.1693 256.215 29.2422 256.215 29.2969L256.051 33.6992V33.8086L256.078 34.4102ZM235.078 26.0703C235.078 25.888 235.242 25.6602 235.57 25.3867C236.445 24.6029 237.257 23.7552 238.004 22.8438C238.77 21.9141 239.398 21.0208 239.891 20.1641C240.036 19.9271 240.146 19.5898 240.219 19.1523C240.237 18.9701 240.328 18.8789 240.492 18.8789C240.693 18.8789 240.993 19.043 241.395 19.3711C241.741 19.6628 241.914 19.8906 241.914 20.0547C241.914 20.1276 241.796 20.3372 241.559 20.6836C241.322 21.0117 241.057 21.3398 240.766 21.668L245.195 21.3672C245.469 21.349 245.779 21.2852 246.125 21.1758C246.271 21.1211 246.408 21.0938 246.535 21.0938C246.717 21.0938 246.964 21.2214 247.273 21.4766C247.583 21.7135 247.738 21.9232 247.738 22.1055C247.738 22.3242 247.52 22.4518 247.082 22.4883L242.625 22.7617C243.5 23.4727 244.029 23.9193 244.211 24.1016C244.411 24.2839 244.512 24.4661 244.512 24.6484C244.512 24.776 244.411 24.9583 244.211 25.1953C244.01 25.4323 243.828 25.5508 243.664 25.5508C243.518 25.5508 243.363 25.4505 243.199 25.25C242.871 24.849 242.342 24.3021 241.613 23.6094C241.486 23.5 241.422 23.3815 241.422 23.2539C241.422 23.1263 241.495 22.9805 241.641 22.8164L239.645 22.9531C238.514 24.138 237.275 25.1497 235.926 25.9883L235.789 26.0703C235.552 26.1797 235.379 26.2344 235.27 26.2344C235.142 26.2344 235.078 26.1797 235.078 26.0703ZM235.27 41.3008C235.27 41.2096 235.342 41.1367 235.488 41.082C235.798 40.9544 236.035 40.8359 236.199 40.7266C236.363 40.599 236.536 40.4349 236.719 40.2344C237.995 38.7943 239.371 36.9258 240.848 34.6289C241.176 34.1185 241.431 33.8633 241.613 33.8633C241.704 33.8633 241.75 33.9544 241.75 34.1367C241.75 34.319 241.668 34.6198 241.504 35.0391C240.939 36.3333 240.374 37.4909 239.809 38.5117C239.262 39.5143 238.633 40.5443 237.922 41.6016C237.74 41.8568 237.576 42.0482 237.43 42.1758C237.302 42.3216 237.147 42.3945 236.965 42.3945L236.801 42.3672C236.454 42.2943 236.108 42.1393 235.762 41.9023C235.434 41.6654 235.27 41.4648 235.27 41.3008ZM235.598 30.2539C235.598 30.0534 235.689 29.8529 235.871 29.6523C236.053 29.4336 236.199 29.3242 236.309 29.3242C236.491 29.3242 237.01 29.5794 237.867 30.0898C238.724 30.6003 239.508 31.1016 240.219 31.5938C240.492 31.776 240.629 31.9766 240.629 32.1953C240.629 32.3776 240.529 32.6146 240.328 32.9062C240.146 33.1797 239.964 33.3164 239.781 33.3164C239.635 33.3164 239.462 33.2253 239.262 33.043C238.259 32.168 237.174 31.3932 236.008 30.7188C235.734 30.5729 235.598 30.418 235.598 30.2539ZM237.293 26.125C237.293 25.9974 237.366 25.8333 237.512 25.6328C237.676 25.4323 237.849 25.332 238.031 25.332C238.414 25.332 239.663 26.0885 241.777 27.6016C242.051 27.7839 242.188 27.9753 242.188 28.1758C242.188 28.3034 242.105 28.513 241.941 28.8047C241.777 29.0781 241.586 29.2148 241.367 29.2148C241.203 29.2148 241.021 29.1237 240.82 28.9414C239.69 27.9753 238.66 27.2096 237.73 26.6445C237.585 26.5352 237.475 26.444 237.402 26.3711C237.329 26.2982 237.293 26.2161 237.293 26.125ZM241.367 36.7891C241.367 36.6979 241.413 36.6523 241.504 36.6523C241.577 36.6523 241.632 36.6615 241.668 36.6797C242.069 36.7708 242.424 36.8164 242.734 36.8164H242.953L251.977 36.4883V36.3516C251.977 36.1146 251.958 35.9323 251.922 35.8047C251.885 35.6771 251.812 35.4948 251.703 35.2578C251.667 35.1849 251.648 35.1302 251.648 35.0938C251.648 34.9844 251.74 34.9297 251.922 34.9297C252.232 34.9297 252.578 35.0208 252.961 35.2031C253.344 35.3672 253.535 35.5859 253.535 35.8594V36.4336L256.27 36.3516C256.78 36.3151 257.181 36.2422 257.473 36.1328C257.582 36.0964 257.673 36.0781 257.746 36.0781C257.855 36.0781 258.02 36.1328 258.238 36.2422C258.475 36.3516 258.685 36.4883 258.867 36.6523C259.049 36.8164 259.141 36.9896 259.141 37.1719C259.141 37.4089 258.94 37.5456 258.539 37.582L253.562 37.7734L253.59 41.2734C253.59 41.4922 253.599 41.6836 253.617 41.8477C253.654 42.0299 253.672 42.2031 253.672 42.3672C253.672 42.8047 253.526 43.1237 253.234 43.3242C252.943 43.543 252.688 43.6523 252.469 43.6523C252.268 43.6523 251.858 43.4883 251.238 43.1602C250.637 42.832 250.062 42.4857 249.516 42.1211C248.987 41.7565 248.723 41.5104 248.723 41.3828C248.723 41.2552 248.823 41.1914 249.023 41.1914C249.169 41.1914 249.333 41.2188 249.516 41.2734C250.336 41.5104 251.174 41.6745 252.031 41.7656L252.004 37.8281L243.281 38.1289L242.652 38.1562C242.415 38.1562 242.197 38.0651 241.996 37.8828C241.814 37.7005 241.659 37.5 241.531 37.2812C241.422 37.0443 241.367 36.8802 241.367 36.7891ZM245.113 30.4727L248.969 30.2539V29.3516L245.086 29.5703L245.113 30.4727ZM245.195 32.4688L248.969 32.25V31.3203L245.168 31.5117L245.195 32.4688ZM245.332 39.0039C245.332 38.931 245.378 38.7852 245.469 38.5664C245.56 38.4206 245.633 38.3203 245.688 38.2656C245.76 38.1927 245.842 38.1562 245.934 38.1562C246.007 38.1562 246.344 38.2747 246.945 38.5117C247.565 38.7305 248.121 38.9766 248.613 39.25C249.124 39.5234 249.379 39.7513 249.379 39.9336C249.379 40.0247 249.306 40.207 249.16 40.4805C249.033 40.7539 248.878 40.8906 248.695 40.8906C248.586 40.8906 248.422 40.8268 248.203 40.6992C247.565 40.3164 246.708 39.8789 245.633 39.3867C245.432 39.2956 245.332 39.168 245.332 39.0039ZM245.441 25.4414C245.441 25.2956 245.578 25.0768 245.852 24.7852C246.854 23.7279 247.747 22.6068 248.531 21.4219C249.315 20.2188 249.707 19.3711 249.707 18.8789C249.707 18.6602 249.798 18.5508 249.98 18.5508C250.217 18.5508 250.509 18.7057 250.855 19.0156C251.22 19.3255 251.402 19.5716 251.402 19.7539C251.402 19.8451 251.375 19.918 251.32 19.9727C251.102 20.3372 250.837 20.7201 250.527 21.1211L255.777 20.793C256.105 20.7565 256.406 20.6927 256.68 20.6016C256.789 20.5651 256.862 20.5469 256.898 20.5469C257.117 20.5469 257.372 20.6836 257.664 20.957C257.956 21.2305 258.102 21.4401 258.102 21.5859C258.102 21.7865 257.919 21.9049 257.555 21.9414L253.152 22.2148C253.754 22.5612 254.255 22.8984 254.656 23.2266C255.076 23.5547 255.285 23.8099 255.285 23.9922C255.285 24.0833 255.194 24.2565 255.012 24.5117C254.848 24.7669 254.674 24.8945 254.492 24.8945C254.383 24.8945 254.246 24.8125 254.082 24.6484C253.48 24.0469 252.779 23.4909 251.977 22.9805C251.776 22.8529 251.676 22.7161 251.676 22.5703C251.676 22.4974 251.703 22.4062 251.758 22.2969L249.461 22.4336C248.732 23.2539 247.957 23.9831 247.137 24.6211C246.335 25.2591 245.824 25.5781 245.605 25.5781C245.496 25.5781 245.441 25.5326 245.441 25.4414ZM254.629 31.9492L254.656 31.0195L250.418 31.2383V32.168L254.629 31.9492ZM254.684 29.9531L254.711 29.0234L250.418 29.2695V30.1992L254.684 29.9531ZM250.691 24.1562C250.691 24.0469 250.755 23.901 250.883 23.7188C251.029 23.5 251.165 23.3906 251.293 23.3906C251.457 23.3906 251.867 23.6185 252.523 24.0742C253.198 24.5299 253.535 24.8398 253.535 25.0039C253.535 25.0951 253.462 25.2591 253.316 25.4961C253.171 25.7148 253.007 25.8242 252.824 25.8242C252.733 25.8242 252.596 25.7513 252.414 25.6055C252.086 25.2956 251.603 24.931 250.965 24.5117C250.783 24.4023 250.691 24.2839 250.691 24.1562Z" fill="#333333"/>
</svg>
