<svg width="214" height="33" viewBox="0 0 214 33" fill="none" xmlns="http://www.w3.org/2000/svg">
<path d="M43.1211 11.6836C42.957 11.6836 42.7812 11.5781 42.5938 11.3672C42.4531 11.2031 42.3594 11.0742 42.3125 10.9805C42.2656 10.8633 42.2656 10.7109 42.3125 10.5234L42.3477 9.67969C42.3711 9.51563 42.3828 9.11719 42.3828 8.48438V7.32422L41.3281 7.81641L40.0977 8.34375C39.793 8.46094 39.4766 8.60156 39.1484 8.76562C38.8672 8.90625 38.6211 8.97656 38.4102 8.97656C38.2461 8.95313 38.0586 8.89453 37.8477 8.80078C37.6367 8.70703 37.4727 8.625 37.3555 8.55469C37.0977 8.39063 36.9805 8.21484 37.0039 8.02734L37.1094 7.67578C37.1094 7.48828 37.1211 7.32422 37.1445 7.18359L37.1797 5.14453V3.24609C37.1797 2.87109 37.1562 2.55469 37.1094 2.29688C37.0625 2.01562 37.0273 1.81641 37.0039 1.69922C37.0039 1.58203 37.0391 1.5 37.1094 1.45312C37.1328 1.42969 37.1914 1.41797 37.2852 1.41797C37.4492 1.41797 37.7656 1.52344 38.2344 1.73438C38.6328 1.92188 38.7969 2.15625 38.7266 2.4375C38.6797 2.60156 38.6328 2.84766 38.5859 3.17578L38.4805 7.21875C38.4805 7.33594 38.4922 7.42969 38.5156 7.5C38.5625 7.54688 38.6094 7.57031 38.6562 7.57031C38.9375 7.57031 39.2773 7.48828 39.6758 7.32422C40.4258 7.08984 41.0703 6.85547 41.6094 6.62109L42.3828 6.30469V3.98438C42.3828 3.04688 42.3242 2.14453 42.207 1.27734C42.1836 1.20703 42.1719 1.125 42.1719 1.03125C42.1719 0.796875 42.2656 0.679688 42.4531 0.679688C42.4766 0.679688 42.6055 0.726563 42.8398 0.820312C43.1914 1.00781 43.4492 1.17188 43.6133 1.3125C43.7773 1.45312 43.8711 1.53516 43.8945 1.55859C43.9883 1.62891 44.0352 1.69922 44.0352 1.76953C44.0352 1.81641 44.0117 1.875 43.9648 1.94531C43.9414 2.01562 43.918 2.07422 43.8945 2.12109L43.7891 3.17578L43.7539 6.41016L43.7891 9.53906C43.7891 10.0781 43.7539 10.5469 43.6836 10.9453C43.5664 11.4375 43.3789 11.6836 43.1211 11.6836ZM36.6523 17.4492C36.3945 17.4492 36.0781 17.25 35.7031 16.8516C35.4219 16.5703 35.2812 16.3594 35.2812 16.2188C35.2812 16.1484 35.3281 16.1133 35.4219 16.1133C35.5156 16.0898 35.6328 16.0781 35.7734 16.0781L36.5469 16.043C36.9922 16.043 37.2852 16.0312 37.4258 16.0078C37.8711 16.0078 38.2461 15.9961 38.5508 15.9727C40.5664 15.7852 41.9258 15.6328 42.6289 15.5156C42.9805 15.4688 43.2969 15.4219 43.5781 15.375C43.8594 15.3047 44.082 15.2695 44.2461 15.2695C44.5742 15.2695 44.9023 15.4336 45.2305 15.7617C45.4883 16.0195 45.6172 16.2305 45.6172 16.3945C45.6172 16.5352 45.5352 16.6289 45.3711 16.6758C45.2539 16.6992 44.5625 16.7461 43.2969 16.8164C42.5938 16.8398 41.7266 16.8984 40.6953 16.9922C39.6641 17.0859 38.7617 17.1797 37.9883 17.2734C37.8477 17.2969 37.6484 17.332 37.3906 17.3789C37.1328 17.4258 36.8867 17.4492 36.6523 17.4492ZM44.2109 29.5781C44.2578 29.6719 44.3398 29.8125 44.457 30C44.5742 30.1875 44.6328 30.4102 44.6328 30.668C44.6328 30.9023 44.5391 31.0898 44.3516 31.2305C44.1641 31.3945 43.9531 31.4766 43.7188 31.4766C43.5078 31.4766 43.332 31.2656 43.1914 30.8438C43.1211 30.6797 43.0625 30.5391 43.0156 30.4219C42.9922 30.3281 42.9688 30.2461 42.9453 30.1758C42.6406 30.2695 42.2422 30.3516 41.75 30.4219C41.2578 30.4922 40.9062 30.5508 40.6953 30.5977C39.5703 30.8086 38.7969 30.9609 38.375 31.0547C38.2109 31.1016 38.0352 31.1484 37.8477 31.1953C37.6602 31.2656 37.5547 31.3125 37.5312 31.3359C37.3906 31.3828 37.2852 31.4062 37.2148 31.4062C37.0273 31.4062 36.8516 31.3242 36.6875 31.1602C36.4062 30.9492 36.1953 30.668 36.0547 30.3164C36.0312 30.293 36.0195 30.2578 36.0195 30.2109C36.0195 30.1641 36.0781 30.1055 36.1953 30.0352C36.3359 29.9648 36.4414 29.918 36.5117 29.8945C36.8164 29.7305 37.3555 29.2383 38.1289 28.418L39.0781 27.5039L37.0039 26.3789C36.7695 26.3086 36.6172 26.2266 36.5469 26.1328C36.4766 26.0391 36.4414 25.8984 36.4414 25.7109C36.4414 25.5703 36.4648 25.4766 36.5117 25.4297C36.582 25.3594 36.7227 25.2539 36.9336 25.1133C37.1445 24.9727 37.3555 24.7852 37.5664 24.5508C37.6836 24.4102 37.8359 24.2578 38.0234 24.0938C38.2109 23.9297 38.3867 23.7539 38.5508 23.5664C39.2539 22.7461 39.6992 22.1016 39.8867 21.6328C40.0039 21.3984 40.0977 21.2812 40.168 21.2812C40.2148 21.2812 40.3086 21.3281 40.4492 21.4219C40.8945 21.75 41.1641 22.0547 41.2578 22.3359V22.4414C41.2578 22.5586 41.1992 22.6523 41.082 22.7227C40.9648 22.793 40.8828 22.8516 40.8359 22.8984C40.7656 22.9453 40.4141 23.2852 39.7812 23.918L39.1484 24.5508C39.0312 24.668 38.832 24.8672 38.5508 25.1484C38.2695 25.4062 38.1289 25.5586 38.1289 25.6055C38.1289 25.6758 38.1641 25.7344 38.2344 25.7812C38.3281 25.8281 38.3984 25.875 38.4453 25.9219L39.9219 26.625C40.8359 25.7109 41.3633 25.1719 41.5039 25.0078C42.1133 24.3047 42.4531 23.8594 42.5234 23.6719C42.5469 23.6484 42.582 23.5898 42.6289 23.4961C42.6758 23.4023 42.7227 23.3555 42.7695 23.3555C42.8398 23.3555 42.9102 23.3906 42.9805 23.4609C43.3555 23.8125 43.625 24.1406 43.7891 24.4453C43.8359 24.5391 43.8594 24.5977 43.8594 24.6211C43.8594 24.668 43.8008 24.7383 43.6836 24.832C43.5898 24.9023 43.4961 24.9727 43.4023 25.043C42.582 25.7227 41.6211 26.6133 40.5195 27.7148L38.375 29.7188C38.3281 29.7656 38.3047 29.8125 38.3047 29.8594C38.3047 29.9062 38.3281 29.9414 38.375 29.9648C38.4219 29.9883 38.4922 29.9883 38.5859 29.9648L42.6992 29.2617C42.582 28.793 42.4414 28.3242 42.2773 27.8555V27.7852C42.2773 27.7148 42.3125 27.6797 42.3828 27.6797C42.4766 27.6797 42.6172 27.75 42.8047 27.8906C43.1797 28.2188 43.6484 28.7812 44.2109 29.5781ZM46.8828 18.7852C47 18.7852 47.1758 18.8672 47.4102 19.0312C47.3867 19.0781 47.4336 19.1719 47.5508 19.3125C47.668 19.4297 47.75 19.5117 47.7969 19.5586C47.9141 19.6758 48.0312 19.8164 48.1484 19.9805C48.2891 20.1445 48.4414 20.3203 48.6055 20.5078C49.0273 20.9531 50 22.1133 51.5234 23.9883C51.7812 24.3633 51.9102 24.5859 51.9102 24.6562C51.9102 24.8906 51.7695 25.0078 51.4883 25.0078C51.3242 25.0078 51.1484 24.8906 50.9609 24.6562C50.5156 24.1875 49.7188 23.4492 48.5703 22.4414C47.6797 21.6211 46.8711 20.9883 46.1445 20.543C45.793 20.3789 45.6172 20.1914 45.6172 19.9805C45.6172 19.8164 45.793 19.582 46.1445 19.2773C46.4727 18.9492 46.7188 18.7852 46.8828 18.7852ZM10.1445 12.7383L10.1797 11.332L10.1445 9.25781C9.72266 9.28125 9.27734 9.31641 8.80859 9.36328C8.50391 9.38672 8.23438 9.39844 8 9.39844C7.4375 9.39844 6.98047 9.31641 6.62891 9.15234C6.25391 9.01172 6.04297 8.78906 5.99609 8.48438C6.08984 8.32031 6.23047 8.21484 6.41797 8.16797L7.26172 8.09766L9.01953 7.88672L10.2852 7.5C10.2852 7.17187 10.2617 6.71484 10.2148 6.12891C10.1914 5.56641 10.168 5.14453 10.1445 4.86328C10.0977 4.58203 10.0273 4.26562 9.93359 3.91406C9.83984 3.5625 9.76953 3.31641 9.72266 3.17578L9.44141 2.68359L9.30078 2.22656C9.37109 2.0625 9.54688 1.95703 9.82812 1.91016C10.0625 1.91016 10.2969 1.93359 10.5312 1.98047C10.8359 2.07422 11.1289 2.17969 11.4102 2.29688C11.6914 2.4375 11.9492 2.61328 12.1836 2.82422L12.5703 3.38672C12.5703 3.57422 12.5117 3.78516 12.3945 4.01953C12.3008 4.25391 12.2305 4.58203 12.1836 5.00391L12.043 6.05859L12.0078 6.51562L11.9727 7.32422C12.3477 7.23047 12.6758 7.13672 12.957 7.04297C13.1914 6.97266 13.4258 6.9375 13.6602 6.9375L14.0117 7.00781C14.2227 7.07812 14.4688 7.20703 14.75 7.39453L15.207 7.81641C15.207 7.98047 15.0898 8.12109 14.8555 8.23828C14.6211 8.35547 14.2227 8.47266 13.6602 8.58984L11.9727 8.90625L11.9023 10.7344L11.832 12.3867L13.0273 12.1758C13.4023 11.7305 13.6953 11.3672 13.9062 11.0859C14.0938 10.8281 14.3281 10.4414 14.6094 9.92578C14.8672 9.43359 15.0781 9.01172 15.2422 8.66016C15.3828 8.28516 15.4648 7.94531 15.4883 7.64062C15.5352 7.33594 15.5586 7.08984 15.5586 6.90234V6.41016L15.6289 6.09375C15.7461 5.97656 15.9336 5.91797 16.1914 5.91797C16.3789 5.96484 16.5898 6.05859 16.8242 6.19922C17.0352 6.36328 17.2695 6.5625 17.5273 6.79688C17.8086 7.03125 18.0195 7.25391 18.1602 7.46484L18.3711 7.88672C18.3711 8.07422 18.3242 8.23828 18.2305 8.37891L17.7383 8.87109L16.8945 10.0664L15.6992 11.6836C16.332 11.5664 16.8477 11.5078 17.2461 11.5078C17.668 11.5312 18.0898 11.6016 18.5117 11.7188C18.9336 11.8359 19.1797 12.0469 19.25 12.3516L19.2148 12.7031C19.0977 12.8672 18.8633 12.9492 18.5117 12.9492C18.0898 12.9492 17.4805 12.9961 16.6836 13.0898L14.3984 13.3711C13.2266 14.7305 12.4883 15.5625 12.1836 15.8672L10.707 17.3438C11.1289 17.2734 11.4922 17.2031 11.7969 17.1328C12.1016 17.0625 12.4531 16.9336 12.8516 16.7461C13.2266 16.5586 13.6016 16.4414 13.9766 16.3945C14.3047 16.3945 14.6211 16.4648 14.9258 16.6055L15.8398 17.0625C16.543 17.4141 16.8945 17.707 16.8945 17.9414L16.8594 18.293L15.875 18.7852L14.3633 19.7344L12.6758 21.0352L12.957 21.5273V22.793L16.3672 21.8086L16.7188 21.9844C16.7422 22.125 16.6602 22.2305 16.4727 22.3008L12.957 23.918L12.8867 28.6289C12.8867 29.2383 12.8398 29.7773 12.7461 30.2461C12.6758 30.6914 12.5352 31.0898 12.3242 31.4414C12.1133 31.7695 11.8555 32.0273 11.5508 32.2148L10.9883 32.4258C10.8242 32.4023 10.6484 32.1914 10.4609 31.793C10.2969 31.3711 10.0977 31.0312 9.86328 30.7734L9.16016 30.0352C8.92578 29.8008 8.73828 29.625 8.59766 29.5078L8.07031 29.0156L8.31641 28.8398L8.80859 28.9453L9.58203 29.2617C9.81641 29.332 10.0273 29.3672 10.2148 29.3672L10.5312 29.332C10.7891 29.1914 10.9883 28.9453 11.1289 28.5938C11.2695 28.2422 11.3398 27.8203 11.3398 27.3281L11.375 24.6211L7.05078 26.625L6.3125 27.1523H5.99609C5.80859 27.1055 5.59766 26.9883 5.36328 26.8008C5.12891 26.6133 4.88281 26.4023 4.625 26.168C4.34375 25.9336 4.26172 25.6289 4.37891 25.2539C4.66016 25.2305 5.01172 25.1836 5.43359 25.1133L6.20703 24.9375L11.375 23.3555L11.3398 22.3711C11.3398 22.1133 11.2812 21.8672 11.1641 21.6328C11.0469 21.375 10.8828 21.1641 10.6719 21L10.4961 20.5781L10.7773 20.4023C10.9883 20.4023 11.1875 20.4258 11.375 20.4727L12.0078 20.543L13.168 18.7148C13.3555 18.4336 13.4375 18.1875 13.4141 17.9766C13.3438 17.8359 13.2031 17.7539 12.9922 17.7305C12.8281 17.707 12.6172 17.7539 12.3594 17.8711L11.6211 18.1172L10.9883 18.3633L10.2852 18.7148L9.93359 18.8203L9.37109 18.5742L8.17578 19.5586C7.73047 19.8867 6.94531 20.3906 5.82031 21.0703C4.67188 21.75 3.74609 22.2539 3.04297 22.582C2.33984 22.8867 1.80078 23.0742 1.42578 23.1445L0.40625 23.0742L1.00391 22.6523L2.12891 22.0195C2.97266 21.5508 3.89844 20.9297 4.90625 20.1562C5.91406 19.3828 6.93359 18.5273 7.96484 17.5898C8.99609 16.6992 9.65234 16.0781 9.93359 15.7266L11.7266 13.7578C10.4844 13.9688 9.57031 14.1328 8.98438 14.25L6.83984 14.7773C6.13672 14.9648 5.63281 15.1055 5.32812 15.1992C5.02344 15.293 4.77734 15.3398 4.58984 15.3398C4.40234 15.3398 4.13281 15.293 3.78125 15.1992C3.42969 15.082 3.06641 14.918 2.69141 14.707C2.41016 14.5195 2.29297 14.2852 2.33984 14.0039C2.50391 13.9102 2.78516 13.8281 3.18359 13.7578L3.85156 13.6523C5.14062 13.5117 6.04297 13.3945 6.55859 13.3008C7.07422 13.2539 7.625 13.1719 8.21094 13.0547L9.125 12.9141L10.1445 12.7383ZM21.8867 13.3008L23.0117 13.0547C23.293 12.9844 23.9141 12.8086 24.875 12.5273C25.8359 12.2461 26.5859 11.9883 27.125 11.7539C27.6641 11.543 28.0508 11.4141 28.2852 11.3672C28.5195 11.2969 28.7773 11.2617 29.0586 11.2617C29.457 11.2617 29.9609 11.3555 30.5703 11.543C31.1797 11.7305 31.4844 11.9297 31.4844 12.1406L31.3789 12.4219C31.2383 12.5859 31.0039 12.6797 30.6758 12.7031C30.3477 12.7266 29.7852 12.8203 28.9883 12.9844C28.2148 13.1484 27.7578 13.2539 27.6172 13.3008L25.0508 13.793C25.4727 14.0508 25.7891 14.2617 26 14.4258C26.2109 14.6133 26.3633 14.7773 26.457 14.918L26.6328 15.5508L26.3164 16.5C26.2461 16.6641 26.1875 16.8633 26.1406 17.0977C26.1172 17.332 25.9648 18.1406 25.6836 19.5234C25.4023 20.9062 25.2383 21.6797 25.1914 21.8438L24.5586 23.4961C25.168 24.1992 25.7188 24.7852 26.2109 25.2539C26.7031 25.7227 27.3711 26.2383 28.2148 26.8008C29.0586 27.3633 29.8555 27.8203 30.6055 28.1719C31.3086 28.5234 32.0703 28.8398 32.8906 29.1211L33.7695 29.6836L33.7344 29.9297L33.0664 30.1055C32.8789 30.1992 32.4453 30.2695 31.7656 30.3164C31.1094 30.3633 30.6758 30.3984 30.4648 30.4219H29.6211C28.7305 30.4219 28.0508 30.3164 27.582 30.1055C27.1367 29.918 26.7734 29.6484 26.4922 29.2969C26.1875 28.9453 25.8945 28.5352 25.6133 28.0664L23.6445 25.1484C23.1523 25.7109 22.6836 26.2148 22.2383 26.6602C21.7695 27.1055 21.1836 27.5508 20.4805 27.9961C19.7305 28.418 19.0273 28.6875 18.3711 28.8047C17.7148 28.9219 17.0938 28.9922 16.5078 29.0156L15.6992 28.6992L16.3672 28.4531C17 28.2422 17.5273 28.043 17.9492 27.8555C18.3711 27.668 18.9336 27.3047 19.6367 26.7656C20.3398 26.2266 20.8789 25.7344 21.2539 25.2891C21.6523 24.8438 21.957 24.4336 22.168 24.0586L22.6602 23.25L21.9922 22.0898C21.8516 21.8789 21.5703 21.4805 21.1484 20.8945C20.75 20.2852 20.457 19.875 20.2695 19.6641C20.082 19.4531 19.8711 19.2891 19.6367 19.1719L19.1797 18.6797C19.2734 18.5391 19.4258 18.4688 19.6367 18.4688C20.0117 18.4922 20.2695 18.5156 20.4102 18.5391C20.5508 18.5625 20.7617 18.668 21.043 18.8555C21.3477 19.0664 21.6289 19.3594 21.8867 19.7344L23.3633 21.8086C23.5273 21.4102 23.668 21.0469 23.7852 20.7188C23.8789 20.3672 23.9727 19.793 24.0664 18.9961C24.1602 18.1992 24.2305 17.4375 24.2773 16.7109C24.3242 16.2656 24.3477 15.9258 24.3477 15.6914L24.3125 15.4102L24.0664 14.0039C23.6445 14.1445 23.3164 14.2617 23.082 14.3555C22.8242 14.4258 22.5195 14.4844 22.168 14.5312H21.6758L21.1836 14.3906L20.375 15.4102C20.0703 15.8086 19.6953 16.2305 19.25 16.6758C18.8281 17.1445 18.4883 17.4609 18.2305 17.625L17.2109 17.9062L17.5977 17.3438C17.8789 16.9688 18.2422 16.4062 18.6875 15.6562C19.1562 14.9297 19.5664 14.2617 19.918 13.6523C20.2461 13.0664 20.5977 12.3867 20.9727 11.6133L22.168 8.625C22.6367 7.42969 22.9648 6.53906 23.1523 5.95312C23.3398 5.36719 23.457 4.85156 23.5039 4.40625C23.5742 4.10156 23.5977 3.67969 23.5742 3.14062L23.75 2.50781H24.0312C24.4062 2.57812 24.793 2.73047 25.1914 2.96484C25.6133 3.24609 25.918 3.52734 26.1055 3.80859C26.2695 4.01953 26.3398 4.25391 26.3164 4.51172C26.2695 4.65234 26.1523 4.82812 25.9648 5.03906C25.7773 5.25 25.5781 5.61328 25.3672 6.12891L23.7852 9.78516C23.457 10.5352 22.9883 11.4375 22.3789 12.4922L21.8867 13.3008ZM99.1602 7.74609C99.4648 8.00391 99.6172 8.19141 99.6172 8.30859C99.6172 8.51953 99.3242 8.61328 98.7383 8.58984H98C97.3438 8.58984 95.9492 8.67188 93.8164 8.83594C93.7695 9.14062 93.7109 9.45703 93.6406 9.78516C93.5703 10.0898 93.5234 10.3242 93.5 10.4883V10.7695C93.5 10.793 93.5 10.8164 93.5 10.8398C93.5 10.8633 93.5 10.8867 93.5 10.9102C93.6172 10.9102 93.6992 10.8984 93.7461 10.875C93.8633 10.8516 94.1328 10.8164 94.5547 10.7695C95 10.6992 95.4453 10.6289 95.8906 10.5586C96.0312 10.5352 96.1719 10.5 96.3125 10.4531C96.4531 10.3828 96.5703 10.3477 96.6641 10.3477C96.9219 10.3477 97.2383 10.5117 97.6133 10.8398C97.8711 11.0508 98 11.2148 98 11.332C98 11.5898 97.8477 11.9766 97.543 12.4922C97.0508 13.3594 96.5234 14.0742 95.9609 14.6367C95.2812 15.3164 94.5781 15.7617 93.8516 15.9727C93.7578 15.9961 93.6523 16.0078 93.5352 16.0078C93.4414 16.0078 93.3945 15.9844 93.3945 15.9375C93.3945 15.8672 93.5586 15.6797 93.8867 15.375C94.7539 14.625 95.4805 13.7461 96.0664 12.7383C96.3945 12.1523 96.5586 11.8008 96.5586 11.6836C96.5586 11.5898 96.5 11.543 96.3828 11.543C96.2891 11.543 96.2305 11.543 96.207 11.543L95.293 11.6484C94.3789 11.7891 93.8047 11.8945 93.5703 11.9648C93.2891 12.1055 93.0664 12.1758 92.9023 12.1758C92.7383 12.1758 92.5273 12.0469 92.2695 11.7891C92.2461 11.7656 92.1875 11.7188 92.0938 11.6484C92.0234 11.5781 91.9883 11.4727 91.9883 11.332C91.9883 11.2617 92.0352 11.1562 92.1289 11.0156C92.2227 10.8281 92.293 10.5938 92.3398 10.3125C92.3867 10.0312 92.4102 9.85547 92.4102 9.78516L92.5508 8.97656C92.1523 9.02344 91.5195 9.12891 90.6523 9.29297C90.418 9.33984 90.2539 9.36328 90.1602 9.36328C89.9961 9.36328 89.8086 9.29297 89.5977 9.15234C89.1523 8.84766 88.9297 8.64844 88.9297 8.55469C88.9297 8.39063 89.1406 8.29687 89.5625 8.27344L90.793 8.16797L92.7617 7.95703C92.8789 7.01953 92.9375 6.44531 92.9375 6.23438L92.9727 5.49609C93.0195 5.09766 93.1133 4.89844 93.2539 4.89844C93.3711 4.89844 93.5117 4.94531 93.6758 5.03906C93.9805 5.20312 94.2031 5.37891 94.3438 5.56641C94.5078 5.73047 94.5664 5.87109 94.5195 5.98828L94.2734 6.72656C94.2031 6.86719 94.1094 7.23047 93.9922 7.81641L97.0508 7.53516C97.3086 7.51172 97.6133 7.44141 97.9648 7.32422L98.2461 7.28906C98.4805 7.28906 98.6797 7.35938 98.8438 7.5C99.0078 7.61719 99.1133 7.69922 99.1602 7.74609ZM95.1523 27.6445C95.1523 27.6211 95.2109 27.5391 95.3281 27.3984C95.4688 27.2344 95.6211 27.0352 95.7852 26.8008C96.0664 26.4023 96.3477 25.8164 96.6289 25.043C96.9102 24.2695 97.0625 23.5547 97.0859 22.8984C97.0859 22.8516 97.0625 22.8047 97.0156 22.7578C96.9922 22.6875 96.9336 22.6523 96.8398 22.6523L96.0312 22.7227L94.8359 22.8281C94.5781 23.6719 94.1328 24.5859 93.5 25.5703C93.2188 26.0156 92.832 26.4141 92.3398 26.7656C91.8711 27.0938 91.4141 27.3281 90.9688 27.4688C90.8281 27.5156 90.6523 27.5391 90.4414 27.5391C90.2773 27.5156 90.1953 27.4688 90.1953 27.3984C90.1953 27.3047 90.2773 27.2227 90.4414 27.1523C90.7227 26.9648 91.0391 26.6719 91.3906 26.2734C91.7656 25.875 92.0938 25.4648 92.375 25.043C92.5391 24.8086 92.7148 24.5039 92.9023 24.1289C93.0898 23.7305 93.2422 23.3672 93.3594 23.0391C92.6094 23.1328 91.8359 23.3086 91.0391 23.5664C90.9922 23.6133 90.9102 23.6367 90.793 23.6367C90.7227 23.6367 90.6172 23.5898 90.4766 23.4961C90.2891 23.3086 90.1602 23.168 90.0898 23.0742C90.043 22.957 90.0664 22.8516 90.1602 22.7578L90.3008 22.4766C90.3945 22.3359 90.4883 22.0547 90.582 21.6328C90.6758 21.2109 90.7227 20.8711 90.7227 20.6133C90.7227 20.543 90.7109 20.4609 90.6875 20.3672C90.6875 20.25 90.6992 20.1914 90.7227 20.1914C90.7695 20.168 90.8281 20.168 90.8984 20.1914C91.1562 20.2383 91.3906 20.3203 91.6016 20.4375C91.7891 20.5547 91.918 20.6836 91.9883 20.8242C92.082 20.9414 92.082 21.0469 91.9883 21.1406C91.9648 21.1641 91.9297 21.2109 91.8828 21.2812C91.8359 21.3281 91.8008 21.3984 91.7773 21.4922C91.7539 21.5156 91.707 21.7734 91.6367 22.2656C91.6367 22.2891 91.6484 22.3125 91.6719 22.3359C91.7188 22.3594 91.7656 22.3594 91.8125 22.3359C91.8828 22.3359 91.9883 22.3242 92.1289 22.3008C92.2695 22.2773 92.375 22.2539 92.4453 22.2305C92.6094 22.207 92.7969 22.1719 93.0078 22.125C93.2422 22.0781 93.4531 22.043 93.6406 22.0195C93.7109 21.7617 93.7578 21.4805 93.7812 21.1758C93.8281 20.8477 93.8633 20.625 93.8867 20.5078L93.9219 19.7695V19.5234C93.1719 19.5469 92.3867 19.6172 91.5664 19.7344L90.9336 19.8398H90.793C90.6758 19.8398 90.5586 19.8047 90.4414 19.7344C90.3477 19.6641 90.2422 19.582 90.125 19.4883C89.8203 19.207 89.668 18.9961 89.668 18.8555C89.668 18.7148 89.7734 18.668 89.9844 18.7148C90.2656 18.7617 90.5586 18.7852 90.8633 18.7852L91.8828 18.75L96.7695 18.3984C96.957 18.375 97.1328 18.3516 97.2969 18.3281C97.4609 18.2812 97.625 18.2461 97.7891 18.2227H97.8945C98.1992 18.2227 98.4102 18.2812 98.5273 18.3984C98.668 18.4922 98.75 18.5508 98.7734 18.5742C99.1484 18.8789 99.3359 19.1133 99.3359 19.2773C99.3359 19.418 99.1367 19.4766 98.7383 19.4531L98.0352 19.3828C97.4258 19.3594 96.5117 19.3828 95.293 19.4531L95.1523 20.8242C95.1289 21.0586 95.1055 21.2461 95.082 21.3867C95.0586 21.5273 95.0352 21.6445 95.0117 21.7383L94.9766 21.8438C95.5391 21.7969 96.1953 21.7266 96.9453 21.6328C96.9922 21.6094 97.0742 21.5859 97.1914 21.5625C97.3086 21.5156 97.4258 21.4805 97.543 21.457H97.6133C97.7539 21.457 97.8945 21.5156 98.0352 21.6328C98.1758 21.75 98.2578 21.8203 98.2812 21.8438C98.4688 22.0078 98.5977 22.1484 98.668 22.2656C98.7617 22.3594 98.7734 22.4414 98.7031 22.5117C98.6562 22.6055 98.5977 22.6992 98.5273 22.793C98.4805 22.8633 98.4453 22.9453 98.4219 23.0391C98.3047 24.0234 98.1172 24.8203 97.8594 25.4297C97.6484 25.9688 97.4141 26.3789 97.1562 26.6602C96.9219 26.918 96.6289 27.1641 96.2773 27.3984C96.1367 27.4922 95.9141 27.5742 95.6094 27.6445C95.3047 27.6914 95.1523 27.6914 95.1523 27.6445ZM105.383 12.1055C105.664 12.1055 105.805 12.2344 105.805 12.4922C105.805 12.6328 105.676 12.832 105.418 13.0898C104.715 13.957 103.32 15.6094 101.234 18.0469C101.07 18.2578 100.918 18.3633 100.777 18.3633C100.66 18.3633 100.402 18.1875 100.004 17.8359C99.6758 17.5547 99.5117 17.3203 99.5117 17.1328C99.5117 16.9219 99.6875 16.7227 100.039 16.5352C100.578 16.2305 101.387 15.6211 102.465 14.707C103.543 13.7461 104.34 12.9844 104.855 12.4219C105.066 12.2109 105.242 12.1055 105.383 12.1055ZM77.6797 13.582L73.8477 14.2148C73.5898 14.2617 73.2031 14.3555 72.6875 14.4961C72.1719 14.6133 71.7969 14.6719 71.5625 14.6719C71.1406 14.6719 70.7305 14.5898 70.332 14.4258C69.8867 14.2617 69.5469 14.0859 69.3125 13.8984L68.9961 13.5117L69.1367 13.2656L69.875 13.0898L78.2422 11.9648V6.83203C78.2422 6.31641 78.2305 5.88281 78.207 5.53125C78.1836 5.17969 78.125 4.82812 78.0312 4.47656C77.9844 4.125 77.9141 3.80859 77.8203 3.52734L77.5391 2.78906L77.4688 2.50781L77.5039 2.22656C77.5742 2.0625 77.8086 1.98047 78.207 1.98047C78.6289 1.98047 79.0156 2.07422 79.3672 2.26172L80.4219 2.89453C80.7031 3.08203 80.9375 3.28125 81.125 3.49219C81.3125 3.70312 81.4062 3.94922 81.4062 4.23047L81.1953 4.72266C81.0547 4.98047 80.9375 5.21484 80.8438 5.42578L80.5625 6.41016C80.4688 6.87891 80.3984 7.44141 80.3516 8.09766L80.1055 11.6133C80.9961 11.5195 81.8281 11.3789 82.6016 11.1914C83.3516 11.0508 83.8906 10.9805 84.2188 10.9805C84.4766 10.9805 84.7344 11.0156 84.9922 11.0859C85.25 11.1562 85.5781 11.3086 85.9766 11.543C86.3984 11.7305 86.6914 11.9297 86.8555 12.1406L87.0312 12.5977C86.9844 12.8086 86.8789 12.9492 86.7148 13.0195C86.5508 13.0664 86.0938 13.0898 85.3438 13.0898L83.6562 13.1602C82.625 13.1602 81.8984 13.1836 81.4766 13.2305L80 13.4062L79.7891 20.0859V28.8398C79.7188 29.5898 79.6016 30.1875 79.4375 30.6328C79.2734 31.0781 79.0625 31.4648 78.8047 31.793C78.5703 32.1211 78.3242 32.2969 78.0664 32.3203C77.832 32.3203 77.5977 32.2148 77.3633 32.0039C77.2227 31.9102 77.0352 31.6992 76.8008 31.3711C76.543 31.0195 76.3086 30.7148 76.0977 30.457L75.1836 29.4727C74.7852 29.0742 74.5156 28.8164 74.375 28.6992L73.8477 28.2422L73.4961 27.7852L73.8477 27.6094L74.5156 27.7852L75.2891 28.1016C75.4297 28.1719 75.7227 28.2656 76.168 28.3828L76.625 28.4531L77.0469 28.418C77.2344 28.3242 77.3633 28.1367 77.4336 27.8555C77.5039 27.5742 77.5625 27.2344 77.6094 26.8359L77.8906 22.6523L78.0312 19.418L78.2422 16.4297L77.1875 17.9062L75.9219 19.4883C75.3594 20.1445 74.7031 20.8359 73.9531 21.5625C73.2031 22.2891 72.4062 22.9102 71.5625 23.4258C70.7656 23.9414 70.0273 24.3633 69.3477 24.6914C68.6914 24.9961 68.2109 25.1953 67.9062 25.2891L66.8516 25.3945C66.8281 25.2305 66.9219 25.0781 67.1328 24.9375L67.7305 24.5508C68.0117 24.3633 68.4102 24.0703 68.9258 23.6719C69.4648 23.2734 70.0625 22.7812 70.7188 22.1953L72.7227 20.332C73.4023 19.6523 73.9531 19.043 74.375 18.5039C74.7969 17.9883 75.3359 17.2617 75.9922 16.3242C76.6484 15.4102 77.0234 14.8594 77.1172 14.6719L77.6797 13.582ZM62.4922 13.7227L59.9609 14.0742L59.293 14.1797C59.0352 14.2266 58.7539 14.25 58.4492 14.25C58.0977 14.25 57.8281 14.2383 57.6406 14.2148C57.3594 14.168 57.1016 14.0977 56.8672 14.0039C56.6328 13.9102 56.4453 13.793 56.3047 13.6523L56.2344 13.125L57.043 12.9844L57.8867 12.9141L59.4688 12.7031L63.1953 12.1055L63.125 7.04297C63.125 6.87891 63.1016 6.42188 63.0547 5.67188C63.0078 4.92187 62.9609 4.44141 62.9141 4.23047C62.8672 3.99609 62.7852 3.73828 62.668 3.45703C62.5508 3.15234 62.457 2.88281 62.3867 2.64844L62.4219 2.36719C62.5156 2.25 62.7031 2.17969 62.9844 2.15625C63.3125 2.15625 63.6406 2.23828 63.9688 2.40234C64.3438 2.58984 64.6367 2.75391 64.8477 2.89453C65.082 3.03516 65.2812 3.19922 65.4453 3.38672C65.6094 3.57422 65.7031 3.77344 65.7266 3.98438L65.5156 4.58203C65.4219 4.81641 65.3516 5.05078 65.3047 5.28516C65.2578 5.54297 65.1992 5.83594 65.1289 6.16406C65.082 6.49219 65.0352 7.14844 64.9883 8.13281L64.8125 11.8242L65.9023 11.543C66.207 11.4492 66.4531 11.3672 66.6406 11.2969L66.9922 11.1914C67.1797 11.1914 67.4023 11.2266 67.6602 11.2969C68.0117 11.3906 68.2578 11.4727 68.3984 11.543C68.5391 11.5898 68.6797 11.6836 68.8203 11.8242L68.9961 12.0703C69.0195 12.2344 68.9492 12.375 68.7852 12.4922C68.6211 12.6094 68.3281 12.7148 67.9062 12.8086L66.7109 13.0547L64.707 13.4062L64.6016 16.5352L66.2188 17.0625C66.5938 17.1797 66.9336 17.3086 67.2383 17.4492C67.543 17.5898 67.8008 17.7539 68.0117 17.9414C68.2227 18.1289 68.375 18.3164 68.4688 18.5039C68.5625 18.6914 68.6328 18.9961 68.6797 19.418C68.6797 19.8164 68.5859 20.168 68.3984 20.4727C68.2109 20.7539 67.918 20.8711 67.5195 20.8242C67.2617 20.6836 66.9805 20.4023 66.6758 19.9805C66.3711 19.5586 66.1484 19.2773 66.0078 19.1367L64.5312 17.2734L64.4609 22.0898L64.3906 25.0781L64.3555 27.75C64.332 28.5703 64.3086 29.168 64.2852 29.543C64.2617 29.9648 64.1914 30.3633 64.0742 30.7383C63.957 31.1367 63.8047 31.4414 63.6172 31.6523L63.1953 31.9688C62.9844 31.9688 62.7969 31.8398 62.6328 31.582C62.4922 31.3945 62.3398 31.1133 62.1758 30.7383C62.0117 30.3398 61.8828 29.9531 61.7891 29.5781C61.7188 29.3438 61.6836 29.0742 61.6836 28.7695C61.6836 28.6055 61.6953 28.4297 61.7188 28.2422L61.8945 27.4688C62.0117 27 62.1406 26.2617 62.2812 25.2539L62.4922 23.707L62.7031 21.0703L62.9844 17.7656L62.1758 19.1719C61.918 19.6172 61.5781 20.1328 61.1562 20.7188C60.7578 21.3047 60.2773 21.9023 59.7148 22.5117C59.1523 23.0742 58.5547 23.625 57.9219 24.1641C57.2656 24.7031 56.75 25.0781 56.375 25.2891L55.6367 25.7461L55.0039 25.7812C55.0273 25.6172 55.1328 25.4414 55.3203 25.2539L55.8125 24.7266L56.8672 23.6367C57.4297 23.0273 57.9922 22.3125 58.5547 21.4922C59.1172 20.6953 59.6445 19.875 60.1367 19.0312C60.6289 18.2109 61.0156 17.4961 61.2969 16.8867C61.5781 16.2773 61.8359 15.6445 62.0703 14.9883L62.4922 13.7227ZM147.254 22.582C147.066 22.582 146.914 22.4297 146.797 22.125C146.609 21.75 146.516 21.4453 146.516 21.2109L146.551 20.2617C146.574 19.793 146.586 18.8555 146.586 17.4492V15.6914L146.551 14.4609C146.293 14.4609 146.023 14.4961 145.742 14.5664L144.934 14.7773C144.816 14.8242 144.629 14.7539 144.371 14.5664C144.113 14.3789 143.914 14.168 143.773 13.9336C143.703 13.793 143.668 13.6875 143.668 13.6172C143.668 13.5469 143.703 13.5 143.773 13.4766C143.844 13.4531 143.926 13.4414 144.02 13.4414C145.121 13.4414 146.141 13.3828 147.078 13.2656L148.133 13.1953C148.812 13.1484 149.328 13.1133 149.68 13.0898C150.055 13.043 150.312 13.0078 150.453 12.9844C150.641 12.9609 150.852 12.9375 151.086 12.9141C151.344 12.8672 151.508 12.8555 151.578 12.8789C151.672 12.9492 151.789 13.0195 151.93 13.0898C152.094 13.1602 152.27 13.2773 152.457 13.4414C152.574 13.5586 152.668 13.6758 152.738 13.793C152.832 13.8867 152.879 13.9922 152.879 14.1094C152.879 14.2031 152.82 14.3438 152.703 14.5312C152.586 14.7188 152.469 15.0117 152.352 15.4102C152.258 15.8086 152.188 16.0898 152.141 16.2539C151.789 17.4258 151.355 18.2812 150.84 18.8203C150.465 19.1484 150.043 19.3125 149.574 19.3125C149.363 19.3125 149.188 19.1602 149.047 18.8555C148.836 18.3867 148.602 18.0586 148.344 17.8711L148.379 17.6953C149.012 17.9062 149.445 18.0117 149.68 18.0117C149.867 18.0117 149.996 17.9766 150.066 17.9062C150.16 17.8359 150.242 17.7305 150.312 17.5898C150.43 17.2852 150.523 17.0156 150.594 16.7812C150.688 16.5469 150.77 16.3359 150.84 16.1484C150.887 15.9375 150.945 15.6562 151.016 15.3047C151.109 14.9531 151.168 14.6719 151.191 14.4609C151.191 14.25 151.133 14.1445 151.016 14.1445H150.242C149.891 14.1445 149.492 14.1562 149.047 14.1797C148.602 14.2031 148.238 14.2383 147.957 14.2852L147.887 17.4844L147.922 19.3125C147.922 19.5703 147.922 19.8164 147.922 20.0508C147.945 20.2617 147.945 20.4141 147.922 20.5078C147.922 20.6484 147.922 20.8711 147.922 21.1758C147.945 21.457 147.945 21.6562 147.922 21.7734L147.676 22.3359C147.512 22.5 147.371 22.582 147.254 22.582ZM120.043 26.3086L118.461 26.5547C118.297 26.8828 118.051 27.0117 117.723 26.9414C117.512 26.707 117.301 26.3438 117.09 25.8516C116.949 25.4531 116.879 25.0898 116.879 24.7617L117.02 24.1289L117.16 23.4609L117.266 22.582L117.441 21.6328L117.547 17.7656C117.547 17.4609 117.535 17.0742 117.512 16.6055C117.465 16.1836 117.418 15.8555 117.371 15.6211C117.301 15.4102 117.195 15.1758 117.055 14.918L116.879 14.4609C116.879 14.25 116.984 14.1094 117.195 14.0391C117.383 14.0156 117.582 14.0391 117.793 14.1094L118.285 14.2852L118.883 14.4258L123.207 13.9336L125.773 13.582L127.109 13.3711C127.461 13.3242 127.789 13.2422 128.094 13.125L128.727 12.9492H129.078C129.336 12.9961 129.582 13.0781 129.816 13.1953L130.625 13.6172C130.93 13.7812 131.199 13.9922 131.434 14.25L131.855 14.7422C131.832 14.9062 131.75 15.1055 131.609 15.3398C131.492 15.5742 131.398 15.7852 131.328 15.9727C131.258 16.1602 131.199 16.4531 131.152 16.8516C131.129 17.2734 131.117 17.6602 131.117 18.0117V21.8789L131.152 23.4258C131.152 23.8945 131.141 24.293 131.117 24.6211C131.047 25.043 130.941 25.4297 130.801 25.7812C130.66 26.1328 130.461 26.4375 130.203 26.6953L129.711 27.082C129.5 27.082 129.301 26.9297 129.113 26.625L128.48 25.6758L120.676 26.2383C120.98 26.3555 121.273 26.4609 121.555 26.5547L122.328 26.9062C122.586 27.0234 122.738 27.3281 122.785 27.8203L121.941 28.3125C121.707 28.4297 121.309 28.6992 120.746 29.1211C120.184 29.543 119.598 29.9531 118.988 30.3516C118.379 30.7266 117.746 31.0898 117.09 31.4414C116.457 31.7695 115.918 32.0156 115.473 32.1797L114.172 32.6367L113.891 32.3203C114.031 32.2031 114.301 32.0039 114.699 31.7227L116.105 30.7734C116.34 30.6094 116.832 30.1992 117.582 29.543C118.332 28.8867 118.812 28.4531 119.023 28.2422C119.234 28.0078 119.445 27.7383 119.656 27.4336L119.973 26.9062L120.043 26.3086ZM119.059 18.3281L122.855 17.9062C123.887 17.7891 124.625 17.707 125.07 17.6602C125.539 17.5898 126.031 17.5078 126.547 17.4141C127.086 17.3438 127.473 17.3086 127.707 17.3086C128.059 17.3086 128.41 17.3672 128.762 17.4844L128.902 16.043L128.867 15.3398C128.82 15.1055 128.738 14.9297 128.621 14.8125C128.48 14.6953 128.328 14.6133 128.164 14.5664C128.023 14.5195 127.801 14.4961 127.496 14.4961L125.914 14.6367L123.559 14.918L120.887 15.375C120.418 15.4453 120.066 15.4805 119.832 15.4805H119.129L119.059 18.3281ZM118.988 21.5273L122.012 21.3516L124.332 21.1055L126.652 20.8594C127.285 20.7422 127.684 20.6836 127.848 20.6836C128.129 20.707 128.352 20.7539 128.516 20.8242L128.973 21V18.2578L121.062 19.1367C120.594 19.207 120.242 19.2422 120.008 19.2422C119.844 19.2422 119.598 19.2188 119.27 19.1719L118.988 21.5273ZM118.707 25.1836L124.332 24.6562L125.879 24.4805C126.395 24.4336 126.781 24.3867 127.039 24.3398L127.426 24.2695C127.613 24.2695 127.871 24.3047 128.199 24.375L128.762 24.5156L128.832 24.1992C128.879 24.0352 128.902 23.7773 128.902 23.4258C128.949 23.0742 128.973 22.793 128.973 22.582L128.938 21.7031L120.148 22.4062C119.914 22.4062 119.668 22.3945 119.41 22.3711L118.918 22.3008L118.707 25.1836ZM117.617 10.9805L115.332 11.6133C115.145 11.6602 114.828 11.7656 114.383 11.9297C113.961 12.0938 113.645 12.1758 113.434 12.1758C113.246 12.1758 113.047 12.1406 112.836 12.0703C112.578 11.9766 112.332 11.8711 112.098 11.7539C111.863 11.6367 111.688 11.5195 111.57 11.4023L111.395 10.9453C111.488 10.8281 111.816 10.7227 112.379 10.6289L113.785 10.418C113.973 10.3711 114.312 10.3008 114.805 10.207L116.562 9.78516C117.242 9.64453 117.77 9.52734 118.145 9.43359L119.023 9.29297L119.691 9.22266C119.879 9.22266 120.102 9.25781 120.359 9.32812C120.617 9.39844 120.863 9.50391 121.098 9.64453L121.379 10.0312C121.332 10.2422 121.191 10.3711 120.957 10.418C120.723 10.4648 120.441 10.5117 120.113 10.5586C119.809 10.582 119.41 10.6289 118.918 10.6992C118.449 10.7695 118.016 10.8633 117.617 10.9805ZM112.766 4.79297L113.293 4.75781L113.996 4.6875C114.207 4.64062 114.617 4.55859 115.227 4.44141C115.859 4.30078 116.34 4.18359 116.668 4.08984L117.547 3.84375L118.004 3.70312C118.238 3.67969 118.496 3.70312 118.777 3.77344C119.059 3.84375 119.328 3.94922 119.586 4.08984C119.844 4.18359 119.949 4.39453 119.902 4.72266C119.715 4.93359 119.504 5.05078 119.27 5.07422C119.035 5.12109 118.648 5.20312 118.109 5.32031C117.57 5.4375 117.043 5.54297 116.527 5.63672L115.191 5.77734C114.77 5.84766 114.418 5.88281 114.137 5.88281C113.879 5.88281 113.645 5.85938 113.434 5.8125C113.223 5.76562 113.012 5.70703 112.801 5.63672C112.566 5.56641 112.367 5.37891 112.203 5.07422C112.273 4.93359 112.461 4.83984 112.766 4.79297ZM127.637 7.88672C127.871 7.95703 128.094 8.02734 128.305 8.09766C128.516 8.16797 128.867 8.33203 129.359 8.58984L131.293 9.60938C131.949 9.96094 132.629 10.2539 133.332 10.4883C134.035 10.7695 134.68 10.9805 135.266 11.1211C135.852 11.2617 136.379 11.3789 136.848 11.4727L137.621 11.6133L138.219 11.6836C138.477 11.7539 138.57 11.9414 138.5 12.2461L137.762 12.4922C137.574 12.5625 137.363 12.6211 137.129 12.668C136.895 12.7383 136.496 12.832 135.934 12.9492C135.324 13.0898 134.832 13.1719 134.457 13.1953C134.223 13.1953 134.023 13.1719 133.859 13.125C133.602 13.0547 133.344 12.9492 133.086 12.8086C132.828 12.6445 132.488 12.4102 132.066 12.1055L130.168 10.6992C129.277 10.043 128.691 9.62109 128.41 9.43359C128.129 9.24609 127.895 9.10547 127.707 9.01172L127.074 8.73047C126.793 9.03516 126.465 9.41016 126.09 9.85547C125.715 10.2773 125.199 10.7227 124.543 11.1914C123.887 11.6367 123.207 12 122.504 12.2812C121.801 12.5625 121.238 12.75 120.816 12.8438L120.324 12.668L121.027 12.1758C121.191 12.082 121.566 11.8242 122.152 11.4023C122.738 10.9805 123.277 10.5586 123.77 10.1367C124.238 9.71484 124.648 9.25781 125 8.76562C125.352 8.27344 125.609 7.85156 125.773 7.5C125.938 7.14844 126.043 6.87891 126.09 6.69141C126.137 6.48047 126.172 6.28125 126.195 6.09375L126.547 5.74219C126.898 5.8125 127.203 5.95312 127.461 6.16406C127.719 6.375 127.918 6.57422 128.059 6.76172L128.094 7.35938L127.637 7.88672ZM124.895 4.05469L128.48 3.38672C128.668 3.33984 129.137 3.23437 129.887 3.07031C130.66 2.88281 131.246 2.70703 131.645 2.54297C132.043 2.40234 132.359 2.33203 132.594 2.33203L133.227 2.47266C133.578 2.58984 133.918 2.75391 134.246 2.96484C134.527 3.15234 134.844 3.41016 135.195 3.73828C135.5 3.99609 135.652 4.23047 135.652 4.44141C135.605 4.67578 135.441 4.85156 135.16 4.96875L134.562 5.07422C134.352 5.12109 134.035 5.26172 133.613 5.49609C133.238 5.73047 132.922 5.91797 132.664 6.05859C132.43 6.22266 132.207 6.38672 131.996 6.55078L131.574 6.90234H131.047L131.363 6.26953L131.645 5.70703L132.066 4.79297L132.312 4.19531C132.242 4.03125 131.984 3.92578 131.539 3.87891C131.328 3.92578 130.941 3.99609 130.379 4.08984C129.84 4.18359 129.289 4.28906 128.727 4.40625L126.652 4.86328L125.773 5.07422L124.789 5.17969L124.262 5.00391L123.629 5.8125C123.395 6.07031 123.113 6.33984 122.785 6.62109C122.434 6.92578 122.082 7.20703 121.73 7.46484L121.238 7.81641L120.887 7.64062L121.238 7.04297C121.332 6.92578 121.52 6.63281 121.801 6.16406L122.855 4.47656C123.113 3.98438 123.324 3.51562 123.488 3.07031C123.652 2.625 123.781 2.23828 123.875 1.91016C123.945 1.58203 123.992 1.27734 124.016 0.996094L124.051 0.539062C124.145 0.421875 124.273 0.363281 124.438 0.363281C124.602 0.363281 124.836 0.457031 125.141 0.644531C125.398 0.832031 125.609 1.00781 125.773 1.17188C125.961 1.3125 126.113 1.46484 126.23 1.62891L126.195 2.26172L125.738 2.75391L125.281 3.45703L124.895 4.05469ZM126.371 27.5391L126.16 26.8711L127.039 27.1172L127.637 27.3633L129.324 28.0664C129.793 28.3008 130.215 28.5469 130.59 28.8047C130.941 29.0625 131.223 29.2969 131.434 29.5078C131.668 29.7188 131.855 29.9648 131.996 30.2461C132.16 30.5273 132.254 30.8789 132.277 31.3008C132.277 31.7227 132.219 32.0156 132.102 32.1797C131.984 32.3438 131.809 32.4492 131.574 32.4961C131.41 32.4961 131.223 32.4258 131.012 32.2852C130.824 32.1914 130.602 32.0156 130.344 31.7578C130.086 31.5 129.77 31.1602 129.395 30.7383L128.164 29.3672C127.672 28.8281 127.309 28.4414 127.074 28.207C126.816 27.9727 126.582 27.75 126.371 27.5391ZM199.426 13.8633C198.652 13.582 198.289 13.2773 198.336 12.9492C198.477 11.9648 198.547 10.8398 198.547 9.57422C198.547 9.01172 198.535 8.60156 198.512 8.34375C198.488 8.03906 198.465 7.78125 198.441 7.57031C198.418 7.33594 198.418 7.20703 198.441 7.18359C198.535 7.08984 198.652 7.04297 198.793 7.04297C199.004 7.04297 199.262 7.13672 199.566 7.32422C199.895 7.51172 200.059 7.69922 200.059 7.88672C200.059 8.00391 200.047 8.12109 200.023 8.23828C200 8.33203 199.988 8.4375 199.988 8.55469L199.777 12.0352C199.777 12.2227 199.848 12.3398 199.988 12.3867H200.164C200.352 12.3867 200.48 12.375 200.551 12.3516L205.086 11.7188V10.8047C205.086 9.65625 205.062 8.76562 205.016 8.13281C204.992 7.59375 204.934 7.16016 204.84 6.83203C204.77 6.45703 204.863 6.26953 205.121 6.26953C205.309 6.26953 205.555 6.33984 205.859 6.48047C206.234 6.66797 206.457 6.83203 206.527 6.97266C206.598 7.08984 206.621 7.27734 206.598 7.53516C206.551 7.95703 206.527 8.58984 206.527 9.43359L206.562 12.1055C206.562 12.668 206.457 13.1133 206.246 13.4414C206.129 13.582 206.012 13.6523 205.895 13.6523C205.777 13.6523 205.613 13.5469 205.402 13.3359C205.355 13.2891 205.297 13.2188 205.227 13.125C205.156 13.0312 205.086 12.9727 205.016 12.9492C204.945 12.9258 204.852 12.9141 204.734 12.9141C204.195 12.9609 202.895 13.1367 200.832 13.4414C200.48 13.4883 200.199 13.582 199.988 13.7227C199.754 13.8398 199.602 13.8984 199.531 13.8984L199.426 13.8633ZM203.891 21.4219C203.656 21.7266 203.41 21.8789 203.152 21.8789C203.082 21.8789 203.047 21.8203 203.047 21.7031C203.047 21.5391 203.094 21.3516 203.188 21.1406C203.188 21.1406 203.422 20.6719 203.891 19.7344C203.914 19.6406 203.949 19.5469 203.996 19.4531C204.043 19.3594 204.078 19.2773 204.102 19.207V19.1719C204.102 19.125 204.066 19.0781 203.996 19.0312C203.926 18.9844 203.844 18.9727 203.75 18.9961C203.375 19.0195 202.812 19.0781 202.062 19.1719C201.336 19.2656 200.797 19.3594 200.445 19.4531C200.305 19.5 200.129 19.5586 199.918 19.6289C199.73 19.6992 199.578 19.7344 199.461 19.7344C199.039 19.7344 198.688 19.6055 198.406 19.3477C198.172 19.1836 197.996 19.0195 197.879 18.8555L197.809 18.6797C197.809 18.5625 198.008 18.5273 198.406 18.5742C198.945 18.6211 200.059 18.5508 201.746 18.3633L202.449 18.2578C202.637 18.2344 202.93 18.1992 203.328 18.1523C203.75 18.082 204.078 18.0117 204.312 17.9414C204.383 17.918 204.453 17.8945 204.523 17.8711C204.617 17.8242 204.699 17.8008 204.77 17.8008C204.887 17.8008 205.027 17.8594 205.191 17.9766C205.379 18.0938 205.531 18.1992 205.648 18.293C205.812 18.4102 205.918 18.5156 205.965 18.6094C206.035 18.6797 206.059 18.7734 206.035 18.8906C206.035 19.0078 205.977 19.1133 205.859 19.207C205.742 19.3008 205.66 19.3711 205.613 19.418C205.566 19.4883 205.402 19.6641 205.121 19.9453C205.004 20.1328 204.793 20.3906 204.488 20.7188C204.207 21.0469 204.008 21.2812 203.891 21.4219ZM202.133 28.3477C202.133 28.2773 202.25 28.1016 202.484 27.8203C202.742 27.5156 202.941 27.2812 203.082 27.1172C203.434 26.6484 203.855 25.9688 204.348 25.0781C204.863 24.1875 205.156 23.6016 205.227 23.3203C205.273 23.1797 205.203 23.1094 205.016 23.1094C204.641 23.1094 203.609 23.2148 201.922 23.4258C200.82 23.5664 200 23.707 199.461 23.8477C199.344 23.918 199.227 23.9531 199.109 23.9531C198.922 23.9531 198.723 23.8242 198.512 23.5664C198.418 23.4023 198.371 23.25 198.371 23.1094C198.371 23.0156 198.43 22.9219 198.547 22.8281L198.652 22.6875C198.723 22.5469 198.805 22.3594 198.898 22.125C198.992 21.8906 199.074 21.668 199.145 21.457C199.262 21.082 199.344 20.6719 199.391 20.2266C199.414 19.9688 199.555 19.8984 199.812 20.0156C200.141 20.1797 200.387 20.3438 200.551 20.5078C200.738 20.6484 200.797 20.7539 200.727 20.8242C200.492 21.1055 200.305 21.4219 200.164 21.7734C200.047 22.1484 199.977 22.3945 199.953 22.5117C199.953 22.6055 200.012 22.6523 200.129 22.6523C200.48 22.6523 201.008 22.5938 201.711 22.4766C202.109 22.4297 202.602 22.3711 203.188 22.3008C203.773 22.2305 204.242 22.1602 204.594 22.0898L205.473 21.9141C205.543 21.8906 205.637 21.8789 205.754 21.8789C205.871 21.8789 205.988 21.9258 206.105 22.0195C206.223 22.0898 206.352 22.1836 206.492 22.3008C206.727 22.5117 206.879 22.6875 206.949 22.8281C207.02 22.9453 207.055 23.0859 207.055 23.25C207.055 23.3438 206.984 23.4609 206.844 23.6016C206.727 23.7422 206.586 23.9648 206.422 24.2695C205.742 25.6523 204.863 26.8125 203.785 27.75C203.48 27.9844 203.141 28.1836 202.766 28.3477C202.602 28.3945 202.449 28.4297 202.309 28.4531C202.191 28.4531 202.133 28.418 202.133 28.3477ZM213.383 12.1055C213.664 12.1055 213.805 12.2344 213.805 12.4922C213.805 12.6328 213.676 12.832 213.418 13.0898C212.715 13.957 211.32 15.6094 209.234 18.0469C209.07 18.2578 208.918 18.3633 208.777 18.3633C208.66 18.3633 208.402 18.1875 208.004 17.8359C207.676 17.5547 207.512 17.3203 207.512 17.1328C207.512 16.9219 207.688 16.7227 208.039 16.5352C208.578 16.2305 209.387 15.6211 210.465 14.707C211.543 13.7461 212.34 12.9844 212.855 12.4219C213.066 12.2109 213.242 12.1055 213.383 12.1055ZM177.594 5.98828C177.547 6.36328 177.488 6.76172 177.418 7.18359L177.207 8.41406C177.137 8.8125 177.02 9.67969 176.855 11.0156C176.691 12.3516 176.551 13.3359 176.434 13.9688L175.941 16.5C175.73 17.5547 175.508 18.5273 175.273 19.418C175.039 20.332 174.688 21.3398 174.219 22.4414C173.727 23.5664 173.176 24.5977 172.566 25.5352C171.98 26.4961 171.465 27.2109 171.02 27.6797C170.574 28.1719 170.164 28.5703 169.789 28.875L168.805 29.7188L168.242 29.8594C168.242 29.6719 168.324 29.4727 168.488 29.2617L169.227 28.2773C169.648 27.7148 170.082 27.0703 170.527 26.3438C170.973 25.6172 171.523 24.4922 172.18 22.9688C172.836 21.4453 173.305 20.1914 173.586 19.207C173.867 18.2227 174.102 17.2031 174.289 16.1484C174.477 15.0938 174.641 14.1328 174.781 13.2656L175.133 10.1367C175.203 9.19922 175.238 8.50781 175.238 8.0625L175.027 6.05859C174.91 5.94141 174.77 5.8125 174.605 5.67188L174.324 5.39062L174.289 5.00391C174.383 4.86328 174.594 4.76953 174.922 4.72266H175.801C176.059 4.72266 176.891 4.64062 178.297 4.47656C179.703 4.33594 180.641 4.23047 181.109 4.16016C181.578 4.11328 182.129 4.04297 182.762 3.94922L185.188 3.5625C186.195 3.39844 186.922 3.24609 187.367 3.10547C187.789 2.98828 188.094 2.92969 188.281 2.92969C188.469 2.95312 188.703 3.01172 188.984 3.10547C189.266 3.19922 189.57 3.33984 189.898 3.52734L190.391 3.91406C190.367 4.125 190.25 4.27734 190.039 4.37109C189.805 4.46484 189.547 4.53516 189.266 4.58203L187.754 4.89844C187.309 4.96875 186.617 5.0625 185.68 5.17969C184.789 5.29688 184.027 5.39062 183.395 5.46094C182.785 5.53125 182.023 5.61328 181.109 5.70703C180.219 5.80078 179.539 5.84766 179.07 5.84766L177.594 5.98828ZM175.555 27.1875L174.535 27.9961L173.867 28.2422C173.867 28.0781 173.926 27.9023 174.043 27.7148L174.852 26.5898C175.273 26.0273 175.625 25.5117 175.906 25.043C176.164 24.5742 176.387 24.1289 176.574 23.707C176.785 23.3086 176.891 22.875 176.891 22.4062V21.9492C176.961 21.8086 177.09 21.7148 177.277 21.668C177.418 21.6445 177.57 21.668 177.734 21.7383C177.969 21.7852 178.191 21.8555 178.402 21.9492C178.637 22.043 178.883 22.1719 179.141 22.3359C179.422 22.5 179.562 22.7461 179.562 23.0742C179.516 23.2148 179.41 23.3438 179.246 23.4609C179.082 23.6016 178.871 23.8242 178.613 24.1289C178.355 24.457 178.062 24.7852 177.734 25.1133C177.383 25.4883 176.984 25.8867 176.539 26.3086C176.117 26.7305 175.789 27.0234 175.555 27.1875ZM181.391 11.9297C182.703 11.7188 183.699 11.5195 184.379 11.332C185.059 11.168 185.727 10.9805 186.383 10.7695C187.016 10.5352 187.473 10.418 187.754 10.418L188.703 10.7695L189.617 11.0859L190.32 11.4727C190.766 11.6602 191.047 11.9531 191.164 12.3516L190.918 12.7734C190.754 12.9844 190.578 13.3242 190.391 13.793L190.109 14.5664L188.633 19.0664L188.281 19.9102C188.141 20.0508 187.988 20.1562 187.824 20.2266L187.473 20.332L187.121 20.2969L186.77 20.1211L186.559 19.6289L186.312 19.1367L183.852 19.418C184.461 19.5586 184.801 19.7109 184.871 19.875C184.941 20.0391 184.988 20.2266 185.012 20.4375L184.836 21.2109C184.719 21.6094 184.66 22.0664 184.66 22.582L184.695 24.9023L184.836 27.4688C184.836 27.9609 184.824 28.4297 184.801 28.875C184.73 29.5547 184.602 30.0469 184.414 30.3516C184.273 30.6328 184.074 30.9258 183.816 31.2305C183.559 31.5117 183.266 31.6992 182.938 31.793L182.586 31.7578C182.398 31.6875 182.199 31.4766 181.988 31.125C181.777 30.7734 181.391 30.293 180.828 29.6836C180.266 29.0742 179.926 28.7227 179.809 28.6289L179.281 28.2422L179.07 27.9961L179.246 27.7852L180.301 27.9961L181.848 28.3125C182.105 28.3125 182.305 28.2656 182.445 28.1719C182.656 28.0547 182.773 27.6914 182.797 27.082C182.844 26.4727 182.879 25.7461 182.902 24.9023V24.1289C182.902 23.6602 182.891 23.2617 182.867 22.9336C182.82 22.3242 182.75 21.7617 182.656 21.2461C182.562 20.7539 182.48 20.4375 182.41 20.2969L182.094 19.6641L181.215 19.7695L180.547 19.8047C180.43 20.1094 180.312 20.3203 180.195 20.4375L179.949 20.6133L179.457 20.4023C179.27 20.1445 179.117 19.6992 179 19.0664L178.227 14.3203C178.133 13.875 178.016 13.5234 177.875 13.2656C177.734 13.0078 177.57 12.8086 177.383 12.668L177.031 12.0703C177.125 11.9531 177.289 11.8945 177.523 11.8945L178.227 11.9297L179.07 12.1758L179.844 12.1055L180.793 11.9648C181.098 11.2148 181.32 10.6406 181.461 10.2422L181.848 9.11719C181.965 8.76562 182.094 8.29687 182.234 7.71094C182.375 7.125 182.445 6.69141 182.445 6.41016L182.586 5.91797C182.75 5.89453 182.902 5.89453 183.043 5.91797C183.254 5.96484 183.523 6.05859 183.852 6.19922C184.18 6.38672 184.496 6.58594 184.801 6.79688C185.105 7.00781 185.246 7.23047 185.223 7.46484L184.836 7.88672C184.555 8.14453 184.109 8.66016 183.5 9.43359C182.891 10.2305 182.48 10.7461 182.27 10.9805L181.391 11.9297ZM179.527 13.0547L180.02 15.4805C180.465 15.4336 180.828 15.3867 181.109 15.3398C181.438 15.293 181.707 15.2461 181.918 15.1992L183.254 14.918L184.625 14.5664C185 14.4492 185.281 14.3906 185.469 14.3906C185.656 14.4141 185.82 14.4375 185.961 14.4609L187.367 14.8477C187.414 14.4727 187.484 13.9688 187.578 13.3359L187.613 12.9492C187.613 12.5273 187.531 12.2695 187.367 12.1758C187.203 12.082 186.945 12.0352 186.594 12.0352C186.219 12.0352 185.609 12.1289 184.766 12.3164C183.922 12.457 183.078 12.6094 182.234 12.7734C181.367 12.9375 180.793 13.0195 180.512 13.0195L179.527 13.0547ZM180.125 16.4648L180.406 18.6445C181.25 18.5273 182.012 18.4336 182.691 18.3633C183.371 18.2695 183.992 18.1758 184.555 18.082C185.047 17.9883 185.387 17.9414 185.574 17.9414L186.699 18.2227L187.297 15.5508L182.375 16.3945L181.215 16.5703L180.125 16.4648ZM187.754 22.9336L186.945 22.2305L186.875 21.7031C187.062 21.6562 187.25 21.668 187.438 21.7383L188.492 22.0898L190.883 23.0742C191.445 23.3086 191.984 23.6367 192.5 24.0586C193.062 24.4336 193.461 24.832 193.695 25.2539C193.953 25.6758 194.082 26.1211 194.082 26.5898C194.059 26.9648 193.988 27.2695 193.871 27.5039C193.754 27.6914 193.625 27.832 193.484 27.9258L193.168 28.0664C193.004 28.0664 192.781 28.0078 192.5 27.8906C192.219 27.7734 191.797 27.4102 191.234 26.8008L189.195 24.4805C188.609 23.8008 188.129 23.2852 187.754 22.9336ZM165.008 13.0547L164.656 11.8242L165.852 12C166.367 12.1172 166.871 12.2695 167.363 12.457C167.855 12.668 168.207 12.9727 168.418 13.3711C168.652 13.7461 168.77 14.168 168.77 14.6367C168.746 14.9414 168.688 15.1992 168.594 15.4102C168.5 15.6211 168.371 15.7734 168.207 15.8672L167.82 15.9727C167.492 15.9727 167.211 15.8555 166.977 15.6211C166.742 15.3867 166.414 15.0117 165.992 14.4961C165.617 13.9805 165.289 13.5 165.008 13.0547ZM169.754 17.8008L170.527 16.5703L170.949 16.3242C171.137 16.3711 171.219 16.5469 171.195 16.8516L170.422 18.6797C170.094 19.4062 169.742 20.1445 169.367 20.8945L168.277 23.1445C167.926 23.8242 167.656 24.457 167.469 25.043L166.906 26.4492L166.414 27.7148C166.273 28.043 166.145 28.2656 166.027 28.3828C165.91 28.5 165.688 28.5352 165.359 28.4883C165.125 28.2773 164.973 28.1016 164.902 27.9609C164.832 27.8203 164.668 27.4102 164.41 26.7305C164.152 26.0742 164.012 25.5703 163.988 25.2188C163.988 24.9375 164.047 24.6914 164.164 24.4805C164.258 24.3398 164.457 24.1641 164.762 23.9531C165.066 23.7422 165.371 23.4844 165.676 23.1797L166.625 22.2305C166.953 21.8789 167.27 21.5039 167.574 21.1055L168.805 19.2422C169.367 18.3984 169.684 17.918 169.754 17.8008ZM167.539 4.93359L168.418 5.14453C168.816 5.23828 169.285 5.35547 169.824 5.49609C170.34 5.66016 170.727 5.84766 170.984 6.05859C171.219 6.24609 171.395 6.45703 171.512 6.69141C171.629 6.92578 171.688 7.20703 171.688 7.53516C171.688 7.81641 171.629 8.07422 171.512 8.30859C171.395 8.54297 171.16 8.73047 170.809 8.87109C170.574 8.87109 170.363 8.82422 170.176 8.73047C169.824 8.61328 169.367 8.25 168.805 7.64062C168.266 7.03125 167.867 6.55078 167.609 6.19922L167.152 5.53125L166.977 5.10938L167.117 4.89844C167.281 4.89844 167.422 4.91016 167.539 4.93359Z" fill="#333333"/>
</svg>
