<svg width="190" height="30" viewBox="0 0 190 30" fill="none" xmlns="http://www.w3.org/2000/svg">
<path d="M38.2188 10.7188C38.0729 10.7188 37.9167 10.625 37.75 10.4375C37.625 10.2917 37.5417 10.1771 37.5 10.0938C37.4583 9.98958 37.4583 9.85417 37.5 9.6875L37.5312 8.9375C37.5521 8.79167 37.5625 8.4375 37.5625 7.875V6.84375L36.625 7.28125L35.5312 7.75C35.2604 7.85417 34.9792 7.97917 34.6875 8.125C34.4375 8.25 34.2188 8.3125 34.0312 8.3125C33.8854 8.29167 33.7188 8.23958 33.5312 8.15625C33.3438 8.07292 33.1979 8 33.0938 7.9375C32.8646 7.79167 32.7604 7.63542 32.7812 7.46875L32.875 7.15625C32.875 6.98958 32.8854 6.84375 32.9062 6.71875L32.9375 4.90625V3.21875C32.9375 2.88542 32.9167 2.60417 32.875 2.375C32.8333 2.125 32.8021 1.94792 32.7812 1.84375C32.7812 1.73958 32.8125 1.66667 32.875 1.625C32.8958 1.60417 32.9479 1.59375 33.0312 1.59375C33.1771 1.59375 33.4583 1.6875 33.875 1.875C34.2292 2.04167 34.375 2.25 34.3125 2.5C34.2708 2.64583 34.2292 2.86458 34.1875 3.15625L34.0938 6.75C34.0938 6.85417 34.1042 6.9375 34.125 7C34.1667 7.04167 34.2083 7.0625 34.25 7.0625C34.5 7.0625 34.8021 6.98958 35.1562 6.84375C35.8229 6.63542 36.3958 6.42708 36.875 6.21875L37.5625 5.9375V3.875C37.5625 3.04167 37.5104 2.23958 37.4062 1.46875C37.3854 1.40625 37.375 1.33333 37.375 1.25C37.375 1.04167 37.4583 0.9375 37.625 0.9375C37.6458 0.9375 37.7604 0.979167 37.9688 1.0625C38.2812 1.22917 38.5104 1.375 38.6562 1.5C38.8021 1.625 38.8854 1.69792 38.9062 1.71875C38.9896 1.78125 39.0312 1.84375 39.0312 1.90625C39.0312 1.94792 39.0104 2 38.9688 2.0625C38.9479 2.125 38.9271 2.17708 38.9062 2.21875L38.8125 3.15625L38.7812 6.03125L38.8125 8.8125C38.8125 9.29167 38.7812 9.70833 38.7188 10.0625C38.6146 10.5 38.4479 10.7188 38.2188 10.7188ZM32.4688 15.8438C32.2396 15.8438 31.9583 15.6667 31.625 15.3125C31.375 15.0625 31.25 14.875 31.25 14.75C31.25 14.6875 31.2917 14.6562 31.375 14.6562C31.4583 14.6354 31.5625 14.625 31.6875 14.625L32.375 14.5938C32.7708 14.5938 33.0312 14.5833 33.1562 14.5625C33.5521 14.5625 33.8854 14.5521 34.1562 14.5312C35.9479 14.3646 37.1562 14.2292 37.7812 14.125C38.0938 14.0833 38.375 14.0417 38.625 14C38.875 13.9375 39.0729 13.9062 39.2188 13.9062C39.5104 13.9062 39.8021 14.0521 40.0938 14.3438C40.3229 14.5729 40.4375 14.7604 40.4375 14.9062C40.4375 15.0312 40.3646 15.1146 40.2188 15.1562C40.1146 15.1771 39.5 15.2188 38.375 15.2812C37.75 15.3021 36.9792 15.3542 36.0625 15.4375C35.1458 15.5208 34.3438 15.6042 33.6562 15.6875C33.5312 15.7083 33.3542 15.7396 33.125 15.7812C32.8958 15.8229 32.6771 15.8438 32.4688 15.8438ZM39.1875 26.625C39.2292 26.7083 39.3021 26.8333 39.4062 27C39.5104 27.1667 39.5625 27.3646 39.5625 27.5938C39.5625 27.8021 39.4792 27.9688 39.3125 28.0938C39.1458 28.2396 38.9583 28.3125 38.75 28.3125C38.5625 28.3125 38.4062 28.125 38.2812 27.75C38.2188 27.6042 38.1667 27.4792 38.125 27.375C38.1042 27.2917 38.0833 27.2188 38.0625 27.1562C37.7917 27.2396 37.4375 27.3125 37 27.375C36.5625 27.4375 36.25 27.4896 36.0625 27.5312C35.0625 27.7188 34.375 27.8542 34 27.9375C33.8542 27.9792 33.6979 28.0208 33.5312 28.0625C33.3646 28.125 33.2708 28.1667 33.25 28.1875C33.125 28.2292 33.0312 28.25 32.9688 28.25C32.8021 28.25 32.6458 28.1771 32.5 28.0312C32.25 27.8438 32.0625 27.5938 31.9375 27.2812C31.9167 27.2604 31.9062 27.2292 31.9062 27.1875C31.9062 27.1458 31.9583 27.0938 32.0625 27.0312C32.1875 26.9688 32.2812 26.9271 32.3438 26.9062C32.6146 26.7604 33.0938 26.3229 33.7812 25.5938L34.625 24.7812L32.7812 23.7812C32.5729 23.7188 32.4375 23.6458 32.375 23.5625C32.3125 23.4792 32.2812 23.3542 32.2812 23.1875C32.2812 23.0625 32.3021 22.9792 32.3438 22.9375C32.4062 22.875 32.5312 22.7812 32.7188 22.6562C32.9062 22.5312 33.0938 22.3646 33.2812 22.1562C33.3854 22.0312 33.5208 21.8958 33.6875 21.75C33.8542 21.6042 34.0104 21.4479 34.1562 21.2812C34.7812 20.5521 35.1771 19.9792 35.3438 19.5625C35.4479 19.3542 35.5312 19.25 35.5938 19.25C35.6354 19.25 35.7188 19.2917 35.8438 19.375C36.2396 19.6667 36.4792 19.9375 36.5625 20.1875V20.2812C36.5625 20.3854 36.5104 20.4688 36.4062 20.5312C36.3021 20.5938 36.2292 20.6458 36.1875 20.6875C36.125 20.7292 35.8125 21.0312 35.25 21.5938L34.6875 22.1562C34.5833 22.2604 34.4062 22.4375 34.1562 22.6875C33.9062 22.9167 33.7812 23.0521 33.7812 23.0938C33.7812 23.1562 33.8125 23.2083 33.875 23.25C33.9583 23.2917 34.0208 23.3333 34.0625 23.375L35.375 24C36.1875 23.1875 36.6562 22.7083 36.7812 22.5625C37.3229 21.9375 37.625 21.5417 37.6875 21.375C37.7083 21.3542 37.7396 21.3021 37.7812 21.2188C37.8229 21.1354 37.8646 21.0938 37.9062 21.0938C37.9688 21.0938 38.0312 21.125 38.0938 21.1875C38.4271 21.5 38.6667 21.7917 38.8125 22.0625C38.8542 22.1458 38.875 22.1979 38.875 22.2188C38.875 22.2604 38.8229 22.3229 38.7188 22.4062C38.6354 22.4688 38.5521 22.5312 38.4688 22.5938C37.7396 23.1979 36.8854 23.9896 35.9062 24.9688L34 26.75C33.9583 26.7917 33.9375 26.8333 33.9375 26.875C33.9375 26.9167 33.9583 26.9479 34 26.9688C34.0417 26.9896 34.1042 26.9896 34.1875 26.9688L37.8438 26.3438C37.7396 25.9271 37.6146 25.5104 37.4688 25.0938V25.0312C37.4688 24.9688 37.5 24.9375 37.5625 24.9375C37.6458 24.9375 37.7708 25 37.9375 25.125C38.2708 25.4167 38.6875 25.9167 39.1875 26.625ZM41.5625 17.0312C41.6667 17.0312 41.8229 17.1042 42.0312 17.25C42.0104 17.2917 42.0521 17.375 42.1562 17.5C42.2604 17.6042 42.3333 17.6771 42.375 17.7188C42.4792 17.8229 42.5833 17.9479 42.6875 18.0938C42.8125 18.2396 42.9479 18.3958 43.0938 18.5625C43.4688 18.9583 44.3333 19.9896 45.6875 21.6562C45.9167 21.9896 46.0312 22.1875 46.0312 22.25C46.0312 22.4583 45.9062 22.5625 45.6562 22.5625C45.5104 22.5625 45.3542 22.4583 45.1875 22.25C44.7917 21.8333 44.0833 21.1771 43.0625 20.2812C42.2708 19.5521 41.5521 18.9896 40.9062 18.5938C40.5938 18.4479 40.4375 18.2812 40.4375 18.0938C40.4375 17.9479 40.5938 17.7396 40.9062 17.4688C41.1979 17.1771 41.4167 17.0312 41.5625 17.0312ZM8.90625 11.6562L8.9375 10.4062L8.90625 8.5625C8.53125 8.58333 8.13542 8.61458 7.71875 8.65625C7.44792 8.67708 7.20833 8.6875 7 8.6875C6.5 8.6875 6.09375 8.61458 5.78125 8.46875C5.44792 8.34375 5.26042 8.14583 5.21875 7.875C5.30208 7.72917 5.42708 7.63542 5.59375 7.59375L6.34375 7.53125L7.90625 7.34375L9.03125 7C9.03125 6.70833 9.01042 6.30208 8.96875 5.78125C8.94792 5.28125 8.92708 4.90625 8.90625 4.65625C8.86458 4.40625 8.80208 4.125 8.71875 3.8125C8.63542 3.5 8.57292 3.28125 8.53125 3.15625L8.28125 2.71875L8.15625 2.3125C8.21875 2.16667 8.375 2.07292 8.625 2.03125C8.83333 2.03125 9.04167 2.05208 9.25 2.09375C9.52083 2.17708 9.78125 2.27083 10.0312 2.375C10.2812 2.5 10.5104 2.65625 10.7188 2.84375L11.0625 3.34375C11.0625 3.51042 11.0104 3.69792 10.9062 3.90625C10.8229 4.11458 10.7604 4.40625 10.7188 4.78125L10.5938 5.71875L10.5625 6.125L10.5312 6.84375C10.8646 6.76042 11.1562 6.67708 11.4062 6.59375C11.6146 6.53125 11.8229 6.5 12.0312 6.5L12.3438 6.5625C12.5312 6.625 12.75 6.73958 13 6.90625L13.4062 7.28125C13.4062 7.42708 13.3021 7.55208 13.0938 7.65625C12.8854 7.76042 12.5312 7.86458 12.0312 7.96875L10.5312 8.25L10.4688 9.875L10.4062 11.3438L11.4688 11.1562C11.8021 10.7604 12.0625 10.4375 12.25 10.1875C12.4167 9.95833 12.625 9.61458 12.875 9.15625C13.1042 8.71875 13.2917 8.34375 13.4375 8.03125C13.5625 7.69792 13.6354 7.39583 13.6562 7.125C13.6979 6.85417 13.7188 6.63542 13.7188 6.46875V6.03125L13.7812 5.75C13.8854 5.64583 14.0521 5.59375 14.2812 5.59375C14.4479 5.63542 14.6354 5.71875 14.8438 5.84375C15.0312 5.98958 15.2396 6.16667 15.4688 6.375C15.7188 6.58333 15.9062 6.78125 16.0312 6.96875L16.2188 7.34375C16.2188 7.51042 16.1771 7.65625 16.0938 7.78125L15.6562 8.21875L14.9062 9.28125L13.8438 10.7188C14.4062 10.6146 14.8646 10.5625 15.2188 10.5625C15.5938 10.5833 15.9688 10.6458 16.3438 10.75C16.7188 10.8542 16.9375 11.0417 17 11.3125L16.9688 11.625C16.8646 11.7708 16.6562 11.8438 16.3438 11.8438C15.9688 11.8438 15.4271 11.8854 14.7188 11.9688L12.6875 12.2188C11.6458 13.4271 10.9896 14.1667 10.7188 14.4375L9.40625 15.75C9.78125 15.6875 10.1042 15.625 10.375 15.5625C10.6458 15.5 10.9583 15.3854 11.3125 15.2188C11.6458 15.0521 11.9792 14.9479 12.3125 14.9062C12.6042 14.9062 12.8854 14.9688 13.1562 15.0938L13.9688 15.5C14.5938 15.8125 14.9062 16.0729 14.9062 16.2812L14.875 16.5938L14 17.0312L12.6562 17.875L11.1562 19.0312L11.4062 19.4688V20.5938L14.4375 19.7188L14.75 19.875C14.7708 20 14.6979 20.0938 14.5312 20.1562L11.4062 21.5938L11.3438 25.7812C11.3438 26.3229 11.3021 26.8021 11.2188 27.2188C11.1562 27.6146 11.0312 27.9688 10.8438 28.2812C10.6562 28.5729 10.4271 28.8021 10.1562 28.9688L9.65625 29.1562C9.51042 29.1354 9.35417 28.9479 9.1875 28.5938C9.04167 28.2188 8.86458 27.9167 8.65625 27.6875L8.03125 27.0312C7.82292 26.8229 7.65625 26.6667 7.53125 26.5625L7.0625 26.125L7.28125 25.9688L7.71875 26.0625L8.40625 26.3438C8.61458 26.4062 8.80208 26.4375 8.96875 26.4375L9.25 26.4062C9.47917 26.2812 9.65625 26.0625 9.78125 25.75C9.90625 25.4375 9.96875 25.0625 9.96875 24.625L10 22.2188L6.15625 24L5.5 24.4688H5.21875C5.05208 24.4271 4.86458 24.3229 4.65625 24.1562C4.44792 23.9896 4.22917 23.8021 4 23.5938C3.75 23.3854 3.67708 23.1146 3.78125 22.7812C4.03125 22.7604 4.34375 22.7188 4.71875 22.6562L5.40625 22.5L10 21.0938L9.96875 20.2188C9.96875 19.9896 9.91667 19.7708 9.8125 19.5625C9.70833 19.3333 9.5625 19.1458 9.375 19L9.21875 18.625L9.46875 18.4688C9.65625 18.4688 9.83333 18.4896 10 18.5312L10.5625 18.5938L11.5938 16.9688C11.7604 16.7188 11.8333 16.5 11.8125 16.3125C11.75 16.1875 11.625 16.1146 11.4375 16.0938C11.2917 16.0729 11.1042 16.1146 10.875 16.2188L10.2188 16.4375L9.65625 16.6562L9.03125 16.9688L8.71875 17.0625L8.21875 16.8438L7.15625 17.7188C6.76042 18.0104 6.0625 18.4583 5.0625 19.0625C4.04167 19.6667 3.21875 20.1146 2.59375 20.4062C1.96875 20.6771 1.48958 20.8438 1.15625 20.9062L0.25 20.8438L0.78125 20.4688L1.78125 19.9062C2.53125 19.4896 3.35417 18.9375 4.25 18.25C5.14583 17.5625 6.05208 16.8021 6.96875 15.9688C7.88542 15.1771 8.46875 14.625 8.71875 14.3125L10.3125 12.5625C9.20833 12.75 8.39583 12.8958 7.875 13L5.96875 13.4688C5.34375 13.6354 4.89583 13.7604 4.625 13.8438C4.35417 13.9271 4.13542 13.9688 3.96875 13.9688C3.80208 13.9688 3.5625 13.9271 3.25 13.8438C2.9375 13.7396 2.61458 13.5938 2.28125 13.4062C2.03125 13.2396 1.92708 13.0312 1.96875 12.7812C2.11458 12.6979 2.36458 12.625 2.71875 12.5625L3.3125 12.4688C4.45833 12.3438 5.26042 12.2396 5.71875 12.1562C6.17708 12.1146 6.66667 12.0417 7.1875 11.9375L8 11.8125L8.90625 11.6562ZM19.3438 12.1562L20.3438 11.9375C20.5938 11.875 21.1458 11.7188 22 11.4688C22.8542 11.2188 23.5208 10.9896 24 10.7812C24.4792 10.5938 24.8229 10.4792 25.0312 10.4375C25.2396 10.375 25.4688 10.3438 25.7188 10.3438C26.0729 10.3438 26.5208 10.4271 27.0625 10.5938C27.6042 10.7604 27.875 10.9375 27.875 11.125L27.7812 11.375C27.6562 11.5208 27.4479 11.6042 27.1562 11.625C26.8646 11.6458 26.3646 11.7292 25.6562 11.875C24.9688 12.0208 24.5625 12.1146 24.4375 12.1562L22.1562 12.5938C22.5312 12.8229 22.8125 13.0104 23 13.1562C23.1875 13.3229 23.3229 13.4688 23.4062 13.5938L23.5625 14.1562L23.2812 15C23.2188 15.1458 23.1667 15.3229 23.125 15.5312C23.1042 15.7396 22.9688 16.4583 22.7188 17.6875C22.4688 18.9167 22.3229 19.6042 22.2812 19.75L21.7188 21.2188C22.2604 21.8438 22.75 22.3646 23.1875 22.7812C23.625 23.1979 24.2188 23.6562 24.9688 24.1562C25.7188 24.6562 26.4271 25.0625 27.0938 25.375C27.7188 25.6875 28.3958 25.9688 29.125 26.2188L29.9062 26.7188L29.875 26.9375L29.2812 27.0938C29.1146 27.1771 28.7292 27.2396 28.125 27.2812C27.5417 27.3229 27.1562 27.3542 26.9688 27.375H26.2188C25.4271 27.375 24.8229 27.2812 24.4062 27.0938C24.0104 26.9271 23.6875 26.6875 23.4375 26.375C23.1667 26.0625 22.9062 25.6979 22.6562 25.2812L20.9062 22.6875C20.4688 23.1875 20.0521 23.6354 19.6562 24.0312C19.2396 24.4271 18.7188 24.8229 18.0938 25.2188C17.4271 25.5938 16.8021 25.8333 16.2188 25.9375C15.6354 26.0417 15.0833 26.1042 14.5625 26.125L13.8438 25.8438L14.4375 25.625C15 25.4375 15.4688 25.2604 15.8438 25.0938C16.2188 24.9271 16.7188 24.6042 17.3438 24.125C17.9688 23.6458 18.4479 23.2083 18.7812 22.8125C19.1354 22.4167 19.4062 22.0521 19.5938 21.7188L20.0312 21L19.4375 19.9688C19.3125 19.7812 19.0625 19.4271 18.6875 18.9062C18.3333 18.3646 18.0729 18 17.9062 17.8125C17.7396 17.625 17.5521 17.4792 17.3438 17.375L16.9375 16.9375C17.0208 16.8125 17.1562 16.75 17.3438 16.75C17.6771 16.7708 17.9062 16.7917 18.0312 16.8125C18.1562 16.8333 18.3438 16.9271 18.5938 17.0938C18.8646 17.2812 19.1146 17.5417 19.3438 17.875L20.6562 19.7188C20.8021 19.3646 20.9271 19.0417 21.0312 18.75C21.1146 18.4375 21.1979 17.9271 21.2812 17.2188C21.3646 16.5104 21.4271 15.8333 21.4688 15.1875C21.5104 14.7917 21.5312 14.4896 21.5312 14.2812L21.5 14.0312L21.2812 12.7812C20.9062 12.9062 20.6146 13.0104 20.4062 13.0938C20.1771 13.1562 19.9062 13.2083 19.5938 13.25H19.1562L18.7188 13.125L18 14.0312C17.7292 14.3854 17.3958 14.7604 17 15.1562C16.625 15.5729 16.3229 15.8542 16.0938 16L15.1875 16.25L15.5312 15.75C15.7812 15.4167 16.1042 14.9167 16.5 14.25C16.9167 13.6042 17.2812 13.0104 17.5938 12.4688C17.8854 11.9479 18.1979 11.3438 18.5312 10.6562L19.5938 8C20.0104 6.9375 20.3021 6.14583 20.4688 5.625C20.6354 5.10417 20.7396 4.64583 20.7812 4.25C20.8438 3.97917 20.8646 3.60417 20.8438 3.125L21 2.5625H21.25C21.5833 2.625 21.9271 2.76042 22.2812 2.96875C22.6562 3.21875 22.9271 3.46875 23.0938 3.71875C23.2396 3.90625 23.3021 4.11458 23.2812 4.34375C23.2396 4.46875 23.1354 4.625 22.9688 4.8125C22.8021 5 22.625 5.32292 22.4375 5.78125L21.0312 9.03125C20.7396 9.69792 20.3229 10.5 19.7812 11.4375L19.3438 12.1562Z" fill="#333333"/>
<path d="M83.8125 10.3125C83.6875 10.3125 83.5208 10.1771 83.3125 9.90625C83.1042 9.61458 83.0104 9.36458 83.0312 9.15625C83.0729 8.98958 83.1042 8.52083 83.125 7.75C83.1458 7.22917 83.1562 6.3125 83.1562 5C83.1562 4.08333 83.1458 3.46875 83.125 3.15625L82.0938 3.25C81.3646 3.35417 80.7396 3.40625 80.2188 3.40625C80.0729 3.40625 79.8646 3.29167 79.5938 3.0625C79.3229 2.83333 79.1875 2.66667 79.1875 2.5625C79.1875 2.39583 79.3646 2.33333 79.7188 2.375C79.9479 2.39583 80.625 2.38542 81.75 2.34375C83.2917 2.23958 84.4062 2.17708 85.0938 2.15625C85.4479 2.13542 85.7708 2.10417 86.0625 2.0625C86.375 2 86.5938 1.95833 86.7188 1.9375C86.9062 1.91667 87.0729 1.9375 87.2188 2C87.3646 2.0625 87.5 2.14583 87.625 2.25C87.7708 2.33333 87.8854 2.39583 87.9688 2.4375C88.1562 2.5625 88.25 2.67708 88.25 2.78125C88.25 2.86458 88.1979 2.94792 88.0938 3.03125C88.0104 3.09375 87.9167 3.125 87.8125 3.125C87.7083 3.125 87.5625 3.11458 87.375 3.09375C87.2083 3.07292 87.0208 3.0625 86.8125 3.0625C86.0417 3.0625 85.25 3.08333 84.4375 3.125C84.4167 3.29167 84.4062 3.70833 84.4062 4.375C84.3646 5.5 84.3438 6.60417 84.3438 7.6875V8.90625V9.1875C84.3438 9.54167 84.3125 9.77083 84.25 9.875C84.0625 10.1667 83.9167 10.3125 83.8125 10.3125ZM81.1562 17.9688C80.4688 17.7188 80.1458 17.4479 80.1875 17.1562C80.3125 16.2812 80.375 15.2812 80.375 14.1562C80.375 13.6562 80.3646 13.2917 80.3438 13.0625C80.3229 12.7917 80.3021 12.5625 80.2812 12.375C80.2604 12.1667 80.2604 12.0521 80.2812 12.0312C80.3646 11.9479 80.4688 11.9062 80.5938 11.9062C80.7812 11.9062 81.0104 11.9896 81.2812 12.1562C81.5729 12.3229 81.7188 12.4896 81.7188 12.6562C81.7188 12.7604 81.7083 12.8646 81.6875 12.9688C81.6667 13.0521 81.6562 13.1458 81.6562 13.25L81.4688 16.3438C81.4688 16.5104 81.5312 16.6146 81.6562 16.6562H81.8125C81.9792 16.6562 82.0938 16.6458 82.1562 16.625L86.1875 16.0625V15.25C86.1875 14.2292 86.1667 13.4375 86.125 12.875C86.1042 12.3958 86.0521 12.0104 85.9688 11.7188C85.9062 11.3854 85.9896 11.2188 86.2188 11.2188C86.3854 11.2188 86.6042 11.2812 86.875 11.4062C87.2083 11.5729 87.4062 11.7188 87.4688 11.8438C87.5312 11.9479 87.5521 12.1146 87.5312 12.3438C87.4896 12.7188 87.4688 13.2812 87.4688 14.0312L87.5 16.4062C87.5 16.9062 87.4062 17.3021 87.2188 17.5938C87.1146 17.7188 87.0104 17.7812 86.9062 17.7812C86.8021 17.7812 86.6562 17.6875 86.4688 17.5C86.4271 17.4583 86.375 17.3958 86.3125 17.3125C86.25 17.2292 86.1875 17.1771 86.125 17.1562C86.0625 17.1354 85.9792 17.125 85.875 17.125C85.3958 17.1667 84.2396 17.3229 82.4062 17.5938C82.0938 17.6354 81.8438 17.7188 81.6562 17.8438C81.4479 17.9479 81.3125 18 81.25 18L81.1562 17.9688ZM84.6562 28.75C84.0104 28.75 83.5104 28.7292 83.1562 28.6875C82.8229 28.6458 82.5417 28.5208 82.3125 28.3125C81.9167 28.0208 81.6458 27.3854 81.5 26.4062L81.4062 25.4062C81.4062 25.1562 81.3854 24.8438 81.3438 24.4688C81.0104 24.5104 80.7708 24.5521 80.625 24.5938C80.5833 24.6146 80.5104 24.6458 80.4062 24.6875C80.3229 24.7083 80.2604 24.7188 80.2188 24.7188C80.0729 24.7188 79.9375 24.6771 79.8125 24.5938C79.6875 24.5104 79.5312 24.3542 79.3438 24.125C79.1979 23.9375 79.125 23.8125 79.125 23.75C79.125 23.6875 79.1979 23.6458 79.3438 23.625C79.4896 23.6042 79.6875 23.5938 79.9375 23.5938C80.2917 23.5938 80.75 23.5521 81.3125 23.4688L81.2812 23.0312C81.2812 22.1979 81.2292 21.4896 81.125 20.9062L81.0938 20.6875C81.0938 20.3958 81.2083 20.2812 81.4375 20.3438C81.6875 20.4271 81.9167 20.5312 82.125 20.6562C82.2917 20.7396 82.4062 20.8229 82.4688 20.9062C82.5312 20.9688 82.5521 21.0625 82.5312 21.1875L82.4375 22.5312V23.3438L85.1875 23.0625C85.1875 22.9167 85.1979 22.5729 85.2188 22.0312C85.2396 21.4688 85.2396 21.1042 85.2188 20.9375C85.2188 20.7708 85.1979 20.6146 85.1562 20.4688C85.1354 20.3021 85.1146 20.1667 85.0938 20.0625C85.0938 19.8958 85.1771 19.8125 85.3438 19.8125C85.5104 19.8125 85.7188 19.9062 85.9688 20.0938C86.2604 20.2812 86.4479 20.4479 86.5312 20.5938C86.6354 20.7396 86.6562 20.9167 86.5938 21.125C86.4896 21.4583 86.4167 21.8333 86.375 22.25C86.3333 22.6667 86.3125 22.9167 86.3125 23C86.5625 22.9792 86.7917 22.9479 87 22.9062C87.2083 22.8646 87.3438 22.8438 87.4062 22.8438C87.5729 22.8021 87.7708 22.7812 88 22.7812C88.125 22.8021 88.3021 22.9271 88.5312 23.1562C88.7188 23.4062 88.8125 23.6042 88.8125 23.75C88.8125 23.9583 88.6146 24.0417 88.2188 24C87.8646 23.9375 87.5104 23.9062 87.1562 23.9062C86.8021 23.9062 86.5 23.9167 86.25 23.9375C86.1875 24.6875 86.0625 25.4271 85.875 26.1562C85.8333 26.3229 85.7604 26.4688 85.6562 26.5938C85.5521 26.6979 85.4583 26.75 85.375 26.75C85.2292 26.75 85.1354 26.6979 85.0938 26.5938C85.0729 26.4688 85.0625 26.2812 85.0625 26.0312C85.1042 25.4896 85.125 24.8125 85.125 24C84.5625 24.0417 84.125 24.0833 83.8125 24.125C83.3333 24.2292 82.8854 24.2917 82.4688 24.3125C82.4479 25.1667 82.4896 25.9271 82.5938 26.5938C82.6562 27.0312 82.7812 27.3333 82.9688 27.5C83.0938 27.6042 83.2396 27.6667 83.4062 27.6875C83.5938 27.7083 83.7812 27.7188 83.9688 27.7188C84.1562 27.7188 84.2812 27.7188 84.3438 27.7188C84.9896 27.7188 85.5938 27.6875 86.1562 27.625C86.3229 27.6042 86.4688 27.5625 86.5938 27.5C86.7396 27.4375 86.8438 27.4062 86.9062 27.4062C87.0938 27.4062 87.2812 27.4688 87.4688 27.5938C87.6562 27.7188 87.75 27.8646 87.75 28.0312C87.75 28.1979 87.6562 28.3229 87.4688 28.4062C87.3021 28.4896 87.0312 28.5625 86.6562 28.625C85.9896 28.7083 85.3229 28.75 84.6562 28.75ZM93.5625 14.5312C93.8125 14.5312 93.9375 14.6458 93.9375 14.875C93.9375 15 93.8229 15.1771 93.5938 15.4062C92.9688 16.1771 91.7292 17.6458 89.875 19.8125C89.7292 20 89.5938 20.0938 89.4688 20.0938C89.3646 20.0938 89.1354 19.9375 88.7812 19.625C88.4896 19.375 88.3438 19.1667 88.3438 19C88.3438 18.8125 88.5 18.6354 88.8125 18.4688C89.2917 18.1979 90.0104 17.6562 90.9688 16.8438C91.9271 15.9896 92.6354 15.3125 93.0938 14.8125C93.2812 14.625 93.4375 14.5312 93.5625 14.5312ZM55.5625 12.9062L54.5 7.0625C54.4583 6.83333 54.375 6.5 54.25 6.0625C54.1042 5.625 53.9688 5.3125 53.8438 5.125C53.7396 4.91667 53.6562 4.65625 53.5938 4.34375C53.6979 4.21875 53.8958 4.15625 54.1875 4.15625L55.1875 4.28125L55.6875 4.46875C55.9792 4.21875 56.2188 3.98958 56.4062 3.78125C56.5938 3.57292 56.7917 3.25 57 2.8125C57.2083 2.375 57.3542 2.09375 57.4375 1.96875L57.6875 1.78125H57.9688C58.1771 1.86458 58.4479 2.03125 58.7812 2.28125C59.0938 2.53125 59.3229 2.77083 59.4688 3L59.4375 3.5625C59.125 3.66667 58.8021 3.79167 58.4688 3.9375L57.625 4.3125L56 5.125L55.9375 5.9375L56.0312 7.25L57.9375 6.65625C58.1667 6.57292 58.375 6.52083 58.5625 6.5C58.7708 6.47917 58.9583 6.46875 59.125 6.46875L59.4375 6.59375L59.5312 7.09375C59.2604 7.30208 59 7.42708 58.75 7.46875L56.1562 7.9375L56.3125 8.90625L56.4375 9.78125L58.25 9.34375L58.8438 9.28125C59.2396 9.26042 59.5104 9.28125 59.6562 9.34375C59.8021 9.42708 59.8333 9.61458 59.75 9.90625C59.4583 10.0938 59.1771 10.1979 58.9062 10.2188L56.5625 10.5312L56.875 12.8438C59.7708 12.5938 61.4792 12.4271 62 12.3438L68.1875 11.75C68.2708 11 68.3333 10.5208 68.375 10.3125L68.5625 9.53125L66.75 9.65625H65.9688C65.6979 9.65625 65.4896 9.60417 65.3438 9.5L65.125 9.28125L65.1562 9.03125C65.2604 8.94792 65.4688 8.88542 65.7812 8.84375L67.75 8.46875L68.3438 8.34375L68.8125 8.46875L69.0938 6.34375L66.0625 6.5L65.4062 6.1875C65.4271 6.0625 65.5208 5.97917 65.6875 5.9375L66.375 5.84375L67.875 5.53125L68.5625 5.40625L69.25 5.46875L69.375 3.96875L69.3125 3.59375C69.1458 3.46875 68.9375 3.40625 68.6875 3.40625C68.4375 3.42708 68.2188 3.44792 68.0312 3.46875L67.2812 3.59375C66.9896 3.65625 66.7083 3.6875 66.4375 3.6875C66.2708 3.66667 66.0833 3.61458 65.875 3.53125L65.5625 3.0625C65.625 2.9375 65.75 2.875 65.9375 2.875C66.1042 2.85417 66.3229 2.82292 66.5938 2.78125L68.0312 2.46875L69.125 2.125L69.8125 1.96875C70.0208 1.94792 70.2188 1.96875 70.4062 2.03125C70.5938 2.09375 70.8021 2.19792 71.0312 2.34375C71.2396 2.46875 71.4583 2.63542 71.6875 2.84375L72.0312 3.25C72.0104 3.39583 71.9479 3.5625 71.8438 3.75C71.7188 3.9375 71.6042 4.15625 71.5 4.40625C71.375 4.65625 71.2812 4.875 71.2188 5.0625C71.1562 5.25 71.1042 5.46875 71.0625 5.71875L69.6875 11.5L71.375 11.2812L72 11.1562C72.375 11.0729 72.6771 11.0312 72.9062 11.0312C73.1354 11.0521 73.3438 11.1042 73.5312 11.1875C73.7188 11.2917 74 11.5 74.375 11.8125L75.375 12.625C75.7292 12.9375 75.9688 13.2188 76.0938 13.4688L76.25 13.9062C76.2083 14.0938 76.0417 14.2292 75.75 14.3125L74.5 14.4688C74.375 14.5104 73.9896 14.6146 73.3438 14.7812C72.6979 14.9479 72.3125 15.0417 72.1875 15.0625L71.2188 15.4062L70.75 15.1875L71.5625 14.0938C71.7708 13.8438 71.9479 13.5521 72.0938 13.2188L72.25 12.7188C72.2083 12.5938 72.0521 12.5208 71.7812 12.5C71.5104 12.4792 71.3021 12.4688 71.1562 12.4688L58.0625 13.75C57.6042 13.8125 57.0833 13.875 56.5 13.9375C55.9375 14.0208 55.4792 14.0938 55.125 14.1562C54.75 14.2188 54.4479 14.25 54.2188 14.25C53.9271 14.25 53.6979 14.2292 53.5312 14.1875L53.0312 14.0938L52.6875 15.0625C52.5625 15.4167 52.4375 15.7188 52.3125 15.9688C52.1875 16.2188 51.9896 16.5104 51.7188 16.8438C51.4479 17.1771 51.1458 17.375 50.8125 17.4375C50.6042 17.4375 50.4375 17.3958 50.3125 17.3125C50.1458 17.2083 50.0312 16.9896 49.9688 16.6562L49.9375 16.4062C49.9375 16.1354 49.9688 15.8958 50.0312 15.6875L50.4375 15.0312C50.7083 14.6562 50.9167 14.3021 51.0625 13.9688L51.5 12.9062C51.6458 12.4896 51.7708 12.1667 51.875 11.9375C51.9583 11.7292 52.1042 11.6146 52.3125 11.5938L52.6562 11.875C52.7604 12.0208 52.8542 12.2396 52.9375 12.5312L53.0312 13.0312C53.7188 13.0104 54.1458 12.9896 54.3125 12.9688L55.5625 12.9062ZM63.4688 18.5938L63.8125 19.0938L63.9375 19.9375L66.5 19.7188C66.9167 19.6771 67.6667 19.5938 68.75 19.4688C69.8333 19.3438 70.6146 19.2292 71.0938 19.125C71.5729 19 71.8958 18.9375 72.0625 18.9375C72.3125 18.9583 72.7083 19.0625 73.25 19.25C73.8125 19.4375 74.2292 19.6458 74.5 19.875C74.75 20.0833 74.8229 20.3333 74.7188 20.625C74.5312 20.75 74.3542 20.8125 74.1875 20.8125L72.9688 20.8438H70.625L68.3125 20.9375L65.875 20.9688L63.9375 21.0625L63.9062 24.7188C63.8854 24.8438 63.8646 25.2396 63.8438 25.9062C63.8021 26.5312 63.7604 27.0104 63.7188 27.3438C63.6771 27.6771 63.5729 28.0312 63.4062 28.4062C63.2604 28.7604 63.0312 29.0521 62.7188 29.2812C62.4688 29.4896 62.1875 29.5729 61.875 29.5312L61.25 28.8125C61 28.5 60.75 28.2188 60.5 27.9688L59.875 27.4062L59.25 26.7812L59.3438 26.4062L60.25 26.5312L61.125 26.7188L61.5938 26.7812C61.7812 26.6979 61.9062 26.5521 61.9688 26.3438C62.0312 26.1354 62.0833 25.7708 62.125 25.25L62.25 24.0938V21.2188L59.8125 21.4375C59.2708 21.5 58.7604 21.5625 58.2812 21.625C57.8021 21.6875 57.1354 21.8125 56.2812 22C55.4271 22.1667 54.7917 22.3021 54.375 22.4062C53.9583 22.5312 53.6562 22.5938 53.4688 22.5938C53.2604 22.5938 53.0208 22.5625 52.75 22.5C52.5 22.4167 52.2083 22.3021 51.875 22.1562C51.5417 22.0312 51.2917 21.8646 51.125 21.6562L50.875 21.2812C50.9167 21.1146 51.0833 21.0208 51.375 21L52.25 20.9688C52.7083 20.9688 53.6458 20.9062 55.0625 20.7812C56.4583 20.6562 57.5104 20.5521 58.2188 20.4688L62.125 20.0312C62.0833 19.7812 62.0417 19.5521 62 19.3438C61.9375 19.1354 61.8125 18.9271 61.625 18.7188L61.5625 18.0625C61.7292 18.0417 61.8958 18.0521 62.0625 18.0938L62.8125 18.3125L64.375 16.7188C64.5 16.5938 64.625 16.4271 64.75 16.2188L64.7188 15.75C64.5938 15.7292 64.4688 15.7292 64.3438 15.75L63.3125 15.9062L60 16.6562L58.875 16.9062L58.4375 16.9688C58.2292 16.9688 58.0625 16.9479 57.9375 16.9062C57.8125 16.8438 57.625 16.7188 57.375 16.5312L56.9375 15.9688C56.9583 15.8438 57.0417 15.7812 57.1875 15.7812C57.3542 15.7604 57.625 15.7292 58 15.6875L59.1875 15.5938C59.5208 15.5938 60.0521 15.5104 60.7812 15.3438L63.0625 14.9375C63.7292 14.7917 64.2604 14.6667 64.6562 14.5625C65.0521 14.4583 65.3333 14.3958 65.5 14.375C65.7083 14.375 65.8854 14.4062 66.0312 14.4688C66.1771 14.5104 66.5104 14.7083 67.0312 15.0625C67.5521 15.4167 67.8542 15.6562 67.9375 15.7812L68.0625 16.1875C68.0625 16.3333 67.8958 16.4583 67.5625 16.5625C67.2292 16.6667 66.9896 16.7396 66.8438 16.7812C66.6979 16.8438 66.5208 16.9271 66.3125 17.0312L63.4688 18.5938ZM61.9062 9.4375L61.25 8.78125L60.5938 8.15625L60.625 7.9375L62.375 8.6875C62.5 8.47917 62.5938 8.30208 62.6562 8.15625C62.7188 8.03125 62.7812 7.84375 62.8438 7.59375C62.9062 7.34375 62.9375 7.11458 62.9375 6.90625L63.0938 6.5H63.375C63.7083 6.60417 63.9583 6.71875 64.125 6.84375C64.2917 6.98958 64.4271 7.13542 64.5312 7.28125L64.6875 7.53125C64.6458 7.65625 64.5417 7.79167 64.375 7.9375C64.2083 8.08333 64.0521 8.23958 63.9062 8.40625L63.2188 9.21875C63.4896 9.34375 63.7396 9.46875 63.9688 9.59375C64.1979 9.71875 64.3542 9.86458 64.4375 10.0312C64.5208 10.1979 64.5729 10.4062 64.5938 10.6562C64.5938 10.8438 64.5417 11.0312 64.4375 11.2188L64.2812 11.4375L63.8125 11.4688C63.6458 11.3438 63.4479 11.1354 63.2188 10.8438L62.5625 10.0938L61.75 10.7812C61.5 10.9896 61.2292 11.1979 60.9375 11.4062L60.25 11.7812L60 11.625C60.2708 11.3333 60.4896 11.0938 60.6562 10.9062L61.9062 9.4375ZM62.0938 4.21875L60.8125 2.65625L62.5938 3.4375L62.8125 2.78125C62.8958 2.48958 62.9583 2.26042 63 2.09375L63.0312 1.71875L63.3125 1.28125C63.6042 1.32292 63.8542 1.40625 64.0625 1.53125C64.2708 1.65625 64.4479 1.80208 64.5938 1.96875L64.75 2.28125C64.7292 2.40625 64.6458 2.52083 64.5 2.625C64.375 2.72917 64.25 2.86458 64.125 3.03125L63.5 3.90625C63.7917 4.09375 64.0417 4.23958 64.25 4.34375C64.4375 4.46875 64.5729 4.59375 64.6562 4.71875C64.7604 4.86458 64.8125 5.05208 64.8125 5.28125C64.7917 5.53125 64.7292 5.72917 64.625 5.875C64.5417 6.02083 64.4167 6.11458 64.25 6.15625C64.1042 6.15625 63.9688 6.11458 63.8438 6.03125C63.6979 5.94792 63.5417 5.78125 63.375 5.53125L62.8125 4.90625C62.5208 5.19792 62.2708 5.45833 62.0625 5.6875L61.25 6.34375C60.9583 6.55208 60.6875 6.71875 60.4375 6.84375L60.2188 6.78125L60.5 6.34375L61.5 5.09375L62.0938 4.21875Z" fill="#333333"/>
<path d="M134.219 10.7188C134.073 10.7188 133.917 10.625 133.75 10.4375C133.625 10.2917 133.542 10.1771 133.5 10.0938C133.458 9.98958 133.458 9.85417 133.5 9.6875L133.531 8.9375C133.552 8.79167 133.562 8.4375 133.562 7.875V6.84375L132.625 7.28125L131.531 7.75C131.26 7.85417 130.979 7.97917 130.688 8.125C130.438 8.25 130.219 8.3125 130.031 8.3125C129.885 8.29167 129.719 8.23958 129.531 8.15625C129.344 8.07292 129.198 8 129.094 7.9375C128.865 7.79167 128.76 7.63542 128.781 7.46875L128.875 7.15625C128.875 6.98958 128.885 6.84375 128.906 6.71875L128.938 4.90625V3.21875C128.938 2.88542 128.917 2.60417 128.875 2.375C128.833 2.125 128.802 1.94792 128.781 1.84375C128.781 1.73958 128.812 1.66667 128.875 1.625C128.896 1.60417 128.948 1.59375 129.031 1.59375C129.177 1.59375 129.458 1.6875 129.875 1.875C130.229 2.04167 130.375 2.25 130.312 2.5C130.271 2.64583 130.229 2.86458 130.188 3.15625L130.094 6.75C130.094 6.85417 130.104 6.9375 130.125 7C130.167 7.04167 130.208 7.0625 130.25 7.0625C130.5 7.0625 130.802 6.98958 131.156 6.84375C131.823 6.63542 132.396 6.42708 132.875 6.21875L133.562 5.9375V3.875C133.562 3.04167 133.51 2.23958 133.406 1.46875C133.385 1.40625 133.375 1.33333 133.375 1.25C133.375 1.04167 133.458 0.9375 133.625 0.9375C133.646 0.9375 133.76 0.979167 133.969 1.0625C134.281 1.22917 134.51 1.375 134.656 1.5C134.802 1.625 134.885 1.69792 134.906 1.71875C134.99 1.78125 135.031 1.84375 135.031 1.90625C135.031 1.94792 135.01 2 134.969 2.0625C134.948 2.125 134.927 2.17708 134.906 2.21875L134.812 3.15625L134.781 6.03125L134.812 8.8125C134.812 9.29167 134.781 9.70833 134.719 10.0625C134.615 10.5 134.448 10.7188 134.219 10.7188ZM128.469 15.8438C128.24 15.8438 127.958 15.6667 127.625 15.3125C127.375 15.0625 127.25 14.875 127.25 14.75C127.25 14.6875 127.292 14.6562 127.375 14.6562C127.458 14.6354 127.562 14.625 127.688 14.625L128.375 14.5938C128.771 14.5938 129.031 14.5833 129.156 14.5625C129.552 14.5625 129.885 14.5521 130.156 14.5312C131.948 14.3646 133.156 14.2292 133.781 14.125C134.094 14.0833 134.375 14.0417 134.625 14C134.875 13.9375 135.073 13.9062 135.219 13.9062C135.51 13.9062 135.802 14.0521 136.094 14.3438C136.323 14.5729 136.438 14.7604 136.438 14.9062C136.438 15.0312 136.365 15.1146 136.219 15.1562C136.115 15.1771 135.5 15.2188 134.375 15.2812C133.75 15.3021 132.979 15.3542 132.062 15.4375C131.146 15.5208 130.344 15.6042 129.656 15.6875C129.531 15.7083 129.354 15.7396 129.125 15.7812C128.896 15.8229 128.677 15.8438 128.469 15.8438ZM135.188 26.625C135.229 26.7083 135.302 26.8333 135.406 27C135.51 27.1667 135.562 27.3646 135.562 27.5938C135.562 27.8021 135.479 27.9688 135.312 28.0938C135.146 28.2396 134.958 28.3125 134.75 28.3125C134.562 28.3125 134.406 28.125 134.281 27.75C134.219 27.6042 134.167 27.4792 134.125 27.375C134.104 27.2917 134.083 27.2188 134.062 27.1562C133.792 27.2396 133.438 27.3125 133 27.375C132.562 27.4375 132.25 27.4896 132.062 27.5312C131.062 27.7188 130.375 27.8542 130 27.9375C129.854 27.9792 129.698 28.0208 129.531 28.0625C129.365 28.125 129.271 28.1667 129.25 28.1875C129.125 28.2292 129.031 28.25 128.969 28.25C128.802 28.25 128.646 28.1771 128.5 28.0312C128.25 27.8438 128.062 27.5938 127.938 27.2812C127.917 27.2604 127.906 27.2292 127.906 27.1875C127.906 27.1458 127.958 27.0938 128.062 27.0312C128.188 26.9688 128.281 26.9271 128.344 26.9062C128.615 26.7604 129.094 26.3229 129.781 25.5938L130.625 24.7812L128.781 23.7812C128.573 23.7188 128.438 23.6458 128.375 23.5625C128.312 23.4792 128.281 23.3542 128.281 23.1875C128.281 23.0625 128.302 22.9792 128.344 22.9375C128.406 22.875 128.531 22.7812 128.719 22.6562C128.906 22.5312 129.094 22.3646 129.281 22.1562C129.385 22.0312 129.521 21.8958 129.688 21.75C129.854 21.6042 130.01 21.4479 130.156 21.2812C130.781 20.5521 131.177 19.9792 131.344 19.5625C131.448 19.3542 131.531 19.25 131.594 19.25C131.635 19.25 131.719 19.2917 131.844 19.375C132.24 19.6667 132.479 19.9375 132.562 20.1875V20.2812C132.562 20.3854 132.51 20.4688 132.406 20.5312C132.302 20.5938 132.229 20.6458 132.188 20.6875C132.125 20.7292 131.812 21.0312 131.25 21.5938L130.688 22.1562C130.583 22.2604 130.406 22.4375 130.156 22.6875C129.906 22.9167 129.781 23.0521 129.781 23.0938C129.781 23.1562 129.812 23.2083 129.875 23.25C129.958 23.2917 130.021 23.3333 130.062 23.375L131.375 24C132.188 23.1875 132.656 22.7083 132.781 22.5625C133.323 21.9375 133.625 21.5417 133.688 21.375C133.708 21.3542 133.74 21.3021 133.781 21.2188C133.823 21.1354 133.865 21.0938 133.906 21.0938C133.969 21.0938 134.031 21.125 134.094 21.1875C134.427 21.5 134.667 21.7917 134.812 22.0625C134.854 22.1458 134.875 22.1979 134.875 22.2188C134.875 22.2604 134.823 22.3229 134.719 22.4062C134.635 22.4688 134.552 22.5312 134.469 22.5938C133.74 23.1979 132.885 23.9896 131.906 24.9688L130 26.75C129.958 26.7917 129.938 26.8333 129.938 26.875C129.938 26.9167 129.958 26.9479 130 26.9688C130.042 26.9896 130.104 26.9896 130.188 26.9688L133.844 26.3438C133.74 25.9271 133.615 25.5104 133.469 25.0938V25.0312C133.469 24.9688 133.5 24.9375 133.562 24.9375C133.646 24.9375 133.771 25 133.938 25.125C134.271 25.4167 134.688 25.9167 135.188 26.625ZM108.719 21.4688L107.938 20.4688C107.604 20.0521 107.271 19.6562 106.938 19.2812C106.625 18.9062 106.375 18.6354 106.188 18.4688C106.021 18.3021 105.75 18.0625 105.375 17.75C105.021 17.4375 104.708 17.2188 104.438 17.0938C104.188 16.9688 103.958 16.7917 103.75 16.5625C103.792 16.3958 103.896 16.2812 104.062 16.2188C104.229 16.1771 104.438 16.1562 104.688 16.1562C105.146 16.1562 105.49 16.2292 105.719 16.375C105.948 16.5 106.229 16.7396 106.562 17.0938C106.854 17.4688 107.156 17.8229 107.469 18.1562C107.76 18.4688 108.125 18.8229 108.562 19.2188L109.125 19.75L109.688 20.2812L110.25 19.4062C110.417 19.1146 110.625 18.6354 110.875 17.9688C111.125 17.3021 111.302 16.7604 111.406 16.3438C111.51 15.9271 111.583 15.5312 111.625 15.1562C111.625 14.8854 111.594 14.6354 111.531 14.4062L111.5 13.9062C111.583 13.7604 111.708 13.6771 111.875 13.6562C112.042 13.6562 112.271 13.7083 112.562 13.8125C112.854 13.9375 113.135 14.0729 113.406 14.2188C113.677 14.3854 113.938 14.5938 114.188 14.8438C114.438 15.1354 114.562 15.3854 114.562 15.5938C114.542 15.7188 114.49 15.8333 114.406 15.9375L114 16.3438C113.875 16.4688 113.688 16.8125 113.438 17.375C113.188 17.9167 112.906 18.4792 112.594 19.0625C112.281 19.6667 112 20.1562 111.75 20.5312L111.094 21.4375L112.031 22.2188C112.344 22.4479 112.896 22.7917 113.688 23.25C114.479 23.6875 115.25 24.0729 116 24.4062C116.75 24.7396 117.448 25 118.094 25.1875C118.76 25.375 119.542 25.5833 120.438 25.8125C121.312 26.0208 121.938 26.1771 122.312 26.2812L123.438 26.5625L123.75 26.8125C123.708 26.9583 123.615 27.0625 123.469 27.125C123.323 27.1875 123.083 27.2604 122.75 27.3438C122.396 27.4271 121.75 27.5521 120.812 27.7188C119.875 27.9271 119.104 28.0521 118.5 28.0938C118.104 28.1562 117.719 28.1875 117.344 28.1875C117.177 28.1875 117 28.1771 116.812 28.1562C116.271 28.1354 115.823 28.0521 115.469 27.9062C115.115 27.7812 114.667 27.4688 114.125 26.9688L112.312 25.2188L111.25 24.1875L110.438 23.3438L110 22.9062C109.542 23.3438 109.073 23.7604 108.594 24.1562C108.115 24.5729 107.458 25.0312 106.625 25.5312C105.792 26.0312 105 26.4271 104.25 26.7188C103.458 27.0104 102.677 27.2083 101.906 27.3125C101.135 27.4167 100.479 27.4792 99.9375 27.5H98.6875L98.2188 27.375L98.3125 27.0625L98.7188 26.9688C98.9479 26.9271 99.2917 26.8438 99.75 26.7188L101.5 26.2188C102.208 25.9688 102.938 25.6562 103.688 25.2812C104.479 24.9062 105.333 24.3958 106.25 23.75C107.167 23.1042 107.75 22.6354 108 22.3438L108.719 21.4688ZM99.4688 17.2812L99.9375 16.9062L100.312 16.5625L101.125 15.8125C101.438 15.5 101.729 15.1771 102 14.8438C102.292 14.5521 102.583 14.2188 102.875 13.8438C103.167 13.4688 103.396 13.1146 103.562 12.7812C103.75 12.4896 103.865 12.2812 103.906 12.1562C103.927 12.0312 103.969 11.8646 104.031 11.6562C104.073 11.4479 104.104 11.2708 104.125 11.125L104.344 10.8125C104.531 10.7708 104.75 10.8021 105 10.9062C105.25 10.9896 105.458 11.0833 105.625 11.1875L106.25 11.5938C106.479 11.7604 106.667 11.9167 106.812 12.0625L107 12.4062L106.875 12.6562C106.708 12.7396 106.552 12.8229 106.406 12.9062C106.26 12.9896 106.104 13.0938 105.938 13.2188C105.771 13.3438 105.479 13.6146 105.062 14.0312L103.938 15.0625C103.604 15.375 103.292 15.6354 103 15.8438L101.875 16.5938L100.844 17.1562C100.615 17.2604 100.333 17.375 100 17.5H99.2812L99.4688 17.2812ZM109.312 7.34375L108.688 6.71875C108.562 6.55208 108.333 6.21875 108 5.71875L107.438 4.875L107.125 4.21875L106.781 3.40625L107.062 3.21875L107.812 3.34375C108.021 3.38542 108.396 3.51042 108.938 3.71875C109.479 3.92708 109.896 4.13542 110.188 4.34375C110.521 4.55208 110.74 4.8125 110.844 5.125C110.969 5.4375 111.042 5.69792 111.062 5.90625C111.062 6.19792 111.042 6.40625 111 6.53125L110.75 7.15625L113.5 6.75L114.562 6.53125L116.062 6.3125C116.708 6.20833 117.125 6.15625 117.312 6.15625C117.583 6.15625 117.833 6.19792 118.062 6.28125C118.312 6.36458 118.646 6.53125 119.062 6.78125C119.5 7.01042 119.74 7.20833 119.781 7.375L119.75 7.65625L119.625 7.9375C119.458 8 118.865 8.05208 117.844 8.09375L113.062 8.40625C112.354 8.44792 111.635 8.5 110.906 8.5625C110.177 8.625 109.573 8.69792 109.094 8.78125C108.615 8.82292 107.979 8.90625 107.188 9.03125C106.396 9.15625 105.625 9.27083 104.875 9.375C104.146 9.47917 103.51 9.60417 102.969 9.75C102.469 9.875 102.094 9.9375 101.844 9.9375C101.531 9.9375 101.135 9.85417 100.656 9.6875C100.177 9.52083 99.875 9.375 99.75 9.25L99.5625 8.875C99.6458 8.72917 99.9062 8.625 100.344 8.5625L109.312 7.34375ZM112.188 10.3125L112.75 10.4375C112.958 10.5 113.302 10.6146 113.781 10.7812C114.26 10.9479 114.729 11.125 115.188 11.3125C115.646 11.5 116.125 11.7292 116.625 12C117.125 12.2708 117.479 12.5104 117.688 12.7188C117.896 12.9688 118.062 13.2188 118.188 13.4688C118.271 13.7188 118.323 13.9896 118.344 14.2812C118.344 14.5729 118.292 14.8542 118.188 15.125L117.906 15.5312L117.594 15.6562C117.385 15.6562 117.177 15.6042 116.969 15.5C116.74 15.3958 116.49 15.2188 116.219 14.9688C115.948 14.7188 115.625 14.3854 115.25 13.9688L114.031 12.5938C113.594 12.1354 113.208 11.75 112.875 11.4375L112.094 10.7812L111.938 10.375L112.188 10.3125Z" fill="#333333"/>
<path d="M180.531 10.625C180.198 10.625 179.99 10.5312 179.906 10.3438C179.802 10.0938 179.698 9.88542 179.594 9.71875C179.49 9.53125 179.302 9.3125 179.031 9.0625L179.094 8.9375C179.844 9.20833 180.333 9.34375 180.562 9.34375C180.729 9.34375 180.854 9.3125 180.938 9.25C181.021 9.1875 181.156 9.04167 181.344 8.8125C181.615 8.52083 181.865 8.07292 182.094 7.46875C182.406 6.57292 182.604 5.64583 182.688 4.6875V4.59375C182.688 4.46875 182.667 4.38542 182.625 4.34375C182.354 4.34375 181.635 4.40625 180.469 4.53125C179.823 6.13542 179.073 7.45833 178.219 8.5C177.385 9.52083 176.625 10.0312 175.938 10.0312C175.771 10.0312 175.688 9.96875 175.688 9.84375C175.688 9.80208 175.896 9.5625 176.312 9.125C176.729 8.6875 177.188 8.11458 177.688 7.40625C178.208 6.67708 178.698 5.78125 179.156 4.71875C179.052 4.71875 178.75 4.73958 178.25 4.78125C177.75 4.82292 177.323 4.89583 176.969 5C176.802 5.125 176.625 5.14583 176.438 5.0625C176.438 5.0625 176.417 5.05208 176.375 5.03125C176.333 5.01042 176.292 4.97917 176.25 4.9375C176.104 4.85417 175.979 4.75 175.875 4.625C175.792 4.47917 175.75 4.34375 175.75 4.21875C175.75 4.15625 175.802 4.07292 175.906 3.96875L176.281 3.46875C176.406 3.30208 176.521 3.0625 176.625 2.75C176.729 2.41667 176.781 2.13542 176.781 1.90625C176.781 1.76042 176.771 1.66667 176.75 1.625C176.729 1.58333 176.719 1.53125 176.719 1.46875C176.719 1.36458 176.771 1.3125 176.875 1.3125C177 1.3125 177.177 1.38542 177.406 1.53125C177.469 1.57292 177.583 1.65625 177.75 1.78125C177.938 1.88542 178.042 2.01042 178.062 2.15625C178.062 2.30208 177.979 2.54167 177.812 2.875L177.406 3.59375C177.365 3.65625 177.344 3.72917 177.344 3.8125C177.344 3.875 177.365 3.92708 177.406 3.96875C177.469 3.98958 177.542 3.98958 177.625 3.96875L179.5 3.71875C179.708 3.17708 179.875 2.60417 180 2V1.8125V1.28125C180 1.05208 180.062 0.958333 180.188 1C180.458 1.0625 180.677 1.14583 180.844 1.25C181.156 1.4375 181.312 1.59375 181.312 1.71875C181.312 1.82292 181.271 2 181.188 2.25C181.125 2.47917 181.073 2.65625 181.031 2.78125C181.01 2.86458 180.917 3.13542 180.75 3.59375C180.812 3.59375 181.198 3.55208 181.906 3.46875L182.219 3.40625C182.281 3.40625 182.396 3.38542 182.562 3.34375C182.604 3.32292 182.656 3.3125 182.719 3.3125C182.969 3.3125 183.125 3.32292 183.188 3.34375C183.271 3.36458 183.396 3.42708 183.562 3.53125C183.75 3.65625 183.875 3.78125 183.938 3.90625C184 4.03125 184.021 4.17708 184 4.34375L183.812 5.375L183.594 6.5C183.594 6.58333 183.521 6.85417 183.375 7.3125C183.229 7.77083 183.062 8.17708 182.875 8.53125C182.521 9.23958 182.104 9.77083 181.625 10.125C181.208 10.4583 180.844 10.625 180.531 10.625ZM176.469 15.8438C176.24 15.8438 175.958 15.6667 175.625 15.3125C175.375 15.0625 175.25 14.875 175.25 14.75C175.25 14.6875 175.292 14.6562 175.375 14.6562C175.458 14.6354 175.562 14.625 175.688 14.625L176.375 14.5938C176.771 14.5938 177.031 14.5833 177.156 14.5625C177.552 14.5625 177.885 14.5521 178.156 14.5312C179.948 14.3646 181.156 14.2292 181.781 14.125C182.094 14.0833 182.375 14.0417 182.625 14C182.875 13.9375 183.073 13.9062 183.219 13.9062C183.51 13.9062 183.802 14.0521 184.094 14.3438C184.323 14.5729 184.438 14.7604 184.438 14.9062C184.438 15.0312 184.365 15.1146 184.219 15.1562C184.115 15.1771 183.5 15.2188 182.375 15.2812C181.75 15.3021 180.979 15.3542 180.062 15.4375C179.146 15.5208 178.344 15.6042 177.656 15.6875C177.531 15.7083 177.354 15.7396 177.125 15.7812C176.896 15.8229 176.677 15.8438 176.469 15.8438ZM183.812 28.1562C183.792 28.1771 183.74 28.1875 183.656 28.1875C183.49 28.1875 183.25 28.0729 182.938 27.8438C182.229 27.1354 181.302 26.2604 180.156 25.2188C179.615 25.7604 179.104 26.2292 178.625 26.625C178.458 26.75 178.167 26.9375 177.75 27.1875C177.146 27.5417 176.562 27.7604 176 27.8438H175.812C175.625 27.8438 175.51 27.8229 175.469 27.7812C175.448 27.7604 175.49 27.7188 175.594 27.6562C175.719 27.5938 175.812 27.5417 175.875 27.5C176 27.4375 176.354 27.2083 176.938 26.8125C177.229 26.6042 177.646 26.25 178.188 25.75C178.729 25.25 179.125 24.8438 179.375 24.5312L178.094 23.5312C177.865 23.3646 177.615 23.1875 177.344 23C177.094 22.7917 176.917 22.6562 176.812 22.5938L176.781 22.5C176.781 22.375 176.885 22.3125 177.094 22.3125C177.344 22.3125 177.75 22.4688 178.312 22.7812L179.906 23.8125C180.26 23.3542 180.615 22.8542 180.969 22.3125C181.344 21.75 181.542 21.4167 181.562 21.3125C181.583 21.25 181.573 21.1979 181.531 21.1562C181.51 21.0938 181.469 21.0625 181.406 21.0625H180.781L179.656 21.1562C179.094 21.1979 178.531 21.2708 177.969 21.375C177.906 21.3958 177.802 21.4271 177.656 21.4688C177.51 21.5104 177.385 21.5312 177.281 21.5312C177.24 21.5312 177.062 21.4167 176.75 21.1875C176.458 20.9375 176.302 20.7812 176.281 20.7188C176.26 20.6979 176.25 20.6667 176.25 20.625C176.25 20.5208 176.365 20.4792 176.594 20.5C176.823 20.5 176.969 20.5 177.031 20.5C177.615 20.5 178.458 20.4479 179.562 20.3438L180.625 20.25L181.594 20.125C181.906 20.0417 182.083 20 182.125 20H182.188C182.292 20 182.385 20.0312 182.469 20.0938C182.552 20.1562 182.615 20.2188 182.656 20.2812C182.698 20.3438 182.729 20.3854 182.75 20.4062C182.771 20.4271 182.833 20.4896 182.938 20.5938C183.042 20.6771 183.104 20.7604 183.125 20.8438C183.167 20.9062 183.188 20.9792 183.188 21.0625C183.188 21.25 183.115 21.3854 182.969 21.4688C182.865 21.5104 182.677 21.7292 182.406 22.125C181.948 22.8542 181.396 23.6354 180.75 24.4688C181.104 24.6979 181.562 25.0312 182.125 25.4688C182.375 25.6354 182.781 25.9167 183.344 26.3125C183.594 26.5 183.781 26.75 183.906 27.0625C183.99 27.3958 184.031 27.6458 184.031 27.8125C184.01 27.9792 183.938 28.0938 183.812 28.1562ZM189.562 14.5312C189.812 14.5312 189.938 14.6458 189.938 14.875C189.938 15 189.823 15.1771 189.594 15.4062C188.969 16.1771 187.729 17.6458 185.875 19.8125C185.729 20 185.594 20.0938 185.469 20.0938C185.365 20.0938 185.135 19.9375 184.781 19.625C184.49 19.375 184.344 19.1667 184.344 19C184.344 18.8125 184.5 18.6354 184.812 18.4688C185.292 18.1979 186.01 17.6562 186.969 16.8438C187.927 15.9896 188.635 15.3125 189.094 14.8125C189.281 14.625 189.438 14.5312 189.562 14.5312ZM146.188 11.8438L145.438 10.7812L145.688 10.5312L146.75 10.7812C146.896 10.8229 147.25 10.9167 147.812 11.0625C148.375 11.2083 148.781 11.3646 149.031 11.5312C149.281 11.6771 149.479 11.875 149.625 12.125C149.771 12.3958 149.844 12.7083 149.844 13.0625C149.844 13.4167 149.792 13.6875 149.688 13.875L149.469 14.125C149.344 14.2083 149.083 14.2396 148.688 14.2188C148.333 14.1146 147.99 13.8854 147.656 13.5312C147.302 13.1979 147.052 12.9375 146.906 12.75C146.74 12.5625 146.5 12.2604 146.188 11.8438ZM151.031 16.2812L151.781 14.9062L152.125 14.6562L152.375 14.7812L152.344 15.0938L151.906 16.2812C151.656 17.0729 151.479 17.5938 151.375 17.8438C151.271 18.0938 151.031 18.6354 150.656 19.4688C150.302 20.3021 149.99 21.0729 149.719 21.7812L148.906 23.9062C148.656 24.4479 148.458 24.9271 148.312 25.3438C148.167 25.7604 148.01 26.0521 147.844 26.2188L147.469 26.4062C147.302 26.4062 147.146 26.3125 147 26.125C146.854 25.9375 146.729 25.6875 146.625 25.375C146.5 25.0625 146.396 24.7604 146.312 24.4688C146.229 24.1771 146.156 23.8854 146.094 23.5938L146.062 23.3438L146.094 23C146.156 22.8542 146.323 22.6667 146.594 22.4375L147.531 21.5625C147.865 21.2083 148.177 20.8333 148.469 20.4375C148.76 20.0417 149.073 19.5833 149.406 19.0625C149.781 18.5417 150.052 18.1354 150.219 17.8438C150.385 17.5521 150.656 17.0312 151.031 16.2812ZM149.594 5.9375L149.156 5.34375L148.969 4.9375C148.99 4.8125 149.135 4.76042 149.406 4.78125L150.219 4.90625C150.406 4.94792 150.76 5.05208 151.281 5.21875C151.781 5.38542 152.135 5.55208 152.344 5.71875C152.552 5.90625 152.719 6.11458 152.844 6.34375C152.969 6.59375 153.031 6.86458 153.031 7.15625C153.031 7.42708 153 7.63542 152.938 7.78125C152.854 7.90625 152.729 8.02083 152.562 8.125C152.417 8.20833 152.25 8.25 152.062 8.25C151.75 8.22917 151.448 8.08333 151.156 7.8125C150.865 7.52083 150.573 7.20833 150.281 6.875C150.01 6.54167 149.781 6.22917 149.594 5.9375ZM151.875 26.4688L152.469 26.0312C152.656 25.9062 152.906 25.6562 153.219 25.2812C153.552 24.9062 153.823 24.5625 154.031 24.25C154.281 23.9375 154.5 23.5521 154.688 23.0938C154.875 22.6354 155.031 22.1667 155.156 21.6875C155.281 21.1875 155.365 20.75 155.406 20.375C155.448 20.0208 155.469 19.6771 155.469 19.3438C155.448 18.8438 155.385 18.4792 155.281 18.25C155.198 18.0417 155.094 17.8229 154.969 17.5938L154.812 17.1875L155.125 16.9062C155.271 16.8854 155.406 16.8854 155.531 16.9062C155.865 16.9688 156.156 17.0521 156.406 17.1562C156.698 17.2396 156.927 17.3438 157.094 17.4688L157.438 17.9688L157.312 18.4375C157.208 18.6875 157.146 18.9896 157.125 19.3438C157.083 19.7188 157.031 20.1042 156.969 20.5C156.927 20.8958 156.833 21.3542 156.688 21.875C156.542 22.3958 156.344 22.8958 156.094 23.375C155.844 23.8542 155.51 24.3229 155.094 24.7812C154.677 25.2812 154.281 25.6458 153.906 25.875C153.49 26.1042 153.135 26.2917 152.844 26.4375L151.656 26.7188L151.875 26.4688ZM160.719 6.84375L163.469 6.40625C164.344 6.28125 165.042 6.16667 165.562 6.0625C165.938 5.95833 166.292 5.92708 166.625 5.96875L167.5 6.25C168.021 6.45833 168.354 6.63542 168.5 6.78125L168.656 7.09375C168.615 7.26042 168.51 7.34375 168.344 7.34375L167.719 7.375L165.875 7.46875C164.188 7.55208 162.938 7.65625 162.125 7.78125L159.969 8.09375L158.031 11.4688C157.656 12.0938 157.427 12.5208 157.344 12.75L157.438 13.2812C157.708 13.3021 157.99 13.2917 158.281 13.25L159.375 13.0938L164.906 12.1562L163.812 10.7812C163.562 10.4896 163.354 10.2396 163.188 10.0312L163.219 9.625L164 9.8125C164.521 10 165.135 10.2917 165.844 10.6875C166.531 11.0833 167.01 11.4271 167.281 11.7188C167.573 12.0312 167.771 12.3125 167.875 12.5625C167.979 12.8333 168.042 13.1146 168.062 13.4062C168.062 13.7188 167.99 14.0104 167.844 14.2812L167.656 14.5625L167.312 14.7188C167.167 14.7188 167.031 14.6875 166.906 14.625C166.76 14.5417 166.615 14.4167 166.469 14.25L165.312 12.9375L159.969 14.0938L158.781 14.4062L157.656 14.6562C157.427 14.7396 157.167 14.8438 156.875 14.9688L156.406 15.2188L156 15.3438C155.812 15.3021 155.635 15.1771 155.469 14.9688C155.302 14.7604 155.167 14.5208 155.062 14.25C154.958 13.9792 154.896 13.7083 154.875 13.4375V13.1562C154.896 13.0312 155.073 12.8646 155.406 12.6562C155.719 12.4479 155.99 12.1979 156.219 11.9062C156.469 11.5729 156.708 11.2188 156.938 10.8438C157.167 10.4479 157.448 9.92708 157.781 9.28125L158.312 8.28125C157.792 8.40625 157.375 8.48958 157.062 8.53125C156.75 8.57292 156.438 8.63542 156.125 8.71875L155.625 8.8125C155.479 8.8125 155.177 8.75 154.719 8.625C154.26 8.5 153.979 8.36458 153.875 8.21875L153.75 7.875L154.188 7.71875L155.719 7.53125L156.656 7.40625L157.688 7.28125L158.875 7.09375C159.104 6.61458 159.271 6.23958 159.375 5.96875C159.479 5.69792 159.615 5.32292 159.781 4.84375C159.948 4.36458 160.062 3.98958 160.125 3.71875C160.188 3.42708 160.229 3.15625 160.25 2.90625L160.281 2C160.323 1.72917 160.438 1.53125 160.625 1.40625C160.812 1.38542 160.99 1.41667 161.156 1.5C161.323 1.58333 161.531 1.76042 161.781 2.03125C162.052 2.30208 162.26 2.54167 162.406 2.75C162.531 2.95833 162.635 3.17708 162.719 3.40625L162.781 3.8125C162.74 3.95833 162.646 4.10417 162.5 4.25C162.354 4.39583 162.135 4.64583 161.844 5L161.406 5.59375L160.719 6.84375ZM161.656 19.0312L161.531 23.0938C161.531 23.3438 161.542 23.6458 161.562 24C161.583 24.25 161.594 24.4792 161.594 24.6875C161.573 25.0417 161.49 25.3542 161.344 25.625C161.219 25.9167 161.094 26.1146 160.969 26.2188C160.865 26.3438 160.708 26.4167 160.5 26.4375L160.125 25.8438C159.979 25.6146 159.885 25.4062 159.844 25.2188C159.781 25.0521 159.75 24.875 159.75 24.6875C159.75 24.5208 159.771 24.3333 159.812 24.125L159.938 23.25C160.042 22.5208 160.094 22.0417 160.094 21.8125L160.188 19.2812C160.188 19.0312 160.177 18.8229 160.156 18.6562C160.115 18.4896 160.062 18.2083 160 17.8125C159.917 17.4167 159.833 17.1354 159.75 16.9688L159.625 16.6562L159.906 16.375C160.24 16.375 160.521 16.4167 160.75 16.5C160.979 16.5625 161.219 16.6562 161.469 16.7812L161.844 16.9688L161.906 17.5C161.781 17.8333 161.708 18.1458 161.688 18.4375C161.667 18.7083 161.656 18.9062 161.656 19.0312ZM165.125 18.7188C165.083 18.1354 165.052 17.7188 165.031 17.4688C165.031 17.2188 165.01 17.0104 164.969 16.8438C164.948 16.6771 164.896 16.5 164.812 16.3125L164.688 15.9688L164.781 15.7188L165.031 15.5938C165.177 15.5938 165.312 15.6146 165.438 15.6562L166.344 15.9062C166.635 16.0312 166.885 16.1562 167.094 16.2812C167.302 16.4062 167.406 16.5729 167.406 16.7812C167.427 16.9479 167.385 17.1562 167.281 17.4062C167.177 17.6562 167.104 17.9062 167.062 18.1562C167.021 18.4062 166.969 18.7396 166.906 19.1562L166.781 20.4375C166.74 20.875 166.698 21.6354 166.656 22.7188V23.4688C166.656 24.1146 166.698 24.5104 166.781 24.6562C166.865 24.8021 167.01 24.9479 167.219 25.0938C167.427 25.2188 167.688 25.3021 168 25.3438C168.229 25.3854 168.5 25.4062 168.812 25.4062C169.042 25.4062 169.302 25.3854 169.594 25.3438C169.885 25.3229 170.188 25.2604 170.5 25.1562L171.062 25.0312C171.271 25.0104 171.458 25.0521 171.625 25.1562L172.188 25.5312C172.375 25.6979 172.49 25.8854 172.531 26.0938C172.552 26.2396 172.521 26.3646 172.438 26.4688C172.292 26.6979 171.948 26.8646 171.406 26.9688C170.865 27.0938 170.24 27.1562 169.531 27.1562C168.927 27.1562 168.302 27.1146 167.656 27.0312C167.031 26.9479 166.5 26.7604 166.062 26.4688C165.625 26.2188 165.333 25.9479 165.188 25.6562C165.042 25.3646 164.958 25.0208 164.938 24.625C164.938 24.1458 164.958 23.4271 165 22.4688L165.125 18.7188Z" fill="#333333"/>
</svg>
