<svg width="190" height="29" viewBox="0 0 190 29" fill="none" xmlns="http://www.w3.org/2000/svg">
<path d="M38.2188 10.3438C38.0729 10.3438 37.9167 10.25 37.75 10.0625C37.625 9.91667 37.5417 9.80208 37.5 9.71875C37.4583 9.61458 37.4583 9.47917 37.5 9.3125L37.5312 8.5625C37.5521 8.41667 37.5625 8.0625 37.5625 7.5V6.46875L36.625 6.90625L35.5312 7.375C35.2604 7.47917 34.9792 7.60417 34.6875 7.75C34.4375 7.875 34.2188 7.9375 34.0312 7.9375C33.8854 7.91667 33.7188 7.86458 33.5312 7.78125C33.3438 7.69792 33.1979 7.625 33.0938 7.5625C32.8646 7.41667 32.7604 7.26042 32.7812 7.09375L32.875 6.78125C32.875 6.61458 32.8854 6.46875 32.9062 6.34375L32.9375 4.53125V2.84375C32.9375 2.51042 32.9167 2.22917 32.875 2C32.8333 1.75 32.8021 1.57292 32.7812 1.46875C32.7812 1.36458 32.8125 1.29167 32.875 1.25C32.8958 1.22917 32.9479 1.21875 33.0312 1.21875C33.1771 1.21875 33.4583 1.3125 33.875 1.5C34.2292 1.66667 34.375 1.875 34.3125 2.125C34.2708 2.27083 34.2292 2.48958 34.1875 2.78125L34.0938 6.375C34.0938 6.47917 34.1042 6.5625 34.125 6.625C34.1667 6.66667 34.2083 6.6875 34.25 6.6875C34.5 6.6875 34.8021 6.61458 35.1562 6.46875C35.8229 6.26042 36.3958 6.05208 36.875 5.84375L37.5625 5.5625V3.5C37.5625 2.66667 37.5104 1.86458 37.4062 1.09375C37.3854 1.03125 37.375 0.958333 37.375 0.875C37.375 0.666667 37.4583 0.5625 37.625 0.5625C37.6458 0.5625 37.7604 0.604167 37.9688 0.6875C38.2812 0.854167 38.5104 1 38.6562 1.125C38.8021 1.25 38.8854 1.32292 38.9062 1.34375C38.9896 1.40625 39.0312 1.46875 39.0312 1.53125C39.0312 1.57292 39.0104 1.625 38.9688 1.6875C38.9479 1.75 38.9271 1.80208 38.9062 1.84375L38.8125 2.78125L38.7812 5.65625L38.8125 8.4375C38.8125 8.91667 38.7812 9.33333 38.7188 9.6875C38.6146 10.125 38.4479 10.3438 38.2188 10.3438ZM32.4688 15.4688C32.2396 15.4688 31.9583 15.2917 31.625 14.9375C31.375 14.6875 31.25 14.5 31.25 14.375C31.25 14.3125 31.2917 14.2812 31.375 14.2812C31.4583 14.2604 31.5625 14.25 31.6875 14.25L32.375 14.2188C32.7708 14.2188 33.0312 14.2083 33.1562 14.1875C33.5521 14.1875 33.8854 14.1771 34.1562 14.1562C35.9479 13.9896 37.1562 13.8542 37.7812 13.75C38.0938 13.7083 38.375 13.6667 38.625 13.625C38.875 13.5625 39.0729 13.5312 39.2188 13.5312C39.5104 13.5312 39.8021 13.6771 40.0938 13.9688C40.3229 14.1979 40.4375 14.3854 40.4375 14.5312C40.4375 14.6562 40.3646 14.7396 40.2188 14.7812C40.1146 14.8021 39.5 14.8438 38.375 14.9062C37.75 14.9271 36.9792 14.9792 36.0625 15.0625C35.1458 15.1458 34.3438 15.2292 33.6562 15.3125C33.5312 15.3333 33.3542 15.3646 33.125 15.4062C32.8958 15.4479 32.6771 15.4688 32.4688 15.4688ZM39.1875 26.25C39.2292 26.3333 39.3021 26.4583 39.4062 26.625C39.5104 26.7917 39.5625 26.9896 39.5625 27.2188C39.5625 27.4271 39.4792 27.5938 39.3125 27.7188C39.1458 27.8646 38.9583 27.9375 38.75 27.9375C38.5625 27.9375 38.4062 27.75 38.2812 27.375C38.2188 27.2292 38.1667 27.1042 38.125 27C38.1042 26.9167 38.0833 26.8438 38.0625 26.7812C37.7917 26.8646 37.4375 26.9375 37 27C36.5625 27.0625 36.25 27.1146 36.0625 27.1562C35.0625 27.3438 34.375 27.4792 34 27.5625C33.8542 27.6042 33.6979 27.6458 33.5312 27.6875C33.3646 27.75 33.2708 27.7917 33.25 27.8125C33.125 27.8542 33.0312 27.875 32.9688 27.875C32.8021 27.875 32.6458 27.8021 32.5 27.6562C32.25 27.4688 32.0625 27.2188 31.9375 26.9062C31.9167 26.8854 31.9062 26.8542 31.9062 26.8125C31.9062 26.7708 31.9583 26.7188 32.0625 26.6562C32.1875 26.5938 32.2812 26.5521 32.3438 26.5312C32.6146 26.3854 33.0938 25.9479 33.7812 25.2188L34.625 24.4062L32.7812 23.4062C32.5729 23.3438 32.4375 23.2708 32.375 23.1875C32.3125 23.1042 32.2812 22.9792 32.2812 22.8125C32.2812 22.6875 32.3021 22.6042 32.3438 22.5625C32.4062 22.5 32.5312 22.4062 32.7188 22.2812C32.9062 22.1562 33.0938 21.9896 33.2812 21.7812C33.3854 21.6562 33.5208 21.5208 33.6875 21.375C33.8542 21.2292 34.0104 21.0729 34.1562 20.9062C34.7812 20.1771 35.1771 19.6042 35.3438 19.1875C35.4479 18.9792 35.5312 18.875 35.5938 18.875C35.6354 18.875 35.7188 18.9167 35.8438 19C36.2396 19.2917 36.4792 19.5625 36.5625 19.8125V19.9062C36.5625 20.0104 36.5104 20.0938 36.4062 20.1562C36.3021 20.2188 36.2292 20.2708 36.1875 20.3125C36.125 20.3542 35.8125 20.6562 35.25 21.2188L34.6875 21.7812C34.5833 21.8854 34.4062 22.0625 34.1562 22.3125C33.9062 22.5417 33.7812 22.6771 33.7812 22.7188C33.7812 22.7812 33.8125 22.8333 33.875 22.875C33.9583 22.9167 34.0208 22.9583 34.0625 23L35.375 23.625C36.1875 22.8125 36.6562 22.3333 36.7812 22.1875C37.3229 21.5625 37.625 21.1667 37.6875 21C37.7083 20.9792 37.7396 20.9271 37.7812 20.8438C37.8229 20.7604 37.8646 20.7188 37.9062 20.7188C37.9688 20.7188 38.0312 20.75 38.0938 20.8125C38.4271 21.125 38.6667 21.4167 38.8125 21.6875C38.8542 21.7708 38.875 21.8229 38.875 21.8438C38.875 21.8854 38.8229 21.9479 38.7188 22.0312C38.6354 22.0938 38.5521 22.1562 38.4688 22.2188C37.7396 22.8229 36.8854 23.6146 35.9062 24.5938L34 26.375C33.9583 26.4167 33.9375 26.4583 33.9375 26.5C33.9375 26.5417 33.9583 26.5729 34 26.5938C34.0417 26.6146 34.1042 26.6146 34.1875 26.5938L37.8438 25.9688C37.7396 25.5521 37.6146 25.1354 37.4688 24.7188V24.6562C37.4688 24.5938 37.5 24.5625 37.5625 24.5625C37.6458 24.5625 37.7708 24.625 37.9375 24.75C38.2708 25.0417 38.6875 25.5417 39.1875 26.25ZM41.5625 16.6562C41.6667 16.6562 41.8229 16.7292 42.0312 16.875C42.0104 16.9167 42.0521 17 42.1562 17.125C42.2604 17.2292 42.3333 17.3021 42.375 17.3438C42.4792 17.4479 42.5833 17.5729 42.6875 17.7188C42.8125 17.8646 42.9479 18.0208 43.0938 18.1875C43.4688 18.5833 44.3333 19.6146 45.6875 21.2812C45.9167 21.6146 46.0312 21.8125 46.0312 21.875C46.0312 22.0833 45.9062 22.1875 45.6562 22.1875C45.5104 22.1875 45.3542 22.0833 45.1875 21.875C44.7917 21.4583 44.0833 20.8021 43.0625 19.9062C42.2708 19.1771 41.5521 18.6146 40.9062 18.2188C40.5938 18.0729 40.4375 17.9062 40.4375 17.7188C40.4375 17.5729 40.5938 17.3646 40.9062 17.0938C41.1979 16.8021 41.4167 16.6562 41.5625 16.6562ZM11.1875 11.75C10.375 12.5208 9.39583 13.3125 8.25 14.125L12.5938 13.8125L12.9062 13.7812C13.2188 13.7812 13.5521 13.9271 13.9062 14.2188C14.2604 14.4896 14.4375 14.75 14.4375 15C14.4375 15.1875 14.3438 15.3542 14.1562 15.5C13.9896 15.625 13.875 15.7188 13.8125 15.7812C12.8333 16.8854 11.7188 17.8958 10.4688 18.8125C10.5938 19.0625 10.7396 19.4167 10.9062 19.875C12.6771 19.5 14.4167 19.0625 16.125 18.5625L16.5312 18.5C16.8646 18.5 17.0312 18.6042 17.0312 18.8125C17.0312 18.9583 16.8854 19.1146 16.5938 19.2812C16.3229 19.4479 15.7188 19.6979 14.7812 20.0312C13.8646 20.3646 12.6979 20.7604 11.2812 21.2188C11.4062 22.0312 11.4792 22.7604 11.5 23.4062L11.5312 24.4062C11.5312 27.3021 10.9375 28.75 9.75 28.75C9.27083 28.75 8.64583 28.5 7.875 28C7.10417 27.5208 6.40625 26.9792 5.78125 26.375C5.15625 25.7708 4.84375 25.3646 4.84375 25.1562C4.84375 25.0312 4.92708 24.9688 5.09375 24.9688C5.28125 24.9688 5.57292 25.0729 5.96875 25.2812C6.65625 25.6354 7.32292 25.9167 7.96875 26.125C8.63542 26.3333 9.04167 26.4375 9.1875 26.4375C9.39583 26.4375 9.53125 26.1146 9.59375 25.4688C9.67708 24.8229 9.71875 24.1667 9.71875 23.5C9.71875 23.0417 9.67708 22.4583 9.59375 21.75C6.21875 22.7917 4.1875 23.3125 3.5 23.3125C3.16667 23.3125 2.85417 23.1562 2.5625 22.8438C2.29167 22.5104 2.0625 22.1146 1.875 21.6562C1.85417 21.6146 1.84375 21.5625 1.84375 21.5C1.84375 21.375 1.92708 21.3125 2.09375 21.3125H2.1875C2.29167 21.3333 2.46875 21.3438 2.71875 21.3438C3.69792 21.3438 5.875 20.9792 9.25 20.25C8.97917 19.4792 8.65625 18.8021 8.28125 18.2188C8.15625 18.0312 8.09375 17.8646 8.09375 17.7188C8.09375 17.5521 8.1875 17.3958 8.375 17.25C8.58333 17.0833 8.79167 17 9 17C9.27083 17 9.51042 17.1562 9.71875 17.4688C10.4688 16.8646 11.2083 16.1667 11.9375 15.375L8.15625 15.6875C7.98958 15.7083 7.79167 15.7188 7.5625 15.7188C7.33333 15.7188 7.15625 15.6979 7.03125 15.6562C6.90625 15.6146 6.76042 15.5312 6.59375 15.4062L6.5 15.3438C5.5 15.9896 4.29167 16.6979 2.875 17.4688C1.45833 18.2396 0.604167 18.625 0.3125 18.625C0.104167 18.625 0 18.5521 0 18.4062C0 18.1354 0.229167 17.875 0.6875 17.625C2.60417 16.4792 4.33333 15.3333 5.875 14.1875C5.875 14.1458 5.92708 14.1042 6.03125 14.0625C7.09375 13.2708 7.98958 12.5417 8.71875 11.875L3.15625 12.2188C2.94792 12.2396 2.67708 12.25 2.34375 12.25C1.98958 12.25 1.66667 12.1667 1.375 12C1.08333 11.8125 0.854167 11.4167 0.6875 10.8125C0.666667 10.7708 0.65625 10.7188 0.65625 10.6562C0.65625 10.5729 0.71875 10.5312 0.84375 10.5312L1.03125 10.5625C1.44792 10.6458 1.89583 10.6875 2.375 10.6875H2.71875L7.96875 10.375L8 7.1875L5.78125 7.34375C5.59375 7.36458 5.35417 7.375 5.0625 7.375C4.27083 7.375 3.72917 6.9375 3.4375 6.0625C3.41667 6.02083 3.40625 5.95833 3.40625 5.875C3.40625 5.75 3.47917 5.6875 3.625 5.6875L3.75 5.71875C4.22917 5.82292 4.64583 5.875 5 5.875L5.5625 5.84375L8 5.6875L8.03125 3.28125C8.03125 2.67708 7.91667 2.15625 7.6875 1.71875C7.64583 1.63542 7.625 1.57292 7.625 1.53125C7.625 1.42708 7.73958 1.375 7.96875 1.375C8.30208 1.375 8.69792 1.44792 9.15625 1.59375C9.63542 1.71875 9.875 1.96875 9.875 2.34375L9.84375 5.5625C10.4271 5.52083 10.9583 5.41667 11.4375 5.25C11.6042 5.20833 11.7188 5.1875 11.7812 5.1875C12.0521 5.1875 12.3646 5.33333 12.7188 5.625C13.0938 5.91667 13.2812 6.19792 13.2812 6.46875C13.2812 6.69792 13.0833 6.83333 12.6875 6.875L9.84375 7.0625L9.8125 10.25L10.4688 10.2188C11.8021 8.88542 12.9896 7.45833 14.0312 5.9375C14.3438 5.45833 14.5208 4.94792 14.5625 4.40625C14.6042 4.15625 14.7083 4.03125 14.875 4.03125C15 4.03125 15.1979 4.125 15.4688 4.3125C15.7396 4.47917 15.9792 4.6875 16.1875 4.9375C16.3958 5.16667 16.5 5.375 16.5 5.5625C16.5 5.70833 16.125 6.26042 15.375 7.21875C14.625 8.17708 13.8021 9.13542 12.9062 10.0938L13.75 10.0312C14.2292 9.98958 14.8021 9.90625 15.4688 9.78125C15.5104 9.76042 15.5833 9.75 15.6875 9.75C15.9167 9.75 16.2083 9.91667 16.5625 10.25C16.9375 10.5833 17.125 10.8646 17.125 11.0938C17.125 11.2604 17.0104 11.3646 16.7812 11.4062L11.1875 11.75ZM13.9375 28.5312C13.9375 28.3854 14.125 28.1354 14.5 27.7812C17.3542 25.3854 19.5104 22.75 20.9688 19.875C19.8646 17.9167 18.9271 15.7292 18.1562 13.3125C17.5104 14.5833 16.7917 15.7396 16 16.7812C15.6042 17.2604 15.2917 17.5 15.0625 17.5C14.9167 17.5 14.8438 17.4062 14.8438 17.2188C14.8438 16.9896 14.9479 16.6979 15.1562 16.3438C16.1562 14.5312 16.9896 12.6771 17.6562 10.7812C18.3229 8.86458 18.8125 7.17708 19.125 5.71875C19.4375 4.26042 19.5938 3.25 19.5938 2.6875C19.5938 2.60417 19.5729 2.39583 19.5312 2.0625V2C19.5312 1.8125 19.6354 1.71875 19.8438 1.71875C20.0312 1.71875 20.2812 1.80208 20.5938 1.96875C20.9271 2.13542 21.2188 2.34375 21.4688 2.59375C21.7188 2.84375 21.8438 3.07292 21.8438 3.28125C21.8438 3.51042 21.6562 4.21875 21.2812 5.40625C20.9271 6.59375 20.4896 7.86458 19.9688 9.21875L24.9375 8.90625C25.4583 8.86458 25.9479 8.77083 26.4062 8.625C26.5729 8.58333 26.6875 8.5625 26.75 8.5625C26.9792 8.5625 27.3125 8.72917 27.75 9.0625C28.1875 9.375 28.4062 9.67708 28.4062 9.96875C28.4062 10.0938 28.3542 10.1979 28.25 10.2812C28.1458 10.3438 28.0104 10.3854 27.8438 10.4062L25.7812 10.5312C25.4896 12.3229 25.125 13.9583 24.6875 15.4375C24.25 16.9167 23.6875 18.375 23 19.8125C23.8125 21.1042 24.7292 22.3229 25.75 23.4688C26.7917 24.6146 28.0104 25.8021 29.4062 27.0312C29.6354 27.2604 29.75 27.4271 29.75 27.5312C29.75 27.6354 29.5417 27.8229 29.125 28.0938C28.7083 28.3646 28.375 28.5 28.125 28.5C27.9792 28.5 27.8125 28.4271 27.625 28.2812C25.3125 26.0521 23.4375 23.8229 22 21.5938C21.1667 22.9479 20.1979 24.1667 19.0938 25.25C18.0104 26.3125 17 27.1458 16.0625 27.75C15.125 28.375 14.5 28.6875 14.1875 28.6875C14.0208 28.6875 13.9375 28.6354 13.9375 28.5312ZM19.25 11.0312C19.9375 13.5938 20.8125 15.8854 21.875 17.9062C22.6875 15.9688 23.3229 13.5521 23.7812 10.6562L19.3125 10.9062L19.25 11.0312Z" fill="#333333"/>
<path d="M88.0312 6.84375C88.3021 7.07292 88.4375 7.23958 88.4375 7.34375C88.4375 7.53125 88.1771 7.61458 87.6562 7.59375H87C86.4167 7.59375 85.1771 7.66667 83.2812 7.8125C83.2396 8.08333 83.1875 8.36458 83.125 8.65625C83.0625 8.92708 83.0208 9.13542 83 9.28125V9.53125C83 9.55208 83 9.57292 83 9.59375C83 9.61458 83 9.63542 83 9.65625C83.1042 9.65625 83.1771 9.64583 83.2188 9.625C83.3229 9.60417 83.5625 9.57292 83.9375 9.53125C84.3333 9.46875 84.7292 9.40625 85.125 9.34375C85.25 9.32292 85.375 9.29167 85.5 9.25C85.625 9.1875 85.7292 9.15625 85.8125 9.15625C86.0417 9.15625 86.3229 9.30208 86.6562 9.59375C86.8854 9.78125 87 9.92708 87 10.0312C87 10.2604 86.8646 10.6042 86.5938 11.0625C86.1562 11.8333 85.6875 12.4688 85.1875 12.9688C84.5833 13.5729 83.9583 13.9688 83.3125 14.1562C83.2292 14.1771 83.1354 14.1875 83.0312 14.1875C82.9479 14.1875 82.9062 14.1667 82.9062 14.125C82.9062 14.0625 83.0521 13.8958 83.3438 13.625C84.1146 12.9583 84.7604 12.1771 85.2812 11.2812C85.5729 10.7604 85.7188 10.4479 85.7188 10.3438C85.7188 10.2604 85.6667 10.2188 85.5625 10.2188C85.4792 10.2188 85.4271 10.2188 85.4062 10.2188L84.5938 10.3125C83.7812 10.4375 83.2708 10.5312 83.0625 10.5938C82.8125 10.7188 82.6146 10.7812 82.4688 10.7812C82.3229 10.7812 82.1354 10.6667 81.9062 10.4375C81.8854 10.4167 81.8333 10.375 81.75 10.3125C81.6875 10.25 81.6562 10.1562 81.6562 10.0312C81.6562 9.96875 81.6979 9.875 81.7812 9.75C81.8646 9.58333 81.9271 9.375 81.9688 9.125C82.0104 8.875 82.0312 8.71875 82.0312 8.65625L82.1562 7.9375C81.8021 7.97917 81.2396 8.07292 80.4688 8.21875C80.2604 8.26042 80.1146 8.28125 80.0312 8.28125C79.8854 8.28125 79.7188 8.21875 79.5312 8.09375C79.1354 7.82292 78.9375 7.64583 78.9375 7.5625C78.9375 7.41667 79.125 7.33333 79.5 7.3125L80.5938 7.21875L82.3438 7.03125C82.4479 6.19792 82.5 5.6875 82.5 5.5L82.5312 4.84375C82.5729 4.48958 82.6562 4.3125 82.7812 4.3125C82.8854 4.3125 83.0104 4.35417 83.1562 4.4375C83.4271 4.58333 83.625 4.73958 83.75 4.90625C83.8958 5.05208 83.9479 5.17708 83.9062 5.28125L83.6875 5.9375C83.625 6.0625 83.5417 6.38542 83.4375 6.90625L86.1562 6.65625C86.3854 6.63542 86.6562 6.57292 86.9688 6.46875L87.2188 6.4375C87.4271 6.4375 87.6042 6.5 87.75 6.625C87.8958 6.72917 87.9896 6.80208 88.0312 6.84375ZM84.4688 24.5312C84.4688 24.5104 84.5208 24.4375 84.625 24.3125C84.75 24.1667 84.8854 23.9896 85.0312 23.7812C85.2812 23.4271 85.5312 22.9062 85.7812 22.2188C86.0312 21.5312 86.1667 20.8958 86.1875 20.3125C86.1875 20.2708 86.1667 20.2292 86.125 20.1875C86.1042 20.125 86.0521 20.0938 85.9688 20.0938L85.25 20.1562L84.1875 20.25C83.9583 21 83.5625 21.8125 83 22.6875C82.75 23.0833 82.4062 23.4375 81.9688 23.75C81.5521 24.0417 81.1458 24.25 80.75 24.375C80.625 24.4167 80.4688 24.4375 80.2812 24.4375C80.1354 24.4167 80.0625 24.375 80.0625 24.3125C80.0625 24.2292 80.1354 24.1562 80.2812 24.0938C80.5312 23.9271 80.8125 23.6667 81.125 23.3125C81.4583 22.9583 81.75 22.5938 82 22.2188C82.1458 22.0104 82.3021 21.7396 82.4688 21.4062C82.6354 21.0521 82.7708 20.7292 82.875 20.4375C82.2083 20.5208 81.5208 20.6771 80.8125 20.9062C80.7708 20.9479 80.6979 20.9688 80.5938 20.9688C80.5312 20.9688 80.4375 20.9271 80.3125 20.8438C80.1458 20.6771 80.0312 20.5521 79.9688 20.4688C79.9271 20.3646 79.9479 20.2708 80.0312 20.1875L80.1562 19.9375C80.2396 19.8125 80.3229 19.5625 80.4062 19.1875C80.4896 18.8125 80.5312 18.5104 80.5312 18.2812C80.5312 18.2188 80.5208 18.1458 80.5 18.0625C80.5 17.9583 80.5104 17.9062 80.5312 17.9062C80.5729 17.8854 80.625 17.8854 80.6875 17.9062C80.9167 17.9479 81.125 18.0208 81.3125 18.125C81.4792 18.2292 81.5938 18.3438 81.6562 18.4688C81.7396 18.5729 81.7396 18.6667 81.6562 18.75C81.6354 18.7708 81.6042 18.8125 81.5625 18.875C81.5208 18.9167 81.4896 18.9792 81.4688 19.0625C81.4479 19.0833 81.4062 19.3125 81.3438 19.75C81.3438 19.7708 81.3542 19.7917 81.375 19.8125C81.4167 19.8333 81.4583 19.8333 81.5 19.8125C81.5625 19.8125 81.6562 19.8021 81.7812 19.7812C81.9062 19.7604 82 19.7396 82.0625 19.7188C82.2083 19.6979 82.375 19.6667 82.5625 19.625C82.7708 19.5833 82.9583 19.5521 83.125 19.5312C83.1875 19.3021 83.2292 19.0521 83.25 18.7812C83.2917 18.4896 83.3229 18.2917 83.3438 18.1875L83.375 17.5312V17.3125C82.7083 17.3333 82.0104 17.3958 81.2812 17.5L80.7188 17.5938H80.5938C80.4896 17.5938 80.3854 17.5625 80.2812 17.5C80.1979 17.4375 80.1042 17.3646 80 17.2812C79.7292 17.0312 79.5938 16.8438 79.5938 16.7188C79.5938 16.5938 79.6875 16.5521 79.875 16.5938C80.125 16.6354 80.3854 16.6562 80.6562 16.6562L81.5625 16.625L85.9062 16.3125C86.0729 16.2917 86.2292 16.2708 86.375 16.25C86.5208 16.2083 86.6667 16.1771 86.8125 16.1562H86.9062C87.1771 16.1562 87.3646 16.2083 87.4688 16.3125C87.5938 16.3958 87.6667 16.4479 87.6875 16.4688C88.0208 16.7396 88.1875 16.9479 88.1875 17.0938C88.1875 17.2188 88.0104 17.2708 87.6562 17.25L87.0312 17.1875C86.4896 17.1667 85.6771 17.1875 84.5938 17.25L84.4688 18.4688C84.4479 18.6771 84.4271 18.8438 84.4062 18.9688C84.3854 19.0938 84.3646 19.1979 84.3438 19.2812L84.3125 19.375C84.8125 19.3333 85.3958 19.2708 86.0625 19.1875C86.1042 19.1667 86.1771 19.1458 86.2812 19.125C86.3854 19.0833 86.4896 19.0521 86.5938 19.0312H86.6562C86.7812 19.0312 86.9062 19.0833 87.0312 19.1875C87.1562 19.2917 87.2292 19.3542 87.25 19.375C87.4167 19.5208 87.5312 19.6458 87.5938 19.75C87.6771 19.8333 87.6875 19.9062 87.625 19.9688C87.5833 20.0521 87.5312 20.1354 87.4688 20.2188C87.4271 20.2812 87.3958 20.3542 87.375 20.4375C87.2708 21.3125 87.1042 22.0208 86.875 22.5625C86.6875 23.0417 86.4792 23.4062 86.25 23.6562C86.0417 23.8854 85.7812 24.1042 85.4688 24.3125C85.3438 24.3958 85.1458 24.4688 84.875 24.5312C84.6042 24.5729 84.4688 24.5729 84.4688 24.5312ZM93.5625 10.7188C93.8125 10.7188 93.9375 10.8333 93.9375 11.0625C93.9375 11.1875 93.8229 11.3646 93.5938 11.5938C92.9688 12.3646 91.7292 13.8333 89.875 16C89.7292 16.1875 89.5938 16.2812 89.4688 16.2812C89.3646 16.2812 89.1354 16.125 88.7812 15.8125C88.4896 15.5625 88.3438 15.3542 88.3438 15.1875C88.3438 15 88.5 14.8229 88.8125 14.6562C89.2917 14.3854 90.0104 13.8438 90.9688 13.0312C91.9271 12.1771 92.6354 11.5 93.0938 11C93.2812 10.8125 93.4375 10.7188 93.5625 10.7188ZM71.6875 26.125C71.6875 26.3125 71.6979 26.4896 71.7188 26.6562C71.7396 26.8438 71.75 27.0104 71.75 27.1562C71.75 27.6146 71.5833 28.0104 71.25 28.3438C70.9167 28.6771 70.5833 28.8438 70.25 28.8438C69.9167 28.8438 69.2812 28.5417 68.3438 27.9375C67.4271 27.3542 66.5625 26.7083 65.75 26C64.9375 25.3125 64.5312 24.8646 64.5312 24.6562C64.5312 24.5312 64.625 24.4688 64.8125 24.4688C65.0208 24.4688 65.3229 24.5625 65.7188 24.75C67.1146 25.4375 68.4583 25.9688 69.75 26.3438L69.6875 15.625C69.6875 15.2083 69.7188 14.6458 69.7812 13.9375C69.5312 14.5 69.2292 15.0312 68.875 15.5312C67.3958 17.5729 65.9583 19.2396 64.5625 20.5312C63.1667 21.8229 61.9792 22.7604 61 23.3438C60.0417 23.9271 59.4479 24.2188 59.2188 24.2188C59.0729 24.2188 59 24.1562 59 24.0312C59 23.8438 59.1771 23.5833 59.5312 23.25C61.4479 21.6458 63.2292 19.8229 64.875 17.7812C66.5208 15.7188 67.9688 13.5521 69.2188 11.2812L64.5312 11.5625C64.3646 11.5833 64.1354 11.5938 63.8438 11.5938C63.2188 11.5938 62.8333 11.5104 62.6875 11.3438C62.5 11.1146 62.3125 10.8438 62.125 10.5312C61.9583 10.1979 61.875 9.9375 61.875 9.75C61.875 9.64583 61.9167 9.59375 62 9.59375C62.0625 9.59375 62.1146 9.60417 62.1562 9.625C62.5938 9.77083 63.0521 9.84375 63.5312 9.84375H63.8125L69.6562 9.46875L69.625 3.46875C69.625 2.86458 69.4479 2.32292 69.0938 1.84375C68.9271 1.61458 68.8438 1.4375 68.8438 1.3125C68.8438 1.1875 68.9375 1.125 69.125 1.125C69.3958 1.125 69.875 1.25 70.5625 1.5C70.9792 1.64583 71.25 1.79167 71.375 1.9375C71.5 2.08333 71.5625 2.3125 71.5625 2.625L71.5938 9.34375L74.0938 9.1875C74.6562 9.14583 75.1146 9.0625 75.4688 8.9375C75.5938 8.875 75.7083 8.84375 75.8125 8.84375C76.0208 8.84375 76.25 8.94792 76.5 9.15625C76.7708 9.36458 77 9.59375 77.1875 9.84375C77.3958 10.0938 77.5 10.2812 77.5 10.4062C77.5 10.5312 77.4375 10.625 77.3125 10.6875C77.1875 10.7292 77.0104 10.7604 76.7812 10.7812L71.5938 11.125L71.6875 26.125ZM48.25 22.8125C48.25 22.6042 48.3958 22.3229 48.6875 21.9688C51.0417 19.0521 53.1146 15.3229 54.9062 10.7812L52 10.9688C51.5833 11.0104 51.3125 11.0312 51.1875 11.0312C50.8125 11.0312 50.4896 10.9167 50.2188 10.6875C49.9688 10.4583 49.7708 10.2083 49.625 9.9375C49.5 9.64583 49.4375 9.4375 49.4375 9.3125C49.4375 9.20833 49.4896 9.15625 49.5938 9.15625L49.75 9.1875C50.2292 9.29167 50.6771 9.34375 51.0938 9.34375H51.375L55.3438 9.0625L55.4062 3.28125C55.4062 2.71875 55.2812 2.27083 55.0312 1.9375C54.9062 1.75 54.8438 1.60417 54.8438 1.5C54.8438 1.33333 54.9688 1.25 55.2188 1.25C55.4479 1.25 55.7812 1.33333 56.2188 1.5C56.6562 1.66667 56.9375 1.8125 57.0625 1.9375C57.1875 2.0625 57.25 2.25 57.25 2.5L57.1562 8.9375L58.625 8.84375C58.9792 8.82292 59.3542 8.73958 59.75 8.59375C59.8125 8.57292 59.8958 8.5625 60 8.5625C60.25 8.5625 60.5729 8.75 60.9688 9.125C61.3854 9.5 61.5938 9.78125 61.5938 9.96875C61.5938 10.1771 61.3542 10.3021 60.875 10.3438L57.1562 10.5938L57.125 13.0938C57.3333 12.8854 57.5312 12.7812 57.7188 12.7812C57.9479 12.7812 58.3854 13.0729 59.0312 13.6562C59.6979 14.2188 60.3333 14.8333 60.9375 15.5C61.5417 16.1667 61.8438 16.5729 61.8438 16.7188C61.8438 16.9479 61.6979 17.1979 61.4062 17.4688C61.1354 17.7188 60.8958 17.8438 60.6875 17.8438C60.4792 17.8438 60.2604 17.6875 60.0312 17.375C59.3021 16.3958 58.3229 15.3333 57.0938 14.1875L56.9375 28.1562C56.9375 28.6562 56.7396 28.9062 56.3438 28.9062C55.9271 28.8646 55.5729 28.7396 55.2812 28.5312C54.9896 28.3438 54.8438 28.0625 54.8438 27.6875C54.8438 27.5208 54.8542 27.3958 54.875 27.3125C55.0625 26.4583 55.1562 25.6979 55.1562 25.0312C55.2188 20.8021 55.25 17.6458 55.25 15.5625C55.25 15.1667 55.2917 14.5729 55.375 13.7812C55.0833 14.7604 54.4479 15.9792 53.4688 17.4375C52.5104 18.8958 51.5104 20.1875 50.4688 21.3125C49.4479 22.4375 48.7604 23 48.4062 23C48.3021 23 48.25 22.9375 48.25 22.8125Z" fill="#333333"/>
<path d="M130.781 20.0312C130.615 20.0312 130.479 19.8958 130.375 19.625C130.208 19.2917 130.125 19.0208 130.125 18.8125L130.156 17.9688C130.177 17.5521 130.188 16.7188 130.188 15.4688V13.9062L130.156 12.8125C129.927 12.8125 129.688 12.8438 129.438 12.9062L128.719 13.0938C128.615 13.1354 128.448 13.0729 128.219 12.9062C127.99 12.7396 127.812 12.5521 127.688 12.3438C127.625 12.2188 127.594 12.125 127.594 12.0625C127.594 12 127.625 11.9583 127.688 11.9375C127.75 11.9167 127.823 11.9062 127.906 11.9062C128.885 11.9062 129.792 11.8542 130.625 11.75L131.562 11.6875C132.167 11.6458 132.625 11.6146 132.938 11.5938C133.271 11.5521 133.5 11.5208 133.625 11.5C133.792 11.4792 133.979 11.4583 134.188 11.4375C134.417 11.3958 134.562 11.3854 134.625 11.4062C134.708 11.4688 134.812 11.5312 134.938 11.5938C135.083 11.6562 135.24 11.7604 135.406 11.9062C135.51 12.0104 135.594 12.1146 135.656 12.2188C135.74 12.3021 135.781 12.3958 135.781 12.5C135.781 12.5833 135.729 12.7083 135.625 12.875C135.521 13.0417 135.417 13.3021 135.312 13.6562C135.229 14.0104 135.167 14.2604 135.125 14.4062C134.812 15.4479 134.427 16.2083 133.969 16.6875C133.635 16.9792 133.26 17.125 132.844 17.125C132.656 17.125 132.5 16.9896 132.375 16.7188C132.188 16.3021 131.979 16.0104 131.75 15.8438L131.781 15.6875C132.344 15.875 132.729 15.9688 132.938 15.9688C133.104 15.9688 133.219 15.9375 133.281 15.875C133.365 15.8125 133.438 15.7188 133.5 15.5938C133.604 15.3229 133.688 15.0833 133.75 14.875C133.833 14.6667 133.906 14.4792 133.969 14.3125C134.01 14.125 134.062 13.875 134.125 13.5625C134.208 13.25 134.26 13 134.281 12.8125C134.281 12.625 134.229 12.5312 134.125 12.5312H133.438C133.125 12.5312 132.771 12.5417 132.375 12.5625C131.979 12.5833 131.656 12.6146 131.406 12.6562L131.344 15.5L131.375 17.125C131.375 17.3542 131.375 17.5729 131.375 17.7812C131.396 17.9688 131.396 18.1042 131.375 18.1875C131.375 18.3125 131.375 18.5104 131.375 18.7812C131.396 19.0312 131.396 19.2083 131.375 19.3125L131.156 19.8125C131.01 19.9583 130.885 20.0312 130.781 20.0312ZM105.094 23.875V23.9688C105.094 24.1562 105.042 24.3021 104.938 24.4062C104.854 24.5104 104.729 24.5625 104.562 24.5625C104.312 24.5625 103.99 24.4688 103.594 24.2812C103.219 24.0938 103.031 23.8021 103.031 23.4062L103.062 23.1875C103.125 22.7708 103.156 22.3854 103.156 22.0312L103.125 21.4375L102.75 14.3125C102.729 13.7083 102.635 13.2396 102.469 12.9062C102.365 12.6562 102.312 12.4896 102.312 12.4062C102.312 12.2396 102.427 12.1562 102.656 12.1562C102.99 12.1562 103.656 12.3333 104.656 12.6875L117.531 12.0312H117.875C118.208 12.0312 118.521 12.1354 118.812 12.3438C119.104 12.5521 119.25 12.7708 119.25 13C119.25 13.1042 119.219 13.2188 119.156 13.3438C119.115 13.4479 119.083 13.5312 119.062 13.5938L118.469 21.1875C118.99 21.7083 119.25 22.0833 119.25 22.3125C119.25 22.4583 119.177 22.5521 119.031 22.5938C118.906 22.6354 118.698 22.6667 118.406 22.6875L105.062 23.2188L105.094 23.875ZM97.6875 8.28125C97.6875 8.15625 97.7396 8.09375 97.8438 8.09375L97.9688 8.125C98.2812 8.20833 98.6458 8.25 99.0625 8.25H99.4688L104.281 7.90625C104.365 7.90625 104.521 7.90625 104.75 7.90625C104.979 7.88542 105.198 7.83333 105.406 7.75C105.531 7.70833 105.615 7.6875 105.656 7.6875C105.865 7.6875 106.083 7.78125 106.312 7.96875C106.542 8.13542 106.729 8.33333 106.875 8.5625C107.021 8.77083 107.094 8.91667 107.094 9C107.094 9.1875 106.875 9.30208 106.438 9.34375L100.094 10C99.9062 10.0208 99.6562 10.0312 99.3438 10.0312C98.9479 10.0312 98.6875 9.97917 98.5625 9.875C97.9792 9.29167 97.6875 8.76042 97.6875 8.28125ZM98.75 3.34375C98.75 3.21875 98.8021 3.15625 98.9062 3.15625L99.0312 3.1875C99.3438 3.27083 99.7083 3.3125 100.125 3.3125H100.531L104.094 3.15625C104.427 3.13542 104.802 3.04167 105.219 2.875C105.344 2.83333 105.427 2.8125 105.469 2.8125C105.677 2.8125 105.885 2.91667 106.094 3.125C106.323 3.33333 106.51 3.5625 106.656 3.8125C106.823 4.0625 106.906 4.22917 106.906 4.3125C106.906 4.5 106.688 4.61458 106.25 4.65625L101.156 4.96875C100.969 4.98958 100.719 5 100.406 5C100.01 5 99.75 4.94792 99.625 4.84375C99.3958 4.61458 99.1875 4.38542 99 4.15625C98.8333 3.92708 98.75 3.65625 98.75 3.34375ZM98.9062 28.6875C98.9062 28.4792 99.1146 28.3021 99.5312 28.1562C102.552 27.0312 104.823 25.8854 106.344 24.7188C106.719 24.4271 106.969 24.0729 107.094 23.6562C107.156 23.4896 107.25 23.4062 107.375 23.4062C107.625 23.4062 107.948 23.6771 108.344 24.2188C108.76 24.7604 108.969 25.1875 108.969 25.5C108.969 25.7083 108.854 25.8646 108.625 25.9688C105.646 27.4688 102.656 28.4479 99.6562 28.9062C99.5729 28.9271 99.4792 28.9375 99.375 28.9375C99.0625 28.9375 98.9062 28.8542 98.9062 28.6875ZM104.719 15.75L116.938 15.1562L117.031 13.5312L104.656 14.125L104.719 15.75ZM104.875 18.6875L116.75 18.125L116.844 16.5L104.781 17.0938L104.875 18.6875ZM105 21.7188L116.562 21.25L116.656 19.5625L104.938 20.0625L105 21.7188ZM105.438 12.125C105.438 12.0417 105.49 11.9583 105.594 11.875C105.698 11.7708 105.844 11.6875 106.031 11.625C107.469 11.1458 108.865 10.4583 110.219 9.5625C111.573 8.66667 112.531 7.44792 113.094 5.90625C113.156 5.71875 113.188 5.5625 113.188 5.4375C113.188 5.33333 113.167 5.17708 113.125 4.96875L113.094 4.8125C113.094 4.64583 113.198 4.5625 113.406 4.5625C113.698 4.5625 114.083 4.67708 114.562 4.90625C115.042 5.13542 115.281 5.38542 115.281 5.65625C115.281 5.78125 115.25 5.90625 115.188 6.03125L114.844 6.8125C116.135 7.83333 117.5 8.66667 118.938 9.3125C120.375 9.9375 122.042 10.4583 123.938 10.875C124.167 10.9375 124.323 10.9896 124.406 11.0312C124.51 11.0729 124.562 11.1458 124.562 11.25C124.562 11.4167 124.385 11.6875 124.031 12.0625C123.698 12.4375 123.417 12.625 123.188 12.625C123.083 12.625 123.01 12.6146 122.969 12.5938C119.552 11.6146 116.583 10.1146 114.062 8.09375C113.333 9.13542 112.396 9.97917 111.25 10.625C110.104 11.25 109.021 11.6979 108 11.9688C107 12.2396 106.312 12.375 105.938 12.375C105.771 12.375 105.646 12.3542 105.562 12.3125C105.479 12.25 105.438 12.1875 105.438 12.125ZM107.25 7.625C107.25 7.45833 107.396 7.19792 107.688 6.84375C108.521 5.84375 109.25 4.76042 109.875 3.59375C110.521 2.40625 110.885 1.36458 110.969 0.46875C111.01 0.21875 111.125 0.09375 111.312 0.09375C111.542 0.09375 111.792 0.197917 112.062 0.40625C112.354 0.59375 112.594 0.8125 112.781 1.0625C112.99 1.3125 113.094 1.48958 113.094 1.59375C113.094 1.65625 112.99 1.85417 112.781 2.1875C112.594 2.52083 112.385 2.80208 112.156 3.03125L120.219 2.40625C120.406 2.38542 120.625 2.375 120.875 2.375C121.188 2.375 121.49 2.48958 121.781 2.71875C122.073 2.94792 122.219 3.19792 122.219 3.46875C122.219 3.69792 122.146 3.88542 122 4.03125C121.854 4.15625 121.771 4.22917 121.75 4.25C121 5.10417 120.25 5.85417 119.5 6.5C118.75 7.14583 118.208 7.46875 117.875 7.46875C117.75 7.46875 117.688 7.40625 117.688 7.28125C117.688 7.11458 117.823 6.85417 118.094 6.5C118.719 5.72917 119.26 4.88542 119.719 3.96875L111.188 4.53125C110.438 5.48958 109.688 6.27083 108.938 6.875C108.188 7.45833 107.677 7.75 107.406 7.75C107.302 7.75 107.25 7.70833 107.25 7.625ZM112.906 24.6562C112.906 24.4896 112.979 24.25 113.125 23.9375C113.271 23.6042 113.469 23.4375 113.719 23.4375C114.031 23.4375 114.938 23.7604 116.438 24.4062C117.958 25.0312 119.427 25.7604 120.844 26.5938C121.094 26.7396 121.271 26.8646 121.375 26.9688C121.5 27.0938 121.562 27.25 121.562 27.4375C121.562 27.6458 121.479 27.9375 121.312 28.3125C121.146 28.6875 120.927 28.875 120.656 28.875C120.49 28.875 120.271 28.7917 120 28.625C118.854 27.9167 117.802 27.3125 116.844 26.8125C115.906 26.3333 114.823 25.8438 113.594 25.3438C113.135 25.1562 112.906 24.9271 112.906 24.6562Z" fill="#333333"/>
<path d="M177.156 12.2812C176.469 12.0312 176.146 11.7604 176.188 11.4688C176.312 10.5938 176.375 9.59375 176.375 8.46875C176.375 7.96875 176.365 7.60417 176.344 7.375C176.323 7.10417 176.302 6.875 176.281 6.6875C176.26 6.47917 176.26 6.36458 176.281 6.34375C176.365 6.26042 176.469 6.21875 176.594 6.21875C176.781 6.21875 177.01 6.30208 177.281 6.46875C177.573 6.63542 177.719 6.80208 177.719 6.96875C177.719 7.07292 177.708 7.17708 177.688 7.28125C177.667 7.36458 177.656 7.45833 177.656 7.5625L177.469 10.6562C177.469 10.8229 177.531 10.9271 177.656 10.9688H177.812C177.979 10.9688 178.094 10.9583 178.156 10.9375L182.188 10.375V9.5625C182.188 8.54167 182.167 7.75 182.125 7.1875C182.104 6.70833 182.052 6.32292 181.969 6.03125C181.906 5.69792 181.99 5.53125 182.219 5.53125C182.385 5.53125 182.604 5.59375 182.875 5.71875C183.208 5.88542 183.406 6.03125 183.469 6.15625C183.531 6.26042 183.552 6.42708 183.531 6.65625C183.49 7.03125 183.469 7.59375 183.469 8.34375L183.5 10.7188C183.5 11.2188 183.406 11.6146 183.219 11.9062C183.115 12.0312 183.01 12.0938 182.906 12.0938C182.802 12.0938 182.656 12 182.469 11.8125C182.427 11.7708 182.375 11.7083 182.312 11.625C182.25 11.5417 182.188 11.4896 182.125 11.4688C182.062 11.4479 181.979 11.4375 181.875 11.4375C181.396 11.4792 180.24 11.6354 178.406 11.9062C178.094 11.9479 177.844 12.0312 177.656 12.1562C177.448 12.2604 177.312 12.3125 177.25 12.3125L177.156 12.2812ZM181.125 19C180.917 19.2708 180.698 19.4062 180.469 19.4062C180.406 19.4062 180.375 19.3542 180.375 19.25C180.375 19.1042 180.417 18.9375 180.5 18.75C180.5 18.75 180.708 18.3333 181.125 17.5C181.146 17.4167 181.177 17.3333 181.219 17.25C181.26 17.1667 181.292 17.0938 181.312 17.0312V17C181.312 16.9583 181.281 16.9167 181.219 16.875C181.156 16.8333 181.083 16.8229 181 16.8438C180.667 16.8646 180.167 16.9167 179.5 17C178.854 17.0833 178.375 17.1667 178.062 17.25C177.938 17.2917 177.781 17.3438 177.594 17.4062C177.427 17.4688 177.292 17.5 177.188 17.5C176.812 17.5 176.5 17.3854 176.25 17.1562C176.042 17.0104 175.885 16.8646 175.781 16.7188L175.719 16.5625C175.719 16.4583 175.896 16.4271 176.25 16.4688C176.729 16.5104 177.719 16.4479 179.219 16.2812L179.844 16.1875C180.01 16.1667 180.271 16.1354 180.625 16.0938C181 16.0312 181.292 15.9688 181.5 15.9062C181.562 15.8854 181.625 15.8646 181.688 15.8438C181.771 15.8021 181.844 15.7812 181.906 15.7812C182.01 15.7812 182.135 15.8333 182.281 15.9375C182.448 16.0417 182.583 16.1354 182.688 16.2188C182.833 16.3229 182.927 16.4167 182.969 16.5C183.031 16.5625 183.052 16.6458 183.031 16.75C183.031 16.8542 182.979 16.9479 182.875 17.0312C182.771 17.1146 182.698 17.1771 182.656 17.2188C182.615 17.2812 182.469 17.4375 182.219 17.6875C182.115 17.8542 181.927 18.0833 181.656 18.375C181.406 18.6667 181.229 18.875 181.125 19ZM179.562 25.1562C179.562 25.0938 179.667 24.9375 179.875 24.6875C180.104 24.4167 180.281 24.2083 180.406 24.0625C180.719 23.6458 181.094 23.0417 181.531 22.25C181.99 21.4583 182.25 20.9375 182.312 20.6875C182.354 20.5625 182.292 20.5 182.125 20.5C181.792 20.5 180.875 20.5938 179.375 20.7812C178.396 20.9062 177.667 21.0312 177.188 21.1562C177.083 21.2188 176.979 21.25 176.875 21.25C176.708 21.25 176.531 21.1354 176.344 20.9062C176.26 20.7604 176.219 20.625 176.219 20.5C176.219 20.4167 176.271 20.3333 176.375 20.25L176.469 20.125C176.531 20 176.604 19.8333 176.688 19.625C176.771 19.4167 176.844 19.2188 176.906 19.0312C177.01 18.6979 177.083 18.3333 177.125 17.9375C177.146 17.7083 177.271 17.6458 177.5 17.75C177.792 17.8958 178.01 18.0417 178.156 18.1875C178.323 18.3125 178.375 18.4062 178.312 18.4688C178.104 18.7188 177.938 19 177.812 19.3125C177.708 19.6458 177.646 19.8646 177.625 19.9688C177.625 20.0521 177.677 20.0938 177.781 20.0938C178.094 20.0938 178.562 20.0417 179.188 19.9375C179.542 19.8958 179.979 19.8438 180.5 19.7812C181.021 19.7188 181.438 19.6562 181.75 19.5938L182.531 19.4375C182.594 19.4167 182.677 19.4062 182.781 19.4062C182.885 19.4062 182.99 19.4479 183.094 19.5312C183.198 19.5938 183.312 19.6771 183.438 19.7812C183.646 19.9688 183.781 20.125 183.844 20.25C183.906 20.3542 183.938 20.4792 183.938 20.625C183.938 20.7083 183.875 20.8125 183.75 20.9375C183.646 21.0625 183.521 21.2604 183.375 21.5312C182.771 22.7604 181.99 23.7917 181.031 24.625C180.76 24.8333 180.458 25.0104 180.125 25.1562C179.979 25.1979 179.844 25.2292 179.719 25.25C179.615 25.25 179.562 25.2188 179.562 25.1562ZM189.562 10.7188C189.812 10.7188 189.938 10.8333 189.938 11.0625C189.938 11.1875 189.823 11.3646 189.594 11.5938C188.969 12.3646 187.729 13.8333 185.875 16C185.729 16.1875 185.594 16.2812 185.469 16.2812C185.365 16.2812 185.135 16.125 184.781 15.8125C184.49 15.5625 184.344 15.3542 184.344 15.1875C184.344 15 184.5 14.8229 184.812 14.6562C185.292 14.3854 186.01 13.8438 186.969 13.0312C187.927 12.1771 188.635 11.5 189.094 11C189.281 10.8125 189.438 10.7188 189.562 10.7188ZM160.906 18.4062L160.938 18.7188V18.875C160.938 19.2708 160.792 19.4688 160.5 19.4688C160.208 19.4688 159.885 19.3646 159.531 19.1562C159.198 18.9271 159.031 18.6458 159.031 18.3125L159.062 18.0312C159.104 17.6979 159.125 17.4375 159.125 17.25C159.125 17.0417 159.115 16.875 159.094 16.75L158.625 11.25C158.562 10.4792 158.448 9.9375 158.281 9.625C158.094 9.29167 158 9.07292 158 8.96875C158 8.84375 158.094 8.78125 158.281 8.78125C158.573 8.78125 159.25 8.95833 160.312 9.3125L161.656 9.21875C162.135 8.42708 162.49 7.67708 162.719 6.96875C162.948 6.26042 163.062 5.79167 163.062 5.5625V5.375C163.062 5.125 163.146 5 163.312 5C163.604 5 163.99 5.15625 164.469 5.46875C164.948 5.76042 165.188 6.01042 165.188 6.21875C165.188 6.30208 165.177 6.35417 165.156 6.375C164.719 7.29167 164.208 8.19792 163.625 9.09375L168.344 8.78125L168.688 8.75C168.917 8.75 169.177 8.86458 169.469 9.09375C169.781 9.32292 169.938 9.5625 169.938 9.8125C169.938 9.89583 169.896 10.0104 169.812 10.1562C169.75 10.3021 169.719 10.4062 169.719 10.4688L168.969 16.4062C169.49 17.0104 169.75 17.4167 169.75 17.625C169.75 17.75 169.677 17.8333 169.531 17.875C169.385 17.9167 169.146 17.9479 168.812 17.9688L165.094 18.1562L165.188 26.3125C165.188 26.5208 165.198 26.7188 165.219 26.9062C165.24 27.1146 165.25 27.2917 165.25 27.4375C165.25 27.875 165.104 28.2083 164.812 28.4375C164.521 28.6667 164.219 28.7812 163.906 28.7812C163.594 28.7812 163.031 28.5208 162.219 28C161.427 27.4792 160.646 26.8333 159.875 26.0625C159.562 25.75 159.406 25.5 159.406 25.3125C159.406 25.2083 159.479 25.1562 159.625 25.1562C159.812 25.1562 160.094 25.25 160.469 25.4375C161.469 25.9583 162.417 26.3229 163.312 26.5312L163.25 18.2812L160.906 18.4062ZM144.438 25.5312C144.438 25.4479 144.542 25.3333 144.75 25.1875C145.271 24.8333 145.646 24.4896 145.875 24.1562C147.208 22.2396 148.771 19.625 150.562 16.3125C150.875 15.7292 151.156 15.4375 151.406 15.4375C151.573 15.4375 151.656 15.5729 151.656 15.8438C151.656 16.0521 151.594 16.3333 151.469 16.6875C150.719 18.9375 149.427 21.8958 147.594 25.5625C147.427 25.9167 147.26 26.1771 147.094 26.3438C146.948 26.5104 146.771 26.5938 146.562 26.5938H146.406C146.135 26.5312 145.74 26.3958 145.219 26.1875C144.698 25.9792 144.438 25.7604 144.438 25.5312ZM145.125 10.4062C145.125 10.1979 145.229 9.96875 145.438 9.71875C145.646 9.44792 145.875 9.3125 146.125 9.3125C146.292 9.3125 146.51 9.39583 146.781 9.5625C148.448 10.6667 149.573 11.4583 150.156 11.9375C150.74 12.4167 151.031 12.7812 151.031 13.0312C151.031 13.2604 150.917 13.5417 150.688 13.875C150.479 14.2083 150.26 14.375 150.031 14.375C149.844 14.375 149.604 14.2396 149.312 13.9688C148.062 12.7812 146.854 11.7917 145.688 11C145.646 10.9583 145.562 10.9062 145.438 10.8438C145.333 10.7604 145.25 10.6875 145.188 10.625C145.146 10.5625 145.125 10.4896 145.125 10.4062ZM147.188 3.5C147.188 3.3125 147.292 3.10417 147.5 2.875C147.729 2.625 147.958 2.5 148.188 2.5C148.417 2.5 148.917 2.8125 149.688 3.4375C150.458 4.04167 151.177 4.6875 151.844 5.375C152.531 6.0625 152.875 6.51042 152.875 6.71875C152.875 6.90625 152.74 7.17708 152.469 7.53125C152.198 7.88542 151.969 8.0625 151.781 8.0625C151.573 8.0625 151.344 7.90625 151.094 7.59375C150.365 6.78125 149.75 6.125 149.25 5.625C148.75 5.10417 148.208 4.60417 147.625 4.125C147.5 4.02083 147.396 3.91667 147.312 3.8125C147.229 3.70833 147.188 3.60417 147.188 3.5ZM150.031 27.75C150.031 27.5417 150.156 27.2292 150.406 26.8125C152.156 23.9167 153.323 20.7917 153.906 17.4375C154.51 14.0625 154.812 10.6146 154.812 7.09375V5.8125C154.792 5.27083 154.76 4.83333 154.719 4.5C154.677 4.16667 154.594 3.83333 154.469 3.5C154.385 3.25 154.344 3.09375 154.344 3.03125C154.344 2.88542 154.427 2.8125 154.594 2.8125C154.885 2.8125 155.604 3.0625 156.75 3.5625L168.219 2.78125C168.635 2.76042 169.021 2.69792 169.375 2.59375C169.583 2.55208 169.719 2.53125 169.781 2.53125C170.01 2.53125 170.25 2.625 170.5 2.8125C170.771 2.97917 171 3.17708 171.188 3.40625C171.375 3.63542 171.469 3.80208 171.469 3.90625C171.469 4.17708 171.167 4.33333 170.562 4.375L156.75 5.25C156.75 9.16667 156.573 12.3333 156.219 14.75C155.885 17.0833 155.323 19.2604 154.531 21.2812C153.74 23.3021 152.927 24.9167 152.094 26.125C151.26 27.3542 150.635 27.9688 150.219 27.9688C150.094 27.9688 150.031 27.8958 150.031 27.75ZM155.375 26.7812C155.375 26.5521 155.521 26.25 155.812 25.875C157.271 23.8333 158.24 22.1562 158.719 20.8438C158.76 20.6354 158.781 20.4375 158.781 20.25V19.8125C158.781 19.6042 158.865 19.5 159.031 19.5C159.156 19.5 159.385 19.5833 159.719 19.75C160.052 19.9167 160.344 20.1146 160.594 20.3438C160.865 20.5729 161 20.7812 161 20.9688C161 21.0312 160.979 21.1042 160.938 21.1875C159.312 23.6875 157.833 25.4479 156.5 26.4688C156.417 26.5521 156.271 26.6562 156.062 26.7812C155.854 26.9062 155.688 26.9688 155.562 26.9688C155.438 26.9688 155.375 26.9062 155.375 26.7812ZM160.5 12.9688L167.562 12.5625L167.781 10.4375L160.344 10.9062L160.5 12.9688ZM160.781 16.8438L167.188 16.4688L167.438 14.0625L160.625 14.4375L160.781 16.8438ZM167.062 20.1562C167.062 19.9479 167.188 19.7396 167.438 19.5312C167.708 19.3229 167.938 19.2188 168.125 19.2188C168.333 19.2188 168.802 19.6458 169.531 20.5C170.281 21.3333 171 22.2292 171.688 23.1875C172.375 24.125 172.719 24.6771 172.719 24.8438C172.719 25.0521 172.635 25.25 172.469 25.4375C172.302 25.625 172.115 25.7812 171.906 25.9062C171.698 26.0104 171.562 26.0625 171.5 26.0625C171.333 26.0625 171.115 25.8646 170.844 25.4688C169.802 23.7812 168.656 22.2188 167.406 20.7812C167.177 20.5104 167.062 20.3021 167.062 20.1562Z" fill="#333333"/>
</svg>
