<svg xmlns="http://www.w3.org/2000/svg" width="190" height="30" fill="none"><path fill="#333" d="M38.219 10.719c-.146 0-.302-.094-.469-.281a1.913 1.913 0 0 1-.25-.344c-.042-.104-.042-.24 0-.406l.031-.75c.021-.146.032-.5.032-1.063V6.844l-.938.437-1.094.469c-.27.104-.552.23-.843.375-.25.125-.47.188-.657.188a1.934 1.934 0 0 1-.5-.157 4.212 4.212 0 0 1-.437-.219c-.23-.145-.334-.302-.313-.468l.094-.313c0-.166.01-.312.031-.437l.032-1.813V3.22c0-.334-.021-.615-.063-.844-.042-.25-.073-.427-.094-.531 0-.104.032-.177.094-.219.02-.02.073-.031.156-.031.146 0 .427.093.844.281.354.167.5.375.438.625a5.316 5.316 0 0 0-.126.656l-.093 3.594c0 .104.01.188.031.25.042.042.083.063.125.063.25 0 .552-.073.906-.22.667-.208 1.24-.416 1.719-.624l.688-.282V3.876c0-.833-.053-1.635-.157-2.406a.694.694 0 0 1-.031-.219c0-.208.083-.313.25-.313.02 0 .135.042.344.125.312.167.541.313.687.438.146.125.23.198.25.219.084.062.125.125.125.187 0 .042-.02.094-.062.157-.021.062-.042.114-.063.156l-.093.937-.032 2.875.032 2.782c0 .479-.032.895-.094 1.25-.104.437-.271.656-.5.656Zm-5.75 5.125c-.23 0-.51-.177-.844-.531-.25-.25-.375-.438-.375-.563 0-.063.042-.094.125-.094.083-.02.188-.031.313-.031l.687-.031c.396 0 .656-.01.781-.031.396 0 .73-.01 1-.032 1.792-.166 3-.302 3.625-.406.313-.042.594-.083.844-.125.25-.063.448-.094.594-.094.291 0 .583.146.875.438.229.229.343.416.343.562 0 .125-.072.209-.218.25-.104.021-.719.063-1.844.125-.625.021-1.396.073-2.313.156-.916.084-1.718.167-2.406.25-.125.021-.302.053-.531.094-.23.042-.448.063-.656.063Zm6.718 10.781c.042.083.115.208.22.375.103.167.156.365.156.594a.594.594 0 0 1-.25.5.832.832 0 0 1-.563.218c-.188 0-.344-.187-.469-.562-.062-.146-.114-.27-.156-.375a3.024 3.024 0 0 0-.063-.219c-.27.084-.624.157-1.062.219-.438.063-.75.115-.938.156-1 .188-1.687.323-2.062.407a14.56 14.56 0 0 1-.469.125c-.166.062-.26.104-.281.125a.991.991 0 0 1-.281.062c-.167 0-.323-.073-.469-.219a1.705 1.705 0 0 1-.563-.75c-.02-.02-.03-.052-.03-.093 0-.042.051-.094.155-.157a2.43 2.43 0 0 1 .282-.125c.27-.146.75-.583 1.437-1.312l.844-.813-1.844-1c-.208-.062-.343-.135-.406-.218-.063-.084-.094-.209-.094-.375 0-.125.021-.209.063-.25.062-.063.187-.157.375-.282.187-.125.375-.291.562-.5.104-.125.24-.26.407-.406.166-.146.322-.302.468-.469.625-.729 1.021-1.302 1.188-1.718.104-.209.187-.313.25-.313.041 0 .125.042.25.125.396.292.635.563.718.813v.093c0 .104-.052.188-.156.25a1.215 1.215 0 0 0-.218.157c-.063.041-.376.343-.938.906l-.563.562-.53.532c-.25.229-.376.364-.376.406 0 .062.032.114.094.156a.728.728 0 0 1 .188.125l1.312.625c.813-.813 1.281-1.292 1.406-1.438.542-.625.844-1.02.907-1.187a.722.722 0 0 0 .093-.156c.042-.084.084-.125.125-.125.063 0 .125.031.188.093.333.313.573.605.718.875a.546.546 0 0 1 .063.157c0 .041-.052.104-.156.187l-.25.188c-.73.604-1.584 1.396-2.563 2.375L34 26.75c-.042.042-.063.083-.063.125 0 .042.021.073.063.094.042.02.104.02.188 0l3.656-.625c-.104-.417-.23-.834-.375-1.25v-.063c0-.062.031-.093.093-.093.084 0 .209.062.376.187.333.292.75.792 1.25 1.5Zm2.376-9.594c.104 0 .26.073.468.219-.02.042.021.125.125.25l.219.219c.104.104.208.229.313.375.124.146.26.302.406.468.375.396 1.24 1.428 2.593 3.094.23.334.344.532.344.594 0 .208-.125.313-.375.313-.146 0-.302-.105-.468-.313-.396-.417-1.105-1.073-2.126-1.969-.791-.729-1.51-1.291-2.156-1.687-.312-.146-.468-.313-.468-.5 0-.146.156-.354.468-.625.292-.292.51-.438.657-.438ZM8.906 11.656l.031-1.25-.03-1.844c-.376.021-.772.053-1.188.094-.271.021-.51.031-.719.031-.5 0-.906-.072-1.219-.218-.333-.125-.52-.323-.562-.594a.574.574 0 0 1 .375-.281l.75-.063 1.562-.187L9.031 7c0-.292-.02-.698-.062-1.219-.021-.5-.042-.875-.063-1.125a9.157 9.157 0 0 0-.187-.843 12.958 12.958 0 0 0-.188-.657l-.25-.437-.125-.406c.063-.146.219-.24.469-.282.208 0 .417.021.625.063.27.083.531.177.781.281.25.125.48.281.688.469l.344.5c0 .166-.053.354-.157.562-.083.209-.146.5-.187.875l-.125.938-.031.406-.032.719a12 12 0 0 0 .875-.25c.209-.063.417-.094.625-.094l.313.063c.187.062.406.177.656.343l.406.375c0 .146-.104.271-.312.375-.209.104-.563.209-1.063.313l-1.5.281-.062 1.625-.063 1.469 1.063-.188c.333-.396.594-.719.781-.969a9.98 9.98 0 0 0 .625-1.03c.23-.438.417-.813.563-1.126.124-.333.197-.635.218-.906.042-.27.063-.49.063-.656V6.03l.062-.281c.104-.104.271-.156.5-.156.167.041.354.125.563.25.187.146.396.323.625.531.25.208.437.406.562.594l.188.375a.77.77 0 0 1-.125.437l-.438.438-.75 1.062-1.062 1.438c.562-.104 1.02-.156 1.375-.156.375.02.75.083 1.125.187s.593.292.656.563l-.031.312c-.104.146-.313.219-.625.219-.375 0-.917.041-1.625.125l-2.031.25c-1.042 1.208-1.698 1.948-1.97 2.219L9.407 15.75c.375-.063.698-.125.969-.188.27-.062.583-.177.938-.343.333-.167.666-.271 1-.313.291 0 .572.063.843.188l.813.406c.625.313.937.573.937.781l-.031.313-.875.437-1.344.844-1.5 1.156.25.438v1.125l3.031-.875.313.156c.02.125-.052.219-.219.281l-3.125 1.438-.062 4.187c0 .542-.042 1.021-.125 1.438-.063.396-.188.75-.375 1.062-.188.292-.417.521-.688.688l-.5.187c-.146-.02-.302-.208-.469-.562-.145-.375-.322-.677-.53-.907l-.626-.656a8.09 8.09 0 0 0-.5-.468l-.468-.438.218-.156.438.093.687.282c.209.062.396.093.563.093l.281-.03c.23-.126.406-.345.531-.657.125-.313.188-.688.188-1.125L10 22.219 6.156 24l-.656.469h-.281c-.167-.042-.354-.146-.563-.313A13.739 13.739 0 0 1 4 23.594c-.25-.209-.323-.48-.219-.813.25-.02.563-.062.938-.125l.687-.156L10 21.094l-.031-.875c0-.23-.052-.448-.156-.657A1.469 1.469 0 0 0 9.374 19l-.156-.375.25-.156c.187 0 .364.02.531.062l.563.063 1.03-1.625c.167-.25.24-.469.22-.657-.063-.125-.188-.197-.376-.218-.145-.021-.333.02-.562.125l-.656.218-.563.22-.625.312-.312.093-.5-.218-1.063.875c-.396.291-1.093.74-2.093 1.343-1.021.605-1.844 1.053-2.47 1.344-.624.271-1.103.438-1.437.5l-.906-.062.531-.375 1-.563c.75-.416 1.573-.968 2.469-1.656a42.708 42.708 0 0 0 2.719-2.281c.916-.792 1.5-1.344 1.75-1.656l1.594-1.75A93.961 93.961 0 0 0 7.874 13l-1.906.469a41.43 41.43 0 0 0-1.344.375c-.27.083-.49.125-.656.125-.167 0-.406-.042-.719-.125a5.59 5.59 0 0 1-.969-.438c-.25-.166-.354-.375-.312-.625.146-.083.396-.156.75-.219l.594-.093c1.145-.125 1.947-.23 2.406-.313.458-.041.948-.114 1.468-.219L8 11.813l.906-.157Zm10.438.5 1-.219c.25-.062.802-.218 1.656-.468.854-.25 1.52-.48 2-.688.48-.187.823-.302 1.031-.344.209-.062.438-.093.688-.093.354 0 .802.083 1.343.25.542.166.813.344.813.531l-.094.25c-.125.146-.333.23-.625.25-.291.02-.791.104-1.5.25-.687.146-1.093.24-1.218.281l-2.282.438c.375.229.657.416.844.562.188.167.323.313.406.438l.157.562-.282.844a2.718 2.718 0 0 0-.156.531c-.02.209-.156.927-.406 2.156-.25 1.23-.396 1.917-.438 2.063l-.562 1.469a22.788 22.788 0 0 0 1.468 1.562c.438.417 1.032.875 1.782 1.375s1.458.907 2.125 1.219c.625.313 1.302.594 2.031.844l.781.5-.031.218-.594.157c-.166.083-.552.146-1.156.187-.583.042-.969.073-1.156.094h-.75c-.792 0-1.396-.094-1.813-.281a2.415 2.415 0 0 1-.968-.719 7.774 7.774 0 0 1-.782-1.094l-1.75-2.593c-.437.5-.854.947-1.25 1.343-.416.396-.937.792-1.562 1.188-.667.375-1.292.614-1.875.718-.584.105-1.136.167-1.657.188l-.718-.281.594-.219a16.004 16.004 0 0 0 1.406-.531c.375-.167.875-.49 1.5-.969.625-.48 1.104-.917 1.437-1.313a6.39 6.39 0 0 0 .813-1.093L20.03 21l-.593-1.031a44.091 44.091 0 0 0-.75-1.063c-.355-.541-.615-.906-.782-1.093a1.869 1.869 0 0 0-.562-.438l-.407-.438c.084-.125.22-.187.407-.187.333.02.562.042.687.063.125.02.313.114.563.28a3 3 0 0 1 .75.782l1.312 1.844c.146-.354.271-.677.375-.969.084-.313.167-.823.25-1.531.084-.709.146-1.386.188-2.032.041-.395.062-.697.062-.906l-.031-.25-.219-1.25c-.375.125-.666.23-.875.313-.229.062-.5.114-.812.156h-.438l-.437-.125-.719.906c-.27.354-.604.73-1 1.125-.375.417-.677.698-.906.844l-.907.25.344-.5c.25-.333.573-.833.969-1.5a42.5 42.5 0 0 0 1.094-1.781c.291-.521.604-1.125.937-1.813L19.594 8c.416-1.063.708-1.854.875-2.375.166-.52.27-.98.312-1.375.063-.27.084-.646.063-1.125L21 2.562h.25c.333.063.677.198 1.031.407.375.25.646.5.813.75a.859.859 0 0 1 .187.625c-.041.125-.146.281-.312.468-.167.188-.344.51-.532.97l-1.406 3.25c-.291.666-.708 1.468-1.25 2.405l-.437.72ZM83.813 10.313c-.126 0-.292-.136-.5-.407-.209-.291-.303-.541-.282-.75.042-.166.073-.635.094-1.406.02-.52.031-1.438.031-2.75 0-.917-.01-1.531-.031-1.844l-1.031.094c-.73.104-1.354.156-1.875.156-.146 0-.354-.114-.625-.344-.271-.229-.406-.395-.406-.5 0-.166.177-.229.53-.187.23.02.907.01 2.032-.031a101.75 101.75 0 0 1 3.344-.188c.354-.02.677-.052.969-.094.312-.062.53-.104.656-.124.187-.021.354 0 .5.062.146.063.281.146.406.25.146.083.26.146.344.188.187.124.281.24.281.343 0 .084-.052.167-.156.25a.457.457 0 0 1-.281.094c-.105 0-.25-.01-.438-.031a4.57 4.57 0 0 0-.563-.031c-.77 0-1.562.02-2.374.062-.021.167-.032.583-.032 1.25a89.66 89.66 0 0 0-.062 3.313v1.499c0 .355-.031.584-.094.688-.188.292-.333.438-.438.438Zm-2.657 7.656c-.687-.25-1.01-.521-.969-.813.126-.875.188-1.875.188-3 0-.5-.01-.864-.031-1.094-.021-.27-.042-.5-.063-.687-.02-.208-.02-.323 0-.344a.424.424 0 0 1 .313-.125c.187 0 .416.084.687.25.292.167.438.334.438.5 0 .104-.01.209-.031.313-.021.083-.032.177-.032.281l-.187 3.094c0 .166.062.27.187.312h.156c.167 0 .282-.01.344-.031l4.031-.563v-.812c0-1.02-.02-1.813-.062-2.375-.02-.48-.073-.865-.156-1.156-.063-.334.02-.5.25-.5.166 0 .385.062.656.187.333.167.531.313.594.438.062.104.083.27.062.5-.041.375-.062.937-.062 1.687l.031 2.375c0 .5-.094.896-.281 1.188-.104.125-.209.187-.313.187-.104 0-.25-.093-.437-.281a1.83 1.83 0 0 1-.156-.188.417.417 0 0 0-.188-.156.814.814 0 0 0-.25-.031c-.48.042-1.635.198-3.469.469-.312.041-.562.125-.75.25-.208.104-.344.156-.406.156l-.094-.031Zm3.5 10.781c-.646 0-1.146-.02-1.5-.063a1.497 1.497 0 0 1-.844-.375c-.395-.291-.666-.927-.812-1.906l-.094-1c0-.25-.02-.562-.062-.937a5.311 5.311 0 0 0-.719.125c-.042.02-.115.052-.219.093a.857.857 0 0 1-.187.032.718.718 0 0 1-.406-.125c-.126-.084-.282-.24-.47-.469-.145-.188-.218-.313-.218-.375 0-.063.073-.104.219-.125a4.42 4.42 0 0 1 .594-.031 9.79 9.79 0 0 0 1.374-.125l-.03-.438c0-.833-.053-1.541-.157-2.125l-.031-.218c0-.292.114-.407.344-.344.25.083.479.187.687.312.167.084.281.167.344.25.062.063.083.157.062.282l-.094 1.343v.813l2.75-.282c0-.145.01-.49.032-1.03.02-.563.02-.928 0-1.095 0-.166-.021-.322-.063-.468a5.863 5.863 0 0 0-.062-.407c0-.166.083-.25.25-.25.166 0 .375.094.625.282.291.187.479.354.562.5.104.146.125.323.063.531a5.669 5.669 0 0 0-.219 1.125c-.042.417-.063.667-.063.75.25-.02.48-.052.688-.094.208-.041.344-.062.406-.062A2.47 2.47 0 0 1 88 22.78c.125.021.302.146.531.375.188.25.281.448.281.594 0 .208-.197.292-.593.25a6.104 6.104 0 0 0-1.063-.094c-.354 0-.656.01-.906.032a13.34 13.34 0 0 1-.375 2.218 1.084 1.084 0 0 1-.219.438c-.104.104-.198.156-.281.156-.146 0-.24-.052-.281-.156a3.708 3.708 0 0 1-.031-.563c.041-.541.062-1.218.062-2.031-.563.042-1 .083-1.313.125-.479.104-.927.167-1.343.188-.021.854.02 1.614.125 2.28.062.438.187.74.375.907.125.104.27.167.437.188a5.1 5.1 0 0 0 .563.03h.375c.646 0 1.25-.03 1.812-.093.167-.02.313-.063.438-.125.146-.063.25-.094.312-.094.188 0 .375.063.563.188.187.125.281.27.281.437 0 .167-.094.292-.281.375-.167.084-.438.157-.813.219-.666.083-1.333.125-2 .125Zm8.906-14.219c.25 0 .376.115.376.344 0 .125-.115.302-.344.531-.625.771-1.865 2.24-3.719 4.406-.146.188-.281.282-.406.282-.104 0-.334-.157-.688-.469-.291-.25-.437-.458-.437-.625 0-.188.156-.365.469-.531.479-.271 1.197-.813 2.156-1.625.958-.854 1.666-1.532 2.125-2.032.187-.187.344-.28.469-.28Zm-38-1.625L54.5 7.062c-.042-.229-.125-.562-.25-1-.146-.437-.281-.75-.406-.937a3.128 3.128 0 0 1-.25-.781c.104-.125.302-.188.593-.188l1 .125.5.188c.292-.25.532-.48.72-.688.187-.208.385-.531.593-.969.208-.437.354-.718.438-.843l.25-.188h.28c.21.084.48.25.813.5.313.25.542.49.688.719l-.032.563c-.312.104-.635.229-.968.374l-.844.376L56 5.125l-.063.813.094 1.312 1.907-.594c.229-.083.437-.135.624-.156.209-.02.396-.031.563-.031l.313.125.093.5c-.27.208-.531.333-.781.375l-2.594.468.157.97.124.874 1.813-.437.594-.063c.396-.02.666 0 .812.063.146.083.177.27.094.562-.292.188-.573.292-.844.313l-2.343.312.312 2.313c2.896-.25 4.604-.417 5.125-.5l6.188-.594c.083-.75.145-1.23.187-1.438l.188-.78-1.813.124h-.781c-.271 0-.48-.052-.625-.156l-.219-.219.031-.25c.104-.083.313-.146.625-.187l1.969-.375.594-.125.469.125.28-2.125-3.03.156-.657-.313c.021-.125.115-.208.281-.25l.688-.093 1.5-.313.688-.125.687.063.125-1.5-.063-.375a1.012 1.012 0 0 0-.624-.188c-.25.021-.47.042-.657.063l-.75.125a4.024 4.024 0 0 1-.844.094 2.311 2.311 0 0 1-.562-.157l-.313-.469c.063-.124.188-.187.376-.187.166-.02.385-.052.656-.094l1.437-.312 1.094-.344.688-.156c.208-.021.406 0 .593.062a2.9 2.9 0 0 1 .625.313c.209.125.427.291.656.5l.344.406c-.02.146-.083.313-.187.5-.125.188-.24.406-.344.656-.125.25-.219.469-.281.657a4.347 4.347 0 0 0-.156.656L69.686 11.5l1.688-.219.625-.125c.375-.083.677-.125.906-.125.23.021.438.073.625.156.188.105.469.313.844.626l1 .812c.354.313.594.594.719.844l.156.437c-.042.188-.208.323-.5.406l-1.25.157c-.125.041-.51.146-1.156.312-.646.167-1.031.26-1.156.281l-.97.344-.468-.219.813-1.093c.208-.25.385-.542.53-.875l.157-.5c-.042-.125-.198-.198-.469-.219-.27-.02-.479-.031-.625-.031L58.062 13.75c-.458.063-.979.125-1.562.188-.563.083-1.02.156-1.375.218a5.774 5.774 0 0 1-.906.094c-.292 0-.521-.02-.688-.063l-.5-.093-.343.969c-.126.354-.25.656-.376.906-.124.25-.322.541-.593.875-.271.333-.573.531-.907.593-.208 0-.374-.041-.5-.125-.166-.104-.28-.322-.343-.656l-.032-.25c0-.27.032-.51.094-.718l.407-.657c.27-.375.479-.729.624-1.062l.438-1.063c.146-.416.27-.74.375-.969.083-.208.23-.322.438-.343l.343.281c.104.146.198.365.282.656l.093.5c.688-.02 1.115-.041 1.282-.062l1.25-.063Zm7.907 5.688.343.5.126.843 2.562-.218a176.94 176.94 0 0 0 2.25-.25c1.083-.125 1.865-.24 2.344-.344.479-.125.802-.188.969-.188.25.021.645.125 1.187.313.563.188.98.396 1.25.625.25.208.323.458.219.75-.188.125-.365.188-.531.188l-1.22.03h-2.343l-2.313.095-2.437.03-1.938.095-.03 3.656c-.022.125-.042.52-.063 1.187a26.964 26.964 0 0 1-.125 1.438 3.79 3.79 0 0 1-.313 1.062 2.02 2.02 0 0 1-.687.875 1.05 1.05 0 0 1-.844.25l-.625-.718c-.25-.313-.5-.594-.75-.844l-.625-.563-.625-.625.094-.375.906.125.875.188.469.062a.661.661 0 0 0 .375-.437c.062-.209.114-.573.156-1.094l.125-1.156v-2.875l-2.438.218c-.541.063-1.052.125-1.53.188-.48.063-1.147.188-2 .375-.855.167-1.49.302-1.907.406-.417.125-.719.188-.906.188-.209 0-.448-.032-.719-.094-.25-.083-.542-.198-.875-.344-.333-.125-.583-.291-.75-.5l-.25-.375c.042-.166.208-.26.5-.281l.875-.031c.458 0 1.396-.063 2.813-.188 1.395-.125 2.447-.229 3.156-.312l3.906-.438c-.042-.25-.083-.479-.125-.687a1.664 1.664 0 0 0-.375-.625l-.063-.657c.167-.02.334-.01.5.032l.75.218 1.563-1.593c.125-.125.25-.292.375-.5l-.031-.469c-.125-.02-.25-.02-.375 0l-1.031.156-3.313.75-1.125.25-.438.063c-.208 0-.374-.021-.5-.063a4.218 4.218 0 0 1-.562-.375l-.438-.562c.021-.125.105-.188.25-.188.167-.02.438-.052.813-.094l1.188-.093c.333 0 .864-.084 1.593-.25l2.282-.406c.666-.146 1.197-.271 1.593-.376.396-.104.677-.166.844-.187.208 0 .385.031.531.094.146.041.48.24 1 .594.521.354.823.593.906.718l.126.406c0 .146-.167.271-.5.375a34.09 34.09 0 0 1-.72.22c-.145.062-.322.145-.53.25l-2.844 1.562Zm-1.563-9.157-.656-.656-.656-.625.031-.219 1.75.75a4.57 4.57 0 0 0 .281-.53c.063-.126.125-.313.188-.563.062-.25.093-.48.093-.688l.157-.406h.281c.333.104.583.219.75.344.167.146.302.291.406.437l.156.25c-.041.125-.145.26-.312.407a4.981 4.981 0 0 0-.469.468l-.687.813c.27.125.52.25.75.375.229.125.385.27.468.437.084.167.136.375.157.625 0 .188-.052.375-.156.563l-.157.219-.469.03c-.166-.124-.364-.333-.593-.624l-.657-.75-.812.687c-.25.209-.52.417-.813.625l-.687.375-.25-.156c.27-.292.49-.531.656-.719l1.25-1.469Zm.188-5.218-1.282-1.563 1.782.781.218-.656c.084-.291.146-.52.188-.687l.031-.375.282-.438c.291.042.541.125.75.25.208.125.385.271.53.438l.157.312c-.02.125-.104.24-.25.344-.125.104-.25.24-.375.406l-.625.875c.292.188.542.334.75.438.188.125.323.25.406.375.104.146.156.333.156.562-.02.25-.083.448-.187.594a.574.574 0 0 1-.375.281.718.718 0 0 1-.406-.125c-.146-.083-.302-.25-.469-.5l-.563-.625c-.291.292-.541.552-.75.782l-.812.656a6.163 6.163 0 0 1-.813.5l-.218-.063.281-.437 1-1.25.594-.875ZM134.219 10.719c-.146 0-.302-.094-.469-.281a1.928 1.928 0 0 1-.25-.344c-.042-.104-.042-.24 0-.406l.031-.75c.021-.146.031-.5.031-1.063V6.844l-.937.437-1.094.469c-.271.104-.552.23-.843.375-.25.125-.469.188-.657.188a1.936 1.936 0 0 1-.5-.157 4.23 4.23 0 0 1-.437-.219c-.229-.145-.334-.302-.313-.468l.094-.313c0-.166.01-.312.031-.437l.032-1.813V3.22c0-.334-.021-.615-.063-.844-.042-.25-.073-.427-.094-.531 0-.104.031-.177.094-.219.021-.02.073-.031.156-.031.146 0 .427.093.844.281.354.167.5.375.437.625a5.354 5.354 0 0 0-.124.656l-.094 3.594c0 .104.01.188.031.25.042.042.083.063.125.063.25 0 .552-.073.906-.22.667-.208 1.24-.416 1.719-.624l.687-.282V3.876c0-.833-.052-1.635-.156-2.406a.688.688 0 0 1-.031-.219c0-.208.083-.313.25-.313.021 0 .135.042.344.125.312.167.541.313.687.438.146.125.229.198.25.219.084.062.125.125.125.187a.308.308 0 0 1-.062.157 1.207 1.207 0 0 1-.063.156l-.094.937-.031 2.875.031 2.782c0 .479-.031.895-.093 1.25-.104.437-.271.656-.5.656Zm-5.75 5.125c-.229 0-.511-.177-.844-.531-.25-.25-.375-.438-.375-.563 0-.063.042-.094.125-.094.083-.02.187-.031.313-.031l.687-.031c.396 0 .656-.01.781-.031.396 0 .729-.01 1-.032 1.792-.166 3-.302 3.625-.406.313-.042.594-.083.844-.125.25-.063.448-.094.594-.094.291 0 .583.146.875.438.229.229.344.416.344.562 0 .125-.073.209-.219.25-.104.021-.719.063-1.844.125-.625.021-1.396.073-2.313.156-.916.084-1.718.167-2.406.25-.125.021-.302.053-.531.094a3.668 3.668 0 0 1-.656.063Zm6.719 10.781c.041.083.114.208.218.375s.156.365.156.594a.593.593 0 0 1-.25.5.83.83 0 0 1-.562.218c-.188 0-.344-.187-.469-.562-.062-.146-.114-.27-.156-.375a3.005 3.005 0 0 0-.063-.219 7.13 7.13 0 0 1-1.062.219c-.438.063-.75.115-.938.156-1 .188-1.687.323-2.062.407-.146.041-.302.083-.469.125-.166.062-.26.104-.281.125a.993.993 0 0 1-.281.062c-.167 0-.323-.073-.469-.219a1.697 1.697 0 0 1-.562-.75c-.021-.02-.032-.052-.032-.093 0-.042.052-.094.156-.157.126-.062.219-.104.282-.125.271-.146.75-.583 1.437-1.312l.844-.813-1.844-1c-.208-.062-.343-.135-.406-.218-.063-.084-.094-.209-.094-.375 0-.125.021-.209.063-.25.062-.063.187-.157.375-.282a3.03 3.03 0 0 0 .562-.5c.104-.125.24-.26.407-.406.166-.146.322-.302.468-.469.625-.729 1.021-1.302 1.188-1.718.104-.209.187-.313.25-.313.041 0 .125.042.25.125.396.292.635.563.718.813v.093c0 .104-.052.188-.156.25a1.182 1.182 0 0 0-.218.157c-.063.041-.376.343-.938.906l-.562.562-.532.532c-.25.229-.375.364-.375.406 0 .062.031.114.094.156a.717.717 0 0 1 .187.125l1.313.625c.813-.813 1.281-1.292 1.406-1.438.542-.625.844-1.02.907-1.187a.738.738 0 0 0 .093-.156c.042-.084.084-.125.125-.125.063 0 .125.031.188.093.333.313.573.605.718.875a.544.544 0 0 1 .063.157c0 .041-.052.104-.156.187l-.25.188c-.729.604-1.584 1.396-2.563 2.375L130 26.75c-.042.042-.062.083-.062.125 0 .042.02.073.062.094.042.02.104.02.188 0l3.656-.625a14.109 14.109 0 0 0-.375-1.25v-.063c0-.062.031-.093.093-.093.084 0 .209.062.376.187.333.292.75.792 1.25 1.5Zm-26.469-5.156-.781-1a30.788 30.788 0 0 0-1-1.188 8.144 8.144 0 0 0-.75-.812 13.34 13.34 0 0 0-.813-.719c-.354-.313-.667-.531-.937-.656a2.348 2.348 0 0 1-.688-.532.474.474 0 0 1 .312-.343c.167-.042.376-.063.626-.063.458 0 .802.073 1.031.219.229.125.51.365.843.719.292.375.594.729.907 1.062.291.313.656.667 1.093 1.063l.563.531.563.531.562-.875c.167-.291.375-.77.625-1.437s.427-1.209.531-1.625c.104-.417.177-.813.219-1.188 0-.27-.031-.52-.094-.75l-.031-.5a.478.478 0 0 1 .375-.25c.167 0 .396.052.687.156.292.126.573.26.844.407.271.166.532.375.782.625.25.291.374.541.374.75a.722.722 0 0 1-.156.344l-.406.406c-.125.125-.312.468-.562 1.031-.25.542-.532 1.104-.844 1.688a15.9 15.9 0 0 1-.844 1.468l-.656.907.937.78c.313.23.865.574 1.657 1.032.791.438 1.562.823 2.312 1.156.75.334 1.448.594 2.094.782.666.187 1.448.395 2.344.625.874.208 1.5.364 1.874.468l1.126.282.312.25a.467.467 0 0 1-.281.312 5.286 5.286 0 0 1-.719.219c-.354.083-1 .208-1.938.375-.937.208-1.708.333-2.312.375a7.42 7.42 0 0 1-1.156.093c-.167 0-.344-.01-.532-.03-.541-.022-.989-.105-1.343-.25-.354-.126-.802-.438-1.344-.938l-1.813-1.75-1.062-1.032-.812-.843-.438-.438c-.458.438-.927.854-1.406 1.25-.479.417-1.136.875-1.969 1.375-.833.5-1.625.896-2.375 1.188a11.07 11.07 0 0 1-2.344.593c-.771.105-1.427.167-1.969.188h-1.25l-.468-.125.094-.313.406-.093c.229-.042.573-.125 1.031-.25l1.75-.5c.708-.25 1.438-.563 2.188-.938.791-.375 1.645-.885 2.562-1.531.917-.646 1.5-1.115 1.75-1.406l.719-.875Zm-9.25-4.188.469-.375.374-.343.813-.75a12.6 12.6 0 0 0 .875-.97c.292-.29.583-.624.875-1 .292-.374.521-.728.687-1.062.188-.291.303-.5.344-.625.021-.125.063-.291.125-.5a9.83 9.83 0 0 0 .094-.531l.219-.313c.187-.041.406-.01.656.094.25.084.458.177.625.281l.625.407c.229.166.417.323.562.469l.188.343-.125.25a9.613 9.613 0 0 0-.469.25 4.488 4.488 0 0 0-.468.313c-.167.125-.459.396-.876.812l-1.124 1.031a9.33 9.33 0 0 1-.938.782l-1.125.75-1.031.562c-.229.104-.511.219-.844.344h-.719l.188-.219Zm9.843-9.937-.624-.625c-.126-.167-.355-.5-.688-1l-.562-.844-.313-.656-.344-.813.281-.187.75.125c.209.041.584.166 1.126.375.541.208.958.416 1.25.625.333.208.552.468.656.781.125.313.198.573.218.781 0 .292-.02.5-.062.625l-.25.625 2.75-.406 1.062-.219 1.5-.218c.646-.105 1.063-.157 1.25-.157.271 0 .521.042.75.125.25.084.584.25 1 .5.438.23.678.427.719.594l-.031.281-.125.282c-.167.062-.76.114-1.781.156l-4.782.312a80.88 80.88 0 0 0-2.156.156c-.729.063-1.333.136-1.812.22-.479.04-1.115.124-1.906.25-.792.124-1.563.239-2.313.343-.729.104-1.365.23-1.906.375-.5.125-.875.188-1.125.188-.313 0-.709-.084-1.188-.25-.479-.167-.781-.313-.906-.438l-.188-.375c.084-.146.344-.25.782-.313l8.968-1.218Zm2.876 2.968.562.126c.208.062.552.177 1.031.343.479.167.948.344 1.407.531.458.188.937.417 1.437.688.5.27.854.51 1.063.719.208.25.374.5.5.75.083.25.135.52.156.812 0 .292-.052.573-.156.844l-.282.406-.312.125c-.209 0-.417-.052-.625-.156-.229-.104-.479-.281-.75-.531a15.51 15.51 0 0 1-.969-1l-1.219-1.375a29.908 29.908 0 0 0-1.156-1.156l-.781-.657-.156-.406.25-.063ZM180.531 10.625c-.333 0-.541-.094-.625-.281a4.35 4.35 0 0 0-.312-.625c-.104-.188-.292-.406-.563-.656l.063-.126c.75.271 1.239.407 1.468.407.167 0 .292-.031.376-.094.083-.063.218-.208.406-.438.271-.291.521-.74.75-1.343.312-.896.51-1.823.594-2.782v-.093c0-.125-.021-.209-.063-.25-.271 0-.99.062-2.156.187-.646 1.604-1.396 2.927-2.25 3.969-.834 1.02-1.594 1.531-2.281 1.531-.167 0-.25-.062-.25-.187 0-.042.208-.281.624-.719.417-.438.876-1.01 1.376-1.719.52-.729 1.01-1.625 1.468-2.687-.104 0-.406.02-.906.062a6.51 6.51 0 0 0-1.281.219.495.495 0 0 1-.531.063l-.063-.032a.49.49 0 0 1-.125-.093 1.36 1.36 0 0 1-.375-.313.832.832 0 0 1-.125-.406c0-.063.052-.146.156-.25l.375-.5c.125-.167.24-.406.344-.719.104-.333.156-.615.156-.844 0-.146-.01-.24-.031-.281a.346.346 0 0 1-.031-.156c0-.104.052-.157.156-.157.125 0 .302.073.531.22.063.04.177.124.344.25.188.103.292.228.312.374 0 .146-.083.386-.25.719l-.406.719a.39.39 0 0 0-.062.219c0 .062.021.114.062.156a.39.39 0 0 0 .219 0l1.875-.25c.208-.542.375-1.115.5-1.719v-.718c0-.23.062-.324.188-.282.27.063.489.146.656.25.312.188.468.344.468.469 0 .104-.041.281-.124.531-.063.23-.115.406-.157.531-.021.084-.114.354-.281.813.062 0 .448-.042 1.156-.125l.313-.063c.062 0 .177-.02.343-.062a.35.35 0 0 1 .157-.031c.25 0 .406.01.469.03.083.022.208.084.374.188.188.125.313.25.376.375.062.125.083.271.062.438l-.188 1.031-.218 1.125c0 .083-.073.354-.219.813a7.466 7.466 0 0 1-.5 1.218c-.354.709-.771 1.24-1.25 1.594-.417.333-.781.5-1.094.5Zm-4.062 5.219c-.229 0-.511-.177-.844-.531-.25-.25-.375-.438-.375-.563 0-.063.042-.094.125-.094.083-.02.187-.031.313-.031l.687-.031c.396 0 .656-.01.781-.031.396 0 .729-.01 1-.032 1.792-.166 3-.302 3.625-.406.313-.042.594-.083.844-.125.25-.063.448-.094.594-.094.291 0 .583.146.875.438.229.229.344.416.344.562 0 .125-.073.209-.219.25-.104.021-.719.063-1.844.125-.625.021-1.396.073-2.313.156-.916.084-1.718.167-2.406.25-.125.021-.302.053-.531.094a3.668 3.668 0 0 1-.656.063Zm7.343 12.312c-.02.021-.072.032-.156.032-.166 0-.406-.115-.718-.344a83.762 83.762 0 0 0-2.782-2.625 21.965 21.965 0 0 1-1.531 1.406 11.53 11.53 0 0 1-.875.563c-.604.354-1.188.572-1.75.656h-.188c-.187 0-.302-.021-.343-.063-.021-.02.021-.062.125-.125.125-.062.218-.114.281-.156.125-.063.479-.292 1.063-.688.291-.208.708-.562 1.25-1.062.541-.5.937-.906 1.187-1.219l-1.281-1a38.944 38.944 0 0 0-.75-.531 5.067 5.067 0 0 0-.532-.406l-.031-.094c0-.125.104-.188.313-.188.25 0 .656.157 1.218.47l1.594 1.03c.354-.458.709-.958 1.063-1.5.375-.562.573-.895.593-1 .021-.062.011-.114-.031-.156-.021-.062-.062-.093-.125-.093h-.625l-1.125.093c-.562.042-1.125.115-1.687.219a8.99 8.99 0 0 1-.313.094 1.405 1.405 0 0 1-.375.062c-.041 0-.219-.114-.531-.343-.292-.25-.448-.407-.469-.47-.021-.02-.031-.051-.031-.093 0-.104.115-.146.344-.125h.437c.584 0 1.427-.052 2.531-.156l1.063-.094.969-.125c.312-.083.489-.125.531-.125h.063c.104 0 .197.031.281.094a.786.786 0 0 1 .187.187.932.932 0 0 0 .094.125l.188.188a.494.494 0 0 1 .187.25.383.383 0 0 1 .063.218c0 .188-.073.323-.219.407-.104.041-.292.26-.563.656a29.33 29.33 0 0 1-1.656 2.344c.354.229.812.562 1.375 1 .25.166.656.448 1.219.843.25.188.437.438.562.75.084.334.125.584.125.75-.021.167-.093.282-.219.344Zm5.75-13.625c.25 0 .376.115.376.344 0 .125-.115.302-.344.531-.625.771-1.865 2.24-3.719 4.406-.146.188-.281.282-.406.282-.104 0-.334-.157-.688-.469-.291-.25-.437-.458-.437-.625 0-.188.156-.365.468-.531.48-.271 1.198-.813 2.157-1.625.958-.854 1.666-1.532 2.125-2.032.187-.187.344-.28.468-.28Zm-43.374-2.687-.75-1.063.25-.25 1.062.25c.146.042.5.136 1.062.281.563.146.969.303 1.219.47.25.145.448.343.594.593.146.27.219.583.219.938 0 .354-.052.624-.156.812l-.219.25c-.125.083-.386.115-.781.094-.355-.104-.698-.334-1.032-.688-.354-.333-.604-.594-.75-.781-.166-.188-.406-.49-.718-.906Zm4.843 4.437.75-1.375.344-.25.25.125-.031.313-.438 1.187c-.25.792-.427 1.313-.531 1.563-.104.25-.344.791-.719 1.625a69.082 69.082 0 0 0-.937 2.312l-.813 2.125c-.25.542-.448 1.021-.594 1.438-.145.416-.302.708-.468.875l-.375.187c-.167 0-.323-.093-.469-.281a2.508 2.508 0 0 1-.375-.75 9.595 9.595 0 0 1-.313-.906 13.321 13.321 0 0 1-.218-.875l-.032-.25.032-.344c.062-.146.229-.333.5-.563l.937-.875c.334-.354.646-.729.938-1.125.291-.395.604-.854.937-1.375.375-.52.646-.927.813-1.218.166-.292.437-.813.812-1.563Zm-1.437-10.343-.438-.594-.187-.407c.021-.125.166-.177.437-.156l.813.125c.187.042.541.146 1.062.313.5.166.854.333 1.063.5.208.187.375.396.5.625.125.25.187.52.187.812 0 .271-.031.48-.093.625a1.22 1.22 0 0 1-.376.344.986.986 0 0 1-.5.125c-.312-.02-.614-.167-.906-.438a19.792 19.792 0 0 1-.875-.937c-.271-.333-.5-.646-.687-.938Zm2.281 20.53.594-.437c.187-.125.437-.375.75-.75.333-.375.604-.718.812-1.031a4.69 4.69 0 0 0 .657-1.156c.187-.459.343-.927.468-1.407.125-.5.209-.937.25-1.312.042-.354.063-.698.063-1.031-.021-.5-.084-.865-.188-1.094a6.065 6.065 0 0 0-.312-.656l-.157-.407.313-.28c.146-.022.281-.022.406 0 .334.062.625.145.875.25.292.083.521.187.688.312l.344.5-.126.468c-.104.25-.166.553-.187.907-.042.375-.094.76-.156 1.156a8.615 8.615 0 0 1-.281 1.375 7.767 7.767 0 0 1-.594 1.5c-.25.48-.584.948-1 1.406-.417.5-.813.865-1.188 1.094-.416.23-.771.417-1.062.563l-1.188.28.219-.25Zm8.844-19.624 2.75-.438c.875-.125 1.573-.24 2.093-.343.376-.105.73-.136 1.063-.094l.875.281c.521.208.854.385 1 .531l.156.313c-.041.166-.146.25-.312.25l-.625.031-1.844.094c-1.687.083-2.937.187-3.75.312l-2.156.313-1.938 3.375c-.375.625-.604 1.052-.687 1.281l.094.531c.27.021.552.01.843-.031l1.094-.156 5.531-.938-1.094-1.375c-.25-.291-.458-.541-.624-.75l.031-.406.781.188c.521.187 1.135.479 1.844.874.687.396 1.166.74 1.437 1.032.292.312.49.594.594.844.104.27.167.552.187.843 0 .313-.072.604-.218.875l-.188.281-.344.157a.897.897 0 0 1-.406-.094 1.75 1.75 0 0 1-.437-.375l-1.157-1.313-5.343 1.157-1.188.312-1.125.25c-.229.084-.489.188-.781.313l-.469.25-.406.125c-.188-.042-.365-.167-.531-.375a2.879 2.879 0 0 1-.594-1.531v-.282c.021-.125.198-.291.531-.5a3.47 3.47 0 0 0 .813-.75c.25-.333.489-.687.719-1.062.229-.396.51-.917.843-1.563l.531-1c-.52.125-.937.209-1.25.25a7.494 7.494 0 0 0-.937.188l-.5.094c-.146 0-.448-.063-.906-.188-.459-.125-.74-.26-.844-.406l-.125-.344.438-.156 1.531-.188.937-.125 1.032-.125 1.187-.187c.229-.48.396-.854.5-1.125.104-.271.24-.646.406-1.125.167-.48.281-.854.344-1.125.063-.292.104-.563.125-.813l.031-.906c.042-.27.157-.469.344-.594.187-.02.365.01.531.094.167.083.375.26.625.531.271.271.479.51.625.719.125.208.229.427.313.656l.062.406a1.03 1.03 0 0 1-.281.438 11.39 11.39 0 0 0-.656.75l-.438.594-.687 1.25Zm.937 12.187-.125 4.063c0 .25.011.552.031.906.021.25.032.48.032.688a2.23 2.23 0 0 1-.25.937c-.125.292-.25.49-.375.594-.104.125-.261.198-.469.218l-.375-.593a1.99 1.99 0 0 1-.281-.625 1.49 1.49 0 0 1-.094-.532c0-.166.021-.354.062-.562l.126-.875c.104-.73.156-1.208.156-1.438l.094-2.53c0-.25-.011-.46-.032-.626a11.208 11.208 0 0 1-.156-.843c-.083-.396-.167-.678-.25-.844l-.125-.313.281-.281c.334 0 .615.042.844.125.229.063.469.156.719.281l.375.188.062.531a3.335 3.335 0 0 0-.218.938c-.021.27-.032.468-.032.593Zm3.469-.312c-.042-.584-.073-1-.094-1.25 0-.25-.021-.459-.062-.625a1.882 1.882 0 0 0-.157-.532l-.124-.343.093-.25.25-.125c.146 0 .281.02.407.062l.906.25c.291.125.541.25.75.375.208.125.312.292.312.5.021.167-.021.375-.125.625s-.177.5-.219.75c-.041.25-.093.584-.156 1l-.125 1.282a48.406 48.406 0 0 0-.125 2.28v.75c0 .647.042 1.042.125 1.188.084.146.229.292.438.438.208.125.469.208.781.25.229.041.5.062.812.062.23 0 .49-.02.782-.062.291-.021.594-.084.906-.188l.562-.125a.87.87 0 0 1 .563.125l.563.375c.187.167.302.354.343.563a.469.469 0 0 1-.093.375c-.146.229-.49.396-1.032.5-.541.125-1.166.187-1.875.187-.604 0-1.229-.041-1.875-.125-.625-.083-1.156-.27-1.594-.562-.437-.25-.729-.521-.874-.813a2.574 2.574 0 0 1-.25-1.031c0-.48.02-1.198.062-2.156l.125-3.75Z"/></svg>