<svg xmlns="http://www.w3.org/2000/svg" width="190" height="29" fill="none"><path fill="#333" d="M38.219 10.344c-.146 0-.302-.094-.469-.281a1.913 1.913 0 0 1-.25-.344c-.042-.104-.042-.24 0-.406l.031-.75c.021-.146.032-.5.032-1.063V6.469l-.938.437-1.094.469c-.27.104-.552.23-.843.375-.25.125-.47.188-.657.188a1.934 1.934 0 0 1-.5-.157 4.212 4.212 0 0 1-.437-.218c-.23-.146-.334-.303-.313-.47l.094-.312c0-.166.01-.312.031-.437l.032-1.813V2.844c0-.334-.021-.615-.063-.844-.042-.25-.073-.427-.094-.531 0-.104.032-.177.094-.219.02-.02.073-.031.156-.031.146 0 .427.093.844.281.354.167.5.375.438.625a5.316 5.316 0 0 0-.126.656l-.093 3.594c0 .104.01.188.031.25.042.042.083.063.125.063.25 0 .552-.073.906-.22.667-.208 1.24-.416 1.719-.624l.688-.282V3.5c0-.833-.053-1.635-.157-2.406a.694.694 0 0 1-.031-.219c0-.208.083-.313.25-.313.02 0 .135.042.344.125.312.167.541.313.687.438.146.125.23.198.25.219.084.062.125.125.125.187 0 .042-.02.094-.062.157-.021.062-.042.114-.063.156l-.093.937-.032 2.875.032 2.782c0 .479-.032.895-.094 1.25-.104.437-.271.656-.5.656Zm-5.75 5.125c-.23 0-.51-.177-.844-.531-.25-.25-.375-.438-.375-.563 0-.063.042-.094.125-.094.083-.02.188-.031.313-.031l.687-.031c.396 0 .656-.01.781-.031.396 0 .73-.01 1-.032 1.792-.166 3-.302 3.625-.406.313-.042.594-.083.844-.125.25-.063.448-.094.594-.094.291 0 .583.146.875.438.229.229.343.416.343.562 0 .125-.072.209-.218.25-.104.021-.719.063-1.844.125-.625.021-1.396.073-2.313.156-.916.084-1.718.167-2.406.25-.125.021-.302.053-.531.094-.23.042-.448.063-.656.063Zm6.718 10.781c.042.083.115.208.22.375.103.167.156.365.156.594a.594.594 0 0 1-.25.5.832.832 0 0 1-.563.218c-.188 0-.344-.187-.469-.562-.062-.146-.114-.27-.156-.375a3.024 3.024 0 0 0-.063-.219c-.27.084-.624.157-1.062.219-.438.063-.75.115-.938.156-1 .188-1.687.323-2.062.407a14.56 14.56 0 0 1-.469.125c-.166.062-.26.104-.281.125a.991.991 0 0 1-.281.062c-.167 0-.323-.073-.469-.219a1.705 1.705 0 0 1-.563-.75c-.02-.02-.03-.052-.03-.093 0-.042.051-.094.155-.157a2.43 2.43 0 0 1 .282-.125c.27-.146.75-.583 1.437-1.312l.844-.813-1.844-1c-.208-.062-.343-.135-.406-.218-.063-.084-.094-.209-.094-.375 0-.125.021-.209.063-.25.062-.063.187-.157.375-.282.187-.125.375-.291.562-.5.104-.125.24-.26.407-.406.166-.146.322-.302.468-.469.625-.729 1.021-1.302 1.188-1.718.104-.209.187-.313.25-.313.041 0 .125.042.25.125.396.292.635.563.718.813v.093c0 .104-.052.188-.156.25a1.215 1.215 0 0 0-.218.157c-.063.041-.376.343-.938.906l-.563.562-.53.532c-.25.229-.376.364-.376.406 0 .062.032.114.094.156a.728.728 0 0 1 .188.125l1.312.625c.813-.813 1.281-1.292 1.406-1.438.542-.625.844-1.02.907-1.187a.722.722 0 0 0 .093-.156c.042-.084.084-.125.125-.125.063 0 .125.031.188.093.333.313.573.605.718.875a.546.546 0 0 1 .063.157c0 .041-.052.104-.156.187l-.25.188c-.73.604-1.584 1.396-2.563 2.375L34 26.375c-.042.042-.063.083-.063.125 0 .042.021.073.063.094.042.02.104.02.188 0l3.656-.625c-.104-.417-.23-.834-.375-1.25v-.063c0-.062.031-.093.093-.093.084 0 .209.062.376.187.333.292.75.792 1.25 1.5Zm2.376-9.594c.104 0 .26.073.468.219-.02.042.021.125.125.25l.219.219c.104.104.208.229.313.375.124.146.26.302.406.468.375.396 1.24 1.428 2.593 3.094.23.334.344.532.344.594 0 .208-.125.313-.375.313-.146 0-.302-.105-.468-.313-.396-.417-1.105-1.073-2.126-1.969-.791-.729-1.51-1.291-2.156-1.687-.312-.146-.468-.313-.468-.5 0-.146.156-.354.468-.625.292-.292.51-.438.657-.438ZM11.186 11.75c-.812.77-1.791 1.563-2.937 2.375l4.344-.313.312-.03c.313 0 .646.145 1 .437.354.27.531.531.531.781 0 .188-.093.354-.28.5a3.611 3.611 0 0 0-.345.281 21.222 21.222 0 0 1-3.343 3.031c.125.25.27.605.437 1.063 1.771-.375 3.51-.813 5.219-1.313l.406-.062c.334 0 .5.104.5.313 0 .145-.146.302-.437.468-.271.167-.875.417-1.813.75-.916.334-2.083.73-3.5 1.188.125.812.198 1.541.219 2.187l.031 1c0 2.896-.594 4.344-1.781 4.344-.48 0-1.104-.25-1.875-.75-.77-.48-1.469-1.02-2.094-1.625-.625-.604-.937-1.01-.937-1.219 0-.125.083-.187.25-.187.187 0 .479.104.875.312.687.354 1.354.636 2 .844.666.208 1.073.313 1.218.313.209 0 .344-.323.407-.97.083-.645.125-1.301.125-1.968 0-.458-.042-1.042-.125-1.75-3.375 1.042-5.406 1.563-6.094 1.563-.333 0-.646-.157-.938-.47-.27-.333-.5-.728-.687-1.187a.347.347 0 0 1-.031-.156c0-.125.083-.188.25-.188h.094c.104.021.28.032.53.032.98 0 3.157-.365 6.532-1.094a9.677 9.677 0 0 0-.969-2.031c-.125-.188-.187-.354-.187-.5 0-.167.094-.323.281-.469.208-.167.417-.25.625-.25.27 0 .51.156.719.469.75-.604 1.49-1.302 2.219-2.094l-3.782.313c-.166.02-.364.03-.594.03-.229 0-.406-.02-.53-.062a1.624 1.624 0 0 1-.438-.25l-.094-.062c-1 .646-2.208 1.354-3.625 2.125-1.417.77-2.27 1.156-2.563 1.156-.208 0-.312-.073-.312-.219 0-.27.23-.531.688-.781a62.27 62.27 0 0 0 5.187-3.438c0-.041.052-.083.156-.124a35.106 35.106 0 0 0 2.688-2.188l-5.563.344c-.208.02-.479.031-.812.031-.354 0-.677-.083-.969-.25-.292-.188-.52-.583-.688-1.188a.348.348 0 0 1-.03-.156c0-.083.062-.125.187-.125l.187.031c.417.084.865.126 1.344.126h.344l5.25-.313L8 7.187l-2.219.157c-.187.02-.427.031-.718.031-.792 0-1.334-.438-1.625-1.313a.435.435 0 0 1-.032-.187c0-.125.073-.188.219-.188l.125.032c.48.104.896.156 1.25.156l.563-.031L8 5.687l.031-2.406c0-.604-.114-1.125-.344-1.562a.48.48 0 0 1-.062-.188c0-.104.115-.156.344-.156.333 0 .729.073 1.187.219.48.125.719.375.719.75l-.031 3.219a6.18 6.18 0 0 0 1.594-.313c.166-.042.28-.063.343-.063.271 0 .584.146.938.438.375.292.562.573.562.844 0 .229-.198.364-.594.406l-2.843.188-.031 3.187.656-.031a30.111 30.111 0 0 0 3.562-4.281c.313-.48.49-.99.531-1.532.042-.25.146-.375.313-.375.125 0 .323.094.594.282.27.166.51.375.719.625.208.229.312.437.312.625 0 .145-.375.697-1.125 1.656a43.265 43.265 0 0 1-2.469 2.875l.844-.063c.48-.041 1.052-.125 1.719-.25a.536.536 0 0 1 .219-.031c.229 0 .52.167.874.5.375.333.563.615.563.844 0 .166-.115.27-.344.312l-5.593.344Zm2.75 16.781c0-.146.188-.396.563-.75 2.854-2.396 5.01-5.031 6.469-7.906-1.104-1.958-2.042-4.146-2.813-6.563A22.739 22.739 0 0 1 16 16.782c-.396.478-.708.718-.938.718-.145 0-.218-.094-.218-.281 0-.23.104-.521.312-.875 1-1.813 1.834-3.667 2.5-5.563.667-1.916 1.157-3.604 1.469-5.062.313-1.459.469-2.469.469-3.032 0-.083-.021-.291-.063-.624V2c0-.188.104-.281.313-.281.187 0 .437.083.75.25.333.166.625.375.875.625s.375.479.375.687c0 .23-.188.938-.563 2.125A52.362 52.362 0 0 1 19.97 9.22l4.968-.313a6.554 6.554 0 0 0 1.47-.281c.166-.042.28-.063.343-.063.23 0 .563.167 1 .5.438.313.656.615.656.907 0 .125-.052.229-.156.312-.104.063-.24.104-.406.125l-2.063.125a40.005 40.005 0 0 1-1.093 4.906c-.438 1.48-1 2.938-1.688 4.376a27.504 27.504 0 0 0 2.75 3.656 46.277 46.277 0 0 0 3.656 3.562c.23.23.344.396.344.5 0 .104-.208.292-.625.563-.417.27-.75.406-1 .406-.146 0-.313-.073-.5-.219-2.313-2.229-4.188-4.458-5.625-6.687a19.18 19.18 0 0 1-2.906 3.656c-1.084 1.063-2.094 1.896-3.032 2.5-.937.625-1.562.938-1.875.938-.166 0-.25-.053-.25-.157Zm5.313-17.5c.688 2.563 1.563 4.854 2.625 6.875.813-1.937 1.448-4.354 1.906-7.25l-4.468.25-.063.125ZM88.031 6.844c.271.229.406.396.406.5 0 .187-.26.27-.78.25H87c-.583 0-1.823.073-3.719.218-.041.271-.094.553-.156.844-.063.271-.104.48-.125.625v.375c.104 0 .177-.01.219-.031.104-.02.344-.052.719-.094l1.187-.187c.125-.021.25-.052.375-.094a.737.737 0 0 1 .313-.094c.229 0 .51.146.843.438.23.187.344.333.344.437 0 .23-.135.573-.406 1.031-.438.771-.906 1.407-1.406 1.907-.605.604-1.23 1-1.876 1.187-.083.021-.177.031-.28.031-.084 0-.126-.02-.126-.062 0-.063.146-.23.438-.5a9.163 9.163 0 0 0 1.937-2.344c.292-.52.438-.833.438-.937 0-.084-.052-.125-.156-.125h-.157l-.812.094c-.813.124-1.323.218-1.531.28-.25.126-.448.188-.594.188-.146 0-.334-.114-.563-.344a1.894 1.894 0 0 0-.156-.124c-.063-.063-.094-.157-.094-.282 0-.062.042-.156.125-.281a2.22 2.22 0 0 0 .188-.625c.041-.25.062-.406.062-.469l.125-.719c-.354.042-.916.136-1.687.282a2.634 2.634 0 0 1-.438.062c-.146 0-.312-.062-.5-.187-.396-.271-.594-.448-.594-.531 0-.146.188-.23.563-.25l1.094-.094 1.75-.188c.104-.833.156-1.343.156-1.531l.031-.656c.042-.354.125-.532.25-.532a.79.79 0 0 1 .375.125c.271.146.469.303.594.47.146.145.198.27.156.374l-.219.657c-.062.125-.145.447-.25.968l2.72-.25c.228-.02.5-.083.812-.187l.25-.032c.208 0 .385.063.531.188.146.104.24.177.281.219ZM84.47 24.53c0-.02.052-.093.156-.218.125-.146.26-.323.406-.532.25-.354.5-.875.75-1.562.25-.688.386-1.323.406-1.907 0-.041-.02-.083-.062-.125-.02-.062-.073-.093-.156-.093l-.719.062-1.063.094c-.229.75-.624 1.563-1.187 2.438-.25.395-.594.75-1.031 1.062a4.52 4.52 0 0 1-1.219.625 1.5 1.5 0 0 1-.469.063c-.146-.021-.219-.063-.219-.125 0-.084.073-.157.22-.22.25-.166.53-.426.843-.78.333-.355.625-.72.875-1.094.146-.209.302-.48.469-.813.166-.354.302-.677.406-.968-.667.083-1.354.24-2.063.468-.041.042-.114.063-.218.063-.063 0-.156-.042-.281-.125a4.045 4.045 0 0 1-.344-.375c-.042-.104-.021-.198.062-.282l.125-.25c.084-.125.167-.375.25-.75a4.39 4.39 0 0 0 .125-.906.92.92 0 0 0-.031-.218c0-.105.01-.157.031-.157.042-.02.094-.02.156 0 .23.042.438.115.626.219a.9.9 0 0 1 .343.344c.084.104.084.198 0 .281a.936.936 0 0 0-.094.125.396.396 0 0 0-.093.188c-.021.02-.063.25-.125.687 0 .02.01.042.031.063.042.02.083.02.125 0 .063 0 .156-.01.281-.032.125-.02.219-.041.281-.062.146-.021.313-.052.5-.094.209-.042.396-.073.563-.094.063-.229.104-.479.125-.75.042-.291.073-.49.094-.593l.031-.657v-.218c-.667.02-1.365.083-2.094.187l-.562.094h-.125a.603.603 0 0 1-.313-.094 11.517 11.517 0 0 1-.281-.219c-.27-.25-.406-.437-.406-.562 0-.125.094-.167.281-.125.25.041.51.062.781.062l.906-.031 4.344-.313c.167-.02.323-.041.469-.062.146-.042.292-.073.438-.094h.093c.271 0 .459.052.563.157.125.083.198.135.219.156.333.27.5.479.5.625 0 .125-.178.177-.532.156l-.625-.063c-.541-.02-1.354 0-2.437.063l-.125 1.219c-.021.208-.042.375-.063.5-.02.125-.041.229-.062.312l-.031.094c.5-.042 1.083-.104 1.75-.188a.97.97 0 0 1 .218-.062c.104-.042.209-.073.313-.094h.062c.125 0 .25.052.375.157.125.104.198.166.219.187.167.146.281.27.344.375.083.083.094.156.031.219a1.657 1.657 0 0 1-.156.25.692.692 0 0 0-.094.218c-.104.875-.27 1.584-.5 2.125-.188.48-.396.844-.625 1.094-.208.23-.469.448-.781.657-.125.083-.323.156-.594.218-.27.042-.406.042-.406 0Zm9.094-13.812c.25 0 .374.114.374.344 0 .124-.114.302-.343.53-.625.772-1.865 2.24-3.719 4.407-.146.188-.281.281-.406.281-.104 0-.334-.156-.688-.468-.291-.25-.437-.459-.437-.626 0-.187.156-.364.469-.53.479-.272 1.197-.813 2.156-1.626.958-.854 1.666-1.531 2.125-2.031.187-.188.344-.281.469-.281ZM71.686 26.125c0 .188.01.365.032.531.02.188.031.354.031.5 0 .459-.167.854-.5 1.188-.333.333-.667.5-1 .5-.333 0-.969-.302-1.906-.907A21.53 21.53 0 0 1 65.75 26c-.813-.688-1.219-1.135-1.219-1.344 0-.125.094-.187.281-.187.209 0 .51.093.907.281 1.396.688 2.74 1.219 4.031 1.594l-.063-10.719c0-.417.032-.98.094-1.688a9.246 9.246 0 0 1-.906 1.594c-1.48 2.042-2.917 3.709-4.313 5-1.395 1.292-2.583 2.23-3.562 2.813-.958.583-1.552.875-1.781.875-.146 0-.219-.063-.219-.188 0-.187.177-.448.531-.781a39.101 39.101 0 0 0 5.344-5.469 45.872 45.872 0 0 0 4.344-6.5l-4.688.281a5.86 5.86 0 0 1-.687.032c-.625 0-1.01-.084-1.157-.25a6.85 6.85 0 0 1-.562-.813c-.167-.333-.25-.594-.25-.781 0-.104.042-.156.125-.156.063 0 .115.01.156.031a4.32 4.32 0 0 0 1.375.219h.282l5.843-.375-.031-6c0-.604-.177-1.146-.531-1.625-.167-.23-.25-.407-.25-.532 0-.125.094-.187.281-.187.27 0 .75.125 1.438.375.416.146.687.292.812.438.125.145.188.375.188.687l.03 6.719 2.5-.156c.563-.042 1.022-.126 1.376-.25a.778.778 0 0 1 .344-.094c.208 0 .437.104.687.312.27.209.5.438.688.688.208.25.312.437.312.562 0 .125-.063.219-.188.281a2.468 2.468 0 0 1-.53.094l-5.188.344.094 15ZM48.25 22.812c0-.208.146-.49.438-.843 2.354-2.917 4.427-6.646 6.218-11.188L52 10.97c-.417.041-.688.062-.813.062a1.45 1.45 0 0 1-.968-.344c-.25-.229-.448-.479-.594-.75-.125-.291-.188-.5-.188-.624 0-.105.053-.157.157-.157l.156.031c.48.105.927.157 1.344.157h.281l3.969-.281.062-5.782c0-.562-.125-1.01-.375-1.344-.125-.187-.187-.333-.187-.437 0-.167.125-.25.375-.25.229 0 .562.083 1 .25.437.167.718.313.843.438.126.125.188.312.188.562l-.094 6.438 1.469-.094c.354-.021.73-.104 1.125-.25a.813.813 0 0 1 .25-.031c.25 0 .573.187.969.562.416.375.625.656.625.844 0 .208-.24.333-.719.375l-3.719.25-.031 2.5c.208-.209.406-.313.594-.313.229 0 .666.292 1.312.875a19.843 19.843 0 0 1 1.907 1.844c.604.667.906 1.073.906 1.219 0 .229-.146.479-.438.75-.27.25-.51.375-.718.375-.209 0-.428-.157-.657-.469-.729-.98-1.708-2.042-2.937-3.188l-.157 13.97c0 .5-.197.75-.593.75-.417-.042-.771-.167-1.063-.376-.291-.187-.437-.468-.437-.843 0-.167.01-.292.031-.375.188-.855.281-1.615.281-2.282.063-4.229.094-7.385.094-9.468 0-.396.042-.99.125-1.782-.292.98-.927 2.198-1.906 3.656-.959 1.459-1.959 2.75-3 3.875C49.448 22.438 48.76 23 48.406 23c-.104 0-.156-.063-.156-.188ZM130.781 20.031c-.166 0-.302-.135-.406-.406-.167-.333-.25-.604-.25-.813l.031-.843c.021-.417.032-1.25.032-2.5v-1.563l-.032-1.094c-.229 0-.468.032-.718.094l-.719.188c-.104.041-.271-.021-.5-.188a1.916 1.916 0 0 1-.531-.562.713.713 0 0 1-.094-.281c0-.063.031-.105.094-.126a.688.688 0 0 1 .218-.03c.979 0 1.886-.053 2.719-.157l.937-.063 1.376-.093c.333-.042.562-.073.687-.094.167-.02.354-.042.563-.063.229-.041.374-.052.437-.03a2 2 0 0 0 .313.187c.145.062.302.166.468.312.104.104.188.209.25.313a.386.386 0 0 1 .125.281c0 .083-.052.208-.156.375-.104.167-.208.427-.313.781-.083.354-.145.604-.187.75-.313 1.042-.698 1.802-1.156 2.281a1.666 1.666 0 0 1-1.125.438c-.188 0-.344-.135-.469-.406-.187-.417-.396-.709-.625-.875l.031-.156c.563.187.948.28 1.157.28.166 0 .281-.03.343-.093a.766.766 0 0 0 .219-.281c.104-.271.188-.51.25-.719.083-.208.156-.396.219-.563.041-.187.093-.437.156-.75a5.46 5.46 0 0 0 .156-.75c0-.187-.052-.28-.156-.28h-.687c-.313 0-.667.01-1.063.03-.396.021-.719.053-.969.094l-.062 2.844.031 1.625v.656a1.27 1.27 0 0 1 0 .407v.593c.021.25.021.427 0 .532l-.219.5c-.146.145-.271.218-.375.218Zm-25.687 3.844v.094c0 .187-.052.333-.156.437-.084.104-.209.157-.376.157-.25 0-.572-.094-.968-.282-.375-.187-.563-.479-.563-.875l.031-.218c.063-.417.094-.803.094-1.157l-.031-.593-.375-7.125c-.021-.605-.115-1.073-.281-1.407-.104-.25-.157-.416-.157-.5 0-.166.115-.25.344-.25.334 0 1 .177 2 .531l12.875-.656h.344c.333 0 .646.104.937.313.292.208.438.427.438.656a.772.772 0 0 1-.094.344 5.684 5.684 0 0 0-.094.25l-.593 7.594c.521.52.781.895.781 1.125 0 .145-.073.24-.219.28-.125.042-.333.074-.625.095l-13.344.53.032.657ZM97.688 8.281c0-.125.052-.187.156-.187l.125.031c.312.083.677.125 1.094.125h.406l4.812-.344h.469a2.32 2.32 0 0 0 .656-.156 1.03 1.03 0 0 1 .25-.063c.209 0 .427.094.656.282.23.166.417.364.563.593.146.209.219.355.219.438 0 .188-.219.302-.656.344l-6.344.656c-.188.02-.438.031-.75.031-.396 0-.656-.052-.781-.156-.584-.583-.876-1.115-.876-1.594Zm1.062-4.937c0-.125.052-.188.156-.188l.125.031a4.27 4.27 0 0 0 1.094.126h.406l3.563-.157c.333-.02.708-.114 1.125-.281a1.02 1.02 0 0 1 .25-.063c.208 0 .416.105.625.313.229.208.416.438.562.688.167.25.25.416.25.5 0 .187-.218.302-.656.343l-5.094.313a7.1 7.1 0 0 1-.75.031c-.396 0-.656-.052-.781-.156A9.327 9.327 0 0 1 99 4.156c-.167-.229-.25-.5-.25-.812Zm.156 25.343c0-.208.209-.385.625-.53 3.021-1.126 5.292-2.272 6.813-3.438.375-.292.625-.646.75-1.063.062-.166.156-.25.281-.25.25 0 .573.271.969.813.416.541.625.968.625 1.281 0 .208-.115.365-.344.469-2.979 1.5-5.969 2.479-8.969 2.937-.083.021-.177.032-.281.032-.313 0-.469-.084-.469-.25Zm5.813-12.937 12.219-.594.093-1.625-12.375.594.063 1.625Zm.156 2.938 11.875-.563.094-1.625-12.063.594.094 1.593Zm.125 3.03 11.562-.468.094-1.688-11.718.5.062 1.657Zm.438-9.593c0-.083.052-.167.156-.25a1.1 1.1 0 0 1 .437-.25 17.753 17.753 0 0 0 4.188-2.063c1.354-.895 2.312-2.114 2.875-3.656a1.56 1.56 0 0 0 .094-.468c0-.105-.021-.26-.063-.47l-.031-.155c0-.167.104-.25.312-.25.292 0 .677.114 1.156.343.48.23.719.48.719.75 0 .125-.031.25-.093.375l-.344.782a19.41 19.41 0 0 0 4.094 2.5c1.437.624 3.104 1.145 5 1.562.229.063.385.115.468.156.104.042.156.115.156.219 0 .167-.177.438-.531.813-.333.374-.614.562-.843.562a.534.534 0 0 1-.219-.031c-3.417-.98-6.386-2.48-8.907-4.5a8.431 8.431 0 0 1-2.812 2.531c-1.146.625-2.229 1.073-3.25 1.344-1 .27-1.688.406-2.062.406a.876.876 0 0 1-.376-.063c-.083-.062-.124-.124-.124-.187Zm1.812-4.5c0-.167.146-.427.438-.781.833-1 1.562-2.084 2.187-3.25.646-1.188 1.01-2.23 1.094-3.125.041-.25.156-.375.343-.375.23 0 .48.104.75.312.292.188.532.406.719.656.209.25.313.428.313.532 0 .062-.104.26-.313.593a3.85 3.85 0 0 1-.625.844l8.063-.625c.187-.02.406-.031.656-.031.313 0 .615.115.906.344.292.229.438.479.438.75a.76.76 0 0 1-.219.562 8.125 8.125 0 0 0-.25.219 22.91 22.91 0 0 1-2.25 2.25c-.75.646-1.292.969-1.625.969-.125 0-.187-.063-.187-.188 0-.166.135-.427.406-.781a13.844 13.844 0 0 0 1.625-2.531l-8.531.562c-.75.959-1.5 1.74-2.25 2.344-.75.583-1.261.875-1.532.875-.104 0-.156-.042-.156-.125Zm5.656 17.031c0-.166.073-.406.219-.718.146-.334.344-.5.594-.5.312 0 1.219.322 2.719.968a34.742 34.742 0 0 1 4.406 2.188c.25.146.427.27.531.375a.635.635 0 0 1 .187.468c0 .209-.083.5-.25.875-.166.375-.385.563-.656.563-.166 0-.385-.083-.656-.25a50.61 50.61 0 0 0-3.156-1.813 41.908 41.908 0 0 0-3.25-1.468c-.459-.188-.688-.417-.688-.688ZM177.156 12.281c-.687-.25-1.01-.52-.968-.812.124-.875.187-1.875.187-3a13.451 13.451 0 0 0-.094-1.781c-.021-.209-.021-.323 0-.344a.426.426 0 0 1 .313-.125c.187 0 .416.083.687.25.292.166.438.333.438.5 0 .104-.011.208-.031.312a1.152 1.152 0 0 0-.032.282l-.187 3.093c0 .167.062.271.187.313h.156c.167 0 .282-.01.344-.031l4.032-.563v-.813c0-1.02-.021-1.812-.063-2.374-.021-.48-.073-.865-.156-1.157-.063-.333.021-.5.25-.5.166 0 .385.063.656.188.333.166.531.312.594.437.062.104.083.271.062.5-.041.375-.062.938-.062 1.688l.031 2.375c0 .5-.094.896-.281 1.187-.104.125-.209.188-.313.188-.104 0-.25-.094-.437-.281a1.845 1.845 0 0 1-.157-.188.41.41 0 0 0-.187-.156.814.814 0 0 0-.25-.031c-.479.041-1.635.197-3.469.468-.312.042-.562.125-.75.25-.208.104-.344.156-.406.156l-.094-.03ZM181.125 19c-.208.27-.427.406-.656.406-.063 0-.094-.052-.094-.156 0-.146.042-.313.125-.5l.625-1.25c.021-.083.052-.167.094-.25.041-.083.073-.156.093-.219V17c0-.042-.031-.083-.093-.125a.264.264 0 0 0-.219-.031c-.333.02-.833.073-1.5.156-.646.083-1.125.167-1.438.25l-.468.156a1.223 1.223 0 0 1-.406.094c-.376 0-.688-.115-.938-.344a1.931 1.931 0 0 1-.469-.437l-.062-.157c0-.104.177-.135.531-.093.479.041 1.469-.021 2.969-.188l.625-.093c.166-.021.427-.053.781-.094.375-.063.667-.125.875-.188l.188-.062a.501.501 0 0 1 .218-.063c.104 0 .229.052.375.156.167.105.302.198.407.282.145.104.239.198.281.281.062.063.083.146.062.25 0 .104-.052.198-.156.281a3.081 3.081 0 0 0-.219.188c-.041.062-.187.218-.437.468-.104.167-.292.396-.563.688-.25.292-.427.5-.531.625Zm-1.563 6.156c0-.062.105-.218.313-.468.229-.271.406-.48.531-.625.313-.417.688-1.021 1.125-1.813.459-.792.719-1.313.781-1.563.042-.125-.02-.187-.187-.187-.333 0-1.25.094-2.75.281-.979.125-1.708.25-2.187.375a.606.606 0 0 1-.313.094c-.167 0-.344-.115-.531-.344a.82.82 0 0 1-.125-.406c0-.083.052-.167.156-.25l.094-.125c.062-.125.135-.292.219-.5.083-.208.156-.406.218-.594.104-.333.177-.698.219-1.093.021-.23.146-.292.375-.188.292.146.51.292.656.438.167.125.219.218.156.28a3.15 3.15 0 0 0-.5.845 8.461 8.461 0 0 0-.187.656c0 .083.052.125.156.125.313 0 .781-.052 1.407-.157.354-.041.791-.093 1.312-.156.521-.062.938-.125 1.25-.187l.781-.157a.817.817 0 0 1 .25-.03c.104 0 .209.04.313.124.104.063.218.146.344.25.208.188.343.344.406.469a.72.72 0 0 1 .094.375c0 .083-.063.188-.188.313a3.795 3.795 0 0 0-.375.593c-.604 1.23-1.385 2.26-2.344 3.094a4.327 4.327 0 0 1-.906.531 3.697 3.697 0 0 1-.406.094c-.104 0-.157-.031-.157-.094Zm10-14.437c.25 0 .376.114.376.344 0 .124-.115.302-.344.53-.625.772-1.865 2.24-3.719 4.407-.146.188-.281.281-.406.281-.104 0-.334-.156-.688-.468-.291-.25-.437-.459-.437-.626 0-.187.156-.364.468-.53.48-.272 1.198-.813 2.157-1.626.958-.854 1.666-1.531 2.125-2.031.187-.188.344-.281.468-.281Zm-28.656 7.687.032.313v.156c0 .396-.146.594-.438.594-.292 0-.615-.104-.969-.313-.333-.229-.5-.51-.5-.843l.031-.282a6.66 6.66 0 0 0 .063-.781c0-.208-.01-.375-.031-.5l-.469-5.5c-.063-.77-.177-1.313-.344-1.625-.187-.333-.281-.552-.281-.656 0-.125.094-.188.281-.188.292 0 .969.177 2.031.531l1.344-.093c.479-.792.834-1.542 1.063-2.25.229-.709.343-1.177.343-1.407v-.187c0-.25.084-.375.25-.375.292 0 .678.156 1.157.469.479.291.719.541.719.75 0 .083-.011.135-.032.156a23.633 23.633 0 0 1-1.531 2.719l4.719-.313.344-.031c.229 0 .489.115.781.344.312.229.469.469.469.719 0 .083-.042.197-.126.343-.062.146-.093.25-.093.313l-.75 5.937c.521.604.781 1.01.781 1.219 0 .125-.073.208-.219.25-.146.042-.385.073-.719.094l-3.718.187.094 8.157c0 .208.01.406.031.593.021.209.031.386.031.532 0 .437-.146.77-.438 1-.291.229-.593.343-.906.343-.312 0-.875-.26-1.687-.781a14.98 14.98 0 0 1-2.344-1.938c-.313-.312-.469-.562-.469-.75 0-.104.073-.156.219-.156.187 0 .469.094.844.282 1 .52 1.948.885 2.843 1.093l-.062-8.25-2.344.125Zm-16.468 7.125c0-.083.104-.198.312-.343.521-.355.896-.698 1.125-1.032 1.333-1.916 2.896-4.531 4.687-7.843.313-.584.594-.875.844-.875.167 0 .25.135.25.406 0 .208-.062.49-.187.844-.75 2.25-2.042 5.208-3.875 8.875-.167.354-.334.614-.5.78a.682.682 0 0 1-.532.25h-.156c-.271-.062-.666-.197-1.187-.405-.521-.209-.781-.428-.781-.657Zm.687-15.125c0-.208.104-.437.313-.687.208-.271.437-.406.687-.406.167 0 .385.083.656.25 1.667 1.104 2.792 1.895 3.375 2.374.584.48.875.844.875 1.094 0 .23-.114.51-.343.844-.209.333-.428.5-.657.5-.187 0-.427-.135-.719-.406-1.25-1.188-2.458-2.177-3.624-2.969a1.077 1.077 0 0 0-.25-.156 2.893 2.893 0 0 1-.25-.219.383.383 0 0 1-.063-.219Zm2.063-6.906c0-.188.104-.396.312-.625.229-.25.458-.375.688-.375.229 0 .729.313 1.5.938.77.604 1.489 1.25 2.156 1.937.687.688 1.031 1.135 1.031 1.344 0 .187-.135.458-.406.812-.271.354-.5.532-.688.532-.208 0-.437-.157-.687-.47a51.583 51.583 0 0 0-1.844-1.968c-.5-.52-1.042-1.02-1.625-1.5a2.251 2.251 0 0 1-.313-.313.5.5 0 0 1-.124-.312Zm2.843 24.25c0-.208.125-.52.375-.938a26.862 26.862 0 0 0 3.5-9.375c.604-3.375.906-6.822.906-10.343V5.812a15.96 15.96 0 0 0-.093-1.312 4.413 4.413 0 0 0-.25-1c-.084-.25-.125-.406-.125-.469 0-.146.083-.219.25-.219.291 0 1.01.25 2.156.75l11.469-.78c.416-.022.802-.084 1.156-.188.208-.042.344-.063.406-.063.229 0 .469.094.719.281.271.167.5.365.688.594.187.23.281.396.281.5 0 .271-.302.427-.907.469l-13.812.875c0 3.917-.177 7.083-.531 9.5-.334 2.333-.896 4.51-1.688 6.531-.791 2.021-1.604 3.636-2.437 4.844-.834 1.23-1.459 1.844-1.875 1.844-.125 0-.188-.073-.188-.219Zm5.344-.969c0-.229.146-.531.437-.906 1.459-2.042 2.428-3.719 2.907-5.031.041-.209.062-.407.062-.594v-.438c0-.208.084-.312.25-.312.125 0 .354.083.688.25.333.167.625.365.875.594.271.229.406.437.406.625a.511.511 0 0 1-.062.218c-1.626 2.5-3.105 4.26-4.438 5.282a2.391 2.391 0 0 1-.438.312c-.208.125-.374.188-.5.188-.124 0-.187-.063-.187-.188ZM160.5 12.97l7.062-.406.219-2.126-7.437.47.156 2.062Zm.281 3.875 6.407-.375.25-2.407-6.813.376.156 2.406Zm6.281 3.312c0-.208.126-.416.376-.625.27-.208.5-.312.687-.312.208 0 .677.427 1.406 1.281.75.833 1.469 1.73 2.157 2.688.687.937 1.031 1.49 1.031 1.656 0 .208-.084.406-.25.593a2.402 2.402 0 0 1-.563.47c-.208.103-.344.155-.406.155-.167 0-.385-.197-.656-.593a35.75 35.75 0 0 0-3.438-4.688c-.229-.27-.344-.479-.344-.625Z"/></svg>