<svg width="350" height="88" viewBox="0 0 350 88" fill="none" xmlns="http://www.w3.org/2000/svg">
<path d="M158.934 8.19922C158.77 8.19922 158.852 8.05859 159.18 7.77734C159.508 7.49609 159.906 7.15625 160.375 6.75781C160.844 6.33594 161.371 5.78516 161.957 5.10547C162.332 4.66016 162.613 4.19141 162.801 3.69922C162.918 3.41797 163.047 3.27734 163.188 3.27734C163.305 3.27734 163.48 3.37109 163.715 3.55859C164.184 3.93359 164.418 4.25 164.418 4.50781C164.418 4.67188 164.324 4.78906 164.137 4.85938C164.043 4.88281 163.902 4.98828 163.715 5.17578C163.527 5.33984 163.387 5.46875 163.293 5.5625C162.285 6.54688 161.348 7.26172 160.48 7.70703C159.777 8.03516 159.309 8.19922 159.074 8.19922H158.934ZM162.625 14.7383C162.555 14.7383 162.438 14.6445 162.273 14.457C162.133 14.2461 162.027 14.0469 161.957 13.8594C161.934 13.7188 161.934 13.543 161.957 13.332C162.004 13.0977 162.027 12.9219 162.027 12.8047C162.074 12.3359 162.098 11.9609 162.098 11.6797C162.121 11.4219 162.121 11.1406 162.098 10.8359C162.098 10.5312 162.098 10.332 162.098 10.2383L162.062 9.71094C161.5 10.1094 161.066 10.3906 160.762 10.5547C160.082 10.9297 159.59 11.1641 159.285 11.2578C158.91 11.3984 158.57 11.4688 158.266 11.4688C158.102 11.4688 158.008 11.4453 157.984 11.3984C157.938 11.3047 158.406 10.9648 159.391 10.3789C160.328 9.79297 161.348 9.01953 162.449 8.05859C163.059 7.49609 163.527 6.95703 163.855 6.44141C163.902 6.37109 163.938 6.28906 163.961 6.19531C164.008 6.07812 164.055 6.00781 164.102 5.98438C164.172 5.96094 164.266 5.97266 164.383 6.01953C164.688 6.18359 164.945 6.41797 165.156 6.72266C165.25 6.83984 165.297 6.95703 165.297 7.07422C165.297 7.19141 165.238 7.30859 165.121 7.42578C165.004 7.51953 164.887 7.58984 164.77 7.63672C164.371 7.89453 164.008 8.17578 163.68 8.48047C163.352 8.78516 163.141 8.98438 163.047 9.07812C163.398 9.35938 163.574 9.55859 163.574 9.67578L163.469 10.4141C163.422 10.625 163.398 11.1523 163.398 11.9961C163.398 12.8164 163.422 13.3672 163.469 13.6484V13.7188C163.469 13.8359 163.434 13.9648 163.363 14.1055C163.316 14.2227 163.281 14.3047 163.258 14.3516C163.094 14.6094 162.883 14.7383 162.625 14.7383ZM166.211 23.668C165.859 23.668 165.52 23.4102 165.191 22.8945C164.77 22.2383 164.359 21.6992 163.961 21.2773L163.047 20.3281C162.555 20.8906 162.121 21.3359 161.746 21.6641C161.395 21.9922 160.949 22.3086 160.41 22.6133C159.402 23.1992 158.559 23.4922 157.879 23.4922C157.715 23.4922 157.633 23.4336 157.633 23.3164C157.633 23.2461 157.855 23.0938 158.301 22.8594C158.746 22.625 159.168 22.3438 159.566 22.0156C160.574 21.1719 161.406 20.3047 162.062 19.4141C161.922 19.2734 161.219 18.6641 159.953 17.5859C159.789 17.4688 159.543 17.2695 159.215 16.9883C159.145 16.9414 159.004 16.8359 158.793 16.6719C158.582 16.5078 158.477 16.3906 158.477 16.3203C158.477 16.2031 158.535 16.1445 158.652 16.1445C159.004 16.1445 159.566 16.3906 160.34 16.8828C161.113 17.3516 161.922 17.9141 162.766 18.5703C163.094 18.1719 163.352 17.7969 163.539 17.4453C163.727 17.0938 163.938 16.6602 164.172 16.1445C164.289 15.8867 164.359 15.6641 164.383 15.4766C164.406 15.2656 164.418 15.1367 164.418 15.0898C164.418 14.832 164.488 14.7031 164.629 14.7031C164.793 14.7031 165.016 14.832 165.297 15.0898C165.789 15.5586 166.035 15.875 166.035 16.0391C166.035 16.1328 165.977 16.2383 165.859 16.3555C165.578 16.6367 165.32 17.0117 165.086 17.4805C164.945 17.7617 164.688 18.1602 164.312 18.6758C164.195 18.8164 164.102 18.9453 164.031 19.0625C163.961 19.1797 163.891 19.2852 163.82 19.3789C164.359 19.7773 165.156 20.457 166.211 21.418C166.469 21.6523 166.633 21.875 166.703 22.0859C166.797 22.2734 166.844 22.5312 166.844 22.8594C166.844 23.0938 166.785 23.293 166.668 23.457C166.551 23.5977 166.398 23.668 166.211 23.668ZM166.844 28.3086C167.102 28.5898 167.23 28.8242 167.23 29.0117C167.23 29.1758 167.137 29.3281 166.949 29.4688C166.832 29.5625 166.539 30.0781 166.07 31.0156C165.555 31.8594 164.98 32.5859 164.348 33.1953C163.738 33.8281 163.129 34.2852 162.52 34.5664C162.379 34.6133 162.262 34.6367 162.168 34.6367C162.074 34.6367 162.027 34.6133 162.027 34.5664V34.4961C162.027 34.3555 162.145 34.1914 162.379 34.0039C162.801 33.6758 163.117 33.3359 163.328 32.9844C163.562 32.6562 163.738 32.4102 163.855 32.2461C164.348 31.543 164.699 30.9688 164.91 30.5234C165.145 30.125 165.309 29.7148 165.402 29.293H165.262C164.652 29.293 163.668 29.3633 162.309 29.5039C162.098 29.5273 161.488 29.6094 160.48 29.75C160.27 29.7734 159.941 29.832 159.496 29.9258L159.074 30.0312C158.98 30.0781 158.887 30.1016 158.793 30.1016C158.676 30.1016 158.559 30.0781 158.441 30.0312C158.324 29.9609 158.207 29.8789 158.09 29.7852C157.809 29.5508 157.668 29.3516 157.668 29.1875C157.691 29.1406 157.715 29.0703 157.738 28.9766C157.785 28.8828 157.809 28.8008 157.809 28.7305L157.984 27.5703C158.008 27.4531 158.031 27.3242 158.055 27.1836C158.078 27.043 158.09 26.9023 158.09 26.7617C158.09 26.3164 158.078 25.9648 158.055 25.707C158.055 25.4258 158.02 25.1328 157.949 24.8281V24.7227C157.949 24.5586 158.02 24.4766 158.16 24.4766C158.301 24.4766 158.547 24.582 158.898 24.793C159.367 25.1211 159.602 25.3789 159.602 25.5664C159.602 25.6367 159.59 25.6953 159.566 25.7422C159.543 25.7891 159.52 25.8359 159.496 25.8828C159.426 26.3047 159.391 26.5391 159.391 26.5859L159.215 28.4492C159.215 28.4961 159.238 28.5547 159.285 28.625C159.355 28.6719 159.426 28.6953 159.496 28.6953C160.059 28.6953 161.324 28.5547 163.293 28.2734C164.066 28.2031 164.617 28.1211 164.945 28.0273C165.156 28.0039 165.332 27.9688 165.473 27.9219C165.637 27.8516 165.742 27.8164 165.789 27.8164C165.93 27.7695 166.023 27.7461 166.07 27.7461C166.281 27.7461 166.539 27.9336 166.844 28.3086ZM144.238 21.4531C144.496 21.4531 144.742 21.5234 144.977 21.6641C144.039 20.6328 143.113 19.4727 142.199 18.1836L135.062 18.5352C134.43 19.543 133.656 20.5977 132.742 21.6992C133.023 21.7695 133.387 21.875 133.832 22.0156L144.027 21.4531H144.238ZM121.809 29.3633C121.809 29.1523 122.066 28.8594 122.582 28.4844C126.848 25.6016 130.188 22.332 132.602 18.6758L126.133 18.9922L125.289 19.0273C125.078 19.0273 124.926 19.0156 124.832 18.9922C124.621 18.9922 124.457 18.9336 124.34 18.8164C123.801 18.3711 123.473 17.8672 123.355 17.3047C123.332 17.2578 123.32 17.1992 123.32 17.1289C123.32 16.9648 123.391 16.8828 123.531 16.8828L123.707 16.918C124.176 17.0352 124.668 17.0938 125.184 17.0938H125.465L133.797 16.6719L134.008 16.2852C134.383 15.6055 134.781 14.75 135.203 13.7188L132.074 13.8945C131.863 13.918 131.594 13.9297 131.266 13.9297C130.773 13.9297 130.375 13.8008 130.07 13.543C129.766 13.2852 129.555 13.0156 129.438 12.7344C129.32 12.4297 129.262 12.2305 129.262 12.1367C129.262 12.0195 129.332 11.9609 129.473 11.9609L129.648 11.9961C130.07 12.0664 130.504 12.1016 130.949 12.1016H131.406L135.871 11.8203C136.082 11.2344 136.316 10.3906 136.574 9.28906L129.613 9.74609C129.426 9.76953 129.18 9.78125 128.875 9.78125C128.406 9.78125 127.984 9.67578 127.609 9.46484C127.234 9.25391 126.918 8.80859 126.66 8.12891L126.625 7.91797C126.625 7.75391 126.719 7.67188 126.906 7.67188L127.082 7.70703C127.738 7.80078 128.242 7.84766 128.594 7.84766H128.945L136.926 7.35547C137.137 6.23047 137.242 5.45703 137.242 5.03516C137.242 4.56641 137.16 4.15625 136.996 3.80469C136.926 3.61719 136.891 3.48828 136.891 3.41797C136.891 3.20703 137.031 3.10156 137.312 3.10156C137.664 3.10156 138.145 3.19531 138.754 3.38281C139.387 3.57031 139.703 3.89844 139.703 4.36719L139.668 4.71875C139.551 5.49219 139.41 6.32422 139.246 7.21484L146.383 6.75781C146.641 6.73438 147.121 6.61719 147.824 6.40625C147.965 6.35938 148.059 6.33594 148.105 6.33594C148.434 6.33594 148.832 6.55859 149.301 7.00391C149.793 7.42578 150.039 7.76562 150.039 8.02344C150.039 8.28125 149.781 8.43359 149.266 8.48047L138.859 9.14844C138.789 9.45312 138.578 10.2969 138.227 11.6797L143.816 11.3633C144.332 11.3164 144.777 11.2344 145.152 11.1172C145.293 11.0703 145.398 11.0469 145.469 11.0469C145.75 11.0469 146.113 11.2461 146.559 11.6445C147.027 12.043 147.262 12.3594 147.262 12.5938C147.262 12.7344 146.617 12.875 145.328 13.0156C144.062 13.1562 141.484 13.3438 137.594 13.5781C137.242 14.5156 136.797 15.5117 136.258 16.5664L150.215 15.8633C150.73 15.8398 151.234 15.7344 151.727 15.5469C151.773 15.5234 151.867 15.5117 152.008 15.5117C152.242 15.5117 152.5 15.6172 152.781 15.8281C153.086 16.0391 153.344 16.2852 153.555 16.5664C153.766 16.8242 153.871 17.0117 153.871 17.1289C153.871 17.4102 153.602 17.5742 153.062 17.6211L144.484 18.043C145.914 19.8477 147.461 21.4297 149.125 22.7891C150.789 24.1484 152.676 25.3203 154.785 26.3047C155.254 26.5156 155.488 26.7031 155.488 26.8672C155.488 26.9844 155.371 27.1719 155.137 27.4297C154.926 27.6641 154.668 27.8867 154.363 28.0977C154.082 28.2852 153.824 28.3789 153.59 28.3789C153.426 28.3789 152.945 28.1562 152.148 27.7109C151.375 27.2656 150.426 26.6094 149.301 25.7422C148.199 24.875 147.062 23.832 145.891 22.6133C145.914 22.6602 145.926 22.7188 145.926 22.7891C145.926 22.8594 145.891 22.9766 145.82 23.1406C145.773 23.2812 145.75 23.3984 145.75 23.4922L145.258 31.2969C145.867 32.0703 146.172 32.6094 146.172 32.9141C146.172 33.1016 146.078 33.2188 145.891 33.2656C145.727 33.3125 145.469 33.3359 145.117 33.3359L134.324 33.6172L134.359 34.4961V34.6016C134.359 35.0703 134.137 35.3047 133.691 35.3047C133.387 35.3047 133.023 35.1875 132.602 34.9531C132.18 34.7188 131.969 34.3672 131.969 33.8984V33.7578C131.969 33.5234 131.992 33.1953 132.039 32.7734C132.086 32.3516 132.109 32.0352 132.109 31.8242V31.5078L131.617 23.8438C131.617 23.7031 131.605 23.5742 131.582 23.457C131.559 23.3398 131.535 23.2227 131.512 23.1055C130.223 24.4648 128.898 25.625 127.539 26.5859C126.203 27.5469 125.02 28.2852 123.988 28.8008C122.98 29.3164 122.359 29.5742 122.125 29.5742C121.914 29.5742 121.809 29.5039 121.809 29.3633ZM133.938 26.6914L143.359 26.3398L143.465 23.457L133.797 23.9141L133.938 26.6914ZM134.219 31.6133L143.148 31.4023L143.289 28.2031L134.043 28.5547L134.219 31.6133Z" fill="#333333"/>
<path d="M219.121 14.3867C218.957 14.3867 218.781 14.2812 218.594 14.0703C218.453 13.9062 218.359 13.7773 218.312 13.6836C218.266 13.5664 218.266 13.4141 218.312 13.2266L218.348 12.3828C218.371 12.2188 218.383 11.8203 218.383 11.1875V10.0273L217.328 10.5195L216.098 11.0469C215.793 11.1641 215.477 11.3047 215.148 11.4688C214.867 11.6094 214.621 11.6797 214.41 11.6797C214.246 11.6562 214.059 11.5977 213.848 11.5039C213.637 11.4102 213.473 11.3281 213.355 11.2578C213.098 11.0938 212.98 10.918 213.004 10.7305L213.109 10.3789C213.109 10.1914 213.121 10.0273 213.145 9.88672L213.18 7.84766V5.94922C213.18 5.57422 213.156 5.25781 213.109 5C213.062 4.71875 213.027 4.51953 213.004 4.40234C213.004 4.28516 213.039 4.20312 213.109 4.15625C213.133 4.13281 213.191 4.12109 213.285 4.12109C213.449 4.12109 213.766 4.22656 214.234 4.4375C214.633 4.625 214.797 4.85938 214.727 5.14062C214.68 5.30469 214.633 5.55078 214.586 5.87891L214.48 9.92188C214.48 10.0391 214.492 10.1328 214.516 10.2031C214.562 10.25 214.609 10.2734 214.656 10.2734C214.938 10.2734 215.277 10.1914 215.676 10.0273C216.426 9.79297 217.07 9.55859 217.609 9.32422L218.383 9.00781V6.6875C218.383 5.75 218.324 4.84766 218.207 3.98047C218.184 3.91016 218.172 3.82812 218.172 3.73438C218.172 3.5 218.266 3.38281 218.453 3.38281C218.477 3.38281 218.605 3.42969 218.84 3.52344C219.191 3.71094 219.449 3.875 219.613 4.01562C219.777 4.15625 219.871 4.23828 219.895 4.26172C219.988 4.33203 220.035 4.40234 220.035 4.47266C220.035 4.51953 220.012 4.57812 219.965 4.64844C219.941 4.71875 219.918 4.77734 219.895 4.82422L219.789 5.87891L219.754 9.11328L219.789 12.2422C219.789 12.7812 219.754 13.25 219.684 13.6484C219.566 14.1406 219.379 14.3867 219.121 14.3867ZM212.652 20.1523C212.395 20.1523 212.078 19.9531 211.703 19.5547C211.422 19.2734 211.281 19.0625 211.281 18.9219C211.281 18.8516 211.328 18.8164 211.422 18.8164C211.516 18.793 211.633 18.7812 211.773 18.7812L212.547 18.7461C212.992 18.7461 213.285 18.7344 213.426 18.7109C213.871 18.7109 214.246 18.6992 214.551 18.6758C216.566 18.4883 217.926 18.3359 218.629 18.2188C218.98 18.1719 219.297 18.125 219.578 18.0781C219.859 18.0078 220.082 17.9727 220.246 17.9727C220.574 17.9727 220.902 18.1367 221.23 18.4648C221.488 18.7227 221.617 18.9336 221.617 19.0977C221.617 19.2383 221.535 19.332 221.371 19.3789C221.254 19.4023 220.562 19.4492 219.297 19.5195C218.594 19.543 217.727 19.6016 216.695 19.6953C215.664 19.7891 214.762 19.8828 213.988 19.9766C213.848 20 213.648 20.0352 213.391 20.082C213.133 20.1289 212.887 20.1523 212.652 20.1523ZM217.363 34.6719C216.637 34.6719 216.074 34.6484 215.676 34.6016C215.301 34.5547 214.984 34.4141 214.727 34.1797C214.281 33.8516 213.977 33.1367 213.812 32.0352L213.707 30.9102C213.707 30.6289 213.684 30.2773 213.637 29.8555C213.262 29.9023 212.992 29.9492 212.828 29.9961C212.781 30.0195 212.699 30.0547 212.582 30.1016C212.488 30.125 212.418 30.1367 212.371 30.1367C212.207 30.1367 212.055 30.0898 211.914 29.9961C211.773 29.9023 211.598 29.7266 211.387 29.4688C211.223 29.2578 211.141 29.1172 211.141 29.0469C211.141 28.9766 211.223 28.9297 211.387 28.9062C211.551 28.8828 211.773 28.8711 212.055 28.8711C212.453 28.8711 212.969 28.8242 213.602 28.7305L213.566 28.2383C213.566 27.3008 213.508 26.5039 213.391 25.8477L213.355 25.6016C213.355 25.2734 213.484 25.1445 213.742 25.2148C214.023 25.3086 214.281 25.4258 214.516 25.5664C214.703 25.6602 214.832 25.7539 214.902 25.8477C214.973 25.918 214.996 26.0234 214.973 26.1641L214.867 27.6758V28.5898L217.961 28.2734C217.961 28.1094 217.973 27.7227 217.996 27.1133C218.02 26.4805 218.02 26.0703 217.996 25.8828C217.996 25.6953 217.973 25.5195 217.926 25.3555C217.902 25.168 217.879 25.0156 217.855 24.8984C217.855 24.7109 217.949 24.6172 218.137 24.6172C218.324 24.6172 218.559 24.7227 218.84 24.9336C219.168 25.1445 219.379 25.332 219.473 25.4961C219.59 25.6602 219.613 25.8594 219.543 26.0938C219.426 26.4688 219.344 26.8906 219.297 27.3594C219.25 27.8281 219.227 28.1094 219.227 28.2031C219.508 28.1797 219.766 28.1445 220 28.0977C220.234 28.0508 220.387 28.0273 220.457 28.0273C220.645 27.9805 220.867 27.957 221.125 27.957C221.266 27.9805 221.465 28.1211 221.723 28.3789C221.934 28.6602 222.039 28.8828 222.039 29.0469C222.039 29.2812 221.816 29.375 221.371 29.3281C220.973 29.2578 220.574 29.2227 220.176 29.2227C219.777 29.2227 219.438 29.2344 219.156 29.2578C219.086 30.1016 218.945 30.9336 218.734 31.7539C218.688 31.9414 218.605 32.0938 218.488 32.2109C218.371 32.3516 218.266 32.4219 218.172 32.4219C218.008 32.4219 217.902 32.3516 217.855 32.2109C217.832 32.0938 217.82 31.8945 217.82 31.6133C217.867 31.0039 217.891 30.2422 217.891 29.3281C217.258 29.375 216.766 29.4219 216.414 29.4688C215.875 29.5859 215.371 29.6562 214.902 29.6797C214.879 30.6406 214.926 31.4961 215.043 32.2461C215.113 32.7383 215.254 33.0781 215.465 33.2656C215.605 33.3828 215.77 33.4531 215.957 33.4766C216.168 33.5 216.379 33.5117 216.59 33.5117C216.801 33.5117 216.941 33.5117 217.012 33.5117C217.738 33.5117 218.418 33.4766 219.051 33.4062C219.238 33.3828 219.402 33.3359 219.543 33.2656C219.707 33.1953 219.824 33.1602 219.895 33.1602C220.105 33.1602 220.316 33.2305 220.527 33.3711C220.738 33.5117 220.844 33.6758 220.844 33.8633C220.844 34.0508 220.738 34.1914 220.527 34.2852C220.34 34.3789 220.035 34.4609 219.613 34.5312C218.863 34.625 218.113 34.6719 217.363 34.6719ZM227.383 18.6758C227.664 18.6758 227.805 18.8047 227.805 19.0625C227.805 19.2031 227.676 19.4023 227.418 19.6602C226.715 20.5273 225.32 22.1797 223.234 24.6172C223.07 24.8281 222.918 24.9336 222.777 24.9336C222.66 24.9336 222.402 24.7578 222.004 24.4062C221.676 24.125 221.512 23.8906 221.512 23.7031C221.512 23.4922 221.688 23.293 222.039 23.1055C222.578 22.8008 223.387 22.1914 224.465 21.2773C225.543 20.3164 226.34 19.5547 226.855 18.9922C227.066 18.7812 227.242 18.6758 227.383 18.6758ZM182.699 30.1719C184.785 29.5156 186.648 28.8008 188.289 28.0273C187.938 27.5352 187.492 26.9727 186.953 26.3398C186.766 26.1055 186.672 25.918 186.672 25.7773C186.672 25.5195 186.824 25.2969 187.129 25.1094C187.434 24.8984 187.668 24.793 187.832 24.793C188.02 24.793 188.219 24.9102 188.43 25.1445C189.766 26.7148 190.902 28.0977 191.84 29.293C192.777 30.4883 193.246 31.2148 193.246 31.4727C193.246 31.6836 193.082 31.9297 192.754 32.2109C192.449 32.5156 192.156 32.668 191.875 32.668C191.641 32.668 191.406 32.4805 191.172 32.1055C190.633 31.2852 190.023 30.3945 189.344 29.4336L185.125 31.543C184.656 31.7539 183.918 32.1289 182.91 32.668C182.066 33.1133 181.551 33.3359 181.363 33.3359C181.223 33.3359 181.047 33.2422 180.836 33.0547C180.625 32.8906 180.461 32.6797 180.344 32.4219C180.25 32.1875 180.25 32 180.344 31.8594C180.484 31.6016 180.555 30.5703 180.555 28.7656V16.6016C180.555 16.0391 180.531 15.582 180.484 15.2305C180.461 14.8789 180.367 14.5039 180.203 14.1055C180.18 14.0352 180.156 13.9766 180.133 13.9297C180.109 13.8828 180.098 13.8359 180.098 13.7891C180.098 13.6719 180.18 13.6133 180.344 13.6133C180.648 13.6133 181.41 13.8711 182.629 14.3867L190.258 13.8594C190.445 13.8359 190.656 13.8242 190.891 13.8242C191.148 13.8242 191.453 13.9414 191.805 14.1758C192.156 14.3867 192.332 14.6211 192.332 14.8789C192.332 14.9727 192.273 15.1133 192.156 15.3008C192.062 15.4883 192.016 15.6289 192.016 15.7227L191.102 22.332C191.664 22.9883 191.945 23.4336 191.945 23.668C191.945 23.7852 191.875 23.8672 191.734 23.9141C191.617 23.9609 191.43 23.9844 191.172 23.9844L182.664 24.3008L182.699 30.1719ZM176.934 14.3867C176.934 14.1523 177.086 13.8711 177.391 13.543C179.102 11.6445 180.59 9.75781 181.855 7.88281C183.121 6.00781 183.754 4.75391 183.754 4.12109L183.719 3.875V3.76953C183.719 3.44141 183.848 3.27734 184.105 3.27734C184.41 3.27734 184.832 3.48828 185.371 3.91016C185.934 4.30859 186.215 4.63672 186.215 4.89453C186.215 5.01172 186.156 5.16406 186.039 5.35156C185.688 5.91406 185.301 6.47656 184.879 7.03906L189.871 6.65234C190.293 6.62891 190.738 6.53516 191.207 6.37109C191.348 6.32422 191.453 6.30078 191.523 6.30078C191.875 6.30078 192.25 6.5 192.648 6.89844C193.07 7.27344 193.281 7.56641 193.281 7.77734C193.281 8.05859 193.023 8.22266 192.508 8.26953L186.496 8.69141C186.66 8.73828 187.023 8.98438 187.586 9.42969C188.172 9.875 188.699 10.332 189.168 10.8008C189.637 11.2695 189.871 11.5977 189.871 11.7852C189.871 11.9961 189.73 12.2539 189.449 12.5586C189.168 12.8398 188.922 12.9805 188.711 12.9805C188.523 12.9805 188.301 12.8281 188.043 12.5234C187.246 11.6562 186.438 10.8945 185.617 10.2383C185.336 10.0039 185.195 9.80469 185.195 9.64062C185.195 9.52344 185.254 9.37109 185.371 9.18359C185.488 8.99609 185.641 8.84375 185.828 8.72656L183.473 8.90234C182.348 10.2852 181.105 11.5859 179.746 12.8047C178.387 14 177.52 14.5977 177.145 14.5977C177.004 14.5977 176.934 14.5273 176.934 14.3867ZM189.59 18.043L189.836 15.582L182.594 16.0742V18.3945L189.59 18.043ZM189.133 22.4023L189.414 19.6953L182.629 20.0117V22.6484L189.133 22.4023ZM191.031 12.875C191.031 12.6406 191.184 12.3594 191.488 12.0312C192.637 10.6484 193.68 9.08984 194.617 7.35547C195.578 5.59766 196.059 4.36719 196.059 3.66406V3.52344C196.059 3.17188 196.188 2.99609 196.445 2.99609C196.609 2.99609 196.855 3.08984 197.184 3.27734C197.535 3.44141 197.852 3.64062 198.133 3.875C198.414 4.10938 198.555 4.34375 198.555 4.57812C198.555 4.78906 198.391 5.16406 198.062 5.70312C197.734 6.24219 197.559 6.52344 197.535 6.54688L204.461 5.98438C204.977 5.9375 205.422 5.85547 205.797 5.73828C205.844 5.71484 205.938 5.70312 206.078 5.70312C206.406 5.70312 206.758 5.89062 207.133 6.26562C207.531 6.61719 207.73 6.91016 207.73 7.14453C207.73 7.28516 207.66 7.40234 207.52 7.49609C207.402 7.56641 207.238 7.61328 207.027 7.63672L199.891 8.12891C200.547 8.55078 201.32 9.17188 202.211 9.99219C203.102 10.7891 203.547 11.3281 203.547 11.6094C203.547 11.7734 203.418 12.0312 203.16 12.3828C202.902 12.7109 202.656 12.875 202.422 12.875C202.234 12.875 202.035 12.7578 201.824 12.5234C200.676 11.2812 199.633 10.2969 198.695 9.57031C198.461 9.38281 198.344 9.20703 198.344 9.04297C198.344 8.85547 198.52 8.57422 198.871 8.19922L196.27 8.375C195.496 9.40625 194.559 10.4492 193.457 11.5039C192.379 12.5586 191.652 13.0859 191.277 13.0859C191.113 13.0859 191.031 13.0156 191.031 12.875ZM194.336 13.6484C194.336 13.5078 194.418 13.4375 194.582 13.4375C194.934 13.4375 195.73 13.7305 196.973 14.3164L204.039 13.7188L204.32 13.6836C204.414 13.6836 204.59 13.7305 204.848 13.8242C205.129 13.8945 205.387 14.0234 205.621 14.2109C205.879 14.375 206.008 14.5977 206.008 14.8789C206.008 14.9727 205.973 15.1016 205.902 15.2656C205.832 15.4297 205.797 15.5469 205.797 15.6172C205.773 18.1953 205.609 20.9492 205.305 23.8789L205.234 24.7578C205.164 25.7422 205.07 26.5625 204.953 27.2188C204.836 27.875 204.637 28.3906 204.355 28.7656C203.91 29.375 203.43 29.6797 202.914 29.6797C202.398 29.6797 201.742 29.3633 200.945 28.7305C200.148 28.0977 199.41 27.4062 198.73 26.6562C198.074 25.9062 197.746 25.4258 197.746 25.2148C197.746 25.0508 197.84 24.9688 198.027 24.9688C198.238 24.9688 198.531 25.0859 198.906 25.3203C199.773 25.8594 200.5 26.293 201.086 26.6211C201.672 26.9492 202.094 27.1133 202.352 27.1133C202.469 27.1133 202.551 27.0312 202.598 26.8672C203.137 23.8672 203.465 20.1055 203.582 15.582L196.973 16.0742C196.973 20.0352 197.008 26.3164 197.078 34.918C197.078 35.1289 197.02 35.2812 196.902 35.375C196.809 35.4922 196.68 35.5508 196.516 35.5508C196.328 35.5508 196.105 35.4805 195.848 35.3398C195.402 35.1523 195.086 34.9766 194.898 34.8125C194.711 34.6484 194.617 34.4609 194.617 34.25L194.652 34.0039C194.793 33.2305 194.863 32.3633 194.863 31.4023L194.758 16.5664C194.758 15.957 194.734 15.4883 194.688 15.1602C194.664 14.832 194.594 14.5156 194.477 14.2109C194.383 13.9297 194.336 13.7422 194.336 13.6484Z" fill="#333333"/>
<path d="M67.5938 68.2188C67.3229 68.2188 67.125 68.125 67 67.9375C66.8125 67.6667 66.625 67.4479 66.4375 67.2812C66.2708 67.1146 65.9688 66.8854 65.5312 66.5938L65.625 66.4375C66.5833 66.7708 67.2604 66.9375 67.6562 66.9375C67.9896 66.9375 68.3542 66.75 68.75 66.375C69.1667 65.9792 69.5208 65.4167 69.8125 64.6875C69.9583 64.3542 70.0625 64.0833 70.125 63.875C70.2083 63.6458 70.2708 63.3958 70.3125 63.125V63.0625C70.3125 62.875 70.2188 62.7812 70.0312 62.7812C69.8229 62.7812 69.4479 62.8438 68.9062 62.9688C68.6146 63.0521 68.2292 63.1771 67.75 63.3438L67.5 63.2812C67.4792 63.2604 67.4271 63.2292 67.3438 63.1875C67.2812 63.125 67.2292 63.0625 67.1875 63C67.0833 62.8958 67.0312 62.8229 67.0312 62.7812L67 62.6562C67 62.5104 67.0729 62.375 67.2188 62.25C67.3854 62.125 67.4792 62.0312 67.5 61.9688C67.6667 61.7812 68 61.3229 68.5 60.5938C68.5417 60.5521 68.6146 60.4583 68.7188 60.3125C68.8229 60.1458 68.875 60 68.875 59.875C68.875 59.7292 68.2604 59.8333 67.0312 60.1875C65.7812 60.5625 65.125 60.75 65.0625 60.75C64.8542 60.75 64.6354 60.5729 64.4062 60.2188C64.2396 60.0521 64.1562 59.9167 64.1562 59.8125C64.1562 59.6667 64.3646 59.5833 64.7812 59.5625C65.2604 59.5417 66 59.4583 67 59.3125C68.0208 59.1667 68.625 59.0729 68.8125 59.0312L69.25 58.9062C69.3125 58.8854 69.3854 58.875 69.4688 58.875C69.5312 58.875 69.625 58.9167 69.75 59C69.8958 59.0833 70.0208 59.1458 70.125 59.1875C70.3958 59.3125 70.5521 59.4583 70.5938 59.625V59.7188C70.5938 59.9062 70.4896 60.1042 70.2812 60.3125C70.1979 60.3958 70.0312 60.5729 69.7812 60.8438C69.5312 61.0938 69.375 61.2604 69.3125 61.3438C69.2292 61.4271 69.1042 61.5625 68.9375 61.75C68.7708 61.9375 68.6771 62.0521 68.6562 62.0938C68.6562 62.1562 68.6771 62.1979 68.7188 62.2188C68.7604 62.2396 68.8125 62.25 68.875 62.25C69.5 62.1667 70.0104 62.0729 70.4062 61.9688L70.9062 61.8125C71.1354 61.8125 71.3021 61.8958 71.4062 62.0625C71.5938 62.2708 71.7188 62.4479 71.7812 62.5938C71.8438 62.7188 71.8438 62.8438 71.7812 62.9688C71.7604 63.0312 71.7292 63.0938 71.6875 63.1562C71.6458 63.2188 71.6042 63.2917 71.5625 63.375C71.5417 63.4167 71.5 63.5 71.4375 63.625C71.375 63.75 71.3333 63.875 71.3125 64C70.9375 65.0833 70.4896 66.0104 69.9688 66.7812C69.6771 67.1354 69.3542 67.4375 69 67.6875C68.5208 68.0417 68.0521 68.2188 67.5938 68.2188ZM71.1875 76.5938C70.875 76.5938 70.5729 76.3646 70.2812 75.9062C69.9062 75.3229 69.5417 74.8438 69.1875 74.4688L68.375 73.625C67.9375 74.125 67.5521 74.5208 67.2188 74.8125C66.9062 75.1042 66.5104 75.3854 66.0312 75.6562C65.1354 76.1771 64.3854 76.4375 63.7812 76.4375C63.6354 76.4375 63.5625 76.3854 63.5625 76.2812C63.5625 76.2188 63.7604 76.0833 64.1562 75.875C64.5521 75.6667 64.9271 75.4167 65.2812 75.125C66.1771 74.375 66.9167 73.6042 67.5 72.8125C67.375 72.6875 66.75 72.1458 65.625 71.1875C65.4792 71.0833 65.2604 70.9062 64.9688 70.6562C64.9062 70.6146 64.7812 70.5208 64.5938 70.375C64.4062 70.2292 64.3125 70.125 64.3125 70.0625C64.3125 69.9583 64.3646 69.9062 64.4688 69.9062C64.7812 69.9062 65.2812 70.125 65.9688 70.5625C66.6562 70.9792 67.375 71.4792 68.125 72.0625C68.4167 71.7083 68.6458 71.375 68.8125 71.0625C68.9792 70.75 69.1667 70.3646 69.375 69.9062C69.4792 69.6771 69.5417 69.4792 69.5625 69.3125C69.5833 69.125 69.5938 69.0104 69.5938 68.9688C69.5938 68.7396 69.6562 68.625 69.7812 68.625C69.9271 68.625 70.125 68.7396 70.375 68.9688C70.8125 69.3854 71.0312 69.6667 71.0312 69.8125C71.0312 69.8958 70.9792 69.9896 70.875 70.0938C70.625 70.3438 70.3958 70.6771 70.1875 71.0938C70.0625 71.3438 69.8333 71.6979 69.5 72.1562C69.3958 72.2812 69.3125 72.3958 69.25 72.5C69.1875 72.6042 69.125 72.6979 69.0625 72.7812C69.5417 73.1354 70.25 73.7396 71.1875 74.5938C71.4167 74.8021 71.5625 75 71.625 75.1875C71.7083 75.3542 71.75 75.5833 71.75 75.875C71.75 76.0833 71.6979 76.2604 71.5938 76.4062C71.4896 76.5312 71.3542 76.5938 71.1875 76.5938ZM64.2812 85.9375C63.9688 85.9375 63.7292 85.8542 63.5625 85.6875C63.375 85.5 63.2812 85.3333 63.2812 85.1875C63.2812 85.0417 63.3646 84.8854 63.5312 84.7188C63.5521 84.6979 63.6667 84.5312 63.875 84.2188C64.3333 83.4896 64.8542 82.5625 65.4375 81.4375C66.0417 80.2917 66.4167 79.5104 66.5625 79.0938C66.6875 78.6979 66.8021 78.3542 66.9062 78.0625C67.0312 77.7708 67.1354 77.625 67.2188 77.625C67.3646 77.625 67.4896 77.6771 67.5938 77.7812C67.6979 77.8646 67.8021 77.9896 67.9062 78.1562C68.0312 78.3021 68.125 78.4062 68.1875 78.4688C68.3333 78.6354 68.4062 78.7917 68.4062 78.9375C68.4062 79.0417 68.3646 79.1458 68.2812 79.25C68.1979 79.3542 68.1458 79.4271 68.125 79.4688L66.75 81.7812C66.3958 82.4271 65.9271 83.2292 65.3438 84.1875C65.2604 84.2917 65.2188 84.3958 65.2188 84.5C65.2188 84.5833 65.3125 84.625 65.5 84.625C65.8958 84.625 66.6354 84.5729 67.7188 84.4688C68.8021 84.3854 69.5312 84.3125 69.9062 84.25C70.4479 84.1875 70.8229 84.125 71.0312 84.0625C71.2604 84 71.5938 84.1562 72.0312 84.5312C72.5521 84.9688 72.6667 85.25 72.375 85.375C72.2083 85.4583 71.8854 85.5 71.4062 85.5H70.1562C69.8854 85.5 69.4583 85.5208 68.875 85.5625C68.5208 85.5625 68.125 85.5729 67.6875 85.5938C67.25 85.6146 66.8854 85.6354 66.5938 85.6562C66.2604 85.6771 65.6146 85.7396 64.6562 85.8438L64.2812 85.9375ZM77.5625 72.1562C77.8125 72.1562 77.9375 72.2708 77.9375 72.5C77.9375 72.625 77.8229 72.8021 77.5938 73.0312C76.9688 73.8021 75.7292 75.2708 73.875 77.4375C73.7292 77.625 73.5938 77.7188 73.4688 77.7188C73.3646 77.7188 73.1354 77.5625 72.7812 77.25C72.4896 77 72.3438 76.7917 72.3438 76.625C72.3438 76.4375 72.5 76.2604 72.8125 76.0938C73.2917 75.8229 74.0104 75.2812 74.9688 74.4688C75.9271 73.6146 76.6354 72.9375 77.0938 72.4375C77.2812 72.25 77.4375 72.1562 77.5625 72.1562ZM39.6562 70V70.0938C39.6562 70.4479 39.4792 70.625 39.125 70.625C38.8333 70.625 38.5312 70.5417 38.2188 70.375C37.9062 70.2083 37.75 69.9583 37.75 69.625L37.7812 69.3125C37.8021 69.2083 37.8125 69.0729 37.8125 68.9062C37.8125 68.7604 37.8021 68.5938 37.7812 68.4062C37.7604 68.2188 37.7396 68.0729 37.7188 67.9688L37.1562 63.5312C37.0729 62.9688 36.9375 62.5417 36.75 62.25C36.6042 62.0208 36.5312 61.8646 36.5312 61.7812C36.5312 61.6562 36.6458 61.5938 36.875 61.5938C37.25 61.5938 37.8958 61.7604 38.8125 62.0938L42.8438 61.875L42.7812 60.4688C42.7604 60.0312 42.6146 59.6354 42.3438 59.2812C42.2604 59.1979 42.2188 59.1042 42.2188 59C42.2188 58.8542 42.3542 58.7812 42.625 58.7812C42.8542 58.7812 43.1354 58.8438 43.4688 58.9688C43.8646 59.1146 44.125 59.25 44.25 59.375C44.375 59.4792 44.4479 59.625 44.4688 59.8125L44.5625 61.7812L48.5312 61.5625L48.5625 60.0938C48.5625 59.5729 48.4479 59.1354 48.2188 58.7812C48.1562 58.6562 48.125 58.5521 48.125 58.4688C48.125 58.3021 48.25 58.2188 48.5 58.2188C48.6042 58.2396 48.8021 58.2917 49.0938 58.375C49.4062 58.4375 49.6979 58.5521 49.9688 58.7188C50.2396 58.8854 50.375 59.0938 50.375 59.3438L50.2812 61.4688L55.0625 61.2188L55.4688 61.1875C55.6771 61.1875 55.9167 61.2917 56.1875 61.5C56.4792 61.7083 56.625 61.9167 56.625 62.125C56.625 62.2083 56.6042 62.3021 56.5625 62.4062C56.5208 62.4896 56.4896 62.5625 56.4688 62.625L55.625 67.5312C56.0417 68.0312 56.25 68.3646 56.25 68.5312C56.25 68.6562 56.1875 68.7396 56.0625 68.7812C55.9583 68.8021 55.75 68.8229 55.4375 68.8438L39.5938 69.5625L39.6562 70ZM31.8125 86.9062C31.8125 86.7188 32 86.4167 32.375 86C35.4792 82.6042 37.0625 78.2604 37.125 72.9688C37.125 72.2604 37.0625 71.7188 36.9375 71.3438C36.8542 71.0521 36.8125 70.8646 36.8125 70.7812C36.8125 70.6146 36.8958 70.5312 37.0625 70.5312C37.375 70.5312 38.0417 70.7917 39.0625 71.3125L53.1562 70.6875C53.7396 70.6458 54.2396 70.5521 54.6562 70.4062C54.8229 70.3646 54.9375 70.3438 55 70.3438C55.2292 70.3438 55.5625 70.5208 56 70.875C56.4375 71.2083 56.6562 71.4896 56.6562 71.7188C56.6562 71.9271 56.4167 72.0521 55.9375 72.0938L39 72.8125C38.9167 74.5208 38.7292 76.125 38.4375 77.625L55 76.9062C55.5833 76.8646 56.0833 76.7708 56.5 76.625C56.6667 76.5833 56.7917 76.5625 56.875 76.5625C57.125 76.5625 57.375 76.6562 57.625 76.8438C57.875 77.0104 58.0833 77.2083 58.25 77.4375C58.4167 77.6458 58.5 77.8021 58.5 77.9062C58.5 78.1146 58.2604 78.2396 57.7812 78.2812L47.3125 78.7188C48.4583 79.9062 49.4271 80.7708 50.2188 81.3125C52.3854 80.5208 53.6458 79.7604 54 79.0312C54.1042 78.8021 54.2396 78.6875 54.4062 78.6875C54.5938 78.6875 54.8333 78.8854 55.125 79.2812C55.4167 79.6771 55.5625 80.0104 55.5625 80.2812C55.5625 80.4896 55.4479 80.6458 55.2188 80.75C54.2188 81.2917 53.0625 81.7917 51.75 82.25C52.875 82.875 54.1354 83.4062 55.5312 83.8438C56.9271 84.2812 58.5729 84.6771 60.4688 85.0312C60.6562 85.0729 60.7917 85.1146 60.875 85.1562C60.9583 85.1979 61 85.2604 61 85.3438C61 85.4062 60.9271 85.5625 60.7812 85.8125C60.6562 86.0625 60.5 86.2812 60.3125 86.4688C60.125 86.6771 59.9375 86.7812 59.75 86.7812C59.6875 86.7812 59.5729 86.7604 59.4062 86.7188C57.1146 86.1771 55.1771 85.5938 53.5938 84.9688C52.0312 84.3438 50.5833 83.5521 49.25 82.5938C47.9167 81.6146 46.6042 80.3542 45.3125 78.8125L42.7812 78.9062L42.625 84.5938C43.9792 84.2396 45.5729 83.7812 47.4062 83.2188C47.7188 83.1146 48.0208 83.0625 48.3125 83.0625C48.5625 83.0625 48.6875 83.125 48.6875 83.25C48.6875 83.4792 48.3229 83.8021 47.5938 84.2188C46.8646 84.6354 45.9688 85.0625 44.9062 85.5C44.4271 85.7083 44.0312 85.875 43.7188 86C43.4062 86.1458 43.1667 86.2604 43 86.3438C42.2083 86.7396 41.7083 86.9375 41.5 86.9375C41.2917 86.9375 41.0625 86.7604 40.8125 86.4062C40.5625 86.0521 40.5 85.7812 40.625 85.5938C40.7083 85.4479 40.7708 85.0312 40.8125 84.3438C40.8542 83.6771 40.875 83.1771 40.875 82.8438L40.9688 79L38.0938 79.125C37.5729 80.7917 36.8854 82.2292 36.0312 83.4375C35.1771 84.625 34.3542 85.5312 33.5625 86.1562C32.7708 86.7812 32.2604 87.0938 32.0312 87.0938C31.8854 87.0938 31.8125 87.0312 31.8125 86.9062ZM39.0938 65.0625L43 64.8438L42.9062 63.2188L38.9062 63.4375L39.0938 65.0625ZM39.4375 68.2188L43.125 68.0312L43.0625 66.25L39.25 66.4375L39.4375 68.2188ZM40.1875 74.2812C40.1875 74.1979 40.2396 74.1562 40.3438 74.1562C40.4271 74.1562 40.5 74.1667 40.5625 74.1875C40.9792 74.2917 41.3854 74.3438 41.7812 74.3438H42.0625L51.3125 73.9062C51.8958 73.8646 52.3958 73.7708 52.8125 73.625C52.9792 73.5833 53.1042 73.5625 53.1875 73.5625C53.4375 73.5625 53.6875 73.6562 53.9375 73.8438C54.1875 74.0104 54.3958 74.2083 54.5625 74.4375C54.7292 74.6458 54.8125 74.8021 54.8125 74.9062C54.8125 75.0938 54.5729 75.2083 54.0938 75.25L42.6562 75.8125L41.9375 75.8438C41.125 75.8438 40.5729 75.4479 40.2812 74.6562C40.2188 74.4896 40.1875 74.3646 40.1875 74.2812ZM44.6875 64.7812L48.4375 64.5938L48.5 62.9375L44.625 63.125L44.6875 64.7812ZM44.8438 67.9688L48.375 67.7812L48.4062 66L44.75 66.1875L44.8438 67.9688ZM53.875 67.5312L54.125 65.7188L50.0938 65.9062L50.0312 67.7188L53.875 67.5312ZM54.3125 64.3125L54.5312 62.625L50.2188 62.8438L50.1562 64.5L54.3125 64.3125Z" fill="#333333"/>
<path d="M116.531 72C116.198 72 115.99 71.9062 115.906 71.7188C115.802 71.4688 115.698 71.2604 115.594 71.0938C115.49 70.9062 115.302 70.6875 115.031 70.4375L115.094 70.3125C115.844 70.5833 116.333 70.7188 116.562 70.7188C116.729 70.7188 116.854 70.6875 116.938 70.625C117.021 70.5625 117.156 70.4167 117.344 70.1875C117.615 69.8958 117.865 69.4479 118.094 68.8438C118.406 67.9479 118.604 67.0208 118.688 66.0625V65.9688C118.688 65.8438 118.667 65.7604 118.625 65.7188C118.354 65.7188 117.635 65.7812 116.469 65.9062C115.823 67.5104 115.073 68.8333 114.219 69.875C113.385 70.8958 112.625 71.4062 111.938 71.4062C111.771 71.4062 111.688 71.3438 111.688 71.2188C111.688 71.1771 111.896 70.9375 112.312 70.5C112.729 70.0625 113.188 69.4896 113.688 68.7812C114.208 68.0521 114.698 67.1562 115.156 66.0938C115.052 66.0938 114.75 66.1146 114.25 66.1562C113.75 66.1979 113.323 66.2708 112.969 66.375C112.802 66.5 112.625 66.5208 112.438 66.4375C112.438 66.4375 112.417 66.4271 112.375 66.4062C112.333 66.3854 112.292 66.3542 112.25 66.3125C112.104 66.2292 111.979 66.125 111.875 66C111.792 65.8542 111.75 65.7188 111.75 65.5938C111.75 65.5312 111.802 65.4479 111.906 65.3438L112.281 64.8438C112.406 64.6771 112.521 64.4375 112.625 64.125C112.729 63.7917 112.781 63.5104 112.781 63.2812C112.781 63.1354 112.771 63.0417 112.75 63C112.729 62.9583 112.719 62.9062 112.719 62.8438C112.719 62.7396 112.771 62.6875 112.875 62.6875C113 62.6875 113.177 62.7604 113.406 62.9062C113.469 62.9479 113.583 63.0312 113.75 63.1562C113.938 63.2604 114.042 63.3854 114.062 63.5312C114.062 63.6771 113.979 63.9167 113.812 64.25L113.406 64.9688C113.365 65.0312 113.344 65.1042 113.344 65.1875C113.344 65.25 113.365 65.3021 113.406 65.3438C113.469 65.3646 113.542 65.3646 113.625 65.3438L115.5 65.0938C115.708 64.5521 115.875 63.9792 116 63.375V63.1875V62.6562C116 62.4271 116.062 62.3333 116.188 62.375C116.458 62.4375 116.677 62.5208 116.844 62.625C117.156 62.8125 117.312 62.9688 117.312 63.0938C117.312 63.1979 117.271 63.375 117.188 63.625C117.125 63.8542 117.073 64.0312 117.031 64.1562C117.01 64.2396 116.917 64.5104 116.75 64.9688C116.812 64.9688 117.198 64.9271 117.906 64.8438L118.219 64.7812C118.281 64.7812 118.396 64.7604 118.562 64.7188C118.604 64.6979 118.656 64.6875 118.719 64.6875C118.969 64.6875 119.125 64.6979 119.188 64.7188C119.271 64.7396 119.396 64.8021 119.562 64.9062C119.75 65.0312 119.875 65.1562 119.938 65.2812C120 65.4062 120.021 65.5521 120 65.7188L119.812 66.75L119.594 67.875C119.594 67.9583 119.521 68.2292 119.375 68.6875C119.229 69.1458 119.062 69.5521 118.875 69.9062C118.521 70.6146 118.104 71.1458 117.625 71.5C117.208 71.8333 116.844 72 116.531 72ZM112.469 79.0938C112.24 79.0938 111.958 78.9167 111.625 78.5625C111.375 78.3125 111.25 78.125 111.25 78C111.25 77.9375 111.292 77.9062 111.375 77.9062C111.458 77.8854 111.562 77.875 111.688 77.875L112.375 77.8438C112.771 77.8438 113.031 77.8333 113.156 77.8125C113.552 77.8125 113.885 77.8021 114.156 77.7812C115.948 77.6146 117.156 77.4792 117.781 77.375C118.094 77.3333 118.375 77.2917 118.625 77.25C118.875 77.1875 119.073 77.1562 119.219 77.1562C119.51 77.1562 119.802 77.3021 120.094 77.5938C120.323 77.8229 120.438 78.0104 120.438 78.1562C120.438 78.2812 120.365 78.3646 120.219 78.4062C120.115 78.4271 119.5 78.4688 118.375 78.5312C117.75 78.5521 116.979 78.6042 116.062 78.6875C115.146 78.7708 114.344 78.8542 113.656 78.9375C113.531 78.9583 113.354 78.9896 113.125 79.0312C112.896 79.0729 112.677 79.0938 112.469 79.0938ZM121.562 71.2188C121.667 71.2188 121.823 71.2917 122.031 71.4375C122.01 71.4792 122.052 71.5625 122.156 71.6875C122.26 71.7917 122.333 71.8646 122.375 71.9062C122.479 72.0104 122.583 72.1354 122.688 72.2812C122.812 72.4271 122.948 72.5833 123.094 72.75C123.469 73.1458 124.333 74.1771 125.688 75.8438C125.917 76.1771 126.031 76.375 126.031 76.4375C126.031 76.6458 125.906 76.75 125.656 76.75C125.51 76.75 125.354 76.6458 125.188 76.4375C124.792 76.0208 124.083 75.3646 123.062 74.4688C122.271 73.7396 121.552 73.1771 120.906 72.7812C120.594 72.6354 120.438 72.4688 120.438 72.2812C120.438 72.1354 120.594 71.9271 120.906 71.6562C121.198 71.3646 121.417 71.2188 121.562 71.2188ZM91.25 85.9688V86.0312C91.25 86.1979 91.1979 86.3333 91.0938 86.4375C91.0104 86.5417 90.875 86.5938 90.6875 86.5938C90.375 86.5938 90.0521 86.4792 89.7188 86.25C89.3854 86.0417 89.2188 85.8125 89.2188 85.5625V85.4062C89.2188 85.2604 89.2292 85.125 89.25 85C89.2708 84.8958 89.2812 84.7812 89.2812 84.6562L89.25 84.0938L88.9375 77.9062C88.9167 77.6354 88.8646 77.3438 88.7812 77.0312C88.7188 76.6979 88.6562 76.4583 88.5938 76.3125C88.4479 76.0208 88.375 75.8125 88.375 75.6875C88.375 75.5625 88.4688 75.5 88.6562 75.5C88.9271 75.5 89.6042 75.6875 90.6875 76.0625L102.281 75.5312H102.625C102.917 75.5312 103.156 75.6042 103.344 75.75C103.552 75.8958 103.708 76.0625 103.812 76.25C103.917 76.4375 103.969 76.5729 103.969 76.6562C103.969 76.7604 103.938 76.8646 103.875 76.9688C103.812 77.0729 103.771 77.1667 103.75 77.25L103.219 83.5625C103.719 84.2083 103.969 84.6458 103.969 84.875C103.969 85.0208 103.906 85.1042 103.781 85.125C103.656 85.1667 103.448 85.1875 103.156 85.1875L91.2188 85.4375L91.25 85.9688ZM79.7812 85.9688C79.7812 85.7604 79.875 85.4375 80.0625 85C81.125 82.6667 81.9271 80.3958 82.4688 78.1875C83.0104 75.9792 83.3646 73.7188 83.5312 71.4062C83.7188 69.0938 83.8125 66.3125 83.8125 63.0625C83.8125 62.4583 83.8021 62 83.7812 61.6875C83.7604 61.3542 83.6979 61.0312 83.5938 60.7188C83.5104 60.4688 83.4688 60.3125 83.4688 60.25C83.4688 60.1042 83.5417 60.0312 83.6875 60.0312C83.9583 60.0312 84.6771 60.3021 85.8438 60.8438L102.812 59.9062C103.417 59.8854 103.948 59.7812 104.406 59.5938C104.531 59.5312 104.656 59.5 104.781 59.5C105.01 59.5 105.26 59.5938 105.531 59.7812C105.823 59.9688 106.062 60.1771 106.25 60.4062C106.458 60.6354 106.562 60.8021 106.562 60.9062C106.562 61.1771 106.302 61.3333 105.781 61.375L85.8125 62.5C85.8125 64.3333 85.7604 66.2708 85.6562 68.3125C85.5729 70.3542 85.4167 72.0938 85.1875 73.5312C84.7292 76.5104 84.1146 78.9479 83.3438 80.8438C82.5938 82.7188 81.8854 84.0729 81.2188 84.9062C80.5521 85.7604 80.1146 86.1875 79.9062 86.1875C79.8229 86.1875 79.7812 86.1146 79.7812 85.9688ZM85.5625 75.1875C85.5625 74.9792 85.7396 74.6875 86.0938 74.3125C86.7396 73.625 87.4583 72.7604 88.25 71.7188C89.0625 70.6771 89.75 69.6875 90.3125 68.75L88.4062 68.9062H88.1562C87.6979 68.9062 87.3021 68.7812 86.9688 68.5312C86.6562 68.2812 86.5 67.9479 86.5 67.5312C86.5 67.4271 86.5625 67.375 86.6875 67.375L87 67.4375C87.3125 67.5 87.6354 67.5312 87.9688 67.5312H88.1875L90.9375 67.3438C90.9375 66.4896 90.9479 65.8854 90.9688 65.5312C90.3229 65.6771 89.7188 65.8021 89.1562 65.9062C88.5938 66.0104 88.2188 66.0625 88.0312 66.0625C87.6354 66.0625 87.4375 65.9792 87.4375 65.8125C87.4375 65.7292 87.5208 65.6354 87.6875 65.5312C87.8542 65.4062 88.0938 65.3021 88.4062 65.2188C89.3229 64.9479 90.3438 64.5729 91.4688 64.0938C92.6146 63.6146 93.3333 63.1562 93.625 62.7188C93.7292 62.5938 93.8438 62.5312 93.9688 62.5312C94.1771 62.5312 94.375 62.6354 94.5625 62.8438C94.75 63.0312 94.9062 63.25 95.0312 63.5C95.1771 63.7292 95.25 63.8958 95.25 64C95.25 64.2083 95.1771 64.3333 95.0312 64.375C94.0104 64.7292 93.1771 64.9896 92.5312 65.1562V67.25L93.75 67.1562C94.1667 67.1146 94.5104 67.0521 94.7812 66.9688C94.8438 66.9479 94.9271 66.9375 95.0312 66.9375C95.2604 66.9375 95.5312 67.0833 95.8438 67.375C96.1562 67.6458 96.3125 67.875 96.3125 68.0625C96.3125 68.2708 96.1042 68.3854 95.6875 68.4062L92.5312 68.625V69.1875C92.6562 69.0625 92.8021 69 92.9688 69C93.0938 69 93.4062 69.1667 93.9062 69.5C94.4062 69.8125 94.8646 70.1562 95.2812 70.5312C95.7188 70.9062 95.9375 71.1771 95.9375 71.3438C95.9375 71.5521 95.8229 71.7812 95.5938 72.0312C95.3854 72.2812 95.2083 72.4062 95.0625 72.4062C94.9167 72.4062 94.7292 72.2917 94.5 72.0625C93.9167 71.4792 93.2604 70.9062 92.5312 70.3438V74.8438C92.5312 75.2812 92.375 75.5 92.0625 75.5C91.9167 75.5 91.6979 75.4375 91.4062 75.3125C91.1562 75.1875 90.9792 75.0625 90.875 74.9375C90.7917 74.8125 90.75 74.6667 90.75 74.5C90.75 74.3333 90.7604 74.2083 90.7812 74.125C90.8646 73.4583 90.9062 72.9792 90.9062 72.6875L90.9375 71.7188C90.9375 71.3021 90.9792 70.75 91.0625 70.0625C90.8333 70.6042 90.3438 71.3021 89.5938 72.1562C88.8438 72.9896 88.0729 73.7292 87.2812 74.375C86.5104 75.0208 85.9896 75.3438 85.7188 75.3438C85.6146 75.3438 85.5625 75.2917 85.5625 75.1875ZM90.875 79.8438L101.656 79.4688L101.781 77.125L90.75 77.6562L90.875 79.8438ZM91.125 83.8438L101.406 83.5938L101.562 80.9688L90.9688 81.3438L91.125 83.8438ZM94.6875 74.5938C94.6875 74.3854 94.8854 74.0833 95.2812 73.6875C96.9062 72.1042 98.3646 70.3125 99.6562 68.3125L98.0938 68.4375H97.8125C97.4167 68.4375 97.125 68.3646 96.9375 68.2188C96.5833 67.9062 96.3438 67.6042 96.2188 67.3125C96.1771 67.1875 96.1562 67.1146 96.1562 67.0938C96.1562 66.9896 96.2292 66.9375 96.375 66.9375C96.4792 66.9375 96.5625 66.9479 96.625 66.9688C96.9375 67.0521 97.2396 67.0938 97.5312 67.0938L97.875 67.0625L100.312 66.9062L100.375 64.9375C100.292 64.9583 99.8333 65.0625 99 65.25C98.1875 65.4375 97.5729 65.5312 97.1562 65.5312C96.7604 65.5312 96.5625 65.4583 96.5625 65.3125C96.5625 65.2292 96.6562 65.125 96.8438 65C97.0521 64.875 97.3333 64.7604 97.6875 64.6562C98.6042 64.3646 99.6771 63.9792 100.906 63.5C102.135 63 102.896 62.5312 103.188 62.0938C103.292 61.9271 103.417 61.8438 103.562 61.8438C103.833 61.8438 104.115 62.0417 104.406 62.4375C104.719 62.8125 104.875 63.1146 104.875 63.3438C104.875 63.4271 104.844 63.5104 104.781 63.5938C104.74 63.6562 104.698 63.6875 104.656 63.6875C103.615 64.0625 102.698 64.3542 101.906 64.5625C101.885 65.0208 101.875 65.7708 101.875 66.8125L104.094 66.6875C104.323 66.6667 104.667 66.5938 105.125 66.4688C105.188 66.4479 105.281 66.4375 105.406 66.4375C105.635 66.4375 105.917 66.5625 106.25 66.8125C106.583 67.0417 106.75 67.3021 106.75 67.5938C106.75 67.8021 106.51 67.9271 106.031 67.9688L101.875 68.2188V68.9375C102.25 69.0625 102.99 69.4688 104.094 70.1562C105.219 70.8229 106.271 71.4896 107.25 72.1562C107.271 72.1771 107.344 72.2604 107.469 72.4062C107.615 72.5312 107.688 72.6667 107.688 72.8125C107.688 72.9375 107.615 73.1562 107.469 73.4688C107.344 73.7604 107.177 73.9167 106.969 73.9375H106.906C106.74 73.9375 106.552 73.8542 106.344 73.6875C104.76 72.4792 103.271 71.4479 101.875 70.5938L101.844 74.4375C101.844 74.6875 101.812 74.875 101.75 75C101.688 75.125 101.583 75.1875 101.438 75.1875C101.125 75.1875 100.823 75.0729 100.531 74.8438C100.24 74.6146 100.094 74.3646 100.094 74.0938L100.125 73.7812C100.208 73.1146 100.25 72.6354 100.25 72.3438V71.4688C100.25 70.9688 100.312 70.3021 100.438 69.4688C99.9792 70.3021 99.3542 71.125 98.5625 71.9375C97.7708 72.7292 97 73.3958 96.25 73.9375C95.5 74.4583 95.0312 74.7188 94.8438 74.7188C94.7396 74.7188 94.6875 74.6771 94.6875 74.5938Z" fill="#333333"/>
<path d="M160.469 74.4062C160.24 74.4062 159.958 74.2292 159.625 73.875C159.375 73.625 159.25 73.4375 159.25 73.3125C159.25 73.25 159.292 73.2188 159.375 73.2188C159.458 73.1979 159.562 73.1875 159.688 73.1875L160.375 73.1562C160.771 73.1562 161.031 73.1458 161.156 73.125C161.552 73.125 161.885 73.1146 162.156 73.0938C163.948 72.9271 165.156 72.7917 165.781 72.6875C166.094 72.6458 166.375 72.6042 166.625 72.5625C166.875 72.5 167.073 72.4688 167.219 72.4688C167.51 72.4688 167.802 72.6146 168.094 72.9062C168.323 73.1354 168.438 73.3229 168.438 73.4688C168.438 73.5938 168.365 73.6771 168.219 73.7188C168.115 73.7396 167.5 73.7812 166.375 73.8438C165.75 73.8646 164.979 73.9167 164.062 74C163.146 74.0833 162.344 74.1667 161.656 74.25C161.531 74.2708 161.354 74.3021 161.125 74.3438C160.896 74.3854 160.677 74.4062 160.469 74.4062ZM131.625 74C131.396 74.0208 131.115 74.0312 130.781 74.0312C130.365 74.0312 130.052 73.9583 129.844 73.8125C129.615 73.625 129.385 73.3125 129.156 72.875C128.948 72.4375 128.844 72.1458 128.844 72C128.844 71.875 128.896 71.8125 129 71.8125L129.25 71.875C129.625 71.9792 130.021 72.0312 130.438 72.0312L131 72L153.156 70.875C153.656 70.8333 154.094 70.7396 154.469 70.5938C154.51 70.5729 154.573 70.5625 154.656 70.5625C154.823 70.5625 155.052 70.6562 155.344 70.8438C155.656 71.0312 155.927 71.2604 156.156 71.5312C156.385 71.7812 156.5 72.0104 156.5 72.2188C156.5 72.5312 156.26 72.7083 155.781 72.75L131.625 74Z" fill="#333333"/>
<path d="M209.156 70.2812C208.469 70.0312 208.146 69.7604 208.188 69.4688C208.312 68.5938 208.375 67.5938 208.375 66.4688C208.375 65.9688 208.365 65.6042 208.344 65.375C208.323 65.1042 208.302 64.875 208.281 64.6875C208.26 64.4792 208.26 64.3646 208.281 64.3438C208.365 64.2604 208.469 64.2188 208.594 64.2188C208.781 64.2188 209.01 64.3021 209.281 64.4688C209.573 64.6354 209.719 64.8021 209.719 64.9688C209.719 65.0729 209.708 65.1771 209.688 65.2812C209.667 65.3646 209.656 65.4583 209.656 65.5625L209.469 68.6562C209.469 68.8229 209.531 68.9271 209.656 68.9688H209.812C209.979 68.9688 210.094 68.9583 210.156 68.9375L214.188 68.375V67.5625C214.188 66.5417 214.167 65.75 214.125 65.1875C214.104 64.7083 214.052 64.3229 213.969 64.0312C213.906 63.6979 213.99 63.5312 214.219 63.5312C214.385 63.5312 214.604 63.5938 214.875 63.7188C215.208 63.8854 215.406 64.0312 215.469 64.1562C215.531 64.2604 215.552 64.4271 215.531 64.6562C215.49 65.0312 215.469 65.5938 215.469 66.3438L215.5 68.7188C215.5 69.2188 215.406 69.6146 215.219 69.9062C215.115 70.0312 215.01 70.0938 214.906 70.0938C214.802 70.0938 214.656 70 214.469 69.8125C214.427 69.7708 214.375 69.7083 214.312 69.625C214.25 69.5417 214.188 69.4896 214.125 69.4688C214.062 69.4479 213.979 69.4375 213.875 69.4375C213.396 69.4792 212.24 69.6354 210.406 69.9062C210.094 69.9479 209.844 70.0312 209.656 70.1562C209.448 70.2604 209.312 70.3125 209.25 70.3125L209.156 70.2812ZM212.656 82.9375C212.01 82.9375 211.51 82.9167 211.156 82.875C210.823 82.8333 210.542 82.7083 210.312 82.5C209.917 82.2083 209.646 81.5729 209.5 80.5938L209.406 79.5938C209.406 79.3438 209.385 79.0312 209.344 78.6562C209.01 78.6979 208.771 78.7396 208.625 78.7812C208.583 78.8021 208.51 78.8333 208.406 78.875C208.323 78.8958 208.26 78.9062 208.219 78.9062C208.073 78.9062 207.938 78.8646 207.812 78.7812C207.688 78.6979 207.531 78.5417 207.344 78.3125C207.198 78.125 207.125 78 207.125 77.9375C207.125 77.875 207.198 77.8333 207.344 77.8125C207.49 77.7917 207.688 77.7812 207.938 77.7812C208.292 77.7812 208.75 77.7396 209.312 77.6562L209.281 77.2188C209.281 76.3854 209.229 75.6771 209.125 75.0938L209.094 74.875C209.094 74.5833 209.208 74.4688 209.438 74.5312C209.688 74.6146 209.917 74.7188 210.125 74.8438C210.292 74.9271 210.406 75.0104 210.469 75.0938C210.531 75.1562 210.552 75.25 210.531 75.375L210.438 76.7188V77.5312L213.188 77.25C213.188 77.1042 213.198 76.7604 213.219 76.2188C213.24 75.6562 213.24 75.2917 213.219 75.125C213.219 74.9583 213.198 74.8021 213.156 74.6562C213.135 74.4896 213.115 74.3542 213.094 74.25C213.094 74.0833 213.177 74 213.344 74C213.51 74 213.719 74.0938 213.969 74.2812C214.26 74.4688 214.448 74.6354 214.531 74.7812C214.635 74.9271 214.656 75.1042 214.594 75.3125C214.49 75.6458 214.417 76.0208 214.375 76.4375C214.333 76.8542 214.312 77.1042 214.312 77.1875C214.562 77.1667 214.792 77.1354 215 77.0938C215.208 77.0521 215.344 77.0312 215.406 77.0312C215.573 76.9896 215.771 76.9688 216 76.9688C216.125 76.9896 216.302 77.1146 216.531 77.3438C216.719 77.5938 216.812 77.7917 216.812 77.9375C216.812 78.1458 216.615 78.2292 216.219 78.1875C215.865 78.125 215.51 78.0938 215.156 78.0938C214.802 78.0938 214.5 78.1042 214.25 78.125C214.188 78.875 214.062 79.6146 213.875 80.3438C213.833 80.5104 213.76 80.6562 213.656 80.7812C213.552 80.8854 213.458 80.9375 213.375 80.9375C213.229 80.9375 213.135 80.8854 213.094 80.7812C213.073 80.6562 213.062 80.4688 213.062 80.2188C213.104 79.6771 213.125 79 213.125 78.1875C212.562 78.2292 212.125 78.2708 211.812 78.3125C211.333 78.4167 210.885 78.4792 210.469 78.5C210.448 79.3542 210.49 80.1146 210.594 80.7812C210.656 81.2188 210.781 81.5208 210.969 81.6875C211.094 81.7917 211.24 81.8542 211.406 81.875C211.594 81.8958 211.781 81.9062 211.969 81.9062C212.156 81.9062 212.281 81.9062 212.344 81.9062C212.99 81.9062 213.594 81.875 214.156 81.8125C214.323 81.7917 214.469 81.75 214.594 81.6875C214.74 81.625 214.844 81.5938 214.906 81.5938C215.094 81.5938 215.281 81.6562 215.469 81.7812C215.656 81.9062 215.75 82.0521 215.75 82.2188C215.75 82.3854 215.656 82.5104 215.469 82.5938C215.302 82.6771 215.031 82.75 214.656 82.8125C213.99 82.8958 213.323 82.9375 212.656 82.9375ZM217.562 71.2188C217.667 71.2188 217.823 71.2917 218.031 71.4375C218.01 71.4792 218.052 71.5625 218.156 71.6875C218.26 71.7917 218.333 71.8646 218.375 71.9062C218.479 72.0104 218.583 72.1354 218.688 72.2812C218.812 72.4271 218.948 72.5833 219.094 72.75C219.469 73.1458 220.333 74.1771 221.688 75.8438C221.917 76.1771 222.031 76.375 222.031 76.4375C222.031 76.6458 221.906 76.75 221.656 76.75C221.51 76.75 221.354 76.6458 221.188 76.4375C220.792 76.0208 220.083 75.3646 219.062 74.4688C218.271 73.7396 217.552 73.1771 216.906 72.7812C216.594 72.6354 216.438 72.4688 216.438 72.2812C216.438 72.1354 216.594 71.9271 216.906 71.6562C217.198 71.3646 217.417 71.2188 217.562 71.2188ZM185.406 76.3438C184.885 78.5729 184.062 80.4583 182.938 82C181.812 83.5208 180.344 85.0104 178.531 86.4688C178.094 86.8229 177.74 87 177.469 87C177.323 87 177.25 86.9271 177.25 86.7812C177.25 86.5729 177.417 86.2917 177.75 85.9375C179.479 84.0208 180.792 82.1979 181.688 80.4688C182.604 78.7396 183.229 76.8438 183.562 74.7812C183.917 72.6979 184.094 70.0833 184.094 66.9375V64C184.094 62.8542 183.99 61.9688 183.781 61.3438C183.719 61.1771 183.688 61.0312 183.688 60.9062C183.688 60.7396 183.781 60.6562 183.969 60.6562C184.302 60.6562 185.031 60.9375 186.156 61.5L197.312 60.8438L197.656 60.8125C198.01 60.8125 198.323 60.9583 198.594 61.25C198.865 61.5208 199 61.7604 199 61.9688C199 62.0521 198.969 62.1771 198.906 62.3438C198.844 62.5104 198.812 62.6458 198.812 62.75L198.969 84.4062L199 85.4688C199 85.9062 198.896 86.2708 198.688 86.5625C198.5 86.8542 198.281 87.0625 198.031 87.1875C197.781 87.3333 197.573 87.4062 197.406 87.4062C197.031 87.4062 196.396 87.0833 195.5 86.4375C194.604 85.8125 193.771 85.125 193 84.375C192.229 83.6458 191.844 83.1458 191.844 82.875C191.844 82.75 191.917 82.6875 192.062 82.6875C192.292 82.6875 192.635 82.8229 193.094 83.0938C194.24 83.7812 195.51 84.3646 196.906 84.8438L196.844 75.875L185.406 76.3438ZM196.844 74.1562L196.812 69.2812L186.094 69.6875C186.01 71.9375 185.885 73.5833 185.719 74.625L196.844 74.1562ZM196.812 67.4688L196.781 62.6875L186.219 63.3438L186.156 68L196.812 67.4688Z" fill="#333333"/>
<path d="M256.469 74.4062C256.24 74.4062 255.958 74.2292 255.625 73.875C255.375 73.625 255.25 73.4375 255.25 73.3125C255.25 73.25 255.292 73.2188 255.375 73.2188C255.458 73.1979 255.562 73.1875 255.688 73.1875L256.375 73.1562C256.771 73.1562 257.031 73.1458 257.156 73.125C257.552 73.125 257.885 73.1146 258.156 73.0938C259.948 72.9271 261.156 72.7917 261.781 72.6875C262.094 72.6458 262.375 72.6042 262.625 72.5625C262.875 72.5 263.073 72.4688 263.219 72.4688C263.51 72.4688 263.802 72.6146 264.094 72.9062C264.323 73.1354 264.438 73.3229 264.438 73.4688C264.438 73.5938 264.365 73.6771 264.219 73.7188C264.115 73.7396 263.5 73.7812 262.375 73.8438C261.75 73.8646 260.979 73.9167 260.062 74C259.146 74.0833 258.344 74.1667 257.656 74.25C257.531 74.2708 257.354 74.3021 257.125 74.3438C256.896 74.3854 256.677 74.4062 256.469 74.4062ZM227.625 74C227.396 74.0208 227.115 74.0312 226.781 74.0312C226.365 74.0312 226.052 73.9583 225.844 73.8125C225.615 73.625 225.385 73.3125 225.156 72.875C224.948 72.4375 224.844 72.1458 224.844 72C224.844 71.875 224.896 71.8125 225 71.8125L225.25 71.875C225.625 71.9792 226.021 72.0312 226.438 72.0312L227 72L249.156 70.875C249.656 70.8333 250.094 70.7396 250.469 70.5938C250.51 70.5729 250.573 70.5625 250.656 70.5625C250.823 70.5625 251.052 70.6562 251.344 70.8438C251.656 71.0312 251.927 71.2604 252.156 71.5312C252.385 71.7812 252.5 72.0104 252.5 72.2188C252.5 72.5312 252.26 72.7083 251.781 72.75L227.625 74Z" fill="#333333"/>
<path d="M305.438 77.8125C305.312 77.8125 305.135 77.7188 304.906 77.5312C304.781 77.4479 304.677 77.3646 304.594 77.2812C304.51 77.1979 304.469 77.125 304.469 77.0625L304.5 76.5625C304.521 76.375 304.531 75.9583 304.531 75.3125C304.51 74.8542 304.5 73.8958 304.5 72.4375C304.5 71.8542 304.448 71.3229 304.344 70.8438C304.344 70.8438 304.302 70.5938 304.219 70.0938V70C304.219 69.8125 304.344 69.7604 304.594 69.8438C304.698 69.8646 304.938 69.9062 305.312 69.9688C305.708 69.9062 307.031 69.75 309.281 69.5C309.594 69.4583 309.844 69.4167 310.031 69.375C310.219 69.3333 310.354 69.3021 310.438 69.2812H310.562C310.792 69.2812 311 69.3958 311.188 69.625C311.521 70.0208 311.656 70.3021 311.594 70.4688C311.51 70.6771 311.427 71.0312 311.344 71.5312C311.302 71.8229 311.25 72.3229 311.188 73.0312V74.4688V76.75C311.188 76.9375 311.094 77.1875 310.906 77.5C310.865 77.6042 310.781 77.6875 310.656 77.75C310.552 77.8125 310.438 77.8438 310.312 77.8438C310.188 77.8438 310.094 77.8125 310.031 77.75C309.99 77.7083 309.948 77.6667 309.906 77.625C309.865 77.5625 309.823 77.5208 309.781 77.5C309.76 77.4792 309.719 77.4688 309.656 77.4688C308.365 77.4688 307.198 77.5521 306.156 77.7188C306.073 77.7396 305.99 77.75 305.906 77.75C305.844 77.75 305.781 77.7604 305.719 77.7812L305.5 77.8125H305.438ZM306.031 76.6562C306.552 76.6354 307.26 76.5729 308.156 76.4688C308.573 76.4271 308.812 76.4062 308.875 76.4062H309.125C309.458 76.4062 309.708 76.4688 309.875 76.5938C310.021 75.5521 310.094 73.6458 310.094 70.875C310.052 70.5625 309.927 70.4062 309.719 70.4062C309.323 70.4062 308.521 70.4792 307.312 70.625C307.188 70.625 307.062 70.6354 306.938 70.6562C306.812 70.6771 306.688 70.6979 306.562 70.7188C306.208 70.7812 305.948 70.8125 305.781 70.8125C305.635 70.8125 305.583 70.8854 305.625 71.0312L305.594 72.0938C305.573 72.2396 305.562 72.375 305.562 72.5C305.583 72.625 305.594 72.7396 305.594 72.8438C305.615 73.0104 305.625 73.2812 305.625 73.6562C305.625 75.2812 305.635 76.1771 305.656 76.3438C305.656 76.4896 305.698 76.5833 305.781 76.625C305.865 76.6667 305.948 76.6771 306.031 76.6562ZM308.344 74.9062C308.115 74.9062 307.938 74.7917 307.812 74.5625C307.375 73.8333 306.969 73.2292 306.594 72.75L306.375 72.4062C306.292 72.2812 306.25 72.1875 306.25 72.125C306.271 72.0417 306.323 72.0104 306.406 72.0312C306.948 72.1979 307.448 72.4688 307.906 72.8438C308.615 73.3854 308.969 73.8021 308.969 74.0938C308.969 74.2396 308.927 74.3854 308.844 74.5312C308.698 74.7812 308.531 74.9062 308.344 74.9062ZM313.562 66.5312C313.667 66.5312 313.823 66.6042 314.031 66.75C314.01 66.7917 314.052 66.875 314.156 67C314.26 67.1042 314.333 67.1771 314.375 67.2188C314.479 67.3229 314.583 67.4479 314.688 67.5938C314.812 67.7396 314.948 67.8958 315.094 68.0625C315.469 68.4583 316.333 69.4896 317.688 71.1562C317.917 71.4896 318.031 71.6875 318.031 71.75C318.031 71.9583 317.906 72.0625 317.656 72.0625C317.51 72.0625 317.354 71.9583 317.188 71.75C316.792 71.3333 316.083 70.6771 315.062 69.7812C314.271 69.0521 313.552 68.4896 312.906 68.0938C312.594 67.9479 312.438 67.7812 312.438 67.5938C312.438 67.4479 312.594 67.2396 312.906 66.9688C313.198 66.6771 313.417 66.5312 313.562 66.5312ZM280.688 85.625V85.7812C280.688 86.3021 280.521 86.5625 280.188 86.5625C280.021 86.5625 279.792 86.5 279.5 86.375C279.208 86.25 278.948 86.0729 278.719 85.8438C278.51 85.6354 278.406 85.4062 278.406 85.1562L278.438 84.9375C278.5 84.5 278.531 84.0208 278.531 83.5V82.875L278.031 64.4062C278.01 64.0729 277.958 63.7188 277.875 63.3438C277.792 62.9479 277.677 62.625 277.531 62.375C277.385 62.0833 277.312 61.875 277.312 61.75C277.312 61.5833 277.427 61.5 277.656 61.5C278.073 61.5 278.844 61.7604 279.969 62.2812L293.75 61.5625H293.969C294.281 61.5625 294.615 61.6875 294.969 61.9375C295.323 62.1667 295.5 62.4375 295.5 62.75C295.5 62.8542 295.479 62.9688 295.438 63.0938C295.396 63.2188 295.365 63.3229 295.344 63.4062L294.469 82C295.052 82.7292 295.344 83.2292 295.344 83.5C295.344 83.6458 295.271 83.7396 295.125 83.7812C294.979 83.8229 294.719 83.8542 294.344 83.875L280.656 84.3438L280.688 85.625ZM280.281 72.0938L292.875 71.4688L293.188 63.4688L280.062 64.1562L280.281 72.0938ZM280.594 82.4688L292.469 82.0938L292.812 73.375L280.344 73.9375L280.594 82.4688Z" fill="#333333"/>
</svg>
