<svg xmlns="http://www.w3.org/2000/svg" width="350" height="88" fill="none"><path fill="#333" d="M158.934 8.2c-.164 0-.082-.141.246-.423l1.195-1.02c.469-.421.996-.972 1.582-1.652.375-.445.656-.914.844-1.406.117-.281.246-.422.387-.422.117 0 .292.094.527.282.469.375.703.691.703.949 0 .164-.094.281-.281.351-.094.024-.235.13-.422.317a9.14 9.14 0 0 0-.422.386c-1.008.985-1.945 1.7-2.813 2.145-.703.328-1.171.492-1.406.492h-.14Zm3.691 6.538c-.07 0-.187-.093-.352-.281a2.99 2.99 0 0 1-.316-.598 2.004 2.004 0 0 1 0-.527c.047-.234.07-.41.07-.527.047-.47.071-.844.071-1.125a5.16 5.16 0 0 0 0-.844v-.598l-.036-.527c-.562.398-.996.68-1.3.844-.68.375-1.172.61-1.477.703-.375.14-.715.21-1.019.21-.164 0-.258-.023-.282-.07-.046-.093.422-.433 1.407-1.02.937-.585 1.957-1.358 3.058-2.32.61-.562 1.078-1.101 1.406-1.617a.77.77 0 0 0 .106-.246c.047-.117.094-.187.141-.21.07-.024.164-.012.281.035.305.164.562.398.773.703a.562.562 0 0 1 .141.351c0 .117-.059.235-.176.352a1.396 1.396 0 0 1-.351.21c-.399.259-.762.54-1.09.844-.328.305-.539.504-.633.598.351.281.527.48.527.598l-.105.738c-.047.211-.071.738-.071 1.582 0 .82.024 1.371.071 1.652v.07a.868.868 0 0 1-.106.387c-.047.118-.082.2-.105.247-.164.257-.375.386-.633.386Zm3.586 8.93c-.352 0-.691-.258-1.02-.773-.421-.657-.832-1.196-1.23-1.618l-.914-.949a14.424 14.424 0 0 1-1.301 1.336 6.992 6.992 0 0 1-1.336.95c-1.008.585-1.851.878-2.531.878-.164 0-.246-.058-.246-.176 0-.07.222-.222.668-.457a7.422 7.422 0 0 0 1.265-.843c1.008-.844 1.84-1.711 2.496-2.602-.14-.14-.843-.75-2.109-1.828-.164-.117-.41-.316-.738-.598a9.494 9.494 0 0 1-.422-.316c-.211-.164-.316-.281-.316-.352 0-.117.058-.175.175-.175.352 0 .914.246 1.688.738a25.67 25.67 0 0 1 2.426 1.687 6.91 6.91 0 0 0 .773-1.125c.188-.351.399-.785.633-1.3a2.41 2.41 0 0 0 .211-.668c.023-.211.035-.34.035-.387 0-.258.07-.387.211-.387.164 0 .387.129.668.387.492.469.738.785.738.95 0 .093-.058.198-.176.316-.281.28-.539.656-.773 1.124-.141.282-.398.68-.774 1.196-.117.14-.21.27-.281.387-.07.117-.14.222-.211.316.539.398 1.336 1.078 2.391 2.039.258.234.422.457.492.668.094.187.141.445.141.773 0 .235-.059.434-.176.598a.567.567 0 0 1-.457.211Zm.633 4.64c.258.282.386.516.386.704 0 .164-.093.316-.281.457-.117.093-.41.61-.879 1.547-.515.843-1.09 1.57-1.722 2.18-.61.632-1.219 1.09-1.828 1.37-.141.047-.258.07-.352.07-.094 0-.141-.023-.141-.07v-.07c0-.14.118-.305.352-.492.422-.328.738-.668.949-1.02l.527-.738c.493-.703.844-1.277 1.055-1.723a4.19 4.19 0 0 0 .492-1.23h-.14c-.61 0-1.594.07-2.953.21-.211.024-.821.106-1.829.247-.21.023-.539.082-.984.176l-.422.105a.623.623 0 0 1-.281.07.946.946 0 0 1-.352-.07 3.198 3.198 0 0 1-.351-.246c-.281-.234-.422-.433-.422-.598.023-.046.047-.117.07-.21a.567.567 0 0 0 .071-.247l.175-1.16c.024-.117.047-.246.071-.386a2.61 2.61 0 0 0 .035-.422c0-.446-.012-.797-.035-1.055a3.87 3.87 0 0 0-.106-.879v-.105c0-.164.071-.246.211-.246.141 0 .387.105.738.316.469.328.704.586.704.773 0 .07-.012.13-.036.176a9.186 9.186 0 0 1-.07.14c-.07.423-.105.657-.105.704l-.176 1.863a.34.34 0 0 0 .07.176c.07.047.141.07.211.07.563 0 1.828-.14 3.797-.422.773-.07 1.324-.152 1.652-.246.211-.023.387-.058.528-.105.164-.07.269-.106.316-.106a1.15 1.15 0 0 1 .281-.07c.211 0 .469.188.774.563Zm-22.606-6.855c.258 0 .504.07.739.211a36.808 36.808 0 0 1-2.778-3.48l-7.137.351a29.799 29.799 0 0 1-2.32 3.164c.281.07.645.176 1.09.317l10.195-.563h.211Zm-22.429 7.91c0-.21.257-.504.773-.879 4.266-2.882 7.606-6.152 10.02-9.808l-6.469.316-.844.035c-.211 0-.363-.011-.457-.035-.211 0-.375-.058-.492-.176-.539-.445-.867-.949-.985-1.511a.398.398 0 0 1-.035-.176c0-.164.071-.246.211-.246l.176.035a6.07 6.07 0 0 0 1.477.176h.281l8.332-.422.211-.387c.375-.68.773-1.535 1.195-2.566l-3.129.176c-.211.023-.48.035-.808.035-.493 0-.891-.13-1.196-.387-.304-.258-.515-.527-.632-.809-.118-.304-.176-.504-.176-.597 0-.117.07-.176.211-.176l.175.035c.422.07.856.106 1.301.106h.457l4.465-.282c.211-.586.445-1.43.703-2.53l-6.961.456a6.186 6.186 0 0 1-.738.035c-.469 0-.891-.105-1.266-.316-.375-.211-.691-.656-.949-1.336l-.035-.211c0-.164.094-.246.281-.246l.176.035c.656.094 1.16.14 1.512.14h.351l7.981-.492c.211-1.125.316-1.898.316-2.32 0-.469-.082-.879-.246-1.23-.07-.188-.105-.317-.105-.387 0-.211.14-.316.421-.316.352 0 .833.093 1.442.28.633.188.949.516.949.985l-.035.352a79.581 79.581 0 0 1-.422 2.496l7.137-.457c.258-.024.738-.14 1.441-.352.141-.047.235-.07.281-.07.329 0 .727.223 1.196.668.492.422.738.762.738 1.02 0 .257-.258.41-.773.456l-10.407.668a177.6 177.6 0 0 1-.632 2.532l5.589-.317a6.484 6.484 0 0 0 1.336-.246c.141-.047.246-.07.317-.07.281 0 .644.2 1.09.598.468.398.703.714.703.949 0 .14-.645.281-1.934.422-1.266.14-3.844.328-7.734.562a29.037 29.037 0 0 1-1.336 2.988l13.957-.703a4.85 4.85 0 0 0 1.512-.316c.046-.024.14-.035.281-.035.234 0 .492.105.773.316.305.211.563.457.774.738.211.258.316.446.316.563 0 .281-.269.445-.809.492l-8.578.422a30.768 30.768 0 0 0 4.641 4.746c1.664 1.36 3.551 2.531 5.66 3.516.469.21.703.398.703.562 0 .117-.117.305-.351.563a4.41 4.41 0 0 1-.774.668c-.281.187-.539.28-.773.28-.164 0-.645-.222-1.442-.667-.773-.445-1.722-1.102-2.847-1.969-1.102-.867-2.239-1.91-3.41-3.129a.398.398 0 0 1 .035.176c0 .07-.035.188-.106.352a1.15 1.15 0 0 0-.07.351l-.492 7.805c.609.773.914 1.312.914 1.617 0 .188-.094.305-.281.352-.164.047-.422.07-.774.07l-10.793.281.035.88v.105c0 .468-.222.703-.668.703-.304 0-.668-.117-1.089-.352-.422-.234-.633-.586-.633-1.055v-.14c0-.235.023-.563.07-.985a9.36 9.36 0 0 0 .07-.949v-.316l-.492-7.664c0-.14-.012-.27-.035-.387l-.07-.352c-1.289 1.36-2.614 2.52-3.973 3.48-1.336.962-2.519 1.7-3.551 2.216-1.008.515-1.629.773-1.863.773-.211 0-.316-.07-.316-.21Zm12.129-2.672 9.421-.351.106-2.883-9.668.457.141 2.777Zm.281 4.922 8.929-.21.141-3.2-9.246.352.176 3.058ZM219.121 14.387c-.164 0-.34-.106-.527-.317a2.153 2.153 0 0 1-.282-.386c-.046-.118-.046-.27 0-.457l.036-.844c.023-.164.035-.563.035-1.195v-1.16l-1.055.492-1.23.527a10.87 10.87 0 0 0-.95.422c-.281.14-.527.21-.738.21a2.173 2.173 0 0 1-.562-.175 4.837 4.837 0 0 1-.493-.246c-.257-.164-.375-.34-.351-.527l.105-.352c0-.188.012-.352.036-.492l.035-2.04V5.95c0-.375-.024-.691-.071-.949-.047-.281-.082-.48-.105-.598 0-.117.035-.199.105-.246.024-.023.082-.035.176-.035.164 0 .481.106.949.316.399.188.563.422.493.704-.047.164-.094.41-.141.738l-.106 4.043c0 .117.012.21.036.281.046.047.093.07.14.07.282 0 .621-.082 1.02-.246.75-.234 1.394-.468 1.933-.703l.774-.316v-2.32c0-.938-.059-1.84-.176-2.708a.792.792 0 0 1-.035-.246c0-.234.094-.351.281-.351.024 0 .152.047.387.14.351.188.609.352.773.493.164.14.258.222.282.246.093.07.14.14.14.21a.34.34 0 0 1-.07.176c-.024.07-.047.13-.07.176l-.106 1.055-.035 3.234.035 3.13a8.23 8.23 0 0 1-.105 1.405c-.118.493-.305.739-.563.739Zm-6.469 5.765c-.257 0-.574-.199-.949-.597-.281-.282-.422-.492-.422-.633 0-.07.047-.106.141-.106a1.48 1.48 0 0 1 .351-.035l.774-.035c.445 0 .738-.012.879-.035.445 0 .82-.012 1.125-.035 2.015-.188 3.375-.34 4.078-.457a29.8 29.8 0 0 0 .949-.14c.281-.071.504-.106.668-.106.328 0 .656.164.984.492.258.258.387.469.387.633 0 .14-.082.234-.246.28-.117.024-.809.071-2.074.142-.703.023-1.57.082-2.602.175a92.491 92.491 0 0 0-2.707.282c-.14.023-.34.058-.597.105-.258.047-.504.07-.739.07Zm4.711 14.52c-.726 0-1.289-.024-1.687-.07a1.68 1.68 0 0 1-.949-.422c-.446-.328-.75-1.043-.915-2.145l-.105-1.125c0-.281-.023-.633-.07-1.055a5.987 5.987 0 0 0-.809.141 3.817 3.817 0 0 1-.246.106.965.965 0 0 1-.211.035.81.81 0 0 1-.457-.14c-.141-.095-.316-.27-.527-.528-.164-.211-.246-.352-.246-.422s.082-.117.246-.14c.164-.024.386-.036.668-.036.398 0 .914-.047 1.547-.14l-.036-.493c0-.937-.058-1.734-.175-2.39l-.036-.246c0-.329.129-.457.387-.387.281.094.539.21.774.351.187.094.316.188.386.282.071.07.094.175.071.316l-.106 1.512v.914l3.094-.317c0-.164.012-.55.035-1.16.024-.633.024-1.043 0-1.23 0-.188-.023-.363-.07-.527a6.529 6.529 0 0 0-.071-.458c0-.187.094-.28.282-.28.187 0 .422.105.703.316.328.21.539.398.633.562.117.164.14.363.07.598a6.4 6.4 0 0 0-.246 1.265c-.047.47-.07.75-.07.844.281-.023.539-.058.773-.105.234-.047.387-.07.457-.07.188-.047.41-.071.668-.071.141.023.34.164.598.422.211.281.316.504.316.668 0 .234-.223.328-.668.281a6.863 6.863 0 0 0-1.195-.105c-.399 0-.738.011-1.02.035-.07.844-.211 1.676-.422 2.496a.953.953 0 0 1-.246.457c-.117.14-.222.21-.316.21-.164 0-.27-.07-.317-.21a3.524 3.524 0 0 1-.035-.598c.047-.61.071-1.37.071-2.285a26.99 26.99 0 0 0-1.477.14 9.357 9.357 0 0 1-1.512.212c-.023.96.024 1.816.141 2.566.07.492.211.832.422 1.02.14.117.305.187.492.21.211.024.422.036.633.036h.422c.726 0 1.406-.035 2.039-.106a1.52 1.52 0 0 0 .492-.14c.164-.07.281-.106.352-.106.21 0 .421.07.632.211.211.14.317.305.317.492 0 .188-.106.328-.317.422-.187.094-.492.176-.914.246-.75.094-1.5.14-2.25.14Zm10.02-15.996c.281 0 .422.129.422.387 0 .14-.129.34-.387.597-.703.867-2.098 2.52-4.184 4.957-.164.211-.316.317-.457.317-.117 0-.375-.176-.773-.528-.328-.281-.492-.515-.492-.703 0-.21.176-.41.527-.598.539-.304 1.348-.914 2.426-1.828 1.078-.96 1.875-1.722 2.39-2.285.211-.21.387-.316.528-.316Zm-44.684 11.496c2.086-.656 3.949-1.371 5.59-2.145a25.586 25.586 0 0 0-1.336-1.687c-.187-.235-.281-.422-.281-.563 0-.258.152-.48.457-.668.305-.21.539-.316.703-.316.188 0 .387.117.598.352a137.853 137.853 0 0 1 3.41 4.148c.937 1.195 1.406 1.922 1.406 2.18 0 .21-.164.457-.492.738-.305.305-.598.457-.879.457-.234 0-.469-.188-.703-.563a96.435 96.435 0 0 0-1.828-2.671l-4.219 2.109c-.469.21-1.207.586-2.215 1.125-.844.445-1.359.668-1.547.668-.14 0-.316-.094-.527-.281a1.65 1.65 0 0 1-.492-.633c-.094-.234-.094-.422 0-.563.14-.257.211-1.289.211-3.093V16.602c0-.563-.024-1.02-.071-1.372a3.587 3.587 0 0 0-.281-1.125 1.37 1.37 0 0 0-.07-.175.305.305 0 0 1-.035-.14c0-.118.082-.177.246-.177.304 0 1.066.258 2.285.774l7.629-.528c.187-.023.398-.035.633-.035.257 0 .562.117.914.352.351.21.527.445.527.703 0 .094-.059.234-.176.422-.094.187-.14.328-.14.422l-.914 6.609c.562.656.843 1.102.843 1.336 0 .117-.07.2-.211.246-.117.047-.304.07-.562.07l-8.508.317.035 5.87Zm-5.765-15.785c0-.235.152-.516.457-.844 1.711-1.898 3.199-3.785 4.464-5.66 1.266-1.875 1.899-3.13 1.899-3.762l-.035-.246V3.77c0-.329.129-.493.386-.493.305 0 .727.211 1.266.633.563.399.844.727.844.985 0 .117-.059.27-.176.457a23.895 23.895 0 0 1-1.16 1.687l4.992-.387a4.872 4.872 0 0 0 1.336-.28c.141-.048.246-.071.316-.071.352 0 .727.199 1.125.597.422.375.633.668.633.88 0 .28-.258.445-.773.492l-6.012.421c.164.047.527.293 1.09.739.586.445 1.113.902 1.582 1.37.469.47.703.798.703.985 0 .211-.141.469-.422.774-.281.28-.527.421-.738.421-.188 0-.41-.152-.668-.457a21.787 21.787 0 0 0-2.426-2.285c-.281-.234-.422-.433-.422-.597 0-.118.059-.27.176-.457.117-.188.27-.34.457-.457l-2.355.175a34.406 34.406 0 0 1-3.727 3.903c-1.359 1.195-2.226 1.793-2.601 1.793-.141 0-.211-.07-.211-.211Zm12.656 3.656.246-2.461-7.242.492v2.32l6.996-.351Zm-.457 4.36.281-2.708-6.785.317v2.636l6.504-.246Zm1.898-9.528c0-.234.153-.516.457-.844 1.149-1.383 2.192-2.941 3.129-4.676.961-1.757 1.442-2.988 1.442-3.69v-.142c0-.351.129-.527.386-.527.164 0 .41.094.739.281.351.164.668.364.949.598.281.234.422.469.422.703 0 .211-.164.586-.493 1.125-.328.54-.503.82-.527.844l6.926-.563a6.483 6.483 0 0 0 1.336-.246c.047-.023.141-.035.281-.035.328 0 .68.188 1.055.563.398.351.597.644.597.879 0 .14-.07.257-.21.351-.118.07-.282.117-.493.14l-7.136.493c.656.422 1.429 1.043 2.32 1.863.891.797 1.336 1.336 1.336 1.617 0 .164-.129.422-.387.774-.258.328-.504.492-.738.492-.188 0-.387-.117-.598-.352-1.148-1.242-2.191-2.226-3.129-2.953-.234-.187-.351-.363-.351-.527 0-.188.176-.469.527-.844l-2.601.176c-.774 1.031-1.711 2.074-2.813 3.129-1.078 1.055-1.805 1.582-2.18 1.582-.164 0-.246-.07-.246-.211Zm3.305.773c0-.14.082-.21.246-.21.352 0 1.148.292 2.391.878l7.066-.597.281-.035c.094 0 .27.046.528.14.281.07.539.2.773.387.258.164.387.387.387.668 0 .094-.035.223-.106.387-.07.164-.105.28-.105.351a88.243 88.243 0 0 1-.492 8.262l-.071.879c-.07.984-.164 1.805-.281 2.46-.117.657-.316 1.173-.598 1.548-.445.609-.925.914-1.441.914s-1.172-.317-1.969-.95a18.576 18.576 0 0 1-2.215-2.074c-.656-.75-.984-1.23-.984-1.441 0-.164.094-.246.281-.246.211 0 .504.117.879.351.867.54 1.594.973 2.18 1.301.586.328 1.008.492 1.266.492.117 0 .199-.082.246-.246.539-3 .867-6.762.984-11.285l-6.609.492c0 3.961.035 10.242.105 18.844 0 .21-.058.363-.176.457a.466.466 0 0 1-.386.176c-.188 0-.411-.07-.668-.211-.446-.188-.762-.363-.95-.528-.187-.164-.281-.351-.281-.562l.035-.246c.141-.773.211-1.64.211-2.602l-.105-14.836c0-.609-.024-1.078-.07-1.406a3.306 3.306 0 0 0-.211-.95c-.094-.28-.141-.468-.141-.562ZM67.594 68.219c-.271 0-.469-.094-.594-.281a3.672 3.672 0 0 0-.563-.657c-.166-.166-.468-.396-.906-.687l.094-.156c.958.333 1.635.5 2.031.5.334 0 .698-.188 1.094-.563.417-.396.77-.958 1.063-1.688.145-.333.25-.604.312-.812.083-.23.146-.48.188-.75v-.063c0-.187-.094-.28-.282-.28-.208 0-.583.062-1.125.187-.291.083-.677.208-1.156.375l-.25-.063a.726.726 0 0 0-.156-.093 1.238 1.238 0 0 1-.156-.188c-.105-.104-.157-.177-.157-.219L67 62.656c0-.146.073-.281.219-.406.166-.125.26-.219.281-.281.167-.188.5-.646 1-1.375a2.72 2.72 0 0 0 .219-.282c.104-.166.156-.312.156-.437 0-.146-.615-.042-1.844.313-1.25.374-1.906.562-1.969.562-.208 0-.427-.177-.656-.531-.166-.167-.25-.302-.25-.407 0-.145.209-.229.625-.25.48-.02 1.219-.104 2.219-.25 1.02-.145 1.625-.24 1.813-.28l.437-.126a.694.694 0 0 1 .219-.031c.062 0 .156.042.281.125.146.083.27.146.375.188.27.124.427.27.469.437v.094c0 .187-.104.385-.313.593-.083.084-.25.26-.5.532-.25.25-.406.416-.469.5-.083.083-.208.218-.374.406-.167.188-.26.302-.282.344 0 .062.021.104.063.125.041.02.094.031.156.031a12.923 12.923 0 0 0 1.531-.281l.5-.157c.23 0 .396.084.5.25.188.209.313.386.375.532a.398.398 0 0 1 0 .375.785.785 0 0 1-.094.187 2.057 2.057 0 0 0-.124.219l-.126.25c-.062.125-.104.25-.124.375-.376 1.083-.823 2.01-1.344 2.781a4.96 4.96 0 0 1-.969.906c-.48.355-.948.532-1.406.532Zm3.594 8.375c-.313 0-.615-.23-.907-.688a9.89 9.89 0 0 0-1.094-1.437l-.812-.844c-.438.5-.823.896-1.156 1.188a6.227 6.227 0 0 1-1.188.843c-.896.521-1.646.781-2.25.781-.146 0-.218-.052-.218-.156 0-.062.197-.198.593-.406a6.6 6.6 0 0 0 1.125-.75c.896-.75 1.636-1.52 2.219-2.313-.125-.124-.75-.666-1.875-1.624a10.656 10.656 0 0 1-.656-.532 8.042 8.042 0 0 1-.375-.281c-.188-.146-.281-.25-.281-.313 0-.104.052-.156.156-.156.312 0 .812.219 1.5.656.687.417 1.406.917 2.156 1.5.292-.354.52-.687.688-1 .166-.312.354-.697.562-1.156.104-.229.167-.427.188-.594.02-.187.03-.302.03-.343 0-.23.063-.344.188-.344.146 0 .344.115.594.344.438.416.656.698.656.844 0 .083-.052.177-.156.28-.25.25-.48.584-.688 1-.124.25-.354.605-.687 1.063-.104.125-.188.24-.25.344a3.281 3.281 0 0 1-.188.281c.48.354 1.188.959 2.126 1.813.229.208.374.406.437.594.083.166.125.395.125.687a.89.89 0 0 1-.156.531.504.504 0 0 1-.406.188Zm-6.907 9.344c-.312 0-.552-.084-.719-.25-.187-.188-.28-.355-.28-.5 0-.146.083-.303.25-.47.02-.02.135-.187.343-.5.458-.728.98-1.656 1.563-2.78.604-1.146.979-1.928 1.124-2.344.126-.396.24-.74.344-1.031.125-.292.23-.438.313-.438.146 0 .27.052.375.156.104.084.208.209.312.375.125.146.219.25.281.313.146.166.22.323.22.469a.5.5 0 0 1-.126.312 1.56 1.56 0 0 0-.156.219L66.75 81.78a63.754 63.754 0 0 1-1.406 2.406.5.5 0 0 0-.125.313c0 .083.094.125.281.125.396 0 1.135-.052 2.219-.156 1.083-.084 1.812-.156 2.187-.219.542-.063.917-.125 1.125-.188.23-.062.563.094 1 .47.521.437.636.718.344.843-.167.083-.49.125-.969.125h-1.25c-.27 0-.698.02-1.281.063-.354 0-.75.01-1.188.03-.437.022-.802.042-1.093.063-.334.021-.98.084-1.938.188l-.375.094Zm13.281-13.782c.25 0 .376.115.376.344 0 .125-.115.302-.344.531-.625.771-1.865 2.24-3.719 4.406-.146.188-.281.282-.406.282-.104 0-.334-.156-.688-.469-.291-.25-.437-.458-.437-.625 0-.188.156-.365.469-.531.479-.271 1.197-.813 2.156-1.625.958-.854 1.666-1.531 2.125-2.031.187-.188.344-.282.469-.282ZM39.657 70v.094c0 .354-.177.531-.531.531-.292 0-.594-.083-.906-.25-.313-.167-.469-.417-.469-.75l.031-.313c.021-.104.032-.24.032-.406 0-.146-.01-.312-.032-.5a5.425 5.425 0 0 0-.062-.437l-.563-4.438c-.083-.562-.218-.99-.406-1.281-.146-.23-.219-.385-.219-.469 0-.125.115-.187.344-.187.375 0 1.02.166 1.938.5l4.03-.219-.062-1.406a2.076 2.076 0 0 0-.437-1.188.388.388 0 0 1-.125-.281c0-.146.135-.219.406-.219.23 0 .51.063.844.188.396.146.656.281.781.406.125.104.198.25.219.438l.093 1.968 3.97-.218.03-1.47c0-.52-.114-.958-.343-1.312a.736.736 0 0 1-.094-.312c0-.167.125-.25.375-.25.104.02.302.073.594.156.312.063.604.177.875.344.27.166.406.375.406.625l-.094 2.125 4.782-.25.406-.032c.208 0 .448.105.718.313.292.208.438.417.438.625 0 .083-.02.177-.063.281a1.708 1.708 0 0 0-.093.219l-.844 4.906c.417.5.625.834.625 1 0 .125-.063.209-.188.25-.104.021-.312.042-.624.063l-15.844.719.062.437Zm-7.843 16.906c0-.187.187-.49.562-.906 3.104-3.396 4.688-7.74 4.75-13.031 0-.709-.063-1.25-.188-1.625-.083-.292-.124-.48-.124-.563 0-.166.083-.25.25-.25.312 0 .979.26 2 .781l14.093-.624c.584-.042 1.084-.136 1.5-.282.167-.041.282-.062.344-.062.23 0 .563.177 1 .531.438.333.656.615.656.844 0 .208-.24.333-.718.375L39 72.813a33.868 33.868 0 0 1-.563 4.812L55 76.906c.583-.041 1.083-.135 1.5-.281.167-.042.292-.063.375-.063.25 0 .5.094.75.282.25.166.458.364.625.594.167.208.25.364.25.468 0 .209-.24.334-.719.375l-10.468.438c1.145 1.187 2.114 2.052 2.906 2.594 2.166-.792 3.427-1.553 3.781-2.282.104-.229.24-.344.406-.344.188 0 .427.198.719.594.292.396.438.73.438 1 0 .209-.115.365-.344.469-1 .542-2.157 1.042-3.469 1.5 1.125.625 2.385 1.156 3.781 1.594 1.396.437 3.042.833 4.938 1.187.187.042.323.084.406.125.083.042.125.104.125.188 0 .062-.073.219-.219.469-.125.25-.281.468-.468.656-.188.208-.376.312-.563.312-.063 0-.177-.02-.344-.062-2.291-.542-4.229-1.125-5.812-1.75a20.375 20.375 0 0 1-4.344-2.375c-1.333-.98-2.646-2.24-3.938-3.781l-2.53.093-.157 5.688c1.354-.354 2.948-.813 4.781-1.375a2.86 2.86 0 0 1 .907-.156c.25 0 .374.062.374.187 0 .23-.364.552-1.093.969-.73.416-1.625.844-2.688 1.281-.479.208-.875.375-1.187.5-.313.146-.552.26-.719.344-.792.396-1.292.594-1.5.594-.208 0-.438-.178-.688-.532-.25-.354-.312-.625-.187-.812.083-.146.146-.563.188-1.25a26.29 26.29 0 0 0 .062-1.5L40.969 79l-2.875.125c-.521 1.667-1.209 3.104-2.063 4.313-.854 1.187-1.677 2.093-2.468 2.718-.792.625-1.303.938-1.532.938-.146 0-.218-.063-.218-.188Zm7.28-21.844L43 64.844l-.094-1.625-4 .218.188 1.626Zm.344 3.157 3.688-.188-.063-1.781-3.812.188.188 1.78Zm.75 6.062c0-.083.053-.125.157-.125.083 0 .156.01.218.031.417.105.823.157 1.22.157h.28l9.25-.438c.584-.041 1.084-.135 1.5-.281.167-.042.292-.063.376-.063.25 0 .5.094.75.282.25.166.458.364.624.594.167.208.25.364.25.468 0 .188-.24.302-.718.344l-11.438.563-.718.03c-.813 0-1.365-.395-1.657-1.187a1.2 1.2 0 0 1-.093-.375Zm4.5-9.5 3.75-.187.063-1.656-3.875.187.063 1.656Zm.157 3.188 3.531-.188.031-1.781-3.656.188.094 1.78Zm9.031-.438.25-1.812-4.031.187-.063 1.813 3.844-.188Zm.438-3.219.218-1.687-4.312.219-.063 1.656 4.157-.188ZM116.531 72c-.333 0-.541-.094-.625-.281a4.346 4.346 0 0 0-.312-.625c-.104-.188-.292-.406-.563-.656l.063-.126c.75.271 1.239.407 1.468.407.167 0 .292-.031.376-.094.083-.063.218-.208.406-.438.271-.291.521-.74.75-1.343.312-.896.51-1.823.594-2.781v-.094c0-.125-.021-.209-.063-.25-.271 0-.99.062-2.156.187-.646 1.604-1.396 2.927-2.25 3.969-.834 1.02-1.594 1.531-2.281 1.531-.167 0-.25-.062-.25-.187 0-.042.208-.281.624-.719.417-.438.876-1.01 1.376-1.719.52-.729 1.01-1.625 1.468-2.687-.104 0-.406.02-.906.062a6.51 6.51 0 0 0-1.281.219.495.495 0 0 1-.531.063l-.063-.032a.488.488 0 0 1-.125-.094 1.359 1.359 0 0 1-.375-.312.831.831 0 0 1-.125-.406c0-.063.052-.146.156-.25l.375-.5c.125-.167.24-.406.344-.719.104-.333.156-.615.156-.844 0-.146-.01-.24-.031-.281a.346.346 0 0 1-.031-.156c0-.104.052-.157.156-.157.125 0 .302.073.531.22.063.04.177.124.344.25.188.103.292.228.312.374 0 .146-.083.386-.25.719l-.406.719a.39.39 0 0 0-.062.219c0 .062.021.114.062.156a.39.39 0 0 0 .219 0l1.875-.25a11.01 11.01 0 0 0 .5-1.719v-.718c0-.23.062-.324.188-.282.27.063.489.146.656.25.312.188.468.344.468.469 0 .104-.041.281-.124.531-.063.23-.115.406-.157.531-.021.084-.114.354-.281.813.062 0 .448-.042 1.156-.125l.313-.063c.062 0 .177-.02.343-.062a.35.35 0 0 1 .157-.031c.25 0 .406.01.469.03.083.022.208.084.374.188.188.125.313.25.376.375.062.125.083.271.062.438l-.188 1.031-.218 1.125c0 .083-.073.354-.219.813a7.464 7.464 0 0 1-.5 1.218c-.354.709-.771 1.24-1.25 1.594-.417.333-.781.5-1.094.5Zm-4.062 7.094c-.229 0-.511-.177-.844-.531-.25-.25-.375-.438-.375-.563 0-.063.042-.094.125-.094.083-.02.187-.031.313-.031l.687-.031c.396 0 .656-.01.781-.031.396 0 .729-.01 1-.032 1.792-.166 3-.302 3.625-.406.313-.042.594-.083.844-.125.25-.063.448-.094.594-.094.291 0 .583.146.875.438.229.229.344.416.344.562 0 .125-.073.209-.219.25-.104.021-.719.063-1.844.125-.625.021-1.396.073-2.313.156-.916.084-1.718.167-2.406.25-.125.021-.302.053-.531.094a3.668 3.668 0 0 1-.656.063Zm9.093-7.875c.105 0 .261.073.469.219-.021.041.021.124.125.25l.219.218c.104.104.208.23.313.375.124.146.26.302.406.469.375.396 1.239 1.427 2.594 3.094.229.333.343.531.343.594 0 .208-.125.312-.375.312-.146 0-.302-.104-.468-.313-.396-.416-1.105-1.072-2.126-1.968-.791-.73-1.51-1.292-2.156-1.688-.312-.146-.468-.312-.468-.5 0-.146.156-.354.468-.625.292-.291.511-.437.656-.437ZM91.25 85.969v.062a.55.55 0 0 1-.156.406c-.084.105-.219.157-.406.157-.313 0-.636-.115-.97-.344-.333-.208-.5-.438-.5-.688v-.156c0-.146.011-.281.032-.406a1.76 1.76 0 0 0 .031-.344l-.031-.562-.313-6.188a4.853 4.853 0 0 0-.156-.875c-.062-.333-.125-.573-.187-.719-.146-.291-.219-.5-.219-.624 0-.126.094-.188.281-.188.271 0 .948.188 2.031.563l11.594-.532h.344c.292 0 .531.073.719.219.208.146.364.313.468.5.105.188.157.323.157.406a.599.599 0 0 1-.094.313 1.052 1.052 0 0 0-.125.281l-.531 6.313c.5.645.75 1.083.75 1.312 0 .146-.063.23-.188.25-.125.042-.333.063-.625.063l-11.937.25.031.53Zm-11.469 0c0-.209.094-.531.281-.969 1.063-2.333 1.865-4.604 2.407-6.813a40.692 40.692 0 0 0 1.062-6.78c.188-2.313.281-5.094.281-8.344 0-.605-.01-1.063-.03-1.376a3.8 3.8 0 0 0-.188-.968c-.084-.25-.125-.407-.125-.469 0-.146.073-.219.219-.219.27 0 .99.271 2.156.813l16.968-.938c.605-.02 1.136-.125 1.594-.312a.83.83 0 0 1 .375-.094c.229 0 .479.094.75.281.292.188.531.396.719.625.208.23.312.396.312.5 0 .271-.26.427-.781.469L85.812 62.5c0 1.833-.052 3.77-.156 5.813-.083 2.041-.24 3.78-.469 5.218-.458 2.98-1.072 5.417-1.843 7.313-.75 1.875-1.459 3.229-2.125 4.062-.667.854-1.104 1.281-1.313 1.281-.083 0-.125-.072-.125-.218Zm5.781-10.781c0-.209.178-.5.532-.876.646-.687 1.364-1.552 2.156-2.593a29.823 29.823 0 0 0 2.063-2.969l-1.907.156h-.25c-.458 0-.854-.125-1.187-.375-.313-.25-.469-.583-.469-1 0-.104.063-.156.188-.156l.312.063c.313.062.635.093.969.093h.219l2.75-.187c0-.854.01-1.459.03-1.813-.645.146-1.25.271-1.812.375-.562.104-.937.156-1.125.156-.396 0-.594-.083-.594-.25 0-.083.084-.177.25-.28.167-.126.407-.23.72-.313.916-.271 1.937-.646 3.062-1.125 1.146-.48 1.864-.938 2.156-1.375.104-.125.219-.188.344-.188.208 0 .406.104.594.313a2.5 2.5 0 0 1 .468.656c.146.23.219.396.219.5 0 .208-.073.333-.219.375-1.02.354-1.854.615-2.5.781v2.094l1.219-.094c.417-.041.76-.104 1.031-.187a.811.811 0 0 1 .25-.031c.23 0 .5.145.813.437.312.27.469.5.469.688 0 .208-.209.322-.626.343l-3.156.219v.563A.6.6 0 0 1 92.97 69c.125 0 .437.167.937.5.5.313.959.656 1.375 1.031.438.375.656.646.656.813 0 .208-.114.437-.343.687-.209.25-.386.375-.531.375-.146 0-.334-.114-.563-.344a20.389 20.389 0 0 0-1.969-1.718v4.5c0 .437-.156.656-.469.656-.145 0-.364-.063-.656-.188-.25-.124-.427-.25-.531-.374a.77.77 0 0 1-.125-.438c0-.167.01-.292.031-.375.084-.667.125-1.146.125-1.438l.031-.968c0-.417.042-.969.126-1.656-.23.541-.72 1.24-1.47 2.093-.75.834-1.52 1.573-2.312 2.219-.77.646-1.291.969-1.562.969-.104 0-.156-.052-.156-.156Zm5.313 4.656 10.781-.375.125-2.344-11.031.531.125 2.188Zm.25 4 10.281-.25.156-2.625-10.593.375.156 2.5Zm3.563-9.25c0-.209.197-.51.593-.906a30.787 30.787 0 0 0 4.375-5.376l-1.562.126h-.281c-.396 0-.688-.073-.876-.22-.354-.312-.593-.614-.718-.906a1.31 1.31 0 0 1-.063-.218c0-.104.073-.156.219-.156a.81.81 0 0 1 .25.03c.313.084.615.126.906.126l.344-.031 2.437-.157.063-1.969c-.083.021-.542.126-1.375.313-.813.188-1.427.281-1.844.281-.396 0-.594-.073-.594-.219 0-.083.094-.187.282-.312.208-.125.49-.24.844-.344.916-.291 1.99-.677 3.218-1.156 1.229-.5 1.99-.969 2.282-1.406.104-.167.229-.25.374-.25.271 0 .553.198.844.593.313.376.469.678.469.907a.413.413 0 0 1-.094.25c-.041.062-.083.093-.125.093a33.133 33.133 0 0 1-2.75.876 55.94 55.94 0 0 0-.031 2.25l2.219-.126c.229-.02.573-.093 1.031-.218a.946.946 0 0 1 .281-.031c.229 0 .511.124.844.374.333.23.5.49.5.782 0 .208-.24.333-.719.375l-4.156.25v.719c.375.124 1.115.53 2.219 1.218a59.587 59.587 0 0 1 3.156 2c.021.021.094.104.219.25.146.125.219.26.219.406 0 .126-.073.344-.219.657-.125.291-.292.448-.5.469h-.063c-.166 0-.354-.084-.562-.25-1.584-1.209-3.073-2.24-4.469-3.094l-.031 3.844c0 .25-.032.437-.094.562a.323.323 0 0 1-.312.188c-.313 0-.615-.115-.907-.344-.291-.23-.437-.48-.437-.75l.031-.313c.083-.666.125-1.146.125-1.437v-.875c0-.5.062-1.167.188-2-.459.833-1.084 1.656-1.876 2.469a19.243 19.243 0 0 1-2.312 2c-.75.52-1.219.78-1.406.78-.104 0-.156-.04-.156-.124ZM160.469 74.406c-.229 0-.511-.177-.844-.531-.25-.25-.375-.438-.375-.563 0-.062.042-.093.125-.093.083-.021.187-.031.313-.031l.687-.032c.396 0 .656-.01.781-.031.396 0 .729-.01 1-.031 1.792-.167 3-.302 3.625-.406.313-.042.594-.084.844-.126.25-.062.448-.093.594-.093.291 0 .583.146.875.437.229.23.344.417.344.563 0 .125-.073.208-.219.25-.104.02-.719.062-1.844.125-.625.02-1.396.073-2.313.156-.916.083-1.718.167-2.406.25-.125.02-.302.052-.531.094a3.676 3.676 0 0 1-.656.062ZM131.625 74c-.229.02-.51.031-.844.031-.416 0-.729-.073-.937-.219-.229-.187-.459-.5-.688-.937-.208-.438-.312-.73-.312-.875 0-.125.052-.188.156-.188l.25.063c.375.104.771.156 1.188.156L131 72l22.156-1.125c.5-.042.938-.135 1.313-.281a.43.43 0 0 1 .187-.031c.167 0 .396.093.688.28.312.188.583.417.812.688.229.25.344.48.344.688 0 .312-.24.49-.719.531L131.625 74ZM209.156 70.281c-.687-.25-1.01-.52-.968-.812.124-.875.187-1.875.187-3a13.453 13.453 0 0 0-.094-1.781c-.021-.209-.021-.323 0-.344a.426.426 0 0 1 .313-.125c.187 0 .416.083.687.25.292.166.438.333.438.5 0 .104-.011.208-.031.312a1.152 1.152 0 0 0-.032.281l-.187 3.094c0 .167.062.271.187.313h.156c.167 0 .282-.01.344-.031l4.032-.563v-.813c0-1.02-.021-1.812-.063-2.374-.021-.48-.073-.865-.156-1.157-.063-.333.021-.5.25-.5.166 0 .385.063.656.188.333.166.531.312.594.437.062.104.083.271.062.5-.041.375-.062.938-.062 1.688l.031 2.375c0 .5-.094.896-.281 1.187-.104.125-.209.188-.313.188-.104 0-.25-.094-.437-.281a1.845 1.845 0 0 1-.157-.188.41.41 0 0 0-.187-.156.814.814 0 0 0-.25-.031c-.479.041-1.635.197-3.469.468-.312.042-.562.125-.75.25-.208.104-.344.156-.406.156l-.094-.03Zm3.5 12.656c-.646 0-1.146-.02-1.5-.062a1.5 1.5 0 0 1-.844-.375c-.395-.292-.666-.927-.812-1.906l-.094-1c0-.25-.021-.563-.062-.938a5.336 5.336 0 0 0-.719.125c-.042.021-.115.052-.219.094a.856.856 0 0 1-.187.031.722.722 0 0 1-.407-.125c-.124-.083-.281-.24-.468-.469-.146-.187-.219-.312-.219-.374 0-.063.073-.105.219-.126.146-.02.344-.03.594-.03a9.76 9.76 0 0 0 1.374-.126l-.031-.437c0-.834-.052-1.542-.156-2.125l-.031-.219c0-.292.114-.406.344-.344.25.084.479.188.687.313.167.083.281.166.344.25.062.062.083.156.062.281l-.093 1.344v.812l2.75-.281c0-.146.01-.49.031-1.031.021-.563.021-.927 0-1.094 0-.167-.021-.323-.063-.469a5.904 5.904 0 0 0-.062-.406c0-.167.083-.25.25-.25.166 0 .375.094.625.281.291.188.479.354.562.5.104.146.125.323.063.531a5.704 5.704 0 0 0-.219 1.126c-.042.416-.063.666-.063.75.25-.021.48-.053.688-.094.208-.042.344-.063.406-.063.167-.041.365-.062.594-.062.125.02.302.146.531.375.188.25.281.448.281.594 0 .208-.197.291-.593.25a6.108 6.108 0 0 0-1.063-.094c-.354 0-.656.01-.906.031-.062.75-.188 1.49-.375 2.219a1.09 1.09 0 0 1-.219.437c-.104.104-.198.156-.281.156-.146 0-.24-.052-.281-.156a3.672 3.672 0 0 1-.032-.562 27.07 27.07 0 0 0 .063-2.031c-.563.041-1 .083-1.313.124a8.296 8.296 0 0 1-1.343.188 12.86 12.86 0 0 0 .125 2.281c.062.438.187.74.375.906a.83.83 0 0 0 .437.188c.188.02.375.031.563.031h.375c.646 0 1.25-.031 1.812-.094.167-.02.313-.062.438-.124.146-.063.25-.094.312-.094.188 0 .375.062.563.187.187.125.281.271.281.438 0 .166-.094.291-.281.375-.167.083-.438.156-.813.219-.666.083-1.333.124-2 .124Zm4.906-11.718c.105 0 .261.073.469.219-.021.041.021.124.125.25l.219.218c.104.104.208.23.313.375.124.146.26.302.406.469.375.396 1.239 1.427 2.594 3.094.229.333.343.531.343.594 0 .208-.125.312-.375.312-.146 0-.302-.104-.468-.313-.396-.416-1.105-1.072-2.126-1.968-.791-.73-1.51-1.292-2.156-1.688-.312-.146-.468-.312-.468-.5 0-.146.156-.354.468-.625.292-.291.511-.437.656-.437Zm-32.156 5.125c-.521 2.229-1.344 4.114-2.468 5.656-1.126 1.52-2.594 3.01-4.407 4.469-.437.354-.791.531-1.062.531-.146 0-.219-.073-.219-.219 0-.208.167-.49.5-.844 1.729-1.916 3.042-3.74 3.938-5.468.916-1.73 1.541-3.625 1.874-5.688.355-2.083.532-4.698.532-7.844V64c0-1.146-.104-2.031-.313-2.656a1.283 1.283 0 0 1-.093-.438c0-.166.093-.25.281-.25.333 0 1.062.282 2.187.844l11.156-.656.344-.032c.354 0 .667.146.938.438.271.27.406.51.406.719 0 .083-.031.208-.094.375a1.237 1.237 0 0 0-.094.406l.157 21.656.031 1.063c0 .437-.104.802-.312 1.094-.188.291-.407.5-.657.624-.25.146-.458.22-.625.22-.375 0-1.01-.324-1.906-.97a19.93 19.93 0 0 1-2.5-2.062c-.771-.73-1.156-1.23-1.156-1.5 0-.125.073-.188.218-.188.23 0 .573.136 1.032.407a20.023 20.023 0 0 0 3.812 1.75l-.062-8.969-11.438.469Zm11.438-2.188-.032-4.875-10.718.406c-.084 2.25-.209 3.896-.375 4.938l11.125-.469Zm-.032-6.687-.031-4.781-10.562.656-.063 4.656 10.656-.531ZM256.469 74.406c-.229 0-.511-.177-.844-.531-.25-.25-.375-.438-.375-.563 0-.062.042-.093.125-.093.083-.021.187-.031.313-.031l.687-.032c.396 0 .656-.01.781-.031.396 0 .729-.01 1-.031 1.792-.167 3-.302 3.625-.406.313-.042.594-.084.844-.126.25-.062.448-.093.594-.093.291 0 .583.146.875.437.229.23.344.417.344.563 0 .125-.073.208-.219.25-.104.02-.719.062-1.844.125-.625.02-1.396.073-2.313.156-.916.083-1.718.167-2.406.25-.125.02-.302.052-.531.094a3.676 3.676 0 0 1-.656.062ZM227.625 74c-.229.02-.51.031-.844.031-.416 0-.729-.073-.937-.219-.229-.187-.459-.5-.688-.937-.208-.438-.312-.73-.312-.875 0-.125.052-.188.156-.188l.25.063c.375.104.771.156 1.188.156L227 72l22.156-1.125c.5-.042.938-.135 1.313-.281a.43.43 0 0 1 .187-.031c.167 0 .396.093.688.28.312.188.583.417.812.688.229.25.344.48.344.688 0 .312-.24.49-.719.531L227.625 74ZM305.438 77.813c-.126 0-.303-.094-.532-.282a2.02 2.02 0 0 1-.312-.25c-.084-.083-.125-.156-.125-.219l.031-.5c.021-.187.031-.604.031-1.25-.021-.458-.031-1.416-.031-2.874 0-.584-.052-1.115-.156-1.594l-.125-.75V70c0-.188.125-.24.375-.156.104.02.344.062.718.125.396-.063 1.719-.219 3.969-.469a9.167 9.167 0 0 0 1.157-.219h.124c.23 0 .438.115.626.344.333.396.468.677.406.844-.084.208-.167.562-.25 1.062-.042.292-.094.792-.156 1.5V76.75c0 .188-.094.438-.282.75a.484.484 0 0 1-.25.25.654.654 0 0 1-.344.094c-.124 0-.218-.031-.281-.094l-.125-.125a.346.346 0 0 0-.125-.125c-.021-.02-.062-.031-.125-.031-1.291 0-2.458.083-3.5.25-.083.02-.166.031-.25.031a.588.588 0 0 0-.187.031l-.219.031h-.062Zm.593-1.157c.521-.02 1.229-.083 2.125-.187.417-.042.656-.063.719-.063h.25c.333 0 .583.063.75.188.146-1.042.219-2.948.219-5.719-.042-.313-.167-.469-.375-.469-.396 0-1.198.073-2.407.219-.124 0-.25.01-.374.031l-.376.063a5.03 5.03 0 0 1-.781.094c-.146 0-.198.072-.156.218l-.031 1.063a2.866 2.866 0 0 0-.032.406c.021.125.032.24.032.344.021.166.031.437.031.812 0 1.625.01 2.521.031 2.688 0 .146.042.24.125.281a.353.353 0 0 0 .25.031Zm2.313-1.75c-.229 0-.406-.114-.532-.344a17.96 17.96 0 0 0-1.218-1.812l-.219-.344c-.083-.125-.125-.219-.125-.281.021-.083.073-.115.156-.094a4.388 4.388 0 0 1 1.5.813c.709.541 1.063.958 1.063 1.25a.878.878 0 0 1-.125.437c-.146.25-.313.375-.5.375Zm5.218-8.375c.105 0 .261.073.469.219-.021.042.021.125.125.25l.219.219c.104.104.208.229.313.375.124.146.26.302.406.469.375.395 1.239 1.427 2.594 3.093.229.334.343.531.343.594 0 .208-.125.313-.375.313-.146 0-.302-.105-.468-.313-.396-.417-1.105-1.073-2.126-1.969-.791-.729-1.51-1.291-2.156-1.687-.312-.146-.468-.313-.468-.5 0-.146.156-.354.468-.625.292-.292.511-.438.656-.438Zm-32.874 19.094v.156c0 .521-.167.781-.5.781-.167 0-.396-.062-.688-.187a2.47 2.47 0 0 1-.781-.531c-.209-.209-.313-.438-.313-.688l.032-.219c.062-.437.093-.916.093-1.437v-.625l-.5-18.469a6.954 6.954 0 0 0-.156-1.062c-.083-.396-.198-.719-.344-.969-.146-.292-.219-.5-.219-.625 0-.167.115-.25.344-.25.417 0 1.188.26 2.313.781l13.781-.718h.219c.312 0 .646.124 1 .374.354.23.531.5.531.813 0 .104-.021.219-.062.344-.042.125-.073.229-.094.312L294.469 82c.583.73.875 1.23.875 1.5 0 .146-.073.24-.219.281-.146.042-.406.073-.781.094l-13.688.469.032 1.281Zm-.407-13.531 12.594-.625.313-8-13.126.687.219 7.938Zm.313 10.375 11.875-.375.343-8.719-12.468.563.25 8.53Z"/></svg>