<svg xmlns="http://www.w3.org/2000/svg" width="350" height="88" fill="none"><path fill="#333" d="M158.934 8.2c-.164 0-.082-.141.246-.423l1.195-1.02c.469-.421.996-.972 1.582-1.652.375-.445.656-.914.844-1.406.117-.281.246-.422.387-.422.117 0 .292.094.527.282.469.375.703.691.703.949 0 .164-.094.281-.281.351-.094.024-.235.13-.422.317a9.14 9.14 0 0 0-.422.386c-1.008.985-1.945 1.7-2.813 2.145-.703.328-1.171.492-1.406.492h-.14Zm3.691 6.538c-.07 0-.187-.093-.352-.281a2.99 2.99 0 0 1-.316-.598 2.004 2.004 0 0 1 0-.527c.047-.234.07-.41.07-.527.047-.47.071-.844.071-1.125a5.16 5.16 0 0 0 0-.844v-.598l-.036-.527c-.562.398-.996.68-1.3.844-.68.375-1.172.61-1.477.703-.375.14-.715.21-1.019.21-.164 0-.258-.023-.282-.07-.046-.093.422-.433 1.407-1.02.937-.585 1.957-1.358 3.058-2.32.61-.562 1.078-1.101 1.406-1.617a.77.77 0 0 0 .106-.246c.047-.117.094-.187.141-.21.07-.024.164-.012.281.035.305.164.562.398.773.703a.562.562 0 0 1 .141.351c0 .117-.059.235-.176.352a1.396 1.396 0 0 1-.351.21c-.399.259-.762.54-1.09.844-.328.305-.539.504-.633.598.351.281.527.48.527.598l-.105.738c-.047.211-.071.738-.071 1.582 0 .82.024 1.371.071 1.652v.07a.868.868 0 0 1-.106.387c-.047.118-.082.2-.105.247-.164.257-.375.386-.633.386Zm3.586 8.93c-.352 0-.691-.258-1.02-.773-.421-.657-.832-1.196-1.23-1.618l-.914-.949a14.424 14.424 0 0 1-1.301 1.336 6.992 6.992 0 0 1-1.336.95c-1.008.585-1.851.878-2.531.878-.164 0-.246-.058-.246-.176 0-.07.222-.222.668-.457a7.422 7.422 0 0 0 1.265-.843c1.008-.844 1.84-1.711 2.496-2.602-.14-.14-.843-.75-2.109-1.828-.164-.117-.41-.316-.738-.598a9.494 9.494 0 0 1-.422-.316c-.211-.164-.316-.281-.316-.352 0-.117.058-.175.175-.175.352 0 .914.246 1.688.738a25.67 25.67 0 0 1 2.426 1.687 6.91 6.91 0 0 0 .773-1.125c.188-.351.399-.785.633-1.3a2.41 2.41 0 0 0 .211-.668c.023-.211.035-.34.035-.387 0-.258.07-.387.211-.387.164 0 .387.129.668.387.492.469.738.785.738.95 0 .093-.058.198-.176.316-.281.28-.539.656-.773 1.124-.141.282-.398.68-.774 1.196-.117.14-.21.27-.281.387-.07.117-.14.222-.211.316.539.398 1.336 1.078 2.391 2.039.258.234.422.457.492.668.094.187.141.445.141.773 0 .235-.059.434-.176.598a.567.567 0 0 1-.457.211Zm.633 4.64c.258.282.386.516.386.704 0 .164-.093.316-.281.457-.117.093-.41.61-.879 1.547-.515.843-1.09 1.57-1.722 2.18-.61.632-1.219 1.09-1.828 1.37-.141.047-.258.07-.352.07-.094 0-.141-.023-.141-.07v-.07c0-.14.118-.305.352-.492.422-.328.738-.668.949-1.02l.527-.738c.493-.703.844-1.277 1.055-1.723a4.19 4.19 0 0 0 .492-1.23h-.14c-.61 0-1.594.07-2.953.21-.211.024-.821.106-1.829.247-.21.023-.539.082-.984.176l-.422.105a.623.623 0 0 1-.281.07.946.946 0 0 1-.352-.07 3.198 3.198 0 0 1-.351-.246c-.281-.234-.422-.433-.422-.598.023-.046.047-.117.07-.21a.567.567 0 0 0 .071-.247l.175-1.16c.024-.117.047-.246.071-.386a2.61 2.61 0 0 0 .035-.422c0-.446-.012-.797-.035-1.055a3.87 3.87 0 0 0-.106-.879v-.105c0-.164.071-.246.211-.246.141 0 .387.105.738.316.469.328.704.586.704.773 0 .07-.012.13-.036.176a9.186 9.186 0 0 1-.07.14c-.07.423-.105.657-.105.704l-.176 1.863a.34.34 0 0 0 .07.176c.07.047.141.07.211.07.563 0 1.828-.14 3.797-.422.773-.07 1.324-.152 1.652-.246.211-.023.387-.058.528-.105.164-.07.269-.106.316-.106a1.15 1.15 0 0 1 .281-.07c.211 0 .469.188.774.563Zm-22.606-6.855c.258 0 .504.07.739.211a36.808 36.808 0 0 1-2.778-3.48l-7.137.351a29.799 29.799 0 0 1-2.32 3.164c.281.07.645.176 1.09.317l10.195-.563h.211Zm-22.429 7.91c0-.21.257-.504.773-.879 4.266-2.882 7.606-6.152 10.02-9.808l-6.469.316-.844.035c-.211 0-.363-.011-.457-.035-.211 0-.375-.058-.492-.176-.539-.445-.867-.949-.985-1.511a.398.398 0 0 1-.035-.176c0-.164.071-.246.211-.246l.176.035a6.07 6.07 0 0 0 1.477.176h.281l8.332-.422.211-.387c.375-.68.773-1.535 1.195-2.566l-3.129.176c-.211.023-.48.035-.808.035-.493 0-.891-.13-1.196-.387-.304-.258-.515-.527-.632-.809-.118-.304-.176-.504-.176-.597 0-.117.07-.176.211-.176l.175.035c.422.07.856.106 1.301.106h.457l4.465-.282c.211-.586.445-1.43.703-2.53l-6.961.456a6.186 6.186 0 0 1-.738.035c-.469 0-.891-.105-1.266-.316-.375-.211-.691-.656-.949-1.336l-.035-.211c0-.164.094-.246.281-.246l.176.035c.656.094 1.16.14 1.512.14h.351l7.981-.492c.211-1.125.316-1.898.316-2.32 0-.469-.082-.879-.246-1.23-.07-.188-.105-.317-.105-.387 0-.211.14-.316.421-.316.352 0 .833.093 1.442.28.633.188.949.516.949.985l-.035.352a79.581 79.581 0 0 1-.422 2.496l7.137-.457c.258-.024.738-.14 1.441-.352.141-.047.235-.07.281-.07.329 0 .727.223 1.196.668.492.422.738.762.738 1.02 0 .257-.258.41-.773.456l-10.407.668a177.6 177.6 0 0 1-.632 2.532l5.589-.317a6.484 6.484 0 0 0 1.336-.246c.141-.047.246-.07.317-.07.281 0 .644.2 1.09.598.468.398.703.714.703.949 0 .14-.645.281-1.934.422-1.266.14-3.844.328-7.734.562a29.037 29.037 0 0 1-1.336 2.988l13.957-.703a4.85 4.85 0 0 0 1.512-.316c.046-.024.14-.035.281-.035.234 0 .492.105.773.316.305.211.563.457.774.738.211.258.316.446.316.563 0 .281-.269.445-.809.492l-8.578.422a30.768 30.768 0 0 0 4.641 4.746c1.664 1.36 3.551 2.531 5.66 3.516.469.21.703.398.703.562 0 .117-.117.305-.351.563a4.41 4.41 0 0 1-.774.668c-.281.187-.539.28-.773.28-.164 0-.645-.222-1.442-.667-.773-.445-1.722-1.102-2.847-1.969-1.102-.867-2.239-1.91-3.41-3.129a.398.398 0 0 1 .035.176c0 .07-.035.188-.106.352a1.15 1.15 0 0 0-.07.351l-.492 7.805c.609.773.914 1.312.914 1.617 0 .188-.094.305-.281.352-.164.047-.422.07-.774.07l-10.793.281.035.88v.105c0 .468-.222.703-.668.703-.304 0-.668-.117-1.089-.352-.422-.234-.633-.586-.633-1.055v-.14c0-.235.023-.563.07-.985a9.36 9.36 0 0 0 .07-.949v-.316l-.492-7.664c0-.14-.012-.27-.035-.387l-.07-.352c-1.289 1.36-2.614 2.52-3.973 3.48-1.336.962-2.519 1.7-3.551 2.216-1.008.515-1.629.773-1.863.773-.211 0-.316-.07-.316-.21Zm12.129-2.672 9.421-.351.106-2.883-9.668.457.141 2.777Zm.281 4.922 8.929-.21.141-3.2-9.246.352.176 3.058ZM219.121 14.387c-.164 0-.34-.106-.527-.317a2.153 2.153 0 0 1-.282-.386c-.046-.118-.046-.27 0-.457l.036-.844c.023-.164.035-.563.035-1.195v-1.16l-1.055.492-1.23.527a10.87 10.87 0 0 0-.95.422c-.281.14-.527.21-.738.21a2.173 2.173 0 0 1-.562-.175 4.837 4.837 0 0 1-.493-.246c-.257-.164-.375-.34-.351-.527l.105-.352c0-.188.012-.352.036-.492l.035-2.04V5.95c0-.375-.024-.691-.071-.949-.047-.281-.082-.48-.105-.598 0-.117.035-.199.105-.246.024-.023.082-.035.176-.035.164 0 .481.106.949.316.399.188.563.422.493.704-.047.164-.094.41-.141.738l-.106 4.043c0 .117.012.21.036.281.046.047.093.07.14.07.282 0 .621-.082 1.02-.246.75-.234 1.394-.468 1.933-.703l.774-.316v-2.32c0-.938-.059-1.84-.176-2.708a.792.792 0 0 1-.035-.246c0-.234.094-.351.281-.351.024 0 .152.047.387.14.351.188.609.352.773.493.164.14.258.222.282.246.093.07.14.14.14.21a.34.34 0 0 1-.07.176c-.024.07-.047.13-.07.176l-.106 1.055-.035 3.234.035 3.13a8.23 8.23 0 0 1-.105 1.405c-.118.493-.305.739-.563.739Zm-6.469 5.765c-.257 0-.574-.199-.949-.597-.281-.282-.422-.492-.422-.633 0-.07.047-.106.141-.106a1.48 1.48 0 0 1 .351-.035l.774-.035c.445 0 .738-.012.879-.035.445 0 .82-.012 1.125-.035 2.015-.188 3.375-.34 4.078-.457a29.8 29.8 0 0 0 .949-.14c.281-.071.504-.106.668-.106.328 0 .656.164.984.492.258.258.387.469.387.633 0 .14-.082.234-.246.28-.117.024-.809.071-2.074.142-.703.023-1.57.082-2.602.175a92.491 92.491 0 0 0-2.707.282c-.14.023-.34.058-.597.105-.258.047-.504.07-.739.07Zm4.711 14.52c-.726 0-1.289-.024-1.687-.07a1.68 1.68 0 0 1-.949-.422c-.446-.328-.75-1.043-.915-2.145l-.105-1.125c0-.281-.023-.633-.07-1.055a5.987 5.987 0 0 0-.809.141 3.817 3.817 0 0 1-.246.106.965.965 0 0 1-.211.035.81.81 0 0 1-.457-.14c-.141-.095-.316-.27-.527-.528-.164-.211-.246-.352-.246-.422s.082-.117.246-.14c.164-.024.386-.036.668-.036.398 0 .914-.047 1.547-.14l-.036-.493c0-.937-.058-1.734-.175-2.39l-.036-.246c0-.329.129-.457.387-.387.281.094.539.21.774.351.187.094.316.188.386.282.071.07.094.175.071.316l-.106 1.512v.914l3.094-.317c0-.164.012-.55.035-1.16.024-.633.024-1.043 0-1.23 0-.188-.023-.363-.07-.527a6.529 6.529 0 0 0-.071-.458c0-.187.094-.28.282-.28.187 0 .422.105.703.316.328.21.539.398.633.562.117.164.14.363.07.598a6.4 6.4 0 0 0-.246 1.265c-.047.47-.07.75-.07.844.281-.023.539-.058.773-.105.234-.047.387-.07.457-.07.188-.047.41-.071.668-.071.141.023.34.164.598.422.211.281.316.504.316.668 0 .234-.223.328-.668.281a6.863 6.863 0 0 0-1.195-.105c-.399 0-.738.011-1.02.035-.07.844-.211 1.676-.422 2.496a.953.953 0 0 1-.246.457c-.117.14-.222.21-.316.21-.164 0-.27-.07-.317-.21a3.524 3.524 0 0 1-.035-.598c.047-.61.071-1.37.071-2.285a26.99 26.99 0 0 0-1.477.14 9.357 9.357 0 0 1-1.512.212c-.023.96.024 1.816.141 2.566.07.492.211.832.422 1.02.14.117.305.187.492.21.211.024.422.036.633.036h.422c.726 0 1.406-.035 2.039-.106a1.52 1.52 0 0 0 .492-.14c.164-.07.281-.106.352-.106.21 0 .421.07.632.211.211.14.317.305.317.492 0 .188-.106.328-.317.422-.187.094-.492.176-.914.246-.75.094-1.5.14-2.25.14Zm10.02-15.996c.281 0 .422.129.422.387 0 .14-.129.34-.387.597-.703.867-2.098 2.52-4.184 4.957-.164.211-.316.317-.457.317-.117 0-.375-.176-.773-.528-.328-.281-.492-.515-.492-.703 0-.21.176-.41.527-.598.539-.304 1.348-.914 2.426-1.828 1.078-.96 1.875-1.722 2.39-2.285.211-.21.387-.316.528-.316Zm-44.684 11.496c2.086-.656 3.949-1.371 5.59-2.145a25.586 25.586 0 0 0-1.336-1.687c-.187-.235-.281-.422-.281-.563 0-.258.152-.48.457-.668.305-.21.539-.316.703-.316.188 0 .387.117.598.352a137.853 137.853 0 0 1 3.41 4.148c.937 1.195 1.406 1.922 1.406 2.18 0 .21-.164.457-.492.738-.305.305-.598.457-.879.457-.234 0-.469-.188-.703-.563a96.435 96.435 0 0 0-1.828-2.671l-4.219 2.109c-.469.21-1.207.586-2.215 1.125-.844.445-1.359.668-1.547.668-.14 0-.316-.094-.527-.281a1.65 1.65 0 0 1-.492-.633c-.094-.234-.094-.422 0-.563.14-.257.211-1.289.211-3.093V16.602c0-.563-.024-1.02-.071-1.372a3.587 3.587 0 0 0-.281-1.125 1.37 1.37 0 0 0-.07-.175.305.305 0 0 1-.035-.14c0-.118.082-.177.246-.177.304 0 1.066.258 2.285.774l7.629-.528c.187-.023.398-.035.633-.035.257 0 .562.117.914.352.351.21.527.445.527.703 0 .094-.059.234-.176.422-.094.187-.14.328-.14.422l-.914 6.609c.562.656.843 1.102.843 1.336 0 .117-.07.2-.211.246-.117.047-.304.07-.562.07l-8.508.317.035 5.87Zm-5.765-15.785c0-.235.152-.516.457-.844 1.711-1.898 3.199-3.785 4.464-5.66 1.266-1.875 1.899-3.13 1.899-3.762l-.035-.246V3.77c0-.329.129-.493.386-.493.305 0 .727.211 1.266.633.563.399.844.727.844.985 0 .117-.059.27-.176.457a23.895 23.895 0 0 1-1.16 1.687l4.992-.387a4.872 4.872 0 0 0 1.336-.28c.141-.048.246-.071.316-.071.352 0 .727.199 1.125.597.422.375.633.668.633.88 0 .28-.258.445-.773.492l-6.012.421c.164.047.527.293 1.09.739.586.445 1.113.902 1.582 1.37.469.47.703.798.703.985 0 .211-.141.469-.422.774-.281.28-.527.421-.738.421-.188 0-.41-.152-.668-.457a21.787 21.787 0 0 0-2.426-2.285c-.281-.234-.422-.433-.422-.597 0-.118.059-.27.176-.457.117-.188.27-.34.457-.457l-2.355.175a34.406 34.406 0 0 1-3.727 3.903c-1.359 1.195-2.226 1.793-2.601 1.793-.141 0-.211-.07-.211-.211Zm12.656 3.656.246-2.461-7.242.492v2.32l6.996-.351Zm-.457 4.36.281-2.708-6.785.317v2.636l6.504-.246Zm1.898-9.528c0-.234.153-.516.457-.844 1.149-1.383 2.192-2.941 3.129-4.676.961-1.757 1.442-2.988 1.442-3.69v-.142c0-.351.129-.527.386-.527.164 0 .41.094.739.281.351.164.668.364.949.598.281.234.422.469.422.703 0 .211-.164.586-.493 1.125-.328.54-.503.82-.527.844l6.926-.563a6.483 6.483 0 0 0 1.336-.246c.047-.023.141-.035.281-.035.328 0 .68.188 1.055.563.398.351.597.644.597.879 0 .14-.07.257-.21.351-.118.07-.282.117-.493.14l-7.136.493c.656.422 1.429 1.043 2.32 1.863.891.797 1.336 1.336 1.336 1.617 0 .164-.129.422-.387.774-.258.328-.504.492-.738.492-.188 0-.387-.117-.598-.352-1.148-1.242-2.191-2.226-3.129-2.953-.234-.187-.351-.363-.351-.527 0-.188.176-.469.527-.844l-2.601.176c-.774 1.031-1.711 2.074-2.813 3.129-1.078 1.055-1.805 1.582-2.18 1.582-.164 0-.246-.07-.246-.211Zm3.305.773c0-.14.082-.21.246-.21.352 0 1.148.292 2.391.878l7.066-.597.281-.035c.094 0 .27.046.528.14.281.07.539.2.773.387.258.164.387.387.387.668 0 .094-.035.223-.106.387-.07.164-.105.28-.105.351a88.243 88.243 0 0 1-.492 8.262l-.071.879c-.07.984-.164 1.805-.281 2.46-.117.657-.316 1.173-.598 1.548-.445.609-.925.914-1.441.914s-1.172-.317-1.969-.95a18.576 18.576 0 0 1-2.215-2.074c-.656-.75-.984-1.23-.984-1.441 0-.164.094-.246.281-.246.211 0 .504.117.879.351.867.54 1.594.973 2.18 1.301.586.328 1.008.492 1.266.492.117 0 .199-.082.246-.246.539-3 .867-6.762.984-11.285l-6.609.492c0 3.961.035 10.242.105 18.844 0 .21-.058.363-.176.457a.466.466 0 0 1-.386.176c-.188 0-.411-.07-.668-.211-.446-.188-.762-.363-.95-.528-.187-.164-.281-.351-.281-.562l.035-.246c.141-.773.211-1.64.211-2.602l-.105-14.836c0-.609-.024-1.078-.07-1.406a3.306 3.306 0 0 0-.211-.95c-.094-.28-.141-.468-.141-.562ZM143.031 67.469c-.312 0-.541-.167-.687-.5l-.282-.625a46.38 46.38 0 0 1-1.968.469l-2.032.5c-.416.104-.677.156-.781.156a.692.692 0 0 1-.312-.063l-.157-.156a1.675 1.675 0 0 1-.093-.156c-.167-.292-.24-.49-.219-.594l.219-.344c.541-.75 1.041-1.823 1.5-3.219l-.625.094-.813.094c-.062.02-.198.063-.406.125-.187.042-.333.031-.437-.031-.23-.146-.532-.407-.907-.782-.083-.083-.125-.145-.125-.187 0-.125.229-.188.688-.188h1.062a40.719 40.719 0 0 0 1.938-.156c.125-.312.26-.708.406-1.187.146-.48.25-.865.312-1.157v-.374c.021-.188.063-.303.126-.344h.031c.083 0 .198.041.343.125.146.083.282.187.407.312.396.396.51.709.343.938-.083.02-.26.364-.531 1.031-.021.042-.093.23-.219.563l1.813-.22a7.517 7.517 0 0 0 1.094-.156c.354-.104.635-.156.843-.156.167 0 .303.063.407.188l.219.218c.062.063.135.188.218.376.084.145.115.25.094.312-.083.125-.229.188-.438.188-.687-.042-1.51-.021-2.468.062a10.58 10.58 0 0 0-.938.125l-1.218.125-.282.844-.344.75c-.104.25-.218.5-.343.75-.125.25-.219.458-.281.625a.43.43 0 0 0-.032.187c0 .104.063.156.188.156.166 0 .739-.093 1.718-.28l1.157-.188.531-.125c-.188-.521-.333-.854-.438-1a3.04 3.04 0 0 1-.187-.281l.187-.188c.813.52 1.469 1.052 1.969 1.594.146.187.24.364.281.531.063.167.084.354.063.563a.874.874 0 0 1-.219.437c-.041.104-.166.177-.375.219Zm-6.562 6c-.229 0-.511-.177-.844-.531-.25-.25-.375-.438-.375-.563 0-.063.042-.094.125-.094.083-.02.187-.031.313-.031l.687-.031c.396 0 .656-.01.781-.031.396 0 .729-.01 1-.032 1.792-.166 3-.302 3.625-.406.313-.042.594-.083.844-.125.25-.063.448-.094.594-.094.291 0 .583.146.875.438.229.229.344.416.344.562 0 .125-.073.209-.219.25-.104.021-.719.063-1.844.125-.625.021-1.396.073-2.313.156-.916.084-1.718.167-2.406.25-.125.021-.302.053-.531.094a3.668 3.668 0 0 1-.656.063Zm4.187 12.906c-.646 0-1.146-.02-1.5-.063a1.5 1.5 0 0 1-.844-.374c-.395-.292-.666-.928-.812-1.907l-.094-1c0-.25-.021-.562-.062-.937a5.304 5.304 0 0 0-.719.125c-.042.02-.115.052-.219.094a.857.857 0 0 1-.187.03.723.723 0 0 1-.407-.124c-.124-.084-.281-.24-.468-.469-.146-.188-.219-.313-.219-.375 0-.063.073-.104.219-.125.146-.02.344-.031.594-.031.354 0 .812-.042 1.374-.125l-.031-.438c0-.833-.052-1.541-.156-2.125l-.031-.219c0-.291.114-.406.344-.343.25.083.479.187.687.312.167.084.281.167.344.25.062.063.083.156.062.281l-.093 1.344v.813l2.75-.281c0-.146.01-.49.031-1.032.021-.562.021-.927 0-1.094 0-.166-.021-.322-.063-.468a5.898 5.898 0 0 0-.062-.406c0-.167.083-.25.25-.25.166 0 .375.093.625.28.291.188.479.355.562.5.104.147.125.324.063.532a5.704 5.704 0 0 0-.219 1.125c-.042.417-.063.667-.063.75.25-.02.48-.052.688-.094a2.75 2.75 0 0 1 .406-.062c.167-.042.365-.063.594-.063.125.021.302.146.531.375.188.25.281.448.281.594 0 .208-.197.292-.593.25a6.109 6.109 0 0 0-1.063-.094c-.354 0-.656.01-.906.031a13.34 13.34 0 0 1-.375 2.22.857.857 0 0 1-.219.406c-.104.124-.198.187-.281.187-.146 0-.24-.063-.281-.188a3.051 3.051 0 0 1-.032-.53c.042-.542.063-1.22.063-2.032-.563.042-1 .083-1.313.125a8.296 8.296 0 0 1-1.343.188c-.021.854.021 1.614.125 2.28.062.438.187.74.375.907a.83.83 0 0 0 .437.188c.188.02.375.03.563.03h.375c.646 0 1.25-.03 1.812-.093.167-.02.313-.063.438-.125.146-.063.25-.094.312-.094.188 0 .375.063.563.188.187.125.281.27.281.437 0 .167-.094.292-.281.375-.167.084-.438.156-.813.219-.666.083-1.333.125-2 .125Zm-19.625-.781v.094a.708.708 0 0 1-.156.468.538.538 0 0 1-.437.188 3.031 3.031 0 0 1-1.126-.438c-.312-.187-.468-.437-.468-.75l.031-.25c.042-.541.063-.979.063-1.312v-.469l-.532-6.719c-.041-.708-.156-1.26-.344-1.656-.104-.208-.156-.365-.156-.469 0-.166.115-.25.344-.25.375 0 1.062.177 2.062.531l2.813-.124-.063-12.813c0-.563-.124-.99-.374-1.281a.476.476 0 0 1-.157-.344c0-.146.125-.219.375-.219.375 0 .834.094 1.375.282.563.166.844.447.844.843l-.063 6.313 4.032-.25a4.516 4.516 0 0 0 1.156-.25c.167-.063.302-.094.406-.094.313 0 .646.177 1 .531.354.354.532.667.532.938 0 .291-.271.458-.813.5l-6.313.312-.062 5.469 4.188-.188a1.66 1.66 0 0 1 .374-.03c.25 0 .542.124.876.374.354.23.531.5.531.813 0 .104-.042.24-.125.406-.084.146-.125.26-.125.344l-.813 6.437c.521.646.782 1.094.782 1.344 0 .146-.063.24-.188.281-.125.042-.333.073-.625.094l-8.937.219.093 1.125Zm-16.875.75c0-.23.219-.563.656-1a18.543 18.543 0 0 0 2.594-3.281c.792-1.23 1.209-2.105 1.25-2.626 0-.354.104-.53.313-.53.25 0 .593.197 1.031.593.458.396.688.719.688.969 0 .125-.063.291-.188.5a18.734 18.734 0 0 1-2.406 3c-.854.833-1.625 1.469-2.313 1.906-.687.438-1.156.656-1.406.656-.146 0-.219-.062-.219-.187Zm2-24.969c0-.167.104-.25.313-.25.354 0 1.031.219 2.031.656l6.5-.406h.312c.459 0 .813.104 1.063.313.25.208.375.437.375.687a.94.94 0 0 1-.094.344c-.041.146-.062.26-.062.343l-.313 13c.542.605.813 1.032.813 1.282 0 .125-.063.208-.188.25a7.81 7.81 0 0 1-.656.062l-7.469.313v.437c0 .417-.177.625-.531.625-.188 0-.406-.062-.656-.187-.334-.146-.573-.292-.719-.438a.746.746 0 0 1-.187-.5l.031-.25c.083-.562.125-1.146.125-1.75l-.188-12.281c0-.688-.114-1.26-.344-1.719-.104-.208-.156-.385-.156-.531Zm2.438 5.219 5.937-.281.031-3.188-6 .375.032 3.094Zm.094 4.719 5.781-.282.031-3.062-5.875.281.063 3.063Zm.062 4.968 5.656-.25.032-3.406-5.75.281.062 3.375Zm3.812 3.625c0-.208.126-.406.376-.594.27-.187.5-.28.687-.28.229 0 .677.395 1.344 1.187a26.34 26.34 0 0 1 1.906 2.5c.604.896.906 1.458.906 1.687 0 .23-.156.469-.469.719-.291.25-.583.375-.874.375-.25 0-.469-.188-.657-.563-.979-1.854-1.927-3.302-2.843-4.343-.25-.292-.376-.521-.376-.688Zm8.25 2.844 7.188-.219.625-6.562-8.281.312.468 6.469ZM184.719 62.844c-.146 0-.073-.125.219-.375.291-.25.645-.552 1.062-.907a16.43 16.43 0 0 0 1.406-1.468 4.31 4.31 0 0 0 .75-1.25c.104-.25.219-.375.344-.375.104 0 .26.083.469.25.416.333.625.614.625.843 0 .146-.084.25-.25.313-.084.02-.209.115-.375.281-.167.146-.292.26-.375.344-.896.875-1.729 1.51-2.5 1.906-.625.292-1.042.438-1.25.438h-.125ZM188 68.656c-.062 0-.167-.083-.312-.25a2.624 2.624 0 0 1-.282-.531 1.735 1.735 0 0 1 0-.469c.042-.208.063-.364.063-.469.041-.416.062-.75.062-1 .021-.229.021-.479 0-.75v-.53l-.031-.47c-.5.355-.885.605-1.156.75-.604.334-1.042.542-1.313.626a2.606 2.606 0 0 1-.906.187c-.146 0-.229-.02-.25-.063-.042-.083.375-.385 1.25-.906.833-.52 1.74-1.208 2.719-2.062.541-.5.958-.98 1.25-1.438a.713.713 0 0 0 .094-.218c.041-.105.083-.167.124-.188.063-.02.146-.01.25.031.271.146.5.354.688.625a.503.503 0 0 1 .125.313c0 .104-.052.208-.156.312a1.245 1.245 0 0 1-.313.188 6.99 6.99 0 0 0-.968.75c-.292.27-.48.448-.563.531.313.25.469.427.469.531l-.094.656c-.042.188-.062.657-.062 1.407 0 .729.02 1.219.062 1.469v.062a.772.772 0 0 1-.094.344 2.888 2.888 0 0 1-.094.219c-.145.229-.333.343-.562.343Zm3.188 7.938c-.313 0-.615-.23-.907-.688a9.905 9.905 0 0 0-1.093-1.437l-.813-.844c-.437.5-.823.896-1.156 1.188a6.25 6.25 0 0 1-1.188.843c-.896.521-1.646.781-2.25.781-.146 0-.219-.052-.219-.156 0-.062.198-.198.594-.406a6.591 6.591 0 0 0 1.125-.75c.896-.75 1.636-1.52 2.219-2.313-.125-.124-.75-.666-1.875-1.624a10.426 10.426 0 0 1-.656-.532 7.616 7.616 0 0 1-.375-.281c-.188-.146-.282-.25-.282-.313 0-.104.053-.156.157-.156.312 0 .812.219 1.5.656.687.417 1.406.917 2.156 1.5.292-.354.521-.687.687-1 .167-.312.355-.697.563-1.156.104-.229.167-.427.187-.594a4.83 4.83 0 0 0 .032-.343c0-.23.062-.344.187-.344.146 0 .344.115.594.344.437.416.656.698.656.844 0 .083-.052.177-.156.28-.25.25-.479.584-.687 1-.126.25-.355.605-.688 1.063a2.76 2.76 0 0 0-.25.344 3.062 3.062 0 0 1-.188.281c.48.354 1.188.959 2.126 1.813.229.208.374.406.437.594.083.166.125.395.125.687a.89.89 0 0 1-.156.531.504.504 0 0 1-.406.188Zm.562 4.125c.229.25.344.458.344.625 0 .146-.084.281-.25.406-.104.083-.365.542-.782 1.375a9.64 9.64 0 0 1-1.531 1.938c-.541.562-1.083.968-1.625 1.218a1.027 1.027 0 0 1-.312.063c-.084 0-.125-.021-.125-.063v-.062c0-.125.104-.271.312-.438.375-.291.657-.594.844-.906l.469-.656c.437-.625.75-1.136.937-1.531a3.76 3.76 0 0 0 .438-1.094h-.125c-.542 0-1.417.062-2.625.187-.188.021-.729.094-1.625.219a10.2 10.2 0 0 0-.875.156l-.375.094a.557.557 0 0 1-.25.063.838.838 0 0 1-.313-.063 2.83 2.83 0 0 1-.312-.219c-.25-.208-.375-.385-.375-.531a.976.976 0 0 0 .062-.188.5.5 0 0 0 .063-.218l.156-1.031c.021-.105.042-.22.063-.344.02-.125.031-.25.031-.375 0-.396-.011-.709-.031-.938 0-.25-.032-.51-.094-.781v-.094c0-.146.062-.219.187-.219s.344.094.657.282c.416.291.624.52.624.687 0 .063-.01.115-.031.156l-.062.126a8.772 8.772 0 0 0-.094.624l-.156 1.657c0 .041.021.094.062.156a.337.337 0 0 0 .188.063c.5 0 1.625-.126 3.375-.376.687-.062 1.177-.135 1.468-.218.188-.021.344-.052.469-.094.146-.063.24-.094.281-.094.126-.041.209-.062.25-.062.188 0 .417.166.688.5Zm-20.094-6.094c.229 0 .448.063.656.188a32.772 32.772 0 0 1-2.468-3.094l-6.344.312a26.58 26.58 0 0 1-2.062 2.813c.25.062.572.156.968.281l9.063-.5h.187Zm-19.937 7.031c0-.187.229-.448.687-.781 3.792-2.563 6.761-5.469 8.906-8.719l-5.75.281-.75.032c-.187 0-.322-.01-.406-.031-.187 0-.333-.053-.437-.157-.479-.396-.771-.844-.875-1.344a.345.345 0 0 1-.032-.156c0-.146.063-.219.188-.219l.156.032c.417.104.854.156 1.313.156h.25l7.406-.375.187-.344c.334-.604.688-1.364 1.063-2.281l-2.781.156c-.188.021-.427.031-.719.031-.437 0-.792-.114-1.063-.343-.27-.23-.458-.469-.562-.719-.104-.27-.156-.448-.156-.531 0-.104.062-.156.187-.156l.157.03c.374.063.76.094 1.156.094h.406l3.969-.25c.187-.52.396-1.27.625-2.25l-6.188.407c-.166.02-.385.031-.656.031-.417 0-.792-.094-1.125-.281-.333-.188-.615-.584-.844-1.188l-.031-.187c0-.146.083-.219.25-.219l.156.031c.584.084 1.032.125 1.344.125h.312l7.094-.437c.188-1 .282-1.688.282-2.063a2.56 2.56 0 0 0-.219-1.093c-.063-.167-.094-.282-.094-.344 0-.188.125-.282.375-.282.312 0 .74.084 1.281.25.563.167.844.459.844.876l-.031.312a70.1 70.1 0 0 1-.375 2.219l6.343-.407c.23-.02.657-.124 1.282-.312.125-.042.208-.063.25-.063.291 0 .646.198 1.062.594.438.375.656.677.656.907 0 .229-.229.364-.687.406l-9.25.593c-.063.271-.25 1.021-.563 2.25l4.969-.28a5.765 5.765 0 0 0 1.188-.22.993.993 0 0 1 .281-.062c.25 0 .573.177.969.531.416.354.625.636.625.844 0 .125-.573.25-1.719.375-1.125.125-3.417.292-6.875.5a25.434 25.434 0 0 1-1.188 2.656l12.407-.625c.458-.02.906-.114 1.343-.281a.656.656 0 0 1 .25-.031c.209 0 .438.094.688.281.271.188.5.406.688.656.187.23.281.396.281.5 0 .25-.24.396-.719.438l-7.625.375A27.348 27.348 0 0 0 176 75.813c1.479 1.208 3.156 2.25 5.031 3.124.417.188.625.355.625.5 0 .105-.104.271-.312.5a3.936 3.936 0 0 1-.688.594c-.25.167-.479.25-.687.25-.146 0-.573-.198-1.281-.594-.688-.395-1.532-.979-2.532-1.75-.979-.77-1.989-1.697-3.031-2.78a.346.346 0 0 1 .031.156c0 .062-.031.166-.094.312-.041.125-.062.23-.062.313l-.438 6.937c.542.688.813 1.167.813 1.438 0 .166-.083.27-.25.312-.146.042-.375.063-.687.063l-9.594.25.031.78v.094c0 .417-.198.626-.594.626-.271 0-.593-.105-.969-.313-.374-.208-.562-.52-.562-.938v-.124c0-.209.021-.5.062-.876a8.31 8.31 0 0 0 .063-.843v-.281l-.437-6.813c0-.125-.011-.24-.032-.344l-.062-.312c-1.146 1.208-2.323 2.24-3.532 3.094-1.187.854-2.239 1.51-3.156 1.968-.896.459-1.448.688-1.656.688-.188 0-.281-.063-.281-.188Zm10.781-2.375 8.375-.312.094-2.563-8.594.406.125 2.47Zm.25 4.375 7.938-.187.124-2.844-8.218.313.156 2.718ZM236.531 68.25c-.333 0-.541-.094-.625-.281a4.346 4.346 0 0 0-.312-.625c-.104-.188-.292-.406-.563-.656l.063-.126c.75.271 1.239.407 1.468.407.167 0 .292-.031.376-.094.083-.063.218-.208.406-.438.271-.291.521-.74.75-1.343.312-.896.51-1.823.594-2.781v-.094c0-.125-.021-.209-.063-.25-.271 0-.99.062-2.156.187-.646 1.604-1.396 2.927-2.25 3.969-.834 1.02-1.594 1.531-2.281 1.531-.167 0-.25-.062-.25-.187 0-.042.208-.281.624-.719.417-.438.876-1.01 1.376-1.719.52-.729 1.01-1.625 1.468-2.687-.104 0-.406.02-.906.062a6.51 6.51 0 0 0-1.281.219.495.495 0 0 1-.531.063l-.063-.032a.488.488 0 0 1-.125-.093 1.359 1.359 0 0 1-.375-.313.831.831 0 0 1-.125-.406c0-.063.052-.146.156-.25l.375-.5c.125-.167.24-.407.344-.719.104-.333.156-.615.156-.844 0-.146-.01-.24-.031-.281a.346.346 0 0 1-.031-.156c0-.104.052-.157.156-.157.125 0 .302.073.531.22.063.04.177.124.344.25.188.103.292.228.312.374 0 .146-.083.386-.25.719l-.406.719a.39.39 0 0 0-.062.218c0 .063.021.115.062.157a.39.39 0 0 0 .219 0l1.875-.25a11.01 11.01 0 0 0 .5-1.719v-.718c0-.23.062-.324.188-.282.27.063.489.146.656.25.312.188.468.344.468.469 0 .104-.041.281-.124.531-.063.23-.115.406-.157.531-.021.084-.114.354-.281.813.062 0 .448-.042 1.156-.125l.313-.063c.062 0 .177-.02.343-.062a.35.35 0 0 1 .157-.032c.25 0 .406.01.469.032.083.02.208.083.374.187.188.125.313.25.376.375.062.125.083.271.062.438L239.812 63l-.218 1.125c0 .083-.073.354-.219.813a7.464 7.464 0 0 1-.5 1.218c-.354.709-.771 1.24-1.25 1.594-.417.333-.781.5-1.094.5Zm-4.062 5.219c-.229 0-.511-.177-.844-.531-.25-.25-.375-.438-.375-.563 0-.063.042-.094.125-.094.083-.02.187-.031.313-.031l.687-.031c.396 0 .656-.01.781-.031.396 0 .729-.01 1-.032 1.792-.166 3-.302 3.625-.406.313-.042.594-.083.844-.125.25-.063.448-.094.594-.094.291 0 .583.146.875.438.229.229.344.416.344.562 0 .125-.073.209-.219.25-.104.021-.719.063-1.844.125-.625.021-1.396.073-2.313.156-.916.084-1.718.167-2.406.25-.125.021-.302.053-.531.094a3.668 3.668 0 0 1-.656.063Zm4.656 6.969c-.208.27-.427.406-.656.406-.063 0-.094-.052-.094-.156 0-.146.042-.313.125-.5l.625-1.25c.021-.084.052-.167.094-.25.041-.084.073-.157.093-.22v-.03c0-.042-.031-.084-.093-.126a.264.264 0 0 0-.219-.03c-.333.02-.833.072-1.5.156-.646.083-1.125.166-1.438.25l-.468.156a1.227 1.227 0 0 1-.406.094c-.376 0-.688-.115-.938-.344a1.931 1.931 0 0 1-.469-.438l-.062-.156c0-.104.177-.135.531-.094.479.042 1.469-.02 2.969-.187l.625-.094.781-.094c.375-.062.667-.125.875-.187l.188-.063a.502.502 0 0 1 .218-.062c.104 0 .229.052.375.156.167.104.302.198.407.281.145.104.239.198.281.281.062.063.083.146.062.25 0 .105-.052.198-.156.282a3.092 3.092 0 0 0-.219.187c-.041.063-.187.219-.437.469-.104.167-.292.396-.563.688-.25.291-.427.5-.531.624Zm-1.563 6.156c0-.063.105-.23.313-.5.229-.25.406-.448.531-.594.313-.417.688-1.02 1.125-1.813.459-.791.719-1.312.781-1.562.042-.125-.02-.188-.187-.188-.333 0-1.25.094-2.75.282-.979.125-1.708.25-2.187.375a.608.608 0 0 1-.313.094c-.167 0-.344-.115-.531-.344a.821.821 0 0 1-.125-.406c0-.084.052-.167.156-.25l.094-.126c.062-.124.135-.291.219-.5.083-.208.156-.406.218-.593.104-.334.177-.698.219-1.094.021-.23.146-.292.375-.188.292.146.51.292.656.438.167.125.219.219.156.281a3.15 3.15 0 0 0-.5.844 8.477 8.477 0 0 0-.187.656c0 .084.052.125.156.125.313 0 .781-.052 1.407-.156l1.312-.156c.521-.063.938-.125 1.25-.188l.781-.156a.817.817 0 0 1 .25-.031c.104 0 .209.041.313.125.104.062.218.146.344.25.208.187.343.344.406.469a.72.72 0 0 1 .094.374c0 .084-.063.188-.188.313a3.792 3.792 0 0 0-.375.594c-.604 1.229-1.385 2.26-2.344 3.094a4.331 4.331 0 0 1-.906.53 1.486 1.486 0 0 1-.406.063c-.104.021-.157 0-.157-.062Zm10-14.438c.25 0 .376.115.376.344 0 .125-.115.302-.344.531-.625.771-1.865 2.24-3.719 4.406-.146.188-.281.282-.406.282-.104 0-.334-.156-.688-.469-.291-.25-.437-.458-.437-.625 0-.188.156-.365.468-.531.48-.271 1.198-.813 2.157-1.625.958-.854 1.666-1.531 2.125-2.031.187-.188.344-.282.468-.282Zm-37.406 6.438c-.062.041-1.041.51-2.937 1.406-1.875.875-3.073 1.313-3.594 1.313-.208 0-.448-.094-.719-.282a5.33 5.33 0 0 1-.687-.687c-.188-.25-.281-.438-.281-.563 0-.166.145-.25.437-.25.146 0 .448-.041.906-.125.459-.083 1.063-.24 1.813-.469l.062-15.812h-.094c-.208 0-.385.01-.531.031-.146.021-.271.032-.375.032-.354 0-.677-.146-.968-.438-.292-.292-.48-.563-.563-.813a1.866 1.866 0 0 1-.063-.312c0-.104.073-.156.219-.156l.188.031c.354.063.666.094.937.094l.594-.032 7.344-.437c.521-.042.916-.104 1.187-.188a1.72 1.72 0 0 1 .344-.062c.229 0 .531.146.906.438.396.27.594.53.594.78 0 .292-.25.46-.75.5l-2.187.157v23.594c0 .396-.188.594-.563.594-.292 0-.615-.105-.969-.313-.333-.188-.5-.469-.5-.844 0-.062.021-.198.063-.406a7.22 7.22 0 0 0 .187-1.688v-5.093Zm-3.344-.25a61.363 61.363 0 0 0 3.376-1.313v-3.719l-3.344.157-.032 4.875Zm3.376-6.594v-3.625l-3.344.125v3.688l3.344-.188Zm.031-5.188v-3.718l-3.344.156-.031 3.719 3.375-.156Zm2.687 5.844c0-.083.042-.156.125-.219.084-.062.24-.145.469-.25.25-.124.458-.28.625-.468a45.508 45.508 0 0 0 1.813-2.531l.781-1.157.687-1.031c-.479.083-.802.135-.968.156-1.313.25-2.136.375-2.469.375-.188 0-.365-.135-.531-.406a1.646 1.646 0 0 1-.219-.781c0-.188.135-.313.406-.375.146-.042.313-.136.5-.281.187-.167.365-.386.531-.657.813-1.5 1.386-2.646 1.719-3.437.354-.792.542-1.51.563-2.157 0-.187.083-.28.25-.28.229 0 .541.124.937.374s.594.51.594.782c0 .124-.031.25-.094.374a28.568 28.568 0 0 1-2.75 5.157c.458-.021.958-.084 1.5-.188l.937-.125c.355-.646.594-1.135.719-1.469.146-.354.229-.666.25-.937 0-.104.021-.188.063-.25a.298.298 0 0 1 .218-.094c.188 0 .459.146.813.438.375.27.563.52.563.75 0 .166-.063.375-.188.625a42.992 42.992 0 0 0-1.531 2.344c-.313.458-.813 1.218-1.5 2.28a50.172 50.172 0 0 1-1.813 2.594 65.483 65.483 0 0 0 2.844-.624l.844-.22c-.104-.187-.24-.437-.406-.75a9.246 9.246 0 0 0-.438-.75c-.146-.228-.219-.385-.219-.468 0-.188.104-.354.313-.5.229-.146.427-.219.594-.219.187 0 .343.115.468.344.084.208.375.719.875 1.531.917 1.48 1.375 2.334 1.375 2.563 0 .208-.125.406-.375.594-.25.166-.458.25-.625.25-.208 0-.375-.136-.5-.407l-.5-.969-1.844.5c-2.645.73-4.156 1.094-4.531 1.094-.229-.02-.437-.156-.625-.406-.166-.25-.25-.49-.25-.719Zm.219 13.656c0-.208.323-.51.969-.906a11.852 11.852 0 0 0 2.812-2.344c.854-.979 1.396-1.916 1.625-2.812l-1.593.156c-.105.021-.271.073-.5.156-.23.063-.438.094-.626.094-.437 0-.75-.146-.937-.437a1.653 1.653 0 0 1-.25-.969l.094-2.219v-.187a3.12 3.12 0 0 0-.469-1.625.73.73 0 0 1-.094-.281c0-.126.104-.188.313-.188.375 0 .781.083 1.219.25.437.167.656.448.656.844v.125l-.156 3 2.75-.219c.124-.667.187-1.5.187-2.5 0-.5-.031-.906-.094-1.219a1.784 1.784 0 0 0-.312-.844c-.104-.145-.157-.27-.157-.374 0-.167.146-.25.438-.25.229 0 .542.062.938.187.395.125.645.26.75.406a.84.84 0 0 1 .156.5c-.021 1.625-.084 2.938-.188 3.938a9.473 9.473 0 0 1-.687 2.719 8.3 8.3 0 0 1-2 2.874c-.854.771-1.709 1.344-2.563 1.72-.854.395-1.5.593-1.937.593-.229 0-.344-.063-.344-.188Zm8.5-20.437c0-.188.135-.313.406-.375.146-.042.313-.135.5-.281.188-.167.365-.375.531-.625.813-1.5 1.386-2.625 1.719-3.375.334-.75.511-1.438.531-2.063.042-.166.126-.25.25-.25.23 0 .542.125.938.375.396.25.594.5.594.75a.66.66 0 0 1-.094.344 27.745 27.745 0 0 1-2.75 5.031l2.438-.312c.374-.604.624-1.073.75-1.406.124-.355.197-.667.218-.938.042-.25.146-.375.313-.375.166 0 .437.146.812.438.375.291.563.552.563.78 0 .147-.063.344-.188.594l-1.562 2.25c-1.25 1.917-2.354 3.49-3.313 4.72.75-.105 1.636-.292 2.657-.563l1.218-.281c-.25-.459-.468-.823-.656-1.094-.146-.23-.219-.396-.219-.5 0-.167.104-.323.313-.469.229-.146.416-.219.562-.219.167 0 .334.115.5.344.271.5.532.938.782 1.313.979 1.562 1.468 2.468 1.468 2.718 0 .188-.125.375-.375.563-.25.166-.448.25-.593.25-.23 0-.396-.125-.5-.375-.25-.48-.48-.927-.688-1.344l-1.531.375c-.209.042-.865.198-1.969.469-1.104.25-1.823.375-2.156.375-.229 0-.438-.125-.625-.375-.167-.25-.25-.5-.25-.75 0-.146.135-.375.406-.688.125-.125.26-.291.406-.5.438-.583 1.136-1.552 2.094-2.906l.656-.969c-.416.084-.719.136-.906.156-1.313.25-2.156.376-2.531.376-.188 0-.354-.136-.5-.407a1.646 1.646 0 0 1-.219-.781Zm.906 7.594c0-.146.115-.219.344-.219.375 0 .781.104 1.219.313.458.208.687.552.687 1.03l.031 4.22 2.063-.094c.167 0 .396-.021.687-.063l.188-2.5v-.281c0-.563-.104-1.052-.312-1.469l-.063-.25c0-.146.104-.219.313-.219.354 0 .729.094 1.124.282.396.187.594.437.594.75v.156l-.281 3.219c.229.02.542.156.937.406.417.25.626.52.626.813 0 .124-.053.229-.157.312a.791.791 0 0 1-.406.156l-5.313.313.032 6.437c0 .438-.177.656-.532.656-.083 0-.25-.041-.5-.124a1.835 1.835 0 0 1-.718-.376.922.922 0 0 1-.313-.718c0-.188.011-.334.031-.438.167-1.229.25-2.26.25-3.094L221 75.564c0-.396-.031-.74-.094-1.032a3.813 3.813 0 0 0-.312-1.031.508.508 0 0 1-.063-.281Z"/></svg>