<svg width="350" height="88" viewBox="0 0 350 88" fill="none" xmlns="http://www.w3.org/2000/svg">
<path d="M158.934 8.19922C158.77 8.19922 158.852 8.05859 159.18 7.77734C159.508 7.49609 159.906 7.15625 160.375 6.75781C160.844 6.33594 161.371 5.78516 161.957 5.10547C162.332 4.66016 162.613 4.19141 162.801 3.69922C162.918 3.41797 163.047 3.27734 163.188 3.27734C163.305 3.27734 163.48 3.37109 163.715 3.55859C164.184 3.93359 164.418 4.25 164.418 4.50781C164.418 4.67188 164.324 4.78906 164.137 4.85938C164.043 4.88281 163.902 4.98828 163.715 5.17578C163.527 5.33984 163.387 5.46875 163.293 5.5625C162.285 6.54688 161.348 7.26172 160.48 7.70703C159.777 8.03516 159.309 8.19922 159.074 8.19922H158.934ZM162.625 14.7383C162.555 14.7383 162.438 14.6445 162.273 14.457C162.133 14.2461 162.027 14.0469 161.957 13.8594C161.934 13.7188 161.934 13.543 161.957 13.332C162.004 13.0977 162.027 12.9219 162.027 12.8047C162.074 12.3359 162.098 11.9609 162.098 11.6797C162.121 11.4219 162.121 11.1406 162.098 10.8359C162.098 10.5312 162.098 10.332 162.098 10.2383L162.062 9.71094C161.5 10.1094 161.066 10.3906 160.762 10.5547C160.082 10.9297 159.59 11.1641 159.285 11.2578C158.91 11.3984 158.57 11.4688 158.266 11.4688C158.102 11.4688 158.008 11.4453 157.984 11.3984C157.938 11.3047 158.406 10.9648 159.391 10.3789C160.328 9.79297 161.348 9.01953 162.449 8.05859C163.059 7.49609 163.527 6.95703 163.855 6.44141C163.902 6.37109 163.938 6.28906 163.961 6.19531C164.008 6.07812 164.055 6.00781 164.102 5.98438C164.172 5.96094 164.266 5.97266 164.383 6.01953C164.688 6.18359 164.945 6.41797 165.156 6.72266C165.25 6.83984 165.297 6.95703 165.297 7.07422C165.297 7.19141 165.238 7.30859 165.121 7.42578C165.004 7.51953 164.887 7.58984 164.77 7.63672C164.371 7.89453 164.008 8.17578 163.68 8.48047C163.352 8.78516 163.141 8.98438 163.047 9.07812C163.398 9.35938 163.574 9.55859 163.574 9.67578L163.469 10.4141C163.422 10.625 163.398 11.1523 163.398 11.9961C163.398 12.8164 163.422 13.3672 163.469 13.6484V13.7188C163.469 13.8359 163.434 13.9648 163.363 14.1055C163.316 14.2227 163.281 14.3047 163.258 14.3516C163.094 14.6094 162.883 14.7383 162.625 14.7383ZM166.211 23.668C165.859 23.668 165.52 23.4102 165.191 22.8945C164.77 22.2383 164.359 21.6992 163.961 21.2773L163.047 20.3281C162.555 20.8906 162.121 21.3359 161.746 21.6641C161.395 21.9922 160.949 22.3086 160.41 22.6133C159.402 23.1992 158.559 23.4922 157.879 23.4922C157.715 23.4922 157.633 23.4336 157.633 23.3164C157.633 23.2461 157.855 23.0938 158.301 22.8594C158.746 22.625 159.168 22.3438 159.566 22.0156C160.574 21.1719 161.406 20.3047 162.062 19.4141C161.922 19.2734 161.219 18.6641 159.953 17.5859C159.789 17.4688 159.543 17.2695 159.215 16.9883C159.145 16.9414 159.004 16.8359 158.793 16.6719C158.582 16.5078 158.477 16.3906 158.477 16.3203C158.477 16.2031 158.535 16.1445 158.652 16.1445C159.004 16.1445 159.566 16.3906 160.34 16.8828C161.113 17.3516 161.922 17.9141 162.766 18.5703C163.094 18.1719 163.352 17.7969 163.539 17.4453C163.727 17.0938 163.938 16.6602 164.172 16.1445C164.289 15.8867 164.359 15.6641 164.383 15.4766C164.406 15.2656 164.418 15.1367 164.418 15.0898C164.418 14.832 164.488 14.7031 164.629 14.7031C164.793 14.7031 165.016 14.832 165.297 15.0898C165.789 15.5586 166.035 15.875 166.035 16.0391C166.035 16.1328 165.977 16.2383 165.859 16.3555C165.578 16.6367 165.32 17.0117 165.086 17.4805C164.945 17.7617 164.688 18.1602 164.312 18.6758C164.195 18.8164 164.102 18.9453 164.031 19.0625C163.961 19.1797 163.891 19.2852 163.82 19.3789C164.359 19.7773 165.156 20.457 166.211 21.418C166.469 21.6523 166.633 21.875 166.703 22.0859C166.797 22.2734 166.844 22.5312 166.844 22.8594C166.844 23.0938 166.785 23.293 166.668 23.457C166.551 23.5977 166.398 23.668 166.211 23.668ZM166.844 28.3086C167.102 28.5898 167.23 28.8242 167.23 29.0117C167.23 29.1758 167.137 29.3281 166.949 29.4688C166.832 29.5625 166.539 30.0781 166.07 31.0156C165.555 31.8594 164.98 32.5859 164.348 33.1953C163.738 33.8281 163.129 34.2852 162.52 34.5664C162.379 34.6133 162.262 34.6367 162.168 34.6367C162.074 34.6367 162.027 34.6133 162.027 34.5664V34.4961C162.027 34.3555 162.145 34.1914 162.379 34.0039C162.801 33.6758 163.117 33.3359 163.328 32.9844C163.562 32.6562 163.738 32.4102 163.855 32.2461C164.348 31.543 164.699 30.9688 164.91 30.5234C165.145 30.125 165.309 29.7148 165.402 29.293H165.262C164.652 29.293 163.668 29.3633 162.309 29.5039C162.098 29.5273 161.488 29.6094 160.48 29.75C160.27 29.7734 159.941 29.832 159.496 29.9258L159.074 30.0312C158.98 30.0781 158.887 30.1016 158.793 30.1016C158.676 30.1016 158.559 30.0781 158.441 30.0312C158.324 29.9609 158.207 29.8789 158.09 29.7852C157.809 29.5508 157.668 29.3516 157.668 29.1875C157.691 29.1406 157.715 29.0703 157.738 28.9766C157.785 28.8828 157.809 28.8008 157.809 28.7305L157.984 27.5703C158.008 27.4531 158.031 27.3242 158.055 27.1836C158.078 27.043 158.09 26.9023 158.09 26.7617C158.09 26.3164 158.078 25.9648 158.055 25.707C158.055 25.4258 158.02 25.1328 157.949 24.8281V24.7227C157.949 24.5586 158.02 24.4766 158.16 24.4766C158.301 24.4766 158.547 24.582 158.898 24.793C159.367 25.1211 159.602 25.3789 159.602 25.5664C159.602 25.6367 159.59 25.6953 159.566 25.7422C159.543 25.7891 159.52 25.8359 159.496 25.8828C159.426 26.3047 159.391 26.5391 159.391 26.5859L159.215 28.4492C159.215 28.4961 159.238 28.5547 159.285 28.625C159.355 28.6719 159.426 28.6953 159.496 28.6953C160.059 28.6953 161.324 28.5547 163.293 28.2734C164.066 28.2031 164.617 28.1211 164.945 28.0273C165.156 28.0039 165.332 27.9688 165.473 27.9219C165.637 27.8516 165.742 27.8164 165.789 27.8164C165.93 27.7695 166.023 27.7461 166.07 27.7461C166.281 27.7461 166.539 27.9336 166.844 28.3086ZM144.238 21.4531C144.496 21.4531 144.742 21.5234 144.977 21.6641C144.039 20.6328 143.113 19.4727 142.199 18.1836L135.062 18.5352C134.43 19.543 133.656 20.5977 132.742 21.6992C133.023 21.7695 133.387 21.875 133.832 22.0156L144.027 21.4531H144.238ZM121.809 29.3633C121.809 29.1523 122.066 28.8594 122.582 28.4844C126.848 25.6016 130.188 22.332 132.602 18.6758L126.133 18.9922L125.289 19.0273C125.078 19.0273 124.926 19.0156 124.832 18.9922C124.621 18.9922 124.457 18.9336 124.34 18.8164C123.801 18.3711 123.473 17.8672 123.355 17.3047C123.332 17.2578 123.32 17.1992 123.32 17.1289C123.32 16.9648 123.391 16.8828 123.531 16.8828L123.707 16.918C124.176 17.0352 124.668 17.0938 125.184 17.0938H125.465L133.797 16.6719L134.008 16.2852C134.383 15.6055 134.781 14.75 135.203 13.7188L132.074 13.8945C131.863 13.918 131.594 13.9297 131.266 13.9297C130.773 13.9297 130.375 13.8008 130.07 13.543C129.766 13.2852 129.555 13.0156 129.438 12.7344C129.32 12.4297 129.262 12.2305 129.262 12.1367C129.262 12.0195 129.332 11.9609 129.473 11.9609L129.648 11.9961C130.07 12.0664 130.504 12.1016 130.949 12.1016H131.406L135.871 11.8203C136.082 11.2344 136.316 10.3906 136.574 9.28906L129.613 9.74609C129.426 9.76953 129.18 9.78125 128.875 9.78125C128.406 9.78125 127.984 9.67578 127.609 9.46484C127.234 9.25391 126.918 8.80859 126.66 8.12891L126.625 7.91797C126.625 7.75391 126.719 7.67188 126.906 7.67188L127.082 7.70703C127.738 7.80078 128.242 7.84766 128.594 7.84766H128.945L136.926 7.35547C137.137 6.23047 137.242 5.45703 137.242 5.03516C137.242 4.56641 137.16 4.15625 136.996 3.80469C136.926 3.61719 136.891 3.48828 136.891 3.41797C136.891 3.20703 137.031 3.10156 137.312 3.10156C137.664 3.10156 138.145 3.19531 138.754 3.38281C139.387 3.57031 139.703 3.89844 139.703 4.36719L139.668 4.71875C139.551 5.49219 139.41 6.32422 139.246 7.21484L146.383 6.75781C146.641 6.73438 147.121 6.61719 147.824 6.40625C147.965 6.35938 148.059 6.33594 148.105 6.33594C148.434 6.33594 148.832 6.55859 149.301 7.00391C149.793 7.42578 150.039 7.76562 150.039 8.02344C150.039 8.28125 149.781 8.43359 149.266 8.48047L138.859 9.14844C138.789 9.45312 138.578 10.2969 138.227 11.6797L143.816 11.3633C144.332 11.3164 144.777 11.2344 145.152 11.1172C145.293 11.0703 145.398 11.0469 145.469 11.0469C145.75 11.0469 146.113 11.2461 146.559 11.6445C147.027 12.043 147.262 12.3594 147.262 12.5938C147.262 12.7344 146.617 12.875 145.328 13.0156C144.062 13.1562 141.484 13.3438 137.594 13.5781C137.242 14.5156 136.797 15.5117 136.258 16.5664L150.215 15.8633C150.73 15.8398 151.234 15.7344 151.727 15.5469C151.773 15.5234 151.867 15.5117 152.008 15.5117C152.242 15.5117 152.5 15.6172 152.781 15.8281C153.086 16.0391 153.344 16.2852 153.555 16.5664C153.766 16.8242 153.871 17.0117 153.871 17.1289C153.871 17.4102 153.602 17.5742 153.062 17.6211L144.484 18.043C145.914 19.8477 147.461 21.4297 149.125 22.7891C150.789 24.1484 152.676 25.3203 154.785 26.3047C155.254 26.5156 155.488 26.7031 155.488 26.8672C155.488 26.9844 155.371 27.1719 155.137 27.4297C154.926 27.6641 154.668 27.8867 154.363 28.0977C154.082 28.2852 153.824 28.3789 153.59 28.3789C153.426 28.3789 152.945 28.1562 152.148 27.7109C151.375 27.2656 150.426 26.6094 149.301 25.7422C148.199 24.875 147.062 23.832 145.891 22.6133C145.914 22.6602 145.926 22.7188 145.926 22.7891C145.926 22.8594 145.891 22.9766 145.82 23.1406C145.773 23.2812 145.75 23.3984 145.75 23.4922L145.258 31.2969C145.867 32.0703 146.172 32.6094 146.172 32.9141C146.172 33.1016 146.078 33.2188 145.891 33.2656C145.727 33.3125 145.469 33.3359 145.117 33.3359L134.324 33.6172L134.359 34.4961V34.6016C134.359 35.0703 134.137 35.3047 133.691 35.3047C133.387 35.3047 133.023 35.1875 132.602 34.9531C132.18 34.7188 131.969 34.3672 131.969 33.8984V33.7578C131.969 33.5234 131.992 33.1953 132.039 32.7734C132.086 32.3516 132.109 32.0352 132.109 31.8242V31.5078L131.617 23.8438C131.617 23.7031 131.605 23.5742 131.582 23.457C131.559 23.3398 131.535 23.2227 131.512 23.1055C130.223 24.4648 128.898 25.625 127.539 26.5859C126.203 27.5469 125.02 28.2852 123.988 28.8008C122.98 29.3164 122.359 29.5742 122.125 29.5742C121.914 29.5742 121.809 29.5039 121.809 29.3633ZM133.938 26.6914L143.359 26.3398L143.465 23.457L133.797 23.9141L133.938 26.6914ZM134.219 31.6133L143.148 31.4023L143.289 28.2031L134.043 28.5547L134.219 31.6133Z" fill="#333333"/>
<path d="M219.121 14.3867C218.957 14.3867 218.781 14.2812 218.594 14.0703C218.453 13.9062 218.359 13.7773 218.312 13.6836C218.266 13.5664 218.266 13.4141 218.312 13.2266L218.348 12.3828C218.371 12.2188 218.383 11.8203 218.383 11.1875V10.0273L217.328 10.5195L216.098 11.0469C215.793 11.1641 215.477 11.3047 215.148 11.4688C214.867 11.6094 214.621 11.6797 214.41 11.6797C214.246 11.6562 214.059 11.5977 213.848 11.5039C213.637 11.4102 213.473 11.3281 213.355 11.2578C213.098 11.0938 212.98 10.918 213.004 10.7305L213.109 10.3789C213.109 10.1914 213.121 10.0273 213.145 9.88672L213.18 7.84766V5.94922C213.18 5.57422 213.156 5.25781 213.109 5C213.062 4.71875 213.027 4.51953 213.004 4.40234C213.004 4.28516 213.039 4.20312 213.109 4.15625C213.133 4.13281 213.191 4.12109 213.285 4.12109C213.449 4.12109 213.766 4.22656 214.234 4.4375C214.633 4.625 214.797 4.85938 214.727 5.14062C214.68 5.30469 214.633 5.55078 214.586 5.87891L214.48 9.92188C214.48 10.0391 214.492 10.1328 214.516 10.2031C214.562 10.25 214.609 10.2734 214.656 10.2734C214.938 10.2734 215.277 10.1914 215.676 10.0273C216.426 9.79297 217.07 9.55859 217.609 9.32422L218.383 9.00781V6.6875C218.383 5.75 218.324 4.84766 218.207 3.98047C218.184 3.91016 218.172 3.82812 218.172 3.73438C218.172 3.5 218.266 3.38281 218.453 3.38281C218.477 3.38281 218.605 3.42969 218.84 3.52344C219.191 3.71094 219.449 3.875 219.613 4.01562C219.777 4.15625 219.871 4.23828 219.895 4.26172C219.988 4.33203 220.035 4.40234 220.035 4.47266C220.035 4.51953 220.012 4.57812 219.965 4.64844C219.941 4.71875 219.918 4.77734 219.895 4.82422L219.789 5.87891L219.754 9.11328L219.789 12.2422C219.789 12.7812 219.754 13.25 219.684 13.6484C219.566 14.1406 219.379 14.3867 219.121 14.3867ZM212.652 20.1523C212.395 20.1523 212.078 19.9531 211.703 19.5547C211.422 19.2734 211.281 19.0625 211.281 18.9219C211.281 18.8516 211.328 18.8164 211.422 18.8164C211.516 18.793 211.633 18.7812 211.773 18.7812L212.547 18.7461C212.992 18.7461 213.285 18.7344 213.426 18.7109C213.871 18.7109 214.246 18.6992 214.551 18.6758C216.566 18.4883 217.926 18.3359 218.629 18.2188C218.98 18.1719 219.297 18.125 219.578 18.0781C219.859 18.0078 220.082 17.9727 220.246 17.9727C220.574 17.9727 220.902 18.1367 221.23 18.4648C221.488 18.7227 221.617 18.9336 221.617 19.0977C221.617 19.2383 221.535 19.332 221.371 19.3789C221.254 19.4023 220.562 19.4492 219.297 19.5195C218.594 19.543 217.727 19.6016 216.695 19.6953C215.664 19.7891 214.762 19.8828 213.988 19.9766C213.848 20 213.648 20.0352 213.391 20.082C213.133 20.1289 212.887 20.1523 212.652 20.1523ZM217.363 34.6719C216.637 34.6719 216.074 34.6484 215.676 34.6016C215.301 34.5547 214.984 34.4141 214.727 34.1797C214.281 33.8516 213.977 33.1367 213.812 32.0352L213.707 30.9102C213.707 30.6289 213.684 30.2773 213.637 29.8555C213.262 29.9023 212.992 29.9492 212.828 29.9961C212.781 30.0195 212.699 30.0547 212.582 30.1016C212.488 30.125 212.418 30.1367 212.371 30.1367C212.207 30.1367 212.055 30.0898 211.914 29.9961C211.773 29.9023 211.598 29.7266 211.387 29.4688C211.223 29.2578 211.141 29.1172 211.141 29.0469C211.141 28.9766 211.223 28.9297 211.387 28.9062C211.551 28.8828 211.773 28.8711 212.055 28.8711C212.453 28.8711 212.969 28.8242 213.602 28.7305L213.566 28.2383C213.566 27.3008 213.508 26.5039 213.391 25.8477L213.355 25.6016C213.355 25.2734 213.484 25.1445 213.742 25.2148C214.023 25.3086 214.281 25.4258 214.516 25.5664C214.703 25.6602 214.832 25.7539 214.902 25.8477C214.973 25.918 214.996 26.0234 214.973 26.1641L214.867 27.6758V28.5898L217.961 28.2734C217.961 28.1094 217.973 27.7227 217.996 27.1133C218.02 26.4805 218.02 26.0703 217.996 25.8828C217.996 25.6953 217.973 25.5195 217.926 25.3555C217.902 25.168 217.879 25.0156 217.855 24.8984C217.855 24.7109 217.949 24.6172 218.137 24.6172C218.324 24.6172 218.559 24.7227 218.84 24.9336C219.168 25.1445 219.379 25.332 219.473 25.4961C219.59 25.6602 219.613 25.8594 219.543 26.0938C219.426 26.4688 219.344 26.8906 219.297 27.3594C219.25 27.8281 219.227 28.1094 219.227 28.2031C219.508 28.1797 219.766 28.1445 220 28.0977C220.234 28.0508 220.387 28.0273 220.457 28.0273C220.645 27.9805 220.867 27.957 221.125 27.957C221.266 27.9805 221.465 28.1211 221.723 28.3789C221.934 28.6602 222.039 28.8828 222.039 29.0469C222.039 29.2812 221.816 29.375 221.371 29.3281C220.973 29.2578 220.574 29.2227 220.176 29.2227C219.777 29.2227 219.438 29.2344 219.156 29.2578C219.086 30.1016 218.945 30.9336 218.734 31.7539C218.688 31.9414 218.605 32.0938 218.488 32.2109C218.371 32.3516 218.266 32.4219 218.172 32.4219C218.008 32.4219 217.902 32.3516 217.855 32.2109C217.832 32.0938 217.82 31.8945 217.82 31.6133C217.867 31.0039 217.891 30.2422 217.891 29.3281C217.258 29.375 216.766 29.4219 216.414 29.4688C215.875 29.5859 215.371 29.6562 214.902 29.6797C214.879 30.6406 214.926 31.4961 215.043 32.2461C215.113 32.7383 215.254 33.0781 215.465 33.2656C215.605 33.3828 215.77 33.4531 215.957 33.4766C216.168 33.5 216.379 33.5117 216.59 33.5117C216.801 33.5117 216.941 33.5117 217.012 33.5117C217.738 33.5117 218.418 33.4766 219.051 33.4062C219.238 33.3828 219.402 33.3359 219.543 33.2656C219.707 33.1953 219.824 33.1602 219.895 33.1602C220.105 33.1602 220.316 33.2305 220.527 33.3711C220.738 33.5117 220.844 33.6758 220.844 33.8633C220.844 34.0508 220.738 34.1914 220.527 34.2852C220.34 34.3789 220.035 34.4609 219.613 34.5312C218.863 34.625 218.113 34.6719 217.363 34.6719ZM227.383 18.6758C227.664 18.6758 227.805 18.8047 227.805 19.0625C227.805 19.2031 227.676 19.4023 227.418 19.6602C226.715 20.5273 225.32 22.1797 223.234 24.6172C223.07 24.8281 222.918 24.9336 222.777 24.9336C222.66 24.9336 222.402 24.7578 222.004 24.4062C221.676 24.125 221.512 23.8906 221.512 23.7031C221.512 23.4922 221.688 23.293 222.039 23.1055C222.578 22.8008 223.387 22.1914 224.465 21.2773C225.543 20.3164 226.34 19.5547 226.855 18.9922C227.066 18.7812 227.242 18.6758 227.383 18.6758ZM182.699 30.1719C184.785 29.5156 186.648 28.8008 188.289 28.0273C187.938 27.5352 187.492 26.9727 186.953 26.3398C186.766 26.1055 186.672 25.918 186.672 25.7773C186.672 25.5195 186.824 25.2969 187.129 25.1094C187.434 24.8984 187.668 24.793 187.832 24.793C188.02 24.793 188.219 24.9102 188.43 25.1445C189.766 26.7148 190.902 28.0977 191.84 29.293C192.777 30.4883 193.246 31.2148 193.246 31.4727C193.246 31.6836 193.082 31.9297 192.754 32.2109C192.449 32.5156 192.156 32.668 191.875 32.668C191.641 32.668 191.406 32.4805 191.172 32.1055C190.633 31.2852 190.023 30.3945 189.344 29.4336L185.125 31.543C184.656 31.7539 183.918 32.1289 182.91 32.668C182.066 33.1133 181.551 33.3359 181.363 33.3359C181.223 33.3359 181.047 33.2422 180.836 33.0547C180.625 32.8906 180.461 32.6797 180.344 32.4219C180.25 32.1875 180.25 32 180.344 31.8594C180.484 31.6016 180.555 30.5703 180.555 28.7656V16.6016C180.555 16.0391 180.531 15.582 180.484 15.2305C180.461 14.8789 180.367 14.5039 180.203 14.1055C180.18 14.0352 180.156 13.9766 180.133 13.9297C180.109 13.8828 180.098 13.8359 180.098 13.7891C180.098 13.6719 180.18 13.6133 180.344 13.6133C180.648 13.6133 181.41 13.8711 182.629 14.3867L190.258 13.8594C190.445 13.8359 190.656 13.8242 190.891 13.8242C191.148 13.8242 191.453 13.9414 191.805 14.1758C192.156 14.3867 192.332 14.6211 192.332 14.8789C192.332 14.9727 192.273 15.1133 192.156 15.3008C192.062 15.4883 192.016 15.6289 192.016 15.7227L191.102 22.332C191.664 22.9883 191.945 23.4336 191.945 23.668C191.945 23.7852 191.875 23.8672 191.734 23.9141C191.617 23.9609 191.43 23.9844 191.172 23.9844L182.664 24.3008L182.699 30.1719ZM176.934 14.3867C176.934 14.1523 177.086 13.8711 177.391 13.543C179.102 11.6445 180.59 9.75781 181.855 7.88281C183.121 6.00781 183.754 4.75391 183.754 4.12109L183.719 3.875V3.76953C183.719 3.44141 183.848 3.27734 184.105 3.27734C184.41 3.27734 184.832 3.48828 185.371 3.91016C185.934 4.30859 186.215 4.63672 186.215 4.89453C186.215 5.01172 186.156 5.16406 186.039 5.35156C185.688 5.91406 185.301 6.47656 184.879 7.03906L189.871 6.65234C190.293 6.62891 190.738 6.53516 191.207 6.37109C191.348 6.32422 191.453 6.30078 191.523 6.30078C191.875 6.30078 192.25 6.5 192.648 6.89844C193.07 7.27344 193.281 7.56641 193.281 7.77734C193.281 8.05859 193.023 8.22266 192.508 8.26953L186.496 8.69141C186.66 8.73828 187.023 8.98438 187.586 9.42969C188.172 9.875 188.699 10.332 189.168 10.8008C189.637 11.2695 189.871 11.5977 189.871 11.7852C189.871 11.9961 189.73 12.2539 189.449 12.5586C189.168 12.8398 188.922 12.9805 188.711 12.9805C188.523 12.9805 188.301 12.8281 188.043 12.5234C187.246 11.6562 186.438 10.8945 185.617 10.2383C185.336 10.0039 185.195 9.80469 185.195 9.64062C185.195 9.52344 185.254 9.37109 185.371 9.18359C185.488 8.99609 185.641 8.84375 185.828 8.72656L183.473 8.90234C182.348 10.2852 181.105 11.5859 179.746 12.8047C178.387 14 177.52 14.5977 177.145 14.5977C177.004 14.5977 176.934 14.5273 176.934 14.3867ZM189.59 18.043L189.836 15.582L182.594 16.0742V18.3945L189.59 18.043ZM189.133 22.4023L189.414 19.6953L182.629 20.0117V22.6484L189.133 22.4023ZM191.031 12.875C191.031 12.6406 191.184 12.3594 191.488 12.0312C192.637 10.6484 193.68 9.08984 194.617 7.35547C195.578 5.59766 196.059 4.36719 196.059 3.66406V3.52344C196.059 3.17188 196.188 2.99609 196.445 2.99609C196.609 2.99609 196.855 3.08984 197.184 3.27734C197.535 3.44141 197.852 3.64062 198.133 3.875C198.414 4.10938 198.555 4.34375 198.555 4.57812C198.555 4.78906 198.391 5.16406 198.062 5.70312C197.734 6.24219 197.559 6.52344 197.535 6.54688L204.461 5.98438C204.977 5.9375 205.422 5.85547 205.797 5.73828C205.844 5.71484 205.938 5.70312 206.078 5.70312C206.406 5.70312 206.758 5.89062 207.133 6.26562C207.531 6.61719 207.73 6.91016 207.73 7.14453C207.73 7.28516 207.66 7.40234 207.52 7.49609C207.402 7.56641 207.238 7.61328 207.027 7.63672L199.891 8.12891C200.547 8.55078 201.32 9.17188 202.211 9.99219C203.102 10.7891 203.547 11.3281 203.547 11.6094C203.547 11.7734 203.418 12.0312 203.16 12.3828C202.902 12.7109 202.656 12.875 202.422 12.875C202.234 12.875 202.035 12.7578 201.824 12.5234C200.676 11.2812 199.633 10.2969 198.695 9.57031C198.461 9.38281 198.344 9.20703 198.344 9.04297C198.344 8.85547 198.52 8.57422 198.871 8.19922L196.27 8.375C195.496 9.40625 194.559 10.4492 193.457 11.5039C192.379 12.5586 191.652 13.0859 191.277 13.0859C191.113 13.0859 191.031 13.0156 191.031 12.875ZM194.336 13.6484C194.336 13.5078 194.418 13.4375 194.582 13.4375C194.934 13.4375 195.73 13.7305 196.973 14.3164L204.039 13.7188L204.32 13.6836C204.414 13.6836 204.59 13.7305 204.848 13.8242C205.129 13.8945 205.387 14.0234 205.621 14.2109C205.879 14.375 206.008 14.5977 206.008 14.8789C206.008 14.9727 205.973 15.1016 205.902 15.2656C205.832 15.4297 205.797 15.5469 205.797 15.6172C205.773 18.1953 205.609 20.9492 205.305 23.8789L205.234 24.7578C205.164 25.7422 205.07 26.5625 204.953 27.2188C204.836 27.875 204.637 28.3906 204.355 28.7656C203.91 29.375 203.43 29.6797 202.914 29.6797C202.398 29.6797 201.742 29.3633 200.945 28.7305C200.148 28.0977 199.41 27.4062 198.73 26.6562C198.074 25.9062 197.746 25.4258 197.746 25.2148C197.746 25.0508 197.84 24.9688 198.027 24.9688C198.238 24.9688 198.531 25.0859 198.906 25.3203C199.773 25.8594 200.5 26.293 201.086 26.6211C201.672 26.9492 202.094 27.1133 202.352 27.1133C202.469 27.1133 202.551 27.0312 202.598 26.8672C203.137 23.8672 203.465 20.1055 203.582 15.582L196.973 16.0742C196.973 20.0352 197.008 26.3164 197.078 34.918C197.078 35.1289 197.02 35.2812 196.902 35.375C196.809 35.4922 196.68 35.5508 196.516 35.5508C196.328 35.5508 196.105 35.4805 195.848 35.3398C195.402 35.1523 195.086 34.9766 194.898 34.8125C194.711 34.6484 194.617 34.4609 194.617 34.25L194.652 34.0039C194.793 33.2305 194.863 32.3633 194.863 31.4023L194.758 16.5664C194.758 15.957 194.734 15.4883 194.688 15.1602C194.664 14.832 194.594 14.5156 194.477 14.2109C194.383 13.9297 194.336 13.7422 194.336 13.6484Z" fill="#333333"/>
<path d="M139.094 71.1875C138.094 71.1875 137.427 71.125 137.094 71C136.698 70.8125 136.438 70.3854 136.312 69.7188C136.25 69.3646 136.219 68.9167 136.219 68.375L136.094 66.3438V65.5625C136.073 65.5417 136.062 65.4896 136.062 65.4062L136.031 65.0625C136.01 64.8958 135.917 64.6979 135.75 64.4688C135.688 64.3438 135.656 64.25 135.656 64.1875C135.656 64.0417 135.833 64 136.188 64.0625C136.562 64.125 136.99 64.1562 137.469 64.1562C137.802 64.1562 138.427 64.1354 139.344 64.0938C139.656 64.0729 140.385 63.9792 141.531 63.8125L142.531 63.5938L142.781 63.5312C142.969 63.5312 143.198 63.6458 143.469 63.875C143.698 64.0625 143.812 64.2396 143.812 64.4062C143.812 64.6146 143.656 64.7396 143.344 64.7812C142.531 64.8438 141.906 64.875 141.469 64.875L140.344 64.9375C140.01 64.9792 139.781 65 139.656 65C138.281 65.0625 137.5 65.0938 137.312 65.0938C137.312 66.5521 137.323 67.4583 137.344 67.8125C137.385 68.3958 137.417 68.8542 137.438 69.1875C137.479 69.5208 137.531 69.7396 137.594 69.8438C137.635 69.9271 137.708 69.9896 137.812 70.0312C137.938 70.0521 138.052 70.0729 138.156 70.0938C138.281 70.0938 138.375 70.0938 138.438 70.0938C138.458 70.0938 138.51 70.1042 138.594 70.125C138.698 70.125 138.896 70.125 139.188 70.125C139.396 70.125 139.75 70.1042 140.25 70.0625C140.896 70.0208 141.521 69.9375 142.125 69.8125C142.271 69.7917 142.604 69.7812 143.125 69.7812C143.375 69.7812 143.615 69.8958 143.844 70.125C143.948 70.2292 144 70.375 144 70.5625C144 70.7083 143.958 70.8125 143.875 70.875C143.75 70.9375 143.552 70.9896 143.281 71.0312C143.031 71.0521 142.708 71.0729 142.312 71.0938C141.167 71.1562 140.094 71.1875 139.094 71.1875ZM143.562 81.8438C143.854 82.0312 144 82.2083 144 82.375C144 82.6042 143.823 82.75 143.469 82.8125C143.115 82.875 142.615 82.9167 141.969 82.9375C141.031 82.9583 140.427 82.9271 140.156 82.8438C139.698 82.6354 139.469 82.2917 139.469 81.8125L139.5 80.6562C139.542 80.2812 139.562 79.9479 139.562 79.6562C139.583 79.4688 139.594 79.1042 139.594 78.5625C139.281 79.2708 138.875 79.9583 138.375 80.625C138.021 81.0625 137.708 81.4271 137.438 81.7188C137.167 81.9896 136.844 82.25 136.469 82.5C136.094 82.75 135.75 82.875 135.438 82.875C135.25 82.875 135.156 82.8125 135.156 82.6875C135.156 82.6667 135.354 82.5104 135.75 82.2188C136.167 81.9062 136.583 81.4792 137 80.9375C137.625 80.1042 138.167 79.125 138.625 78C137.812 78.1042 137.271 78.1979 137 78.2812C136.896 78.3021 136.802 78.3333 136.719 78.375C136.635 78.3958 136.531 78.3958 136.406 78.375C136.302 78.3333 136.156 78.25 135.969 78.125C135.781 77.9792 135.635 77.8438 135.531 77.7188C135.448 77.5938 135.406 77.5104 135.406 77.4688C135.406 77.3646 135.562 77.3125 135.875 77.3125C136.646 77.3125 137.635 77.2292 138.844 77.0625C138.969 76.5833 139.031 75.8125 139.031 74.75V74.1562C139.031 73.9062 139.083 73.7708 139.188 73.75C139.208 73.7292 139.25 73.7188 139.312 73.7188C139.479 73.7188 139.708 73.8438 140 74.0938C140.229 74.2812 140.375 74.4271 140.438 74.5312C140.521 74.6146 140.531 74.7292 140.469 74.875C140.448 74.9167 140.406 75 140.344 75.125C140.281 75.25 140.24 75.375 140.219 75.5C140.198 75.6042 140.156 75.8125 140.094 76.125C140.031 76.4167 139.99 76.6771 139.969 76.9062C140.26 76.8854 140.625 76.8438 141.062 76.7812C141.5 76.7188 141.823 76.6562 142.031 76.5938L142.656 76.4375C142.865 76.3958 143.208 76.5729 143.688 76.9688C143.771 77.0312 143.812 77.1042 143.812 77.1875C143.812 77.2708 143.771 77.3438 143.688 77.4062C143.625 77.4479 143.542 77.4688 143.438 77.4688C143.062 77.4688 142.375 77.5312 141.375 77.6562L140.344 77.75C140.573 77.9167 140.719 78.0625 140.781 78.1875C140.844 78.3125 140.854 78.4375 140.812 78.5625L140.719 79.0625C140.677 79.4792 140.635 79.9375 140.594 80.4375C140.573 80.9375 140.573 81.3229 140.594 81.5938C140.594 81.6979 140.656 81.7917 140.781 81.875C140.927 81.9583 141.073 82 141.219 82C141.74 82 142.323 81.9479 142.969 81.8438L143.25 81.7812C143.375 81.7812 143.479 81.8021 143.562 81.8438ZM145.562 71.2188C145.667 71.2188 145.823 71.2917 146.031 71.4375C146.01 71.4792 146.052 71.5625 146.156 71.6875C146.26 71.7917 146.333 71.8646 146.375 71.9062C146.479 72.0104 146.583 72.1354 146.688 72.2812C146.812 72.4271 146.948 72.5833 147.094 72.75C147.469 73.1458 148.333 74.1771 149.688 75.8438C149.917 76.1771 150.031 76.375 150.031 76.4375C150.031 76.6458 149.906 76.75 149.656 76.75C149.51 76.75 149.354 76.6458 149.188 76.4375C148.792 76.0208 148.083 75.3646 147.062 74.4688C146.271 73.7396 145.552 73.1771 144.906 72.7812C144.594 72.6354 144.438 72.4688 144.438 72.2812C144.438 72.1354 144.594 71.9271 144.906 71.6562C145.198 71.3646 145.417 71.2188 145.562 71.2188ZM129.375 67.9062C128.896 69.6562 128.375 71.25 127.812 72.6875C127.271 74.125 126.615 75.5104 125.844 76.8438C127.844 79.6771 130.427 82.2708 133.594 84.625C133.802 84.7708 133.906 84.9167 133.906 85.0625C133.906 85.2292 133.688 85.4688 133.25 85.7812C132.812 86.0938 132.458 86.25 132.188 86.25C131.958 86.25 131.385 85.8125 130.469 84.9375C129.552 84.0625 128.542 83.0208 127.438 81.8125C126.354 80.5833 125.458 79.4896 124.75 78.5312C123.521 80.3021 122.271 81.7604 121 82.9062C119.729 84.0521 118.625 84.8854 117.688 85.4062C116.771 85.9271 116.188 86.1875 115.938 86.1875C115.771 86.1875 115.688 86.125 115.688 86C115.688 85.8125 115.885 85.5521 116.281 85.2188C117.781 84.0104 119.115 82.7396 120.281 81.4062C121.469 80.0729 122.573 78.5417 123.594 76.8125C122.219 74.6458 121.104 72.4167 120.25 70.125C119.708 71 119.073 71.9062 118.344 72.8438C117.615 73.7812 117.083 74.25 116.75 74.25C116.604 74.25 116.531 74.1562 116.531 73.9688C116.531 73.7188 116.646 73.4271 116.875 73.0938C117.833 71.5729 118.729 69.875 119.562 68C120.396 66.1042 121.052 64.3854 121.531 62.8438C122.031 61.2812 122.281 60.2292 122.281 59.6875L122.25 59.1562V59.0938C122.25 58.9271 122.354 58.8438 122.562 58.8438C122.917 58.8438 123.344 59.0625 123.844 59.5C124.344 59.9167 124.594 60.25 124.594 60.5C124.594 60.7292 124.333 61.5104 123.812 62.8438C123.292 64.1771 122.74 65.4479 122.156 66.6562L129.438 66.2188C129.833 66.1979 130.281 66.0938 130.781 65.9062C130.948 65.8646 131.062 65.8438 131.125 65.8438C131.333 65.8438 131.573 65.9479 131.844 66.1562C132.115 66.3438 132.344 66.5625 132.531 66.8125C132.74 67.0417 132.844 67.2188 132.844 67.3438C132.844 67.5729 132.615 67.7083 132.156 67.75L129.375 67.9062ZM104.062 84.3125C104.062 84.125 104.156 83.8438 104.344 83.4688C106.948 78.8021 108.646 73.4583 109.438 67.4375L106.906 67.625C106.74 67.6458 106.51 67.6562 106.219 67.6562C105.865 67.6562 105.552 67.5417 105.281 67.3125C105.01 67.0833 104.792 66.8333 104.625 66.5625C104.479 66.2708 104.406 66.0521 104.406 65.9062C104.406 65.7812 104.479 65.7188 104.625 65.7188L104.906 65.7812C105.448 65.9062 105.865 65.9688 106.156 65.9688H106.344L115.719 65.3125C116.115 65.2917 116.521 65.2083 116.938 65.0625C117.146 65.0208 117.281 65 117.344 65C117.615 65 117.948 65.1875 118.344 65.5625C118.76 65.9167 118.969 66.2083 118.969 66.4375C118.969 66.6667 118.729 66.8021 118.25 66.8438L111.375 67.3125C111.125 68.8542 110.917 70.0104 110.75 70.7812L114.469 70.4375L114.812 70.4062C115.104 70.4062 115.354 70.4896 115.562 70.6562C115.792 70.8229 115.958 71.0104 116.062 71.2188C116.167 71.4062 116.219 71.5417 116.219 71.625C116.219 71.75 116.177 71.8854 116.094 72.0312C116.01 72.1771 115.969 72.2812 115.969 72.3438C115.594 75.8438 115.24 78.5104 114.906 80.3438C114.573 82.1562 114.271 83.3646 114 83.9688C113.729 84.5521 113.438 84.9583 113.125 85.1875C112.729 85.4167 112.438 85.5312 112.25 85.5312C111.833 85.5312 111.292 85.2292 110.625 84.625C109.979 84.0417 109.396 83.3854 108.875 82.6562C108.354 81.9271 108.094 81.4271 108.094 81.1562C108.094 81.0104 108.156 80.9375 108.281 80.9375C108.406 80.9375 108.667 81.0833 109.062 81.375C109.792 81.9583 110.698 82.5625 111.781 83.1875C111.802 83.2083 111.844 83.2188 111.906 83.2188C112.073 83.2188 112.167 83.1458 112.188 83C112.688 81.4583 113.062 79.8542 113.312 78.1875C113.583 76.5 113.823 74.5104 114.031 72.2188L110.375 72.4688C109.792 74.8854 109.083 76.9896 108.25 78.7812C107.438 80.5521 106.365 82.3021 105.031 84.0312C104.74 84.4062 104.49 84.5938 104.281 84.5938C104.135 84.5938 104.062 84.5 104.062 84.3125ZM108.469 61.2188C108.469 61.0312 108.552 60.8229 108.719 60.5938C108.906 60.3438 109.073 60.1979 109.219 60.1562C109.26 60.1354 109.323 60.125 109.406 60.125C109.552 60.125 109.719 60.1875 109.906 60.3125C110.01 60.375 110.219 60.5 110.531 60.6875C113.052 62.2292 114.354 63.1875 114.438 63.5625C114.5 63.8333 114.385 64.1354 114.094 64.4688C113.823 64.7812 113.604 64.9583 113.438 65L113.312 65.0312C113.188 65.0312 113 64.9271 112.75 64.7188C110.958 63.3021 109.667 62.3229 108.875 61.7812C108.729 61.6771 108.625 61.5833 108.562 61.5C108.5 61.4167 108.469 61.3229 108.469 61.2188ZM121.469 68.3438C122.323 70.7812 123.365 73 124.594 75C125.719 72.7083 126.552 70.3854 127.094 68.0312L121.469 68.3438Z" fill="#333333"/>
<path d="M187.875 68.2188C187.708 68.2188 187.542 68.1875 187.375 68.125C187.208 68.0417 187.083 67.9167 187 67.75C186.938 67.5625 186.802 67.3438 186.594 67.0938C186.406 66.8438 186.219 66.6562 186.031 66.5312L186.156 66.375C186.26 66.4375 186.51 66.5625 186.906 66.75C187.302 66.9375 187.594 67.0312 187.781 67.0312C188.073 67.0312 188.333 66.9271 188.562 66.7188C188.792 66.5104 189.083 66.1146 189.438 65.5312C189.688 65.1354 189.917 64.6667 190.125 64.125C190.333 63.5833 190.49 63.0833 190.594 62.625L190.625 62.5625C190.625 62.5 190.604 62.4479 190.562 62.4062C190.521 62.3438 190.479 62.3125 190.438 62.3125L189 62.4375C188.042 62.6042 187.042 62.7396 186 62.8438C185.812 62.8646 185.594 62.9167 185.344 63C185.094 63.0833 184.917 63.125 184.812 63.125C184.646 63.125 184.427 62.9896 184.156 62.7188C184.052 62.6354 183.948 62.5312 183.844 62.4062C183.76 62.2812 183.74 62.1771 183.781 62.0938C183.948 61.9271 184.031 61.8438 184.031 61.8438L184.188 61.7188C184.479 61.4271 184.771 61.0417 185.062 60.5625C185.271 60.2708 185.49 59.7812 185.719 59.0938C185.719 58.8646 185.771 58.75 185.875 58.75C185.938 58.75 186.042 58.7917 186.188 58.875L186.688 59.1875C186.812 59.2917 186.896 59.375 186.938 59.4375C186.979 59.5 187 59.5833 187 59.6875C187 59.8125 186.917 59.9688 186.75 60.1562C186.583 60.3229 186.438 60.4896 186.312 60.6562L185.594 61.6875L185.531 61.8125C185.531 61.875 185.615 61.9062 185.781 61.9062L188.188 61.5938L189.812 61.4688L190.438 61.4062L190.781 61.3438H190.875C191.083 61.3438 191.312 61.5208 191.562 61.875C191.854 62.1458 192 62.375 192 62.5625L191.844 62.9688C191.823 63.0104 191.656 63.5 191.344 64.4375C190.969 65.3333 190.646 66.0104 190.375 66.4688C190.104 66.9271 189.812 67.2812 189.5 67.5312C188.938 67.9896 188.396 68.2188 187.875 68.2188ZM184.469 73.4688C184.24 73.4688 183.958 73.2917 183.625 72.9375C183.375 72.6875 183.25 72.5 183.25 72.375C183.25 72.3125 183.292 72.2812 183.375 72.2812C183.458 72.2604 183.562 72.25 183.688 72.25L184.375 72.2188C184.771 72.2188 185.031 72.2083 185.156 72.1875C185.552 72.1875 185.885 72.1771 186.156 72.1562C187.948 71.9896 189.156 71.8542 189.781 71.75C190.094 71.7083 190.375 71.6667 190.625 71.625C190.875 71.5625 191.073 71.5312 191.219 71.5312C191.51 71.5312 191.802 71.6771 192.094 71.9688C192.323 72.1979 192.438 72.3854 192.438 72.5312C192.438 72.6562 192.365 72.7396 192.219 72.7812C192.115 72.8021 191.5 72.8438 190.375 72.9062C189.75 72.9271 188.979 72.9792 188.062 73.0625C187.146 73.1458 186.344 73.2292 185.656 73.3125C185.531 73.3333 185.354 73.3646 185.125 73.4062C184.896 73.4479 184.677 73.4688 184.469 73.4688ZM189.125 80.4375C188.917 80.7083 188.698 80.8438 188.469 80.8438C188.406 80.8438 188.375 80.7917 188.375 80.6875C188.375 80.5417 188.417 80.375 188.5 80.1875C188.5 80.1875 188.708 79.7708 189.125 78.9375C189.146 78.8542 189.177 78.7708 189.219 78.6875C189.26 78.6042 189.292 78.5312 189.312 78.4688V78.4375C189.312 78.3958 189.281 78.3542 189.219 78.3125C189.156 78.2708 189.083 78.2604 189 78.2812C188.667 78.3021 188.167 78.3542 187.5 78.4375C186.854 78.5208 186.375 78.6042 186.062 78.6875C185.938 78.7292 185.781 78.7812 185.594 78.8438C185.427 78.9062 185.292 78.9375 185.188 78.9375C184.812 78.9375 184.5 78.8229 184.25 78.5938C184.042 78.4479 183.885 78.3021 183.781 78.1562L183.719 78C183.719 77.8958 183.896 77.8646 184.25 77.9062C184.729 77.9479 185.719 77.8854 187.219 77.7188L187.844 77.625C188.01 77.6042 188.271 77.5729 188.625 77.5312C189 77.4688 189.292 77.4062 189.5 77.3438C189.562 77.3229 189.625 77.3021 189.688 77.2812C189.771 77.2396 189.844 77.2188 189.906 77.2188C190.01 77.2188 190.135 77.2708 190.281 77.375C190.448 77.4792 190.583 77.5729 190.688 77.6562C190.833 77.7604 190.927 77.8542 190.969 77.9375C191.031 78 191.052 78.0833 191.031 78.1875C191.031 78.2917 190.979 78.3854 190.875 78.4688C190.771 78.5521 190.698 78.6146 190.656 78.6562C190.615 78.7188 190.469 78.875 190.219 79.125C190.115 79.2917 189.927 79.5208 189.656 79.8125C189.406 80.1042 189.229 80.3125 189.125 80.4375ZM187.562 86.5938C187.562 86.5312 187.667 86.3646 187.875 86.0938C188.104 85.8438 188.281 85.6458 188.406 85.5C188.719 85.0833 189.094 84.4792 189.531 83.6875C189.99 82.8958 190.25 82.375 190.312 82.125C190.354 82 190.292 81.9375 190.125 81.9375C189.792 81.9375 188.875 82.0312 187.375 82.2188C186.396 82.3438 185.667 82.4688 185.188 82.5938C185.083 82.6562 184.979 82.6875 184.875 82.6875C184.708 82.6875 184.531 82.5729 184.344 82.3438C184.26 82.1979 184.219 82.0625 184.219 81.9375C184.219 81.8542 184.271 81.7708 184.375 81.6875L184.469 81.5625C184.531 81.4375 184.604 81.2708 184.688 81.0625C184.771 80.8542 184.844 80.6562 184.906 80.4688C185.01 80.1354 185.083 79.7708 185.125 79.375C185.146 79.1458 185.271 79.0833 185.5 79.1875C185.792 79.3333 186.01 79.4792 186.156 79.625C186.323 79.75 186.375 79.8438 186.312 79.9062C186.104 80.1562 185.938 80.4375 185.812 80.75C185.708 81.0833 185.646 81.3021 185.625 81.4062C185.625 81.4896 185.677 81.5312 185.781 81.5312C186.094 81.5312 186.562 81.4792 187.188 81.375C187.542 81.3333 187.979 81.2812 188.5 81.2188C189.021 81.1562 189.438 81.0938 189.75 81.0312L190.531 80.875C190.594 80.8542 190.677 80.8438 190.781 80.8438C190.885 80.8438 190.99 80.8854 191.094 80.9688C191.198 81.0312 191.312 81.1146 191.438 81.2188C191.646 81.4062 191.781 81.5625 191.844 81.6875C191.906 81.7917 191.938 81.9167 191.938 82.0625C191.938 82.1458 191.875 82.25 191.75 82.375C191.646 82.5 191.521 82.6979 191.375 82.9688C190.771 84.1979 189.99 85.2292 189.031 86.0625C188.76 86.2708 188.458 86.4479 188.125 86.5938C187.979 86.6354 187.844 86.6562 187.719 86.6562C187.615 86.6771 187.562 86.6562 187.562 86.5938ZM174.75 75.25C174.625 76.3333 174.469 77.3333 174.281 78.25C174.156 78.8333 174 79.3854 173.812 79.9062C176.188 82.0312 178.833 83.7188 181.75 84.9688C182.062 85.0938 182.219 85.2396 182.219 85.4062C182.198 85.4688 182.125 85.5938 182 85.7812C181.875 85.9896 181.719 86.1771 181.531 86.3438C181.344 86.5312 181.146 86.625 180.938 86.625C180.75 86.625 180.25 86.4062 179.438 85.9688C178.625 85.5312 177.656 84.9167 176.531 84.125C175.406 83.3333 174.281 82.4375 173.156 81.4375C172.552 82.5417 171.875 83.4688 171.125 84.2188C170.396 84.9896 169.719 85.5625 169.094 85.9375C168.469 86.3125 168.062 86.5 167.875 86.5C167.688 86.5 167.594 86.4271 167.594 86.2812C167.594 86.1146 167.76 85.875 168.094 85.5625C169.781 84.125 171.062 82.375 171.938 80.3125C171.25 79.5208 170.698 79.0208 170.281 78.8125C169.865 78.5833 169.365 78.4688 168.781 78.4688C168.448 78.4688 168.198 78.4271 168.031 78.3438C167.885 78.2604 167.812 78.0625 167.812 77.75V77.6562C167.833 77.3021 167.885 77.0833 167.969 77C168.073 76.9167 168.292 76.875 168.625 76.875H168.781C169.49 76.875 170.073 76.9792 170.531 77.1875C171.01 77.375 171.521 77.75 172.062 78.3125C172.104 78.3542 172.167 78.4062 172.25 78.4688C172.333 78.5312 172.417 78.6146 172.5 78.7188C172.688 77.9271 172.823 77.3125 172.906 76.875C172.99 76.4167 173.052 75.8958 173.094 75.3125L171.281 75.375L171.312 75.625V75.7188C171.312 76.0729 171.167 76.25 170.875 76.25C170.625 76.25 170.344 76.1458 170.031 75.9375C169.719 75.7292 169.562 75.4688 169.562 75.1562V74.9062C169.604 74.5729 169.625 74.2604 169.625 73.9688V73.5625L169.094 67.5C169.073 67 168.969 66.5312 168.781 66.0938C168.698 65.8438 168.656 65.6875 168.656 65.625C168.656 65.4792 168.76 65.4062 168.969 65.4062C169.323 65.4062 169.875 65.5312 170.625 65.7812L173.375 65.5938C173.375 65.0104 173.354 64.1771 173.312 63.0938L171.094 63.25H170.844C170.448 63.25 170.125 63.1458 169.875 62.9375C169.646 62.7292 169.469 62.5104 169.344 62.2812C169.24 62.0312 169.188 61.8646 169.188 61.7812C169.188 61.6562 169.271 61.5938 169.438 61.5938L169.625 61.625C169.958 61.6667 170.229 61.6875 170.438 61.6875H170.781L176.688 61.25C177.062 61.2292 177.417 61.1667 177.75 61.0625C177.875 61.0208 177.99 61 178.094 61C178.323 61 178.635 61.1667 179.031 61.5C179.427 61.8125 179.625 62.0833 179.625 62.3125C179.625 62.5417 179.333 62.6771 178.75 62.7188L175 62.9688C175.021 63.5312 175.031 64.375 175.031 65.5L178.188 65.2812H178.406C178.698 65.2812 178.99 65.3958 179.281 65.625C179.594 65.8542 179.75 66.0833 179.75 66.3125C179.75 66.4167 179.708 66.5312 179.625 66.6562C179.542 66.7604 179.5 66.8438 179.5 66.9062L178.75 73.5625C179.229 74.1042 179.469 74.4792 179.469 74.6875C179.469 74.8125 179.406 74.9062 179.281 74.9688C179.177 75.0104 178.99 75.0417 178.719 75.0625L174.75 75.25ZM152.031 79.25C152.031 79.125 152.083 79.0625 152.188 79.0625C152.271 79.0625 152.333 79.0729 152.375 79.0938C152.792 79.1979 153.167 79.25 153.5 79.25H153.75L157.562 79.125L157.594 76.9688L155.969 77.0625L156.031 77.5625V77.625C156.031 77.875 155.906 78 155.656 78C155.406 78 155.104 77.8958 154.75 77.6875C154.417 77.4583 154.25 77.1979 154.25 76.9062V76.7188L154.281 76.125C154.281 75.9583 154.26 75.6042 154.219 75.0625L153.969 72.3125C153.948 72 153.823 71.5729 153.594 71.0312C153.51 70.8229 153.469 70.6875 153.469 70.625C153.469 70.5 153.552 70.4375 153.719 70.4375C154.031 70.4375 154.635 70.625 155.531 71L157.625 70.9062L157.656 68.7812H157.219V69.1562C157.219 69.4062 157.073 69.5312 156.781 69.5312C156.552 69.5312 156.271 69.4479 155.938 69.2812C155.604 69.0938 155.438 68.875 155.438 68.625C155.438 68.5 155.448 68.3958 155.469 68.3125C155.531 67.9583 155.562 67.5938 155.562 67.2188V66.7188L155.469 65.0625L154.656 65.125C154.51 65.1458 154.333 65.1562 154.125 65.1562C153.771 65.1562 153.5 65.0729 153.312 64.9062L153.031 64.625C152.885 64.3958 152.76 64.1458 152.656 63.875C152.635 63.8333 152.625 63.7812 152.625 63.7188C152.625 63.6146 152.677 63.5625 152.781 63.5625L152.938 63.5938C153.292 63.6562 153.635 63.6875 153.969 63.6875H154.375L155.375 63.625L155.281 62.0938C155.24 61.3021 155.073 60.6771 154.781 60.2188C154.74 60.1562 154.719 60.0938 154.719 60.0312C154.719 59.9271 154.812 59.875 155 59.875C155.333 59.875 155.719 59.9479 156.156 60.0938C156.594 60.2188 156.823 60.5208 156.844 61L156.969 63.5L159.875 63.2812L159.938 61.7188V61.1875C159.938 60.5625 159.844 60.0312 159.656 59.5938C159.635 59.5521 159.625 59.5 159.625 59.4375C159.625 59.3333 159.698 59.2812 159.844 59.2812C159.927 59.2812 160.125 59.3333 160.438 59.4375C160.75 59.5208 161.031 59.6458 161.281 59.8125C161.552 59.9792 161.688 60.1771 161.688 60.4062L161.656 60.625L161.5 63.1875L162.25 63.125C162.625 63.1042 162.958 63.0417 163.25 62.9375C163.292 62.9167 163.354 62.9062 163.438 62.9062C163.667 62.9062 163.948 63.0521 164.281 63.3438C164.615 63.6354 164.781 63.8958 164.781 64.125C164.781 64.3125 164.635 64.4271 164.344 64.4688L161.375 64.6562L161.219 67.25C161.719 67.7708 161.969 68.125 161.969 68.3125C161.969 68.4167 161.917 68.4896 161.812 68.5312C161.729 68.5521 161.583 68.5729 161.375 68.5938L159.188 68.6875V70.8125L161.688 70.6875L161.969 70.6562C162.219 70.6562 162.49 70.7604 162.781 70.9688C163.073 71.1562 163.219 71.3646 163.219 71.5938C163.219 71.6979 163.177 71.8229 163.094 71.9688C163.01 72.0938 162.969 72.1875 162.969 72.25L162.406 75.3438C162.844 75.8438 163.062 76.2188 163.062 76.4688C163.062 76.6771 162.896 76.7812 162.562 76.7812L159.156 76.9062V79.0625L161.688 78.9688C162.229 78.9479 162.719 78.8542 163.156 78.6875C163.198 78.6667 163.26 78.6562 163.344 78.6562C163.594 78.6562 163.906 78.8333 164.281 79.1875C164.677 79.5417 164.875 79.8229 164.875 80.0312C164.875 80.2188 164.729 80.3333 164.438 80.375H164.375L159.156 80.5938L159.125 86C159.125 86.5208 158.969 86.7812 158.656 86.7812C158.427 86.7812 158.135 86.6354 157.781 86.3438C157.427 86.0729 157.25 85.7917 157.25 85.5C157.25 85.4167 157.271 85.2708 157.312 85.0625C157.458 84.375 157.531 83.6667 157.531 82.9375L157.562 80.6562L154.281 80.8125L153.625 80.8438C153.125 80.8438 152.729 80.6667 152.438 80.3125C152.167 79.9583 152.031 79.6042 152.031 79.25ZM155.844 75.5938L157.594 75.5L157.625 72.3438L155.531 72.4375L155.844 75.5938ZM157.156 67.4375L159.688 67.3125L159.812 64.7812L157.031 64.9688L157.156 67.4375ZM160.875 75.375L161.281 72.1562L159.188 72.25L159.156 75.4375L160.875 75.375ZM163.188 74.2812C163.188 74.0938 163.25 73.8646 163.375 73.5938C164.292 71.5104 165.021 69.5208 165.562 67.625C166.104 65.7083 166.479 64.1354 166.688 62.9062C166.896 61.6771 167 60.9583 167 60.75C167 60.6042 166.979 60.4479 166.938 60.2812L166.906 60.1562C166.906 59.9896 166.99 59.9062 167.156 59.9062C167.302 59.9062 167.521 59.9792 167.812 60.125C168.125 60.25 168.396 60.4167 168.625 60.625C168.875 60.8125 169 61.0104 169 61.2188C169 61.3021 168.99 61.3646 168.969 61.4062C168.26 64.1354 167.625 66.2917 167.062 67.875L167.125 85.4688C167.125 85.6354 167.073 85.7812 166.969 85.9062C166.885 86.0312 166.76 86.0938 166.594 86.0938C166.365 86.0938 166.073 85.9792 165.719 85.75C165.385 85.5417 165.219 85.2604 165.219 84.9062C165.219 84.7396 165.229 84.6146 165.25 84.5312C165.333 84.0104 165.375 83.25 165.375 82.25L165.438 71.5312C165.292 71.8854 164.969 72.4896 164.469 73.3438C163.969 74.1771 163.604 74.5938 163.375 74.5938C163.25 74.5938 163.188 74.4896 163.188 74.2812ZM170.875 69.6875L173.375 69.5625C173.396 69.0208 173.406 68.2083 173.406 67.125L170.688 67.2812L170.875 69.6875ZM171.156 73.875L173.219 73.7812C173.302 72.6146 173.344 71.6875 173.344 71L171 71.125L171.156 73.875ZM177.188 73.5938L177.406 70.7812L175 70.9062C175 71.5729 174.958 72.5104 174.875 73.7188L177.188 73.5938ZM177.5 69.3125L177.688 66.8438L175.062 67C175.062 68.1042 175.052 68.9271 175.031 69.4688L177.5 69.3125Z" fill="#333333"/>
<path d="M239.562 70.25C239.854 70.5 240 70.9062 240 71.4688C239.958 71.7812 239.823 71.9271 239.594 71.9062C239.323 71.9271 238.99 71.7604 238.594 71.4062C238.427 71.2188 238.083 70.9271 237.562 70.5312C237.062 70.1146 236.615 69.7812 236.219 69.5312C235.615 70.0729 234.885 70.5938 234.031 71.0938C233.198 71.5938 232.531 71.8438 232.031 71.8438C231.823 71.8438 231.719 71.7812 231.719 71.6562C231.719 71.6146 231.958 71.4479 232.438 71.1562C233 70.8438 233.552 70.4792 234.094 70.0625C234.615 69.6667 235.042 69.3021 235.375 68.9688L234.656 68.5625C234.177 68.25 233.865 68.0625 233.719 68C233.094 67.6042 232.781 67.3542 232.781 67.25C232.781 67.1875 232.885 67.1562 233.094 67.1562C233.26 67.1354 233.646 67.2604 234.25 67.5312L236 68.3438L236.469 67.8438C236.531 67.7604 236.604 67.6771 236.688 67.5938C236.771 67.5104 236.854 67.4167 236.938 67.3125C237.25 66.9167 237.5 66.5833 237.688 66.3125C237.896 66.0208 238.01 65.8021 238.031 65.6562C238.031 65.5729 237.958 65.5312 237.812 65.5312C237.604 65.5312 237.156 65.5833 236.469 65.6875L235.719 65.7812C235.135 65.8646 234.646 65.9583 234.25 66.0625C234.021 66.1042 233.823 66.1667 233.656 66.25C233.594 66.2708 233.5 66.2812 233.375 66.2812C233.25 66.2812 233.156 66.2812 233.094 66.2812C233.031 66.2604 232.979 66.2188 232.938 66.1562C232.896 66.1146 232.833 66.0417 232.75 65.9375C232.646 65.7708 232.594 65.6354 232.594 65.5312C232.594 65.4896 232.677 65.3854 232.844 65.2188L233.438 64.5312C233.583 64.3438 233.76 64.0521 233.969 63.6562C234.177 63.2396 234.292 62.9167 234.312 62.6875C234.312 62.625 234.354 62.5938 234.438 62.5938C234.625 62.5938 234.844 62.6979 235.094 62.9062C235.198 62.9896 235.281 63.0833 235.344 63.1875C235.427 63.2917 235.469 63.375 235.469 63.4375C235.469 63.5208 235.417 63.6146 235.312 63.7188C235.208 63.8229 234.969 64.1354 234.594 64.6562L234.156 65.2188L235.969 64.9062C236.74 64.8438 237.312 64.7604 237.688 64.6562L238.156 64.5938C238.26 64.5729 238.385 64.5625 238.531 64.5625C238.677 64.5625 238.917 64.7188 239.25 65.0312C239.375 65.1354 239.458 65.2292 239.5 65.3125C239.562 65.375 239.594 65.4479 239.594 65.5312C239.594 65.6146 239.573 65.6979 239.531 65.7812C239.49 65.8438 239.448 65.9062 239.406 65.9688C239.198 66.1771 238.896 66.5625 238.5 67.125C238.167 67.6042 237.677 68.1875 237.031 68.875L237.812 69.25C238.812 69.75 239.396 70.0833 239.562 70.25ZM239.188 80.8125C239.229 80.8958 239.302 81.0208 239.406 81.1875C239.51 81.3542 239.562 81.5521 239.562 81.7812C239.562 81.9896 239.479 82.1562 239.312 82.2812C239.146 82.4271 238.958 82.5 238.75 82.5C238.562 82.5 238.406 82.3125 238.281 81.9375C238.219 81.7917 238.167 81.6771 238.125 81.5938C238.104 81.4896 238.083 81.4062 238.062 81.3438C237.792 81.4271 237.438 81.5 237 81.5625C236.562 81.625 236.25 81.6771 236.062 81.7188C235.062 81.9062 234.375 82.0417 234 82.125C233.854 82.1667 233.698 82.2188 233.531 82.2812C233.365 82.3229 233.271 82.3542 233.25 82.375C233.125 82.4167 233.031 82.4375 232.969 82.4375C232.802 82.4375 232.646 82.3646 232.5 82.2188C232.25 82.0312 232.062 81.7812 231.938 81.4688C231.917 81.4479 231.906 81.4167 231.906 81.375C231.906 81.3333 231.958 81.2812 232.062 81.2188C232.188 81.1562 232.281 81.1146 232.344 81.0938C232.615 80.9479 233.094 80.5104 233.781 79.7812L234.625 78.9688L232.781 77.9688C232.573 77.9062 232.438 77.8333 232.375 77.75C232.312 77.6667 232.281 77.5417 232.281 77.375C232.281 77.25 232.302 77.1667 232.344 77.125C232.406 77.0625 232.531 76.9688 232.719 76.8438C232.906 76.7188 233.094 76.5521 233.281 76.3438C233.385 76.2188 233.521 76.0833 233.688 75.9375C233.854 75.7917 234.01 75.6354 234.156 75.4688C234.781 74.7396 235.177 74.1667 235.344 73.75C235.448 73.5417 235.531 73.4375 235.594 73.4375C235.635 73.4375 235.719 73.4792 235.844 73.5625C236.24 73.8542 236.479 74.125 236.562 74.375V74.4688C236.562 74.5729 236.51 74.6562 236.406 74.7188C236.302 74.7812 236.229 74.8333 236.188 74.875C236.125 74.9167 235.812 75.2188 235.25 75.7812L234.688 76.3438C234.583 76.4479 234.406 76.625 234.156 76.875C233.906 77.1042 233.781 77.2396 233.781 77.2812C233.781 77.3438 233.812 77.3958 233.875 77.4375C233.958 77.4792 234.021 77.5208 234.062 77.5625L235.375 78.1875C236.188 77.375 236.656 76.8958 236.781 76.75C237.323 76.125 237.625 75.7292 237.688 75.5625C237.708 75.5417 237.74 75.4896 237.781 75.4062C237.823 75.3229 237.865 75.2812 237.906 75.2812C237.969 75.2812 238.031 75.3125 238.094 75.375C238.427 75.6875 238.667 75.9792 238.812 76.25C238.854 76.3333 238.875 76.3854 238.875 76.4062C238.875 76.4479 238.823 76.5104 238.719 76.5938C238.635 76.6562 238.552 76.7188 238.469 76.7812C237.74 77.3854 236.885 78.1771 235.906 79.1562L234 80.9375C233.958 80.9792 233.938 81.0208 233.938 81.0625C233.938 81.1042 233.958 81.1354 234 81.1562C234.042 81.1771 234.104 81.1771 234.188 81.1562L237.844 80.5312C237.74 80.1146 237.615 79.6979 237.469 79.2812V79.2188C237.469 79.1562 237.5 79.125 237.562 79.125C237.646 79.125 237.771 79.1875 237.938 79.3125C238.271 79.6042 238.688 80.1042 239.188 80.8125ZM241.562 71.2188C241.667 71.2188 241.823 71.2917 242.031 71.4375C242.01 71.4792 242.052 71.5625 242.156 71.6875C242.26 71.7917 242.333 71.8646 242.375 71.9062C242.479 72.0104 242.583 72.1354 242.688 72.2812C242.812 72.4271 242.948 72.5833 243.094 72.75C243.469 73.1458 244.333 74.1771 245.688 75.8438C245.917 76.1771 246.031 76.375 246.031 76.4375C246.031 76.6458 245.906 76.75 245.656 76.75C245.51 76.75 245.354 76.6458 245.188 76.4375C244.792 76.0208 244.083 75.3646 243.062 74.4688C242.271 73.7396 241.552 73.1771 240.906 72.7812C240.594 72.6354 240.438 72.4688 240.438 72.2812C240.438 72.1354 240.594 71.9271 240.906 71.6562C241.198 71.3646 241.417 71.2188 241.562 71.2188ZM229.094 79.625C229.094 81.0417 229.052 82.125 228.969 82.875C228.885 83.625 228.656 84.2396 228.281 84.7188C227.906 85.1979 227.312 85.4896 226.5 85.5938C224.75 85.8021 222.833 85.9062 220.75 85.9062C219.042 85.9062 217.375 85.8438 215.75 85.7188C214.896 85.6562 214.219 85.3438 213.719 84.7812C213.219 84.2188 212.969 83.4583 212.969 82.5L213.062 70.7812C213.062 70.1979 212.958 69.6875 212.75 69.25C211.208 71.2292 210.229 72.2188 209.812 72.2188C209.688 72.2188 209.625 72.1458 209.625 72C209.625 71.7708 209.75 71.4792 210 71.125C211.104 69.5833 212.031 68 212.781 66.375C213.552 64.7292 214.125 63.3021 214.5 62.0938C214.896 60.8646 215.094 60.125 215.094 59.875C215.094 59.5625 215.042 59.2917 214.938 59.0625C214.917 59.0208 214.906 58.9583 214.906 58.875C214.906 58.7292 215 58.6562 215.188 58.6562C215.375 58.6562 215.656 58.7396 216.031 58.9062C216.427 59.0729 216.771 59.2708 217.062 59.5C217.375 59.7292 217.531 59.9479 217.531 60.1562C217.531 60.2604 217.521 60.3333 217.5 60.375C216.896 61.9167 216.323 63.2292 215.781 64.3125L225.312 63.6875L225.594 63.6562C225.823 63.6562 226.083 63.7604 226.375 63.9688C226.688 64.1562 226.844 64.4271 226.844 64.7812C226.844 64.9062 226.823 65.0521 226.781 65.2188C226.74 65.3646 226.708 65.4792 226.688 65.5625C226.604 67.6042 226.417 69.8229 226.125 72.2188C225.854 74.5938 225.615 76.2917 225.406 77.3125C225.219 78.2708 224.979 79.0208 224.688 79.5625C224.417 80.1042 223.969 80.375 223.344 80.375C223.01 80.375 222.448 80.1458 221.656 79.6875C220.865 79.2292 220.125 78.7396 219.438 78.2188C218.771 77.6771 218.438 77.3021 218.438 77.0938C218.438 76.9271 218.562 76.8438 218.812 76.8438C219.042 76.8438 219.312 76.9062 219.625 77.0312C220.625 77.4688 221.635 77.8438 222.656 78.1562C222.698 78.1771 222.76 78.1875 222.844 78.1875C223.073 78.1875 223.323 77.4792 223.594 76.0625C223.865 74.6458 224.094 72.9375 224.281 70.9375C224.49 68.9167 224.625 67.125 224.688 65.5625L214.781 66.1562C214.302 66.9896 213.771 67.8125 213.188 68.625C213.542 68.6875 214.146 68.875 215 69.1875L219.75 68.9062L220.031 68.875C220.26 68.875 220.531 68.9896 220.844 69.2188C221.177 69.4479 221.344 69.6875 221.344 69.9375C221.344 70.0417 221.312 70.1562 221.25 70.2812C221.208 70.4062 221.177 70.5 221.156 70.5625L220.625 74.4062C221.125 74.9896 221.375 75.4062 221.375 75.6562C221.375 75.8021 221.302 75.9062 221.156 75.9688C221.031 76.0104 220.823 76.0417 220.531 76.0625L214.906 76.3125L214.844 82.1875C214.844 82.7083 214.927 83.0833 215.094 83.3125C215.281 83.5417 215.594 83.6771 216.031 83.7188C217.573 83.9062 219.104 84 220.625 84C222.521 84 224.292 83.875 225.938 83.625C226.312 83.5625 226.594 83.4375 226.781 83.25C226.99 83.0417 227.188 82.6042 227.375 81.9375C227.562 81.2708 227.76 80.2083 227.969 78.75C228.031 78.3333 228.115 78.0104 228.219 77.7812C228.344 77.5312 228.469 77.4062 228.594 77.4062C228.719 77.4062 228.823 77.5312 228.906 77.7812C229.01 78.0104 229.073 78.3542 229.094 78.8125V79.625ZM200.219 86.375C200.219 86.1458 200.375 85.8438 200.688 85.4688C204.021 81.3229 205.719 76.5417 205.781 71.125L205.875 61.7188C205.875 61.3021 205.75 60.875 205.5 60.4375C205.396 60.2708 205.344 60.1354 205.344 60.0312C205.344 59.9062 205.448 59.8438 205.656 59.8438C206.01 59.8438 206.448 59.9375 206.969 60.125C207.49 60.3125 207.75 60.6146 207.75 61.0312L207.625 68.75C209.062 67.2083 209.854 65.9688 210 65.0312C210.042 64.7812 210.135 64.6562 210.281 64.6562C210.531 64.6562 210.833 64.8438 211.188 65.2188C211.562 65.5938 211.75 65.8958 211.75 66.125C211.75 66.3333 211.448 66.8229 210.844 67.5938C210.24 68.3646 209.156 69.4375 207.594 70.8125V71.0938C207.552 72.7812 207.406 74.3021 207.156 75.6562C209.906 79.4896 211.281 81.6979 211.281 82.2812C211.281 82.5104 211.146 82.7708 210.875 83.0625C210.604 83.3333 210.354 83.4688 210.125 83.4688C209.875 83.4688 209.656 83.25 209.469 82.8125C208.677 81.1042 207.729 79.4167 206.625 77.75C206.083 79.5833 205.375 81.1667 204.5 82.5C203.625 83.8333 202.781 84.8438 201.969 85.5312C201.177 86.2396 200.656 86.5938 200.406 86.5938C200.281 86.5938 200.219 86.5208 200.219 86.375ZM201.406 66.6562C201.406 66.5104 201.458 66.3958 201.562 66.3125C201.688 66.2292 201.875 66.1458 202.125 66.0625C202.333 66.0208 202.469 66 202.531 66C202.698 66 202.823 66.0625 202.906 66.1875C203.01 66.2917 203.104 66.4688 203.188 66.7188C203.604 68.2396 203.948 70.125 204.219 72.375C204.24 72.4583 204.25 72.5729 204.25 72.7188C204.25 72.9479 204.188 73.125 204.062 73.25C203.938 73.3542 203.719 73.4167 203.406 73.4375L203.062 73.4688C202.812 73.4688 202.635 73.4062 202.531 73.2812C202.427 73.1562 202.365 72.9271 202.344 72.5938C202.24 70.5104 201.958 68.6771 201.5 67.0938C201.438 66.9271 201.406 66.7812 201.406 66.6562ZM218.844 74.4375L219.156 70.6875L214.938 70.9062L214.906 74.625L218.844 74.4375Z" fill="#333333"/>
</svg>
