<svg width="350" height="88" viewBox="0 0 350 88" fill="none" xmlns="http://www.w3.org/2000/svg">
<path d="M158.934 8.19922C158.77 8.19922 158.852 8.05859 159.18 7.77734C159.508 7.49609 159.906 7.15625 160.375 6.75781C160.844 6.33594 161.371 5.78516 161.957 5.10547C162.332 4.66016 162.613 4.19141 162.801 3.69922C162.918 3.41797 163.047 3.27734 163.188 3.27734C163.305 3.27734 163.48 3.37109 163.715 3.55859C164.184 3.93359 164.418 4.25 164.418 4.50781C164.418 4.67188 164.324 4.78906 164.137 4.85938C164.043 4.88281 163.902 4.98828 163.715 5.17578C163.527 5.33984 163.387 5.46875 163.293 5.5625C162.285 6.54688 161.348 7.26172 160.48 7.70703C159.777 8.03516 159.309 8.19922 159.074 8.19922H158.934ZM162.625 14.7383C162.555 14.7383 162.438 14.6445 162.273 14.457C162.133 14.2461 162.027 14.0469 161.957 13.8594C161.934 13.7188 161.934 13.543 161.957 13.332C162.004 13.0977 162.027 12.9219 162.027 12.8047C162.074 12.3359 162.098 11.9609 162.098 11.6797C162.121 11.4219 162.121 11.1406 162.098 10.8359C162.098 10.5312 162.098 10.332 162.098 10.2383L162.062 9.71094C161.5 10.1094 161.066 10.3906 160.762 10.5547C160.082 10.9297 159.59 11.1641 159.285 11.2578C158.91 11.3984 158.57 11.4688 158.266 11.4688C158.102 11.4688 158.008 11.4453 157.984 11.3984C157.938 11.3047 158.406 10.9648 159.391 10.3789C160.328 9.79297 161.348 9.01953 162.449 8.05859C163.059 7.49609 163.527 6.95703 163.855 6.44141C163.902 6.37109 163.938 6.28906 163.961 6.19531C164.008 6.07812 164.055 6.00781 164.102 5.98438C164.172 5.96094 164.266 5.97266 164.383 6.01953C164.688 6.18359 164.945 6.41797 165.156 6.72266C165.25 6.83984 165.297 6.95703 165.297 7.07422C165.297 7.19141 165.238 7.30859 165.121 7.42578C165.004 7.51953 164.887 7.58984 164.77 7.63672C164.371 7.89453 164.008 8.17578 163.68 8.48047C163.352 8.78516 163.141 8.98438 163.047 9.07812C163.398 9.35938 163.574 9.55859 163.574 9.67578L163.469 10.4141C163.422 10.625 163.398 11.1523 163.398 11.9961C163.398 12.8164 163.422 13.3672 163.469 13.6484V13.7188C163.469 13.8359 163.434 13.9648 163.363 14.1055C163.316 14.2227 163.281 14.3047 163.258 14.3516C163.094 14.6094 162.883 14.7383 162.625 14.7383ZM166.211 23.668C165.859 23.668 165.52 23.4102 165.191 22.8945C164.77 22.2383 164.359 21.6992 163.961 21.2773L163.047 20.3281C162.555 20.8906 162.121 21.3359 161.746 21.6641C161.395 21.9922 160.949 22.3086 160.41 22.6133C159.402 23.1992 158.559 23.4922 157.879 23.4922C157.715 23.4922 157.633 23.4336 157.633 23.3164C157.633 23.2461 157.855 23.0938 158.301 22.8594C158.746 22.625 159.168 22.3438 159.566 22.0156C160.574 21.1719 161.406 20.3047 162.062 19.4141C161.922 19.2734 161.219 18.6641 159.953 17.5859C159.789 17.4688 159.543 17.2695 159.215 16.9883C159.145 16.9414 159.004 16.8359 158.793 16.6719C158.582 16.5078 158.477 16.3906 158.477 16.3203C158.477 16.2031 158.535 16.1445 158.652 16.1445C159.004 16.1445 159.566 16.3906 160.34 16.8828C161.113 17.3516 161.922 17.9141 162.766 18.5703C163.094 18.1719 163.352 17.7969 163.539 17.4453C163.727 17.0938 163.938 16.6602 164.172 16.1445C164.289 15.8867 164.359 15.6641 164.383 15.4766C164.406 15.2656 164.418 15.1367 164.418 15.0898C164.418 14.832 164.488 14.7031 164.629 14.7031C164.793 14.7031 165.016 14.832 165.297 15.0898C165.789 15.5586 166.035 15.875 166.035 16.0391C166.035 16.1328 165.977 16.2383 165.859 16.3555C165.578 16.6367 165.32 17.0117 165.086 17.4805C164.945 17.7617 164.688 18.1602 164.312 18.6758C164.195 18.8164 164.102 18.9453 164.031 19.0625C163.961 19.1797 163.891 19.2852 163.82 19.3789C164.359 19.7773 165.156 20.457 166.211 21.418C166.469 21.6523 166.633 21.875 166.703 22.0859C166.797 22.2734 166.844 22.5312 166.844 22.8594C166.844 23.0938 166.785 23.293 166.668 23.457C166.551 23.5977 166.398 23.668 166.211 23.668ZM166.844 28.3086C167.102 28.5898 167.23 28.8242 167.23 29.0117C167.23 29.1758 167.137 29.3281 166.949 29.4688C166.832 29.5625 166.539 30.0781 166.07 31.0156C165.555 31.8594 164.98 32.5859 164.348 33.1953C163.738 33.8281 163.129 34.2852 162.52 34.5664C162.379 34.6133 162.262 34.6367 162.168 34.6367C162.074 34.6367 162.027 34.6133 162.027 34.5664V34.4961C162.027 34.3555 162.145 34.1914 162.379 34.0039C162.801 33.6758 163.117 33.3359 163.328 32.9844C163.562 32.6562 163.738 32.4102 163.855 32.2461C164.348 31.543 164.699 30.9688 164.91 30.5234C165.145 30.125 165.309 29.7148 165.402 29.293H165.262C164.652 29.293 163.668 29.3633 162.309 29.5039C162.098 29.5273 161.488 29.6094 160.48 29.75C160.27 29.7734 159.941 29.832 159.496 29.9258L159.074 30.0312C158.98 30.0781 158.887 30.1016 158.793 30.1016C158.676 30.1016 158.559 30.0781 158.441 30.0312C158.324 29.9609 158.207 29.8789 158.09 29.7852C157.809 29.5508 157.668 29.3516 157.668 29.1875C157.691 29.1406 157.715 29.0703 157.738 28.9766C157.785 28.8828 157.809 28.8008 157.809 28.7305L157.984 27.5703C158.008 27.4531 158.031 27.3242 158.055 27.1836C158.078 27.043 158.09 26.9023 158.09 26.7617C158.09 26.3164 158.078 25.9648 158.055 25.707C158.055 25.4258 158.02 25.1328 157.949 24.8281V24.7227C157.949 24.5586 158.02 24.4766 158.16 24.4766C158.301 24.4766 158.547 24.582 158.898 24.793C159.367 25.1211 159.602 25.3789 159.602 25.5664C159.602 25.6367 159.59 25.6953 159.566 25.7422C159.543 25.7891 159.52 25.8359 159.496 25.8828C159.426 26.3047 159.391 26.5391 159.391 26.5859L159.215 28.4492C159.215 28.4961 159.238 28.5547 159.285 28.625C159.355 28.6719 159.426 28.6953 159.496 28.6953C160.059 28.6953 161.324 28.5547 163.293 28.2734C164.066 28.2031 164.617 28.1211 164.945 28.0273C165.156 28.0039 165.332 27.9688 165.473 27.9219C165.637 27.8516 165.742 27.8164 165.789 27.8164C165.93 27.7695 166.023 27.7461 166.07 27.7461C166.281 27.7461 166.539 27.9336 166.844 28.3086ZM144.238 21.4531C144.496 21.4531 144.742 21.5234 144.977 21.6641C144.039 20.6328 143.113 19.4727 142.199 18.1836L135.062 18.5352C134.43 19.543 133.656 20.5977 132.742 21.6992C133.023 21.7695 133.387 21.875 133.832 22.0156L144.027 21.4531H144.238ZM121.809 29.3633C121.809 29.1523 122.066 28.8594 122.582 28.4844C126.848 25.6016 130.188 22.332 132.602 18.6758L126.133 18.9922L125.289 19.0273C125.078 19.0273 124.926 19.0156 124.832 18.9922C124.621 18.9922 124.457 18.9336 124.34 18.8164C123.801 18.3711 123.473 17.8672 123.355 17.3047C123.332 17.2578 123.32 17.1992 123.32 17.1289C123.32 16.9648 123.391 16.8828 123.531 16.8828L123.707 16.918C124.176 17.0352 124.668 17.0938 125.184 17.0938H125.465L133.797 16.6719L134.008 16.2852C134.383 15.6055 134.781 14.75 135.203 13.7188L132.074 13.8945C131.863 13.918 131.594 13.9297 131.266 13.9297C130.773 13.9297 130.375 13.8008 130.07 13.543C129.766 13.2852 129.555 13.0156 129.438 12.7344C129.32 12.4297 129.262 12.2305 129.262 12.1367C129.262 12.0195 129.332 11.9609 129.473 11.9609L129.648 11.9961C130.07 12.0664 130.504 12.1016 130.949 12.1016H131.406L135.871 11.8203C136.082 11.2344 136.316 10.3906 136.574 9.28906L129.613 9.74609C129.426 9.76953 129.18 9.78125 128.875 9.78125C128.406 9.78125 127.984 9.67578 127.609 9.46484C127.234 9.25391 126.918 8.80859 126.66 8.12891L126.625 7.91797C126.625 7.75391 126.719 7.67188 126.906 7.67188L127.082 7.70703C127.738 7.80078 128.242 7.84766 128.594 7.84766H128.945L136.926 7.35547C137.137 6.23047 137.242 5.45703 137.242 5.03516C137.242 4.56641 137.16 4.15625 136.996 3.80469C136.926 3.61719 136.891 3.48828 136.891 3.41797C136.891 3.20703 137.031 3.10156 137.312 3.10156C137.664 3.10156 138.145 3.19531 138.754 3.38281C139.387 3.57031 139.703 3.89844 139.703 4.36719L139.668 4.71875C139.551 5.49219 139.41 6.32422 139.246 7.21484L146.383 6.75781C146.641 6.73438 147.121 6.61719 147.824 6.40625C147.965 6.35938 148.059 6.33594 148.105 6.33594C148.434 6.33594 148.832 6.55859 149.301 7.00391C149.793 7.42578 150.039 7.76562 150.039 8.02344C150.039 8.28125 149.781 8.43359 149.266 8.48047L138.859 9.14844C138.789 9.45312 138.578 10.2969 138.227 11.6797L143.816 11.3633C144.332 11.3164 144.777 11.2344 145.152 11.1172C145.293 11.0703 145.398 11.0469 145.469 11.0469C145.75 11.0469 146.113 11.2461 146.559 11.6445C147.027 12.043 147.262 12.3594 147.262 12.5938C147.262 12.7344 146.617 12.875 145.328 13.0156C144.062 13.1562 141.484 13.3438 137.594 13.5781C137.242 14.5156 136.797 15.5117 136.258 16.5664L150.215 15.8633C150.73 15.8398 151.234 15.7344 151.727 15.5469C151.773 15.5234 151.867 15.5117 152.008 15.5117C152.242 15.5117 152.5 15.6172 152.781 15.8281C153.086 16.0391 153.344 16.2852 153.555 16.5664C153.766 16.8242 153.871 17.0117 153.871 17.1289C153.871 17.4102 153.602 17.5742 153.062 17.6211L144.484 18.043C145.914 19.8477 147.461 21.4297 149.125 22.7891C150.789 24.1484 152.676 25.3203 154.785 26.3047C155.254 26.5156 155.488 26.7031 155.488 26.8672C155.488 26.9844 155.371 27.1719 155.137 27.4297C154.926 27.6641 154.668 27.8867 154.363 28.0977C154.082 28.2852 153.824 28.3789 153.59 28.3789C153.426 28.3789 152.945 28.1562 152.148 27.7109C151.375 27.2656 150.426 26.6094 149.301 25.7422C148.199 24.875 147.062 23.832 145.891 22.6133C145.914 22.6602 145.926 22.7188 145.926 22.7891C145.926 22.8594 145.891 22.9766 145.82 23.1406C145.773 23.2812 145.75 23.3984 145.75 23.4922L145.258 31.2969C145.867 32.0703 146.172 32.6094 146.172 32.9141C146.172 33.1016 146.078 33.2188 145.891 33.2656C145.727 33.3125 145.469 33.3359 145.117 33.3359L134.324 33.6172L134.359 34.4961V34.6016C134.359 35.0703 134.137 35.3047 133.691 35.3047C133.387 35.3047 133.023 35.1875 132.602 34.9531C132.18 34.7188 131.969 34.3672 131.969 33.8984V33.7578C131.969 33.5234 131.992 33.1953 132.039 32.7734C132.086 32.3516 132.109 32.0352 132.109 31.8242V31.5078L131.617 23.8438C131.617 23.7031 131.605 23.5742 131.582 23.457C131.559 23.3398 131.535 23.2227 131.512 23.1055C130.223 24.4648 128.898 25.625 127.539 26.5859C126.203 27.5469 125.02 28.2852 123.988 28.8008C122.98 29.3164 122.359 29.5742 122.125 29.5742C121.914 29.5742 121.809 29.5039 121.809 29.3633ZM133.938 26.6914L143.359 26.3398L143.465 23.457L133.797 23.9141L133.938 26.6914ZM134.219 31.6133L143.148 31.4023L143.289 28.2031L134.043 28.5547L134.219 31.6133Z" fill="#333333"/>
<path d="M219.121 14.3867C218.957 14.3867 218.781 14.2812 218.594 14.0703C218.453 13.9062 218.359 13.7773 218.312 13.6836C218.266 13.5664 218.266 13.4141 218.312 13.2266L218.348 12.3828C218.371 12.2188 218.383 11.8203 218.383 11.1875V10.0273L217.328 10.5195L216.098 11.0469C215.793 11.1641 215.477 11.3047 215.148 11.4688C214.867 11.6094 214.621 11.6797 214.41 11.6797C214.246 11.6562 214.059 11.5977 213.848 11.5039C213.637 11.4102 213.473 11.3281 213.355 11.2578C213.098 11.0938 212.98 10.918 213.004 10.7305L213.109 10.3789C213.109 10.1914 213.121 10.0273 213.145 9.88672L213.18 7.84766V5.94922C213.18 5.57422 213.156 5.25781 213.109 5C213.062 4.71875 213.027 4.51953 213.004 4.40234C213.004 4.28516 213.039 4.20312 213.109 4.15625C213.133 4.13281 213.191 4.12109 213.285 4.12109C213.449 4.12109 213.766 4.22656 214.234 4.4375C214.633 4.625 214.797 4.85938 214.727 5.14062C214.68 5.30469 214.633 5.55078 214.586 5.87891L214.48 9.92188C214.48 10.0391 214.492 10.1328 214.516 10.2031C214.562 10.25 214.609 10.2734 214.656 10.2734C214.938 10.2734 215.277 10.1914 215.676 10.0273C216.426 9.79297 217.07 9.55859 217.609 9.32422L218.383 9.00781V6.6875C218.383 5.75 218.324 4.84766 218.207 3.98047C218.184 3.91016 218.172 3.82812 218.172 3.73438C218.172 3.5 218.266 3.38281 218.453 3.38281C218.477 3.38281 218.605 3.42969 218.84 3.52344C219.191 3.71094 219.449 3.875 219.613 4.01562C219.777 4.15625 219.871 4.23828 219.895 4.26172C219.988 4.33203 220.035 4.40234 220.035 4.47266C220.035 4.51953 220.012 4.57812 219.965 4.64844C219.941 4.71875 219.918 4.77734 219.895 4.82422L219.789 5.87891L219.754 9.11328L219.789 12.2422C219.789 12.7812 219.754 13.25 219.684 13.6484C219.566 14.1406 219.379 14.3867 219.121 14.3867ZM212.652 20.1523C212.395 20.1523 212.078 19.9531 211.703 19.5547C211.422 19.2734 211.281 19.0625 211.281 18.9219C211.281 18.8516 211.328 18.8164 211.422 18.8164C211.516 18.793 211.633 18.7812 211.773 18.7812L212.547 18.7461C212.992 18.7461 213.285 18.7344 213.426 18.7109C213.871 18.7109 214.246 18.6992 214.551 18.6758C216.566 18.4883 217.926 18.3359 218.629 18.2188C218.98 18.1719 219.297 18.125 219.578 18.0781C219.859 18.0078 220.082 17.9727 220.246 17.9727C220.574 17.9727 220.902 18.1367 221.23 18.4648C221.488 18.7227 221.617 18.9336 221.617 19.0977C221.617 19.2383 221.535 19.332 221.371 19.3789C221.254 19.4023 220.562 19.4492 219.297 19.5195C218.594 19.543 217.727 19.6016 216.695 19.6953C215.664 19.7891 214.762 19.8828 213.988 19.9766C213.848 20 213.648 20.0352 213.391 20.082C213.133 20.1289 212.887 20.1523 212.652 20.1523ZM217.363 34.6719C216.637 34.6719 216.074 34.6484 215.676 34.6016C215.301 34.5547 214.984 34.4141 214.727 34.1797C214.281 33.8516 213.977 33.1367 213.812 32.0352L213.707 30.9102C213.707 30.6289 213.684 30.2773 213.637 29.8555C213.262 29.9023 212.992 29.9492 212.828 29.9961C212.781 30.0195 212.699 30.0547 212.582 30.1016C212.488 30.125 212.418 30.1367 212.371 30.1367C212.207 30.1367 212.055 30.0898 211.914 29.9961C211.773 29.9023 211.598 29.7266 211.387 29.4688C211.223 29.2578 211.141 29.1172 211.141 29.0469C211.141 28.9766 211.223 28.9297 211.387 28.9062C211.551 28.8828 211.773 28.8711 212.055 28.8711C212.453 28.8711 212.969 28.8242 213.602 28.7305L213.566 28.2383C213.566 27.3008 213.508 26.5039 213.391 25.8477L213.355 25.6016C213.355 25.2734 213.484 25.1445 213.742 25.2148C214.023 25.3086 214.281 25.4258 214.516 25.5664C214.703 25.6602 214.832 25.7539 214.902 25.8477C214.973 25.918 214.996 26.0234 214.973 26.1641L214.867 27.6758V28.5898L217.961 28.2734C217.961 28.1094 217.973 27.7227 217.996 27.1133C218.02 26.4805 218.02 26.0703 217.996 25.8828C217.996 25.6953 217.973 25.5195 217.926 25.3555C217.902 25.168 217.879 25.0156 217.855 24.8984C217.855 24.7109 217.949 24.6172 218.137 24.6172C218.324 24.6172 218.559 24.7227 218.84 24.9336C219.168 25.1445 219.379 25.332 219.473 25.4961C219.59 25.6602 219.613 25.8594 219.543 26.0938C219.426 26.4688 219.344 26.8906 219.297 27.3594C219.25 27.8281 219.227 28.1094 219.227 28.2031C219.508 28.1797 219.766 28.1445 220 28.0977C220.234 28.0508 220.387 28.0273 220.457 28.0273C220.645 27.9805 220.867 27.957 221.125 27.957C221.266 27.9805 221.465 28.1211 221.723 28.3789C221.934 28.6602 222.039 28.8828 222.039 29.0469C222.039 29.2812 221.816 29.375 221.371 29.3281C220.973 29.2578 220.574 29.2227 220.176 29.2227C219.777 29.2227 219.438 29.2344 219.156 29.2578C219.086 30.1016 218.945 30.9336 218.734 31.7539C218.688 31.9414 218.605 32.0938 218.488 32.2109C218.371 32.3516 218.266 32.4219 218.172 32.4219C218.008 32.4219 217.902 32.3516 217.855 32.2109C217.832 32.0938 217.82 31.8945 217.82 31.6133C217.867 31.0039 217.891 30.2422 217.891 29.3281C217.258 29.375 216.766 29.4219 216.414 29.4688C215.875 29.5859 215.371 29.6562 214.902 29.6797C214.879 30.6406 214.926 31.4961 215.043 32.2461C215.113 32.7383 215.254 33.0781 215.465 33.2656C215.605 33.3828 215.77 33.4531 215.957 33.4766C216.168 33.5 216.379 33.5117 216.59 33.5117C216.801 33.5117 216.941 33.5117 217.012 33.5117C217.738 33.5117 218.418 33.4766 219.051 33.4062C219.238 33.3828 219.402 33.3359 219.543 33.2656C219.707 33.1953 219.824 33.1602 219.895 33.1602C220.105 33.1602 220.316 33.2305 220.527 33.3711C220.738 33.5117 220.844 33.6758 220.844 33.8633C220.844 34.0508 220.738 34.1914 220.527 34.2852C220.34 34.3789 220.035 34.4609 219.613 34.5312C218.863 34.625 218.113 34.6719 217.363 34.6719ZM227.383 18.6758C227.664 18.6758 227.805 18.8047 227.805 19.0625C227.805 19.2031 227.676 19.4023 227.418 19.6602C226.715 20.5273 225.32 22.1797 223.234 24.6172C223.07 24.8281 222.918 24.9336 222.777 24.9336C222.66 24.9336 222.402 24.7578 222.004 24.4062C221.676 24.125 221.512 23.8906 221.512 23.7031C221.512 23.4922 221.688 23.293 222.039 23.1055C222.578 22.8008 223.387 22.1914 224.465 21.2773C225.543 20.3164 226.34 19.5547 226.855 18.9922C227.066 18.7812 227.242 18.6758 227.383 18.6758ZM182.699 30.1719C184.785 29.5156 186.648 28.8008 188.289 28.0273C187.938 27.5352 187.492 26.9727 186.953 26.3398C186.766 26.1055 186.672 25.918 186.672 25.7773C186.672 25.5195 186.824 25.2969 187.129 25.1094C187.434 24.8984 187.668 24.793 187.832 24.793C188.02 24.793 188.219 24.9102 188.43 25.1445C189.766 26.7148 190.902 28.0977 191.84 29.293C192.777 30.4883 193.246 31.2148 193.246 31.4727C193.246 31.6836 193.082 31.9297 192.754 32.2109C192.449 32.5156 192.156 32.668 191.875 32.668C191.641 32.668 191.406 32.4805 191.172 32.1055C190.633 31.2852 190.023 30.3945 189.344 29.4336L185.125 31.543C184.656 31.7539 183.918 32.1289 182.91 32.668C182.066 33.1133 181.551 33.3359 181.363 33.3359C181.223 33.3359 181.047 33.2422 180.836 33.0547C180.625 32.8906 180.461 32.6797 180.344 32.4219C180.25 32.1875 180.25 32 180.344 31.8594C180.484 31.6016 180.555 30.5703 180.555 28.7656V16.6016C180.555 16.0391 180.531 15.582 180.484 15.2305C180.461 14.8789 180.367 14.5039 180.203 14.1055C180.18 14.0352 180.156 13.9766 180.133 13.9297C180.109 13.8828 180.098 13.8359 180.098 13.7891C180.098 13.6719 180.18 13.6133 180.344 13.6133C180.648 13.6133 181.41 13.8711 182.629 14.3867L190.258 13.8594C190.445 13.8359 190.656 13.8242 190.891 13.8242C191.148 13.8242 191.453 13.9414 191.805 14.1758C192.156 14.3867 192.332 14.6211 192.332 14.8789C192.332 14.9727 192.273 15.1133 192.156 15.3008C192.062 15.4883 192.016 15.6289 192.016 15.7227L191.102 22.332C191.664 22.9883 191.945 23.4336 191.945 23.668C191.945 23.7852 191.875 23.8672 191.734 23.9141C191.617 23.9609 191.43 23.9844 191.172 23.9844L182.664 24.3008L182.699 30.1719ZM176.934 14.3867C176.934 14.1523 177.086 13.8711 177.391 13.543C179.102 11.6445 180.59 9.75781 181.855 7.88281C183.121 6.00781 183.754 4.75391 183.754 4.12109L183.719 3.875V3.76953C183.719 3.44141 183.848 3.27734 184.105 3.27734C184.41 3.27734 184.832 3.48828 185.371 3.91016C185.934 4.30859 186.215 4.63672 186.215 4.89453C186.215 5.01172 186.156 5.16406 186.039 5.35156C185.688 5.91406 185.301 6.47656 184.879 7.03906L189.871 6.65234C190.293 6.62891 190.738 6.53516 191.207 6.37109C191.348 6.32422 191.453 6.30078 191.523 6.30078C191.875 6.30078 192.25 6.5 192.648 6.89844C193.07 7.27344 193.281 7.56641 193.281 7.77734C193.281 8.05859 193.023 8.22266 192.508 8.26953L186.496 8.69141C186.66 8.73828 187.023 8.98438 187.586 9.42969C188.172 9.875 188.699 10.332 189.168 10.8008C189.637 11.2695 189.871 11.5977 189.871 11.7852C189.871 11.9961 189.73 12.2539 189.449 12.5586C189.168 12.8398 188.922 12.9805 188.711 12.9805C188.523 12.9805 188.301 12.8281 188.043 12.5234C187.246 11.6562 186.438 10.8945 185.617 10.2383C185.336 10.0039 185.195 9.80469 185.195 9.64062C185.195 9.52344 185.254 9.37109 185.371 9.18359C185.488 8.99609 185.641 8.84375 185.828 8.72656L183.473 8.90234C182.348 10.2852 181.105 11.5859 179.746 12.8047C178.387 14 177.52 14.5977 177.145 14.5977C177.004 14.5977 176.934 14.5273 176.934 14.3867ZM189.59 18.043L189.836 15.582L182.594 16.0742V18.3945L189.59 18.043ZM189.133 22.4023L189.414 19.6953L182.629 20.0117V22.6484L189.133 22.4023ZM191.031 12.875C191.031 12.6406 191.184 12.3594 191.488 12.0312C192.637 10.6484 193.68 9.08984 194.617 7.35547C195.578 5.59766 196.059 4.36719 196.059 3.66406V3.52344C196.059 3.17188 196.188 2.99609 196.445 2.99609C196.609 2.99609 196.855 3.08984 197.184 3.27734C197.535 3.44141 197.852 3.64062 198.133 3.875C198.414 4.10938 198.555 4.34375 198.555 4.57812C198.555 4.78906 198.391 5.16406 198.062 5.70312C197.734 6.24219 197.559 6.52344 197.535 6.54688L204.461 5.98438C204.977 5.9375 205.422 5.85547 205.797 5.73828C205.844 5.71484 205.938 5.70312 206.078 5.70312C206.406 5.70312 206.758 5.89062 207.133 6.26562C207.531 6.61719 207.73 6.91016 207.73 7.14453C207.73 7.28516 207.66 7.40234 207.52 7.49609C207.402 7.56641 207.238 7.61328 207.027 7.63672L199.891 8.12891C200.547 8.55078 201.32 9.17188 202.211 9.99219C203.102 10.7891 203.547 11.3281 203.547 11.6094C203.547 11.7734 203.418 12.0312 203.16 12.3828C202.902 12.7109 202.656 12.875 202.422 12.875C202.234 12.875 202.035 12.7578 201.824 12.5234C200.676 11.2812 199.633 10.2969 198.695 9.57031C198.461 9.38281 198.344 9.20703 198.344 9.04297C198.344 8.85547 198.52 8.57422 198.871 8.19922L196.27 8.375C195.496 9.40625 194.559 10.4492 193.457 11.5039C192.379 12.5586 191.652 13.0859 191.277 13.0859C191.113 13.0859 191.031 13.0156 191.031 12.875ZM194.336 13.6484C194.336 13.5078 194.418 13.4375 194.582 13.4375C194.934 13.4375 195.73 13.7305 196.973 14.3164L204.039 13.7188L204.32 13.6836C204.414 13.6836 204.59 13.7305 204.848 13.8242C205.129 13.8945 205.387 14.0234 205.621 14.2109C205.879 14.375 206.008 14.5977 206.008 14.8789C206.008 14.9727 205.973 15.1016 205.902 15.2656C205.832 15.4297 205.797 15.5469 205.797 15.6172C205.773 18.1953 205.609 20.9492 205.305 23.8789L205.234 24.7578C205.164 25.7422 205.07 26.5625 204.953 27.2188C204.836 27.875 204.637 28.3906 204.355 28.7656C203.91 29.375 203.43 29.6797 202.914 29.6797C202.398 29.6797 201.742 29.3633 200.945 28.7305C200.148 28.0977 199.41 27.4062 198.73 26.6562C198.074 25.9062 197.746 25.4258 197.746 25.2148C197.746 25.0508 197.84 24.9688 198.027 24.9688C198.238 24.9688 198.531 25.0859 198.906 25.3203C199.773 25.8594 200.5 26.293 201.086 26.6211C201.672 26.9492 202.094 27.1133 202.352 27.1133C202.469 27.1133 202.551 27.0312 202.598 26.8672C203.137 23.8672 203.465 20.1055 203.582 15.582L196.973 16.0742C196.973 20.0352 197.008 26.3164 197.078 34.918C197.078 35.1289 197.02 35.2812 196.902 35.375C196.809 35.4922 196.68 35.5508 196.516 35.5508C196.328 35.5508 196.105 35.4805 195.848 35.3398C195.402 35.1523 195.086 34.9766 194.898 34.8125C194.711 34.6484 194.617 34.4609 194.617 34.25L194.652 34.0039C194.793 33.2305 194.863 32.3633 194.863 31.4023L194.758 16.5664C194.758 15.957 194.734 15.4883 194.688 15.1602C194.664 14.832 194.594 14.5156 194.477 14.2109C194.383 13.9297 194.336 13.7422 194.336 13.6484Z" fill="#333333"/>
<path d="M163.875 71.9688C163.708 71.9688 163.542 71.9375 163.375 71.875C163.208 71.7917 163.083 71.6667 163 71.5C162.938 71.3125 162.802 71.0938 162.594 70.8438C162.406 70.5938 162.219 70.4062 162.031 70.2812L162.156 70.125C162.26 70.1875 162.51 70.3125 162.906 70.5C163.302 70.6875 163.594 70.7812 163.781 70.7812C164.073 70.7812 164.333 70.6771 164.562 70.4688C164.792 70.2604 165.083 69.8646 165.438 69.2812C165.688 68.8854 165.917 68.4167 166.125 67.875C166.333 67.3333 166.49 66.8333 166.594 66.375L166.625 66.3125C166.625 66.25 166.604 66.1979 166.562 66.1562C166.521 66.0938 166.479 66.0625 166.438 66.0625L165 66.1875C164.042 66.3542 163.042 66.4896 162 66.5938C161.812 66.6146 161.594 66.6667 161.344 66.75C161.094 66.8333 160.917 66.875 160.812 66.875C160.646 66.875 160.427 66.7396 160.156 66.4688C160.052 66.3854 159.948 66.2812 159.844 66.1562C159.76 66.0312 159.74 65.9271 159.781 65.8438C159.948 65.6771 160.031 65.5938 160.031 65.5938L160.188 65.4688C160.479 65.1771 160.771 64.7917 161.062 64.3125C161.271 64.0208 161.49 63.5312 161.719 62.8438C161.719 62.6146 161.771 62.5 161.875 62.5C161.938 62.5 162.042 62.5417 162.188 62.625L162.688 62.9375C162.812 63.0417 162.896 63.125 162.938 63.1875C162.979 63.25 163 63.3333 163 63.4375C163 63.5625 162.917 63.7188 162.75 63.9062C162.583 64.0729 162.438 64.2396 162.312 64.4062L161.594 65.4375L161.531 65.5625C161.531 65.625 161.615 65.6562 161.781 65.6562L164.188 65.3438L165.812 65.2188L166.438 65.1562L166.781 65.0938H166.875C167.083 65.0938 167.312 65.2708 167.562 65.625C167.854 65.8958 168 66.125 168 66.3125L167.844 66.7188C167.823 66.7604 167.656 67.25 167.344 68.1875C166.969 69.0833 166.646 69.7604 166.375 70.2188C166.104 70.6771 165.812 71.0312 165.5 71.2812C164.938 71.7396 164.396 71.9688 163.875 71.9688ZM164.469 82.5312C164.469 82.5104 164.521 82.4375 164.625 82.3125C164.75 82.1667 164.885 81.9896 165.031 81.7812C165.281 81.4271 165.531 80.9062 165.781 80.2188C166.031 79.5312 166.167 78.8958 166.188 78.3125C166.188 78.2708 166.167 78.2292 166.125 78.1875C166.104 78.125 166.052 78.0938 165.969 78.0938L165.25 78.1562L164.188 78.25C163.958 79 163.562 79.8125 163 80.6875C162.75 81.0833 162.406 81.4375 161.969 81.75C161.552 82.0417 161.146 82.25 160.75 82.375C160.625 82.4167 160.469 82.4375 160.281 82.4375C160.135 82.4167 160.062 82.375 160.062 82.3125C160.062 82.2292 160.135 82.1562 160.281 82.0938C160.531 81.9271 160.812 81.6667 161.125 81.3125C161.458 80.9583 161.75 80.5938 162 80.2188C162.146 80.0104 162.302 79.7396 162.469 79.4062C162.635 79.0521 162.771 78.7292 162.875 78.4375C162.208 78.5208 161.521 78.6771 160.812 78.9062C160.771 78.9479 160.698 78.9688 160.594 78.9688C160.531 78.9688 160.438 78.9271 160.312 78.8438C160.146 78.6771 160.031 78.5521 159.969 78.4688C159.927 78.3646 159.948 78.2708 160.031 78.1875L160.156 77.9375C160.24 77.8125 160.323 77.5625 160.406 77.1875C160.49 76.8125 160.531 76.5104 160.531 76.2812C160.531 76.2188 160.521 76.1458 160.5 76.0625C160.5 75.9583 160.51 75.9062 160.531 75.9062C160.573 75.8854 160.625 75.8854 160.688 75.9062C160.917 75.9479 161.125 76.0208 161.312 76.125C161.479 76.2292 161.594 76.3438 161.656 76.4688C161.74 76.5729 161.74 76.6667 161.656 76.75C161.635 76.7708 161.604 76.8125 161.562 76.875C161.521 76.9167 161.49 76.9792 161.469 77.0625C161.448 77.0833 161.406 77.3125 161.344 77.75C161.344 77.7708 161.354 77.7917 161.375 77.8125C161.417 77.8333 161.458 77.8333 161.5 77.8125C161.562 77.8125 161.656 77.8021 161.781 77.7812C161.906 77.7604 162 77.7396 162.062 77.7188C162.208 77.6979 162.375 77.6667 162.562 77.625C162.771 77.5833 162.958 77.5521 163.125 77.5312C163.188 77.3021 163.229 77.0521 163.25 76.7812C163.292 76.4896 163.323 76.2917 163.344 76.1875L163.375 75.5312V75.3125C162.708 75.3333 162.01 75.3958 161.281 75.5L160.719 75.5938H160.594C160.49 75.5938 160.385 75.5625 160.281 75.5C160.198 75.4375 160.104 75.3646 160 75.2812C159.729 75.0312 159.594 74.8438 159.594 74.7188C159.594 74.5938 159.688 74.5521 159.875 74.5938C160.125 74.6354 160.385 74.6562 160.656 74.6562L161.562 74.625L165.906 74.3125C166.073 74.2917 166.229 74.2708 166.375 74.25C166.521 74.2083 166.667 74.1771 166.812 74.1562H166.906C167.177 74.1562 167.365 74.2083 167.469 74.3125C167.594 74.3958 167.667 74.4479 167.688 74.4688C168.021 74.7396 168.188 74.9479 168.188 75.0938C168.188 75.2188 168.01 75.2708 167.656 75.25L167.031 75.1875C166.49 75.1667 165.677 75.1875 164.594 75.25L164.469 76.4688C164.448 76.6771 164.427 76.8438 164.406 76.9688C164.385 77.0938 164.365 77.1979 164.344 77.2812L164.312 77.375C164.812 77.3333 165.396 77.2708 166.062 77.1875C166.104 77.1667 166.177 77.1458 166.281 77.125C166.385 77.0833 166.49 77.0521 166.594 77.0312H166.656C166.781 77.0312 166.906 77.0833 167.031 77.1875C167.156 77.2917 167.229 77.3542 167.25 77.375C167.417 77.5208 167.531 77.6458 167.594 77.75C167.677 77.8333 167.688 77.9062 167.625 77.9688C167.583 78.0521 167.531 78.1354 167.469 78.2188C167.427 78.2812 167.396 78.3542 167.375 78.4375C167.271 79.3125 167.104 80.0208 166.875 80.5625C166.688 81.0417 166.479 81.4062 166.25 81.6562C166.042 81.8854 165.781 82.1042 165.469 82.3125C165.344 82.3958 165.146 82.4688 164.875 82.5312C164.604 82.5729 164.469 82.5729 164.469 82.5312ZM169.562 71.2188C169.667 71.2188 169.823 71.2917 170.031 71.4375C170.01 71.4792 170.052 71.5625 170.156 71.6875C170.26 71.7917 170.333 71.8646 170.375 71.9062C170.479 72.0104 170.583 72.1354 170.688 72.2812C170.812 72.4271 170.948 72.5833 171.094 72.75C171.469 73.1458 172.333 74.1771 173.688 75.8438C173.917 76.1771 174.031 76.375 174.031 76.4375C174.031 76.6458 173.906 76.75 173.656 76.75C173.51 76.75 173.354 76.6458 173.188 76.4375C172.792 76.0208 172.083 75.3646 171.062 74.4688C170.271 73.7396 169.552 73.1771 168.906 72.7812C168.594 72.6354 168.438 72.4688 168.438 72.2812C168.438 72.1354 168.594 71.9271 168.906 71.6562C169.198 71.3646 169.417 71.2188 169.562 71.2188ZM136.875 69C136.875 70.5833 136.844 71.9896 136.781 73.2188L140.25 72.1875L141.062 71.9375C141.667 71.7708 142.073 71.6875 142.281 71.6875C142.49 71.6875 142.594 71.7396 142.594 71.8438C142.594 72.0312 142.146 72.3438 141.25 72.7812C140.375 73.1979 138.833 73.8438 136.625 74.7188C136.333 77.1354 135.688 79.2083 134.688 80.9375C133.708 82.6667 132.188 84.2917 130.125 85.8125C129.75 86.1042 129.448 86.25 129.219 86.25C129.073 86.25 129 86.1875 129 86.0625C129 85.8333 129.208 85.5104 129.625 85.0938C131.021 83.6979 132.146 82.2396 133 80.7188C133.875 79.1771 134.448 77.4062 134.719 75.4062C134.073 75.6771 133.26 75.9688 132.281 76.2812C131.302 76.5938 130.656 76.75 130.344 76.75C130.156 76.75 130.021 76.7083 129.938 76.625C129.708 76.4583 129.458 76.2083 129.188 75.875C128.938 75.5208 128.812 75.2083 128.812 74.9375C128.812 74.8333 128.865 74.7812 128.969 74.7812H129.062C130.104 74.7812 132.042 74.4271 134.875 73.7188C134.938 72.8021 134.99 71.2708 135.031 69.125L132.719 69.3125C132.573 69.3333 132.385 69.3438 132.156 69.3438C131.677 69.3438 131.365 69.2917 131.219 69.1875C130.969 69 130.75 68.7604 130.562 68.4688C130.396 68.1771 130.312 67.9271 130.312 67.7188C130.312 67.6146 130.365 67.5625 130.469 67.5625C130.552 67.5625 130.615 67.5729 130.656 67.5938C131.156 67.7188 131.583 67.7812 131.938 67.7812H132.156L135.031 67.5312C135.031 65.8646 135.021 64.6562 135 63.9062C134.167 64.1354 133.281 64.3542 132.344 64.5625C131.406 64.75 130.74 64.8438 130.344 64.8438C129.906 64.8438 129.688 64.7604 129.688 64.5938C129.688 64.4896 129.792 64.375 130 64.25C130.208 64.1042 130.5 63.9792 130.875 63.875C132.229 63.4583 133.5 62.9896 134.688 62.4688C135.896 61.9479 137.167 61.3333 138.5 60.625C138.792 60.4583 139.104 60.1354 139.438 59.6562C139.521 59.5104 139.635 59.4375 139.781 59.4375C140.094 59.4375 140.417 59.6458 140.75 60.0625C141.104 60.4792 141.281 60.8542 141.281 61.1875C141.281 61.4375 141.177 61.6042 140.969 61.6875C139.365 62.4167 137.99 62.9688 136.844 63.3438L136.875 67.375L138.781 67.2188C138.844 67.2188 138.99 67.2083 139.219 67.1875C139.448 67.1667 139.667 67.125 139.875 67.0625C139.917 67.0417 139.99 67.0312 140.094 67.0312C140.344 67.0312 140.656 67.1979 141.031 67.5312C141.406 67.8646 141.594 68.125 141.594 68.3125C141.594 68.5208 141.365 68.6458 140.906 68.6875L136.875 69ZM140.094 75.0312C140.094 74.9271 140.135 74.875 140.219 74.875C140.302 74.875 140.365 74.8854 140.406 74.9062C140.948 75.0312 141.396 75.0938 141.75 75.0938H141.969L147.688 74.8125V71.375L145.344 71.5312C145.135 71.5521 144.865 71.5625 144.531 71.5625C144.198 71.5625 143.948 71.5208 143.781 71.4375C143.365 71.0833 143.083 70.6562 142.938 70.1562C142.875 70.0312 142.844 69.9271 142.844 69.8438C142.844 69.7396 142.885 69.6875 142.969 69.6875C142.99 69.6875 143.062 69.7083 143.188 69.75C143.604 69.8542 144.031 69.9062 144.469 69.9062H144.75L147.688 69.7188V66.8438L145.281 67C145.073 67.0208 144.802 67.0312 144.469 67.0312C144.073 67.0312 143.833 66.9896 143.75 66.9062C143.5 66.6979 143.281 66.4479 143.094 66.1562C142.906 65.8438 142.812 65.5625 142.812 65.3125C142.812 65.2083 142.854 65.1562 142.938 65.1562L143.125 65.2188C143.542 65.3229 143.969 65.375 144.406 65.375H144.688L147.688 65.1875V62.7188L144.375 62.9375C144.167 62.9583 143.906 62.9688 143.594 62.9688C143.177 62.9688 142.917 62.9167 142.812 62.8125C142.396 62.4583 142.104 62.0417 141.938 61.5625C141.875 61.4375 141.844 61.3333 141.844 61.25C141.844 61.1458 141.896 61.0938 142 61.0938C142.083 61.0938 142.146 61.1042 142.188 61.125C142.729 61.25 143.177 61.3125 143.531 61.3125H143.75L152.781 60.6562C152.865 60.6562 153.021 60.6458 153.25 60.625C153.479 60.6042 153.708 60.5625 153.938 60.5C153.979 60.4792 154.052 60.4688 154.156 60.4688C154.448 60.4688 154.781 60.6562 155.156 61.0312C155.531 61.3854 155.719 61.6562 155.719 61.8438C155.719 62.0521 155.49 62.1771 155.031 62.2188L149.594 62.5938V65.0625L152.062 64.9062C152.542 64.8646 152.927 64.8021 153.219 64.7188C153.26 64.6979 153.323 64.6875 153.406 64.6875C153.635 64.6875 153.958 64.8646 154.375 65.2188C154.792 65.5729 155 65.8646 155 66.0938C155 66.3021 154.771 66.4271 154.312 66.4688L149.594 66.75V69.5938L152.156 69.4062C152.635 69.3646 153.021 69.3021 153.312 69.2188C153.354 69.1979 153.417 69.1875 153.5 69.1875C153.75 69.1875 154.073 69.3646 154.469 69.7188C154.885 70.0729 155.094 70.3646 155.094 70.5938C155.094 70.8021 154.854 70.9271 154.375 70.9688L149.594 71.2812V74.75L154.688 74.5C155.188 74.4583 155.583 74.3958 155.875 74.3125L156.062 74.2812C156.312 74.2812 156.635 74.4792 157.031 74.875C157.427 75.2708 157.625 75.5625 157.625 75.75C157.625 75.9583 157.396 76.0833 156.938 76.125L149.594 76.4688V86.625C149.594 87.0833 149.427 87.3125 149.094 87.3125C148.823 87.3125 148.49 87.1979 148.094 86.9688C147.698 86.7396 147.5 86.4375 147.5 86.0625L147.531 85.8125C147.635 85.1458 147.688 84.5417 147.688 84V76.5625L142.562 76.9375L141.562 77C141.396 77.0208 141.104 76.75 140.688 76.1875C140.292 75.6042 140.094 75.2188 140.094 75.0312Z" fill="#333333"/>
<path d="M211.594 68.2188C211.323 68.2188 211.125 68.125 211 67.9375C210.812 67.6667 210.625 67.4479 210.438 67.2812C210.271 67.1146 209.969 66.8854 209.531 66.5938L209.625 66.4375C210.583 66.7708 211.26 66.9375 211.656 66.9375C211.99 66.9375 212.354 66.75 212.75 66.375C213.167 65.9792 213.521 65.4167 213.812 64.6875C213.958 64.3542 214.062 64.0833 214.125 63.875C214.208 63.6458 214.271 63.3958 214.312 63.125V63.0625C214.312 62.875 214.219 62.7812 214.031 62.7812C213.823 62.7812 213.448 62.8438 212.906 62.9688C212.615 63.0521 212.229 63.1771 211.75 63.3438L211.5 63.2812C211.479 63.2604 211.427 63.2292 211.344 63.1875C211.281 63.125 211.229 63.0625 211.188 63C211.083 62.8958 211.031 62.8229 211.031 62.7812L211 62.6562C211 62.5104 211.073 62.375 211.219 62.25C211.385 62.125 211.479 62.0312 211.5 61.9688C211.667 61.7812 212 61.3229 212.5 60.5938C212.542 60.5521 212.615 60.4583 212.719 60.3125C212.823 60.1458 212.875 60 212.875 59.875C212.875 59.7292 212.26 59.8333 211.031 60.1875C209.781 60.5625 209.125 60.75 209.062 60.75C208.854 60.75 208.635 60.5729 208.406 60.2188C208.24 60.0521 208.156 59.9167 208.156 59.8125C208.156 59.6667 208.365 59.5833 208.781 59.5625C209.26 59.5417 210 59.4583 211 59.3125C212.021 59.1667 212.625 59.0729 212.812 59.0312L213.25 58.9062C213.312 58.8854 213.385 58.875 213.469 58.875C213.531 58.875 213.625 58.9167 213.75 59C213.896 59.0833 214.021 59.1458 214.125 59.1875C214.396 59.3125 214.552 59.4583 214.594 59.625V59.7188C214.594 59.9062 214.49 60.1042 214.281 60.3125C214.198 60.3958 214.031 60.5729 213.781 60.8438C213.531 61.0938 213.375 61.2604 213.312 61.3438C213.229 61.4271 213.104 61.5625 212.938 61.75C212.771 61.9375 212.677 62.0521 212.656 62.0938C212.656 62.1562 212.677 62.1979 212.719 62.2188C212.76 62.2396 212.812 62.25 212.875 62.25C213.5 62.1667 214.01 62.0729 214.406 61.9688L214.906 61.8125C215.135 61.8125 215.302 61.8958 215.406 62.0625C215.594 62.2708 215.719 62.4479 215.781 62.5938C215.844 62.7188 215.844 62.8438 215.781 62.9688C215.76 63.0312 215.729 63.0938 215.688 63.1562C215.646 63.2188 215.604 63.2917 215.562 63.375C215.542 63.4167 215.5 63.5 215.438 63.625C215.375 63.75 215.333 63.875 215.312 64C214.938 65.0833 214.49 66.0104 213.969 66.7812C213.677 67.1354 213.354 67.4375 213 67.6875C212.521 68.0417 212.052 68.2188 211.594 68.2188ZM208.469 73.4688C208.24 73.4688 207.958 73.2917 207.625 72.9375C207.375 72.6875 207.25 72.5 207.25 72.375C207.25 72.3125 207.292 72.2812 207.375 72.2812C207.458 72.2604 207.562 72.25 207.688 72.25L208.375 72.2188C208.771 72.2188 209.031 72.2083 209.156 72.1875C209.552 72.1875 209.885 72.1771 210.156 72.1562C211.948 71.9896 213.156 71.8542 213.781 71.75C214.094 71.7083 214.375 71.6667 214.625 71.625C214.875 71.5625 215.073 71.5312 215.219 71.5312C215.51 71.5312 215.802 71.6771 216.094 71.9688C216.323 72.1979 216.438 72.3854 216.438 72.5312C216.438 72.6562 216.365 72.7396 216.219 72.7812C216.115 72.8021 215.5 72.8438 214.375 72.9062C213.75 72.9271 212.979 72.9792 212.062 73.0625C211.146 73.1458 210.344 73.2292 209.656 73.3125C209.531 73.3333 209.354 73.3646 209.125 73.4062C208.896 73.4479 208.677 73.4688 208.469 73.4688ZM213.125 80.4375C212.917 80.7083 212.698 80.8438 212.469 80.8438C212.406 80.8438 212.375 80.7917 212.375 80.6875C212.375 80.5417 212.417 80.375 212.5 80.1875C212.5 80.1875 212.708 79.7708 213.125 78.9375C213.146 78.8542 213.177 78.7708 213.219 78.6875C213.26 78.6042 213.292 78.5312 213.312 78.4688V78.4375C213.312 78.3958 213.281 78.3542 213.219 78.3125C213.156 78.2708 213.083 78.2604 213 78.2812C212.667 78.3021 212.167 78.3542 211.5 78.4375C210.854 78.5208 210.375 78.6042 210.062 78.6875C209.938 78.7292 209.781 78.7812 209.594 78.8438C209.427 78.9062 209.292 78.9375 209.188 78.9375C208.812 78.9375 208.5 78.8229 208.25 78.5938C208.042 78.4479 207.885 78.3021 207.781 78.1562L207.719 78C207.719 77.8958 207.896 77.8646 208.25 77.9062C208.729 77.9479 209.719 77.8854 211.219 77.7188L211.844 77.625C212.01 77.6042 212.271 77.5729 212.625 77.5312C213 77.4688 213.292 77.4062 213.5 77.3438C213.562 77.3229 213.625 77.3021 213.688 77.2812C213.771 77.2396 213.844 77.2188 213.906 77.2188C214.01 77.2188 214.135 77.2708 214.281 77.375C214.448 77.4792 214.583 77.5729 214.688 77.6562C214.833 77.7604 214.927 77.8542 214.969 77.9375C215.031 78 215.052 78.0833 215.031 78.1875C215.031 78.2917 214.979 78.3854 214.875 78.4688C214.771 78.5521 214.698 78.6146 214.656 78.6562C214.615 78.7188 214.469 78.875 214.219 79.125C214.115 79.2917 213.927 79.5208 213.656 79.8125C213.406 80.1042 213.229 80.3125 213.125 80.4375ZM211.562 86.5938C211.562 86.5312 211.667 86.3646 211.875 86.0938C212.104 85.8438 212.281 85.6458 212.406 85.5C212.719 85.0833 213.094 84.4792 213.531 83.6875C213.99 82.8958 214.25 82.375 214.312 82.125C214.354 82 214.292 81.9375 214.125 81.9375C213.792 81.9375 212.875 82.0312 211.375 82.2188C210.396 82.3438 209.667 82.4688 209.188 82.5938C209.083 82.6562 208.979 82.6875 208.875 82.6875C208.708 82.6875 208.531 82.5729 208.344 82.3438C208.26 82.1979 208.219 82.0625 208.219 81.9375C208.219 81.8542 208.271 81.7708 208.375 81.6875L208.469 81.5625C208.531 81.4375 208.604 81.2708 208.688 81.0625C208.771 80.8542 208.844 80.6562 208.906 80.4688C209.01 80.1354 209.083 79.7708 209.125 79.375C209.146 79.1458 209.271 79.0833 209.5 79.1875C209.792 79.3333 210.01 79.4792 210.156 79.625C210.323 79.75 210.375 79.8438 210.312 79.9062C210.104 80.1562 209.938 80.4375 209.812 80.75C209.708 81.0833 209.646 81.3021 209.625 81.4062C209.625 81.4896 209.677 81.5312 209.781 81.5312C210.094 81.5312 210.562 81.4792 211.188 81.375C211.542 81.3333 211.979 81.2812 212.5 81.2188C213.021 81.1562 213.438 81.0938 213.75 81.0312L214.531 80.875C214.594 80.8542 214.677 80.8438 214.781 80.8438C214.885 80.8438 214.99 80.8854 215.094 80.9688C215.198 81.0312 215.312 81.1146 215.438 81.2188C215.646 81.4062 215.781 81.5625 215.844 81.6875C215.906 81.7917 215.938 81.9167 215.938 82.0625C215.938 82.1458 215.875 82.25 215.75 82.375C215.646 82.5 215.521 82.6979 215.375 82.9688C214.771 84.1979 213.99 85.2292 213.031 86.0625C212.76 86.2708 212.458 86.4479 212.125 86.5938C211.979 86.6354 211.844 86.6562 211.719 86.6562C211.615 86.6771 211.562 86.6562 211.562 86.5938ZM221.562 72.1562C221.812 72.1562 221.938 72.2708 221.938 72.5C221.938 72.625 221.823 72.8021 221.594 73.0312C220.969 73.8021 219.729 75.2708 217.875 77.4375C217.729 77.625 217.594 77.7188 217.469 77.7188C217.365 77.7188 217.135 77.5625 216.781 77.25C216.49 77 216.344 76.7917 216.344 76.625C216.344 76.4375 216.5 76.2604 216.812 76.0938C217.292 75.8229 218.01 75.2812 218.969 74.4688C219.927 73.6146 220.635 72.9375 221.094 72.4375C221.281 72.25 221.438 72.1562 221.562 72.1562ZM176.656 76.375C176.656 76.25 176.729 76.1875 176.875 76.1875C176.958 76.1875 177.031 76.1979 177.094 76.2188C177.656 76.3438 178.156 76.4062 178.594 76.4062H178.844L184 76.1562C183.958 75.4062 183.938 74.8542 183.938 74.5C183.917 74.25 183.885 73.7188 183.844 72.9062C183.823 72.0938 183.771 71.3438 183.688 70.6562C183.688 70.5729 183.667 70.3646 183.625 70.0312C183.583 69.6771 183.5 69.3646 183.375 69.0938C183.292 68.9271 183.25 68.7708 183.25 68.625C183.25 68.4583 183.365 68.375 183.594 68.375C183.948 68.375 184.771 68.6042 186.062 69.0625L190.656 68.75L190.688 64.3438L184.625 64.7188C183.938 65.6979 183.208 66.6146 182.438 67.4688C181.667 68.3229 180.969 69 180.344 69.5C179.74 70 179.323 70.25 179.094 70.25C178.99 70.25 178.938 70.1875 178.938 70.0625C178.938 69.8958 179.042 69.6771 179.25 69.4062C180.521 67.8438 181.573 66.3646 182.406 64.9688C183.24 63.5729 183.844 62.3854 184.219 61.4062C184.594 60.4271 184.781 59.7292 184.781 59.3125C184.781 59.1458 184.771 59.0208 184.75 58.9375V58.7812C184.75 58.5312 184.844 58.4062 185.031 58.4062C185.115 58.4062 185.344 58.4792 185.719 58.625C186.115 58.75 186.469 58.9271 186.781 59.1562C187.115 59.3646 187.281 59.5938 187.281 59.8438C187.281 59.9688 187.25 60.0938 187.188 60.2188C186.75 61.1146 186.281 62.0208 185.781 62.9375L197.781 62.1875C198.26 62.1458 198.729 62.0521 199.188 61.9062C199.312 61.8646 199.427 61.8438 199.531 61.8438C199.823 61.8438 200.167 62.0312 200.562 62.4062C200.958 62.7812 201.156 63.0833 201.156 63.3125C201.156 63.5833 200.896 63.7396 200.375 63.7812L192.625 64.25V68.6562L196.688 68.4062C197.208 68.3646 197.688 68.2708 198.125 68.125C198.25 68.0833 198.354 68.0625 198.438 68.0625C198.729 68.0625 199.083 68.2708 199.5 68.6875C199.938 69.0833 200.156 69.3854 200.156 69.5938C200.156 69.8229 199.917 69.9583 199.438 70L192.594 70.4062V75.75L201.344 75.3125C201.865 75.2708 202.344 75.1771 202.781 75.0312C202.906 74.9896 203 74.9688 203.062 74.9688C203.167 74.9688 203.365 75.0625 203.656 75.25C203.948 75.4375 204.208 75.6562 204.438 75.9062C204.688 76.1354 204.812 76.3542 204.812 76.5625C204.812 76.7917 204.573 76.9271 204.094 76.9688L192.594 77.5312L192.562 86.3438C192.562 86.7812 192.385 87 192.031 87C191.74 87 191.385 86.8854 190.969 86.6562C190.573 86.4479 190.375 86.1146 190.375 85.6562L190.406 85.375C190.49 84.8125 190.531 84.1875 190.531 83.5L190.562 77.625L179.656 78.1562C179.365 78.1771 179.01 78.1875 178.594 78.1875C178.135 78.1875 177.76 78.0729 177.469 77.8438C177.177 77.5938 176.969 77.3229 176.844 77.0312C176.719 76.7396 176.656 76.5208 176.656 76.375ZM185.875 76.0625L190.594 75.8438L190.625 70.5L185.656 70.7812L185.875 76.0625Z" fill="#333333"/>
</svg>
