<svg width="350" height="36" viewBox="0 0 350 36" fill="none" xmlns="http://www.w3.org/2000/svg">
<path d="M104.934 8.19922C104.77 8.19922 104.852 8.05859 105.18 7.77734C105.508 7.49609 105.906 7.15625 106.375 6.75781C106.844 6.33594 107.371 5.78516 107.957 5.10547C108.332 4.66016 108.613 4.19141 108.801 3.69922C108.918 3.41797 109.047 3.27734 109.188 3.27734C109.305 3.27734 109.48 3.37109 109.715 3.55859C110.184 3.93359 110.418 4.25 110.418 4.50781C110.418 4.67188 110.324 4.78906 110.137 4.85938C110.043 4.88281 109.902 4.98828 109.715 5.17578C109.527 5.33984 109.387 5.46875 109.293 5.5625C108.285 6.54688 107.348 7.26172 106.48 7.70703C105.777 8.03516 105.309 8.19922 105.074 8.19922H104.934ZM108.625 14.7383C108.555 14.7383 108.438 14.6445 108.273 14.457C108.133 14.2461 108.027 14.0469 107.957 13.8594C107.934 13.7188 107.934 13.543 107.957 13.332C108.004 13.0977 108.027 12.9219 108.027 12.8047C108.074 12.3359 108.098 11.9609 108.098 11.6797C108.121 11.4219 108.121 11.1406 108.098 10.8359C108.098 10.5312 108.098 10.332 108.098 10.2383L108.062 9.71094C107.5 10.1094 107.066 10.3906 106.762 10.5547C106.082 10.9297 105.59 11.1641 105.285 11.2578C104.91 11.3984 104.57 11.4688 104.266 11.4688C104.102 11.4688 104.008 11.4453 103.984 11.3984C103.938 11.3047 104.406 10.9648 105.391 10.3789C106.328 9.79297 107.348 9.01953 108.449 8.05859C109.059 7.49609 109.527 6.95703 109.855 6.44141C109.902 6.37109 109.938 6.28906 109.961 6.19531C110.008 6.07812 110.055 6.00781 110.102 5.98438C110.172 5.96094 110.266 5.97266 110.383 6.01953C110.688 6.18359 110.945 6.41797 111.156 6.72266C111.25 6.83984 111.297 6.95703 111.297 7.07422C111.297 7.19141 111.238 7.30859 111.121 7.42578C111.004 7.51953 110.887 7.58984 110.77 7.63672C110.371 7.89453 110.008 8.17578 109.68 8.48047C109.352 8.78516 109.141 8.98438 109.047 9.07812C109.398 9.35938 109.574 9.55859 109.574 9.67578L109.469 10.4141C109.422 10.625 109.398 11.1523 109.398 11.9961C109.398 12.8164 109.422 13.3672 109.469 13.6484V13.7188C109.469 13.8359 109.434 13.9648 109.363 14.1055C109.316 14.2227 109.281 14.3047 109.258 14.3516C109.094 14.6094 108.883 14.7383 108.625 14.7383ZM112.211 23.668C111.859 23.668 111.52 23.4102 111.191 22.8945C110.77 22.2383 110.359 21.6992 109.961 21.2773L109.047 20.3281C108.555 20.8906 108.121 21.3359 107.746 21.6641C107.395 21.9922 106.949 22.3086 106.41 22.6133C105.402 23.1992 104.559 23.4922 103.879 23.4922C103.715 23.4922 103.633 23.4336 103.633 23.3164C103.633 23.2461 103.855 23.0938 104.301 22.8594C104.746 22.625 105.168 22.3438 105.566 22.0156C106.574 21.1719 107.406 20.3047 108.062 19.4141C107.922 19.2734 107.219 18.6641 105.953 17.5859C105.789 17.4688 105.543 17.2695 105.215 16.9883C105.145 16.9414 105.004 16.8359 104.793 16.6719C104.582 16.5078 104.477 16.3906 104.477 16.3203C104.477 16.2031 104.535 16.1445 104.652 16.1445C105.004 16.1445 105.566 16.3906 106.34 16.8828C107.113 17.3516 107.922 17.9141 108.766 18.5703C109.094 18.1719 109.352 17.7969 109.539 17.4453C109.727 17.0938 109.938 16.6602 110.172 16.1445C110.289 15.8867 110.359 15.6641 110.383 15.4766C110.406 15.2656 110.418 15.1367 110.418 15.0898C110.418 14.832 110.488 14.7031 110.629 14.7031C110.793 14.7031 111.016 14.832 111.297 15.0898C111.789 15.5586 112.035 15.875 112.035 16.0391C112.035 16.1328 111.977 16.2383 111.859 16.3555C111.578 16.6367 111.32 17.0117 111.086 17.4805C110.945 17.7617 110.688 18.1602 110.312 18.6758C110.195 18.8164 110.102 18.9453 110.031 19.0625C109.961 19.1797 109.891 19.2852 109.82 19.3789C110.359 19.7773 111.156 20.457 112.211 21.418C112.469 21.6523 112.633 21.875 112.703 22.0859C112.797 22.2734 112.844 22.5312 112.844 22.8594C112.844 23.0938 112.785 23.293 112.668 23.457C112.551 23.5977 112.398 23.668 112.211 23.668ZM112.844 28.3086C113.102 28.5898 113.23 28.8242 113.23 29.0117C113.23 29.1758 113.137 29.3281 112.949 29.4688C112.832 29.5625 112.539 30.0781 112.07 31.0156C111.555 31.8594 110.98 32.5859 110.348 33.1953C109.738 33.8281 109.129 34.2852 108.52 34.5664C108.379 34.6133 108.262 34.6367 108.168 34.6367C108.074 34.6367 108.027 34.6133 108.027 34.5664V34.4961C108.027 34.3555 108.145 34.1914 108.379 34.0039C108.801 33.6758 109.117 33.3359 109.328 32.9844C109.562 32.6562 109.738 32.4102 109.855 32.2461C110.348 31.543 110.699 30.9688 110.91 30.5234C111.145 30.125 111.309 29.7148 111.402 29.293H111.262C110.652 29.293 109.668 29.3633 108.309 29.5039C108.098 29.5273 107.488 29.6094 106.48 29.75C106.27 29.7734 105.941 29.832 105.496 29.9258L105.074 30.0312C104.98 30.0781 104.887 30.1016 104.793 30.1016C104.676 30.1016 104.559 30.0781 104.441 30.0312C104.324 29.9609 104.207 29.8789 104.09 29.7852C103.809 29.5508 103.668 29.3516 103.668 29.1875C103.691 29.1406 103.715 29.0703 103.738 28.9766C103.785 28.8828 103.809 28.8008 103.809 28.7305L103.984 27.5703C104.008 27.4531 104.031 27.3242 104.055 27.1836C104.078 27.043 104.09 26.9023 104.09 26.7617C104.09 26.3164 104.078 25.9648 104.055 25.707C104.055 25.4258 104.02 25.1328 103.949 24.8281V24.7227C103.949 24.5586 104.02 24.4766 104.16 24.4766C104.301 24.4766 104.547 24.582 104.898 24.793C105.367 25.1211 105.602 25.3789 105.602 25.5664C105.602 25.6367 105.59 25.6953 105.566 25.7422C105.543 25.7891 105.52 25.8359 105.496 25.8828C105.426 26.3047 105.391 26.5391 105.391 26.5859L105.215 28.4492C105.215 28.4961 105.238 28.5547 105.285 28.625C105.355 28.6719 105.426 28.6953 105.496 28.6953C106.059 28.6953 107.324 28.5547 109.293 28.2734C110.066 28.2031 110.617 28.1211 110.945 28.0273C111.156 28.0039 111.332 27.9688 111.473 27.9219C111.637 27.8516 111.742 27.8164 111.789 27.8164C111.93 27.7695 112.023 27.7461 112.07 27.7461C112.281 27.7461 112.539 27.9336 112.844 28.3086ZM90.2383 21.4531C90.4961 21.4531 90.7422 21.5234 90.9766 21.6641C90.0391 20.6328 89.1133 19.4727 88.1992 18.1836L81.0625 18.5352C80.4297 19.543 79.6562 20.5977 78.7422 21.6992C79.0234 21.7695 79.3867 21.875 79.832 22.0156L90.0273 21.4531H90.2383ZM67.8086 29.3633C67.8086 29.1523 68.0664 28.8594 68.582 28.4844C72.8477 25.6016 76.1875 22.332 78.6016 18.6758L72.1328 18.9922L71.2891 19.0273C71.0781 19.0273 70.9258 19.0156 70.832 18.9922C70.6211 18.9922 70.457 18.9336 70.3398 18.8164C69.8008 18.3711 69.4727 17.8672 69.3555 17.3047C69.332 17.2578 69.3203 17.1992 69.3203 17.1289C69.3203 16.9648 69.3906 16.8828 69.5312 16.8828L69.707 16.918C70.1758 17.0352 70.668 17.0938 71.1836 17.0938H71.4648L79.7969 16.6719L80.0078 16.2852C80.3828 15.6055 80.7812 14.75 81.2031 13.7188L78.0742 13.8945C77.8633 13.918 77.5938 13.9297 77.2656 13.9297C76.7734 13.9297 76.375 13.8008 76.0703 13.543C75.7656 13.2852 75.5547 13.0156 75.4375 12.7344C75.3203 12.4297 75.2617 12.2305 75.2617 12.1367C75.2617 12.0195 75.332 11.9609 75.4727 11.9609L75.6484 11.9961C76.0703 12.0664 76.5039 12.1016 76.9492 12.1016H77.4062L81.8711 11.8203C82.082 11.2344 82.3164 10.3906 82.5742 9.28906L75.6133 9.74609C75.4258 9.76953 75.1797 9.78125 74.875 9.78125C74.4062 9.78125 73.9844 9.67578 73.6094 9.46484C73.2344 9.25391 72.918 8.80859 72.6602 8.12891L72.625 7.91797C72.625 7.75391 72.7188 7.67188 72.9062 7.67188L73.082 7.70703C73.7383 7.80078 74.2422 7.84766 74.5938 7.84766H74.9453L82.9258 7.35547C83.1367 6.23047 83.2422 5.45703 83.2422 5.03516C83.2422 4.56641 83.1602 4.15625 82.9961 3.80469C82.9258 3.61719 82.8906 3.48828 82.8906 3.41797C82.8906 3.20703 83.0312 3.10156 83.3125 3.10156C83.6641 3.10156 84.1445 3.19531 84.7539 3.38281C85.3867 3.57031 85.7031 3.89844 85.7031 4.36719L85.668 4.71875C85.5508 5.49219 85.4102 6.32422 85.2461 7.21484L92.3828 6.75781C92.6406 6.73438 93.1211 6.61719 93.8242 6.40625C93.9648 6.35938 94.0586 6.33594 94.1055 6.33594C94.4336 6.33594 94.832 6.55859 95.3008 7.00391C95.793 7.42578 96.0391 7.76562 96.0391 8.02344C96.0391 8.28125 95.7812 8.43359 95.2656 8.48047L84.8594 9.14844C84.7891 9.45312 84.5781 10.2969 84.2266 11.6797L89.8164 11.3633C90.332 11.3164 90.7773 11.2344 91.1523 11.1172C91.293 11.0703 91.3984 11.0469 91.4688 11.0469C91.75 11.0469 92.1133 11.2461 92.5586 11.6445C93.0273 12.043 93.2617 12.3594 93.2617 12.5938C93.2617 12.7344 92.6172 12.875 91.3281 13.0156C90.0625 13.1562 87.4844 13.3438 83.5938 13.5781C83.2422 14.5156 82.7969 15.5117 82.2578 16.5664L96.2148 15.8633C96.7305 15.8398 97.2344 15.7344 97.7266 15.5469C97.7734 15.5234 97.8672 15.5117 98.0078 15.5117C98.2422 15.5117 98.5 15.6172 98.7812 15.8281C99.0859 16.0391 99.3438 16.2852 99.5547 16.5664C99.7656 16.8242 99.8711 17.0117 99.8711 17.1289C99.8711 17.4102 99.6016 17.5742 99.0625 17.6211L90.4844 18.043C91.9141 19.8477 93.4609 21.4297 95.125 22.7891C96.7891 24.1484 98.6758 25.3203 100.785 26.3047C101.254 26.5156 101.488 26.7031 101.488 26.8672C101.488 26.9844 101.371 27.1719 101.137 27.4297C100.926 27.6641 100.668 27.8867 100.363 28.0977C100.082 28.2852 99.8242 28.3789 99.5898 28.3789C99.4258 28.3789 98.9453 28.1562 98.1484 27.7109C97.375 27.2656 96.4258 26.6094 95.3008 25.7422C94.1992 24.875 93.0625 23.832 91.8906 22.6133C91.9141 22.6602 91.9258 22.7188 91.9258 22.7891C91.9258 22.8594 91.8906 22.9766 91.8203 23.1406C91.7734 23.2812 91.75 23.3984 91.75 23.4922L91.2578 31.2969C91.8672 32.0703 92.1719 32.6094 92.1719 32.9141C92.1719 33.1016 92.0781 33.2188 91.8906 33.2656C91.7266 33.3125 91.4688 33.3359 91.1172 33.3359L80.3242 33.6172L80.3594 34.4961V34.6016C80.3594 35.0703 80.1367 35.3047 79.6914 35.3047C79.3867 35.3047 79.0234 35.1875 78.6016 34.9531C78.1797 34.7188 77.9688 34.3672 77.9688 33.8984V33.7578C77.9688 33.5234 77.9922 33.1953 78.0391 32.7734C78.0859 32.3516 78.1094 32.0352 78.1094 31.8242V31.5078L77.6172 23.8438C77.6172 23.7031 77.6055 23.5742 77.582 23.457C77.5586 23.3398 77.5352 23.2227 77.5117 23.1055C76.2227 24.4648 74.8984 25.625 73.5391 26.5859C72.2031 27.5469 71.0195 28.2852 69.9883 28.8008C68.9805 29.3164 68.3594 29.5742 68.125 29.5742C67.9141 29.5742 67.8086 29.5039 67.8086 29.3633ZM79.9375 26.6914L89.3594 26.3398L89.4648 23.457L79.7969 23.9141L79.9375 26.6914ZM80.2188 31.6133L89.1484 31.4023L89.2891 28.2031L80.043 28.5547L80.2188 31.6133Z" fill="#333333"/>
<path d="M165.121 14.3867C164.957 14.3867 164.781 14.2812 164.594 14.0703C164.453 13.9062 164.359 13.7773 164.312 13.6836C164.266 13.5664 164.266 13.4141 164.312 13.2266L164.348 12.3828C164.371 12.2188 164.383 11.8203 164.383 11.1875V10.0273L163.328 10.5195L162.098 11.0469C161.793 11.1641 161.477 11.3047 161.148 11.4688C160.867 11.6094 160.621 11.6797 160.41 11.6797C160.246 11.6562 160.059 11.5977 159.848 11.5039C159.637 11.4102 159.473 11.3281 159.355 11.2578C159.098 11.0938 158.98 10.918 159.004 10.7305L159.109 10.3789C159.109 10.1914 159.121 10.0273 159.145 9.88672L159.18 7.84766V5.94922C159.18 5.57422 159.156 5.25781 159.109 5C159.062 4.71875 159.027 4.51953 159.004 4.40234C159.004 4.28516 159.039 4.20312 159.109 4.15625C159.133 4.13281 159.191 4.12109 159.285 4.12109C159.449 4.12109 159.766 4.22656 160.234 4.4375C160.633 4.625 160.797 4.85938 160.727 5.14062C160.68 5.30469 160.633 5.55078 160.586 5.87891L160.48 9.92188C160.48 10.0391 160.492 10.1328 160.516 10.2031C160.562 10.25 160.609 10.2734 160.656 10.2734C160.938 10.2734 161.277 10.1914 161.676 10.0273C162.426 9.79297 163.07 9.55859 163.609 9.32422L164.383 9.00781V6.6875C164.383 5.75 164.324 4.84766 164.207 3.98047C164.184 3.91016 164.172 3.82812 164.172 3.73438C164.172 3.5 164.266 3.38281 164.453 3.38281C164.477 3.38281 164.605 3.42969 164.84 3.52344C165.191 3.71094 165.449 3.875 165.613 4.01562C165.777 4.15625 165.871 4.23828 165.895 4.26172C165.988 4.33203 166.035 4.40234 166.035 4.47266C166.035 4.51953 166.012 4.57812 165.965 4.64844C165.941 4.71875 165.918 4.77734 165.895 4.82422L165.789 5.87891L165.754 9.11328L165.789 12.2422C165.789 12.7812 165.754 13.25 165.684 13.6484C165.566 14.1406 165.379 14.3867 165.121 14.3867ZM158.652 20.1523C158.395 20.1523 158.078 19.9531 157.703 19.5547C157.422 19.2734 157.281 19.0625 157.281 18.9219C157.281 18.8516 157.328 18.8164 157.422 18.8164C157.516 18.793 157.633 18.7812 157.773 18.7812L158.547 18.7461C158.992 18.7461 159.285 18.7344 159.426 18.7109C159.871 18.7109 160.246 18.6992 160.551 18.6758C162.566 18.4883 163.926 18.3359 164.629 18.2188C164.98 18.1719 165.297 18.125 165.578 18.0781C165.859 18.0078 166.082 17.9727 166.246 17.9727C166.574 17.9727 166.902 18.1367 167.23 18.4648C167.488 18.7227 167.617 18.9336 167.617 19.0977C167.617 19.2383 167.535 19.332 167.371 19.3789C167.254 19.4023 166.562 19.4492 165.297 19.5195C164.594 19.543 163.727 19.6016 162.695 19.6953C161.664 19.7891 160.762 19.8828 159.988 19.9766C159.848 20 159.648 20.0352 159.391 20.082C159.133 20.1289 158.887 20.1523 158.652 20.1523ZM163.363 34.6719C162.637 34.6719 162.074 34.6484 161.676 34.6016C161.301 34.5547 160.984 34.4141 160.727 34.1797C160.281 33.8516 159.977 33.1367 159.812 32.0352L159.707 30.9102C159.707 30.6289 159.684 30.2773 159.637 29.8555C159.262 29.9023 158.992 29.9492 158.828 29.9961C158.781 30.0195 158.699 30.0547 158.582 30.1016C158.488 30.125 158.418 30.1367 158.371 30.1367C158.207 30.1367 158.055 30.0898 157.914 29.9961C157.773 29.9023 157.598 29.7266 157.387 29.4688C157.223 29.2578 157.141 29.1172 157.141 29.0469C157.141 28.9766 157.223 28.9297 157.387 28.9062C157.551 28.8828 157.773 28.8711 158.055 28.8711C158.453 28.8711 158.969 28.8242 159.602 28.7305L159.566 28.2383C159.566 27.3008 159.508 26.5039 159.391 25.8477L159.355 25.6016C159.355 25.2734 159.484 25.1445 159.742 25.2148C160.023 25.3086 160.281 25.4258 160.516 25.5664C160.703 25.6602 160.832 25.7539 160.902 25.8477C160.973 25.918 160.996 26.0234 160.973 26.1641L160.867 27.6758V28.5898L163.961 28.2734C163.961 28.1094 163.973 27.7227 163.996 27.1133C164.02 26.4805 164.02 26.0703 163.996 25.8828C163.996 25.6953 163.973 25.5195 163.926 25.3555C163.902 25.168 163.879 25.0156 163.855 24.8984C163.855 24.7109 163.949 24.6172 164.137 24.6172C164.324 24.6172 164.559 24.7227 164.84 24.9336C165.168 25.1445 165.379 25.332 165.473 25.4961C165.59 25.6602 165.613 25.8594 165.543 26.0938C165.426 26.4688 165.344 26.8906 165.297 27.3594C165.25 27.8281 165.227 28.1094 165.227 28.2031C165.508 28.1797 165.766 28.1445 166 28.0977C166.234 28.0508 166.387 28.0273 166.457 28.0273C166.645 27.9805 166.867 27.957 167.125 27.957C167.266 27.9805 167.465 28.1211 167.723 28.3789C167.934 28.6602 168.039 28.8828 168.039 29.0469C168.039 29.2812 167.816 29.375 167.371 29.3281C166.973 29.2578 166.574 29.2227 166.176 29.2227C165.777 29.2227 165.438 29.2344 165.156 29.2578C165.086 30.1016 164.945 30.9336 164.734 31.7539C164.688 31.9414 164.605 32.0938 164.488 32.2109C164.371 32.3516 164.266 32.4219 164.172 32.4219C164.008 32.4219 163.902 32.3516 163.855 32.2109C163.832 32.0938 163.82 31.8945 163.82 31.6133C163.867 31.0039 163.891 30.2422 163.891 29.3281C163.258 29.375 162.766 29.4219 162.414 29.4688C161.875 29.5859 161.371 29.6562 160.902 29.6797C160.879 30.6406 160.926 31.4961 161.043 32.2461C161.113 32.7383 161.254 33.0781 161.465 33.2656C161.605 33.3828 161.77 33.4531 161.957 33.4766C162.168 33.5 162.379 33.5117 162.59 33.5117C162.801 33.5117 162.941 33.5117 163.012 33.5117C163.738 33.5117 164.418 33.4766 165.051 33.4062C165.238 33.3828 165.402 33.3359 165.543 33.2656C165.707 33.1953 165.824 33.1602 165.895 33.1602C166.105 33.1602 166.316 33.2305 166.527 33.3711C166.738 33.5117 166.844 33.6758 166.844 33.8633C166.844 34.0508 166.738 34.1914 166.527 34.2852C166.34 34.3789 166.035 34.4609 165.613 34.5312C164.863 34.625 164.113 34.6719 163.363 34.6719ZM173.383 18.6758C173.664 18.6758 173.805 18.8047 173.805 19.0625C173.805 19.2031 173.676 19.4023 173.418 19.6602C172.715 20.5273 171.32 22.1797 169.234 24.6172C169.07 24.8281 168.918 24.9336 168.777 24.9336C168.66 24.9336 168.402 24.7578 168.004 24.4062C167.676 24.125 167.512 23.8906 167.512 23.7031C167.512 23.4922 167.688 23.293 168.039 23.1055C168.578 22.8008 169.387 22.1914 170.465 21.2773C171.543 20.3164 172.34 19.5547 172.855 18.9922C173.066 18.7812 173.242 18.6758 173.383 18.6758ZM128.699 30.1719C130.785 29.5156 132.648 28.8008 134.289 28.0273C133.938 27.5352 133.492 26.9727 132.953 26.3398C132.766 26.1055 132.672 25.918 132.672 25.7773C132.672 25.5195 132.824 25.2969 133.129 25.1094C133.434 24.8984 133.668 24.793 133.832 24.793C134.02 24.793 134.219 24.9102 134.43 25.1445C135.766 26.7148 136.902 28.0977 137.84 29.293C138.777 30.4883 139.246 31.2148 139.246 31.4727C139.246 31.6836 139.082 31.9297 138.754 32.2109C138.449 32.5156 138.156 32.668 137.875 32.668C137.641 32.668 137.406 32.4805 137.172 32.1055C136.633 31.2852 136.023 30.3945 135.344 29.4336L131.125 31.543C130.656 31.7539 129.918 32.1289 128.91 32.668C128.066 33.1133 127.551 33.3359 127.363 33.3359C127.223 33.3359 127.047 33.2422 126.836 33.0547C126.625 32.8906 126.461 32.6797 126.344 32.4219C126.25 32.1875 126.25 32 126.344 31.8594C126.484 31.6016 126.555 30.5703 126.555 28.7656V16.6016C126.555 16.0391 126.531 15.582 126.484 15.2305C126.461 14.8789 126.367 14.5039 126.203 14.1055C126.18 14.0352 126.156 13.9766 126.133 13.9297C126.109 13.8828 126.098 13.8359 126.098 13.7891C126.098 13.6719 126.18 13.6133 126.344 13.6133C126.648 13.6133 127.41 13.8711 128.629 14.3867L136.258 13.8594C136.445 13.8359 136.656 13.8242 136.891 13.8242C137.148 13.8242 137.453 13.9414 137.805 14.1758C138.156 14.3867 138.332 14.6211 138.332 14.8789C138.332 14.9727 138.273 15.1133 138.156 15.3008C138.062 15.4883 138.016 15.6289 138.016 15.7227L137.102 22.332C137.664 22.9883 137.945 23.4336 137.945 23.668C137.945 23.7852 137.875 23.8672 137.734 23.9141C137.617 23.9609 137.43 23.9844 137.172 23.9844L128.664 24.3008L128.699 30.1719ZM122.934 14.3867C122.934 14.1523 123.086 13.8711 123.391 13.543C125.102 11.6445 126.59 9.75781 127.855 7.88281C129.121 6.00781 129.754 4.75391 129.754 4.12109L129.719 3.875V3.76953C129.719 3.44141 129.848 3.27734 130.105 3.27734C130.41 3.27734 130.832 3.48828 131.371 3.91016C131.934 4.30859 132.215 4.63672 132.215 4.89453C132.215 5.01172 132.156 5.16406 132.039 5.35156C131.688 5.91406 131.301 6.47656 130.879 7.03906L135.871 6.65234C136.293 6.62891 136.738 6.53516 137.207 6.37109C137.348 6.32422 137.453 6.30078 137.523 6.30078C137.875 6.30078 138.25 6.5 138.648 6.89844C139.07 7.27344 139.281 7.56641 139.281 7.77734C139.281 8.05859 139.023 8.22266 138.508 8.26953L132.496 8.69141C132.66 8.73828 133.023 8.98438 133.586 9.42969C134.172 9.875 134.699 10.332 135.168 10.8008C135.637 11.2695 135.871 11.5977 135.871 11.7852C135.871 11.9961 135.73 12.2539 135.449 12.5586C135.168 12.8398 134.922 12.9805 134.711 12.9805C134.523 12.9805 134.301 12.8281 134.043 12.5234C133.246 11.6562 132.438 10.8945 131.617 10.2383C131.336 10.0039 131.195 9.80469 131.195 9.64062C131.195 9.52344 131.254 9.37109 131.371 9.18359C131.488 8.99609 131.641 8.84375 131.828 8.72656L129.473 8.90234C128.348 10.2852 127.105 11.5859 125.746 12.8047C124.387 14 123.52 14.5977 123.145 14.5977C123.004 14.5977 122.934 14.5273 122.934 14.3867ZM135.59 18.043L135.836 15.582L128.594 16.0742V18.3945L135.59 18.043ZM135.133 22.4023L135.414 19.6953L128.629 20.0117V22.6484L135.133 22.4023ZM137.031 12.875C137.031 12.6406 137.184 12.3594 137.488 12.0312C138.637 10.6484 139.68 9.08984 140.617 7.35547C141.578 5.59766 142.059 4.36719 142.059 3.66406V3.52344C142.059 3.17188 142.188 2.99609 142.445 2.99609C142.609 2.99609 142.855 3.08984 143.184 3.27734C143.535 3.44141 143.852 3.64062 144.133 3.875C144.414 4.10938 144.555 4.34375 144.555 4.57812C144.555 4.78906 144.391 5.16406 144.062 5.70312C143.734 6.24219 143.559 6.52344 143.535 6.54688L150.461 5.98438C150.977 5.9375 151.422 5.85547 151.797 5.73828C151.844 5.71484 151.938 5.70312 152.078 5.70312C152.406 5.70312 152.758 5.89062 153.133 6.26562C153.531 6.61719 153.73 6.91016 153.73 7.14453C153.73 7.28516 153.66 7.40234 153.52 7.49609C153.402 7.56641 153.238 7.61328 153.027 7.63672L145.891 8.12891C146.547 8.55078 147.32 9.17188 148.211 9.99219C149.102 10.7891 149.547 11.3281 149.547 11.6094C149.547 11.7734 149.418 12.0312 149.16 12.3828C148.902 12.7109 148.656 12.875 148.422 12.875C148.234 12.875 148.035 12.7578 147.824 12.5234C146.676 11.2812 145.633 10.2969 144.695 9.57031C144.461 9.38281 144.344 9.20703 144.344 9.04297C144.344 8.85547 144.52 8.57422 144.871 8.19922L142.27 8.375C141.496 9.40625 140.559 10.4492 139.457 11.5039C138.379 12.5586 137.652 13.0859 137.277 13.0859C137.113 13.0859 137.031 13.0156 137.031 12.875ZM140.336 13.6484C140.336 13.5078 140.418 13.4375 140.582 13.4375C140.934 13.4375 141.73 13.7305 142.973 14.3164L150.039 13.7188L150.32 13.6836C150.414 13.6836 150.59 13.7305 150.848 13.8242C151.129 13.8945 151.387 14.0234 151.621 14.2109C151.879 14.375 152.008 14.5977 152.008 14.8789C152.008 14.9727 151.973 15.1016 151.902 15.2656C151.832 15.4297 151.797 15.5469 151.797 15.6172C151.773 18.1953 151.609 20.9492 151.305 23.8789L151.234 24.7578C151.164 25.7422 151.07 26.5625 150.953 27.2188C150.836 27.875 150.637 28.3906 150.355 28.7656C149.91 29.375 149.43 29.6797 148.914 29.6797C148.398 29.6797 147.742 29.3633 146.945 28.7305C146.148 28.0977 145.41 27.4062 144.73 26.6562C144.074 25.9062 143.746 25.4258 143.746 25.2148C143.746 25.0508 143.84 24.9688 144.027 24.9688C144.238 24.9688 144.531 25.0859 144.906 25.3203C145.773 25.8594 146.5 26.293 147.086 26.6211C147.672 26.9492 148.094 27.1133 148.352 27.1133C148.469 27.1133 148.551 27.0312 148.598 26.8672C149.137 23.8672 149.465 20.1055 149.582 15.582L142.973 16.0742C142.973 20.0352 143.008 26.3164 143.078 34.918C143.078 35.1289 143.02 35.2812 142.902 35.375C142.809 35.4922 142.68 35.5508 142.516 35.5508C142.328 35.5508 142.105 35.4805 141.848 35.3398C141.402 35.1523 141.086 34.9766 140.898 34.8125C140.711 34.6484 140.617 34.4609 140.617 34.25L140.652 34.0039C140.793 33.2305 140.863 32.3633 140.863 31.4023L140.758 16.5664C140.758 15.957 140.734 15.4883 140.688 15.1602C140.664 14.832 140.594 14.5156 140.477 14.2109C140.383 13.9297 140.336 13.7422 140.336 13.6484Z" fill="#333333"/>
<path d="M212.652 14.1758C212.395 14.1758 212.078 13.9766 211.703 13.5781C211.422 13.2969 211.281 13.0859 211.281 12.9453C211.281 12.875 211.328 12.8398 211.422 12.8398C211.516 12.8164 211.633 12.8047 211.773 12.8047L212.547 12.7695C212.992 12.7695 213.285 12.7578 213.426 12.7344C213.871 12.7344 214.246 12.7227 214.551 12.6992C216.566 12.5117 217.926 12.3594 218.629 12.2422C218.98 12.1953 219.297 12.1484 219.578 12.1016C219.859 12.0312 220.082 11.9961 220.246 11.9961C220.574 11.9961 220.902 12.1602 221.23 12.4883C221.488 12.7461 221.617 12.957 221.617 13.1211C221.617 13.2617 221.535 13.3555 221.371 13.4023C221.254 13.4258 220.562 13.4727 219.297 13.543C218.594 13.5664 217.727 13.625 216.695 13.7188C215.664 13.8125 214.762 13.9062 213.988 14C213.848 14.0234 213.648 14.0586 213.391 14.1055C213.133 14.1523 212.887 14.1758 212.652 14.1758ZM220.914 30.1367C220.891 30.1602 220.832 30.1719 220.738 30.1719C220.551 30.1719 220.281 30.043 219.93 29.7852C219.133 28.9883 218.09 28.0039 216.801 26.832C216.191 27.4414 215.617 27.9688 215.078 28.4141C214.891 28.5547 214.562 28.7656 214.094 29.0469C213.414 29.4453 212.758 29.6914 212.125 29.7852H211.914C211.703 29.7852 211.574 29.7617 211.527 29.7148C211.504 29.6914 211.551 29.6445 211.668 29.5742C211.809 29.5039 211.914 29.4453 211.984 29.3984C212.125 29.3281 212.523 29.0703 213.18 28.625C213.508 28.3906 213.977 27.9922 214.586 27.4297C215.195 26.8672 215.641 26.4102 215.922 26.0586L214.48 24.9336C214.223 24.7461 213.941 24.5469 213.637 24.3359C213.355 24.1016 213.156 23.9492 213.039 23.8789L213.004 23.7734C213.004 23.6328 213.121 23.5625 213.355 23.5625C213.637 23.5625 214.094 23.7383 214.727 24.0898L216.52 25.25C216.918 24.7344 217.316 24.1719 217.715 23.5625C218.137 22.9297 218.359 22.5547 218.383 22.4375C218.406 22.3672 218.395 22.3086 218.348 22.2617C218.324 22.1914 218.277 22.1562 218.207 22.1562H217.504L216.238 22.2617C215.605 22.3086 214.973 22.3906 214.34 22.5078C214.27 22.5312 214.152 22.5664 213.988 22.6133C213.824 22.6602 213.684 22.6836 213.566 22.6836C213.52 22.6836 213.32 22.5547 212.969 22.2969C212.641 22.0156 212.465 21.8398 212.441 21.7695C212.418 21.7461 212.406 21.7109 212.406 21.6641C212.406 21.5469 212.535 21.5 212.793 21.5234C213.051 21.5234 213.215 21.5234 213.285 21.5234C213.941 21.5234 214.891 21.4648 216.133 21.3477L217.328 21.2422L218.418 21.1016C218.77 21.0078 218.969 20.9609 219.016 20.9609H219.086C219.203 20.9609 219.309 20.9961 219.402 21.0664C219.496 21.1367 219.566 21.207 219.613 21.2773C219.66 21.3477 219.695 21.3945 219.719 21.418C219.742 21.4414 219.812 21.5117 219.93 21.6289C220.047 21.7227 220.117 21.8164 220.141 21.9102C220.188 21.9805 220.211 22.0625 220.211 22.1562C220.211 22.3672 220.129 22.5195 219.965 22.6133C219.848 22.6602 219.637 22.9062 219.332 23.3516C218.816 24.1719 218.195 25.0508 217.469 25.9883C217.867 26.2461 218.383 26.6211 219.016 27.1133C219.297 27.3008 219.754 27.6172 220.387 28.0625C220.668 28.2734 220.879 28.5547 221.02 28.9062C221.113 29.2812 221.16 29.5625 221.16 29.75C221.137 29.9375 221.055 30.0664 220.914 30.1367ZM227.383 14.8086C227.664 14.8086 227.805 14.9375 227.805 15.1953C227.805 15.3359 227.676 15.5352 227.418 15.793C226.715 16.6602 225.32 18.3125 223.234 20.75C223.07 20.9609 222.918 21.0664 222.777 21.0664C222.66 21.0664 222.402 20.8906 222.004 20.5391C221.676 20.2578 221.512 20.0234 221.512 19.8359C221.512 19.625 221.688 19.4258 222.039 19.2383C222.578 18.9336 223.387 18.3242 224.465 17.4102C225.543 16.4492 226.34 15.6875 226.855 15.125C227.066 14.9141 227.242 14.8086 227.383 14.8086ZM206.852 35.0234C204.156 35.0234 200.898 34.707 197.078 34.0742C193.281 33.4414 189.215 32.668 184.879 31.7539C183.52 31.4727 182.43 31.332 181.609 31.332C180.461 31.332 179.254 31.543 177.988 31.9648C177.777 32.0352 177.59 32.0703 177.426 32.0703C176.84 32.0703 176.547 31.5664 176.547 30.5586C176.547 30.3711 176.605 30.2305 176.723 30.1367C176.84 30.0195 177.074 29.9258 177.426 29.8555C177.777 29.7617 178.34 29.6562 179.113 29.5391C180.707 28.0859 182.066 26.6562 183.191 25.25C183.238 25.1562 183.262 25.0977 183.262 25.0742C183.262 24.9336 183.004 24.6641 182.488 24.2656C181.996 23.8438 181.398 23.3984 180.695 22.9297C180.086 22.5312 179.781 22.0742 179.781 21.5586C179.781 21.1602 179.98 20.6562 180.379 20.0469L182.629 16.7773L179.395 17.1992L178.656 17.2695C178.164 17.2695 177.754 17.082 177.426 16.707C177.098 16.332 176.887 15.957 176.793 15.582C176.77 15.5352 176.758 15.4648 176.758 15.3711C176.758 15.207 176.828 15.125 176.969 15.125L177.18 15.1602C177.531 15.2305 177.883 15.2656 178.234 15.2656C178.469 15.2656 178.645 15.2539 178.762 15.2305L184 14.668L184.352 14.6328C184.422 14.6328 184.574 14.6914 184.809 14.8086C185.043 14.9023 185.254 15.043 185.441 15.2305C185.629 15.3945 185.723 15.582 185.723 15.793C185.723 16.0039 185.629 16.2031 185.441 16.3906C185.254 16.5547 185.137 16.6719 185.09 16.7422C185.043 16.8125 184.492 17.5391 183.438 18.9219C182.383 20.2812 181.855 21.0547 181.855 21.2422C181.855 21.3359 181.914 21.418 182.031 21.4883C182.805 21.9805 183.707 22.707 184.738 23.668C185.184 24.0664 185.406 24.5352 185.406 25.0742C185.406 25.5664 185.195 26.0469 184.773 26.5156C183.391 27.9922 182.465 28.9531 181.996 29.3984C182.887 29.4219 183.953 29.5508 185.195 29.7852C195.227 31.7773 202.785 32.7734 207.871 32.7734H208.047C208.586 32.7734 208.855 32.8789 208.855 33.0898C208.855 33.1602 208.773 33.3594 208.609 33.6875C208.469 34.0156 208.27 34.3203 208.012 34.6016C207.754 34.8828 207.449 35.0234 207.098 35.0234H206.852ZM178.691 6.54688C178.691 6.35938 178.844 6.14844 179.148 5.91406C179.453 5.67969 179.699 5.5625 179.887 5.5625C180.121 5.5625 180.672 5.97266 181.539 6.79297C182.43 7.61328 183.262 8.49219 184.035 9.42969C184.832 10.3438 185.23 10.918 185.23 11.1523C185.23 11.3867 185.066 11.668 184.738 11.9961C184.434 12.3242 184.129 12.4883 183.824 12.4883C183.543 12.4883 183.262 12.2656 182.98 11.8203C181.855 10.2031 180.566 8.67969 179.113 7.25C178.832 6.96875 178.691 6.73438 178.691 6.54688ZM184.844 28.6602C184.844 28.3789 184.996 28.0156 185.301 27.5703C186.613 25.4375 187.574 23.1289 188.184 20.6445C188.816 18.1367 189.203 15.2422 189.344 11.9609L188.113 12.0664C187.926 12.0898 187.691 12.1016 187.41 12.1016C187.012 12.1016 186.707 12.0195 186.496 11.8555C186.168 11.5039 185.934 11.0586 185.793 10.5195C185.77 10.4727 185.758 10.4141 185.758 10.3438C185.758 10.25 185.816 10.2031 185.934 10.2031H186.004C186.191 10.2031 186.449 10.2266 186.777 10.2734C187.105 10.3203 187.363 10.3438 187.551 10.3438H187.867L192.965 9.99219C193.387 9.96875 193.867 9.85156 194.406 9.64062C194.477 9.59375 194.594 9.57031 194.758 9.57031C195.062 9.57031 195.426 9.74609 195.848 10.0977C196.293 10.4492 196.516 10.7305 196.516 10.9414C196.516 11.0586 196.445 11.1641 196.305 11.2578C196.164 11.3516 195.977 11.4102 195.742 11.4336L191.383 11.8203C191.289 13.1328 191.195 14.1055 191.102 14.7383L193.773 14.5977H194.055C194.43 14.5977 194.734 14.6797 194.969 14.8438C195.367 15.1953 195.566 15.5117 195.566 15.793C195.566 15.8867 195.543 16.0156 195.496 16.1797C195.449 16.3438 195.414 16.5078 195.391 16.6719C195.25 20.3281 194.922 23.6914 194.406 26.7617C194.195 27.957 193.844 28.7656 193.352 29.1875C192.859 29.6094 192.449 29.8203 192.121 29.8203C191.441 29.8203 190.469 28.8008 189.203 26.7617C188.992 26.4336 188.887 26.1875 188.887 26.0234C188.887 25.8594 188.969 25.7773 189.133 25.7773C189.297 25.7773 189.543 25.9062 189.871 26.1641C190.574 26.7266 191.184 27.125 191.699 27.3594C191.723 27.3828 191.77 27.3945 191.84 27.3945C191.98 27.3945 192.074 27.3359 192.121 27.2188C192.543 25.6016 192.836 23.9375 193 22.2266C193.188 20.5156 193.328 18.5703 193.422 16.3906L190.891 16.4961C190.562 19.0039 190.023 21.1953 189.273 23.0703C188.547 24.9219 187.48 26.6445 186.074 28.2383C185.629 28.707 185.301 28.9414 185.09 28.9414C184.926 28.9414 184.844 28.8477 184.844 28.6602ZM188.395 5.17578C188.395 4.96484 188.5 4.74219 188.711 4.50781C188.945 4.25 189.168 4.12109 189.379 4.12109C189.566 4.12109 190.059 4.39062 190.855 4.92969C191.676 5.44531 192.438 5.99609 193.141 6.58203C193.844 7.16797 194.195 7.57812 194.195 7.8125C194.195 8 194.066 8.26953 193.809 8.62109C193.551 8.94922 193.293 9.11328 193.035 9.11328C192.918 9.11328 192.789 9.06641 192.648 8.97266C192.531 8.85547 192.426 8.76172 192.332 8.69141C192.262 8.59766 192.203 8.52734 192.156 8.48047C191.734 8.03516 191.301 7.63672 190.855 7.28516C190.434 6.93359 190.023 6.62891 189.625 6.37109C189.25 6.08984 188.992 5.90234 188.852 5.80859C188.547 5.57422 188.395 5.36328 188.395 5.17578ZM195.707 14.3164C195.707 14.1523 195.801 13.8594 195.988 13.4375C196.621 12.2422 197.16 11 197.605 9.71094C198.074 8.39844 198.426 7.25 198.66 6.26562C198.918 5.25781 199.047 4.66016 199.047 4.47266C199.047 4.21484 199 3.98047 198.906 3.76953C198.883 3.72266 198.871 3.65234 198.871 3.55859C198.871 3.37109 198.977 3.27734 199.188 3.27734C199.352 3.27734 199.609 3.33594 199.961 3.45312C200.312 3.57031 200.617 3.73438 200.875 3.94531C201.156 4.15625 201.297 4.39062 201.297 4.64844C201.297 4.74219 201.285 4.8125 201.262 4.85938C200.957 5.89062 200.547 7.03906 200.031 8.30469L204.109 7.88281C204.18 7.88281 204.344 7.87109 204.602 7.84766C204.859 7.82422 205.152 7.75391 205.48 7.63672C205.621 7.58984 205.715 7.56641 205.762 7.56641C206.043 7.56641 206.383 7.74219 206.781 8.09375C207.18 8.44531 207.379 8.72656 207.379 8.9375C207.379 9.24219 207.168 9.41797 206.746 9.46484L199.258 10.0273C198.93 10.6602 198.496 11.4219 197.957 12.3125C197.934 12.3359 197.945 12.3477 197.992 12.3477C198.039 12.3242 198.086 12.3125 198.133 12.3125H198.238C198.52 12.4062 198.836 12.4531 199.188 12.4531L199.715 12.418L204.391 12.0312H204.602C204.812 12.0312 205.105 12.1133 205.48 12.2773C205.879 12.4414 206.078 12.6641 206.078 12.9453C206.078 13.1797 205.973 13.4023 205.762 13.6133C205.574 13.8008 205.469 13.918 205.445 13.9648C204.578 15.2773 203.547 16.5078 202.352 17.6562C202.656 18.3594 202.891 19.1094 203.055 19.9062L204.707 19.8008C205.27 19.7773 205.785 19.6953 206.254 19.5547C206.395 19.5078 206.477 19.4844 206.5 19.4844C206.734 19.4844 207.051 19.6484 207.449 19.9766C207.848 20.2812 208.047 20.5742 208.047 20.8555C208.047 21.1602 207.812 21.3359 207.344 21.3828L203.336 21.6289C203.547 22.918 203.652 24.3008 203.652 25.7773C203.652 27.6758 203.453 29.0469 203.055 29.8906C202.68 30.7344 202.176 31.1562 201.543 31.1562C201.121 31.1562 200.594 30.8984 199.961 30.3828C199.328 29.8438 198.766 29.2461 198.273 28.5898C197.781 27.9336 197.535 27.4766 197.535 27.2188C197.535 27.0781 197.605 27.0078 197.746 27.0078C197.957 27.0078 198.273 27.1484 198.695 27.4297C199.961 28.2734 200.723 28.6953 200.98 28.6953C201.191 28.6953 201.309 28.5898 201.332 28.3789C201.566 27.207 201.684 25.9648 201.684 24.6523C201.684 23.6211 201.613 22.6484 201.473 21.7344L198.73 21.9102L198.133 21.9453C197.477 21.9453 196.996 21.7812 196.691 21.4531C196.41 21.1016 196.223 20.7266 196.129 20.3281L196.094 20.1875C196.094 20.0703 196.164 20.0117 196.305 20.0117L196.48 20.0469C196.996 20.1641 197.477 20.2227 197.922 20.2227H198.238L201.086 20.0117C200.805 18.9805 200.383 17.9727 199.82 16.9883C199.75 16.8477 199.715 16.7305 199.715 16.6367C199.715 16.4492 199.867 16.2617 200.172 16.0742C200.5 15.8633 200.77 15.7578 200.98 15.7578C201.215 15.7578 201.414 15.8984 201.578 16.1797C202.305 15.3594 202.902 14.5391 203.371 13.7188L200.277 14.0703L199.434 14.1406C199.082 14.1406 198.777 14.0469 198.52 13.8594C198.285 13.6719 198.074 13.2617 197.887 12.6289C197.863 12.582 197.852 12.5117 197.852 12.418C197.5 13.0039 197.137 13.5195 196.762 13.9648C196.387 14.3867 196.105 14.5977 195.918 14.5977C195.777 14.5977 195.707 14.5039 195.707 14.3164Z" fill="#333333"/>
<path d="M270.414 18.1484C270.273 18.1484 270.086 17.9961 269.852 17.6914C269.617 17.3633 269.512 17.082 269.535 16.8477C269.582 16.6602 269.617 16.1328 269.641 15.2656C269.664 14.6797 269.676 13.6484 269.676 12.1719C269.676 11.1406 269.664 10.4492 269.641 10.0977L268.48 10.2031C267.66 10.3203 266.957 10.3789 266.371 10.3789C266.207 10.3789 265.973 10.25 265.668 9.99219C265.363 9.73438 265.211 9.54688 265.211 9.42969C265.211 9.24219 265.41 9.17188 265.809 9.21875C266.066 9.24219 266.828 9.23047 268.094 9.18359C269.828 9.06641 271.082 8.99609 271.855 8.97266C272.254 8.94922 272.617 8.91406 272.945 8.86719C273.297 8.79688 273.543 8.75 273.684 8.72656C273.895 8.70312 274.082 8.72656 274.246 8.79688C274.41 8.86719 274.562 8.96094 274.703 9.07812C274.867 9.17188 274.996 9.24219 275.09 9.28906C275.301 9.42969 275.406 9.55859 275.406 9.67578C275.406 9.76953 275.348 9.86328 275.23 9.95703C275.137 10.0273 275.031 10.0625 274.914 10.0625C274.797 10.0625 274.633 10.0508 274.422 10.0273C274.234 10.0039 274.023 9.99219 273.789 9.99219C272.922 9.99219 272.031 10.0156 271.117 10.0625C271.094 10.25 271.082 10.7188 271.082 11.4688C271.035 12.7344 271.012 13.9766 271.012 15.1953V16.5664V16.8828C271.012 17.2812 270.977 17.5391 270.906 17.6562C270.695 17.9844 270.531 18.1484 270.414 18.1484ZM266.652 26.4805C266.395 26.4805 266.078 26.2812 265.703 25.8828C265.422 25.6016 265.281 25.3906 265.281 25.25C265.281 25.1797 265.328 25.1445 265.422 25.1445C265.516 25.1211 265.633 25.1094 265.773 25.1094L266.547 25.0742C266.992 25.0742 267.285 25.0625 267.426 25.0391C267.871 25.0391 268.246 25.0273 268.551 25.0039C270.566 24.8164 271.926 24.6641 272.629 24.5469C272.98 24.5 273.297 24.4531 273.578 24.4062C273.859 24.3359 274.082 24.3008 274.246 24.3008C274.574 24.3008 274.902 24.4648 275.23 24.793C275.488 25.0508 275.617 25.2617 275.617 25.4258C275.617 25.5664 275.535 25.6602 275.371 25.707C275.254 25.7305 274.562 25.7773 273.297 25.8477C272.594 25.8711 271.727 25.9297 270.695 26.0234C269.664 26.1172 268.762 26.2109 267.988 26.3047C267.848 26.3281 267.648 26.3633 267.391 26.4102C267.133 26.457 266.887 26.4805 266.652 26.4805ZM276.883 17.6211C277 17.6211 277.176 17.7031 277.41 17.8672C277.387 17.9141 277.434 18.0078 277.551 18.1484C277.668 18.2656 277.75 18.3477 277.797 18.3945C277.914 18.5117 278.031 18.6523 278.148 18.8164C278.289 18.9805 278.441 19.1562 278.605 19.3438C279.027 19.7891 280 20.9492 281.523 22.8242C281.781 23.1992 281.91 23.4219 281.91 23.4922C281.91 23.7266 281.77 23.8438 281.488 23.8438C281.324 23.8438 281.148 23.7266 280.961 23.4922C280.516 23.0234 279.719 22.2852 278.57 21.2773C277.68 20.457 276.871 19.8242 276.145 19.3789C275.793 19.2148 275.617 19.0273 275.617 18.8164C275.617 18.6523 275.793 18.418 276.145 18.1133C276.473 17.7852 276.719 17.6211 276.883 17.6211ZM241.27 14.5977C241.27 14.9492 241.398 15.2188 241.656 15.4062C241.938 15.5938 242.477 15.6875 243.273 15.6875C244.188 15.6875 244.926 15.6172 245.488 15.4766C246.051 15.3359 246.426 15.1953 246.613 15.0547C246.684 15.0078 246.777 14.9844 246.895 14.9844C247.129 14.9844 247.387 15.1719 247.668 15.5469C247.949 15.8984 248.09 16.1797 248.09 16.3906C248.09 16.625 247.867 16.7773 247.422 16.8477C245.359 17.082 243.836 17.1992 242.852 17.1992C241.516 17.1992 240.602 17.0469 240.109 16.7422C239.617 16.4375 239.371 15.8633 239.371 15.0195V14.8086L239.406 14.2109L238.457 14.3164C238.246 14.3398 237.977 14.3516 237.648 14.3516C237.016 14.3516 236.582 14.1641 236.348 13.7891C236.113 13.4141 235.996 13.1211 235.996 12.9102C235.996 12.8164 236.055 12.7695 236.172 12.7695L236.348 12.8047C236.676 12.875 237.016 12.9102 237.367 12.9102C237.672 12.9102 237.906 12.8984 238.07 12.875L239.477 12.7344L239.582 10.9062L235.855 11.1172C235.832 11.4922 235.82 12.0547 235.82 12.8047C235.797 13.2969 235.75 14.457 235.68 16.2852C235.633 18.1133 235.539 19.7188 235.398 21.1016C235.188 23.4453 234.754 25.6133 234.098 27.6055C233.441 29.5742 232.75 31.1445 232.023 32.3164C231.32 33.5117 230.805 34.1094 230.477 34.1094C230.289 34.1094 230.195 33.9688 230.195 33.6875C230.195 33.3828 230.289 33.043 230.477 32.668C231.719 30.043 232.539 27.1367 232.938 23.9492C233.336 20.7383 233.57 16.9766 233.641 12.6641V11.7852C233.641 10.7539 233.523 9.92188 233.289 9.28906C233.195 9.00781 233.148 8.83203 233.148 8.76172C233.148 8.62109 233.219 8.55078 233.359 8.55078C233.688 8.55078 234.578 8.91406 236.031 9.64062L239.688 9.39453L239.758 5.35156C239.758 4.97656 239.711 4.66016 239.617 4.40234C239.547 4.12109 239.418 3.82812 239.23 3.52344L239.16 3.34766C239.16 3.23047 239.277 3.17188 239.512 3.17188C240.168 3.19531 240.719 3.3125 241.164 3.52344C241.609 3.71094 241.832 3.99219 241.832 4.36719L241.797 6.01953L243.977 5.87891C244.562 5.85547 245.09 5.73828 245.559 5.52734C245.746 5.45703 245.922 5.42188 246.086 5.42188C246.391 5.42188 246.754 5.58594 247.176 5.91406C247.621 6.24219 247.844 6.53516 247.844 6.79297C247.844 7.05078 247.527 7.20312 246.895 7.25L241.762 7.56641V9.25391L248.055 8.79688H248.406C248.781 8.79688 249.133 8.9375 249.461 9.21875C249.812 9.47656 249.988 9.72266 249.988 9.95703C249.988 10.1211 249.883 10.3086 249.672 10.5195C249.461 10.7305 249.32 10.8828 249.25 10.9766C247.984 12.8984 247.105 13.8594 246.613 13.8594C246.449 13.8594 246.367 13.7539 246.367 13.543C246.367 13.3555 246.461 13.0508 246.648 12.6289C246.859 12.1836 247.094 11.457 247.352 10.4492L241.516 10.8008L241.375 12.5234L242.605 12.418C243.309 12.3242 243.871 12.2188 244.293 12.1016C244.363 12.0781 244.457 12.0664 244.574 12.0664C244.645 12.0664 244.797 12.125 245.031 12.2422C245.266 12.3359 245.477 12.4766 245.664 12.6641C245.852 12.8281 245.945 13.0039 245.945 13.1914C245.945 13.3086 245.898 13.4141 245.805 13.5078C245.711 13.6016 245.582 13.6484 245.418 13.6484L241.27 14.0352V14.5977ZM233.57 32.0703C233.57 31.9062 233.664 31.8242 233.852 31.8242C233.945 31.8242 234.016 31.8359 234.062 31.8594C234.438 31.9531 234.836 32 235.258 32C235.562 32 236.336 31.9062 237.578 31.7188C238.844 31.5312 240.391 31.2617 242.219 30.9102C242.57 30.4883 242.957 29.9141 243.379 29.1875C243.824 28.4375 244.047 27.8047 244.047 27.2891V27.1133C244.047 26.8789 244.129 26.7617 244.293 26.7617C244.551 26.7617 244.914 26.9492 245.383 27.3242C245.875 27.6992 246.121 28.0273 246.121 28.3086C246.121 28.4258 245.922 28.7305 245.523 29.2227C245.148 29.6914 244.809 30.0781 244.504 30.3828C245.957 30.0547 247.352 29.6914 248.688 29.293C248.828 29.2461 249.004 29.2227 249.215 29.2227C249.379 29.2227 249.496 29.2578 249.566 29.3281C249.66 29.375 249.707 29.4453 249.707 29.5391C249.707 29.7969 249.426 30.043 248.863 30.2773C246.637 31.1211 244.539 31.8125 242.57 32.3516C240.602 32.9141 238.984 33.3242 237.719 33.582C236.453 33.8398 235.738 33.9688 235.574 33.9688C235.223 33.9688 234.895 33.8398 234.59 33.582C234.285 33.3477 234.039 33.0664 233.852 32.7383C233.664 32.4336 233.57 32.2109 233.57 32.0703ZM236.102 18.6406C236.102 18.5469 236.16 18.5 236.277 18.5H236.418C236.816 18.5938 237.273 18.6406 237.789 18.6406H238.281L244.785 18.3945C245.348 18.3711 245.922 18.2539 246.508 18.043C246.555 18.0195 246.637 18.0078 246.754 18.0078C247.035 18.0078 247.41 18.2422 247.879 18.7109C248.16 19.0156 248.301 19.2617 248.301 19.4492C248.301 19.6602 248.102 19.7891 247.703 19.8359L238.844 20.1875L238.07 20.2227C237.555 20.2227 237.145 20.1172 236.84 19.9062C236.559 19.6953 236.324 19.332 236.137 18.8164C236.113 18.7695 236.102 18.7109 236.102 18.6406ZM236.594 21.4883C236.594 21.3477 236.699 21.2773 236.91 21.2773C237.145 21.2773 237.824 21.4531 238.949 21.8047L245.945 21.418L246.332 21.3828C246.566 21.3828 246.766 21.4531 246.93 21.5938C247.375 21.8984 247.598 22.168 247.598 22.4023C247.598 22.5195 247.551 22.6484 247.457 22.7891C247.387 22.9062 247.34 23 247.316 23.0703L246.719 24.9336C247.328 25.5195 247.633 25.918 247.633 26.1289C247.633 26.2461 247.562 26.3281 247.422 26.375C247.305 26.3984 247.164 26.4102 247 26.4102L239.441 26.7266V26.7969C239.441 26.9609 239.395 27.1016 239.301 27.2188C239.207 27.3125 239.078 27.3594 238.914 27.3594C238.609 27.3594 238.27 27.2539 237.895 27.043C237.543 26.832 237.367 26.5977 237.367 26.3398V26.2695C237.391 26.082 237.402 25.8125 237.402 25.4609C237.402 25.1797 237.391 24.9688 237.367 24.8281L237.156 23.3867C237.109 22.918 236.969 22.4375 236.734 21.9453C236.641 21.7109 236.594 21.5586 236.594 21.4883ZM238.316 28.4492C238.316 28.2383 238.434 28.0273 238.668 27.8164C238.902 27.6055 239.125 27.5 239.336 27.5C239.758 27.5 240.461 28.2266 241.445 29.6797C241.539 29.8672 241.586 29.9961 241.586 30.0664C241.586 30.3008 241.41 30.5469 241.059 30.8047C240.801 30.9922 240.566 31.0859 240.355 31.0859C240.145 31.0859 239.945 30.9219 239.758 30.5938C239.359 29.9375 238.938 29.3633 238.492 28.8711C238.375 28.707 238.316 28.5664 238.316 28.4492ZM239.266 25.1797L244.785 24.9688L245.277 23L239.055 23.2812L239.266 25.1797ZM247.809 33.3359C247.809 33.0781 248.031 32.7617 248.477 32.3867C250.844 30.3945 252.812 28.3203 254.383 26.1641C253.703 23.8672 253.129 21.2305 252.66 18.2539L252.449 16.25L251.008 16.4609C250.633 16.5078 250.363 16.5312 250.199 16.5312C249.801 16.5312 249.461 16.4258 249.18 16.2148C248.898 16.0039 248.688 15.7578 248.547 15.4766C248.406 15.1953 248.336 14.9961 248.336 14.8789C248.336 14.7617 248.406 14.7031 248.547 14.7031L248.688 14.7383C248.875 14.7852 249.145 14.8086 249.496 14.8086C249.777 14.8086 250 14.7969 250.164 14.7734L252.203 14.457C251.898 11.8555 251.664 8.91406 251.5 5.63281C251.453 4.92969 251.277 4.39062 250.973 4.01562C250.879 3.89844 250.832 3.79297 250.832 3.69922C250.832 3.55859 250.961 3.48828 251.219 3.48828C251.617 3.48828 252.098 3.60547 252.66 3.83984C253.246 4.07422 253.539 4.37891 253.539 4.75391C253.656 7.89453 253.891 11.0234 254.242 14.1406L258.039 13.5781C258.531 13.5078 258.93 13.3672 259.234 13.1562C259.281 13.1094 259.363 13.0859 259.48 13.0859C259.762 13.0859 260.148 13.2734 260.641 13.6484C261.133 14.0234 261.379 14.3164 261.379 14.5273C261.379 14.7852 261.109 14.9492 260.57 15.0195L254.453 15.9336L254.664 17.9727C255.016 20.3164 255.414 22.3203 255.859 23.9844C256.469 22.9531 257.055 21.7695 257.617 20.4336C258.18 19.0742 258.461 18.0781 258.461 17.4453C258.461 17.1875 258.555 17.0586 258.742 17.0586C259.047 17.0586 259.457 17.2695 259.973 17.6914C260.512 18.1133 260.781 18.4648 260.781 18.7461C260.781 18.8164 260.77 18.875 260.746 18.9219C260.723 18.9688 260.699 19.0156 260.676 19.0625C259.387 21.875 258.004 24.2891 256.527 26.3047C257.629 29.4688 258.906 31.5078 260.359 32.4219L260.535 32.4922C260.652 32.4922 260.852 32.0469 261.133 31.1562C261.438 30.2422 261.754 28.9766 262.082 27.3594C262.176 26.9141 262.281 26.5742 262.398 26.3398C262.539 26.1055 262.668 25.9883 262.785 25.9883C262.902 25.9883 262.996 26.1172 263.066 26.375C263.16 26.6094 263.207 26.9375 263.207 27.3594V27.5703C263.184 28.625 263.113 29.6211 262.996 30.5586C262.902 31.4727 262.703 32.5508 262.398 33.793C262.281 34.2852 262.117 34.625 261.906 34.8125C261.719 35 261.461 35.0938 261.133 35.0938C260.922 35.0938 260.676 35.0586 260.395 34.9883C259.668 34.8242 258.812 34.2148 257.828 33.1602C256.844 32.1289 255.918 30.4531 255.051 28.1328C254.113 29.1641 253.152 30.1016 252.168 30.9453C251.184 31.7656 250.316 32.4102 249.566 32.8789C248.84 33.3477 248.359 33.582 248.125 33.582C247.914 33.582 247.809 33.5 247.809 33.3359ZM254.84 7.39062C254.84 7.22656 254.957 7.02734 255.191 6.79297C255.426 6.55859 255.672 6.44141 255.93 6.44141C256.117 6.44141 256.281 6.53516 256.422 6.72266C257.078 7.40234 257.758 8.17578 258.461 9.04297C259.188 9.91016 259.551 10.4727 259.551 10.7305C259.551 10.918 259.398 11.1523 259.094 11.4336C258.789 11.7148 258.52 11.8555 258.285 11.8555C258.098 11.8555 257.922 11.75 257.758 11.5391C257.055 10.3672 256.141 9.13672 255.016 7.84766C254.898 7.68359 254.84 7.53125 254.84 7.39062Z" fill="#333333"/>
</svg>
