<svg width="350" height="88" viewBox="0 0 350 88" fill="none" xmlns="http://www.w3.org/2000/svg">
<path d="M158.934 8.19922C158.77 8.19922 158.852 8.05859 159.18 7.77734C159.508 7.49609 159.906 7.15625 160.375 6.75781C160.844 6.33594 161.371 5.78516 161.957 5.10547C162.332 4.66016 162.613 4.19141 162.801 3.69922C162.918 3.41797 163.047 3.27734 163.188 3.27734C163.305 3.27734 163.48 3.37109 163.715 3.55859C164.184 3.93359 164.418 4.25 164.418 4.50781C164.418 4.67188 164.324 4.78906 164.137 4.85938C164.043 4.88281 163.902 4.98828 163.715 5.17578C163.527 5.33984 163.387 5.46875 163.293 5.5625C162.285 6.54688 161.348 7.26172 160.48 7.70703C159.777 8.03516 159.309 8.19922 159.074 8.19922H158.934ZM162.625 14.7383C162.555 14.7383 162.438 14.6445 162.273 14.457C162.133 14.2461 162.027 14.0469 161.957 13.8594C161.934 13.7188 161.934 13.543 161.957 13.332C162.004 13.0977 162.027 12.9219 162.027 12.8047C162.074 12.3359 162.098 11.9609 162.098 11.6797C162.121 11.4219 162.121 11.1406 162.098 10.8359C162.098 10.5312 162.098 10.332 162.098 10.2383L162.062 9.71094C161.5 10.1094 161.066 10.3906 160.762 10.5547C160.082 10.9297 159.59 11.1641 159.285 11.2578C158.91 11.3984 158.57 11.4688 158.266 11.4688C158.102 11.4688 158.008 11.4453 157.984 11.3984C157.938 11.3047 158.406 10.9648 159.391 10.3789C160.328 9.79297 161.348 9.01953 162.449 8.05859C163.059 7.49609 163.527 6.95703 163.855 6.44141C163.902 6.37109 163.938 6.28906 163.961 6.19531C164.008 6.07812 164.055 6.00781 164.102 5.98438C164.172 5.96094 164.266 5.97266 164.383 6.01953C164.688 6.18359 164.945 6.41797 165.156 6.72266C165.25 6.83984 165.297 6.95703 165.297 7.07422C165.297 7.19141 165.238 7.30859 165.121 7.42578C165.004 7.51953 164.887 7.58984 164.77 7.63672C164.371 7.89453 164.008 8.17578 163.68 8.48047C163.352 8.78516 163.141 8.98438 163.047 9.07812C163.398 9.35938 163.574 9.55859 163.574 9.67578L163.469 10.4141C163.422 10.625 163.398 11.1523 163.398 11.9961C163.398 12.8164 163.422 13.3672 163.469 13.6484V13.7188C163.469 13.8359 163.434 13.9648 163.363 14.1055C163.316 14.2227 163.281 14.3047 163.258 14.3516C163.094 14.6094 162.883 14.7383 162.625 14.7383ZM166.211 23.668C165.859 23.668 165.52 23.4102 165.191 22.8945C164.77 22.2383 164.359 21.6992 163.961 21.2773L163.047 20.3281C162.555 20.8906 162.121 21.3359 161.746 21.6641C161.395 21.9922 160.949 22.3086 160.41 22.6133C159.402 23.1992 158.559 23.4922 157.879 23.4922C157.715 23.4922 157.633 23.4336 157.633 23.3164C157.633 23.2461 157.855 23.0938 158.301 22.8594C158.746 22.625 159.168 22.3438 159.566 22.0156C160.574 21.1719 161.406 20.3047 162.062 19.4141C161.922 19.2734 161.219 18.6641 159.953 17.5859C159.789 17.4688 159.543 17.2695 159.215 16.9883C159.145 16.9414 159.004 16.8359 158.793 16.6719C158.582 16.5078 158.477 16.3906 158.477 16.3203C158.477 16.2031 158.535 16.1445 158.652 16.1445C159.004 16.1445 159.566 16.3906 160.34 16.8828C161.113 17.3516 161.922 17.9141 162.766 18.5703C163.094 18.1719 163.352 17.7969 163.539 17.4453C163.727 17.0938 163.938 16.6602 164.172 16.1445C164.289 15.8867 164.359 15.6641 164.383 15.4766C164.406 15.2656 164.418 15.1367 164.418 15.0898C164.418 14.832 164.488 14.7031 164.629 14.7031C164.793 14.7031 165.016 14.832 165.297 15.0898C165.789 15.5586 166.035 15.875 166.035 16.0391C166.035 16.1328 165.977 16.2383 165.859 16.3555C165.578 16.6367 165.32 17.0117 165.086 17.4805C164.945 17.7617 164.688 18.1602 164.312 18.6758C164.195 18.8164 164.102 18.9453 164.031 19.0625C163.961 19.1797 163.891 19.2852 163.82 19.3789C164.359 19.7773 165.156 20.457 166.211 21.418C166.469 21.6523 166.633 21.875 166.703 22.0859C166.797 22.2734 166.844 22.5312 166.844 22.8594C166.844 23.0938 166.785 23.293 166.668 23.457C166.551 23.5977 166.398 23.668 166.211 23.668ZM166.844 28.3086C167.102 28.5898 167.23 28.8242 167.23 29.0117C167.23 29.1758 167.137 29.3281 166.949 29.4688C166.832 29.5625 166.539 30.0781 166.07 31.0156C165.555 31.8594 164.98 32.5859 164.348 33.1953C163.738 33.8281 163.129 34.2852 162.52 34.5664C162.379 34.6133 162.262 34.6367 162.168 34.6367C162.074 34.6367 162.027 34.6133 162.027 34.5664V34.4961C162.027 34.3555 162.145 34.1914 162.379 34.0039C162.801 33.6758 163.117 33.3359 163.328 32.9844C163.562 32.6562 163.738 32.4102 163.855 32.2461C164.348 31.543 164.699 30.9688 164.91 30.5234C165.145 30.125 165.309 29.7148 165.402 29.293H165.262C164.652 29.293 163.668 29.3633 162.309 29.5039C162.098 29.5273 161.488 29.6094 160.48 29.75C160.27 29.7734 159.941 29.832 159.496 29.9258L159.074 30.0312C158.98 30.0781 158.887 30.1016 158.793 30.1016C158.676 30.1016 158.559 30.0781 158.441 30.0312C158.324 29.9609 158.207 29.8789 158.09 29.7852C157.809 29.5508 157.668 29.3516 157.668 29.1875C157.691 29.1406 157.715 29.0703 157.738 28.9766C157.785 28.8828 157.809 28.8008 157.809 28.7305L157.984 27.5703C158.008 27.4531 158.031 27.3242 158.055 27.1836C158.078 27.043 158.09 26.9023 158.09 26.7617C158.09 26.3164 158.078 25.9648 158.055 25.707C158.055 25.4258 158.02 25.1328 157.949 24.8281V24.7227C157.949 24.5586 158.02 24.4766 158.16 24.4766C158.301 24.4766 158.547 24.582 158.898 24.793C159.367 25.1211 159.602 25.3789 159.602 25.5664C159.602 25.6367 159.59 25.6953 159.566 25.7422C159.543 25.7891 159.52 25.8359 159.496 25.8828C159.426 26.3047 159.391 26.5391 159.391 26.5859L159.215 28.4492C159.215 28.4961 159.238 28.5547 159.285 28.625C159.355 28.6719 159.426 28.6953 159.496 28.6953C160.059 28.6953 161.324 28.5547 163.293 28.2734C164.066 28.2031 164.617 28.1211 164.945 28.0273C165.156 28.0039 165.332 27.9688 165.473 27.9219C165.637 27.8516 165.742 27.8164 165.789 27.8164C165.93 27.7695 166.023 27.7461 166.07 27.7461C166.281 27.7461 166.539 27.9336 166.844 28.3086ZM144.238 21.4531C144.496 21.4531 144.742 21.5234 144.977 21.6641C144.039 20.6328 143.113 19.4727 142.199 18.1836L135.062 18.5352C134.43 19.543 133.656 20.5977 132.742 21.6992C133.023 21.7695 133.387 21.875 133.832 22.0156L144.027 21.4531H144.238ZM121.809 29.3633C121.809 29.1523 122.066 28.8594 122.582 28.4844C126.848 25.6016 130.188 22.332 132.602 18.6758L126.133 18.9922L125.289 19.0273C125.078 19.0273 124.926 19.0156 124.832 18.9922C124.621 18.9922 124.457 18.9336 124.34 18.8164C123.801 18.3711 123.473 17.8672 123.355 17.3047C123.332 17.2578 123.32 17.1992 123.32 17.1289C123.32 16.9648 123.391 16.8828 123.531 16.8828L123.707 16.918C124.176 17.0352 124.668 17.0938 125.184 17.0938H125.465L133.797 16.6719L134.008 16.2852C134.383 15.6055 134.781 14.75 135.203 13.7188L132.074 13.8945C131.863 13.918 131.594 13.9297 131.266 13.9297C130.773 13.9297 130.375 13.8008 130.07 13.543C129.766 13.2852 129.555 13.0156 129.438 12.7344C129.32 12.4297 129.262 12.2305 129.262 12.1367C129.262 12.0195 129.332 11.9609 129.473 11.9609L129.648 11.9961C130.07 12.0664 130.504 12.1016 130.949 12.1016H131.406L135.871 11.8203C136.082 11.2344 136.316 10.3906 136.574 9.28906L129.613 9.74609C129.426 9.76953 129.18 9.78125 128.875 9.78125C128.406 9.78125 127.984 9.67578 127.609 9.46484C127.234 9.25391 126.918 8.80859 126.66 8.12891L126.625 7.91797C126.625 7.75391 126.719 7.67188 126.906 7.67188L127.082 7.70703C127.738 7.80078 128.242 7.84766 128.594 7.84766H128.945L136.926 7.35547C137.137 6.23047 137.242 5.45703 137.242 5.03516C137.242 4.56641 137.16 4.15625 136.996 3.80469C136.926 3.61719 136.891 3.48828 136.891 3.41797C136.891 3.20703 137.031 3.10156 137.312 3.10156C137.664 3.10156 138.145 3.19531 138.754 3.38281C139.387 3.57031 139.703 3.89844 139.703 4.36719L139.668 4.71875C139.551 5.49219 139.41 6.32422 139.246 7.21484L146.383 6.75781C146.641 6.73438 147.121 6.61719 147.824 6.40625C147.965 6.35938 148.059 6.33594 148.105 6.33594C148.434 6.33594 148.832 6.55859 149.301 7.00391C149.793 7.42578 150.039 7.76562 150.039 8.02344C150.039 8.28125 149.781 8.43359 149.266 8.48047L138.859 9.14844C138.789 9.45312 138.578 10.2969 138.227 11.6797L143.816 11.3633C144.332 11.3164 144.777 11.2344 145.152 11.1172C145.293 11.0703 145.398 11.0469 145.469 11.0469C145.75 11.0469 146.113 11.2461 146.559 11.6445C147.027 12.043 147.262 12.3594 147.262 12.5938C147.262 12.7344 146.617 12.875 145.328 13.0156C144.062 13.1562 141.484 13.3438 137.594 13.5781C137.242 14.5156 136.797 15.5117 136.258 16.5664L150.215 15.8633C150.73 15.8398 151.234 15.7344 151.727 15.5469C151.773 15.5234 151.867 15.5117 152.008 15.5117C152.242 15.5117 152.5 15.6172 152.781 15.8281C153.086 16.0391 153.344 16.2852 153.555 16.5664C153.766 16.8242 153.871 17.0117 153.871 17.1289C153.871 17.4102 153.602 17.5742 153.062 17.6211L144.484 18.043C145.914 19.8477 147.461 21.4297 149.125 22.7891C150.789 24.1484 152.676 25.3203 154.785 26.3047C155.254 26.5156 155.488 26.7031 155.488 26.8672C155.488 26.9844 155.371 27.1719 155.137 27.4297C154.926 27.6641 154.668 27.8867 154.363 28.0977C154.082 28.2852 153.824 28.3789 153.59 28.3789C153.426 28.3789 152.945 28.1562 152.148 27.7109C151.375 27.2656 150.426 26.6094 149.301 25.7422C148.199 24.875 147.062 23.832 145.891 22.6133C145.914 22.6602 145.926 22.7188 145.926 22.7891C145.926 22.8594 145.891 22.9766 145.82 23.1406C145.773 23.2812 145.75 23.3984 145.75 23.4922L145.258 31.2969C145.867 32.0703 146.172 32.6094 146.172 32.9141C146.172 33.1016 146.078 33.2188 145.891 33.2656C145.727 33.3125 145.469 33.3359 145.117 33.3359L134.324 33.6172L134.359 34.4961V34.6016C134.359 35.0703 134.137 35.3047 133.691 35.3047C133.387 35.3047 133.023 35.1875 132.602 34.9531C132.18 34.7188 131.969 34.3672 131.969 33.8984V33.7578C131.969 33.5234 131.992 33.1953 132.039 32.7734C132.086 32.3516 132.109 32.0352 132.109 31.8242V31.5078L131.617 23.8438C131.617 23.7031 131.605 23.5742 131.582 23.457C131.559 23.3398 131.535 23.2227 131.512 23.1055C130.223 24.4648 128.898 25.625 127.539 26.5859C126.203 27.5469 125.02 28.2852 123.988 28.8008C122.98 29.3164 122.359 29.5742 122.125 29.5742C121.914 29.5742 121.809 29.5039 121.809 29.3633ZM133.938 26.6914L143.359 26.3398L143.465 23.457L133.797 23.9141L133.938 26.6914ZM134.219 31.6133L143.148 31.4023L143.289 28.2031L134.043 28.5547L134.219 31.6133Z" fill="#333333"/>
<path d="M219.121 14.3867C218.957 14.3867 218.781 14.2812 218.594 14.0703C218.453 13.9062 218.359 13.7773 218.312 13.6836C218.266 13.5664 218.266 13.4141 218.312 13.2266L218.348 12.3828C218.371 12.2188 218.383 11.8203 218.383 11.1875V10.0273L217.328 10.5195L216.098 11.0469C215.793 11.1641 215.477 11.3047 215.148 11.4688C214.867 11.6094 214.621 11.6797 214.41 11.6797C214.246 11.6562 214.059 11.5977 213.848 11.5039C213.637 11.4102 213.473 11.3281 213.355 11.2578C213.098 11.0938 212.98 10.918 213.004 10.7305L213.109 10.3789C213.109 10.1914 213.121 10.0273 213.145 9.88672L213.18 7.84766V5.94922C213.18 5.57422 213.156 5.25781 213.109 5C213.062 4.71875 213.027 4.51953 213.004 4.40234C213.004 4.28516 213.039 4.20312 213.109 4.15625C213.133 4.13281 213.191 4.12109 213.285 4.12109C213.449 4.12109 213.766 4.22656 214.234 4.4375C214.633 4.625 214.797 4.85938 214.727 5.14062C214.68 5.30469 214.633 5.55078 214.586 5.87891L214.48 9.92188C214.48 10.0391 214.492 10.1328 214.516 10.2031C214.562 10.25 214.609 10.2734 214.656 10.2734C214.938 10.2734 215.277 10.1914 215.676 10.0273C216.426 9.79297 217.07 9.55859 217.609 9.32422L218.383 9.00781V6.6875C218.383 5.75 218.324 4.84766 218.207 3.98047C218.184 3.91016 218.172 3.82812 218.172 3.73438C218.172 3.5 218.266 3.38281 218.453 3.38281C218.477 3.38281 218.605 3.42969 218.84 3.52344C219.191 3.71094 219.449 3.875 219.613 4.01562C219.777 4.15625 219.871 4.23828 219.895 4.26172C219.988 4.33203 220.035 4.40234 220.035 4.47266C220.035 4.51953 220.012 4.57812 219.965 4.64844C219.941 4.71875 219.918 4.77734 219.895 4.82422L219.789 5.87891L219.754 9.11328L219.789 12.2422C219.789 12.7812 219.754 13.25 219.684 13.6484C219.566 14.1406 219.379 14.3867 219.121 14.3867ZM212.652 20.1523C212.395 20.1523 212.078 19.9531 211.703 19.5547C211.422 19.2734 211.281 19.0625 211.281 18.9219C211.281 18.8516 211.328 18.8164 211.422 18.8164C211.516 18.793 211.633 18.7812 211.773 18.7812L212.547 18.7461C212.992 18.7461 213.285 18.7344 213.426 18.7109C213.871 18.7109 214.246 18.6992 214.551 18.6758C216.566 18.4883 217.926 18.3359 218.629 18.2188C218.98 18.1719 219.297 18.125 219.578 18.0781C219.859 18.0078 220.082 17.9727 220.246 17.9727C220.574 17.9727 220.902 18.1367 221.23 18.4648C221.488 18.7227 221.617 18.9336 221.617 19.0977C221.617 19.2383 221.535 19.332 221.371 19.3789C221.254 19.4023 220.562 19.4492 219.297 19.5195C218.594 19.543 217.727 19.6016 216.695 19.6953C215.664 19.7891 214.762 19.8828 213.988 19.9766C213.848 20 213.648 20.0352 213.391 20.082C213.133 20.1289 212.887 20.1523 212.652 20.1523ZM217.363 34.6719C216.637 34.6719 216.074 34.6484 215.676 34.6016C215.301 34.5547 214.984 34.4141 214.727 34.1797C214.281 33.8516 213.977 33.1367 213.812 32.0352L213.707 30.9102C213.707 30.6289 213.684 30.2773 213.637 29.8555C213.262 29.9023 212.992 29.9492 212.828 29.9961C212.781 30.0195 212.699 30.0547 212.582 30.1016C212.488 30.125 212.418 30.1367 212.371 30.1367C212.207 30.1367 212.055 30.0898 211.914 29.9961C211.773 29.9023 211.598 29.7266 211.387 29.4688C211.223 29.2578 211.141 29.1172 211.141 29.0469C211.141 28.9766 211.223 28.9297 211.387 28.9062C211.551 28.8828 211.773 28.8711 212.055 28.8711C212.453 28.8711 212.969 28.8242 213.602 28.7305L213.566 28.2383C213.566 27.3008 213.508 26.5039 213.391 25.8477L213.355 25.6016C213.355 25.2734 213.484 25.1445 213.742 25.2148C214.023 25.3086 214.281 25.4258 214.516 25.5664C214.703 25.6602 214.832 25.7539 214.902 25.8477C214.973 25.918 214.996 26.0234 214.973 26.1641L214.867 27.6758V28.5898L217.961 28.2734C217.961 28.1094 217.973 27.7227 217.996 27.1133C218.02 26.4805 218.02 26.0703 217.996 25.8828C217.996 25.6953 217.973 25.5195 217.926 25.3555C217.902 25.168 217.879 25.0156 217.855 24.8984C217.855 24.7109 217.949 24.6172 218.137 24.6172C218.324 24.6172 218.559 24.7227 218.84 24.9336C219.168 25.1445 219.379 25.332 219.473 25.4961C219.59 25.6602 219.613 25.8594 219.543 26.0938C219.426 26.4688 219.344 26.8906 219.297 27.3594C219.25 27.8281 219.227 28.1094 219.227 28.2031C219.508 28.1797 219.766 28.1445 220 28.0977C220.234 28.0508 220.387 28.0273 220.457 28.0273C220.645 27.9805 220.867 27.957 221.125 27.957C221.266 27.9805 221.465 28.1211 221.723 28.3789C221.934 28.6602 222.039 28.8828 222.039 29.0469C222.039 29.2812 221.816 29.375 221.371 29.3281C220.973 29.2578 220.574 29.2227 220.176 29.2227C219.777 29.2227 219.438 29.2344 219.156 29.2578C219.086 30.1016 218.945 30.9336 218.734 31.7539C218.688 31.9414 218.605 32.0938 218.488 32.2109C218.371 32.3516 218.266 32.4219 218.172 32.4219C218.008 32.4219 217.902 32.3516 217.855 32.2109C217.832 32.0938 217.82 31.8945 217.82 31.6133C217.867 31.0039 217.891 30.2422 217.891 29.3281C217.258 29.375 216.766 29.4219 216.414 29.4688C215.875 29.5859 215.371 29.6562 214.902 29.6797C214.879 30.6406 214.926 31.4961 215.043 32.2461C215.113 32.7383 215.254 33.0781 215.465 33.2656C215.605 33.3828 215.77 33.4531 215.957 33.4766C216.168 33.5 216.379 33.5117 216.59 33.5117C216.801 33.5117 216.941 33.5117 217.012 33.5117C217.738 33.5117 218.418 33.4766 219.051 33.4062C219.238 33.3828 219.402 33.3359 219.543 33.2656C219.707 33.1953 219.824 33.1602 219.895 33.1602C220.105 33.1602 220.316 33.2305 220.527 33.3711C220.738 33.5117 220.844 33.6758 220.844 33.8633C220.844 34.0508 220.738 34.1914 220.527 34.2852C220.34 34.3789 220.035 34.4609 219.613 34.5312C218.863 34.625 218.113 34.6719 217.363 34.6719ZM227.383 18.6758C227.664 18.6758 227.805 18.8047 227.805 19.0625C227.805 19.2031 227.676 19.4023 227.418 19.6602C226.715 20.5273 225.32 22.1797 223.234 24.6172C223.07 24.8281 222.918 24.9336 222.777 24.9336C222.66 24.9336 222.402 24.7578 222.004 24.4062C221.676 24.125 221.512 23.8906 221.512 23.7031C221.512 23.4922 221.688 23.293 222.039 23.1055C222.578 22.8008 223.387 22.1914 224.465 21.2773C225.543 20.3164 226.34 19.5547 226.855 18.9922C227.066 18.7812 227.242 18.6758 227.383 18.6758ZM182.699 30.1719C184.785 29.5156 186.648 28.8008 188.289 28.0273C187.938 27.5352 187.492 26.9727 186.953 26.3398C186.766 26.1055 186.672 25.918 186.672 25.7773C186.672 25.5195 186.824 25.2969 187.129 25.1094C187.434 24.8984 187.668 24.793 187.832 24.793C188.02 24.793 188.219 24.9102 188.43 25.1445C189.766 26.7148 190.902 28.0977 191.84 29.293C192.777 30.4883 193.246 31.2148 193.246 31.4727C193.246 31.6836 193.082 31.9297 192.754 32.2109C192.449 32.5156 192.156 32.668 191.875 32.668C191.641 32.668 191.406 32.4805 191.172 32.1055C190.633 31.2852 190.023 30.3945 189.344 29.4336L185.125 31.543C184.656 31.7539 183.918 32.1289 182.91 32.668C182.066 33.1133 181.551 33.3359 181.363 33.3359C181.223 33.3359 181.047 33.2422 180.836 33.0547C180.625 32.8906 180.461 32.6797 180.344 32.4219C180.25 32.1875 180.25 32 180.344 31.8594C180.484 31.6016 180.555 30.5703 180.555 28.7656V16.6016C180.555 16.0391 180.531 15.582 180.484 15.2305C180.461 14.8789 180.367 14.5039 180.203 14.1055C180.18 14.0352 180.156 13.9766 180.133 13.9297C180.109 13.8828 180.098 13.8359 180.098 13.7891C180.098 13.6719 180.18 13.6133 180.344 13.6133C180.648 13.6133 181.41 13.8711 182.629 14.3867L190.258 13.8594C190.445 13.8359 190.656 13.8242 190.891 13.8242C191.148 13.8242 191.453 13.9414 191.805 14.1758C192.156 14.3867 192.332 14.6211 192.332 14.8789C192.332 14.9727 192.273 15.1133 192.156 15.3008C192.062 15.4883 192.016 15.6289 192.016 15.7227L191.102 22.332C191.664 22.9883 191.945 23.4336 191.945 23.668C191.945 23.7852 191.875 23.8672 191.734 23.9141C191.617 23.9609 191.43 23.9844 191.172 23.9844L182.664 24.3008L182.699 30.1719ZM176.934 14.3867C176.934 14.1523 177.086 13.8711 177.391 13.543C179.102 11.6445 180.59 9.75781 181.855 7.88281C183.121 6.00781 183.754 4.75391 183.754 4.12109L183.719 3.875V3.76953C183.719 3.44141 183.848 3.27734 184.105 3.27734C184.41 3.27734 184.832 3.48828 185.371 3.91016C185.934 4.30859 186.215 4.63672 186.215 4.89453C186.215 5.01172 186.156 5.16406 186.039 5.35156C185.688 5.91406 185.301 6.47656 184.879 7.03906L189.871 6.65234C190.293 6.62891 190.738 6.53516 191.207 6.37109C191.348 6.32422 191.453 6.30078 191.523 6.30078C191.875 6.30078 192.25 6.5 192.648 6.89844C193.07 7.27344 193.281 7.56641 193.281 7.77734C193.281 8.05859 193.023 8.22266 192.508 8.26953L186.496 8.69141C186.66 8.73828 187.023 8.98438 187.586 9.42969C188.172 9.875 188.699 10.332 189.168 10.8008C189.637 11.2695 189.871 11.5977 189.871 11.7852C189.871 11.9961 189.73 12.2539 189.449 12.5586C189.168 12.8398 188.922 12.9805 188.711 12.9805C188.523 12.9805 188.301 12.8281 188.043 12.5234C187.246 11.6562 186.438 10.8945 185.617 10.2383C185.336 10.0039 185.195 9.80469 185.195 9.64062C185.195 9.52344 185.254 9.37109 185.371 9.18359C185.488 8.99609 185.641 8.84375 185.828 8.72656L183.473 8.90234C182.348 10.2852 181.105 11.5859 179.746 12.8047C178.387 14 177.52 14.5977 177.145 14.5977C177.004 14.5977 176.934 14.5273 176.934 14.3867ZM189.59 18.043L189.836 15.582L182.594 16.0742V18.3945L189.59 18.043ZM189.133 22.4023L189.414 19.6953L182.629 20.0117V22.6484L189.133 22.4023ZM191.031 12.875C191.031 12.6406 191.184 12.3594 191.488 12.0312C192.637 10.6484 193.68 9.08984 194.617 7.35547C195.578 5.59766 196.059 4.36719 196.059 3.66406V3.52344C196.059 3.17188 196.188 2.99609 196.445 2.99609C196.609 2.99609 196.855 3.08984 197.184 3.27734C197.535 3.44141 197.852 3.64062 198.133 3.875C198.414 4.10938 198.555 4.34375 198.555 4.57812C198.555 4.78906 198.391 5.16406 198.062 5.70312C197.734 6.24219 197.559 6.52344 197.535 6.54688L204.461 5.98438C204.977 5.9375 205.422 5.85547 205.797 5.73828C205.844 5.71484 205.938 5.70312 206.078 5.70312C206.406 5.70312 206.758 5.89062 207.133 6.26562C207.531 6.61719 207.73 6.91016 207.73 7.14453C207.73 7.28516 207.66 7.40234 207.52 7.49609C207.402 7.56641 207.238 7.61328 207.027 7.63672L199.891 8.12891C200.547 8.55078 201.32 9.17188 202.211 9.99219C203.102 10.7891 203.547 11.3281 203.547 11.6094C203.547 11.7734 203.418 12.0312 203.16 12.3828C202.902 12.7109 202.656 12.875 202.422 12.875C202.234 12.875 202.035 12.7578 201.824 12.5234C200.676 11.2812 199.633 10.2969 198.695 9.57031C198.461 9.38281 198.344 9.20703 198.344 9.04297C198.344 8.85547 198.52 8.57422 198.871 8.19922L196.27 8.375C195.496 9.40625 194.559 10.4492 193.457 11.5039C192.379 12.5586 191.652 13.0859 191.277 13.0859C191.113 13.0859 191.031 13.0156 191.031 12.875ZM194.336 13.6484C194.336 13.5078 194.418 13.4375 194.582 13.4375C194.934 13.4375 195.73 13.7305 196.973 14.3164L204.039 13.7188L204.32 13.6836C204.414 13.6836 204.59 13.7305 204.848 13.8242C205.129 13.8945 205.387 14.0234 205.621 14.2109C205.879 14.375 206.008 14.5977 206.008 14.8789C206.008 14.9727 205.973 15.1016 205.902 15.2656C205.832 15.4297 205.797 15.5469 205.797 15.6172C205.773 18.1953 205.609 20.9492 205.305 23.8789L205.234 24.7578C205.164 25.7422 205.07 26.5625 204.953 27.2188C204.836 27.875 204.637 28.3906 204.355 28.7656C203.91 29.375 203.43 29.6797 202.914 29.6797C202.398 29.6797 201.742 29.3633 200.945 28.7305C200.148 28.0977 199.41 27.4062 198.73 26.6562C198.074 25.9062 197.746 25.4258 197.746 25.2148C197.746 25.0508 197.84 24.9688 198.027 24.9688C198.238 24.9688 198.531 25.0859 198.906 25.3203C199.773 25.8594 200.5 26.293 201.086 26.6211C201.672 26.9492 202.094 27.1133 202.352 27.1133C202.469 27.1133 202.551 27.0312 202.598 26.8672C203.137 23.8672 203.465 20.1055 203.582 15.582L196.973 16.0742C196.973 20.0352 197.008 26.3164 197.078 34.918C197.078 35.1289 197.02 35.2812 196.902 35.375C196.809 35.4922 196.68 35.5508 196.516 35.5508C196.328 35.5508 196.105 35.4805 195.848 35.3398C195.402 35.1523 195.086 34.9766 194.898 34.8125C194.711 34.6484 194.617 34.4609 194.617 34.25L194.652 34.0039C194.793 33.2305 194.863 32.3633 194.863 31.4023L194.758 16.5664C194.758 15.957 194.734 15.4883 194.688 15.1602C194.664 14.832 194.594 14.5156 194.477 14.2109C194.383 13.9297 194.336 13.7422 194.336 13.6484Z" fill="#333333"/>
<path d="M143.031 67.4688C142.719 67.4688 142.49 67.3021 142.344 66.9688L142.062 66.3438C141.25 66.5521 140.594 66.7083 140.094 66.8125L138.062 67.3125C137.646 67.4167 137.385 67.4688 137.281 67.4688C137.156 67.4688 137.052 67.4479 136.969 67.4062C136.906 67.3438 136.854 67.2917 136.812 67.25C136.771 67.1875 136.74 67.1354 136.719 67.0938C136.552 66.8021 136.479 66.6042 136.5 66.5L136.719 66.1562C137.26 65.4062 137.76 64.3333 138.219 62.9375L137.594 63.0312L136.781 63.125C136.719 63.1458 136.583 63.1875 136.375 63.25C136.188 63.2917 136.042 63.2812 135.938 63.2188C135.708 63.0729 135.406 62.8125 135.031 62.4375C134.948 62.3542 134.906 62.2917 134.906 62.25C134.906 62.125 135.135 62.0625 135.594 62.0625H136.656C137.365 62.0208 138.01 61.9688 138.594 61.9062C138.719 61.5938 138.854 61.1979 139 60.7188C139.146 60.2396 139.25 59.8542 139.312 59.5625C139.312 59.5 139.312 59.375 139.312 59.1875C139.333 59 139.375 58.8854 139.438 58.8438H139.469C139.552 58.8438 139.667 58.8854 139.812 58.9688C139.958 59.0521 140.094 59.1562 140.219 59.2812C140.615 59.6771 140.729 59.9896 140.562 60.2188C140.479 60.2396 140.302 60.5833 140.031 61.25C140.01 61.2917 139.938 61.4792 139.812 61.8125C139.979 61.7917 140.583 61.7188 141.625 61.5938C142.104 61.5521 142.469 61.5 142.719 61.4375C143.073 61.3333 143.354 61.2812 143.562 61.2812C143.729 61.2812 143.865 61.3438 143.969 61.4688C144.073 61.5729 144.146 61.6458 144.188 61.6875C144.25 61.75 144.323 61.875 144.406 62.0625C144.49 62.2083 144.521 62.3125 144.5 62.375C144.417 62.5 144.271 62.5625 144.062 62.5625C143.375 62.5208 142.552 62.5417 141.594 62.625C141.177 62.6667 140.865 62.7083 140.656 62.75L139.438 62.875L139.156 63.7188L138.812 64.4688C138.708 64.7188 138.594 64.9688 138.469 65.2188C138.344 65.4688 138.25 65.6771 138.188 65.8438C138.167 65.8854 138.156 65.9479 138.156 66.0312C138.156 66.1354 138.219 66.1875 138.344 66.1875C138.51 66.1875 139.083 66.0938 140.062 65.9062L141.219 65.7188L141.75 65.5938C141.562 65.0729 141.417 64.7396 141.312 64.5938C141.208 64.4479 141.146 64.3542 141.125 64.3125L141.312 64.125C142.125 64.6458 142.781 65.1771 143.281 65.7188C143.427 65.9062 143.521 66.0833 143.562 66.25C143.625 66.4167 143.646 66.6042 143.625 66.8125C143.583 67 143.51 67.1458 143.406 67.25C143.365 67.3542 143.24 67.4271 143.031 67.4688ZM136.469 73.4688C136.24 73.4688 135.958 73.2917 135.625 72.9375C135.375 72.6875 135.25 72.5 135.25 72.375C135.25 72.3125 135.292 72.2812 135.375 72.2812C135.458 72.2604 135.562 72.25 135.688 72.25L136.375 72.2188C136.771 72.2188 137.031 72.2083 137.156 72.1875C137.552 72.1875 137.885 72.1771 138.156 72.1562C139.948 71.9896 141.156 71.8542 141.781 71.75C142.094 71.7083 142.375 71.6667 142.625 71.625C142.875 71.5625 143.073 71.5312 143.219 71.5312C143.51 71.5312 143.802 71.6771 144.094 71.9688C144.323 72.1979 144.438 72.3854 144.438 72.5312C144.438 72.6562 144.365 72.7396 144.219 72.7812C144.115 72.8021 143.5 72.8438 142.375 72.9062C141.75 72.9271 140.979 72.9792 140.062 73.0625C139.146 73.1458 138.344 73.2292 137.656 73.3125C137.531 73.3333 137.354 73.3646 137.125 73.4062C136.896 73.4479 136.677 73.4688 136.469 73.4688ZM140.656 86.375C140.01 86.375 139.51 86.3542 139.156 86.3125C138.823 86.2708 138.542 86.1458 138.312 85.9375C137.917 85.6458 137.646 85.0104 137.5 84.0312L137.406 83.0312C137.406 82.7812 137.385 82.4688 137.344 82.0938C137.01 82.1354 136.771 82.1771 136.625 82.2188C136.583 82.2396 136.51 82.2708 136.406 82.3125C136.323 82.3333 136.26 82.3438 136.219 82.3438C136.073 82.3438 135.938 82.3021 135.812 82.2188C135.688 82.1354 135.531 81.9792 135.344 81.75C135.198 81.5625 135.125 81.4375 135.125 81.375C135.125 81.3125 135.198 81.2708 135.344 81.25C135.49 81.2292 135.688 81.2188 135.938 81.2188C136.292 81.2188 136.75 81.1771 137.312 81.0938L137.281 80.6562C137.281 79.8229 137.229 79.1146 137.125 78.5312L137.094 78.3125C137.094 78.0208 137.208 77.9062 137.438 77.9688C137.688 78.0521 137.917 78.1562 138.125 78.2812C138.292 78.3646 138.406 78.4479 138.469 78.5312C138.531 78.5938 138.552 78.6875 138.531 78.8125L138.438 80.1562V80.9688L141.188 80.6875C141.188 80.5417 141.198 80.1979 141.219 79.6562C141.24 79.0938 141.24 78.7292 141.219 78.5625C141.219 78.3958 141.198 78.2396 141.156 78.0938C141.135 77.9271 141.115 77.7917 141.094 77.6875C141.094 77.5208 141.177 77.4375 141.344 77.4375C141.51 77.4375 141.719 77.5312 141.969 77.7188C142.26 77.9062 142.448 78.0729 142.531 78.2188C142.635 78.3646 142.656 78.5417 142.594 78.75C142.49 79.0833 142.417 79.4583 142.375 79.875C142.333 80.2917 142.312 80.5417 142.312 80.625C142.562 80.6042 142.792 80.5729 143 80.5312C143.208 80.4896 143.344 80.4688 143.406 80.4688C143.573 80.4271 143.771 80.4062 144 80.4062C144.125 80.4271 144.302 80.5521 144.531 80.7812C144.719 81.0312 144.812 81.2292 144.812 81.375C144.812 81.5833 144.615 81.6667 144.219 81.625C143.865 81.5625 143.51 81.5312 143.156 81.5312C142.802 81.5312 142.5 81.5417 142.25 81.5625C142.188 82.3125 142.062 83.0521 141.875 83.7812C141.833 83.9479 141.76 84.0833 141.656 84.1875C141.552 84.3125 141.458 84.375 141.375 84.375C141.229 84.375 141.135 84.3125 141.094 84.1875C141.073 84.0833 141.062 83.9062 141.062 83.6562C141.104 83.1146 141.125 82.4375 141.125 81.625C140.562 81.6667 140.125 81.7083 139.812 81.75C139.333 81.8542 138.885 81.9167 138.469 81.9375C138.448 82.7917 138.49 83.5521 138.594 84.2188C138.656 84.6562 138.781 84.9583 138.969 85.125C139.094 85.2292 139.24 85.2917 139.406 85.3125C139.594 85.3333 139.781 85.3438 139.969 85.3438C140.156 85.3438 140.281 85.3438 140.344 85.3438C140.99 85.3438 141.594 85.3125 142.156 85.25C142.323 85.2292 142.469 85.1875 142.594 85.125C142.74 85.0625 142.844 85.0312 142.906 85.0312C143.094 85.0312 143.281 85.0938 143.469 85.2188C143.656 85.3438 143.75 85.4896 143.75 85.6562C143.75 85.8229 143.656 85.9479 143.469 86.0312C143.302 86.1146 143.031 86.1875 142.656 86.25C141.99 86.3333 141.323 86.375 140.656 86.375ZM121.031 85.5938V85.6875C121.031 85.875 120.979 86.0312 120.875 86.1562C120.771 86.2812 120.625 86.3438 120.438 86.3438C120 86.2604 119.625 86.1146 119.312 85.9062C119 85.7188 118.844 85.4688 118.844 85.1562L118.875 84.9062C118.917 84.3646 118.938 83.9271 118.938 83.5938V83.125L118.406 76.4062C118.365 75.6979 118.25 75.1458 118.062 74.75C117.958 74.5417 117.906 74.3854 117.906 74.2812C117.906 74.1146 118.021 74.0312 118.25 74.0312C118.625 74.0312 119.312 74.2083 120.312 74.5625L123.125 74.4375L123.062 61.625C123.062 61.0625 122.938 60.6354 122.688 60.3438C122.583 60.2396 122.531 60.125 122.531 60C122.531 59.8542 122.656 59.7812 122.906 59.7812C123.281 59.7812 123.74 59.875 124.281 60.0625C124.844 60.2292 125.125 60.5104 125.125 60.9062L125.062 67.2188L129.094 66.9688C129.531 66.9271 129.917 66.8438 130.25 66.7188C130.417 66.6562 130.552 66.625 130.656 66.625C130.969 66.625 131.302 66.8021 131.656 67.1562C132.01 67.5104 132.188 67.8229 132.188 68.0938C132.188 68.3854 131.917 68.5521 131.375 68.5938L125.062 68.9062L125 74.375L129.188 74.1875C129.271 74.1667 129.396 74.1562 129.562 74.1562C129.812 74.1562 130.104 74.2812 130.438 74.5312C130.792 74.7604 130.969 75.0312 130.969 75.3438C130.969 75.4479 130.927 75.5833 130.844 75.75C130.76 75.8958 130.719 76.0104 130.719 76.0938L129.906 82.5312C130.427 83.1771 130.688 83.625 130.688 83.875C130.688 84.0208 130.625 84.1146 130.5 84.1562C130.375 84.1979 130.167 84.2292 129.875 84.25L120.938 84.4688L121.031 85.5938ZM104.156 86.3438C104.156 86.1146 104.375 85.7812 104.812 85.3438C105.771 84.3854 106.635 83.2917 107.406 82.0625C108.198 80.8333 108.615 79.9583 108.656 79.4375C108.656 79.0833 108.76 78.9062 108.969 78.9062C109.219 78.9062 109.562 79.1042 110 79.5C110.458 79.8958 110.688 80.2188 110.688 80.4688C110.688 80.5938 110.625 80.7604 110.5 80.9688C109.75 82.1146 108.948 83.1146 108.094 83.9688C107.24 84.8021 106.469 85.4375 105.781 85.875C105.094 86.3125 104.625 86.5312 104.375 86.5312C104.229 86.5312 104.156 86.4688 104.156 86.3438ZM106.156 61.375C106.156 61.2083 106.26 61.125 106.469 61.125C106.823 61.125 107.5 61.3438 108.5 61.7812L115 61.375H115.312C115.771 61.375 116.125 61.4792 116.375 61.6875C116.625 61.8958 116.75 62.125 116.75 62.375C116.75 62.4583 116.719 62.5729 116.656 62.7188C116.615 62.8646 116.594 62.9792 116.594 63.0625L116.281 76.0625C116.823 76.6667 117.094 77.0938 117.094 77.3438C117.094 77.4688 117.031 77.5521 116.906 77.5938C116.781 77.6146 116.562 77.6354 116.25 77.6562L108.781 77.9688V78.4062C108.781 78.8229 108.604 79.0312 108.25 79.0312C108.062 79.0312 107.844 78.9688 107.594 78.8438C107.26 78.6979 107.021 78.5521 106.875 78.4062C106.75 78.2604 106.688 78.0938 106.688 77.9062L106.719 77.6562C106.802 77.0938 106.844 76.5104 106.844 75.9062L106.656 63.625C106.656 62.9375 106.542 62.3646 106.312 61.9062C106.208 61.6979 106.156 61.5208 106.156 61.375ZM108.594 66.5938L114.531 66.3125L114.562 63.125L108.562 63.5L108.594 66.5938ZM108.688 71.3125L114.469 71.0312L114.5 67.9688L108.625 68.25L108.688 71.3125ZM108.75 76.2812L114.406 76.0312L114.438 72.625L108.688 72.9062L108.75 76.2812ZM112.562 79.9062C112.562 79.6979 112.688 79.5 112.938 79.3125C113.208 79.125 113.438 79.0312 113.625 79.0312C113.854 79.0312 114.302 79.4271 114.969 80.2188C115.635 80.9896 116.271 81.8229 116.875 82.7188C117.479 83.6146 117.781 84.1771 117.781 84.4062C117.781 84.6354 117.625 84.875 117.312 85.125C117.021 85.375 116.729 85.5 116.438 85.5C116.188 85.5 115.969 85.3125 115.781 84.9375C114.802 83.0833 113.854 81.6354 112.938 80.5938C112.688 80.3021 112.562 80.0729 112.562 79.9062ZM120.812 82.75L128 82.5312L128.625 75.9688L120.344 76.2812L120.812 82.75Z" fill="#333333"/>
<path d="M184.719 62.8438C184.573 62.8438 184.646 62.7188 184.938 62.4688C185.229 62.2188 185.583 61.9167 186 61.5625C186.417 61.1875 186.885 60.6979 187.406 60.0938C187.74 59.6979 187.99 59.2812 188.156 58.8438C188.26 58.5938 188.375 58.4688 188.5 58.4688C188.604 58.4688 188.76 58.5521 188.969 58.7188C189.385 59.0521 189.594 59.3333 189.594 59.5625C189.594 59.7083 189.51 59.8125 189.344 59.875C189.26 59.8958 189.135 59.9896 188.969 60.1562C188.802 60.3021 188.677 60.4167 188.594 60.5C187.698 61.375 186.865 62.0104 186.094 62.4062C185.469 62.6979 185.052 62.8438 184.844 62.8438H184.719ZM188 68.6562C187.938 68.6562 187.833 68.5729 187.688 68.4062C187.562 68.2188 187.469 68.0417 187.406 67.875C187.385 67.75 187.385 67.5938 187.406 67.4062C187.448 67.1979 187.469 67.0417 187.469 66.9375C187.51 66.5208 187.531 66.1875 187.531 65.9375C187.552 65.7083 187.552 65.4583 187.531 65.1875C187.531 64.9167 187.531 64.7396 187.531 64.6562L187.5 64.1875C187 64.5417 186.615 64.7917 186.344 64.9375C185.74 65.2708 185.302 65.4792 185.031 65.5625C184.698 65.6875 184.396 65.75 184.125 65.75C183.979 65.75 183.896 65.7292 183.875 65.6875C183.833 65.6042 184.25 65.3021 185.125 64.7812C185.958 64.2604 186.865 63.5729 187.844 62.7188C188.385 62.2188 188.802 61.7396 189.094 61.2812C189.135 61.2188 189.167 61.1458 189.188 61.0625C189.229 60.9583 189.271 60.8958 189.312 60.875C189.375 60.8542 189.458 60.8646 189.562 60.9062C189.833 61.0521 190.062 61.2604 190.25 61.5312C190.333 61.6354 190.375 61.7396 190.375 61.8438C190.375 61.9479 190.323 62.0521 190.219 62.1562C190.115 62.2396 190.01 62.3021 189.906 62.3438C189.552 62.5729 189.229 62.8229 188.938 63.0938C188.646 63.3646 188.458 63.5417 188.375 63.625C188.688 63.875 188.844 64.0521 188.844 64.1562L188.75 64.8125C188.708 65 188.688 65.4688 188.688 66.2188C188.688 66.9479 188.708 67.4375 188.75 67.6875V67.75C188.75 67.8542 188.719 67.9688 188.656 68.0938C188.615 68.1979 188.583 68.2708 188.562 68.3125C188.417 68.5417 188.229 68.6562 188 68.6562ZM191.188 76.5938C190.875 76.5938 190.573 76.3646 190.281 75.9062C189.906 75.3229 189.542 74.8438 189.188 74.4688L188.375 73.625C187.938 74.125 187.552 74.5208 187.219 74.8125C186.906 75.1042 186.51 75.3854 186.031 75.6562C185.135 76.1771 184.385 76.4375 183.781 76.4375C183.635 76.4375 183.562 76.3854 183.562 76.2812C183.562 76.2188 183.76 76.0833 184.156 75.875C184.552 75.6667 184.927 75.4167 185.281 75.125C186.177 74.375 186.917 73.6042 187.5 72.8125C187.375 72.6875 186.75 72.1458 185.625 71.1875C185.479 71.0833 185.26 70.9062 184.969 70.6562C184.906 70.6146 184.781 70.5208 184.594 70.375C184.406 70.2292 184.312 70.125 184.312 70.0625C184.312 69.9583 184.365 69.9062 184.469 69.9062C184.781 69.9062 185.281 70.125 185.969 70.5625C186.656 70.9792 187.375 71.4792 188.125 72.0625C188.417 71.7083 188.646 71.375 188.812 71.0625C188.979 70.75 189.167 70.3646 189.375 69.9062C189.479 69.6771 189.542 69.4792 189.562 69.3125C189.583 69.125 189.594 69.0104 189.594 68.9688C189.594 68.7396 189.656 68.625 189.781 68.625C189.927 68.625 190.125 68.7396 190.375 68.9688C190.812 69.3854 191.031 69.6667 191.031 69.8125C191.031 69.8958 190.979 69.9896 190.875 70.0938C190.625 70.3438 190.396 70.6771 190.188 71.0938C190.062 71.3438 189.833 71.6979 189.5 72.1562C189.396 72.2812 189.312 72.3958 189.25 72.5C189.188 72.6042 189.125 72.6979 189.062 72.7812C189.542 73.1354 190.25 73.7396 191.188 74.5938C191.417 74.8021 191.562 75 191.625 75.1875C191.708 75.3542 191.75 75.5833 191.75 75.875C191.75 76.0833 191.698 76.2604 191.594 76.4062C191.49 76.5312 191.354 76.5938 191.188 76.5938ZM191.75 80.7188C191.979 80.9688 192.094 81.1771 192.094 81.3438C192.094 81.4896 192.01 81.625 191.844 81.75C191.74 81.8333 191.479 82.2917 191.062 83.125C190.604 83.875 190.094 84.5208 189.531 85.0625C188.99 85.625 188.448 86.0312 187.906 86.2812C187.781 86.3229 187.677 86.3438 187.594 86.3438C187.51 86.3438 187.469 86.3229 187.469 86.2812V86.2188C187.469 86.0938 187.573 85.9479 187.781 85.7812C188.156 85.4896 188.438 85.1875 188.625 84.875C188.833 84.5833 188.99 84.3646 189.094 84.2188C189.531 83.5938 189.844 83.0833 190.031 82.6875C190.24 82.3333 190.385 81.9688 190.469 81.5938H190.344C189.802 81.5938 188.927 81.6562 187.719 81.7812C187.531 81.8021 186.99 81.875 186.094 82C185.906 82.0208 185.615 82.0729 185.219 82.1562L184.844 82.25C184.76 82.2917 184.677 82.3125 184.594 82.3125C184.49 82.3125 184.385 82.2917 184.281 82.25C184.177 82.1875 184.073 82.1146 183.969 82.0312C183.719 81.8229 183.594 81.6458 183.594 81.5C183.615 81.4583 183.635 81.3958 183.656 81.3125C183.698 81.2292 183.719 81.1562 183.719 81.0938L183.875 80.0625C183.896 79.9583 183.917 79.8438 183.938 79.7188C183.958 79.5938 183.969 79.4688 183.969 79.3438C183.969 78.9479 183.958 78.6354 183.938 78.4062C183.938 78.1562 183.906 77.8958 183.844 77.625V77.5312C183.844 77.3854 183.906 77.3125 184.031 77.3125C184.156 77.3125 184.375 77.4062 184.688 77.5938C185.104 77.8854 185.312 78.1146 185.312 78.2812C185.312 78.3438 185.302 78.3958 185.281 78.4375C185.26 78.4792 185.24 78.5208 185.219 78.5625C185.156 78.9375 185.125 79.1458 185.125 79.1875L184.969 80.8438C184.969 80.8854 184.99 80.9375 185.031 81C185.094 81.0417 185.156 81.0625 185.219 81.0625C185.719 81.0625 186.844 80.9375 188.594 80.6875C189.281 80.625 189.771 80.5521 190.062 80.4688C190.25 80.4479 190.406 80.4167 190.531 80.375C190.677 80.3125 190.771 80.2812 190.812 80.2812C190.938 80.2396 191.021 80.2188 191.062 80.2188C191.25 80.2188 191.479 80.3854 191.75 80.7188ZM171.656 74.625C171.885 74.625 172.104 74.6875 172.312 74.8125C171.479 73.8958 170.656 72.8646 169.844 71.7188L163.5 72.0312C162.938 72.9271 162.25 73.8646 161.438 74.8438C161.688 74.9062 162.01 75 162.406 75.125L171.469 74.625H171.656ZM151.719 81.6562C151.719 81.4688 151.948 81.2083 152.406 80.875C156.198 78.3125 159.167 75.4062 161.312 72.1562L155.562 72.4375L154.812 72.4688C154.625 72.4688 154.49 72.4583 154.406 72.4375C154.219 72.4375 154.073 72.3854 153.969 72.2812C153.49 71.8854 153.198 71.4375 153.094 70.9375C153.073 70.8958 153.062 70.8438 153.062 70.7812C153.062 70.6354 153.125 70.5625 153.25 70.5625L153.406 70.5938C153.823 70.6979 154.26 70.75 154.719 70.75H154.969L162.375 70.375L162.562 70.0312C162.896 69.4271 163.25 68.6667 163.625 67.75L160.844 67.9062C160.656 67.9271 160.417 67.9375 160.125 67.9375C159.688 67.9375 159.333 67.8229 159.062 67.5938C158.792 67.3646 158.604 67.125 158.5 66.875C158.396 66.6042 158.344 66.4271 158.344 66.3438C158.344 66.2396 158.406 66.1875 158.531 66.1875L158.688 66.2188C159.062 66.2812 159.448 66.3125 159.844 66.3125H160.25L164.219 66.0625C164.406 65.5417 164.615 64.7917 164.844 63.8125L158.656 64.2188C158.49 64.2396 158.271 64.25 158 64.25C157.583 64.25 157.208 64.1562 156.875 63.9688C156.542 63.7812 156.26 63.3854 156.031 62.7812L156 62.5938C156 62.4479 156.083 62.375 156.25 62.375L156.406 62.4062C156.99 62.4896 157.438 62.5312 157.75 62.5312H158.062L165.156 62.0938C165.344 61.0938 165.438 60.4062 165.438 60.0312C165.438 59.6146 165.365 59.25 165.219 58.9375C165.156 58.7708 165.125 58.6562 165.125 58.5938C165.125 58.4062 165.25 58.3125 165.5 58.3125C165.812 58.3125 166.24 58.3958 166.781 58.5625C167.344 58.7292 167.625 59.0208 167.625 59.4375L167.594 59.75C167.49 60.4375 167.365 61.1771 167.219 61.9688L173.562 61.5625C173.792 61.5417 174.219 61.4375 174.844 61.25C174.969 61.2083 175.052 61.1875 175.094 61.1875C175.385 61.1875 175.74 61.3854 176.156 61.7812C176.594 62.1562 176.812 62.4583 176.812 62.6875C176.812 62.9167 176.583 63.0521 176.125 63.0938L166.875 63.6875C166.812 63.9583 166.625 64.7083 166.312 65.9375L171.281 65.6562C171.74 65.6146 172.135 65.5417 172.469 65.4375C172.594 65.3958 172.688 65.375 172.75 65.375C173 65.375 173.323 65.5521 173.719 65.9062C174.135 66.2604 174.344 66.5417 174.344 66.75C174.344 66.875 173.771 67 172.625 67.125C171.5 67.25 169.208 67.4167 165.75 67.625C165.438 68.4583 165.042 69.3438 164.562 70.2812L176.969 69.6562C177.427 69.6354 177.875 69.5417 178.312 69.375C178.354 69.3542 178.438 69.3438 178.562 69.3438C178.771 69.3438 179 69.4375 179.25 69.625C179.521 69.8125 179.75 70.0312 179.938 70.2812C180.125 70.5104 180.219 70.6771 180.219 70.7812C180.219 71.0312 179.979 71.1771 179.5 71.2188L171.875 71.5938C173.146 73.1979 174.521 74.6042 176 75.8125C177.479 77.0208 179.156 78.0625 181.031 78.9375C181.448 79.125 181.656 79.2917 181.656 79.4375C181.656 79.5417 181.552 79.7083 181.344 79.9375C181.156 80.1458 180.927 80.3438 180.656 80.5312C180.406 80.6979 180.177 80.7812 179.969 80.7812C179.823 80.7812 179.396 80.5833 178.688 80.1875C178 79.7917 177.156 79.2083 176.156 78.4375C175.177 77.6667 174.167 76.7396 173.125 75.6562C173.146 75.6979 173.156 75.75 173.156 75.8125C173.156 75.875 173.125 75.9792 173.062 76.125C173.021 76.25 173 76.3542 173 76.4375L172.562 83.375C173.104 84.0625 173.375 84.5417 173.375 84.8125C173.375 84.9792 173.292 85.0833 173.125 85.125C172.979 85.1667 172.75 85.1875 172.438 85.1875L162.844 85.4375L162.875 86.2188V86.3125C162.875 86.7292 162.677 86.9375 162.281 86.9375C162.01 86.9375 161.688 86.8333 161.312 86.625C160.938 86.4167 160.75 86.1042 160.75 85.6875V85.5625C160.75 85.3542 160.771 85.0625 160.812 84.6875C160.854 84.3125 160.875 84.0312 160.875 83.8438V83.5625L160.438 76.75C160.438 76.625 160.427 76.5104 160.406 76.4062C160.385 76.3021 160.365 76.1979 160.344 76.0938C159.198 77.3021 158.021 78.3333 156.812 79.1875C155.625 80.0417 154.573 80.6979 153.656 81.1562C152.76 81.6146 152.208 81.8438 152 81.8438C151.812 81.8438 151.719 81.7812 151.719 81.6562ZM162.5 79.2812L170.875 78.9688L170.969 76.4062L162.375 76.8125L162.5 79.2812ZM162.75 83.6562L170.688 83.4688L170.812 80.625L162.594 80.9375L162.75 83.6562Z" fill="#333333"/>
<path d="M236.531 68.25C236.198 68.25 235.99 68.1562 235.906 67.9688C235.802 67.7188 235.698 67.5104 235.594 67.3438C235.49 67.1562 235.302 66.9375 235.031 66.6875L235.094 66.5625C235.844 66.8333 236.333 66.9688 236.562 66.9688C236.729 66.9688 236.854 66.9375 236.938 66.875C237.021 66.8125 237.156 66.6667 237.344 66.4375C237.615 66.1458 237.865 65.6979 238.094 65.0938C238.406 64.1979 238.604 63.2708 238.688 62.3125V62.2188C238.688 62.0938 238.667 62.0104 238.625 61.9688C238.354 61.9688 237.635 62.0312 236.469 62.1562C235.823 63.7604 235.073 65.0833 234.219 66.125C233.385 67.1458 232.625 67.6562 231.938 67.6562C231.771 67.6562 231.688 67.5938 231.688 67.4688C231.688 67.4271 231.896 67.1875 232.312 66.75C232.729 66.3125 233.188 65.7396 233.688 65.0312C234.208 64.3021 234.698 63.4062 235.156 62.3438C235.052 62.3438 234.75 62.3646 234.25 62.4062C233.75 62.4479 233.323 62.5208 232.969 62.625C232.802 62.75 232.625 62.7708 232.438 62.6875C232.438 62.6875 232.417 62.6771 232.375 62.6562C232.333 62.6354 232.292 62.6042 232.25 62.5625C232.104 62.4792 231.979 62.375 231.875 62.25C231.792 62.1042 231.75 61.9688 231.75 61.8438C231.75 61.7812 231.802 61.6979 231.906 61.5938L232.281 61.0938C232.406 60.9271 232.521 60.6875 232.625 60.375C232.729 60.0417 232.781 59.7604 232.781 59.5312C232.781 59.3854 232.771 59.2917 232.75 59.25C232.729 59.2083 232.719 59.1562 232.719 59.0938C232.719 58.9896 232.771 58.9375 232.875 58.9375C233 58.9375 233.177 59.0104 233.406 59.1562C233.469 59.1979 233.583 59.2812 233.75 59.4062C233.938 59.5104 234.042 59.6354 234.062 59.7812C234.062 59.9271 233.979 60.1667 233.812 60.5L233.406 61.2188C233.365 61.2812 233.344 61.3542 233.344 61.4375C233.344 61.5 233.365 61.5521 233.406 61.5938C233.469 61.6146 233.542 61.6146 233.625 61.5938L235.5 61.3438C235.708 60.8021 235.875 60.2292 236 59.625V59.4375V58.9062C236 58.6771 236.062 58.5833 236.188 58.625C236.458 58.6875 236.677 58.7708 236.844 58.875C237.156 59.0625 237.312 59.2188 237.312 59.3438C237.312 59.4479 237.271 59.625 237.188 59.875C237.125 60.1042 237.073 60.2812 237.031 60.4062C237.01 60.4896 236.917 60.7604 236.75 61.2188C236.812 61.2188 237.198 61.1771 237.906 61.0938L238.219 61.0312C238.281 61.0312 238.396 61.0104 238.562 60.9688C238.604 60.9479 238.656 60.9375 238.719 60.9375C238.969 60.9375 239.125 60.9479 239.188 60.9688C239.271 60.9896 239.396 61.0521 239.562 61.1562C239.75 61.2812 239.875 61.4062 239.938 61.5312C240 61.6562 240.021 61.8021 240 61.9688L239.812 63L239.594 64.125C239.594 64.2083 239.521 64.4792 239.375 64.9375C239.229 65.3958 239.062 65.8021 238.875 66.1562C238.521 66.8646 238.104 67.3958 237.625 67.75C237.208 68.0833 236.844 68.25 236.531 68.25ZM232.469 73.4688C232.24 73.4688 231.958 73.2917 231.625 72.9375C231.375 72.6875 231.25 72.5 231.25 72.375C231.25 72.3125 231.292 72.2812 231.375 72.2812C231.458 72.2604 231.562 72.25 231.688 72.25L232.375 72.2188C232.771 72.2188 233.031 72.2083 233.156 72.1875C233.552 72.1875 233.885 72.1771 234.156 72.1562C235.948 71.9896 237.156 71.8542 237.781 71.75C238.094 71.7083 238.375 71.6667 238.625 71.625C238.875 71.5625 239.073 71.5312 239.219 71.5312C239.51 71.5312 239.802 71.6771 240.094 71.9688C240.323 72.1979 240.438 72.3854 240.438 72.5312C240.438 72.6562 240.365 72.7396 240.219 72.7812C240.115 72.8021 239.5 72.8438 238.375 72.9062C237.75 72.9271 236.979 72.9792 236.062 73.0625C235.146 73.1458 234.344 73.2292 233.656 73.3125C233.531 73.3333 233.354 73.3646 233.125 73.4062C232.896 73.4479 232.677 73.4688 232.469 73.4688ZM237.125 80.4375C236.917 80.7083 236.698 80.8438 236.469 80.8438C236.406 80.8438 236.375 80.7917 236.375 80.6875C236.375 80.5417 236.417 80.375 236.5 80.1875C236.5 80.1875 236.708 79.7708 237.125 78.9375C237.146 78.8542 237.177 78.7708 237.219 78.6875C237.26 78.6042 237.292 78.5312 237.312 78.4688V78.4375C237.312 78.3958 237.281 78.3542 237.219 78.3125C237.156 78.2708 237.083 78.2604 237 78.2812C236.667 78.3021 236.167 78.3542 235.5 78.4375C234.854 78.5208 234.375 78.6042 234.062 78.6875C233.938 78.7292 233.781 78.7812 233.594 78.8438C233.427 78.9062 233.292 78.9375 233.188 78.9375C232.812 78.9375 232.5 78.8229 232.25 78.5938C232.042 78.4479 231.885 78.3021 231.781 78.1562L231.719 78C231.719 77.8958 231.896 77.8646 232.25 77.9062C232.729 77.9479 233.719 77.8854 235.219 77.7188L235.844 77.625C236.01 77.6042 236.271 77.5729 236.625 77.5312C237 77.4688 237.292 77.4062 237.5 77.3438C237.562 77.3229 237.625 77.3021 237.688 77.2812C237.771 77.2396 237.844 77.2188 237.906 77.2188C238.01 77.2188 238.135 77.2708 238.281 77.375C238.448 77.4792 238.583 77.5729 238.688 77.6562C238.833 77.7604 238.927 77.8542 238.969 77.9375C239.031 78 239.052 78.0833 239.031 78.1875C239.031 78.2917 238.979 78.3854 238.875 78.4688C238.771 78.5521 238.698 78.6146 238.656 78.6562C238.615 78.7188 238.469 78.875 238.219 79.125C238.115 79.2917 237.927 79.5208 237.656 79.8125C237.406 80.1042 237.229 80.3125 237.125 80.4375ZM235.562 86.5938C235.562 86.5312 235.667 86.3646 235.875 86.0938C236.104 85.8438 236.281 85.6458 236.406 85.5C236.719 85.0833 237.094 84.4792 237.531 83.6875C237.99 82.8958 238.25 82.375 238.312 82.125C238.354 82 238.292 81.9375 238.125 81.9375C237.792 81.9375 236.875 82.0312 235.375 82.2188C234.396 82.3438 233.667 82.4688 233.188 82.5938C233.083 82.6562 232.979 82.6875 232.875 82.6875C232.708 82.6875 232.531 82.5729 232.344 82.3438C232.26 82.1979 232.219 82.0625 232.219 81.9375C232.219 81.8542 232.271 81.7708 232.375 81.6875L232.469 81.5625C232.531 81.4375 232.604 81.2708 232.688 81.0625C232.771 80.8542 232.844 80.6562 232.906 80.4688C233.01 80.1354 233.083 79.7708 233.125 79.375C233.146 79.1458 233.271 79.0833 233.5 79.1875C233.792 79.3333 234.01 79.4792 234.156 79.625C234.323 79.75 234.375 79.8438 234.312 79.9062C234.104 80.1562 233.938 80.4375 233.812 80.75C233.708 81.0833 233.646 81.3021 233.625 81.4062C233.625 81.4896 233.677 81.5312 233.781 81.5312C234.094 81.5312 234.562 81.4792 235.188 81.375C235.542 81.3333 235.979 81.2812 236.5 81.2188C237.021 81.1562 237.438 81.0938 237.75 81.0312L238.531 80.875C238.594 80.8542 238.677 80.8438 238.781 80.8438C238.885 80.8438 238.99 80.8854 239.094 80.9688C239.198 81.0312 239.312 81.1146 239.438 81.2188C239.646 81.4062 239.781 81.5625 239.844 81.6875C239.906 81.7917 239.938 81.9167 239.938 82.0625C239.938 82.1458 239.875 82.25 239.75 82.375C239.646 82.5 239.521 82.6979 239.375 82.9688C238.771 84.1979 237.99 85.2292 237.031 86.0625C236.76 86.2708 236.458 86.4479 236.125 86.5938C235.979 86.6354 235.844 86.6562 235.719 86.6562C235.615 86.6771 235.562 86.6562 235.562 86.5938ZM245.562 72.1562C245.812 72.1562 245.938 72.2708 245.938 72.5C245.938 72.625 245.823 72.8021 245.594 73.0312C244.969 73.8021 243.729 75.2708 241.875 77.4375C241.729 77.625 241.594 77.7188 241.469 77.7188C241.365 77.7188 241.135 77.5625 240.781 77.25C240.49 77 240.344 76.7917 240.344 76.625C240.344 76.4375 240.5 76.2604 240.812 76.0938C241.292 75.8229 242.01 75.2812 242.969 74.4688C243.927 73.6146 244.635 72.9375 245.094 72.4375C245.281 72.25 245.438 72.1562 245.562 72.1562ZM208.156 78.5938C208.094 78.6354 207.115 79.1042 205.219 80C203.344 80.875 202.146 81.3125 201.625 81.3125C201.417 81.3125 201.177 81.2188 200.906 81.0312C200.656 80.8229 200.427 80.5938 200.219 80.3438C200.031 80.0938 199.938 79.9062 199.938 79.7812C199.938 79.6146 200.083 79.5312 200.375 79.5312C200.521 79.5312 200.823 79.4896 201.281 79.4062C201.74 79.3229 202.344 79.1667 203.094 78.9375L203.156 63.125H203.062C202.854 63.125 202.677 63.1354 202.531 63.1562C202.385 63.1771 202.26 63.1875 202.156 63.1875C201.802 63.1875 201.479 63.0417 201.188 62.75C200.896 62.4583 200.708 62.1875 200.625 61.9375C200.583 61.7708 200.562 61.6667 200.562 61.625C200.562 61.5208 200.635 61.4688 200.781 61.4688L200.969 61.5C201.323 61.5625 201.635 61.5938 201.906 61.5938L202.5 61.5625L209.844 61.125C210.365 61.0833 210.76 61.0208 211.031 60.9375C211.198 60.8958 211.312 60.875 211.375 60.875C211.604 60.875 211.906 61.0208 212.281 61.3125C212.677 61.5833 212.875 61.8438 212.875 62.0938C212.875 62.3854 212.625 62.5521 212.125 62.5938L209.938 62.75V86.3438C209.938 86.7396 209.75 86.9375 209.375 86.9375C209.083 86.9375 208.76 86.8333 208.406 86.625C208.073 86.4375 207.906 86.1562 207.906 85.7812C207.906 85.7188 207.927 85.5833 207.969 85.375C208.094 84.8542 208.156 84.2917 208.156 83.6875V78.5938ZM204.812 78.3438C205.875 77.9688 207 77.5312 208.188 77.0312V73.3125L204.844 73.4688L204.812 78.3438ZM208.188 71.75V68.125L204.844 68.25V71.9375L208.188 71.75ZM208.219 66.5625V62.8438L204.875 63L204.844 66.7188L208.219 66.5625ZM210.906 72.4062C210.906 72.3229 210.948 72.25 211.031 72.1875C211.115 72.125 211.271 72.0417 211.5 71.9375C211.75 71.8125 211.958 71.6562 212.125 71.4688C212.646 70.8021 213.25 69.9583 213.938 68.9375L214.719 67.7812L215.406 66.75C214.927 66.8333 214.604 66.8854 214.438 66.9062C213.125 67.1562 212.302 67.2812 211.969 67.2812C211.781 67.2812 211.604 67.1458 211.438 66.875C211.292 66.6042 211.219 66.3438 211.219 66.0938C211.219 65.9062 211.354 65.7812 211.625 65.7188C211.771 65.6771 211.938 65.5833 212.125 65.4375C212.312 65.2708 212.49 65.0521 212.656 64.7812C213.469 63.2812 214.042 62.1354 214.375 61.3438C214.729 60.5521 214.917 59.8333 214.938 59.1875C214.938 59 215.021 58.9062 215.188 58.9062C215.417 58.9062 215.729 59.0312 216.125 59.2812C216.521 59.5312 216.719 59.7917 216.719 60.0625C216.719 60.1875 216.688 60.3125 216.625 60.4375C215.896 62.2292 214.979 63.9479 213.875 65.5938C214.333 65.5729 214.833 65.5104 215.375 65.4062L216.312 65.2812C216.667 64.6354 216.906 64.1458 217.031 63.8125C217.177 63.4583 217.26 63.1458 217.281 62.875C217.281 62.7708 217.302 62.6875 217.344 62.625C217.406 62.5625 217.479 62.5312 217.562 62.5312C217.75 62.5312 218.021 62.6771 218.375 62.9688C218.75 63.2396 218.938 63.4896 218.938 63.7188C218.938 63.8854 218.875 64.0938 218.75 64.3438C218.333 64.9271 217.823 65.7083 217.219 66.6875C216.906 67.1458 216.406 67.9062 215.719 68.9688C215.031 70.0104 214.427 70.875 213.906 71.5625C214.573 71.4375 215.521 71.2292 216.75 70.9375L217.594 70.7188C217.49 70.5312 217.354 70.2812 217.188 69.9688C217.021 69.6562 216.875 69.4062 216.75 69.2188C216.604 68.9896 216.531 68.8333 216.531 68.75C216.531 68.5625 216.635 68.3958 216.844 68.25C217.073 68.1042 217.271 68.0312 217.438 68.0312C217.625 68.0312 217.781 68.1458 217.906 68.375C217.99 68.5833 218.281 69.0938 218.781 69.9062C219.698 71.3854 220.156 72.2396 220.156 72.4688C220.156 72.6771 220.031 72.875 219.781 73.0625C219.531 73.2292 219.323 73.3125 219.156 73.3125C218.948 73.3125 218.781 73.1771 218.656 72.9062L218.156 71.9375L216.312 72.4375C213.667 73.1667 212.156 73.5312 211.781 73.5312C211.552 73.5104 211.344 73.375 211.156 73.125C210.99 72.875 210.906 72.6354 210.906 72.4062ZM211.125 86.0625C211.125 85.8542 211.448 85.5521 212.094 85.1562C213.115 84.5521 214.052 83.7708 214.906 82.8125C215.76 81.8333 216.302 80.8958 216.531 80L214.938 80.1562C214.833 80.1771 214.667 80.2292 214.438 80.3125C214.208 80.375 214 80.4062 213.812 80.4062C213.375 80.4062 213.062 80.2604 212.875 79.9688C212.688 79.6562 212.604 79.3333 212.625 79L212.719 76.7812V76.5938C212.719 76.0312 212.562 75.4896 212.25 74.9688C212.188 74.8438 212.156 74.75 212.156 74.6875C212.156 74.5625 212.26 74.5 212.469 74.5C212.844 74.5 213.25 74.5833 213.688 74.75C214.125 74.9167 214.344 75.1979 214.344 75.5938V75.7188L214.188 78.7188L216.938 78.5C217.062 77.8333 217.125 77 217.125 76C217.125 75.5 217.094 75.0938 217.031 74.7812C216.99 74.4479 216.885 74.1667 216.719 73.9375C216.615 73.7917 216.562 73.6667 216.562 73.5625C216.562 73.3958 216.708 73.3125 217 73.3125C217.229 73.3125 217.542 73.375 217.938 73.5C218.333 73.625 218.583 73.7604 218.688 73.9062C218.792 74.0521 218.844 74.2188 218.844 74.4062C218.823 76.0312 218.76 77.3438 218.656 78.3438C218.552 79.3229 218.323 80.2292 217.969 81.0625C217.49 82.1875 216.823 83.1458 215.969 83.9375C215.115 84.7083 214.26 85.2812 213.406 85.6562C212.552 86.0521 211.906 86.25 211.469 86.25C211.24 86.25 211.125 86.1875 211.125 86.0625ZM219.625 65.625C219.625 65.4375 219.76 65.3125 220.031 65.25C220.177 65.2083 220.344 65.1146 220.531 64.9688C220.719 64.8021 220.896 64.5938 221.062 64.3438C221.875 62.8438 222.448 61.7188 222.781 60.9688C223.115 60.2188 223.292 59.5312 223.312 58.9062C223.354 58.7396 223.438 58.6562 223.562 58.6562C223.792 58.6562 224.104 58.7812 224.5 59.0312C224.896 59.2812 225.094 59.5312 225.094 59.7812C225.094 59.9062 225.062 60.0208 225 60.125C224.292 61.8333 223.375 63.5104 222.25 65.1562L224.688 64.8438C225.062 64.2396 225.312 63.7708 225.438 63.4375C225.562 63.0833 225.635 62.7708 225.656 62.5C225.698 62.25 225.802 62.125 225.969 62.125C226.135 62.125 226.406 62.2708 226.781 62.5625C227.156 62.8542 227.344 63.1146 227.344 63.3438C227.344 63.4896 227.281 63.6875 227.156 63.9375L225.594 66.1875C224.344 68.1042 223.24 69.6771 222.281 70.9062C223.031 70.8021 223.917 70.6146 224.938 70.3438L226.156 70.0625C225.906 69.6042 225.688 69.2396 225.5 68.9688C225.354 68.7396 225.281 68.5729 225.281 68.4688C225.281 68.3021 225.385 68.1458 225.594 68C225.823 67.8542 226.01 67.7812 226.156 67.7812C226.323 67.7812 226.49 67.8958 226.656 68.125C226.927 68.625 227.188 69.0625 227.438 69.4375C228.417 71 228.906 71.9062 228.906 72.1562C228.906 72.3438 228.781 72.5312 228.531 72.7188C228.281 72.8854 228.083 72.9688 227.938 72.9688C227.708 72.9688 227.542 72.8438 227.438 72.5938C227.188 72.1146 226.958 71.6667 226.75 71.25L225.219 71.625C225.01 71.6667 224.354 71.8229 223.25 72.0938C222.146 72.3438 221.427 72.4688 221.094 72.4688C220.865 72.4688 220.656 72.3438 220.469 72.0938C220.302 71.8438 220.219 71.5938 220.219 71.3438C220.219 71.1979 220.354 70.9688 220.625 70.6562C220.75 70.5312 220.885 70.3646 221.031 70.1562C221.469 69.5729 222.167 68.6042 223.125 67.25L223.781 66.2812C223.365 66.3646 223.062 66.4167 222.875 66.4375C221.562 66.6875 220.719 66.8125 220.344 66.8125C220.156 66.8125 219.99 66.6771 219.844 66.4062C219.698 66.1354 219.625 65.875 219.625 65.625ZM220.531 73.2188C220.531 73.0729 220.646 73 220.875 73C221.25 73 221.656 73.1042 222.094 73.3125C222.552 73.5208 222.781 73.8646 222.781 74.3438L222.812 78.5625L224.875 78.4688C225.042 78.4688 225.271 78.4479 225.562 78.4062L225.75 75.9062V75.625C225.75 75.0625 225.646 74.5729 225.438 74.1562L225.375 73.9062C225.375 73.7604 225.479 73.6875 225.688 73.6875C226.042 73.6875 226.417 73.7812 226.812 73.9688C227.208 74.1562 227.406 74.4062 227.406 74.7188V74.875L227.125 78.0938C227.354 78.1146 227.667 78.25 228.062 78.5C228.479 78.75 228.688 79.0208 228.688 79.3125C228.688 79.4375 228.635 79.5417 228.531 79.625C228.427 79.7083 228.292 79.7604 228.125 79.7812L222.812 80.0938L222.844 86.5312C222.844 86.9688 222.667 87.1875 222.312 87.1875C222.229 87.1875 222.062 87.1458 221.812 87.0625C221.562 87 221.323 86.875 221.094 86.6875C220.885 86.5 220.781 86.2604 220.781 85.9688C220.781 85.7812 220.792 85.6354 220.812 85.5312C220.979 84.3021 221.062 83.2708 221.062 82.4375L221 75.5625C221 75.1667 220.969 74.8229 220.906 74.5312C220.865 74.2188 220.76 73.875 220.594 73.5C220.552 73.4375 220.531 73.3438 220.531 73.2188Z" fill="#333333"/>
</svg>
