<svg xmlns="http://www.w3.org/2000/svg" width="350" height="88" fill="none"><path fill="#333" d="M158.934 8.2c-.164 0-.082-.141.246-.423l1.195-1.02c.469-.421.996-.972 1.582-1.652.375-.445.656-.914.844-1.406.117-.281.246-.422.387-.422.117 0 .292.094.527.282.469.375.703.691.703.949 0 .164-.094.281-.281.351-.094.024-.235.13-.422.317a9.14 9.14 0 0 0-.422.386c-1.008.985-1.945 1.7-2.813 2.145-.703.328-1.171.492-1.406.492h-.14Zm3.691 6.538c-.07 0-.187-.093-.352-.281a2.99 2.99 0 0 1-.316-.598 2.004 2.004 0 0 1 0-.527c.047-.234.07-.41.07-.527.047-.47.071-.844.071-1.125a5.16 5.16 0 0 0 0-.844v-.598l-.036-.527c-.562.398-.996.68-1.3.844-.68.375-1.172.61-1.477.703-.375.14-.715.21-1.019.21-.164 0-.258-.023-.282-.07-.046-.093.422-.433 1.407-1.02.937-.585 1.957-1.358 3.058-2.32.61-.562 1.078-1.101 1.406-1.617a.77.77 0 0 0 .106-.246c.047-.117.094-.187.141-.21.07-.024.164-.012.281.035.305.164.562.398.773.703a.562.562 0 0 1 .141.351c0 .117-.059.235-.176.352a1.396 1.396 0 0 1-.351.21c-.399.259-.762.54-1.09.844-.328.305-.539.504-.633.598.351.281.527.48.527.598l-.105.738c-.047.211-.071.738-.071 1.582 0 .82.024 1.371.071 1.652v.07a.868.868 0 0 1-.106.387c-.047.118-.082.2-.105.247-.164.257-.375.386-.633.386Zm3.586 8.93c-.352 0-.691-.258-1.02-.773-.421-.657-.832-1.196-1.23-1.618l-.914-.949a14.424 14.424 0 0 1-1.301 1.336 6.992 6.992 0 0 1-1.336.95c-1.008.585-1.851.878-2.531.878-.164 0-.246-.058-.246-.176 0-.07.222-.222.668-.457a7.422 7.422 0 0 0 1.265-.843c1.008-.844 1.84-1.711 2.496-2.602-.14-.14-.843-.75-2.109-1.828-.164-.117-.41-.316-.738-.598a9.494 9.494 0 0 1-.422-.316c-.211-.164-.316-.281-.316-.352 0-.117.058-.175.175-.175.352 0 .914.246 1.688.738a25.67 25.67 0 0 1 2.426 1.687 6.91 6.91 0 0 0 .773-1.125c.188-.351.399-.785.633-1.3a2.41 2.41 0 0 0 .211-.668c.023-.211.035-.34.035-.387 0-.258.07-.387.211-.387.164 0 .387.129.668.387.492.469.738.785.738.95 0 .093-.058.198-.176.316-.281.28-.539.656-.773 1.124-.141.282-.398.68-.774 1.196-.117.14-.21.27-.281.387-.07.117-.14.222-.211.316.539.398 1.336 1.078 2.391 2.039.258.234.422.457.492.668.094.187.141.445.141.773 0 .235-.059.434-.176.598a.567.567 0 0 1-.457.211Zm.633 4.64c.258.282.386.516.386.704 0 .164-.093.316-.281.457-.117.093-.41.61-.879 1.547-.515.843-1.09 1.57-1.722 2.18-.61.632-1.219 1.09-1.828 1.37-.141.047-.258.07-.352.07-.094 0-.141-.023-.141-.07v-.07c0-.14.118-.305.352-.492.422-.328.738-.668.949-1.02l.527-.738c.493-.703.844-1.277 1.055-1.723a4.19 4.19 0 0 0 .492-1.23h-.14c-.61 0-1.594.07-2.953.21-.211.024-.821.106-1.829.247-.21.023-.539.082-.984.176l-.422.105a.623.623 0 0 1-.281.07.946.946 0 0 1-.352-.07 3.198 3.198 0 0 1-.351-.246c-.281-.234-.422-.433-.422-.598.023-.046.047-.117.07-.21a.567.567 0 0 0 .071-.247l.175-1.16c.024-.117.047-.246.071-.386a2.61 2.61 0 0 0 .035-.422c0-.446-.012-.797-.035-1.055a3.87 3.87 0 0 0-.106-.879v-.105c0-.164.071-.246.211-.246.141 0 .387.105.738.316.469.328.704.586.704.773 0 .07-.012.13-.036.176a9.186 9.186 0 0 1-.07.14c-.07.423-.105.657-.105.704l-.176 1.863a.34.34 0 0 0 .07.176c.07.047.141.07.211.07.563 0 1.828-.14 3.797-.422.773-.07 1.324-.152 1.652-.246.211-.023.387-.058.528-.105.164-.07.269-.106.316-.106a1.15 1.15 0 0 1 .281-.07c.211 0 .469.188.774.563Zm-22.606-6.855c.258 0 .504.07.739.211a36.808 36.808 0 0 1-2.778-3.48l-7.137.351a29.799 29.799 0 0 1-2.32 3.164c.281.07.645.176 1.09.317l10.195-.563h.211Zm-22.429 7.91c0-.21.257-.504.773-.879 4.266-2.882 7.606-6.152 10.02-9.808l-6.469.316-.844.035c-.211 0-.363-.011-.457-.035-.211 0-.375-.058-.492-.176-.539-.445-.867-.949-.985-1.511a.398.398 0 0 1-.035-.176c0-.164.071-.246.211-.246l.176.035a6.07 6.07 0 0 0 1.477.176h.281l8.332-.422.211-.387c.375-.68.773-1.535 1.195-2.566l-3.129.176c-.211.023-.48.035-.808.035-.493 0-.891-.13-1.196-.387-.304-.258-.515-.527-.632-.809-.118-.304-.176-.504-.176-.597 0-.117.07-.176.211-.176l.175.035c.422.07.856.106 1.301.106h.457l4.465-.282c.211-.586.445-1.43.703-2.53l-6.961.456a6.186 6.186 0 0 1-.738.035c-.469 0-.891-.105-1.266-.316-.375-.211-.691-.656-.949-1.336l-.035-.211c0-.164.094-.246.281-.246l.176.035c.656.094 1.16.14 1.512.14h.351l7.981-.492c.211-1.125.316-1.898.316-2.32 0-.469-.082-.879-.246-1.23-.07-.188-.105-.317-.105-.387 0-.211.14-.316.421-.316.352 0 .833.093 1.442.28.633.188.949.516.949.985l-.035.352a79.581 79.581 0 0 1-.422 2.496l7.137-.457c.258-.024.738-.14 1.441-.352.141-.047.235-.07.281-.07.329 0 .727.223 1.196.668.492.422.738.762.738 1.02 0 .257-.258.41-.773.456l-10.407.668a177.6 177.6 0 0 1-.632 2.532l5.589-.317a6.484 6.484 0 0 0 1.336-.246c.141-.047.246-.07.317-.07.281 0 .644.2 1.09.598.468.398.703.714.703.949 0 .14-.645.281-1.934.422-1.266.14-3.844.328-7.734.562a29.037 29.037 0 0 1-1.336 2.988l13.957-.703a4.85 4.85 0 0 0 1.512-.316c.046-.024.14-.035.281-.035.234 0 .492.105.773.316.305.211.563.457.774.738.211.258.316.446.316.563 0 .281-.269.445-.809.492l-8.578.422a30.768 30.768 0 0 0 4.641 4.746c1.664 1.36 3.551 2.531 5.66 3.516.469.21.703.398.703.562 0 .117-.117.305-.351.563a4.41 4.41 0 0 1-.774.668c-.281.187-.539.28-.773.28-.164 0-.645-.222-1.442-.667-.773-.445-1.722-1.102-2.847-1.969-1.102-.867-2.239-1.91-3.41-3.129a.398.398 0 0 1 .035.176c0 .07-.035.188-.106.352a1.15 1.15 0 0 0-.07.351l-.492 7.805c.609.773.914 1.312.914 1.617 0 .188-.094.305-.281.352-.164.047-.422.07-.774.07l-10.793.281.035.88v.105c0 .468-.222.703-.668.703-.304 0-.668-.117-1.089-.352-.422-.234-.633-.586-.633-1.055v-.14c0-.235.023-.563.07-.985a9.36 9.36 0 0 0 .07-.949v-.316l-.492-7.664c0-.14-.012-.27-.035-.387l-.07-.352c-1.289 1.36-2.614 2.52-3.973 3.48-1.336.962-2.519 1.7-3.551 2.216-1.008.515-1.629.773-1.863.773-.211 0-.316-.07-.316-.21Zm12.129-2.672 9.421-.351.106-2.883-9.668.457.141 2.777Zm.281 4.922 8.929-.21.141-3.2-9.246.352.176 3.058ZM219.121 14.387c-.164 0-.34-.106-.527-.317a2.153 2.153 0 0 1-.282-.386c-.046-.118-.046-.27 0-.457l.036-.844c.023-.164.035-.563.035-1.195v-1.16l-1.055.492-1.23.527a10.87 10.87 0 0 0-.95.422c-.281.14-.527.21-.738.21a2.173 2.173 0 0 1-.562-.175 4.837 4.837 0 0 1-.493-.246c-.257-.164-.375-.34-.351-.527l.105-.352c0-.188.012-.352.036-.492l.035-2.04V5.95c0-.375-.024-.691-.071-.949-.047-.281-.082-.48-.105-.598 0-.117.035-.199.105-.246.024-.023.082-.035.176-.035.164 0 .481.106.949.316.399.188.563.422.493.704-.047.164-.094.41-.141.738l-.106 4.043c0 .117.012.21.036.281.046.047.093.07.14.07.282 0 .621-.082 1.02-.246.75-.234 1.394-.468 1.933-.703l.774-.316v-2.32c0-.938-.059-1.84-.176-2.708a.792.792 0 0 1-.035-.246c0-.234.094-.351.281-.351.024 0 .152.047.387.14.351.188.609.352.773.493.164.14.258.222.282.246.093.07.14.14.14.21a.34.34 0 0 1-.07.176c-.024.07-.047.13-.07.176l-.106 1.055-.035 3.234.035 3.13a8.23 8.23 0 0 1-.105 1.405c-.118.493-.305.739-.563.739Zm-6.469 5.765c-.257 0-.574-.199-.949-.597-.281-.282-.422-.492-.422-.633 0-.07.047-.106.141-.106a1.48 1.48 0 0 1 .351-.035l.774-.035c.445 0 .738-.012.879-.035.445 0 .82-.012 1.125-.035 2.015-.188 3.375-.34 4.078-.457a29.8 29.8 0 0 0 .949-.14c.281-.071.504-.106.668-.106.328 0 .656.164.984.492.258.258.387.469.387.633 0 .14-.082.234-.246.28-.117.024-.809.071-2.074.142-.703.023-1.57.082-2.602.175a92.491 92.491 0 0 0-2.707.282c-.14.023-.34.058-.597.105-.258.047-.504.07-.739.07Zm4.711 14.52c-.726 0-1.289-.024-1.687-.07a1.68 1.68 0 0 1-.949-.422c-.446-.328-.75-1.043-.915-2.145l-.105-1.125c0-.281-.023-.633-.07-1.055a5.987 5.987 0 0 0-.809.141 3.817 3.817 0 0 1-.246.106.965.965 0 0 1-.211.035.81.81 0 0 1-.457-.14c-.141-.095-.316-.27-.527-.528-.164-.211-.246-.352-.246-.422s.082-.117.246-.14c.164-.024.386-.036.668-.036.398 0 .914-.047 1.547-.14l-.036-.493c0-.937-.058-1.734-.175-2.39l-.036-.246c0-.329.129-.457.387-.387.281.094.539.21.774.351.187.094.316.188.386.282.071.07.094.175.071.316l-.106 1.512v.914l3.094-.317c0-.164.012-.55.035-1.16.024-.633.024-1.043 0-1.23 0-.188-.023-.363-.07-.527a6.529 6.529 0 0 0-.071-.458c0-.187.094-.28.282-.28.187 0 .422.105.703.316.328.21.539.398.633.562.117.164.14.363.07.598a6.4 6.4 0 0 0-.246 1.265c-.047.47-.07.75-.07.844.281-.023.539-.058.773-.105.234-.047.387-.07.457-.07.188-.047.41-.071.668-.071.141.023.34.164.598.422.211.281.316.504.316.668 0 .234-.223.328-.668.281a6.863 6.863 0 0 0-1.195-.105c-.399 0-.738.011-1.02.035-.07.844-.211 1.676-.422 2.496a.953.953 0 0 1-.246.457c-.117.14-.222.21-.316.21-.164 0-.27-.07-.317-.21a3.524 3.524 0 0 1-.035-.598c.047-.61.071-1.37.071-2.285a26.99 26.99 0 0 0-1.477.14 9.357 9.357 0 0 1-1.512.212c-.023.96.024 1.816.141 2.566.07.492.211.832.422 1.02.14.117.305.187.492.21.211.024.422.036.633.036h.422c.726 0 1.406-.035 2.039-.106a1.52 1.52 0 0 0 .492-.14c.164-.07.281-.106.352-.106.21 0 .421.07.632.211.211.14.317.305.317.492 0 .188-.106.328-.317.422-.187.094-.492.176-.914.246-.75.094-1.5.14-2.25.14Zm10.02-15.996c.281 0 .422.129.422.387 0 .14-.129.34-.387.597-.703.867-2.098 2.52-4.184 4.957-.164.211-.316.317-.457.317-.117 0-.375-.176-.773-.528-.328-.281-.492-.515-.492-.703 0-.21.176-.41.527-.598.539-.304 1.348-.914 2.426-1.828 1.078-.96 1.875-1.722 2.39-2.285.211-.21.387-.316.528-.316Zm-44.684 11.496c2.086-.656 3.949-1.371 5.59-2.145a25.586 25.586 0 0 0-1.336-1.687c-.187-.235-.281-.422-.281-.563 0-.258.152-.48.457-.668.305-.21.539-.316.703-.316.188 0 .387.117.598.352a137.853 137.853 0 0 1 3.41 4.148c.937 1.195 1.406 1.922 1.406 2.18 0 .21-.164.457-.492.738-.305.305-.598.457-.879.457-.234 0-.469-.188-.703-.563a96.435 96.435 0 0 0-1.828-2.671l-4.219 2.109c-.469.21-1.207.586-2.215 1.125-.844.445-1.359.668-1.547.668-.14 0-.316-.094-.527-.281a1.65 1.65 0 0 1-.492-.633c-.094-.234-.094-.422 0-.563.14-.257.211-1.289.211-3.093V16.602c0-.563-.024-1.02-.071-1.372a3.587 3.587 0 0 0-.281-1.125 1.37 1.37 0 0 0-.07-.175.305.305 0 0 1-.035-.14c0-.118.082-.177.246-.177.304 0 1.066.258 2.285.774l7.629-.528c.187-.023.398-.035.633-.035.257 0 .562.117.914.352.351.21.527.445.527.703 0 .094-.059.234-.176.422-.094.187-.14.328-.14.422l-.914 6.609c.562.656.843 1.102.843 1.336 0 .117-.07.2-.211.246-.117.047-.304.07-.562.07l-8.508.317.035 5.87Zm-5.765-15.785c0-.235.152-.516.457-.844 1.711-1.898 3.199-3.785 4.464-5.66 1.266-1.875 1.899-3.13 1.899-3.762l-.035-.246V3.77c0-.329.129-.493.386-.493.305 0 .727.211 1.266.633.563.399.844.727.844.985 0 .117-.059.27-.176.457a23.895 23.895 0 0 1-1.16 1.687l4.992-.387a4.872 4.872 0 0 0 1.336-.28c.141-.048.246-.071.316-.071.352 0 .727.199 1.125.597.422.375.633.668.633.88 0 .28-.258.445-.773.492l-6.012.421c.164.047.527.293 1.09.739.586.445 1.113.902 1.582 1.37.469.47.703.798.703.985 0 .211-.141.469-.422.774-.281.28-.527.421-.738.421-.188 0-.41-.152-.668-.457a21.787 21.787 0 0 0-2.426-2.285c-.281-.234-.422-.433-.422-.597 0-.118.059-.27.176-.457.117-.188.27-.34.457-.457l-2.355.175a34.406 34.406 0 0 1-3.727 3.903c-1.359 1.195-2.226 1.793-2.601 1.793-.141 0-.211-.07-.211-.211Zm12.656 3.656.246-2.461-7.242.492v2.32l6.996-.351Zm-.457 4.36.281-2.708-6.785.317v2.636l6.504-.246Zm1.898-9.528c0-.234.153-.516.457-.844 1.149-1.383 2.192-2.941 3.129-4.676.961-1.757 1.442-2.988 1.442-3.69v-.142c0-.351.129-.527.386-.527.164 0 .41.094.739.281.351.164.668.364.949.598.281.234.422.469.422.703 0 .211-.164.586-.493 1.125-.328.54-.503.82-.527.844l6.926-.563a6.483 6.483 0 0 0 1.336-.246c.047-.023.141-.035.281-.035.328 0 .68.188 1.055.563.398.351.597.644.597.879 0 .14-.07.257-.21.351-.118.07-.282.117-.493.14l-7.136.493c.656.422 1.429 1.043 2.32 1.863.891.797 1.336 1.336 1.336 1.617 0 .164-.129.422-.387.774-.258.328-.504.492-.738.492-.188 0-.387-.117-.598-.352-1.148-1.242-2.191-2.226-3.129-2.953-.234-.187-.351-.363-.351-.527 0-.188.176-.469.527-.844l-2.601.176c-.774 1.031-1.711 2.074-2.813 3.129-1.078 1.055-1.805 1.582-2.18 1.582-.164 0-.246-.07-.246-.211Zm3.305.773c0-.14.082-.21.246-.21.352 0 1.148.292 2.391.878l7.066-.597.281-.035c.094 0 .27.046.528.14.281.07.539.2.773.387.258.164.387.387.387.668 0 .094-.035.223-.106.387-.07.164-.105.28-.105.351a88.243 88.243 0 0 1-.492 8.262l-.071.879c-.07.984-.164 1.805-.281 2.46-.117.657-.316 1.173-.598 1.548-.445.609-.925.914-1.441.914s-1.172-.317-1.969-.95a18.576 18.576 0 0 1-2.215-2.074c-.656-.75-.984-1.23-.984-1.441 0-.164.094-.246.281-.246.211 0 .504.117.879.351.867.54 1.594.973 2.18 1.301.586.328 1.008.492 1.266.492.117 0 .199-.082.246-.246.539-3 .867-6.762.984-11.285l-6.609.492c0 3.961.035 10.242.105 18.844 0 .21-.058.363-.176.457a.466.466 0 0 1-.386.176c-.188 0-.411-.07-.668-.211-.446-.188-.762-.363-.95-.528-.187-.164-.281-.351-.281-.562l.035-.246c.141-.773.211-1.64.211-2.602l-.105-14.836c0-.609-.024-1.078-.07-1.406a3.306 3.306 0 0 0-.211-.95c-.094-.28-.141-.468-.141-.562ZM163.875 71.969c-.167 0-.333-.031-.5-.094A.814.814 0 0 1 163 71.5c-.062-.188-.198-.406-.406-.656a2.388 2.388 0 0 0-.563-.563l.125-.156c.104.063.354.188.75.375.396.188.688.281.875.281.292 0 .552-.104.781-.312.23-.209.521-.604.876-1.188.25-.396.479-.864.687-1.406.208-.542.365-1.042.469-1.5l.031-.063a.211.211 0 0 0-.063-.156c-.041-.062-.083-.094-.124-.094l-1.438.126a41.73 41.73 0 0 1-3 .406 3.25 3.25 0 0 0-.656.156c-.25.083-.427.125-.532.125-.166 0-.385-.135-.656-.406a2.213 2.213 0 0 1-.312-.313c-.084-.125-.104-.229-.063-.312l.25-.25.157-.125c.291-.292.583-.677.874-1.156.209-.292.428-.782.657-1.47 0-.228.052-.343.156-.343.063 0 .167.042.313.125l.5.313c.124.104.208.187.25.25a.45.45 0 0 1 .062.25c0 .124-.083.28-.25.468a4.787 4.787 0 0 0-.438.5l-.718 1.031-.063.126c0 .062.084.093.25.093l2.407-.312 1.624-.125.626-.063.343-.062h.094c.208 0 .437.177.687.531.292.27.438.5.438.688l-.156.406c-.021.041-.188.531-.5 1.469-.375.895-.698 1.572-.969 2.03-.271.46-.563.813-.875 1.063-.562.459-1.104.688-1.625.688Zm.594 10.562c0-.02.052-.094.156-.219a6.96 6.96 0 0 0 .406-.53c.25-.355.5-.876.75-1.563.25-.688.386-1.323.407-1.906 0-.042-.021-.084-.063-.126-.021-.062-.073-.093-.156-.093l-.719.062-1.062.094c-.23.75-.626 1.563-1.188 2.438-.25.395-.594.75-1.031 1.062-.417.292-.823.5-1.219.625a1.5 1.5 0 0 1-.469.063c-.146-.021-.219-.063-.219-.126 0-.083.073-.156.219-.218.25-.167.531-.427.844-.781.333-.355.625-.72.875-1.094.146-.209.302-.48.469-.813.166-.354.302-.677.406-.969-.667.084-1.354.24-2.063.47-.041.04-.114.062-.218.062-.063 0-.156-.042-.282-.125a4.054 4.054 0 0 1-.343-.375c-.042-.104-.021-.198.062-.281l.125-.25c.084-.126.167-.376.25-.75.084-.376.125-.678.125-.907a.908.908 0 0 0-.031-.219c0-.104.01-.156.031-.156.042-.02.094-.02.157 0 .229.042.437.115.624.219a.896.896 0 0 1 .344.344c.084.104.084.198 0 .281a.939.939 0 0 0-.094.125.404.404 0 0 0-.093.188c-.021.02-.063.25-.125.687 0 .02.01.042.031.063.042.02.083.02.125 0 .062 0 .156-.01.281-.032.125-.02.219-.041.281-.062a6.67 6.67 0 0 0 .5-.094 7.95 7.95 0 0 1 .563-.094c.063-.229.104-.479.125-.75.042-.291.073-.49.094-.594l.031-.656v-.219c-.667.021-1.365.084-2.094.188l-.562.094h-.125a.605.605 0 0 1-.313-.094 11.736 11.736 0 0 1-.281-.219c-.271-.25-.406-.437-.406-.562 0-.125.094-.167.281-.125.25.041.51.062.781.062l.906-.031 4.344-.313c.167-.02.323-.041.469-.062.146-.042.292-.073.437-.094h.094c.271 0 .459.052.563.156.125.084.198.136.219.157.333.27.5.479.5.625 0 .125-.178.177-.532.156l-.625-.063c-.541-.02-1.354 0-2.437.063l-.125 1.219a8.009 8.009 0 0 1-.063.5c-.021.125-.041.229-.062.312l-.032.094c.5-.042 1.084-.104 1.75-.188a.98.98 0 0 1 .219-.062 1.79 1.79 0 0 1 .313-.094h.062c.125 0 .25.052.375.156.125.105.198.167.219.188.167.146.281.27.344.375.083.083.094.156.031.219a1.713 1.713 0 0 1-.156.25.69.69 0 0 0-.094.219c-.104.874-.271 1.583-.5 2.124-.187.48-.396.844-.625 1.094a4.19 4.19 0 0 1-.781.656c-.125.084-.323.157-.594.22-.271.04-.406.04-.406 0Zm5.093-11.312c.105 0 .261.073.469.219-.021.041.021.124.125.25l.219.218c.104.104.208.23.313.375.124.146.26.302.406.469.375.396 1.239 1.427 2.594 3.094.229.333.343.531.343.594 0 .208-.125.312-.375.312-.146 0-.302-.104-.468-.313-.396-.416-1.105-1.072-2.126-1.968-.791-.73-1.51-1.292-2.156-1.688-.312-.146-.468-.312-.468-.5 0-.146.156-.354.468-.625.292-.291.511-.437.656-.437ZM136.875 69c0 1.583-.031 2.99-.094 4.219l3.469-1.031.812-.25c.605-.167 1.011-.25 1.219-.25.209 0 .313.052.313.156 0 .187-.448.5-1.344.937-.875.417-2.417 1.063-4.625 1.938-.292 2.416-.937 4.49-1.937 6.219-.98 1.729-2.5 3.354-4.563 4.874-.375.292-.677.438-.906.438-.146 0-.219-.063-.219-.188 0-.229.208-.552.625-.968 1.396-1.396 2.521-2.854 3.375-4.375.875-1.542 1.448-3.313 1.719-5.313-.646.271-1.459.563-2.438.875-.979.313-1.625.469-1.937.469-.188 0-.323-.042-.406-.125-.23-.167-.48-.417-.75-.75-.25-.354-.376-.667-.376-.938 0-.104.053-.156.157-.156h.093c1.042 0 2.98-.354 5.813-1.062.063-.917.115-2.448.156-4.594l-2.312.188c-.146.02-.334.03-.563.03-.479 0-.791-.051-.937-.156a2.744 2.744 0 0 1-.657-.718c-.166-.292-.25-.542-.25-.75 0-.104.053-.156.157-.156a.43.43 0 0 1 .187.03c.5.126.927.188 1.282.188h.218l2.875-.25c0-1.666-.01-2.875-.031-3.625-.833.23-1.719.448-2.656.657-.938.187-1.604.28-2 .28-.438 0-.656-.083-.656-.25 0-.103.104-.218.312-.343.208-.146.5-.27.875-.375a35.506 35.506 0 0 0 3.813-1.406 52.263 52.263 0 0 0 3.812-1.844c.292-.167.604-.49.938-.969.083-.146.197-.218.343-.218.313 0 .636.208.969.624.354.417.531.792.531 1.126 0 .25-.104.416-.312.5-1.604.729-2.979 1.28-4.125 1.656l.031 4.031 1.906-.156c.063 0 .209-.01.438-.031.229-.021.448-.063.656-.126a.54.54 0 0 1 .219-.03c.25 0 .562.166.937.5.375.333.563.593.563.78 0 .209-.229.334-.688.376l-4.031.312Zm3.219 6.031c0-.104.041-.156.125-.156.083 0 .146.01.187.031.542.125.99.188 1.344.188h.219l5.719-.281v-3.438l-2.344.156a8.48 8.48 0 0 1-.813.031c-.333 0-.583-.041-.75-.124a2.615 2.615 0 0 1-.843-1.282.73.73 0 0 1-.094-.312c0-.104.041-.156.125-.156.021 0 .093.02.219.062.416.104.843.156 1.281.156h.281l2.938-.187v-2.875l-2.407.156c-.208.02-.479.031-.812.031-.396 0-.636-.041-.719-.125a3.253 3.253 0 0 1-.656-.75c-.188-.312-.282-.594-.282-.844 0-.104.042-.156.126-.156l.187.063c.417.104.844.156 1.281.156h.282l3-.188V62.72l-3.313.218c-.208.021-.469.032-.781.032-.417 0-.677-.052-.782-.157a2.855 2.855 0 0 1-.874-1.25.731.731 0 0 1-.094-.312c0-.104.052-.156.156-.156a.44.44 0 0 1 .188.031c.541.125.989.188 1.343.188h.219l9.031-.657c.084 0 .24-.01.469-.031.229-.02.458-.063.688-.125a.531.531 0 0 1 .218-.031c.292 0 .625.187 1 .562.375.354.563.625.563.813 0 .208-.229.333-.688.375l-5.437.375v2.468l2.468-.156c.48-.041.865-.104 1.157-.187a.43.43 0 0 1 .187-.031c.229 0 .552.177.969.53.417.355.625.647.625.876 0 .208-.229.333-.688.375l-4.718.281v2.844l2.562-.188a6.346 6.346 0 0 0 1.156-.187.439.439 0 0 1 .188-.031c.25 0 .573.177.969.53.416.355.625.647.625.876 0 .208-.24.333-.719.375l-4.781.312v3.469l5.094-.25c.5-.042.895-.104 1.187-.188l.187-.03c.25 0 .573.197.969.593.396.396.594.688.594.875 0 .208-.229.333-.687.375l-7.344.344v10.156c0 .458-.167.688-.5.688-.271 0-.604-.115-1-.344-.396-.23-.594-.531-.594-.906l.031-.25c.104-.667.157-1.271.157-1.813v-7.438l-5.126.376-1 .062c-.166.02-.458-.25-.874-.813-.396-.583-.594-.968-.594-1.156ZM211.594 68.219c-.271 0-.469-.094-.594-.281a3.712 3.712 0 0 0-.562-.657c-.167-.166-.469-.396-.907-.687l.094-.156c.958.333 1.635.5 2.031.5.334 0 .698-.188 1.094-.563.417-.396.771-.958 1.062-1.688.146-.333.25-.604.313-.812.083-.23.146-.48.187-.75v-.063c0-.187-.093-.28-.281-.28-.208 0-.583.062-1.125.187-.291.083-.677.208-1.156.375l-.25-.063a.736.736 0 0 0-.156-.093 1.174 1.174 0 0 1-.156-.188c-.105-.104-.157-.177-.157-.219l-.031-.125c0-.146.073-.281.219-.406.166-.125.26-.219.281-.281.167-.188.5-.646 1-1.375.042-.042.115-.136.219-.282.104-.166.156-.312.156-.437 0-.146-.615-.042-1.844.313-1.25.374-1.906.562-1.969.562-.208 0-.427-.177-.656-.531-.166-.167-.25-.302-.25-.407 0-.145.209-.229.625-.25.479-.02 1.219-.104 2.219-.25 1.021-.145 1.625-.24 1.812-.28l.438-.126a.69.69 0 0 1 .219-.031c.062 0 .156.042.281.125.146.083.271.146.375.188.271.124.427.27.469.437v.094c0 .187-.104.385-.313.593-.083.084-.25.26-.5.532-.25.25-.406.416-.469.5a10.33 10.33 0 0 0-.374.406 2.846 2.846 0 0 0-.282.344c0 .062.021.104.063.125.041.02.093.031.156.031a12.927 12.927 0 0 0 1.531-.281l.5-.157c.229 0 .396.084.5.25.188.209.313.386.375.532a.396.396 0 0 1 0 .375.817.817 0 0 1-.093.187 2.053 2.053 0 0 0-.126.219l-.124.25c-.063.125-.105.25-.126.375-.374 1.083-.822 2.01-1.343 2.781a4.975 4.975 0 0 1-.969.906c-.479.355-.948.532-1.406.532Zm-3.125 5.25c-.229 0-.511-.177-.844-.531-.25-.25-.375-.438-.375-.563 0-.063.042-.094.125-.094.083-.02.187-.031.313-.031l.687-.031c.396 0 .656-.01.781-.031.396 0 .729-.01 1-.032 1.792-.166 3-.302 3.625-.406.313-.042.594-.083.844-.125.25-.063.448-.094.594-.094.291 0 .583.146.875.438.229.229.344.416.344.562 0 .125-.073.209-.219.25-.104.021-.719.063-1.844.125-.625.021-1.396.073-2.313.156-.916.084-1.718.167-2.406.25-.125.021-.302.053-.531.094a3.668 3.668 0 0 1-.656.063Zm4.656 6.969c-.208.27-.427.406-.656.406-.063 0-.094-.052-.094-.156 0-.146.042-.313.125-.5l.625-1.25c.021-.084.052-.167.094-.25.041-.084.073-.157.093-.22v-.03c0-.042-.031-.084-.093-.126a.264.264 0 0 0-.219-.03c-.333.02-.833.072-1.5.156-.646.083-1.125.166-1.438.25l-.468.156a1.227 1.227 0 0 1-.406.094c-.376 0-.688-.115-.938-.344a1.931 1.931 0 0 1-.469-.438l-.062-.156c0-.104.177-.135.531-.094.479.042 1.469-.02 2.969-.187l.625-.094.781-.094c.375-.062.667-.125.875-.187l.188-.063a.502.502 0 0 1 .218-.062c.104 0 .229.052.375.156.167.104.302.198.407.281.145.104.239.198.281.281.062.063.083.146.062.25 0 .105-.052.198-.156.282a3.092 3.092 0 0 0-.219.187c-.041.063-.187.219-.437.469-.104.167-.292.396-.563.688-.25.291-.427.5-.531.624Zm-1.563 6.156c0-.063.105-.23.313-.5.229-.25.406-.448.531-.594.313-.417.688-1.02 1.125-1.813.459-.791.719-1.312.781-1.562.042-.125-.02-.188-.187-.188-.333 0-1.25.094-2.75.282-.979.125-1.708.25-2.187.375a.608.608 0 0 1-.313.094c-.167 0-.344-.115-.531-.344a.821.821 0 0 1-.125-.406c0-.084.052-.167.156-.25l.094-.126c.062-.124.135-.291.219-.5.083-.208.156-.406.218-.593.104-.334.177-.698.219-1.094.021-.23.146-.292.375-.188.292.146.51.292.656.438.167.125.219.219.156.281a3.15 3.15 0 0 0-.5.844 8.477 8.477 0 0 0-.187.656c0 .084.052.125.156.125.313 0 .781-.052 1.407-.156l1.312-.156c.521-.063.938-.125 1.25-.188l.781-.156a.817.817 0 0 1 .25-.031c.104 0 .209.041.313.125.104.062.218.146.344.25.208.187.343.344.406.469a.72.72 0 0 1 .094.374c0 .084-.063.188-.188.313a3.792 3.792 0 0 0-.375.594c-.604 1.229-1.385 2.26-2.344 3.094a4.331 4.331 0 0 1-.906.53 1.486 1.486 0 0 1-.406.063c-.104.021-.157 0-.157-.062Zm10-14.438c.25 0 .376.115.376.344 0 .125-.115.302-.344.531-.625.771-1.865 2.24-3.719 4.406-.146.188-.281.282-.406.282-.104 0-.334-.156-.688-.469-.291-.25-.437-.458-.437-.625 0-.188.156-.365.468-.531.48-.271 1.198-.813 2.157-1.625.958-.854 1.666-1.531 2.125-2.031.187-.188.344-.282.468-.282Zm-44.906 4.219c0-.125.073-.188.219-.188.083 0 .156.01.219.032a6.997 6.997 0 0 0 1.5.187h.25l5.156-.25a32.624 32.624 0 0 1-.062-1.656c-.021-.25-.053-.781-.094-1.594a24.032 24.032 0 0 0-.156-2.25c0-.083-.021-.291-.063-.625a3.099 3.099 0 0 0-.25-.937 1.059 1.059 0 0 1-.125-.469c0-.167.115-.25.344-.25.354 0 1.177.23 2.468.688l4.594-.313.032-4.406-6.063.375a28.861 28.861 0 0 1-2.187 2.75c-.771.854-1.469 1.531-2.094 2.031-.604.5-1.021.75-1.25.75-.104 0-.156-.063-.156-.188 0-.166.104-.385.312-.656 1.271-1.562 2.323-3.041 3.156-4.437.834-1.396 1.438-2.584 1.813-3.563.375-.979.562-1.677.562-2.093 0-.167-.01-.292-.031-.376v-.156c0-.25.094-.375.281-.375.084 0 .313.073.688.219.396.125.75.302 1.062.531.334.209.5.438.5.688 0 .125-.031.25-.093.375a68.716 68.716 0 0 1-1.407 2.718l12-.75a6.488 6.488 0 0 0 1.407-.28c.124-.042.239-.063.343-.063.292 0 .636.187 1.031.562.396.375.594.677.594.907 0 .27-.26.427-.781.468l-7.75.469v4.406l4.063-.25c.52-.041 1-.135 1.437-.281.125-.042.229-.063.313-.063.291 0 .645.209 1.062.626.438.395.656.697.656.906 0 .229-.239.364-.718.406l-6.844.406v5.344l8.75-.438c.521-.041 1-.135 1.437-.28a.995.995 0 0 1 .281-.063c.105 0 .303.094.594.281.292.188.552.406.782.656.25.23.374.448.374.656 0 .23-.239.365-.718.407l-11.5.562-.032 8.813c0 .437-.177.656-.531.656-.291 0-.646-.115-1.062-.344-.396-.208-.594-.541-.594-1l.031-.281c.084-.563.125-1.188.125-1.875l.031-5.875-10.906.531c-.291.021-.646.031-1.062.031-.459 0-.834-.114-1.125-.343-.292-.25-.5-.521-.625-.813-.125-.291-.188-.51-.188-.656Zm9.219-.313 4.719-.218.031-5.344-4.969.281.219 5.281Z"/></svg>