<svg width="350" height="88" viewBox="0 0 350 88" fill="none" xmlns="http://www.w3.org/2000/svg">
<path d="M158.934 8.19922C158.77 8.19922 158.852 8.05859 159.18 7.77734C159.508 7.49609 159.906 7.15625 160.375 6.75781C160.844 6.33594 161.371 5.78516 161.957 5.10547C162.332 4.66016 162.613 4.19141 162.801 3.69922C162.918 3.41797 163.047 3.27734 163.188 3.27734C163.305 3.27734 163.48 3.37109 163.715 3.55859C164.184 3.93359 164.418 4.25 164.418 4.50781C164.418 4.67188 164.324 4.78906 164.137 4.85938C164.043 4.88281 163.902 4.98828 163.715 5.17578C163.527 5.33984 163.387 5.46875 163.293 5.5625C162.285 6.54688 161.348 7.26172 160.48 7.70703C159.777 8.03516 159.309 8.19922 159.074 8.19922H158.934ZM162.625 14.7383C162.555 14.7383 162.438 14.6445 162.273 14.457C162.133 14.2461 162.027 14.0469 161.957 13.8594C161.934 13.7188 161.934 13.543 161.957 13.332C162.004 13.0977 162.027 12.9219 162.027 12.8047C162.074 12.3359 162.098 11.9609 162.098 11.6797C162.121 11.4219 162.121 11.1406 162.098 10.8359C162.098 10.5312 162.098 10.332 162.098 10.2383L162.062 9.71094C161.5 10.1094 161.066 10.3906 160.762 10.5547C160.082 10.9297 159.59 11.1641 159.285 11.2578C158.91 11.3984 158.57 11.4688 158.266 11.4688C158.102 11.4688 158.008 11.4453 157.984 11.3984C157.938 11.3047 158.406 10.9648 159.391 10.3789C160.328 9.79297 161.348 9.01953 162.449 8.05859C163.059 7.49609 163.527 6.95703 163.855 6.44141C163.902 6.37109 163.938 6.28906 163.961 6.19531C164.008 6.07812 164.055 6.00781 164.102 5.98438C164.172 5.96094 164.266 5.97266 164.383 6.01953C164.688 6.18359 164.945 6.41797 165.156 6.72266C165.25 6.83984 165.297 6.95703 165.297 7.07422C165.297 7.19141 165.238 7.30859 165.121 7.42578C165.004 7.51953 164.887 7.58984 164.77 7.63672C164.371 7.89453 164.008 8.17578 163.68 8.48047C163.352 8.78516 163.141 8.98438 163.047 9.07812C163.398 9.35938 163.574 9.55859 163.574 9.67578L163.469 10.4141C163.422 10.625 163.398 11.1523 163.398 11.9961C163.398 12.8164 163.422 13.3672 163.469 13.6484V13.7188C163.469 13.8359 163.434 13.9648 163.363 14.1055C163.316 14.2227 163.281 14.3047 163.258 14.3516C163.094 14.6094 162.883 14.7383 162.625 14.7383ZM166.211 23.668C165.859 23.668 165.52 23.4102 165.191 22.8945C164.77 22.2383 164.359 21.6992 163.961 21.2773L163.047 20.3281C162.555 20.8906 162.121 21.3359 161.746 21.6641C161.395 21.9922 160.949 22.3086 160.41 22.6133C159.402 23.1992 158.559 23.4922 157.879 23.4922C157.715 23.4922 157.633 23.4336 157.633 23.3164C157.633 23.2461 157.855 23.0938 158.301 22.8594C158.746 22.625 159.168 22.3438 159.566 22.0156C160.574 21.1719 161.406 20.3047 162.062 19.4141C161.922 19.2734 161.219 18.6641 159.953 17.5859C159.789 17.4688 159.543 17.2695 159.215 16.9883C159.145 16.9414 159.004 16.8359 158.793 16.6719C158.582 16.5078 158.477 16.3906 158.477 16.3203C158.477 16.2031 158.535 16.1445 158.652 16.1445C159.004 16.1445 159.566 16.3906 160.34 16.8828C161.113 17.3516 161.922 17.9141 162.766 18.5703C163.094 18.1719 163.352 17.7969 163.539 17.4453C163.727 17.0938 163.938 16.6602 164.172 16.1445C164.289 15.8867 164.359 15.6641 164.383 15.4766C164.406 15.2656 164.418 15.1367 164.418 15.0898C164.418 14.832 164.488 14.7031 164.629 14.7031C164.793 14.7031 165.016 14.832 165.297 15.0898C165.789 15.5586 166.035 15.875 166.035 16.0391C166.035 16.1328 165.977 16.2383 165.859 16.3555C165.578 16.6367 165.32 17.0117 165.086 17.4805C164.945 17.7617 164.688 18.1602 164.312 18.6758C164.195 18.8164 164.102 18.9453 164.031 19.0625C163.961 19.1797 163.891 19.2852 163.82 19.3789C164.359 19.7773 165.156 20.457 166.211 21.418C166.469 21.6523 166.633 21.875 166.703 22.0859C166.797 22.2734 166.844 22.5312 166.844 22.8594C166.844 23.0938 166.785 23.293 166.668 23.457C166.551 23.5977 166.398 23.668 166.211 23.668ZM166.844 28.3086C167.102 28.5898 167.23 28.8242 167.23 29.0117C167.23 29.1758 167.137 29.3281 166.949 29.4688C166.832 29.5625 166.539 30.0781 166.07 31.0156C165.555 31.8594 164.98 32.5859 164.348 33.1953C163.738 33.8281 163.129 34.2852 162.52 34.5664C162.379 34.6133 162.262 34.6367 162.168 34.6367C162.074 34.6367 162.027 34.6133 162.027 34.5664V34.4961C162.027 34.3555 162.145 34.1914 162.379 34.0039C162.801 33.6758 163.117 33.3359 163.328 32.9844C163.562 32.6562 163.738 32.4102 163.855 32.2461C164.348 31.543 164.699 30.9688 164.91 30.5234C165.145 30.125 165.309 29.7148 165.402 29.293H165.262C164.652 29.293 163.668 29.3633 162.309 29.5039C162.098 29.5273 161.488 29.6094 160.48 29.75C160.27 29.7734 159.941 29.832 159.496 29.9258L159.074 30.0312C158.98 30.0781 158.887 30.1016 158.793 30.1016C158.676 30.1016 158.559 30.0781 158.441 30.0312C158.324 29.9609 158.207 29.8789 158.09 29.7852C157.809 29.5508 157.668 29.3516 157.668 29.1875C157.691 29.1406 157.715 29.0703 157.738 28.9766C157.785 28.8828 157.809 28.8008 157.809 28.7305L157.984 27.5703C158.008 27.4531 158.031 27.3242 158.055 27.1836C158.078 27.043 158.09 26.9023 158.09 26.7617C158.09 26.3164 158.078 25.9648 158.055 25.707C158.055 25.4258 158.02 25.1328 157.949 24.8281V24.7227C157.949 24.5586 158.02 24.4766 158.16 24.4766C158.301 24.4766 158.547 24.582 158.898 24.793C159.367 25.1211 159.602 25.3789 159.602 25.5664C159.602 25.6367 159.59 25.6953 159.566 25.7422C159.543 25.7891 159.52 25.8359 159.496 25.8828C159.426 26.3047 159.391 26.5391 159.391 26.5859L159.215 28.4492C159.215 28.4961 159.238 28.5547 159.285 28.625C159.355 28.6719 159.426 28.6953 159.496 28.6953C160.059 28.6953 161.324 28.5547 163.293 28.2734C164.066 28.2031 164.617 28.1211 164.945 28.0273C165.156 28.0039 165.332 27.9688 165.473 27.9219C165.637 27.8516 165.742 27.8164 165.789 27.8164C165.93 27.7695 166.023 27.7461 166.07 27.7461C166.281 27.7461 166.539 27.9336 166.844 28.3086ZM144.238 21.4531C144.496 21.4531 144.742 21.5234 144.977 21.6641C144.039 20.6328 143.113 19.4727 142.199 18.1836L135.062 18.5352C134.43 19.543 133.656 20.5977 132.742 21.6992C133.023 21.7695 133.387 21.875 133.832 22.0156L144.027 21.4531H144.238ZM121.809 29.3633C121.809 29.1523 122.066 28.8594 122.582 28.4844C126.848 25.6016 130.188 22.332 132.602 18.6758L126.133 18.9922L125.289 19.0273C125.078 19.0273 124.926 19.0156 124.832 18.9922C124.621 18.9922 124.457 18.9336 124.34 18.8164C123.801 18.3711 123.473 17.8672 123.355 17.3047C123.332 17.2578 123.32 17.1992 123.32 17.1289C123.32 16.9648 123.391 16.8828 123.531 16.8828L123.707 16.918C124.176 17.0352 124.668 17.0938 125.184 17.0938H125.465L133.797 16.6719L134.008 16.2852C134.383 15.6055 134.781 14.75 135.203 13.7188L132.074 13.8945C131.863 13.918 131.594 13.9297 131.266 13.9297C130.773 13.9297 130.375 13.8008 130.07 13.543C129.766 13.2852 129.555 13.0156 129.438 12.7344C129.32 12.4297 129.262 12.2305 129.262 12.1367C129.262 12.0195 129.332 11.9609 129.473 11.9609L129.648 11.9961C130.07 12.0664 130.504 12.1016 130.949 12.1016H131.406L135.871 11.8203C136.082 11.2344 136.316 10.3906 136.574 9.28906L129.613 9.74609C129.426 9.76953 129.18 9.78125 128.875 9.78125C128.406 9.78125 127.984 9.67578 127.609 9.46484C127.234 9.25391 126.918 8.80859 126.66 8.12891L126.625 7.91797C126.625 7.75391 126.719 7.67188 126.906 7.67188L127.082 7.70703C127.738 7.80078 128.242 7.84766 128.594 7.84766H128.945L136.926 7.35547C137.137 6.23047 137.242 5.45703 137.242 5.03516C137.242 4.56641 137.16 4.15625 136.996 3.80469C136.926 3.61719 136.891 3.48828 136.891 3.41797C136.891 3.20703 137.031 3.10156 137.312 3.10156C137.664 3.10156 138.145 3.19531 138.754 3.38281C139.387 3.57031 139.703 3.89844 139.703 4.36719L139.668 4.71875C139.551 5.49219 139.41 6.32422 139.246 7.21484L146.383 6.75781C146.641 6.73438 147.121 6.61719 147.824 6.40625C147.965 6.35938 148.059 6.33594 148.105 6.33594C148.434 6.33594 148.832 6.55859 149.301 7.00391C149.793 7.42578 150.039 7.76562 150.039 8.02344C150.039 8.28125 149.781 8.43359 149.266 8.48047L138.859 9.14844C138.789 9.45312 138.578 10.2969 138.227 11.6797L143.816 11.3633C144.332 11.3164 144.777 11.2344 145.152 11.1172C145.293 11.0703 145.398 11.0469 145.469 11.0469C145.75 11.0469 146.113 11.2461 146.559 11.6445C147.027 12.043 147.262 12.3594 147.262 12.5938C147.262 12.7344 146.617 12.875 145.328 13.0156C144.062 13.1562 141.484 13.3438 137.594 13.5781C137.242 14.5156 136.797 15.5117 136.258 16.5664L150.215 15.8633C150.73 15.8398 151.234 15.7344 151.727 15.5469C151.773 15.5234 151.867 15.5117 152.008 15.5117C152.242 15.5117 152.5 15.6172 152.781 15.8281C153.086 16.0391 153.344 16.2852 153.555 16.5664C153.766 16.8242 153.871 17.0117 153.871 17.1289C153.871 17.4102 153.602 17.5742 153.062 17.6211L144.484 18.043C145.914 19.8477 147.461 21.4297 149.125 22.7891C150.789 24.1484 152.676 25.3203 154.785 26.3047C155.254 26.5156 155.488 26.7031 155.488 26.8672C155.488 26.9844 155.371 27.1719 155.137 27.4297C154.926 27.6641 154.668 27.8867 154.363 28.0977C154.082 28.2852 153.824 28.3789 153.59 28.3789C153.426 28.3789 152.945 28.1562 152.148 27.7109C151.375 27.2656 150.426 26.6094 149.301 25.7422C148.199 24.875 147.062 23.832 145.891 22.6133C145.914 22.6602 145.926 22.7188 145.926 22.7891C145.926 22.8594 145.891 22.9766 145.82 23.1406C145.773 23.2812 145.75 23.3984 145.75 23.4922L145.258 31.2969C145.867 32.0703 146.172 32.6094 146.172 32.9141C146.172 33.1016 146.078 33.2188 145.891 33.2656C145.727 33.3125 145.469 33.3359 145.117 33.3359L134.324 33.6172L134.359 34.4961V34.6016C134.359 35.0703 134.137 35.3047 133.691 35.3047C133.387 35.3047 133.023 35.1875 132.602 34.9531C132.18 34.7188 131.969 34.3672 131.969 33.8984V33.7578C131.969 33.5234 131.992 33.1953 132.039 32.7734C132.086 32.3516 132.109 32.0352 132.109 31.8242V31.5078L131.617 23.8438C131.617 23.7031 131.605 23.5742 131.582 23.457C131.559 23.3398 131.535 23.2227 131.512 23.1055C130.223 24.4648 128.898 25.625 127.539 26.5859C126.203 27.5469 125.02 28.2852 123.988 28.8008C122.98 29.3164 122.359 29.5742 122.125 29.5742C121.914 29.5742 121.809 29.5039 121.809 29.3633ZM133.938 26.6914L143.359 26.3398L143.465 23.457L133.797 23.9141L133.938 26.6914ZM134.219 31.6133L143.148 31.4023L143.289 28.2031L134.043 28.5547L134.219 31.6133Z" fill="#333333"/>
<path d="M219.121 14.3867C218.957 14.3867 218.781 14.2812 218.594 14.0703C218.453 13.9062 218.359 13.7773 218.312 13.6836C218.266 13.5664 218.266 13.4141 218.312 13.2266L218.348 12.3828C218.371 12.2188 218.383 11.8203 218.383 11.1875V10.0273L217.328 10.5195L216.098 11.0469C215.793 11.1641 215.477 11.3047 215.148 11.4688C214.867 11.6094 214.621 11.6797 214.41 11.6797C214.246 11.6562 214.059 11.5977 213.848 11.5039C213.637 11.4102 213.473 11.3281 213.355 11.2578C213.098 11.0938 212.98 10.918 213.004 10.7305L213.109 10.3789C213.109 10.1914 213.121 10.0273 213.145 9.88672L213.18 7.84766V5.94922C213.18 5.57422 213.156 5.25781 213.109 5C213.062 4.71875 213.027 4.51953 213.004 4.40234C213.004 4.28516 213.039 4.20312 213.109 4.15625C213.133 4.13281 213.191 4.12109 213.285 4.12109C213.449 4.12109 213.766 4.22656 214.234 4.4375C214.633 4.625 214.797 4.85938 214.727 5.14062C214.68 5.30469 214.633 5.55078 214.586 5.87891L214.48 9.92188C214.48 10.0391 214.492 10.1328 214.516 10.2031C214.562 10.25 214.609 10.2734 214.656 10.2734C214.938 10.2734 215.277 10.1914 215.676 10.0273C216.426 9.79297 217.07 9.55859 217.609 9.32422L218.383 9.00781V6.6875C218.383 5.75 218.324 4.84766 218.207 3.98047C218.184 3.91016 218.172 3.82812 218.172 3.73438C218.172 3.5 218.266 3.38281 218.453 3.38281C218.477 3.38281 218.605 3.42969 218.84 3.52344C219.191 3.71094 219.449 3.875 219.613 4.01562C219.777 4.15625 219.871 4.23828 219.895 4.26172C219.988 4.33203 220.035 4.40234 220.035 4.47266C220.035 4.51953 220.012 4.57812 219.965 4.64844C219.941 4.71875 219.918 4.77734 219.895 4.82422L219.789 5.87891L219.754 9.11328L219.789 12.2422C219.789 12.7812 219.754 13.25 219.684 13.6484C219.566 14.1406 219.379 14.3867 219.121 14.3867ZM212.652 20.1523C212.395 20.1523 212.078 19.9531 211.703 19.5547C211.422 19.2734 211.281 19.0625 211.281 18.9219C211.281 18.8516 211.328 18.8164 211.422 18.8164C211.516 18.793 211.633 18.7812 211.773 18.7812L212.547 18.7461C212.992 18.7461 213.285 18.7344 213.426 18.7109C213.871 18.7109 214.246 18.6992 214.551 18.6758C216.566 18.4883 217.926 18.3359 218.629 18.2188C218.98 18.1719 219.297 18.125 219.578 18.0781C219.859 18.0078 220.082 17.9727 220.246 17.9727C220.574 17.9727 220.902 18.1367 221.23 18.4648C221.488 18.7227 221.617 18.9336 221.617 19.0977C221.617 19.2383 221.535 19.332 221.371 19.3789C221.254 19.4023 220.562 19.4492 219.297 19.5195C218.594 19.543 217.727 19.6016 216.695 19.6953C215.664 19.7891 214.762 19.8828 213.988 19.9766C213.848 20 213.648 20.0352 213.391 20.082C213.133 20.1289 212.887 20.1523 212.652 20.1523ZM217.363 34.6719C216.637 34.6719 216.074 34.6484 215.676 34.6016C215.301 34.5547 214.984 34.4141 214.727 34.1797C214.281 33.8516 213.977 33.1367 213.812 32.0352L213.707 30.9102C213.707 30.6289 213.684 30.2773 213.637 29.8555C213.262 29.9023 212.992 29.9492 212.828 29.9961C212.781 30.0195 212.699 30.0547 212.582 30.1016C212.488 30.125 212.418 30.1367 212.371 30.1367C212.207 30.1367 212.055 30.0898 211.914 29.9961C211.773 29.9023 211.598 29.7266 211.387 29.4688C211.223 29.2578 211.141 29.1172 211.141 29.0469C211.141 28.9766 211.223 28.9297 211.387 28.9062C211.551 28.8828 211.773 28.8711 212.055 28.8711C212.453 28.8711 212.969 28.8242 213.602 28.7305L213.566 28.2383C213.566 27.3008 213.508 26.5039 213.391 25.8477L213.355 25.6016C213.355 25.2734 213.484 25.1445 213.742 25.2148C214.023 25.3086 214.281 25.4258 214.516 25.5664C214.703 25.6602 214.832 25.7539 214.902 25.8477C214.973 25.918 214.996 26.0234 214.973 26.1641L214.867 27.6758V28.5898L217.961 28.2734C217.961 28.1094 217.973 27.7227 217.996 27.1133C218.02 26.4805 218.02 26.0703 217.996 25.8828C217.996 25.6953 217.973 25.5195 217.926 25.3555C217.902 25.168 217.879 25.0156 217.855 24.8984C217.855 24.7109 217.949 24.6172 218.137 24.6172C218.324 24.6172 218.559 24.7227 218.84 24.9336C219.168 25.1445 219.379 25.332 219.473 25.4961C219.59 25.6602 219.613 25.8594 219.543 26.0938C219.426 26.4688 219.344 26.8906 219.297 27.3594C219.25 27.8281 219.227 28.1094 219.227 28.2031C219.508 28.1797 219.766 28.1445 220 28.0977C220.234 28.0508 220.387 28.0273 220.457 28.0273C220.645 27.9805 220.867 27.957 221.125 27.957C221.266 27.9805 221.465 28.1211 221.723 28.3789C221.934 28.6602 222.039 28.8828 222.039 29.0469C222.039 29.2812 221.816 29.375 221.371 29.3281C220.973 29.2578 220.574 29.2227 220.176 29.2227C219.777 29.2227 219.438 29.2344 219.156 29.2578C219.086 30.1016 218.945 30.9336 218.734 31.7539C218.688 31.9414 218.605 32.0938 218.488 32.2109C218.371 32.3516 218.266 32.4219 218.172 32.4219C218.008 32.4219 217.902 32.3516 217.855 32.2109C217.832 32.0938 217.82 31.8945 217.82 31.6133C217.867 31.0039 217.891 30.2422 217.891 29.3281C217.258 29.375 216.766 29.4219 216.414 29.4688C215.875 29.5859 215.371 29.6562 214.902 29.6797C214.879 30.6406 214.926 31.4961 215.043 32.2461C215.113 32.7383 215.254 33.0781 215.465 33.2656C215.605 33.3828 215.77 33.4531 215.957 33.4766C216.168 33.5 216.379 33.5117 216.59 33.5117C216.801 33.5117 216.941 33.5117 217.012 33.5117C217.738 33.5117 218.418 33.4766 219.051 33.4062C219.238 33.3828 219.402 33.3359 219.543 33.2656C219.707 33.1953 219.824 33.1602 219.895 33.1602C220.105 33.1602 220.316 33.2305 220.527 33.3711C220.738 33.5117 220.844 33.6758 220.844 33.8633C220.844 34.0508 220.738 34.1914 220.527 34.2852C220.34 34.3789 220.035 34.4609 219.613 34.5312C218.863 34.625 218.113 34.6719 217.363 34.6719ZM227.383 18.6758C227.664 18.6758 227.805 18.8047 227.805 19.0625C227.805 19.2031 227.676 19.4023 227.418 19.6602C226.715 20.5273 225.32 22.1797 223.234 24.6172C223.07 24.8281 222.918 24.9336 222.777 24.9336C222.66 24.9336 222.402 24.7578 222.004 24.4062C221.676 24.125 221.512 23.8906 221.512 23.7031C221.512 23.4922 221.688 23.293 222.039 23.1055C222.578 22.8008 223.387 22.1914 224.465 21.2773C225.543 20.3164 226.34 19.5547 226.855 18.9922C227.066 18.7812 227.242 18.6758 227.383 18.6758ZM182.699 30.1719C184.785 29.5156 186.648 28.8008 188.289 28.0273C187.938 27.5352 187.492 26.9727 186.953 26.3398C186.766 26.1055 186.672 25.918 186.672 25.7773C186.672 25.5195 186.824 25.2969 187.129 25.1094C187.434 24.8984 187.668 24.793 187.832 24.793C188.02 24.793 188.219 24.9102 188.43 25.1445C189.766 26.7148 190.902 28.0977 191.84 29.293C192.777 30.4883 193.246 31.2148 193.246 31.4727C193.246 31.6836 193.082 31.9297 192.754 32.2109C192.449 32.5156 192.156 32.668 191.875 32.668C191.641 32.668 191.406 32.4805 191.172 32.1055C190.633 31.2852 190.023 30.3945 189.344 29.4336L185.125 31.543C184.656 31.7539 183.918 32.1289 182.91 32.668C182.066 33.1133 181.551 33.3359 181.363 33.3359C181.223 33.3359 181.047 33.2422 180.836 33.0547C180.625 32.8906 180.461 32.6797 180.344 32.4219C180.25 32.1875 180.25 32 180.344 31.8594C180.484 31.6016 180.555 30.5703 180.555 28.7656V16.6016C180.555 16.0391 180.531 15.582 180.484 15.2305C180.461 14.8789 180.367 14.5039 180.203 14.1055C180.18 14.0352 180.156 13.9766 180.133 13.9297C180.109 13.8828 180.098 13.8359 180.098 13.7891C180.098 13.6719 180.18 13.6133 180.344 13.6133C180.648 13.6133 181.41 13.8711 182.629 14.3867L190.258 13.8594C190.445 13.8359 190.656 13.8242 190.891 13.8242C191.148 13.8242 191.453 13.9414 191.805 14.1758C192.156 14.3867 192.332 14.6211 192.332 14.8789C192.332 14.9727 192.273 15.1133 192.156 15.3008C192.062 15.4883 192.016 15.6289 192.016 15.7227L191.102 22.332C191.664 22.9883 191.945 23.4336 191.945 23.668C191.945 23.7852 191.875 23.8672 191.734 23.9141C191.617 23.9609 191.43 23.9844 191.172 23.9844L182.664 24.3008L182.699 30.1719ZM176.934 14.3867C176.934 14.1523 177.086 13.8711 177.391 13.543C179.102 11.6445 180.59 9.75781 181.855 7.88281C183.121 6.00781 183.754 4.75391 183.754 4.12109L183.719 3.875V3.76953C183.719 3.44141 183.848 3.27734 184.105 3.27734C184.41 3.27734 184.832 3.48828 185.371 3.91016C185.934 4.30859 186.215 4.63672 186.215 4.89453C186.215 5.01172 186.156 5.16406 186.039 5.35156C185.688 5.91406 185.301 6.47656 184.879 7.03906L189.871 6.65234C190.293 6.62891 190.738 6.53516 191.207 6.37109C191.348 6.32422 191.453 6.30078 191.523 6.30078C191.875 6.30078 192.25 6.5 192.648 6.89844C193.07 7.27344 193.281 7.56641 193.281 7.77734C193.281 8.05859 193.023 8.22266 192.508 8.26953L186.496 8.69141C186.66 8.73828 187.023 8.98438 187.586 9.42969C188.172 9.875 188.699 10.332 189.168 10.8008C189.637 11.2695 189.871 11.5977 189.871 11.7852C189.871 11.9961 189.73 12.2539 189.449 12.5586C189.168 12.8398 188.922 12.9805 188.711 12.9805C188.523 12.9805 188.301 12.8281 188.043 12.5234C187.246 11.6562 186.438 10.8945 185.617 10.2383C185.336 10.0039 185.195 9.80469 185.195 9.64062C185.195 9.52344 185.254 9.37109 185.371 9.18359C185.488 8.99609 185.641 8.84375 185.828 8.72656L183.473 8.90234C182.348 10.2852 181.105 11.5859 179.746 12.8047C178.387 14 177.52 14.5977 177.145 14.5977C177.004 14.5977 176.934 14.5273 176.934 14.3867ZM189.59 18.043L189.836 15.582L182.594 16.0742V18.3945L189.59 18.043ZM189.133 22.4023L189.414 19.6953L182.629 20.0117V22.6484L189.133 22.4023ZM191.031 12.875C191.031 12.6406 191.184 12.3594 191.488 12.0312C192.637 10.6484 193.68 9.08984 194.617 7.35547C195.578 5.59766 196.059 4.36719 196.059 3.66406V3.52344C196.059 3.17188 196.188 2.99609 196.445 2.99609C196.609 2.99609 196.855 3.08984 197.184 3.27734C197.535 3.44141 197.852 3.64062 198.133 3.875C198.414 4.10938 198.555 4.34375 198.555 4.57812C198.555 4.78906 198.391 5.16406 198.062 5.70312C197.734 6.24219 197.559 6.52344 197.535 6.54688L204.461 5.98438C204.977 5.9375 205.422 5.85547 205.797 5.73828C205.844 5.71484 205.938 5.70312 206.078 5.70312C206.406 5.70312 206.758 5.89062 207.133 6.26562C207.531 6.61719 207.73 6.91016 207.73 7.14453C207.73 7.28516 207.66 7.40234 207.52 7.49609C207.402 7.56641 207.238 7.61328 207.027 7.63672L199.891 8.12891C200.547 8.55078 201.32 9.17188 202.211 9.99219C203.102 10.7891 203.547 11.3281 203.547 11.6094C203.547 11.7734 203.418 12.0312 203.16 12.3828C202.902 12.7109 202.656 12.875 202.422 12.875C202.234 12.875 202.035 12.7578 201.824 12.5234C200.676 11.2812 199.633 10.2969 198.695 9.57031C198.461 9.38281 198.344 9.20703 198.344 9.04297C198.344 8.85547 198.52 8.57422 198.871 8.19922L196.27 8.375C195.496 9.40625 194.559 10.4492 193.457 11.5039C192.379 12.5586 191.652 13.0859 191.277 13.0859C191.113 13.0859 191.031 13.0156 191.031 12.875ZM194.336 13.6484C194.336 13.5078 194.418 13.4375 194.582 13.4375C194.934 13.4375 195.73 13.7305 196.973 14.3164L204.039 13.7188L204.32 13.6836C204.414 13.6836 204.59 13.7305 204.848 13.8242C205.129 13.8945 205.387 14.0234 205.621 14.2109C205.879 14.375 206.008 14.5977 206.008 14.8789C206.008 14.9727 205.973 15.1016 205.902 15.2656C205.832 15.4297 205.797 15.5469 205.797 15.6172C205.773 18.1953 205.609 20.9492 205.305 23.8789L205.234 24.7578C205.164 25.7422 205.07 26.5625 204.953 27.2188C204.836 27.875 204.637 28.3906 204.355 28.7656C203.91 29.375 203.43 29.6797 202.914 29.6797C202.398 29.6797 201.742 29.3633 200.945 28.7305C200.148 28.0977 199.41 27.4062 198.73 26.6562C198.074 25.9062 197.746 25.4258 197.746 25.2148C197.746 25.0508 197.84 24.9688 198.027 24.9688C198.238 24.9688 198.531 25.0859 198.906 25.3203C199.773 25.8594 200.5 26.293 201.086 26.6211C201.672 26.9492 202.094 27.1133 202.352 27.1133C202.469 27.1133 202.551 27.0312 202.598 26.8672C203.137 23.8672 203.465 20.1055 203.582 15.582L196.973 16.0742C196.973 20.0352 197.008 26.3164 197.078 34.918C197.078 35.1289 197.02 35.2812 196.902 35.375C196.809 35.4922 196.68 35.5508 196.516 35.5508C196.328 35.5508 196.105 35.4805 195.848 35.3398C195.402 35.1523 195.086 34.9766 194.898 34.8125C194.711 34.6484 194.617 34.4609 194.617 34.25L194.652 34.0039C194.793 33.2305 194.863 32.3633 194.863 31.4023L194.758 16.5664C194.758 15.957 194.734 15.4883 194.688 15.1602C194.664 14.832 194.594 14.5156 194.477 14.2109C194.383 13.9297 194.336 13.7422 194.336 13.6484Z" fill="#333333"/>
<path d="M167.188 71.2812C166.875 71.2812 166.573 71.0521 166.281 70.5938C165.906 70.0104 165.542 69.5312 165.188 69.1562L164.375 68.3125C163.938 68.8125 163.552 69.2083 163.219 69.5C162.906 69.7917 162.51 70.0729 162.031 70.3438C161.135 70.8646 160.385 71.125 159.781 71.125C159.635 71.125 159.562 71.0729 159.562 70.9688C159.562 70.9062 159.76 70.7708 160.156 70.5625C160.552 70.3542 160.927 70.1042 161.281 69.8125C162.177 69.0625 162.917 68.2917 163.5 67.5C163.375 67.375 162.75 66.8333 161.625 65.875C161.479 65.7708 161.26 65.5938 160.969 65.3438C160.906 65.3021 160.781 65.2083 160.594 65.0625C160.406 64.9167 160.312 64.8125 160.312 64.75C160.312 64.6458 160.365 64.5938 160.469 64.5938C160.781 64.5938 161.281 64.8125 161.969 65.25C162.656 65.6667 163.375 66.1667 164.125 66.75C164.417 66.3958 164.646 66.0625 164.812 65.75C164.979 65.4375 165.167 65.0521 165.375 64.5938C165.479 64.3646 165.542 64.1667 165.562 64C165.583 63.8125 165.594 63.6979 165.594 63.6562C165.594 63.4271 165.656 63.3125 165.781 63.3125C165.927 63.3125 166.125 63.4271 166.375 63.6562C166.812 64.0729 167.031 64.3542 167.031 64.5C167.031 64.5833 166.979 64.6771 166.875 64.7812C166.625 65.0312 166.396 65.3646 166.188 65.7812C166.062 66.0312 165.833 66.3854 165.5 66.8438C165.396 66.9688 165.312 67.0833 165.25 67.1875C165.188 67.2917 165.125 67.3854 165.062 67.4688C165.542 67.8229 166.25 68.4271 167.188 69.2812C167.417 69.4896 167.562 69.6875 167.625 69.875C167.708 70.0417 167.75 70.2708 167.75 70.5625C167.75 70.7708 167.698 70.9479 167.594 71.0938C167.49 71.2188 167.354 71.2812 167.188 71.2812ZM166.438 82.625C166.354 82.625 166.26 82.5938 166.156 82.5312C166.052 82.4479 165.917 82.3333 165.75 82.1875C165.021 81.625 164.312 80.7812 163.625 79.6562C162.938 78.5312 162.448 77.3125 162.156 76C162.135 75.875 162.104 75.7292 162.062 75.5625C162.021 75.3958 161.979 75.2708 161.938 75.1875C161.938 75.1667 161.906 75.1562 161.844 75.1562C161.698 75.1562 161.417 75.25 161 75.4375C160.875 75.5 160.75 75.5938 160.625 75.7188C160.521 75.8229 160.406 75.8646 160.281 75.8438C160.198 75.8438 160.083 75.7917 159.938 75.6875C159.792 75.5833 159.688 75.4896 159.625 75.4062C159.417 75.1146 159.312 74.9375 159.312 74.875C159.312 74.75 159.427 74.6771 159.656 74.6562C159.969 74.6562 160.167 74.6458 160.25 74.625C160.854 74.5417 161.427 74.4062 161.969 74.2188C162.052 74.1979 162.167 74.1354 162.312 74.0312C162.333 74.0312 162.365 74.0208 162.406 74C162.469 73.9792 162.542 74 162.625 74.0625C162.938 74.2708 163.094 74.4271 163.094 74.5312C163.094 75.9896 163.51 77.3542 164.344 78.625C165.177 79.8958 166.396 80.9688 168 81.8438C168.083 81.8854 168.188 81.9271 168.312 81.9688C168.438 82.0104 168.5 82.0729 168.5 82.1562C168.5 82.2604 168.156 82.3542 167.469 82.4375L166.688 82.5625L166.438 82.625ZM173.562 68.7188C173.812 68.7188 173.938 68.8333 173.938 69.0625C173.938 69.1875 173.823 69.3646 173.594 69.5938C172.969 70.3646 171.729 71.8333 169.875 74C169.729 74.1875 169.594 74.2812 169.469 74.2812C169.365 74.2812 169.135 74.125 168.781 73.8125C168.49 73.5625 168.344 73.3542 168.344 73.1875C168.344 73 168.5 72.8229 168.812 72.6562C169.292 72.3854 170.01 71.8438 170.969 71.0312C171.927 70.1771 172.635 69.5 173.094 69C173.281 68.8125 173.438 68.7188 173.562 68.7188ZM132.719 86.4688C132.719 87.0104 132.562 87.2812 132.25 87.2812C131.958 87.2812 131.615 87.1458 131.219 86.875C130.823 86.625 130.625 86.2917 130.625 85.875C130.625 85.7083 130.635 85.5729 130.656 85.4688C130.76 84.9896 130.812 84.3125 130.812 83.4375V62.25C130.812 61.6458 130.677 61.0833 130.406 60.5625C130.281 60.3125 130.219 60.125 130.219 60C130.219 59.875 130.312 59.8125 130.5 59.8125C130.812 59.8125 131.562 60.0208 132.75 60.4375L152.688 59.4375H152.969C153.385 59.4375 153.76 59.5625 154.094 59.8125C154.427 60.0417 154.594 60.3021 154.594 60.5938C154.594 60.6771 154.562 60.7917 154.5 60.9375C154.438 61.0625 154.406 61.1562 154.406 61.2188L154.312 83.3125C154.979 84.0417 155.312 84.5312 155.312 84.7812C155.312 84.9062 155.24 84.9896 155.094 85.0312C154.969 85.0729 154.812 85.0938 154.625 85.0938C154.438 85.1146 154.302 85.125 154.219 85.125L132.719 85.625V86.4688ZM132.719 83.9062L152.406 83.375L152.469 61.1562L132.656 62.0625L132.719 83.9062ZM133.562 67.4062C133.562 67.2812 133.646 67.2188 133.812 67.2188C133.917 67.2188 134 67.2292 134.062 67.25C134.375 67.3333 134.708 67.375 135.062 67.375H135.375L139.844 67.125L140.25 65.5625L138.094 65.6875H137.625C137.229 65.6875 136.948 65.6354 136.781 65.5312C136.552 65.3854 136.365 65.1771 136.219 64.9062C136.094 64.6146 136.031 64.3854 136.031 64.2188C136.031 64.1354 136.094 64.0938 136.219 64.0938L136.5 64.1562C136.896 64.2396 137.323 64.2812 137.781 64.2812H138.188L140.594 64.125L140.688 63.625C140.729 63.4583 140.75 63.3229 140.75 63.2188C140.75 63.1354 140.708 62.8854 140.625 62.4688L140.594 62.3438C140.594 62.1771 140.708 62.0938 140.938 62.0938C141.125 62.0938 141.469 62.1771 141.969 62.3438C142.469 62.5104 142.719 62.6979 142.719 62.9062C142.719 63.0104 142.708 63.0833 142.688 63.125L142.469 64.0312L146.469 63.7812C146.531 63.7604 146.625 63.75 146.75 63.75C147.062 63.75 147.354 63.8646 147.625 64.0938C147.896 64.3021 148.031 64.5 148.031 64.6875C148.031 64.7917 147.99 64.9062 147.906 65.0312C147.823 65.1354 147.781 65.2188 147.781 65.2812L147.438 66.75L148.375 66.6875C148.75 66.6667 149.146 66.5938 149.562 66.4688C149.688 66.4271 149.792 66.4062 149.875 66.4062C150.188 66.4062 150.5 66.5625 150.812 66.875C151.146 67.1875 151.312 67.4271 151.312 67.5938C151.312 67.8438 151.01 67.9896 150.406 68.0312L135.531 68.8125H135.188C134.792 68.8125 134.469 68.7083 134.219 68.5C133.99 68.2917 133.823 68.0729 133.719 67.8438C133.615 67.6146 133.562 67.4688 133.562 67.4062ZM134.312 75.8125C134.312 75.6875 134.375 75.625 134.5 75.625C134.542 75.625 134.646 75.6458 134.812 75.6875C135.125 75.7708 135.458 75.8125 135.812 75.8125H136.094L142.031 75.5312L142.062 74.0625L139.062 74.1875V74.375C139.062 74.7292 138.896 74.9062 138.562 74.9062C138.312 74.9062 138.01 74.8229 137.656 74.6562C137.323 74.4896 137.156 74.2917 137.156 74.0625L137.188 73.875C137.208 73.75 137.219 73.5729 137.219 73.3438C137.219 73.1562 137.208 73.0312 137.188 72.9688L137 71.375C136.979 71.0625 136.865 70.6771 136.656 70.2188C136.552 69.9688 136.5 69.8021 136.5 69.7188C136.5 69.5729 136.604 69.5 136.812 69.5C137.125 69.5 137.708 69.6458 138.562 69.9375L146.688 69.5H146.969C147.219 69.5 147.479 69.6042 147.75 69.8125C148.042 70 148.188 70.1979 148.188 70.4062C148.188 70.4896 148.146 70.5833 148.062 70.6875C148 70.7708 147.958 70.8438 147.938 70.9062L147.469 72.5938C147.906 73.0312 148.125 73.3438 148.125 73.5312C148.125 73.6354 148.062 73.7083 147.938 73.75C147.833 73.7708 147.677 73.7917 147.469 73.8125L143.781 73.9688V75.4375L147.219 75.2812C147.531 75.2604 147.865 75.2083 148.219 75.125C148.385 75.0833 148.521 75.0625 148.625 75.0625C148.833 75.0625 149.042 75.1458 149.25 75.3125C149.458 75.4583 149.635 75.6354 149.781 75.8438C149.927 76.0312 150 76.1667 150 76.25C150 76.4583 149.74 76.5833 149.219 76.625L143.781 76.875V78.8125L148.25 78.5938C148.646 78.5521 148.969 78.4896 149.219 78.4062C149.26 78.3854 149.344 78.375 149.469 78.375C149.573 78.375 149.75 78.4375 150 78.5625C150.25 78.6667 150.469 78.8125 150.656 79C150.865 79.1667 150.969 79.3438 150.969 79.5312C150.969 79.7812 150.698 79.9271 150.156 79.9688L143.781 80.2188V82.5938C143.781 83.0312 143.625 83.25 143.312 83.25C143.083 83.25 142.771 83.1458 142.375 82.9375C142 82.7292 141.812 82.4792 141.812 82.1875L141.844 82C141.885 81.7292 141.938 81.1667 142 80.3125L138.125 80.4688C137.917 80.4896 137.729 80.5208 137.562 80.5625C137.396 80.5833 137.24 80.5938 137.094 80.5938C136.906 80.5938 136.677 80.5104 136.406 80.3438C136.135 80.1562 136 79.9271 136 79.6562C136 79.5938 136.042 79.3958 136.125 79.0625L136.438 78.2812C136.521 78.0938 136.562 77.9062 136.562 77.7188C136.562 77.6146 136.542 77.4792 136.5 77.3125L136.469 77.2188H136.312L135.75 77.25C135.292 77.25 134.938 77.0833 134.688 76.75C134.438 76.3958 134.312 76.0833 134.312 75.8125ZM137.812 77.1562C138.229 77.3229 138.438 77.5312 138.438 77.7812L138.375 78.0312L137.938 79.0625L142 78.875L142.031 76.9688L137.812 77.1562ZM138.906 72.8438L145.781 72.5312L146.094 70.875L138.719 71.2812L138.906 72.8438ZM145.625 66.8438L145.969 65.2188L142.094 65.4375L141.656 67.0312L145.625 66.8438Z" fill="#333333"/>
<path d="M212.531 72C212.198 72 211.99 71.9062 211.906 71.7188C211.802 71.4688 211.698 71.2604 211.594 71.0938C211.49 70.9062 211.302 70.6875 211.031 70.4375L211.094 70.3125C211.844 70.5833 212.333 70.7188 212.562 70.7188C212.729 70.7188 212.854 70.6875 212.938 70.625C213.021 70.5625 213.156 70.4167 213.344 70.1875C213.615 69.8958 213.865 69.4479 214.094 68.8438C214.406 67.9479 214.604 67.0208 214.688 66.0625V65.9688C214.688 65.8438 214.667 65.7604 214.625 65.7188C214.354 65.7188 213.635 65.7812 212.469 65.9062C211.823 67.5104 211.073 68.8333 210.219 69.875C209.385 70.8958 208.625 71.4062 207.938 71.4062C207.771 71.4062 207.688 71.3438 207.688 71.2188C207.688 71.1771 207.896 70.9375 208.312 70.5C208.729 70.0625 209.188 69.4896 209.688 68.7812C210.208 68.0521 210.698 67.1562 211.156 66.0938C211.052 66.0938 210.75 66.1146 210.25 66.1562C209.75 66.1979 209.323 66.2708 208.969 66.375C208.802 66.5 208.625 66.5208 208.438 66.4375C208.438 66.4375 208.417 66.4271 208.375 66.4062C208.333 66.3854 208.292 66.3542 208.25 66.3125C208.104 66.2292 207.979 66.125 207.875 66C207.792 65.8542 207.75 65.7188 207.75 65.5938C207.75 65.5312 207.802 65.4479 207.906 65.3438L208.281 64.8438C208.406 64.6771 208.521 64.4375 208.625 64.125C208.729 63.7917 208.781 63.5104 208.781 63.2812C208.781 63.1354 208.771 63.0417 208.75 63C208.729 62.9583 208.719 62.9062 208.719 62.8438C208.719 62.7396 208.771 62.6875 208.875 62.6875C209 62.6875 209.177 62.7604 209.406 62.9062C209.469 62.9479 209.583 63.0312 209.75 63.1562C209.938 63.2604 210.042 63.3854 210.062 63.5312C210.062 63.6771 209.979 63.9167 209.812 64.25L209.406 64.9688C209.365 65.0312 209.344 65.1042 209.344 65.1875C209.344 65.25 209.365 65.3021 209.406 65.3438C209.469 65.3646 209.542 65.3646 209.625 65.3438L211.5 65.0938C211.708 64.5521 211.875 63.9792 212 63.375V63.1875V62.6562C212 62.4271 212.062 62.3333 212.188 62.375C212.458 62.4375 212.677 62.5208 212.844 62.625C213.156 62.8125 213.312 62.9688 213.312 63.0938C213.312 63.1979 213.271 63.375 213.188 63.625C213.125 63.8542 213.073 64.0312 213.031 64.1562C213.01 64.2396 212.917 64.5104 212.75 64.9688C212.812 64.9688 213.198 64.9271 213.906 64.8438L214.219 64.7812C214.281 64.7812 214.396 64.7604 214.562 64.7188C214.604 64.6979 214.656 64.6875 214.719 64.6875C214.969 64.6875 215.125 64.6979 215.188 64.7188C215.271 64.7396 215.396 64.8021 215.562 64.9062C215.75 65.0312 215.875 65.1562 215.938 65.2812C216 65.4062 216.021 65.5521 216 65.7188L215.812 66.75L215.594 67.875C215.594 67.9583 215.521 68.2292 215.375 68.6875C215.229 69.1458 215.062 69.5521 214.875 69.9062C214.521 70.6146 214.104 71.1458 213.625 71.5C213.208 71.8333 212.844 72 212.531 72ZM215.188 82.2188C214.875 82.2188 214.573 81.9896 214.281 81.5312C213.906 80.9479 213.542 80.4688 213.188 80.0938L212.375 79.25C211.938 79.75 211.552 80.1458 211.219 80.4375C210.906 80.7292 210.51 81.0104 210.031 81.2812C209.135 81.8021 208.385 82.0625 207.781 82.0625C207.635 82.0625 207.562 82.0104 207.562 81.9062C207.562 81.8438 207.76 81.7083 208.156 81.5C208.552 81.2917 208.927 81.0417 209.281 80.75C210.177 80 210.917 79.2292 211.5 78.4375C211.375 78.3125 210.75 77.7708 209.625 76.8125C209.479 76.7083 209.26 76.5312 208.969 76.2812C208.906 76.2396 208.781 76.1458 208.594 76C208.406 75.8542 208.312 75.75 208.312 75.6875C208.312 75.5833 208.365 75.5312 208.469 75.5312C208.781 75.5312 209.281 75.75 209.969 76.1875C210.656 76.6042 211.375 77.1042 212.125 77.6875C212.417 77.3333 212.646 77 212.812 76.6875C212.979 76.375 213.167 75.9896 213.375 75.5312C213.479 75.3021 213.542 75.1042 213.562 74.9375C213.583 74.75 213.594 74.6354 213.594 74.5938C213.594 74.3646 213.656 74.25 213.781 74.25C213.927 74.25 214.125 74.3646 214.375 74.5938C214.812 75.0104 215.031 75.2917 215.031 75.4375C215.031 75.5208 214.979 75.6146 214.875 75.7188C214.625 75.9688 214.396 76.3021 214.188 76.7188C214.062 76.9688 213.833 77.3229 213.5 77.7812C213.396 77.9062 213.312 78.0208 213.25 78.125C213.188 78.2292 213.125 78.3229 213.062 78.4062C213.542 78.7604 214.25 79.3646 215.188 80.2188C215.417 80.4271 215.562 80.625 215.625 80.8125C215.708 80.9792 215.75 81.2083 215.75 81.5C215.75 81.7083 215.698 81.8854 215.594 82.0312C215.49 82.1562 215.354 82.2188 215.188 82.2188ZM221.562 68.7188C221.812 68.7188 221.938 68.8333 221.938 69.0625C221.938 69.1875 221.823 69.3646 221.594 69.5938C220.969 70.3646 219.729 71.8333 217.875 74C217.729 74.1875 217.594 74.2812 217.469 74.2812C217.365 74.2812 217.135 74.125 216.781 73.8125C216.49 73.5625 216.344 73.3542 216.344 73.1875C216.344 73 216.5 72.8229 216.812 72.6562C217.292 72.3854 218.01 71.8438 218.969 71.0312C219.927 70.1771 220.635 69.5 221.094 69C221.281 68.8125 221.438 68.7188 221.562 68.7188ZM195.656 68.2812C195.656 68.5104 195.698 68.6771 195.781 68.7812C195.885 68.8854 196.083 68.9479 196.375 68.9688L197.094 69C198.052 69 198.771 68.9688 199.25 68.9062C199.729 68.8229 200.146 68.7188 200.5 68.5938C200.688 68.5312 200.833 68.5 200.938 68.5C201.125 68.5 201.354 68.625 201.625 68.875C201.896 69.125 202.031 69.3438 202.031 69.5312C202.031 69.7812 201.729 69.9479 201.125 70.0312C199.479 70.2188 198.125 70.3125 197.062 70.3125L196.031 70.2812C195.344 70.2396 194.833 70.0938 194.5 69.8438C194.167 69.5938 194 69.1875 194 68.625V68.0625L192.531 68.2188C192.365 68.2396 192.135 68.25 191.844 68.25C191.49 68.25 191.25 68.1875 191.125 68.0625C190.896 67.8333 190.74 67.625 190.656 67.4375C190.573 67.2292 190.531 67.0833 190.531 67C190.531 66.9375 190.583 66.9062 190.688 66.9062L190.906 66.9375C191.281 66.9792 191.542 67 191.688 67L192.25 66.9688L194.031 66.8125L194.062 65.3125L189.844 65.5312C189.802 69.3854 189.688 72.5312 189.5 74.9688C189.354 76.7812 188.948 78.5208 188.281 80.1875C187.615 81.8333 186.896 83.1771 186.125 84.2188C185.354 85.2812 184.812 85.8125 184.5 85.8125C184.354 85.8125 184.281 85.7083 184.281 85.5C184.281 85.2083 184.406 84.8854 184.656 84.5312C185.51 83.1771 186.167 81.7708 186.625 80.3125C187.104 78.8333 187.438 77.0938 187.625 75.0938C187.833 73.0729 187.938 70.5312 187.938 67.4688V66.625C187.938 65.9792 187.906 65.4688 187.844 65.0938C187.802 64.7188 187.719 64.3438 187.594 63.9688C187.552 63.8854 187.531 63.7812 187.531 63.6562C187.531 63.5104 187.615 63.4375 187.781 63.4375C188.135 63.4375 188.854 63.6667 189.938 64.125L194.125 63.875V60.5312C194.125 59.9896 194.01 59.5417 193.781 59.1875C193.698 59.0833 193.656 58.9792 193.656 58.875C193.656 58.7292 193.781 58.6562 194.031 58.6562C194.385 58.6562 194.781 58.7292 195.219 58.875C195.656 59.0208 195.875 59.2917 195.875 59.6875L195.844 61.0938L199.188 60.875C199.646 60.8333 199.99 60.7708 200.219 60.6875C200.385 60.6458 200.49 60.625 200.531 60.625C200.76 60.625 201.031 60.7708 201.344 61.0625C201.677 61.3542 201.844 61.6042 201.844 61.8125C201.844 62 201.583 62.1146 201.062 62.1562L195.844 62.5L195.812 63.7812L202.938 63.375H203.219C203.573 63.375 203.885 63.5104 204.156 63.7812C204.448 64.0312 204.594 64.2292 204.594 64.375C204.594 64.5208 204.51 64.6875 204.344 64.875C204.177 65.0417 204.052 65.1667 203.969 65.25C203.51 65.8542 202.969 66.4688 202.344 67.0938C201.719 67.6979 201.25 68 200.938 68C200.771 68 200.688 67.9167 200.688 67.75C200.688 67.5625 200.812 67.3021 201.062 66.9688C201.542 66.3646 201.969 65.6562 202.344 64.8438L195.719 65.2188L195.688 66.6562L197.844 66.4688C198.219 66.4479 198.552 66.3646 198.844 66.2188C198.969 66.1562 199.094 66.125 199.219 66.125C199.385 66.125 199.625 66.25 199.938 66.5C200.271 66.7292 200.438 66.9479 200.438 67.1562C200.438 67.2812 200.333 67.375 200.125 67.4375C200.062 67.4583 199.979 67.4792 199.875 67.5C199.792 67.5208 199.729 67.5312 199.688 67.5312L195.656 67.9062V68.2812ZM175.969 86.4062C175.969 86.1771 176.115 85.875 176.406 85.5C178.073 83.3125 179.302 81.0625 180.094 78.75C180.906 76.4167 181.323 73.875 181.344 71.125L181.438 61.5C181.438 61.0417 181.312 60.625 181.062 60.25C180.979 60.1042 180.938 59.9792 180.938 59.875C180.938 59.7292 181.042 59.6562 181.25 59.6562C181.542 59.6562 181.906 59.7396 182.344 59.9062C182.74 60.0521 183 60.1875 183.125 60.3125C183.25 60.4375 183.312 60.625 183.312 60.875L183.188 68.4375C184.042 67.4792 184.604 66.7292 184.875 66.1875C185.146 65.6458 185.292 65.1875 185.312 64.8125C185.354 64.5625 185.448 64.4375 185.594 64.4375C185.823 64.4375 186.125 64.6146 186.5 64.9688C186.875 65.3021 187.062 65.6146 187.062 65.9062C187.062 66.1771 186.667 66.7917 185.875 67.75C185.104 68.7083 184.198 69.6562 183.156 70.5938V71.0938C183.115 72.5104 183 73.7604 182.812 74.8438C184.917 77.9271 185.969 79.7396 185.969 80.2812C185.969 80.4896 185.885 80.6875 185.719 80.875C185.573 81.0417 185.406 81.1771 185.219 81.2812C185.031 81.3854 184.917 81.4375 184.875 81.4375C184.646 81.4375 184.427 81.1979 184.219 80.7188C183.615 79.3854 182.99 78.1667 182.344 77.0625C181.865 78.8333 181.188 80.4479 180.312 81.9062C179.458 83.3438 178.615 84.4896 177.781 85.3438C176.969 86.1979 176.427 86.625 176.156 86.625C176.031 86.625 175.969 86.5521 175.969 86.4062ZM177.344 66.3125C177.344 65.9167 177.698 65.7188 178.406 65.7188C178.594 65.7188 178.729 65.7708 178.812 65.875C178.896 65.9792 178.969 66.1667 179.031 66.4375C179.427 68.2292 179.708 70.1354 179.875 72.1562V72.4062C179.875 72.6771 179.812 72.8646 179.688 72.9688C179.583 73.0521 179.375 73.1146 179.062 73.1562H178.844C178.552 73.1562 178.354 73.0938 178.25 72.9688C178.146 72.8438 178.083 72.6146 178.062 72.2812C177.958 70.1562 177.74 68.3125 177.406 66.75C177.365 66.5 177.344 66.3542 177.344 66.3125ZM187.25 84.1562C187.25 84.0521 187.312 84 187.438 84C187.542 84 187.635 84.0104 187.719 84.0312C188.052 84.0938 188.521 84.125 189.125 84.125L190.438 84.0938L190.25 81.0312C190.208 80.4271 190.094 79.9583 189.906 79.625C189.76 79.375 189.688 79.1979 189.688 79.0938C189.688 78.9688 189.792 78.9062 190 78.9062C190.292 78.9062 190.906 79.0417 191.844 79.3125L202.031 78.9688H202.375C202.646 78.9688 202.875 79.0417 203.062 79.1875C203.25 79.3125 203.396 79.4583 203.5 79.625C203.604 79.7708 203.656 79.875 203.656 79.9375C203.656 80.0208 203.615 80.125 203.531 80.25C203.448 80.375 203.406 80.4688 203.406 80.5312L202.875 83.8125L203.781 83.7812C204.052 83.7812 204.417 83.7188 204.875 83.5938L205 83.5625C205.104 83.5625 205.229 83.625 205.375 83.75C205.521 83.8542 205.688 84 205.875 84.1875C206.125 84.4792 206.25 84.6979 206.25 84.8438C206.25 84.9688 206.198 85.0625 206.094 85.125C205.99 85.2083 205.865 85.25 205.719 85.25L189.469 85.6562H189.188C188.583 85.6562 188.167 85.5729 187.938 85.4062C187.708 85.2396 187.5 84.9062 187.312 84.4062L187.25 84.1562ZM190.688 71.0312C190.688 70.9271 190.76 70.875 190.906 70.875C191.198 70.875 191.812 71.0521 192.75 71.4062L201.156 71.0312C201.24 71.0104 201.344 71 201.469 71C201.677 71 201.927 71.0938 202.219 71.2812C202.531 71.4479 202.688 71.6354 202.688 71.8438C202.688 71.9271 202.667 72.0104 202.625 72.0938C202.583 72.1562 202.552 72.2083 202.531 72.25L201.906 76.4062C202.323 76.8854 202.531 77.1979 202.531 77.3438C202.531 77.4271 202.469 77.4896 202.344 77.5312C202.219 77.5521 202.104 77.5729 202 77.5938C201.917 77.5938 201.854 77.5938 201.812 77.5938L193.031 77.9062V78.1562C193.031 78.4896 192.885 78.6562 192.594 78.6562C192.365 78.6562 192.083 78.5625 191.75 78.375C191.438 78.1875 191.281 77.9792 191.281 77.75L191.312 77.4688C191.354 77.1771 191.375 76.9271 191.375 76.7188V76.4688L191.188 72.9375C191.146 72.375 191.052 71.9375 190.906 71.625C190.76 71.3333 190.688 71.1354 190.688 71.0312ZM192.094 84.0625L194.156 84L194.094 80.625L191.906 80.6875L192.094 84.0625ZM192.812 74.0625L195.938 73.9062L195.969 72.5312L192.719 72.6562L192.812 74.0625ZM192.938 76.6875L195.875 76.5625L195.906 75.0938L192.875 75.2188L192.938 76.6875ZM195.688 83.9688L197.594 83.9375L197.781 80.5L195.656 80.5625L195.688 83.9688ZM200.375 76.4062L200.531 74.9062L197.375 75.0312L197.344 76.5312L200.375 76.4062ZM200.656 73.7188L200.781 72.3125L197.438 72.4688L197.375 73.8438L200.656 73.7188ZM201.25 83.8438L201.656 80.375L199.281 80.4375L199.094 83.9062L201.25 83.8438Z" fill="#333333"/>
</svg>
