<svg xmlns="http://www.w3.org/2000/svg" width="350" height="88" fill="none"><path fill="#333" d="M158.934 8.2c-.164 0-.082-.141.246-.423l1.195-1.02c.469-.421.996-.972 1.582-1.652.375-.445.656-.914.844-1.406.117-.281.246-.422.387-.422.117 0 .292.094.527.282.469.375.703.691.703.949 0 .164-.094.281-.281.351-.094.024-.235.13-.422.317a9.14 9.14 0 0 0-.422.386c-1.008.985-1.945 1.7-2.813 2.145-.703.328-1.171.492-1.406.492h-.14Zm3.691 6.538c-.07 0-.187-.093-.352-.281a2.99 2.99 0 0 1-.316-.598 2.004 2.004 0 0 1 0-.527c.047-.234.07-.41.07-.527.047-.47.071-.844.071-1.125a5.16 5.16 0 0 0 0-.844v-.598l-.036-.527c-.562.398-.996.68-1.3.844-.68.375-1.172.61-1.477.703-.375.14-.715.21-1.019.21-.164 0-.258-.023-.282-.07-.046-.093.422-.433 1.407-1.02.937-.585 1.957-1.358 3.058-2.32.61-.562 1.078-1.101 1.406-1.617a.77.77 0 0 0 .106-.246c.047-.117.094-.187.141-.21.07-.024.164-.012.281.035.305.164.562.398.773.703a.562.562 0 0 1 .141.351c0 .117-.059.235-.176.352a1.396 1.396 0 0 1-.351.21c-.399.259-.762.54-1.09.844-.328.305-.539.504-.633.598.351.281.527.48.527.598l-.105.738c-.047.211-.071.738-.071 1.582 0 .82.024 1.371.071 1.652v.07a.868.868 0 0 1-.106.387c-.047.118-.082.2-.105.247-.164.257-.375.386-.633.386Zm3.586 8.93c-.352 0-.691-.258-1.02-.773-.421-.657-.832-1.196-1.23-1.618l-.914-.949a14.424 14.424 0 0 1-1.301 1.336 6.992 6.992 0 0 1-1.336.95c-1.008.585-1.851.878-2.531.878-.164 0-.246-.058-.246-.176 0-.07.222-.222.668-.457a7.422 7.422 0 0 0 1.265-.843c1.008-.844 1.84-1.711 2.496-2.602-.14-.14-.843-.75-2.109-1.828-.164-.117-.41-.316-.738-.598a9.494 9.494 0 0 1-.422-.316c-.211-.164-.316-.281-.316-.352 0-.117.058-.175.175-.175.352 0 .914.246 1.688.738a25.67 25.67 0 0 1 2.426 1.687 6.91 6.91 0 0 0 .773-1.125c.188-.351.399-.785.633-1.3a2.41 2.41 0 0 0 .211-.668c.023-.211.035-.34.035-.387 0-.258.07-.387.211-.387.164 0 .387.129.668.387.492.469.738.785.738.95 0 .093-.058.198-.176.316-.281.28-.539.656-.773 1.124-.141.282-.398.68-.774 1.196-.117.14-.21.27-.281.387-.07.117-.14.222-.211.316.539.398 1.336 1.078 2.391 2.039.258.234.422.457.492.668.094.187.141.445.141.773 0 .235-.059.434-.176.598a.567.567 0 0 1-.457.211Zm.633 4.64c.258.282.386.516.386.704 0 .164-.093.316-.281.457-.117.093-.41.61-.879 1.547-.515.843-1.09 1.57-1.722 2.18-.61.632-1.219 1.09-1.828 1.37-.141.047-.258.07-.352.07-.094 0-.141-.023-.141-.07v-.07c0-.14.118-.305.352-.492.422-.328.738-.668.949-1.02l.527-.738c.493-.703.844-1.277 1.055-1.723a4.19 4.19 0 0 0 .492-1.23h-.14c-.61 0-1.594.07-2.953.21-.211.024-.821.106-1.829.247-.21.023-.539.082-.984.176l-.422.105a.623.623 0 0 1-.281.07.946.946 0 0 1-.352-.07 3.198 3.198 0 0 1-.351-.246c-.281-.234-.422-.433-.422-.598.023-.046.047-.117.07-.21a.567.567 0 0 0 .071-.247l.175-1.16c.024-.117.047-.246.071-.386a2.61 2.61 0 0 0 .035-.422c0-.446-.012-.797-.035-1.055a3.87 3.87 0 0 0-.106-.879v-.105c0-.164.071-.246.211-.246.141 0 .387.105.738.316.469.328.704.586.704.773 0 .07-.012.13-.036.176a9.186 9.186 0 0 1-.07.14c-.07.423-.105.657-.105.704l-.176 1.863a.34.34 0 0 0 .07.176c.07.047.141.07.211.07.563 0 1.828-.14 3.797-.422.773-.07 1.324-.152 1.652-.246.211-.023.387-.058.528-.105.164-.07.269-.106.316-.106a1.15 1.15 0 0 1 .281-.07c.211 0 .469.188.774.563Zm-22.606-6.855c.258 0 .504.07.739.211a36.808 36.808 0 0 1-2.778-3.48l-7.137.351a29.799 29.799 0 0 1-2.32 3.164c.281.07.645.176 1.09.317l10.195-.563h.211Zm-22.429 7.91c0-.21.257-.504.773-.879 4.266-2.882 7.606-6.152 10.02-9.808l-6.469.316-.844.035c-.211 0-.363-.011-.457-.035-.211 0-.375-.058-.492-.176-.539-.445-.867-.949-.985-1.511a.398.398 0 0 1-.035-.176c0-.164.071-.246.211-.246l.176.035a6.07 6.07 0 0 0 1.477.176h.281l8.332-.422.211-.387c.375-.68.773-1.535 1.195-2.566l-3.129.176c-.211.023-.48.035-.808.035-.493 0-.891-.13-1.196-.387-.304-.258-.515-.527-.632-.809-.118-.304-.176-.504-.176-.597 0-.117.07-.176.211-.176l.175.035c.422.07.856.106 1.301.106h.457l4.465-.282c.211-.586.445-1.43.703-2.53l-6.961.456a6.186 6.186 0 0 1-.738.035c-.469 0-.891-.105-1.266-.316-.375-.211-.691-.656-.949-1.336l-.035-.211c0-.164.094-.246.281-.246l.176.035c.656.094 1.16.14 1.512.14h.351l7.981-.492c.211-1.125.316-1.898.316-2.32 0-.469-.082-.879-.246-1.23-.07-.188-.105-.317-.105-.387 0-.211.14-.316.421-.316.352 0 .833.093 1.442.28.633.188.949.516.949.985l-.035.352a79.581 79.581 0 0 1-.422 2.496l7.137-.457c.258-.024.738-.14 1.441-.352.141-.047.235-.07.281-.07.329 0 .727.223 1.196.668.492.422.738.762.738 1.02 0 .257-.258.41-.773.456l-10.407.668a177.6 177.6 0 0 1-.632 2.532l5.589-.317a6.484 6.484 0 0 0 1.336-.246c.141-.047.246-.07.317-.07.281 0 .644.2 1.09.598.468.398.703.714.703.949 0 .14-.645.281-1.934.422-1.266.14-3.844.328-7.734.562a29.037 29.037 0 0 1-1.336 2.988l13.957-.703a4.85 4.85 0 0 0 1.512-.316c.046-.024.14-.035.281-.035.234 0 .492.105.773.316.305.211.563.457.774.738.211.258.316.446.316.563 0 .281-.269.445-.809.492l-8.578.422a30.768 30.768 0 0 0 4.641 4.746c1.664 1.36 3.551 2.531 5.66 3.516.469.21.703.398.703.562 0 .117-.117.305-.351.563a4.41 4.41 0 0 1-.774.668c-.281.187-.539.28-.773.28-.164 0-.645-.222-1.442-.667-.773-.445-1.722-1.102-2.847-1.969-1.102-.867-2.239-1.91-3.41-3.129a.398.398 0 0 1 .035.176c0 .07-.035.188-.106.352a1.15 1.15 0 0 0-.07.351l-.492 7.805c.609.773.914 1.312.914 1.617 0 .188-.094.305-.281.352-.164.047-.422.07-.774.07l-10.793.281.035.88v.105c0 .468-.222.703-.668.703-.304 0-.668-.117-1.089-.352-.422-.234-.633-.586-.633-1.055v-.14c0-.235.023-.563.07-.985a9.36 9.36 0 0 0 .07-.949v-.316l-.492-7.664c0-.14-.012-.27-.035-.387l-.07-.352c-1.289 1.36-2.614 2.52-3.973 3.48-1.336.962-2.519 1.7-3.551 2.216-1.008.515-1.629.773-1.863.773-.211 0-.316-.07-.316-.21Zm12.129-2.672 9.421-.351.106-2.883-9.668.457.141 2.777Zm.281 4.922 8.929-.21.141-3.2-9.246.352.176 3.058ZM219.121 14.387c-.164 0-.34-.106-.527-.317a2.153 2.153 0 0 1-.282-.386c-.046-.118-.046-.27 0-.457l.036-.844c.023-.164.035-.563.035-1.195v-1.16l-1.055.492-1.23.527a10.87 10.87 0 0 0-.95.422c-.281.14-.527.21-.738.21a2.173 2.173 0 0 1-.562-.175 4.837 4.837 0 0 1-.493-.246c-.257-.164-.375-.34-.351-.527l.105-.352c0-.188.012-.352.036-.492l.035-2.04V5.95c0-.375-.024-.691-.071-.949-.047-.281-.082-.48-.105-.598 0-.117.035-.199.105-.246.024-.023.082-.035.176-.035.164 0 .481.106.949.316.399.188.563.422.493.704-.047.164-.094.41-.141.738l-.106 4.043c0 .117.012.21.036.281.046.047.093.07.14.07.282 0 .621-.082 1.02-.246.75-.234 1.394-.468 1.933-.703l.774-.316v-2.32c0-.938-.059-1.84-.176-2.708a.792.792 0 0 1-.035-.246c0-.234.094-.351.281-.351.024 0 .152.047.387.14.351.188.609.352.773.493.164.14.258.222.282.246.093.07.14.14.14.21a.34.34 0 0 1-.07.176c-.024.07-.047.13-.07.176l-.106 1.055-.035 3.234.035 3.13a8.23 8.23 0 0 1-.105 1.405c-.118.493-.305.739-.563.739Zm-6.469 5.765c-.257 0-.574-.199-.949-.597-.281-.282-.422-.492-.422-.633 0-.07.047-.106.141-.106a1.48 1.48 0 0 1 .351-.035l.774-.035c.445 0 .738-.012.879-.035.445 0 .82-.012 1.125-.035 2.015-.188 3.375-.34 4.078-.457a29.8 29.8 0 0 0 .949-.14c.281-.071.504-.106.668-.106.328 0 .656.164.984.492.258.258.387.469.387.633 0 .14-.082.234-.246.28-.117.024-.809.071-2.074.142-.703.023-1.57.082-2.602.175a92.491 92.491 0 0 0-2.707.282c-.14.023-.34.058-.597.105-.258.047-.504.07-.739.07Zm4.711 14.52c-.726 0-1.289-.024-1.687-.07a1.68 1.68 0 0 1-.949-.422c-.446-.328-.75-1.043-.915-2.145l-.105-1.125c0-.281-.023-.633-.07-1.055a5.987 5.987 0 0 0-.809.141 3.817 3.817 0 0 1-.246.106.965.965 0 0 1-.211.035.81.81 0 0 1-.457-.14c-.141-.095-.316-.27-.527-.528-.164-.211-.246-.352-.246-.422s.082-.117.246-.14c.164-.024.386-.036.668-.036.398 0 .914-.047 1.547-.14l-.036-.493c0-.937-.058-1.734-.175-2.39l-.036-.246c0-.329.129-.457.387-.387.281.094.539.21.774.351.187.094.316.188.386.282.071.07.094.175.071.316l-.106 1.512v.914l3.094-.317c0-.164.012-.55.035-1.16.024-.633.024-1.043 0-1.23 0-.188-.023-.363-.07-.527a6.529 6.529 0 0 0-.071-.458c0-.187.094-.28.282-.28.187 0 .422.105.703.316.328.21.539.398.633.562.117.164.14.363.07.598a6.4 6.4 0 0 0-.246 1.265c-.047.47-.07.75-.07.844.281-.023.539-.058.773-.105.234-.047.387-.07.457-.07.188-.047.41-.071.668-.071.141.023.34.164.598.422.211.281.316.504.316.668 0 .234-.223.328-.668.281a6.863 6.863 0 0 0-1.195-.105c-.399 0-.738.011-1.02.035-.07.844-.211 1.676-.422 2.496a.953.953 0 0 1-.246.457c-.117.14-.222.21-.316.21-.164 0-.27-.07-.317-.21a3.524 3.524 0 0 1-.035-.598c.047-.61.071-1.37.071-2.285a26.99 26.99 0 0 0-1.477.14 9.357 9.357 0 0 1-1.512.212c-.023.96.024 1.816.141 2.566.07.492.211.832.422 1.02.14.117.305.187.492.21.211.024.422.036.633.036h.422c.726 0 1.406-.035 2.039-.106a1.52 1.52 0 0 0 .492-.14c.164-.07.281-.106.352-.106.21 0 .421.07.632.211.211.14.317.305.317.492 0 .188-.106.328-.317.422-.187.094-.492.176-.914.246-.75.094-1.5.14-2.25.14Zm10.02-15.996c.281 0 .422.129.422.387 0 .14-.129.34-.387.597-.703.867-2.098 2.52-4.184 4.957-.164.211-.316.317-.457.317-.117 0-.375-.176-.773-.528-.328-.281-.492-.515-.492-.703 0-.21.176-.41.527-.598.539-.304 1.348-.914 2.426-1.828 1.078-.96 1.875-1.722 2.39-2.285.211-.21.387-.316.528-.316Zm-44.684 11.496c2.086-.656 3.949-1.371 5.59-2.145a25.586 25.586 0 0 0-1.336-1.687c-.187-.235-.281-.422-.281-.563 0-.258.152-.48.457-.668.305-.21.539-.316.703-.316.188 0 .387.117.598.352a137.853 137.853 0 0 1 3.41 4.148c.937 1.195 1.406 1.922 1.406 2.18 0 .21-.164.457-.492.738-.305.305-.598.457-.879.457-.234 0-.469-.188-.703-.563a96.435 96.435 0 0 0-1.828-2.671l-4.219 2.109c-.469.21-1.207.586-2.215 1.125-.844.445-1.359.668-1.547.668-.14 0-.316-.094-.527-.281a1.65 1.65 0 0 1-.492-.633c-.094-.234-.094-.422 0-.563.14-.257.211-1.289.211-3.093V16.602c0-.563-.024-1.02-.071-1.372a3.587 3.587 0 0 0-.281-1.125 1.37 1.37 0 0 0-.07-.175.305.305 0 0 1-.035-.14c0-.118.082-.177.246-.177.304 0 1.066.258 2.285.774l7.629-.528c.187-.023.398-.035.633-.035.257 0 .562.117.914.352.351.21.527.445.527.703 0 .094-.059.234-.176.422-.094.187-.14.328-.14.422l-.914 6.609c.562.656.843 1.102.843 1.336 0 .117-.07.2-.211.246-.117.047-.304.07-.562.07l-8.508.317.035 5.87Zm-5.765-15.785c0-.235.152-.516.457-.844 1.711-1.898 3.199-3.785 4.464-5.66 1.266-1.875 1.899-3.13 1.899-3.762l-.035-.246V3.77c0-.329.129-.493.386-.493.305 0 .727.211 1.266.633.563.399.844.727.844.985 0 .117-.059.27-.176.457a23.895 23.895 0 0 1-1.16 1.687l4.992-.387a4.872 4.872 0 0 0 1.336-.28c.141-.048.246-.071.316-.071.352 0 .727.199 1.125.597.422.375.633.668.633.88 0 .28-.258.445-.773.492l-6.012.421c.164.047.527.293 1.09.739.586.445 1.113.902 1.582 1.37.469.47.703.798.703.985 0 .211-.141.469-.422.774-.281.28-.527.421-.738.421-.188 0-.41-.152-.668-.457a21.787 21.787 0 0 0-2.426-2.285c-.281-.234-.422-.433-.422-.597 0-.118.059-.27.176-.457.117-.188.27-.34.457-.457l-2.355.175a34.406 34.406 0 0 1-3.727 3.903c-1.359 1.195-2.226 1.793-2.601 1.793-.141 0-.211-.07-.211-.211Zm12.656 3.656.246-2.461-7.242.492v2.32l6.996-.351Zm-.457 4.36.281-2.708-6.785.317v2.636l6.504-.246Zm1.898-9.528c0-.234.153-.516.457-.844 1.149-1.383 2.192-2.941 3.129-4.676.961-1.757 1.442-2.988 1.442-3.69v-.142c0-.351.129-.527.386-.527.164 0 .41.094.739.281.351.164.668.364.949.598.281.234.422.469.422.703 0 .211-.164.586-.493 1.125-.328.54-.503.82-.527.844l6.926-.563a6.483 6.483 0 0 0 1.336-.246c.047-.023.141-.035.281-.035.328 0 .68.188 1.055.563.398.351.597.644.597.879 0 .14-.07.257-.21.351-.118.07-.282.117-.493.14l-7.136.493c.656.422 1.429 1.043 2.32 1.863.891.797 1.336 1.336 1.336 1.617 0 .164-.129.422-.387.774-.258.328-.504.492-.738.492-.188 0-.387-.117-.598-.352-1.148-1.242-2.191-2.226-3.129-2.953-.234-.187-.351-.363-.351-.527 0-.188.176-.469.527-.844l-2.601.176c-.774 1.031-1.711 2.074-2.813 3.129-1.078 1.055-1.805 1.582-2.18 1.582-.164 0-.246-.07-.246-.211Zm3.305.773c0-.14.082-.21.246-.21.352 0 1.148.292 2.391.878l7.066-.597.281-.035c.094 0 .27.046.528.14.281.07.539.2.773.387.258.164.387.387.387.668 0 .094-.035.223-.106.387-.07.164-.105.28-.105.351a88.243 88.243 0 0 1-.492 8.262l-.071.879c-.07.984-.164 1.805-.281 2.46-.117.657-.316 1.173-.598 1.548-.445.609-.925.914-1.441.914s-1.172-.317-1.969-.95a18.576 18.576 0 0 1-2.215-2.074c-.656-.75-.984-1.23-.984-1.441 0-.164.094-.246.281-.246.211 0 .504.117.879.351.867.54 1.594.973 2.18 1.301.586.328 1.008.492 1.266.492.117 0 .199-.082.246-.246.539-3 .867-6.762.984-11.285l-6.609.492c0 3.961.035 10.242.105 18.844 0 .21-.058.363-.176.457a.466.466 0 0 1-.386.176c-.188 0-.411-.07-.668-.211-.446-.188-.762-.363-.95-.528-.187-.164-.281-.351-.281-.562l.035-.246c.141-.773.211-1.64.211-2.602l-.105-14.836c0-.609-.024-1.078-.07-1.406a3.306 3.306 0 0 0-.211-.95c-.094-.28-.141-.468-.141-.562ZM115.094 71.188c-1 0-1.667-.063-2-.188-.396-.188-.656-.615-.782-1.281a8.017 8.017 0 0 1-.093-1.344l-.125-2.031v-.781c-.021-.021-.032-.073-.032-.157l-.031-.344c-.021-.166-.114-.364-.281-.593a.73.73 0 0 1-.094-.281c0-.146.177-.188.532-.126.374.063.802.094 1.281.094.333 0 .958-.02 1.875-.062.312-.021 1.041-.115 2.187-.281l1-.22.25-.062c.188 0 .417.115.688.344.229.188.343.365.343.531 0 .209-.156.334-.468.375-.813.063-1.438.094-1.875.094l-1.125.063a6.665 6.665 0 0 1-.688.062c-1.375.063-2.156.094-2.344.094 0 1.458.011 2.364.032 2.719.041.583.073 1.041.094 1.374.041.334.093.553.156.657a.392.392 0 0 0 .218.187c.126.021.24.042.344.063h.282c.02 0 .072.01.156.031h.594c.208 0 .562-.02 1.062-.063a13.55 13.55 0 0 0 1.875-.25c.146-.02.479-.03 1-.03.25 0 .49.114.719.343.104.104.156.25.156.438 0 .145-.042.25-.125.312-.125.063-.323.115-.594.156a59.35 59.35 0 0 1-4.187.156Zm.937 11.906c-.146 0-.25-.042-.312-.125a1.953 1.953 0 0 0-.125-.156c-.209-.292-.302-.573-.282-.844.021-.167.053-.615.094-1.344l.032-1.5c-.021-.23-.042-.365-.063-.406-.021-.063-.115-.188-.281-.375a15.863 15.863 0 0 0-1.156-1.281c-.5-.5-.823-.834-.969-1l-.938-.938c-.062-.063-.093-.125-.093-.188 0-.104.062-.187.187-.25a.673.673 0 0 1 .437-.093c.417.041.688.094.813.156.146.042.281.167.406.375s.302.458.531.75c.25.27.438.48.563.625.521.625.885 1.042 1.094 1.25.375-.438.843-1.063 1.406-1.875.458-.583.729-1.063.813-1.438.083-.27.208-.406.374-.406.084 0 .209.052.376.156.541.334.812.605.812.813 0 .125-.135.281-.406.469-.375.27-.688.573-.938.906l-.625.781c-.416.5-.729.896-.937 1.188-.104.187-.156.458-.156.812V82.312c.02.146-.063.313-.25.5-.167.188-.303.282-.407.282ZM94.406 61.688c0-.146.125-.323.375-.532.25-.229.469-.343.656-.343.146 0 .323.114.532.343.229.23.77.896 1.625 2 .937-.812 1.708-1.541 2.312-2.187.625-.646.969-1.219 1.032-1.719.02-.208.135-.313.343-.313.25 0 .573.178.969.532.396.354.594.666.594.937 0 .23-.459.76-1.375 1.594a56.91 56.91 0 0 1-2.719 2.375 18.77 18.77 0 0 0 1.906 1.781c1.459-1.208 2.427-2.094 2.906-2.656.48-.563.761-1.042.844-1.438.063-.208.167-.312.313-.312.083 0 .25.094.5.281.25.167.469.365.656.594.208.23.313.448.313.656 0 .271-.417.792-1.25 1.563A40.19 40.19 0 0 1 102 67.219c1.938 1.458 4.188 2.74 6.75 3.844.333.145.5.291.5.437 0 .083-.083.24-.25.469-.167.229-.365.437-.594.625-.229.166-.437.25-.625.25-.208 0-1.166-.5-2.875-1.5-2.146-1.25-4.01-2.573-5.594-3.969-1.562-1.417-2.77-2.667-3.624-3.75-.855-1.083-1.282-1.73-1.282-1.938ZM80.562 73.374c0-.208.209-.448.626-.719 2.583-1.646 4.708-3.354 6.374-5.125-1.145-1.166-2.208-2.104-3.187-2.812-.27-.209-.406-.406-.406-.594 0-.208.104-.427.312-.656.23-.25.417-.375.563-.375.25 0 .781.333 1.594 1a36.383 36.383 0 0 1 2.343 2.031c.98-1.188 1.917-2.573 2.813-4.156l-4.188.375c-.458.041-.76.062-.906.062-.354 0-.656-.104-.906-.312-.23-.23-.417-.48-.563-.75-.125-.271-.187-.459-.187-.563 0-.166.083-.25.25-.25.083 0 .146.01.187.032.271.083.594.124.969.124l.531-.03 5.75-.438h.281c.334 0 .646.114.938.343.313.23.469.48.469.75 0 .126-.313.688-.938 1.688a40.507 40.507 0 0 1-2.344 3.25A23.57 23.57 0 0 1 88 69.375h.094l3.25-.219h.25c.25 0 .541.115.875.344.354.23.531.458.531.688a.634.634 0 0 1-.125.343 1.39 1.39 0 0 0-.125.344l-.563 2.625c.5.52.75.896.75 1.125 0 .125-.072.208-.218.25-.125.042-.334.073-.625.094l-4.656.25-.563 2.844 4.031-.22.313-.03c.229 0 .51.135.844.406.354.25.53.51.53.781 0 .125-.04.27-.124.438-.084.145-.125.25-.125.312a26.773 26.773 0 0 1-.781 4.25c-.188.688-.428 1.281-.72 1.781-.29.521-.728.781-1.312.781-.354 0-.729-.135-1.125-.406C86.01 84.552 84.812 83.5 84.812 83c0-.146.094-.219.282-.219.208 0 .479.094.812.281a18.262 18.262 0 0 0 3.344 1.376h.094c.083 0 .146-.053.187-.157.313-.854.563-1.781.75-2.781.125-.688.219-1.375.281-2.063l-3.406.188c-.229.02-.458.063-.687.125a1.821 1.821 0 0 1-.438.094c-.187 0-.427-.084-.719-.25-.27-.167-.406-.375-.406-.625 0-.104.01-.198.031-.281.021-.105.042-.198.063-.282l.719-3.5c.083-.458.125-.833.125-1.125 0-.229-.01-.396-.031-.5v-.219c0-.166.062-.25.187-.25.292 0 .885.282 1.781.844l2.688-.156.469-2.781-2.032.125c-.229.02-.51.031-.844.031-.291 0-.53-.031-.718-.094a1.229 1.229 0 0 1-.5-.437c-1.563 1.187-3.313 2.219-5.25 3.094-.271.124-.5.187-.688.187-.229 0-.344-.083-.344-.25ZM91.97 86.469c0-.188.281-.427.844-.719 1.874-.917 3.656-2.104 5.343-3.563l-2.437-1.53c-.313-.167-.469-.365-.469-.594 0-.146.073-.323.219-.532.146-.208.291-.323.437-.344h.125c.146 0 .292.042.438.126l2.875 1.78c.958-1.02 1.666-2.04 2.125-3.062l-5.188.281-.625.032c-.333 0-.635-.084-.906-.25-.27-.167-.49-.542-.656-1.125l-.031-.125c0-.104.052-.156.156-.156l.187.03c.292.063.542.094.75.094l.531-.03 6.375-.313.438-.031c.312 0 .573.072.781.218.209.125.365.271.469.438.104.166.156.281.156.344 0 .062-.146.333-.437.812-.271.48-.646 1.052-1.125 1.719a17.486 17.486 0 0 1-1.688 1.937c3.209 2 4.834 3.156 4.875 3.469.021.167-.093.406-.343.719-.25.312-.459.469-.626.469-.229 0-.458-.084-.687-.25-1.146-.959-2.615-2.042-4.406-3.25-.959.854-1.948 1.541-2.969 2.062-1 .542-1.885.938-2.656 1.188-.75.25-1.24.374-1.469.374-.27 0-.406-.072-.406-.218Zm.969-9.875c0-.146.135-.323.406-.531.812-.626 1.375-1.26 1.687-1.907.313-.646.469-1.541.469-2.687l-.031-.875c-.042-.646-.146-1.125-.313-1.438-.083-.166-.125-.291-.125-.375 0-.125.084-.187.25-.187.354 0 1.031.208 2.031.625l2.907-.188h.375c.25 0 .531.094.844.281.333.188.5.417.5.688a.762.762 0 0 1-.063.281.552.552 0 0 0-.063.25l-.062 2.938c0 .229.031.396.094.5.062.083.198.135.406.156l.438.031h.25c.395 0 .76-.083 1.093-.25a.437.437 0 0 1 .188-.031c.229 0 .5.146.812.438.334.291.5.552.5.78 0 .25-.198.407-.593.47-.917.124-1.49.187-1.719.187h-.938c-.666 0-1.219-.104-1.656-.313-.417-.208-.625-.656-.625-1.343V74l.062-3.469-2.812.188c0 1.02-.073 1.864-.219 2.531-.166.813-.531 1.48-1.094 2-.562.52-1.124.906-1.687 1.156-.563.25-.917.375-1.063.375-.166 0-.25-.062-.25-.187ZM160.469 68.156c-.229 0-.511-.177-.844-.531-.25-.25-.375-.438-.375-.563 0-.062.042-.093.125-.093.083-.021.187-.031.313-.031l.687-.032c.396 0 .656-.01.781-.031.396 0 .729-.01 1-.031 1.792-.167 3-.302 3.625-.406.313-.042.594-.084.844-.126.25-.062.448-.093.594-.093.291 0 .583.146.875.437.229.23.344.417.344.563 0 .125-.073.208-.219.25-.104.02-.719.062-1.844.125-.625.02-1.396.073-2.313.156-.916.083-1.718.167-2.406.25-.125.02-.302.052-.531.094a3.676 3.676 0 0 1-.656.062Zm3.562 14.938c-.146 0-.25-.042-.312-.125a1.953 1.953 0 0 0-.125-.156c-.209-.292-.302-.573-.282-.844.021-.167.053-.615.094-1.344l.032-1.5c-.021-.23-.042-.365-.063-.406-.021-.063-.115-.188-.281-.375a15.863 15.863 0 0 0-1.156-1.281c-.5-.5-.823-.834-.969-1l-.938-.938c-.062-.063-.093-.125-.093-.188 0-.104.062-.187.187-.25a.673.673 0 0 1 .437-.093c.417.041.688.094.813.156.146.042.281.167.406.375s.302.458.531.75c.25.27.438.48.563.625.521.625.885 1.042 1.094 1.25.375-.438.843-1.063 1.406-1.875.458-.583.729-1.063.813-1.438.083-.27.208-.406.374-.406.084 0 .209.052.376.156.541.334.812.605.812.813 0 .125-.135.281-.406.469-.375.27-.688.573-.938.906l-.625.781c-.416.5-.729.896-.937 1.188-.104.187-.156.458-.156.812V82.312c.02.146-.063.313-.25.5-.167.188-.303.282-.407.282Zm-31.437 2.875c-.438 0-.792-.094-1.063-.281-.25-.167-.469-.573-.656-1.22l-.031-.124c0-.125.062-.188.187-.188l.125.031a7.518 7.518 0 0 0 1.594.157l9.812-.25-.031-2.25-5.562.187h-.438c-.479 0-.823-.083-1.031-.25-.188-.187-.365-.562-.531-1.125a.433.433 0 0 1-.031-.187c0-.104.052-.156.156-.156a.43.43 0 0 1 .187.03c.334.126.698.188 1.094.188h.281l5.844-.187v-.219c0-.438-.094-.792-.281-1.063-.084-.104-.125-.197-.125-.28 0-.126.125-.188.375-.188.312 0 .708.073 1.187.219.479.145.719.395.719.75v.718l4.844-.187c.333 0 .656-.052.969-.156.187-.063.333-.094.437-.094.208 0 .406.083.594.25.208.166.375.364.5.594.125.208.187.354.187.437 0 .23-.26.365-.781.406l-6.75.25-.031 2.281 9-.25c.5 0 .979-.072 1.437-.218.104-.042.229-.063.375-.063.229 0 .521.188.875.563.354.396.531.698.531.906 0 .23-.218.344-.656.344l-22.968.625h-.344Zm-4.375-4.688c0-.208.104-.49.312-.844.896-1.583 1.604-3.062 2.125-4.437.521-1.396.917-3 1.188-4.813.271-1.812.406-4.01.406-6.593l-.031-1.469c-.042-1.042-.146-1.813-.313-2.313a1.287 1.287 0 0 1-.094-.437c0-.146.084-.219.25-.219.25 0 .969.26 2.157.782l16.687-1c.459-.021.99-.126 1.594-.313.188-.063.354-.094.5-.094.271 0 .531.094.781.282.25.166.459.364.625.593.167.209.25.375.25.5 0 .25-.271.396-.812.438L134.219 62.5c0 3.167-.177 6.031-.531 8.594-.313 2.25-.844 4.156-1.594 5.719-.75 1.541-1.511 2.708-2.282 3.5-.75.77-1.229 1.156-1.437 1.156-.104 0-.156-.063-.156-.188Zm5.687-1.812c0-.188.042-.365.125-.531.459-.771.802-1.438 1.031-2 .23-.563.407-1.24.532-2.032.125-.791.187-1.802.187-3.031 0-.854-.041-1.417-.125-1.688-.125-.062-.187-.177-.187-.343 0-.042.031-.084.093-.125a.34.34 0 0 1 .188-.063c.625 0 1.229.167 1.812.5l5.188-.375h.219c.312 0 .583.115.812.344.25.208.375.385.375.531a.562.562 0 0 1-.062.25.587.587 0 0 0-.032.188l-.124 5.281v.75c0 .438-.146.781-.438 1.031-.271.25-.531.375-.781.375-.229 0-.636-.125-1.219-.375a13.879 13.879 0 0 1-1.562-.875c-.48-.312-.719-.552-.719-.719 0-.104.104-.156.312-.156.146 0 .344.031.594.094.375.104.75.198 1.125.281.396.063.76.104 1.094.125l.062-1.937c-.687.333-1.489.646-2.406.937-.896.271-1.552.406-1.969.406-.458 0-.771-.229-.937-.687-.354 1.188-.823 2.146-1.406 2.875-.584.73-1.115 1.104-1.594 1.125-.063.02-.115.01-.156-.031a.52.52 0 0 1-.032-.125Zm1.469-16c0-.125.104-.188.313-.188.27 0 .781.104 1.531.313l5.5-.375h.219c.333 0 .614.104.843.312.25.209.375.365.375.469a.712.712 0 0 1-.094.281.724.724 0 0 0-.093.281l-.531 2.907c.416.479.624.802.624.969 0 .104-.072.177-.218.218-.125.042-.344.073-.656.094l-5.563.344v.156c0 .333-.125.5-.375.5-.229 0-.5-.073-.812-.219-.292-.166-.438-.385-.438-.656 0-.125.01-.219.031-.281.042-.25.063-.438.063-.563 0-.104-.021-.323-.063-.656l-.219-2.438c-.041-.458-.135-.812-.281-1.062-.104-.208-.156-.344-.156-.406Zm1.969 2.312 4.875-.281.093-1-5.031.281.063 1Zm.031 8.969c.417 0 1.177-.083 2.281-.25 1.417-.292 2.344-.469 2.782-.531l.062-2.938-4.969.313a5.028 5.028 0 0 0-.031.656c.104-.083.25-.125.438-.125l.343.063c1.125.124 2.177.302 3.157.53.437.105.656.324.656.657-.021.167-.104.333-.25.5a.715.715 0 0 1-.563.25c-.166 0-.437-.063-.812-.188-.709-.229-1.604-.427-2.688-.593l-.312-.094c0 .667-.052 1.23-.157 1.688v.062h.063Zm.156-6.844 4.5-.281.094-1.031-4.687.281.093 1.031Zm6.438 10.344c0-.188.166-.458.5-.813 1.021-1.104 1.833-2.26 2.437-3.468.604-1.23 1.021-2.615 1.25-4.156l-1.968.124h-.469c-.354 0-.636-.072-.844-.218-.208-.167-.448-.521-.719-1.063l-.031-.094c0-.041.021-.072.063-.093a.21.21 0 0 1 .156-.063h.094c.187 0 .364.021.531.063.166.02.343.031.531.031h.406l2.406-.156c.084-.938.126-1.875.126-2.813 0-.75-.021-1.302-.063-1.656-.042-.375-.115-.667-.219-.875-.083-.208-.125-.333-.125-.375 0-.146.104-.219.313-.219.208 0 .531.063.968.188.376.104.605.218.688.343.104.126.156.303.156.532v1.125c0 1.312-.052 2.52-.156 3.625l2.594-.156c.479-.042.854-.115 1.125-.22.166-.062.302-.093.406-.093.208 0 .458.146.75.438.292.291.437.562.437.812 0 .23-.229.365-.687.406l-4.313.281c1.813 3.23 3.792 5.688 5.938 7.376.188.124.281.25.281.374 0 .105-.187.303-.562.594-.375.271-.677.406-.907.406-.145 0-.531-.333-1.156-1-.625-.687-1.333-1.583-2.125-2.687a34.457 34.457 0 0 1-2.219-3.625 12.687 12.687 0 0 1-1.718 4.031c-.792 1.188-1.74 2.156-2.844 2.906-.375.25-.656.376-.844.376-.125 0-.187-.063-.187-.188Zm6.531-13.875c0-.125.094-.25.281-.375.25-.167.459-.25.625-.25.167 0 .448.188.844.563a8 8 0 0 1 1.125 1.25c.354.437.531.74.531.906 0 .208-.125.396-.375.562-.25.167-.458.25-.625.25a.418.418 0 0 1-.25-.094 2.11 2.11 0 0 1-.25-.312c-.5-.708-1-1.333-1.5-1.875-.271-.313-.406-.52-.406-.625ZM215.406 67.531a.664.664 0 0 1-.406-.312 1.027 1.027 0 0 1-.156-.25 1.228 1.228 0 0 0-.125-.313l-.157-.344-1.968.25-.75.126c-.188.02-.615.093-1.282.218-.27.042-.562.125-.874.25a.806.806 0 0 0-.219.125c-.084.063-.157.094-.219.094H209c-.208 0-.438-.135-.688-.406a1.367 1.367 0 0 0-.25-.25c-.083-.104-.124-.177-.124-.219 0-.167.072-.323.218-.469.313-.312.75-.948 1.313-1.906.208-.292.458-.719.75-1.281a26.94 26.94 0 0 0 .687-1.407c-.021.063.094-.218.344-.843.188-.521.281-.854.281-1 .042-.23.115-.344.219-.344.083 0 .26.115.531.344.229.187.407.375.531.562.146.188.219.334.219.438a.39.39 0 0 1-.062.218 1.081 1.081 0 0 1-.219.22 3.59 3.59 0 0 0-.312.374c-.271.354-.605.896-1 1.625l-.626 1.094-.468.781-.344.594-.219.344a.132.132 0 0 0 0 .125c.021.02.052.031.094.031l1.594-.188 2.875-.312-.25-.656a21.604 21.604 0 0 0-.375-.969c-.021-.02-.031-.063-.031-.125 0-.063.031-.094.093-.094.104 0 .229.063.375.188.167.104.417.323.75.656.25.208.459.448.625.719.188.27.302.427.344.469.187.27.281.53.281.78 0 .126-.041.334-.125.626-.062.166-.146.281-.25.344-.083.062-.208.093-.375.093Zm-.218 9.063c-.313 0-.615-.23-.907-.688a9.905 9.905 0 0 0-1.093-1.437l-.813-.844c-.437.5-.823.896-1.156 1.188a6.25 6.25 0 0 1-1.188.843c-.896.521-1.646.781-2.25.781-.146 0-.219-.052-.219-.156 0-.062.198-.198.594-.406a6.591 6.591 0 0 0 1.125-.75c.896-.75 1.636-1.52 2.219-2.313-.125-.124-.75-.666-1.875-1.624a10.426 10.426 0 0 1-.656-.532 7.616 7.616 0 0 1-.375-.281c-.188-.146-.282-.25-.282-.313 0-.104.053-.156.157-.156.312 0 .812.219 1.5.656.687.417 1.406.917 2.156 1.5.292-.354.521-.687.687-1 .167-.312.355-.697.563-1.156.104-.229.167-.427.187-.594a4.83 4.83 0 0 0 .032-.343c0-.23.062-.344.187-.344.146 0 .344.115.594.344.437.416.656.698.656.844 0 .083-.052.177-.156.28-.25.25-.479.584-.687 1-.126.25-.355.605-.688 1.063a2.76 2.76 0 0 0-.25.344 3.062 3.062 0 0 1-.188.281c.48.354 1.188.959 2.126 1.813.229.208.374.406.437.594.083.166.125.395.125.687a.89.89 0 0 1-.156.531.504.504 0 0 1-.406.188Zm-.75 9.469c-.084 0-.178-.042-.282-.126a3.108 3.108 0 0 1-.406-.312c-.729-.563-1.438-1.406-2.125-2.531a11.94 11.94 0 0 1-1.469-3.656 5.64 5.64 0 0 0-.094-.438 1.946 1.946 0 0 0-.124-.375c0-.02-.032-.031-.094-.031-.146 0-.427.094-.844.281-.125.063-.25.156-.375.281-.104.104-.219.146-.344.125-.083 0-.198-.052-.343-.156a1.46 1.46 0 0 1-.313-.281c-.208-.292-.313-.469-.313-.531 0-.126.115-.198.344-.22.313 0 .511-.01.594-.03a9.003 9.003 0 0 0 1.719-.407c.083-.02.198-.083.343-.187.021 0 .053-.01.094-.031.063-.021.136 0 .219.062.313.208.469.365.469.469 0 1.458.416 2.823 1.25 4.094.833 1.27 2.052 2.343 3.656 3.218.083.042.188.084.312.125.126.042.188.104.188.188 0 .104-.344.198-1.031.281l-.781.125-.25.063Zm3.124-11.407c.105 0 .261.073.469.219-.021.042.021.125.125.25l.219.219c.104.104.208.229.313.375.124.146.26.302.406.469.375.395 1.239 1.427 2.594 3.093.229.334.343.531.343.594 0 .208-.125.313-.375.313-.146 0-.302-.105-.468-.313-.396-.417-1.105-1.073-2.126-1.969-.791-.729-1.51-1.291-2.156-1.687-.312-.146-.468-.313-.468-.5 0-.146.156-.354.468-.625.292-.292.511-.438.656-.438Zm-23.281-3.437c.834 3.396 1.688 5.906 2.563 7.531.125-.167.385-.552.781-1.156.396-.604.771-1.271 1.125-2 .354-.75.531-1.365.531-1.844 0-.27.084-.406.25-.406.125 0 .313.083.563.25.271.146.5.333.687.562.209.23.313.448.313.656 0 .105-.156.48-.469 1.126a25.122 25.122 0 0 1-1.219 2.124c-.479.792-1.01 1.521-1.594 2.188.709 1.042 1.386 1.896 2.032 2.563.666.666 1.229 1.135 1.687 1.406.459.291.792.437 1 .437.167 0 .261-.062.281-.187.146-.563.303-1.302.469-2.219.167-.917.302-1.76.407-2.531.083-.771.239-1.156.468-1.156.334 0 .5 1.093.5 3.28 0 1.522-.031 2.605-.094 3.25-.062.667-.187 1.115-.374 1.344-.188.25-.5.376-.938.376-1.042 0-2.156-.47-3.344-1.407-1.166-.916-2.291-2.187-3.375-3.812A20.443 20.443 0 0 1 193.656 84c-.979.667-1.854 1.177-2.625 1.531-.75.354-1.239.531-1.469.531-.208 0-.312-.072-.312-.218 0-.209.229-.469.688-.781 2.354-1.584 4.25-3.198 5.687-4.844a28.22 28.22 0 0 1-1.594-3.563c-.479-1.312-.989-3.094-1.531-5.344l-10.094.5a40.756 40.756 0 0 1-.25 3.938c-.146 1.292-.344 2.354-.594 3.188-.5 1.666-1.093 3.083-1.781 4.25-.666 1.145-1.291 2.01-1.875 2.593-.583.584-.968.875-1.156.875-.125 0-.188-.083-.188-.25 0-.208.126-.5.376-.875 2.395-3.646 3.593-8.062 3.593-13.25v-.344c0-.687-.146-1.374-.437-2.062a.508.508 0 0 1-.063-.281c0-.146.084-.219.25-.219.354 0 1.084.27 2.188.813l9.625-.47-.156-.624a1.681 1.681 0 0 0-.563-.906c-.208-.167-.313-.313-.313-.438s.167-.188.5-.188c.542 0 1 .073 1.376.22.395.124.614.301.656.53l.281 1.313 2.344-.156c.666-.042 1.177-.125 1.531-.25a.994.994 0 0 1 .281-.063c.25 0 .5.094.75.281.25.167.448.365.594.594.167.23.25.406.25.531 0 .209-.25.334-.75.376l-4.594.28Zm-16.125-5.094c0-.125.063-.188.188-.188l.125.032c.312.083.708.125 1.187.125H180l5-.25-.094-2.938a6.324 6.324 0 0 0-.125-1.093 1.546 1.546 0 0 0-.343-.72c-.126-.166-.188-.29-.188-.374 0-.125.104-.188.312-.188.271 0 .615.073 1.032.219.458.167.76.313.906.438.146.124.219.333.219.624l.062 3.938 3.313-.156.062-4.625c0-.5-.021-.875-.062-1.125a1.31 1.31 0 0 0-.313-.688c-.125-.166-.187-.291-.187-.375 0-.125.114-.187.344-.187.291 0 .645.073 1.062.218.417.146.688.292.812.438.146.146.219.354.219.625L192 61.813l3.781-.25c.459-.021.865-.094 1.219-.22a.81.81 0 0 1 .25-.03c.208 0 .5.135.875.406.375.27.563.552.563.843 0 .23-.209.365-.626.407l-6.093.343-.031 2.188 8.031-.438c.396-.041.76-.104 1.093-.187h.094c.271 0 .594.156.969.469.375.291.563.552.563.781 0 .208-.219.333-.657.375l-21.5 1.094c-.208.02-.489.031-.843.031-.292 0-.573-.083-.844-.25-.271-.167-.49-.542-.656-1.125l-.032-.125Zm3.75 15.938c0-.167.115-.407.344-.72a13.374 13.374 0 0 0 1.469-2.374c.396-.792.593-1.427.593-1.906v-.25c0-.188.063-.282.188-.282.062 0 .219.073.469.219.271.125.51.292.719.5.229.208.343.427.343.656 0 .188-.271.656-.812 1.406a18.33 18.33 0 0 1-1.75 2.032c-.604.625-1.063.937-1.375.937-.125 0-.188-.073-.188-.219Zm.406 3.75c0-.084.053-.188.157-.313a2.38 2.38 0 0 1 .531-.313c4.021-1.854 6.771-4.28 8.25-7.28.083-.188.146-.365.188-.532.041-.188.062-.406.062-.656s.073-.375.219-.375c.187 0 .469.198.843.594.396.395.594.708.594.937 0 .104-.021.177-.062.219-1.084 2-2.427 3.625-4.032 4.875-1.583 1.229-3.552 2.219-5.906 2.969a1.602 1.602 0 0 1-.5.093c-.229 0-.344-.073-.344-.219ZM183 73.78c0-.104.062-.156.188-.156.083 0 .145.01.187.031.229.104.625.156 1.187.156h.376l4.624-.312c.459-.02.865-.094 1.219-.219.125-.041.229-.062.313-.062.25 0 .541.146.875.437.333.292.5.542.5.75 0 .23-.209.365-.625.406l-3 .188.062 2.406-.062 2.969a.663.663 0 0 1-.156.438c-.105.104-.25.156-.438.156-.292-.021-.583-.167-.875-.438-.271-.291-.406-.573-.406-.844l.031-.28c.104-.626.156-1.126.156-1.5l.032-.97.062-1.812-2.125.125-.406.031c-.521 0-.917-.135-1.188-.406a2.323 2.323 0 0 1-.5-.906.434.434 0 0 1-.031-.188ZM197.5 68c0-.167.073-.365.219-.594.146-.25.312-.375.5-.375.333 0 .937.24 1.812.719.875.458 1.615.865 2.219 1.219.354.208.531.427.531.656 0 .125-.083.344-.25.656-.146.313-.343.469-.593.469-.146 0-.396-.115-.75-.344a31.049 31.049 0 0 0-3.25-1.906c-.292-.125-.438-.292-.438-.5ZM262.031 68.25a1.11 1.11 0 0 1-.812-.344 23.934 23.934 0 0 0-2.094-2.031c-.792-.667-1.49-1.167-2.094-1.5-.291-.167-.437-.427-.437-.781 0-.063.073-.146.218-.25.188-.125.49-.396.907-.813l1.125-1.093c.5-.521.916-.99 1.25-1.407.354-.416.552-.708.594-.875.02-.041.041-.125.062-.25.042-.146.104-.218.188-.218.104 0 .239.052.406.156.187.104.344.208.468.312.313.292.469.542.469.75-.021.063-.104.136-.25.219a5.052 5.052 0 0 0-.343.188c-.105.083-.48.416-1.126 1l-2.031 1.75c-.354.291-.531.52-.531.687 0 .083.167.219.5.406.396.25 1.167.76 2.312 1.531.438.292.855.615 1.25.97.334.333.5.676.5 1.03a.56.56 0 0 1-.218.438.426.426 0 0 1-.313.125Zm-5.562 5.219c-.229 0-.511-.177-.844-.531-.25-.25-.375-.438-.375-.563 0-.063.042-.094.125-.094.083-.02.187-.031.313-.031l.687-.031c.396 0 .656-.01.781-.031.396 0 .729-.01 1-.032 1.792-.166 3-.302 3.625-.406.313-.042.594-.083.844-.125.25-.063.448-.094.594-.094.291 0 .583.146.875.438.229.229.344.416.344.562 0 .125-.073.209-.219.25-.104.021-.719.063-1.844.125-.625.021-1.396.073-2.313.156-.916.084-1.718.167-2.406.25-.125.021-.302.053-.531.094a3.668 3.668 0 0 1-.656.063Zm4.656 6.969c-.208.27-.427.406-.656.406-.063 0-.094-.052-.094-.156 0-.146.042-.313.125-.5l.625-1.25c.021-.084.052-.167.094-.25.041-.084.073-.157.093-.22v-.03c0-.042-.031-.084-.093-.126a.264.264 0 0 0-.219-.03c-.333.02-.833.072-1.5.156-.646.083-1.125.166-1.438.25l-.468.156a1.227 1.227 0 0 1-.406.094c-.376 0-.688-.115-.938-.344a1.931 1.931 0 0 1-.469-.438l-.062-.156c0-.104.177-.135.531-.094.479.042 1.469-.02 2.969-.187l.625-.094.781-.094c.375-.062.667-.125.875-.187l.188-.063a.502.502 0 0 1 .218-.062c.104 0 .229.052.375.156.167.104.302.198.407.281.145.104.239.198.281.281.062.063.083.146.062.25 0 .105-.052.198-.156.282a3.092 3.092 0 0 0-.219.187c-.041.063-.187.219-.437.469-.104.167-.292.396-.563.688-.25.291-.427.5-.531.624Zm-1.563 6.156c0-.063.105-.23.313-.5.229-.25.406-.448.531-.594.313-.417.688-1.02 1.125-1.813.459-.791.719-1.312.781-1.562.042-.125-.02-.188-.187-.188-.333 0-1.25.094-2.75.282-.979.125-1.708.25-2.187.375a.608.608 0 0 1-.313.094c-.167 0-.344-.115-.531-.344a.821.821 0 0 1-.125-.406c0-.084.052-.167.156-.25l.094-.126c.062-.124.135-.291.219-.5.083-.208.156-.406.218-.593.104-.334.177-.698.219-1.094.021-.23.146-.292.375-.188.292.146.51.292.656.438.167.125.219.219.156.281a3.15 3.15 0 0 0-.5.844 8.477 8.477 0 0 0-.187.656c0 .084.052.125.156.125.313 0 .781-.052 1.407-.156l1.312-.156c.521-.063.938-.125 1.25-.188l.781-.156a.817.817 0 0 1 .25-.031c.104 0 .209.041.313.125.104.062.218.146.344.25.208.187.343.344.406.469a.72.72 0 0 1 .094.374c0 .084-.063.188-.188.313a3.792 3.792 0 0 0-.375.594c-.604 1.229-1.385 2.26-2.344 3.094a4.331 4.331 0 0 1-.906.53 1.486 1.486 0 0 1-.406.063c-.104.021-.157 0-.157-.062Zm10-14.438c.25 0 .376.115.376.344 0 .125-.115.302-.344.531-.625.771-1.865 2.24-3.719 4.406-.146.188-.281.282-.406.282-.104 0-.334-.156-.688-.469-.291-.25-.437-.458-.437-.625 0-.188.156-.365.468-.531.48-.271 1.198-.813 2.157-1.625.958-.854 1.666-1.531 2.125-2.031.187-.188.344-.282.468-.282ZM228 74.531c-.167.021-.385.031-.656.031a1.41 1.41 0 0 1-.938-.343c-.25-.25-.416-.594-.5-1.031a.809.809 0 0 1-.031-.25c0-.105.052-.157.156-.157a.69.69 0 0 1 .219.031c.354.084.75.126 1.188.126h.312l2.719-.157.031-2.625-.594.031c-.146.021-.333.032-.562.032-.459 0-.75-.063-.875-.188a2.358 2.358 0 0 1-.469-.594 38.531 38.531 0 0 1-2.344 2.688c-.854.896-1.406 1.344-1.656 1.344-.125 0-.188-.073-.188-.219 0-.167.105-.396.313-.688 1.5-2.062 2.719-3.958 3.656-5.687.959-1.75 1.646-3.188 2.063-4.313.416-1.124.625-1.895.625-2.312 0-.354.114-.531.343-.531.271 0 .657.177 1.157.531.5.354.75.667.75.938 0 .145-.021.25-.063.312l-.531 1.125c3.063 2.23 4.594 3.594 4.594 4.094 0 .25-.136.52-.407.812-.27.292-.51.438-.718.438-.188 0-.427-.156-.719-.469a33.891 33.891 0 0 0-3.5-3.375c-.917 1.73-1.854 3.25-2.813 4.563l.438.03.438-.03 3.5-.25c.312-.042.624-.105.937-.188.167-.042.271-.063.313-.063.187 0 .458.146.812.438.438.375.656.656.656.844 0 .187-.26.302-.781.344l-2.594.187-.031 2.656 1.5-.094c.312-.02.677-.083 1.094-.187.166-.042.281-.063.344-.063.25 0 .552.167.906.5.375.313.562.573.562.782 0 .25-.25.396-.75.437l-3.687.219-.063 7.438a64.589 64.589 0 0 0 3.906-1.22 2.43 2.43 0 0 1 .813-.156c.271 0 .406.073.406.22 0 .312-.781.833-2.343 1.562a56.634 56.634 0 0 1-5.094 2c-1.813.646-2.927.969-3.344.969-.292 0-.604-.136-.938-.407a2.776 2.776 0 0 1-.781-1.031.537.537 0 0 1-.093-.25c0-.125.135-.188.406-.188.916 0 2.687-.343 5.312-1.03l.063-7.782-2.469.156Zm-1.438 1.813c0-.209.146-.375.438-.5.292-.125.51-.188.656-.188.25 0 .438.156.563.469.458.958.833 1.875 1.125 2.75.291.854.437 1.323.437 1.406 0 .271-.166.469-.5.594-.333.125-.583.188-.75.188a.55.55 0 0 1-.406-.157c-.083-.104-.146-.27-.187-.5a23.111 23.111 0 0 0-1.219-3.562c-.104-.209-.157-.375-.157-.5Zm6.063 4.187c0-.208.073-.458.219-.75.896-1.979 1.344-3.375 1.344-4.187l-.032-.281-.031-.22c0-.228.094-.343.281-.343.25 0 .594.146 1.032.438.437.291.656.562.656.812 0 .083-.011.135-.032.156-.75 1.563-1.427 2.73-2.031 3.5-.583.771-.989 1.156-1.219 1.156-.124 0-.187-.093-.187-.28Zm2.906 4.313c0-.209.396-.48 1.188-.813 2.396-.958 4.458-1.896 6.187-2.812l-.656-.938a21.08 21.08 0 0 1-1.438-2.625l-2.156.344a8.508 8.508 0 0 1-.75.063c-.375 0-.677-.094-.906-.282-.208-.187-.406-.49-.594-.906a.73.73 0 0 1-.094-.281c0-.084.053-.125.157-.125.104 0 .187.01.25.031.25.042.458.063.625.063.291 0 .604-.032.937-.094l1.907-.313a30.088 30.088 0 0 1-.938-2.937c-.125-.48-.344-.844-.656-1.094-.209-.167-.313-.292-.313-.375 0-.167.261-.25.781-.25.667 0 1.126.083 1.376.25.25.146.395.292.437.438A23.914 23.914 0 0 0 242 75.874l6.438-1a4.067 4.067 0 0 0 1-.281c.208-.084.343-.125.406-.125.208 0 .479.146.812.437.354.292.532.552.532.781 0 .23-.23.376-.688.438l-7.875 1.25c.375.75.687 1.333.937 1.75.271.396.563.792.876 1.188 1.25-.75 2.124-1.355 2.624-1.813.5-.458.792-.854.876-1.188.062-.27.166-.406.312-.406.188 0 .406.25.656.75.25.48.375.854.375 1.125 0 .146-.062.271-.187.375a27.513 27.513 0 0 1-3.532 2.375 15.71 15.71 0 0 0 2.126 1.75c.729.48 1.354.834 1.874 1.063.521.25.834.375.938.375.146 0 .281-.084.406-.25.125-.146.271-.5.438-1.063.187-.562.427-1.437.718-2.625.084-.333.178-.594.282-.781.125-.208.229-.313.312-.313.209 0 .313.323.313.97v.218c-.063 1.688-.157 2.948-.281 3.781-.126.854-.303 1.427-.532 1.719-.208.313-.521.469-.937.469-1.084 0-2.313-.469-3.688-1.406a21.4 21.4 0 0 1-3.593-3.032c-1.355.667-2.896 1.26-4.626 1.781-1.708.542-2.833.813-3.374.813-.271 0-.407-.052-.407-.156Zm.688-20.344c0-.083.052-.125.156-.125.083 0 .156.01.219.031.291.042.5.063.625.063.271 0 .573-.031.906-.094l2.063-.344c-.376-.875-.803-2.02-1.282-3.437a1.934 1.934 0 0 0-.75-1.063c-.166-.125-.25-.229-.25-.312 0-.167.261-.25.782-.25 1.062 0 1.645.198 1.75.593.374 1.521.864 2.928 1.468 4.22l5.875-.938c.167-.021.5-.115 1-.282a1.72 1.72 0 0 1 .344-.062c.292 0 .594.146.906.438.334.291.5.53.5.718 0 .23-.229.375-.687.438l-7.156 1.156c.52.875 1.031 1.594 1.531 2.156 1.062-.687 1.781-1.177 2.156-1.469.396-.312.635-.583.719-.812.062-.125.125-.23.187-.313.063-.104.136-.156.219-.156.167 0 .417.209.75.625.333.396.5.709.5.938a.478.478 0 0 1-.219.406c-1.229.854-2.291 1.5-3.187 1.938a10.735 10.735 0 0 0 2.094 1.5c.729.395 1.406.656 2.031.78l.156.032c.125 0 .271-.198.437-.594.188-.416.469-1.364.844-2.844.167-.624.344-.937.532-.937.083 0 .156.083.218.25.063.146.094.365.094.656v.188c-.042 1.562-.146 2.719-.312 3.469-.146.75-.323 1.218-.532 1.406-.208.166-.468.25-.781.25-.292 0-.76-.084-1.406-.25-.646-.188-1.417-.531-2.313-1.031-.896-.5-1.802-1.198-2.718-2.094-.98.416-1.969.781-2.969 1.094-1 .312-1.865.552-2.594.718-.729.146-1.167.219-1.313.219-.354 0-.531-.073-.531-.219 0-.104.084-.219.25-.344.167-.124.417-.24.75-.343 2.188-.73 3.99-1.469 5.407-2.219a18.306 18.306 0 0 1-1.782-2.719l-2.437.375a8.852 8.852 0 0 1-.719.063c-.396 0-.708-.104-.938-.313a2.666 2.666 0 0 1-.531-.875l-.062-.281Zm5.687 7.906c0-.104.032-.229.094-.375.146-.354.323-.531.531-.531.125 0 .261.031.407.094a38.76 38.76 0 0 1 2.343.937c.625.25 1.031.448 1.219.594.188.146.281.302.281.469 0 .166-.073.396-.219.687-.145.292-.343.438-.593.438-.146 0-.344-.073-.594-.219-1.167-.667-2.135-1.167-2.906-1.5-.375-.167-.563-.365-.563-.594Zm0-12.156c0-.104.073-.292.219-.563.146-.27.323-.406.531-.406.125 0 .573.136 1.344.407.792.27 1.51.572 2.156.906.646.333.969.625.969.875 0 .166-.083.406-.25.718-.167.292-.344.438-.531.438-.125 0-.323-.083-.594-.25a24.357 24.357 0 0 0-3.219-1.594c-.416-.166-.625-.343-.625-.531Z"/></svg>