<svg xmlns="http://www.w3.org/2000/svg" width="350" height="88" fill="none"><path fill="#333" d="M158.934 8.2c-.164 0-.082-.141.246-.423l1.195-1.02c.469-.421.996-.972 1.582-1.652.375-.445.656-.914.844-1.406.117-.281.246-.422.387-.422.117 0 .292.094.527.282.469.375.703.691.703.949 0 .164-.094.281-.281.351-.094.024-.235.13-.422.317a9.14 9.14 0 0 0-.422.386c-1.008.985-1.945 1.7-2.813 2.145-.703.328-1.171.492-1.406.492h-.14Zm3.691 6.538c-.07 0-.187-.093-.352-.281a2.99 2.99 0 0 1-.316-.598 2.004 2.004 0 0 1 0-.527c.047-.234.07-.41.07-.527.047-.47.071-.844.071-1.125a5.16 5.16 0 0 0 0-.844v-.598l-.036-.527c-.562.398-.996.68-1.3.844-.68.375-1.172.61-1.477.703-.375.14-.715.21-1.019.21-.164 0-.258-.023-.282-.07-.046-.093.422-.433 1.407-1.02.937-.585 1.957-1.358 3.058-2.32.61-.562 1.078-1.101 1.406-1.617a.77.77 0 0 0 .106-.246c.047-.117.094-.187.141-.21.07-.024.164-.012.281.035.305.164.562.398.773.703a.562.562 0 0 1 .141.351c0 .117-.059.235-.176.352a1.396 1.396 0 0 1-.351.21c-.399.259-.762.54-1.09.844-.328.305-.539.504-.633.598.351.281.527.48.527.598l-.105.738c-.047.211-.071.738-.071 1.582 0 .82.024 1.371.071 1.652v.07a.868.868 0 0 1-.106.387c-.047.118-.082.2-.105.247-.164.257-.375.386-.633.386Zm3.586 8.93c-.352 0-.691-.258-1.02-.773-.421-.657-.832-1.196-1.23-1.618l-.914-.949a14.424 14.424 0 0 1-1.301 1.336 6.992 6.992 0 0 1-1.336.95c-1.008.585-1.851.878-2.531.878-.164 0-.246-.058-.246-.176 0-.07.222-.222.668-.457a7.422 7.422 0 0 0 1.265-.843c1.008-.844 1.84-1.711 2.496-2.602-.14-.14-.843-.75-2.109-1.828-.164-.117-.41-.316-.738-.598a9.494 9.494 0 0 1-.422-.316c-.211-.164-.316-.281-.316-.352 0-.117.058-.175.175-.175.352 0 .914.246 1.688.738a25.67 25.67 0 0 1 2.426 1.687 6.91 6.91 0 0 0 .773-1.125c.188-.351.399-.785.633-1.3a2.41 2.41 0 0 0 .211-.668c.023-.211.035-.34.035-.387 0-.258.07-.387.211-.387.164 0 .387.129.668.387.492.469.738.785.738.95 0 .093-.058.198-.176.316-.281.28-.539.656-.773 1.124-.141.282-.398.68-.774 1.196-.117.14-.21.27-.281.387-.07.117-.14.222-.211.316.539.398 1.336 1.078 2.391 2.039.258.234.422.457.492.668.094.187.141.445.141.773 0 .235-.059.434-.176.598a.567.567 0 0 1-.457.211Zm.633 4.64c.258.282.386.516.386.704 0 .164-.093.316-.281.457-.117.093-.41.61-.879 1.547-.515.843-1.09 1.57-1.722 2.18-.61.632-1.219 1.09-1.828 1.37-.141.047-.258.07-.352.07-.094 0-.141-.023-.141-.07v-.07c0-.14.118-.305.352-.492.422-.328.738-.668.949-1.02l.527-.738c.493-.703.844-1.277 1.055-1.723a4.19 4.19 0 0 0 .492-1.23h-.14c-.61 0-1.594.07-2.953.21-.211.024-.821.106-1.829.247-.21.023-.539.082-.984.176l-.422.105a.623.623 0 0 1-.281.07.946.946 0 0 1-.352-.07 3.198 3.198 0 0 1-.351-.246c-.281-.234-.422-.433-.422-.598.023-.046.047-.117.07-.21a.567.567 0 0 0 .071-.247l.175-1.16c.024-.117.047-.246.071-.386a2.61 2.61 0 0 0 .035-.422c0-.446-.012-.797-.035-1.055a3.87 3.87 0 0 0-.106-.879v-.105c0-.164.071-.246.211-.246.141 0 .387.105.738.316.469.328.704.586.704.773 0 .07-.012.13-.036.176a9.186 9.186 0 0 1-.07.14c-.07.423-.105.657-.105.704l-.176 1.863a.34.34 0 0 0 .07.176c.07.047.141.07.211.07.563 0 1.828-.14 3.797-.422.773-.07 1.324-.152 1.652-.246.211-.023.387-.058.528-.105.164-.07.269-.106.316-.106a1.15 1.15 0 0 1 .281-.07c.211 0 .469.188.774.563Zm-22.606-6.855c.258 0 .504.07.739.211a36.808 36.808 0 0 1-2.778-3.48l-7.137.351a29.799 29.799 0 0 1-2.32 3.164c.281.07.645.176 1.09.317l10.195-.563h.211Zm-22.429 7.91c0-.21.257-.504.773-.879 4.266-2.882 7.606-6.152 10.02-9.808l-6.469.316-.844.035c-.211 0-.363-.011-.457-.035-.211 0-.375-.058-.492-.176-.539-.445-.867-.949-.985-1.511a.398.398 0 0 1-.035-.176c0-.164.071-.246.211-.246l.176.035a6.07 6.07 0 0 0 1.477.176h.281l8.332-.422.211-.387c.375-.68.773-1.535 1.195-2.566l-3.129.176c-.211.023-.48.035-.808.035-.493 0-.891-.13-1.196-.387-.304-.258-.515-.527-.632-.809-.118-.304-.176-.504-.176-.597 0-.117.07-.176.211-.176l.175.035c.422.07.856.106 1.301.106h.457l4.465-.282c.211-.586.445-1.43.703-2.53l-6.961.456a6.186 6.186 0 0 1-.738.035c-.469 0-.891-.105-1.266-.316-.375-.211-.691-.656-.949-1.336l-.035-.211c0-.164.094-.246.281-.246l.176.035c.656.094 1.16.14 1.512.14h.351l7.981-.492c.211-1.125.316-1.898.316-2.32 0-.469-.082-.879-.246-1.23-.07-.188-.105-.317-.105-.387 0-.211.14-.316.421-.316.352 0 .833.093 1.442.28.633.188.949.516.949.985l-.035.352a79.581 79.581 0 0 1-.422 2.496l7.137-.457c.258-.024.738-.14 1.441-.352.141-.047.235-.07.281-.07.329 0 .727.223 1.196.668.492.422.738.762.738 1.02 0 .257-.258.41-.773.456l-10.407.668a177.6 177.6 0 0 1-.632 2.532l5.589-.317a6.484 6.484 0 0 0 1.336-.246c.141-.047.246-.07.317-.07.281 0 .644.2 1.09.598.468.398.703.714.703.949 0 .14-.645.281-1.934.422-1.266.14-3.844.328-7.734.562a29.037 29.037 0 0 1-1.336 2.988l13.957-.703a4.85 4.85 0 0 0 1.512-.316c.046-.024.14-.035.281-.035.234 0 .492.105.773.316.305.211.563.457.774.738.211.258.316.446.316.563 0 .281-.269.445-.809.492l-8.578.422a30.768 30.768 0 0 0 4.641 4.746c1.664 1.36 3.551 2.531 5.66 3.516.469.21.703.398.703.562 0 .117-.117.305-.351.563a4.41 4.41 0 0 1-.774.668c-.281.187-.539.28-.773.28-.164 0-.645-.222-1.442-.667-.773-.445-1.722-1.102-2.847-1.969-1.102-.867-2.239-1.91-3.41-3.129a.398.398 0 0 1 .035.176c0 .07-.035.188-.106.352a1.15 1.15 0 0 0-.07.351l-.492 7.805c.609.773.914 1.312.914 1.617 0 .188-.094.305-.281.352-.164.047-.422.07-.774.07l-10.793.281.035.88v.105c0 .468-.222.703-.668.703-.304 0-.668-.117-1.089-.352-.422-.234-.633-.586-.633-1.055v-.14c0-.235.023-.563.07-.985a9.36 9.36 0 0 0 .07-.949v-.316l-.492-7.664c0-.14-.012-.27-.035-.387l-.07-.352c-1.289 1.36-2.614 2.52-3.973 3.48-1.336.962-2.519 1.7-3.551 2.216-1.008.515-1.629.773-1.863.773-.211 0-.316-.07-.316-.21Zm12.129-2.672 9.421-.351.106-2.883-9.668.457.141 2.777Zm.281 4.922 8.929-.21.141-3.2-9.246.352.176 3.058ZM219.121 14.387c-.164 0-.34-.106-.527-.317a2.153 2.153 0 0 1-.282-.386c-.046-.118-.046-.27 0-.457l.036-.844c.023-.164.035-.563.035-1.195v-1.16l-1.055.492-1.23.527a10.87 10.87 0 0 0-.95.422c-.281.14-.527.21-.738.21a2.173 2.173 0 0 1-.562-.175 4.837 4.837 0 0 1-.493-.246c-.257-.164-.375-.34-.351-.527l.105-.352c0-.188.012-.352.036-.492l.035-2.04V5.95c0-.375-.024-.691-.071-.949-.047-.281-.082-.48-.105-.598 0-.117.035-.199.105-.246.024-.023.082-.035.176-.035.164 0 .481.106.949.316.399.188.563.422.493.704-.047.164-.094.41-.141.738l-.106 4.043c0 .117.012.21.036.281.046.047.093.07.14.07.282 0 .621-.082 1.02-.246.75-.234 1.394-.468 1.933-.703l.774-.316v-2.32c0-.938-.059-1.84-.176-2.708a.792.792 0 0 1-.035-.246c0-.234.094-.351.281-.351.024 0 .152.047.387.14.351.188.609.352.773.493.164.14.258.222.282.246.093.07.14.14.14.21a.34.34 0 0 1-.07.176c-.024.07-.047.13-.07.176l-.106 1.055-.035 3.234.035 3.13a8.23 8.23 0 0 1-.105 1.405c-.118.493-.305.739-.563.739Zm-6.469 5.765c-.257 0-.574-.199-.949-.597-.281-.282-.422-.492-.422-.633 0-.07.047-.106.141-.106a1.48 1.48 0 0 1 .351-.035l.774-.035c.445 0 .738-.012.879-.035.445 0 .82-.012 1.125-.035 2.015-.188 3.375-.34 4.078-.457a29.8 29.8 0 0 0 .949-.14c.281-.071.504-.106.668-.106.328 0 .656.164.984.492.258.258.387.469.387.633 0 .14-.082.234-.246.28-.117.024-.809.071-2.074.142-.703.023-1.57.082-2.602.175a92.491 92.491 0 0 0-2.707.282c-.14.023-.34.058-.597.105-.258.047-.504.07-.739.07Zm4.711 14.52c-.726 0-1.289-.024-1.687-.07a1.68 1.68 0 0 1-.949-.422c-.446-.328-.75-1.043-.915-2.145l-.105-1.125c0-.281-.023-.633-.07-1.055a5.987 5.987 0 0 0-.809.141 3.817 3.817 0 0 1-.246.106.965.965 0 0 1-.211.035.81.81 0 0 1-.457-.14c-.141-.095-.316-.27-.527-.528-.164-.211-.246-.352-.246-.422s.082-.117.246-.14c.164-.024.386-.036.668-.036.398 0 .914-.047 1.547-.14l-.036-.493c0-.937-.058-1.734-.175-2.39l-.036-.246c0-.329.129-.457.387-.387.281.094.539.21.774.351.187.094.316.188.386.282.071.07.094.175.071.316l-.106 1.512v.914l3.094-.317c0-.164.012-.55.035-1.16.024-.633.024-1.043 0-1.23 0-.188-.023-.363-.07-.527a6.529 6.529 0 0 0-.071-.458c0-.187.094-.28.282-.28.187 0 .422.105.703.316.328.21.539.398.633.562.117.164.14.363.07.598a6.4 6.4 0 0 0-.246 1.265c-.047.47-.07.75-.07.844.281-.023.539-.058.773-.105.234-.047.387-.07.457-.07.188-.047.41-.071.668-.071.141.023.34.164.598.422.211.281.316.504.316.668 0 .234-.223.328-.668.281a6.863 6.863 0 0 0-1.195-.105c-.399 0-.738.011-1.02.035-.07.844-.211 1.676-.422 2.496a.953.953 0 0 1-.246.457c-.117.14-.222.21-.316.21-.164 0-.27-.07-.317-.21a3.524 3.524 0 0 1-.035-.598c.047-.61.071-1.37.071-2.285a26.99 26.99 0 0 0-1.477.14 9.357 9.357 0 0 1-1.512.212c-.023.96.024 1.816.141 2.566.07.492.211.832.422 1.02.14.117.305.187.492.21.211.024.422.036.633.036h.422c.726 0 1.406-.035 2.039-.106a1.52 1.52 0 0 0 .492-.14c.164-.07.281-.106.352-.106.21 0 .421.07.632.211.211.14.317.305.317.492 0 .188-.106.328-.317.422-.187.094-.492.176-.914.246-.75.094-1.5.14-2.25.14Zm10.02-15.996c.281 0 .422.129.422.387 0 .14-.129.34-.387.597-.703.867-2.098 2.52-4.184 4.957-.164.211-.316.317-.457.317-.117 0-.375-.176-.773-.528-.328-.281-.492-.515-.492-.703 0-.21.176-.41.527-.598.539-.304 1.348-.914 2.426-1.828 1.078-.96 1.875-1.722 2.39-2.285.211-.21.387-.316.528-.316Zm-44.684 11.496c2.086-.656 3.949-1.371 5.59-2.145a25.586 25.586 0 0 0-1.336-1.687c-.187-.235-.281-.422-.281-.563 0-.258.152-.48.457-.668.305-.21.539-.316.703-.316.188 0 .387.117.598.352a137.853 137.853 0 0 1 3.41 4.148c.937 1.195 1.406 1.922 1.406 2.18 0 .21-.164.457-.492.738-.305.305-.598.457-.879.457-.234 0-.469-.188-.703-.563a96.435 96.435 0 0 0-1.828-2.671l-4.219 2.109c-.469.21-1.207.586-2.215 1.125-.844.445-1.359.668-1.547.668-.14 0-.316-.094-.527-.281a1.65 1.65 0 0 1-.492-.633c-.094-.234-.094-.422 0-.563.14-.257.211-1.289.211-3.093V16.602c0-.563-.024-1.02-.071-1.372a3.587 3.587 0 0 0-.281-1.125 1.37 1.37 0 0 0-.07-.175.305.305 0 0 1-.035-.14c0-.118.082-.177.246-.177.304 0 1.066.258 2.285.774l7.629-.528c.187-.023.398-.035.633-.035.257 0 .562.117.914.352.351.21.527.445.527.703 0 .094-.059.234-.176.422-.094.187-.14.328-.14.422l-.914 6.609c.562.656.843 1.102.843 1.336 0 .117-.07.2-.211.246-.117.047-.304.07-.562.07l-8.508.317.035 5.87Zm-5.765-15.785c0-.235.152-.516.457-.844 1.711-1.898 3.199-3.785 4.464-5.66 1.266-1.875 1.899-3.13 1.899-3.762l-.035-.246V3.77c0-.329.129-.493.386-.493.305 0 .727.211 1.266.633.563.399.844.727.844.985 0 .117-.059.27-.176.457a23.895 23.895 0 0 1-1.16 1.687l4.992-.387a4.872 4.872 0 0 0 1.336-.28c.141-.048.246-.071.316-.071.352 0 .727.199 1.125.597.422.375.633.668.633.88 0 .28-.258.445-.773.492l-6.012.421c.164.047.527.293 1.09.739.586.445 1.113.902 1.582 1.37.469.47.703.798.703.985 0 .211-.141.469-.422.774-.281.28-.527.421-.738.421-.188 0-.41-.152-.668-.457a21.787 21.787 0 0 0-2.426-2.285c-.281-.234-.422-.433-.422-.597 0-.118.059-.27.176-.457.117-.188.27-.34.457-.457l-2.355.175a34.406 34.406 0 0 1-3.727 3.903c-1.359 1.195-2.226 1.793-2.601 1.793-.141 0-.211-.07-.211-.211Zm12.656 3.656.246-2.461-7.242.492v2.32l6.996-.351Zm-.457 4.36.281-2.708-6.785.317v2.636l6.504-.246Zm1.898-9.528c0-.234.153-.516.457-.844 1.149-1.383 2.192-2.941 3.129-4.676.961-1.757 1.442-2.988 1.442-3.69v-.142c0-.351.129-.527.386-.527.164 0 .41.094.739.281.351.164.668.364.949.598.281.234.422.469.422.703 0 .211-.164.586-.493 1.125-.328.54-.503.82-.527.844l6.926-.563a6.483 6.483 0 0 0 1.336-.246c.047-.023.141-.035.281-.035.328 0 .68.188 1.055.563.398.351.597.644.597.879 0 .14-.07.257-.21.351-.118.07-.282.117-.493.14l-7.136.493c.656.422 1.429 1.043 2.32 1.863.891.797 1.336 1.336 1.336 1.617 0 .164-.129.422-.387.774-.258.328-.504.492-.738.492-.188 0-.387-.117-.598-.352-1.148-1.242-2.191-2.226-3.129-2.953-.234-.187-.351-.363-.351-.527 0-.188.176-.469.527-.844l-2.601.176c-.774 1.031-1.711 2.074-2.813 3.129-1.078 1.055-1.805 1.582-2.18 1.582-.164 0-.246-.07-.246-.211Zm3.305.773c0-.14.082-.21.246-.21.352 0 1.148.292 2.391.878l7.066-.597.281-.035c.094 0 .27.046.528.14.281.07.539.2.773.387.258.164.387.387.387.668 0 .094-.035.223-.106.387-.07.164-.105.28-.105.351a88.243 88.243 0 0 1-.492 8.262l-.071.879c-.07.984-.164 1.805-.281 2.46-.117.657-.316 1.173-.598 1.548-.445.609-.925.914-1.441.914s-1.172-.317-1.969-.95a18.576 18.576 0 0 1-2.215-2.074c-.656-.75-.984-1.23-.984-1.441 0-.164.094-.246.281-.246.211 0 .504.117.879.351.867.54 1.594.973 2.18 1.301.586.328 1.008.492 1.266.492.117 0 .199-.082.246-.246.539-3 .867-6.762.984-11.285l-6.609.492c0 3.961.035 10.242.105 18.844 0 .21-.058.363-.176.457a.466.466 0 0 1-.386.176c-.188 0-.411-.07-.668-.211-.446-.188-.762-.363-.95-.528-.187-.164-.281-.351-.281-.562l.035-.246c.141-.773.211-1.64.211-2.602l-.105-14.836c0-.609-.024-1.078-.07-1.406a3.306 3.306 0 0 0-.211-.95c-.094-.28-.141-.468-.141-.562ZM167.188 71.281c-.313 0-.615-.229-.907-.687a9.902 9.902 0 0 0-1.093-1.438l-.813-.844c-.437.5-.823.896-1.156 1.188a6.255 6.255 0 0 1-1.188.844c-.896.52-1.646.781-2.25.781-.146 0-.219-.052-.219-.156 0-.063.198-.198.594-.406a6.591 6.591 0 0 0 1.125-.75c.896-.75 1.636-1.521 2.219-2.313-.125-.125-.75-.667-1.875-1.625a10.415 10.415 0 0 1-.656-.531 7.711 7.711 0 0 1-.375-.281c-.188-.146-.282-.25-.282-.313 0-.104.053-.156.157-.156.312 0 .812.219 1.5.656.687.417 1.406.917 2.156 1.5.292-.354.521-.688.687-1 .167-.313.355-.698.563-1.156.104-.23.167-.427.187-.594.021-.188.032-.302.032-.344 0-.229.062-.343.187-.343.146 0 .344.114.594.343.437.417.656.698.656.844 0 .083-.052.177-.156.281-.25.25-.479.584-.687 1-.126.25-.355.604-.688 1.063a2.76 2.76 0 0 0-.25.344 3.078 3.078 0 0 1-.188.28c.48.355 1.188.96 2.126 1.813.229.209.374.406.437.594.083.167.125.396.125.688a.891.891 0 0 1-.156.53.504.504 0 0 1-.406.188Zm-.75 11.344a.56.56 0 0 1-.282-.094 13.272 13.272 0 0 1-.406-.344c-.729-.562-1.438-1.406-2.125-2.53A11.94 11.94 0 0 1 162.156 76a5.64 5.64 0 0 0-.094-.438 1.946 1.946 0 0 0-.124-.374c0-.021-.032-.032-.094-.032-.146 0-.427.094-.844.281a1.47 1.47 0 0 0-.375.282c-.104.104-.219.146-.344.125-.083 0-.198-.052-.343-.156a1.456 1.456 0 0 1-.313-.282c-.208-.291-.313-.469-.313-.531 0-.125.115-.198.344-.219.313 0 .511-.01.594-.031a9.018 9.018 0 0 0 1.719-.406c.083-.021.198-.084.343-.188.021 0 .053-.01.094-.031.063-.02.136 0 .219.063.313.208.469.364.469.468 0 1.459.416 2.823 1.25 4.094.833 1.27 2.052 2.344 3.656 3.219.083.041.188.083.312.125.126.041.188.104.188.187 0 .104-.344.198-1.031.281l-.781.126-.25.062Zm7.124-13.906c.25 0 .376.114.376.344 0 .124-.115.302-.344.53-.625.772-1.865 2.24-3.719 4.407-.146.188-.281.281-.406.281-.104 0-.334-.156-.688-.469-.291-.25-.437-.458-.437-.624 0-.188.156-.365.468-.532.48-.27 1.198-.812 2.157-1.625.958-.854 1.666-1.531 2.125-2.031.187-.188.344-.281.468-.281Zm-40.843 17.75c0 .541-.157.812-.469.812-.292 0-.635-.135-1.031-.406-.396-.25-.594-.583-.594-1 0-.167.01-.302.031-.406.104-.48.156-1.156.156-2.031V62.25c0-.604-.135-1.167-.406-1.688-.125-.25-.187-.437-.187-.562 0-.125.093-.188.281-.188.312 0 1.062.209 2.25.626l19.938-1h.281c.416 0 .791.124 1.125.374.333.23.5.49.5.782a.96.96 0 0 1-.094.343.73.73 0 0 0-.094.282l-.094 22.093c.667.73 1 1.22 1 1.47 0 .124-.072.208-.218.25a1.504 1.504 0 0 1-.469.062c-.187.02-.323.031-.406.031l-21.5.5v.844Zm0-2.563 19.687-.531.063-22.219-19.813.907.063 21.843Zm.843-16.5c0-.125.084-.187.25-.187.105 0 .188.01.25.031.313.083.646.125 1 .125h.313l4.469-.25.406-1.563-2.156.126h-.469c-.396 0-.677-.053-.844-.157a1.645 1.645 0 0 1-.562-.625c-.125-.291-.188-.52-.188-.687 0-.084.063-.125.188-.125l.281.062c.396.084.823.125 1.281.125h.407l2.406-.156.094-.5c.041-.167.062-.302.062-.406 0-.084-.042-.334-.125-.75l-.031-.125c0-.167.114-.25.344-.25.187 0 .531.083 1.031.25.5.166.75.354.75.562a.553.553 0 0 1-.031.219l-.219.906 4-.25a.945.945 0 0 1 .281-.031c.312 0 .604.115.875.344.271.208.406.406.406.594a.628.628 0 0 1-.125.343c-.083.104-.125.188-.125.25l-.343 1.469.937-.063a5.12 5.12 0 0 0 1.187-.218c.126-.042.23-.063.313-.063.313 0 .625.156.937.469.334.313.5.552.5.719 0 .25-.302.396-.906.437l-14.875.781h-.343c-.396 0-.719-.104-.969-.312a2.04 2.04 0 0 1-.5-.656c-.104-.23-.157-.375-.157-.438Zm.75 8.406c0-.124.063-.187.188-.187.042 0 .146.02.312.063.313.083.646.124 1 .124h.282l5.937-.28.031-1.47-3 .126v.187c0 .354-.166.531-.5.531-.25 0-.552-.083-.906-.25-.333-.166-.5-.364-.5-.594l.032-.187c.02-.125.031-.302.031-.531 0-.188-.011-.313-.031-.375L137 71.375c-.021-.313-.135-.698-.344-1.156-.104-.25-.156-.417-.156-.5 0-.146.104-.219.312-.219.313 0 .896.146 1.75.438l8.126-.438h.281c.25 0 .51.104.781.313.292.187.438.385.438.593 0 .084-.042.177-.126.281a.798.798 0 0 0-.124.22l-.469 1.687c.437.437.656.75.656.937 0 .104-.063.177-.187.219-.105.02-.261.042-.469.063l-3.688.156v1.469l3.438-.157a6.18 6.18 0 0 0 1-.156c.166-.042.302-.063.406-.063.208 0 .417.084.625.25.208.146.385.323.531.532.146.187.219.323.219.406 0 .208-.26.333-.781.375l-5.438.25v1.938l4.469-.22a4.69 4.69 0 0 0 .969-.187.649.649 0 0 1 .25-.031c.104 0 .281.063.531.188.25.104.469.25.656.437.209.167.313.344.313.531 0 .25-.271.396-.813.438l-6.375.25v2.375c0 .437-.156.656-.469.656-.229 0-.541-.104-.937-.313-.375-.208-.563-.458-.563-.75l.032-.187c.041-.27.094-.833.156-1.688l-3.875.157c-.208.02-.396.052-.563.094-.166.02-.322.03-.468.03-.188 0-.417-.083-.688-.25-.271-.187-.406-.416-.406-.687 0-.062.042-.26.125-.594l.313-.78c.083-.188.124-.376.124-.563 0-.104-.02-.24-.062-.406l-.031-.094h-.157l-.562.031c-.458 0-.812-.167-1.062-.5-.25-.354-.376-.667-.376-.938Zm3.5 1.344c.417.167.626.375.626.625l-.063.25-.437 1.031 4.062-.187.031-1.906-4.219.187Zm1.094-4.312 6.875-.313.313-1.656-7.375.406.187 1.563Zm6.719-6 .344-1.625-3.875.219-.438 1.593 3.969-.187ZM212.531 72c-.333 0-.541-.094-.625-.281a4.346 4.346 0 0 0-.312-.625c-.104-.188-.292-.406-.563-.656l.063-.126c.75.271 1.239.407 1.468.407.167 0 .292-.031.376-.094.083-.063.218-.208.406-.438.271-.291.521-.74.75-1.343.312-.896.51-1.823.594-2.781v-.094c0-.125-.021-.209-.063-.25-.271 0-.99.062-2.156.187-.646 1.604-1.396 2.927-2.25 3.969-.834 1.02-1.594 1.531-2.281 1.531-.167 0-.25-.062-.25-.187 0-.042.208-.281.624-.719.417-.438.876-1.01 1.376-1.719.52-.729 1.01-1.625 1.468-2.687-.104 0-.406.02-.906.062a6.51 6.51 0 0 0-1.281.219.495.495 0 0 1-.531.063l-.063-.032a.488.488 0 0 1-.125-.094 1.359 1.359 0 0 1-.375-.312.831.831 0 0 1-.125-.406c0-.063.052-.146.156-.25l.375-.5c.125-.167.24-.406.344-.719.104-.333.156-.615.156-.844 0-.146-.01-.24-.031-.281a.346.346 0 0 1-.031-.156c0-.104.052-.157.156-.157.125 0 .302.073.531.22.063.04.177.124.344.25.188.103.292.228.312.374 0 .146-.083.386-.25.719l-.406.719a.39.39 0 0 0-.062.219c0 .062.021.114.062.156a.39.39 0 0 0 .219 0l1.875-.25a11.01 11.01 0 0 0 .5-1.719v-.718c0-.23.062-.324.188-.282.27.063.489.146.656.25.312.188.468.344.468.469 0 .104-.041.281-.124.531-.063.23-.115.406-.157.531-.021.084-.114.354-.281.813.062 0 .448-.042 1.156-.125l.313-.063c.062 0 .177-.02.343-.062a.35.35 0 0 1 .157-.031c.25 0 .406.01.469.03.083.022.208.084.374.188.188.125.313.25.376.375.062.125.083.271.062.438l-.188 1.031-.218 1.125c0 .083-.073.354-.219.813a7.464 7.464 0 0 1-.5 1.218c-.354.709-.771 1.24-1.25 1.594-.417.333-.781.5-1.094.5Zm2.657 10.219c-.313 0-.615-.23-.907-.688a9.905 9.905 0 0 0-1.093-1.437l-.813-.844c-.437.5-.823.896-1.156 1.188a6.25 6.25 0 0 1-1.188.843c-.896.521-1.646.781-2.25.781-.146 0-.219-.052-.219-.156 0-.062.198-.198.594-.406a6.591 6.591 0 0 0 1.125-.75c.896-.75 1.636-1.52 2.219-2.313-.125-.124-.75-.666-1.875-1.624a10.426 10.426 0 0 1-.656-.532 7.616 7.616 0 0 1-.375-.281c-.188-.146-.282-.25-.282-.313 0-.104.053-.156.157-.156.312 0 .812.219 1.5.656.687.417 1.406.917 2.156 1.5.292-.354.521-.687.687-1 .167-.312.355-.697.563-1.156.104-.229.167-.427.187-.594a4.83 4.83 0 0 0 .032-.343c0-.23.062-.344.187-.344.146 0 .344.115.594.344.437.416.656.698.656.844 0 .083-.052.177-.156.28-.25.25-.479.584-.687 1-.126.25-.355.605-.688 1.063a2.76 2.76 0 0 0-.25.344 3.062 3.062 0 0 1-.188.281c.48.354 1.188.959 2.126 1.813.229.208.374.406.437.594.083.166.125.395.125.687a.89.89 0 0 1-.156.531.504.504 0 0 1-.406.188Zm6.374-13.5c.25 0 .376.114.376.344 0 .124-.115.302-.344.53-.625.772-1.865 2.24-3.719 4.407-.146.188-.281.281-.406.281-.104 0-.334-.156-.688-.469-.291-.25-.437-.458-.437-.624 0-.188.156-.365.468-.532.48-.27 1.198-.812 2.157-1.625.958-.854 1.666-1.531 2.125-2.031.187-.188.344-.281.468-.281Zm-25.906-.438c0 .23.042.396.125.5.104.104.302.167.594.188l.719.031c.958 0 1.677-.031 2.156-.094a7.8 7.8 0 0 0 1.25-.312c.188-.063.333-.094.438-.094.187 0 .416.125.687.375.271.25.406.469.406.656 0 .25-.302.417-.906.5-1.646.188-3 .281-4.063.281l-1.031-.03c-.687-.042-1.198-.188-1.531-.438-.333-.25-.5-.656-.5-1.219v-.563l-1.469.157c-.166.02-.396.031-.687.031-.354 0-.594-.063-.719-.188-.229-.229-.385-.437-.469-.624-.083-.209-.125-.355-.125-.438 0-.063.052-.094.157-.094l.218.031c.375.042.636.063.782.063l.562-.031 1.781-.156.031-1.5-4.218.218c-.042 3.854-.156 7-.344 9.438a17.814 17.814 0 0 1-1.219 5.219c-.666 1.645-1.385 2.99-2.156 4.03-.771 1.063-1.313 1.594-1.625 1.594-.146 0-.219-.104-.219-.312 0-.292.125-.615.375-.969a18.005 18.005 0 0 0 1.969-4.219c.479-1.479.813-3.218 1-5.218.208-2.021.313-4.563.313-7.625v-.844c0-.646-.032-1.156-.094-1.531a5.478 5.478 0 0 0-.25-1.125.692.692 0 0 1-.063-.313c0-.146.084-.218.25-.218.354 0 1.073.229 2.157.687l4.187-.25v-3.344c0-.541-.115-.99-.344-1.343a.502.502 0 0 1-.125-.313c0-.146.125-.219.375-.219.354 0 .75.073 1.188.219.437.146.656.417.656.813l-.031 1.406 3.344-.219c.458-.042.802-.104 1.031-.188.166-.041.271-.062.312-.062.229 0 .5.146.813.438.333.291.5.541.5.75 0 .187-.261.302-.782.343l-5.218.344-.032 1.281 7.126-.406h.281c.354 0 .666.135.937.406.292.25.438.448.438.594 0 .146-.084.313-.25.5l-.375.375c-.459.604-1 1.219-1.625 1.844-.625.604-1.094.906-1.406.906-.167 0-.25-.083-.25-.25 0-.188.124-.448.374-.781a10.42 10.42 0 0 0 1.282-2.125l-6.625.375-.031 1.437 2.156-.187a2.53 2.53 0 0 0 1-.25.83.83 0 0 1 .375-.094c.166 0 .406.125.719.375.333.23.5.448.5.656 0 .125-.105.219-.313.281-.063.021-.146.042-.25.063a.856.856 0 0 1-.187.031l-4.032.375v.375Zm-19.687 18.125c0-.229.146-.531.437-.906 1.667-2.188 2.896-4.438 3.688-6.75.812-2.333 1.229-4.875 1.25-7.625l.094-9.625c0-.458-.126-.875-.376-1.25a.791.791 0 0 1-.124-.375c0-.146.104-.219.312-.219.292 0 .656.084 1.094.25.396.146.656.282.781.407.125.124.187.312.187.562l-.124 7.563c.854-.959 1.416-1.709 1.687-2.25.271-.542.417-1 .437-1.376.042-.25.136-.374.282-.374.229 0 .531.177.906.53.375.334.562.647.562.938 0 .271-.395.886-1.187 1.844a24.564 24.564 0 0 1-2.719 2.844v.5c-.041 1.416-.156 2.666-.344 3.75 2.105 3.083 3.157 4.896 3.157 5.437 0 .209-.084.406-.25.594a1.872 1.872 0 0 1-.5.406c-.188.104-.302.156-.344.156-.229 0-.448-.24-.656-.718a39.627 39.627 0 0 0-1.875-3.656c-.479 1.77-1.156 3.385-2.032 4.843-.854 1.438-1.697 2.584-2.531 3.438-.812.854-1.354 1.281-1.625 1.281-.125 0-.187-.073-.187-.219Zm1.375-20.094c0-.395.354-.593 1.062-.593.188 0 .323.052.406.156.084.104.157.292.219.563.396 1.791.677 3.697.844 5.718v.25c0 .271-.063.459-.187.563-.105.083-.313.146-.626.187h-.218c-.292 0-.49-.062-.594-.187-.104-.125-.167-.354-.188-.688-.104-2.125-.322-3.969-.656-5.531a4.987 4.987 0 0 1-.062-.438Zm9.906 17.844c0-.104.062-.156.188-.156.104 0 .197.01.281.031.333.063.802.094 1.406.094l1.313-.031-.188-3.063c-.042-.604-.156-1.073-.344-1.406-.146-.25-.218-.427-.218-.531 0-.125.104-.188.312-.188.292 0 .906.136 1.844.406l10.187-.343h.344c.271 0 .5.073.687.219.188.124.334.27.438.437.104.146.156.25.156.313 0 .083-.041.187-.125.312-.083.125-.125.219-.125.281l-.531 3.281.906-.03c.271 0 .636-.063 1.094-.188l.125-.031c.104 0 .229.062.375.187.146.104.313.25.5.438.25.291.375.51.375.656a.307.307 0 0 1-.156.281.581.581 0 0 1-.375.125l-16.25.406h-.281c-.605 0-1.021-.083-1.25-.25-.23-.166-.438-.5-.626-1l-.062-.25Zm3.438-13.125c0-.104.072-.156.218-.156.292 0 .906.177 1.844.531l8.406-.375c.084-.02.188-.031.313-.031.208 0 .458.094.75.281.312.167.469.354.469.563a.552.552 0 0 1-.063.25 1.494 1.494 0 0 0-.094.156l-.625 4.156c.417.48.625.792.625.938 0 .083-.062.146-.187.187-.125.021-.24.042-.344.063h-.188l-8.781.312v.25c0 .334-.146.5-.437.5-.229 0-.511-.094-.844-.281-.312-.188-.469-.396-.469-.625l.031-.281c.042-.292.063-.542.063-.75v-.25l-.187-3.531c-.042-.563-.136-1-.282-1.313-.146-.292-.218-.49-.218-.594Zm1.406 13.031 2.062-.062-.062-3.375-2.188.063.188 3.374Zm.718-10 3.126-.156.031-1.375-3.25.125.093 1.406Zm.126 2.626 2.937-.126.031-1.468-3.031.125.063 1.469Zm2.75 7.28 1.906-.03.187-3.438-2.125.063.032 3.406Zm4.687-7.562.156-1.5-3.156.125-.031 1.5 3.031-.125Zm.281-2.687.125-1.406-3.343.156-.063 1.375 3.281-.125Zm.594 10.125.406-3.469-2.375.063-.187 3.468 2.156-.062Z"/></svg>