<svg width="350" height="88" viewBox="0 0 350 88" fill="none" xmlns="http://www.w3.org/2000/svg">
<path d="M158.934 8.19922C158.77 8.19922 158.852 8.05859 159.18 7.77734C159.508 7.49609 159.906 7.15625 160.375 6.75781C160.844 6.33594 161.371 5.78516 161.957 5.10547C162.332 4.66016 162.613 4.19141 162.801 3.69922C162.918 3.41797 163.047 3.27734 163.188 3.27734C163.305 3.27734 163.48 3.37109 163.715 3.55859C164.184 3.93359 164.418 4.25 164.418 4.50781C164.418 4.67188 164.324 4.78906 164.137 4.85938C164.043 4.88281 163.902 4.98828 163.715 5.17578C163.527 5.33984 163.387 5.46875 163.293 5.5625C162.285 6.54688 161.348 7.26172 160.48 7.70703C159.777 8.03516 159.309 8.19922 159.074 8.19922H158.934ZM162.625 14.7383C162.555 14.7383 162.438 14.6445 162.273 14.457C162.133 14.2461 162.027 14.0469 161.957 13.8594C161.934 13.7188 161.934 13.543 161.957 13.332C162.004 13.0977 162.027 12.9219 162.027 12.8047C162.074 12.3359 162.098 11.9609 162.098 11.6797C162.121 11.4219 162.121 11.1406 162.098 10.8359C162.098 10.5312 162.098 10.332 162.098 10.2383L162.062 9.71094C161.5 10.1094 161.066 10.3906 160.762 10.5547C160.082 10.9297 159.59 11.1641 159.285 11.2578C158.91 11.3984 158.57 11.4688 158.266 11.4688C158.102 11.4688 158.008 11.4453 157.984 11.3984C157.938 11.3047 158.406 10.9648 159.391 10.3789C160.328 9.79297 161.348 9.01953 162.449 8.05859C163.059 7.49609 163.527 6.95703 163.855 6.44141C163.902 6.37109 163.938 6.28906 163.961 6.19531C164.008 6.07812 164.055 6.00781 164.102 5.98438C164.172 5.96094 164.266 5.97266 164.383 6.01953C164.688 6.18359 164.945 6.41797 165.156 6.72266C165.25 6.83984 165.297 6.95703 165.297 7.07422C165.297 7.19141 165.238 7.30859 165.121 7.42578C165.004 7.51953 164.887 7.58984 164.77 7.63672C164.371 7.89453 164.008 8.17578 163.68 8.48047C163.352 8.78516 163.141 8.98438 163.047 9.07812C163.398 9.35938 163.574 9.55859 163.574 9.67578L163.469 10.4141C163.422 10.625 163.398 11.1523 163.398 11.9961C163.398 12.8164 163.422 13.3672 163.469 13.6484V13.7188C163.469 13.8359 163.434 13.9648 163.363 14.1055C163.316 14.2227 163.281 14.3047 163.258 14.3516C163.094 14.6094 162.883 14.7383 162.625 14.7383ZM166.211 23.668C165.859 23.668 165.52 23.4102 165.191 22.8945C164.77 22.2383 164.359 21.6992 163.961 21.2773L163.047 20.3281C162.555 20.8906 162.121 21.3359 161.746 21.6641C161.395 21.9922 160.949 22.3086 160.41 22.6133C159.402 23.1992 158.559 23.4922 157.879 23.4922C157.715 23.4922 157.633 23.4336 157.633 23.3164C157.633 23.2461 157.855 23.0938 158.301 22.8594C158.746 22.625 159.168 22.3438 159.566 22.0156C160.574 21.1719 161.406 20.3047 162.062 19.4141C161.922 19.2734 161.219 18.6641 159.953 17.5859C159.789 17.4688 159.543 17.2695 159.215 16.9883C159.145 16.9414 159.004 16.8359 158.793 16.6719C158.582 16.5078 158.477 16.3906 158.477 16.3203C158.477 16.2031 158.535 16.1445 158.652 16.1445C159.004 16.1445 159.566 16.3906 160.34 16.8828C161.113 17.3516 161.922 17.9141 162.766 18.5703C163.094 18.1719 163.352 17.7969 163.539 17.4453C163.727 17.0938 163.938 16.6602 164.172 16.1445C164.289 15.8867 164.359 15.6641 164.383 15.4766C164.406 15.2656 164.418 15.1367 164.418 15.0898C164.418 14.832 164.488 14.7031 164.629 14.7031C164.793 14.7031 165.016 14.832 165.297 15.0898C165.789 15.5586 166.035 15.875 166.035 16.0391C166.035 16.1328 165.977 16.2383 165.859 16.3555C165.578 16.6367 165.32 17.0117 165.086 17.4805C164.945 17.7617 164.688 18.1602 164.312 18.6758C164.195 18.8164 164.102 18.9453 164.031 19.0625C163.961 19.1797 163.891 19.2852 163.82 19.3789C164.359 19.7773 165.156 20.457 166.211 21.418C166.469 21.6523 166.633 21.875 166.703 22.0859C166.797 22.2734 166.844 22.5312 166.844 22.8594C166.844 23.0938 166.785 23.293 166.668 23.457C166.551 23.5977 166.398 23.668 166.211 23.668ZM166.844 28.3086C167.102 28.5898 167.23 28.8242 167.23 29.0117C167.23 29.1758 167.137 29.3281 166.949 29.4688C166.832 29.5625 166.539 30.0781 166.07 31.0156C165.555 31.8594 164.98 32.5859 164.348 33.1953C163.738 33.8281 163.129 34.2852 162.52 34.5664C162.379 34.6133 162.262 34.6367 162.168 34.6367C162.074 34.6367 162.027 34.6133 162.027 34.5664V34.4961C162.027 34.3555 162.145 34.1914 162.379 34.0039C162.801 33.6758 163.117 33.3359 163.328 32.9844C163.562 32.6562 163.738 32.4102 163.855 32.2461C164.348 31.543 164.699 30.9688 164.91 30.5234C165.145 30.125 165.309 29.7148 165.402 29.293H165.262C164.652 29.293 163.668 29.3633 162.309 29.5039C162.098 29.5273 161.488 29.6094 160.48 29.75C160.27 29.7734 159.941 29.832 159.496 29.9258L159.074 30.0312C158.98 30.0781 158.887 30.1016 158.793 30.1016C158.676 30.1016 158.559 30.0781 158.441 30.0312C158.324 29.9609 158.207 29.8789 158.09 29.7852C157.809 29.5508 157.668 29.3516 157.668 29.1875C157.691 29.1406 157.715 29.0703 157.738 28.9766C157.785 28.8828 157.809 28.8008 157.809 28.7305L157.984 27.5703C158.008 27.4531 158.031 27.3242 158.055 27.1836C158.078 27.043 158.09 26.9023 158.09 26.7617C158.09 26.3164 158.078 25.9648 158.055 25.707C158.055 25.4258 158.02 25.1328 157.949 24.8281V24.7227C157.949 24.5586 158.02 24.4766 158.16 24.4766C158.301 24.4766 158.547 24.582 158.898 24.793C159.367 25.1211 159.602 25.3789 159.602 25.5664C159.602 25.6367 159.59 25.6953 159.566 25.7422C159.543 25.7891 159.52 25.8359 159.496 25.8828C159.426 26.3047 159.391 26.5391 159.391 26.5859L159.215 28.4492C159.215 28.4961 159.238 28.5547 159.285 28.625C159.355 28.6719 159.426 28.6953 159.496 28.6953C160.059 28.6953 161.324 28.5547 163.293 28.2734C164.066 28.2031 164.617 28.1211 164.945 28.0273C165.156 28.0039 165.332 27.9688 165.473 27.9219C165.637 27.8516 165.742 27.8164 165.789 27.8164C165.93 27.7695 166.023 27.7461 166.07 27.7461C166.281 27.7461 166.539 27.9336 166.844 28.3086ZM144.238 21.4531C144.496 21.4531 144.742 21.5234 144.977 21.6641C144.039 20.6328 143.113 19.4727 142.199 18.1836L135.062 18.5352C134.43 19.543 133.656 20.5977 132.742 21.6992C133.023 21.7695 133.387 21.875 133.832 22.0156L144.027 21.4531H144.238ZM121.809 29.3633C121.809 29.1523 122.066 28.8594 122.582 28.4844C126.848 25.6016 130.188 22.332 132.602 18.6758L126.133 18.9922L125.289 19.0273C125.078 19.0273 124.926 19.0156 124.832 18.9922C124.621 18.9922 124.457 18.9336 124.34 18.8164C123.801 18.3711 123.473 17.8672 123.355 17.3047C123.332 17.2578 123.32 17.1992 123.32 17.1289C123.32 16.9648 123.391 16.8828 123.531 16.8828L123.707 16.918C124.176 17.0352 124.668 17.0938 125.184 17.0938H125.465L133.797 16.6719L134.008 16.2852C134.383 15.6055 134.781 14.75 135.203 13.7188L132.074 13.8945C131.863 13.918 131.594 13.9297 131.266 13.9297C130.773 13.9297 130.375 13.8008 130.07 13.543C129.766 13.2852 129.555 13.0156 129.438 12.7344C129.32 12.4297 129.262 12.2305 129.262 12.1367C129.262 12.0195 129.332 11.9609 129.473 11.9609L129.648 11.9961C130.07 12.0664 130.504 12.1016 130.949 12.1016H131.406L135.871 11.8203C136.082 11.2344 136.316 10.3906 136.574 9.28906L129.613 9.74609C129.426 9.76953 129.18 9.78125 128.875 9.78125C128.406 9.78125 127.984 9.67578 127.609 9.46484C127.234 9.25391 126.918 8.80859 126.66 8.12891L126.625 7.91797C126.625 7.75391 126.719 7.67188 126.906 7.67188L127.082 7.70703C127.738 7.80078 128.242 7.84766 128.594 7.84766H128.945L136.926 7.35547C137.137 6.23047 137.242 5.45703 137.242 5.03516C137.242 4.56641 137.16 4.15625 136.996 3.80469C136.926 3.61719 136.891 3.48828 136.891 3.41797C136.891 3.20703 137.031 3.10156 137.312 3.10156C137.664 3.10156 138.145 3.19531 138.754 3.38281C139.387 3.57031 139.703 3.89844 139.703 4.36719L139.668 4.71875C139.551 5.49219 139.41 6.32422 139.246 7.21484L146.383 6.75781C146.641 6.73438 147.121 6.61719 147.824 6.40625C147.965 6.35938 148.059 6.33594 148.105 6.33594C148.434 6.33594 148.832 6.55859 149.301 7.00391C149.793 7.42578 150.039 7.76562 150.039 8.02344C150.039 8.28125 149.781 8.43359 149.266 8.48047L138.859 9.14844C138.789 9.45312 138.578 10.2969 138.227 11.6797L143.816 11.3633C144.332 11.3164 144.777 11.2344 145.152 11.1172C145.293 11.0703 145.398 11.0469 145.469 11.0469C145.75 11.0469 146.113 11.2461 146.559 11.6445C147.027 12.043 147.262 12.3594 147.262 12.5938C147.262 12.7344 146.617 12.875 145.328 13.0156C144.062 13.1562 141.484 13.3438 137.594 13.5781C137.242 14.5156 136.797 15.5117 136.258 16.5664L150.215 15.8633C150.73 15.8398 151.234 15.7344 151.727 15.5469C151.773 15.5234 151.867 15.5117 152.008 15.5117C152.242 15.5117 152.5 15.6172 152.781 15.8281C153.086 16.0391 153.344 16.2852 153.555 16.5664C153.766 16.8242 153.871 17.0117 153.871 17.1289C153.871 17.4102 153.602 17.5742 153.062 17.6211L144.484 18.043C145.914 19.8477 147.461 21.4297 149.125 22.7891C150.789 24.1484 152.676 25.3203 154.785 26.3047C155.254 26.5156 155.488 26.7031 155.488 26.8672C155.488 26.9844 155.371 27.1719 155.137 27.4297C154.926 27.6641 154.668 27.8867 154.363 28.0977C154.082 28.2852 153.824 28.3789 153.59 28.3789C153.426 28.3789 152.945 28.1562 152.148 27.7109C151.375 27.2656 150.426 26.6094 149.301 25.7422C148.199 24.875 147.062 23.832 145.891 22.6133C145.914 22.6602 145.926 22.7188 145.926 22.7891C145.926 22.8594 145.891 22.9766 145.82 23.1406C145.773 23.2812 145.75 23.3984 145.75 23.4922L145.258 31.2969C145.867 32.0703 146.172 32.6094 146.172 32.9141C146.172 33.1016 146.078 33.2188 145.891 33.2656C145.727 33.3125 145.469 33.3359 145.117 33.3359L134.324 33.6172L134.359 34.4961V34.6016C134.359 35.0703 134.137 35.3047 133.691 35.3047C133.387 35.3047 133.023 35.1875 132.602 34.9531C132.18 34.7188 131.969 34.3672 131.969 33.8984V33.7578C131.969 33.5234 131.992 33.1953 132.039 32.7734C132.086 32.3516 132.109 32.0352 132.109 31.8242V31.5078L131.617 23.8438C131.617 23.7031 131.605 23.5742 131.582 23.457C131.559 23.3398 131.535 23.2227 131.512 23.1055C130.223 24.4648 128.898 25.625 127.539 26.5859C126.203 27.5469 125.02 28.2852 123.988 28.8008C122.98 29.3164 122.359 29.5742 122.125 29.5742C121.914 29.5742 121.809 29.5039 121.809 29.3633ZM133.938 26.6914L143.359 26.3398L143.465 23.457L133.797 23.9141L133.938 26.6914ZM134.219 31.6133L143.148 31.4023L143.289 28.2031L134.043 28.5547L134.219 31.6133Z" fill="#333333"/>
<path d="M219.121 14.3867C218.957 14.3867 218.781 14.2812 218.594 14.0703C218.453 13.9062 218.359 13.7773 218.312 13.6836C218.266 13.5664 218.266 13.4141 218.312 13.2266L218.348 12.3828C218.371 12.2188 218.383 11.8203 218.383 11.1875V10.0273L217.328 10.5195L216.098 11.0469C215.793 11.1641 215.477 11.3047 215.148 11.4688C214.867 11.6094 214.621 11.6797 214.41 11.6797C214.246 11.6562 214.059 11.5977 213.848 11.5039C213.637 11.4102 213.473 11.3281 213.355 11.2578C213.098 11.0938 212.98 10.918 213.004 10.7305L213.109 10.3789C213.109 10.1914 213.121 10.0273 213.145 9.88672L213.18 7.84766V5.94922C213.18 5.57422 213.156 5.25781 213.109 5C213.062 4.71875 213.027 4.51953 213.004 4.40234C213.004 4.28516 213.039 4.20312 213.109 4.15625C213.133 4.13281 213.191 4.12109 213.285 4.12109C213.449 4.12109 213.766 4.22656 214.234 4.4375C214.633 4.625 214.797 4.85938 214.727 5.14062C214.68 5.30469 214.633 5.55078 214.586 5.87891L214.48 9.92188C214.48 10.0391 214.492 10.1328 214.516 10.2031C214.562 10.25 214.609 10.2734 214.656 10.2734C214.938 10.2734 215.277 10.1914 215.676 10.0273C216.426 9.79297 217.07 9.55859 217.609 9.32422L218.383 9.00781V6.6875C218.383 5.75 218.324 4.84766 218.207 3.98047C218.184 3.91016 218.172 3.82812 218.172 3.73438C218.172 3.5 218.266 3.38281 218.453 3.38281C218.477 3.38281 218.605 3.42969 218.84 3.52344C219.191 3.71094 219.449 3.875 219.613 4.01562C219.777 4.15625 219.871 4.23828 219.895 4.26172C219.988 4.33203 220.035 4.40234 220.035 4.47266C220.035 4.51953 220.012 4.57812 219.965 4.64844C219.941 4.71875 219.918 4.77734 219.895 4.82422L219.789 5.87891L219.754 9.11328L219.789 12.2422C219.789 12.7812 219.754 13.25 219.684 13.6484C219.566 14.1406 219.379 14.3867 219.121 14.3867ZM212.652 20.1523C212.395 20.1523 212.078 19.9531 211.703 19.5547C211.422 19.2734 211.281 19.0625 211.281 18.9219C211.281 18.8516 211.328 18.8164 211.422 18.8164C211.516 18.793 211.633 18.7812 211.773 18.7812L212.547 18.7461C212.992 18.7461 213.285 18.7344 213.426 18.7109C213.871 18.7109 214.246 18.6992 214.551 18.6758C216.566 18.4883 217.926 18.3359 218.629 18.2188C218.98 18.1719 219.297 18.125 219.578 18.0781C219.859 18.0078 220.082 17.9727 220.246 17.9727C220.574 17.9727 220.902 18.1367 221.23 18.4648C221.488 18.7227 221.617 18.9336 221.617 19.0977C221.617 19.2383 221.535 19.332 221.371 19.3789C221.254 19.4023 220.562 19.4492 219.297 19.5195C218.594 19.543 217.727 19.6016 216.695 19.6953C215.664 19.7891 214.762 19.8828 213.988 19.9766C213.848 20 213.648 20.0352 213.391 20.082C213.133 20.1289 212.887 20.1523 212.652 20.1523ZM217.363 34.6719C216.637 34.6719 216.074 34.6484 215.676 34.6016C215.301 34.5547 214.984 34.4141 214.727 34.1797C214.281 33.8516 213.977 33.1367 213.812 32.0352L213.707 30.9102C213.707 30.6289 213.684 30.2773 213.637 29.8555C213.262 29.9023 212.992 29.9492 212.828 29.9961C212.781 30.0195 212.699 30.0547 212.582 30.1016C212.488 30.125 212.418 30.1367 212.371 30.1367C212.207 30.1367 212.055 30.0898 211.914 29.9961C211.773 29.9023 211.598 29.7266 211.387 29.4688C211.223 29.2578 211.141 29.1172 211.141 29.0469C211.141 28.9766 211.223 28.9297 211.387 28.9062C211.551 28.8828 211.773 28.8711 212.055 28.8711C212.453 28.8711 212.969 28.8242 213.602 28.7305L213.566 28.2383C213.566 27.3008 213.508 26.5039 213.391 25.8477L213.355 25.6016C213.355 25.2734 213.484 25.1445 213.742 25.2148C214.023 25.3086 214.281 25.4258 214.516 25.5664C214.703 25.6602 214.832 25.7539 214.902 25.8477C214.973 25.918 214.996 26.0234 214.973 26.1641L214.867 27.6758V28.5898L217.961 28.2734C217.961 28.1094 217.973 27.7227 217.996 27.1133C218.02 26.4805 218.02 26.0703 217.996 25.8828C217.996 25.6953 217.973 25.5195 217.926 25.3555C217.902 25.168 217.879 25.0156 217.855 24.8984C217.855 24.7109 217.949 24.6172 218.137 24.6172C218.324 24.6172 218.559 24.7227 218.84 24.9336C219.168 25.1445 219.379 25.332 219.473 25.4961C219.59 25.6602 219.613 25.8594 219.543 26.0938C219.426 26.4688 219.344 26.8906 219.297 27.3594C219.25 27.8281 219.227 28.1094 219.227 28.2031C219.508 28.1797 219.766 28.1445 220 28.0977C220.234 28.0508 220.387 28.0273 220.457 28.0273C220.645 27.9805 220.867 27.957 221.125 27.957C221.266 27.9805 221.465 28.1211 221.723 28.3789C221.934 28.6602 222.039 28.8828 222.039 29.0469C222.039 29.2812 221.816 29.375 221.371 29.3281C220.973 29.2578 220.574 29.2227 220.176 29.2227C219.777 29.2227 219.438 29.2344 219.156 29.2578C219.086 30.1016 218.945 30.9336 218.734 31.7539C218.688 31.9414 218.605 32.0938 218.488 32.2109C218.371 32.3516 218.266 32.4219 218.172 32.4219C218.008 32.4219 217.902 32.3516 217.855 32.2109C217.832 32.0938 217.82 31.8945 217.82 31.6133C217.867 31.0039 217.891 30.2422 217.891 29.3281C217.258 29.375 216.766 29.4219 216.414 29.4688C215.875 29.5859 215.371 29.6562 214.902 29.6797C214.879 30.6406 214.926 31.4961 215.043 32.2461C215.113 32.7383 215.254 33.0781 215.465 33.2656C215.605 33.3828 215.77 33.4531 215.957 33.4766C216.168 33.5 216.379 33.5117 216.59 33.5117C216.801 33.5117 216.941 33.5117 217.012 33.5117C217.738 33.5117 218.418 33.4766 219.051 33.4062C219.238 33.3828 219.402 33.3359 219.543 33.2656C219.707 33.1953 219.824 33.1602 219.895 33.1602C220.105 33.1602 220.316 33.2305 220.527 33.3711C220.738 33.5117 220.844 33.6758 220.844 33.8633C220.844 34.0508 220.738 34.1914 220.527 34.2852C220.34 34.3789 220.035 34.4609 219.613 34.5312C218.863 34.625 218.113 34.6719 217.363 34.6719ZM227.383 18.6758C227.664 18.6758 227.805 18.8047 227.805 19.0625C227.805 19.2031 227.676 19.4023 227.418 19.6602C226.715 20.5273 225.32 22.1797 223.234 24.6172C223.07 24.8281 222.918 24.9336 222.777 24.9336C222.66 24.9336 222.402 24.7578 222.004 24.4062C221.676 24.125 221.512 23.8906 221.512 23.7031C221.512 23.4922 221.688 23.293 222.039 23.1055C222.578 22.8008 223.387 22.1914 224.465 21.2773C225.543 20.3164 226.34 19.5547 226.855 18.9922C227.066 18.7812 227.242 18.6758 227.383 18.6758ZM182.699 30.1719C184.785 29.5156 186.648 28.8008 188.289 28.0273C187.938 27.5352 187.492 26.9727 186.953 26.3398C186.766 26.1055 186.672 25.918 186.672 25.7773C186.672 25.5195 186.824 25.2969 187.129 25.1094C187.434 24.8984 187.668 24.793 187.832 24.793C188.02 24.793 188.219 24.9102 188.43 25.1445C189.766 26.7148 190.902 28.0977 191.84 29.293C192.777 30.4883 193.246 31.2148 193.246 31.4727C193.246 31.6836 193.082 31.9297 192.754 32.2109C192.449 32.5156 192.156 32.668 191.875 32.668C191.641 32.668 191.406 32.4805 191.172 32.1055C190.633 31.2852 190.023 30.3945 189.344 29.4336L185.125 31.543C184.656 31.7539 183.918 32.1289 182.91 32.668C182.066 33.1133 181.551 33.3359 181.363 33.3359C181.223 33.3359 181.047 33.2422 180.836 33.0547C180.625 32.8906 180.461 32.6797 180.344 32.4219C180.25 32.1875 180.25 32 180.344 31.8594C180.484 31.6016 180.555 30.5703 180.555 28.7656V16.6016C180.555 16.0391 180.531 15.582 180.484 15.2305C180.461 14.8789 180.367 14.5039 180.203 14.1055C180.18 14.0352 180.156 13.9766 180.133 13.9297C180.109 13.8828 180.098 13.8359 180.098 13.7891C180.098 13.6719 180.18 13.6133 180.344 13.6133C180.648 13.6133 181.41 13.8711 182.629 14.3867L190.258 13.8594C190.445 13.8359 190.656 13.8242 190.891 13.8242C191.148 13.8242 191.453 13.9414 191.805 14.1758C192.156 14.3867 192.332 14.6211 192.332 14.8789C192.332 14.9727 192.273 15.1133 192.156 15.3008C192.062 15.4883 192.016 15.6289 192.016 15.7227L191.102 22.332C191.664 22.9883 191.945 23.4336 191.945 23.668C191.945 23.7852 191.875 23.8672 191.734 23.9141C191.617 23.9609 191.43 23.9844 191.172 23.9844L182.664 24.3008L182.699 30.1719ZM176.934 14.3867C176.934 14.1523 177.086 13.8711 177.391 13.543C179.102 11.6445 180.59 9.75781 181.855 7.88281C183.121 6.00781 183.754 4.75391 183.754 4.12109L183.719 3.875V3.76953C183.719 3.44141 183.848 3.27734 184.105 3.27734C184.41 3.27734 184.832 3.48828 185.371 3.91016C185.934 4.30859 186.215 4.63672 186.215 4.89453C186.215 5.01172 186.156 5.16406 186.039 5.35156C185.688 5.91406 185.301 6.47656 184.879 7.03906L189.871 6.65234C190.293 6.62891 190.738 6.53516 191.207 6.37109C191.348 6.32422 191.453 6.30078 191.523 6.30078C191.875 6.30078 192.25 6.5 192.648 6.89844C193.07 7.27344 193.281 7.56641 193.281 7.77734C193.281 8.05859 193.023 8.22266 192.508 8.26953L186.496 8.69141C186.66 8.73828 187.023 8.98438 187.586 9.42969C188.172 9.875 188.699 10.332 189.168 10.8008C189.637 11.2695 189.871 11.5977 189.871 11.7852C189.871 11.9961 189.73 12.2539 189.449 12.5586C189.168 12.8398 188.922 12.9805 188.711 12.9805C188.523 12.9805 188.301 12.8281 188.043 12.5234C187.246 11.6562 186.438 10.8945 185.617 10.2383C185.336 10.0039 185.195 9.80469 185.195 9.64062C185.195 9.52344 185.254 9.37109 185.371 9.18359C185.488 8.99609 185.641 8.84375 185.828 8.72656L183.473 8.90234C182.348 10.2852 181.105 11.5859 179.746 12.8047C178.387 14 177.52 14.5977 177.145 14.5977C177.004 14.5977 176.934 14.5273 176.934 14.3867ZM189.59 18.043L189.836 15.582L182.594 16.0742V18.3945L189.59 18.043ZM189.133 22.4023L189.414 19.6953L182.629 20.0117V22.6484L189.133 22.4023ZM191.031 12.875C191.031 12.6406 191.184 12.3594 191.488 12.0312C192.637 10.6484 193.68 9.08984 194.617 7.35547C195.578 5.59766 196.059 4.36719 196.059 3.66406V3.52344C196.059 3.17188 196.188 2.99609 196.445 2.99609C196.609 2.99609 196.855 3.08984 197.184 3.27734C197.535 3.44141 197.852 3.64062 198.133 3.875C198.414 4.10938 198.555 4.34375 198.555 4.57812C198.555 4.78906 198.391 5.16406 198.062 5.70312C197.734 6.24219 197.559 6.52344 197.535 6.54688L204.461 5.98438C204.977 5.9375 205.422 5.85547 205.797 5.73828C205.844 5.71484 205.938 5.70312 206.078 5.70312C206.406 5.70312 206.758 5.89062 207.133 6.26562C207.531 6.61719 207.73 6.91016 207.73 7.14453C207.73 7.28516 207.66 7.40234 207.52 7.49609C207.402 7.56641 207.238 7.61328 207.027 7.63672L199.891 8.12891C200.547 8.55078 201.32 9.17188 202.211 9.99219C203.102 10.7891 203.547 11.3281 203.547 11.6094C203.547 11.7734 203.418 12.0312 203.16 12.3828C202.902 12.7109 202.656 12.875 202.422 12.875C202.234 12.875 202.035 12.7578 201.824 12.5234C200.676 11.2812 199.633 10.2969 198.695 9.57031C198.461 9.38281 198.344 9.20703 198.344 9.04297C198.344 8.85547 198.52 8.57422 198.871 8.19922L196.27 8.375C195.496 9.40625 194.559 10.4492 193.457 11.5039C192.379 12.5586 191.652 13.0859 191.277 13.0859C191.113 13.0859 191.031 13.0156 191.031 12.875ZM194.336 13.6484C194.336 13.5078 194.418 13.4375 194.582 13.4375C194.934 13.4375 195.73 13.7305 196.973 14.3164L204.039 13.7188L204.32 13.6836C204.414 13.6836 204.59 13.7305 204.848 13.8242C205.129 13.8945 205.387 14.0234 205.621 14.2109C205.879 14.375 206.008 14.5977 206.008 14.8789C206.008 14.9727 205.973 15.1016 205.902 15.2656C205.832 15.4297 205.797 15.5469 205.797 15.6172C205.773 18.1953 205.609 20.9492 205.305 23.8789L205.234 24.7578C205.164 25.7422 205.07 26.5625 204.953 27.2188C204.836 27.875 204.637 28.3906 204.355 28.7656C203.91 29.375 203.43 29.6797 202.914 29.6797C202.398 29.6797 201.742 29.3633 200.945 28.7305C200.148 28.0977 199.41 27.4062 198.73 26.6562C198.074 25.9062 197.746 25.4258 197.746 25.2148C197.746 25.0508 197.84 24.9688 198.027 24.9688C198.238 24.9688 198.531 25.0859 198.906 25.3203C199.773 25.8594 200.5 26.293 201.086 26.6211C201.672 26.9492 202.094 27.1133 202.352 27.1133C202.469 27.1133 202.551 27.0312 202.598 26.8672C203.137 23.8672 203.465 20.1055 203.582 15.582L196.973 16.0742C196.973 20.0352 197.008 26.3164 197.078 34.918C197.078 35.1289 197.02 35.2812 196.902 35.375C196.809 35.4922 196.68 35.5508 196.516 35.5508C196.328 35.5508 196.105 35.4805 195.848 35.3398C195.402 35.1523 195.086 34.9766 194.898 34.8125C194.711 34.6484 194.617 34.4609 194.617 34.25L194.652 34.0039C194.793 33.2305 194.863 32.3633 194.863 31.4023L194.758 16.5664C194.758 15.957 194.734 15.4883 194.688 15.1602C194.664 14.832 194.594 14.5156 194.477 14.2109C194.383 13.9297 194.336 13.7422 194.336 13.6484Z" fill="#333333"/>
<path d="M115.094 71.1875C114.094 71.1875 113.427 71.125 113.094 71C112.698 70.8125 112.438 70.3854 112.312 69.7188C112.25 69.3646 112.219 68.9167 112.219 68.375L112.094 66.3438V65.5625C112.073 65.5417 112.062 65.4896 112.062 65.4062L112.031 65.0625C112.01 64.8958 111.917 64.6979 111.75 64.4688C111.688 64.3438 111.656 64.25 111.656 64.1875C111.656 64.0417 111.833 64 112.188 64.0625C112.562 64.125 112.99 64.1562 113.469 64.1562C113.802 64.1562 114.427 64.1354 115.344 64.0938C115.656 64.0729 116.385 63.9792 117.531 63.8125L118.531 63.5938L118.781 63.5312C118.969 63.5312 119.198 63.6458 119.469 63.875C119.698 64.0625 119.812 64.2396 119.812 64.4062C119.812 64.6146 119.656 64.7396 119.344 64.7812C118.531 64.8438 117.906 64.875 117.469 64.875L116.344 64.9375C116.01 64.9792 115.781 65 115.656 65C114.281 65.0625 113.5 65.0938 113.312 65.0938C113.312 66.5521 113.323 67.4583 113.344 67.8125C113.385 68.3958 113.417 68.8542 113.438 69.1875C113.479 69.5208 113.531 69.7396 113.594 69.8438C113.635 69.9271 113.708 69.9896 113.812 70.0312C113.938 70.0521 114.052 70.0729 114.156 70.0938C114.281 70.0938 114.375 70.0938 114.438 70.0938C114.458 70.0938 114.51 70.1042 114.594 70.125C114.698 70.125 114.896 70.125 115.188 70.125C115.396 70.125 115.75 70.1042 116.25 70.0625C116.896 70.0208 117.521 69.9375 118.125 69.8125C118.271 69.7917 118.604 69.7812 119.125 69.7812C119.375 69.7812 119.615 69.8958 119.844 70.125C119.948 70.2292 120 70.375 120 70.5625C120 70.7083 119.958 70.8125 119.875 70.875C119.75 70.9375 119.552 70.9896 119.281 71.0312C119.031 71.0521 118.708 71.0729 118.312 71.0938C117.167 71.1562 116.094 71.1875 115.094 71.1875ZM116.031 83.0938C115.885 83.0938 115.781 83.0521 115.719 82.9688C115.656 82.8854 115.615 82.8333 115.594 82.8125C115.385 82.5208 115.292 82.2396 115.312 81.9688C115.333 81.8021 115.365 81.3542 115.406 80.625L115.438 79.125C115.417 78.8958 115.396 78.7604 115.375 78.7188C115.354 78.6562 115.26 78.5312 115.094 78.3438C114.76 77.9271 114.375 77.5 113.938 77.0625C113.438 76.5625 113.115 76.2292 112.969 76.0625C112.969 76.0625 112.656 75.75 112.031 75.125C111.969 75.0625 111.938 75 111.938 74.9375C111.938 74.8333 112 74.75 112.125 74.6875C112.271 74.6042 112.417 74.5729 112.562 74.5938C112.979 74.6354 113.25 74.6875 113.375 74.75C113.521 74.7917 113.656 74.9167 113.781 75.125C113.906 75.3333 114.083 75.5833 114.312 75.875C114.562 76.1458 114.75 76.3542 114.875 76.5C115.396 77.125 115.76 77.5417 115.969 77.75C116.344 77.3125 116.812 76.6875 117.375 75.875C117.833 75.2917 118.104 74.8125 118.188 74.4375C118.271 74.1667 118.396 74.0312 118.562 74.0312C118.646 74.0312 118.771 74.0833 118.938 74.1875C119.479 74.5208 119.75 74.7917 119.75 75C119.75 75.125 119.615 75.2812 119.344 75.4688C118.969 75.7396 118.656 76.0417 118.406 76.375L117.781 77.1562C117.365 77.6562 117.052 78.0521 116.844 78.3438C116.74 78.5312 116.688 78.8021 116.688 79.1562V81.0625V82.3125C116.708 82.4583 116.625 82.625 116.438 82.8125C116.271 83 116.135 83.0938 116.031 83.0938ZM94.4062 61.6875C94.4062 61.5417 94.5312 61.3646 94.7812 61.1562C95.0312 60.9271 95.25 60.8125 95.4375 60.8125C95.5833 60.8125 95.7604 60.9271 95.9688 61.1562C96.1979 61.3854 96.7396 62.0521 97.5938 63.1562C98.5312 62.3438 99.3021 61.6146 99.9062 60.9688C100.531 60.3229 100.875 59.75 100.938 59.25C100.958 59.0417 101.073 58.9375 101.281 58.9375C101.531 58.9375 101.854 59.1146 102.25 59.4688C102.646 59.8229 102.844 60.1354 102.844 60.4062C102.844 60.6354 102.385 61.1667 101.469 62C100.573 62.8333 99.6667 63.625 98.75 64.375C99.375 65.0417 100.01 65.6354 100.656 66.1562C102.115 64.9479 103.083 64.0625 103.562 63.5C104.042 62.9375 104.323 62.4583 104.406 62.0625C104.469 61.8542 104.573 61.75 104.719 61.75C104.802 61.75 104.969 61.8438 105.219 62.0312C105.469 62.1979 105.688 62.3958 105.875 62.625C106.083 62.8542 106.188 63.0729 106.188 63.2812C106.188 63.5521 105.771 64.0729 104.938 64.8438C104.104 65.5938 103.125 66.3854 102 67.2188C103.938 68.6771 106.188 69.9583 108.75 71.0625C109.083 71.2083 109.25 71.3542 109.25 71.5C109.25 71.5833 109.167 71.7396 109 71.9688C108.833 72.1979 108.635 72.4062 108.406 72.5938C108.177 72.7604 107.969 72.8438 107.781 72.8438C107.573 72.8438 106.615 72.3438 104.906 71.3438C102.76 70.0938 100.896 68.7708 99.3125 67.375C97.75 65.9583 96.5417 64.7083 95.6875 63.625C94.8333 62.5417 94.4062 61.8958 94.4062 61.6875ZM80.5625 73.375C80.5625 73.1667 80.7708 72.9271 81.1875 72.6562C83.7708 71.0104 85.8958 69.3021 87.5625 67.5312C86.4167 66.3646 85.3542 65.4271 84.375 64.7188C84.1042 64.5104 83.9688 64.3125 83.9688 64.125C83.9688 63.9167 84.0729 63.6979 84.2812 63.4688C84.5104 63.2188 84.6979 63.0938 84.8438 63.0938C85.0938 63.0938 85.625 63.4271 86.4375 64.0938C87.25 64.7396 88.0312 65.4167 88.7812 66.125C89.7604 64.9375 90.6979 63.5521 91.5938 61.9688L87.4062 62.3438C86.9479 62.3854 86.6458 62.4062 86.5 62.4062C86.1458 62.4062 85.8438 62.3021 85.5938 62.0938C85.3646 61.8646 85.1771 61.6146 85.0312 61.3438C84.9062 61.0729 84.8438 60.8854 84.8438 60.7812C84.8438 60.6146 84.9271 60.5312 85.0938 60.5312C85.1771 60.5312 85.2396 60.5417 85.2812 60.5625C85.5521 60.6458 85.875 60.6875 86.25 60.6875L86.7812 60.6562L92.5312 60.2188H92.8125C93.1458 60.2188 93.4583 60.3333 93.75 60.5625C94.0625 60.7917 94.2188 61.0417 94.2188 61.3125C94.2188 61.4375 93.9062 62 93.2812 63C92.6562 63.9792 91.875 65.0625 90.9375 66.25C90 67.4375 89.0208 68.4792 88 69.375H88.0938L91.3438 69.1562H91.5938C91.8438 69.1562 92.1354 69.2708 92.4688 69.5C92.8229 69.7292 93 69.9583 93 70.1875C93 70.2917 92.9583 70.4062 92.875 70.5312C92.8125 70.6562 92.7708 70.7708 92.75 70.875L92.1875 73.5C92.6875 74.0208 92.9375 74.3958 92.9375 74.625C92.9375 74.75 92.8646 74.8333 92.7188 74.875C92.5938 74.9167 92.3854 74.9479 92.0938 74.9688L87.4375 75.2188L86.875 78.0625L90.9062 77.8438L91.2188 77.8125C91.4479 77.8125 91.7292 77.9479 92.0625 78.2188C92.4167 78.4688 92.5938 78.7292 92.5938 79C92.5938 79.125 92.5521 79.2708 92.4688 79.4375C92.3854 79.5833 92.3438 79.6875 92.3438 79.75C92.1979 81.1875 91.9375 82.6042 91.5625 84C91.375 84.6875 91.1354 85.2812 90.8438 85.7812C90.5521 86.3021 90.1146 86.5625 89.5312 86.5625C89.1771 86.5625 88.8021 86.4271 88.4062 86.1562C86.0104 84.5521 84.8125 83.5 84.8125 83C84.8125 82.8542 84.9062 82.7812 85.0938 82.7812C85.3021 82.7812 85.5729 82.875 85.9062 83.0625C87.0104 83.6458 88.125 84.1042 89.25 84.4375H89.3438C89.4271 84.4375 89.4896 84.3854 89.5312 84.2812C89.8438 83.4271 90.0938 82.5 90.2812 81.5C90.4062 80.8125 90.5 80.125 90.5625 79.4375L87.1562 79.625C86.9271 79.6458 86.6979 79.6875 86.4688 79.75C86.2604 79.8125 86.1146 79.8438 86.0312 79.8438C85.8438 79.8438 85.6042 79.7604 85.3125 79.5938C85.0417 79.4271 84.9062 79.2188 84.9062 78.9688C84.9062 78.8646 84.9167 78.7708 84.9375 78.6875C84.9583 78.5833 84.9792 78.4896 85 78.4062L85.7188 74.9062C85.8021 74.4479 85.8438 74.0729 85.8438 73.7812C85.8438 73.5521 85.8333 73.3854 85.8125 73.2812V73.0625C85.8125 72.8958 85.875 72.8125 86 72.8125C86.2917 72.8125 86.8854 73.0938 87.7812 73.6562L90.4688 73.5L90.9375 70.7188L88.9062 70.8438C88.6771 70.8646 88.3958 70.875 88.0625 70.875C87.7708 70.875 87.5312 70.8438 87.3438 70.7812C87.1562 70.6979 86.9896 70.5521 86.8438 70.3438C85.2812 71.5312 83.5312 72.5625 81.5938 73.4375C81.3229 73.5625 81.0938 73.625 80.9062 73.625C80.6771 73.625 80.5625 73.5417 80.5625 73.375ZM91.9688 86.4688C91.9688 86.2812 92.25 86.0417 92.8125 85.75C94.6875 84.8333 96.4688 83.6458 98.1562 82.1875L95.7188 80.6562C95.4062 80.4896 95.25 80.2917 95.25 80.0625C95.25 79.9167 95.3229 79.7396 95.4688 79.5312C95.6146 79.3229 95.7604 79.2083 95.9062 79.1875H96.0312C96.1771 79.1875 96.3229 79.2292 96.4688 79.3125L99.3438 81.0938C100.302 80.0729 101.01 79.0521 101.469 78.0312L96.2812 78.3125L95.6562 78.3438C95.3229 78.3438 95.0208 78.2604 94.75 78.0938C94.4792 77.9271 94.2604 77.5521 94.0938 76.9688L94.0625 76.8438C94.0625 76.7396 94.1146 76.6875 94.2188 76.6875L94.4062 76.7188C94.6979 76.7812 94.9479 76.8125 95.1562 76.8125L95.6875 76.7812L102.062 76.4688L102.5 76.4375C102.812 76.4375 103.073 76.5104 103.281 76.6562C103.49 76.7812 103.646 76.9271 103.75 77.0938C103.854 77.2604 103.906 77.375 103.906 77.4375C103.906 77.5 103.76 77.7708 103.469 78.25C103.198 78.7292 102.823 79.3021 102.344 79.9688C101.865 80.6146 101.302 81.2604 100.656 81.9062C103.865 83.9062 105.49 85.0625 105.531 85.375C105.552 85.5417 105.438 85.7812 105.188 86.0938C104.938 86.4062 104.729 86.5625 104.562 86.5625C104.333 86.5625 104.104 86.4792 103.875 86.3125C102.729 85.3542 101.26 84.2708 99.4688 83.0625C98.5104 83.9167 97.5208 84.6042 96.5 85.125C95.5 85.6667 94.6146 86.0625 93.8438 86.3125C93.0938 86.5625 92.6042 86.6875 92.375 86.6875C92.1042 86.6875 91.9688 86.6146 91.9688 86.4688ZM92.9375 76.5938C92.9375 76.4479 93.0729 76.2708 93.3438 76.0625C94.1562 75.4375 94.7188 74.8021 95.0312 74.1562C95.3438 73.5104 95.5 72.6146 95.5 71.4688L95.4688 70.5938C95.4271 69.9479 95.3229 69.4688 95.1562 69.1562C95.0729 68.9896 95.0312 68.8646 95.0312 68.7812C95.0312 68.6562 95.1146 68.5938 95.2812 68.5938C95.6354 68.5938 96.3125 68.8021 97.3125 69.2188L100.219 69.0312H100.594C100.844 69.0312 101.125 69.125 101.438 69.3125C101.771 69.5 101.938 69.7292 101.938 70C101.938 70.0833 101.917 70.1771 101.875 70.2812C101.833 70.3646 101.812 70.4479 101.812 70.5312L101.75 73.4688C101.75 73.6979 101.781 73.8646 101.844 73.9688C101.906 74.0521 102.042 74.1042 102.25 74.125L102.688 74.1562H102.938C103.333 74.1562 103.698 74.0729 104.031 73.9062C104.073 73.8854 104.135 73.875 104.219 73.875C104.448 73.875 104.719 74.0208 105.031 74.3125C105.365 74.6042 105.531 74.8646 105.531 75.0938C105.531 75.3438 105.333 75.5 104.938 75.5625C104.021 75.6875 103.448 75.75 103.219 75.75H102.281C101.615 75.75 101.062 75.6458 100.625 75.4375C100.208 75.2292 100 74.7812 100 74.0938V74L100.062 70.5312L97.25 70.7188C97.25 71.7396 97.1771 72.5833 97.0312 73.25C96.8646 74.0625 96.5 74.7292 95.9375 75.25C95.375 75.7708 94.8125 76.1562 94.25 76.4062C93.6875 76.6562 93.3333 76.7812 93.1875 76.7812C93.0208 76.7812 92.9375 76.7188 92.9375 76.5938Z" fill="#333333"/>
<path d="M160.469 68.1562C160.24 68.1562 159.958 67.9792 159.625 67.625C159.375 67.375 159.25 67.1875 159.25 67.0625C159.25 67 159.292 66.9688 159.375 66.9688C159.458 66.9479 159.562 66.9375 159.688 66.9375L160.375 66.9062C160.771 66.9062 161.031 66.8958 161.156 66.875C161.552 66.875 161.885 66.8646 162.156 66.8438C163.948 66.6771 165.156 66.5417 165.781 66.4375C166.094 66.3958 166.375 66.3542 166.625 66.3125C166.875 66.25 167.073 66.2188 167.219 66.2188C167.51 66.2188 167.802 66.3646 168.094 66.6562C168.323 66.8854 168.438 67.0729 168.438 67.2188C168.438 67.3438 168.365 67.4271 168.219 67.4688C168.115 67.4896 167.5 67.5312 166.375 67.5938C165.75 67.6146 164.979 67.6667 164.062 67.75C163.146 67.8333 162.344 67.9167 161.656 68C161.531 68.0208 161.354 68.0521 161.125 68.0938C160.896 68.1354 160.677 68.1562 160.469 68.1562ZM164.031 83.0938C163.885 83.0938 163.781 83.0521 163.719 82.9688C163.656 82.8854 163.615 82.8333 163.594 82.8125C163.385 82.5208 163.292 82.2396 163.312 81.9688C163.333 81.8021 163.365 81.3542 163.406 80.625L163.438 79.125C163.417 78.8958 163.396 78.7604 163.375 78.7188C163.354 78.6562 163.26 78.5312 163.094 78.3438C162.76 77.9271 162.375 77.5 161.938 77.0625C161.438 76.5625 161.115 76.2292 160.969 76.0625C160.969 76.0625 160.656 75.75 160.031 75.125C159.969 75.0625 159.938 75 159.938 74.9375C159.938 74.8333 160 74.75 160.125 74.6875C160.271 74.6042 160.417 74.5729 160.562 74.5938C160.979 74.6354 161.25 74.6875 161.375 74.75C161.521 74.7917 161.656 74.9167 161.781 75.125C161.906 75.3333 162.083 75.5833 162.312 75.875C162.562 76.1458 162.75 76.3542 162.875 76.5C163.396 77.125 163.76 77.5417 163.969 77.75C164.344 77.3125 164.812 76.6875 165.375 75.875C165.833 75.2917 166.104 74.8125 166.188 74.4375C166.271 74.1667 166.396 74.0312 166.562 74.0312C166.646 74.0312 166.771 74.0833 166.938 74.1875C167.479 74.5208 167.75 74.7917 167.75 75C167.75 75.125 167.615 75.2812 167.344 75.4688C166.969 75.7396 166.656 76.0417 166.406 76.375L165.781 77.1562C165.365 77.6562 165.052 78.0521 164.844 78.3438C164.74 78.5312 164.688 78.8021 164.688 79.1562V81.0625V82.3125C164.708 82.4583 164.625 82.625 164.438 82.8125C164.271 83 164.135 83.0938 164.031 83.0938ZM132.594 85.9688C132.156 85.9688 131.802 85.875 131.531 85.6875C131.281 85.5208 131.062 85.1146 130.875 84.4688L130.844 84.3438C130.844 84.2188 130.906 84.1562 131.031 84.1562L131.156 84.1875C131.635 84.2917 132.167 84.3438 132.75 84.3438L142.562 84.0938L142.531 81.8438L136.969 82.0312H136.531C136.052 82.0312 135.708 81.9479 135.5 81.7812C135.312 81.5938 135.135 81.2188 134.969 80.6562C134.948 80.6146 134.938 80.5521 134.938 80.4688C134.938 80.3646 134.99 80.3125 135.094 80.3125C135.177 80.3125 135.24 80.3229 135.281 80.3438C135.615 80.4688 135.979 80.5312 136.375 80.5312H136.656L142.5 80.3438V80.125C142.5 79.6875 142.406 79.3333 142.219 79.0625C142.135 78.9583 142.094 78.8646 142.094 78.7812C142.094 78.6562 142.219 78.5938 142.469 78.5938C142.781 78.5938 143.177 78.6667 143.656 78.8125C144.135 78.9583 144.375 79.2083 144.375 79.5625V80.2812L149.219 80.0938C149.552 80.0938 149.875 80.0417 150.188 79.9375C150.375 79.875 150.521 79.8438 150.625 79.8438C150.833 79.8438 151.031 79.9271 151.219 80.0938C151.427 80.2604 151.594 80.4583 151.719 80.6875C151.844 80.8958 151.906 81.0417 151.906 81.125C151.906 81.3542 151.646 81.4896 151.125 81.5312L144.375 81.7812L144.344 84.0625L153.344 83.8125C153.844 83.8125 154.323 83.7396 154.781 83.5938C154.885 83.5521 155.01 83.5312 155.156 83.5312C155.385 83.5312 155.677 83.7188 156.031 84.0938C156.385 84.4896 156.562 84.7917 156.562 85C156.562 85.2292 156.344 85.3438 155.906 85.3438L132.938 85.9688H132.594ZM128.219 81.2812C128.219 81.0729 128.323 80.7917 128.531 80.4375C129.427 78.8542 130.135 77.375 130.656 76C131.177 74.6042 131.573 73 131.844 71.1875C132.115 69.375 132.25 67.1771 132.25 64.5938L132.219 63.125C132.177 62.0833 132.073 61.3125 131.906 60.8125C131.844 60.6458 131.812 60.5 131.812 60.375C131.812 60.2292 131.896 60.1562 132.062 60.1562C132.312 60.1562 133.031 60.4167 134.219 60.9375L150.906 59.9375C151.365 59.9167 151.896 59.8125 152.5 59.625C152.688 59.5625 152.854 59.5312 153 59.5312C153.271 59.5312 153.531 59.625 153.781 59.8125C154.031 59.9792 154.24 60.1771 154.406 60.4062C154.573 60.6146 154.656 60.7812 154.656 60.9062C154.656 61.1562 154.385 61.3021 153.844 61.3438L134.219 62.5C134.219 65.6667 134.042 68.5312 133.688 71.0938C133.375 73.3438 132.844 75.25 132.094 76.8125C131.344 78.3542 130.583 79.5208 129.812 80.3125C129.062 81.0833 128.583 81.4688 128.375 81.4688C128.271 81.4688 128.219 81.4062 128.219 81.2812ZM133.906 79.4688C133.906 79.2812 133.948 79.1042 134.031 78.9375C134.49 78.1667 134.833 77.5 135.062 76.9375C135.292 76.375 135.469 75.6979 135.594 74.9062C135.719 74.1146 135.781 73.1042 135.781 71.875C135.781 71.0208 135.74 70.4583 135.656 70.1875C135.531 70.125 135.469 70.0104 135.469 69.8438C135.469 69.8021 135.5 69.7604 135.562 69.7188C135.625 69.6771 135.688 69.6562 135.75 69.6562C136.375 69.6562 136.979 69.8229 137.562 70.1562L142.75 69.7812H142.969C143.281 69.7812 143.552 69.8958 143.781 70.125C144.031 70.3333 144.156 70.5104 144.156 70.6562C144.156 70.7396 144.135 70.8229 144.094 70.9062C144.073 70.9688 144.062 71.0312 144.062 71.0938L143.938 76.375V77.125C143.938 77.5625 143.792 77.9062 143.5 78.1562C143.229 78.4062 142.969 78.5312 142.719 78.5312C142.49 78.5312 142.083 78.4062 141.5 78.1562C140.938 77.8854 140.417 77.5938 139.938 77.2812C139.458 76.9688 139.219 76.7292 139.219 76.5625C139.219 76.4583 139.323 76.4062 139.531 76.4062C139.677 76.4062 139.875 76.4375 140.125 76.5C140.5 76.6042 140.875 76.6979 141.25 76.7812C141.646 76.8438 142.01 76.8854 142.344 76.9062L142.406 74.9688C141.719 75.3021 140.917 75.6146 140 75.9062C139.104 76.1771 138.448 76.3125 138.031 76.3125C137.573 76.3125 137.26 76.0833 137.094 75.625C136.74 76.8125 136.271 77.7708 135.688 78.5C135.104 79.2292 134.573 79.6042 134.094 79.625C134.031 79.6458 133.979 79.6354 133.938 79.5938C133.917 79.5312 133.906 79.4896 133.906 79.4688ZM135.375 63.4688C135.375 63.3438 135.479 63.2812 135.688 63.2812C135.958 63.2812 136.469 63.3854 137.219 63.5938L142.719 63.2188H142.938C143.271 63.2188 143.552 63.3229 143.781 63.5312C144.031 63.7396 144.156 63.8958 144.156 64C144.156 64.0625 144.125 64.1562 144.062 64.2812C144 64.4062 143.969 64.5 143.969 64.5625L143.438 67.4688C143.854 67.9479 144.062 68.2708 144.062 68.4375C144.062 68.5417 143.99 68.6146 143.844 68.6562C143.719 68.6979 143.5 68.7292 143.188 68.75L137.625 69.0938V69.25C137.625 69.5833 137.5 69.75 137.25 69.75C137.021 69.75 136.75 69.6771 136.438 69.5312C136.146 69.3646 136 69.1458 136 68.875C136 68.75 136.01 68.6562 136.031 68.5938C136.073 68.3438 136.094 68.1562 136.094 68.0312C136.094 67.9271 136.073 67.7083 136.031 67.375L135.812 64.9375C135.771 64.4792 135.677 64.125 135.531 63.875C135.427 63.6667 135.375 63.5312 135.375 63.4688ZM137.344 65.7812L142.219 65.5L142.312 64.5L137.281 64.7812L137.344 65.7812ZM137.375 74.75C137.792 74.75 138.552 74.6667 139.656 74.5C141.073 74.2083 142 74.0312 142.438 73.9688L142.5 71.0312L137.531 71.3438C137.51 71.4896 137.5 71.7083 137.5 72C137.604 71.9167 137.75 71.875 137.938 71.875L138.281 71.9375C139.406 72.0625 140.458 72.2396 141.438 72.4688C141.875 72.5729 142.094 72.7917 142.094 73.125C142.073 73.2917 141.99 73.4583 141.844 73.625C141.698 73.7917 141.51 73.875 141.281 73.875C141.115 73.875 140.844 73.8125 140.469 73.6875C139.76 73.4583 138.865 73.2604 137.781 73.0938L137.469 73C137.469 73.6667 137.417 74.2292 137.312 74.6875V74.75H137.375ZM137.531 67.9062L142.031 67.625L142.125 66.5938L137.438 66.875L137.531 67.9062ZM143.969 78.25C143.969 78.0625 144.135 77.7917 144.469 77.4375C145.49 76.3333 146.302 75.1771 146.906 73.9688C147.51 72.7396 147.927 71.3542 148.156 69.8125L146.188 69.9375H145.719C145.365 69.9375 145.083 69.8646 144.875 69.7188C144.667 69.5521 144.427 69.1979 144.156 68.6562L144.125 68.5625C144.125 68.5208 144.146 68.4896 144.188 68.4688C144.229 68.4271 144.281 68.4062 144.344 68.4062H144.438C144.625 68.4062 144.802 68.4271 144.969 68.4688C145.135 68.4896 145.312 68.5 145.5 68.5H145.906L148.312 68.3438C148.396 67.4062 148.438 66.4688 148.438 65.5312C148.438 64.7812 148.417 64.2292 148.375 63.875C148.333 63.5 148.26 63.2083 148.156 63C148.073 62.7917 148.031 62.6667 148.031 62.625C148.031 62.4792 148.135 62.4062 148.344 62.4062C148.552 62.4062 148.875 62.4688 149.312 62.5938C149.688 62.6979 149.917 62.8125 150 62.9375C150.104 63.0625 150.156 63.2396 150.156 63.4688V64.5938C150.156 65.9062 150.104 67.1146 150 68.2188L152.594 68.0625C153.073 68.0208 153.448 67.9479 153.719 67.8438C153.885 67.7812 154.021 67.75 154.125 67.75C154.333 67.75 154.583 67.8958 154.875 68.1875C155.167 68.4792 155.312 68.75 155.312 69C155.312 69.2292 155.083 69.3646 154.625 69.4062L150.312 69.6875C152.125 72.9167 154.104 75.375 156.25 77.0625C156.438 77.1875 156.531 77.3125 156.531 77.4375C156.531 77.5417 156.344 77.7396 155.969 78.0312C155.594 78.3021 155.292 78.4375 155.062 78.4375C154.917 78.4375 154.531 78.1042 153.906 77.4375C153.281 76.75 152.573 75.8542 151.781 74.75C150.99 73.625 150.25 72.4167 149.562 71.125C149.208 72.6042 148.635 73.9479 147.844 75.1562C147.052 76.3438 146.104 77.3125 145 78.0625C144.625 78.3125 144.344 78.4375 144.156 78.4375C144.031 78.4375 143.969 78.375 143.969 78.25ZM150.5 64.375C150.5 64.25 150.594 64.125 150.781 64C151.031 63.8333 151.24 63.75 151.406 63.75C151.573 63.75 151.854 63.9375 152.25 64.3125C152.667 64.6875 153.042 65.1042 153.375 65.5625C153.729 66 153.906 66.3021 153.906 66.4688C153.906 66.6771 153.781 66.8646 153.531 67.0312C153.281 67.1979 153.073 67.2812 152.906 67.2812C152.823 67.2812 152.74 67.25 152.656 67.1875C152.573 67.1042 152.49 67 152.406 66.875C151.906 66.1667 151.406 65.5417 150.906 65C150.635 64.6875 150.5 64.4792 150.5 64.375Z" fill="#333333"/>
<path d="M215.406 67.5312C215.24 67.4896 215.104 67.3854 215 67.2188C214.958 67.1771 214.906 67.0938 214.844 66.9688C214.802 66.8229 214.76 66.7188 214.719 66.6562L214.562 66.3125L212.594 66.5625L211.844 66.6875C211.656 66.7083 211.229 66.7812 210.562 66.9062C210.292 66.9479 210 67.0312 209.688 67.1562C209.625 67.1771 209.552 67.2188 209.469 67.2812C209.385 67.3438 209.312 67.375 209.25 67.375H209C208.792 67.375 208.562 67.2396 208.312 66.9688C208.25 66.8854 208.167 66.8021 208.062 66.7188C207.979 66.6146 207.938 66.5417 207.938 66.5C207.938 66.3333 208.01 66.1771 208.156 66.0312C208.469 65.7188 208.906 65.0833 209.469 64.125C209.677 63.8333 209.927 63.4062 210.219 62.8438C210.51 62.2812 210.74 61.8125 210.906 61.4375C210.885 61.5 211 61.2188 211.25 60.5938C211.438 60.0729 211.531 59.7396 211.531 59.5938C211.573 59.3646 211.646 59.25 211.75 59.25C211.833 59.25 212.01 59.3646 212.281 59.5938C212.51 59.7812 212.688 59.9688 212.812 60.1562C212.958 60.3438 213.031 60.4896 213.031 60.5938C213.031 60.6771 213.01 60.75 212.969 60.8125C212.927 60.875 212.854 60.9479 212.75 61.0312C212.667 61.1146 212.562 61.2396 212.438 61.4062C212.167 61.7604 211.833 62.3021 211.438 63.0312L210.812 64.125L210.344 64.9062L210 65.5L209.781 65.8438C209.76 65.8854 209.76 65.9271 209.781 65.9688C209.802 65.9896 209.833 66 209.875 66C209.875 66 210.406 65.9375 211.469 65.8125L214.344 65.5C214.281 65.3333 214.198 65.1146 214.094 64.8438C213.99 64.5521 213.865 64.2292 213.719 63.875C213.698 63.8542 213.688 63.8125 213.688 63.75C213.688 63.6875 213.719 63.6562 213.781 63.6562C213.885 63.6562 214.01 63.7188 214.156 63.8438C214.323 63.9479 214.573 64.1667 214.906 64.5C215.156 64.7083 215.365 64.9479 215.531 65.2188C215.719 65.4896 215.833 65.6458 215.875 65.6875C216.062 65.9583 216.156 66.2188 216.156 66.4688C216.156 66.5938 216.115 66.8021 216.031 67.0938C215.969 67.2604 215.885 67.375 215.781 67.4375C215.698 67.5 215.573 67.5312 215.406 67.5312ZM215.188 76.5938C214.875 76.5938 214.573 76.3646 214.281 75.9062C213.906 75.3229 213.542 74.8438 213.188 74.4688L212.375 73.625C211.938 74.125 211.552 74.5208 211.219 74.8125C210.906 75.1042 210.51 75.3854 210.031 75.6562C209.135 76.1771 208.385 76.4375 207.781 76.4375C207.635 76.4375 207.562 76.3854 207.562 76.2812C207.562 76.2188 207.76 76.0833 208.156 75.875C208.552 75.6667 208.927 75.4167 209.281 75.125C210.177 74.375 210.917 73.6042 211.5 72.8125C211.375 72.6875 210.75 72.1458 209.625 71.1875C209.479 71.0833 209.26 70.9062 208.969 70.6562C208.906 70.6146 208.781 70.5208 208.594 70.375C208.406 70.2292 208.312 70.125 208.312 70.0625C208.312 69.9583 208.365 69.9062 208.469 69.9062C208.781 69.9062 209.281 70.125 209.969 70.5625C210.656 70.9792 211.375 71.4792 212.125 72.0625C212.417 71.7083 212.646 71.375 212.812 71.0625C212.979 70.75 213.167 70.3646 213.375 69.9062C213.479 69.6771 213.542 69.4792 213.562 69.3125C213.583 69.125 213.594 69.0104 213.594 68.9688C213.594 68.7396 213.656 68.625 213.781 68.625C213.927 68.625 214.125 68.7396 214.375 68.9688C214.812 69.3854 215.031 69.6667 215.031 69.8125C215.031 69.8958 214.979 69.9896 214.875 70.0938C214.625 70.3438 214.396 70.6771 214.188 71.0938C214.062 71.3438 213.833 71.6979 213.5 72.1562C213.396 72.2812 213.312 72.3958 213.25 72.5C213.188 72.6042 213.125 72.6979 213.062 72.7812C213.542 73.1354 214.25 73.7396 215.188 74.5938C215.417 74.8021 215.562 75 215.625 75.1875C215.708 75.3542 215.75 75.5833 215.75 75.875C215.75 76.0833 215.698 76.2604 215.594 76.4062C215.49 76.5312 215.354 76.5938 215.188 76.5938ZM214.438 86.0625C214.354 86.0625 214.26 86.0208 214.156 85.9375C214.052 85.875 213.917 85.7708 213.75 85.625C213.021 85.0625 212.312 84.2188 211.625 83.0938C210.938 81.9688 210.448 80.75 210.156 79.4375C210.135 79.3125 210.104 79.1667 210.062 79C210.021 78.8333 209.979 78.7083 209.938 78.625C209.938 78.6042 209.906 78.5938 209.844 78.5938C209.698 78.5938 209.417 78.6875 209 78.875C208.875 78.9375 208.75 79.0312 208.625 79.1562C208.521 79.2604 208.406 79.3021 208.281 79.2812C208.198 79.2812 208.083 79.2292 207.938 79.125C207.792 79.0208 207.688 78.9271 207.625 78.8438C207.417 78.5521 207.312 78.375 207.312 78.3125C207.312 78.1875 207.427 78.1146 207.656 78.0938C207.969 78.0938 208.167 78.0833 208.25 78.0625C208.854 77.9792 209.427 77.8438 209.969 77.6562C210.052 77.6354 210.167 77.5729 210.312 77.4688C210.333 77.4688 210.365 77.4583 210.406 77.4375C210.469 77.4167 210.542 77.4375 210.625 77.5C210.938 77.7083 211.094 77.8646 211.094 77.9688C211.094 79.4271 211.51 80.7917 212.344 82.0625C213.177 83.3333 214.396 84.4062 216 85.2812C216.083 85.3229 216.188 85.3646 216.312 85.4062C216.438 85.4479 216.5 85.5104 216.5 85.5938C216.5 85.6979 216.156 85.7917 215.469 85.875L214.688 86L214.438 86.0625ZM217.562 74.6562C217.667 74.6562 217.823 74.7292 218.031 74.875C218.01 74.9167 218.052 75 218.156 75.125C218.26 75.2292 218.333 75.3021 218.375 75.3438C218.479 75.4479 218.583 75.5729 218.688 75.7188C218.812 75.8646 218.948 76.0208 219.094 76.1875C219.469 76.5833 220.333 77.6146 221.688 79.2812C221.917 79.6146 222.031 79.8125 222.031 79.875C222.031 80.0833 221.906 80.1875 221.656 80.1875C221.51 80.1875 221.354 80.0833 221.188 79.875C220.792 79.4583 220.083 78.8021 219.062 77.9062C218.271 77.1771 217.552 76.6146 216.906 76.2188C216.594 76.0729 216.438 75.9062 216.438 75.7188C216.438 75.5729 216.594 75.3646 216.906 75.0938C217.198 74.8021 217.417 74.6562 217.562 74.6562ZM194.281 71.2188C195.115 74.6146 195.969 77.125 196.844 78.75C196.969 78.5833 197.229 78.1979 197.625 77.5938C198.021 76.9896 198.396 76.3229 198.75 75.5938C199.104 74.8438 199.281 74.2292 199.281 73.75C199.281 73.4792 199.365 73.3438 199.531 73.3438C199.656 73.3438 199.844 73.4271 200.094 73.5938C200.365 73.7396 200.594 73.9271 200.781 74.1562C200.99 74.3854 201.094 74.6042 201.094 74.8125C201.094 74.9167 200.938 75.2917 200.625 75.9375C200.312 76.5625 199.906 77.2708 199.406 78.0625C198.927 78.8542 198.396 79.5833 197.812 80.25C198.521 81.2917 199.198 82.1458 199.844 82.8125C200.51 83.4792 201.073 83.9479 201.531 84.2188C201.99 84.5104 202.323 84.6562 202.531 84.6562C202.698 84.6562 202.792 84.5938 202.812 84.4688C202.958 83.9062 203.115 83.1667 203.281 82.25C203.448 81.3333 203.583 80.4896 203.688 79.7188C203.771 78.9479 203.927 78.5625 204.156 78.5625C204.49 78.5625 204.656 79.6562 204.656 81.8438C204.656 83.3646 204.625 84.4479 204.562 85.0938C204.5 85.7604 204.375 86.2083 204.188 86.4375C204 86.6875 203.688 86.8125 203.25 86.8125C202.208 86.8125 201.094 86.3438 199.906 85.4062C198.74 84.4896 197.615 83.2188 196.531 81.5938C195.615 82.5104 194.656 83.3125 193.656 84C192.677 84.6667 191.802 85.1771 191.031 85.5312C190.281 85.8854 189.792 86.0625 189.562 86.0625C189.354 86.0625 189.25 85.9896 189.25 85.8438C189.25 85.6354 189.479 85.375 189.938 85.0625C192.292 83.4792 194.188 81.8646 195.625 80.2188C195.042 79.1354 194.51 77.9479 194.031 76.6562C193.552 75.3438 193.042 73.5625 192.5 71.3125L182.406 71.8125C182.385 73.1458 182.302 74.4583 182.156 75.75C182.01 77.0417 181.812 78.1042 181.562 78.9375C181.062 80.6042 180.469 82.0208 179.781 83.1875C179.115 84.3333 178.49 85.1979 177.906 85.7812C177.323 86.3646 176.938 86.6562 176.75 86.6562C176.625 86.6562 176.562 86.5729 176.562 86.4062C176.562 86.1979 176.688 85.9062 176.938 85.5312C179.333 81.8854 180.531 77.4688 180.531 72.2812V71.9375C180.531 71.25 180.385 70.5625 180.094 69.875C180.052 69.8125 180.031 69.7188 180.031 69.5938C180.031 69.4479 180.115 69.375 180.281 69.375C180.635 69.375 181.365 69.6458 182.469 70.1875L192.094 69.7188L191.938 69.0938C191.854 68.7396 191.667 68.4375 191.375 68.1875C191.167 68.0208 191.062 67.875 191.062 67.75C191.062 67.625 191.229 67.5625 191.562 67.5625C192.104 67.5625 192.562 67.6354 192.938 67.7812C193.333 67.9062 193.552 68.0833 193.594 68.3125L193.875 69.625L196.219 69.4688C196.885 69.4271 197.396 69.3438 197.75 69.2188C197.875 69.1771 197.969 69.1562 198.031 69.1562C198.281 69.1562 198.531 69.25 198.781 69.4375C199.031 69.6042 199.229 69.8021 199.375 70.0312C199.542 70.2604 199.625 70.4375 199.625 70.5625C199.625 70.7708 199.375 70.8958 198.875 70.9375L194.281 71.2188ZM178.156 66.125C178.156 66 178.219 65.9375 178.344 65.9375L178.469 65.9688C178.781 66.0521 179.177 66.0938 179.656 66.0938H180L185 65.8438L184.906 62.9062C184.885 62.4479 184.844 62.0833 184.781 61.8125C184.719 61.5208 184.604 61.2812 184.438 61.0938C184.312 60.9271 184.25 60.8021 184.25 60.7188C184.25 60.5938 184.354 60.5312 184.562 60.5312C184.833 60.5312 185.177 60.6042 185.594 60.75C186.052 60.9167 186.354 61.0625 186.5 61.1875C186.646 61.3125 186.719 61.5208 186.719 61.8125L186.781 65.75L190.094 65.5938L190.156 60.9688C190.156 60.4688 190.135 60.0938 190.094 59.8438C190.052 59.5729 189.948 59.3438 189.781 59.1562C189.656 58.9896 189.594 58.8646 189.594 58.7812C189.594 58.6562 189.708 58.5938 189.938 58.5938C190.229 58.5938 190.583 58.6667 191 58.8125C191.417 58.9583 191.688 59.1042 191.812 59.25C191.958 59.3958 192.031 59.6042 192.031 59.875L192 61.8125L195.781 61.5625C196.24 61.5417 196.646 61.4688 197 61.3438C197.062 61.3229 197.146 61.3125 197.25 61.3125C197.458 61.3125 197.75 61.4479 198.125 61.7188C198.5 61.9896 198.688 62.2708 198.688 62.5625C198.688 62.7917 198.479 62.9271 198.062 62.9688L191.969 63.3125L191.938 65.5L199.969 65.0625C200.365 65.0208 200.729 64.9583 201.062 64.875H201.156C201.427 64.875 201.75 65.0312 202.125 65.3438C202.5 65.6354 202.688 65.8958 202.688 66.125C202.688 66.3333 202.469 66.4583 202.031 66.5L180.531 67.5938C180.323 67.6146 180.042 67.625 179.688 67.625C179.396 67.625 179.115 67.5417 178.844 67.375C178.573 67.2083 178.354 66.8333 178.188 66.25L178.156 66.125ZM181.906 82.0625C181.906 81.8958 182.021 81.6562 182.25 81.3438C182.854 80.5521 183.344 79.7604 183.719 78.9688C184.115 78.1771 184.312 77.5417 184.312 77.0625V76.8125C184.312 76.625 184.375 76.5312 184.5 76.5312C184.562 76.5312 184.719 76.6042 184.969 76.75C185.24 76.875 185.479 77.0417 185.688 77.25C185.917 77.4583 186.031 77.6771 186.031 77.9062C186.031 78.0938 185.76 78.5625 185.219 79.3125C184.677 80.0417 184.094 80.7188 183.469 81.3438C182.865 81.9688 182.406 82.2812 182.094 82.2812C181.969 82.2812 181.906 82.2083 181.906 82.0625ZM182.312 85.8125C182.312 85.7292 182.365 85.625 182.469 85.5C182.594 85.3958 182.771 85.2917 183 85.1875C187.021 83.3333 189.771 80.9062 191.25 77.9062C191.333 77.7188 191.396 77.5417 191.438 77.375C191.479 77.1875 191.5 76.9688 191.5 76.7188C191.5 76.4688 191.573 76.3438 191.719 76.3438C191.906 76.3438 192.188 76.5417 192.562 76.9375C192.958 77.3333 193.156 77.6458 193.156 77.875C193.156 77.9792 193.135 78.0521 193.094 78.0938C192.01 80.0938 190.667 81.7188 189.062 82.9688C187.479 84.1979 185.51 85.1875 183.156 85.9375C182.969 86 182.802 86.0312 182.656 86.0312C182.427 86.0312 182.312 85.9583 182.312 85.8125ZM183 73.7812C183 73.6771 183.062 73.625 183.188 73.625C183.271 73.625 183.333 73.6354 183.375 73.6562C183.604 73.7604 184 73.8125 184.562 73.8125H184.938L189.562 73.5C190.021 73.4792 190.427 73.4062 190.781 73.2812C190.906 73.2396 191.01 73.2188 191.094 73.2188C191.344 73.2188 191.635 73.3646 191.969 73.6562C192.302 73.9479 192.469 74.1979 192.469 74.4062C192.469 74.6354 192.26 74.7708 191.844 74.8125L188.844 75L188.906 77.4062L188.844 80.375C188.844 80.5417 188.792 80.6875 188.688 80.8125C188.583 80.9167 188.438 80.9688 188.25 80.9688C187.958 80.9479 187.667 80.8021 187.375 80.5312C187.104 80.2396 186.969 79.9583 186.969 79.6875L187 79.4062C187.104 78.7812 187.156 78.2812 187.156 77.9062L187.188 76.9375L187.25 75.125L185.125 75.25L184.719 75.2812C184.198 75.2812 183.802 75.1458 183.531 74.875C183.281 74.5833 183.115 74.2812 183.031 73.9688C183.01 73.9271 183 73.8646 183 73.7812ZM197.5 68C197.5 67.8333 197.573 67.6354 197.719 67.4062C197.865 67.1562 198.031 67.0312 198.219 67.0312C198.552 67.0312 199.156 67.2708 200.031 67.75C200.906 68.2083 201.646 68.6146 202.25 68.9688C202.604 69.1771 202.781 69.3958 202.781 69.625C202.781 69.75 202.698 69.9688 202.531 70.2812C202.385 70.5938 202.188 70.75 201.938 70.75C201.792 70.75 201.542 70.6354 201.188 70.4062C200.167 69.7188 199.083 69.0833 197.938 68.5C197.646 68.375 197.5 68.2083 197.5 68Z" fill="#333333"/>
<path d="M262.031 68.25C261.719 68.25 261.448 68.1354 261.219 67.9062C260.531 67.1562 259.833 66.4792 259.125 65.875C258.333 65.2083 257.635 64.7083 257.031 64.375C256.74 64.2083 256.594 63.9479 256.594 63.5938C256.594 63.5312 256.667 63.4479 256.812 63.3438C257 63.2188 257.302 62.9479 257.719 62.5312L258.844 61.4375C259.344 60.9167 259.76 60.4479 260.094 60.0312C260.448 59.6146 260.646 59.3229 260.688 59.1562C260.708 59.1146 260.729 59.0312 260.75 58.9062C260.792 58.7604 260.854 58.6875 260.938 58.6875C261.042 58.6875 261.177 58.7396 261.344 58.8438C261.531 58.9479 261.688 59.0521 261.812 59.1562C262.125 59.4479 262.281 59.6979 262.281 59.9062C262.26 59.9688 262.177 60.0417 262.031 60.125C261.906 60.1875 261.792 60.25 261.688 60.3125C261.583 60.3958 261.208 60.7292 260.562 61.3125L258.531 63.0625C258.177 63.3542 258 63.5833 258 63.75C258 63.8333 258.167 63.9688 258.5 64.1562C258.896 64.4062 259.667 64.9167 260.812 65.6875C261.25 65.9792 261.667 66.3021 262.062 66.6562C262.396 66.9896 262.562 67.3333 262.562 67.6875C262.562 67.8542 262.49 68 262.344 68.125C262.26 68.2083 262.156 68.25 262.031 68.25ZM256.469 73.4688C256.24 73.4688 255.958 73.2917 255.625 72.9375C255.375 72.6875 255.25 72.5 255.25 72.375C255.25 72.3125 255.292 72.2812 255.375 72.2812C255.458 72.2604 255.562 72.25 255.688 72.25L256.375 72.2188C256.771 72.2188 257.031 72.2083 257.156 72.1875C257.552 72.1875 257.885 72.1771 258.156 72.1562C259.948 71.9896 261.156 71.8542 261.781 71.75C262.094 71.7083 262.375 71.6667 262.625 71.625C262.875 71.5625 263.073 71.5312 263.219 71.5312C263.51 71.5312 263.802 71.6771 264.094 71.9688C264.323 72.1979 264.438 72.3854 264.438 72.5312C264.438 72.6562 264.365 72.7396 264.219 72.7812C264.115 72.8021 263.5 72.8438 262.375 72.9062C261.75 72.9271 260.979 72.9792 260.062 73.0625C259.146 73.1458 258.344 73.2292 257.656 73.3125C257.531 73.3333 257.354 73.3646 257.125 73.4062C256.896 73.4479 256.677 73.4688 256.469 73.4688ZM261.125 80.4375C260.917 80.7083 260.698 80.8438 260.469 80.8438C260.406 80.8438 260.375 80.7917 260.375 80.6875C260.375 80.5417 260.417 80.375 260.5 80.1875C260.5 80.1875 260.708 79.7708 261.125 78.9375C261.146 78.8542 261.177 78.7708 261.219 78.6875C261.26 78.6042 261.292 78.5312 261.312 78.4688V78.4375C261.312 78.3958 261.281 78.3542 261.219 78.3125C261.156 78.2708 261.083 78.2604 261 78.2812C260.667 78.3021 260.167 78.3542 259.5 78.4375C258.854 78.5208 258.375 78.6042 258.062 78.6875C257.938 78.7292 257.781 78.7812 257.594 78.8438C257.427 78.9062 257.292 78.9375 257.188 78.9375C256.812 78.9375 256.5 78.8229 256.25 78.5938C256.042 78.4479 255.885 78.3021 255.781 78.1562L255.719 78C255.719 77.8958 255.896 77.8646 256.25 77.9062C256.729 77.9479 257.719 77.8854 259.219 77.7188L259.844 77.625C260.01 77.6042 260.271 77.5729 260.625 77.5312C261 77.4688 261.292 77.4062 261.5 77.3438C261.562 77.3229 261.625 77.3021 261.688 77.2812C261.771 77.2396 261.844 77.2188 261.906 77.2188C262.01 77.2188 262.135 77.2708 262.281 77.375C262.448 77.4792 262.583 77.5729 262.688 77.6562C262.833 77.7604 262.927 77.8542 262.969 77.9375C263.031 78 263.052 78.0833 263.031 78.1875C263.031 78.2917 262.979 78.3854 262.875 78.4688C262.771 78.5521 262.698 78.6146 262.656 78.6562C262.615 78.7188 262.469 78.875 262.219 79.125C262.115 79.2917 261.927 79.5208 261.656 79.8125C261.406 80.1042 261.229 80.3125 261.125 80.4375ZM259.562 86.5938C259.562 86.5312 259.667 86.3646 259.875 86.0938C260.104 85.8438 260.281 85.6458 260.406 85.5C260.719 85.0833 261.094 84.4792 261.531 83.6875C261.99 82.8958 262.25 82.375 262.312 82.125C262.354 82 262.292 81.9375 262.125 81.9375C261.792 81.9375 260.875 82.0312 259.375 82.2188C258.396 82.3438 257.667 82.4688 257.188 82.5938C257.083 82.6562 256.979 82.6875 256.875 82.6875C256.708 82.6875 256.531 82.5729 256.344 82.3438C256.26 82.1979 256.219 82.0625 256.219 81.9375C256.219 81.8542 256.271 81.7708 256.375 81.6875L256.469 81.5625C256.531 81.4375 256.604 81.2708 256.688 81.0625C256.771 80.8542 256.844 80.6562 256.906 80.4688C257.01 80.1354 257.083 79.7708 257.125 79.375C257.146 79.1458 257.271 79.0833 257.5 79.1875C257.792 79.3333 258.01 79.4792 258.156 79.625C258.323 79.75 258.375 79.8438 258.312 79.9062C258.104 80.1562 257.938 80.4375 257.812 80.75C257.708 81.0833 257.646 81.3021 257.625 81.4062C257.625 81.4896 257.677 81.5312 257.781 81.5312C258.094 81.5312 258.562 81.4792 259.188 81.375C259.542 81.3333 259.979 81.2812 260.5 81.2188C261.021 81.1562 261.438 81.0938 261.75 81.0312L262.531 80.875C262.594 80.8542 262.677 80.8438 262.781 80.8438C262.885 80.8438 262.99 80.8854 263.094 80.9688C263.198 81.0312 263.312 81.1146 263.438 81.2188C263.646 81.4062 263.781 81.5625 263.844 81.6875C263.906 81.7917 263.938 81.9167 263.938 82.0625C263.938 82.1458 263.875 82.25 263.75 82.375C263.646 82.5 263.521 82.6979 263.375 82.9688C262.771 84.1979 261.99 85.2292 261.031 86.0625C260.76 86.2708 260.458 86.4479 260.125 86.5938C259.979 86.6354 259.844 86.6562 259.719 86.6562C259.615 86.6771 259.562 86.6562 259.562 86.5938ZM269.562 72.1562C269.812 72.1562 269.938 72.2708 269.938 72.5C269.938 72.625 269.823 72.8021 269.594 73.0312C268.969 73.8021 267.729 75.2708 265.875 77.4375C265.729 77.625 265.594 77.7188 265.469 77.7188C265.365 77.7188 265.135 77.5625 264.781 77.25C264.49 77 264.344 76.7917 264.344 76.625C264.344 76.4375 264.5 76.2604 264.812 76.0938C265.292 75.8229 266.01 75.2812 266.969 74.4688C267.927 73.6146 268.635 72.9375 269.094 72.4375C269.281 72.25 269.438 72.1562 269.562 72.1562ZM228 74.5312C227.833 74.5521 227.615 74.5625 227.344 74.5625C226.99 74.5625 226.677 74.4479 226.406 74.2188C226.156 73.9688 225.99 73.625 225.906 73.1875C225.885 73.125 225.875 73.0417 225.875 72.9375C225.875 72.8333 225.927 72.7812 226.031 72.7812C226.115 72.7812 226.188 72.7917 226.25 72.8125C226.604 72.8958 227 72.9375 227.438 72.9375H227.75L230.469 72.7812L230.5 70.1562L229.906 70.1875C229.76 70.2083 229.573 70.2188 229.344 70.2188C228.885 70.2188 228.594 70.1562 228.469 70.0312C228.302 69.8854 228.146 69.6875 228 69.4375C227.292 70.3333 226.51 71.2292 225.656 72.125C224.802 73.0208 224.25 73.4688 224 73.4688C223.875 73.4688 223.812 73.3958 223.812 73.25C223.812 73.0833 223.917 72.8542 224.125 72.5625C225.625 70.5 226.844 68.6042 227.781 66.875C228.74 65.125 229.427 63.6875 229.844 62.5625C230.26 61.4375 230.469 60.6667 230.469 60.25C230.469 59.8958 230.583 59.7188 230.812 59.7188C231.083 59.7188 231.469 59.8958 231.969 60.25C232.469 60.6042 232.719 60.9167 232.719 61.1875C232.719 61.3333 232.698 61.4375 232.656 61.5L232.125 62.625C235.188 64.8542 236.719 66.2188 236.719 66.7188C236.719 66.9688 236.583 67.2396 236.312 67.5312C236.042 67.8229 235.802 67.9688 235.594 67.9688C235.406 67.9688 235.167 67.8125 234.875 67.5C233.854 66.3542 232.688 65.2292 231.375 64.125C230.458 65.8542 229.521 67.375 228.562 68.6875L229 68.7188L229.438 68.6875L232.938 68.4375C233.25 68.3958 233.562 68.3333 233.875 68.25C234.042 68.2083 234.146 68.1875 234.188 68.1875C234.375 68.1875 234.646 68.3333 235 68.625C235.438 69 235.656 69.2812 235.656 69.4688C235.656 69.6562 235.396 69.7708 234.875 69.8125L232.281 70L232.25 72.6562L233.75 72.5625C234.062 72.5417 234.427 72.4792 234.844 72.375C235.01 72.3333 235.125 72.3125 235.188 72.3125C235.438 72.3125 235.74 72.4792 236.094 72.8125C236.469 73.125 236.656 73.3854 236.656 73.5938C236.656 73.8438 236.406 73.9896 235.906 74.0312L232.219 74.25L232.156 81.6875C233.302 81.375 234.604 80.9688 236.062 80.4688C236.354 80.3646 236.625 80.3125 236.875 80.3125C237.146 80.3125 237.281 80.3854 237.281 80.5312C237.281 80.8438 236.5 81.3646 234.938 82.0938C233.375 82.8021 231.677 83.4688 229.844 84.0938C228.031 84.7396 226.917 85.0625 226.5 85.0625C226.208 85.0625 225.896 84.9271 225.562 84.6562C225.229 84.3854 224.969 84.0417 224.781 83.625C224.719 83.5208 224.688 83.4375 224.688 83.375C224.688 83.25 224.823 83.1875 225.094 83.1875C226.01 83.1875 227.781 82.8438 230.406 82.1562L230.469 74.375L228 74.5312ZM226.562 76.3438C226.562 76.1354 226.708 75.9688 227 75.8438C227.292 75.7188 227.51 75.6562 227.656 75.6562C227.906 75.6562 228.094 75.8125 228.219 76.125C228.677 77.0833 229.052 78 229.344 78.875C229.635 79.7292 229.781 80.1979 229.781 80.2812C229.781 80.5521 229.615 80.75 229.281 80.875C228.948 81 228.698 81.0625 228.531 81.0625C228.365 81.0625 228.229 81.0104 228.125 80.9062C228.042 80.8021 227.979 80.6354 227.938 80.4062C227.604 79.1146 227.198 77.9271 226.719 76.8438C226.615 76.6354 226.562 76.4688 226.562 76.3438ZM232.625 80.5312C232.625 80.3229 232.698 80.0729 232.844 79.7812C233.74 77.8021 234.188 76.4062 234.188 75.5938L234.156 75.3125L234.125 75.0938C234.125 74.8646 234.219 74.75 234.406 74.75C234.656 74.75 235 74.8958 235.438 75.1875C235.875 75.4792 236.094 75.75 236.094 76C236.094 76.0833 236.083 76.1354 236.062 76.1562C235.312 77.7188 234.635 78.8854 234.031 79.6562C233.448 80.4271 233.042 80.8125 232.812 80.8125C232.688 80.8125 232.625 80.7188 232.625 80.5312ZM235.531 84.8438C235.531 84.6354 235.927 84.3646 236.719 84.0312C239.115 83.0729 241.177 82.1354 242.906 81.2188L242.25 80.2812C241.667 79.3646 241.188 78.4896 240.812 77.6562L238.656 78C238.281 78.0417 238.031 78.0625 237.906 78.0625C237.531 78.0625 237.229 77.9688 237 77.7812C236.792 77.5938 236.594 77.2917 236.406 76.875C236.344 76.75 236.312 76.6562 236.312 76.5938C236.312 76.5104 236.365 76.4688 236.469 76.4688C236.573 76.4688 236.656 76.4792 236.719 76.5C236.969 76.5417 237.177 76.5625 237.344 76.5625C237.635 76.5625 237.948 76.5312 238.281 76.4688L240.188 76.1562C239.833 75.2188 239.521 74.2396 239.25 73.2188C239.125 72.7396 238.906 72.375 238.594 72.125C238.385 71.9583 238.281 71.8333 238.281 71.75C238.281 71.5833 238.542 71.5 239.062 71.5C239.729 71.5 240.188 71.5833 240.438 71.75C240.688 71.8958 240.833 72.0417 240.875 72.1875C241.167 73.5 241.542 74.7292 242 75.875L248.438 74.875C248.75 74.8333 249.083 74.7396 249.438 74.5938C249.646 74.5104 249.781 74.4688 249.844 74.4688C250.052 74.4688 250.323 74.6146 250.656 74.9062C251.01 75.1979 251.188 75.4583 251.188 75.6875C251.188 75.9167 250.958 76.0625 250.5 76.125L242.625 77.375C243 78.125 243.312 78.7083 243.562 79.125C243.833 79.5208 244.125 79.9167 244.438 80.3125C245.688 79.5625 246.562 78.9583 247.062 78.5C247.562 78.0417 247.854 77.6458 247.938 77.3125C248 77.0417 248.104 76.9062 248.25 76.9062C248.438 76.9062 248.656 77.1562 248.906 77.6562C249.156 78.1354 249.281 78.5104 249.281 78.7812C249.281 78.9271 249.219 79.0521 249.094 79.1562C247.99 80.0312 246.812 80.8229 245.562 81.5312C246.271 82.2188 246.979 82.8021 247.688 83.2812C248.417 83.7604 249.042 84.1146 249.562 84.3438C250.083 84.5938 250.396 84.7188 250.5 84.7188C250.646 84.7188 250.781 84.6354 250.906 84.4688C251.031 84.3229 251.177 83.9688 251.344 83.4062C251.531 82.8438 251.771 81.9688 252.062 80.7812C252.146 80.4479 252.24 80.1875 252.344 80C252.469 79.7917 252.573 79.6875 252.656 79.6875C252.865 79.6875 252.969 80.0104 252.969 80.6562V80.875C252.906 82.5625 252.812 83.8229 252.688 84.6562C252.562 85.5104 252.385 86.0833 252.156 86.375C251.948 86.6875 251.635 86.8438 251.219 86.8438C250.135 86.8438 248.906 86.375 247.531 85.4375C246.177 84.5208 244.979 83.5104 243.938 82.4062C242.583 83.0729 241.042 83.6667 239.312 84.1875C237.604 84.7292 236.479 85 235.938 85C235.667 85 235.531 84.9479 235.531 84.8438ZM236.219 64.5C236.219 64.4167 236.271 64.375 236.375 64.375C236.458 64.375 236.531 64.3854 236.594 64.4062C236.885 64.4479 237.094 64.4688 237.219 64.4688C237.49 64.4688 237.792 64.4375 238.125 64.375L240.188 64.0312C239.812 63.1562 239.385 62.0104 238.906 60.5938C238.781 60.1562 238.531 59.8021 238.156 59.5312C237.99 59.4062 237.906 59.3021 237.906 59.2188C237.906 59.0521 238.167 58.9688 238.688 58.9688C239.75 58.9688 240.333 59.1667 240.438 59.5625C240.812 61.0833 241.302 62.4896 241.906 63.7812L247.781 62.8438C247.948 62.8229 248.281 62.7292 248.781 62.5625C248.948 62.5208 249.062 62.5 249.125 62.5C249.417 62.5 249.719 62.6458 250.031 62.9375C250.365 63.2292 250.531 63.4688 250.531 63.6562C250.531 63.8854 250.302 64.0312 249.844 64.0938L242.688 65.25C243.208 66.125 243.719 66.8438 244.219 67.4062C245.281 66.7188 246 66.2292 246.375 65.9375C246.771 65.625 247.01 65.3542 247.094 65.125C247.156 65 247.219 64.8958 247.281 64.8125C247.344 64.7083 247.417 64.6562 247.5 64.6562C247.667 64.6562 247.917 64.8646 248.25 65.2812C248.583 65.6771 248.75 65.9896 248.75 66.2188C248.75 66.3854 248.677 66.5208 248.531 66.625C247.302 67.4792 246.24 68.125 245.344 68.5625C246.01 69.1667 246.708 69.6667 247.438 70.0625C248.167 70.4583 248.844 70.7188 249.469 70.8438L249.625 70.875C249.75 70.875 249.896 70.6771 250.062 70.2812C250.25 69.8646 250.531 68.9167 250.906 67.4375C251.073 66.8125 251.25 66.5 251.438 66.5C251.521 66.5 251.594 66.5833 251.656 66.75C251.719 66.8958 251.75 67.1146 251.75 67.4062V67.5938C251.708 69.1562 251.604 70.3125 251.438 71.0625C251.292 71.8125 251.115 72.2812 250.906 72.4688C250.698 72.6354 250.438 72.7188 250.125 72.7188C249.833 72.7188 249.365 72.6354 248.719 72.4688C248.073 72.2812 247.302 71.9375 246.406 71.4375C245.51 70.9375 244.604 70.2396 243.688 69.3438C242.708 69.7604 241.719 70.125 240.719 70.4375C239.719 70.75 238.854 70.9896 238.125 71.1562C237.396 71.3021 236.958 71.375 236.812 71.375C236.458 71.375 236.281 71.3021 236.281 71.1562C236.281 71.0521 236.365 70.9375 236.531 70.8125C236.698 70.6875 236.948 70.5729 237.281 70.4688C239.469 69.7396 241.271 69 242.688 68.25C241.958 67.3125 241.365 66.4062 240.906 65.5312L238.469 65.9062C238.094 65.9479 237.854 65.9688 237.75 65.9688C237.354 65.9688 237.042 65.8646 236.812 65.6562C236.583 65.4062 236.406 65.1146 236.281 64.7812L236.219 64.5ZM241.906 72.4062C241.906 72.3021 241.938 72.1771 242 72.0312C242.146 71.6771 242.323 71.5 242.531 71.5C242.656 71.5 242.792 71.5312 242.938 71.5938C243.896 71.9479 244.677 72.2604 245.281 72.5312C245.906 72.7812 246.312 72.9792 246.5 73.125C246.688 73.2708 246.781 73.4271 246.781 73.5938C246.781 73.7604 246.708 73.9896 246.562 74.2812C246.417 74.5729 246.219 74.7188 245.969 74.7188C245.823 74.7188 245.625 74.6458 245.375 74.5C244.208 73.8333 243.24 73.3333 242.469 73C242.094 72.8333 241.906 72.6354 241.906 72.4062ZM241.906 60.25C241.906 60.1458 241.979 59.9583 242.125 59.6875C242.271 59.4167 242.448 59.2812 242.656 59.2812C242.781 59.2812 243.229 59.4167 244 59.6875C244.792 59.9583 245.51 60.2604 246.156 60.5938C246.802 60.9271 247.125 61.2188 247.125 61.4688C247.125 61.6354 247.042 61.875 246.875 62.1875C246.708 62.4792 246.531 62.625 246.344 62.625C246.219 62.625 246.021 62.5417 245.75 62.375C244.729 61.7708 243.656 61.2396 242.531 60.7812C242.115 60.6146 241.906 60.4375 241.906 60.25Z" fill="#333333"/>
</svg>
