<svg width="350" height="88" viewBox="0 0 350 88" fill="none" xmlns="http://www.w3.org/2000/svg">
<path d="M132.426 16.5664C131.652 16.2852 131.289 15.9805 131.336 15.6523C131.477 14.668 131.547 13.543 131.547 12.2773C131.547 11.7148 131.535 11.3047 131.512 11.0469C131.488 10.7422 131.465 10.4844 131.441 10.2734C131.418 10.0391 131.418 9.91016 131.441 9.88672C131.535 9.79297 131.652 9.74609 131.793 9.74609C132.004 9.74609 132.262 9.83984 132.566 10.0273C132.895 10.2148 133.059 10.4023 133.059 10.5898C133.059 10.707 133.047 10.8242 133.023 10.9414C133 11.0352 132.988 11.1406 132.988 11.2578L132.777 14.7383C132.777 14.9258 132.848 15.043 132.988 15.0898H133.164C133.352 15.0898 133.48 15.0781 133.551 15.0547L138.086 14.4219V13.5078C138.086 12.3594 138.062 11.4688 138.016 10.8359C137.992 10.2969 137.934 9.86328 137.84 9.53516C137.77 9.16016 137.863 8.97266 138.121 8.97266C138.309 8.97266 138.555 9.04297 138.859 9.18359C139.234 9.37109 139.457 9.53516 139.527 9.67578C139.598 9.79297 139.621 9.98047 139.598 10.2383C139.551 10.6602 139.527 11.293 139.527 12.1367L139.562 14.8086C139.562 15.3711 139.457 15.8164 139.246 16.1445C139.129 16.2852 139.012 16.3555 138.895 16.3555C138.777 16.3555 138.613 16.25 138.402 16.0391C138.355 15.9922 138.297 15.9219 138.227 15.8281C138.156 15.7344 138.086 15.6758 138.016 15.6523C137.945 15.6289 137.852 15.6172 137.734 15.6172C137.195 15.6641 135.895 15.8398 133.832 16.1445C133.48 16.1914 133.199 16.2852 132.988 16.4258C132.754 16.543 132.602 16.6016 132.531 16.6016L132.426 16.5664ZM136.891 24.125C136.656 24.4297 136.41 24.582 136.152 24.582C136.082 24.582 136.047 24.5234 136.047 24.4062C136.047 24.2422 136.094 24.0547 136.188 23.8438C136.188 23.8438 136.422 23.375 136.891 22.4375C136.914 22.3438 136.949 22.25 136.996 22.1562C137.043 22.0625 137.078 21.9805 137.102 21.9102V21.875C137.102 21.8281 137.066 21.7812 136.996 21.7344C136.926 21.6875 136.844 21.6758 136.75 21.6992C136.375 21.7227 135.812 21.7812 135.062 21.875C134.336 21.9688 133.797 22.0625 133.445 22.1562C133.305 22.2031 133.129 22.2617 132.918 22.332C132.73 22.4023 132.578 22.4375 132.461 22.4375C132.039 22.4375 131.688 22.3086 131.406 22.0508C131.172 21.8867 130.996 21.7227 130.879 21.5586L130.809 21.3828C130.809 21.2656 131.008 21.2305 131.406 21.2773C131.945 21.3242 133.059 21.2539 134.746 21.0664L135.449 20.9609C135.637 20.9375 135.93 20.9023 136.328 20.8555C136.75 20.7852 137.078 20.7148 137.312 20.6445C137.383 20.6211 137.453 20.5977 137.523 20.5742C137.617 20.5273 137.699 20.5039 137.77 20.5039C137.887 20.5039 138.027 20.5625 138.191 20.6797C138.379 20.7969 138.531 20.9023 138.648 20.9961C138.812 21.1133 138.918 21.2188 138.965 21.3125C139.035 21.3828 139.059 21.4766 139.035 21.5938C139.035 21.7109 138.977 21.8164 138.859 21.9102C138.742 22.0039 138.66 22.0742 138.613 22.1211C138.566 22.1914 138.402 22.3672 138.121 22.6484C138.004 22.8359 137.793 23.0938 137.488 23.4219C137.207 23.75 137.008 23.9844 136.891 24.125ZM135.133 31.0508C135.133 30.9805 135.25 30.8047 135.484 30.5234C135.742 30.2188 135.941 29.9844 136.082 29.8203C136.434 29.3516 136.855 28.6719 137.348 27.7812C137.863 26.8906 138.156 26.3047 138.227 26.0234C138.273 25.8828 138.203 25.8125 138.016 25.8125C137.641 25.8125 136.609 25.918 134.922 26.1289C133.82 26.2695 133 26.4102 132.461 26.5508C132.344 26.6211 132.227 26.6562 132.109 26.6562C131.922 26.6562 131.723 26.5273 131.512 26.2695C131.418 26.1055 131.371 25.9531 131.371 25.8125C131.371 25.7188 131.43 25.625 131.547 25.5312L131.652 25.3906C131.723 25.25 131.805 25.0625 131.898 24.8281C131.992 24.5938 132.074 24.3711 132.145 24.1602C132.262 23.7852 132.344 23.375 132.391 22.9297C132.414 22.6719 132.555 22.6016 132.812 22.7188C133.141 22.8828 133.387 23.0469 133.551 23.2109C133.738 23.3516 133.797 23.457 133.727 23.5273C133.492 23.8086 133.305 24.125 133.164 24.4766C133.047 24.8516 132.977 25.0977 132.953 25.2148C132.953 25.3086 133.012 25.3555 133.129 25.3555C133.48 25.3555 134.008 25.2969 134.711 25.1797C135.109 25.1328 135.602 25.0742 136.188 25.0039C136.773 24.9336 137.242 24.8633 137.594 24.793L138.473 24.6172C138.543 24.5938 138.637 24.582 138.754 24.582C138.871 24.582 138.988 24.6289 139.105 24.7227C139.223 24.793 139.352 24.8867 139.492 25.0039C139.727 25.2148 139.879 25.3906 139.949 25.5312C140.02 25.6484 140.055 25.7891 140.055 25.9531C140.055 26.0469 139.984 26.1641 139.844 26.3047C139.727 26.4453 139.586 26.668 139.422 26.9727C138.742 28.3555 137.863 29.5156 136.785 30.4531C136.48 30.6875 136.141 30.8867 135.766 31.0508C135.602 31.0977 135.449 31.1328 135.309 31.1562C135.191 31.1562 135.133 31.1211 135.133 31.0508ZM146.383 14.8086C146.664 14.8086 146.805 14.9375 146.805 15.1953C146.805 15.3359 146.676 15.5352 146.418 15.793C145.715 16.6602 144.32 18.3125 142.234 20.75C142.07 20.9609 141.918 21.0664 141.777 21.0664C141.66 21.0664 141.402 20.8906 141.004 20.5391C140.676 20.2578 140.512 20.0234 140.512 19.8359C140.512 19.625 140.688 19.4258 141.039 19.2383C141.578 18.9336 142.387 18.3242 143.465 17.4102C144.543 16.4492 145.34 15.6875 145.855 15.125C146.066 14.9141 146.242 14.8086 146.383 14.8086ZM104.512 9.88672C104.254 9.91016 103.926 9.92188 103.527 9.92188H103.176C102.848 9.875 102.613 9.81641 102.473 9.74609C102.238 9.58203 101.992 9.3125 101.734 8.9375C101.477 8.53906 101.348 8.21094 101.348 7.95312C101.348 7.78906 101.418 7.70703 101.559 7.70703C101.652 7.70703 101.734 7.71875 101.805 7.74219C102.227 7.85938 102.742 7.91797 103.352 7.91797H103.809L117.52 7.03906C118.059 6.99219 118.586 6.88672 119.102 6.72266C119.148 6.69922 119.23 6.6875 119.348 6.6875C119.652 6.6875 120.051 6.92187 120.543 7.39062C121.059 7.85938 121.316 8.21094 121.316 8.44531C121.316 8.72656 121.023 8.89062 120.438 8.9375L104.512 9.88672ZM94.9492 34.6719C94.9492 34.4609 95.2188 34.2031 95.7578 33.8984C97.8203 32.7031 99.543 31.4023 100.926 29.9961C102.332 28.5898 103.492 26.9141 104.406 24.9688C105.32 23 106.059 20.6211 106.621 17.832L100.469 18.1484C100.141 18.1719 99.7422 18.1836 99.2734 18.1836C98.9688 18.1836 98.7227 18.1602 98.5352 18.1133C98.3477 18.0664 98.1719 17.9609 98.0078 17.7969C97.7031 17.4922 97.4688 17.1641 97.3047 16.8125C97.1406 16.4609 97.0586 16.2266 97.0586 16.1094C97.0586 15.9688 97.1641 15.8984 97.375 15.8984H97.5859C98.0312 16.0391 98.5703 16.1094 99.2031 16.1094H99.5547L121.738 14.9844C122.324 14.9375 122.863 14.832 123.355 14.668C123.496 14.6211 123.59 14.5977 123.637 14.5977C123.918 14.5977 124.328 14.832 124.867 15.3008C125.406 15.7695 125.676 16.1562 125.676 16.4609C125.676 16.7188 125.395 16.8711 124.832 16.918L115.199 17.4102L114.988 29.5391V29.6445C114.988 30.2305 115.129 30.6641 115.41 30.9453C115.691 31.2031 116.09 31.3672 116.605 31.4375C117.145 31.5078 117.918 31.543 118.926 31.543C120.332 31.543 121.574 31.4258 122.652 31.1914C123.051 31.1211 123.379 30.8984 123.637 30.5234C123.895 30.1484 124.141 29.4922 124.375 28.5547C124.609 27.6172 124.855 26.2344 125.113 24.4062C125.184 23.9375 125.277 23.5742 125.395 23.3164C125.535 23.0352 125.676 22.8945 125.816 22.8945C126.074 22.8945 126.227 23.1758 126.273 23.7383C126.344 24.3008 126.379 25.0625 126.379 26.0234C126.379 27.5 126.309 29.0117 126.168 30.5586C126.098 31.332 125.887 31.9414 125.535 32.3867C125.207 32.8555 124.539 33.2188 123.531 33.4766C122.547 33.7578 121.082 33.8984 119.137 33.8984C117.777 33.8984 116.664 33.8281 115.797 33.6875C114.93 33.5703 114.191 33.2305 113.582 32.668C112.973 32.1289 112.668 31.2617 112.668 30.0664V29.9609L112.879 17.5156L109.152 17.7266C108.215 22.5078 106.715 26.2344 104.652 28.9062C102.613 31.5547 99.7422 33.4883 96.0391 34.707C95.7578 34.8008 95.5 34.8477 95.2656 34.8477C95.0547 34.8477 94.9492 34.7891 94.9492 34.6719ZM189.414 13.9297C189.273 13.9297 189.086 13.7773 188.852 13.4727C188.617 13.1445 188.512 12.8633 188.535 12.6289C188.582 12.4414 188.617 11.9141 188.641 11.0469C188.664 10.4609 188.676 9.42969 188.676 7.95312C188.676 6.92187 188.664 6.23047 188.641 5.87891L187.48 5.98438C186.66 6.10156 185.957 6.16016 185.371 6.16016C185.207 6.16016 184.973 6.03125 184.668 5.77344C184.363 5.51562 184.211 5.32813 184.211 5.21094C184.211 5.02344 184.41 4.95312 184.809 5C185.066 5.02344 185.828 5.01172 187.094 4.96484C188.828 4.84766 190.082 4.77734 190.855 4.75391C191.254 4.73047 191.617 4.69531 191.945 4.64844C192.297 4.57812 192.543 4.53125 192.684 4.50781C192.895 4.48438 193.082 4.50781 193.246 4.57812C193.41 4.64844 193.562 4.74219 193.703 4.85938C193.867 4.95312 193.996 5.02344 194.09 5.07031C194.301 5.21094 194.406 5.33984 194.406 5.45703C194.406 5.55078 194.348 5.64453 194.23 5.73828C194.137 5.80859 194.031 5.84375 193.914 5.84375C193.797 5.84375 193.633 5.83203 193.422 5.80859C193.234 5.78516 193.023 5.77344 192.789 5.77344C191.922 5.77344 191.031 5.79687 190.117 5.84375C190.094 6.03125 190.082 6.5 190.082 7.25C190.035 8.51562 190.012 9.75781 190.012 10.9766V12.3477V12.6641C190.012 13.0625 189.977 13.3203 189.906 13.4375C189.695 13.7656 189.531 13.9297 189.414 13.9297ZM185.652 20.1523C185.395 20.1523 185.078 19.9531 184.703 19.5547C184.422 19.2734 184.281 19.0625 184.281 18.9219C184.281 18.8516 184.328 18.8164 184.422 18.8164C184.516 18.793 184.633 18.7812 184.773 18.7812L185.547 18.7461C185.992 18.7461 186.285 18.7344 186.426 18.7109C186.871 18.7109 187.246 18.6992 187.551 18.6758C189.566 18.4883 190.926 18.3359 191.629 18.2188C191.98 18.1719 192.297 18.125 192.578 18.0781C192.859 18.0078 193.082 17.9727 193.246 17.9727C193.574 17.9727 193.902 18.1367 194.23 18.4648C194.488 18.7227 194.617 18.9336 194.617 19.0977C194.617 19.2383 194.535 19.332 194.371 19.3789C194.254 19.4023 193.562 19.4492 192.297 19.5195C191.594 19.543 190.727 19.6016 189.695 19.6953C188.664 19.7891 187.762 19.8828 186.988 19.9766C186.848 20 186.648 20.0352 186.391 20.082C186.133 20.1289 185.887 20.1523 185.652 20.1523ZM193.211 32.2812C193.258 32.375 193.34 32.5156 193.457 32.7031C193.574 32.8906 193.633 33.1133 193.633 33.3711C193.633 33.6055 193.539 33.793 193.352 33.9336C193.164 34.0977 192.953 34.1797 192.719 34.1797C192.508 34.1797 192.332 33.9688 192.191 33.5469C192.121 33.3828 192.062 33.2422 192.016 33.125C191.992 33.0312 191.969 32.9492 191.945 32.8789C191.641 32.9727 191.242 33.0547 190.75 33.125C190.258 33.1953 189.906 33.2539 189.695 33.3008C188.57 33.5117 187.797 33.6641 187.375 33.7578C187.211 33.8047 187.035 33.8516 186.848 33.8984C186.66 33.9688 186.555 34.0156 186.531 34.0391C186.391 34.0859 186.285 34.1094 186.215 34.1094C186.027 34.1094 185.852 34.0273 185.688 33.8633C185.406 33.6523 185.195 33.3711 185.055 33.0195C185.031 32.9961 185.02 32.9609 185.02 32.9141C185.02 32.8672 185.078 32.8086 185.195 32.7383C185.336 32.668 185.441 32.6211 185.512 32.5977C185.816 32.4336 186.355 31.9414 187.129 31.1211L188.078 30.207L186.004 29.082C185.77 29.0117 185.617 28.9297 185.547 28.8359C185.477 28.7422 185.441 28.6016 185.441 28.4141C185.441 28.2734 185.465 28.1797 185.512 28.1328C185.582 28.0625 185.723 27.957 185.934 27.8164C186.145 27.6758 186.355 27.4883 186.566 27.2539C186.684 27.1133 186.836 26.9609 187.023 26.7969C187.211 26.6328 187.387 26.457 187.551 26.2695C188.254 25.4492 188.699 24.8047 188.887 24.3359C189.004 24.1016 189.098 23.9844 189.168 23.9844C189.215 23.9844 189.309 24.0312 189.449 24.125C189.895 24.4531 190.164 24.7578 190.258 25.0391V25.1445C190.258 25.2617 190.199 25.3555 190.082 25.4258C189.965 25.4961 189.883 25.5547 189.836 25.6016C189.766 25.6484 189.414 25.9883 188.781 26.6211L188.148 27.2539C188.031 27.3711 187.832 27.5703 187.551 27.8516C187.27 28.1094 187.129 28.2617 187.129 28.3086C187.129 28.3789 187.164 28.4375 187.234 28.4844C187.328 28.5312 187.398 28.5781 187.445 28.625L188.922 29.3281C189.836 28.4141 190.363 27.875 190.504 27.7109C191.113 27.0078 191.453 26.5625 191.523 26.375C191.547 26.3516 191.582 26.293 191.629 26.1992C191.676 26.1055 191.723 26.0586 191.77 26.0586C191.84 26.0586 191.91 26.0938 191.98 26.1641C192.355 26.5156 192.625 26.8438 192.789 27.1484C192.836 27.2422 192.859 27.3008 192.859 27.3242C192.859 27.3711 192.801 27.4414 192.684 27.5352C192.59 27.6055 192.496 27.6758 192.402 27.7461C191.582 28.4258 190.621 29.3164 189.52 30.418L187.375 32.4219C187.328 32.4688 187.305 32.5156 187.305 32.5625C187.305 32.6094 187.328 32.6445 187.375 32.668C187.422 32.6914 187.492 32.6914 187.586 32.668L191.699 31.9648C191.582 31.4961 191.441 31.0273 191.277 30.5586V30.4883C191.277 30.418 191.312 30.3828 191.383 30.3828C191.477 30.3828 191.617 30.4531 191.805 30.5938C192.18 30.9219 192.648 31.4844 193.211 32.2812ZM159.391 19.6602L159.355 21.7344C159.496 21.7109 159.684 21.7109 159.918 21.7344C160.035 21.7109 160.141 21.7109 160.234 21.7344C160.328 21.7344 160.434 21.7344 160.551 21.7344C162.965 21.9453 165.883 22.2969 169.305 22.7891C169.68 22.8359 169.961 22.9531 170.148 23.1406C170.336 23.3281 170.43 23.5156 170.43 23.7031C170.359 24.4766 169.961 24.8281 169.234 24.7578C169 24.7109 168.555 24.6758 167.898 24.6523C167.852 24.6523 167.348 24.5703 166.387 24.4062C163.48 23.9375 161.418 23.6562 160.199 23.5625C159.754 23.5156 159.449 23.457 159.285 23.3867C159.215 24.8398 159.074 26.1172 158.863 27.2188H158.969C160.516 27.2188 162.391 27.1367 164.594 26.9727L165.719 26.8672C168.859 26.6328 171.203 26.4219 172.75 26.2344L172.68 19.0625L159.391 19.6602ZM151.621 13.7188C151.621 13.6016 151.656 13.4727 151.727 13.332C152.758 11.3633 153.543 9.20703 154.082 6.86328C154.129 6.60547 154.199 6.41797 154.293 6.30078C154.387 6.18359 154.527 6.125 154.715 6.125C154.996 6.125 155.312 6.21875 155.664 6.40625C156.016 6.57031 156.191 6.76953 156.191 7.00391C156.191 7.05078 156.168 7.19141 156.121 7.42578L155.945 8.19922L165.578 7.67188C165.133 7.10938 164.582 6.53516 163.926 5.94922C163.293 5.36328 162.93 5.02344 162.836 4.92969C162.719 4.83594 162.625 4.74219 162.555 4.64844C162.484 4.53125 162.473 4.41406 162.52 4.29688C162.566 4.0625 162.73 3.82812 163.012 3.59375C163.316 3.35938 163.551 3.26562 163.715 3.3125C163.879 3.33594 164.254 3.58203 164.84 4.05078C165.426 4.51953 166.211 5.24609 167.195 6.23047C167.547 6.51172 167.688 6.80469 167.617 7.10938C167.594 7.20312 167.5 7.36719 167.336 7.60156L178.199 7.00391L178.551 6.96875C178.879 6.96875 179.16 7.05078 179.395 7.21484C179.652 7.37891 179.852 7.56641 179.992 7.77734C180.133 7.98828 180.203 8.14063 180.203 8.23438C180.203 8.42188 180.098 8.60937 179.887 8.79688C179.699 8.96094 179.57 9.10156 179.5 9.21875C178.375 10.6953 177.461 11.7852 176.758 12.4883C176.055 13.1914 175.562 13.543 175.281 13.543C175.117 13.543 175.035 13.4492 175.035 13.2617C175.035 13.0039 175.164 12.6641 175.422 12.2422C176.125 11.0703 176.688 9.98047 177.109 8.97266L155.418 10.0273C154.949 11.5273 154.41 12.9453 153.801 14.2812C153.66 14.6562 153.438 14.8438 153.133 14.8438C152.711 14.75 152.348 14.6094 152.043 14.4219C151.762 14.2109 151.621 13.9766 151.621 13.7188ZM153.273 35.1992C153.273 34.9414 153.379 34.6484 153.59 34.3203C154.504 33.0547 155.219 31.8477 155.734 30.6992C156.25 29.5508 156.637 28.2148 156.895 26.6914C157.152 25.1445 157.281 23.2461 157.281 20.9961C157.281 20.0352 157.258 19.3555 157.211 18.957C157.188 18.5586 157.117 18.2305 157 17.9727C156.859 17.7852 156.789 17.6094 156.789 17.4453C156.789 17.3984 156.812 17.3516 156.859 17.3047C156.906 17.2578 156.977 17.2344 157.07 17.2344C157.656 17.2344 158.359 17.4219 159.18 17.7969L164.488 17.5508L164.559 12.4531C164.559 12.0078 164.395 11.5156 164.066 10.9766C163.973 10.8125 163.926 10.6836 163.926 10.5898C163.926 10.4023 164.055 10.3086 164.312 10.3086C164.57 10.3086 165.004 10.4023 165.613 10.5898C166.105 10.7305 166.422 10.8711 166.562 11.0117C166.703 11.1523 166.773 11.3516 166.773 11.6094L166.562 17.4453L173.066 17.1289L173.523 17.0938C173.922 17.0938 174.262 17.2578 174.543 17.5859C174.824 17.8906 174.965 18.1367 174.965 18.3242C174.965 18.418 174.941 18.5352 174.895 18.6758C174.848 18.793 174.824 18.8984 174.824 18.9922L174.93 32.8438L174.965 33.7578C174.965 34.2266 174.789 34.625 174.438 34.9531C174.133 35.2344 173.852 35.375 173.594 35.375C173.312 35.375 172.656 35.082 171.625 34.4961C170.617 33.9336 169.668 33.3242 168.777 32.668C167.887 32.0117 167.441 31.5664 167.441 31.332C167.441 31.1914 167.547 31.1211 167.758 31.1211C168.016 31.1211 168.344 31.2031 168.742 31.3672C170.148 31.9297 171.496 32.3516 172.785 32.6328L172.75 27.3594C171.344 27.8516 169.211 28.3438 166.352 28.8359C163.492 29.3281 161.559 29.5742 160.551 29.5742C159.59 29.5742 158.945 29.1523 158.617 28.3086C158.289 29.5977 157.797 30.7812 157.141 31.8594C156.484 32.9375 155.816 33.793 155.137 34.4258C154.48 35.0586 153.941 35.3984 153.52 35.4453C153.355 35.4453 153.273 35.3633 153.273 35.1992ZM157 12.5938C157 12.3828 157.105 12.1484 157.316 11.8906C157.527 11.6328 157.738 11.5039 157.949 11.5039C158.137 11.5039 158.629 11.8086 159.426 12.418C160.223 13.0039 160.961 13.625 161.641 14.2812C162.344 14.9375 162.695 15.3711 162.695 15.582C162.695 15.793 162.555 16.0391 162.273 16.3203C161.992 16.625 161.734 16.7773 161.5 16.7773C161.266 16.7773 161.008 16.625 160.727 16.3203C159.578 15.1016 158.406 14 157.211 13.0156C157.07 12.875 157 12.7344 157 12.5938ZM167.758 16.7422C167.758 16.5547 167.91 16.3086 168.215 16.0039C169.129 15.0898 169.914 14.1523 170.57 13.1914C171.25 12.2305 171.613 11.5156 171.66 11.0469C171.684 11 171.695 10.918 171.695 10.8008C171.695 10.4961 171.789 10.3438 171.977 10.3438C172.281 10.3438 172.68 10.5781 173.172 11.0469C173.688 11.4922 173.945 11.8672 173.945 12.1719C173.945 12.4766 173.324 13.1562 172.082 14.2109C170.863 15.2422 169.773 16.0391 168.812 16.6016L168.637 16.707C168.402 16.8477 168.18 16.918 167.969 16.918C167.828 16.918 167.758 16.8594 167.758 16.7422ZM246.121 14.3867C245.957 14.3867 245.781 14.2812 245.594 14.0703C245.453 13.9063 245.359 13.7773 245.312 13.6836C245.266 13.5664 245.266 13.4141 245.312 13.2266L245.348 12.3828C245.371 12.2188 245.383 11.8203 245.383 11.1875V10.0273L244.328 10.5195L243.098 11.0469C242.793 11.1641 242.477 11.3047 242.148 11.4688C241.867 11.6094 241.621 11.6797 241.41 11.6797C241.246 11.6563 241.059 11.5977 240.848 11.5039C240.637 11.4102 240.473 11.3281 240.355 11.2578C240.098 11.0938 239.98 10.918 240.004 10.7305L240.109 10.3789C240.109 10.1914 240.121 10.0273 240.145 9.88672L240.18 7.84766V5.94922C240.18 5.57422 240.156 5.25781 240.109 5C240.062 4.71875 240.027 4.51953 240.004 4.40234C240.004 4.28516 240.039 4.20313 240.109 4.15625C240.133 4.13281 240.191 4.12109 240.285 4.12109C240.449 4.12109 240.766 4.22656 241.234 4.4375C241.633 4.625 241.797 4.85938 241.727 5.14062C241.68 5.30469 241.633 5.55078 241.586 5.87891L241.48 9.92188C241.48 10.0391 241.492 10.1328 241.516 10.2031C241.562 10.25 241.609 10.2734 241.656 10.2734C241.938 10.2734 242.277 10.1914 242.676 10.0273C243.426 9.79297 244.07 9.55859 244.609 9.32422L245.383 9.00781V6.6875C245.383 5.75 245.324 4.84766 245.207 3.98047C245.184 3.91016 245.172 3.82812 245.172 3.73438C245.172 3.5 245.266 3.38281 245.453 3.38281C245.477 3.38281 245.605 3.42969 245.84 3.52344C246.191 3.71094 246.449 3.875 246.613 4.01562C246.777 4.15625 246.871 4.23828 246.895 4.26172C246.988 4.33203 247.035 4.40234 247.035 4.47266C247.035 4.51953 247.012 4.57812 246.965 4.64844C246.941 4.71875 246.918 4.77734 246.895 4.82422L246.789 5.87891L246.754 9.11328L246.789 12.2422C246.789 12.7813 246.754 13.25 246.684 13.6484C246.566 14.1406 246.379 14.3867 246.121 14.3867ZM239.652 20.1523C239.395 20.1523 239.078 19.9531 238.703 19.5547C238.422 19.2734 238.281 19.0625 238.281 18.9219C238.281 18.8516 238.328 18.8164 238.422 18.8164C238.516 18.793 238.633 18.7812 238.773 18.7812L239.547 18.7461C239.992 18.7461 240.285 18.7344 240.426 18.7109C240.871 18.7109 241.246 18.6992 241.551 18.6758C243.566 18.4883 244.926 18.3359 245.629 18.2188C245.98 18.1719 246.297 18.125 246.578 18.0781C246.859 18.0078 247.082 17.9727 247.246 17.9727C247.574 17.9727 247.902 18.1367 248.23 18.4648C248.488 18.7227 248.617 18.9336 248.617 19.0977C248.617 19.2383 248.535 19.332 248.371 19.3789C248.254 19.4023 247.562 19.4492 246.297 19.5195C245.594 19.543 244.727 19.6016 243.695 19.6953C242.664 19.7891 241.762 19.8828 240.988 19.9766C240.848 20 240.648 20.0352 240.391 20.082C240.133 20.1289 239.887 20.1523 239.652 20.1523ZM244.363 34.6719C243.637 34.6719 243.074 34.6484 242.676 34.6016C242.301 34.5547 241.984 34.4141 241.727 34.1797C241.281 33.8516 240.977 33.1367 240.812 32.0352L240.707 30.9102C240.707 30.6289 240.684 30.2773 240.637 29.8555C240.262 29.9023 239.992 29.9492 239.828 29.9961C239.781 30.0195 239.699 30.0547 239.582 30.1016C239.488 30.125 239.418 30.1367 239.371 30.1367C239.207 30.1367 239.055 30.0898 238.914 29.9961C238.773 29.9023 238.598 29.7266 238.387 29.4688C238.223 29.2578 238.141 29.1172 238.141 29.0469C238.141 28.9766 238.223 28.9297 238.387 28.9062C238.551 28.8828 238.773 28.8711 239.055 28.8711C239.453 28.8711 239.969 28.8242 240.602 28.7305L240.566 28.2383C240.566 27.3008 240.508 26.5039 240.391 25.8477L240.355 25.6016C240.355 25.2734 240.484 25.1445 240.742 25.2148C241.023 25.3086 241.281 25.4258 241.516 25.5664C241.703 25.6602 241.832 25.7539 241.902 25.8477C241.973 25.918 241.996 26.0234 241.973 26.1641L241.867 27.6758V28.5898L244.961 28.2734C244.961 28.1094 244.973 27.7227 244.996 27.1133C245.02 26.4805 245.02 26.0703 244.996 25.8828C244.996 25.6953 244.973 25.5195 244.926 25.3555C244.902 25.168 244.879 25.0156 244.855 24.8984C244.855 24.7109 244.949 24.6172 245.137 24.6172C245.324 24.6172 245.559 24.7227 245.84 24.9336C246.168 25.1445 246.379 25.332 246.473 25.4961C246.59 25.6602 246.613 25.8594 246.543 26.0938C246.426 26.4688 246.344 26.8906 246.297 27.3594C246.25 27.8281 246.227 28.1094 246.227 28.2031C246.508 28.1797 246.766 28.1445 247 28.0977C247.234 28.0508 247.387 28.0273 247.457 28.0273C247.645 27.9805 247.867 27.957 248.125 27.957C248.266 27.9805 248.465 28.1211 248.723 28.3789C248.934 28.6602 249.039 28.8828 249.039 29.0469C249.039 29.2812 248.816 29.375 248.371 29.3281C247.973 29.2578 247.574 29.2227 247.176 29.2227C246.777 29.2227 246.438 29.2344 246.156 29.2578C246.086 30.1016 245.945 30.9336 245.734 31.7539C245.688 31.9414 245.605 32.0938 245.488 32.2109C245.371 32.3516 245.266 32.4219 245.172 32.4219C245.008 32.4219 244.902 32.3516 244.855 32.2109C244.832 32.0938 244.82 31.8945 244.82 31.6133C244.867 31.0039 244.891 30.2422 244.891 29.3281C244.258 29.375 243.766 29.4219 243.414 29.4688C242.875 29.5859 242.371 29.6562 241.902 29.6797C241.879 30.6406 241.926 31.4961 242.043 32.2461C242.113 32.7383 242.254 33.0781 242.465 33.2656C242.605 33.3828 242.77 33.4531 242.957 33.4766C243.168 33.5 243.379 33.5117 243.59 33.5117C243.801 33.5117 243.941 33.5117 244.012 33.5117C244.738 33.5117 245.418 33.4766 246.051 33.4062C246.238 33.3828 246.402 33.3359 246.543 33.2656C246.707 33.1953 246.824 33.1602 246.895 33.1602C247.105 33.1602 247.316 33.2305 247.527 33.3711C247.738 33.5117 247.844 33.6758 247.844 33.8633C247.844 34.0508 247.738 34.1914 247.527 34.2852C247.34 34.3789 247.035 34.4609 246.613 34.5312C245.863 34.625 245.113 34.6719 244.363 34.6719ZM254.383 18.6758C254.664 18.6758 254.805 18.8047 254.805 19.0625C254.805 19.2031 254.676 19.4023 254.418 19.6602C253.715 20.5273 252.32 22.1797 250.234 24.6172C250.07 24.8281 249.918 24.9336 249.777 24.9336C249.66 24.9336 249.402 24.7578 249.004 24.4062C248.676 24.125 248.512 23.8906 248.512 23.7031C248.512 23.4922 248.688 23.293 249.039 23.1055C249.578 22.8008 250.387 22.1914 251.465 21.2773C252.543 20.3164 253.34 19.5547 253.855 18.9922C254.066 18.7812 254.242 18.6758 254.383 18.6758ZM209.699 30.1719C211.785 29.5156 213.648 28.8008 215.289 28.0273C214.938 27.5352 214.492 26.9727 213.953 26.3398C213.766 26.1055 213.672 25.918 213.672 25.7773C213.672 25.5195 213.824 25.2969 214.129 25.1094C214.434 24.8984 214.668 24.793 214.832 24.793C215.02 24.793 215.219 24.9102 215.43 25.1445C216.766 26.7148 217.902 28.0977 218.84 29.293C219.777 30.4883 220.246 31.2148 220.246 31.4727C220.246 31.6836 220.082 31.9297 219.754 32.2109C219.449 32.5156 219.156 32.668 218.875 32.668C218.641 32.668 218.406 32.4805 218.172 32.1055C217.633 31.2852 217.023 30.3945 216.344 29.4336L212.125 31.543C211.656 31.7539 210.918 32.1289 209.91 32.668C209.066 33.1133 208.551 33.3359 208.363 33.3359C208.223 33.3359 208.047 33.2422 207.836 33.0547C207.625 32.8906 207.461 32.6797 207.344 32.4219C207.25 32.1875 207.25 32 207.344 31.8594C207.484 31.6016 207.555 30.5703 207.555 28.7656V16.6016C207.555 16.0391 207.531 15.582 207.484 15.2305C207.461 14.8789 207.367 14.5039 207.203 14.1055C207.18 14.0352 207.156 13.9766 207.133 13.9297C207.109 13.8828 207.098 13.8359 207.098 13.7891C207.098 13.6719 207.18 13.6133 207.344 13.6133C207.648 13.6133 208.41 13.8711 209.629 14.3867L217.258 13.8594C217.445 13.8359 217.656 13.8242 217.891 13.8242C218.148 13.8242 218.453 13.9414 218.805 14.1758C219.156 14.3867 219.332 14.6211 219.332 14.8789C219.332 14.9727 219.273 15.1133 219.156 15.3008C219.062 15.4883 219.016 15.6289 219.016 15.7227L218.102 22.332C218.664 22.9883 218.945 23.4336 218.945 23.668C218.945 23.7852 218.875 23.8672 218.734 23.9141C218.617 23.9609 218.43 23.9844 218.172 23.9844L209.664 24.3008L209.699 30.1719ZM203.934 14.3867C203.934 14.1523 204.086 13.8711 204.391 13.543C206.102 11.6445 207.59 9.75781 208.855 7.88281C210.121 6.00781 210.754 4.75391 210.754 4.12109L210.719 3.875V3.76953C210.719 3.44141 210.848 3.27734 211.105 3.27734C211.41 3.27734 211.832 3.48828 212.371 3.91016C212.934 4.30859 213.215 4.63672 213.215 4.89453C213.215 5.01172 213.156 5.16406 213.039 5.35156C212.688 5.91406 212.301 6.47656 211.879 7.03906L216.871 6.65234C217.293 6.62891 217.738 6.53516 218.207 6.37109C218.348 6.32422 218.453 6.30078 218.523 6.30078C218.875 6.30078 219.25 6.5 219.648 6.89844C220.07 7.27344 220.281 7.56641 220.281 7.77734C220.281 8.05859 220.023 8.22266 219.508 8.26953L213.496 8.69141C213.66 8.73828 214.023 8.98438 214.586 9.42969C215.172 9.875 215.699 10.332 216.168 10.8008C216.637 11.2695 216.871 11.5977 216.871 11.7852C216.871 11.9961 216.73 12.2539 216.449 12.5586C216.168 12.8398 215.922 12.9805 215.711 12.9805C215.523 12.9805 215.301 12.8281 215.043 12.5234C214.246 11.6563 213.438 10.8945 212.617 10.2383C212.336 10.0039 212.195 9.80469 212.195 9.64062C212.195 9.52344 212.254 9.37109 212.371 9.18359C212.488 8.99609 212.641 8.84375 212.828 8.72656L210.473 8.90234C209.348 10.2852 208.105 11.5859 206.746 12.8047C205.387 14 204.52 14.5977 204.145 14.5977C204.004 14.5977 203.934 14.5273 203.934 14.3867ZM216.59 18.043L216.836 15.582L209.594 16.0742V18.3945L216.59 18.043ZM216.133 22.4023L216.414 19.6953L209.629 20.0117V22.6484L216.133 22.4023ZM218.031 12.875C218.031 12.6406 218.184 12.3594 218.488 12.0312C219.637 10.6484 220.68 9.08984 221.617 7.35547C222.578 5.59766 223.059 4.36719 223.059 3.66406V3.52344C223.059 3.17188 223.188 2.99609 223.445 2.99609C223.609 2.99609 223.855 3.08984 224.184 3.27734C224.535 3.44141 224.852 3.64063 225.133 3.875C225.414 4.10937 225.555 4.34375 225.555 4.57812C225.555 4.78906 225.391 5.16406 225.062 5.70312C224.734 6.24219 224.559 6.52344 224.535 6.54688L231.461 5.98438C231.977 5.9375 232.422 5.85547 232.797 5.73828C232.844 5.71484 232.938 5.70312 233.078 5.70312C233.406 5.70312 233.758 5.89063 234.133 6.26562C234.531 6.61719 234.73 6.91016 234.73 7.14453C234.73 7.28516 234.66 7.40234 234.52 7.49609C234.402 7.56641 234.238 7.61328 234.027 7.63672L226.891 8.12891C227.547 8.55078 228.32 9.17187 229.211 9.99219C230.102 10.7891 230.547 11.3281 230.547 11.6094C230.547 11.7734 230.418 12.0312 230.16 12.3828C229.902 12.7109 229.656 12.875 229.422 12.875C229.234 12.875 229.035 12.7578 228.824 12.5234C227.676 11.2812 226.633 10.2969 225.695 9.57031C225.461 9.38281 225.344 9.20703 225.344 9.04297C225.344 8.85547 225.52 8.57422 225.871 8.19922L223.27 8.375C222.496 9.40625 221.559 10.4492 220.457 11.5039C219.379 12.5586 218.652 13.0859 218.277 13.0859C218.113 13.0859 218.031 13.0156 218.031 12.875ZM221.336 13.6484C221.336 13.5078 221.418 13.4375 221.582 13.4375C221.934 13.4375 222.73 13.7305 223.973 14.3164L231.039 13.7188L231.32 13.6836C231.414 13.6836 231.59 13.7305 231.848 13.8242C232.129 13.8945 232.387 14.0234 232.621 14.2109C232.879 14.375 233.008 14.5977 233.008 14.8789C233.008 14.9727 232.973 15.1016 232.902 15.2656C232.832 15.4297 232.797 15.5469 232.797 15.6172C232.773 18.1953 232.609 20.9492 232.305 23.8789L232.234 24.7578C232.164 25.7422 232.07 26.5625 231.953 27.2188C231.836 27.875 231.637 28.3906 231.355 28.7656C230.91 29.375 230.43 29.6797 229.914 29.6797C229.398 29.6797 228.742 29.3633 227.945 28.7305C227.148 28.0977 226.41 27.4062 225.73 26.6562C225.074 25.9062 224.746 25.4258 224.746 25.2148C224.746 25.0508 224.84 24.9688 225.027 24.9688C225.238 24.9688 225.531 25.0859 225.906 25.3203C226.773 25.8594 227.5 26.293 228.086 26.6211C228.672 26.9492 229.094 27.1133 229.352 27.1133C229.469 27.1133 229.551 27.0312 229.598 26.8672C230.137 23.8672 230.465 20.1055 230.582 15.582L223.973 16.0742C223.973 20.0352 224.008 26.3164 224.078 34.918C224.078 35.1289 224.02 35.2812 223.902 35.375C223.809 35.4922 223.68 35.5508 223.516 35.5508C223.328 35.5508 223.105 35.4805 222.848 35.3398C222.402 35.1523 222.086 34.9766 221.898 34.8125C221.711 34.6484 221.617 34.4609 221.617 34.25L221.652 34.0039C221.793 33.2305 221.863 32.3633 221.863 31.4023L221.758 16.5664C221.758 15.957 221.734 15.4883 221.688 15.1602C221.664 14.832 221.594 14.5156 221.477 14.2109C221.383 13.9297 221.336 13.7422 221.336 13.6484Z" fill="#333333"/>
<path d="M143.031 71.2188C142.719 71.2188 142.49 71.0521 142.344 70.7188L142.062 70.0938C141.25 70.3021 140.594 70.4583 140.094 70.5625L138.062 71.0625C137.646 71.1667 137.385 71.2188 137.281 71.2188C137.156 71.2188 137.052 71.1979 136.969 71.1562C136.906 71.0938 136.854 71.0417 136.812 71C136.771 70.9375 136.74 70.8854 136.719 70.8438C136.552 70.5521 136.479 70.3542 136.5 70.25L136.719 69.9062C137.26 69.1562 137.76 68.0833 138.219 66.6875L137.594 66.7812L136.781 66.875C136.719 66.8958 136.583 66.9375 136.375 67C136.188 67.0417 136.042 67.0312 135.938 66.9688C135.708 66.8229 135.406 66.5625 135.031 66.1875C134.948 66.1042 134.906 66.0417 134.906 66C134.906 65.875 135.135 65.8125 135.594 65.8125H136.656C137.365 65.7708 138.01 65.7188 138.594 65.6562C138.719 65.3438 138.854 64.9479 139 64.4688C139.146 63.9896 139.25 63.6042 139.312 63.3125C139.312 63.25 139.312 63.125 139.312 62.9375C139.333 62.75 139.375 62.6354 139.438 62.5938H139.469C139.552 62.5938 139.667 62.6354 139.812 62.7188C139.958 62.8021 140.094 62.9062 140.219 63.0312C140.615 63.4271 140.729 63.7396 140.562 63.9688C140.479 63.9896 140.302 64.3333 140.031 65C140.01 65.0417 139.938 65.2292 139.812 65.5625C139.979 65.5417 140.583 65.4688 141.625 65.3438C142.104 65.3021 142.469 65.25 142.719 65.1875C143.073 65.0833 143.354 65.0312 143.562 65.0312C143.729 65.0312 143.865 65.0938 143.969 65.2188C144.073 65.3229 144.146 65.3958 144.188 65.4375C144.25 65.5 144.323 65.625 144.406 65.8125C144.49 65.9583 144.521 66.0625 144.5 66.125C144.417 66.25 144.271 66.3125 144.062 66.3125C143.375 66.2708 142.552 66.2917 141.594 66.375C141.177 66.4167 140.865 66.4583 140.656 66.5L139.438 66.625L139.156 67.4688L138.812 68.2188C138.708 68.4688 138.594 68.7188 138.469 68.9688C138.344 69.2188 138.25 69.4271 138.188 69.5938C138.167 69.6354 138.156 69.6979 138.156 69.7812C138.156 69.8854 138.219 69.9375 138.344 69.9375C138.51 69.9375 139.083 69.8438 140.062 69.6562L141.219 69.4688L141.75 69.3438C141.562 68.8229 141.417 68.4896 141.312 68.3438C141.208 68.1979 141.146 68.1042 141.125 68.0625L141.312 67.875C142.125 68.3958 142.781 68.9271 143.281 69.4688C143.427 69.6562 143.521 69.8333 143.562 70C143.625 70.1667 143.646 70.3542 143.625 70.5625C143.583 70.75 143.51 70.8958 143.406 71C143.365 71.1042 143.24 71.1771 143.031 71.2188ZM136.469 79.0938C136.24 79.0938 135.958 78.9167 135.625 78.5625C135.375 78.3125 135.25 78.125 135.25 78C135.25 77.9375 135.292 77.9062 135.375 77.9062C135.458 77.8854 135.562 77.875 135.688 77.875L136.375 77.8438C136.771 77.8438 137.031 77.8333 137.156 77.8125C137.552 77.8125 137.885 77.8021 138.156 77.7812C139.948 77.6146 141.156 77.4792 141.781 77.375C142.094 77.3333 142.375 77.2917 142.625 77.25C142.875 77.1875 143.073 77.1562 143.219 77.1562C143.51 77.1562 143.802 77.3021 144.094 77.5938C144.323 77.8229 144.438 78.0104 144.438 78.1562C144.438 78.2812 144.365 78.3646 144.219 78.4062C144.115 78.4271 143.5 78.4688 142.375 78.5312C141.75 78.5521 140.979 78.6042 140.062 78.6875C139.146 78.7708 138.344 78.8542 137.656 78.9375C137.531 78.9583 137.354 78.9896 137.125 79.0312C136.896 79.0729 136.677 79.0938 136.469 79.0938ZM149.562 68.7188C149.812 68.7188 149.938 68.8333 149.938 69.0625C149.938 69.1875 149.823 69.3646 149.594 69.5938C148.969 70.3646 147.729 71.8333 145.875 74C145.729 74.1875 145.594 74.2812 145.469 74.2812C145.365 74.2812 145.135 74.125 144.781 73.8125C144.49 73.5625 144.344 73.3542 144.344 73.1875C144.344 73 144.5 72.8229 144.812 72.6562C145.292 72.3854 146.01 71.8438 146.969 71.0312C147.927 70.1771 148.635 69.5 149.094 69C149.281 68.8125 149.438 68.7188 149.562 68.7188ZM123.719 82C126.531 83.0625 129.615 83.8438 132.969 84.3438C133.406 84.4062 133.625 84.5208 133.625 84.6875C133.625 84.75 133.542 84.9167 133.375 85.1875C133.229 85.4583 133.042 85.6979 132.812 85.9062C132.604 86.1354 132.406 86.25 132.219 86.25C131.927 86.25 130.948 86.0312 129.281 85.5938C127.635 85.1771 125.729 84.5729 123.562 83.7812C121.396 82.9688 119.344 82.0104 117.406 80.9062C116.802 81.9896 116.135 82.9688 115.406 83.8438C114.698 84.6979 114.042 85.3646 113.438 85.8438C112.854 86.3438 112.438 86.5938 112.188 86.5938C112.042 86.5938 111.969 86.5312 111.969 86.4062C111.969 86.1979 112.104 85.9479 112.375 85.6562C113.396 84.4688 114.271 83.1979 115 81.8438C115.75 80.4688 116.312 79.2292 116.688 78.125C117.083 77 117.281 76.2188 117.281 75.7812C117.281 75.5938 117.271 75.4479 117.25 75.3438C117.229 75.2604 117.219 75.1667 117.219 75.0625C117.219 74.8333 117.312 74.7188 117.5 74.7188C117.792 74.7188 118.198 74.9062 118.719 75.2812C119.26 75.6354 119.531 75.9271 119.531 76.1562C119.531 76.3854 119.354 76.9062 119 77.7188C118.646 78.5312 118.385 79.1042 118.219 79.4375C119.51 80.1667 120.75 80.7917 121.938 81.3125L122 73.2812L117.031 73.5625L116.25 73.5938H116.094C115.844 73.5938 115.646 73.5417 115.5 73.4375C114.938 72.9167 114.625 72.4062 114.562 71.9062C114.562 71.7812 114.635 71.7188 114.781 71.7188C114.885 71.7188 114.969 71.7292 115.031 71.75C115.448 71.875 115.844 71.9375 116.219 71.9375H116.438L129.312 71.2188C129.875 71.1771 130.292 71.1146 130.562 71.0312C130.688 70.9896 130.792 70.9688 130.875 70.9688C131.104 70.9688 131.417 71.1354 131.812 71.4688C132.208 71.7812 132.406 72.0729 132.406 72.3438C132.406 72.5938 132.135 72.7396 131.594 72.7812L123.844 73.1875L123.781 76.625L127.156 76.5C127.719 76.4583 128.135 76.3958 128.406 76.3125C128.531 76.2708 128.635 76.25 128.719 76.25C128.969 76.25 129.292 76.4167 129.688 76.75C130.083 77.0833 130.281 77.375 130.281 77.625C130.281 77.8958 129.99 78.0521 129.406 78.0938L123.781 78.3125L123.719 82ZM103.938 76.5625C103.938 76.4167 104.052 76.3333 104.281 76.3125C104.635 76.25 105.323 75.9688 106.344 75.4688C107.365 74.9688 108.427 74.4062 109.531 73.7812L109.562 68.125L107.312 68.3125C106.729 68.3542 106.354 68.375 106.188 68.375C105.854 68.375 105.625 68.3125 105.5 68.1875C105.104 67.7917 104.823 67.3542 104.656 66.875C104.635 66.8333 104.625 66.7708 104.625 66.6875C104.625 66.5833 104.677 66.5312 104.781 66.5312L104.906 66.5625C105.198 66.625 105.51 66.6562 105.844 66.6562C106.177 66.6562 106.458 66.6458 106.688 66.625L109.562 66.4375L109.594 61.4375C109.594 61.0833 109.552 60.7917 109.469 60.5625C109.406 60.3125 109.271 60.0312 109.062 59.7188C109 59.6146 108.969 59.5208 108.969 59.4375C108.969 59.3125 109.073 59.25 109.281 59.25C109.427 59.25 109.667 59.2917 110 59.375C110.354 59.4583 110.677 59.6042 110.969 59.8125C111.26 60 111.406 60.2604 111.406 60.5938L111.375 66.3125L112.438 66.25C112.646 66.2292 112.844 66.1875 113.031 66.125C113.219 66.0625 113.417 65.9896 113.625 65.9062C113.708 65.8646 113.781 65.8438 113.844 65.8438C114.094 65.8438 114.438 66.0208 114.875 66.375C115.312 66.7083 115.531 67.0104 115.531 67.2812C115.531 67.5312 115.281 67.6771 114.781 67.7188L111.375 68L111.344 72.6875C112.01 72.25 112.802 71.6562 113.719 70.9062C114.01 70.6771 114.24 70.5625 114.406 70.5625C114.573 70.5625 114.656 70.6458 114.656 70.8125C114.656 71.0833 114.312 71.5625 113.625 72.25C112.958 72.9375 112.198 73.6458 111.344 74.375L111.281 83.4375C111.281 83.6458 111.292 83.8438 111.312 84.0312C111.333 84.2396 111.344 84.4271 111.344 84.5938C111.344 85.1146 111.167 85.5521 110.812 85.9062C110.479 86.2604 110.135 86.4375 109.781 86.4375C109.385 86.4375 108.844 86.1458 108.156 85.5625C107.469 85 106.833 84.3646 106.25 83.6562C105.688 82.9479 105.406 82.4583 105.406 82.1875C105.406 82.0833 105.458 82.0312 105.562 82.0312C105.729 82.0312 106.01 82.1667 106.406 82.4375C107.323 83.0625 108.344 83.5833 109.469 84L109.5 75.75C108.375 76.5417 107.542 77.1042 107 77.4375C106.479 77.7708 106.094 77.9375 105.844 77.9375C105.76 77.9375 105.635 77.9167 105.469 77.875C105.135 77.75 104.792 77.5417 104.438 77.25C104.104 76.9375 103.938 76.7083 103.938 76.5625ZM116.531 60.5938C116.531 60.4479 116.635 60.375 116.844 60.375C117.219 60.375 117.896 60.5729 118.875 60.9688L127.25 60.375H127.469C127.76 60.375 128.052 60.5104 128.344 60.7812C128.656 61.0312 128.812 61.2708 128.812 61.5C128.812 61.6042 128.781 61.7083 128.719 61.8125C128.656 61.9167 128.615 62 128.594 62.0625L127.906 67.5312C128.323 68.0938 128.531 68.4896 128.531 68.7188C128.531 68.8646 128.469 68.9583 128.344 69C128.24 69.0208 128.052 69.0417 127.781 69.0625L119.375 69.5938L119.406 69.8125V69.9062C119.406 70.2812 119.24 70.4688 118.906 70.4688C118.615 70.4688 118.302 70.3646 117.969 70.1562C117.656 69.9479 117.5 69.6354 117.5 69.2188V69.0625C117.521 68.8958 117.531 68.6042 117.531 68.1875V67.75L117.156 62.9062C117.135 62.3438 116.99 61.7708 116.719 61.1875C116.594 60.8542 116.531 60.6562 116.531 60.5938ZM119 64.4688L126.531 64L126.719 62.0938L118.844 62.625L119 64.4688ZM119.25 68L126.156 67.5938L126.375 65.5625L119.094 66L119.25 68ZM188.344 72.2812C188.01 72.2812 187.812 72.1146 187.75 71.7812C187.625 71.4271 187.292 70.9896 186.75 70.4688L186.844 70.3438C186.927 70.3854 187.167 70.4896 187.562 70.6562C187.958 70.8021 188.229 70.875 188.375 70.875C188.5 70.875 188.594 70.875 188.656 70.875C188.719 70.8542 188.792 70.8021 188.875 70.7188C189.125 70.5312 189.438 70.1042 189.812 69.4375C190.083 68.8958 190.323 68.2604 190.531 67.5312C190.76 66.8021 190.875 66.25 190.875 65.875C190.875 65.7708 190.792 65.7188 190.625 65.7188L189.438 65.7812L188.625 65.8438L188.094 65.875L187.875 65.9062C188.021 66.0104 188.115 66.1042 188.156 66.1875C188.219 66.25 188.25 66.3333 188.25 66.4375C188.25 66.5417 188.125 66.8333 187.875 67.3125C187.667 67.7708 187.333 68.2917 186.875 68.875C186.5 69.375 185.99 69.9167 185.344 70.5C184.719 71.0625 184.25 71.3542 183.938 71.375C183.875 71.375 183.812 71.3646 183.75 71.3438C183.708 71.3021 183.688 71.25 183.688 71.1875C183.688 71.1667 183.854 70.9688 184.188 70.5938L185.062 69.5625C185.688 68.7292 186.323 67.6667 186.969 66.375C187.031 66.2083 187 66.1146 186.875 66.0938C186.75 66.1146 186.49 66.1458 186.094 66.1875C185.698 66.2083 185.344 66.2708 185.031 66.375C185.01 66.375 184.938 66.4062 184.812 66.4688C184.688 66.5104 184.583 66.5312 184.5 66.5312C184.375 66.5312 184.271 66.4896 184.188 66.4062L183.938 66.1875C183.75 66.0417 183.656 65.9062 183.656 65.7812C183.656 65.7396 183.677 65.6771 183.719 65.5938L183.875 65.3438C183.958 65.2396 184.094 65.0729 184.281 64.8438C184.469 64.6146 184.677 64.3021 184.906 63.9062C184.948 63.8229 185.031 63.6354 185.156 63.3438C185.302 63.0521 185.375 62.875 185.375 62.8125V62.6875C185.375 62.5625 185.396 62.4792 185.438 62.4375C185.479 62.3958 185.573 62.3958 185.719 62.4375C185.865 62.4792 186.042 62.5938 186.25 62.7812L186.594 63.125C186.656 63.1875 186.688 63.2604 186.688 63.3438C186.688 63.5521 186.396 63.9271 185.812 64.4688C185.708 64.5729 185.583 64.7292 185.438 64.9375C185.292 65.1458 185.219 65.2812 185.219 65.3438C185.219 65.4688 185.312 65.5104 185.5 65.4688L186.219 65.375C187.865 65.125 189.104 64.9792 189.938 64.9375L190.781 64.8125L191.062 64.75L191.219 64.7188C191.385 64.7188 191.5 64.7396 191.562 64.7812C191.625 64.8229 191.688 64.8958 191.75 65C191.812 65.0833 191.875 65.1562 191.938 65.2188C192.083 65.3854 192.188 65.5312 192.25 65.6562L192.312 65.9375L192.25 66.0625L192.188 66.25C192.146 66.3542 192.115 66.4583 192.094 66.5625C192.073 66.6458 192.042 66.7396 192 66.8438C191.562 68.5312 191.052 69.8438 190.469 70.7812C190.281 71.1146 189.958 71.4479 189.5 71.7812C189.062 72.1146 188.677 72.2812 188.344 72.2812ZM184.281 82.5C183.969 82.5 183.729 82.4167 183.562 82.25C183.375 82.0625 183.281 81.8958 183.281 81.75C183.281 81.6042 183.365 81.4479 183.531 81.2812C183.552 81.2604 183.667 81.0938 183.875 80.7812C184.333 80.0521 184.854 79.125 185.438 78C186.042 76.8542 186.417 76.0729 186.562 75.6562C186.688 75.2604 186.802 74.9167 186.906 74.625C187.031 74.3333 187.135 74.1875 187.219 74.1875C187.365 74.1875 187.49 74.2396 187.594 74.3438C187.698 74.4271 187.802 74.5521 187.906 74.7188C188.031 74.8646 188.125 74.9688 188.188 75.0312C188.333 75.1979 188.406 75.3542 188.406 75.5C188.406 75.6042 188.365 75.7083 188.281 75.8125C188.198 75.9167 188.146 75.9896 188.125 76.0312L186.75 78.3438C186.396 78.9896 185.927 79.7917 185.344 80.75C185.26 80.8542 185.219 80.9583 185.219 81.0625C185.219 81.1458 185.312 81.1875 185.5 81.1875C185.896 81.1875 186.635 81.1458 187.719 81.0625C188.802 80.9583 189.531 80.875 189.906 80.8125C190.448 80.75 190.823 80.6875 191.031 80.625C191.26 80.5625 191.594 80.7188 192.031 81.0938C192.552 81.5312 192.667 81.8125 192.375 81.9375C192.208 82.0208 191.885 82.0625 191.406 82.0625H190.156C189.885 82.0625 189.458 82.0833 188.875 82.125C188.521 82.125 188.125 82.1354 187.688 82.1562C187.25 82.1771 186.885 82.1979 186.594 82.2188C186.26 82.2396 185.615 82.3021 184.656 82.4062L184.281 82.5ZM157.438 61C157.438 60.5417 157.312 60.125 157.062 59.75C156.979 59.6042 156.938 59.4792 156.938 59.375C156.938 59.2292 157.042 59.1562 157.25 59.1562C157.542 59.1562 157.906 59.2396 158.344 59.4062C158.74 59.5521 159 59.6875 159.125 59.8125C159.25 59.9375 159.312 60.125 159.312 60.375L159.188 68.375C159.771 67.6458 160.198 66.9896 160.469 66.4062C160.76 65.8021 160.917 65.3333 160.938 65C160.938 64.75 161.021 64.625 161.188 64.625C161.438 64.625 161.75 64.8125 162.125 65.1875C162.5 65.5417 162.688 65.8438 162.688 66.0938C162.688 66.1979 162.542 66.4896 162.25 66.9688C161.958 67.4479 161.542 68.0208 161 68.6875C160.479 69.3542 159.865 70.0104 159.156 70.6562C159.156 72.1562 159.01 73.6354 158.719 75.0938C159.844 76.4688 160.844 77.7708 161.719 79C162.594 80.2292 163.031 80.9688 163.031 81.2188C163.031 81.4271 162.865 81.6562 162.531 81.9062C162.198 82.1562 161.958 82.2812 161.812 82.2812C161.646 82.2812 161.458 82.1042 161.25 81.75C160.25 79.9583 159.25 78.4167 158.25 77.125C157.75 78.8542 157.073 80.4062 156.219 81.7812C155.365 83.1562 154.531 84.2396 153.719 85.0312C152.927 85.8438 152.396 86.25 152.125 86.25C152 86.25 151.938 86.1875 151.938 86.0625C151.938 85.8542 152.094 85.5417 152.406 85.125C154.01 82.9792 155.229 80.7292 156.062 78.375C156.896 76 157.323 73.4583 157.344 70.75L157.438 61ZM153.156 66.4375C153.156 66.0208 153.5 65.8125 154.188 65.8125C154.375 65.8125 154.51 65.8646 154.594 65.9688C154.677 66.0729 154.75 66.2604 154.812 66.5312C155.25 68.3021 155.562 70.1979 155.75 72.2188V72.4688C155.75 73.0312 155.354 73.3125 154.562 73.3125C154.354 73.3125 154.208 73.25 154.125 73.125C154.042 73 153.99 72.8021 153.969 72.5312C153.802 70.1354 153.552 68.2604 153.219 66.9062C153.177 66.6562 153.156 66.5 153.156 66.4375ZM160.562 74.3438C160.562 74.1146 160.781 73.7812 161.219 73.3438C162.99 71.5312 164.542 69.5521 165.875 67.4062C165.146 66.7396 164.25 66.0417 163.188 65.3125C162.979 65.1667 162.875 65 162.875 64.8125C162.875 64.6458 162.938 64.4583 163.062 64.25C163.271 63.9375 163.469 63.7812 163.656 63.7812C163.802 63.7812 164.083 63.9271 164.5 64.2188C164.938 64.4896 165.677 65.0521 166.719 65.9062C167.385 64.6562 167.865 63.4896 168.156 62.4062L164.844 62.7188C164.344 62.7604 164.042 62.7812 163.938 62.7812C163.562 62.7812 163.26 62.6771 163.031 62.4688C162.802 62.2396 162.635 62 162.531 61.75C162.427 61.4792 162.375 61.2917 162.375 61.1875C162.375 61.0833 162.448 61.0312 162.594 61.0312L162.781 61.0625C163.115 61.1042 163.354 61.125 163.5 61.125L164.188 61.0938L169 60.7188L169.406 60.6875C169.719 60.6875 169.99 60.7708 170.219 60.9375C170.469 61.1042 170.594 61.3229 170.594 61.5938C170.594 61.7188 170.438 62.1771 170.125 62.9688C169.812 63.7604 169.365 64.7083 168.781 65.8125C168.198 66.9167 167.5 68.0208 166.688 69.125C167.104 69.1667 167.417 69.1875 167.625 69.1875H168L172.125 68.9375C172.542 68.8958 172.896 68.8125 173.188 68.6875C173.312 68.6458 173.396 68.625 173.438 68.625C173.604 68.625 173.865 68.8021 174.219 69.1562C174.573 69.4896 174.75 69.7812 174.75 70.0312C174.75 70.2396 174.573 70.3646 174.219 70.4062H174.125L168.406 70.7188L167.625 70.75C167.021 70.75 166.594 70.3646 166.344 69.5938C164.927 71.4271 163.406 72.9062 161.781 74.0312C161.698 74.0729 161.646 74.1146 161.625 74.1562C161.208 74.3854 160.917 74.5 160.75 74.5C160.625 74.5 160.562 74.4479 160.562 74.3438ZM161.375 83.7812C161.375 83.6354 161.427 83.5625 161.531 83.5625L161.719 83.5938C162.198 83.7188 162.698 83.7812 163.219 83.7812L171.406 83.5625C171.906 82.9167 172.396 82.1771 172.875 81.3438C173.375 80.4896 173.646 79.7292 173.688 79.0625C173.688 78.7292 173.781 78.5625 173.969 78.5625C174.219 78.5625 174.583 78.75 175.062 79.125C175.542 79.4792 175.781 79.7812 175.781 80.0312C175.781 80.2604 175.458 80.7917 174.812 81.625C174.188 82.4583 173.667 83.0833 173.25 83.5L178.031 83.375C178.427 83.375 178.802 83.3125 179.156 83.1875C179.198 83.1667 179.271 83.1562 179.375 83.1562C179.667 83.1562 180.031 83.3438 180.469 83.7188C180.906 84.0938 181.125 84.375 181.125 84.5625C181.125 84.875 180.844 85.0521 180.281 85.0938L164.031 85.5L163.156 85.5312C162.74 85.5312 162.365 85.4375 162.031 85.25C161.698 85.0625 161.479 84.6354 161.375 83.9688V83.7812ZM164.75 72.6562C164.75 72.5312 164.875 72.4688 165.125 72.4688C165.479 72.4688 166.135 72.6146 167.094 72.9062L175.188 72.5312C175.5 72.5312 175.771 72.5938 176 72.7188C176.229 72.8438 176.396 72.9896 176.5 73.1562C176.625 73.3229 176.688 73.4479 176.688 73.5312C176.688 73.6146 176.656 73.7188 176.594 73.8438C176.531 73.9479 176.49 74.0417 176.469 74.125L175.969 76.6875C176.448 77.2292 176.688 77.6042 176.688 77.8125C176.688 78 176.448 78.1146 175.969 78.1562L167.688 78.4688V78.5625C167.688 78.8958 167.51 79.0625 167.156 79.0625C166.906 79.0625 166.604 78.9896 166.25 78.8438C165.896 78.6979 165.719 78.4479 165.719 78.0938V77.9375C165.76 77.6458 165.781 77.375 165.781 77.125C165.781 76.9583 165.771 76.8333 165.75 76.75L165.438 74.3438C165.375 73.9062 165.198 73.4688 164.906 73.0312C164.802 72.8854 164.75 72.7604 164.75 72.6562ZM166.656 80.125C166.656 79.9792 166.771 79.7917 167 79.5625C167.25 79.3125 167.469 79.1875 167.656 79.1875C167.927 79.1875 168.75 80.0833 170.125 81.875C170.229 82.0417 170.281 82.1875 170.281 82.3125C170.281 82.5625 170.125 82.8021 169.812 83.0312C169.521 83.2604 169.271 83.375 169.062 83.375C168.854 83.375 168.656 83.1979 168.469 82.8438C168.031 82.0938 167.479 81.3125 166.812 80.5C166.708 80.3958 166.656 80.2708 166.656 80.125ZM167.5 76.9375L174.094 76.625L174.438 74.1562L167.25 74.4688L167.5 76.9375ZM170.312 63.1875C170.312 63.0208 170.438 62.8542 170.688 62.6875C170.938 62.5208 171.146 62.4375 171.312 62.4375C171.438 62.4375 171.573 62.5208 171.719 62.6875C171.865 62.8333 172.104 63.1667 172.438 63.6875C173.583 62.75 174.365 62.0312 174.781 61.5312C175.198 61.0104 175.469 60.5208 175.594 60.0625C175.656 59.7917 175.771 59.6562 175.938 59.6562C176.125 59.6562 176.406 59.8333 176.781 60.1875C177.156 60.5208 177.344 60.8229 177.344 61.0938C177.344 61.3229 176.979 61.7917 176.25 62.5C175.542 63.1875 174.562 63.9896 173.312 64.9062C173.896 65.6562 174.354 66.2188 174.688 66.5938C176.646 65.0729 177.708 63.9167 177.875 63.125C177.938 62.8542 178.052 62.7188 178.219 62.7188C178.448 62.7188 178.729 62.9062 179.062 63.2812C179.375 63.6146 179.531 63.9062 179.531 64.1562C179.531 64.4271 179.104 64.9375 178.25 65.6875C177.417 66.4375 176.562 67.1146 175.688 67.7188C177.354 69.3854 179.104 70.8021 180.938 71.9688C181.271 72.1771 181.438 72.3542 181.438 72.5C181.438 72.7083 181.26 72.9479 180.906 73.2188C180.552 73.4896 180.25 73.625 180 73.625C179.833 73.625 179.667 73.5625 179.5 73.4375C177.708 72.0417 176.115 70.6146 174.719 69.1562C173.344 67.6771 172.26 66.3854 171.469 65.2812C170.698 64.1562 170.312 63.4583 170.312 63.1875ZM236.531 68.25C236.198 68.25 235.99 68.1562 235.906 67.9688C235.802 67.7188 235.698 67.5104 235.594 67.3438C235.49 67.1562 235.302 66.9375 235.031 66.6875L235.094 66.5625C235.844 66.8333 236.333 66.9688 236.562 66.9688C236.729 66.9688 236.854 66.9375 236.938 66.875C237.021 66.8125 237.156 66.6667 237.344 66.4375C237.615 66.1458 237.865 65.6979 238.094 65.0938C238.406 64.1979 238.604 63.2708 238.688 62.3125V62.2188C238.688 62.0938 238.667 62.0104 238.625 61.9688C238.354 61.9688 237.635 62.0312 236.469 62.1562C235.823 63.7604 235.073 65.0833 234.219 66.125C233.385 67.1458 232.625 67.6562 231.938 67.6562C231.771 67.6562 231.688 67.5938 231.688 67.4688C231.688 67.4271 231.896 67.1875 232.312 66.75C232.729 66.3125 233.188 65.7396 233.688 65.0312C234.208 64.3021 234.698 63.4062 235.156 62.3438C235.052 62.3438 234.75 62.3646 234.25 62.4062C233.75 62.4479 233.323 62.5208 232.969 62.625C232.802 62.75 232.625 62.7708 232.438 62.6875C232.438 62.6875 232.417 62.6771 232.375 62.6562C232.333 62.6354 232.292 62.6042 232.25 62.5625C232.104 62.4792 231.979 62.375 231.875 62.25C231.792 62.1042 231.75 61.9688 231.75 61.8438C231.75 61.7812 231.802 61.6979 231.906 61.5938L232.281 61.0938C232.406 60.9271 232.521 60.6875 232.625 60.375C232.729 60.0417 232.781 59.7604 232.781 59.5312C232.781 59.3854 232.771 59.2917 232.75 59.25C232.729 59.2083 232.719 59.1562 232.719 59.0938C232.719 58.9896 232.771 58.9375 232.875 58.9375C233 58.9375 233.177 59.0104 233.406 59.1562C233.469 59.1979 233.583 59.2812 233.75 59.4062C233.938 59.5104 234.042 59.6354 234.062 59.7812C234.062 59.9271 233.979 60.1667 233.812 60.5L233.406 61.2188C233.365 61.2812 233.344 61.3542 233.344 61.4375C233.344 61.5 233.365 61.5521 233.406 61.5938C233.469 61.6146 233.542 61.6146 233.625 61.5938L235.5 61.3438C235.708 60.8021 235.875 60.2292 236 59.625V59.4375V58.9062C236 58.6771 236.062 58.5833 236.188 58.625C236.458 58.6875 236.677 58.7708 236.844 58.875C237.156 59.0625 237.312 59.2188 237.312 59.3438C237.312 59.4479 237.271 59.625 237.188 59.875C237.125 60.1042 237.073 60.2812 237.031 60.4062C237.01 60.4896 236.917 60.7604 236.75 61.2188C236.812 61.2188 237.198 61.1771 237.906 61.0938L238.219 61.0312C238.281 61.0312 238.396 61.0104 238.562 60.9688C238.604 60.9479 238.656 60.9375 238.719 60.9375C238.969 60.9375 239.125 60.9479 239.188 60.9688C239.271 60.9896 239.396 61.0521 239.562 61.1562C239.75 61.2812 239.875 61.4062 239.938 61.5312C240 61.6562 240.021 61.8021 240 61.9688L239.812 63L239.594 64.125C239.594 64.2083 239.521 64.4792 239.375 64.9375C239.229 65.3958 239.062 65.8021 238.875 66.1562C238.521 66.8646 238.104 67.3958 237.625 67.75C237.208 68.0833 236.844 68.25 236.531 68.25ZM239.188 76.5938C238.875 76.5938 238.573 76.3646 238.281 75.9062C237.906 75.3229 237.542 74.8438 237.188 74.4688L236.375 73.625C235.938 74.125 235.552 74.5208 235.219 74.8125C234.906 75.1042 234.51 75.3854 234.031 75.6562C233.135 76.1771 232.385 76.4375 231.781 76.4375C231.635 76.4375 231.562 76.3854 231.562 76.2812C231.562 76.2188 231.76 76.0833 232.156 75.875C232.552 75.6667 232.927 75.4167 233.281 75.125C234.177 74.375 234.917 73.6042 235.5 72.8125C235.375 72.6875 234.75 72.1458 233.625 71.1875C233.479 71.0833 233.26 70.9062 232.969 70.6562C232.906 70.6146 232.781 70.5208 232.594 70.375C232.406 70.2292 232.312 70.125 232.312 70.0625C232.312 69.9583 232.365 69.9062 232.469 69.9062C232.781 69.9062 233.281 70.125 233.969 70.5625C234.656 70.9792 235.375 71.4792 236.125 72.0625C236.417 71.7083 236.646 71.375 236.812 71.0625C236.979 70.75 237.167 70.3646 237.375 69.9062C237.479 69.6771 237.542 69.4792 237.562 69.3125C237.583 69.125 237.594 69.0104 237.594 68.9688C237.594 68.7396 237.656 68.625 237.781 68.625C237.927 68.625 238.125 68.7396 238.375 68.9688C238.812 69.3854 239.031 69.6667 239.031 69.8125C239.031 69.8958 238.979 69.9896 238.875 70.0938C238.625 70.3438 238.396 70.6771 238.188 71.0938C238.062 71.3438 237.833 71.6979 237.5 72.1562C237.396 72.2812 237.312 72.3958 237.25 72.5C237.188 72.6042 237.125 72.6979 237.062 72.7812C237.542 73.1354 238.25 73.7396 239.188 74.5938C239.417 74.8021 239.562 75 239.625 75.1875C239.708 75.3542 239.75 75.5833 239.75 75.875C239.75 76.0833 239.698 76.2604 239.594 76.4062C239.49 76.5312 239.354 76.5938 239.188 76.5938ZM232.281 85.9375C231.969 85.9375 231.729 85.8542 231.562 85.6875C231.375 85.5 231.281 85.3333 231.281 85.1875C231.281 85.0417 231.365 84.8854 231.531 84.7188C231.552 84.6979 231.667 84.5312 231.875 84.2188C232.333 83.4896 232.854 82.5625 233.438 81.4375C234.042 80.2917 234.417 79.5104 234.562 79.0938C234.688 78.6979 234.802 78.3542 234.906 78.0625C235.031 77.7708 235.135 77.625 235.219 77.625C235.365 77.625 235.49 77.6771 235.594 77.7812C235.698 77.8646 235.802 77.9896 235.906 78.1562C236.031 78.3021 236.125 78.4062 236.188 78.4688C236.333 78.6354 236.406 78.7917 236.406 78.9375C236.406 79.0417 236.365 79.1458 236.281 79.25C236.198 79.3542 236.146 79.4271 236.125 79.4688L234.75 81.7812C234.396 82.4271 233.927 83.2292 233.344 84.1875C233.26 84.2917 233.219 84.3958 233.219 84.5C233.219 84.5833 233.312 84.625 233.5 84.625C233.896 84.625 234.635 84.5729 235.719 84.4688C236.802 84.3854 237.531 84.3125 237.906 84.25C238.448 84.1875 238.823 84.125 239.031 84.0625C239.26 84 239.594 84.1562 240.031 84.5312C240.552 84.9688 240.667 85.25 240.375 85.375C240.208 85.4583 239.885 85.5 239.406 85.5H238.156C237.885 85.5 237.458 85.5208 236.875 85.5625C236.521 85.5625 236.125 85.5729 235.688 85.5938C235.25 85.6146 234.885 85.6354 234.594 85.6562C234.26 85.6771 233.615 85.7396 232.656 85.8438L232.281 85.9375ZM245.562 72.1562C245.812 72.1562 245.938 72.2708 245.938 72.5C245.938 72.625 245.823 72.8021 245.594 73.0312C244.969 73.8021 243.729 75.2708 241.875 77.4375C241.729 77.625 241.594 77.7188 241.469 77.7188C241.365 77.7188 241.135 77.5625 240.781 77.25C240.49 77 240.344 76.7917 240.344 76.625C240.344 76.4375 240.5 76.2604 240.812 76.0938C241.292 75.8229 242.01 75.2812 242.969 74.4688C243.927 73.6146 244.635 72.9375 245.094 72.4375C245.281 72.25 245.438 72.1562 245.562 72.1562ZM228.781 80.7812C228.781 81.6771 228.74 82.5938 228.656 83.5312C228.594 84.1562 228.406 84.6354 228.094 84.9688C227.802 85.3229 227.177 85.5938 226.219 85.7812C225.26 85.9688 223.792 86.0625 221.812 86.0625C220.208 86.0625 219.021 86.0104 218.25 85.9062C217.479 85.8229 216.875 85.5729 216.438 85.1562C216 84.7396 215.781 84.0729 215.781 83.1562V83.0625L215.938 73.5938C215.938 73.0312 215.833 72.5104 215.625 72.0312C215.604 71.9896 215.583 71.9375 215.562 71.875C215.542 71.8125 215.531 71.75 215.531 71.6875C215.531 71.6042 215.594 71.5625 215.719 71.5625C216.031 71.5625 216.74 71.8021 217.844 72.2812L222.781 72.0938L223.156 70.375L218.031 70.625C217.844 70.6458 217.688 70.6667 217.562 70.6875C217.438 70.7083 217.333 70.7188 217.25 70.7188C217.062 70.7188 216.812 70.6146 216.5 70.4062C216.188 70.1771 216.031 69.9375 216.031 69.6875C216.031 69.6042 216.042 69.5312 216.062 69.4688C216.104 69.3854 216.125 69.2917 216.125 69.1875L216.469 66.125L216.5 65.8125C216.5 65.375 216.365 64.9583 216.094 64.5625C216.031 64.4583 216 64.3854 216 64.3438C216 64.2188 216.125 64.1562 216.375 64.1562C216.812 64.1562 217.229 64.25 217.625 64.4375C218.042 64.6042 218.25 64.8542 218.25 65.1875V65.2812L218.156 66.2812L223.094 66.0312C223.615 66.0104 224.125 65.9479 224.625 65.8438C224.833 65.8021 224.979 65.7812 225.062 65.7812C225.312 65.7812 225.542 65.8646 225.75 66.0312C225.958 66.1979 226.125 66.3854 226.25 66.5938C226.396 66.7812 226.469 66.9062 226.469 66.9688C226.469 67.1771 226.24 67.3021 225.781 67.3438L218 67.75L217.875 69.1875L223.656 68.875L224.031 68.8438C224.365 68.8438 224.656 68.9792 224.906 69.25C225.177 69.5208 225.312 69.7292 225.312 69.875C225.312 70 225.271 70.1146 225.188 70.2188C225.104 70.3229 225.052 70.4062 225.031 70.4688L224.531 72C225.052 72.6042 225.312 73.0104 225.312 73.2188C225.312 73.3229 225.26 73.3958 225.156 73.4375C225.052 73.4583 224.844 73.4792 224.531 73.5L217.719 73.75L217.656 75.25L221.875 75.125C222.396 75.1042 222.885 75.0312 223.344 74.9062C223.469 74.8646 223.573 74.8438 223.656 74.8438C223.927 74.8438 224.24 74.9896 224.594 75.2812C224.948 75.5521 225.125 75.8021 225.125 76.0312C225.125 76.1562 225.073 76.2604 224.969 76.3438C224.885 76.4062 224.76 76.4375 224.594 76.4375H224.5L217.625 76.6875L217.594 78.0938L222.062 77.9688C222.688 77.9479 223.188 77.875 223.562 77.75C223.688 77.7083 223.792 77.6875 223.875 77.6875C224.167 77.6875 224.49 77.8333 224.844 78.125C225.219 78.4167 225.406 78.6771 225.406 78.9062C225.406 79.0104 225.344 79.1042 225.219 79.1875C225.094 79.25 224.927 79.2812 224.719 79.2812L217.531 79.5L217.5 80.9375L222.594 80.7812C223.094 80.7604 223.583 80.6979 224.062 80.5938C224.312 80.5521 224.469 80.5312 224.531 80.5312C224.802 80.5312 225.094 80.6875 225.406 81C225.74 81.2917 225.906 81.5521 225.906 81.7812C225.906 82.0521 225.677 82.1875 225.219 82.1875L217.438 82.4062V82.625C217.438 83.2083 217.542 83.625 217.75 83.875C217.958 84.1042 218.312 84.2396 218.812 84.2812C219.312 84.3438 220.208 84.375 221.5 84.375C222.979 84.375 224.312 84.2917 225.5 84.125C225.917 84.0625 226.24 83.9479 226.469 83.7812C226.698 83.6146 226.917 83.2396 227.125 82.6562C227.333 82.0729 227.542 81.1562 227.75 79.9062C227.833 79.4896 227.927 79.1667 228.031 78.9375C228.135 78.6875 228.24 78.5625 228.344 78.5625C228.469 78.5625 228.573 78.6875 228.656 78.9375C228.74 79.1875 228.781 79.5312 228.781 79.9688V80.7812ZM201 71.7188C201 71.6146 201.083 71.5625 201.25 71.5625C201.833 71.6667 202.292 71.7188 202.625 71.7188H202.906L206.688 71.5C206.542 71.4792 206.406 71.3333 206.281 71.0625C206.115 70.75 205.781 70.2396 205.281 69.5312C205.24 69.4896 205.188 69.4271 205.125 69.3438C205.062 69.2396 205.031 69.1562 205.031 69.0938C205.031 68.9271 205.125 68.7812 205.312 68.6562C205.5 68.5104 205.594 68.4375 205.594 68.4375L205.688 68.375L204.906 68.4375C204.677 68.4583 204.406 68.4688 204.094 68.4688C203.698 68.4688 203.396 68.375 203.188 68.1875C202.979 67.9792 202.792 67.6771 202.625 67.2812V67.1562C202.625 67.0312 202.688 66.9688 202.812 66.9688L202.969 67C203.469 67.0833 203.823 67.125 204.031 67.125H204.312L208.5 66.8438C207.938 66.4062 207.312 66 206.625 65.625C206.271 65.4792 206.094 65.3125 206.094 65.125C206.094 65.0208 206.156 64.8542 206.281 64.625C206.406 64.3958 206.562 64.2812 206.75 64.2812C206.812 64.2812 207.115 64.3958 207.656 64.625C208.198 64.8542 208.688 65.1146 209.125 65.4062C209.562 65.6771 209.781 65.9375 209.781 66.1875C209.781 66.3958 209.708 66.5938 209.562 66.7812L211.469 66.6562C211.969 66.6354 212.448 66.5729 212.906 66.4688C213.115 66.4271 213.26 66.4062 213.344 66.4062C213.635 66.4062 213.927 66.5521 214.219 66.8438C214.531 67.1146 214.688 67.3229 214.688 67.4688C214.688 67.6771 214.458 67.8021 214 67.8438L210.938 68.0312C211.333 68.3021 211.604 68.5104 211.75 68.6562C211.896 68.7812 211.969 68.8958 211.969 69C211.969 69.1042 211.823 69.375 211.531 69.8125C211.24 70.25 210.844 70.75 210.344 71.3125L212.125 71.2188C212.312 71.1979 212.719 71.125 213.344 71C213.427 70.9792 213.542 70.9688 213.688 70.9688C213.979 70.9688 214.229 71.0521 214.438 71.2188C214.667 71.3646 214.833 71.5312 214.938 71.7188C215.062 71.9062 215.125 72.0312 215.125 72.0938C215.125 72.3021 214.948 72.4271 214.594 72.4688L203.219 73.0938H202.75C202.354 73.0938 202.021 73.0312 201.75 72.9062C201.5 72.7604 201.26 72.4167 201.031 71.875L201 71.7188ZM201.312 66.3125C201.312 66.125 201.51 65.875 201.906 65.5625C202.99 64.7708 203.969 63.9271 204.844 63.0312C205.74 62.1354 206.438 61.3125 206.938 60.5625C207.458 59.7917 207.729 59.1979 207.75 58.7812C207.75 58.4688 207.833 58.3125 208 58.3125C208.104 58.3125 208.302 58.3958 208.594 58.5625C208.885 58.7083 209.146 58.8854 209.375 59.0938C209.604 59.3021 209.719 59.4896 209.719 59.6562C209.719 59.7188 209.688 59.7917 209.625 59.875C209.583 59.9375 209.552 59.9896 209.531 60.0312L208.5 61.4062L212.75 61.0938C213.021 61.0729 213.385 61 213.844 60.875C214.01 60.8125 214.146 60.7812 214.25 60.7812C214.562 60.7812 214.875 60.9271 215.188 61.2188C215.5 61.5104 215.656 61.7604 215.656 61.9688C215.656 62.1979 215.417 62.3333 214.938 62.375L210.438 62.6562C210.917 62.9062 211.438 63.2396 212 63.6562C212.562 64.0521 212.844 64.3646 212.844 64.5938C212.844 64.7604 212.729 64.9688 212.5 65.2188C212.292 65.4688 212.094 65.5938 211.906 65.5938C211.781 65.5938 211.604 65.4792 211.375 65.25C210.938 64.7917 210.312 64.2812 209.5 63.7188C209.312 63.5521 209.219 63.4062 209.219 63.2812C209.219 63.1146 209.333 62.9271 209.562 62.7188L207.125 62.875C206.396 63.5833 205.635 64.2188 204.844 64.7812C204.073 65.3438 203.385 65.7812 202.781 66.0938C202.177 66.3854 201.781 66.5312 201.594 66.5312C201.406 66.5312 201.312 66.4583 201.312 66.3125ZM202.125 86.4062C202.125 86.1979 202.177 85.9896 202.281 85.7812C202.74 84.7604 203.083 83.8854 203.312 83.1562C203.542 82.4062 203.708 81.5208 203.812 80.5C203.938 79.4792 204 78.1458 204 76.5C204 75.3542 203.948 74.6354 203.844 74.3438C203.719 74.1771 203.656 74.0417 203.656 73.9375C203.656 73.8958 203.688 73.8542 203.75 73.8125C203.812 73.7708 203.875 73.75 203.938 73.75C204.5 73.75 205.104 73.9271 205.75 74.2812L211.562 73.9375L211.844 73.9062C212.115 73.9062 212.396 74.0417 212.688 74.3125C213 74.5625 213.156 74.7812 213.156 74.9688C213.156 75.0729 213.115 75.1979 213.031 75.3438C212.969 75.4896 212.938 75.5938 212.938 75.6562L212.906 83.8125C212.906 84.125 212.917 84.3854 212.938 84.5938C212.958 84.8229 212.969 85.0208 212.969 85.1875C212.969 85.7083 212.792 86.0833 212.438 86.3125C212.104 86.5417 211.792 86.6562 211.5 86.6562C211.146 86.6562 210.615 86.4062 209.906 85.9062C209.198 85.4271 208.542 84.8958 207.938 84.3125C207.354 83.7292 207.062 83.3333 207.062 83.125C207.062 83 207.135 82.9375 207.281 82.9375C207.448 82.9375 207.646 83.0104 207.875 83.1562C209 83.7604 210.073 84.2083 211.094 84.5L211.125 80.375C210.458 80.7917 209.573 81.1979 208.469 81.5938C207.385 81.9688 206.604 82.1562 206.125 82.1562C205.771 82.1562 205.479 81.9792 205.25 81.625C204.896 83.125 204.427 84.3229 203.844 85.2188C203.281 86.1354 202.771 86.6042 202.312 86.625C202.188 86.625 202.125 86.5521 202.125 86.4062ZM205.531 80.375C205.948 80.375 206.406 80.3333 206.906 80.25C207.427 80.1458 207.74 80.0833 207.844 80.0625C208.198 79.9792 208.688 79.875 209.312 79.75C209.958 79.6042 210.573 79.4792 211.156 79.375L211.188 75.375L205.75 75.6875L205.719 76.6562C205.781 76.6354 205.885 76.625 206.031 76.625C206.177 76.625 206.302 76.6354 206.406 76.6562C207.948 76.9062 209.062 77.125 209.75 77.3125C210.208 77.4375 210.438 77.6875 210.438 78.0625C210.417 78.2708 210.333 78.4688 210.188 78.6562C210.042 78.8438 209.854 78.9375 209.625 78.9375C209.438 78.9375 209.156 78.8646 208.781 78.7188C208.115 78.4896 207.146 78.2604 205.875 78.0312L205.688 77.9688C205.688 78.9062 205.635 79.6875 205.531 80.3125V80.375ZM206.031 68.375C206.198 68.3958 206.427 68.5729 206.719 68.9062C207.01 69.2188 207.281 69.5625 207.531 69.9375C207.781 70.3125 207.906 70.5521 207.906 70.6562C207.906 70.8229 207.802 70.9896 207.594 71.1562C207.406 71.3021 207.219 71.4167 207.031 71.5L208.781 71.4062C209.635 70.0938 210.062 69.1042 210.062 68.4375C210.062 68.2917 210.052 68.1771 210.031 68.0938L206.031 68.375ZM214.031 64.7812C214.031 64.5938 214.177 64.3542 214.469 64.0625C215.469 63.0625 216.344 62.0104 217.094 60.9062C217.844 59.8021 218.219 58.9792 218.219 58.4375C218.219 58.1458 218.302 58 218.469 58C218.594 58 218.792 58.0833 219.062 58.25C219.354 58.3958 219.604 58.5729 219.812 58.7812C220.042 58.9896 220.156 59.1875 220.156 59.375C220.156 59.4583 220.125 59.5521 220.062 59.6562C219.521 60.4062 219.219 60.8229 219.156 60.9062L224.656 60.5312C225.073 60.4896 225.427 60.4167 225.719 60.3125C225.844 60.2708 225.927 60.25 225.969 60.25C226.281 60.25 226.594 60.4062 226.906 60.7188C227.219 61.0104 227.375 61.25 227.375 61.4375C227.375 61.6458 227.167 61.7708 226.75 61.8125L221.062 62.1875C222.146 62.7917 222.865 63.2396 223.219 63.5312C223.594 63.8021 223.781 64.0104 223.781 64.1562C223.781 64.3021 223.677 64.5104 223.469 64.7812C223.281 65.0521 223.083 65.1875 222.875 65.1875C222.75 65.1875 222.583 65.1042 222.375 64.9375C221.667 64.375 220.927 63.8542 220.156 63.375C219.906 63.1875 219.781 63.0312 219.781 62.9062C219.781 62.7396 219.885 62.5208 220.094 62.25L217.844 62.4062C217.198 63.0521 216.51 63.6458 215.781 64.1875C215.052 64.7292 214.552 65 214.281 65C214.115 65 214.031 64.9271 214.031 64.7812Z" fill="#333333"/>
</svg>
