<svg xmlns="http://www.w3.org/2000/svg" width="350" height="88" fill="none"><path fill="#333" d="M132.426 16.566c-.774-.28-1.137-.585-1.09-.914.141-.984.211-2.109.211-3.375a15.414 15.414 0 0 0-.106-2.004c-.023-.234-.023-.363 0-.386a.478.478 0 0 1 .352-.14c.211 0 .469.093.773.28.329.188.493.375.493.563 0 .117-.012.234-.036.351a1.33 1.33 0 0 0-.035.317l-.211 3.48c0 .188.071.305.211.352h.176c.188 0 .316-.012.387-.035l4.535-.633v-.914a39.21 39.21 0 0 0-.07-2.672c-.024-.54-.082-.973-.176-1.3-.07-.376.023-.563.281-.563.188 0 .434.07.738.21.375.188.598.352.668.493.071.117.094.304.071.562-.047.422-.071 1.055-.071 1.899l.035 2.672c0 .562-.105 1.007-.316 1.336-.117.14-.234.21-.351.21-.118 0-.282-.105-.493-.316a2.01 2.01 0 0 1-.175-.21.475.475 0 0 0-.211-.177.92.92 0 0 0-.282-.035c-.539.047-1.839.223-3.902.527-.352.047-.633.141-.844.282-.234.117-.386.176-.457.176l-.105-.036Zm4.465 7.559c-.235.305-.481.457-.739.457-.07 0-.105-.059-.105-.176 0-.164.047-.351.141-.562l.703-1.407c.023-.093.058-.187.105-.28.047-.095.082-.177.106-.247v-.035c0-.047-.036-.094-.106-.14a.295.295 0 0 0-.246-.036c-.375.024-.938.082-1.688.176-.726.094-1.265.188-1.617.281l-.527.176a1.38 1.38 0 0 1-.457.105c-.422 0-.773-.128-1.055-.386a2.168 2.168 0 0 1-.527-.492l-.07-.176c0-.117.199-.152.597-.106.539.047 1.653-.023 3.34-.21l.703-.106c.188-.023.481-.059.879-.105.422-.07.75-.141.984-.212l.211-.07a.568.568 0 0 1 .247-.07c.117 0 .257.058.421.176.188.117.34.222.457.316.164.117.27.223.317.317.07.07.094.164.07.28 0 .118-.058.223-.176.317a3.36 3.36 0 0 0-.246.211c-.047.07-.211.246-.492.527-.117.188-.328.446-.633.774-.281.328-.48.562-.597.703Zm-1.758 6.926c0-.07.117-.246.351-.528.258-.304.457-.539.598-.703.352-.468.773-1.148 1.266-2.039.515-.89.808-1.476.879-1.758.046-.14-.024-.21-.211-.21-.375 0-1.407.105-3.094.316-1.102.14-1.922.281-2.461.422a.677.677 0 0 1-.352.105c-.187 0-.386-.129-.597-.386a.93.93 0 0 1-.141-.457c0-.094.059-.188.176-.282l.105-.14c.071-.141.153-.328.246-.563.094-.234.176-.457.247-.668.117-.375.199-.785.246-1.23.023-.258.164-.328.421-.211.329.164.575.328.739.492.187.14.246.246.176.316a3.5 3.5 0 0 0-.563.95 9.844 9.844 0 0 0-.211.738c0 .094.059.14.176.14.351 0 .879-.058 1.582-.175l1.477-.176c.585-.07 1.054-.14 1.406-.211l.879-.176a.913.913 0 0 1 .281-.035c.117 0 .234.047.351.14.118.071.247.165.387.282.235.21.387.387.457.527a.8.8 0 0 1 .106.422c0 .094-.071.211-.211.352-.117.14-.258.363-.422.668-.68 1.383-1.559 2.543-2.637 3.48a4.86 4.86 0 0 1-1.019.598 4.183 4.183 0 0 1-.457.105c-.118 0-.176-.035-.176-.105Zm11.25-16.242c.281 0 .422.129.422.386 0 .14-.129.34-.387.598-.703.867-2.098 2.52-4.184 4.957-.164.21-.316.316-.457.316-.117 0-.375-.175-.773-.527-.328-.281-.492-.516-.492-.703 0-.211.176-.41.527-.598.539-.304 1.348-.914 2.426-1.828 1.078-.96 1.875-1.723 2.39-2.285.211-.21.387-.316.528-.316Zm-41.871-4.922c-.258.023-.586.035-.985.035h-.351c-.328-.047-.563-.106-.703-.176-.235-.164-.481-.434-.739-.809-.257-.398-.386-.726-.386-.984 0-.164.07-.246.211-.246.093 0 .175.012.246.035.422.117.937.176 1.547.176h.457l13.711-.879a7.287 7.287 0 0 0 1.582-.316.597.597 0 0 1 .246-.035c.304 0 .703.234 1.195.703.516.468.773.82.773 1.054 0 .282-.293.446-.878.492l-15.926.95Zm-9.563 24.785c0-.211.27-.469.809-.774 2.062-1.195 3.785-2.496 5.168-3.902 1.406-1.406 2.566-3.082 3.48-5.027.914-1.969 1.653-4.348 2.215-7.137l-6.152.316a17.13 17.13 0 0 1-1.196.036c-.304 0-.55-.024-.738-.07a1.14 1.14 0 0 1-.527-.317 3.467 3.467 0 0 1-.703-.985c-.164-.351-.246-.585-.246-.703 0-.14.105-.21.316-.21h.21c.446.14.985.21 1.618.21h.352l22.183-1.125a6.824 6.824 0 0 0 1.617-.316c.141-.047.235-.07.282-.07.281 0 .691.234 1.23.703s.809.855.809 1.16c0 .258-.281.41-.844.457l-9.633.492-.211 12.13v.105c0 .585.141 1.02.422 1.3.281.258.68.422 1.195.492.54.07 1.313.106 2.321.106 1.406 0 2.648-.117 3.726-.352.399-.07.727-.293.985-.668.258-.375.504-1.03.738-1.968.234-.938.48-2.32.738-4.149.071-.468.164-.832.282-1.09.14-.28.281-.421.421-.421.258 0 .411.28.457.843.071.563.106 1.325.106 2.285 0 1.477-.07 2.989-.211 4.536-.07.773-.281 1.382-.633 1.828-.328.468-.996.832-2.004 1.09-.984.28-2.449.421-4.394.421-1.36 0-2.473-.07-3.34-.21-.867-.118-1.606-.458-2.215-1.02-.609-.54-.914-1.406-.914-2.602v-.105l.211-12.445-3.727.21c-.937 4.782-2.437 8.508-4.5 11.18-2.039 2.649-4.91 4.582-8.613 5.801-.281.094-.539.14-.773.14-.211 0-.317-.058-.317-.175Zm94.465-20.742c-.141 0-.328-.153-.562-.457-.235-.329-.34-.61-.317-.844.047-.188.082-.715.106-1.582.023-.586.035-1.617.035-3.094 0-1.031-.012-1.723-.035-2.074l-1.161.105c-.82.118-1.523.176-2.109.176-.164 0-.398-.129-.703-.387-.305-.257-.457-.445-.457-.562 0-.188.199-.258.598-.211.257.023 1.019.012 2.285-.035a114.49 114.49 0 0 1 3.761-.211c.399-.024.762-.059 1.09-.106.352-.07.598-.117.739-.14.211-.024.398 0 .562.07.164.07.316.164.457.281.164.094.293.164.387.211.211.14.316.27.316.387 0 .094-.058.188-.176.281a.512.512 0 0 1-.316.106c-.117 0-.281-.012-.492-.035a5.154 5.154 0 0 0-.633-.036c-.867 0-1.758.024-2.672.07-.023.188-.035.657-.035 1.407-.047 1.266-.07 2.508-.07 3.727v1.687c0 .399-.035.656-.106.774-.211.328-.375.492-.492.492Zm-3.762 6.222c-.257 0-.574-.199-.949-.597-.281-.282-.422-.492-.422-.633 0-.07.047-.106.141-.106a1.48 1.48 0 0 1 .351-.035l.774-.035c.445 0 .738-.012.879-.035.445 0 .82-.012 1.125-.035 2.015-.188 3.375-.34 4.078-.457a29.8 29.8 0 0 0 .949-.14c.281-.071.504-.106.668-.106.328 0 .656.164.984.492.258.258.387.469.387.633 0 .14-.082.234-.246.28-.117.024-.809.071-2.074.142-.703.023-1.57.082-2.602.175a92.491 92.491 0 0 0-2.707.282c-.14.023-.34.058-.597.105-.258.047-.504.07-.739.07Zm7.559 12.13c.047.093.129.234.246.421.117.188.176.41.176.668a.67.67 0 0 1-.281.563.938.938 0 0 1-.633.246c-.211 0-.387-.211-.528-.633-.07-.164-.129-.305-.175-.422a3.344 3.344 0 0 0-.071-.246 8.055 8.055 0 0 1-1.195.246c-.492.07-.844.129-1.055.176-1.125.21-1.898.363-2.32.457-.164.047-.34.094-.527.14-.188.07-.293.118-.317.141-.14.047-.246.07-.316.07-.188 0-.363-.082-.527-.246a1.91 1.91 0 0 1-.633-.843c-.024-.024-.035-.06-.035-.106 0-.047.058-.105.175-.176a2.68 2.68 0 0 1 .317-.14c.304-.164.843-.657 1.617-1.477l.949-.914-2.074-1.125c-.234-.07-.387-.152-.457-.246s-.106-.234-.106-.422c0-.14.024-.234.071-.281.07-.07.211-.176.422-.317.211-.14.421-.328.632-.562a4.3 4.3 0 0 1 .457-.457c.188-.164.364-.34.528-.527.703-.82 1.148-1.465 1.336-1.934.117-.234.211-.352.281-.352.047 0 .141.047.281.141.446.328.715.633.809.914v.105c0 .118-.059.212-.176.282-.117.07-.199.129-.246.176-.07.046-.422.386-1.055 1.02l-.633.632-.597.598c-.281.257-.422.41-.422.457 0 .07.035.128.105.175a.814.814 0 0 1 .211.141l1.477.703c.914-.914 1.441-1.453 1.582-1.617.609-.703.949-1.148 1.019-1.336a.788.788 0 0 0 .106-.176c.047-.094.094-.14.141-.14.07 0 .14.035.21.105.375.352.645.68.809.984.047.094.07.153.07.176 0 .047-.058.117-.175.211l-.282.211c-.82.68-1.781 1.57-2.882 2.672l-2.145 2.004c-.047.047-.07.094-.07.14 0 .047.023.083.07.106.047.023.117.023.211 0l4.113-.703a15.968 15.968 0 0 0-.422-1.406v-.07c0-.071.035-.106.106-.106.094 0 .234.07.422.21.375.329.843.891 1.406 1.688Zm-33.82-12.622-.036 2.074c.141-.023.329-.023.563 0a.715.715 0 0 1 .316 0h.317c2.414.211 5.332.563 8.754 1.055.375.047.656.164.843.352.188.187.282.375.282.562-.071.774-.469 1.125-1.196 1.055-.234-.047-.679-.082-1.336-.106-.046 0-.55-.082-1.511-.246-2.907-.468-4.969-.75-6.188-.843-.445-.047-.75-.106-.914-.176-.07 1.453-.211 2.73-.422 3.832h.106c1.547 0 3.422-.082 5.625-.246l1.125-.106c3.14-.234 5.484-.445 7.031-.633l-.07-7.172-13.289.598Zm-7.77-5.941c0-.117.035-.246.106-.387 1.031-1.969 1.816-4.125 2.355-6.469.047-.258.117-.445.211-.562.094-.117.234-.176.422-.176.281 0 .597.094.949.281.352.164.527.364.527.598 0 .047-.023.187-.07.422l-.176.773 9.633-.527a13.945 13.945 0 0 0-1.652-1.723 73.557 73.557 0 0 1-1.09-1.02 1.585 1.585 0 0 1-.281-.28.376.376 0 0 1-.035-.352c.046-.234.21-.469.492-.703.304-.235.539-.328.703-.281.164.023.539.269 1.125.738s1.371 1.195 2.355 2.18c.352.28.493.574.422.878-.023.094-.117.258-.281.493l10.863-.598.352-.035c.328 0 .609.082.844.246.257.164.457.351.597.562.141.211.211.364.211.457 0 .188-.105.375-.316.563a1.943 1.943 0 0 0-.387.422c-1.125 1.476-2.039 2.566-2.742 3.27-.703.702-1.196 1.054-1.477 1.054-.164 0-.246-.094-.246-.281 0-.258.129-.598.387-1.02.703-1.172 1.266-2.262 1.687-3.27l-21.691 1.055a36.518 36.518 0 0 1-1.617 4.254c-.141.375-.363.563-.668.563a3.53 3.53 0 0 1-1.09-.422c-.281-.211-.422-.445-.422-.703Zm1.652 21.48c0-.258.106-.55.317-.879.914-1.265 1.629-2.472 2.144-3.62.516-1.15.903-2.485 1.161-4.009.257-1.546.386-3.445.386-5.695 0-.96-.023-1.64-.07-2.039-.023-.398-.094-.727-.211-.984-.141-.188-.211-.364-.211-.528 0-.047.023-.093.07-.14.047-.047.118-.07.211-.07.586 0 1.289.187 2.11.562l5.308-.246.071-5.098c0-.445-.164-.937-.493-1.476-.093-.165-.14-.293-.14-.387 0-.188.129-.281.386-.281.258 0 .692.093 1.301.28.492.141.809.282.949.423.141.14.211.34.211.597l-.211 5.836 6.504-.316.457-.035c.399 0 .739.164 1.02.492.281.305.422.55.422.738 0 .094-.024.211-.07.352a.863.863 0 0 0-.071.316l.106 13.852.035.914c0 .469-.176.867-.527 1.195-.305.281-.586.422-.844.422-.282 0-.938-.293-1.969-.879a26.898 26.898 0 0 1-2.848-1.828c-.89-.656-1.336-1.102-1.336-1.336 0-.14.106-.21.317-.21.258 0 .586.081.984.245 1.406.563 2.754.985 4.043 1.266l-.035-5.274c-1.406.493-3.539.985-6.398 1.477-2.86.492-4.793.738-5.801.738-.961 0-1.606-.422-1.934-1.265a12.911 12.911 0 0 1-1.476 3.55c-.657 1.078-1.325 1.934-2.004 2.567-.657.633-1.196.972-1.617 1.02-.165 0-.247-.083-.247-.247ZM157 12.594c0-.211.105-.446.316-.703.211-.258.422-.387.633-.387.188 0 .68.305 1.477.914a21.65 21.65 0 0 1 2.215 1.863c.703.656 1.054 1.09 1.054 1.301 0 .211-.14.457-.422.738-.281.305-.539.457-.773.457-.234 0-.492-.152-.773-.457a38.4 38.4 0 0 0-3.516-3.304c-.141-.141-.211-.282-.211-.422Zm10.758 4.148c0-.187.152-.433.457-.738a19.714 19.714 0 0 0 2.355-2.813c.68-.96 1.043-1.675 1.09-2.144a.594.594 0 0 0 .035-.246c0-.305.094-.457.282-.457.304 0 .703.234 1.195.703.516.445.773.82.773 1.125 0 .305-.621.984-1.863 2.039-1.219 1.031-2.309 1.828-3.27 2.39l-.175.106c-.235.14-.457.211-.668.211-.141 0-.211-.059-.211-.176Zm78.363-2.355c-.164 0-.34-.106-.527-.317a2.15 2.15 0 0 1-.282-.386c-.046-.118-.046-.27 0-.457l.036-.844c.023-.164.035-.563.035-1.195v-1.16l-1.055.492-1.23.527a10.87 10.87 0 0 0-.95.422c-.281.14-.527.21-.738.21a2.17 2.17 0 0 1-.562-.175 4.837 4.837 0 0 1-.493-.246c-.257-.164-.375-.34-.351-.527l.105-.352c0-.188.012-.352.036-.492l.035-2.04V5.95c0-.375-.024-.691-.071-.949-.047-.281-.082-.48-.105-.598 0-.117.035-.199.105-.246.024-.023.082-.035.176-.035.164 0 .481.106.949.316.399.188.563.422.493.704-.047.164-.094.41-.141.738l-.106 4.043c0 .117.012.21.036.281.046.047.093.07.14.07.282 0 .621-.082 1.02-.246.75-.234 1.394-.468 1.933-.703l.774-.316v-2.32c0-.938-.059-1.84-.176-2.708a.792.792 0 0 1-.035-.246c0-.234.094-.351.281-.351.024 0 .152.047.387.14.351.188.609.352.773.493.164.14.258.222.282.246.093.07.14.14.14.21a.34.34 0 0 1-.07.176c-.024.07-.047.13-.07.176l-.106 1.055-.035 3.234.035 3.13c0 .538-.035 1.007-.105 1.405-.118.493-.305.739-.563.739Zm-6.469 5.765c-.257 0-.574-.199-.949-.597-.281-.282-.422-.492-.422-.633 0-.07.047-.106.141-.106a1.48 1.48 0 0 1 .351-.035l.774-.035c.445 0 .738-.012.879-.035.445 0 .82-.012 1.125-.035 2.015-.188 3.375-.34 4.078-.457a29.8 29.8 0 0 0 .949-.14c.281-.071.504-.106.668-.106.328 0 .656.164.984.492.258.258.387.469.387.633 0 .14-.082.234-.246.28-.117.024-.809.071-2.074.142-.703.023-1.57.082-2.602.175a92.491 92.491 0 0 0-2.707.282c-.14.023-.34.058-.597.105-.258.047-.504.07-.739.07Zm4.711 14.52c-.726 0-1.289-.024-1.687-.07a1.68 1.68 0 0 1-.949-.422c-.446-.328-.75-1.043-.915-2.145l-.105-1.125c0-.281-.023-.633-.07-1.055a5.987 5.987 0 0 0-.809.141 3.817 3.817 0 0 1-.246.106.965.965 0 0 1-.211.035.81.81 0 0 1-.457-.14c-.141-.095-.316-.27-.527-.528-.164-.211-.246-.352-.246-.422s.082-.117.246-.14c.164-.024.386-.036.668-.036.398 0 .914-.047 1.547-.14l-.036-.493c0-.937-.058-1.734-.175-2.39l-.036-.246c0-.329.129-.457.387-.387.281.094.539.21.774.351.187.094.316.188.386.282.071.07.094.175.071.316l-.106 1.512v.914l3.094-.317c0-.164.012-.55.035-1.16.024-.633.024-1.043 0-1.23 0-.188-.023-.363-.07-.527a6.529 6.529 0 0 0-.071-.458c0-.187.094-.28.282-.28.187 0 .422.105.703.316.328.21.539.398.633.562.117.164.14.363.07.598a6.4 6.4 0 0 0-.246 1.265c-.047.47-.07.75-.07.844.281-.023.539-.058.773-.105.234-.047.387-.07.457-.07.188-.047.41-.071.668-.071.141.023.34.164.598.422.211.281.316.504.316.668 0 .234-.223.328-.668.281a6.863 6.863 0 0 0-1.195-.105c-.399 0-.738.011-1.02.035-.07.844-.211 1.676-.422 2.496a.953.953 0 0 1-.246.457c-.117.14-.222.21-.316.21-.164 0-.27-.07-.317-.21a3.524 3.524 0 0 1-.035-.598c.047-.61.071-1.37.071-2.285a26.99 26.99 0 0 0-1.477.14 9.357 9.357 0 0 1-1.512.212c-.023.96.024 1.816.141 2.566.07.492.211.832.422 1.02.14.117.305.187.492.21.211.024.422.036.633.036h.422c.726 0 1.406-.035 2.039-.106a1.52 1.52 0 0 0 .492-.14c.164-.07.281-.106.352-.106.21 0 .421.07.632.211.211.14.317.305.317.492 0 .188-.106.328-.317.422-.187.094-.492.176-.914.246-.75.094-1.5.14-2.25.14Zm10.02-15.996c.281 0 .422.129.422.387 0 .14-.129.34-.387.597-.703.867-2.098 2.52-4.184 4.957-.164.211-.316.317-.457.317-.117 0-.375-.176-.773-.528-.328-.281-.492-.515-.492-.703 0-.21.176-.41.527-.598.539-.304 1.348-.914 2.426-1.828 1.078-.96 1.875-1.722 2.39-2.285.211-.21.387-.316.528-.316Zm-44.684 11.496c2.086-.656 3.949-1.371 5.59-2.145a25.586 25.586 0 0 0-1.336-1.687c-.187-.235-.281-.422-.281-.563 0-.258.152-.48.457-.668.305-.21.539-.316.703-.316.188 0 .387.117.598.352a137.853 137.853 0 0 1 3.41 4.148c.937 1.195 1.406 1.922 1.406 2.18 0 .21-.164.457-.492.738-.305.305-.598.457-.879.457-.234 0-.469-.188-.703-.563a96.435 96.435 0 0 0-1.828-2.671l-4.219 2.109c-.469.21-1.207.586-2.215 1.125-.844.445-1.359.668-1.547.668-.14 0-.316-.094-.527-.281a1.65 1.65 0 0 1-.492-.633c-.094-.234-.094-.422 0-.563.14-.257.211-1.289.211-3.093V16.602c0-.563-.024-1.02-.071-1.372a3.587 3.587 0 0 0-.281-1.125 1.37 1.37 0 0 0-.07-.175.305.305 0 0 1-.035-.14c0-.118.082-.177.246-.177.304 0 1.066.258 2.285.774l7.629-.528c.187-.023.398-.035.633-.035.257 0 .562.117.914.352.351.21.527.445.527.703 0 .094-.059.234-.176.422-.094.187-.14.328-.14.422l-.914 6.609c.562.656.843 1.102.843 1.336 0 .117-.07.2-.211.246-.117.047-.304.07-.562.07l-8.508.317.035 5.87Zm-5.765-15.785c0-.235.152-.516.457-.844 1.711-1.898 3.199-3.785 4.464-5.66 1.266-1.875 1.899-3.13 1.899-3.762l-.035-.246V3.77c0-.329.129-.493.386-.493.305 0 .727.211 1.266.633.563.399.844.727.844.985 0 .117-.059.27-.176.457a23.895 23.895 0 0 1-1.16 1.687l4.992-.387a4.872 4.872 0 0 0 1.336-.28c.141-.048.246-.071.316-.071.352 0 .727.199 1.125.597.422.375.633.668.633.88 0 .28-.258.445-.773.492l-6.012.421c.164.047.527.293 1.09.739.586.445 1.113.902 1.582 1.37.469.47.703.798.703.985 0 .211-.141.469-.422.774-.281.28-.527.421-.738.421-.188 0-.41-.152-.668-.457a21.796 21.796 0 0 0-2.426-2.285c-.281-.234-.422-.433-.422-.597 0-.118.059-.27.176-.457.117-.188.27-.34.457-.457l-2.355.175a34.406 34.406 0 0 1-3.727 3.903c-1.359 1.195-2.226 1.793-2.601 1.793-.141 0-.211-.07-.211-.211Zm12.656 3.656.246-2.461-7.242.492v2.32l6.996-.351Zm-.457 4.36.281-2.708-6.785.317v2.636l6.504-.246Zm1.898-9.528c0-.234.153-.516.457-.844 1.149-1.383 2.192-2.941 3.129-4.676.961-1.757 1.442-2.988 1.442-3.69v-.142c0-.351.129-.527.386-.527.164 0 .41.094.739.281.351.164.668.364.949.598.281.234.422.469.422.703 0 .211-.164.586-.493 1.125-.328.54-.503.82-.527.844l6.926-.563a6.483 6.483 0 0 0 1.336-.246c.047-.023.141-.035.281-.035.328 0 .68.188 1.055.563.398.351.597.644.597.879 0 .14-.07.257-.21.351-.118.07-.282.117-.493.14l-7.136.493c.656.422 1.429 1.043 2.32 1.863.891.797 1.336 1.336 1.336 1.617 0 .164-.129.422-.387.774-.258.328-.504.492-.738.492-.188 0-.387-.117-.598-.352-1.148-1.242-2.191-2.226-3.129-2.953-.234-.187-.351-.363-.351-.527 0-.188.176-.469.527-.844l-2.601.176c-.774 1.031-1.711 2.074-2.813 3.129-1.078 1.055-1.805 1.582-2.18 1.582-.164 0-.246-.07-.246-.211Zm3.305.773c0-.14.082-.21.246-.21.352 0 1.148.292 2.391.878l7.066-.597.281-.035c.094 0 .27.046.528.14.281.07.539.2.773.387.258.164.387.387.387.668 0 .094-.035.223-.106.387-.07.164-.105.28-.105.351a88.243 88.243 0 0 1-.492 8.262l-.071.879c-.07.984-.164 1.805-.281 2.46-.117.657-.316 1.173-.598 1.548-.445.609-.925.914-1.441.914s-1.172-.317-1.969-.95a18.576 18.576 0 0 1-2.215-2.074c-.656-.75-.984-1.23-.984-1.441 0-.164.094-.246.281-.246.211 0 .504.117.879.351.867.54 1.594.973 2.18 1.301.586.328 1.008.492 1.266.492.117 0 .199-.082.246-.246.539-3 .867-6.762.984-11.285l-6.609.492c0 3.961.035 10.242.105 18.844 0 .21-.058.363-.176.457a.466.466 0 0 1-.386.176c-.188 0-.411-.07-.668-.211-.446-.188-.762-.363-.95-.528-.187-.164-.281-.351-.281-.562l.035-.246c.141-.773.211-1.64.211-2.602l-.105-14.836c0-.609-.024-1.078-.07-1.406a3.306 3.306 0 0 0-.211-.95c-.094-.28-.141-.468-.141-.562ZM143.031 71.219c-.312 0-.541-.167-.687-.5l-.282-.625a46.38 46.38 0 0 1-1.968.469l-2.032.5c-.416.104-.677.156-.781.156a.692.692 0 0 1-.312-.063l-.157-.156a1.675 1.675 0 0 1-.093-.156c-.167-.292-.24-.49-.219-.594l.219-.344c.541-.75 1.041-1.823 1.5-3.219l-.625.094-.813.094c-.062.02-.198.063-.406.125-.187.042-.333.031-.437-.031-.23-.146-.532-.406-.907-.781-.083-.084-.125-.146-.125-.188 0-.125.229-.188.688-.188h1.062a40.719 40.719 0 0 0 1.938-.156c.125-.312.26-.708.406-1.187.146-.48.25-.865.312-1.156v-.376c.021-.187.063-.302.126-.343h.031c.083 0 .198.041.343.125.146.083.282.187.407.312.396.396.51.709.343.938-.083.02-.26.364-.531 1.031-.021.042-.093.23-.219.563l1.813-.22a7.517 7.517 0 0 0 1.094-.156c.354-.104.635-.156.843-.156.167 0 .303.063.407.188l.219.219c.062.062.135.187.218.374.084.146.115.25.094.313-.083.125-.229.188-.438.188-.687-.042-1.51-.021-2.468.062a10.58 10.58 0 0 0-.938.125l-1.218.125-.282.844-.344.75c-.104.25-.218.5-.343.75-.125.25-.219.458-.281.625a.43.43 0 0 0-.032.187c0 .104.063.156.188.156.166 0 .739-.093 1.718-.28l1.157-.188.531-.125c-.188-.521-.333-.854-.438-1a3.04 3.04 0 0 1-.187-.281l.187-.188c.813.52 1.469 1.052 1.969 1.594.146.187.24.364.281.531.063.167.084.354.063.563a.874.874 0 0 1-.219.437c-.041.104-.166.177-.375.219Zm-6.562 7.875c-.229 0-.511-.177-.844-.531-.25-.25-.375-.438-.375-.563 0-.063.042-.094.125-.094.083-.02.187-.031.313-.031l.687-.031c.396 0 .656-.01.781-.031.396 0 .729-.01 1-.032 1.792-.166 3-.302 3.625-.406.313-.042.594-.083.844-.125.25-.063.448-.094.594-.094.291 0 .583.146.875.438.229.229.344.416.344.562 0 .125-.073.209-.219.25-.104.021-.719.063-1.844.125-.625.021-1.396.073-2.313.156-.916.084-1.718.167-2.406.25-.125.021-.302.053-.531.094a3.668 3.668 0 0 1-.656.063Zm13.093-10.375c.25 0 .376.114.376.344 0 .124-.115.302-.344.53-.625.772-1.865 2.24-3.719 4.407-.146.188-.281.281-.406.281-.104 0-.334-.156-.688-.469-.291-.25-.437-.458-.437-.624 0-.188.156-.365.468-.532.48-.27 1.198-.812 2.157-1.625.958-.854 1.666-1.531 2.125-2.031.187-.188.344-.281.468-.281ZM123.719 82c2.812 1.063 5.896 1.844 9.25 2.344.437.062.656.177.656.344 0 .062-.083.229-.25.5-.146.27-.333.51-.563.718-.208.23-.406.344-.593.344-.292 0-1.271-.219-2.938-.656-1.646-.417-3.552-1.021-5.719-1.813a42.704 42.704 0 0 1-6.156-2.875 19.115 19.115 0 0 1-2 2.938c-.708.854-1.364 1.52-1.968 2-.584.5-1 .75-1.25.75-.146 0-.219-.063-.219-.188 0-.208.135-.458.406-.75A21.378 21.378 0 0 0 115 81.844c.75-1.375 1.312-2.615 1.688-3.719.395-1.125.593-1.906.593-2.344 0-.187-.01-.333-.031-.437a1.155 1.155 0 0 1-.031-.281c0-.23.093-.344.281-.344.292 0 .698.187 1.219.562.541.354.812.646.812.875 0 .23-.177.75-.531 1.563a42.095 42.095 0 0 1-.781 1.719 41.365 41.365 0 0 0 3.719 1.874l.062-8.03-4.969.28-.781.032h-.156c-.25 0-.448-.052-.594-.156-.562-.521-.875-1.032-.938-1.532 0-.125.073-.187.219-.187.104 0 .188.01.25.031a4.14 4.14 0 0 0 1.188.188h.219l12.874-.72c.563-.04.98-.103 1.25-.187a1.04 1.04 0 0 1 .313-.062c.229 0 .542.166.937.5.396.312.594.604.594.875 0 .25-.271.396-.812.437l-7.75.406-.063 3.438 3.375-.125c.563-.042.979-.104 1.25-.188.125-.041.229-.062.313-.062.25 0 .573.167.969.5.395.333.593.625.593.875 0 .27-.291.427-.875.469l-5.625.219-.062 3.687Zm-19.781-5.438c0-.145.114-.229.343-.25.354-.062 1.042-.343 2.063-.843a60.49 60.49 0 0 0 3.187-1.688l.031-5.656-2.25.188a21.08 21.08 0 0 1-1.124.062c-.334 0-.563-.063-.688-.188a3.457 3.457 0 0 1-.844-1.312.433.433 0 0 1-.031-.188c0-.104.052-.156.156-.156l.125.031c.292.063.604.094.938.094.333 0 .614-.01.844-.031l2.874-.188.032-5c0-.354-.042-.645-.125-.874-.063-.25-.198-.532-.407-.844a.564.564 0 0 1-.093-.282c0-.124.104-.187.312-.187.146 0 .386.042.719.125.354.083.677.23.969.438.291.187.437.447.437.78l-.031 5.72 1.063-.063a2.72 2.72 0 0 0 .593-.125c.188-.063.386-.135.594-.219a.502.502 0 0 1 .219-.062c.25 0 .594.177 1.031.531.437.333.656.635.656.906 0 .25-.25.396-.75.438l-3.406.281-.031 4.688c.666-.438 1.458-1.032 2.375-1.782.291-.229.521-.344.687-.344.167 0 .25.084.25.25 0 .271-.344.75-1.031 1.438a33.378 33.378 0 0 1-2.281 2.125l-.063 9.063c0 .208.011.406.031.593.021.209.032.396.032.563 0 .52-.177.958-.532 1.312-.333.354-.677.531-1.031.531-.396 0-.937-.291-1.625-.874a13.74 13.74 0 0 1-1.906-1.907c-.562-.708-.844-1.198-.844-1.469 0-.104.052-.156.156-.156.167 0 .448.136.844.406A14.119 14.119 0 0 0 109.469 84l.031-8.25c-1.125.792-1.958 1.354-2.5 1.688-.521.333-.906.5-1.156.5-.084 0-.209-.021-.375-.063-.334-.125-.677-.333-1.031-.625-.334-.313-.5-.542-.5-.688Zm12.593-15.968c0-.146.104-.219.313-.219.375 0 1.052.198 2.031.594l8.375-.594h.219c.291 0 .583.135.875.406.312.25.468.49.468.719a.606.606 0 0 1-.093.313 1.35 1.35 0 0 0-.125.25l-.688 5.468c.417.563.625.959.625 1.188 0 .146-.062.24-.187.281-.104.02-.292.042-.563.063l-8.406.53.031.22v.093c0 .375-.166.563-.5.563-.291 0-.604-.104-.937-.313-.313-.208-.469-.52-.469-.937v-.156a8.18 8.18 0 0 0 .031-.876v-.437l-.375-4.844a4.46 4.46 0 0 0-.437-1.718c-.125-.334-.188-.532-.188-.594ZM119 64.469l7.531-.469.188-1.906-7.875.531.156 1.844Zm.25 3.531 6.906-.406.219-2.031-7.281.437.156 2Zm69.094 4.281c-.334 0-.532-.166-.594-.5-.125-.354-.458-.791-1-1.312l.094-.125c.083.041.323.146.718.312.396.146.667.219.813.219h.281a.609.609 0 0 0 .219-.156c.25-.188.563-.615.937-1.281.271-.542.511-1.178.719-1.907.229-.729.344-1.281.344-1.656 0-.104-.083-.156-.25-.156l-1.187.062-.813.063-.531.031-.219.031c.146.104.24.198.281.281a.336.336 0 0 1 .094.25c0 .105-.125.396-.375.876-.208.458-.542.979-1 1.562-.375.5-.885 1.042-1.531 1.625-.625.563-1.094.854-1.406.875a.59.59 0 0 1-.188-.031.21.21 0 0 1-.062-.156c0-.021.166-.22.5-.594l.874-1.031c.626-.834 1.261-1.896 1.907-3.188.062-.167.031-.26-.094-.281-.125.02-.385.052-.781.094-.396.02-.75.083-1.063.187-.021 0-.093.031-.219.094a1.023 1.023 0 0 1-.312.062.422.422 0 0 1-.312-.125l-.25-.219c-.188-.145-.282-.28-.282-.406 0-.041.021-.104.063-.187l.156-.25c.083-.104.219-.271.406-.5.188-.23.396-.542.625-.938.042-.083.125-.27.25-.562.146-.292.219-.469.219-.532v-.124c0-.126.021-.209.063-.25.041-.042.135-.042.281 0 .146.041.323.156.531.343l.344.344a.302.302 0 0 1 .094.219c0 .208-.292.583-.876 1.125a3.58 3.58 0 0 0-.374.469c-.146.208-.219.343-.219.406 0 .125.093.166.281.125l.719-.094c1.646-.25 2.885-.396 3.719-.438l.843-.124.281-.063.157-.031c.166 0 .281.02.343.062a.667.667 0 0 1 .188.219c.062.083.125.156.188.219.145.166.25.312.312.437l.062.281-.062.126-.062.187a1.769 1.769 0 0 0-.094.313 2.198 2.198 0 0 1-.094.28c-.438 1.688-.948 3-1.531 3.938-.188.334-.511.667-.969 1-.438.334-.823.5-1.156.5ZM184.281 82.5c-.312 0-.552-.083-.719-.25-.187-.188-.281-.354-.281-.5 0-.146.084-.302.25-.469a8.85 8.85 0 0 0 .344-.5A39.98 39.98 0 0 0 185.438 78c.604-1.146.979-1.927 1.124-2.344.126-.396.24-.74.344-1.031.125-.292.229-.438.313-.438a.51.51 0 0 1 .375.157c.104.083.208.208.312.375.125.146.219.25.282.312.145.167.218.323.218.469a.497.497 0 0 1-.125.313 1.606 1.606 0 0 0-.156.218l-1.375 2.313a63.936 63.936 0 0 1-1.406 2.406.497.497 0 0 0-.125.313c0 .083.093.124.281.124.396 0 1.135-.041 2.219-.124 1.083-.105 1.812-.188 2.187-.25.542-.063.917-.126 1.125-.188.229-.063.563.094 1 .469.521.437.636.719.344.844-.167.083-.49.124-.969.124h-1.25c-.271 0-.698.021-1.281.063-.354 0-.75.01-1.187.031-.438.021-.803.042-1.094.063-.334.02-.979.083-1.938.187l-.375.094ZM157.438 61c0-.458-.126-.875-.376-1.25a.791.791 0 0 1-.124-.375c0-.146.104-.219.312-.219.292 0 .656.084 1.094.25.396.146.656.282.781.407.125.124.187.312.187.562l-.124 8c.583-.73 1.01-1.385 1.281-1.969.291-.604.448-1.073.469-1.406 0-.25.083-.375.25-.375.25 0 .562.188.937.563.375.354.563.656.563.906 0 .104-.146.396-.438.875-.292.479-.708 1.052-1.25 1.719a16.022 16.022 0 0 1-1.844 1.968c0 1.5-.146 2.98-.437 4.438a73.767 73.767 0 0 1 3 3.906c.875 1.23 1.312 1.969 1.312 2.219 0 .208-.166.437-.5.687-.333.25-.573.375-.719.375-.166 0-.354-.177-.562-.531-1-1.792-2-3.333-3-4.625-.5 1.73-1.177 3.281-2.031 4.656-.854 1.375-1.688 2.459-2.5 3.25-.792.813-1.323 1.219-1.594 1.219-.125 0-.187-.063-.187-.188 0-.208.156-.52.468-.937 1.604-2.146 2.823-4.396 3.656-6.75.834-2.375 1.261-4.917 1.282-7.625l.094-9.75Zm-4.282 5.438c0-.417.344-.626 1.032-.626.187 0 .322.053.406.157.083.104.156.291.218.562.438 1.771.75 3.667.938 5.688v.25c0 .562-.396.844-1.188.844-.208 0-.354-.063-.437-.188-.083-.125-.135-.323-.156-.594-.167-2.396-.417-4.27-.75-5.625a4.07 4.07 0 0 1-.063-.469Zm7.406 7.906c0-.23.219-.563.657-1a34.587 34.587 0 0 0 4.656-5.938c-.729-.666-1.625-1.364-2.687-2.094-.209-.145-.313-.312-.313-.5 0-.166.063-.354.187-.562.209-.313.407-.469.594-.469.146 0 .427.146.844.438.438.27 1.177.833 2.219 1.687.666-1.25 1.146-2.416 1.437-3.5l-3.312.313c-.5.041-.802.062-.906.062-.376 0-.678-.104-.907-.312a2.249 2.249 0 0 1-.5-.719c-.104-.27-.156-.458-.156-.563 0-.104.073-.156.219-.156l.187.032c.334.041.573.062.719.062l.688-.031 4.812-.375.406-.032c.313 0 .584.084.813.25.25.167.375.386.375.657 0 .125-.156.583-.469 1.375-.313.791-.76 1.74-1.344 2.843a26.458 26.458 0 0 1-2.093 3.313c.416.042.729.063.937.063H168l4.125-.25a3.626 3.626 0 0 0 1.063-.25c.124-.042.208-.063.25-.063.166 0 .427.177.781.531.354.334.531.625.531.875 0 .209-.177.334-.531.375h-.094l-5.719.313-.781.031c-.604 0-1.031-.385-1.281-1.156-1.417 1.833-2.938 3.312-4.563 4.437-.083.042-.135.084-.156.125-.417.23-.708.344-.875.344-.125 0-.188-.052-.188-.156Zm.813 9.437c0-.146.052-.219.156-.219l.188.032c.479.125.979.187 1.5.187l8.187-.219c.5-.645.99-1.385 1.469-2.218.5-.854.771-1.615.813-2.281 0-.334.093-.5.281-.5.25 0 .614.187 1.093.562.48.354.719.656.719.906 0 .23-.323.76-.969 1.594-.624.833-1.145 1.458-1.562 1.875l4.781-.125c.396 0 .771-.063 1.125-.188a.54.54 0 0 1 .219-.03c.292 0 .656.187 1.094.562.437.375.656.656.656.844 0 .312-.281.49-.844.53l-16.25.407-.875.031c-.416 0-.791-.094-1.125-.281-.333-.188-.552-.615-.656-1.281v-.188Zm3.375-11.125c0-.125.125-.187.375-.187.354 0 1.01.146 1.969.437l8.094-.375c.312 0 .583.063.812.188.229.125.396.27.5.437.125.167.188.292.188.375a.745.745 0 0 1-.094.313 1.052 1.052 0 0 0-.125.281l-.5 2.563c.479.541.719.916.719 1.124 0 .188-.24.303-.719.344l-8.281.313v.094c0 .333-.178.5-.532.5-.25 0-.552-.073-.906-.22-.354-.145-.531-.395-.531-.75v-.156c.041-.291.062-.562.062-.812 0-.167-.01-.292-.031-.375l-.312-2.406c-.063-.438-.24-.875-.532-1.313-.104-.146-.156-.27-.156-.375Zm1.906 7.469c0-.146.115-.333.344-.563.25-.25.469-.374.656-.374.271 0 1.094.895 2.469 2.687.104.167.156.313.156.438 0 .25-.156.49-.469.718-.291.23-.541.344-.75.344-.208 0-.406-.177-.593-.531-.438-.75-.99-1.531-1.657-2.344a.512.512 0 0 1-.156-.375Zm.844-3.188 6.594-.312.344-2.469-7.188.313.25 2.469Zm2.812-13.75c0-.166.126-.333.376-.5.25-.166.458-.25.624-.25.126 0 .261.084.407.25.146.146.385.48.719 1 1.145-.937 1.927-1.656 2.343-2.156.417-.52.688-1.01.813-1.468.062-.271.177-.407.344-.407.187 0 .468.177.843.532.375.333.563.635.563.906 0 .229-.365.698-1.094 1.406-.708.688-1.688 1.49-2.938 2.406.584.75 1.042 1.313 1.376 1.688 1.958-1.521 3.02-2.677 3.187-3.469.063-.27.177-.406.344-.406.229 0 .51.187.843.562.313.334.469.625.469.875 0 .271-.427.781-1.281 1.531a25.525 25.525 0 0 1-2.562 2.032c1.666 1.666 3.416 3.083 5.25 4.25.333.208.5.385.5.531 0 .208-.178.448-.532.719-.354.27-.656.406-.906.406a.831.831 0 0 1-.5-.188c-1.792-1.395-3.385-2.822-4.781-4.28-1.375-1.48-2.459-2.772-3.25-3.876-.771-1.125-1.157-1.823-1.157-2.094Zm66.219 5.063c-.333 0-.541-.094-.625-.281a4.346 4.346 0 0 0-.312-.625c-.104-.188-.292-.406-.563-.656l.063-.126c.75.271 1.239.407 1.468.407.167 0 .292-.031.376-.094.083-.063.218-.208.406-.438.271-.291.521-.74.75-1.343.312-.896.51-1.823.594-2.781v-.094c0-.125-.021-.209-.063-.25-.271 0-.99.062-2.156.187-.646 1.604-1.396 2.927-2.25 3.969-.834 1.02-1.594 1.531-2.281 1.531-.167 0-.25-.062-.25-.187 0-.042.208-.281.624-.719.417-.438.876-1.01 1.376-1.719.52-.729 1.01-1.625 1.468-2.687-.104 0-.406.02-.906.062a6.51 6.51 0 0 0-1.281.219.495.495 0 0 1-.531.063l-.063-.032a.488.488 0 0 1-.125-.093 1.359 1.359 0 0 1-.375-.313.831.831 0 0 1-.125-.406c0-.063.052-.146.156-.25l.375-.5c.125-.167.24-.407.344-.719.104-.333.156-.615.156-.844 0-.146-.01-.24-.031-.281a.346.346 0 0 1-.031-.156c0-.104.052-.157.156-.157.125 0 .302.073.531.22.063.04.177.124.344.25.188.103.292.228.312.374 0 .146-.083.386-.25.719l-.406.719a.39.39 0 0 0-.062.218c0 .063.021.115.062.157a.39.39 0 0 0 .219 0l1.875-.25a11.01 11.01 0 0 0 .5-1.719v-.718c0-.23.062-.324.188-.282.27.063.489.146.656.25.312.188.468.344.468.469 0 .104-.041.281-.124.531-.063.23-.115.406-.157.531-.021.084-.114.354-.281.813.062 0 .448-.042 1.156-.125l.313-.063c.062 0 .177-.02.343-.062a.35.35 0 0 1 .157-.032c.25 0 .406.01.469.032.083.02.208.083.374.187.188.125.313.25.376.375.062.125.083.271.062.438L239.812 63l-.218 1.125c0 .083-.073.354-.219.813a7.464 7.464 0 0 1-.5 1.218c-.354.709-.771 1.24-1.25 1.594-.417.333-.781.5-1.094.5Zm2.657 8.344c-.313 0-.615-.23-.907-.688a9.905 9.905 0 0 0-1.093-1.437l-.813-.844c-.437.5-.823.896-1.156 1.188a6.25 6.25 0 0 1-1.188.843c-.896.521-1.646.781-2.25.781-.146 0-.219-.052-.219-.156 0-.062.198-.198.594-.406a6.591 6.591 0 0 0 1.125-.75c.896-.75 1.636-1.52 2.219-2.313-.125-.124-.75-.666-1.875-1.624a10.426 10.426 0 0 1-.656-.532 7.616 7.616 0 0 1-.375-.281c-.188-.146-.282-.25-.282-.313 0-.104.053-.156.157-.156.312 0 .812.219 1.5.656.687.417 1.406.917 2.156 1.5.292-.354.521-.687.687-1 .167-.312.355-.697.563-1.156.104-.229.167-.427.187-.594a4.83 4.83 0 0 0 .032-.343c0-.23.062-.344.187-.344.146 0 .344.115.594.344.437.416.656.698.656.844 0 .083-.052.177-.156.28-.25.25-.479.584-.687 1-.126.25-.355.605-.688 1.063a2.76 2.76 0 0 0-.25.344 3.062 3.062 0 0 1-.188.281c.48.354 1.188.959 2.126 1.813.229.208.374.406.437.594.083.166.125.395.125.687a.89.89 0 0 1-.156.531.504.504 0 0 1-.406.188Zm-6.907 9.344c-.312 0-.552-.084-.719-.25-.187-.188-.281-.355-.281-.5 0-.146.084-.303.25-.47.021-.02.136-.187.344-.5.458-.728.979-1.656 1.563-2.78.604-1.146.979-1.928 1.124-2.344.126-.396.24-.74.344-1.031.125-.292.229-.438.313-.438.146 0 .271.052.375.156.104.084.208.209.312.375.125.146.219.25.282.313.145.166.218.323.218.469a.497.497 0 0 1-.125.312 1.598 1.598 0 0 0-.156.219l-1.375 2.312a63.849 63.849 0 0 1-1.406 2.406.497.497 0 0 0-.125.313c0 .083.093.125.281.125.396 0 1.135-.052 2.219-.156 1.083-.084 1.812-.156 2.187-.219.542-.063.917-.125 1.125-.188.229-.062.563.094 1 .47.521.437.636.718.344.843-.167.083-.49.125-.969.125h-1.25c-.271 0-.698.02-1.281.063-.354 0-.75.01-1.187.03-.438.022-.803.042-1.094.063-.334.021-.979.084-1.938.188l-.375.094Zm13.281-13.782c.25 0 .376.115.376.344 0 .125-.115.302-.344.531-.625.771-1.865 2.24-3.719 4.406-.146.188-.281.282-.406.282-.104 0-.334-.156-.688-.469-.291-.25-.437-.458-.437-.625 0-.188.156-.365.468-.531.48-.271 1.198-.813 2.157-1.625.958-.854 1.666-1.531 2.125-2.031.187-.188.344-.282.468-.282Zm-16.781 8.625c0 .896-.041 1.813-.125 2.75-.062.625-.25 1.104-.562 1.438-.292.354-.917.625-1.875.812-.959.188-2.427.281-4.407.281-1.604 0-2.791-.052-3.562-.156-.771-.083-1.375-.333-1.812-.75-.438-.416-.657-1.083-.657-2v-.094l.157-9.468c0-.563-.105-1.084-.313-1.563a1.202 1.202 0 0 1-.063-.156.614.614 0 0 1-.031-.188c0-.083.063-.124.188-.124.312 0 1.021.24 2.125.718l4.937-.187.375-1.719-5.125.25c-.187.02-.343.042-.469.063-.124.02-.229.03-.312.03-.188 0-.438-.103-.75-.312-.312-.229-.469-.469-.469-.719 0-.083.011-.156.031-.218a.616.616 0 0 0 .063-.281l.344-3.063.031-.313c0-.437-.135-.854-.406-1.25-.063-.104-.094-.177-.094-.218 0-.125.125-.188.375-.188.437 0 .854.094 1.25.281.417.167.625.417.625.75v.094l-.094 1 4.938-.25a9.32 9.32 0 0 0 1.531-.187 2.63 2.63 0 0 1 .437-.063c.25 0 .48.084.688.25.208.167.375.354.5.563.146.187.219.312.219.375 0 .208-.229.333-.688.375L218 67.75l-.125 1.438 5.781-.313.375-.031c.334 0 .625.135.875.406.271.27.406.48.406.625 0 .125-.041.24-.124.344a.907.907 0 0 0-.157.25l-.5 1.531c.521.604.781 1.01.781 1.219 0 .104-.052.177-.156.219-.104.02-.312.041-.625.062l-6.812.25-.063 1.5 4.219-.125a6.571 6.571 0 0 0 1.469-.219c.125-.041.229-.062.312-.062.271 0 .584.146.938.437.354.271.531.521.531.75 0 .125-.052.23-.156.313-.084.062-.209.094-.375.094h-.094l-6.875.25-.031 1.406 4.468-.125c.626-.021 1.126-.094 1.5-.219.126-.042.23-.063.313-.063.292 0 .615.146.969.438.375.292.562.552.562.781 0 .104-.062.198-.187.281a1.127 1.127 0 0 1-.5.094l-7.188.219-.031 1.438 5.094-.157c.5-.02.989-.083 1.468-.187.25-.042.407-.063.469-.063.271 0 .563.156.875.469.334.292.5.552.5.781 0 .271-.229.406-.687.406l-7.781.22v.218c0 .583.104 1 .312 1.25.208.23.562.365 1.062.406.5.063 1.396.094 2.688.094 1.479 0 2.812-.083 4-.25.417-.063.74-.177.969-.344.229-.166.448-.541.656-1.125.208-.583.417-1.5.625-2.75.083-.416.177-.74.281-.969.104-.25.209-.374.313-.374.125 0 .229.124.312.374.084.25.125.594.125 1.032v.812ZM201 71.72c0-.104.083-.156.25-.156.583.104 1.042.156 1.375.156h.281l3.782-.219c-.146-.02-.282-.167-.407-.438-.166-.312-.5-.822-1-1.53a1.99 1.99 0 0 1-.156-.188.53.53 0 0 1-.094-.25c0-.167.094-.313.281-.438l.282-.219.094-.062-.782.063c-.229.02-.5.03-.812.03-.396 0-.698-.093-.906-.28-.209-.209-.396-.51-.563-.907v-.125c0-.125.063-.187.187-.187l.157.031c.5.083.854.125 1.062.125h.281l4.188-.281a13.836 13.836 0 0 0-1.875-1.219c-.354-.146-.531-.313-.531-.5 0-.104.062-.27.187-.5.125-.23.281-.344.469-.344.062 0 .365.115.906.344.542.23 1.032.49 1.469.781.437.271.656.531.656.781a.951.951 0 0 1-.219.594l1.907-.125c.5-.02.979-.083 1.437-.187.209-.042.354-.063.438-.063.291 0 .583.146.875.438.312.27.469.479.469.625 0 .208-.23.333-.688.375l-3.062.187c.395.271.666.48.812.625.146.125.219.24.219.344 0 .104-.146.375-.438.813-.291.437-.687.937-1.187 1.5l1.781-.094c.187-.021.594-.094 1.219-.219.083-.02.198-.031.344-.031.291 0 .541.083.75.25.229.146.395.312.5.5.124.187.187.312.187.375 0 .208-.177.333-.531.375l-11.375.625h-.469c-.396 0-.729-.063-1-.188-.25-.146-.49-.49-.719-1.031l-.031-.156Zm.312-5.406c0-.188.198-.438.594-.75a23.311 23.311 0 0 0 2.938-2.532c.896-.896 1.594-1.718 2.094-2.468.52-.771.791-1.365.812-1.782 0-.312.083-.468.25-.468.104 0 .302.083.594.25.291.145.552.322.781.53.229.21.344.397.344.563 0 .063-.031.136-.094.219a1.515 1.515 0 0 0-.094.156l-1.031 1.375 4.25-.312c.271-.021.635-.094 1.094-.219a1.22 1.22 0 0 1 .406-.094c.312 0 .625.146.938.438.312.291.468.541.468.75 0 .229-.239.364-.718.406l-4.5.281c.479.25 1 .584 1.562 1 .562.396.844.709.844.938 0 .166-.115.375-.344.625-.208.25-.406.375-.594.375-.125 0-.302-.115-.531-.344-.437-.458-1.063-.969-1.875-1.531-.188-.167-.281-.313-.281-.438 0-.166.114-.354.343-.562l-2.437.156a19.441 19.441 0 0 1-2.281 1.906c-.771.563-1.459 1-2.063 1.313-.604.291-1 .437-1.187.437-.188 0-.282-.073-.282-.219Zm.813 20.093c0-.208.052-.416.156-.625.459-1.02.802-1.896 1.031-2.625.23-.75.396-1.635.5-2.656.126-1.02.188-2.354.188-4 0-1.146-.052-1.865-.156-2.156-.125-.167-.188-.302-.188-.406 0-.042.032-.084.094-.126a.335.335 0 0 1 .188-.062c.562 0 1.166.177 1.812.531l5.812-.344.282-.03c.271 0 .552.135.844.406.312.25.468.468.468.656 0 .104-.041.229-.125.375-.062.146-.093.25-.093.312l-.032 8.156a8 8 0 0 0 .032.782c.02.229.031.427.031.594 0 .52-.177.895-.531 1.124-.334.23-.646.344-.938.344-.354 0-.885-.25-1.594-.75a14.626 14.626 0 0 1-1.968-1.594c-.584-.583-.876-.979-.876-1.187 0-.125.073-.188.219-.188.167 0 .365.073.594.22 1.125.603 2.198 1.051 3.219 1.343l.031-4.125c-.667.417-1.552.823-2.656 1.219-1.084.375-1.865.562-2.344.562-.354 0-.646-.177-.875-.531-.354 1.5-.823 2.698-1.406 3.594-.563.916-1.073 1.385-1.532 1.406-.124 0-.187-.073-.187-.219Zm3.406-6.031c.417 0 .875-.042 1.375-.125l.938-.188c.354-.083.844-.187 1.468-.312.646-.146 1.261-.27 1.844-.375l.032-4-5.438.313-.031.968a1.09 1.09 0 0 1 .312-.031c.146 0 .271.01.375.031 1.542.25 2.656.469 3.344.656.458.126.688.376.688.75a1.152 1.152 0 0 1-.25.594.683.683 0 0 1-.563.281c-.187 0-.469-.072-.844-.218-.666-.23-1.635-.459-2.906-.688l-.187-.062c0 .937-.053 1.719-.157 2.344v.062Zm.5-12c.167.02.396.198.688.531.291.313.562.656.812 1.031.25.376.375.615.375.72 0 .166-.104.333-.312.5-.188.145-.375.26-.563.343l1.75-.094c.854-1.312 1.281-2.302 1.281-2.969 0-.145-.01-.26-.031-.343l-4 .281Zm8-3.594c0-.187.146-.427.438-.719 1-1 1.875-2.052 2.625-3.156s1.125-1.927 1.125-2.468c0-.292.083-.438.25-.438.125 0 .323.083.593.25.292.146.542.323.75.531.23.209.344.407.344.594a.556.556 0 0 1-.094.281c-.541.75-.843 1.167-.906 1.25l5.5-.375a4.529 4.529 0 0 0 1.063-.218c.125-.042.208-.063.25-.063.312 0 .625.156.937.469.313.291.469.531.469.718 0 .209-.208.334-.625.376l-5.688.374c1.084.605 1.803 1.053 2.157 1.344.375.271.562.48.562.625 0 .146-.104.354-.312.625-.188.271-.386.406-.594.406-.125 0-.292-.083-.5-.25a23.54 23.54 0 0 0-2.219-1.562c-.25-.188-.375-.344-.375-.469 0-.166.104-.385.313-.656l-2.25.156a18.628 18.628 0 0 1-2.063 1.782c-.729.541-1.229.812-1.5.812-.166 0-.25-.073-.25-.219Z"/></svg>