<svg width="350" height="88" viewBox="0 0 350 88" fill="none" xmlns="http://www.w3.org/2000/svg">
<path d="M132.426 16.5664C131.652 16.2852 131.289 15.9805 131.336 15.6523C131.477 14.668 131.547 13.543 131.547 12.2773C131.547 11.7148 131.535 11.3047 131.512 11.0469C131.488 10.7422 131.465 10.4844 131.441 10.2734C131.418 10.0391 131.418 9.91016 131.441 9.88672C131.535 9.79297 131.652 9.74609 131.793 9.74609C132.004 9.74609 132.262 9.83984 132.566 10.0273C132.895 10.2148 133.059 10.4023 133.059 10.5898C133.059 10.707 133.047 10.8242 133.023 10.9414C133 11.0352 132.988 11.1406 132.988 11.2578L132.777 14.7383C132.777 14.9258 132.848 15.043 132.988 15.0898H133.164C133.352 15.0898 133.48 15.0781 133.551 15.0547L138.086 14.4219V13.5078C138.086 12.3594 138.062 11.4688 138.016 10.8359C137.992 10.2969 137.934 9.86328 137.84 9.53516C137.77 9.16016 137.863 8.97266 138.121 8.97266C138.309 8.97266 138.555 9.04297 138.859 9.18359C139.234 9.37109 139.457 9.53516 139.527 9.67578C139.598 9.79297 139.621 9.98047 139.598 10.2383C139.551 10.6602 139.527 11.293 139.527 12.1367L139.562 14.8086C139.562 15.3711 139.457 15.8164 139.246 16.1445C139.129 16.2852 139.012 16.3555 138.895 16.3555C138.777 16.3555 138.613 16.25 138.402 16.0391C138.355 15.9922 138.297 15.9219 138.227 15.8281C138.156 15.7344 138.086 15.6758 138.016 15.6523C137.945 15.6289 137.852 15.6172 137.734 15.6172C137.195 15.6641 135.895 15.8398 133.832 16.1445C133.48 16.1914 133.199 16.2852 132.988 16.4258C132.754 16.543 132.602 16.6016 132.531 16.6016L132.426 16.5664ZM136.891 24.125C136.656 24.4297 136.41 24.582 136.152 24.582C136.082 24.582 136.047 24.5234 136.047 24.4062C136.047 24.2422 136.094 24.0547 136.188 23.8438C136.188 23.8438 136.422 23.375 136.891 22.4375C136.914 22.3438 136.949 22.25 136.996 22.1562C137.043 22.0625 137.078 21.9805 137.102 21.9102V21.875C137.102 21.8281 137.066 21.7812 136.996 21.7344C136.926 21.6875 136.844 21.6758 136.75 21.6992C136.375 21.7227 135.812 21.7812 135.062 21.875C134.336 21.9688 133.797 22.0625 133.445 22.1562C133.305 22.2031 133.129 22.2617 132.918 22.332C132.73 22.4023 132.578 22.4375 132.461 22.4375C132.039 22.4375 131.688 22.3086 131.406 22.0508C131.172 21.8867 130.996 21.7227 130.879 21.5586L130.809 21.3828C130.809 21.2656 131.008 21.2305 131.406 21.2773C131.945 21.3242 133.059 21.2539 134.746 21.0664L135.449 20.9609C135.637 20.9375 135.93 20.9023 136.328 20.8555C136.75 20.7852 137.078 20.7148 137.312 20.6445C137.383 20.6211 137.453 20.5977 137.523 20.5742C137.617 20.5273 137.699 20.5039 137.77 20.5039C137.887 20.5039 138.027 20.5625 138.191 20.6797C138.379 20.7969 138.531 20.9023 138.648 20.9961C138.812 21.1133 138.918 21.2188 138.965 21.3125C139.035 21.3828 139.059 21.4766 139.035 21.5938C139.035 21.7109 138.977 21.8164 138.859 21.9102C138.742 22.0039 138.66 22.0742 138.613 22.1211C138.566 22.1914 138.402 22.3672 138.121 22.6484C138.004 22.8359 137.793 23.0938 137.488 23.4219C137.207 23.75 137.008 23.9844 136.891 24.125ZM135.133 31.0508C135.133 30.9805 135.25 30.8047 135.484 30.5234C135.742 30.2188 135.941 29.9844 136.082 29.8203C136.434 29.3516 136.855 28.6719 137.348 27.7812C137.863 26.8906 138.156 26.3047 138.227 26.0234C138.273 25.8828 138.203 25.8125 138.016 25.8125C137.641 25.8125 136.609 25.918 134.922 26.1289C133.82 26.2695 133 26.4102 132.461 26.5508C132.344 26.6211 132.227 26.6562 132.109 26.6562C131.922 26.6562 131.723 26.5273 131.512 26.2695C131.418 26.1055 131.371 25.9531 131.371 25.8125C131.371 25.7188 131.43 25.625 131.547 25.5312L131.652 25.3906C131.723 25.25 131.805 25.0625 131.898 24.8281C131.992 24.5938 132.074 24.3711 132.145 24.1602C132.262 23.7852 132.344 23.375 132.391 22.9297C132.414 22.6719 132.555 22.6016 132.812 22.7188C133.141 22.8828 133.387 23.0469 133.551 23.2109C133.738 23.3516 133.797 23.457 133.727 23.5273C133.492 23.8086 133.305 24.125 133.164 24.4766C133.047 24.8516 132.977 25.0977 132.953 25.2148C132.953 25.3086 133.012 25.3555 133.129 25.3555C133.48 25.3555 134.008 25.2969 134.711 25.1797C135.109 25.1328 135.602 25.0742 136.188 25.0039C136.773 24.9336 137.242 24.8633 137.594 24.793L138.473 24.6172C138.543 24.5938 138.637 24.582 138.754 24.582C138.871 24.582 138.988 24.6289 139.105 24.7227C139.223 24.793 139.352 24.8867 139.492 25.0039C139.727 25.2148 139.879 25.3906 139.949 25.5312C140.02 25.6484 140.055 25.7891 140.055 25.9531C140.055 26.0469 139.984 26.1641 139.844 26.3047C139.727 26.4453 139.586 26.668 139.422 26.9727C138.742 28.3555 137.863 29.5156 136.785 30.4531C136.48 30.6875 136.141 30.8867 135.766 31.0508C135.602 31.0977 135.449 31.1328 135.309 31.1562C135.191 31.1562 135.133 31.1211 135.133 31.0508ZM146.383 14.8086C146.664 14.8086 146.805 14.9375 146.805 15.1953C146.805 15.3359 146.676 15.5352 146.418 15.793C145.715 16.6602 144.32 18.3125 142.234 20.75C142.07 20.9609 141.918 21.0664 141.777 21.0664C141.66 21.0664 141.402 20.8906 141.004 20.5391C140.676 20.2578 140.512 20.0234 140.512 19.8359C140.512 19.625 140.688 19.4258 141.039 19.2383C141.578 18.9336 142.387 18.3242 143.465 17.4102C144.543 16.4492 145.34 15.6875 145.855 15.125C146.066 14.9141 146.242 14.8086 146.383 14.8086ZM104.512 9.88672C104.254 9.91016 103.926 9.92188 103.527 9.92188H103.176C102.848 9.875 102.613 9.81641 102.473 9.74609C102.238 9.58203 101.992 9.3125 101.734 8.9375C101.477 8.53906 101.348 8.21094 101.348 7.95312C101.348 7.78906 101.418 7.70703 101.559 7.70703C101.652 7.70703 101.734 7.71875 101.805 7.74219C102.227 7.85938 102.742 7.91797 103.352 7.91797H103.809L117.52 7.03906C118.059 6.99219 118.586 6.88672 119.102 6.72266C119.148 6.69922 119.23 6.6875 119.348 6.6875C119.652 6.6875 120.051 6.92187 120.543 7.39062C121.059 7.85938 121.316 8.21094 121.316 8.44531C121.316 8.72656 121.023 8.89062 120.438 8.9375L104.512 9.88672ZM94.9492 34.6719C94.9492 34.4609 95.2188 34.2031 95.7578 33.8984C97.8203 32.7031 99.543 31.4023 100.926 29.9961C102.332 28.5898 103.492 26.9141 104.406 24.9688C105.32 23 106.059 20.6211 106.621 17.832L100.469 18.1484C100.141 18.1719 99.7422 18.1836 99.2734 18.1836C98.9688 18.1836 98.7227 18.1602 98.5352 18.1133C98.3477 18.0664 98.1719 17.9609 98.0078 17.7969C97.7031 17.4922 97.4688 17.1641 97.3047 16.8125C97.1406 16.4609 97.0586 16.2266 97.0586 16.1094C97.0586 15.9688 97.1641 15.8984 97.375 15.8984H97.5859C98.0312 16.0391 98.5703 16.1094 99.2031 16.1094H99.5547L121.738 14.9844C122.324 14.9375 122.863 14.832 123.355 14.668C123.496 14.6211 123.59 14.5977 123.637 14.5977C123.918 14.5977 124.328 14.832 124.867 15.3008C125.406 15.7695 125.676 16.1562 125.676 16.4609C125.676 16.7188 125.395 16.8711 124.832 16.918L115.199 17.4102L114.988 29.5391V29.6445C114.988 30.2305 115.129 30.6641 115.41 30.9453C115.691 31.2031 116.09 31.3672 116.605 31.4375C117.145 31.5078 117.918 31.543 118.926 31.543C120.332 31.543 121.574 31.4258 122.652 31.1914C123.051 31.1211 123.379 30.8984 123.637 30.5234C123.895 30.1484 124.141 29.4922 124.375 28.5547C124.609 27.6172 124.855 26.2344 125.113 24.4062C125.184 23.9375 125.277 23.5742 125.395 23.3164C125.535 23.0352 125.676 22.8945 125.816 22.8945C126.074 22.8945 126.227 23.1758 126.273 23.7383C126.344 24.3008 126.379 25.0625 126.379 26.0234C126.379 27.5 126.309 29.0117 126.168 30.5586C126.098 31.332 125.887 31.9414 125.535 32.3867C125.207 32.8555 124.539 33.2188 123.531 33.4766C122.547 33.7578 121.082 33.8984 119.137 33.8984C117.777 33.8984 116.664 33.8281 115.797 33.6875C114.93 33.5703 114.191 33.2305 113.582 32.668C112.973 32.1289 112.668 31.2617 112.668 30.0664V29.9609L112.879 17.5156L109.152 17.7266C108.215 22.5078 106.715 26.2344 104.652 28.9062C102.613 31.5547 99.7422 33.4883 96.0391 34.707C95.7578 34.8008 95.5 34.8477 95.2656 34.8477C95.0547 34.8477 94.9492 34.7891 94.9492 34.6719ZM189.414 13.9297C189.273 13.9297 189.086 13.7773 188.852 13.4727C188.617 13.1445 188.512 12.8633 188.535 12.6289C188.582 12.4414 188.617 11.9141 188.641 11.0469C188.664 10.4609 188.676 9.42969 188.676 7.95312C188.676 6.92187 188.664 6.23047 188.641 5.87891L187.48 5.98438C186.66 6.10156 185.957 6.16016 185.371 6.16016C185.207 6.16016 184.973 6.03125 184.668 5.77344C184.363 5.51562 184.211 5.32813 184.211 5.21094C184.211 5.02344 184.41 4.95312 184.809 5C185.066 5.02344 185.828 5.01172 187.094 4.96484C188.828 4.84766 190.082 4.77734 190.855 4.75391C191.254 4.73047 191.617 4.69531 191.945 4.64844C192.297 4.57812 192.543 4.53125 192.684 4.50781C192.895 4.48438 193.082 4.50781 193.246 4.57812C193.41 4.64844 193.562 4.74219 193.703 4.85938C193.867 4.95312 193.996 5.02344 194.09 5.07031C194.301 5.21094 194.406 5.33984 194.406 5.45703C194.406 5.55078 194.348 5.64453 194.23 5.73828C194.137 5.80859 194.031 5.84375 193.914 5.84375C193.797 5.84375 193.633 5.83203 193.422 5.80859C193.234 5.78516 193.023 5.77344 192.789 5.77344C191.922 5.77344 191.031 5.79687 190.117 5.84375C190.094 6.03125 190.082 6.5 190.082 7.25C190.035 8.51562 190.012 9.75781 190.012 10.9766V12.3477V12.6641C190.012 13.0625 189.977 13.3203 189.906 13.4375C189.695 13.7656 189.531 13.9297 189.414 13.9297ZM185.652 20.1523C185.395 20.1523 185.078 19.9531 184.703 19.5547C184.422 19.2734 184.281 19.0625 184.281 18.9219C184.281 18.8516 184.328 18.8164 184.422 18.8164C184.516 18.793 184.633 18.7812 184.773 18.7812L185.547 18.7461C185.992 18.7461 186.285 18.7344 186.426 18.7109C186.871 18.7109 187.246 18.6992 187.551 18.6758C189.566 18.4883 190.926 18.3359 191.629 18.2188C191.98 18.1719 192.297 18.125 192.578 18.0781C192.859 18.0078 193.082 17.9727 193.246 17.9727C193.574 17.9727 193.902 18.1367 194.23 18.4648C194.488 18.7227 194.617 18.9336 194.617 19.0977C194.617 19.2383 194.535 19.332 194.371 19.3789C194.254 19.4023 193.562 19.4492 192.297 19.5195C191.594 19.543 190.727 19.6016 189.695 19.6953C188.664 19.7891 187.762 19.8828 186.988 19.9766C186.848 20 186.648 20.0352 186.391 20.082C186.133 20.1289 185.887 20.1523 185.652 20.1523ZM193.211 32.2812C193.258 32.375 193.34 32.5156 193.457 32.7031C193.574 32.8906 193.633 33.1133 193.633 33.3711C193.633 33.6055 193.539 33.793 193.352 33.9336C193.164 34.0977 192.953 34.1797 192.719 34.1797C192.508 34.1797 192.332 33.9688 192.191 33.5469C192.121 33.3828 192.062 33.2422 192.016 33.125C191.992 33.0312 191.969 32.9492 191.945 32.8789C191.641 32.9727 191.242 33.0547 190.75 33.125C190.258 33.1953 189.906 33.2539 189.695 33.3008C188.57 33.5117 187.797 33.6641 187.375 33.7578C187.211 33.8047 187.035 33.8516 186.848 33.8984C186.66 33.9688 186.555 34.0156 186.531 34.0391C186.391 34.0859 186.285 34.1094 186.215 34.1094C186.027 34.1094 185.852 34.0273 185.688 33.8633C185.406 33.6523 185.195 33.3711 185.055 33.0195C185.031 32.9961 185.02 32.9609 185.02 32.9141C185.02 32.8672 185.078 32.8086 185.195 32.7383C185.336 32.668 185.441 32.6211 185.512 32.5977C185.816 32.4336 186.355 31.9414 187.129 31.1211L188.078 30.207L186.004 29.082C185.77 29.0117 185.617 28.9297 185.547 28.8359C185.477 28.7422 185.441 28.6016 185.441 28.4141C185.441 28.2734 185.465 28.1797 185.512 28.1328C185.582 28.0625 185.723 27.957 185.934 27.8164C186.145 27.6758 186.355 27.4883 186.566 27.2539C186.684 27.1133 186.836 26.9609 187.023 26.7969C187.211 26.6328 187.387 26.457 187.551 26.2695C188.254 25.4492 188.699 24.8047 188.887 24.3359C189.004 24.1016 189.098 23.9844 189.168 23.9844C189.215 23.9844 189.309 24.0312 189.449 24.125C189.895 24.4531 190.164 24.7578 190.258 25.0391V25.1445C190.258 25.2617 190.199 25.3555 190.082 25.4258C189.965 25.4961 189.883 25.5547 189.836 25.6016C189.766 25.6484 189.414 25.9883 188.781 26.6211L188.148 27.2539C188.031 27.3711 187.832 27.5703 187.551 27.8516C187.27 28.1094 187.129 28.2617 187.129 28.3086C187.129 28.3789 187.164 28.4375 187.234 28.4844C187.328 28.5312 187.398 28.5781 187.445 28.625L188.922 29.3281C189.836 28.4141 190.363 27.875 190.504 27.7109C191.113 27.0078 191.453 26.5625 191.523 26.375C191.547 26.3516 191.582 26.293 191.629 26.1992C191.676 26.1055 191.723 26.0586 191.77 26.0586C191.84 26.0586 191.91 26.0938 191.98 26.1641C192.355 26.5156 192.625 26.8438 192.789 27.1484C192.836 27.2422 192.859 27.3008 192.859 27.3242C192.859 27.3711 192.801 27.4414 192.684 27.5352C192.59 27.6055 192.496 27.6758 192.402 27.7461C191.582 28.4258 190.621 29.3164 189.52 30.418L187.375 32.4219C187.328 32.4688 187.305 32.5156 187.305 32.5625C187.305 32.6094 187.328 32.6445 187.375 32.668C187.422 32.6914 187.492 32.6914 187.586 32.668L191.699 31.9648C191.582 31.4961 191.441 31.0273 191.277 30.5586V30.4883C191.277 30.418 191.312 30.3828 191.383 30.3828C191.477 30.3828 191.617 30.4531 191.805 30.5938C192.18 30.9219 192.648 31.4844 193.211 32.2812ZM159.391 19.6602L159.355 21.7344C159.496 21.7109 159.684 21.7109 159.918 21.7344C160.035 21.7109 160.141 21.7109 160.234 21.7344C160.328 21.7344 160.434 21.7344 160.551 21.7344C162.965 21.9453 165.883 22.2969 169.305 22.7891C169.68 22.8359 169.961 22.9531 170.148 23.1406C170.336 23.3281 170.43 23.5156 170.43 23.7031C170.359 24.4766 169.961 24.8281 169.234 24.7578C169 24.7109 168.555 24.6758 167.898 24.6523C167.852 24.6523 167.348 24.5703 166.387 24.4062C163.48 23.9375 161.418 23.6562 160.199 23.5625C159.754 23.5156 159.449 23.457 159.285 23.3867C159.215 24.8398 159.074 26.1172 158.863 27.2188H158.969C160.516 27.2188 162.391 27.1367 164.594 26.9727L165.719 26.8672C168.859 26.6328 171.203 26.4219 172.75 26.2344L172.68 19.0625L159.391 19.6602ZM151.621 13.7188C151.621 13.6016 151.656 13.4727 151.727 13.332C152.758 11.3633 153.543 9.20703 154.082 6.86328C154.129 6.60547 154.199 6.41797 154.293 6.30078C154.387 6.18359 154.527 6.125 154.715 6.125C154.996 6.125 155.312 6.21875 155.664 6.40625C156.016 6.57031 156.191 6.76953 156.191 7.00391C156.191 7.05078 156.168 7.19141 156.121 7.42578L155.945 8.19922L165.578 7.67188C165.133 7.10938 164.582 6.53516 163.926 5.94922C163.293 5.36328 162.93 5.02344 162.836 4.92969C162.719 4.83594 162.625 4.74219 162.555 4.64844C162.484 4.53125 162.473 4.41406 162.52 4.29688C162.566 4.0625 162.73 3.82812 163.012 3.59375C163.316 3.35938 163.551 3.26562 163.715 3.3125C163.879 3.33594 164.254 3.58203 164.84 4.05078C165.426 4.51953 166.211 5.24609 167.195 6.23047C167.547 6.51172 167.688 6.80469 167.617 7.10938C167.594 7.20312 167.5 7.36719 167.336 7.60156L178.199 7.00391L178.551 6.96875C178.879 6.96875 179.16 7.05078 179.395 7.21484C179.652 7.37891 179.852 7.56641 179.992 7.77734C180.133 7.98828 180.203 8.14063 180.203 8.23438C180.203 8.42188 180.098 8.60937 179.887 8.79688C179.699 8.96094 179.57 9.10156 179.5 9.21875C178.375 10.6953 177.461 11.7852 176.758 12.4883C176.055 13.1914 175.562 13.543 175.281 13.543C175.117 13.543 175.035 13.4492 175.035 13.2617C175.035 13.0039 175.164 12.6641 175.422 12.2422C176.125 11.0703 176.688 9.98047 177.109 8.97266L155.418 10.0273C154.949 11.5273 154.41 12.9453 153.801 14.2812C153.66 14.6562 153.438 14.8438 153.133 14.8438C152.711 14.75 152.348 14.6094 152.043 14.4219C151.762 14.2109 151.621 13.9766 151.621 13.7188ZM153.273 35.1992C153.273 34.9414 153.379 34.6484 153.59 34.3203C154.504 33.0547 155.219 31.8477 155.734 30.6992C156.25 29.5508 156.637 28.2148 156.895 26.6914C157.152 25.1445 157.281 23.2461 157.281 20.9961C157.281 20.0352 157.258 19.3555 157.211 18.957C157.188 18.5586 157.117 18.2305 157 17.9727C156.859 17.7852 156.789 17.6094 156.789 17.4453C156.789 17.3984 156.812 17.3516 156.859 17.3047C156.906 17.2578 156.977 17.2344 157.07 17.2344C157.656 17.2344 158.359 17.4219 159.18 17.7969L164.488 17.5508L164.559 12.4531C164.559 12.0078 164.395 11.5156 164.066 10.9766C163.973 10.8125 163.926 10.6836 163.926 10.5898C163.926 10.4023 164.055 10.3086 164.312 10.3086C164.57 10.3086 165.004 10.4023 165.613 10.5898C166.105 10.7305 166.422 10.8711 166.562 11.0117C166.703 11.1523 166.773 11.3516 166.773 11.6094L166.562 17.4453L173.066 17.1289L173.523 17.0938C173.922 17.0938 174.262 17.2578 174.543 17.5859C174.824 17.8906 174.965 18.1367 174.965 18.3242C174.965 18.418 174.941 18.5352 174.895 18.6758C174.848 18.793 174.824 18.8984 174.824 18.9922L174.93 32.8438L174.965 33.7578C174.965 34.2266 174.789 34.625 174.438 34.9531C174.133 35.2344 173.852 35.375 173.594 35.375C173.312 35.375 172.656 35.082 171.625 34.4961C170.617 33.9336 169.668 33.3242 168.777 32.668C167.887 32.0117 167.441 31.5664 167.441 31.332C167.441 31.1914 167.547 31.1211 167.758 31.1211C168.016 31.1211 168.344 31.2031 168.742 31.3672C170.148 31.9297 171.496 32.3516 172.785 32.6328L172.75 27.3594C171.344 27.8516 169.211 28.3438 166.352 28.8359C163.492 29.3281 161.559 29.5742 160.551 29.5742C159.59 29.5742 158.945 29.1523 158.617 28.3086C158.289 29.5977 157.797 30.7812 157.141 31.8594C156.484 32.9375 155.816 33.793 155.137 34.4258C154.48 35.0586 153.941 35.3984 153.52 35.4453C153.355 35.4453 153.273 35.3633 153.273 35.1992ZM157 12.5938C157 12.3828 157.105 12.1484 157.316 11.8906C157.527 11.6328 157.738 11.5039 157.949 11.5039C158.137 11.5039 158.629 11.8086 159.426 12.418C160.223 13.0039 160.961 13.625 161.641 14.2812C162.344 14.9375 162.695 15.3711 162.695 15.582C162.695 15.793 162.555 16.0391 162.273 16.3203C161.992 16.625 161.734 16.7773 161.5 16.7773C161.266 16.7773 161.008 16.625 160.727 16.3203C159.578 15.1016 158.406 14 157.211 13.0156C157.07 12.875 157 12.7344 157 12.5938ZM167.758 16.7422C167.758 16.5547 167.91 16.3086 168.215 16.0039C169.129 15.0898 169.914 14.1523 170.57 13.1914C171.25 12.2305 171.613 11.5156 171.66 11.0469C171.684 11 171.695 10.918 171.695 10.8008C171.695 10.4961 171.789 10.3438 171.977 10.3438C172.281 10.3438 172.68 10.5781 173.172 11.0469C173.688 11.4922 173.945 11.8672 173.945 12.1719C173.945 12.4766 173.324 13.1562 172.082 14.2109C170.863 15.2422 169.773 16.0391 168.812 16.6016L168.637 16.707C168.402 16.8477 168.18 16.918 167.969 16.918C167.828 16.918 167.758 16.8594 167.758 16.7422ZM246.121 14.3867C245.957 14.3867 245.781 14.2812 245.594 14.0703C245.453 13.9063 245.359 13.7773 245.312 13.6836C245.266 13.5664 245.266 13.4141 245.312 13.2266L245.348 12.3828C245.371 12.2188 245.383 11.8203 245.383 11.1875V10.0273L244.328 10.5195L243.098 11.0469C242.793 11.1641 242.477 11.3047 242.148 11.4688C241.867 11.6094 241.621 11.6797 241.41 11.6797C241.246 11.6563 241.059 11.5977 240.848 11.5039C240.637 11.4102 240.473 11.3281 240.355 11.2578C240.098 11.0938 239.98 10.918 240.004 10.7305L240.109 10.3789C240.109 10.1914 240.121 10.0273 240.145 9.88672L240.18 7.84766V5.94922C240.18 5.57422 240.156 5.25781 240.109 5C240.062 4.71875 240.027 4.51953 240.004 4.40234C240.004 4.28516 240.039 4.20313 240.109 4.15625C240.133 4.13281 240.191 4.12109 240.285 4.12109C240.449 4.12109 240.766 4.22656 241.234 4.4375C241.633 4.625 241.797 4.85938 241.727 5.14062C241.68 5.30469 241.633 5.55078 241.586 5.87891L241.48 9.92188C241.48 10.0391 241.492 10.1328 241.516 10.2031C241.562 10.25 241.609 10.2734 241.656 10.2734C241.938 10.2734 242.277 10.1914 242.676 10.0273C243.426 9.79297 244.07 9.55859 244.609 9.32422L245.383 9.00781V6.6875C245.383 5.75 245.324 4.84766 245.207 3.98047C245.184 3.91016 245.172 3.82812 245.172 3.73438C245.172 3.5 245.266 3.38281 245.453 3.38281C245.477 3.38281 245.605 3.42969 245.84 3.52344C246.191 3.71094 246.449 3.875 246.613 4.01562C246.777 4.15625 246.871 4.23828 246.895 4.26172C246.988 4.33203 247.035 4.40234 247.035 4.47266C247.035 4.51953 247.012 4.57812 246.965 4.64844C246.941 4.71875 246.918 4.77734 246.895 4.82422L246.789 5.87891L246.754 9.11328L246.789 12.2422C246.789 12.7813 246.754 13.25 246.684 13.6484C246.566 14.1406 246.379 14.3867 246.121 14.3867ZM239.652 20.1523C239.395 20.1523 239.078 19.9531 238.703 19.5547C238.422 19.2734 238.281 19.0625 238.281 18.9219C238.281 18.8516 238.328 18.8164 238.422 18.8164C238.516 18.793 238.633 18.7812 238.773 18.7812L239.547 18.7461C239.992 18.7461 240.285 18.7344 240.426 18.7109C240.871 18.7109 241.246 18.6992 241.551 18.6758C243.566 18.4883 244.926 18.3359 245.629 18.2188C245.98 18.1719 246.297 18.125 246.578 18.0781C246.859 18.0078 247.082 17.9727 247.246 17.9727C247.574 17.9727 247.902 18.1367 248.23 18.4648C248.488 18.7227 248.617 18.9336 248.617 19.0977C248.617 19.2383 248.535 19.332 248.371 19.3789C248.254 19.4023 247.562 19.4492 246.297 19.5195C245.594 19.543 244.727 19.6016 243.695 19.6953C242.664 19.7891 241.762 19.8828 240.988 19.9766C240.848 20 240.648 20.0352 240.391 20.082C240.133 20.1289 239.887 20.1523 239.652 20.1523ZM244.363 34.6719C243.637 34.6719 243.074 34.6484 242.676 34.6016C242.301 34.5547 241.984 34.4141 241.727 34.1797C241.281 33.8516 240.977 33.1367 240.812 32.0352L240.707 30.9102C240.707 30.6289 240.684 30.2773 240.637 29.8555C240.262 29.9023 239.992 29.9492 239.828 29.9961C239.781 30.0195 239.699 30.0547 239.582 30.1016C239.488 30.125 239.418 30.1367 239.371 30.1367C239.207 30.1367 239.055 30.0898 238.914 29.9961C238.773 29.9023 238.598 29.7266 238.387 29.4688C238.223 29.2578 238.141 29.1172 238.141 29.0469C238.141 28.9766 238.223 28.9297 238.387 28.9062C238.551 28.8828 238.773 28.8711 239.055 28.8711C239.453 28.8711 239.969 28.8242 240.602 28.7305L240.566 28.2383C240.566 27.3008 240.508 26.5039 240.391 25.8477L240.355 25.6016C240.355 25.2734 240.484 25.1445 240.742 25.2148C241.023 25.3086 241.281 25.4258 241.516 25.5664C241.703 25.6602 241.832 25.7539 241.902 25.8477C241.973 25.918 241.996 26.0234 241.973 26.1641L241.867 27.6758V28.5898L244.961 28.2734C244.961 28.1094 244.973 27.7227 244.996 27.1133C245.02 26.4805 245.02 26.0703 244.996 25.8828C244.996 25.6953 244.973 25.5195 244.926 25.3555C244.902 25.168 244.879 25.0156 244.855 24.8984C244.855 24.7109 244.949 24.6172 245.137 24.6172C245.324 24.6172 245.559 24.7227 245.84 24.9336C246.168 25.1445 246.379 25.332 246.473 25.4961C246.59 25.6602 246.613 25.8594 246.543 26.0938C246.426 26.4688 246.344 26.8906 246.297 27.3594C246.25 27.8281 246.227 28.1094 246.227 28.2031C246.508 28.1797 246.766 28.1445 247 28.0977C247.234 28.0508 247.387 28.0273 247.457 28.0273C247.645 27.9805 247.867 27.957 248.125 27.957C248.266 27.9805 248.465 28.1211 248.723 28.3789C248.934 28.6602 249.039 28.8828 249.039 29.0469C249.039 29.2812 248.816 29.375 248.371 29.3281C247.973 29.2578 247.574 29.2227 247.176 29.2227C246.777 29.2227 246.438 29.2344 246.156 29.2578C246.086 30.1016 245.945 30.9336 245.734 31.7539C245.688 31.9414 245.605 32.0938 245.488 32.2109C245.371 32.3516 245.266 32.4219 245.172 32.4219C245.008 32.4219 244.902 32.3516 244.855 32.2109C244.832 32.0938 244.82 31.8945 244.82 31.6133C244.867 31.0039 244.891 30.2422 244.891 29.3281C244.258 29.375 243.766 29.4219 243.414 29.4688C242.875 29.5859 242.371 29.6562 241.902 29.6797C241.879 30.6406 241.926 31.4961 242.043 32.2461C242.113 32.7383 242.254 33.0781 242.465 33.2656C242.605 33.3828 242.77 33.4531 242.957 33.4766C243.168 33.5 243.379 33.5117 243.59 33.5117C243.801 33.5117 243.941 33.5117 244.012 33.5117C244.738 33.5117 245.418 33.4766 246.051 33.4062C246.238 33.3828 246.402 33.3359 246.543 33.2656C246.707 33.1953 246.824 33.1602 246.895 33.1602C247.105 33.1602 247.316 33.2305 247.527 33.3711C247.738 33.5117 247.844 33.6758 247.844 33.8633C247.844 34.0508 247.738 34.1914 247.527 34.2852C247.34 34.3789 247.035 34.4609 246.613 34.5312C245.863 34.625 245.113 34.6719 244.363 34.6719ZM254.383 18.6758C254.664 18.6758 254.805 18.8047 254.805 19.0625C254.805 19.2031 254.676 19.4023 254.418 19.6602C253.715 20.5273 252.32 22.1797 250.234 24.6172C250.07 24.8281 249.918 24.9336 249.777 24.9336C249.66 24.9336 249.402 24.7578 249.004 24.4062C248.676 24.125 248.512 23.8906 248.512 23.7031C248.512 23.4922 248.688 23.293 249.039 23.1055C249.578 22.8008 250.387 22.1914 251.465 21.2773C252.543 20.3164 253.34 19.5547 253.855 18.9922C254.066 18.7812 254.242 18.6758 254.383 18.6758ZM209.699 30.1719C211.785 29.5156 213.648 28.8008 215.289 28.0273C214.938 27.5352 214.492 26.9727 213.953 26.3398C213.766 26.1055 213.672 25.918 213.672 25.7773C213.672 25.5195 213.824 25.2969 214.129 25.1094C214.434 24.8984 214.668 24.793 214.832 24.793C215.02 24.793 215.219 24.9102 215.43 25.1445C216.766 26.7148 217.902 28.0977 218.84 29.293C219.777 30.4883 220.246 31.2148 220.246 31.4727C220.246 31.6836 220.082 31.9297 219.754 32.2109C219.449 32.5156 219.156 32.668 218.875 32.668C218.641 32.668 218.406 32.4805 218.172 32.1055C217.633 31.2852 217.023 30.3945 216.344 29.4336L212.125 31.543C211.656 31.7539 210.918 32.1289 209.91 32.668C209.066 33.1133 208.551 33.3359 208.363 33.3359C208.223 33.3359 208.047 33.2422 207.836 33.0547C207.625 32.8906 207.461 32.6797 207.344 32.4219C207.25 32.1875 207.25 32 207.344 31.8594C207.484 31.6016 207.555 30.5703 207.555 28.7656V16.6016C207.555 16.0391 207.531 15.582 207.484 15.2305C207.461 14.8789 207.367 14.5039 207.203 14.1055C207.18 14.0352 207.156 13.9766 207.133 13.9297C207.109 13.8828 207.098 13.8359 207.098 13.7891C207.098 13.6719 207.18 13.6133 207.344 13.6133C207.648 13.6133 208.41 13.8711 209.629 14.3867L217.258 13.8594C217.445 13.8359 217.656 13.8242 217.891 13.8242C218.148 13.8242 218.453 13.9414 218.805 14.1758C219.156 14.3867 219.332 14.6211 219.332 14.8789C219.332 14.9727 219.273 15.1133 219.156 15.3008C219.062 15.4883 219.016 15.6289 219.016 15.7227L218.102 22.332C218.664 22.9883 218.945 23.4336 218.945 23.668C218.945 23.7852 218.875 23.8672 218.734 23.9141C218.617 23.9609 218.43 23.9844 218.172 23.9844L209.664 24.3008L209.699 30.1719ZM203.934 14.3867C203.934 14.1523 204.086 13.8711 204.391 13.543C206.102 11.6445 207.59 9.75781 208.855 7.88281C210.121 6.00781 210.754 4.75391 210.754 4.12109L210.719 3.875V3.76953C210.719 3.44141 210.848 3.27734 211.105 3.27734C211.41 3.27734 211.832 3.48828 212.371 3.91016C212.934 4.30859 213.215 4.63672 213.215 4.89453C213.215 5.01172 213.156 5.16406 213.039 5.35156C212.688 5.91406 212.301 6.47656 211.879 7.03906L216.871 6.65234C217.293 6.62891 217.738 6.53516 218.207 6.37109C218.348 6.32422 218.453 6.30078 218.523 6.30078C218.875 6.30078 219.25 6.5 219.648 6.89844C220.07 7.27344 220.281 7.56641 220.281 7.77734C220.281 8.05859 220.023 8.22266 219.508 8.26953L213.496 8.69141C213.66 8.73828 214.023 8.98438 214.586 9.42969C215.172 9.875 215.699 10.332 216.168 10.8008C216.637 11.2695 216.871 11.5977 216.871 11.7852C216.871 11.9961 216.73 12.2539 216.449 12.5586C216.168 12.8398 215.922 12.9805 215.711 12.9805C215.523 12.9805 215.301 12.8281 215.043 12.5234C214.246 11.6563 213.438 10.8945 212.617 10.2383C212.336 10.0039 212.195 9.80469 212.195 9.64062C212.195 9.52344 212.254 9.37109 212.371 9.18359C212.488 8.99609 212.641 8.84375 212.828 8.72656L210.473 8.90234C209.348 10.2852 208.105 11.5859 206.746 12.8047C205.387 14 204.52 14.5977 204.145 14.5977C204.004 14.5977 203.934 14.5273 203.934 14.3867ZM216.59 18.043L216.836 15.582L209.594 16.0742V18.3945L216.59 18.043ZM216.133 22.4023L216.414 19.6953L209.629 20.0117V22.6484L216.133 22.4023ZM218.031 12.875C218.031 12.6406 218.184 12.3594 218.488 12.0312C219.637 10.6484 220.68 9.08984 221.617 7.35547C222.578 5.59766 223.059 4.36719 223.059 3.66406V3.52344C223.059 3.17188 223.188 2.99609 223.445 2.99609C223.609 2.99609 223.855 3.08984 224.184 3.27734C224.535 3.44141 224.852 3.64063 225.133 3.875C225.414 4.10937 225.555 4.34375 225.555 4.57812C225.555 4.78906 225.391 5.16406 225.062 5.70312C224.734 6.24219 224.559 6.52344 224.535 6.54688L231.461 5.98438C231.977 5.9375 232.422 5.85547 232.797 5.73828C232.844 5.71484 232.938 5.70312 233.078 5.70312C233.406 5.70312 233.758 5.89063 234.133 6.26562C234.531 6.61719 234.73 6.91016 234.73 7.14453C234.73 7.28516 234.66 7.40234 234.52 7.49609C234.402 7.56641 234.238 7.61328 234.027 7.63672L226.891 8.12891C227.547 8.55078 228.32 9.17187 229.211 9.99219C230.102 10.7891 230.547 11.3281 230.547 11.6094C230.547 11.7734 230.418 12.0312 230.16 12.3828C229.902 12.7109 229.656 12.875 229.422 12.875C229.234 12.875 229.035 12.7578 228.824 12.5234C227.676 11.2812 226.633 10.2969 225.695 9.57031C225.461 9.38281 225.344 9.20703 225.344 9.04297C225.344 8.85547 225.52 8.57422 225.871 8.19922L223.27 8.375C222.496 9.40625 221.559 10.4492 220.457 11.5039C219.379 12.5586 218.652 13.0859 218.277 13.0859C218.113 13.0859 218.031 13.0156 218.031 12.875ZM221.336 13.6484C221.336 13.5078 221.418 13.4375 221.582 13.4375C221.934 13.4375 222.73 13.7305 223.973 14.3164L231.039 13.7188L231.32 13.6836C231.414 13.6836 231.59 13.7305 231.848 13.8242C232.129 13.8945 232.387 14.0234 232.621 14.2109C232.879 14.375 233.008 14.5977 233.008 14.8789C233.008 14.9727 232.973 15.1016 232.902 15.2656C232.832 15.4297 232.797 15.5469 232.797 15.6172C232.773 18.1953 232.609 20.9492 232.305 23.8789L232.234 24.7578C232.164 25.7422 232.07 26.5625 231.953 27.2188C231.836 27.875 231.637 28.3906 231.355 28.7656C230.91 29.375 230.43 29.6797 229.914 29.6797C229.398 29.6797 228.742 29.3633 227.945 28.7305C227.148 28.0977 226.41 27.4062 225.73 26.6562C225.074 25.9062 224.746 25.4258 224.746 25.2148C224.746 25.0508 224.84 24.9688 225.027 24.9688C225.238 24.9688 225.531 25.0859 225.906 25.3203C226.773 25.8594 227.5 26.293 228.086 26.6211C228.672 26.9492 229.094 27.1133 229.352 27.1133C229.469 27.1133 229.551 27.0312 229.598 26.8672C230.137 23.8672 230.465 20.1055 230.582 15.582L223.973 16.0742C223.973 20.0352 224.008 26.3164 224.078 34.918C224.078 35.1289 224.02 35.2812 223.902 35.375C223.809 35.4922 223.68 35.5508 223.516 35.5508C223.328 35.5508 223.105 35.4805 222.848 35.3398C222.402 35.1523 222.086 34.9766 221.898 34.8125C221.711 34.6484 221.617 34.4609 221.617 34.25L221.652 34.0039C221.793 33.2305 221.863 32.3633 221.863 31.4023L221.758 16.5664C221.758 15.957 221.734 15.4883 221.688 15.1602C221.664 14.832 221.594 14.5156 221.477 14.2109C221.383 13.9297 221.336 13.7422 221.336 13.6484Z" fill="#333333"/>
<path d="M136.719 72.8438C136.573 72.8438 136.646 72.7188 136.938 72.4688C137.229 72.2188 137.583 71.9167 138 71.5625C138.417 71.1875 138.885 70.6979 139.406 70.0938C139.74 69.6979 139.99 69.2812 140.156 68.8438C140.26 68.5938 140.375 68.4688 140.5 68.4688C140.604 68.4688 140.76 68.5521 140.969 68.7188C141.385 69.0521 141.594 69.3333 141.594 69.5625C141.594 69.7083 141.51 69.8125 141.344 69.875C141.26 69.8958 141.135 69.9896 140.969 70.1562C140.802 70.3021 140.677 70.4167 140.594 70.5C139.698 71.375 138.865 72.0104 138.094 72.4062C137.469 72.6979 137.052 72.8438 136.844 72.8438H136.719ZM140 78.6562C139.938 78.6562 139.833 78.5729 139.688 78.4062C139.562 78.2188 139.469 78.0417 139.406 77.875C139.385 77.75 139.385 77.5938 139.406 77.4062C139.448 77.1979 139.469 77.0417 139.469 76.9375C139.51 76.5208 139.531 76.1875 139.531 75.9375C139.552 75.7083 139.552 75.4583 139.531 75.1875C139.531 74.9167 139.531 74.7396 139.531 74.6562L139.5 74.1875C139 74.5417 138.615 74.7917 138.344 74.9375C137.74 75.2708 137.302 75.4792 137.031 75.5625C136.698 75.6875 136.396 75.75 136.125 75.75C135.979 75.75 135.896 75.7292 135.875 75.6875C135.833 75.6042 136.25 75.3021 137.125 74.7812C137.958 74.2604 138.865 73.5729 139.844 72.7188C140.385 72.2188 140.802 71.7396 141.094 71.2812C141.135 71.2188 141.167 71.1458 141.188 71.0625C141.229 70.9583 141.271 70.8958 141.312 70.875C141.375 70.8542 141.458 70.8646 141.562 70.9062C141.833 71.0521 142.062 71.2604 142.25 71.5312C142.333 71.6354 142.375 71.7396 142.375 71.8438C142.375 71.9479 142.323 72.0521 142.219 72.1562C142.115 72.2396 142.01 72.3021 141.906 72.3438C141.552 72.5729 141.229 72.8229 140.938 73.0938C140.646 73.3646 140.458 73.5417 140.375 73.625C140.688 73.875 140.844 74.0521 140.844 74.1562L140.75 74.8125C140.708 75 140.688 75.4688 140.688 76.2188C140.688 76.9479 140.708 77.4375 140.75 77.6875V77.75C140.75 77.8542 140.719 77.9688 140.656 78.0938C140.615 78.1979 140.583 78.2708 140.562 78.3125C140.417 78.5417 140.229 78.6562 140 78.6562ZM119.75 72.6562C119.25 72.6979 118.896 72.7188 118.688 72.7188C118.271 72.7188 118 72.6562 117.875 72.5312C117.625 72.3021 117.396 72.0104 117.188 71.6562C117 71.2812 116.906 71.0521 116.906 70.9688C116.906 70.8646 117.021 70.8125 117.25 70.8125C117.604 70.8958 118 70.9375 118.438 70.9375C118.646 70.9375 119 70.9167 119.5 70.875L127.031 70.3125H127.438C127.917 70.3125 128.302 70.4583 128.594 70.75C128.906 71.0208 129.062 71.2708 129.062 71.5C129.062 71.6667 128.99 71.8125 128.844 71.9375C128.719 72.0625 128.573 72.1771 128.406 72.2812C128.24 72.3646 128.125 72.4375 128.062 72.5C125.125 75.0625 123.042 76.9375 121.812 78.125C120.938 78.9583 120.25 79.7812 119.75 80.5938C119.25 81.4062 119 82.0417 119 82.5C119 82.9583 119.167 83.3125 119.5 83.5625C119.854 83.7917 120.396 83.9479 121.125 84.0312C121.854 84.1146 122.885 84.1562 124.219 84.1562C126.385 84.1562 128.292 84.0417 129.938 83.8125C130.333 83.7708 130.625 83.625 130.812 83.375C131.021 83.125 131.198 82.6979 131.344 82.0938C131.51 81.4688 131.729 80.4062 132 78.9062C132.083 78.4896 132.177 78.1667 132.281 77.9375C132.385 77.7083 132.49 77.5938 132.594 77.5938C132.698 77.5938 132.781 77.7188 132.844 77.9688C132.927 78.1979 132.969 78.5417 132.969 79C132.969 80.8542 132.906 82.2188 132.781 83.0938C132.677 83.9479 132.448 84.5729 132.094 84.9688C131.74 85.3646 131.167 85.625 130.375 85.75C128.521 86 126.427 86.125 124.094 86.125C122.552 86.125 121.167 86.0625 119.938 85.9375C118.917 85.8333 118.156 85.4479 117.656 84.7812C117.177 84.1146 116.938 83.3646 116.938 82.5312C116.938 81.8229 117.219 80.9688 117.781 79.9688C118.344 78.9688 119.062 78.0625 119.938 77.25C121.104 76.1667 122.958 74.4896 125.5 72.2188L119.75 72.6562ZM105.219 65.4688C105.219 65.3229 105.323 65.25 105.531 65.25C105.844 65.25 106.531 65.4479 107.594 65.8438L112.031 65.5625C112.198 65.5417 112.406 65.5312 112.656 65.5312C113.031 65.5312 113.333 65.6458 113.562 65.875C113.812 66.1042 113.938 66.3542 113.938 66.625C113.938 66.75 113.906 66.8854 113.844 67.0312C113.802 67.1771 113.771 67.2812 113.75 67.3438L113.156 74.6562C113.656 75.3021 113.906 75.75 113.906 76C113.906 76.1458 113.844 76.2396 113.719 76.2812C113.594 76.3021 113.365 76.3229 113.031 76.3438L108.031 76.5312L108.094 78.1875V78.25C108.094 78.6458 107.917 78.8438 107.562 78.8438C107.229 78.8438 106.885 78.7396 106.531 78.5312C106.198 78.3229 106.031 78.0104 106.031 77.5938C106.031 77.4479 106.042 77.3333 106.062 77.25C106.125 76.8958 106.156 76.5729 106.156 76.2812L106.125 75.6562L105.812 67.6875C105.771 66.9167 105.646 66.3542 105.438 66C105.292 65.75 105.219 65.5729 105.219 65.4688ZM107.938 74.75L111.312 74.6562L111.844 67.3438L107.656 67.5625L107.938 74.75ZM114.156 72.2812C114.156 72.1354 114.25 71.9062 114.438 71.5938C115.604 69.9271 116.656 68.1354 117.594 66.2188C118.552 64.3021 119.333 62.3958 119.938 60.5C120 60.3125 120.031 60.125 120.031 59.9375C120.031 59.6875 119.99 59.4375 119.906 59.1875C119.885 59.1458 119.875 59.0833 119.875 59C119.875 58.8125 119.979 58.7188 120.188 58.7188C120.354 58.7188 120.625 58.8021 121 58.9688C121.375 59.1354 121.708 59.3438 122 59.5938C122.292 59.8229 122.438 60.0417 122.438 60.25C122.438 60.375 122.406 60.5 122.344 60.625C121.656 62.3125 120.927 63.8438 120.156 65.2188L128.938 64.6562C129.375 64.6354 129.74 64.5521 130.031 64.4062C130.24 64.3229 130.385 64.2812 130.469 64.2812C130.781 64.2812 131.115 64.4792 131.469 64.875C131.823 65.2708 132 65.5938 132 65.8438C132 66.0938 131.719 66.2396 131.156 66.2812L119.094 67C118.198 68.4167 117.25 69.6875 116.25 70.8125C115.271 71.9375 114.635 72.5 114.344 72.5C114.219 72.5 114.156 72.4271 114.156 72.2812ZM185.156 70.2812C184.469 70.0312 184.146 69.7604 184.188 69.4688C184.312 68.5938 184.375 67.5938 184.375 66.4688C184.375 65.9688 184.365 65.6042 184.344 65.375C184.323 65.1042 184.302 64.875 184.281 64.6875C184.26 64.4792 184.26 64.3646 184.281 64.3438C184.365 64.2604 184.469 64.2188 184.594 64.2188C184.781 64.2188 185.01 64.3021 185.281 64.4688C185.573 64.6354 185.719 64.8021 185.719 64.9688C185.719 65.0729 185.708 65.1771 185.688 65.2812C185.667 65.3646 185.656 65.4583 185.656 65.5625L185.469 68.6562C185.469 68.8229 185.531 68.9271 185.656 68.9688H185.812C185.979 68.9688 186.094 68.9583 186.156 68.9375L190.188 68.375V67.5625C190.188 66.5417 190.167 65.75 190.125 65.1875C190.104 64.7083 190.052 64.3229 189.969 64.0312C189.906 63.6979 189.99 63.5312 190.219 63.5312C190.385 63.5312 190.604 63.5938 190.875 63.7188C191.208 63.8854 191.406 64.0312 191.469 64.1562C191.531 64.2604 191.552 64.4271 191.531 64.6562C191.49 65.0312 191.469 65.5938 191.469 66.3438L191.5 68.7188C191.5 69.2188 191.406 69.6146 191.219 69.9062C191.115 70.0312 191.01 70.0938 190.906 70.0938C190.802 70.0938 190.656 70 190.469 69.8125C190.427 69.7708 190.375 69.7083 190.312 69.625C190.25 69.5417 190.188 69.4896 190.125 69.4688C190.062 69.4479 189.979 69.4375 189.875 69.4375C189.396 69.4792 188.24 69.6354 186.406 69.9062C186.094 69.9479 185.844 70.0312 185.656 70.1562C185.448 70.2604 185.312 70.3125 185.25 70.3125L185.156 70.2812ZM189.125 77C188.917 77.2708 188.698 77.4062 188.469 77.4062C188.406 77.4062 188.375 77.3542 188.375 77.25C188.375 77.1042 188.417 76.9375 188.5 76.75C188.5 76.75 188.708 76.3333 189.125 75.5C189.146 75.4167 189.177 75.3333 189.219 75.25C189.26 75.1667 189.292 75.0938 189.312 75.0312V75C189.312 74.9583 189.281 74.9167 189.219 74.875C189.156 74.8333 189.083 74.8229 189 74.8438C188.667 74.8646 188.167 74.9167 187.5 75C186.854 75.0833 186.375 75.1667 186.062 75.25C185.938 75.2917 185.781 75.3438 185.594 75.4062C185.427 75.4688 185.292 75.5 185.188 75.5C184.812 75.5 184.5 75.3854 184.25 75.1562C184.042 75.0104 183.885 74.8646 183.781 74.7188L183.719 74.5625C183.719 74.4583 183.896 74.4271 184.25 74.4688C184.729 74.5104 185.719 74.4479 187.219 74.2812L187.844 74.1875C188.01 74.1667 188.271 74.1354 188.625 74.0938C189 74.0312 189.292 73.9688 189.5 73.9062C189.562 73.8854 189.625 73.8646 189.688 73.8438C189.771 73.8021 189.844 73.7812 189.906 73.7812C190.01 73.7812 190.135 73.8333 190.281 73.9375C190.448 74.0417 190.583 74.1354 190.688 74.2188C190.833 74.3229 190.927 74.4167 190.969 74.5C191.031 74.5625 191.052 74.6458 191.031 74.75C191.031 74.8542 190.979 74.9479 190.875 75.0312C190.771 75.1146 190.698 75.1771 190.656 75.2188C190.615 75.2812 190.469 75.4375 190.219 75.6875C190.115 75.8542 189.927 76.0833 189.656 76.375C189.406 76.6667 189.229 76.875 189.125 77ZM187.562 83.1562C187.562 83.0938 187.667 82.9375 187.875 82.6875C188.104 82.4167 188.281 82.2083 188.406 82.0625C188.719 81.6458 189.094 81.0417 189.531 80.25C189.99 79.4583 190.25 78.9375 190.312 78.6875C190.354 78.5625 190.292 78.5 190.125 78.5C189.792 78.5 188.875 78.5938 187.375 78.7812C186.396 78.9062 185.667 79.0312 185.188 79.1562C185.083 79.2188 184.979 79.25 184.875 79.25C184.708 79.25 184.531 79.1354 184.344 78.9062C184.26 78.7604 184.219 78.625 184.219 78.5C184.219 78.4167 184.271 78.3333 184.375 78.25L184.469 78.125C184.531 78 184.604 77.8333 184.688 77.625C184.771 77.4167 184.844 77.2188 184.906 77.0312C185.01 76.6979 185.083 76.3333 185.125 75.9375C185.146 75.7083 185.271 75.6458 185.5 75.75C185.792 75.8958 186.01 76.0417 186.156 76.1875C186.323 76.3125 186.375 76.4062 186.312 76.4688C186.104 76.7188 185.938 77 185.812 77.3125C185.708 77.6458 185.646 77.8646 185.625 77.9688C185.625 78.0521 185.677 78.0938 185.781 78.0938C186.094 78.0938 186.562 78.0417 187.188 77.9375C187.542 77.8958 187.979 77.8438 188.5 77.7812C189.021 77.7188 189.438 77.6562 189.75 77.5938L190.531 77.4375C190.594 77.4167 190.677 77.4062 190.781 77.4062C190.885 77.4062 190.99 77.4479 191.094 77.5312C191.198 77.5938 191.312 77.6771 191.438 77.7812C191.646 77.9688 191.781 78.125 191.844 78.25C191.906 78.3542 191.938 78.4792 191.938 78.625C191.938 78.7083 191.875 78.8125 191.75 78.9375C191.646 79.0625 191.521 79.2604 191.375 79.5312C190.771 80.7604 189.99 81.7917 189.031 82.625C188.76 82.8333 188.458 83.0104 188.125 83.1562C187.979 83.1979 187.844 83.2292 187.719 83.25C187.615 83.25 187.562 83.2188 187.562 83.1562ZM197.562 68.7188C197.812 68.7188 197.938 68.8333 197.938 69.0625C197.938 69.1875 197.823 69.3646 197.594 69.5938C196.969 70.3646 195.729 71.8333 193.875 74C193.729 74.1875 193.594 74.2812 193.469 74.2812C193.365 74.2812 193.135 74.125 192.781 73.8125C192.49 73.5625 192.344 73.3542 192.344 73.1875C192.344 73 192.5 72.8229 192.812 72.6562C193.292 72.3854 194.01 71.8438 194.969 71.0312C195.927 70.1771 196.635 69.5 197.094 69C197.281 68.8125 197.438 68.7188 197.562 68.7188ZM160.344 64.3438C160.115 64.3646 159.823 64.375 159.469 64.375H159.156C158.865 64.3333 158.656 64.2812 158.531 64.2188C158.323 64.0729 158.104 63.8333 157.875 63.5C157.646 63.1458 157.531 62.8542 157.531 62.625C157.531 62.4792 157.594 62.4062 157.719 62.4062C157.802 62.4062 157.875 62.4167 157.938 62.4375C158.312 62.5417 158.771 62.5938 159.312 62.5938H159.719L171.906 61.8125C172.385 61.7708 172.854 61.6771 173.312 61.5312C173.354 61.5104 173.427 61.5 173.531 61.5C173.802 61.5 174.156 61.7083 174.594 62.125C175.052 62.5417 175.281 62.8542 175.281 63.0625C175.281 63.3125 175.021 63.4583 174.5 63.5L160.344 64.3438ZM151.844 86.375C151.844 86.1875 152.083 85.9583 152.562 85.6875C154.396 84.625 155.927 83.4688 157.156 82.2188C158.406 80.9688 159.438 79.4792 160.25 77.75C161.062 76 161.719 73.8854 162.219 71.4062L156.75 71.6875C156.458 71.7083 156.104 71.7188 155.688 71.7188C155.417 71.7188 155.198 71.6979 155.031 71.6562C154.865 71.6146 154.708 71.5208 154.562 71.375C154.292 71.1042 154.083 70.8125 153.938 70.5C153.792 70.1875 153.719 69.9792 153.719 69.875C153.719 69.75 153.812 69.6875 154 69.6875H154.188C154.583 69.8125 155.062 69.875 155.625 69.875H155.938L175.656 68.875C176.177 68.8333 176.656 68.7396 177.094 68.5938C177.219 68.5521 177.302 68.5312 177.344 68.5312C177.594 68.5312 177.958 68.7396 178.438 69.1562C178.917 69.5729 179.156 69.9167 179.156 70.1875C179.156 70.4167 178.906 70.5521 178.406 70.5938L169.844 71.0312L169.656 81.8125V81.9062C169.656 82.4271 169.781 82.8125 170.031 83.0625C170.281 83.2917 170.635 83.4375 171.094 83.5C171.573 83.5625 172.26 83.5938 173.156 83.5938C174.406 83.5938 175.51 83.4896 176.469 83.2812C176.823 83.2188 177.115 83.0208 177.344 82.6875C177.573 82.3542 177.792 81.7708 178 80.9375C178.208 80.1042 178.427 78.875 178.656 77.25C178.719 76.8333 178.802 76.5104 178.906 76.2812C179.031 76.0312 179.156 75.9062 179.281 75.9062C179.51 75.9062 179.646 76.1562 179.688 76.6562C179.75 77.1562 179.781 77.8333 179.781 78.6875C179.781 80 179.719 81.3438 179.594 82.7188C179.531 83.4062 179.344 83.9479 179.031 84.3438C178.74 84.7604 178.146 85.0833 177.25 85.3125C176.375 85.5625 175.073 85.6875 173.344 85.6875C172.135 85.6875 171.146 85.625 170.375 85.5C169.604 85.3958 168.948 85.0938 168.406 84.5938C167.865 84.1146 167.594 83.3438 167.594 82.2812V82.1875L167.781 71.125L164.469 71.3125C163.635 75.5625 162.302 78.875 160.469 81.25C158.656 83.6042 156.104 85.3229 152.812 86.4062C152.562 86.4896 152.333 86.5312 152.125 86.5312C151.938 86.5312 151.844 86.4792 151.844 86.375ZM235.812 67.9375C235.688 67.9375 235.521 67.8021 235.312 67.5312C235.104 67.2396 235.01 66.9896 235.031 66.7812C235.073 66.6146 235.104 66.1458 235.125 65.375C235.146 64.8542 235.156 63.9375 235.156 62.625C235.156 61.7083 235.146 61.0938 235.125 60.7812L234.094 60.875C233.365 60.9792 232.74 61.0312 232.219 61.0312C232.073 61.0312 231.865 60.9167 231.594 60.6875C231.323 60.4583 231.188 60.2917 231.188 60.1875C231.188 60.0208 231.365 59.9583 231.719 60C231.948 60.0208 232.625 60.0104 233.75 59.9688C235.292 59.8646 236.406 59.8021 237.094 59.7812C237.448 59.7604 237.771 59.7292 238.062 59.6875C238.375 59.625 238.594 59.5833 238.719 59.5625C238.906 59.5417 239.073 59.5625 239.219 59.625C239.365 59.6875 239.5 59.7708 239.625 59.875C239.771 59.9583 239.885 60.0208 239.969 60.0625C240.156 60.1875 240.25 60.3021 240.25 60.4062C240.25 60.4896 240.198 60.5729 240.094 60.6562C240.01 60.7188 239.917 60.75 239.812 60.75C239.708 60.75 239.562 60.7396 239.375 60.7188C239.208 60.6979 239.021 60.6875 238.812 60.6875C238.042 60.6875 237.25 60.7083 236.438 60.75C236.417 60.9167 236.406 61.3333 236.406 62C236.365 63.125 236.344 64.2292 236.344 65.3125V66.5312V66.8125C236.344 67.1667 236.312 67.3958 236.25 67.5C236.062 67.7917 235.917 67.9375 235.812 67.9375ZM232.469 73.4688C232.24 73.4688 231.958 73.2917 231.625 72.9375C231.375 72.6875 231.25 72.5 231.25 72.375C231.25 72.3125 231.292 72.2812 231.375 72.2812C231.458 72.2604 231.562 72.25 231.688 72.25L232.375 72.2188C232.771 72.2188 233.031 72.2083 233.156 72.1875C233.552 72.1875 233.885 72.1771 234.156 72.1562C235.948 71.9896 237.156 71.8542 237.781 71.75C238.094 71.7083 238.375 71.6667 238.625 71.625C238.875 71.5625 239.073 71.5312 239.219 71.5312C239.51 71.5312 239.802 71.6771 240.094 71.9688C240.323 72.1979 240.438 72.3854 240.438 72.5312C240.438 72.6562 240.365 72.7396 240.219 72.7812C240.115 72.8021 239.5 72.8438 238.375 72.9062C237.75 72.9271 236.979 72.9792 236.062 73.0625C235.146 73.1458 234.344 73.2292 233.656 73.3125C233.531 73.3333 233.354 73.3646 233.125 73.4062C232.896 73.4479 232.677 73.4688 232.469 73.4688ZM239.188 84.25C239.229 84.3333 239.302 84.4583 239.406 84.625C239.51 84.7917 239.562 84.9896 239.562 85.2188C239.562 85.4271 239.479 85.5938 239.312 85.7188C239.146 85.8646 238.958 85.9375 238.75 85.9375C238.562 85.9375 238.406 85.75 238.281 85.375C238.219 85.2292 238.167 85.1042 238.125 85C238.104 84.9167 238.083 84.8438 238.062 84.7812C237.792 84.8646 237.438 84.9375 237 85C236.562 85.0625 236.25 85.1146 236.062 85.1562C235.062 85.3438 234.375 85.4792 234 85.5625C233.854 85.6042 233.698 85.6458 233.531 85.6875C233.365 85.75 233.271 85.7917 233.25 85.8125C233.125 85.8542 233.031 85.875 232.969 85.875C232.802 85.875 232.646 85.8021 232.5 85.6562C232.25 85.4688 232.062 85.2188 231.938 84.9062C231.917 84.8854 231.906 84.8542 231.906 84.8125C231.906 84.7708 231.958 84.7188 232.062 84.6562C232.188 84.5938 232.281 84.5521 232.344 84.5312C232.615 84.3854 233.094 83.9479 233.781 83.2188L234.625 82.4062L232.781 81.4062C232.573 81.3438 232.438 81.2708 232.375 81.1875C232.312 81.1042 232.281 80.9792 232.281 80.8125C232.281 80.6875 232.302 80.6042 232.344 80.5625C232.406 80.5 232.531 80.4062 232.719 80.2812C232.906 80.1562 233.094 79.9896 233.281 79.7812C233.385 79.6562 233.521 79.5208 233.688 79.375C233.854 79.2292 234.01 79.0729 234.156 78.9062C234.781 78.1771 235.177 77.6042 235.344 77.1875C235.448 76.9792 235.531 76.875 235.594 76.875C235.635 76.875 235.719 76.9167 235.844 77C236.24 77.2917 236.479 77.5625 236.562 77.8125V77.9062C236.562 78.0104 236.51 78.0938 236.406 78.1562C236.302 78.2188 236.229 78.2708 236.188 78.3125C236.125 78.3542 235.812 78.6562 235.25 79.2188L234.688 79.7812C234.583 79.8854 234.406 80.0625 234.156 80.3125C233.906 80.5417 233.781 80.6771 233.781 80.7188C233.781 80.7812 233.812 80.8333 233.875 80.875C233.958 80.9167 234.021 80.9583 234.062 81L235.375 81.625C236.188 80.8125 236.656 80.3333 236.781 80.1875C237.323 79.5625 237.625 79.1667 237.688 79C237.708 78.9792 237.74 78.9271 237.781 78.8438C237.823 78.7604 237.865 78.7188 237.906 78.7188C237.969 78.7188 238.031 78.75 238.094 78.8125C238.427 79.125 238.667 79.4167 238.812 79.6875C238.854 79.7708 238.875 79.8229 238.875 79.8438C238.875 79.8854 238.823 79.9479 238.719 80.0312C238.635 80.0938 238.552 80.1562 238.469 80.2188C237.74 80.8229 236.885 81.6146 235.906 82.5938L234 84.375C233.958 84.4167 233.938 84.4583 233.938 84.5C233.938 84.5417 233.958 84.5729 234 84.5938C234.042 84.6146 234.104 84.6146 234.188 84.5938L237.844 83.9688C237.74 83.5521 237.615 83.1354 237.469 82.7188V82.6562C237.469 82.5938 237.5 82.5625 237.562 82.5625C237.646 82.5625 237.771 82.625 237.938 82.75C238.271 83.0417 238.688 83.5417 239.188 84.25ZM209.125 73.0312L209.094 74.875C209.219 74.8542 209.385 74.8542 209.594 74.875C209.698 74.8542 209.792 74.8542 209.875 74.875C209.958 74.875 210.052 74.875 210.156 74.875C212.302 75.0625 214.896 75.375 217.938 75.8125C218.271 75.8542 218.521 75.9583 218.688 76.125C218.854 76.2917 218.938 76.4583 218.938 76.625C218.875 77.3125 218.521 77.625 217.875 77.5625C217.667 77.5208 217.271 77.4896 216.688 77.4688C216.646 77.4688 216.198 77.3958 215.344 77.25C212.76 76.8333 210.927 76.5833 209.844 76.5C209.448 76.4583 209.177 76.4062 209.031 76.3438C208.969 77.6354 208.844 78.7708 208.656 79.75H208.75C210.125 79.75 211.792 79.6771 213.75 79.5312L214.75 79.4375C217.542 79.2292 219.625 79.0417 221 78.875L220.938 72.5L209.125 73.0312ZM202.219 67.75C202.219 67.6458 202.25 67.5312 202.312 67.4062C203.229 65.6562 203.927 63.7396 204.406 61.6562C204.448 61.4271 204.51 61.2604 204.594 61.1562C204.677 61.0521 204.802 61 204.969 61C205.219 61 205.5 61.0833 205.812 61.25C206.125 61.3958 206.281 61.5729 206.281 61.7812C206.281 61.8229 206.26 61.9479 206.219 62.1562L206.062 62.8438L214.625 62.375C214.229 61.875 213.74 61.3646 213.156 60.8438C212.594 60.3229 212.271 60.0208 212.188 59.9375C212.083 59.8542 212 59.7708 211.938 59.6875C211.875 59.5833 211.865 59.4792 211.906 59.375C211.948 59.1667 212.094 58.9583 212.344 58.75C212.615 58.5417 212.823 58.4583 212.969 58.5C213.115 58.5208 213.448 58.7396 213.969 59.1562C214.49 59.5729 215.188 60.2188 216.062 61.0938C216.375 61.3438 216.5 61.6042 216.438 61.875C216.417 61.9583 216.333 62.1042 216.188 62.3125L225.844 61.7812L226.156 61.75C226.448 61.75 226.698 61.8229 226.906 61.9688C227.135 62.1146 227.312 62.2812 227.438 62.4688C227.562 62.6562 227.625 62.7917 227.625 62.875C227.625 63.0417 227.531 63.2083 227.344 63.375C227.177 63.5208 227.062 63.6458 227 63.75C226 65.0625 225.188 66.0312 224.562 66.6562C223.938 67.2812 223.5 67.5938 223.25 67.5938C223.104 67.5938 223.031 67.5104 223.031 67.3438C223.031 67.1146 223.146 66.8125 223.375 66.4375C224 65.3958 224.5 64.4271 224.875 63.5312L205.594 64.4688C205.177 65.8021 204.698 67.0625 204.156 68.25C204.031 68.5833 203.833 68.75 203.562 68.75C203.188 68.6667 202.865 68.5417 202.594 68.375C202.344 68.1875 202.219 67.9792 202.219 67.75ZM203.688 86.8438C203.688 86.6146 203.781 86.3542 203.969 86.0625C204.781 84.9375 205.417 83.8646 205.875 82.8438C206.333 81.8229 206.677 80.6354 206.906 79.2812C207.135 77.9062 207.25 76.2188 207.25 74.2188C207.25 73.3646 207.229 72.7604 207.188 72.4062C207.167 72.0521 207.104 71.7604 207 71.5312C206.875 71.3646 206.812 71.2083 206.812 71.0625C206.812 71.0208 206.833 70.9792 206.875 70.9375C206.917 70.8958 206.979 70.875 207.062 70.875C207.583 70.875 208.208 71.0417 208.938 71.375L213.656 71.1562L213.719 66.625C213.719 66.2292 213.573 65.7917 213.281 65.3125C213.198 65.1667 213.156 65.0521 213.156 64.9688C213.156 64.8021 213.271 64.7188 213.5 64.7188C213.729 64.7188 214.115 64.8021 214.656 64.9688C215.094 65.0938 215.375 65.2188 215.5 65.3438C215.625 65.4688 215.688 65.6458 215.688 65.875L215.5 71.0625L221.281 70.7812L221.688 70.75C222.042 70.75 222.344 70.8958 222.594 71.1875C222.844 71.4583 222.969 71.6771 222.969 71.8438C222.969 71.9271 222.948 72.0312 222.906 72.1562C222.865 72.2604 222.844 72.3542 222.844 72.4375L222.938 84.75L222.969 85.5625C222.969 85.9792 222.812 86.3333 222.5 86.625C222.229 86.875 221.979 87 221.75 87C221.5 87 220.917 86.7396 220 86.2188C219.104 85.7188 218.26 85.1771 217.469 84.5938C216.677 84.0104 216.281 83.6146 216.281 83.4062C216.281 83.2812 216.375 83.2188 216.562 83.2188C216.792 83.2188 217.083 83.2917 217.438 83.4375C218.688 83.9375 219.885 84.3125 221.031 84.5625L221 79.875C219.75 80.3125 217.854 80.75 215.312 81.1875C212.771 81.625 211.052 81.8438 210.156 81.8438C209.302 81.8438 208.729 81.4688 208.438 80.7188C208.146 81.8646 207.708 82.9167 207.125 83.875C206.542 84.8333 205.948 85.5938 205.344 86.1562C204.76 86.7188 204.281 87.0208 203.906 87.0625C203.76 87.0625 203.688 86.9896 203.688 86.8438ZM207 66.75C207 66.5625 207.094 66.3542 207.281 66.125C207.469 65.8958 207.656 65.7812 207.844 65.7812C208.01 65.7812 208.448 66.0521 209.156 66.5938C209.865 67.1146 210.521 67.6667 211.125 68.25C211.75 68.8333 212.062 69.2188 212.062 69.4062C212.062 69.5938 211.938 69.8125 211.688 70.0625C211.438 70.3333 211.208 70.4688 211 70.4688C210.792 70.4688 210.562 70.3333 210.312 70.0625C209.292 68.9792 208.25 68 207.188 67.125C207.062 67 207 66.875 207 66.75ZM216.562 70.4375C216.562 70.2708 216.698 70.0521 216.969 69.7812C217.781 68.9688 218.479 68.1354 219.062 67.2812C219.667 66.4271 219.99 65.7917 220.031 65.375C220.052 65.3333 220.062 65.2604 220.062 65.1562C220.062 64.8854 220.146 64.75 220.312 64.75C220.583 64.75 220.938 64.9583 221.375 65.375C221.833 65.7708 222.062 66.1042 222.062 66.375C222.062 66.6458 221.51 67.25 220.406 68.1875C219.323 69.1042 218.354 69.8125 217.5 70.3125L217.344 70.4062C217.135 70.5312 216.938 70.5938 216.75 70.5938C216.625 70.5938 216.562 70.5417 216.562 70.4375Z" fill="#333333"/>
</svg>
