<svg xmlns="http://www.w3.org/2000/svg" width="350" height="126" fill="none"><path fill="#333" d="M132.426 16.566c-.774-.28-1.137-.585-1.09-.914.141-.984.211-2.109.211-3.375a15.414 15.414 0 0 0-.106-2.004c-.023-.234-.023-.363 0-.386a.478.478 0 0 1 .352-.14c.211 0 .469.093.773.28.329.188.493.375.493.563 0 .117-.012.234-.036.351a1.33 1.33 0 0 0-.035.317l-.211 3.48c0 .188.071.305.211.352h.176c.188 0 .316-.012.387-.035l4.535-.633v-.914a39.21 39.21 0 0 0-.07-2.672c-.024-.54-.082-.973-.176-1.3-.07-.376.023-.563.281-.563.188 0 .434.07.738.21.375.188.598.352.668.493.071.117.094.304.071.562-.047.422-.071 1.055-.071 1.899l.035 2.672c0 .562-.105 1.007-.316 1.336-.117.14-.234.21-.351.21-.118 0-.282-.105-.493-.316a2.01 2.01 0 0 1-.175-.21.475.475 0 0 0-.211-.177.92.92 0 0 0-.282-.035c-.539.047-1.839.223-3.902.527-.352.047-.633.141-.844.282-.234.117-.386.176-.457.176l-.105-.036Zm4.465 7.559c-.235.305-.481.457-.739.457-.07 0-.105-.059-.105-.176 0-.164.047-.351.141-.562l.703-1.407c.023-.093.058-.187.105-.28.047-.095.082-.177.106-.247v-.035c0-.047-.036-.094-.106-.14a.295.295 0 0 0-.246-.036c-.375.024-.938.082-1.688.176-.726.094-1.265.188-1.617.281l-.527.176a1.38 1.38 0 0 1-.457.105c-.422 0-.773-.128-1.055-.386a2.168 2.168 0 0 1-.527-.492l-.07-.176c0-.117.199-.152.597-.106.539.047 1.653-.023 3.34-.21l.703-.106c.188-.023.481-.059.879-.105.422-.07.75-.141.984-.212l.211-.07a.568.568 0 0 1 .247-.07c.117 0 .257.058.421.176.188.117.34.222.457.316.164.117.27.223.317.317.07.07.094.164.07.28 0 .118-.058.223-.176.317a3.36 3.36 0 0 0-.246.211c-.047.07-.211.246-.492.527-.117.188-.328.446-.633.774-.281.328-.48.562-.597.703Zm-1.758 6.926c0-.07.117-.246.351-.528.258-.304.457-.539.598-.703.352-.468.773-1.148 1.266-2.039.515-.89.808-1.476.879-1.758.046-.14-.024-.21-.211-.21-.375 0-1.407.105-3.094.316-1.102.14-1.922.281-2.461.422a.677.677 0 0 1-.352.105c-.187 0-.386-.129-.597-.386a.93.93 0 0 1-.141-.457c0-.094.059-.188.176-.282l.105-.14c.071-.141.153-.328.246-.563.094-.234.176-.457.247-.668.117-.375.199-.785.246-1.23.023-.258.164-.328.421-.211.329.164.575.328.739.492.187.14.246.246.176.316a3.5 3.5 0 0 0-.563.95 9.844 9.844 0 0 0-.211.738c0 .094.059.14.176.14.351 0 .879-.058 1.582-.175l1.477-.176c.585-.07 1.054-.14 1.406-.211l.879-.176a.913.913 0 0 1 .281-.035c.117 0 .234.047.351.14.118.071.247.165.387.282.235.21.387.387.457.527a.8.8 0 0 1 .106.422c0 .094-.071.211-.211.352-.117.14-.258.363-.422.668-.68 1.383-1.559 2.543-2.637 3.48a4.86 4.86 0 0 1-1.019.598 4.183 4.183 0 0 1-.457.105c-.118 0-.176-.035-.176-.105Zm11.25-16.242c.281 0 .422.129.422.386 0 .14-.129.34-.387.598-.703.867-2.098 2.52-4.184 4.957-.164.21-.316.316-.457.316-.117 0-.375-.175-.773-.527-.328-.281-.492-.516-.492-.703 0-.211.176-.41.527-.598.539-.304 1.348-.914 2.426-1.828 1.078-.96 1.875-1.723 2.39-2.285.211-.21.387-.316.528-.316Zm-41.871-4.922c-.258.023-.586.035-.985.035h-.351c-.328-.047-.563-.106-.703-.176-.235-.164-.481-.434-.739-.809-.257-.398-.386-.726-.386-.984 0-.164.07-.246.211-.246.093 0 .175.012.246.035.422.117.937.176 1.547.176h.457l13.711-.879a7.287 7.287 0 0 0 1.582-.316.597.597 0 0 1 .246-.035c.304 0 .703.234 1.195.703.516.468.773.82.773 1.054 0 .282-.293.446-.878.492l-15.926.95Zm-9.563 24.785c0-.211.27-.469.809-.774 2.062-1.195 3.785-2.496 5.168-3.902 1.406-1.406 2.566-3.082 3.48-5.027.914-1.969 1.653-4.348 2.215-7.137l-6.152.316a17.13 17.13 0 0 1-1.196.036c-.304 0-.55-.024-.738-.07a1.14 1.14 0 0 1-.527-.317 3.467 3.467 0 0 1-.703-.985c-.164-.351-.246-.585-.246-.703 0-.14.105-.21.316-.21h.21c.446.14.985.21 1.618.21h.352l22.183-1.125a6.824 6.824 0 0 0 1.617-.316c.141-.047.235-.07.282-.07.281 0 .691.234 1.23.703s.809.855.809 1.16c0 .258-.281.41-.844.457l-9.633.492-.211 12.13v.105c0 .585.141 1.02.422 1.3.281.258.68.422 1.195.492.54.07 1.313.106 2.321.106 1.406 0 2.648-.117 3.726-.352.399-.07.727-.293.985-.668.258-.375.504-1.03.738-1.968.234-.938.48-2.32.738-4.149.071-.468.164-.832.282-1.09.14-.28.281-.421.421-.421.258 0 .411.28.457.843.071.563.106 1.325.106 2.285 0 1.477-.07 2.989-.211 4.536-.07.773-.281 1.382-.633 1.828-.328.468-.996.832-2.004 1.09-.984.28-2.449.421-4.394.421-1.36 0-2.473-.07-3.34-.21-.867-.118-1.606-.458-2.215-1.02-.609-.54-.914-1.406-.914-2.602v-.105l.211-12.445-3.727.21c-.937 4.782-2.437 8.508-4.5 11.18-2.039 2.649-4.91 4.582-8.613 5.801-.281.094-.539.14-.773.14-.211 0-.317-.058-.317-.175Zm94.465-20.742c-.141 0-.328-.153-.562-.457-.235-.329-.34-.61-.317-.844.047-.188.082-.715.106-1.582.023-.586.035-1.617.035-3.094 0-1.031-.012-1.723-.035-2.074l-1.161.105c-.82.118-1.523.176-2.109.176-.164 0-.398-.129-.703-.387-.305-.257-.457-.445-.457-.562 0-.188.199-.258.598-.211.257.023 1.019.012 2.285-.035a114.49 114.49 0 0 1 3.761-.211c.399-.024.762-.059 1.09-.106.352-.07.598-.117.739-.14.211-.024.398 0 .562.07.164.07.316.164.457.281.164.094.293.164.387.211.211.14.316.27.316.387 0 .094-.058.188-.176.281a.512.512 0 0 1-.316.106c-.117 0-.281-.012-.492-.035a5.154 5.154 0 0 0-.633-.036c-.867 0-1.758.024-2.672.07-.023.188-.035.657-.035 1.407-.047 1.266-.07 2.508-.07 3.727v1.687c0 .399-.035.656-.106.774-.211.328-.375.492-.492.492Zm-3.762 6.222c-.257 0-.574-.199-.949-.597-.281-.282-.422-.492-.422-.633 0-.07.047-.106.141-.106a1.48 1.48 0 0 1 .351-.035l.774-.035c.445 0 .738-.012.879-.035.445 0 .82-.012 1.125-.035 2.015-.188 3.375-.34 4.078-.457a29.8 29.8 0 0 0 .949-.14c.281-.071.504-.106.668-.106.328 0 .656.164.984.492.258.258.387.469.387.633 0 .14-.082.234-.246.28-.117.024-.809.071-2.074.142-.703.023-1.57.082-2.602.175a92.491 92.491 0 0 0-2.707.282c-.14.023-.34.058-.597.105-.258.047-.504.07-.739.07Zm7.559 12.13c.047.093.129.234.246.421.117.188.176.41.176.668a.67.67 0 0 1-.281.563.938.938 0 0 1-.633.246c-.211 0-.387-.211-.528-.633-.07-.164-.129-.305-.175-.422a3.344 3.344 0 0 0-.071-.246 8.055 8.055 0 0 1-1.195.246c-.492.07-.844.129-1.055.176-1.125.21-1.898.363-2.32.457-.164.047-.34.094-.527.14-.188.07-.293.118-.317.141-.14.047-.246.07-.316.07-.188 0-.363-.082-.527-.246a1.91 1.91 0 0 1-.633-.843c-.024-.024-.035-.06-.035-.106 0-.047.058-.105.175-.176a2.68 2.68 0 0 1 .317-.14c.304-.164.843-.657 1.617-1.477l.949-.914-2.074-1.125c-.234-.07-.387-.152-.457-.246s-.106-.234-.106-.422c0-.14.024-.234.071-.281.07-.07.211-.176.422-.317.211-.14.421-.328.632-.562a4.3 4.3 0 0 1 .457-.457c.188-.164.364-.34.528-.527.703-.82 1.148-1.465 1.336-1.934.117-.234.211-.352.281-.352.047 0 .141.047.281.141.446.328.715.633.809.914v.105c0 .118-.059.212-.176.282-.117.07-.199.129-.246.176-.07.046-.422.386-1.055 1.02l-.633.632-.597.598c-.281.257-.422.41-.422.457 0 .07.035.128.105.175a.814.814 0 0 1 .211.141l1.477.703c.914-.914 1.441-1.453 1.582-1.617.609-.703.949-1.148 1.019-1.336a.788.788 0 0 0 .106-.176c.047-.094.094-.14.141-.14.07 0 .14.035.21.105.375.352.645.68.809.984.047.094.07.153.07.176 0 .047-.058.117-.175.211l-.282.211c-.82.68-1.781 1.57-2.882 2.672l-2.145 2.004c-.047.047-.07.094-.07.14 0 .047.023.083.07.106.047.023.117.023.211 0l4.113-.703a15.968 15.968 0 0 0-.422-1.406v-.07c0-.071.035-.106.106-.106.094 0 .234.07.422.21.375.329.843.891 1.406 1.688Zm-33.82-12.622-.036 2.074c.141-.023.329-.023.563 0a.715.715 0 0 1 .316 0h.317c2.414.211 5.332.563 8.754 1.055.375.047.656.164.843.352.188.187.282.375.282.562-.071.774-.469 1.125-1.196 1.055-.234-.047-.679-.082-1.336-.106-.046 0-.55-.082-1.511-.246-2.907-.468-4.969-.75-6.188-.843-.445-.047-.75-.106-.914-.176-.07 1.453-.211 2.73-.422 3.832h.106c1.547 0 3.422-.082 5.625-.246l1.125-.106c3.14-.234 5.484-.445 7.031-.633l-.07-7.172-13.289.598Zm-7.77-5.941c0-.117.035-.246.106-.387 1.031-1.969 1.816-4.125 2.355-6.469.047-.258.117-.445.211-.562.094-.117.234-.176.422-.176.281 0 .597.094.949.281.352.164.527.364.527.598 0 .047-.023.187-.07.422l-.176.773 9.633-.527a13.945 13.945 0 0 0-1.652-1.723 73.557 73.557 0 0 1-1.09-1.02 1.585 1.585 0 0 1-.281-.28.376.376 0 0 1-.035-.352c.046-.234.21-.469.492-.703.304-.235.539-.328.703-.281.164.023.539.269 1.125.738s1.371 1.195 2.355 2.18c.352.28.493.574.422.878-.023.094-.117.258-.281.493l10.863-.598.352-.035c.328 0 .609.082.844.246.257.164.457.351.597.562.141.211.211.364.211.457 0 .188-.105.375-.316.563a1.943 1.943 0 0 0-.387.422c-1.125 1.476-2.039 2.566-2.742 3.27-.703.702-1.196 1.054-1.477 1.054-.164 0-.246-.094-.246-.281 0-.258.129-.598.387-1.02.703-1.172 1.266-2.262 1.687-3.27l-21.691 1.055a36.518 36.518 0 0 1-1.617 4.254c-.141.375-.363.563-.668.563a3.53 3.53 0 0 1-1.09-.422c-.281-.211-.422-.445-.422-.703Zm1.652 21.48c0-.258.106-.55.317-.879.914-1.265 1.629-2.472 2.144-3.62.516-1.15.903-2.485 1.161-4.009.257-1.546.386-3.445.386-5.695 0-.96-.023-1.64-.07-2.039-.023-.398-.094-.727-.211-.984-.141-.188-.211-.364-.211-.528 0-.047.023-.093.07-.14.047-.047.118-.07.211-.07.586 0 1.289.187 2.11.562l5.308-.246.071-5.098c0-.445-.164-.937-.493-1.476-.093-.165-.14-.293-.14-.387 0-.188.129-.281.386-.281.258 0 .692.093 1.301.28.492.141.809.282.949.423.141.14.211.34.211.597l-.211 5.836 6.504-.316.457-.035c.399 0 .739.164 1.02.492.281.305.422.55.422.738 0 .094-.024.211-.07.352a.863.863 0 0 0-.071.316l.106 13.852.035.914c0 .469-.176.867-.527 1.195-.305.281-.586.422-.844.422-.282 0-.938-.293-1.969-.879a26.898 26.898 0 0 1-2.848-1.828c-.89-.656-1.336-1.102-1.336-1.336 0-.14.106-.21.317-.21.258 0 .586.081.984.245 1.406.563 2.754.985 4.043 1.266l-.035-5.274c-1.406.493-3.539.985-6.398 1.477-2.86.492-4.793.738-5.801.738-.961 0-1.606-.422-1.934-1.265a12.911 12.911 0 0 1-1.476 3.55c-.657 1.078-1.325 1.934-2.004 2.567-.657.633-1.196.972-1.617 1.02-.165 0-.247-.083-.247-.247ZM157 12.594c0-.211.105-.446.316-.703.211-.258.422-.387.633-.387.188 0 .68.305 1.477.914a21.65 21.65 0 0 1 2.215 1.863c.703.656 1.054 1.09 1.054 1.301 0 .211-.14.457-.422.738-.281.305-.539.457-.773.457-.234 0-.492-.152-.773-.457a38.4 38.4 0 0 0-3.516-3.304c-.141-.141-.211-.282-.211-.422Zm10.758 4.148c0-.187.152-.433.457-.738a19.714 19.714 0 0 0 2.355-2.813c.68-.96 1.043-1.675 1.09-2.144a.594.594 0 0 0 .035-.246c0-.305.094-.457.282-.457.304 0 .703.234 1.195.703.516.445.773.82.773 1.125 0 .305-.621.984-1.863 2.039-1.219 1.031-2.309 1.828-3.27 2.39l-.175.106c-.235.14-.457.211-.668.211-.141 0-.211-.059-.211-.176Zm78.363-2.355c-.164 0-.34-.106-.527-.317a2.15 2.15 0 0 1-.282-.386c-.046-.118-.046-.27 0-.457l.036-.844c.023-.164.035-.563.035-1.195v-1.16l-1.055.492-1.23.527a10.87 10.87 0 0 0-.95.422c-.281.14-.527.21-.738.21a2.17 2.17 0 0 1-.562-.175 4.837 4.837 0 0 1-.493-.246c-.257-.164-.375-.34-.351-.527l.105-.352c0-.188.012-.352.036-.492l.035-2.04V5.95c0-.375-.024-.691-.071-.949-.047-.281-.082-.48-.105-.598 0-.117.035-.199.105-.246.024-.023.082-.035.176-.035.164 0 .481.106.949.316.399.188.563.422.493.704-.047.164-.094.41-.141.738l-.106 4.043c0 .117.012.21.036.281.046.047.093.07.14.07.282 0 .621-.082 1.02-.246.75-.234 1.394-.468 1.933-.703l.774-.316v-2.32c0-.938-.059-1.84-.176-2.708a.792.792 0 0 1-.035-.246c0-.234.094-.351.281-.351.024 0 .152.047.387.14.351.188.609.352.773.493.164.14.258.222.282.246.093.07.14.14.14.21a.34.34 0 0 1-.07.176c-.024.07-.047.13-.07.176l-.106 1.055-.035 3.234.035 3.13c0 .538-.035 1.007-.105 1.405-.118.493-.305.739-.563.739Zm-6.469 5.765c-.257 0-.574-.199-.949-.597-.281-.282-.422-.492-.422-.633 0-.07.047-.106.141-.106a1.48 1.48 0 0 1 .351-.035l.774-.035c.445 0 .738-.012.879-.035.445 0 .82-.012 1.125-.035 2.015-.188 3.375-.34 4.078-.457a29.8 29.8 0 0 0 .949-.14c.281-.071.504-.106.668-.106.328 0 .656.164.984.492.258.258.387.469.387.633 0 .14-.082.234-.246.28-.117.024-.809.071-2.074.142-.703.023-1.57.082-2.602.175a92.491 92.491 0 0 0-2.707.282c-.14.023-.34.058-.597.105-.258.047-.504.07-.739.07Zm4.711 14.52c-.726 0-1.289-.024-1.687-.07a1.68 1.68 0 0 1-.949-.422c-.446-.328-.75-1.043-.915-2.145l-.105-1.125c0-.281-.023-.633-.07-1.055a5.987 5.987 0 0 0-.809.141 3.817 3.817 0 0 1-.246.106.965.965 0 0 1-.211.035.81.81 0 0 1-.457-.14c-.141-.095-.316-.27-.527-.528-.164-.211-.246-.352-.246-.422s.082-.117.246-.14c.164-.024.386-.036.668-.036.398 0 .914-.047 1.547-.14l-.036-.493c0-.937-.058-1.734-.175-2.39l-.036-.246c0-.329.129-.457.387-.387.281.094.539.21.774.351.187.094.316.188.386.282.071.07.094.175.071.316l-.106 1.512v.914l3.094-.317c0-.164.012-.55.035-1.16.024-.633.024-1.043 0-1.23 0-.188-.023-.363-.07-.527a6.529 6.529 0 0 0-.071-.458c0-.187.094-.28.282-.28.187 0 .422.105.703.316.328.21.539.398.633.562.117.164.14.363.07.598a6.4 6.4 0 0 0-.246 1.265c-.047.47-.07.75-.07.844.281-.023.539-.058.773-.105.234-.047.387-.07.457-.07.188-.047.41-.071.668-.071.141.023.34.164.598.422.211.281.316.504.316.668 0 .234-.223.328-.668.281a6.863 6.863 0 0 0-1.195-.105c-.399 0-.738.011-1.02.035-.07.844-.211 1.676-.422 2.496a.953.953 0 0 1-.246.457c-.117.14-.222.21-.316.21-.164 0-.27-.07-.317-.21a3.524 3.524 0 0 1-.035-.598c.047-.61.071-1.37.071-2.285a26.99 26.99 0 0 0-1.477.14 9.357 9.357 0 0 1-1.512.212c-.023.96.024 1.816.141 2.566.07.492.211.832.422 1.02.14.117.305.187.492.21.211.024.422.036.633.036h.422c.726 0 1.406-.035 2.039-.106a1.52 1.52 0 0 0 .492-.14c.164-.07.281-.106.352-.106.21 0 .421.07.632.211.211.14.317.305.317.492 0 .188-.106.328-.317.422-.187.094-.492.176-.914.246-.75.094-1.5.14-2.25.14Zm10.02-15.996c.281 0 .422.129.422.387 0 .14-.129.34-.387.597-.703.867-2.098 2.52-4.184 4.957-.164.211-.316.317-.457.317-.117 0-.375-.176-.773-.528-.328-.281-.492-.515-.492-.703 0-.21.176-.41.527-.598.539-.304 1.348-.914 2.426-1.828 1.078-.96 1.875-1.722 2.39-2.285.211-.21.387-.316.528-.316Zm-44.684 11.496c2.086-.656 3.949-1.371 5.59-2.145a25.586 25.586 0 0 0-1.336-1.687c-.187-.235-.281-.422-.281-.563 0-.258.152-.48.457-.668.305-.21.539-.316.703-.316.188 0 .387.117.598.352a137.853 137.853 0 0 1 3.41 4.148c.937 1.195 1.406 1.922 1.406 2.18 0 .21-.164.457-.492.738-.305.305-.598.457-.879.457-.234 0-.469-.188-.703-.563a96.435 96.435 0 0 0-1.828-2.671l-4.219 2.109c-.469.21-1.207.586-2.215 1.125-.844.445-1.359.668-1.547.668-.14 0-.316-.094-.527-.281a1.65 1.65 0 0 1-.492-.633c-.094-.234-.094-.422 0-.563.14-.257.211-1.289.211-3.093V16.602c0-.563-.024-1.02-.071-1.372a3.587 3.587 0 0 0-.281-1.125 1.37 1.37 0 0 0-.07-.175.305.305 0 0 1-.035-.14c0-.118.082-.177.246-.177.304 0 1.066.258 2.285.774l7.629-.528c.187-.023.398-.035.633-.035.257 0 .562.117.914.352.351.21.527.445.527.703 0 .094-.059.234-.176.422-.094.187-.14.328-.14.422l-.914 6.609c.562.656.843 1.102.843 1.336 0 .117-.07.2-.211.246-.117.047-.304.07-.562.07l-8.508.317.035 5.87Zm-5.765-15.785c0-.235.152-.516.457-.844 1.711-1.898 3.199-3.785 4.464-5.66 1.266-1.875 1.899-3.13 1.899-3.762l-.035-.246V3.77c0-.329.129-.493.386-.493.305 0 .727.211 1.266.633.563.399.844.727.844.985 0 .117-.059.27-.176.457a23.895 23.895 0 0 1-1.16 1.687l4.992-.387a4.872 4.872 0 0 0 1.336-.28c.141-.048.246-.071.316-.071.352 0 .727.199 1.125.597.422.375.633.668.633.88 0 .28-.258.445-.773.492l-6.012.421c.164.047.527.293 1.09.739.586.445 1.113.902 1.582 1.37.469.47.703.798.703.985 0 .211-.141.469-.422.774-.281.28-.527.421-.738.421-.188 0-.41-.152-.668-.457a21.796 21.796 0 0 0-2.426-2.285c-.281-.234-.422-.433-.422-.597 0-.118.059-.27.176-.457.117-.188.27-.34.457-.457l-2.355.175a34.406 34.406 0 0 1-3.727 3.903c-1.359 1.195-2.226 1.793-2.601 1.793-.141 0-.211-.07-.211-.211Zm12.656 3.656.246-2.461-7.242.492v2.32l6.996-.351Zm-.457 4.36.281-2.708-6.785.317v2.636l6.504-.246Zm1.898-9.528c0-.234.153-.516.457-.844 1.149-1.383 2.192-2.941 3.129-4.676.961-1.757 1.442-2.988 1.442-3.69v-.142c0-.351.129-.527.386-.527.164 0 .41.094.739.281.351.164.668.364.949.598.281.234.422.469.422.703 0 .211-.164.586-.493 1.125-.328.54-.503.82-.527.844l6.926-.563a6.483 6.483 0 0 0 1.336-.246c.047-.023.141-.035.281-.035.328 0 .68.188 1.055.563.398.351.597.644.597.879 0 .14-.07.257-.21.351-.118.07-.282.117-.493.14l-7.136.493c.656.422 1.429 1.043 2.32 1.863.891.797 1.336 1.336 1.336 1.617 0 .164-.129.422-.387.774-.258.328-.504.492-.738.492-.188 0-.387-.117-.598-.352-1.148-1.242-2.191-2.226-3.129-2.953-.234-.187-.351-.363-.351-.527 0-.188.176-.469.527-.844l-2.601.176c-.774 1.031-1.711 2.074-2.813 3.129-1.078 1.055-1.805 1.582-2.18 1.582-.164 0-.246-.07-.246-.211Zm3.305.773c0-.14.082-.21.246-.21.352 0 1.148.292 2.391.878l7.066-.597.281-.035c.094 0 .27.046.528.14.281.07.539.2.773.387.258.164.387.387.387.668 0 .094-.035.223-.106.387-.07.164-.105.28-.105.351a88.243 88.243 0 0 1-.492 8.262l-.071.879c-.07.984-.164 1.805-.281 2.46-.117.657-.316 1.173-.598 1.548-.445.609-.925.914-1.441.914s-1.172-.317-1.969-.95a18.576 18.576 0 0 1-2.215-2.074c-.656-.75-.984-1.23-.984-1.441 0-.164.094-.246.281-.246.211 0 .504.117.879.351.867.54 1.594.973 2.18 1.301.586.328 1.008.492 1.266.492.117 0 .199-.082.246-.246.539-3 .867-6.762.984-11.285l-6.609.492c0 3.961.035 10.242.105 18.844 0 .21-.058.363-.176.457a.466.466 0 0 1-.386.176c-.188 0-.411-.07-.668-.211-.446-.188-.762-.363-.95-.528-.187-.164-.281-.351-.281-.562l.035-.246c.141-.773.211-1.64.211-2.602l-.105-14.836c0-.609-.024-1.078-.07-1.406a3.306 3.306 0 0 0-.211-.95c-.094-.28-.141-.468-.141-.562ZM65.156 70.281c-.687-.25-1.01-.52-.969-.812.126-.875.188-1.875.188-3 0-.5-.01-.865-.031-1.094-.021-.27-.042-.5-.063-.688-.02-.208-.02-.322 0-.343a.424.424 0 0 1 .313-.125c.187 0 .416.083.687.25.292.166.438.333.438.5 0 .104-.01.208-.031.312-.021.084-.032.177-.032.281l-.187 3.094c0 .167.062.271.187.313h.156c.167 0 .282-.01.344-.031l4.031-.563v-.813c0-1.02-.02-1.812-.062-2.374-.02-.48-.073-.865-.156-1.157-.063-.333.02-.5.25-.5.166 0 .385.063.656.188.333.166.531.312.594.437.062.104.083.271.062.5-.041.375-.062.938-.062 1.688l.031 2.375c0 .5-.094.896-.281 1.187-.104.125-.209.188-.313.188-.104 0-.25-.094-.437-.281a1.83 1.83 0 0 1-.156-.188.416.416 0 0 0-.188-.156.81.81 0 0 0-.25-.031c-.48.041-1.635.197-3.469.468-.312.042-.562.125-.75.25-.208.104-.344.156-.406.156l-.094-.03ZM69.125 77c-.208.27-.427.406-.656.406-.063 0-.094-.052-.094-.156 0-.146.042-.313.125-.5l.625-1.25c.02-.083.052-.167.094-.25a1.71 1.71 0 0 0 .094-.219V75c0-.042-.032-.083-.094-.125a.263.263 0 0 0-.219-.031c-.333.02-.833.073-1.5.156-.646.083-1.125.167-1.438.25l-.468.156a1.222 1.222 0 0 1-.406.094c-.376 0-.688-.115-.938-.344a1.928 1.928 0 0 1-.469-.437l-.062-.156c0-.105.177-.136.531-.094.48.041 1.469-.021 2.969-.188l.625-.094c.166-.02.427-.052.781-.093.375-.063.667-.125.875-.188l.188-.062a.503.503 0 0 1 .218-.063c.104 0 .23.052.375.156.167.105.302.198.406.282.146.104.24.198.282.281.062.063.083.146.062.25 0 .104-.052.198-.156.281a2.954 2.954 0 0 0-.219.188c-.041.062-.187.219-.437.469-.104.166-.292.395-.563.687-.25.292-.427.5-.531.625Zm-1.563 6.156c0-.062.105-.219.313-.469.23-.27.406-.479.531-.624.313-.417.688-1.021 1.125-1.813.459-.792.719-1.313.781-1.563.042-.124-.02-.187-.187-.187-.333 0-1.25.094-2.75.281-.98.125-1.708.25-2.188.375a.602.602 0 0 1-.312.094c-.167 0-.344-.115-.531-.344a.827.827 0 0 1-.125-.406c0-.083.052-.167.156-.25l.094-.125c.062-.125.135-.292.219-.5.083-.208.156-.406.218-.594.104-.333.177-.698.219-1.094.02-.229.146-.291.375-.187.292.146.51.292.656.438.167.124.219.218.156.28-.208.25-.374.532-.5.844a8.36 8.36 0 0 0-.187.657c0 .083.052.125.156.125.313 0 .781-.052 1.406-.156l1.313-.157c.52-.062.938-.125 1.25-.187l.781-.156a.814.814 0 0 1 .25-.032.5.5 0 0 1 .313.125c.104.063.219.146.344.25.208.188.343.344.406.469.062.104.094.23.094.375 0 .083-.063.188-.188.313-.104.124-.23.322-.375.593-.604 1.23-1.385 2.26-2.344 3.094-.27.208-.573.385-.906.531a3.69 3.69 0 0 1-.406.094c-.104 0-.156-.031-.156-.094Zm10-14.437c.25 0 .376.114.376.344 0 .124-.115.302-.344.53-.625.772-1.865 2.24-3.719 4.407-.146.188-.281.281-.406.281-.104 0-.334-.156-.688-.469-.291-.25-.437-.458-.437-.624 0-.188.156-.365.469-.532.479-.27 1.197-.812 2.156-1.625.958-.854 1.666-1.531 2.125-2.031.187-.188.344-.281.469-.281Zm-37.218-4.375c-.23.02-.521.031-.875.031h-.313c-.291-.042-.5-.094-.625-.156-.208-.146-.427-.386-.656-.719-.23-.354-.344-.646-.344-.875 0-.146.063-.219.188-.219.083 0 .156.01.218.032.376.104.834.156 1.376.156h.406l12.187-.782c.48-.041.948-.135 1.407-.28a.537.537 0 0 1 .218-.032c.271 0 .625.208 1.063.625.458.417.687.73.687.938 0 .25-.26.395-.781.437l-14.156.844Zm-8.5 22.031c0-.188.24-.417.718-.688 1.834-1.062 3.365-2.218 4.594-3.468 1.25-1.25 2.282-2.74 3.094-4.469.813-1.75 1.469-3.865 1.969-6.344l-5.469.281c-.292.021-.646.032-1.063.032-.27 0-.49-.021-.656-.063a1.012 1.012 0 0 1-.468-.281c-.271-.27-.48-.563-.626-.875-.145-.313-.218-.52-.218-.625 0-.125.093-.188.281-.188h.188c.395.126.874.188 1.437.188h.313l19.718-1c.521-.042 1-.135 1.438-.281.125-.042.208-.063.25-.063.25 0 .614.209 1.093.625.48.417.72.76.72 1.031 0 .23-.25.365-.75.407l-8.563.437-.188 10.781v.094c0 .521.125.906.375 1.156.25.23.604.376 1.063.438.479.063 1.166.094 2.062.094 1.25 0 2.354-.104 3.313-.313.354-.062.646-.26.875-.594.229-.333.448-.916.656-1.75.208-.833.427-2.062.656-3.687.063-.417.146-.74.25-.969.125-.25.25-.375.375-.375.23 0 .365.25.407.75.062.5.093 1.177.093 2.031 0 1.313-.062 2.657-.187 4.032-.063.687-.25 1.229-.563 1.625-.291.416-.885.74-1.781.969-.875.25-2.177.374-3.906.374-1.209 0-2.198-.062-2.969-.187-.77-.104-1.427-.406-1.969-.906-.541-.48-.812-1.25-.812-2.313v-.094l.187-11.062-3.312.188c-.834 4.25-2.167 7.562-4 9.937-1.813 2.354-4.365 4.073-7.657 5.156-.25.084-.479.125-.687.125-.188 0-.281-.052-.281-.156Zm83.968-18.438c-.124 0-.291-.135-.5-.406-.208-.291-.302-.541-.281-.75.042-.166.073-.635.094-1.406.021-.52.031-1.438.031-2.75a34.2 34.2 0 0 0-.031-1.844l-1.031.094c-.729.104-1.354.156-1.875.156-.146 0-.354-.114-.625-.343-.271-.23-.406-.396-.406-.5 0-.167.177-.23.531-.188.229.02.906.01 2.031-.031 1.542-.104 2.656-.167 3.344-.188.354-.02.677-.052.968-.093.313-.063.532-.105.657-.126a.98.98 0 0 1 .5.063c.146.063.281.146.406.25.146.083.26.146.344.188.187.124.281.24.281.343 0 .084-.052.167-.156.25a.458.458 0 0 1-.282.094c-.104 0-.25-.01-.437-.031a4.56 4.56 0 0 0-.563-.032c-.77 0-1.562.021-2.374.063-.021.167-.032.583-.032 1.25a90.987 90.987 0 0 0-.062 3.313v1.499c0 .355-.032.584-.094.688-.188.292-.333.438-.438.438Zm-3.343 5.532c-.229 0-.511-.177-.844-.531-.25-.25-.375-.438-.375-.563 0-.063.042-.094.125-.094.083-.02.187-.031.313-.031l.687-.031c.396 0 .656-.01.781-.031.396 0 .729-.01 1-.032 1.792-.166 3-.302 3.625-.406.313-.042.594-.083.844-.125.25-.063.448-.094.594-.094.291 0 .583.146.875.438.229.229.344.416.344.562 0 .125-.073.209-.219.25-.104.021-.719.063-1.844.125-.625.021-1.396.073-2.313.156-.916.084-1.718.167-2.406.25-.125.021-.302.053-.531.094a3.668 3.668 0 0 1-.656.063Zm6.719 10.781c.041.083.114.208.218.375s.156.365.156.594a.593.593 0 0 1-.25.5.83.83 0 0 1-.562.219c-.188 0-.344-.188-.469-.563-.062-.146-.114-.27-.156-.375a3.005 3.005 0 0 0-.063-.219A7.13 7.13 0 0 1 117 85c-.438.063-.75.115-.938.156-1 .188-1.687.323-2.062.406-.146.042-.302.084-.469.126-.166.062-.26.104-.281.124a.993.993 0 0 1-.281.063c-.167 0-.323-.073-.469-.219a1.697 1.697 0 0 1-.562-.75c-.021-.02-.032-.052-.032-.094 0-.041.052-.093.156-.156.126-.062.219-.104.282-.125.271-.146.75-.583 1.437-1.312l.844-.813-1.844-1c-.208-.062-.343-.135-.406-.219-.063-.083-.094-.208-.094-.374 0-.126.021-.209.063-.25.062-.063.187-.157.375-.282a3.03 3.03 0 0 0 .562-.5c.104-.125.24-.26.407-.406.166-.146.322-.302.468-.469.625-.729 1.021-1.302 1.188-1.719.104-.208.187-.312.25-.312.041 0 .125.042.25.125.396.292.635.563.718.813v.093c0 .104-.052.188-.156.25a1.182 1.182 0 0 0-.218.156c-.063.042-.376.344-.938.907l-.562.562-.532.531c-.25.23-.375.365-.375.407 0 .062.031.114.094.156a.717.717 0 0 1 .187.125l1.313.625c.813-.813 1.281-1.292 1.406-1.438.542-.624.844-1.02.907-1.187a.738.738 0 0 0 .093-.156c.042-.084.084-.125.125-.125.063 0 .125.031.188.094.333.312.573.604.718.874a.544.544 0 0 1 .063.157c0 .041-.052.104-.156.187l-.25.188c-.729.604-1.584 1.396-2.563 2.375L114 84.375c-.042.042-.062.083-.062.125 0 .042.02.073.062.094.042.02.104.02.188 0l3.656-.625a14.109 14.109 0 0 0-.375-1.25v-.063c0-.062.031-.094.093-.094.084 0 .209.063.376.188.333.292.75.792 1.25 1.5ZM89.125 73.031l-.031 1.844c.125-.02.291-.02.5 0a.64.64 0 0 1 .281 0h.281c2.146.188 4.74.5 7.781.938.334.041.584.145.75.312.167.167.25.333.25.5-.062.688-.416 1-1.062.938-.208-.042-.604-.073-1.188-.094-.041 0-.49-.073-1.343-.219-2.584-.417-4.417-.667-5.5-.75-.396-.042-.667-.094-.813-.156-.062 1.291-.187 2.427-.375 3.406h.094c1.375 0 3.042-.073 5-.219l1-.094c2.792-.208 4.875-.395 6.25-.562l-.062-6.375-11.813.531Zm-6.906-5.281c0-.104.031-.219.094-.344.916-1.75 1.614-3.666 2.093-5.75.042-.229.104-.396.188-.5.083-.104.208-.156.375-.156.25 0 .531.083.844.25.312.146.468.323.468.531 0 .042-.02.167-.062.375l-.156.688 8.562-.469c-.396-.5-.885-1.01-1.469-1.531a65.35 65.35 0 0 1-.969-.907 1.413 1.413 0 0 1-.25-.25.337.337 0 0 1-.03-.312c.04-.208.187-.417.437-.625.27-.208.479-.292.625-.25.146.02.479.24 1 .656.52.417 1.219 1.063 2.094 1.938.312.25.437.51.374.781-.02.083-.104.23-.25.438l9.657-.532.312-.031c.292 0 .542.073.75.219.229.146.406.312.532.5.124.187.187.323.187.406 0 .167-.094.333-.281.5-.167.146-.282.27-.344.375-1 1.313-1.812 2.281-2.438 2.906-.624.625-1.062.938-1.312.938-.146 0-.219-.084-.219-.25 0-.23.115-.531.344-.906.625-1.042 1.125-2.01 1.5-2.907l-19.281.938a32.365 32.365 0 0 1-1.438 3.781c-.125.333-.323.5-.594.5a3.131 3.131 0 0 1-.968-.375c-.25-.188-.375-.396-.375-.625Zm1.469 19.094c0-.23.093-.49.28-.781.813-1.126 1.449-2.198 1.907-3.22.458-1.02.802-2.208 1.031-3.562.23-1.375.344-3.062.344-5.062 0-.854-.02-1.459-.063-1.813-.02-.354-.083-.646-.187-.875-.125-.166-.188-.323-.188-.469 0-.041.021-.083.063-.124.042-.042.104-.063.188-.063.52 0 1.145.167 1.874.5l4.72-.219.062-4.531c0-.396-.146-.833-.438-1.313-.083-.145-.125-.26-.125-.343 0-.167.115-.25.344-.25.23 0 .615.083 1.156.25.438.125.719.25.844.375s.188.302.188.531l-.188 5.188 5.781-.282.407-.031c.354 0 .656.146.906.438.25.27.375.49.375.656 0 .083-.021.187-.063.312a.78.78 0 0 0-.062.281l.094 12.313.031.813c0 .416-.157.77-.469 1.062-.271.25-.521.375-.75.375-.25 0-.833-.26-1.75-.781-.896-.5-1.74-1.042-2.531-1.625-.792-.584-1.188-.98-1.188-1.188 0-.125.094-.187.281-.187.23 0 .521.073.876.219a22.8 22.8 0 0 0 3.593 1.124L101 79.876c-1.25.438-3.146.875-5.688 1.313-2.541.437-4.26.656-5.156.656-.854 0-1.427-.375-1.719-1.125a11.475 11.475 0 0 1-1.312 3.156c-.583.958-1.177 1.719-1.781 2.281-.584.563-1.063.865-1.438.906-.146 0-.219-.072-.219-.218ZM87 66.75c0-.188.094-.396.281-.625.188-.23.375-.344.563-.344.166 0 .604.271 1.312.813a19.22 19.22 0 0 1 1.969 1.656c.625.583.938.969.938 1.156 0 .188-.126.406-.376.656-.25.271-.479.407-.687.407-.208 0-.438-.136-.688-.406a34.022 34.022 0 0 0-3.124-2.938C87.061 67 87 66.875 87 66.75Zm9.563 3.688c0-.167.135-.386.406-.657a17.531 17.531 0 0 0 2.094-2.5c.604-.854.927-1.49.968-1.906a.535.535 0 0 0 .031-.219c0-.27.084-.406.25-.406.271 0 .626.208 1.063.625.458.396.687.73.687 1s-.552.875-1.656 1.813c-1.083.916-2.052 1.624-2.906 2.124l-.156.094a1.16 1.16 0 0 1-.594.188c-.125 0-.188-.052-.188-.156Zm69.656-2.094c-.146 0-.302-.094-.469-.281a1.928 1.928 0 0 1-.25-.344c-.042-.104-.042-.24 0-.406l.031-.75c.021-.146.031-.5.031-1.063v-1.031l-.937.437-1.094.469c-.271.104-.552.23-.843.375-.25.125-.469.188-.657.188a1.933 1.933 0 0 1-.5-.157 4.225 4.225 0 0 1-.437-.219c-.229-.145-.334-.302-.313-.468l.094-.313c0-.166.01-.312.031-.437l.032-1.813v-1.687c0-.334-.021-.615-.063-.844-.042-.25-.073-.427-.094-.531 0-.104.031-.177.094-.219.021-.02.073-.031.156-.031.146 0 .427.093.844.281.354.167.5.375.437.625a5.354 5.354 0 0 0-.124.656l-.094 3.594c0 .104.01.188.031.25.042.042.083.063.125.063.25 0 .552-.073.906-.22.667-.208 1.24-.416 1.719-.624l.687-.282V61.5c0-.833-.052-1.635-.156-2.406a.689.689 0 0 1-.031-.219c0-.208.083-.313.25-.313.021 0 .135.042.344.126.312.166.541.312.687.437.146.125.229.198.25.219.084.062.125.125.125.187a.308.308 0 0 1-.062.157 1.21 1.21 0 0 1-.063.156l-.094.937-.031 2.875.031 2.782c0 .479-.031.895-.093 1.25-.104.437-.271.656-.5.656Zm-5.75 5.125c-.229 0-.511-.177-.844-.531-.25-.25-.375-.438-.375-.563 0-.063.042-.094.125-.094.083-.02.187-.031.313-.031l.687-.031c.396 0 .656-.01.781-.031.396 0 .729-.01 1-.032 1.792-.166 3-.302 3.625-.406.313-.042.594-.083.844-.125.25-.063.448-.094.594-.094.291 0 .583.146.875.438.229.229.344.416.344.562 0 .125-.073.209-.219.25-.104.021-.719.063-1.844.125-.625.021-1.396.073-2.313.156-.916.084-1.718.167-2.406.25-.125.021-.302.053-.531.094a3.668 3.668 0 0 1-.656.063Zm4.187 12.906c-.646 0-1.146-.02-1.5-.063a1.5 1.5 0 0 1-.844-.374c-.395-.292-.666-.928-.812-1.907l-.094-1c0-.25-.021-.562-.062-.937a5.304 5.304 0 0 0-.719.125c-.042.02-.115.052-.219.094a.857.857 0 0 1-.187.03.723.723 0 0 1-.407-.124c-.124-.084-.281-.24-.468-.469-.146-.188-.219-.313-.219-.375 0-.063.073-.104.219-.125.146-.02.344-.031.594-.031.354 0 .812-.042 1.374-.125l-.031-.438c0-.833-.052-1.541-.156-2.125l-.031-.219c0-.291.114-.406.344-.343.25.083.479.187.687.312.167.084.281.167.344.25.062.063.083.156.062.281l-.093 1.344v.813l2.75-.281c0-.146.01-.49.031-1.032.021-.562.021-.927 0-1.094 0-.166-.021-.322-.063-.468a5.898 5.898 0 0 0-.062-.406c0-.167.083-.25.25-.25.166 0 .375.093.625.28.291.188.479.355.562.5.104.147.125.324.063.532a5.704 5.704 0 0 0-.219 1.125c-.042.417-.063.667-.063.75.25-.02.48-.052.688-.094a2.75 2.75 0 0 1 .406-.062c.167-.042.365-.063.594-.063.125.021.302.146.531.375.188.25.281.448.281.594 0 .208-.197.292-.593.25a6.109 6.109 0 0 0-1.063-.094c-.354 0-.656.01-.906.031a13.34 13.34 0 0 1-.375 2.22.857.857 0 0 1-.219.406c-.104.124-.198.187-.281.187-.146 0-.24-.063-.281-.188a3.051 3.051 0 0 1-.032-.53c.042-.542.063-1.22.063-2.032-.563.042-1 .083-1.313.125a8.296 8.296 0 0 1-1.343.188c-.021.854.021 1.614.125 2.28.062.438.187.74.375.907a.83.83 0 0 0 .437.188c.188.02.375.03.563.03h.375c.646 0 1.25-.03 1.812-.093.167-.02.313-.063.438-.125.146-.063.25-.094.312-.094.188 0 .375.063.563.188.187.125.281.27.281.437 0 .167-.094.292-.281.375-.167.084-.438.156-.813.219-.666.083-1.333.125-2 .125Zm8.906-14.219c.25 0 .376.115.376.344 0 .125-.115.302-.344.531-.625.771-1.865 2.24-3.719 4.406-.146.188-.281.282-.406.282-.104 0-.334-.156-.688-.469-.291-.25-.437-.458-.437-.625 0-.188.156-.365.468-.531.48-.271 1.198-.813 2.157-1.625.958-.854 1.666-1.531 2.125-2.031.187-.188.344-.282.468-.282Zm-39.718 10.219c1.854-.583 3.51-1.219 4.968-1.906a22.66 22.66 0 0 0-1.187-1.5c-.167-.209-.25-.375-.25-.5 0-.23.135-.427.406-.594.271-.188.479-.281.625-.281.167 0 .344.104.532.312a123.676 123.676 0 0 1 3.031 3.688c.833 1.062 1.25 1.708 1.25 1.937 0 .188-.146.406-.438.656-.271.271-.531.407-.781.407-.208 0-.417-.167-.625-.5a84.419 84.419 0 0 0-1.625-2.375L136 83.594c-.417.187-1.073.52-1.969 1-.75.396-1.208.594-1.375.594-.125 0-.281-.084-.468-.25a1.463 1.463 0 0 1-.438-.563c-.083-.208-.083-.375 0-.5.125-.23.188-1.146.188-2.75V70.312a9.5 9.5 0 0 0-.063-1.218 3.197 3.197 0 0 0-.25-1 1.204 1.204 0 0 0-.063-.156.288.288 0 0 1-.031-.126c0-.104.073-.156.219-.156.271 0 .948.23 2.031.688l6.781-.469c.167-.02.355-.031.563-.031.229 0 .5.104.813.312.312.188.468.396.468.625 0 .084-.052.209-.156.375-.083.167-.125.292-.125.375l-.813 5.875c.5.584.75.98.75 1.188 0 .104-.062.177-.187.219-.104.041-.271.062-.5.062l-7.563.281.032 5.219Zm-5.125-14.031c0-.209.135-.459.406-.75 1.521-1.688 2.844-3.365 3.969-5.031 1.125-1.667 1.687-2.782 1.687-3.344L134.75 59v-.094c0-.291.115-.437.344-.437.271 0 .646.187 1.125.562.5.354.75.646.75.875 0 .104-.052.24-.157.407-.312.5-.656 1-1.031 1.5l4.438-.344c.375-.021.771-.104 1.187-.25a.992.992 0 0 1 .282-.063c.312 0 .645.177 1 .532.374.333.562.593.562.78 0 .25-.229.397-.688.438l-5.343.375c.146.042.469.26.969.657.52.395.989.802 1.406 1.218.416.417.625.709.625.875 0 .188-.125.417-.375.688-.25.25-.469.375-.656.375-.167 0-.365-.136-.594-.406a19.496 19.496 0 0 0-2.156-2.032c-.25-.208-.376-.385-.376-.531 0-.104.053-.24.157-.406.104-.167.239-.302.406-.407l-2.094.157c-1 1.229-2.104 2.385-3.312 3.468-1.209 1.063-1.979 1.594-2.313 1.594-.125 0-.187-.062-.187-.187Zm11.25 3.25.219-2.188-6.438.438v2.062l6.219-.312Zm-.407 3.875.25-2.406-6.031.28v2.344l5.781-.218ZM141.25 67c0-.208.135-.458.406-.75a25.378 25.378 0 0 0 2.782-4.156c.854-1.563 1.281-2.657 1.281-3.282v-.124c0-.313.114-.47.343-.47.146 0 .365.084.657.25.312.147.593.324.843.532.25.208.376.417.376.625 0 .188-.146.52-.438 1-.292.48-.448.73-.469.75l6.157-.5a5.76 5.76 0 0 0 1.187-.219.652.652 0 0 1 .25-.031c.292 0 .604.167.937.5.355.313.532.573.532.781 0 .125-.063.23-.188.313-.104.062-.25.104-.437.125l-6.344.437c.583.375 1.271.927 2.063 1.657.791.708 1.187 1.187 1.187 1.437 0 .146-.115.375-.344.688-.229.291-.448.437-.656.437-.167 0-.344-.104-.531-.313-1.021-1.104-1.948-1.979-2.782-2.624-.208-.167-.312-.323-.312-.47 0-.166.156-.416.469-.75l-2.313.157c-.687.917-1.521 1.844-2.5 2.781-.958.938-1.604 1.406-1.937 1.406-.146 0-.219-.062-.219-.187Zm2.938.688c0-.126.072-.188.218-.188.313 0 1.021.26 2.125.781l6.281-.531.25-.031c.084 0 .24.041.469.125.25.062.479.177.688.344.229.145.343.343.343.593a.954.954 0 0 1-.093.344c-.063.146-.094.25-.094.313a78.391 78.391 0 0 1-.437 7.343l-.063.781a21.686 21.686 0 0 1-.25 2.188c-.104.583-.281 1.042-.531 1.375-.396.542-.823.813-1.282.813-.458 0-1.041-.282-1.75-.844a16.51 16.51 0 0 1-1.968-1.844c-.584-.667-.875-1.094-.875-1.281 0-.146.083-.219.25-.219.187 0 .448.104.781.313.771.479 1.417.864 1.938 1.156.52.291.895.437 1.124.437.105 0 .178-.073.219-.219.479-2.666.771-6.01.875-10.03l-5.875.437c0 3.52.031 9.104.094 16.75 0 .187-.052.323-.156.406a.417.417 0 0 1-.344.156c-.167 0-.365-.062-.594-.187-.396-.167-.677-.323-.843-.469-.167-.146-.25-.313-.25-.5l.031-.219a12.99 12.99 0 0 0 .187-2.312l-.094-13.188c0-.541-.02-.958-.062-1.25a2.895 2.895 0 0 0-.188-.844c-.083-.25-.124-.416-.124-.5Zm68.156 6.468c-.334 0-.532-.166-.594-.5-.125-.354-.458-.791-1-1.312l.094-.125c.083.041.323.146.718.312.396.146.667.219.813.219h.281a.609.609 0 0 0 .219-.156c.25-.188.563-.615.937-1.281.271-.542.511-1.178.719-1.907.229-.729.344-1.281.344-1.656 0-.104-.083-.156-.25-.156l-1.187.062-.813.063-.531.031-.219.031c.146.104.24.198.281.281a.336.336 0 0 1 .094.25c0 .105-.125.396-.375.876-.208.458-.542.979-1 1.562-.375.5-.885 1.042-1.531 1.625-.625.563-1.094.854-1.406.875a.59.59 0 0 1-.188-.031.21.21 0 0 1-.062-.156c0-.021.166-.22.5-.594l.874-1.031c.626-.834 1.261-1.896 1.907-3.188.062-.167.031-.26-.094-.281-.125.02-.385.052-.781.094-.396.02-.75.083-1.063.187-.021 0-.093.031-.219.094a1.023 1.023 0 0 1-.312.062.422.422 0 0 1-.312-.125l-.25-.219c-.188-.145-.282-.28-.282-.406 0-.041.021-.104.063-.187l.156-.25c.083-.104.219-.271.406-.5.188-.23.396-.542.625-.938.042-.083.125-.27.25-.562.146-.292.219-.469.219-.531v-.126c0-.124.021-.208.063-.25.041-.041.135-.041.281 0 .146.042.323.157.531.344l.344.344a.302.302 0 0 1 .094.219c0 .208-.292.583-.876 1.125a3.58 3.58 0 0 0-.374.469c-.146.208-.219.343-.219.406 0 .125.093.166.281.125l.719-.094c1.646-.25 2.885-.396 3.719-.438l.843-.124.281-.063.157-.031c.166 0 .281.02.343.062a.667.667 0 0 1 .188.219c.062.083.125.156.188.219.145.166.25.312.312.437l.062.281-.062.126-.062.187a1.769 1.769 0 0 0-.094.313 2.198 2.198 0 0 1-.094.28c-.438 1.688-.948 3-1.531 3.938-.188.334-.511.667-.969 1-.438.334-.823.5-1.156.5Zm-.219 10.781c-1 0-1.833-.25-2.5-.75-.687-.562-1.031-1.218-1.031-1.968 0-.584.218-1.094.656-1.531.562-.48 1.271-.72 2.125-.72.042 0 .073-.04.094-.124.041-.104.062-.24.062-.406l.031-.813c-.145.02-.427.052-.843.094a8.517 8.517 0 0 0-.875.125c.104-.021-.219.052-.969.219-.063.02-.177.03-.344.03-.396 0-.729-.176-1-.53-.125-.126-.187-.23-.187-.313 0-.125.187-.188.562-.188l.969-.062 2.656-.344V76.5a1.154 1.154 0 0 1-.031-.281.808.808 0 0 0-.031-.25 1.866 1.866 0 0 1-.063-.313c0-.146.073-.219.219-.219.187 0 .51.136.969.407.146.083.218.198.218.344 0 .104-.02.197-.062.28a.687.687 0 0 0-.031.22v.874l.937-.093 1.156-.125c.105-.021.219-.052.344-.094.146-.042.261-.063.344-.063.125 0 .281.063.469.188.354.23.531.427.531.594 0 .166-.177.25-.531.25-.104 0-.25.02-.438.062-.187.021-.427.042-.719.063l-2.093.156-.031 1.906c-.042.313-.271.51-.688.594h-.062c-.126 0-.25-.01-.376-.031a.717.717 0 0 0-.25-.063c-.166 0-.333.01-.5.031a.83.83 0 0 0-.437.188c-.354.313-.531.677-.531 1.094 0 .416.198.791.594 1.125.354.333.916.5 1.687.5 1.021-.042 1.854-.323 2.5-.844.271-.188.479-.281.625-.281.083 0 .188.02.312.062l.126.125c.062.063.093.125.093.188 0 .583-.489 1.062-1.469 1.437a6.24 6.24 0 0 1-2.187.406Zm-.344-24.687c.417 0 .771.146 1.063.438.312.27.468.635.468 1.093 0 .459-.156.834-.468 1.125-.292.271-.646.407-1.063.407-.416 0-.781-.136-1.093-.407-.292-.291-.438-.666-.438-1.125 0-.458.146-.823.438-1.093a1.55 1.55 0 0 1 1.093-.438Zm-30.75 24.469v.094c0 .458-.177.687-.531.687-.312 0-.656-.104-1.031-.313-.354-.187-.531-.458-.531-.812 0-.083.02-.208.062-.375.104-.48.156-.875.156-1.188l-.281-14.593c0-.25-.042-.51-.125-.781a2.606 2.606 0 0 0-.25-.72c-.146-.29-.219-.489-.219-.593 0-.125.104-.188.313-.188.396 0 1.094.188 2.094.563h.281c.854-1.625 1.469-2.875 1.843-3.75.376-.896.563-1.542.563-1.938a.945.945 0 0 0-.031-.28l-.032-.188c0-.25.126-.375.376-.375.291 0 .666.135 1.124.406.459.25.688.5.688.75 0 .333-.323 1.073-.969 2.219a60.219 60.219 0 0 1-1.812 3.062l4.406-.25h.375c.333 0 .594.073.781.219a.92.92 0 0 1 .375.438c.084.166.125.27.125.312 0 .063-.031.167-.093.313-.042.124-.063.229-.063.312l-.5 13.906c.5.646.75 1.104.75 1.375 0 .146-.073.25-.219.313a3.618 3.618 0 0 1-.687.094l-6.969.25.031 1.03Zm-.219-10.781 5.75-.282.157-5.781-6 .313.093 5.75Zm.157 8 5.343-.188.188-6.406-5.656.25.125 6.344Zm8.25-9.47c0-.228.104-.54.312-.937 1.063-1.937 2.031-4.094 2.907-6.469.895-2.395 1.343-3.968 1.343-4.718 0-.209-.01-.365-.031-.469l-.031-.25c0-.25.104-.375.312-.375.084 0 .292.083.625.25.354.146.667.333.938.563.291.229.437.458.437.687 0 .292-.219.969-.656 2.031a44.112 44.112 0 0 1-1.344 2.969l7.844-.469H202c.292 0 .562.104.812.313.271.208.407.458.407.75 0 .104-.021.229-.063.375-.021.125-.031.24-.031.344-.208 5.874-.583 11.03-1.125 15.468-.167 1.25-.417 2.25-.75 3-.312.75-.844 1.125-1.594 1.125-.375 0-.76-.135-1.156-.406-.667-.438-1.573-1.135-2.719-2.094-1.125-.937-1.687-1.552-1.687-1.844 0-.166.104-.25.312-.25.229 0 .479.084.75.25 1.542.855 2.875 1.49 4 1.907h.063c.125 0 .219-.084.281-.25.479-1.792.844-4.271 1.094-7.438.25-3.166.406-6.323.468-9.469l-7.843.5c-.875 1.521-1.677 2.76-2.407 3.72-.729.958-1.208 1.437-1.437 1.437-.104 0-.156-.084-.156-.25Zm2.687-.468c0-.188.104-.396.313-.625.229-.23.427-.344.593-.344.209 0 .459.146.75.438.834.791 1.813 1.844 2.938 3.156 1.146 1.292 1.719 2.083 1.719 2.375 0 .27-.167.542-.5.813-.334.25-.594.374-.781.374a.423.423 0 0 1-.313-.124 4.755 4.755 0 0 1-.344-.407 28.135 28.135 0 0 0-1.937-2.687 30.195 30.195 0 0 0-2.125-2.406c-.209-.209-.313-.396-.313-.563Zm64.563-3.844c-.229 0-.511-.177-.844-.531-.25-.25-.375-.438-.375-.563 0-.062.042-.093.125-.093.083-.021.187-.031.313-.031l.687-.032c.396 0 .656-.01.781-.031.396 0 .729-.01 1-.031 1.792-.167 3-.302 3.625-.406.313-.042.594-.084.844-.126.25-.062.448-.093.594-.093.291 0 .583.146.875.437.229.23.344.417.344.563 0 .125-.073.208-.219.25-.104.02-.719.062-1.844.125-.625.02-1.396.073-2.313.156-.916.083-1.718.167-2.406.25-.125.02-.302.052-.531.094a3.676 3.676 0 0 1-.656.062Zm7.343 14.188c-.02.02-.072.031-.156.031-.166 0-.406-.115-.718-.344a83.974 83.974 0 0 0-2.782-2.625 21.943 21.943 0 0 1-1.531 1.406 11.53 11.53 0 0 1-.875.563c-.604.354-1.188.573-1.75.656h-.188c-.187 0-.302-.02-.343-.062-.021-.021.021-.063.125-.125a2.84 2.84 0 0 0 .281-.156c.125-.063.479-.292 1.063-.688.291-.208.708-.563 1.25-1.063.541-.5.937-.906 1.187-1.218l-1.281-1a38.492 38.492 0 0 0-.75-.531 5.102 5.102 0 0 0-.532-.407l-.031-.094c0-.124.104-.187.313-.187.25 0 .656.156 1.218.469L259.906 78c.354-.458.709-.958 1.063-1.5.375-.563.573-.896.593-1 .021-.063.011-.115-.031-.156-.021-.063-.062-.094-.125-.094h-.625l-1.125.094a15.55 15.55 0 0 0-1.687.219c-.063.02-.167.052-.313.093a1.402 1.402 0 0 1-.375.063c-.041 0-.219-.115-.531-.344-.292-.25-.448-.406-.469-.469-.021-.02-.031-.052-.031-.094 0-.104.115-.145.344-.124h.437c.584 0 1.427-.053 2.531-.157l1.063-.094.969-.124c.312-.084.489-.126.531-.126h.063c.104 0 .197.032.281.094a.786.786 0 0 1 .187.188.953.953 0 0 0 .094.125l.188.187a.495.495 0 0 1 .187.25.383.383 0 0 1 .063.219c0 .188-.073.323-.219.406-.104.042-.292.26-.563.656-.458.73-1.01 1.51-1.656 2.344.354.23.812.563 1.375 1 .25.167.656.448 1.219.844.25.188.437.438.562.75.084.333.125.583.125.75-.021.167-.093.281-.219.344Zm5.75-13.625c.25 0 .376.114.376.344 0 .124-.115.302-.344.53-.625.772-1.865 2.24-3.719 4.407-.146.188-.281.281-.406.281-.104 0-.334-.156-.688-.469-.291-.25-.437-.458-.437-.624 0-.188.156-.365.468-.532.48-.27 1.198-.812 2.157-1.625.958-.854 1.666-1.531 2.125-2.031.187-.188.344-.281.468-.281ZM231.219 85.28v.156c0 .459-.177.688-.531.688-.271 0-.626-.125-1.063-.375-.417-.23-.625-.5-.625-.813l.031-.406c.021-.187.031-.49.031-.906 0-.354-.01-.635-.031-.844l-.937-13.312a5.748 5.748 0 0 0-.438-1.781c-.104-.25-.156-.428-.156-.532 0-.166.115-.25.344-.25.312 0 1.073.209 2.281.625l7.281-.375v-6.25c0-.458-.166-.896-.5-1.312-.146-.167-.218-.313-.218-.438 0-.187.166-.281.5-.281.187 0 .572.073 1.156.219.5.146.812.291.937.437.125.146.188.365.188.657l-.031 6.843 8.187-.437h.281c.5 0 .927.135 1.282.406.354.27.531.542.531.813 0 .104-.042.24-.125.406a.94.94 0 0 0-.094.344l-1.312 13.624c.583.646.874 1.094.874 1.344 0 .146-.083.25-.25.313a4.652 4.652 0 0 1-.781.094l-16.875.437.063.906ZM230.5 74.72l6.906-.344v-5.438l-7.281.376.375 5.406Zm.531 7.812 6.375-.156v-6.25l-6.781.344.406 6.062Zm15.219-.375.438-6.469-7.313.344-.031 6.313 6.906-.188Zm.562-8.219.376-5.5-7.75.407-.032 5.437 7.406-.344ZM308.531 72c-.333 0-.541-.094-.625-.281a4.346 4.346 0 0 0-.312-.625c-.104-.188-.292-.406-.563-.656l.063-.126c.75.271 1.239.407 1.468.407.167 0 .292-.031.376-.094.083-.063.218-.208.406-.438.271-.291.521-.74.75-1.343.312-.896.51-1.823.594-2.781v-.094c0-.125-.021-.209-.063-.25-.271 0-.99.062-2.156.187-.646 1.604-1.396 2.927-2.25 3.969-.834 1.02-1.594 1.531-2.281 1.531-.167 0-.25-.062-.25-.187 0-.042.208-.281.624-.719.417-.438.876-1.01 1.376-1.719.52-.729 1.01-1.625 1.468-2.687-.104 0-.406.02-.906.062a6.51 6.51 0 0 0-1.281.219.495.495 0 0 1-.531.063l-.063-.032a.488.488 0 0 1-.125-.094 1.359 1.359 0 0 1-.375-.312.831.831 0 0 1-.125-.406c0-.063.052-.146.156-.25l.375-.5c.125-.167.24-.406.344-.719.104-.333.156-.615.156-.844 0-.146-.01-.24-.031-.281a.346.346 0 0 1-.031-.156c0-.104.052-.157.156-.157.125 0 .302.073.531.22.063.04.177.124.344.25.188.103.292.228.312.374 0 .146-.083.386-.25.719l-.406.719a.39.39 0 0 0-.062.219c0 .062.021.114.062.156a.39.39 0 0 0 .219 0l1.875-.25a11.01 11.01 0 0 0 .5-1.719v-.718c0-.23.062-.324.188-.282.27.063.489.146.656.25.312.188.468.344.468.469 0 .104-.041.281-.124.531-.063.23-.115.406-.157.531-.021.084-.114.354-.281.813.062 0 .448-.042 1.156-.125l.313-.063c.062 0 .177-.02.343-.062a.35.35 0 0 1 .157-.031c.25 0 .406.01.469.03.083.022.208.084.374.188.188.125.313.25.376.375.062.125.083.271.062.438l-.188 1.031-.218 1.125c0 .083-.073.354-.219.813a7.464 7.464 0 0 1-.5 1.218c-.354.709-.771 1.24-1.25 1.594-.417.333-.781.5-1.094.5Zm-.062 10.531c0-.02.052-.094.156-.219a6.96 6.96 0 0 0 .406-.53c.25-.355.5-.876.75-1.563.25-.688.386-1.323.407-1.906 0-.042-.021-.084-.063-.126-.021-.062-.073-.093-.156-.093l-.719.062-1.062.094c-.23.75-.626 1.563-1.188 2.438-.25.395-.594.75-1.031 1.062-.417.292-.823.5-1.219.625a1.5 1.5 0 0 1-.469.063c-.146-.021-.219-.063-.219-.126 0-.083.073-.156.219-.218.25-.167.531-.427.844-.781.333-.355.625-.72.875-1.094.146-.209.302-.48.469-.813.166-.354.302-.677.406-.969-.667.084-1.354.24-2.063.47-.041.04-.114.062-.218.062-.063 0-.156-.042-.282-.125a4.054 4.054 0 0 1-.343-.375c-.042-.104-.021-.198.062-.281l.125-.25c.084-.126.167-.376.25-.75.084-.376.125-.678.125-.907a.908.908 0 0 0-.031-.219c0-.104.01-.156.031-.156.042-.02.094-.02.157 0 .229.042.437.115.624.219a.896.896 0 0 1 .344.344c.084.104.084.198 0 .281a.939.939 0 0 0-.094.125.404.404 0 0 0-.093.188c-.021.02-.063.25-.125.687 0 .02.01.042.031.063.042.02.083.02.125 0 .062 0 .156-.01.281-.032.125-.02.219-.041.281-.062a6.67 6.67 0 0 0 .5-.094 7.95 7.95 0 0 1 .563-.094c.063-.229.104-.479.125-.75.042-.291.073-.49.094-.594l.031-.656v-.219c-.667.021-1.365.084-2.094.188l-.562.094h-.125a.605.605 0 0 1-.313-.094 11.736 11.736 0 0 1-.281-.219c-.271-.25-.406-.437-.406-.562 0-.125.094-.167.281-.125.25.041.51.062.781.062l.906-.031 4.344-.313c.167-.02.323-.041.469-.062.146-.042.292-.073.437-.094h.094c.271 0 .459.052.563.156.125.084.198.136.219.157.333.27.5.479.5.625 0 .125-.178.177-.532.156l-.625-.063c-.541-.02-1.354 0-2.437.063l-.125 1.219a8.009 8.009 0 0 1-.063.5c-.021.125-.041.229-.062.312l-.032.094c.5-.042 1.084-.104 1.75-.188a.98.98 0 0 1 .219-.062 1.79 1.79 0 0 1 .313-.094h.062c.125 0 .25.052.375.156.125.105.198.167.219.188.167.146.281.27.344.375.083.083.094.156.031.219a1.713 1.713 0 0 1-.156.25.69.69 0 0 0-.094.219c-.104.874-.271 1.583-.5 2.124-.187.48-.396.844-.625 1.094a4.19 4.19 0 0 1-.781.656c-.125.084-.323.157-.594.22-.271.04-.406.04-.406 0Zm9.093-13.812c.25 0 .376.114.376.344 0 .124-.115.302-.344.53-.625.772-1.865 2.24-3.719 4.407-.146.188-.281.281-.406.281-.104 0-.334-.156-.688-.469-.291-.25-.437-.458-.437-.624 0-.188.156-.365.468-.532.48-.27 1.198-.812 2.157-1.625.958-.854 1.666-1.531 2.125-2.031.187-.188.344-.281.468-.281ZM285.25 75.75a32.095 32.095 0 0 1-5.156 4.813c-1.854 1.374-3.532 2.447-5.032 3.218-1.5.771-2.437 1.156-2.812 1.156-.188 0-.281-.062-.281-.187 0-.104.083-.25.25-.438.187-.187.448-.385.781-.593a55.648 55.648 0 0 0 6.781-5.063c2.209-1.916 4.031-3.927 5.469-6.031l.062-7.844-7.624.375-.719.031c-.459 0-.75-.062-.875-.187a2.47 2.47 0 0 1-.688-.813c-.146-.291-.218-.51-.218-.656 0-.125.072-.187.218-.187l.188.031c.5.083.906.125 1.218.125h.25l8.25-.438.032-3.187c0-.5-.094-.927-.282-1.281-.083-.146-.124-.26-.124-.344 0-.167.124-.25.374-.25.313 0 .73.094 1.25.281.521.188.782.49.782.907l-.032 3.78 7.063-.406c.521-.041.958-.124 1.313-.25l.156-.03c.25 0 .583.197 1 .593.416.396.625.688.625.875 0 .23-.261.365-.781.406l-9.376.5-.062 8.094a41.12 41.12 0 0 0 6.469 5.625 49.263 49.263 0 0 0 7.375 4.313c.333.166.5.302.5.406 0 .146-.282.416-.844.812-.542.396-.906.594-1.094.594-.271 0-1.125-.448-2.562-1.344-1.438-.916-3.063-2.083-4.875-3.5a46.895 46.895 0 0 1-4.969-4.469l-.094 11.5c0 .5-.177.75-.531.75-.104 0-.292-.041-.563-.124a2.21 2.21 0 0 1-.75-.407.774.774 0 0 1-.343-.656c0-.125.01-.219.031-.281.125-.646.188-1.26.188-1.844l.062-8.375Zm-10.594-.375c0-.23.167-.573.5-1.031a27.9 27.9 0 0 0 2.813-4.563c.833-1.646 1.25-2.812 1.25-3.5v-.094c0-.333.125-.5.375-.5.271 0 .646.198 1.125.594.5.375.75.677.75.906 0 .105-.115.407-.344.907-.229.479-.458.906-.687 1.281 1.562 1.23 2.552 2.052 2.968 2.469.438.396.656.698.656.906 0 .167-.104.427-.312.781-.208.334-.438.5-.688.5a.565.565 0 0 1-.468-.25c-.813-.875-1.854-1.844-3.125-2.906a28.348 28.348 0 0 1-1.938 2.469c-.646.708-1.219 1.26-1.719 1.656-.479.375-.802.563-.968.563-.125 0-.188-.063-.188-.188Zm13.906-1.781c0-.25.146-.563.438-.938.75-1.02 1.375-2.01 1.875-2.969.521-.979.906-1.822 1.156-2.53.25-.73.375-1.24.375-1.532 0-.375.125-.563.375-.563.104 0 .313.084.625.25.334.167.625.365.875.594.25.23.375.448.375.656 0 .084-.114.355-.344.813-.208.458-.479.948-.812 1.469a82.698 82.698 0 0 1 2.656 2.125c.688.541 1.115.916 1.282 1.125.187.208.281.396.281.562 0 .188-.115.469-.344.844-.229.354-.479.531-.75.531-.167 0-.333-.094-.5-.281-1.479-1.563-2.687-2.708-3.625-3.438-.792 1-1.552 1.834-2.281 2.5-.709.646-1.198.97-1.469.97-.125 0-.188-.063-.188-.188ZM38.2 112.418c-.165 0-.292-.036-.384-.109l-.136-.137a47.476 47.476 0 0 0-.657-1.203c-.346-.657-.601-1.103-.765-1.34-.347-.511-.52-.839-.52-.984 0-.201.119-.493.356-.875.364-.511.61-.921.738-1.231.237-.437.41-.775.52-1.012.109-.255.155-.455.136-.601a1.542 1.542 0 0 1-.027-.301c0-.073.018-.109.055-.109.036-.019.109-.009.218.027.183.055.392.182.63.383.054.054.118.127.19.219a.675.675 0 0 1 .137.246.229.229 0 0 1 .028.191c0 .055-.028.109-.082.164l-.137.109a14.33 14.33 0 0 0-.438.602c-.164.237-.319.456-.464.656l-.684.985c-.182.255-.273.437-.273.547 0 .054.082.2.246.437l.574.629c.547.601.802.884.766.848.346.346.52.683.52 1.011 0 .565-.183.848-.548.848Zm3.609-.082a.91.91 0 0 1-.41-.082 1.8 1.8 0 0 1-.438-.711l-.574-1.012-.547-.957c-.347-.474-.52-.793-.52-.957 0-.219.119-.501.356-.847l.437-.629c.183-.31.283-.493.301-.547.182-.365.337-.684.465-.957.146-.292.21-.511.191-.657a1.145 1.145 0 0 1-.027-.273c0-.146.082-.182.246-.109.237.091.492.237.766.437.127.128.21.237.246.328a.491.491 0 0 1 .082.301c0 .037-.064.109-.192.219a1.715 1.715 0 0 0-.328.301c-.11.109-.355.455-.738 1.039a8.452 8.452 0 0 1-.273.382c-.092.128-.21.301-.356.52-.182.237-.273.41-.273.52 0 .109.109.273.328.492.073.073.146.164.218.273l.329.328.71.793c.347.31.52.611.52.903 0 .601-.173.902-.52.902Zm-2.024 9.379c0-.018.046-.082.137-.192.11-.127.228-.282.355-.464.22-.31.438-.766.657-1.368.218-.601.337-1.157.355-1.668 0-.036-.018-.072-.055-.109-.018-.055-.063-.082-.136-.082l-.63.055-.929.082c-.2.656-.547 1.367-1.039 2.133-.219.346-.52.656-.902.929a3.95 3.95 0 0 1-1.067.547c-.11.037-.246.055-.41.055-.128-.018-.191-.055-.191-.11 0-.072.063-.136.191-.191.219-.146.465-.374.738-.684a7.23 7.23 0 0 0 .766-.957c.128-.182.264-.419.41-.711.146-.309.265-.592.356-.847a9.796 9.796 0 0 0-1.805.41c-.036.036-.1.055-.191.055-.055 0-.137-.037-.247-.11a3.552 3.552 0 0 1-.3-.328c-.037-.091-.019-.173.054-.246l.11-.219c.073-.109.146-.328.218-.656a3.84 3.84 0 0 0 .11-.793.8.8 0 0 0-.028-.191c0-.091.01-.137.028-.137.036-.018.082-.018.137 0 .2.036.382.1.546.191a.797.797 0 0 1 .301.301c.073.091.073.173 0 .246a.795.795 0 0 0-.082.11.343.343 0 0 0-.082.164c-.018.018-.054.218-.11.601 0 .018.01.037.028.055a.118.118 0 0 0 .11 0c.054 0 .136-.009.246-.027.109-.019.191-.037.246-.055.127-.018.273-.046.437-.082.183-.037.347-.064.492-.082.055-.201.091-.419.11-.656.036-.256.064-.429.082-.52l.027-.574v-.192c-.583.019-1.194.073-1.832.164l-.492.083h-.11a.526.526 0 0 1-.273-.083 8.368 8.368 0 0 1-.246-.191c-.237-.219-.355-.383-.355-.492 0-.109.082-.146.246-.109.218.036.446.054.683.054l.793-.027 3.801-.274c.146-.018.282-.036.41-.054.128-.037.255-.064.383-.082h.082c.237 0 .401.045.492.136.11.073.173.119.192.137.291.237.437.419.437.547 0 .109-.155.155-.465.137l-.547-.055c-.474-.018-1.185 0-2.133.055l-.109 1.066a7.254 7.254 0 0 1-.054.438c-.019.109-.037.2-.055.273l-.028.082a36.99 36.99 0 0 0 1.532-.164.898.898 0 0 1 .191-.055 1.67 1.67 0 0 1 .273-.082h.055c.11 0 .219.046.328.137.11.091.173.146.192.164.146.128.246.237.3.328.073.073.083.137.028.192a1.441 1.441 0 0 1-.137.218.614.614 0 0 0-.082.192c-.091.765-.237 1.385-.437 1.859-.164.419-.347.738-.547.957-.183.201-.41.392-.684.574-.11.073-.282.137-.52.192-.236.036-.355.036-.355 0Zm8.067-10.281c.054 0 .109.027.164.082a.264.264 0 0 1 .109.164v.054c0 .128-.1.374-.3.739l-1.97 3.418c-.145.31-.337.464-.574.464-.237 0-.437-.145-.601-.437a9.227 9.227 0 0 1-.602-1.066c-.11-.164-.2-.329-.273-.493a9.567 9.567 0 0 0-.164-.355c-.2-.346-.301-.593-.301-.738 0-.073.027-.128.082-.164.055-.055.11-.082.164-.082.2 0 .383.109.547.328.127.127.228.264.3.41l.301.41.547.629.246-.383c.256-.437.857-1.303 1.805-2.598.2-.255.374-.382.52-.382Zm-22.805 7.054c-1.112 1.422-2.279 2.616-3.5 3.582-1.221.966-2.315 1.687-3.281 2.16-.948.474-1.55.711-1.805.711-.164 0-.246-.054-.246-.164 0-.164.2-.382.601-.656 3.592-2.516 6.144-5.031 7.657-7.547-1.44-2.278-2.452-4.202-3.035-5.769-1.86 3.062-3.081 4.593-3.665 4.593-.09 0-.136-.054-.136-.164 0-.164.11-.437.328-.82a44.076 44.076 0 0 0 2.598-4.922c.838-1.823 1.503-3.472 1.996-4.949.51-1.495.765-2.488.765-2.981l-.027-.382v-.055c0-.146.082-.219.246-.219.219 0 .465.091.738.274.292.182.538.392.739.629.2.237.3.41.3.519 0 .128-.246.82-.738 2.078a48.493 48.493 0 0 1-1.422 3.309l6.617-.41c.328-.019.72-.11 1.176-.274a.91.91 0 0 1 .274-.054c.2 0 .419.091.656.273.237.164.437.365.601.602.183.218.274.373.274.464 0 .183-.2.292-.602.329l-2.433.136c-.784 2.844-1.905 5.442-3.364 7.793 1.933 2.68 4.348 5.077 7.246 7.192.183.145.274.264.274.355 0 .164-.2.374-.602.629-.4.273-.683.41-.847.41-.146 0-.638-.364-1.477-1.094-.82-.711-1.74-1.613-2.762-2.707a33.166 33.166 0 0 1-2.761-3.363l-.383.492Zm-15.45-13.89c0-.11.055-.164.165-.164.054 0 .1.009.136.027.274.073.675.109 1.204.109h.41l5.578-.382h.137c.437 0 .783.118 1.039.355.273.237.41.483.41.738a.957.957 0 0 1-.055.301 3.891 3.891 0 0 0-.082.273l-.71 4.54c.619.565.929.975.929 1.23 0 .237-.192.355-.574.355l-6.016.247-.137 7.41a24.045 24.045 0 0 0 1.696-.821 47.156 47.156 0 0 0 1.668-.902l1.148-.656c.401-.219.665-.328.793-.328s.219.036.273.109a.297.297 0 0 1 .082.219c0 .073-.045.155-.136.246-.091.091-.2.191-.328.301a35.67 35.67 0 0 1-.356.3c-1.094.985-2.142 1.805-3.144 2.461-.402.237-.957.602-1.668 1.094-.584.401-.948.611-1.094.629-.182.018-.392-.118-.63-.41-.236-.292-.309-.52-.218-.684.073-.146.137-.51.192-1.093.054-.602.082-1.049.082-1.34l.082-6.317v-.136c0-.602-.146-1.176-.438-1.723-.11-.219-.164-.365-.164-.438 0-.127.091-.191.274-.191.328 0 1.03.255 2.105.766l3.883-.164.574-4.813-4.648.383-.875.055c-.347 0-.638-.11-.875-.329-.22-.218-.438-.574-.657-1.066a1.14 1.14 0 0 1-.054-.191Zm12.852 4.593c.62 1.787 1.586 3.747 2.899 5.879 1.13-2.023 1.978-4.083 2.543-6.179l-5.442.3Zm58.817 0c-.146 0-.292-.027-.438-.082a.715.715 0 0 1-.328-.328c-.055-.164-.173-.355-.356-.574a2.074 2.074 0 0 0-.492-.492l.11-.137c.09.055.31.164.656.328.346.164.601.246.766.246a.99.99 0 0 0 .683-.273c.2-.182.456-.529.766-1.039.219-.347.42-.757.601-1.231.183-.474.32-.911.41-1.312l.028-.055c0-.054-.018-.1-.055-.137-.036-.054-.073-.082-.11-.082l-1.257.11c-.838.146-1.713.264-2.625.355a2.902 2.902 0 0 0-.574.137c-.219.073-.374.109-.465.109-.146 0-.337-.118-.574-.355a1.911 1.911 0 0 1-.274-.274c-.073-.109-.09-.2-.054-.273l.218-.219.137-.109c.255-.255.51-.593.766-1.012.182-.255.373-.683.574-1.285 0-.2.045-.301.137-.301.054 0 .145.037.273.11l.438.273c.109.091.182.164.218.219a.386.386 0 0 1 .055.219c0 .109-.073.246-.219.41a4.11 4.11 0 0 0-.383.437l-.629.903-.054.109c0 .055.073.082.219.082l2.105-.273 1.422-.11.547-.055.3-.054h.083c.182 0 .382.155.601.465.255.237.383.437.383.601l-.137.356c-.018.036-.164.464-.437 1.285-.328.784-.61 1.376-.848 1.777-.237.401-.492.711-.766.93-.492.401-.966.601-1.421.601Zm-2.98 4.594c-.201 0-.448-.155-.74-.465-.218-.218-.327-.382-.327-.492 0-.055.036-.082.11-.082.072-.018.163-.027.273-.027l.601-.028c.346 0 .574-.009.684-.027.346 0 .638-.009.875-.027 1.567-.146 2.625-.265 3.172-.356.273-.036.52-.073.738-.109a2.26 2.26 0 0 1 .52-.082c.255 0 .51.127.765.383.2.2.3.364.3.492 0 .109-.063.182-.19.219-.092.018-.63.054-1.614.109-.547.018-1.221.064-2.023.137-.802.073-1.504.146-2.106.218l-.465.082c-.2.037-.392.055-.574.055Zm4.073 6.098c-.182.237-.373.355-.574.355-.054 0-.082-.045-.082-.136a1.1 1.1 0 0 1 .11-.438l.546-1.094c.019-.073.046-.146.082-.218a1.48 1.48 0 0 0 .082-.192v-.027c0-.037-.027-.073-.082-.11a.233.233 0 0 0-.191-.027c-.292.018-.73.064-1.313.137-.565.073-.984.146-1.257.219l-.41.136a1.062 1.062 0 0 1-.356.082c-.328 0-.602-.1-.82-.3a1.705 1.705 0 0 1-.41-.383l-.055-.137c0-.091.155-.118.465-.082.419.036 1.285-.018 2.597-.164l.547-.082c.146-.018.374-.046.684-.082a6.79 6.79 0 0 0 .766-.164l.164-.055a.448.448 0 0 1 .191-.055c.091 0 .2.046.328.137.146.091.264.173.356.246.127.091.21.173.246.246.054.055.073.128.054.219 0 .091-.045.173-.136.246a2.743 2.743 0 0 0-.192.164 4.25 4.25 0 0 1-.383.41 4.46 4.46 0 0 1-.492.602c-.218.255-.373.437-.465.547Zm-1.367 5.387c0-.055.091-.201.274-.438.2-.219.355-.392.465-.52.273-.364.601-.893.984-1.585.4-.693.629-1.149.683-1.368.037-.109-.018-.164-.164-.164-.291 0-1.093.082-2.406.246-.857.11-1.495.219-1.914.329a.534.534 0 0 1-.273.082c-.146 0-.301-.101-.465-.301a.726.726 0 0 1-.11-.356c0-.073.046-.146.137-.218l.082-.11c.055-.109.119-.255.192-.437.072-.183.136-.356.191-.52.091-.292.155-.611.191-.957.019-.2.128-.255.329-.164.255.128.446.255.574.383.146.109.191.191.136.246a2.735 2.735 0 0 0-.437.738 7.415 7.415 0 0 0-.164.574c0 .073.045.11.137.11.273 0 .683-.046 1.23-.137l1.148-.137c.456-.054.82-.109 1.094-.164l.684-.136a.686.686 0 0 1 .219-.028c.09 0 .182.037.273.11.091.054.191.127.3.218.183.164.302.301.356.411.055.091.082.2.082.328 0 .073-.054.164-.164.273-.09.11-.2.283-.328.52-.529 1.075-1.212 1.978-2.05 2.707a3.806 3.806 0 0 1-.794.465 1.315 1.315 0 0 1-.355.054c-.091.018-.137 0-.137-.054Zm-10.664-6.29-.027 4.375c0 .42-.137.629-.41.629-.146 0-.374-.082-.684-.246-.31-.146-.465-.355-.465-.629l.027-.164c.092-.474.137-1.103.137-1.886l.028-2.024-1.641.055.027 4.375c0 .2-.045.364-.136.492a.354.354 0 0 1-.328.191c-.128 0-.292-.054-.493-.164-.237-.127-.4-.246-.492-.355a.579.579 0 0 1-.137-.383c0-.091.01-.164.028-.219.054-.382.082-1.002.082-1.859v-2.023l-1.805.082v5.332c0 .364-.146.546-.437.546a2.082 2.082 0 0 1-.903-.355.786.786 0 0 1-.355-.684l.027-.191a8.24 8.24 0 0 0 .137-1.504l.082-7.191c0-.657-.037-1.094-.11-1.313l-.054-.164-.028.274c-.182 1.932-.537 3.709-1.066 5.332-.529 1.604-1.075 2.889-1.64 3.855-.547.966-.93 1.449-1.149 1.449-.11 0-.164-.091-.164-.273 0-.219.073-.501.219-.848.383-.857.72-1.832 1.011-2.926-.054.055-.182.128-.382.219a1.39 1.39 0 0 1-.63.137c-.31 0-.482-.192-.519-.574a18.116 18.116 0 0 0-.574-2.899l-.055-.328c0-.219.11-.374.328-.465.237-.091.438-.136.602-.136.219 0 .374.127.465.382.583 1.769.875 2.853.875 3.254a39.074 39.074 0 0 0 1.066-6.371c.182-2.187.274-4.156.274-5.906 0-1.294-.028-2.16-.082-2.598a4.067 4.067 0 0 0-.301-1.148c-.11-.292-.164-.465-.164-.52 0-.146.09-.218.273-.218.365 0 .994.209 1.887.628 2.935-.565 5.441-1.239 7.52-2.023.346-.146.62-.365.82-.656.09-.128.2-.192.328-.192.255 0 .501.201.738.602.255.383.383.72.383 1.012 0 .255-.128.419-.383.492-2.953.857-6.08 1.531-9.379 2.023v1.313l9.38-.547h.245c.237 0 .483.109.739.328.273.201.41.401.41.602a.677.677 0 0 1-.082.3 1.567 1.567 0 0 0-.082.274l-.356 2.078c.401.492.602.848.602 1.066 0 .128-.064.21-.192.246a2.32 2.32 0 0 1-.52.082l-10.253.52a29.263 29.263 0 0 1-.11 1.531l.137-.027c.183 0 .684.118 1.504.355l8.504-.437h.246c.383 0 .675.118.875.355.219.237.328.438.328.602 0 .091-.027.21-.082.355a1.504 1.504 0 0 0-.055.301l-.081 8.641.027.711c0 .492-.119.847-.356 1.066-.237.237-.483.356-.738.356-.2 0-.483-.174-.848-.52a6.482 6.482 0 0 1-.984-1.121c-.273-.419-.41-.72-.41-.902 0-.092.045-.137.137-.137.145 0 .346.091.601.273.365.237.73.41 1.094.52l.027-4.567-2.078.082Zm-19.879 4.348c0-.146.055-.383.164-.711.42-1.203.812-2.743 1.176-4.621.036-.255.091-.428.164-.519.073-.092.182-.137.328-.137.164 0 .365.055.602.164.237.091.355.228.355.41 0 .328-.11 1.103-.328 2.324a23.598 23.598 0 0 1-.793 3.336c-.11.401-.264.602-.465.602-.2 0-.455-.091-.765-.274-.292-.182-.438-.373-.438-.574Zm.219-8.422c0-.091.073-.191.219-.301.146-.127.237-.2.273-.218.219-.146.374-.265.465-.356.255-.2.747-.729 1.477-1.586a74.98 74.98 0 0 0 2.214-2.734c-.437.036-.765.073-.984.109-1.513.164-2.497.246-2.953.246-.182 0-.346-.127-.492-.382-.146-.256-.219-.493-.219-.711 0-.073.027-.137.082-.192.073-.054.137-.1.191-.136.073-.055.128-.092.164-.11a3.1 3.1 0 0 0 .766-.683c.219-.219.602-.748 1.148-1.586a31.77 31.77 0 0 0 1.532-2.571c.456-.875.683-1.531.683-1.968 0-.201.1-.301.301-.301.091 0 .246.054.465.164.219.109.42.246.602.41.182.164.273.319.273.465 0 .31-.128.674-.383 1.094-.237.474-.71 1.248-1.422 2.324a34.735 34.735 0 0 1-1.941 2.707c.602-.055 1.704-.182 3.309-.383 1.093-1.549 1.64-2.497 1.64-2.844.037-.273.119-.41.246-.41.2 0 .456.128.766.383.328.255.492.501.492.738 0 .091-.055.219-.164.383a5.997 5.997 0 0 1-.246.41c-.401.693-1.294 1.932-2.68 3.719-1.367 1.768-2.415 3.008-3.144 3.719.328-.055 1.258-.274 2.789-.657l1.367-.328c-.31-.711-.474-1.075-.492-1.093-.11-.165-.164-.301-.164-.411 0-.182.09-.319.273-.41.182-.109.365-.164.547-.164.292 0 .501.1.629.301.292.401.647 1.066 1.066 1.996.42.912.63 1.458.63 1.641 0 .237-.138.428-.411.574-.255.128-.483.191-.684.191-.2 0-.346-.136-.437-.41l-.383-.957c-3.682 1.003-5.806 1.504-6.371 1.504-.273-.018-.52-.164-.738-.437-.2-.274-.301-.52-.301-.739Zm3.746 2.543c0-.2.11-.337.328-.41.219-.073.41-.109.574-.109.146 0 .256.054.328.164.092.091.174.246.247.465l.218 1.039c.456 2.005.684 3.208.684 3.609 0 .31-.146.529-.438.656-.273.11-.51.164-.71.164-.292 0-.465-.273-.52-.82-.182-1.805-.392-3.181-.629-4.129l-.055-.328a1.844 1.844 0 0 1-.027-.301Zm16.926-7.82.219-2.024-8.887.493c0 .893-.01 1.558-.027 1.996l8.695-.465Zm-5.496 8.148v-3.062l-1.805.082v3.062l1.805-.082Zm1.422-.054 1.668-.082.027-3.063-1.723.082.028 3.063Zm5.14-.246.028-3.036-2.078.082-.028 3.063 2.078-.109Zm33.66-8.75c0 .382-.118.692-.355.929-.237.219-.593.328-1.066.328-.365 0-.702-.182-1.012-.546-.292-.365-.438-.73-.438-1.094 0-.42.128-.739.383-.957.274-.237.629-.356 1.067-.356.346 0 .665.192.957.574.309.365.464.739.464 1.122Zm-2.871 9.761c0-.419.128-.738.383-.957.274-.237.629-.355 1.067-.355.346 0 .665.191.957.574.309.365.464.738.464 1.121s-.118.693-.355.93c-.237.219-.593.328-1.066.328-.365 0-.702-.182-1.012-.547-.292-.365-.438-.729-.438-1.094Zm61.004-9.351a.6.6 0 0 1-.383-.11l-.136-.136a47.5 47.5 0 0 0-.657-1.203c-.346-.657-.601-1.103-.765-1.34-.347-.511-.52-.839-.52-.985 0-.2.119-.492.356-.875.364-.51.61-.92.738-1.23.237-.438.41-.775.52-1.012.109-.255.155-.456.136-.601a1.567 1.567 0 0 1-.027-.301c0-.073.018-.11.055-.11.036-.018.109-.009.218.028.183.054.392.182.629.383.055.054.119.127.192.218a.667.667 0 0 1 .136.246.23.23 0 0 1 .028.192c0 .054-.028.109-.082.164l-.137.109c-.128.164-.273.365-.438.602-.164.237-.319.456-.464.656l-.684.984c-.182.256-.273.438-.273.547 0 .055.082.201.246.438l.574.629c.547.601.802.884.766.847.346.347.519.684.519 1.012 0 .565-.182.848-.547.848Zm3.61-.082a.928.928 0 0 1-.411-.082 1.803 1.803 0 0 1-.437-.711l-.574-1.012-.547-.957c-.347-.474-.52-.793-.52-.957 0-.219.119-.501.356-.848l.437-.629c.183-.31.283-.492.301-.547.182-.364.337-.683.465-.957.146-.291.21-.51.191-.656a1.163 1.163 0 0 1-.027-.273c0-.146.082-.183.246-.11a3.4 3.4 0 0 1 .766.438c.127.128.209.237.246.328a.496.496 0 0 1 .082.301c0 .036-.064.109-.192.219a1.759 1.759 0 0 0-.328.3c-.109.11-.355.456-.738 1.039-.073.11-.164.237-.273.383-.092.128-.21.301-.356.52-.182.237-.273.41-.273.519 0 .11.109.274.328.492.073.073.146.165.219.274l.328.328.711.793c.346.31.519.611.519.902 0 .602-.173.903-.519.903Zm.355 7.465c-.273 0-.538-.201-.793-.602a8.658 8.658 0 0 0-.957-1.258l-.711-.738c-.383.437-.72.784-1.012 1.039a5.421 5.421 0 0 1-1.039.738c-.784.456-1.44.684-1.968.684-.128 0-.192-.046-.192-.137 0-.055.173-.173.52-.355.346-.183.674-.401.984-.657.784-.656 1.431-1.33 1.942-2.023-.11-.109-.657-.583-1.641-1.422a9.016 9.016 0 0 1-.574-.465 6.371 6.371 0 0 1-.328-.246c-.165-.127-.247-.219-.247-.273 0-.091.046-.137.137-.137.274 0 .711.191 1.313.574.601.365 1.23.802 1.886 1.313.256-.31.456-.602.602-.875.146-.274.31-.611.492-1.012.091-.201.146-.374.164-.52.018-.164.028-.264.028-.3 0-.201.054-.301.164-.301.127 0 .3.1.519.301.383.364.574.61.574.738 0 .073-.045.155-.136.246-.219.219-.42.51-.602.875-.109.219-.31.529-.601.93a2.22 2.22 0 0 0-.219.301 3.18 3.18 0 0 1-.164.246c.419.309 1.039.838 1.859 1.586.201.182.328.355.383.519.073.146.109.346.109.602a.776.776 0 0 1-.136.464.442.442 0 0 1-.356.165Zm-2.68 8.421c-.893 0-1.613-.227-2.16-.683-.583-.511-.875-1.103-.875-1.778 0-.583.21-1.057.629-1.421.182-.164.429-.301.738-.411.31-.127.602-.191.875-.191.183 0 .283-.009.301-.027.037-.037.064-.128.082-.274.018-.127.028-.392.028-.793a1.747 1.747 0 0 1-.028-.383c-1.13.11-1.969.219-2.515.329-.128.018-.283-.01-.465-.082a1.484 1.484 0 0 1-.41-.329c-.11-.127-.146-.218-.11-.273a.491.491 0 0 1 .219-.137c.073-.036.191-.054.355-.054.566 0 .976-.019 1.231-.055l3.828-.383c.055 0 .182-.009.383-.027.219-.018.419-.055.601-.11h.082c.073 0 .137.028.192.082a.46.46 0 0 0 .137.055c.273.219.41.41.41.574 0 .128-.11.192-.328.192l-.329-.028c-.091-.018-.546 0-1.367.055l-.82.055a6.17 6.17 0 0 1 0 .82c-.018.31-.036.574-.055.793l.028.301a.474.474 0 0 1-.11.301c-.109.182-.291.273-.547.273-.145 0-.273-.009-.382-.027l-.274-.055c-.292-.018-.601.1-.93.355-.273.274-.41.566-.41.875 0 .42.173.775.52 1.067.2.164.41.273.629.328.237.073.519.109.847.109.438 0 .848-.073 1.231-.218.383-.146.665-.365.847-.657.073-.127.137-.2.192-.218.055-.037.155-.055.301-.055a.48.48 0 0 1 .355.137c.11.109.164.218.164.328 0 .328-.301.683-.902 1.066-.602.383-1.331.574-2.188.574Zm8.258-12.304c.219 0 .328.1.328.301 0 .109-.1.264-.3.464-.547.675-1.632 1.96-3.254 3.856-.128.164-.246.246-.356.246-.091 0-.292-.137-.601-.41-.256-.219-.383-.401-.383-.547 0-.164.136-.319.41-.465.419-.237 1.048-.711 1.887-1.422.838-.747 1.458-1.34 1.859-1.777.164-.164.301-.246.41-.246Zm-35.465 12.496c0 .474-.136.711-.41.711-.291 0-.62-.119-.984-.356-.347-.218-.52-.528-.52-.929 0-.128.009-.228.028-.301a8.586 8.586 0 0 0 .164-1.778l-.028-18.101a3.21 3.21 0 0 0-.355-1.504c-.11-.255-.164-.41-.164-.465 0-.127.1-.191.301-.191.309 0 .984.182 2.023.547l17.063-1.012h.3c.31 0 .611.1.903.301.31.2.464.437.464.711a.817.817 0 0 1-.082.3.648.648 0 0 0-.082.246l-.082 18.758c.584.657.875 1.094.875 1.313 0 .109-.063.173-.191.191a1.295 1.295 0 0 1-.41.055 2.937 2.937 0 0 1-.328.027l-18.485.41v1.067Zm0-2.516 16.844-.465.055-18.894-16.953.93.054 18.429Zm.766-4.32c0-.128.064-.192.191-.192h.11c.255.055.492.083.711.083.383 0 1.203-.183 2.461-.547a38.218 38.218 0 0 0 3.445-1.149c.273-.091.465-.137.574-.137.201 0 .301.055.301.165 0 .218-.465.592-1.395 1.121a31.437 31.437 0 0 1-3.035 1.504c-1.094.455-1.777.683-2.051.683-.2 0-.401-.1-.601-.301a3.883 3.883 0 0 1-.52-.711c-.127-.255-.191-.428-.191-.519Zm0-9.789c0-.073.046-.11.137-.11l.218.055c.31.091.638.137.985.137h.219l5.632-.301a47.655 47.655 0 0 1-.41-2.351c-.036-.402-.219-.775-.547-1.122-.109-.109-.164-.191-.164-.246 0-.127.155-.191.465-.191.966 0 1.513.237 1.641.711l.027.164c.037.328.073.574.109.738.037.255.083.611.137 1.067.073.455.137.838.192 1.148l3.582-.246c.182 0 .364-.009.546-.027.183-.037.365-.101.547-.192a.453.453 0 0 1 .246-.054c.201 0 .456.154.766.464.328.292.492.511.492.657 0 .182-.2.291-.601.328l-5.305.355c.474 2.279.994 4.065 1.559 5.36.364-.657.701-1.34 1.011-2.051.328-.711.493-1.203.493-1.477a.958.958 0 0 0-.028-.273v-.164c0-.183.064-.274.192-.274.182 0 .464.164.847.492.383.31.574.566.574.766 0 .091-.1.374-.3.848a15.392 15.392 0 0 1-.821 1.668 21.597 21.597 0 0 1-1.257 1.941c.783 1.55 1.576 2.58 2.378 3.09a.43.43 0 0 0 .165.055c.109 0 .164-.037.164-.11.328-1.093.556-2.105.683-3.035.037-.31.1-.547.192-.711.091-.182.182-.273.273-.273.109 0 .191.091.246.273.073.182.119.447.137.793v.547c0 1.786-.128 2.971-.383 3.555-.237.583-.547.875-.93.875-.674 0-1.34-.356-1.996-1.067-.638-.729-1.285-1.64-1.941-2.734-.656.766-1.477 1.559-2.461 2.379-.984.802-1.632 1.203-1.942 1.203-.127 0-.191-.055-.191-.164 0-.182.201-.465.602-.848 1.33-1.221 2.451-2.488 3.363-3.801-.893-1.987-1.595-4.247-2.106-6.781l-5.386.301-.547.027c-.383 0-.647-.063-.793-.191a3.938 3.938 0 0 1-.492-.602c-.146-.237-.219-.437-.219-.601Zm.766 2.68c0-.11.109-.165.328-.165.237 0 .738.11 1.504.329l3.117-.219.164-.028c.219 0 .456.092.711.274.255.182.383.346.383.492a.882.882 0 0 1-.055.246 1.478 1.478 0 0 0-.082.274l-.301 2.023c.365.383.547.665.547.848 0 .164-.21.264-.629.3l-3.582.219.027.274v.082c0 .273-.118.41-.355.41s-.492-.073-.766-.219c-.273-.164-.41-.337-.41-.519 0-.073.009-.128.028-.164a3.24 3.24 0 0 0 .027-.52v-.246l-.164-2.188c-.055-.51-.192-.938-.41-1.285a.464.464 0 0 1-.082-.218Zm2.023 3.417 2.406-.136.219-2.106-2.789.164.164 2.078Zm6.125-9.242c0-.127.046-.291.137-.492.091-.2.237-.301.437-.301.201 0 .702.183 1.504.547.802.347 1.376.611 1.723.793.219.11.328.264.328.465 0 .146-.055.337-.164.574-.11.237-.264.356-.465.356-.109 0-.237-.046-.383-.137-.784-.51-1.704-.975-2.762-1.395-.236-.091-.355-.227-.355-.41Zm59.309 7.11c-.146 0-.292-.028-.438-.082a.716.716 0 0 1-.328-.329c-.055-.164-.173-.355-.355-.574a2.115 2.115 0 0 0-.493-.492l.11-.137c.091.055.31.164.656.329.346.164.602.246.766.246a.988.988 0 0 0 .683-.274c.201-.182.456-.528.766-1.039.219-.346.419-.756.601-1.23.183-.474.319-.912.411-1.313l.027-.055c0-.054-.018-.1-.055-.136-.036-.055-.073-.082-.109-.082l-1.258.109a37.02 37.02 0 0 1-2.625.356 2.828 2.828 0 0 0-.574.136c-.219.073-.374.11-.465.11-.146 0-.337-.119-.574-.356a1.955 1.955 0 0 1-.274-.273c-.073-.11-.091-.201-.054-.274l.218-.218.137-.11c.255-.255.51-.592.766-1.012.182-.255.373-.683.574-1.285 0-.2.045-.3.137-.3.054 0 .145.036.273.109l.438.273c.109.091.182.164.218.219a.386.386 0 0 1 .055.219c0 .109-.073.246-.219.41a4.262 4.262 0 0 0-.383.437l-.628.903-.055.109c0 .055.073.082.219.082l2.105-.273 1.422-.11.547-.054.301-.055h.082c.182 0 .382.155.601.465.255.237.383.437.383.601l-.137.356c-.018.036-.164.465-.437 1.285-.328.784-.611 1.376-.848 1.777s-.492.711-.765.93c-.493.401-.967.602-1.422.602Zm2.242 9.324a.486.486 0 0 1-.246-.082c-.091-.073-.21-.173-.356-.301-.638-.492-1.258-1.23-1.859-2.215a10.412 10.412 0 0 1-1.285-3.199 5.729 5.729 0 0 0-.082-.383 1.685 1.685 0 0 0-.11-.328c0-.018-.027-.027-.082-.027-.127 0-.373.082-.738.246a1.277 1.277 0 0 0-.328.246c-.091.091-.192.128-.301.109-.073 0-.173-.045-.301-.136a1.303 1.303 0 0 1-.273-.247c-.182-.255-.274-.41-.274-.464 0-.11.101-.174.301-.192.274 0 .447-.009.52-.027a7.901 7.901 0 0 0 1.504-.356.996.996 0 0 0 .3-.164.206.206 0 0 0 .082-.027c.055-.018.119 0 .192.055.273.182.41.319.41.41 0 1.276.365 2.47 1.094 3.582.729 1.112 1.795 2.051 3.199 2.816.073.037.164.073.273.11.11.036.164.091.164.164 0 .091-.3.173-.902.246l-.683.109-.219.055Zm6.344-10.363c.054 0 .109.027.164.082a.265.265 0 0 1 .109.164v.054c0 .128-.1.374-.301.739l-1.969 3.418c-.145.31-.337.464-.574.464-.237 0-.437-.145-.601-.437a9.233 9.233 0 0 1-.602-1.066 3.365 3.365 0 0 1-.273-.493 10.748 10.748 0 0 0-.164-.355c-.201-.346-.301-.593-.301-.738 0-.073.027-.128.082-.164.055-.055.109-.082.164-.082.2 0 .383.109.547.328.127.127.228.264.301.41l.3.41.547.629.246-.383c.256-.437.857-1.303 1.805-2.598.201-.255.374-.382.52-.382Zm-25.758-7.684c0-.419-.164-.893-.492-1.422a.486.486 0 0 1-.082-.246c0-.146.127-.219.382-.219.11 0 .319.028.629.082.328.055.638.164.93.328.292.146.437.356.437.629l-.054 7.629 4.457-.683c.401-.055.738-.164 1.011-.328.183-.092.31-.137.383-.137.219 0 .493.127.821.383.328.237.501.501.519.793 0 .309-.228.492-.683.546l-6.508 1.04-.055 8.996c0 .419.064.729.191.929.128.201.411.347.848.438.438.073 1.158.109 2.16.109 1.112 0 2.106-.073 2.981-.219.346-.054.61-.182.793-.382.182-.219.355-.638.519-1.258.183-.638.383-1.641.602-3.008.073-.401.155-.711.246-.93.091-.237.182-.355.273-.355.128 0 .219.209.274.629.073.401.109 1.185.109 2.351 0 1.586-.091 2.68-.273 3.282-.164.601-.629 1.02-1.395 1.257-.765.237-2.114.356-4.047.356-1.349 0-2.36-.064-3.035-.192-.674-.127-1.185-.41-1.531-.847-.328-.419-.492-1.094-.492-2.024l.082-17.527Zm-13.235 19.277c0-.127.092-.191.274-.191 1.148-.037 3.637-.693 7.465-1.969l.027-8.258-4.102.329-.765.054c-.802 0-1.322-.465-1.559-1.394a.31.31 0 0 1-.027-.137c0-.091.055-.137.164-.137l.137.028c.401.036.701.054.902.054.31 0 .547-.009.711-.027l4.539-.301v-6.644c0-.438-.155-.903-.465-1.395a.436.436 0 0 1-.109-.273c0-.128.1-.192.301-.192.328 0 .747.1 1.257.301.529.201.793.447.793.738l-.054 16.625c.31-.109 1.039-.373 2.187-.793.274-.091.474-.136.602-.136.255 0 .383.091.383.273 0 .237-.228.474-.684.711a76.7 76.7 0 0 1-4.648 2.269c-1.495.675-2.762 1.195-3.801 1.559-1.021.383-1.641.574-1.86.574-.237 0-.483-.109-.738-.328a3.61 3.61 0 0 1-.656-.738c-.182-.274-.274-.474-.274-.602Zm72.352-14.082c-.109 0-.255-.118-.438-.355-.182-.255-.264-.474-.246-.656.037-.146.064-.556.082-1.231a68.03 68.03 0 0 0 .028-2.406c0-.802-.009-1.34-.028-1.613l-.902.082c-.638.091-1.185.136-1.641.136-.127 0-.309-.1-.546-.3-.237-.201-.356-.347-.356-.438 0-.146.155-.2.465-.164.2.018.793.009 1.777-.027a88.717 88.717 0 0 1 2.926-.164c.31-.019.592-.046.848-.082.273-.055.465-.092.574-.11.164-.018.31 0 .437.055.128.055.247.127.356.219.127.073.228.127.301.164.164.109.246.209.246.3 0 .073-.046.146-.137.219a.398.398 0 0 1-.246.082c-.091 0-.219-.009-.383-.027a4.05 4.05 0 0 0-.492-.027c-.675 0-1.367.018-2.078.054-.018.146-.028.511-.028 1.094a79.322 79.322 0 0 0-.054 2.898v1.313c0 .31-.028.51-.082.601-.164.256-.292.383-.383.383Zm-2.926 4.84c-.2 0-.446-.155-.738-.465-.219-.218-.328-.382-.328-.492 0-.055.036-.082.109-.082.073-.018.164-.027.274-.027l.601-.028c.346 0 .574-.009.684-.027.346 0 .638-.009.875-.027 1.567-.146 2.625-.265 3.172-.356.273-.036.519-.073.738-.109.219-.055.392-.082.519-.082.256 0 .511.127.766.383.201.2.301.364.301.492 0 .109-.064.182-.192.219-.091.018-.628.054-1.613.109a36.08 36.08 0 0 0-2.023.137 75.87 75.87 0 0 0-2.106.218l-.465.082a3.16 3.16 0 0 1-.574.055Zm5.879 9.434c.037.073.1.182.191.328a.953.953 0 0 1 .137.519.52.52 0 0 1-.219.438.723.723 0 0 1-.492.191c-.164 0-.301-.164-.41-.492-.055-.127-.1-.237-.137-.328a2.53 2.53 0 0 0-.054-.191 6.324 6.324 0 0 1-.93.191c-.383.055-.656.1-.82.137-.875.164-1.477.282-1.805.355-.128.037-.264.073-.41.11a1.107 1.107 0 0 0-.246.109.897.897 0 0 1-.246.055.576.576 0 0 1-.411-.192 1.504 1.504 0 0 1-.492-.656c-.018-.018-.027-.046-.027-.082 0-.037.046-.082.137-.137.109-.054.191-.091.246-.109.237-.128.656-.511 1.258-1.149l.738-.711-1.613-.875c-.183-.054-.301-.118-.356-.191-.055-.073-.082-.182-.082-.328 0-.109.018-.182.055-.219.054-.054.164-.137.328-.246.164-.109.328-.255.492-.437.091-.11.21-.228.356-.356.145-.127.282-.264.41-.41.547-.638.893-1.139 1.039-1.504.091-.182.164-.273.219-.273.036 0 .109.036.218.109.347.255.556.492.629.711v.082c0 .091-.045.164-.137.219a1.07 1.07 0 0 0-.191.136c-.055.037-.328.301-.82.793l-.492.493-.465.464c-.219.201-.328.319-.328.356 0 .055.027.1.082.137a.644.644 0 0 1 .164.109l1.148.547c.711-.711 1.121-1.13 1.231-1.258.474-.547.738-.893.793-1.039a.663.663 0 0 0 .082-.137c.036-.073.073-.109.109-.109.055 0 .109.027.164.082.292.273.501.529.629.766a.492.492 0 0 1 .055.136c0 .037-.046.091-.137.164l-.219.164c-.638.529-1.385 1.222-2.242 2.079l-1.668 1.558c-.036.037-.055.073-.055.11 0 .036.019.063.055.082.036.018.091.018.164 0l3.199-.547c-.091-.365-.2-.73-.328-1.094v-.055c0-.054.028-.082.082-.082.073 0 .182.055.328.164.292.255.657.693 1.094 1.313Zm5.688-8.778c.054 0 .109.028.164.082a.27.27 0 0 1 .109.165v.054c0 .128-.1.374-.301.738l-1.969 3.418c-.145.31-.337.465-.574.465-.237 0-.437-.146-.601-.437a9.263 9.263 0 0 1-.602-1.067 3.357 3.357 0 0 1-.273-.492 10.748 10.748 0 0 0-.164-.355c-.201-.347-.301-.593-.301-.739 0-.072.027-.127.082-.164.055-.054.109-.082.164-.082.2 0 .383.11.547.328.127.128.228.265.301.411l.3.41.547.629.246-.383c.256-.438.857-1.304 1.805-2.598.201-.255.374-.383.52-.383Zm-27.618-11.785c0-.437-.118-.802-.355-1.094-.091-.127-.137-.209-.137-.246 0-.109.1-.164.301-.164.146 0 .392.037.738.11.347.073.666.182.957.328.292.146.438.319.438.519l-.082 20.207.027 1.094c0 .602-.164 1.021-.492 1.258-.328.237-.611.355-.848.355-.273 0-.92-.282-1.941-.847a32.224 32.224 0 0 1-2.817-1.778c-.875-.638-1.312-1.075-1.312-1.312 0-.164.118-.246.355-.246.201 0 .438.064.711.191 1.841.784 3.3 1.322 4.375 1.614l.082-19.989Zm-11.593 16.762c0-.164.109-.419.328-.766 1.239-1.823 2.251-3.463 3.035-4.922a20.826 20.826 0 0 0 1.805-4.73c.073-.292.109-.51.109-.656 0-.146-.027-.301-.082-.465a.616.616 0 0 1-.027-.191c0-.165.091-.247.273-.247.273 0 .684.164 1.23.493.62.364.93.701.93 1.011a.48.48 0 0 1-.027.192c-.875 2.06-1.841 3.883-2.899 5.468-1.057 1.568-2.014 2.799-2.871 3.692-.838.875-1.385 1.312-1.64 1.312-.11 0-.164-.063-.164-.191Zm16.843-10.965c0-.182.137-.383.411-.601.273-.237.537-.356.793-.356.2 0 .373.1.519.301a54.365 54.365 0 0 1 2.68 3.801 72.557 72.557 0 0 1 2.406 3.937c.656 1.149.984 1.814.984 1.996 0 .201-.091.383-.273.547a2.483 2.483 0 0 1-.629.41c-.219.11-.383.164-.492.164-.237 0-.429-.136-.574-.41a69.522 69.522 0 0 0-2.762-5.086 40.1 40.1 0 0 0-2.899-4.293c-.109-.146-.164-.282-.164-.41Zm58.543 3.363c-.273 0-.474-.145-.601-.437l-.246-.547c-.711.182-1.285.319-1.723.41l-1.777.438c-.365.091-.593.136-.684.136a.615.615 0 0 1-.273-.054l-.137-.137a1.188 1.188 0 0 1-.082-.137c-.146-.255-.21-.428-.192-.519l.192-.301c.474-.656.911-1.595 1.312-2.816l-.546.082-.711.082c-.055.018-.174.054-.356.109-.164.036-.292.027-.383-.027-.2-.128-.465-.356-.793-.684-.073-.073-.109-.128-.109-.164 0-.109.2-.164.602-.164h.929c.62-.037 1.185-.082 1.696-.137.109-.273.227-.62.355-1.039.128-.419.219-.756.273-1.012v-.328c.019-.164.055-.264.11-.3h.027c.073 0 .173.036.301.109.128.073.246.164.355.273.347.347.447.62.301.821-.073.018-.228.319-.465.902-.018.036-.082.201-.191.492l1.586-.191c.419-.037.738-.082.957-.137.31-.091.556-.137.738-.137.146 0 .265.055.356.164l.191.192c.055.054.119.164.191.328.073.128.101.219.082.273-.072.11-.2.164-.382.164a15.03 15.03 0 0 0-2.16.055 9.215 9.215 0 0 0-.821.11l-1.066.109-.246.738-.301.656a10.08 10.08 0 0 1-.301.657 6.012 6.012 0 0 0-.246.547.383.383 0 0 0-.027.164c0 .091.054.136.164.136.146 0 .647-.082 1.504-.246l1.011-.164.465-.109c-.164-.456-.291-.748-.383-.875a2.998 2.998 0 0 1-.164-.246l.164-.164c.711.455 1.286.92 1.723 1.394.128.164.21.319.246.465.055.146.073.31.055.492a.759.759 0 0 1-.192.383c-.036.091-.145.155-.328.191Zm-2.242 9.899c0-.018.046-.082.137-.192.109-.127.228-.282.355-.464.219-.31.438-.766.657-1.368.218-.601.337-1.157.355-1.668 0-.036-.018-.072-.055-.109-.018-.055-.063-.082-.136-.082l-.629.055-.93.082c-.2.656-.547 1.367-1.039 2.133-.219.346-.52.656-.902.929a3.95 3.95 0 0 1-1.067.547 1.295 1.295 0 0 1-.41.055c-.128-.018-.191-.055-.191-.11 0-.072.063-.136.191-.191.219-.146.465-.374.738-.684.292-.309.547-.628.766-.957a5.66 5.66 0 0 0 .41-.711c.146-.309.264-.592.356-.847a9.79 9.79 0 0 0-1.805.41c-.037.036-.1.055-.191.055-.055 0-.137-.037-.247-.11a3.548 3.548 0 0 1-.3-.328c-.037-.091-.019-.173.054-.246l.11-.219c.073-.109.146-.328.218-.656.073-.328.11-.592.11-.793a.766.766 0 0 0-.028-.191c0-.091.01-.137.028-.137.036-.018.082-.018.137 0 .2.036.382.1.546.191a.792.792 0 0 1 .301.301c.073.091.073.173 0 .246a.868.868 0 0 0-.082.11.346.346 0 0 0-.082.164c-.018.018-.055.218-.109.601 0 .018.009.037.027.055a.119.119 0 0 0 .11 0c.054 0 .136-.009.246-.027.109-.019.191-.037.246-.055.127-.018.273-.046.437-.082a6.53 6.53 0 0 1 .492-.082c.055-.201.092-.419.11-.656.036-.256.064-.429.082-.52l.027-.574v-.192c-.583.019-1.194.073-1.832.164l-.492.083h-.109a.525.525 0 0 1-.274-.083 8.116 8.116 0 0 1-.246-.191c-.237-.219-.355-.383-.355-.492 0-.109.082-.146.246-.109.218.036.446.054.683.054l.793-.027 3.801-.274c.146-.018.283-.036.41-.054.128-.037.255-.064.383-.082h.082c.237 0 .401.045.492.136.11.073.173.119.192.137.291.237.437.419.437.547 0 .109-.155.155-.465.137l-.547-.055c-.474-.018-1.185 0-2.132.055l-.11 1.066a6.426 6.426 0 0 1-.055.438c-.018.109-.036.2-.054.273l-.028.082c.438-.036.948-.091 1.532-.164a.89.89 0 0 1 .191-.055c.091-.036.182-.063.274-.082h.054c.11 0 .219.046.328.137.11.091.174.146.192.164.146.128.246.237.301.328.072.073.082.137.027.192a1.452 1.452 0 0 1-.137.218.619.619 0 0 0-.082.192c-.091.765-.237 1.385-.437 1.859-.164.419-.347.738-.547.957-.183.201-.41.392-.684.574-.109.073-.282.137-.519.192-.237.036-.356.036-.356 0Zm4.457-9.899c.091 0 .228.064.41.192-.018.036.019.109.11.219l.191.191c.091.091.182.2.274.328.109.128.227.264.355.41.328.347 1.085 1.249 2.27 2.707.2.292.3.465.3.52 0 .182-.109.273-.328.273-.127 0-.264-.091-.41-.273-.346-.365-.966-.939-1.859-1.723-.693-.638-1.322-1.13-1.887-1.476-.273-.128-.41-.274-.41-.438 0-.128.137-.31.41-.547.255-.255.447-.383.574-.383Zm-25.074 7.793a55.609 55.609 0 0 1-4.32 2.735c-1.368.765-2.206 1.148-2.516 1.148a.723.723 0 0 1-.328-.082 2.628 2.628 0 0 1-1.149-1.039.426.426 0 0 1-.054-.164c0-.091.045-.155.137-.191.601-.092 1.622-.401 3.062-.93 1.44-.529 3.062-1.212 4.867-2.051a.922.922 0 0 1 .41-.109c.183 0 .274.064.274.191 0 .164-.128.328-.383.492Zm-11.484.055c0-.164.209-.392.628-.684 1.678-1.112 3.118-2.196 4.321-3.253a21.093 21.093 0 0 0 3.308-3.637l-4.621.219-1.039.054c-.383 0-.692-.1-.929-.301a2.182 2.182 0 0 1-.52-.683c-.091-.255-.137-.419-.137-.492 0-.11.055-.164.164-.164l.219.054c.383.073.784.11 1.203.11h.301l6.344-.301c.437-.747.793-1.477 1.066-2.188l-2.488.137-.656.027c-.693 0-1.14-.419-1.34-1.257l-.028-.11c0-.091.046-.136.137-.136.055 0 .1.009.137.027.328.055.684.082 1.066.082h.328l3.364-.191c.182-.493.364-1.14.547-1.942l-5.223.301c-.255.018-.574.027-.957.027-.456 0-.766-.064-.93-.191-.127-.073-.282-.264-.465-.574-.182-.31-.273-.52-.273-.629 0-.11.064-.164.191-.164.073 0 .137.009.192.027.383.073.784.109 1.203.109h.301l6.261-.382.246-1.75v-.137c0-.346-.1-.638-.3-.875-.091-.128-.137-.228-.137-.301 0-.146.128-.219.383-.219s.638.064 1.148.192c.511.127.766.346.766.656v.082l-.328 2.242 5.222-.301a4.854 4.854 0 0 0 1.45-.3.672.672 0 0 1 .3-.055c.201 0 .411.082.629.246.219.164.41.356.574.574.165.201.247.356.247.465 0 .201-.174.319-.52.356l-8.203.492a31.734 31.734 0 0 1-.492 1.969l4.293-.247a8.623 8.623 0 0 0 1.011-.136.69.69 0 0 1 .219-.028c.182 0 .438.137.766.411.328.273.492.519.492.738 0 .164-.173.264-.52.301l-6.753.355c-.31.857-.648 1.595-1.012 2.215l10.691-.492a5.853 5.853 0 0 0 1.449-.274.916.916 0 0 1 .274-.054c.292 0 .647.209 1.066.628.274.274.41.493.41.657 0 .109-.054.2-.164.273a.678.678 0 0 1-.355.082l-6.809.328c2.461 2.48 5.159 4.421 8.094 5.825.146.072.264.145.356.218.109.073.164.146.164.219 0 .182-.201.428-.602.738-.383.292-.665.438-.848.438-.145 0-.711-.319-1.695-.957-.984-.656-2.142-1.531-3.473-2.625a37.577 37.577 0 0 1-3.882-3.774l-5.551.274a19.524 19.524 0 0 1-3.856 4.156c-1.44 1.167-2.77 2.069-3.992 2.707-1.203.62-1.941.93-2.215.93-.145 0-.218-.046-.218-.137Zm6.89-3.062c0-.183.091-.383.274-.602.182-.219.355-.328.519-.328.128 0 .237.036.328.109 1.222.693 2.142 1.276 2.762 1.75.128.073.191.192.191.356 0 .218-.1.474-.3.765-.183.274-.374.41-.575.41a.493.493 0 0 1-.355-.164c-.911-.783-1.75-1.412-2.516-1.886-.218-.146-.328-.283-.328-.41Zm1.75 5.988c0-.091.055-.137.164-.137.164 0 .374.064.629.192 1.003.455 1.951.774 2.844.957l-.055-9.325c0-.601-.118-1.075-.355-1.422a.464.464 0 0 1-.082-.218c0-.091.082-.137.246-.137.328 0 .72.091 1.176.273.455.183.683.456.683.821v9.844l.028.874c0 .474-.146.83-.438 1.067-.273.237-.519.355-.738.355-.255 0-.72-.218-1.395-.656a13.047 13.047 0 0 1-1.859-1.394c-.565-.493-.848-.857-.848-1.094Zm5.524-3.856c0-.182.209-.401.629-.656a8.62 8.62 0 0 0 1.886-1.613c.584-.675.93-1.222 1.039-1.641.055-.182.137-.273.246-.273.11 0 .274.091.493.273.237.164.446.365.629.602.182.237.273.456.273.656a.421.421 0 0 1-.191.356c-2.571 1.622-4.157 2.433-4.758 2.433-.164 0-.246-.045-.246-.137Zm1.121.93c0-.164.073-.328.219-.492a.752.752 0 0 1 .574-.274c.218 0 .984.374 2.297 1.122a56.2 56.2 0 0 1 3.554 2.105c.255.182.401.383.438.602 0 .127-.082.319-.246.574-.146.273-.338.419-.575.437h-.054c-.11 0-.292-.091-.547-.273-1.149-.802-2.689-1.768-4.621-2.899l-.684-.41a.575.575 0 0 1-.273-.191.572.572 0 0 1-.082-.301Zm55.316-10.527c-.2 0-.446-.155-.738-.465-.219-.219-.328-.383-.328-.492 0-.055.036-.082.109-.082a1.11 1.11 0 0 1 .274-.028l.601-.027c.346 0 .574-.009.684-.027.346 0 .638-.009.875-.028 1.567-.146 2.625-.264 3.172-.355.273-.037.519-.073.738-.11.219-.054.392-.082.519-.082.256 0 .511.128.766.383.201.201.301.365.301.492 0 .11-.064.183-.192.219-.091.018-.628.055-1.613.11-.547.018-1.221.063-2.023.136-.802.073-1.504.146-2.106.219-.109.018-.264.046-.465.082-.2.036-.392.055-.574.055Zm6.207 11.976c.255.164.383.319.383.465 0 .201-.155.328-.465.383-.31.055-.747.091-1.312.109-.821.019-1.349-.009-1.586-.082-.401-.182-.602-.483-.602-.902l.028-1.012c.036-.328.054-.62.054-.875.018-.164.028-.483.028-.957a9.186 9.186 0 0 1-1.067 1.805c-.31.383-.583.702-.82.957-.237.237-.52.465-.848.684-.328.218-.629.328-.902.328-.164 0-.246-.055-.246-.164 0-.019.173-.155.519-.411.365-.273.729-.647 1.094-1.121.547-.729 1.021-1.586 1.422-2.57-.711.091-1.185.173-1.422.246a.988.988 0 0 0-.246.082.695.695 0 0 1-.274 0 2.255 2.255 0 0 1-.382-.219 2.48 2.48 0 0 1-.383-.355c-.073-.109-.11-.182-.11-.219 0-.091.137-.137.411-.137.674 0 1.54-.072 2.597-.218.11-.42.164-1.094.164-2.024v-.519c0-.219.046-.338.137-.356.018-.018.055-.027.109-.027.146 0 .347.109.602.328.201.164.328.292.383.383.073.073.082.173.027.301l-.109.218c-.055.11-.091.219-.11.328l-.109.547a5.716 5.716 0 0 0-.109.684c.255-.018.574-.055.957-.109.383-.055.665-.11.847-.164l.547-.137c.183-.037.483.118.903.465.072.054.109.118.109.191 0 .073-.037.137-.109.191a.386.386 0 0 1-.219.055c-.328 0-.93.055-1.805.164l-.902.082c.2.146.328.274.383.383a.42.42 0 0 1 .027.328l-.082.438c-.037.364-.073.765-.109 1.203a8.794 8.794 0 0 0 0 1.012c0 .091.054.173.164.246a.761.761 0 0 0 .382.109c.456 0 .967-.046 1.532-.137l.246-.054c.109 0 .2.018.273.054Zm5.25-11.484c.219 0 .328.1.328.301 0 .109-.1.264-.3.465-.547.674-1.632 1.959-3.254 3.855-.128.164-.246.246-.356.246-.091 0-.292-.137-.601-.41-.256-.219-.383-.401-.383-.547 0-.164.136-.319.41-.465.419-.237 1.048-.711 1.887-1.422.838-.747 1.458-1.34 1.859-1.777.164-.164.301-.246.41-.246Zm-19.168 13.918c.055 0 .091-.009.11-.027.036 0 .054-.028.054-.082.711-1.805 1.112-4.293 1.203-7.465l-1.367.054c-1.239 2.151-2.579 3.883-4.019 5.196-1.422 1.294-2.68 2.215-3.774 2.761-1.075.547-1.768.821-2.078.821-.182 0-.273-.055-.273-.164 0-.183.273-.456.82-.821a23.671 23.671 0 0 0 7.219-7.683l-2.106.082c-1.093 1.312-2.169 2.397-3.226 3.254-1.058.838-1.969 1.449-2.735 1.832-.747.383-1.239.574-1.476.574-.146 0-.219-.055-.219-.164 0-.091.064-.21.191-.356.146-.164.338-.328.575-.492 1.731-1.221 3.299-2.734 4.703-4.539l-2.762.137a21.469 21.469 0 0 1-2.324 1.695c-.784.492-1.331.738-1.641.738-.127 0-.191-.045-.191-.136 0-.201.191-.447.574-.739 1.568-1.221 3.117-2.843 4.648-4.867l-1.668.11h-.492c-.474 0-.765-.064-.875-.192-.328-.328-.556-.665-.683-1.012l-.055-.218c0-.11.055-.164.164-.164.091 0 .173.009.246.027.328.055.684.082 1.067.082h.328l11.976-.684c.456-.036.802-.091 1.039-.164.146-.036.246-.054.301-.054.219 0 .447.073.684.218a2.7 2.7 0 0 1 .601.493c.183.182.274.328.274.437 0 .237-.219.374-.657.41l-9.898.575a46.893 46.893 0 0 1-1.777 1.941l9.406-.465h.164c.401 0 .702.091.902.274.201.182.301.373.301.574 0 .091-.027.2-.082.328a1.187 1.187 0 0 0-.055.273 44.588 44.588 0 0 1-.82 6.754c-.182.966-.465 1.677-.848 2.133-.364.456-.729.684-1.093.684-.347 0-.857-.201-1.532-.602a12.465 12.465 0 0 1-1.859-1.285c-.565-.474-.848-.802-.848-.984 0-.092.073-.137.219-.137.219 0 .529.082.93.246.984.383 1.859.647 2.625.793h.109Zm-18.922.93c0-.128.009-.228.028-.301.109-.565.164-1.267.164-2.106l.218-16.488v-.465c0-.747-.072-1.312-.218-1.695-.128-.292-.192-.492-.192-.602 0-.127.073-.191.219-.191.237 0 .912.219 2.024.656l3.609-.328.355-.027c.146 0 .365.091.657.273.31.182.464.383.464.602 0 .109-.054.228-.164.355-.091.11-.155.201-.191.274a36.519 36.519 0 0 1-2.27 3.937.426.426 0 0 0-.054.164c0 .11.027.192.082.246.784.875 1.321 1.696 1.613 2.461.31.766.465 1.613.465 2.543 0 .638-.137 1.194-.41 1.668-.255.474-.574.711-.957.711-.274 0-.675-.21-1.203-.629a11.34 11.34 0 0 1-1.422-1.394c-.42-.529-.629-.894-.629-1.094 0-.109.055-.164.164-.164.146 0 .383.109.711.328.383.273.775.519 1.176.738.401.201.665.301.793.301.054 0 .091-.109.109-.328.036-.219.055-.392.055-.52 0-.638-.128-1.276-.383-1.914-.237-.638-.684-1.33-1.34-2.078-.219-.273-.328-.538-.328-.793 0-.219.082-.474.246-.765.766-1.313 1.358-2.443 1.777-3.391l-3.09.273-.273 20.071c0 .51-.155.765-.465.765-.073 0-.219-.045-.437-.136a1.981 1.981 0 0 1-.629-.356.776.776 0 0 1-.274-.601Zm8.942-22.204c0-.091.082-.136.246-.136.255 0 .884.136 1.887.41l7.464-.438h.247c.309 0 .592.092.847.274.274.182.41.374.41.574a.68.68 0 0 1-.082.301c-.036.109-.064.2-.082.273l-.547 5.004c.456.438.684.757.684.957 0 .11-.064.182-.191.219-.11.036-.283.064-.52.082l-7.82.355.027.219v.082c0 .347-.155.52-.465.52-.255 0-.547-.101-.875-.301-.328-.219-.492-.428-.492-.629v-.137c.055-.364.082-.711.082-1.039l-.027-.492-.301-4.375c-.037-.492-.128-.902-.274-1.23-.145-.237-.218-.401-.218-.493Zm2.242 3.336 6.781-.382.164-1.778-7.054.383.109 1.777Zm.219 3.227 6.289-.328.164-1.996-6.59.355.137 1.969Z"/></svg>