<svg xmlns="http://www.w3.org/2000/svg" width="350" height="88" fill="none"><path fill="#333" d="M132.426 16.566c-.774-.28-1.137-.585-1.09-.914.141-.984.211-2.109.211-3.375a15.414 15.414 0 0 0-.106-2.004c-.023-.234-.023-.363 0-.386a.478.478 0 0 1 .352-.14c.211 0 .469.093.773.28.329.188.493.375.493.563 0 .117-.012.234-.036.351a1.33 1.33 0 0 0-.035.317l-.211 3.48c0 .188.071.305.211.352h.176c.188 0 .316-.012.387-.035l4.535-.633v-.914a39.21 39.21 0 0 0-.07-2.672c-.024-.54-.082-.973-.176-1.3-.07-.376.023-.563.281-.563.188 0 .434.07.738.21.375.188.598.352.668.493.071.117.094.304.071.562-.047.422-.071 1.055-.071 1.899l.035 2.672c0 .562-.105 1.007-.316 1.336-.117.14-.234.21-.351.21-.118 0-.282-.105-.493-.316a2.01 2.01 0 0 1-.175-.21.475.475 0 0 0-.211-.177.92.92 0 0 0-.282-.035c-.539.047-1.839.223-3.902.527-.352.047-.633.141-.844.282-.234.117-.386.176-.457.176l-.105-.036Zm4.465 7.559c-.235.305-.481.457-.739.457-.07 0-.105-.059-.105-.176 0-.164.047-.351.141-.562l.703-1.407c.023-.093.058-.187.105-.28.047-.095.082-.177.106-.247v-.035c0-.047-.036-.094-.106-.14a.295.295 0 0 0-.246-.036c-.375.024-.938.082-1.688.176-.726.094-1.265.188-1.617.281l-.527.176a1.38 1.38 0 0 1-.457.105c-.422 0-.773-.128-1.055-.386a2.168 2.168 0 0 1-.527-.492l-.07-.176c0-.117.199-.152.597-.106.539.047 1.653-.023 3.34-.21l.703-.106c.188-.023.481-.059.879-.105.422-.07.75-.141.984-.212l.211-.07a.568.568 0 0 1 .247-.07c.117 0 .257.058.421.176.188.117.34.222.457.316.164.117.27.223.317.317.07.07.094.164.07.28 0 .118-.058.223-.176.317a3.36 3.36 0 0 0-.246.211c-.047.07-.211.246-.492.527-.117.188-.328.446-.633.774-.281.328-.48.562-.597.703Zm-1.758 6.926c0-.07.117-.246.351-.528.258-.304.457-.539.598-.703.352-.468.773-1.148 1.266-2.039.515-.89.808-1.476.879-1.758.046-.14-.024-.21-.211-.21-.375 0-1.407.105-3.094.316-1.102.14-1.922.281-2.461.422a.677.677 0 0 1-.352.105c-.187 0-.386-.129-.597-.386a.93.93 0 0 1-.141-.457c0-.094.059-.188.176-.282l.105-.14c.071-.141.153-.328.246-.563.094-.234.176-.457.247-.668.117-.375.199-.785.246-1.23.023-.258.164-.328.421-.211.329.164.575.328.739.492.187.14.246.246.176.316a3.5 3.5 0 0 0-.563.95 9.844 9.844 0 0 0-.211.738c0 .094.059.14.176.14.351 0 .879-.058 1.582-.175l1.477-.176c.585-.07 1.054-.14 1.406-.211l.879-.176a.913.913 0 0 1 .281-.035c.117 0 .234.047.351.14.118.071.247.165.387.282.235.21.387.387.457.527a.8.8 0 0 1 .106.422c0 .094-.071.211-.211.352-.117.14-.258.363-.422.668-.68 1.383-1.559 2.543-2.637 3.48a4.86 4.86 0 0 1-1.019.598 4.183 4.183 0 0 1-.457.105c-.118 0-.176-.035-.176-.105Zm11.25-16.242c.281 0 .422.129.422.386 0 .14-.129.34-.387.598-.703.867-2.098 2.52-4.184 4.957-.164.21-.316.316-.457.316-.117 0-.375-.175-.773-.527-.328-.281-.492-.516-.492-.703 0-.211.176-.41.527-.598.539-.304 1.348-.914 2.426-1.828 1.078-.96 1.875-1.723 2.39-2.285.211-.21.387-.316.528-.316Zm-41.871-4.922c-.258.023-.586.035-.985.035h-.351c-.328-.047-.563-.106-.703-.176-.235-.164-.481-.434-.739-.809-.257-.398-.386-.726-.386-.984 0-.164.07-.246.211-.246.093 0 .175.012.246.035.422.117.937.176 1.547.176h.457l13.711-.879a7.287 7.287 0 0 0 1.582-.316.597.597 0 0 1 .246-.035c.304 0 .703.234 1.195.703.516.468.773.82.773 1.054 0 .282-.293.446-.878.492l-15.926.95Zm-9.563 24.785c0-.211.27-.469.809-.774 2.062-1.195 3.785-2.496 5.168-3.902 1.406-1.406 2.566-3.082 3.48-5.027.914-1.969 1.653-4.348 2.215-7.137l-6.152.316a17.13 17.13 0 0 1-1.196.036c-.304 0-.55-.024-.738-.07a1.14 1.14 0 0 1-.527-.317 3.467 3.467 0 0 1-.703-.985c-.164-.351-.246-.585-.246-.703 0-.14.105-.21.316-.21h.21c.446.14.985.21 1.618.21h.352l22.183-1.125a6.824 6.824 0 0 0 1.617-.316c.141-.047.235-.07.282-.07.281 0 .691.234 1.23.703s.809.855.809 1.16c0 .258-.281.41-.844.457l-9.633.492-.211 12.13v.105c0 .585.141 1.02.422 1.3.281.258.68.422 1.195.492.54.07 1.313.106 2.321.106 1.406 0 2.648-.117 3.726-.352.399-.07.727-.293.985-.668.258-.375.504-1.03.738-1.968.234-.938.48-2.32.738-4.149.071-.468.164-.832.282-1.09.14-.28.281-.421.421-.421.258 0 .411.28.457.843.071.563.106 1.325.106 2.285 0 1.477-.07 2.989-.211 4.536-.07.773-.281 1.382-.633 1.828-.328.468-.996.832-2.004 1.09-.984.28-2.449.421-4.394.421-1.36 0-2.473-.07-3.34-.21-.867-.118-1.606-.458-2.215-1.02-.609-.54-.914-1.406-.914-2.602v-.105l.211-12.445-3.727.21c-.937 4.782-2.437 8.508-4.5 11.18-2.039 2.649-4.91 4.582-8.613 5.801-.281.094-.539.14-.773.14-.211 0-.317-.058-.317-.175Zm94.465-20.742c-.141 0-.328-.153-.562-.457-.235-.329-.34-.61-.317-.844.047-.188.082-.715.106-1.582.023-.586.035-1.617.035-3.094 0-1.031-.012-1.723-.035-2.074l-1.161.105c-.82.118-1.523.176-2.109.176-.164 0-.398-.129-.703-.387-.305-.257-.457-.445-.457-.562 0-.188.199-.258.598-.211.257.023 1.019.012 2.285-.035a114.49 114.49 0 0 1 3.761-.211c.399-.024.762-.059 1.09-.106.352-.07.598-.117.739-.14.211-.024.398 0 .562.07.164.07.316.164.457.281.164.094.293.164.387.211.211.14.316.27.316.387 0 .094-.058.188-.176.281a.512.512 0 0 1-.316.106c-.117 0-.281-.012-.492-.035a5.154 5.154 0 0 0-.633-.036c-.867 0-1.758.024-2.672.07-.023.188-.035.657-.035 1.407-.047 1.266-.07 2.508-.07 3.727v1.687c0 .399-.035.656-.106.774-.211.328-.375.492-.492.492Zm-3.762 6.222c-.257 0-.574-.199-.949-.597-.281-.282-.422-.492-.422-.633 0-.07.047-.106.141-.106a1.48 1.48 0 0 1 .351-.035l.774-.035c.445 0 .738-.012.879-.035.445 0 .82-.012 1.125-.035 2.015-.188 3.375-.34 4.078-.457a29.8 29.8 0 0 0 .949-.14c.281-.071.504-.106.668-.106.328 0 .656.164.984.492.258.258.387.469.387.633 0 .14-.082.234-.246.28-.117.024-.809.071-2.074.142-.703.023-1.57.082-2.602.175a92.491 92.491 0 0 0-2.707.282c-.14.023-.34.058-.597.105-.258.047-.504.07-.739.07Zm7.559 12.13c.047.093.129.234.246.421.117.188.176.41.176.668a.67.67 0 0 1-.281.563.938.938 0 0 1-.633.246c-.211 0-.387-.211-.528-.633-.07-.164-.129-.305-.175-.422a3.344 3.344 0 0 0-.071-.246 8.055 8.055 0 0 1-1.195.246c-.492.07-.844.129-1.055.176-1.125.21-1.898.363-2.32.457-.164.047-.34.094-.527.14-.188.07-.293.118-.317.141-.14.047-.246.07-.316.07-.188 0-.363-.082-.527-.246a1.91 1.91 0 0 1-.633-.843c-.024-.024-.035-.06-.035-.106 0-.047.058-.105.175-.176a2.68 2.68 0 0 1 .317-.14c.304-.164.843-.657 1.617-1.477l.949-.914-2.074-1.125c-.234-.07-.387-.152-.457-.246s-.106-.234-.106-.422c0-.14.024-.234.071-.281.07-.07.211-.176.422-.317.211-.14.421-.328.632-.562a4.3 4.3 0 0 1 .457-.457c.188-.164.364-.34.528-.527.703-.82 1.148-1.465 1.336-1.934.117-.234.211-.352.281-.352.047 0 .141.047.281.141.446.328.715.633.809.914v.105c0 .118-.059.212-.176.282-.117.07-.199.129-.246.176-.07.046-.422.386-1.055 1.02l-.633.632-.597.598c-.281.257-.422.41-.422.457 0 .07.035.128.105.175a.814.814 0 0 1 .211.141l1.477.703c.914-.914 1.441-1.453 1.582-1.617.609-.703.949-1.148 1.019-1.336a.788.788 0 0 0 .106-.176c.047-.094.094-.14.141-.14.07 0 .14.035.21.105.375.352.645.68.809.984.047.094.07.153.07.176 0 .047-.058.117-.175.211l-.282.211c-.82.68-1.781 1.57-2.882 2.672l-2.145 2.004c-.047.047-.07.094-.07.14 0 .047.023.083.07.106.047.023.117.023.211 0l4.113-.703a15.968 15.968 0 0 0-.422-1.406v-.07c0-.071.035-.106.106-.106.094 0 .234.07.422.21.375.329.843.891 1.406 1.688Zm-33.82-12.622-.036 2.074c.141-.023.329-.023.563 0a.715.715 0 0 1 .316 0h.317c2.414.211 5.332.563 8.754 1.055.375.047.656.164.843.352.188.187.282.375.282.562-.071.774-.469 1.125-1.196 1.055-.234-.047-.679-.082-1.336-.106-.046 0-.55-.082-1.511-.246-2.907-.468-4.969-.75-6.188-.843-.445-.047-.75-.106-.914-.176-.07 1.453-.211 2.73-.422 3.832h.106c1.547 0 3.422-.082 5.625-.246l1.125-.106c3.14-.234 5.484-.445 7.031-.633l-.07-7.172-13.289.598Zm-7.77-5.941c0-.117.035-.246.106-.387 1.031-1.969 1.816-4.125 2.355-6.469.047-.258.117-.445.211-.562.094-.117.234-.176.422-.176.281 0 .597.094.949.281.352.164.527.364.527.598 0 .047-.023.187-.07.422l-.176.773 9.633-.527a13.945 13.945 0 0 0-1.652-1.723 73.557 73.557 0 0 1-1.09-1.02 1.585 1.585 0 0 1-.281-.28.376.376 0 0 1-.035-.352c.046-.234.21-.469.492-.703.304-.235.539-.328.703-.281.164.023.539.269 1.125.738s1.371 1.195 2.355 2.18c.352.28.493.574.422.878-.023.094-.117.258-.281.493l10.863-.598.352-.035c.328 0 .609.082.844.246.257.164.457.351.597.562.141.211.211.364.211.457 0 .188-.105.375-.316.563a1.943 1.943 0 0 0-.387.422c-1.125 1.476-2.039 2.566-2.742 3.27-.703.702-1.196 1.054-1.477 1.054-.164 0-.246-.094-.246-.281 0-.258.129-.598.387-1.02.703-1.172 1.266-2.262 1.687-3.27l-21.691 1.055a36.518 36.518 0 0 1-1.617 4.254c-.141.375-.363.563-.668.563a3.53 3.53 0 0 1-1.09-.422c-.281-.211-.422-.445-.422-.703Zm1.652 21.48c0-.258.106-.55.317-.879.914-1.265 1.629-2.472 2.144-3.62.516-1.15.903-2.485 1.161-4.009.257-1.546.386-3.445.386-5.695 0-.96-.023-1.64-.07-2.039-.023-.398-.094-.727-.211-.984-.141-.188-.211-.364-.211-.528 0-.047.023-.093.07-.14.047-.047.118-.07.211-.07.586 0 1.289.187 2.11.562l5.308-.246.071-5.098c0-.445-.164-.937-.493-1.476-.093-.165-.14-.293-.14-.387 0-.188.129-.281.386-.281.258 0 .692.093 1.301.28.492.141.809.282.949.423.141.14.211.34.211.597l-.211 5.836 6.504-.316.457-.035c.399 0 .739.164 1.02.492.281.305.422.55.422.738 0 .094-.024.211-.07.352a.863.863 0 0 0-.071.316l.106 13.852.035.914c0 .469-.176.867-.527 1.195-.305.281-.586.422-.844.422-.282 0-.938-.293-1.969-.879a26.898 26.898 0 0 1-2.848-1.828c-.89-.656-1.336-1.102-1.336-1.336 0-.14.106-.21.317-.21.258 0 .586.081.984.245 1.406.563 2.754.985 4.043 1.266l-.035-5.274c-1.406.493-3.539.985-6.398 1.477-2.86.492-4.793.738-5.801.738-.961 0-1.606-.422-1.934-1.265a12.911 12.911 0 0 1-1.476 3.55c-.657 1.078-1.325 1.934-2.004 2.567-.657.633-1.196.972-1.617 1.02-.165 0-.247-.083-.247-.247ZM157 12.594c0-.211.105-.446.316-.703.211-.258.422-.387.633-.387.188 0 .68.305 1.477.914a21.65 21.65 0 0 1 2.215 1.863c.703.656 1.054 1.09 1.054 1.301 0 .211-.14.457-.422.738-.281.305-.539.457-.773.457-.234 0-.492-.152-.773-.457a38.4 38.4 0 0 0-3.516-3.304c-.141-.141-.211-.282-.211-.422Zm10.758 4.148c0-.187.152-.433.457-.738a19.714 19.714 0 0 0 2.355-2.813c.68-.96 1.043-1.675 1.09-2.144a.594.594 0 0 0 .035-.246c0-.305.094-.457.282-.457.304 0 .703.234 1.195.703.516.445.773.82.773 1.125 0 .305-.621.984-1.863 2.039-1.219 1.031-2.309 1.828-3.27 2.39l-.175.106c-.235.14-.457.211-.668.211-.141 0-.211-.059-.211-.176Zm78.363-2.355c-.164 0-.34-.106-.527-.317a2.15 2.15 0 0 1-.282-.386c-.046-.118-.046-.27 0-.457l.036-.844c.023-.164.035-.563.035-1.195v-1.16l-1.055.492-1.23.527a10.87 10.87 0 0 0-.95.422c-.281.14-.527.21-.738.21a2.17 2.17 0 0 1-.562-.175 4.837 4.837 0 0 1-.493-.246c-.257-.164-.375-.34-.351-.527l.105-.352c0-.188.012-.352.036-.492l.035-2.04V5.95c0-.375-.024-.691-.071-.949-.047-.281-.082-.48-.105-.598 0-.117.035-.199.105-.246.024-.023.082-.035.176-.035.164 0 .481.106.949.316.399.188.563.422.493.704-.047.164-.094.41-.141.738l-.106 4.043c0 .117.012.21.036.281.046.047.093.07.14.07.282 0 .621-.082 1.02-.246.75-.234 1.394-.468 1.933-.703l.774-.316v-2.32c0-.938-.059-1.84-.176-2.708a.792.792 0 0 1-.035-.246c0-.234.094-.351.281-.351.024 0 .152.047.387.14.351.188.609.352.773.493.164.14.258.222.282.246.093.07.14.14.14.21a.34.34 0 0 1-.07.176c-.024.07-.047.13-.07.176l-.106 1.055-.035 3.234.035 3.13c0 .538-.035 1.007-.105 1.405-.118.493-.305.739-.563.739Zm-6.469 5.765c-.257 0-.574-.199-.949-.597-.281-.282-.422-.492-.422-.633 0-.07.047-.106.141-.106a1.48 1.48 0 0 1 .351-.035l.774-.035c.445 0 .738-.012.879-.035.445 0 .82-.012 1.125-.035 2.015-.188 3.375-.34 4.078-.457a29.8 29.8 0 0 0 .949-.14c.281-.071.504-.106.668-.106.328 0 .656.164.984.492.258.258.387.469.387.633 0 .14-.082.234-.246.28-.117.024-.809.071-2.074.142-.703.023-1.57.082-2.602.175a92.491 92.491 0 0 0-2.707.282c-.14.023-.34.058-.597.105-.258.047-.504.07-.739.07Zm4.711 14.52c-.726 0-1.289-.024-1.687-.07a1.68 1.68 0 0 1-.949-.422c-.446-.328-.75-1.043-.915-2.145l-.105-1.125c0-.281-.023-.633-.07-1.055a5.987 5.987 0 0 0-.809.141 3.817 3.817 0 0 1-.246.106.965.965 0 0 1-.211.035.81.81 0 0 1-.457-.14c-.141-.095-.316-.27-.527-.528-.164-.211-.246-.352-.246-.422s.082-.117.246-.14c.164-.024.386-.036.668-.036.398 0 .914-.047 1.547-.14l-.036-.493c0-.937-.058-1.734-.175-2.39l-.036-.246c0-.329.129-.457.387-.387.281.094.539.21.774.351.187.094.316.188.386.282.071.07.094.175.071.316l-.106 1.512v.914l3.094-.317c0-.164.012-.55.035-1.16.024-.633.024-1.043 0-1.23 0-.188-.023-.363-.07-.527a6.529 6.529 0 0 0-.071-.458c0-.187.094-.28.282-.28.187 0 .422.105.703.316.328.21.539.398.633.562.117.164.14.363.07.598a6.4 6.4 0 0 0-.246 1.265c-.047.47-.07.75-.07.844.281-.023.539-.058.773-.105.234-.047.387-.07.457-.07.188-.047.41-.071.668-.071.141.023.34.164.598.422.211.281.316.504.316.668 0 .234-.223.328-.668.281a6.863 6.863 0 0 0-1.195-.105c-.399 0-.738.011-1.02.035-.07.844-.211 1.676-.422 2.496a.953.953 0 0 1-.246.457c-.117.14-.222.21-.316.21-.164 0-.27-.07-.317-.21a3.524 3.524 0 0 1-.035-.598c.047-.61.071-1.37.071-2.285a26.99 26.99 0 0 0-1.477.14 9.357 9.357 0 0 1-1.512.212c-.023.96.024 1.816.141 2.566.07.492.211.832.422 1.02.14.117.305.187.492.21.211.024.422.036.633.036h.422c.726 0 1.406-.035 2.039-.106a1.52 1.52 0 0 0 .492-.14c.164-.07.281-.106.352-.106.21 0 .421.07.632.211.211.14.317.305.317.492 0 .188-.106.328-.317.422-.187.094-.492.176-.914.246-.75.094-1.5.14-2.25.14Zm10.02-15.996c.281 0 .422.129.422.387 0 .14-.129.34-.387.597-.703.867-2.098 2.52-4.184 4.957-.164.211-.316.317-.457.317-.117 0-.375-.176-.773-.528-.328-.281-.492-.515-.492-.703 0-.21.176-.41.527-.598.539-.304 1.348-.914 2.426-1.828 1.078-.96 1.875-1.722 2.39-2.285.211-.21.387-.316.528-.316Zm-44.684 11.496c2.086-.656 3.949-1.371 5.59-2.145a25.586 25.586 0 0 0-1.336-1.687c-.187-.235-.281-.422-.281-.563 0-.258.152-.48.457-.668.305-.21.539-.316.703-.316.188 0 .387.117.598.352a137.853 137.853 0 0 1 3.41 4.148c.937 1.195 1.406 1.922 1.406 2.18 0 .21-.164.457-.492.738-.305.305-.598.457-.879.457-.234 0-.469-.188-.703-.563a96.435 96.435 0 0 0-1.828-2.671l-4.219 2.109c-.469.21-1.207.586-2.215 1.125-.844.445-1.359.668-1.547.668-.14 0-.316-.094-.527-.281a1.65 1.65 0 0 1-.492-.633c-.094-.234-.094-.422 0-.563.14-.257.211-1.289.211-3.093V16.602c0-.563-.024-1.02-.071-1.372a3.587 3.587 0 0 0-.281-1.125 1.37 1.37 0 0 0-.07-.175.305.305 0 0 1-.035-.14c0-.118.082-.177.246-.177.304 0 1.066.258 2.285.774l7.629-.528c.187-.023.398-.035.633-.035.257 0 .562.117.914.352.351.21.527.445.527.703 0 .094-.059.234-.176.422-.094.187-.14.328-.14.422l-.914 6.609c.562.656.843 1.102.843 1.336 0 .117-.07.2-.211.246-.117.047-.304.07-.562.07l-8.508.317.035 5.87Zm-5.765-15.785c0-.235.152-.516.457-.844 1.711-1.898 3.199-3.785 4.464-5.66 1.266-1.875 1.899-3.13 1.899-3.762l-.035-.246V3.77c0-.329.129-.493.386-.493.305 0 .727.211 1.266.633.563.399.844.727.844.985 0 .117-.059.27-.176.457a23.895 23.895 0 0 1-1.16 1.687l4.992-.387a4.872 4.872 0 0 0 1.336-.28c.141-.048.246-.071.316-.071.352 0 .727.199 1.125.597.422.375.633.668.633.88 0 .28-.258.445-.773.492l-6.012.421c.164.047.527.293 1.09.739.586.445 1.113.902 1.582 1.37.469.47.703.798.703.985 0 .211-.141.469-.422.774-.281.28-.527.421-.738.421-.188 0-.41-.152-.668-.457a21.796 21.796 0 0 0-2.426-2.285c-.281-.234-.422-.433-.422-.597 0-.118.059-.27.176-.457.117-.188.27-.34.457-.457l-2.355.175a34.406 34.406 0 0 1-3.727 3.903c-1.359 1.195-2.226 1.793-2.601 1.793-.141 0-.211-.07-.211-.211Zm12.656 3.656.246-2.461-7.242.492v2.32l6.996-.351Zm-.457 4.36.281-2.708-6.785.317v2.636l6.504-.246Zm1.898-9.528c0-.234.153-.516.457-.844 1.149-1.383 2.192-2.941 3.129-4.676.961-1.757 1.442-2.988 1.442-3.69v-.142c0-.351.129-.527.386-.527.164 0 .41.094.739.281.351.164.668.364.949.598.281.234.422.469.422.703 0 .211-.164.586-.493 1.125-.328.54-.503.82-.527.844l6.926-.563a6.483 6.483 0 0 0 1.336-.246c.047-.023.141-.035.281-.035.328 0 .68.188 1.055.563.398.351.597.644.597.879 0 .14-.07.257-.21.351-.118.07-.282.117-.493.14l-7.136.493c.656.422 1.429 1.043 2.32 1.863.891.797 1.336 1.336 1.336 1.617 0 .164-.129.422-.387.774-.258.328-.504.492-.738.492-.188 0-.387-.117-.598-.352-1.148-1.242-2.191-2.226-3.129-2.953-.234-.187-.351-.363-.351-.527 0-.188.176-.469.527-.844l-2.601.176c-.774 1.031-1.711 2.074-2.813 3.129-1.078 1.055-1.805 1.582-2.18 1.582-.164 0-.246-.07-.246-.211Zm3.305.773c0-.14.082-.21.246-.21.352 0 1.148.292 2.391.878l7.066-.597.281-.035c.094 0 .27.046.528.14.281.07.539.2.773.387.258.164.387.387.387.668 0 .094-.035.223-.106.387-.07.164-.105.28-.105.351a88.243 88.243 0 0 1-.492 8.262l-.071.879c-.07.984-.164 1.805-.281 2.46-.117.657-.316 1.173-.598 1.548-.445.609-.925.914-1.441.914s-1.172-.317-1.969-.95a18.576 18.576 0 0 1-2.215-2.074c-.656-.75-.984-1.23-.984-1.441 0-.164.094-.246.281-.246.211 0 .504.117.879.351.867.54 1.594.973 2.18 1.301.586.328 1.008.492 1.266.492.117 0 .199-.082.246-.246.539-3 .867-6.762.984-11.285l-6.609.492c0 3.961.035 10.242.105 18.844 0 .21-.058.363-.176.457a.466.466 0 0 1-.386.176c-.188 0-.411-.07-.668-.211-.446-.188-.762-.363-.95-.528-.187-.164-.281-.351-.281-.562l.035-.246c.141-.773.211-1.64.211-2.602l-.105-14.836c0-.609-.024-1.078-.07-1.406a3.306 3.306 0 0 0-.211-.95c-.094-.28-.141-.468-.141-.562ZM43.594 68.219c-.271 0-.469-.094-.594-.281a3.672 3.672 0 0 0-.563-.657c-.166-.166-.468-.396-.906-.687l.094-.156c.958.333 1.635.5 2.031.5.334 0 .698-.188 1.094-.563.417-.396.77-.958 1.063-1.688.145-.333.25-.604.312-.812.083-.23.146-.48.188-.75v-.063c0-.187-.094-.28-.282-.28-.208 0-.583.062-1.125.187-.291.083-.677.208-1.156.375l-.25-.063a.726.726 0 0 0-.156-.093 1.238 1.238 0 0 1-.157-.188c-.104-.104-.156-.177-.156-.219L43 62.656c0-.146.073-.281.219-.406.166-.125.26-.219.281-.281.167-.188.5-.646 1-1.375a2.72 2.72 0 0 0 .219-.282c.104-.166.156-.312.156-.437 0-.146-.615-.042-1.844.313-1.25.374-1.906.562-1.968.562-.209 0-.428-.177-.657-.531-.166-.167-.25-.302-.25-.407 0-.145.209-.229.625-.25.48-.02 1.219-.104 2.219-.25 1.02-.145 1.625-.24 1.813-.28l.437-.126a.694.694 0 0 1 .219-.031c.062 0 .156.042.281.125.146.083.27.146.375.188.27.124.427.27.469.437v.094c0 .187-.104.385-.313.593-.083.084-.25.26-.5.532-.25.25-.406.416-.468.5-.084.083-.209.218-.376.406-.166.188-.26.302-.28.344 0 .062.02.104.062.125.041.02.093.031.156.031a12.923 12.923 0 0 0 1.531-.281l.5-.157c.23 0 .396.084.5.25.188.209.313.386.375.532a.398.398 0 0 1 0 .375.785.785 0 0 1-.093.187 2.057 2.057 0 0 0-.126.219l-.124.25c-.063.125-.105.25-.126.375-.374 1.083-.822 2.01-1.343 2.781a4.96 4.96 0 0 1-.969.906c-.48.355-.948.532-1.406.532Zm3.593 8.375c-.312 0-.614-.23-.906-.688a9.89 9.89 0 0 0-1.093-1.437l-.813-.844c-.438.5-.823.896-1.156 1.188a6.227 6.227 0 0 1-1.188.843c-.896.521-1.646.781-2.25.781-.146 0-.218-.052-.218-.156 0-.062.197-.198.593-.406a6.6 6.6 0 0 0 1.125-.75c.896-.75 1.636-1.52 2.219-2.313-.125-.124-.75-.666-1.875-1.624a10.656 10.656 0 0 1-.656-.532 8.042 8.042 0 0 1-.375-.281c-.188-.146-.282-.25-.282-.313 0-.104.053-.156.157-.156.312 0 .812.219 1.5.656.687.417 1.406.917 2.156 1.5.292-.354.52-.687.688-1 .166-.312.354-.697.562-1.156.104-.229.167-.427.188-.594.02-.187.03-.302.03-.343 0-.23.063-.344.188-.344.146 0 .344.115.594.344.438.416.656.698.656.844 0 .083-.052.177-.156.28-.25.25-.48.584-.688 1-.124.25-.354.605-.687 1.063-.104.125-.188.24-.25.344a3.281 3.281 0 0 1-.188.281c.48.354 1.188.959 2.126 1.813.229.208.374.406.437.594.083.166.125.395.125.687a.89.89 0 0 1-.156.531.504.504 0 0 1-.407.188Zm-6.906 9.344c-.312 0-.552-.084-.718-.25-.188-.188-.282-.355-.282-.5 0-.146.084-.303.25-.47.021-.02.136-.187.344-.5.458-.728.98-1.656 1.563-2.78.604-1.146.979-1.928 1.124-2.344.126-.396.24-.74.344-1.031.125-.292.23-.438.313-.438.146 0 .27.052.375.156.104.084.208.209.312.375.125.146.219.25.282.313.145.166.218.323.218.469a.5.5 0 0 1-.125.312 1.56 1.56 0 0 0-.156.219L42.75 81.78a63.754 63.754 0 0 1-1.406 2.406.5.5 0 0 0-.125.313c0 .083.093.125.281.125.396 0 1.135-.052 2.219-.156 1.083-.084 1.812-.156 2.187-.219.542-.063.917-.125 1.125-.188.23-.062.563.094 1 .47.521.437.636.718.344.843-.167.083-.49.125-.969.125h-1.25c-.27 0-.698.02-1.281.063-.354 0-.75.01-1.188.03-.437.022-.802.042-1.093.063-.334.021-.98.084-1.938.188l-.375.094Zm13.282-13.782c.25 0 .374.115.374.344 0 .125-.114.302-.343.531-.625.771-1.865 2.24-3.719 4.406-.146.188-.281.282-.406.282-.104 0-.334-.156-.688-.469-.291-.25-.437-.458-.437-.625 0-.188.156-.365.468-.531.48-.271 1.198-.813 2.157-1.625.958-.854 1.666-1.531 2.125-2.031.187-.188.343-.282.468-.282ZM15.656 70v.094c0 .354-.177.531-.531.531-.292 0-.594-.083-.906-.25-.313-.167-.469-.417-.469-.75l.031-.313c.021-.104.031-.24.031-.406 0-.146-.01-.312-.03-.5a5.425 5.425 0 0 0-.063-.437l-.563-4.438c-.083-.562-.219-.99-.406-1.281-.146-.23-.219-.385-.219-.469 0-.125.115-.187.344-.187.375 0 1.02.166 1.938.5l4.03-.219-.062-1.406a2.076 2.076 0 0 0-.437-1.188.388.388 0 0 1-.125-.281c0-.146.135-.219.406-.219.23 0 .51.063.844.188.396.146.656.281.781.406.125.104.198.25.219.438l.093 1.968 3.97-.218.03-1.47c0-.52-.114-.958-.343-1.312a.736.736 0 0 1-.094-.312c0-.167.125-.25.375-.25.104.02.302.073.594.156.312.063.604.177.875.344.27.166.406.375.406.625l-.094 2.125 4.782-.25.406-.032c.208 0 .448.105.718.313.292.208.438.417.438.625 0 .083-.02.177-.063.281a1.708 1.708 0 0 0-.093.219l-.844 4.906c.417.5.625.834.625 1 0 .125-.063.209-.188.25-.104.021-.312.042-.624.063l-15.844.719.062.437ZM7.812 86.906c0-.187.188-.49.563-.906 3.104-3.396 4.688-7.74 4.75-13.031 0-.709-.063-1.25-.188-1.625-.083-.292-.124-.48-.124-.563 0-.166.083-.25.25-.25.312 0 .979.26 2 .781l14.093-.624c.584-.042 1.084-.136 1.5-.282.167-.041.282-.062.344-.062.23 0 .563.177 1 .531.438.333.656.615.656.844 0 .208-.24.333-.718.375L15 72.813a33.868 33.868 0 0 1-.563 4.812L31 76.906c.583-.041 1.083-.135 1.5-.281.167-.042.292-.063.375-.063.25 0 .5.094.75.282.25.166.458.364.625.594.167.208.25.364.25.468 0 .209-.24.334-.719.375l-10.468.438c1.145 1.187 2.114 2.052 2.906 2.594 2.166-.792 3.427-1.553 3.781-2.282.104-.229.24-.344.406-.344.188 0 .427.198.719.594.292.396.438.73.438 1 0 .209-.115.365-.344.469-1 .542-2.157 1.042-3.469 1.5 1.125.625 2.385 1.156 3.781 1.594 1.396.437 3.042.833 4.938 1.187.187.042.323.084.406.125.083.042.125.104.125.188 0 .062-.073.219-.219.469-.125.25-.281.468-.468.656-.188.208-.376.312-.563.312-.063 0-.177-.02-.344-.062-2.291-.542-4.229-1.125-5.812-1.75a20.375 20.375 0 0 1-4.344-2.375c-1.333-.98-2.646-2.24-3.938-3.781l-2.53.093-.157 5.688c1.354-.354 2.948-.813 4.781-1.375a2.86 2.86 0 0 1 .907-.156c.25 0 .375.062.375.187 0 .23-.365.552-1.094.969-.73.416-1.625.844-2.688 1.281-.479.208-.875.375-1.187.5-.313.146-.552.26-.719.344-.792.396-1.292.594-1.5.594-.208 0-.438-.178-.688-.532-.25-.354-.312-.625-.187-.812.083-.146.146-.563.188-1.25a26.29 26.29 0 0 0 .062-1.5L16.969 79l-2.875.125c-.521 1.667-1.209 3.104-2.063 4.313-.854 1.187-1.677 2.093-2.469 2.718-.791.625-1.302.938-1.53.938-.147 0-.22-.063-.22-.188Zm7.282-21.844L19 64.844l-.094-1.625-4 .218.188 1.626Zm.344 3.157 3.687-.188-.063-1.781-3.812.188.188 1.78Zm.75 6.062c0-.083.052-.125.156-.125.083 0 .156.01.218.031.417.105.823.157 1.22.157h.28l9.25-.438c.584-.041 1.084-.135 1.5-.281.167-.042.292-.063.375-.063.25 0 .5.094.75.282.25.166.459.364.625.594.167.208.25.364.25.468 0 .188-.24.302-.718.344l-11.438.563-.718.03c-.813 0-1.365-.395-1.657-1.187a1.2 1.2 0 0 1-.093-.375Zm4.5-9.5 3.75-.187.062-1.656-3.875.187.063 1.656Zm.156 3.188 3.531-.188.031-1.781-3.656.188.094 1.78Zm9.031-.438.25-1.812-4.031.187-.063 1.813 3.844-.188Zm.438-3.219.218-1.687-4.312.219-.063 1.656 4.157-.188ZM92.53 72c-.333 0-.541-.094-.625-.281a4.343 4.343 0 0 0-.312-.625c-.104-.188-.292-.406-.563-.656l.063-.126c.75.271 1.24.407 1.469.407.166 0 .291-.031.374-.094.084-.063.22-.208.407-.438.27-.291.52-.74.75-1.343.312-.896.51-1.823.594-2.781v-.094c0-.125-.021-.209-.063-.25-.27 0-.99.062-2.156.187-.646 1.604-1.396 2.927-2.25 3.969-.834 1.02-1.594 1.531-2.281 1.531-.167 0-.25-.062-.25-.187 0-.042.208-.281.624-.719.417-.438.876-1.01 1.376-1.719.52-.729 1.01-1.625 1.468-2.687-.104 0-.406.02-.906.062-.5.042-.927.115-1.281.219a.495.495 0 0 1-.531.063l-.063-.032a.488.488 0 0 1-.125-.094 1.365 1.365 0 0 1-.375-.312.828.828 0 0 1-.125-.406c0-.063.052-.146.156-.25l.375-.5c.125-.167.24-.406.344-.719.104-.333.156-.615.156-.844 0-.146-.01-.24-.031-.281a.348.348 0 0 1-.031-.156c0-.104.052-.157.156-.157.125 0 .302.073.531.22.063.04.177.124.344.25.188.103.292.228.313.374 0 .146-.084.386-.25.719l-.407.719a.385.385 0 0 0-.062.219c0 .062.02.114.062.156a.39.39 0 0 0 .219 0l1.875-.25c.208-.542.375-1.115.5-1.719v-.718c0-.23.063-.324.188-.282.27.063.49.146.656.25.312.188.469.344.469.469 0 .104-.042.281-.126.531a14.183 14.183 0 0 1-.438 1.344c.063 0 .449-.042 1.157-.125l.313-.063c.062 0 .177-.02.344-.062a.347.347 0 0 1 .156-.031c.25 0 .406.01.469.03.083.022.208.084.374.188.188.125.313.25.376.375.062.125.083.271.062.438l-.188 1.031-.218 1.125c0 .083-.073.354-.219.813a7.402 7.402 0 0 1-.5 1.218c-.354.709-.77 1.24-1.25 1.594-.417.333-.781.5-1.094.5Zm-4.062 7.094c-.23 0-.51-.177-.844-.531-.25-.25-.375-.438-.375-.563 0-.063.042-.094.125-.094.083-.02.188-.031.313-.031l.687-.031c.396 0 .656-.01.781-.031.396 0 .73-.01 1-.032 1.792-.166 3-.302 3.625-.406.313-.042.594-.083.844-.125.25-.063.448-.094.594-.094.291 0 .583.146.875.438.229.229.344.416.344.562 0 .125-.073.209-.22.25-.103.021-.718.063-1.843.125-.625.021-1.396.073-2.313.156-.916.084-1.718.167-2.406.25-.125.021-.302.053-.531.094-.23.042-.448.063-.656.063Zm9.094-7.875c.104 0 .26.073.468.219-.02.041.021.124.125.25l.219.218c.104.104.208.23.313.375.124.146.26.302.406.469.375.396 1.239 1.427 2.594 3.094.229.333.343.531.343.594 0 .208-.125.312-.375.312-.146 0-.302-.104-.468-.313-.396-.416-1.105-1.072-2.126-1.968-.791-.73-1.51-1.292-2.156-1.688-.312-.146-.469-.312-.469-.5 0-.146.157-.354.47-.625.29-.291.51-.437.656-.437ZM67.25 85.969v.062a.55.55 0 0 1-.156.406c-.084.105-.219.157-.406.157-.313 0-.636-.115-.97-.344-.333-.208-.5-.438-.5-.688v-.156c0-.146.011-.281.032-.406a1.76 1.76 0 0 0 .031-.344l-.031-.562-.313-6.188a4.853 4.853 0 0 0-.156-.875c-.062-.333-.125-.573-.187-.719-.146-.291-.219-.5-.219-.624 0-.126.094-.188.281-.188.271 0 .948.188 2.031.563l11.594-.532h.344c.292 0 .531.073.719.219.208.146.364.313.469.5.104.188.156.323.156.406a.603.603 0 0 1-.094.313 1.062 1.062 0 0 0-.125.281l-.531 6.313c.5.645.75 1.083.75 1.312 0 .146-.063.23-.188.25-.125.042-.333.063-.625.063l-11.937.25.031.53Zm-11.469 0c0-.209.094-.531.282-.969 1.062-2.333 1.864-4.604 2.406-6.813a40.692 40.692 0 0 0 1.062-6.78c.188-2.313.282-5.094.282-8.344 0-.605-.01-1.063-.032-1.376a3.8 3.8 0 0 0-.187-.968c-.084-.25-.125-.407-.125-.469 0-.146.073-.219.218-.219.271 0 .99.271 2.157.813l16.968-.938c.605-.02 1.136-.125 1.594-.312a.83.83 0 0 1 .375-.094c.23 0 .48.094.75.281.292.188.531.396.719.625.208.23.313.396.313.5 0 .271-.26.427-.782.469L61.812 62.5c0 1.833-.052 3.77-.156 5.813-.083 2.041-.24 3.78-.468 5.218-.459 2.98-1.073 5.417-1.844 7.313-.75 1.875-1.459 3.229-2.125 4.062-.667.854-1.104 1.281-1.313 1.281-.083 0-.125-.072-.125-.218Zm5.782-10.781c0-.209.177-.5.53-.876.647-.687 1.365-1.552 2.157-2.593a29.823 29.823 0 0 0 2.063-2.969l-1.907.156h-.25c-.458 0-.854-.125-1.187-.375-.313-.25-.469-.583-.469-1 0-.104.063-.156.188-.156l.312.063c.313.062.635.093.969.093h.218l2.75-.187c0-.854.01-1.459.032-1.813-.646.146-1.25.271-1.813.375-.562.104-.937.156-1.125.156-.396 0-.594-.083-.594-.25 0-.083.084-.177.25-.28.167-.126.407-.23.72-.313.916-.271 1.937-.646 3.062-1.125 1.146-.48 1.864-.938 2.156-1.375.104-.125.219-.188.344-.188.208 0 .406.104.594.313a2.5 2.5 0 0 1 .468.656c.146.23.219.396.219.5 0 .208-.073.333-.219.375-1.02.354-1.854.615-2.5.781v2.094l1.219-.094c.417-.041.76-.104 1.031-.187a.811.811 0 0 1 .25-.031c.23 0 .5.145.813.437.312.27.469.5.469.688 0 .208-.209.322-.626.343l-3.156.219v.563A.6.6 0 0 1 68.97 69c.125 0 .437.167.937.5.5.313.959.656 1.375 1.031.438.375.656.646.656.813 0 .208-.114.437-.343.687-.209.25-.386.375-.531.375-.146 0-.334-.114-.563-.344a20.389 20.389 0 0 0-1.969-1.718v4.5c0 .437-.156.656-.469.656-.145 0-.364-.063-.656-.188-.25-.124-.427-.25-.531-.374a.77.77 0 0 1-.125-.438c0-.167.01-.292.031-.375.084-.667.125-1.146.125-1.438l.031-.968c0-.417.042-.969.126-1.656-.23.541-.72 1.24-1.47 2.093-.75.834-1.52 1.573-2.312 2.219-.77.646-1.291.969-1.562.969-.104 0-.157-.052-.157-.156Zm5.312 4.656 10.781-.375.125-2.344-11.031.531.125 2.188Zm.25 4 10.281-.25.156-2.625-10.593.375.156 2.5Zm3.563-9.25c0-.209.197-.51.593-.906a30.787 30.787 0 0 0 4.375-5.376l-1.562.126h-.281c-.396 0-.688-.073-.876-.22-.354-.312-.593-.614-.718-.906a1.31 1.31 0 0 1-.063-.218c0-.104.073-.156.219-.156a.81.81 0 0 1 .25.03c.313.084.615.126.906.126l.344-.031 2.438-.157.062-1.969c-.083.021-.542.126-1.375.313-.813.188-1.427.281-1.844.281-.396 0-.594-.073-.594-.219 0-.083.094-.187.282-.312.208-.125.49-.24.844-.344.916-.291 1.99-.677 3.218-1.156 1.23-.5 1.99-.969 2.281-1.406.105-.167.23-.25.376-.25.27 0 .552.198.843.593.313.376.469.678.469.907a.415.415 0 0 1-.094.25c-.041.062-.083.093-.125.093a33.24 33.24 0 0 1-2.75.876c-.02.458-.031 1.208-.031 2.25l2.219-.126c.229-.02.573-.093 1.031-.218a.945.945 0 0 1 .281-.031c.23 0 .51.124.844.374.333.23.5.49.5.782 0 .208-.24.333-.719.375l-4.156.25v.719c.375.124 1.115.53 2.219 1.218a59.677 59.677 0 0 1 3.156 2c.02.021.094.104.219.25.146.125.219.26.219.406 0 .126-.073.344-.22.657-.124.291-.29.448-.5.469h-.062c-.166 0-.354-.084-.562-.25-1.584-1.209-3.073-2.24-4.469-3.094l-.031 3.844c0 .25-.031.437-.094.562a.323.323 0 0 1-.313.188c-.312 0-.614-.115-.906-.344-.291-.23-.437-.48-.437-.75l.031-.313c.083-.666.125-1.146.125-1.437v-.875c0-.5.063-1.167.188-2-.459.833-1.084 1.656-1.876 2.469a19.243 19.243 0 0 1-2.312 2c-.75.52-1.219.78-1.406.78-.104 0-.156-.04-.156-.124Zm65.781-.188c-.229 0-.511-.177-.844-.531-.25-.25-.375-.438-.375-.563 0-.062.042-.093.125-.093.083-.021.187-.031.313-.031l.687-.032c.396 0 .656-.01.781-.031.396 0 .729-.01 1-.031 1.792-.167 3-.302 3.625-.406.313-.042.594-.084.844-.126.25-.062.448-.093.594-.093.291 0 .583.146.875.437.229.23.344.417.344.563 0 .125-.073.208-.219.25-.104.02-.719.062-1.844.125-.625.02-1.396.073-2.313.156-.916.083-1.718.167-2.406.25-.125.02-.302.052-.531.094a3.676 3.676 0 0 1-.656.062ZM107.625 74c-.229.02-.51.031-.844.031-.416 0-.729-.073-.937-.219-.229-.187-.459-.5-.688-.937-.208-.438-.312-.73-.312-.875 0-.125.052-.188.156-.188l.25.063c.375.104.771.156 1.188.156L107 72l22.156-1.125c.5-.042.938-.135 1.313-.281a.43.43 0 0 1 .187-.031c.167 0 .396.093.688.28.312.188.583.417.812.688.229.25.344.48.344.688 0 .312-.24.49-.719.531L107.625 74Zm77.531-3.719c-.687-.25-1.01-.52-.968-.812.124-.875.187-1.875.187-3a13.453 13.453 0 0 0-.094-1.781c-.021-.209-.021-.323 0-.344a.426.426 0 0 1 .313-.125c.187 0 .416.083.687.25.292.166.438.333.438.5 0 .104-.011.208-.031.312a1.152 1.152 0 0 0-.032.281l-.187 3.094c0 .167.062.271.187.313h.156c.167 0 .282-.01.344-.031l4.032-.563v-.813c0-1.02-.021-1.812-.063-2.374-.021-.48-.073-.865-.156-1.157-.063-.333.021-.5.25-.5.166 0 .385.063.656.188.333.166.531.312.594.437.062.104.083.271.062.5-.041.375-.062.938-.062 1.688l.031 2.375c0 .5-.094.896-.281 1.187-.104.125-.209.188-.313.188-.104 0-.25-.094-.437-.281a1.845 1.845 0 0 1-.157-.188.41.41 0 0 0-.187-.156.814.814 0 0 0-.25-.031c-.479.041-1.635.197-3.469.468-.312.042-.562.125-.75.25-.208.104-.344.156-.406.156l-.094-.03Zm3.5 12.656c-.646 0-1.146-.02-1.5-.062a1.5 1.5 0 0 1-.844-.375c-.395-.292-.666-.927-.812-1.906l-.094-1c0-.25-.021-.563-.062-.938a5.336 5.336 0 0 0-.719.125c-.042.021-.115.052-.219.094a.856.856 0 0 1-.187.031.722.722 0 0 1-.407-.125c-.124-.083-.281-.24-.468-.469-.146-.187-.219-.312-.219-.374 0-.063.073-.105.219-.126.146-.02.344-.03.594-.03a9.76 9.76 0 0 0 1.374-.126l-.031-.437c0-.834-.052-1.542-.156-2.125l-.031-.219c0-.292.114-.406.344-.344.25.084.479.188.687.313.167.083.281.166.344.25.062.062.083.156.062.281l-.093 1.344v.812l2.75-.281c0-.146.01-.49.031-1.031.021-.563.021-.927 0-1.094 0-.167-.021-.323-.063-.469a5.904 5.904 0 0 0-.062-.406c0-.167.083-.25.25-.25.166 0 .375.094.625.281.291.188.479.354.562.5.104.146.125.323.063.531a5.704 5.704 0 0 0-.219 1.126c-.042.416-.063.666-.063.75.25-.021.48-.053.688-.094.208-.042.344-.063.406-.063.167-.041.365-.062.594-.062.125.02.302.146.531.375.188.25.281.448.281.594 0 .208-.197.291-.593.25a6.108 6.108 0 0 0-1.063-.094c-.354 0-.656.01-.906.031-.062.75-.188 1.49-.375 2.219a1.09 1.09 0 0 1-.219.437c-.104.104-.198.156-.281.156-.146 0-.24-.052-.281-.156a3.672 3.672 0 0 1-.032-.562 27.07 27.07 0 0 0 .063-2.031c-.563.041-1 .083-1.313.124a8.296 8.296 0 0 1-1.343.188 12.86 12.86 0 0 0 .125 2.281c.062.438.187.74.375.906a.83.83 0 0 0 .437.188c.188.02.375.031.563.031h.375c.646 0 1.25-.031 1.812-.094.167-.02.313-.062.438-.124.146-.063.25-.094.312-.094.188 0 .375.062.563.187.187.125.281.271.281.438 0 .166-.094.291-.281.375-.167.083-.438.156-.813.219-.666.083-1.333.124-2 .124Zm4.906-11.718c.105 0 .261.073.469.219-.021.041.021.124.125.25l.219.218c.104.104.208.23.313.375.124.146.26.302.406.469.375.396 1.239 1.427 2.594 3.094.229.333.343.531.343.594 0 .208-.125.312-.375.312-.146 0-.302-.104-.468-.313-.396-.416-1.105-1.072-2.126-1.968-.791-.73-1.51-1.292-2.156-1.688-.312-.146-.468-.312-.468-.5 0-.146.156-.354.468-.625.292-.291.511-.437.656-.437Zm-32.156 5.125c-.521 2.229-1.344 4.114-2.468 5.656-1.126 1.52-2.594 3.01-4.407 4.469-.437.354-.791.531-1.062.531-.146 0-.219-.073-.219-.219 0-.208.167-.49.5-.844 1.729-1.916 3.042-3.74 3.938-5.468.916-1.73 1.541-3.625 1.874-5.688.355-2.083.532-4.698.532-7.844V64c0-1.146-.104-2.031-.313-2.656a1.283 1.283 0 0 1-.093-.438c0-.166.093-.25.281-.25.333 0 1.062.282 2.187.844l11.156-.656.344-.032c.354 0 .667.146.938.438.271.27.406.51.406.719 0 .083-.031.208-.094.375a1.237 1.237 0 0 0-.094.406l.157 21.656.031 1.063c0 .437-.104.802-.312 1.094-.188.291-.407.5-.657.624-.25.146-.458.22-.625.22-.375 0-1.01-.324-1.906-.97a19.93 19.93 0 0 1-2.5-2.062c-.771-.73-1.156-1.23-1.156-1.5 0-.125.073-.188.218-.188.23 0 .573.136 1.032.407a20.023 20.023 0 0 0 3.812 1.75l-.062-8.969-11.438.469Zm11.438-2.188-.032-4.875-10.718.406c-.084 2.25-.209 3.896-.375 4.938l11.125-.469Zm-.032-6.687-.031-4.781-10.562.656-.063 4.656 10.656-.531Zm58.782 10.906c-.146 0-.24-.01-.282-.031-.02-.042.011-.115.094-.219.292-.27.521-.531.688-.781.187-.271.385-.698.594-1.281.333-.959.5-1.698.5-2.22 0-.478-.032-.916-.094-1.312v-.094c0-.229.146-.302.437-.218.25.062.531.146.844.25a.946.946 0 0 1 .281-.031c.125-.021.323-.053.594-.094a53.54 53.54 0 0 1 2.75-.313c0-.083.083-.375.25-.875l.188-.687c.083-.292.052-.438-.094-.438-.417 0-1.386.104-2.906.313l-1.657.281c-.146.02-.333-.042-.562-.188a1.89 1.89 0 0 1-.5-.5c-.104-.187-.084-.312.062-.374a.94.94 0 0 1 .5-.157H234l2.062-.062 2-.25c.105-.021.23-.052.376-.094.166-.063.322-.104.468-.125.209-.042.563.188 1.063.688a.39.39 0 0 1 .125.28c0 .126-.084.25-.25.376-.229.229-.375.427-.438.594-.021.104-.062.26-.125.468a6.948 6.948 0 0 0-.187.719.788.788 0 0 1 .187.531c0 .167-.052.292-.156.375-.083.063-.26.094-.531.094-.938.063-1.677.125-2.219.188-.542.041-1.198.145-1.969.312a10.063 10.063 0 0 1-.562 2.594c-.292.77-.698 1.354-1.219 1.75-.5.354-.844.531-1.031.531Zm13.968-14.344c.25 0 .376.115.376.344 0 .125-.115.302-.344.531-.625.771-1.865 2.24-3.719 4.406-.146.188-.281.282-.406.282-.104 0-.334-.156-.688-.469-.291-.25-.437-.458-.437-.625 0-.188.156-.365.468-.531.48-.271 1.198-.813 2.157-1.625.958-.854 1.666-1.531 2.125-2.031.187-.188.344-.282.468-.282Zm-29.781 21.813c0 .562-.187.844-.562.844-.25 0-.531-.094-.844-.282-.396-.229-.677-.427-.844-.594-.146-.166-.219-.385-.219-.656 0-.146.011-.26.032-.344.146-.77.218-1.395.218-1.874V72.061l-9.5.532c-.208.02-.479.031-.812.031-.458 0-.792-.073-1-.219a2.686 2.686 0 0 1-.719-1c-.166-.416-.25-.687-.25-.812s.063-.188.188-.188l.25.063c.312.104.739.156 1.281.156h.375l10.187-.563v-9.156c0-.541-.124-.99-.374-1.343-.105-.146-.157-.26-.157-.344 0-.146.146-.219.438-.219.271 0 .656.063 1.156.188.479.124.781.25.906.374.146.126.219.323.219.594v9.782l9.219-.532c.479-.02.906-.104 1.281-.25a.54.54 0 0 1 .219-.031c.312 0 .698.208 1.156.625.479.396.719.719.719.969a.478.478 0 0 1-.219.406c-.146.083-.344.135-.594.156l-11.781.656.031 13.907Zm71.407-8.313c-.313 0-.615-.229-.907-.687a9.902 9.902 0 0 0-1.093-1.438l-.813-.844c-.437.5-.823.896-1.156 1.188a6.255 6.255 0 0 1-1.188.844c-.896.52-1.646.781-2.25.781-.146 0-.219-.052-.219-.156 0-.063.198-.198.594-.406a6.591 6.591 0 0 0 1.125-.75c.896-.75 1.636-1.521 2.219-2.313-.125-.125-.75-.667-1.875-1.625a10.415 10.415 0 0 1-.656-.531 7.711 7.711 0 0 1-.375-.281c-.188-.146-.282-.25-.282-.313 0-.104.053-.156.157-.156.312 0 .812.219 1.5.656.687.417 1.406.917 2.156 1.5.292-.354.521-.688.687-1 .167-.313.355-.698.563-1.156.104-.23.167-.427.187-.594.021-.188.032-.302.032-.344 0-.229.062-.344.187-.344.146 0 .344.115.594.344.437.417.656.698.656.844 0 .083-.052.177-.156.281-.25.25-.479.584-.687 1-.126.25-.355.604-.688 1.063a2.76 2.76 0 0 0-.25.344 3.078 3.078 0 0 1-.188.28c.48.355 1.188.96 2.126 1.813.229.209.374.406.437.594.083.167.125.396.125.688a.891.891 0 0 1-.156.53.504.504 0 0 1-.406.188Zm6.5-11.437c.062 0 .124.031.187.094a.302.302 0 0 1 .125.187v.063c0 .145-.115.427-.344.843l-2.25 3.906c-.166.355-.385.532-.656.532s-.5-.167-.688-.5c-.187-.271-.416-.677-.687-1.219a3.86 3.86 0 0 1-.313-.563 10.249 10.249 0 0 0-.187-.406c-.229-.396-.344-.677-.344-.844a.21.21 0 0 1 .094-.187c.063-.063.125-.094.187-.094.23 0 .438.125.626.375.145.146.26.302.343.469l.344.469.625.719.281-.438c.292-.5.979-1.49 2.063-2.969.229-.291.427-.437.594-.437Zm-42.25 18.625h-.563c-.417 0-.74-.031-.969-.094a1.39 1.39 0 0 1-.594-.25 7.097 7.097 0 0 1-.656-.688c-.229-.27-.344-.52-.344-.75 0-.145.073-.218.219-.218.084 0 .146.01.188.031.416.104.864.156 1.343.156l.719-.031 6.657-.188 1.75-9.624-3.532.156c-.541.041-.896.062-1.062.062-.438 0-.75-.094-.938-.281a3.42 3.42 0 0 1-.594-.813c-.166-.312-.25-.53-.25-.656 0-.166.073-.25.219-.25.063 0 .115.01.157.031.395.126.854.188 1.374.188l.876-.031 4.062-.188 1.281-7-6.343.375c-.23.021-.532.031-.907.031-.5 0-.823-.062-.969-.187-.27-.208-.5-.458-.687-.75-.167-.313-.25-.583-.25-.813 0-.145.073-.218.219-.218l.187.031c.375.104.834.156 1.375.156h.406l15.969-.968c.396-.021.865-.126 1.407-.313a.432.432 0 0 1 .187-.031c.25 0 .615.198 1.094.593.479.396.719.72.719.97s-.271.395-.813.437l-9.375.562-1.312 7 7.718-.375h.188c.271 0 .604.084 1 .25.396.167.594.48.594.938 0 .166-.032.333-.094.5-.063.146-.104.24-.125.281l-1 9.563 3-.094c.354-.021.875-.104 1.562-.25.125-.042.229-.063.313-.063.229 0 .489.104.781.313.313.208.583.448.813.719.229.27.343.479.343.624 0 .271-.219.428-.656.47h-.094l-24.593.687Zm16.5-2.344.906-9.781-7.5.344-1.844 9.687 8.438-.25Zm61.5-4.563c-.126 0-.303-.093-.532-.28a2.02 2.02 0 0 1-.312-.25c-.084-.084-.125-.157-.125-.22l.031-.5c.021-.187.031-.604.031-1.25-.021-.458-.031-1.416-.031-2.874 0-.584-.052-1.115-.156-1.594l-.125-.75V70c0-.188.125-.24.375-.156.104.02.344.062.718.125.396-.063 1.719-.219 3.969-.469a9.167 9.167 0 0 0 1.157-.219h.124c.23 0 .438.115.626.344.333.396.468.677.406.844-.084.208-.167.562-.25 1.062-.042.292-.094.792-.156 1.5V76.75c0 .188-.094.438-.282.75a.484.484 0 0 1-.25.25.654.654 0 0 1-.344.094c-.124 0-.218-.031-.281-.094l-.125-.125a.346.346 0 0 0-.125-.125c-.021-.02-.062-.031-.125-.031-1.291 0-2.458.083-3.5.25-.083.02-.166.031-.25.031a.588.588 0 0 0-.187.031l-.219.031h-.062Zm.593-1.156c.521-.02 1.229-.083 2.125-.187.417-.042.656-.063.719-.063h.25c.333 0 .583.063.75.188.146-1.042.219-2.948.219-5.719-.042-.313-.167-.469-.375-.469-.396 0-1.198.073-2.407.219-.124 0-.25.01-.374.031l-.376.063a5.03 5.03 0 0 1-.781.094c-.146 0-.198.072-.156.218l-.031 1.063a2.866 2.866 0 0 0-.032.406c.021.125.032.24.032.344.021.166.031.437.031.812 0 1.625.01 2.521.031 2.688 0 .146.042.24.125.281a.353.353 0 0 0 .25.031Zm2.313-1.75c-.229 0-.406-.114-.532-.344a17.96 17.96 0 0 0-1.218-1.812l-.219-.344c-.083-.125-.125-.219-.125-.281.021-.083.073-.115.156-.094a4.388 4.388 0 0 1 1.5.813c.709.541 1.063.958 1.063 1.25a.878.878 0 0 1-.125.437c-.146.25-.313.375-.5.375Zm5.218-8.375c.105 0 .261.073.469.219-.021.042.021.125.125.25l.219.219c.104.104.208.229.313.375.124.146.26.302.406.469.375.395 1.239 1.427 2.594 3.093.229.334.343.531.343.594 0 .208-.125.313-.375.313-.146 0-.302-.105-.468-.313-.396-.417-1.105-1.073-2.126-1.969-.791-.729-1.51-1.291-2.156-1.687-.312-.146-.468-.313-.468-.5 0-.146.156-.354.468-.625.292-.292.511-.438.656-.438Zm-32.874 19.094v.156c0 .521-.167.781-.5.781-.167 0-.396-.062-.688-.187a2.47 2.47 0 0 1-.781-.531c-.209-.209-.313-.438-.313-.688l.032-.219c.062-.437.093-.916.093-1.437v-.625l-.5-18.469a6.954 6.954 0 0 0-.156-1.062c-.083-.396-.198-.719-.344-.969-.146-.292-.219-.5-.219-.625 0-.167.115-.25.344-.25.417 0 1.188.26 2.313.781l13.781-.718h.219c.312 0 .646.124 1 .374.354.23.531.5.531.813 0 .104-.021.219-.062.344-.042.125-.073.229-.094.312L318.469 82c.583.73.875 1.23.875 1.5 0 .146-.073.24-.219.281-.146.042-.406.073-.781.094l-13.688.469.032 1.281Zm-.407-13.531 12.594-.625.313-8-13.126.687.219 7.938Zm.313 10.375 11.875-.375.343-8.719-12.468.563.25 8.53Z"/></svg>