<svg width="350" height="88" viewBox="0 0 350 88" fill="none" xmlns="http://www.w3.org/2000/svg">
<path d="M132.426 16.5664C131.652 16.2852 131.289 15.9805 131.336 15.6523C131.477 14.668 131.547 13.543 131.547 12.2773C131.547 11.7148 131.535 11.3047 131.512 11.0469C131.488 10.7422 131.465 10.4844 131.441 10.2734C131.418 10.0391 131.418 9.91016 131.441 9.88672C131.535 9.79297 131.652 9.74609 131.793 9.74609C132.004 9.74609 132.262 9.83984 132.566 10.0273C132.895 10.2148 133.059 10.4023 133.059 10.5898C133.059 10.707 133.047 10.8242 133.023 10.9414C133 11.0352 132.988 11.1406 132.988 11.2578L132.777 14.7383C132.777 14.9258 132.848 15.043 132.988 15.0898H133.164C133.352 15.0898 133.48 15.0781 133.551 15.0547L138.086 14.4219V13.5078C138.086 12.3594 138.062 11.4688 138.016 10.8359C137.992 10.2969 137.934 9.86328 137.84 9.53516C137.77 9.16016 137.863 8.97266 138.121 8.97266C138.309 8.97266 138.555 9.04297 138.859 9.18359C139.234 9.37109 139.457 9.53516 139.527 9.67578C139.598 9.79297 139.621 9.98047 139.598 10.2383C139.551 10.6602 139.527 11.293 139.527 12.1367L139.562 14.8086C139.562 15.3711 139.457 15.8164 139.246 16.1445C139.129 16.2852 139.012 16.3555 138.895 16.3555C138.777 16.3555 138.613 16.25 138.402 16.0391C138.355 15.9922 138.297 15.9219 138.227 15.8281C138.156 15.7344 138.086 15.6758 138.016 15.6523C137.945 15.6289 137.852 15.6172 137.734 15.6172C137.195 15.6641 135.895 15.8398 133.832 16.1445C133.48 16.1914 133.199 16.2852 132.988 16.4258C132.754 16.543 132.602 16.6016 132.531 16.6016L132.426 16.5664ZM136.891 24.125C136.656 24.4297 136.41 24.582 136.152 24.582C136.082 24.582 136.047 24.5234 136.047 24.4062C136.047 24.2422 136.094 24.0547 136.188 23.8438C136.188 23.8438 136.422 23.375 136.891 22.4375C136.914 22.3438 136.949 22.25 136.996 22.1562C137.043 22.0625 137.078 21.9805 137.102 21.9102V21.875C137.102 21.8281 137.066 21.7812 136.996 21.7344C136.926 21.6875 136.844 21.6758 136.75 21.6992C136.375 21.7227 135.812 21.7812 135.062 21.875C134.336 21.9688 133.797 22.0625 133.445 22.1562C133.305 22.2031 133.129 22.2617 132.918 22.332C132.73 22.4023 132.578 22.4375 132.461 22.4375C132.039 22.4375 131.688 22.3086 131.406 22.0508C131.172 21.8867 130.996 21.7227 130.879 21.5586L130.809 21.3828C130.809 21.2656 131.008 21.2305 131.406 21.2773C131.945 21.3242 133.059 21.2539 134.746 21.0664L135.449 20.9609C135.637 20.9375 135.93 20.9023 136.328 20.8555C136.75 20.7852 137.078 20.7148 137.312 20.6445C137.383 20.6211 137.453 20.5977 137.523 20.5742C137.617 20.5273 137.699 20.5039 137.77 20.5039C137.887 20.5039 138.027 20.5625 138.191 20.6797C138.379 20.7969 138.531 20.9023 138.648 20.9961C138.812 21.1133 138.918 21.2188 138.965 21.3125C139.035 21.3828 139.059 21.4766 139.035 21.5938C139.035 21.7109 138.977 21.8164 138.859 21.9102C138.742 22.0039 138.66 22.0742 138.613 22.1211C138.566 22.1914 138.402 22.3672 138.121 22.6484C138.004 22.8359 137.793 23.0938 137.488 23.4219C137.207 23.75 137.008 23.9844 136.891 24.125ZM135.133 31.0508C135.133 30.9805 135.25 30.8047 135.484 30.5234C135.742 30.2188 135.941 29.9844 136.082 29.8203C136.434 29.3516 136.855 28.6719 137.348 27.7812C137.863 26.8906 138.156 26.3047 138.227 26.0234C138.273 25.8828 138.203 25.8125 138.016 25.8125C137.641 25.8125 136.609 25.918 134.922 26.1289C133.82 26.2695 133 26.4102 132.461 26.5508C132.344 26.6211 132.227 26.6562 132.109 26.6562C131.922 26.6562 131.723 26.5273 131.512 26.2695C131.418 26.1055 131.371 25.9531 131.371 25.8125C131.371 25.7188 131.43 25.625 131.547 25.5312L131.652 25.3906C131.723 25.25 131.805 25.0625 131.898 24.8281C131.992 24.5938 132.074 24.3711 132.145 24.1602C132.262 23.7852 132.344 23.375 132.391 22.9297C132.414 22.6719 132.555 22.6016 132.812 22.7188C133.141 22.8828 133.387 23.0469 133.551 23.2109C133.738 23.3516 133.797 23.457 133.727 23.5273C133.492 23.8086 133.305 24.125 133.164 24.4766C133.047 24.8516 132.977 25.0977 132.953 25.2148C132.953 25.3086 133.012 25.3555 133.129 25.3555C133.48 25.3555 134.008 25.2969 134.711 25.1797C135.109 25.1328 135.602 25.0742 136.188 25.0039C136.773 24.9336 137.242 24.8633 137.594 24.793L138.473 24.6172C138.543 24.5938 138.637 24.582 138.754 24.582C138.871 24.582 138.988 24.6289 139.105 24.7227C139.223 24.793 139.352 24.8867 139.492 25.0039C139.727 25.2148 139.879 25.3906 139.949 25.5312C140.02 25.6484 140.055 25.7891 140.055 25.9531C140.055 26.0469 139.984 26.1641 139.844 26.3047C139.727 26.4453 139.586 26.668 139.422 26.9727C138.742 28.3555 137.863 29.5156 136.785 30.4531C136.48 30.6875 136.141 30.8867 135.766 31.0508C135.602 31.0977 135.449 31.1328 135.309 31.1562C135.191 31.1562 135.133 31.1211 135.133 31.0508ZM146.383 14.8086C146.664 14.8086 146.805 14.9375 146.805 15.1953C146.805 15.3359 146.676 15.5352 146.418 15.793C145.715 16.6602 144.32 18.3125 142.234 20.75C142.07 20.9609 141.918 21.0664 141.777 21.0664C141.66 21.0664 141.402 20.8906 141.004 20.5391C140.676 20.2578 140.512 20.0234 140.512 19.8359C140.512 19.625 140.688 19.4258 141.039 19.2383C141.578 18.9336 142.387 18.3242 143.465 17.4102C144.543 16.4492 145.34 15.6875 145.855 15.125C146.066 14.9141 146.242 14.8086 146.383 14.8086ZM104.512 9.88672C104.254 9.91016 103.926 9.92188 103.527 9.92188H103.176C102.848 9.875 102.613 9.81641 102.473 9.74609C102.238 9.58203 101.992 9.3125 101.734 8.9375C101.477 8.53906 101.348 8.21094 101.348 7.95312C101.348 7.78906 101.418 7.70703 101.559 7.70703C101.652 7.70703 101.734 7.71875 101.805 7.74219C102.227 7.85938 102.742 7.91797 103.352 7.91797H103.809L117.52 7.03906C118.059 6.99219 118.586 6.88672 119.102 6.72266C119.148 6.69922 119.23 6.6875 119.348 6.6875C119.652 6.6875 120.051 6.92187 120.543 7.39062C121.059 7.85938 121.316 8.21094 121.316 8.44531C121.316 8.72656 121.023 8.89062 120.438 8.9375L104.512 9.88672ZM94.9492 34.6719C94.9492 34.4609 95.2188 34.2031 95.7578 33.8984C97.8203 32.7031 99.543 31.4023 100.926 29.9961C102.332 28.5898 103.492 26.9141 104.406 24.9688C105.32 23 106.059 20.6211 106.621 17.832L100.469 18.1484C100.141 18.1719 99.7422 18.1836 99.2734 18.1836C98.9688 18.1836 98.7227 18.1602 98.5352 18.1133C98.3477 18.0664 98.1719 17.9609 98.0078 17.7969C97.7031 17.4922 97.4688 17.1641 97.3047 16.8125C97.1406 16.4609 97.0586 16.2266 97.0586 16.1094C97.0586 15.9688 97.1641 15.8984 97.375 15.8984H97.5859C98.0312 16.0391 98.5703 16.1094 99.2031 16.1094H99.5547L121.738 14.9844C122.324 14.9375 122.863 14.832 123.355 14.668C123.496 14.6211 123.59 14.5977 123.637 14.5977C123.918 14.5977 124.328 14.832 124.867 15.3008C125.406 15.7695 125.676 16.1562 125.676 16.4609C125.676 16.7188 125.395 16.8711 124.832 16.918L115.199 17.4102L114.988 29.5391V29.6445C114.988 30.2305 115.129 30.6641 115.41 30.9453C115.691 31.2031 116.09 31.3672 116.605 31.4375C117.145 31.5078 117.918 31.543 118.926 31.543C120.332 31.543 121.574 31.4258 122.652 31.1914C123.051 31.1211 123.379 30.8984 123.637 30.5234C123.895 30.1484 124.141 29.4922 124.375 28.5547C124.609 27.6172 124.855 26.2344 125.113 24.4062C125.184 23.9375 125.277 23.5742 125.395 23.3164C125.535 23.0352 125.676 22.8945 125.816 22.8945C126.074 22.8945 126.227 23.1758 126.273 23.7383C126.344 24.3008 126.379 25.0625 126.379 26.0234C126.379 27.5 126.309 29.0117 126.168 30.5586C126.098 31.332 125.887 31.9414 125.535 32.3867C125.207 32.8555 124.539 33.2188 123.531 33.4766C122.547 33.7578 121.082 33.8984 119.137 33.8984C117.777 33.8984 116.664 33.8281 115.797 33.6875C114.93 33.5703 114.191 33.2305 113.582 32.668C112.973 32.1289 112.668 31.2617 112.668 30.0664V29.9609L112.879 17.5156L109.152 17.7266C108.215 22.5078 106.715 26.2344 104.652 28.9062C102.613 31.5547 99.7422 33.4883 96.0391 34.707C95.7578 34.8008 95.5 34.8477 95.2656 34.8477C95.0547 34.8477 94.9492 34.7891 94.9492 34.6719ZM189.414 13.9297C189.273 13.9297 189.086 13.7773 188.852 13.4727C188.617 13.1445 188.512 12.8633 188.535 12.6289C188.582 12.4414 188.617 11.9141 188.641 11.0469C188.664 10.4609 188.676 9.42969 188.676 7.95312C188.676 6.92187 188.664 6.23047 188.641 5.87891L187.48 5.98438C186.66 6.10156 185.957 6.16016 185.371 6.16016C185.207 6.16016 184.973 6.03125 184.668 5.77344C184.363 5.51562 184.211 5.32813 184.211 5.21094C184.211 5.02344 184.41 4.95312 184.809 5C185.066 5.02344 185.828 5.01172 187.094 4.96484C188.828 4.84766 190.082 4.77734 190.855 4.75391C191.254 4.73047 191.617 4.69531 191.945 4.64844C192.297 4.57812 192.543 4.53125 192.684 4.50781C192.895 4.48438 193.082 4.50781 193.246 4.57812C193.41 4.64844 193.562 4.74219 193.703 4.85938C193.867 4.95312 193.996 5.02344 194.09 5.07031C194.301 5.21094 194.406 5.33984 194.406 5.45703C194.406 5.55078 194.348 5.64453 194.23 5.73828C194.137 5.80859 194.031 5.84375 193.914 5.84375C193.797 5.84375 193.633 5.83203 193.422 5.80859C193.234 5.78516 193.023 5.77344 192.789 5.77344C191.922 5.77344 191.031 5.79687 190.117 5.84375C190.094 6.03125 190.082 6.5 190.082 7.25C190.035 8.51562 190.012 9.75781 190.012 10.9766V12.3477V12.6641C190.012 13.0625 189.977 13.3203 189.906 13.4375C189.695 13.7656 189.531 13.9297 189.414 13.9297ZM185.652 20.1523C185.395 20.1523 185.078 19.9531 184.703 19.5547C184.422 19.2734 184.281 19.0625 184.281 18.9219C184.281 18.8516 184.328 18.8164 184.422 18.8164C184.516 18.793 184.633 18.7812 184.773 18.7812L185.547 18.7461C185.992 18.7461 186.285 18.7344 186.426 18.7109C186.871 18.7109 187.246 18.6992 187.551 18.6758C189.566 18.4883 190.926 18.3359 191.629 18.2188C191.98 18.1719 192.297 18.125 192.578 18.0781C192.859 18.0078 193.082 17.9727 193.246 17.9727C193.574 17.9727 193.902 18.1367 194.23 18.4648C194.488 18.7227 194.617 18.9336 194.617 19.0977C194.617 19.2383 194.535 19.332 194.371 19.3789C194.254 19.4023 193.562 19.4492 192.297 19.5195C191.594 19.543 190.727 19.6016 189.695 19.6953C188.664 19.7891 187.762 19.8828 186.988 19.9766C186.848 20 186.648 20.0352 186.391 20.082C186.133 20.1289 185.887 20.1523 185.652 20.1523ZM193.211 32.2812C193.258 32.375 193.34 32.5156 193.457 32.7031C193.574 32.8906 193.633 33.1133 193.633 33.3711C193.633 33.6055 193.539 33.793 193.352 33.9336C193.164 34.0977 192.953 34.1797 192.719 34.1797C192.508 34.1797 192.332 33.9688 192.191 33.5469C192.121 33.3828 192.062 33.2422 192.016 33.125C191.992 33.0312 191.969 32.9492 191.945 32.8789C191.641 32.9727 191.242 33.0547 190.75 33.125C190.258 33.1953 189.906 33.2539 189.695 33.3008C188.57 33.5117 187.797 33.6641 187.375 33.7578C187.211 33.8047 187.035 33.8516 186.848 33.8984C186.66 33.9688 186.555 34.0156 186.531 34.0391C186.391 34.0859 186.285 34.1094 186.215 34.1094C186.027 34.1094 185.852 34.0273 185.688 33.8633C185.406 33.6523 185.195 33.3711 185.055 33.0195C185.031 32.9961 185.02 32.9609 185.02 32.9141C185.02 32.8672 185.078 32.8086 185.195 32.7383C185.336 32.668 185.441 32.6211 185.512 32.5977C185.816 32.4336 186.355 31.9414 187.129 31.1211L188.078 30.207L186.004 29.082C185.77 29.0117 185.617 28.9297 185.547 28.8359C185.477 28.7422 185.441 28.6016 185.441 28.4141C185.441 28.2734 185.465 28.1797 185.512 28.1328C185.582 28.0625 185.723 27.957 185.934 27.8164C186.145 27.6758 186.355 27.4883 186.566 27.2539C186.684 27.1133 186.836 26.9609 187.023 26.7969C187.211 26.6328 187.387 26.457 187.551 26.2695C188.254 25.4492 188.699 24.8047 188.887 24.3359C189.004 24.1016 189.098 23.9844 189.168 23.9844C189.215 23.9844 189.309 24.0312 189.449 24.125C189.895 24.4531 190.164 24.7578 190.258 25.0391V25.1445C190.258 25.2617 190.199 25.3555 190.082 25.4258C189.965 25.4961 189.883 25.5547 189.836 25.6016C189.766 25.6484 189.414 25.9883 188.781 26.6211L188.148 27.2539C188.031 27.3711 187.832 27.5703 187.551 27.8516C187.27 28.1094 187.129 28.2617 187.129 28.3086C187.129 28.3789 187.164 28.4375 187.234 28.4844C187.328 28.5312 187.398 28.5781 187.445 28.625L188.922 29.3281C189.836 28.4141 190.363 27.875 190.504 27.7109C191.113 27.0078 191.453 26.5625 191.523 26.375C191.547 26.3516 191.582 26.293 191.629 26.1992C191.676 26.1055 191.723 26.0586 191.77 26.0586C191.84 26.0586 191.91 26.0938 191.98 26.1641C192.355 26.5156 192.625 26.8438 192.789 27.1484C192.836 27.2422 192.859 27.3008 192.859 27.3242C192.859 27.3711 192.801 27.4414 192.684 27.5352C192.59 27.6055 192.496 27.6758 192.402 27.7461C191.582 28.4258 190.621 29.3164 189.52 30.418L187.375 32.4219C187.328 32.4688 187.305 32.5156 187.305 32.5625C187.305 32.6094 187.328 32.6445 187.375 32.668C187.422 32.6914 187.492 32.6914 187.586 32.668L191.699 31.9648C191.582 31.4961 191.441 31.0273 191.277 30.5586V30.4883C191.277 30.418 191.312 30.3828 191.383 30.3828C191.477 30.3828 191.617 30.4531 191.805 30.5938C192.18 30.9219 192.648 31.4844 193.211 32.2812ZM159.391 19.6602L159.355 21.7344C159.496 21.7109 159.684 21.7109 159.918 21.7344C160.035 21.7109 160.141 21.7109 160.234 21.7344C160.328 21.7344 160.434 21.7344 160.551 21.7344C162.965 21.9453 165.883 22.2969 169.305 22.7891C169.68 22.8359 169.961 22.9531 170.148 23.1406C170.336 23.3281 170.43 23.5156 170.43 23.7031C170.359 24.4766 169.961 24.8281 169.234 24.7578C169 24.7109 168.555 24.6758 167.898 24.6523C167.852 24.6523 167.348 24.5703 166.387 24.4062C163.48 23.9375 161.418 23.6562 160.199 23.5625C159.754 23.5156 159.449 23.457 159.285 23.3867C159.215 24.8398 159.074 26.1172 158.863 27.2188H158.969C160.516 27.2188 162.391 27.1367 164.594 26.9727L165.719 26.8672C168.859 26.6328 171.203 26.4219 172.75 26.2344L172.68 19.0625L159.391 19.6602ZM151.621 13.7188C151.621 13.6016 151.656 13.4727 151.727 13.332C152.758 11.3633 153.543 9.20703 154.082 6.86328C154.129 6.60547 154.199 6.41797 154.293 6.30078C154.387 6.18359 154.527 6.125 154.715 6.125C154.996 6.125 155.312 6.21875 155.664 6.40625C156.016 6.57031 156.191 6.76953 156.191 7.00391C156.191 7.05078 156.168 7.19141 156.121 7.42578L155.945 8.19922L165.578 7.67188C165.133 7.10938 164.582 6.53516 163.926 5.94922C163.293 5.36328 162.93 5.02344 162.836 4.92969C162.719 4.83594 162.625 4.74219 162.555 4.64844C162.484 4.53125 162.473 4.41406 162.52 4.29688C162.566 4.0625 162.73 3.82812 163.012 3.59375C163.316 3.35938 163.551 3.26562 163.715 3.3125C163.879 3.33594 164.254 3.58203 164.84 4.05078C165.426 4.51953 166.211 5.24609 167.195 6.23047C167.547 6.51172 167.688 6.80469 167.617 7.10938C167.594 7.20312 167.5 7.36719 167.336 7.60156L178.199 7.00391L178.551 6.96875C178.879 6.96875 179.16 7.05078 179.395 7.21484C179.652 7.37891 179.852 7.56641 179.992 7.77734C180.133 7.98828 180.203 8.14063 180.203 8.23438C180.203 8.42188 180.098 8.60937 179.887 8.79688C179.699 8.96094 179.57 9.10156 179.5 9.21875C178.375 10.6953 177.461 11.7852 176.758 12.4883C176.055 13.1914 175.562 13.543 175.281 13.543C175.117 13.543 175.035 13.4492 175.035 13.2617C175.035 13.0039 175.164 12.6641 175.422 12.2422C176.125 11.0703 176.688 9.98047 177.109 8.97266L155.418 10.0273C154.949 11.5273 154.41 12.9453 153.801 14.2812C153.66 14.6562 153.438 14.8438 153.133 14.8438C152.711 14.75 152.348 14.6094 152.043 14.4219C151.762 14.2109 151.621 13.9766 151.621 13.7188ZM153.273 35.1992C153.273 34.9414 153.379 34.6484 153.59 34.3203C154.504 33.0547 155.219 31.8477 155.734 30.6992C156.25 29.5508 156.637 28.2148 156.895 26.6914C157.152 25.1445 157.281 23.2461 157.281 20.9961C157.281 20.0352 157.258 19.3555 157.211 18.957C157.188 18.5586 157.117 18.2305 157 17.9727C156.859 17.7852 156.789 17.6094 156.789 17.4453C156.789 17.3984 156.812 17.3516 156.859 17.3047C156.906 17.2578 156.977 17.2344 157.07 17.2344C157.656 17.2344 158.359 17.4219 159.18 17.7969L164.488 17.5508L164.559 12.4531C164.559 12.0078 164.395 11.5156 164.066 10.9766C163.973 10.8125 163.926 10.6836 163.926 10.5898C163.926 10.4023 164.055 10.3086 164.312 10.3086C164.57 10.3086 165.004 10.4023 165.613 10.5898C166.105 10.7305 166.422 10.8711 166.562 11.0117C166.703 11.1523 166.773 11.3516 166.773 11.6094L166.562 17.4453L173.066 17.1289L173.523 17.0938C173.922 17.0938 174.262 17.2578 174.543 17.5859C174.824 17.8906 174.965 18.1367 174.965 18.3242C174.965 18.418 174.941 18.5352 174.895 18.6758C174.848 18.793 174.824 18.8984 174.824 18.9922L174.93 32.8438L174.965 33.7578C174.965 34.2266 174.789 34.625 174.438 34.9531C174.133 35.2344 173.852 35.375 173.594 35.375C173.312 35.375 172.656 35.082 171.625 34.4961C170.617 33.9336 169.668 33.3242 168.777 32.668C167.887 32.0117 167.441 31.5664 167.441 31.332C167.441 31.1914 167.547 31.1211 167.758 31.1211C168.016 31.1211 168.344 31.2031 168.742 31.3672C170.148 31.9297 171.496 32.3516 172.785 32.6328L172.75 27.3594C171.344 27.8516 169.211 28.3438 166.352 28.8359C163.492 29.3281 161.559 29.5742 160.551 29.5742C159.59 29.5742 158.945 29.1523 158.617 28.3086C158.289 29.5977 157.797 30.7812 157.141 31.8594C156.484 32.9375 155.816 33.793 155.137 34.4258C154.48 35.0586 153.941 35.3984 153.52 35.4453C153.355 35.4453 153.273 35.3633 153.273 35.1992ZM157 12.5938C157 12.3828 157.105 12.1484 157.316 11.8906C157.527 11.6328 157.738 11.5039 157.949 11.5039C158.137 11.5039 158.629 11.8086 159.426 12.418C160.223 13.0039 160.961 13.625 161.641 14.2812C162.344 14.9375 162.695 15.3711 162.695 15.582C162.695 15.793 162.555 16.0391 162.273 16.3203C161.992 16.625 161.734 16.7773 161.5 16.7773C161.266 16.7773 161.008 16.625 160.727 16.3203C159.578 15.1016 158.406 14 157.211 13.0156C157.07 12.875 157 12.7344 157 12.5938ZM167.758 16.7422C167.758 16.5547 167.91 16.3086 168.215 16.0039C169.129 15.0898 169.914 14.1523 170.57 13.1914C171.25 12.2305 171.613 11.5156 171.66 11.0469C171.684 11 171.695 10.918 171.695 10.8008C171.695 10.4961 171.789 10.3438 171.977 10.3438C172.281 10.3438 172.68 10.5781 173.172 11.0469C173.688 11.4922 173.945 11.8672 173.945 12.1719C173.945 12.4766 173.324 13.1562 172.082 14.2109C170.863 15.2422 169.773 16.0391 168.812 16.6016L168.637 16.707C168.402 16.8477 168.18 16.918 167.969 16.918C167.828 16.918 167.758 16.8594 167.758 16.7422ZM246.121 14.3867C245.957 14.3867 245.781 14.2812 245.594 14.0703C245.453 13.9063 245.359 13.7773 245.312 13.6836C245.266 13.5664 245.266 13.4141 245.312 13.2266L245.348 12.3828C245.371 12.2188 245.383 11.8203 245.383 11.1875V10.0273L244.328 10.5195L243.098 11.0469C242.793 11.1641 242.477 11.3047 242.148 11.4688C241.867 11.6094 241.621 11.6797 241.41 11.6797C241.246 11.6563 241.059 11.5977 240.848 11.5039C240.637 11.4102 240.473 11.3281 240.355 11.2578C240.098 11.0938 239.98 10.918 240.004 10.7305L240.109 10.3789C240.109 10.1914 240.121 10.0273 240.145 9.88672L240.18 7.84766V5.94922C240.18 5.57422 240.156 5.25781 240.109 5C240.062 4.71875 240.027 4.51953 240.004 4.40234C240.004 4.28516 240.039 4.20313 240.109 4.15625C240.133 4.13281 240.191 4.12109 240.285 4.12109C240.449 4.12109 240.766 4.22656 241.234 4.4375C241.633 4.625 241.797 4.85938 241.727 5.14062C241.68 5.30469 241.633 5.55078 241.586 5.87891L241.48 9.92188C241.48 10.0391 241.492 10.1328 241.516 10.2031C241.562 10.25 241.609 10.2734 241.656 10.2734C241.938 10.2734 242.277 10.1914 242.676 10.0273C243.426 9.79297 244.07 9.55859 244.609 9.32422L245.383 9.00781V6.6875C245.383 5.75 245.324 4.84766 245.207 3.98047C245.184 3.91016 245.172 3.82812 245.172 3.73438C245.172 3.5 245.266 3.38281 245.453 3.38281C245.477 3.38281 245.605 3.42969 245.84 3.52344C246.191 3.71094 246.449 3.875 246.613 4.01562C246.777 4.15625 246.871 4.23828 246.895 4.26172C246.988 4.33203 247.035 4.40234 247.035 4.47266C247.035 4.51953 247.012 4.57812 246.965 4.64844C246.941 4.71875 246.918 4.77734 246.895 4.82422L246.789 5.87891L246.754 9.11328L246.789 12.2422C246.789 12.7813 246.754 13.25 246.684 13.6484C246.566 14.1406 246.379 14.3867 246.121 14.3867ZM239.652 20.1523C239.395 20.1523 239.078 19.9531 238.703 19.5547C238.422 19.2734 238.281 19.0625 238.281 18.9219C238.281 18.8516 238.328 18.8164 238.422 18.8164C238.516 18.793 238.633 18.7812 238.773 18.7812L239.547 18.7461C239.992 18.7461 240.285 18.7344 240.426 18.7109C240.871 18.7109 241.246 18.6992 241.551 18.6758C243.566 18.4883 244.926 18.3359 245.629 18.2188C245.98 18.1719 246.297 18.125 246.578 18.0781C246.859 18.0078 247.082 17.9727 247.246 17.9727C247.574 17.9727 247.902 18.1367 248.23 18.4648C248.488 18.7227 248.617 18.9336 248.617 19.0977C248.617 19.2383 248.535 19.332 248.371 19.3789C248.254 19.4023 247.562 19.4492 246.297 19.5195C245.594 19.543 244.727 19.6016 243.695 19.6953C242.664 19.7891 241.762 19.8828 240.988 19.9766C240.848 20 240.648 20.0352 240.391 20.082C240.133 20.1289 239.887 20.1523 239.652 20.1523ZM244.363 34.6719C243.637 34.6719 243.074 34.6484 242.676 34.6016C242.301 34.5547 241.984 34.4141 241.727 34.1797C241.281 33.8516 240.977 33.1367 240.812 32.0352L240.707 30.9102C240.707 30.6289 240.684 30.2773 240.637 29.8555C240.262 29.9023 239.992 29.9492 239.828 29.9961C239.781 30.0195 239.699 30.0547 239.582 30.1016C239.488 30.125 239.418 30.1367 239.371 30.1367C239.207 30.1367 239.055 30.0898 238.914 29.9961C238.773 29.9023 238.598 29.7266 238.387 29.4688C238.223 29.2578 238.141 29.1172 238.141 29.0469C238.141 28.9766 238.223 28.9297 238.387 28.9062C238.551 28.8828 238.773 28.8711 239.055 28.8711C239.453 28.8711 239.969 28.8242 240.602 28.7305L240.566 28.2383C240.566 27.3008 240.508 26.5039 240.391 25.8477L240.355 25.6016C240.355 25.2734 240.484 25.1445 240.742 25.2148C241.023 25.3086 241.281 25.4258 241.516 25.5664C241.703 25.6602 241.832 25.7539 241.902 25.8477C241.973 25.918 241.996 26.0234 241.973 26.1641L241.867 27.6758V28.5898L244.961 28.2734C244.961 28.1094 244.973 27.7227 244.996 27.1133C245.02 26.4805 245.02 26.0703 244.996 25.8828C244.996 25.6953 244.973 25.5195 244.926 25.3555C244.902 25.168 244.879 25.0156 244.855 24.8984C244.855 24.7109 244.949 24.6172 245.137 24.6172C245.324 24.6172 245.559 24.7227 245.84 24.9336C246.168 25.1445 246.379 25.332 246.473 25.4961C246.59 25.6602 246.613 25.8594 246.543 26.0938C246.426 26.4688 246.344 26.8906 246.297 27.3594C246.25 27.8281 246.227 28.1094 246.227 28.2031C246.508 28.1797 246.766 28.1445 247 28.0977C247.234 28.0508 247.387 28.0273 247.457 28.0273C247.645 27.9805 247.867 27.957 248.125 27.957C248.266 27.9805 248.465 28.1211 248.723 28.3789C248.934 28.6602 249.039 28.8828 249.039 29.0469C249.039 29.2812 248.816 29.375 248.371 29.3281C247.973 29.2578 247.574 29.2227 247.176 29.2227C246.777 29.2227 246.438 29.2344 246.156 29.2578C246.086 30.1016 245.945 30.9336 245.734 31.7539C245.688 31.9414 245.605 32.0938 245.488 32.2109C245.371 32.3516 245.266 32.4219 245.172 32.4219C245.008 32.4219 244.902 32.3516 244.855 32.2109C244.832 32.0938 244.82 31.8945 244.82 31.6133C244.867 31.0039 244.891 30.2422 244.891 29.3281C244.258 29.375 243.766 29.4219 243.414 29.4688C242.875 29.5859 242.371 29.6562 241.902 29.6797C241.879 30.6406 241.926 31.4961 242.043 32.2461C242.113 32.7383 242.254 33.0781 242.465 33.2656C242.605 33.3828 242.77 33.4531 242.957 33.4766C243.168 33.5 243.379 33.5117 243.59 33.5117C243.801 33.5117 243.941 33.5117 244.012 33.5117C244.738 33.5117 245.418 33.4766 246.051 33.4062C246.238 33.3828 246.402 33.3359 246.543 33.2656C246.707 33.1953 246.824 33.1602 246.895 33.1602C247.105 33.1602 247.316 33.2305 247.527 33.3711C247.738 33.5117 247.844 33.6758 247.844 33.8633C247.844 34.0508 247.738 34.1914 247.527 34.2852C247.34 34.3789 247.035 34.4609 246.613 34.5312C245.863 34.625 245.113 34.6719 244.363 34.6719ZM254.383 18.6758C254.664 18.6758 254.805 18.8047 254.805 19.0625C254.805 19.2031 254.676 19.4023 254.418 19.6602C253.715 20.5273 252.32 22.1797 250.234 24.6172C250.07 24.8281 249.918 24.9336 249.777 24.9336C249.66 24.9336 249.402 24.7578 249.004 24.4062C248.676 24.125 248.512 23.8906 248.512 23.7031C248.512 23.4922 248.688 23.293 249.039 23.1055C249.578 22.8008 250.387 22.1914 251.465 21.2773C252.543 20.3164 253.34 19.5547 253.855 18.9922C254.066 18.7812 254.242 18.6758 254.383 18.6758ZM209.699 30.1719C211.785 29.5156 213.648 28.8008 215.289 28.0273C214.938 27.5352 214.492 26.9727 213.953 26.3398C213.766 26.1055 213.672 25.918 213.672 25.7773C213.672 25.5195 213.824 25.2969 214.129 25.1094C214.434 24.8984 214.668 24.793 214.832 24.793C215.02 24.793 215.219 24.9102 215.43 25.1445C216.766 26.7148 217.902 28.0977 218.84 29.293C219.777 30.4883 220.246 31.2148 220.246 31.4727C220.246 31.6836 220.082 31.9297 219.754 32.2109C219.449 32.5156 219.156 32.668 218.875 32.668C218.641 32.668 218.406 32.4805 218.172 32.1055C217.633 31.2852 217.023 30.3945 216.344 29.4336L212.125 31.543C211.656 31.7539 210.918 32.1289 209.91 32.668C209.066 33.1133 208.551 33.3359 208.363 33.3359C208.223 33.3359 208.047 33.2422 207.836 33.0547C207.625 32.8906 207.461 32.6797 207.344 32.4219C207.25 32.1875 207.25 32 207.344 31.8594C207.484 31.6016 207.555 30.5703 207.555 28.7656V16.6016C207.555 16.0391 207.531 15.582 207.484 15.2305C207.461 14.8789 207.367 14.5039 207.203 14.1055C207.18 14.0352 207.156 13.9766 207.133 13.9297C207.109 13.8828 207.098 13.8359 207.098 13.7891C207.098 13.6719 207.18 13.6133 207.344 13.6133C207.648 13.6133 208.41 13.8711 209.629 14.3867L217.258 13.8594C217.445 13.8359 217.656 13.8242 217.891 13.8242C218.148 13.8242 218.453 13.9414 218.805 14.1758C219.156 14.3867 219.332 14.6211 219.332 14.8789C219.332 14.9727 219.273 15.1133 219.156 15.3008C219.062 15.4883 219.016 15.6289 219.016 15.7227L218.102 22.332C218.664 22.9883 218.945 23.4336 218.945 23.668C218.945 23.7852 218.875 23.8672 218.734 23.9141C218.617 23.9609 218.43 23.9844 218.172 23.9844L209.664 24.3008L209.699 30.1719ZM203.934 14.3867C203.934 14.1523 204.086 13.8711 204.391 13.543C206.102 11.6445 207.59 9.75781 208.855 7.88281C210.121 6.00781 210.754 4.75391 210.754 4.12109L210.719 3.875V3.76953C210.719 3.44141 210.848 3.27734 211.105 3.27734C211.41 3.27734 211.832 3.48828 212.371 3.91016C212.934 4.30859 213.215 4.63672 213.215 4.89453C213.215 5.01172 213.156 5.16406 213.039 5.35156C212.688 5.91406 212.301 6.47656 211.879 7.03906L216.871 6.65234C217.293 6.62891 217.738 6.53516 218.207 6.37109C218.348 6.32422 218.453 6.30078 218.523 6.30078C218.875 6.30078 219.25 6.5 219.648 6.89844C220.07 7.27344 220.281 7.56641 220.281 7.77734C220.281 8.05859 220.023 8.22266 219.508 8.26953L213.496 8.69141C213.66 8.73828 214.023 8.98438 214.586 9.42969C215.172 9.875 215.699 10.332 216.168 10.8008C216.637 11.2695 216.871 11.5977 216.871 11.7852C216.871 11.9961 216.73 12.2539 216.449 12.5586C216.168 12.8398 215.922 12.9805 215.711 12.9805C215.523 12.9805 215.301 12.8281 215.043 12.5234C214.246 11.6563 213.438 10.8945 212.617 10.2383C212.336 10.0039 212.195 9.80469 212.195 9.64062C212.195 9.52344 212.254 9.37109 212.371 9.18359C212.488 8.99609 212.641 8.84375 212.828 8.72656L210.473 8.90234C209.348 10.2852 208.105 11.5859 206.746 12.8047C205.387 14 204.52 14.5977 204.145 14.5977C204.004 14.5977 203.934 14.5273 203.934 14.3867ZM216.59 18.043L216.836 15.582L209.594 16.0742V18.3945L216.59 18.043ZM216.133 22.4023L216.414 19.6953L209.629 20.0117V22.6484L216.133 22.4023ZM218.031 12.875C218.031 12.6406 218.184 12.3594 218.488 12.0312C219.637 10.6484 220.68 9.08984 221.617 7.35547C222.578 5.59766 223.059 4.36719 223.059 3.66406V3.52344C223.059 3.17188 223.188 2.99609 223.445 2.99609C223.609 2.99609 223.855 3.08984 224.184 3.27734C224.535 3.44141 224.852 3.64063 225.133 3.875C225.414 4.10937 225.555 4.34375 225.555 4.57812C225.555 4.78906 225.391 5.16406 225.062 5.70312C224.734 6.24219 224.559 6.52344 224.535 6.54688L231.461 5.98438C231.977 5.9375 232.422 5.85547 232.797 5.73828C232.844 5.71484 232.938 5.70312 233.078 5.70312C233.406 5.70312 233.758 5.89063 234.133 6.26562C234.531 6.61719 234.73 6.91016 234.73 7.14453C234.73 7.28516 234.66 7.40234 234.52 7.49609C234.402 7.56641 234.238 7.61328 234.027 7.63672L226.891 8.12891C227.547 8.55078 228.32 9.17187 229.211 9.99219C230.102 10.7891 230.547 11.3281 230.547 11.6094C230.547 11.7734 230.418 12.0312 230.16 12.3828C229.902 12.7109 229.656 12.875 229.422 12.875C229.234 12.875 229.035 12.7578 228.824 12.5234C227.676 11.2812 226.633 10.2969 225.695 9.57031C225.461 9.38281 225.344 9.20703 225.344 9.04297C225.344 8.85547 225.52 8.57422 225.871 8.19922L223.27 8.375C222.496 9.40625 221.559 10.4492 220.457 11.5039C219.379 12.5586 218.652 13.0859 218.277 13.0859C218.113 13.0859 218.031 13.0156 218.031 12.875ZM221.336 13.6484C221.336 13.5078 221.418 13.4375 221.582 13.4375C221.934 13.4375 222.73 13.7305 223.973 14.3164L231.039 13.7188L231.32 13.6836C231.414 13.6836 231.59 13.7305 231.848 13.8242C232.129 13.8945 232.387 14.0234 232.621 14.2109C232.879 14.375 233.008 14.5977 233.008 14.8789C233.008 14.9727 232.973 15.1016 232.902 15.2656C232.832 15.4297 232.797 15.5469 232.797 15.6172C232.773 18.1953 232.609 20.9492 232.305 23.8789L232.234 24.7578C232.164 25.7422 232.07 26.5625 231.953 27.2188C231.836 27.875 231.637 28.3906 231.355 28.7656C230.91 29.375 230.43 29.6797 229.914 29.6797C229.398 29.6797 228.742 29.3633 227.945 28.7305C227.148 28.0977 226.41 27.4062 225.73 26.6562C225.074 25.9062 224.746 25.4258 224.746 25.2148C224.746 25.0508 224.84 24.9688 225.027 24.9688C225.238 24.9688 225.531 25.0859 225.906 25.3203C226.773 25.8594 227.5 26.293 228.086 26.6211C228.672 26.9492 229.094 27.1133 229.352 27.1133C229.469 27.1133 229.551 27.0312 229.598 26.8672C230.137 23.8672 230.465 20.1055 230.582 15.582L223.973 16.0742C223.973 20.0352 224.008 26.3164 224.078 34.918C224.078 35.1289 224.02 35.2812 223.902 35.375C223.809 35.4922 223.68 35.5508 223.516 35.5508C223.328 35.5508 223.105 35.4805 222.848 35.3398C222.402 35.1523 222.086 34.9766 221.898 34.8125C221.711 34.6484 221.617 34.4609 221.617 34.25L221.652 34.0039C221.793 33.2305 221.863 32.3633 221.863 31.4023L221.758 16.5664C221.758 15.957 221.734 15.4883 221.688 15.1602C221.664 14.832 221.594 14.5156 221.477 14.2109C221.383 13.9297 221.336 13.7422 221.336 13.6484Z" fill="#333333"/>
<path d="M43.5938 68.2188C43.3229 68.2188 43.125 68.125 43 67.9375C42.8125 67.6667 42.625 67.4479 42.4375 67.2812C42.2708 67.1146 41.9688 66.8854 41.5312 66.5938L41.625 66.4375C42.5833 66.7708 43.2604 66.9375 43.6562 66.9375C43.9896 66.9375 44.3542 66.75 44.75 66.375C45.1667 65.9792 45.5208 65.4167 45.8125 64.6875C45.9583 64.3542 46.0625 64.0833 46.125 63.875C46.2083 63.6458 46.2708 63.3958 46.3125 63.125V63.0625C46.3125 62.875 46.2188 62.7812 46.0312 62.7812C45.8229 62.7812 45.4479 62.8438 44.9062 62.9688C44.6146 63.0521 44.2292 63.1771 43.75 63.3438L43.5 63.2812C43.4792 63.2604 43.4271 63.2292 43.3438 63.1875C43.2812 63.125 43.2292 63.0625 43.1875 63C43.0833 62.8958 43.0312 62.8229 43.0312 62.7812L43 62.6562C43 62.5104 43.0729 62.375 43.2188 62.25C43.3854 62.125 43.4792 62.0312 43.5 61.9688C43.6667 61.7812 44 61.3229 44.5 60.5938C44.5417 60.5521 44.6146 60.4583 44.7188 60.3125C44.8229 60.1458 44.875 60 44.875 59.875C44.875 59.7292 44.2604 59.8333 43.0312 60.1875C41.7812 60.5625 41.125 60.75 41.0625 60.75C40.8542 60.75 40.6354 60.5729 40.4062 60.2188C40.2396 60.0521 40.1562 59.9167 40.1562 59.8125C40.1562 59.6667 40.3646 59.5833 40.7812 59.5625C41.2604 59.5417 42 59.4583 43 59.3125C44.0208 59.1667 44.625 59.0729 44.8125 59.0312L45.25 58.9062C45.3125 58.8854 45.3854 58.875 45.4688 58.875C45.5312 58.875 45.625 58.9167 45.75 59C45.8958 59.0833 46.0208 59.1458 46.125 59.1875C46.3958 59.3125 46.5521 59.4583 46.5938 59.625V59.7188C46.5938 59.9062 46.4896 60.1042 46.2812 60.3125C46.1979 60.3958 46.0312 60.5729 45.7812 60.8438C45.5312 61.0938 45.375 61.2604 45.3125 61.3438C45.2292 61.4271 45.1042 61.5625 44.9375 61.75C44.7708 61.9375 44.6771 62.0521 44.6562 62.0938C44.6562 62.1562 44.6771 62.1979 44.7188 62.2188C44.7604 62.2396 44.8125 62.25 44.875 62.25C45.5 62.1667 46.0104 62.0729 46.4062 61.9688L46.9062 61.8125C47.1354 61.8125 47.3021 61.8958 47.4062 62.0625C47.5938 62.2708 47.7188 62.4479 47.7812 62.5938C47.8438 62.7188 47.8438 62.8438 47.7812 62.9688C47.7604 63.0312 47.7292 63.0938 47.6875 63.1562C47.6458 63.2188 47.6042 63.2917 47.5625 63.375C47.5417 63.4167 47.5 63.5 47.4375 63.625C47.375 63.75 47.3333 63.875 47.3125 64C46.9375 65.0833 46.4896 66.0104 45.9688 66.7812C45.6771 67.1354 45.3542 67.4375 45 67.6875C44.5208 68.0417 44.0521 68.2188 43.5938 68.2188ZM47.1875 76.5938C46.875 76.5938 46.5729 76.3646 46.2812 75.9062C45.9062 75.3229 45.5417 74.8438 45.1875 74.4688L44.375 73.625C43.9375 74.125 43.5521 74.5208 43.2188 74.8125C42.9062 75.1042 42.5104 75.3854 42.0312 75.6562C41.1354 76.1771 40.3854 76.4375 39.7812 76.4375C39.6354 76.4375 39.5625 76.3854 39.5625 76.2812C39.5625 76.2188 39.7604 76.0833 40.1562 75.875C40.5521 75.6667 40.9271 75.4167 41.2812 75.125C42.1771 74.375 42.9167 73.6042 43.5 72.8125C43.375 72.6875 42.75 72.1458 41.625 71.1875C41.4792 71.0833 41.2604 70.9062 40.9688 70.6562C40.9062 70.6146 40.7812 70.5208 40.5938 70.375C40.4062 70.2292 40.3125 70.125 40.3125 70.0625C40.3125 69.9583 40.3646 69.9062 40.4688 69.9062C40.7812 69.9062 41.2812 70.125 41.9688 70.5625C42.6562 70.9792 43.375 71.4792 44.125 72.0625C44.4167 71.7083 44.6458 71.375 44.8125 71.0625C44.9792 70.75 45.1667 70.3646 45.375 69.9062C45.4792 69.6771 45.5417 69.4792 45.5625 69.3125C45.5833 69.125 45.5938 69.0104 45.5938 68.9688C45.5938 68.7396 45.6562 68.625 45.7812 68.625C45.9271 68.625 46.125 68.7396 46.375 68.9688C46.8125 69.3854 47.0312 69.6667 47.0312 69.8125C47.0312 69.8958 46.9792 69.9896 46.875 70.0938C46.625 70.3438 46.3958 70.6771 46.1875 71.0938C46.0625 71.3438 45.8333 71.6979 45.5 72.1562C45.3958 72.2812 45.3125 72.3958 45.25 72.5C45.1875 72.6042 45.125 72.6979 45.0625 72.7812C45.5417 73.1354 46.25 73.7396 47.1875 74.5938C47.4167 74.8021 47.5625 75 47.625 75.1875C47.7083 75.3542 47.75 75.5833 47.75 75.875C47.75 76.0833 47.6979 76.2604 47.5938 76.4062C47.4896 76.5312 47.3542 76.5938 47.1875 76.5938ZM40.2812 85.9375C39.9688 85.9375 39.7292 85.8542 39.5625 85.6875C39.375 85.5 39.2812 85.3333 39.2812 85.1875C39.2812 85.0417 39.3646 84.8854 39.5312 84.7188C39.5521 84.6979 39.6667 84.5312 39.875 84.2188C40.3333 83.4896 40.8542 82.5625 41.4375 81.4375C42.0417 80.2917 42.4167 79.5104 42.5625 79.0938C42.6875 78.6979 42.8021 78.3542 42.9062 78.0625C43.0312 77.7708 43.1354 77.625 43.2188 77.625C43.3646 77.625 43.4896 77.6771 43.5938 77.7812C43.6979 77.8646 43.8021 77.9896 43.9062 78.1562C44.0312 78.3021 44.125 78.4062 44.1875 78.4688C44.3333 78.6354 44.4062 78.7917 44.4062 78.9375C44.4062 79.0417 44.3646 79.1458 44.2812 79.25C44.1979 79.3542 44.1458 79.4271 44.125 79.4688L42.75 81.7812C42.3958 82.4271 41.9271 83.2292 41.3438 84.1875C41.2604 84.2917 41.2188 84.3958 41.2188 84.5C41.2188 84.5833 41.3125 84.625 41.5 84.625C41.8958 84.625 42.6354 84.5729 43.7188 84.4688C44.8021 84.3854 45.5312 84.3125 45.9062 84.25C46.4479 84.1875 46.8229 84.125 47.0312 84.0625C47.2604 84 47.5938 84.1562 48.0312 84.5312C48.5521 84.9688 48.6667 85.25 48.375 85.375C48.2083 85.4583 47.8854 85.5 47.4062 85.5H46.1562C45.8854 85.5 45.4583 85.5208 44.875 85.5625C44.5208 85.5625 44.125 85.5729 43.6875 85.5938C43.25 85.6146 42.8854 85.6354 42.5938 85.6562C42.2604 85.6771 41.6146 85.7396 40.6562 85.8438L40.2812 85.9375ZM53.5625 72.1562C53.8125 72.1562 53.9375 72.2708 53.9375 72.5C53.9375 72.625 53.8229 72.8021 53.5938 73.0312C52.9688 73.8021 51.7292 75.2708 49.875 77.4375C49.7292 77.625 49.5938 77.7188 49.4688 77.7188C49.3646 77.7188 49.1354 77.5625 48.7812 77.25C48.4896 77 48.3438 76.7917 48.3438 76.625C48.3438 76.4375 48.5 76.2604 48.8125 76.0938C49.2917 75.8229 50.0104 75.2812 50.9688 74.4688C51.9271 73.6146 52.6354 72.9375 53.0938 72.4375C53.2812 72.25 53.4375 72.1562 53.5625 72.1562ZM15.6562 70V70.0938C15.6562 70.4479 15.4792 70.625 15.125 70.625C14.8333 70.625 14.5312 70.5417 14.2188 70.375C13.9062 70.2083 13.75 69.9583 13.75 69.625L13.7812 69.3125C13.8021 69.2083 13.8125 69.0729 13.8125 68.9062C13.8125 68.7604 13.8021 68.5938 13.7812 68.4062C13.7604 68.2188 13.7396 68.0729 13.7188 67.9688L13.1562 63.5312C13.0729 62.9688 12.9375 62.5417 12.75 62.25C12.6042 62.0208 12.5312 61.8646 12.5312 61.7812C12.5312 61.6562 12.6458 61.5938 12.875 61.5938C13.25 61.5938 13.8958 61.7604 14.8125 62.0938L18.8438 61.875L18.7812 60.4688C18.7604 60.0312 18.6146 59.6354 18.3438 59.2812C18.2604 59.1979 18.2188 59.1042 18.2188 59C18.2188 58.8542 18.3542 58.7812 18.625 58.7812C18.8542 58.7812 19.1354 58.8438 19.4688 58.9688C19.8646 59.1146 20.125 59.25 20.25 59.375C20.375 59.4792 20.4479 59.625 20.4688 59.8125L20.5625 61.7812L24.5312 61.5625L24.5625 60.0938C24.5625 59.5729 24.4479 59.1354 24.2188 58.7812C24.1562 58.6562 24.125 58.5521 24.125 58.4688C24.125 58.3021 24.25 58.2188 24.5 58.2188C24.6042 58.2396 24.8021 58.2917 25.0938 58.375C25.4062 58.4375 25.6979 58.5521 25.9688 58.7188C26.2396 58.8854 26.375 59.0938 26.375 59.3438L26.2812 61.4688L31.0625 61.2188L31.4688 61.1875C31.6771 61.1875 31.9167 61.2917 32.1875 61.5C32.4792 61.7083 32.625 61.9167 32.625 62.125C32.625 62.2083 32.6042 62.3021 32.5625 62.4062C32.5208 62.4896 32.4896 62.5625 32.4688 62.625L31.625 67.5312C32.0417 68.0312 32.25 68.3646 32.25 68.5312C32.25 68.6562 32.1875 68.7396 32.0625 68.7812C31.9583 68.8021 31.75 68.8229 31.4375 68.8438L15.5938 69.5625L15.6562 70ZM7.8125 86.9062C7.8125 86.7188 8 86.4167 8.375 86C11.4792 82.6042 13.0625 78.2604 13.125 72.9688C13.125 72.2604 13.0625 71.7188 12.9375 71.3438C12.8542 71.0521 12.8125 70.8646 12.8125 70.7812C12.8125 70.6146 12.8958 70.5312 13.0625 70.5312C13.375 70.5312 14.0417 70.7917 15.0625 71.3125L29.1562 70.6875C29.7396 70.6458 30.2396 70.5521 30.6562 70.4062C30.8229 70.3646 30.9375 70.3438 31 70.3438C31.2292 70.3438 31.5625 70.5208 32 70.875C32.4375 71.2083 32.6562 71.4896 32.6562 71.7188C32.6562 71.9271 32.4167 72.0521 31.9375 72.0938L15 72.8125C14.9167 74.5208 14.7292 76.125 14.4375 77.625L31 76.9062C31.5833 76.8646 32.0833 76.7708 32.5 76.625C32.6667 76.5833 32.7917 76.5625 32.875 76.5625C33.125 76.5625 33.375 76.6562 33.625 76.8438C33.875 77.0104 34.0833 77.2083 34.25 77.4375C34.4167 77.6458 34.5 77.8021 34.5 77.9062C34.5 78.1146 34.2604 78.2396 33.7812 78.2812L23.3125 78.7188C24.4583 79.9062 25.4271 80.7708 26.2188 81.3125C28.3854 80.5208 29.6458 79.7604 30 79.0312C30.1042 78.8021 30.2396 78.6875 30.4062 78.6875C30.5938 78.6875 30.8333 78.8854 31.125 79.2812C31.4167 79.6771 31.5625 80.0104 31.5625 80.2812C31.5625 80.4896 31.4479 80.6458 31.2188 80.75C30.2188 81.2917 29.0625 81.7917 27.75 82.25C28.875 82.875 30.1354 83.4062 31.5312 83.8438C32.9271 84.2812 34.5729 84.6771 36.4688 85.0312C36.6562 85.0729 36.7917 85.1146 36.875 85.1562C36.9583 85.1979 37 85.2604 37 85.3438C37 85.4062 36.9271 85.5625 36.7812 85.8125C36.6562 86.0625 36.5 86.2812 36.3125 86.4688C36.125 86.6771 35.9375 86.7812 35.75 86.7812C35.6875 86.7812 35.5729 86.7604 35.4062 86.7188C33.1146 86.1771 31.1771 85.5938 29.5938 84.9688C28.0312 84.3438 26.5833 83.5521 25.25 82.5938C23.9167 81.6146 22.6042 80.3542 21.3125 78.8125L18.7812 78.9062L18.625 84.5938C19.9792 84.2396 21.5729 83.7812 23.4062 83.2188C23.7188 83.1146 24.0208 83.0625 24.3125 83.0625C24.5625 83.0625 24.6875 83.125 24.6875 83.25C24.6875 83.4792 24.3229 83.8021 23.5938 84.2188C22.8646 84.6354 21.9688 85.0625 20.9062 85.5C20.4271 85.7083 20.0312 85.875 19.7188 86C19.4062 86.1458 19.1667 86.2604 19 86.3438C18.2083 86.7396 17.7083 86.9375 17.5 86.9375C17.2917 86.9375 17.0625 86.7604 16.8125 86.4062C16.5625 86.0521 16.5 85.7812 16.625 85.5938C16.7083 85.4479 16.7708 85.0312 16.8125 84.3438C16.8542 83.6771 16.875 83.1771 16.875 82.8438L16.9688 79L14.0938 79.125C13.5729 80.7917 12.8854 82.2292 12.0312 83.4375C11.1771 84.625 10.3542 85.5312 9.5625 86.1562C8.77083 86.7812 8.26042 87.0938 8.03125 87.0938C7.88542 87.0938 7.8125 87.0312 7.8125 86.9062ZM15.0938 65.0625L19 64.8438L18.9062 63.2188L14.9062 63.4375L15.0938 65.0625ZM15.4375 68.2188L19.125 68.0312L19.0625 66.25L15.25 66.4375L15.4375 68.2188ZM16.1875 74.2812C16.1875 74.1979 16.2396 74.1562 16.3438 74.1562C16.4271 74.1562 16.5 74.1667 16.5625 74.1875C16.9792 74.2917 17.3854 74.3438 17.7812 74.3438H18.0625L27.3125 73.9062C27.8958 73.8646 28.3958 73.7708 28.8125 73.625C28.9792 73.5833 29.1042 73.5625 29.1875 73.5625C29.4375 73.5625 29.6875 73.6562 29.9375 73.8438C30.1875 74.0104 30.3958 74.2083 30.5625 74.4375C30.7292 74.6458 30.8125 74.8021 30.8125 74.9062C30.8125 75.0938 30.5729 75.2083 30.0938 75.25L18.6562 75.8125L17.9375 75.8438C17.125 75.8438 16.5729 75.4479 16.2812 74.6562C16.2188 74.4896 16.1875 74.3646 16.1875 74.2812ZM20.6875 64.7812L24.4375 64.5938L24.5 62.9375L20.625 63.125L20.6875 64.7812ZM20.8438 67.9688L24.375 67.7812L24.4062 66L20.75 66.1875L20.8438 67.9688ZM29.875 67.5312L30.125 65.7188L26.0938 65.9062L26.0312 67.7188L29.875 67.5312ZM30.3125 64.3125L30.5312 62.625L26.2188 62.8438L26.1562 64.5L30.3125 64.3125ZM92.5312 72C92.1979 72 91.9896 71.9062 91.9062 71.7188C91.8021 71.4688 91.6979 71.2604 91.5938 71.0938C91.4896 70.9062 91.3021 70.6875 91.0312 70.4375L91.0938 70.3125C91.8438 70.5833 92.3333 70.7188 92.5625 70.7188C92.7292 70.7188 92.8542 70.6875 92.9375 70.625C93.0208 70.5625 93.1562 70.4167 93.3438 70.1875C93.6146 69.8958 93.8646 69.4479 94.0938 68.8438C94.4062 67.9479 94.6042 67.0208 94.6875 66.0625V65.9688C94.6875 65.8438 94.6667 65.7604 94.625 65.7188C94.3542 65.7188 93.6354 65.7812 92.4688 65.9062C91.8229 67.5104 91.0729 68.8333 90.2188 69.875C89.3854 70.8958 88.625 71.4062 87.9375 71.4062C87.7708 71.4062 87.6875 71.3438 87.6875 71.2188C87.6875 71.1771 87.8958 70.9375 88.3125 70.5C88.7292 70.0625 89.1875 69.4896 89.6875 68.7812C90.2083 68.0521 90.6979 67.1562 91.1562 66.0938C91.0521 66.0938 90.75 66.1146 90.25 66.1562C89.75 66.1979 89.3229 66.2708 88.9688 66.375C88.8021 66.5 88.625 66.5208 88.4375 66.4375C88.4375 66.4375 88.4167 66.4271 88.375 66.4062C88.3333 66.3854 88.2917 66.3542 88.25 66.3125C88.1042 66.2292 87.9792 66.125 87.875 66C87.7917 65.8542 87.75 65.7188 87.75 65.5938C87.75 65.5312 87.8021 65.4479 87.9062 65.3438L88.2812 64.8438C88.4062 64.6771 88.5208 64.4375 88.625 64.125C88.7292 63.7917 88.7812 63.5104 88.7812 63.2812C88.7812 63.1354 88.7708 63.0417 88.75 63C88.7292 62.9583 88.7188 62.9062 88.7188 62.8438C88.7188 62.7396 88.7708 62.6875 88.875 62.6875C89 62.6875 89.1771 62.7604 89.4062 62.9062C89.4688 62.9479 89.5833 63.0312 89.75 63.1562C89.9375 63.2604 90.0417 63.3854 90.0625 63.5312C90.0625 63.6771 89.9792 63.9167 89.8125 64.25L89.4062 64.9688C89.3646 65.0312 89.3438 65.1042 89.3438 65.1875C89.3438 65.25 89.3646 65.3021 89.4062 65.3438C89.4688 65.3646 89.5417 65.3646 89.625 65.3438L91.5 65.0938C91.7083 64.5521 91.875 63.9792 92 63.375V63.1875V62.6562C92 62.4271 92.0625 62.3333 92.1875 62.375C92.4583 62.4375 92.6771 62.5208 92.8438 62.625C93.1562 62.8125 93.3125 62.9688 93.3125 63.0938C93.3125 63.1979 93.2708 63.375 93.1875 63.625C93.125 63.8542 93.0729 64.0312 93.0312 64.1562C93.0104 64.2396 92.9167 64.5104 92.75 64.9688C92.8125 64.9688 93.1979 64.9271 93.9062 64.8438L94.2188 64.7812C94.2812 64.7812 94.3958 64.7604 94.5625 64.7188C94.6042 64.6979 94.6562 64.6875 94.7188 64.6875C94.9688 64.6875 95.125 64.6979 95.1875 64.7188C95.2708 64.7396 95.3958 64.8021 95.5625 64.9062C95.75 65.0312 95.875 65.1562 95.9375 65.2812C96 65.4062 96.0208 65.5521 96 65.7188L95.8125 66.75L95.5938 67.875C95.5938 67.9583 95.5208 68.2292 95.375 68.6875C95.2292 69.1458 95.0625 69.5521 94.875 69.9062C94.5208 70.6146 94.1042 71.1458 93.625 71.5C93.2083 71.8333 92.8438 72 92.5312 72ZM88.4688 79.0938C88.2396 79.0938 87.9583 78.9167 87.625 78.5625C87.375 78.3125 87.25 78.125 87.25 78C87.25 77.9375 87.2917 77.9062 87.375 77.9062C87.4583 77.8854 87.5625 77.875 87.6875 77.875L88.375 77.8438C88.7708 77.8438 89.0312 77.8333 89.1562 77.8125C89.5521 77.8125 89.8854 77.8021 90.1562 77.7812C91.9479 77.6146 93.1562 77.4792 93.7812 77.375C94.0938 77.3333 94.375 77.2917 94.625 77.25C94.875 77.1875 95.0729 77.1562 95.2188 77.1562C95.5104 77.1562 95.8021 77.3021 96.0938 77.5938C96.3229 77.8229 96.4375 78.0104 96.4375 78.1562C96.4375 78.2812 96.3646 78.3646 96.2188 78.4062C96.1146 78.4271 95.5 78.4688 94.375 78.5312C93.75 78.5521 92.9792 78.6042 92.0625 78.6875C91.1458 78.7708 90.3438 78.8542 89.6562 78.9375C89.5312 78.9583 89.3542 78.9896 89.125 79.0312C88.8958 79.0729 88.6771 79.0938 88.4688 79.0938ZM97.5625 71.2188C97.6667 71.2188 97.8229 71.2917 98.0312 71.4375C98.0104 71.4792 98.0521 71.5625 98.1562 71.6875C98.2604 71.7917 98.3333 71.8646 98.375 71.9062C98.4792 72.0104 98.5833 72.1354 98.6875 72.2812C98.8125 72.4271 98.9479 72.5833 99.0938 72.75C99.4688 73.1458 100.333 74.1771 101.688 75.8438C101.917 76.1771 102.031 76.375 102.031 76.4375C102.031 76.6458 101.906 76.75 101.656 76.75C101.51 76.75 101.354 76.6458 101.188 76.4375C100.792 76.0208 100.083 75.3646 99.0625 74.4688C98.2708 73.7396 97.5521 73.1771 96.9062 72.7812C96.5938 72.6354 96.4375 72.4688 96.4375 72.2812C96.4375 72.1354 96.5938 71.9271 96.9062 71.6562C97.1979 71.3646 97.4167 71.2188 97.5625 71.2188ZM67.25 85.9688V86.0312C67.25 86.1979 67.1979 86.3333 67.0938 86.4375C67.0104 86.5417 66.875 86.5938 66.6875 86.5938C66.375 86.5938 66.0521 86.4792 65.7188 86.25C65.3854 86.0417 65.2188 85.8125 65.2188 85.5625V85.4062C65.2188 85.2604 65.2292 85.125 65.25 85C65.2708 84.8958 65.2812 84.7812 65.2812 84.6562L65.25 84.0938L64.9375 77.9062C64.9167 77.6354 64.8646 77.3438 64.7812 77.0312C64.7188 76.6979 64.6562 76.4583 64.5938 76.3125C64.4479 76.0208 64.375 75.8125 64.375 75.6875C64.375 75.5625 64.4688 75.5 64.6562 75.5C64.9271 75.5 65.6042 75.6875 66.6875 76.0625L78.2812 75.5312H78.625C78.9167 75.5312 79.1562 75.6042 79.3438 75.75C79.5521 75.8958 79.7083 76.0625 79.8125 76.25C79.9167 76.4375 79.9688 76.5729 79.9688 76.6562C79.9688 76.7604 79.9375 76.8646 79.875 76.9688C79.8125 77.0729 79.7708 77.1667 79.75 77.25L79.2188 83.5625C79.7188 84.2083 79.9688 84.6458 79.9688 84.875C79.9688 85.0208 79.9062 85.1042 79.7812 85.125C79.6562 85.1667 79.4479 85.1875 79.1562 85.1875L67.2188 85.4375L67.25 85.9688ZM55.7812 85.9688C55.7812 85.7604 55.875 85.4375 56.0625 85C57.125 82.6667 57.9271 80.3958 58.4688 78.1875C59.0104 75.9792 59.3646 73.7188 59.5312 71.4062C59.7188 69.0938 59.8125 66.3125 59.8125 63.0625C59.8125 62.4583 59.8021 62 59.7812 61.6875C59.7604 61.3542 59.6979 61.0312 59.5938 60.7188C59.5104 60.4688 59.4688 60.3125 59.4688 60.25C59.4688 60.1042 59.5417 60.0312 59.6875 60.0312C59.9583 60.0312 60.6771 60.3021 61.8438 60.8438L78.8125 59.9062C79.4167 59.8854 79.9479 59.7812 80.4062 59.5938C80.5312 59.5312 80.6562 59.5 80.7812 59.5C81.0104 59.5 81.2604 59.5938 81.5312 59.7812C81.8229 59.9688 82.0625 60.1771 82.25 60.4062C82.4583 60.6354 82.5625 60.8021 82.5625 60.9062C82.5625 61.1771 82.3021 61.3333 81.7812 61.375L61.8125 62.5C61.8125 64.3333 61.7604 66.2708 61.6562 68.3125C61.5729 70.3542 61.4167 72.0938 61.1875 73.5312C60.7292 76.5104 60.1146 78.9479 59.3438 80.8438C58.5938 82.7188 57.8854 84.0729 57.2188 84.9062C56.5521 85.7604 56.1146 86.1875 55.9062 86.1875C55.8229 86.1875 55.7812 86.1146 55.7812 85.9688ZM61.5625 75.1875C61.5625 74.9792 61.7396 74.6875 62.0938 74.3125C62.7396 73.625 63.4583 72.7604 64.25 71.7188C65.0625 70.6771 65.75 69.6875 66.3125 68.75L64.4062 68.9062H64.1562C63.6979 68.9062 63.3021 68.7812 62.9688 68.5312C62.6562 68.2812 62.5 67.9479 62.5 67.5312C62.5 67.4271 62.5625 67.375 62.6875 67.375L63 67.4375C63.3125 67.5 63.6354 67.5312 63.9688 67.5312H64.1875L66.9375 67.3438C66.9375 66.4896 66.9479 65.8854 66.9688 65.5312C66.3229 65.6771 65.7188 65.8021 65.1562 65.9062C64.5938 66.0104 64.2188 66.0625 64.0312 66.0625C63.6354 66.0625 63.4375 65.9792 63.4375 65.8125C63.4375 65.7292 63.5208 65.6354 63.6875 65.5312C63.8542 65.4062 64.0938 65.3021 64.4062 65.2188C65.3229 64.9479 66.3438 64.5729 67.4688 64.0938C68.6146 63.6146 69.3333 63.1562 69.625 62.7188C69.7292 62.5938 69.8438 62.5312 69.9688 62.5312C70.1771 62.5312 70.375 62.6354 70.5625 62.8438C70.75 63.0312 70.9062 63.25 71.0312 63.5C71.1771 63.7292 71.25 63.8958 71.25 64C71.25 64.2083 71.1771 64.3333 71.0312 64.375C70.0104 64.7292 69.1771 64.9896 68.5312 65.1562V67.25L69.75 67.1562C70.1667 67.1146 70.5104 67.0521 70.7812 66.9688C70.8438 66.9479 70.9271 66.9375 71.0312 66.9375C71.2604 66.9375 71.5312 67.0833 71.8438 67.375C72.1562 67.6458 72.3125 67.875 72.3125 68.0625C72.3125 68.2708 72.1042 68.3854 71.6875 68.4062L68.5312 68.625V69.1875C68.6562 69.0625 68.8021 69 68.9688 69C69.0938 69 69.4062 69.1667 69.9062 69.5C70.4062 69.8125 70.8646 70.1562 71.2812 70.5312C71.7188 70.9062 71.9375 71.1771 71.9375 71.3438C71.9375 71.5521 71.8229 71.7812 71.5938 72.0312C71.3854 72.2812 71.2083 72.4062 71.0625 72.4062C70.9167 72.4062 70.7292 72.2917 70.5 72.0625C69.9167 71.4792 69.2604 70.9062 68.5312 70.3438V74.8438C68.5312 75.2812 68.375 75.5 68.0625 75.5C67.9167 75.5 67.6979 75.4375 67.4062 75.3125C67.1562 75.1875 66.9792 75.0625 66.875 74.9375C66.7917 74.8125 66.75 74.6667 66.75 74.5C66.75 74.3333 66.7604 74.2083 66.7812 74.125C66.8646 73.4583 66.9062 72.9792 66.9062 72.6875L66.9375 71.7188C66.9375 71.3021 66.9792 70.75 67.0625 70.0625C66.8333 70.6042 66.3438 71.3021 65.5938 72.1562C64.8438 72.9896 64.0729 73.7292 63.2812 74.375C62.5104 75.0208 61.9896 75.3438 61.7188 75.3438C61.6146 75.3438 61.5625 75.2917 61.5625 75.1875ZM66.875 79.8438L77.6562 79.4688L77.7812 77.125L66.75 77.6562L66.875 79.8438ZM67.125 83.8438L77.4062 83.5938L77.5625 80.9688L66.9688 81.3438L67.125 83.8438ZM70.6875 74.5938C70.6875 74.3854 70.8854 74.0833 71.2812 73.6875C72.9062 72.1042 74.3646 70.3125 75.6562 68.3125L74.0938 68.4375H73.8125C73.4167 68.4375 73.125 68.3646 72.9375 68.2188C72.5833 67.9062 72.3438 67.6042 72.2188 67.3125C72.1771 67.1875 72.1562 67.1146 72.1562 67.0938C72.1562 66.9896 72.2292 66.9375 72.375 66.9375C72.4792 66.9375 72.5625 66.9479 72.625 66.9688C72.9375 67.0521 73.2396 67.0938 73.5312 67.0938L73.875 67.0625L76.3125 66.9062L76.375 64.9375C76.2917 64.9583 75.8333 65.0625 75 65.25C74.1875 65.4375 73.5729 65.5312 73.1562 65.5312C72.7604 65.5312 72.5625 65.4583 72.5625 65.3125C72.5625 65.2292 72.6562 65.125 72.8438 65C73.0521 64.875 73.3333 64.7604 73.6875 64.6562C74.6042 64.3646 75.6771 63.9792 76.9062 63.5C78.1354 63 78.8958 62.5312 79.1875 62.0938C79.2917 61.9271 79.4167 61.8438 79.5625 61.8438C79.8333 61.8438 80.1146 62.0417 80.4062 62.4375C80.7188 62.8125 80.875 63.1146 80.875 63.3438C80.875 63.4271 80.8438 63.5104 80.7812 63.5938C80.7396 63.6562 80.6979 63.6875 80.6562 63.6875C79.6146 64.0625 78.6979 64.3542 77.9062 64.5625C77.8854 65.0208 77.875 65.7708 77.875 66.8125L80.0938 66.6875C80.3229 66.6667 80.6667 66.5938 81.125 66.4688C81.1875 66.4479 81.2812 66.4375 81.4062 66.4375C81.6354 66.4375 81.9167 66.5625 82.25 66.8125C82.5833 67.0417 82.75 67.3021 82.75 67.5938C82.75 67.8021 82.5104 67.9271 82.0312 67.9688L77.875 68.2188V68.9375C78.25 69.0625 78.9896 69.4688 80.0938 70.1562C81.2188 70.8229 82.2708 71.4896 83.25 72.1562C83.2708 72.1771 83.3438 72.2604 83.4688 72.4062C83.6146 72.5312 83.6875 72.6667 83.6875 72.8125C83.6875 72.9375 83.6146 73.1562 83.4688 73.4688C83.3438 73.7604 83.1771 73.9167 82.9688 73.9375H82.9062C82.7396 73.9375 82.5521 73.8542 82.3438 73.6875C80.7604 72.4792 79.2708 71.4479 77.875 70.5938L77.8438 74.4375C77.8438 74.6875 77.8125 74.875 77.75 75C77.6875 75.125 77.5833 75.1875 77.4375 75.1875C77.125 75.1875 76.8229 75.0729 76.5312 74.8438C76.2396 74.6146 76.0938 74.3646 76.0938 74.0938L76.125 73.7812C76.2083 73.1146 76.25 72.6354 76.25 72.3438V71.4688C76.25 70.9688 76.3125 70.3021 76.4375 69.4688C75.9792 70.3021 75.3542 71.125 74.5625 71.9375C73.7708 72.7292 73 73.3958 72.25 73.9375C71.5 74.4583 71.0312 74.7188 70.8438 74.7188C70.7396 74.7188 70.6875 74.6771 70.6875 74.5938ZM136.469 74.4062C136.24 74.4062 135.958 74.2292 135.625 73.875C135.375 73.625 135.25 73.4375 135.25 73.3125C135.25 73.25 135.292 73.2188 135.375 73.2188C135.458 73.1979 135.562 73.1875 135.688 73.1875L136.375 73.1562C136.771 73.1562 137.031 73.1458 137.156 73.125C137.552 73.125 137.885 73.1146 138.156 73.0938C139.948 72.9271 141.156 72.7917 141.781 72.6875C142.094 72.6458 142.375 72.6042 142.625 72.5625C142.875 72.5 143.073 72.4688 143.219 72.4688C143.51 72.4688 143.802 72.6146 144.094 72.9062C144.323 73.1354 144.438 73.3229 144.438 73.4688C144.438 73.5938 144.365 73.6771 144.219 73.7188C144.115 73.7396 143.5 73.7812 142.375 73.8438C141.75 73.8646 140.979 73.9167 140.062 74C139.146 74.0833 138.344 74.1667 137.656 74.25C137.531 74.2708 137.354 74.3021 137.125 74.3438C136.896 74.3854 136.677 74.4062 136.469 74.4062ZM107.625 74C107.396 74.0208 107.115 74.0312 106.781 74.0312C106.365 74.0312 106.052 73.9583 105.844 73.8125C105.615 73.625 105.385 73.3125 105.156 72.875C104.948 72.4375 104.844 72.1458 104.844 72C104.844 71.875 104.896 71.8125 105 71.8125L105.25 71.875C105.625 71.9792 106.021 72.0312 106.438 72.0312L107 72L129.156 70.875C129.656 70.8333 130.094 70.7396 130.469 70.5938C130.51 70.5729 130.573 70.5625 130.656 70.5625C130.823 70.5625 131.052 70.6562 131.344 70.8438C131.656 71.0312 131.927 71.2604 132.156 71.5312C132.385 71.7812 132.5 72.0104 132.5 72.2188C132.5 72.5312 132.26 72.7083 131.781 72.75L107.625 74ZM185.156 70.2812C184.469 70.0312 184.146 69.7604 184.188 69.4688C184.312 68.5938 184.375 67.5938 184.375 66.4688C184.375 65.9688 184.365 65.6042 184.344 65.375C184.323 65.1042 184.302 64.875 184.281 64.6875C184.26 64.4792 184.26 64.3646 184.281 64.3438C184.365 64.2604 184.469 64.2188 184.594 64.2188C184.781 64.2188 185.01 64.3021 185.281 64.4688C185.573 64.6354 185.719 64.8021 185.719 64.9688C185.719 65.0729 185.708 65.1771 185.688 65.2812C185.667 65.3646 185.656 65.4583 185.656 65.5625L185.469 68.6562C185.469 68.8229 185.531 68.9271 185.656 68.9688H185.812C185.979 68.9688 186.094 68.9583 186.156 68.9375L190.188 68.375V67.5625C190.188 66.5417 190.167 65.75 190.125 65.1875C190.104 64.7083 190.052 64.3229 189.969 64.0312C189.906 63.6979 189.99 63.5312 190.219 63.5312C190.385 63.5312 190.604 63.5938 190.875 63.7188C191.208 63.8854 191.406 64.0312 191.469 64.1562C191.531 64.2604 191.552 64.4271 191.531 64.6562C191.49 65.0312 191.469 65.5938 191.469 66.3438L191.5 68.7188C191.5 69.2188 191.406 69.6146 191.219 69.9062C191.115 70.0312 191.01 70.0938 190.906 70.0938C190.802 70.0938 190.656 70 190.469 69.8125C190.427 69.7708 190.375 69.7083 190.312 69.625C190.25 69.5417 190.188 69.4896 190.125 69.4688C190.062 69.4479 189.979 69.4375 189.875 69.4375C189.396 69.4792 188.24 69.6354 186.406 69.9062C186.094 69.9479 185.844 70.0312 185.656 70.1562C185.448 70.2604 185.312 70.3125 185.25 70.3125L185.156 70.2812ZM188.656 82.9375C188.01 82.9375 187.51 82.9167 187.156 82.875C186.823 82.8333 186.542 82.7083 186.312 82.5C185.917 82.2083 185.646 81.5729 185.5 80.5938L185.406 79.5938C185.406 79.3438 185.385 79.0312 185.344 78.6562C185.01 78.6979 184.771 78.7396 184.625 78.7812C184.583 78.8021 184.51 78.8333 184.406 78.875C184.323 78.8958 184.26 78.9062 184.219 78.9062C184.073 78.9062 183.938 78.8646 183.812 78.7812C183.688 78.6979 183.531 78.5417 183.344 78.3125C183.198 78.125 183.125 78 183.125 77.9375C183.125 77.875 183.198 77.8333 183.344 77.8125C183.49 77.7917 183.688 77.7812 183.938 77.7812C184.292 77.7812 184.75 77.7396 185.312 77.6562L185.281 77.2188C185.281 76.3854 185.229 75.6771 185.125 75.0938L185.094 74.875C185.094 74.5833 185.208 74.4688 185.438 74.5312C185.688 74.6146 185.917 74.7188 186.125 74.8438C186.292 74.9271 186.406 75.0104 186.469 75.0938C186.531 75.1562 186.552 75.25 186.531 75.375L186.438 76.7188V77.5312L189.188 77.25C189.188 77.1042 189.198 76.7604 189.219 76.2188C189.24 75.6562 189.24 75.2917 189.219 75.125C189.219 74.9583 189.198 74.8021 189.156 74.6562C189.135 74.4896 189.115 74.3542 189.094 74.25C189.094 74.0833 189.177 74 189.344 74C189.51 74 189.719 74.0938 189.969 74.2812C190.26 74.4688 190.448 74.6354 190.531 74.7812C190.635 74.9271 190.656 75.1042 190.594 75.3125C190.49 75.6458 190.417 76.0208 190.375 76.4375C190.333 76.8542 190.312 77.1042 190.312 77.1875C190.562 77.1667 190.792 77.1354 191 77.0938C191.208 77.0521 191.344 77.0312 191.406 77.0312C191.573 76.9896 191.771 76.9688 192 76.9688C192.125 76.9896 192.302 77.1146 192.531 77.3438C192.719 77.5938 192.812 77.7917 192.812 77.9375C192.812 78.1458 192.615 78.2292 192.219 78.1875C191.865 78.125 191.51 78.0938 191.156 78.0938C190.802 78.0938 190.5 78.1042 190.25 78.125C190.188 78.875 190.062 79.6146 189.875 80.3438C189.833 80.5104 189.76 80.6562 189.656 80.7812C189.552 80.8854 189.458 80.9375 189.375 80.9375C189.229 80.9375 189.135 80.8854 189.094 80.7812C189.073 80.6562 189.062 80.4688 189.062 80.2188C189.104 79.6771 189.125 79 189.125 78.1875C188.562 78.2292 188.125 78.2708 187.812 78.3125C187.333 78.4167 186.885 78.4792 186.469 78.5C186.448 79.3542 186.49 80.1146 186.594 80.7812C186.656 81.2188 186.781 81.5208 186.969 81.6875C187.094 81.7917 187.24 81.8542 187.406 81.875C187.594 81.8958 187.781 81.9062 187.969 81.9062C188.156 81.9062 188.281 81.9062 188.344 81.9062C188.99 81.9062 189.594 81.875 190.156 81.8125C190.323 81.7917 190.469 81.75 190.594 81.6875C190.74 81.625 190.844 81.5938 190.906 81.5938C191.094 81.5938 191.281 81.6562 191.469 81.7812C191.656 81.9062 191.75 82.0521 191.75 82.2188C191.75 82.3854 191.656 82.5104 191.469 82.5938C191.302 82.6771 191.031 82.75 190.656 82.8125C189.99 82.8958 189.323 82.9375 188.656 82.9375ZM193.562 71.2188C193.667 71.2188 193.823 71.2917 194.031 71.4375C194.01 71.4792 194.052 71.5625 194.156 71.6875C194.26 71.7917 194.333 71.8646 194.375 71.9062C194.479 72.0104 194.583 72.1354 194.688 72.2812C194.812 72.4271 194.948 72.5833 195.094 72.75C195.469 73.1458 196.333 74.1771 197.688 75.8438C197.917 76.1771 198.031 76.375 198.031 76.4375C198.031 76.6458 197.906 76.75 197.656 76.75C197.51 76.75 197.354 76.6458 197.188 76.4375C196.792 76.0208 196.083 75.3646 195.062 74.4688C194.271 73.7396 193.552 73.1771 192.906 72.7812C192.594 72.6354 192.438 72.4688 192.438 72.2812C192.438 72.1354 192.594 71.9271 192.906 71.6562C193.198 71.3646 193.417 71.2188 193.562 71.2188ZM161.406 76.3438C160.885 78.5729 160.062 80.4583 158.938 82C157.812 83.5208 156.344 85.0104 154.531 86.4688C154.094 86.8229 153.74 87 153.469 87C153.323 87 153.25 86.9271 153.25 86.7812C153.25 86.5729 153.417 86.2917 153.75 85.9375C155.479 84.0208 156.792 82.1979 157.688 80.4688C158.604 78.7396 159.229 76.8438 159.562 74.7812C159.917 72.6979 160.094 70.0833 160.094 66.9375V64C160.094 62.8542 159.99 61.9688 159.781 61.3438C159.719 61.1771 159.688 61.0312 159.688 60.9062C159.688 60.7396 159.781 60.6562 159.969 60.6562C160.302 60.6562 161.031 60.9375 162.156 61.5L173.312 60.8438L173.656 60.8125C174.01 60.8125 174.323 60.9583 174.594 61.25C174.865 61.5208 175 61.7604 175 61.9688C175 62.0521 174.969 62.1771 174.906 62.3438C174.844 62.5104 174.812 62.6458 174.812 62.75L174.969 84.4062L175 85.4688C175 85.9062 174.896 86.2708 174.688 86.5625C174.5 86.8542 174.281 87.0625 174.031 87.1875C173.781 87.3333 173.573 87.4062 173.406 87.4062C173.031 87.4062 172.396 87.0833 171.5 86.4375C170.604 85.8125 169.771 85.125 169 84.375C168.229 83.6458 167.844 83.1458 167.844 82.875C167.844 82.75 167.917 82.6875 168.062 82.6875C168.292 82.6875 168.635 82.8229 169.094 83.0938C170.24 83.7812 171.51 84.3646 172.906 84.8438L172.844 75.875L161.406 76.3438ZM172.844 74.1562L172.812 69.2812L162.094 69.6875C162.01 71.9375 161.885 73.5833 161.719 74.625L172.844 74.1562ZM172.812 67.4688L172.781 62.6875L162.219 63.3438L162.156 68L172.812 67.4688ZM231.594 78.375C231.448 78.375 231.354 78.3646 231.312 78.3438C231.292 78.3021 231.323 78.2292 231.406 78.125C231.698 77.8542 231.927 77.5938 232.094 77.3438C232.281 77.0729 232.479 76.6458 232.688 76.0625C233.021 75.1042 233.188 74.3646 233.188 73.8438C233.188 73.3646 233.156 72.9271 233.094 72.5312V72.4375C233.094 72.2083 233.24 72.1354 233.531 72.2188C233.781 72.2812 234.062 72.3646 234.375 72.4688C234.438 72.4479 234.531 72.4375 234.656 72.4375C234.781 72.4167 234.979 72.3854 235.25 72.3438C235.958 72.2396 236.875 72.1354 238 72.0312C238 71.9479 238.083 71.6562 238.25 71.1562L238.438 70.4688C238.521 70.1771 238.49 70.0312 238.344 70.0312C237.927 70.0312 236.958 70.1354 235.438 70.3438L233.781 70.625C233.635 70.6458 233.448 70.5833 233.219 70.4375C233.01 70.2917 232.844 70.125 232.719 69.9375C232.615 69.75 232.635 69.625 232.781 69.5625C232.948 69.4583 233.115 69.4062 233.281 69.4062C233.448 69.4062 233.552 69.4062 233.594 69.4062H234L236.062 69.3438L238.062 69.0938C238.167 69.0729 238.292 69.0417 238.438 69C238.604 68.9375 238.76 68.8958 238.906 68.875C239.115 68.8333 239.469 69.0625 239.969 69.5625C240.052 69.6458 240.094 69.7396 240.094 69.8438C240.094 69.9688 240.01 70.0938 239.844 70.2188C239.615 70.4479 239.469 70.6458 239.406 70.8125C239.385 70.9167 239.344 71.0729 239.281 71.2812C239.219 71.4688 239.156 71.7083 239.094 72C239.219 72.1458 239.281 72.3229 239.281 72.5312C239.281 72.6979 239.229 72.8229 239.125 72.9062C239.042 72.9688 238.865 73 238.594 73C237.656 73.0625 236.917 73.125 236.375 73.1875C235.833 73.2292 235.177 73.3333 234.406 73.5C234.323 74.4375 234.135 75.3021 233.844 76.0938C233.552 76.8646 233.146 77.4479 232.625 77.8438C232.125 78.1979 231.781 78.375 231.594 78.375ZM245.562 64.0312C245.812 64.0312 245.938 64.1458 245.938 64.375C245.938 64.5 245.823 64.6771 245.594 64.9062C244.969 65.6771 243.729 67.1458 241.875 69.3125C241.729 69.5 241.594 69.5938 241.469 69.5938C241.365 69.5938 241.135 69.4375 240.781 69.125C240.49 68.875 240.344 68.6667 240.344 68.5C240.344 68.3125 240.5 68.1354 240.812 67.9688C241.292 67.6979 242.01 67.1562 242.969 66.3438C243.927 65.4896 244.635 64.8125 245.094 64.3125C245.281 64.125 245.438 64.0312 245.562 64.0312ZM215.781 85.8438C215.781 86.4062 215.594 86.6875 215.219 86.6875C214.969 86.6875 214.688 86.5938 214.375 86.4062C213.979 86.1771 213.698 85.9792 213.531 85.8125C213.385 85.6458 213.312 85.4271 213.312 85.1562C213.312 85.0104 213.323 84.8958 213.344 84.8125C213.49 84.0417 213.562 83.4167 213.562 82.9375V72.0625L204.062 72.5938C203.854 72.6146 203.583 72.625 203.25 72.625C202.792 72.625 202.458 72.5521 202.25 72.4062C201.938 72.1354 201.698 71.8021 201.531 71.4062C201.365 70.9896 201.281 70.7188 201.281 70.5938C201.281 70.4688 201.344 70.4062 201.469 70.4062L201.719 70.4688C202.031 70.5729 202.458 70.625 203 70.625H203.375L213.562 70.0625V60.9062C213.562 60.3646 213.438 59.9167 213.188 59.5625C213.083 59.4167 213.031 59.3021 213.031 59.2188C213.031 59.0729 213.177 59 213.469 59C213.74 59 214.125 59.0625 214.625 59.1875C215.104 59.3125 215.406 59.4375 215.531 59.5625C215.677 59.6875 215.75 59.8854 215.75 60.1562V69.9375L224.969 69.4062C225.448 69.3854 225.875 69.3021 226.25 69.1562C226.292 69.1354 226.365 69.125 226.469 69.125C226.781 69.125 227.167 69.3333 227.625 69.75C228.104 70.1458 228.344 70.4688 228.344 70.7188C228.344 70.8854 228.271 71.0208 228.125 71.125C227.979 71.2083 227.781 71.2604 227.531 71.2812L215.75 71.9375L215.781 85.8438ZM287.188 77.5312C286.875 77.5312 286.573 77.3021 286.281 76.8438C285.906 76.2604 285.542 75.7812 285.188 75.4062L284.375 74.5625C283.938 75.0625 283.552 75.4583 283.219 75.75C282.906 76.0417 282.51 76.3229 282.031 76.5938C281.135 77.1146 280.385 77.375 279.781 77.375C279.635 77.375 279.562 77.3229 279.562 77.2188C279.562 77.1562 279.76 77.0208 280.156 76.8125C280.552 76.6042 280.927 76.3542 281.281 76.0625C282.177 75.3125 282.917 74.5417 283.5 73.75C283.375 73.625 282.75 73.0833 281.625 72.125C281.479 72.0208 281.26 71.8438 280.969 71.5938C280.906 71.5521 280.781 71.4583 280.594 71.3125C280.406 71.1667 280.312 71.0625 280.312 71C280.312 70.8958 280.365 70.8438 280.469 70.8438C280.781 70.8438 281.281 71.0625 281.969 71.5C282.656 71.9167 283.375 72.4167 284.125 73C284.417 72.6458 284.646 72.3125 284.812 72C284.979 71.6875 285.167 71.3021 285.375 70.8438C285.479 70.6146 285.542 70.4167 285.562 70.25C285.583 70.0625 285.594 69.9479 285.594 69.9062C285.594 69.6771 285.656 69.5625 285.781 69.5625C285.927 69.5625 286.125 69.6771 286.375 69.9062C286.812 70.3229 287.031 70.6042 287.031 70.75C287.031 70.8333 286.979 70.9271 286.875 71.0312C286.625 71.2812 286.396 71.6146 286.188 72.0312C286.062 72.2812 285.833 72.6354 285.5 73.0938C285.396 73.2188 285.312 73.3333 285.25 73.4375C285.188 73.5417 285.125 73.6354 285.062 73.7188C285.542 74.0729 286.25 74.6771 287.188 75.5312C287.417 75.7396 287.562 75.9375 287.625 76.125C287.708 76.2917 287.75 76.5208 287.75 76.8125C287.75 77.0208 287.698 77.1979 287.594 77.3438C287.49 77.4688 287.354 77.5312 287.188 77.5312ZM293.688 66.0938C293.75 66.0938 293.812 66.125 293.875 66.1875C293.938 66.2292 293.979 66.2917 294 66.375V66.4375C294 66.5833 293.885 66.8646 293.656 67.2812L291.406 71.1875C291.24 71.5417 291.021 71.7188 290.75 71.7188C290.479 71.7188 290.25 71.5521 290.062 71.2188C289.875 70.9479 289.646 70.5417 289.375 70C289.25 69.8125 289.146 69.625 289.062 69.4375C288.979 69.25 288.917 69.1146 288.875 69.0312C288.646 68.6354 288.531 68.3542 288.531 68.1875C288.531 68.1042 288.562 68.0417 288.625 68C288.688 67.9375 288.75 67.9062 288.812 67.9062C289.042 67.9062 289.25 68.0312 289.438 68.2812C289.583 68.4271 289.698 68.5833 289.781 68.75L290.125 69.2188L290.75 69.9375L291.031 69.5C291.323 69 292.01 68.0104 293.094 66.5312C293.323 66.2396 293.521 66.0938 293.688 66.0938ZM251.438 84.7188H250.875C250.458 84.7188 250.135 84.6875 249.906 84.625C249.677 84.5833 249.479 84.5 249.312 84.375C249.104 84.1875 248.885 83.9583 248.656 83.6875C248.427 83.4167 248.312 83.1667 248.312 82.9375C248.312 82.7917 248.385 82.7188 248.531 82.7188C248.615 82.7188 248.677 82.7292 248.719 82.75C249.135 82.8542 249.583 82.9062 250.062 82.9062L250.781 82.875L257.438 82.6875L259.188 73.0625L255.656 73.2188C255.115 73.2604 254.76 73.2812 254.594 73.2812C254.156 73.2812 253.844 73.1875 253.656 73C253.427 72.7708 253.229 72.5 253.062 72.1875C252.896 71.875 252.812 71.6562 252.812 71.5312C252.812 71.3646 252.885 71.2812 253.031 71.2812C253.094 71.2812 253.146 71.2917 253.188 71.3125C253.583 71.4375 254.042 71.5 254.562 71.5L255.438 71.4688L259.5 71.2812L260.781 64.2812L254.438 64.6562C254.208 64.6771 253.906 64.6875 253.531 64.6875C253.031 64.6875 252.708 64.625 252.562 64.5C252.292 64.2917 252.062 64.0417 251.875 63.75C251.708 63.4375 251.625 63.1667 251.625 62.9375C251.625 62.7917 251.698 62.7188 251.844 62.7188L252.031 62.75C252.406 62.8542 252.865 62.9062 253.406 62.9062H253.812L269.781 61.9375C270.177 61.9167 270.646 61.8125 271.188 61.625C271.229 61.6042 271.292 61.5938 271.375 61.5938C271.625 61.5938 271.99 61.7917 272.469 62.1875C272.948 62.5833 273.188 62.9062 273.188 63.1562C273.188 63.4062 272.917 63.5521 272.375 63.5938L263 64.1562L261.688 71.1562L269.406 70.7812H269.594C269.865 70.7812 270.198 70.8646 270.594 71.0312C270.99 71.1979 271.188 71.5104 271.188 71.9688C271.188 72.1354 271.156 72.3021 271.094 72.4688C271.031 72.6146 270.99 72.7083 270.969 72.75L269.969 82.3125L272.969 82.2188C273.323 82.1979 273.844 82.1146 274.531 81.9688C274.656 81.9271 274.76 81.9062 274.844 81.9062C275.073 81.9062 275.333 82.0104 275.625 82.2188C275.938 82.4271 276.208 82.6667 276.438 82.9375C276.667 83.2083 276.781 83.4167 276.781 83.5625C276.781 83.8333 276.562 83.9896 276.125 84.0312H276.031L251.438 84.7188ZM267.938 82.375L268.844 72.5938L261.344 72.9375L259.5 82.625L267.938 82.375ZM329.438 77.8125C329.312 77.8125 329.135 77.7188 328.906 77.5312C328.781 77.4479 328.677 77.3646 328.594 77.2812C328.51 77.1979 328.469 77.125 328.469 77.0625L328.5 76.5625C328.521 76.375 328.531 75.9583 328.531 75.3125C328.51 74.8542 328.5 73.8958 328.5 72.4375C328.5 71.8542 328.448 71.3229 328.344 70.8438C328.344 70.8438 328.302 70.5938 328.219 70.0938V70C328.219 69.8125 328.344 69.7604 328.594 69.8438C328.698 69.8646 328.938 69.9062 329.312 69.9688C329.708 69.9062 331.031 69.75 333.281 69.5C333.594 69.4583 333.844 69.4167 334.031 69.375C334.219 69.3333 334.354 69.3021 334.438 69.2812H334.562C334.792 69.2812 335 69.3958 335.188 69.625C335.521 70.0208 335.656 70.3021 335.594 70.4688C335.51 70.6771 335.427 71.0312 335.344 71.5312C335.302 71.8229 335.25 72.3229 335.188 73.0312V74.4688V76.75C335.188 76.9375 335.094 77.1875 334.906 77.5C334.865 77.6042 334.781 77.6875 334.656 77.75C334.552 77.8125 334.438 77.8438 334.312 77.8438C334.188 77.8438 334.094 77.8125 334.031 77.75C333.99 77.7083 333.948 77.6667 333.906 77.625C333.865 77.5625 333.823 77.5208 333.781 77.5C333.76 77.4792 333.719 77.4688 333.656 77.4688C332.365 77.4688 331.198 77.5521 330.156 77.7188C330.073 77.7396 329.99 77.75 329.906 77.75C329.844 77.75 329.781 77.7604 329.719 77.7812L329.5 77.8125H329.438ZM330.031 76.6562C330.552 76.6354 331.26 76.5729 332.156 76.4688C332.573 76.4271 332.812 76.4062 332.875 76.4062H333.125C333.458 76.4062 333.708 76.4688 333.875 76.5938C334.021 75.5521 334.094 73.6458 334.094 70.875C334.052 70.5625 333.927 70.4062 333.719 70.4062C333.323 70.4062 332.521 70.4792 331.312 70.625C331.188 70.625 331.062 70.6354 330.938 70.6562C330.812 70.6771 330.688 70.6979 330.562 70.7188C330.208 70.7812 329.948 70.8125 329.781 70.8125C329.635 70.8125 329.583 70.8854 329.625 71.0312L329.594 72.0938C329.573 72.2396 329.562 72.375 329.562 72.5C329.583 72.625 329.594 72.7396 329.594 72.8438C329.615 73.0104 329.625 73.2812 329.625 73.6562C329.625 75.2812 329.635 76.1771 329.656 76.3438C329.656 76.4896 329.698 76.5833 329.781 76.625C329.865 76.6667 329.948 76.6771 330.031 76.6562ZM332.344 74.9062C332.115 74.9062 331.938 74.7917 331.812 74.5625C331.375 73.8333 330.969 73.2292 330.594 72.75L330.375 72.4062C330.292 72.2812 330.25 72.1875 330.25 72.125C330.271 72.0417 330.323 72.0104 330.406 72.0312C330.948 72.1979 331.448 72.4688 331.906 72.8438C332.615 73.3854 332.969 73.8021 332.969 74.0938C332.969 74.2396 332.927 74.3854 332.844 74.5312C332.698 74.7812 332.531 74.9062 332.344 74.9062ZM337.562 66.5312C337.667 66.5312 337.823 66.6042 338.031 66.75C338.01 66.7917 338.052 66.875 338.156 67C338.26 67.1042 338.333 67.1771 338.375 67.2188C338.479 67.3229 338.583 67.4479 338.688 67.5938C338.812 67.7396 338.948 67.8958 339.094 68.0625C339.469 68.4583 340.333 69.4896 341.688 71.1562C341.917 71.4896 342.031 71.6875 342.031 71.75C342.031 71.9583 341.906 72.0625 341.656 72.0625C341.51 72.0625 341.354 71.9583 341.188 71.75C340.792 71.3333 340.083 70.6771 339.062 69.7812C338.271 69.0521 337.552 68.4896 336.906 68.0938C336.594 67.9479 336.438 67.7812 336.438 67.5938C336.438 67.4479 336.594 67.2396 336.906 66.9688C337.198 66.6771 337.417 66.5312 337.562 66.5312ZM304.688 85.625V85.7812C304.688 86.3021 304.521 86.5625 304.188 86.5625C304.021 86.5625 303.792 86.5 303.5 86.375C303.208 86.25 302.948 86.0729 302.719 85.8438C302.51 85.6354 302.406 85.4062 302.406 85.1562L302.438 84.9375C302.5 84.5 302.531 84.0208 302.531 83.5V82.875L302.031 64.4062C302.01 64.0729 301.958 63.7188 301.875 63.3438C301.792 62.9479 301.677 62.625 301.531 62.375C301.385 62.0833 301.312 61.875 301.312 61.75C301.312 61.5833 301.427 61.5 301.656 61.5C302.073 61.5 302.844 61.7604 303.969 62.2812L317.75 61.5625H317.969C318.281 61.5625 318.615 61.6875 318.969 61.9375C319.323 62.1667 319.5 62.4375 319.5 62.75C319.5 62.8542 319.479 62.9688 319.438 63.0938C319.396 63.2188 319.365 63.3229 319.344 63.4062L318.469 82C319.052 82.7292 319.344 83.2292 319.344 83.5C319.344 83.6458 319.271 83.7396 319.125 83.7812C318.979 83.8229 318.719 83.8542 318.344 83.875L304.656 84.3438L304.688 85.625ZM304.281 72.0938L316.875 71.4688L317.188 63.4688L304.062 64.1562L304.281 72.0938ZM304.594 82.4688L316.469 82.0938L316.812 73.375L304.344 73.9375L304.594 82.4688Z" fill="#333333"/>
</svg>
