<svg xmlns="http://www.w3.org/2000/svg" width="350" height="88" fill="none"><path fill="#333" d="M132.426 16.566c-.774-.28-1.137-.585-1.09-.914.141-.984.211-2.109.211-3.375a15.414 15.414 0 0 0-.106-2.004c-.023-.234-.023-.363 0-.386a.478.478 0 0 1 .352-.14c.211 0 .469.093.773.28.329.188.493.375.493.563 0 .117-.012.234-.036.351a1.33 1.33 0 0 0-.035.317l-.211 3.48c0 .188.071.305.211.352h.176c.188 0 .316-.012.387-.035l4.535-.633v-.914a39.21 39.21 0 0 0-.07-2.672c-.024-.54-.082-.973-.176-1.3-.07-.376.023-.563.281-.563.188 0 .434.07.738.21.375.188.598.352.668.493.071.117.094.304.071.562-.047.422-.071 1.055-.071 1.899l.035 2.672c0 .562-.105 1.007-.316 1.336-.117.14-.234.21-.351.21-.118 0-.282-.105-.493-.316a2.01 2.01 0 0 1-.175-.21.475.475 0 0 0-.211-.177.92.92 0 0 0-.282-.035c-.539.047-1.839.223-3.902.527-.352.047-.633.141-.844.282-.234.117-.386.176-.457.176l-.105-.036Zm4.465 7.559c-.235.305-.481.457-.739.457-.07 0-.105-.059-.105-.176 0-.164.047-.351.141-.562l.703-1.407c.023-.093.058-.187.105-.28.047-.095.082-.177.106-.247v-.035c0-.047-.036-.094-.106-.14a.295.295 0 0 0-.246-.036c-.375.024-.938.082-1.688.176-.726.094-1.265.188-1.617.281l-.527.176a1.38 1.38 0 0 1-.457.105c-.422 0-.773-.128-1.055-.386a2.168 2.168 0 0 1-.527-.492l-.07-.176c0-.117.199-.152.597-.106.539.047 1.653-.023 3.34-.21l.703-.106c.188-.023.481-.059.879-.105.422-.07.75-.141.984-.212l.211-.07a.568.568 0 0 1 .247-.07c.117 0 .257.058.421.176.188.117.34.222.457.316.164.117.27.223.317.317.07.07.094.164.07.28 0 .118-.058.223-.176.317a3.36 3.36 0 0 0-.246.211c-.047.07-.211.246-.492.527-.117.188-.328.446-.633.774-.281.328-.48.562-.597.703Zm-1.758 6.926c0-.07.117-.246.351-.528.258-.304.457-.539.598-.703.352-.468.773-1.148 1.266-2.039.515-.89.808-1.476.879-1.758.046-.14-.024-.21-.211-.21-.375 0-1.407.105-3.094.316-1.102.14-1.922.281-2.461.422a.677.677 0 0 1-.352.105c-.187 0-.386-.129-.597-.386a.93.93 0 0 1-.141-.457c0-.094.059-.188.176-.282l.105-.14c.071-.141.153-.328.246-.563.094-.234.176-.457.247-.668.117-.375.199-.785.246-1.23.023-.258.164-.328.421-.211.329.164.575.328.739.492.187.14.246.246.176.316a3.5 3.5 0 0 0-.563.95 9.844 9.844 0 0 0-.211.738c0 .094.059.14.176.14.351 0 .879-.058 1.582-.175l1.477-.176c.585-.07 1.054-.14 1.406-.211l.879-.176a.913.913 0 0 1 .281-.035c.117 0 .234.047.351.14.118.071.247.165.387.282.235.21.387.387.457.527a.8.8 0 0 1 .106.422c0 .094-.071.211-.211.352-.117.14-.258.363-.422.668-.68 1.383-1.559 2.543-2.637 3.48a4.86 4.86 0 0 1-1.019.598 4.183 4.183 0 0 1-.457.105c-.118 0-.176-.035-.176-.105Zm11.25-16.242c.281 0 .422.129.422.386 0 .14-.129.34-.387.598-.703.867-2.098 2.52-4.184 4.957-.164.21-.316.316-.457.316-.117 0-.375-.175-.773-.527-.328-.281-.492-.516-.492-.703 0-.211.176-.41.527-.598.539-.304 1.348-.914 2.426-1.828 1.078-.96 1.875-1.723 2.39-2.285.211-.21.387-.316.528-.316Zm-41.871-4.922c-.258.023-.586.035-.985.035h-.351c-.328-.047-.563-.106-.703-.176-.235-.164-.481-.434-.739-.809-.257-.398-.386-.726-.386-.984 0-.164.07-.246.211-.246.093 0 .175.012.246.035.422.117.937.176 1.547.176h.457l13.711-.879a7.287 7.287 0 0 0 1.582-.316.597.597 0 0 1 .246-.035c.304 0 .703.234 1.195.703.516.468.773.82.773 1.054 0 .282-.293.446-.878.492l-15.926.95Zm-9.563 24.785c0-.211.27-.469.809-.774 2.062-1.195 3.785-2.496 5.168-3.902 1.406-1.406 2.566-3.082 3.48-5.027.914-1.969 1.653-4.348 2.215-7.137l-6.152.316a17.13 17.13 0 0 1-1.196.036c-.304 0-.55-.024-.738-.07a1.14 1.14 0 0 1-.527-.317 3.467 3.467 0 0 1-.703-.985c-.164-.351-.246-.585-.246-.703 0-.14.105-.21.316-.21h.21c.446.14.985.21 1.618.21h.352l22.183-1.125a6.824 6.824 0 0 0 1.617-.316c.141-.047.235-.07.282-.07.281 0 .691.234 1.23.703s.809.855.809 1.16c0 .258-.281.41-.844.457l-9.633.492-.211 12.13v.105c0 .585.141 1.02.422 1.3.281.258.68.422 1.195.492.54.07 1.313.106 2.321.106 1.406 0 2.648-.117 3.726-.352.399-.07.727-.293.985-.668.258-.375.504-1.03.738-1.968.234-.938.48-2.32.738-4.149.071-.468.164-.832.282-1.09.14-.28.281-.421.421-.421.258 0 .411.28.457.843.071.563.106 1.325.106 2.285 0 1.477-.07 2.989-.211 4.536-.07.773-.281 1.382-.633 1.828-.328.468-.996.832-2.004 1.09-.984.28-2.449.421-4.394.421-1.36 0-2.473-.07-3.34-.21-.867-.118-1.606-.458-2.215-1.02-.609-.54-.914-1.406-.914-2.602v-.105l.211-12.445-3.727.21c-.937 4.782-2.437 8.508-4.5 11.18-2.039 2.649-4.91 4.582-8.613 5.801-.281.094-.539.14-.773.14-.211 0-.317-.058-.317-.175Zm94.465-20.742c-.141 0-.328-.153-.562-.457-.235-.329-.34-.61-.317-.844.047-.188.082-.715.106-1.582.023-.586.035-1.617.035-3.094 0-1.031-.012-1.723-.035-2.074l-1.161.105c-.82.118-1.523.176-2.109.176-.164 0-.398-.129-.703-.387-.305-.257-.457-.445-.457-.562 0-.188.199-.258.598-.211.257.023 1.019.012 2.285-.035a114.49 114.49 0 0 1 3.761-.211c.399-.024.762-.059 1.09-.106.352-.07.598-.117.739-.14.211-.024.398 0 .562.07.164.07.316.164.457.281.164.094.293.164.387.211.211.14.316.27.316.387 0 .094-.058.188-.176.281a.512.512 0 0 1-.316.106c-.117 0-.281-.012-.492-.035a5.154 5.154 0 0 0-.633-.036c-.867 0-1.758.024-2.672.07-.023.188-.035.657-.035 1.407-.047 1.266-.07 2.508-.07 3.727v1.687c0 .399-.035.656-.106.774-.211.328-.375.492-.492.492Zm-3.762 6.222c-.257 0-.574-.199-.949-.597-.281-.282-.422-.492-.422-.633 0-.07.047-.106.141-.106a1.48 1.48 0 0 1 .351-.035l.774-.035c.445 0 .738-.012.879-.035.445 0 .82-.012 1.125-.035 2.015-.188 3.375-.34 4.078-.457a29.8 29.8 0 0 0 .949-.14c.281-.071.504-.106.668-.106.328 0 .656.164.984.492.258.258.387.469.387.633 0 .14-.082.234-.246.28-.117.024-.809.071-2.074.142-.703.023-1.57.082-2.602.175a92.491 92.491 0 0 0-2.707.282c-.14.023-.34.058-.597.105-.258.047-.504.07-.739.07Zm7.559 12.13c.047.093.129.234.246.421.117.188.176.41.176.668a.67.67 0 0 1-.281.563.938.938 0 0 1-.633.246c-.211 0-.387-.211-.528-.633-.07-.164-.129-.305-.175-.422a3.344 3.344 0 0 0-.071-.246 8.055 8.055 0 0 1-1.195.246c-.492.07-.844.129-1.055.176-1.125.21-1.898.363-2.32.457-.164.047-.34.094-.527.14-.188.07-.293.118-.317.141-.14.047-.246.07-.316.07-.188 0-.363-.082-.527-.246a1.91 1.91 0 0 1-.633-.843c-.024-.024-.035-.06-.035-.106 0-.047.058-.105.175-.176a2.68 2.68 0 0 1 .317-.14c.304-.164.843-.657 1.617-1.477l.949-.914-2.074-1.125c-.234-.07-.387-.152-.457-.246s-.106-.234-.106-.422c0-.14.024-.234.071-.281.07-.07.211-.176.422-.317.211-.14.421-.328.632-.562a4.3 4.3 0 0 1 .457-.457c.188-.164.364-.34.528-.527.703-.82 1.148-1.465 1.336-1.934.117-.234.211-.352.281-.352.047 0 .141.047.281.141.446.328.715.633.809.914v.105c0 .118-.059.212-.176.282-.117.07-.199.129-.246.176-.07.046-.422.386-1.055 1.02l-.633.632-.597.598c-.281.257-.422.41-.422.457 0 .07.035.128.105.175a.814.814 0 0 1 .211.141l1.477.703c.914-.914 1.441-1.453 1.582-1.617.609-.703.949-1.148 1.019-1.336a.788.788 0 0 0 .106-.176c.047-.094.094-.14.141-.14.07 0 .14.035.21.105.375.352.645.68.809.984.047.094.07.153.07.176 0 .047-.058.117-.175.211l-.282.211c-.82.68-1.781 1.57-2.882 2.672l-2.145 2.004c-.047.047-.07.094-.07.14 0 .047.023.083.07.106.047.023.117.023.211 0l4.113-.703a15.968 15.968 0 0 0-.422-1.406v-.07c0-.071.035-.106.106-.106.094 0 .234.07.422.21.375.329.843.891 1.406 1.688Zm-33.82-12.622-.036 2.074c.141-.023.329-.023.563 0a.715.715 0 0 1 .316 0h.317c2.414.211 5.332.563 8.754 1.055.375.047.656.164.843.352.188.187.282.375.282.562-.071.774-.469 1.125-1.196 1.055-.234-.047-.679-.082-1.336-.106-.046 0-.55-.082-1.511-.246-2.907-.468-4.969-.75-6.188-.843-.445-.047-.75-.106-.914-.176-.07 1.453-.211 2.73-.422 3.832h.106c1.547 0 3.422-.082 5.625-.246l1.125-.106c3.14-.234 5.484-.445 7.031-.633l-.07-7.172-13.289.598Zm-7.77-5.941c0-.117.035-.246.106-.387 1.031-1.969 1.816-4.125 2.355-6.469.047-.258.117-.445.211-.562.094-.117.234-.176.422-.176.281 0 .597.094.949.281.352.164.527.364.527.598 0 .047-.023.187-.07.422l-.176.773 9.633-.527a13.945 13.945 0 0 0-1.652-1.723 73.557 73.557 0 0 1-1.09-1.02 1.585 1.585 0 0 1-.281-.28.376.376 0 0 1-.035-.352c.046-.234.21-.469.492-.703.304-.235.539-.328.703-.281.164.023.539.269 1.125.738s1.371 1.195 2.355 2.18c.352.28.493.574.422.878-.023.094-.117.258-.281.493l10.863-.598.352-.035c.328 0 .609.082.844.246.257.164.457.351.597.562.141.211.211.364.211.457 0 .188-.105.375-.316.563a1.943 1.943 0 0 0-.387.422c-1.125 1.476-2.039 2.566-2.742 3.27-.703.702-1.196 1.054-1.477 1.054-.164 0-.246-.094-.246-.281 0-.258.129-.598.387-1.02.703-1.172 1.266-2.262 1.687-3.27l-21.691 1.055a36.518 36.518 0 0 1-1.617 4.254c-.141.375-.363.563-.668.563a3.53 3.53 0 0 1-1.09-.422c-.281-.211-.422-.445-.422-.703Zm1.652 21.48c0-.258.106-.55.317-.879.914-1.265 1.629-2.472 2.144-3.62.516-1.15.903-2.485 1.161-4.009.257-1.546.386-3.445.386-5.695 0-.96-.023-1.64-.07-2.039-.023-.398-.094-.727-.211-.984-.141-.188-.211-.364-.211-.528 0-.047.023-.093.07-.14.047-.047.118-.07.211-.07.586 0 1.289.187 2.11.562l5.308-.246.071-5.098c0-.445-.164-.937-.493-1.476-.093-.165-.14-.293-.14-.387 0-.188.129-.281.386-.281.258 0 .692.093 1.301.28.492.141.809.282.949.423.141.14.211.34.211.597l-.211 5.836 6.504-.316.457-.035c.399 0 .739.164 1.02.492.281.305.422.55.422.738 0 .094-.024.211-.07.352a.863.863 0 0 0-.071.316l.106 13.852.035.914c0 .469-.176.867-.527 1.195-.305.281-.586.422-.844.422-.282 0-.938-.293-1.969-.879a26.898 26.898 0 0 1-2.848-1.828c-.89-.656-1.336-1.102-1.336-1.336 0-.14.106-.21.317-.21.258 0 .586.081.984.245 1.406.563 2.754.985 4.043 1.266l-.035-5.274c-1.406.493-3.539.985-6.398 1.477-2.86.492-4.793.738-5.801.738-.961 0-1.606-.422-1.934-1.265a12.911 12.911 0 0 1-1.476 3.55c-.657 1.078-1.325 1.934-2.004 2.567-.657.633-1.196.972-1.617 1.02-.165 0-.247-.083-.247-.247ZM157 12.594c0-.211.105-.446.316-.703.211-.258.422-.387.633-.387.188 0 .68.305 1.477.914a21.65 21.65 0 0 1 2.215 1.863c.703.656 1.054 1.09 1.054 1.301 0 .211-.14.457-.422.738-.281.305-.539.457-.773.457-.234 0-.492-.152-.773-.457a38.4 38.4 0 0 0-3.516-3.304c-.141-.141-.211-.282-.211-.422Zm10.758 4.148c0-.187.152-.433.457-.738a19.714 19.714 0 0 0 2.355-2.813c.68-.96 1.043-1.675 1.09-2.144a.594.594 0 0 0 .035-.246c0-.305.094-.457.282-.457.304 0 .703.234 1.195.703.516.445.773.82.773 1.125 0 .305-.621.984-1.863 2.039-1.219 1.031-2.309 1.828-3.27 2.39l-.175.106c-.235.14-.457.211-.668.211-.141 0-.211-.059-.211-.176Zm78.363-2.355c-.164 0-.34-.106-.527-.317a2.15 2.15 0 0 1-.282-.386c-.046-.118-.046-.27 0-.457l.036-.844c.023-.164.035-.563.035-1.195v-1.16l-1.055.492-1.23.527a10.87 10.87 0 0 0-.95.422c-.281.14-.527.21-.738.21a2.17 2.17 0 0 1-.562-.175 4.837 4.837 0 0 1-.493-.246c-.257-.164-.375-.34-.351-.527l.105-.352c0-.188.012-.352.036-.492l.035-2.04V5.95c0-.375-.024-.691-.071-.949-.047-.281-.082-.48-.105-.598 0-.117.035-.199.105-.246.024-.023.082-.035.176-.035.164 0 .481.106.949.316.399.188.563.422.493.704-.047.164-.094.41-.141.738l-.106 4.043c0 .117.012.21.036.281.046.047.093.07.14.07.282 0 .621-.082 1.02-.246.75-.234 1.394-.468 1.933-.703l.774-.316v-2.32c0-.938-.059-1.84-.176-2.708a.792.792 0 0 1-.035-.246c0-.234.094-.351.281-.351.024 0 .152.047.387.14.351.188.609.352.773.493.164.14.258.222.282.246.093.07.14.14.14.21a.34.34 0 0 1-.07.176c-.024.07-.047.13-.07.176l-.106 1.055-.035 3.234.035 3.13c0 .538-.035 1.007-.105 1.405-.118.493-.305.739-.563.739Zm-6.469 5.765c-.257 0-.574-.199-.949-.597-.281-.282-.422-.492-.422-.633 0-.07.047-.106.141-.106a1.48 1.48 0 0 1 .351-.035l.774-.035c.445 0 .738-.012.879-.035.445 0 .82-.012 1.125-.035 2.015-.188 3.375-.34 4.078-.457a29.8 29.8 0 0 0 .949-.14c.281-.071.504-.106.668-.106.328 0 .656.164.984.492.258.258.387.469.387.633 0 .14-.082.234-.246.28-.117.024-.809.071-2.074.142-.703.023-1.57.082-2.602.175a92.491 92.491 0 0 0-2.707.282c-.14.023-.34.058-.597.105-.258.047-.504.07-.739.07Zm4.711 14.52c-.726 0-1.289-.024-1.687-.07a1.68 1.68 0 0 1-.949-.422c-.446-.328-.75-1.043-.915-2.145l-.105-1.125c0-.281-.023-.633-.07-1.055a5.987 5.987 0 0 0-.809.141 3.817 3.817 0 0 1-.246.106.965.965 0 0 1-.211.035.81.81 0 0 1-.457-.14c-.141-.095-.316-.27-.527-.528-.164-.211-.246-.352-.246-.422s.082-.117.246-.14c.164-.024.386-.036.668-.036.398 0 .914-.047 1.547-.14l-.036-.493c0-.937-.058-1.734-.175-2.39l-.036-.246c0-.329.129-.457.387-.387.281.094.539.21.774.351.187.094.316.188.386.282.071.07.094.175.071.316l-.106 1.512v.914l3.094-.317c0-.164.012-.55.035-1.16.024-.633.024-1.043 0-1.23 0-.188-.023-.363-.07-.527a6.529 6.529 0 0 0-.071-.458c0-.187.094-.28.282-.28.187 0 .422.105.703.316.328.21.539.398.633.562.117.164.14.363.07.598a6.4 6.4 0 0 0-.246 1.265c-.047.47-.07.75-.07.844.281-.023.539-.058.773-.105.234-.047.387-.07.457-.07.188-.047.41-.071.668-.071.141.023.34.164.598.422.211.281.316.504.316.668 0 .234-.223.328-.668.281a6.863 6.863 0 0 0-1.195-.105c-.399 0-.738.011-1.02.035-.07.844-.211 1.676-.422 2.496a.953.953 0 0 1-.246.457c-.117.14-.222.21-.316.21-.164 0-.27-.07-.317-.21a3.524 3.524 0 0 1-.035-.598c.047-.61.071-1.37.071-2.285a26.99 26.99 0 0 0-1.477.14 9.357 9.357 0 0 1-1.512.212c-.023.96.024 1.816.141 2.566.07.492.211.832.422 1.02.14.117.305.187.492.21.211.024.422.036.633.036h.422c.726 0 1.406-.035 2.039-.106a1.52 1.52 0 0 0 .492-.14c.164-.07.281-.106.352-.106.21 0 .421.07.632.211.211.14.317.305.317.492 0 .188-.106.328-.317.422-.187.094-.492.176-.914.246-.75.094-1.5.14-2.25.14Zm10.02-15.996c.281 0 .422.129.422.387 0 .14-.129.34-.387.597-.703.867-2.098 2.52-4.184 4.957-.164.211-.316.317-.457.317-.117 0-.375-.176-.773-.528-.328-.281-.492-.515-.492-.703 0-.21.176-.41.527-.598.539-.304 1.348-.914 2.426-1.828 1.078-.96 1.875-1.722 2.39-2.285.211-.21.387-.316.528-.316Zm-44.684 11.496c2.086-.656 3.949-1.371 5.59-2.145a25.586 25.586 0 0 0-1.336-1.687c-.187-.235-.281-.422-.281-.563 0-.258.152-.48.457-.668.305-.21.539-.316.703-.316.188 0 .387.117.598.352a137.853 137.853 0 0 1 3.41 4.148c.937 1.195 1.406 1.922 1.406 2.18 0 .21-.164.457-.492.738-.305.305-.598.457-.879.457-.234 0-.469-.188-.703-.563a96.435 96.435 0 0 0-1.828-2.671l-4.219 2.109c-.469.21-1.207.586-2.215 1.125-.844.445-1.359.668-1.547.668-.14 0-.316-.094-.527-.281a1.65 1.65 0 0 1-.492-.633c-.094-.234-.094-.422 0-.563.14-.257.211-1.289.211-3.093V16.602c0-.563-.024-1.02-.071-1.372a3.587 3.587 0 0 0-.281-1.125 1.37 1.37 0 0 0-.07-.175.305.305 0 0 1-.035-.14c0-.118.082-.177.246-.177.304 0 1.066.258 2.285.774l7.629-.528c.187-.023.398-.035.633-.035.257 0 .562.117.914.352.351.21.527.445.527.703 0 .094-.059.234-.176.422-.094.187-.14.328-.14.422l-.914 6.609c.562.656.843 1.102.843 1.336 0 .117-.07.2-.211.246-.117.047-.304.07-.562.07l-8.508.317.035 5.87Zm-5.765-15.785c0-.235.152-.516.457-.844 1.711-1.898 3.199-3.785 4.464-5.66 1.266-1.875 1.899-3.13 1.899-3.762l-.035-.246V3.77c0-.329.129-.493.386-.493.305 0 .727.211 1.266.633.563.399.844.727.844.985 0 .117-.059.27-.176.457a23.895 23.895 0 0 1-1.16 1.687l4.992-.387a4.872 4.872 0 0 0 1.336-.28c.141-.048.246-.071.316-.071.352 0 .727.199 1.125.597.422.375.633.668.633.88 0 .28-.258.445-.773.492l-6.012.421c.164.047.527.293 1.09.739.586.445 1.113.902 1.582 1.37.469.47.703.798.703.985 0 .211-.141.469-.422.774-.281.28-.527.421-.738.421-.188 0-.41-.152-.668-.457a21.796 21.796 0 0 0-2.426-2.285c-.281-.234-.422-.433-.422-.597 0-.118.059-.27.176-.457.117-.188.27-.34.457-.457l-2.355.175a34.406 34.406 0 0 1-3.727 3.903c-1.359 1.195-2.226 1.793-2.601 1.793-.141 0-.211-.07-.211-.211Zm12.656 3.656.246-2.461-7.242.492v2.32l6.996-.351Zm-.457 4.36.281-2.708-6.785.317v2.636l6.504-.246Zm1.898-9.528c0-.234.153-.516.457-.844 1.149-1.383 2.192-2.941 3.129-4.676.961-1.757 1.442-2.988 1.442-3.69v-.142c0-.351.129-.527.386-.527.164 0 .41.094.739.281.351.164.668.364.949.598.281.234.422.469.422.703 0 .211-.164.586-.493 1.125-.328.54-.503.82-.527.844l6.926-.563a6.483 6.483 0 0 0 1.336-.246c.047-.023.141-.035.281-.035.328 0 .68.188 1.055.563.398.351.597.644.597.879 0 .14-.07.257-.21.351-.118.07-.282.117-.493.14l-7.136.493c.656.422 1.429 1.043 2.32 1.863.891.797 1.336 1.336 1.336 1.617 0 .164-.129.422-.387.774-.258.328-.504.492-.738.492-.188 0-.387-.117-.598-.352-1.148-1.242-2.191-2.226-3.129-2.953-.234-.187-.351-.363-.351-.527 0-.188.176-.469.527-.844l-2.601.176c-.774 1.031-1.711 2.074-2.813 3.129-1.078 1.055-1.805 1.582-2.18 1.582-.164 0-.246-.07-.246-.211Zm3.305.773c0-.14.082-.21.246-.21.352 0 1.148.292 2.391.878l7.066-.597.281-.035c.094 0 .27.046.528.14.281.07.539.2.773.387.258.164.387.387.387.668 0 .094-.035.223-.106.387-.07.164-.105.28-.105.351a88.243 88.243 0 0 1-.492 8.262l-.071.879c-.07.984-.164 1.805-.281 2.46-.117.657-.316 1.173-.598 1.548-.445.609-.925.914-1.441.914s-1.172-.317-1.969-.95a18.576 18.576 0 0 1-2.215-2.074c-.656-.75-.984-1.23-.984-1.441 0-.164.094-.246.281-.246.211 0 .504.117.879.351.867.54 1.594.973 2.18 1.301.586.328 1.008.492 1.266.492.117 0 .199-.082.246-.246.539-3 .867-6.762.984-11.285l-6.609.492c0 3.961.035 10.242.105 18.844 0 .21-.058.363-.176.457a.466.466 0 0 1-.386.176c-.188 0-.411-.07-.668-.211-.446-.188-.762-.363-.95-.528-.187-.164-.281-.351-.281-.562l.035-.246c.141-.773.211-1.64.211-2.602l-.105-14.836c0-.609-.024-1.078-.07-1.406a3.306 3.306 0 0 0-.211-.95c-.094-.28-.141-.468-.141-.562ZM139.094 71.188c-1 0-1.667-.063-2-.188-.396-.188-.656-.615-.782-1.281a8.017 8.017 0 0 1-.093-1.344l-.125-2.031v-.781c-.021-.021-.032-.073-.032-.157l-.031-.344c-.021-.166-.114-.364-.281-.593a.73.73 0 0 1-.094-.281c0-.146.177-.188.532-.126.374.063.802.094 1.281.094.333 0 .958-.02 1.875-.062.312-.021 1.041-.115 2.187-.281l1-.22.25-.062c.188 0 .417.115.688.344.229.188.343.365.343.531 0 .209-.156.334-.468.375-.813.063-1.438.094-1.875.094l-1.125.063a6.665 6.665 0 0 1-.688.062c-1.375.063-2.156.094-2.344.094 0 1.458.011 2.364.032 2.719.041.583.073 1.041.094 1.374.041.334.093.553.156.657a.392.392 0 0 0 .218.187c.126.021.24.042.344.063h.282c.02 0 .072.01.156.031h.594c.208 0 .562-.02 1.062-.063a13.55 13.55 0 0 0 1.875-.25c.146-.02.479-.03 1-.03.25 0 .49.114.719.343.104.104.156.25.156.438 0 .145-.042.25-.125.312-.125.063-.323.115-.594.156a59.35 59.35 0 0 1-4.187.156Zm4.468 10.656c.292.187.438.364.438.531 0 .23-.177.375-.531.438-.354.062-.854.104-1.5.124-.938.021-1.542-.01-1.813-.093-.458-.209-.687-.552-.687-1.031l.031-1.157c.042-.375.062-.708.062-1 .021-.187.032-.552.032-1.094a10.534 10.534 0 0 1-1.219 2.063c-.354.438-.667.802-.937 1.094-.271.27-.594.531-.969.781s-.719.375-1.031.375c-.188 0-.282-.063-.282-.188 0-.02.198-.177.594-.468.417-.313.833-.74 1.25-1.281.625-.834 1.167-1.813 1.625-2.938-.813.104-1.354.198-1.625.281-.104.021-.198.052-.281.094a.785.785 0 0 1-.313 0 2.646 2.646 0 0 1-.437-.25 2.823 2.823 0 0 1-.438-.406c-.083-.125-.125-.209-.125-.25 0-.104.156-.156.469-.156.771 0 1.76-.084 2.969-.25.125-.48.187-1.25.187-2.313v-.594c0-.25.052-.385.157-.406.02-.02.062-.031.124-.031.167 0 .396.125.688.375.229.187.375.333.438.437.083.084.093.198.031.344l-.125.25c-.063.125-.104.25-.125.375l-.125.625a6.584 6.584 0 0 0-.125.781c.291-.02.656-.062 1.093-.125.438-.062.761-.125.969-.187l.625-.156c.209-.042.552.135 1.032.53.083.063.124.136.124.22 0 .083-.041.156-.124.218a.446.446 0 0 1-.25.063c-.376 0-1.063.062-2.063.187l-1.031.094c.229.167.375.313.437.438a.47.47 0 0 1 .031.374l-.093.5c-.042.417-.084.876-.125 1.376-.021.5-.021.885 0 1.156 0 .104.062.198.187.281a.877.877 0 0 0 .438.125c.521 0 1.104-.052 1.75-.156l.281-.063c.125 0 .229.021.312.063Zm2-10.625c.105 0 .261.073.469.219-.021.041.021.124.125.25l.219.218c.104.104.208.23.313.375.124.146.26.302.406.469.375.396 1.239 1.427 2.594 3.094.229.333.343.531.343.594 0 .208-.125.312-.375.312-.146 0-.302-.104-.468-.313-.396-.416-1.105-1.072-2.126-1.968-.791-.73-1.51-1.292-2.156-1.688-.312-.146-.468-.312-.468-.5 0-.146.156-.354.468-.625.292-.291.511-.437.656-.437Zm-16.187-3.313c-.479 1.75-1 3.344-1.563 4.781a27.974 27.974 0 0 1-1.968 4.157c2 2.833 4.583 5.427 7.75 7.781.208.146.312.292.312.438 0 .166-.218.406-.656.718-.438.313-.792.469-1.062.469-.23 0-.803-.438-1.719-1.313a64.34 64.34 0 0 1-3.031-3.124c-1.084-1.23-1.98-2.323-2.688-3.282-1.229 1.771-2.479 3.23-3.75 4.375-1.271 1.146-2.375 1.98-3.312 2.5-.917.521-1.5.781-1.75.781-.167 0-.25-.062-.25-.187 0-.188.197-.448.593-.781a31.763 31.763 0 0 0 4-3.813c1.188-1.333 2.292-2.864 3.313-4.594a35.799 35.799 0 0 1-3.344-6.687 31.341 31.341 0 0 1-1.906 2.719c-.729.937-1.261 1.406-1.594 1.406-.146 0-.219-.094-.219-.281 0-.25.115-.542.344-.875.958-1.521 1.854-3.219 2.687-5.094.834-1.896 1.49-3.615 1.969-5.156.5-1.563.75-2.615.75-3.157l-.031-.53v-.063c0-.167.104-.25.312-.25.355 0 .782.218 1.282.656.5.417.75.75.75 1 0 .23-.261 1.01-.782 2.344a53.083 53.083 0 0 1-1.656 3.812l7.282-.437c.395-.021.843-.125 1.343-.313.167-.041.281-.062.344-.062.208 0 .448.104.719.312.271.188.5.406.687.656.209.23.313.407.313.532 0 .229-.229.364-.688.406l-2.781.156Zm-25.313 16.406c0-.187.094-.468.282-.843 2.604-4.667 4.302-10.01 5.094-16.031l-2.532.187c-.166.02-.396.031-.687.031a1.41 1.41 0 0 1-.938-.344 3.15 3.15 0 0 1-.656-.75c-.146-.291-.219-.51-.219-.656 0-.125.073-.187.219-.187l.281.062c.542.125.959.188 1.25.188h.188l9.375-.656c.396-.021.802-.105 1.219-.25.208-.042.343-.063.406-.063.271 0 .604.188 1 .563.416.354.625.645.625.874 0 .23-.24.365-.719.407l-6.875.469c-.25 1.541-.458 2.697-.625 3.468l3.719-.344.343-.03c.292 0 .542.083.75.25.23.166.396.353.5.562.105.187.157.323.157.406 0 .125-.042.26-.125.406-.084.146-.125.25-.125.313-.375 3.5-.729 6.166-1.063 8-.333 1.812-.635 3.02-.906 3.625-.271.583-.562.99-.875 1.219-.396.229-.687.343-.875.343-.417 0-.958-.302-1.625-.906a12.185 12.185 0 0 1-1.75-1.969c-.521-.729-.781-1.229-.781-1.5 0-.146.062-.219.187-.219s.386.146.781.438c.73.583 1.636 1.188 2.719 1.813.021.02.063.03.125.03.167 0 .261-.072.282-.218.5-1.542.874-3.146 1.124-4.813.271-1.687.511-3.677.719-5.968l-3.656.25c-.583 2.416-1.292 4.52-2.125 6.312-.812 1.771-1.885 3.521-3.219 5.25-.291.375-.541.563-.75.563-.146 0-.219-.094-.219-.281Zm4.407-23.093c0-.188.083-.396.25-.625.187-.25.354-.396.5-.438a.432.432 0 0 1 .187-.031c.146 0 .313.063.5.188l.625.374c2.521 1.542 3.823 2.5 3.907 2.876.062.27-.053.572-.344.906-.271.312-.49.49-.656.531l-.126.031c-.124 0-.312-.104-.562-.312-1.792-1.417-3.083-2.396-3.875-2.938a1.456 1.456 0 0 1-.313-.281.46.46 0 0 1-.093-.281Zm13 7.125c.854 2.437 1.896 4.656 3.125 6.656a32.163 32.163 0 0 0 2.5-6.969l-5.625.313Zm69.562-.875c-.312 0-.541-.167-.687-.5l-.282-.625a46.38 46.38 0 0 1-1.968.469l-2.032.5c-.416.104-.677.156-.781.156a.692.692 0 0 1-.312-.063l-.157-.156a1.675 1.675 0 0 1-.093-.156c-.167-.292-.24-.49-.219-.594l.219-.344c.541-.75 1.041-1.823 1.5-3.219l-.625.094-.813.094c-.062.02-.198.063-.406.125-.187.042-.333.031-.437-.031-.23-.146-.532-.407-.907-.782-.083-.083-.125-.145-.125-.187 0-.125.229-.188.688-.188h1.062a40.719 40.719 0 0 0 1.938-.156c.125-.312.26-.708.406-1.187.146-.48.25-.865.312-1.157v-.374c.021-.188.063-.303.126-.344h.031c.083 0 .198.041.343.125.146.083.282.187.407.312.396.396.51.709.343.938-.083.02-.26.364-.531 1.031-.021.042-.093.23-.219.563l1.813-.22a7.517 7.517 0 0 0 1.094-.156c.354-.104.635-.156.843-.156.167 0 .303.063.407.188l.219.218c.062.063.135.188.218.376.084.145.115.25.094.312-.083.125-.229.188-.438.188-.687-.042-1.51-.021-2.468.062a10.58 10.58 0 0 0-.938.125l-1.218.125-.282.844-.344.75c-.104.25-.218.5-.343.75-.125.25-.219.458-.281.625a.43.43 0 0 0-.032.187c0 .104.063.156.188.156.166 0 .739-.093 1.718-.28l1.157-.188.531-.125c-.188-.521-.333-.854-.438-1a3.04 3.04 0 0 1-.187-.281l.187-.188c.813.52 1.469 1.052 1.969 1.594.146.187.24.364.281.531.063.167.084.354.063.563a.874.874 0 0 1-.219.437c-.041.104-.166.177-.375.219Zm-6.562 6c-.229 0-.511-.177-.844-.531-.25-.25-.375-.438-.375-.563 0-.063.042-.094.125-.094.083-.02.187-.031.313-.031l.687-.031c.396 0 .656-.01.781-.031.396 0 .729-.01 1-.032 1.792-.166 3-.302 3.625-.406.313-.042.594-.083.844-.125.25-.063.448-.094.594-.094.291 0 .583.146.875.438.229.229.344.416.344.562 0 .125-.073.209-.219.25-.104.021-.719.063-1.844.125-.625.021-1.396.073-2.313.156-.916.084-1.718.167-2.406.25-.125.021-.302.053-.531.094a3.668 3.668 0 0 1-.656.063Zm4.656 6.969c-.208.27-.427.406-.656.406-.063 0-.094-.052-.094-.156 0-.146.042-.313.125-.5l.625-1.25c.021-.084.052-.167.094-.25.041-.084.073-.157.093-.22v-.03c0-.042-.031-.084-.093-.126a.264.264 0 0 0-.219-.03c-.333.02-.833.072-1.5.156-.646.083-1.125.166-1.438.25l-.468.156a1.227 1.227 0 0 1-.406.094c-.376 0-.688-.115-.938-.344a1.931 1.931 0 0 1-.469-.438l-.062-.156c0-.104.177-.135.531-.094.479.042 1.469-.02 2.969-.187l.625-.094.781-.094c.375-.062.667-.125.875-.187l.188-.063a.502.502 0 0 1 .218-.062c.104 0 .229.052.375.156.167.104.302.198.407.281.145.104.239.198.281.281.062.063.083.146.062.25 0 .105-.052.198-.156.282a3.092 3.092 0 0 0-.219.187c-.041.063-.187.219-.437.469-.104.167-.292.396-.563.688-.25.291-.427.5-.531.624Zm-1.563 6.156c0-.063.105-.23.313-.5.229-.25.406-.448.531-.594.313-.417.688-1.02 1.125-1.813.459-.791.719-1.312.781-1.562.042-.125-.02-.188-.187-.188-.333 0-1.25.094-2.75.282-.979.125-1.708.25-2.187.375a.608.608 0 0 1-.313.094c-.167 0-.344-.115-.531-.344a.821.821 0 0 1-.125-.406c0-.084.052-.167.156-.25l.094-.126c.062-.124.135-.291.219-.5.083-.208.156-.406.218-.593.104-.334.177-.698.219-1.094.021-.23.146-.292.375-.188.292.146.51.292.656.438.167.125.219.219.156.281a3.15 3.15 0 0 0-.5.844 8.477 8.477 0 0 0-.187.656c0 .084.052.125.156.125.313 0 .781-.052 1.407-.156l1.312-.156c.521-.063.938-.125 1.25-.188l.781-.156a.817.817 0 0 1 .25-.031c.104 0 .209.041.313.125.104.062.218.146.344.25.208.187.343.344.406.469a.72.72 0 0 1 .094.374c0 .084-.063.188-.188.313a3.792 3.792 0 0 0-.375.594c-.604 1.229-1.385 2.26-2.344 3.094a4.331 4.331 0 0 1-.906.53 1.486 1.486 0 0 1-.406.063c-.104.021-.157 0-.157-.062Zm-19.593-14.531c1.5 2.708 3.343 5.072 5.531 7.093a29.88 29.88 0 0 0 7.344 4.938c.396.208.594.375.594.5 0 .083-.115.24-.344.469-.209.229-.459.427-.75.593-.292.188-.552.281-.782.281a.656.656 0 0 1-.343-.093c-2.917-1.73-5.396-3.615-7.438-5.656-2.041-2.042-3.802-4.417-5.281-7.126-.312.98-.594 1.74-.844 2.282-.958 2.125-2.333 3.99-4.125 5.594-1.791 1.583-3.531 2.812-5.219 3.687-1.687.896-2.76 1.344-3.218 1.344-.25 0-.375-.084-.375-.25 0-.23.208-.459.625-.688 2.375-1.416 4.656-3.177 6.844-5.281 2.187-2.104 3.645-4.604 4.374-7.5l-7.124.406c-.188.021-.48.031-.876.031-.458 0-.76-.072-.906-.218-.396-.313-.698-.75-.906-1.313a.345.345 0 0 1-.031-.156c0-.125.062-.188.187-.188.063 0 .115.01.156.032.334.104.771.156 1.313.156h.406l8.125-.5c.354-1.98.532-4.26.532-6.844l-6.376.438c-.166.02-.385.031-.656.031-.437 0-.771-.073-1-.219-.25-.166-.479-.458-.687-.875-.188-.416-.281-.666-.281-.75 0-.104.062-.156.187-.156.104 0 .187.01.25.031.417.104.854.157 1.313.157h.281l14.906-1a7.6 7.6 0 0 0 1.5-.282.995.995 0 0 1 .281-.062c.25 0 .594.198 1.032.593.437.396.656.72.656.97s-.25.395-.75.437l-8.438.562c-.062 2.854-.239 5.136-.531 6.844l8.781-.5a3.76 3.76 0 0 0 1.156-.281c.126-.042.209-.063.25-.063.271 0 .626.198 1.063.594.437.396.656.708.656.938 0 .25-.26.395-.781.437l-10.281.563Zm68.375.218c-.334 0-.532-.166-.594-.5-.125-.354-.458-.791-1-1.312l.094-.125c.083.041.323.146.718.312.396.146.667.219.813.219h.281a.609.609 0 0 0 .219-.156c.25-.188.563-.615.937-1.281.271-.542.511-1.178.719-1.907.229-.729.344-1.281.344-1.656 0-.104-.083-.156-.25-.156l-1.187.062-.813.063-.531.031-.219.031c.146.104.24.198.281.281a.336.336 0 0 1 .094.25c0 .105-.125.396-.375.876-.208.458-.542.979-1 1.562-.375.5-.885 1.042-1.531 1.625-.625.563-1.094.854-1.406.875a.59.59 0 0 1-.188-.031.21.21 0 0 1-.062-.156c0-.021.166-.22.5-.594l.874-1.031c.626-.834 1.261-1.896 1.907-3.188.062-.167.031-.26-.094-.281-.125.02-.385.052-.781.094-.396.02-.75.083-1.063.187-.021 0-.093.031-.219.094a1.023 1.023 0 0 1-.312.062.422.422 0 0 1-.312-.125l-.25-.219c-.188-.145-.282-.28-.282-.406 0-.041.021-.104.063-.187l.156-.25c.083-.104.219-.271.406-.5.188-.23.396-.542.625-.938.042-.083.125-.27.25-.562.146-.292.219-.469.219-.532v-.124c0-.126.021-.209.063-.25.041-.042.135-.042.281 0 .146.041.323.156.531.343l.344.344a.302.302 0 0 1 .094.219c0 .208-.292.583-.876 1.125a3.58 3.58 0 0 0-.374.469c-.146.208-.219.343-.219.406 0 .125.093.166.281.125l.719-.094c1.646-.25 2.885-.396 3.719-.438l.843-.124.281-.063.157-.031c.166 0 .281.02.343.062a.667.667 0 0 1 .188.219c.062.083.125.156.188.219.145.166.25.312.312.437l.062.281-.062.126-.062.187a1.769 1.769 0 0 0-.094.313 2.198 2.198 0 0 1-.094.28c-.438 1.688-.948 3-1.531 3.938-.188.334-.511.667-.969 1-.438.334-.823.5-1.156.5ZM232.281 82.5c-.312 0-.552-.083-.719-.25-.187-.188-.281-.354-.281-.5 0-.146.084-.302.25-.469a8.85 8.85 0 0 0 .344-.5A39.98 39.98 0 0 0 233.438 78c.604-1.146.979-1.927 1.124-2.344.126-.396.24-.74.344-1.031.125-.292.229-.438.313-.438a.51.51 0 0 1 .375.157c.104.083.208.208.312.375.125.146.219.25.282.312.145.167.218.323.218.469a.497.497 0 0 1-.125.313 1.606 1.606 0 0 0-.156.218l-1.375 2.313a63.936 63.936 0 0 1-1.406 2.406.497.497 0 0 0-.125.313c0 .083.093.124.281.124.396 0 1.135-.041 2.219-.124 1.083-.105 1.812-.188 2.187-.25.542-.063.917-.126 1.125-.188.229-.063.563.094 1 .469.521.437.636.719.344.844-.167.083-.49.124-.969.124h-1.25c-.271 0-.698.021-1.281.063-.354 0-.75.01-1.187.031-.438.021-.803.042-1.094.063-.334.02-.979.083-1.938.187l-.375.094ZM205.438 61c0-.458-.126-.875-.376-1.25a.791.791 0 0 1-.124-.375c0-.146.104-.219.312-.219.292 0 .656.084 1.094.25.396.146.656.282.781.407.125.124.187.312.187.562l-.124 8c.583-.73 1.01-1.385 1.281-1.969.291-.604.448-1.073.469-1.406 0-.25.083-.375.25-.375.25 0 .562.188.937.563.375.354.563.656.563.906 0 .104-.146.396-.438.875-.292.479-.708 1.052-1.25 1.719a16.022 16.022 0 0 1-1.844 1.968c0 1.5-.146 2.98-.437 4.438a73.767 73.767 0 0 1 3 3.906c.875 1.23 1.312 1.969 1.312 2.219 0 .208-.166.437-.5.687-.333.25-.573.375-.719.375-.166 0-.354-.177-.562-.531-1-1.792-2-3.333-3-4.625-.5 1.73-1.177 3.281-2.031 4.656-.854 1.375-1.688 2.459-2.5 3.25-.792.813-1.323 1.219-1.594 1.219-.125 0-.187-.063-.187-.188 0-.208.156-.52.468-.937 1.604-2.146 2.823-4.396 3.656-6.75.834-2.375 1.261-4.917 1.282-7.625l.094-9.75Zm-4.282 5.438c0-.417.344-.626 1.032-.626.187 0 .322.053.406.157.083.104.156.291.218.562.438 1.771.75 3.667.938 5.688v.25c0 .562-.396.844-1.188.844-.208 0-.354-.063-.437-.188-.083-.125-.135-.323-.156-.594-.167-2.396-.417-4.27-.75-5.625a4.07 4.07 0 0 1-.063-.469Zm7.406 7.906c0-.23.219-.563.657-1a34.587 34.587 0 0 0 4.656-5.938c-.729-.666-1.625-1.364-2.687-2.094-.209-.145-.313-.312-.313-.5 0-.166.063-.354.187-.562.209-.313.407-.469.594-.469.146 0 .427.146.844.438.438.27 1.177.833 2.219 1.687.666-1.25 1.146-2.416 1.437-3.5l-3.312.313c-.5.041-.802.062-.906.062-.376 0-.678-.104-.907-.312a2.249 2.249 0 0 1-.5-.719c-.104-.27-.156-.458-.156-.563 0-.104.073-.156.219-.156l.187.032c.334.041.573.062.719.062l.688-.031 4.812-.375.406-.032c.313 0 .584.084.813.25.25.167.375.386.375.657 0 .125-.156.583-.469 1.375-.313.791-.76 1.74-1.344 2.843a26.458 26.458 0 0 1-2.093 3.313c.416.042.729.063.937.063H216l4.125-.25a3.626 3.626 0 0 0 1.063-.25c.124-.042.208-.063.25-.063.166 0 .427.177.781.531.354.334.531.625.531.875 0 .209-.177.334-.531.375h-.094l-5.719.313-.781.031c-.604 0-1.031-.385-1.281-1.156-1.417 1.833-2.938 3.312-4.563 4.437-.083.042-.135.084-.156.125-.417.23-.708.344-.875.344-.125 0-.188-.052-.188-.156Zm.813 9.437c0-.146.052-.219.156-.219l.188.032c.479.125.979.187 1.5.187l8.187-.219c.5-.645.99-1.385 1.469-2.218.5-.854.771-1.615.813-2.281 0-.334.093-.5.281-.5.25 0 .614.187 1.093.562.48.354.719.656.719.906 0 .23-.323.76-.969 1.594-.624.833-1.145 1.458-1.562 1.875l4.781-.125c.396 0 .771-.063 1.125-.188a.54.54 0 0 1 .219-.03c.292 0 .656.187 1.094.562.437.375.656.656.656.844 0 .312-.281.49-.844.53l-16.25.407-.875.031c-.416 0-.791-.094-1.125-.281-.333-.188-.552-.615-.656-1.281v-.188Zm3.375-11.125c0-.125.125-.187.375-.187.354 0 1.01.146 1.969.437l8.094-.375c.312 0 .583.063.812.188.229.125.396.27.5.437.125.167.188.292.188.375a.745.745 0 0 1-.094.313 1.052 1.052 0 0 0-.125.281l-.5 2.563c.479.541.719.916.719 1.124 0 .188-.24.303-.719.344l-8.281.313v.094c0 .333-.178.5-.532.5-.25 0-.552-.073-.906-.22-.354-.145-.531-.395-.531-.75v-.156c.041-.291.062-.562.062-.812 0-.167-.01-.292-.031-.375l-.312-2.406c-.063-.438-.24-.875-.532-1.313-.104-.146-.156-.27-.156-.375Zm1.906 7.469c0-.146.115-.333.344-.563.25-.25.469-.374.656-.374.271 0 1.094.895 2.469 2.687.104.167.156.313.156.438 0 .25-.156.49-.469.718-.291.23-.541.344-.75.344-.208 0-.406-.177-.593-.531-.438-.75-.99-1.531-1.657-2.344a.512.512 0 0 1-.156-.375Zm.844-3.188 6.594-.312.344-2.469-7.188.313.25 2.469Zm2.812-13.75c0-.166.126-.333.376-.5.25-.166.458-.25.624-.25.126 0 .261.084.407.25.146.146.385.48.719 1 1.145-.937 1.927-1.656 2.343-2.156.417-.52.688-1.01.813-1.468.062-.271.177-.407.344-.407.187 0 .468.177.843.532.375.333.563.635.563.906 0 .229-.365.698-1.094 1.406-.708.688-1.688 1.49-2.938 2.406.584.75 1.042 1.313 1.376 1.688 1.958-1.521 3.02-2.677 3.187-3.469.063-.27.177-.406.344-.406.229 0 .51.187.843.562.313.334.469.625.469.875 0 .271-.427.781-1.281 1.531a25.525 25.525 0 0 1-2.562 2.032c1.666 1.666 3.416 3.083 5.25 4.25.333.208.5.385.5.531 0 .208-.178.448-.532.719-.354.27-.656.406-.906.406a.831.831 0 0 1-.5-.188c-1.792-1.395-3.385-2.822-4.781-4.28-1.375-1.48-2.459-2.772-3.25-3.876-.771-1.125-1.157-1.823-1.157-2.094Z"/></svg>