<svg xmlns="http://www.w3.org/2000/svg" width="350" height="88" fill="none"><path fill="#333" d="M132.426 16.566c-.774-.28-1.137-.585-1.09-.914.141-.984.211-2.109.211-3.375a15.414 15.414 0 0 0-.106-2.004c-.023-.234-.023-.363 0-.386a.478.478 0 0 1 .352-.14c.211 0 .469.093.773.28.329.188.493.375.493.563 0 .117-.012.234-.036.351a1.33 1.33 0 0 0-.035.317l-.211 3.48c0 .188.071.305.211.352h.176c.188 0 .316-.012.387-.035l4.535-.633v-.914a39.21 39.21 0 0 0-.07-2.672c-.024-.54-.082-.973-.176-1.3-.07-.376.023-.563.281-.563.188 0 .434.07.738.21.375.188.598.352.668.493.071.117.094.304.071.562-.047.422-.071 1.055-.071 1.899l.035 2.672c0 .562-.105 1.007-.316 1.336-.117.14-.234.21-.351.21-.118 0-.282-.105-.493-.316a2.01 2.01 0 0 1-.175-.21.475.475 0 0 0-.211-.177.92.92 0 0 0-.282-.035c-.539.047-1.839.223-3.902.527-.352.047-.633.141-.844.282-.234.117-.386.176-.457.176l-.105-.036Zm4.465 7.559c-.235.305-.481.457-.739.457-.07 0-.105-.059-.105-.176 0-.164.047-.351.141-.562l.703-1.407c.023-.093.058-.187.105-.28.047-.095.082-.177.106-.247v-.035c0-.047-.036-.094-.106-.14a.295.295 0 0 0-.246-.036c-.375.024-.938.082-1.688.176-.726.094-1.265.188-1.617.281l-.527.176a1.38 1.38 0 0 1-.457.105c-.422 0-.773-.128-1.055-.386a2.168 2.168 0 0 1-.527-.492l-.07-.176c0-.117.199-.152.597-.106.539.047 1.653-.023 3.34-.21l.703-.106c.188-.023.481-.059.879-.105.422-.07.75-.141.984-.212l.211-.07a.568.568 0 0 1 .247-.07c.117 0 .257.058.421.176.188.117.34.222.457.316.164.117.27.223.317.317.07.07.094.164.07.28 0 .118-.058.223-.176.317a3.36 3.36 0 0 0-.246.211c-.047.07-.211.246-.492.527-.117.188-.328.446-.633.774-.281.328-.48.562-.597.703Zm-1.758 6.926c0-.07.117-.246.351-.528.258-.304.457-.539.598-.703.352-.468.773-1.148 1.266-2.039.515-.89.808-1.476.879-1.758.046-.14-.024-.21-.211-.21-.375 0-1.407.105-3.094.316-1.102.14-1.922.281-2.461.422a.677.677 0 0 1-.352.105c-.187 0-.386-.129-.597-.386a.93.93 0 0 1-.141-.457c0-.094.059-.188.176-.282l.105-.14c.071-.141.153-.328.246-.563.094-.234.176-.457.247-.668.117-.375.199-.785.246-1.23.023-.258.164-.328.421-.211.329.164.575.328.739.492.187.14.246.246.176.316a3.5 3.5 0 0 0-.563.95 9.844 9.844 0 0 0-.211.738c0 .094.059.14.176.14.351 0 .879-.058 1.582-.175l1.477-.176c.585-.07 1.054-.14 1.406-.211l.879-.176a.913.913 0 0 1 .281-.035c.117 0 .234.047.351.14.118.071.247.165.387.282.235.21.387.387.457.527a.8.8 0 0 1 .106.422c0 .094-.071.211-.211.352-.117.14-.258.363-.422.668-.68 1.383-1.559 2.543-2.637 3.48a4.86 4.86 0 0 1-1.019.598 4.183 4.183 0 0 1-.457.105c-.118 0-.176-.035-.176-.105Zm11.25-16.242c.281 0 .422.129.422.386 0 .14-.129.34-.387.598-.703.867-2.098 2.52-4.184 4.957-.164.21-.316.316-.457.316-.117 0-.375-.175-.773-.527-.328-.281-.492-.516-.492-.703 0-.211.176-.41.527-.598.539-.304 1.348-.914 2.426-1.828 1.078-.96 1.875-1.723 2.39-2.285.211-.21.387-.316.528-.316Zm-41.871-4.922c-.258.023-.586.035-.985.035h-.351c-.328-.047-.563-.106-.703-.176-.235-.164-.481-.434-.739-.809-.257-.398-.386-.726-.386-.984 0-.164.07-.246.211-.246.093 0 .175.012.246.035.422.117.937.176 1.547.176h.457l13.711-.879a7.287 7.287 0 0 0 1.582-.316.597.597 0 0 1 .246-.035c.304 0 .703.234 1.195.703.516.468.773.82.773 1.054 0 .282-.293.446-.878.492l-15.926.95Zm-9.563 24.785c0-.211.27-.469.809-.774 2.062-1.195 3.785-2.496 5.168-3.902 1.406-1.406 2.566-3.082 3.48-5.027.914-1.969 1.653-4.348 2.215-7.137l-6.152.316a17.13 17.13 0 0 1-1.196.036c-.304 0-.55-.024-.738-.07a1.14 1.14 0 0 1-.527-.317 3.467 3.467 0 0 1-.703-.985c-.164-.351-.246-.585-.246-.703 0-.14.105-.21.316-.21h.21c.446.14.985.21 1.618.21h.352l22.183-1.125a6.824 6.824 0 0 0 1.617-.316c.141-.047.235-.07.282-.07.281 0 .691.234 1.23.703s.809.855.809 1.16c0 .258-.281.41-.844.457l-9.633.492-.211 12.13v.105c0 .585.141 1.02.422 1.3.281.258.68.422 1.195.492.54.07 1.313.106 2.321.106 1.406 0 2.648-.117 3.726-.352.399-.07.727-.293.985-.668.258-.375.504-1.03.738-1.968.234-.938.48-2.32.738-4.149.071-.468.164-.832.282-1.09.14-.28.281-.421.421-.421.258 0 .411.28.457.843.071.563.106 1.325.106 2.285 0 1.477-.07 2.989-.211 4.536-.07.773-.281 1.382-.633 1.828-.328.468-.996.832-2.004 1.09-.984.28-2.449.421-4.394.421-1.36 0-2.473-.07-3.34-.21-.867-.118-1.606-.458-2.215-1.02-.609-.54-.914-1.406-.914-2.602v-.105l.211-12.445-3.727.21c-.937 4.782-2.437 8.508-4.5 11.18-2.039 2.649-4.91 4.582-8.613 5.801-.281.094-.539.14-.773.14-.211 0-.317-.058-.317-.175Zm94.465-20.742c-.141 0-.328-.153-.562-.457-.235-.329-.34-.61-.317-.844.047-.188.082-.715.106-1.582.023-.586.035-1.617.035-3.094 0-1.031-.012-1.723-.035-2.074l-1.161.105c-.82.118-1.523.176-2.109.176-.164 0-.398-.129-.703-.387-.305-.257-.457-.445-.457-.562 0-.188.199-.258.598-.211.257.023 1.019.012 2.285-.035a114.49 114.49 0 0 1 3.761-.211c.399-.024.762-.059 1.09-.106.352-.07.598-.117.739-.14.211-.024.398 0 .562.07.164.07.316.164.457.281.164.094.293.164.387.211.211.14.316.27.316.387 0 .094-.058.188-.176.281a.512.512 0 0 1-.316.106c-.117 0-.281-.012-.492-.035a5.154 5.154 0 0 0-.633-.036c-.867 0-1.758.024-2.672.07-.023.188-.035.657-.035 1.407-.047 1.266-.07 2.508-.07 3.727v1.687c0 .399-.035.656-.106.774-.211.328-.375.492-.492.492Zm-3.762 6.222c-.257 0-.574-.199-.949-.597-.281-.282-.422-.492-.422-.633 0-.07.047-.106.141-.106a1.48 1.48 0 0 1 .351-.035l.774-.035c.445 0 .738-.012.879-.035.445 0 .82-.012 1.125-.035 2.015-.188 3.375-.34 4.078-.457a29.8 29.8 0 0 0 .949-.14c.281-.071.504-.106.668-.106.328 0 .656.164.984.492.258.258.387.469.387.633 0 .14-.082.234-.246.28-.117.024-.809.071-2.074.142-.703.023-1.57.082-2.602.175a92.491 92.491 0 0 0-2.707.282c-.14.023-.34.058-.597.105-.258.047-.504.07-.739.07Zm7.559 12.13c.047.093.129.234.246.421.117.188.176.41.176.668a.67.67 0 0 1-.281.563.938.938 0 0 1-.633.246c-.211 0-.387-.211-.528-.633-.07-.164-.129-.305-.175-.422a3.344 3.344 0 0 0-.071-.246 8.055 8.055 0 0 1-1.195.246c-.492.07-.844.129-1.055.176-1.125.21-1.898.363-2.32.457-.164.047-.34.094-.527.14-.188.07-.293.118-.317.141-.14.047-.246.07-.316.07-.188 0-.363-.082-.527-.246a1.91 1.91 0 0 1-.633-.843c-.024-.024-.035-.06-.035-.106 0-.047.058-.105.175-.176a2.68 2.68 0 0 1 .317-.14c.304-.164.843-.657 1.617-1.477l.949-.914-2.074-1.125c-.234-.07-.387-.152-.457-.246s-.106-.234-.106-.422c0-.14.024-.234.071-.281.07-.07.211-.176.422-.317.211-.14.421-.328.632-.562a4.3 4.3 0 0 1 .457-.457c.188-.164.364-.34.528-.527.703-.82 1.148-1.465 1.336-1.934.117-.234.211-.352.281-.352.047 0 .141.047.281.141.446.328.715.633.809.914v.105c0 .118-.059.212-.176.282-.117.07-.199.129-.246.176-.07.046-.422.386-1.055 1.02l-.633.632-.597.598c-.281.257-.422.41-.422.457 0 .07.035.128.105.175a.814.814 0 0 1 .211.141l1.477.703c.914-.914 1.441-1.453 1.582-1.617.609-.703.949-1.148 1.019-1.336a.788.788 0 0 0 .106-.176c.047-.094.094-.14.141-.14.07 0 .14.035.21.105.375.352.645.68.809.984.047.094.07.153.07.176 0 .047-.058.117-.175.211l-.282.211c-.82.68-1.781 1.57-2.882 2.672l-2.145 2.004c-.047.047-.07.094-.07.14 0 .047.023.083.07.106.047.023.117.023.211 0l4.113-.703a15.968 15.968 0 0 0-.422-1.406v-.07c0-.071.035-.106.106-.106.094 0 .234.07.422.21.375.329.843.891 1.406 1.688Zm-33.82-12.622-.036 2.074c.141-.023.329-.023.563 0a.715.715 0 0 1 .316 0h.317c2.414.211 5.332.563 8.754 1.055.375.047.656.164.843.352.188.187.282.375.282.562-.071.774-.469 1.125-1.196 1.055-.234-.047-.679-.082-1.336-.106-.046 0-.55-.082-1.511-.246-2.907-.468-4.969-.75-6.188-.843-.445-.047-.75-.106-.914-.176-.07 1.453-.211 2.73-.422 3.832h.106c1.547 0 3.422-.082 5.625-.246l1.125-.106c3.14-.234 5.484-.445 7.031-.633l-.07-7.172-13.289.598Zm-7.77-5.941c0-.117.035-.246.106-.387 1.031-1.969 1.816-4.125 2.355-6.469.047-.258.117-.445.211-.562.094-.117.234-.176.422-.176.281 0 .597.094.949.281.352.164.527.364.527.598 0 .047-.023.187-.07.422l-.176.773 9.633-.527a13.945 13.945 0 0 0-1.652-1.723 73.557 73.557 0 0 1-1.09-1.02 1.585 1.585 0 0 1-.281-.28.376.376 0 0 1-.035-.352c.046-.234.21-.469.492-.703.304-.235.539-.328.703-.281.164.023.539.269 1.125.738s1.371 1.195 2.355 2.18c.352.28.493.574.422.878-.023.094-.117.258-.281.493l10.863-.598.352-.035c.328 0 .609.082.844.246.257.164.457.351.597.562.141.211.211.364.211.457 0 .188-.105.375-.316.563a1.943 1.943 0 0 0-.387.422c-1.125 1.476-2.039 2.566-2.742 3.27-.703.702-1.196 1.054-1.477 1.054-.164 0-.246-.094-.246-.281 0-.258.129-.598.387-1.02.703-1.172 1.266-2.262 1.687-3.27l-21.691 1.055a36.518 36.518 0 0 1-1.617 4.254c-.141.375-.363.563-.668.563a3.53 3.53 0 0 1-1.09-.422c-.281-.211-.422-.445-.422-.703Zm1.652 21.48c0-.258.106-.55.317-.879.914-1.265 1.629-2.472 2.144-3.62.516-1.15.903-2.485 1.161-4.009.257-1.546.386-3.445.386-5.695 0-.96-.023-1.64-.07-2.039-.023-.398-.094-.727-.211-.984-.141-.188-.211-.364-.211-.528 0-.047.023-.093.07-.14.047-.047.118-.07.211-.07.586 0 1.289.187 2.11.562l5.308-.246.071-5.098c0-.445-.164-.937-.493-1.476-.093-.165-.14-.293-.14-.387 0-.188.129-.281.386-.281.258 0 .692.093 1.301.28.492.141.809.282.949.423.141.14.211.34.211.597l-.211 5.836 6.504-.316.457-.035c.399 0 .739.164 1.02.492.281.305.422.55.422.738 0 .094-.024.211-.07.352a.863.863 0 0 0-.071.316l.106 13.852.035.914c0 .469-.176.867-.527 1.195-.305.281-.586.422-.844.422-.282 0-.938-.293-1.969-.879a26.898 26.898 0 0 1-2.848-1.828c-.89-.656-1.336-1.102-1.336-1.336 0-.14.106-.21.317-.21.258 0 .586.081.984.245 1.406.563 2.754.985 4.043 1.266l-.035-5.274c-1.406.493-3.539.985-6.398 1.477-2.86.492-4.793.738-5.801.738-.961 0-1.606-.422-1.934-1.265a12.911 12.911 0 0 1-1.476 3.55c-.657 1.078-1.325 1.934-2.004 2.567-.657.633-1.196.972-1.617 1.02-.165 0-.247-.083-.247-.247ZM157 12.594c0-.211.105-.446.316-.703.211-.258.422-.387.633-.387.188 0 .68.305 1.477.914a21.65 21.65 0 0 1 2.215 1.863c.703.656 1.054 1.09 1.054 1.301 0 .211-.14.457-.422.738-.281.305-.539.457-.773.457-.234 0-.492-.152-.773-.457a38.4 38.4 0 0 0-3.516-3.304c-.141-.141-.211-.282-.211-.422Zm10.758 4.148c0-.187.152-.433.457-.738a19.714 19.714 0 0 0 2.355-2.813c.68-.96 1.043-1.675 1.09-2.144a.594.594 0 0 0 .035-.246c0-.305.094-.457.282-.457.304 0 .703.234 1.195.703.516.445.773.82.773 1.125 0 .305-.621.984-1.863 2.039-1.219 1.031-2.309 1.828-3.27 2.39l-.175.106c-.235.14-.457.211-.668.211-.141 0-.211-.059-.211-.176Zm78.363-2.355c-.164 0-.34-.106-.527-.317a2.15 2.15 0 0 1-.282-.386c-.046-.118-.046-.27 0-.457l.036-.844c.023-.164.035-.563.035-1.195v-1.16l-1.055.492-1.23.527a10.87 10.87 0 0 0-.95.422c-.281.14-.527.21-.738.21a2.17 2.17 0 0 1-.562-.175 4.837 4.837 0 0 1-.493-.246c-.257-.164-.375-.34-.351-.527l.105-.352c0-.188.012-.352.036-.492l.035-2.04V5.95c0-.375-.024-.691-.071-.949-.047-.281-.082-.48-.105-.598 0-.117.035-.199.105-.246.024-.023.082-.035.176-.035.164 0 .481.106.949.316.399.188.563.422.493.704-.047.164-.094.41-.141.738l-.106 4.043c0 .117.012.21.036.281.046.047.093.07.14.07.282 0 .621-.082 1.02-.246.75-.234 1.394-.468 1.933-.703l.774-.316v-2.32c0-.938-.059-1.84-.176-2.708a.792.792 0 0 1-.035-.246c0-.234.094-.351.281-.351.024 0 .152.047.387.14.351.188.609.352.773.493.164.14.258.222.282.246.093.07.14.14.14.21a.34.34 0 0 1-.07.176c-.024.07-.047.13-.07.176l-.106 1.055-.035 3.234.035 3.13c0 .538-.035 1.007-.105 1.405-.118.493-.305.739-.563.739Zm-6.469 5.765c-.257 0-.574-.199-.949-.597-.281-.282-.422-.492-.422-.633 0-.07.047-.106.141-.106a1.48 1.48 0 0 1 .351-.035l.774-.035c.445 0 .738-.012.879-.035.445 0 .82-.012 1.125-.035 2.015-.188 3.375-.34 4.078-.457a29.8 29.8 0 0 0 .949-.14c.281-.071.504-.106.668-.106.328 0 .656.164.984.492.258.258.387.469.387.633 0 .14-.082.234-.246.28-.117.024-.809.071-2.074.142-.703.023-1.57.082-2.602.175a92.491 92.491 0 0 0-2.707.282c-.14.023-.34.058-.597.105-.258.047-.504.07-.739.07Zm4.711 14.52c-.726 0-1.289-.024-1.687-.07a1.68 1.68 0 0 1-.949-.422c-.446-.328-.75-1.043-.915-2.145l-.105-1.125c0-.281-.023-.633-.07-1.055a5.987 5.987 0 0 0-.809.141 3.817 3.817 0 0 1-.246.106.965.965 0 0 1-.211.035.81.81 0 0 1-.457-.14c-.141-.095-.316-.27-.527-.528-.164-.211-.246-.352-.246-.422s.082-.117.246-.14c.164-.024.386-.036.668-.036.398 0 .914-.047 1.547-.14l-.036-.493c0-.937-.058-1.734-.175-2.39l-.036-.246c0-.329.129-.457.387-.387.281.094.539.21.774.351.187.094.316.188.386.282.071.07.094.175.071.316l-.106 1.512v.914l3.094-.317c0-.164.012-.55.035-1.16.024-.633.024-1.043 0-1.23 0-.188-.023-.363-.07-.527a6.529 6.529 0 0 0-.071-.458c0-.187.094-.28.282-.28.187 0 .422.105.703.316.328.21.539.398.633.562.117.164.14.363.07.598a6.4 6.4 0 0 0-.246 1.265c-.047.47-.07.75-.07.844.281-.023.539-.058.773-.105.234-.047.387-.07.457-.07.188-.047.41-.071.668-.071.141.023.34.164.598.422.211.281.316.504.316.668 0 .234-.223.328-.668.281a6.863 6.863 0 0 0-1.195-.105c-.399 0-.738.011-1.02.035-.07.844-.211 1.676-.422 2.496a.953.953 0 0 1-.246.457c-.117.14-.222.21-.316.21-.164 0-.27-.07-.317-.21a3.524 3.524 0 0 1-.035-.598c.047-.61.071-1.37.071-2.285a26.99 26.99 0 0 0-1.477.14 9.357 9.357 0 0 1-1.512.212c-.023.96.024 1.816.141 2.566.07.492.211.832.422 1.02.14.117.305.187.492.21.211.024.422.036.633.036h.422c.726 0 1.406-.035 2.039-.106a1.52 1.52 0 0 0 .492-.14c.164-.07.281-.106.352-.106.21 0 .421.07.632.211.211.14.317.305.317.492 0 .188-.106.328-.317.422-.187.094-.492.176-.914.246-.75.094-1.5.14-2.25.14Zm10.02-15.996c.281 0 .422.129.422.387 0 .14-.129.34-.387.597-.703.867-2.098 2.52-4.184 4.957-.164.211-.316.317-.457.317-.117 0-.375-.176-.773-.528-.328-.281-.492-.515-.492-.703 0-.21.176-.41.527-.598.539-.304 1.348-.914 2.426-1.828 1.078-.96 1.875-1.722 2.39-2.285.211-.21.387-.316.528-.316Zm-44.684 11.496c2.086-.656 3.949-1.371 5.59-2.145a25.586 25.586 0 0 0-1.336-1.687c-.187-.235-.281-.422-.281-.563 0-.258.152-.48.457-.668.305-.21.539-.316.703-.316.188 0 .387.117.598.352a137.853 137.853 0 0 1 3.41 4.148c.937 1.195 1.406 1.922 1.406 2.18 0 .21-.164.457-.492.738-.305.305-.598.457-.879.457-.234 0-.469-.188-.703-.563a96.435 96.435 0 0 0-1.828-2.671l-4.219 2.109c-.469.21-1.207.586-2.215 1.125-.844.445-1.359.668-1.547.668-.14 0-.316-.094-.527-.281a1.65 1.65 0 0 1-.492-.633c-.094-.234-.094-.422 0-.563.14-.257.211-1.289.211-3.093V16.602c0-.563-.024-1.02-.071-1.372a3.587 3.587 0 0 0-.281-1.125 1.37 1.37 0 0 0-.07-.175.305.305 0 0 1-.035-.14c0-.118.082-.177.246-.177.304 0 1.066.258 2.285.774l7.629-.528c.187-.023.398-.035.633-.035.257 0 .562.117.914.352.351.21.527.445.527.703 0 .094-.059.234-.176.422-.094.187-.14.328-.14.422l-.914 6.609c.562.656.843 1.102.843 1.336 0 .117-.07.2-.211.246-.117.047-.304.07-.562.07l-8.508.317.035 5.87Zm-5.765-15.785c0-.235.152-.516.457-.844 1.711-1.898 3.199-3.785 4.464-5.66 1.266-1.875 1.899-3.13 1.899-3.762l-.035-.246V3.77c0-.329.129-.493.386-.493.305 0 .727.211 1.266.633.563.399.844.727.844.985 0 .117-.059.27-.176.457a23.895 23.895 0 0 1-1.16 1.687l4.992-.387a4.872 4.872 0 0 0 1.336-.28c.141-.048.246-.071.316-.071.352 0 .727.199 1.125.597.422.375.633.668.633.88 0 .28-.258.445-.773.492l-6.012.421c.164.047.527.293 1.09.739.586.445 1.113.902 1.582 1.37.469.47.703.798.703.985 0 .211-.141.469-.422.774-.281.28-.527.421-.738.421-.188 0-.41-.152-.668-.457a21.796 21.796 0 0 0-2.426-2.285c-.281-.234-.422-.433-.422-.597 0-.118.059-.27.176-.457.117-.188.27-.34.457-.457l-2.355.175a34.406 34.406 0 0 1-3.727 3.903c-1.359 1.195-2.226 1.793-2.601 1.793-.141 0-.211-.07-.211-.211Zm12.656 3.656.246-2.461-7.242.492v2.32l6.996-.351Zm-.457 4.36.281-2.708-6.785.317v2.636l6.504-.246Zm1.898-9.528c0-.234.153-.516.457-.844 1.149-1.383 2.192-2.941 3.129-4.676.961-1.757 1.442-2.988 1.442-3.69v-.142c0-.351.129-.527.386-.527.164 0 .41.094.739.281.351.164.668.364.949.598.281.234.422.469.422.703 0 .211-.164.586-.493 1.125-.328.54-.503.82-.527.844l6.926-.563a6.483 6.483 0 0 0 1.336-.246c.047-.023.141-.035.281-.035.328 0 .68.188 1.055.563.398.351.597.644.597.879 0 .14-.07.257-.21.351-.118.07-.282.117-.493.14l-7.136.493c.656.422 1.429 1.043 2.32 1.863.891.797 1.336 1.336 1.336 1.617 0 .164-.129.422-.387.774-.258.328-.504.492-.738.492-.188 0-.387-.117-.598-.352-1.148-1.242-2.191-2.226-3.129-2.953-.234-.187-.351-.363-.351-.527 0-.188.176-.469.527-.844l-2.601.176c-.774 1.031-1.711 2.074-2.813 3.129-1.078 1.055-1.805 1.582-2.18 1.582-.164 0-.246-.07-.246-.211Zm3.305.773c0-.14.082-.21.246-.21.352 0 1.148.292 2.391.878l7.066-.597.281-.035c.094 0 .27.046.528.14.281.07.539.2.773.387.258.164.387.387.387.668 0 .094-.035.223-.106.387-.07.164-.105.28-.105.351a88.243 88.243 0 0 1-.492 8.262l-.071.879c-.07.984-.164 1.805-.281 2.46-.117.657-.316 1.173-.598 1.548-.445.609-.925.914-1.441.914s-1.172-.317-1.969-.95a18.576 18.576 0 0 1-2.215-2.074c-.656-.75-.984-1.23-.984-1.441 0-.164.094-.246.281-.246.211 0 .504.117.879.351.867.54 1.594.973 2.18 1.301.586.328 1.008.492 1.266.492.117 0 .199-.082.246-.246.539-3 .867-6.762.984-11.285l-6.609.492c0 3.961.035 10.242.105 18.844 0 .21-.058.363-.176.457a.466.466 0 0 1-.386.176c-.188 0-.411-.07-.668-.211-.446-.188-.762-.363-.95-.528-.187-.164-.281-.351-.281-.562l.035-.246c.141-.773.211-1.64.211-2.602l-.105-14.836c0-.609-.024-1.078-.07-1.406a3.306 3.306 0 0 0-.211-.95c-.094-.28-.141-.468-.141-.562ZM136.719 72.844c-.146 0-.073-.125.219-.375.291-.25.645-.552 1.062-.906a16.43 16.43 0 0 0 1.406-1.47 4.31 4.31 0 0 0 .75-1.25c.104-.25.219-.374.344-.374.104 0 .26.083.469.25.416.333.625.614.625.844 0 .145-.084.25-.25.312-.084.02-.209.115-.375.281-.167.146-.292.26-.375.344-.896.875-1.729 1.51-2.5 1.906-.625.292-1.042.438-1.25.438h-.125ZM140 78.656c-.062 0-.167-.083-.312-.25a2.624 2.624 0 0 1-.282-.531 1.735 1.735 0 0 1 0-.469c.042-.208.063-.364.063-.469.041-.416.062-.75.062-1 .021-.229.021-.479 0-.75v-.53l-.031-.47c-.5.355-.885.605-1.156.75-.604.334-1.042.542-1.313.626a2.606 2.606 0 0 1-.906.187c-.146 0-.229-.02-.25-.063-.042-.083.375-.385 1.25-.906.833-.52 1.74-1.208 2.719-2.062.541-.5.958-.98 1.25-1.438a.713.713 0 0 0 .094-.219c.041-.104.083-.166.124-.187.063-.02.146-.01.25.031.271.146.5.354.688.625a.503.503 0 0 1 .125.313c0 .104-.052.208-.156.312a1.245 1.245 0 0 1-.313.188 6.99 6.99 0 0 0-.968.75c-.292.27-.48.448-.563.531.313.25.469.427.469.531l-.094.656c-.042.188-.062.657-.062 1.407 0 .729.02 1.219.062 1.469v.062a.772.772 0 0 1-.094.344 2.888 2.888 0 0 1-.094.219c-.145.229-.333.343-.562.343Zm-20.25-6c-.5.042-.854.063-1.062.063-.417 0-.688-.063-.813-.188-.25-.229-.479-.52-.687-.875-.188-.375-.282-.604-.282-.687 0-.104.115-.156.344-.156.354.083.75.124 1.188.124.208 0 .562-.02 1.062-.062l7.531-.563h.407c.479 0 .864.146 1.156.438.312.27.468.52.468.75a.56.56 0 0 1-.218.438c-.125.124-.271.24-.438.343a1.431 1.431 0 0 0-.344.219c-2.937 2.563-5.02 4.438-6.25 5.625-.874.833-1.562 1.656-2.062 2.469-.5.812-.75 1.448-.75 1.906 0 .458.167.813.5 1.063.354.229.896.385 1.625.468.729.084 1.76.125 3.094.125 2.166 0 4.073-.114 5.719-.344.395-.041.687-.187.874-.437.209-.25.386-.677.532-1.281.166-.625.385-1.688.656-3.188.083-.416.177-.74.281-.969.104-.229.209-.343.313-.343.104 0 .187.125.25.375.083.229.125.573.125 1.031 0 1.854-.063 3.219-.188 4.094-.104.854-.333 1.479-.687 1.875-.354.396-.927.656-1.719.781-1.854.25-3.948.375-6.281.375a41.41 41.41 0 0 1-4.156-.188c-1.021-.104-1.782-.49-2.282-1.156a3.762 3.762 0 0 1-.718-2.25c0-.708.281-1.562.843-2.562.563-1 1.281-1.906 2.157-2.719 1.166-1.083 3.02-2.76 5.562-5.031l-5.75.437Zm-14.531-7.187c0-.146.104-.219.312-.219.313 0 1 .198 2.063.594l4.437-.281c.167-.021.375-.032.625-.032.375 0 .677.115.906.344.25.23.376.48.376.75 0 .125-.032.26-.094.406-.042.146-.073.25-.094.313l-.594 7.312c.5.646.75 1.094.75 1.344 0 .146-.062.24-.187.281-.125.021-.354.042-.688.063l-5 .187.063 1.656v.063c0 .396-.177.594-.532.594-.333 0-.677-.104-1.031-.313-.333-.208-.5-.52-.5-.937 0-.146.011-.26.031-.344.063-.354.094-.677.094-.969l-.031-.625-.313-7.969c-.041-.77-.166-1.333-.374-1.687-.146-.25-.219-.427-.219-.531Zm2.719 9.281 3.374-.094.532-7.312-4.188.219.282 7.187Zm6.218-2.469c0-.146.094-.375.282-.687a40.13 40.13 0 0 0 3.156-5.375 39.999 39.999 0 0 0 2.344-5.719c.062-.188.093-.375.093-.563 0-.25-.041-.5-.125-.75a.433.433 0 0 1-.031-.187c0-.188.104-.281.313-.281.166 0 .437.083.812.25.375.166.708.375 1 .625.292.229.438.448.438.656 0 .125-.032.25-.094.375a41.216 41.216 0 0 1-2.188 4.594l8.782-.563c.437-.02.802-.104 1.093-.25.209-.083.354-.125.438-.125.312 0 .646.198 1 .594.354.396.531.719.531.969s-.281.396-.844.437L119.094 67a29.282 29.282 0 0 1-2.844 3.813c-.979 1.124-1.615 1.687-1.906 1.687-.125 0-.188-.073-.188-.219Zm71-2c-.687-.25-1.01-.52-.968-.812.124-.875.187-1.875.187-3a13.453 13.453 0 0 0-.094-1.781c-.021-.209-.021-.323 0-.344a.426.426 0 0 1 .313-.125c.187 0 .416.083.687.25.292.166.438.333.438.5 0 .104-.011.208-.031.312a1.152 1.152 0 0 0-.032.281l-.187 3.094c0 .167.062.271.187.313h.156c.167 0 .282-.01.344-.031l4.032-.563v-.813c0-1.02-.021-1.812-.063-2.374-.021-.48-.073-.865-.156-1.157-.063-.333.021-.5.25-.5.166 0 .385.063.656.188.333.166.531.312.594.437.062.104.083.271.062.5-.041.375-.062.938-.062 1.688l.031 2.375c0 .5-.094.896-.281 1.187-.104.125-.209.188-.313.188-.104 0-.25-.094-.437-.281a1.845 1.845 0 0 1-.157-.188.41.41 0 0 0-.187-.156.814.814 0 0 0-.25-.031c-.479.041-1.635.197-3.469.468-.312.042-.562.125-.75.25-.208.104-.344.156-.406.156l-.094-.03ZM189.125 77c-.208.27-.427.406-.656.406-.063 0-.094-.052-.094-.156 0-.146.042-.313.125-.5l.625-1.25c.021-.083.052-.167.094-.25.041-.083.073-.156.093-.219V75c0-.042-.031-.083-.093-.125a.264.264 0 0 0-.219-.031c-.333.02-.833.073-1.5.156-.646.083-1.125.167-1.438.25l-.468.156a1.223 1.223 0 0 1-.406.094c-.376 0-.688-.115-.938-.344a1.931 1.931 0 0 1-.469-.437l-.062-.156c0-.105.177-.136.531-.094.479.041 1.469-.021 2.969-.188l.625-.094c.166-.02.427-.052.781-.093.375-.063.667-.125.875-.188l.188-.062a.501.501 0 0 1 .218-.063c.104 0 .229.052.375.156.167.105.302.198.407.282.145.104.239.198.281.281.062.063.083.146.062.25 0 .104-.052.198-.156.281a3.081 3.081 0 0 0-.219.188c-.041.062-.187.219-.437.469-.104.166-.292.395-.563.687-.25.292-.427.5-.531.625Zm-1.563 6.156c0-.062.105-.219.313-.469.229-.27.406-.479.531-.624.313-.417.688-1.021 1.125-1.813.459-.792.719-1.313.781-1.563.042-.124-.02-.187-.187-.187-.333 0-1.25.094-2.75.281-.979.125-1.708.25-2.187.375a.606.606 0 0 1-.313.094c-.167 0-.344-.115-.531-.344a.82.82 0 0 1-.125-.406c0-.083.052-.167.156-.25l.094-.125c.062-.125.135-.292.219-.5.083-.208.156-.406.218-.594.104-.333.177-.698.219-1.094.021-.229.146-.291.375-.187.292.146.51.292.656.438.167.124.219.218.156.28a3.15 3.15 0 0 0-.5.844 8.461 8.461 0 0 0-.187.657c0 .083.052.125.156.125.313 0 .781-.052 1.407-.156l1.312-.157c.521-.062.938-.125 1.25-.187l.781-.156a.817.817 0 0 1 .25-.032c.104 0 .209.042.313.125.104.063.218.146.344.25.208.188.343.344.406.469a.72.72 0 0 1 .094.375c0 .083-.063.188-.188.313a3.795 3.795 0 0 0-.375.593c-.604 1.23-1.385 2.26-2.344 3.094a4.327 4.327 0 0 1-.906.531 3.697 3.697 0 0 1-.406.094c-.104 0-.157-.031-.157-.094Zm10-14.437c.25 0 .376.114.376.344 0 .124-.115.302-.344.53-.625.772-1.865 2.24-3.719 4.407-.146.188-.281.281-.406.281-.104 0-.334-.156-.688-.469-.291-.25-.437-.458-.437-.624 0-.188.156-.365.468-.532.48-.27 1.198-.812 2.157-1.625.958-.854 1.666-1.531 2.125-2.031.187-.188.344-.281.468-.281Zm-37.218-4.375c-.229.02-.521.031-.875.031h-.313c-.291-.042-.5-.094-.625-.156-.208-.146-.427-.386-.656-.719-.229-.354-.344-.646-.344-.875 0-.146.063-.219.188-.219.083 0 .156.01.219.032.374.104.833.156 1.374.156h.407l12.187-.782a6.467 6.467 0 0 0 1.406-.28.54.54 0 0 1 .219-.032c.271 0 .625.208 1.063.625.458.417.687.73.687.938 0 .25-.26.395-.781.437l-14.156.844Zm-8.5 22.031c0-.188.239-.417.718-.688 1.834-1.062 3.365-2.218 4.594-3.468 1.25-1.25 2.282-2.74 3.094-4.469.812-1.75 1.469-3.865 1.969-6.344l-5.469.281c-.292.021-.646.032-1.062.032a2.8 2.8 0 0 1-.657-.063 1.017 1.017 0 0 1-.469-.281 3.077 3.077 0 0 1-.624-.875c-.146-.313-.219-.52-.219-.625 0-.125.093-.188.281-.188h.188c.395.126.874.188 1.437.188h.313l19.718-1c.521-.042 1-.135 1.438-.281a1.02 1.02 0 0 1 .25-.063c.25 0 .614.209 1.094.625.479.417.718.76.718 1.031 0 .23-.25.365-.75.407l-8.562.437-.188 10.781v.094c0 .521.125.906.375 1.156.25.23.604.376 1.063.438.479.063 1.166.094 2.062.094 1.25 0 2.354-.104 3.313-.313.354-.062.646-.26.875-.594.229-.333.448-.916.656-1.75.208-.833.427-2.062.656-3.687.063-.417.146-.74.25-.969.125-.25.25-.375.375-.375.229 0 .365.25.407.75.062.5.093 1.177.093 2.031 0 1.313-.062 2.657-.187 4.032-.063.687-.25 1.229-.563 1.625-.291.416-.885.74-1.781.969-.875.25-2.177.374-3.906.374-1.209 0-2.198-.062-2.969-.187-.771-.104-1.427-.406-1.969-.906-.541-.48-.812-1.25-.812-2.313v-.094l.187-11.062-3.312.188c-.834 4.25-2.167 7.562-4 9.937-1.813 2.354-4.365 4.073-7.657 5.156-.25.084-.479.125-.687.125-.187 0-.281-.052-.281-.156Zm83.968-18.438c-.124 0-.291-.135-.5-.406-.208-.291-.302-.541-.281-.75.042-.166.073-.635.094-1.406.021-.52.031-1.438.031-2.75a34.2 34.2 0 0 0-.031-1.844l-1.031.094c-.729.104-1.354.156-1.875.156-.146 0-.354-.114-.625-.343-.271-.23-.406-.396-.406-.5 0-.167.177-.23.531-.188.229.02.906.01 2.031-.031 1.542-.104 2.656-.167 3.344-.188.354-.02.677-.052.968-.093.313-.063.532-.105.657-.126a.98.98 0 0 1 .5.063c.146.063.281.146.406.25.146.083.26.146.344.188.187.124.281.24.281.343 0 .084-.052.167-.156.25a.458.458 0 0 1-.282.094c-.104 0-.25-.01-.437-.031a4.56 4.56 0 0 0-.563-.032c-.77 0-1.562.021-2.374.063-.021.167-.032.583-.032 1.25a90.987 90.987 0 0 0-.062 3.313v1.499c0 .355-.032.584-.094.688-.188.292-.333.438-.438.438Zm-3.343 5.532c-.229 0-.511-.177-.844-.531-.25-.25-.375-.438-.375-.563 0-.063.042-.094.125-.094.083-.02.187-.031.313-.031l.687-.031c.396 0 .656-.01.781-.031.396 0 .729-.01 1-.032 1.792-.166 3-.302 3.625-.406.313-.042.594-.083.844-.125.25-.063.448-.094.594-.094.291 0 .583.146.875.438.229.229.344.416.344.562 0 .125-.073.209-.219.25-.104.021-.719.063-1.844.125-.625.021-1.396.073-2.313.156-.916.084-1.718.167-2.406.25-.125.021-.302.053-.531.094a3.668 3.668 0 0 1-.656.063Zm6.719 10.781c.041.083.114.208.218.375s.156.365.156.594a.593.593 0 0 1-.25.5.83.83 0 0 1-.562.219c-.188 0-.344-.188-.469-.563-.062-.146-.114-.27-.156-.375a3.005 3.005 0 0 0-.063-.219A7.13 7.13 0 0 1 237 85c-.438.063-.75.115-.938.156-1 .188-1.687.323-2.062.406-.146.042-.302.084-.469.126-.166.062-.26.104-.281.124a.993.993 0 0 1-.281.063c-.167 0-.323-.073-.469-.219a1.697 1.697 0 0 1-.562-.75c-.021-.02-.032-.052-.032-.094 0-.041.052-.093.156-.156.126-.062.219-.104.282-.125.271-.146.75-.583 1.437-1.312l.844-.813-1.844-1c-.208-.062-.343-.135-.406-.219-.063-.083-.094-.208-.094-.374 0-.126.021-.209.063-.25.062-.063.187-.157.375-.282a3.03 3.03 0 0 0 .562-.5c.104-.125.24-.26.407-.406.166-.146.322-.302.468-.469.625-.729 1.021-1.302 1.188-1.719.104-.208.187-.312.25-.312.041 0 .125.042.25.125.396.292.635.563.718.813v.093c0 .104-.052.188-.156.25a1.182 1.182 0 0 0-.218.156c-.063.042-.376.344-.938.907l-.562.562-.532.531c-.25.23-.375.365-.375.407 0 .062.031.114.094.156a.717.717 0 0 1 .187.125l1.313.625c.813-.813 1.281-1.292 1.406-1.438.542-.624.844-1.02.907-1.187a.738.738 0 0 0 .093-.156c.042-.084.084-.125.125-.125.063 0 .125.031.188.094.333.312.573.604.718.874a.544.544 0 0 1 .063.157c0 .041-.052.104-.156.187l-.25.188c-.729.604-1.584 1.396-2.563 2.375L234 84.375c-.042.042-.062.083-.062.125 0 .042.02.073.062.094.042.02.104.02.188 0l3.656-.625a14.109 14.109 0 0 0-.375-1.25v-.063c0-.062.031-.094.093-.094.084 0 .209.063.376.188.333.292.75.792 1.25 1.5Zm-30.063-11.219-.031 1.844c.125-.02.291-.02.5 0a.639.639 0 0 1 .281 0h.281c2.146.188 4.74.5 7.782.938.333.041.583.145.75.312.166.167.25.333.25.5-.063.688-.417 1-1.063.938-.208-.042-.604-.073-1.187-.094-.042 0-.49-.073-1.344-.219-2.584-.417-4.417-.667-5.5-.75-.396-.042-.667-.094-.813-.156-.062 1.291-.187 2.427-.375 3.406h.094c1.375 0 3.042-.073 5-.219l1-.094c2.792-.208 4.875-.395 6.25-.562l-.062-6.375-11.813.531Zm-6.906-5.281c0-.104.031-.219.093-.344.917-1.75 1.615-3.666 2.094-5.75.042-.229.104-.396.188-.5.083-.104.208-.156.375-.156.25 0 .531.083.843.25.313.146.469.323.469.531 0 .042-.021.167-.062.375l-.157.688 8.563-.469c-.396-.5-.885-1.01-1.469-1.531-.562-.521-.885-.823-.968-.907a1.37 1.37 0 0 1-.25-.25.337.337 0 0 1-.032-.312c.042-.208.188-.417.438-.625.271-.208.479-.292.625-.25.146.02.479.24 1 .656.521.417 1.219 1.063 2.093 1.938.313.25.438.51.376.781-.021.083-.105.23-.25.438l9.656-.532.312-.031c.292 0 .542.073.75.219.229.146.406.312.532.5.124.187.187.323.187.406 0 .167-.094.333-.281.5-.167.146-.282.27-.344.375-1 1.313-1.812 2.281-2.438 2.906-.624.625-1.062.938-1.312.938-.146 0-.219-.084-.219-.25 0-.23.115-.531.344-.906.625-1.042 1.125-2.01 1.5-2.907l-19.281.938a32.365 32.365 0 0 1-1.438 3.781c-.125.333-.323.5-.594.5a3.139 3.139 0 0 1-.968-.375c-.25-.188-.375-.396-.375-.625Zm1.469 19.094c0-.23.093-.49.281-.781.812-1.126 1.448-2.198 1.906-3.22.458-1.02.802-2.208 1.031-3.562.229-1.375.344-3.062.344-5.062 0-.854-.021-1.459-.062-1.813-.021-.354-.084-.646-.188-.875-.125-.166-.188-.323-.188-.469 0-.041.021-.083.063-.124.042-.042.104-.063.187-.063.521 0 1.146.167 1.876.5l4.718-.219.063-4.531c0-.396-.146-.833-.438-1.313-.083-.145-.125-.26-.125-.343 0-.167.115-.25.344-.25.229 0 .615.083 1.156.25.438.125.719.25.844.375s.188.302.188.531l-.188 5.188 5.781-.282.407-.031c.354 0 .656.146.906.438.25.27.375.49.375.656 0 .083-.021.187-.063.312a.78.78 0 0 0-.062.281l.094 12.313.031.813c0 .416-.157.77-.469 1.062-.271.25-.521.375-.75.375-.25 0-.833-.26-1.75-.781-.896-.5-1.74-1.042-2.531-1.625-.792-.584-1.188-.98-1.188-1.188 0-.125.094-.187.281-.187.23 0 .521.073.876.219 1.25.5 2.447.874 3.593 1.124L221 79.876c-1.25.438-3.146.875-5.688 1.313-2.541.437-4.26.656-5.156.656-.854 0-1.427-.375-1.718-1.125a11.495 11.495 0 0 1-1.313 3.156c-.583.958-1.177 1.719-1.781 2.281-.584.563-1.063.865-1.438.906-.146 0-.218-.072-.218-.218ZM207 66.75c0-.188.094-.396.281-.625.188-.23.375-.344.563-.344.166 0 .604.271 1.312.813.709.52 1.365 1.073 1.969 1.656.625.583.937.969.937 1.156 0 .188-.124.406-.374.656-.25.271-.48.407-.688.407-.208 0-.438-.136-.688-.406a33.975 33.975 0 0 0-3.124-2.938c-.126-.125-.188-.25-.188-.375Zm9.562 3.688c0-.167.136-.386.407-.657a17.532 17.532 0 0 0 2.093-2.5c.605-.854.928-1.49.969-1.906a.535.535 0 0 0 .031-.219c0-.27.084-.406.25-.406.271 0 .626.208 1.063.625.458.396.687.73.687 1s-.552.875-1.656 1.813c-1.083.916-2.052 1.624-2.906 2.124l-.156.094a1.162 1.162 0 0 1-.594.188c-.125 0-.188-.052-.188-.156Z"/></svg>