<svg xmlns="http://www.w3.org/2000/svg" width="350" height="167" fill="none"><path fill="#333" d="M137.91 14.281a1.25 1.25 0 0 1-.914-.386 26.715 26.715 0 0 0-2.355-2.286c-.891-.75-1.676-1.312-2.356-1.687-.328-.188-.492-.48-.492-.879 0-.07.082-.164.246-.281.211-.14.551-.446 1.02-.914l1.265-1.23a23.702 23.702 0 0 0 1.406-1.583c.399-.469.622-.797.668-.984a1.16 1.16 0 0 0 .071-.281c.047-.165.117-.247.211-.247.117 0 .269.059.457.176.211.117.386.235.527.352.352.328.527.61.527.844-.023.07-.117.152-.281.246-.14.07-.269.14-.387.21-.117.094-.539.47-1.265 1.126l-2.285 1.968c-.399.328-.598.586-.598.774 0 .094.187.246.563.457.445.281 1.312.855 2.601 1.722.492.329.961.692 1.406 1.09.375.375.563.762.563 1.16 0 .188-.082.352-.246.493a.478.478 0 0 1-.352.14Zm-6.258 5.871c-.257 0-.574-.199-.949-.597-.281-.282-.422-.492-.422-.633 0-.07.047-.106.141-.106a1.48 1.48 0 0 1 .351-.035l.774-.035c.445 0 .738-.012.879-.035.445 0 .82-.012 1.125-.035 2.015-.188 3.375-.34 4.078-.457a29.8 29.8 0 0 0 .949-.14c.281-.071.504-.106.668-.106.328 0 .656.164.984.492.258.258.387.469.387.633 0 .14-.082.234-.246.28-.117.024-.809.071-2.074.142-.703.023-1.57.082-2.602.175a92.491 92.491 0 0 0-2.707.282c-.14.023-.34.058-.597.105-.258.047-.504.07-.739.07Zm-.211 14.028c-.351 0-.621-.094-.808-.282-.211-.21-.317-.398-.317-.562 0-.164.094-.34.282-.527.023-.024.152-.211.386-.563.516-.82 1.102-1.863 1.758-3.129.68-1.289 1.102-2.168 1.266-2.637.14-.445.269-.832.387-1.16.14-.328.257-.492.351-.492.164 0 .305.059.422.176.117.094.234.234.352.422.14.164.246.281.316.351.164.188.246.364.246.528a.562.562 0 0 1-.141.351c-.093.117-.152.2-.175.246l-1.547 2.602a72.802 72.802 0 0 1-1.582 2.707.562.562 0 0 0-.141.352c0 .093.106.14.316.14.446 0 1.278-.059 2.497-.176 1.218-.093 2.039-.175 2.461-.246.609-.07 1.031-.14 1.265-.21.258-.071.633.105 1.125.527.586.492.715.808.387.949-.188.094-.551.14-1.09.14h-1.406c-.305 0-.785.024-1.442.07-.398 0-.843.013-1.336.036-.492.023-.902.047-1.23.07-.375.024-1.102.094-2.18.211l-.422.106ZM105.672 17.2c-.399 0-.668-.071-.809-.212a2.932 2.932 0 0 1-.633-.914c-.14-.328-.21-.562-.21-.703 0-.14.058-.21.175-.21a.49.49 0 0 1 .211.034c.586.14 1.125.188 1.617.14l8.297-.42-.035-2.25-3.586.21-.703.035c-.445 0-.762-.082-.949-.246a2.768 2.768 0 0 1-.527-.527 2.89 2.89 0 0 1-.352-.633l-.07-.281c0-.141.07-.211.211-.211.093 0 .164.011.211.035.468.117.878.176 1.23.176l.492-.036 4.043-.21V8.902l-5.519.282-.633.035c-.492 0-.891-.13-1.195-.387-.282-.281-.481-.562-.598-.844-.094-.304-.141-.504-.141-.597 0-.118.071-.176.211-.176l.176.035a7.286 7.286 0 0 0 1.547.176h.176l5.941-.281V5.633c0-.727-.141-1.348-.422-1.863a.632.632 0 0 1-.105-.317c0-.164.152-.246.457-.246.468 0 .949.082 1.441.246.516.164.774.492.774.985v2.601l4.886-.246c.281-.023.727-.117 1.336-.281l.176-.035c.234 0 .586.164 1.055.492.468.304.703.61.703.914 0 .304-.246.48-.739.527l-7.417.387-.036 2.074 4.043-.21a4.049 4.049 0 0 0 1.231-.282.49.49 0 0 1 .211-.035c.234 0 .551.164.949.492.422.328.633.633.633.914 0 .258-.235.41-.703.457l-6.364.352v2.285l8.262-.422a3.664 3.664 0 0 0 1.301-.281.605.605 0 0 1 .246-.036c.305 0 .656.188 1.055.563.398.352.597.68.597.984 0 .282-.246.446-.738.493l-20.531 1.02-.879.034Zm-9.844-2.813c0-.211.106-.457.316-.739.212-.28.41-.421.598-.421.258 0 .973.398 2.145 1.195a59.16 59.16 0 0 1 3.34 2.39c.375.282.562.54.562.774 0 .21-.141.504-.422.879-.258.375-.504.562-.738.562-.164 0-.41-.14-.738-.422a40.916 40.916 0 0 0-4.57-3.55c-.329-.211-.493-.434-.493-.668ZM96.04 32c0-.117.094-.234.281-.352a5.387 5.387 0 0 0 1.301-1.23c1.898-2.578 3.856-5.637 5.871-9.176.375-.656.715-.984 1.02-.984.187 0 .281.129.281.387 0 .445-.516 1.804-1.547 4.078a80.984 80.984 0 0 1-3.586 6.89 9.463 9.463 0 0 1-.387.633c-.187.352-.363.586-.527.703a.797.797 0 0 1-.527.211h-.106c-.351 0-.691-.082-1.02-.246a3.13 3.13 0 0 1-.773-.492c-.187-.188-.28-.328-.28-.422Zm2.496-25.383c0-.187.117-.433.352-.738.21-.281.422-.422.632-.422.235 0 .821.363 1.758 1.09a25.052 25.052 0 0 1 2.672 2.25c.844.773 1.266 1.277 1.266 1.512 0 .328-.164.644-.492.949-.328.281-.575.422-.739.422-.187 0-.422-.153-.703-.457-1.57-1.664-3-2.989-4.289-3.973-.305-.234-.457-.445-.457-.633Zm6.68 28.266c0-.305.094-.574.281-.809.797-1.218 1.418-2.343 1.863-3.375.446-1.031.786-2.238 1.02-3.62.234-1.407.351-3.153.351-5.24 0-.937-.011-1.581-.035-1.933-.023-.351-.093-.633-.211-.843-.14-.235-.211-.41-.211-.528 0-.047.024-.094.071-.14a.432.432 0 0 1 .246-.07c.515 0 1.16.175 1.933.527l10.793-.457c.446-.024.844.07 1.196.28.351.188.527.481.527.88 0 .117-.023.246-.07.386a1.934 1.934 0 0 0-.035.387l.105 12.024c0 .21.012.41.035.597.024.188.035.352.035.492 0 .399-.175.774-.527 1.125-.328.352-.644.528-.949.528-.328 0-.938-.258-1.828-.774a22.764 22.764 0 0 1-2.461-1.687c-.75-.586-1.125-.996-1.125-1.23 0-.141.105-.212.316-.212.141 0 .387.059.738.176 1.289.516 2.497.914 3.622 1.195l-.036-4.359-10.793.352a13.902 13.902 0 0 1-1.336 3.304c-.562.985-1.148 1.758-1.757 2.32-.586.587-1.09.891-1.512.915h-.07c-.118 0-.176-.07-.176-.211Zm15.644-8.578V24.16l-10.195.352c-.023.75-.094 1.465-.211 2.144l10.406-.351Zm-.035-3.973v-2.039l-10.019.422-.035 1.969 10.054-.352Zm73.442-16.453c0 .516-.024 1.008-.071 1.476l-.07 1.97c-.023.538-.094 1.44-.211 2.706-.023.375-.141.668-.352.88-.187.21-.363.316-.527.316-.187-.024-.351-.188-.492-.493a2.034 2.034 0 0 1-.105-.984c.023-.188.093-.96.21-2.32.047-1.453.024-2.426-.07-2.918-.023-.164-.187-.27-.492-.317h-.984l-1.618.14c-.328.024-.82.095-1.476.212-.633.117-1.149.223-1.547.316-.023.797-.012 1.805.035 3.024l.141 2.39a.945.945 0 0 1-.176.563c-.094.164-.211.246-.352.246-.281 0-.504-.188-.668-.563a2.101 2.101 0 0 1-.211-.949l-.035-.597-.07-2.004c0-.586-.023-1.418-.07-2.496 0-.188-.012-.329-.035-.422a1.035 1.035 0 0 1-.036-.176.792.792 0 0 1-.035-.246c0-.188.094-.281.281-.281.141 0 .258.023.352.07l.633.21c.258-.046.48-.081.668-.105.211-.023.363-.047.457-.07 1.078-.164 2.414-.281 4.008-.352.586 0 .996-.058 1.23-.175a.383.383 0 0 1 .141-.07c.093-.048.164-.06.211-.036l.351.106c.094.023.188.07.281.14a.95.95 0 0 1 .247.176c.304.305.457.516.457.633Zm-8.614 14.273c-.257 0-.574-.199-.949-.597-.281-.282-.422-.492-.422-.633 0-.07.047-.106.141-.106a1.48 1.48 0 0 1 .351-.035l.774-.035c.445 0 .738-.012.879-.035.445 0 .82-.012 1.125-.035 2.015-.188 3.375-.34 4.078-.457a29.8 29.8 0 0 0 .949-.14c.281-.071.504-.106.668-.106.328 0 .656.164.984.492.258.258.387.469.387.633 0 .14-.082.234-.246.28-.117.024-.809.071-2.074.142-.703.023-1.57.082-2.602.175a92.491 92.491 0 0 0-2.707.282c-.14.023-.34.058-.597.105-.258.047-.504.07-.739.07Zm-.211 14.028c-.351 0-.621-.094-.808-.282-.211-.21-.317-.398-.317-.562 0-.164.094-.34.282-.527.023-.024.152-.211.386-.563.516-.82 1.102-1.863 1.758-3.129.68-1.289 1.102-2.168 1.266-2.637.14-.445.269-.832.387-1.16.14-.328.257-.492.351-.492.164 0 .305.059.422.176.117.094.234.234.352.422.14.164.246.281.316.351.164.188.246.364.246.528a.562.562 0 0 1-.141.351c-.093.117-.152.2-.175.246l-1.547 2.602a72.802 72.802 0 0 1-1.582 2.707.562.562 0 0 0-.141.352c0 .093.106.14.316.14.446 0 1.278-.059 2.497-.176 1.218-.093 2.039-.175 2.461-.246.609-.07 1.031-.14 1.265-.21.258-.071.633.105 1.125.527.586.492.715.808.387.949-.188.094-.551.14-1.09.14h-1.406c-.305 0-.785.024-1.442.07-.398 0-.843.013-1.336.036-.492.023-.902.047-1.23.07-.375.024-1.102.094-2.18.211l-.422.106Zm14.942-15.504c.281 0 .422.129.422.387 0 .14-.129.34-.387.597-.703.867-2.098 2.52-4.184 4.957-.164.211-.316.317-.457.317-.117 0-.375-.176-.773-.528-.328-.281-.492-.515-.492-.703 0-.21.176-.41.527-.598.539-.304 1.348-.914 2.426-1.828 1.078-.96 1.875-1.722 2.39-2.285.211-.21.387-.316.528-.316Zm-33.047 4.254c-.539 2.718-1.383 4.957-2.531 6.715-1.149 1.757-2.637 3.386-4.465 4.886l-.176.14c-.469.329-.797.493-.984.493-.164 0-.246-.082-.246-.246 0-.234.199-.586.597-1.055 1.735-2.015 3.047-3.972 3.938-5.87.89-1.9 1.5-3.938 1.828-6.118.328-2.18.492-4.887.492-8.121 0-2.672-.035-4.453-.105-5.344-.071-.89-.164-1.465-.282-1.723-.117-.234-.175-.433-.175-.597 0-.188.117-.281.351-.281.445 0 1.301.316 2.567.949l8.296-.598h.317c.351 0 .644.082.879.246.234.164.41.352.527.563.117.21.176.363.176.457 0 .094-.035.222-.106.386-.07.165-.105.282-.105.352l.176 24.223.035 1.195c0 .586-.129 1.043-.387 1.371-.234.328-.492.54-.773.633-.282.117-.492.176-.633.176-.445 0-1.172-.364-2.18-1.09a27.06 27.06 0 0 1-2.812-2.39c-.867-.868-1.301-1.419-1.301-1.653 0-.117.082-.176.246-.176.281 0 .68.14 1.195.422.657.352 1.348.703 2.075 1.055.726.351 1.464.668 2.214.949l-.07-10.371-8.578.422ZM151.621 7.566c0-.14.094-.21.281-.21.328 0 1.055.199 2.18.597l6.856-.562c.093-.024.234-.036.421-.036.446 0 .786.141 1.02.422.258.282.387.528.387.739 0 .117-.036.257-.106.421a5.225 5.225 0 0 0-.105.422l-.598 14.766c.727.727 1.09 1.242 1.09 1.547 0 .164-.082.27-.246.316-.164.024-.446.047-.844.07l-7.312.212.035 2.039v.175c0 .516-.164.774-.492.774-.352 0-.762-.13-1.231-.387-.445-.281-.668-.633-.668-1.055 0-.164.012-.293.035-.386.117-.657.176-1.278.176-1.864v-.351l-.352-15.223a5.767 5.767 0 0 0-.386-1.969 4.503 4.503 0 0 1-.141-.457Zm2.777 8.368 5.696-.317.14-6.258-5.976.563.14 6.012Zm.176 8.402 5.309-.14.176-6.716-5.625.317.14 6.539Zm21.34-3.727-.035-5.168-7.84.457c-.023.657-.117 1.957-.281 3.903l-.106 1.23 8.262-.422Zm-7.84-11.847c.024 1.289.035 3.047.035 5.273l7.77-.492-.035-5.309-7.77.528Zm78.047 5.625c-.164 0-.34-.106-.527-.317a2.15 2.15 0 0 1-.282-.386c-.046-.118-.046-.27 0-.457l.036-.844c.023-.164.035-.563.035-1.195v-1.16l-1.055.492-1.23.527a10.87 10.87 0 0 0-.95.422c-.281.14-.527.21-.738.21a2.17 2.17 0 0 1-.562-.175 4.837 4.837 0 0 1-.493-.246c-.257-.164-.375-.34-.351-.527l.105-.352c0-.188.012-.352.036-.492l.035-2.04V5.95c0-.375-.024-.691-.071-.949-.047-.281-.082-.48-.105-.598 0-.117.035-.199.105-.246.024-.023.082-.035.176-.035.164 0 .481.106.949.316.399.188.563.422.493.704-.047.164-.094.41-.141.738l-.106 4.043c0 .117.012.21.036.281.046.047.093.07.14.07.282 0 .621-.082 1.02-.246.75-.234 1.394-.468 1.933-.703l.774-.316v-2.32c0-.938-.059-1.84-.176-2.708a.792.792 0 0 1-.035-.246c0-.234.094-.351.281-.351.024 0 .152.047.387.14.351.188.609.352.773.493.164.14.258.222.282.246.093.07.14.14.14.21a.34.34 0 0 1-.07.176c-.024.07-.047.13-.07.176l-.106 1.055-.035 3.234.035 3.13c0 .538-.035 1.007-.105 1.405-.118.493-.305.739-.563.739Zm-6.469 5.765c-.257 0-.574-.199-.949-.597-.281-.282-.422-.492-.422-.633 0-.07.047-.106.141-.106a1.48 1.48 0 0 1 .351-.035l.774-.035c.445 0 .738-.012.879-.035.445 0 .82-.012 1.125-.035 2.015-.188 3.375-.34 4.078-.457a29.8 29.8 0 0 0 .949-.14c.281-.071.504-.106.668-.106.328 0 .656.164.984.492.258.258.387.469.387.633 0 .14-.082.234-.246.28-.117.024-.809.071-2.074.142-.703.023-1.57.082-2.602.175a92.491 92.491 0 0 0-2.707.282c-.14.023-.34.058-.597.105-.258.047-.504.07-.739.07Zm4.711 14.52c-.726 0-1.289-.024-1.687-.07a1.68 1.68 0 0 1-.949-.422c-.446-.328-.75-1.043-.915-2.145l-.105-1.125c0-.281-.023-.633-.07-1.055a5.987 5.987 0 0 0-.809.141 3.817 3.817 0 0 1-.246.106.965.965 0 0 1-.211.035.81.81 0 0 1-.457-.14c-.141-.095-.316-.27-.527-.528-.164-.211-.246-.352-.246-.422s.082-.117.246-.14c.164-.024.386-.036.668-.036.398 0 .914-.047 1.547-.14l-.036-.493c0-.937-.058-1.734-.175-2.39l-.036-.246c0-.329.129-.457.387-.387.281.094.539.21.774.351.187.094.316.188.386.282.071.07.094.175.071.316l-.106 1.512v.914l3.094-.317c0-.164.012-.55.035-1.16.024-.633.024-1.043 0-1.23 0-.188-.023-.363-.07-.527a6.529 6.529 0 0 0-.071-.458c0-.187.094-.28.282-.28.187 0 .422.105.703.316.328.21.539.398.633.562.117.164.14.363.07.598a6.4 6.4 0 0 0-.246 1.265c-.047.47-.07.75-.07.844.281-.023.539-.058.773-.105.234-.047.387-.07.457-.07.188-.047.41-.071.668-.071.141.023.34.164.598.422.211.281.316.504.316.668 0 .234-.223.328-.668.281a6.863 6.863 0 0 0-1.195-.105c-.399 0-.738.011-1.02.035-.07.844-.211 1.676-.422 2.496a.953.953 0 0 1-.246.457c-.117.14-.222.21-.316.21-.164 0-.27-.07-.317-.21a3.524 3.524 0 0 1-.035-.598c.047-.61.071-1.37.071-2.285a26.99 26.99 0 0 0-1.477.14 9.357 9.357 0 0 1-1.512.212c-.023.96.024 1.816.141 2.566.07.492.211.832.422 1.02.14.117.305.187.492.21.211.024.422.036.633.036h.422c.726 0 1.406-.035 2.039-.106a1.52 1.52 0 0 0 .492-.14c.164-.07.281-.106.352-.106.21 0 .421.07.632.211.211.14.317.305.317.492 0 .188-.106.328-.317.422-.187.094-.492.176-.914.246-.75.094-1.5.14-2.25.14Zm10.02-15.996c.281 0 .422.129.422.387 0 .14-.129.34-.387.597-.703.867-2.098 2.52-4.184 4.957-.164.211-.316.317-.457.317-.117 0-.375-.176-.773-.528-.328-.281-.492-.515-.492-.703 0-.21.176-.41.527-.598.539-.304 1.348-.914 2.426-1.828 1.078-.96 1.875-1.722 2.39-2.285.211-.21.387-.316.528-.316Zm-44.684 11.496c2.086-.656 3.949-1.371 5.59-2.145a25.586 25.586 0 0 0-1.336-1.687c-.187-.235-.281-.422-.281-.563 0-.258.152-.48.457-.668.305-.21.539-.316.703-.316.188 0 .387.117.598.352a137.853 137.853 0 0 1 3.41 4.148c.937 1.195 1.406 1.922 1.406 2.18 0 .21-.164.457-.492.738-.305.305-.598.457-.879.457-.234 0-.469-.188-.703-.563a96.435 96.435 0 0 0-1.828-2.671l-4.219 2.109c-.469.21-1.207.586-2.215 1.125-.844.445-1.359.668-1.547.668-.14 0-.316-.094-.527-.281a1.65 1.65 0 0 1-.492-.633c-.094-.234-.094-.422 0-.563.14-.257.211-1.289.211-3.093V16.602c0-.563-.024-1.02-.071-1.372a3.587 3.587 0 0 0-.281-1.125 1.37 1.37 0 0 0-.07-.175.305.305 0 0 1-.035-.14c0-.118.082-.177.246-.177.304 0 1.066.258 2.285.774l7.629-.528c.187-.023.398-.035.633-.035.257 0 .562.117.914.352.351.21.527.445.527.703 0 .094-.059.234-.176.422-.094.187-.14.328-.14.422l-.914 6.609c.562.656.843 1.102.843 1.336 0 .117-.07.2-.211.246-.117.047-.304.07-.562.07l-8.508.317.035 5.87Zm-5.765-15.785c0-.235.152-.516.457-.844 1.711-1.898 3.199-3.785 4.464-5.66 1.266-1.875 1.899-3.13 1.899-3.762l-.035-.246V3.77c0-.329.129-.493.386-.493.305 0 .727.211 1.266.633.563.399.844.727.844.985 0 .117-.059.27-.176.457a23.895 23.895 0 0 1-1.16 1.687l4.992-.387a4.872 4.872 0 0 0 1.336-.28c.141-.048.246-.071.316-.071.352 0 .727.199 1.125.597.422.375.633.668.633.88 0 .28-.258.445-.773.492l-6.012.421c.164.047.527.293 1.09.739.586.445 1.113.902 1.582 1.37.469.47.703.798.703.985 0 .211-.141.469-.422.774-.281.28-.527.421-.738.421-.188 0-.41-.152-.668-.457a21.796 21.796 0 0 0-2.426-2.285c-.281-.234-.422-.433-.422-.597 0-.118.059-.27.176-.457.117-.188.27-.34.457-.457l-2.355.175a34.406 34.406 0 0 1-3.727 3.903c-1.359 1.195-2.226 1.793-2.601 1.793-.141 0-.211-.07-.211-.211Zm12.656 3.656.246-2.461-7.242.492v2.32l6.996-.351Zm-.457 4.36.281-2.708-6.785.317v2.636l6.504-.246Zm1.898-9.528c0-.234.153-.516.457-.844 1.149-1.383 2.192-2.941 3.129-4.676.961-1.757 1.442-2.988 1.442-3.69v-.142c0-.351.129-.527.386-.527.164 0 .41.094.739.281.351.164.668.364.949.598.281.234.422.469.422.703 0 .211-.164.586-.493 1.125-.328.54-.503.82-.527.844l6.926-.563a6.483 6.483 0 0 0 1.336-.246c.047-.023.141-.035.281-.035.328 0 .68.188 1.055.563.398.351.597.644.597.879 0 .14-.07.257-.21.351-.118.07-.282.117-.493.14l-7.136.493c.656.422 1.429 1.043 2.32 1.863.891.797 1.336 1.336 1.336 1.617 0 .164-.129.422-.387.774-.258.328-.504.492-.738.492-.188 0-.387-.117-.598-.352-1.148-1.242-2.191-2.226-3.129-2.953-.234-.187-.351-.363-.351-.527 0-.188.176-.469.527-.844l-2.601.176c-.774 1.031-1.711 2.074-2.813 3.129-1.078 1.055-1.805 1.582-2.18 1.582-.164 0-.246-.07-.246-.211Zm3.305.773c0-.14.082-.21.246-.21.352 0 1.148.292 2.391.878l7.066-.597.281-.035c.094 0 .27.046.528.14.281.07.539.2.773.387.258.164.387.387.387.668 0 .094-.035.223-.106.387-.07.164-.105.28-.105.351a88.243 88.243 0 0 1-.492 8.262l-.071.879c-.07.984-.164 1.805-.281 2.46-.117.657-.316 1.173-.598 1.548-.445.609-.925.914-1.441.914s-1.172-.317-1.969-.95a18.576 18.576 0 0 1-2.215-2.074c-.656-.75-.984-1.23-.984-1.441 0-.164.094-.246.281-.246.211 0 .504.117.879.351.867.54 1.594.973 2.18 1.301.586.328 1.008.492 1.266.492.117 0 .199-.082.246-.246.539-3 .867-6.762.984-11.285l-6.609.492c0 3.961.035 10.242.105 18.844 0 .21-.058.363-.176.457a.466.466 0 0 1-.386.176c-.188 0-.411-.07-.668-.211-.446-.188-.762-.363-.95-.528-.187-.164-.281-.351-.281-.562l.035-.246c.141-.773.211-1.64.211-2.602l-.105-14.836c0-.609-.024-1.078-.07-1.406a3.306 3.306 0 0 0-.211-.95c-.094-.28-.141-.468-.141-.562ZM40.469 71.156c-.23 0-.51-.177-.844-.531-.25-.25-.375-.438-.375-.563 0-.062.042-.093.125-.093a1.31 1.31 0 0 1 .313-.031l.687-.032c.396 0 .656-.01.781-.031.396 0 .73-.01 1-.031 1.792-.167 3-.302 3.625-.406.313-.042.594-.084.844-.126.25-.062.448-.093.594-.093.291 0 .583.146.875.437.229.23.343.417.343.563 0 .125-.072.208-.218.25-.104.02-.719.062-1.844.125-.625.02-1.396.073-2.313.156-.916.083-1.718.167-2.406.25-.125.02-.302.052-.531.094-.23.041-.448.062-.656.062Zm7.093 13.688c.292.187.438.364.438.531 0 .23-.177.375-.531.438-.354.062-.854.104-1.5.124-.938.021-1.542-.01-1.813-.093-.458-.209-.687-.552-.687-1.031l.031-1.157c.042-.375.063-.708.063-1 .02-.187.03-.552.03-1.094a10.514 10.514 0 0 1-1.218 2.063c-.354.438-.667.802-.938 1.094a6.33 6.33 0 0 1-.968.781c-.375.25-.719.375-1.032.375-.187 0-.28-.063-.28-.188 0-.02.197-.177.593-.468.417-.313.833-.74 1.25-1.281.625-.834 1.167-1.813 1.625-2.938-.813.104-1.354.198-1.625.281-.104.021-.198.052-.281.094a.783.783 0 0 1-.313 0 2.659 2.659 0 0 1-.437-.25 2.846 2.846 0 0 1-.438-.406c-.083-.125-.125-.209-.125-.25 0-.104.157-.156.469-.156.77 0 1.76-.084 2.969-.25.125-.48.187-1.25.187-2.313v-.594c0-.25.052-.385.157-.406.02-.02.062-.031.124-.031.167 0 .396.125.688.375.23.187.375.333.438.437.083.084.093.198.03.344l-.124.25a1.32 1.32 0 0 0-.125.375l-.125.625a6.626 6.626 0 0 0-.125.781c.291-.02.656-.062 1.093-.125.438-.062.76-.125.97-.187l.624-.156c.209-.042.552.135 1.032.53.083.063.124.136.124.22 0 .083-.041.156-.124.218a.444.444 0 0 1-.25.063c-.376 0-1.063.062-2.063.187l-1.031.094c.229.167.375.313.437.438.063.124.073.25.032.374l-.094.5a82.99 82.99 0 0 0-.125 1.376c-.021.5-.021.885 0 1.156 0 .104.062.198.187.281a.876.876 0 0 0 .438.125c.52 0 1.104-.052 1.75-.156l.281-.063c.125 0 .23.021.313.063Zm6-13.125c.25 0 .376.114.376.344 0 .124-.115.302-.344.53-.625.772-1.865 2.24-3.719 4.407-.146.188-.281.281-.406.281-.104 0-.334-.156-.688-.469-.291-.25-.437-.458-.437-.624 0-.188.156-.365.468-.532.48-.27 1.198-.812 2.157-1.625.958-.854 1.666-1.531 2.125-2.031.187-.188.343-.281.468-.281ZM31.657 87.625c.063 0 .104-.01.125-.031.042 0 .063-.031.063-.094.812-2.063 1.27-4.906 1.375-8.531l-1.563.062c-1.416 2.459-2.948 4.438-4.593 5.938C25.438 86.448 24 87.5 22.75 88.125c-1.23.625-2.02.938-2.375.938-.208 0-.313-.063-.313-.188 0-.208.313-.52.938-.938 3.396-2.291 6.146-5.218 8.25-8.78l-2.406.093c-1.25 1.5-2.48 2.74-3.688 3.719-1.208.958-2.25 1.656-3.125 2.094-.854.437-1.416.656-1.687.656-.167 0-.25-.063-.25-.188 0-.104.073-.24.218-.406.167-.188.386-.375.657-.563 1.979-1.395 3.77-3.124 5.375-5.187l-3.157.156c-.875.73-1.76 1.375-2.656 1.938-.896.562-1.52.844-1.875.844-.146 0-.218-.053-.218-.157 0-.229.218-.51.656-.844 1.791-1.395 3.562-3.25 5.312-5.562l-1.906.125h-.563c-.541 0-.875-.073-1-.219-.375-.375-.635-.76-.78-1.156l-.063-.25c0-.125.062-.188.187-.188.104 0 .198.01.282.032.375.062.78.094 1.218.094h.375l13.688-.782c.52-.041.916-.104 1.187-.187.167-.042.282-.063.344-.063.25 0 .51.084.781.25.271.167.5.354.688.563.208.208.312.375.312.5 0 .27-.25.427-.75.469l-11.312.656a53.411 53.411 0 0 1-2.032 2.219l10.75-.532H34c.458 0 .802.104 1.031.313.23.208.344.427.344.656 0 .104-.031.23-.094.375-.041.146-.062.25-.062.313a51.098 51.098 0 0 1-.938 7.718c-.208 1.104-.531 1.917-.968 2.438-.417.52-.834.781-1.25.781-.396 0-.98-.23-1.75-.688a14.22 14.22 0 0 1-2.125-1.468c-.646-.542-.97-.917-.97-1.125 0-.104.084-.156.25-.156.25 0 .605.093 1.063.28 1.125.438 2.125.74 3 .907h.125Zm-21.625 1.063c0-.146.01-.26.031-.344.126-.646.188-1.448.188-2.406l.25-18.844v-.531c0-.855-.083-1.5-.25-1.938-.146-.333-.219-.563-.219-.688 0-.145.084-.218.25-.218.271 0 1.042.25 2.313.75l4.125-.375.406-.031c.167 0 .417.104.75.312.354.208.531.438.531.688 0 .124-.062.26-.187.406a1.75 1.75 0 0 0-.219.312 41.819 41.819 0 0 1-2.594 4.5.48.48 0 0 0-.062.188c0 .125.031.219.094.281.895 1 1.51 1.938 1.843 2.813.354.874.532 1.843.532 2.906 0 .729-.157 1.364-.47 1.906-.29.542-.655.813-1.093.813-.313 0-.77-.24-1.375-.72a13.044 13.044 0 0 1-1.625-1.593c-.48-.604-.719-1.02-.719-1.25 0-.125.063-.188.188-.188.166 0 .437.126.812.376.438.312.886.593 1.344.843.458.23.76.344.906.344.063 0 .104-.125.125-.375.042-.25.063-.448.063-.594a5.85 5.85 0 0 0-.438-2.187c-.27-.73-.781-1.521-1.531-2.375-.25-.313-.375-.615-.375-.906 0-.25.094-.542.281-.876.875-1.5 1.552-2.791 2.031-3.874l-3.53.312-.313 22.938c0 .583-.177.874-.531.874-.084 0-.25-.052-.5-.156a2.266 2.266 0 0 1-.72-.406.89.89 0 0 1-.312-.688ZM20.25 63.311c0-.104.094-.156.281-.156.292 0 1.01.157 2.157.469l8.53-.5h.282c.354 0 .677.104.969.313.312.208.468.427.468.656a.78.78 0 0 1-.093.344c-.042.124-.073.229-.094.312l-.625 5.719c.52.5.781.864.781 1.094 0 .124-.073.208-.218.25a2.7 2.7 0 0 1-.594.093l-8.938.406.032.25v.094c0 .396-.178.594-.532.594-.291 0-.625-.115-1-.344-.375-.25-.562-.49-.562-.719v-.156c.062-.416.093-.812.093-1.187l-.03-.563-.345-5c-.041-.562-.145-1.031-.312-1.406-.167-.27-.25-.458-.25-.563Zm2.563 3.813 7.75-.438.187-2.03-8.063.437.125 2.031Zm.25 3.688 7.187-.376.188-2.28-7.532.406.157 2.25ZM92.53 75c-.333 0-.541-.094-.625-.281a4.343 4.343 0 0 0-.312-.625c-.104-.188-.292-.406-.563-.656l.063-.126c.75.271 1.24.407 1.469.407.166 0 .291-.031.374-.094.084-.063.22-.208.407-.438.27-.291.52-.74.75-1.343.312-.896.51-1.823.594-2.781v-.094c0-.125-.021-.209-.063-.25-.27 0-.99.062-2.156.187-.646 1.604-1.396 2.927-2.25 3.969-.834 1.02-1.594 1.531-2.281 1.531-.167 0-.25-.062-.25-.187 0-.042.208-.281.624-.719.417-.438.876-1.01 1.376-1.719.52-.729 1.01-1.625 1.468-2.687-.104 0-.406.02-.906.062-.5.042-.927.115-1.281.219a.495.495 0 0 1-.531.063l-.063-.032a.488.488 0 0 1-.125-.094 1.365 1.365 0 0 1-.375-.312.828.828 0 0 1-.125-.406c0-.063.052-.146.156-.25l.375-.5c.125-.167.24-.406.344-.719.104-.333.156-.615.156-.844 0-.146-.01-.24-.031-.281a.348.348 0 0 1-.031-.156c0-.104.052-.156.156-.156.125 0 .302.072.531.218.063.042.177.125.344.25.188.104.292.23.313.375 0 .146-.084.386-.25.719l-.407.719a.385.385 0 0 0-.062.219c0 .062.02.114.062.156a.39.39 0 0 0 .219 0l1.875-.25c.208-.542.375-1.115.5-1.719v-.718c0-.23.063-.324.188-.282.27.063.49.146.656.25.312.188.469.344.469.469 0 .104-.042.281-.126.531a14.183 14.183 0 0 1-.438 1.344c.063 0 .449-.042 1.157-.125l.313-.063c.062 0 .177-.02.344-.062a.347.347 0 0 1 .156-.031c.25 0 .406.01.469.03.083.022.208.084.374.188.188.125.313.25.376.375.062.125.083.271.062.438l-.188 1.031-.218 1.125c0 .083-.073.354-.219.813a7.402 7.402 0 0 1-.5 1.218c-.354.709-.77 1.24-1.25 1.594-.417.333-.781.5-1.094.5Zm-4.062 7.094c-.23 0-.51-.177-.844-.531-.25-.25-.375-.438-.375-.563 0-.063.042-.094.125-.094.083-.02.188-.031.313-.031l.687-.031c.396 0 .656-.01.781-.031.396 0 .73-.01 1-.032 1.792-.166 3-.302 3.625-.406.313-.042.594-.083.844-.125.25-.063.448-.094.594-.094.291 0 .583.146.875.438.229.229.344.416.344.562 0 .125-.073.209-.22.25-.103.021-.718.063-1.843.125-.625.021-1.396.073-2.313.156-.916.084-1.718.167-2.406.25-.125.021-.302.053-.531.094-.23.042-.448.063-.656.063Zm9.094-7.875c.104 0 .26.073.468.219-.02.041.021.124.125.25l.219.218c.104.104.208.23.313.375.124.146.26.302.406.469.375.396 1.239 1.427 2.594 3.094.229.333.343.531.343.594 0 .208-.125.312-.375.312-.146 0-.302-.104-.468-.313-.396-.416-1.105-1.072-2.126-1.968-.791-.73-1.51-1.292-2.156-1.688-.312-.146-.469-.312-.469-.5 0-.146.157-.354.47-.625.29-.291.51-.437.656-.437ZM67.25 88.969v.062a.55.55 0 0 1-.156.406c-.084.105-.219.157-.406.157-.313 0-.636-.115-.97-.344-.333-.208-.5-.438-.5-.688v-.156c0-.146.011-.281.032-.406a1.76 1.76 0 0 0 .031-.344l-.031-.562-.313-6.188a4.853 4.853 0 0 0-.156-.875c-.062-.333-.125-.573-.187-.719-.146-.291-.219-.5-.219-.624 0-.126.094-.188.281-.188.271 0 .948.188 2.031.563l11.594-.532h.344c.292 0 .531.073.719.219.208.146.364.313.469.5.104.188.156.323.156.406a.603.603 0 0 1-.094.313 1.062 1.062 0 0 0-.125.281l-.531 6.313c.5.645.75 1.083.75 1.312 0 .146-.063.23-.188.25-.125.042-.333.063-.625.063l-11.937.25.031.53Zm-11.469 0c0-.209.094-.531.282-.969 1.062-2.333 1.864-4.604 2.406-6.813a40.692 40.692 0 0 0 1.062-6.78c.188-2.313.282-5.094.282-8.344 0-.605-.01-1.063-.032-1.376a3.8 3.8 0 0 0-.187-.968c-.084-.25-.125-.407-.125-.469 0-.146.073-.219.218-.219.271 0 .99.271 2.157.813l16.968-.938c.605-.02 1.136-.125 1.594-.312a.83.83 0 0 1 .375-.094c.23 0 .48.094.75.281.292.188.531.396.719.625.208.23.313.396.313.5 0 .271-.26.427-.782.469L61.812 65.5c0 1.833-.052 3.77-.156 5.813-.083 2.041-.24 3.78-.468 5.218-.459 2.98-1.073 5.417-1.844 7.313-.75 1.875-1.459 3.229-2.125 4.062-.667.854-1.104 1.281-1.313 1.281-.083 0-.125-.072-.125-.218Zm5.782-10.781c0-.209.177-.5.53-.876.647-.687 1.365-1.552 2.157-2.593a29.823 29.823 0 0 0 2.063-2.969l-1.907.156h-.25c-.458 0-.854-.125-1.187-.375-.313-.25-.469-.583-.469-1 0-.104.063-.156.188-.156l.312.063c.313.062.635.093.969.093h.218l2.75-.187c0-.854.01-1.459.032-1.813-.646.146-1.25.271-1.813.375-.562.104-.937.156-1.125.156-.396 0-.594-.083-.594-.25 0-.083.084-.177.25-.28.167-.126.407-.23.72-.313.916-.271 1.937-.646 3.062-1.125 1.146-.48 1.864-.938 2.156-1.375.104-.125.219-.188.344-.188.208 0 .406.104.594.313a2.5 2.5 0 0 1 .468.656c.146.23.219.396.219.5 0 .208-.073.333-.219.375-1.02.354-1.854.615-2.5.781v2.094l1.219-.094c.417-.041.76-.104 1.031-.187a.811.811 0 0 1 .25-.031c.23 0 .5.145.813.437.312.27.469.5.469.688 0 .208-.209.322-.626.343l-3.156.219v.563A.6.6 0 0 1 68.97 72c.125 0 .437.167.937.5.5.313.959.656 1.375 1.031.438.375.656.646.656.813 0 .208-.114.437-.343.687-.209.25-.386.375-.531.375-.146 0-.334-.114-.563-.344a20.389 20.389 0 0 0-1.969-1.718v4.5c0 .437-.156.656-.469.656-.145 0-.364-.063-.656-.188-.25-.124-.427-.25-.531-.374a.77.77 0 0 1-.125-.438c0-.167.01-.292.031-.375.084-.667.125-1.146.125-1.438l.031-.968c0-.417.042-.969.126-1.656-.23.541-.72 1.24-1.47 2.093-.75.834-1.52 1.573-2.312 2.219-.77.646-1.291.969-1.562.969-.104 0-.157-.052-.157-.156Zm5.312 4.656 10.781-.375.125-2.344-11.031.531.125 2.188Zm.25 4 10.281-.25.156-2.625-10.593.375.156 2.5Zm3.563-9.25c0-.209.197-.51.593-.906a30.787 30.787 0 0 0 4.375-5.376l-1.562.126h-.281c-.396 0-.688-.073-.876-.22-.354-.312-.593-.614-.718-.906a1.31 1.31 0 0 1-.063-.218c0-.104.073-.156.219-.156a.81.81 0 0 1 .25.03c.313.084.615.126.906.126l.344-.031 2.438-.157.062-1.969c-.083.021-.542.126-1.375.313-.813.188-1.427.281-1.844.281-.396 0-.594-.073-.594-.219 0-.083.094-.187.282-.312.208-.125.49-.24.844-.344.916-.291 1.99-.677 3.218-1.156 1.23-.5 1.99-.969 2.281-1.406.105-.167.23-.25.376-.25.27 0 .552.198.843.594.313.374.469.677.469.906a.415.415 0 0 1-.094.25c-.041.062-.083.094-.125.094a33.24 33.24 0 0 1-2.75.874c-.02.459-.031 1.209-.031 2.25l2.219-.124c.229-.021.573-.094 1.031-.22a.945.945 0 0 1 .281-.03c.23 0 .51.124.844.374.333.23.5.49.5.782 0 .208-.24.333-.719.375l-4.156.25v.719c.375.124 1.115.53 2.219 1.218a59.677 59.677 0 0 1 3.156 2c.02.021.094.104.219.25.146.125.219.26.219.406 0 .126-.073.344-.22.657-.124.291-.29.448-.5.469h-.062c-.166 0-.354-.084-.562-.25-1.584-1.209-3.073-2.24-4.469-3.094l-.031 3.844c0 .25-.031.437-.094.562a.323.323 0 0 1-.313.188c-.312 0-.614-.115-.906-.344-.291-.23-.437-.48-.437-.75l.031-.313c.083-.666.125-1.146.125-1.437v-.875c0-.5.063-1.167.188-2-.459.833-1.084 1.656-1.876 2.469a19.243 19.243 0 0 1-2.312 2c-.75.52-1.219.78-1.406.78-.104 0-.156-.04-.156-.124Zm72.718 2.937a.664.664 0 0 1-.406-.312 1.027 1.027 0 0 1-.156-.25 1.228 1.228 0 0 0-.125-.313l-.157-.344-1.968.25-.75.126c-.188.02-.615.093-1.282.218-.27.042-.562.125-.874.25a.806.806 0 0 0-.219.125c-.084.063-.157.094-.219.094H137c-.208 0-.438-.135-.688-.406a1.367 1.367 0 0 0-.25-.25c-.083-.104-.124-.177-.124-.219 0-.167.072-.323.218-.469.313-.312.75-.948 1.313-1.906.208-.292.458-.719.75-1.281a26.94 26.94 0 0 0 .687-1.406c-.021.062.094-.22.344-.844.188-.521.281-.854.281-1 .042-.23.115-.344.219-.344.083 0 .26.115.531.344.229.187.407.375.531.562.146.188.219.334.219.438a.39.39 0 0 1-.062.219 1.081 1.081 0 0 1-.219.218 3.59 3.59 0 0 0-.312.375c-.271.354-.605.896-1 1.625l-.626 1.094-.468.781-.344.594-.219.344a.132.132 0 0 0 0 .125c.021.02.052.031.094.031l1.594-.188 2.875-.312-.25-.656a21.604 21.604 0 0 0-.375-.969c-.021-.02-.031-.063-.031-.125 0-.063.031-.094.093-.094.104 0 .229.063.375.188.167.104.417.323.75.656.25.208.459.448.625.719.188.27.302.427.344.469.187.27.281.53.281.78 0 .126-.041.334-.125.626-.062.166-.146.281-.25.344-.083.062-.208.093-.375.093Zm2.156-11c.105 0 .261.073.469.219-.021.042.021.125.125.25l.219.219c.104.104.208.229.313.375.124.146.26.302.406.469.375.395 1.239 1.427 2.594 3.093.229.334.343.531.343.594 0 .208-.125.313-.375.313-.146 0-.302-.105-.468-.313-.396-.417-1.105-1.073-2.126-1.969-.791-.729-1.51-1.291-2.156-1.687-.312-.146-.468-.313-.468-.5 0-.146.156-.354.468-.625.292-.292.511-.438.656-.438Zm-35.906 18.125v.094c0 .48-.198.719-.594.719-.354 0-.718-.125-1.093-.375-.375-.23-.563-.521-.563-.875 0-.063.021-.219.063-.469.083-.417.125-.896.125-1.438l-.032-.687-.906-15.375c-.041-.73-.177-1.313-.406-1.75-.125-.292-.188-.469-.188-.531 0-.146.115-.219.344-.219.354 0 1.125.208 2.313.625l20.312-1.188h.344c.437 0 .813.126 1.125.376.312.25.469.53.469.843a.599.599 0 0 1-.094.313 2.192 2.192 0 0 0-.094.281l-1 15.156c.667.75 1 1.271 1 1.563 0 .187-.083.302-.25.344-.166.041-.437.072-.812.093l-20.157.563.094 1.937Zm-.187-3.75 18.25-.625.969-15.219-7.032.376-.062 6.374c0 .417.041.709.125.876a.676.676 0 0 0 .437.343c.229.042.594.063 1.094.063.708 0 1.26-.042 1.656-.125a6.423 6.423 0 0 0 1.125-.344.993.993 0 0 1 .281-.063c.209 0 .532.167.969.5.438.334.657.615.657.844 0 .146-.073.281-.219.406-.146.126-.344.209-.594.25-1.271.25-2.604.376-4 .376-.896 0-1.583-.053-2.063-.157-.458-.104-.833-.364-1.124-.781-.271-.438-.407-1.125-.407-2.063v-.124l.094-6.282-3.125.188c-.062 2.062-.26 3.791-.594 5.187-.333 1.375-.885 2.604-1.656 3.688-.771 1.083-1.854 2.114-3.25 3.094-.417.291-.75.437-1 .437-.167 0-.25-.083-.25-.25 0-.25.177-.542.531-.875 1.5-1.438 2.552-3.02 3.157-4.75.624-1.75.937-3.823.937-6.219v-.219l-5.687.313.781 14.781Zm75.687-10.625c-.687-.25-1.01-.52-.968-.812.124-.875.187-1.875.187-3a13.453 13.453 0 0 0-.094-1.781c-.021-.209-.021-.323 0-.344a.426.426 0 0 1 .313-.125c.187 0 .416.083.687.25.292.166.438.333.438.5 0 .104-.011.208-.031.312a1.152 1.152 0 0 0-.032.281l-.187 3.094c0 .167.062.271.187.313h.156c.167 0 .282-.01.344-.031l4.032-.563v-.813c0-1.02-.021-1.812-.063-2.374-.021-.48-.073-.865-.156-1.157-.063-.333.021-.5.25-.5.166 0 .385.063.656.188.333.166.531.312.594.437.062.104.083.271.062.5-.041.375-.062.938-.062 1.688l.031 2.375c0 .5-.094.896-.281 1.187-.104.125-.209.188-.313.188-.104 0-.25-.094-.437-.281a1.845 1.845 0 0 1-.157-.188.41.41 0 0 0-.187-.156.814.814 0 0 0-.25-.031c-.479.041-1.635.197-3.469.468-.312.042-.562.125-.75.25-.208.104-.344.156-.406.156l-.094-.03Zm3.5 12.656c-.646 0-1.146-.02-1.5-.062a1.5 1.5 0 0 1-.844-.375c-.395-.292-.666-.927-.812-1.906l-.094-1c0-.25-.021-.563-.062-.938a5.336 5.336 0 0 0-.719.125c-.042.021-.115.052-.219.094a.856.856 0 0 1-.187.031.722.722 0 0 1-.407-.125c-.124-.083-.281-.24-.468-.469-.146-.187-.219-.312-.219-.374 0-.063.073-.105.219-.126.146-.02.344-.03.594-.03a9.76 9.76 0 0 0 1.374-.126l-.031-.437c0-.834-.052-1.542-.156-2.125l-.031-.219c0-.292.114-.406.344-.344.25.084.479.188.687.313.167.083.281.166.344.25.062.062.083.156.062.281l-.093 1.344v.812l2.75-.281c0-.146.01-.49.031-1.031.021-.563.021-.927 0-1.094 0-.167-.021-.323-.063-.469a5.904 5.904 0 0 0-.062-.406c0-.167.083-.25.25-.25.166 0 .375.094.625.281.291.188.479.354.562.5.104.146.125.323.063.531a5.704 5.704 0 0 0-.219 1.126c-.042.416-.063.666-.063.75.25-.021.48-.053.688-.094.208-.042.344-.063.406-.063.167-.041.365-.062.594-.062.125.02.302.146.531.375.188.25.281.448.281.594 0 .208-.197.291-.593.25a6.108 6.108 0 0 0-1.063-.094c-.354 0-.656.01-.906.031-.062.75-.188 1.49-.375 2.219a1.09 1.09 0 0 1-.219.437c-.104.104-.198.156-.281.156-.146 0-.24-.052-.281-.156a3.672 3.672 0 0 1-.032-.562 27.07 27.07 0 0 0 .063-2.031c-.563.041-1 .083-1.313.124a8.296 8.296 0 0 1-1.343.188 12.86 12.86 0 0 0 .125 2.281c.062.438.187.74.375.906a.83.83 0 0 0 .437.188c.188.02.375.031.563.031h.375c.646 0 1.25-.031 1.812-.094.167-.02.313-.062.438-.124.146-.063.25-.094.312-.094.188 0 .375.062.563.187.187.125.281.271.281.438 0 .166-.094.291-.281.375-.167.083-.438.156-.813.219-.666.083-1.333.124-2 .124Zm4.906-11.718c.105 0 .261.073.469.219-.021.041.021.124.125.25l.219.218c.104.104.208.23.313.375.124.146.26.302.406.469.375.396 1.239 1.427 2.594 3.094.229.333.343.531.343.594 0 .208-.125.312-.375.312-.146 0-.302-.104-.468-.313-.396-.416-1.105-1.072-2.126-1.968-.791-.73-1.51-1.292-2.156-1.688-.312-.146-.468-.312-.468-.5 0-.146.156-.354.468-.625.292-.291.511-.437.656-.437Zm-32.156 5.125c-.521 2.229-1.344 4.114-2.468 5.656-1.126 1.52-2.594 3.01-4.407 4.469-.437.354-.791.531-1.062.531-.146 0-.219-.073-.219-.219 0-.208.167-.49.5-.844 1.729-1.916 3.042-3.74 3.938-5.468.916-1.73 1.541-3.625 1.874-5.688.355-2.083.532-4.698.532-7.844V67c0-1.146-.104-2.031-.313-2.656a1.283 1.283 0 0 1-.093-.438c0-.166.093-.25.281-.25.333 0 1.062.282 2.187.844l11.156-.656.344-.032c.354 0 .667.146.938.438.271.27.406.51.406.719 0 .083-.031.208-.094.375a1.237 1.237 0 0 0-.094.406l.157 21.656.031 1.063c0 .437-.104.802-.312 1.094-.188.291-.407.5-.657.624-.25.146-.458.22-.625.22-.375 0-1.01-.324-1.906-.97a19.93 19.93 0 0 1-2.5-2.062c-.771-.73-1.156-1.23-1.156-1.5 0-.125.073-.188.218-.188.23 0 .573.136 1.032.407a20.023 20.023 0 0 0 3.812 1.75l-.062-8.969-11.438.469Zm11.438-2.188-.032-4.875-10.718.406c-.084 2.25-.209 3.896-.375 4.938l11.125-.469Zm-.032-6.687-.031-4.781-10.562.656-.063 4.656 10.656-.531Zm66.594 10.062a.664.664 0 0 1-.406-.312 1.027 1.027 0 0 1-.156-.25 1.228 1.228 0 0 0-.125-.313l-.157-.344-1.968.25-.75.126c-.188.02-.615.093-1.282.218-.27.042-.562.125-.874.25a.806.806 0 0 0-.219.125c-.084.063-.157.094-.219.094H233c-.208 0-.438-.135-.688-.406a1.367 1.367 0 0 0-.25-.25c-.083-.104-.124-.177-.124-.219 0-.167.072-.323.218-.469.313-.312.75-.948 1.313-1.906.208-.292.458-.719.75-1.281a26.94 26.94 0 0 0 .687-1.406c-.021.062.094-.22.344-.844.188-.521.281-.854.281-1 .042-.23.115-.344.219-.344.083 0 .26.115.531.344.229.187.407.375.531.562.146.188.219.334.219.438a.39.39 0 0 1-.062.219 1.081 1.081 0 0 1-.219.218 3.59 3.59 0 0 0-.312.375c-.271.354-.605.896-1 1.625l-.626 1.094-.468.781-.344.594-.219.344a.132.132 0 0 0 0 .125c.021.02.052.031.094.031l1.594-.188 2.875-.312-.25-.656a21.604 21.604 0 0 0-.375-.969c-.021-.02-.031-.063-.031-.125 0-.063.031-.094.093-.094.104 0 .229.063.375.188.167.104.417.323.75.656.25.208.459.448.625.719.188.27.302.427.344.469.187.27.281.53.281.78 0 .126-.041.334-.125.626-.062.166-.146.281-.25.344-.083.062-.208.093-.375.093Zm2.156-11c.105 0 .261.073.469.219-.021.042.021.125.125.25l.219.219c.104.104.208.229.313.375.124.146.26.302.406.469.375.395 1.239 1.427 2.594 3.093.229.334.343.531.343.594 0 .208-.125.313-.375.313-.146 0-.302-.105-.468-.313-.396-.417-1.105-1.073-2.126-1.969-.791-.729-1.51-1.291-2.156-1.687-.312-.146-.468-.313-.468-.5 0-.146.156-.354.468-.625.292-.292.511-.438.656-.438Zm-35.906 18.125v.094c0 .48-.198.719-.594.719-.354 0-.718-.125-1.093-.375-.375-.23-.563-.521-.563-.875 0-.063.021-.219.063-.469.083-.417.125-.896.125-1.438l-.032-.687-.906-15.375c-.041-.73-.177-1.313-.406-1.75-.125-.292-.188-.469-.188-.531 0-.146.115-.219.344-.219.354 0 1.125.208 2.313.625l20.312-1.188h.344c.437 0 .813.126 1.125.376.312.25.469.53.469.843a.599.599 0 0 1-.094.313 2.192 2.192 0 0 0-.094.281l-1 15.156c.667.75 1 1.271 1 1.563 0 .187-.083.302-.25.344-.166.041-.437.072-.812.093l-20.157.563.094 1.937Zm-.187-3.75 18.25-.625.969-15.219-7.032.376-.062 6.374c0 .417.041.709.125.876a.676.676 0 0 0 .437.343c.229.042.594.063 1.094.063.708 0 1.26-.042 1.656-.125a6.423 6.423 0 0 0 1.125-.344.993.993 0 0 1 .281-.063c.209 0 .532.167.969.5.438.334.657.615.657.844 0 .146-.073.281-.219.406-.146.126-.344.209-.594.25-1.271.25-2.604.376-4 .376-.896 0-1.583-.053-2.063-.157-.458-.104-.833-.364-1.124-.781-.271-.438-.407-1.125-.407-2.063v-.124l.094-6.282-3.125.188c-.062 2.062-.26 3.791-.594 5.187-.333 1.375-.885 2.604-1.656 3.688-.771 1.083-1.854 2.114-3.25 3.094-.417.291-.75.437-1 .437-.167 0-.25-.083-.25-.25 0-.25.177-.542.531-.875 1.5-1.438 2.552-3.02 3.157-4.75.624-1.75.937-3.823.937-6.219v-.219l-5.687.313.781 14.781Zm75.969-3.094c-.126 0-.303-.093-.532-.28a2.02 2.02 0 0 1-.312-.25c-.084-.084-.125-.157-.125-.22l.031-.5c.021-.187.031-.604.031-1.25-.021-.458-.031-1.416-.031-2.874 0-.584-.052-1.115-.156-1.594l-.125-.75V73c0-.188.125-.24.375-.156.104.02.344.062.718.125.396-.063 1.719-.219 3.969-.469a9.167 9.167 0 0 0 1.157-.219h.124c.23 0 .438.115.626.344.333.396.468.677.406.844-.084.208-.167.562-.25 1.062-.042.292-.094.792-.156 1.5V79.75c0 .188-.094.438-.282.75a.484.484 0 0 1-.25.25.654.654 0 0 1-.344.094c-.124 0-.218-.031-.281-.094l-.125-.125a.346.346 0 0 0-.125-.125c-.021-.02-.062-.031-.125-.031-1.291 0-2.458.083-3.5.25-.083.02-.166.031-.25.031a.588.588 0 0 0-.187.031l-.219.031h-.062Zm.593-1.156c.521-.02 1.229-.083 2.125-.187.417-.042.656-.063.719-.063h.25c.333 0 .583.063.75.188.146-1.042.219-2.948.219-5.719-.042-.313-.167-.469-.375-.469-.396 0-1.198.073-2.407.219-.124 0-.25.01-.374.031l-.376.063a5.03 5.03 0 0 1-.781.094c-.146 0-.198.072-.156.218l-.031 1.063a2.866 2.866 0 0 0-.032.406c.021.125.032.24.032.344.021.166.031.437.031.812 0 1.625.01 2.521.031 2.688 0 .146.042.24.125.281a.353.353 0 0 0 .25.031Zm2.313-1.75c-.229 0-.406-.114-.532-.344a17.96 17.96 0 0 0-1.218-1.812l-.219-.344c-.083-.125-.125-.219-.125-.281.021-.083.073-.115.156-.094a4.388 4.388 0 0 1 1.5.813c.709.541 1.063.958 1.063 1.25a.878.878 0 0 1-.125.437c-.146.25-.313.375-.5.375Zm5.218-8.375c.105 0 .261.073.469.219-.021.042.021.125.125.25l.219.219c.104.104.208.229.313.375.124.146.26.302.406.469.375.395 1.239 1.427 2.594 3.093.229.334.343.531.343.594 0 .208-.125.313-.375.313-.146 0-.302-.105-.468-.313-.396-.417-1.105-1.073-2.126-1.969-.791-.729-1.51-1.291-2.156-1.687-.312-.146-.468-.313-.468-.5 0-.146.156-.354.468-.625.292-.292.511-.438.656-.438Zm-32.874 19.094v.156c0 .521-.167.781-.5.781-.167 0-.396-.062-.688-.187a2.47 2.47 0 0 1-.781-.531c-.209-.209-.313-.438-.313-.688l.032-.219c.062-.437.093-.916.093-1.437v-.625l-.5-18.469a6.954 6.954 0 0 0-.156-1.062c-.083-.396-.198-.719-.344-.969-.146-.292-.219-.5-.219-.625 0-.167.115-.25.344-.25.417 0 1.188.26 2.313.781l13.781-.719h.219c.312 0 .646.126 1 .376.354.229.531.5.531.812 0 .104-.021.219-.062.344-.042.125-.073.229-.094.312L270.469 85c.583.73.875 1.23.875 1.5 0 .146-.073.24-.219.281-.146.042-.406.073-.781.094l-13.688.469.032 1.281Zm-.407-13.531 12.594-.625.313-8-13.126.687.219 7.938Zm.313 10.375 11.875-.375.343-8.719-12.468.563.25 8.53Zm75.75-10.188c-.334 0-.532-.166-.594-.5-.125-.354-.458-.791-1-1.312l.094-.125c.083.041.323.146.718.312.396.146.667.219.813.219h.281a.609.609 0 0 0 .219-.156c.25-.188.563-.615.937-1.281.271-.542.511-1.178.719-1.907.229-.729.344-1.281.344-1.656 0-.104-.083-.156-.25-.156l-1.187.062-.813.063-.531.031-.219.031c.146.104.24.198.281.281a.336.336 0 0 1 .094.25c0 .105-.125.396-.375.876-.208.458-.542.979-1 1.562-.375.5-.885 1.042-1.531 1.625-.625.563-1.094.854-1.406.875a.59.59 0 0 1-.188-.031.21.21 0 0 1-.062-.156c0-.021.166-.22.5-.594l.874-1.031c.626-.834 1.261-1.896 1.907-3.188.062-.167.031-.26-.094-.281-.125.02-.385.052-.781.094-.396.02-.75.083-1.063.187-.021 0-.093.031-.219.094a1.023 1.023 0 0 1-.312.062.422.422 0 0 1-.312-.125l-.25-.219c-.188-.145-.282-.28-.282-.406 0-.041.021-.104.063-.187l.156-.25c.083-.104.219-.271.406-.5.188-.23.396-.542.625-.938.042-.083.125-.27.25-.562.146-.292.219-.469.219-.531v-.126c0-.124.021-.208.063-.25.041-.041.135-.041.281 0 .146.042.323.157.531.344l.344.344a.302.302 0 0 1 .094.219c0 .208-.292.583-.876 1.125a3.58 3.58 0 0 0-.374.469c-.146.208-.219.343-.219.406 0 .125.093.166.281.125l.719-.094c1.646-.25 2.885-.396 3.719-.438l.843-.124.281-.063.157-.031c.166 0 .281.02.343.062a.667.667 0 0 1 .188.219c.062.083.125.156.188.219.145.166.25.312.312.437l.062.281-.062.126-.062.187a1.769 1.769 0 0 0-.094.313 2.198 2.198 0 0 1-.094.28c-.438 1.688-.948 3-1.531 3.938-.188.334-.511.667-.969 1-.438.334-.823.5-1.156.5Zm2.844 8.531c.041.084.114.209.218.376.104.166.156.364.156.593a.593.593 0 0 1-.25.5.83.83 0 0 1-.562.219c-.188 0-.344-.188-.469-.563a6.13 6.13 0 0 0-.156-.343 2.141 2.141 0 0 0-.063-.25c-.27.083-.624.156-1.062.219-.438.062-.75.114-.938.156-1 .187-1.687.323-2.062.406a6.256 6.256 0 0 0-.469.156c-.166.042-.26.073-.281.094a.993.993 0 0 1-.281.063c-.167 0-.323-.073-.469-.22a1.699 1.699 0 0 1-.562-.75c-.021-.02-.032-.051-.032-.093s.052-.094.156-.156a2.42 2.42 0 0 1 .282-.125c.271-.146.75-.584 1.437-1.313l.844-.812-1.844-1c-.208-.063-.343-.136-.406-.219-.063-.083-.094-.208-.094-.375 0-.125.021-.208.063-.25.062-.063.187-.156.375-.281.187-.125.375-.292.562-.5.104-.125.24-.26.407-.406.166-.146.322-.303.468-.47.625-.728 1.021-1.301 1.188-1.718.104-.208.187-.313.25-.313.041 0 .125.042.25.126.396.291.635.562.718.812v.094c0 .104-.052.187-.156.25a1.173 1.173 0 0 0-.218.156c-.063.042-.376.344-.938.906l-.562.563-.532.531c-.25.23-.375.365-.375.406 0 .063.031.115.094.156a.717.717 0 0 1 .187.126l1.313.624c.813-.812 1.281-1.291 1.406-1.437.542-.625.844-1.02.907-1.188a.737.737 0 0 0 .093-.156c.042-.083.084-.125.125-.125.063 0 .125.031.188.094.333.313.573.604.718.875a.545.545 0 0 1 .063.156c0 .042-.052.104-.156.188l-.25.187c-.729.604-1.584 1.396-2.563 2.375L330 83.937c-.042.042-.062.084-.062.126 0 .041.02.072.062.093.042.021.104.021.188 0l3.656-.625a14.129 14.129 0 0 0-.375-1.25v-.062c0-.063.031-.094.093-.094.084 0 .209.063.376.188.333.291.75.791 1.25 1.5Zm2.374-9.593c.105 0 .261.073.469.219-.021.041.021.124.125.25l.219.218c.104.104.208.23.313.375.124.146.26.302.406.469.375.396 1.239 1.427 2.594 3.094.229.333.343.531.343.594 0 .208-.125.312-.375.312-.146 0-.302-.104-.468-.313-.396-.416-1.105-1.072-2.126-1.968-.791-.73-1.51-1.292-2.156-1.688-.312-.146-.468-.312-.468-.5 0-.146.156-.354.468-.625.292-.291.511-.437.656-.437Zm-32.093-7.813c-1.459 3-2.719 5.104-3.781 6.313 1.812-.23 3.958-.584 6.437-1.063l-.844-1c-.021-.02-.219-.25-.593-.687-.209-.23-.313-.427-.313-.594 0-.188.073-.354.219-.5.166-.146.333-.25.5-.313.166-.083.281-.135.344-.156.25 0 .75.448 1.5 1.344.75.896 1.468 1.854 2.156 2.875.708 1.02 1.062 1.635 1.062 1.844 0 .208-.166.437-.5.687-.333.25-.614.375-.844.375-.27 0-.51-.229-.718-.687a20.605 20.605 0 0 0-1-1.813c-2.396.542-4.615.938-6.656 1.188-.23.041-.428.083-.594.125a5.757 5.757 0 0 1-.438.094c-.166.02-.385.062-.656.124-.25.042-.438.063-.562.063-.25 0-.573-.156-.969-.469-.396-.312-.584-.552-.563-.719a.462.462 0 0 1 .25-.343c.292-.167.521-.323.688-.469.187-.167.416-.438.687-.813a62.546 62.546 0 0 0 1.75-2.906c.417-.77.802-1.562 1.157-2.375l-3.407.219h-.343c-.417 0-.761-.094-1.032-.281a2.4 2.4 0 0 1-.531-.719c-.125-.292-.187-.52-.187-.688 0-.104.052-.156.156-.156l.156.031c.542.084.948.126 1.219.126h.25l10.5-.657a4.15 4.15 0 0 0 .937-.187 1.1 1.1 0 0 1 .313-.031c.25 0 .541.166.875.5.333.333.5.624.5.874s-.24.396-.719.438l-6.406.406Zm-8.875 20.063c0-.146.104-.219.312-.219h.156c.126 0 .25.01.376.031.145.021.281.031.406.031.208 0 .781-.083 1.718-.25.959-.187 2.365-.53 4.219-1.03l.031-4.844-3.374.187h-.376c-.479 0-.833-.104-1.062-.313a2.308 2.308 0 0 1-.531-.75c-.146-.312-.219-.52-.219-.624 0-.084.052-.126.156-.126.021 0 .136.021.344.063.375.063.74.094 1.094.094h.406l3.594-.188v-2.219c0-.395-.115-.791-.344-1.187-.083-.104-.125-.198-.125-.281 0-.167.146-.25.437-.25.376 0 .803.094 1.282.281.479.167.718.406.718.719l-.031 2.875 2.781-.156c.48-.042.844-.105 1.094-.188.167-.063.302-.094.406-.094.25 0 .563.167.938.5.375.334.562.625.562.875 0 .271-.26.427-.781.469l-5 .25-.062 4.375a168.78 168.78 0 0 0 5.75-1.656c.271-.084.521-.125.75-.125.166 0 .291.031.375.094.104.041.156.104.156.187 0 .104-.073.23-.219.375-.146.125-.354.24-.625.344-3.208 1.291-6.187 2.385-8.937 3.281-2.729.896-4.281 1.344-4.657 1.344-.291 0-.572-.136-.843-.406a3.322 3.322 0 0 1-.625-.876c-.167-.312-.25-.51-.25-.593Zm17.281-19.219c0-.167.115-.25.344-.25.25 0 .625.094 1.125.281.416.146.677.281.781.406.125.126.187.323.187.594l.094 14c0 .5-.208.75-.625.75-.354 0-.698-.125-1.031-.375-.333-.27-.5-.594-.5-.969 0-.166.01-.291.031-.374.084-.396.125-.948.125-1.657l-.031-10.719c0-.479-.125-.916-.375-1.312a.794.794 0 0 1-.125-.375Zm1.813 18.781c0-.146.093-.219.281-.219.208 0 .458.073.75.22 1.458.77 2.76 1.343 3.906 1.718l.063-24.156c0-.459-.157-.927-.469-1.407-.084-.145-.125-.26-.125-.343 0-.188.135-.282.406-.282.292 0 .698.094 1.219.282.437.166.719.323.843.468.126.126.188.303.188.532l-.062 24.843.031.844c0 .584-.157 1.031-.469 1.344-.312.313-.635.469-.969.469-.333 0-.958-.313-1.875-.938a23.485 23.485 0 0 1-2.531-1.969c-.792-.708-1.187-1.177-1.187-1.406Zm-268.282 32.5a.662.662 0 0 1-.406-.312 1.055 1.055 0 0 1-.156-.25 1.204 1.204 0 0 0-.125-.313l-.157-.344-1.968.25-.75.126c-.188.02-.615.093-1.282.218a4.04 4.04 0 0 0-.874.25.83.83 0 0 0-.22.125c-.083.063-.156.094-.218.094H41c-.208 0-.438-.135-.688-.406a1.38 1.38 0 0 0-.25-.25c-.083-.104-.124-.177-.124-.219 0-.167.072-.323.218-.469.313-.312.75-.948 1.313-1.906.208-.292.458-.719.75-1.281.291-.563.52-1.032.687-1.406-.02.062.094-.219.344-.844.188-.521.281-.854.281-1 .042-.229.115-.344.219-.344.083 0 .26.115.531.344.23.187.407.375.532.562.145.188.218.334.218.438 0 .083-.02.156-.062.218a1.047 1.047 0 0 1-.219.219 3.812 3.812 0 0 0-.313.375c-.27.354-.604.896-1 1.625l-.624 1.094-.47.781-.343.594-.219.344a.133.133 0 0 0 0 .125c.021.021.052.031.094.031l1.594-.188 2.875-.312a92.874 92.874 0 0 0-.25-.656 21.86 21.86 0 0 0-.375-.969c-.021-.021-.032-.063-.032-.125s.032-.094.094-.094c.104 0 .23.063.375.188.167.104.417.323.75.656.25.208.459.448.625.719.188.271.302.427.344.469.188.27.281.531.281.781 0 .125-.041.333-.125.625-.062.166-.146.281-.25.344-.083.062-.208.093-.375.093Zm2.157-11c.104 0 .26.073.468.219-.02.042.021.125.125.25l.219.219c.104.104.208.229.313.375.124.146.26.302.406.468.375.396 1.24 1.428 2.593 3.094.23.334.344.532.344.594 0 .208-.125.312-.375.312-.146 0-.302-.104-.468-.312-.396-.417-1.105-1.073-2.126-1.969-.791-.729-1.51-1.291-2.156-1.687-.312-.146-.468-.313-.468-.5 0-.146.156-.354.468-.625.292-.292.51-.438.657-.438Zm-35.907 18.125v.094c0 .479-.198.719-.594.719-.354 0-.718-.125-1.093-.375-.375-.229-.563-.521-.563-.875 0-.063.021-.219.063-.469.083-.417.125-.896.125-1.438l-.031-.687-.907-15.375c-.041-.729-.177-1.312-.406-1.75-.125-.292-.188-.469-.188-.531 0-.146.115-.219.344-.219.354 0 1.125.208 2.313.625l20.312-1.187h.344c.438 0 .813.124 1.125.374.313.25.469.532.469.844a.605.605 0 0 1-.094.313 2.229 2.229 0 0 0-.094.281l-1 15.156c.667.75 1 1.271 1 1.563 0 .187-.083.302-.25.343-.166.042-.437.073-.812.094l-20.157.563.094 1.937Zm-.187-3.75 18.25-.625.968-15.219-7.03.376-.063 6.374c0 .417.041.709.125.876.083.166.229.281.437.343.23.042.594.063 1.094.063.708 0 1.26-.042 1.656-.125.396-.084.771-.198 1.125-.344a.985.985 0 0 1 .282-.063c.208 0 .53.167.968.5.438.334.657.615.657.844 0 .146-.073.282-.22.406-.145.126-.343.209-.593.25-1.27.25-2.604.376-4 .376-.896 0-1.583-.053-2.063-.157-.458-.104-.833-.364-1.125-.781-.27-.438-.406-1.125-.406-2.062v-.126l.094-6.281-3.125.188c-.063 2.062-.26 3.791-.594 5.187-.333 1.375-.885 2.604-1.656 3.688-.77 1.083-1.854 2.114-3.25 3.094-.417.291-.75.437-1 .437-.167 0-.25-.083-.25-.25 0-.25.177-.542.531-.875 1.5-1.438 2.552-3.021 3.156-4.75.625-1.75.938-3.823.938-6.219v-.219l-5.688.313.782 14.781Zm75.687-10.625c-.687-.25-1.01-.521-.969-.812.126-.875.188-1.875.188-3a13.526 13.526 0 0 0-.094-1.781c-.02-.209-.02-.323 0-.344a.422.422 0 0 1 .313-.125c.187 0 .416.083.687.25.292.166.438.333.438.5 0 .104-.01.208-.031.312-.021.084-.032.177-.032.281l-.187 3.094c0 .167.062.271.187.313h.156c.167 0 .282-.011.344-.031l4.031-.563v-.813c0-1.02-.02-1.812-.062-2.374-.02-.48-.073-.865-.156-1.157-.063-.333.02-.5.25-.5.166 0 .385.063.656.188.333.166.531.312.594.437.062.104.083.271.062.5-.041.375-.062.938-.062 1.688l.031 2.375c0 .5-.094.896-.281 1.187-.104.125-.209.188-.313.188-.104 0-.25-.094-.437-.282a1.77 1.77 0 0 1-.156-.187.42.42 0 0 0-.188-.156.809.809 0 0 0-.25-.031c-.48.041-1.635.197-3.469.468-.312.042-.562.125-.75.25-.208.104-.344.156-.406.156l-.094-.031Zm3.5 12.657c-.646 0-1.146-.021-1.5-.063a1.5 1.5 0 0 1-.844-.375c-.395-.292-.666-.927-.812-1.906l-.094-1c0-.25-.02-.563-.062-.938a5.495 5.495 0 0 0-.719.125 3.367 3.367 0 0 1-.219.094.84.84 0 0 1-.187.031.713.713 0 0 1-.406-.125c-.126-.083-.282-.239-.47-.469-.145-.187-.218-.312-.218-.374 0-.063.073-.105.219-.126.146-.02.344-.031.594-.031.354 0 .812-.041 1.374-.125l-.03-.437c0-.834-.053-1.542-.157-2.125l-.031-.219c0-.292.114-.406.344-.344.25.084.479.188.687.313.167.083.281.166.344.25.062.062.083.156.062.281l-.094 1.344v.812l2.75-.281c0-.146.01-.49.032-1.031.02-.563.02-.927 0-1.094 0-.167-.021-.323-.063-.469a5.899 5.899 0 0 0-.062-.406c0-.167.083-.25.25-.25.166 0 .375.094.625.281.291.188.479.354.562.5.104.146.125.323.063.531a5.685 5.685 0 0 0-.219 1.126c-.042.416-.063.666-.063.75.25-.021.48-.053.688-.094.208-.042.344-.063.406-.063a2.51 2.51 0 0 1 .594-.062c.125.021.302.146.531.375.188.25.281.448.281.594 0 .208-.197.291-.593.25a6.056 6.056 0 0 0-1.063-.094c-.354 0-.656.01-.906.031-.063.75-.188 1.49-.375 2.219a1.086 1.086 0 0 1-.219.437c-.104.104-.198.157-.281.157-.146 0-.24-.053-.281-.157a3.699 3.699 0 0 1-.031-.562c.041-.542.062-1.219.062-2.031-.563.041-1 .083-1.313.124-.479.105-.927.167-1.343.188-.021.854.02 1.615.125 2.281.062.438.187.74.375.907.125.104.27.166.437.187.188.021.375.031.563.031h.375c.646 0 1.25-.031 1.812-.094.167-.02.313-.062.438-.124.146-.063.25-.094.312-.094.188 0 .375.062.563.187.187.125.281.271.281.438 0 .166-.094.291-.281.375-.167.083-.438.156-.813.218-.666.084-1.333.126-2 .126Zm4.906-11.719c.105 0 .26.073.47.219-.022.041.02.124.124.25l.219.218c.104.104.208.229.313.375.124.146.26.302.406.469.375.396 1.239 1.427 2.594 3.094.229.333.343.531.343.594 0 .208-.125.312-.375.312-.146 0-.302-.104-.468-.312-.396-.417-1.105-1.073-2.126-1.969-.791-.729-1.51-1.292-2.156-1.688-.312-.146-.469-.312-.469-.5 0-.146.157-.354.47-.625.29-.291.51-.437.656-.437Zm-32.156 5.125c-.52 2.229-1.344 4.114-2.469 5.656-1.124 1.521-2.593 3.01-4.406 4.469-.437.354-.791.531-1.062.531-.146 0-.219-.073-.219-.219 0-.208.167-.489.5-.843 1.73-1.917 3.042-3.74 3.938-5.469.916-1.729 1.541-3.625 1.874-5.688.355-2.083.532-4.698.532-7.843V105c0-1.146-.104-2.031-.313-2.656a1.28 1.28 0 0 1-.093-.438c0-.166.093-.25.28-.25.334 0 1.063.282 2.188.844l11.156-.656.344-.032c.354 0 .667.146.938.438.27.271.406.51.406.719a1.2 1.2 0 0 1-.094.375 1.222 1.222 0 0 0-.094.406l.157 21.656.031 1.063c0 .437-.104.802-.313 1.093-.187.292-.406.5-.656.626-.25.145-.458.218-.625.218-.375 0-1.01-.323-1.906-.968a20.021 20.021 0 0 1-2.5-2.063c-.77-.729-1.156-1.229-1.156-1.5 0-.125.073-.187.219-.187.229 0 .572.135 1.03.406a20.04 20.04 0 0 0 3.813 1.75l-.062-8.969-11.438.469Zm11.438-2.188-.031-4.875-10.72.407c-.083 2.25-.208 3.895-.374 4.937l11.125-.469Zm-.031-6.687-.032-4.781-10.562.656-.063 4.656 10.656-.531Zm63.718.781c-.333 0-.541-.094-.625-.281a4.314 4.314 0 0 0-.312-.625c-.104-.188-.292-.406-.563-.656l.063-.126c.75.271 1.239.407 1.468.407.167 0 .292-.031.376-.094.083-.063.218-.208.406-.437.271-.292.521-.74.75-1.344.312-.896.51-1.823.594-2.782v-.093c0-.125-.021-.209-.063-.25-.271 0-.99.062-2.156.187-.646 1.604-1.396 2.927-2.25 3.969-.834 1.021-1.594 1.531-2.281 1.531-.167 0-.25-.062-.25-.187 0-.042.208-.281.624-.719.417-.438.876-1.01 1.376-1.719.52-.729 1.01-1.625 1.468-2.687-.104 0-.406.021-.906.062-.5.042-.927.115-1.281.219a.495.495 0 0 1-.531.063l-.063-.032a.487.487 0 0 1-.125-.094 1.352 1.352 0 0 1-.375-.312.831.831 0 0 1-.125-.406c0-.063.052-.146.156-.25l.375-.5c.125-.167.24-.406.344-.719.104-.333.156-.615.156-.844 0-.146-.01-.239-.031-.281a.347.347 0 0 1-.031-.156c0-.104.052-.156.156-.156.125 0 .302.072.531.218.063.042.177.125.344.25.188.104.292.229.312.375 0 .146-.083.386-.25.719l-.406.719a.388.388 0 0 0-.062.219c0 .062.021.114.062.156a.387.387 0 0 0 .219 0l1.875-.25c.208-.542.375-1.115.5-1.719V99.906c0-.229.062-.323.188-.281.27.063.489.146.656.25.312.187.468.344.468.469 0 .104-.041.281-.124.531a10.71 10.71 0 0 1-.157.531 13.97 13.97 0 0 1-.281.813c.062 0 .448-.042 1.156-.125l.313-.063c.062 0 .177-.021.343-.062a.349.349 0 0 1 .157-.031c.25 0 .406.01.469.031.083.021.208.083.374.187.188.125.313.25.376.375a.755.755 0 0 1 .062.438l-.188 1.031-.218 1.125c0 .083-.073.354-.219.813a7.462 7.462 0 0 1-.5 1.218c-.354.709-.771 1.24-1.25 1.594-.417.333-.781.5-1.094.5Zm-4.062 5.219c-.229 0-.511-.177-.844-.531-.25-.25-.375-.438-.375-.563 0-.063.042-.094.125-.094.083-.021.187-.031.313-.031l.687-.031c.396 0 .656-.011.781-.031.396 0 .729-.011 1-.032 1.792-.166 3-.302 3.625-.406.313-.042.594-.083.844-.125a2.58 2.58 0 0 1 .594-.094c.291 0 .583.146.875.438.229.229.344.416.344.562 0 .125-.073.209-.219.25-.104.021-.719.063-1.844.125-.625.021-1.396.073-2.313.156-.916.084-1.718.167-2.406.25-.125.021-.302.053-.531.094a3.642 3.642 0 0 1-.656.063Zm7.343 12.312c-.02.021-.072.031-.156.031-.166 0-.406-.114-.718-.343a82.515 82.515 0 0 0-2.782-2.625 22.158 22.158 0 0 1-1.531 1.406c-.167.125-.458.312-.875.562-.604.355-1.188.573-1.75.657h-.188c-.187 0-.302-.021-.343-.063-.021-.021.021-.062.125-.125.125-.062.218-.114.281-.156.125-.063.479-.292 1.063-.687.291-.209.708-.563 1.25-1.063.541-.5.937-.906 1.187-1.219l-1.281-1a39.424 39.424 0 0 0-.75-.531 5.042 5.042 0 0 0-.532-.406l-.031-.094c0-.125.104-.187.313-.187.25 0 .656.156 1.218.468l1.594 1.032c.354-.459.709-.959 1.063-1.5.375-.563.573-.896.593-1 .021-.063.011-.115-.031-.157-.021-.062-.062-.093-.125-.093h-.625l-1.125.093a15.7 15.7 0 0 0-1.687.219 9.103 9.103 0 0 1-.313.094 1.427 1.427 0 0 1-.375.062c-.041 0-.219-.114-.531-.344-.292-.25-.448-.406-.469-.468-.021-.021-.031-.052-.031-.094 0-.104.115-.146.344-.125h.437c.584 0 1.427-.052 2.531-.156l1.063-.094.969-.125c.312-.083.489-.125.531-.125h.063c.104 0 .197.031.281.094a.785.785 0 0 1 .187.187.918.918 0 0 0 .094.125l.188.188a.49.49 0 0 1 .187.25.381.381 0 0 1 .063.219c0 .187-.073.322-.219.406-.104.041-.292.26-.563.656-.458.729-1.01 1.51-1.656 2.344.354.229.812.562 1.375 1 .25.166.656.448 1.219.844a1.7 1.7 0 0 1 .562.75c.084.333.125.583.125.75-.021.166-.093.281-.219.343Zm1.75-11.125c.105 0 .261.073.469.219-.021.042.021.125.125.25l.219.219c.104.104.208.229.313.375.124.146.26.302.406.469.375.395 1.239 1.427 2.594 3.093.229.334.343.531.343.594 0 .208-.125.313-.375.313-.146 0-.302-.105-.468-.313-.396-.417-1.105-1.073-2.126-1.969-.791-.729-1.51-1.291-2.156-1.687-.312-.146-.468-.313-.468-.5 0-.146.156-.354.468-.625.292-.292.511-.438.656-.438Zm-14.374 8.5c0 .25-.167.552-.5.906-.334.355-.667.532-1 .532-.271 0-.532-.156-.782-.469a188.936 188.936 0 0 0-3.906-4.937c-1.396-1.709-2.594-3.094-3.594-4.157-.166-.166-.25-.343-.25-.531 0-.312.146-.583.438-.812.312-.23.552-.344.718-.344.23 0 .48.135.75.406 2.313 2.25 4.928 5.156 7.844 8.719.188.25.282.479.282.687Zm-26.032-14.5c0-.146.084-.218.25-.218.104 0 .188.01.25.031.334.104.782.156 1.344.156h.375L128.5 108.5c.583-.042 1.042-.125 1.375-.25a.977.977 0 0 1 .281-.062c.146 0 .365.093.656.281.313.166.584.385.813.656.25.25.375.49.375.719a.506.506 0 0 1-.219.437 1.13 1.13 0 0 1-.562.188l-23.094 1.187c-.542.042-.896.063-1.063.063l-.468-.031a7.219 7.219 0 0 0-.282-.126c-.291-.208-.562-.52-.812-.937-.229-.437-.344-.76-.344-.969Zm.438 16.344c0-.271.25-.688.75-1.25 2.562-2.812 4.718-5.771 6.468-8.875a2.86 2.86 0 0 0 .344-1.406c0-.334.104-.5.313-.5.166 0 .427.135.781.406.354.25.667.542.938.875.27.333.406.635.406.906 0 .125-.021.209-.063.25a38.636 38.636 0 0 1-3.812 4.813c-1.375 1.5-2.625 2.708-3.75 3.625-1.104.916-1.813 1.375-2.125 1.375-.167 0-.25-.073-.25-.219Zm8.031-23.812c0-.167.073-.407.219-.719.166-.313.364-.479.594-.5.208-.042 1.104.385 2.687 1.281a65.936 65.936 0 0 1 4.5 2.719c.333.208.531.437.594.687.021.271-.104.594-.375.969-.25.354-.479.552-.688.594-.229 0-.5-.125-.812-.375a49.327 49.327 0 0 0-3.156-2.219 41.567 41.567 0 0 0-3-1.844c-.355-.187-.542-.385-.563-.593Zm71.813 16.624c-.126 0-.303-.093-.532-.281a1.968 1.968 0 0 1-.312-.25c-.084-.083-.125-.156-.125-.219l.031-.5c.021-.187.031-.604.031-1.25-.021-.458-.031-1.416-.031-2.874 0-.584-.052-1.115-.156-1.594l-.125-.75V111c0-.188.125-.24.375-.156.104.021.344.062.718.125.396-.063 1.719-.219 3.969-.469a9.167 9.167 0 0 0 1.157-.219h.124c.23 0 .438.115.626.344.333.396.468.677.406.844-.084.208-.167.562-.25 1.062-.042.292-.094.792-.156 1.5V117.75c0 .188-.094.438-.282.75a.483.483 0 0 1-.25.25.658.658 0 0 1-.344.094c-.124 0-.218-.032-.281-.094l-.125-.125a.343.343 0 0 0-.125-.125c-.021-.021-.062-.031-.125-.031-1.291 0-2.458.083-3.5.25a1.013 1.013 0 0 1-.25.031.582.582 0 0 0-.187.031l-.219.031h-.062Zm.593-1.156a29.918 29.918 0 0 0 2.125-.187 13.7 13.7 0 0 1 .719-.063h.25c.333 0 .583.063.75.188.146-1.042.219-2.948.219-5.719-.042-.313-.167-.469-.375-.469-.396 0-1.198.073-2.407.219-.124 0-.25.01-.374.031l-.376.063a5.057 5.057 0 0 1-.781.093c-.146 0-.198.073-.156.219l-.031 1.063a2.865 2.865 0 0 0-.032.406c.021.125.032.24.032.344.021.166.031.437.031.812 0 1.625.01 2.521.031 2.688 0 .146.042.239.125.281a.35.35 0 0 0 .25.031Zm2.313-1.75c-.229 0-.406-.114-.532-.344a17.946 17.946 0 0 0-1.218-1.812l-.219-.344c-.083-.125-.125-.218-.125-.281.021-.083.073-.115.156-.094a4.395 4.395 0 0 1 1.5.813c.709.541 1.063.958 1.063 1.25a.877.877 0 0 1-.125.437c-.146.25-.313.375-.5.375Zm5.218-8.375c.105 0 .261.073.469.219-.021.042.021.125.125.25l.219.219c.104.104.208.229.313.375.124.146.26.302.406.468.375.396 1.239 1.428 2.594 3.094.229.334.343.532.343.594 0 .208-.125.312-.375.312-.146 0-.302-.104-.468-.312-.396-.417-1.105-1.073-2.126-1.969-.791-.729-1.51-1.291-2.156-1.687-.312-.146-.468-.313-.468-.5 0-.146.156-.354.468-.625.292-.292.511-.438.656-.438Zm-32.874 19.094v.156c0 .521-.167.781-.5.781-.167 0-.396-.062-.688-.187a2.471 2.471 0 0 1-.781-.531c-.209-.209-.313-.438-.313-.688l.032-.218c.062-.438.093-.917.093-1.438v-.625l-.5-18.469a6.955 6.955 0 0 0-.156-1.062c-.083-.396-.198-.719-.344-.969-.146-.292-.219-.5-.219-.625 0-.167.115-.25.344-.25.417 0 1.188.26 2.313.781l13.781-.719h.219c.312 0 .646.126 1 .376.354.229.531.5.531.812 0 .104-.021.219-.062.344a4.38 4.38 0 0 0-.094.312L174.469 123c.583.729.875 1.229.875 1.5 0 .146-.073.24-.219.281-.146.042-.406.073-.781.094l-13.688.469.032 1.281Zm-.407-13.531 12.594-.625.313-8-13.126.687.219 7.938Zm.313 10.375 11.875-.375.343-8.719-12.468.563.25 8.531ZM238.031 113c-.312 0-.583-.115-.812-.344a23.902 23.902 0 0 0-2.094-2.031c-.792-.667-1.49-1.167-2.094-1.5-.291-.167-.437-.427-.437-.781 0-.063.073-.146.218-.25.188-.125.49-.396.907-.813l1.125-1.093c.5-.521.916-.99 1.25-1.407.354-.416.552-.708.594-.875.02-.041.041-.125.062-.25.042-.146.104-.218.188-.218.104 0 .239.052.406.156.187.104.344.208.468.312.313.292.469.542.469.75-.021.063-.104.136-.25.219a5.54 5.54 0 0 0-.343.187c-.105.084-.48.417-1.126 1l-2.031 1.75c-.354.292-.531.521-.531.688 0 .083.167.219.5.406.396.25 1.167.761 2.312 1.532.438.291.855.614 1.25.968.334.334.5.677.5 1.032a.56.56 0 0 1-.218.437.427.427 0 0 1-.313.125Zm-5.562 7.094c-.229 0-.511-.177-.844-.532-.25-.25-.375-.437-.375-.562 0-.062.042-.094.125-.094.083-.021.187-.031.313-.031l.687-.031c.396 0 .656-.011.781-.032.396 0 .729-.01 1-.031 1.792-.166 3-.302 3.625-.406.313-.042.594-.083.844-.125.25-.062.448-.094.594-.094.291 0 .583.146.875.438.229.229.344.416.344.562 0 .125-.073.209-.219.25-.104.021-.719.063-1.844.125-.625.021-1.396.073-2.313.157-.916.083-1.718.166-2.406.25-.125.02-.302.052-.531.093a3.642 3.642 0 0 1-.656.063Zm13.093-10.375c.25 0 .376.114.376.343 0 .126-.115.303-.344.532-.625.771-1.865 2.239-3.719 4.406-.146.188-.281.281-.406.281-.104 0-.334-.156-.688-.469-.291-.25-.437-.458-.437-.624 0-.188.156-.365.468-.532.48-.271 1.198-.812 2.157-1.625.958-.854 1.666-1.531 2.125-2.031.187-.188.344-.281.468-.281Zm-43.124 10.75c-.417 0-.782-.094-1.094-.281-.292-.188-.552-.626-.782-1.313l-.062-.25c0-.104.073-.156.219-.156.083 0 .156.01.219.031.479.104.947.156 1.406.156h.344l6.25-.25-.25-11.687-2.407.156c-.541.042-.948.063-1.219.063-.458 0-.77-.073-.937-.219a3.064 3.064 0 0 1-.625-.719c-.167-.312-.25-.573-.25-.781 0-.104.073-.157.219-.157l.187.032c.396.083.771.125 1.125.125l.625-.031 3.219-.219-.063-3.031c0-.542-.124-.99-.374-1.344-.084-.125-.126-.209-.126-.25 0-.146.136-.219.407-.219.25 0 .604.063 1.062.187.417.126.698.261.844.407.146.146.219.385.219.719l.062 3.406 7.688-.375.062-3.188c0-.333-.021-.593-.062-.781a1.422 1.422 0 0 0-.282-.594c-.083-.125-.124-.208-.124-.25 0-.125.124-.187.374-.187.292 0 .688.073 1.188.219.375.104.635.24.781.406.146.146.219.364.219.656v.125l-.094 3.469 1.532-.125a9.583 9.583 0 0 0 1.656-.25.94.94 0 0 1 .281-.031c.271 0 .542.083.813.25.27.166.489.364.656.593.166.209.25.375.25.5a.416.416 0 0 1-.156.344.803.803 0 0 1-.407.156l-4.656.313-.281 11.906 4.968-.219c.626-.041 1.146-.125 1.563-.25.125-.041.229-.062.313-.062.333 0 .708.177 1.124.531.417.333.626.646.626.938 0 .145-.053.27-.157.374a.585.585 0 0 1-.343.157l-24.657.969-1.093.031Zm.968 7.343c0-.229.188-.468.563-.718a46.946 46.946 0 0 0 4.125-3.344c1.25-1.146 1.948-2.104 2.094-2.875.062-.208.156-.313.281-.313.166 0 .385.126.656.376.292.25.542.531.75.843.229.313.344.531.344.657a.296.296 0 0 1-.094.218c-1.187 1.209-2.385 2.219-3.594 3.032-1.208.812-2.25 1.406-3.125 1.781-.875.396-1.427.593-1.656.593-.229 0-.344-.083-.344-.25Zm7.313-18.5 7.562-.406.031-2.718-7.624.406.031 2.718Zm.093 4.376 7.407-.313.031-2.781-7.5.375.062 2.719Zm.094 4.624 7.219-.25.063-3.031-7.344.344.062 2.937Zm5.906 3.719c0-.166.094-.406.282-.719.208-.312.437-.468.687-.468.25 0 1.104.5 2.563 1.5a47.693 47.693 0 0 1 4.406 3.312c.271.209.406.427.406.656 0 .271-.146.563-.437.876-.271.312-.531.468-.781.468-.209 0-.428-.114-.657-.344-2.25-2.062-4.302-3.666-6.156-4.812-.208-.146-.313-.302-.313-.469Zm63.594-12.625c-.312 0-.594-.125-.844-.375-.312-.229-.468-.406-.468-.531 0-.146.239-.219.718-.219l1.532-.093 1.562-.157c.042-.333.063-.969.063-1.906.062 0-.261.042-.969.125l-.594.094a1.258 1.258 0 0 1-.5.125.424.424 0 0 1-.312-.125c-.334-.292-.5-.542-.5-.75v-1.469c0-.146-.052-.708-.156-1.687l-.032-.344c0-.167.032-.271.094-.313.062-.041.177-.041.344 0 .625.167.927.354.906.563l-.031.218a8.181 8.181 0 0 0-.063 1.126c0 .541.011.885.032 1.031.041.416.062.614.062.593.021.084.094.126.219.126s.375-.032.75-.094c.396-.084.656-.136.781-.156v-2.75c0-.771-.031-1.292-.094-1.563a4.718 4.718 0 0 1-.062-.344c0-.146.052-.219.156-.219.042 0 .188.042.438.126.395.187.656.354.781.5.146.145.198.302.156.468-.063.209-.104.625-.125 1.25-.042.5-.083 1.313-.125 2.438l1.063-.032c.208 0 .364-.01.468-.031.104-.021.156-.062.156-.125.146-.791.24-1.479.282-2.062l.031-.375c.021-.042.021-.115 0-.219v-.219l-.031-.219c0-.187.073-.281.218-.281.084 0 .261.084.532.25.062.042.146.104.25.188a.524.524 0 0 1 .25.219.447.447 0 0 1 .062.25c0 .124-.01.229-.031.312l-.344 1.75-.093.719c-.084.479-.334.739-.75.781a1.095 1.095 0 0 1-.313-.094.311.311 0 0 0-.156-.062c-.25 0-.771.052-1.563.156l-.031 1.938.531-.032.5-.031c.771 0 1.344-.042 1.719-.125.167 0 .313-.021.437-.062l.094-.032c.209 0 .427.146.656.438.271.271.407.468.407.594 0 .187-.292.25-.875.187l-1.188-.063h-1.562c-.313 0-.886.042-1.719.126-.437 0-.833.02-1.187.062a5.018 5.018 0 0 0-1 .219l-.532.187Zm6.782 8.188c-.313 0-.615-.229-.907-.688a9.915 9.915 0 0 0-1.093-1.437l-.813-.844c-.437.5-.823.896-1.156 1.187a6.246 6.246 0 0 1-1.188.844c-.896.521-1.646.782-2.25.782-.146 0-.219-.053-.219-.157 0-.062.198-.198.594-.406a6.556 6.556 0 0 0 1.125-.75c.896-.75 1.636-1.521 2.219-2.313-.125-.124-.75-.666-1.875-1.624a10.808 10.808 0 0 1-.656-.532 7.062 7.062 0 0 1-.375-.281c-.188-.146-.282-.25-.282-.313 0-.104.053-.156.157-.156.312 0 .812.219 1.5.656.687.417 1.406.917 2.156 1.5.292-.354.521-.687.687-1 .167-.312.355-.697.563-1.156.104-.229.167-.427.187-.594.021-.187.032-.302.032-.343 0-.229.062-.344.187-.344.146 0 .344.115.594.344.437.416.656.698.656.843 0 .084-.052.178-.156.282-.25.25-.479.583-.687 1-.126.25-.355.604-.688 1.062-.104.125-.188.24-.25.344a3.044 3.044 0 0 1-.188.281c.48.354 1.188.959 2.126 1.813.229.208.374.406.437.594.083.166.125.395.125.687a.891.891 0 0 1-.156.531.505.505 0 0 1-.406.188Zm-6.907 9.344c-.312 0-.552-.084-.719-.25-.187-.188-.281-.355-.281-.5 0-.146.084-.303.25-.469.021-.021.136-.188.344-.5.458-.729.979-1.657 1.563-2.781.604-1.146.979-1.928 1.124-2.344.126-.396.24-.74.344-1.032.125-.291.229-.437.313-.437.146 0 .271.052.375.156.104.084.208.209.312.375.125.146.219.25.282.313.145.166.218.323.218.469a.495.495 0 0 1-.125.312 1.565 1.565 0 0 0-.156.219l-1.375 2.312a64.282 64.282 0 0 1-1.406 2.407.495.495 0 0 0-.125.312c0 .083.093.125.281.125.396 0 1.135-.052 2.219-.156 1.083-.084 1.812-.157 2.187-.219.542-.062.917-.125 1.125-.188.229-.062.563.094 1 .469.521.438.636.719.344.844-.167.083-.49.125-.969.125h-1.25c-.271 0-.698.021-1.281.062-.354 0-.75.011-1.187.032-.438.021-.803.041-1.094.062-.334.021-.979.084-1.938.188l-.375.094Zm-16.875.843c0 .521-.208.781-.625.781-.312 0-.656-.114-1.031-.343-.375-.209-.562-.521-.562-.938l.031-.219c.104-.666.156-1.312.156-1.937l.031-8.063-6.812.282.094.937v.094c0 .396-.198.594-.594.594-.334 0-.677-.104-1.032-.313-.354-.208-.531-.51-.531-.906v-.25c.042-.458.063-.76.063-.906 0-.209-.021-.5-.063-.875l-.562-6.813c-.063-.687-.24-1.271-.531-1.75-.167-.271-.25-.468-.25-.594 0-.166.114-.25.343-.25.375 0 1.104.219 2.188.657l7.75-.469.031-5.375c0-.479-.115-.927-.344-1.344a.831.831 0 0 1-.125-.406c0-.167.136-.25.407-.25.124 0 .354.042.687.125.354.063.677.188.969.375.312.188.468.437.468.75l-.031 6 8.438-.5c.187-.021.416-.031.687-.031.375 0 .677.083.906.25.23.166.386.354.469.562.104.188.157.334.157.438 0 .125-.053.281-.157.468-.083.188-.125.323-.125.407l-.875 6.75c.584.666.875 1.135.875 1.406 0 .167-.083.281-.25.344a4.82 4.82 0 0 1-.812.093l-9.375.407-.063 10.812Zm-8.937-12.219 6.969-.312.031-6.906-7.594.437.594 6.781Zm16.625-.75.75-7.062-8.313.469-.062 6.937 7.625-.344Zm57.375.594c-.229 0-.511-.177-.844-.531-.25-.25-.375-.437-.375-.563 0-.062.042-.093.125-.093.083-.021.187-.031.313-.031l.687-.032c.396 0 .656-.01.781-.031.396 0 .729-.01 1-.031 1.792-.167 3-.302 3.625-.406.313-.042.594-.084.844-.126.25-.062.448-.093.594-.093.291 0 .583.146.875.437.229.229.344.417.344.563 0 .125-.073.208-.219.25-.104.021-.719.062-1.844.125-.625.021-1.396.073-2.313.156-.916.083-1.718.167-2.406.25-.125.021-.302.052-.531.094a3.73 3.73 0 0 1-.656.062Zm9.093-7.875c.105 0 .261.073.469.219-.021.042.021.125.125.25l.219.219c.104.104.208.229.313.375.124.146.26.302.406.468.375.396 1.239 1.428 2.594 3.094.229.334.343.532.343.594 0 .208-.125.312-.375.312-.146 0-.302-.104-.468-.312-.396-.417-1.105-1.073-2.126-1.969-.791-.729-1.51-1.291-2.156-1.687-.312-.146-.468-.313-.468-.5 0-.146.156-.354.468-.625.292-.292.511-.438.656-.438ZM299.625 115c-.229.021-.51.031-.844.031-.416 0-.729-.073-.937-.219-.229-.187-.459-.5-.688-.937-.208-.437-.312-.729-.312-.875 0-.125.052-.188.156-.188l.25.063c.375.104.771.156 1.188.156L299 113l22.156-1.125a4.71 4.71 0 0 0 1.313-.281.428.428 0 0 1 .187-.032c.167 0 .396.094.688.282.312.187.583.416.812.687.229.25.344.479.344.688 0 .312-.24.489-.719.531L299.625 115Zm-256.75 31.469c-.313 0-.542-.167-.688-.5l-.28-.625c-.813.208-1.47.364-1.97.468l-2.03.5c-.417.105-.678.157-.782.157a.69.69 0 0 1-.313-.063 29.926 29.926 0 0 1-.156-.156 1.552 1.552 0 0 1-.093-.156c-.167-.292-.24-.49-.22-.594l.22-.344c.541-.75 1.041-1.823 1.5-3.218l-.626.093-.812.094c-.063.021-.198.063-.406.125-.188.042-.334.031-.438-.031-.229-.146-.531-.407-.906-.781-.083-.084-.125-.146-.125-.188 0-.125.23-.188.688-.188H36.5a39.322 39.322 0 0 0 1.938-.156c.124-.312.26-.708.406-1.187.146-.479.25-.865.312-1.157v-.374c.021-.188.063-.303.125-.344h.032c.083 0 .197.041.343.125.146.083.282.187.407.312.395.396.51.709.343.938-.083.021-.26.364-.531 1.031-.02.042-.094.229-.219.562l1.813-.218c.479-.042.843-.094 1.093-.156.355-.105.636-.157.844-.157.167 0 .302.063.407.188l.218.219c.063.062.136.187.219.374.083.146.115.25.094.313-.084.125-.23.187-.438.187-.687-.041-1.51-.02-2.468.063-.417.042-.73.083-.938.125l-1.219.125-.281.844-.344.75c-.104.25-.218.5-.343.75-.126.25-.22.458-.282.625a.432.432 0 0 0-.031.187c0 .104.063.157.188.157.166 0 .74-.094 1.718-.282l1.157-.187.53-.125c-.187-.521-.333-.854-.437-1a2.957 2.957 0 0 1-.187-.282l.187-.187c.813.521 1.469 1.052 1.969 1.594.146.187.24.364.281.531.063.167.084.354.063.562a.868.868 0 0 1-.219.438c-.042.104-.167.177-.375.219Zm-6.563 6c-.229 0-.51-.177-.843-.531-.25-.25-.375-.438-.375-.563 0-.063.041-.094.125-.094.083-.021.187-.031.312-.031l.688-.031c.396 0 .656-.011.781-.031.396 0 .73-.011 1-.032 1.792-.166 3-.302 3.625-.406.313-.042.594-.083.844-.125a2.58 2.58 0 0 1 .593-.094c.292 0 .584.146.876.438.229.229.343.416.343.562 0 .125-.073.209-.218.25-.105.021-.72.063-1.844.125a42.03 42.03 0 0 0-2.313.156c-.916.084-1.718.167-2.406.25-.125.021-.302.053-.531.094-.23.042-.448.063-.657.063Zm4.657 6.969c-.209.27-.427.406-.657.406-.062 0-.093-.052-.093-.156 0-.146.041-.313.125-.5l.625-1.25c.02-.084.052-.167.093-.25.042-.084.073-.157.094-.219v-.031c0-.042-.031-.084-.093-.126a.265.265 0 0 0-.22-.031c-.333.021-.833.073-1.5.157-.645.083-1.124.166-1.437.25l-.468.156a1.238 1.238 0 0 1-.407.094c-.375 0-.687-.115-.937-.344a1.927 1.927 0 0 1-.469-.438l-.063-.156c0-.104.178-.135.532-.094.479.042 1.468-.021 2.968-.187l.626-.094.78-.094c.376-.062.667-.125.876-.187l.187-.063a.512.512 0 0 1 .219-.062c.104 0 .23.052.375.156.167.104.302.198.406.281.146.104.24.198.282.282.062.062.083.145.062.25 0 .104-.052.197-.156.281a3.063 3.063 0 0 0-.219.187c-.042.063-.188.219-.438.469-.104.167-.291.396-.562.687-.25.292-.427.5-.531.626Zm-1.563 6.156c0-.063.104-.229.313-.5.229-.25.406-.448.531-.594.313-.417.688-1.021 1.125-1.812.458-.792.719-1.313.781-1.563.042-.125-.02-.187-.187-.187-.334 0-1.25.093-2.75.281-.98.125-1.709.25-2.188.375a.608.608 0 0 1-.312.094c-.167 0-.344-.115-.532-.344a.831.831 0 0 1-.124-.406c0-.084.052-.167.156-.25l.093-.126c.063-.124.136-.291.22-.5.083-.208.156-.406.218-.593.104-.334.177-.698.219-1.094.02-.229.146-.292.375-.187.291.145.51.291.656.437.167.125.219.219.156.281-.208.25-.375.532-.5.844a8.383 8.383 0 0 0-.187.656c0 .084.052.125.156.125.313 0 .781-.052 1.406-.156l1.313-.156c.52-.063.937-.125 1.25-.188l.781-.156a.809.809 0 0 1 .25-.031c.104 0 .208.041.313.125.104.062.218.146.343.25.209.187.344.343.407.469a.714.714 0 0 1 .093.374c0 .084-.062.188-.187.313-.104.125-.23.323-.375.594-.604 1.229-1.386 2.26-2.344 3.093-.27.209-.573.386-.906.532a1.51 1.51 0 0 1-.407.062c-.104.021-.156 0-.156-.062Zm-19.593-14.532c1.5 2.709 3.343 5.073 5.53 7.094a29.89 29.89 0 0 0 7.345 4.938c.395.208.593.375.593.5 0 .083-.114.239-.343.468a3.01 3.01 0 0 1-.75.594c-.292.188-.553.282-.782.282a.66.66 0 0 1-.343-.094c-2.917-1.729-5.396-3.615-7.438-5.656-2.042-2.042-3.802-4.417-5.281-7.126-.313.98-.594 1.74-.844 2.282-.958 2.125-2.333 3.989-4.125 5.594-1.792 1.583-3.531 2.812-5.219 3.687-1.687.896-2.76 1.344-3.219 1.344-.25 0-.375-.084-.375-.25 0-.229.209-.459.625-.688 2.375-1.416 4.657-3.177 6.844-5.281 2.188-2.104 3.646-4.604 4.375-7.5l-7.125.406c-.187.021-.479.032-.875.032-.458 0-.76-.073-.906-.219-.396-.313-.698-.75-.906-1.313a.346.346 0 0 1-.032-.156c0-.125.063-.188.188-.188.063 0 .115.011.156.032.334.104.771.156 1.313.156h.406l8.125-.5c.354-1.979.531-4.26.531-6.844l-6.375.438a5.484 5.484 0 0 1-.656.031c-.438 0-.77-.073-1-.219-.25-.166-.48-.458-.688-.875-.187-.416-.28-.666-.28-.75 0-.104.062-.156.187-.156.104 0 .187.01.25.031.416.104.854.156 1.312.156h.281l14.907-1c.5-.041 1-.135 1.5-.281a1.01 1.01 0 0 1 .281-.062c.25 0 .594.198 1.031.593.438.396.657.719.657.969s-.25.396-.75.438l-8.438.562c-.063 2.854-.24 5.136-.531 6.844l8.781-.5a3.77 3.77 0 0 0 1.156-.281c.125-.042.209-.063.25-.063.271 0 .625.198 1.063.594.437.396.656.708.656.937 0 .25-.26.396-.781.438l-10.282.562Zm48.624-.124c0 .791-.27 1.572-.812 2.343a7.775 7.775 0 0 1-1.875 1.907c-.708.5-1.26.75-1.656.75-.167 0-.292-.042-.375-.126a.58.58 0 0 1-.125-.374c0-.23.083-.396.25-.5.416-.292.875-.709 1.375-1.25.52-.542.854-1 1-1.376-.125 0-.302-.041-.531-.124-.209-.105-.334-.178-.376-.219a3.297 3.297 0 0 1-.656-.75 1.97 1.97 0 0 1-.281-1.031c0-.542.198-.98.594-1.313.416-.333.906-.5 1.469-.5.5 0 .937.229 1.312.687.375.438.604.969.688 1.594v.282Zm71.532-7.407c0 .459-.021.896-.063 1.313l-.062 1.75a57.435 57.435 0 0 1-.188 2.406c-.021.333-.125.594-.312.781-.167.188-.323.281-.469.281-.167-.02-.313-.166-.437-.437a1.793 1.793 0 0 1-.094-.875c.021-.167.083-.854.187-2.062.042-1.292.021-2.157-.062-2.594-.021-.146-.167-.24-.438-.282h-.875l-1.437.126c-.292.02-.729.083-1.313.187-.562.104-1.021.198-1.375.281a41.32 41.32 0 0 0 .031 2.688l.126 2.125a.842.842 0 0 1-.157.5c-.083.146-.187.219-.312.219-.25 0-.448-.167-.594-.5a1.863 1.863 0 0 1-.187-.844l-.032-.532-.062-1.781c0-.521-.021-1.26-.063-2.219 0-.166-.01-.291-.031-.374a.921.921 0 0 1-.031-.157.685.685 0 0 1-.031-.219c0-.166.083-.25.25-.25a.69.69 0 0 1 .312.063l.562.187c.23-.041.428-.072.594-.093.188-.021.323-.042.406-.063.959-.146 2.146-.25 3.563-.312.521 0 .885-.052 1.094-.156a.335.335 0 0 1 .125-.063c.083-.042.146-.052.187-.031l.313.094c.083.02.166.062.25.124a.826.826 0 0 1 .218.157c.271.271.407.458.407.562Zm-1.688 18.094a.556.556 0 0 1-.281-.094 12.62 12.62 0 0 1-.406-.343c-.729-.563-1.438-1.407-2.125-2.532A11.919 11.919 0 0 1 134 155a5.677 5.677 0 0 0-.094-.438 1.865 1.865 0 0 0-.125-.374c0-.021-.031-.032-.093-.032-.146 0-.428.094-.844.282-.125.062-.25.156-.375.281-.104.104-.219.146-.344.125-.083 0-.198-.052-.344-.156a1.428 1.428 0 0 1-.312-.282c-.209-.291-.313-.468-.313-.531 0-.125.115-.198.344-.219.312 0 .51-.01.594-.031a8.998 8.998 0 0 0 1.718-.406c.084-.021.198-.084.344-.188.021 0 .052-.01.094-.031.062-.021.135 0 .219.062.312.209.469.365.469.469 0 1.459.416 2.823 1.25 4.094.833 1.271 2.052 2.344 3.656 3.219.083.041.187.083.312.125.125.041.188.104.188.187 0 .104-.344.198-1.032.282l-.781.124-.25.063Zm7.25-11.844c.063 0 .125.031.188.094a.307.307 0 0 1 .125.187v.063c0 .146-.115.427-.344.844l-2.25 3.906c-.167.354-.385.531-.656.531s-.5-.166-.688-.5c-.187-.271-.416-.677-.687-1.218a3.917 3.917 0 0 1-.313-.563 11.987 11.987 0 0 0-.187-.406c-.229-.396-.344-.677-.344-.844 0-.083.031-.146.094-.187.062-.063.125-.094.187-.094.229 0 .438.125.625.375.146.146.261.302.344.469l.344.468.625.719.281-.437c.292-.5.979-1.49 2.063-2.969.229-.292.427-.438.593-.438Zm-23.156 10.594c-.187 1.437-.458 2.583-.813 3.437-.333.876-.687 1.49-1.062 1.844-.375.354-.729.532-1.062.532-.438 0-1.188-.303-2.25-.907a22.18 22.18 0 0 1-3-2.093c-.438-.376-.657-.657-.657-.844 0-.125.084-.188.25-.188.188 0 .438.073.75.219a27.519 27.519 0 0 0 4.25 1.563h.094a.567.567 0 0 0 .406-.188c.125-.125.271-.438.438-.938.187-.52.385-1.312.593-2.374l-12.937.374a3.688 3.688 0 0 0-.75.157 3.009 3.009 0 0 1-.594.093c-.271 0-.573-.145-.906-.437-.313-.292-.469-.583-.469-.875 0-.042.021-.146.063-.312a98.23 98.23 0 0 0 1.406-5.407l-3.531.157-.782.031h-.312c-.688-.063-1.198-.573-1.531-1.531l-.031-.157c0-.166.083-.25.25-.25.083 0 .145.011.187.031.458.146.917.219 1.375.219h.281l4.469-.187c.583-2.813.875-4.552.875-5.219 0-.437-.073-.885-.219-1.344a1.013 1.013 0 0 1-.062-.281c0-.188.114-.281.344-.281.354 0 1.041.229 2.062.687l12.219-.75.343-.031c.25 0 .553.104.907.313.354.187.531.437.531.75 0 .104-.042.25-.125.437-.063.187-.094.313-.094.375-.041 2.083-.093 3.625-.156 4.625l2.781-.125a9.403 9.403 0 0 0 1.532-.312.8.8 0 0 1 .25-.032c.354 0 .729.188 1.124.563.417.375.626.698.626.969 0 .229-.24.364-.719.406l-5.688.25a142.027 142.027 0 0 1-.469 5.375h.25a8.693 8.693 0 0 0 1.969-.344c.104-.042.25-.063.438-.063.291 0 .562.105.812.313.25.208.448.437.594.687.167.25.25.417.25.5 0 .25-.219.396-.656.438h-.094l-3.75.125Zm-19.844-12.313c0-.187.188-.468.563-.843a34.408 34.408 0 0 0 3.344-3.781c.958-1.292 1.687-2.438 2.187-3.438.521-1.021.813-1.771.875-2.25.042-.271.146-.406.312-.406.271 0 .636.229 1.094.687.459.459.688.802.688 1.031 0 .105-.042.24-.125.407-.646 1.041-1.104 1.739-1.375 2.093l11.5-.593a6.615 6.615 0 0 0 1.75-.375c.125-.042.25-.063.375-.063.25 0 .521.104.812.313.313.187.573.406.781.656.209.25.313.427.313.531 0 .229-.208.365-.625.407l-16.219.812c-.875 1.042-2 2.146-3.375 3.312-1.354 1.146-2.229 1.719-2.625 1.719-.166 0-.25-.073-.25-.219Zm18.031 10.719c.188-1.416.355-3.208.5-5.375l-12.906.563a94.285 94.285 0 0 1-1.281 5.187l13.687-.375Zm.563-7.062c.042-.979.094-2.625.156-4.938l-11.937.688a125.33 125.33 0 0 1-.844 4.781l12.625-.531Zm-10.063 3.812c0-.187.073-.416.219-.687.146-.292.334-.438.563-.438.125 0 .698.229 1.718.688 1.021.437 2.011.906 2.969 1.406.229.125.396.229.5.312a.388.388 0 0 1 .157.313c0 .167-.094.427-.282.781-.187.334-.396.5-.625.5-.166 0-.364-.073-.593-.218-1.626-.959-2.98-1.657-4.063-2.094-.375-.146-.563-.334-.563-.563Zm.657-6.781c0-.125.062-.333.187-.625.146-.313.354-.469.625-.469.167 0 .709.177 1.625.532.917.354 1.75.739 2.5 1.156.75.416 1.125.75 1.125 1 0 .229-.083.5-.25.812-.166.292-.385.438-.656.438-.125 0-.313-.073-.563-.219a26.572 26.572 0 0 0-4.062-2.094c-.354-.146-.531-.323-.531-.531Zm71.719-1.531c-.271 0-.469-.094-.594-.281a3.683 3.683 0 0 0-.563-.657c-.166-.166-.469-.396-.906-.687l.094-.156c.958.333 1.635.5 2.031.5.333 0 .698-.188 1.094-.563.416-.396.771-.958 1.062-1.687a7.74 7.74 0 0 0 .313-.813c.083-.229.146-.479.187-.75v-.063c0-.187-.094-.281-.281-.281-.208 0-.583.063-1.125.188a21.83 21.83 0 0 0-1.156.375l-.25-.063a.706.706 0 0 0-.156-.093 1.293 1.293 0 0 1-.157-.188c-.104-.104-.156-.177-.156-.219l-.031-.125c0-.146.073-.281.218-.406.167-.125.261-.219.282-.281.166-.188.5-.646 1-1.375a2.88 2.88 0 0 0 .218-.282c.105-.166.157-.312.157-.437 0-.146-.615-.042-1.844.313-1.25.374-1.906.562-1.969.562-.208 0-.427-.177-.656-.531-.167-.167-.25-.302-.25-.407 0-.145.208-.229.625-.25.479-.02 1.219-.104 2.219-.25 1.021-.145 1.625-.239 1.812-.281l.438-.125a.683.683 0 0 1 .218-.031c.063 0 .157.042.282.125.146.083.271.146.375.188.271.124.427.27.469.437v.094c0 .187-.105.385-.313.593-.083.084-.25.261-.5.532a6.36 6.36 0 0 0-.469.5c-.083.083-.208.218-.375.406a2.91 2.91 0 0 0-.281.344c0 .062.021.104.062.125a.349.349 0 0 0 .157.031 12.891 12.891 0 0 0 1.531-.281l.5-.157c.229 0 .396.084.5.25.188.209.312.386.375.532a.396.396 0 0 1 0 .375.78.78 0 0 1-.094.187 2.338 2.338 0 0 0-.125.219l-.125.25c-.062.125-.104.25-.125.375-.375 1.083-.823 2.01-1.344 2.781a4.952 4.952 0 0 1-.968.907c-.479.354-.948.531-1.406.531Zm-3.126 5.25c-.229 0-.51-.177-.843-.531-.25-.25-.375-.438-.375-.563 0-.063.041-.094.125-.094.083-.021.187-.031.312-.031l.688-.031c.396 0 .656-.011.781-.031.396 0 .729-.011 1-.032 1.792-.166 3-.302 3.625-.406.313-.042.594-.083.844-.125a2.58 2.58 0 0 1 .593-.094c.292 0 .584.146.876.438.229.229.343.416.343.562 0 .125-.073.209-.219.25-.104.021-.718.063-1.843.125-.625.021-1.396.073-2.313.156-.916.084-1.718.167-2.406.25-.125.021-.302.053-.531.094a3.644 3.644 0 0 1-.657.063Zm4.657 6.969c-.209.27-.427.406-.657.406-.062 0-.093-.052-.093-.156 0-.146.041-.313.125-.5l.625-1.25c.021-.084.052-.167.093-.25a1.77 1.77 0 0 0 .094-.219v-.031c0-.042-.031-.084-.094-.126a.263.263 0 0 0-.218-.031c-.334.021-.834.073-1.5.157-.646.083-1.125.166-1.438.25a63.49 63.49 0 0 0-.468.156 1.244 1.244 0 0 1-.407.094c-.375 0-.687-.115-.937-.344a1.914 1.914 0 0 1-.469-.438l-.063-.156c0-.104.178-.135.532-.094.479.042 1.468-.021 2.968-.187l.626-.094c.166-.021.427-.052.781-.094.375-.062.666-.125.875-.187l.187-.063a.517.517 0 0 1 .219-.062c.104 0 .229.052.375.156.167.104.302.198.406.281.146.104.24.198.281.282.063.062.084.145.063.25 0 .104-.052.197-.156.281a3.2 3.2 0 0 0-.219.187c-.042.063-.188.219-.438.469-.104.167-.291.396-.562.687-.25.292-.427.5-.531.626Zm-1.563 6.156c0-.063.104-.229.313-.5.229-.25.406-.448.531-.594.312-.417.688-1.021 1.125-1.812.458-.792.719-1.313.781-1.563.042-.125-.021-.187-.187-.187-.334 0-1.25.093-2.75.281-.979.125-1.709.25-2.188.375a.606.606 0 0 1-.312.094c-.167 0-.344-.115-.531-.344a.826.826 0 0 1-.126-.406c0-.084.053-.167.157-.25l.093-.126a9.96 9.96 0 0 0 .438-1.093c.104-.334.177-.698.219-1.094.021-.229.146-.292.375-.187.291.145.51.291.656.437.167.125.219.219.156.281-.208.25-.375.532-.5.844a8.455 8.455 0 0 0-.187.656c0 .084.052.125.156.125.313 0 .781-.052 1.406-.156l1.313-.156c.521-.063.937-.125 1.25-.188l.781-.156a.812.812 0 0 1 .25-.031.5.5 0 0 1 .313.125c.104.062.218.146.343.25.209.187.344.343.407.469a.718.718 0 0 1 .093.374c0 .084-.062.188-.187.313a3.791 3.791 0 0 0-.375.594c-.604 1.229-1.386 2.26-2.344 3.093a4.308 4.308 0 0 1-.906.532 1.51 1.51 0 0 1-.407.062c-.104.021-.156 0-.156-.062Zm10-14.438c.25 0 .375.115.375.344 0 .125-.114.302-.343.531-.626.771-1.865 2.24-3.719 4.407-.146.187-.281.281-.407.281-.104 0-.333-.157-.687-.469-.292-.25-.437-.458-.437-.625 0-.187.156-.365.468-.531.479-.271 1.198-.813 2.156-1.625.959-.854 1.667-1.531 2.126-2.031.187-.188.343-.282.468-.282Zm-44.906 4.219c0-.125.073-.187.219-.187.083 0 .156.01.219.031a6.994 6.994 0 0 0 1.5.187h.25l5.156-.25a32.917 32.917 0 0 1-.063-1.656c-.021-.25-.052-.781-.093-1.594a23.7 23.7 0 0 0-.157-2.25c0-.083-.021-.291-.062-.625a3.099 3.099 0 0 0-.25-.937 1.047 1.047 0 0 1-.125-.469c0-.167.114-.25.344-.25.354 0 1.177.229 2.468.687l4.594-.312.031-4.406-6.062.375a28.857 28.857 0 0 1-2.188 2.75c-.771.854-1.469 1.531-2.093 2.031-.605.5-1.021.75-1.25.75-.105 0-.157-.062-.157-.188 0-.166.104-.385.313-.656 1.271-1.562 2.323-3.041 3.156-4.437.833-1.396 1.438-2.584 1.812-3.563.376-.979.563-1.677.563-2.094 0-.166-.01-.291-.031-.374v-.157c0-.25.094-.375.281-.375.083 0 .313.073.687.219.396.125.75.302 1.063.531.333.209.5.438.5.688 0 .125-.031.25-.094.375a67.435 67.435 0 0 1-1.406 2.719l12-.75a6.48 6.48 0 0 0 1.406-.282c.125-.041.24-.062.344-.062.292 0 .635.187 1.031.562.396.375.594.677.594.906 0 .271-.26.428-.781.469l-7.75.469v4.406l4.062-.25c.521-.041 1-.135 1.438-.281a1.02 1.02 0 0 1 .312-.063c.292 0 .646.209 1.063.626.437.395.656.697.656.906 0 .229-.24.364-.719.406l-6.843.406v5.344l8.75-.438c.52-.041 1-.135 1.437-.281.125-.041.219-.062.281-.062.104 0 .302.093.594.281.292.188.552.406.781.656.25.229.375.448.375.656 0 .23-.239.365-.718.407l-11.5.562-.032 8.813c0 .437-.177.656-.531.656-.292 0-.646-.115-1.063-.344-.395-.208-.593-.541-.593-1l.031-.281c.083-.563.125-1.187.125-1.875l.031-5.875-10.906.531c-.292.021-.646.032-1.062.032-.459 0-.834-.115-1.126-.344a2.24 2.24 0 0 1-.624-.813c-.126-.291-.188-.51-.188-.656Zm9.219-.313 4.719-.218.031-5.344-4.969.281.219 5.281Zm74-4.093a1.4 1.4 0 0 1-.5-.094.811.811 0 0 1-.375-.375c-.063-.188-.198-.406-.406-.656a2.41 2.41 0 0 0-.563-.563l.125-.156c.104.063.354.187.75.375s.688.281.875.281c.292 0 .552-.104.781-.312.229-.209.521-.604.875-1.188.25-.396.479-.864.688-1.406.208-.542.364-1.042.469-1.5l.031-.063a.212.212 0 0 0-.063-.156c-.041-.062-.083-.094-.125-.094l-1.437.126c-.959.166-1.959.302-3 .406a3.283 3.283 0 0 0-.656.156c-.25.083-.428.125-.532.125-.166 0-.385-.135-.656-.406a2.25 2.25 0 0 1-.312-.313c-.084-.125-.105-.229-.063-.312l.25-.25.156-.125c.292-.292.584-.677.875-1.157.209-.291.427-.781.656-1.468 0-.229.053-.344.157-.344.062 0 .166.042.312.125l.5.313c.125.104.209.187.25.25a.439.439 0 0 1 .063.25c0 .124-.084.281-.25.468a4.762 4.762 0 0 0-.438.5l-.718 1.032-.063.124c0 .063.083.094.25.094l2.406-.312 1.625-.125.625-.063.344-.062h.094c.208 0 .437.177.687.531.292.271.438.5.438.687l-.156.407a46.95 46.95 0 0 0-.5 1.469c-.376.895-.698 1.572-.969 2.031-.271.458-.563.812-.875 1.062-.563.459-1.104.688-1.625.688Zm3.312 10.25c-.312 0-.614-.229-.906-.688a9.915 9.915 0 0 0-1.094-1.437l-.812-.844c-.438.5-.823.896-1.157 1.188a6.248 6.248 0 0 1-1.187.843c-.896.521-1.646.781-2.25.781-.146 0-.219-.052-.219-.156 0-.062.198-.198.594-.406a6.556 6.556 0 0 0 1.125-.75c.896-.75 1.635-1.521 2.219-2.312-.125-.126-.75-.667-1.875-1.626a10.565 10.565 0 0 1-.657-.531 7.672 7.672 0 0 1-.374-.281c-.188-.146-.282-.25-.282-.312 0-.105.052-.157.156-.157.313 0 .813.219 1.5.657a22.42 22.42 0 0 1 2.157 1.5c.291-.355.521-.688.687-1 .167-.313.354-.698.563-1.157a2.13 2.13 0 0 0 .187-.593 4.89 4.89 0 0 0 .032-.344c0-.229.062-.344.187-.344.146 0 .344.115.594.344.437.416.656.698.656.844 0 .083-.052.177-.156.281-.25.25-.479.583-.688 1-.125.25-.354.604-.687 1.062-.104.125-.188.24-.25.344a3.26 3.26 0 0 1-.188.281c.479.354 1.188.959 2.125 1.813.229.208.375.406.438.593.083.167.125.396.125.688a.891.891 0 0 1-.156.531.506.506 0 0 1-.407.188Zm2.375-11c.104 0 .261.073.469.219-.021.041.021.124.125.25l.219.218c.104.104.208.229.312.375.125.146.261.302.407.469.374.396 1.239 1.427 2.593 3.094.229.333.344.531.344.594 0 .208-.125.312-.375.312-.146 0-.302-.104-.469-.312-.396-.417-1.104-1.073-2.125-1.969-.791-.729-1.51-1.292-2.156-1.688-.312-.146-.469-.312-.469-.5 0-.146.157-.354.469-.625.292-.291.51-.437.656-.437Zm-28-4.157c.5-.729 1.188-1.864 2.063-3.406l-10.844.594a5.482 5.482 0 0 1-.656.031c-.479 0-.886-.104-1.219-.312-.333-.209-.594-.657-.781-1.344a.347.347 0 0 1-.031-.156c0-.146.062-.219.187-.219l.156.031c.479.104.948.157 1.407.157h.281l19.687-1.063a7.868 7.868 0 0 0 1.25-.219c.125-.041.229-.062.313-.062.271 0 .625.187 1.062.562.459.354.688.677.688.969 0 .271-.261.427-.781.469l-8.094.437c-1.021 1.875-2.063 3.552-3.125 5.031l.031 17.5c0 .271-.062.469-.188.594a.59.59 0 0 1-.468.219c-.188 0-.427-.063-.719-.187a2.07 2.07 0 0 1-.719-.563 1.169 1.169 0 0 1-.312-.813c0-.124.01-.218.031-.281.146-.729.219-1.354.219-1.875V150.25a36.465 36.465 0 0 1-4.875 4.625c-1.729 1.375-3.292 2.469-4.688 3.281-1.396.792-2.271 1.188-2.625 1.188-.208 0-.312-.073-.312-.219 0-.208.198-.448.594-.719 2.791-1.958 5.135-3.885 7.031-5.781s3.708-4.083 5.437-6.563Zm3.188 4.907c0-.188.104-.427.312-.719.209-.312.438-.469.688-.469.229 0 1.302.625 3.218 1.875a102.064 102.064 0 0 1 6.126 4.282c.333.25.5.5.5.75s-.105.562-.313.937c-.208.354-.469.531-.781.531-.229 0-.459-.104-.688-.312-3.041-2.542-5.906-4.625-8.594-6.25-.312-.188-.468-.396-.468-.625Zm63.718 2.437c-.229 0-.51-.177-.843-.531-.25-.25-.375-.437-.375-.563 0-.062.041-.093.125-.093.083-.021.187-.031.312-.031l.688-.032c.396 0 .656-.01.781-.031.396 0 .729-.01 1-.031 1.792-.167 3-.302 3.625-.406.313-.042.594-.084.844-.126.25-.062.448-.093.593-.093.292 0 .584.146.876.437.229.229.343.417.343.563 0 .125-.073.208-.219.25-.104.021-.718.062-1.843.125-.625.021-1.396.073-2.313.156-.916.083-1.718.167-2.406.25-.125.021-.302.052-.531.094a3.733 3.733 0 0 1-.657.062Zm13.094-10.375c.25 0 .375.115.375.344 0 .125-.114.302-.343.531-.626.771-1.865 2.24-3.719 4.406-.146.188-.281.282-.407.282-.104 0-.333-.156-.687-.469-.292-.25-.437-.458-.437-.625 0-.188.156-.365.468-.531.479-.271 1.198-.813 2.156-1.625.959-.854 1.667-1.532 2.126-2.032.187-.187.343-.281.468-.281ZM247.469 153a9.51 9.51 0 0 1-.844.031c-.417 0-.729-.073-.937-.219-.23-.187-.459-.5-.688-.937-.208-.437-.312-.729-.312-.875 0-.125.052-.188.156-.188l.25.063c.375.104.771.156 1.187.156l.563-.031L269 149.875c.5-.042.938-.135 1.312-.281a.436.436 0 0 1 .188-.032c.167 0 .396.094.688.282.312.187.583.416.812.687.229.25.344.479.344.688 0 .312-.24.489-.719.531L247.469 153Zm80.719-5.469c-.334 0-.532-.166-.594-.5-.125-.354-.459-.791-1-1.312l.094-.125c.083.041.322.146.718.312.396.146.667.219.813.219h.281a.632.632 0 0 0 .219-.156c.25-.188.562-.615.937-1.281.271-.542.511-1.178.719-1.907.229-.729.344-1.281.344-1.656 0-.104-.084-.156-.25-.156l-1.188.062-.812.063-.531.031-.219.031c.146.104.239.198.281.282a.338.338 0 0 1 .094.25c0 .104-.125.395-.375.874-.209.459-.542.98-1 1.563-.375.5-.886 1.042-1.531 1.625-.626.562-1.094.854-1.407.875a.582.582 0 0 1-.187-.031.212.212 0 0 1-.063-.156c0-.021.167-.219.5-.594l.875-1.032c.625-.833 1.261-1.895 1.906-3.187.063-.167.032-.26-.093-.281a16.87 16.87 0 0 1-.781.094c-.396.02-.75.083-1.063.187a.965.965 0 0 0-.219.094 1.045 1.045 0 0 1-.312.062.424.424 0 0 1-.313-.125l-.25-.218c-.187-.146-.281-.282-.281-.407 0-.041.021-.104.062-.187l.157-.25c.083-.104.219-.271.406-.5.187-.229.396-.542.625-.938.042-.083.125-.271.25-.562.146-.292.219-.469.219-.532v-.124c0-.126.021-.209.062-.25.042-.042.136-.042.281 0 .146.041.323.156.532.343l.344.344a.301.301 0 0 1 .093.219c0 .208-.291.583-.875 1.125-.104.104-.229.26-.375.469-.146.208-.219.343-.219.406 0 .125.094.166.282.125l.718-.094c1.646-.25 2.886-.396 3.719-.437l.844-.126.281-.062.156-.031c.167 0 .282.021.344.062a.685.685 0 0 1 .188.219c.062.083.125.156.187.219.146.166.25.312.313.437l.062.282-.062.124-.063.188a1.759 1.759 0 0 0-.093.312 2.321 2.321 0 0 1-.094.282c-.438 1.687-.948 3-1.532 3.937-.187.334-.51.667-.968 1-.438.334-.823.5-1.156.5Zm-3.876 4.938c-.229 0-.51-.177-.843-.531-.25-.25-.375-.438-.375-.563 0-.063.041-.094.125-.094.083-.021.187-.031.312-.031l.688-.031c.396 0 .656-.011.781-.031.396 0 .729-.011 1-.032 1.792-.166 3-.302 3.625-.406.313-.042.594-.083.844-.125a2.58 2.58 0 0 1 .593-.094c.292 0 .584.146.876.438.229.229.343.416.343.562 0 .125-.073.209-.219.25-.104.021-.718.063-1.843.125-.625.021-1.396.073-2.313.156-.916.084-1.718.167-2.406.25-.125.021-.302.053-.531.094a3.644 3.644 0 0 1-.657.063Zm-.187 12.469c-.313 0-.552-.084-.719-.25-.187-.188-.281-.355-.281-.5 0-.146.083-.303.25-.469.021-.021.135-.188.344-.5.458-.729.979-1.657 1.562-2.781.604-1.146.979-1.928 1.125-2.344.125-.396.24-.74.344-1.032.125-.291.229-.437.312-.437.146 0 .271.052.376.156.104.084.208.209.312.375.125.146.219.25.281.313.146.166.219.323.219.469a.501.501 0 0 1-.125.312 1.565 1.565 0 0 0-.156.219l-1.375 2.312a64.282 64.282 0 0 1-1.406 2.407.497.497 0 0 0-.126.312c0 .083.094.125.282.125.396 0 1.135-.052 2.218-.156 1.084-.084 1.813-.157 2.188-.219.542-.062.917-.125 1.125-.188.229-.062.563.094 1 .469.521.438.635.719.344.844-.167.083-.49.125-.969.125H330c-.271 0-.698.021-1.281.062-.354 0-.75.011-1.188.032-.437.021-.802.041-1.093.062-.334.021-.98.084-1.938.188l-.375.094Zm9.281-11.282c.104 0 .261.073.469.219-.021.042.021.125.125.25l.219.219c.104.104.208.229.312.375.125.146.261.302.407.469.374.395 1.239 1.427 2.593 3.093.229.334.344.531.344.594 0 .208-.125.313-.375.313-.146 0-.302-.105-.469-.313-.396-.417-1.104-1.073-2.125-1.969-.791-.729-1.51-1.291-2.156-1.687-.312-.146-.469-.313-.469-.5 0-.146.157-.354.469-.625.292-.292.51-.438.656-.438Zm-26.062 7.438c3.396 1.062 7.479 1.739 12.25 2.031.291.021.489.052.594.094.124.062.187.146.187.25 0 .104-.094.302-.281.593a3.548 3.548 0 0 1-.625.844c-.229.25-.448.375-.657.375l-.281-.031a55.193 55.193 0 0 1-10.062-1.906c-3.334-.938-6.375-2.24-9.125-3.906a31.113 31.113 0 0 1-2.5 3.156c-.834.937-1.573 1.677-2.219 2.218-.646.542-1.083.813-1.313.813-.145 0-.218-.073-.218-.219 0-.187.125-.427.375-.718 1.437-1.646 2.625-3.24 3.562-4.782.959-1.562 1.646-2.906 2.063-4.031.437-1.146.656-1.99.656-2.531 0-.25-.01-.438-.031-.563l-.031-.156c0-.208.104-.313.312-.313.333 0 .74.188 1.219.563.5.354.75.667.75.937 0 .167-.167.667-.5 1.5a21.46 21.46 0 0 1-1.25 2.688 36.938 36.938 0 0 0 5.187 2.438l.094-10.313-4.875.281c-.229.021-.531.032-.906.032-.354 0-.584-.053-.688-.157a3.603 3.603 0 0 1-.687-.937c-.146-.354-.219-.594-.219-.719s.073-.187.219-.187l.187.031c.354.083.74.125 1.157.125h.343L311.25 148a8.912 8.912 0 0 0 1.312-.188.674.674 0 0 1 .25-.031c.23 0 .48.094.75.281.271.167.5.376.688.626.188.229.281.406.281.531 0 .271-.25.427-.75.469l-6.312.343-.063 4.344 4.156-.187a4.903 4.903 0 0 0 1.313-.25c.167-.042.271-.063.313-.063.229 0 .552.177.968.531.438.334.656.636.656.906 0 .146-.072.261-.218.344a1.05 1.05 0 0 1-.532.125l-6.656.25-.062 5.063Zm-12.969-12.844c0-.042.021-.125.063-.25.479-.792.947-1.75 1.406-2.875a35.852 35.852 0 0 0 1.187-3.469c.104-.312.281-.468.531-.468s.521.072.813.218c.292.146.437.323.437.532 0 .104-.01.187-.031.25a5.486 5.486 0 0 1-.219.812l9-.531c-1.791-1.417-3.083-2.396-3.874-2.938a1.462 1.462 0 0 1-.313-.281.453.453 0 0 1-.094-.281c0-.188.084-.396.25-.625.188-.25.354-.396.5-.438a.435.435 0 0 1 .188-.031c.146 0 .312.063.5.187l.562.344a96.968 96.968 0 0 1 2.813 1.813c.708.479 1.094.843 1.156 1.093.042.167.01.355-.094.563a1.864 1.864 0 0 1-.406.5l8.438-.5h.281c.416 0 .781.125 1.093.375.313.25.469.49.469.719 0 .146-.083.302-.25.469a2.333 2.333 0 0 0-.343.406 35.319 35.319 0 0 1-2.188 2.75c-.771.854-1.323 1.281-1.656 1.281-.104 0-.156-.063-.156-.187 0-.209.135-.542.406-1a16.726 16.726 0 0 0 1.406-2.969l-18.219 1.031c-1.146 3.021-1.948 4.531-2.406 4.531-.208 0-.469-.114-.781-.343-.313-.25-.469-.48-.469-.688Z"/></svg>