<svg xmlns="http://www.w3.org/2000/svg" width="350" height="88" fill="none"><path fill="#333" d="M137.91 14.281a1.25 1.25 0 0 1-.914-.386 26.715 26.715 0 0 0-2.355-2.286c-.891-.75-1.676-1.312-2.356-1.687-.328-.188-.492-.48-.492-.879 0-.07.082-.164.246-.281.211-.14.551-.446 1.02-.914l1.265-1.23a23.702 23.702 0 0 0 1.406-1.583c.399-.469.622-.797.668-.984a1.16 1.16 0 0 0 .071-.281c.047-.165.117-.247.211-.247.117 0 .269.059.457.176.211.117.386.235.527.352.352.328.527.61.527.844-.023.07-.117.152-.281.246-.14.07-.269.14-.387.21-.117.094-.539.47-1.265 1.126l-2.285 1.968c-.399.328-.598.586-.598.774 0 .094.187.246.563.457.445.281 1.312.855 2.601 1.722.492.329.961.692 1.406 1.09.375.375.563.762.563 1.16 0 .188-.082.352-.246.493a.478.478 0 0 1-.352.14Zm-6.258 5.871c-.257 0-.574-.199-.949-.597-.281-.282-.422-.492-.422-.633 0-.07.047-.106.141-.106a1.48 1.48 0 0 1 .351-.035l.774-.035c.445 0 .738-.012.879-.035.445 0 .82-.012 1.125-.035 2.015-.188 3.375-.34 4.078-.457a29.8 29.8 0 0 0 .949-.14c.281-.071.504-.106.668-.106.328 0 .656.164.984.492.258.258.387.469.387.633 0 .14-.082.234-.246.28-.117.024-.809.071-2.074.142-.703.023-1.57.082-2.602.175a92.491 92.491 0 0 0-2.707.282c-.14.023-.34.058-.597.105-.258.047-.504.07-.739.07Zm-.211 14.028c-.351 0-.621-.094-.808-.282-.211-.21-.317-.398-.317-.562 0-.164.094-.34.282-.527.023-.024.152-.211.386-.563.516-.82 1.102-1.863 1.758-3.129.68-1.289 1.102-2.168 1.266-2.637.14-.445.269-.832.387-1.16.14-.328.257-.492.351-.492.164 0 .305.059.422.176.117.094.234.234.352.422.14.164.246.281.316.351.164.188.246.364.246.528a.562.562 0 0 1-.141.351c-.093.117-.152.2-.175.246l-1.547 2.602a72.802 72.802 0 0 1-1.582 2.707.562.562 0 0 0-.141.352c0 .093.106.14.316.14.446 0 1.278-.059 2.497-.176 1.218-.093 2.039-.175 2.461-.246.609-.07 1.031-.14 1.265-.21.258-.071.633.105 1.125.527.586.492.715.808.387.949-.188.094-.551.14-1.09.14h-1.406c-.305 0-.785.024-1.442.07-.398 0-.843.013-1.336.036-.492.023-.902.047-1.23.07-.375.024-1.102.094-2.18.211l-.422.106ZM105.672 17.2c-.399 0-.668-.071-.809-.212a2.932 2.932 0 0 1-.633-.914c-.14-.328-.21-.562-.21-.703 0-.14.058-.21.175-.21a.49.49 0 0 1 .211.034c.586.14 1.125.188 1.617.14l8.297-.42-.035-2.25-3.586.21-.703.035c-.445 0-.762-.082-.949-.246a2.768 2.768 0 0 1-.527-.527 2.89 2.89 0 0 1-.352-.633l-.07-.281c0-.141.07-.211.211-.211.093 0 .164.011.211.035.468.117.878.176 1.23.176l.492-.036 4.043-.21V8.902l-5.519.282-.633.035c-.492 0-.891-.13-1.195-.387-.282-.281-.481-.562-.598-.844-.094-.304-.141-.504-.141-.597 0-.118.071-.176.211-.176l.176.035a7.286 7.286 0 0 0 1.547.176h.176l5.941-.281V5.633c0-.727-.141-1.348-.422-1.863a.632.632 0 0 1-.105-.317c0-.164.152-.246.457-.246.468 0 .949.082 1.441.246.516.164.774.492.774.985v2.601l4.886-.246c.281-.023.727-.117 1.336-.281l.176-.035c.234 0 .586.164 1.055.492.468.304.703.61.703.914 0 .304-.246.48-.739.527l-7.417.387-.036 2.074 4.043-.21a4.049 4.049 0 0 0 1.231-.282.49.49 0 0 1 .211-.035c.234 0 .551.164.949.492.422.328.633.633.633.914 0 .258-.235.41-.703.457l-6.364.352v2.285l8.262-.422a3.664 3.664 0 0 0 1.301-.281.605.605 0 0 1 .246-.036c.305 0 .656.188 1.055.563.398.352.597.68.597.984 0 .282-.246.446-.738.493l-20.531 1.02-.879.034Zm-9.844-2.813c0-.211.106-.457.316-.739.212-.28.41-.421.598-.421.258 0 .973.398 2.145 1.195a59.16 59.16 0 0 1 3.34 2.39c.375.282.562.54.562.774 0 .21-.141.504-.422.879-.258.375-.504.562-.738.562-.164 0-.41-.14-.738-.422a40.916 40.916 0 0 0-4.57-3.55c-.329-.211-.493-.434-.493-.668ZM96.04 32c0-.117.094-.234.281-.352a5.387 5.387 0 0 0 1.301-1.23c1.898-2.578 3.856-5.637 5.871-9.176.375-.656.715-.984 1.02-.984.187 0 .281.129.281.387 0 .445-.516 1.804-1.547 4.078a80.984 80.984 0 0 1-3.586 6.89 9.463 9.463 0 0 1-.387.633c-.187.352-.363.586-.527.703a.797.797 0 0 1-.527.211h-.106c-.351 0-.691-.082-1.02-.246a3.13 3.13 0 0 1-.773-.492c-.187-.188-.28-.328-.28-.422Zm2.496-25.383c0-.187.117-.433.352-.738.21-.281.422-.422.632-.422.235 0 .821.363 1.758 1.09a25.052 25.052 0 0 1 2.672 2.25c.844.773 1.266 1.277 1.266 1.512 0 .328-.164.644-.492.949-.328.281-.575.422-.739.422-.187 0-.422-.153-.703-.457-1.57-1.664-3-2.989-4.289-3.973-.305-.234-.457-.445-.457-.633Zm6.68 28.266c0-.305.094-.574.281-.809.797-1.218 1.418-2.343 1.863-3.375.446-1.031.786-2.238 1.02-3.62.234-1.407.351-3.153.351-5.24 0-.937-.011-1.581-.035-1.933-.023-.351-.093-.633-.211-.843-.14-.235-.211-.41-.211-.528 0-.047.024-.094.071-.14a.432.432 0 0 1 .246-.07c.515 0 1.16.175 1.933.527l10.793-.457c.446-.024.844.07 1.196.28.351.188.527.481.527.88 0 .117-.023.246-.07.386a1.934 1.934 0 0 0-.035.387l.105 12.024c0 .21.012.41.035.597.024.188.035.352.035.492 0 .399-.175.774-.527 1.125-.328.352-.644.528-.949.528-.328 0-.938-.258-1.828-.774a22.764 22.764 0 0 1-2.461-1.687c-.75-.586-1.125-.996-1.125-1.23 0-.141.105-.212.316-.212.141 0 .387.059.738.176 1.289.516 2.497.914 3.622 1.195l-.036-4.359-10.793.352a13.902 13.902 0 0 1-1.336 3.304c-.562.985-1.148 1.758-1.757 2.32-.586.587-1.09.891-1.512.915h-.07c-.118 0-.176-.07-.176-.211Zm15.644-8.578V24.16l-10.195.352c-.023.75-.094 1.465-.211 2.144l10.406-.351Zm-.035-3.973v-2.039l-10.019.422-.035 1.969 10.054-.352Zm73.442-16.453c0 .516-.024 1.008-.071 1.476l-.07 1.97c-.023.538-.094 1.44-.211 2.706-.023.375-.141.668-.352.88-.187.21-.363.316-.527.316-.187-.024-.351-.188-.492-.493a2.034 2.034 0 0 1-.105-.984c.023-.188.093-.96.21-2.32.047-1.453.024-2.426-.07-2.918-.023-.164-.187-.27-.492-.317h-.984l-1.618.14c-.328.024-.82.095-1.476.212-.633.117-1.149.223-1.547.316-.023.797-.012 1.805.035 3.024l.141 2.39a.945.945 0 0 1-.176.563c-.094.164-.211.246-.352.246-.281 0-.504-.188-.668-.563a2.101 2.101 0 0 1-.211-.949l-.035-.597-.07-2.004c0-.586-.023-1.418-.07-2.496 0-.188-.012-.329-.035-.422a1.035 1.035 0 0 1-.036-.176.792.792 0 0 1-.035-.246c0-.188.094-.281.281-.281.141 0 .258.023.352.07l.633.21c.258-.046.48-.081.668-.105.211-.023.363-.047.457-.07 1.078-.164 2.414-.281 4.008-.352.586 0 .996-.058 1.23-.175a.383.383 0 0 1 .141-.07c.093-.048.164-.06.211-.036l.351.106c.094.023.188.07.281.14a.95.95 0 0 1 .247.176c.304.305.457.516.457.633Zm-8.614 14.273c-.257 0-.574-.199-.949-.597-.281-.282-.422-.492-.422-.633 0-.07.047-.106.141-.106a1.48 1.48 0 0 1 .351-.035l.774-.035c.445 0 .738-.012.879-.035.445 0 .82-.012 1.125-.035 2.015-.188 3.375-.34 4.078-.457a29.8 29.8 0 0 0 .949-.14c.281-.071.504-.106.668-.106.328 0 .656.164.984.492.258.258.387.469.387.633 0 .14-.082.234-.246.28-.117.024-.809.071-2.074.142-.703.023-1.57.082-2.602.175a92.491 92.491 0 0 0-2.707.282c-.14.023-.34.058-.597.105-.258.047-.504.07-.739.07Zm-.211 14.028c-.351 0-.621-.094-.808-.282-.211-.21-.317-.398-.317-.562 0-.164.094-.34.282-.527.023-.024.152-.211.386-.563.516-.82 1.102-1.863 1.758-3.129.68-1.289 1.102-2.168 1.266-2.637.14-.445.269-.832.387-1.16.14-.328.257-.492.351-.492.164 0 .305.059.422.176.117.094.234.234.352.422.14.164.246.281.316.351.164.188.246.364.246.528a.562.562 0 0 1-.141.351c-.093.117-.152.2-.175.246l-1.547 2.602a72.802 72.802 0 0 1-1.582 2.707.562.562 0 0 0-.141.352c0 .093.106.14.316.14.446 0 1.278-.059 2.497-.176 1.218-.093 2.039-.175 2.461-.246.609-.07 1.031-.14 1.265-.21.258-.071.633.105 1.125.527.586.492.715.808.387.949-.188.094-.551.14-1.09.14h-1.406c-.305 0-.785.024-1.442.07-.398 0-.843.013-1.336.036-.492.023-.902.047-1.23.07-.375.024-1.102.094-2.18.211l-.422.106Zm14.942-15.504c.281 0 .422.129.422.387 0 .14-.129.34-.387.597-.703.867-2.098 2.52-4.184 4.957-.164.211-.316.317-.457.317-.117 0-.375-.176-.773-.528-.328-.281-.492-.515-.492-.703 0-.21.176-.41.527-.598.539-.304 1.348-.914 2.426-1.828 1.078-.96 1.875-1.722 2.39-2.285.211-.21.387-.316.528-.316Zm-33.047 4.254c-.539 2.718-1.383 4.957-2.531 6.715-1.149 1.757-2.637 3.386-4.465 4.886l-.176.14c-.469.329-.797.493-.984.493-.164 0-.246-.082-.246-.246 0-.234.199-.586.597-1.055 1.735-2.015 3.047-3.972 3.938-5.87.89-1.9 1.5-3.938 1.828-6.118.328-2.18.492-4.887.492-8.121 0-2.672-.035-4.453-.105-5.344-.071-.89-.164-1.465-.282-1.723-.117-.234-.175-.433-.175-.597 0-.188.117-.281.351-.281.445 0 1.301.316 2.567.949l8.296-.598h.317c.351 0 .644.082.879.246.234.164.41.352.527.563.117.21.176.363.176.457 0 .094-.035.222-.106.386-.07.165-.105.282-.105.352l.176 24.223.035 1.195c0 .586-.129 1.043-.387 1.371-.234.328-.492.54-.773.633-.282.117-.492.176-.633.176-.445 0-1.172-.364-2.18-1.09a27.06 27.06 0 0 1-2.812-2.39c-.867-.868-1.301-1.419-1.301-1.653 0-.117.082-.176.246-.176.281 0 .68.14 1.195.422.657.352 1.348.703 2.075 1.055.726.351 1.464.668 2.214.949l-.07-10.371-8.578.422ZM151.621 7.566c0-.14.094-.21.281-.21.328 0 1.055.199 2.18.597l6.856-.562c.093-.024.234-.036.421-.036.446 0 .786.141 1.02.422.258.282.387.528.387.739 0 .117-.036.257-.106.421a5.225 5.225 0 0 0-.105.422l-.598 14.766c.727.727 1.09 1.242 1.09 1.547 0 .164-.082.27-.246.316-.164.024-.446.047-.844.07l-7.312.212.035 2.039v.175c0 .516-.164.774-.492.774-.352 0-.762-.13-1.231-.387-.445-.281-.668-.633-.668-1.055 0-.164.012-.293.035-.386.117-.657.176-1.278.176-1.864v-.351l-.352-15.223a5.767 5.767 0 0 0-.386-1.969 4.503 4.503 0 0 1-.141-.457Zm2.777 8.368 5.696-.317.14-6.258-5.976.563.14 6.012Zm.176 8.402 5.309-.14.176-6.716-5.625.317.14 6.539Zm21.34-3.727-.035-5.168-7.84.457c-.023.657-.117 1.957-.281 3.903l-.106 1.23 8.262-.422Zm-7.84-11.847c.024 1.289.035 3.047.035 5.273l7.77-.492-.035-5.309-7.77.528Zm78.047 5.625c-.164 0-.34-.106-.527-.317a2.15 2.15 0 0 1-.282-.386c-.046-.118-.046-.27 0-.457l.036-.844c.023-.164.035-.563.035-1.195v-1.16l-1.055.492-1.23.527a10.87 10.87 0 0 0-.95.422c-.281.14-.527.21-.738.21a2.17 2.17 0 0 1-.562-.175 4.837 4.837 0 0 1-.493-.246c-.257-.164-.375-.34-.351-.527l.105-.352c0-.188.012-.352.036-.492l.035-2.04V5.95c0-.375-.024-.691-.071-.949-.047-.281-.082-.48-.105-.598 0-.117.035-.199.105-.246.024-.023.082-.035.176-.035.164 0 .481.106.949.316.399.188.563.422.493.704-.047.164-.094.41-.141.738l-.106 4.043c0 .117.012.21.036.281.046.047.093.07.14.07.282 0 .621-.082 1.02-.246.75-.234 1.394-.468 1.933-.703l.774-.316v-2.32c0-.938-.059-1.84-.176-2.708a.792.792 0 0 1-.035-.246c0-.234.094-.351.281-.351.024 0 .152.047.387.14.351.188.609.352.773.493.164.14.258.222.282.246.093.07.14.14.14.21a.34.34 0 0 1-.07.176c-.024.07-.047.13-.07.176l-.106 1.055-.035 3.234.035 3.13c0 .538-.035 1.007-.105 1.405-.118.493-.305.739-.563.739Zm-6.469 5.765c-.257 0-.574-.199-.949-.597-.281-.282-.422-.492-.422-.633 0-.07.047-.106.141-.106a1.48 1.48 0 0 1 .351-.035l.774-.035c.445 0 .738-.012.879-.035.445 0 .82-.012 1.125-.035 2.015-.188 3.375-.34 4.078-.457a29.8 29.8 0 0 0 .949-.14c.281-.071.504-.106.668-.106.328 0 .656.164.984.492.258.258.387.469.387.633 0 .14-.082.234-.246.28-.117.024-.809.071-2.074.142-.703.023-1.57.082-2.602.175a92.491 92.491 0 0 0-2.707.282c-.14.023-.34.058-.597.105-.258.047-.504.07-.739.07Zm4.711 14.52c-.726 0-1.289-.024-1.687-.07a1.68 1.68 0 0 1-.949-.422c-.446-.328-.75-1.043-.915-2.145l-.105-1.125c0-.281-.023-.633-.07-1.055a5.987 5.987 0 0 0-.809.141 3.817 3.817 0 0 1-.246.106.965.965 0 0 1-.211.035.81.81 0 0 1-.457-.14c-.141-.095-.316-.27-.527-.528-.164-.211-.246-.352-.246-.422s.082-.117.246-.14c.164-.024.386-.036.668-.036.398 0 .914-.047 1.547-.14l-.036-.493c0-.937-.058-1.734-.175-2.39l-.036-.246c0-.329.129-.457.387-.387.281.094.539.21.774.351.187.094.316.188.386.282.071.07.094.175.071.316l-.106 1.512v.914l3.094-.317c0-.164.012-.55.035-1.16.024-.633.024-1.043 0-1.23 0-.188-.023-.363-.07-.527a6.529 6.529 0 0 0-.071-.458c0-.187.094-.28.282-.28.187 0 .422.105.703.316.328.21.539.398.633.562.117.164.14.363.07.598a6.4 6.4 0 0 0-.246 1.265c-.047.47-.07.75-.07.844.281-.023.539-.058.773-.105.234-.047.387-.07.457-.07.188-.047.41-.071.668-.071.141.023.34.164.598.422.211.281.316.504.316.668 0 .234-.223.328-.668.281a6.863 6.863 0 0 0-1.195-.105c-.399 0-.738.011-1.02.035-.07.844-.211 1.676-.422 2.496a.953.953 0 0 1-.246.457c-.117.14-.222.21-.316.21-.164 0-.27-.07-.317-.21a3.524 3.524 0 0 1-.035-.598c.047-.61.071-1.37.071-2.285a26.99 26.99 0 0 0-1.477.14 9.357 9.357 0 0 1-1.512.212c-.023.96.024 1.816.141 2.566.07.492.211.832.422 1.02.14.117.305.187.492.21.211.024.422.036.633.036h.422c.726 0 1.406-.035 2.039-.106a1.52 1.52 0 0 0 .492-.14c.164-.07.281-.106.352-.106.21 0 .421.07.632.211.211.14.317.305.317.492 0 .188-.106.328-.317.422-.187.094-.492.176-.914.246-.75.094-1.5.14-2.25.14Zm10.02-15.996c.281 0 .422.129.422.387 0 .14-.129.34-.387.597-.703.867-2.098 2.52-4.184 4.957-.164.211-.316.317-.457.317-.117 0-.375-.176-.773-.528-.328-.281-.492-.515-.492-.703 0-.21.176-.41.527-.598.539-.304 1.348-.914 2.426-1.828 1.078-.96 1.875-1.722 2.39-2.285.211-.21.387-.316.528-.316Zm-44.684 11.496c2.086-.656 3.949-1.371 5.59-2.145a25.586 25.586 0 0 0-1.336-1.687c-.187-.235-.281-.422-.281-.563 0-.258.152-.48.457-.668.305-.21.539-.316.703-.316.188 0 .387.117.598.352a137.853 137.853 0 0 1 3.41 4.148c.937 1.195 1.406 1.922 1.406 2.18 0 .21-.164.457-.492.738-.305.305-.598.457-.879.457-.234 0-.469-.188-.703-.563a96.435 96.435 0 0 0-1.828-2.671l-4.219 2.109c-.469.21-1.207.586-2.215 1.125-.844.445-1.359.668-1.547.668-.14 0-.316-.094-.527-.281a1.65 1.65 0 0 1-.492-.633c-.094-.234-.094-.422 0-.563.14-.257.211-1.289.211-3.093V16.602c0-.563-.024-1.02-.071-1.372a3.587 3.587 0 0 0-.281-1.125 1.37 1.37 0 0 0-.07-.175.305.305 0 0 1-.035-.14c0-.118.082-.177.246-.177.304 0 1.066.258 2.285.774l7.629-.528c.187-.023.398-.035.633-.035.257 0 .562.117.914.352.351.21.527.445.527.703 0 .094-.059.234-.176.422-.094.187-.14.328-.14.422l-.914 6.609c.562.656.843 1.102.843 1.336 0 .117-.07.2-.211.246-.117.047-.304.07-.562.07l-8.508.317.035 5.87Zm-5.765-15.785c0-.235.152-.516.457-.844 1.711-1.898 3.199-3.785 4.464-5.66 1.266-1.875 1.899-3.13 1.899-3.762l-.035-.246V3.77c0-.329.129-.493.386-.493.305 0 .727.211 1.266.633.563.399.844.727.844.985 0 .117-.059.27-.176.457a23.895 23.895 0 0 1-1.16 1.687l4.992-.387a4.872 4.872 0 0 0 1.336-.28c.141-.048.246-.071.316-.071.352 0 .727.199 1.125.597.422.375.633.668.633.88 0 .28-.258.445-.773.492l-6.012.421c.164.047.527.293 1.09.739.586.445 1.113.902 1.582 1.37.469.47.703.798.703.985 0 .211-.141.469-.422.774-.281.28-.527.421-.738.421-.188 0-.41-.152-.668-.457a21.796 21.796 0 0 0-2.426-2.285c-.281-.234-.422-.433-.422-.597 0-.118.059-.27.176-.457.117-.188.27-.34.457-.457l-2.355.175a34.406 34.406 0 0 1-3.727 3.903c-1.359 1.195-2.226 1.793-2.601 1.793-.141 0-.211-.07-.211-.211Zm12.656 3.656.246-2.461-7.242.492v2.32l6.996-.351Zm-.457 4.36.281-2.708-6.785.317v2.636l6.504-.246Zm1.898-9.528c0-.234.153-.516.457-.844 1.149-1.383 2.192-2.941 3.129-4.676.961-1.757 1.442-2.988 1.442-3.69v-.142c0-.351.129-.527.386-.527.164 0 .41.094.739.281.351.164.668.364.949.598.281.234.422.469.422.703 0 .211-.164.586-.493 1.125-.328.54-.503.82-.527.844l6.926-.563a6.483 6.483 0 0 0 1.336-.246c.047-.023.141-.035.281-.035.328 0 .68.188 1.055.563.398.351.597.644.597.879 0 .14-.07.257-.21.351-.118.07-.282.117-.493.14l-7.136.493c.656.422 1.429 1.043 2.32 1.863.891.797 1.336 1.336 1.336 1.617 0 .164-.129.422-.387.774-.258.328-.504.492-.738.492-.188 0-.387-.117-.598-.352-1.148-1.242-2.191-2.226-3.129-2.953-.234-.187-.351-.363-.351-.527 0-.188.176-.469.527-.844l-2.601.176c-.774 1.031-1.711 2.074-2.813 3.129-1.078 1.055-1.805 1.582-2.18 1.582-.164 0-.246-.07-.246-.211Zm3.305.773c0-.14.082-.21.246-.21.352 0 1.148.292 2.391.878l7.066-.597.281-.035c.094 0 .27.046.528.14.281.07.539.2.773.387.258.164.387.387.387.668 0 .094-.035.223-.106.387-.07.164-.105.28-.105.351a88.243 88.243 0 0 1-.492 8.262l-.071.879c-.07.984-.164 1.805-.281 2.46-.117.657-.316 1.173-.598 1.548-.445.609-.925.914-1.441.914s-1.172-.317-1.969-.95a18.576 18.576 0 0 1-2.215-2.074c-.656-.75-.984-1.23-.984-1.441 0-.164.094-.246.281-.246.211 0 .504.117.879.351.867.54 1.594.973 2.18 1.301.586.328 1.008.492 1.266.492.117 0 .199-.082.246-.246.539-3 .867-6.762.984-11.285l-6.609.492c0 3.961.035 10.242.105 18.844 0 .21-.058.363-.176.457a.466.466 0 0 1-.386.176c-.188 0-.411-.07-.668-.211-.446-.188-.762-.363-.95-.528-.187-.164-.281-.351-.281-.562l.035-.246c.141-.773.211-1.64.211-2.602l-.105-14.836c0-.609-.024-1.078-.07-1.406a3.306 3.306 0 0 0-.211-.95c-.094-.28-.141-.468-.141-.562ZM136.719 72.844c-.146 0-.073-.125.219-.375.291-.25.645-.552 1.062-.906a16.43 16.43 0 0 0 1.406-1.47 4.31 4.31 0 0 0 .75-1.25c.104-.25.219-.374.344-.374.104 0 .26.083.469.25.416.333.625.614.625.844 0 .145-.084.25-.25.312-.084.02-.209.115-.375.281-.167.146-.292.26-.375.344-.896.875-1.729 1.51-2.5 1.906-.625.292-1.042.438-1.25.438h-.125ZM140 78.656c-.062 0-.167-.083-.312-.25a2.624 2.624 0 0 1-.282-.531 1.735 1.735 0 0 1 0-.469c.042-.208.063-.364.063-.469.041-.416.062-.75.062-1 .021-.229.021-.479 0-.75v-.53l-.031-.47c-.5.355-.885.605-1.156.75-.604.334-1.042.542-1.313.626a2.606 2.606 0 0 1-.906.187c-.146 0-.229-.02-.25-.063-.042-.083.375-.385 1.25-.906.833-.52 1.74-1.208 2.719-2.062.541-.5.958-.98 1.25-1.438a.713.713 0 0 0 .094-.219c.041-.104.083-.166.124-.187.063-.02.146-.01.25.031.271.146.5.354.688.625a.503.503 0 0 1 .125.313c0 .104-.052.208-.156.312a1.245 1.245 0 0 1-.313.188 6.99 6.99 0 0 0-.968.75c-.292.27-.48.448-.563.531.313.25.469.427.469.531l-.094.656c-.042.188-.062.657-.062 1.407 0 .729.02 1.219.062 1.469v.062a.772.772 0 0 1-.094.344 2.888 2.888 0 0 1-.094.219c-.145.229-.333.343-.562.343Zm-20.25-6c-.5.042-.854.063-1.062.063-.417 0-.688-.063-.813-.188-.25-.229-.479-.52-.687-.875-.188-.375-.282-.604-.282-.687 0-.104.115-.156.344-.156.354.083.75.124 1.188.124.208 0 .562-.02 1.062-.062l7.531-.563h.407c.479 0 .864.146 1.156.438.312.27.468.52.468.75a.56.56 0 0 1-.218.438c-.125.124-.271.24-.438.343a1.431 1.431 0 0 0-.344.219c-2.937 2.563-5.02 4.438-6.25 5.625-.874.833-1.562 1.656-2.062 2.469-.5.812-.75 1.448-.75 1.906 0 .458.167.813.5 1.063.354.229.896.385 1.625.468.729.084 1.76.125 3.094.125 2.166 0 4.073-.114 5.719-.344.395-.041.687-.187.874-.437.209-.25.386-.677.532-1.281.166-.625.385-1.688.656-3.188.083-.416.177-.74.281-.969.104-.229.209-.343.313-.343.104 0 .187.125.25.375.083.229.125.573.125 1.031 0 1.854-.063 3.219-.188 4.094-.104.854-.333 1.479-.687 1.875-.354.396-.927.656-1.719.781-1.854.25-3.948.375-6.281.375a41.41 41.41 0 0 1-4.156-.188c-1.021-.104-1.782-.49-2.282-1.156a3.762 3.762 0 0 1-.718-2.25c0-.708.281-1.562.843-2.562.563-1 1.281-1.906 2.157-2.719 1.166-1.083 3.02-2.76 5.562-5.031l-5.75.437Zm-14.531-7.187c0-.146.104-.219.312-.219.313 0 1 .198 2.063.594l4.437-.281c.167-.021.375-.032.625-.032.375 0 .677.115.906.344.25.23.376.48.376.75 0 .125-.032.26-.094.406-.042.146-.073.25-.094.313l-.594 7.312c.5.646.75 1.094.75 1.344 0 .146-.062.24-.187.281-.125.021-.354.042-.688.063l-5 .187.063 1.656v.063c0 .396-.177.594-.532.594-.333 0-.677-.104-1.031-.313-.333-.208-.5-.52-.5-.937 0-.146.011-.26.031-.344.063-.354.094-.677.094-.969l-.031-.625-.313-7.969c-.041-.77-.166-1.333-.374-1.687-.146-.25-.219-.427-.219-.531Zm2.719 9.281 3.374-.094.532-7.312-4.188.219.282 7.187Zm6.218-2.469c0-.146.094-.375.282-.687a40.13 40.13 0 0 0 3.156-5.375 39.999 39.999 0 0 0 2.344-5.719c.062-.188.093-.375.093-.563 0-.25-.041-.5-.125-.75a.433.433 0 0 1-.031-.187c0-.188.104-.281.313-.281.166 0 .437.083.812.25.375.166.708.375 1 .625.292.229.438.448.438.656 0 .125-.032.25-.094.375a41.216 41.216 0 0 1-2.188 4.594l8.782-.563c.437-.02.802-.104 1.093-.25.209-.083.354-.125.438-.125.312 0 .646.198 1 .594.354.396.531.719.531.969s-.281.396-.844.437L119.094 67a29.282 29.282 0 0 1-2.844 3.813c-.979 1.124-1.615 1.687-1.906 1.687-.125 0-.188-.073-.188-.219Zm71.282-4.469c-.126 0-.303-.093-.532-.28a2.02 2.02 0 0 1-.312-.25c-.084-.084-.125-.157-.125-.22l.031-.5c.021-.187.031-.604.031-1.25-.021-.458-.031-1.416-.031-2.874 0-.584-.052-1.115-.156-1.594l-.125-.75V60c0-.188.125-.24.375-.156.104.02.344.062.718.125.396-.063 1.719-.219 3.969-.469a9.167 9.167 0 0 0 1.157-.219h.124c.23 0 .438.115.626.344.333.396.468.677.406.844-.084.208-.167.562-.25 1.062-.042.292-.094.792-.156 1.5V66.75c0 .188-.094.438-.282.75a.484.484 0 0 1-.25.25.654.654 0 0 1-.344.094c-.124 0-.218-.031-.281-.094l-.125-.125a.346.346 0 0 0-.125-.125c-.021-.02-.062-.031-.125-.031-1.291 0-2.458.083-3.5.25-.083.02-.166.031-.25.031a.588.588 0 0 0-.187.031l-.219.031h-.062Zm.593-1.156c.521-.02 1.229-.083 2.125-.187.417-.042.656-.063.719-.063h.25c.333 0 .583.063.75.188.146-1.042.219-2.948.219-5.719-.042-.313-.167-.469-.375-.469-.396 0-1.198.073-2.407.219-.124 0-.25.01-.374.031l-.376.063a5.03 5.03 0 0 1-.781.093c-.146 0-.198.073-.156.22l-.031 1.062a2.866 2.866 0 0 0-.032.406c.021.125.032.24.032.344.021.166.031.437.031.812 0 1.625.01 2.521.031 2.688 0 .146.042.24.125.281a.353.353 0 0 0 .25.031Zm2.313-1.75c-.229 0-.406-.114-.532-.344a17.96 17.96 0 0 0-1.218-1.812l-.219-.344c-.083-.125-.125-.218-.125-.281.021-.083.073-.115.156-.094a4.388 4.388 0 0 1 1.5.813c.709.541 1.063.958 1.063 1.25a.878.878 0 0 1-.125.437c-.146.25-.313.375-.5.375Zm2.844 11.688c-.313 0-.615-.23-.907-.688a9.905 9.905 0 0 0-1.093-1.437l-.813-.844c-.437.5-.823.896-1.156 1.188a6.25 6.25 0 0 1-1.188.843c-.896.521-1.646.781-2.25.781-.146 0-.219-.052-.219-.156 0-.062.198-.198.594-.406a6.591 6.591 0 0 0 1.125-.75c.896-.75 1.636-1.52 2.219-2.313-.125-.124-.75-.666-1.875-1.624a10.426 10.426 0 0 1-.656-.532 7.616 7.616 0 0 1-.375-.281c-.188-.146-.282-.25-.282-.313 0-.104.053-.156.157-.156.312 0 .812.219 1.5.656.687.417 1.406.917 2.156 1.5.292-.354.521-.687.687-1 .167-.312.355-.697.563-1.156.104-.229.167-.427.187-.594a4.83 4.83 0 0 0 .032-.343c0-.23.062-.344.187-.344.146 0 .344.115.594.344.437.416.656.698.656.844 0 .083-.052.177-.156.28-.25.25-.479.584-.687 1-.126.25-.355.605-.688 1.063a2.76 2.76 0 0 0-.25.344 3.062 3.062 0 0 1-.188.281c.48.354 1.188.959 2.126 1.813.229.208.374.406.437.594.083.166.125.395.125.687a.89.89 0 0 1-.156.531.504.504 0 0 1-.406.188Zm.562 4.125c.229.25.344.458.344.625 0 .146-.084.281-.25.406-.104.083-.365.542-.782 1.375a9.64 9.64 0 0 1-1.531 1.938c-.541.562-1.083.968-1.625 1.218a1.027 1.027 0 0 1-.312.063c-.084 0-.125-.021-.125-.063v-.062c0-.125.104-.271.312-.438.375-.291.657-.594.844-.906l.469-.656c.437-.625.75-1.136.937-1.531a3.76 3.76 0 0 0 .438-1.094h-.125c-.542 0-1.417.062-2.625.187-.188.021-.729.094-1.625.219a10.2 10.2 0 0 0-.875.156l-.375.094a.557.557 0 0 1-.25.063.838.838 0 0 1-.313-.063 2.83 2.83 0 0 1-.312-.219c-.25-.208-.375-.385-.375-.531a.976.976 0 0 0 .062-.188.5.5 0 0 0 .063-.218l.156-1.031c.021-.105.042-.22.063-.344.02-.125.031-.25.031-.375 0-.396-.011-.709-.031-.938 0-.25-.032-.51-.094-.781v-.094c0-.146.062-.219.187-.219s.344.094.657.282c.416.291.624.52.624.687 0 .063-.01.115-.031.156l-.062.126a8.772 8.772 0 0 0-.094.624l-.156 1.657c0 .041.021.094.062.156a.337.337 0 0 0 .188.063c.5 0 1.625-.126 3.375-.376.687-.062 1.177-.135 1.468-.218.188-.021.344-.052.469-.094.146-.063.24-.094.281-.094.126-.041.209-.062.25-.062.188 0 .417.166.688.5Zm1.812-6.063c.105 0 .261.073.469.219-.021.042.021.125.125.25l.219.219c.104.104.208.229.313.375.124.146.26.302.406.469.375.395 1.239 1.427 2.594 3.093.229.334.343.531.343.594 0 .208-.125.313-.375.313-.146 0-.302-.105-.468-.313-.396-.417-1.105-1.073-2.126-1.969-.791-.729-1.51-1.291-2.156-1.687-.312-.146-.468-.313-.468-.5 0-.146.156-.354.468-.625.292-.292.511-.438.656-.438Zm-20.75-4.937v.406c0 .146-.052.27-.156.375-.083.104-.208.156-.375.156-.25 0-.552-.114-.906-.344-.333-.25-.5-.52-.5-.812l.031-.219c.063-.625.094-1.177.094-1.656l-.125-5.063c0-.416-.156-1-.469-1.75-.083-.208-.125-.343-.125-.406 0-.166.115-.25.344-.25.375 0 1.01.198 1.906.594l5.031-.375h.344c.563 0 .959.125 1.188.375.25.25.375.448.375.594a.73.73 0 0 1-.094.312 1.017 1.017 0 0 0-.063.25l-.093 22.188.031 1.031c0 .48-.115.854-.344 1.125-.208.292-.448.5-.718.625-.25.125-.459.188-.626.188-.312 0-.791-.271-1.437-.813a16.284 16.284 0 0 1-1.813-1.781c-.541-.646-.812-1.073-.812-1.281 0-.126.073-.188.219-.188.187 0 .448.104.781.313 1.208.729 2.156 1.24 2.844 1.53l.031-15.374-4.563.25Zm-20.406-1.438c0-.166.094-.375.282-.625.208-.27.385-.406.531-.406.208 0 .739.281 1.593.844.855.541 1.938 1.323 3.25 2.344.334.25.5.468.5.656 0 .25-.156.52-.468.812-.292.292-.5.438-.625.438-.146 0-.365-.125-.657-.375-1.52-1.375-2.843-2.417-3.968-3.125-.292-.188-.438-.375-.438-.563Zm.156 15.969c0-.125.084-.24.25-.344a4.125 4.125 0 0 0 1.126-1.125c1.874-3 3.406-5.729 4.593-8.187.313-.646.594-.969.844-.969.167 0 .25.146.25.438 0 .416-.333 1.5-1 3.25-.646 1.75-1.594 3.885-2.844 6.406-.271.541-.5.916-.687 1.125-.167.229-.354.344-.563.344h-.062c-.646-.063-1.209-.271-1.688-.626-.146-.083-.219-.187-.219-.312Zm1.719-22.938c0-.187.104-.395.313-.624.229-.25.437-.376.625-.376.208 0 .719.323 1.531.97a27.275 27.275 0 0 1 2.312 2.062c.75.708 1.126 1.156 1.126 1.343 0 .188-.126.407-.376.657-.312.333-.562.5-.75.5-.208 0-.437-.146-.687-.438-1.271-1.416-2.49-2.583-3.656-3.5-.292-.229-.438-.427-.438-.593Zm6.469-.624c0-.146.094-.22.281-.22.354 0 1.063.24 2.125.72l4.313-.25h.343c.334 0 .605.072.813.218.229.146.396.302.5.469.104.167.156.27.156.313a.563.563 0 0 1-.062.25 1.7 1.7 0 0 0-.094.218l-.375 6.25c.375.521.562.886.562 1.094 0 .146-.072.24-.218.281-.125.042-.334.073-.625.094l-5.344.25.031 15.781c0 .354-.187.531-.562.531-.084 0-.261-.052-.532-.156a2.212 2.212 0 0 1-.75-.406c-.229-.188-.343-.417-.343-.688l.031-.218c.104-.667.156-1.323.156-1.969l.094-19.844c0-.979-.146-1.802-.438-2.468l-.062-.25Zm6.312 7.968.063-2.375-4 .188v2.406l3.937-.219Zm.126-3.781.062-2.344-4.125.219v2.344l4.063-.219Zm-3.344 15.344c0-.125.073-.188.218-.188h.094c.417.104.823.156 1.219.156h.187l3.469-.156v-2.344l-.906.032c-.208 0-.396.01-.563.031-.145.02-.27.031-.374.031-.355 0-.678-.166-.969-.5-.292-.333-.438-.625-.438-.875 0-.125.073-.187.219-.187h.094c.396.104.864.156 1.406.156l1.562-.063v-2.218l-1.874.094c-.209 0-.396.01-.563.03a2.72 2.72 0 0 1-.375.032c-.271 0-.51-.094-.719-.281a2.898 2.898 0 0 1-.5-.656c-.125-.25-.187-.417-.187-.5 0-.126.073-.188.218-.188h.094c.417.104.823.156 1.219.156h.187l5.407-.281c.646-.042 1.114-.125 1.406-.25.167-.063.323-.094.469-.094.271 0 .573.156.906.469.354.292.531.552.531.781 0 .23-.219.365-.656.406l-3.906.188v2.219h.343c.459-.021.834-.104 1.126-.25a.827.827 0 0 1 .374-.094c.209 0 .417.083.626.25.229.167.416.354.562.563.146.187.219.322.219.406 0 .208-.209.333-.625.375l-2.656.125v2.375l2.406-.125c.646-.042 1.114-.125 1.406-.25a1.27 1.27 0 0 1 .438-.094c.27 0 .583.156.937.469.354.312.531.594.531.844 0 .229-.218.364-.656.406l-9.562.437c-.209 0-.396.01-.563.031-.146.021-.271.032-.375.032-.292 0-.542-.104-.75-.313a2.645 2.645 0 0 1-.5-.687c-.104-.25-.156-.417-.156-.5Zm8.781-15.625 4.781-.25v-2.281l-4.844.312.063 2.219Zm.125 3.656 4.625-.25.031-2.313-4.718.25.062 2.313Zm63.125-.031c-.167 0-.333-.031-.5-.094a.814.814 0 0 1-.375-.375c-.062-.188-.198-.406-.406-.656a2.388 2.388 0 0 0-.563-.563l.125-.156c.104.063.354.188.75.375.396.188.688.281.875.281.292 0 .552-.104.781-.312.23-.209.521-.604.876-1.188.25-.396.479-.864.687-1.406.208-.542.365-1.042.469-1.5l.031-.063a.211.211 0 0 0-.063-.156c-.041-.062-.083-.093-.124-.093l-1.438.124a41.73 41.73 0 0 1-3 .407 3.25 3.25 0 0 0-.656.156c-.25.083-.427.125-.532.125-.166 0-.385-.135-.656-.406a2.213 2.213 0 0 1-.312-.313c-.084-.125-.104-.229-.063-.312l.25-.25.157-.125c.291-.292.583-.677.874-1.157.209-.291.428-.78.657-1.468 0-.23.052-.344.156-.344.063 0 .167.042.313.125l.5.313c.124.104.208.187.25.25a.45.45 0 0 1 .062.25c0 .124-.083.28-.25.468a4.787 4.787 0 0 0-.438.5l-.718 1.032-.063.124c0 .063.084.094.25.094l2.407-.312 1.624-.125.626-.063.343-.062h.094c.208 0 .437.177.687.531.292.27.438.5.438.688l-.156.406c-.021.041-.188.531-.5 1.468-.375.896-.698 1.573-.969 2.032-.271.458-.563.812-.875 1.062-.562.459-1.104.688-1.625.688Zm-3.406 5.25c-.229 0-.511-.177-.844-.531-.25-.25-.375-.438-.375-.563 0-.063.042-.094.125-.094.083-.02.187-.031.313-.031l.687-.031c.396 0 .656-.01.781-.031.396 0 .729-.01 1-.032 1.792-.166 3-.302 3.625-.406.313-.042.594-.083.844-.125.25-.063.448-.094.594-.094.291 0 .583.146.875.438.229.229.344.416.344.562 0 .125-.073.209-.219.25-.104.021-.719.063-1.844.125-.625.021-1.396.073-2.313.156-.916.084-1.718.167-2.406.25-.125.021-.302.053-.531.094a3.668 3.668 0 0 1-.656.063Zm-.188 12.469c-.312 0-.552-.084-.719-.25-.187-.188-.281-.355-.281-.5 0-.146.084-.303.25-.47.021-.02.136-.187.344-.5.458-.728.979-1.656 1.563-2.78.604-1.146.979-1.928 1.124-2.344.126-.396.24-.74.344-1.031.125-.292.229-.438.313-.438.146 0 .271.052.375.156.104.084.208.209.312.375.125.146.219.25.282.313.145.166.218.323.218.469a.497.497 0 0 1-.125.312 1.598 1.598 0 0 0-.156.219l-1.375 2.312a63.849 63.849 0 0 1-1.406 2.406.497.497 0 0 0-.125.313c0 .083.093.125.281.125.396 0 1.135-.052 2.219-.156 1.083-.084 1.812-.156 2.187-.219.542-.063.917-.125 1.125-.188.229-.062.563.094 1 .47.521.437.636.718.344.843-.167.083-.49.125-.969.125h-1.25c-.271 0-.698.02-1.281.063-.354 0-.75.01-1.187.03-.438.022-.803.042-1.094.063-.334.021-.979.084-1.938.188l-.375.094Zm13.407-11.72c.062 0 .124.032.187.094a.302.302 0 0 1 .125.188v.063c0 .145-.115.427-.344.843l-2.25 3.906c-.166.355-.385.532-.656.532s-.5-.167-.688-.5c-.187-.271-.416-.677-.687-1.219a3.86 3.86 0 0 1-.313-.563 10.249 10.249 0 0 0-.187-.406c-.229-.396-.344-.677-.344-.844a.21.21 0 0 1 .094-.187c.063-.063.125-.094.187-.094.23 0 .438.125.626.375.145.146.26.302.343.469l.344.469.625.719.281-.438c.292-.5.979-1.49 2.063-2.969.229-.291.427-.437.594-.437Zm-42.344-2.937c0-.708-.063-1.302-.188-1.781-.75.896-1.562 1.77-2.437 2.625-.313.313-.563.469-.75.469-.125 0-.188-.073-.188-.219 0-.188.125-.448.375-.781 1.459-2 2.709-3.896 3.75-5.688a36.861 36.861 0 0 0 2.656-5.5c.105-.27.157-.687.157-1.25 0-.229.083-.343.25-.343.104 0 .291.083.562.25.292.145.552.333.781.562.23.23.344.458.344.688 0 .083-.021.187-.062.312l-.5 1.094c2.208 1.416 3.646 2.396 4.312 2.937.667.521 1 .886 1 1.094 0 .167-.104.427-.312.781-.188.334-.406.5-.656.5-.167 0-.365-.114-.594-.344-1.209-1.145-2.677-2.364-4.406-3.656a31.526 31.526 0 0 1-1.938 3.313c.146.02.375.031.688.031l2.406-.156c.354-.042.635-.104.844-.188a.531.531 0 0 1 .218-.031c.229 0 .49.146.782.438.312.27.468.5.468.687 0 .23-.239.365-.718.406l-3.813.313h-.219c-.312 0-.552-.063-.718-.188a1.552 1.552 0 0 1-.438-.562c-.292.437-.729 1.02-1.312 1.75.437.125.916.302 1.437.531l5.75-.375h.25c.208 0 .448.104.719.313.271.208.406.427.406.656 0 .104-.042.229-.125.375-.083.146-.125.24-.125.281l-.594 5.031c.417.542.625.906.625 1.094 0 .125-.052.208-.156.25-.104.02-.302.042-.594.063l-6.187.28-.032 5.594a47.403 47.403 0 0 0 4.594-2.156 5.111 5.111 0 0 0-.594-.719 6.485 6.485 0 0 1-.437-.468c-.292-.292-.437-.521-.437-.688 0-.208.124-.406.374-.594.25-.187.459-.28.626-.28.187 0 .406.135.656.406a39.626 39.626 0 0 1 2.375 2.874c.771.98 1.156 1.615 1.156 1.907 0 .229-.146.469-.437.719-.271.229-.521.343-.75.343-.23 0-.459-.219-.688-.656-.167-.313-.51-.854-1.031-1.625l-3.25 1.906c-.729.396-1.344.76-1.844 1.094-.708.458-1.177.698-1.406.719-.209 0-.448-.167-.719-.5-.271-.334-.344-.604-.219-.813.084-.146.146-.552.188-1.219.041-.687.062-1.197.062-1.53l.063-10.376Zm6.437 4.375.125-1.906-4.875.25v1.875l4.75-.219Zm.219-3.344.125-1.812-5.094.313v1.75l4.969-.25Zm1.844 13.876c0-.126.146-.334.437-.626 1.584-1.541 2.667-3.145 3.25-4.812.584-1.688.959-3.323 1.125-4.906l-1.406.062c-.583.042-.938.063-1.062.063-.48 0-.855-.115-1.126-.344a2.52 2.52 0 0 1-.593-.781c-.104-.292-.157-.49-.157-.594 0-.083.063-.125.188-.125.083 0 .156.01.219.031a4.64 4.64 0 0 0 1.125.125l.594-.031 2.406-.125c.104-1.625.156-3.167.156-4.625v-1l-.594.031c-.708.042-1.114.063-1.218.063-.376 0-.709-.084-1-.25-.292-.188-.532-.573-.719-1.156a.433.433 0 0 1-.031-.188c0-.125.072-.188.218-.188.084 0 .156.01.219.032.354.083.719.125 1.094.125.271 0 .479-.01.625-.031l4.812-.344c.854-1.709 1.448-3.073 1.782-4.094.354-1.042.531-1.73.531-2.063 0-.083-.021-.229-.063-.437a.688.688 0 0 1-.031-.219c0-.187.094-.281.281-.281.146 0 .386.083.719.25.333.146.625.333.875.563.271.229.406.458.406.687 0 .104-.291.77-.875 2a36.986 36.986 0 0 1-1.906 3.469l2.063-.156c.645-.042 1.177-.136 1.593-.282a1.61 1.61 0 0 1 .5-.094c.334 0 .677.178 1.031.532.376.354.563.646.563.875 0 .229-.187.364-.563.406l-3.187.219v5.781l1.469-.094a5.046 5.046 0 0 0 1.594-.312c.166-.063.302-.094.406-.094.312 0 .656.177 1.031.531.396.334.594.656.594.969 0 .25-.167.396-.5.438l-4.594.25-.031 10.687c0 .542-.167.813-.5.813-.375 0-.74-.146-1.094-.438-.333-.292-.5-.573-.5-.844 0-.146.01-.26.031-.344.125-.874.188-1.697.188-2.468l.031-7.313-3.719.188c-.187 1.291-.364 2.302-.531 3.031-.375 1.604-.969 2.98-1.781 4.125-.813 1.125-1.636 1.98-2.469 2.563-.812.604-1.385.906-1.719.906-.125 0-.187-.052-.187-.156Zm3.562-25.094c0-.125.125-.271.375-.438.25-.187.479-.281.688-.281.25 0 .458.135.625.406.666 1 1.229 1.99 1.687 2.969.479.98.719 1.552.719 1.719 0 .208-.177.396-.531.562-.354.146-.636.219-.844.219a.466.466 0 0 1-.344-.125 2.304 2.304 0 0 1-.219-.406 22.69 22.69 0 0 0-1.937-4.063c-.146-.25-.219-.437-.219-.562Zm6.844 12.75.031-5.719-3.375.219c0 2.062-.073 3.958-.218 5.687l3.562-.187Z"/></svg>