<svg xmlns="http://www.w3.org/2000/svg" width="350" height="36" fill="none"><path fill="#333" d="M83.91 14.281a1.25 1.25 0 0 1-.914-.386 26.788 26.788 0 0 0-2.355-2.286c-.891-.75-1.676-1.312-2.356-1.687-.328-.188-.492-.48-.492-.879 0-.07.082-.164.246-.281.211-.14.55-.446 1.02-.914l1.265-1.23a23.857 23.857 0 0 0 1.407-1.583c.398-.469.62-.797.667-.984.024-.047.047-.14.07-.281.048-.165.118-.247.212-.247.117 0 .27.059.457.176.21.117.386.235.527.352.352.328.527.61.527.844-.023.07-.117.152-.28.246-.142.07-.27.14-.388.21-.117.094-.539.47-1.265 1.126l-2.285 1.968c-.399.328-.598.586-.598.774 0 .094.188.246.563.457.445.281 1.312.855 2.601 1.722.492.329.961.692 1.406 1.09.375.375.563.762.563 1.16 0 .188-.082.352-.246.493a.477.477 0 0 1-.352.14Zm-6.258 5.871c-.258 0-.574-.199-.949-.597-.281-.282-.422-.492-.422-.633 0-.07.047-.106.14-.106a1.48 1.48 0 0 1 .352-.035l.774-.035c.445 0 .738-.012.879-.035.445 0 .82-.012 1.125-.035 2.015-.188 3.375-.34 4.078-.457.352-.047.668-.094.95-.14a2.93 2.93 0 0 1 .667-.106c.328 0 .656.164.985.492.257.258.386.469.386.633 0 .14-.082.234-.246.28-.117.024-.808.071-2.074.142a46.88 46.88 0 0 0-2.602.175 92.201 92.201 0 0 0-2.707.282c-.14.023-.34.058-.597.105-.258.047-.504.07-.739.07Zm-.21 14.028c-.352 0-.622-.094-.81-.282-.21-.21-.316-.398-.316-.562 0-.164.094-.34.282-.527.023-.024.152-.211.386-.563.516-.82 1.102-1.863 1.758-3.129.68-1.289 1.102-2.168 1.266-2.637.14-.445.27-.832.386-1.16.141-.328.258-.492.352-.492.164 0 .305.059.422.176.117.094.234.234.351.422.141.164.247.281.317.351.164.188.246.364.246.528a.562.562 0 0 1-.14.351c-.094.117-.153.2-.176.246l-1.547 2.602a71.71 71.71 0 0 1-1.582 2.707.563.563 0 0 0-.14.352c0 .093.105.14.316.14.445 0 1.277-.059 2.496-.176 1.218-.093 2.039-.175 2.46-.246.61-.07 1.032-.14 1.266-.21.258-.071.633.105 1.125.527.586.492.715.808.387.949-.188.094-.55.14-1.09.14h-1.406c-.305 0-.785.024-1.442.07-.398 0-.843.013-1.336.036-.492.023-.902.047-1.23.07-.375.024-1.102.094-2.18.211l-.422.106ZM51.671 17.2c-.399 0-.668-.071-.809-.212a2.92 2.92 0 0 1-.633-.914c-.14-.328-.21-.562-.21-.703 0-.14.058-.21.175-.21a.49.49 0 0 1 .211.034c.586.14 1.125.188 1.617.14l8.297-.42-.035-2.25-3.586.21-.703.035c-.445 0-.762-.082-.95-.246a2.78 2.78 0 0 1-.526-.527 2.941 2.941 0 0 1-.352-.633l-.07-.281c0-.141.07-.211.21-.211.094 0 .165.011.212.035.468.117.878.176 1.23.176l.492-.036 4.043-.21V8.902l-5.52.282-.632.035c-.492 0-.89-.13-1.196-.387-.28-.281-.48-.562-.597-.844-.094-.304-.14-.504-.14-.597 0-.118.07-.176.21-.176l.176.035c.539.117 1.055.176 1.547.176h.176l5.941-.281V5.633c0-.727-.14-1.348-.422-1.863a.63.63 0 0 1-.105-.317c0-.164.152-.246.457-.246.468 0 .949.082 1.441.246.516.164.773.492.773.985v2.601l4.887-.246c.281-.023.727-.117 1.336-.281l.176-.035c.234 0 .586.164 1.055.492.468.304.703.61.703.914 0 .304-.246.48-.739.527l-7.417.387-.036 2.074 4.043-.21a4.049 4.049 0 0 0 1.23-.282.49.49 0 0 1 .212-.035c.234 0 .55.164.949.492.422.328.633.633.633.914 0 .258-.235.41-.703.457l-6.364.352v2.285l8.262-.422a3.662 3.662 0 0 0 1.3-.281.604.604 0 0 1 .247-.036c.305 0 .656.188 1.055.563.398.352.597.68.597.984 0 .282-.246.446-.738.493l-20.531 1.02-.88.034Zm-9.844-2.813c0-.211.106-.457.316-.739.212-.28.41-.421.598-.421.258 0 .973.398 2.145 1.195a58.894 58.894 0 0 1 3.34 2.39c.375.282.562.54.562.774 0 .21-.14.504-.422.879-.258.375-.504.562-.738.562-.164 0-.41-.14-.738-.422a40.874 40.874 0 0 0-4.57-3.55c-.329-.211-.493-.434-.493-.668ZM42.04 32c0-.117.094-.234.281-.352a5.387 5.387 0 0 0 1.301-1.23c1.898-2.578 3.856-5.637 5.871-9.176.375-.656.715-.984 1.02-.984.187 0 .281.129.281.387 0 .445-.516 1.804-1.547 4.078a81.218 81.218 0 0 1-3.586 6.89 9.463 9.463 0 0 1-.387.633c-.187.352-.363.586-.527.703a.797.797 0 0 1-.527.211h-.106c-.351 0-.691-.082-1.02-.246a3.13 3.13 0 0 1-.773-.492c-.187-.188-.28-.328-.28-.422Zm2.496-25.383c0-.187.117-.433.352-.738.21-.281.422-.422.633-.422.234 0 .82.363 1.757 1.09a25.08 25.08 0 0 1 2.672 2.25c.844.773 1.266 1.277 1.266 1.512 0 .328-.164.644-.492.949-.328.281-.575.422-.739.422-.187 0-.422-.153-.703-.457-1.57-1.664-3-2.989-4.289-3.973-.304-.234-.457-.445-.457-.633Zm6.68 28.266c0-.305.094-.574.281-.809.797-1.218 1.418-2.343 1.863-3.375.446-1.031.785-2.238 1.02-3.62.234-1.407.352-3.153.352-5.24 0-.937-.012-1.581-.036-1.933-.023-.351-.093-.633-.21-.843-.141-.235-.212-.41-.212-.528 0-.047.024-.094.07-.14a.434.434 0 0 1 .247-.07c.515 0 1.16.175 1.933.527l10.793-.457a2.06 2.06 0 0 1 1.196.28.93.93 0 0 1 .527.88c0 .117-.023.246-.07.386a1.97 1.97 0 0 0-.035.387l.105 12.024c0 .21.012.41.035.597.024.188.035.352.035.492 0 .399-.175.774-.527 1.125-.328.352-.644.528-.95.528-.327 0-.937-.258-1.827-.774a22.782 22.782 0 0 1-2.461-1.687c-.75-.586-1.125-.996-1.125-1.23 0-.141.105-.212.316-.212.14 0 .387.059.738.176 1.29.516 2.496.914 3.621 1.195l-.035-4.359-10.793.352a13.927 13.927 0 0 1-1.336 3.304c-.562.985-1.148 1.758-1.757 2.32-.586.587-1.09.891-1.512.915h-.07c-.118 0-.176-.07-.176-.211Zm15.644-8.578V24.16l-10.195.352c-.023.75-.094 1.465-.21 2.144l10.405-.351Zm-.035-3.973v-2.039l-10.02.422-.035 1.969 10.055-.352Zm73.442-16.453c0 .516-.024 1.008-.071 1.476l-.07 1.97c-.023.538-.094 1.44-.211 2.706-.023.375-.141.668-.352.88-.187.21-.363.316-.527.316-.187-.024-.351-.188-.492-.493a2.034 2.034 0 0 1-.105-.984c.023-.188.093-.96.21-2.32.047-1.453.024-2.426-.07-2.918-.023-.164-.187-.27-.492-.317h-.984l-1.618.14c-.328.024-.82.095-1.476.212-.633.117-1.149.223-1.547.316-.023.797-.012 1.805.035 3.024l.141 2.39a.945.945 0 0 1-.176.563c-.094.164-.211.246-.352.246-.281 0-.504-.188-.668-.563a2.101 2.101 0 0 1-.211-.949l-.035-.597-.07-2.004c0-.586-.023-1.418-.07-2.496 0-.188-.012-.329-.035-.422a1.035 1.035 0 0 1-.036-.176.792.792 0 0 1-.035-.246c0-.188.094-.281.281-.281.141 0 .258.023.352.07l.633.21c.258-.046.48-.081.668-.105.211-.023.363-.047.457-.07 1.078-.164 2.414-.281 4.008-.352.586 0 .996-.058 1.23-.175a.383.383 0 0 1 .141-.07c.093-.048.164-.06.211-.036l.351.106c.094.023.188.07.281.14a.95.95 0 0 1 .247.176c.304.305.457.516.457.633Zm-8.614 14.273c-.257 0-.574-.199-.949-.597-.281-.282-.422-.492-.422-.633 0-.07.047-.106.141-.106a1.48 1.48 0 0 1 .351-.035l.774-.035c.445 0 .738-.012.879-.035.445 0 .82-.012 1.125-.035 2.015-.188 3.375-.34 4.078-.457a29.8 29.8 0 0 0 .949-.14c.281-.071.504-.106.668-.106.328 0 .656.164.984.492.258.258.387.469.387.633 0 .14-.082.234-.246.28-.117.024-.809.071-2.074.142-.703.023-1.57.082-2.602.175a92.491 92.491 0 0 0-2.707.282c-.14.023-.34.058-.597.105-.258.047-.504.07-.739.07Zm-.211 14.028c-.351 0-.621-.094-.808-.282-.211-.21-.317-.398-.317-.562 0-.164.094-.34.282-.527.023-.024.152-.211.386-.563.516-.82 1.102-1.863 1.758-3.129.68-1.289 1.102-2.168 1.266-2.637.14-.445.269-.832.387-1.16.14-.328.257-.492.351-.492.164 0 .305.059.422.176.117.094.234.234.352.422.14.164.246.281.316.351.164.188.246.364.246.528a.562.562 0 0 1-.141.351c-.093.117-.152.2-.175.246l-1.547 2.602a72.802 72.802 0 0 1-1.582 2.707.562.562 0 0 0-.141.352c0 .093.106.14.316.14.446 0 1.278-.059 2.497-.176 1.218-.093 2.039-.175 2.461-.246.609-.07 1.031-.14 1.265-.21.258-.071.633.105 1.125.527.586.492.715.808.387.949-.188.094-.551.14-1.09.14h-1.406c-.305 0-.785.024-1.442.07-.398 0-.843.013-1.336.036-.492.023-.902.047-1.23.07-.375.024-1.102.094-2.18.211l-.422.106Zm14.942-15.504c.281 0 .422.129.422.387 0 .14-.129.34-.387.597-.703.867-2.098 2.52-4.184 4.957-.164.211-.316.317-.457.317-.117 0-.375-.176-.773-.528-.328-.281-.492-.515-.492-.703 0-.21.176-.41.527-.598.539-.304 1.348-.914 2.426-1.828 1.078-.96 1.875-1.722 2.39-2.285.211-.21.387-.316.528-.316Zm-33.047 4.254c-.539 2.718-1.383 4.957-2.531 6.715-1.149 1.757-2.637 3.386-4.465 4.886l-.176.14c-.469.329-.797.493-.984.493-.164 0-.246-.082-.246-.246 0-.234.199-.586.597-1.055 1.735-2.015 3.047-3.972 3.938-5.87.89-1.9 1.5-3.938 1.828-6.118.328-2.18.492-4.887.492-8.121 0-2.672-.035-4.453-.105-5.344-.071-.89-.164-1.465-.282-1.723-.117-.234-.175-.433-.175-.597 0-.188.117-.281.351-.281.445 0 1.301.316 2.567.949l8.296-.598h.317c.351 0 .644.082.879.246.234.164.41.352.527.563.117.21.176.363.176.457 0 .094-.035.222-.106.386-.07.165-.105.282-.105.352l.176 24.223.035 1.195c0 .586-.129 1.043-.387 1.371-.234.328-.492.54-.773.633-.282.117-.492.176-.633.176-.445 0-1.172-.364-2.18-1.09a27.06 27.06 0 0 1-2.812-2.39c-.867-.868-1.301-1.419-1.301-1.653 0-.117.082-.176.246-.176.281 0 .68.14 1.195.422.657.352 1.348.703 2.075 1.055.726.351 1.464.668 2.214.949l-.07-10.371-8.578.422ZM97.621 7.566c0-.14.094-.21.281-.21.329 0 1.055.199 2.18.597l6.856-.562c.093-.024.234-.036.421-.036.446 0 .786.141 1.02.422.258.282.387.528.387.739 0 .117-.036.257-.106.421a5.225 5.225 0 0 0-.105.422l-.598 14.766c.727.727 1.09 1.242 1.09 1.547 0 .164-.082.27-.246.316-.164.024-.446.047-.844.07l-7.312.212.035 2.039v.175c0 .516-.164.774-.492.774-.352 0-.762-.13-1.231-.387-.445-.281-.668-.633-.668-1.055 0-.164.012-.293.035-.386.117-.657.176-1.278.176-1.864v-.351l-.352-15.223c-.023-.726-.152-1.383-.386-1.969a4.523 4.523 0 0 1-.14-.457Zm2.777 8.368 5.696-.317.14-6.258-5.976.563.14 6.012Zm.176 8.402 5.309-.14.176-6.716-5.625.317.14 6.539Zm21.34-3.727-.035-5.168-7.84.457c-.023.657-.117 1.957-.281 3.903l-.106 1.23 8.262-.422Zm-7.84-11.847c.024 1.289.035 3.047.035 5.273l7.77-.492-.035-5.309-7.77.528Zm78.047 5.625c-.164 0-.34-.106-.527-.317a2.15 2.15 0 0 1-.282-.386c-.046-.118-.046-.27 0-.457l.036-.844c.023-.164.035-.563.035-1.195v-1.16l-1.055.492-1.23.527a10.87 10.87 0 0 0-.95.422c-.281.14-.527.21-.738.21a2.17 2.17 0 0 1-.562-.175 4.837 4.837 0 0 1-.493-.246c-.257-.164-.375-.34-.351-.527l.105-.352c0-.188.012-.352.036-.492l.035-2.04V5.95c0-.375-.024-.691-.071-.949-.047-.281-.082-.48-.105-.598 0-.117.035-.199.105-.246.024-.023.082-.035.176-.035.164 0 .481.106.949.316.399.188.563.422.493.704-.047.164-.094.41-.141.738l-.106 4.043c0 .117.012.21.036.281.046.047.093.07.14.07.282 0 .621-.082 1.02-.246.75-.234 1.394-.468 1.933-.703l.774-.316v-2.32c0-.938-.059-1.84-.176-2.708a.792.792 0 0 1-.035-.246c0-.234.094-.351.281-.351.024 0 .152.047.387.14.351.188.609.352.773.493.164.14.258.222.282.246.093.07.14.14.14.21a.34.34 0 0 1-.07.176c-.024.07-.047.13-.07.176l-.106 1.055-.035 3.234.035 3.13c0 .538-.035 1.007-.105 1.405-.118.493-.305.739-.563.739Zm-6.469 5.765c-.257 0-.574-.199-.949-.597-.281-.282-.422-.492-.422-.633 0-.07.047-.106.141-.106a1.48 1.48 0 0 1 .351-.035l.774-.035c.445 0 .738-.012.879-.035.445 0 .82-.012 1.125-.035 2.015-.188 3.375-.34 4.078-.457a29.8 29.8 0 0 0 .949-.14c.281-.071.504-.106.668-.106.328 0 .656.164.984.492.258.258.387.469.387.633 0 .14-.082.234-.246.28-.117.024-.809.071-2.074.142-.703.023-1.57.082-2.602.175a92.491 92.491 0 0 0-2.707.282c-.14.023-.34.058-.597.105-.258.047-.504.07-.739.07Zm4.711 14.52c-.726 0-1.289-.024-1.687-.07a1.68 1.68 0 0 1-.949-.422c-.446-.328-.75-1.043-.915-2.145l-.105-1.125c0-.281-.023-.633-.07-1.055a5.987 5.987 0 0 0-.809.141 3.817 3.817 0 0 1-.246.106.965.965 0 0 1-.211.035.81.81 0 0 1-.457-.14c-.141-.095-.316-.27-.527-.528-.164-.211-.246-.352-.246-.422s.082-.117.246-.14c.164-.024.386-.036.668-.036.398 0 .914-.047 1.547-.14l-.036-.493c0-.937-.058-1.734-.175-2.39l-.036-.246c0-.329.129-.457.387-.387.281.094.539.21.774.351.187.094.316.188.386.282.071.07.094.175.071.316l-.106 1.512v.914l3.094-.317c0-.164.012-.55.035-1.16.024-.633.024-1.043 0-1.23 0-.188-.023-.363-.07-.527a6.529 6.529 0 0 0-.071-.458c0-.187.094-.28.282-.28.187 0 .422.105.703.316.328.21.539.398.633.562.117.164.14.363.07.598a6.4 6.4 0 0 0-.246 1.265c-.047.47-.07.75-.07.844.281-.023.539-.058.773-.105.234-.047.387-.07.457-.07.188-.047.41-.071.668-.071.141.023.34.164.598.422.211.281.316.504.316.668 0 .234-.223.328-.668.281a6.863 6.863 0 0 0-1.195-.105c-.399 0-.738.011-1.02.035-.07.844-.211 1.676-.422 2.496a.953.953 0 0 1-.246.457c-.117.14-.222.21-.316.21-.164 0-.27-.07-.317-.21a3.524 3.524 0 0 1-.035-.598c.047-.61.071-1.37.071-2.285a26.99 26.99 0 0 0-1.477.14 9.357 9.357 0 0 1-1.512.212c-.023.96.024 1.816.141 2.566.07.492.211.832.422 1.02.14.117.305.187.492.21.211.024.422.036.633.036h.422c.726 0 1.406-.035 2.039-.106a1.52 1.52 0 0 0 .492-.14c.164-.07.281-.106.352-.106.21 0 .421.07.632.211.211.14.317.305.317.492 0 .188-.106.328-.317.422-.187.094-.492.176-.914.246-.75.094-1.5.14-2.25.14Zm10.02-15.996c.281 0 .422.129.422.387 0 .14-.129.34-.387.597-.703.867-2.098 2.52-4.184 4.957-.164.211-.316.317-.457.317-.117 0-.375-.176-.773-.528-.328-.281-.492-.515-.492-.703 0-.21.176-.41.527-.598.539-.304 1.348-.914 2.426-1.828 1.078-.96 1.875-1.722 2.39-2.285.211-.21.387-.316.528-.316Zm-44.684 11.496c2.086-.656 3.949-1.371 5.59-2.145a25.586 25.586 0 0 0-1.336-1.687c-.187-.235-.281-.422-.281-.563 0-.258.152-.48.457-.668.305-.21.539-.316.703-.316.188 0 .387.117.598.352a137.853 137.853 0 0 1 3.41 4.148c.937 1.195 1.406 1.922 1.406 2.18 0 .21-.164.457-.492.738-.305.305-.598.457-.879.457-.234 0-.469-.188-.703-.563a96.435 96.435 0 0 0-1.828-2.671l-4.219 2.109c-.469.21-1.207.586-2.215 1.125-.844.445-1.359.668-1.547.668-.14 0-.316-.094-.527-.281a1.65 1.65 0 0 1-.492-.633c-.094-.234-.094-.422 0-.563.14-.257.211-1.289.211-3.093V16.602c0-.563-.024-1.02-.071-1.372a3.587 3.587 0 0 0-.281-1.125 1.37 1.37 0 0 0-.07-.175.305.305 0 0 1-.035-.14c0-.118.082-.177.246-.177.304 0 1.066.258 2.285.774l7.629-.528c.187-.023.398-.035.633-.035.257 0 .562.117.914.352.351.21.527.445.527.703 0 .094-.059.234-.176.422-.094.187-.14.328-.14.422l-.914 6.609c.562.656.843 1.102.843 1.336 0 .117-.07.2-.211.246-.117.047-.304.07-.562.07l-8.508.317.035 5.87Zm-5.765-15.785c0-.235.152-.516.457-.844 1.711-1.898 3.199-3.785 4.464-5.66 1.266-1.875 1.899-3.13 1.899-3.762l-.035-.246V3.77c0-.329.129-.493.386-.493.305 0 .727.211 1.266.633.563.399.844.727.844.985 0 .117-.059.27-.176.457a23.895 23.895 0 0 1-1.16 1.687l4.992-.387a4.872 4.872 0 0 0 1.336-.28c.141-.048.246-.071.316-.071.352 0 .727.199 1.125.597.422.375.633.668.633.88 0 .28-.258.445-.773.492l-6.012.421c.164.047.527.293 1.09.739.586.445 1.113.902 1.582 1.37.469.47.703.798.703.985 0 .211-.141.469-.422.774-.281.28-.527.421-.738.421-.188 0-.41-.152-.668-.457a21.796 21.796 0 0 0-2.426-2.285c-.281-.234-.422-.433-.422-.597 0-.118.059-.27.176-.457.117-.188.27-.34.457-.457l-2.355.175a34.406 34.406 0 0 1-3.727 3.903c-1.359 1.195-2.226 1.793-2.601 1.793-.141 0-.211-.07-.211-.211Zm12.656 3.656.246-2.461-7.242.492v2.32l6.996-.351Zm-.457 4.36.281-2.708-6.785.317v2.636l6.504-.246Zm1.898-9.528c0-.234.153-.516.457-.844 1.149-1.383 2.192-2.941 3.129-4.676.961-1.757 1.442-2.988 1.442-3.69v-.142c0-.351.129-.527.386-.527.164 0 .41.094.739.281.351.164.668.364.949.598.281.234.422.469.422.703 0 .211-.164.586-.493 1.125-.328.54-.503.82-.527.844l6.926-.563a6.483 6.483 0 0 0 1.336-.246c.047-.023.141-.035.281-.035.328 0 .68.188 1.055.563.398.351.597.644.597.879 0 .14-.07.257-.21.351-.118.07-.282.117-.493.14l-7.136.493c.656.422 1.429 1.043 2.32 1.863.891.797 1.336 1.336 1.336 1.617 0 .164-.129.422-.387.774-.258.328-.504.492-.738.492-.188 0-.387-.117-.598-.352-1.148-1.242-2.191-2.226-3.129-2.953-.234-.187-.351-.363-.351-.527 0-.188.176-.469.527-.844l-2.601.176c-.774 1.031-1.711 2.074-2.813 3.129-1.078 1.055-1.805 1.582-2.18 1.582-.164 0-.246-.07-.246-.211Zm3.305.773c0-.14.082-.21.246-.21.352 0 1.148.292 2.391.878l7.066-.597.281-.035c.094 0 .27.046.528.14.281.07.539.2.773.387.258.164.387.387.387.668 0 .094-.035.223-.106.387-.07.164-.105.28-.105.351a88.243 88.243 0 0 1-.492 8.262l-.071.879c-.07.984-.164 1.805-.281 2.46-.117.657-.316 1.173-.598 1.548-.445.609-.925.914-1.441.914s-1.172-.317-1.969-.95a18.576 18.576 0 0 1-2.215-2.074c-.656-.75-.984-1.23-.984-1.441 0-.164.094-.246.281-.246.211 0 .504.117.879.351.867.54 1.594.973 2.18 1.301.586.328 1.008.492 1.266.492.117 0 .199-.082.246-.246.539-3 .867-6.762.984-11.285l-6.609.492c0 3.961.035 10.242.105 18.844 0 .21-.058.363-.176.457a.466.466 0 0 1-.386.176c-.188 0-.411-.07-.668-.211-.446-.188-.762-.363-.95-.528-.187-.164-.281-.351-.281-.562l.035-.246c.141-.773.211-1.64.211-2.602l-.105-14.836c0-.609-.024-1.078-.07-1.406a3.306 3.306 0 0 0-.211-.95c-.094-.28-.141-.468-.141-.562Zm72.316.528c-.257 0-.574-.2-.949-.598-.281-.281-.422-.492-.422-.633 0-.07.047-.105.141-.105.094-.024.211-.035.351-.035l.774-.035c.445 0 .738-.012.879-.036.445 0 .82-.011 1.125-.035 2.015-.187 3.375-.34 4.078-.457.351-.047.668-.094.949-.14.281-.07.504-.106.668-.106.328 0 .656.164.984.492.258.258.387.469.387.633 0 .14-.082.234-.246.281-.117.024-.809.07-2.074.141-.703.023-1.57.082-2.602.176a92.523 92.523 0 0 0-2.707.281c-.14.023-.34.059-.597.105-.258.047-.504.07-.739.07Zm8.262 15.96c-.023.024-.082.036-.176.036-.187 0-.457-.129-.808-.387a93.877 93.877 0 0 0-3.129-2.953c-.61.61-1.184 1.137-1.723 1.582-.187.14-.516.352-.984.633-.68.398-1.336.644-1.969.738h-.211c-.211 0-.34-.023-.387-.07-.023-.024.024-.07.141-.14a3.03 3.03 0 0 0 .316-.177c.141-.07.539-.328 1.196-.773.328-.234.797-.633 1.406-1.195.609-.563 1.055-1.02 1.336-1.371l-1.442-1.125a44.357 44.357 0 0 0-.843-.598 5.944 5.944 0 0 0-.598-.457l-.035-.106c0-.14.117-.21.351-.21.282 0 .739.175 1.372.527l1.793 1.16c.398-.516.796-1.078 1.195-1.688.422-.632.644-1.007.668-1.125.023-.07.012-.128-.035-.175-.024-.07-.071-.106-.141-.106h-.703l-1.266.106c-.633.047-1.265.129-1.898.246-.07.023-.188.058-.352.105a1.57 1.57 0 0 1-.422.07c-.046 0-.246-.128-.597-.386-.328-.281-.504-.457-.528-.527-.023-.024-.035-.06-.035-.106 0-.117.129-.164.387-.14h.492c.656 0 1.606-.06 2.848-.176l1.195-.106 1.09-.14c.352-.094.551-.141.598-.141h.07c.117 0 .223.035.316.105.094.07.164.141.211.211.047.07.082.117.106.141.023.023.093.094.211.21.117.095.187.188.211.282.047.07.07.152.07.246 0 .211-.082.364-.246.457-.117.047-.328.293-.633.739-.516.82-1.137 1.699-1.863 2.636.398.258.914.633 1.547 1.125.281.188.738.504 1.371.95.281.21.492.492.633.843.093.375.14.657.14.844-.023.188-.105.316-.246.387Zm6.469-15.327c.281 0 .422.129.422.386 0 .14-.129.34-.387.598-.703.867-2.098 2.52-4.184 4.957-.164.21-.316.316-.457.316-.117 0-.375-.175-.773-.527-.328-.281-.492-.516-.492-.703 0-.211.176-.41.527-.598.539-.304 1.348-.914 2.426-1.828 1.078-.96 1.875-1.723 2.39-2.285.211-.21.387-.316.528-.316Zm-20.531 20.214c-2.696 0-5.954-.316-9.774-.949a292.329 292.329 0 0 1-12.199-2.32c-1.359-.281-2.449-.422-3.27-.422-1.148 0-2.355.211-3.621.633-.211.07-.398.105-.562.105-.586 0-.879-.504-.879-1.511 0-.188.058-.329.176-.422.117-.117.351-.211.703-.282.351-.093.914-.199 1.687-.316 1.594-1.453 2.953-2.883 4.078-4.289a.624.624 0 0 0 .071-.176c0-.14-.258-.41-.774-.808a18.774 18.774 0 0 0-1.793-1.336c-.609-.399-.914-.856-.914-1.371 0-.399.199-.903.598-1.512l2.25-3.27-3.234.422-.739.07c-.492 0-.902-.187-1.23-.562-.328-.375-.539-.75-.633-1.125a.496.496 0 0 1-.035-.21c0-.165.07-.247.211-.247l.211.035c.351.07.703.106 1.054.106.235 0 .411-.012.528-.036l5.238-.562.352-.035c.07 0 .222.058.457.176.234.093.445.234.632.421.188.165.282.352.282.563 0 .21-.094.41-.282.598-.187.164-.304.28-.351.351-.047.07-.598.797-1.652 2.18-1.055 1.36-1.583 2.133-1.583 2.32 0 .094.059.176.176.246.774.492 1.676 1.219 2.707 2.18.446.398.668.867.668 1.406 0 .492-.211.973-.633 1.442-1.382 1.476-2.308 2.437-2.777 2.882.891.024 1.957.153 3.199.387 10.032 1.992 17.59 2.988 22.676 2.988h.176c.539 0 .808.106.808.317 0 .07-.082.27-.246.597-.14.329-.339.633-.597.915-.258.28-.563.421-.914.421h-.246ZM205.691 6.547c0-.188.153-.399.457-.633.305-.234.551-.351.739-.351.234 0 .785.41 1.652 1.23.891.82 1.723 1.7 2.496 2.637.797.914 1.195 1.488 1.195 1.722 0 .235-.164.516-.492.844-.304.328-.609.492-.914.492-.281 0-.562-.222-.844-.668a32.225 32.225 0 0 0-3.867-4.57c-.281-.281-.422-.516-.422-.703Zm6.153 22.113c0-.281.152-.644.457-1.09a24.098 24.098 0 0 0 2.883-6.925c.632-2.508 1.019-5.403 1.16-8.684l-1.231.105a5.831 5.831 0 0 1-.703.036c-.398 0-.703-.082-.914-.247-.328-.351-.562-.796-.703-1.335a.397.397 0 0 1-.035-.176c0-.094.058-.14.176-.14h.07c.187 0 .445.023.773.07.328.046.586.07.774.07h.316l5.098-.352c.422-.023.902-.14 1.441-.351.071-.047.188-.07.352-.07.304 0 .668.175 1.09.527.445.351.668.632.668.843 0 .118-.071.223-.211.317a1.227 1.227 0 0 1-.563.176l-4.359.386c-.094 1.313-.188 2.285-.281 2.918l2.671-.14h.282c.375 0 .679.082.914.246.398.351.597.668.597.949a1.5 1.5 0 0 1-.07.387 3.601 3.601 0 0 0-.105.492c-.141 3.656-.469 7.02-.985 10.09-.211 1.195-.562 2.004-1.054 2.425-.493.422-.903.633-1.231.633-.68 0-1.652-1.02-2.918-3.058-.211-.328-.316-.575-.316-.739 0-.164.082-.246.246-.246.164 0 .41.13.738.387.703.563 1.313.961 1.828 1.195.024.024.071.035.141.035.14 0 .234-.058.281-.175.422-1.617.715-3.282.879-4.992a89.18 89.18 0 0 0 .422-5.836l-2.531.105c-.329 2.508-.868 4.7-1.618 6.574-.726 1.852-1.793 3.575-3.199 5.168-.445.469-.773.703-.984.703-.164 0-.246-.093-.246-.28Zm3.551-23.484c0-.211.105-.434.316-.668.234-.258.457-.387.668-.387.187 0 .68.27 1.476.809a21.048 21.048 0 0 1 2.286 1.652c.703.586 1.054.996 1.054 1.23 0 .188-.129.458-.386.81-.258.327-.516.491-.774.491a.715.715 0 0 1-.387-.14 3.005 3.005 0 0 0-.316-.282 1.997 1.997 0 0 0-.176-.21 12.213 12.213 0 0 0-1.301-1.196 12.718 12.718 0 0 0-1.23-.914 21.577 21.577 0 0 0-.773-.562c-.305-.235-.457-.446-.457-.633Zm7.312 9.14c0-.164.094-.457.281-.879a26.26 26.26 0 0 0 1.617-3.726c.469-1.313.821-2.461 1.055-3.445.258-1.008.387-1.606.387-1.793 0-.258-.047-.493-.141-.703a.497.497 0 0 1-.035-.211c0-.188.106-.282.317-.282.164 0 .421.059.773.176.351.117.656.281.914.492.281.211.422.446.422.703a.497.497 0 0 1-.035.211 37.122 37.122 0 0 1-1.231 3.446l4.078-.422c.071 0 .235-.012.493-.035.257-.024.55-.094.878-.211.141-.047.235-.07.282-.07.281 0 .621.175 1.019.527.399.351.598.633.598.844 0 .304-.211.48-.633.527l-7.488.562a40.905 40.905 0 0 1-1.301 2.286c-.023.023-.012.035.035.035a.313.313 0 0 1 .141-.036h.105a3 3 0 0 0 .95.141l.527-.035 4.676-.387h.211c.21 0 .503.082.878.246.399.164.598.387.598.668 0 .235-.105.457-.316.668-.188.188-.293.305-.317.352a21.73 21.73 0 0 1-3.093 3.691c.304.703.539 1.453.703 2.25l1.652-.105a6.288 6.288 0 0 0 1.547-.246c.141-.047.223-.07.246-.07.234 0 .551.163.949.492.399.304.598.597.598.878 0 .305-.235.48-.703.528l-4.008.246c.211 1.289.316 2.672.316 4.148 0 1.899-.199 3.27-.597 4.114-.375.843-.879 1.265-1.512 1.265-.422 0-.949-.258-1.582-.773a11.12 11.12 0 0 1-1.688-1.793c-.492-.656-.738-1.113-.738-1.371 0-.14.07-.211.211-.211.211 0 .527.14.949.422 1.266.843 2.028 1.265 2.285 1.265.211 0 .329-.105.352-.316.234-1.172.352-2.414.352-3.727 0-1.03-.071-2.004-.211-2.918l-2.743.176-.597.035c-.656 0-1.137-.164-1.442-.492a2.833 2.833 0 0 1-.562-1.125l-.035-.14c0-.118.07-.176.211-.176l.175.035c.516.117.997.176 1.442.176h.316l2.848-.211a12.923 12.923 0 0 0-1.266-3.024.832.832 0 0 1-.105-.351c0-.188.152-.375.457-.563.328-.21.598-.316.808-.316.235 0 .434.14.598.422.727-.82 1.324-1.64 1.793-2.461l-3.094.351-.843.07a1.51 1.51 0 0 1-.914-.28c-.235-.188-.446-.598-.633-1.231a.482.482 0 0 1-.035-.211 11.96 11.96 0 0 1-1.09 1.547c-.375.422-.657.633-.844.633-.141 0-.211-.094-.211-.282Zm74.707 3.832c-.141 0-.328-.152-.562-.457-.235-.328-.34-.609-.317-.843.047-.188.082-.715.106-1.582.023-.586.035-1.618.035-3.094 0-1.031-.012-1.723-.035-2.074l-1.161.105a15.24 15.24 0 0 1-2.109.176c-.164 0-.398-.129-.703-.387-.305-.258-.457-.445-.457-.562 0-.188.199-.258.598-.211.257.023 1.019.011 2.285-.035a114.49 114.49 0 0 1 3.761-.211c.399-.024.762-.059 1.09-.106.352-.07.598-.117.739-.14.211-.024.398 0 .562.07.164.07.316.164.457.281.164.094.293.164.387.211.211.14.316.27.316.387 0 .094-.058.187-.176.281a.512.512 0 0 1-.316.105c-.117 0-.281-.011-.492-.035a5.16 5.16 0 0 0-.633-.035c-.867 0-1.758.024-2.672.07-.023.188-.035.657-.035 1.407-.047 1.265-.07 2.508-.07 3.726v1.688c0 .398-.035.656-.106.773-.211.328-.375.492-.492.492Zm-3.762 8.332c-.257 0-.574-.199-.949-.597-.281-.281-.422-.492-.422-.633 0-.07.047-.105.141-.105.094-.024.211-.036.351-.036l.774-.035c.445 0 .738-.012.879-.035.445 0 .82-.012 1.125-.035 2.015-.188 3.375-.34 4.078-.457a29.8 29.8 0 0 0 .949-.14c.281-.071.504-.106.668-.106.328 0 .656.164.984.492.258.258.387.469.387.633 0 .14-.082.234-.246.281-.117.023-.809.07-2.074.14-.703.024-1.57.083-2.602.176a92.491 92.491 0 0 0-2.707.282c-.14.023-.34.058-.597.105-.258.047-.504.07-.739.07Zm10.231-8.859c.117 0 .293.082.527.246-.023.047.024.14.141.281l.246.247c.117.117.234.257.351.421.141.165.293.34.457.528.422.445 1.395 1.605 2.918 3.48.258.375.387.598.387.668 0 .235-.14.352-.422.352-.164 0-.34-.117-.527-.352-.445-.469-1.242-1.207-2.391-2.215-.89-.82-1.699-1.453-2.425-1.898-.352-.164-.528-.352-.528-.563 0-.164.176-.398.528-.703.328-.328.574-.492.738-.492Zm-35.613-3.023c0 .351.128.62.386.808.282.188.821.281 1.617.281.915 0 1.653-.07 2.215-.21.563-.141.938-.282 1.125-.422a.502.502 0 0 1 .282-.07c.234 0 .492.187.773.562.281.351.422.633.422.844 0 .234-.223.386-.668.457-2.063.234-3.586.351-4.57.351-1.336 0-2.25-.152-2.743-.457-.492-.305-.738-.879-.738-1.723v-.21l.035-.598-.949.105c-.211.024-.48.036-.809.036-.632 0-1.066-.188-1.3-.563-.235-.375-.352-.668-.352-.879 0-.094.059-.14.176-.14l.176.035c.328.07.668.105 1.019.105.305 0 .539-.012.703-.035l1.407-.14.105-1.829-3.727.211c-.023.375-.035.938-.035 1.688-.023.492-.07 1.652-.14 3.48a64.452 64.452 0 0 1-.282 4.817c-.21 2.343-.644 4.511-1.3 6.503-.657 1.97-1.348 3.54-2.075 4.711-.703 1.196-1.218 1.793-1.546 1.793-.188 0-.282-.14-.282-.422 0-.304.094-.644.282-1.019 1.242-2.625 2.062-5.531 2.461-8.719.398-3.21.632-6.972.703-11.285v-.879c0-1.031-.118-1.863-.352-2.496-.094-.281-.141-.457-.141-.527 0-.14.071-.211.211-.211.329 0 1.219.363 2.672 1.09l3.657-.246.07-4.043c0-.375-.047-.692-.141-.95a3.129 3.129 0 0 0-.387-.879l-.07-.175c0-.118.117-.176.352-.176.656.023 1.207.14 1.652.351.445.188.668.47.668.844l-.035 1.653 2.18-.141a4.24 4.24 0 0 0 1.582-.352c.187-.07.363-.105.527-.105.305 0 .668.164 1.09.492.445.328.668.621.668.879s-.317.41-.949.457l-5.133.316v1.688l6.293-.457h.351c.375 0 .727.14 1.055.422.351.258.527.504.527.738 0 .164-.105.352-.316.563a5.101 5.101 0 0 0-.422.457c-1.266 1.921-2.145 2.882-2.637 2.882-.164 0-.246-.105-.246-.316 0-.188.094-.492.281-.914.211-.445.446-1.172.704-2.18l-5.836.352-.141 1.722 1.23-.105c.704-.094 1.266-.2 1.688-.316a.91.91 0 0 1 .281-.036c.071 0 .223.059.457.176.235.094.446.235.633.422.188.164.281.34.281.527a.44.44 0 0 1-.14.317.524.524 0 0 1-.387.14l-4.148.387v.563Zm-7.7 17.472c0-.164.094-.246.282-.246.093 0 .164.012.21.035.376.094.774.141 1.196.141.304 0 1.078-.094 2.32-.281 1.266-.188 2.813-.457 4.641-.809.351-.422.738-.996 1.16-1.723.445-.75.668-1.382.668-1.898v-.176c0-.234.082-.351.246-.351.258 0 .621.187 1.09.562.492.375.738.703.738.985 0 .117-.199.421-.598.914-.375.468-.714.855-1.019 1.16a63.896 63.896 0 0 0 4.184-1.09c.14-.047.316-.07.527-.07.164 0 .281.035.351.105.094.047.141.117.141.211 0 .258-.281.504-.844.738a69.983 69.983 0 0 1-6.293 2.075c-1.968.562-3.586.972-4.851 1.23-1.266.258-1.981.387-2.145.387-.351 0-.679-.13-.984-.387a2.81 2.81 0 0 1-.738-.844c-.188-.304-.282-.527-.282-.668Zm2.532-13.43c0-.093.058-.14.175-.14h.141c.398.094.855.14 1.371.14h.492l6.504-.245a5.784 5.784 0 0 0 1.723-.352.603.603 0 0 1 .246-.035c.281 0 .656.234 1.125.703.281.305.422.55.422.738 0 .211-.199.34-.598.387l-8.859.352-.774.035c-.515 0-.925-.106-1.23-.317-.281-.21-.516-.574-.703-1.09a.384.384 0 0 1-.035-.175Zm.492 2.848c0-.14.105-.21.316-.21.235 0 .914.175 2.039.527l6.996-.387.387-.035c.234 0 .434.07.598.21.445.305.668.575.668.81a.712.712 0 0 1-.141.386c-.07.117-.117.211-.141.281l-.597 1.864c.609.585.914.984.914 1.195 0 .117-.071.2-.211.246a2.187 2.187 0 0 1-.422.035l-7.559.317v.07a.653.653 0 0 1-.14.422.524.524 0 0 1-.387.14c-.305 0-.644-.105-1.019-.316-.352-.211-.528-.445-.528-.703v-.07c.024-.188.035-.457.035-.81 0-.28-.011-.491-.035-.632l-.211-1.441a4.352 4.352 0 0 0-.422-1.442c-.093-.234-.14-.386-.14-.457Zm1.722 6.961c0-.21.118-.422.352-.633.234-.21.457-.316.668-.316.422 0 1.125.727 2.109 2.18.094.187.141.316.141.386 0 .235-.176.48-.527.739-.258.187-.493.28-.704.28-.21 0-.41-.163-.597-.491-.399-.657-.82-1.23-1.266-1.723-.117-.164-.176-.305-.176-.422Zm.95-3.27 5.519-.21.492-1.969-6.222.281.211 1.899Zm8.543 8.157c0-.258.222-.574.668-.95 2.367-1.992 4.335-4.066 5.906-6.222-.68-2.297-1.254-4.934-1.723-7.91l-.211-2.004-1.441.21c-.375.048-.645.071-.809.071-.398 0-.738-.105-1.019-.316a2.09 2.09 0 0 1-.633-.738c-.141-.282-.211-.48-.211-.598 0-.117.07-.176.211-.176l.141.035c.187.047.457.07.808.07.281 0 .504-.011.668-.035l2.039-.316c-.305-2.602-.539-5.543-.703-8.824-.047-.703-.223-1.242-.527-1.617-.094-.118-.141-.223-.141-.317 0-.14.129-.21.387-.21.398 0 .879.116 1.441.35.586.235.879.54.879.915.117 3.14.352 6.27.703 9.387l3.797-.563c.492-.07.891-.21 1.195-.422.047-.047.129-.07.246-.07.282 0 .668.187 1.161.562.492.375.738.668.738.88 0 .257-.27.421-.809.492l-6.117.914.211 2.039c.352 2.343.75 4.347 1.195 6.011a29.338 29.338 0 0 0 1.758-3.55c.563-1.36.844-2.356.844-2.989 0-.258.094-.386.281-.386.305 0 .715.21 1.231.632.539.422.808.774.808 1.055 0 .07-.011.129-.035.176l-.07.14c-1.289 2.813-2.672 5.227-4.149 7.243 1.102 3.164 2.379 5.203 3.832 6.117l.176.07c.117 0 .317-.445.598-1.336.305-.914.621-2.18.949-3.797.094-.445.199-.785.316-1.02.141-.233.27-.35.387-.35.117 0 .211.128.281.386.094.234.141.563.141.984v.211a29.319 29.319 0 0 1-.211 2.989c-.094.914-.293 1.992-.598 3.234-.117.492-.281.832-.492 1.02-.187.187-.445.28-.773.28-.211 0-.457-.034-.738-.105-.727-.164-1.583-.773-2.567-1.828-.984-1.031-1.91-2.707-2.777-5.027a32.515 32.515 0 0 1-2.883 2.812c-.984.82-1.852 1.465-2.602 1.934-.726.469-1.207.703-1.441.703-.211 0-.316-.082-.316-.246ZM281.84 7.39c0-.164.117-.364.351-.598.235-.234.481-.352.739-.352.187 0 .351.094.492.282.656.68 1.336 1.453 2.039 2.32.727.867 1.09 1.43 1.09 1.688 0 .187-.153.421-.457.703-.305.28-.574.421-.809.421-.187 0-.363-.105-.527-.316-.703-1.172-1.617-2.402-2.742-3.691-.118-.164-.176-.317-.176-.457Z"/></svg>