<svg width="350" height="88" viewBox="0 0 350 88" fill="none" xmlns="http://www.w3.org/2000/svg">
<path d="M137.91 14.2812C137.559 14.2812 137.254 14.1523 136.996 13.8945C136.223 13.0508 135.438 12.2891 134.641 11.6094C133.75 10.8594 132.965 10.2969 132.285 9.92188C131.957 9.73437 131.793 9.44141 131.793 9.04297C131.793 8.97266 131.875 8.87891 132.039 8.76172C132.25 8.62109 132.59 8.31641 133.059 7.84766L134.324 6.61719C134.887 6.03125 135.355 5.50391 135.73 5.03516C136.129 4.56641 136.352 4.23828 136.398 4.05078C136.422 4.00391 136.445 3.91016 136.469 3.76953C136.516 3.60547 136.586 3.52344 136.68 3.52344C136.797 3.52344 136.949 3.58203 137.137 3.69922C137.348 3.81641 137.523 3.93359 137.664 4.05078C138.016 4.37891 138.191 4.66016 138.191 4.89453C138.168 4.96484 138.074 5.04688 137.91 5.14062C137.77 5.21094 137.641 5.28125 137.523 5.35156C137.406 5.44531 136.984 5.82031 136.258 6.47656L133.973 8.44531C133.574 8.77344 133.375 9.03125 133.375 9.21875C133.375 9.3125 133.562 9.46484 133.938 9.67578C134.383 9.95703 135.25 10.5313 136.539 11.3984C137.031 11.7266 137.5 12.0898 137.945 12.4883C138.32 12.8633 138.508 13.25 138.508 13.6484C138.508 13.8359 138.426 14 138.262 14.1406C138.168 14.2344 138.051 14.2812 137.91 14.2812ZM131.652 20.1523C131.395 20.1523 131.078 19.9531 130.703 19.5547C130.422 19.2734 130.281 19.0625 130.281 18.9219C130.281 18.8516 130.328 18.8164 130.422 18.8164C130.516 18.793 130.633 18.7812 130.773 18.7812L131.547 18.7461C131.992 18.7461 132.285 18.7344 132.426 18.7109C132.871 18.7109 133.246 18.6992 133.551 18.6758C135.566 18.4883 136.926 18.3359 137.629 18.2188C137.98 18.1719 138.297 18.125 138.578 18.0781C138.859 18.0078 139.082 17.9727 139.246 17.9727C139.574 17.9727 139.902 18.1367 140.23 18.4648C140.488 18.7227 140.617 18.9336 140.617 19.0977C140.617 19.2383 140.535 19.332 140.371 19.3789C140.254 19.4023 139.562 19.4492 138.297 19.5195C137.594 19.543 136.727 19.6016 135.695 19.6953C134.664 19.7891 133.762 19.8828 132.988 19.9766C132.848 20 132.648 20.0352 132.391 20.082C132.133 20.1289 131.887 20.1523 131.652 20.1523ZM131.441 34.1797C131.09 34.1797 130.82 34.0859 130.633 33.8984C130.422 33.6875 130.316 33.5 130.316 33.3359C130.316 33.1719 130.41 32.9961 130.598 32.8086C130.621 32.7852 130.75 32.5977 130.984 32.2461C131.5 31.4258 132.086 30.3828 132.742 29.1172C133.422 27.8281 133.844 26.9492 134.008 26.4805C134.148 26.0352 134.277 25.6484 134.395 25.3203C134.535 24.9922 134.652 24.8281 134.746 24.8281C134.91 24.8281 135.051 24.8867 135.168 25.0039C135.285 25.0977 135.402 25.2383 135.52 25.4258C135.66 25.5898 135.766 25.707 135.836 25.7773C136 25.9648 136.082 26.1406 136.082 26.3047C136.082 26.4219 136.035 26.5391 135.941 26.6562C135.848 26.7734 135.789 26.8555 135.766 26.9023L134.219 29.5039C133.82 30.2305 133.293 31.1328 132.637 32.2109C132.543 32.3281 132.496 32.4453 132.496 32.5625C132.496 32.6562 132.602 32.7031 132.812 32.7031C133.258 32.7031 134.09 32.6445 135.309 32.5273C136.527 32.4336 137.348 32.3516 137.77 32.2812C138.379 32.2109 138.801 32.1406 139.035 32.0703C139.293 32 139.668 32.1758 140.16 32.5977C140.746 33.0898 140.875 33.4062 140.547 33.5469C140.359 33.6406 139.996 33.6875 139.457 33.6875H138.051C137.746 33.6875 137.266 33.7109 136.609 33.7578C136.211 33.7578 135.766 33.7695 135.273 33.793C134.781 33.8164 134.371 33.8398 134.043 33.8633C133.668 33.8867 132.941 33.957 131.863 34.0742L131.441 34.1797ZM105.672 17.1992C105.273 17.1992 105.004 17.1289 104.863 16.9883C104.582 16.707 104.371 16.4023 104.23 16.0742C104.09 15.7461 104.02 15.5117 104.02 15.3711C104.02 15.2305 104.078 15.1602 104.195 15.1602C104.289 15.1602 104.359 15.1719 104.406 15.1953C104.992 15.3359 105.531 15.3828 106.023 15.3359L114.32 14.9141L114.285 12.6641L110.699 12.875L109.996 12.9102C109.551 12.9102 109.234 12.8281 109.047 12.6641C108.883 12.5469 108.707 12.3711 108.52 12.1367C108.355 11.9023 108.238 11.6914 108.168 11.5039L108.098 11.2227C108.098 11.082 108.168 11.0117 108.309 11.0117C108.402 11.0117 108.473 11.0234 108.52 11.0469C108.988 11.1641 109.398 11.2227 109.75 11.2227L110.242 11.1875L114.285 10.9766V8.90234L108.766 9.18359L108.133 9.21875C107.641 9.21875 107.242 9.08984 106.938 8.83203C106.656 8.55078 106.457 8.26953 106.34 7.98828C106.246 7.68359 106.199 7.48437 106.199 7.39062C106.199 7.27344 106.27 7.21484 106.41 7.21484L106.586 7.25C107.125 7.36719 107.641 7.42578 108.133 7.42578H108.309L114.25 7.14453V5.63281C114.25 4.90625 114.109 4.28516 113.828 3.76953C113.758 3.65234 113.723 3.54687 113.723 3.45312C113.723 3.28906 113.875 3.20703 114.18 3.20703C114.648 3.20703 115.129 3.28906 115.621 3.45312C116.137 3.61719 116.395 3.94531 116.395 4.4375V7.03906L121.281 6.79297C121.562 6.76953 122.008 6.67578 122.617 6.51172L122.793 6.47656C123.027 6.47656 123.379 6.64062 123.848 6.96875C124.316 7.27344 124.551 7.57813 124.551 7.88281C124.551 8.1875 124.305 8.36328 123.812 8.41016L116.395 8.79688L116.359 10.8711L120.402 10.6602C120.801 10.6367 121.211 10.543 121.633 10.3789C121.68 10.3555 121.75 10.3438 121.844 10.3438C122.078 10.3438 122.395 10.5078 122.793 10.8359C123.215 11.1641 123.426 11.4688 123.426 11.75C123.426 12.0078 123.191 12.1602 122.723 12.207L116.359 12.5586V14.8438L124.621 14.4219C125.113 14.3984 125.547 14.3047 125.922 14.1406C125.969 14.1172 126.051 14.1055 126.168 14.1055C126.473 14.1055 126.824 14.293 127.223 14.668C127.621 15.0195 127.82 15.3477 127.82 15.6523C127.82 15.9336 127.574 16.0977 127.082 16.1445L106.551 17.1641L105.672 17.1992ZM95.8281 14.3867C95.8281 14.1758 95.9336 13.9297 96.1445 13.6484C96.3555 13.3672 96.5547 13.2266 96.7422 13.2266C97 13.2266 97.7148 13.625 98.8867 14.4219C100.082 15.2188 101.195 16.0156 102.227 16.8125C102.602 17.0938 102.789 17.3516 102.789 17.5859C102.789 17.7969 102.648 18.0898 102.367 18.4648C102.109 18.8398 101.863 19.0273 101.629 19.0273C101.465 19.0273 101.219 18.8867 100.891 18.6055C99.4844 17.3398 97.9609 16.1562 96.3203 15.0547C95.9922 14.8438 95.8281 14.6211 95.8281 14.3867ZM96.0391 32C96.0391 31.8828 96.1328 31.7656 96.3203 31.6484C96.8125 31.3203 97.2461 30.9102 97.6211 30.418C99.5195 27.8398 101.477 24.7812 103.492 21.2422C103.867 20.5859 104.207 20.2578 104.512 20.2578C104.699 20.2578 104.793 20.3867 104.793 20.6445C104.793 21.0898 104.277 22.4492 103.246 24.7227C102.215 26.9727 101.02 29.2695 99.6602 31.6133C99.6133 31.707 99.4844 31.918 99.2734 32.2461C99.0859 32.5977 98.9102 32.832 98.7461 32.9492C98.582 33.0898 98.4062 33.1602 98.2188 33.1602H98.1133C97.7617 33.1602 97.4219 33.0781 97.0938 32.9141C96.7891 32.7734 96.5312 32.6094 96.3203 32.4219C96.1328 32.2344 96.0391 32.0938 96.0391 32ZM98.5352 6.61719C98.5352 6.42969 98.6523 6.18359 98.8867 5.87891C99.0977 5.59766 99.3086 5.45703 99.5195 5.45703C99.7539 5.45703 100.34 5.82031 101.277 6.54688C102.238 7.25 103.129 8 103.949 8.79688C104.793 9.57031 105.215 10.0742 105.215 10.3086C105.215 10.6367 105.051 10.9531 104.723 11.2578C104.395 11.5391 104.148 11.6797 103.984 11.6797C103.797 11.6797 103.562 11.5273 103.281 11.2227C101.711 9.55859 100.281 8.23438 98.9922 7.25C98.6875 7.01563 98.5352 6.80469 98.5352 6.61719ZM105.215 34.8828C105.215 34.5781 105.309 34.3086 105.496 34.0742C106.293 32.8555 106.914 31.7305 107.359 30.6992C107.805 29.668 108.145 28.4609 108.379 27.0781C108.613 25.6719 108.73 23.9258 108.73 21.8398C108.73 20.9023 108.719 20.2578 108.695 19.9062C108.672 19.5547 108.602 19.2734 108.484 19.0625C108.344 18.8281 108.273 18.6523 108.273 18.5352C108.273 18.4883 108.297 18.4414 108.344 18.3945C108.414 18.3477 108.496 18.3242 108.59 18.3242C109.105 18.3242 109.75 18.5 110.523 18.8516L121.316 18.3945C121.762 18.3711 122.16 18.4648 122.512 18.6758C122.863 18.8633 123.039 19.1562 123.039 19.5547C123.039 19.6719 123.016 19.8008 122.969 19.9414C122.945 20.0586 122.934 20.1875 122.934 20.3281L123.039 32.3516C123.039 32.5625 123.051 32.7617 123.074 32.9492C123.098 33.1367 123.109 33.3008 123.109 33.4414C123.109 33.8398 122.934 34.2148 122.582 34.5664C122.254 34.918 121.938 35.0938 121.633 35.0938C121.305 35.0938 120.695 34.8359 119.805 34.3203C118.938 33.8047 118.117 33.2422 117.344 32.6328C116.594 32.0469 116.219 31.6367 116.219 31.4023C116.219 31.2617 116.324 31.1914 116.535 31.1914C116.676 31.1914 116.922 31.25 117.273 31.3672C118.562 31.8828 119.77 32.2812 120.895 32.5625L120.859 28.2031L110.066 28.5547C109.738 29.7734 109.293 30.875 108.73 31.8594C108.168 32.8438 107.582 33.6172 106.973 34.1797C106.387 34.7656 105.883 35.0703 105.461 35.0938H105.391C105.273 35.0938 105.215 35.0234 105.215 34.8828ZM120.859 26.3047V24.1602L110.664 24.5117C110.641 25.2617 110.57 25.9766 110.453 26.6562L120.859 26.3047ZM120.824 22.332V20.293L110.805 20.7148L110.77 22.6836L120.824 22.332ZM194.266 5.87891C194.266 6.39453 194.242 6.88672 194.195 7.35547L194.125 9.32422C194.102 9.86328 194.031 10.7656 193.914 12.0312C193.891 12.4062 193.773 12.6992 193.562 12.9102C193.375 13.1211 193.199 13.2266 193.035 13.2266C192.848 13.2031 192.684 13.0391 192.543 12.7344C192.426 12.4062 192.391 12.0781 192.438 11.75C192.461 11.5625 192.531 10.7891 192.648 9.42969C192.695 7.97656 192.672 7.00391 192.578 6.51172C192.555 6.34766 192.391 6.24219 192.086 6.19531H191.102L189.484 6.33594C189.156 6.35937 188.664 6.42969 188.008 6.54688C187.375 6.66406 186.859 6.76953 186.461 6.86328C186.438 7.66016 186.449 8.66797 186.496 9.88672L186.637 12.2773C186.637 12.4883 186.578 12.6758 186.461 12.8398C186.367 13.0039 186.25 13.0859 186.109 13.0859C185.828 13.0859 185.605 12.8984 185.441 12.5234C185.301 12.2422 185.23 11.9258 185.23 11.5742L185.195 10.9766L185.125 8.97266C185.125 8.38672 185.102 7.55469 185.055 6.47656C185.055 6.28906 185.043 6.14844 185.02 6.05469C184.996 5.96094 184.984 5.90234 184.984 5.87891C184.961 5.80859 184.949 5.72656 184.949 5.63281C184.949 5.44531 185.043 5.35156 185.23 5.35156C185.371 5.35156 185.488 5.375 185.582 5.42188L186.215 5.63281C186.473 5.58594 186.695 5.55078 186.883 5.52734C187.094 5.50391 187.246 5.48047 187.34 5.45703C188.418 5.29297 189.754 5.17578 191.348 5.10547C191.934 5.10547 192.344 5.04688 192.578 4.92969C192.602 4.90625 192.648 4.88281 192.719 4.85938C192.812 4.8125 192.883 4.80078 192.93 4.82422L193.281 4.92969C193.375 4.95312 193.469 5 193.562 5.07031C193.656 5.11719 193.738 5.17578 193.809 5.24609C194.113 5.55078 194.266 5.76172 194.266 5.87891ZM185.652 20.1523C185.395 20.1523 185.078 19.9531 184.703 19.5547C184.422 19.2734 184.281 19.0625 184.281 18.9219C184.281 18.8516 184.328 18.8164 184.422 18.8164C184.516 18.793 184.633 18.7812 184.773 18.7812L185.547 18.7461C185.992 18.7461 186.285 18.7344 186.426 18.7109C186.871 18.7109 187.246 18.6992 187.551 18.6758C189.566 18.4883 190.926 18.3359 191.629 18.2188C191.98 18.1719 192.297 18.125 192.578 18.0781C192.859 18.0078 193.082 17.9727 193.246 17.9727C193.574 17.9727 193.902 18.1367 194.23 18.4648C194.488 18.7227 194.617 18.9336 194.617 19.0977C194.617 19.2383 194.535 19.332 194.371 19.3789C194.254 19.4023 193.562 19.4492 192.297 19.5195C191.594 19.543 190.727 19.6016 189.695 19.6953C188.664 19.7891 187.762 19.8828 186.988 19.9766C186.848 20 186.648 20.0352 186.391 20.082C186.133 20.1289 185.887 20.1523 185.652 20.1523ZM185.441 34.1797C185.09 34.1797 184.82 34.0859 184.633 33.8984C184.422 33.6875 184.316 33.5 184.316 33.3359C184.316 33.1719 184.41 32.9961 184.598 32.8086C184.621 32.7852 184.75 32.5977 184.984 32.2461C185.5 31.4258 186.086 30.3828 186.742 29.1172C187.422 27.8281 187.844 26.9492 188.008 26.4805C188.148 26.0352 188.277 25.6484 188.395 25.3203C188.535 24.9922 188.652 24.8281 188.746 24.8281C188.91 24.8281 189.051 24.8867 189.168 25.0039C189.285 25.0977 189.402 25.2383 189.52 25.4258C189.66 25.5898 189.766 25.707 189.836 25.7773C190 25.9648 190.082 26.1406 190.082 26.3047C190.082 26.4219 190.035 26.5391 189.941 26.6562C189.848 26.7734 189.789 26.8555 189.766 26.9023L188.219 29.5039C187.82 30.2305 187.293 31.1328 186.637 32.2109C186.543 32.3281 186.496 32.4453 186.496 32.5625C186.496 32.6562 186.602 32.7031 186.812 32.7031C187.258 32.7031 188.09 32.6445 189.309 32.5273C190.527 32.4336 191.348 32.3516 191.77 32.2812C192.379 32.2109 192.801 32.1406 193.035 32.0703C193.293 32 193.668 32.1758 194.16 32.5977C194.746 33.0898 194.875 33.4062 194.547 33.5469C194.359 33.6406 193.996 33.6875 193.457 33.6875H192.051C191.746 33.6875 191.266 33.7109 190.609 33.7578C190.211 33.7578 189.766 33.7695 189.273 33.793C188.781 33.8164 188.371 33.8398 188.043 33.8633C187.668 33.8867 186.941 33.957 185.863 34.0742L185.441 34.1797ZM200.383 18.6758C200.664 18.6758 200.805 18.8047 200.805 19.0625C200.805 19.2031 200.676 19.4023 200.418 19.6602C199.715 20.5273 198.32 22.1797 196.234 24.6172C196.07 24.8281 195.918 24.9336 195.777 24.9336C195.66 24.9336 195.402 24.7578 195.004 24.4062C194.676 24.125 194.512 23.8906 194.512 23.7031C194.512 23.4922 194.688 23.293 195.039 23.1055C195.578 22.8008 196.387 22.1914 197.465 21.2773C198.543 20.3164 199.34 19.5547 199.855 18.9922C200.066 18.7812 200.242 18.6758 200.383 18.6758ZM167.336 22.9297C166.797 25.6484 165.953 27.8867 164.805 29.6445C163.656 31.4023 162.168 33.0312 160.34 34.5312L160.164 34.6719C159.695 35 159.367 35.1641 159.18 35.1641C159.016 35.1641 158.934 35.082 158.934 34.918C158.934 34.6836 159.133 34.332 159.531 33.8633C161.266 31.8477 162.578 29.8906 163.469 27.9922C164.359 26.0938 164.969 24.0547 165.297 21.875C165.625 19.6953 165.789 16.9883 165.789 13.7539C165.789 11.082 165.754 9.30078 165.684 8.41016C165.613 7.51953 165.52 6.94531 165.402 6.6875C165.285 6.45313 165.227 6.25391 165.227 6.08984C165.227 5.90234 165.344 5.80859 165.578 5.80859C166.023 5.80859 166.879 6.125 168.145 6.75781L176.441 6.16016H176.758C177.109 6.16016 177.402 6.24219 177.637 6.40625C177.871 6.57031 178.047 6.75781 178.164 6.96875C178.281 7.17969 178.34 7.33203 178.34 7.42578C178.34 7.51953 178.305 7.64844 178.234 7.8125C178.164 7.97656 178.129 8.09375 178.129 8.16406L178.305 32.3867L178.34 33.582C178.34 34.168 178.211 34.625 177.953 34.9531C177.719 35.2812 177.461 35.4922 177.18 35.5859C176.898 35.7031 176.688 35.7617 176.547 35.7617C176.102 35.7617 175.375 35.3984 174.367 34.6719C173.383 33.9453 172.445 33.1484 171.555 32.2812C170.688 31.4141 170.254 30.8633 170.254 30.6289C170.254 30.5117 170.336 30.4531 170.5 30.4531C170.781 30.4531 171.18 30.5938 171.695 30.875C172.352 31.2266 173.043 31.5781 173.77 31.9297C174.496 32.2812 175.234 32.5977 175.984 32.8789L175.914 22.5078L167.336 22.9297ZM151.621 7.56641C151.621 7.42578 151.715 7.35547 151.902 7.35547C152.23 7.35547 152.957 7.55469 154.082 7.95312L160.938 7.39062C161.031 7.36719 161.172 7.35547 161.359 7.35547C161.805 7.35547 162.145 7.49609 162.379 7.77734C162.637 8.05859 162.766 8.30469 162.766 8.51562C162.766 8.63281 162.73 8.77344 162.66 8.9375C162.613 9.10156 162.578 9.24219 162.555 9.35938L161.957 24.125C162.684 24.8516 163.047 25.3672 163.047 25.6719C163.047 25.8359 162.965 25.9414 162.801 25.9883C162.637 26.0117 162.355 26.0352 161.957 26.0586L154.645 26.2695L154.68 28.3086V28.4844C154.68 29 154.516 29.2578 154.188 29.2578C153.836 29.2578 153.426 29.1289 152.957 28.8711C152.512 28.5898 152.289 28.2383 152.289 27.8164C152.289 27.6523 152.301 27.5234 152.324 27.4297C152.441 26.7734 152.5 26.1523 152.5 25.5664V25.2148L152.148 9.99219C152.125 9.26563 151.996 8.60937 151.762 8.02344C151.668 7.74219 151.621 7.58984 151.621 7.56641ZM154.398 15.9336L160.094 15.6172L160.234 9.35938L154.258 9.92188L154.398 15.9336ZM154.574 24.3359L159.883 24.1953L160.059 17.4805L154.434 17.7969L154.574 24.3359ZM175.914 20.6094L175.879 15.4414L168.039 15.8984C168.016 16.5547 167.922 17.8555 167.758 19.8008L167.652 21.0312L175.914 20.6094ZM168.074 8.76172C168.098 10.0508 168.109 11.8086 168.109 14.0352L175.879 13.543L175.844 8.23438L168.074 8.76172ZM246.121 14.3867C245.957 14.3867 245.781 14.2812 245.594 14.0703C245.453 13.9063 245.359 13.7773 245.312 13.6836C245.266 13.5664 245.266 13.4141 245.312 13.2266L245.348 12.3828C245.371 12.2188 245.383 11.8203 245.383 11.1875V10.0273L244.328 10.5195L243.098 11.0469C242.793 11.1641 242.477 11.3047 242.148 11.4688C241.867 11.6094 241.621 11.6797 241.41 11.6797C241.246 11.6563 241.059 11.5977 240.848 11.5039C240.637 11.4102 240.473 11.3281 240.355 11.2578C240.098 11.0938 239.98 10.918 240.004 10.7305L240.109 10.3789C240.109 10.1914 240.121 10.0273 240.145 9.88672L240.18 7.84766V5.94922C240.18 5.57422 240.156 5.25781 240.109 5C240.062 4.71875 240.027 4.51953 240.004 4.40234C240.004 4.28516 240.039 4.20313 240.109 4.15625C240.133 4.13281 240.191 4.12109 240.285 4.12109C240.449 4.12109 240.766 4.22656 241.234 4.4375C241.633 4.625 241.797 4.85938 241.727 5.14062C241.68 5.30469 241.633 5.55078 241.586 5.87891L241.48 9.92188C241.48 10.0391 241.492 10.1328 241.516 10.2031C241.562 10.25 241.609 10.2734 241.656 10.2734C241.938 10.2734 242.277 10.1914 242.676 10.0273C243.426 9.79297 244.07 9.55859 244.609 9.32422L245.383 9.00781V6.6875C245.383 5.75 245.324 4.84766 245.207 3.98047C245.184 3.91016 245.172 3.82812 245.172 3.73438C245.172 3.5 245.266 3.38281 245.453 3.38281C245.477 3.38281 245.605 3.42969 245.84 3.52344C246.191 3.71094 246.449 3.875 246.613 4.01562C246.777 4.15625 246.871 4.23828 246.895 4.26172C246.988 4.33203 247.035 4.40234 247.035 4.47266C247.035 4.51953 247.012 4.57812 246.965 4.64844C246.941 4.71875 246.918 4.77734 246.895 4.82422L246.789 5.87891L246.754 9.11328L246.789 12.2422C246.789 12.7813 246.754 13.25 246.684 13.6484C246.566 14.1406 246.379 14.3867 246.121 14.3867ZM239.652 20.1523C239.395 20.1523 239.078 19.9531 238.703 19.5547C238.422 19.2734 238.281 19.0625 238.281 18.9219C238.281 18.8516 238.328 18.8164 238.422 18.8164C238.516 18.793 238.633 18.7812 238.773 18.7812L239.547 18.7461C239.992 18.7461 240.285 18.7344 240.426 18.7109C240.871 18.7109 241.246 18.6992 241.551 18.6758C243.566 18.4883 244.926 18.3359 245.629 18.2188C245.98 18.1719 246.297 18.125 246.578 18.0781C246.859 18.0078 247.082 17.9727 247.246 17.9727C247.574 17.9727 247.902 18.1367 248.23 18.4648C248.488 18.7227 248.617 18.9336 248.617 19.0977C248.617 19.2383 248.535 19.332 248.371 19.3789C248.254 19.4023 247.562 19.4492 246.297 19.5195C245.594 19.543 244.727 19.6016 243.695 19.6953C242.664 19.7891 241.762 19.8828 240.988 19.9766C240.848 20 240.648 20.0352 240.391 20.082C240.133 20.1289 239.887 20.1523 239.652 20.1523ZM244.363 34.6719C243.637 34.6719 243.074 34.6484 242.676 34.6016C242.301 34.5547 241.984 34.4141 241.727 34.1797C241.281 33.8516 240.977 33.1367 240.812 32.0352L240.707 30.9102C240.707 30.6289 240.684 30.2773 240.637 29.8555C240.262 29.9023 239.992 29.9492 239.828 29.9961C239.781 30.0195 239.699 30.0547 239.582 30.1016C239.488 30.125 239.418 30.1367 239.371 30.1367C239.207 30.1367 239.055 30.0898 238.914 29.9961C238.773 29.9023 238.598 29.7266 238.387 29.4688C238.223 29.2578 238.141 29.1172 238.141 29.0469C238.141 28.9766 238.223 28.9297 238.387 28.9062C238.551 28.8828 238.773 28.8711 239.055 28.8711C239.453 28.8711 239.969 28.8242 240.602 28.7305L240.566 28.2383C240.566 27.3008 240.508 26.5039 240.391 25.8477L240.355 25.6016C240.355 25.2734 240.484 25.1445 240.742 25.2148C241.023 25.3086 241.281 25.4258 241.516 25.5664C241.703 25.6602 241.832 25.7539 241.902 25.8477C241.973 25.918 241.996 26.0234 241.973 26.1641L241.867 27.6758V28.5898L244.961 28.2734C244.961 28.1094 244.973 27.7227 244.996 27.1133C245.02 26.4805 245.02 26.0703 244.996 25.8828C244.996 25.6953 244.973 25.5195 244.926 25.3555C244.902 25.168 244.879 25.0156 244.855 24.8984C244.855 24.7109 244.949 24.6172 245.137 24.6172C245.324 24.6172 245.559 24.7227 245.84 24.9336C246.168 25.1445 246.379 25.332 246.473 25.4961C246.59 25.6602 246.613 25.8594 246.543 26.0938C246.426 26.4688 246.344 26.8906 246.297 27.3594C246.25 27.8281 246.227 28.1094 246.227 28.2031C246.508 28.1797 246.766 28.1445 247 28.0977C247.234 28.0508 247.387 28.0273 247.457 28.0273C247.645 27.9805 247.867 27.957 248.125 27.957C248.266 27.9805 248.465 28.1211 248.723 28.3789C248.934 28.6602 249.039 28.8828 249.039 29.0469C249.039 29.2812 248.816 29.375 248.371 29.3281C247.973 29.2578 247.574 29.2227 247.176 29.2227C246.777 29.2227 246.438 29.2344 246.156 29.2578C246.086 30.1016 245.945 30.9336 245.734 31.7539C245.688 31.9414 245.605 32.0938 245.488 32.2109C245.371 32.3516 245.266 32.4219 245.172 32.4219C245.008 32.4219 244.902 32.3516 244.855 32.2109C244.832 32.0938 244.82 31.8945 244.82 31.6133C244.867 31.0039 244.891 30.2422 244.891 29.3281C244.258 29.375 243.766 29.4219 243.414 29.4688C242.875 29.5859 242.371 29.6562 241.902 29.6797C241.879 30.6406 241.926 31.4961 242.043 32.2461C242.113 32.7383 242.254 33.0781 242.465 33.2656C242.605 33.3828 242.77 33.4531 242.957 33.4766C243.168 33.5 243.379 33.5117 243.59 33.5117C243.801 33.5117 243.941 33.5117 244.012 33.5117C244.738 33.5117 245.418 33.4766 246.051 33.4062C246.238 33.3828 246.402 33.3359 246.543 33.2656C246.707 33.1953 246.824 33.1602 246.895 33.1602C247.105 33.1602 247.316 33.2305 247.527 33.3711C247.738 33.5117 247.844 33.6758 247.844 33.8633C247.844 34.0508 247.738 34.1914 247.527 34.2852C247.34 34.3789 247.035 34.4609 246.613 34.5312C245.863 34.625 245.113 34.6719 244.363 34.6719ZM254.383 18.6758C254.664 18.6758 254.805 18.8047 254.805 19.0625C254.805 19.2031 254.676 19.4023 254.418 19.6602C253.715 20.5273 252.32 22.1797 250.234 24.6172C250.07 24.8281 249.918 24.9336 249.777 24.9336C249.66 24.9336 249.402 24.7578 249.004 24.4062C248.676 24.125 248.512 23.8906 248.512 23.7031C248.512 23.4922 248.688 23.293 249.039 23.1055C249.578 22.8008 250.387 22.1914 251.465 21.2773C252.543 20.3164 253.34 19.5547 253.855 18.9922C254.066 18.7812 254.242 18.6758 254.383 18.6758ZM209.699 30.1719C211.785 29.5156 213.648 28.8008 215.289 28.0273C214.938 27.5352 214.492 26.9727 213.953 26.3398C213.766 26.1055 213.672 25.918 213.672 25.7773C213.672 25.5195 213.824 25.2969 214.129 25.1094C214.434 24.8984 214.668 24.793 214.832 24.793C215.02 24.793 215.219 24.9102 215.43 25.1445C216.766 26.7148 217.902 28.0977 218.84 29.293C219.777 30.4883 220.246 31.2148 220.246 31.4727C220.246 31.6836 220.082 31.9297 219.754 32.2109C219.449 32.5156 219.156 32.668 218.875 32.668C218.641 32.668 218.406 32.4805 218.172 32.1055C217.633 31.2852 217.023 30.3945 216.344 29.4336L212.125 31.543C211.656 31.7539 210.918 32.1289 209.91 32.668C209.066 33.1133 208.551 33.3359 208.363 33.3359C208.223 33.3359 208.047 33.2422 207.836 33.0547C207.625 32.8906 207.461 32.6797 207.344 32.4219C207.25 32.1875 207.25 32 207.344 31.8594C207.484 31.6016 207.555 30.5703 207.555 28.7656V16.6016C207.555 16.0391 207.531 15.582 207.484 15.2305C207.461 14.8789 207.367 14.5039 207.203 14.1055C207.18 14.0352 207.156 13.9766 207.133 13.9297C207.109 13.8828 207.098 13.8359 207.098 13.7891C207.098 13.6719 207.18 13.6133 207.344 13.6133C207.648 13.6133 208.41 13.8711 209.629 14.3867L217.258 13.8594C217.445 13.8359 217.656 13.8242 217.891 13.8242C218.148 13.8242 218.453 13.9414 218.805 14.1758C219.156 14.3867 219.332 14.6211 219.332 14.8789C219.332 14.9727 219.273 15.1133 219.156 15.3008C219.062 15.4883 219.016 15.6289 219.016 15.7227L218.102 22.332C218.664 22.9883 218.945 23.4336 218.945 23.668C218.945 23.7852 218.875 23.8672 218.734 23.9141C218.617 23.9609 218.43 23.9844 218.172 23.9844L209.664 24.3008L209.699 30.1719ZM203.934 14.3867C203.934 14.1523 204.086 13.8711 204.391 13.543C206.102 11.6445 207.59 9.75781 208.855 7.88281C210.121 6.00781 210.754 4.75391 210.754 4.12109L210.719 3.875V3.76953C210.719 3.44141 210.848 3.27734 211.105 3.27734C211.41 3.27734 211.832 3.48828 212.371 3.91016C212.934 4.30859 213.215 4.63672 213.215 4.89453C213.215 5.01172 213.156 5.16406 213.039 5.35156C212.688 5.91406 212.301 6.47656 211.879 7.03906L216.871 6.65234C217.293 6.62891 217.738 6.53516 218.207 6.37109C218.348 6.32422 218.453 6.30078 218.523 6.30078C218.875 6.30078 219.25 6.5 219.648 6.89844C220.07 7.27344 220.281 7.56641 220.281 7.77734C220.281 8.05859 220.023 8.22266 219.508 8.26953L213.496 8.69141C213.66 8.73828 214.023 8.98438 214.586 9.42969C215.172 9.875 215.699 10.332 216.168 10.8008C216.637 11.2695 216.871 11.5977 216.871 11.7852C216.871 11.9961 216.73 12.2539 216.449 12.5586C216.168 12.8398 215.922 12.9805 215.711 12.9805C215.523 12.9805 215.301 12.8281 215.043 12.5234C214.246 11.6563 213.438 10.8945 212.617 10.2383C212.336 10.0039 212.195 9.80469 212.195 9.64062C212.195 9.52344 212.254 9.37109 212.371 9.18359C212.488 8.99609 212.641 8.84375 212.828 8.72656L210.473 8.90234C209.348 10.2852 208.105 11.5859 206.746 12.8047C205.387 14 204.52 14.5977 204.145 14.5977C204.004 14.5977 203.934 14.5273 203.934 14.3867ZM216.59 18.043L216.836 15.582L209.594 16.0742V18.3945L216.59 18.043ZM216.133 22.4023L216.414 19.6953L209.629 20.0117V22.6484L216.133 22.4023ZM218.031 12.875C218.031 12.6406 218.184 12.3594 218.488 12.0312C219.637 10.6484 220.68 9.08984 221.617 7.35547C222.578 5.59766 223.059 4.36719 223.059 3.66406V3.52344C223.059 3.17188 223.188 2.99609 223.445 2.99609C223.609 2.99609 223.855 3.08984 224.184 3.27734C224.535 3.44141 224.852 3.64063 225.133 3.875C225.414 4.10937 225.555 4.34375 225.555 4.57812C225.555 4.78906 225.391 5.16406 225.062 5.70312C224.734 6.24219 224.559 6.52344 224.535 6.54688L231.461 5.98438C231.977 5.9375 232.422 5.85547 232.797 5.73828C232.844 5.71484 232.938 5.70312 233.078 5.70312C233.406 5.70312 233.758 5.89063 234.133 6.26562C234.531 6.61719 234.73 6.91016 234.73 7.14453C234.73 7.28516 234.66 7.40234 234.52 7.49609C234.402 7.56641 234.238 7.61328 234.027 7.63672L226.891 8.12891C227.547 8.55078 228.32 9.17187 229.211 9.99219C230.102 10.7891 230.547 11.3281 230.547 11.6094C230.547 11.7734 230.418 12.0312 230.16 12.3828C229.902 12.7109 229.656 12.875 229.422 12.875C229.234 12.875 229.035 12.7578 228.824 12.5234C227.676 11.2812 226.633 10.2969 225.695 9.57031C225.461 9.38281 225.344 9.20703 225.344 9.04297C225.344 8.85547 225.52 8.57422 225.871 8.19922L223.27 8.375C222.496 9.40625 221.559 10.4492 220.457 11.5039C219.379 12.5586 218.652 13.0859 218.277 13.0859C218.113 13.0859 218.031 13.0156 218.031 12.875ZM221.336 13.6484C221.336 13.5078 221.418 13.4375 221.582 13.4375C221.934 13.4375 222.73 13.7305 223.973 14.3164L231.039 13.7188L231.32 13.6836C231.414 13.6836 231.59 13.7305 231.848 13.8242C232.129 13.8945 232.387 14.0234 232.621 14.2109C232.879 14.375 233.008 14.5977 233.008 14.8789C233.008 14.9727 232.973 15.1016 232.902 15.2656C232.832 15.4297 232.797 15.5469 232.797 15.6172C232.773 18.1953 232.609 20.9492 232.305 23.8789L232.234 24.7578C232.164 25.7422 232.07 26.5625 231.953 27.2188C231.836 27.875 231.637 28.3906 231.355 28.7656C230.91 29.375 230.43 29.6797 229.914 29.6797C229.398 29.6797 228.742 29.3633 227.945 28.7305C227.148 28.0977 226.41 27.4062 225.73 26.6562C225.074 25.9062 224.746 25.4258 224.746 25.2148C224.746 25.0508 224.84 24.9688 225.027 24.9688C225.238 24.9688 225.531 25.0859 225.906 25.3203C226.773 25.8594 227.5 26.293 228.086 26.6211C228.672 26.9492 229.094 27.1133 229.352 27.1133C229.469 27.1133 229.551 27.0312 229.598 26.8672C230.137 23.8672 230.465 20.1055 230.582 15.582L223.973 16.0742C223.973 20.0352 224.008 26.3164 224.078 34.918C224.078 35.1289 224.02 35.2812 223.902 35.375C223.809 35.4922 223.68 35.5508 223.516 35.5508C223.328 35.5508 223.105 35.4805 222.848 35.3398C222.402 35.1523 222.086 34.9766 221.898 34.8125C221.711 34.6484 221.617 34.4609 221.617 34.25L221.652 34.0039C221.793 33.2305 221.863 32.3633 221.863 31.4023L221.758 16.5664C221.758 15.957 221.734 15.4883 221.688 15.1602C221.664 14.832 221.594 14.5156 221.477 14.2109C221.383 13.9297 221.336 13.7422 221.336 13.6484Z" fill="#333333"/>
<path d="M136.719 72.8438C136.573 72.8438 136.646 72.7188 136.938 72.4688C137.229 72.2188 137.583 71.9167 138 71.5625C138.417 71.1875 138.885 70.6979 139.406 70.0938C139.74 69.6979 139.99 69.2812 140.156 68.8438C140.26 68.5938 140.375 68.4688 140.5 68.4688C140.604 68.4688 140.76 68.5521 140.969 68.7188C141.385 69.0521 141.594 69.3333 141.594 69.5625C141.594 69.7083 141.51 69.8125 141.344 69.875C141.26 69.8958 141.135 69.9896 140.969 70.1562C140.802 70.3021 140.677 70.4167 140.594 70.5C139.698 71.375 138.865 72.0104 138.094 72.4062C137.469 72.6979 137.052 72.8438 136.844 72.8438H136.719ZM140 78.6562C139.938 78.6562 139.833 78.5729 139.688 78.4062C139.562 78.2188 139.469 78.0417 139.406 77.875C139.385 77.75 139.385 77.5938 139.406 77.4062C139.448 77.1979 139.469 77.0417 139.469 76.9375C139.51 76.5208 139.531 76.1875 139.531 75.9375C139.552 75.7083 139.552 75.4583 139.531 75.1875C139.531 74.9167 139.531 74.7396 139.531 74.6562L139.5 74.1875C139 74.5417 138.615 74.7917 138.344 74.9375C137.74 75.2708 137.302 75.4792 137.031 75.5625C136.698 75.6875 136.396 75.75 136.125 75.75C135.979 75.75 135.896 75.7292 135.875 75.6875C135.833 75.6042 136.25 75.3021 137.125 74.7812C137.958 74.2604 138.865 73.5729 139.844 72.7188C140.385 72.2188 140.802 71.7396 141.094 71.2812C141.135 71.2188 141.167 71.1458 141.188 71.0625C141.229 70.9583 141.271 70.8958 141.312 70.875C141.375 70.8542 141.458 70.8646 141.562 70.9062C141.833 71.0521 142.062 71.2604 142.25 71.5312C142.333 71.6354 142.375 71.7396 142.375 71.8438C142.375 71.9479 142.323 72.0521 142.219 72.1562C142.115 72.2396 142.01 72.3021 141.906 72.3438C141.552 72.5729 141.229 72.8229 140.938 73.0938C140.646 73.3646 140.458 73.5417 140.375 73.625C140.688 73.875 140.844 74.0521 140.844 74.1562L140.75 74.8125C140.708 75 140.688 75.4688 140.688 76.2188C140.688 76.9479 140.708 77.4375 140.75 77.6875V77.75C140.75 77.8542 140.719 77.9688 140.656 78.0938C140.615 78.1979 140.583 78.2708 140.562 78.3125C140.417 78.5417 140.229 78.6562 140 78.6562ZM119.75 72.6562C119.25 72.6979 118.896 72.7188 118.688 72.7188C118.271 72.7188 118 72.6562 117.875 72.5312C117.625 72.3021 117.396 72.0104 117.188 71.6562C117 71.2812 116.906 71.0521 116.906 70.9688C116.906 70.8646 117.021 70.8125 117.25 70.8125C117.604 70.8958 118 70.9375 118.438 70.9375C118.646 70.9375 119 70.9167 119.5 70.875L127.031 70.3125H127.438C127.917 70.3125 128.302 70.4583 128.594 70.75C128.906 71.0208 129.062 71.2708 129.062 71.5C129.062 71.6667 128.99 71.8125 128.844 71.9375C128.719 72.0625 128.573 72.1771 128.406 72.2812C128.24 72.3646 128.125 72.4375 128.062 72.5C125.125 75.0625 123.042 76.9375 121.812 78.125C120.938 78.9583 120.25 79.7812 119.75 80.5938C119.25 81.4062 119 82.0417 119 82.5C119 82.9583 119.167 83.3125 119.5 83.5625C119.854 83.7917 120.396 83.9479 121.125 84.0312C121.854 84.1146 122.885 84.1562 124.219 84.1562C126.385 84.1562 128.292 84.0417 129.938 83.8125C130.333 83.7708 130.625 83.625 130.812 83.375C131.021 83.125 131.198 82.6979 131.344 82.0938C131.51 81.4688 131.729 80.4062 132 78.9062C132.083 78.4896 132.177 78.1667 132.281 77.9375C132.385 77.7083 132.49 77.5938 132.594 77.5938C132.698 77.5938 132.781 77.7188 132.844 77.9688C132.927 78.1979 132.969 78.5417 132.969 79C132.969 80.8542 132.906 82.2188 132.781 83.0938C132.677 83.9479 132.448 84.5729 132.094 84.9688C131.74 85.3646 131.167 85.625 130.375 85.75C128.521 86 126.427 86.125 124.094 86.125C122.552 86.125 121.167 86.0625 119.938 85.9375C118.917 85.8333 118.156 85.4479 117.656 84.7812C117.177 84.1146 116.938 83.3646 116.938 82.5312C116.938 81.8229 117.219 80.9688 117.781 79.9688C118.344 78.9688 119.062 78.0625 119.938 77.25C121.104 76.1667 122.958 74.4896 125.5 72.2188L119.75 72.6562ZM105.219 65.4688C105.219 65.3229 105.323 65.25 105.531 65.25C105.844 65.25 106.531 65.4479 107.594 65.8438L112.031 65.5625C112.198 65.5417 112.406 65.5312 112.656 65.5312C113.031 65.5312 113.333 65.6458 113.562 65.875C113.812 66.1042 113.938 66.3542 113.938 66.625C113.938 66.75 113.906 66.8854 113.844 67.0312C113.802 67.1771 113.771 67.2812 113.75 67.3438L113.156 74.6562C113.656 75.3021 113.906 75.75 113.906 76C113.906 76.1458 113.844 76.2396 113.719 76.2812C113.594 76.3021 113.365 76.3229 113.031 76.3438L108.031 76.5312L108.094 78.1875V78.25C108.094 78.6458 107.917 78.8438 107.562 78.8438C107.229 78.8438 106.885 78.7396 106.531 78.5312C106.198 78.3229 106.031 78.0104 106.031 77.5938C106.031 77.4479 106.042 77.3333 106.062 77.25C106.125 76.8958 106.156 76.5729 106.156 76.2812L106.125 75.6562L105.812 67.6875C105.771 66.9167 105.646 66.3542 105.438 66C105.292 65.75 105.219 65.5729 105.219 65.4688ZM107.938 74.75L111.312 74.6562L111.844 67.3438L107.656 67.5625L107.938 74.75ZM114.156 72.2812C114.156 72.1354 114.25 71.9062 114.438 71.5938C115.604 69.9271 116.656 68.1354 117.594 66.2188C118.552 64.3021 119.333 62.3958 119.938 60.5C120 60.3125 120.031 60.125 120.031 59.9375C120.031 59.6875 119.99 59.4375 119.906 59.1875C119.885 59.1458 119.875 59.0833 119.875 59C119.875 58.8125 119.979 58.7188 120.188 58.7188C120.354 58.7188 120.625 58.8021 121 58.9688C121.375 59.1354 121.708 59.3438 122 59.5938C122.292 59.8229 122.438 60.0417 122.438 60.25C122.438 60.375 122.406 60.5 122.344 60.625C121.656 62.3125 120.927 63.8438 120.156 65.2188L128.938 64.6562C129.375 64.6354 129.74 64.5521 130.031 64.4062C130.24 64.3229 130.385 64.2812 130.469 64.2812C130.781 64.2812 131.115 64.4792 131.469 64.875C131.823 65.2708 132 65.5938 132 65.8438C132 66.0938 131.719 66.2396 131.156 66.2812L119.094 67C118.198 68.4167 117.25 69.6875 116.25 70.8125C115.271 71.9375 114.635 72.5 114.344 72.5C114.219 72.5 114.156 72.4271 114.156 72.2812ZM185.438 67.8125C185.312 67.8125 185.135 67.7188 184.906 67.5312C184.781 67.4479 184.677 67.3646 184.594 67.2812C184.51 67.1979 184.469 67.125 184.469 67.0625L184.5 66.5625C184.521 66.375 184.531 65.9583 184.531 65.3125C184.51 64.8542 184.5 63.8958 184.5 62.4375C184.5 61.8542 184.448 61.3229 184.344 60.8438C184.344 60.8438 184.302 60.5938 184.219 60.0938V60C184.219 59.8125 184.344 59.7604 184.594 59.8438C184.698 59.8646 184.938 59.9062 185.312 59.9688C185.708 59.9062 187.031 59.75 189.281 59.5C189.594 59.4583 189.844 59.4167 190.031 59.375C190.219 59.3333 190.354 59.3021 190.438 59.2812H190.562C190.792 59.2812 191 59.3958 191.188 59.625C191.521 60.0208 191.656 60.3021 191.594 60.4688C191.51 60.6771 191.427 61.0312 191.344 61.5312C191.302 61.8229 191.25 62.3229 191.188 63.0312V64.4688V66.75C191.188 66.9375 191.094 67.1875 190.906 67.5C190.865 67.6042 190.781 67.6875 190.656 67.75C190.552 67.8125 190.438 67.8438 190.312 67.8438C190.188 67.8438 190.094 67.8125 190.031 67.75C189.99 67.7083 189.948 67.6667 189.906 67.625C189.865 67.5625 189.823 67.5208 189.781 67.5C189.76 67.4792 189.719 67.4688 189.656 67.4688C188.365 67.4688 187.198 67.5521 186.156 67.7188C186.073 67.7396 185.99 67.75 185.906 67.75C185.844 67.75 185.781 67.7604 185.719 67.7812L185.5 67.8125H185.438ZM186.031 66.6562C186.552 66.6354 187.26 66.5729 188.156 66.4688C188.573 66.4271 188.812 66.4062 188.875 66.4062H189.125C189.458 66.4062 189.708 66.4688 189.875 66.5938C190.021 65.5521 190.094 63.6458 190.094 60.875C190.052 60.5625 189.927 60.4062 189.719 60.4062C189.323 60.4062 188.521 60.4792 187.312 60.625C187.188 60.625 187.062 60.6354 186.938 60.6562C186.812 60.6771 186.688 60.6979 186.562 60.7188C186.208 60.7812 185.948 60.8125 185.781 60.8125C185.635 60.8125 185.583 60.8854 185.625 61.0312L185.594 62.0938C185.573 62.2396 185.562 62.375 185.562 62.5C185.583 62.625 185.594 62.7396 185.594 62.8438C185.615 63.0104 185.625 63.2812 185.625 63.6562C185.625 65.2812 185.635 66.1771 185.656 66.3438C185.656 66.4896 185.698 66.5833 185.781 66.625C185.865 66.6667 185.948 66.6771 186.031 66.6562ZM188.344 64.9062C188.115 64.9062 187.938 64.7917 187.812 64.5625C187.375 63.8333 186.969 63.2292 186.594 62.75L186.375 62.4062C186.292 62.2812 186.25 62.1875 186.25 62.125C186.271 62.0417 186.323 62.0104 186.406 62.0312C186.948 62.1979 187.448 62.4688 187.906 62.8438C188.615 63.3854 188.969 63.8021 188.969 64.0938C188.969 64.2396 188.927 64.3854 188.844 64.5312C188.698 64.7812 188.531 64.9062 188.344 64.9062ZM191.188 76.5938C190.875 76.5938 190.573 76.3646 190.281 75.9062C189.906 75.3229 189.542 74.8438 189.188 74.4688L188.375 73.625C187.938 74.125 187.552 74.5208 187.219 74.8125C186.906 75.1042 186.51 75.3854 186.031 75.6562C185.135 76.1771 184.385 76.4375 183.781 76.4375C183.635 76.4375 183.562 76.3854 183.562 76.2812C183.562 76.2188 183.76 76.0833 184.156 75.875C184.552 75.6667 184.927 75.4167 185.281 75.125C186.177 74.375 186.917 73.6042 187.5 72.8125C187.375 72.6875 186.75 72.1458 185.625 71.1875C185.479 71.0833 185.26 70.9062 184.969 70.6562C184.906 70.6146 184.781 70.5208 184.594 70.375C184.406 70.2292 184.312 70.125 184.312 70.0625C184.312 69.9583 184.365 69.9062 184.469 69.9062C184.781 69.9062 185.281 70.125 185.969 70.5625C186.656 70.9792 187.375 71.4792 188.125 72.0625C188.417 71.7083 188.646 71.375 188.812 71.0625C188.979 70.75 189.167 70.3646 189.375 69.9062C189.479 69.6771 189.542 69.4792 189.562 69.3125C189.583 69.125 189.594 69.0104 189.594 68.9688C189.594 68.7396 189.656 68.625 189.781 68.625C189.927 68.625 190.125 68.7396 190.375 68.9688C190.812 69.3854 191.031 69.6667 191.031 69.8125C191.031 69.8958 190.979 69.9896 190.875 70.0938C190.625 70.3438 190.396 70.6771 190.188 71.0938C190.062 71.3438 189.833 71.6979 189.5 72.1562C189.396 72.2812 189.312 72.3958 189.25 72.5C189.188 72.6042 189.125 72.6979 189.062 72.7812C189.542 73.1354 190.25 73.7396 191.188 74.5938C191.417 74.8021 191.562 75 191.625 75.1875C191.708 75.3542 191.75 75.5833 191.75 75.875C191.75 76.0833 191.698 76.2604 191.594 76.4062C191.49 76.5312 191.354 76.5938 191.188 76.5938ZM191.75 80.7188C191.979 80.9688 192.094 81.1771 192.094 81.3438C192.094 81.4896 192.01 81.625 191.844 81.75C191.74 81.8333 191.479 82.2917 191.062 83.125C190.604 83.875 190.094 84.5208 189.531 85.0625C188.99 85.625 188.448 86.0312 187.906 86.2812C187.781 86.3229 187.677 86.3438 187.594 86.3438C187.51 86.3438 187.469 86.3229 187.469 86.2812V86.2188C187.469 86.0938 187.573 85.9479 187.781 85.7812C188.156 85.4896 188.438 85.1875 188.625 84.875C188.833 84.5833 188.99 84.3646 189.094 84.2188C189.531 83.5938 189.844 83.0833 190.031 82.6875C190.24 82.3333 190.385 81.9688 190.469 81.5938H190.344C189.802 81.5938 188.927 81.6562 187.719 81.7812C187.531 81.8021 186.99 81.875 186.094 82C185.906 82.0208 185.615 82.0729 185.219 82.1562L184.844 82.25C184.76 82.2917 184.677 82.3125 184.594 82.3125C184.49 82.3125 184.385 82.2917 184.281 82.25C184.177 82.1875 184.073 82.1146 183.969 82.0312C183.719 81.8229 183.594 81.6458 183.594 81.5C183.615 81.4583 183.635 81.3958 183.656 81.3125C183.698 81.2292 183.719 81.1562 183.719 81.0938L183.875 80.0625C183.896 79.9583 183.917 79.8438 183.938 79.7188C183.958 79.5938 183.969 79.4688 183.969 79.3438C183.969 78.9479 183.958 78.6354 183.938 78.4062C183.938 78.1562 183.906 77.8958 183.844 77.625V77.5312C183.844 77.3854 183.906 77.3125 184.031 77.3125C184.156 77.3125 184.375 77.4062 184.688 77.5938C185.104 77.8854 185.312 78.1146 185.312 78.2812C185.312 78.3438 185.302 78.3958 185.281 78.4375C185.26 78.4792 185.24 78.5208 185.219 78.5625C185.156 78.9375 185.125 79.1458 185.125 79.1875L184.969 80.8438C184.969 80.8854 184.99 80.9375 185.031 81C185.094 81.0417 185.156 81.0625 185.219 81.0625C185.719 81.0625 186.844 80.9375 188.594 80.6875C189.281 80.625 189.771 80.5521 190.062 80.4688C190.25 80.4479 190.406 80.4167 190.531 80.375C190.677 80.3125 190.771 80.2812 190.812 80.2812C190.938 80.2396 191.021 80.2188 191.062 80.2188C191.25 80.2188 191.479 80.3854 191.75 80.7188ZM193.562 74.6562C193.667 74.6562 193.823 74.7292 194.031 74.875C194.01 74.9167 194.052 75 194.156 75.125C194.26 75.2292 194.333 75.3021 194.375 75.3438C194.479 75.4479 194.583 75.5729 194.688 75.7188C194.812 75.8646 194.948 76.0208 195.094 76.1875C195.469 76.5833 196.333 77.6146 197.688 79.2812C197.917 79.6146 198.031 79.8125 198.031 79.875C198.031 80.0833 197.906 80.1875 197.656 80.1875C197.51 80.1875 197.354 80.0833 197.188 79.875C196.792 79.4583 196.083 78.8021 195.062 77.9062C194.271 77.1771 193.552 76.6146 192.906 76.2188C192.594 76.0729 192.438 75.9062 192.438 75.7188C192.438 75.5729 192.594 75.3646 192.906 75.0938C193.198 74.8021 193.417 74.6562 193.562 74.6562ZM172.812 69.7188V70.125C172.812 70.2708 172.76 70.3958 172.656 70.5C172.573 70.6042 172.448 70.6562 172.281 70.6562C172.031 70.6562 171.729 70.5417 171.375 70.3125C171.042 70.0625 170.875 69.7917 170.875 69.5L170.906 69.2812C170.969 68.6562 171 68.1042 171 67.625L170.875 62.5625C170.875 62.1458 170.719 61.5625 170.406 60.8125C170.323 60.6042 170.281 60.4688 170.281 60.4062C170.281 60.2396 170.396 60.1562 170.625 60.1562C171 60.1562 171.635 60.3542 172.531 60.75L177.562 60.375H177.906C178.469 60.375 178.865 60.5 179.094 60.75C179.344 61 179.469 61.1979 179.469 61.3438C179.469 61.4271 179.438 61.5312 179.375 61.6562C179.333 61.7812 179.312 61.8646 179.312 61.9062L179.219 84.0938L179.25 85.125C179.25 85.6042 179.135 85.9792 178.906 86.25C178.698 86.5417 178.458 86.75 178.188 86.875C177.938 87 177.729 87.0625 177.562 87.0625C177.25 87.0625 176.771 86.7917 176.125 86.25C175.479 85.7083 174.875 85.1146 174.312 84.4688C173.771 83.8229 173.5 83.3958 173.5 83.1875C173.5 83.0625 173.573 83 173.719 83C173.906 83 174.167 83.1042 174.5 83.3125C175.708 84.0417 176.656 84.5521 177.344 84.8438L177.375 69.4688L172.812 69.7188ZM152.406 68.2812C152.406 68.1146 152.5 67.9062 152.688 67.6562C152.896 67.3854 153.073 67.25 153.219 67.25C153.427 67.25 153.958 67.5312 154.812 68.0938C155.667 68.6354 156.75 69.4167 158.062 70.4375C158.396 70.6875 158.562 70.9062 158.562 71.0938C158.562 71.3438 158.406 71.6146 158.094 71.9062C157.802 72.1979 157.594 72.3438 157.469 72.3438C157.323 72.3438 157.104 72.2188 156.812 71.9688C155.292 70.5938 153.969 69.5521 152.844 68.8438C152.552 68.6562 152.406 68.4688 152.406 68.2812ZM152.562 84.25C152.562 84.125 152.646 84.0104 152.812 83.9062C153.271 83.5938 153.646 83.2188 153.938 82.7812C155.812 79.7812 157.344 77.0521 158.531 74.5938C158.844 73.9479 159.125 73.625 159.375 73.625C159.542 73.625 159.625 73.7708 159.625 74.0625C159.625 74.4792 159.292 75.5625 158.625 77.3125C157.979 79.0625 157.031 81.1979 155.781 83.7188C155.51 84.2604 155.281 84.6354 155.094 84.8438C154.927 85.0729 154.74 85.1875 154.531 85.1875H154.469C153.823 85.125 153.26 84.9167 152.781 84.5625C152.635 84.4792 152.562 84.375 152.562 84.25ZM154.281 61.3125C154.281 61.125 154.385 60.9167 154.594 60.6875C154.823 60.4375 155.031 60.3125 155.219 60.3125C155.427 60.3125 155.938 60.6354 156.75 61.2812C157.562 61.9271 158.333 62.6146 159.062 63.3438C159.812 64.0521 160.188 64.5 160.188 64.6875C160.188 64.875 160.062 65.0938 159.812 65.3438C159.5 65.6771 159.25 65.8438 159.062 65.8438C158.854 65.8438 158.625 65.6979 158.375 65.4062C157.104 63.9896 155.885 62.8229 154.719 61.9062C154.427 61.6771 154.281 61.4792 154.281 61.3125ZM160.75 60.6875C160.75 60.5417 160.844 60.4688 161.031 60.4688C161.385 60.4688 162.094 60.7083 163.156 61.1875L167.469 60.9375H167.812C168.146 60.9375 168.417 61.0104 168.625 61.1562C168.854 61.3021 169.021 61.4583 169.125 61.625C169.229 61.7917 169.281 61.8958 169.281 61.9375C169.281 62.0208 169.26 62.1042 169.219 62.1875C169.177 62.2708 169.146 62.3438 169.125 62.4062L168.75 68.6562C169.125 69.1771 169.312 69.5417 169.312 69.75C169.312 69.8958 169.24 69.9896 169.094 70.0312C168.969 70.0729 168.76 70.1042 168.469 70.125L163.125 70.375L163.156 86.1562C163.156 86.5104 162.969 86.6875 162.594 86.6875C162.51 86.6875 162.333 86.6354 162.062 86.5312C161.792 86.4479 161.542 86.3125 161.312 86.125C161.083 85.9375 160.969 85.7083 160.969 85.4375L161 85.2188C161.104 84.5521 161.156 83.8958 161.156 83.25L161.25 63.4062C161.25 62.4271 161.104 61.6042 160.812 60.9375L160.75 60.6875ZM167.062 68.6562L167.125 66.2812L163.125 66.4688V68.875L167.062 68.6562ZM167.188 64.875L167.25 62.5312L163.125 62.75V65.0938L167.188 64.875ZM163.844 80.2188C163.844 80.0938 163.917 80.0312 164.062 80.0312H164.156C164.573 80.1354 164.979 80.1875 165.375 80.1875H165.562L169.031 80.0312V77.6875L168.125 77.7188C167.917 77.7188 167.729 77.7292 167.562 77.75C167.417 77.7708 167.292 77.7812 167.188 77.7812C166.833 77.7812 166.51 77.6146 166.219 77.2812C165.927 76.9479 165.781 76.6562 165.781 76.4062C165.781 76.2812 165.854 76.2188 166 76.2188H166.094C166.49 76.3229 166.958 76.375 167.5 76.375L169.062 76.3125V74.0938L167.188 74.1875C166.979 74.1875 166.792 74.1979 166.625 74.2188C166.479 74.2396 166.354 74.25 166.25 74.25C165.979 74.25 165.74 74.1562 165.531 73.9688C165.323 73.7604 165.156 73.5417 165.031 73.3125C164.906 73.0625 164.844 72.8958 164.844 72.8125C164.844 72.6875 164.917 72.625 165.062 72.625H165.156C165.573 72.7292 165.979 72.7812 166.375 72.7812H166.562L171.969 72.5C172.615 72.4583 173.083 72.375 173.375 72.25C173.542 72.1875 173.698 72.1562 173.844 72.1562C174.115 72.1562 174.417 72.3125 174.75 72.625C175.104 72.9167 175.281 73.1771 175.281 73.4062C175.281 73.6354 175.062 73.7708 174.625 73.8125L170.719 74V76.2188H171.062C171.521 76.1979 171.896 76.1146 172.188 75.9688C172.312 75.9062 172.438 75.875 172.562 75.875C172.771 75.875 172.979 75.9583 173.188 76.125C173.417 76.2917 173.604 76.4792 173.75 76.6875C173.896 76.875 173.969 77.0104 173.969 77.0938C173.969 77.3021 173.76 77.4271 173.344 77.4688L170.688 77.5938V79.9688L173.094 79.8438C173.74 79.8021 174.208 79.7188 174.5 79.5938C174.667 79.5312 174.812 79.5 174.938 79.5C175.208 79.5 175.521 79.6562 175.875 79.9688C176.229 80.2812 176.406 80.5625 176.406 80.8125C176.406 81.0417 176.188 81.1771 175.75 81.2188L166.188 81.6562C165.979 81.6562 165.792 81.6667 165.625 81.6875C165.479 81.7083 165.354 81.7188 165.25 81.7188C164.958 81.7188 164.708 81.6146 164.5 81.4062C164.292 81.1979 164.125 80.9688 164 80.7188C163.896 80.4688 163.844 80.3021 163.844 80.2188ZM172.625 64.5938L177.406 64.3438V62.0625L172.562 62.375L172.625 64.5938ZM172.75 68.25L177.375 68L177.406 65.6875L172.688 65.9375L172.75 68.25ZM235.875 68.2188C235.708 68.2188 235.542 68.1875 235.375 68.125C235.208 68.0417 235.083 67.9167 235 67.75C234.938 67.5625 234.802 67.3438 234.594 67.0938C234.406 66.8438 234.219 66.6562 234.031 66.5312L234.156 66.375C234.26 66.4375 234.51 66.5625 234.906 66.75C235.302 66.9375 235.594 67.0312 235.781 67.0312C236.073 67.0312 236.333 66.9271 236.562 66.7188C236.792 66.5104 237.083 66.1146 237.438 65.5312C237.688 65.1354 237.917 64.6667 238.125 64.125C238.333 63.5833 238.49 63.0833 238.594 62.625L238.625 62.5625C238.625 62.5 238.604 62.4479 238.562 62.4062C238.521 62.3438 238.479 62.3125 238.438 62.3125L237 62.4375C236.042 62.6042 235.042 62.7396 234 62.8438C233.812 62.8646 233.594 62.9167 233.344 63C233.094 63.0833 232.917 63.125 232.812 63.125C232.646 63.125 232.427 62.9896 232.156 62.7188C232.052 62.6354 231.948 62.5312 231.844 62.4062C231.76 62.2812 231.74 62.1771 231.781 62.0938C231.948 61.9271 232.031 61.8438 232.031 61.8438L232.188 61.7188C232.479 61.4271 232.771 61.0417 233.062 60.5625C233.271 60.2708 233.49 59.7812 233.719 59.0938C233.719 58.8646 233.771 58.75 233.875 58.75C233.938 58.75 234.042 58.7917 234.188 58.875L234.688 59.1875C234.812 59.2917 234.896 59.375 234.938 59.4375C234.979 59.5 235 59.5833 235 59.6875C235 59.8125 234.917 59.9688 234.75 60.1562C234.583 60.3229 234.438 60.4896 234.312 60.6562L233.594 61.6875L233.531 61.8125C233.531 61.875 233.615 61.9062 233.781 61.9062L236.188 61.5938L237.812 61.4688L238.438 61.4062L238.781 61.3438H238.875C239.083 61.3438 239.312 61.5208 239.562 61.875C239.854 62.1458 240 62.375 240 62.5625L239.844 62.9688C239.823 63.0104 239.656 63.5 239.344 64.4375C238.969 65.3333 238.646 66.0104 238.375 66.4688C238.104 66.9271 237.812 67.2812 237.5 67.5312C236.938 67.9896 236.396 68.2188 235.875 68.2188ZM232.469 73.4688C232.24 73.4688 231.958 73.2917 231.625 72.9375C231.375 72.6875 231.25 72.5 231.25 72.375C231.25 72.3125 231.292 72.2812 231.375 72.2812C231.458 72.2604 231.562 72.25 231.688 72.25L232.375 72.2188C232.771 72.2188 233.031 72.2083 233.156 72.1875C233.552 72.1875 233.885 72.1771 234.156 72.1562C235.948 71.9896 237.156 71.8542 237.781 71.75C238.094 71.7083 238.375 71.6667 238.625 71.625C238.875 71.5625 239.073 71.5312 239.219 71.5312C239.51 71.5312 239.802 71.6771 240.094 71.9688C240.323 72.1979 240.438 72.3854 240.438 72.5312C240.438 72.6562 240.365 72.7396 240.219 72.7812C240.115 72.8021 239.5 72.8438 238.375 72.9062C237.75 72.9271 236.979 72.9792 236.062 73.0625C235.146 73.1458 234.344 73.2292 233.656 73.3125C233.531 73.3333 233.354 73.3646 233.125 73.4062C232.896 73.4479 232.677 73.4688 232.469 73.4688ZM232.281 85.9375C231.969 85.9375 231.729 85.8542 231.562 85.6875C231.375 85.5 231.281 85.3333 231.281 85.1875C231.281 85.0417 231.365 84.8854 231.531 84.7188C231.552 84.6979 231.667 84.5312 231.875 84.2188C232.333 83.4896 232.854 82.5625 233.438 81.4375C234.042 80.2917 234.417 79.5104 234.562 79.0938C234.688 78.6979 234.802 78.3542 234.906 78.0625C235.031 77.7708 235.135 77.625 235.219 77.625C235.365 77.625 235.49 77.6771 235.594 77.7812C235.698 77.8646 235.802 77.9896 235.906 78.1562C236.031 78.3021 236.125 78.4062 236.188 78.4688C236.333 78.6354 236.406 78.7917 236.406 78.9375C236.406 79.0417 236.365 79.1458 236.281 79.25C236.198 79.3542 236.146 79.4271 236.125 79.4688L234.75 81.7812C234.396 82.4271 233.927 83.2292 233.344 84.1875C233.26 84.2917 233.219 84.3958 233.219 84.5C233.219 84.5833 233.312 84.625 233.5 84.625C233.896 84.625 234.635 84.5729 235.719 84.4688C236.802 84.3854 237.531 84.3125 237.906 84.25C238.448 84.1875 238.823 84.125 239.031 84.0625C239.26 84 239.594 84.1562 240.031 84.5312C240.552 84.9688 240.667 85.25 240.375 85.375C240.208 85.4583 239.885 85.5 239.406 85.5H238.156C237.885 85.5 237.458 85.5208 236.875 85.5625C236.521 85.5625 236.125 85.5729 235.688 85.5938C235.25 85.6146 234.885 85.6354 234.594 85.6562C234.26 85.6771 233.615 85.7396 232.656 85.8438L232.281 85.9375ZM245.688 74.2188C245.75 74.2188 245.812 74.25 245.875 74.3125C245.938 74.3542 245.979 74.4167 246 74.5V74.5625C246 74.7083 245.885 74.9896 245.656 75.4062L243.406 79.3125C243.24 79.6667 243.021 79.8438 242.75 79.8438C242.479 79.8438 242.25 79.6771 242.062 79.3438C241.875 79.0729 241.646 78.6667 241.375 78.125C241.25 77.9375 241.146 77.75 241.062 77.5625C240.979 77.375 240.917 77.2396 240.875 77.1562C240.646 76.7604 240.531 76.4792 240.531 76.3125C240.531 76.2292 240.562 76.1667 240.625 76.125C240.688 76.0625 240.75 76.0312 240.812 76.0312C241.042 76.0312 241.25 76.1562 241.438 76.4062C241.583 76.5521 241.698 76.7083 241.781 76.875L242.125 77.3438L242.75 78.0625L243.031 77.625C243.323 77.125 244.01 76.1354 245.094 74.6562C245.323 74.3646 245.521 74.2188 245.688 74.2188ZM203.344 71.2812C203.344 70.5729 203.281 69.9792 203.156 69.5C202.406 70.3958 201.594 71.2708 200.719 72.125C200.406 72.4375 200.156 72.5938 199.969 72.5938C199.844 72.5938 199.781 72.5208 199.781 72.375C199.781 72.1875 199.906 71.9271 200.156 71.5938C201.615 69.5938 202.865 67.6979 203.906 65.9062C204.969 64.0938 205.854 62.2604 206.562 60.4062C206.667 60.1354 206.719 59.7188 206.719 59.1562C206.719 58.9271 206.802 58.8125 206.969 58.8125C207.073 58.8125 207.26 58.8958 207.531 59.0625C207.823 59.2083 208.083 59.3958 208.312 59.625C208.542 59.8542 208.656 60.0833 208.656 60.3125C208.656 60.3958 208.635 60.5 208.594 60.625L208.094 61.7188C210.302 63.1354 211.74 64.1146 212.406 64.6562C213.073 65.1771 213.406 65.5417 213.406 65.75C213.406 65.9167 213.302 66.1771 213.094 66.5312C212.906 66.8646 212.688 67.0312 212.438 67.0312C212.271 67.0312 212.073 66.9167 211.844 66.6875C210.635 65.5417 209.167 64.3229 207.438 63.0312C206.833 64.2188 206.188 65.3229 205.5 66.3438C205.646 66.3646 205.875 66.375 206.188 66.375L208.594 66.2188C208.948 66.1771 209.229 66.1146 209.438 66.0312C209.479 66.0104 209.552 66 209.656 66C209.885 66 210.146 66.1458 210.438 66.4375C210.75 66.7083 210.906 66.9375 210.906 67.125C210.906 67.3542 210.667 67.4896 210.188 67.5312L206.375 67.8438H206.156C205.844 67.8438 205.604 67.7812 205.438 67.6562C205.271 67.5312 205.125 67.3438 205 67.0938C204.708 67.5312 204.271 68.1146 203.688 68.8438C204.125 68.9688 204.604 69.1458 205.125 69.375L210.875 69H211.125C211.333 69 211.573 69.1042 211.844 69.3125C212.115 69.5208 212.25 69.7396 212.25 69.9688C212.25 70.0729 212.208 70.1979 212.125 70.3438C212.042 70.4896 212 70.5833 212 70.625L211.406 75.6562C211.823 76.1979 212.031 76.5625 212.031 76.75C212.031 76.875 211.979 76.9583 211.875 77C211.771 77.0208 211.573 77.0417 211.281 77.0625L205.094 77.3438L205.062 82.9375C206.562 82.3333 208.094 81.6146 209.656 80.7812C209.469 80.5104 209.271 80.2708 209.062 80.0625C208.854 79.8542 208.708 79.6979 208.625 79.5938C208.333 79.3021 208.188 79.0729 208.188 78.9062C208.188 78.6979 208.312 78.5 208.562 78.3125C208.812 78.125 209.021 78.0312 209.188 78.0312C209.375 78.0312 209.594 78.1667 209.844 78.4375C210.677 79.3542 211.469 80.3125 212.219 81.3125C212.99 82.2917 213.375 82.9271 213.375 83.2188C213.375 83.4479 213.229 83.6875 212.938 83.9375C212.667 84.1667 212.417 84.2812 212.188 84.2812C211.958 84.2812 211.729 84.0625 211.5 83.625C211.333 83.3125 210.99 82.7708 210.469 82L207.219 83.9062C206.49 84.3021 205.875 84.6667 205.375 85C204.667 85.4583 204.198 85.6979 203.969 85.7188C203.76 85.7188 203.521 85.5521 203.25 85.2188C202.979 84.8854 202.906 84.6146 203.031 84.4062C203.115 84.2604 203.177 83.8542 203.219 83.1875C203.26 82.5 203.281 81.9896 203.281 81.6562L203.344 71.2812ZM209.781 75.6562L209.906 73.75L205.031 74V75.875L209.781 75.6562ZM210 72.3125L210.125 70.5L205.031 70.8125V72.5625L210 72.3125ZM211.844 86.1875C211.844 86.0625 211.99 85.8542 212.281 85.5625C213.865 84.0208 214.948 82.4167 215.531 80.75C216.115 79.0625 216.49 77.4271 216.656 75.8438L215.25 75.9062C214.667 75.9479 214.312 75.9688 214.188 75.9688C213.708 75.9688 213.333 75.8542 213.062 75.625C212.792 75.375 212.594 75.1146 212.469 74.8438C212.365 74.5521 212.312 74.3542 212.312 74.25C212.312 74.1667 212.375 74.125 212.5 74.125C212.583 74.125 212.656 74.1354 212.719 74.1562C213.052 74.2396 213.427 74.2812 213.844 74.2812L214.438 74.25L216.844 74.125C216.948 72.5 217 70.9583 217 69.5V68.5L216.406 68.5312C215.698 68.5729 215.292 68.5938 215.188 68.5938C214.812 68.5938 214.479 68.5104 214.188 68.3438C213.896 68.1562 213.656 67.7708 213.469 67.1875C213.448 67.1458 213.438 67.0833 213.438 67C213.438 66.875 213.51 66.8125 213.656 66.8125C213.74 66.8125 213.812 66.8229 213.875 66.8438C214.229 66.9271 214.594 66.9688 214.969 66.9688C215.24 66.9688 215.448 66.9583 215.594 66.9375L220.406 66.5938C221.26 64.8854 221.854 63.5208 222.188 62.5C222.542 61.4583 222.719 60.7708 222.719 60.4375C222.719 60.3542 222.698 60.2083 222.656 60C222.635 59.9375 222.625 59.8646 222.625 59.7812C222.625 59.5938 222.719 59.5 222.906 59.5C223.052 59.5 223.292 59.5833 223.625 59.75C223.958 59.8958 224.25 60.0833 224.5 60.3125C224.771 60.5417 224.906 60.7708 224.906 61C224.906 61.1042 224.615 61.7708 224.031 63C223.448 64.2083 222.812 65.3646 222.125 66.4688L224.188 66.3125C224.833 66.2708 225.365 66.1771 225.781 66.0312C225.969 65.9688 226.135 65.9375 226.281 65.9375C226.615 65.9375 226.958 66.1146 227.312 66.4688C227.688 66.8229 227.875 67.1146 227.875 67.3438C227.875 67.5729 227.688 67.7083 227.312 67.75L224.125 67.9688V73.75L225.594 73.6562C226.156 73.6354 226.688 73.5312 227.188 73.3438C227.354 73.2812 227.49 73.25 227.594 73.25C227.906 73.25 228.25 73.4271 228.625 73.7812C229.021 74.1146 229.219 74.4375 229.219 74.75C229.219 75 229.052 75.1458 228.719 75.1875L224.125 75.4375L224.094 86.125C224.094 86.6667 223.927 86.9375 223.594 86.9375C223.219 86.9375 222.854 86.7917 222.5 86.5C222.167 86.2083 222 85.9271 222 85.6562C222 85.5104 222.01 85.3958 222.031 85.3125C222.156 84.4375 222.219 83.6146 222.219 82.8438L222.25 75.5312L218.531 75.7188C218.344 77.0104 218.167 78.0208 218 78.75C217.625 80.3542 217.031 81.7292 216.219 82.875C215.406 84 214.583 84.8542 213.75 85.4375C212.938 86.0417 212.365 86.3438 212.031 86.3438C211.906 86.3438 211.844 86.2917 211.844 86.1875ZM215.406 61.0938C215.406 60.9688 215.531 60.8229 215.781 60.6562C216.031 60.4688 216.26 60.375 216.469 60.375C216.719 60.375 216.927 60.5104 217.094 60.7812C217.76 61.7812 218.323 62.7708 218.781 63.75C219.26 64.7292 219.5 65.3021 219.5 65.4688C219.5 65.6771 219.323 65.8646 218.969 66.0312C218.615 66.1771 218.333 66.25 218.125 66.25C217.979 66.25 217.865 66.2083 217.781 66.125C217.719 66.0417 217.646 65.9062 217.562 65.7188C217.042 64.2812 216.396 62.9271 215.625 61.6562C215.479 61.4062 215.406 61.2188 215.406 61.0938ZM222.25 73.8438L222.281 68.125L218.906 68.3438C218.906 70.4062 218.833 72.3021 218.688 74.0312L222.25 73.8438Z" fill="#333333"/>
</svg>
