<svg xmlns="http://www.w3.org/2000/svg" width="350" height="88" fill="none"><path fill="#333" d="M137.91 14.281a1.25 1.25 0 0 1-.914-.386 26.715 26.715 0 0 0-2.355-2.286c-.891-.75-1.676-1.312-2.356-1.687-.328-.188-.492-.48-.492-.879 0-.07.082-.164.246-.281.211-.14.551-.446 1.02-.914l1.265-1.23a23.702 23.702 0 0 0 1.406-1.583c.399-.469.622-.797.668-.984a1.16 1.16 0 0 0 .071-.281c.047-.165.117-.247.211-.247.117 0 .269.059.457.176.211.117.386.235.527.352.352.328.527.61.527.844-.023.07-.117.152-.281.246-.14.07-.269.14-.387.21-.117.094-.539.47-1.265 1.126l-2.285 1.968c-.399.328-.598.586-.598.774 0 .094.187.246.563.457.445.281 1.312.855 2.601 1.722.492.329.961.692 1.406 1.09.375.375.563.762.563 1.16 0 .188-.082.352-.246.493a.478.478 0 0 1-.352.14Zm-6.258 5.871c-.257 0-.574-.199-.949-.597-.281-.282-.422-.492-.422-.633 0-.07.047-.106.141-.106a1.48 1.48 0 0 1 .351-.035l.774-.035c.445 0 .738-.012.879-.035.445 0 .82-.012 1.125-.035 2.015-.188 3.375-.34 4.078-.457a29.8 29.8 0 0 0 .949-.14c.281-.071.504-.106.668-.106.328 0 .656.164.984.492.258.258.387.469.387.633 0 .14-.082.234-.246.28-.117.024-.809.071-2.074.142-.703.023-1.57.082-2.602.175a92.491 92.491 0 0 0-2.707.282c-.14.023-.34.058-.597.105-.258.047-.504.07-.739.07Zm-.211 14.028c-.351 0-.621-.094-.808-.282-.211-.21-.317-.398-.317-.562 0-.164.094-.34.282-.527.023-.024.152-.211.386-.563.516-.82 1.102-1.863 1.758-3.129.68-1.289 1.102-2.168 1.266-2.637.14-.445.269-.832.387-1.16.14-.328.257-.492.351-.492.164 0 .305.059.422.176.117.094.234.234.352.422.14.164.246.281.316.351.164.188.246.364.246.528a.562.562 0 0 1-.141.351c-.093.117-.152.2-.175.246l-1.547 2.602a72.802 72.802 0 0 1-1.582 2.707.562.562 0 0 0-.141.352c0 .093.106.14.316.14.446 0 1.278-.059 2.497-.176 1.218-.093 2.039-.175 2.461-.246.609-.07 1.031-.14 1.265-.21.258-.071.633.105 1.125.527.586.492.715.808.387.949-.188.094-.551.14-1.09.14h-1.406c-.305 0-.785.024-1.442.07-.398 0-.843.013-1.336.036-.492.023-.902.047-1.23.07-.375.024-1.102.094-2.18.211l-.422.106ZM105.672 17.2c-.399 0-.668-.071-.809-.212a2.932 2.932 0 0 1-.633-.914c-.14-.328-.21-.562-.21-.703 0-.14.058-.21.175-.21a.49.49 0 0 1 .211.034c.586.14 1.125.188 1.617.14l8.297-.42-.035-2.25-3.586.21-.703.035c-.445 0-.762-.082-.949-.246a2.768 2.768 0 0 1-.527-.527 2.89 2.89 0 0 1-.352-.633l-.07-.281c0-.141.07-.211.211-.211.093 0 .164.011.211.035.468.117.878.176 1.23.176l.492-.036 4.043-.21V8.902l-5.519.282-.633.035c-.492 0-.891-.13-1.195-.387-.282-.281-.481-.562-.598-.844-.094-.304-.141-.504-.141-.597 0-.118.071-.176.211-.176l.176.035a7.286 7.286 0 0 0 1.547.176h.176l5.941-.281V5.633c0-.727-.141-1.348-.422-1.863a.632.632 0 0 1-.105-.317c0-.164.152-.246.457-.246.468 0 .949.082 1.441.246.516.164.774.492.774.985v2.601l4.886-.246c.281-.023.727-.117 1.336-.281l.176-.035c.234 0 .586.164 1.055.492.468.304.703.61.703.914 0 .304-.246.48-.739.527l-7.417.387-.036 2.074 4.043-.21a4.049 4.049 0 0 0 1.231-.282.49.49 0 0 1 .211-.035c.234 0 .551.164.949.492.422.328.633.633.633.914 0 .258-.235.41-.703.457l-6.364.352v2.285l8.262-.422a3.664 3.664 0 0 0 1.301-.281.605.605 0 0 1 .246-.036c.305 0 .656.188 1.055.563.398.352.597.68.597.984 0 .282-.246.446-.738.493l-20.531 1.02-.879.034Zm-9.844-2.813c0-.211.106-.457.316-.739.212-.28.41-.421.598-.421.258 0 .973.398 2.145 1.195a59.16 59.16 0 0 1 3.34 2.39c.375.282.562.54.562.774 0 .21-.141.504-.422.879-.258.375-.504.562-.738.562-.164 0-.41-.14-.738-.422a40.916 40.916 0 0 0-4.57-3.55c-.329-.211-.493-.434-.493-.668ZM96.04 32c0-.117.094-.234.281-.352a5.387 5.387 0 0 0 1.301-1.23c1.898-2.578 3.856-5.637 5.871-9.176.375-.656.715-.984 1.02-.984.187 0 .281.129.281.387 0 .445-.516 1.804-1.547 4.078a80.984 80.984 0 0 1-3.586 6.89 9.463 9.463 0 0 1-.387.633c-.187.352-.363.586-.527.703a.797.797 0 0 1-.527.211h-.106c-.351 0-.691-.082-1.02-.246a3.13 3.13 0 0 1-.773-.492c-.187-.188-.28-.328-.28-.422Zm2.496-25.383c0-.187.117-.433.352-.738.21-.281.422-.422.632-.422.235 0 .821.363 1.758 1.09a25.052 25.052 0 0 1 2.672 2.25c.844.773 1.266 1.277 1.266 1.512 0 .328-.164.644-.492.949-.328.281-.575.422-.739.422-.187 0-.422-.153-.703-.457-1.57-1.664-3-2.989-4.289-3.973-.305-.234-.457-.445-.457-.633Zm6.68 28.266c0-.305.094-.574.281-.809.797-1.218 1.418-2.343 1.863-3.375.446-1.031.786-2.238 1.02-3.62.234-1.407.351-3.153.351-5.24 0-.937-.011-1.581-.035-1.933-.023-.351-.093-.633-.211-.843-.14-.235-.211-.41-.211-.528 0-.047.024-.094.071-.14a.432.432 0 0 1 .246-.07c.515 0 1.16.175 1.933.527l10.793-.457c.446-.024.844.07 1.196.28.351.188.527.481.527.88 0 .117-.023.246-.07.386a1.934 1.934 0 0 0-.035.387l.105 12.024c0 .21.012.41.035.597.024.188.035.352.035.492 0 .399-.175.774-.527 1.125-.328.352-.644.528-.949.528-.328 0-.938-.258-1.828-.774a22.764 22.764 0 0 1-2.461-1.687c-.75-.586-1.125-.996-1.125-1.23 0-.141.105-.212.316-.212.141 0 .387.059.738.176 1.289.516 2.497.914 3.622 1.195l-.036-4.359-10.793.352a13.902 13.902 0 0 1-1.336 3.304c-.562.985-1.148 1.758-1.757 2.32-.586.587-1.09.891-1.512.915h-.07c-.118 0-.176-.07-.176-.211Zm15.644-8.578V24.16l-10.195.352c-.023.75-.094 1.465-.211 2.144l10.406-.351Zm-.035-3.973v-2.039l-10.019.422-.035 1.969 10.054-.352Zm73.442-16.453c0 .516-.024 1.008-.071 1.476l-.07 1.97c-.023.538-.094 1.44-.211 2.706-.023.375-.141.668-.352.88-.187.21-.363.316-.527.316-.187-.024-.351-.188-.492-.493a2.034 2.034 0 0 1-.105-.984c.023-.188.093-.96.21-2.32.047-1.453.024-2.426-.07-2.918-.023-.164-.187-.27-.492-.317h-.984l-1.618.14c-.328.024-.82.095-1.476.212-.633.117-1.149.223-1.547.316-.023.797-.012 1.805.035 3.024l.141 2.39a.945.945 0 0 1-.176.563c-.094.164-.211.246-.352.246-.281 0-.504-.188-.668-.563a2.101 2.101 0 0 1-.211-.949l-.035-.597-.07-2.004c0-.586-.023-1.418-.07-2.496 0-.188-.012-.329-.035-.422a1.035 1.035 0 0 1-.036-.176.792.792 0 0 1-.035-.246c0-.188.094-.281.281-.281.141 0 .258.023.352.07l.633.21c.258-.046.48-.081.668-.105.211-.023.363-.047.457-.07 1.078-.164 2.414-.281 4.008-.352.586 0 .996-.058 1.23-.175a.383.383 0 0 1 .141-.07c.093-.048.164-.06.211-.036l.351.106c.094.023.188.07.281.14a.95.95 0 0 1 .247.176c.304.305.457.516.457.633Zm-8.614 14.273c-.257 0-.574-.199-.949-.597-.281-.282-.422-.492-.422-.633 0-.07.047-.106.141-.106a1.48 1.48 0 0 1 .351-.035l.774-.035c.445 0 .738-.012.879-.035.445 0 .82-.012 1.125-.035 2.015-.188 3.375-.34 4.078-.457a29.8 29.8 0 0 0 .949-.14c.281-.071.504-.106.668-.106.328 0 .656.164.984.492.258.258.387.469.387.633 0 .14-.082.234-.246.28-.117.024-.809.071-2.074.142-.703.023-1.57.082-2.602.175a92.491 92.491 0 0 0-2.707.282c-.14.023-.34.058-.597.105-.258.047-.504.07-.739.07Zm-.211 14.028c-.351 0-.621-.094-.808-.282-.211-.21-.317-.398-.317-.562 0-.164.094-.34.282-.527.023-.024.152-.211.386-.563.516-.82 1.102-1.863 1.758-3.129.68-1.289 1.102-2.168 1.266-2.637.14-.445.269-.832.387-1.16.14-.328.257-.492.351-.492.164 0 .305.059.422.176.117.094.234.234.352.422.14.164.246.281.316.351.164.188.246.364.246.528a.562.562 0 0 1-.141.351c-.093.117-.152.2-.175.246l-1.547 2.602a72.802 72.802 0 0 1-1.582 2.707.562.562 0 0 0-.141.352c0 .093.106.14.316.14.446 0 1.278-.059 2.497-.176 1.218-.093 2.039-.175 2.461-.246.609-.07 1.031-.14 1.265-.21.258-.071.633.105 1.125.527.586.492.715.808.387.949-.188.094-.551.14-1.09.14h-1.406c-.305 0-.785.024-1.442.07-.398 0-.843.013-1.336.036-.492.023-.902.047-1.23.07-.375.024-1.102.094-2.18.211l-.422.106Zm14.942-15.504c.281 0 .422.129.422.387 0 .14-.129.34-.387.597-.703.867-2.098 2.52-4.184 4.957-.164.211-.316.317-.457.317-.117 0-.375-.176-.773-.528-.328-.281-.492-.515-.492-.703 0-.21.176-.41.527-.598.539-.304 1.348-.914 2.426-1.828 1.078-.96 1.875-1.722 2.39-2.285.211-.21.387-.316.528-.316Zm-33.047 4.254c-.539 2.718-1.383 4.957-2.531 6.715-1.149 1.757-2.637 3.386-4.465 4.886l-.176.14c-.469.329-.797.493-.984.493-.164 0-.246-.082-.246-.246 0-.234.199-.586.597-1.055 1.735-2.015 3.047-3.972 3.938-5.87.89-1.9 1.5-3.938 1.828-6.118.328-2.18.492-4.887.492-8.121 0-2.672-.035-4.453-.105-5.344-.071-.89-.164-1.465-.282-1.723-.117-.234-.175-.433-.175-.597 0-.188.117-.281.351-.281.445 0 1.301.316 2.567.949l8.296-.598h.317c.351 0 .644.082.879.246.234.164.41.352.527.563.117.21.176.363.176.457 0 .094-.035.222-.106.386-.07.165-.105.282-.105.352l.176 24.223.035 1.195c0 .586-.129 1.043-.387 1.371-.234.328-.492.54-.773.633-.282.117-.492.176-.633.176-.445 0-1.172-.364-2.18-1.09a27.06 27.06 0 0 1-2.812-2.39c-.867-.868-1.301-1.419-1.301-1.653 0-.117.082-.176.246-.176.281 0 .68.14 1.195.422.657.352 1.348.703 2.075 1.055.726.351 1.464.668 2.214.949l-.07-10.371-8.578.422ZM151.621 7.566c0-.14.094-.21.281-.21.328 0 1.055.199 2.18.597l6.856-.562c.093-.024.234-.036.421-.036.446 0 .786.141 1.02.422.258.282.387.528.387.739 0 .117-.036.257-.106.421a5.225 5.225 0 0 0-.105.422l-.598 14.766c.727.727 1.09 1.242 1.09 1.547 0 .164-.082.27-.246.316-.164.024-.446.047-.844.07l-7.312.212.035 2.039v.175c0 .516-.164.774-.492.774-.352 0-.762-.13-1.231-.387-.445-.281-.668-.633-.668-1.055 0-.164.012-.293.035-.386.117-.657.176-1.278.176-1.864v-.351l-.352-15.223a5.767 5.767 0 0 0-.386-1.969 4.503 4.503 0 0 1-.141-.457Zm2.777 8.368 5.696-.317.14-6.258-5.976.563.14 6.012Zm.176 8.402 5.309-.14.176-6.716-5.625.317.14 6.539Zm21.34-3.727-.035-5.168-7.84.457c-.023.657-.117 1.957-.281 3.903l-.106 1.23 8.262-.422Zm-7.84-11.847c.024 1.289.035 3.047.035 5.273l7.77-.492-.035-5.309-7.77.528Zm78.047 5.625c-.164 0-.34-.106-.527-.317a2.15 2.15 0 0 1-.282-.386c-.046-.118-.046-.27 0-.457l.036-.844c.023-.164.035-.563.035-1.195v-1.16l-1.055.492-1.23.527a10.87 10.87 0 0 0-.95.422c-.281.14-.527.21-.738.21a2.17 2.17 0 0 1-.562-.175 4.837 4.837 0 0 1-.493-.246c-.257-.164-.375-.34-.351-.527l.105-.352c0-.188.012-.352.036-.492l.035-2.04V5.95c0-.375-.024-.691-.071-.949-.047-.281-.082-.48-.105-.598 0-.117.035-.199.105-.246.024-.023.082-.035.176-.035.164 0 .481.106.949.316.399.188.563.422.493.704-.047.164-.094.41-.141.738l-.106 4.043c0 .117.012.21.036.281.046.047.093.07.14.07.282 0 .621-.082 1.02-.246.75-.234 1.394-.468 1.933-.703l.774-.316v-2.32c0-.938-.059-1.84-.176-2.708a.792.792 0 0 1-.035-.246c0-.234.094-.351.281-.351.024 0 .152.047.387.14.351.188.609.352.773.493.164.14.258.222.282.246.093.07.14.14.14.21a.34.34 0 0 1-.07.176c-.024.07-.047.13-.07.176l-.106 1.055-.035 3.234.035 3.13c0 .538-.035 1.007-.105 1.405-.118.493-.305.739-.563.739Zm-6.469 5.765c-.257 0-.574-.199-.949-.597-.281-.282-.422-.492-.422-.633 0-.07.047-.106.141-.106a1.48 1.48 0 0 1 .351-.035l.774-.035c.445 0 .738-.012.879-.035.445 0 .82-.012 1.125-.035 2.015-.188 3.375-.34 4.078-.457a29.8 29.8 0 0 0 .949-.14c.281-.071.504-.106.668-.106.328 0 .656.164.984.492.258.258.387.469.387.633 0 .14-.082.234-.246.28-.117.024-.809.071-2.074.142-.703.023-1.57.082-2.602.175a92.491 92.491 0 0 0-2.707.282c-.14.023-.34.058-.597.105-.258.047-.504.07-.739.07Zm4.711 14.52c-.726 0-1.289-.024-1.687-.07a1.68 1.68 0 0 1-.949-.422c-.446-.328-.75-1.043-.915-2.145l-.105-1.125c0-.281-.023-.633-.07-1.055a5.987 5.987 0 0 0-.809.141 3.817 3.817 0 0 1-.246.106.965.965 0 0 1-.211.035.81.81 0 0 1-.457-.14c-.141-.095-.316-.27-.527-.528-.164-.211-.246-.352-.246-.422s.082-.117.246-.14c.164-.024.386-.036.668-.036.398 0 .914-.047 1.547-.14l-.036-.493c0-.937-.058-1.734-.175-2.39l-.036-.246c0-.329.129-.457.387-.387.281.094.539.21.774.351.187.094.316.188.386.282.071.07.094.175.071.316l-.106 1.512v.914l3.094-.317c0-.164.012-.55.035-1.16.024-.633.024-1.043 0-1.23 0-.188-.023-.363-.07-.527a6.529 6.529 0 0 0-.071-.458c0-.187.094-.28.282-.28.187 0 .422.105.703.316.328.21.539.398.633.562.117.164.14.363.07.598a6.4 6.4 0 0 0-.246 1.265c-.047.47-.07.75-.07.844.281-.023.539-.058.773-.105.234-.047.387-.07.457-.07.188-.047.41-.071.668-.071.141.023.34.164.598.422.211.281.316.504.316.668 0 .234-.223.328-.668.281a6.863 6.863 0 0 0-1.195-.105c-.399 0-.738.011-1.02.035-.07.844-.211 1.676-.422 2.496a.953.953 0 0 1-.246.457c-.117.14-.222.21-.316.21-.164 0-.27-.07-.317-.21a3.524 3.524 0 0 1-.035-.598c.047-.61.071-1.37.071-2.285a26.99 26.99 0 0 0-1.477.14 9.357 9.357 0 0 1-1.512.212c-.023.96.024 1.816.141 2.566.07.492.211.832.422 1.02.14.117.305.187.492.21.211.024.422.036.633.036h.422c.726 0 1.406-.035 2.039-.106a1.52 1.52 0 0 0 .492-.14c.164-.07.281-.106.352-.106.21 0 .421.07.632.211.211.14.317.305.317.492 0 .188-.106.328-.317.422-.187.094-.492.176-.914.246-.75.094-1.5.14-2.25.14Zm10.02-15.996c.281 0 .422.129.422.387 0 .14-.129.34-.387.597-.703.867-2.098 2.52-4.184 4.957-.164.211-.316.317-.457.317-.117 0-.375-.176-.773-.528-.328-.281-.492-.515-.492-.703 0-.21.176-.41.527-.598.539-.304 1.348-.914 2.426-1.828 1.078-.96 1.875-1.722 2.39-2.285.211-.21.387-.316.528-.316Zm-44.684 11.496c2.086-.656 3.949-1.371 5.59-2.145a25.586 25.586 0 0 0-1.336-1.687c-.187-.235-.281-.422-.281-.563 0-.258.152-.48.457-.668.305-.21.539-.316.703-.316.188 0 .387.117.598.352a137.853 137.853 0 0 1 3.41 4.148c.937 1.195 1.406 1.922 1.406 2.18 0 .21-.164.457-.492.738-.305.305-.598.457-.879.457-.234 0-.469-.188-.703-.563a96.435 96.435 0 0 0-1.828-2.671l-4.219 2.109c-.469.21-1.207.586-2.215 1.125-.844.445-1.359.668-1.547.668-.14 0-.316-.094-.527-.281a1.65 1.65 0 0 1-.492-.633c-.094-.234-.094-.422 0-.563.14-.257.211-1.289.211-3.093V16.602c0-.563-.024-1.02-.071-1.372a3.587 3.587 0 0 0-.281-1.125 1.37 1.37 0 0 0-.07-.175.305.305 0 0 1-.035-.14c0-.118.082-.177.246-.177.304 0 1.066.258 2.285.774l7.629-.528c.187-.023.398-.035.633-.035.257 0 .562.117.914.352.351.21.527.445.527.703 0 .094-.059.234-.176.422-.094.187-.14.328-.14.422l-.914 6.609c.562.656.843 1.102.843 1.336 0 .117-.07.2-.211.246-.117.047-.304.07-.562.07l-8.508.317.035 5.87Zm-5.765-15.785c0-.235.152-.516.457-.844 1.711-1.898 3.199-3.785 4.464-5.66 1.266-1.875 1.899-3.13 1.899-3.762l-.035-.246V3.77c0-.329.129-.493.386-.493.305 0 .727.211 1.266.633.563.399.844.727.844.985 0 .117-.059.27-.176.457a23.895 23.895 0 0 1-1.16 1.687l4.992-.387a4.872 4.872 0 0 0 1.336-.28c.141-.048.246-.071.316-.071.352 0 .727.199 1.125.597.422.375.633.668.633.88 0 .28-.258.445-.773.492l-6.012.421c.164.047.527.293 1.09.739.586.445 1.113.902 1.582 1.37.469.47.703.798.703.985 0 .211-.141.469-.422.774-.281.28-.527.421-.738.421-.188 0-.41-.152-.668-.457a21.796 21.796 0 0 0-2.426-2.285c-.281-.234-.422-.433-.422-.597 0-.118.059-.27.176-.457.117-.188.27-.34.457-.457l-2.355.175a34.406 34.406 0 0 1-3.727 3.903c-1.359 1.195-2.226 1.793-2.601 1.793-.141 0-.211-.07-.211-.211Zm12.656 3.656.246-2.461-7.242.492v2.32l6.996-.351Zm-.457 4.36.281-2.708-6.785.317v2.636l6.504-.246Zm1.898-9.528c0-.234.153-.516.457-.844 1.149-1.383 2.192-2.941 3.129-4.676.961-1.757 1.442-2.988 1.442-3.69v-.142c0-.351.129-.527.386-.527.164 0 .41.094.739.281.351.164.668.364.949.598.281.234.422.469.422.703 0 .211-.164.586-.493 1.125-.328.54-.503.82-.527.844l6.926-.563a6.483 6.483 0 0 0 1.336-.246c.047-.023.141-.035.281-.035.328 0 .68.188 1.055.563.398.351.597.644.597.879 0 .14-.07.257-.21.351-.118.07-.282.117-.493.14l-7.136.493c.656.422 1.429 1.043 2.32 1.863.891.797 1.336 1.336 1.336 1.617 0 .164-.129.422-.387.774-.258.328-.504.492-.738.492-.188 0-.387-.117-.598-.352-1.148-1.242-2.191-2.226-3.129-2.953-.234-.187-.351-.363-.351-.527 0-.188.176-.469.527-.844l-2.601.176c-.774 1.031-1.711 2.074-2.813 3.129-1.078 1.055-1.805 1.582-2.18 1.582-.164 0-.246-.07-.246-.211Zm3.305.773c0-.14.082-.21.246-.21.352 0 1.148.292 2.391.878l7.066-.597.281-.035c.094 0 .27.046.528.14.281.07.539.2.773.387.258.164.387.387.387.668 0 .094-.035.223-.106.387-.07.164-.105.28-.105.351a88.243 88.243 0 0 1-.492 8.262l-.071.879c-.07.984-.164 1.805-.281 2.46-.117.657-.316 1.173-.598 1.548-.445.609-.925.914-1.441.914s-1.172-.317-1.969-.95a18.576 18.576 0 0 1-2.215-2.074c-.656-.75-.984-1.23-.984-1.441 0-.164.094-.246.281-.246.211 0 .504.117.879.351.867.54 1.594.973 2.18 1.301.586.328 1.008.492 1.266.492.117 0 .199-.082.246-.246.539-3 .867-6.762.984-11.285l-6.609.492c0 3.961.035 10.242.105 18.844 0 .21-.058.363-.176.457a.466.466 0 0 1-.386.176c-.188 0-.411-.07-.668-.211-.446-.188-.762-.363-.95-.528-.187-.164-.281-.351-.281-.562l.035-.246c.141-.773.211-1.64.211-2.602l-.105-14.836c0-.609-.024-1.078-.07-1.406a3.306 3.306 0 0 0-.211-.95c-.094-.28-.141-.468-.141-.562ZM112.719 62.844c-.146 0-.073-.125.219-.375.291-.25.645-.552 1.062-.907a16.43 16.43 0 0 0 1.406-1.468 4.31 4.31 0 0 0 .75-1.25c.104-.25.219-.375.344-.375.104 0 .26.083.469.25.416.333.625.614.625.843 0 .146-.084.25-.25.313-.084.02-.209.115-.375.281-.167.146-.292.26-.375.344-.896.875-1.729 1.51-2.5 1.906-.625.292-1.042.438-1.25.438h-.125ZM116 68.656c-.062 0-.167-.083-.312-.25a2.624 2.624 0 0 1-.282-.531 1.735 1.735 0 0 1 0-.469c.042-.208.063-.364.063-.469.041-.416.062-.75.062-1 .021-.229.021-.479 0-.75v-.53l-.031-.47c-.5.355-.885.605-1.156.75-.604.334-1.042.542-1.313.626a2.606 2.606 0 0 1-.906.187c-.146 0-.229-.02-.25-.063-.042-.083.375-.385 1.25-.906.833-.52 1.74-1.208 2.719-2.062.541-.5.958-.98 1.25-1.438a.713.713 0 0 0 .094-.218c.041-.105.083-.167.124-.188.063-.02.146-.01.25.031.271.146.5.354.688.625a.503.503 0 0 1 .125.313c0 .104-.052.208-.156.312a1.245 1.245 0 0 1-.313.188 6.99 6.99 0 0 0-.968.75c-.292.27-.48.448-.563.531.313.25.469.427.469.531l-.094.656c-.042.188-.062.657-.062 1.407 0 .729.02 1.219.062 1.469v.062a.772.772 0 0 1-.094.344 2.888 2.888 0 0 1-.094.219c-.145.229-.333.343-.562.343Zm3.188 7.938c-.313 0-.615-.23-.907-.688a9.905 9.905 0 0 0-1.093-1.437l-.813-.844c-.437.5-.823.896-1.156 1.188a6.25 6.25 0 0 1-1.188.843c-.896.521-1.646.781-2.25.781-.146 0-.219-.052-.219-.156 0-.062.198-.198.594-.406a6.591 6.591 0 0 0 1.125-.75c.896-.75 1.636-1.52 2.219-2.313-.125-.124-.75-.666-1.875-1.624a10.426 10.426 0 0 1-.656-.532 7.616 7.616 0 0 1-.375-.281c-.188-.146-.282-.25-.282-.313 0-.104.053-.156.157-.156.312 0 .812.219 1.5.656.687.417 1.406.917 2.156 1.5.292-.354.521-.687.687-1 .167-.312.355-.697.563-1.156.104-.229.167-.427.187-.594a4.83 4.83 0 0 0 .032-.343c0-.23.062-.344.187-.344.146 0 .344.115.594.344.437.416.656.698.656.844 0 .083-.052.177-.156.28-.25.25-.479.584-.687 1-.126.25-.355.605-.688 1.063a2.76 2.76 0 0 0-.25.344 3.062 3.062 0 0 1-.188.281c.48.354 1.188.959 2.126 1.813.229.208.374.406.437.594.083.166.125.395.125.687a.89.89 0 0 1-.156.531.504.504 0 0 1-.406.188Zm.562 4.125c.229.25.344.458.344.625 0 .146-.084.281-.25.406-.104.083-.365.542-.782 1.375a9.64 9.64 0 0 1-1.531 1.938c-.541.562-1.083.968-1.625 1.218a1.027 1.027 0 0 1-.312.063c-.084 0-.125-.021-.125-.063v-.062c0-.125.104-.271.312-.438.375-.291.657-.594.844-.906l.469-.656c.437-.625.75-1.136.937-1.531a3.76 3.76 0 0 0 .438-1.094h-.125c-.542 0-1.417.062-2.625.187-.188.021-.729.094-1.625.219a10.2 10.2 0 0 0-.875.156l-.375.094a.557.557 0 0 1-.25.063.838.838 0 0 1-.313-.063 2.83 2.83 0 0 1-.312-.219c-.25-.208-.375-.385-.375-.531a.976.976 0 0 0 .062-.188.5.5 0 0 0 .063-.218l.156-1.031c.021-.105.042-.22.063-.344.02-.125.031-.25.031-.375 0-.396-.011-.709-.031-.938 0-.25-.032-.51-.094-.781v-.094c0-.146.062-.219.187-.219s.344.094.657.282c.416.291.624.52.624.687 0 .063-.01.115-.031.156l-.062.126a8.772 8.772 0 0 0-.094.624l-.156 1.657c0 .041.021.094.062.156a.337.337 0 0 0 .188.063c.5 0 1.625-.126 3.375-.376.687-.062 1.177-.135 1.468-.218.188-.021.344-.052.469-.094.146-.063.24-.094.281-.094.126-.041.209-.062.25-.062.188 0 .417.166.688.5Zm-20.094-6.094c.23 0 .448.063.656.188a32.87 32.87 0 0 1-2.468-3.094l-6.344.312a26.588 26.588 0 0 1-2.063 2.813c.25.062.573.156.97.281l9.062-.5h.187ZM79.72 81.656c0-.187.229-.448.687-.781 3.792-2.563 6.76-5.469 8.906-8.719l-5.75.281-.75.032c-.187 0-.322-.01-.406-.031-.187 0-.333-.053-.437-.157-.48-.396-.771-.844-.875-1.344a.347.347 0 0 1-.031-.156c0-.146.062-.219.187-.219l.156.032c.417.104.854.156 1.313.156h.25l7.406-.375.188-.344a22.25 22.25 0 0 0 1.062-2.281l-2.781.156c-.188.021-.427.031-.719.031-.438 0-.792-.114-1.063-.343-.27-.23-.458-.469-.562-.719-.104-.27-.156-.448-.156-.531 0-.104.062-.156.187-.156l.156.03c.376.063.76.094 1.157.094h.406l3.969-.25c.187-.52.396-1.27.625-2.25l-6.188.407a5.52 5.52 0 0 1-.656.031c-.417 0-.792-.094-1.125-.281-.333-.188-.615-.584-.844-1.188L84 62.594c0-.146.083-.219.25-.219l.156.031c.584.084 1.031.125 1.344.125h.313l7.093-.437c.188-1 .281-1.688.281-2.063 0-.416-.072-.781-.218-1.093-.063-.167-.094-.282-.094-.344 0-.188.125-.282.375-.282.313 0 .74.084 1.281.25.563.167.844.459.844.876l-.031.312c-.104.688-.23 1.427-.375 2.219l6.343-.407c.23-.02.657-.124 1.282-.312.125-.042.208-.063.25-.063.291 0 .646.198 1.062.594.438.375.656.677.656.907 0 .229-.229.364-.687.406l-9.25.593c-.063.271-.25 1.021-.563 2.25l4.97-.28a5.77 5.77 0 0 0 1.187-.22.993.993 0 0 1 .281-.062c.25 0 .573.177.969.531.416.354.625.636.625.844 0 .125-.573.25-1.719.375-1.125.125-3.417.292-6.875.5a25.7 25.7 0 0 1-1.188 2.656l12.407-.625c.458-.02.906-.114 1.343-.281a.656.656 0 0 1 .25-.031c.209 0 .438.094.688.281.271.188.5.406.688.656.187.23.281.396.281.5 0 .25-.24.396-.719.438l-7.625.375A27.348 27.348 0 0 0 104 75.813c1.479 1.208 3.156 2.25 5.031 3.124.417.188.625.355.625.5 0 .105-.104.271-.312.5a3.936 3.936 0 0 1-.688.594c-.25.167-.479.25-.687.25-.146 0-.573-.198-1.281-.594-.688-.395-1.532-.979-2.532-1.75-.979-.77-1.989-1.697-3.031-2.78a.346.346 0 0 1 .031.156c0 .062-.031.166-.094.312-.041.125-.062.23-.062.313l-.438 6.937c.542.688.813 1.167.813 1.438 0 .166-.083.27-.25.312-.146.042-.375.063-.687.063l-9.594.25.031.78v.094c0 .417-.198.626-.594.626-.27 0-.594-.105-.969-.313-.374-.208-.562-.52-.562-.938v-.124c0-.209.02-.5.063-.876.041-.374.062-.656.062-.843v-.281l-.438-6.813c0-.125-.01-.24-.03-.344l-.063-.312c-1.146 1.208-2.323 2.24-3.531 3.094-1.188.854-2.24 1.51-3.157 1.968-.896.459-1.448.688-1.656.688-.188 0-.281-.063-.281-.188ZM90.5 79.281l8.375-.312.094-2.563-8.594.406.125 2.47Zm.25 4.375 7.938-.187.124-2.844-8.218.313.156 2.718Zm69.719-15.5c-.229 0-.511-.177-.844-.531-.25-.25-.375-.438-.375-.563 0-.062.042-.093.125-.093.083-.021.187-.031.313-.031l.687-.032c.396 0 .656-.01.781-.031.396 0 .729-.01 1-.031 1.792-.167 3-.302 3.625-.406.313-.042.594-.084.844-.126.25-.062.448-.093.594-.093.291 0 .583.146.875.437.229.23.344.417.344.563 0 .125-.073.208-.219.25-.104.02-.719.062-1.844.125-.625.02-1.396.073-2.313.156-.916.083-1.718.167-2.406.25-.125.02-.302.052-.531.094a3.676 3.676 0 0 1-.656.062Zm7.343 14.188c-.02.02-.072.031-.156.031-.166 0-.406-.115-.718-.344a83.974 83.974 0 0 0-2.782-2.625 21.943 21.943 0 0 1-1.531 1.406 11.53 11.53 0 0 1-.875.563c-.604.354-1.188.573-1.75.656h-.188c-.187 0-.302-.02-.343-.062-.021-.021.021-.063.125-.125a2.84 2.84 0 0 0 .281-.156c.125-.063.479-.292 1.063-.688.291-.208.708-.563 1.25-1.063.541-.5.937-.906 1.187-1.218l-1.281-1a38.492 38.492 0 0 0-.75-.531 5.102 5.102 0 0 0-.532-.407l-.031-.094c0-.124.104-.187.313-.187.25 0 .656.156 1.218.469L163.906 78c.354-.458.709-.958 1.063-1.5.375-.563.573-.896.593-1 .021-.063.011-.115-.031-.156-.021-.063-.062-.094-.125-.094h-.625l-1.125.094a15.55 15.55 0 0 0-1.687.219c-.063.02-.167.052-.313.093a1.402 1.402 0 0 1-.375.063c-.041 0-.219-.115-.531-.344-.292-.25-.448-.406-.469-.469-.021-.02-.031-.052-.031-.094 0-.104.115-.145.344-.124h.437c.584 0 1.427-.053 2.531-.157l1.063-.094.969-.124c.312-.084.489-.126.531-.126h.063c.104 0 .197.032.281.094a.786.786 0 0 1 .187.188.953.953 0 0 0 .094.125l.188.187a.495.495 0 0 1 .187.25.383.383 0 0 1 .063.219c0 .188-.073.323-.219.406-.104.042-.292.26-.563.656-.458.73-1.01 1.51-1.656 2.344.354.23.812.563 1.375 1 .25.167.656.448 1.219.844.25.188.437.438.562.75.084.333.125.583.125.75-.021.167-.093.281-.219.344Zm5.75-13.625c.25 0 .376.114.376.344 0 .124-.115.302-.344.53-.625.772-1.865 2.24-3.719 4.407-.146.188-.281.281-.406.281-.104 0-.334-.156-.688-.469-.291-.25-.437-.458-.437-.624 0-.188.156-.365.468-.532.48-.27 1.198-.812 2.157-1.625.958-.854 1.666-1.531 2.125-2.031.187-.188.344-.281.468-.281Zm-18.25 17.969c-2.395 0-5.291-.282-8.687-.844a259.91 259.91 0 0 1-10.844-2.063c-1.208-.25-2.177-.375-2.906-.375-1.021 0-2.094.188-3.219.563a1.605 1.605 0 0 1-.5.094c-.521 0-.781-.448-.781-1.344 0-.167.052-.292.156-.375.104-.104.313-.188.625-.25.313-.084.813-.177 1.5-.281 1.417-1.292 2.625-2.563 3.625-3.813a.545.545 0 0 0 .063-.156c0-.125-.229-.365-.688-.719-.437-.375-.968-.77-1.594-1.188-.541-.354-.812-.76-.812-1.218 0-.354.177-.802.531-1.344l2-2.906-2.875.375-.656.062c-.438 0-.802-.166-1.094-.5-.291-.333-.479-.666-.562-1a.43.43 0 0 1-.032-.187c0-.146.063-.219.188-.219l.188.031c.312.063.624.094.937.094.208 0 .365-.01.469-.031l4.656-.5.312-.031c.063 0 .198.052.407.156.208.083.396.208.562.375.167.146.25.312.25.5 0 .187-.083.364-.25.531-.166.146-.271.25-.312.313-.042.062-.531.708-1.469 1.937-.938 1.208-1.406 1.896-1.406 2.063 0 .083.052.156.156.218.688.438 1.49 1.084 2.406 1.938.396.354.594.77.594 1.25 0 .437-.188.864-.562 1.281-1.23 1.313-2.053 2.167-2.469 2.563.791.02 1.739.135 2.843.343 8.917 1.771 15.636 2.656 20.157 2.656h.156c.479 0 .719.094.719.282 0 .062-.073.24-.219.531a2.878 2.878 0 0 1-.531.813c-.229.25-.5.374-.813.374h-.219Zm-25.031-25.313c0-.167.136-.354.407-.563.27-.208.489-.312.656-.312.208 0 .698.365 1.468 1.094.792.729 1.532 1.51 2.219 2.343.709.813 1.063 1.323 1.063 1.532 0 .208-.146.458-.438.75-.271.291-.541.437-.812.437-.25 0-.5-.198-.75-.594A28.62 28.62 0 0 0 130.656 62c-.25-.25-.375-.458-.375-.625Zm5.469 19.656c0-.25.135-.573.406-.969a21.393 21.393 0 0 0 2.563-6.156c.562-2.229.906-4.802 1.031-7.719l-1.094.094a5.16 5.16 0 0 1-.625.031c-.354 0-.625-.072-.812-.218-.292-.313-.5-.709-.625-1.188a.345.345 0 0 1-.032-.156c0-.083.053-.125.157-.125h.062c.167 0 .396.02.688.063.291.041.521.062.687.062h.282l4.531-.313c.375-.02.802-.124 1.281-.312.062-.042.167-.063.312-.063.271 0 .594.157.969.47.396.312.594.562.594.75 0 .103-.063.197-.187.28a1.097 1.097 0 0 1-.5.157l-3.876.344c-.083 1.166-.166 2.03-.25 2.593l2.376-.125h.25c.333 0 .604.073.812.219.354.313.531.594.531.844 0 .083-.021.198-.062.344a3.255 3.255 0 0 0-.094.437c-.125 3.25-.417 6.24-.875 8.969-.188 1.062-.5 1.781-.938 2.156-.437.375-.802.563-1.093.563-.604 0-1.469-.907-2.594-2.72-.187-.29-.281-.51-.281-.656 0-.145.073-.218.218-.218.146 0 .365.114.657.344.625.5 1.166.854 1.625 1.062.021.02.062.031.125.031.125 0 .208-.052.25-.156.375-1.438.635-2.917.781-4.438.167-1.52.292-3.25.375-5.187l-2.25.094c-.292 2.229-.771 4.177-1.437 5.844-.646 1.645-1.594 3.177-2.844 4.593-.396.417-.688.625-.875.625-.146 0-.219-.083-.219-.25Zm3.156-20.875c0-.187.094-.385.282-.593.208-.23.406-.344.593-.344.167 0 .604.24 1.313.718.729.459 1.406.948 2.031 1.47.625.52.937.885.937 1.093 0 .167-.114.406-.343.719-.229.291-.459.437-.688.437a.629.629 0 0 1-.343-.125 2.748 2.748 0 0 0-.282-.25 1.721 1.721 0 0 0-.156-.187 10.89 10.89 0 0 0-1.156-1.063c-.375-.312-.74-.583-1.094-.812-.333-.25-.562-.417-.688-.5-.27-.209-.406-.396-.406-.563Zm6.5 8.125c0-.146.084-.406.25-.781a23.36 23.36 0 0 0 1.438-3.313c.416-1.166.729-2.187.937-3.062.229-.896.344-1.427.344-1.594 0-.229-.042-.437-.125-.625a.433.433 0 0 1-.031-.187c0-.167.093-.25.281-.25.146 0 .375.052.688.156.312.104.583.25.812.438.25.187.375.395.375.624 0 .084-.01.146-.031.188a33.15 33.15 0 0 1-1.094 3.063l3.625-.376c.063 0 .208-.01.437-.03.23-.022.49-.084.782-.188a1.02 1.02 0 0 1 .25-.063c.25 0 .552.157.906.469.354.313.531.563.531.75 0 .27-.187.427-.562.469l-6.657.5c-.291.562-.677 1.24-1.156 2.031-.021.02-.01.031.032.031a.274.274 0 0 1 .124-.031h.094c.25.083.532.125.844.125l.469-.031 4.156-.344h.187c.188 0 .448.073.782.219.354.146.531.344.531.594 0 .208-.094.406-.281.593-.167.167-.261.271-.282.313a19.256 19.256 0 0 1-2.75 3.281c.271.625.48 1.292.626 2l1.468-.094c.5-.02.959-.094 1.375-.219.125-.041.198-.062.219-.062.208 0 .49.146.844.438.354.27.531.53.531.78 0 .272-.208.428-.625.47l-3.562.218c.187 1.146.281 2.375.281 3.688 0 1.687-.177 2.906-.531 3.656-.334.75-.782 1.125-1.344 1.125-.375 0-.844-.23-1.406-.688a9.82 9.82 0 0 1-1.5-1.593c-.438-.584-.657-.99-.657-1.219 0-.125.063-.188.188-.188.187 0 .469.126.843.376 1.126.75 1.803 1.124 2.032 1.124.187 0 .291-.093.312-.28.209-1.042.313-2.147.313-3.313 0-.917-.063-1.781-.188-2.594l-2.437.156-.532.031c-.583 0-1.01-.145-1.281-.437a2.523 2.523 0 0 1-.5-1l-.031-.125c0-.104.062-.156.188-.156l.156.031c.458.104.885.156 1.281.156h.281l2.532-.187a11.517 11.517 0 0 0-1.126-2.688.741.741 0 0 1-.093-.312c0-.167.135-.334.406-.5.292-.188.531-.281.719-.281.208 0 .385.124.531.374a13.21 13.21 0 0 0 1.594-2.187l-2.75.313-.75.062c-.313 0-.584-.083-.813-.25-.208-.167-.396-.531-.562-1.094a.43.43 0 0 1-.032-.187c-.312.52-.635.979-.968 1.375-.334.375-.584.562-.75.562-.125 0-.188-.083-.188-.25Zm69.625 2.938c-.312 0-.541-.167-.687-.5l-.282-.625a46.38 46.38 0 0 1-1.968.469l-2.032.5c-.416.104-.677.156-.781.156a.692.692 0 0 1-.312-.063l-.157-.156a1.675 1.675 0 0 1-.093-.156c-.167-.292-.24-.49-.219-.594l.219-.344c.541-.75 1.041-1.823 1.5-3.219l-.625.094-.813.094c-.062.02-.198.063-.406.125-.187.042-.333.031-.437-.031-.23-.146-.532-.406-.907-.781-.083-.084-.125-.146-.125-.188 0-.125.229-.188.688-.188h1.062a40.719 40.719 0 0 0 1.938-.156c.125-.312.26-.708.406-1.187.146-.48.25-.865.312-1.156v-.376c.021-.187.063-.302.126-.343h.031c.083 0 .198.041.343.125.146.083.282.187.407.312.396.396.51.709.343.938-.083.02-.26.364-.531 1.031-.021.042-.093.23-.219.563l1.813-.22a7.517 7.517 0 0 0 1.094-.156c.354-.104.635-.156.843-.156.167 0 .303.063.407.188l.219.219c.062.062.135.187.218.374.084.146.115.25.094.313-.083.125-.229.188-.438.188-.687-.042-1.51-.021-2.468.062a10.58 10.58 0 0 0-.938.125l-1.218.125-.282.844-.344.75c-.104.25-.218.5-.343.75-.125.25-.219.458-.281.625a.43.43 0 0 0-.032.187c0 .104.063.156.188.156.166 0 .739-.093 1.718-.28l1.157-.188.531-.125c-.188-.521-.333-.854-.438-1a3.04 3.04 0 0 1-.187-.281l.187-.188c.813.52 1.469 1.052 1.969 1.594.146.187.24.364.281.531.063.167.084.354.063.563a.874.874 0 0 1-.219.437c-.041.104-.166.177-.375.219Zm-3 11.875c-.146 0-.25-.042-.312-.125a1.953 1.953 0 0 0-.125-.156c-.209-.292-.302-.573-.282-.844.021-.167.053-.615.094-1.344l.032-1.5c-.021-.23-.042-.365-.063-.406-.021-.063-.115-.188-.281-.375a15.863 15.863 0 0 0-1.156-1.281c-.5-.5-.823-.834-.969-1l-.938-.938c-.062-.063-.093-.125-.093-.188 0-.104.062-.187.187-.25a.673.673 0 0 1 .437-.093c.417.041.688.094.813.156.146.042.281.167.406.375s.302.458.531.75c.25.27.438.48.563.625.521.625.885 1.042 1.094 1.25.375-.438.843-1.063 1.406-1.875.458-.583.729-1.063.813-1.438.083-.27.208-.406.374-.406.084 0 .209.052.376.156.541.334.812.605.812.813 0 .125-.135.281-.406.469-.375.27-.688.573-.938.906l-.625.781c-.416.5-.729.896-.937 1.188-.104.187-.156.458-.156.812V82.312c.02.146-.063.313-.25.5-.167.188-.303.282-.407.282Zm5.531-11.875c.105 0 .261.073.469.219-.021.041.021.124.125.25l.219.218c.104.104.208.23.313.375.124.146.26.302.406.469.375.396 1.239 1.427 2.594 3.094.229.333.343.531.343.594 0 .208-.125.312-.375.312-.146 0-.302-.104-.468-.313-.396-.416-1.105-1.072-2.126-1.968-.791-.73-1.51-1.292-2.156-1.688-.312-.146-.468-.312-.468-.5 0-.146.156-.354.468-.625.292-.291.511-.437.656-.437Zm-36.874-1.563.031.563v.125c0 .375-.146.562-.438.562-.25 0-.552-.094-.906-.281-.354-.188-.531-.5-.531-.938v-.656c0-.437-.011-.77-.032-1l-.406-4.75c-.062-.625-.218-1.146-.468-1.562-.146-.25-.219-.438-.219-.563 0-.166.125-.25.375-.25.354 0 1.041.219 2.062.657l5.813-.376h.312c.229 0 .511.084.844.25.354.167.531.417.531.75a.771.771 0 0 1-.094.344c-.062.125-.104.23-.124.313l-.626 5.031c.48.542.719.927.719 1.156 0 .125-.073.209-.219.25a3.444 3.444 0 0 1-.656.094l-2.625.125-.031 3.938.906-.094a6.102 6.102 0 0 0 1-.188.652.652 0 0 1 .25-.031c.313 0 .625.156.938.469.312.312.468.562.468.75 0 .229-.197.364-.593.406l-2.969.156-.062 6.313c1.5-.521 2.562-.875 3.187-1.063.625-.208 1-.312 1.125-.312.188 0 .281.052.281.156 0 .27-.791.813-2.375 1.625a68.527 68.527 0 0 1-5.094 2.344c-1.812.75-2.906 1.125-3.281 1.125a1.17 1.17 0 0 1-.687-.219c-.479-.27-.844-.708-1.094-1.313-.062-.104-.094-.177-.094-.218 0-.125.125-.188.375-.188h.219c.479 0 .969-.062 1.469-.187.5-.146.76-.219.781-.219l-.156-8.781c0-.438-.125-.865-.375-1.281-.104-.167-.157-.303-.157-.407 0-.166.126-.25.376-.25.291 0 .677.094 1.156.281.479.167.718.438.718.813l.063 9.188.719-.188c.5-.125.864-.23 1.094-.313l.062-12.218-1.562.062Zm-.126-1.469 4.532-.218.468-5.219-5.406.313.406 5.124Zm7 4.47c0-.21.167-.49.5-.844 1.75-1.876 3.105-4.167 4.063-6.876l-1.281.126c-.459.041-.74.062-.844.062-.396 0-.719-.104-.969-.313a2.508 2.508 0 0 1-.562-.718c-.104-.25-.157-.427-.157-.531 0-.105.053-.157.157-.157l.156.032c.313.083.635.124.969.124l.531-.03 2.531-.188c.104-.021.24-.032.406-.032.271 0 .553.136.844.407.292.25.438.51.438.781a.87.87 0 0 1-.188.531 3.04 3.04 0 0 0-.187.281c-.688 1.563-1.469 2.917-2.344 4.063-.854 1.125-1.646 1.99-2.375 2.594-.729.583-1.229.875-1.5.875-.125 0-.188-.063-.188-.188Zm1.969 1.937c0-.125.073-.188.219-.188.229 0 .875.198 1.938.594l8.843-.375h.157c.374 0 .677.083.906.25.229.146.385.313.468.5.105.188.157.302.157.344a.73.73 0 0 1-.094.312.73.73 0 0 0-.094.313l-.625 7.156c.521.646.782 1.094.782 1.344 0 .146-.063.229-.188.25-.125.041-.333.073-.625.094l-9.344.25.031.812v.094c0 .416-.187.625-.562.625a3.953 3.953 0 0 1-.5-.156 1.81 1.81 0 0 1-.656-.344c-.188-.146-.282-.323-.282-.531 0-.126.011-.23.032-.313.062-.5.094-.99.094-1.469v-.375l-.282-7.062c-.041-.73-.125-1.271-.25-1.625-.083-.292-.125-.459-.125-.5Zm2.25 4.656 8.157-.313.156-2.593-8.406.281.093 2.625Zm.188 4.438 7.687-.157.188-3-8 .313.125 2.844Zm-.031-12.157c0-.104.083-.156.25-.156.208 0 .489.073.843.219.854.312 1.657.562 2.407.75l-.032-12.219c0-.5-.135-.917-.406-1.25-.125-.125-.188-.23-.188-.313 0-.124.115-.187.344-.187.313 0 .698.094 1.156.281.376.125.615.25.719.375a.709.709 0 0 1 .157.469v4.125c.416.625.864 1.219 1.343 1.781.792-.708 1.448-1.385 1.969-2.031.521-.646.781-1.156.781-1.531.042-.292.136-.438.281-.438.23 0 .542.23.938.688.396.437.594.76.594.968 0 .23-.365.688-1.094 1.376a22.92 22.92 0 0 1-2.531 2.093 17.227 17.227 0 0 0 2.593 2.344 24.438 24.438 0 0 0 3.219 1.969c.271.125.407.27.407.437 0 .188-.188.459-.563.813-.354.333-.604.5-.75.5-.167 0-.667-.302-1.5-.906-.833-.605-1.771-1.407-2.813-2.407-1.02-1-1.968-2.083-2.843-3.25v5.938c0 .25.01.458.031.625.021.146.031.27.031.375a.971.971 0 0 1-.281.719 2.131 2.131 0 0 1-.625.437c-.229.083-.375.125-.437.125-.188 0-.626-.188-1.313-.563a14.902 14.902 0 0 1-1.844-1.218c-.562-.438-.843-.75-.843-.938Zm70.093-3.281a1.11 1.11 0 0 1-.812-.344 23.934 23.934 0 0 0-2.094-2.031c-.792-.667-1.49-1.167-2.094-1.5-.291-.167-.437-.427-.437-.781 0-.063.073-.146.218-.25.188-.125.49-.396.907-.813l1.125-1.093c.5-.521.916-.99 1.25-1.407.354-.416.552-.708.594-.875.02-.041.041-.125.062-.25.042-.146.104-.218.188-.218.104 0 .239.052.406.156.187.104.344.208.468.312.313.292.469.542.469.75-.021.063-.104.136-.25.219a5.052 5.052 0 0 0-.343.188c-.105.083-.48.416-1.126 1l-2.031 1.75c-.354.291-.531.52-.531.687 0 .083.167.219.5.406.396.25 1.167.76 2.312 1.531.438.292.855.615 1.25.97.334.333.5.676.5 1.03a.56.56 0 0 1-.218.438.426.426 0 0 1-.313.125Zm-5.562 5.219c-.229 0-.511-.177-.844-.531-.25-.25-.375-.438-.375-.563 0-.063.042-.094.125-.094.083-.02.187-.031.313-.031l.687-.031c.396 0 .656-.01.781-.031.396 0 .729-.01 1-.032 1.792-.166 3-.302 3.625-.406.313-.042.594-.083.844-.125.25-.063.448-.094.594-.094.291 0 .583.146.875.438.229.229.344.416.344.562 0 .125-.073.209-.219.25-.104.021-.719.063-1.844.125-.625.021-1.396.073-2.313.156-.916.084-1.718.167-2.406.25-.125.021-.302.053-.531.094a3.668 3.668 0 0 1-.656.063Zm-.188 12.469c-.312 0-.552-.084-.719-.25-.187-.188-.281-.355-.281-.5 0-.146.084-.303.25-.47.021-.02.136-.187.344-.5.458-.728.979-1.656 1.563-2.78.604-1.146.979-1.928 1.124-2.344.126-.396.24-.74.344-1.031.125-.292.229-.438.313-.438.146 0 .271.052.375.156.104.084.208.209.312.375.125.146.219.25.282.313.145.166.218.323.218.469a.497.497 0 0 1-.125.312 1.598 1.598 0 0 0-.156.219l-1.375 2.312a63.849 63.849 0 0 1-1.406 2.406.497.497 0 0 0-.125.313c0 .083.093.125.281.125.396 0 1.135-.052 2.219-.156 1.083-.084 1.812-.156 2.187-.219.542-.063.917-.125 1.125-.188.229-.062.563.094 1 .47.521.437.636.718.344.843-.167.083-.49.125-.969.125h-1.25c-.271 0-.698.02-1.281.063-.354 0-.75.01-1.187.03-.438.022-.803.042-1.094.063-.334.021-.979.084-1.938.188l-.375.094Zm-30.406-15c-.375 0-.687-.105-.937-.313a2.233 2.233 0 0 1-.5-.719c-.084-.25-.126-.427-.126-.531 0-.146.063-.219.188-.219.062 0 .115.01.156.031a4.42 4.42 0 0 0 1.125.126h.344l11.437-.532-.031-1.969-4.469.25c-.208.021-.468.032-.781.032-.396 0-.656-.052-.781-.156a3.217 3.217 0 0 1-.688-.72c-.166-.29-.25-.5-.25-.624 0-.104.073-.156.219-.156h.157c.374.062.781.093 1.218.093h.375l5-.281-.031-1.781-6.156.312c-.25.021-.563.032-.938.032-.291 0-.51-.042-.656-.126-.188-.124-.385-.343-.594-.656-.187-.312-.281-.562-.281-.75 0-.146.073-.218.219-.218a.43.43 0 0 1 .187.03 4.42 4.42 0 0 0 1.125.126h.375l6.719-.344-.031-1.844a2.46 2.46 0 0 0-.344-1.25 1.299 1.299 0 0 1-.063-.218c0-.146.146-.22.438-.22.229 0 .51.042.844.126.416.083.687.198.812.343.146.126.219.323.219.594v2.344l6.094-.313c.479-.041.864-.114 1.156-.218a.434.434 0 0 1 .187-.032c.209 0 .5.146.876.438.374.292.562.583.562.875 0 .125-.052.23-.156.313-.104.062-.25.104-.438.124l-8.281.438-.031 1.781 4.812-.281c.375-.042.75-.104 1.125-.188l.188-.03c.291 0 .614.176.969.53.354.355.531.615.531.782 0 .208-.209.333-.625.375l-7 .375v1.969l10.968-.532c.292-.02.688-.094 1.188-.219l.156-.03c.209 0 .5.156.875.468.396.313.594.604.594.875 0 .25-.208.396-.625.438l-25.844 1.218-.781.031Zm2.437 16.093c0-.25.094-.49.282-.719.791-1.041 1.416-2.03 1.875-2.968.479-.938.833-2.042 1.062-3.313.25-1.291.375-2.864.375-4.719 0-.791-.021-1.354-.062-1.687-.021-.333-.084-.604-.188-.813-.125-.166-.187-.312-.187-.437s.083-.188.25-.188c.479 0 1.052.136 1.719.407L244.844 72h.281c.396 0 .729.125 1 .375.271.23.406.49.406.781 0 .084-.021.188-.062.313a1.325 1.325 0 0 0-.031.25l.124 11.312.032.781c0 .376-.125.698-.375.97-.25.29-.542.437-.875.437-.313 0-.906-.26-1.782-.781a18.593 18.593 0 0 1-2.437-1.657c-.75-.583-1.125-1.01-1.125-1.281 0-.125.083-.188.25-.188.208 0 .51.094.906.282 1.084.52 2.261.958 3.532 1.312l-.032-3.875-11.625.5a11.533 11.533 0 0 1-1.343 2.844c-.542.875-1.115 1.563-1.719 2.063-.584.5-1.063.77-1.438.812-.146 0-.219-.073-.219-.219Zm16.344-7.594-.031-2.156-11 .5c-.083 1-.167 1.719-.25 2.156l11.281-.5Zm-.031-3.78-.031-1.97-10.844.532c0 .854-.01 1.51-.031 1.969l10.906-.532Z"/></svg>