<svg xmlns="http://www.w3.org/2000/svg" width="350" height="88" fill="none"><path fill="#333" d="M137.91 14.281a1.25 1.25 0 0 1-.914-.386 26.715 26.715 0 0 0-2.355-2.286c-.891-.75-1.676-1.312-2.356-1.687-.328-.188-.492-.48-.492-.879 0-.07.082-.164.246-.281.211-.14.551-.446 1.02-.914l1.265-1.23a23.702 23.702 0 0 0 1.406-1.583c.399-.469.622-.797.668-.984a1.16 1.16 0 0 0 .071-.281c.047-.165.117-.247.211-.247.117 0 .269.059.457.176.211.117.386.235.527.352.352.328.527.61.527.844-.023.07-.117.152-.281.246-.14.07-.269.14-.387.21-.117.094-.539.47-1.265 1.126l-2.285 1.968c-.399.328-.598.586-.598.774 0 .094.187.246.563.457.445.281 1.312.855 2.601 1.722.492.329.961.692 1.406 1.09.375.375.563.762.563 1.16 0 .188-.082.352-.246.493a.478.478 0 0 1-.352.14Zm-6.258 5.871c-.257 0-.574-.199-.949-.597-.281-.282-.422-.492-.422-.633 0-.07.047-.106.141-.106a1.48 1.48 0 0 1 .351-.035l.774-.035c.445 0 .738-.012.879-.035.445 0 .82-.012 1.125-.035 2.015-.188 3.375-.34 4.078-.457a29.8 29.8 0 0 0 .949-.14c.281-.071.504-.106.668-.106.328 0 .656.164.984.492.258.258.387.469.387.633 0 .14-.082.234-.246.28-.117.024-.809.071-2.074.142-.703.023-1.57.082-2.602.175a92.491 92.491 0 0 0-2.707.282c-.14.023-.34.058-.597.105-.258.047-.504.07-.739.07Zm-.211 14.028c-.351 0-.621-.094-.808-.282-.211-.21-.317-.398-.317-.562 0-.164.094-.34.282-.527.023-.024.152-.211.386-.563.516-.82 1.102-1.863 1.758-3.129.68-1.289 1.102-2.168 1.266-2.637.14-.445.269-.832.387-1.16.14-.328.257-.492.351-.492.164 0 .305.059.422.176.117.094.234.234.352.422.14.164.246.281.316.351.164.188.246.364.246.528a.562.562 0 0 1-.141.351c-.093.117-.152.2-.175.246l-1.547 2.602a72.802 72.802 0 0 1-1.582 2.707.562.562 0 0 0-.141.352c0 .093.106.14.316.14.446 0 1.278-.059 2.497-.176 1.218-.093 2.039-.175 2.461-.246.609-.07 1.031-.14 1.265-.21.258-.071.633.105 1.125.527.586.492.715.808.387.949-.188.094-.551.14-1.09.14h-1.406c-.305 0-.785.024-1.442.07-.398 0-.843.013-1.336.036-.492.023-.902.047-1.23.07-.375.024-1.102.094-2.18.211l-.422.106ZM105.672 17.2c-.399 0-.668-.071-.809-.212a2.932 2.932 0 0 1-.633-.914c-.14-.328-.21-.562-.21-.703 0-.14.058-.21.175-.21a.49.49 0 0 1 .211.034c.586.14 1.125.188 1.617.14l8.297-.42-.035-2.25-3.586.21-.703.035c-.445 0-.762-.082-.949-.246a2.768 2.768 0 0 1-.527-.527 2.89 2.89 0 0 1-.352-.633l-.07-.281c0-.141.07-.211.211-.211.093 0 .164.011.211.035.468.117.878.176 1.23.176l.492-.036 4.043-.21V8.902l-5.519.282-.633.035c-.492 0-.891-.13-1.195-.387-.282-.281-.481-.562-.598-.844-.094-.304-.141-.504-.141-.597 0-.118.071-.176.211-.176l.176.035a7.286 7.286 0 0 0 1.547.176h.176l5.941-.281V5.633c0-.727-.141-1.348-.422-1.863a.632.632 0 0 1-.105-.317c0-.164.152-.246.457-.246.468 0 .949.082 1.441.246.516.164.774.492.774.985v2.601l4.886-.246c.281-.023.727-.117 1.336-.281l.176-.035c.234 0 .586.164 1.055.492.468.304.703.61.703.914 0 .304-.246.48-.739.527l-7.417.387-.036 2.074 4.043-.21a4.049 4.049 0 0 0 1.231-.282.49.49 0 0 1 .211-.035c.234 0 .551.164.949.492.422.328.633.633.633.914 0 .258-.235.41-.703.457l-6.364.352v2.285l8.262-.422a3.664 3.664 0 0 0 1.301-.281.605.605 0 0 1 .246-.036c.305 0 .656.188 1.055.563.398.352.597.68.597.984 0 .282-.246.446-.738.493l-20.531 1.02-.879.034Zm-9.844-2.813c0-.211.106-.457.316-.739.212-.28.41-.421.598-.421.258 0 .973.398 2.145 1.195a59.16 59.16 0 0 1 3.34 2.39c.375.282.562.54.562.774 0 .21-.141.504-.422.879-.258.375-.504.562-.738.562-.164 0-.41-.14-.738-.422a40.916 40.916 0 0 0-4.57-3.55c-.329-.211-.493-.434-.493-.668ZM96.04 32c0-.117.094-.234.281-.352a5.387 5.387 0 0 0 1.301-1.23c1.898-2.578 3.856-5.637 5.871-9.176.375-.656.715-.984 1.02-.984.187 0 .281.129.281.387 0 .445-.516 1.804-1.547 4.078a80.984 80.984 0 0 1-3.586 6.89 9.463 9.463 0 0 1-.387.633c-.187.352-.363.586-.527.703a.797.797 0 0 1-.527.211h-.106c-.351 0-.691-.082-1.02-.246a3.13 3.13 0 0 1-.773-.492c-.187-.188-.28-.328-.28-.422Zm2.496-25.383c0-.187.117-.433.352-.738.21-.281.422-.422.632-.422.235 0 .821.363 1.758 1.09a25.052 25.052 0 0 1 2.672 2.25c.844.773 1.266 1.277 1.266 1.512 0 .328-.164.644-.492.949-.328.281-.575.422-.739.422-.187 0-.422-.153-.703-.457-1.57-1.664-3-2.989-4.289-3.973-.305-.234-.457-.445-.457-.633Zm6.68 28.266c0-.305.094-.574.281-.809.797-1.218 1.418-2.343 1.863-3.375.446-1.031.786-2.238 1.02-3.62.234-1.407.351-3.153.351-5.24 0-.937-.011-1.581-.035-1.933-.023-.351-.093-.633-.211-.843-.14-.235-.211-.41-.211-.528 0-.047.024-.094.071-.14a.432.432 0 0 1 .246-.07c.515 0 1.16.175 1.933.527l10.793-.457c.446-.024.844.07 1.196.28.351.188.527.481.527.88 0 .117-.023.246-.07.386a1.934 1.934 0 0 0-.035.387l.105 12.024c0 .21.012.41.035.597.024.188.035.352.035.492 0 .399-.175.774-.527 1.125-.328.352-.644.528-.949.528-.328 0-.938-.258-1.828-.774a22.764 22.764 0 0 1-2.461-1.687c-.75-.586-1.125-.996-1.125-1.23 0-.141.105-.212.316-.212.141 0 .387.059.738.176 1.289.516 2.497.914 3.622 1.195l-.036-4.359-10.793.352a13.902 13.902 0 0 1-1.336 3.304c-.562.985-1.148 1.758-1.757 2.32-.586.587-1.09.891-1.512.915h-.07c-.118 0-.176-.07-.176-.211Zm15.644-8.578V24.16l-10.195.352c-.023.75-.094 1.465-.211 2.144l10.406-.351Zm-.035-3.973v-2.039l-10.019.422-.035 1.969 10.054-.352Zm73.442-16.453c0 .516-.024 1.008-.071 1.476l-.07 1.97c-.023.538-.094 1.44-.211 2.706-.023.375-.141.668-.352.88-.187.21-.363.316-.527.316-.187-.024-.351-.188-.492-.493a2.034 2.034 0 0 1-.105-.984c.023-.188.093-.96.21-2.32.047-1.453.024-2.426-.07-2.918-.023-.164-.187-.27-.492-.317h-.984l-1.618.14c-.328.024-.82.095-1.476.212-.633.117-1.149.223-1.547.316-.023.797-.012 1.805.035 3.024l.141 2.39a.945.945 0 0 1-.176.563c-.094.164-.211.246-.352.246-.281 0-.504-.188-.668-.563a2.101 2.101 0 0 1-.211-.949l-.035-.597-.07-2.004c0-.586-.023-1.418-.07-2.496 0-.188-.012-.329-.035-.422a1.035 1.035 0 0 1-.036-.176.792.792 0 0 1-.035-.246c0-.188.094-.281.281-.281.141 0 .258.023.352.07l.633.21c.258-.046.48-.081.668-.105.211-.023.363-.047.457-.07 1.078-.164 2.414-.281 4.008-.352.586 0 .996-.058 1.23-.175a.383.383 0 0 1 .141-.07c.093-.048.164-.06.211-.036l.351.106c.094.023.188.07.281.14a.95.95 0 0 1 .247.176c.304.305.457.516.457.633Zm-8.614 14.273c-.257 0-.574-.199-.949-.597-.281-.282-.422-.492-.422-.633 0-.07.047-.106.141-.106a1.48 1.48 0 0 1 .351-.035l.774-.035c.445 0 .738-.012.879-.035.445 0 .82-.012 1.125-.035 2.015-.188 3.375-.34 4.078-.457a29.8 29.8 0 0 0 .949-.14c.281-.071.504-.106.668-.106.328 0 .656.164.984.492.258.258.387.469.387.633 0 .14-.082.234-.246.28-.117.024-.809.071-2.074.142-.703.023-1.57.082-2.602.175a92.491 92.491 0 0 0-2.707.282c-.14.023-.34.058-.597.105-.258.047-.504.07-.739.07Zm-.211 14.028c-.351 0-.621-.094-.808-.282-.211-.21-.317-.398-.317-.562 0-.164.094-.34.282-.527.023-.024.152-.211.386-.563.516-.82 1.102-1.863 1.758-3.129.68-1.289 1.102-2.168 1.266-2.637.14-.445.269-.832.387-1.16.14-.328.257-.492.351-.492.164 0 .305.059.422.176.117.094.234.234.352.422.14.164.246.281.316.351.164.188.246.364.246.528a.562.562 0 0 1-.141.351c-.093.117-.152.2-.175.246l-1.547 2.602a72.802 72.802 0 0 1-1.582 2.707.562.562 0 0 0-.141.352c0 .093.106.14.316.14.446 0 1.278-.059 2.497-.176 1.218-.093 2.039-.175 2.461-.246.609-.07 1.031-.14 1.265-.21.258-.071.633.105 1.125.527.586.492.715.808.387.949-.188.094-.551.14-1.09.14h-1.406c-.305 0-.785.024-1.442.07-.398 0-.843.013-1.336.036-.492.023-.902.047-1.23.07-.375.024-1.102.094-2.18.211l-.422.106Zm14.942-15.504c.281 0 .422.129.422.387 0 .14-.129.34-.387.597-.703.867-2.098 2.52-4.184 4.957-.164.211-.316.317-.457.317-.117 0-.375-.176-.773-.528-.328-.281-.492-.515-.492-.703 0-.21.176-.41.527-.598.539-.304 1.348-.914 2.426-1.828 1.078-.96 1.875-1.722 2.39-2.285.211-.21.387-.316.528-.316Zm-33.047 4.254c-.539 2.718-1.383 4.957-2.531 6.715-1.149 1.757-2.637 3.386-4.465 4.886l-.176.14c-.469.329-.797.493-.984.493-.164 0-.246-.082-.246-.246 0-.234.199-.586.597-1.055 1.735-2.015 3.047-3.972 3.938-5.87.89-1.9 1.5-3.938 1.828-6.118.328-2.18.492-4.887.492-8.121 0-2.672-.035-4.453-.105-5.344-.071-.89-.164-1.465-.282-1.723-.117-.234-.175-.433-.175-.597 0-.188.117-.281.351-.281.445 0 1.301.316 2.567.949l8.296-.598h.317c.351 0 .644.082.879.246.234.164.41.352.527.563.117.21.176.363.176.457 0 .094-.035.222-.106.386-.07.165-.105.282-.105.352l.176 24.223.035 1.195c0 .586-.129 1.043-.387 1.371-.234.328-.492.54-.773.633-.282.117-.492.176-.633.176-.445 0-1.172-.364-2.18-1.09a27.06 27.06 0 0 1-2.812-2.39c-.867-.868-1.301-1.419-1.301-1.653 0-.117.082-.176.246-.176.281 0 .68.14 1.195.422.657.352 1.348.703 2.075 1.055.726.351 1.464.668 2.214.949l-.07-10.371-8.578.422ZM151.621 7.566c0-.14.094-.21.281-.21.328 0 1.055.199 2.18.597l6.856-.562c.093-.024.234-.036.421-.036.446 0 .786.141 1.02.422.258.282.387.528.387.739 0 .117-.036.257-.106.421a5.225 5.225 0 0 0-.105.422l-.598 14.766c.727.727 1.09 1.242 1.09 1.547 0 .164-.082.27-.246.316-.164.024-.446.047-.844.07l-7.312.212.035 2.039v.175c0 .516-.164.774-.492.774-.352 0-.762-.13-1.231-.387-.445-.281-.668-.633-.668-1.055 0-.164.012-.293.035-.386.117-.657.176-1.278.176-1.864v-.351l-.352-15.223a5.767 5.767 0 0 0-.386-1.969 4.503 4.503 0 0 1-.141-.457Zm2.777 8.368 5.696-.317.14-6.258-5.976.563.14 6.012Zm.176 8.402 5.309-.14.176-6.716-5.625.317.14 6.539Zm21.34-3.727-.035-5.168-7.84.457c-.023.657-.117 1.957-.281 3.903l-.106 1.23 8.262-.422Zm-7.84-11.847c.024 1.289.035 3.047.035 5.273l7.77-.492-.035-5.309-7.77.528Zm78.047 5.625c-.164 0-.34-.106-.527-.317a2.15 2.15 0 0 1-.282-.386c-.046-.118-.046-.27 0-.457l.036-.844c.023-.164.035-.563.035-1.195v-1.16l-1.055.492-1.23.527a10.87 10.87 0 0 0-.95.422c-.281.14-.527.21-.738.21a2.17 2.17 0 0 1-.562-.175 4.837 4.837 0 0 1-.493-.246c-.257-.164-.375-.34-.351-.527l.105-.352c0-.188.012-.352.036-.492l.035-2.04V5.95c0-.375-.024-.691-.071-.949-.047-.281-.082-.48-.105-.598 0-.117.035-.199.105-.246.024-.023.082-.035.176-.035.164 0 .481.106.949.316.399.188.563.422.493.704-.047.164-.094.41-.141.738l-.106 4.043c0 .117.012.21.036.281.046.047.093.07.14.07.282 0 .621-.082 1.02-.246.75-.234 1.394-.468 1.933-.703l.774-.316v-2.32c0-.938-.059-1.84-.176-2.708a.792.792 0 0 1-.035-.246c0-.234.094-.351.281-.351.024 0 .152.047.387.14.351.188.609.352.773.493.164.14.258.222.282.246.093.07.14.14.14.21a.34.34 0 0 1-.07.176c-.024.07-.047.13-.07.176l-.106 1.055-.035 3.234.035 3.13c0 .538-.035 1.007-.105 1.405-.118.493-.305.739-.563.739Zm-6.469 5.765c-.257 0-.574-.199-.949-.597-.281-.282-.422-.492-.422-.633 0-.07.047-.106.141-.106a1.48 1.48 0 0 1 .351-.035l.774-.035c.445 0 .738-.012.879-.035.445 0 .82-.012 1.125-.035 2.015-.188 3.375-.34 4.078-.457a29.8 29.8 0 0 0 .949-.14c.281-.071.504-.106.668-.106.328 0 .656.164.984.492.258.258.387.469.387.633 0 .14-.082.234-.246.28-.117.024-.809.071-2.074.142-.703.023-1.57.082-2.602.175a92.491 92.491 0 0 0-2.707.282c-.14.023-.34.058-.597.105-.258.047-.504.07-.739.07Zm4.711 14.52c-.726 0-1.289-.024-1.687-.07a1.68 1.68 0 0 1-.949-.422c-.446-.328-.75-1.043-.915-2.145l-.105-1.125c0-.281-.023-.633-.07-1.055a5.987 5.987 0 0 0-.809.141 3.817 3.817 0 0 1-.246.106.965.965 0 0 1-.211.035.81.81 0 0 1-.457-.14c-.141-.095-.316-.27-.527-.528-.164-.211-.246-.352-.246-.422s.082-.117.246-.14c.164-.024.386-.036.668-.036.398 0 .914-.047 1.547-.14l-.036-.493c0-.937-.058-1.734-.175-2.39l-.036-.246c0-.329.129-.457.387-.387.281.094.539.21.774.351.187.094.316.188.386.282.071.07.094.175.071.316l-.106 1.512v.914l3.094-.317c0-.164.012-.55.035-1.16.024-.633.024-1.043 0-1.23 0-.188-.023-.363-.07-.527a6.529 6.529 0 0 0-.071-.458c0-.187.094-.28.282-.28.187 0 .422.105.703.316.328.21.539.398.633.562.117.164.14.363.07.598a6.4 6.4 0 0 0-.246 1.265c-.047.47-.07.75-.07.844.281-.023.539-.058.773-.105.234-.047.387-.07.457-.07.188-.047.41-.071.668-.071.141.023.34.164.598.422.211.281.316.504.316.668 0 .234-.223.328-.668.281a6.863 6.863 0 0 0-1.195-.105c-.399 0-.738.011-1.02.035-.07.844-.211 1.676-.422 2.496a.953.953 0 0 1-.246.457c-.117.14-.222.21-.316.21-.164 0-.27-.07-.317-.21a3.524 3.524 0 0 1-.035-.598c.047-.61.071-1.37.071-2.285a26.99 26.99 0 0 0-1.477.14 9.357 9.357 0 0 1-1.512.212c-.023.96.024 1.816.141 2.566.07.492.211.832.422 1.02.14.117.305.187.492.21.211.024.422.036.633.036h.422c.726 0 1.406-.035 2.039-.106a1.52 1.52 0 0 0 .492-.14c.164-.07.281-.106.352-.106.21 0 .421.07.632.211.211.14.317.305.317.492 0 .188-.106.328-.317.422-.187.094-.492.176-.914.246-.75.094-1.5.14-2.25.14Zm10.02-15.996c.281 0 .422.129.422.387 0 .14-.129.34-.387.597-.703.867-2.098 2.52-4.184 4.957-.164.211-.316.317-.457.317-.117 0-.375-.176-.773-.528-.328-.281-.492-.515-.492-.703 0-.21.176-.41.527-.598.539-.304 1.348-.914 2.426-1.828 1.078-.96 1.875-1.722 2.39-2.285.211-.21.387-.316.528-.316Zm-44.684 11.496c2.086-.656 3.949-1.371 5.59-2.145a25.586 25.586 0 0 0-1.336-1.687c-.187-.235-.281-.422-.281-.563 0-.258.152-.48.457-.668.305-.21.539-.316.703-.316.188 0 .387.117.598.352a137.853 137.853 0 0 1 3.41 4.148c.937 1.195 1.406 1.922 1.406 2.18 0 .21-.164.457-.492.738-.305.305-.598.457-.879.457-.234 0-.469-.188-.703-.563a96.435 96.435 0 0 0-1.828-2.671l-4.219 2.109c-.469.21-1.207.586-2.215 1.125-.844.445-1.359.668-1.547.668-.14 0-.316-.094-.527-.281a1.65 1.65 0 0 1-.492-.633c-.094-.234-.094-.422 0-.563.14-.257.211-1.289.211-3.093V16.602c0-.563-.024-1.02-.071-1.372a3.587 3.587 0 0 0-.281-1.125 1.37 1.37 0 0 0-.07-.175.305.305 0 0 1-.035-.14c0-.118.082-.177.246-.177.304 0 1.066.258 2.285.774l7.629-.528c.187-.023.398-.035.633-.035.257 0 .562.117.914.352.351.21.527.445.527.703 0 .094-.059.234-.176.422-.094.187-.14.328-.14.422l-.914 6.609c.562.656.843 1.102.843 1.336 0 .117-.07.2-.211.246-.117.047-.304.07-.562.07l-8.508.317.035 5.87Zm-5.765-15.785c0-.235.152-.516.457-.844 1.711-1.898 3.199-3.785 4.464-5.66 1.266-1.875 1.899-3.13 1.899-3.762l-.035-.246V3.77c0-.329.129-.493.386-.493.305 0 .727.211 1.266.633.563.399.844.727.844.985 0 .117-.059.27-.176.457a23.895 23.895 0 0 1-1.16 1.687l4.992-.387a4.872 4.872 0 0 0 1.336-.28c.141-.048.246-.071.316-.071.352 0 .727.199 1.125.597.422.375.633.668.633.88 0 .28-.258.445-.773.492l-6.012.421c.164.047.527.293 1.09.739.586.445 1.113.902 1.582 1.37.469.47.703.798.703.985 0 .211-.141.469-.422.774-.281.28-.527.421-.738.421-.188 0-.41-.152-.668-.457a21.796 21.796 0 0 0-2.426-2.285c-.281-.234-.422-.433-.422-.597 0-.118.059-.27.176-.457.117-.188.27-.34.457-.457l-2.355.175a34.406 34.406 0 0 1-3.727 3.903c-1.359 1.195-2.226 1.793-2.601 1.793-.141 0-.211-.07-.211-.211Zm12.656 3.656.246-2.461-7.242.492v2.32l6.996-.351Zm-.457 4.36.281-2.708-6.785.317v2.636l6.504-.246Zm1.898-9.528c0-.234.153-.516.457-.844 1.149-1.383 2.192-2.941 3.129-4.676.961-1.757 1.442-2.988 1.442-3.69v-.142c0-.351.129-.527.386-.527.164 0 .41.094.739.281.351.164.668.364.949.598.281.234.422.469.422.703 0 .211-.164.586-.493 1.125-.328.54-.503.82-.527.844l6.926-.563a6.483 6.483 0 0 0 1.336-.246c.047-.023.141-.035.281-.035.328 0 .68.188 1.055.563.398.351.597.644.597.879 0 .14-.07.257-.21.351-.118.07-.282.117-.493.14l-7.136.493c.656.422 1.429 1.043 2.32 1.863.891.797 1.336 1.336 1.336 1.617 0 .164-.129.422-.387.774-.258.328-.504.492-.738.492-.188 0-.387-.117-.598-.352-1.148-1.242-2.191-2.226-3.129-2.953-.234-.187-.351-.363-.351-.527 0-.188.176-.469.527-.844l-2.601.176c-.774 1.031-1.711 2.074-2.813 3.129-1.078 1.055-1.805 1.582-2.18 1.582-.164 0-.246-.07-.246-.211Zm3.305.773c0-.14.082-.21.246-.21.352 0 1.148.292 2.391.878l7.066-.597.281-.035c.094 0 .27.046.528.14.281.07.539.2.773.387.258.164.387.387.387.668 0 .094-.035.223-.106.387-.07.164-.105.28-.105.351a88.243 88.243 0 0 1-.492 8.262l-.071.879c-.07.984-.164 1.805-.281 2.46-.117.657-.316 1.173-.598 1.548-.445.609-.925.914-1.441.914s-1.172-.317-1.969-.95a18.576 18.576 0 0 1-2.215-2.074c-.656-.75-.984-1.23-.984-1.441 0-.164.094-.246.281-.246.211 0 .504.117.879.351.867.54 1.594.973 2.18 1.301.586.328 1.008.492 1.266.492.117 0 .199-.082.246-.246.539-3 .867-6.762.984-11.285l-6.609.492c0 3.961.035 10.242.105 18.844 0 .21-.058.363-.176.457a.466.466 0 0 1-.386.176c-.188 0-.411-.07-.668-.211-.446-.188-.762-.363-.95-.528-.187-.164-.281-.351-.281-.562l.035-.246c.141-.773.211-1.64.211-2.602l-.105-14.836c0-.609-.024-1.078-.07-1.406a3.306 3.306 0 0 0-.211-.95c-.094-.28-.141-.468-.141-.562ZM119.406 71.281a.664.664 0 0 1-.406-.312 1.027 1.027 0 0 1-.156-.25 1.228 1.228 0 0 0-.125-.313l-.157-.344-1.968.25-.75.126c-.188.02-.615.093-1.282.218-.27.042-.562.125-.874.25a.806.806 0 0 0-.219.125c-.084.063-.157.094-.219.094H113c-.208 0-.438-.135-.688-.406a1.367 1.367 0 0 0-.25-.25c-.083-.104-.124-.177-.124-.219 0-.167.072-.323.218-.469.313-.312.75-.948 1.313-1.906.208-.292.458-.719.75-1.281a26.94 26.94 0 0 0 .687-1.406c-.021.062.094-.22.344-.844.188-.521.281-.854.281-1 .042-.23.115-.344.219-.344.083 0 .26.115.531.344.229.187.407.375.531.562.146.188.219.334.219.438a.39.39 0 0 1-.062.219 1.081 1.081 0 0 1-.219.218 3.59 3.59 0 0 0-.312.375c-.271.354-.605.896-1 1.625l-.626 1.094-.468.781-.344.594-.219.344a.132.132 0 0 0 0 .125c.021.02.052.031.094.031l1.594-.188 2.875-.312-.25-.656a21.604 21.604 0 0 0-.375-.969c-.021-.02-.031-.063-.031-.125 0-.063.031-.094.093-.094.104 0 .229.063.375.188.167.104.417.323.75.656.25.208.459.448.625.719.188.27.302.427.344.469.187.27.281.53.281.78 0 .126-.041.334-.125.626-.062.166-.146.281-.25.344-.083.062-.208.093-.375.093Zm-.218 9.531c.041.084.114.209.218.376.104.166.156.364.156.593a.593.593 0 0 1-.25.5.83.83 0 0 1-.562.219c-.188 0-.344-.188-.469-.563a6.13 6.13 0 0 0-.156-.343 2.141 2.141 0 0 0-.063-.25c-.27.083-.624.156-1.062.219-.438.062-.75.114-.938.156-1 .187-1.687.323-2.062.406a6.256 6.256 0 0 0-.469.156c-.166.042-.26.073-.281.094a.993.993 0 0 1-.281.063c-.167 0-.323-.073-.469-.22a1.699 1.699 0 0 1-.562-.75c-.021-.02-.032-.051-.032-.093s.052-.094.156-.156a2.42 2.42 0 0 1 .282-.125c.271-.146.75-.584 1.437-1.313l.844-.812-1.844-1c-.208-.063-.343-.136-.406-.219-.063-.083-.094-.208-.094-.375 0-.125.021-.208.063-.25.062-.063.187-.156.375-.281.187-.125.375-.292.562-.5.104-.125.24-.26.407-.406.166-.146.322-.303.468-.47.625-.728 1.021-1.301 1.188-1.718.104-.208.187-.313.25-.313.041 0 .125.042.25.126.396.291.635.562.718.812v.094c0 .104-.052.187-.156.25a1.173 1.173 0 0 0-.218.156c-.063.042-.376.344-.938.906l-.562.563-.532.531c-.25.23-.375.365-.375.406 0 .063.031.115.094.156a.717.717 0 0 1 .187.126l1.313.624c.813-.812 1.281-1.291 1.406-1.437.542-.625.844-1.02.907-1.188a.737.737 0 0 0 .093-.156c.042-.083.084-.125.125-.125.063 0 .125.031.188.094.333.313.573.604.718.875a.545.545 0 0 1 .063.156c0 .042-.052.104-.156.188l-.25.187c-.729.604-1.584 1.396-2.563 2.375L114 80.937c-.042.042-.062.084-.062.126 0 .041.02.072.062.093.042.021.104.021.188 0l3.656-.625a14.129 14.129 0 0 0-.375-1.25v-.062c0-.063.031-.094.093-.094.084 0 .209.063.376.188.333.291.75.791 1.25 1.5Zm6.5-10.03c.062 0 .124.03.187.093a.302.302 0 0 1 .125.188v.062c0 .146-.115.427-.344.844l-2.25 3.906c-.166.354-.385.531-.656.531s-.5-.166-.688-.5c-.187-.27-.416-.677-.687-1.219a3.86 3.86 0 0 1-.313-.562 10.16 10.16 0 0 0-.187-.406c-.229-.396-.344-.677-.344-.844a.21.21 0 0 1 .094-.188c.063-.062.125-.093.187-.093.23 0 .438.125.626.375.145.146.26.302.343.469l.344.468.625.719.281-.438c.292-.5.979-1.49 2.063-2.968.229-.292.427-.438.594-.438ZM85.75 76c-1.25.77-2.156 1.302-2.719 1.594-.562.291-.969.437-1.219.437a.871.871 0 0 1-.374-.062c-.667-.334-1.157-.813-1.47-1.438 0-.125.115-.198.344-.219.376-.041.917-.197 1.626-.468.729-.292 2.01-.875 3.843-1.75l.031-5.594-2.093.188-.563.062c-.166.02-.333.031-.5.031H82.5a1.25 1.25 0 0 1-.938-.562 3.912 3.912 0 0 1-.5-.969.436.436 0 0 1-.03-.188c0-.104.051-.156.156-.156l.124.031c.292.063.605.094.938.094.333 0 .615-.01.844-.031l2.719-.188.03-5.374c0-.355-.04-.646-.124-.876-.063-.25-.198-.53-.406-.843a.535.535 0 0 1-.094-.25c0-.146.125-.219.375-.219s.625.094 1.125.281c.396.146.666.302.812.469.146.146.219.344.219.594l-.031 6.093L89 66.594c.208-.021.406-.063.594-.125.187-.063.385-.136.594-.219a.503.503 0 0 1 .218-.063c.25 0 .594.178 1.031.532.438.333.657.635.657.906 0 .25-.25.396-.75.438l-3.625.28-.031 4.813c.75-.396 1.635-.885 2.656-1.469.229-.145.437-.218.625-.218.166 0 .25.073.25.219 0 .437-1.177 1.458-3.531 3.062l-.063 8.688c0 .208.01.406.031.593.021.209.031.396.031.563 0 .458-.114.823-.343 1.094-.209.27-.438.458-.688.562-.25.125-.448.188-.594.188-.395 0-.947-.292-1.656-.876a14.73 14.73 0 0 1-1.906-1.874c-.563-.709-.844-1.209-.844-1.5 0-.105.052-.157.156-.157.167 0 .448.136.844.406A14.109 14.109 0 0 0 85.72 84l.031-8Zm4.813-1.156c0-.104.052-.26.156-.469.729-1.458 1.312-3.125 1.75-5 .041-.167.083-.281.125-.344.062-.062.156-.094.281-.094.146 0 .323.032.531.094.271.042.459.115.563.219a.392.392 0 0 1 .187.344c0 .166-.062.469-.187.906l13.343-.75h.407c.416 0 .791.125 1.125.375.333.25.5.51.5.781 0 .167-.084.334-.25.5l-.313.313a43.46 43.46 0 0 1-1.656 1.906c-.5.542-.917.813-1.25.813-.146 0-.219-.084-.219-.25 0-.188.094-.438.282-.75a17.53 17.53 0 0 0 .937-2l-13.344.656c-.312 1.104-.562 1.916-.75 2.437-.187.5-.344.823-.469.969a.504.504 0 0 1-.406.188c-.208 0-.49-.084-.844-.25-.333-.167-.5-.365-.5-.594Zm1.093-10.906c0-.105.063-.157.188-.157h.125c.375.063.791.094 1.25.094h.375l9.406-.531.188-1.594-7.376.5-.562.031c-.396 0-.667-.073-.813-.218-.27-.271-.49-.563-.656-.876-.146-.312-.219-.541-.219-.687 0-.104.063-.156.188-.156.083 0 .156.01.219.031.333.104.77.156 1.312.156h.438l7.969-.562h.281c.375 0 .698.125.969.375.27.229.406.49.406.781 0 .146-.042.302-.125.469a3.733 3.733 0 0 0-.125.375l-.188 1.25h.188c.5-.042.906-.125 1.218-.25.126-.042.209-.063.25-.063.105 0 .292.073.563.219.271.146.51.323.719.531.229.209.344.396.344.563 0 .229-.23.364-.688.406l-2.844.156-.25 1.75c.563.625.844 1.052.844 1.281 0 .146-.083.25-.25.313a3.617 3.617 0 0 1-.688.094l-8.093.5c-.5.041-.802.062-.906.062a.95.95 0 0 1-.282-.031c-.229-.042-.469-.208-.719-.5a3.374 3.374 0 0 1-.53-.969.435.435 0 0 1-.032-.187c0-.104.052-.156.156-.156l.125.03c.313.084.698.126 1.156.126h.407l7.031-.406.219-1.782-8.656.5c-.23.021-.532.031-.907.031-.229 0-.385-.01-.469-.03-.25-.063-.51-.292-.78-.688-.25-.417-.376-.677-.376-.781Zm1.406 10.937c0-.104.084-.156.25-.156.313 0 1.032.177 2.157.531l3.344-.156v-.344c0-.375-.032-.698-.094-.969a2.52 2.52 0 0 0-.281-.812.737.737 0 0 1-.094-.313c0-.146.104-.219.312-.219.292 0 .625.063 1 .188.438.146.709.292.813.438.125.124.187.364.187.718V75l4.125-.219.344-.031c.208 0 .469.094.781.281.334.188.5.417.5.688 0 .104-.031.24-.094.406a1.761 1.761 0 0 0-.062.344l-.094 4.437v.125l.032 1c0 .438-.157.823-.469 1.156-.313.334-.636.5-.969.5-.271 0-.688-.218-1.25-.656a12.797 12.797 0 0 1-1.562-1.437c-.48-.521-.719-.875-.719-1.063 0-.125.083-.187.25-.187.208 0 .469.083.781.25.771.416 1.5.74 2.188.969l.062-5.25-3.875.187-.063 9.938c0 .416-.166.624-.5.624-.104 0-.291-.052-.562-.156-.25-.104-.48-.25-.688-.437-.208-.188-.312-.406-.312-.656l.031-.282c.146-.916.219-1.844.219-2.781l.031-6.188-3.375.157.125 6.531c0 .396-.146.594-.437.594-.271 0-.594-.125-.969-.375s-.563-.531-.563-.844c0-.125.01-.219.032-.281.104-.521.156-1.073.156-1.656l-.063-3.563c0-.73-.135-1.313-.406-1.75-.146-.25-.219-.417-.219-.5Zm75.063-10.344c0 .459-.021.896-.063 1.313l-.062 1.75c-.021.479-.083 1.281-.188 2.406-.02.333-.124.594-.312.781-.167.188-.323.281-.469.281-.166-.02-.312-.166-.437-.437a1.805 1.805 0 0 1-.094-.875c.021-.167.083-.854.188-2.063.041-1.291.02-2.156-.063-2.593-.021-.146-.167-.24-.437-.281h-.876l-1.437.124c-.292.021-.729.084-1.313.188-.562.104-1.02.198-1.374.281-.021.709-.011 1.604.031 2.688l.125 2.125a.84.84 0 0 1-.156.5c-.084.146-.188.219-.313.219-.25 0-.448-.167-.594-.5a1.86 1.86 0 0 1-.187-.844l-.032-.531L160 67.28c0-.52-.021-1.26-.062-2.219 0-.166-.011-.291-.032-.374a.908.908 0 0 1-.031-.157.687.687 0 0 1-.031-.219c0-.166.083-.25.25-.25.125 0 .229.021.312.063l.563.188c.229-.042.427-.073.593-.094.188-.021.323-.042.407-.063.958-.146 2.146-.25 3.562-.312.521 0 .886-.052 1.094-.157a.345.345 0 0 1 .125-.062c.083-.042.146-.052.188-.031l.312.093c.083.021.167.063.25.126a.848.848 0 0 1 .219.156c.271.27.406.458.406.562Zm-.937 17.688c-.313 0-.615-.23-.907-.688a9.905 9.905 0 0 0-1.093-1.437l-.813-.844c-.437.5-.823.896-1.156 1.188a6.25 6.25 0 0 1-1.188.843c-.896.521-1.646.781-2.25.781-.146 0-.219-.052-.219-.156 0-.062.198-.198.594-.406a6.591 6.591 0 0 0 1.125-.75c.896-.75 1.636-1.52 2.219-2.313-.125-.124-.75-.666-1.875-1.624a10.426 10.426 0 0 1-.656-.532 7.616 7.616 0 0 1-.375-.281c-.188-.146-.282-.25-.282-.313 0-.104.053-.156.157-.156.312 0 .812.219 1.5.656.687.417 1.406.917 2.156 1.5.292-.354.521-.687.687-1 .167-.312.355-.697.563-1.156.104-.229.167-.427.187-.594a4.83 4.83 0 0 0 .032-.343c0-.23.062-.344.187-.344.146 0 .344.115.594.344.437.416.656.698.656.844 0 .083-.052.177-.156.28-.25.25-.479.584-.687 1-.126.25-.355.605-.688 1.063a2.76 2.76 0 0 0-.25.344 3.062 3.062 0 0 1-.188.281c.48.354 1.188.959 2.126 1.813.229.208.374.406.437.594.083.166.125.395.125.687a.89.89 0 0 1-.156.531.504.504 0 0 1-.406.188Zm2.374-11c.105 0 .261.073.469.219-.021.041.021.124.125.25l.219.218c.104.104.208.23.313.375.124.146.26.302.406.469.375.396 1.239 1.427 2.594 3.094.229.333.343.531.343.594 0 .208-.125.312-.375.312-.146 0-.302-.104-.468-.313-.396-.416-1.105-1.072-2.126-1.968-.791-.73-1.51-1.292-2.156-1.688-.312-.146-.468-.312-.468-.5 0-.146.156-.354.468-.625.292-.291.511-.437.656-.437Zm-29.468-6.063c0 .313-.177.469-.532.469-.166 0-.364-.042-.593-.125-.334-.125-.552-.26-.657-.406-.104-.146-.156-.375-.156-.688 0-.354-.01-.614-.031-.781l-5.781.313-.594.03c-.479 0-.854-.103-1.125-.312-.25-.208-.469-.562-.656-1.062a.346.346 0 0 1-.031-.157c0-.083.062-.124.187-.124h.125a6.49 6.49 0 0 0 1.438.187l.593-.031 5.625-.344-.156-1.188a2.9 2.9 0 0 0-.219-.812 3.166 3.166 0 0 0-.437-.688c-.104-.145-.156-.24-.156-.28 0-.126.145-.188.437-.188.229 0 .51.031.844.093.396.084.666.178.812.282.167.104.261.24.281.406l.344 2.344 1-.032c.084-.02.188-.03.313-.03a.89.89 0 0 1 .531.156c.146.104.219.24.219.406 0 .25-.094.427-.281.531-.167.083-.417.146-.75.188a6.805 6.805 0 0 1-.5.093h-.344l.25 1.657v.093Zm-11.813 17.781c0-.083.073-.197.219-.343.167-.146.385-.302.656-.469 2.854-1.646 5.302-3.385 7.344-5.219l-4.406.219-.813.031c-.291 0-.521-.02-.687-.062a.85.85 0 0 1-.406-.219c-.334-.27-.584-.646-.75-1.125a.431.431 0 0 1-.032-.188c0-.124.063-.187.188-.187l.25.063c.5.145 1.052.218 1.656.218h.406l6.188-.312c.687-.688 1.177-1.302 1.468-1.844l-2.406.094v.281c0 .375-.135.563-.406.563-.083 0-.25-.042-.5-.126-.25-.104-.49-.24-.719-.406-.208-.187-.312-.406-.312-.656v-.156l.031-.656c0-.188-.021-.553-.062-1.094l-.344-3.469c-.063-.813-.219-1.438-.469-1.875-.125-.25-.187-.396-.187-.438 0-.104.093-.156.281-.156.354 0 1.104.188 2.25.563l7.875-.438c-.104-.062-.156-.187-.156-.375 0-.062.02-.198.062-.406a20.61 20.61 0 0 0 .344-1.375l-.469.031c-.375 0-.729-.135-1.063-.406-.312-.292-.458-.625-.437-1v-.031c0-.042.031-.073.094-.094a.383.383 0 0 1 .219-.063c.77 0 1.447-.01 2.031-.03.187-.75.281-1.365.281-1.844v-.282c0-.333-.042-.635-.125-.906a.346.346 0 0 1-.031-.156c0-.167.094-.25.281-.25.125 0 .365.062.719.187.375.104.708.25 1 .438.312.166.468.343.468.531v.063l-.718 2.03 4.156-.25a6.902 6.902 0 0 0 1.719-.28.812.812 0 0 1 .25-.032c.291 0 .635.167 1.031.5.396.334.594.604.594.813 0 .208-.219.333-.656.375l-7.75.437a17.1 17.1 0 0 1-.907 1.625c-.25.417-.469.656-.656.719l3.844-.219H149c.271 0 .562.115.875.344.333.208.5.427.5.656 0 .104-.042.23-.125.375a1.65 1.65 0 0 0-.125.313l-.75 4.562c.604.667.906 1.094.906 1.281 0 .105-.041.167-.125.188-.083.02-.187.042-.312.063h-.25l-8.344.374c.167.188.25.376.25.563a.564.564 0 0 1-.188.406c-.458.521-.697.792-.718.813l10.875-.563c.875-.062 1.614-.177 2.219-.344a.945.945 0 0 1 .281-.03c.291 0 .646.187 1.062.562.417.354.625.635.625.844 0 .229-.135.343-.406.343l-7.219.344c2.604 1.917 5.698 3.48 9.281 4.688.105.041.198.093.282.156.083.062.125.135.125.219 0 .166-.188.427-.563.78-.375.334-.708.5-1 .5-.187 0-.864-.28-2.031-.843-1.167-.563-2.521-1.313-4.063-2.25a40.597 40.597 0 0 1-4.343-3.156l-6.719.344c-3 2.854-6.188 4.895-9.562 6.124-.376.126-.657.188-.844.188-.209 0-.313-.063-.313-.188Zm2.5 1.407c0-.146.073-.219.219-.219l.125.031c.5.125.927.188 1.281.188h.219l9.031-.313-.031-2.406-3.875.156-.75.031c-.354 0-.583-.052-.688-.156-.374-.25-.614-.51-.718-.781-.104-.27-.156-.48-.156-.625 0-.104.052-.156.156-.156.083 0 .156.01.218.031.313.083.657.125 1.032.125h.312l4.438-.188v-1.218c0-.563-.115-1-.344-1.313a.502.502 0 0 1-.125-.312c0-.146.125-.219.375-.219.271 0 .615.073 1.031.219.396.146.646.281.75.406.125.125.188.302.188.531v1.813l3.531-.156a3.74 3.74 0 0 0 1.125-.188.435.435 0 0 1 .187-.031c.23 0 .521.177.876.531.374.354.562.615.562.781 0 .125-.052.23-.156.313a.564.564 0 0 1-.344.094h-.094l-5.687.218v2.438l8.687-.313c.375 0 .761-.062 1.156-.187a.439.439 0 0 1 .188-.031c.167 0 .458.166.875.5.417.333.625.614.625.843a.307.307 0 0 1-.156.281c-.084.084-.209.126-.375.126h-.094l-21.156.75h-.594c-.417 0-.781-.084-1.094-.25-.291-.167-.531-.553-.719-1.157a.448.448 0 0 1-.031-.187Zm5.969-15.219 11.281-.625.188-1.656-11.625.594.156 1.687Zm.281 3.063 10.625-.5.188-1.72-10.969.532.156 1.688Zm77.188-.094c-.146 0-.302-.094-.469-.281a1.928 1.928 0 0 1-.25-.344c-.042-.104-.042-.24 0-.406l.031-.75c.021-.146.031-.5.031-1.063v-1.031l-.937.437-1.094.469c-.271.104-.552.23-.843.375-.25.125-.469.188-.657.188a1.933 1.933 0 0 1-.5-.157 4.225 4.225 0 0 1-.437-.219c-.229-.145-.334-.302-.313-.468l.094-.313c0-.166.01-.312.031-.437l.032-1.813v-1.687c0-.334-.021-.615-.063-.844-.042-.25-.073-.427-.094-.531 0-.104.031-.177.094-.219.021-.02.073-.031.156-.031.146 0 .427.093.844.281.354.167.5.375.437.625a5.354 5.354 0 0 0-.124.656l-.094 3.594c0 .104.01.188.031.25.042.042.083.063.125.063.25 0 .552-.073.906-.22.667-.208 1.24-.416 1.719-.624l.687-.281V65.25c0-.833-.052-1.635-.156-2.406a.689.689 0 0 1-.031-.219c0-.208.083-.313.25-.313.021 0 .135.042.344.126.312.166.541.312.687.437.146.125.229.198.25.219.084.062.125.125.125.187a.308.308 0 0 1-.062.157 1.21 1.21 0 0 1-.063.156l-.094.937-.031 2.875.031 2.781c0 .48-.031.896-.093 1.25-.104.438-.271.657-.5.657Zm-5.75 7c-.229 0-.511-.177-.844-.531-.25-.25-.375-.438-.375-.563 0-.063.042-.094.125-.094.083-.02.187-.031.313-.031l.687-.031c.396 0 .656-.01.781-.031.396 0 .729-.01 1-.032 1.792-.166 3-.302 3.625-.406.313-.042.594-.083.844-.125.25-.063.448-.094.594-.094.291 0 .583.146.875.438.229.229.344.416.344.562 0 .125-.073.209-.219.25-.104.021-.719.063-1.844.125-.625.021-1.396.073-2.313.156-.916.084-1.718.167-2.406.25-.125.021-.302.053-.531.094a3.668 3.668 0 0 1-.656.063Zm9.093-7.875c.105 0 .261.073.469.219-.021.041.021.124.125.25l.219.218c.104.104.208.23.313.375.124.146.26.302.406.469.375.396 1.239 1.427 2.594 3.094.229.333.343.531.343.594 0 .208-.125.312-.375.312-.146 0-.302-.104-.468-.313-.396-.416-1.105-1.072-2.126-1.968-.791-.73-1.51-1.292-2.156-1.688-.312-.146-.468-.312-.468-.5 0-.146.156-.354.468-.625.292-.291.511-.437.656-.437Zm-25.75 10.844v4.218a.55.55 0 0 1-.156.406.538.538 0 0 1-.437.188c-.313 0-.667-.146-1.063-.438-.375-.27-.562-.541-.562-.812l.031-.281c.104-1.042.156-1.896.156-2.563v-1.156l.031-4.625-6.406.281c-.25.021-.573.031-.968.031-.417 0-.688-.062-.813-.187-.333-.313-.552-.604-.656-.875-.104-.27-.157-.469-.157-.594 0-.146.063-.219.188-.219l.25.063c.375.104.75.156 1.125.156h.281L198.219 75a6.584 6.584 0 0 0 1.312-.219l.188-.031c.25 0 .593.188 1.031.563.438.374.656.666.656.874 0 .188-.239.303-.718.344l-8.969.375.093 5.156Zm-15.093-5.282c0-.187.187-.406.562-.656 2.542-1.75 4.615-3.52 6.219-5.313 1.021-1.27 1.698-2.145 2.031-2.624a23.223 23.223 0 0 0-2.281-2.094c-.188-.167-.281-.302-.281-.406 0-.105.093-.303.281-.594.208-.313.427-.469.656-.469.313 0 1.167.698 2.563 2.094a26.436 26.436 0 0 0 1.719-3.438l-4.032.25a26.773 26.773 0 0 1-2.437 2.719c-.875.875-1.688 1.583-2.438 2.125-.729.542-1.25.813-1.562.813-.125 0-.188-.053-.188-.157 0-.166.177-.416.531-.75a29.348 29.348 0 0 0 3-3.312c.98-1.271 1.782-2.448 2.407-3.531.625-1.084.937-1.855.937-2.313l-.031-.281-.031-.157c0-.208.114-.312.344-.312.25 0 .624.156 1.124.469.5.312.75.593.75.843 0 .167-.124.47-.374.907-.25.437-.532.875-.844 1.312l3.406-.25.469-.031c.333 0 .677.115 1.031.344.354.229.531.468.531.718 0 .146-.062.303-.187.47-.125.145-.209.25-.25.312-1.646 3.104-3.292 5.583-4.938 7.437l.25.063c.25.083.573.125.969.125h.344l6.5-.375c.541-.042.958-.104 1.25-.188a.534.534 0 0 1 .219-.031c.229 0 .458.094.687.281.25.188.458.396.625.625.188.23.281.386.281.469 0 .167-.229.27-.687.313l-8.344.53c-.417.042-.688.063-.812.063-.23 0-.5-.083-.813-.25-.292-.187-.521-.583-.687-1.187l-.032-.125c-2.166 2.375-4.656 4.229-7.468 5.562-.271.125-.49.188-.657.188-.208 0-.312-.063-.312-.188ZM178.75 85c0-.23.219-.5.656-.813.917-.645 1.969-1.52 3.156-2.624 1.188-1.126 1.855-2.063 2-2.813.063-.313.198-.469.407-.469.187 0 .427.115.719.344.291.208.552.448.781.719.229.25.343.437.343.562 0 .125-.083.271-.25.438a18.14 18.14 0 0 1-3 2.469c-1.083.729-2.062 1.302-2.937 1.718-.875.438-1.406.656-1.594.656-.187 0-.281-.062-.281-.187Zm.25-15.438c0-.062.073-.093.219-.093l.343.031c.396 0 .969-.094 1.719-.281.063 0 .563-.136 1.5-.406.896-.271 1.407-.407 1.531-.407.063 0 .115.021.157.063.062.02.093.052.093.094 0 .291-.302.645-.906 1.062-.604.417-1.281.781-2.031 1.094-.75.312-1.281.458-1.594.437-.271.021-.469-.083-.593-.312a7.6 7.6 0 0 1-.407-1.063c-.041-.041-.062-.083-.062-.125a.235.235 0 0 0 .031-.094Zm11.906-5.437c0-.188.136-.365.406-.531.271-.167.511-.25.719-.25.188 0 .344.093.469.281a25.463 25.463 0 0 0 3.031 3.625c1.667-1.667 2.917-3.177 3.75-4.531l-5.25.375-.562.062c-.167.021-.334.032-.5.032-.396 0-.719-.178-.969-.532-.25-.354-.417-.646-.5-.875a.345.345 0 0 1-.031-.156c0-.083.052-.125.156-.125h.125c.312.063.625.094.938.094l.562-.032 6.562-.437h.219c.292 0 .625.146 1 .438.375.27.563.562.563.874a.562.562 0 0 1-.219.438c-.125.104-.198.177-.219.219a41.04 41.04 0 0 1-4.437 5.281 36.596 36.596 0 0 0 8.093 5.594c.105.062.198.125.282.187.083.063.125.136.125.219 0 .104-.219.354-.657.75-.416.396-.697.594-.843.594-.063 0-.198-.063-.407-.188-2.458-1.541-4.624-3.135-6.5-4.781-1.854-1.646-3.302-3.094-4.343-4.344-1.042-1.27-1.563-2.031-1.563-2.281Zm3.125 15.313c0-.146.094-.365.281-.657.209-.312.438-.469.688-.469.271 0 1.031.459 2.281 1.376a67.563 67.563 0 0 1 4.063 3.124c.25.188.375.386.375.594 0 .209-.125.51-.375.906-.229.417-.479.626-.75.626-.167 0-.375-.126-.625-.376a44.236 44.236 0 0 0-5.5-4.53c-.292-.21-.438-.407-.438-.594Zm64.75-7.657c-.166 0-.302-.135-.406-.406-.167-.333-.25-.604-.25-.813l.031-.843c.021-.417.032-1.25.032-2.5v-1.563l-.032-1.094c-.229 0-.468.032-.718.094l-.719.188c-.104.041-.271-.021-.5-.188a1.916 1.916 0 0 1-.531-.562.713.713 0 0 1-.094-.281c0-.063.031-.105.094-.126a.688.688 0 0 1 .218-.03c.979 0 1.886-.053 2.719-.157l.937-.063 1.376-.093c.333-.042.562-.073.687-.094.167-.02.354-.042.563-.063.229-.041.374-.052.437-.03a2 2 0 0 0 .313.187c.145.062.302.166.468.312.104.104.188.209.25.313a.386.386 0 0 1 .125.281c0 .083-.052.208-.156.375-.104.167-.208.427-.313.781-.083.354-.145.604-.187.75-.313 1.042-.698 1.802-1.156 2.281a1.666 1.666 0 0 1-1.125.438c-.188 0-.344-.135-.469-.406-.187-.417-.396-.709-.625-.875l.031-.156c.563.187.948.28 1.157.28.166 0 .281-.03.343-.093a.766.766 0 0 0 .219-.281c.104-.271.188-.51.25-.719.083-.208.156-.396.219-.563.041-.187.093-.437.156-.75a5.46 5.46 0 0 0 .156-.75c0-.187-.052-.28-.156-.28h-.687c-.313 0-.667.01-1.063.03-.396.021-.719.053-.969.094l-.062 2.844.031 1.625v.656a1.27 1.27 0 0 1 0 .406v.594c.021.25.021.427 0 .531l-.219.5c-.146.146-.271.22-.375.22Zm4.407 10.438c-.313 0-.615-.23-.907-.688a9.905 9.905 0 0 0-1.093-1.437l-.813-.844c-.437.5-.823.896-1.156 1.188a6.25 6.25 0 0 1-1.188.843c-.896.521-1.646.781-2.25.781-.146 0-.219-.052-.219-.156 0-.062.198-.198.594-.406a6.591 6.591 0 0 0 1.125-.75c.896-.75 1.636-1.52 2.219-2.313-.125-.124-.75-.666-1.875-1.624a10.426 10.426 0 0 1-.656-.532 7.616 7.616 0 0 1-.375-.281c-.188-.146-.282-.25-.282-.313 0-.104.053-.156.157-.156.312 0 .812.219 1.5.656.687.417 1.406.917 2.156 1.5.292-.354.521-.687.687-1 .167-.312.355-.697.563-1.156.104-.229.167-.427.187-.594a4.83 4.83 0 0 0 .032-.343c0-.23.062-.344.187-.344.146 0 .344.115.594.344.437.416.656.698.656.844 0 .083-.052.177-.156.28-.25.25-.479.584-.687 1-.126.25-.355.605-.688 1.063a2.76 2.76 0 0 0-.25.344 3.062 3.062 0 0 1-.188.281c.48.354 1.188.959 2.126 1.813.229.208.374.406.437.594.083.166.125.395.125.687a.89.89 0 0 1-.156.531.504.504 0 0 1-.406.188Zm6.5-11.438c.062 0 .124.031.187.094a.302.302 0 0 1 .125.188v.062c0 .146-.115.427-.344.844l-2.25 3.906c-.166.354-.385.531-.656.531s-.5-.166-.688-.5c-.187-.27-.416-.677-.687-1.219a3.86 3.86 0 0 1-.313-.562 10.16 10.16 0 0 0-.187-.406c-.229-.396-.344-.677-.344-.844a.21.21 0 0 1 .094-.188c.063-.062.125-.093.187-.093.23 0 .438.125.626.375.145.146.26.302.343.469l.344.468.625.719.281-.438c.292-.5.979-1.49 2.063-2.968.229-.292.427-.438.594-.438ZM235.594 85c-.604 0-1.042-.115-1.313-.344-.25-.229-.469-.687-.656-1.375a.345.345 0 0 1-.031-.156c0-.083.062-.125.187-.125l.188.031c.479.125 1.01.188 1.593.188l2.813-.094-.156-19.063a5.7 5.7 0 0 0-.063-.968 1.567 1.567 0 0 0-.187-.625c-.125-.23-.188-.396-.188-.5 0-.146.094-.219.281-.219.396 0 1.105.198 2.126.594l7.687-.438.406-.031c.292 0 .604.115.938.344.333.229.5.49.5.781 0 .104-.031.23-.094.375a.713.713 0 0 0-.094.281l-.125 19.125 1.688-.062c.396-.021.781-.084 1.156-.188.208-.041.354-.062.438-.062.25 0 .562.187.937.562.375.354.563.677.563.969 0 .25-.282.396-.844.438L235.875 85h-.281ZM224 79.062c0-.208.188-.49.562-.843a43.075 43.075 0 0 0 4.594-5.094 32.253 32.253 0 0 0 3.438-5.625l-4.656.5c-.188.02-.376.042-.563.063a4.3 4.3 0 0 1-.531.03c-.292 0-.542-.072-.75-.218a3.863 3.863 0 0 1-.782-.906c-.166-.313-.25-.521-.25-.625 0-.125.084-.188.25-.188h.157c.354.063.729.094 1.125.094.291 0 .51-.01.656-.031l6.125-.625c.167-.021.365-.031.594-.031.416 0 .739.114.969.343.25.209.374.427.374.656 0 .146-.427.959-1.281 2.438-.854 1.458-1.625 2.635-2.312 3.531 3.187 2.084 4.781 3.354 4.781 3.813a3.27 3.27 0 0 1-.406.937c-.167.25-.354.375-.563.375-.166 0-.375-.146-.625-.437-.771-.896-1.864-1.875-3.281-2.938l-.031 11.563c0 .27-.052.479-.156.625a.491.491 0 0 1-.438.25c-.125 0-.323-.063-.594-.188a2.628 2.628 0 0 1-.687-.5.897.897 0 0 1-.281-.656l.031-.219c.062-.291.114-.698.156-1.219.042-.541.063-.979.063-1.312l.187-7.844c-1.208 1.25-2.375 2.313-3.5 3.188-1.125.854-1.844 1.281-2.156 1.281-.146 0-.219-.063-.219-.188Zm4.188-18.812c0-.125.104-.302.312-.531.208-.25.438-.375.688-.375.229 0 .708.343 1.437 1.031a23.315 23.315 0 0 1 2.094 2.188c.666.77 1 1.229 1 1.374 0 .23-.177.49-.531.782-.334.27-.594.406-.782.406-.166 0-.364-.146-.594-.438a33.522 33.522 0 0 0-3.343-3.937c-.188-.23-.281-.396-.281-.5Zm12.031 8.656 7.312-.375v-4.875l-7.343.375.031 4.875Zm.031 6.375 7.25-.375V70.25l-7.281.375.031 4.656Zm.062 7.781 7.157-.218.031-6.188-7.219.313.031 6.094Z"/></svg>