<svg width="350" height="88" viewBox="0 0 350 88" fill="none" xmlns="http://www.w3.org/2000/svg">
<path d="M136.012 14.5977C135.637 14.5977 135.414 14.4102 135.344 14.0352C135.203 13.6367 134.828 13.1445 134.219 12.5586L134.324 12.418C134.418 12.4648 134.688 12.582 135.133 12.7695C135.578 12.9336 135.883 13.0156 136.047 13.0156C136.188 13.0156 136.293 13.0156 136.363 13.0156C136.434 12.9922 136.516 12.9336 136.609 12.8398C136.891 12.6289 137.242 12.1484 137.664 11.3984C137.969 10.7891 138.238 10.0742 138.473 9.25391C138.73 8.43359 138.859 7.8125 138.859 7.39062C138.859 7.27344 138.766 7.21484 138.578 7.21484L137.242 7.28516L136.328 7.35547L135.73 7.39062L135.484 7.42578C135.648 7.54297 135.754 7.64844 135.801 7.74219C135.871 7.8125 135.906 7.90625 135.906 8.02344C135.906 8.14063 135.766 8.46875 135.484 9.00781C135.25 9.52344 134.875 10.1094 134.359 10.7656C133.938 11.3281 133.363 11.9375 132.637 12.5938C131.934 13.2266 131.406 13.5547 131.055 13.5781C130.984 13.5781 130.914 13.5664 130.844 13.543C130.797 13.4961 130.773 13.4375 130.773 13.3672C130.773 13.3438 130.961 13.1211 131.336 12.6992L132.32 11.5391C133.023 10.6016 133.738 9.40625 134.465 7.95312C134.535 7.76562 134.5 7.66016 134.359 7.63672C134.219 7.66016 133.926 7.69531 133.48 7.74219C133.035 7.76562 132.637 7.83594 132.285 7.95312C132.262 7.95312 132.18 7.98828 132.039 8.05859C131.898 8.10547 131.781 8.12891 131.688 8.12891C131.547 8.12891 131.43 8.08203 131.336 7.98828L131.055 7.74219C130.844 7.57813 130.738 7.42578 130.738 7.28516C130.738 7.23828 130.762 7.16797 130.809 7.07422L130.984 6.79297C131.078 6.67578 131.23 6.48828 131.441 6.23047C131.652 5.97266 131.887 5.62109 132.145 5.17578C132.191 5.08203 132.285 4.87109 132.426 4.54297C132.59 4.21484 132.672 4.01562 132.672 3.94531V3.80469C132.672 3.66406 132.695 3.57031 132.742 3.52344C132.789 3.47656 132.895 3.47656 133.059 3.52344C133.223 3.57031 133.422 3.69922 133.656 3.91016L134.043 4.29688C134.113 4.36719 134.148 4.44922 134.148 4.54297C134.148 4.77734 133.82 5.19922 133.164 5.80859C133.047 5.92578 132.906 6.10156 132.742 6.33594C132.578 6.57031 132.496 6.72266 132.496 6.79297C132.496 6.93359 132.602 6.98047 132.812 6.93359L133.621 6.82812C135.473 6.54688 136.867 6.38281 137.805 6.33594L138.754 6.19531L139.07 6.125L139.246 6.08984C139.434 6.08984 139.562 6.11328 139.633 6.16016C139.703 6.20703 139.773 6.28906 139.844 6.40625C139.914 6.5 139.984 6.58203 140.055 6.65234C140.219 6.83984 140.336 7.00391 140.406 7.14453L140.477 7.46094L140.406 7.60156L140.336 7.8125C140.289 7.92969 140.254 8.04687 140.23 8.16406C140.207 8.25781 140.172 8.36328 140.125 8.48047C139.633 10.3789 139.059 11.8555 138.402 12.9102C138.191 13.2852 137.828 13.6602 137.312 14.0352C136.82 14.4102 136.387 14.5977 136.012 14.5977ZM139.211 23.668C138.859 23.668 138.52 23.4102 138.191 22.8945C137.77 22.2383 137.359 21.6992 136.961 21.2773L136.047 20.3281C135.555 20.8906 135.121 21.3359 134.746 21.6641C134.395 21.9922 133.949 22.3086 133.41 22.6133C132.402 23.1992 131.559 23.4922 130.879 23.4922C130.715 23.4922 130.633 23.4336 130.633 23.3164C130.633 23.2461 130.855 23.0938 131.301 22.8594C131.746 22.625 132.168 22.3438 132.566 22.0156C133.574 21.1719 134.406 20.3047 135.062 19.4141C134.922 19.2734 134.219 18.6641 132.953 17.5859C132.789 17.4688 132.543 17.2695 132.215 16.9883C132.145 16.9414 132.004 16.8359 131.793 16.6719C131.582 16.5078 131.477 16.3906 131.477 16.3203C131.477 16.2031 131.535 16.1445 131.652 16.1445C132.004 16.1445 132.566 16.3906 133.34 16.8828C134.113 17.3516 134.922 17.9141 135.766 18.5703C136.094 18.1719 136.352 17.7969 136.539 17.4453C136.727 17.0938 136.938 16.6602 137.172 16.1445C137.289 15.8867 137.359 15.6641 137.383 15.4766C137.406 15.2656 137.418 15.1367 137.418 15.0898C137.418 14.832 137.488 14.7031 137.629 14.7031C137.793 14.7031 138.016 14.832 138.297 15.0898C138.789 15.5586 139.035 15.875 139.035 16.0391C139.035 16.1328 138.977 16.2383 138.859 16.3555C138.578 16.6367 138.32 17.0117 138.086 17.4805C137.945 17.7617 137.688 18.1602 137.312 18.6758C137.195 18.8164 137.102 18.9453 137.031 19.0625C136.961 19.1797 136.891 19.2852 136.82 19.3789C137.359 19.7773 138.156 20.457 139.211 21.418C139.469 21.6523 139.633 21.875 139.703 22.0859C139.797 22.2734 139.844 22.5312 139.844 22.8594C139.844 23.0938 139.785 23.293 139.668 23.457C139.551 23.5977 139.398 23.668 139.211 23.668ZM136.891 27.9922C136.656 28.2969 136.41 28.4492 136.152 28.4492C136.082 28.4492 136.047 28.3906 136.047 28.2734C136.047 28.1094 136.094 27.9219 136.188 27.7109C136.188 27.7109 136.422 27.2422 136.891 26.3047C136.914 26.2109 136.949 26.1172 136.996 26.0234C137.043 25.9297 137.078 25.8477 137.102 25.7773V25.7422C137.102 25.6953 137.066 25.6484 136.996 25.6016C136.926 25.5547 136.844 25.543 136.75 25.5664C136.375 25.5898 135.812 25.6484 135.062 25.7422C134.336 25.8359 133.797 25.9297 133.445 26.0234C133.305 26.0703 133.129 26.1289 132.918 26.1992C132.73 26.2695 132.578 26.3047 132.461 26.3047C132.039 26.3047 131.688 26.1758 131.406 25.918C131.172 25.7539 130.996 25.5898 130.879 25.4258L130.809 25.25C130.809 25.1328 131.008 25.0977 131.406 25.1445C131.945 25.1914 133.059 25.1211 134.746 24.9336L135.449 24.8281C135.637 24.8047 135.93 24.7695 136.328 24.7227C136.75 24.6523 137.078 24.582 137.312 24.5117C137.383 24.4883 137.453 24.4648 137.523 24.4414C137.617 24.3945 137.699 24.3711 137.77 24.3711C137.887 24.3711 138.027 24.4297 138.191 24.5469C138.379 24.6641 138.531 24.7695 138.648 24.8633C138.812 24.9805 138.918 25.0859 138.965 25.1797C139.035 25.25 139.059 25.3438 139.035 25.4609C139.035 25.5781 138.977 25.6836 138.859 25.7773C138.742 25.8711 138.66 25.9414 138.613 25.9883C138.566 26.0586 138.402 26.2344 138.121 26.5156C138.004 26.7031 137.793 26.9609 137.488 27.2891C137.207 27.6172 137.008 27.8516 136.891 27.9922ZM135.133 34.918C135.133 34.8477 135.25 34.6602 135.484 34.3555C135.742 34.0742 135.941 33.8516 136.082 33.6875C136.434 33.2188 136.855 32.5391 137.348 31.6484C137.863 30.7578 138.156 30.1719 138.227 29.8906C138.273 29.75 138.203 29.6797 138.016 29.6797C137.641 29.6797 136.609 29.7852 134.922 29.9961C133.82 30.1367 133 30.2773 132.461 30.418C132.344 30.4883 132.227 30.5234 132.109 30.5234C131.922 30.5234 131.723 30.3945 131.512 30.1367C131.418 29.9727 131.371 29.8203 131.371 29.6797C131.371 29.5859 131.43 29.4922 131.547 29.3984L131.652 29.2578C131.723 29.1172 131.805 28.9297 131.898 28.6953C131.992 28.4609 132.074 28.2383 132.145 28.0273C132.262 27.6523 132.344 27.2422 132.391 26.7969C132.414 26.5391 132.555 26.4688 132.812 26.5859C133.141 26.75 133.387 26.9141 133.551 27.0781C133.738 27.2188 133.797 27.3242 133.727 27.3945C133.492 27.6758 133.305 27.9922 133.164 28.3438C133.047 28.7188 132.977 28.9648 132.953 29.082C132.953 29.1758 133.012 29.2227 133.129 29.2227C133.48 29.2227 134.008 29.1641 134.711 29.0469C135.109 29 135.602 28.9414 136.188 28.8711C136.773 28.8008 137.242 28.7305 137.594 28.6602L138.473 28.4844C138.543 28.4609 138.637 28.4492 138.754 28.4492C138.871 28.4492 138.988 28.4961 139.105 28.5898C139.223 28.6602 139.352 28.7539 139.492 28.8711C139.727 29.082 139.879 29.2578 139.949 29.3984C140.02 29.5156 140.055 29.6562 140.055 29.8203C140.055 29.9141 139.984 30.0312 139.844 30.1719C139.727 30.3125 139.586 30.5352 139.422 30.8398C138.742 32.2227 137.863 33.3828 136.785 34.3203C136.48 34.5547 136.141 34.7539 135.766 34.918C135.602 34.9648 135.449 34.9883 135.309 34.9883C135.191 35.0117 135.133 34.9883 135.133 34.918ZM126.273 33.4414C126.273 34.0039 126.109 34.4492 125.781 34.7773C125.453 35.1289 125.09 35.3047 124.691 35.3047C124.41 35.3047 123.953 35.0469 123.32 34.5312C122.711 34.0156 122.148 33.4531 121.633 32.8438C121.117 32.2344 120.859 31.8242 120.859 31.6133C120.859 31.4492 120.941 31.3672 121.105 31.3672C121.293 31.3672 121.551 31.4609 121.879 31.6484C122.887 32.2109 123.637 32.5742 124.129 32.7383L124.34 23.7734L120.754 23.9492L120.684 33.1602C120.684 33.4414 120.637 33.6523 120.543 33.793C120.473 33.957 120.332 34.0391 120.121 34.0391C119.84 34.0391 119.5 33.9219 119.102 33.6875C118.703 33.4766 118.504 33.207 118.504 32.8789C118.504 32.7617 118.516 32.668 118.539 32.5977C118.656 31.8945 118.715 31.0742 118.715 30.1367L118.785 24.0195L115.867 24.1602L116.008 33.2656C116.008 33.8516 115.809 34.1445 115.41 34.1445C115.129 34.1445 114.777 34.0039 114.355 33.7227C113.957 33.4414 113.758 33.1602 113.758 32.8789V32.668C113.852 32.082 113.898 31.2617 113.898 30.207L113.828 24.2305L110.91 24.3711L111.016 34.2852C111.016 34.8008 110.828 35.0586 110.453 35.0586C109.961 34.9648 109.539 34.8008 109.188 34.5664C108.859 34.3555 108.695 34.0859 108.695 33.7578L108.73 33.4414C108.848 32.668 108.906 31.9883 108.906 31.4023L108.871 24.5117C108.871 23.6211 108.766 22.9414 108.555 22.4727C108.461 22.2383 108.414 22.0859 108.414 22.0156C108.414 21.8516 108.508 21.7695 108.695 21.7695C109.047 21.7695 109.797 22.0625 110.945 22.6484L114.109 22.5078C115 21.1016 115.445 19.9766 115.445 19.1328V18.8867L110.805 19.1328H110.312C109.703 19.1328 109.293 19.0391 109.082 18.8516C108.824 18.6172 108.602 18.3477 108.414 18.043C108.227 17.7383 108.133 17.4922 108.133 17.3047C108.133 17.1172 108.227 17.0234 108.414 17.0234L108.695 17.0938C109.164 17.2344 109.633 17.3047 110.102 17.3047H110.418L123.285 16.5664C123.707 16.543 124.117 16.4727 124.516 16.3555C124.703 16.3086 124.832 16.2852 124.902 16.2852C125.16 16.2852 125.5 16.4727 125.922 16.8477C126.344 17.1992 126.555 17.5273 126.555 17.832C126.555 18.1133 126.262 18.2773 125.676 18.3242L117.098 18.7812C117.52 19.0156 117.73 19.25 117.73 19.4844C117.73 19.625 117.566 19.9883 117.238 20.5742C116.91 21.1602 116.547 21.7695 116.148 22.4023L124.797 21.9805L125.254 21.9453C125.582 21.9453 125.898 22.0625 126.203 22.2969C126.508 22.5312 126.66 22.8125 126.66 23.1406C126.66 23.2344 126.625 23.375 126.555 23.5625C126.508 23.7266 126.484 23.8555 126.484 23.9492L126.273 32.457V33.4414ZM95.125 27.7461C95.125 27.5586 95.2656 27.4648 95.5469 27.4648C96.1094 27.4648 96.7539 27.3828 97.4805 27.2188C98.7461 26.9375 100.082 26.5859 101.488 26.1641C102.402 23.3281 103.035 21.1133 103.387 19.5195C103.738 17.9023 103.914 16.8477 103.914 16.3555C103.914 16.2383 103.891 16.0391 103.844 15.7578C103.82 15.6641 103.809 15.5586 103.809 15.4414C103.809 15.2305 103.891 15.125 104.055 15.125C104.195 15.125 104.441 15.207 104.793 15.3711C105.145 15.5117 105.461 15.6992 105.742 15.9336C106.047 16.168 106.199 16.4375 106.199 16.7422C106.199 16.8594 106.188 16.9414 106.164 16.9883C105.812 18.4414 105.426 19.8125 105.004 21.1016C104.582 22.3672 104.066 23.8555 103.457 25.5664C104.91 25.0977 105.988 24.7344 106.691 24.4766C107.324 24.2656 107.793 24.1602 108.098 24.1602C108.355 24.1602 108.484 24.2188 108.484 24.3359C108.484 24.6406 107.629 25.2266 105.918 26.0938C104.23 26.9375 102.402 27.7578 100.434 28.5547C98.4648 29.3516 97.3047 29.75 96.9531 29.75C96.6953 29.75 96.3906 29.5625 96.0391 29.1875C95.6875 28.8125 95.418 28.4375 95.2305 28.0625C95.1602 27.9219 95.125 27.8164 95.125 27.7461ZM95.5469 13.1914C95.5469 13.0508 95.6406 12.9805 95.8281 12.9805C95.9453 12.9805 96.0508 12.9922 96.1445 13.0156C96.543 13.1094 96.9883 13.1562 97.4805 13.1562H97.9375L104.441 12.7344C104.98 12.7109 105.508 12.6172 106.023 12.4531C106.211 12.3828 106.375 12.3477 106.516 12.3477C106.773 12.3477 107.031 12.4414 107.289 12.6289C107.547 12.8164 107.758 13.0391 107.922 13.2969C108.086 13.5312 108.168 13.707 108.168 13.8242C108.168 14.0586 107.992 14.2109 107.641 14.2812L107.395 14.3164L98.3945 14.9492C98.1836 14.9727 97.9141 14.9844 97.5859 14.9844C97.1172 14.9844 96.7305 14.8672 96.4258 14.6328C96.1211 14.375 95.8984 14.1055 95.7578 13.8242C95.6172 13.5195 95.5469 13.3086 95.5469 13.1914ZM97.7969 16.8477C97.7969 16.5664 97.9375 16.3789 98.2188 16.2852C98.5 16.168 98.7695 16.1094 99.0273 16.1094C99.2148 16.1094 99.3555 16.168 99.4492 16.2852C99.5664 16.4023 99.6719 16.5898 99.7656 16.8477C100.164 17.9492 100.574 19.332 100.996 20.9961C101.418 22.6367 101.629 23.6211 101.629 23.9492C101.629 24.2539 101.465 24.4883 101.137 24.6523C100.832 24.8164 100.527 24.8984 100.223 24.8984C100.035 24.8984 99.8945 24.8398 99.8008 24.7227C99.7305 24.6055 99.6719 24.4062 99.625 24.125C99.1562 21.4531 98.5938 19.2031 97.9375 17.375C97.8438 17.0938 97.7969 16.918 97.7969 16.8477ZM98.9922 7.56641C98.9922 7.37891 99.0859 7.15625 99.2734 6.89844C99.4609 6.64062 99.6367 6.48828 99.8008 6.44141C99.8477 6.41797 99.918 6.40625 100.012 6.40625C100.152 6.40625 100.328 6.47656 100.539 6.61719C100.703 6.71094 101.535 7.21484 103.035 8.12891C104.535 9.01953 105.332 9.67578 105.426 10.0977C105.496 10.3789 105.379 10.6953 105.074 11.0469C104.77 11.375 104.523 11.5625 104.336 11.6094L104.23 11.6445C104.113 11.6445 103.902 11.5391 103.598 11.3281C101.84 9.89844 100.445 8.85547 99.4141 8.19922C99.2969 8.10547 99.1914 8.01172 99.0977 7.91797C99.0273 7.80078 98.9922 7.68359 98.9922 7.56641ZM109.645 7.53125C109.645 7.39062 109.738 7.32031 109.926 7.32031C110.043 7.32031 110.277 7.35547 110.629 7.42578C110.98 7.49609 111.309 7.625 111.613 7.8125C111.941 8 112.105 8.24609 112.105 8.55078V8.62109L111.895 12.8398L115.867 12.4883L115.938 6.16016C115.938 5.55078 115.75 5.01172 115.375 4.54297C115.281 4.42578 115.234 4.32031 115.234 4.22656C115.234 4.10937 115.363 4.05078 115.621 4.05078C116.277 4.05078 116.84 4.16797 117.309 4.40234C117.801 4.61328 118.047 4.90625 118.047 5.28125L117.941 12.3125L122.582 11.9258L122.652 8.69141C122.652 8.01172 122.547 7.47266 122.336 7.07422C122.242 6.91016 122.195 6.76953 122.195 6.65234C122.195 6.53516 122.289 6.47656 122.477 6.47656C122.875 6.47656 123.355 6.58203 123.918 6.79297C124.48 7.00391 124.762 7.35547 124.762 7.84766V7.95312L124.48 14.7734C124.457 15.1016 124.398 15.3477 124.305 15.5117C124.234 15.6523 124.094 15.7227 123.883 15.7227C123.602 15.7227 123.262 15.6055 122.863 15.3711C122.488 15.1133 122.301 14.8086 122.301 14.457C122.301 14.3164 122.312 14.1992 122.336 14.1055L122.441 13.5781L112.246 14.5977C111.988 14.6211 111.719 14.6797 111.438 14.7734C111.156 14.8438 110.957 14.8789 110.84 14.8789C110.629 14.8789 110.383 14.7617 110.102 14.5273C109.844 14.293 109.715 14.0586 109.715 13.8242C109.715 13.7305 109.738 13.5898 109.785 13.4023C109.902 12.8633 109.961 12.418 109.961 12.0664L110.031 9.42969C110.031 8.77344 109.938 8.25781 109.75 7.88281C109.68 7.74219 109.645 7.625 109.645 7.53125ZM193.211 24.7227C192.859 24.7227 192.52 24.4648 192.191 23.9492C191.77 23.293 191.359 22.7539 190.961 22.332L190.047 21.3828C189.555 21.9453 189.121 22.3906 188.746 22.7188C188.395 23.0469 187.949 23.3633 187.41 23.668C186.402 24.2539 185.559 24.5469 184.879 24.5469C184.715 24.5469 184.633 24.4883 184.633 24.3711C184.633 24.3008 184.855 24.1484 185.301 23.9141C185.746 23.6797 186.168 23.3984 186.566 23.0703C187.574 22.2266 188.406 21.3594 189.062 20.4688C188.922 20.3281 188.219 19.7188 186.953 18.6406C186.789 18.5234 186.543 18.3242 186.215 18.043C186.145 17.9961 186.004 17.8906 185.793 17.7266C185.582 17.5625 185.477 17.4453 185.477 17.375C185.477 17.2578 185.535 17.1992 185.652 17.1992C186.004 17.1992 186.566 17.4453 187.34 17.9375C188.113 18.4062 188.922 18.9688 189.766 19.625C190.094 19.2266 190.352 18.8516 190.539 18.5C190.727 18.1484 190.938 17.7148 191.172 17.1992C191.289 16.9414 191.359 16.7188 191.383 16.5312C191.406 16.3203 191.418 16.1914 191.418 16.1445C191.418 15.8867 191.488 15.7578 191.629 15.7578C191.793 15.7578 192.016 15.8867 192.297 16.1445C192.789 16.6133 193.035 16.9297 193.035 17.0938C193.035 17.1875 192.977 17.293 192.859 17.4102C192.578 17.6914 192.32 18.0664 192.086 18.5352C191.945 18.8164 191.688 19.2148 191.312 19.7305C191.195 19.8711 191.102 20 191.031 20.1172C190.961 20.2344 190.891 20.3398 190.82 20.4336C191.359 20.832 192.156 21.5117 193.211 22.4727C193.469 22.707 193.633 22.9297 193.703 23.1406C193.797 23.3281 193.844 23.5859 193.844 23.9141C193.844 24.1484 193.785 24.3477 193.668 24.5117C193.551 24.6523 193.398 24.7227 193.211 24.7227ZM200.523 11.8555C200.594 11.8555 200.664 11.8906 200.734 11.9609C200.805 12.0078 200.852 12.0781 200.875 12.1719V12.2422C200.875 12.4062 200.746 12.7227 200.488 13.1914L197.957 17.5859C197.77 17.9844 197.523 18.1836 197.219 18.1836C196.914 18.1836 196.656 17.9961 196.445 17.6211C196.234 17.3164 195.977 16.8594 195.672 16.25C195.531 16.0391 195.414 15.8281 195.32 15.6172C195.227 15.4062 195.156 15.2539 195.109 15.1602C194.852 14.7148 194.723 14.3984 194.723 14.2109C194.723 14.1172 194.758 14.0469 194.828 14C194.898 13.9297 194.969 13.8945 195.039 13.8945C195.297 13.8945 195.531 14.0352 195.742 14.3164C195.906 14.4805 196.035 14.6562 196.129 14.8438L196.516 15.3711L197.219 16.1797L197.535 15.6875C197.863 15.125 198.637 14.0117 199.855 12.3477C200.113 12.0195 200.336 11.8555 200.523 11.8555ZM167.09 34.8828C167.09 35.375 166.867 35.6211 166.422 35.6211C166.328 35.6211 166.117 35.5742 165.789 35.4805C165.484 35.3867 165.191 35.2227 164.91 34.9883C164.629 34.7539 164.488 34.4375 164.488 34.0391L164.523 33.793C164.617 33.1602 164.664 32.457 164.664 31.6836L164.734 21.8047L153.66 22.4023C153.332 22.4258 152.934 22.4375 152.465 22.4375C151.926 22.4375 151.492 22.2969 151.164 22.0156C150.836 21.7109 150.602 21.3945 150.461 21.0664C150.344 20.7148 150.285 20.457 150.285 20.293C150.285 20.1523 150.367 20.082 150.531 20.082C150.625 20.082 150.707 20.0938 150.777 20.1172C151.41 20.2578 151.973 20.3281 152.465 20.3281H152.746L164.77 19.6602L164.84 11.3281L159.461 11.6445C158.406 13.3789 157.422 14.7617 156.508 15.793C155.594 16.8242 154.832 17.5391 154.223 17.9375C153.637 18.3359 153.285 18.5352 153.168 18.5352C153.051 18.5352 152.992 18.4766 152.992 18.3594C152.992 18.1953 153.121 17.9258 153.379 17.5508C154.434 16.168 155.453 14.5977 156.438 12.8398C157.422 11.082 158.219 9.42969 158.828 7.88281C159.438 6.3125 159.742 5.11719 159.742 4.29688V3.875C159.742 3.59375 159.836 3.45312 160.023 3.45312C160.094 3.45312 160.352 3.53516 160.797 3.69922C161.266 3.86328 161.676 4.07422 162.027 4.33203C162.402 4.56641 162.59 4.80078 162.59 5.03516C162.59 5.31641 162.32 6.01953 161.781 7.14453C161.242 8.24609 160.844 9.04297 160.586 9.53516L172.434 8.79688C172.973 8.75 173.5 8.64453 174.016 8.48047C174.062 8.45703 174.145 8.44531 174.262 8.44531C174.543 8.44531 174.941 8.66797 175.457 9.11328C175.973 9.55859 176.23 9.92188 176.23 10.2031C176.23 10.4844 175.938 10.6484 175.352 10.6953L167.16 11.1875L167.125 19.5547L177.074 18.9922C177.66 18.9453 178.199 18.8398 178.691 18.6758C178.832 18.6289 178.938 18.6055 179.008 18.6055C179.148 18.6055 179.383 18.7109 179.711 18.9219C180.039 19.1328 180.332 19.3789 180.59 19.6602C180.848 19.9414 180.977 20.1992 180.977 20.4336C180.977 20.7383 180.707 20.9141 180.168 20.9609L167.125 21.6641L167.09 34.8828ZM246.121 14.3867C245.957 14.3867 245.781 14.2812 245.594 14.0703C245.453 13.9063 245.359 13.7773 245.312 13.6836C245.266 13.5664 245.266 13.4141 245.312 13.2266L245.348 12.3828C245.371 12.2188 245.383 11.8203 245.383 11.1875V10.0273L244.328 10.5195L243.098 11.0469C242.793 11.1641 242.477 11.3047 242.148 11.4688C241.867 11.6094 241.621 11.6797 241.41 11.6797C241.246 11.6563 241.059 11.5977 240.848 11.5039C240.637 11.4102 240.473 11.3281 240.355 11.2578C240.098 11.0938 239.98 10.918 240.004 10.7305L240.109 10.3789C240.109 10.1914 240.121 10.0273 240.145 9.88672L240.18 7.84766V5.94922C240.18 5.57422 240.156 5.25781 240.109 5C240.062 4.71875 240.027 4.51953 240.004 4.40234C240.004 4.28516 240.039 4.20313 240.109 4.15625C240.133 4.13281 240.191 4.12109 240.285 4.12109C240.449 4.12109 240.766 4.22656 241.234 4.4375C241.633 4.625 241.797 4.85938 241.727 5.14062C241.68 5.30469 241.633 5.55078 241.586 5.87891L241.48 9.92188C241.48 10.0391 241.492 10.1328 241.516 10.2031C241.562 10.25 241.609 10.2734 241.656 10.2734C241.938 10.2734 242.277 10.1914 242.676 10.0273C243.426 9.79297 244.07 9.55859 244.609 9.32422L245.383 9.00781V6.6875C245.383 5.75 245.324 4.84766 245.207 3.98047C245.184 3.91016 245.172 3.82812 245.172 3.73438C245.172 3.5 245.266 3.38281 245.453 3.38281C245.477 3.38281 245.605 3.42969 245.84 3.52344C246.191 3.71094 246.449 3.875 246.613 4.01562C246.777 4.15625 246.871 4.23828 246.895 4.26172C246.988 4.33203 247.035 4.40234 247.035 4.47266C247.035 4.51953 247.012 4.57812 246.965 4.64844C246.941 4.71875 246.918 4.77734 246.895 4.82422L246.789 5.87891L246.754 9.11328L246.789 12.2422C246.789 12.7813 246.754 13.25 246.684 13.6484C246.566 14.1406 246.379 14.3867 246.121 14.3867ZM239.652 20.1523C239.395 20.1523 239.078 19.9531 238.703 19.5547C238.422 19.2734 238.281 19.0625 238.281 18.9219C238.281 18.8516 238.328 18.8164 238.422 18.8164C238.516 18.793 238.633 18.7812 238.773 18.7812L239.547 18.7461C239.992 18.7461 240.285 18.7344 240.426 18.7109C240.871 18.7109 241.246 18.6992 241.551 18.6758C243.566 18.4883 244.926 18.3359 245.629 18.2188C245.98 18.1719 246.297 18.125 246.578 18.0781C246.859 18.0078 247.082 17.9727 247.246 17.9727C247.574 17.9727 247.902 18.1367 248.23 18.4648C248.488 18.7227 248.617 18.9336 248.617 19.0977C248.617 19.2383 248.535 19.332 248.371 19.3789C248.254 19.4023 247.562 19.4492 246.297 19.5195C245.594 19.543 244.727 19.6016 243.695 19.6953C242.664 19.7891 241.762 19.8828 240.988 19.9766C240.848 20 240.648 20.0352 240.391 20.082C240.133 20.1289 239.887 20.1523 239.652 20.1523ZM244.363 34.6719C243.637 34.6719 243.074 34.6484 242.676 34.6016C242.301 34.5547 241.984 34.4141 241.727 34.1797C241.281 33.8516 240.977 33.1367 240.812 32.0352L240.707 30.9102C240.707 30.6289 240.684 30.2773 240.637 29.8555C240.262 29.9023 239.992 29.9492 239.828 29.9961C239.781 30.0195 239.699 30.0547 239.582 30.1016C239.488 30.125 239.418 30.1367 239.371 30.1367C239.207 30.1367 239.055 30.0898 238.914 29.9961C238.773 29.9023 238.598 29.7266 238.387 29.4688C238.223 29.2578 238.141 29.1172 238.141 29.0469C238.141 28.9766 238.223 28.9297 238.387 28.9062C238.551 28.8828 238.773 28.8711 239.055 28.8711C239.453 28.8711 239.969 28.8242 240.602 28.7305L240.566 28.2383C240.566 27.3008 240.508 26.5039 240.391 25.8477L240.355 25.6016C240.355 25.2734 240.484 25.1445 240.742 25.2148C241.023 25.3086 241.281 25.4258 241.516 25.5664C241.703 25.6602 241.832 25.7539 241.902 25.8477C241.973 25.918 241.996 26.0234 241.973 26.1641L241.867 27.6758V28.5898L244.961 28.2734C244.961 28.1094 244.973 27.7227 244.996 27.1133C245.02 26.4805 245.02 26.0703 244.996 25.8828C244.996 25.6953 244.973 25.5195 244.926 25.3555C244.902 25.168 244.879 25.0156 244.855 24.8984C244.855 24.7109 244.949 24.6172 245.137 24.6172C245.324 24.6172 245.559 24.7227 245.84 24.9336C246.168 25.1445 246.379 25.332 246.473 25.4961C246.59 25.6602 246.613 25.8594 246.543 26.0938C246.426 26.4688 246.344 26.8906 246.297 27.3594C246.25 27.8281 246.227 28.1094 246.227 28.2031C246.508 28.1797 246.766 28.1445 247 28.0977C247.234 28.0508 247.387 28.0273 247.457 28.0273C247.645 27.9805 247.867 27.957 248.125 27.957C248.266 27.9805 248.465 28.1211 248.723 28.3789C248.934 28.6602 249.039 28.8828 249.039 29.0469C249.039 29.2812 248.816 29.375 248.371 29.3281C247.973 29.2578 247.574 29.2227 247.176 29.2227C246.777 29.2227 246.438 29.2344 246.156 29.2578C246.086 30.1016 245.945 30.9336 245.734 31.7539C245.688 31.9414 245.605 32.0938 245.488 32.2109C245.371 32.3516 245.266 32.4219 245.172 32.4219C245.008 32.4219 244.902 32.3516 244.855 32.2109C244.832 32.0938 244.82 31.8945 244.82 31.6133C244.867 31.0039 244.891 30.2422 244.891 29.3281C244.258 29.375 243.766 29.4219 243.414 29.4688C242.875 29.5859 242.371 29.6562 241.902 29.6797C241.879 30.6406 241.926 31.4961 242.043 32.2461C242.113 32.7383 242.254 33.0781 242.465 33.2656C242.605 33.3828 242.77 33.4531 242.957 33.4766C243.168 33.5 243.379 33.5117 243.59 33.5117C243.801 33.5117 243.941 33.5117 244.012 33.5117C244.738 33.5117 245.418 33.4766 246.051 33.4062C246.238 33.3828 246.402 33.3359 246.543 33.2656C246.707 33.1953 246.824 33.1602 246.895 33.1602C247.105 33.1602 247.316 33.2305 247.527 33.3711C247.738 33.5117 247.844 33.6758 247.844 33.8633C247.844 34.0508 247.738 34.1914 247.527 34.2852C247.34 34.3789 247.035 34.4609 246.613 34.5312C245.863 34.625 245.113 34.6719 244.363 34.6719ZM254.383 18.6758C254.664 18.6758 254.805 18.8047 254.805 19.0625C254.805 19.2031 254.676 19.4023 254.418 19.6602C253.715 20.5273 252.32 22.1797 250.234 24.6172C250.07 24.8281 249.918 24.9336 249.777 24.9336C249.66 24.9336 249.402 24.7578 249.004 24.4062C248.676 24.125 248.512 23.8906 248.512 23.7031C248.512 23.4922 248.688 23.293 249.039 23.1055C249.578 22.8008 250.387 22.1914 251.465 21.2773C252.543 20.3164 253.34 19.5547 253.855 18.9922C254.066 18.7812 254.242 18.6758 254.383 18.6758ZM209.699 30.1719C211.785 29.5156 213.648 28.8008 215.289 28.0273C214.938 27.5352 214.492 26.9727 213.953 26.3398C213.766 26.1055 213.672 25.918 213.672 25.7773C213.672 25.5195 213.824 25.2969 214.129 25.1094C214.434 24.8984 214.668 24.793 214.832 24.793C215.02 24.793 215.219 24.9102 215.43 25.1445C216.766 26.7148 217.902 28.0977 218.84 29.293C219.777 30.4883 220.246 31.2148 220.246 31.4727C220.246 31.6836 220.082 31.9297 219.754 32.2109C219.449 32.5156 219.156 32.668 218.875 32.668C218.641 32.668 218.406 32.4805 218.172 32.1055C217.633 31.2852 217.023 30.3945 216.344 29.4336L212.125 31.543C211.656 31.7539 210.918 32.1289 209.91 32.668C209.066 33.1133 208.551 33.3359 208.363 33.3359C208.223 33.3359 208.047 33.2422 207.836 33.0547C207.625 32.8906 207.461 32.6797 207.344 32.4219C207.25 32.1875 207.25 32 207.344 31.8594C207.484 31.6016 207.555 30.5703 207.555 28.7656V16.6016C207.555 16.0391 207.531 15.582 207.484 15.2305C207.461 14.8789 207.367 14.5039 207.203 14.1055C207.18 14.0352 207.156 13.9766 207.133 13.9297C207.109 13.8828 207.098 13.8359 207.098 13.7891C207.098 13.6719 207.18 13.6133 207.344 13.6133C207.648 13.6133 208.41 13.8711 209.629 14.3867L217.258 13.8594C217.445 13.8359 217.656 13.8242 217.891 13.8242C218.148 13.8242 218.453 13.9414 218.805 14.1758C219.156 14.3867 219.332 14.6211 219.332 14.8789C219.332 14.9727 219.273 15.1133 219.156 15.3008C219.062 15.4883 219.016 15.6289 219.016 15.7227L218.102 22.332C218.664 22.9883 218.945 23.4336 218.945 23.668C218.945 23.7852 218.875 23.8672 218.734 23.9141C218.617 23.9609 218.43 23.9844 218.172 23.9844L209.664 24.3008L209.699 30.1719ZM203.934 14.3867C203.934 14.1523 204.086 13.8711 204.391 13.543C206.102 11.6445 207.59 9.75781 208.855 7.88281C210.121 6.00781 210.754 4.75391 210.754 4.12109L210.719 3.875V3.76953C210.719 3.44141 210.848 3.27734 211.105 3.27734C211.41 3.27734 211.832 3.48828 212.371 3.91016C212.934 4.30859 213.215 4.63672 213.215 4.89453C213.215 5.01172 213.156 5.16406 213.039 5.35156C212.688 5.91406 212.301 6.47656 211.879 7.03906L216.871 6.65234C217.293 6.62891 217.738 6.53516 218.207 6.37109C218.348 6.32422 218.453 6.30078 218.523 6.30078C218.875 6.30078 219.25 6.5 219.648 6.89844C220.07 7.27344 220.281 7.56641 220.281 7.77734C220.281 8.05859 220.023 8.22266 219.508 8.26953L213.496 8.69141C213.66 8.73828 214.023 8.98438 214.586 9.42969C215.172 9.875 215.699 10.332 216.168 10.8008C216.637 11.2695 216.871 11.5977 216.871 11.7852C216.871 11.9961 216.73 12.2539 216.449 12.5586C216.168 12.8398 215.922 12.9805 215.711 12.9805C215.523 12.9805 215.301 12.8281 215.043 12.5234C214.246 11.6563 213.438 10.8945 212.617 10.2383C212.336 10.0039 212.195 9.80469 212.195 9.64062C212.195 9.52344 212.254 9.37109 212.371 9.18359C212.488 8.99609 212.641 8.84375 212.828 8.72656L210.473 8.90234C209.348 10.2852 208.105 11.5859 206.746 12.8047C205.387 14 204.52 14.5977 204.145 14.5977C204.004 14.5977 203.934 14.5273 203.934 14.3867ZM216.59 18.043L216.836 15.582L209.594 16.0742V18.3945L216.59 18.043ZM216.133 22.4023L216.414 19.6953L209.629 20.0117V22.6484L216.133 22.4023ZM218.031 12.875C218.031 12.6406 218.184 12.3594 218.488 12.0312C219.637 10.6484 220.68 9.08984 221.617 7.35547C222.578 5.59766 223.059 4.36719 223.059 3.66406V3.52344C223.059 3.17188 223.188 2.99609 223.445 2.99609C223.609 2.99609 223.855 3.08984 224.184 3.27734C224.535 3.44141 224.852 3.64063 225.133 3.875C225.414 4.10937 225.555 4.34375 225.555 4.57812C225.555 4.78906 225.391 5.16406 225.062 5.70312C224.734 6.24219 224.559 6.52344 224.535 6.54688L231.461 5.98438C231.977 5.9375 232.422 5.85547 232.797 5.73828C232.844 5.71484 232.938 5.70312 233.078 5.70312C233.406 5.70312 233.758 5.89063 234.133 6.26562C234.531 6.61719 234.73 6.91016 234.73 7.14453C234.73 7.28516 234.66 7.40234 234.52 7.49609C234.402 7.56641 234.238 7.61328 234.027 7.63672L226.891 8.12891C227.547 8.55078 228.32 9.17187 229.211 9.99219C230.102 10.7891 230.547 11.3281 230.547 11.6094C230.547 11.7734 230.418 12.0312 230.16 12.3828C229.902 12.7109 229.656 12.875 229.422 12.875C229.234 12.875 229.035 12.7578 228.824 12.5234C227.676 11.2812 226.633 10.2969 225.695 9.57031C225.461 9.38281 225.344 9.20703 225.344 9.04297C225.344 8.85547 225.52 8.57422 225.871 8.19922L223.27 8.375C222.496 9.40625 221.559 10.4492 220.457 11.5039C219.379 12.5586 218.652 13.0859 218.277 13.0859C218.113 13.0859 218.031 13.0156 218.031 12.875ZM221.336 13.6484C221.336 13.5078 221.418 13.4375 221.582 13.4375C221.934 13.4375 222.73 13.7305 223.973 14.3164L231.039 13.7188L231.32 13.6836C231.414 13.6836 231.59 13.7305 231.848 13.8242C232.129 13.8945 232.387 14.0234 232.621 14.2109C232.879 14.375 233.008 14.5977 233.008 14.8789C233.008 14.9727 232.973 15.1016 232.902 15.2656C232.832 15.4297 232.797 15.5469 232.797 15.6172C232.773 18.1953 232.609 20.9492 232.305 23.8789L232.234 24.7578C232.164 25.7422 232.07 26.5625 231.953 27.2188C231.836 27.875 231.637 28.3906 231.355 28.7656C230.91 29.375 230.43 29.6797 229.914 29.6797C229.398 29.6797 228.742 29.3633 227.945 28.7305C227.148 28.0977 226.41 27.4062 225.73 26.6562C225.074 25.9062 224.746 25.4258 224.746 25.2148C224.746 25.0508 224.84 24.9688 225.027 24.9688C225.238 24.9688 225.531 25.0859 225.906 25.3203C226.773 25.8594 227.5 26.293 228.086 26.6211C228.672 26.9492 229.094 27.1133 229.352 27.1133C229.469 27.1133 229.551 27.0312 229.598 26.8672C230.137 23.8672 230.465 20.1055 230.582 15.582L223.973 16.0742C223.973 20.0352 224.008 26.3164 224.078 34.918C224.078 35.1289 224.02 35.2812 223.902 35.375C223.809 35.4922 223.68 35.5508 223.516 35.5508C223.328 35.5508 223.105 35.4805 222.848 35.3398C222.402 35.1523 222.086 34.9766 221.898 34.8125C221.711 34.6484 221.617 34.4609 221.617 34.25L221.652 34.0039C221.793 33.2305 221.863 32.3633 221.863 31.4023L221.758 16.5664C221.758 15.957 221.734 15.4883 221.688 15.1602C221.664 14.832 221.594 14.5156 221.477 14.2109C221.383 13.9297 221.336 13.7422 221.336 13.6484Z" fill="#333333"/>
<path d="M164.531 72C164.198 72 163.99 71.9062 163.906 71.7188C163.802 71.4688 163.698 71.2604 163.594 71.0938C163.49 70.9062 163.302 70.6875 163.031 70.4375L163.094 70.3125C163.844 70.5833 164.333 70.7188 164.562 70.7188C164.729 70.7188 164.854 70.6875 164.938 70.625C165.021 70.5625 165.156 70.4167 165.344 70.1875C165.615 69.8958 165.865 69.4479 166.094 68.8438C166.406 67.9479 166.604 67.0208 166.688 66.0625V65.9688C166.688 65.8438 166.667 65.7604 166.625 65.7188C166.354 65.7188 165.635 65.7812 164.469 65.9062C163.823 67.5104 163.073 68.8333 162.219 69.875C161.385 70.8958 160.625 71.4062 159.938 71.4062C159.771 71.4062 159.688 71.3438 159.688 71.2188C159.688 71.1771 159.896 70.9375 160.312 70.5C160.729 70.0625 161.188 69.4896 161.688 68.7812C162.208 68.0521 162.698 67.1562 163.156 66.0938C163.052 66.0938 162.75 66.1146 162.25 66.1562C161.75 66.1979 161.323 66.2708 160.969 66.375C160.802 66.5 160.625 66.5208 160.438 66.4375C160.438 66.4375 160.417 66.4271 160.375 66.4062C160.333 66.3854 160.292 66.3542 160.25 66.3125C160.104 66.2292 159.979 66.125 159.875 66C159.792 65.8542 159.75 65.7188 159.75 65.5938C159.75 65.5312 159.802 65.4479 159.906 65.3438L160.281 64.8438C160.406 64.6771 160.521 64.4375 160.625 64.125C160.729 63.7917 160.781 63.5104 160.781 63.2812C160.781 63.1354 160.771 63.0417 160.75 63C160.729 62.9583 160.719 62.9062 160.719 62.8438C160.719 62.7396 160.771 62.6875 160.875 62.6875C161 62.6875 161.177 62.7604 161.406 62.9062C161.469 62.9479 161.583 63.0312 161.75 63.1562C161.938 63.2604 162.042 63.3854 162.062 63.5312C162.062 63.6771 161.979 63.9167 161.812 64.25L161.406 64.9688C161.365 65.0312 161.344 65.1042 161.344 65.1875C161.344 65.25 161.365 65.3021 161.406 65.3438C161.469 65.3646 161.542 65.3646 161.625 65.3438L163.5 65.0938C163.708 64.5521 163.875 63.9792 164 63.375V63.1875V62.6562C164 62.4271 164.062 62.3333 164.188 62.375C164.458 62.4375 164.677 62.5208 164.844 62.625C165.156 62.8125 165.312 62.9688 165.312 63.0938C165.312 63.1979 165.271 63.375 165.188 63.625C165.125 63.8542 165.073 64.0312 165.031 64.1562C165.01 64.2396 164.917 64.5104 164.75 64.9688C164.812 64.9688 165.198 64.9271 165.906 64.8438L166.219 64.7812C166.281 64.7812 166.396 64.7604 166.562 64.7188C166.604 64.6979 166.656 64.6875 166.719 64.6875C166.969 64.6875 167.125 64.6979 167.188 64.7188C167.271 64.7396 167.396 64.8021 167.562 64.9062C167.75 65.0312 167.875 65.1562 167.938 65.2812C168 65.4062 168.021 65.5521 168 65.7188L167.812 66.75L167.594 67.875C167.594 67.9583 167.521 68.2292 167.375 68.6875C167.229 69.1458 167.062 69.5521 166.875 69.9062C166.521 70.6146 166.104 71.1458 165.625 71.5C165.208 71.8333 164.844 72 164.531 72ZM160.469 79.0938C160.24 79.0938 159.958 78.9167 159.625 78.5625C159.375 78.3125 159.25 78.125 159.25 78C159.25 77.9375 159.292 77.9062 159.375 77.9062C159.458 77.8854 159.562 77.875 159.688 77.875L160.375 77.8438C160.771 77.8438 161.031 77.8333 161.156 77.8125C161.552 77.8125 161.885 77.8021 162.156 77.7812C163.948 77.6146 165.156 77.4792 165.781 77.375C166.094 77.3333 166.375 77.2917 166.625 77.25C166.875 77.1875 167.073 77.1562 167.219 77.1562C167.51 77.1562 167.802 77.3021 168.094 77.5938C168.323 77.8229 168.438 78.0104 168.438 78.1562C168.438 78.2812 168.365 78.3646 168.219 78.4062C168.115 78.4271 167.5 78.4688 166.375 78.5312C165.75 78.5521 164.979 78.6042 164.062 78.6875C163.146 78.7708 162.344 78.8542 161.656 78.9375C161.531 78.9583 161.354 78.9896 161.125 79.0312C160.896 79.0729 160.677 79.0938 160.469 79.0938ZM169.562 71.2188C169.667 71.2188 169.823 71.2917 170.031 71.4375C170.01 71.4792 170.052 71.5625 170.156 71.6875C170.26 71.7917 170.333 71.8646 170.375 71.9062C170.479 72.0104 170.583 72.1354 170.688 72.2812C170.812 72.4271 170.948 72.5833 171.094 72.75C171.469 73.1458 172.333 74.1771 173.688 75.8438C173.917 76.1771 174.031 76.375 174.031 76.4375C174.031 76.6458 173.906 76.75 173.656 76.75C173.51 76.75 173.354 76.6458 173.188 76.4375C172.792 76.0208 172.083 75.3646 171.062 74.4688C170.271 73.7396 169.552 73.1771 168.906 72.7812C168.594 72.6354 168.438 72.4688 168.438 72.2812C168.438 72.1354 168.594 71.9271 168.906 71.6562C169.198 71.3646 169.417 71.2188 169.562 71.2188ZM133.625 68.2188C133.396 68.2396 133.104 68.25 132.75 68.25H132.438C131.812 68.1875 131.385 67.9375 131.156 67.5C130.927 67.0417 130.812 66.6875 130.812 66.4375C130.812 66.2917 130.875 66.2188 131 66.2188C131.083 66.2188 131.156 66.2292 131.219 66.25C131.594 66.3542 132.052 66.4062 132.594 66.4062H133L151 65.4375C151.479 65.3958 151.948 65.3021 152.406 65.1562C152.448 65.1354 152.521 65.125 152.625 65.125C152.896 65.125 153.25 65.3333 153.688 65.75C154.146 66.1667 154.375 66.4792 154.375 66.6875C154.375 66.9375 154.115 67.0833 153.594 67.125L133.625 68.2188ZM128.688 83.0625C128.688 82.9375 128.75 82.875 128.875 82.875C128.958 82.875 129.031 82.8854 129.094 82.9062C129.552 83.0104 130.01 83.0625 130.469 83.0625L131.156 83.0312L142.938 82.5938C143.812 80.8438 144.562 79.1146 145.188 77.4062C145.812 75.6979 146.281 74.2292 146.594 73C146.927 71.7708 147.094 70.9896 147.094 70.6562C147.094 70.3646 147.031 70.0312 146.906 69.6562C146.844 69.5312 146.812 69.4167 146.812 69.3125C146.812 69.125 146.927 69.0312 147.156 69.0312C147.385 69.0312 147.708 69.1042 148.125 69.25C148.562 69.375 148.948 69.5625 149.281 69.8125C149.615 70.0417 149.781 70.2917 149.781 70.5625L149.75 70.6875C148.312 75.2917 146.656 79.2396 144.781 82.5312L152.719 82.2188C153.302 82.1771 153.823 82.0938 154.281 81.9688C154.448 81.9271 154.562 81.9062 154.625 81.9062C154.812 81.9062 155.062 82.0104 155.375 82.2188C155.688 82.4062 155.958 82.6354 156.188 82.9062C156.438 83.1771 156.562 83.4167 156.562 83.625C156.562 83.8958 156.302 84.0521 155.781 84.0938L131.812 84.9688L130.781 85C130.26 85 129.896 84.9062 129.688 84.7188C129.354 84.4479 129.104 84.1458 128.938 83.8125C128.771 83.4792 128.688 83.2292 128.688 83.0625ZM134.781 70.875C134.781 70.6458 134.927 70.4375 135.219 70.25C135.531 70.0417 135.792 69.9375 136 69.9375C136.146 69.9375 136.271 69.9896 136.375 70.0938C136.479 70.1771 136.594 70.3125 136.719 70.5C137.448 71.75 138.146 73.0729 138.812 74.4688C139.479 75.8438 140.01 77.0625 140.406 78.125C140.823 79.1875 141.031 79.8438 141.031 80.0938C141.031 80.4271 140.833 80.7083 140.438 80.9375C140.042 81.1667 139.719 81.2812 139.469 81.2812C139.302 81.2812 139.167 81.2292 139.062 81.125C138.979 81 138.896 80.8229 138.812 80.5938C137.812 77.4896 136.542 74.4583 135 71.5C134.854 71.2083 134.781 71 134.781 70.875ZM139.188 60.0312C139.188 59.9062 139.302 59.7188 139.531 59.4688C139.781 59.1979 140.01 59.0625 140.219 59.0625C140.448 59.0625 140.979 59.4479 141.812 60.2188C142.646 60.9688 143.438 61.7708 144.188 62.625C144.938 63.4792 145.312 64.0104 145.312 64.2188C145.312 64.3854 145.146 64.6146 144.812 64.9062C144.5 65.1979 144.208 65.3438 143.938 65.3438C143.75 65.3438 143.562 65.2188 143.375 64.9688C142.146 63.3229 140.875 61.875 139.562 60.625C139.312 60.3958 139.188 60.1979 139.188 60.0312ZM212.344 72.2812C212.01 72.2812 211.812 72.1146 211.75 71.7812C211.625 71.4271 211.292 70.9896 210.75 70.4688L210.844 70.3438C210.927 70.3854 211.167 70.4896 211.562 70.6562C211.958 70.8021 212.229 70.875 212.375 70.875C212.5 70.875 212.594 70.875 212.656 70.875C212.719 70.8542 212.792 70.8021 212.875 70.7188C213.125 70.5312 213.438 70.1042 213.812 69.4375C214.083 68.8958 214.323 68.2604 214.531 67.5312C214.76 66.8021 214.875 66.25 214.875 65.875C214.875 65.7708 214.792 65.7188 214.625 65.7188L213.438 65.7812L212.625 65.8438L212.094 65.875L211.875 65.9062C212.021 66.0104 212.115 66.1042 212.156 66.1875C212.219 66.25 212.25 66.3333 212.25 66.4375C212.25 66.5417 212.125 66.8333 211.875 67.3125C211.667 67.7708 211.333 68.2917 210.875 68.875C210.5 69.375 209.99 69.9167 209.344 70.5C208.719 71.0625 208.25 71.3542 207.938 71.375C207.875 71.375 207.812 71.3646 207.75 71.3438C207.708 71.3021 207.688 71.25 207.688 71.1875C207.688 71.1667 207.854 70.9688 208.188 70.5938L209.062 69.5625C209.688 68.7292 210.323 67.6667 210.969 66.375C211.031 66.2083 211 66.1146 210.875 66.0938C210.75 66.1146 210.49 66.1458 210.094 66.1875C209.698 66.2083 209.344 66.2708 209.031 66.375C209.01 66.375 208.938 66.4062 208.812 66.4688C208.688 66.5104 208.583 66.5312 208.5 66.5312C208.375 66.5312 208.271 66.4896 208.188 66.4062L207.938 66.1875C207.75 66.0417 207.656 65.9062 207.656 65.7812C207.656 65.7396 207.677 65.6771 207.719 65.5938L207.875 65.3438C207.958 65.2396 208.094 65.0729 208.281 64.8438C208.469 64.6146 208.677 64.3021 208.906 63.9062C208.948 63.8229 209.031 63.6354 209.156 63.3438C209.302 63.0521 209.375 62.875 209.375 62.8125V62.6875C209.375 62.5625 209.396 62.4792 209.438 62.4375C209.479 62.3958 209.573 62.3958 209.719 62.4375C209.865 62.4792 210.042 62.5938 210.25 62.7812L210.594 63.125C210.656 63.1875 210.688 63.2604 210.688 63.3438C210.688 63.5521 210.396 63.9271 209.812 64.4688C209.708 64.5729 209.583 64.7292 209.438 64.9375C209.292 65.1458 209.219 65.2812 209.219 65.3438C209.219 65.4688 209.312 65.5104 209.5 65.4688L210.219 65.375C211.865 65.125 213.104 64.9792 213.938 64.9375L214.781 64.8125L215.062 64.75L215.219 64.7188C215.385 64.7188 215.5 64.7396 215.562 64.7812C215.625 64.8229 215.688 64.8958 215.75 65C215.812 65.0833 215.875 65.1562 215.938 65.2188C216.083 65.3854 216.188 65.5312 216.25 65.6562L216.312 65.9375L216.25 66.0625L216.188 66.25C216.146 66.3542 216.115 66.4583 216.094 66.5625C216.073 66.6458 216.042 66.7396 216 66.8438C215.562 68.5312 215.052 69.8438 214.469 70.7812C214.281 71.1146 213.958 71.4479 213.5 71.7812C213.062 72.1146 212.677 72.2812 212.344 72.2812ZM213.125 77C212.917 77.2708 212.698 77.4062 212.469 77.4062C212.406 77.4062 212.375 77.3542 212.375 77.25C212.375 77.1042 212.417 76.9375 212.5 76.75C212.5 76.75 212.708 76.3333 213.125 75.5C213.146 75.4167 213.177 75.3333 213.219 75.25C213.26 75.1667 213.292 75.0938 213.312 75.0312V75C213.312 74.9583 213.281 74.9167 213.219 74.875C213.156 74.8333 213.083 74.8229 213 74.8438C212.667 74.8646 212.167 74.9167 211.5 75C210.854 75.0833 210.375 75.1667 210.062 75.25C209.938 75.2917 209.781 75.3438 209.594 75.4062C209.427 75.4688 209.292 75.5 209.188 75.5C208.812 75.5 208.5 75.3854 208.25 75.1562C208.042 75.0104 207.885 74.8646 207.781 74.7188L207.719 74.5625C207.719 74.4583 207.896 74.4271 208.25 74.4688C208.729 74.5104 209.719 74.4479 211.219 74.2812L211.844 74.1875C212.01 74.1667 212.271 74.1354 212.625 74.0938C213 74.0312 213.292 73.9688 213.5 73.9062C213.562 73.8854 213.625 73.8646 213.688 73.8438C213.771 73.8021 213.844 73.7812 213.906 73.7812C214.01 73.7812 214.135 73.8333 214.281 73.9375C214.448 74.0417 214.583 74.1354 214.688 74.2188C214.833 74.3229 214.927 74.4167 214.969 74.5C215.031 74.5625 215.052 74.6458 215.031 74.75C215.031 74.8542 214.979 74.9479 214.875 75.0312C214.771 75.1146 214.698 75.1771 214.656 75.2188C214.615 75.2812 214.469 75.4375 214.219 75.6875C214.115 75.8542 213.927 76.0833 213.656 76.375C213.406 76.6667 213.229 76.875 213.125 77ZM211.562 83.1562C211.562 83.0938 211.667 82.9375 211.875 82.6875C212.104 82.4167 212.281 82.2083 212.406 82.0625C212.719 81.6458 213.094 81.0417 213.531 80.25C213.99 79.4583 214.25 78.9375 214.312 78.6875C214.354 78.5625 214.292 78.5 214.125 78.5C213.792 78.5 212.875 78.5938 211.375 78.7812C210.396 78.9062 209.667 79.0312 209.188 79.1562C209.083 79.2188 208.979 79.25 208.875 79.25C208.708 79.25 208.531 79.1354 208.344 78.9062C208.26 78.7604 208.219 78.625 208.219 78.5C208.219 78.4167 208.271 78.3333 208.375 78.25L208.469 78.125C208.531 78 208.604 77.8333 208.688 77.625C208.771 77.4167 208.844 77.2188 208.906 77.0312C209.01 76.6979 209.083 76.3333 209.125 75.9375C209.146 75.7083 209.271 75.6458 209.5 75.75C209.792 75.8958 210.01 76.0417 210.156 76.1875C210.323 76.3125 210.375 76.4062 210.312 76.4688C210.104 76.7188 209.938 77 209.812 77.3125C209.708 77.6458 209.646 77.8646 209.625 77.9688C209.625 78.0521 209.677 78.0938 209.781 78.0938C210.094 78.0938 210.562 78.0417 211.188 77.9375C211.542 77.8958 211.979 77.8438 212.5 77.7812C213.021 77.7188 213.438 77.6562 213.75 77.5938L214.531 77.4375C214.594 77.4167 214.677 77.4062 214.781 77.4062C214.885 77.4062 214.99 77.4479 215.094 77.5312C215.198 77.5938 215.312 77.6771 215.438 77.7812C215.646 77.9688 215.781 78.125 215.844 78.25C215.906 78.3542 215.938 78.4792 215.938 78.625C215.938 78.7083 215.875 78.8125 215.75 78.9375C215.646 79.0625 215.521 79.2604 215.375 79.5312C214.771 80.7604 213.99 81.7917 213.031 82.625C212.76 82.8333 212.458 83.0104 212.125 83.1562C211.979 83.1979 211.844 83.2292 211.719 83.25C211.615 83.25 211.562 83.2188 211.562 83.1562ZM217.562 71.2188C217.667 71.2188 217.823 71.2917 218.031 71.4375C218.01 71.4792 218.052 71.5625 218.156 71.6875C218.26 71.7917 218.333 71.8646 218.375 71.9062C218.479 72.0104 218.583 72.1354 218.688 72.2812C218.812 72.4271 218.948 72.5833 219.094 72.75C219.469 73.1458 220.333 74.1771 221.688 75.8438C221.917 76.1771 222.031 76.375 222.031 76.4375C222.031 76.6458 221.906 76.75 221.656 76.75C221.51 76.75 221.354 76.6458 221.188 76.4375C220.792 76.0208 220.083 75.3646 219.062 74.4688C218.271 73.7396 217.552 73.1771 216.906 72.7812C216.594 72.6354 216.438 72.4688 216.438 72.2812C216.438 72.1354 216.594 71.9271 216.906 71.6562C217.198 71.3646 217.417 71.2188 217.562 71.2188ZM191.406 83.9688C193.552 83.8438 195.542 83.6875 197.375 83.5C196.896 83.1458 196.354 82.7917 195.75 82.4375C195.479 82.2917 195.344 82.1146 195.344 81.9062C195.344 81.7188 195.448 81.4896 195.656 81.2188C195.885 80.9271 196.094 80.7812 196.281 80.7812C196.51 80.7812 197.292 81.2083 198.625 82.0625C199.958 82.9167 201.24 83.8229 202.469 84.7812C202.719 84.9479 202.844 85.1458 202.844 85.375C202.844 85.625 202.708 85.9167 202.438 86.25C202.167 86.5833 201.938 86.75 201.75 86.75C201.646 86.75 201.51 86.6875 201.344 86.5625C200.385 85.7292 199.646 85.125 199.125 84.75C195.333 85.2292 191.406 85.6354 187.344 85.9688C183.302 86.3021 181.021 86.4688 180.5 86.4688C180.146 86.4688 179.802 86.3646 179.469 86.1562C179.156 85.9479 178.885 85.4583 178.656 84.6875L178.625 84.5C178.625 84.3542 178.708 84.2812 178.875 84.2812C178.979 84.2812 179.062 84.2917 179.125 84.3125C179.604 84.4167 180.219 84.4688 180.969 84.4688C183.427 84.4062 186.292 84.2917 189.562 84.125L189.531 80.7812L184.469 80.9688L184.5 81.25V81.3438C184.5 81.7396 184.312 81.9375 183.938 81.9375C183.729 81.9375 183.479 81.875 183.188 81.75C182.896 81.6042 182.688 81.4688 182.562 81.3438C182.458 81.1979 182.406 81.0104 182.406 80.7812V80.5938C182.448 80.2604 182.469 79.9583 182.469 79.6875C182.469 79.4583 182.458 79.2812 182.438 79.1562L182.156 76.3125C182.135 75.9375 182.021 75.5625 181.812 75.1875C181.604 74.8125 181.5 74.5417 181.5 74.375C181.5 74.2083 181.615 74.125 181.844 74.125C182.24 74.125 182.958 74.3438 184 74.7812L189.469 74.5625V73.5938C189.469 73.1146 189.333 72.6979 189.062 72.3438C188.979 72.2396 188.938 72.1458 188.938 72.0625C188.938 71.9167 189.073 71.8438 189.344 71.8438C189.74 71.8438 190.188 71.9167 190.688 72.0625C191.188 72.1875 191.438 72.4583 191.438 72.875V74.4688L197.469 74.2188H197.781C198.156 74.2188 198.448 74.2917 198.656 74.4375C198.885 74.5625 199.042 74.7083 199.125 74.875C199.229 75.0417 199.281 75.1458 199.281 75.1875C199.281 75.2708 199.24 75.375 199.156 75.5C199.094 75.6042 199.062 75.6875 199.062 75.75L198.469 78.9375C199.031 79.5 199.312 79.8854 199.312 80.0938C199.312 80.2188 199.24 80.3021 199.094 80.3438C198.948 80.3854 198.719 80.4167 198.406 80.4375L191.406 80.6875V83.9688ZM177.062 74.5312C177.062 74.3229 177.24 74.0521 177.594 73.7188C178.76 72.6979 179.854 71.5729 180.875 70.3438C181.896 69.1146 182.708 67.9688 183.312 66.9062C183.938 65.8438 184.25 65.0417 184.25 64.5C184.25 64.1042 184.354 63.9062 184.562 63.9062C184.792 63.9062 185.177 64.0729 185.719 64.4062C186.26 64.7188 186.531 64.9896 186.531 65.2188C186.531 65.4062 186.354 65.7917 186 66.375C185.646 66.9375 185.323 67.4271 185.031 67.8438C186.344 68.4062 187.844 68.9271 189.531 69.4062L189.594 62.5938L182.25 63.125C182.042 63.1458 181.792 63.1562 181.5 63.1562C180.729 63.1562 180.188 62.7188 179.875 61.8438C179.812 61.7188 179.781 61.6146 179.781 61.5312C179.781 61.3854 179.865 61.3125 180.031 61.3125C180.135 61.3125 180.219 61.3229 180.281 61.3438C180.573 61.4062 180.906 61.4375 181.281 61.4375H181.688L199.188 60.2812L199.656 60.25C199.948 60.25 200.25 60.3854 200.562 60.6562C200.896 60.9062 201.062 61.1771 201.062 61.4688C201.062 61.7188 200.958 61.9271 200.75 62.0938C200.562 62.2396 200.448 62.3229 200.406 62.3438C199.677 62.9479 198.948 63.4896 198.219 63.9688C197.49 64.4271 196.958 64.6562 196.625 64.6562C196.417 64.6562 196.312 64.5729 196.312 64.4062C196.312 64.1979 196.49 63.9167 196.844 63.5625C197.323 63.0833 197.75 62.5625 198.125 62L191.531 62.4688L191.5 65.6562L195 65.4688C195.354 65.4688 195.76 65.3646 196.219 65.1562C196.302 65.1146 196.396 65.0938 196.5 65.0938C196.792 65.0938 197.135 65.2812 197.531 65.6562C197.948 66.0104 198.156 66.3021 198.156 66.5312C198.156 66.8021 197.875 66.9583 197.312 67L191.469 67.2812L191.438 69.875C195.042 70.7083 199.073 71.125 203.531 71.125C203.969 71.125 204.188 71.2292 204.188 71.4375C204.188 71.5625 204.125 71.75 204 72C203.833 72.3958 203.677 72.6562 203.531 72.7812C203.385 72.8854 203.156 72.9375 202.844 72.9375H202.562C199.292 72.8333 196.073 72.4896 192.906 71.9062C189.76 71.3021 186.812 70.3958 184.062 69.1875C183.271 70.2083 182.396 71.1458 181.438 72C180.5 72.8542 179.646 73.5312 178.875 74.0312C178.104 74.5104 177.583 74.75 177.312 74.75C177.146 74.75 177.062 74.6771 177.062 74.5312ZM184.344 79.375L189.5 79.1875V76.125L184.062 76.3438L184.344 79.375ZM196.562 78.9375L197 75.8438L191.438 76.0625L191.406 79.125L196.562 78.9375Z" fill="#333333"/>
</svg>
