<svg width="350" height="88" viewBox="0 0 350 88" fill="none" xmlns="http://www.w3.org/2000/svg">
<path d="M136.012 14.5977C135.637 14.5977 135.414 14.4102 135.344 14.0352C135.203 13.6367 134.828 13.1445 134.219 12.5586L134.324 12.418C134.418 12.4648 134.688 12.582 135.133 12.7695C135.578 12.9336 135.883 13.0156 136.047 13.0156C136.188 13.0156 136.293 13.0156 136.363 13.0156C136.434 12.9922 136.516 12.9336 136.609 12.8398C136.891 12.6289 137.242 12.1484 137.664 11.3984C137.969 10.7891 138.238 10.0742 138.473 9.25391C138.73 8.43359 138.859 7.8125 138.859 7.39062C138.859 7.27344 138.766 7.21484 138.578 7.21484L137.242 7.28516L136.328 7.35547L135.73 7.39062L135.484 7.42578C135.648 7.54297 135.754 7.64844 135.801 7.74219C135.871 7.8125 135.906 7.90625 135.906 8.02344C135.906 8.14063 135.766 8.46875 135.484 9.00781C135.25 9.52344 134.875 10.1094 134.359 10.7656C133.938 11.3281 133.363 11.9375 132.637 12.5938C131.934 13.2266 131.406 13.5547 131.055 13.5781C130.984 13.5781 130.914 13.5664 130.844 13.543C130.797 13.4961 130.773 13.4375 130.773 13.3672C130.773 13.3438 130.961 13.1211 131.336 12.6992L132.32 11.5391C133.023 10.6016 133.738 9.40625 134.465 7.95312C134.535 7.76562 134.5 7.66016 134.359 7.63672C134.219 7.66016 133.926 7.69531 133.48 7.74219C133.035 7.76562 132.637 7.83594 132.285 7.95312C132.262 7.95312 132.18 7.98828 132.039 8.05859C131.898 8.10547 131.781 8.12891 131.688 8.12891C131.547 8.12891 131.43 8.08203 131.336 7.98828L131.055 7.74219C130.844 7.57813 130.738 7.42578 130.738 7.28516C130.738 7.23828 130.762 7.16797 130.809 7.07422L130.984 6.79297C131.078 6.67578 131.23 6.48828 131.441 6.23047C131.652 5.97266 131.887 5.62109 132.145 5.17578C132.191 5.08203 132.285 4.87109 132.426 4.54297C132.59 4.21484 132.672 4.01562 132.672 3.94531V3.80469C132.672 3.66406 132.695 3.57031 132.742 3.52344C132.789 3.47656 132.895 3.47656 133.059 3.52344C133.223 3.57031 133.422 3.69922 133.656 3.91016L134.043 4.29688C134.113 4.36719 134.148 4.44922 134.148 4.54297C134.148 4.77734 133.82 5.19922 133.164 5.80859C133.047 5.92578 132.906 6.10156 132.742 6.33594C132.578 6.57031 132.496 6.72266 132.496 6.79297C132.496 6.93359 132.602 6.98047 132.812 6.93359L133.621 6.82812C135.473 6.54688 136.867 6.38281 137.805 6.33594L138.754 6.19531L139.07 6.125L139.246 6.08984C139.434 6.08984 139.562 6.11328 139.633 6.16016C139.703 6.20703 139.773 6.28906 139.844 6.40625C139.914 6.5 139.984 6.58203 140.055 6.65234C140.219 6.83984 140.336 7.00391 140.406 7.14453L140.477 7.46094L140.406 7.60156L140.336 7.8125C140.289 7.92969 140.254 8.04687 140.23 8.16406C140.207 8.25781 140.172 8.36328 140.125 8.48047C139.633 10.3789 139.059 11.8555 138.402 12.9102C138.191 13.2852 137.828 13.6602 137.312 14.0352C136.82 14.4102 136.387 14.5977 136.012 14.5977ZM139.211 23.668C138.859 23.668 138.52 23.4102 138.191 22.8945C137.77 22.2383 137.359 21.6992 136.961 21.2773L136.047 20.3281C135.555 20.8906 135.121 21.3359 134.746 21.6641C134.395 21.9922 133.949 22.3086 133.41 22.6133C132.402 23.1992 131.559 23.4922 130.879 23.4922C130.715 23.4922 130.633 23.4336 130.633 23.3164C130.633 23.2461 130.855 23.0938 131.301 22.8594C131.746 22.625 132.168 22.3438 132.566 22.0156C133.574 21.1719 134.406 20.3047 135.062 19.4141C134.922 19.2734 134.219 18.6641 132.953 17.5859C132.789 17.4688 132.543 17.2695 132.215 16.9883C132.145 16.9414 132.004 16.8359 131.793 16.6719C131.582 16.5078 131.477 16.3906 131.477 16.3203C131.477 16.2031 131.535 16.1445 131.652 16.1445C132.004 16.1445 132.566 16.3906 133.34 16.8828C134.113 17.3516 134.922 17.9141 135.766 18.5703C136.094 18.1719 136.352 17.7969 136.539 17.4453C136.727 17.0938 136.938 16.6602 137.172 16.1445C137.289 15.8867 137.359 15.6641 137.383 15.4766C137.406 15.2656 137.418 15.1367 137.418 15.0898C137.418 14.832 137.488 14.7031 137.629 14.7031C137.793 14.7031 138.016 14.832 138.297 15.0898C138.789 15.5586 139.035 15.875 139.035 16.0391C139.035 16.1328 138.977 16.2383 138.859 16.3555C138.578 16.6367 138.32 17.0117 138.086 17.4805C137.945 17.7617 137.688 18.1602 137.312 18.6758C137.195 18.8164 137.102 18.9453 137.031 19.0625C136.961 19.1797 136.891 19.2852 136.82 19.3789C137.359 19.7773 138.156 20.457 139.211 21.418C139.469 21.6523 139.633 21.875 139.703 22.0859C139.797 22.2734 139.844 22.5312 139.844 22.8594C139.844 23.0938 139.785 23.293 139.668 23.457C139.551 23.5977 139.398 23.668 139.211 23.668ZM136.891 27.9922C136.656 28.2969 136.41 28.4492 136.152 28.4492C136.082 28.4492 136.047 28.3906 136.047 28.2734C136.047 28.1094 136.094 27.9219 136.188 27.7109C136.188 27.7109 136.422 27.2422 136.891 26.3047C136.914 26.2109 136.949 26.1172 136.996 26.0234C137.043 25.9297 137.078 25.8477 137.102 25.7773V25.7422C137.102 25.6953 137.066 25.6484 136.996 25.6016C136.926 25.5547 136.844 25.543 136.75 25.5664C136.375 25.5898 135.812 25.6484 135.062 25.7422C134.336 25.8359 133.797 25.9297 133.445 26.0234C133.305 26.0703 133.129 26.1289 132.918 26.1992C132.73 26.2695 132.578 26.3047 132.461 26.3047C132.039 26.3047 131.688 26.1758 131.406 25.918C131.172 25.7539 130.996 25.5898 130.879 25.4258L130.809 25.25C130.809 25.1328 131.008 25.0977 131.406 25.1445C131.945 25.1914 133.059 25.1211 134.746 24.9336L135.449 24.8281C135.637 24.8047 135.93 24.7695 136.328 24.7227C136.75 24.6523 137.078 24.582 137.312 24.5117C137.383 24.4883 137.453 24.4648 137.523 24.4414C137.617 24.3945 137.699 24.3711 137.77 24.3711C137.887 24.3711 138.027 24.4297 138.191 24.5469C138.379 24.6641 138.531 24.7695 138.648 24.8633C138.812 24.9805 138.918 25.0859 138.965 25.1797C139.035 25.25 139.059 25.3438 139.035 25.4609C139.035 25.5781 138.977 25.6836 138.859 25.7773C138.742 25.8711 138.66 25.9414 138.613 25.9883C138.566 26.0586 138.402 26.2344 138.121 26.5156C138.004 26.7031 137.793 26.9609 137.488 27.2891C137.207 27.6172 137.008 27.8516 136.891 27.9922ZM135.133 34.918C135.133 34.8477 135.25 34.6602 135.484 34.3555C135.742 34.0742 135.941 33.8516 136.082 33.6875C136.434 33.2188 136.855 32.5391 137.348 31.6484C137.863 30.7578 138.156 30.1719 138.227 29.8906C138.273 29.75 138.203 29.6797 138.016 29.6797C137.641 29.6797 136.609 29.7852 134.922 29.9961C133.82 30.1367 133 30.2773 132.461 30.418C132.344 30.4883 132.227 30.5234 132.109 30.5234C131.922 30.5234 131.723 30.3945 131.512 30.1367C131.418 29.9727 131.371 29.8203 131.371 29.6797C131.371 29.5859 131.43 29.4922 131.547 29.3984L131.652 29.2578C131.723 29.1172 131.805 28.9297 131.898 28.6953C131.992 28.4609 132.074 28.2383 132.145 28.0273C132.262 27.6523 132.344 27.2422 132.391 26.7969C132.414 26.5391 132.555 26.4688 132.812 26.5859C133.141 26.75 133.387 26.9141 133.551 27.0781C133.738 27.2188 133.797 27.3242 133.727 27.3945C133.492 27.6758 133.305 27.9922 133.164 28.3438C133.047 28.7188 132.977 28.9648 132.953 29.082C132.953 29.1758 133.012 29.2227 133.129 29.2227C133.48 29.2227 134.008 29.1641 134.711 29.0469C135.109 29 135.602 28.9414 136.188 28.8711C136.773 28.8008 137.242 28.7305 137.594 28.6602L138.473 28.4844C138.543 28.4609 138.637 28.4492 138.754 28.4492C138.871 28.4492 138.988 28.4961 139.105 28.5898C139.223 28.6602 139.352 28.7539 139.492 28.8711C139.727 29.082 139.879 29.2578 139.949 29.3984C140.02 29.5156 140.055 29.6562 140.055 29.8203C140.055 29.9141 139.984 30.0312 139.844 30.1719C139.727 30.3125 139.586 30.5352 139.422 30.8398C138.742 32.2227 137.863 33.3828 136.785 34.3203C136.48 34.5547 136.141 34.7539 135.766 34.918C135.602 34.9648 135.449 34.9883 135.309 34.9883C135.191 35.0117 135.133 34.9883 135.133 34.918ZM126.273 33.4414C126.273 34.0039 126.109 34.4492 125.781 34.7773C125.453 35.1289 125.09 35.3047 124.691 35.3047C124.41 35.3047 123.953 35.0469 123.32 34.5312C122.711 34.0156 122.148 33.4531 121.633 32.8438C121.117 32.2344 120.859 31.8242 120.859 31.6133C120.859 31.4492 120.941 31.3672 121.105 31.3672C121.293 31.3672 121.551 31.4609 121.879 31.6484C122.887 32.2109 123.637 32.5742 124.129 32.7383L124.34 23.7734L120.754 23.9492L120.684 33.1602C120.684 33.4414 120.637 33.6523 120.543 33.793C120.473 33.957 120.332 34.0391 120.121 34.0391C119.84 34.0391 119.5 33.9219 119.102 33.6875C118.703 33.4766 118.504 33.207 118.504 32.8789C118.504 32.7617 118.516 32.668 118.539 32.5977C118.656 31.8945 118.715 31.0742 118.715 30.1367L118.785 24.0195L115.867 24.1602L116.008 33.2656C116.008 33.8516 115.809 34.1445 115.41 34.1445C115.129 34.1445 114.777 34.0039 114.355 33.7227C113.957 33.4414 113.758 33.1602 113.758 32.8789V32.668C113.852 32.082 113.898 31.2617 113.898 30.207L113.828 24.2305L110.91 24.3711L111.016 34.2852C111.016 34.8008 110.828 35.0586 110.453 35.0586C109.961 34.9648 109.539 34.8008 109.188 34.5664C108.859 34.3555 108.695 34.0859 108.695 33.7578L108.73 33.4414C108.848 32.668 108.906 31.9883 108.906 31.4023L108.871 24.5117C108.871 23.6211 108.766 22.9414 108.555 22.4727C108.461 22.2383 108.414 22.0859 108.414 22.0156C108.414 21.8516 108.508 21.7695 108.695 21.7695C109.047 21.7695 109.797 22.0625 110.945 22.6484L114.109 22.5078C115 21.1016 115.445 19.9766 115.445 19.1328V18.8867L110.805 19.1328H110.312C109.703 19.1328 109.293 19.0391 109.082 18.8516C108.824 18.6172 108.602 18.3477 108.414 18.043C108.227 17.7383 108.133 17.4922 108.133 17.3047C108.133 17.1172 108.227 17.0234 108.414 17.0234L108.695 17.0938C109.164 17.2344 109.633 17.3047 110.102 17.3047H110.418L123.285 16.5664C123.707 16.543 124.117 16.4727 124.516 16.3555C124.703 16.3086 124.832 16.2852 124.902 16.2852C125.16 16.2852 125.5 16.4727 125.922 16.8477C126.344 17.1992 126.555 17.5273 126.555 17.832C126.555 18.1133 126.262 18.2773 125.676 18.3242L117.098 18.7812C117.52 19.0156 117.73 19.25 117.73 19.4844C117.73 19.625 117.566 19.9883 117.238 20.5742C116.91 21.1602 116.547 21.7695 116.148 22.4023L124.797 21.9805L125.254 21.9453C125.582 21.9453 125.898 22.0625 126.203 22.2969C126.508 22.5312 126.66 22.8125 126.66 23.1406C126.66 23.2344 126.625 23.375 126.555 23.5625C126.508 23.7266 126.484 23.8555 126.484 23.9492L126.273 32.457V33.4414ZM95.125 27.7461C95.125 27.5586 95.2656 27.4648 95.5469 27.4648C96.1094 27.4648 96.7539 27.3828 97.4805 27.2188C98.7461 26.9375 100.082 26.5859 101.488 26.1641C102.402 23.3281 103.035 21.1133 103.387 19.5195C103.738 17.9023 103.914 16.8477 103.914 16.3555C103.914 16.2383 103.891 16.0391 103.844 15.7578C103.82 15.6641 103.809 15.5586 103.809 15.4414C103.809 15.2305 103.891 15.125 104.055 15.125C104.195 15.125 104.441 15.207 104.793 15.3711C105.145 15.5117 105.461 15.6992 105.742 15.9336C106.047 16.168 106.199 16.4375 106.199 16.7422C106.199 16.8594 106.188 16.9414 106.164 16.9883C105.812 18.4414 105.426 19.8125 105.004 21.1016C104.582 22.3672 104.066 23.8555 103.457 25.5664C104.91 25.0977 105.988 24.7344 106.691 24.4766C107.324 24.2656 107.793 24.1602 108.098 24.1602C108.355 24.1602 108.484 24.2188 108.484 24.3359C108.484 24.6406 107.629 25.2266 105.918 26.0938C104.23 26.9375 102.402 27.7578 100.434 28.5547C98.4648 29.3516 97.3047 29.75 96.9531 29.75C96.6953 29.75 96.3906 29.5625 96.0391 29.1875C95.6875 28.8125 95.418 28.4375 95.2305 28.0625C95.1602 27.9219 95.125 27.8164 95.125 27.7461ZM95.5469 13.1914C95.5469 13.0508 95.6406 12.9805 95.8281 12.9805C95.9453 12.9805 96.0508 12.9922 96.1445 13.0156C96.543 13.1094 96.9883 13.1562 97.4805 13.1562H97.9375L104.441 12.7344C104.98 12.7109 105.508 12.6172 106.023 12.4531C106.211 12.3828 106.375 12.3477 106.516 12.3477C106.773 12.3477 107.031 12.4414 107.289 12.6289C107.547 12.8164 107.758 13.0391 107.922 13.2969C108.086 13.5312 108.168 13.707 108.168 13.8242C108.168 14.0586 107.992 14.2109 107.641 14.2812L107.395 14.3164L98.3945 14.9492C98.1836 14.9727 97.9141 14.9844 97.5859 14.9844C97.1172 14.9844 96.7305 14.8672 96.4258 14.6328C96.1211 14.375 95.8984 14.1055 95.7578 13.8242C95.6172 13.5195 95.5469 13.3086 95.5469 13.1914ZM97.7969 16.8477C97.7969 16.5664 97.9375 16.3789 98.2188 16.2852C98.5 16.168 98.7695 16.1094 99.0273 16.1094C99.2148 16.1094 99.3555 16.168 99.4492 16.2852C99.5664 16.4023 99.6719 16.5898 99.7656 16.8477C100.164 17.9492 100.574 19.332 100.996 20.9961C101.418 22.6367 101.629 23.6211 101.629 23.9492C101.629 24.2539 101.465 24.4883 101.137 24.6523C100.832 24.8164 100.527 24.8984 100.223 24.8984C100.035 24.8984 99.8945 24.8398 99.8008 24.7227C99.7305 24.6055 99.6719 24.4062 99.625 24.125C99.1562 21.4531 98.5938 19.2031 97.9375 17.375C97.8438 17.0938 97.7969 16.918 97.7969 16.8477ZM98.9922 7.56641C98.9922 7.37891 99.0859 7.15625 99.2734 6.89844C99.4609 6.64062 99.6367 6.48828 99.8008 6.44141C99.8477 6.41797 99.918 6.40625 100.012 6.40625C100.152 6.40625 100.328 6.47656 100.539 6.61719C100.703 6.71094 101.535 7.21484 103.035 8.12891C104.535 9.01953 105.332 9.67578 105.426 10.0977C105.496 10.3789 105.379 10.6953 105.074 11.0469C104.77 11.375 104.523 11.5625 104.336 11.6094L104.23 11.6445C104.113 11.6445 103.902 11.5391 103.598 11.3281C101.84 9.89844 100.445 8.85547 99.4141 8.19922C99.2969 8.10547 99.1914 8.01172 99.0977 7.91797C99.0273 7.80078 98.9922 7.68359 98.9922 7.56641ZM109.645 7.53125C109.645 7.39062 109.738 7.32031 109.926 7.32031C110.043 7.32031 110.277 7.35547 110.629 7.42578C110.98 7.49609 111.309 7.625 111.613 7.8125C111.941 8 112.105 8.24609 112.105 8.55078V8.62109L111.895 12.8398L115.867 12.4883L115.938 6.16016C115.938 5.55078 115.75 5.01172 115.375 4.54297C115.281 4.42578 115.234 4.32031 115.234 4.22656C115.234 4.10937 115.363 4.05078 115.621 4.05078C116.277 4.05078 116.84 4.16797 117.309 4.40234C117.801 4.61328 118.047 4.90625 118.047 5.28125L117.941 12.3125L122.582 11.9258L122.652 8.69141C122.652 8.01172 122.547 7.47266 122.336 7.07422C122.242 6.91016 122.195 6.76953 122.195 6.65234C122.195 6.53516 122.289 6.47656 122.477 6.47656C122.875 6.47656 123.355 6.58203 123.918 6.79297C124.48 7.00391 124.762 7.35547 124.762 7.84766V7.95312L124.48 14.7734C124.457 15.1016 124.398 15.3477 124.305 15.5117C124.234 15.6523 124.094 15.7227 123.883 15.7227C123.602 15.7227 123.262 15.6055 122.863 15.3711C122.488 15.1133 122.301 14.8086 122.301 14.457C122.301 14.3164 122.312 14.1992 122.336 14.1055L122.441 13.5781L112.246 14.5977C111.988 14.6211 111.719 14.6797 111.438 14.7734C111.156 14.8438 110.957 14.8789 110.84 14.8789C110.629 14.8789 110.383 14.7617 110.102 14.5273C109.844 14.293 109.715 14.0586 109.715 13.8242C109.715 13.7305 109.738 13.5898 109.785 13.4023C109.902 12.8633 109.961 12.418 109.961 12.0664L110.031 9.42969C110.031 8.77344 109.938 8.25781 109.75 7.88281C109.68 7.74219 109.645 7.625 109.645 7.53125ZM193.211 24.7227C192.859 24.7227 192.52 24.4648 192.191 23.9492C191.77 23.293 191.359 22.7539 190.961 22.332L190.047 21.3828C189.555 21.9453 189.121 22.3906 188.746 22.7188C188.395 23.0469 187.949 23.3633 187.41 23.668C186.402 24.2539 185.559 24.5469 184.879 24.5469C184.715 24.5469 184.633 24.4883 184.633 24.3711C184.633 24.3008 184.855 24.1484 185.301 23.9141C185.746 23.6797 186.168 23.3984 186.566 23.0703C187.574 22.2266 188.406 21.3594 189.062 20.4688C188.922 20.3281 188.219 19.7188 186.953 18.6406C186.789 18.5234 186.543 18.3242 186.215 18.043C186.145 17.9961 186.004 17.8906 185.793 17.7266C185.582 17.5625 185.477 17.4453 185.477 17.375C185.477 17.2578 185.535 17.1992 185.652 17.1992C186.004 17.1992 186.566 17.4453 187.34 17.9375C188.113 18.4062 188.922 18.9688 189.766 19.625C190.094 19.2266 190.352 18.8516 190.539 18.5C190.727 18.1484 190.938 17.7148 191.172 17.1992C191.289 16.9414 191.359 16.7188 191.383 16.5312C191.406 16.3203 191.418 16.1914 191.418 16.1445C191.418 15.8867 191.488 15.7578 191.629 15.7578C191.793 15.7578 192.016 15.8867 192.297 16.1445C192.789 16.6133 193.035 16.9297 193.035 17.0938C193.035 17.1875 192.977 17.293 192.859 17.4102C192.578 17.6914 192.32 18.0664 192.086 18.5352C191.945 18.8164 191.688 19.2148 191.312 19.7305C191.195 19.8711 191.102 20 191.031 20.1172C190.961 20.2344 190.891 20.3398 190.82 20.4336C191.359 20.832 192.156 21.5117 193.211 22.4727C193.469 22.707 193.633 22.9297 193.703 23.1406C193.797 23.3281 193.844 23.5859 193.844 23.9141C193.844 24.1484 193.785 24.3477 193.668 24.5117C193.551 24.6523 193.398 24.7227 193.211 24.7227ZM200.523 11.8555C200.594 11.8555 200.664 11.8906 200.734 11.9609C200.805 12.0078 200.852 12.0781 200.875 12.1719V12.2422C200.875 12.4062 200.746 12.7227 200.488 13.1914L197.957 17.5859C197.77 17.9844 197.523 18.1836 197.219 18.1836C196.914 18.1836 196.656 17.9961 196.445 17.6211C196.234 17.3164 195.977 16.8594 195.672 16.25C195.531 16.0391 195.414 15.8281 195.32 15.6172C195.227 15.4062 195.156 15.2539 195.109 15.1602C194.852 14.7148 194.723 14.3984 194.723 14.2109C194.723 14.1172 194.758 14.0469 194.828 14C194.898 13.9297 194.969 13.8945 195.039 13.8945C195.297 13.8945 195.531 14.0352 195.742 14.3164C195.906 14.4805 196.035 14.6562 196.129 14.8438L196.516 15.3711L197.219 16.1797L197.535 15.6875C197.863 15.125 198.637 14.0117 199.855 12.3477C200.113 12.0195 200.336 11.8555 200.523 11.8555ZM167.09 34.8828C167.09 35.375 166.867 35.6211 166.422 35.6211C166.328 35.6211 166.117 35.5742 165.789 35.4805C165.484 35.3867 165.191 35.2227 164.91 34.9883C164.629 34.7539 164.488 34.4375 164.488 34.0391L164.523 33.793C164.617 33.1602 164.664 32.457 164.664 31.6836L164.734 21.8047L153.66 22.4023C153.332 22.4258 152.934 22.4375 152.465 22.4375C151.926 22.4375 151.492 22.2969 151.164 22.0156C150.836 21.7109 150.602 21.3945 150.461 21.0664C150.344 20.7148 150.285 20.457 150.285 20.293C150.285 20.1523 150.367 20.082 150.531 20.082C150.625 20.082 150.707 20.0938 150.777 20.1172C151.41 20.2578 151.973 20.3281 152.465 20.3281H152.746L164.77 19.6602L164.84 11.3281L159.461 11.6445C158.406 13.3789 157.422 14.7617 156.508 15.793C155.594 16.8242 154.832 17.5391 154.223 17.9375C153.637 18.3359 153.285 18.5352 153.168 18.5352C153.051 18.5352 152.992 18.4766 152.992 18.3594C152.992 18.1953 153.121 17.9258 153.379 17.5508C154.434 16.168 155.453 14.5977 156.438 12.8398C157.422 11.082 158.219 9.42969 158.828 7.88281C159.438 6.3125 159.742 5.11719 159.742 4.29688V3.875C159.742 3.59375 159.836 3.45312 160.023 3.45312C160.094 3.45312 160.352 3.53516 160.797 3.69922C161.266 3.86328 161.676 4.07422 162.027 4.33203C162.402 4.56641 162.59 4.80078 162.59 5.03516C162.59 5.31641 162.32 6.01953 161.781 7.14453C161.242 8.24609 160.844 9.04297 160.586 9.53516L172.434 8.79688C172.973 8.75 173.5 8.64453 174.016 8.48047C174.062 8.45703 174.145 8.44531 174.262 8.44531C174.543 8.44531 174.941 8.66797 175.457 9.11328C175.973 9.55859 176.23 9.92188 176.23 10.2031C176.23 10.4844 175.938 10.6484 175.352 10.6953L167.16 11.1875L167.125 19.5547L177.074 18.9922C177.66 18.9453 178.199 18.8398 178.691 18.6758C178.832 18.6289 178.938 18.6055 179.008 18.6055C179.148 18.6055 179.383 18.7109 179.711 18.9219C180.039 19.1328 180.332 19.3789 180.59 19.6602C180.848 19.9414 180.977 20.1992 180.977 20.4336C180.977 20.7383 180.707 20.9141 180.168 20.9609L167.125 21.6641L167.09 34.8828ZM246.121 14.3867C245.957 14.3867 245.781 14.2812 245.594 14.0703C245.453 13.9063 245.359 13.7773 245.312 13.6836C245.266 13.5664 245.266 13.4141 245.312 13.2266L245.348 12.3828C245.371 12.2188 245.383 11.8203 245.383 11.1875V10.0273L244.328 10.5195L243.098 11.0469C242.793 11.1641 242.477 11.3047 242.148 11.4688C241.867 11.6094 241.621 11.6797 241.41 11.6797C241.246 11.6563 241.059 11.5977 240.848 11.5039C240.637 11.4102 240.473 11.3281 240.355 11.2578C240.098 11.0938 239.98 10.918 240.004 10.7305L240.109 10.3789C240.109 10.1914 240.121 10.0273 240.145 9.88672L240.18 7.84766V5.94922C240.18 5.57422 240.156 5.25781 240.109 5C240.062 4.71875 240.027 4.51953 240.004 4.40234C240.004 4.28516 240.039 4.20313 240.109 4.15625C240.133 4.13281 240.191 4.12109 240.285 4.12109C240.449 4.12109 240.766 4.22656 241.234 4.4375C241.633 4.625 241.797 4.85938 241.727 5.14062C241.68 5.30469 241.633 5.55078 241.586 5.87891L241.48 9.92188C241.48 10.0391 241.492 10.1328 241.516 10.2031C241.562 10.25 241.609 10.2734 241.656 10.2734C241.938 10.2734 242.277 10.1914 242.676 10.0273C243.426 9.79297 244.07 9.55859 244.609 9.32422L245.383 9.00781V6.6875C245.383 5.75 245.324 4.84766 245.207 3.98047C245.184 3.91016 245.172 3.82812 245.172 3.73438C245.172 3.5 245.266 3.38281 245.453 3.38281C245.477 3.38281 245.605 3.42969 245.84 3.52344C246.191 3.71094 246.449 3.875 246.613 4.01562C246.777 4.15625 246.871 4.23828 246.895 4.26172C246.988 4.33203 247.035 4.40234 247.035 4.47266C247.035 4.51953 247.012 4.57812 246.965 4.64844C246.941 4.71875 246.918 4.77734 246.895 4.82422L246.789 5.87891L246.754 9.11328L246.789 12.2422C246.789 12.7813 246.754 13.25 246.684 13.6484C246.566 14.1406 246.379 14.3867 246.121 14.3867ZM239.652 20.1523C239.395 20.1523 239.078 19.9531 238.703 19.5547C238.422 19.2734 238.281 19.0625 238.281 18.9219C238.281 18.8516 238.328 18.8164 238.422 18.8164C238.516 18.793 238.633 18.7812 238.773 18.7812L239.547 18.7461C239.992 18.7461 240.285 18.7344 240.426 18.7109C240.871 18.7109 241.246 18.6992 241.551 18.6758C243.566 18.4883 244.926 18.3359 245.629 18.2188C245.98 18.1719 246.297 18.125 246.578 18.0781C246.859 18.0078 247.082 17.9727 247.246 17.9727C247.574 17.9727 247.902 18.1367 248.23 18.4648C248.488 18.7227 248.617 18.9336 248.617 19.0977C248.617 19.2383 248.535 19.332 248.371 19.3789C248.254 19.4023 247.562 19.4492 246.297 19.5195C245.594 19.543 244.727 19.6016 243.695 19.6953C242.664 19.7891 241.762 19.8828 240.988 19.9766C240.848 20 240.648 20.0352 240.391 20.082C240.133 20.1289 239.887 20.1523 239.652 20.1523ZM244.363 34.6719C243.637 34.6719 243.074 34.6484 242.676 34.6016C242.301 34.5547 241.984 34.4141 241.727 34.1797C241.281 33.8516 240.977 33.1367 240.812 32.0352L240.707 30.9102C240.707 30.6289 240.684 30.2773 240.637 29.8555C240.262 29.9023 239.992 29.9492 239.828 29.9961C239.781 30.0195 239.699 30.0547 239.582 30.1016C239.488 30.125 239.418 30.1367 239.371 30.1367C239.207 30.1367 239.055 30.0898 238.914 29.9961C238.773 29.9023 238.598 29.7266 238.387 29.4688C238.223 29.2578 238.141 29.1172 238.141 29.0469C238.141 28.9766 238.223 28.9297 238.387 28.9062C238.551 28.8828 238.773 28.8711 239.055 28.8711C239.453 28.8711 239.969 28.8242 240.602 28.7305L240.566 28.2383C240.566 27.3008 240.508 26.5039 240.391 25.8477L240.355 25.6016C240.355 25.2734 240.484 25.1445 240.742 25.2148C241.023 25.3086 241.281 25.4258 241.516 25.5664C241.703 25.6602 241.832 25.7539 241.902 25.8477C241.973 25.918 241.996 26.0234 241.973 26.1641L241.867 27.6758V28.5898L244.961 28.2734C244.961 28.1094 244.973 27.7227 244.996 27.1133C245.02 26.4805 245.02 26.0703 244.996 25.8828C244.996 25.6953 244.973 25.5195 244.926 25.3555C244.902 25.168 244.879 25.0156 244.855 24.8984C244.855 24.7109 244.949 24.6172 245.137 24.6172C245.324 24.6172 245.559 24.7227 245.84 24.9336C246.168 25.1445 246.379 25.332 246.473 25.4961C246.59 25.6602 246.613 25.8594 246.543 26.0938C246.426 26.4688 246.344 26.8906 246.297 27.3594C246.25 27.8281 246.227 28.1094 246.227 28.2031C246.508 28.1797 246.766 28.1445 247 28.0977C247.234 28.0508 247.387 28.0273 247.457 28.0273C247.645 27.9805 247.867 27.957 248.125 27.957C248.266 27.9805 248.465 28.1211 248.723 28.3789C248.934 28.6602 249.039 28.8828 249.039 29.0469C249.039 29.2812 248.816 29.375 248.371 29.3281C247.973 29.2578 247.574 29.2227 247.176 29.2227C246.777 29.2227 246.438 29.2344 246.156 29.2578C246.086 30.1016 245.945 30.9336 245.734 31.7539C245.688 31.9414 245.605 32.0938 245.488 32.2109C245.371 32.3516 245.266 32.4219 245.172 32.4219C245.008 32.4219 244.902 32.3516 244.855 32.2109C244.832 32.0938 244.82 31.8945 244.82 31.6133C244.867 31.0039 244.891 30.2422 244.891 29.3281C244.258 29.375 243.766 29.4219 243.414 29.4688C242.875 29.5859 242.371 29.6562 241.902 29.6797C241.879 30.6406 241.926 31.4961 242.043 32.2461C242.113 32.7383 242.254 33.0781 242.465 33.2656C242.605 33.3828 242.77 33.4531 242.957 33.4766C243.168 33.5 243.379 33.5117 243.59 33.5117C243.801 33.5117 243.941 33.5117 244.012 33.5117C244.738 33.5117 245.418 33.4766 246.051 33.4062C246.238 33.3828 246.402 33.3359 246.543 33.2656C246.707 33.1953 246.824 33.1602 246.895 33.1602C247.105 33.1602 247.316 33.2305 247.527 33.3711C247.738 33.5117 247.844 33.6758 247.844 33.8633C247.844 34.0508 247.738 34.1914 247.527 34.2852C247.34 34.3789 247.035 34.4609 246.613 34.5312C245.863 34.625 245.113 34.6719 244.363 34.6719ZM254.383 18.6758C254.664 18.6758 254.805 18.8047 254.805 19.0625C254.805 19.2031 254.676 19.4023 254.418 19.6602C253.715 20.5273 252.32 22.1797 250.234 24.6172C250.07 24.8281 249.918 24.9336 249.777 24.9336C249.66 24.9336 249.402 24.7578 249.004 24.4062C248.676 24.125 248.512 23.8906 248.512 23.7031C248.512 23.4922 248.688 23.293 249.039 23.1055C249.578 22.8008 250.387 22.1914 251.465 21.2773C252.543 20.3164 253.34 19.5547 253.855 18.9922C254.066 18.7812 254.242 18.6758 254.383 18.6758ZM209.699 30.1719C211.785 29.5156 213.648 28.8008 215.289 28.0273C214.938 27.5352 214.492 26.9727 213.953 26.3398C213.766 26.1055 213.672 25.918 213.672 25.7773C213.672 25.5195 213.824 25.2969 214.129 25.1094C214.434 24.8984 214.668 24.793 214.832 24.793C215.02 24.793 215.219 24.9102 215.43 25.1445C216.766 26.7148 217.902 28.0977 218.84 29.293C219.777 30.4883 220.246 31.2148 220.246 31.4727C220.246 31.6836 220.082 31.9297 219.754 32.2109C219.449 32.5156 219.156 32.668 218.875 32.668C218.641 32.668 218.406 32.4805 218.172 32.1055C217.633 31.2852 217.023 30.3945 216.344 29.4336L212.125 31.543C211.656 31.7539 210.918 32.1289 209.91 32.668C209.066 33.1133 208.551 33.3359 208.363 33.3359C208.223 33.3359 208.047 33.2422 207.836 33.0547C207.625 32.8906 207.461 32.6797 207.344 32.4219C207.25 32.1875 207.25 32 207.344 31.8594C207.484 31.6016 207.555 30.5703 207.555 28.7656V16.6016C207.555 16.0391 207.531 15.582 207.484 15.2305C207.461 14.8789 207.367 14.5039 207.203 14.1055C207.18 14.0352 207.156 13.9766 207.133 13.9297C207.109 13.8828 207.098 13.8359 207.098 13.7891C207.098 13.6719 207.18 13.6133 207.344 13.6133C207.648 13.6133 208.41 13.8711 209.629 14.3867L217.258 13.8594C217.445 13.8359 217.656 13.8242 217.891 13.8242C218.148 13.8242 218.453 13.9414 218.805 14.1758C219.156 14.3867 219.332 14.6211 219.332 14.8789C219.332 14.9727 219.273 15.1133 219.156 15.3008C219.062 15.4883 219.016 15.6289 219.016 15.7227L218.102 22.332C218.664 22.9883 218.945 23.4336 218.945 23.668C218.945 23.7852 218.875 23.8672 218.734 23.9141C218.617 23.9609 218.43 23.9844 218.172 23.9844L209.664 24.3008L209.699 30.1719ZM203.934 14.3867C203.934 14.1523 204.086 13.8711 204.391 13.543C206.102 11.6445 207.59 9.75781 208.855 7.88281C210.121 6.00781 210.754 4.75391 210.754 4.12109L210.719 3.875V3.76953C210.719 3.44141 210.848 3.27734 211.105 3.27734C211.41 3.27734 211.832 3.48828 212.371 3.91016C212.934 4.30859 213.215 4.63672 213.215 4.89453C213.215 5.01172 213.156 5.16406 213.039 5.35156C212.688 5.91406 212.301 6.47656 211.879 7.03906L216.871 6.65234C217.293 6.62891 217.738 6.53516 218.207 6.37109C218.348 6.32422 218.453 6.30078 218.523 6.30078C218.875 6.30078 219.25 6.5 219.648 6.89844C220.07 7.27344 220.281 7.56641 220.281 7.77734C220.281 8.05859 220.023 8.22266 219.508 8.26953L213.496 8.69141C213.66 8.73828 214.023 8.98438 214.586 9.42969C215.172 9.875 215.699 10.332 216.168 10.8008C216.637 11.2695 216.871 11.5977 216.871 11.7852C216.871 11.9961 216.73 12.2539 216.449 12.5586C216.168 12.8398 215.922 12.9805 215.711 12.9805C215.523 12.9805 215.301 12.8281 215.043 12.5234C214.246 11.6563 213.438 10.8945 212.617 10.2383C212.336 10.0039 212.195 9.80469 212.195 9.64062C212.195 9.52344 212.254 9.37109 212.371 9.18359C212.488 8.99609 212.641 8.84375 212.828 8.72656L210.473 8.90234C209.348 10.2852 208.105 11.5859 206.746 12.8047C205.387 14 204.52 14.5977 204.145 14.5977C204.004 14.5977 203.934 14.5273 203.934 14.3867ZM216.59 18.043L216.836 15.582L209.594 16.0742V18.3945L216.59 18.043ZM216.133 22.4023L216.414 19.6953L209.629 20.0117V22.6484L216.133 22.4023ZM218.031 12.875C218.031 12.6406 218.184 12.3594 218.488 12.0312C219.637 10.6484 220.68 9.08984 221.617 7.35547C222.578 5.59766 223.059 4.36719 223.059 3.66406V3.52344C223.059 3.17188 223.188 2.99609 223.445 2.99609C223.609 2.99609 223.855 3.08984 224.184 3.27734C224.535 3.44141 224.852 3.64063 225.133 3.875C225.414 4.10937 225.555 4.34375 225.555 4.57812C225.555 4.78906 225.391 5.16406 225.062 5.70312C224.734 6.24219 224.559 6.52344 224.535 6.54688L231.461 5.98438C231.977 5.9375 232.422 5.85547 232.797 5.73828C232.844 5.71484 232.938 5.70312 233.078 5.70312C233.406 5.70312 233.758 5.89063 234.133 6.26562C234.531 6.61719 234.73 6.91016 234.73 7.14453C234.73 7.28516 234.66 7.40234 234.52 7.49609C234.402 7.56641 234.238 7.61328 234.027 7.63672L226.891 8.12891C227.547 8.55078 228.32 9.17187 229.211 9.99219C230.102 10.7891 230.547 11.3281 230.547 11.6094C230.547 11.7734 230.418 12.0312 230.16 12.3828C229.902 12.7109 229.656 12.875 229.422 12.875C229.234 12.875 229.035 12.7578 228.824 12.5234C227.676 11.2812 226.633 10.2969 225.695 9.57031C225.461 9.38281 225.344 9.20703 225.344 9.04297C225.344 8.85547 225.52 8.57422 225.871 8.19922L223.27 8.375C222.496 9.40625 221.559 10.4492 220.457 11.5039C219.379 12.5586 218.652 13.0859 218.277 13.0859C218.113 13.0859 218.031 13.0156 218.031 12.875ZM221.336 13.6484C221.336 13.5078 221.418 13.4375 221.582 13.4375C221.934 13.4375 222.73 13.7305 223.973 14.3164L231.039 13.7188L231.32 13.6836C231.414 13.6836 231.59 13.7305 231.848 13.8242C232.129 13.8945 232.387 14.0234 232.621 14.2109C232.879 14.375 233.008 14.5977 233.008 14.8789C233.008 14.9727 232.973 15.1016 232.902 15.2656C232.832 15.4297 232.797 15.5469 232.797 15.6172C232.773 18.1953 232.609 20.9492 232.305 23.8789L232.234 24.7578C232.164 25.7422 232.07 26.5625 231.953 27.2188C231.836 27.875 231.637 28.3906 231.355 28.7656C230.91 29.375 230.43 29.6797 229.914 29.6797C229.398 29.6797 228.742 29.3633 227.945 28.7305C227.148 28.0977 226.41 27.4062 225.73 26.6562C225.074 25.9062 224.746 25.4258 224.746 25.2148C224.746 25.0508 224.84 24.9688 225.027 24.9688C225.238 24.9688 225.531 25.0859 225.906 25.3203C226.773 25.8594 227.5 26.293 228.086 26.6211C228.672 26.9492 229.094 27.1133 229.352 27.1133C229.469 27.1133 229.551 27.0312 229.598 26.8672C230.137 23.8672 230.465 20.1055 230.582 15.582L223.973 16.0742C223.973 20.0352 224.008 26.3164 224.078 34.918C224.078 35.1289 224.02 35.2812 223.902 35.375C223.809 35.4922 223.68 35.5508 223.516 35.5508C223.328 35.5508 223.105 35.4805 222.848 35.3398C222.402 35.1523 222.086 34.9766 221.898 34.8125C221.711 34.6484 221.617 34.4609 221.617 34.25L221.652 34.0039C221.793 33.2305 221.863 32.3633 221.863 31.4023L221.758 16.5664C221.758 15.957 221.734 15.4883 221.688 15.1602C221.664 14.832 221.594 14.5156 221.477 14.2109C221.383 13.9297 221.336 13.7422 221.336 13.6484Z" fill="#333333"/>
<path d="M136.719 72.8438C136.573 72.8438 136.646 72.7188 136.938 72.4688C137.229 72.2188 137.583 71.9167 138 71.5625C138.417 71.1875 138.885 70.6979 139.406 70.0938C139.74 69.6979 139.99 69.2812 140.156 68.8438C140.26 68.5938 140.375 68.4688 140.5 68.4688C140.604 68.4688 140.76 68.5521 140.969 68.7188C141.385 69.0521 141.594 69.3333 141.594 69.5625C141.594 69.7083 141.51 69.8125 141.344 69.875C141.26 69.8958 141.135 69.9896 140.969 70.1562C140.802 70.3021 140.677 70.4167 140.594 70.5C139.698 71.375 138.865 72.0104 138.094 72.4062C137.469 72.6979 137.052 72.8438 136.844 72.8438H136.719ZM140 78.6562C139.938 78.6562 139.833 78.5729 139.688 78.4062C139.562 78.2188 139.469 78.0417 139.406 77.875C139.385 77.75 139.385 77.5938 139.406 77.4062C139.448 77.1979 139.469 77.0417 139.469 76.9375C139.51 76.5208 139.531 76.1875 139.531 75.9375C139.552 75.7083 139.552 75.4583 139.531 75.1875C139.531 74.9167 139.531 74.7396 139.531 74.6562L139.5 74.1875C139 74.5417 138.615 74.7917 138.344 74.9375C137.74 75.2708 137.302 75.4792 137.031 75.5625C136.698 75.6875 136.396 75.75 136.125 75.75C135.979 75.75 135.896 75.7292 135.875 75.6875C135.833 75.6042 136.25 75.3021 137.125 74.7812C137.958 74.2604 138.865 73.5729 139.844 72.7188C140.385 72.2188 140.802 71.7396 141.094 71.2812C141.135 71.2188 141.167 71.1458 141.188 71.0625C141.229 70.9583 141.271 70.8958 141.312 70.875C141.375 70.8542 141.458 70.8646 141.562 70.9062C141.833 71.0521 142.062 71.2604 142.25 71.5312C142.333 71.6354 142.375 71.7396 142.375 71.8438C142.375 71.9479 142.323 72.0521 142.219 72.1562C142.115 72.2396 142.01 72.3021 141.906 72.3438C141.552 72.5729 141.229 72.8229 140.938 73.0938C140.646 73.3646 140.458 73.5417 140.375 73.625C140.688 73.875 140.844 74.0521 140.844 74.1562L140.75 74.8125C140.708 75 140.688 75.4688 140.688 76.2188C140.688 76.9479 140.708 77.4375 140.75 77.6875V77.75C140.75 77.8542 140.719 77.9688 140.656 78.0938C140.615 78.1979 140.583 78.2708 140.562 78.3125C140.417 78.5417 140.229 78.6562 140 78.6562ZM119.75 72.6562C119.25 72.6979 118.896 72.7188 118.688 72.7188C118.271 72.7188 118 72.6562 117.875 72.5312C117.625 72.3021 117.396 72.0104 117.188 71.6562C117 71.2812 116.906 71.0521 116.906 70.9688C116.906 70.8646 117.021 70.8125 117.25 70.8125C117.604 70.8958 118 70.9375 118.438 70.9375C118.646 70.9375 119 70.9167 119.5 70.875L127.031 70.3125H127.438C127.917 70.3125 128.302 70.4583 128.594 70.75C128.906 71.0208 129.062 71.2708 129.062 71.5C129.062 71.6667 128.99 71.8125 128.844 71.9375C128.719 72.0625 128.573 72.1771 128.406 72.2812C128.24 72.3646 128.125 72.4375 128.062 72.5C125.125 75.0625 123.042 76.9375 121.812 78.125C120.938 78.9583 120.25 79.7812 119.75 80.5938C119.25 81.4062 119 82.0417 119 82.5C119 82.9583 119.167 83.3125 119.5 83.5625C119.854 83.7917 120.396 83.9479 121.125 84.0312C121.854 84.1146 122.885 84.1562 124.219 84.1562C126.385 84.1562 128.292 84.0417 129.938 83.8125C130.333 83.7708 130.625 83.625 130.812 83.375C131.021 83.125 131.198 82.6979 131.344 82.0938C131.51 81.4688 131.729 80.4062 132 78.9062C132.083 78.4896 132.177 78.1667 132.281 77.9375C132.385 77.7083 132.49 77.5938 132.594 77.5938C132.698 77.5938 132.781 77.7188 132.844 77.9688C132.927 78.1979 132.969 78.5417 132.969 79C132.969 80.8542 132.906 82.2188 132.781 83.0938C132.677 83.9479 132.448 84.5729 132.094 84.9688C131.74 85.3646 131.167 85.625 130.375 85.75C128.521 86 126.427 86.125 124.094 86.125C122.552 86.125 121.167 86.0625 119.938 85.9375C118.917 85.8333 118.156 85.4479 117.656 84.7812C117.177 84.1146 116.938 83.3646 116.938 82.5312C116.938 81.8229 117.219 80.9688 117.781 79.9688C118.344 78.9688 119.062 78.0625 119.938 77.25C121.104 76.1667 122.958 74.4896 125.5 72.2188L119.75 72.6562ZM105.219 65.4688C105.219 65.3229 105.323 65.25 105.531 65.25C105.844 65.25 106.531 65.4479 107.594 65.8438L112.031 65.5625C112.198 65.5417 112.406 65.5312 112.656 65.5312C113.031 65.5312 113.333 65.6458 113.562 65.875C113.812 66.1042 113.938 66.3542 113.938 66.625C113.938 66.75 113.906 66.8854 113.844 67.0312C113.802 67.1771 113.771 67.2812 113.75 67.3438L113.156 74.6562C113.656 75.3021 113.906 75.75 113.906 76C113.906 76.1458 113.844 76.2396 113.719 76.2812C113.594 76.3021 113.365 76.3229 113.031 76.3438L108.031 76.5312L108.094 78.1875V78.25C108.094 78.6458 107.917 78.8438 107.562 78.8438C107.229 78.8438 106.885 78.7396 106.531 78.5312C106.198 78.3229 106.031 78.0104 106.031 77.5938C106.031 77.4479 106.042 77.3333 106.062 77.25C106.125 76.8958 106.156 76.5729 106.156 76.2812L106.125 75.6562L105.812 67.6875C105.771 66.9167 105.646 66.3542 105.438 66C105.292 65.75 105.219 65.5729 105.219 65.4688ZM107.938 74.75L111.312 74.6562L111.844 67.3438L107.656 67.5625L107.938 74.75ZM114.156 72.2812C114.156 72.1354 114.25 71.9062 114.438 71.5938C115.604 69.9271 116.656 68.1354 117.594 66.2188C118.552 64.3021 119.333 62.3958 119.938 60.5C120 60.3125 120.031 60.125 120.031 59.9375C120.031 59.6875 119.99 59.4375 119.906 59.1875C119.885 59.1458 119.875 59.0833 119.875 59C119.875 58.8125 119.979 58.7188 120.188 58.7188C120.354 58.7188 120.625 58.8021 121 58.9688C121.375 59.1354 121.708 59.3438 122 59.5938C122.292 59.8229 122.438 60.0417 122.438 60.25C122.438 60.375 122.406 60.5 122.344 60.625C121.656 62.3125 120.927 63.8438 120.156 65.2188L128.938 64.6562C129.375 64.6354 129.74 64.5521 130.031 64.4062C130.24 64.3229 130.385 64.2812 130.469 64.2812C130.781 64.2812 131.115 64.4792 131.469 64.875C131.823 65.2708 132 65.5938 132 65.8438C132 66.0938 131.719 66.2396 131.156 66.2812L119.094 67C118.198 68.4167 117.25 69.6875 116.25 70.8125C115.271 71.9375 114.635 72.5 114.344 72.5C114.219 72.5 114.156 72.4271 114.156 72.2812ZM186.781 68.0312C186.615 68.0312 186.479 67.8958 186.375 67.625C186.208 67.2917 186.125 67.0208 186.125 66.8125L186.156 65.9688C186.177 65.5521 186.188 64.7188 186.188 63.4688V61.9062L186.156 60.8125C185.927 60.8125 185.688 60.8438 185.438 60.9062L184.719 61.0938C184.615 61.1354 184.448 61.0729 184.219 60.9062C183.99 60.7396 183.812 60.5521 183.688 60.3438C183.625 60.2188 183.594 60.125 183.594 60.0625C183.594 60 183.625 59.9583 183.688 59.9375C183.75 59.9167 183.823 59.9062 183.906 59.9062C184.885 59.9062 185.792 59.8542 186.625 59.75L187.562 59.6875C188.167 59.6458 188.625 59.6146 188.938 59.5938C189.271 59.5521 189.5 59.5208 189.625 59.5C189.792 59.4792 189.979 59.4583 190.188 59.4375C190.417 59.3958 190.562 59.3854 190.625 59.4062C190.708 59.4688 190.812 59.5312 190.938 59.5938C191.083 59.6562 191.24 59.7604 191.406 59.9062C191.51 60.0104 191.594 60.1146 191.656 60.2188C191.74 60.3021 191.781 60.3958 191.781 60.5C191.781 60.5833 191.729 60.7083 191.625 60.875C191.521 61.0417 191.417 61.3021 191.312 61.6562C191.229 62.0104 191.167 62.2604 191.125 62.4062C190.812 63.4479 190.427 64.2083 189.969 64.6875C189.635 64.9792 189.26 65.125 188.844 65.125C188.656 65.125 188.5 64.9896 188.375 64.7188C188.188 64.3021 187.979 64.0104 187.75 63.8438L187.781 63.6875C188.344 63.875 188.729 63.9688 188.938 63.9688C189.104 63.9688 189.219 63.9375 189.281 63.875C189.365 63.8125 189.438 63.7188 189.5 63.5938C189.604 63.3229 189.688 63.0833 189.75 62.875C189.833 62.6667 189.906 62.4792 189.969 62.3125C190.01 62.125 190.062 61.875 190.125 61.5625C190.208 61.25 190.26 61 190.281 60.8125C190.281 60.625 190.229 60.5312 190.125 60.5312H189.438C189.125 60.5312 188.771 60.5417 188.375 60.5625C187.979 60.5833 187.656 60.6146 187.406 60.6562L187.344 63.5L187.375 65.125C187.375 65.3542 187.375 65.5729 187.375 65.7812C187.396 65.9688 187.396 66.1042 187.375 66.1875C187.375 66.3125 187.375 66.5104 187.375 66.7812C187.396 67.0312 187.396 67.2083 187.375 67.3125L187.156 67.8125C187.01 67.9583 186.885 68.0312 186.781 68.0312ZM191.188 76.5938C190.875 76.5938 190.573 76.3646 190.281 75.9062C189.906 75.3229 189.542 74.8438 189.188 74.4688L188.375 73.625C187.938 74.125 187.552 74.5208 187.219 74.8125C186.906 75.1042 186.51 75.3854 186.031 75.6562C185.135 76.1771 184.385 76.4375 183.781 76.4375C183.635 76.4375 183.562 76.3854 183.562 76.2812C183.562 76.2188 183.76 76.0833 184.156 75.875C184.552 75.6667 184.927 75.4167 185.281 75.125C186.177 74.375 186.917 73.6042 187.5 72.8125C187.375 72.6875 186.75 72.1458 185.625 71.1875C185.479 71.0833 185.26 70.9062 184.969 70.6562C184.906 70.6146 184.781 70.5208 184.594 70.375C184.406 70.2292 184.312 70.125 184.312 70.0625C184.312 69.9583 184.365 69.9062 184.469 69.9062C184.781 69.9062 185.281 70.125 185.969 70.5625C186.656 70.9792 187.375 71.4792 188.125 72.0625C188.417 71.7083 188.646 71.375 188.812 71.0625C188.979 70.75 189.167 70.3646 189.375 69.9062C189.479 69.6771 189.542 69.4792 189.562 69.3125C189.583 69.125 189.594 69.0104 189.594 68.9688C189.594 68.7396 189.656 68.625 189.781 68.625C189.927 68.625 190.125 68.7396 190.375 68.9688C190.812 69.3854 191.031 69.6667 191.031 69.8125C191.031 69.8958 190.979 69.9896 190.875 70.0938C190.625 70.3438 190.396 70.6771 190.188 71.0938C190.062 71.3438 189.833 71.6979 189.5 72.1562C189.396 72.2812 189.312 72.3958 189.25 72.5C189.188 72.6042 189.125 72.6979 189.062 72.7812C189.542 73.1354 190.25 73.7396 191.188 74.5938C191.417 74.8021 191.562 75 191.625 75.1875C191.708 75.3542 191.75 75.5833 191.75 75.875C191.75 76.0833 191.698 76.2604 191.594 76.4062C191.49 76.5312 191.354 76.5938 191.188 76.5938ZM184.281 85.9375C183.969 85.9375 183.729 85.8542 183.562 85.6875C183.375 85.5 183.281 85.3333 183.281 85.1875C183.281 85.0417 183.365 84.8854 183.531 84.7188C183.552 84.6979 183.667 84.5312 183.875 84.2188C184.333 83.4896 184.854 82.5625 185.438 81.4375C186.042 80.2917 186.417 79.5104 186.562 79.0938C186.688 78.6979 186.802 78.3542 186.906 78.0625C187.031 77.7708 187.135 77.625 187.219 77.625C187.365 77.625 187.49 77.6771 187.594 77.7812C187.698 77.8646 187.802 77.9896 187.906 78.1562C188.031 78.3021 188.125 78.4062 188.188 78.4688C188.333 78.6354 188.406 78.7917 188.406 78.9375C188.406 79.0417 188.365 79.1458 188.281 79.25C188.198 79.3542 188.146 79.4271 188.125 79.4688L186.75 81.7812C186.396 82.4271 185.927 83.2292 185.344 84.1875C185.26 84.2917 185.219 84.3958 185.219 84.5C185.219 84.5833 185.312 84.625 185.5 84.625C185.896 84.625 186.635 84.5729 187.719 84.4688C188.802 84.3854 189.531 84.3125 189.906 84.25C190.448 84.1875 190.823 84.125 191.031 84.0625C191.26 84 191.594 84.1562 192.031 84.5312C192.552 84.9688 192.667 85.25 192.375 85.375C192.208 85.4583 191.885 85.5 191.406 85.5H190.156C189.885 85.5 189.458 85.5208 188.875 85.5625C188.521 85.5625 188.125 85.5729 187.688 85.5938C187.25 85.6146 186.885 85.6354 186.594 85.6562C186.26 85.6771 185.615 85.7396 184.656 85.8438L184.281 85.9375ZM193.562 74.6562C193.667 74.6562 193.823 74.7292 194.031 74.875C194.01 74.9167 194.052 75 194.156 75.125C194.26 75.2292 194.333 75.3021 194.375 75.3438C194.479 75.4479 194.583 75.5729 194.688 75.7188C194.812 75.8646 194.948 76.0208 195.094 76.1875C195.469 76.5833 196.333 77.6146 197.688 79.2812C197.917 79.6146 198.031 79.8125 198.031 79.875C198.031 80.0833 197.906 80.1875 197.656 80.1875C197.51 80.1875 197.354 80.0833 197.188 79.875C196.792 79.4583 196.083 78.8021 195.062 77.9062C194.271 77.1771 193.552 76.6146 192.906 76.2188C192.594 76.0729 192.438 75.9062 192.438 75.7188C192.438 75.5729 192.594 75.3646 192.906 75.0938C193.198 74.8021 193.417 74.6562 193.562 74.6562ZM167.5 65.4375C167.292 66.6042 167.094 67.4688 166.906 68.0312C166.74 68.5938 166.583 68.9583 166.438 69.125C166.312 69.2708 166.156 69.3438 165.969 69.3438C165.802 69.3438 165.635 69.3021 165.469 69.2188C165.219 69.1354 165.031 69.0521 164.906 68.9688C164.802 68.8646 164.75 68.7396 164.75 68.5938C164.75 68.4688 164.771 68.3646 164.812 68.2812C165.125 67.4896 165.417 66.5833 165.688 65.5625C165.958 64.5208 166.135 63.5729 166.219 62.7188C166.24 62.5104 166.312 62.3854 166.438 62.3438C166.583 62.2812 166.812 62.25 167.125 62.25C167.646 62.2708 167.906 62.4792 167.906 62.875V62.9375C167.906 63.1458 167.865 63.4375 167.781 63.8125L173.156 63.4688C172.198 62.2812 171.25 61.2292 170.312 60.3125C170.125 60.125 170.031 59.9583 170.031 59.8125C170.031 59.625 170.135 59.4271 170.344 59.2188C170.552 59.0104 170.729 58.9062 170.875 58.9062C171.208 58.9062 172.479 60.0625 174.688 62.375C174.854 62.5417 174.938 62.7188 174.938 62.9062C174.938 63.0312 174.885 63.1771 174.781 63.3438L179.062 63.0625L179.562 63.0312C180 63.0312 180.344 63.1667 180.594 63.4375C180.844 63.6875 180.969 63.9062 180.969 64.0938C180.969 64.2812 180.896 64.4583 180.75 64.625C180.604 64.7917 180.521 64.8958 180.5 64.9375C180.104 65.625 179.573 66.4583 178.906 67.4375C178.24 68.3958 177.729 68.875 177.375 68.875C177.229 68.875 177.156 68.7708 177.156 68.5625C177.156 68.3333 177.24 68.0521 177.406 67.7188C177.906 66.7188 178.281 65.7396 178.531 64.7812L167.5 65.4375ZM152.406 70.2188C152.406 70.1354 152.448 70.0938 152.531 70.0938C152.615 70.0938 152.677 70.1042 152.719 70.125C152.99 70.2083 153.333 70.25 153.75 70.25L154.25 70.2188L158.312 69.9375L158.375 61.5938C158.375 61.1771 158.344 60.8438 158.281 60.5938C158.219 60.3438 158.115 60.1042 157.969 59.875C157.844 59.6875 157.781 59.5521 157.781 59.4688C157.781 59.3438 157.875 59.2812 158.062 59.2812C158.312 59.2812 158.698 59.375 159.219 59.5625C159.573 59.6875 159.812 59.8333 159.938 60C160.062 60.1458 160.125 60.3854 160.125 60.7188L160.062 69.8125L162.219 69.6562C162.281 69.6562 162.448 69.6458 162.719 69.625C162.99 69.6042 163.219 69.5521 163.406 69.4688C163.531 69.4062 163.646 69.375 163.75 69.375C164 69.375 164.312 69.5625 164.688 69.9375C165.062 70.3125 165.25 70.6042 165.25 70.8125C165.25 70.9375 165.188 71.0312 165.062 71.0938C164.938 71.1354 164.76 71.1667 164.531 71.1875L160.031 71.4688V73.6562C160.24 73.4479 160.417 73.3438 160.562 73.3438C160.729 73.3438 161.115 73.6354 161.719 74.2188C162.323 74.7812 162.885 75.3854 163.406 76.0312C163.927 76.6771 164.188 77.1146 164.188 77.3438C164.188 77.5312 164.031 77.7708 163.719 78.0625C163.406 78.3542 163.156 78.5 162.969 78.5C162.802 78.5 162.635 78.375 162.469 78.125C161.698 76.8958 160.885 75.8333 160.031 74.9375L159.938 86.125C159.938 86.6458 159.75 86.9062 159.375 86.9062C159.292 86.9062 159.125 86.8646 158.875 86.7812C158.646 86.6979 158.427 86.5521 158.219 86.3438C158.031 86.1562 157.938 85.9062 157.938 85.5938C157.938 85.4479 157.948 85.3438 157.969 85.2812C158.135 84.2396 158.219 82.9062 158.219 81.2812L158.25 76.5312L158.344 73.125L158.375 71.625L154.906 71.8125L154.125 71.8438C153.646 71.8438 153.323 71.7604 153.156 71.5938C152.969 71.4062 152.792 71.1771 152.625 70.9062C152.479 70.6354 152.406 70.4062 152.406 70.2188ZM152.75 82.5625C152.75 82.3333 152.833 82.0521 153 81.7188C153.625 80.4688 154.219 79.0833 154.781 77.5625C155.344 76.0417 155.625 74.9167 155.625 74.1875C155.625 73.9583 155.615 73.7917 155.594 73.6875C155.573 73.625 155.562 73.5521 155.562 73.4688C155.562 73.2396 155.677 73.125 155.906 73.125C156.219 73.125 156.573 73.25 156.969 73.5C157.385 73.7292 157.594 74.0104 157.594 74.3438C157.594 74.6354 157.281 75.5104 156.656 76.9688C156.031 78.4271 155.354 79.7708 154.625 81C153.917 82.2083 153.385 82.8125 153.031 82.8125C152.969 82.8125 152.906 82.7917 152.844 82.75C152.781 82.6875 152.75 82.625 152.75 82.5625ZM153.812 64.1562C153.812 63.9896 153.948 63.8125 154.219 63.625C154.49 63.4375 154.708 63.3438 154.875 63.3438C155.146 63.3438 155.542 63.8125 156.062 64.75C156.604 65.6875 157.094 66.6667 157.531 67.6875C157.594 67.8333 157.625 67.9583 157.625 68.0625C157.625 68.2708 157.469 68.4688 157.156 68.6562C156.844 68.8438 156.625 68.9375 156.5 68.9375C156.292 68.9375 156.125 68.7812 156 68.4688C155.5 67.0938 154.812 65.7604 153.938 64.4688C153.854 64.3646 153.812 64.2604 153.812 64.1562ZM160.438 68.9688C160.438 68.8021 160.51 68.5833 160.656 68.3125C161.01 67.6875 161.417 66.8542 161.875 65.8125C162.333 64.7708 162.562 63.8542 162.562 63.0625V62.8125C162.562 62.5625 162.667 62.4375 162.875 62.4375C163.125 62.4375 163.469 62.5833 163.906 62.875C164.365 63.1458 164.594 63.4062 164.594 63.6562C164.594 63.8438 164.323 64.4167 163.781 65.375C163.26 66.3125 162.688 67.1875 162.062 68C161.458 68.7917 160.979 69.1875 160.625 69.1875C160.5 69.1875 160.438 69.1146 160.438 68.9688ZM162.688 84.5625C162.688 84.375 162.833 84.1354 163.125 83.8438C164.146 82.8229 165.083 81.7292 165.938 80.5625C166.792 79.3958 167.219 78.4688 167.219 77.7812V77.5C167.219 77.2292 167.323 77.0938 167.531 77.0938C167.823 77.0938 168.208 77.2708 168.688 77.625C169.188 77.9583 169.438 78.2604 169.438 78.5312C169.438 78.6354 169.406 78.75 169.344 78.875C168.74 79.8125 167.99 80.7396 167.094 81.6562C166.219 82.5521 165.385 83.2917 164.594 83.875C163.823 84.4583 163.271 84.75 162.938 84.75C162.771 84.75 162.688 84.6875 162.688 84.5625ZM164.656 73.4375C164.656 73.3542 164.708 73.3125 164.812 73.3125L165 73.3438C165.271 73.4271 165.635 73.4688 166.094 73.4688H166.531L177.562 72.875C178.062 72.8333 178.438 72.7708 178.688 72.6875C178.771 72.6458 178.875 72.625 179 72.625C179.229 72.625 179.448 72.7292 179.656 72.9375C179.885 73.125 180.073 73.3438 180.219 73.5938C180.365 73.8229 180.438 73.9792 180.438 74.0625C180.438 74.1875 180.385 74.2812 180.281 74.3438C180.177 74.3854 180.021 74.4167 179.812 74.4375L173.562 74.7812L173.5 82.2188V86.4375C173.5 86.5833 173.448 86.7188 173.344 86.8438C173.24 86.9688 173.104 87.0312 172.938 87.0312C172.646 87.0312 172.312 86.8854 171.938 86.5938C171.562 86.3229 171.375 86.0521 171.375 85.7812L171.406 85.5C171.51 84.4583 171.562 83.6042 171.562 82.9375L171.656 81.7812L171.781 74.875L167.062 75.1562L166.438 75.1875C165.979 75.1875 165.635 75.0729 165.406 74.8438C165.219 74.6562 165.042 74.4062 164.875 74.0938C164.729 73.7812 164.656 73.5625 164.656 73.4375ZM167.562 68.75C167.562 68.6667 167.604 68.625 167.688 68.625C167.771 68.625 167.833 68.6354 167.875 68.6562C168.125 68.7396 168.427 68.7812 168.781 68.7812L169.25 68.75L174.344 68.4688C174.802 68.4479 175.156 68.375 175.406 68.25C175.448 68.2292 175.521 68.2188 175.625 68.2188C175.875 68.2188 176.167 68.3958 176.5 68.75C176.854 69.0833 177.031 69.3542 177.031 69.5625C177.031 69.6875 176.969 69.7812 176.844 69.8438C176.74 69.8854 176.573 69.9167 176.344 69.9375L169.844 70.375H169.344C168.865 70.375 168.542 70.3125 168.375 70.1875C168.146 70 167.948 69.7708 167.781 69.5C167.635 69.2083 167.562 68.9583 167.562 68.75ZM175.688 78.2812C175.688 78.1354 175.802 77.9271 176.031 77.6562C176.281 77.3646 176.51 77.2188 176.719 77.2188C176.885 77.2188 177.396 77.6458 178.25 78.5C179.104 79.3542 179.906 80.2396 180.656 81.1562C181.427 82.0729 181.812 82.6667 181.812 82.9375C181.812 83.2083 181.656 83.4896 181.344 83.7812C181.031 84.0521 180.781 84.1875 180.594 84.1875C180.406 84.1875 180.219 84.0417 180.031 83.75C178.781 81.9167 177.406 80.2292 175.906 78.6875C175.76 78.5417 175.688 78.4062 175.688 78.2812ZM234.781 79.9062C234.615 79.9062 234.479 79.7708 234.375 79.5C234.208 79.1667 234.125 78.8958 234.125 78.6875L234.156 77.8438C234.177 77.4271 234.188 76.5938 234.188 75.3438V73.7812L234.156 72.6875C233.927 72.6875 233.688 72.7188 233.438 72.7812L232.719 72.9688C232.615 73.0104 232.448 72.9479 232.219 72.7812C231.99 72.6146 231.812 72.4271 231.688 72.2188C231.625 72.0938 231.594 72 231.594 71.9375C231.594 71.875 231.625 71.8333 231.688 71.8125C231.75 71.7917 231.823 71.7812 231.906 71.7812C232.885 71.7812 233.792 71.7292 234.625 71.625L235.562 71.5625C236.167 71.5208 236.625 71.4896 236.938 71.4688C237.271 71.4271 237.5 71.3958 237.625 71.375C237.792 71.3542 237.979 71.3333 238.188 71.3125C238.417 71.2708 238.562 71.2604 238.625 71.2812C238.708 71.3438 238.812 71.4062 238.938 71.4688C239.083 71.5312 239.24 71.6354 239.406 71.7812C239.51 71.8854 239.594 71.9896 239.656 72.0938C239.74 72.1771 239.781 72.2708 239.781 72.375C239.781 72.4583 239.729 72.5833 239.625 72.75C239.521 72.9167 239.417 73.1771 239.312 73.5312C239.229 73.8854 239.167 74.1354 239.125 74.2812C238.812 75.3229 238.427 76.0833 237.969 76.5625C237.635 76.8542 237.26 77 236.844 77C236.656 77 236.5 76.8646 236.375 76.5938C236.188 76.1771 235.979 75.8854 235.75 75.7188L235.781 75.5625C236.344 75.75 236.729 75.8438 236.938 75.8438C237.104 75.8438 237.219 75.8125 237.281 75.75C237.365 75.6875 237.438 75.5938 237.5 75.4688C237.604 75.1979 237.688 74.9583 237.75 74.75C237.833 74.5417 237.906 74.3542 237.969 74.1875C238.01 74 238.062 73.75 238.125 73.4375C238.208 73.125 238.26 72.875 238.281 72.6875C238.281 72.5 238.229 72.4062 238.125 72.4062H237.438C237.125 72.4062 236.771 72.4167 236.375 72.4375C235.979 72.4583 235.656 72.4896 235.406 72.5312L235.344 75.375L235.375 77C235.375 77.2292 235.375 77.4479 235.375 77.6562C235.396 77.8438 235.396 77.9792 235.375 78.0625C235.375 78.1875 235.375 78.3854 235.375 78.6562C235.396 78.9062 235.396 79.0833 235.375 79.1875L235.156 79.6875C235.01 79.8333 234.885 79.9062 234.781 79.9062ZM235.781 66.5C236.198 66.5 236.552 66.6458 236.844 66.9375C237.156 67.2083 237.312 67.5729 237.312 68.0312C237.312 68.4896 237.156 68.8646 236.844 69.1562C236.552 69.4271 236.198 69.5625 235.781 69.5625C235.365 69.5625 235 69.4271 234.688 69.1562C234.396 68.8646 234.25 68.4896 234.25 68.0312C234.25 67.5729 234.396 67.2083 234.688 66.9375C235 66.6458 235.365 66.5 235.781 66.5ZM216.125 73.5C216.458 75.8542 216.625 78.2917 216.625 80.8125L216.594 82.1875C216.552 83.7083 216.406 84.9167 216.156 85.8125C215.906 86.7292 215.458 87.1875 214.812 87.1875C214.354 87.1875 213.521 86.8229 212.312 86.0938C211.125 85.3646 210.021 84.5729 209 83.7188C208 82.8646 207.5 82.2708 207.5 81.9375C207.5 81.8125 207.583 81.75 207.75 81.75C208 81.75 208.344 81.875 208.781 82.125C210.74 83.2083 212.49 84.0312 214.031 84.5938H214.094C214.219 84.5938 214.281 84.5312 214.281 84.4062C214.49 82.9062 214.594 81.25 214.594 79.4375C214.594 77.3125 214.458 75.3646 214.188 73.5938L202.594 74.2188C202.385 74.2396 202.115 74.25 201.781 74.25C201.344 74.25 201.042 74.1667 200.875 74C200.729 73.8542 200.552 73.6354 200.344 73.3438C200.156 73.0521 200.062 72.7604 200.062 72.4688C200.062 72.3229 200.146 72.25 200.312 72.25C200.396 72.25 200.458 72.2604 200.5 72.2812C200.833 72.3646 201.229 72.4062 201.688 72.4062H202.031L213.875 71.75C213.583 70.4792 213.229 69.4792 212.812 68.75C212.646 68.4583 212.562 68.2396 212.562 68.0938C212.562 67.8854 212.688 67.7083 212.938 67.5625C213.188 67.4167 213.5 67.3125 213.875 67.25C214.125 67.25 214.354 67.4375 214.562 67.8125C216.979 65.9792 218.75 64.2917 219.875 62.75L208.312 63.5938C207.771 63.6354 207.427 63.6562 207.281 63.6562C206.656 63.6562 206.125 63.1458 205.688 62.125L205.625 61.8438C205.625 61.7188 205.698 61.6562 205.844 61.6562C205.927 61.6562 205.99 61.6667 206.031 61.6875C206.365 61.7708 206.729 61.8125 207.125 61.8125L207.656 61.7812L221.125 60.8125L221.531 60.7812C221.844 60.7812 222.177 60.9271 222.531 61.2188C222.906 61.4896 223.094 61.7708 223.094 62.0625C223.094 62.25 222.99 62.4167 222.781 62.5625C222.594 62.7083 222.469 62.8125 222.406 62.875C220.26 65.3125 217.885 67.5208 215.281 69.5C215.469 70.1458 215.646 70.8542 215.812 71.625L225.469 71.0938C226.01 71.0729 226.583 70.9688 227.188 70.7812C227.25 70.7604 227.344 70.75 227.469 70.75C227.844 70.75 228.25 70.9479 228.688 71.3438C229.125 71.7188 229.344 72.0417 229.344 72.3125C229.344 72.4583 229.271 72.5729 229.125 72.6562C229 72.7396 228.833 72.7917 228.625 72.8125H228.562L216.125 73.5Z" fill="#333333"/>
</svg>
