<svg xmlns="http://www.w3.org/2000/svg" width="350" height="88" fill="none"><path fill="#333" d="M136.012 14.598c-.375 0-.598-.188-.668-.563-.141-.398-.516-.89-1.125-1.476l.105-.141c.094.047.364.164.809.352.445.164.75.246.914.246h.316a.68.68 0 0 0 .246-.176c.282-.211.633-.692 1.055-1.442.305-.609.574-1.324.809-2.144.257-.82.386-1.441.386-1.863 0-.118-.093-.176-.281-.176l-1.336.07-.914.07-.598.036-.246.035c.164.117.27.222.317.316.07.07.105.164.105.281 0 .118-.14.446-.422.985-.234.515-.609 1.101-1.125 1.758-.421.562-.996 1.171-1.722 1.828-.703.633-1.231.96-1.582.984a.66.66 0 0 1-.211-.035.239.239 0 0 1-.071-.176c0-.023.188-.246.563-.668l.984-1.16c.703-.937 1.418-2.133 2.145-3.586.07-.187.035-.293-.106-.316-.14.023-.433.058-.879.105a4.535 4.535 0 0 0-1.195.211 1.13 1.13 0 0 0-.246.106 1.16 1.16 0 0 1-.351.07.478.478 0 0 1-.352-.14l-.281-.247c-.211-.164-.317-.316-.317-.457 0-.047.024-.117.071-.21l.175-.282c.094-.117.246-.305.457-.563.211-.257.446-.609.704-1.054.046-.094.14-.305.281-.633.164-.328.246-.527.246-.598v-.14c0-.14.023-.235.07-.282.047-.046.153-.046.317 0 .164.047.363.176.597.387l.387.387c.07.07.105.152.105.246 0 .234-.328.656-.984 1.266a4.095 4.095 0 0 0-.422.527c-.164.234-.246.387-.246.457 0 .14.106.187.316.14l.809-.105c1.852-.281 3.246-.445 4.184-.492l.949-.14.316-.071.176-.035c.188 0 .316.023.387.07.07.047.14.13.211.246.07.094.14.176.211.246.164.188.281.352.351.493l.071.316-.071.14-.07.212a2.045 2.045 0 0 0-.106.351c-.023.094-.058.2-.105.316-.492 1.899-1.066 3.375-1.723 4.43-.211.375-.574.75-1.09 1.125-.492.375-.925.563-1.3.563Zm3.199 9.07c-.352 0-.691-.258-1.02-.773-.421-.657-.832-1.196-1.23-1.618l-.914-.949a14.424 14.424 0 0 1-1.301 1.336 6.992 6.992 0 0 1-1.336.95c-1.008.585-1.851.878-2.531.878-.164 0-.246-.058-.246-.176 0-.07.222-.222.668-.457a7.422 7.422 0 0 0 1.265-.843c1.008-.844 1.84-1.711 2.496-2.602-.14-.14-.843-.75-2.109-1.828-.164-.117-.41-.316-.738-.598a9.494 9.494 0 0 1-.422-.316c-.211-.164-.316-.281-.316-.352 0-.117.058-.175.175-.175.352 0 .914.246 1.688.738a25.67 25.67 0 0 1 2.426 1.687 6.91 6.91 0 0 0 .773-1.125c.188-.351.399-.785.633-1.3a2.41 2.41 0 0 0 .211-.668c.023-.211.035-.34.035-.387 0-.258.07-.387.211-.387.164 0 .387.129.668.387.492.469.738.785.738.95 0 .093-.058.198-.176.316-.281.28-.539.656-.773 1.124-.141.282-.398.68-.774 1.196-.117.14-.21.27-.281.387-.07.117-.14.222-.211.316.539.398 1.336 1.078 2.391 2.039.258.234.422.457.492.668.094.187.141.445.141.773 0 .235-.059.434-.176.598a.567.567 0 0 1-.457.211Zm-2.32 4.324c-.235.305-.481.457-.739.457-.07 0-.105-.058-.105-.176 0-.164.047-.351.141-.562l.703-1.406a1.34 1.34 0 0 1 .105-.282c.047-.093.082-.175.106-.246v-.035c0-.047-.036-.094-.106-.14a.295.295 0 0 0-.246-.036c-.375.024-.938.082-1.688.176-.726.094-1.265.188-1.617.281l-.527.176a1.38 1.38 0 0 1-.457.106c-.422 0-.773-.13-1.055-.387a2.17 2.17 0 0 1-.527-.492l-.07-.176c0-.117.199-.152.597-.105.539.046 1.653-.024 3.34-.211l.703-.106.879-.105c.422-.07.75-.141.984-.211l.211-.07a.568.568 0 0 1 .247-.07c.117 0 .257.058.421.175.188.117.34.223.457.316.164.117.27.223.317.317.07.07.094.164.07.28 0 .118-.058.224-.176.317a3.38 3.38 0 0 0-.246.211c-.047.07-.211.246-.492.528-.117.187-.328.445-.633.773-.281.328-.48.563-.597.703Zm-1.758 6.926c0-.07.117-.258.351-.563.258-.28.457-.503.598-.667.352-.47.773-1.149 1.266-2.04.515-.89.808-1.476.879-1.757.046-.141-.024-.211-.211-.211-.375 0-1.407.105-3.094.316-1.102.14-1.922.281-2.461.422a.677.677 0 0 1-.352.105c-.187 0-.386-.128-.597-.386a.93.93 0 0 1-.141-.457c0-.094.059-.188.176-.282l.105-.14c.071-.14.153-.328.246-.563.094-.234.176-.457.247-.668.117-.375.199-.785.246-1.23.023-.258.164-.328.421-.211.329.164.575.328.739.492.187.14.246.246.176.317a3.5 3.5 0 0 0-.563.949 9.83 9.83 0 0 0-.211.738c0 .094.059.14.176.14.351 0 .879-.058 1.582-.175l1.477-.176c.585-.07 1.054-.14 1.406-.21l.879-.177a.91.91 0 0 1 .281-.035c.117 0 .234.047.351.14.118.071.247.165.387.282.235.211.387.387.457.527a.799.799 0 0 1 .106.422c0 .094-.071.211-.211.352-.117.14-.258.363-.422.668-.68 1.383-1.559 2.543-2.637 3.48a4.86 4.86 0 0 1-1.019.598c-.164.047-.317.07-.457.07-.118.024-.176 0-.176-.07Zm-8.86-1.477c0 .563-.164 1.008-.492 1.336-.328.352-.691.528-1.09.528-.281 0-.738-.258-1.371-.774a14.323 14.323 0 0 1-1.687-1.687c-.516-.61-.774-1.02-.774-1.23 0-.165.082-.247.246-.247.188 0 .446.094.774.281 1.008.563 1.758.926 2.25 1.09l.211-8.965-3.586.176-.07 9.211c0 .281-.047.492-.141.633-.07.164-.211.246-.422.246-.281 0-.621-.117-1.019-.352-.399-.21-.598-.48-.598-.808 0-.117.012-.211.035-.281.117-.703.176-1.524.176-2.461l.07-6.117-2.918.14.141 9.106c0 .586-.199.879-.598.879-.281 0-.633-.141-1.055-.422-.398-.282-.597-.563-.597-.844v-.211c.094-.586.14-1.406.14-2.461l-.07-5.977-2.918.141.106 9.914c0 .516-.188.774-.563.774a3.4 3.4 0 0 1-1.265-.493c-.329-.21-.493-.48-.493-.808l.035-.317c.118-.773.176-1.453.176-2.039l-.035-6.89c0-.89-.105-1.57-.316-2.04-.094-.234-.141-.386-.141-.456 0-.164.094-.246.281-.246.352 0 1.102.293 2.25.878l3.164-.14c.891-1.406 1.336-2.531 1.336-3.375v-.246l-4.64.246h-.493c-.609 0-1.019-.094-1.23-.281a3.732 3.732 0 0 1-.668-.809c-.187-.305-.281-.55-.281-.738 0-.188.094-.282.281-.282l.281.07c.469.141.938.212 1.407.212h.316l12.867-.739a5.415 5.415 0 0 0 1.231-.21 1.93 1.93 0 0 1 .386-.07c.258 0 .598.187 1.02.562.422.351.633.68.633.984 0 .281-.293.445-.879.492l-8.578.457c.422.235.632.469.632.703 0 .141-.164.504-.492 1.09a40.772 40.772 0 0 1-1.09 1.828l8.649-.422.457-.035c.328 0 .644.117.949.352.305.234.457.515.457.844 0 .093-.035.234-.105.422a1.51 1.51 0 0 0-.071.386l-.211 8.508v.984Zm-31.148-5.695c0-.187.14-.281.422-.281.562 0 1.207-.082 1.934-.246a57.126 57.126 0 0 0 4.007-1.055c.914-2.836 1.547-5.05 1.899-6.645.351-1.617.527-2.671.527-3.163 0-.118-.023-.317-.07-.598a1.28 1.28 0 0 1-.035-.317c0-.21.082-.316.246-.316.14 0 .386.082.738.246.352.14.668.328.949.563.305.234.457.504.457.808 0 .117-.011.2-.035.246a54.404 54.404 0 0 1-1.16 4.114 239.407 239.407 0 0 1-1.547 4.464 95.065 95.065 0 0 0 3.234-1.09c.633-.21 1.102-.316 1.407-.316.257 0 .386.059.386.176 0 .305-.855.89-2.566 1.758a76.51 76.51 0 0 1-5.484 2.46c-1.97.798-3.13 1.196-3.48 1.196-.259 0-.563-.188-.915-.563a4.814 4.814 0 0 1-.808-1.125c-.07-.14-.106-.246-.106-.316Zm.422-14.555c0-.14.094-.21.281-.21.117 0 .223.011.316.035.399.093.844.14 1.337.14h.457l6.503-.422a6.06 6.06 0 0 0 1.582-.28c.188-.071.352-.106.493-.106.257 0 .515.093.773.28.258.188.469.411.633.669.164.234.246.41.246.527 0 .235-.176.387-.527.457l-.246.035-9 .633c-.211.024-.48.035-.81.035-.468 0-.854-.117-1.16-.351-.304-.258-.527-.527-.667-.809-.14-.304-.211-.515-.211-.633Zm2.25 3.657c0-.282.14-.47.422-.563a2.1 2.1 0 0 1 .808-.176c.188 0 .329.059.422.176.117.117.223.305.317.563.398 1.101.808 2.484 1.23 4.148.422 1.64.633 2.625.633 2.953 0 .305-.164.54-.492.703-.305.164-.61.246-.914.246-.188 0-.329-.058-.422-.175-.07-.117-.13-.317-.176-.598-.469-2.672-1.031-4.922-1.688-6.75-.093-.281-.14-.457-.14-.527Zm1.195-9.282c0-.187.094-.41.281-.668.188-.257.364-.41.528-.457a.49.49 0 0 1 .211-.035c.14 0 .316.07.527.211.164.094.996.598 2.496 1.512 1.5.89 2.297 1.547 2.391 1.969.07.28-.047.597-.352.949-.304.328-.551.515-.738.562l-.106.036c-.117 0-.328-.106-.632-.317-1.758-1.43-3.153-2.473-4.184-3.129a3.825 3.825 0 0 1-.316-.281.678.678 0 0 1-.106-.352Zm10.653-.035c0-.14.093-.21.281-.21.117 0 .351.034.703.105.351.07.68.199.984.386.328.188.492.434.492.739v.07l-.21 4.219 3.972-.352.071-6.328c0-.61-.188-1.148-.563-1.617-.094-.117-.141-.223-.141-.316 0-.118.129-.176.387-.176.656 0 1.219.117 1.688.351.492.211.738.504.738.88l-.106 7.03 4.641-.386.07-3.235c0-.68-.105-1.218-.316-1.617-.094-.164-.141-.304-.141-.422 0-.117.094-.175.282-.175.398 0 .878.105 1.441.316.562.21.844.562.844 1.055v.105l-.282 6.82c-.023.329-.082.575-.175.739-.071.14-.211.21-.422.21-.281 0-.621-.117-1.02-.35-.375-.259-.562-.563-.562-.915 0-.14.011-.258.035-.352l.105-.527-10.195 1.02a3.58 3.58 0 0 0-.808.175c-.282.07-.481.106-.598.106-.211 0-.457-.117-.738-.352-.258-.234-.387-.468-.387-.703 0-.094.023-.234.07-.422.117-.539.176-.984.176-1.336l.07-2.636c0-.657-.093-1.172-.281-1.547a.832.832 0 0 1-.105-.352Zm83.566 17.192c-.352 0-.691-.258-1.02-.774-.421-.656-.832-1.195-1.23-1.617l-.914-.95a14.424 14.424 0 0 1-1.301 1.337 6.992 6.992 0 0 1-1.336.949c-1.008.586-1.851.879-2.531.879-.164 0-.246-.059-.246-.176 0-.07.222-.223.668-.457a7.428 7.428 0 0 0 1.265-.844c1.008-.843 1.84-1.71 2.496-2.601-.14-.14-.843-.75-2.109-1.828a11.99 11.99 0 0 1-.738-.598 9.494 9.494 0 0 1-.422-.316c-.211-.165-.316-.282-.316-.352 0-.117.058-.176.175-.176.352 0 .914.246 1.688.738a25.651 25.651 0 0 1 2.426 1.688 6.91 6.91 0 0 0 .773-1.125c.188-.352.399-.785.633-1.3a2.41 2.41 0 0 0 .211-.669c.023-.21.035-.34.035-.386 0-.258.07-.387.211-.387.164 0 .387.129.668.387.492.468.738.785.738.949 0 .093-.058.199-.176.316-.281.281-.539.656-.773 1.125-.141.281-.398.68-.774 1.195-.117.141-.21.27-.281.387-.07.117-.14.223-.211.317.539.398 1.336 1.078 2.391 2.039.258.234.422.457.492.668.094.187.141.445.141.773 0 .234-.059.434-.176.598a.567.567 0 0 1-.457.21Zm7.312-12.867c.071 0 .141.035.211.105a.337.337 0 0 1 .141.21v.071c0 .164-.129.48-.387.95l-2.531 4.394c-.187.398-.434.598-.738.598-.305 0-.563-.188-.774-.563-.211-.305-.468-.762-.773-1.371a4.26 4.26 0 0 1-.352-.633 11.004 11.004 0 0 0-.211-.457c-.257-.445-.386-.762-.386-.95 0-.093.035-.163.105-.21.07-.07.141-.105.211-.105.258 0 .492.14.703.421.164.164.293.34.387.528l.387.527.703.809.316-.492c.328-.563 1.102-1.676 2.32-3.34.258-.329.481-.493.668-.493ZM167.09 34.883c0 .492-.223.738-.668.738-.094 0-.305-.047-.633-.14a2.54 2.54 0 0 1-.879-.493c-.281-.234-.422-.55-.422-.949l.035-.246c.094-.633.141-1.336.141-2.11l.07-9.878-11.074.597c-.328.024-.726.035-1.195.035-.539 0-.973-.14-1.301-.421-.328-.305-.562-.621-.703-.95-.117-.351-.176-.609-.176-.773 0-.14.082-.211.246-.211.094 0 .176.012.246.035a7.89 7.89 0 0 0 1.688.211h.281l12.024-.668.07-8.332-5.379.317c-1.055 1.734-2.039 3.117-2.953 4.148-.914 1.031-1.676 1.746-2.285 2.145-.586.398-.938.597-1.055.597-.117 0-.176-.058-.176-.176 0-.164.129-.433.387-.808 1.055-1.383 2.074-2.953 3.059-4.711.984-1.758 1.781-3.41 2.39-4.957.61-1.57.914-2.766.914-3.586v-.422c0-.281.094-.422.281-.422.071 0 .329.082.774.246.469.164.879.375 1.23.633.375.234.563.469.563.703 0 .281-.27.985-.809 2.11a108.781 108.781 0 0 1-1.195 2.39l11.848-.738a7.288 7.288 0 0 0 1.582-.317.6.6 0 0 1 .246-.035c.281 0 .679.223 1.195.668.516.446.773.809.773 1.09s-.292.445-.878.492l-8.192.492-.035 8.368 9.949-.563a6.824 6.824 0 0 0 1.617-.316c.141-.047.247-.07.317-.07.14 0 .375.105.703.316.328.21.621.457.879.738.258.281.387.54.387.774 0 .304-.27.48-.809.527l-13.043.703-.035 13.219Zm79.031-20.496c-.164 0-.34-.106-.527-.317a2.15 2.15 0 0 1-.282-.386c-.046-.118-.046-.27 0-.457l.036-.844c.023-.164.035-.563.035-1.195v-1.16l-1.055.492-1.23.527a10.87 10.87 0 0 0-.95.422c-.281.14-.527.21-.738.21a2.17 2.17 0 0 1-.562-.175 4.837 4.837 0 0 1-.493-.246c-.257-.164-.375-.34-.351-.527l.105-.352c0-.188.012-.352.036-.492l.035-2.04V5.95c0-.375-.024-.691-.071-.949-.047-.281-.082-.48-.105-.598 0-.117.035-.199.105-.246.024-.023.082-.035.176-.035.164 0 .481.106.949.316.399.188.563.422.493.704-.047.164-.094.41-.141.738l-.106 4.043c0 .117.012.21.036.281.046.047.093.07.14.07.282 0 .621-.082 1.02-.246.75-.234 1.394-.468 1.933-.703l.774-.316v-2.32c0-.938-.059-1.84-.176-2.708a.792.792 0 0 1-.035-.246c0-.234.094-.351.281-.351.024 0 .152.047.387.14.351.188.609.352.773.493.164.14.258.222.282.246.093.07.14.14.14.21a.34.34 0 0 1-.07.176c-.024.07-.047.13-.07.176l-.106 1.055-.035 3.234.035 3.13c0 .538-.035 1.007-.105 1.405-.118.493-.305.739-.563.739Zm-6.469 5.765c-.257 0-.574-.199-.949-.597-.281-.282-.422-.492-.422-.633 0-.07.047-.106.141-.106a1.48 1.48 0 0 1 .351-.035l.774-.035c.445 0 .738-.012.879-.035.445 0 .82-.012 1.125-.035 2.015-.188 3.375-.34 4.078-.457a29.8 29.8 0 0 0 .949-.14c.281-.071.504-.106.668-.106.328 0 .656.164.984.492.258.258.387.469.387.633 0 .14-.082.234-.246.28-.117.024-.809.071-2.074.142-.703.023-1.57.082-2.602.175a92.491 92.491 0 0 0-2.707.282c-.14.023-.34.058-.597.105-.258.047-.504.07-.739.07Zm4.711 14.52c-.726 0-1.289-.024-1.687-.07a1.68 1.68 0 0 1-.949-.422c-.446-.328-.75-1.043-.915-2.145l-.105-1.125c0-.281-.023-.633-.07-1.055a5.987 5.987 0 0 0-.809.141 3.817 3.817 0 0 1-.246.106.965.965 0 0 1-.211.035.81.81 0 0 1-.457-.14c-.141-.095-.316-.27-.527-.528-.164-.211-.246-.352-.246-.422s.082-.117.246-.14c.164-.024.386-.036.668-.036.398 0 .914-.047 1.547-.14l-.036-.493c0-.937-.058-1.734-.175-2.39l-.036-.246c0-.329.129-.457.387-.387.281.094.539.21.774.351.187.094.316.188.386.282.071.07.094.175.071.316l-.106 1.512v.914l3.094-.317c0-.164.012-.55.035-1.16.024-.633.024-1.043 0-1.23 0-.188-.023-.363-.07-.527a6.529 6.529 0 0 0-.071-.458c0-.187.094-.28.282-.28.187 0 .422.105.703.316.328.21.539.398.633.562.117.164.14.363.07.598a6.4 6.4 0 0 0-.246 1.265c-.047.47-.07.75-.07.844.281-.023.539-.058.773-.105.234-.047.387-.07.457-.07.188-.047.41-.071.668-.071.141.023.34.164.598.422.211.281.316.504.316.668 0 .234-.223.328-.668.281a6.863 6.863 0 0 0-1.195-.105c-.399 0-.738.011-1.02.035-.07.844-.211 1.676-.422 2.496a.953.953 0 0 1-.246.457c-.117.14-.222.21-.316.21-.164 0-.27-.07-.317-.21a3.524 3.524 0 0 1-.035-.598c.047-.61.071-1.37.071-2.285a26.99 26.99 0 0 0-1.477.14 9.357 9.357 0 0 1-1.512.212c-.023.96.024 1.816.141 2.566.07.492.211.832.422 1.02.14.117.305.187.492.21.211.024.422.036.633.036h.422c.726 0 1.406-.035 2.039-.106a1.52 1.52 0 0 0 .492-.14c.164-.07.281-.106.352-.106.21 0 .421.07.632.211.211.14.317.305.317.492 0 .188-.106.328-.317.422-.187.094-.492.176-.914.246-.75.094-1.5.14-2.25.14Zm10.02-15.996c.281 0 .422.129.422.387 0 .14-.129.34-.387.597-.703.867-2.098 2.52-4.184 4.957-.164.211-.316.317-.457.317-.117 0-.375-.176-.773-.528-.328-.281-.492-.515-.492-.703 0-.21.176-.41.527-.598.539-.304 1.348-.914 2.426-1.828 1.078-.96 1.875-1.722 2.39-2.285.211-.21.387-.316.528-.316Zm-44.684 11.496c2.086-.656 3.949-1.371 5.59-2.145a25.586 25.586 0 0 0-1.336-1.687c-.187-.235-.281-.422-.281-.563 0-.258.152-.48.457-.668.305-.21.539-.316.703-.316.188 0 .387.117.598.352a137.853 137.853 0 0 1 3.41 4.148c.937 1.195 1.406 1.922 1.406 2.18 0 .21-.164.457-.492.738-.305.305-.598.457-.879.457-.234 0-.469-.188-.703-.563a96.435 96.435 0 0 0-1.828-2.671l-4.219 2.109c-.469.21-1.207.586-2.215 1.125-.844.445-1.359.668-1.547.668-.14 0-.316-.094-.527-.281a1.65 1.65 0 0 1-.492-.633c-.094-.234-.094-.422 0-.563.14-.257.211-1.289.211-3.093V16.602c0-.563-.024-1.02-.071-1.372a3.587 3.587 0 0 0-.281-1.125 1.37 1.37 0 0 0-.07-.175.305.305 0 0 1-.035-.14c0-.118.082-.177.246-.177.304 0 1.066.258 2.285.774l7.629-.528c.187-.023.398-.035.633-.035.257 0 .562.117.914.352.351.21.527.445.527.703 0 .094-.059.234-.176.422-.094.187-.14.328-.14.422l-.914 6.609c.562.656.843 1.102.843 1.336 0 .117-.07.2-.211.246-.117.047-.304.07-.562.07l-8.508.317.035 5.87Zm-5.765-15.785c0-.235.152-.516.457-.844 1.711-1.898 3.199-3.785 4.464-5.66 1.266-1.875 1.899-3.13 1.899-3.762l-.035-.246V3.77c0-.329.129-.493.386-.493.305 0 .727.211 1.266.633.563.399.844.727.844.985 0 .117-.059.27-.176.457a23.895 23.895 0 0 1-1.16 1.687l4.992-.387a4.872 4.872 0 0 0 1.336-.28c.141-.048.246-.071.316-.071.352 0 .727.199 1.125.597.422.375.633.668.633.88 0 .28-.258.445-.773.492l-6.012.421c.164.047.527.293 1.09.739.586.445 1.113.902 1.582 1.37.469.47.703.798.703.985 0 .211-.141.469-.422.774-.281.28-.527.421-.738.421-.188 0-.41-.152-.668-.457a21.796 21.796 0 0 0-2.426-2.285c-.281-.234-.422-.433-.422-.597 0-.118.059-.27.176-.457.117-.188.27-.34.457-.457l-2.355.175a34.406 34.406 0 0 1-3.727 3.903c-1.359 1.195-2.226 1.793-2.601 1.793-.141 0-.211-.07-.211-.211Zm12.656 3.656.246-2.461-7.242.492v2.32l6.996-.351Zm-.457 4.36.281-2.708-6.785.317v2.636l6.504-.246Zm1.898-9.528c0-.234.153-.516.457-.844 1.149-1.383 2.192-2.941 3.129-4.676.961-1.757 1.442-2.988 1.442-3.69v-.142c0-.351.129-.527.386-.527.164 0 .41.094.739.281.351.164.668.364.949.598.281.234.422.469.422.703 0 .211-.164.586-.493 1.125-.328.54-.503.82-.527.844l6.926-.563a6.483 6.483 0 0 0 1.336-.246c.047-.023.141-.035.281-.035.328 0 .68.188 1.055.563.398.351.597.644.597.879 0 .14-.07.257-.21.351-.118.07-.282.117-.493.14l-7.136.493c.656.422 1.429 1.043 2.32 1.863.891.797 1.336 1.336 1.336 1.617 0 .164-.129.422-.387.774-.258.328-.504.492-.738.492-.188 0-.387-.117-.598-.352-1.148-1.242-2.191-2.226-3.129-2.953-.234-.187-.351-.363-.351-.527 0-.188.176-.469.527-.844l-2.601.176c-.774 1.031-1.711 2.074-2.813 3.129-1.078 1.055-1.805 1.582-2.18 1.582-.164 0-.246-.07-.246-.211Zm3.305.773c0-.14.082-.21.246-.21.352 0 1.148.292 2.391.878l7.066-.597.281-.035c.094 0 .27.046.528.14.281.07.539.2.773.387.258.164.387.387.387.668 0 .094-.035.223-.106.387-.07.164-.105.28-.105.351a88.243 88.243 0 0 1-.492 8.262l-.071.879c-.07.984-.164 1.805-.281 2.46-.117.657-.316 1.173-.598 1.548-.445.609-.925.914-1.441.914s-1.172-.317-1.969-.95a18.576 18.576 0 0 1-2.215-2.074c-.656-.75-.984-1.23-.984-1.441 0-.164.094-.246.281-.246.211 0 .504.117.879.351.867.54 1.594.973 2.18 1.301.586.328 1.008.492 1.266.492.117 0 .199-.082.246-.246.539-3 .867-6.762.984-11.285l-6.609.492c0 3.961.035 10.242.105 18.844 0 .21-.058.363-.176.457a.466.466 0 0 1-.386.176c-.188 0-.411-.07-.668-.211-.446-.188-.762-.363-.95-.528-.187-.164-.281-.351-.281-.562l.035-.246c.141-.773.211-1.64.211-2.602l-.105-14.836c0-.609-.024-1.078-.07-1.406a3.306 3.306 0 0 0-.211-.95c-.094-.28-.141-.468-.141-.562ZM67.594 68.219c-.271 0-.469-.094-.594-.281a3.672 3.672 0 0 0-.563-.657c-.166-.166-.468-.396-.906-.687l.094-.156c.958.333 1.635.5 2.031.5.334 0 .698-.188 1.094-.563.417-.396.77-.958 1.063-1.688.145-.333.25-.604.312-.812.083-.23.146-.48.188-.75v-.063c0-.187-.094-.28-.282-.28-.208 0-.583.062-1.125.187-.291.083-.677.208-1.156.375l-.25-.063a.726.726 0 0 0-.156-.093 1.238 1.238 0 0 1-.156-.188c-.105-.104-.157-.177-.157-.219L67 62.656c0-.146.073-.281.219-.406.166-.125.26-.219.281-.281.167-.188.5-.646 1-1.375a2.72 2.72 0 0 0 .219-.282c.104-.166.156-.312.156-.437 0-.146-.615-.042-1.844.313-1.25.374-1.906.562-1.969.562-.208 0-.427-.177-.656-.531-.166-.167-.25-.302-.25-.407 0-.145.209-.229.625-.25.48-.02 1.219-.104 2.219-.25 1.02-.145 1.625-.24 1.813-.28l.437-.126a.694.694 0 0 1 .219-.031c.062 0 .156.042.281.125.146.083.27.146.375.188.27.124.427.27.469.437v.094c0 .187-.104.385-.313.593-.083.084-.25.26-.5.532-.25.25-.406.416-.469.5-.083.083-.208.218-.374.406-.167.188-.26.302-.282.344 0 .062.021.104.063.125.041.02.094.031.156.031a12.923 12.923 0 0 0 1.531-.281l.5-.157c.23 0 .396.084.5.25.188.209.313.386.375.532a.398.398 0 0 1 0 .375.785.785 0 0 1-.094.187 2.057 2.057 0 0 0-.124.219l-.126.25c-.062.125-.104.25-.124.375-.376 1.083-.823 2.01-1.344 2.781a4.96 4.96 0 0 1-.969.906c-.48.355-.948.532-1.406.532Zm3.594 8.375c-.313 0-.615-.23-.907-.688a9.89 9.89 0 0 0-1.094-1.437l-.812-.844c-.438.5-.823.896-1.156 1.188a6.227 6.227 0 0 1-1.188.843c-.896.521-1.646.781-2.25.781-.146 0-.218-.052-.218-.156 0-.062.197-.198.593-.406a6.6 6.6 0 0 0 1.125-.75c.896-.75 1.636-1.52 2.219-2.313-.125-.124-.75-.666-1.875-1.624a10.656 10.656 0 0 1-.656-.532 8.042 8.042 0 0 1-.375-.281c-.188-.146-.281-.25-.281-.313 0-.104.052-.156.156-.156.312 0 .812.219 1.5.656.687.417 1.406.917 2.156 1.5.292-.354.52-.687.688-1 .166-.312.354-.697.562-1.156.104-.229.167-.427.188-.594.02-.187.03-.302.03-.343 0-.23.063-.344.188-.344.146 0 .344.115.594.344.438.416.656.698.656.844 0 .083-.052.177-.156.28-.25.25-.48.584-.688 1-.124.25-.354.605-.687 1.063-.104.125-.188.24-.25.344a3.281 3.281 0 0 1-.188.281c.48.354 1.188.959 2.126 1.813.229.208.374.406.437.594.083.166.125.395.125.687a.89.89 0 0 1-.156.531.504.504 0 0 1-.406.188Zm-6.907 9.344c-.312 0-.552-.084-.719-.25-.187-.188-.28-.355-.28-.5 0-.146.083-.303.25-.47.02-.02.135-.187.343-.5.458-.728.98-1.656 1.563-2.78.604-1.146.979-1.928 1.124-2.344.126-.396.24-.74.344-1.031.125-.292.23-.438.313-.438.146 0 .27.052.375.156.104.084.208.209.312.375.125.146.219.25.281.313.146.166.22.323.22.469a.5.5 0 0 1-.126.312 1.56 1.56 0 0 0-.156.219L66.75 81.78a63.754 63.754 0 0 1-1.406 2.406.5.5 0 0 0-.125.313c0 .083.094.125.281.125.396 0 1.135-.052 2.219-.156 1.083-.084 1.812-.156 2.187-.219.542-.063.917-.125 1.125-.188.23-.062.563.094 1 .47.521.437.636.718.344.843-.167.083-.49.125-.969.125h-1.25c-.27 0-.698.02-1.281.063-.354 0-.75.01-1.188.03-.437.022-.802.042-1.093.063-.334.021-.98.084-1.938.188l-.375.094Zm13.281-13.782c.25 0 .376.115.376.344 0 .125-.115.302-.344.531-.625.771-1.865 2.24-3.719 4.406-.146.188-.281.282-.406.282-.104 0-.334-.156-.688-.469-.291-.25-.437-.458-.437-.625 0-.188.156-.365.469-.531.479-.271 1.197-.813 2.156-1.625.958-.854 1.666-1.531 2.125-2.031.187-.188.344-.282.469-.282ZM39.657 70v.094c0 .354-.177.531-.531.531-.292 0-.594-.083-.906-.25-.313-.167-.469-.417-.469-.75l.031-.313c.021-.104.032-.24.032-.406 0-.146-.01-.312-.032-.5a5.425 5.425 0 0 0-.062-.437l-.563-4.438c-.083-.562-.218-.99-.406-1.281-.146-.23-.219-.385-.219-.469 0-.125.115-.187.344-.187.375 0 1.02.166 1.938.5l4.03-.219-.062-1.406a2.076 2.076 0 0 0-.437-1.188.388.388 0 0 1-.125-.281c0-.146.135-.219.406-.219.23 0 .51.063.844.188.396.146.656.281.781.406.125.104.198.25.219.438l.093 1.968 3.97-.218.03-1.47c0-.52-.114-.958-.343-1.312a.736.736 0 0 1-.094-.312c0-.167.125-.25.375-.25.104.02.302.073.594.156.312.063.604.177.875.344.27.166.406.375.406.625l-.094 2.125 4.782-.25.406-.032c.208 0 .448.105.718.313.292.208.438.417.438.625 0 .083-.02.177-.063.281a1.708 1.708 0 0 0-.093.219l-.844 4.906c.417.5.625.834.625 1 0 .125-.063.209-.188.25-.104.021-.312.042-.624.063l-15.844.719.062.437Zm-7.843 16.906c0-.187.187-.49.562-.906 3.104-3.396 4.688-7.74 4.75-13.031 0-.709-.063-1.25-.188-1.625-.083-.292-.124-.48-.124-.563 0-.166.083-.25.25-.25.312 0 .979.26 2 .781l14.093-.624c.584-.042 1.084-.136 1.5-.282.167-.041.282-.062.344-.062.23 0 .563.177 1 .531.438.333.656.615.656.844 0 .208-.24.333-.718.375L39 72.813a33.868 33.868 0 0 1-.563 4.812L55 76.906c.583-.041 1.083-.135 1.5-.281.167-.042.292-.063.375-.063.25 0 .5.094.75.282.25.166.458.364.625.594.167.208.25.364.25.468 0 .209-.24.334-.719.375l-10.468.438c1.145 1.187 2.114 2.052 2.906 2.594 2.166-.792 3.427-1.553 3.781-2.282.104-.229.24-.344.406-.344.188 0 .427.198.719.594.292.396.438.73.438 1 0 .209-.115.365-.344.469-1 .542-2.157 1.042-3.469 1.5 1.125.625 2.385 1.156 3.781 1.594 1.396.437 3.042.833 4.938 1.187.187.042.323.084.406.125.083.042.125.104.125.188 0 .062-.073.219-.219.469-.125.25-.281.468-.468.656-.188.208-.376.312-.563.312-.063 0-.177-.02-.344-.062-2.291-.542-4.229-1.125-5.812-1.75a20.375 20.375 0 0 1-4.344-2.375c-1.333-.98-2.646-2.24-3.938-3.781l-2.53.093-.157 5.688c1.354-.354 2.948-.813 4.781-1.375a2.86 2.86 0 0 1 .907-.156c.25 0 .374.062.374.187 0 .23-.364.552-1.093.969-.73.416-1.625.844-2.688 1.281-.479.208-.875.375-1.187.5-.313.146-.552.26-.719.344-.792.396-1.292.594-1.5.594-.208 0-.438-.178-.688-.532-.25-.354-.312-.625-.187-.812.083-.146.146-.563.188-1.25a26.29 26.29 0 0 0 .062-1.5L40.969 79l-2.875.125c-.521 1.667-1.209 3.104-2.063 4.313-.854 1.187-1.677 2.093-2.468 2.718-.792.625-1.303.938-1.532.938-.146 0-.218-.063-.218-.188Zm7.28-21.844L43 64.844l-.094-1.625-4 .218.188 1.626Zm.344 3.157 3.688-.188-.063-1.781-3.812.188.188 1.78Zm.75 6.062c0-.083.053-.125.157-.125.083 0 .156.01.218.031.417.105.823.157 1.22.157h.28l9.25-.438c.584-.041 1.084-.135 1.5-.281.167-.042.292-.063.376-.063.25 0 .5.094.75.282.25.166.458.364.624.594.167.208.25.364.25.468 0 .188-.24.302-.718.344l-11.438.563-.718.03c-.813 0-1.365-.395-1.657-1.187a1.2 1.2 0 0 1-.093-.375Zm4.5-9.5 3.75-.187.063-1.656-3.875.187.063 1.656Zm.157 3.188 3.531-.188.031-1.781-3.656.188.094 1.78Zm9.031-.438.25-1.812-4.031.187-.063 1.813 3.844-.188Zm.438-3.219.218-1.687-4.312.219-.063 1.656 4.157-.188ZM116.53 72c-.333 0-.541-.094-.625-.281a4.346 4.346 0 0 0-.312-.625c-.104-.188-.292-.406-.563-.656l.063-.126c.75.271 1.239.407 1.468.407.167 0 .292-.031.376-.094.083-.063.218-.208.406-.438.271-.291.521-.74.75-1.343.312-.896.51-1.823.594-2.781v-.094c0-.125-.021-.209-.063-.25-.271 0-.99.062-2.156.187-.646 1.604-1.396 2.927-2.25 3.969-.834 1.02-1.594 1.531-2.281 1.531-.167 0-.25-.062-.25-.187 0-.042.208-.281.624-.719.417-.438.876-1.01 1.376-1.719.52-.729 1.01-1.625 1.468-2.687-.104 0-.406.02-.906.062a6.51 6.51 0 0 0-1.281.219.495.495 0 0 1-.531.063l-.063-.032a.488.488 0 0 1-.125-.094 1.359 1.359 0 0 1-.375-.312.831.831 0 0 1-.125-.406c0-.063.052-.146.156-.25l.375-.5c.125-.167.24-.406.344-.719.104-.333.156-.615.156-.844 0-.146-.01-.24-.031-.281a.346.346 0 0 1-.031-.156c0-.104.052-.157.156-.157.125 0 .302.073.531.22.063.04.177.124.344.25.188.103.292.228.312.374 0 .146-.083.386-.25.719l-.406.719a.39.39 0 0 0-.062.219c0 .062.021.114.062.156a.39.39 0 0 0 .219 0l1.875-.25a11.01 11.01 0 0 0 .5-1.719v-.718c0-.23.062-.324.188-.282.27.063.489.146.656.25.312.188.468.344.468.469 0 .104-.041.281-.124.531-.063.23-.115.406-.157.531-.021.084-.114.354-.281.813.062 0 .448-.042 1.156-.125l.313-.063c.062 0 .177-.02.343-.062a.35.35 0 0 1 .157-.031c.25 0 .406.01.469.03.083.022.208.084.374.188.188.125.313.25.376.375.062.125.083.271.062.438l-.188 1.031-.218 1.125c0 .083-.073.354-.219.813a7.464 7.464 0 0 1-.5 1.218c-.354.709-.771 1.24-1.25 1.594-.417.333-.781.5-1.094.5Zm-4.062 7.094c-.229 0-.511-.177-.844-.531-.25-.25-.375-.438-.375-.563 0-.063.042-.094.125-.094.083-.02.187-.031.313-.031l.687-.031c.396 0 .656-.01.781-.031.396 0 .729-.01 1-.032 1.792-.166 3-.302 3.625-.406.313-.042.594-.083.844-.125.25-.063.448-.094.594-.094.291 0 .583.146.875.438.229.229.344.416.344.562 0 .125-.073.209-.219.25-.104.021-.719.063-1.844.125-.625.021-1.396.073-2.313.156-.916.084-1.718.167-2.406.25-.125.021-.302.053-.531.094a3.668 3.668 0 0 1-.656.063Zm9.093-7.875c.105 0 .261.073.469.219-.021.041.021.124.125.25l.219.218c.104.104.208.23.313.375.124.146.26.302.406.469.375.396 1.239 1.427 2.594 3.094.229.333.343.531.343.594 0 .208-.125.312-.375.312-.146 0-.302-.104-.468-.313-.396-.416-1.105-1.072-2.126-1.968-.791-.73-1.51-1.292-2.156-1.688-.312-.146-.468-.312-.468-.5 0-.146.156-.354.468-.625.292-.291.511-.437.656-.437ZM91.25 85.969v.062a.55.55 0 0 1-.156.406c-.084.105-.219.157-.406.157-.313 0-.636-.115-.97-.344-.333-.208-.5-.438-.5-.688v-.156c0-.146.011-.281.032-.406a1.76 1.76 0 0 0 .031-.344l-.031-.562-.313-6.188a4.853 4.853 0 0 0-.156-.875c-.062-.333-.125-.573-.187-.719-.146-.291-.219-.5-.219-.624 0-.126.094-.188.281-.188.271 0 .948.188 2.031.563l11.594-.532h.344c.292 0 .531.073.719.219.208.146.364.313.468.5.105.188.157.323.157.406a.599.599 0 0 1-.094.313 1.052 1.052 0 0 0-.125.281l-.531 6.313c.5.645.75 1.083.75 1.312 0 .146-.063.23-.188.25-.125.042-.333.063-.625.063l-11.937.25.031.53Zm-11.469 0c0-.209.094-.531.281-.969 1.063-2.333 1.865-4.604 2.407-6.813a40.692 40.692 0 0 0 1.062-6.78c.188-2.313.281-5.094.281-8.344 0-.605-.01-1.063-.03-1.376a3.8 3.8 0 0 0-.188-.968c-.084-.25-.125-.407-.125-.469 0-.146.073-.219.219-.219.27 0 .99.271 2.156.813l16.968-.938c.605-.02 1.136-.125 1.594-.312a.83.83 0 0 1 .375-.094c.229 0 .479.094.75.281.292.188.531.396.719.625.208.23.312.396.312.5 0 .271-.26.427-.781.469L85.812 62.5c0 1.833-.052 3.77-.156 5.813-.083 2.041-.24 3.78-.469 5.218-.458 2.98-1.072 5.417-1.843 7.313-.75 1.875-1.459 3.229-2.125 4.062-.667.854-1.104 1.281-1.313 1.281-.083 0-.125-.072-.125-.218Zm5.781-10.781c0-.209.178-.5.532-.876.646-.687 1.364-1.552 2.156-2.593a29.823 29.823 0 0 0 2.063-2.969l-1.907.156h-.25c-.458 0-.854-.125-1.187-.375-.313-.25-.469-.583-.469-1 0-.104.063-.156.188-.156l.312.063c.313.062.635.093.969.093h.219l2.75-.187c0-.854.01-1.459.03-1.813-.645.146-1.25.271-1.812.375-.562.104-.937.156-1.125.156-.396 0-.594-.083-.594-.25 0-.083.084-.177.25-.28.167-.126.407-.23.72-.313.916-.271 1.937-.646 3.062-1.125 1.146-.48 1.864-.938 2.156-1.375.104-.125.219-.188.344-.188.208 0 .406.104.594.313a2.5 2.5 0 0 1 .468.656c.146.23.219.396.219.5 0 .208-.073.333-.219.375-1.02.354-1.854.615-2.5.781v2.094l1.219-.094c.417-.041.76-.104 1.031-.187a.811.811 0 0 1 .25-.031c.23 0 .5.145.813.437.312.27.469.5.469.688 0 .208-.209.322-.626.343l-3.156.219v.563A.6.6 0 0 1 92.97 69c.125 0 .437.167.937.5.5.313.959.656 1.375 1.031.438.375.656.646.656.813 0 .208-.114.437-.343.687-.209.25-.386.375-.531.375-.146 0-.334-.114-.563-.344a20.389 20.389 0 0 0-1.969-1.718v4.5c0 .437-.156.656-.469.656-.145 0-.364-.063-.656-.188-.25-.124-.427-.25-.531-.374a.77.77 0 0 1-.125-.438c0-.167.01-.292.031-.375.084-.667.125-1.146.125-1.438l.031-.968c0-.417.042-.969.126-1.656-.23.541-.72 1.24-1.47 2.093-.75.834-1.52 1.573-2.312 2.219-.77.646-1.291.969-1.562.969-.104 0-.156-.052-.156-.156Zm5.313 4.656 10.781-.375.125-2.344-11.031.531.125 2.188Zm.25 4 10.281-.25.156-2.625-10.593.375.156 2.5Zm3.563-9.25c0-.209.197-.51.593-.906a30.787 30.787 0 0 0 4.375-5.376l-1.562.126h-.281c-.396 0-.688-.073-.876-.22-.354-.312-.593-.614-.718-.906a1.31 1.31 0 0 1-.063-.218c0-.104.073-.156.219-.156a.81.81 0 0 1 .25.03c.313.084.615.126.906.126l.344-.031 2.437-.157.063-1.969c-.083.021-.542.126-1.375.313-.813.188-1.427.281-1.844.281-.396 0-.594-.073-.594-.219 0-.083.094-.187.282-.312.208-.125.49-.24.844-.344.916-.291 1.99-.677 3.218-1.156 1.229-.5 1.99-.969 2.282-1.406.104-.167.229-.25.374-.25.271 0 .553.198.844.593.313.376.469.678.469.907a.413.413 0 0 1-.094.25c-.041.062-.083.093-.125.093a33.133 33.133 0 0 1-2.75.876 55.94 55.94 0 0 0-.031 2.25l2.219-.126c.229-.02.573-.093 1.031-.218a.946.946 0 0 1 .281-.031c.229 0 .511.124.844.374.333.23.5.49.5.782 0 .208-.24.333-.719.375l-4.156.25v.719c.375.124 1.115.53 2.219 1.218a59.587 59.587 0 0 1 3.156 2c.021.021.094.104.219.25.146.125.219.26.219.406 0 .126-.073.344-.219.657-.125.291-.292.448-.5.469h-.063c-.166 0-.354-.084-.562-.25-1.584-1.209-3.073-2.24-4.469-3.094l-.031 3.844c0 .25-.032.437-.094.562a.323.323 0 0 1-.312.188c-.313 0-.615-.115-.907-.344-.291-.23-.437-.48-.437-.75l.031-.313c.083-.666.125-1.146.125-1.437v-.875c0-.5.062-1.167.188-2-.459.833-1.084 1.656-1.876 2.469a19.243 19.243 0 0 1-2.312 2c-.75.52-1.219.78-1.406.78-.104 0-.156-.04-.156-.124Zm72.5 2.937c-.313 0-.615-.229-.907-.687a9.902 9.902 0 0 0-1.093-1.438l-.813-.844c-.437.5-.823.896-1.156 1.188a6.255 6.255 0 0 1-1.188.844c-.896.52-1.646.781-2.25.781-.146 0-.219-.052-.219-.156 0-.063.198-.198.594-.406a6.591 6.591 0 0 0 1.125-.75c.896-.75 1.636-1.521 2.219-2.313-.125-.125-.75-.667-1.875-1.625a10.415 10.415 0 0 1-.656-.531 7.711 7.711 0 0 1-.375-.281c-.188-.146-.282-.25-.282-.313 0-.104.053-.156.157-.156.312 0 .812.219 1.5.656.687.417 1.406.917 2.156 1.5.292-.354.521-.688.687-1 .167-.313.355-.698.563-1.156.104-.23.167-.427.187-.594.021-.188.032-.302.032-.344 0-.229.062-.344.187-.344.146 0 .344.115.594.344.437.417.656.698.656.844 0 .083-.052.177-.156.281-.25.25-.479.584-.687 1-.126.25-.355.604-.688 1.063a2.76 2.76 0 0 0-.25.344 3.078 3.078 0 0 1-.188.28c.48.355 1.188.96 2.126 1.813.229.209.374.406.437.594.083.167.125.396.125.688a.891.891 0 0 1-.156.53.504.504 0 0 1-.406.188Zm6.5-11.437c.062 0 .124.031.187.094a.302.302 0 0 1 .125.187v.063c0 .145-.115.427-.344.843l-2.25 3.906c-.166.355-.385.532-.656.532s-.5-.167-.688-.5c-.187-.271-.416-.677-.687-1.219a3.86 3.86 0 0 1-.313-.563 10.249 10.249 0 0 0-.187-.406c-.229-.396-.344-.677-.344-.844a.21.21 0 0 1 .094-.187c.063-.063.125-.094.187-.094.23 0 .438.125.626.375.145.146.26.302.343.469l.344.469.625.719.281-.438c.292-.5.979-1.49 2.063-2.969.229-.291.427-.437.594-.437Zm-42.25 18.625h-.563c-.417 0-.74-.031-.969-.094a1.39 1.39 0 0 1-.594-.25 7.097 7.097 0 0 1-.656-.688c-.229-.27-.344-.52-.344-.75 0-.145.073-.218.219-.218.084 0 .146.01.188.031.416.104.864.156 1.343.156l.719-.031 6.657-.188 1.75-9.624-3.532.156c-.541.041-.896.062-1.062.062-.438 0-.75-.094-.938-.281a3.42 3.42 0 0 1-.594-.813c-.166-.312-.25-.53-.25-.656 0-.166.073-.25.219-.25.063 0 .115.01.157.031.395.126.854.188 1.374.188l.876-.031 4.062-.188 1.281-7-6.343.375c-.23.021-.532.031-.907.031-.5 0-.823-.062-.969-.187-.27-.208-.5-.458-.687-.75-.167-.313-.25-.583-.25-.813 0-.145.073-.218.219-.218l.187.031c.375.104.834.156 1.375.156h.406l15.969-.968c.396-.021.865-.126 1.407-.313a.432.432 0 0 1 .187-.031c.25 0 .615.198 1.094.593.479.396.719.72.719.97s-.271.395-.813.437l-9.375.562-1.312 7 7.718-.375h.188c.271 0 .604.084 1 .25.396.167.594.48.594.938 0 .166-.032.333-.094.5-.063.146-.104.24-.125.281l-1 9.563 3-.094c.354-.021.875-.104 1.562-.25.125-.042.229-.063.313-.063.229 0 .489.104.781.313.313.208.583.448.813.719.229.27.343.479.343.624 0 .271-.219.428-.656.47h-.094l-24.593.687Zm16.5-2.344.906-9.781-7.5.344-1.844 9.687 8.438-.25Zm61.218-12.094c-.687-.25-1.01-.52-.968-.812.124-.875.187-1.875.187-3a13.453 13.453 0 0 0-.094-1.781c-.021-.209-.021-.323 0-.344a.426.426 0 0 1 .313-.125c.187 0 .416.083.687.25.292.166.438.333.438.5 0 .104-.011.208-.031.312a1.152 1.152 0 0 0-.032.281l-.187 3.094c0 .167.062.271.187.313h.156c.167 0 .282-.01.344-.031l4.032-.563v-.813c0-1.02-.021-1.812-.063-2.374-.021-.48-.073-.865-.156-1.157-.063-.333.021-.5.25-.5.166 0 .385.063.656.188.333.166.531.312.594.437.062.104.083.271.062.5-.041.375-.062.938-.062 1.688l.031 2.375c0 .5-.094.896-.281 1.187-.104.125-.209.188-.313.188-.104 0-.25-.094-.437-.281a1.845 1.845 0 0 1-.157-.188.41.41 0 0 0-.187-.156.814.814 0 0 0-.25-.031c-.479.041-1.635.197-3.469.468-.312.042-.562.125-.75.25-.208.104-.344.156-.406.156l-.094-.03Zm3.5 12.656c-.646 0-1.146-.02-1.5-.062a1.5 1.5 0 0 1-.844-.375c-.395-.292-.666-.927-.812-1.906l-.094-1c0-.25-.021-.563-.062-.938a5.336 5.336 0 0 0-.719.125c-.042.021-.115.052-.219.094a.856.856 0 0 1-.187.031.722.722 0 0 1-.407-.125c-.124-.083-.281-.24-.468-.469-.146-.187-.219-.312-.219-.374 0-.063.073-.105.219-.126.146-.02.344-.03.594-.03a9.76 9.76 0 0 0 1.374-.126l-.031-.437c0-.834-.052-1.542-.156-2.125l-.031-.219c0-.292.114-.406.344-.344.25.084.479.188.687.313.167.083.281.166.344.25.062.062.083.156.062.281l-.093 1.344v.812l2.75-.281c0-.146.01-.49.031-1.031.021-.563.021-.927 0-1.094 0-.167-.021-.323-.063-.469a5.904 5.904 0 0 0-.062-.406c0-.167.083-.25.25-.25.166 0 .375.094.625.281.291.188.479.354.562.5.104.146.125.323.063.531a5.704 5.704 0 0 0-.219 1.126c-.042.416-.063.666-.063.75.25-.021.48-.053.688-.094.208-.042.344-.063.406-.063.167-.041.365-.062.594-.062.125.02.302.146.531.375.188.25.281.448.281.594 0 .208-.197.291-.593.25a6.108 6.108 0 0 0-1.063-.094c-.354 0-.656.01-.906.031-.062.75-.188 1.49-.375 2.219a1.09 1.09 0 0 1-.219.437c-.104.104-.198.156-.281.156-.146 0-.24-.052-.281-.156a3.672 3.672 0 0 1-.032-.562 27.07 27.07 0 0 0 .063-2.031c-.563.041-1 .083-1.313.124a8.296 8.296 0 0 1-1.343.188 12.86 12.86 0 0 0 .125 2.281c.062.438.187.74.375.906a.83.83 0 0 0 .437.188c.188.02.375.031.563.031h.375c.646 0 1.25-.031 1.812-.094.167-.02.313-.062.438-.124.146-.063.25-.094.312-.094.188 0 .375.062.563.187.187.125.281.271.281.438 0 .166-.094.291-.281.375-.167.083-.438.156-.813.219-.666.083-1.333.124-2 .124Zm4.906-11.718c.105 0 .261.073.469.219-.021.041.021.124.125.25l.219.218c.104.104.208.23.313.375.124.146.26.302.406.469.375.396 1.239 1.427 2.594 3.094.229.333.343.531.343.594 0 .208-.125.312-.375.312-.146 0-.302-.104-.468-.313-.396-.416-1.105-1.072-2.126-1.968-.791-.73-1.51-1.292-2.156-1.688-.312-.146-.468-.312-.468-.5 0-.146.156-.354.468-.625.292-.291.511-.437.656-.437Zm-32.156 5.125c-.521 2.229-1.344 4.114-2.468 5.656-1.126 1.52-2.594 3.01-4.407 4.469-.437.354-.791.531-1.062.531-.146 0-.219-.073-.219-.219 0-.208.167-.49.5-.844 1.729-1.916 3.042-3.74 3.938-5.468.916-1.73 1.541-3.625 1.874-5.688.355-2.083.532-4.698.532-7.844V64c0-1.146-.104-2.031-.313-2.656a1.283 1.283 0 0 1-.093-.438c0-.166.093-.25.281-.25.333 0 1.062.282 2.187.844l11.156-.656.344-.032c.354 0 .667.146.938.438.271.27.406.51.406.719 0 .083-.031.208-.094.375a1.237 1.237 0 0 0-.094.406l.157 21.656.031 1.063c0 .437-.104.802-.312 1.094-.188.291-.407.5-.657.624-.25.146-.458.22-.625.22-.375 0-1.01-.324-1.906-.97a19.93 19.93 0 0 1-2.5-2.062c-.771-.73-1.156-1.23-1.156-1.5 0-.125.073-.188.218-.188.23 0 .573.136 1.032.407a20.023 20.023 0 0 0 3.812 1.75l-.062-8.969-11.438.469Zm11.438-2.188-.032-4.875-10.718.406c-.084 2.25-.209 3.896-.375 4.938l11.125-.469Zm-.032-6.687-.031-4.781-10.562.656-.063 4.656 10.656-.531Zm66.376 10.062c-.313 0-.615-.229-.907-.687a9.902 9.902 0 0 0-1.093-1.438l-.813-.844c-.437.5-.823.896-1.156 1.188a6.255 6.255 0 0 1-1.188.844c-.896.52-1.646.781-2.25.781-.146 0-.219-.052-.219-.156 0-.063.198-.198.594-.406a6.591 6.591 0 0 0 1.125-.75c.896-.75 1.636-1.521 2.219-2.313-.125-.125-.75-.667-1.875-1.625a10.415 10.415 0 0 1-.656-.531 7.711 7.711 0 0 1-.375-.281c-.188-.146-.282-.25-.282-.313 0-.104.053-.156.157-.156.312 0 .812.219 1.5.656.687.417 1.406.917 2.156 1.5.292-.354.521-.688.687-1 .167-.313.355-.698.563-1.156.104-.23.167-.427.187-.594.021-.188.032-.302.032-.344 0-.229.062-.344.187-.344.146 0 .344.115.594.344.437.417.656.698.656.844 0 .083-.052.177-.156.281-.25.25-.479.584-.687 1-.126.25-.355.604-.688 1.063a2.76 2.76 0 0 0-.25.344 3.078 3.078 0 0 1-.188.28c.48.355 1.188.96 2.126 1.813.229.209.374.406.437.594.083.167.125.396.125.688a.891.891 0 0 1-.156.53.504.504 0 0 1-.406.188Zm6.5-11.437c.062 0 .124.031.187.094a.302.302 0 0 1 .125.187v.063c0 .145-.115.427-.344.843l-2.25 3.906c-.166.355-.385.532-.656.532s-.5-.167-.688-.5c-.187-.271-.416-.677-.687-1.219a3.86 3.86 0 0 1-.313-.563 10.249 10.249 0 0 0-.187-.406c-.229-.396-.344-.677-.344-.844a.21.21 0 0 1 .094-.187c.063-.063.125-.094.187-.094.23 0 .438.125.626.375.145.146.26.302.343.469l.344.469.625.719.281-.438c.292-.5.979-1.49 2.063-2.969.229-.291.427-.437.594-.437Zm-42.25 18.625h-.563c-.417 0-.74-.031-.969-.094a1.39 1.39 0 0 1-.594-.25 7.097 7.097 0 0 1-.656-.688c-.229-.27-.344-.52-.344-.75 0-.145.073-.218.219-.218.084 0 .146.01.188.031.416.104.864.156 1.343.156l.719-.031 6.657-.188 1.75-9.624-3.532.156c-.541.041-.896.062-1.062.062-.438 0-.75-.094-.938-.281a3.42 3.42 0 0 1-.594-.813c-.166-.312-.25-.53-.25-.656 0-.166.073-.25.219-.25.063 0 .115.01.157.031.395.126.854.188 1.374.188l.876-.031 4.062-.188 1.281-7-6.343.375c-.23.021-.532.031-.907.031-.5 0-.823-.062-.969-.187-.27-.208-.5-.458-.687-.75-.167-.313-.25-.583-.25-.813 0-.145.073-.218.219-.218l.187.031c.375.104.834.156 1.375.156h.406l15.969-.968c.396-.021.865-.126 1.407-.313a.432.432 0 0 1 .187-.031c.25 0 .615.198 1.094.593.479.396.719.72.719.97s-.271.395-.813.437l-9.375.562-1.312 7 7.718-.375h.188c.271 0 .604.084 1 .25.396.167.594.48.594.938 0 .166-.032.333-.094.5-.063.146-.104.24-.125.281l-1 9.563 3-.094c.354-.021.875-.104 1.562-.25.125-.042.229-.063.313-.063.229 0 .489.104.781.313.313.208.583.448.813.719.229.27.343.479.343.624 0 .271-.219.428-.656.47h-.094l-24.593.687Zm16.5-2.344.906-9.781-7.5.344-1.844 9.687 8.438-.25Zm61.5-4.563c-.126 0-.303-.093-.532-.28a2.02 2.02 0 0 1-.312-.25c-.084-.084-.125-.157-.125-.22l.031-.5c.021-.187.031-.604.031-1.25-.021-.458-.031-1.416-.031-2.874 0-.584-.052-1.115-.156-1.594l-.125-.75V70c0-.188.125-.24.375-.156.104.02.344.062.718.125.396-.063 1.719-.219 3.969-.469a9.167 9.167 0 0 0 1.157-.219h.124c.23 0 .438.115.626.344.333.396.468.677.406.844-.084.208-.167.562-.25 1.062-.042.292-.094.792-.156 1.5V76.75c0 .188-.094.438-.282.75a.484.484 0 0 1-.25.25.654.654 0 0 1-.344.094c-.124 0-.218-.031-.281-.094l-.125-.125a.346.346 0 0 0-.125-.125c-.021-.02-.062-.031-.125-.031-1.291 0-2.458.083-3.5.25-.083.02-.166.031-.25.031a.588.588 0 0 0-.187.031l-.219.031h-.062Zm.593-1.156c.521-.02 1.229-.083 2.125-.187.417-.042.656-.063.719-.063h.25c.333 0 .583.063.75.188.146-1.042.219-2.948.219-5.719-.042-.313-.167-.469-.375-.469-.396 0-1.198.073-2.407.219-.124 0-.25.01-.374.031l-.376.063a5.03 5.03 0 0 1-.781.094c-.146 0-.198.072-.156.218l-.031 1.063a2.866 2.866 0 0 0-.032.406c.021.125.032.24.032.344.021.166.031.437.031.812 0 1.625.01 2.521.031 2.688 0 .146.042.24.125.281a.353.353 0 0 0 .25.031Zm2.313-1.75c-.229 0-.406-.114-.532-.344a17.96 17.96 0 0 0-1.218-1.812l-.219-.344c-.083-.125-.125-.219-.125-.281.021-.083.073-.115.156-.094a4.388 4.388 0 0 1 1.5.813c.709.541 1.063.958 1.063 1.25a.878.878 0 0 1-.125.437c-.146.25-.313.375-.5.375Zm5.218-8.375c.105 0 .261.073.469.219-.021.042.021.125.125.25l.219.219c.104.104.208.229.313.375.124.146.26.302.406.469.375.395 1.239 1.427 2.594 3.093.229.334.343.531.343.594 0 .208-.125.313-.375.313-.146 0-.302-.105-.468-.313-.396-.417-1.105-1.073-2.126-1.969-.791-.729-1.51-1.291-2.156-1.687-.312-.146-.468-.313-.468-.5 0-.146.156-.354.468-.625.292-.292.511-.438.656-.438Zm-32.874 19.094v.156c0 .521-.167.781-.5.781-.167 0-.396-.062-.688-.187a2.47 2.47 0 0 1-.781-.531c-.209-.209-.313-.438-.313-.688l.032-.219c.062-.437.093-.916.093-1.437v-.625l-.5-18.469a6.954 6.954 0 0 0-.156-1.062c-.083-.396-.198-.719-.344-.969-.146-.292-.219-.5-.219-.625 0-.167.115-.25.344-.25.417 0 1.188.26 2.313.781l13.781-.718h.219c.312 0 .646.124 1 .374.354.23.531.5.531.813 0 .104-.021.219-.062.344-.042.125-.073.229-.094.312L294.469 82c.583.73.875 1.23.875 1.5 0 .146-.073.24-.219.281-.146.042-.406.073-.781.094l-13.688.469.032 1.281Zm-.407-13.531 12.594-.625.313-8-13.126.687.219 7.938Zm.313 10.375 11.875-.375.343-8.719-12.468.563.25 8.53Z"/></svg>