<svg xmlns="http://www.w3.org/2000/svg" width="350" height="88" fill="none"><path fill="#333" d="M136.012 14.598c-.375 0-.598-.188-.668-.563-.141-.398-.516-.89-1.125-1.476l.105-.141c.094.047.364.164.809.352.445.164.75.246.914.246h.316a.68.68 0 0 0 .246-.176c.282-.211.633-.692 1.055-1.442.305-.609.574-1.324.809-2.144.257-.82.386-1.441.386-1.863 0-.118-.093-.176-.281-.176l-1.336.07-.914.07-.598.036-.246.035c.164.117.27.222.317.316.07.07.105.164.105.281 0 .118-.14.446-.422.985-.234.515-.609 1.101-1.125 1.758-.421.562-.996 1.171-1.722 1.828-.703.633-1.231.96-1.582.984a.66.66 0 0 1-.211-.035.239.239 0 0 1-.071-.176c0-.023.188-.246.563-.668l.984-1.16c.703-.937 1.418-2.133 2.145-3.586.07-.187.035-.293-.106-.316-.14.023-.433.058-.879.105a4.535 4.535 0 0 0-1.195.211 1.13 1.13 0 0 0-.246.106 1.16 1.16 0 0 1-.351.07.478.478 0 0 1-.352-.14l-.281-.247c-.211-.164-.317-.316-.317-.457 0-.047.024-.117.071-.21l.175-.282c.094-.117.246-.305.457-.563.211-.257.446-.609.704-1.054.046-.094.14-.305.281-.633.164-.328.246-.527.246-.598v-.14c0-.14.023-.235.07-.282.047-.046.153-.046.317 0 .164.047.363.176.597.387l.387.387c.07.07.105.152.105.246 0 .234-.328.656-.984 1.266a4.095 4.095 0 0 0-.422.527c-.164.234-.246.387-.246.457 0 .14.106.187.316.14l.809-.105c1.852-.281 3.246-.445 4.184-.492l.949-.14.316-.071.176-.035c.188 0 .316.023.387.07.07.047.14.13.211.246.07.094.14.176.211.246.164.188.281.352.351.493l.071.316-.071.14-.07.212a2.045 2.045 0 0 0-.106.351c-.023.094-.058.2-.105.316-.492 1.899-1.066 3.375-1.723 4.43-.211.375-.574.75-1.09 1.125-.492.375-.925.563-1.3.563Zm3.199 9.07c-.352 0-.691-.258-1.02-.773-.421-.657-.832-1.196-1.23-1.618l-.914-.949a14.424 14.424 0 0 1-1.301 1.336 6.992 6.992 0 0 1-1.336.95c-1.008.585-1.851.878-2.531.878-.164 0-.246-.058-.246-.176 0-.07.222-.222.668-.457a7.422 7.422 0 0 0 1.265-.843c1.008-.844 1.84-1.711 2.496-2.602-.14-.14-.843-.75-2.109-1.828-.164-.117-.41-.316-.738-.598a9.494 9.494 0 0 1-.422-.316c-.211-.164-.316-.281-.316-.352 0-.117.058-.175.175-.175.352 0 .914.246 1.688.738a25.67 25.67 0 0 1 2.426 1.687 6.91 6.91 0 0 0 .773-1.125c.188-.351.399-.785.633-1.3a2.41 2.41 0 0 0 .211-.668c.023-.211.035-.34.035-.387 0-.258.07-.387.211-.387.164 0 .387.129.668.387.492.469.738.785.738.95 0 .093-.058.198-.176.316-.281.28-.539.656-.773 1.124-.141.282-.398.68-.774 1.196-.117.14-.21.27-.281.387-.07.117-.14.222-.211.316.539.398 1.336 1.078 2.391 2.039.258.234.422.457.492.668.094.187.141.445.141.773 0 .235-.059.434-.176.598a.567.567 0 0 1-.457.211Zm-2.32 4.324c-.235.305-.481.457-.739.457-.07 0-.105-.058-.105-.176 0-.164.047-.351.141-.562l.703-1.406a1.34 1.34 0 0 1 .105-.282c.047-.093.082-.175.106-.246v-.035c0-.047-.036-.094-.106-.14a.295.295 0 0 0-.246-.036c-.375.024-.938.082-1.688.176-.726.094-1.265.188-1.617.281l-.527.176a1.38 1.38 0 0 1-.457.106c-.422 0-.773-.13-1.055-.387a2.17 2.17 0 0 1-.527-.492l-.07-.176c0-.117.199-.152.597-.105.539.046 1.653-.024 3.34-.211l.703-.106.879-.105c.422-.07.75-.141.984-.211l.211-.07a.568.568 0 0 1 .247-.07c.117 0 .257.058.421.175.188.117.34.223.457.316.164.117.27.223.317.317.07.07.094.164.07.28 0 .118-.058.224-.176.317a3.38 3.38 0 0 0-.246.211c-.047.07-.211.246-.492.528-.117.187-.328.445-.633.773-.281.328-.48.563-.597.703Zm-1.758 6.926c0-.07.117-.258.351-.563.258-.28.457-.503.598-.667.352-.47.773-1.149 1.266-2.04.515-.89.808-1.476.879-1.757.046-.141-.024-.211-.211-.211-.375 0-1.407.105-3.094.316-1.102.14-1.922.281-2.461.422a.677.677 0 0 1-.352.105c-.187 0-.386-.128-.597-.386a.93.93 0 0 1-.141-.457c0-.094.059-.188.176-.282l.105-.14c.071-.14.153-.328.246-.563.094-.234.176-.457.247-.668.117-.375.199-.785.246-1.23.023-.258.164-.328.421-.211.329.164.575.328.739.492.187.14.246.246.176.317a3.5 3.5 0 0 0-.563.949 9.83 9.83 0 0 0-.211.738c0 .094.059.14.176.14.351 0 .879-.058 1.582-.175l1.477-.176c.585-.07 1.054-.14 1.406-.21l.879-.177a.91.91 0 0 1 .281-.035c.117 0 .234.047.351.14.118.071.247.165.387.282.235.211.387.387.457.527a.799.799 0 0 1 .106.422c0 .094-.071.211-.211.352-.117.14-.258.363-.422.668-.68 1.383-1.559 2.543-2.637 3.48a4.86 4.86 0 0 1-1.019.598c-.164.047-.317.07-.457.07-.118.024-.176 0-.176-.07Zm-8.86-1.477c0 .563-.164 1.008-.492 1.336-.328.352-.691.528-1.09.528-.281 0-.738-.258-1.371-.774a14.323 14.323 0 0 1-1.687-1.687c-.516-.61-.774-1.02-.774-1.23 0-.165.082-.247.246-.247.188 0 .446.094.774.281 1.008.563 1.758.926 2.25 1.09l.211-8.965-3.586.176-.07 9.211c0 .281-.047.492-.141.633-.07.164-.211.246-.422.246-.281 0-.621-.117-1.019-.352-.399-.21-.598-.48-.598-.808 0-.117.012-.211.035-.281.117-.703.176-1.524.176-2.461l.07-6.117-2.918.14.141 9.106c0 .586-.199.879-.598.879-.281 0-.633-.141-1.055-.422-.398-.282-.597-.563-.597-.844v-.211c.094-.586.14-1.406.14-2.461l-.07-5.977-2.918.141.106 9.914c0 .516-.188.774-.563.774a3.4 3.4 0 0 1-1.265-.493c-.329-.21-.493-.48-.493-.808l.035-.317c.118-.773.176-1.453.176-2.039l-.035-6.89c0-.89-.105-1.57-.316-2.04-.094-.234-.141-.386-.141-.456 0-.164.094-.246.281-.246.352 0 1.102.293 2.25.878l3.164-.14c.891-1.406 1.336-2.531 1.336-3.375v-.246l-4.64.246h-.493c-.609 0-1.019-.094-1.23-.281a3.732 3.732 0 0 1-.668-.809c-.187-.305-.281-.55-.281-.738 0-.188.094-.282.281-.282l.281.07c.469.141.938.212 1.407.212h.316l12.867-.739a5.415 5.415 0 0 0 1.231-.21 1.93 1.93 0 0 1 .386-.07c.258 0 .598.187 1.02.562.422.351.633.68.633.984 0 .281-.293.445-.879.492l-8.578.457c.422.235.632.469.632.703 0 .141-.164.504-.492 1.09a40.772 40.772 0 0 1-1.09 1.828l8.649-.422.457-.035c.328 0 .644.117.949.352.305.234.457.515.457.844 0 .093-.035.234-.105.422a1.51 1.51 0 0 0-.071.386l-.211 8.508v.984Zm-31.148-5.695c0-.187.14-.281.422-.281.562 0 1.207-.082 1.934-.246a57.126 57.126 0 0 0 4.007-1.055c.914-2.836 1.547-5.05 1.899-6.645.351-1.617.527-2.671.527-3.163 0-.118-.023-.317-.07-.598a1.28 1.28 0 0 1-.035-.317c0-.21.082-.316.246-.316.14 0 .386.082.738.246.352.14.668.328.949.563.305.234.457.504.457.808 0 .117-.011.2-.035.246a54.404 54.404 0 0 1-1.16 4.114 239.407 239.407 0 0 1-1.547 4.464 95.065 95.065 0 0 0 3.234-1.09c.633-.21 1.102-.316 1.407-.316.257 0 .386.059.386.176 0 .305-.855.89-2.566 1.758a76.51 76.51 0 0 1-5.484 2.46c-1.97.798-3.13 1.196-3.48 1.196-.259 0-.563-.188-.915-.563a4.814 4.814 0 0 1-.808-1.125c-.07-.14-.106-.246-.106-.316Zm.422-14.555c0-.14.094-.21.281-.21.117 0 .223.011.316.035.399.093.844.14 1.337.14h.457l6.503-.422a6.06 6.06 0 0 0 1.582-.28c.188-.071.352-.106.493-.106.257 0 .515.093.773.28.258.188.469.411.633.669.164.234.246.41.246.527 0 .235-.176.387-.527.457l-.246.035-9 .633c-.211.024-.48.035-.81.035-.468 0-.854-.117-1.16-.351-.304-.258-.527-.527-.667-.809-.14-.304-.211-.515-.211-.633Zm2.25 3.657c0-.282.14-.47.422-.563a2.1 2.1 0 0 1 .808-.176c.188 0 .329.059.422.176.117.117.223.305.317.563.398 1.101.808 2.484 1.23 4.148.422 1.64.633 2.625.633 2.953 0 .305-.164.54-.492.703-.305.164-.61.246-.914.246-.188 0-.329-.058-.422-.175-.07-.117-.13-.317-.176-.598-.469-2.672-1.031-4.922-1.688-6.75-.093-.281-.14-.457-.14-.527Zm1.195-9.282c0-.187.094-.41.281-.668.188-.257.364-.41.528-.457a.49.49 0 0 1 .211-.035c.14 0 .316.07.527.211.164.094.996.598 2.496 1.512 1.5.89 2.297 1.547 2.391 1.969.07.28-.047.597-.352.949-.304.328-.551.515-.738.562l-.106.036c-.117 0-.328-.106-.632-.317-1.758-1.43-3.153-2.473-4.184-3.129a3.825 3.825 0 0 1-.316-.281.678.678 0 0 1-.106-.352Zm10.653-.035c0-.14.093-.21.281-.21.117 0 .351.034.703.105.351.07.68.199.984.386.328.188.492.434.492.739v.07l-.21 4.219 3.972-.352.071-6.328c0-.61-.188-1.148-.563-1.617-.094-.117-.141-.223-.141-.316 0-.118.129-.176.387-.176.656 0 1.219.117 1.688.351.492.211.738.504.738.88l-.106 7.03 4.641-.386.07-3.235c0-.68-.105-1.218-.316-1.617-.094-.164-.141-.304-.141-.422 0-.117.094-.175.282-.175.398 0 .878.105 1.441.316.562.21.844.562.844 1.055v.105l-.282 6.82c-.023.329-.082.575-.175.739-.071.14-.211.21-.422.21-.281 0-.621-.117-1.02-.35-.375-.259-.562-.563-.562-.915 0-.14.011-.258.035-.352l.105-.527-10.195 1.02a3.58 3.58 0 0 0-.808.175c-.282.07-.481.106-.598.106-.211 0-.457-.117-.738-.352-.258-.234-.387-.468-.387-.703 0-.094.023-.234.07-.422.117-.539.176-.984.176-1.336l.07-2.636c0-.657-.093-1.172-.281-1.547a.832.832 0 0 1-.105-.352Zm83.566 17.192c-.352 0-.691-.258-1.02-.774-.421-.656-.832-1.195-1.23-1.617l-.914-.95a14.424 14.424 0 0 1-1.301 1.337 6.992 6.992 0 0 1-1.336.949c-1.008.586-1.851.879-2.531.879-.164 0-.246-.059-.246-.176 0-.07.222-.223.668-.457a7.428 7.428 0 0 0 1.265-.844c1.008-.843 1.84-1.71 2.496-2.601-.14-.14-.843-.75-2.109-1.828a11.99 11.99 0 0 1-.738-.598 9.494 9.494 0 0 1-.422-.316c-.211-.165-.316-.282-.316-.352 0-.117.058-.176.175-.176.352 0 .914.246 1.688.738a25.651 25.651 0 0 1 2.426 1.688 6.91 6.91 0 0 0 .773-1.125c.188-.352.399-.785.633-1.3a2.41 2.41 0 0 0 .211-.669c.023-.21.035-.34.035-.386 0-.258.07-.387.211-.387.164 0 .387.129.668.387.492.468.738.785.738.949 0 .093-.058.199-.176.316-.281.281-.539.656-.773 1.125-.141.281-.398.68-.774 1.195-.117.141-.21.27-.281.387-.07.117-.14.223-.211.317.539.398 1.336 1.078 2.391 2.039.258.234.422.457.492.668.094.187.141.445.141.773 0 .234-.059.434-.176.598a.567.567 0 0 1-.457.21Zm7.312-12.867c.071 0 .141.035.211.105a.337.337 0 0 1 .141.21v.071c0 .164-.129.48-.387.95l-2.531 4.394c-.187.398-.434.598-.738.598-.305 0-.563-.188-.774-.563-.211-.305-.468-.762-.773-1.371a4.26 4.26 0 0 1-.352-.633 11.004 11.004 0 0 0-.211-.457c-.257-.445-.386-.762-.386-.95 0-.093.035-.163.105-.21.07-.07.141-.105.211-.105.258 0 .492.14.703.421.164.164.293.34.387.528l.387.527.703.809.316-.492c.328-.563 1.102-1.676 2.32-3.34.258-.329.481-.493.668-.493ZM167.09 34.883c0 .492-.223.738-.668.738-.094 0-.305-.047-.633-.14a2.54 2.54 0 0 1-.879-.493c-.281-.234-.422-.55-.422-.949l.035-.246c.094-.633.141-1.336.141-2.11l.07-9.878-11.074.597c-.328.024-.726.035-1.195.035-.539 0-.973-.14-1.301-.421-.328-.305-.562-.621-.703-.95-.117-.351-.176-.609-.176-.773 0-.14.082-.211.246-.211.094 0 .176.012.246.035a7.89 7.89 0 0 0 1.688.211h.281l12.024-.668.07-8.332-5.379.317c-1.055 1.734-2.039 3.117-2.953 4.148-.914 1.031-1.676 1.746-2.285 2.145-.586.398-.938.597-1.055.597-.117 0-.176-.058-.176-.176 0-.164.129-.433.387-.808 1.055-1.383 2.074-2.953 3.059-4.711.984-1.758 1.781-3.41 2.39-4.957.61-1.57.914-2.766.914-3.586v-.422c0-.281.094-.422.281-.422.071 0 .329.082.774.246.469.164.879.375 1.23.633.375.234.563.469.563.703 0 .281-.27.985-.809 2.11a108.781 108.781 0 0 1-1.195 2.39l11.848-.738a7.288 7.288 0 0 0 1.582-.317.6.6 0 0 1 .246-.035c.281 0 .679.223 1.195.668.516.446.773.809.773 1.09s-.292.445-.878.492l-8.192.492-.035 8.368 9.949-.563a6.824 6.824 0 0 0 1.617-.316c.141-.047.247-.07.317-.07.14 0 .375.105.703.316.328.21.621.457.879.738.258.281.387.54.387.774 0 .304-.27.48-.809.527l-13.043.703-.035 13.219Zm79.031-20.496c-.164 0-.34-.106-.527-.317a2.15 2.15 0 0 1-.282-.386c-.046-.118-.046-.27 0-.457l.036-.844c.023-.164.035-.563.035-1.195v-1.16l-1.055.492-1.23.527a10.87 10.87 0 0 0-.95.422c-.281.14-.527.21-.738.21a2.17 2.17 0 0 1-.562-.175 4.837 4.837 0 0 1-.493-.246c-.257-.164-.375-.34-.351-.527l.105-.352c0-.188.012-.352.036-.492l.035-2.04V5.95c0-.375-.024-.691-.071-.949-.047-.281-.082-.48-.105-.598 0-.117.035-.199.105-.246.024-.023.082-.035.176-.035.164 0 .481.106.949.316.399.188.563.422.493.704-.047.164-.094.41-.141.738l-.106 4.043c0 .117.012.21.036.281.046.047.093.07.14.07.282 0 .621-.082 1.02-.246.75-.234 1.394-.468 1.933-.703l.774-.316v-2.32c0-.938-.059-1.84-.176-2.708a.792.792 0 0 1-.035-.246c0-.234.094-.351.281-.351.024 0 .152.047.387.14.351.188.609.352.773.493.164.14.258.222.282.246.093.07.14.14.14.21a.34.34 0 0 1-.07.176c-.024.07-.047.13-.07.176l-.106 1.055-.035 3.234.035 3.13c0 .538-.035 1.007-.105 1.405-.118.493-.305.739-.563.739Zm-6.469 5.765c-.257 0-.574-.199-.949-.597-.281-.282-.422-.492-.422-.633 0-.07.047-.106.141-.106a1.48 1.48 0 0 1 .351-.035l.774-.035c.445 0 .738-.012.879-.035.445 0 .82-.012 1.125-.035 2.015-.188 3.375-.34 4.078-.457a29.8 29.8 0 0 0 .949-.14c.281-.071.504-.106.668-.106.328 0 .656.164.984.492.258.258.387.469.387.633 0 .14-.082.234-.246.28-.117.024-.809.071-2.074.142-.703.023-1.57.082-2.602.175a92.491 92.491 0 0 0-2.707.282c-.14.023-.34.058-.597.105-.258.047-.504.07-.739.07Zm4.711 14.52c-.726 0-1.289-.024-1.687-.07a1.68 1.68 0 0 1-.949-.422c-.446-.328-.75-1.043-.915-2.145l-.105-1.125c0-.281-.023-.633-.07-1.055a5.987 5.987 0 0 0-.809.141 3.817 3.817 0 0 1-.246.106.965.965 0 0 1-.211.035.81.81 0 0 1-.457-.14c-.141-.095-.316-.27-.527-.528-.164-.211-.246-.352-.246-.422s.082-.117.246-.14c.164-.024.386-.036.668-.036.398 0 .914-.047 1.547-.14l-.036-.493c0-.937-.058-1.734-.175-2.39l-.036-.246c0-.329.129-.457.387-.387.281.094.539.21.774.351.187.094.316.188.386.282.071.07.094.175.071.316l-.106 1.512v.914l3.094-.317c0-.164.012-.55.035-1.16.024-.633.024-1.043 0-1.23 0-.188-.023-.363-.07-.527a6.529 6.529 0 0 0-.071-.458c0-.187.094-.28.282-.28.187 0 .422.105.703.316.328.21.539.398.633.562.117.164.14.363.07.598a6.4 6.4 0 0 0-.246 1.265c-.047.47-.07.75-.07.844.281-.023.539-.058.773-.105.234-.047.387-.07.457-.07.188-.047.41-.071.668-.071.141.023.34.164.598.422.211.281.316.504.316.668 0 .234-.223.328-.668.281a6.863 6.863 0 0 0-1.195-.105c-.399 0-.738.011-1.02.035-.07.844-.211 1.676-.422 2.496a.953.953 0 0 1-.246.457c-.117.14-.222.21-.316.21-.164 0-.27-.07-.317-.21a3.524 3.524 0 0 1-.035-.598c.047-.61.071-1.37.071-2.285a26.99 26.99 0 0 0-1.477.14 9.357 9.357 0 0 1-1.512.212c-.023.96.024 1.816.141 2.566.07.492.211.832.422 1.02.14.117.305.187.492.21.211.024.422.036.633.036h.422c.726 0 1.406-.035 2.039-.106a1.52 1.52 0 0 0 .492-.14c.164-.07.281-.106.352-.106.21 0 .421.07.632.211.211.14.317.305.317.492 0 .188-.106.328-.317.422-.187.094-.492.176-.914.246-.75.094-1.5.14-2.25.14Zm10.02-15.996c.281 0 .422.129.422.387 0 .14-.129.34-.387.597-.703.867-2.098 2.52-4.184 4.957-.164.211-.316.317-.457.317-.117 0-.375-.176-.773-.528-.328-.281-.492-.515-.492-.703 0-.21.176-.41.527-.598.539-.304 1.348-.914 2.426-1.828 1.078-.96 1.875-1.722 2.39-2.285.211-.21.387-.316.528-.316Zm-44.684 11.496c2.086-.656 3.949-1.371 5.59-2.145a25.586 25.586 0 0 0-1.336-1.687c-.187-.235-.281-.422-.281-.563 0-.258.152-.48.457-.668.305-.21.539-.316.703-.316.188 0 .387.117.598.352a137.853 137.853 0 0 1 3.41 4.148c.937 1.195 1.406 1.922 1.406 2.18 0 .21-.164.457-.492.738-.305.305-.598.457-.879.457-.234 0-.469-.188-.703-.563a96.435 96.435 0 0 0-1.828-2.671l-4.219 2.109c-.469.21-1.207.586-2.215 1.125-.844.445-1.359.668-1.547.668-.14 0-.316-.094-.527-.281a1.65 1.65 0 0 1-.492-.633c-.094-.234-.094-.422 0-.563.14-.257.211-1.289.211-3.093V16.602c0-.563-.024-1.02-.071-1.372a3.587 3.587 0 0 0-.281-1.125 1.37 1.37 0 0 0-.07-.175.305.305 0 0 1-.035-.14c0-.118.082-.177.246-.177.304 0 1.066.258 2.285.774l7.629-.528c.187-.023.398-.035.633-.035.257 0 .562.117.914.352.351.21.527.445.527.703 0 .094-.059.234-.176.422-.094.187-.14.328-.14.422l-.914 6.609c.562.656.843 1.102.843 1.336 0 .117-.07.2-.211.246-.117.047-.304.07-.562.07l-8.508.317.035 5.87Zm-5.765-15.785c0-.235.152-.516.457-.844 1.711-1.898 3.199-3.785 4.464-5.66 1.266-1.875 1.899-3.13 1.899-3.762l-.035-.246V3.77c0-.329.129-.493.386-.493.305 0 .727.211 1.266.633.563.399.844.727.844.985 0 .117-.059.27-.176.457a23.895 23.895 0 0 1-1.16 1.687l4.992-.387a4.872 4.872 0 0 0 1.336-.28c.141-.048.246-.071.316-.071.352 0 .727.199 1.125.597.422.375.633.668.633.88 0 .28-.258.445-.773.492l-6.012.421c.164.047.527.293 1.09.739.586.445 1.113.902 1.582 1.37.469.47.703.798.703.985 0 .211-.141.469-.422.774-.281.28-.527.421-.738.421-.188 0-.41-.152-.668-.457a21.796 21.796 0 0 0-2.426-2.285c-.281-.234-.422-.433-.422-.597 0-.118.059-.27.176-.457.117-.188.27-.34.457-.457l-2.355.175a34.406 34.406 0 0 1-3.727 3.903c-1.359 1.195-2.226 1.793-2.601 1.793-.141 0-.211-.07-.211-.211Zm12.656 3.656.246-2.461-7.242.492v2.32l6.996-.351Zm-.457 4.36.281-2.708-6.785.317v2.636l6.504-.246Zm1.898-9.528c0-.234.153-.516.457-.844 1.149-1.383 2.192-2.941 3.129-4.676.961-1.757 1.442-2.988 1.442-3.69v-.142c0-.351.129-.527.386-.527.164 0 .41.094.739.281.351.164.668.364.949.598.281.234.422.469.422.703 0 .211-.164.586-.493 1.125-.328.54-.503.82-.527.844l6.926-.563a6.483 6.483 0 0 0 1.336-.246c.047-.023.141-.035.281-.035.328 0 .68.188 1.055.563.398.351.597.644.597.879 0 .14-.07.257-.21.351-.118.07-.282.117-.493.14l-7.136.493c.656.422 1.429 1.043 2.32 1.863.891.797 1.336 1.336 1.336 1.617 0 .164-.129.422-.387.774-.258.328-.504.492-.738.492-.188 0-.387-.117-.598-.352-1.148-1.242-2.191-2.226-3.129-2.953-.234-.187-.351-.363-.351-.527 0-.188.176-.469.527-.844l-2.601.176c-.774 1.031-1.711 2.074-2.813 3.129-1.078 1.055-1.805 1.582-2.18 1.582-.164 0-.246-.07-.246-.211Zm3.305.773c0-.14.082-.21.246-.21.352 0 1.148.292 2.391.878l7.066-.597.281-.035c.094 0 .27.046.528.14.281.07.539.2.773.387.258.164.387.387.387.668 0 .094-.035.223-.106.387-.07.164-.105.28-.105.351a88.243 88.243 0 0 1-.492 8.262l-.071.879c-.07.984-.164 1.805-.281 2.46-.117.657-.316 1.173-.598 1.548-.445.609-.925.914-1.441.914s-1.172-.317-1.969-.95a18.576 18.576 0 0 1-2.215-2.074c-.656-.75-.984-1.23-.984-1.441 0-.164.094-.246.281-.246.211 0 .504.117.879.351.867.54 1.594.973 2.18 1.301.586.328 1.008.492 1.266.492.117 0 .199-.082.246-.246.539-3 .867-6.762.984-11.285l-6.609.492c0 3.961.035 10.242.105 18.844 0 .21-.058.363-.176.457a.466.466 0 0 1-.386.176c-.188 0-.411-.07-.668-.211-.446-.188-.762-.363-.95-.528-.187-.164-.281-.351-.281-.562l.035-.246c.141-.773.211-1.64.211-2.602l-.105-14.836c0-.609-.024-1.078-.07-1.406a3.306 3.306 0 0 0-.211-.95c-.094-.28-.141-.468-.141-.562ZM138.656 68.156c-.187 0-.333-.041-.437-.125l-.157-.156a52.73 52.73 0 0 0-.75-1.375c-.395-.75-.687-1.26-.874-1.531-.396-.584-.594-.959-.594-1.125 0-.23.135-.563.406-1 .417-.584.698-1.052.844-1.407.271-.5.468-.885.594-1.156.124-.291.177-.52.156-.687a1.742 1.742 0 0 1-.032-.344c0-.083.021-.125.063-.125.042-.02.125-.01.25.031.208.063.448.209.719.438.062.062.135.146.218.25a.77.77 0 0 1 .157.281.265.265 0 0 1 .031.219c0 .062-.031.125-.094.187l-.156.125c-.146.188-.312.417-.5.688-.188.27-.365.52-.531.75l-.781 1.125c-.209.291-.313.5-.313.625 0 .062.094.229.281.5l.656.719c.626.687.917 1.01.876.968.395.396.593.781.593 1.156 0 .646-.208.97-.625.97Zm4.125-.094a1.05 1.05 0 0 1-.469-.093 2.06 2.06 0 0 1-.5-.813L141.156 66l-.625-1.094c-.396-.541-.593-.906-.593-1.094 0-.25.135-.572.406-.968l.5-.719c.208-.354.323-.563.344-.625.208-.417.385-.781.531-1.094.166-.333.239-.583.219-.75a1.3 1.3 0 0 1-.032-.312c0-.167.094-.209.282-.125.27.104.562.27.874.5.146.146.24.27.282.375a.565.565 0 0 1 .094.343c0 .042-.073.126-.219.25a1.98 1.98 0 0 0-.375.344c-.125.125-.406.521-.844 1.188-.083.125-.188.27-.312.437-.105.146-.24.344-.407.594-.208.27-.312.469-.312.594s.125.312.375.562c.083.084.166.188.25.313l.375.375.812.906c.396.354.594.698.594 1.031 0 .688-.198 1.031-.594 1.031Zm.407 8.532c-.313 0-.615-.23-.907-.688a9.905 9.905 0 0 0-1.093-1.437l-.813-.844c-.437.5-.823.896-1.156 1.188a6.25 6.25 0 0 1-1.188.843c-.896.521-1.646.781-2.25.781-.146 0-.219-.052-.219-.156 0-.062.198-.198.594-.406a6.591 6.591 0 0 0 1.125-.75c.896-.75 1.636-1.52 2.219-2.313-.125-.124-.75-.666-1.875-1.624a10.426 10.426 0 0 1-.656-.532 7.616 7.616 0 0 1-.375-.281c-.188-.146-.282-.25-.282-.313 0-.104.053-.156.157-.156.312 0 .812.219 1.5.656.687.417 1.406.917 2.156 1.5.292-.354.521-.687.687-1 .167-.312.355-.697.563-1.156.104-.229.167-.427.187-.594a4.83 4.83 0 0 0 .032-.343c0-.23.062-.344.187-.344.146 0 .344.115.594.344.437.416.656.698.656.844 0 .083-.052.177-.156.28-.25.25-.479.584-.687 1-.126.25-.355.605-.688 1.063a2.76 2.76 0 0 0-.25.344 3.062 3.062 0 0 1-.188.281c.48.354 1.188.959 2.126 1.813.229.208.374.406.437.594.083.166.125.395.125.687a.89.89 0 0 1-.156.531.504.504 0 0 1-.406.188Zm-3.157 9.937c-.146 0-.25-.041-.312-.125a1.964 1.964 0 0 0-.125-.156c-.209-.292-.302-.573-.282-.844.021-.166.053-.614.094-1.344l.032-1.5c-.021-.229-.042-.364-.063-.406-.021-.062-.115-.187-.281-.375a15.88 15.88 0 0 0-1.156-1.281c-.5-.5-.823-.833-.969-1l-.938-.938c-.062-.062-.093-.124-.093-.187 0-.104.062-.188.187-.25a.674.674 0 0 1 .437-.094c.417.042.688.094.813.156.146.042.281.167.406.376.125.208.302.458.531.75.25.27.438.479.563.624.521.626.885 1.042 1.094 1.25.375-.437.843-1.062 1.406-1.874.458-.584.729-1.063.813-1.438.083-.27.208-.406.374-.406.084 0 .209.052.376.156.541.333.812.604.812.813 0 .124-.135.28-.406.468-.375.271-.688.573-.938.906l-.625.782c-.416.5-.729.896-.937 1.187-.104.188-.156.459-.156.813V85.75c.02.146-.063.313-.25.5-.167.188-.303.281-.407.281Zm5.531-11.875c.105 0 .261.073.469.219-.021.042.021.125.125.25l.219.219c.104.104.208.229.313.375.124.146.26.302.406.469.375.395 1.239 1.427 2.594 3.093.229.334.343.531.343.594 0 .208-.125.313-.375.313-.146 0-.302-.105-.468-.313-.396-.417-1.105-1.073-2.126-1.969-.791-.729-1.51-1.291-2.156-1.687-.312-.146-.468-.313-.468-.5 0-.146.156-.354.468-.625.292-.292.511-.438.656-.438Zm-36.593 1.813c-.959.666-1.646 1.104-2.063 1.312-.396.209-.718.313-.968.313-.292 0-.667-.177-1.126-.531-.458-.376-.687-.678-.687-.907 0-.146.104-.229.313-.25.874-.166 2.395-.812 4.562-1.937l.031-6.406-1.5.124c-.583.042-.948.063-1.093.063-.334 0-.563-.063-.688-.188-.417-.395-.708-.833-.875-1.312a.346.346 0 0 1-.031-.156c0-.104.052-.156.156-.156l.156.03c.313.063.636.094.969.094.313 0 .563-.01.75-.03l2.156-.157.031-4.938c0-.374-.031-.677-.093-.906-.063-.229-.198-.5-.407-.812a.537.537 0 0 1-.093-.25c0-.146.114-.219.343-.219.25 0 .626.094 1.126.281.395.146.666.302.812.469.146.146.219.344.219.594l-.031 5.625.906-.063c.375-.02.771-.135 1.187-.344a.437.437 0 0 1 .188-.03c.271 0 .614.176 1.031.53.417.355.625.646.625.876 0 .124-.073.229-.219.312a1.088 1.088 0 0 1-.5.156l-3.218.25-.032 5.563c.625-.334 1.532-.865 2.719-1.594.271-.167.49-.25.656-.25.188 0 .281.083.281.25 0 .25-.468.75-1.406 1.5-.916.75-1.677 1.333-2.281 1.75l-.031 8.344.031 1.094c0 .604-.177 1.062-.531 1.374-.334.334-.688.5-1.063.5-.458 0-1.01-.302-1.656-.906a12.902 12.902 0 0 1-1.75-1.937c-.5-.73-.75-1.198-.75-1.406 0-.105.052-.157.156-.157.146 0 .427.146.844.438.979.687 1.917 1.208 2.813 1.562l.031-7.562Zm3.375 5.031c0-.146.094-.219.281-.219h.156c.125.021.334.031.625.031.854 0 2.334-.25 4.438-.75l.031-4.156-1.344.063a7.51 7.51 0 0 1-.781.031c-.5 0-.854-.104-1.062-.313a4.038 4.038 0 0 1-.5-.624c-.146-.271-.219-.521-.219-.75 0-.105.041-.157.125-.157l.125.031c.416.126.875.188 1.375.188h.312l1.969-.094v-1.906c0-.48-.104-.885-.313-1.219-.104-.166-.156-.302-.156-.406 0-.146.115-.219.344-.219.333 0 .76.084 1.281.25.521.146.781.375.781.688v2.719l.938-.063c.354-.02.854-.104 1.5-.25.125-.042.229-.063.312-.063.271 0 .594.188.969.563.375.375.563.656.563.844 0 .208-.209.333-.625.375l-3.657.187-.031 3.813c1.792-.5 3.24-.917 4.344-1.25.229-.084.437-.125.625-.125.333 0 .5.104.5.312 0 .125-.073.26-.219.406-.146.126-.354.25-.625.376-1.875.895-3.573 1.614-5.094 2.156-1.5.541-2.708.927-3.624 1.156-.896.23-1.428.344-1.594.344-.417 0-.782-.209-1.094-.625-.292-.438-.49-.802-.594-1.094l-.062-.25Zm.75-12.563c0-.083.041-.124.125-.124.062 0 .114.01.156.03.479.147.937.22 1.375.22h.281l2.813-.157v-3.344l-1.219.094c-.208.021-.479.031-.813.031-.479 0-.802-.083-.968-.25a2.995 2.995 0 0 1-.563-.78c-.125-.292-.187-.511-.187-.657 0-.104.041-.156.125-.156a.35.35 0 0 1 .156.031c.437.146.917.219 1.437.219h.219l1.844-.125v-2.657c0-.541-.104-.99-.313-1.343-.124-.23-.187-.386-.187-.469 0-.146.094-.219.281-.219.209 0 .563.084 1.063.25.458.146.75.271.875.375.146.104.218.26.218.469v3.469l.657-.063c.562-.02 1.052-.114 1.469-.281a.688.688 0 0 1 .218-.031c.229 0 .563.177 1 .531.438.333.656.615.656.844 0 .208-.229.333-.687.375l-3.344.219v3.343l1.657-.094c.604-.041 1.093-.135 1.468-.28.125-.042.209-.063.25-.063.25 0 .584.198 1 .594.438.395.656.697.656.906 0 .187-.229.302-.687.344l-8.469.53c-.146.022-.354.032-.625.032-.583 0-1.01-.135-1.281-.406-.25-.271-.458-.677-.625-1.219a.433.433 0 0 1-.031-.188Zm12.094-10.062c0-.146.135-.219.406-.219.333 0 .75.094 1.25.282.437.145.718.291.844.437.145.125.218.323.218.594v9.312c.146-.104.282-.156.406-.156.292 0 .834.385 1.626 1.156.812.771 1.583 1.604 2.312 2.5.75.875 1.125 1.396 1.125 1.563 0 .25-.167.5-.5.75-.313.25-.552.375-.719.375-.25 0-.489-.156-.718-.469a28.843 28.843 0 0 0-1.688-2.063 29.908 29.908 0 0 0-1.844-1.968L127.938 86c0 .542-.198.813-.594.813-.104 0-.292-.053-.563-.157a2.148 2.148 0 0 1-.75-.5c-.229-.229-.343-.52-.343-.875 0-.125.01-.229.031-.312.146-.73.219-1.354.219-1.875v-22.5c0-.271-.053-.51-.157-.719a2.563 2.563 0 0 0-.406-.656c-.125-.167-.187-.282-.187-.344Zm59.531 7.719c-.146 0-.073-.125.219-.375.291-.25.645-.552 1.062-.906a16.43 16.43 0 0 0 1.406-1.47 4.31 4.31 0 0 0 .75-1.25c.104-.25.219-.374.344-.374.104 0 .26.083.469.25.416.333.625.614.625.843 0 .146-.084.25-.25.313-.084.02-.209.115-.375.281-.167.146-.292.26-.375.344-.896.875-1.729 1.51-2.5 1.906-.625.292-1.042.438-1.25.438h-.125ZM188 72.406c-.062 0-.167-.083-.312-.25a2.624 2.624 0 0 1-.282-.531 1.735 1.735 0 0 1 0-.469c.042-.208.063-.364.063-.469.041-.416.062-.75.062-1 .021-.229.021-.479 0-.75v-.53l-.031-.47c-.5.355-.885.605-1.156.75-.604.334-1.042.542-1.313.626a2.606 2.606 0 0 1-.906.187c-.146 0-.229-.02-.25-.063-.042-.083.375-.385 1.25-.906.833-.52 1.74-1.208 2.719-2.062.541-.5.958-.98 1.25-1.438a.713.713 0 0 0 .094-.219c.041-.104.083-.166.124-.187.063-.02.146-.01.25.031.271.146.5.354.688.625a.503.503 0 0 1 .125.313c0 .104-.052.208-.156.312a1.245 1.245 0 0 1-.313.188 6.99 6.99 0 0 0-.968.75c-.292.27-.48.448-.563.531.313.25.469.427.469.531l-.094.656c-.042.188-.062.657-.062 1.407 0 .729.02 1.219.062 1.469v.062a.772.772 0 0 1-.094.344 2.888 2.888 0 0 1-.094.219c-.145.229-.333.343-.562.343Zm3.562 9.438c.292.187.438.364.438.531 0 .23-.177.375-.531.438-.354.062-.854.104-1.5.124-.938.021-1.542-.01-1.813-.093-.458-.209-.687-.552-.687-1.031l.031-1.157c.042-.375.062-.708.062-1 .021-.187.032-.552.032-1.094a10.534 10.534 0 0 1-1.219 2.063c-.354.438-.667.802-.937 1.094-.271.27-.594.531-.969.781s-.719.375-1.031.375c-.188 0-.282-.063-.282-.188 0-.02.198-.177.594-.468.417-.313.833-.74 1.25-1.281.625-.834 1.167-1.813 1.625-2.938-.813.104-1.354.198-1.625.281-.104.021-.198.052-.281.094a.785.785 0 0 1-.313 0 2.646 2.646 0 0 1-.437-.25 2.823 2.823 0 0 1-.438-.406c-.083-.125-.125-.209-.125-.25 0-.104.156-.156.469-.156.771 0 1.76-.084 2.969-.25.125-.48.187-1.25.187-2.313v-.594c0-.25.052-.385.157-.406.02-.02.062-.031.124-.031.167 0 .396.125.688.375.229.187.375.333.438.437.083.084.093.198.031.344l-.125.25c-.063.125-.104.25-.125.375l-.125.625a6.584 6.584 0 0 0-.125.781c.291-.02.656-.062 1.093-.125.438-.062.761-.125.969-.187l.625-.156c.209-.042.552.135 1.032.53.083.063.124.136.124.22 0 .083-.041.156-.124.218a.446.446 0 0 1-.25.063c-.376 0-1.063.062-2.063.187l-1.031.094c.229.167.375.313.437.438a.47.47 0 0 1 .031.374l-.093.5c-.042.417-.084.876-.125 1.376-.021.5-.021.885 0 1.156 0 .104.062.198.187.281a.877.877 0 0 0 .438.125c.521 0 1.104-.052 1.75-.156l.281-.063c.125 0 .229.021.312.063Zm-32.437 4.781v.094c0 .416-.156.625-.469.625-.312 0-.656-.125-1.031-.375-.375-.25-.563-.51-.563-.781v-.157c0-.146.011-.302.032-.469.021-.145.031-.291.031-.437 0-.292-.01-.52-.031-.688l-.406-5.718c-.021-.521-.198-1.063-.532-1.625-.104-.167-.156-.313-.156-.438 0-.166.125-.25.375-.25.375 0 1.083.209 2.125.625l17.125-.75c.437-.02.813.084 1.125.313.333.229.5.458.5.687a.73.73 0 0 1-.094.313 2.36 2.36 0 0 0-.094.281l-.812 5.938c.542.604.812 1.03.812 1.28 0 .272-.291.407-.874.407l-17.094.469.031.656Zm-6.531-23.594c0-.125.083-.187.25-.187.083 0 .146.01.187.031a4.9 4.9 0 0 0 1.125.125l.532-.031 6.5-.375-.282-1.875c-.021-.146-.104-.344-.25-.594a2.821 2.821 0 0 0-.468-.656c-.146-.146-.219-.271-.219-.375 0-.188.219-.282.656-.282.229 0 .51.032.844.094.416.063.708.167.875.313a.933.933 0 0 1 .312.531l.406 2.688 1.469-.063c.271 0 .448.01.531.031.334.063.5.26.5.594 0 .25-.104.427-.312.531a3.41 3.41 0 0 1-.844.188c-.25.041-.635.062-1.156.062l.312 2.063v.187c0 .375-.177.563-.531.563-.291 0-.625-.073-1-.219-.375-.167-.562-.458-.562-.875v-.094c0-.541-.011-.937-.031-1.187l-6.282.344-.718.03c-.292 0-.521-.02-.688-.062a.849.849 0 0 1-.375-.219 3.128 3.128 0 0 1-.563-.687c-.145-.292-.218-.49-.218-.594Zm5.25 4.032c0-.146.125-.22.375-.22.375 0 1.062.188 2.062.563l12.75-.75h.281c.355 0 .657.115.907.344.271.23.406.438.406.625a.556.556 0 0 1-.094.281 4.564 4.564 0 0 0-.093.25L173.75 73c.438.563.656.958.656 1.188 0 .124-.062.208-.187.25-.125.041-.334.072-.625.093L161 75.156l.031.375v.063a.538.538 0 0 1-.187.437.63.63 0 0 1-.406.125c-.355 0-.688-.104-1-.312-.292-.209-.438-.448-.438-.719v-.188c0-.145.01-.28.031-.406.021-.125.031-.25.031-.375 0-.166-.02-.437-.062-.812l-.5-4.438a3.945 3.945 0 0 0-.5-1.469c-.104-.166-.156-.291-.156-.374Zm.844 13.5 16.187-.594.219-2.063-16.532.781.126 1.876Zm.281 3.75 15.469-.407.25-2.375-15.876.563.157 2.219Zm1.5-13.813 11.812-.656.188-1.688-12.188.719.188 1.625Zm.343 3.219 11.126-.594.187-1.875-11.5.625.187 1.844Zm6.126-11.406c0-.042.031-.073.093-.094a.388.388 0 0 1 .219-.063l.844-.031c.208 0 .791-.02 1.75-.063.271-.895.406-1.645.406-2.25v-.218c0-.375-.083-.709-.25-1a.73.73 0 0 1-.094-.282c0-.124.084-.187.25-.187.104 0 .354.073.75.219.396.125.75.302 1.063.531.333.208.5.438.5.688a.552.552 0 0 1-.031.218 85.3 85.3 0 0 1-.719 2.219l5.312-.313c.625-.02 1.146-.104 1.563-.25.166-.062.323-.093.468-.093.313 0 .636.177.969.531.354.354.531.646.531.875 0 .23-.229.365-.687.406l-8.844.5c-.416 1-.76 1.73-1.031 2.188-.271.437-.531.656-.781.656a.297.297 0 0 1-.25-.125c-.063-.104-.094-.25-.094-.438 0-.062.042-.28.125-.656l.406-1.531a7.157 7.157 0 0 1-.875.063 1.811 1.811 0 0 1-1.125-.47c-.333-.29-.489-.624-.468-1v-.03Zm72.624 7.937c.292.25.438.656.438 1.219-.042.312-.177.458-.406.437-.271.021-.604-.146-1-.5-.167-.187-.511-.479-1.032-.875-.5-.416-.947-.75-1.343-1-.604.542-1.334 1.063-2.188 1.563-.833.5-1.5.75-2 .75-.208 0-.312-.063-.312-.188 0-.041.239-.208.719-.5a13.404 13.404 0 0 0 1.656-1.094c.521-.395.948-.76 1.281-1.093l-.719-.406c-.479-.313-.791-.5-.937-.563-.625-.396-.938-.646-.938-.75 0-.063.104-.094.313-.094.166-.02.552.104 1.156.375l1.75.813.469-.5c.062-.084.135-.167.219-.25a3.61 3.61 0 0 0 .25-.281c.312-.396.562-.73.75-1 .208-.292.322-.51.343-.657 0-.083-.073-.125-.219-.125-.208 0-.656.052-1.343.156l-.75.094c-.584.084-1.073.177-1.469.281a2.221 2.221 0 0 0-.594.188.945.945 0 0 1-.281.031h-.281a.296.296 0 0 1-.156-.125 2.75 2.75 0 0 1-.188-.219c-.104-.166-.156-.302-.156-.406 0-.041.083-.146.25-.312l.594-.688c.145-.187.322-.479.531-.875.208-.416.323-.74.343-.968 0-.063.042-.094.126-.094.187 0 .406.104.656.312.104.084.187.177.25.282.083.104.125.187.125.25 0 .083-.052.177-.157.28-.104.105-.343.417-.718.938l-.438.563 1.813-.313c.771-.062 1.343-.146 1.719-.25l.468-.062c.104-.021.229-.031.375-.031s.386.156.719.468a.97.97 0 0 1 .25.281.302.302 0 0 1 .094.22.55.55 0 0 1-.063.25l-.125.187c-.208.208-.51.594-.906 1.156-.333.48-.823 1.063-1.469 1.75l.781.375c1 .5 1.584.833 1.75 1Zm-.374 11.969c-.313 0-.615-.23-.907-.688a9.905 9.905 0 0 0-1.093-1.437l-.813-.844c-.437.5-.823.896-1.156 1.188a6.25 6.25 0 0 1-1.188.843c-.896.521-1.646.781-2.25.781-.146 0-.219-.052-.219-.156 0-.062.198-.198.594-.406a6.591 6.591 0 0 0 1.125-.75c.896-.75 1.636-1.52 2.219-2.313-.125-.124-.75-.666-1.875-1.624a10.426 10.426 0 0 1-.656-.532 7.616 7.616 0 0 1-.375-.281c-.188-.146-.282-.25-.282-.313 0-.104.053-.156.157-.156.312 0 .812.219 1.5.656.687.417 1.406.917 2.156 1.5.292-.354.521-.687.687-1 .167-.312.355-.697.563-1.156.104-.229.167-.427.187-.594a4.83 4.83 0 0 0 .032-.343c0-.23.062-.344.187-.344.146 0 .344.115.594.344.437.416.656.698.656.844 0 .083-.052.177-.156.28-.25.25-.479.584-.687 1-.126.25-.355.605-.688 1.063a2.76 2.76 0 0 0-.25.344 3.062 3.062 0 0 1-.188.281c.48.354 1.188.959 2.126 1.813.229.208.374.406.437.594.083.166.125.395.125.687a.89.89 0 0 1-.156.531.504.504 0 0 1-.406.188Zm6.374-13.5c.25 0 .376.114.376.344 0 .124-.115.302-.344.53-.625.772-1.865 2.24-3.719 4.407-.146.188-.281.281-.406.281-.104 0-.334-.156-.688-.469-.291-.25-.437-.458-.437-.624 0-.188.156-.365.468-.532.48-.27 1.198-.812 2.157-1.625.958-.854 1.666-1.531 2.125-2.031.187-.188.344-.281.468-.281Zm-19.656 16.5c0 .458-.125.885-.375 1.281-.25.396-.521.594-.812.594-.25 0-.75-.25-1.5-.75a26.035 26.035 0 0 1-2.125-1.625c-.667-.584-1-.938-1-1.063s.094-.187.281-.187c.125 0 .313.052.563.156 1.145.563 2.177.99 3.093 1.281l-.031-4-4.906.219v4.344c0 .25-.032.437-.094.562-.042.125-.146.188-.312.188-.25 0-.563-.115-.938-.344-.375-.23-.562-.531-.562-.906v-.25c0-.25.02-.646.062-1.188.042-.625.062-1.104.062-1.437v-.906l-4.437.187v4.875c0 .52-.177.781-.531.781-.063 0-.229-.052-.5-.156-.25-.104-.49-.24-.719-.406-.208-.167-.313-.354-.313-.563 0-.125.011-.219.032-.281.083-.52.125-1.146.125-1.875l.062-9.188c0-.333-.041-.635-.125-.906a19.93 19.93 0 0 0-.156-.687 1.309 1.309 0 0 1-.031-.313c0-.208.093-.312.281-.312.292 0 .927.208 1.906.625l4.375-.25v-1.906l-5.656.312-.625.031c-.354 0-.667-.146-.938-.437a3.642 3.642 0 0 1-.656-1 1.353 1.353 0 0 1-.062-.219c0-.083.062-.125.187-.125.104 0 .198.01.281.031.334.084.698.125 1.094.125h.344l6.031-.312v-.844a4.14 4.14 0 0 0-.093-.969c-.042-.25-.146-.5-.313-.75-.063-.062-.094-.125-.094-.187 0-.125.115-.188.344-.188.375 0 .792.094 1.25.281.479.188.719.47.719.844v1.719l6.062-.313c.417-.02.771-.093 1.063-.218.125-.042.229-.063.312-.063.292 0 .584.156.875.469.292.313.438.594.438.844 0 .27-.209.427-.625.469l-8.125.437v1.875l5.406-.281.438-.031c.25 0 .489.104.718.312.229.208.344.427.344.656 0 .084-.021.198-.062.344a1.39 1.39 0 0 0-.063.375l.031 10.531v.688ZM201.781 72.5c0-.125.084-.323.25-.594.167-.27.354-.406.563-.406.166 0 .635.23 1.406.688.771.458 1.49.947 2.156 1.468.667.5 1 .844 1 1.031 0 .188-.125.448-.375.782-.229.333-.448.5-.656.5-.208 0-.437-.125-.687-.375a25.896 25.896 0 0 0-3.282-2.625c-.25-.167-.375-.323-.375-.469Zm0-9.656c0-.125.084-.188.25-.188.084 0 .146.01.188.032a4.9 4.9 0 0 0 1.125.124l.562-.03 5.719-.344-.187-1.313c-.063-.438-.292-.865-.688-1.281-.146-.146-.219-.271-.219-.375 0-.063.052-.115.157-.157.104-.062.26-.093.468-.093.792 0 1.313.104 1.563.312.271.209.427.427.469.657l.281 2.124 1.25-.062c.271 0 .448.01.531.031.146.021.26.084.344.188.104.104.156.229.156.375 0 .25-.094.427-.281.531-.188.104-.459.177-.813.219-.146.02-.323.041-.531.062-.208.021-.365.032-.469.032l.313 2.343.031.219c0 .354-.177.531-.531.531-.292 0-.625-.083-1-.25-.354-.166-.531-.448-.531-.844v-.124c0-.5-.021-.865-.063-1.094l-.063-.375-5.468.312c-.188.021-.427.031-.719.031s-.521-.02-.687-.062a.86.86 0 0 1-.376-.219 4.877 4.877 0 0 1-.531-.656c-.166-.27-.25-.49-.25-.656ZM202 84.156c0-.125.104-.229.312-.312.48-.271.876-.594 1.188-.969 2-2.48 3.562-4.635 4.688-6.469.166-.27.322-.479.468-.625.167-.146.302-.219.406-.219.146 0 .219.105.219.313 0 .354-.396 1.344-1.187 2.969-.792 1.604-1.761 3.323-2.906 5.156-.271.458-.511.792-.719 1-.188.208-.375.313-.563.313-.229 0-.604-.136-1.125-.407-.521-.27-.781-.52-.781-.75Zm1.719-16.5c0-.125.104-.323.312-.594.188-.25.375-.374.563-.374.229 0 .76.312 1.594.937.854.604 1.687 1.27 2.5 2 .187.167.281.354.281.563 0 .25-.146.5-.438.75-.291.229-.5.343-.625.343-.187 0-.396-.114-.625-.344-.541-.52-1.073-1.02-1.593-1.5a14.335 14.335 0 0 0-1.5-1.218c-.313-.23-.469-.417-.469-.563Zm13.593 12.063v-2l-4.437.125v2.062l4.437-.187Zm0-3.531-.031-1.938-4.406.219v1.906l4.437-.188Zm-2.312-14c0-.042.031-.084.094-.126a.261.261 0 0 1 .218-.03l2.219-.063c.021-.167.063-.427.125-.782.063-.374.094-.718.094-1.03v-.22c0-.354-.083-.677-.25-.968-.083-.104-.125-.198-.125-.282 0-.104.073-.156.219-.156.187 0 .468.073.844.219.395.125.739.292 1.031.5.312.208.469.427.469.656a.53.53 0 0 1-.032.219c-.104.375-.291.958-.562 1.75l4.5-.281c.625-.021 1.146-.104 1.562-.25.167-.063.323-.094.469-.094.271 0 .583.177.937.531.376.354.563.657.563.907 0 .229-.229.364-.687.406l-8 .468c-.355.813-.646 1.428-.876 1.844-.229.417-.468.625-.718.625-.229 0-.344-.187-.344-.562 0-.188.031-.386.094-.594.083-.27.187-.677.312-1.219l-.594.032c-.395 0-.76-.146-1.093-.438-.334-.313-.49-.656-.469-1.031v-.032Zm9 17.28v-2.03l-4.906.218v2L224 79.47Zm-.031-3.593v-1.938l-4.875.25v1.907l4.875-.219Zm-4.344-9.656c0-.209.073-.417.219-.625.166-.23.344-.344.531-.344.271 0 .854.167 1.75.5.917.333 1.573.583 1.969.75.229.104.396.208.5.313a.55.55 0 0 1 .156.406c0 .208-.062.448-.188.719-.104.25-.281.374-.531.374a.94.94 0 0 1-.5-.156c-1.208-.646-2.291-1.125-3.25-1.437a2.93 2.93 0 0 1-.531-.219c-.083-.063-.125-.156-.125-.281Z"/></svg>