<svg width="350" height="88" viewBox="0 0 350 88" fill="none" xmlns="http://www.w3.org/2000/svg">
<path d="M136.012 14.5977C135.637 14.5977 135.414 14.4102 135.344 14.0352C135.203 13.6367 134.828 13.1445 134.219 12.5586L134.324 12.418C134.418 12.4648 134.688 12.582 135.133 12.7695C135.578 12.9336 135.883 13.0156 136.047 13.0156C136.188 13.0156 136.293 13.0156 136.363 13.0156C136.434 12.9922 136.516 12.9336 136.609 12.8398C136.891 12.6289 137.242 12.1484 137.664 11.3984C137.969 10.7891 138.238 10.0742 138.473 9.25391C138.73 8.43359 138.859 7.8125 138.859 7.39062C138.859 7.27344 138.766 7.21484 138.578 7.21484L137.242 7.28516L136.328 7.35547L135.73 7.39062L135.484 7.42578C135.648 7.54297 135.754 7.64844 135.801 7.74219C135.871 7.8125 135.906 7.90625 135.906 8.02344C135.906 8.14063 135.766 8.46875 135.484 9.00781C135.25 9.52344 134.875 10.1094 134.359 10.7656C133.938 11.3281 133.363 11.9375 132.637 12.5938C131.934 13.2266 131.406 13.5547 131.055 13.5781C130.984 13.5781 130.914 13.5664 130.844 13.543C130.797 13.4961 130.773 13.4375 130.773 13.3672C130.773 13.3438 130.961 13.1211 131.336 12.6992L132.32 11.5391C133.023 10.6016 133.738 9.40625 134.465 7.95312C134.535 7.76562 134.5 7.66016 134.359 7.63672C134.219 7.66016 133.926 7.69531 133.48 7.74219C133.035 7.76562 132.637 7.83594 132.285 7.95312C132.262 7.95312 132.18 7.98828 132.039 8.05859C131.898 8.10547 131.781 8.12891 131.688 8.12891C131.547 8.12891 131.43 8.08203 131.336 7.98828L131.055 7.74219C130.844 7.57813 130.738 7.42578 130.738 7.28516C130.738 7.23828 130.762 7.16797 130.809 7.07422L130.984 6.79297C131.078 6.67578 131.23 6.48828 131.441 6.23047C131.652 5.97266 131.887 5.62109 132.145 5.17578C132.191 5.08203 132.285 4.87109 132.426 4.54297C132.59 4.21484 132.672 4.01562 132.672 3.94531V3.80469C132.672 3.66406 132.695 3.57031 132.742 3.52344C132.789 3.47656 132.895 3.47656 133.059 3.52344C133.223 3.57031 133.422 3.69922 133.656 3.91016L134.043 4.29688C134.113 4.36719 134.148 4.44922 134.148 4.54297C134.148 4.77734 133.82 5.19922 133.164 5.80859C133.047 5.92578 132.906 6.10156 132.742 6.33594C132.578 6.57031 132.496 6.72266 132.496 6.79297C132.496 6.93359 132.602 6.98047 132.812 6.93359L133.621 6.82812C135.473 6.54688 136.867 6.38281 137.805 6.33594L138.754 6.19531L139.07 6.125L139.246 6.08984C139.434 6.08984 139.562 6.11328 139.633 6.16016C139.703 6.20703 139.773 6.28906 139.844 6.40625C139.914 6.5 139.984 6.58203 140.055 6.65234C140.219 6.83984 140.336 7.00391 140.406 7.14453L140.477 7.46094L140.406 7.60156L140.336 7.8125C140.289 7.92969 140.254 8.04687 140.23 8.16406C140.207 8.25781 140.172 8.36328 140.125 8.48047C139.633 10.3789 139.059 11.8555 138.402 12.9102C138.191 13.2852 137.828 13.6602 137.312 14.0352C136.82 14.4102 136.387 14.5977 136.012 14.5977ZM139.211 23.668C138.859 23.668 138.52 23.4102 138.191 22.8945C137.77 22.2383 137.359 21.6992 136.961 21.2773L136.047 20.3281C135.555 20.8906 135.121 21.3359 134.746 21.6641C134.395 21.9922 133.949 22.3086 133.41 22.6133C132.402 23.1992 131.559 23.4922 130.879 23.4922C130.715 23.4922 130.633 23.4336 130.633 23.3164C130.633 23.2461 130.855 23.0938 131.301 22.8594C131.746 22.625 132.168 22.3438 132.566 22.0156C133.574 21.1719 134.406 20.3047 135.062 19.4141C134.922 19.2734 134.219 18.6641 132.953 17.5859C132.789 17.4688 132.543 17.2695 132.215 16.9883C132.145 16.9414 132.004 16.8359 131.793 16.6719C131.582 16.5078 131.477 16.3906 131.477 16.3203C131.477 16.2031 131.535 16.1445 131.652 16.1445C132.004 16.1445 132.566 16.3906 133.34 16.8828C134.113 17.3516 134.922 17.9141 135.766 18.5703C136.094 18.1719 136.352 17.7969 136.539 17.4453C136.727 17.0938 136.938 16.6602 137.172 16.1445C137.289 15.8867 137.359 15.6641 137.383 15.4766C137.406 15.2656 137.418 15.1367 137.418 15.0898C137.418 14.832 137.488 14.7031 137.629 14.7031C137.793 14.7031 138.016 14.832 138.297 15.0898C138.789 15.5586 139.035 15.875 139.035 16.0391C139.035 16.1328 138.977 16.2383 138.859 16.3555C138.578 16.6367 138.32 17.0117 138.086 17.4805C137.945 17.7617 137.688 18.1602 137.312 18.6758C137.195 18.8164 137.102 18.9453 137.031 19.0625C136.961 19.1797 136.891 19.2852 136.82 19.3789C137.359 19.7773 138.156 20.457 139.211 21.418C139.469 21.6523 139.633 21.875 139.703 22.0859C139.797 22.2734 139.844 22.5312 139.844 22.8594C139.844 23.0938 139.785 23.293 139.668 23.457C139.551 23.5977 139.398 23.668 139.211 23.668ZM136.891 27.9922C136.656 28.2969 136.41 28.4492 136.152 28.4492C136.082 28.4492 136.047 28.3906 136.047 28.2734C136.047 28.1094 136.094 27.9219 136.188 27.7109C136.188 27.7109 136.422 27.2422 136.891 26.3047C136.914 26.2109 136.949 26.1172 136.996 26.0234C137.043 25.9297 137.078 25.8477 137.102 25.7773V25.7422C137.102 25.6953 137.066 25.6484 136.996 25.6016C136.926 25.5547 136.844 25.543 136.75 25.5664C136.375 25.5898 135.812 25.6484 135.062 25.7422C134.336 25.8359 133.797 25.9297 133.445 26.0234C133.305 26.0703 133.129 26.1289 132.918 26.1992C132.73 26.2695 132.578 26.3047 132.461 26.3047C132.039 26.3047 131.688 26.1758 131.406 25.918C131.172 25.7539 130.996 25.5898 130.879 25.4258L130.809 25.25C130.809 25.1328 131.008 25.0977 131.406 25.1445C131.945 25.1914 133.059 25.1211 134.746 24.9336L135.449 24.8281C135.637 24.8047 135.93 24.7695 136.328 24.7227C136.75 24.6523 137.078 24.582 137.312 24.5117C137.383 24.4883 137.453 24.4648 137.523 24.4414C137.617 24.3945 137.699 24.3711 137.77 24.3711C137.887 24.3711 138.027 24.4297 138.191 24.5469C138.379 24.6641 138.531 24.7695 138.648 24.8633C138.812 24.9805 138.918 25.0859 138.965 25.1797C139.035 25.25 139.059 25.3438 139.035 25.4609C139.035 25.5781 138.977 25.6836 138.859 25.7773C138.742 25.8711 138.66 25.9414 138.613 25.9883C138.566 26.0586 138.402 26.2344 138.121 26.5156C138.004 26.7031 137.793 26.9609 137.488 27.2891C137.207 27.6172 137.008 27.8516 136.891 27.9922ZM135.133 34.918C135.133 34.8477 135.25 34.6602 135.484 34.3555C135.742 34.0742 135.941 33.8516 136.082 33.6875C136.434 33.2188 136.855 32.5391 137.348 31.6484C137.863 30.7578 138.156 30.1719 138.227 29.8906C138.273 29.75 138.203 29.6797 138.016 29.6797C137.641 29.6797 136.609 29.7852 134.922 29.9961C133.82 30.1367 133 30.2773 132.461 30.418C132.344 30.4883 132.227 30.5234 132.109 30.5234C131.922 30.5234 131.723 30.3945 131.512 30.1367C131.418 29.9727 131.371 29.8203 131.371 29.6797C131.371 29.5859 131.43 29.4922 131.547 29.3984L131.652 29.2578C131.723 29.1172 131.805 28.9297 131.898 28.6953C131.992 28.4609 132.074 28.2383 132.145 28.0273C132.262 27.6523 132.344 27.2422 132.391 26.7969C132.414 26.5391 132.555 26.4688 132.812 26.5859C133.141 26.75 133.387 26.9141 133.551 27.0781C133.738 27.2188 133.797 27.3242 133.727 27.3945C133.492 27.6758 133.305 27.9922 133.164 28.3438C133.047 28.7188 132.977 28.9648 132.953 29.082C132.953 29.1758 133.012 29.2227 133.129 29.2227C133.48 29.2227 134.008 29.1641 134.711 29.0469C135.109 29 135.602 28.9414 136.188 28.8711C136.773 28.8008 137.242 28.7305 137.594 28.6602L138.473 28.4844C138.543 28.4609 138.637 28.4492 138.754 28.4492C138.871 28.4492 138.988 28.4961 139.105 28.5898C139.223 28.6602 139.352 28.7539 139.492 28.8711C139.727 29.082 139.879 29.2578 139.949 29.3984C140.02 29.5156 140.055 29.6562 140.055 29.8203C140.055 29.9141 139.984 30.0312 139.844 30.1719C139.727 30.3125 139.586 30.5352 139.422 30.8398C138.742 32.2227 137.863 33.3828 136.785 34.3203C136.48 34.5547 136.141 34.7539 135.766 34.918C135.602 34.9648 135.449 34.9883 135.309 34.9883C135.191 35.0117 135.133 34.9883 135.133 34.918ZM126.273 33.4414C126.273 34.0039 126.109 34.4492 125.781 34.7773C125.453 35.1289 125.09 35.3047 124.691 35.3047C124.41 35.3047 123.953 35.0469 123.32 34.5312C122.711 34.0156 122.148 33.4531 121.633 32.8438C121.117 32.2344 120.859 31.8242 120.859 31.6133C120.859 31.4492 120.941 31.3672 121.105 31.3672C121.293 31.3672 121.551 31.4609 121.879 31.6484C122.887 32.2109 123.637 32.5742 124.129 32.7383L124.34 23.7734L120.754 23.9492L120.684 33.1602C120.684 33.4414 120.637 33.6523 120.543 33.793C120.473 33.957 120.332 34.0391 120.121 34.0391C119.84 34.0391 119.5 33.9219 119.102 33.6875C118.703 33.4766 118.504 33.207 118.504 32.8789C118.504 32.7617 118.516 32.668 118.539 32.5977C118.656 31.8945 118.715 31.0742 118.715 30.1367L118.785 24.0195L115.867 24.1602L116.008 33.2656C116.008 33.8516 115.809 34.1445 115.41 34.1445C115.129 34.1445 114.777 34.0039 114.355 33.7227C113.957 33.4414 113.758 33.1602 113.758 32.8789V32.668C113.852 32.082 113.898 31.2617 113.898 30.207L113.828 24.2305L110.91 24.3711L111.016 34.2852C111.016 34.8008 110.828 35.0586 110.453 35.0586C109.961 34.9648 109.539 34.8008 109.188 34.5664C108.859 34.3555 108.695 34.0859 108.695 33.7578L108.73 33.4414C108.848 32.668 108.906 31.9883 108.906 31.4023L108.871 24.5117C108.871 23.6211 108.766 22.9414 108.555 22.4727C108.461 22.2383 108.414 22.0859 108.414 22.0156C108.414 21.8516 108.508 21.7695 108.695 21.7695C109.047 21.7695 109.797 22.0625 110.945 22.6484L114.109 22.5078C115 21.1016 115.445 19.9766 115.445 19.1328V18.8867L110.805 19.1328H110.312C109.703 19.1328 109.293 19.0391 109.082 18.8516C108.824 18.6172 108.602 18.3477 108.414 18.043C108.227 17.7383 108.133 17.4922 108.133 17.3047C108.133 17.1172 108.227 17.0234 108.414 17.0234L108.695 17.0938C109.164 17.2344 109.633 17.3047 110.102 17.3047H110.418L123.285 16.5664C123.707 16.543 124.117 16.4727 124.516 16.3555C124.703 16.3086 124.832 16.2852 124.902 16.2852C125.16 16.2852 125.5 16.4727 125.922 16.8477C126.344 17.1992 126.555 17.5273 126.555 17.832C126.555 18.1133 126.262 18.2773 125.676 18.3242L117.098 18.7812C117.52 19.0156 117.73 19.25 117.73 19.4844C117.73 19.625 117.566 19.9883 117.238 20.5742C116.91 21.1602 116.547 21.7695 116.148 22.4023L124.797 21.9805L125.254 21.9453C125.582 21.9453 125.898 22.0625 126.203 22.2969C126.508 22.5312 126.66 22.8125 126.66 23.1406C126.66 23.2344 126.625 23.375 126.555 23.5625C126.508 23.7266 126.484 23.8555 126.484 23.9492L126.273 32.457V33.4414ZM95.125 27.7461C95.125 27.5586 95.2656 27.4648 95.5469 27.4648C96.1094 27.4648 96.7539 27.3828 97.4805 27.2188C98.7461 26.9375 100.082 26.5859 101.488 26.1641C102.402 23.3281 103.035 21.1133 103.387 19.5195C103.738 17.9023 103.914 16.8477 103.914 16.3555C103.914 16.2383 103.891 16.0391 103.844 15.7578C103.82 15.6641 103.809 15.5586 103.809 15.4414C103.809 15.2305 103.891 15.125 104.055 15.125C104.195 15.125 104.441 15.207 104.793 15.3711C105.145 15.5117 105.461 15.6992 105.742 15.9336C106.047 16.168 106.199 16.4375 106.199 16.7422C106.199 16.8594 106.188 16.9414 106.164 16.9883C105.812 18.4414 105.426 19.8125 105.004 21.1016C104.582 22.3672 104.066 23.8555 103.457 25.5664C104.91 25.0977 105.988 24.7344 106.691 24.4766C107.324 24.2656 107.793 24.1602 108.098 24.1602C108.355 24.1602 108.484 24.2188 108.484 24.3359C108.484 24.6406 107.629 25.2266 105.918 26.0938C104.23 26.9375 102.402 27.7578 100.434 28.5547C98.4648 29.3516 97.3047 29.75 96.9531 29.75C96.6953 29.75 96.3906 29.5625 96.0391 29.1875C95.6875 28.8125 95.418 28.4375 95.2305 28.0625C95.1602 27.9219 95.125 27.8164 95.125 27.7461ZM95.5469 13.1914C95.5469 13.0508 95.6406 12.9805 95.8281 12.9805C95.9453 12.9805 96.0508 12.9922 96.1445 13.0156C96.543 13.1094 96.9883 13.1562 97.4805 13.1562H97.9375L104.441 12.7344C104.98 12.7109 105.508 12.6172 106.023 12.4531C106.211 12.3828 106.375 12.3477 106.516 12.3477C106.773 12.3477 107.031 12.4414 107.289 12.6289C107.547 12.8164 107.758 13.0391 107.922 13.2969C108.086 13.5312 108.168 13.707 108.168 13.8242C108.168 14.0586 107.992 14.2109 107.641 14.2812L107.395 14.3164L98.3945 14.9492C98.1836 14.9727 97.9141 14.9844 97.5859 14.9844C97.1172 14.9844 96.7305 14.8672 96.4258 14.6328C96.1211 14.375 95.8984 14.1055 95.7578 13.8242C95.6172 13.5195 95.5469 13.3086 95.5469 13.1914ZM97.7969 16.8477C97.7969 16.5664 97.9375 16.3789 98.2188 16.2852C98.5 16.168 98.7695 16.1094 99.0273 16.1094C99.2148 16.1094 99.3555 16.168 99.4492 16.2852C99.5664 16.4023 99.6719 16.5898 99.7656 16.8477C100.164 17.9492 100.574 19.332 100.996 20.9961C101.418 22.6367 101.629 23.6211 101.629 23.9492C101.629 24.2539 101.465 24.4883 101.137 24.6523C100.832 24.8164 100.527 24.8984 100.223 24.8984C100.035 24.8984 99.8945 24.8398 99.8008 24.7227C99.7305 24.6055 99.6719 24.4062 99.625 24.125C99.1562 21.4531 98.5938 19.2031 97.9375 17.375C97.8438 17.0938 97.7969 16.918 97.7969 16.8477ZM98.9922 7.56641C98.9922 7.37891 99.0859 7.15625 99.2734 6.89844C99.4609 6.64062 99.6367 6.48828 99.8008 6.44141C99.8477 6.41797 99.918 6.40625 100.012 6.40625C100.152 6.40625 100.328 6.47656 100.539 6.61719C100.703 6.71094 101.535 7.21484 103.035 8.12891C104.535 9.01953 105.332 9.67578 105.426 10.0977C105.496 10.3789 105.379 10.6953 105.074 11.0469C104.77 11.375 104.523 11.5625 104.336 11.6094L104.23 11.6445C104.113 11.6445 103.902 11.5391 103.598 11.3281C101.84 9.89844 100.445 8.85547 99.4141 8.19922C99.2969 8.10547 99.1914 8.01172 99.0977 7.91797C99.0273 7.80078 98.9922 7.68359 98.9922 7.56641ZM109.645 7.53125C109.645 7.39062 109.738 7.32031 109.926 7.32031C110.043 7.32031 110.277 7.35547 110.629 7.42578C110.98 7.49609 111.309 7.625 111.613 7.8125C111.941 8 112.105 8.24609 112.105 8.55078V8.62109L111.895 12.8398L115.867 12.4883L115.938 6.16016C115.938 5.55078 115.75 5.01172 115.375 4.54297C115.281 4.42578 115.234 4.32031 115.234 4.22656C115.234 4.10937 115.363 4.05078 115.621 4.05078C116.277 4.05078 116.84 4.16797 117.309 4.40234C117.801 4.61328 118.047 4.90625 118.047 5.28125L117.941 12.3125L122.582 11.9258L122.652 8.69141C122.652 8.01172 122.547 7.47266 122.336 7.07422C122.242 6.91016 122.195 6.76953 122.195 6.65234C122.195 6.53516 122.289 6.47656 122.477 6.47656C122.875 6.47656 123.355 6.58203 123.918 6.79297C124.48 7.00391 124.762 7.35547 124.762 7.84766V7.95312L124.48 14.7734C124.457 15.1016 124.398 15.3477 124.305 15.5117C124.234 15.6523 124.094 15.7227 123.883 15.7227C123.602 15.7227 123.262 15.6055 122.863 15.3711C122.488 15.1133 122.301 14.8086 122.301 14.457C122.301 14.3164 122.312 14.1992 122.336 14.1055L122.441 13.5781L112.246 14.5977C111.988 14.6211 111.719 14.6797 111.438 14.7734C111.156 14.8438 110.957 14.8789 110.84 14.8789C110.629 14.8789 110.383 14.7617 110.102 14.5273C109.844 14.293 109.715 14.0586 109.715 13.8242C109.715 13.7305 109.738 13.5898 109.785 13.4023C109.902 12.8633 109.961 12.418 109.961 12.0664L110.031 9.42969C110.031 8.77344 109.938 8.25781 109.75 7.88281C109.68 7.74219 109.645 7.625 109.645 7.53125ZM193.211 24.7227C192.859 24.7227 192.52 24.4648 192.191 23.9492C191.77 23.293 191.359 22.7539 190.961 22.332L190.047 21.3828C189.555 21.9453 189.121 22.3906 188.746 22.7188C188.395 23.0469 187.949 23.3633 187.41 23.668C186.402 24.2539 185.559 24.5469 184.879 24.5469C184.715 24.5469 184.633 24.4883 184.633 24.3711C184.633 24.3008 184.855 24.1484 185.301 23.9141C185.746 23.6797 186.168 23.3984 186.566 23.0703C187.574 22.2266 188.406 21.3594 189.062 20.4688C188.922 20.3281 188.219 19.7188 186.953 18.6406C186.789 18.5234 186.543 18.3242 186.215 18.043C186.145 17.9961 186.004 17.8906 185.793 17.7266C185.582 17.5625 185.477 17.4453 185.477 17.375C185.477 17.2578 185.535 17.1992 185.652 17.1992C186.004 17.1992 186.566 17.4453 187.34 17.9375C188.113 18.4062 188.922 18.9688 189.766 19.625C190.094 19.2266 190.352 18.8516 190.539 18.5C190.727 18.1484 190.938 17.7148 191.172 17.1992C191.289 16.9414 191.359 16.7188 191.383 16.5312C191.406 16.3203 191.418 16.1914 191.418 16.1445C191.418 15.8867 191.488 15.7578 191.629 15.7578C191.793 15.7578 192.016 15.8867 192.297 16.1445C192.789 16.6133 193.035 16.9297 193.035 17.0938C193.035 17.1875 192.977 17.293 192.859 17.4102C192.578 17.6914 192.32 18.0664 192.086 18.5352C191.945 18.8164 191.688 19.2148 191.312 19.7305C191.195 19.8711 191.102 20 191.031 20.1172C190.961 20.2344 190.891 20.3398 190.82 20.4336C191.359 20.832 192.156 21.5117 193.211 22.4727C193.469 22.707 193.633 22.9297 193.703 23.1406C193.797 23.3281 193.844 23.5859 193.844 23.9141C193.844 24.1484 193.785 24.3477 193.668 24.5117C193.551 24.6523 193.398 24.7227 193.211 24.7227ZM200.523 11.8555C200.594 11.8555 200.664 11.8906 200.734 11.9609C200.805 12.0078 200.852 12.0781 200.875 12.1719V12.2422C200.875 12.4062 200.746 12.7227 200.488 13.1914L197.957 17.5859C197.77 17.9844 197.523 18.1836 197.219 18.1836C196.914 18.1836 196.656 17.9961 196.445 17.6211C196.234 17.3164 195.977 16.8594 195.672 16.25C195.531 16.0391 195.414 15.8281 195.32 15.6172C195.227 15.4062 195.156 15.2539 195.109 15.1602C194.852 14.7148 194.723 14.3984 194.723 14.2109C194.723 14.1172 194.758 14.0469 194.828 14C194.898 13.9297 194.969 13.8945 195.039 13.8945C195.297 13.8945 195.531 14.0352 195.742 14.3164C195.906 14.4805 196.035 14.6562 196.129 14.8438L196.516 15.3711L197.219 16.1797L197.535 15.6875C197.863 15.125 198.637 14.0117 199.855 12.3477C200.113 12.0195 200.336 11.8555 200.523 11.8555ZM167.09 34.8828C167.09 35.375 166.867 35.6211 166.422 35.6211C166.328 35.6211 166.117 35.5742 165.789 35.4805C165.484 35.3867 165.191 35.2227 164.91 34.9883C164.629 34.7539 164.488 34.4375 164.488 34.0391L164.523 33.793C164.617 33.1602 164.664 32.457 164.664 31.6836L164.734 21.8047L153.66 22.4023C153.332 22.4258 152.934 22.4375 152.465 22.4375C151.926 22.4375 151.492 22.2969 151.164 22.0156C150.836 21.7109 150.602 21.3945 150.461 21.0664C150.344 20.7148 150.285 20.457 150.285 20.293C150.285 20.1523 150.367 20.082 150.531 20.082C150.625 20.082 150.707 20.0938 150.777 20.1172C151.41 20.2578 151.973 20.3281 152.465 20.3281H152.746L164.77 19.6602L164.84 11.3281L159.461 11.6445C158.406 13.3789 157.422 14.7617 156.508 15.793C155.594 16.8242 154.832 17.5391 154.223 17.9375C153.637 18.3359 153.285 18.5352 153.168 18.5352C153.051 18.5352 152.992 18.4766 152.992 18.3594C152.992 18.1953 153.121 17.9258 153.379 17.5508C154.434 16.168 155.453 14.5977 156.438 12.8398C157.422 11.082 158.219 9.42969 158.828 7.88281C159.438 6.3125 159.742 5.11719 159.742 4.29688V3.875C159.742 3.59375 159.836 3.45312 160.023 3.45312C160.094 3.45312 160.352 3.53516 160.797 3.69922C161.266 3.86328 161.676 4.07422 162.027 4.33203C162.402 4.56641 162.59 4.80078 162.59 5.03516C162.59 5.31641 162.32 6.01953 161.781 7.14453C161.242 8.24609 160.844 9.04297 160.586 9.53516L172.434 8.79688C172.973 8.75 173.5 8.64453 174.016 8.48047C174.062 8.45703 174.145 8.44531 174.262 8.44531C174.543 8.44531 174.941 8.66797 175.457 9.11328C175.973 9.55859 176.23 9.92188 176.23 10.2031C176.23 10.4844 175.938 10.6484 175.352 10.6953L167.16 11.1875L167.125 19.5547L177.074 18.9922C177.66 18.9453 178.199 18.8398 178.691 18.6758C178.832 18.6289 178.938 18.6055 179.008 18.6055C179.148 18.6055 179.383 18.7109 179.711 18.9219C180.039 19.1328 180.332 19.3789 180.59 19.6602C180.848 19.9414 180.977 20.1992 180.977 20.4336C180.977 20.7383 180.707 20.9141 180.168 20.9609L167.125 21.6641L167.09 34.8828ZM246.121 14.3867C245.957 14.3867 245.781 14.2812 245.594 14.0703C245.453 13.9063 245.359 13.7773 245.312 13.6836C245.266 13.5664 245.266 13.4141 245.312 13.2266L245.348 12.3828C245.371 12.2188 245.383 11.8203 245.383 11.1875V10.0273L244.328 10.5195L243.098 11.0469C242.793 11.1641 242.477 11.3047 242.148 11.4688C241.867 11.6094 241.621 11.6797 241.41 11.6797C241.246 11.6563 241.059 11.5977 240.848 11.5039C240.637 11.4102 240.473 11.3281 240.355 11.2578C240.098 11.0938 239.98 10.918 240.004 10.7305L240.109 10.3789C240.109 10.1914 240.121 10.0273 240.145 9.88672L240.18 7.84766V5.94922C240.18 5.57422 240.156 5.25781 240.109 5C240.062 4.71875 240.027 4.51953 240.004 4.40234C240.004 4.28516 240.039 4.20313 240.109 4.15625C240.133 4.13281 240.191 4.12109 240.285 4.12109C240.449 4.12109 240.766 4.22656 241.234 4.4375C241.633 4.625 241.797 4.85938 241.727 5.14062C241.68 5.30469 241.633 5.55078 241.586 5.87891L241.48 9.92188C241.48 10.0391 241.492 10.1328 241.516 10.2031C241.562 10.25 241.609 10.2734 241.656 10.2734C241.938 10.2734 242.277 10.1914 242.676 10.0273C243.426 9.79297 244.07 9.55859 244.609 9.32422L245.383 9.00781V6.6875C245.383 5.75 245.324 4.84766 245.207 3.98047C245.184 3.91016 245.172 3.82812 245.172 3.73438C245.172 3.5 245.266 3.38281 245.453 3.38281C245.477 3.38281 245.605 3.42969 245.84 3.52344C246.191 3.71094 246.449 3.875 246.613 4.01562C246.777 4.15625 246.871 4.23828 246.895 4.26172C246.988 4.33203 247.035 4.40234 247.035 4.47266C247.035 4.51953 247.012 4.57812 246.965 4.64844C246.941 4.71875 246.918 4.77734 246.895 4.82422L246.789 5.87891L246.754 9.11328L246.789 12.2422C246.789 12.7813 246.754 13.25 246.684 13.6484C246.566 14.1406 246.379 14.3867 246.121 14.3867ZM239.652 20.1523C239.395 20.1523 239.078 19.9531 238.703 19.5547C238.422 19.2734 238.281 19.0625 238.281 18.9219C238.281 18.8516 238.328 18.8164 238.422 18.8164C238.516 18.793 238.633 18.7812 238.773 18.7812L239.547 18.7461C239.992 18.7461 240.285 18.7344 240.426 18.7109C240.871 18.7109 241.246 18.6992 241.551 18.6758C243.566 18.4883 244.926 18.3359 245.629 18.2188C245.98 18.1719 246.297 18.125 246.578 18.0781C246.859 18.0078 247.082 17.9727 247.246 17.9727C247.574 17.9727 247.902 18.1367 248.23 18.4648C248.488 18.7227 248.617 18.9336 248.617 19.0977C248.617 19.2383 248.535 19.332 248.371 19.3789C248.254 19.4023 247.562 19.4492 246.297 19.5195C245.594 19.543 244.727 19.6016 243.695 19.6953C242.664 19.7891 241.762 19.8828 240.988 19.9766C240.848 20 240.648 20.0352 240.391 20.082C240.133 20.1289 239.887 20.1523 239.652 20.1523ZM244.363 34.6719C243.637 34.6719 243.074 34.6484 242.676 34.6016C242.301 34.5547 241.984 34.4141 241.727 34.1797C241.281 33.8516 240.977 33.1367 240.812 32.0352L240.707 30.9102C240.707 30.6289 240.684 30.2773 240.637 29.8555C240.262 29.9023 239.992 29.9492 239.828 29.9961C239.781 30.0195 239.699 30.0547 239.582 30.1016C239.488 30.125 239.418 30.1367 239.371 30.1367C239.207 30.1367 239.055 30.0898 238.914 29.9961C238.773 29.9023 238.598 29.7266 238.387 29.4688C238.223 29.2578 238.141 29.1172 238.141 29.0469C238.141 28.9766 238.223 28.9297 238.387 28.9062C238.551 28.8828 238.773 28.8711 239.055 28.8711C239.453 28.8711 239.969 28.8242 240.602 28.7305L240.566 28.2383C240.566 27.3008 240.508 26.5039 240.391 25.8477L240.355 25.6016C240.355 25.2734 240.484 25.1445 240.742 25.2148C241.023 25.3086 241.281 25.4258 241.516 25.5664C241.703 25.6602 241.832 25.7539 241.902 25.8477C241.973 25.918 241.996 26.0234 241.973 26.1641L241.867 27.6758V28.5898L244.961 28.2734C244.961 28.1094 244.973 27.7227 244.996 27.1133C245.02 26.4805 245.02 26.0703 244.996 25.8828C244.996 25.6953 244.973 25.5195 244.926 25.3555C244.902 25.168 244.879 25.0156 244.855 24.8984C244.855 24.7109 244.949 24.6172 245.137 24.6172C245.324 24.6172 245.559 24.7227 245.84 24.9336C246.168 25.1445 246.379 25.332 246.473 25.4961C246.59 25.6602 246.613 25.8594 246.543 26.0938C246.426 26.4688 246.344 26.8906 246.297 27.3594C246.25 27.8281 246.227 28.1094 246.227 28.2031C246.508 28.1797 246.766 28.1445 247 28.0977C247.234 28.0508 247.387 28.0273 247.457 28.0273C247.645 27.9805 247.867 27.957 248.125 27.957C248.266 27.9805 248.465 28.1211 248.723 28.3789C248.934 28.6602 249.039 28.8828 249.039 29.0469C249.039 29.2812 248.816 29.375 248.371 29.3281C247.973 29.2578 247.574 29.2227 247.176 29.2227C246.777 29.2227 246.438 29.2344 246.156 29.2578C246.086 30.1016 245.945 30.9336 245.734 31.7539C245.688 31.9414 245.605 32.0938 245.488 32.2109C245.371 32.3516 245.266 32.4219 245.172 32.4219C245.008 32.4219 244.902 32.3516 244.855 32.2109C244.832 32.0938 244.82 31.8945 244.82 31.6133C244.867 31.0039 244.891 30.2422 244.891 29.3281C244.258 29.375 243.766 29.4219 243.414 29.4688C242.875 29.5859 242.371 29.6562 241.902 29.6797C241.879 30.6406 241.926 31.4961 242.043 32.2461C242.113 32.7383 242.254 33.0781 242.465 33.2656C242.605 33.3828 242.77 33.4531 242.957 33.4766C243.168 33.5 243.379 33.5117 243.59 33.5117C243.801 33.5117 243.941 33.5117 244.012 33.5117C244.738 33.5117 245.418 33.4766 246.051 33.4062C246.238 33.3828 246.402 33.3359 246.543 33.2656C246.707 33.1953 246.824 33.1602 246.895 33.1602C247.105 33.1602 247.316 33.2305 247.527 33.3711C247.738 33.5117 247.844 33.6758 247.844 33.8633C247.844 34.0508 247.738 34.1914 247.527 34.2852C247.34 34.3789 247.035 34.4609 246.613 34.5312C245.863 34.625 245.113 34.6719 244.363 34.6719ZM254.383 18.6758C254.664 18.6758 254.805 18.8047 254.805 19.0625C254.805 19.2031 254.676 19.4023 254.418 19.6602C253.715 20.5273 252.32 22.1797 250.234 24.6172C250.07 24.8281 249.918 24.9336 249.777 24.9336C249.66 24.9336 249.402 24.7578 249.004 24.4062C248.676 24.125 248.512 23.8906 248.512 23.7031C248.512 23.4922 248.688 23.293 249.039 23.1055C249.578 22.8008 250.387 22.1914 251.465 21.2773C252.543 20.3164 253.34 19.5547 253.855 18.9922C254.066 18.7812 254.242 18.6758 254.383 18.6758ZM209.699 30.1719C211.785 29.5156 213.648 28.8008 215.289 28.0273C214.938 27.5352 214.492 26.9727 213.953 26.3398C213.766 26.1055 213.672 25.918 213.672 25.7773C213.672 25.5195 213.824 25.2969 214.129 25.1094C214.434 24.8984 214.668 24.793 214.832 24.793C215.02 24.793 215.219 24.9102 215.43 25.1445C216.766 26.7148 217.902 28.0977 218.84 29.293C219.777 30.4883 220.246 31.2148 220.246 31.4727C220.246 31.6836 220.082 31.9297 219.754 32.2109C219.449 32.5156 219.156 32.668 218.875 32.668C218.641 32.668 218.406 32.4805 218.172 32.1055C217.633 31.2852 217.023 30.3945 216.344 29.4336L212.125 31.543C211.656 31.7539 210.918 32.1289 209.91 32.668C209.066 33.1133 208.551 33.3359 208.363 33.3359C208.223 33.3359 208.047 33.2422 207.836 33.0547C207.625 32.8906 207.461 32.6797 207.344 32.4219C207.25 32.1875 207.25 32 207.344 31.8594C207.484 31.6016 207.555 30.5703 207.555 28.7656V16.6016C207.555 16.0391 207.531 15.582 207.484 15.2305C207.461 14.8789 207.367 14.5039 207.203 14.1055C207.18 14.0352 207.156 13.9766 207.133 13.9297C207.109 13.8828 207.098 13.8359 207.098 13.7891C207.098 13.6719 207.18 13.6133 207.344 13.6133C207.648 13.6133 208.41 13.8711 209.629 14.3867L217.258 13.8594C217.445 13.8359 217.656 13.8242 217.891 13.8242C218.148 13.8242 218.453 13.9414 218.805 14.1758C219.156 14.3867 219.332 14.6211 219.332 14.8789C219.332 14.9727 219.273 15.1133 219.156 15.3008C219.062 15.4883 219.016 15.6289 219.016 15.7227L218.102 22.332C218.664 22.9883 218.945 23.4336 218.945 23.668C218.945 23.7852 218.875 23.8672 218.734 23.9141C218.617 23.9609 218.43 23.9844 218.172 23.9844L209.664 24.3008L209.699 30.1719ZM203.934 14.3867C203.934 14.1523 204.086 13.8711 204.391 13.543C206.102 11.6445 207.59 9.75781 208.855 7.88281C210.121 6.00781 210.754 4.75391 210.754 4.12109L210.719 3.875V3.76953C210.719 3.44141 210.848 3.27734 211.105 3.27734C211.41 3.27734 211.832 3.48828 212.371 3.91016C212.934 4.30859 213.215 4.63672 213.215 4.89453C213.215 5.01172 213.156 5.16406 213.039 5.35156C212.688 5.91406 212.301 6.47656 211.879 7.03906L216.871 6.65234C217.293 6.62891 217.738 6.53516 218.207 6.37109C218.348 6.32422 218.453 6.30078 218.523 6.30078C218.875 6.30078 219.25 6.5 219.648 6.89844C220.07 7.27344 220.281 7.56641 220.281 7.77734C220.281 8.05859 220.023 8.22266 219.508 8.26953L213.496 8.69141C213.66 8.73828 214.023 8.98438 214.586 9.42969C215.172 9.875 215.699 10.332 216.168 10.8008C216.637 11.2695 216.871 11.5977 216.871 11.7852C216.871 11.9961 216.73 12.2539 216.449 12.5586C216.168 12.8398 215.922 12.9805 215.711 12.9805C215.523 12.9805 215.301 12.8281 215.043 12.5234C214.246 11.6563 213.438 10.8945 212.617 10.2383C212.336 10.0039 212.195 9.80469 212.195 9.64062C212.195 9.52344 212.254 9.37109 212.371 9.18359C212.488 8.99609 212.641 8.84375 212.828 8.72656L210.473 8.90234C209.348 10.2852 208.105 11.5859 206.746 12.8047C205.387 14 204.52 14.5977 204.145 14.5977C204.004 14.5977 203.934 14.5273 203.934 14.3867ZM216.59 18.043L216.836 15.582L209.594 16.0742V18.3945L216.59 18.043ZM216.133 22.4023L216.414 19.6953L209.629 20.0117V22.6484L216.133 22.4023ZM218.031 12.875C218.031 12.6406 218.184 12.3594 218.488 12.0312C219.637 10.6484 220.68 9.08984 221.617 7.35547C222.578 5.59766 223.059 4.36719 223.059 3.66406V3.52344C223.059 3.17188 223.188 2.99609 223.445 2.99609C223.609 2.99609 223.855 3.08984 224.184 3.27734C224.535 3.44141 224.852 3.64063 225.133 3.875C225.414 4.10937 225.555 4.34375 225.555 4.57812C225.555 4.78906 225.391 5.16406 225.062 5.70312C224.734 6.24219 224.559 6.52344 224.535 6.54688L231.461 5.98438C231.977 5.9375 232.422 5.85547 232.797 5.73828C232.844 5.71484 232.938 5.70312 233.078 5.70312C233.406 5.70312 233.758 5.89063 234.133 6.26562C234.531 6.61719 234.73 6.91016 234.73 7.14453C234.73 7.28516 234.66 7.40234 234.52 7.49609C234.402 7.56641 234.238 7.61328 234.027 7.63672L226.891 8.12891C227.547 8.55078 228.32 9.17187 229.211 9.99219C230.102 10.7891 230.547 11.3281 230.547 11.6094C230.547 11.7734 230.418 12.0312 230.16 12.3828C229.902 12.7109 229.656 12.875 229.422 12.875C229.234 12.875 229.035 12.7578 228.824 12.5234C227.676 11.2812 226.633 10.2969 225.695 9.57031C225.461 9.38281 225.344 9.20703 225.344 9.04297C225.344 8.85547 225.52 8.57422 225.871 8.19922L223.27 8.375C222.496 9.40625 221.559 10.4492 220.457 11.5039C219.379 12.5586 218.652 13.0859 218.277 13.0859C218.113 13.0859 218.031 13.0156 218.031 12.875ZM221.336 13.6484C221.336 13.5078 221.418 13.4375 221.582 13.4375C221.934 13.4375 222.73 13.7305 223.973 14.3164L231.039 13.7188L231.32 13.6836C231.414 13.6836 231.59 13.7305 231.848 13.8242C232.129 13.8945 232.387 14.0234 232.621 14.2109C232.879 14.375 233.008 14.5977 233.008 14.8789C233.008 14.9727 232.973 15.1016 232.902 15.2656C232.832 15.4297 232.797 15.5469 232.797 15.6172C232.773 18.1953 232.609 20.9492 232.305 23.8789L232.234 24.7578C232.164 25.7422 232.07 26.5625 231.953 27.2188C231.836 27.875 231.637 28.3906 231.355 28.7656C230.91 29.375 230.43 29.6797 229.914 29.6797C229.398 29.6797 228.742 29.3633 227.945 28.7305C227.148 28.0977 226.41 27.4062 225.73 26.6562C225.074 25.9062 224.746 25.4258 224.746 25.2148C224.746 25.0508 224.84 24.9688 225.027 24.9688C225.238 24.9688 225.531 25.0859 225.906 25.3203C226.773 25.8594 227.5 26.293 228.086 26.6211C228.672 26.9492 229.094 27.1133 229.352 27.1133C229.469 27.1133 229.551 27.0312 229.598 26.8672C230.137 23.8672 230.465 20.1055 230.582 15.582L223.973 16.0742C223.973 20.0352 224.008 26.3164 224.078 34.918C224.078 35.1289 224.02 35.2812 223.902 35.375C223.809 35.4922 223.68 35.5508 223.516 35.5508C223.328 35.5508 223.105 35.4805 222.848 35.3398C222.402 35.1523 222.086 34.9766 221.898 34.8125C221.711 34.6484 221.617 34.4609 221.617 34.25L221.652 34.0039C221.793 33.2305 221.863 32.3633 221.863 31.4023L221.758 16.5664C221.758 15.957 221.734 15.4883 221.688 15.1602C221.664 14.832 221.594 14.5156 221.477 14.2109C221.383 13.9297 221.336 13.7422 221.336 13.6484Z" fill="#333333"/>
<path d="M67.5938 68.2188C67.3229 68.2188 67.125 68.125 67 67.9375C66.8125 67.6667 66.625 67.4479 66.4375 67.2812C66.2708 67.1146 65.9688 66.8854 65.5312 66.5938L65.625 66.4375C66.5833 66.7708 67.2604 66.9375 67.6562 66.9375C67.9896 66.9375 68.3542 66.75 68.75 66.375C69.1667 65.9792 69.5208 65.4167 69.8125 64.6875C69.9583 64.3542 70.0625 64.0833 70.125 63.875C70.2083 63.6458 70.2708 63.3958 70.3125 63.125V63.0625C70.3125 62.875 70.2188 62.7812 70.0312 62.7812C69.8229 62.7812 69.4479 62.8438 68.9062 62.9688C68.6146 63.0521 68.2292 63.1771 67.75 63.3438L67.5 63.2812C67.4792 63.2604 67.4271 63.2292 67.3438 63.1875C67.2812 63.125 67.2292 63.0625 67.1875 63C67.0833 62.8958 67.0312 62.8229 67.0312 62.7812L67 62.6562C67 62.5104 67.0729 62.375 67.2188 62.25C67.3854 62.125 67.4792 62.0312 67.5 61.9688C67.6667 61.7812 68 61.3229 68.5 60.5938C68.5417 60.5521 68.6146 60.4583 68.7188 60.3125C68.8229 60.1458 68.875 60 68.875 59.875C68.875 59.7292 68.2604 59.8333 67.0312 60.1875C65.7812 60.5625 65.125 60.75 65.0625 60.75C64.8542 60.75 64.6354 60.5729 64.4062 60.2188C64.2396 60.0521 64.1562 59.9167 64.1562 59.8125C64.1562 59.6667 64.3646 59.5833 64.7812 59.5625C65.2604 59.5417 66 59.4583 67 59.3125C68.0208 59.1667 68.625 59.0729 68.8125 59.0312L69.25 58.9062C69.3125 58.8854 69.3854 58.875 69.4688 58.875C69.5312 58.875 69.625 58.9167 69.75 59C69.8958 59.0833 70.0208 59.1458 70.125 59.1875C70.3958 59.3125 70.5521 59.4583 70.5938 59.625V59.7188C70.5938 59.9062 70.4896 60.1042 70.2812 60.3125C70.1979 60.3958 70.0312 60.5729 69.7812 60.8438C69.5312 61.0938 69.375 61.2604 69.3125 61.3438C69.2292 61.4271 69.1042 61.5625 68.9375 61.75C68.7708 61.9375 68.6771 62.0521 68.6562 62.0938C68.6562 62.1562 68.6771 62.1979 68.7188 62.2188C68.7604 62.2396 68.8125 62.25 68.875 62.25C69.5 62.1667 70.0104 62.0729 70.4062 61.9688L70.9062 61.8125C71.1354 61.8125 71.3021 61.8958 71.4062 62.0625C71.5938 62.2708 71.7188 62.4479 71.7812 62.5938C71.8438 62.7188 71.8438 62.8438 71.7812 62.9688C71.7604 63.0312 71.7292 63.0938 71.6875 63.1562C71.6458 63.2188 71.6042 63.2917 71.5625 63.375C71.5417 63.4167 71.5 63.5 71.4375 63.625C71.375 63.75 71.3333 63.875 71.3125 64C70.9375 65.0833 70.4896 66.0104 69.9688 66.7812C69.6771 67.1354 69.3542 67.4375 69 67.6875C68.5208 68.0417 68.0521 68.2188 67.5938 68.2188ZM71.1875 76.5938C70.875 76.5938 70.5729 76.3646 70.2812 75.9062C69.9062 75.3229 69.5417 74.8438 69.1875 74.4688L68.375 73.625C67.9375 74.125 67.5521 74.5208 67.2188 74.8125C66.9062 75.1042 66.5104 75.3854 66.0312 75.6562C65.1354 76.1771 64.3854 76.4375 63.7812 76.4375C63.6354 76.4375 63.5625 76.3854 63.5625 76.2812C63.5625 76.2188 63.7604 76.0833 64.1562 75.875C64.5521 75.6667 64.9271 75.4167 65.2812 75.125C66.1771 74.375 66.9167 73.6042 67.5 72.8125C67.375 72.6875 66.75 72.1458 65.625 71.1875C65.4792 71.0833 65.2604 70.9062 64.9688 70.6562C64.9062 70.6146 64.7812 70.5208 64.5938 70.375C64.4062 70.2292 64.3125 70.125 64.3125 70.0625C64.3125 69.9583 64.3646 69.9062 64.4688 69.9062C64.7812 69.9062 65.2812 70.125 65.9688 70.5625C66.6562 70.9792 67.375 71.4792 68.125 72.0625C68.4167 71.7083 68.6458 71.375 68.8125 71.0625C68.9792 70.75 69.1667 70.3646 69.375 69.9062C69.4792 69.6771 69.5417 69.4792 69.5625 69.3125C69.5833 69.125 69.5938 69.0104 69.5938 68.9688C69.5938 68.7396 69.6562 68.625 69.7812 68.625C69.9271 68.625 70.125 68.7396 70.375 68.9688C70.8125 69.3854 71.0312 69.6667 71.0312 69.8125C71.0312 69.8958 70.9792 69.9896 70.875 70.0938C70.625 70.3438 70.3958 70.6771 70.1875 71.0938C70.0625 71.3438 69.8333 71.6979 69.5 72.1562C69.3958 72.2812 69.3125 72.3958 69.25 72.5C69.1875 72.6042 69.125 72.6979 69.0625 72.7812C69.5417 73.1354 70.25 73.7396 71.1875 74.5938C71.4167 74.8021 71.5625 75 71.625 75.1875C71.7083 75.3542 71.75 75.5833 71.75 75.875C71.75 76.0833 71.6979 76.2604 71.5938 76.4062C71.4896 76.5312 71.3542 76.5938 71.1875 76.5938ZM64.2812 85.9375C63.9688 85.9375 63.7292 85.8542 63.5625 85.6875C63.375 85.5 63.2812 85.3333 63.2812 85.1875C63.2812 85.0417 63.3646 84.8854 63.5312 84.7188C63.5521 84.6979 63.6667 84.5312 63.875 84.2188C64.3333 83.4896 64.8542 82.5625 65.4375 81.4375C66.0417 80.2917 66.4167 79.5104 66.5625 79.0938C66.6875 78.6979 66.8021 78.3542 66.9062 78.0625C67.0312 77.7708 67.1354 77.625 67.2188 77.625C67.3646 77.625 67.4896 77.6771 67.5938 77.7812C67.6979 77.8646 67.8021 77.9896 67.9062 78.1562C68.0312 78.3021 68.125 78.4062 68.1875 78.4688C68.3333 78.6354 68.4062 78.7917 68.4062 78.9375C68.4062 79.0417 68.3646 79.1458 68.2812 79.25C68.1979 79.3542 68.1458 79.4271 68.125 79.4688L66.75 81.7812C66.3958 82.4271 65.9271 83.2292 65.3438 84.1875C65.2604 84.2917 65.2188 84.3958 65.2188 84.5C65.2188 84.5833 65.3125 84.625 65.5 84.625C65.8958 84.625 66.6354 84.5729 67.7188 84.4688C68.8021 84.3854 69.5312 84.3125 69.9062 84.25C70.4479 84.1875 70.8229 84.125 71.0312 84.0625C71.2604 84 71.5938 84.1562 72.0312 84.5312C72.5521 84.9688 72.6667 85.25 72.375 85.375C72.2083 85.4583 71.8854 85.5 71.4062 85.5H70.1562C69.8854 85.5 69.4583 85.5208 68.875 85.5625C68.5208 85.5625 68.125 85.5729 67.6875 85.5938C67.25 85.6146 66.8854 85.6354 66.5938 85.6562C66.2604 85.6771 65.6146 85.7396 64.6562 85.8438L64.2812 85.9375ZM77.5625 72.1562C77.8125 72.1562 77.9375 72.2708 77.9375 72.5C77.9375 72.625 77.8229 72.8021 77.5938 73.0312C76.9688 73.8021 75.7292 75.2708 73.875 77.4375C73.7292 77.625 73.5938 77.7188 73.4688 77.7188C73.3646 77.7188 73.1354 77.5625 72.7812 77.25C72.4896 77 72.3438 76.7917 72.3438 76.625C72.3438 76.4375 72.5 76.2604 72.8125 76.0938C73.2917 75.8229 74.0104 75.2812 74.9688 74.4688C75.9271 73.6146 76.6354 72.9375 77.0938 72.4375C77.2812 72.25 77.4375 72.1562 77.5625 72.1562ZM39.6562 70V70.0938C39.6562 70.4479 39.4792 70.625 39.125 70.625C38.8333 70.625 38.5312 70.5417 38.2188 70.375C37.9062 70.2083 37.75 69.9583 37.75 69.625L37.7812 69.3125C37.8021 69.2083 37.8125 69.0729 37.8125 68.9062C37.8125 68.7604 37.8021 68.5938 37.7812 68.4062C37.7604 68.2188 37.7396 68.0729 37.7188 67.9688L37.1562 63.5312C37.0729 62.9688 36.9375 62.5417 36.75 62.25C36.6042 62.0208 36.5312 61.8646 36.5312 61.7812C36.5312 61.6562 36.6458 61.5938 36.875 61.5938C37.25 61.5938 37.8958 61.7604 38.8125 62.0938L42.8438 61.875L42.7812 60.4688C42.7604 60.0312 42.6146 59.6354 42.3438 59.2812C42.2604 59.1979 42.2188 59.1042 42.2188 59C42.2188 58.8542 42.3542 58.7812 42.625 58.7812C42.8542 58.7812 43.1354 58.8438 43.4688 58.9688C43.8646 59.1146 44.125 59.25 44.25 59.375C44.375 59.4792 44.4479 59.625 44.4688 59.8125L44.5625 61.7812L48.5312 61.5625L48.5625 60.0938C48.5625 59.5729 48.4479 59.1354 48.2188 58.7812C48.1562 58.6562 48.125 58.5521 48.125 58.4688C48.125 58.3021 48.25 58.2188 48.5 58.2188C48.6042 58.2396 48.8021 58.2917 49.0938 58.375C49.4062 58.4375 49.6979 58.5521 49.9688 58.7188C50.2396 58.8854 50.375 59.0938 50.375 59.3438L50.2812 61.4688L55.0625 61.2188L55.4688 61.1875C55.6771 61.1875 55.9167 61.2917 56.1875 61.5C56.4792 61.7083 56.625 61.9167 56.625 62.125C56.625 62.2083 56.6042 62.3021 56.5625 62.4062C56.5208 62.4896 56.4896 62.5625 56.4688 62.625L55.625 67.5312C56.0417 68.0312 56.25 68.3646 56.25 68.5312C56.25 68.6562 56.1875 68.7396 56.0625 68.7812C55.9583 68.8021 55.75 68.8229 55.4375 68.8438L39.5938 69.5625L39.6562 70ZM31.8125 86.9062C31.8125 86.7188 32 86.4167 32.375 86C35.4792 82.6042 37.0625 78.2604 37.125 72.9688C37.125 72.2604 37.0625 71.7188 36.9375 71.3438C36.8542 71.0521 36.8125 70.8646 36.8125 70.7812C36.8125 70.6146 36.8958 70.5312 37.0625 70.5312C37.375 70.5312 38.0417 70.7917 39.0625 71.3125L53.1562 70.6875C53.7396 70.6458 54.2396 70.5521 54.6562 70.4062C54.8229 70.3646 54.9375 70.3438 55 70.3438C55.2292 70.3438 55.5625 70.5208 56 70.875C56.4375 71.2083 56.6562 71.4896 56.6562 71.7188C56.6562 71.9271 56.4167 72.0521 55.9375 72.0938L39 72.8125C38.9167 74.5208 38.7292 76.125 38.4375 77.625L55 76.9062C55.5833 76.8646 56.0833 76.7708 56.5 76.625C56.6667 76.5833 56.7917 76.5625 56.875 76.5625C57.125 76.5625 57.375 76.6562 57.625 76.8438C57.875 77.0104 58.0833 77.2083 58.25 77.4375C58.4167 77.6458 58.5 77.8021 58.5 77.9062C58.5 78.1146 58.2604 78.2396 57.7812 78.2812L47.3125 78.7188C48.4583 79.9062 49.4271 80.7708 50.2188 81.3125C52.3854 80.5208 53.6458 79.7604 54 79.0312C54.1042 78.8021 54.2396 78.6875 54.4062 78.6875C54.5938 78.6875 54.8333 78.8854 55.125 79.2812C55.4167 79.6771 55.5625 80.0104 55.5625 80.2812C55.5625 80.4896 55.4479 80.6458 55.2188 80.75C54.2188 81.2917 53.0625 81.7917 51.75 82.25C52.875 82.875 54.1354 83.4062 55.5312 83.8438C56.9271 84.2812 58.5729 84.6771 60.4688 85.0312C60.6562 85.0729 60.7917 85.1146 60.875 85.1562C60.9583 85.1979 61 85.2604 61 85.3438C61 85.4062 60.9271 85.5625 60.7812 85.8125C60.6562 86.0625 60.5 86.2812 60.3125 86.4688C60.125 86.6771 59.9375 86.7812 59.75 86.7812C59.6875 86.7812 59.5729 86.7604 59.4062 86.7188C57.1146 86.1771 55.1771 85.5938 53.5938 84.9688C52.0312 84.3438 50.5833 83.5521 49.25 82.5938C47.9167 81.6146 46.6042 80.3542 45.3125 78.8125L42.7812 78.9062L42.625 84.5938C43.9792 84.2396 45.5729 83.7812 47.4062 83.2188C47.7188 83.1146 48.0208 83.0625 48.3125 83.0625C48.5625 83.0625 48.6875 83.125 48.6875 83.25C48.6875 83.4792 48.3229 83.8021 47.5938 84.2188C46.8646 84.6354 45.9688 85.0625 44.9062 85.5C44.4271 85.7083 44.0312 85.875 43.7188 86C43.4062 86.1458 43.1667 86.2604 43 86.3438C42.2083 86.7396 41.7083 86.9375 41.5 86.9375C41.2917 86.9375 41.0625 86.7604 40.8125 86.4062C40.5625 86.0521 40.5 85.7812 40.625 85.5938C40.7083 85.4479 40.7708 85.0312 40.8125 84.3438C40.8542 83.6771 40.875 83.1771 40.875 82.8438L40.9688 79L38.0938 79.125C37.5729 80.7917 36.8854 82.2292 36.0312 83.4375C35.1771 84.625 34.3542 85.5312 33.5625 86.1562C32.7708 86.7812 32.2604 87.0938 32.0312 87.0938C31.8854 87.0938 31.8125 87.0312 31.8125 86.9062ZM39.0938 65.0625L43 64.8438L42.9062 63.2188L38.9062 63.4375L39.0938 65.0625ZM39.4375 68.2188L43.125 68.0312L43.0625 66.25L39.25 66.4375L39.4375 68.2188ZM40.1875 74.2812C40.1875 74.1979 40.2396 74.1562 40.3438 74.1562C40.4271 74.1562 40.5 74.1667 40.5625 74.1875C40.9792 74.2917 41.3854 74.3438 41.7812 74.3438H42.0625L51.3125 73.9062C51.8958 73.8646 52.3958 73.7708 52.8125 73.625C52.9792 73.5833 53.1042 73.5625 53.1875 73.5625C53.4375 73.5625 53.6875 73.6562 53.9375 73.8438C54.1875 74.0104 54.3958 74.2083 54.5625 74.4375C54.7292 74.6458 54.8125 74.8021 54.8125 74.9062C54.8125 75.0938 54.5729 75.2083 54.0938 75.25L42.6562 75.8125L41.9375 75.8438C41.125 75.8438 40.5729 75.4479 40.2812 74.6562C40.2188 74.4896 40.1875 74.3646 40.1875 74.2812ZM44.6875 64.7812L48.4375 64.5938L48.5 62.9375L44.625 63.125L44.6875 64.7812ZM44.8438 67.9688L48.375 67.7812L48.4062 66L44.75 66.1875L44.8438 67.9688ZM53.875 67.5312L54.125 65.7188L50.0938 65.9062L50.0312 67.7188L53.875 67.5312ZM54.3125 64.3125L54.5312 62.625L50.2188 62.8438L50.1562 64.5L54.3125 64.3125ZM116.531 72C116.198 72 115.99 71.9062 115.906 71.7188C115.802 71.4688 115.698 71.2604 115.594 71.0938C115.49 70.9062 115.302 70.6875 115.031 70.4375L115.094 70.3125C115.844 70.5833 116.333 70.7188 116.562 70.7188C116.729 70.7188 116.854 70.6875 116.938 70.625C117.021 70.5625 117.156 70.4167 117.344 70.1875C117.615 69.8958 117.865 69.4479 118.094 68.8438C118.406 67.9479 118.604 67.0208 118.688 66.0625V65.9688C118.688 65.8438 118.667 65.7604 118.625 65.7188C118.354 65.7188 117.635 65.7812 116.469 65.9062C115.823 67.5104 115.073 68.8333 114.219 69.875C113.385 70.8958 112.625 71.4062 111.938 71.4062C111.771 71.4062 111.688 71.3438 111.688 71.2188C111.688 71.1771 111.896 70.9375 112.312 70.5C112.729 70.0625 113.188 69.4896 113.688 68.7812C114.208 68.0521 114.698 67.1562 115.156 66.0938C115.052 66.0938 114.75 66.1146 114.25 66.1562C113.75 66.1979 113.323 66.2708 112.969 66.375C112.802 66.5 112.625 66.5208 112.438 66.4375C112.438 66.4375 112.417 66.4271 112.375 66.4062C112.333 66.3854 112.292 66.3542 112.25 66.3125C112.104 66.2292 111.979 66.125 111.875 66C111.792 65.8542 111.75 65.7188 111.75 65.5938C111.75 65.5312 111.802 65.4479 111.906 65.3438L112.281 64.8438C112.406 64.6771 112.521 64.4375 112.625 64.125C112.729 63.7917 112.781 63.5104 112.781 63.2812C112.781 63.1354 112.771 63.0417 112.75 63C112.729 62.9583 112.719 62.9062 112.719 62.8438C112.719 62.7396 112.771 62.6875 112.875 62.6875C113 62.6875 113.177 62.7604 113.406 62.9062C113.469 62.9479 113.583 63.0312 113.75 63.1562C113.938 63.2604 114.042 63.3854 114.062 63.5312C114.062 63.6771 113.979 63.9167 113.812 64.25L113.406 64.9688C113.365 65.0312 113.344 65.1042 113.344 65.1875C113.344 65.25 113.365 65.3021 113.406 65.3438C113.469 65.3646 113.542 65.3646 113.625 65.3438L115.5 65.0938C115.708 64.5521 115.875 63.9792 116 63.375V63.1875V62.6562C116 62.4271 116.062 62.3333 116.188 62.375C116.458 62.4375 116.677 62.5208 116.844 62.625C117.156 62.8125 117.312 62.9688 117.312 63.0938C117.312 63.1979 117.271 63.375 117.188 63.625C117.125 63.8542 117.073 64.0312 117.031 64.1562C117.01 64.2396 116.917 64.5104 116.75 64.9688C116.812 64.9688 117.198 64.9271 117.906 64.8438L118.219 64.7812C118.281 64.7812 118.396 64.7604 118.562 64.7188C118.604 64.6979 118.656 64.6875 118.719 64.6875C118.969 64.6875 119.125 64.6979 119.188 64.7188C119.271 64.7396 119.396 64.8021 119.562 64.9062C119.75 65.0312 119.875 65.1562 119.938 65.2812C120 65.4062 120.021 65.5521 120 65.7188L119.812 66.75L119.594 67.875C119.594 67.9583 119.521 68.2292 119.375 68.6875C119.229 69.1458 119.062 69.5521 118.875 69.9062C118.521 70.6146 118.104 71.1458 117.625 71.5C117.208 71.8333 116.844 72 116.531 72ZM112.469 79.0938C112.24 79.0938 111.958 78.9167 111.625 78.5625C111.375 78.3125 111.25 78.125 111.25 78C111.25 77.9375 111.292 77.9062 111.375 77.9062C111.458 77.8854 111.562 77.875 111.688 77.875L112.375 77.8438C112.771 77.8438 113.031 77.8333 113.156 77.8125C113.552 77.8125 113.885 77.8021 114.156 77.7812C115.948 77.6146 117.156 77.4792 117.781 77.375C118.094 77.3333 118.375 77.2917 118.625 77.25C118.875 77.1875 119.073 77.1562 119.219 77.1562C119.51 77.1562 119.802 77.3021 120.094 77.5938C120.323 77.8229 120.438 78.0104 120.438 78.1562C120.438 78.2812 120.365 78.3646 120.219 78.4062C120.115 78.4271 119.5 78.4688 118.375 78.5312C117.75 78.5521 116.979 78.6042 116.062 78.6875C115.146 78.7708 114.344 78.8542 113.656 78.9375C113.531 78.9583 113.354 78.9896 113.125 79.0312C112.896 79.0729 112.677 79.0938 112.469 79.0938ZM121.562 71.2188C121.667 71.2188 121.823 71.2917 122.031 71.4375C122.01 71.4792 122.052 71.5625 122.156 71.6875C122.26 71.7917 122.333 71.8646 122.375 71.9062C122.479 72.0104 122.583 72.1354 122.688 72.2812C122.812 72.4271 122.948 72.5833 123.094 72.75C123.469 73.1458 124.333 74.1771 125.688 75.8438C125.917 76.1771 126.031 76.375 126.031 76.4375C126.031 76.6458 125.906 76.75 125.656 76.75C125.51 76.75 125.354 76.6458 125.188 76.4375C124.792 76.0208 124.083 75.3646 123.062 74.4688C122.271 73.7396 121.552 73.1771 120.906 72.7812C120.594 72.6354 120.438 72.4688 120.438 72.2812C120.438 72.1354 120.594 71.9271 120.906 71.6562C121.198 71.3646 121.417 71.2188 121.562 71.2188ZM91.25 85.9688V86.0312C91.25 86.1979 91.1979 86.3333 91.0938 86.4375C91.0104 86.5417 90.875 86.5938 90.6875 86.5938C90.375 86.5938 90.0521 86.4792 89.7188 86.25C89.3854 86.0417 89.2188 85.8125 89.2188 85.5625V85.4062C89.2188 85.2604 89.2292 85.125 89.25 85C89.2708 84.8958 89.2812 84.7812 89.2812 84.6562L89.25 84.0938L88.9375 77.9062C88.9167 77.6354 88.8646 77.3438 88.7812 77.0312C88.7188 76.6979 88.6562 76.4583 88.5938 76.3125C88.4479 76.0208 88.375 75.8125 88.375 75.6875C88.375 75.5625 88.4688 75.5 88.6562 75.5C88.9271 75.5 89.6042 75.6875 90.6875 76.0625L102.281 75.5312H102.625C102.917 75.5312 103.156 75.6042 103.344 75.75C103.552 75.8958 103.708 76.0625 103.812 76.25C103.917 76.4375 103.969 76.5729 103.969 76.6562C103.969 76.7604 103.938 76.8646 103.875 76.9688C103.812 77.0729 103.771 77.1667 103.75 77.25L103.219 83.5625C103.719 84.2083 103.969 84.6458 103.969 84.875C103.969 85.0208 103.906 85.1042 103.781 85.125C103.656 85.1667 103.448 85.1875 103.156 85.1875L91.2188 85.4375L91.25 85.9688ZM79.7812 85.9688C79.7812 85.7604 79.875 85.4375 80.0625 85C81.125 82.6667 81.9271 80.3958 82.4688 78.1875C83.0104 75.9792 83.3646 73.7188 83.5312 71.4062C83.7188 69.0938 83.8125 66.3125 83.8125 63.0625C83.8125 62.4583 83.8021 62 83.7812 61.6875C83.7604 61.3542 83.6979 61.0312 83.5938 60.7188C83.5104 60.4688 83.4688 60.3125 83.4688 60.25C83.4688 60.1042 83.5417 60.0312 83.6875 60.0312C83.9583 60.0312 84.6771 60.3021 85.8438 60.8438L102.812 59.9062C103.417 59.8854 103.948 59.7812 104.406 59.5938C104.531 59.5312 104.656 59.5 104.781 59.5C105.01 59.5 105.26 59.5938 105.531 59.7812C105.823 59.9688 106.062 60.1771 106.25 60.4062C106.458 60.6354 106.562 60.8021 106.562 60.9062C106.562 61.1771 106.302 61.3333 105.781 61.375L85.8125 62.5C85.8125 64.3333 85.7604 66.2708 85.6562 68.3125C85.5729 70.3542 85.4167 72.0938 85.1875 73.5312C84.7292 76.5104 84.1146 78.9479 83.3438 80.8438C82.5938 82.7188 81.8854 84.0729 81.2188 84.9062C80.5521 85.7604 80.1146 86.1875 79.9062 86.1875C79.8229 86.1875 79.7812 86.1146 79.7812 85.9688ZM85.5625 75.1875C85.5625 74.9792 85.7396 74.6875 86.0938 74.3125C86.7396 73.625 87.4583 72.7604 88.25 71.7188C89.0625 70.6771 89.75 69.6875 90.3125 68.75L88.4062 68.9062H88.1562C87.6979 68.9062 87.3021 68.7812 86.9688 68.5312C86.6562 68.2812 86.5 67.9479 86.5 67.5312C86.5 67.4271 86.5625 67.375 86.6875 67.375L87 67.4375C87.3125 67.5 87.6354 67.5312 87.9688 67.5312H88.1875L90.9375 67.3438C90.9375 66.4896 90.9479 65.8854 90.9688 65.5312C90.3229 65.6771 89.7188 65.8021 89.1562 65.9062C88.5938 66.0104 88.2188 66.0625 88.0312 66.0625C87.6354 66.0625 87.4375 65.9792 87.4375 65.8125C87.4375 65.7292 87.5208 65.6354 87.6875 65.5312C87.8542 65.4062 88.0938 65.3021 88.4062 65.2188C89.3229 64.9479 90.3438 64.5729 91.4688 64.0938C92.6146 63.6146 93.3333 63.1562 93.625 62.7188C93.7292 62.5938 93.8438 62.5312 93.9688 62.5312C94.1771 62.5312 94.375 62.6354 94.5625 62.8438C94.75 63.0312 94.9062 63.25 95.0312 63.5C95.1771 63.7292 95.25 63.8958 95.25 64C95.25 64.2083 95.1771 64.3333 95.0312 64.375C94.0104 64.7292 93.1771 64.9896 92.5312 65.1562V67.25L93.75 67.1562C94.1667 67.1146 94.5104 67.0521 94.7812 66.9688C94.8438 66.9479 94.9271 66.9375 95.0312 66.9375C95.2604 66.9375 95.5312 67.0833 95.8438 67.375C96.1562 67.6458 96.3125 67.875 96.3125 68.0625C96.3125 68.2708 96.1042 68.3854 95.6875 68.4062L92.5312 68.625V69.1875C92.6562 69.0625 92.8021 69 92.9688 69C93.0938 69 93.4062 69.1667 93.9062 69.5C94.4062 69.8125 94.8646 70.1562 95.2812 70.5312C95.7188 70.9062 95.9375 71.1771 95.9375 71.3438C95.9375 71.5521 95.8229 71.7812 95.5938 72.0312C95.3854 72.2812 95.2083 72.4062 95.0625 72.4062C94.9167 72.4062 94.7292 72.2917 94.5 72.0625C93.9167 71.4792 93.2604 70.9062 92.5312 70.3438V74.8438C92.5312 75.2812 92.375 75.5 92.0625 75.5C91.9167 75.5 91.6979 75.4375 91.4062 75.3125C91.1562 75.1875 90.9792 75.0625 90.875 74.9375C90.7917 74.8125 90.75 74.6667 90.75 74.5C90.75 74.3333 90.7604 74.2083 90.7812 74.125C90.8646 73.4583 90.9062 72.9792 90.9062 72.6875L90.9375 71.7188C90.9375 71.3021 90.9792 70.75 91.0625 70.0625C90.8333 70.6042 90.3438 71.3021 89.5938 72.1562C88.8438 72.9896 88.0729 73.7292 87.2812 74.375C86.5104 75.0208 85.9896 75.3438 85.7188 75.3438C85.6146 75.3438 85.5625 75.2917 85.5625 75.1875ZM90.875 79.8438L101.656 79.4688L101.781 77.125L90.75 77.6562L90.875 79.8438ZM91.125 83.8438L101.406 83.5938L101.562 80.9688L90.9688 81.3438L91.125 83.8438ZM94.6875 74.5938C94.6875 74.3854 94.8854 74.0833 95.2812 73.6875C96.9062 72.1042 98.3646 70.3125 99.6562 68.3125L98.0938 68.4375H97.8125C97.4167 68.4375 97.125 68.3646 96.9375 68.2188C96.5833 67.9062 96.3438 67.6042 96.2188 67.3125C96.1771 67.1875 96.1562 67.1146 96.1562 67.0938C96.1562 66.9896 96.2292 66.9375 96.375 66.9375C96.4792 66.9375 96.5625 66.9479 96.625 66.9688C96.9375 67.0521 97.2396 67.0938 97.5312 67.0938L97.875 67.0625L100.312 66.9062L100.375 64.9375C100.292 64.9583 99.8333 65.0625 99 65.25C98.1875 65.4375 97.5729 65.5312 97.1562 65.5312C96.7604 65.5312 96.5625 65.4583 96.5625 65.3125C96.5625 65.2292 96.6562 65.125 96.8438 65C97.0521 64.875 97.3333 64.7604 97.6875 64.6562C98.6042 64.3646 99.6771 63.9792 100.906 63.5C102.135 63 102.896 62.5312 103.188 62.0938C103.292 61.9271 103.417 61.8438 103.562 61.8438C103.833 61.8438 104.115 62.0417 104.406 62.4375C104.719 62.8125 104.875 63.1146 104.875 63.3438C104.875 63.4271 104.844 63.5104 104.781 63.5938C104.74 63.6562 104.698 63.6875 104.656 63.6875C103.615 64.0625 102.698 64.3542 101.906 64.5625C101.885 65.0208 101.875 65.7708 101.875 66.8125L104.094 66.6875C104.323 66.6667 104.667 66.5938 105.125 66.4688C105.188 66.4479 105.281 66.4375 105.406 66.4375C105.635 66.4375 105.917 66.5625 106.25 66.8125C106.583 67.0417 106.75 67.3021 106.75 67.5938C106.75 67.8021 106.51 67.9271 106.031 67.9688L101.875 68.2188V68.9375C102.25 69.0625 102.99 69.4688 104.094 70.1562C105.219 70.8229 106.271 71.4896 107.25 72.1562C107.271 72.1771 107.344 72.2604 107.469 72.4062C107.615 72.5312 107.688 72.6667 107.688 72.8125C107.688 72.9375 107.615 73.1562 107.469 73.4688C107.344 73.7604 107.177 73.9167 106.969 73.9375H106.906C106.74 73.9375 106.552 73.8542 106.344 73.6875C104.76 72.4792 103.271 71.4479 101.875 70.5938L101.844 74.4375C101.844 74.6875 101.812 74.875 101.75 75C101.688 75.125 101.583 75.1875 101.438 75.1875C101.125 75.1875 100.823 75.0729 100.531 74.8438C100.24 74.6146 100.094 74.3646 100.094 74.0938L100.125 73.7812C100.208 73.1146 100.25 72.6354 100.25 72.3438V71.4688C100.25 70.9688 100.312 70.3021 100.438 69.4688C99.9792 70.3021 99.3542 71.125 98.5625 71.9375C97.7708 72.7292 97 73.3958 96.25 73.9375C95.5 74.4583 95.0312 74.7188 94.8438 74.7188C94.7396 74.7188 94.6875 74.6771 94.6875 74.5938ZM167.188 77.5312C166.875 77.5312 166.573 77.3021 166.281 76.8438C165.906 76.2604 165.542 75.7812 165.188 75.4062L164.375 74.5625C163.938 75.0625 163.552 75.4583 163.219 75.75C162.906 76.0417 162.51 76.3229 162.031 76.5938C161.135 77.1146 160.385 77.375 159.781 77.375C159.635 77.375 159.562 77.3229 159.562 77.2188C159.562 77.1562 159.76 77.0208 160.156 76.8125C160.552 76.6042 160.927 76.3542 161.281 76.0625C162.177 75.3125 162.917 74.5417 163.5 73.75C163.375 73.625 162.75 73.0833 161.625 72.125C161.479 72.0208 161.26 71.8438 160.969 71.5938C160.906 71.5521 160.781 71.4583 160.594 71.3125C160.406 71.1667 160.312 71.0625 160.312 71C160.312 70.8958 160.365 70.8438 160.469 70.8438C160.781 70.8438 161.281 71.0625 161.969 71.5C162.656 71.9167 163.375 72.4167 164.125 73C164.417 72.6458 164.646 72.3125 164.812 72C164.979 71.6875 165.167 71.3021 165.375 70.8438C165.479 70.6146 165.542 70.4167 165.562 70.25C165.583 70.0625 165.594 69.9479 165.594 69.9062C165.594 69.6771 165.656 69.5625 165.781 69.5625C165.927 69.5625 166.125 69.6771 166.375 69.9062C166.812 70.3229 167.031 70.6042 167.031 70.75C167.031 70.8333 166.979 70.9271 166.875 71.0312C166.625 71.2812 166.396 71.6146 166.188 72.0312C166.062 72.2812 165.833 72.6354 165.5 73.0938C165.396 73.2188 165.312 73.3333 165.25 73.4375C165.188 73.5417 165.125 73.6354 165.062 73.7188C165.542 74.0729 166.25 74.6771 167.188 75.5312C167.417 75.7396 167.562 75.9375 167.625 76.125C167.708 76.2917 167.75 76.5208 167.75 76.8125C167.75 77.0208 167.698 77.1979 167.594 77.3438C167.49 77.4688 167.354 77.5312 167.188 77.5312ZM173.688 66.0938C173.75 66.0938 173.812 66.125 173.875 66.1875C173.938 66.2292 173.979 66.2917 174 66.375V66.4375C174 66.5833 173.885 66.8646 173.656 67.2812L171.406 71.1875C171.24 71.5417 171.021 71.7188 170.75 71.7188C170.479 71.7188 170.25 71.5521 170.062 71.2188C169.875 70.9479 169.646 70.5417 169.375 70C169.25 69.8125 169.146 69.625 169.062 69.4375C168.979 69.25 168.917 69.1146 168.875 69.0312C168.646 68.6354 168.531 68.3542 168.531 68.1875C168.531 68.1042 168.562 68.0417 168.625 68C168.688 67.9375 168.75 67.9062 168.812 67.9062C169.042 67.9062 169.25 68.0312 169.438 68.2812C169.583 68.4271 169.698 68.5833 169.781 68.75L170.125 69.2188L170.75 69.9375L171.031 69.5C171.323 69 172.01 68.0104 173.094 66.5312C173.323 66.2396 173.521 66.0938 173.688 66.0938ZM131.438 84.7188H130.875C130.458 84.7188 130.135 84.6875 129.906 84.625C129.677 84.5833 129.479 84.5 129.312 84.375C129.104 84.1875 128.885 83.9583 128.656 83.6875C128.427 83.4167 128.312 83.1667 128.312 82.9375C128.312 82.7917 128.385 82.7188 128.531 82.7188C128.615 82.7188 128.677 82.7292 128.719 82.75C129.135 82.8542 129.583 82.9062 130.062 82.9062L130.781 82.875L137.438 82.6875L139.188 73.0625L135.656 73.2188C135.115 73.2604 134.76 73.2812 134.594 73.2812C134.156 73.2812 133.844 73.1875 133.656 73C133.427 72.7708 133.229 72.5 133.062 72.1875C132.896 71.875 132.812 71.6562 132.812 71.5312C132.812 71.3646 132.885 71.2812 133.031 71.2812C133.094 71.2812 133.146 71.2917 133.188 71.3125C133.583 71.4375 134.042 71.5 134.562 71.5L135.438 71.4688L139.5 71.2812L140.781 64.2812L134.438 64.6562C134.208 64.6771 133.906 64.6875 133.531 64.6875C133.031 64.6875 132.708 64.625 132.562 64.5C132.292 64.2917 132.062 64.0417 131.875 63.75C131.708 63.4375 131.625 63.1667 131.625 62.9375C131.625 62.7917 131.698 62.7188 131.844 62.7188L132.031 62.75C132.406 62.8542 132.865 62.9062 133.406 62.9062H133.812L149.781 61.9375C150.177 61.9167 150.646 61.8125 151.188 61.625C151.229 61.6042 151.292 61.5938 151.375 61.5938C151.625 61.5938 151.99 61.7917 152.469 62.1875C152.948 62.5833 153.188 62.9062 153.188 63.1562C153.188 63.4062 152.917 63.5521 152.375 63.5938L143 64.1562L141.688 71.1562L149.406 70.7812H149.594C149.865 70.7812 150.198 70.8646 150.594 71.0312C150.99 71.1979 151.188 71.5104 151.188 71.9688C151.188 72.1354 151.156 72.3021 151.094 72.4688C151.031 72.6146 150.99 72.7083 150.969 72.75L149.969 82.3125L152.969 82.2188C153.323 82.1979 153.844 82.1146 154.531 81.9688C154.656 81.9271 154.76 81.9062 154.844 81.9062C155.073 81.9062 155.333 82.0104 155.625 82.2188C155.938 82.4271 156.208 82.6667 156.438 82.9375C156.667 83.2083 156.781 83.4167 156.781 83.5625C156.781 83.8333 156.562 83.9896 156.125 84.0312H156.031L131.438 84.7188ZM147.938 82.375L148.844 72.5938L141.344 72.9375L139.5 82.625L147.938 82.375ZM209.156 70.2812C208.469 70.0312 208.146 69.7604 208.188 69.4688C208.312 68.5938 208.375 67.5938 208.375 66.4688C208.375 65.9688 208.365 65.6042 208.344 65.375C208.323 65.1042 208.302 64.875 208.281 64.6875C208.26 64.4792 208.26 64.3646 208.281 64.3438C208.365 64.2604 208.469 64.2188 208.594 64.2188C208.781 64.2188 209.01 64.3021 209.281 64.4688C209.573 64.6354 209.719 64.8021 209.719 64.9688C209.719 65.0729 209.708 65.1771 209.688 65.2812C209.667 65.3646 209.656 65.4583 209.656 65.5625L209.469 68.6562C209.469 68.8229 209.531 68.9271 209.656 68.9688H209.812C209.979 68.9688 210.094 68.9583 210.156 68.9375L214.188 68.375V67.5625C214.188 66.5417 214.167 65.75 214.125 65.1875C214.104 64.7083 214.052 64.3229 213.969 64.0312C213.906 63.6979 213.99 63.5312 214.219 63.5312C214.385 63.5312 214.604 63.5938 214.875 63.7188C215.208 63.8854 215.406 64.0312 215.469 64.1562C215.531 64.2604 215.552 64.4271 215.531 64.6562C215.49 65.0312 215.469 65.5938 215.469 66.3438L215.5 68.7188C215.5 69.2188 215.406 69.6146 215.219 69.9062C215.115 70.0312 215.01 70.0938 214.906 70.0938C214.802 70.0938 214.656 70 214.469 69.8125C214.427 69.7708 214.375 69.7083 214.312 69.625C214.25 69.5417 214.188 69.4896 214.125 69.4688C214.062 69.4479 213.979 69.4375 213.875 69.4375C213.396 69.4792 212.24 69.6354 210.406 69.9062C210.094 69.9479 209.844 70.0312 209.656 70.1562C209.448 70.2604 209.312 70.3125 209.25 70.3125L209.156 70.2812ZM212.656 82.9375C212.01 82.9375 211.51 82.9167 211.156 82.875C210.823 82.8333 210.542 82.7083 210.312 82.5C209.917 82.2083 209.646 81.5729 209.5 80.5938L209.406 79.5938C209.406 79.3438 209.385 79.0312 209.344 78.6562C209.01 78.6979 208.771 78.7396 208.625 78.7812C208.583 78.8021 208.51 78.8333 208.406 78.875C208.323 78.8958 208.26 78.9062 208.219 78.9062C208.073 78.9062 207.938 78.8646 207.812 78.7812C207.688 78.6979 207.531 78.5417 207.344 78.3125C207.198 78.125 207.125 78 207.125 77.9375C207.125 77.875 207.198 77.8333 207.344 77.8125C207.49 77.7917 207.688 77.7812 207.938 77.7812C208.292 77.7812 208.75 77.7396 209.312 77.6562L209.281 77.2188C209.281 76.3854 209.229 75.6771 209.125 75.0938L209.094 74.875C209.094 74.5833 209.208 74.4688 209.438 74.5312C209.688 74.6146 209.917 74.7188 210.125 74.8438C210.292 74.9271 210.406 75.0104 210.469 75.0938C210.531 75.1562 210.552 75.25 210.531 75.375L210.438 76.7188V77.5312L213.188 77.25C213.188 77.1042 213.198 76.7604 213.219 76.2188C213.24 75.6562 213.24 75.2917 213.219 75.125C213.219 74.9583 213.198 74.8021 213.156 74.6562C213.135 74.4896 213.115 74.3542 213.094 74.25C213.094 74.0833 213.177 74 213.344 74C213.51 74 213.719 74.0938 213.969 74.2812C214.26 74.4688 214.448 74.6354 214.531 74.7812C214.635 74.9271 214.656 75.1042 214.594 75.3125C214.49 75.6458 214.417 76.0208 214.375 76.4375C214.333 76.8542 214.312 77.1042 214.312 77.1875C214.562 77.1667 214.792 77.1354 215 77.0938C215.208 77.0521 215.344 77.0312 215.406 77.0312C215.573 76.9896 215.771 76.9688 216 76.9688C216.125 76.9896 216.302 77.1146 216.531 77.3438C216.719 77.5938 216.812 77.7917 216.812 77.9375C216.812 78.1458 216.615 78.2292 216.219 78.1875C215.865 78.125 215.51 78.0938 215.156 78.0938C214.802 78.0938 214.5 78.1042 214.25 78.125C214.188 78.875 214.062 79.6146 213.875 80.3438C213.833 80.5104 213.76 80.6562 213.656 80.7812C213.552 80.8854 213.458 80.9375 213.375 80.9375C213.229 80.9375 213.135 80.8854 213.094 80.7812C213.073 80.6562 213.062 80.4688 213.062 80.2188C213.104 79.6771 213.125 79 213.125 78.1875C212.562 78.2292 212.125 78.2708 211.812 78.3125C211.333 78.4167 210.885 78.4792 210.469 78.5C210.448 79.3542 210.49 80.1146 210.594 80.7812C210.656 81.2188 210.781 81.5208 210.969 81.6875C211.094 81.7917 211.24 81.8542 211.406 81.875C211.594 81.8958 211.781 81.9062 211.969 81.9062C212.156 81.9062 212.281 81.9062 212.344 81.9062C212.99 81.9062 213.594 81.875 214.156 81.8125C214.323 81.7917 214.469 81.75 214.594 81.6875C214.74 81.625 214.844 81.5938 214.906 81.5938C215.094 81.5938 215.281 81.6562 215.469 81.7812C215.656 81.9062 215.75 82.0521 215.75 82.2188C215.75 82.3854 215.656 82.5104 215.469 82.5938C215.302 82.6771 215.031 82.75 214.656 82.8125C213.99 82.8958 213.323 82.9375 212.656 82.9375ZM217.562 71.2188C217.667 71.2188 217.823 71.2917 218.031 71.4375C218.01 71.4792 218.052 71.5625 218.156 71.6875C218.26 71.7917 218.333 71.8646 218.375 71.9062C218.479 72.0104 218.583 72.1354 218.688 72.2812C218.812 72.4271 218.948 72.5833 219.094 72.75C219.469 73.1458 220.333 74.1771 221.688 75.8438C221.917 76.1771 222.031 76.375 222.031 76.4375C222.031 76.6458 221.906 76.75 221.656 76.75C221.51 76.75 221.354 76.6458 221.188 76.4375C220.792 76.0208 220.083 75.3646 219.062 74.4688C218.271 73.7396 217.552 73.1771 216.906 72.7812C216.594 72.6354 216.438 72.4688 216.438 72.2812C216.438 72.1354 216.594 71.9271 216.906 71.6562C217.198 71.3646 217.417 71.2188 217.562 71.2188ZM185.406 76.3438C184.885 78.5729 184.062 80.4583 182.938 82C181.812 83.5208 180.344 85.0104 178.531 86.4688C178.094 86.8229 177.74 87 177.469 87C177.323 87 177.25 86.9271 177.25 86.7812C177.25 86.5729 177.417 86.2917 177.75 85.9375C179.479 84.0208 180.792 82.1979 181.688 80.4688C182.604 78.7396 183.229 76.8438 183.562 74.7812C183.917 72.6979 184.094 70.0833 184.094 66.9375V64C184.094 62.8542 183.99 61.9688 183.781 61.3438C183.719 61.1771 183.688 61.0312 183.688 60.9062C183.688 60.7396 183.781 60.6562 183.969 60.6562C184.302 60.6562 185.031 60.9375 186.156 61.5L197.312 60.8438L197.656 60.8125C198.01 60.8125 198.323 60.9583 198.594 61.25C198.865 61.5208 199 61.7604 199 61.9688C199 62.0521 198.969 62.1771 198.906 62.3438C198.844 62.5104 198.812 62.6458 198.812 62.75L198.969 84.4062L199 85.4688C199 85.9062 198.896 86.2708 198.688 86.5625C198.5 86.8542 198.281 87.0625 198.031 87.1875C197.781 87.3333 197.573 87.4062 197.406 87.4062C197.031 87.4062 196.396 87.0833 195.5 86.4375C194.604 85.8125 193.771 85.125 193 84.375C192.229 83.6458 191.844 83.1458 191.844 82.875C191.844 82.75 191.917 82.6875 192.062 82.6875C192.292 82.6875 192.635 82.8229 193.094 83.0938C194.24 83.7812 195.51 84.3646 196.906 84.8438L196.844 75.875L185.406 76.3438ZM196.844 74.1562L196.812 69.2812L186.094 69.6875C186.01 71.9375 185.885 73.5833 185.719 74.625L196.844 74.1562ZM196.812 67.4688L196.781 62.6875L186.219 63.3438L186.156 68L196.812 67.4688ZM263.188 77.5312C262.875 77.5312 262.573 77.3021 262.281 76.8438C261.906 76.2604 261.542 75.7812 261.188 75.4062L260.375 74.5625C259.938 75.0625 259.552 75.4583 259.219 75.75C258.906 76.0417 258.51 76.3229 258.031 76.5938C257.135 77.1146 256.385 77.375 255.781 77.375C255.635 77.375 255.562 77.3229 255.562 77.2188C255.562 77.1562 255.76 77.0208 256.156 76.8125C256.552 76.6042 256.927 76.3542 257.281 76.0625C258.177 75.3125 258.917 74.5417 259.5 73.75C259.375 73.625 258.75 73.0833 257.625 72.125C257.479 72.0208 257.26 71.8438 256.969 71.5938C256.906 71.5521 256.781 71.4583 256.594 71.3125C256.406 71.1667 256.312 71.0625 256.312 71C256.312 70.8958 256.365 70.8438 256.469 70.8438C256.781 70.8438 257.281 71.0625 257.969 71.5C258.656 71.9167 259.375 72.4167 260.125 73C260.417 72.6458 260.646 72.3125 260.812 72C260.979 71.6875 261.167 71.3021 261.375 70.8438C261.479 70.6146 261.542 70.4167 261.562 70.25C261.583 70.0625 261.594 69.9479 261.594 69.9062C261.594 69.6771 261.656 69.5625 261.781 69.5625C261.927 69.5625 262.125 69.6771 262.375 69.9062C262.812 70.3229 263.031 70.6042 263.031 70.75C263.031 70.8333 262.979 70.9271 262.875 71.0312C262.625 71.2812 262.396 71.6146 262.188 72.0312C262.062 72.2812 261.833 72.6354 261.5 73.0938C261.396 73.2188 261.312 73.3333 261.25 73.4375C261.188 73.5417 261.125 73.6354 261.062 73.7188C261.542 74.0729 262.25 74.6771 263.188 75.5312C263.417 75.7396 263.562 75.9375 263.625 76.125C263.708 76.2917 263.75 76.5208 263.75 76.8125C263.75 77.0208 263.698 77.1979 263.594 77.3438C263.49 77.4688 263.354 77.5312 263.188 77.5312ZM269.688 66.0938C269.75 66.0938 269.812 66.125 269.875 66.1875C269.938 66.2292 269.979 66.2917 270 66.375V66.4375C270 66.5833 269.885 66.8646 269.656 67.2812L267.406 71.1875C267.24 71.5417 267.021 71.7188 266.75 71.7188C266.479 71.7188 266.25 71.5521 266.062 71.2188C265.875 70.9479 265.646 70.5417 265.375 70C265.25 69.8125 265.146 69.625 265.062 69.4375C264.979 69.25 264.917 69.1146 264.875 69.0312C264.646 68.6354 264.531 68.3542 264.531 68.1875C264.531 68.1042 264.562 68.0417 264.625 68C264.688 67.9375 264.75 67.9062 264.812 67.9062C265.042 67.9062 265.25 68.0312 265.438 68.2812C265.583 68.4271 265.698 68.5833 265.781 68.75L266.125 69.2188L266.75 69.9375L267.031 69.5C267.323 69 268.01 68.0104 269.094 66.5312C269.323 66.2396 269.521 66.0938 269.688 66.0938ZM227.438 84.7188H226.875C226.458 84.7188 226.135 84.6875 225.906 84.625C225.677 84.5833 225.479 84.5 225.312 84.375C225.104 84.1875 224.885 83.9583 224.656 83.6875C224.427 83.4167 224.312 83.1667 224.312 82.9375C224.312 82.7917 224.385 82.7188 224.531 82.7188C224.615 82.7188 224.677 82.7292 224.719 82.75C225.135 82.8542 225.583 82.9062 226.062 82.9062L226.781 82.875L233.438 82.6875L235.188 73.0625L231.656 73.2188C231.115 73.2604 230.76 73.2812 230.594 73.2812C230.156 73.2812 229.844 73.1875 229.656 73C229.427 72.7708 229.229 72.5 229.062 72.1875C228.896 71.875 228.812 71.6562 228.812 71.5312C228.812 71.3646 228.885 71.2812 229.031 71.2812C229.094 71.2812 229.146 71.2917 229.188 71.3125C229.583 71.4375 230.042 71.5 230.562 71.5L231.438 71.4688L235.5 71.2812L236.781 64.2812L230.438 64.6562C230.208 64.6771 229.906 64.6875 229.531 64.6875C229.031 64.6875 228.708 64.625 228.562 64.5C228.292 64.2917 228.062 64.0417 227.875 63.75C227.708 63.4375 227.625 63.1667 227.625 62.9375C227.625 62.7917 227.698 62.7188 227.844 62.7188L228.031 62.75C228.406 62.8542 228.865 62.9062 229.406 62.9062H229.812L245.781 61.9375C246.177 61.9167 246.646 61.8125 247.188 61.625C247.229 61.6042 247.292 61.5938 247.375 61.5938C247.625 61.5938 247.99 61.7917 248.469 62.1875C248.948 62.5833 249.188 62.9062 249.188 63.1562C249.188 63.4062 248.917 63.5521 248.375 63.5938L239 64.1562L237.688 71.1562L245.406 70.7812H245.594C245.865 70.7812 246.198 70.8646 246.594 71.0312C246.99 71.1979 247.188 71.5104 247.188 71.9688C247.188 72.1354 247.156 72.3021 247.094 72.4688C247.031 72.6146 246.99 72.7083 246.969 72.75L245.969 82.3125L248.969 82.2188C249.323 82.1979 249.844 82.1146 250.531 81.9688C250.656 81.9271 250.76 81.9062 250.844 81.9062C251.073 81.9062 251.333 82.0104 251.625 82.2188C251.938 82.4271 252.208 82.6667 252.438 82.9375C252.667 83.2083 252.781 83.4167 252.781 83.5625C252.781 83.8333 252.562 83.9896 252.125 84.0312H252.031L227.438 84.7188ZM243.938 82.375L244.844 72.5938L237.344 72.9375L235.5 82.625L243.938 82.375ZM305.438 77.8125C305.312 77.8125 305.135 77.7188 304.906 77.5312C304.781 77.4479 304.677 77.3646 304.594 77.2812C304.51 77.1979 304.469 77.125 304.469 77.0625L304.5 76.5625C304.521 76.375 304.531 75.9583 304.531 75.3125C304.51 74.8542 304.5 73.8958 304.5 72.4375C304.5 71.8542 304.448 71.3229 304.344 70.8438C304.344 70.8438 304.302 70.5938 304.219 70.0938V70C304.219 69.8125 304.344 69.7604 304.594 69.8438C304.698 69.8646 304.938 69.9062 305.312 69.9688C305.708 69.9062 307.031 69.75 309.281 69.5C309.594 69.4583 309.844 69.4167 310.031 69.375C310.219 69.3333 310.354 69.3021 310.438 69.2812H310.562C310.792 69.2812 311 69.3958 311.188 69.625C311.521 70.0208 311.656 70.3021 311.594 70.4688C311.51 70.6771 311.427 71.0312 311.344 71.5312C311.302 71.8229 311.25 72.3229 311.188 73.0312V74.4688V76.75C311.188 76.9375 311.094 77.1875 310.906 77.5C310.865 77.6042 310.781 77.6875 310.656 77.75C310.552 77.8125 310.438 77.8438 310.312 77.8438C310.188 77.8438 310.094 77.8125 310.031 77.75C309.99 77.7083 309.948 77.6667 309.906 77.625C309.865 77.5625 309.823 77.5208 309.781 77.5C309.76 77.4792 309.719 77.4688 309.656 77.4688C308.365 77.4688 307.198 77.5521 306.156 77.7188C306.073 77.7396 305.99 77.75 305.906 77.75C305.844 77.75 305.781 77.7604 305.719 77.7812L305.5 77.8125H305.438ZM306.031 76.6562C306.552 76.6354 307.26 76.5729 308.156 76.4688C308.573 76.4271 308.812 76.4062 308.875 76.4062H309.125C309.458 76.4062 309.708 76.4688 309.875 76.5938C310.021 75.5521 310.094 73.6458 310.094 70.875C310.052 70.5625 309.927 70.4062 309.719 70.4062C309.323 70.4062 308.521 70.4792 307.312 70.625C307.188 70.625 307.062 70.6354 306.938 70.6562C306.812 70.6771 306.688 70.6979 306.562 70.7188C306.208 70.7812 305.948 70.8125 305.781 70.8125C305.635 70.8125 305.583 70.8854 305.625 71.0312L305.594 72.0938C305.573 72.2396 305.562 72.375 305.562 72.5C305.583 72.625 305.594 72.7396 305.594 72.8438C305.615 73.0104 305.625 73.2812 305.625 73.6562C305.625 75.2812 305.635 76.1771 305.656 76.3438C305.656 76.4896 305.698 76.5833 305.781 76.625C305.865 76.6667 305.948 76.6771 306.031 76.6562ZM308.344 74.9062C308.115 74.9062 307.938 74.7917 307.812 74.5625C307.375 73.8333 306.969 73.2292 306.594 72.75L306.375 72.4062C306.292 72.2812 306.25 72.1875 306.25 72.125C306.271 72.0417 306.323 72.0104 306.406 72.0312C306.948 72.1979 307.448 72.4688 307.906 72.8438C308.615 73.3854 308.969 73.8021 308.969 74.0938C308.969 74.2396 308.927 74.3854 308.844 74.5312C308.698 74.7812 308.531 74.9062 308.344 74.9062ZM313.562 66.5312C313.667 66.5312 313.823 66.6042 314.031 66.75C314.01 66.7917 314.052 66.875 314.156 67C314.26 67.1042 314.333 67.1771 314.375 67.2188C314.479 67.3229 314.583 67.4479 314.688 67.5938C314.812 67.7396 314.948 67.8958 315.094 68.0625C315.469 68.4583 316.333 69.4896 317.688 71.1562C317.917 71.4896 318.031 71.6875 318.031 71.75C318.031 71.9583 317.906 72.0625 317.656 72.0625C317.51 72.0625 317.354 71.9583 317.188 71.75C316.792 71.3333 316.083 70.6771 315.062 69.7812C314.271 69.0521 313.552 68.4896 312.906 68.0938C312.594 67.9479 312.438 67.7812 312.438 67.5938C312.438 67.4479 312.594 67.2396 312.906 66.9688C313.198 66.6771 313.417 66.5312 313.562 66.5312ZM280.688 85.625V85.7812C280.688 86.3021 280.521 86.5625 280.188 86.5625C280.021 86.5625 279.792 86.5 279.5 86.375C279.208 86.25 278.948 86.0729 278.719 85.8438C278.51 85.6354 278.406 85.4062 278.406 85.1562L278.438 84.9375C278.5 84.5 278.531 84.0208 278.531 83.5V82.875L278.031 64.4062C278.01 64.0729 277.958 63.7188 277.875 63.3438C277.792 62.9479 277.677 62.625 277.531 62.375C277.385 62.0833 277.312 61.875 277.312 61.75C277.312 61.5833 277.427 61.5 277.656 61.5C278.073 61.5 278.844 61.7604 279.969 62.2812L293.75 61.5625H293.969C294.281 61.5625 294.615 61.6875 294.969 61.9375C295.323 62.1667 295.5 62.4375 295.5 62.75C295.5 62.8542 295.479 62.9688 295.438 63.0938C295.396 63.2188 295.365 63.3229 295.344 63.4062L294.469 82C295.052 82.7292 295.344 83.2292 295.344 83.5C295.344 83.6458 295.271 83.7396 295.125 83.7812C294.979 83.8229 294.719 83.8542 294.344 83.875L280.656 84.3438L280.688 85.625ZM280.281 72.0938L292.875 71.4688L293.188 63.4688L280.062 64.1562L280.281 72.0938ZM280.594 82.4688L292.469 82.0938L292.812 73.375L280.344 73.9375L280.594 82.4688Z" fill="#333333"/>
</svg>
