<svg width="350" height="88" viewBox="0 0 350 88" fill="none" xmlns="http://www.w3.org/2000/svg">
<path d="M136.012 14.5977C135.637 14.5977 135.414 14.4102 135.344 14.0352C135.203 13.6367 134.828 13.1445 134.219 12.5586L134.324 12.418C134.418 12.4648 134.688 12.582 135.133 12.7695C135.578 12.9336 135.883 13.0156 136.047 13.0156C136.188 13.0156 136.293 13.0156 136.363 13.0156C136.434 12.9922 136.516 12.9336 136.609 12.8398C136.891 12.6289 137.242 12.1484 137.664 11.3984C137.969 10.7891 138.238 10.0742 138.473 9.25391C138.73 8.43359 138.859 7.8125 138.859 7.39062C138.859 7.27344 138.766 7.21484 138.578 7.21484L137.242 7.28516L136.328 7.35547L135.73 7.39062L135.484 7.42578C135.648 7.54297 135.754 7.64844 135.801 7.74219C135.871 7.8125 135.906 7.90625 135.906 8.02344C135.906 8.14063 135.766 8.46875 135.484 9.00781C135.25 9.52344 134.875 10.1094 134.359 10.7656C133.938 11.3281 133.363 11.9375 132.637 12.5938C131.934 13.2266 131.406 13.5547 131.055 13.5781C130.984 13.5781 130.914 13.5664 130.844 13.543C130.797 13.4961 130.773 13.4375 130.773 13.3672C130.773 13.3438 130.961 13.1211 131.336 12.6992L132.32 11.5391C133.023 10.6016 133.738 9.40625 134.465 7.95312C134.535 7.76562 134.5 7.66016 134.359 7.63672C134.219 7.66016 133.926 7.69531 133.48 7.74219C133.035 7.76562 132.637 7.83594 132.285 7.95312C132.262 7.95312 132.18 7.98828 132.039 8.05859C131.898 8.10547 131.781 8.12891 131.688 8.12891C131.547 8.12891 131.43 8.08203 131.336 7.98828L131.055 7.74219C130.844 7.57813 130.738 7.42578 130.738 7.28516C130.738 7.23828 130.762 7.16797 130.809 7.07422L130.984 6.79297C131.078 6.67578 131.23 6.48828 131.441 6.23047C131.652 5.97266 131.887 5.62109 132.145 5.17578C132.191 5.08203 132.285 4.87109 132.426 4.54297C132.59 4.21484 132.672 4.01562 132.672 3.94531V3.80469C132.672 3.66406 132.695 3.57031 132.742 3.52344C132.789 3.47656 132.895 3.47656 133.059 3.52344C133.223 3.57031 133.422 3.69922 133.656 3.91016L134.043 4.29688C134.113 4.36719 134.148 4.44922 134.148 4.54297C134.148 4.77734 133.82 5.19922 133.164 5.80859C133.047 5.92578 132.906 6.10156 132.742 6.33594C132.578 6.57031 132.496 6.72266 132.496 6.79297C132.496 6.93359 132.602 6.98047 132.812 6.93359L133.621 6.82812C135.473 6.54688 136.867 6.38281 137.805 6.33594L138.754 6.19531L139.07 6.125L139.246 6.08984C139.434 6.08984 139.562 6.11328 139.633 6.16016C139.703 6.20703 139.773 6.28906 139.844 6.40625C139.914 6.5 139.984 6.58203 140.055 6.65234C140.219 6.83984 140.336 7.00391 140.406 7.14453L140.477 7.46094L140.406 7.60156L140.336 7.8125C140.289 7.92969 140.254 8.04687 140.23 8.16406C140.207 8.25781 140.172 8.36328 140.125 8.48047C139.633 10.3789 139.059 11.8555 138.402 12.9102C138.191 13.2852 137.828 13.6602 137.312 14.0352C136.82 14.4102 136.387 14.5977 136.012 14.5977ZM139.211 23.668C138.859 23.668 138.52 23.4102 138.191 22.8945C137.77 22.2383 137.359 21.6992 136.961 21.2773L136.047 20.3281C135.555 20.8906 135.121 21.3359 134.746 21.6641C134.395 21.9922 133.949 22.3086 133.41 22.6133C132.402 23.1992 131.559 23.4922 130.879 23.4922C130.715 23.4922 130.633 23.4336 130.633 23.3164C130.633 23.2461 130.855 23.0938 131.301 22.8594C131.746 22.625 132.168 22.3438 132.566 22.0156C133.574 21.1719 134.406 20.3047 135.062 19.4141C134.922 19.2734 134.219 18.6641 132.953 17.5859C132.789 17.4688 132.543 17.2695 132.215 16.9883C132.145 16.9414 132.004 16.8359 131.793 16.6719C131.582 16.5078 131.477 16.3906 131.477 16.3203C131.477 16.2031 131.535 16.1445 131.652 16.1445C132.004 16.1445 132.566 16.3906 133.34 16.8828C134.113 17.3516 134.922 17.9141 135.766 18.5703C136.094 18.1719 136.352 17.7969 136.539 17.4453C136.727 17.0938 136.938 16.6602 137.172 16.1445C137.289 15.8867 137.359 15.6641 137.383 15.4766C137.406 15.2656 137.418 15.1367 137.418 15.0898C137.418 14.832 137.488 14.7031 137.629 14.7031C137.793 14.7031 138.016 14.832 138.297 15.0898C138.789 15.5586 139.035 15.875 139.035 16.0391C139.035 16.1328 138.977 16.2383 138.859 16.3555C138.578 16.6367 138.32 17.0117 138.086 17.4805C137.945 17.7617 137.688 18.1602 137.312 18.6758C137.195 18.8164 137.102 18.9453 137.031 19.0625C136.961 19.1797 136.891 19.2852 136.82 19.3789C137.359 19.7773 138.156 20.457 139.211 21.418C139.469 21.6523 139.633 21.875 139.703 22.0859C139.797 22.2734 139.844 22.5312 139.844 22.8594C139.844 23.0938 139.785 23.293 139.668 23.457C139.551 23.5977 139.398 23.668 139.211 23.668ZM136.891 27.9922C136.656 28.2969 136.41 28.4492 136.152 28.4492C136.082 28.4492 136.047 28.3906 136.047 28.2734C136.047 28.1094 136.094 27.9219 136.188 27.7109C136.188 27.7109 136.422 27.2422 136.891 26.3047C136.914 26.2109 136.949 26.1172 136.996 26.0234C137.043 25.9297 137.078 25.8477 137.102 25.7773V25.7422C137.102 25.6953 137.066 25.6484 136.996 25.6016C136.926 25.5547 136.844 25.543 136.75 25.5664C136.375 25.5898 135.812 25.6484 135.062 25.7422C134.336 25.8359 133.797 25.9297 133.445 26.0234C133.305 26.0703 133.129 26.1289 132.918 26.1992C132.73 26.2695 132.578 26.3047 132.461 26.3047C132.039 26.3047 131.688 26.1758 131.406 25.918C131.172 25.7539 130.996 25.5898 130.879 25.4258L130.809 25.25C130.809 25.1328 131.008 25.0977 131.406 25.1445C131.945 25.1914 133.059 25.1211 134.746 24.9336L135.449 24.8281C135.637 24.8047 135.93 24.7695 136.328 24.7227C136.75 24.6523 137.078 24.582 137.312 24.5117C137.383 24.4883 137.453 24.4648 137.523 24.4414C137.617 24.3945 137.699 24.3711 137.77 24.3711C137.887 24.3711 138.027 24.4297 138.191 24.5469C138.379 24.6641 138.531 24.7695 138.648 24.8633C138.812 24.9805 138.918 25.0859 138.965 25.1797C139.035 25.25 139.059 25.3438 139.035 25.4609C139.035 25.5781 138.977 25.6836 138.859 25.7773C138.742 25.8711 138.66 25.9414 138.613 25.9883C138.566 26.0586 138.402 26.2344 138.121 26.5156C138.004 26.7031 137.793 26.9609 137.488 27.2891C137.207 27.6172 137.008 27.8516 136.891 27.9922ZM135.133 34.918C135.133 34.8477 135.25 34.6602 135.484 34.3555C135.742 34.0742 135.941 33.8516 136.082 33.6875C136.434 33.2188 136.855 32.5391 137.348 31.6484C137.863 30.7578 138.156 30.1719 138.227 29.8906C138.273 29.75 138.203 29.6797 138.016 29.6797C137.641 29.6797 136.609 29.7852 134.922 29.9961C133.82 30.1367 133 30.2773 132.461 30.418C132.344 30.4883 132.227 30.5234 132.109 30.5234C131.922 30.5234 131.723 30.3945 131.512 30.1367C131.418 29.9727 131.371 29.8203 131.371 29.6797C131.371 29.5859 131.43 29.4922 131.547 29.3984L131.652 29.2578C131.723 29.1172 131.805 28.9297 131.898 28.6953C131.992 28.4609 132.074 28.2383 132.145 28.0273C132.262 27.6523 132.344 27.2422 132.391 26.7969C132.414 26.5391 132.555 26.4688 132.812 26.5859C133.141 26.75 133.387 26.9141 133.551 27.0781C133.738 27.2188 133.797 27.3242 133.727 27.3945C133.492 27.6758 133.305 27.9922 133.164 28.3438C133.047 28.7188 132.977 28.9648 132.953 29.082C132.953 29.1758 133.012 29.2227 133.129 29.2227C133.48 29.2227 134.008 29.1641 134.711 29.0469C135.109 29 135.602 28.9414 136.188 28.8711C136.773 28.8008 137.242 28.7305 137.594 28.6602L138.473 28.4844C138.543 28.4609 138.637 28.4492 138.754 28.4492C138.871 28.4492 138.988 28.4961 139.105 28.5898C139.223 28.6602 139.352 28.7539 139.492 28.8711C139.727 29.082 139.879 29.2578 139.949 29.3984C140.02 29.5156 140.055 29.6562 140.055 29.8203C140.055 29.9141 139.984 30.0312 139.844 30.1719C139.727 30.3125 139.586 30.5352 139.422 30.8398C138.742 32.2227 137.863 33.3828 136.785 34.3203C136.48 34.5547 136.141 34.7539 135.766 34.918C135.602 34.9648 135.449 34.9883 135.309 34.9883C135.191 35.0117 135.133 34.9883 135.133 34.918ZM126.273 33.4414C126.273 34.0039 126.109 34.4492 125.781 34.7773C125.453 35.1289 125.09 35.3047 124.691 35.3047C124.41 35.3047 123.953 35.0469 123.32 34.5312C122.711 34.0156 122.148 33.4531 121.633 32.8438C121.117 32.2344 120.859 31.8242 120.859 31.6133C120.859 31.4492 120.941 31.3672 121.105 31.3672C121.293 31.3672 121.551 31.4609 121.879 31.6484C122.887 32.2109 123.637 32.5742 124.129 32.7383L124.34 23.7734L120.754 23.9492L120.684 33.1602C120.684 33.4414 120.637 33.6523 120.543 33.793C120.473 33.957 120.332 34.0391 120.121 34.0391C119.84 34.0391 119.5 33.9219 119.102 33.6875C118.703 33.4766 118.504 33.207 118.504 32.8789C118.504 32.7617 118.516 32.668 118.539 32.5977C118.656 31.8945 118.715 31.0742 118.715 30.1367L118.785 24.0195L115.867 24.1602L116.008 33.2656C116.008 33.8516 115.809 34.1445 115.41 34.1445C115.129 34.1445 114.777 34.0039 114.355 33.7227C113.957 33.4414 113.758 33.1602 113.758 32.8789V32.668C113.852 32.082 113.898 31.2617 113.898 30.207L113.828 24.2305L110.91 24.3711L111.016 34.2852C111.016 34.8008 110.828 35.0586 110.453 35.0586C109.961 34.9648 109.539 34.8008 109.188 34.5664C108.859 34.3555 108.695 34.0859 108.695 33.7578L108.73 33.4414C108.848 32.668 108.906 31.9883 108.906 31.4023L108.871 24.5117C108.871 23.6211 108.766 22.9414 108.555 22.4727C108.461 22.2383 108.414 22.0859 108.414 22.0156C108.414 21.8516 108.508 21.7695 108.695 21.7695C109.047 21.7695 109.797 22.0625 110.945 22.6484L114.109 22.5078C115 21.1016 115.445 19.9766 115.445 19.1328V18.8867L110.805 19.1328H110.312C109.703 19.1328 109.293 19.0391 109.082 18.8516C108.824 18.6172 108.602 18.3477 108.414 18.043C108.227 17.7383 108.133 17.4922 108.133 17.3047C108.133 17.1172 108.227 17.0234 108.414 17.0234L108.695 17.0938C109.164 17.2344 109.633 17.3047 110.102 17.3047H110.418L123.285 16.5664C123.707 16.543 124.117 16.4727 124.516 16.3555C124.703 16.3086 124.832 16.2852 124.902 16.2852C125.16 16.2852 125.5 16.4727 125.922 16.8477C126.344 17.1992 126.555 17.5273 126.555 17.832C126.555 18.1133 126.262 18.2773 125.676 18.3242L117.098 18.7812C117.52 19.0156 117.73 19.25 117.73 19.4844C117.73 19.625 117.566 19.9883 117.238 20.5742C116.91 21.1602 116.547 21.7695 116.148 22.4023L124.797 21.9805L125.254 21.9453C125.582 21.9453 125.898 22.0625 126.203 22.2969C126.508 22.5312 126.66 22.8125 126.66 23.1406C126.66 23.2344 126.625 23.375 126.555 23.5625C126.508 23.7266 126.484 23.8555 126.484 23.9492L126.273 32.457V33.4414ZM95.125 27.7461C95.125 27.5586 95.2656 27.4648 95.5469 27.4648C96.1094 27.4648 96.7539 27.3828 97.4805 27.2188C98.7461 26.9375 100.082 26.5859 101.488 26.1641C102.402 23.3281 103.035 21.1133 103.387 19.5195C103.738 17.9023 103.914 16.8477 103.914 16.3555C103.914 16.2383 103.891 16.0391 103.844 15.7578C103.82 15.6641 103.809 15.5586 103.809 15.4414C103.809 15.2305 103.891 15.125 104.055 15.125C104.195 15.125 104.441 15.207 104.793 15.3711C105.145 15.5117 105.461 15.6992 105.742 15.9336C106.047 16.168 106.199 16.4375 106.199 16.7422C106.199 16.8594 106.188 16.9414 106.164 16.9883C105.812 18.4414 105.426 19.8125 105.004 21.1016C104.582 22.3672 104.066 23.8555 103.457 25.5664C104.91 25.0977 105.988 24.7344 106.691 24.4766C107.324 24.2656 107.793 24.1602 108.098 24.1602C108.355 24.1602 108.484 24.2188 108.484 24.3359C108.484 24.6406 107.629 25.2266 105.918 26.0938C104.23 26.9375 102.402 27.7578 100.434 28.5547C98.4648 29.3516 97.3047 29.75 96.9531 29.75C96.6953 29.75 96.3906 29.5625 96.0391 29.1875C95.6875 28.8125 95.418 28.4375 95.2305 28.0625C95.1602 27.9219 95.125 27.8164 95.125 27.7461ZM95.5469 13.1914C95.5469 13.0508 95.6406 12.9805 95.8281 12.9805C95.9453 12.9805 96.0508 12.9922 96.1445 13.0156C96.543 13.1094 96.9883 13.1562 97.4805 13.1562H97.9375L104.441 12.7344C104.98 12.7109 105.508 12.6172 106.023 12.4531C106.211 12.3828 106.375 12.3477 106.516 12.3477C106.773 12.3477 107.031 12.4414 107.289 12.6289C107.547 12.8164 107.758 13.0391 107.922 13.2969C108.086 13.5312 108.168 13.707 108.168 13.8242C108.168 14.0586 107.992 14.2109 107.641 14.2812L107.395 14.3164L98.3945 14.9492C98.1836 14.9727 97.9141 14.9844 97.5859 14.9844C97.1172 14.9844 96.7305 14.8672 96.4258 14.6328C96.1211 14.375 95.8984 14.1055 95.7578 13.8242C95.6172 13.5195 95.5469 13.3086 95.5469 13.1914ZM97.7969 16.8477C97.7969 16.5664 97.9375 16.3789 98.2188 16.2852C98.5 16.168 98.7695 16.1094 99.0273 16.1094C99.2148 16.1094 99.3555 16.168 99.4492 16.2852C99.5664 16.4023 99.6719 16.5898 99.7656 16.8477C100.164 17.9492 100.574 19.332 100.996 20.9961C101.418 22.6367 101.629 23.6211 101.629 23.9492C101.629 24.2539 101.465 24.4883 101.137 24.6523C100.832 24.8164 100.527 24.8984 100.223 24.8984C100.035 24.8984 99.8945 24.8398 99.8008 24.7227C99.7305 24.6055 99.6719 24.4062 99.625 24.125C99.1562 21.4531 98.5938 19.2031 97.9375 17.375C97.8438 17.0938 97.7969 16.918 97.7969 16.8477ZM98.9922 7.56641C98.9922 7.37891 99.0859 7.15625 99.2734 6.89844C99.4609 6.64062 99.6367 6.48828 99.8008 6.44141C99.8477 6.41797 99.918 6.40625 100.012 6.40625C100.152 6.40625 100.328 6.47656 100.539 6.61719C100.703 6.71094 101.535 7.21484 103.035 8.12891C104.535 9.01953 105.332 9.67578 105.426 10.0977C105.496 10.3789 105.379 10.6953 105.074 11.0469C104.77 11.375 104.523 11.5625 104.336 11.6094L104.23 11.6445C104.113 11.6445 103.902 11.5391 103.598 11.3281C101.84 9.89844 100.445 8.85547 99.4141 8.19922C99.2969 8.10547 99.1914 8.01172 99.0977 7.91797C99.0273 7.80078 98.9922 7.68359 98.9922 7.56641ZM109.645 7.53125C109.645 7.39062 109.738 7.32031 109.926 7.32031C110.043 7.32031 110.277 7.35547 110.629 7.42578C110.98 7.49609 111.309 7.625 111.613 7.8125C111.941 8 112.105 8.24609 112.105 8.55078V8.62109L111.895 12.8398L115.867 12.4883L115.938 6.16016C115.938 5.55078 115.75 5.01172 115.375 4.54297C115.281 4.42578 115.234 4.32031 115.234 4.22656C115.234 4.10937 115.363 4.05078 115.621 4.05078C116.277 4.05078 116.84 4.16797 117.309 4.40234C117.801 4.61328 118.047 4.90625 118.047 5.28125L117.941 12.3125L122.582 11.9258L122.652 8.69141C122.652 8.01172 122.547 7.47266 122.336 7.07422C122.242 6.91016 122.195 6.76953 122.195 6.65234C122.195 6.53516 122.289 6.47656 122.477 6.47656C122.875 6.47656 123.355 6.58203 123.918 6.79297C124.48 7.00391 124.762 7.35547 124.762 7.84766V7.95312L124.48 14.7734C124.457 15.1016 124.398 15.3477 124.305 15.5117C124.234 15.6523 124.094 15.7227 123.883 15.7227C123.602 15.7227 123.262 15.6055 122.863 15.3711C122.488 15.1133 122.301 14.8086 122.301 14.457C122.301 14.3164 122.312 14.1992 122.336 14.1055L122.441 13.5781L112.246 14.5977C111.988 14.6211 111.719 14.6797 111.438 14.7734C111.156 14.8438 110.957 14.8789 110.84 14.8789C110.629 14.8789 110.383 14.7617 110.102 14.5273C109.844 14.293 109.715 14.0586 109.715 13.8242C109.715 13.7305 109.738 13.5898 109.785 13.4023C109.902 12.8633 109.961 12.418 109.961 12.0664L110.031 9.42969C110.031 8.77344 109.938 8.25781 109.75 7.88281C109.68 7.74219 109.645 7.625 109.645 7.53125ZM193.211 24.7227C192.859 24.7227 192.52 24.4648 192.191 23.9492C191.77 23.293 191.359 22.7539 190.961 22.332L190.047 21.3828C189.555 21.9453 189.121 22.3906 188.746 22.7188C188.395 23.0469 187.949 23.3633 187.41 23.668C186.402 24.2539 185.559 24.5469 184.879 24.5469C184.715 24.5469 184.633 24.4883 184.633 24.3711C184.633 24.3008 184.855 24.1484 185.301 23.9141C185.746 23.6797 186.168 23.3984 186.566 23.0703C187.574 22.2266 188.406 21.3594 189.062 20.4688C188.922 20.3281 188.219 19.7188 186.953 18.6406C186.789 18.5234 186.543 18.3242 186.215 18.043C186.145 17.9961 186.004 17.8906 185.793 17.7266C185.582 17.5625 185.477 17.4453 185.477 17.375C185.477 17.2578 185.535 17.1992 185.652 17.1992C186.004 17.1992 186.566 17.4453 187.34 17.9375C188.113 18.4062 188.922 18.9688 189.766 19.625C190.094 19.2266 190.352 18.8516 190.539 18.5C190.727 18.1484 190.938 17.7148 191.172 17.1992C191.289 16.9414 191.359 16.7188 191.383 16.5312C191.406 16.3203 191.418 16.1914 191.418 16.1445C191.418 15.8867 191.488 15.7578 191.629 15.7578C191.793 15.7578 192.016 15.8867 192.297 16.1445C192.789 16.6133 193.035 16.9297 193.035 17.0938C193.035 17.1875 192.977 17.293 192.859 17.4102C192.578 17.6914 192.32 18.0664 192.086 18.5352C191.945 18.8164 191.688 19.2148 191.312 19.7305C191.195 19.8711 191.102 20 191.031 20.1172C190.961 20.2344 190.891 20.3398 190.82 20.4336C191.359 20.832 192.156 21.5117 193.211 22.4727C193.469 22.707 193.633 22.9297 193.703 23.1406C193.797 23.3281 193.844 23.5859 193.844 23.9141C193.844 24.1484 193.785 24.3477 193.668 24.5117C193.551 24.6523 193.398 24.7227 193.211 24.7227ZM200.523 11.8555C200.594 11.8555 200.664 11.8906 200.734 11.9609C200.805 12.0078 200.852 12.0781 200.875 12.1719V12.2422C200.875 12.4062 200.746 12.7227 200.488 13.1914L197.957 17.5859C197.77 17.9844 197.523 18.1836 197.219 18.1836C196.914 18.1836 196.656 17.9961 196.445 17.6211C196.234 17.3164 195.977 16.8594 195.672 16.25C195.531 16.0391 195.414 15.8281 195.32 15.6172C195.227 15.4062 195.156 15.2539 195.109 15.1602C194.852 14.7148 194.723 14.3984 194.723 14.2109C194.723 14.1172 194.758 14.0469 194.828 14C194.898 13.9297 194.969 13.8945 195.039 13.8945C195.297 13.8945 195.531 14.0352 195.742 14.3164C195.906 14.4805 196.035 14.6562 196.129 14.8438L196.516 15.3711L197.219 16.1797L197.535 15.6875C197.863 15.125 198.637 14.0117 199.855 12.3477C200.113 12.0195 200.336 11.8555 200.523 11.8555ZM167.09 34.8828C167.09 35.375 166.867 35.6211 166.422 35.6211C166.328 35.6211 166.117 35.5742 165.789 35.4805C165.484 35.3867 165.191 35.2227 164.91 34.9883C164.629 34.7539 164.488 34.4375 164.488 34.0391L164.523 33.793C164.617 33.1602 164.664 32.457 164.664 31.6836L164.734 21.8047L153.66 22.4023C153.332 22.4258 152.934 22.4375 152.465 22.4375C151.926 22.4375 151.492 22.2969 151.164 22.0156C150.836 21.7109 150.602 21.3945 150.461 21.0664C150.344 20.7148 150.285 20.457 150.285 20.293C150.285 20.1523 150.367 20.082 150.531 20.082C150.625 20.082 150.707 20.0938 150.777 20.1172C151.41 20.2578 151.973 20.3281 152.465 20.3281H152.746L164.77 19.6602L164.84 11.3281L159.461 11.6445C158.406 13.3789 157.422 14.7617 156.508 15.793C155.594 16.8242 154.832 17.5391 154.223 17.9375C153.637 18.3359 153.285 18.5352 153.168 18.5352C153.051 18.5352 152.992 18.4766 152.992 18.3594C152.992 18.1953 153.121 17.9258 153.379 17.5508C154.434 16.168 155.453 14.5977 156.438 12.8398C157.422 11.082 158.219 9.42969 158.828 7.88281C159.438 6.3125 159.742 5.11719 159.742 4.29688V3.875C159.742 3.59375 159.836 3.45312 160.023 3.45312C160.094 3.45312 160.352 3.53516 160.797 3.69922C161.266 3.86328 161.676 4.07422 162.027 4.33203C162.402 4.56641 162.59 4.80078 162.59 5.03516C162.59 5.31641 162.32 6.01953 161.781 7.14453C161.242 8.24609 160.844 9.04297 160.586 9.53516L172.434 8.79688C172.973 8.75 173.5 8.64453 174.016 8.48047C174.062 8.45703 174.145 8.44531 174.262 8.44531C174.543 8.44531 174.941 8.66797 175.457 9.11328C175.973 9.55859 176.23 9.92188 176.23 10.2031C176.23 10.4844 175.938 10.6484 175.352 10.6953L167.16 11.1875L167.125 19.5547L177.074 18.9922C177.66 18.9453 178.199 18.8398 178.691 18.6758C178.832 18.6289 178.938 18.6055 179.008 18.6055C179.148 18.6055 179.383 18.7109 179.711 18.9219C180.039 19.1328 180.332 19.3789 180.59 19.6602C180.848 19.9414 180.977 20.1992 180.977 20.4336C180.977 20.7383 180.707 20.9141 180.168 20.9609L167.125 21.6641L167.09 34.8828ZM246.121 14.3867C245.957 14.3867 245.781 14.2812 245.594 14.0703C245.453 13.9063 245.359 13.7773 245.312 13.6836C245.266 13.5664 245.266 13.4141 245.312 13.2266L245.348 12.3828C245.371 12.2188 245.383 11.8203 245.383 11.1875V10.0273L244.328 10.5195L243.098 11.0469C242.793 11.1641 242.477 11.3047 242.148 11.4688C241.867 11.6094 241.621 11.6797 241.41 11.6797C241.246 11.6563 241.059 11.5977 240.848 11.5039C240.637 11.4102 240.473 11.3281 240.355 11.2578C240.098 11.0938 239.98 10.918 240.004 10.7305L240.109 10.3789C240.109 10.1914 240.121 10.0273 240.145 9.88672L240.18 7.84766V5.94922C240.18 5.57422 240.156 5.25781 240.109 5C240.062 4.71875 240.027 4.51953 240.004 4.40234C240.004 4.28516 240.039 4.20313 240.109 4.15625C240.133 4.13281 240.191 4.12109 240.285 4.12109C240.449 4.12109 240.766 4.22656 241.234 4.4375C241.633 4.625 241.797 4.85938 241.727 5.14062C241.68 5.30469 241.633 5.55078 241.586 5.87891L241.48 9.92188C241.48 10.0391 241.492 10.1328 241.516 10.2031C241.562 10.25 241.609 10.2734 241.656 10.2734C241.938 10.2734 242.277 10.1914 242.676 10.0273C243.426 9.79297 244.07 9.55859 244.609 9.32422L245.383 9.00781V6.6875C245.383 5.75 245.324 4.84766 245.207 3.98047C245.184 3.91016 245.172 3.82812 245.172 3.73438C245.172 3.5 245.266 3.38281 245.453 3.38281C245.477 3.38281 245.605 3.42969 245.84 3.52344C246.191 3.71094 246.449 3.875 246.613 4.01562C246.777 4.15625 246.871 4.23828 246.895 4.26172C246.988 4.33203 247.035 4.40234 247.035 4.47266C247.035 4.51953 247.012 4.57812 246.965 4.64844C246.941 4.71875 246.918 4.77734 246.895 4.82422L246.789 5.87891L246.754 9.11328L246.789 12.2422C246.789 12.7813 246.754 13.25 246.684 13.6484C246.566 14.1406 246.379 14.3867 246.121 14.3867ZM239.652 20.1523C239.395 20.1523 239.078 19.9531 238.703 19.5547C238.422 19.2734 238.281 19.0625 238.281 18.9219C238.281 18.8516 238.328 18.8164 238.422 18.8164C238.516 18.793 238.633 18.7812 238.773 18.7812L239.547 18.7461C239.992 18.7461 240.285 18.7344 240.426 18.7109C240.871 18.7109 241.246 18.6992 241.551 18.6758C243.566 18.4883 244.926 18.3359 245.629 18.2188C245.98 18.1719 246.297 18.125 246.578 18.0781C246.859 18.0078 247.082 17.9727 247.246 17.9727C247.574 17.9727 247.902 18.1367 248.23 18.4648C248.488 18.7227 248.617 18.9336 248.617 19.0977C248.617 19.2383 248.535 19.332 248.371 19.3789C248.254 19.4023 247.562 19.4492 246.297 19.5195C245.594 19.543 244.727 19.6016 243.695 19.6953C242.664 19.7891 241.762 19.8828 240.988 19.9766C240.848 20 240.648 20.0352 240.391 20.082C240.133 20.1289 239.887 20.1523 239.652 20.1523ZM244.363 34.6719C243.637 34.6719 243.074 34.6484 242.676 34.6016C242.301 34.5547 241.984 34.4141 241.727 34.1797C241.281 33.8516 240.977 33.1367 240.812 32.0352L240.707 30.9102C240.707 30.6289 240.684 30.2773 240.637 29.8555C240.262 29.9023 239.992 29.9492 239.828 29.9961C239.781 30.0195 239.699 30.0547 239.582 30.1016C239.488 30.125 239.418 30.1367 239.371 30.1367C239.207 30.1367 239.055 30.0898 238.914 29.9961C238.773 29.9023 238.598 29.7266 238.387 29.4688C238.223 29.2578 238.141 29.1172 238.141 29.0469C238.141 28.9766 238.223 28.9297 238.387 28.9062C238.551 28.8828 238.773 28.8711 239.055 28.8711C239.453 28.8711 239.969 28.8242 240.602 28.7305L240.566 28.2383C240.566 27.3008 240.508 26.5039 240.391 25.8477L240.355 25.6016C240.355 25.2734 240.484 25.1445 240.742 25.2148C241.023 25.3086 241.281 25.4258 241.516 25.5664C241.703 25.6602 241.832 25.7539 241.902 25.8477C241.973 25.918 241.996 26.0234 241.973 26.1641L241.867 27.6758V28.5898L244.961 28.2734C244.961 28.1094 244.973 27.7227 244.996 27.1133C245.02 26.4805 245.02 26.0703 244.996 25.8828C244.996 25.6953 244.973 25.5195 244.926 25.3555C244.902 25.168 244.879 25.0156 244.855 24.8984C244.855 24.7109 244.949 24.6172 245.137 24.6172C245.324 24.6172 245.559 24.7227 245.84 24.9336C246.168 25.1445 246.379 25.332 246.473 25.4961C246.59 25.6602 246.613 25.8594 246.543 26.0938C246.426 26.4688 246.344 26.8906 246.297 27.3594C246.25 27.8281 246.227 28.1094 246.227 28.2031C246.508 28.1797 246.766 28.1445 247 28.0977C247.234 28.0508 247.387 28.0273 247.457 28.0273C247.645 27.9805 247.867 27.957 248.125 27.957C248.266 27.9805 248.465 28.1211 248.723 28.3789C248.934 28.6602 249.039 28.8828 249.039 29.0469C249.039 29.2812 248.816 29.375 248.371 29.3281C247.973 29.2578 247.574 29.2227 247.176 29.2227C246.777 29.2227 246.438 29.2344 246.156 29.2578C246.086 30.1016 245.945 30.9336 245.734 31.7539C245.688 31.9414 245.605 32.0938 245.488 32.2109C245.371 32.3516 245.266 32.4219 245.172 32.4219C245.008 32.4219 244.902 32.3516 244.855 32.2109C244.832 32.0938 244.82 31.8945 244.82 31.6133C244.867 31.0039 244.891 30.2422 244.891 29.3281C244.258 29.375 243.766 29.4219 243.414 29.4688C242.875 29.5859 242.371 29.6562 241.902 29.6797C241.879 30.6406 241.926 31.4961 242.043 32.2461C242.113 32.7383 242.254 33.0781 242.465 33.2656C242.605 33.3828 242.77 33.4531 242.957 33.4766C243.168 33.5 243.379 33.5117 243.59 33.5117C243.801 33.5117 243.941 33.5117 244.012 33.5117C244.738 33.5117 245.418 33.4766 246.051 33.4062C246.238 33.3828 246.402 33.3359 246.543 33.2656C246.707 33.1953 246.824 33.1602 246.895 33.1602C247.105 33.1602 247.316 33.2305 247.527 33.3711C247.738 33.5117 247.844 33.6758 247.844 33.8633C247.844 34.0508 247.738 34.1914 247.527 34.2852C247.34 34.3789 247.035 34.4609 246.613 34.5312C245.863 34.625 245.113 34.6719 244.363 34.6719ZM254.383 18.6758C254.664 18.6758 254.805 18.8047 254.805 19.0625C254.805 19.2031 254.676 19.4023 254.418 19.6602C253.715 20.5273 252.32 22.1797 250.234 24.6172C250.07 24.8281 249.918 24.9336 249.777 24.9336C249.66 24.9336 249.402 24.7578 249.004 24.4062C248.676 24.125 248.512 23.8906 248.512 23.7031C248.512 23.4922 248.688 23.293 249.039 23.1055C249.578 22.8008 250.387 22.1914 251.465 21.2773C252.543 20.3164 253.34 19.5547 253.855 18.9922C254.066 18.7812 254.242 18.6758 254.383 18.6758ZM209.699 30.1719C211.785 29.5156 213.648 28.8008 215.289 28.0273C214.938 27.5352 214.492 26.9727 213.953 26.3398C213.766 26.1055 213.672 25.918 213.672 25.7773C213.672 25.5195 213.824 25.2969 214.129 25.1094C214.434 24.8984 214.668 24.793 214.832 24.793C215.02 24.793 215.219 24.9102 215.43 25.1445C216.766 26.7148 217.902 28.0977 218.84 29.293C219.777 30.4883 220.246 31.2148 220.246 31.4727C220.246 31.6836 220.082 31.9297 219.754 32.2109C219.449 32.5156 219.156 32.668 218.875 32.668C218.641 32.668 218.406 32.4805 218.172 32.1055C217.633 31.2852 217.023 30.3945 216.344 29.4336L212.125 31.543C211.656 31.7539 210.918 32.1289 209.91 32.668C209.066 33.1133 208.551 33.3359 208.363 33.3359C208.223 33.3359 208.047 33.2422 207.836 33.0547C207.625 32.8906 207.461 32.6797 207.344 32.4219C207.25 32.1875 207.25 32 207.344 31.8594C207.484 31.6016 207.555 30.5703 207.555 28.7656V16.6016C207.555 16.0391 207.531 15.582 207.484 15.2305C207.461 14.8789 207.367 14.5039 207.203 14.1055C207.18 14.0352 207.156 13.9766 207.133 13.9297C207.109 13.8828 207.098 13.8359 207.098 13.7891C207.098 13.6719 207.18 13.6133 207.344 13.6133C207.648 13.6133 208.41 13.8711 209.629 14.3867L217.258 13.8594C217.445 13.8359 217.656 13.8242 217.891 13.8242C218.148 13.8242 218.453 13.9414 218.805 14.1758C219.156 14.3867 219.332 14.6211 219.332 14.8789C219.332 14.9727 219.273 15.1133 219.156 15.3008C219.062 15.4883 219.016 15.6289 219.016 15.7227L218.102 22.332C218.664 22.9883 218.945 23.4336 218.945 23.668C218.945 23.7852 218.875 23.8672 218.734 23.9141C218.617 23.9609 218.43 23.9844 218.172 23.9844L209.664 24.3008L209.699 30.1719ZM203.934 14.3867C203.934 14.1523 204.086 13.8711 204.391 13.543C206.102 11.6445 207.59 9.75781 208.855 7.88281C210.121 6.00781 210.754 4.75391 210.754 4.12109L210.719 3.875V3.76953C210.719 3.44141 210.848 3.27734 211.105 3.27734C211.41 3.27734 211.832 3.48828 212.371 3.91016C212.934 4.30859 213.215 4.63672 213.215 4.89453C213.215 5.01172 213.156 5.16406 213.039 5.35156C212.688 5.91406 212.301 6.47656 211.879 7.03906L216.871 6.65234C217.293 6.62891 217.738 6.53516 218.207 6.37109C218.348 6.32422 218.453 6.30078 218.523 6.30078C218.875 6.30078 219.25 6.5 219.648 6.89844C220.07 7.27344 220.281 7.56641 220.281 7.77734C220.281 8.05859 220.023 8.22266 219.508 8.26953L213.496 8.69141C213.66 8.73828 214.023 8.98438 214.586 9.42969C215.172 9.875 215.699 10.332 216.168 10.8008C216.637 11.2695 216.871 11.5977 216.871 11.7852C216.871 11.9961 216.73 12.2539 216.449 12.5586C216.168 12.8398 215.922 12.9805 215.711 12.9805C215.523 12.9805 215.301 12.8281 215.043 12.5234C214.246 11.6563 213.438 10.8945 212.617 10.2383C212.336 10.0039 212.195 9.80469 212.195 9.64062C212.195 9.52344 212.254 9.37109 212.371 9.18359C212.488 8.99609 212.641 8.84375 212.828 8.72656L210.473 8.90234C209.348 10.2852 208.105 11.5859 206.746 12.8047C205.387 14 204.52 14.5977 204.145 14.5977C204.004 14.5977 203.934 14.5273 203.934 14.3867ZM216.59 18.043L216.836 15.582L209.594 16.0742V18.3945L216.59 18.043ZM216.133 22.4023L216.414 19.6953L209.629 20.0117V22.6484L216.133 22.4023ZM218.031 12.875C218.031 12.6406 218.184 12.3594 218.488 12.0312C219.637 10.6484 220.68 9.08984 221.617 7.35547C222.578 5.59766 223.059 4.36719 223.059 3.66406V3.52344C223.059 3.17188 223.188 2.99609 223.445 2.99609C223.609 2.99609 223.855 3.08984 224.184 3.27734C224.535 3.44141 224.852 3.64063 225.133 3.875C225.414 4.10937 225.555 4.34375 225.555 4.57812C225.555 4.78906 225.391 5.16406 225.062 5.70312C224.734 6.24219 224.559 6.52344 224.535 6.54688L231.461 5.98438C231.977 5.9375 232.422 5.85547 232.797 5.73828C232.844 5.71484 232.938 5.70312 233.078 5.70312C233.406 5.70312 233.758 5.89063 234.133 6.26562C234.531 6.61719 234.73 6.91016 234.73 7.14453C234.73 7.28516 234.66 7.40234 234.52 7.49609C234.402 7.56641 234.238 7.61328 234.027 7.63672L226.891 8.12891C227.547 8.55078 228.32 9.17187 229.211 9.99219C230.102 10.7891 230.547 11.3281 230.547 11.6094C230.547 11.7734 230.418 12.0312 230.16 12.3828C229.902 12.7109 229.656 12.875 229.422 12.875C229.234 12.875 229.035 12.7578 228.824 12.5234C227.676 11.2812 226.633 10.2969 225.695 9.57031C225.461 9.38281 225.344 9.20703 225.344 9.04297C225.344 8.85547 225.52 8.57422 225.871 8.19922L223.27 8.375C222.496 9.40625 221.559 10.4492 220.457 11.5039C219.379 12.5586 218.652 13.0859 218.277 13.0859C218.113 13.0859 218.031 13.0156 218.031 12.875ZM221.336 13.6484C221.336 13.5078 221.418 13.4375 221.582 13.4375C221.934 13.4375 222.73 13.7305 223.973 14.3164L231.039 13.7188L231.32 13.6836C231.414 13.6836 231.59 13.7305 231.848 13.8242C232.129 13.8945 232.387 14.0234 232.621 14.2109C232.879 14.375 233.008 14.5977 233.008 14.8789C233.008 14.9727 232.973 15.1016 232.902 15.2656C232.832 15.4297 232.797 15.5469 232.797 15.6172C232.773 18.1953 232.609 20.9492 232.305 23.8789L232.234 24.7578C232.164 25.7422 232.07 26.5625 231.953 27.2188C231.836 27.875 231.637 28.3906 231.355 28.7656C230.91 29.375 230.43 29.6797 229.914 29.6797C229.398 29.6797 228.742 29.3633 227.945 28.7305C227.148 28.0977 226.41 27.4062 225.73 26.6562C225.074 25.9062 224.746 25.4258 224.746 25.2148C224.746 25.0508 224.84 24.9688 225.027 24.9688C225.238 24.9688 225.531 25.0859 225.906 25.3203C226.773 25.8594 227.5 26.293 228.086 26.6211C228.672 26.9492 229.094 27.1133 229.352 27.1133C229.469 27.1133 229.551 27.0312 229.598 26.8672C230.137 23.8672 230.465 20.1055 230.582 15.582L223.973 16.0742C223.973 20.0352 224.008 26.3164 224.078 34.918C224.078 35.1289 224.02 35.2812 223.902 35.375C223.809 35.4922 223.68 35.5508 223.516 35.5508C223.328 35.5508 223.105 35.4805 222.848 35.3398C222.402 35.1523 222.086 34.9766 221.898 34.8125C221.711 34.6484 221.617 34.4609 221.617 34.25L221.652 34.0039C221.793 33.2305 221.863 32.3633 221.863 31.4023L221.758 16.5664C221.758 15.957 221.734 15.4883 221.688 15.1602C221.664 14.832 221.594 14.5156 221.477 14.2109C221.383 13.9297 221.336 13.7422 221.336 13.6484Z" fill="#333333"/>
<path d="M135.312 67.75C135.292 67.75 135.219 67.7708 135.094 67.8125C134.99 67.8333 134.938 67.8021 134.938 67.7188C134.938 67.6979 134.979 67.6562 135.062 67.5938C135.146 67.5104 135.219 67.4375 135.281 67.375C135.344 67.3125 135.438 67.2292 135.562 67.125C135.688 67 135.781 66.875 135.844 66.75C136.156 66.2292 136.375 65.7083 136.5 65.1875L136.688 64.0938C136.833 63.2812 136.896 62.3333 136.875 61.25C136.875 61 136.844 60.7396 136.781 60.4688C136.76 60.3438 136.656 60.1667 136.469 59.9375V59.9062C136.469 59.8646 136.521 59.8438 136.625 59.8438C136.771 59.8438 136.896 59.8542 137 59.875C137.271 59.9375 137.573 59.9688 137.906 59.9688C138.26 59.9479 138.479 59.9375 138.562 59.9375L140.656 59.7812C141.073 59.7396 141.344 59.7188 141.469 59.7188C142.365 59.5938 142.771 59.5417 142.688 59.5625C143.167 59.4792 143.458 59.4375 143.562 59.4375C143.896 59.4583 144.229 59.7188 144.562 60.2188L144.625 60.375C144.625 60.5 144.531 60.5729 144.344 60.5938C144.156 60.6146 144.042 60.625 144 60.625C143.354 60.625 142.875 60.6354 142.562 60.6562C141.771 60.6562 141.188 60.6667 140.812 60.6875L139.938 60.75L138.156 60.9375C138.031 62.6875 137.917 63.8333 137.812 64.375C137.646 65.3542 137.323 66.1458 136.844 66.75C136.49 67.2083 135.979 67.5417 135.312 67.75ZM143.188 76.5938C142.875 76.5938 142.573 76.3646 142.281 75.9062C141.906 75.3229 141.542 74.8438 141.188 74.4688L140.375 73.625C139.938 74.125 139.552 74.5208 139.219 74.8125C138.906 75.1042 138.51 75.3854 138.031 75.6562C137.135 76.1771 136.385 76.4375 135.781 76.4375C135.635 76.4375 135.562 76.3854 135.562 76.2812C135.562 76.2188 135.76 76.0833 136.156 75.875C136.552 75.6667 136.927 75.4167 137.281 75.125C138.177 74.375 138.917 73.6042 139.5 72.8125C139.375 72.6875 138.75 72.1458 137.625 71.1875C137.479 71.0833 137.26 70.9062 136.969 70.6562C136.906 70.6146 136.781 70.5208 136.594 70.375C136.406 70.2292 136.312 70.125 136.312 70.0625C136.312 69.9583 136.365 69.9062 136.469 69.9062C136.781 69.9062 137.281 70.125 137.969 70.5625C138.656 70.9792 139.375 71.4792 140.125 72.0625C140.417 71.7083 140.646 71.375 140.812 71.0625C140.979 70.75 141.167 70.3646 141.375 69.9062C141.479 69.6771 141.542 69.4792 141.562 69.3125C141.583 69.125 141.594 69.0104 141.594 68.9688C141.594 68.7396 141.656 68.625 141.781 68.625C141.927 68.625 142.125 68.7396 142.375 68.9688C142.812 69.3854 143.031 69.6667 143.031 69.8125C143.031 69.8958 142.979 69.9896 142.875 70.0938C142.625 70.3438 142.396 70.6771 142.188 71.0938C142.062 71.3438 141.833 71.6979 141.5 72.1562C141.396 72.2812 141.312 72.3958 141.25 72.5C141.188 72.6042 141.125 72.6979 141.062 72.7812C141.542 73.1354 142.25 73.7396 143.188 74.5938C143.417 74.8021 143.562 75 143.625 75.1875C143.708 75.3542 143.75 75.5833 143.75 75.875C143.75 76.0833 143.698 76.2604 143.594 76.4062C143.49 76.5312 143.354 76.5938 143.188 76.5938ZM140.031 86.5312C139.885 86.5312 139.781 86.4896 139.719 86.4062C139.656 86.3229 139.615 86.2708 139.594 86.25C139.385 85.9583 139.292 85.6771 139.312 85.4062C139.333 85.2396 139.365 84.7917 139.406 84.0625L139.438 82.5625C139.417 82.3333 139.396 82.1979 139.375 82.1562C139.354 82.0938 139.26 81.9688 139.094 81.7812C138.76 81.3646 138.375 80.9375 137.938 80.5C137.438 80 137.115 79.6667 136.969 79.5C136.969 79.5 136.656 79.1875 136.031 78.5625C135.969 78.5 135.938 78.4375 135.938 78.375C135.938 78.2708 136 78.1875 136.125 78.125C136.271 78.0417 136.417 78.0104 136.562 78.0312C136.979 78.0729 137.25 78.125 137.375 78.1875C137.521 78.2292 137.656 78.3542 137.781 78.5625C137.906 78.7708 138.083 79.0208 138.312 79.3125C138.562 79.5833 138.75 79.7917 138.875 79.9375C139.396 80.5625 139.76 80.9792 139.969 81.1875C140.344 80.75 140.812 80.125 141.375 79.3125C141.833 78.7292 142.104 78.25 142.188 77.875C142.271 77.6042 142.396 77.4688 142.562 77.4688C142.646 77.4688 142.771 77.5208 142.938 77.625C143.479 77.9583 143.75 78.2292 143.75 78.4375C143.75 78.5625 143.615 78.7188 143.344 78.9062C142.969 79.1771 142.656 79.4792 142.406 79.8125L141.781 80.5938C141.365 81.0938 141.052 81.4896 140.844 81.7812C140.74 81.9688 140.688 82.2396 140.688 82.5938V84.5V85.75C140.708 85.8958 140.625 86.0625 140.438 86.25C140.271 86.4375 140.135 86.5312 140.031 86.5312ZM149.562 72.1562C149.812 72.1562 149.938 72.2708 149.938 72.5C149.938 72.625 149.823 72.8021 149.594 73.0312C148.969 73.8021 147.729 75.2708 145.875 77.4375C145.729 77.625 145.594 77.7188 145.469 77.7188C145.365 77.7188 145.135 77.5625 144.781 77.25C144.49 77 144.344 76.7917 144.344 76.625C144.344 76.4375 144.5 76.2604 144.812 76.0938C145.292 75.8229 146.01 75.2812 146.969 74.4688C147.927 73.6146 148.635 72.9375 149.094 72.4375C149.281 72.25 149.438 72.1562 149.562 72.1562ZM128.688 60.5938C128.688 60.1354 128.531 59.6667 128.219 59.1875C128.135 59.0417 128.094 58.9271 128.094 58.8438C128.094 58.6562 128.229 58.5625 128.5 58.5625C128.792 58.5625 129.198 58.6562 129.719 58.8438C130.156 59.0104 130.438 59.1667 130.562 59.3125C130.688 59.4375 130.75 59.6146 130.75 59.8438L130.688 84.6875L130.719 85.5312C130.719 86.1146 130.562 86.5625 130.25 86.875C129.938 87.1875 129.615 87.3438 129.281 87.3438C128.948 87.3438 128.323 87.0312 127.406 86.4062C126.51 85.8021 125.667 85.1458 124.875 84.4375C124.083 83.7292 123.688 83.2604 123.688 83.0312C123.688 82.8854 123.781 82.8125 123.969 82.8125C124.177 82.8125 124.427 82.8854 124.719 83.0312C126.177 83.8021 127.479 84.375 128.625 84.75L128.688 60.5938ZM104.312 69.0938C104.312 68.9479 104.406 68.875 104.594 68.875H104.656L105.188 68.9062C105.5 68.9062 105.844 68.875 106.219 68.8125L109.438 68.3438C108.979 66.0104 108.667 63.4375 108.5 60.625C108.458 60.0625 108.198 59.5833 107.719 59.1875C107.615 59.125 107.562 59.0521 107.562 58.9688C107.562 58.8438 107.76 58.7812 108.156 58.7812C108.99 58.7812 109.552 58.8854 109.844 59.0938C110.135 59.3021 110.281 59.5 110.281 59.6875V59.75C110.281 61 110.365 62.2708 110.531 63.5625C110.698 64.8333 110.927 66.3333 111.219 68.0625L116.938 67.1875C117.271 67.125 117.583 67.0312 117.875 66.9062C118 66.8438 118.115 66.8125 118.219 66.8125C118.51 66.8125 118.823 66.9792 119.156 67.3125C119.51 67.625 119.688 67.875 119.688 68.0625C119.688 68.3125 119.417 68.4896 118.875 68.5938L111.531 69.75C111.781 71 112.062 72.1667 112.375 73.25C112.688 74.3333 113.146 75.6458 113.75 77.1875C114.604 76.1875 115.333 75.125 115.938 74C116.562 72.875 116.875 72.0625 116.875 71.5625L116.844 71.0312C116.844 70.6771 116.948 70.5 117.156 70.5C117.26 70.5 117.469 70.5938 117.781 70.7812C118.094 70.9688 118.375 71.1979 118.625 71.4688C118.875 71.7188 119 71.9792 119 72.25C119 72.3958 118.802 72.8542 118.406 73.625C118.01 74.3958 117.479 75.2812 116.812 76.2812C116.146 77.2604 115.406 78.1979 114.594 79.0938C115.094 80.0729 115.646 80.9375 116.25 81.6875C116.875 82.4375 117.656 83.1979 118.594 83.9688C118.656 84.0312 118.729 84.0625 118.812 84.0625C119.042 84.0625 119.302 83.5521 119.594 82.5312C119.906 81.5104 120.198 80.2708 120.469 78.8125C120.51 78.4792 120.583 78.2292 120.688 78.0625C120.792 77.875 120.906 77.7812 121.031 77.7812C121.156 77.7812 121.26 77.875 121.344 78.0625C121.448 78.25 121.5 78.5104 121.5 78.8438V78.9688C121.5 81.0312 121.281 82.9688 120.844 84.7812C120.698 85.3438 120.531 85.7604 120.344 86.0312C120.156 86.3229 119.875 86.4688 119.5 86.4688C119.104 86.4688 118.583 86.2708 117.938 85.875C117.292 85.5 116.562 84.8646 115.75 83.9688C114.938 83.0521 114.135 81.8542 113.344 80.375C112.385 81.375 111.281 82.3229 110.031 83.2188C108.802 84.1146 107.667 84.8438 106.625 85.4062C105.583 85.9896 104.917 86.2812 104.625 86.2812C104.438 86.2812 104.344 86.2083 104.344 86.0625C104.344 85.875 104.49 85.6771 104.781 85.4688C106.281 84.3854 107.708 83.25 109.062 82.0625C110.438 80.875 111.583 79.75 112.5 78.6875C112.208 78.1042 111.792 77.0521 111.25 75.5312C110.708 74.0104 110.208 72.1771 109.75 70.0312L106.5 70.5C106.208 70.5417 106.01 70.5625 105.906 70.5625C105.573 70.5625 105.292 70.4479 105.062 70.2188C104.833 69.9896 104.604 69.6771 104.375 69.2812L104.312 69.0938ZM112.469 61.4688C112.469 61.2812 112.583 61.0833 112.812 60.875C113.062 60.6458 113.271 60.5312 113.438 60.5312C113.625 60.5312 114.073 60.8438 114.781 61.4688C115.49 62.0938 116.156 62.7604 116.781 63.4688C117.427 64.1562 117.75 64.5938 117.75 64.7812C117.75 65.0312 117.604 65.2917 117.312 65.5625C117.042 65.8125 116.812 65.9375 116.625 65.9375C116.417 65.9375 116.188 65.7604 115.938 65.4062C115.125 64.3021 114.104 63.1979 112.875 62.0938C112.604 61.8438 112.469 61.6354 112.469 61.4688ZM122.188 64.25C122.188 64.0833 122.302 64 122.531 64C122.781 64 123.156 64.0938 123.656 64.2812C124.073 64.4271 124.333 64.5625 124.438 64.6875C124.562 64.8125 124.625 65.0104 124.625 65.2812L124.719 78.375C124.719 78.875 124.51 79.125 124.094 79.125C123.74 79.125 123.396 79 123.062 78.75C122.729 78.4792 122.562 78.1562 122.562 77.7812C122.562 77.6146 122.573 77.4896 122.594 77.4062C122.677 77.0104 122.719 76.4583 122.719 75.75L122.688 65.9375C122.688 65.4583 122.562 65.0208 122.312 64.625C122.229 64.4792 122.188 64.3542 122.188 64.25ZM188.531 68.25C188.198 68.25 187.99 68.1562 187.906 67.9688C187.802 67.7188 187.698 67.5104 187.594 67.3438C187.49 67.1562 187.302 66.9375 187.031 66.6875L187.094 66.5625C187.844 66.8333 188.333 66.9688 188.562 66.9688C188.729 66.9688 188.854 66.9375 188.938 66.875C189.021 66.8125 189.156 66.6667 189.344 66.4375C189.615 66.1458 189.865 65.6979 190.094 65.0938C190.406 64.1979 190.604 63.2708 190.688 62.3125V62.2188C190.688 62.0938 190.667 62.0104 190.625 61.9688C190.354 61.9688 189.635 62.0312 188.469 62.1562C187.823 63.7604 187.073 65.0833 186.219 66.125C185.385 67.1458 184.625 67.6562 183.938 67.6562C183.771 67.6562 183.688 67.5938 183.688 67.4688C183.688 67.4271 183.896 67.1875 184.312 66.75C184.729 66.3125 185.188 65.7396 185.688 65.0312C186.208 64.3021 186.698 63.4062 187.156 62.3438C187.052 62.3438 186.75 62.3646 186.25 62.4062C185.75 62.4479 185.323 62.5208 184.969 62.625C184.802 62.75 184.625 62.7708 184.438 62.6875C184.438 62.6875 184.417 62.6771 184.375 62.6562C184.333 62.6354 184.292 62.6042 184.25 62.5625C184.104 62.4792 183.979 62.375 183.875 62.25C183.792 62.1042 183.75 61.9688 183.75 61.8438C183.75 61.7812 183.802 61.6979 183.906 61.5938L184.281 61.0938C184.406 60.9271 184.521 60.6875 184.625 60.375C184.729 60.0417 184.781 59.7604 184.781 59.5312C184.781 59.3854 184.771 59.2917 184.75 59.25C184.729 59.2083 184.719 59.1562 184.719 59.0938C184.719 58.9896 184.771 58.9375 184.875 58.9375C185 58.9375 185.177 59.0104 185.406 59.1562C185.469 59.1979 185.583 59.2812 185.75 59.4062C185.938 59.5104 186.042 59.6354 186.062 59.7812C186.062 59.9271 185.979 60.1667 185.812 60.5L185.406 61.2188C185.365 61.2812 185.344 61.3542 185.344 61.4375C185.344 61.5 185.365 61.5521 185.406 61.5938C185.469 61.6146 185.542 61.6146 185.625 61.5938L187.5 61.3438C187.708 60.8021 187.875 60.2292 188 59.625V59.4375V58.9062C188 58.6771 188.062 58.5833 188.188 58.625C188.458 58.6875 188.677 58.7708 188.844 58.875C189.156 59.0625 189.312 59.2188 189.312 59.3438C189.312 59.4479 189.271 59.625 189.188 59.875C189.125 60.1042 189.073 60.2812 189.031 60.4062C189.01 60.4896 188.917 60.7604 188.75 61.2188C188.812 61.2188 189.198 61.1771 189.906 61.0938L190.219 61.0312C190.281 61.0312 190.396 61.0104 190.562 60.9688C190.604 60.9479 190.656 60.9375 190.719 60.9375C190.969 60.9375 191.125 60.9479 191.188 60.9688C191.271 60.9896 191.396 61.0521 191.562 61.1562C191.75 61.2812 191.875 61.4062 191.938 61.5312C192 61.6562 192.021 61.8021 192 61.9688L191.812 63L191.594 64.125C191.594 64.2083 191.521 64.4792 191.375 64.9375C191.229 65.3958 191.062 65.8021 190.875 66.1562C190.521 66.8646 190.104 67.3958 189.625 67.75C189.208 68.0833 188.844 68.25 188.531 68.25ZM191.188 76.5938C190.875 76.5938 190.573 76.3646 190.281 75.9062C189.906 75.3229 189.542 74.8438 189.188 74.4688L188.375 73.625C187.938 74.125 187.552 74.5208 187.219 74.8125C186.906 75.1042 186.51 75.3854 186.031 75.6562C185.135 76.1771 184.385 76.4375 183.781 76.4375C183.635 76.4375 183.562 76.3854 183.562 76.2812C183.562 76.2188 183.76 76.0833 184.156 75.875C184.552 75.6667 184.927 75.4167 185.281 75.125C186.177 74.375 186.917 73.6042 187.5 72.8125C187.375 72.6875 186.75 72.1458 185.625 71.1875C185.479 71.0833 185.26 70.9062 184.969 70.6562C184.906 70.6146 184.781 70.5208 184.594 70.375C184.406 70.2292 184.312 70.125 184.312 70.0625C184.312 69.9583 184.365 69.9062 184.469 69.9062C184.781 69.9062 185.281 70.125 185.969 70.5625C186.656 70.9792 187.375 71.4792 188.125 72.0625C188.417 71.7083 188.646 71.375 188.812 71.0625C188.979 70.75 189.167 70.3646 189.375 69.9062C189.479 69.6771 189.542 69.4792 189.562 69.3125C189.583 69.125 189.594 69.0104 189.594 68.9688C189.594 68.7396 189.656 68.625 189.781 68.625C189.927 68.625 190.125 68.7396 190.375 68.9688C190.812 69.3854 191.031 69.6667 191.031 69.8125C191.031 69.8958 190.979 69.9896 190.875 70.0938C190.625 70.3438 190.396 70.6771 190.188 71.0938C190.062 71.3438 189.833 71.6979 189.5 72.1562C189.396 72.2812 189.312 72.3958 189.25 72.5C189.188 72.6042 189.125 72.6979 189.062 72.7812C189.542 73.1354 190.25 73.7396 191.188 74.5938C191.417 74.8021 191.562 75 191.625 75.1875C191.708 75.3542 191.75 75.5833 191.75 75.875C191.75 76.0833 191.698 76.2604 191.594 76.4062C191.49 76.5312 191.354 76.5938 191.188 76.5938ZM184.281 85.9375C183.969 85.9375 183.729 85.8542 183.562 85.6875C183.375 85.5 183.281 85.3333 183.281 85.1875C183.281 85.0417 183.365 84.8854 183.531 84.7188C183.552 84.6979 183.667 84.5312 183.875 84.2188C184.333 83.4896 184.854 82.5625 185.438 81.4375C186.042 80.2917 186.417 79.5104 186.562 79.0938C186.688 78.6979 186.802 78.3542 186.906 78.0625C187.031 77.7708 187.135 77.625 187.219 77.625C187.365 77.625 187.49 77.6771 187.594 77.7812C187.698 77.8646 187.802 77.9896 187.906 78.1562C188.031 78.3021 188.125 78.4062 188.188 78.4688C188.333 78.6354 188.406 78.7917 188.406 78.9375C188.406 79.0417 188.365 79.1458 188.281 79.25C188.198 79.3542 188.146 79.4271 188.125 79.4688L186.75 81.7812C186.396 82.4271 185.927 83.2292 185.344 84.1875C185.26 84.2917 185.219 84.3958 185.219 84.5C185.219 84.5833 185.312 84.625 185.5 84.625C185.896 84.625 186.635 84.5729 187.719 84.4688C188.802 84.3854 189.531 84.3125 189.906 84.25C190.448 84.1875 190.823 84.125 191.031 84.0625C191.26 84 191.594 84.1562 192.031 84.5312C192.552 84.9688 192.667 85.25 192.375 85.375C192.208 85.4583 191.885 85.5 191.406 85.5H190.156C189.885 85.5 189.458 85.5208 188.875 85.5625C188.521 85.5625 188.125 85.5729 187.688 85.5938C187.25 85.6146 186.885 85.6354 186.594 85.6562C186.26 85.6771 185.615 85.7396 184.656 85.8438L184.281 85.9375ZM197.562 72.1562C197.812 72.1562 197.938 72.2708 197.938 72.5C197.938 72.625 197.823 72.8021 197.594 73.0312C196.969 73.8021 195.729 75.2708 193.875 77.4375C193.729 77.625 193.594 77.7188 193.469 77.7188C193.365 77.7188 193.135 77.5625 192.781 77.25C192.49 77 192.344 76.7917 192.344 76.625C192.344 76.4375 192.5 76.2604 192.812 76.0938C193.292 75.8229 194.01 75.2812 194.969 74.4688C195.927 73.6146 196.635 72.9375 197.094 72.4375C197.281 72.25 197.438 72.1562 197.562 72.1562ZM181.375 79.75C181.375 80.5833 181.302 81.7812 181.156 83.3438C181.073 84.1146 180.812 84.6771 180.375 85.0312C179.938 85.4062 179.208 85.6458 178.188 85.75C177.188 85.875 175.615 85.9375 173.469 85.9375C172.26 85.9375 171.135 85.9062 170.094 85.8438C168.531 85.7188 167.75 84.8125 167.75 83.125L167.781 70.7188C167.781 70.0938 167.708 69.6354 167.562 69.3438C167.479 69.1771 167.438 69.0625 167.438 69C167.438 68.8958 167.521 68.8438 167.688 68.8438C168.062 68.8438 168.75 69.0521 169.75 69.4688L175.375 69.2188L175.812 66.6875L170 66.9375C169.896 66.9375 169.74 66.9583 169.531 67C169.344 67.0417 169.198 67.0625 169.094 67.0625C168.844 67.0625 168.583 66.9896 168.312 66.8438C168.042 66.6771 167.906 66.5 167.906 66.3125C167.906 66.25 167.917 66.1771 167.938 66.0938C167.958 66.0104 167.969 65.9167 167.969 65.8125L168.094 60.125C168.094 59.8333 168.062 59.5833 168 59.375C167.958 59.1667 167.833 58.9375 167.625 58.6875C167.562 58.5833 167.531 58.5104 167.531 58.4688C167.531 58.3229 167.688 58.25 168 58.25C168.396 58.25 168.854 58.3229 169.375 58.4688C169.917 58.5938 170.177 58.8958 170.156 59.375L170.062 61.6875L175.844 61.3125C176.323 61.2917 176.708 61.2188 177 61.0938C177.167 61.0521 177.292 61.0312 177.375 61.0312C177.646 61.0312 177.948 61.1979 178.281 61.5312C178.615 61.8646 178.781 62.1458 178.781 62.375C178.781 62.5833 178.542 62.7083 178.062 62.75L170 63.1875L169.938 65.4062L176.438 65.0625L176.844 65.0312C177.01 65.0312 177.26 65.1354 177.594 65.3438C177.948 65.5521 178.125 65.7812 178.125 66.0312C178.125 66.1354 178.073 66.2708 177.969 66.4375C177.865 66.5833 177.812 66.6771 177.812 66.7188L177.281 69.2812C177.74 69.8021 177.969 70.1562 177.969 70.3438C177.969 70.4688 177.885 70.5521 177.719 70.5938C177.573 70.6354 177.323 70.6667 176.969 70.6875L169.75 71V73.1562L175.094 72.9062C175.594 72.8646 176 72.8021 176.312 72.7188C176.479 72.6771 176.594 72.6562 176.656 72.6562C176.948 72.6562 177.25 72.8125 177.562 73.125C177.875 73.4375 178.031 73.6875 178.031 73.875C178.031 74.0833 177.781 74.2083 177.281 74.25L169.719 74.5938V76.5312L175.031 76.2812C175.594 76.2396 176.042 76.1667 176.375 76.0625C176.438 76.0417 176.521 76.0312 176.625 76.0312C176.854 76.0312 177.135 76.1979 177.469 76.5312C177.802 76.8438 177.969 77.0833 177.969 77.25C177.969 77.4583 177.719 77.5833 177.219 77.625L169.719 77.9375L169.688 79.9062L175.5 79.6875C176 79.6458 176.406 79.5833 176.719 79.5C176.844 79.4583 176.938 79.4375 177 79.4375C177.271 79.4375 177.562 79.6042 177.875 79.9375C178.188 80.25 178.344 80.5 178.344 80.6875C178.344 80.8958 178.125 81.0208 177.688 81.0625L169.688 81.375V82.6875C169.688 83.1667 169.771 83.5 169.938 83.6875C170.125 83.8542 170.448 83.9583 170.906 84C171.365 84.0417 172.229 84.0625 173.5 84.0625C175.146 84.0625 176.635 83.9792 177.969 83.8125C178.469 83.75 178.833 83.625 179.062 83.4375C179.312 83.2292 179.521 82.8125 179.688 82.1875C179.875 81.5625 180.073 80.5417 180.281 79.125C180.344 78.7083 180.427 78.3854 180.531 78.1562C180.656 77.9271 180.781 77.8125 180.906 77.8125C181.031 77.8125 181.135 77.9375 181.219 78.1875C181.323 78.4375 181.375 78.7812 181.375 79.2188V79.75ZM152.25 68.4688C152.25 68.3438 152.323 68.2812 152.469 68.2812L152.656 68.3125C153.073 68.375 153.427 68.4062 153.719 68.4062H154.094L160.5 68.0938C161.042 67.2604 161.49 66.4688 161.844 65.7188C162.219 64.9479 162.417 64.3438 162.438 63.9062C162.479 63.6562 162.573 63.5312 162.719 63.5312C162.969 63.5312 163.292 63.6875 163.688 64C164.104 64.2917 164.312 64.5417 164.312 64.75C164.312 64.875 164.188 65.1354 163.938 65.5312C163.688 65.9271 163.125 66.75 162.25 68L164.125 67.9375C164.458 67.9375 164.812 67.875 165.188 67.75C165.375 67.6875 165.531 67.6562 165.656 67.6562C165.885 67.6562 166.094 67.75 166.281 67.9375C166.49 68.1042 166.656 68.3021 166.781 68.5312C166.906 68.7604 166.969 68.9167 166.969 69C166.969 69.2083 166.74 69.3333 166.281 69.375L154.312 69.9375H153.906C153.427 69.9375 153.104 69.8542 152.938 69.6875C152.479 69.2292 152.25 68.8229 152.25 68.4688ZM153.156 86.5625C153.156 86.3125 153.229 86.0625 153.375 85.8125C154 84.625 154.469 83.5521 154.781 82.5938C155.115 81.6354 155.365 80.5104 155.531 79.2188C155.698 77.9062 155.781 76.25 155.781 74.25C155.781 73.4583 155.76 72.875 155.719 72.5C155.698 72.1042 155.646 71.8125 155.562 71.625C155.438 71.375 155.375 71.2188 155.375 71.1562C155.375 71.1146 155.396 71.0729 155.438 71.0312C155.5 70.9896 155.573 70.9688 155.656 70.9688C156.198 70.9688 156.812 71.1458 157.5 71.5L163.562 71.2188H163.875C164.25 71.2188 164.552 71.3229 164.781 71.5312C165.01 71.7396 165.125 71.9583 165.125 72.1875C165.125 72.2917 165.094 72.4271 165.031 72.5938C164.99 72.7604 164.969 72.875 164.969 72.9375L165 84L165.031 85C165.031 85.4167 164.875 85.7708 164.562 86.0625C164.25 86.375 163.885 86.5312 163.469 86.5312C163.177 86.5312 162.917 86.4583 162.688 86.3125C161.479 85.6667 160.354 84.8229 159.312 83.7812C158.979 83.4479 158.812 83.1875 158.812 83C158.812 82.8542 158.906 82.7812 159.094 82.7812C159.281 82.7812 159.562 82.875 159.938 83.0625C160.958 83.6042 162.021 84.0417 163.125 84.375V79.4062C162.417 79.8229 161.51 80.2188 160.406 80.5938C159.302 80.9479 158.521 81.125 158.062 81.125C157.604 81.125 157.271 80.8854 157.062 80.4062C156.792 81.6146 156.427 82.7083 155.969 83.6875C155.531 84.6458 155.073 85.3958 154.594 85.9375C154.115 86.4792 153.708 86.7604 153.375 86.7812H153.312C153.208 86.7812 153.156 86.7083 153.156 86.5625ZM153.656 62.2188C153.656 62.0938 153.719 62.0312 153.844 62.0312L154.156 62.0938C154.448 62.1562 154.76 62.1875 155.094 62.1875H155.406L160.25 61.9375C159.646 61.2083 158.875 60.4583 157.938 59.6875C157.812 59.5833 157.75 59.4792 157.75 59.375C157.75 59.2708 157.844 59.1042 158.031 58.875C158.219 58.625 158.396 58.5 158.562 58.5C158.708 58.5 159.062 58.7083 159.625 59.125C160.188 59.5417 160.708 59.9896 161.188 60.4688C161.667 60.9271 161.906 61.2396 161.906 61.4062C161.906 61.5521 161.854 61.7083 161.75 61.875L163.438 61.7812C163.979 61.7396 164.396 61.6771 164.688 61.5938C164.854 61.5521 164.99 61.5312 165.094 61.5312C165.406 61.5312 165.719 61.6979 166.031 62.0312C166.344 62.3438 166.5 62.6146 166.5 62.8438C166.5 62.9688 166.427 63.0521 166.281 63.0938C166.156 63.1354 165.958 63.1667 165.688 63.1875L155.906 63.6875H155.469C154.969 63.6875 154.625 63.6146 154.438 63.4688C154.229 63.3229 154.042 63.125 153.875 62.875C153.729 62.6042 153.656 62.3854 153.656 62.2188ZM155.688 64.75C155.688 64.5625 155.854 64.375 156.188 64.1875C156.375 64.0625 156.552 64 156.719 64C156.927 64 157.219 64.2292 157.594 64.6875C157.99 65.125 158.354 65.6146 158.688 66.1562C159.042 66.6979 159.219 67.0104 159.219 67.0938C159.219 67.2812 159.094 67.4792 158.844 67.6875C158.594 67.875 158.354 67.9688 158.125 67.9688C157.875 67.9688 157.635 67.7917 157.406 67.4375C156.906 66.5625 156.406 65.8125 155.906 65.1875C155.76 65 155.688 64.8542 155.688 64.75ZM157.312 79.2812C157.938 79.2812 158.771 79.1771 159.812 78.9688L163.094 78.3438V72.7812L157.594 73.0312L157.562 74.9375C157.667 74.875 157.792 74.8438 157.938 74.8438L158.312 74.9062C159.854 75.1354 161.052 75.3646 161.906 75.5938C162.385 75.7396 162.625 76 162.625 76.375C162.604 76.5833 162.51 76.7917 162.344 77C162.198 77.1875 162.01 77.2708 161.781 77.25C161.594 77.25 161.302 77.1875 160.906 77.0625C160.531 76.9375 160.052 76.8021 159.469 76.6562C158.885 76.5104 158.333 76.3958 157.812 76.3125L157.531 76.2188C157.448 77.7188 157.365 78.7396 157.281 79.2812H157.312ZM232.406 72.1562C232.094 72.1562 231.812 72.0312 231.562 71.7812C231.25 71.5521 231.094 71.375 231.094 71.25C231.094 71.1042 231.333 71.0312 231.812 71.0312L233.344 70.9375L234.906 70.7812C234.948 70.4479 234.969 69.8125 234.969 68.875C235.031 68.875 234.708 68.9167 234 69L233.406 69.0938C233.219 69.1771 233.052 69.2188 232.906 69.2188C232.781 69.2188 232.677 69.1771 232.594 69.0938C232.26 68.8021 232.094 68.5521 232.094 68.3438V66.875C232.094 66.7292 232.042 66.1667 231.938 65.1875L231.906 64.8438C231.906 64.6771 231.938 64.5729 232 64.5312C232.062 64.4896 232.177 64.4896 232.344 64.5312C232.969 64.6979 233.271 64.8854 233.25 65.0938L233.219 65.3125C233.177 65.6042 233.156 65.9792 233.156 66.4375C233.156 66.9792 233.167 67.3229 233.188 67.4688C233.229 67.8854 233.25 68.0833 233.25 68.0625C233.271 68.1458 233.344 68.1875 233.469 68.1875C233.594 68.1875 233.844 68.1562 234.219 68.0938C234.615 68.0104 234.875 67.9583 235 67.9375V65.1875C235 64.4167 234.969 63.8958 234.906 63.625C234.865 63.4167 234.844 63.3021 234.844 63.2812C234.844 63.1354 234.896 63.0625 235 63.0625C235.042 63.0625 235.188 63.1042 235.438 63.1875C235.833 63.375 236.094 63.5417 236.219 63.6875C236.365 63.8333 236.417 63.9896 236.375 64.1562C236.312 64.3646 236.271 64.7812 236.25 65.4062C236.208 65.9062 236.167 66.7188 236.125 67.8438L237.188 67.8125C237.396 67.8125 237.552 67.8021 237.656 67.7812C237.76 67.7604 237.812 67.7188 237.812 67.6562C237.958 66.8646 238.052 66.1771 238.094 65.5938L238.125 65.2188C238.146 65.1771 238.146 65.1042 238.125 65C238.125 64.8958 238.125 64.8229 238.125 64.7812L238.094 64.5625C238.094 64.375 238.167 64.2812 238.312 64.2812C238.396 64.2812 238.573 64.3646 238.844 64.5312C238.906 64.5729 238.99 64.6354 239.094 64.7188C239.219 64.7812 239.302 64.8542 239.344 64.9375C239.385 65 239.406 65.0833 239.406 65.1875C239.406 65.3125 239.396 65.4167 239.375 65.5L239.031 67.25L238.938 67.9688C238.854 68.4479 238.604 68.7083 238.188 68.75C238.062 68.7292 237.958 68.6979 237.875 68.6562C237.812 68.6146 237.76 68.5938 237.719 68.5938C237.469 68.5938 236.948 68.6458 236.156 68.75L236.125 70.6875L236.656 70.6562L237.156 70.625C237.927 70.625 238.5 70.5833 238.875 70.5C239.042 70.5 239.188 70.4792 239.312 70.4375L239.406 70.4062C239.615 70.4062 239.833 70.5521 240.062 70.8438C240.333 71.1146 240.469 71.3125 240.469 71.4375C240.469 71.625 240.177 71.6875 239.594 71.625L238.406 71.5625H236.844C236.531 71.5625 235.958 71.6042 235.125 71.6875C234.688 71.6875 234.292 71.7083 233.938 71.75C233.583 71.7917 233.25 71.8646 232.938 71.9688L232.406 72.1562ZM239.812 82.3438C239.792 82.3646 239.74 82.375 239.656 82.375C239.49 82.375 239.25 82.2604 238.938 82.0312C238.229 81.3229 237.302 80.4479 236.156 79.4062C235.615 79.9479 235.104 80.4167 234.625 80.8125C234.458 80.9375 234.167 81.125 233.75 81.375C233.146 81.7292 232.562 81.9479 232 82.0312H231.812C231.625 82.0312 231.51 82.0104 231.469 81.9688C231.448 81.9479 231.49 81.9062 231.594 81.8438C231.719 81.7812 231.812 81.7292 231.875 81.6875C232 81.625 232.354 81.3958 232.938 81C233.229 80.7917 233.646 80.4375 234.188 79.9375C234.729 79.4375 235.125 79.0312 235.375 78.7188L234.094 77.7188C233.865 77.5521 233.615 77.375 233.344 77.1875C233.094 76.9792 232.917 76.8438 232.812 76.7812L232.781 76.6875C232.781 76.5625 232.885 76.5 233.094 76.5C233.344 76.5 233.75 76.6562 234.312 76.9688L235.906 78C236.26 77.5417 236.615 77.0417 236.969 76.5C237.344 75.9375 237.542 75.6042 237.562 75.5C237.583 75.4375 237.573 75.3854 237.531 75.3438C237.51 75.2812 237.469 75.25 237.406 75.25H236.781L235.656 75.3438C235.094 75.3854 234.531 75.4583 233.969 75.5625C233.906 75.5833 233.802 75.6146 233.656 75.6562C233.51 75.6979 233.385 75.7188 233.281 75.7188C233.24 75.7188 233.062 75.6042 232.75 75.375C232.458 75.125 232.302 74.9688 232.281 74.9062C232.26 74.8854 232.25 74.8542 232.25 74.8125C232.25 74.7083 232.365 74.6667 232.594 74.6875C232.823 74.6875 232.969 74.6875 233.031 74.6875C233.615 74.6875 234.458 74.6354 235.562 74.5312L236.625 74.4375L237.594 74.3125C237.906 74.2292 238.083 74.1875 238.125 74.1875H238.188C238.292 74.1875 238.385 74.2188 238.469 74.2812C238.552 74.3438 238.615 74.4062 238.656 74.4688C238.698 74.5312 238.729 74.5729 238.75 74.5938C238.771 74.6146 238.833 74.6771 238.938 74.7812C239.042 74.8646 239.104 74.9479 239.125 75.0312C239.167 75.0938 239.188 75.1667 239.188 75.25C239.188 75.4375 239.115 75.5729 238.969 75.6562C238.865 75.6979 238.677 75.9167 238.406 76.3125C237.948 77.0417 237.396 77.8229 236.75 78.6562C237.104 78.8854 237.562 79.2188 238.125 79.6562C238.375 79.8229 238.781 80.1042 239.344 80.5C239.594 80.6875 239.781 80.9375 239.906 81.25C239.99 81.5833 240.031 81.8333 240.031 82C240.01 82.1667 239.938 82.2812 239.812 82.3438ZM209.719 74.25C209.469 77.1667 208.781 79.5417 207.656 81.375C206.531 83.1875 205.01 84.75 203.094 86.0625C202.594 86.375 202.24 86.5312 202.031 86.5312C201.885 86.5312 201.812 86.4688 201.812 86.3438C201.812 86.1354 202.021 85.8229 202.438 85.4062C203.75 84.0938 204.76 82.8333 205.469 81.625C206.198 80.3958 206.708 79.2188 207 78.0938C207.312 76.9688 207.531 75.7083 207.656 74.3125L203.156 74.5312C202.865 74.5521 202.51 74.5625 202.094 74.5625C201.615 74.5625 201.198 74.4688 200.844 74.2812C200.49 74.0729 200.229 73.625 200.062 72.9375C200.042 72.8958 200.031 72.8333 200.031 72.75C200.031 72.6042 200.104 72.5312 200.25 72.5312C200.312 72.5312 200.365 72.5417 200.406 72.5625C201.073 72.7083 201.677 72.7812 202.219 72.7812H202.562L207.781 72.5312C207.844 71.1771 207.875 69.8125 207.875 68.4375C207.875 67.3542 207.865 66.4896 207.844 65.8438C207.823 65.1771 207.781 64.7292 207.719 64.5C207.677 64.25 207.594 63.9688 207.469 63.6562C207.365 63.4062 207.312 63.2292 207.312 63.125C207.312 62.9792 207.417 62.9062 207.625 62.9062C207.938 62.9062 208.74 63.1354 210.031 63.5938L211.531 63.5C212.406 62.2292 213.01 61.2812 213.344 60.6562C213.677 60.0104 213.844 59.4792 213.844 59.0625L213.812 58.5938V58.5312C213.812 58.3229 213.927 58.2188 214.156 58.2188C214.365 58.2188 214.604 58.2917 214.875 58.4375C215.167 58.5625 215.385 58.6979 215.531 58.8438C215.969 59.1354 216.188 59.4271 216.188 59.7188C216.188 59.8021 216.167 59.8854 216.125 59.9688C215.25 61.3646 214.458 62.4896 213.75 63.3438L220.438 62.9062L220.75 62.875C221.104 62.875 221.438 63.0104 221.75 63.2812C222.062 63.5312 222.219 63.75 222.219 63.9375C222.219 64.0208 222.188 64.1354 222.125 64.2812C222.062 64.4271 222.031 64.5208 222.031 64.5625L222 71.875L224.938 71.75C225.375 71.7292 225.812 71.6458 226.25 71.5C226.708 71.3542 227.031 71.25 227.219 71.1875C227.281 71.1667 227.365 71.1562 227.469 71.1562C227.781 71.1562 228.177 71.375 228.656 71.8125C229.156 72.25 229.406 72.625 229.406 72.9375C229.406 73.1875 229.198 73.3333 228.781 73.375L222 73.6875L221.969 83.9688C221.969 84.2812 221.979 84.5417 222 84.75C222.021 84.9792 222.031 85.1771 222.031 85.3438C222.031 85.7188 221.927 86.0312 221.719 86.2812C221.51 86.5521 221.271 86.75 221 86.875C220.729 87 220.5 87.0625 220.312 87.0625C219.896 87.0625 219.177 86.75 218.156 86.125C217.156 85.5208 216.229 84.8542 215.375 84.125C214.521 83.4167 214.094 82.9062 214.094 82.5938C214.094 82.4688 214.177 82.4062 214.344 82.4062C214.573 82.4062 214.885 82.5104 215.281 82.7188C216.156 83.1771 216.958 83.5521 217.688 83.8438C218.438 84.1354 219.219 84.375 220.031 84.5625L220.062 73.7812L209.719 74.25ZM220.062 71.9688L220.094 64.5938L209.875 65.2188C209.917 67.1771 209.938 68.6667 209.938 69.6875C209.938 70.9167 209.917 71.8333 209.875 72.4375L220.062 71.9688ZM211.844 76.4375C211.844 76.25 211.938 76.0312 212.125 75.7812C212.312 75.5104 212.531 75.375 212.781 75.375C213.052 75.375 213.698 75.7292 214.719 76.4375C215.76 77.1458 216.75 77.9062 217.688 78.7188C217.875 78.8646 217.969 79.0312 217.969 79.2188C217.969 79.2812 217.906 79.4271 217.781 79.6562C217.677 79.8646 217.542 80.0625 217.375 80.25C217.229 80.4167 217.062 80.5 216.875 80.5C216.688 80.5 216.479 80.3854 216.25 80.1562C215.708 79.6354 215.188 79.1875 214.688 78.8125C214.188 78.4167 213.542 77.9479 212.75 77.4062L212.188 77C211.958 76.8125 211.844 76.625 211.844 76.4375ZM211.844 67.0938C211.844 66.9062 211.938 66.6875 212.125 66.4375C212.312 66.1667 212.531 66.0312 212.781 66.0312C213.052 66.0312 213.698 66.3854 214.719 67.0938C215.76 67.8021 216.75 68.5625 217.688 69.375C217.875 69.5208 217.969 69.6875 217.969 69.875C217.969 69.9375 217.906 70.0833 217.781 70.3125C217.677 70.5208 217.542 70.7188 217.375 70.9062C217.229 71.0729 217.062 71.1562 216.875 71.1562C216.688 71.1562 216.479 71.0417 216.25 70.8125C215.708 70.2917 215.188 69.8438 214.688 69.4688C214.188 69.0729 213.542 68.6042 212.75 68.0625L212.188 67.6562C211.958 67.4688 211.844 67.2812 211.844 67.0938Z" fill="#333333"/>
</svg>
