<svg width="350" height="36" viewBox="0 0 350 36" fill="none" xmlns="http://www.w3.org/2000/svg">
<path d="M82.0117 14.5977C81.6367 14.5977 81.4141 14.4102 81.3438 14.0352C81.2031 13.6367 80.8281 13.1445 80.2188 12.5586L80.3242 12.418C80.418 12.4648 80.6875 12.582 81.1328 12.7695C81.5781 12.9336 81.8828 13.0156 82.0469 13.0156C82.1875 13.0156 82.293 13.0156 82.3633 13.0156C82.4336 12.9922 82.5156 12.9336 82.6094 12.8398C82.8906 12.6289 83.2422 12.1484 83.6641 11.3984C83.9688 10.7891 84.2383 10.0742 84.4727 9.25391C84.7305 8.43359 84.8594 7.8125 84.8594 7.39062C84.8594 7.27344 84.7656 7.21484 84.5781 7.21484L83.2422 7.28516L82.3281 7.35547L81.7305 7.39062L81.4844 7.42578C81.6484 7.54297 81.7539 7.64844 81.8008 7.74219C81.8711 7.8125 81.9062 7.90625 81.9062 8.02344C81.9062 8.14063 81.7656 8.46875 81.4844 9.00781C81.25 9.52344 80.875 10.1094 80.3594 10.7656C79.9375 11.3281 79.3633 11.9375 78.6367 12.5938C77.9336 13.2266 77.4062 13.5547 77.0547 13.5781C76.9844 13.5781 76.9141 13.5664 76.8438 13.543C76.7969 13.4961 76.7734 13.4375 76.7734 13.3672C76.7734 13.3438 76.9609 13.1211 77.3359 12.6992L78.3203 11.5391C79.0234 10.6016 79.7383 9.40625 80.4648 7.95312C80.5352 7.76562 80.5 7.66016 80.3594 7.63672C80.2188 7.66016 79.9258 7.69531 79.4805 7.74219C79.0352 7.76562 78.6367 7.83594 78.2852 7.95312C78.2617 7.95312 78.1797 7.98828 78.0391 8.05859C77.8984 8.10547 77.7812 8.12891 77.6875 8.12891C77.5469 8.12891 77.4297 8.08203 77.3359 7.98828L77.0547 7.74219C76.8438 7.57813 76.7383 7.42578 76.7383 7.28516C76.7383 7.23828 76.7617 7.16797 76.8086 7.07422L76.9844 6.79297C77.0781 6.67578 77.2305 6.48828 77.4414 6.23047C77.6523 5.97266 77.8867 5.62109 78.1445 5.17578C78.1914 5.08203 78.2852 4.87109 78.4258 4.54297C78.5898 4.21484 78.6719 4.01562 78.6719 3.94531V3.80469C78.6719 3.66406 78.6953 3.57031 78.7422 3.52344C78.7891 3.47656 78.8945 3.47656 79.0586 3.52344C79.2227 3.57031 79.4219 3.69922 79.6562 3.91016L80.043 4.29688C80.1133 4.36719 80.1484 4.44922 80.1484 4.54297C80.1484 4.77734 79.8203 5.19922 79.1641 5.80859C79.0469 5.92578 78.9062 6.10156 78.7422 6.33594C78.5781 6.57031 78.4961 6.72266 78.4961 6.79297C78.4961 6.93359 78.6016 6.98047 78.8125 6.93359L79.6211 6.82812C81.4727 6.54688 82.8672 6.38281 83.8047 6.33594L84.7539 6.19531L85.0703 6.125L85.2461 6.08984C85.4336 6.08984 85.5625 6.11328 85.6328 6.16016C85.7031 6.20703 85.7734 6.28906 85.8438 6.40625C85.9141 6.5 85.9844 6.58203 86.0547 6.65234C86.2188 6.83984 86.3359 7.00391 86.4062 7.14453L86.4766 7.46094L86.4062 7.60156L86.3359 7.8125C86.2891 7.92969 86.2539 8.04687 86.2305 8.16406C86.207 8.25781 86.1719 8.36328 86.125 8.48047C85.6328 10.3789 85.0586 11.8555 84.4023 12.9102C84.1914 13.2852 83.8281 13.6602 83.3125 14.0352C82.8203 14.4102 82.3867 14.5977 82.0117 14.5977ZM85.2109 23.668C84.8594 23.668 84.5195 23.4102 84.1914 22.8945C83.7695 22.2383 83.3594 21.6992 82.9609 21.2773L82.0469 20.3281C81.5547 20.8906 81.1211 21.3359 80.7461 21.6641C80.3945 21.9922 79.9492 22.3086 79.4102 22.6133C78.4023 23.1992 77.5586 23.4922 76.8789 23.4922C76.7148 23.4922 76.6328 23.4336 76.6328 23.3164C76.6328 23.2461 76.8555 23.0938 77.3008 22.8594C77.7461 22.625 78.168 22.3438 78.5664 22.0156C79.5742 21.1719 80.4062 20.3047 81.0625 19.4141C80.9219 19.2734 80.2188 18.6641 78.9531 17.5859C78.7891 17.4688 78.543 17.2695 78.2148 16.9883C78.1445 16.9414 78.0039 16.8359 77.793 16.6719C77.582 16.5078 77.4766 16.3906 77.4766 16.3203C77.4766 16.2031 77.5352 16.1445 77.6523 16.1445C78.0039 16.1445 78.5664 16.3906 79.3398 16.8828C80.1133 17.3516 80.9219 17.9141 81.7656 18.5703C82.0938 18.1719 82.3516 17.7969 82.5391 17.4453C82.7266 17.0938 82.9375 16.6602 83.1719 16.1445C83.2891 15.8867 83.3594 15.6641 83.3828 15.4766C83.4062 15.2656 83.418 15.1367 83.418 15.0898C83.418 14.832 83.4883 14.7031 83.6289 14.7031C83.793 14.7031 84.0156 14.832 84.2969 15.0898C84.7891 15.5586 85.0352 15.875 85.0352 16.0391C85.0352 16.1328 84.9766 16.2383 84.8594 16.3555C84.5781 16.6367 84.3203 17.0117 84.0859 17.4805C83.9453 17.7617 83.6875 18.1602 83.3125 18.6758C83.1953 18.8164 83.1016 18.9453 83.0312 19.0625C82.9609 19.1797 82.8906 19.2852 82.8203 19.3789C83.3594 19.7773 84.1562 20.457 85.2109 21.418C85.4688 21.6523 85.6328 21.875 85.7031 22.0859C85.7969 22.2734 85.8438 22.5312 85.8438 22.8594C85.8438 23.0938 85.7852 23.293 85.668 23.457C85.5508 23.5977 85.3984 23.668 85.2109 23.668ZM82.8906 27.9922C82.6562 28.2969 82.4102 28.4492 82.1523 28.4492C82.082 28.4492 82.0469 28.3906 82.0469 28.2734C82.0469 28.1094 82.0938 27.9219 82.1875 27.7109C82.1875 27.7109 82.4219 27.2422 82.8906 26.3047C82.9141 26.2109 82.9492 26.1172 82.9961 26.0234C83.043 25.9297 83.0781 25.8477 83.1016 25.7773V25.7422C83.1016 25.6953 83.0664 25.6484 82.9961 25.6016C82.9258 25.5547 82.8438 25.543 82.75 25.5664C82.375 25.5898 81.8125 25.6484 81.0625 25.7422C80.3359 25.8359 79.7969 25.9297 79.4453 26.0234C79.3047 26.0703 79.1289 26.1289 78.918 26.1992C78.7305 26.2695 78.5781 26.3047 78.4609 26.3047C78.0391 26.3047 77.6875 26.1758 77.4062 25.918C77.1719 25.7539 76.9961 25.5898 76.8789 25.4258L76.8086 25.25C76.8086 25.1328 77.0078 25.0977 77.4062 25.1445C77.9453 25.1914 79.0586 25.1211 80.7461 24.9336L81.4492 24.8281C81.6367 24.8047 81.9297 24.7695 82.3281 24.7227C82.75 24.6523 83.0781 24.582 83.3125 24.5117C83.3828 24.4883 83.4531 24.4648 83.5234 24.4414C83.6172 24.3945 83.6992 24.3711 83.7695 24.3711C83.8867 24.3711 84.0273 24.4297 84.1914 24.5469C84.3789 24.6641 84.5312 24.7695 84.6484 24.8633C84.8125 24.9805 84.918 25.0859 84.9648 25.1797C85.0352 25.25 85.0586 25.3438 85.0352 25.4609C85.0352 25.5781 84.9766 25.6836 84.8594 25.7773C84.7422 25.8711 84.6602 25.9414 84.6133 25.9883C84.5664 26.0586 84.4023 26.2344 84.1211 26.5156C84.0039 26.7031 83.793 26.9609 83.4883 27.2891C83.207 27.6172 83.0078 27.8516 82.8906 27.9922ZM81.1328 34.918C81.1328 34.8477 81.25 34.6602 81.4844 34.3555C81.7422 34.0742 81.9414 33.8516 82.082 33.6875C82.4336 33.2188 82.8555 32.5391 83.3477 31.6484C83.8633 30.7578 84.1562 30.1719 84.2266 29.8906C84.2734 29.75 84.2031 29.6797 84.0156 29.6797C83.6406 29.6797 82.6094 29.7852 80.9219 29.9961C79.8203 30.1367 79 30.2773 78.4609 30.418C78.3438 30.4883 78.2266 30.5234 78.1094 30.5234C77.9219 30.5234 77.7227 30.3945 77.5117 30.1367C77.418 29.9727 77.3711 29.8203 77.3711 29.6797C77.3711 29.5859 77.4297 29.4922 77.5469 29.3984L77.6523 29.2578C77.7227 29.1172 77.8047 28.9297 77.8984 28.6953C77.9922 28.4609 78.0742 28.2383 78.1445 28.0273C78.2617 27.6523 78.3438 27.2422 78.3906 26.7969C78.4141 26.5391 78.5547 26.4688 78.8125 26.5859C79.1406 26.75 79.3867 26.9141 79.5508 27.0781C79.7383 27.2188 79.7969 27.3242 79.7266 27.3945C79.4922 27.6758 79.3047 27.9922 79.1641 28.3438C79.0469 28.7188 78.9766 28.9648 78.9531 29.082C78.9531 29.1758 79.0117 29.2227 79.1289 29.2227C79.4805 29.2227 80.0078 29.1641 80.7109 29.0469C81.1094 29 81.6016 28.9414 82.1875 28.8711C82.7734 28.8008 83.2422 28.7305 83.5938 28.6602L84.4727 28.4844C84.543 28.4609 84.6367 28.4492 84.7539 28.4492C84.8711 28.4492 84.9883 28.4961 85.1055 28.5898C85.2227 28.6602 85.3516 28.7539 85.4922 28.8711C85.7266 29.082 85.8789 29.2578 85.9492 29.3984C86.0195 29.5156 86.0547 29.6562 86.0547 29.8203C86.0547 29.9141 85.9844 30.0312 85.8438 30.1719C85.7266 30.3125 85.5859 30.5352 85.4219 30.8398C84.7422 32.2227 83.8633 33.3828 82.7852 34.3203C82.4805 34.5547 82.1406 34.7539 81.7656 34.918C81.6016 34.9648 81.4492 34.9883 81.3086 34.9883C81.1914 35.0117 81.1328 34.9883 81.1328 34.918ZM72.2734 33.4414C72.2734 34.0039 72.1094 34.4492 71.7812 34.7773C71.4531 35.1289 71.0898 35.3047 70.6914 35.3047C70.4102 35.3047 69.9531 35.0469 69.3203 34.5312C68.7109 34.0156 68.1484 33.4531 67.6328 32.8438C67.1172 32.2344 66.8594 31.8242 66.8594 31.6133C66.8594 31.4492 66.9414 31.3672 67.1055 31.3672C67.293 31.3672 67.5508 31.4609 67.8789 31.6484C68.8867 32.2109 69.6367 32.5742 70.1289 32.7383L70.3398 23.7734L66.7539 23.9492L66.6836 33.1602C66.6836 33.4414 66.6367 33.6523 66.543 33.793C66.4727 33.957 66.332 34.0391 66.1211 34.0391C65.8398 34.0391 65.5 33.9219 65.1016 33.6875C64.7031 33.4766 64.5039 33.207 64.5039 32.8789C64.5039 32.7617 64.5156 32.668 64.5391 32.5977C64.6562 31.8945 64.7148 31.0742 64.7148 30.1367L64.7852 24.0195L61.8672 24.1602L62.0078 33.2656C62.0078 33.8516 61.8086 34.1445 61.4102 34.1445C61.1289 34.1445 60.7773 34.0039 60.3555 33.7227C59.957 33.4414 59.7578 33.1602 59.7578 32.8789V32.668C59.8516 32.082 59.8984 31.2617 59.8984 30.207L59.8281 24.2305L56.9102 24.3711L57.0156 34.2852C57.0156 34.8008 56.8281 35.0586 56.4531 35.0586C55.9609 34.9648 55.5391 34.8008 55.1875 34.5664C54.8594 34.3555 54.6953 34.0859 54.6953 33.7578L54.7305 33.4414C54.8477 32.668 54.9062 31.9883 54.9062 31.4023L54.8711 24.5117C54.8711 23.6211 54.7656 22.9414 54.5547 22.4727C54.4609 22.2383 54.4141 22.0859 54.4141 22.0156C54.4141 21.8516 54.5078 21.7695 54.6953 21.7695C55.0469 21.7695 55.7969 22.0625 56.9453 22.6484L60.1094 22.5078C61 21.1016 61.4453 19.9766 61.4453 19.1328V18.8867L56.8047 19.1328H56.3125C55.7031 19.1328 55.293 19.0391 55.082 18.8516C54.8242 18.6172 54.6016 18.3477 54.4141 18.043C54.2266 17.7383 54.1328 17.4922 54.1328 17.3047C54.1328 17.1172 54.2266 17.0234 54.4141 17.0234L54.6953 17.0938C55.1641 17.2344 55.6328 17.3047 56.1016 17.3047H56.418L69.2852 16.5664C69.707 16.543 70.1172 16.4727 70.5156 16.3555C70.7031 16.3086 70.832 16.2852 70.9023 16.2852C71.1602 16.2852 71.5 16.4727 71.9219 16.8477C72.3438 17.1992 72.5547 17.5273 72.5547 17.832C72.5547 18.1133 72.2617 18.2773 71.6758 18.3242L63.0977 18.7812C63.5195 19.0156 63.7305 19.25 63.7305 19.4844C63.7305 19.625 63.5664 19.9883 63.2383 20.5742C62.9102 21.1602 62.5469 21.7695 62.1484 22.4023L70.7969 21.9805L71.2539 21.9453C71.582 21.9453 71.8984 22.0625 72.2031 22.2969C72.5078 22.5312 72.6602 22.8125 72.6602 23.1406C72.6602 23.2344 72.625 23.375 72.5547 23.5625C72.5078 23.7266 72.4844 23.8555 72.4844 23.9492L72.2734 32.457V33.4414ZM41.125 27.7461C41.125 27.5586 41.2656 27.4648 41.5469 27.4648C42.1094 27.4648 42.7539 27.3828 43.4805 27.2188C44.7461 26.9375 46.082 26.5859 47.4883 26.1641C48.4023 23.3281 49.0352 21.1133 49.3867 19.5195C49.7383 17.9023 49.9141 16.8477 49.9141 16.3555C49.9141 16.2383 49.8906 16.0391 49.8438 15.7578C49.8203 15.6641 49.8086 15.5586 49.8086 15.4414C49.8086 15.2305 49.8906 15.125 50.0547 15.125C50.1953 15.125 50.4414 15.207 50.793 15.3711C51.1445 15.5117 51.4609 15.6992 51.7422 15.9336C52.0469 16.168 52.1992 16.4375 52.1992 16.7422C52.1992 16.8594 52.1875 16.9414 52.1641 16.9883C51.8125 18.4414 51.4258 19.8125 51.0039 21.1016C50.582 22.3672 50.0664 23.8555 49.457 25.5664C50.9102 25.0977 51.9883 24.7344 52.6914 24.4766C53.3242 24.2656 53.793 24.1602 54.0977 24.1602C54.3555 24.1602 54.4844 24.2188 54.4844 24.3359C54.4844 24.6406 53.6289 25.2266 51.918 26.0938C50.2305 26.9375 48.4023 27.7578 46.4336 28.5547C44.4648 29.3516 43.3047 29.75 42.9531 29.75C42.6953 29.75 42.3906 29.5625 42.0391 29.1875C41.6875 28.8125 41.418 28.4375 41.2305 28.0625C41.1602 27.9219 41.125 27.8164 41.125 27.7461ZM41.5469 13.1914C41.5469 13.0508 41.6406 12.9805 41.8281 12.9805C41.9453 12.9805 42.0508 12.9922 42.1445 13.0156C42.543 13.1094 42.9883 13.1562 43.4805 13.1562H43.9375L50.4414 12.7344C50.9805 12.7109 51.5078 12.6172 52.0234 12.4531C52.2109 12.3828 52.375 12.3477 52.5156 12.3477C52.7734 12.3477 53.0312 12.4414 53.2891 12.6289C53.5469 12.8164 53.7578 13.0391 53.9219 13.2969C54.0859 13.5312 54.168 13.707 54.168 13.8242C54.168 14.0586 53.9922 14.2109 53.6406 14.2812L53.3945 14.3164L44.3945 14.9492C44.1836 14.9727 43.9141 14.9844 43.5859 14.9844C43.1172 14.9844 42.7305 14.8672 42.4258 14.6328C42.1211 14.375 41.8984 14.1055 41.7578 13.8242C41.6172 13.5195 41.5469 13.3086 41.5469 13.1914ZM43.7969 16.8477C43.7969 16.5664 43.9375 16.3789 44.2188 16.2852C44.5 16.168 44.7695 16.1094 45.0273 16.1094C45.2148 16.1094 45.3555 16.168 45.4492 16.2852C45.5664 16.4023 45.6719 16.5898 45.7656 16.8477C46.1641 17.9492 46.5742 19.332 46.9961 20.9961C47.418 22.6367 47.6289 23.6211 47.6289 23.9492C47.6289 24.2539 47.4648 24.4883 47.1367 24.6523C46.832 24.8164 46.5273 24.8984 46.2227 24.8984C46.0352 24.8984 45.8945 24.8398 45.8008 24.7227C45.7305 24.6055 45.6719 24.4062 45.625 24.125C45.1562 21.4531 44.5938 19.2031 43.9375 17.375C43.8438 17.0938 43.7969 16.918 43.7969 16.8477ZM44.9922 7.56641C44.9922 7.37891 45.0859 7.15625 45.2734 6.89844C45.4609 6.64062 45.6367 6.48828 45.8008 6.44141C45.8477 6.41797 45.918 6.40625 46.0117 6.40625C46.1523 6.40625 46.3281 6.47656 46.5391 6.61719C46.7031 6.71094 47.5352 7.21484 49.0352 8.12891C50.5352 9.01953 51.332 9.67578 51.4258 10.0977C51.4961 10.3789 51.3789 10.6953 51.0742 11.0469C50.7695 11.375 50.5234 11.5625 50.3359 11.6094L50.2305 11.6445C50.1133 11.6445 49.9023 11.5391 49.5977 11.3281C47.8398 9.89844 46.4453 8.85547 45.4141 8.19922C45.2969 8.10547 45.1914 8.01172 45.0977 7.91797C45.0273 7.80078 44.9922 7.68359 44.9922 7.56641ZM55.6445 7.53125C55.6445 7.39062 55.7383 7.32031 55.9258 7.32031C56.043 7.32031 56.2773 7.35547 56.6289 7.42578C56.9805 7.49609 57.3086 7.625 57.6133 7.8125C57.9414 8 58.1055 8.24609 58.1055 8.55078V8.62109L57.8945 12.8398L61.8672 12.4883L61.9375 6.16016C61.9375 5.55078 61.75 5.01172 61.375 4.54297C61.2812 4.42578 61.2344 4.32031 61.2344 4.22656C61.2344 4.10937 61.3633 4.05078 61.6211 4.05078C62.2773 4.05078 62.8398 4.16797 63.3086 4.40234C63.8008 4.61328 64.0469 4.90625 64.0469 5.28125L63.9414 12.3125L68.582 11.9258L68.6523 8.69141C68.6523 8.01172 68.5469 7.47266 68.3359 7.07422C68.2422 6.91016 68.1953 6.76953 68.1953 6.65234C68.1953 6.53516 68.2891 6.47656 68.4766 6.47656C68.875 6.47656 69.3555 6.58203 69.918 6.79297C70.4805 7.00391 70.7617 7.35547 70.7617 7.84766V7.95312L70.4805 14.7734C70.457 15.1016 70.3984 15.3477 70.3047 15.5117C70.2344 15.6523 70.0938 15.7227 69.8828 15.7227C69.6016 15.7227 69.2617 15.6055 68.8633 15.3711C68.4883 15.1133 68.3008 14.8086 68.3008 14.457C68.3008 14.3164 68.3125 14.1992 68.3359 14.1055L68.4414 13.5781L58.2461 14.5977C57.9883 14.6211 57.7188 14.6797 57.4375 14.7734C57.1562 14.8438 56.957 14.8789 56.8398 14.8789C56.6289 14.8789 56.3828 14.7617 56.1016 14.5273C55.8438 14.293 55.7148 14.0586 55.7148 13.8242C55.7148 13.7305 55.7383 13.5898 55.7852 13.4023C55.9023 12.8633 55.9609 12.418 55.9609 12.0664L56.0312 9.42969C56.0312 8.77344 55.9375 8.25781 55.75 7.88281C55.6797 7.74219 55.6445 7.625 55.6445 7.53125ZM139.211 24.7227C138.859 24.7227 138.52 24.4648 138.191 23.9492C137.77 23.293 137.359 22.7539 136.961 22.332L136.047 21.3828C135.555 21.9453 135.121 22.3906 134.746 22.7188C134.395 23.0469 133.949 23.3633 133.41 23.668C132.402 24.2539 131.559 24.5469 130.879 24.5469C130.715 24.5469 130.633 24.4883 130.633 24.3711C130.633 24.3008 130.855 24.1484 131.301 23.9141C131.746 23.6797 132.168 23.3984 132.566 23.0703C133.574 22.2266 134.406 21.3594 135.062 20.4688C134.922 20.3281 134.219 19.7188 132.953 18.6406C132.789 18.5234 132.543 18.3242 132.215 18.043C132.145 17.9961 132.004 17.8906 131.793 17.7266C131.582 17.5625 131.477 17.4453 131.477 17.375C131.477 17.2578 131.535 17.1992 131.652 17.1992C132.004 17.1992 132.566 17.4453 133.34 17.9375C134.113 18.4062 134.922 18.9688 135.766 19.625C136.094 19.2266 136.352 18.8516 136.539 18.5C136.727 18.1484 136.938 17.7148 137.172 17.1992C137.289 16.9414 137.359 16.7188 137.383 16.5312C137.406 16.3203 137.418 16.1914 137.418 16.1445C137.418 15.8867 137.488 15.7578 137.629 15.7578C137.793 15.7578 138.016 15.8867 138.297 16.1445C138.789 16.6133 139.035 16.9297 139.035 17.0938C139.035 17.1875 138.977 17.293 138.859 17.4102C138.578 17.6914 138.32 18.0664 138.086 18.5352C137.945 18.8164 137.688 19.2148 137.312 19.7305C137.195 19.8711 137.102 20 137.031 20.1172C136.961 20.2344 136.891 20.3398 136.82 20.4336C137.359 20.832 138.156 21.5117 139.211 22.4727C139.469 22.707 139.633 22.9297 139.703 23.1406C139.797 23.3281 139.844 23.5859 139.844 23.9141C139.844 24.1484 139.785 24.3477 139.668 24.5117C139.551 24.6523 139.398 24.7227 139.211 24.7227ZM146.523 11.8555C146.594 11.8555 146.664 11.8906 146.734 11.9609C146.805 12.0078 146.852 12.0781 146.875 12.1719V12.2422C146.875 12.4062 146.746 12.7227 146.488 13.1914L143.957 17.5859C143.77 17.9844 143.523 18.1836 143.219 18.1836C142.914 18.1836 142.656 17.9961 142.445 17.6211C142.234 17.3164 141.977 16.8594 141.672 16.25C141.531 16.0391 141.414 15.8281 141.32 15.6172C141.227 15.4062 141.156 15.2539 141.109 15.1602C140.852 14.7148 140.723 14.3984 140.723 14.2109C140.723 14.1172 140.758 14.0469 140.828 14C140.898 13.9297 140.969 13.8945 141.039 13.8945C141.297 13.8945 141.531 14.0352 141.742 14.3164C141.906 14.4805 142.035 14.6562 142.129 14.8438L142.516 15.3711L143.219 16.1797L143.535 15.6875C143.863 15.125 144.637 14.0117 145.855 12.3477C146.113 12.0195 146.336 11.8555 146.523 11.8555ZM113.09 34.8828C113.09 35.375 112.867 35.6211 112.422 35.6211C112.328 35.6211 112.117 35.5742 111.789 35.4805C111.484 35.3867 111.191 35.2227 110.91 34.9883C110.629 34.7539 110.488 34.4375 110.488 34.0391L110.523 33.793C110.617 33.1602 110.664 32.457 110.664 31.6836L110.734 21.8047L99.6602 22.4023C99.332 22.4258 98.9336 22.4375 98.4648 22.4375C97.9258 22.4375 97.4922 22.2969 97.1641 22.0156C96.8359 21.7109 96.6016 21.3945 96.4609 21.0664C96.3438 20.7148 96.2852 20.457 96.2852 20.293C96.2852 20.1523 96.3672 20.082 96.5312 20.082C96.625 20.082 96.707 20.0938 96.7773 20.1172C97.4102 20.2578 97.9727 20.3281 98.4648 20.3281H98.7461L110.77 19.6602L110.84 11.3281L105.461 11.6445C104.406 13.3789 103.422 14.7617 102.508 15.793C101.594 16.8242 100.832 17.5391 100.223 17.9375C99.6367 18.3359 99.2852 18.5352 99.168 18.5352C99.0508 18.5352 98.9922 18.4766 98.9922 18.3594C98.9922 18.1953 99.1211 17.9258 99.3789 17.5508C100.434 16.168 101.453 14.5977 102.438 12.8398C103.422 11.082 104.219 9.42969 104.828 7.88281C105.438 6.3125 105.742 5.11719 105.742 4.29688V3.875C105.742 3.59375 105.836 3.45312 106.023 3.45312C106.094 3.45312 106.352 3.53516 106.797 3.69922C107.266 3.86328 107.676 4.07422 108.027 4.33203C108.402 4.56641 108.59 4.80078 108.59 5.03516C108.59 5.31641 108.32 6.01953 107.781 7.14453C107.242 8.24609 106.844 9.04297 106.586 9.53516L118.434 8.79688C118.973 8.75 119.5 8.64453 120.016 8.48047C120.062 8.45703 120.145 8.44531 120.262 8.44531C120.543 8.44531 120.941 8.66797 121.457 9.11328C121.973 9.55859 122.23 9.92188 122.23 10.2031C122.23 10.4844 121.938 10.6484 121.352 10.6953L113.16 11.1875L113.125 19.5547L123.074 18.9922C123.66 18.9453 124.199 18.8398 124.691 18.6758C124.832 18.6289 124.938 18.6055 125.008 18.6055C125.148 18.6055 125.383 18.7109 125.711 18.9219C126.039 19.1328 126.332 19.3789 126.59 19.6602C126.848 19.9414 126.977 20.1992 126.977 20.4336C126.977 20.7383 126.707 20.9141 126.168 20.9609L113.125 21.6641L113.09 34.8828ZM192.121 14.3867C191.957 14.3867 191.781 14.2812 191.594 14.0703C191.453 13.9063 191.359 13.7773 191.312 13.6836C191.266 13.5664 191.266 13.4141 191.312 13.2266L191.348 12.3828C191.371 12.2188 191.383 11.8203 191.383 11.1875V10.0273L190.328 10.5195L189.098 11.0469C188.793 11.1641 188.477 11.3047 188.148 11.4688C187.867 11.6094 187.621 11.6797 187.41 11.6797C187.246 11.6563 187.059 11.5977 186.848 11.5039C186.637 11.4102 186.473 11.3281 186.355 11.2578C186.098 11.0938 185.98 10.918 186.004 10.7305L186.109 10.3789C186.109 10.1914 186.121 10.0273 186.145 9.88672L186.18 7.84766V5.94922C186.18 5.57422 186.156 5.25781 186.109 5C186.062 4.71875 186.027 4.51953 186.004 4.40234C186.004 4.28516 186.039 4.20313 186.109 4.15625C186.133 4.13281 186.191 4.12109 186.285 4.12109C186.449 4.12109 186.766 4.22656 187.234 4.4375C187.633 4.625 187.797 4.85938 187.727 5.14062C187.68 5.30469 187.633 5.55078 187.586 5.87891L187.48 9.92188C187.48 10.0391 187.492 10.1328 187.516 10.2031C187.562 10.25 187.609 10.2734 187.656 10.2734C187.938 10.2734 188.277 10.1914 188.676 10.0273C189.426 9.79297 190.07 9.55859 190.609 9.32422L191.383 9.00781V6.6875C191.383 5.75 191.324 4.84766 191.207 3.98047C191.184 3.91016 191.172 3.82812 191.172 3.73438C191.172 3.5 191.266 3.38281 191.453 3.38281C191.477 3.38281 191.605 3.42969 191.84 3.52344C192.191 3.71094 192.449 3.875 192.613 4.01562C192.777 4.15625 192.871 4.23828 192.895 4.26172C192.988 4.33203 193.035 4.40234 193.035 4.47266C193.035 4.51953 193.012 4.57812 192.965 4.64844C192.941 4.71875 192.918 4.77734 192.895 4.82422L192.789 5.87891L192.754 9.11328L192.789 12.2422C192.789 12.7813 192.754 13.25 192.684 13.6484C192.566 14.1406 192.379 14.3867 192.121 14.3867ZM185.652 20.1523C185.395 20.1523 185.078 19.9531 184.703 19.5547C184.422 19.2734 184.281 19.0625 184.281 18.9219C184.281 18.8516 184.328 18.8164 184.422 18.8164C184.516 18.793 184.633 18.7812 184.773 18.7812L185.547 18.7461C185.992 18.7461 186.285 18.7344 186.426 18.7109C186.871 18.7109 187.246 18.6992 187.551 18.6758C189.566 18.4883 190.926 18.3359 191.629 18.2188C191.98 18.1719 192.297 18.125 192.578 18.0781C192.859 18.0078 193.082 17.9727 193.246 17.9727C193.574 17.9727 193.902 18.1367 194.23 18.4648C194.488 18.7227 194.617 18.9336 194.617 19.0977C194.617 19.2383 194.535 19.332 194.371 19.3789C194.254 19.4023 193.562 19.4492 192.297 19.5195C191.594 19.543 190.727 19.6016 189.695 19.6953C188.664 19.7891 187.762 19.8828 186.988 19.9766C186.848 20 186.648 20.0352 186.391 20.082C186.133 20.1289 185.887 20.1523 185.652 20.1523ZM190.363 34.6719C189.637 34.6719 189.074 34.6484 188.676 34.6016C188.301 34.5547 187.984 34.4141 187.727 34.1797C187.281 33.8516 186.977 33.1367 186.812 32.0352L186.707 30.9102C186.707 30.6289 186.684 30.2773 186.637 29.8555C186.262 29.9023 185.992 29.9492 185.828 29.9961C185.781 30.0195 185.699 30.0547 185.582 30.1016C185.488 30.125 185.418 30.1367 185.371 30.1367C185.207 30.1367 185.055 30.0898 184.914 29.9961C184.773 29.9023 184.598 29.7266 184.387 29.4688C184.223 29.2578 184.141 29.1172 184.141 29.0469C184.141 28.9766 184.223 28.9297 184.387 28.9062C184.551 28.8828 184.773 28.8711 185.055 28.8711C185.453 28.8711 185.969 28.8242 186.602 28.7305L186.566 28.2383C186.566 27.3008 186.508 26.5039 186.391 25.8477L186.355 25.6016C186.355 25.2734 186.484 25.1445 186.742 25.2148C187.023 25.3086 187.281 25.4258 187.516 25.5664C187.703 25.6602 187.832 25.7539 187.902 25.8477C187.973 25.918 187.996 26.0234 187.973 26.1641L187.867 27.6758V28.5898L190.961 28.2734C190.961 28.1094 190.973 27.7227 190.996 27.1133C191.02 26.4805 191.02 26.0703 190.996 25.8828C190.996 25.6953 190.973 25.5195 190.926 25.3555C190.902 25.168 190.879 25.0156 190.855 24.8984C190.855 24.7109 190.949 24.6172 191.137 24.6172C191.324 24.6172 191.559 24.7227 191.84 24.9336C192.168 25.1445 192.379 25.332 192.473 25.4961C192.59 25.6602 192.613 25.8594 192.543 26.0938C192.426 26.4688 192.344 26.8906 192.297 27.3594C192.25 27.8281 192.227 28.1094 192.227 28.2031C192.508 28.1797 192.766 28.1445 193 28.0977C193.234 28.0508 193.387 28.0273 193.457 28.0273C193.645 27.9805 193.867 27.957 194.125 27.957C194.266 27.9805 194.465 28.1211 194.723 28.3789C194.934 28.6602 195.039 28.8828 195.039 29.0469C195.039 29.2812 194.816 29.375 194.371 29.3281C193.973 29.2578 193.574 29.2227 193.176 29.2227C192.777 29.2227 192.438 29.2344 192.156 29.2578C192.086 30.1016 191.945 30.9336 191.734 31.7539C191.688 31.9414 191.605 32.0938 191.488 32.2109C191.371 32.3516 191.266 32.4219 191.172 32.4219C191.008 32.4219 190.902 32.3516 190.855 32.2109C190.832 32.0938 190.82 31.8945 190.82 31.6133C190.867 31.0039 190.891 30.2422 190.891 29.3281C190.258 29.375 189.766 29.4219 189.414 29.4688C188.875 29.5859 188.371 29.6562 187.902 29.6797C187.879 30.6406 187.926 31.4961 188.043 32.2461C188.113 32.7383 188.254 33.0781 188.465 33.2656C188.605 33.3828 188.77 33.4531 188.957 33.4766C189.168 33.5 189.379 33.5117 189.59 33.5117C189.801 33.5117 189.941 33.5117 190.012 33.5117C190.738 33.5117 191.418 33.4766 192.051 33.4062C192.238 33.3828 192.402 33.3359 192.543 33.2656C192.707 33.1953 192.824 33.1602 192.895 33.1602C193.105 33.1602 193.316 33.2305 193.527 33.3711C193.738 33.5117 193.844 33.6758 193.844 33.8633C193.844 34.0508 193.738 34.1914 193.527 34.2852C193.34 34.3789 193.035 34.4609 192.613 34.5312C191.863 34.625 191.113 34.6719 190.363 34.6719ZM200.383 18.6758C200.664 18.6758 200.805 18.8047 200.805 19.0625C200.805 19.2031 200.676 19.4023 200.418 19.6602C199.715 20.5273 198.32 22.1797 196.234 24.6172C196.07 24.8281 195.918 24.9336 195.777 24.9336C195.66 24.9336 195.402 24.7578 195.004 24.4062C194.676 24.125 194.512 23.8906 194.512 23.7031C194.512 23.4922 194.688 23.293 195.039 23.1055C195.578 22.8008 196.387 22.1914 197.465 21.2773C198.543 20.3164 199.34 19.5547 199.855 18.9922C200.066 18.7812 200.242 18.6758 200.383 18.6758ZM155.699 30.1719C157.785 29.5156 159.648 28.8008 161.289 28.0273C160.938 27.5352 160.492 26.9727 159.953 26.3398C159.766 26.1055 159.672 25.918 159.672 25.7773C159.672 25.5195 159.824 25.2969 160.129 25.1094C160.434 24.8984 160.668 24.793 160.832 24.793C161.02 24.793 161.219 24.9102 161.43 25.1445C162.766 26.7148 163.902 28.0977 164.84 29.293C165.777 30.4883 166.246 31.2148 166.246 31.4727C166.246 31.6836 166.082 31.9297 165.754 32.2109C165.449 32.5156 165.156 32.668 164.875 32.668C164.641 32.668 164.406 32.4805 164.172 32.1055C163.633 31.2852 163.023 30.3945 162.344 29.4336L158.125 31.543C157.656 31.7539 156.918 32.1289 155.91 32.668C155.066 33.1133 154.551 33.3359 154.363 33.3359C154.223 33.3359 154.047 33.2422 153.836 33.0547C153.625 32.8906 153.461 32.6797 153.344 32.4219C153.25 32.1875 153.25 32 153.344 31.8594C153.484 31.6016 153.555 30.5703 153.555 28.7656V16.6016C153.555 16.0391 153.531 15.582 153.484 15.2305C153.461 14.8789 153.367 14.5039 153.203 14.1055C153.18 14.0352 153.156 13.9766 153.133 13.9297C153.109 13.8828 153.098 13.8359 153.098 13.7891C153.098 13.6719 153.18 13.6133 153.344 13.6133C153.648 13.6133 154.41 13.8711 155.629 14.3867L163.258 13.8594C163.445 13.8359 163.656 13.8242 163.891 13.8242C164.148 13.8242 164.453 13.9414 164.805 14.1758C165.156 14.3867 165.332 14.6211 165.332 14.8789C165.332 14.9727 165.273 15.1133 165.156 15.3008C165.062 15.4883 165.016 15.6289 165.016 15.7227L164.102 22.332C164.664 22.9883 164.945 23.4336 164.945 23.668C164.945 23.7852 164.875 23.8672 164.734 23.9141C164.617 23.9609 164.43 23.9844 164.172 23.9844L155.664 24.3008L155.699 30.1719ZM149.934 14.3867C149.934 14.1523 150.086 13.8711 150.391 13.543C152.102 11.6445 153.59 9.75781 154.855 7.88281C156.121 6.00781 156.754 4.75391 156.754 4.12109L156.719 3.875V3.76953C156.719 3.44141 156.848 3.27734 157.105 3.27734C157.41 3.27734 157.832 3.48828 158.371 3.91016C158.934 4.30859 159.215 4.63672 159.215 4.89453C159.215 5.01172 159.156 5.16406 159.039 5.35156C158.688 5.91406 158.301 6.47656 157.879 7.03906L162.871 6.65234C163.293 6.62891 163.738 6.53516 164.207 6.37109C164.348 6.32422 164.453 6.30078 164.523 6.30078C164.875 6.30078 165.25 6.5 165.648 6.89844C166.07 7.27344 166.281 7.56641 166.281 7.77734C166.281 8.05859 166.023 8.22266 165.508 8.26953L159.496 8.69141C159.66 8.73828 160.023 8.98438 160.586 9.42969C161.172 9.875 161.699 10.332 162.168 10.8008C162.637 11.2695 162.871 11.5977 162.871 11.7852C162.871 11.9961 162.73 12.2539 162.449 12.5586C162.168 12.8398 161.922 12.9805 161.711 12.9805C161.523 12.9805 161.301 12.8281 161.043 12.5234C160.246 11.6563 159.438 10.8945 158.617 10.2383C158.336 10.0039 158.195 9.80469 158.195 9.64062C158.195 9.52344 158.254 9.37109 158.371 9.18359C158.488 8.99609 158.641 8.84375 158.828 8.72656L156.473 8.90234C155.348 10.2852 154.105 11.5859 152.746 12.8047C151.387 14 150.52 14.5977 150.145 14.5977C150.004 14.5977 149.934 14.5273 149.934 14.3867ZM162.59 18.043L162.836 15.582L155.594 16.0742V18.3945L162.59 18.043ZM162.133 22.4023L162.414 19.6953L155.629 20.0117V22.6484L162.133 22.4023ZM164.031 12.875C164.031 12.6406 164.184 12.3594 164.488 12.0312C165.637 10.6484 166.68 9.08984 167.617 7.35547C168.578 5.59766 169.059 4.36719 169.059 3.66406V3.52344C169.059 3.17188 169.188 2.99609 169.445 2.99609C169.609 2.99609 169.855 3.08984 170.184 3.27734C170.535 3.44141 170.852 3.64063 171.133 3.875C171.414 4.10937 171.555 4.34375 171.555 4.57812C171.555 4.78906 171.391 5.16406 171.062 5.70312C170.734 6.24219 170.559 6.52344 170.535 6.54688L177.461 5.98438C177.977 5.9375 178.422 5.85547 178.797 5.73828C178.844 5.71484 178.938 5.70312 179.078 5.70312C179.406 5.70312 179.758 5.89063 180.133 6.26562C180.531 6.61719 180.73 6.91016 180.73 7.14453C180.73 7.28516 180.66 7.40234 180.52 7.49609C180.402 7.56641 180.238 7.61328 180.027 7.63672L172.891 8.12891C173.547 8.55078 174.32 9.17187 175.211 9.99219C176.102 10.7891 176.547 11.3281 176.547 11.6094C176.547 11.7734 176.418 12.0312 176.16 12.3828C175.902 12.7109 175.656 12.875 175.422 12.875C175.234 12.875 175.035 12.7578 174.824 12.5234C173.676 11.2812 172.633 10.2969 171.695 9.57031C171.461 9.38281 171.344 9.20703 171.344 9.04297C171.344 8.85547 171.52 8.57422 171.871 8.19922L169.27 8.375C168.496 9.40625 167.559 10.4492 166.457 11.5039C165.379 12.5586 164.652 13.0859 164.277 13.0859C164.113 13.0859 164.031 13.0156 164.031 12.875ZM167.336 13.6484C167.336 13.5078 167.418 13.4375 167.582 13.4375C167.934 13.4375 168.73 13.7305 169.973 14.3164L177.039 13.7188L177.32 13.6836C177.414 13.6836 177.59 13.7305 177.848 13.8242C178.129 13.8945 178.387 14.0234 178.621 14.2109C178.879 14.375 179.008 14.5977 179.008 14.8789C179.008 14.9727 178.973 15.1016 178.902 15.2656C178.832 15.4297 178.797 15.5469 178.797 15.6172C178.773 18.1953 178.609 20.9492 178.305 23.8789L178.234 24.7578C178.164 25.7422 178.07 26.5625 177.953 27.2188C177.836 27.875 177.637 28.3906 177.355 28.7656C176.91 29.375 176.43 29.6797 175.914 29.6797C175.398 29.6797 174.742 29.3633 173.945 28.7305C173.148 28.0977 172.41 27.4062 171.73 26.6562C171.074 25.9062 170.746 25.4258 170.746 25.2148C170.746 25.0508 170.84 24.9688 171.027 24.9688C171.238 24.9688 171.531 25.0859 171.906 25.3203C172.773 25.8594 173.5 26.293 174.086 26.6211C174.672 26.9492 175.094 27.1133 175.352 27.1133C175.469 27.1133 175.551 27.0312 175.598 26.8672C176.137 23.8672 176.465 20.1055 176.582 15.582L169.973 16.0742C169.973 20.0352 170.008 26.3164 170.078 34.918C170.078 35.1289 170.02 35.2812 169.902 35.375C169.809 35.4922 169.68 35.5508 169.516 35.5508C169.328 35.5508 169.105 35.4805 168.848 35.3398C168.402 35.1523 168.086 34.9766 167.898 34.8125C167.711 34.6484 167.617 34.4609 167.617 34.25L167.652 34.0039C167.793 33.2305 167.863 32.3633 167.863 31.4023L167.758 16.5664C167.758 15.957 167.734 15.4883 167.688 15.1602C167.664 14.832 167.594 14.5156 167.477 14.2109C167.383 13.9297 167.336 13.7422 167.336 13.6484ZM239.652 14.1758C239.395 14.1758 239.078 13.9766 238.703 13.5781C238.422 13.2969 238.281 13.0859 238.281 12.9453C238.281 12.875 238.328 12.8398 238.422 12.8398C238.516 12.8164 238.633 12.8047 238.773 12.8047L239.547 12.7695C239.992 12.7695 240.285 12.7578 240.426 12.7344C240.871 12.7344 241.246 12.7227 241.551 12.6992C243.566 12.5117 244.926 12.3594 245.629 12.2422C245.98 12.1953 246.297 12.1484 246.578 12.1016C246.859 12.0312 247.082 11.9961 247.246 11.9961C247.574 11.9961 247.902 12.1602 248.23 12.4883C248.488 12.7461 248.617 12.957 248.617 13.1211C248.617 13.2617 248.535 13.3555 248.371 13.4023C248.254 13.4258 247.562 13.4727 246.297 13.543C245.594 13.5664 244.727 13.625 243.695 13.7188C242.664 13.8125 241.762 13.9063 240.988 14C240.848 14.0234 240.648 14.0586 240.391 14.1055C240.133 14.1523 239.887 14.1758 239.652 14.1758ZM247.914 30.1367C247.891 30.1602 247.832 30.1719 247.738 30.1719C247.551 30.1719 247.281 30.043 246.93 29.7852C246.133 28.9883 245.09 28.0039 243.801 26.832C243.191 27.4414 242.617 27.9688 242.078 28.4141C241.891 28.5547 241.562 28.7656 241.094 29.0469C240.414 29.4453 239.758 29.6914 239.125 29.7852H238.914C238.703 29.7852 238.574 29.7617 238.527 29.7148C238.504 29.6914 238.551 29.6445 238.668 29.5742C238.809 29.5039 238.914 29.4453 238.984 29.3984C239.125 29.3281 239.523 29.0703 240.18 28.625C240.508 28.3906 240.977 27.9922 241.586 27.4297C242.195 26.8672 242.641 26.4102 242.922 26.0586L241.48 24.9336C241.223 24.7461 240.941 24.5469 240.637 24.3359C240.355 24.1016 240.156 23.9492 240.039 23.8789L240.004 23.7734C240.004 23.6328 240.121 23.5625 240.355 23.5625C240.637 23.5625 241.094 23.7383 241.727 24.0898L243.52 25.25C243.918 24.7344 244.316 24.1719 244.715 23.5625C245.137 22.9297 245.359 22.5547 245.383 22.4375C245.406 22.3672 245.395 22.3086 245.348 22.2617C245.324 22.1914 245.277 22.1562 245.207 22.1562H244.504L243.238 22.2617C242.605 22.3086 241.973 22.3906 241.34 22.5078C241.27 22.5312 241.152 22.5664 240.988 22.6133C240.824 22.6602 240.684 22.6836 240.566 22.6836C240.52 22.6836 240.32 22.5547 239.969 22.2969C239.641 22.0156 239.465 21.8398 239.441 21.7695C239.418 21.7461 239.406 21.7109 239.406 21.6641C239.406 21.5469 239.535 21.5 239.793 21.5234C240.051 21.5234 240.215 21.5234 240.285 21.5234C240.941 21.5234 241.891 21.4648 243.133 21.3477L244.328 21.2422L245.418 21.1016C245.77 21.0078 245.969 20.9609 246.016 20.9609H246.086C246.203 20.9609 246.309 20.9961 246.402 21.0664C246.496 21.1367 246.566 21.207 246.613 21.2773C246.66 21.3477 246.695 21.3945 246.719 21.418C246.742 21.4414 246.812 21.5117 246.93 21.6289C247.047 21.7227 247.117 21.8164 247.141 21.9102C247.188 21.9805 247.211 22.0625 247.211 22.1562C247.211 22.3672 247.129 22.5195 246.965 22.6133C246.848 22.6602 246.637 22.9062 246.332 23.3516C245.816 24.1719 245.195 25.0508 244.469 25.9883C244.867 26.2461 245.383 26.6211 246.016 27.1133C246.297 27.3008 246.754 27.6172 247.387 28.0625C247.668 28.2734 247.879 28.5547 248.02 28.9062C248.113 29.2812 248.16 29.5625 248.16 29.75C248.137 29.9375 248.055 30.0664 247.914 30.1367ZM254.383 14.8086C254.664 14.8086 254.805 14.9375 254.805 15.1953C254.805 15.3359 254.676 15.5352 254.418 15.793C253.715 16.6602 252.32 18.3125 250.234 20.75C250.07 20.9609 249.918 21.0664 249.777 21.0664C249.66 21.0664 249.402 20.8906 249.004 20.5391C248.676 20.2578 248.512 20.0234 248.512 19.8359C248.512 19.625 248.688 19.4258 249.039 19.2383C249.578 18.9336 250.387 18.3242 251.465 17.4102C252.543 16.4492 253.34 15.6875 253.855 15.125C254.066 14.9141 254.242 14.8086 254.383 14.8086ZM233.852 35.0234C231.156 35.0234 227.898 34.707 224.078 34.0742C220.281 33.4414 216.215 32.668 211.879 31.7539C210.52 31.4727 209.43 31.332 208.609 31.332C207.461 31.332 206.254 31.543 204.988 31.9648C204.777 32.0352 204.59 32.0703 204.426 32.0703C203.84 32.0703 203.547 31.5664 203.547 30.5586C203.547 30.3711 203.605 30.2305 203.723 30.1367C203.84 30.0195 204.074 29.9258 204.426 29.8555C204.777 29.7617 205.34 29.6562 206.113 29.5391C207.707 28.0859 209.066 26.6562 210.191 25.25C210.238 25.1562 210.262 25.0977 210.262 25.0742C210.262 24.9336 210.004 24.6641 209.488 24.2656C208.996 23.8438 208.398 23.3984 207.695 22.9297C207.086 22.5312 206.781 22.0742 206.781 21.5586C206.781 21.1602 206.98 20.6562 207.379 20.0469L209.629 16.7773L206.395 17.1992L205.656 17.2695C205.164 17.2695 204.754 17.082 204.426 16.707C204.098 16.332 203.887 15.957 203.793 15.582C203.77 15.5352 203.758 15.4648 203.758 15.3711C203.758 15.207 203.828 15.125 203.969 15.125L204.18 15.1602C204.531 15.2305 204.883 15.2656 205.234 15.2656C205.469 15.2656 205.645 15.2539 205.762 15.2305L211 14.668L211.352 14.6328C211.422 14.6328 211.574 14.6914 211.809 14.8086C212.043 14.9023 212.254 15.043 212.441 15.2305C212.629 15.3945 212.723 15.582 212.723 15.793C212.723 16.0039 212.629 16.2031 212.441 16.3906C212.254 16.5547 212.137 16.6719 212.09 16.7422C212.043 16.8125 211.492 17.5391 210.438 18.9219C209.383 20.2812 208.855 21.0547 208.855 21.2422C208.855 21.3359 208.914 21.418 209.031 21.4883C209.805 21.9805 210.707 22.707 211.738 23.668C212.184 24.0664 212.406 24.5352 212.406 25.0742C212.406 25.5664 212.195 26.0469 211.773 26.5156C210.391 27.9922 209.465 28.9531 208.996 29.3984C209.887 29.4219 210.953 29.5508 212.195 29.7852C222.227 31.7773 229.785 32.7734 234.871 32.7734H235.047C235.586 32.7734 235.855 32.8789 235.855 33.0898C235.855 33.1602 235.773 33.3594 235.609 33.6875C235.469 34.0156 235.27 34.3203 235.012 34.6016C234.754 34.8828 234.449 35.0234 234.098 35.0234H233.852ZM205.691 6.54688C205.691 6.35937 205.844 6.14844 206.148 5.91406C206.453 5.67969 206.699 5.5625 206.887 5.5625C207.121 5.5625 207.672 5.97266 208.539 6.79297C209.43 7.61328 210.262 8.49219 211.035 9.42969C211.832 10.3438 212.23 10.918 212.23 11.1523C212.23 11.3867 212.066 11.668 211.738 11.9961C211.434 12.3242 211.129 12.4883 210.824 12.4883C210.543 12.4883 210.262 12.2656 209.98 11.8203C208.855 10.2031 207.566 8.67969 206.113 7.25C205.832 6.96875 205.691 6.73438 205.691 6.54688ZM211.844 28.6602C211.844 28.3789 211.996 28.0156 212.301 27.5703C213.613 25.4375 214.574 23.1289 215.184 20.6445C215.816 18.1367 216.203 15.2422 216.344 11.9609L215.113 12.0664C214.926 12.0898 214.691 12.1016 214.41 12.1016C214.012 12.1016 213.707 12.0195 213.496 11.8555C213.168 11.5039 212.934 11.0586 212.793 10.5195C212.77 10.4727 212.758 10.4141 212.758 10.3438C212.758 10.25 212.816 10.2031 212.934 10.2031H213.004C213.191 10.2031 213.449 10.2266 213.777 10.2734C214.105 10.3203 214.363 10.3438 214.551 10.3438H214.867L219.965 9.99219C220.387 9.96875 220.867 9.85156 221.406 9.64062C221.477 9.59375 221.594 9.57031 221.758 9.57031C222.062 9.57031 222.426 9.74609 222.848 10.0977C223.293 10.4492 223.516 10.7305 223.516 10.9414C223.516 11.0586 223.445 11.1641 223.305 11.2578C223.164 11.3516 222.977 11.4102 222.742 11.4336L218.383 11.8203C218.289 13.1328 218.195 14.1055 218.102 14.7383L220.773 14.5977H221.055C221.43 14.5977 221.734 14.6797 221.969 14.8438C222.367 15.1953 222.566 15.5117 222.566 15.793C222.566 15.8867 222.543 16.0156 222.496 16.1797C222.449 16.3438 222.414 16.5078 222.391 16.6719C222.25 20.3281 221.922 23.6914 221.406 26.7617C221.195 27.957 220.844 28.7656 220.352 29.1875C219.859 29.6094 219.449 29.8203 219.121 29.8203C218.441 29.8203 217.469 28.8008 216.203 26.7617C215.992 26.4336 215.887 26.1875 215.887 26.0234C215.887 25.8594 215.969 25.7773 216.133 25.7773C216.297 25.7773 216.543 25.9062 216.871 26.1641C217.574 26.7266 218.184 27.125 218.699 27.3594C218.723 27.3828 218.77 27.3945 218.84 27.3945C218.98 27.3945 219.074 27.3359 219.121 27.2188C219.543 25.6016 219.836 23.9375 220 22.2266C220.188 20.5156 220.328 18.5703 220.422 16.3906L217.891 16.4961C217.562 19.0039 217.023 21.1953 216.273 23.0703C215.547 24.9219 214.48 26.6445 213.074 28.2383C212.629 28.707 212.301 28.9414 212.09 28.9414C211.926 28.9414 211.844 28.8477 211.844 28.6602ZM215.395 5.17578C215.395 4.96484 215.5 4.74219 215.711 4.50781C215.945 4.25 216.168 4.12109 216.379 4.12109C216.566 4.12109 217.059 4.39062 217.855 4.92969C218.676 5.44531 219.438 5.99609 220.141 6.58203C220.844 7.16797 221.195 7.57813 221.195 7.8125C221.195 8 221.066 8.26953 220.809 8.62109C220.551 8.94922 220.293 9.11328 220.035 9.11328C219.918 9.11328 219.789 9.06641 219.648 8.97266C219.531 8.85547 219.426 8.76172 219.332 8.69141C219.262 8.59766 219.203 8.52734 219.156 8.48047C218.734 8.03516 218.301 7.63672 217.855 7.28516C217.434 6.93359 217.023 6.62891 216.625 6.37109C216.25 6.08984 215.992 5.90234 215.852 5.80859C215.547 5.57422 215.395 5.36328 215.395 5.17578ZM222.707 14.3164C222.707 14.1523 222.801 13.8594 222.988 13.4375C223.621 12.2422 224.16 11 224.605 9.71094C225.074 8.39844 225.426 7.25 225.66 6.26562C225.918 5.25781 226.047 4.66016 226.047 4.47266C226.047 4.21484 226 3.98047 225.906 3.76953C225.883 3.72266 225.871 3.65234 225.871 3.55859C225.871 3.37109 225.977 3.27734 226.188 3.27734C226.352 3.27734 226.609 3.33594 226.961 3.45312C227.312 3.57031 227.617 3.73438 227.875 3.94531C228.156 4.15625 228.297 4.39062 228.297 4.64844C228.297 4.74219 228.285 4.8125 228.262 4.85938C227.957 5.89063 227.547 7.03906 227.031 8.30469L231.109 7.88281C231.18 7.88281 231.344 7.87109 231.602 7.84766C231.859 7.82422 232.152 7.75391 232.48 7.63672C232.621 7.58984 232.715 7.56641 232.762 7.56641C233.043 7.56641 233.383 7.74219 233.781 8.09375C234.18 8.44531 234.379 8.72656 234.379 8.9375C234.379 9.24219 234.168 9.41797 233.746 9.46484L226.258 10.0273C225.93 10.6602 225.496 11.4219 224.957 12.3125C224.934 12.3359 224.945 12.3477 224.992 12.3477C225.039 12.3242 225.086 12.3125 225.133 12.3125H225.238C225.52 12.4062 225.836 12.4531 226.188 12.4531L226.715 12.418L231.391 12.0312H231.602C231.812 12.0312 232.105 12.1133 232.48 12.2773C232.879 12.4414 233.078 12.6641 233.078 12.9453C233.078 13.1797 232.973 13.4023 232.762 13.6133C232.574 13.8008 232.469 13.918 232.445 13.9648C231.578 15.2773 230.547 16.5078 229.352 17.6562C229.656 18.3594 229.891 19.1094 230.055 19.9062L231.707 19.8008C232.27 19.7773 232.785 19.6953 233.254 19.5547C233.395 19.5078 233.477 19.4844 233.5 19.4844C233.734 19.4844 234.051 19.6484 234.449 19.9766C234.848 20.2812 235.047 20.5742 235.047 20.8555C235.047 21.1602 234.812 21.3359 234.344 21.3828L230.336 21.6289C230.547 22.918 230.652 24.3008 230.652 25.7773C230.652 27.6758 230.453 29.0469 230.055 29.8906C229.68 30.7344 229.176 31.1562 228.543 31.1562C228.121 31.1562 227.594 30.8984 226.961 30.3828C226.328 29.8438 225.766 29.2461 225.273 28.5898C224.781 27.9336 224.535 27.4766 224.535 27.2188C224.535 27.0781 224.605 27.0078 224.746 27.0078C224.957 27.0078 225.273 27.1484 225.695 27.4297C226.961 28.2734 227.723 28.6953 227.98 28.6953C228.191 28.6953 228.309 28.5898 228.332 28.3789C228.566 27.207 228.684 25.9648 228.684 24.6523C228.684 23.6211 228.613 22.6484 228.473 21.7344L225.73 21.9102L225.133 21.9453C224.477 21.9453 223.996 21.7812 223.691 21.4531C223.41 21.1016 223.223 20.7266 223.129 20.3281L223.094 20.1875C223.094 20.0703 223.164 20.0117 223.305 20.0117L223.48 20.0469C223.996 20.1641 224.477 20.2227 224.922 20.2227H225.238L228.086 20.0117C227.805 18.9805 227.383 17.9727 226.82 16.9883C226.75 16.8477 226.715 16.7305 226.715 16.6367C226.715 16.4492 226.867 16.2617 227.172 16.0742C227.5 15.8633 227.77 15.7578 227.98 15.7578C228.215 15.7578 228.414 15.8984 228.578 16.1797C229.305 15.3594 229.902 14.5391 230.371 13.7188L227.277 14.0703L226.434 14.1406C226.082 14.1406 225.777 14.0469 225.52 13.8594C225.285 13.6719 225.074 13.2617 224.887 12.6289C224.863 12.582 224.852 12.5117 224.852 12.418C224.5 13.0039 224.137 13.5195 223.762 13.9648C223.387 14.3867 223.105 14.5977 222.918 14.5977C222.777 14.5977 222.707 14.5039 222.707 14.3164ZM297.414 18.1484C297.273 18.1484 297.086 17.9961 296.852 17.6914C296.617 17.3633 296.512 17.082 296.535 16.8477C296.582 16.6602 296.617 16.1328 296.641 15.2656C296.664 14.6797 296.676 13.6484 296.676 12.1719C296.676 11.1406 296.664 10.4492 296.641 10.0977L295.48 10.2031C294.66 10.3203 293.957 10.3789 293.371 10.3789C293.207 10.3789 292.973 10.25 292.668 9.99219C292.363 9.73437 292.211 9.54688 292.211 9.42969C292.211 9.24219 292.41 9.17187 292.809 9.21875C293.066 9.24219 293.828 9.23047 295.094 9.18359C296.828 9.06641 298.082 8.99609 298.855 8.97266C299.254 8.94922 299.617 8.91406 299.945 8.86719C300.297 8.79688 300.543 8.75 300.684 8.72656C300.895 8.70313 301.082 8.72656 301.246 8.79688C301.41 8.86719 301.562 8.96094 301.703 9.07812C301.867 9.17187 301.996 9.24219 302.09 9.28906C302.301 9.42969 302.406 9.55859 302.406 9.67578C302.406 9.76953 302.348 9.86328 302.23 9.95703C302.137 10.0273 302.031 10.0625 301.914 10.0625C301.797 10.0625 301.633 10.0508 301.422 10.0273C301.234 10.0039 301.023 9.99219 300.789 9.99219C299.922 9.99219 299.031 10.0156 298.117 10.0625C298.094 10.25 298.082 10.7187 298.082 11.4688C298.035 12.7344 298.012 13.9766 298.012 15.1953V16.5664V16.8828C298.012 17.2812 297.977 17.5391 297.906 17.6562C297.695 17.9844 297.531 18.1484 297.414 18.1484ZM293.652 26.4805C293.395 26.4805 293.078 26.2812 292.703 25.8828C292.422 25.6016 292.281 25.3906 292.281 25.25C292.281 25.1797 292.328 25.1445 292.422 25.1445C292.516 25.1211 292.633 25.1094 292.773 25.1094L293.547 25.0742C293.992 25.0742 294.285 25.0625 294.426 25.0391C294.871 25.0391 295.246 25.0273 295.551 25.0039C297.566 24.8164 298.926 24.6641 299.629 24.5469C299.98 24.5 300.297 24.4531 300.578 24.4062C300.859 24.3359 301.082 24.3008 301.246 24.3008C301.574 24.3008 301.902 24.4648 302.23 24.793C302.488 25.0508 302.617 25.2617 302.617 25.4258C302.617 25.5664 302.535 25.6602 302.371 25.707C302.254 25.7305 301.562 25.7773 300.297 25.8477C299.594 25.8711 298.727 25.9297 297.695 26.0234C296.664 26.1172 295.762 26.2109 294.988 26.3047C294.848 26.3281 294.648 26.3633 294.391 26.4102C294.133 26.457 293.887 26.4805 293.652 26.4805ZM303.883 17.6211C304 17.6211 304.176 17.7031 304.41 17.8672C304.387 17.9141 304.434 18.0078 304.551 18.1484C304.668 18.2656 304.75 18.3477 304.797 18.3945C304.914 18.5117 305.031 18.6523 305.148 18.8164C305.289 18.9805 305.441 19.1562 305.605 19.3438C306.027 19.7891 307 20.9492 308.523 22.8242C308.781 23.1992 308.91 23.4219 308.91 23.4922C308.91 23.7266 308.77 23.8438 308.488 23.8438C308.324 23.8438 308.148 23.7266 307.961 23.4922C307.516 23.0234 306.719 22.2852 305.57 21.2773C304.68 20.457 303.871 19.8242 303.145 19.3789C302.793 19.2148 302.617 19.0273 302.617 18.8164C302.617 18.6523 302.793 18.418 303.145 18.1133C303.473 17.7852 303.719 17.6211 303.883 17.6211ZM268.27 14.5977C268.27 14.9492 268.398 15.2188 268.656 15.4062C268.938 15.5938 269.477 15.6875 270.273 15.6875C271.188 15.6875 271.926 15.6172 272.488 15.4766C273.051 15.3359 273.426 15.1953 273.613 15.0547C273.684 15.0078 273.777 14.9844 273.895 14.9844C274.129 14.9844 274.387 15.1719 274.668 15.5469C274.949 15.8984 275.09 16.1797 275.09 16.3906C275.09 16.625 274.867 16.7773 274.422 16.8477C272.359 17.082 270.836 17.1992 269.852 17.1992C268.516 17.1992 267.602 17.0469 267.109 16.7422C266.617 16.4375 266.371 15.8633 266.371 15.0195V14.8086L266.406 14.2109L265.457 14.3164C265.246 14.3398 264.977 14.3516 264.648 14.3516C264.016 14.3516 263.582 14.1641 263.348 13.7891C263.113 13.4141 262.996 13.1211 262.996 12.9102C262.996 12.8164 263.055 12.7695 263.172 12.7695L263.348 12.8047C263.676 12.875 264.016 12.9102 264.367 12.9102C264.672 12.9102 264.906 12.8984 265.07 12.875L266.477 12.7344L266.582 10.9062L262.855 11.1172C262.832 11.4922 262.82 12.0547 262.82 12.8047C262.797 13.2969 262.75 14.457 262.68 16.2852C262.633 18.1133 262.539 19.7188 262.398 21.1016C262.188 23.4453 261.754 25.6133 261.098 27.6055C260.441 29.5742 259.75 31.1445 259.023 32.3164C258.32 33.5117 257.805 34.1094 257.477 34.1094C257.289 34.1094 257.195 33.9688 257.195 33.6875C257.195 33.3828 257.289 33.043 257.477 32.668C258.719 30.043 259.539 27.1367 259.938 23.9492C260.336 20.7383 260.57 16.9766 260.641 12.6641V11.7852C260.641 10.7539 260.523 9.92188 260.289 9.28906C260.195 9.00781 260.148 8.83203 260.148 8.76172C260.148 8.62109 260.219 8.55078 260.359 8.55078C260.688 8.55078 261.578 8.91406 263.031 9.64062L266.688 9.39453L266.758 5.35156C266.758 4.97656 266.711 4.66016 266.617 4.40234C266.547 4.12109 266.418 3.82812 266.23 3.52344L266.16 3.34766C266.16 3.23047 266.277 3.17188 266.512 3.17188C267.168 3.19531 267.719 3.3125 268.164 3.52344C268.609 3.71094 268.832 3.99219 268.832 4.36719L268.797 6.01953L270.977 5.87891C271.562 5.85547 272.09 5.73828 272.559 5.52734C272.746 5.45703 272.922 5.42188 273.086 5.42188C273.391 5.42188 273.754 5.58594 274.176 5.91406C274.621 6.24219 274.844 6.53516 274.844 6.79297C274.844 7.05078 274.527 7.20312 273.895 7.25L268.762 7.56641V9.25391L275.055 8.79688H275.406C275.781 8.79688 276.133 8.9375 276.461 9.21875C276.812 9.47656 276.988 9.72266 276.988 9.95703C276.988 10.1211 276.883 10.3086 276.672 10.5195C276.461 10.7305 276.32 10.8828 276.25 10.9766C274.984 12.8984 274.105 13.8594 273.613 13.8594C273.449 13.8594 273.367 13.7539 273.367 13.543C273.367 13.3555 273.461 13.0508 273.648 12.6289C273.859 12.1836 274.094 11.457 274.352 10.4492L268.516 10.8008L268.375 12.5234L269.605 12.418C270.309 12.3242 270.871 12.2188 271.293 12.1016C271.363 12.0781 271.457 12.0664 271.574 12.0664C271.645 12.0664 271.797 12.125 272.031 12.2422C272.266 12.3359 272.477 12.4766 272.664 12.6641C272.852 12.8281 272.945 13.0039 272.945 13.1914C272.945 13.3086 272.898 13.4141 272.805 13.5078C272.711 13.6016 272.582 13.6484 272.418 13.6484L268.27 14.0352V14.5977ZM260.57 32.0703C260.57 31.9062 260.664 31.8242 260.852 31.8242C260.945 31.8242 261.016 31.8359 261.062 31.8594C261.438 31.9531 261.836 32 262.258 32C262.562 32 263.336 31.9062 264.578 31.7188C265.844 31.5312 267.391 31.2617 269.219 30.9102C269.57 30.4883 269.957 29.9141 270.379 29.1875C270.824 28.4375 271.047 27.8047 271.047 27.2891V27.1133C271.047 26.8789 271.129 26.7617 271.293 26.7617C271.551 26.7617 271.914 26.9492 272.383 27.3242C272.875 27.6992 273.121 28.0273 273.121 28.3086C273.121 28.4258 272.922 28.7305 272.523 29.2227C272.148 29.6914 271.809 30.0781 271.504 30.3828C272.957 30.0547 274.352 29.6914 275.688 29.293C275.828 29.2461 276.004 29.2227 276.215 29.2227C276.379 29.2227 276.496 29.2578 276.566 29.3281C276.66 29.375 276.707 29.4453 276.707 29.5391C276.707 29.7969 276.426 30.043 275.863 30.2773C273.637 31.1211 271.539 31.8125 269.57 32.3516C267.602 32.9141 265.984 33.3242 264.719 33.582C263.453 33.8398 262.738 33.9688 262.574 33.9688C262.223 33.9688 261.895 33.8398 261.59 33.582C261.285 33.3477 261.039 33.0664 260.852 32.7383C260.664 32.4336 260.57 32.2109 260.57 32.0703ZM263.102 18.6406C263.102 18.5469 263.16 18.5 263.277 18.5H263.418C263.816 18.5938 264.273 18.6406 264.789 18.6406H265.281L271.785 18.3945C272.348 18.3711 272.922 18.2539 273.508 18.043C273.555 18.0195 273.637 18.0078 273.754 18.0078C274.035 18.0078 274.41 18.2422 274.879 18.7109C275.16 19.0156 275.301 19.2617 275.301 19.4492C275.301 19.6602 275.102 19.7891 274.703 19.8359L265.844 20.1875L265.07 20.2227C264.555 20.2227 264.145 20.1172 263.84 19.9062C263.559 19.6953 263.324 19.332 263.137 18.8164C263.113 18.7695 263.102 18.7109 263.102 18.6406ZM263.594 21.4883C263.594 21.3477 263.699 21.2773 263.91 21.2773C264.145 21.2773 264.824 21.4531 265.949 21.8047L272.945 21.418L273.332 21.3828C273.566 21.3828 273.766 21.4531 273.93 21.5938C274.375 21.8984 274.598 22.168 274.598 22.4023C274.598 22.5195 274.551 22.6484 274.457 22.7891C274.387 22.9062 274.34 23 274.316 23.0703L273.719 24.9336C274.328 25.5195 274.633 25.918 274.633 26.1289C274.633 26.2461 274.562 26.3281 274.422 26.375C274.305 26.3984 274.164 26.4102 274 26.4102L266.441 26.7266V26.7969C266.441 26.9609 266.395 27.1016 266.301 27.2188C266.207 27.3125 266.078 27.3594 265.914 27.3594C265.609 27.3594 265.27 27.2539 264.895 27.043C264.543 26.832 264.367 26.5977 264.367 26.3398V26.2695C264.391 26.082 264.402 25.8125 264.402 25.4609C264.402 25.1797 264.391 24.9688 264.367 24.8281L264.156 23.3867C264.109 22.918 263.969 22.4375 263.734 21.9453C263.641 21.7109 263.594 21.5586 263.594 21.4883ZM265.316 28.4492C265.316 28.2383 265.434 28.0273 265.668 27.8164C265.902 27.6055 266.125 27.5 266.336 27.5C266.758 27.5 267.461 28.2266 268.445 29.6797C268.539 29.8672 268.586 29.9961 268.586 30.0664C268.586 30.3008 268.41 30.5469 268.059 30.8047C267.801 30.9922 267.566 31.0859 267.355 31.0859C267.145 31.0859 266.945 30.9219 266.758 30.5938C266.359 29.9375 265.938 29.3633 265.492 28.8711C265.375 28.707 265.316 28.5664 265.316 28.4492ZM266.266 25.1797L271.785 24.9688L272.277 23L266.055 23.2812L266.266 25.1797ZM274.809 33.3359C274.809 33.0781 275.031 32.7617 275.477 32.3867C277.844 30.3945 279.812 28.3203 281.383 26.1641C280.703 23.8672 280.129 21.2305 279.66 18.2539L279.449 16.25L278.008 16.4609C277.633 16.5078 277.363 16.5312 277.199 16.5312C276.801 16.5312 276.461 16.4258 276.18 16.2148C275.898 16.0039 275.688 15.7578 275.547 15.4766C275.406 15.1953 275.336 14.9961 275.336 14.8789C275.336 14.7617 275.406 14.7031 275.547 14.7031L275.688 14.7383C275.875 14.7852 276.145 14.8086 276.496 14.8086C276.777 14.8086 277 14.7969 277.164 14.7734L279.203 14.457C278.898 11.8555 278.664 8.91406 278.5 5.63281C278.453 4.92969 278.277 4.39062 277.973 4.01562C277.879 3.89844 277.832 3.79297 277.832 3.69922C277.832 3.55859 277.961 3.48828 278.219 3.48828C278.617 3.48828 279.098 3.60547 279.66 3.83984C280.246 4.07422 280.539 4.37891 280.539 4.75391C280.656 7.89453 280.891 11.0234 281.242 14.1406L285.039 13.5781C285.531 13.5078 285.93 13.3672 286.234 13.1562C286.281 13.1094 286.363 13.0859 286.48 13.0859C286.762 13.0859 287.148 13.2734 287.641 13.6484C288.133 14.0234 288.379 14.3164 288.379 14.5273C288.379 14.7852 288.109 14.9492 287.57 15.0195L281.453 15.9336L281.664 17.9727C282.016 20.3164 282.414 22.3203 282.859 23.9844C283.469 22.9531 284.055 21.7695 284.617 20.4336C285.18 19.0742 285.461 18.0781 285.461 17.4453C285.461 17.1875 285.555 17.0586 285.742 17.0586C286.047 17.0586 286.457 17.2695 286.973 17.6914C287.512 18.1133 287.781 18.4648 287.781 18.7461C287.781 18.8164 287.77 18.875 287.746 18.9219C287.723 18.9688 287.699 19.0156 287.676 19.0625C286.387 21.875 285.004 24.2891 283.527 26.3047C284.629 29.4688 285.906 31.5078 287.359 32.4219L287.535 32.4922C287.652 32.4922 287.852 32.0469 288.133 31.1562C288.438 30.2422 288.754 28.9766 289.082 27.3594C289.176 26.9141 289.281 26.5742 289.398 26.3398C289.539 26.1055 289.668 25.9883 289.785 25.9883C289.902 25.9883 289.996 26.1172 290.066 26.375C290.16 26.6094 290.207 26.9375 290.207 27.3594V27.5703C290.184 28.625 290.113 29.6211 289.996 30.5586C289.902 31.4727 289.703 32.5508 289.398 33.793C289.281 34.2852 289.117 34.625 288.906 34.8125C288.719 35 288.461 35.0938 288.133 35.0938C287.922 35.0938 287.676 35.0586 287.395 34.9883C286.668 34.8242 285.812 34.2148 284.828 33.1602C283.844 32.1289 282.918 30.4531 282.051 28.1328C281.113 29.1641 280.152 30.1016 279.168 30.9453C278.184 31.7656 277.316 32.4102 276.566 32.8789C275.84 33.3477 275.359 33.582 275.125 33.582C274.914 33.582 274.809 33.5 274.809 33.3359ZM281.84 7.39062C281.84 7.22656 281.957 7.02734 282.191 6.79297C282.426 6.55859 282.672 6.44141 282.93 6.44141C283.117 6.44141 283.281 6.53516 283.422 6.72266C284.078 7.40234 284.758 8.17578 285.461 9.04297C286.188 9.91016 286.551 10.4727 286.551 10.7305C286.551 10.918 286.398 11.1523 286.094 11.4336C285.789 11.7148 285.52 11.8555 285.285 11.8555C285.098 11.8555 284.922 11.75 284.758 11.5391C284.055 10.3672 283.141 9.13672 282.016 7.84766C281.898 7.68359 281.84 7.53125 281.84 7.39062Z" fill="#333333"/>
</svg>
