<svg xmlns="http://www.w3.org/2000/svg" width="350" height="88" fill="none"><path fill="#333" d="M136.012 14.598c-.375 0-.598-.188-.668-.563-.141-.398-.516-.89-1.125-1.476l.105-.141c.094.047.364.164.809.352.445.164.75.246.914.246h.316a.68.68 0 0 0 .246-.176c.282-.211.633-.692 1.055-1.442.305-.609.574-1.324.809-2.144.257-.82.386-1.441.386-1.863 0-.118-.093-.176-.281-.176l-1.336.07-.914.07-.598.036-.246.035c.164.117.27.222.317.316.07.07.105.164.105.281 0 .118-.14.446-.422.985-.234.515-.609 1.101-1.125 1.758-.421.562-.996 1.171-1.722 1.828-.703.633-1.231.96-1.582.984a.66.66 0 0 1-.211-.035.239.239 0 0 1-.071-.176c0-.023.188-.246.563-.668l.984-1.16c.703-.937 1.418-2.133 2.145-3.586.07-.187.035-.293-.106-.316-.14.023-.433.058-.879.105a4.535 4.535 0 0 0-1.195.211 1.13 1.13 0 0 0-.246.106 1.16 1.16 0 0 1-.351.07.478.478 0 0 1-.352-.14l-.281-.247c-.211-.164-.317-.316-.317-.457 0-.047.024-.117.071-.21l.175-.282c.094-.117.246-.305.457-.563.211-.257.446-.609.704-1.054.046-.094.14-.305.281-.633.164-.328.246-.527.246-.598v-.14c0-.14.023-.235.07-.282.047-.046.153-.046.317 0 .164.047.363.176.597.387l.387.387c.07.07.105.152.105.246 0 .234-.328.656-.984 1.266a4.095 4.095 0 0 0-.422.527c-.164.234-.246.387-.246.457 0 .14.106.187.316.14l.809-.105c1.852-.281 3.246-.445 4.184-.492l.949-.14.316-.071.176-.035c.188 0 .316.023.387.07.07.047.14.13.211.246.07.094.14.176.211.246.164.188.281.352.351.493l.071.316-.071.14-.07.212a2.045 2.045 0 0 0-.106.351c-.023.094-.058.2-.105.316-.492 1.899-1.066 3.375-1.723 4.43-.211.375-.574.75-1.09 1.125-.492.375-.925.563-1.3.563Zm3.199 9.07c-.352 0-.691-.258-1.02-.773-.421-.657-.832-1.196-1.23-1.618l-.914-.949a14.424 14.424 0 0 1-1.301 1.336 6.992 6.992 0 0 1-1.336.95c-1.008.585-1.851.878-2.531.878-.164 0-.246-.058-.246-.176 0-.07.222-.222.668-.457a7.422 7.422 0 0 0 1.265-.843c1.008-.844 1.84-1.711 2.496-2.602-.14-.14-.843-.75-2.109-1.828-.164-.117-.41-.316-.738-.598a9.494 9.494 0 0 1-.422-.316c-.211-.164-.316-.281-.316-.352 0-.117.058-.175.175-.175.352 0 .914.246 1.688.738a25.67 25.67 0 0 1 2.426 1.687 6.91 6.91 0 0 0 .773-1.125c.188-.351.399-.785.633-1.3a2.41 2.41 0 0 0 .211-.668c.023-.211.035-.34.035-.387 0-.258.07-.387.211-.387.164 0 .387.129.668.387.492.469.738.785.738.95 0 .093-.058.198-.176.316-.281.28-.539.656-.773 1.124-.141.282-.398.68-.774 1.196-.117.14-.21.27-.281.387-.07.117-.14.222-.211.316.539.398 1.336 1.078 2.391 2.039.258.234.422.457.492.668.094.187.141.445.141.773 0 .235-.059.434-.176.598a.567.567 0 0 1-.457.211Zm-2.32 4.324c-.235.305-.481.457-.739.457-.07 0-.105-.058-.105-.176 0-.164.047-.351.141-.562l.703-1.406a1.34 1.34 0 0 1 .105-.282c.047-.093.082-.175.106-.246v-.035c0-.047-.036-.094-.106-.14a.295.295 0 0 0-.246-.036c-.375.024-.938.082-1.688.176-.726.094-1.265.188-1.617.281l-.527.176a1.38 1.38 0 0 1-.457.106c-.422 0-.773-.13-1.055-.387a2.17 2.17 0 0 1-.527-.492l-.07-.176c0-.117.199-.152.597-.105.539.046 1.653-.024 3.34-.211l.703-.106.879-.105c.422-.07.75-.141.984-.211l.211-.07a.568.568 0 0 1 .247-.07c.117 0 .257.058.421.175.188.117.34.223.457.316.164.117.27.223.317.317.07.07.094.164.07.28 0 .118-.058.224-.176.317a3.38 3.38 0 0 0-.246.211c-.047.07-.211.246-.492.528-.117.187-.328.445-.633.773-.281.328-.48.563-.597.703Zm-1.758 6.926c0-.07.117-.258.351-.563.258-.28.457-.503.598-.667.352-.47.773-1.149 1.266-2.04.515-.89.808-1.476.879-1.757.046-.141-.024-.211-.211-.211-.375 0-1.407.105-3.094.316-1.102.14-1.922.281-2.461.422a.677.677 0 0 1-.352.105c-.187 0-.386-.128-.597-.386a.93.93 0 0 1-.141-.457c0-.094.059-.188.176-.282l.105-.14c.071-.14.153-.328.246-.563.094-.234.176-.457.247-.668.117-.375.199-.785.246-1.23.023-.258.164-.328.421-.211.329.164.575.328.739.492.187.14.246.246.176.317a3.5 3.5 0 0 0-.563.949 9.83 9.83 0 0 0-.211.738c0 .094.059.14.176.14.351 0 .879-.058 1.582-.175l1.477-.176c.585-.07 1.054-.14 1.406-.21l.879-.177a.91.91 0 0 1 .281-.035c.117 0 .234.047.351.14.118.071.247.165.387.282.235.211.387.387.457.527a.799.799 0 0 1 .106.422c0 .094-.071.211-.211.352-.117.14-.258.363-.422.668-.68 1.383-1.559 2.543-2.637 3.48a4.86 4.86 0 0 1-1.019.598c-.164.047-.317.07-.457.07-.118.024-.176 0-.176-.07Zm-8.86-1.477c0 .563-.164 1.008-.492 1.336-.328.352-.691.528-1.09.528-.281 0-.738-.258-1.371-.774a14.323 14.323 0 0 1-1.687-1.687c-.516-.61-.774-1.02-.774-1.23 0-.165.082-.247.246-.247.188 0 .446.094.774.281 1.008.563 1.758.926 2.25 1.09l.211-8.965-3.586.176-.07 9.211c0 .281-.047.492-.141.633-.07.164-.211.246-.422.246-.281 0-.621-.117-1.019-.352-.399-.21-.598-.48-.598-.808 0-.117.012-.211.035-.281.117-.703.176-1.524.176-2.461l.07-6.117-2.918.14.141 9.106c0 .586-.199.879-.598.879-.281 0-.633-.141-1.055-.422-.398-.282-.597-.563-.597-.844v-.211c.094-.586.14-1.406.14-2.461l-.07-5.977-2.918.141.106 9.914c0 .516-.188.774-.563.774a3.4 3.4 0 0 1-1.265-.493c-.329-.21-.493-.48-.493-.808l.035-.317c.118-.773.176-1.453.176-2.039l-.035-6.89c0-.89-.105-1.57-.316-2.04-.094-.234-.141-.386-.141-.456 0-.164.094-.246.281-.246.352 0 1.102.293 2.25.878l3.164-.14c.891-1.406 1.336-2.531 1.336-3.375v-.246l-4.64.246h-.493c-.609 0-1.019-.094-1.23-.281a3.732 3.732 0 0 1-.668-.809c-.187-.305-.281-.55-.281-.738 0-.188.094-.282.281-.282l.281.07c.469.141.938.212 1.407.212h.316l12.867-.739a5.415 5.415 0 0 0 1.231-.21 1.93 1.93 0 0 1 .386-.07c.258 0 .598.187 1.02.562.422.351.633.68.633.984 0 .281-.293.445-.879.492l-8.578.457c.422.235.632.469.632.703 0 .141-.164.504-.492 1.09a40.772 40.772 0 0 1-1.09 1.828l8.649-.422.457-.035c.328 0 .644.117.949.352.305.234.457.515.457.844 0 .093-.035.234-.105.422a1.51 1.51 0 0 0-.071.386l-.211 8.508v.984Zm-31.148-5.695c0-.187.14-.281.422-.281.562 0 1.207-.082 1.934-.246a57.126 57.126 0 0 0 4.007-1.055c.914-2.836 1.547-5.05 1.899-6.645.351-1.617.527-2.671.527-3.163 0-.118-.023-.317-.07-.598a1.28 1.28 0 0 1-.035-.317c0-.21.082-.316.246-.316.14 0 .386.082.738.246.352.14.668.328.949.563.305.234.457.504.457.808 0 .117-.011.2-.035.246a54.404 54.404 0 0 1-1.16 4.114 239.407 239.407 0 0 1-1.547 4.464 95.065 95.065 0 0 0 3.234-1.09c.633-.21 1.102-.316 1.407-.316.257 0 .386.059.386.176 0 .305-.855.89-2.566 1.758a76.51 76.51 0 0 1-5.484 2.46c-1.97.798-3.13 1.196-3.48 1.196-.259 0-.563-.188-.915-.563a4.814 4.814 0 0 1-.808-1.125c-.07-.14-.106-.246-.106-.316Zm.422-14.555c0-.14.094-.21.281-.21.117 0 .223.011.316.035.399.093.844.14 1.337.14h.457l6.503-.422a6.06 6.06 0 0 0 1.582-.28c.188-.071.352-.106.493-.106.257 0 .515.093.773.28.258.188.469.411.633.669.164.234.246.41.246.527 0 .235-.176.387-.527.457l-.246.035-9 .633c-.211.024-.48.035-.81.035-.468 0-.854-.117-1.16-.351-.304-.258-.527-.527-.667-.809-.14-.304-.211-.515-.211-.633Zm2.25 3.657c0-.282.14-.47.422-.563a2.1 2.1 0 0 1 .808-.176c.188 0 .329.059.422.176.117.117.223.305.317.563.398 1.101.808 2.484 1.23 4.148.422 1.64.633 2.625.633 2.953 0 .305-.164.54-.492.703-.305.164-.61.246-.914.246-.188 0-.329-.058-.422-.175-.07-.117-.13-.317-.176-.598-.469-2.672-1.031-4.922-1.688-6.75-.093-.281-.14-.457-.14-.527Zm1.195-9.282c0-.187.094-.41.281-.668.188-.257.364-.41.528-.457a.49.49 0 0 1 .211-.035c.14 0 .316.07.527.211.164.094.996.598 2.496 1.512 1.5.89 2.297 1.547 2.391 1.969.07.28-.047.597-.352.949-.304.328-.551.515-.738.562l-.106.036c-.117 0-.328-.106-.632-.317-1.758-1.43-3.153-2.473-4.184-3.129a3.825 3.825 0 0 1-.316-.281.678.678 0 0 1-.106-.352Zm10.653-.035c0-.14.093-.21.281-.21.117 0 .351.034.703.105.351.07.68.199.984.386.328.188.492.434.492.739v.07l-.21 4.219 3.972-.352.071-6.328c0-.61-.188-1.148-.563-1.617-.094-.117-.141-.223-.141-.316 0-.118.129-.176.387-.176.656 0 1.219.117 1.688.351.492.211.738.504.738.88l-.106 7.03 4.641-.386.07-3.235c0-.68-.105-1.218-.316-1.617-.094-.164-.141-.304-.141-.422 0-.117.094-.175.282-.175.398 0 .878.105 1.441.316.562.21.844.562.844 1.055v.105l-.282 6.82c-.023.329-.082.575-.175.739-.071.14-.211.21-.422.21-.281 0-.621-.117-1.02-.35-.375-.259-.562-.563-.562-.915 0-.14.011-.258.035-.352l.105-.527-10.195 1.02a3.58 3.58 0 0 0-.808.175c-.282.07-.481.106-.598.106-.211 0-.457-.117-.738-.352-.258-.234-.387-.468-.387-.703 0-.094.023-.234.07-.422.117-.539.176-.984.176-1.336l.07-2.636c0-.657-.093-1.172-.281-1.547a.832.832 0 0 1-.105-.352Zm83.566 17.192c-.352 0-.691-.258-1.02-.774-.421-.656-.832-1.195-1.23-1.617l-.914-.95a14.424 14.424 0 0 1-1.301 1.337 6.992 6.992 0 0 1-1.336.949c-1.008.586-1.851.879-2.531.879-.164 0-.246-.059-.246-.176 0-.07.222-.223.668-.457a7.428 7.428 0 0 0 1.265-.844c1.008-.843 1.84-1.71 2.496-2.601-.14-.14-.843-.75-2.109-1.828a11.99 11.99 0 0 1-.738-.598 9.494 9.494 0 0 1-.422-.316c-.211-.165-.316-.282-.316-.352 0-.117.058-.176.175-.176.352 0 .914.246 1.688.738a25.651 25.651 0 0 1 2.426 1.688 6.91 6.91 0 0 0 .773-1.125c.188-.352.399-.785.633-1.3a2.41 2.41 0 0 0 .211-.669c.023-.21.035-.34.035-.386 0-.258.07-.387.211-.387.164 0 .387.129.668.387.492.468.738.785.738.949 0 .093-.058.199-.176.316-.281.281-.539.656-.773 1.125-.141.281-.398.68-.774 1.195-.117.141-.21.27-.281.387-.07.117-.14.223-.211.317.539.398 1.336 1.078 2.391 2.039.258.234.422.457.492.668.094.187.141.445.141.773 0 .234-.059.434-.176.598a.567.567 0 0 1-.457.21Zm7.312-12.867c.071 0 .141.035.211.105a.337.337 0 0 1 .141.21v.071c0 .164-.129.48-.387.95l-2.531 4.394c-.187.398-.434.598-.738.598-.305 0-.563-.188-.774-.563-.211-.305-.468-.762-.773-1.371a4.26 4.26 0 0 1-.352-.633 11.004 11.004 0 0 0-.211-.457c-.257-.445-.386-.762-.386-.95 0-.093.035-.163.105-.21.07-.07.141-.105.211-.105.258 0 .492.14.703.421.164.164.293.34.387.528l.387.527.703.809.316-.492c.328-.563 1.102-1.676 2.32-3.34.258-.329.481-.493.668-.493ZM167.09 34.883c0 .492-.223.738-.668.738-.094 0-.305-.047-.633-.14a2.54 2.54 0 0 1-.879-.493c-.281-.234-.422-.55-.422-.949l.035-.246c.094-.633.141-1.336.141-2.11l.07-9.878-11.074.597c-.328.024-.726.035-1.195.035-.539 0-.973-.14-1.301-.421-.328-.305-.562-.621-.703-.95-.117-.351-.176-.609-.176-.773 0-.14.082-.211.246-.211.094 0 .176.012.246.035a7.89 7.89 0 0 0 1.688.211h.281l12.024-.668.07-8.332-5.379.317c-1.055 1.734-2.039 3.117-2.953 4.148-.914 1.031-1.676 1.746-2.285 2.145-.586.398-.938.597-1.055.597-.117 0-.176-.058-.176-.176 0-.164.129-.433.387-.808 1.055-1.383 2.074-2.953 3.059-4.711.984-1.758 1.781-3.41 2.39-4.957.61-1.57.914-2.766.914-3.586v-.422c0-.281.094-.422.281-.422.071 0 .329.082.774.246.469.164.879.375 1.23.633.375.234.563.469.563.703 0 .281-.27.985-.809 2.11a108.781 108.781 0 0 1-1.195 2.39l11.848-.738a7.288 7.288 0 0 0 1.582-.317.6.6 0 0 1 .246-.035c.281 0 .679.223 1.195.668.516.446.773.809.773 1.09s-.292.445-.878.492l-8.192.492-.035 8.368 9.949-.563a6.824 6.824 0 0 0 1.617-.316c.141-.047.247-.07.317-.07.14 0 .375.105.703.316.328.21.621.457.879.738.258.281.387.54.387.774 0 .304-.27.48-.809.527l-13.043.703-.035 13.219Zm79.031-20.496c-.164 0-.34-.106-.527-.317a2.15 2.15 0 0 1-.282-.386c-.046-.118-.046-.27 0-.457l.036-.844c.023-.164.035-.563.035-1.195v-1.16l-1.055.492-1.23.527a10.87 10.87 0 0 0-.95.422c-.281.14-.527.21-.738.21a2.17 2.17 0 0 1-.562-.175 4.837 4.837 0 0 1-.493-.246c-.257-.164-.375-.34-.351-.527l.105-.352c0-.188.012-.352.036-.492l.035-2.04V5.95c0-.375-.024-.691-.071-.949-.047-.281-.082-.48-.105-.598 0-.117.035-.199.105-.246.024-.023.082-.035.176-.035.164 0 .481.106.949.316.399.188.563.422.493.704-.047.164-.094.41-.141.738l-.106 4.043c0 .117.012.21.036.281.046.047.093.07.14.07.282 0 .621-.082 1.02-.246.75-.234 1.394-.468 1.933-.703l.774-.316v-2.32c0-.938-.059-1.84-.176-2.708a.792.792 0 0 1-.035-.246c0-.234.094-.351.281-.351.024 0 .152.047.387.14.351.188.609.352.773.493.164.14.258.222.282.246.093.07.14.14.14.21a.34.34 0 0 1-.07.176c-.024.07-.047.13-.07.176l-.106 1.055-.035 3.234.035 3.13c0 .538-.035 1.007-.105 1.405-.118.493-.305.739-.563.739Zm-6.469 5.765c-.257 0-.574-.199-.949-.597-.281-.282-.422-.492-.422-.633 0-.07.047-.106.141-.106a1.48 1.48 0 0 1 .351-.035l.774-.035c.445 0 .738-.012.879-.035.445 0 .82-.012 1.125-.035 2.015-.188 3.375-.34 4.078-.457a29.8 29.8 0 0 0 .949-.14c.281-.071.504-.106.668-.106.328 0 .656.164.984.492.258.258.387.469.387.633 0 .14-.082.234-.246.28-.117.024-.809.071-2.074.142-.703.023-1.57.082-2.602.175a92.491 92.491 0 0 0-2.707.282c-.14.023-.34.058-.597.105-.258.047-.504.07-.739.07Zm4.711 14.52c-.726 0-1.289-.024-1.687-.07a1.68 1.68 0 0 1-.949-.422c-.446-.328-.75-1.043-.915-2.145l-.105-1.125c0-.281-.023-.633-.07-1.055a5.987 5.987 0 0 0-.809.141 3.817 3.817 0 0 1-.246.106.965.965 0 0 1-.211.035.81.81 0 0 1-.457-.14c-.141-.095-.316-.27-.527-.528-.164-.211-.246-.352-.246-.422s.082-.117.246-.14c.164-.024.386-.036.668-.036.398 0 .914-.047 1.547-.14l-.036-.493c0-.937-.058-1.734-.175-2.39l-.036-.246c0-.329.129-.457.387-.387.281.094.539.21.774.351.187.094.316.188.386.282.071.07.094.175.071.316l-.106 1.512v.914l3.094-.317c0-.164.012-.55.035-1.16.024-.633.024-1.043 0-1.23 0-.188-.023-.363-.07-.527a6.529 6.529 0 0 0-.071-.458c0-.187.094-.28.282-.28.187 0 .422.105.703.316.328.21.539.398.633.562.117.164.14.363.07.598a6.4 6.4 0 0 0-.246 1.265c-.047.47-.07.75-.07.844.281-.023.539-.058.773-.105.234-.047.387-.07.457-.07.188-.047.41-.071.668-.071.141.023.34.164.598.422.211.281.316.504.316.668 0 .234-.223.328-.668.281a6.863 6.863 0 0 0-1.195-.105c-.399 0-.738.011-1.02.035-.07.844-.211 1.676-.422 2.496a.953.953 0 0 1-.246.457c-.117.14-.222.21-.316.21-.164 0-.27-.07-.317-.21a3.524 3.524 0 0 1-.035-.598c.047-.61.071-1.37.071-2.285a26.99 26.99 0 0 0-1.477.14 9.357 9.357 0 0 1-1.512.212c-.023.96.024 1.816.141 2.566.07.492.211.832.422 1.02.14.117.305.187.492.21.211.024.422.036.633.036h.422c.726 0 1.406-.035 2.039-.106a1.52 1.52 0 0 0 .492-.14c.164-.07.281-.106.352-.106.21 0 .421.07.632.211.211.14.317.305.317.492 0 .188-.106.328-.317.422-.187.094-.492.176-.914.246-.75.094-1.5.14-2.25.14Zm10.02-15.996c.281 0 .422.129.422.387 0 .14-.129.34-.387.597-.703.867-2.098 2.52-4.184 4.957-.164.211-.316.317-.457.317-.117 0-.375-.176-.773-.528-.328-.281-.492-.515-.492-.703 0-.21.176-.41.527-.598.539-.304 1.348-.914 2.426-1.828 1.078-.96 1.875-1.722 2.39-2.285.211-.21.387-.316.528-.316Zm-44.684 11.496c2.086-.656 3.949-1.371 5.59-2.145a25.586 25.586 0 0 0-1.336-1.687c-.187-.235-.281-.422-.281-.563 0-.258.152-.48.457-.668.305-.21.539-.316.703-.316.188 0 .387.117.598.352a137.853 137.853 0 0 1 3.41 4.148c.937 1.195 1.406 1.922 1.406 2.18 0 .21-.164.457-.492.738-.305.305-.598.457-.879.457-.234 0-.469-.188-.703-.563a96.435 96.435 0 0 0-1.828-2.671l-4.219 2.109c-.469.21-1.207.586-2.215 1.125-.844.445-1.359.668-1.547.668-.14 0-.316-.094-.527-.281a1.65 1.65 0 0 1-.492-.633c-.094-.234-.094-.422 0-.563.14-.257.211-1.289.211-3.093V16.602c0-.563-.024-1.02-.071-1.372a3.587 3.587 0 0 0-.281-1.125 1.37 1.37 0 0 0-.07-.175.305.305 0 0 1-.035-.14c0-.118.082-.177.246-.177.304 0 1.066.258 2.285.774l7.629-.528c.187-.023.398-.035.633-.035.257 0 .562.117.914.352.351.21.527.445.527.703 0 .094-.059.234-.176.422-.094.187-.14.328-.14.422l-.914 6.609c.562.656.843 1.102.843 1.336 0 .117-.07.2-.211.246-.117.047-.304.07-.562.07l-8.508.317.035 5.87Zm-5.765-15.785c0-.235.152-.516.457-.844 1.711-1.898 3.199-3.785 4.464-5.66 1.266-1.875 1.899-3.13 1.899-3.762l-.035-.246V3.77c0-.329.129-.493.386-.493.305 0 .727.211 1.266.633.563.399.844.727.844.985 0 .117-.059.27-.176.457a23.895 23.895 0 0 1-1.16 1.687l4.992-.387a4.872 4.872 0 0 0 1.336-.28c.141-.048.246-.071.316-.071.352 0 .727.199 1.125.597.422.375.633.668.633.88 0 .28-.258.445-.773.492l-6.012.421c.164.047.527.293 1.09.739.586.445 1.113.902 1.582 1.37.469.47.703.798.703.985 0 .211-.141.469-.422.774-.281.28-.527.421-.738.421-.188 0-.41-.152-.668-.457a21.796 21.796 0 0 0-2.426-2.285c-.281-.234-.422-.433-.422-.597 0-.118.059-.27.176-.457.117-.188.27-.34.457-.457l-2.355.175a34.406 34.406 0 0 1-3.727 3.903c-1.359 1.195-2.226 1.793-2.601 1.793-.141 0-.211-.07-.211-.211Zm12.656 3.656.246-2.461-7.242.492v2.32l6.996-.351Zm-.457 4.36.281-2.708-6.785.317v2.636l6.504-.246Zm1.898-9.528c0-.234.153-.516.457-.844 1.149-1.383 2.192-2.941 3.129-4.676.961-1.757 1.442-2.988 1.442-3.69v-.142c0-.351.129-.527.386-.527.164 0 .41.094.739.281.351.164.668.364.949.598.281.234.422.469.422.703 0 .211-.164.586-.493 1.125-.328.54-.503.82-.527.844l6.926-.563a6.483 6.483 0 0 0 1.336-.246c.047-.023.141-.035.281-.035.328 0 .68.188 1.055.563.398.351.597.644.597.879 0 .14-.07.257-.21.351-.118.07-.282.117-.493.14l-7.136.493c.656.422 1.429 1.043 2.32 1.863.891.797 1.336 1.336 1.336 1.617 0 .164-.129.422-.387.774-.258.328-.504.492-.738.492-.188 0-.387-.117-.598-.352-1.148-1.242-2.191-2.226-3.129-2.953-.234-.187-.351-.363-.351-.527 0-.188.176-.469.527-.844l-2.601.176c-.774 1.031-1.711 2.074-2.813 3.129-1.078 1.055-1.805 1.582-2.18 1.582-.164 0-.246-.07-.246-.211Zm3.305.773c0-.14.082-.21.246-.21.352 0 1.148.292 2.391.878l7.066-.597.281-.035c.094 0 .27.046.528.14.281.07.539.2.773.387.258.164.387.387.387.668 0 .094-.035.223-.106.387-.07.164-.105.28-.105.351a88.243 88.243 0 0 1-.492 8.262l-.071.879c-.07.984-.164 1.805-.281 2.46-.117.657-.316 1.173-.598 1.548-.445.609-.925.914-1.441.914s-1.172-.317-1.969-.95a18.576 18.576 0 0 1-2.215-2.074c-.656-.75-.984-1.23-.984-1.441 0-.164.094-.246.281-.246.211 0 .504.117.879.351.867.54 1.594.973 2.18 1.301.586.328 1.008.492 1.266.492.117 0 .199-.082.246-.246.539-3 .867-6.762.984-11.285l-6.609.492c0 3.961.035 10.242.105 18.844 0 .21-.058.363-.176.457a.466.466 0 0 1-.386.176c-.188 0-.411-.07-.668-.211-.446-.188-.762-.363-.95-.528-.187-.164-.281-.351-.281-.562l.035-.246c.141-.773.211-1.64.211-2.602l-.105-14.836c0-.609-.024-1.078-.07-1.406a3.306 3.306 0 0 0-.211-.95c-.094-.28-.141-.468-.141-.562ZM136.719 72.844c-.146 0-.073-.125.219-.375.291-.25.645-.552 1.062-.906a16.43 16.43 0 0 0 1.406-1.47 4.31 4.31 0 0 0 .75-1.25c.104-.25.219-.374.344-.374.104 0 .26.083.469.25.416.333.625.614.625.844 0 .145-.084.25-.25.312-.084.02-.209.115-.375.281-.167.146-.292.26-.375.344-.896.875-1.729 1.51-2.5 1.906-.625.292-1.042.438-1.25.438h-.125ZM140 78.656c-.062 0-.167-.083-.312-.25a2.624 2.624 0 0 1-.282-.531 1.735 1.735 0 0 1 0-.469c.042-.208.063-.364.063-.469.041-.416.062-.75.062-1 .021-.229.021-.479 0-.75v-.53l-.031-.47c-.5.355-.885.605-1.156.75-.604.334-1.042.542-1.313.626a2.606 2.606 0 0 1-.906.187c-.146 0-.229-.02-.25-.063-.042-.083.375-.385 1.25-.906.833-.52 1.74-1.208 2.719-2.062.541-.5.958-.98 1.25-1.438a.713.713 0 0 0 .094-.219c.041-.104.083-.166.124-.187.063-.02.146-.01.25.031.271.146.5.354.688.625a.503.503 0 0 1 .125.313c0 .104-.052.208-.156.312a1.245 1.245 0 0 1-.313.188 6.99 6.99 0 0 0-.968.75c-.292.27-.48.448-.563.531.313.25.469.427.469.531l-.094.656c-.042.188-.062.657-.062 1.407 0 .729.02 1.219.062 1.469v.062a.772.772 0 0 1-.094.344 2.888 2.888 0 0 1-.094.219c-.145.229-.333.343-.562.343Zm-20.25-6c-.5.042-.854.063-1.062.063-.417 0-.688-.063-.813-.188-.25-.229-.479-.52-.687-.875-.188-.375-.282-.604-.282-.687 0-.104.115-.156.344-.156.354.083.75.124 1.188.124.208 0 .562-.02 1.062-.062l7.531-.563h.407c.479 0 .864.146 1.156.438.312.27.468.52.468.75a.56.56 0 0 1-.218.438c-.125.124-.271.24-.438.343a1.431 1.431 0 0 0-.344.219c-2.937 2.563-5.02 4.438-6.25 5.625-.874.833-1.562 1.656-2.062 2.469-.5.812-.75 1.448-.75 1.906 0 .458.167.813.5 1.063.354.229.896.385 1.625.468.729.084 1.76.125 3.094.125 2.166 0 4.073-.114 5.719-.344.395-.041.687-.187.874-.437.209-.25.386-.677.532-1.281.166-.625.385-1.688.656-3.188.083-.416.177-.74.281-.969.104-.229.209-.343.313-.343.104 0 .187.125.25.375.083.229.125.573.125 1.031 0 1.854-.063 3.219-.188 4.094-.104.854-.333 1.479-.687 1.875-.354.396-.927.656-1.719.781-1.854.25-3.948.375-6.281.375a41.41 41.41 0 0 1-4.156-.188c-1.021-.104-1.782-.49-2.282-1.156a3.762 3.762 0 0 1-.718-2.25c0-.708.281-1.562.843-2.562.563-1 1.281-1.906 2.157-2.719 1.166-1.083 3.02-2.76 5.562-5.031l-5.75.437Zm-14.531-7.187c0-.146.104-.219.312-.219.313 0 1 .198 2.063.594l4.437-.281c.167-.021.375-.032.625-.032.375 0 .677.115.906.344.25.23.376.48.376.75 0 .125-.032.26-.094.406-.042.146-.073.25-.094.313l-.594 7.312c.5.646.75 1.094.75 1.344 0 .146-.062.24-.187.281-.125.021-.354.042-.688.063l-5 .187.063 1.656v.063c0 .396-.177.594-.532.594-.333 0-.677-.104-1.031-.313-.333-.208-.5-.52-.5-.937 0-.146.011-.26.031-.344.063-.354.094-.677.094-.969l-.031-.625-.313-7.969c-.041-.77-.166-1.333-.374-1.687-.146-.25-.219-.427-.219-.531Zm2.719 9.281 3.374-.094.532-7.312-4.188.219.282 7.187Zm6.218-2.469c0-.146.094-.375.282-.687a40.13 40.13 0 0 0 3.156-5.375 39.999 39.999 0 0 0 2.344-5.719c.062-.188.093-.375.093-.563 0-.25-.041-.5-.125-.75a.433.433 0 0 1-.031-.187c0-.188.104-.281.313-.281.166 0 .437.083.812.25.375.166.708.375 1 .625.292.229.438.448.438.656 0 .125-.032.25-.094.375a41.216 41.216 0 0 1-2.188 4.594l8.782-.563c.437-.02.802-.104 1.093-.25.209-.083.354-.125.438-.125.312 0 .646.198 1 .594.354.396.531.719.531.969s-.281.396-.844.437L119.094 67a29.282 29.282 0 0 1-2.844 3.813c-.979 1.124-1.615 1.687-1.906 1.687-.125 0-.188-.073-.188-.219Zm72.625-4.25c-.166 0-.302-.135-.406-.406-.167-.333-.25-.604-.25-.813l.031-.843c.021-.417.032-1.25.032-2.5v-1.563l-.032-1.093c-.229 0-.468.03-.718.093l-.719.188c-.104.041-.271-.021-.5-.188a1.916 1.916 0 0 1-.531-.562.713.713 0 0 1-.094-.282c0-.062.031-.104.094-.124a.688.688 0 0 1 .218-.032c.979 0 1.886-.052 2.719-.156l.937-.063 1.376-.093c.333-.042.562-.073.687-.094.167-.02.354-.042.563-.063.229-.041.374-.052.437-.03a2 2 0 0 0 .313.187c.145.062.302.166.468.312.104.104.188.209.25.313a.386.386 0 0 1 .125.281c0 .083-.052.208-.156.375-.104.167-.208.427-.313.781-.083.354-.145.604-.187.75-.313 1.042-.698 1.802-1.156 2.282a1.666 1.666 0 0 1-1.125.437c-.188 0-.344-.135-.469-.406-.187-.417-.396-.709-.625-.875l.031-.157c.563.188.948.282 1.157.282.166 0 .281-.032.343-.094a.766.766 0 0 0 .219-.281c.104-.271.188-.51.25-.719.083-.208.156-.396.219-.563.041-.187.093-.437.156-.75a5.46 5.46 0 0 0 .156-.75c0-.187-.052-.28-.156-.28h-.687c-.313 0-.667.01-1.063.03-.396.021-.719.053-.969.094l-.062 2.844.031 1.625v.656a1.27 1.27 0 0 1 0 .406v.594c.021.25.021.427 0 .531l-.219.5c-.146.146-.271.22-.375.22Zm4.407 8.563c-.313 0-.615-.23-.907-.688a9.905 9.905 0 0 0-1.093-1.437l-.813-.844c-.437.5-.823.896-1.156 1.188a6.25 6.25 0 0 1-1.188.843c-.896.521-1.646.781-2.25.781-.146 0-.219-.052-.219-.156 0-.062.198-.198.594-.406a6.591 6.591 0 0 0 1.125-.75c.896-.75 1.636-1.52 2.219-2.313-.125-.124-.75-.666-1.875-1.624a10.426 10.426 0 0 1-.656-.532 7.616 7.616 0 0 1-.375-.281c-.188-.146-.282-.25-.282-.313 0-.104.053-.156.157-.156.312 0 .812.219 1.5.656.687.417 1.406.917 2.156 1.5.292-.354.521-.687.687-1 .167-.312.355-.697.563-1.156.104-.229.167-.427.187-.594a4.83 4.83 0 0 0 .032-.343c0-.23.062-.344.187-.344.146 0 .344.115.594.344.437.416.656.698.656.844 0 .083-.052.177-.156.28-.25.25-.479.584-.687 1-.126.25-.355.605-.688 1.063a2.76 2.76 0 0 0-.25.344 3.062 3.062 0 0 1-.188.281c.48.354 1.188.959 2.126 1.813.229.208.374.406.437.594.083.166.125.395.125.687a.89.89 0 0 1-.156.531.504.504 0 0 1-.406.188Zm-6.907 9.344c-.312 0-.552-.084-.719-.25-.187-.188-.281-.355-.281-.5 0-.146.084-.303.25-.47.021-.02.136-.187.344-.5.458-.728.979-1.656 1.563-2.78.604-1.146.979-1.928 1.124-2.344.126-.396.24-.74.344-1.031.125-.292.229-.438.313-.438.146 0 .271.052.375.156.104.084.208.209.312.375.125.146.219.25.282.313.145.166.218.323.218.469a.497.497 0 0 1-.125.312 1.598 1.598 0 0 0-.156.219l-1.375 2.312a63.849 63.849 0 0 1-1.406 2.406.497.497 0 0 0-.125.313c0 .083.093.125.281.125.396 0 1.135-.052 2.219-.156 1.083-.084 1.812-.156 2.187-.219.542-.063.917-.125 1.125-.188.229-.062.563.094 1 .47.521.437.636.718.344.843-.167.083-.49.125-.969.125h-1.25c-.271 0-.698.02-1.281.063-.354 0-.75.01-1.187.03-.438.022-.803.042-1.094.063-.334.021-.979.084-1.938.188l-.375.094Zm9.281-11.282c.105 0 .261.073.469.219-.021.042.021.125.125.25l.219.219c.104.104.208.229.313.375.124.146.26.302.406.469.375.395 1.239 1.427 2.594 3.093.229.334.343.531.343.594 0 .208-.125.313-.375.313-.146 0-.302-.105-.468-.313-.396-.417-1.105-1.073-2.126-1.969-.791-.729-1.51-1.291-2.156-1.687-.312-.146-.468-.313-.468-.5 0-.146.156-.354.468-.625.292-.292.511-.438.656-.438ZM167.5 65.437c-.208 1.167-.406 2.032-.594 2.594-.166.563-.323.927-.468 1.094a.595.595 0 0 1-.469.219c-.167 0-.334-.042-.5-.125a2.46 2.46 0 0 1-.563-.25.512.512 0 0 1-.156-.375c0-.125.021-.23.062-.313.313-.791.605-1.698.876-2.719.27-1.041.447-1.99.531-2.843.021-.209.093-.334.219-.375.145-.063.374-.094.687-.094.521.02.781.23.781.625v.063c0 .208-.041.5-.125.874l5.375-.343a36.12 36.12 0 0 0-2.844-3.157c-.187-.187-.281-.354-.281-.5 0-.187.104-.385.313-.593.208-.209.385-.313.531-.313.333 0 1.604 1.157 3.813 3.469.166.167.25.344.25.531 0 .125-.053.271-.157.438l4.281-.282.5-.03c.438 0 .782.135 1.032.406.25.25.375.468.375.656a.795.795 0 0 1-.219.531c-.146.167-.229.27-.25.313-.396.687-.927 1.52-1.594 2.5-.666.958-1.177 1.437-1.531 1.437-.146 0-.219-.104-.219-.313 0-.229.084-.51.25-.843.5-1 .875-1.98 1.125-2.938l-11.031.656Zm-15.094 4.782c0-.084.042-.125.125-.125.084 0 .146.01.188.031.271.083.614.125 1.031.125l.5-.031 4.062-.281.063-8.344c0-.417-.031-.75-.094-1a2.414 2.414 0 0 0-.312-.719c-.125-.188-.188-.323-.188-.406 0-.125.094-.188.281-.188.25 0 .636.094 1.157.282.354.124.593.27.719.437.124.146.187.385.187.719l-.063 9.093 2.157-.156c.062 0 .229-.01.5-.031.271-.02.5-.073.687-.156a.778.778 0 0 1 .344-.094c.25 0 .562.188.938.563.374.374.562.666.562.874 0 .126-.062.22-.188.282a2.462 2.462 0 0 1-.531.094l-4.5.28v2.188c.209-.208.386-.312.531-.312.167 0 .553.291 1.157.875a17.403 17.403 0 0 1 1.687 1.812c.521.646.782 1.084.782 1.313 0 .187-.157.427-.469.719-.313.291-.563.437-.75.437-.167 0-.334-.125-.5-.375-.771-1.23-1.584-2.292-2.438-3.188l-.093 11.188c0 .52-.188.781-.563.781-.083 0-.25-.041-.5-.125a1.81 1.81 0 0 1-.656-.437c-.188-.188-.281-.438-.281-.75 0-.146.01-.25.031-.313.166-1.041.25-2.375.25-4l.031-4.75.094-3.406.031-1.5-3.469.188-.781.03c-.479 0-.802-.083-.969-.25a3.774 3.774 0 0 1-.531-.687c-.146-.27-.219-.5-.219-.687Zm.344 12.344c0-.23.083-.51.25-.844a41.389 41.389 0 0 0 1.781-4.156c.563-1.521.844-2.646.844-3.376 0-.229-.01-.395-.031-.5a.687.687 0 0 1-.032-.218c0-.23.115-.344.344-.344.313 0 .667.125 1.063.375.416.23.625.51.625.844 0 .291-.313 1.166-.938 2.625A34.672 34.672 0 0 1 154.625 81c-.708 1.208-1.24 1.813-1.594 1.813a.334.334 0 0 1-.187-.063c-.063-.063-.094-.125-.094-.188Zm1.062-18.407c0-.166.136-.344.407-.531.271-.188.489-.281.656-.281.271 0 .667.468 1.187 1.406a27.436 27.436 0 0 1 1.469 2.938c.063.145.094.27.094.374 0 .209-.156.407-.469.594-.312.188-.531.281-.656.281-.208 0-.375-.156-.5-.468a18.278 18.278 0 0 0-2.062-4 .498.498 0 0 1-.126-.313Zm6.626 4.813c0-.167.072-.386.218-.656.354-.626.761-1.459 1.219-2.5.458-1.042.687-1.959.687-2.75v-.25c0-.25.105-.376.313-.376.25 0 .594.146 1.031.438.459.27.688.531.688.781 0 .188-.271.76-.813 1.719A21.021 21.021 0 0 1 162.062 68c-.604.792-1.083 1.188-1.437 1.188-.125 0-.187-.073-.187-.22Zm2.25 15.594c0-.188.145-.428.437-.72a28.226 28.226 0 0 0 2.813-3.28c.854-1.167 1.281-2.094 1.281-2.782V77.5c0-.27.104-.406.312-.406.292 0 .677.177 1.157.531.5.333.75.635.75.906a.785.785 0 0 1-.094.344 17.786 17.786 0 0 1-2.25 2.781c-.875.896-1.709 1.636-2.5 2.219-.771.583-1.323.875-1.656.875-.167 0-.25-.063-.25-.188Zm1.968-11.126c0-.083.052-.124.156-.124l.188.03c.271.084.635.126 1.094.126h.437l11.031-.594c.5-.042.876-.104 1.126-.188a.692.692 0 0 1 .312-.062c.229 0 .448.104.656.313.229.187.417.406.563.656.146.229.219.385.219.469a.308.308 0 0 1-.157.28c-.104.042-.26.074-.469.094l-6.25.344-.062 7.438v4.219a.623.623 0 0 1-.156.406.504.504 0 0 1-.406.187c-.292 0-.626-.146-1-.437-.376-.271-.563-.542-.563-.813l.031-.281c.104-1.042.156-1.896.156-2.563l.094-1.156.125-6.906-4.719.281-.624.031c-.459 0-.803-.114-1.032-.343a3.182 3.182 0 0 1-.531-.75c-.146-.313-.219-.531-.219-.656Zm2.906-4.687c0-.083.042-.125.126-.125.083 0 .145.01.187.031.25.084.552.125.906.125l.469-.031 5.094-.281c.458-.021.812-.094 1.062-.219a.54.54 0 0 1 .219-.031c.25 0 .542.177.875.531.354.333.531.604.531.813 0 .124-.062.218-.187.28a1.932 1.932 0 0 1-.5.094l-6.5.438h-.5c-.479 0-.802-.063-.969-.188a2.732 2.732 0 0 1-.594-.687c-.146-.292-.219-.542-.219-.75Zm8.126 9.531c0-.146.114-.354.343-.625.25-.291.479-.437.688-.437.166 0 .677.427 1.531 1.281.854.854 1.656 1.74 2.406 2.656.771.917 1.156 1.51 1.156 1.781 0 .271-.156.553-.468.844-.313.271-.563.406-.75.406-.188 0-.375-.145-.563-.437a37.674 37.674 0 0 0-4.125-5.063c-.146-.145-.218-.28-.218-.406Zm59.093 1.625c-.166 0-.302-.135-.406-.406-.167-.333-.25-.604-.25-.813l.031-.843c.021-.417.032-1.25.032-2.5V73.78l-.032-1.094c-.229 0-.468.032-.718.094l-.719.188c-.104.041-.271-.021-.5-.188a1.916 1.916 0 0 1-.531-.562.713.713 0 0 1-.094-.281c0-.063.031-.105.094-.126a.688.688 0 0 1 .218-.03c.979 0 1.886-.053 2.719-.157l.937-.063 1.376-.093c.333-.042.562-.073.687-.094.167-.02.354-.042.563-.063.229-.041.374-.052.437-.03a2 2 0 0 0 .313.187c.145.062.302.166.468.312.104.104.188.209.25.313a.386.386 0 0 1 .125.281c0 .083-.052.208-.156.375-.104.167-.208.427-.313.781-.083.354-.145.604-.187.75-.313 1.042-.698 1.802-1.156 2.281a1.666 1.666 0 0 1-1.125.438c-.188 0-.344-.135-.469-.406-.187-.417-.396-.709-.625-.875l.031-.156c.563.187.948.28 1.157.28.166 0 .281-.03.343-.093a.766.766 0 0 0 .219-.281c.104-.271.188-.51.25-.719.083-.208.156-.396.219-.563.041-.187.093-.437.156-.75a5.46 5.46 0 0 0 .156-.75c0-.187-.052-.28-.156-.28h-.687c-.313 0-.667.01-1.063.03-.396.021-.719.053-.969.094l-.062 2.844.031 1.625v.656a1.27 1.27 0 0 1 0 .406v.594c.021.25.021.427 0 .531l-.219.5c-.146.146-.271.22-.375.22Zm1-13.406c.417 0 .771.146 1.063.438.312.27.468.635.468 1.093 0 .459-.156.834-.468 1.125-.292.271-.646.406-1.063.406-.416 0-.781-.135-1.093-.406-.292-.291-.438-.666-.438-1.125 0-.458.146-.823.438-1.094a1.55 1.55 0 0 1 1.093-.437Zm-19.656 7c.333 2.354.5 4.792.5 7.313l-.031 1.374c-.042 1.521-.188 2.73-.438 3.626-.25.916-.698 1.374-1.344 1.374-.458 0-1.291-.364-2.5-1.093A27.963 27.963 0 0 1 209 83.719c-1-.854-1.5-1.448-1.5-1.781 0-.126.083-.188.25-.188.25 0 .594.125 1.031.375 1.959 1.083 3.709 1.906 5.25 2.469h.063c.125 0 .187-.063.187-.188.209-1.5.313-3.156.313-4.969 0-2.124-.136-4.072-.406-5.843l-11.594.625c-.209.02-.479.031-.813.031-.437 0-.739-.083-.906-.25a5.366 5.366 0 0 1-.531-.656c-.188-.292-.282-.584-.282-.875 0-.146.084-.219.25-.219.084 0 .146.01.188.031a4.94 4.94 0 0 0 1.188.125h.343l11.844-.656c-.292-1.27-.646-2.27-1.063-3-.166-.292-.25-.51-.25-.656 0-.209.126-.386.376-.531.25-.146.562-.25.937-.313.25 0 .479.188.687.563 2.417-1.834 4.188-3.521 5.313-5.063l-11.563.844c-.541.041-.885.062-1.031.062-.625 0-1.156-.51-1.593-1.531l-.063-.281c0-.125.073-.188.219-.188.083 0 .146.01.187.032.334.083.698.124 1.094.124l.531-.03 13.469-.97.406-.03c.313 0 .646.145 1 .437.375.27.563.552.563.843 0 .188-.104.355-.313.5-.187.146-.312.25-.375.313a48.85 48.85 0 0 1-7.125 6.625c.188.646.365 1.354.531 2.125l9.657-.531a6.688 6.688 0 0 0 1.719-.313.945.945 0 0 1 .281-.031c.375 0 .781.198 1.219.594.437.375.656.698.656.969 0 .145-.073.26-.219.343a1.09 1.09 0 0 1-.5.156h-.063l-12.437.688Z"/></svg>