<svg width="350" height="88" viewBox="0 0 350 88" fill="none" xmlns="http://www.w3.org/2000/svg">
<path d="M136.012 14.5977C135.637 14.5977 135.414 14.4102 135.344 14.0352C135.203 13.6367 134.828 13.1445 134.219 12.5586L134.324 12.418C134.418 12.4648 134.688 12.582 135.133 12.7695C135.578 12.9336 135.883 13.0156 136.047 13.0156C136.188 13.0156 136.293 13.0156 136.363 13.0156C136.434 12.9922 136.516 12.9336 136.609 12.8398C136.891 12.6289 137.242 12.1484 137.664 11.3984C137.969 10.7891 138.238 10.0742 138.473 9.25391C138.73 8.43359 138.859 7.8125 138.859 7.39062C138.859 7.27344 138.766 7.21484 138.578 7.21484L137.242 7.28516L136.328 7.35547L135.73 7.39062L135.484 7.42578C135.648 7.54297 135.754 7.64844 135.801 7.74219C135.871 7.8125 135.906 7.90625 135.906 8.02344C135.906 8.14063 135.766 8.46875 135.484 9.00781C135.25 9.52344 134.875 10.1094 134.359 10.7656C133.938 11.3281 133.363 11.9375 132.637 12.5938C131.934 13.2266 131.406 13.5547 131.055 13.5781C130.984 13.5781 130.914 13.5664 130.844 13.543C130.797 13.4961 130.773 13.4375 130.773 13.3672C130.773 13.3438 130.961 13.1211 131.336 12.6992L132.32 11.5391C133.023 10.6016 133.738 9.40625 134.465 7.95312C134.535 7.76562 134.5 7.66016 134.359 7.63672C134.219 7.66016 133.926 7.69531 133.48 7.74219C133.035 7.76562 132.637 7.83594 132.285 7.95312C132.262 7.95312 132.18 7.98828 132.039 8.05859C131.898 8.10547 131.781 8.12891 131.688 8.12891C131.547 8.12891 131.43 8.08203 131.336 7.98828L131.055 7.74219C130.844 7.57813 130.738 7.42578 130.738 7.28516C130.738 7.23828 130.762 7.16797 130.809 7.07422L130.984 6.79297C131.078 6.67578 131.23 6.48828 131.441 6.23047C131.652 5.97266 131.887 5.62109 132.145 5.17578C132.191 5.08203 132.285 4.87109 132.426 4.54297C132.59 4.21484 132.672 4.01562 132.672 3.94531V3.80469C132.672 3.66406 132.695 3.57031 132.742 3.52344C132.789 3.47656 132.895 3.47656 133.059 3.52344C133.223 3.57031 133.422 3.69922 133.656 3.91016L134.043 4.29688C134.113 4.36719 134.148 4.44922 134.148 4.54297C134.148 4.77734 133.82 5.19922 133.164 5.80859C133.047 5.92578 132.906 6.10156 132.742 6.33594C132.578 6.57031 132.496 6.72266 132.496 6.79297C132.496 6.93359 132.602 6.98047 132.812 6.93359L133.621 6.82812C135.473 6.54688 136.867 6.38281 137.805 6.33594L138.754 6.19531L139.07 6.125L139.246 6.08984C139.434 6.08984 139.562 6.11328 139.633 6.16016C139.703 6.20703 139.773 6.28906 139.844 6.40625C139.914 6.5 139.984 6.58203 140.055 6.65234C140.219 6.83984 140.336 7.00391 140.406 7.14453L140.477 7.46094L140.406 7.60156L140.336 7.8125C140.289 7.92969 140.254 8.04687 140.23 8.16406C140.207 8.25781 140.172 8.36328 140.125 8.48047C139.633 10.3789 139.059 11.8555 138.402 12.9102C138.191 13.2852 137.828 13.6602 137.312 14.0352C136.82 14.4102 136.387 14.5977 136.012 14.5977ZM139.211 23.668C138.859 23.668 138.52 23.4102 138.191 22.8945C137.77 22.2383 137.359 21.6992 136.961 21.2773L136.047 20.3281C135.555 20.8906 135.121 21.3359 134.746 21.6641C134.395 21.9922 133.949 22.3086 133.41 22.6133C132.402 23.1992 131.559 23.4922 130.879 23.4922C130.715 23.4922 130.633 23.4336 130.633 23.3164C130.633 23.2461 130.855 23.0938 131.301 22.8594C131.746 22.625 132.168 22.3438 132.566 22.0156C133.574 21.1719 134.406 20.3047 135.062 19.4141C134.922 19.2734 134.219 18.6641 132.953 17.5859C132.789 17.4688 132.543 17.2695 132.215 16.9883C132.145 16.9414 132.004 16.8359 131.793 16.6719C131.582 16.5078 131.477 16.3906 131.477 16.3203C131.477 16.2031 131.535 16.1445 131.652 16.1445C132.004 16.1445 132.566 16.3906 133.34 16.8828C134.113 17.3516 134.922 17.9141 135.766 18.5703C136.094 18.1719 136.352 17.7969 136.539 17.4453C136.727 17.0938 136.938 16.6602 137.172 16.1445C137.289 15.8867 137.359 15.6641 137.383 15.4766C137.406 15.2656 137.418 15.1367 137.418 15.0898C137.418 14.832 137.488 14.7031 137.629 14.7031C137.793 14.7031 138.016 14.832 138.297 15.0898C138.789 15.5586 139.035 15.875 139.035 16.0391C139.035 16.1328 138.977 16.2383 138.859 16.3555C138.578 16.6367 138.32 17.0117 138.086 17.4805C137.945 17.7617 137.688 18.1602 137.312 18.6758C137.195 18.8164 137.102 18.9453 137.031 19.0625C136.961 19.1797 136.891 19.2852 136.82 19.3789C137.359 19.7773 138.156 20.457 139.211 21.418C139.469 21.6523 139.633 21.875 139.703 22.0859C139.797 22.2734 139.844 22.5312 139.844 22.8594C139.844 23.0938 139.785 23.293 139.668 23.457C139.551 23.5977 139.398 23.668 139.211 23.668ZM136.891 27.9922C136.656 28.2969 136.41 28.4492 136.152 28.4492C136.082 28.4492 136.047 28.3906 136.047 28.2734C136.047 28.1094 136.094 27.9219 136.188 27.7109C136.188 27.7109 136.422 27.2422 136.891 26.3047C136.914 26.2109 136.949 26.1172 136.996 26.0234C137.043 25.9297 137.078 25.8477 137.102 25.7773V25.7422C137.102 25.6953 137.066 25.6484 136.996 25.6016C136.926 25.5547 136.844 25.543 136.75 25.5664C136.375 25.5898 135.812 25.6484 135.062 25.7422C134.336 25.8359 133.797 25.9297 133.445 26.0234C133.305 26.0703 133.129 26.1289 132.918 26.1992C132.73 26.2695 132.578 26.3047 132.461 26.3047C132.039 26.3047 131.688 26.1758 131.406 25.918C131.172 25.7539 130.996 25.5898 130.879 25.4258L130.809 25.25C130.809 25.1328 131.008 25.0977 131.406 25.1445C131.945 25.1914 133.059 25.1211 134.746 24.9336L135.449 24.8281C135.637 24.8047 135.93 24.7695 136.328 24.7227C136.75 24.6523 137.078 24.582 137.312 24.5117C137.383 24.4883 137.453 24.4648 137.523 24.4414C137.617 24.3945 137.699 24.3711 137.77 24.3711C137.887 24.3711 138.027 24.4297 138.191 24.5469C138.379 24.6641 138.531 24.7695 138.648 24.8633C138.812 24.9805 138.918 25.0859 138.965 25.1797C139.035 25.25 139.059 25.3438 139.035 25.4609C139.035 25.5781 138.977 25.6836 138.859 25.7773C138.742 25.8711 138.66 25.9414 138.613 25.9883C138.566 26.0586 138.402 26.2344 138.121 26.5156C138.004 26.7031 137.793 26.9609 137.488 27.2891C137.207 27.6172 137.008 27.8516 136.891 27.9922ZM135.133 34.918C135.133 34.8477 135.25 34.6602 135.484 34.3555C135.742 34.0742 135.941 33.8516 136.082 33.6875C136.434 33.2188 136.855 32.5391 137.348 31.6484C137.863 30.7578 138.156 30.1719 138.227 29.8906C138.273 29.75 138.203 29.6797 138.016 29.6797C137.641 29.6797 136.609 29.7852 134.922 29.9961C133.82 30.1367 133 30.2773 132.461 30.418C132.344 30.4883 132.227 30.5234 132.109 30.5234C131.922 30.5234 131.723 30.3945 131.512 30.1367C131.418 29.9727 131.371 29.8203 131.371 29.6797C131.371 29.5859 131.43 29.4922 131.547 29.3984L131.652 29.2578C131.723 29.1172 131.805 28.9297 131.898 28.6953C131.992 28.4609 132.074 28.2383 132.145 28.0273C132.262 27.6523 132.344 27.2422 132.391 26.7969C132.414 26.5391 132.555 26.4688 132.812 26.5859C133.141 26.75 133.387 26.9141 133.551 27.0781C133.738 27.2188 133.797 27.3242 133.727 27.3945C133.492 27.6758 133.305 27.9922 133.164 28.3438C133.047 28.7188 132.977 28.9648 132.953 29.082C132.953 29.1758 133.012 29.2227 133.129 29.2227C133.48 29.2227 134.008 29.1641 134.711 29.0469C135.109 29 135.602 28.9414 136.188 28.8711C136.773 28.8008 137.242 28.7305 137.594 28.6602L138.473 28.4844C138.543 28.4609 138.637 28.4492 138.754 28.4492C138.871 28.4492 138.988 28.4961 139.105 28.5898C139.223 28.6602 139.352 28.7539 139.492 28.8711C139.727 29.082 139.879 29.2578 139.949 29.3984C140.02 29.5156 140.055 29.6562 140.055 29.8203C140.055 29.9141 139.984 30.0312 139.844 30.1719C139.727 30.3125 139.586 30.5352 139.422 30.8398C138.742 32.2227 137.863 33.3828 136.785 34.3203C136.48 34.5547 136.141 34.7539 135.766 34.918C135.602 34.9648 135.449 34.9883 135.309 34.9883C135.191 35.0117 135.133 34.9883 135.133 34.918ZM126.273 33.4414C126.273 34.0039 126.109 34.4492 125.781 34.7773C125.453 35.1289 125.09 35.3047 124.691 35.3047C124.41 35.3047 123.953 35.0469 123.32 34.5312C122.711 34.0156 122.148 33.4531 121.633 32.8438C121.117 32.2344 120.859 31.8242 120.859 31.6133C120.859 31.4492 120.941 31.3672 121.105 31.3672C121.293 31.3672 121.551 31.4609 121.879 31.6484C122.887 32.2109 123.637 32.5742 124.129 32.7383L124.34 23.7734L120.754 23.9492L120.684 33.1602C120.684 33.4414 120.637 33.6523 120.543 33.793C120.473 33.957 120.332 34.0391 120.121 34.0391C119.84 34.0391 119.5 33.9219 119.102 33.6875C118.703 33.4766 118.504 33.207 118.504 32.8789C118.504 32.7617 118.516 32.668 118.539 32.5977C118.656 31.8945 118.715 31.0742 118.715 30.1367L118.785 24.0195L115.867 24.1602L116.008 33.2656C116.008 33.8516 115.809 34.1445 115.41 34.1445C115.129 34.1445 114.777 34.0039 114.355 33.7227C113.957 33.4414 113.758 33.1602 113.758 32.8789V32.668C113.852 32.082 113.898 31.2617 113.898 30.207L113.828 24.2305L110.91 24.3711L111.016 34.2852C111.016 34.8008 110.828 35.0586 110.453 35.0586C109.961 34.9648 109.539 34.8008 109.188 34.5664C108.859 34.3555 108.695 34.0859 108.695 33.7578L108.73 33.4414C108.848 32.668 108.906 31.9883 108.906 31.4023L108.871 24.5117C108.871 23.6211 108.766 22.9414 108.555 22.4727C108.461 22.2383 108.414 22.0859 108.414 22.0156C108.414 21.8516 108.508 21.7695 108.695 21.7695C109.047 21.7695 109.797 22.0625 110.945 22.6484L114.109 22.5078C115 21.1016 115.445 19.9766 115.445 19.1328V18.8867L110.805 19.1328H110.312C109.703 19.1328 109.293 19.0391 109.082 18.8516C108.824 18.6172 108.602 18.3477 108.414 18.043C108.227 17.7383 108.133 17.4922 108.133 17.3047C108.133 17.1172 108.227 17.0234 108.414 17.0234L108.695 17.0938C109.164 17.2344 109.633 17.3047 110.102 17.3047H110.418L123.285 16.5664C123.707 16.543 124.117 16.4727 124.516 16.3555C124.703 16.3086 124.832 16.2852 124.902 16.2852C125.16 16.2852 125.5 16.4727 125.922 16.8477C126.344 17.1992 126.555 17.5273 126.555 17.832C126.555 18.1133 126.262 18.2773 125.676 18.3242L117.098 18.7812C117.52 19.0156 117.73 19.25 117.73 19.4844C117.73 19.625 117.566 19.9883 117.238 20.5742C116.91 21.1602 116.547 21.7695 116.148 22.4023L124.797 21.9805L125.254 21.9453C125.582 21.9453 125.898 22.0625 126.203 22.2969C126.508 22.5312 126.66 22.8125 126.66 23.1406C126.66 23.2344 126.625 23.375 126.555 23.5625C126.508 23.7266 126.484 23.8555 126.484 23.9492L126.273 32.457V33.4414ZM95.125 27.7461C95.125 27.5586 95.2656 27.4648 95.5469 27.4648C96.1094 27.4648 96.7539 27.3828 97.4805 27.2188C98.7461 26.9375 100.082 26.5859 101.488 26.1641C102.402 23.3281 103.035 21.1133 103.387 19.5195C103.738 17.9023 103.914 16.8477 103.914 16.3555C103.914 16.2383 103.891 16.0391 103.844 15.7578C103.82 15.6641 103.809 15.5586 103.809 15.4414C103.809 15.2305 103.891 15.125 104.055 15.125C104.195 15.125 104.441 15.207 104.793 15.3711C105.145 15.5117 105.461 15.6992 105.742 15.9336C106.047 16.168 106.199 16.4375 106.199 16.7422C106.199 16.8594 106.188 16.9414 106.164 16.9883C105.812 18.4414 105.426 19.8125 105.004 21.1016C104.582 22.3672 104.066 23.8555 103.457 25.5664C104.91 25.0977 105.988 24.7344 106.691 24.4766C107.324 24.2656 107.793 24.1602 108.098 24.1602C108.355 24.1602 108.484 24.2188 108.484 24.3359C108.484 24.6406 107.629 25.2266 105.918 26.0938C104.23 26.9375 102.402 27.7578 100.434 28.5547C98.4648 29.3516 97.3047 29.75 96.9531 29.75C96.6953 29.75 96.3906 29.5625 96.0391 29.1875C95.6875 28.8125 95.418 28.4375 95.2305 28.0625C95.1602 27.9219 95.125 27.8164 95.125 27.7461ZM95.5469 13.1914C95.5469 13.0508 95.6406 12.9805 95.8281 12.9805C95.9453 12.9805 96.0508 12.9922 96.1445 13.0156C96.543 13.1094 96.9883 13.1562 97.4805 13.1562H97.9375L104.441 12.7344C104.98 12.7109 105.508 12.6172 106.023 12.4531C106.211 12.3828 106.375 12.3477 106.516 12.3477C106.773 12.3477 107.031 12.4414 107.289 12.6289C107.547 12.8164 107.758 13.0391 107.922 13.2969C108.086 13.5312 108.168 13.707 108.168 13.8242C108.168 14.0586 107.992 14.2109 107.641 14.2812L107.395 14.3164L98.3945 14.9492C98.1836 14.9727 97.9141 14.9844 97.5859 14.9844C97.1172 14.9844 96.7305 14.8672 96.4258 14.6328C96.1211 14.375 95.8984 14.1055 95.7578 13.8242C95.6172 13.5195 95.5469 13.3086 95.5469 13.1914ZM97.7969 16.8477C97.7969 16.5664 97.9375 16.3789 98.2188 16.2852C98.5 16.168 98.7695 16.1094 99.0273 16.1094C99.2148 16.1094 99.3555 16.168 99.4492 16.2852C99.5664 16.4023 99.6719 16.5898 99.7656 16.8477C100.164 17.9492 100.574 19.332 100.996 20.9961C101.418 22.6367 101.629 23.6211 101.629 23.9492C101.629 24.2539 101.465 24.4883 101.137 24.6523C100.832 24.8164 100.527 24.8984 100.223 24.8984C100.035 24.8984 99.8945 24.8398 99.8008 24.7227C99.7305 24.6055 99.6719 24.4062 99.625 24.125C99.1562 21.4531 98.5938 19.2031 97.9375 17.375C97.8438 17.0938 97.7969 16.918 97.7969 16.8477ZM98.9922 7.56641C98.9922 7.37891 99.0859 7.15625 99.2734 6.89844C99.4609 6.64062 99.6367 6.48828 99.8008 6.44141C99.8477 6.41797 99.918 6.40625 100.012 6.40625C100.152 6.40625 100.328 6.47656 100.539 6.61719C100.703 6.71094 101.535 7.21484 103.035 8.12891C104.535 9.01953 105.332 9.67578 105.426 10.0977C105.496 10.3789 105.379 10.6953 105.074 11.0469C104.77 11.375 104.523 11.5625 104.336 11.6094L104.23 11.6445C104.113 11.6445 103.902 11.5391 103.598 11.3281C101.84 9.89844 100.445 8.85547 99.4141 8.19922C99.2969 8.10547 99.1914 8.01172 99.0977 7.91797C99.0273 7.80078 98.9922 7.68359 98.9922 7.56641ZM109.645 7.53125C109.645 7.39062 109.738 7.32031 109.926 7.32031C110.043 7.32031 110.277 7.35547 110.629 7.42578C110.98 7.49609 111.309 7.625 111.613 7.8125C111.941 8 112.105 8.24609 112.105 8.55078V8.62109L111.895 12.8398L115.867 12.4883L115.938 6.16016C115.938 5.55078 115.75 5.01172 115.375 4.54297C115.281 4.42578 115.234 4.32031 115.234 4.22656C115.234 4.10937 115.363 4.05078 115.621 4.05078C116.277 4.05078 116.84 4.16797 117.309 4.40234C117.801 4.61328 118.047 4.90625 118.047 5.28125L117.941 12.3125L122.582 11.9258L122.652 8.69141C122.652 8.01172 122.547 7.47266 122.336 7.07422C122.242 6.91016 122.195 6.76953 122.195 6.65234C122.195 6.53516 122.289 6.47656 122.477 6.47656C122.875 6.47656 123.355 6.58203 123.918 6.79297C124.48 7.00391 124.762 7.35547 124.762 7.84766V7.95312L124.48 14.7734C124.457 15.1016 124.398 15.3477 124.305 15.5117C124.234 15.6523 124.094 15.7227 123.883 15.7227C123.602 15.7227 123.262 15.6055 122.863 15.3711C122.488 15.1133 122.301 14.8086 122.301 14.457C122.301 14.3164 122.312 14.1992 122.336 14.1055L122.441 13.5781L112.246 14.5977C111.988 14.6211 111.719 14.6797 111.438 14.7734C111.156 14.8438 110.957 14.8789 110.84 14.8789C110.629 14.8789 110.383 14.7617 110.102 14.5273C109.844 14.293 109.715 14.0586 109.715 13.8242C109.715 13.7305 109.738 13.5898 109.785 13.4023C109.902 12.8633 109.961 12.418 109.961 12.0664L110.031 9.42969C110.031 8.77344 109.938 8.25781 109.75 7.88281C109.68 7.74219 109.645 7.625 109.645 7.53125ZM193.211 24.7227C192.859 24.7227 192.52 24.4648 192.191 23.9492C191.77 23.293 191.359 22.7539 190.961 22.332L190.047 21.3828C189.555 21.9453 189.121 22.3906 188.746 22.7188C188.395 23.0469 187.949 23.3633 187.41 23.668C186.402 24.2539 185.559 24.5469 184.879 24.5469C184.715 24.5469 184.633 24.4883 184.633 24.3711C184.633 24.3008 184.855 24.1484 185.301 23.9141C185.746 23.6797 186.168 23.3984 186.566 23.0703C187.574 22.2266 188.406 21.3594 189.062 20.4688C188.922 20.3281 188.219 19.7188 186.953 18.6406C186.789 18.5234 186.543 18.3242 186.215 18.043C186.145 17.9961 186.004 17.8906 185.793 17.7266C185.582 17.5625 185.477 17.4453 185.477 17.375C185.477 17.2578 185.535 17.1992 185.652 17.1992C186.004 17.1992 186.566 17.4453 187.34 17.9375C188.113 18.4062 188.922 18.9688 189.766 19.625C190.094 19.2266 190.352 18.8516 190.539 18.5C190.727 18.1484 190.938 17.7148 191.172 17.1992C191.289 16.9414 191.359 16.7188 191.383 16.5312C191.406 16.3203 191.418 16.1914 191.418 16.1445C191.418 15.8867 191.488 15.7578 191.629 15.7578C191.793 15.7578 192.016 15.8867 192.297 16.1445C192.789 16.6133 193.035 16.9297 193.035 17.0938C193.035 17.1875 192.977 17.293 192.859 17.4102C192.578 17.6914 192.32 18.0664 192.086 18.5352C191.945 18.8164 191.688 19.2148 191.312 19.7305C191.195 19.8711 191.102 20 191.031 20.1172C190.961 20.2344 190.891 20.3398 190.82 20.4336C191.359 20.832 192.156 21.5117 193.211 22.4727C193.469 22.707 193.633 22.9297 193.703 23.1406C193.797 23.3281 193.844 23.5859 193.844 23.9141C193.844 24.1484 193.785 24.3477 193.668 24.5117C193.551 24.6523 193.398 24.7227 193.211 24.7227ZM200.523 11.8555C200.594 11.8555 200.664 11.8906 200.734 11.9609C200.805 12.0078 200.852 12.0781 200.875 12.1719V12.2422C200.875 12.4062 200.746 12.7227 200.488 13.1914L197.957 17.5859C197.77 17.9844 197.523 18.1836 197.219 18.1836C196.914 18.1836 196.656 17.9961 196.445 17.6211C196.234 17.3164 195.977 16.8594 195.672 16.25C195.531 16.0391 195.414 15.8281 195.32 15.6172C195.227 15.4062 195.156 15.2539 195.109 15.1602C194.852 14.7148 194.723 14.3984 194.723 14.2109C194.723 14.1172 194.758 14.0469 194.828 14C194.898 13.9297 194.969 13.8945 195.039 13.8945C195.297 13.8945 195.531 14.0352 195.742 14.3164C195.906 14.4805 196.035 14.6562 196.129 14.8438L196.516 15.3711L197.219 16.1797L197.535 15.6875C197.863 15.125 198.637 14.0117 199.855 12.3477C200.113 12.0195 200.336 11.8555 200.523 11.8555ZM167.09 34.8828C167.09 35.375 166.867 35.6211 166.422 35.6211C166.328 35.6211 166.117 35.5742 165.789 35.4805C165.484 35.3867 165.191 35.2227 164.91 34.9883C164.629 34.7539 164.488 34.4375 164.488 34.0391L164.523 33.793C164.617 33.1602 164.664 32.457 164.664 31.6836L164.734 21.8047L153.66 22.4023C153.332 22.4258 152.934 22.4375 152.465 22.4375C151.926 22.4375 151.492 22.2969 151.164 22.0156C150.836 21.7109 150.602 21.3945 150.461 21.0664C150.344 20.7148 150.285 20.457 150.285 20.293C150.285 20.1523 150.367 20.082 150.531 20.082C150.625 20.082 150.707 20.0938 150.777 20.1172C151.41 20.2578 151.973 20.3281 152.465 20.3281H152.746L164.77 19.6602L164.84 11.3281L159.461 11.6445C158.406 13.3789 157.422 14.7617 156.508 15.793C155.594 16.8242 154.832 17.5391 154.223 17.9375C153.637 18.3359 153.285 18.5352 153.168 18.5352C153.051 18.5352 152.992 18.4766 152.992 18.3594C152.992 18.1953 153.121 17.9258 153.379 17.5508C154.434 16.168 155.453 14.5977 156.438 12.8398C157.422 11.082 158.219 9.42969 158.828 7.88281C159.438 6.3125 159.742 5.11719 159.742 4.29688V3.875C159.742 3.59375 159.836 3.45312 160.023 3.45312C160.094 3.45312 160.352 3.53516 160.797 3.69922C161.266 3.86328 161.676 4.07422 162.027 4.33203C162.402 4.56641 162.59 4.80078 162.59 5.03516C162.59 5.31641 162.32 6.01953 161.781 7.14453C161.242 8.24609 160.844 9.04297 160.586 9.53516L172.434 8.79688C172.973 8.75 173.5 8.64453 174.016 8.48047C174.062 8.45703 174.145 8.44531 174.262 8.44531C174.543 8.44531 174.941 8.66797 175.457 9.11328C175.973 9.55859 176.23 9.92188 176.23 10.2031C176.23 10.4844 175.938 10.6484 175.352 10.6953L167.16 11.1875L167.125 19.5547L177.074 18.9922C177.66 18.9453 178.199 18.8398 178.691 18.6758C178.832 18.6289 178.938 18.6055 179.008 18.6055C179.148 18.6055 179.383 18.7109 179.711 18.9219C180.039 19.1328 180.332 19.3789 180.59 19.6602C180.848 19.9414 180.977 20.1992 180.977 20.4336C180.977 20.7383 180.707 20.9141 180.168 20.9609L167.125 21.6641L167.09 34.8828ZM246.121 14.3867C245.957 14.3867 245.781 14.2812 245.594 14.0703C245.453 13.9063 245.359 13.7773 245.312 13.6836C245.266 13.5664 245.266 13.4141 245.312 13.2266L245.348 12.3828C245.371 12.2188 245.383 11.8203 245.383 11.1875V10.0273L244.328 10.5195L243.098 11.0469C242.793 11.1641 242.477 11.3047 242.148 11.4688C241.867 11.6094 241.621 11.6797 241.41 11.6797C241.246 11.6563 241.059 11.5977 240.848 11.5039C240.637 11.4102 240.473 11.3281 240.355 11.2578C240.098 11.0938 239.98 10.918 240.004 10.7305L240.109 10.3789C240.109 10.1914 240.121 10.0273 240.145 9.88672L240.18 7.84766V5.94922C240.18 5.57422 240.156 5.25781 240.109 5C240.062 4.71875 240.027 4.51953 240.004 4.40234C240.004 4.28516 240.039 4.20313 240.109 4.15625C240.133 4.13281 240.191 4.12109 240.285 4.12109C240.449 4.12109 240.766 4.22656 241.234 4.4375C241.633 4.625 241.797 4.85938 241.727 5.14062C241.68 5.30469 241.633 5.55078 241.586 5.87891L241.48 9.92188C241.48 10.0391 241.492 10.1328 241.516 10.2031C241.562 10.25 241.609 10.2734 241.656 10.2734C241.938 10.2734 242.277 10.1914 242.676 10.0273C243.426 9.79297 244.07 9.55859 244.609 9.32422L245.383 9.00781V6.6875C245.383 5.75 245.324 4.84766 245.207 3.98047C245.184 3.91016 245.172 3.82812 245.172 3.73438C245.172 3.5 245.266 3.38281 245.453 3.38281C245.477 3.38281 245.605 3.42969 245.84 3.52344C246.191 3.71094 246.449 3.875 246.613 4.01562C246.777 4.15625 246.871 4.23828 246.895 4.26172C246.988 4.33203 247.035 4.40234 247.035 4.47266C247.035 4.51953 247.012 4.57812 246.965 4.64844C246.941 4.71875 246.918 4.77734 246.895 4.82422L246.789 5.87891L246.754 9.11328L246.789 12.2422C246.789 12.7813 246.754 13.25 246.684 13.6484C246.566 14.1406 246.379 14.3867 246.121 14.3867ZM239.652 20.1523C239.395 20.1523 239.078 19.9531 238.703 19.5547C238.422 19.2734 238.281 19.0625 238.281 18.9219C238.281 18.8516 238.328 18.8164 238.422 18.8164C238.516 18.793 238.633 18.7812 238.773 18.7812L239.547 18.7461C239.992 18.7461 240.285 18.7344 240.426 18.7109C240.871 18.7109 241.246 18.6992 241.551 18.6758C243.566 18.4883 244.926 18.3359 245.629 18.2188C245.98 18.1719 246.297 18.125 246.578 18.0781C246.859 18.0078 247.082 17.9727 247.246 17.9727C247.574 17.9727 247.902 18.1367 248.23 18.4648C248.488 18.7227 248.617 18.9336 248.617 19.0977C248.617 19.2383 248.535 19.332 248.371 19.3789C248.254 19.4023 247.562 19.4492 246.297 19.5195C245.594 19.543 244.727 19.6016 243.695 19.6953C242.664 19.7891 241.762 19.8828 240.988 19.9766C240.848 20 240.648 20.0352 240.391 20.082C240.133 20.1289 239.887 20.1523 239.652 20.1523ZM244.363 34.6719C243.637 34.6719 243.074 34.6484 242.676 34.6016C242.301 34.5547 241.984 34.4141 241.727 34.1797C241.281 33.8516 240.977 33.1367 240.812 32.0352L240.707 30.9102C240.707 30.6289 240.684 30.2773 240.637 29.8555C240.262 29.9023 239.992 29.9492 239.828 29.9961C239.781 30.0195 239.699 30.0547 239.582 30.1016C239.488 30.125 239.418 30.1367 239.371 30.1367C239.207 30.1367 239.055 30.0898 238.914 29.9961C238.773 29.9023 238.598 29.7266 238.387 29.4688C238.223 29.2578 238.141 29.1172 238.141 29.0469C238.141 28.9766 238.223 28.9297 238.387 28.9062C238.551 28.8828 238.773 28.8711 239.055 28.8711C239.453 28.8711 239.969 28.8242 240.602 28.7305L240.566 28.2383C240.566 27.3008 240.508 26.5039 240.391 25.8477L240.355 25.6016C240.355 25.2734 240.484 25.1445 240.742 25.2148C241.023 25.3086 241.281 25.4258 241.516 25.5664C241.703 25.6602 241.832 25.7539 241.902 25.8477C241.973 25.918 241.996 26.0234 241.973 26.1641L241.867 27.6758V28.5898L244.961 28.2734C244.961 28.1094 244.973 27.7227 244.996 27.1133C245.02 26.4805 245.02 26.0703 244.996 25.8828C244.996 25.6953 244.973 25.5195 244.926 25.3555C244.902 25.168 244.879 25.0156 244.855 24.8984C244.855 24.7109 244.949 24.6172 245.137 24.6172C245.324 24.6172 245.559 24.7227 245.84 24.9336C246.168 25.1445 246.379 25.332 246.473 25.4961C246.59 25.6602 246.613 25.8594 246.543 26.0938C246.426 26.4688 246.344 26.8906 246.297 27.3594C246.25 27.8281 246.227 28.1094 246.227 28.2031C246.508 28.1797 246.766 28.1445 247 28.0977C247.234 28.0508 247.387 28.0273 247.457 28.0273C247.645 27.9805 247.867 27.957 248.125 27.957C248.266 27.9805 248.465 28.1211 248.723 28.3789C248.934 28.6602 249.039 28.8828 249.039 29.0469C249.039 29.2812 248.816 29.375 248.371 29.3281C247.973 29.2578 247.574 29.2227 247.176 29.2227C246.777 29.2227 246.438 29.2344 246.156 29.2578C246.086 30.1016 245.945 30.9336 245.734 31.7539C245.688 31.9414 245.605 32.0938 245.488 32.2109C245.371 32.3516 245.266 32.4219 245.172 32.4219C245.008 32.4219 244.902 32.3516 244.855 32.2109C244.832 32.0938 244.82 31.8945 244.82 31.6133C244.867 31.0039 244.891 30.2422 244.891 29.3281C244.258 29.375 243.766 29.4219 243.414 29.4688C242.875 29.5859 242.371 29.6562 241.902 29.6797C241.879 30.6406 241.926 31.4961 242.043 32.2461C242.113 32.7383 242.254 33.0781 242.465 33.2656C242.605 33.3828 242.77 33.4531 242.957 33.4766C243.168 33.5 243.379 33.5117 243.59 33.5117C243.801 33.5117 243.941 33.5117 244.012 33.5117C244.738 33.5117 245.418 33.4766 246.051 33.4062C246.238 33.3828 246.402 33.3359 246.543 33.2656C246.707 33.1953 246.824 33.1602 246.895 33.1602C247.105 33.1602 247.316 33.2305 247.527 33.3711C247.738 33.5117 247.844 33.6758 247.844 33.8633C247.844 34.0508 247.738 34.1914 247.527 34.2852C247.34 34.3789 247.035 34.4609 246.613 34.5312C245.863 34.625 245.113 34.6719 244.363 34.6719ZM254.383 18.6758C254.664 18.6758 254.805 18.8047 254.805 19.0625C254.805 19.2031 254.676 19.4023 254.418 19.6602C253.715 20.5273 252.32 22.1797 250.234 24.6172C250.07 24.8281 249.918 24.9336 249.777 24.9336C249.66 24.9336 249.402 24.7578 249.004 24.4062C248.676 24.125 248.512 23.8906 248.512 23.7031C248.512 23.4922 248.688 23.293 249.039 23.1055C249.578 22.8008 250.387 22.1914 251.465 21.2773C252.543 20.3164 253.34 19.5547 253.855 18.9922C254.066 18.7812 254.242 18.6758 254.383 18.6758ZM209.699 30.1719C211.785 29.5156 213.648 28.8008 215.289 28.0273C214.938 27.5352 214.492 26.9727 213.953 26.3398C213.766 26.1055 213.672 25.918 213.672 25.7773C213.672 25.5195 213.824 25.2969 214.129 25.1094C214.434 24.8984 214.668 24.793 214.832 24.793C215.02 24.793 215.219 24.9102 215.43 25.1445C216.766 26.7148 217.902 28.0977 218.84 29.293C219.777 30.4883 220.246 31.2148 220.246 31.4727C220.246 31.6836 220.082 31.9297 219.754 32.2109C219.449 32.5156 219.156 32.668 218.875 32.668C218.641 32.668 218.406 32.4805 218.172 32.1055C217.633 31.2852 217.023 30.3945 216.344 29.4336L212.125 31.543C211.656 31.7539 210.918 32.1289 209.91 32.668C209.066 33.1133 208.551 33.3359 208.363 33.3359C208.223 33.3359 208.047 33.2422 207.836 33.0547C207.625 32.8906 207.461 32.6797 207.344 32.4219C207.25 32.1875 207.25 32 207.344 31.8594C207.484 31.6016 207.555 30.5703 207.555 28.7656V16.6016C207.555 16.0391 207.531 15.582 207.484 15.2305C207.461 14.8789 207.367 14.5039 207.203 14.1055C207.18 14.0352 207.156 13.9766 207.133 13.9297C207.109 13.8828 207.098 13.8359 207.098 13.7891C207.098 13.6719 207.18 13.6133 207.344 13.6133C207.648 13.6133 208.41 13.8711 209.629 14.3867L217.258 13.8594C217.445 13.8359 217.656 13.8242 217.891 13.8242C218.148 13.8242 218.453 13.9414 218.805 14.1758C219.156 14.3867 219.332 14.6211 219.332 14.8789C219.332 14.9727 219.273 15.1133 219.156 15.3008C219.062 15.4883 219.016 15.6289 219.016 15.7227L218.102 22.332C218.664 22.9883 218.945 23.4336 218.945 23.668C218.945 23.7852 218.875 23.8672 218.734 23.9141C218.617 23.9609 218.43 23.9844 218.172 23.9844L209.664 24.3008L209.699 30.1719ZM203.934 14.3867C203.934 14.1523 204.086 13.8711 204.391 13.543C206.102 11.6445 207.59 9.75781 208.855 7.88281C210.121 6.00781 210.754 4.75391 210.754 4.12109L210.719 3.875V3.76953C210.719 3.44141 210.848 3.27734 211.105 3.27734C211.41 3.27734 211.832 3.48828 212.371 3.91016C212.934 4.30859 213.215 4.63672 213.215 4.89453C213.215 5.01172 213.156 5.16406 213.039 5.35156C212.688 5.91406 212.301 6.47656 211.879 7.03906L216.871 6.65234C217.293 6.62891 217.738 6.53516 218.207 6.37109C218.348 6.32422 218.453 6.30078 218.523 6.30078C218.875 6.30078 219.25 6.5 219.648 6.89844C220.07 7.27344 220.281 7.56641 220.281 7.77734C220.281 8.05859 220.023 8.22266 219.508 8.26953L213.496 8.69141C213.66 8.73828 214.023 8.98438 214.586 9.42969C215.172 9.875 215.699 10.332 216.168 10.8008C216.637 11.2695 216.871 11.5977 216.871 11.7852C216.871 11.9961 216.73 12.2539 216.449 12.5586C216.168 12.8398 215.922 12.9805 215.711 12.9805C215.523 12.9805 215.301 12.8281 215.043 12.5234C214.246 11.6563 213.438 10.8945 212.617 10.2383C212.336 10.0039 212.195 9.80469 212.195 9.64062C212.195 9.52344 212.254 9.37109 212.371 9.18359C212.488 8.99609 212.641 8.84375 212.828 8.72656L210.473 8.90234C209.348 10.2852 208.105 11.5859 206.746 12.8047C205.387 14 204.52 14.5977 204.145 14.5977C204.004 14.5977 203.934 14.5273 203.934 14.3867ZM216.59 18.043L216.836 15.582L209.594 16.0742V18.3945L216.59 18.043ZM216.133 22.4023L216.414 19.6953L209.629 20.0117V22.6484L216.133 22.4023ZM218.031 12.875C218.031 12.6406 218.184 12.3594 218.488 12.0312C219.637 10.6484 220.68 9.08984 221.617 7.35547C222.578 5.59766 223.059 4.36719 223.059 3.66406V3.52344C223.059 3.17188 223.188 2.99609 223.445 2.99609C223.609 2.99609 223.855 3.08984 224.184 3.27734C224.535 3.44141 224.852 3.64063 225.133 3.875C225.414 4.10937 225.555 4.34375 225.555 4.57812C225.555 4.78906 225.391 5.16406 225.062 5.70312C224.734 6.24219 224.559 6.52344 224.535 6.54688L231.461 5.98438C231.977 5.9375 232.422 5.85547 232.797 5.73828C232.844 5.71484 232.938 5.70312 233.078 5.70312C233.406 5.70312 233.758 5.89063 234.133 6.26562C234.531 6.61719 234.73 6.91016 234.73 7.14453C234.73 7.28516 234.66 7.40234 234.52 7.49609C234.402 7.56641 234.238 7.61328 234.027 7.63672L226.891 8.12891C227.547 8.55078 228.32 9.17187 229.211 9.99219C230.102 10.7891 230.547 11.3281 230.547 11.6094C230.547 11.7734 230.418 12.0312 230.16 12.3828C229.902 12.7109 229.656 12.875 229.422 12.875C229.234 12.875 229.035 12.7578 228.824 12.5234C227.676 11.2812 226.633 10.2969 225.695 9.57031C225.461 9.38281 225.344 9.20703 225.344 9.04297C225.344 8.85547 225.52 8.57422 225.871 8.19922L223.27 8.375C222.496 9.40625 221.559 10.4492 220.457 11.5039C219.379 12.5586 218.652 13.0859 218.277 13.0859C218.113 13.0859 218.031 13.0156 218.031 12.875ZM221.336 13.6484C221.336 13.5078 221.418 13.4375 221.582 13.4375C221.934 13.4375 222.73 13.7305 223.973 14.3164L231.039 13.7188L231.32 13.6836C231.414 13.6836 231.59 13.7305 231.848 13.8242C232.129 13.8945 232.387 14.0234 232.621 14.2109C232.879 14.375 233.008 14.5977 233.008 14.8789C233.008 14.9727 232.973 15.1016 232.902 15.2656C232.832 15.4297 232.797 15.5469 232.797 15.6172C232.773 18.1953 232.609 20.9492 232.305 23.8789L232.234 24.7578C232.164 25.7422 232.07 26.5625 231.953 27.2188C231.836 27.875 231.637 28.3906 231.355 28.7656C230.91 29.375 230.43 29.6797 229.914 29.6797C229.398 29.6797 228.742 29.3633 227.945 28.7305C227.148 28.0977 226.41 27.4062 225.73 26.6562C225.074 25.9062 224.746 25.4258 224.746 25.2148C224.746 25.0508 224.84 24.9688 225.027 24.9688C225.238 24.9688 225.531 25.0859 225.906 25.3203C226.773 25.8594 227.5 26.293 228.086 26.6211C228.672 26.9492 229.094 27.1133 229.352 27.1133C229.469 27.1133 229.551 27.0312 229.598 26.8672C230.137 23.8672 230.465 20.1055 230.582 15.582L223.973 16.0742C223.973 20.0352 224.008 26.3164 224.078 34.918C224.078 35.1289 224.02 35.2812 223.902 35.375C223.809 35.4922 223.68 35.5508 223.516 35.5508C223.328 35.5508 223.105 35.4805 222.848 35.3398C222.402 35.1523 222.086 34.9766 221.898 34.8125C221.711 34.6484 221.617 34.4609 221.617 34.25L221.652 34.0039C221.793 33.2305 221.863 32.3633 221.863 31.4023L221.758 16.5664C221.758 15.957 221.734 15.4883 221.688 15.1602C221.664 14.832 221.594 14.5156 221.477 14.2109C221.383 13.9297 221.336 13.7422 221.336 13.6484Z" fill="#333333"/>
<path d="M138.656 68.1562C138.469 68.1562 138.323 68.1146 138.219 68.0312C138.219 68.0312 138.167 67.9792 138.062 67.875C137.979 67.7083 137.729 67.25 137.312 66.5C136.917 65.75 136.625 65.2396 136.438 64.9688C136.042 64.3854 135.844 64.0104 135.844 63.8438C135.844 63.6146 135.979 63.2812 136.25 62.8438C136.667 62.2604 136.948 61.7917 137.094 61.4375C137.365 60.9375 137.562 60.5521 137.688 60.2812C137.812 59.9896 137.865 59.7604 137.844 59.5938C137.823 59.4896 137.812 59.375 137.812 59.25C137.812 59.1667 137.833 59.125 137.875 59.125C137.917 59.1042 138 59.1146 138.125 59.1562C138.333 59.2188 138.573 59.3646 138.844 59.5938C138.906 59.6562 138.979 59.7396 139.062 59.8438C139.146 59.9479 139.198 60.0417 139.219 60.125C139.26 60.1875 139.271 60.2604 139.25 60.3438C139.25 60.4062 139.219 60.4688 139.156 60.5312L139 60.6562C138.854 60.8438 138.688 61.0729 138.5 61.3438C138.312 61.6146 138.135 61.8646 137.969 62.0938L137.188 63.2188C136.979 63.5104 136.875 63.7188 136.875 63.8438C136.875 63.9062 136.969 64.0729 137.156 64.3438L137.812 65.0625C138.438 65.75 138.729 66.0729 138.688 66.0312C139.083 66.4271 139.281 66.8125 139.281 67.1875C139.281 67.8333 139.073 68.1562 138.656 68.1562ZM142.781 68.0625C142.594 68.0625 142.438 68.0312 142.312 67.9688C142.083 67.7396 141.917 67.4688 141.812 67.1562L141.156 66L140.531 64.9062C140.135 64.3646 139.938 64 139.938 63.8125C139.938 63.5625 140.073 63.2396 140.344 62.8438L140.844 62.125C141.052 61.7708 141.167 61.5625 141.188 61.5C141.396 61.0833 141.573 60.7188 141.719 60.4062C141.885 60.0729 141.958 59.8229 141.938 59.6562C141.917 59.5729 141.906 59.4688 141.906 59.3438C141.906 59.1771 142 59.1354 142.188 59.2188C142.458 59.3229 142.75 59.4896 143.062 59.7188C143.208 59.8646 143.302 59.9896 143.344 60.0938C143.406 60.1771 143.438 60.2917 143.438 60.4375C143.438 60.4792 143.365 60.5625 143.219 60.6875C143.073 60.7917 142.948 60.9062 142.844 61.0312C142.719 61.1562 142.438 61.5521 142 62.2188C141.917 62.3438 141.812 62.4896 141.688 62.6562C141.583 62.8021 141.448 63 141.281 63.25C141.073 63.5208 140.969 63.7188 140.969 63.8438C140.969 63.9688 141.094 64.1562 141.344 64.4062C141.427 64.4896 141.51 64.5938 141.594 64.7188C141.698 64.8229 141.823 64.9479 141.969 65.0938L142.781 66C143.177 66.3542 143.375 66.6979 143.375 67.0312C143.375 67.7188 143.177 68.0625 142.781 68.0625ZM143.188 76.5938C142.875 76.5938 142.573 76.3646 142.281 75.9062C141.906 75.3229 141.542 74.8438 141.188 74.4688L140.375 73.625C139.938 74.125 139.552 74.5208 139.219 74.8125C138.906 75.1042 138.51 75.3854 138.031 75.6562C137.135 76.1771 136.385 76.4375 135.781 76.4375C135.635 76.4375 135.562 76.3854 135.562 76.2812C135.562 76.2188 135.76 76.0833 136.156 75.875C136.552 75.6667 136.927 75.4167 137.281 75.125C138.177 74.375 138.917 73.6042 139.5 72.8125C139.375 72.6875 138.75 72.1458 137.625 71.1875C137.479 71.0833 137.26 70.9062 136.969 70.6562C136.906 70.6146 136.781 70.5208 136.594 70.375C136.406 70.2292 136.312 70.125 136.312 70.0625C136.312 69.9583 136.365 69.9062 136.469 69.9062C136.781 69.9062 137.281 70.125 137.969 70.5625C138.656 70.9792 139.375 71.4792 140.125 72.0625C140.417 71.7083 140.646 71.375 140.812 71.0625C140.979 70.75 141.167 70.3646 141.375 69.9062C141.479 69.6771 141.542 69.4792 141.562 69.3125C141.583 69.125 141.594 69.0104 141.594 68.9688C141.594 68.7396 141.656 68.625 141.781 68.625C141.927 68.625 142.125 68.7396 142.375 68.9688C142.812 69.3854 143.031 69.6667 143.031 69.8125C143.031 69.8958 142.979 69.9896 142.875 70.0938C142.625 70.3438 142.396 70.6771 142.188 71.0938C142.062 71.3438 141.833 71.6979 141.5 72.1562C141.396 72.2812 141.312 72.3958 141.25 72.5C141.188 72.6042 141.125 72.6979 141.062 72.7812C141.542 73.1354 142.25 73.7396 143.188 74.5938C143.417 74.8021 143.562 75 143.625 75.1875C143.708 75.3542 143.75 75.5833 143.75 75.875C143.75 76.0833 143.698 76.2604 143.594 76.4062C143.49 76.5312 143.354 76.5938 143.188 76.5938ZM140.031 86.5312C139.885 86.5312 139.781 86.4896 139.719 86.4062C139.656 86.3229 139.615 86.2708 139.594 86.25C139.385 85.9583 139.292 85.6771 139.312 85.4062C139.333 85.2396 139.365 84.7917 139.406 84.0625L139.438 82.5625C139.417 82.3333 139.396 82.1979 139.375 82.1562C139.354 82.0938 139.26 81.9688 139.094 81.7812C138.76 81.3646 138.375 80.9375 137.938 80.5C137.438 80 137.115 79.6667 136.969 79.5C136.969 79.5 136.656 79.1875 136.031 78.5625C135.969 78.5 135.938 78.4375 135.938 78.375C135.938 78.2708 136 78.1875 136.125 78.125C136.271 78.0417 136.417 78.0104 136.562 78.0312C136.979 78.0729 137.25 78.125 137.375 78.1875C137.521 78.2292 137.656 78.3542 137.781 78.5625C137.906 78.7708 138.083 79.0208 138.312 79.3125C138.562 79.5833 138.75 79.7917 138.875 79.9375C139.396 80.5625 139.76 80.9792 139.969 81.1875C140.344 80.75 140.812 80.125 141.375 79.3125C141.833 78.7292 142.104 78.25 142.188 77.875C142.271 77.6042 142.396 77.4688 142.562 77.4688C142.646 77.4688 142.771 77.5208 142.938 77.625C143.479 77.9583 143.75 78.2292 143.75 78.4375C143.75 78.5625 143.615 78.7188 143.344 78.9062C142.969 79.1771 142.656 79.4792 142.406 79.8125L141.781 80.5938C141.365 81.0938 141.052 81.4896 140.844 81.7812C140.74 81.9688 140.688 82.2396 140.688 82.5938V84.5V85.75C140.708 85.8958 140.625 86.0625 140.438 86.25C140.271 86.4375 140.135 86.5312 140.031 86.5312ZM145.562 74.6562C145.667 74.6562 145.823 74.7292 146.031 74.875C146.01 74.9167 146.052 75 146.156 75.125C146.26 75.2292 146.333 75.3021 146.375 75.3438C146.479 75.4479 146.583 75.5729 146.688 75.7188C146.812 75.8646 146.948 76.0208 147.094 76.1875C147.469 76.5833 148.333 77.6146 149.688 79.2812C149.917 79.6146 150.031 79.8125 150.031 79.875C150.031 80.0833 149.906 80.1875 149.656 80.1875C149.51 80.1875 149.354 80.0833 149.188 79.875C148.792 79.4583 148.083 78.8021 147.062 77.9062C146.271 77.1771 145.552 76.6146 144.906 76.2188C144.594 76.0729 144.438 75.9062 144.438 75.7188C144.438 75.5729 144.594 75.3646 144.906 75.0938C145.198 74.8021 145.417 74.6562 145.562 74.6562ZM108.969 76.4688C108.01 77.1354 107.323 77.5729 106.906 77.7812C106.51 77.9896 106.188 78.0938 105.938 78.0938C105.646 78.0938 105.271 77.9167 104.812 77.5625C104.354 77.1875 104.125 76.8854 104.125 76.6562C104.125 76.5104 104.229 76.4271 104.438 76.4062C105.312 76.2396 106.833 75.5938 109 74.4688L109.031 68.0625L107.531 68.1875C106.948 68.2292 106.583 68.25 106.438 68.25C106.104 68.25 105.875 68.1875 105.75 68.0625C105.333 67.6667 105.042 67.2292 104.875 66.75C104.854 66.7083 104.844 66.6562 104.844 66.5938C104.844 66.4896 104.896 66.4375 105 66.4375L105.156 66.4688C105.469 66.5312 105.792 66.5625 106.125 66.5625C106.438 66.5625 106.688 66.5521 106.875 66.5312L109.031 66.375L109.062 61.4375C109.062 61.0625 109.031 60.7604 108.969 60.5312C108.906 60.3021 108.771 60.0312 108.562 59.7188C108.5 59.6146 108.469 59.5312 108.469 59.4688C108.469 59.3229 108.583 59.25 108.812 59.25C109.062 59.25 109.438 59.3438 109.938 59.5312C110.333 59.6771 110.604 59.8333 110.75 60C110.896 60.1458 110.969 60.3438 110.969 60.5938L110.938 66.2188L111.844 66.1562C112.219 66.1354 112.615 66.0208 113.031 65.8125C113.073 65.7917 113.135 65.7812 113.219 65.7812C113.49 65.7812 113.833 65.9583 114.25 66.3125C114.667 66.6667 114.875 66.9583 114.875 67.1875C114.875 67.3125 114.802 67.4167 114.656 67.5C114.531 67.5833 114.365 67.6354 114.156 67.6562L110.938 67.9062L110.906 73.4688C111.531 73.1354 112.438 72.6042 113.625 71.875C113.896 71.7083 114.115 71.625 114.281 71.625C114.469 71.625 114.562 71.7083 114.562 71.875C114.562 72.125 114.094 72.625 113.156 73.375C112.24 74.125 111.479 74.7083 110.875 75.125L110.844 83.4688L110.875 84.5625C110.875 85.1667 110.698 85.625 110.344 85.9375C110.01 86.2708 109.656 86.4375 109.281 86.4375C108.823 86.4375 108.271 86.1354 107.625 85.5312C106.979 84.9479 106.396 84.3021 105.875 83.5938C105.375 82.8646 105.125 82.3958 105.125 82.1875C105.125 82.0833 105.177 82.0312 105.281 82.0312C105.427 82.0312 105.708 82.1771 106.125 82.4688C107.104 83.1562 108.042 83.6771 108.938 84.0312L108.969 76.4688ZM112.344 81.5C112.344 81.3542 112.438 81.2812 112.625 81.2812H112.781C112.906 81.3021 113.115 81.3125 113.406 81.3125C114.26 81.3125 115.74 81.0625 117.844 80.5625L117.875 76.4062L116.531 76.4688C116.344 76.4896 116.083 76.5 115.75 76.5C115.25 76.5 114.896 76.3958 114.688 76.1875C114.521 76.0208 114.354 75.8125 114.188 75.5625C114.042 75.2917 113.969 75.0417 113.969 74.8125C113.969 74.7083 114.01 74.6562 114.094 74.6562L114.219 74.6875C114.635 74.8125 115.094 74.875 115.594 74.875H115.906L117.875 74.7812V72.875C117.875 72.3958 117.771 71.9896 117.562 71.6562C117.458 71.4896 117.406 71.3542 117.406 71.25C117.406 71.1042 117.521 71.0312 117.75 71.0312C118.083 71.0312 118.51 71.1146 119.031 71.2812C119.552 71.4271 119.812 71.6562 119.812 71.9688V74.6875L120.75 74.625C121.104 74.6042 121.604 74.5208 122.25 74.375C122.375 74.3333 122.479 74.3125 122.562 74.3125C122.833 74.3125 123.156 74.5 123.531 74.875C123.906 75.25 124.094 75.5312 124.094 75.7188C124.094 75.9271 123.885 76.0521 123.469 76.0938L119.812 76.2812L119.781 80.0938C121.573 79.5938 123.021 79.1771 124.125 78.8438C124.354 78.7604 124.562 78.7188 124.75 78.7188C125.083 78.7188 125.25 78.8229 125.25 79.0312C125.25 79.1562 125.177 79.2917 125.031 79.4375C124.885 79.5625 124.677 79.6875 124.406 79.8125C122.531 80.7083 120.833 81.4271 119.312 81.9688C117.812 82.5104 116.604 82.8958 115.688 83.125C114.792 83.3542 114.26 83.4688 114.094 83.4688C113.677 83.4688 113.312 83.2604 113 82.8438C112.708 82.4062 112.51 82.0417 112.406 81.75L112.344 81.5ZM113.094 68.9375C113.094 68.8542 113.135 68.8125 113.219 68.8125C113.281 68.8125 113.333 68.8229 113.375 68.8438C113.854 68.9896 114.312 69.0625 114.75 69.0625H115.031L117.844 68.9062V65.5625L116.625 65.6562C116.417 65.6771 116.146 65.6875 115.812 65.6875C115.333 65.6875 115.01 65.6042 114.844 65.4375C114.615 65.2083 114.427 64.9479 114.281 64.6562C114.156 64.3646 114.094 64.1458 114.094 64C114.094 63.8958 114.135 63.8438 114.219 63.8438C114.281 63.8438 114.333 63.8542 114.375 63.875C114.812 64.0208 115.292 64.0938 115.812 64.0938H116.031L117.875 63.9688V61.3125C117.875 60.7708 117.771 60.3229 117.562 59.9688C117.438 59.7396 117.375 59.5833 117.375 59.5C117.375 59.3542 117.469 59.2812 117.656 59.2812C117.865 59.2812 118.219 59.3646 118.719 59.5312C119.177 59.6771 119.469 59.8021 119.594 59.9062C119.74 60.0104 119.812 60.1667 119.812 60.375V63.8438L120.469 63.7812C121.031 63.7604 121.521 63.6667 121.938 63.5C122 63.4792 122.073 63.4688 122.156 63.4688C122.385 63.4688 122.719 63.6458 123.156 64C123.594 64.3333 123.812 64.6146 123.812 64.8438C123.812 65.0521 123.583 65.1771 123.125 65.2188L119.781 65.4375V68.7812L121.438 68.6875C122.042 68.6458 122.531 68.5521 122.906 68.4062C123.031 68.3646 123.115 68.3438 123.156 68.3438C123.406 68.3438 123.74 68.5417 124.156 68.9375C124.594 69.3333 124.812 69.6354 124.812 69.8438C124.812 70.0312 124.583 70.1458 124.125 70.1875L115.656 70.7188C115.51 70.7396 115.302 70.75 115.031 70.75C114.448 70.75 114.021 70.6146 113.75 70.3438C113.5 70.0729 113.292 69.6667 113.125 69.125C113.104 69.0833 113.094 69.0208 113.094 68.9375ZM125.188 58.875C125.188 58.7292 125.323 58.6562 125.594 58.6562C125.927 58.6562 126.344 58.75 126.844 58.9375C127.281 59.0833 127.562 59.2292 127.688 59.375C127.833 59.5 127.906 59.6979 127.906 59.9688V69.2812C128.052 69.1771 128.188 69.125 128.312 69.125C128.604 69.125 129.146 69.5104 129.938 70.2812C130.75 71.0521 131.521 71.8854 132.25 72.7812C133 73.6562 133.375 74.1771 133.375 74.3438C133.375 74.5938 133.208 74.8438 132.875 75.0938C132.562 75.3438 132.323 75.4688 132.156 75.4688C131.906 75.4688 131.667 75.3125 131.438 75C130.979 74.375 130.417 73.6875 129.75 72.9375C129.083 72.1667 128.469 71.5104 127.906 70.9688L127.938 86C127.938 86.5417 127.74 86.8125 127.344 86.8125C127.24 86.8125 127.052 86.7604 126.781 86.6562C126.51 86.5521 126.26 86.3854 126.031 86.1562C125.802 85.9271 125.688 85.6354 125.688 85.2812C125.688 85.1562 125.698 85.0521 125.719 84.9688C125.865 84.2396 125.938 83.6146 125.938 83.0938V60.5938C125.938 60.3229 125.885 60.0833 125.781 59.875C125.698 59.6667 125.562 59.4479 125.375 59.2188C125.25 59.0521 125.188 58.9375 125.188 58.875ZM184.719 66.5938C184.573 66.5938 184.646 66.4688 184.938 66.2188C185.229 65.9688 185.583 65.6667 186 65.3125C186.417 64.9375 186.885 64.4479 187.406 63.8438C187.74 63.4479 187.99 63.0312 188.156 62.5938C188.26 62.3438 188.375 62.2188 188.5 62.2188C188.604 62.2188 188.76 62.3021 188.969 62.4688C189.385 62.8021 189.594 63.0833 189.594 63.3125C189.594 63.4583 189.51 63.5625 189.344 63.625C189.26 63.6458 189.135 63.7396 188.969 63.9062C188.802 64.0521 188.677 64.1667 188.594 64.25C187.698 65.125 186.865 65.7604 186.094 66.1562C185.469 66.4479 185.052 66.5938 184.844 66.5938H184.719ZM188 72.4062C187.938 72.4062 187.833 72.3229 187.688 72.1562C187.562 71.9688 187.469 71.7917 187.406 71.625C187.385 71.5 187.385 71.3438 187.406 71.1562C187.448 70.9479 187.469 70.7917 187.469 70.6875C187.51 70.2708 187.531 69.9375 187.531 69.6875C187.552 69.4583 187.552 69.2083 187.531 68.9375C187.531 68.6667 187.531 68.4896 187.531 68.4062L187.5 67.9375C187 68.2917 186.615 68.5417 186.344 68.6875C185.74 69.0208 185.302 69.2292 185.031 69.3125C184.698 69.4375 184.396 69.5 184.125 69.5C183.979 69.5 183.896 69.4792 183.875 69.4375C183.833 69.3542 184.25 69.0521 185.125 68.5312C185.958 68.0104 186.865 67.3229 187.844 66.4688C188.385 65.9688 188.802 65.4896 189.094 65.0312C189.135 64.9688 189.167 64.8958 189.188 64.8125C189.229 64.7083 189.271 64.6458 189.312 64.625C189.375 64.6042 189.458 64.6146 189.562 64.6562C189.833 64.8021 190.062 65.0104 190.25 65.2812C190.333 65.3854 190.375 65.4896 190.375 65.5938C190.375 65.6979 190.323 65.8021 190.219 65.9062C190.115 65.9896 190.01 66.0521 189.906 66.0938C189.552 66.3229 189.229 66.5729 188.938 66.8438C188.646 67.1146 188.458 67.2917 188.375 67.375C188.688 67.625 188.844 67.8021 188.844 67.9062L188.75 68.5625C188.708 68.75 188.688 69.2188 188.688 69.9688C188.688 70.6979 188.708 71.1875 188.75 71.4375V71.5C188.75 71.6042 188.719 71.7188 188.656 71.8438C188.615 71.9479 188.583 72.0208 188.562 72.0625C188.417 72.2917 188.229 72.4062 188 72.4062ZM191.562 81.8438C191.854 82.0312 192 82.2083 192 82.375C192 82.6042 191.823 82.75 191.469 82.8125C191.115 82.875 190.615 82.9167 189.969 82.9375C189.031 82.9583 188.427 82.9271 188.156 82.8438C187.698 82.6354 187.469 82.2917 187.469 81.8125L187.5 80.6562C187.542 80.2812 187.562 79.9479 187.562 79.6562C187.583 79.4688 187.594 79.1042 187.594 78.5625C187.281 79.2708 186.875 79.9583 186.375 80.625C186.021 81.0625 185.708 81.4271 185.438 81.7188C185.167 81.9896 184.844 82.25 184.469 82.5C184.094 82.75 183.75 82.875 183.438 82.875C183.25 82.875 183.156 82.8125 183.156 82.6875C183.156 82.6667 183.354 82.5104 183.75 82.2188C184.167 81.9062 184.583 81.4792 185 80.9375C185.625 80.1042 186.167 79.125 186.625 78C185.812 78.1042 185.271 78.1979 185 78.2812C184.896 78.3021 184.802 78.3333 184.719 78.375C184.635 78.3958 184.531 78.3958 184.406 78.375C184.302 78.3333 184.156 78.25 183.969 78.125C183.781 77.9792 183.635 77.8438 183.531 77.7188C183.448 77.5938 183.406 77.5104 183.406 77.4688C183.406 77.3646 183.562 77.3125 183.875 77.3125C184.646 77.3125 185.635 77.2292 186.844 77.0625C186.969 76.5833 187.031 75.8125 187.031 74.75V74.1562C187.031 73.9062 187.083 73.7708 187.188 73.75C187.208 73.7292 187.25 73.7188 187.312 73.7188C187.479 73.7188 187.708 73.8438 188 74.0938C188.229 74.2812 188.375 74.4271 188.438 74.5312C188.521 74.6146 188.531 74.7292 188.469 74.875C188.448 74.9167 188.406 75 188.344 75.125C188.281 75.25 188.24 75.375 188.219 75.5C188.198 75.6042 188.156 75.8125 188.094 76.125C188.031 76.4167 187.99 76.6771 187.969 76.9062C188.26 76.8854 188.625 76.8438 189.062 76.7812C189.5 76.7188 189.823 76.6562 190.031 76.5938L190.656 76.4375C190.865 76.3958 191.208 76.5729 191.688 76.9688C191.771 77.0312 191.812 77.1042 191.812 77.1875C191.812 77.2708 191.771 77.3438 191.688 77.4062C191.625 77.4479 191.542 77.4688 191.438 77.4688C191.062 77.4688 190.375 77.5312 189.375 77.6562L188.344 77.75C188.573 77.9167 188.719 78.0625 188.781 78.1875C188.844 78.3125 188.854 78.4375 188.812 78.5625L188.719 79.0625C188.677 79.4792 188.635 79.9375 188.594 80.4375C188.573 80.9375 188.573 81.3229 188.594 81.5938C188.594 81.6979 188.656 81.7917 188.781 81.875C188.927 81.9583 189.073 82 189.219 82C189.74 82 190.323 81.9479 190.969 81.8438L191.25 81.7812C191.375 81.7812 191.479 81.8021 191.562 81.8438ZM159.125 86.625V86.7188C159.125 87.1354 158.969 87.3438 158.656 87.3438C158.344 87.3438 158 87.2188 157.625 86.9688C157.25 86.7188 157.062 86.4583 157.062 86.1875V86.0312C157.062 85.8854 157.073 85.7292 157.094 85.5625C157.115 85.4167 157.125 85.2708 157.125 85.125C157.125 84.8333 157.115 84.6042 157.094 84.4375L156.688 78.7188C156.667 78.1979 156.49 77.6562 156.156 77.0938C156.052 76.9271 156 76.7812 156 76.6562C156 76.4896 156.125 76.4062 156.375 76.4062C156.75 76.4062 157.458 76.6146 158.5 77.0312L175.625 76.2812C176.062 76.2604 176.438 76.3646 176.75 76.5938C177.083 76.8229 177.25 77.0521 177.25 77.2812C177.25 77.3646 177.219 77.4688 177.156 77.5938C177.115 77.6979 177.083 77.7917 177.062 77.875L176.25 83.8125C176.792 84.4167 177.062 84.8438 177.062 85.0938C177.062 85.3646 176.771 85.5 176.188 85.5L159.094 85.9688L159.125 86.625ZM152.594 63.0312C152.594 62.9062 152.677 62.8438 152.844 62.8438C152.927 62.8438 152.99 62.8542 153.031 62.875C153.385 62.9583 153.76 63 154.156 63L154.688 62.9688L161.188 62.5938L160.906 60.7188C160.885 60.5729 160.802 60.375 160.656 60.125C160.51 59.8542 160.354 59.6354 160.188 59.4688C160.042 59.3229 159.969 59.1979 159.969 59.0938C159.969 58.9062 160.188 58.8125 160.625 58.8125C160.854 58.8125 161.135 58.8438 161.469 58.9062C161.885 58.9688 162.177 59.0729 162.344 59.2188C162.51 59.3646 162.615 59.5417 162.656 59.75L163.062 62.4375L164.531 62.375C164.802 62.375 164.979 62.3854 165.062 62.4062C165.396 62.4688 165.562 62.6667 165.562 63C165.562 63.25 165.458 63.4271 165.25 63.5312C165.042 63.6146 164.76 63.6771 164.406 63.7188C164.156 63.7604 163.771 63.7812 163.25 63.7812L163.562 65.8438V66.0312C163.562 66.4062 163.385 66.5938 163.031 66.5938C162.74 66.5938 162.406 66.5208 162.031 66.375C161.656 66.2083 161.469 65.9167 161.469 65.5V65.4062C161.469 64.8646 161.458 64.4688 161.438 64.2188L155.156 64.5625L154.438 64.5938C154.146 64.5938 153.917 64.5729 153.75 64.5312C153.604 64.4896 153.479 64.4167 153.375 64.3125C153.167 64.125 152.979 63.8958 152.812 63.625C152.667 63.3333 152.594 63.1354 152.594 63.0312ZM157.844 67.0625C157.844 66.9167 157.969 66.8438 158.219 66.8438C158.594 66.8438 159.281 67.0312 160.281 67.4062L173.031 66.6562H173.312C173.667 66.6562 173.969 66.7708 174.219 67C174.49 67.2292 174.625 67.4375 174.625 67.625C174.625 67.7083 174.594 67.8021 174.531 67.9062C174.49 68.0104 174.458 68.0938 174.438 68.1562L173.75 73C174.188 73.5625 174.406 73.9583 174.406 74.1875C174.406 74.3125 174.344 74.3958 174.219 74.4375C174.094 74.4792 173.885 74.5104 173.594 74.5312L161 75.1562L161.031 75.5312V75.5938C161.031 75.7812 160.969 75.9271 160.844 76.0312C160.74 76.1146 160.604 76.1562 160.438 76.1562C160.083 76.1562 159.75 76.0521 159.438 75.8438C159.146 75.6354 159 75.3958 159 75.125V74.9375C159 74.7917 159.01 74.6562 159.031 74.5312C159.052 74.4062 159.062 74.2812 159.062 74.1562C159.062 73.9896 159.042 73.7188 159 73.3438L158.5 68.9062C158.417 68.3438 158.25 67.8542 158 67.4375C157.896 67.2708 157.844 67.1458 157.844 67.0625ZM158.688 80.5625L174.875 79.9688L175.094 77.9062L158.562 78.6875L158.688 80.5625ZM158.969 84.3125L174.438 83.9062L174.688 81.5312L158.812 82.0938L158.969 84.3125ZM160.469 70.5L172.281 69.8438L172.469 68.1562L160.281 68.875L160.469 70.5ZM160.812 73.7188L171.938 73.125L172.125 71.25L160.625 71.875L160.812 73.7188ZM166.938 62.3125C166.938 62.2708 166.969 62.2396 167.031 62.2188C167.094 62.1771 167.167 62.1562 167.25 62.1562L168.094 62.125C168.302 62.125 168.885 62.1042 169.844 62.0625C170.115 61.1667 170.25 60.4167 170.25 59.8125V59.5938C170.25 59.2188 170.167 58.8854 170 58.5938C169.938 58.4688 169.906 58.375 169.906 58.3125C169.906 58.1875 169.99 58.125 170.156 58.125C170.26 58.125 170.51 58.1979 170.906 58.3438C171.302 58.4688 171.656 58.6458 171.969 58.875C172.302 59.0833 172.469 59.3125 172.469 59.5625C172.469 59.6667 172.458 59.7396 172.438 59.7812C172.104 60.8438 171.865 61.5833 171.719 62L177.031 61.6875C177.656 61.6667 178.177 61.5833 178.594 61.4375C178.76 61.375 178.917 61.3438 179.062 61.3438C179.375 61.3438 179.698 61.5208 180.031 61.875C180.385 62.2292 180.562 62.5208 180.562 62.75C180.562 62.9792 180.333 63.1146 179.875 63.1562L171.031 63.6562C170.615 64.6562 170.271 65.3854 170 65.8438C169.729 66.2812 169.469 66.5 169.219 66.5C169.115 66.5 169.031 66.4583 168.969 66.375C168.906 66.2708 168.875 66.125 168.875 65.9375C168.875 65.875 168.917 65.6562 169 65.2812L169.406 63.75C169.073 63.7917 168.781 63.8125 168.531 63.8125C168.115 63.7917 167.74 63.6354 167.406 63.3438C167.073 63.0521 166.917 62.7188 166.938 62.3438V62.3125ZM239.562 70.25C239.854 70.5 240 70.9062 240 71.4688C239.958 71.7812 239.823 71.9271 239.594 71.9062C239.323 71.9271 238.99 71.7604 238.594 71.4062C238.427 71.2188 238.083 70.9271 237.562 70.5312C237.062 70.1146 236.615 69.7812 236.219 69.5312C235.615 70.0729 234.885 70.5938 234.031 71.0938C233.198 71.5938 232.531 71.8438 232.031 71.8438C231.823 71.8438 231.719 71.7812 231.719 71.6562C231.719 71.6146 231.958 71.4479 232.438 71.1562C233 70.8438 233.552 70.4792 234.094 70.0625C234.615 69.6667 235.042 69.3021 235.375 68.9688L234.656 68.5625C234.177 68.25 233.865 68.0625 233.719 68C233.094 67.6042 232.781 67.3542 232.781 67.25C232.781 67.1875 232.885 67.1562 233.094 67.1562C233.26 67.1354 233.646 67.2604 234.25 67.5312L236 68.3438L236.469 67.8438C236.531 67.7604 236.604 67.6771 236.688 67.5938C236.771 67.5104 236.854 67.4167 236.938 67.3125C237.25 66.9167 237.5 66.5833 237.688 66.3125C237.896 66.0208 238.01 65.8021 238.031 65.6562C238.031 65.5729 237.958 65.5312 237.812 65.5312C237.604 65.5312 237.156 65.5833 236.469 65.6875L235.719 65.7812C235.135 65.8646 234.646 65.9583 234.25 66.0625C234.021 66.1042 233.823 66.1667 233.656 66.25C233.594 66.2708 233.5 66.2812 233.375 66.2812C233.25 66.2812 233.156 66.2812 233.094 66.2812C233.031 66.2604 232.979 66.2188 232.938 66.1562C232.896 66.1146 232.833 66.0417 232.75 65.9375C232.646 65.7708 232.594 65.6354 232.594 65.5312C232.594 65.4896 232.677 65.3854 232.844 65.2188L233.438 64.5312C233.583 64.3438 233.76 64.0521 233.969 63.6562C234.177 63.2396 234.292 62.9167 234.312 62.6875C234.312 62.625 234.354 62.5938 234.438 62.5938C234.625 62.5938 234.844 62.6979 235.094 62.9062C235.198 62.9896 235.281 63.0833 235.344 63.1875C235.427 63.2917 235.469 63.375 235.469 63.4375C235.469 63.5208 235.417 63.6146 235.312 63.7188C235.208 63.8229 234.969 64.1354 234.594 64.6562L234.156 65.2188L235.969 64.9062C236.74 64.8438 237.312 64.7604 237.688 64.6562L238.156 64.5938C238.26 64.5729 238.385 64.5625 238.531 64.5625C238.677 64.5625 238.917 64.7188 239.25 65.0312C239.375 65.1354 239.458 65.2292 239.5 65.3125C239.562 65.375 239.594 65.4479 239.594 65.5312C239.594 65.6146 239.573 65.6979 239.531 65.7812C239.49 65.8438 239.448 65.9062 239.406 65.9688C239.198 66.1771 238.896 66.5625 238.5 67.125C238.167 67.6042 237.677 68.1875 237.031 68.875L237.812 69.25C238.812 69.75 239.396 70.0833 239.562 70.25ZM239.188 82.2188C238.875 82.2188 238.573 81.9896 238.281 81.5312C237.906 80.9479 237.542 80.4688 237.188 80.0938L236.375 79.25C235.938 79.75 235.552 80.1458 235.219 80.4375C234.906 80.7292 234.51 81.0104 234.031 81.2812C233.135 81.8021 232.385 82.0625 231.781 82.0625C231.635 82.0625 231.562 82.0104 231.562 81.9062C231.562 81.8438 231.76 81.7083 232.156 81.5C232.552 81.2917 232.927 81.0417 233.281 80.75C234.177 80 234.917 79.2292 235.5 78.4375C235.375 78.3125 234.75 77.7708 233.625 76.8125C233.479 76.7083 233.26 76.5312 232.969 76.2812C232.906 76.2396 232.781 76.1458 232.594 76C232.406 75.8542 232.312 75.75 232.312 75.6875C232.312 75.5833 232.365 75.5312 232.469 75.5312C232.781 75.5312 233.281 75.75 233.969 76.1875C234.656 76.6042 235.375 77.1042 236.125 77.6875C236.417 77.3333 236.646 77 236.812 76.6875C236.979 76.375 237.167 75.9896 237.375 75.5312C237.479 75.3021 237.542 75.1042 237.562 74.9375C237.583 74.75 237.594 74.6354 237.594 74.5938C237.594 74.3646 237.656 74.25 237.781 74.25C237.927 74.25 238.125 74.3646 238.375 74.5938C238.812 75.0104 239.031 75.2917 239.031 75.4375C239.031 75.5208 238.979 75.6146 238.875 75.7188C238.625 75.9688 238.396 76.3021 238.188 76.7188C238.062 76.9688 237.833 77.3229 237.5 77.7812C237.396 77.9062 237.312 78.0208 237.25 78.125C237.188 78.2292 237.125 78.3229 237.062 78.4062C237.542 78.7604 238.25 79.3646 239.188 80.2188C239.417 80.4271 239.562 80.625 239.625 80.8125C239.708 80.9792 239.75 81.2083 239.75 81.5C239.75 81.7083 239.698 81.8854 239.594 82.0312C239.49 82.1562 239.354 82.2188 239.188 82.2188ZM245.562 68.7188C245.812 68.7188 245.938 68.8333 245.938 69.0625C245.938 69.1875 245.823 69.3646 245.594 69.5938C244.969 70.3646 243.729 71.8333 241.875 74C241.729 74.1875 241.594 74.2812 241.469 74.2812C241.365 74.2812 241.135 74.125 240.781 73.8125C240.49 73.5625 240.344 73.3542 240.344 73.1875C240.344 73 240.5 72.8229 240.812 72.6562C241.292 72.3854 242.01 71.8438 242.969 71.0312C243.927 70.1771 244.635 69.5 245.094 69C245.281 68.8125 245.438 68.7188 245.562 68.7188ZM225.906 85.2188C225.906 85.6771 225.781 86.1042 225.531 86.5C225.281 86.8958 225.01 87.0938 224.719 87.0938C224.469 87.0938 223.969 86.8438 223.219 86.3438C222.49 85.8438 221.781 85.3021 221.094 84.7188C220.427 84.1354 220.094 83.7812 220.094 83.6562C220.094 83.5312 220.188 83.4688 220.375 83.4688C220.5 83.4688 220.688 83.5208 220.938 83.625C222.083 84.1875 223.115 84.6146 224.031 84.9062L224 80.9062L219.094 81.125V85.4688C219.094 85.7188 219.062 85.9062 219 86.0312C218.958 86.1562 218.854 86.2188 218.688 86.2188C218.438 86.2188 218.125 86.1042 217.75 85.875C217.375 85.6458 217.188 85.3438 217.188 84.9688V84.7188C217.188 84.4688 217.208 84.0729 217.25 83.5312C217.292 82.9062 217.312 82.4271 217.312 82.0938V81.1875L212.875 81.375V86.25C212.875 86.7708 212.698 87.0312 212.344 87.0312C212.281 87.0312 212.115 86.9792 211.844 86.875C211.594 86.7708 211.354 86.6354 211.125 86.4688C210.917 86.3021 210.812 86.1146 210.812 85.9062C210.812 85.7812 210.823 85.6875 210.844 85.625C210.927 85.1042 210.969 84.4792 210.969 83.75L211.031 74.5625C211.031 74.2292 210.99 73.9271 210.906 73.6562C210.844 73.3646 210.792 73.1354 210.75 72.9688C210.729 72.8854 210.719 72.7812 210.719 72.6562C210.719 72.4479 210.812 72.3438 211 72.3438C211.292 72.3438 211.927 72.5521 212.906 72.9688L217.281 72.7188V70.8125L211.625 71.125L211 71.1562C210.646 71.1562 210.333 71.0104 210.062 70.7188C209.792 70.4271 209.573 70.0938 209.406 69.7188C209.365 69.5938 209.344 69.5208 209.344 69.5C209.344 69.4167 209.406 69.375 209.531 69.375C209.635 69.375 209.729 69.3854 209.812 69.4062C210.146 69.4896 210.51 69.5312 210.906 69.5312H211.25L217.281 69.2188V68.375C217.281 67.9792 217.25 67.6562 217.188 67.4062C217.146 67.1562 217.042 66.9062 216.875 66.6562C216.812 66.5938 216.781 66.5312 216.781 66.4688C216.781 66.3438 216.896 66.2812 217.125 66.2812C217.5 66.2812 217.917 66.375 218.375 66.5625C218.854 66.75 219.094 67.0312 219.094 67.4062V69.125L225.156 68.8125C225.573 68.7917 225.927 68.7188 226.219 68.5938C226.344 68.5521 226.448 68.5312 226.531 68.5312C226.823 68.5312 227.115 68.6875 227.406 69C227.698 69.3125 227.844 69.5938 227.844 69.8438C227.844 70.1146 227.635 70.2708 227.219 70.3125L219.094 70.75V72.625L224.5 72.3438L224.938 72.3125C225.188 72.3125 225.427 72.4167 225.656 72.625C225.885 72.8333 226 73.0521 226 73.2812C226 73.3646 225.979 73.4792 225.938 73.625C225.896 73.7708 225.875 73.8958 225.875 74L225.906 84.5312V85.2188ZM201.781 72.5C201.781 72.375 201.865 72.1771 202.031 71.9062C202.198 71.6354 202.385 71.5 202.594 71.5C202.76 71.5 203.229 71.7292 204 72.1875C204.771 72.6458 205.49 73.1354 206.156 73.6562C206.823 74.1562 207.156 74.5 207.156 74.6875C207.156 74.875 207.031 75.1354 206.781 75.4688C206.552 75.8021 206.333 75.9688 206.125 75.9688C205.917 75.9688 205.688 75.8438 205.438 75.5938C204.396 74.6146 203.302 73.7396 202.156 72.9688C201.906 72.8021 201.781 72.6458 201.781 72.5ZM201.781 62.8438C201.781 62.7188 201.865 62.6562 202.031 62.6562C202.115 62.6562 202.177 62.6667 202.219 62.6875C202.573 62.7708 202.948 62.8125 203.344 62.8125L203.906 62.7812L209.625 62.4375L209.438 61.125C209.375 60.6875 209.146 60.2604 208.75 59.8438C208.604 59.6979 208.531 59.5729 208.531 59.4688C208.531 59.4062 208.583 59.3542 208.688 59.3125C208.792 59.25 208.948 59.2188 209.156 59.2188C209.948 59.2188 210.469 59.3229 210.719 59.5312C210.99 59.7396 211.146 59.9583 211.188 60.1875L211.469 62.3125L212.719 62.25C212.99 62.25 213.167 62.2604 213.25 62.2812C213.396 62.3021 213.51 62.3646 213.594 62.4688C213.698 62.5729 213.75 62.6979 213.75 62.8438C213.75 63.0938 213.656 63.2708 213.469 63.375C213.281 63.4792 213.01 63.5521 212.656 63.5938C212.51 63.6146 212.333 63.6354 212.125 63.6562C211.917 63.6771 211.76 63.6875 211.656 63.6875L211.969 66.0312L212 66.25C212 66.6042 211.823 66.7812 211.469 66.7812C211.177 66.7812 210.844 66.6979 210.469 66.5312C210.115 66.3646 209.938 66.0833 209.938 65.6875V65.5625C209.938 65.0625 209.917 64.6979 209.875 64.4688L209.812 64.0938L204.344 64.4062C204.156 64.4271 203.917 64.4375 203.625 64.4375C203.333 64.4375 203.104 64.4167 202.938 64.375C202.792 64.3333 202.667 64.2604 202.562 64.1562C202.396 63.9896 202.219 63.7708 202.031 63.5C201.865 63.2292 201.781 63.0104 201.781 62.8438ZM202 84.1562C202 84.0312 202.104 83.9271 202.312 83.8438C202.792 83.5729 203.188 83.25 203.5 82.875C205.5 80.3958 207.062 78.2396 208.188 76.4062C208.354 76.1354 208.51 75.9271 208.656 75.7812C208.823 75.6354 208.958 75.5625 209.062 75.5625C209.208 75.5625 209.281 75.6667 209.281 75.875C209.281 76.2292 208.885 77.2188 208.094 78.8438C207.302 80.4479 206.333 82.1667 205.188 84C204.917 84.4583 204.677 84.7917 204.469 85C204.281 85.2083 204.094 85.3125 203.906 85.3125C203.677 85.3125 203.302 85.1771 202.781 84.9062C202.26 84.6354 202 84.3854 202 84.1562ZM203.719 67.6562C203.719 67.5312 203.823 67.3333 204.031 67.0625C204.219 66.8125 204.406 66.6875 204.594 66.6875C204.823 66.6875 205.354 67 206.188 67.625C207.042 68.2292 207.875 68.8958 208.688 69.625C208.875 69.7917 208.969 69.9792 208.969 70.1875C208.969 70.4375 208.823 70.6875 208.531 70.9375C208.24 71.1667 208.031 71.2812 207.906 71.2812C207.719 71.2812 207.51 71.1667 207.281 70.9375C206.74 70.4167 206.208 69.9167 205.688 69.4375C205.167 68.9583 204.667 68.5521 204.188 68.2188C203.875 67.9896 203.719 67.8021 203.719 67.6562ZM217.312 79.7188V77.7188L212.875 77.8438V79.9062L217.312 79.7188ZM217.312 76.1875L217.281 74.25L212.875 74.4688V76.375L217.312 76.1875ZM215 62.1875C215 62.1458 215.031 62.1042 215.094 62.0625C215.156 62.0208 215.229 62.0104 215.312 62.0312L217.531 61.9688C217.552 61.8021 217.594 61.5417 217.656 61.1875C217.719 60.8125 217.75 60.4688 217.75 60.1562V59.9375C217.75 59.5833 217.667 59.2604 217.5 58.9688C217.417 58.8646 217.375 58.7708 217.375 58.6875C217.375 58.5833 217.448 58.5312 217.594 58.5312C217.781 58.5312 218.062 58.6042 218.438 58.75C218.833 58.875 219.177 59.0417 219.469 59.25C219.781 59.4583 219.938 59.6771 219.938 59.9062C219.938 60.0104 219.927 60.0833 219.906 60.125C219.802 60.5 219.615 61.0833 219.344 61.875L223.844 61.5938C224.469 61.5729 224.99 61.4896 225.406 61.3438C225.573 61.2812 225.729 61.25 225.875 61.25C226.146 61.25 226.458 61.4271 226.812 61.7812C227.188 62.1354 227.375 62.4375 227.375 62.6875C227.375 62.9167 227.146 63.0521 226.688 63.0938L218.688 63.5625C218.333 64.375 218.042 64.9896 217.812 65.4062C217.583 65.8229 217.344 66.0312 217.094 66.0312C216.865 66.0312 216.75 65.8438 216.75 65.4688C216.75 65.2812 216.781 65.0833 216.844 64.875C216.927 64.6042 217.031 64.1979 217.156 63.6562L216.562 63.6875C216.167 63.6875 215.802 63.5417 215.469 63.25C215.135 62.9375 214.979 62.5938 215 62.2188V62.1875ZM224 79.4688V77.4375L219.094 77.6562V79.6562L224 79.4688ZM223.969 75.875V73.9375L219.094 74.1875V76.0938L223.969 75.875ZM219.625 66.2188C219.625 66.0104 219.698 65.8021 219.844 65.5938C220.01 65.3646 220.188 65.25 220.375 65.25C220.646 65.25 221.229 65.4167 222.125 65.75C223.042 66.0833 223.698 66.3333 224.094 66.5C224.323 66.6042 224.49 66.7083 224.594 66.8125C224.698 66.9167 224.75 67.0521 224.75 67.2188C224.75 67.4271 224.688 67.6667 224.562 67.9375C224.458 68.1875 224.281 68.3125 224.031 68.3125C223.865 68.3125 223.698 68.2604 223.531 68.1562C222.323 67.5104 221.24 67.0312 220.281 66.7188C220.031 66.6354 219.854 66.5625 219.75 66.5C219.667 66.4375 219.625 66.3438 219.625 66.2188Z" fill="#333333"/>
</svg>
