<svg xmlns="http://www.w3.org/2000/svg" width="350" height="88" fill="none"><path fill="#333" d="M136.012 14.598c-.375 0-.598-.188-.668-.563-.141-.398-.516-.89-1.125-1.476l.105-.141c.094.047.364.164.809.352.445.164.75.246.914.246h.316a.68.68 0 0 0 .246-.176c.282-.211.633-.692 1.055-1.442.305-.609.574-1.324.809-2.144.257-.82.386-1.441.386-1.863 0-.118-.093-.176-.281-.176l-1.336.07-.914.07-.598.036-.246.035c.164.117.27.222.317.316.07.07.105.164.105.281 0 .118-.14.446-.422.985-.234.515-.609 1.101-1.125 1.758-.421.562-.996 1.171-1.722 1.828-.703.633-1.231.96-1.582.984a.66.66 0 0 1-.211-.035.239.239 0 0 1-.071-.176c0-.023.188-.246.563-.668l.984-1.16c.703-.937 1.418-2.133 2.145-3.586.07-.187.035-.293-.106-.316-.14.023-.433.058-.879.105a4.535 4.535 0 0 0-1.195.211 1.13 1.13 0 0 0-.246.106 1.16 1.16 0 0 1-.351.07.478.478 0 0 1-.352-.14l-.281-.247c-.211-.164-.317-.316-.317-.457 0-.047.024-.117.071-.21l.175-.282c.094-.117.246-.305.457-.563.211-.257.446-.609.704-1.054.046-.094.14-.305.281-.633.164-.328.246-.527.246-.598v-.14c0-.14.023-.235.07-.282.047-.046.153-.046.317 0 .164.047.363.176.597.387l.387.387c.07.07.105.152.105.246 0 .234-.328.656-.984 1.266a4.095 4.095 0 0 0-.422.527c-.164.234-.246.387-.246.457 0 .14.106.187.316.14l.809-.105c1.852-.281 3.246-.445 4.184-.492l.949-.14.316-.071.176-.035c.188 0 .316.023.387.07.07.047.14.13.211.246.07.094.14.176.211.246.164.188.281.352.351.493l.071.316-.071.14-.07.212a2.045 2.045 0 0 0-.106.351c-.023.094-.058.2-.105.316-.492 1.899-1.066 3.375-1.723 4.43-.211.375-.574.75-1.09 1.125-.492.375-.925.563-1.3.563Zm3.199 9.07c-.352 0-.691-.258-1.02-.773-.421-.657-.832-1.196-1.23-1.618l-.914-.949a14.424 14.424 0 0 1-1.301 1.336 6.992 6.992 0 0 1-1.336.95c-1.008.585-1.851.878-2.531.878-.164 0-.246-.058-.246-.176 0-.07.222-.222.668-.457a7.422 7.422 0 0 0 1.265-.843c1.008-.844 1.84-1.711 2.496-2.602-.14-.14-.843-.75-2.109-1.828-.164-.117-.41-.316-.738-.598a9.494 9.494 0 0 1-.422-.316c-.211-.164-.316-.281-.316-.352 0-.117.058-.175.175-.175.352 0 .914.246 1.688.738a25.67 25.67 0 0 1 2.426 1.687 6.91 6.91 0 0 0 .773-1.125c.188-.351.399-.785.633-1.3a2.41 2.41 0 0 0 .211-.668c.023-.211.035-.34.035-.387 0-.258.07-.387.211-.387.164 0 .387.129.668.387.492.469.738.785.738.95 0 .093-.058.198-.176.316-.281.28-.539.656-.773 1.124-.141.282-.398.68-.774 1.196-.117.14-.21.27-.281.387-.07.117-.14.222-.211.316.539.398 1.336 1.078 2.391 2.039.258.234.422.457.492.668.094.187.141.445.141.773 0 .235-.059.434-.176.598a.567.567 0 0 1-.457.211Zm-2.32 4.324c-.235.305-.481.457-.739.457-.07 0-.105-.058-.105-.176 0-.164.047-.351.141-.562l.703-1.406a1.34 1.34 0 0 1 .105-.282c.047-.093.082-.175.106-.246v-.035c0-.047-.036-.094-.106-.14a.295.295 0 0 0-.246-.036c-.375.024-.938.082-1.688.176-.726.094-1.265.188-1.617.281l-.527.176a1.38 1.38 0 0 1-.457.106c-.422 0-.773-.13-1.055-.387a2.17 2.17 0 0 1-.527-.492l-.07-.176c0-.117.199-.152.597-.105.539.046 1.653-.024 3.34-.211l.703-.106.879-.105c.422-.07.75-.141.984-.211l.211-.07a.568.568 0 0 1 .247-.07c.117 0 .257.058.421.175.188.117.34.223.457.316.164.117.27.223.317.317.07.07.094.164.07.28 0 .118-.058.224-.176.317a3.38 3.38 0 0 0-.246.211c-.047.07-.211.246-.492.528-.117.187-.328.445-.633.773-.281.328-.48.563-.597.703Zm-1.758 6.926c0-.07.117-.258.351-.563.258-.28.457-.503.598-.667.352-.47.773-1.149 1.266-2.04.515-.89.808-1.476.879-1.757.046-.141-.024-.211-.211-.211-.375 0-1.407.105-3.094.316-1.102.14-1.922.281-2.461.422a.677.677 0 0 1-.352.105c-.187 0-.386-.128-.597-.386a.93.93 0 0 1-.141-.457c0-.094.059-.188.176-.282l.105-.14c.071-.14.153-.328.246-.563.094-.234.176-.457.247-.668.117-.375.199-.785.246-1.23.023-.258.164-.328.421-.211.329.164.575.328.739.492.187.14.246.246.176.317a3.5 3.5 0 0 0-.563.949 9.83 9.83 0 0 0-.211.738c0 .094.059.14.176.14.351 0 .879-.058 1.582-.175l1.477-.176c.585-.07 1.054-.14 1.406-.21l.879-.177a.91.91 0 0 1 .281-.035c.117 0 .234.047.351.14.118.071.247.165.387.282.235.211.387.387.457.527a.799.799 0 0 1 .106.422c0 .094-.071.211-.211.352-.117.14-.258.363-.422.668-.68 1.383-1.559 2.543-2.637 3.48a4.86 4.86 0 0 1-1.019.598c-.164.047-.317.07-.457.07-.118.024-.176 0-.176-.07Zm-8.86-1.477c0 .563-.164 1.008-.492 1.336-.328.352-.691.528-1.09.528-.281 0-.738-.258-1.371-.774a14.323 14.323 0 0 1-1.687-1.687c-.516-.61-.774-1.02-.774-1.23 0-.165.082-.247.246-.247.188 0 .446.094.774.281 1.008.563 1.758.926 2.25 1.09l.211-8.965-3.586.176-.07 9.211c0 .281-.047.492-.141.633-.07.164-.211.246-.422.246-.281 0-.621-.117-1.019-.352-.399-.21-.598-.48-.598-.808 0-.117.012-.211.035-.281.117-.703.176-1.524.176-2.461l.07-6.117-2.918.14.141 9.106c0 .586-.199.879-.598.879-.281 0-.633-.141-1.055-.422-.398-.282-.597-.563-.597-.844v-.211c.094-.586.14-1.406.14-2.461l-.07-5.977-2.918.141.106 9.914c0 .516-.188.774-.563.774a3.4 3.4 0 0 1-1.265-.493c-.329-.21-.493-.48-.493-.808l.035-.317c.118-.773.176-1.453.176-2.039l-.035-6.89c0-.89-.105-1.57-.316-2.04-.094-.234-.141-.386-.141-.456 0-.164.094-.246.281-.246.352 0 1.102.293 2.25.878l3.164-.14c.891-1.406 1.336-2.531 1.336-3.375v-.246l-4.64.246h-.493c-.609 0-1.019-.094-1.23-.281a3.732 3.732 0 0 1-.668-.809c-.187-.305-.281-.55-.281-.738 0-.188.094-.282.281-.282l.281.07c.469.141.938.212 1.407.212h.316l12.867-.739a5.415 5.415 0 0 0 1.231-.21 1.93 1.93 0 0 1 .386-.07c.258 0 .598.187 1.02.562.422.351.633.68.633.984 0 .281-.293.445-.879.492l-8.578.457c.422.235.632.469.632.703 0 .141-.164.504-.492 1.09a40.772 40.772 0 0 1-1.09 1.828l8.649-.422.457-.035c.328 0 .644.117.949.352.305.234.457.515.457.844 0 .093-.035.234-.105.422a1.51 1.51 0 0 0-.071.386l-.211 8.508v.984Zm-31.148-5.695c0-.187.14-.281.422-.281.562 0 1.207-.082 1.934-.246a57.126 57.126 0 0 0 4.007-1.055c.914-2.836 1.547-5.05 1.899-6.645.351-1.617.527-2.671.527-3.163 0-.118-.023-.317-.07-.598a1.28 1.28 0 0 1-.035-.317c0-.21.082-.316.246-.316.14 0 .386.082.738.246.352.14.668.328.949.563.305.234.457.504.457.808 0 .117-.011.2-.035.246a54.404 54.404 0 0 1-1.16 4.114 239.407 239.407 0 0 1-1.547 4.464 95.065 95.065 0 0 0 3.234-1.09c.633-.21 1.102-.316 1.407-.316.257 0 .386.059.386.176 0 .305-.855.89-2.566 1.758a76.51 76.51 0 0 1-5.484 2.46c-1.97.798-3.13 1.196-3.48 1.196-.259 0-.563-.188-.915-.563a4.814 4.814 0 0 1-.808-1.125c-.07-.14-.106-.246-.106-.316Zm.422-14.555c0-.14.094-.21.281-.21.117 0 .223.011.316.035.399.093.844.14 1.337.14h.457l6.503-.422a6.06 6.06 0 0 0 1.582-.28c.188-.071.352-.106.493-.106.257 0 .515.093.773.28.258.188.469.411.633.669.164.234.246.41.246.527 0 .235-.176.387-.527.457l-.246.035-9 .633c-.211.024-.48.035-.81.035-.468 0-.854-.117-1.16-.351-.304-.258-.527-.527-.667-.809-.14-.304-.211-.515-.211-.633Zm2.25 3.657c0-.282.14-.47.422-.563a2.1 2.1 0 0 1 .808-.176c.188 0 .329.059.422.176.117.117.223.305.317.563.398 1.101.808 2.484 1.23 4.148.422 1.64.633 2.625.633 2.953 0 .305-.164.54-.492.703-.305.164-.61.246-.914.246-.188 0-.329-.058-.422-.175-.07-.117-.13-.317-.176-.598-.469-2.672-1.031-4.922-1.688-6.75-.093-.281-.14-.457-.14-.527Zm1.195-9.282c0-.187.094-.41.281-.668.188-.257.364-.41.528-.457a.49.49 0 0 1 .211-.035c.14 0 .316.07.527.211.164.094.996.598 2.496 1.512 1.5.89 2.297 1.547 2.391 1.969.07.28-.047.597-.352.949-.304.328-.551.515-.738.562l-.106.036c-.117 0-.328-.106-.632-.317-1.758-1.43-3.153-2.473-4.184-3.129a3.825 3.825 0 0 1-.316-.281.678.678 0 0 1-.106-.352Zm10.653-.035c0-.14.093-.21.281-.21.117 0 .351.034.703.105.351.07.68.199.984.386.328.188.492.434.492.739v.07l-.21 4.219 3.972-.352.071-6.328c0-.61-.188-1.148-.563-1.617-.094-.117-.141-.223-.141-.316 0-.118.129-.176.387-.176.656 0 1.219.117 1.688.351.492.211.738.504.738.88l-.106 7.03 4.641-.386.07-3.235c0-.68-.105-1.218-.316-1.617-.094-.164-.141-.304-.141-.422 0-.117.094-.175.282-.175.398 0 .878.105 1.441.316.562.21.844.562.844 1.055v.105l-.282 6.82c-.023.329-.082.575-.175.739-.071.14-.211.21-.422.21-.281 0-.621-.117-1.02-.35-.375-.259-.562-.563-.562-.915 0-.14.011-.258.035-.352l.105-.527-10.195 1.02a3.58 3.58 0 0 0-.808.175c-.282.07-.481.106-.598.106-.211 0-.457-.117-.738-.352-.258-.234-.387-.468-.387-.703 0-.094.023-.234.07-.422.117-.539.176-.984.176-1.336l.07-2.636c0-.657-.093-1.172-.281-1.547a.832.832 0 0 1-.105-.352Zm83.566 17.192c-.352 0-.691-.258-1.02-.774-.421-.656-.832-1.195-1.23-1.617l-.914-.95a14.424 14.424 0 0 1-1.301 1.337 6.992 6.992 0 0 1-1.336.949c-1.008.586-1.851.879-2.531.879-.164 0-.246-.059-.246-.176 0-.07.222-.223.668-.457a7.428 7.428 0 0 0 1.265-.844c1.008-.843 1.84-1.71 2.496-2.601-.14-.14-.843-.75-2.109-1.828a11.99 11.99 0 0 1-.738-.598 9.494 9.494 0 0 1-.422-.316c-.211-.165-.316-.282-.316-.352 0-.117.058-.176.175-.176.352 0 .914.246 1.688.738a25.651 25.651 0 0 1 2.426 1.688 6.91 6.91 0 0 0 .773-1.125c.188-.352.399-.785.633-1.3a2.41 2.41 0 0 0 .211-.669c.023-.21.035-.34.035-.386 0-.258.07-.387.211-.387.164 0 .387.129.668.387.492.468.738.785.738.949 0 .093-.058.199-.176.316-.281.281-.539.656-.773 1.125-.141.281-.398.68-.774 1.195-.117.141-.21.27-.281.387-.07.117-.14.223-.211.317.539.398 1.336 1.078 2.391 2.039.258.234.422.457.492.668.094.187.141.445.141.773 0 .234-.059.434-.176.598a.567.567 0 0 1-.457.21Zm7.312-12.867c.071 0 .141.035.211.105a.337.337 0 0 1 .141.21v.071c0 .164-.129.48-.387.95l-2.531 4.394c-.187.398-.434.598-.738.598-.305 0-.563-.188-.774-.563-.211-.305-.468-.762-.773-1.371a4.26 4.26 0 0 1-.352-.633 11.004 11.004 0 0 0-.211-.457c-.257-.445-.386-.762-.386-.95 0-.093.035-.163.105-.21.07-.07.141-.105.211-.105.258 0 .492.14.703.421.164.164.293.34.387.528l.387.527.703.809.316-.492c.328-.563 1.102-1.676 2.32-3.34.258-.329.481-.493.668-.493ZM167.09 34.883c0 .492-.223.738-.668.738-.094 0-.305-.047-.633-.14a2.54 2.54 0 0 1-.879-.493c-.281-.234-.422-.55-.422-.949l.035-.246c.094-.633.141-1.336.141-2.11l.07-9.878-11.074.597c-.328.024-.726.035-1.195.035-.539 0-.973-.14-1.301-.421-.328-.305-.562-.621-.703-.95-.117-.351-.176-.609-.176-.773 0-.14.082-.211.246-.211.094 0 .176.012.246.035a7.89 7.89 0 0 0 1.688.211h.281l12.024-.668.07-8.332-5.379.317c-1.055 1.734-2.039 3.117-2.953 4.148-.914 1.031-1.676 1.746-2.285 2.145-.586.398-.938.597-1.055.597-.117 0-.176-.058-.176-.176 0-.164.129-.433.387-.808 1.055-1.383 2.074-2.953 3.059-4.711.984-1.758 1.781-3.41 2.39-4.957.61-1.57.914-2.766.914-3.586v-.422c0-.281.094-.422.281-.422.071 0 .329.082.774.246.469.164.879.375 1.23.633.375.234.563.469.563.703 0 .281-.27.985-.809 2.11a108.781 108.781 0 0 1-1.195 2.39l11.848-.738a7.288 7.288 0 0 0 1.582-.317.6.6 0 0 1 .246-.035c.281 0 .679.223 1.195.668.516.446.773.809.773 1.09s-.292.445-.878.492l-8.192.492-.035 8.368 9.949-.563a6.824 6.824 0 0 0 1.617-.316c.141-.047.247-.07.317-.07.14 0 .375.105.703.316.328.21.621.457.879.738.258.281.387.54.387.774 0 .304-.27.48-.809.527l-13.043.703-.035 13.219Zm79.031-20.496c-.164 0-.34-.106-.527-.317a2.15 2.15 0 0 1-.282-.386c-.046-.118-.046-.27 0-.457l.036-.844c.023-.164.035-.563.035-1.195v-1.16l-1.055.492-1.23.527a10.87 10.87 0 0 0-.95.422c-.281.14-.527.21-.738.21a2.17 2.17 0 0 1-.562-.175 4.837 4.837 0 0 1-.493-.246c-.257-.164-.375-.34-.351-.527l.105-.352c0-.188.012-.352.036-.492l.035-2.04V5.95c0-.375-.024-.691-.071-.949-.047-.281-.082-.48-.105-.598 0-.117.035-.199.105-.246.024-.023.082-.035.176-.035.164 0 .481.106.949.316.399.188.563.422.493.704-.047.164-.094.41-.141.738l-.106 4.043c0 .117.012.21.036.281.046.047.093.07.14.07.282 0 .621-.082 1.02-.246.75-.234 1.394-.468 1.933-.703l.774-.316v-2.32c0-.938-.059-1.84-.176-2.708a.792.792 0 0 1-.035-.246c0-.234.094-.351.281-.351.024 0 .152.047.387.14.351.188.609.352.773.493.164.14.258.222.282.246.093.07.14.14.14.21a.34.34 0 0 1-.07.176c-.024.07-.047.13-.07.176l-.106 1.055-.035 3.234.035 3.13c0 .538-.035 1.007-.105 1.405-.118.493-.305.739-.563.739Zm-6.469 5.765c-.257 0-.574-.199-.949-.597-.281-.282-.422-.492-.422-.633 0-.07.047-.106.141-.106a1.48 1.48 0 0 1 .351-.035l.774-.035c.445 0 .738-.012.879-.035.445 0 .82-.012 1.125-.035 2.015-.188 3.375-.34 4.078-.457a29.8 29.8 0 0 0 .949-.14c.281-.071.504-.106.668-.106.328 0 .656.164.984.492.258.258.387.469.387.633 0 .14-.082.234-.246.28-.117.024-.809.071-2.074.142-.703.023-1.57.082-2.602.175a92.491 92.491 0 0 0-2.707.282c-.14.023-.34.058-.597.105-.258.047-.504.07-.739.07Zm4.711 14.52c-.726 0-1.289-.024-1.687-.07a1.68 1.68 0 0 1-.949-.422c-.446-.328-.75-1.043-.915-2.145l-.105-1.125c0-.281-.023-.633-.07-1.055a5.987 5.987 0 0 0-.809.141 3.817 3.817 0 0 1-.246.106.965.965 0 0 1-.211.035.81.81 0 0 1-.457-.14c-.141-.095-.316-.27-.527-.528-.164-.211-.246-.352-.246-.422s.082-.117.246-.14c.164-.024.386-.036.668-.036.398 0 .914-.047 1.547-.14l-.036-.493c0-.937-.058-1.734-.175-2.39l-.036-.246c0-.329.129-.457.387-.387.281.094.539.21.774.351.187.094.316.188.386.282.071.07.094.175.071.316l-.106 1.512v.914l3.094-.317c0-.164.012-.55.035-1.16.024-.633.024-1.043 0-1.23 0-.188-.023-.363-.07-.527a6.529 6.529 0 0 0-.071-.458c0-.187.094-.28.282-.28.187 0 .422.105.703.316.328.21.539.398.633.562.117.164.14.363.07.598a6.4 6.4 0 0 0-.246 1.265c-.047.47-.07.75-.07.844.281-.023.539-.058.773-.105.234-.047.387-.07.457-.07.188-.047.41-.071.668-.071.141.023.34.164.598.422.211.281.316.504.316.668 0 .234-.223.328-.668.281a6.863 6.863 0 0 0-1.195-.105c-.399 0-.738.011-1.02.035-.07.844-.211 1.676-.422 2.496a.953.953 0 0 1-.246.457c-.117.14-.222.21-.316.21-.164 0-.27-.07-.317-.21a3.524 3.524 0 0 1-.035-.598c.047-.61.071-1.37.071-2.285a26.99 26.99 0 0 0-1.477.14 9.357 9.357 0 0 1-1.512.212c-.023.96.024 1.816.141 2.566.07.492.211.832.422 1.02.14.117.305.187.492.21.211.024.422.036.633.036h.422c.726 0 1.406-.035 2.039-.106a1.52 1.52 0 0 0 .492-.14c.164-.07.281-.106.352-.106.21 0 .421.07.632.211.211.14.317.305.317.492 0 .188-.106.328-.317.422-.187.094-.492.176-.914.246-.75.094-1.5.14-2.25.14Zm10.02-15.996c.281 0 .422.129.422.387 0 .14-.129.34-.387.597-.703.867-2.098 2.52-4.184 4.957-.164.211-.316.317-.457.317-.117 0-.375-.176-.773-.528-.328-.281-.492-.515-.492-.703 0-.21.176-.41.527-.598.539-.304 1.348-.914 2.426-1.828 1.078-.96 1.875-1.722 2.39-2.285.211-.21.387-.316.528-.316Zm-44.684 11.496c2.086-.656 3.949-1.371 5.59-2.145a25.586 25.586 0 0 0-1.336-1.687c-.187-.235-.281-.422-.281-.563 0-.258.152-.48.457-.668.305-.21.539-.316.703-.316.188 0 .387.117.598.352a137.853 137.853 0 0 1 3.41 4.148c.937 1.195 1.406 1.922 1.406 2.18 0 .21-.164.457-.492.738-.305.305-.598.457-.879.457-.234 0-.469-.188-.703-.563a96.435 96.435 0 0 0-1.828-2.671l-4.219 2.109c-.469.21-1.207.586-2.215 1.125-.844.445-1.359.668-1.547.668-.14 0-.316-.094-.527-.281a1.65 1.65 0 0 1-.492-.633c-.094-.234-.094-.422 0-.563.14-.257.211-1.289.211-3.093V16.602c0-.563-.024-1.02-.071-1.372a3.587 3.587 0 0 0-.281-1.125 1.37 1.37 0 0 0-.07-.175.305.305 0 0 1-.035-.14c0-.118.082-.177.246-.177.304 0 1.066.258 2.285.774l7.629-.528c.187-.023.398-.035.633-.035.257 0 .562.117.914.352.351.21.527.445.527.703 0 .094-.059.234-.176.422-.094.187-.14.328-.14.422l-.914 6.609c.562.656.843 1.102.843 1.336 0 .117-.07.2-.211.246-.117.047-.304.07-.562.07l-8.508.317.035 5.87Zm-5.765-15.785c0-.235.152-.516.457-.844 1.711-1.898 3.199-3.785 4.464-5.66 1.266-1.875 1.899-3.13 1.899-3.762l-.035-.246V3.77c0-.329.129-.493.386-.493.305 0 .727.211 1.266.633.563.399.844.727.844.985 0 .117-.059.27-.176.457a23.895 23.895 0 0 1-1.16 1.687l4.992-.387a4.872 4.872 0 0 0 1.336-.28c.141-.048.246-.071.316-.071.352 0 .727.199 1.125.597.422.375.633.668.633.88 0 .28-.258.445-.773.492l-6.012.421c.164.047.527.293 1.09.739.586.445 1.113.902 1.582 1.37.469.47.703.798.703.985 0 .211-.141.469-.422.774-.281.28-.527.421-.738.421-.188 0-.41-.152-.668-.457a21.796 21.796 0 0 0-2.426-2.285c-.281-.234-.422-.433-.422-.597 0-.118.059-.27.176-.457.117-.188.27-.34.457-.457l-2.355.175a34.406 34.406 0 0 1-3.727 3.903c-1.359 1.195-2.226 1.793-2.601 1.793-.141 0-.211-.07-.211-.211Zm12.656 3.656.246-2.461-7.242.492v2.32l6.996-.351Zm-.457 4.36.281-2.708-6.785.317v2.636l6.504-.246Zm1.898-9.528c0-.234.153-.516.457-.844 1.149-1.383 2.192-2.941 3.129-4.676.961-1.757 1.442-2.988 1.442-3.69v-.142c0-.351.129-.527.386-.527.164 0 .41.094.739.281.351.164.668.364.949.598.281.234.422.469.422.703 0 .211-.164.586-.493 1.125-.328.54-.503.82-.527.844l6.926-.563a6.483 6.483 0 0 0 1.336-.246c.047-.023.141-.035.281-.035.328 0 .68.188 1.055.563.398.351.597.644.597.879 0 .14-.07.257-.21.351-.118.07-.282.117-.493.14l-7.136.493c.656.422 1.429 1.043 2.32 1.863.891.797 1.336 1.336 1.336 1.617 0 .164-.129.422-.387.774-.258.328-.504.492-.738.492-.188 0-.387-.117-.598-.352-1.148-1.242-2.191-2.226-3.129-2.953-.234-.187-.351-.363-.351-.527 0-.188.176-.469.527-.844l-2.601.176c-.774 1.031-1.711 2.074-2.813 3.129-1.078 1.055-1.805 1.582-2.18 1.582-.164 0-.246-.07-.246-.211Zm3.305.773c0-.14.082-.21.246-.21.352 0 1.148.292 2.391.878l7.066-.597.281-.035c.094 0 .27.046.528.14.281.07.539.2.773.387.258.164.387.387.387.668 0 .094-.035.223-.106.387-.07.164-.105.28-.105.351a88.243 88.243 0 0 1-.492 8.262l-.071.879c-.07.984-.164 1.805-.281 2.46-.117.657-.316 1.173-.598 1.548-.445.609-.925.914-1.441.914s-1.172-.317-1.969-.95a18.576 18.576 0 0 1-2.215-2.074c-.656-.75-.984-1.23-.984-1.441 0-.164.094-.246.281-.246.211 0 .504.117.879.351.867.54 1.594.973 2.18 1.301.586.328 1.008.492 1.266.492.117 0 .199-.082.246-.246.539-3 .867-6.762.984-11.285l-6.609.492c0 3.961.035 10.242.105 18.844 0 .21-.058.363-.176.457a.466.466 0 0 1-.386.176c-.188 0-.411-.07-.668-.211-.446-.188-.762-.363-.95-.528-.187-.164-.281-.351-.281-.562l.035-.246c.141-.773.211-1.64.211-2.602l-.105-14.836c0-.609-.024-1.078-.07-1.406a3.306 3.306 0 0 0-.211-.95c-.094-.28-.141-.468-.141-.562ZM164.531 72c-.333 0-.541-.094-.625-.281a4.346 4.346 0 0 0-.312-.625c-.104-.188-.292-.406-.563-.656l.063-.126c.75.271 1.239.407 1.468.407.167 0 .292-.031.376-.094.083-.063.218-.208.406-.438.271-.291.521-.74.75-1.343.312-.896.51-1.823.594-2.781v-.094c0-.125-.021-.209-.063-.25-.271 0-.99.062-2.156.187-.646 1.604-1.396 2.927-2.25 3.969-.834 1.02-1.594 1.531-2.281 1.531-.167 0-.25-.062-.25-.187 0-.042.208-.281.624-.719.417-.438.876-1.01 1.376-1.719.52-.729 1.01-1.625 1.468-2.687-.104 0-.406.02-.906.062a6.51 6.51 0 0 0-1.281.219.495.495 0 0 1-.531.063l-.063-.032a.488.488 0 0 1-.125-.094 1.359 1.359 0 0 1-.375-.312.831.831 0 0 1-.125-.406c0-.063.052-.146.156-.25l.375-.5c.125-.167.24-.406.344-.719.104-.333.156-.615.156-.844 0-.146-.01-.24-.031-.281a.346.346 0 0 1-.031-.156c0-.104.052-.157.156-.157.125 0 .302.073.531.22.063.04.177.124.344.25.188.103.292.228.312.374 0 .146-.083.386-.25.719l-.406.719a.39.39 0 0 0-.062.219c0 .062.021.114.062.156a.39.39 0 0 0 .219 0l1.875-.25a11.01 11.01 0 0 0 .5-1.719v-.718c0-.23.062-.324.188-.282.27.063.489.146.656.25.312.188.468.344.468.469 0 .104-.041.281-.124.531-.063.23-.115.406-.157.531-.021.084-.114.354-.281.813.062 0 .448-.042 1.156-.125l.313-.063c.062 0 .177-.02.343-.062a.35.35 0 0 1 .157-.031c.25 0 .406.01.469.03.083.022.208.084.374.188.188.125.313.25.376.375.062.125.083.271.062.438l-.188 1.031-.218 1.125c0 .083-.073.354-.219.813a7.464 7.464 0 0 1-.5 1.218c-.354.709-.771 1.24-1.25 1.594-.417.333-.781.5-1.094.5Zm-4.062 7.094c-.229 0-.511-.177-.844-.531-.25-.25-.375-.438-.375-.563 0-.063.042-.094.125-.094.083-.02.187-.031.313-.031l.687-.031c.396 0 .656-.01.781-.031.396 0 .729-.01 1-.032 1.792-.166 3-.302 3.625-.406.313-.042.594-.083.844-.125.25-.063.448-.094.594-.094.291 0 .583.146.875.438.229.229.344.416.344.562 0 .125-.073.209-.219.25-.104.021-.719.063-1.844.125-.625.021-1.396.073-2.313.156-.916.084-1.718.167-2.406.25-.125.021-.302.053-.531.094a3.668 3.668 0 0 1-.656.063Zm9.093-7.875c.105 0 .261.073.469.219-.021.041.021.124.125.25l.219.218c.104.104.208.23.313.375.124.146.26.302.406.469.375.396 1.239 1.427 2.594 3.094.229.333.343.531.343.594 0 .208-.125.312-.375.312-.146 0-.302-.104-.468-.313-.396-.416-1.105-1.072-2.126-1.968-.791-.73-1.51-1.292-2.156-1.688-.312-.146-.468-.312-.468-.5 0-.146.156-.354.468-.625.292-.291.511-.437.656-.437Zm-35.937-3c-.229.02-.521.031-.875.031h-.312c-.626-.063-1.053-.313-1.282-.75-.229-.458-.344-.813-.344-1.063 0-.145.063-.218.188-.218.083 0 .156.01.219.031.375.104.833.156 1.375.156H133l18-.969a6.467 6.467 0 0 0 1.406-.28.54.54 0 0 1 .219-.032c.271 0 .625.208 1.063.625.458.417.687.73.687.938 0 .25-.26.395-.781.437l-19.969 1.094Zm-4.937 14.844c0-.126.062-.188.187-.188.083 0 .156.01.219.031.458.104.916.156 1.375.156l.687-.03 11.782-.438a50.542 50.542 0 0 0 2.25-5.188c.624-1.708 1.093-3.177 1.406-4.406.333-1.23.5-2.01.5-2.344 0-.291-.063-.625-.188-1a.785.785 0 0 1-.094-.344c0-.187.115-.28.344-.28.229 0 .552.072.969.218.437.125.823.313 1.156.563.334.229.5.479.5.75l-.031.124c-1.438 4.605-3.094 8.553-4.969 11.844l7.938-.312a8.174 8.174 0 0 0 1.562-.25c.167-.042.281-.063.344-.063.187 0 .437.104.75.313.313.187.583.416.813.687.25.271.374.51.374.719 0 .27-.26.427-.781.469l-23.969.875-1.031.031c-.521 0-.885-.094-1.093-.281a2.754 2.754 0 0 1-.75-.906c-.167-.334-.25-.584-.25-.75Zm6.093-12.188c0-.23.146-.438.438-.625.312-.208.573-.313.781-.313a.51.51 0 0 1 .375.157c.104.083.219.219.344.406a54.22 54.22 0 0 1 2.093 3.969c.667 1.375 1.198 2.594 1.594 3.656.417 1.063.625 1.719.625 1.969 0 .333-.198.614-.593.844-.396.229-.719.343-.969.343a.552.552 0 0 1-.407-.156 2.616 2.616 0 0 1-.25-.531c-1-3.104-2.27-6.136-3.812-9.094-.146-.292-.219-.5-.219-.625Zm4.407-10.844c0-.125.114-.312.343-.562.25-.271.479-.407.688-.407.229 0 .76.386 1.593 1.157.834.75 1.626 1.552 2.376 2.406.75.854 1.124 1.385 1.124 1.594 0 .166-.166.396-.5.687-.312.292-.604.438-.874.438-.188 0-.376-.125-.563-.375-1.229-1.646-2.5-3.094-3.813-4.344-.25-.23-.374-.427-.374-.594Zm73.156 12.25c-.334 0-.532-.166-.594-.5-.125-.354-.458-.791-1-1.312l.094-.125c.083.041.323.146.718.312.396.146.667.219.813.219h.281a.609.609 0 0 0 .219-.156c.25-.188.563-.615.937-1.281.271-.542.511-1.178.719-1.907.229-.729.344-1.281.344-1.656 0-.104-.083-.156-.25-.156l-1.187.062-.813.063-.531.031-.219.031c.146.104.24.198.281.281a.336.336 0 0 1 .094.25c0 .105-.125.396-.375.876-.208.458-.542.979-1 1.562-.375.5-.885 1.042-1.531 1.625-.625.563-1.094.854-1.406.875a.59.59 0 0 1-.188-.031.21.21 0 0 1-.062-.156c0-.021.166-.22.5-.594l.874-1.031c.626-.834 1.261-1.896 1.907-3.188.062-.167.031-.26-.094-.281-.125.02-.385.052-.781.094-.396.02-.75.083-1.063.187-.021 0-.093.031-.219.094a1.023 1.023 0 0 1-.312.062.422.422 0 0 1-.312-.125l-.25-.219c-.188-.145-.282-.28-.282-.406 0-.041.021-.104.063-.187l.156-.25c.083-.104.219-.271.406-.5.188-.23.396-.542.625-.938.042-.083.125-.27.25-.562.146-.292.219-.469.219-.532v-.124c0-.126.021-.209.063-.25.041-.042.135-.042.281 0 .146.041.323.156.531.343l.344.344a.302.302 0 0 1 .094.219c0 .208-.292.583-.876 1.125a3.58 3.58 0 0 0-.374.469c-.146.208-.219.343-.219.406 0 .125.093.166.281.125l.719-.094c1.646-.25 2.885-.396 3.719-.438l.843-.124.281-.063.157-.031c.166 0 .281.02.343.062a.667.667 0 0 1 .188.219c.062.083.125.156.188.219.145.166.25.312.312.437l.062.281-.062.126-.062.187a1.769 1.769 0 0 0-.094.313 2.198 2.198 0 0 1-.094.28c-.438 1.688-.948 3-1.531 3.938-.188.334-.511.667-.969 1-.438.334-.823.5-1.156.5Zm.781 4.719c-.208.27-.427.406-.656.406-.063 0-.094-.052-.094-.156 0-.146.042-.313.125-.5l.625-1.25c.021-.083.052-.167.094-.25.041-.083.073-.156.093-.219V75c0-.042-.031-.083-.093-.125a.264.264 0 0 0-.219-.031c-.333.02-.833.073-1.5.156-.646.083-1.125.167-1.438.25l-.468.156a1.223 1.223 0 0 1-.406.094c-.376 0-.688-.115-.938-.344a1.931 1.931 0 0 1-.469-.437l-.062-.156c0-.105.177-.136.531-.094.479.041 1.469-.021 2.969-.188l.625-.094c.166-.02.427-.052.781-.093.375-.063.667-.125.875-.188l.188-.062a.501.501 0 0 1 .218-.063c.104 0 .229.052.375.156.167.105.302.198.407.282.145.104.239.198.281.281.062.063.083.146.062.25 0 .104-.052.198-.156.281a3.081 3.081 0 0 0-.219.188c-.041.062-.187.219-.437.469-.104.166-.292.395-.563.687-.25.292-.427.5-.531.625Zm-1.563 6.156c0-.062.105-.219.313-.469.229-.27.406-.479.531-.624.313-.417.688-1.021 1.125-1.813.459-.792.719-1.313.781-1.563.042-.124-.02-.187-.187-.187-.333 0-1.25.094-2.75.281-.979.125-1.708.25-2.187.375a.606.606 0 0 1-.313.094c-.167 0-.344-.115-.531-.344a.82.82 0 0 1-.125-.406c0-.083.052-.167.156-.25l.094-.125c.062-.125.135-.292.219-.5.083-.208.156-.406.218-.594.104-.333.177-.698.219-1.094.021-.229.146-.291.375-.187.292.146.51.292.656.438.167.124.219.218.156.28a3.15 3.15 0 0 0-.5.844 8.461 8.461 0 0 0-.187.657c0 .083.052.125.156.125.313 0 .781-.052 1.407-.156l1.312-.157c.521-.062.938-.125 1.25-.187l.781-.156a.817.817 0 0 1 .25-.032c.104 0 .209.042.313.125.104.063.218.146.344.25.208.188.343.344.406.469a.72.72 0 0 1 .094.375c0 .083-.063.188-.188.313a3.795 3.795 0 0 0-.375.593c-.604 1.23-1.385 2.26-2.344 3.094a4.327 4.327 0 0 1-.906.531 3.697 3.697 0 0 1-.406.094c-.104 0-.157-.031-.157-.094Zm6-11.937c.105 0 .261.073.469.219-.021.041.021.124.125.25l.219.218c.104.104.208.23.313.375.124.146.26.302.406.469.375.396 1.239 1.427 2.594 3.094.229.333.343.531.343.594 0 .208-.125.312-.375.312-.146 0-.302-.104-.468-.313-.396-.416-1.105-1.072-2.126-1.968-.791-.73-1.51-1.292-2.156-1.688-.312-.146-.468-.312-.468-.5 0-.146.156-.354.468-.625.292-.291.511-.437.656-.437Zm-26.156 12.75c2.146-.125 4.136-.281 5.969-.469a18.351 18.351 0 0 0-1.625-1.063c-.271-.145-.406-.322-.406-.53 0-.188.104-.417.312-.688.229-.292.438-.438.625-.438.229 0 1.011.427 2.344 1.281a50.971 50.971 0 0 1 3.844 2.72c.25.166.375.364.375.593 0 .25-.136.542-.406.875-.271.333-.5.5-.688.5-.104 0-.24-.063-.406-.188-.959-.833-1.698-1.437-2.219-1.812-3.792.48-7.719.885-11.781 1.219-4.042.333-6.323.5-6.844.5a1.92 1.92 0 0 1-1.031-.313c-.313-.208-.584-.698-.813-1.469l-.031-.187c0-.146.083-.219.25-.219.104 0 .187.01.25.031.479.105 1.094.157 1.844.157 2.458-.063 5.323-.177 8.593-.344l-.031-3.344-5.062.188.031.281v.094c0 .396-.188.594-.562.594-.209 0-.459-.063-.75-.188-.292-.146-.5-.281-.626-.406-.104-.146-.156-.334-.156-.563v-.187a7.31 7.31 0 0 0 .063-.906c0-.23-.011-.407-.031-.532l-.282-2.844a2.597 2.597 0 0 0-.344-1.124c-.208-.376-.312-.646-.312-.813 0-.167.115-.25.344-.25.396 0 1.114.219 2.156.656l5.469-.219v-.968c0-.48-.136-.896-.407-1.25-.083-.104-.124-.198-.124-.281 0-.146.135-.22.406-.22.396 0 .844.074 1.344.22.5.124.75.395.75.812v1.594l6.031-.25h.312c.375 0 .667.073.875.219.229.124.386.27.469.437.104.167.156.27.156.313 0 .083-.041.187-.125.312a.541.541 0 0 0-.094.25l-.593 3.188c.562.562.843.947.843 1.156 0 .125-.072.208-.218.25a3.618 3.618 0 0 1-.688.094l-7 .25v3.28Zm-14.344-9.438c0-.208.178-.479.532-.812a29.693 29.693 0 0 0 3.281-3.375c1.021-1.23 1.833-2.375 2.437-3.438.626-1.062.938-1.864.938-2.406 0-.396.104-.594.312-.594.23 0 .615.167 1.157.5.541.313.812.584.812.813 0 .187-.177.573-.531 1.156a36.013 36.013 0 0 1-.969 1.469c1.313.562 2.813 1.083 4.5 1.562l.063-6.812-7.344.531a7.69 7.69 0 0 1-.75.031c-.771 0-1.312-.437-1.625-1.312a.73.73 0 0 1-.094-.313c0-.146.084-.218.25-.218a.81.81 0 0 1 .25.03 4.81 4.81 0 0 0 1 .094h.407l17.5-1.156.468-.031c.292 0 .594.135.906.406.334.25.5.521.5.813a.77.77 0 0 1-.312.625c-.188.146-.302.229-.344.25a24.69 24.69 0 0 1-2.187 1.625c-.729.458-1.261.687-1.594.687-.208 0-.313-.083-.313-.25 0-.208.178-.49.532-.844.479-.479.906-1 1.281-1.562l-6.594.469-.031 3.187 3.5-.187c.354 0 .76-.104 1.219-.313a.62.62 0 0 1 .281-.062c.292 0 .635.187 1.031.562.417.354.625.646.625.875 0 .271-.281.427-.844.469l-5.843.281-.031 2.594c3.604.833 7.635 1.25 12.093 1.25.438 0 .657.104.657.313 0 .124-.063.312-.188.562-.167.396-.323.656-.469.781-.146.104-.375.156-.687.156h-.282a64.58 64.58 0 0 1-9.656-1.03c-3.146-.605-6.094-1.511-8.844-2.72A20.963 20.963 0 0 1 181.438 72c-.938.854-1.792 1.531-2.563 2.031-.771.48-1.292.719-1.563.719-.166 0-.25-.073-.25-.219Zm7.282 4.844 5.156-.188v-3.062l-5.438.219.282 3.031Zm12.218-.438.438-3.093-5.562.219-.032 3.062 5.156-.188Z"/></svg>