<svg xmlns="http://www.w3.org/2000/svg" width="350" height="88" fill="none"><path fill="#333" d="M136.012 14.598c-.375 0-.598-.188-.668-.563-.141-.398-.516-.89-1.125-1.476l.105-.141c.094.047.364.164.809.352.445.164.75.246.914.246h.316a.68.68 0 0 0 .246-.176c.282-.211.633-.692 1.055-1.442.305-.609.574-1.324.809-2.144.257-.82.386-1.441.386-1.863 0-.118-.093-.176-.281-.176l-1.336.07-.914.07-.598.036-.246.035c.164.117.27.222.317.316.07.07.105.164.105.281 0 .118-.14.446-.422.985-.234.515-.609 1.101-1.125 1.758-.421.562-.996 1.171-1.722 1.828-.703.633-1.231.96-1.582.984a.66.66 0 0 1-.211-.035.239.239 0 0 1-.071-.176c0-.023.188-.246.563-.668l.984-1.16c.703-.937 1.418-2.133 2.145-3.586.07-.187.035-.293-.106-.316-.14.023-.433.058-.879.105a4.535 4.535 0 0 0-1.195.211 1.13 1.13 0 0 0-.246.106 1.16 1.16 0 0 1-.351.07.478.478 0 0 1-.352-.14l-.281-.247c-.211-.164-.317-.316-.317-.457 0-.047.024-.117.071-.21l.175-.282c.094-.117.246-.305.457-.563.211-.257.446-.609.704-1.054.046-.094.14-.305.281-.633.164-.328.246-.527.246-.598v-.14c0-.14.023-.235.07-.282.047-.046.153-.046.317 0 .164.047.363.176.597.387l.387.387c.07.07.105.152.105.246 0 .234-.328.656-.984 1.266a4.095 4.095 0 0 0-.422.527c-.164.234-.246.387-.246.457 0 .14.106.187.316.14l.809-.105c1.852-.281 3.246-.445 4.184-.492l.949-.14.316-.071.176-.035c.188 0 .316.023.387.07.07.047.14.13.211.246.07.094.14.176.211.246.164.188.281.352.351.493l.071.316-.071.14-.07.212a2.045 2.045 0 0 0-.106.351c-.023.094-.058.2-.105.316-.492 1.899-1.066 3.375-1.723 4.43-.211.375-.574.75-1.09 1.125-.492.375-.925.563-1.3.563Zm3.199 9.07c-.352 0-.691-.258-1.02-.773-.421-.657-.832-1.196-1.23-1.618l-.914-.949a14.424 14.424 0 0 1-1.301 1.336 6.992 6.992 0 0 1-1.336.95c-1.008.585-1.851.878-2.531.878-.164 0-.246-.058-.246-.176 0-.07.222-.222.668-.457a7.422 7.422 0 0 0 1.265-.843c1.008-.844 1.84-1.711 2.496-2.602-.14-.14-.843-.75-2.109-1.828-.164-.117-.41-.316-.738-.598a9.494 9.494 0 0 1-.422-.316c-.211-.164-.316-.281-.316-.352 0-.117.058-.175.175-.175.352 0 .914.246 1.688.738a25.67 25.67 0 0 1 2.426 1.687 6.91 6.91 0 0 0 .773-1.125c.188-.351.399-.785.633-1.3a2.41 2.41 0 0 0 .211-.668c.023-.211.035-.34.035-.387 0-.258.07-.387.211-.387.164 0 .387.129.668.387.492.469.738.785.738.95 0 .093-.058.198-.176.316-.281.28-.539.656-.773 1.124-.141.282-.398.68-.774 1.196-.117.14-.21.27-.281.387-.07.117-.14.222-.211.316.539.398 1.336 1.078 2.391 2.039.258.234.422.457.492.668.094.187.141.445.141.773 0 .235-.059.434-.176.598a.567.567 0 0 1-.457.211Zm-2.32 4.324c-.235.305-.481.457-.739.457-.07 0-.105-.058-.105-.176 0-.164.047-.351.141-.562l.703-1.406a1.34 1.34 0 0 1 .105-.282c.047-.093.082-.175.106-.246v-.035c0-.047-.036-.094-.106-.14a.295.295 0 0 0-.246-.036c-.375.024-.938.082-1.688.176-.726.094-1.265.188-1.617.281l-.527.176a1.38 1.38 0 0 1-.457.106c-.422 0-.773-.13-1.055-.387a2.17 2.17 0 0 1-.527-.492l-.07-.176c0-.117.199-.152.597-.105.539.046 1.653-.024 3.34-.211l.703-.106.879-.105c.422-.07.75-.141.984-.211l.211-.07a.568.568 0 0 1 .247-.07c.117 0 .257.058.421.175.188.117.34.223.457.316.164.117.27.223.317.317.07.07.094.164.07.28 0 .118-.058.224-.176.317a3.38 3.38 0 0 0-.246.211c-.047.07-.211.246-.492.528-.117.187-.328.445-.633.773-.281.328-.48.563-.597.703Zm-1.758 6.926c0-.07.117-.258.351-.563.258-.28.457-.503.598-.667.352-.47.773-1.149 1.266-2.04.515-.89.808-1.476.879-1.757.046-.141-.024-.211-.211-.211-.375 0-1.407.105-3.094.316-1.102.14-1.922.281-2.461.422a.677.677 0 0 1-.352.105c-.187 0-.386-.128-.597-.386a.93.93 0 0 1-.141-.457c0-.094.059-.188.176-.282l.105-.14c.071-.14.153-.328.246-.563.094-.234.176-.457.247-.668.117-.375.199-.785.246-1.23.023-.258.164-.328.421-.211.329.164.575.328.739.492.187.14.246.246.176.317a3.5 3.5 0 0 0-.563.949 9.83 9.83 0 0 0-.211.738c0 .094.059.14.176.14.351 0 .879-.058 1.582-.175l1.477-.176c.585-.07 1.054-.14 1.406-.21l.879-.177a.91.91 0 0 1 .281-.035c.117 0 .234.047.351.14.118.071.247.165.387.282.235.211.387.387.457.527a.799.799 0 0 1 .106.422c0 .094-.071.211-.211.352-.117.14-.258.363-.422.668-.68 1.383-1.559 2.543-2.637 3.48a4.86 4.86 0 0 1-1.019.598c-.164.047-.317.07-.457.07-.118.024-.176 0-.176-.07Zm-8.86-1.477c0 .563-.164 1.008-.492 1.336-.328.352-.691.528-1.09.528-.281 0-.738-.258-1.371-.774a14.323 14.323 0 0 1-1.687-1.687c-.516-.61-.774-1.02-.774-1.23 0-.165.082-.247.246-.247.188 0 .446.094.774.281 1.008.563 1.758.926 2.25 1.09l.211-8.965-3.586.176-.07 9.211c0 .281-.047.492-.141.633-.07.164-.211.246-.422.246-.281 0-.621-.117-1.019-.352-.399-.21-.598-.48-.598-.808 0-.117.012-.211.035-.281.117-.703.176-1.524.176-2.461l.07-6.117-2.918.14.141 9.106c0 .586-.199.879-.598.879-.281 0-.633-.141-1.055-.422-.398-.282-.597-.563-.597-.844v-.211c.094-.586.14-1.406.14-2.461l-.07-5.977-2.918.141.106 9.914c0 .516-.188.774-.563.774a3.4 3.4 0 0 1-1.265-.493c-.329-.21-.493-.48-.493-.808l.035-.317c.118-.773.176-1.453.176-2.039l-.035-6.89c0-.89-.105-1.57-.316-2.04-.094-.234-.141-.386-.141-.456 0-.164.094-.246.281-.246.352 0 1.102.293 2.25.878l3.164-.14c.891-1.406 1.336-2.531 1.336-3.375v-.246l-4.64.246h-.493c-.609 0-1.019-.094-1.23-.281a3.732 3.732 0 0 1-.668-.809c-.187-.305-.281-.55-.281-.738 0-.188.094-.282.281-.282l.281.07c.469.141.938.212 1.407.212h.316l12.867-.739a5.415 5.415 0 0 0 1.231-.21 1.93 1.93 0 0 1 .386-.07c.258 0 .598.187 1.02.562.422.351.633.68.633.984 0 .281-.293.445-.879.492l-8.578.457c.422.235.632.469.632.703 0 .141-.164.504-.492 1.09a40.772 40.772 0 0 1-1.09 1.828l8.649-.422.457-.035c.328 0 .644.117.949.352.305.234.457.515.457.844 0 .093-.035.234-.105.422a1.51 1.51 0 0 0-.071.386l-.211 8.508v.984Zm-31.148-5.695c0-.187.14-.281.422-.281.562 0 1.207-.082 1.934-.246a57.126 57.126 0 0 0 4.007-1.055c.914-2.836 1.547-5.05 1.899-6.645.351-1.617.527-2.671.527-3.163 0-.118-.023-.317-.07-.598a1.28 1.28 0 0 1-.035-.317c0-.21.082-.316.246-.316.14 0 .386.082.738.246.352.14.668.328.949.563.305.234.457.504.457.808 0 .117-.011.2-.035.246a54.404 54.404 0 0 1-1.16 4.114 239.407 239.407 0 0 1-1.547 4.464 95.065 95.065 0 0 0 3.234-1.09c.633-.21 1.102-.316 1.407-.316.257 0 .386.059.386.176 0 .305-.855.89-2.566 1.758a76.51 76.51 0 0 1-5.484 2.46c-1.97.798-3.13 1.196-3.48 1.196-.259 0-.563-.188-.915-.563a4.814 4.814 0 0 1-.808-1.125c-.07-.14-.106-.246-.106-.316Zm.422-14.555c0-.14.094-.21.281-.21.117 0 .223.011.316.035.399.093.844.14 1.337.14h.457l6.503-.422a6.06 6.06 0 0 0 1.582-.28c.188-.071.352-.106.493-.106.257 0 .515.093.773.28.258.188.469.411.633.669.164.234.246.41.246.527 0 .235-.176.387-.527.457l-.246.035-9 .633c-.211.024-.48.035-.81.035-.468 0-.854-.117-1.16-.351-.304-.258-.527-.527-.667-.809-.14-.304-.211-.515-.211-.633Zm2.25 3.657c0-.282.14-.47.422-.563a2.1 2.1 0 0 1 .808-.176c.188 0 .329.059.422.176.117.117.223.305.317.563.398 1.101.808 2.484 1.23 4.148.422 1.64.633 2.625.633 2.953 0 .305-.164.54-.492.703-.305.164-.61.246-.914.246-.188 0-.329-.058-.422-.175-.07-.117-.13-.317-.176-.598-.469-2.672-1.031-4.922-1.688-6.75-.093-.281-.14-.457-.14-.527Zm1.195-9.282c0-.187.094-.41.281-.668.188-.257.364-.41.528-.457a.49.49 0 0 1 .211-.035c.14 0 .316.07.527.211.164.094.996.598 2.496 1.512 1.5.89 2.297 1.547 2.391 1.969.07.28-.047.597-.352.949-.304.328-.551.515-.738.562l-.106.036c-.117 0-.328-.106-.632-.317-1.758-1.43-3.153-2.473-4.184-3.129a3.825 3.825 0 0 1-.316-.281.678.678 0 0 1-.106-.352Zm10.653-.035c0-.14.093-.21.281-.21.117 0 .351.034.703.105.351.07.68.199.984.386.328.188.492.434.492.739v.07l-.21 4.219 3.972-.352.071-6.328c0-.61-.188-1.148-.563-1.617-.094-.117-.141-.223-.141-.316 0-.118.129-.176.387-.176.656 0 1.219.117 1.688.351.492.211.738.504.738.88l-.106 7.03 4.641-.386.07-3.235c0-.68-.105-1.218-.316-1.617-.094-.164-.141-.304-.141-.422 0-.117.094-.175.282-.175.398 0 .878.105 1.441.316.562.21.844.562.844 1.055v.105l-.282 6.82c-.023.329-.082.575-.175.739-.071.14-.211.21-.422.21-.281 0-.621-.117-1.02-.35-.375-.259-.562-.563-.562-.915 0-.14.011-.258.035-.352l.105-.527-10.195 1.02a3.58 3.58 0 0 0-.808.175c-.282.07-.481.106-.598.106-.211 0-.457-.117-.738-.352-.258-.234-.387-.468-.387-.703 0-.094.023-.234.07-.422.117-.539.176-.984.176-1.336l.07-2.636c0-.657-.093-1.172-.281-1.547a.832.832 0 0 1-.105-.352Zm83.566 17.192c-.352 0-.691-.258-1.02-.774-.421-.656-.832-1.195-1.23-1.617l-.914-.95a14.424 14.424 0 0 1-1.301 1.337 6.992 6.992 0 0 1-1.336.949c-1.008.586-1.851.879-2.531.879-.164 0-.246-.059-.246-.176 0-.07.222-.223.668-.457a7.428 7.428 0 0 0 1.265-.844c1.008-.843 1.84-1.71 2.496-2.601-.14-.14-.843-.75-2.109-1.828a11.99 11.99 0 0 1-.738-.598 9.494 9.494 0 0 1-.422-.316c-.211-.165-.316-.282-.316-.352 0-.117.058-.176.175-.176.352 0 .914.246 1.688.738a25.651 25.651 0 0 1 2.426 1.688 6.91 6.91 0 0 0 .773-1.125c.188-.352.399-.785.633-1.3a2.41 2.41 0 0 0 .211-.669c.023-.21.035-.34.035-.386 0-.258.07-.387.211-.387.164 0 .387.129.668.387.492.468.738.785.738.949 0 .093-.058.199-.176.316-.281.281-.539.656-.773 1.125-.141.281-.398.68-.774 1.195-.117.141-.21.27-.281.387-.07.117-.14.223-.211.317.539.398 1.336 1.078 2.391 2.039.258.234.422.457.492.668.094.187.141.445.141.773 0 .234-.059.434-.176.598a.567.567 0 0 1-.457.21Zm7.312-12.867c.071 0 .141.035.211.105a.337.337 0 0 1 .141.21v.071c0 .164-.129.48-.387.95l-2.531 4.394c-.187.398-.434.598-.738.598-.305 0-.563-.188-.774-.563-.211-.305-.468-.762-.773-1.371a4.26 4.26 0 0 1-.352-.633 11.004 11.004 0 0 0-.211-.457c-.257-.445-.386-.762-.386-.95 0-.093.035-.163.105-.21.07-.07.141-.105.211-.105.258 0 .492.14.703.421.164.164.293.34.387.528l.387.527.703.809.316-.492c.328-.563 1.102-1.676 2.32-3.34.258-.329.481-.493.668-.493ZM167.09 34.883c0 .492-.223.738-.668.738-.094 0-.305-.047-.633-.14a2.54 2.54 0 0 1-.879-.493c-.281-.234-.422-.55-.422-.949l.035-.246c.094-.633.141-1.336.141-2.11l.07-9.878-11.074.597c-.328.024-.726.035-1.195.035-.539 0-.973-.14-1.301-.421-.328-.305-.562-.621-.703-.95-.117-.351-.176-.609-.176-.773 0-.14.082-.211.246-.211.094 0 .176.012.246.035a7.89 7.89 0 0 0 1.688.211h.281l12.024-.668.07-8.332-5.379.317c-1.055 1.734-2.039 3.117-2.953 4.148-.914 1.031-1.676 1.746-2.285 2.145-.586.398-.938.597-1.055.597-.117 0-.176-.058-.176-.176 0-.164.129-.433.387-.808 1.055-1.383 2.074-2.953 3.059-4.711.984-1.758 1.781-3.41 2.39-4.957.61-1.57.914-2.766.914-3.586v-.422c0-.281.094-.422.281-.422.071 0 .329.082.774.246.469.164.879.375 1.23.633.375.234.563.469.563.703 0 .281-.27.985-.809 2.11a108.781 108.781 0 0 1-1.195 2.39l11.848-.738a7.288 7.288 0 0 0 1.582-.317.6.6 0 0 1 .246-.035c.281 0 .679.223 1.195.668.516.446.773.809.773 1.09s-.292.445-.878.492l-8.192.492-.035 8.368 9.949-.563a6.824 6.824 0 0 0 1.617-.316c.141-.047.247-.07.317-.07.14 0 .375.105.703.316.328.21.621.457.879.738.258.281.387.54.387.774 0 .304-.27.48-.809.527l-13.043.703-.035 13.219Zm79.031-20.496c-.164 0-.34-.106-.527-.317a2.15 2.15 0 0 1-.282-.386c-.046-.118-.046-.27 0-.457l.036-.844c.023-.164.035-.563.035-1.195v-1.16l-1.055.492-1.23.527a10.87 10.87 0 0 0-.95.422c-.281.14-.527.21-.738.21a2.17 2.17 0 0 1-.562-.175 4.837 4.837 0 0 1-.493-.246c-.257-.164-.375-.34-.351-.527l.105-.352c0-.188.012-.352.036-.492l.035-2.04V5.95c0-.375-.024-.691-.071-.949-.047-.281-.082-.48-.105-.598 0-.117.035-.199.105-.246.024-.023.082-.035.176-.035.164 0 .481.106.949.316.399.188.563.422.493.704-.047.164-.094.41-.141.738l-.106 4.043c0 .117.012.21.036.281.046.047.093.07.14.07.282 0 .621-.082 1.02-.246.75-.234 1.394-.468 1.933-.703l.774-.316v-2.32c0-.938-.059-1.84-.176-2.708a.792.792 0 0 1-.035-.246c0-.234.094-.351.281-.351.024 0 .152.047.387.14.351.188.609.352.773.493.164.14.258.222.282.246.093.07.14.14.14.21a.34.34 0 0 1-.07.176c-.024.07-.047.13-.07.176l-.106 1.055-.035 3.234.035 3.13c0 .538-.035 1.007-.105 1.405-.118.493-.305.739-.563.739Zm-6.469 5.765c-.257 0-.574-.199-.949-.597-.281-.282-.422-.492-.422-.633 0-.07.047-.106.141-.106a1.48 1.48 0 0 1 .351-.035l.774-.035c.445 0 .738-.012.879-.035.445 0 .82-.012 1.125-.035 2.015-.188 3.375-.34 4.078-.457a29.8 29.8 0 0 0 .949-.14c.281-.071.504-.106.668-.106.328 0 .656.164.984.492.258.258.387.469.387.633 0 .14-.082.234-.246.28-.117.024-.809.071-2.074.142-.703.023-1.57.082-2.602.175a92.491 92.491 0 0 0-2.707.282c-.14.023-.34.058-.597.105-.258.047-.504.07-.739.07Zm4.711 14.52c-.726 0-1.289-.024-1.687-.07a1.68 1.68 0 0 1-.949-.422c-.446-.328-.75-1.043-.915-2.145l-.105-1.125c0-.281-.023-.633-.07-1.055a5.987 5.987 0 0 0-.809.141 3.817 3.817 0 0 1-.246.106.965.965 0 0 1-.211.035.81.81 0 0 1-.457-.14c-.141-.095-.316-.27-.527-.528-.164-.211-.246-.352-.246-.422s.082-.117.246-.14c.164-.024.386-.036.668-.036.398 0 .914-.047 1.547-.14l-.036-.493c0-.937-.058-1.734-.175-2.39l-.036-.246c0-.329.129-.457.387-.387.281.094.539.21.774.351.187.094.316.188.386.282.071.07.094.175.071.316l-.106 1.512v.914l3.094-.317c0-.164.012-.55.035-1.16.024-.633.024-1.043 0-1.23 0-.188-.023-.363-.07-.527a6.529 6.529 0 0 0-.071-.458c0-.187.094-.28.282-.28.187 0 .422.105.703.316.328.21.539.398.633.562.117.164.14.363.07.598a6.4 6.4 0 0 0-.246 1.265c-.047.47-.07.75-.07.844.281-.023.539-.058.773-.105.234-.047.387-.07.457-.07.188-.047.41-.071.668-.071.141.023.34.164.598.422.211.281.316.504.316.668 0 .234-.223.328-.668.281a6.863 6.863 0 0 0-1.195-.105c-.399 0-.738.011-1.02.035-.07.844-.211 1.676-.422 2.496a.953.953 0 0 1-.246.457c-.117.14-.222.21-.316.21-.164 0-.27-.07-.317-.21a3.524 3.524 0 0 1-.035-.598c.047-.61.071-1.37.071-2.285a26.99 26.99 0 0 0-1.477.14 9.357 9.357 0 0 1-1.512.212c-.023.96.024 1.816.141 2.566.07.492.211.832.422 1.02.14.117.305.187.492.21.211.024.422.036.633.036h.422c.726 0 1.406-.035 2.039-.106a1.52 1.52 0 0 0 .492-.14c.164-.07.281-.106.352-.106.21 0 .421.07.632.211.211.14.317.305.317.492 0 .188-.106.328-.317.422-.187.094-.492.176-.914.246-.75.094-1.5.14-2.25.14Zm10.02-15.996c.281 0 .422.129.422.387 0 .14-.129.34-.387.597-.703.867-2.098 2.52-4.184 4.957-.164.211-.316.317-.457.317-.117 0-.375-.176-.773-.528-.328-.281-.492-.515-.492-.703 0-.21.176-.41.527-.598.539-.304 1.348-.914 2.426-1.828 1.078-.96 1.875-1.722 2.39-2.285.211-.21.387-.316.528-.316Zm-44.684 11.496c2.086-.656 3.949-1.371 5.59-2.145a25.586 25.586 0 0 0-1.336-1.687c-.187-.235-.281-.422-.281-.563 0-.258.152-.48.457-.668.305-.21.539-.316.703-.316.188 0 .387.117.598.352a137.853 137.853 0 0 1 3.41 4.148c.937 1.195 1.406 1.922 1.406 2.18 0 .21-.164.457-.492.738-.305.305-.598.457-.879.457-.234 0-.469-.188-.703-.563a96.435 96.435 0 0 0-1.828-2.671l-4.219 2.109c-.469.21-1.207.586-2.215 1.125-.844.445-1.359.668-1.547.668-.14 0-.316-.094-.527-.281a1.65 1.65 0 0 1-.492-.633c-.094-.234-.094-.422 0-.563.14-.257.211-1.289.211-3.093V16.602c0-.563-.024-1.02-.071-1.372a3.587 3.587 0 0 0-.281-1.125 1.37 1.37 0 0 0-.07-.175.305.305 0 0 1-.035-.14c0-.118.082-.177.246-.177.304 0 1.066.258 2.285.774l7.629-.528c.187-.023.398-.035.633-.035.257 0 .562.117.914.352.351.21.527.445.527.703 0 .094-.059.234-.176.422-.094.187-.14.328-.14.422l-.914 6.609c.562.656.843 1.102.843 1.336 0 .117-.07.2-.211.246-.117.047-.304.07-.562.07l-8.508.317.035 5.87Zm-5.765-15.785c0-.235.152-.516.457-.844 1.711-1.898 3.199-3.785 4.464-5.66 1.266-1.875 1.899-3.13 1.899-3.762l-.035-.246V3.77c0-.329.129-.493.386-.493.305 0 .727.211 1.266.633.563.399.844.727.844.985 0 .117-.059.27-.176.457a23.895 23.895 0 0 1-1.16 1.687l4.992-.387a4.872 4.872 0 0 0 1.336-.28c.141-.048.246-.071.316-.071.352 0 .727.199 1.125.597.422.375.633.668.633.88 0 .28-.258.445-.773.492l-6.012.421c.164.047.527.293 1.09.739.586.445 1.113.902 1.582 1.37.469.47.703.798.703.985 0 .211-.141.469-.422.774-.281.28-.527.421-.738.421-.188 0-.41-.152-.668-.457a21.796 21.796 0 0 0-2.426-2.285c-.281-.234-.422-.433-.422-.597 0-.118.059-.27.176-.457.117-.188.27-.34.457-.457l-2.355.175a34.406 34.406 0 0 1-3.727 3.903c-1.359 1.195-2.226 1.793-2.601 1.793-.141 0-.211-.07-.211-.211Zm12.656 3.656.246-2.461-7.242.492v2.32l6.996-.351Zm-.457 4.36.281-2.708-6.785.317v2.636l6.504-.246Zm1.898-9.528c0-.234.153-.516.457-.844 1.149-1.383 2.192-2.941 3.129-4.676.961-1.757 1.442-2.988 1.442-3.69v-.142c0-.351.129-.527.386-.527.164 0 .41.094.739.281.351.164.668.364.949.598.281.234.422.469.422.703 0 .211-.164.586-.493 1.125-.328.54-.503.82-.527.844l6.926-.563a6.483 6.483 0 0 0 1.336-.246c.047-.023.141-.035.281-.035.328 0 .68.188 1.055.563.398.351.597.644.597.879 0 .14-.07.257-.21.351-.118.07-.282.117-.493.14l-7.136.493c.656.422 1.429 1.043 2.32 1.863.891.797 1.336 1.336 1.336 1.617 0 .164-.129.422-.387.774-.258.328-.504.492-.738.492-.188 0-.387-.117-.598-.352-1.148-1.242-2.191-2.226-3.129-2.953-.234-.187-.351-.363-.351-.527 0-.188.176-.469.527-.844l-2.601.176c-.774 1.031-1.711 2.074-2.813 3.129-1.078 1.055-1.805 1.582-2.18 1.582-.164 0-.246-.07-.246-.211Zm3.305.773c0-.14.082-.21.246-.21.352 0 1.148.292 2.391.878l7.066-.597.281-.035c.094 0 .27.046.528.14.281.07.539.2.773.387.258.164.387.387.387.668 0 .094-.035.223-.106.387-.07.164-.105.28-.105.351a88.243 88.243 0 0 1-.492 8.262l-.071.879c-.07.984-.164 1.805-.281 2.46-.117.657-.316 1.173-.598 1.548-.445.609-.925.914-1.441.914s-1.172-.317-1.969-.95a18.576 18.576 0 0 1-2.215-2.074c-.656-.75-.984-1.23-.984-1.441 0-.164.094-.246.281-.246.211 0 .504.117.879.351.867.54 1.594.973 2.18 1.301.586.328 1.008.492 1.266.492.117 0 .199-.082.246-.246.539-3 .867-6.762.984-11.285l-6.609.492c0 3.961.035 10.242.105 18.844 0 .21-.058.363-.176.457a.466.466 0 0 1-.386.176c-.188 0-.411-.07-.668-.211-.446-.188-.762-.363-.95-.528-.187-.164-.281-.351-.281-.562l.035-.246c.141-.773.211-1.64.211-2.602l-.105-14.836c0-.609-.024-1.078-.07-1.406a3.306 3.306 0 0 0-.211-.95c-.094-.28-.141-.468-.141-.562ZM135.312 67.75c-.02 0-.093.02-.218.063-.104.02-.156-.01-.156-.094 0-.021.041-.063.124-.125l.219-.219c.063-.063.157-.146.281-.25.126-.125.219-.25.282-.375.312-.52.531-1.042.656-1.563l.188-1.093c.145-.813.208-1.76.187-2.844 0-.25-.031-.51-.094-.781-.021-.125-.125-.302-.312-.532v-.03c0-.042.052-.063.156-.063.146 0 .271.01.375.031.271.063.573.094.906.094.354-.021.573-.032.656-.032l2.094-.156c.417-.041.688-.062.813-.062.896-.125 1.302-.177 1.219-.157.479-.083.77-.124.874-.124.334.02.667.28 1 .78l.063.157c0 .125-.094.198-.281.219-.188.02-.302.031-.344.031-.646 0-1.125.01-1.438.031-.791 0-1.374.01-1.75.032l-.874.062-1.782.188c-.125 1.75-.239 2.895-.344 3.437-.166.98-.489 1.77-.968 2.375-.354.458-.865.792-1.532 1Zm7.876 8.844c-.313 0-.615-.23-.907-.688a9.905 9.905 0 0 0-1.093-1.437l-.813-.844c-.437.5-.823.896-1.156 1.188a6.25 6.25 0 0 1-1.188.843c-.896.521-1.646.781-2.25.781-.146 0-.219-.052-.219-.156 0-.062.198-.198.594-.406a6.591 6.591 0 0 0 1.125-.75c.896-.75 1.636-1.52 2.219-2.313-.125-.124-.75-.666-1.875-1.624a10.426 10.426 0 0 1-.656-.532 7.616 7.616 0 0 1-.375-.281c-.188-.146-.282-.25-.282-.313 0-.104.053-.156.157-.156.312 0 .812.219 1.5.656.687.417 1.406.917 2.156 1.5.292-.354.521-.687.687-1 .167-.312.355-.697.563-1.156.104-.229.167-.427.187-.594a4.83 4.83 0 0 0 .032-.343c0-.23.062-.344.187-.344.146 0 .344.115.594.344.437.416.656.698.656.844 0 .083-.052.177-.156.28-.25.25-.479.584-.687 1-.126.25-.355.605-.688 1.063a2.76 2.76 0 0 0-.25.344 3.062 3.062 0 0 1-.188.281c.48.354 1.188.959 2.126 1.813.229.208.374.406.437.594.083.166.125.395.125.687a.89.89 0 0 1-.156.531.504.504 0 0 1-.406.188Zm-3.157 9.937c-.146 0-.25-.041-.312-.125a1.964 1.964 0 0 0-.125-.156c-.209-.292-.302-.573-.282-.844.021-.166.053-.614.094-1.344l.032-1.5c-.021-.229-.042-.364-.063-.406-.021-.062-.115-.187-.281-.375a15.88 15.88 0 0 0-1.156-1.281c-.5-.5-.823-.833-.969-1l-.938-.938c-.062-.062-.093-.124-.093-.187 0-.104.062-.188.187-.25a.674.674 0 0 1 .437-.094c.417.042.688.094.813.156.146.042.281.167.406.376.125.208.302.458.531.75.25.27.438.479.563.624.521.626.885 1.042 1.094 1.25.375-.437.843-1.062 1.406-1.874.458-.584.729-1.063.813-1.438.083-.27.208-.406.374-.406.084 0 .209.052.376.156.541.333.812.604.812.813 0 .124-.135.28-.406.468-.375.271-.688.573-.938.906l-.625.782c-.416.5-.729.896-.937 1.187-.104.188-.156.459-.156.813V85.75c.02.146-.063.313-.25.5-.167.188-.303.281-.407.281Zm9.531-14.375c.25 0 .376.115.376.344 0 .125-.115.302-.344.531-.625.771-1.865 2.24-3.719 4.406-.146.188-.281.282-.406.282-.104 0-.334-.156-.688-.469-.291-.25-.437-.458-.437-.625 0-.188.156-.365.468-.531.48-.271 1.198-.813 2.157-1.625.958-.854 1.666-1.531 2.125-2.031.187-.188.344-.282.468-.282Zm-20.874-11.562c0-.459-.157-.927-.469-1.407-.084-.145-.125-.26-.125-.343 0-.188.135-.282.406-.282.292 0 .698.094 1.219.282.437.166.719.323.843.468.126.126.188.303.188.532l-.062 24.843.031.844c0 .584-.157 1.031-.469 1.344-.312.313-.635.469-.969.469-.333 0-.958-.313-1.875-.938a23.485 23.485 0 0 1-2.531-1.969c-.792-.708-1.187-1.177-1.187-1.406 0-.146.093-.219.281-.219.208 0 .458.073.75.22 1.458.77 2.76 1.343 3.906 1.718l.063-24.156Zm-24.376 8.5c0-.146.094-.219.282-.219h.062l.532.031c.312 0 .656-.031 1.031-.094l3.219-.468c-.459-2.334-.771-4.906-.938-7.719-.042-.563-.302-1.042-.781-1.438-.104-.062-.157-.135-.157-.218 0-.125.198-.188.594-.188.834 0 1.396.104 1.688.313.291.208.437.406.437.593v.063c0 1.25.084 2.52.25 3.813.167 1.27.396 2.77.688 4.5l5.719-.876c.333-.062.645-.156.937-.28a.78.78 0 0 1 .344-.094c.291 0 .604.166.937.5.354.312.532.562.532.75 0 .25-.271.427-.813.53l-7.344 1.157c.25 1.25.531 2.417.844 3.5.313 1.083.771 2.396 1.375 3.938.854-1 1.583-2.063 2.188-3.188.624-1.125.937-1.938.937-2.438l-.031-.53c0-.355.104-.532.312-.532.104 0 .313.094.625.281.313.188.594.417.844.688.25.25.375.51.375.781 0 .146-.198.604-.594 1.375-.396.77-.927 1.656-1.594 2.656a25.76 25.76 0 0 1-2.218 2.813c.5.979 1.052 1.844 1.656 2.594.625.75 1.406 1.51 2.344 2.28a.298.298 0 0 0 .218.094c.23 0 .49-.51.782-1.53.312-1.022.604-2.261.875-3.72.041-.333.114-.583.219-.75.104-.187.218-.28.343-.28.125 0 .229.093.313.28.104.188.156.448.156.782v.125c0 2.062-.219 4-.656 5.812-.146.563-.313.98-.5 1.25-.188.292-.469.438-.844.438-.396 0-.917-.198-1.562-.594-.646-.375-1.376-1.01-2.188-1.906-.812-.917-1.615-2.115-2.406-3.594-.959 1-2.063 1.948-3.313 2.844-1.229.896-2.364 1.625-3.406 2.187-1.042.584-1.708.875-2 .875-.187 0-.281-.073-.281-.219 0-.187.146-.385.437-.593a57.91 57.91 0 0 0 4.281-3.406c1.376-1.188 2.521-2.313 3.438-3.376-.292-.583-.708-1.635-1.25-3.156-.542-1.52-1.042-3.354-1.5-5.5l-3.25.469c-.292.042-.49.063-.594.063a1.15 1.15 0 0 1-.844-.344 4.555 4.555 0 0 1-.687-.938l-.063-.187Zm8.157-7.625c0-.188.114-.386.343-.594.25-.23.459-.344.626-.344.187 0 .635.313 1.343.938a22.55 22.55 0 0 1 2 2c.646.687.969 1.125.969 1.312 0 .25-.146.51-.438.781-.27.25-.5.376-.687.376-.208 0-.437-.178-.687-.532-.813-1.104-1.834-2.208-3.063-3.312-.271-.25-.406-.459-.406-.625Zm9.719 2.781c0-.167.114-.25.343-.25.25 0 .625.094 1.125.281.417.146.677.281.782.406.124.126.187.323.187.594l.094 13.094c0 .5-.209.75-.625.75-.354 0-.698-.125-1.032-.375-.333-.27-.5-.594-.5-.969 0-.166.011-.291.032-.375.083-.396.125-.948.125-1.656l-.031-9.813c0-.479-.126-.916-.376-1.312a.791.791 0 0 1-.124-.375Zm66.343 4c-.333 0-.541-.094-.625-.281a4.346 4.346 0 0 0-.312-.625c-.104-.188-.292-.406-.563-.656l.063-.126c.75.271 1.239.407 1.468.407.167 0 .292-.031.376-.094.083-.063.218-.208.406-.438.271-.291.521-.74.75-1.343.312-.896.51-1.823.594-2.781v-.094c0-.125-.021-.209-.063-.25-.271 0-.99.062-2.156.187-.646 1.604-1.396 2.927-2.25 3.969-.834 1.02-1.594 1.531-2.281 1.531-.167 0-.25-.062-.25-.187 0-.042.208-.281.624-.719.417-.438.876-1.01 1.376-1.719.52-.729 1.01-1.625 1.468-2.687-.104 0-.406.02-.906.062a6.51 6.51 0 0 0-1.281.219.495.495 0 0 1-.531.063l-.063-.032a.488.488 0 0 1-.125-.093 1.359 1.359 0 0 1-.375-.313.831.831 0 0 1-.125-.406c0-.063.052-.146.156-.25l.375-.5c.125-.167.24-.407.344-.719.104-.333.156-.615.156-.844 0-.146-.01-.24-.031-.281a.346.346 0 0 1-.031-.156c0-.104.052-.157.156-.157.125 0 .302.073.531.22.063.04.177.124.344.25.188.103.292.228.312.374 0 .146-.083.386-.25.719l-.406.719a.39.39 0 0 0-.062.218c0 .063.021.115.062.157a.39.39 0 0 0 .219 0l1.875-.25a11.01 11.01 0 0 0 .5-1.719v-.718c0-.23.062-.324.188-.282.27.063.489.146.656.25.312.188.468.344.468.469 0 .104-.041.281-.124.531-.063.23-.115.406-.157.531-.021.084-.114.354-.281.813.062 0 .448-.042 1.156-.125l.313-.063c.062 0 .177-.02.343-.062a.35.35 0 0 1 .157-.032c.25 0 .406.01.469.032.083.02.208.083.374.187.188.125.313.25.376.375.062.125.083.271.062.438L191.812 63l-.218 1.125c0 .083-.073.354-.219.813a7.464 7.464 0 0 1-.5 1.218c-.354.709-.771 1.24-1.25 1.594-.417.333-.781.5-1.094.5Zm2.657 8.344c-.313 0-.615-.23-.907-.688a9.905 9.905 0 0 0-1.093-1.437l-.813-.844c-.437.5-.823.896-1.156 1.188a6.25 6.25 0 0 1-1.188.843c-.896.521-1.646.781-2.25.781-.146 0-.219-.052-.219-.156 0-.062.198-.198.594-.406a6.591 6.591 0 0 0 1.125-.75c.896-.75 1.636-1.52 2.219-2.313-.125-.124-.75-.666-1.875-1.624a10.426 10.426 0 0 1-.656-.532 7.616 7.616 0 0 1-.375-.281c-.188-.146-.282-.25-.282-.313 0-.104.053-.156.157-.156.312 0 .812.219 1.5.656.687.417 1.406.917 2.156 1.5.292-.354.521-.687.687-1 .167-.312.355-.697.563-1.156.104-.229.167-.427.187-.594a4.83 4.83 0 0 0 .032-.343c0-.23.062-.344.187-.344.146 0 .344.115.594.344.437.416.656.698.656.844 0 .083-.052.177-.156.28-.25.25-.479.584-.687 1-.126.25-.355.605-.688 1.063a2.76 2.76 0 0 0-.25.344 3.062 3.062 0 0 1-.188.281c.48.354 1.188.959 2.126 1.813.229.208.374.406.437.594.083.166.125.395.125.687a.89.89 0 0 1-.156.531.504.504 0 0 1-.406.188Zm-6.907 9.344c-.312 0-.552-.084-.719-.25-.187-.188-.281-.355-.281-.5 0-.146.084-.303.25-.47.021-.02.136-.187.344-.5.458-.728.979-1.656 1.563-2.78.604-1.146.979-1.928 1.124-2.344.126-.396.24-.74.344-1.031.125-.292.229-.438.313-.438.146 0 .271.052.375.156.104.084.208.209.312.375.125.146.219.25.282.313.145.166.218.323.218.469a.497.497 0 0 1-.125.312 1.598 1.598 0 0 0-.156.219l-1.375 2.312a63.849 63.849 0 0 1-1.406 2.406.497.497 0 0 0-.125.313c0 .083.093.125.281.125.396 0 1.135-.052 2.219-.156 1.083-.084 1.812-.156 2.187-.219.542-.063.917-.125 1.125-.188.229-.062.563.094 1 .47.521.437.636.718.344.843-.167.083-.49.125-.969.125h-1.25c-.271 0-.698.02-1.281.063-.354 0-.75.01-1.187.03-.438.022-.803.042-1.094.063-.334.021-.979.084-1.938.188l-.375.094Zm13.281-13.782c.25 0 .376.115.376.344 0 .125-.115.302-.344.531-.625.771-1.865 2.24-3.719 4.406-.146.188-.281.282-.406.282-.104 0-.334-.156-.688-.469-.291-.25-.437-.458-.437-.625 0-.188.156-.365.468-.531.48-.271 1.198-.813 2.157-1.625.958-.854 1.666-1.531 2.125-2.031.187-.188.344-.282.468-.282Zm-16.187 7.594c0 .833-.073 2.031-.219 3.594-.083.77-.344 1.333-.781 1.687-.437.375-1.167.615-2.187.719-1 .125-2.573.188-4.719.188-1.209 0-2.334-.032-3.375-.094-1.563-.125-2.344-1.031-2.344-2.719l.031-12.406c0-.625-.073-1.084-.219-1.375-.083-.167-.124-.281-.124-.344 0-.104.083-.156.25-.156.374 0 1.062.208 2.062.625l5.625-.25.437-2.531-5.812.25c-.104 0-.26.02-.469.062a2.156 2.156 0 0 1-.437.063c-.25 0-.511-.073-.782-.22-.27-.166-.406-.343-.406-.53 0-.063.011-.136.032-.22.02-.083.031-.176.031-.28l.125-5.688c0-.292-.032-.542-.094-.75-.042-.208-.167-.438-.375-.688-.063-.104-.094-.177-.094-.218 0-.146.157-.219.469-.219.396 0 .854.073 1.375.219.542.125.802.427.781.906l-.094 2.313 5.782-.376c.479-.02.864-.093 1.156-.218.167-.042.292-.063.375-.063.271 0 .573.167.906.5.334.334.5.615.5.844 0 .208-.239.333-.719.375l-8.062.438-.062 2.218 6.5-.344.406-.03c.166 0 .416.103.75.312.354.208.531.437.531.687 0 .104-.052.24-.156.406-.104.146-.157.24-.157.282l-.531 2.562c.459.521.688.875.688 1.063 0 .125-.084.208-.25.25-.146.041-.396.073-.75.094L169.75 71v2.156l5.344-.25c.5-.041.906-.104 1.218-.187.167-.042.282-.063.344-.063.292 0 .594.156.906.469.313.313.469.563.469.75 0 .208-.25.333-.75.375l-7.562.344v1.937l5.312-.25c.563-.041 1.011-.114 1.344-.219a.817.817 0 0 1 .25-.03c.229 0 .51.166.844.5.333.312.5.551.5.718 0 .208-.25.333-.75.375l-7.5.313-.031 1.968 5.812-.219c.5-.041.906-.104 1.219-.187a.993.993 0 0 1 .281-.063c.271 0 .562.167.875.5.313.313.469.563.469.75 0 .209-.219.334-.656.376l-8 .312v1.313c0 .479.083.812.25 1 .187.166.51.27.968.312.459.042 1.323.063 2.594.063 1.646 0 3.135-.084 4.469-.25.5-.063.864-.188 1.093-.376.25-.208.459-.624.626-1.25.187-.624.385-1.645.593-3.062.063-.417.146-.74.25-.969.125-.229.25-.344.375-.344s.229.126.313.376c.104.25.156.593.156 1.03v.532ZM152.25 68.469c0-.125.073-.188.219-.188l.187.031a7.35 7.35 0 0 0 1.063.094h.375l6.406-.312c.542-.834.99-1.625 1.344-2.375.375-.771.573-1.375.594-1.813.041-.25.135-.375.281-.375.25 0 .573.157.969.469.416.292.624.542.624.75 0 .125-.124.385-.374.781s-.813 1.219-1.688 2.469l1.875-.063c.333 0 .687-.062 1.063-.187.187-.063.343-.094.468-.094.229 0 .438.094.625.281.209.167.375.365.5.594.125.23.188.386.188.469 0 .208-.229.333-.688.375l-11.969.563h-.406c-.479 0-.802-.084-.968-.25-.459-.459-.688-.865-.688-1.22Zm.906 18.094c0-.25.073-.5.219-.75.625-1.188 1.094-2.26 1.406-3.22.334-.958.584-2.083.75-3.374.167-1.313.25-2.969.25-4.969 0-.792-.021-1.375-.062-1.75-.021-.396-.073-.688-.157-.875-.124-.25-.187-.406-.187-.469 0-.041.021-.083.063-.125a.383.383 0 0 1 .218-.062c.542 0 1.156.177 1.844.531l6.062-.281h.313c.375 0 .677.104.906.312.229.209.344.427.344.656 0 .105-.031.24-.094.407a1.76 1.76 0 0 0-.062.344L165 84l.031 1c0 .417-.156.77-.469 1.063a1.498 1.498 0 0 1-1.093.468c-.292 0-.552-.073-.781-.219a14.308 14.308 0 0 1-3.376-2.53c-.333-.334-.5-.594-.5-.782 0-.146.094-.219.282-.219.187 0 .468.094.844.281 1.02.542 2.083.98 3.187 1.313v-4.969c-.708.417-1.615.813-2.719 1.188-1.104.354-1.885.531-2.344.531-.458 0-.791-.24-1-.719a15.926 15.926 0 0 1-1.093 3.281c-.438.959-.896 1.709-1.375 2.25-.479.542-.886.823-1.219.844h-.063c-.104 0-.156-.073-.156-.219Zm.5-24.344c0-.125.063-.188.188-.188l.312.063c.292.062.604.093.938.093h.312l4.844-.25c-.604-.729-1.375-1.479-2.312-2.25-.126-.104-.188-.208-.188-.312 0-.104.094-.27.281-.5.188-.25.365-.375.531-.375.146 0 .5.208 1.063.625.563.417 1.083.865 1.563 1.344.479.458.718.77.718.937a.895.895 0 0 1-.156.469l1.688-.094c.541-.041.958-.104 1.25-.187a1.75 1.75 0 0 1 .406-.063c.312 0 .625.167.937.5.313.313.469.584.469.813 0 .125-.073.208-.219.25a2.706 2.706 0 0 1-.593.093l-9.782.5h-.437c-.5 0-.844-.072-1.031-.218a2.201 2.201 0 0 1-.563-.594c-.146-.27-.219-.49-.219-.656Zm2.032 2.531c0-.188.166-.375.5-.563.187-.124.364-.187.531-.187.208 0 .5.23.875.688.396.437.76.927 1.094 1.468.354.542.531.854.531.938 0 .187-.125.385-.375.594-.25.187-.49.28-.719.28-.25 0-.49-.176-.719-.53-.5-.876-1-1.626-1.5-2.25-.146-.188-.218-.334-.218-.438Zm1.624 14.531c.626 0 1.459-.104 2.5-.312l3.282-.625V72.78l-5.5.25-.032 1.906a.721.721 0 0 1 .376-.093l.374.062c1.542.23 2.74.459 3.594.688.479.146.719.406.719.781-.021.208-.115.417-.281.625a.606.606 0 0 1-.563.25c-.187 0-.479-.063-.875-.188-.375-.124-.854-.26-1.437-.406a19.71 19.71 0 0 0-1.657-.344l-.281-.093c-.083 1.5-.166 2.52-.25 3.062h.031Zm75.094-7.125c-.312 0-.594-.125-.844-.375-.312-.229-.468-.406-.468-.531 0-.146.239-.219.718-.219l1.532-.094 1.562-.156c.042-.333.063-.969.063-1.906.062 0-.261.042-.969.125l-.594.094a1.253 1.253 0 0 1-.5.125.422.422 0 0 1-.312-.125c-.334-.292-.5-.542-.5-.75v-1.469c0-.146-.052-.708-.156-1.688l-.032-.343c0-.167.032-.271.094-.313.062-.041.177-.041.344 0 .625.167.927.354.906.563l-.031.219a8.17 8.17 0 0 0-.063 1.124c0 .542.011.886.032 1.032.041.416.062.614.062.594.021.083.094.124.219.124s.375-.03.75-.093c.396-.084.656-.136.781-.156v-2.75c0-.771-.031-1.292-.094-1.563a4.768 4.768 0 0 1-.062-.344c0-.146.052-.218.156-.218.042 0 .188.041.438.124.395.188.656.355.781.5.146.146.198.303.156.47-.063.208-.104.624-.125 1.25-.042.5-.083 1.312-.125 2.437l1.063-.031c.208 0 .364-.01.468-.032.104-.02.156-.062.156-.125.146-.791.24-1.479.282-2.062l.031-.375c.021-.042.021-.115 0-.219v-.219l-.031-.219c0-.187.073-.28.218-.28.084 0 .261.083.532.25.062.04.146.103.25.187a.53.53 0 0 1 .25.219.45.45 0 0 1 .062.25c0 .124-.01.229-.031.312l-.344 1.75-.093.719c-.084.479-.334.74-.75.781a1.099 1.099 0 0 1-.313-.094.307.307 0 0 0-.156-.062c-.25 0-.771.052-1.563.156l-.031 1.938.531-.032.5-.031c.771 0 1.344-.042 1.719-.125.167 0 .313-.02.437-.063l.094-.03c.209 0 .427.145.656.437.271.27.407.469.407.594 0 .187-.292.25-.875.187l-1.188-.063h-1.562c-.313 0-.886.042-1.719.126-.437 0-.833.02-1.187.062a4.983 4.983 0 0 0-1 .219l-.532.187Zm7.406 10.188c-.02.02-.072.031-.156.031-.166 0-.406-.115-.718-.344a83.974 83.974 0 0 0-2.782-2.625 21.943 21.943 0 0 1-1.531 1.406 11.53 11.53 0 0 1-.875.563c-.604.354-1.188.573-1.75.656h-.188c-.187 0-.302-.02-.343-.062-.021-.021.021-.063.125-.125a2.84 2.84 0 0 0 .281-.156c.125-.063.479-.292 1.063-.688.291-.208.708-.563 1.25-1.063.541-.5.937-.906 1.187-1.218l-1.281-1a38.492 38.492 0 0 0-.75-.531 5.102 5.102 0 0 0-.532-.407l-.031-.094c0-.124.104-.187.313-.187.25 0 .656.156 1.218.469L235.906 78c.354-.458.709-.958 1.063-1.5.375-.563.573-.896.593-1 .021-.063.011-.115-.031-.156-.021-.063-.062-.094-.125-.094h-.625l-1.125.094a15.55 15.55 0 0 0-1.687.219c-.063.02-.167.052-.313.093a1.402 1.402 0 0 1-.375.063c-.041 0-.219-.115-.531-.344-.292-.25-.448-.406-.469-.469-.021-.02-.031-.052-.031-.094 0-.104.115-.145.344-.124h.437c.584 0 1.427-.053 2.531-.157l1.063-.094.969-.124c.312-.084.489-.126.531-.126h.063c.104 0 .197.032.281.094a.786.786 0 0 1 .187.188.953.953 0 0 0 .094.125l.188.187a.495.495 0 0 1 .187.25.383.383 0 0 1 .063.219c0 .188-.073.323-.219.406-.104.042-.292.26-.563.656-.458.73-1.01 1.51-1.656 2.344.354.23.812.563 1.375 1 .25.167.656.448 1.219.844.25.188.437.438.562.75.084.333.125.583.125.75-.021.167-.093.281-.219.344Zm-30.093-8.094c-.25 2.917-.938 5.292-2.063 7.125-1.125 1.813-2.646 3.375-4.562 4.688-.5.312-.854.468-1.063.468-.146 0-.219-.062-.219-.187 0-.209.209-.521.626-.938 1.312-1.312 2.322-2.573 3.031-3.781.729-1.23 1.239-2.406 1.531-3.531.312-1.125.531-2.386.656-3.781l-4.5.218c-.291.021-.646.031-1.062.031-.479 0-.896-.093-1.25-.28-.354-.21-.615-.657-.782-1.344a.45.45 0 0 1-.031-.188c0-.146.073-.219.219-.219.062 0 .115.01.156.031a8.56 8.56 0 0 0 1.813.22h.343l5.219-.25c.063-1.355.094-2.72.094-4.094 0-1.084-.01-1.948-.031-2.594-.021-.667-.063-1.115-.125-1.344a4.168 4.168 0 0 0-.25-.844c-.104-.25-.157-.427-.157-.531 0-.146.105-.219.313-.219.313 0 1.115.23 2.406.688l1.5-.094c.875-1.27 1.479-2.219 1.813-2.844.333-.646.5-1.177.5-1.593l-.032-.47v-.062c0-.208.115-.312.344-.312.209 0 .448.073.719.218.292.126.51.26.656.407.438.291.657.583.657.875a.552.552 0 0 1-.063.25c-.875 1.396-1.667 2.52-2.375 3.375l6.688-.438.312-.031c.354 0 .688.135 1 .406.312.25.469.469.469.657a.94.94 0 0 1-.094.343c-.063.146-.094.24-.094.281L222 71.876l2.938-.125c.437-.02.874-.104 1.312-.25.458-.146.781-.25.969-.313a.812.812 0 0 1 .25-.03c.312 0 .708.218 1.187.656.5.437.75.812.75 1.124 0 .25-.208.396-.625.438l-6.781.313-.031 10.28c0 .313.01.574.031.782.021.23.031.427.031.594 0 .375-.104.687-.312.937-.209.271-.448.469-.719.594-.271.125-.5.188-.688.188-.416 0-1.135-.313-2.156-.938a20.98 20.98 0 0 1-2.781-2c-.854-.708-1.281-1.219-1.281-1.531 0-.125.083-.188.25-.188.229 0 .541.104.937.313.875.458 1.677.833 2.407 1.125.75.291 1.531.531 2.343.719l.031-10.782-10.343.469Zm10.343-2.281.032-7.375-10.219.625c.042 1.958.063 3.448.063 4.469 0 1.229-.021 2.145-.063 2.75l10.187-.47Zm-8.218 4.469c0-.188.094-.407.281-.657.187-.27.406-.406.656-.406.271 0 .917.354 1.938 1.063a32.153 32.153 0 0 1 2.969 2.28c.187.147.281.313.281.5 0 .063-.063.21-.188.438a2.714 2.714 0 0 1-.406.594c-.146.167-.313.25-.5.25s-.396-.115-.625-.344a17 17 0 0 0-1.562-1.344 35.43 35.43 0 0 0-1.938-1.406l-.562-.406c-.23-.188-.344-.375-.344-.563Zm0-9.344c0-.188.094-.406.281-.656.187-.271.406-.407.656-.407.271 0 .917.354 1.938 1.063a32.17 32.17 0 0 1 2.969 2.281c.187.146.281.313.281.5 0 .063-.063.208-.188.438a2.714 2.714 0 0 1-.406.593c-.146.167-.313.25-.5.25s-.396-.114-.625-.344a17 17 0 0 0-1.562-1.343c-.5-.396-1.146-.865-1.938-1.406l-.562-.407c-.23-.187-.344-.375-.344-.562Z"/></svg>