<svg xmlns="http://www.w3.org/2000/svg" width="350" height="36" fill="none"><path fill="#333" d="M110.91 18.5a1.25 1.25 0 0 1-.914-.387 26.703 26.703 0 0 0-2.355-2.285c-.891-.75-1.676-1.312-2.356-1.687-.328-.188-.492-.48-.492-.88 0-.07.082-.163.246-.28.211-.141.551-.446 1.02-.915l1.265-1.23a23.692 23.692 0 0 0 1.406-1.582c.399-.469.622-.797.668-.984a1.16 1.16 0 0 0 .071-.282c.047-.164.117-.246.211-.246.117 0 .269.059.457.176.211.117.386.234.527.352.352.328.527.609.527.843-.023.07-.117.153-.281.246-.14.07-.269.141-.387.211a53.04 53.04 0 0 0-1.265 1.125l-2.285 1.97c-.399.327-.598.585-.598.773 0 .093.187.246.563.457.445.28 1.312.855 2.601 1.722.492.328.961.692 1.406 1.09.375.375.563.762.563 1.16 0 .188-.082.352-.246.492a.478.478 0 0 1-.352.141Zm-6.258 7.98c-.257 0-.574-.199-.949-.597-.281-.281-.422-.492-.422-.633 0-.07.047-.105.141-.105.094-.024.211-.036.351-.036l.774-.035c.445 0 .738-.012.879-.035.445 0 .82-.012 1.125-.035 2.015-.188 3.375-.34 4.078-.457a29.8 29.8 0 0 0 .949-.14c.281-.071.504-.106.668-.106.328 0 .656.164.984.492.258.258.387.469.387.633 0 .14-.082.234-.246.281-.117.023-.809.07-2.074.14-.703.024-1.57.083-2.602.176a92.491 92.491 0 0 0-2.707.282c-.14.023-.34.058-.597.105-.258.047-.504.07-.739.07Zm-21.586.036v.422c0 1.265.141 2.19.422 2.777.281.562.82.95 1.618 1.16.82.188 2.144.281 3.972.281 1.781 0 3.41-.105 4.887-.316 1.476-.235 2.566-.516 3.27-.844a.936.936 0 0 1 .421-.105c.14 0 .41.117.809.351.398.211.75.469 1.054.774.329.28.493.515.493.703 0 .187-.094.34-.281.457-.188.14-.458.234-.81.281-3.702.61-7.206.914-10.51.914-2.25 0-3.915-.176-4.993-.527-1.078-.328-1.816-.914-2.215-1.758-.375-.867-.562-2.18-.562-3.938v-.246l.07-6.504-8.086 1.336c-.938.164-1.523.246-1.758.246-.398 0-.773-.164-1.125-.492a5.547 5.547 0 0 1-.844-1.054.563.563 0 0 1-.14-.352c0-.188.129-.281.386-.281h.07c.165.023.4.035.704.035.563 0 1.16-.059 1.793-.176l9.035-1.441.106-10.828c0-.68-.165-1.29-.493-1.829-.07-.117-.105-.199-.105-.246 0-.187.176-.28.527-.28.164.023.446.081.844.175.398.094.773.234 1.125.422.352.187.527.422.527.703l-.105 11.496 12.094-1.934a7.513 7.513 0 0 0 2.355-.773c.235-.117.434-.176.598-.176.21 0 .504.094.879.281.375.188.703.422.984.704.281.257.422.504.422.738 0 .328-.293.539-.879.633l-16.488 2.707-.07 6.504Zm79.348-8.368c-.141 0-.328-.152-.562-.457-.235-.328-.34-.609-.317-.843.047-.188.082-.715.106-1.582.023-.586.035-1.618.035-3.094 0-1.031-.012-1.723-.035-2.074l-1.161.105a15.24 15.24 0 0 1-2.109.176c-.164 0-.398-.129-.703-.387-.305-.258-.457-.445-.457-.562 0-.188.199-.258.598-.211.257.023 1.019.011 2.285-.035a114.49 114.49 0 0 1 3.761-.211c.399-.024.762-.059 1.09-.106.352-.07.598-.117.739-.14.211-.024.398 0 .562.07.164.07.316.164.457.281.164.094.293.164.387.211.211.14.316.27.316.387 0 .094-.058.187-.176.281a.512.512 0 0 1-.316.105c-.117 0-.281-.011-.492-.035a5.16 5.16 0 0 0-.633-.035c-.867 0-1.758.024-2.672.07-.023.188-.035.657-.035 1.407-.047 1.265-.07 2.508-.07 3.726v1.688c0 .398-.035.656-.106.773-.211.328-.375.492-.492.492Zm-3.762 8.332c-.257 0-.574-.199-.949-.597-.281-.281-.422-.492-.422-.633 0-.07.047-.105.141-.105.094-.024.211-.036.351-.036l.774-.035c.445 0 .738-.012.879-.035.445 0 .82-.012 1.125-.035 2.015-.188 3.375-.34 4.078-.457a29.8 29.8 0 0 0 .949-.14c.281-.071.504-.106.668-.106.328 0 .656.164.984.492.258.258.387.469.387.633 0 .14-.082.234-.246.281-.117.023-.809.07-2.074.14-.703.024-1.57.083-2.602.176a92.491 92.491 0 0 0-2.707.282c-.14.023-.34.058-.597.105-.258.047-.504.07-.739.07Zm10.231-8.859c.117 0 .293.082.527.246-.023.047.024.14.141.281l.246.247c.117.117.234.257.351.421.141.165.293.34.457.528.422.445 1.395 1.605 2.918 3.48.258.375.387.598.387.668 0 .235-.14.352-.422.352-.164 0-.34-.117-.527-.352-.445-.469-1.242-1.207-2.391-2.215-.89-.82-1.699-1.453-2.425-1.898-.352-.164-.528-.352-.528-.563 0-.164.176-.398.528-.703.328-.328.574-.492.738-.492Zm-31.606-5.168a43.67 43.67 0 0 1-4.57 5.203c-1.641 1.617-3.129 2.918-4.465 3.903-1.312.96-2.144 1.441-2.496 1.441-.164 0-.246-.082-.246-.246 0-.211.188-.504.562-.879 2.883-2.672 5.274-5.238 7.172-7.7 1.899-2.484 3.293-4.605 4.184-6.363.891-1.757 1.336-2.953 1.336-3.585l-.035-.387V3.7c0-.305.129-.458.386-.458.399 0 .903.2 1.512.598.633.398.949.773.949 1.125 0 .281-.293.973-.878 2.074a34.72 34.72 0 0 1-1.829 3.164l9.95-.633a5.31 5.31 0 0 1 .703-.035c.492 0 .949.14 1.371.422.422.258.633.563.633.914 0 .188-.059.387-.176.598-.117.187-.199.316-.246.386-2.672 5.532-6.117 10.266-10.336 14.204-4.219 3.914-9.211 6.96-14.977 9.14-.351.117-.597.176-.738.176-.305 0-.457-.094-.457-.281 0-.258.269-.528.809-.809 2.742-1.43 5.285-3 7.628-4.71 2.344-1.735 4.641-3.716 6.891-5.942a60.501 60.501 0 0 0-5.168-4.852c-.258-.21-.387-.422-.387-.633 0-.234.141-.527.422-.878.281-.352.539-.528.774-.528.492 0 2.484 1.676 5.976 5.027 2.836-3.257 5.016-6.585 6.539-9.984l-10.793.668Zm75.375 1.723c-.257 0-.574-.2-.949-.598-.281-.281-.422-.492-.422-.633 0-.07.047-.105.141-.105.094-.024.211-.035.351-.035l.774-.035c.445 0 .738-.012.879-.036.445 0 .82-.011 1.125-.035 2.015-.187 3.375-.34 4.078-.457.351-.047.668-.094.949-.14.281-.07.504-.106.668-.106.328 0 .656.164.984.492.258.258.387.469.387.633 0 .14-.082.234-.246.281-.117.024-.809.07-2.074.141-.703.023-1.57.082-2.602.176a92.523 92.523 0 0 0-2.707.281c-.14.023-.34.059-.597.105-.258.047-.504.07-.739.07Zm8.262 15.96c-.023.024-.082.036-.176.036-.187 0-.457-.129-.808-.387a93.877 93.877 0 0 0-3.129-2.953c-.61.61-1.184 1.137-1.723 1.582-.187.14-.516.352-.984.633-.68.398-1.336.644-1.969.738h-.211c-.211 0-.34-.023-.387-.07-.023-.024.024-.07.141-.14a3.03 3.03 0 0 0 .316-.177c.141-.07.539-.328 1.196-.773.328-.234.797-.633 1.406-1.195.609-.563 1.055-1.02 1.336-1.371l-1.442-1.125a44.357 44.357 0 0 0-.843-.598 5.944 5.944 0 0 0-.598-.457l-.035-.106c0-.14.117-.21.351-.21.282 0 .739.175 1.372.527l1.793 1.16c.398-.516.796-1.078 1.195-1.688.422-.632.644-1.007.668-1.125.023-.07.012-.128-.035-.175-.024-.07-.071-.106-.141-.106h-.703l-1.266.106c-.633.047-1.265.129-1.898.246-.07.023-.188.058-.352.105a1.57 1.57 0 0 1-.422.07c-.046 0-.246-.128-.597-.386-.328-.281-.504-.457-.528-.527-.023-.024-.035-.06-.035-.106 0-.117.129-.164.387-.14h.492c.656 0 1.606-.06 2.848-.176l1.195-.106 1.09-.14c.352-.094.551-.141.598-.141h.07c.117 0 .223.035.316.105.094.07.164.141.211.211.047.07.082.117.106.141.023.023.093.094.211.21.117.095.187.188.211.282.047.07.07.152.07.246 0 .211-.082.364-.246.457-.117.047-.328.293-.633.739-.516.82-1.137 1.699-1.863 2.636.398.258.914.633 1.547 1.125.281.188.738.504 1.371.95.281.21.492.492.633.843.093.375.14.657.14.844-.023.188-.105.316-.246.387Zm6.469-15.327c.281 0 .422.129.422.386 0 .14-.129.34-.387.598-.703.867-2.098 2.52-4.184 4.957-.164.21-.316.316-.457.316-.117 0-.375-.175-.773-.527-.328-.281-.492-.516-.492-.703 0-.211.176-.41.527-.598.539-.304 1.348-.914 2.426-1.828 1.078-.96 1.875-1.723 2.39-2.285.211-.21.387-.316.528-.316Zm-20.531 20.214c-2.696 0-5.954-.316-9.774-.949a292.329 292.329 0 0 1-12.199-2.32c-1.359-.281-2.449-.422-3.27-.422-1.148 0-2.355.211-3.621.633-.211.07-.398.105-.562.105-.586 0-.879-.504-.879-1.511 0-.188.058-.329.176-.422.117-.117.351-.211.703-.282.351-.093.914-.199 1.687-.316 1.594-1.453 2.953-2.883 4.078-4.289a.624.624 0 0 0 .071-.176c0-.14-.258-.41-.774-.808a18.774 18.774 0 0 0-1.793-1.336c-.609-.399-.914-.856-.914-1.371 0-.399.199-.903.598-1.512l2.25-3.27-3.234.422-.739.07c-.492 0-.902-.187-1.23-.562-.328-.375-.539-.75-.633-1.125a.496.496 0 0 1-.035-.21c0-.165.07-.247.211-.247l.211.035c.351.07.703.106 1.054.106.235 0 .411-.012.528-.036l5.238-.562.352-.035c.07 0 .222.058.457.176.234.093.445.234.632.421.188.165.282.352.282.563 0 .21-.094.41-.282.598-.187.164-.304.28-.351.351-.047.07-.598.797-1.652 2.18-1.055 1.36-1.583 2.133-1.583 2.32 0 .094.059.176.176.246.774.492 1.676 1.219 2.707 2.18.446.398.668.867.668 1.406 0 .492-.211.973-.633 1.442-1.382 1.476-2.308 2.437-2.777 2.882.891.024 1.957.153 3.199.387 10.032 1.992 17.59 2.988 22.676 2.988h.176c.539 0 .808.106.808.317 0 .07-.082.27-.246.597-.14.329-.339.633-.597.915-.258.28-.563.421-.914.421h-.246ZM178.691 6.547c0-.188.153-.399.457-.633.305-.234.551-.351.739-.351.234 0 .785.41 1.652 1.23.891.82 1.723 1.7 2.496 2.637.797.914 1.195 1.488 1.195 1.722 0 .235-.164.516-.492.844-.304.328-.609.492-.914.492-.281 0-.562-.222-.844-.668a32.225 32.225 0 0 0-3.867-4.57c-.281-.281-.422-.516-.422-.703Zm6.153 22.113c0-.281.152-.644.457-1.09a24.098 24.098 0 0 0 2.883-6.925c.632-2.508 1.019-5.403 1.16-8.684l-1.231.105a5.831 5.831 0 0 1-.703.036c-.398 0-.703-.082-.914-.247-.328-.351-.562-.796-.703-1.335a.397.397 0 0 1-.035-.176c0-.094.058-.14.176-.14h.07c.187 0 .445.023.773.07.328.046.586.07.774.07h.316l5.098-.352c.422-.023.902-.14 1.441-.351.071-.047.188-.07.352-.07.304 0 .668.175 1.09.527.445.351.668.632.668.843 0 .118-.071.223-.211.317a1.227 1.227 0 0 1-.563.176l-4.359.386c-.094 1.313-.188 2.285-.281 2.918l2.671-.14h.282c.375 0 .679.082.914.246.398.351.597.668.597.949a1.5 1.5 0 0 1-.07.387 3.601 3.601 0 0 0-.105.492c-.141 3.656-.469 7.02-.985 10.09-.211 1.195-.562 2.004-1.054 2.425-.493.422-.903.633-1.231.633-.68 0-1.652-1.02-2.918-3.058-.211-.328-.316-.575-.316-.739 0-.164.082-.246.246-.246.164 0 .41.13.738.387.703.563 1.313.961 1.828 1.195.024.024.071.035.141.035.14 0 .234-.058.281-.175.422-1.617.715-3.282.879-4.992a89.18 89.18 0 0 0 .422-5.836l-2.531.105c-.329 2.508-.868 4.7-1.618 6.574-.726 1.852-1.793 3.575-3.199 5.168-.445.469-.773.703-.984.703-.164 0-.246-.093-.246-.28Zm3.551-23.484c0-.211.105-.434.316-.668.234-.258.457-.387.668-.387.187 0 .68.27 1.476.809a21.048 21.048 0 0 1 2.286 1.652c.703.586 1.054.996 1.054 1.23 0 .188-.129.458-.386.81-.258.327-.516.491-.774.491a.715.715 0 0 1-.387-.14 3.005 3.005 0 0 0-.316-.282 1.997 1.997 0 0 0-.176-.21 12.213 12.213 0 0 0-1.301-1.196 12.718 12.718 0 0 0-1.23-.914 21.577 21.577 0 0 0-.773-.562c-.305-.235-.457-.446-.457-.633Zm7.312 9.14c0-.164.094-.457.281-.879a26.26 26.26 0 0 0 1.617-3.726c.469-1.313.821-2.461 1.055-3.445.258-1.008.387-1.606.387-1.793 0-.258-.047-.493-.141-.703a.497.497 0 0 1-.035-.211c0-.188.106-.282.317-.282.164 0 .421.059.773.176.351.117.656.281.914.492.281.211.422.446.422.703a.497.497 0 0 1-.035.211 37.122 37.122 0 0 1-1.231 3.446l4.078-.422c.071 0 .235-.012.493-.035.257-.024.55-.094.878-.211.141-.047.235-.07.282-.07.281 0 .621.175 1.019.527.399.351.598.633.598.844 0 .304-.211.48-.633.527l-7.488.562a40.905 40.905 0 0 1-1.301 2.286c-.023.023-.012.035.035.035a.313.313 0 0 1 .141-.036h.105a3 3 0 0 0 .95.141l.527-.035 4.676-.387h.211c.21 0 .503.082.878.246.399.164.598.387.598.668 0 .235-.105.457-.316.668-.188.188-.293.305-.317.352a21.73 21.73 0 0 1-3.093 3.691c.304.703.539 1.453.703 2.25l1.652-.105a6.288 6.288 0 0 0 1.547-.246c.141-.047.223-.07.246-.07.234 0 .551.163.949.492.399.304.598.597.598.878 0 .305-.235.48-.703.528l-4.008.246c.211 1.289.316 2.672.316 4.148 0 1.899-.199 3.27-.597 4.114-.375.843-.879 1.265-1.512 1.265-.422 0-.949-.258-1.582-.773a11.12 11.12 0 0 1-1.688-1.793c-.492-.656-.738-1.113-.738-1.371 0-.14.07-.211.211-.211.211 0 .527.14.949.422 1.266.843 2.028 1.265 2.285 1.265.211 0 .329-.105.352-.316.234-1.172.352-2.414.352-3.727 0-1.03-.071-2.004-.211-2.918l-2.743.176-.597.035c-.656 0-1.137-.164-1.442-.492a2.833 2.833 0 0 1-.562-1.125l-.035-.14c0-.118.07-.176.211-.176l.175.035c.516.117.997.176 1.442.176h.316l2.848-.211a12.923 12.923 0 0 0-1.266-3.024.832.832 0 0 1-.105-.351c0-.188.152-.375.457-.563.328-.21.598-.316.808-.316.235 0 .434.14.598.422.727-.82 1.324-1.64 1.793-2.461l-3.094.351-.843.07a1.51 1.51 0 0 1-.914-.28c-.235-.188-.446-.598-.633-1.231a.482.482 0 0 1-.035-.211 11.96 11.96 0 0 1-1.09 1.547c-.375.422-.657.633-.844.633-.141 0-.211-.094-.211-.282Zm74.707 3.832c-.141 0-.328-.152-.562-.457-.235-.328-.34-.609-.317-.843.047-.188.082-.715.106-1.582.023-.586.035-1.618.035-3.094 0-1.031-.012-1.723-.035-2.074l-1.161.105a15.24 15.24 0 0 1-2.109.176c-.164 0-.398-.129-.703-.387-.305-.258-.457-.445-.457-.562 0-.188.199-.258.598-.211.257.023 1.019.011 2.285-.035a114.49 114.49 0 0 1 3.761-.211c.399-.024.762-.059 1.09-.106.352-.07.598-.117.739-.14.211-.024.398 0 .562.07.164.07.316.164.457.281.164.094.293.164.387.211.211.14.316.27.316.387 0 .094-.058.187-.176.281a.512.512 0 0 1-.316.105c-.117 0-.281-.011-.492-.035a5.16 5.16 0 0 0-.633-.035c-.867 0-1.758.024-2.672.07-.023.188-.035.657-.035 1.407-.047 1.265-.07 2.508-.07 3.726v1.688c0 .398-.035.656-.106.773-.211.328-.375.492-.492.492Zm-3.762 8.332c-.257 0-.574-.199-.949-.597-.281-.281-.422-.492-.422-.633 0-.07.047-.105.141-.105.094-.024.211-.036.351-.036l.774-.035c.445 0 .738-.012.879-.035.445 0 .82-.012 1.125-.035 2.015-.188 3.375-.34 4.078-.457a29.8 29.8 0 0 0 .949-.14c.281-.071.504-.106.668-.106.328 0 .656.164.984.492.258.258.387.469.387.633 0 .14-.082.234-.246.281-.117.023-.809.07-2.074.14-.703.024-1.57.083-2.602.176a92.491 92.491 0 0 0-2.707.282c-.14.023-.34.058-.597.105-.258.047-.504.07-.739.07Zm10.231-8.859c.117 0 .293.082.527.246-.023.047.024.14.141.281l.246.247c.117.117.234.257.351.421.141.165.293.34.457.528.422.445 1.395 1.605 2.918 3.48.258.375.387.598.387.668 0 .235-.14.352-.422.352-.164 0-.34-.117-.527-.352-.445-.469-1.242-1.207-2.391-2.215-.89-.82-1.699-1.453-2.425-1.898-.352-.164-.528-.352-.528-.563 0-.164.176-.398.528-.703.328-.328.574-.492.738-.492Zm-35.613-3.023c0 .351.128.62.386.808.282.188.821.281 1.617.281.915 0 1.653-.07 2.215-.21.563-.141.938-.282 1.125-.422a.502.502 0 0 1 .282-.07c.234 0 .492.187.773.562.281.351.422.633.422.844 0 .234-.223.386-.668.457-2.063.234-3.586.351-4.57.351-1.336 0-2.25-.152-2.743-.457-.492-.305-.738-.879-.738-1.723v-.21l.035-.598-.949.105c-.211.024-.48.036-.809.036-.632 0-1.066-.188-1.3-.563-.235-.375-.352-.668-.352-.879 0-.094.059-.14.176-.14l.176.035c.328.07.668.105 1.019.105.305 0 .539-.012.703-.035l1.407-.14.105-1.829-3.727.211c-.023.375-.035.938-.035 1.688-.023.492-.07 1.652-.14 3.48a64.452 64.452 0 0 1-.282 4.817c-.21 2.343-.644 4.511-1.3 6.503-.657 1.97-1.348 3.54-2.075 4.711-.703 1.196-1.218 1.793-1.546 1.793-.188 0-.282-.14-.282-.422 0-.304.094-.644.282-1.019 1.242-2.625 2.062-5.531 2.461-8.719.398-3.21.632-6.972.703-11.285v-.879c0-1.031-.118-1.863-.352-2.496-.094-.281-.141-.457-.141-.527 0-.14.071-.211.211-.211.329 0 1.219.363 2.672 1.09l3.657-.246.07-4.043c0-.375-.047-.692-.141-.95a3.129 3.129 0 0 0-.387-.879l-.07-.175c0-.118.117-.176.352-.176.656.023 1.207.14 1.652.351.445.188.668.47.668.844l-.035 1.653 2.18-.141a4.24 4.24 0 0 0 1.582-.352c.187-.07.363-.105.527-.105.305 0 .668.164 1.09.492.445.328.668.621.668.879s-.317.41-.949.457l-5.133.316v1.688l6.293-.457h.351c.375 0 .727.14 1.055.422.351.258.527.504.527.738 0 .164-.105.352-.316.563a5.101 5.101 0 0 0-.422.457c-1.266 1.921-2.145 2.882-2.637 2.882-.164 0-.246-.105-.246-.316 0-.188.094-.492.281-.914.211-.445.446-1.172.704-2.18l-5.836.352-.141 1.722 1.23-.105c.704-.094 1.266-.2 1.688-.316a.91.91 0 0 1 .281-.036c.071 0 .223.059.457.176.235.094.446.235.633.422.188.164.281.34.281.527a.44.44 0 0 1-.14.317.524.524 0 0 1-.387.14l-4.148.387v.563Zm-7.7 17.472c0-.164.094-.246.282-.246.093 0 .164.012.21.035.376.094.774.141 1.196.141.304 0 1.078-.094 2.32-.281 1.266-.188 2.813-.457 4.641-.809.351-.422.738-.996 1.16-1.723.445-.75.668-1.382.668-1.898v-.176c0-.234.082-.351.246-.351.258 0 .621.187 1.09.562.492.375.738.703.738.985 0 .117-.199.421-.598.914-.375.468-.714.855-1.019 1.16a63.896 63.896 0 0 0 4.184-1.09c.14-.047.316-.07.527-.07.164 0 .281.035.351.105.094.047.141.117.141.211 0 .258-.281.504-.844.738a69.983 69.983 0 0 1-6.293 2.075c-1.968.562-3.586.972-4.851 1.23-1.266.258-1.981.387-2.145.387-.351 0-.679-.13-.984-.387a2.81 2.81 0 0 1-.738-.844c-.188-.304-.282-.527-.282-.668Zm2.532-13.43c0-.093.058-.14.175-.14h.141c.398.094.855.14 1.371.14h.492l6.504-.245a5.784 5.784 0 0 0 1.723-.352.603.603 0 0 1 .246-.035c.281 0 .656.234 1.125.703.281.305.422.55.422.738 0 .211-.199.34-.598.387l-8.859.352-.774.035c-.515 0-.925-.106-1.23-.317-.281-.21-.516-.574-.703-1.09a.384.384 0 0 1-.035-.175Zm.492 2.848c0-.14.105-.21.316-.21.235 0 .914.175 2.039.527l6.996-.387.387-.035c.234 0 .434.07.598.21.445.305.668.575.668.81a.712.712 0 0 1-.141.386c-.07.117-.117.211-.141.281l-.597 1.864c.609.585.914.984.914 1.195 0 .117-.071.2-.211.246a2.187 2.187 0 0 1-.422.035l-7.559.317v.07a.653.653 0 0 1-.14.422.524.524 0 0 1-.387.14c-.305 0-.644-.105-1.019-.316-.352-.211-.528-.445-.528-.703v-.07c.024-.188.035-.457.035-.81 0-.28-.011-.491-.035-.632l-.211-1.441a4.352 4.352 0 0 0-.422-1.442c-.093-.234-.14-.386-.14-.457Zm1.722 6.961c0-.21.118-.422.352-.633.234-.21.457-.316.668-.316.422 0 1.125.727 2.109 2.18.094.187.141.316.141.386 0 .235-.176.48-.527.739-.258.187-.493.28-.704.28-.21 0-.41-.163-.597-.491-.399-.657-.82-1.23-1.266-1.723-.117-.164-.176-.305-.176-.422Zm.95-3.27 5.519-.21.492-1.969-6.222.281.211 1.899Zm8.543 8.157c0-.258.222-.574.668-.95 2.367-1.992 4.335-4.066 5.906-6.222-.68-2.297-1.254-4.934-1.723-7.91l-.211-2.004-1.441.21c-.375.048-.645.071-.809.071-.398 0-.738-.105-1.019-.316a2.09 2.09 0 0 1-.633-.738c-.141-.282-.211-.48-.211-.598 0-.117.07-.176.211-.176l.141.035c.187.047.457.07.808.07.281 0 .504-.011.668-.035l2.039-.316c-.305-2.602-.539-5.543-.703-8.824-.047-.703-.223-1.242-.527-1.617-.094-.118-.141-.223-.141-.317 0-.14.129-.21.387-.21.398 0 .879.116 1.441.35.586.235.879.54.879.915.117 3.14.352 6.27.703 9.387l3.797-.563c.492-.07.891-.21 1.195-.422.047-.047.129-.07.246-.07.282 0 .668.187 1.161.562.492.375.738.668.738.88 0 .257-.27.421-.809.492l-6.117.914.211 2.039c.352 2.343.75 4.347 1.195 6.011a29.338 29.338 0 0 0 1.758-3.55c.563-1.36.844-2.356.844-2.989 0-.258.094-.386.281-.386.305 0 .715.21 1.231.632.539.422.808.774.808 1.055 0 .07-.011.129-.035.176l-.07.14c-1.289 2.813-2.672 5.227-4.149 7.243 1.102 3.164 2.379 5.203 3.832 6.117l.176.07c.117 0 .317-.445.598-1.336.305-.914.621-2.18.949-3.797.094-.445.199-.785.316-1.02.141-.233.27-.35.387-.35.117 0 .211.128.281.386.094.234.141.563.141.984v.211a29.319 29.319 0 0 1-.211 2.989c-.094.914-.293 1.992-.598 3.234-.117.492-.281.832-.492 1.02-.187.187-.445.28-.773.28-.211 0-.457-.034-.738-.105-.727-.164-1.583-.773-2.567-1.828-.984-1.031-1.91-2.707-2.777-5.027a32.515 32.515 0 0 1-2.883 2.812c-.984.82-1.852 1.465-2.602 1.934-.726.469-1.207.703-1.441.703-.211 0-.316-.082-.316-.246ZM254.84 7.39c0-.164.117-.364.351-.598.235-.234.481-.352.739-.352.187 0 .351.094.492.282.656.68 1.336 1.453 2.039 2.32.727.867 1.09 1.43 1.09 1.688 0 .187-.153.421-.457.703-.305.28-.574.421-.809.421-.187 0-.363-.105-.527-.316-.703-1.172-1.617-2.402-2.742-3.691-.118-.164-.176-.317-.176-.457Z"/></svg>