<svg width="350" height="88" viewBox="0 0 350 88" fill="none" xmlns="http://www.w3.org/2000/svg">
<path d="M164.91 18.5C164.559 18.5 164.254 18.3711 163.996 18.1133C163.223 17.2695 162.438 16.5078 161.641 15.8281C160.75 15.0781 159.965 14.5156 159.285 14.1406C158.957 13.9531 158.793 13.6602 158.793 13.2617C158.793 13.1914 158.875 13.0977 159.039 12.9805C159.25 12.8398 159.59 12.5352 160.059 12.0664L161.324 10.8359C161.887 10.25 162.355 9.72266 162.73 9.25391C163.129 8.78516 163.352 8.45703 163.398 8.26953C163.422 8.22266 163.445 8.12891 163.469 7.98828C163.516 7.82422 163.586 7.74219 163.68 7.74219C163.797 7.74219 163.949 7.80078 164.137 7.91797C164.348 8.03516 164.523 8.15234 164.664 8.26953C165.016 8.59766 165.191 8.87891 165.191 9.11328C165.168 9.18359 165.074 9.26563 164.91 9.35938C164.77 9.42969 164.641 9.5 164.523 9.57031C164.406 9.66406 163.984 10.0391 163.258 10.6953L160.973 12.6641C160.574 12.9922 160.375 13.25 160.375 13.4375C160.375 13.5312 160.562 13.6836 160.938 13.8945C161.383 14.1758 162.25 14.75 163.539 15.6172C164.031 15.9453 164.5 16.3086 164.945 16.707C165.32 17.082 165.508 17.4688 165.508 17.8672C165.508 18.0547 165.426 18.2188 165.262 18.3594C165.168 18.4531 165.051 18.5 164.91 18.5ZM158.652 26.4805C158.395 26.4805 158.078 26.2812 157.703 25.8828C157.422 25.6016 157.281 25.3906 157.281 25.25C157.281 25.1797 157.328 25.1445 157.422 25.1445C157.516 25.1211 157.633 25.1094 157.773 25.1094L158.547 25.0742C158.992 25.0742 159.285 25.0625 159.426 25.0391C159.871 25.0391 160.246 25.0273 160.551 25.0039C162.566 24.8164 163.926 24.6641 164.629 24.5469C164.98 24.5 165.297 24.4531 165.578 24.4062C165.859 24.3359 166.082 24.3008 166.246 24.3008C166.574 24.3008 166.902 24.4648 167.23 24.793C167.488 25.0508 167.617 25.2617 167.617 25.4258C167.617 25.5664 167.535 25.6602 167.371 25.707C167.254 25.7305 166.562 25.7773 165.297 25.8477C164.594 25.8711 163.727 25.9297 162.695 26.0234C161.664 26.1172 160.762 26.2109 159.988 26.3047C159.848 26.3281 159.648 26.3633 159.391 26.4102C159.133 26.457 158.887 26.4805 158.652 26.4805ZM137.066 26.5156V26.9375C137.066 28.2031 137.207 29.1289 137.488 29.7148C137.77 30.2773 138.309 30.6641 139.105 30.875C139.926 31.0625 141.25 31.1562 143.078 31.1562C144.859 31.1562 146.488 31.0508 147.965 30.8398C149.441 30.6055 150.531 30.3242 151.234 29.9961C151.375 29.9258 151.516 29.8906 151.656 29.8906C151.797 29.8906 152.066 30.0078 152.465 30.2422C152.863 30.4531 153.215 30.7109 153.52 31.0156C153.848 31.2969 154.012 31.5312 154.012 31.7188C154.012 31.9062 153.918 32.0586 153.73 32.1758C153.543 32.3164 153.273 32.4102 152.922 32.457C149.219 33.0664 145.715 33.3711 142.41 33.3711C140.16 33.3711 138.496 33.1953 137.418 32.8438C136.34 32.5156 135.602 31.9297 135.203 31.0859C134.828 30.2188 134.641 28.9062 134.641 27.1484V26.9023L134.711 20.3984L126.625 21.7344C125.688 21.8984 125.102 21.9805 124.867 21.9805C124.469 21.9805 124.094 21.8164 123.742 21.4883C123.391 21.1367 123.109 20.7852 122.898 20.4336C122.805 20.3164 122.758 20.1992 122.758 20.082C122.758 19.8945 122.887 19.8008 123.145 19.8008H123.215C123.379 19.8242 123.613 19.8359 123.918 19.8359C124.48 19.8359 125.078 19.7773 125.711 19.6602L134.746 18.2188L134.852 7.39062C134.852 6.71094 134.688 6.10156 134.359 5.5625C134.289 5.44531 134.254 5.36328 134.254 5.31641C134.254 5.12891 134.43 5.03516 134.781 5.03516C134.945 5.05859 135.227 5.11719 135.625 5.21094C136.023 5.30469 136.398 5.44531 136.75 5.63281C137.102 5.82031 137.277 6.05469 137.277 6.33594L137.172 17.832L149.266 15.8984C150.062 15.7812 150.848 15.5234 151.621 15.125C151.855 15.0078 152.055 14.9492 152.219 14.9492C152.43 14.9492 152.723 15.043 153.098 15.2305C153.473 15.418 153.801 15.6523 154.082 15.9336C154.363 16.1914 154.504 16.4375 154.504 16.6719C154.504 17 154.211 17.2109 153.625 17.3047L137.137 20.0117L137.066 26.5156ZM216.414 18.1484C216.273 18.1484 216.086 17.9961 215.852 17.6914C215.617 17.3633 215.512 17.082 215.535 16.8477C215.582 16.6602 215.617 16.1328 215.641 15.2656C215.664 14.6797 215.676 13.6484 215.676 12.1719C215.676 11.1406 215.664 10.4492 215.641 10.0977L214.48 10.2031C213.66 10.3203 212.957 10.3789 212.371 10.3789C212.207 10.3789 211.973 10.25 211.668 9.99219C211.363 9.73437 211.211 9.54688 211.211 9.42969C211.211 9.24219 211.41 9.17187 211.809 9.21875C212.066 9.24219 212.828 9.23047 214.094 9.18359C215.828 9.06641 217.082 8.99609 217.855 8.97266C218.254 8.94922 218.617 8.91406 218.945 8.86719C219.297 8.79688 219.543 8.75 219.684 8.72656C219.895 8.70313 220.082 8.72656 220.246 8.79688C220.41 8.86719 220.562 8.96094 220.703 9.07812C220.867 9.17187 220.996 9.24219 221.09 9.28906C221.301 9.42969 221.406 9.55859 221.406 9.67578C221.406 9.76953 221.348 9.86328 221.23 9.95703C221.137 10.0273 221.031 10.0625 220.914 10.0625C220.797 10.0625 220.633 10.0508 220.422 10.0273C220.234 10.0039 220.023 9.99219 219.789 9.99219C218.922 9.99219 218.031 10.0156 217.117 10.0625C217.094 10.25 217.082 10.7187 217.082 11.4688C217.035 12.7344 217.012 13.9766 217.012 15.1953V16.5664V16.8828C217.012 17.2812 216.977 17.5391 216.906 17.6562C216.695 17.9844 216.531 18.1484 216.414 18.1484ZM212.652 26.4805C212.395 26.4805 212.078 26.2812 211.703 25.8828C211.422 25.6016 211.281 25.3906 211.281 25.25C211.281 25.1797 211.328 25.1445 211.422 25.1445C211.516 25.1211 211.633 25.1094 211.773 25.1094L212.547 25.0742C212.992 25.0742 213.285 25.0625 213.426 25.0391C213.871 25.0391 214.246 25.0273 214.551 25.0039C216.566 24.8164 217.926 24.6641 218.629 24.5469C218.98 24.5 219.297 24.4531 219.578 24.4062C219.859 24.3359 220.082 24.3008 220.246 24.3008C220.574 24.3008 220.902 24.4648 221.23 24.793C221.488 25.0508 221.617 25.2617 221.617 25.4258C221.617 25.5664 221.535 25.6602 221.371 25.707C221.254 25.7305 220.562 25.7773 219.297 25.8477C218.594 25.8711 217.727 25.9297 216.695 26.0234C215.664 26.1172 214.762 26.2109 213.988 26.3047C213.848 26.3281 213.648 26.3633 213.391 26.4102C213.133 26.457 212.887 26.4805 212.652 26.4805ZM222.883 17.6211C223 17.6211 223.176 17.7031 223.41 17.8672C223.387 17.9141 223.434 18.0078 223.551 18.1484C223.668 18.2656 223.75 18.3477 223.797 18.3945C223.914 18.5117 224.031 18.6523 224.148 18.8164C224.289 18.9805 224.441 19.1562 224.605 19.3438C225.027 19.7891 226 20.9492 227.523 22.8242C227.781 23.1992 227.91 23.4219 227.91 23.4922C227.91 23.7266 227.77 23.8438 227.488 23.8438C227.324 23.8438 227.148 23.7266 226.961 23.4922C226.516 23.0234 225.719 22.2852 224.57 21.2773C223.68 20.457 222.871 19.8242 222.145 19.3789C221.793 19.2148 221.617 19.0273 221.617 18.8164C221.617 18.6523 221.793 18.418 222.145 18.1133C222.473 17.7852 222.719 17.6211 222.883 17.6211ZM191.277 12.4531C189.895 14.3047 188.371 16.0391 186.707 17.6562C185.066 19.2734 183.578 20.5742 182.242 21.5586C180.93 22.5195 180.098 23 179.746 23C179.582 23 179.5 22.918 179.5 22.7539C179.5 22.543 179.688 22.25 180.062 21.875C182.945 19.2031 185.336 16.6367 187.234 14.1758C189.133 11.6914 190.527 9.57031 191.418 7.8125C192.309 6.05469 192.754 4.85938 192.754 4.22656L192.719 3.83984V3.69922C192.719 3.39453 192.848 3.24219 193.105 3.24219C193.504 3.24219 194.008 3.44141 194.617 3.83984C195.25 4.23828 195.566 4.61328 195.566 4.96484C195.566 5.24609 195.273 5.9375 194.688 7.03906C194.125 8.14063 193.516 9.19531 192.859 10.2031L202.809 9.57031C202.973 9.54688 203.207 9.53516 203.512 9.53516C204.004 9.53516 204.461 9.67578 204.883 9.95703C205.305 10.2148 205.516 10.5195 205.516 10.8711C205.516 11.0586 205.457 11.2578 205.34 11.4688C205.223 11.6563 205.141 11.7852 205.094 11.8555C202.422 17.3867 198.977 22.1211 194.758 26.0586C190.539 29.9727 185.547 33.0195 179.781 35.1992C179.43 35.3164 179.184 35.375 179.043 35.375C178.738 35.375 178.586 35.2812 178.586 35.0938C178.586 34.8359 178.855 34.5664 179.395 34.2852C182.137 32.8555 184.68 31.2852 187.023 29.5742C189.367 27.8398 191.664 25.8594 193.914 23.6328C192.344 21.9688 190.621 20.3516 188.746 18.7812C188.488 18.5703 188.359 18.3594 188.359 18.1484C188.359 17.9141 188.5 17.6211 188.781 17.2695C189.062 16.918 189.32 16.7422 189.555 16.7422C190.047 16.7422 192.039 18.418 195.531 21.7695C198.367 18.5117 200.547 15.1836 202.07 11.7852L191.277 12.4531Z" fill="#333333"/>
<path d="M115.875 71.9688C115.708 71.9688 115.542 71.9375 115.375 71.875C115.208 71.7917 115.083 71.6667 115 71.5C114.938 71.3125 114.802 71.0938 114.594 70.8438C114.406 70.5938 114.219 70.4062 114.031 70.2812L114.156 70.125C114.26 70.1875 114.51 70.3125 114.906 70.5C115.302 70.6875 115.594 70.7812 115.781 70.7812C116.073 70.7812 116.333 70.6771 116.562 70.4688C116.792 70.2604 117.083 69.8646 117.438 69.2812C117.688 68.8854 117.917 68.4167 118.125 67.875C118.333 67.3333 118.49 66.8333 118.594 66.375L118.625 66.3125C118.625 66.25 118.604 66.1979 118.562 66.1562C118.521 66.0938 118.479 66.0625 118.438 66.0625L117 66.1875C116.042 66.3542 115.042 66.4896 114 66.5938C113.812 66.6146 113.594 66.6667 113.344 66.75C113.094 66.8333 112.917 66.875 112.812 66.875C112.646 66.875 112.427 66.7396 112.156 66.4688C112.052 66.3854 111.948 66.2812 111.844 66.1562C111.76 66.0312 111.74 65.9271 111.781 65.8438C111.948 65.6771 112.031 65.5938 112.031 65.5938L112.188 65.4688C112.479 65.1771 112.771 64.7917 113.062 64.3125C113.271 64.0208 113.49 63.5312 113.719 62.8438C113.719 62.6146 113.771 62.5 113.875 62.5C113.938 62.5 114.042 62.5417 114.188 62.625L114.688 62.9375C114.812 63.0417 114.896 63.125 114.938 63.1875C114.979 63.25 115 63.3333 115 63.4375C115 63.5625 114.917 63.7188 114.75 63.9062C114.583 64.0729 114.438 64.2396 114.312 64.4062L113.594 65.4375L113.531 65.5625C113.531 65.625 113.615 65.6562 113.781 65.6562L116.188 65.3438L117.812 65.2188L118.438 65.1562L118.781 65.0938H118.875C119.083 65.0938 119.312 65.2708 119.562 65.625C119.854 65.8958 120 66.125 120 66.3125L119.844 66.7188C119.823 66.7604 119.656 67.25 119.344 68.1875C118.969 69.0833 118.646 69.7604 118.375 70.2188C118.104 70.6771 117.812 71.0312 117.5 71.2812C116.938 71.7396 116.396 71.9688 115.875 71.9688ZM116.469 82.5312C116.469 82.5104 116.521 82.4375 116.625 82.3125C116.75 82.1667 116.885 81.9896 117.031 81.7812C117.281 81.4271 117.531 80.9062 117.781 80.2188C118.031 79.5312 118.167 78.8958 118.188 78.3125C118.188 78.2708 118.167 78.2292 118.125 78.1875C118.104 78.125 118.052 78.0938 117.969 78.0938L117.25 78.1562L116.188 78.25C115.958 79 115.562 79.8125 115 80.6875C114.75 81.0833 114.406 81.4375 113.969 81.75C113.552 82.0417 113.146 82.25 112.75 82.375C112.625 82.4167 112.469 82.4375 112.281 82.4375C112.135 82.4167 112.062 82.375 112.062 82.3125C112.062 82.2292 112.135 82.1562 112.281 82.0938C112.531 81.9271 112.812 81.6667 113.125 81.3125C113.458 80.9583 113.75 80.5938 114 80.2188C114.146 80.0104 114.302 79.7396 114.469 79.4062C114.635 79.0521 114.771 78.7292 114.875 78.4375C114.208 78.5208 113.521 78.6771 112.812 78.9062C112.771 78.9479 112.698 78.9688 112.594 78.9688C112.531 78.9688 112.438 78.9271 112.312 78.8438C112.146 78.6771 112.031 78.5521 111.969 78.4688C111.927 78.3646 111.948 78.2708 112.031 78.1875L112.156 77.9375C112.24 77.8125 112.323 77.5625 112.406 77.1875C112.49 76.8125 112.531 76.5104 112.531 76.2812C112.531 76.2188 112.521 76.1458 112.5 76.0625C112.5 75.9583 112.51 75.9062 112.531 75.9062C112.573 75.8854 112.625 75.8854 112.688 75.9062C112.917 75.9479 113.125 76.0208 113.312 76.125C113.479 76.2292 113.594 76.3438 113.656 76.4688C113.74 76.5729 113.74 76.6667 113.656 76.75C113.635 76.7708 113.604 76.8125 113.562 76.875C113.521 76.9167 113.49 76.9792 113.469 77.0625C113.448 77.0833 113.406 77.3125 113.344 77.75C113.344 77.7708 113.354 77.7917 113.375 77.8125C113.417 77.8333 113.458 77.8333 113.5 77.8125C113.562 77.8125 113.656 77.8021 113.781 77.7812C113.906 77.7604 114 77.7396 114.062 77.7188C114.208 77.6979 114.375 77.6667 114.562 77.625C114.771 77.5833 114.958 77.5521 115.125 77.5312C115.188 77.3021 115.229 77.0521 115.25 76.7812C115.292 76.4896 115.323 76.2917 115.344 76.1875L115.375 75.5312V75.3125C114.708 75.3333 114.01 75.3958 113.281 75.5L112.719 75.5938H112.594C112.49 75.5938 112.385 75.5625 112.281 75.5C112.198 75.4375 112.104 75.3646 112 75.2812C111.729 75.0312 111.594 74.8438 111.594 74.7188C111.594 74.5938 111.688 74.5521 111.875 74.5938C112.125 74.6354 112.385 74.6562 112.656 74.6562L113.562 74.625L117.906 74.3125C118.073 74.2917 118.229 74.2708 118.375 74.25C118.521 74.2083 118.667 74.1771 118.812 74.1562H118.906C119.177 74.1562 119.365 74.2083 119.469 74.3125C119.594 74.3958 119.667 74.4479 119.688 74.4688C120.021 74.7396 120.188 74.9479 120.188 75.0938C120.188 75.2188 120.01 75.2708 119.656 75.25L119.031 75.1875C118.49 75.1667 117.677 75.1875 116.594 75.25L116.469 76.4688C116.448 76.6771 116.427 76.8438 116.406 76.9688C116.385 77.0938 116.365 77.1979 116.344 77.2812L116.312 77.375C116.812 77.3333 117.396 77.2708 118.062 77.1875C118.104 77.1667 118.177 77.1458 118.281 77.125C118.385 77.0833 118.49 77.0521 118.594 77.0312H118.656C118.781 77.0312 118.906 77.0833 119.031 77.1875C119.156 77.2917 119.229 77.3542 119.25 77.375C119.417 77.5208 119.531 77.6458 119.594 77.75C119.677 77.8333 119.688 77.9062 119.625 77.9688C119.583 78.0521 119.531 78.1354 119.469 78.2188C119.427 78.2812 119.396 78.3542 119.375 78.4375C119.271 79.3125 119.104 80.0208 118.875 80.5625C118.688 81.0417 118.479 81.4062 118.25 81.6562C118.042 81.8854 117.781 82.1042 117.469 82.3125C117.344 82.3958 117.146 82.4688 116.875 82.5312C116.604 82.5729 116.469 82.5729 116.469 82.5312ZM121.562 71.2188C121.667 71.2188 121.823 71.2917 122.031 71.4375C122.01 71.4792 122.052 71.5625 122.156 71.6875C122.26 71.7917 122.333 71.8646 122.375 71.9062C122.479 72.0104 122.583 72.1354 122.688 72.2812C122.812 72.4271 122.948 72.5833 123.094 72.75C123.469 73.1458 124.333 74.1771 125.688 75.8438C125.917 76.1771 126.031 76.375 126.031 76.4375C126.031 76.6458 125.906 76.75 125.656 76.75C125.51 76.75 125.354 76.6458 125.188 76.4375C124.792 76.0208 124.083 75.3646 123.062 74.4688C122.271 73.7396 121.552 73.1771 120.906 72.7812C120.594 72.6354 120.438 72.4688 120.438 72.2812C120.438 72.1354 120.594 71.9271 120.906 71.6562C121.198 71.3646 121.417 71.2188 121.562 71.2188ZM88.875 69C88.875 70.5833 88.8438 71.9896 88.7812 73.2188L92.25 72.1875L93.0625 71.9375C93.6667 71.7708 94.0729 71.6875 94.2812 71.6875C94.4896 71.6875 94.5938 71.7396 94.5938 71.8438C94.5938 72.0312 94.1458 72.3438 93.25 72.7812C92.375 73.1979 90.8333 73.8438 88.625 74.7188C88.3333 77.1354 87.6875 79.2083 86.6875 80.9375C85.7083 82.6667 84.1875 84.2917 82.125 85.8125C81.75 86.1042 81.4479 86.25 81.2188 86.25C81.0729 86.25 81 86.1875 81 86.0625C81 85.8333 81.2083 85.5104 81.625 85.0938C83.0208 83.6979 84.1458 82.2396 85 80.7188C85.875 79.1771 86.4479 77.4062 86.7188 75.4062C86.0729 75.6771 85.2604 75.9688 84.2812 76.2812C83.3021 76.5938 82.6562 76.75 82.3438 76.75C82.1562 76.75 82.0208 76.7083 81.9375 76.625C81.7083 76.4583 81.4583 76.2083 81.1875 75.875C80.9375 75.5208 80.8125 75.2083 80.8125 74.9375C80.8125 74.8333 80.8646 74.7812 80.9688 74.7812H81.0625C82.1042 74.7812 84.0417 74.4271 86.875 73.7188C86.9375 72.8021 86.9896 71.2708 87.0312 69.125L84.7188 69.3125C84.5729 69.3333 84.3854 69.3438 84.1562 69.3438C83.6771 69.3438 83.3646 69.2917 83.2188 69.1875C82.9688 69 82.75 68.7604 82.5625 68.4688C82.3958 68.1771 82.3125 67.9271 82.3125 67.7188C82.3125 67.6146 82.3646 67.5625 82.4688 67.5625C82.5521 67.5625 82.6146 67.5729 82.6562 67.5938C83.1562 67.7188 83.5833 67.7812 83.9375 67.7812H84.1562L87.0312 67.5312C87.0312 65.8646 87.0208 64.6562 87 63.9062C86.1667 64.1354 85.2812 64.3542 84.3438 64.5625C83.4062 64.75 82.7396 64.8438 82.3438 64.8438C81.9062 64.8438 81.6875 64.7604 81.6875 64.5938C81.6875 64.4896 81.7917 64.375 82 64.25C82.2083 64.1042 82.5 63.9792 82.875 63.875C84.2292 63.4583 85.5 62.9896 86.6875 62.4688C87.8958 61.9479 89.1667 61.3333 90.5 60.625C90.7917 60.4583 91.1042 60.1354 91.4375 59.6562C91.5208 59.5104 91.6354 59.4375 91.7812 59.4375C92.0938 59.4375 92.4167 59.6458 92.75 60.0625C93.1042 60.4792 93.2812 60.8542 93.2812 61.1875C93.2812 61.4375 93.1771 61.6042 92.9688 61.6875C91.3646 62.4167 89.9896 62.9688 88.8438 63.3438L88.875 67.375L90.7812 67.2188C90.8438 67.2188 90.9896 67.2083 91.2188 67.1875C91.4479 67.1667 91.6667 67.125 91.875 67.0625C91.9167 67.0417 91.9896 67.0312 92.0938 67.0312C92.3438 67.0312 92.6562 67.1979 93.0312 67.5312C93.4062 67.8646 93.5938 68.125 93.5938 68.3125C93.5938 68.5208 93.3646 68.6458 92.9062 68.6875L88.875 69ZM92.0938 75.0312C92.0938 74.9271 92.1354 74.875 92.2188 74.875C92.3021 74.875 92.3646 74.8854 92.4062 74.9062C92.9479 75.0312 93.3958 75.0938 93.75 75.0938H93.9688L99.6875 74.8125V71.375L97.3438 71.5312C97.1354 71.5521 96.8646 71.5625 96.5312 71.5625C96.1979 71.5625 95.9479 71.5208 95.7812 71.4375C95.3646 71.0833 95.0833 70.6562 94.9375 70.1562C94.875 70.0312 94.8438 69.9271 94.8438 69.8438C94.8438 69.7396 94.8854 69.6875 94.9688 69.6875C94.9896 69.6875 95.0625 69.7083 95.1875 69.75C95.6042 69.8542 96.0312 69.9062 96.4688 69.9062H96.75L99.6875 69.7188V66.8438L97.2812 67C97.0729 67.0208 96.8021 67.0312 96.4688 67.0312C96.0729 67.0312 95.8333 66.9896 95.75 66.9062C95.5 66.6979 95.2812 66.4479 95.0938 66.1562C94.9062 65.8438 94.8125 65.5625 94.8125 65.3125C94.8125 65.2083 94.8542 65.1562 94.9375 65.1562L95.125 65.2188C95.5417 65.3229 95.9688 65.375 96.4062 65.375H96.6875L99.6875 65.1875V62.7188L96.375 62.9375C96.1667 62.9583 95.9062 62.9688 95.5938 62.9688C95.1771 62.9688 94.9167 62.9167 94.8125 62.8125C94.3958 62.4583 94.1042 62.0417 93.9375 61.5625C93.875 61.4375 93.8438 61.3333 93.8438 61.25C93.8438 61.1458 93.8958 61.0938 94 61.0938C94.0833 61.0938 94.1458 61.1042 94.1875 61.125C94.7292 61.25 95.1771 61.3125 95.5312 61.3125H95.75L104.781 60.6562C104.865 60.6562 105.021 60.6458 105.25 60.625C105.479 60.6042 105.708 60.5625 105.938 60.5C105.979 60.4792 106.052 60.4688 106.156 60.4688C106.448 60.4688 106.781 60.6562 107.156 61.0312C107.531 61.3854 107.719 61.6562 107.719 61.8438C107.719 62.0521 107.49 62.1771 107.031 62.2188L101.594 62.5938V65.0625L104.062 64.9062C104.542 64.8646 104.927 64.8021 105.219 64.7188C105.26 64.6979 105.323 64.6875 105.406 64.6875C105.635 64.6875 105.958 64.8646 106.375 65.2188C106.792 65.5729 107 65.8646 107 66.0938C107 66.3021 106.771 66.4271 106.312 66.4688L101.594 66.75V69.5938L104.156 69.4062C104.635 69.3646 105.021 69.3021 105.312 69.2188C105.354 69.1979 105.417 69.1875 105.5 69.1875C105.75 69.1875 106.073 69.3646 106.469 69.7188C106.885 70.0729 107.094 70.3646 107.094 70.5938C107.094 70.8021 106.854 70.9271 106.375 70.9688L101.594 71.2812V74.75L106.688 74.5C107.188 74.4583 107.583 74.3958 107.875 74.3125L108.062 74.2812C108.312 74.2812 108.635 74.4792 109.031 74.875C109.427 75.2708 109.625 75.5625 109.625 75.75C109.625 75.9583 109.396 76.0833 108.938 76.125L101.594 76.4688V86.625C101.594 87.0833 101.427 87.3125 101.094 87.3125C100.823 87.3125 100.49 87.1979 100.094 86.9688C99.6979 86.7396 99.5 86.4375 99.5 86.0625L99.5312 85.8125C99.6354 85.1458 99.6875 84.5417 99.6875 84V76.5625L94.5625 76.9375L93.5625 77C93.3958 77.0208 93.1042 76.75 92.6875 76.1875C92.2917 75.6042 92.0938 75.2188 92.0938 75.0312ZM166.031 72C165.719 72 165.448 71.8854 165.219 71.6562C164.531 70.9062 163.833 70.2292 163.125 69.625C162.333 68.9583 161.635 68.4583 161.031 68.125C160.74 67.9583 160.594 67.6979 160.594 67.3438C160.594 67.2812 160.667 67.1979 160.812 67.0938C161 66.9688 161.302 66.6979 161.719 66.2812L162.844 65.1875C163.344 64.6667 163.76 64.1979 164.094 63.7812C164.448 63.3646 164.646 63.0729 164.688 62.9062C164.708 62.8646 164.729 62.7812 164.75 62.6562C164.792 62.5104 164.854 62.4375 164.938 62.4375C165.042 62.4375 165.177 62.4896 165.344 62.5938C165.531 62.6979 165.688 62.8021 165.812 62.9062C166.125 63.1979 166.281 63.4479 166.281 63.6562C166.26 63.7188 166.177 63.7917 166.031 63.875C165.906 63.9375 165.792 64 165.688 64.0625C165.583 64.1458 165.208 64.4792 164.562 65.0625L162.531 66.8125C162.177 67.1042 162 67.3333 162 67.5C162 67.5833 162.167 67.7188 162.5 67.9062C162.896 68.1562 163.667 68.6667 164.812 69.4375C165.25 69.7292 165.667 70.0521 166.062 70.4062C166.396 70.7396 166.562 71.0833 166.562 71.4375C166.562 71.6042 166.49 71.75 166.344 71.875C166.26 71.9583 166.156 72 166.031 72ZM160.469 79.0938C160.24 79.0938 159.958 78.9167 159.625 78.5625C159.375 78.3125 159.25 78.125 159.25 78C159.25 77.9375 159.292 77.9062 159.375 77.9062C159.458 77.8854 159.562 77.875 159.688 77.875L160.375 77.8438C160.771 77.8438 161.031 77.8333 161.156 77.8125C161.552 77.8125 161.885 77.8021 162.156 77.7812C163.948 77.6146 165.156 77.4792 165.781 77.375C166.094 77.3333 166.375 77.2917 166.625 77.25C166.875 77.1875 167.073 77.1562 167.219 77.1562C167.51 77.1562 167.802 77.3021 168.094 77.5938C168.323 77.8229 168.438 78.0104 168.438 78.1562C168.438 78.2812 168.365 78.3646 168.219 78.4062C168.115 78.4271 167.5 78.4688 166.375 78.5312C165.75 78.5521 164.979 78.6042 164.062 78.6875C163.146 78.7708 162.344 78.8542 161.656 78.9375C161.531 78.9583 161.354 78.9896 161.125 79.0312C160.896 79.0729 160.677 79.0938 160.469 79.0938ZM141.281 79.125V79.5C141.281 80.625 141.406 81.4479 141.656 81.9688C141.906 82.4688 142.385 82.8125 143.094 83C143.823 83.1667 145 83.25 146.625 83.25C148.208 83.25 149.656 83.1562 150.969 82.9688C152.281 82.7604 153.25 82.5104 153.875 82.2188C154 82.1562 154.125 82.125 154.25 82.125C154.375 82.125 154.615 82.2292 154.969 82.4375C155.323 82.625 155.635 82.8542 155.906 83.125C156.198 83.375 156.344 83.5833 156.344 83.75C156.344 83.9167 156.26 84.0521 156.094 84.1562C155.927 84.2812 155.688 84.3646 155.375 84.4062C152.083 84.9479 148.969 85.2188 146.031 85.2188C144.031 85.2188 142.552 85.0625 141.594 84.75C140.635 84.4583 139.979 83.9375 139.625 83.1875C139.292 82.4167 139.125 81.25 139.125 79.6875V79.4688L139.188 73.6875L132 74.875C131.167 75.0208 130.646 75.0938 130.438 75.0938C130.083 75.0938 129.75 74.9479 129.438 74.6562C129.125 74.3438 128.875 74.0312 128.688 73.7188C128.604 73.6146 128.562 73.5104 128.562 73.4062C128.562 73.2396 128.677 73.1562 128.906 73.1562H128.969C129.115 73.1771 129.323 73.1875 129.594 73.1875C130.094 73.1875 130.625 73.1354 131.188 73.0312L139.219 71.75L139.312 62.125C139.312 61.5208 139.167 60.9792 138.875 60.5C138.812 60.3958 138.781 60.3229 138.781 60.2812C138.781 60.1146 138.938 60.0312 139.25 60.0312C139.396 60.0521 139.646 60.1042 140 60.1875C140.354 60.2708 140.688 60.3958 141 60.5625C141.312 60.7292 141.469 60.9375 141.469 61.1875L141.375 71.4062L152.125 69.6875C152.833 69.5833 153.531 69.3542 154.219 69C154.427 68.8958 154.604 68.8438 154.75 68.8438C154.938 68.8438 155.198 68.9271 155.531 69.0938C155.865 69.2604 156.156 69.4688 156.406 69.7188C156.656 69.9479 156.781 70.1667 156.781 70.375C156.781 70.6667 156.521 70.8542 156 70.9375L141.344 73.3438L141.281 79.125ZM211.594 68.2188C211.323 68.2188 211.125 68.125 211 67.9375C210.812 67.6667 210.625 67.4479 210.438 67.2812C210.271 67.1146 209.969 66.8854 209.531 66.5938L209.625 66.4375C210.583 66.7708 211.26 66.9375 211.656 66.9375C211.99 66.9375 212.354 66.75 212.75 66.375C213.167 65.9792 213.521 65.4167 213.812 64.6875C213.958 64.3542 214.062 64.0833 214.125 63.875C214.208 63.6458 214.271 63.3958 214.312 63.125V63.0625C214.312 62.875 214.219 62.7812 214.031 62.7812C213.823 62.7812 213.448 62.8438 212.906 62.9688C212.615 63.0521 212.229 63.1771 211.75 63.3438L211.5 63.2812C211.479 63.2604 211.427 63.2292 211.344 63.1875C211.281 63.125 211.229 63.0625 211.188 63C211.083 62.8958 211.031 62.8229 211.031 62.7812L211 62.6562C211 62.5104 211.073 62.375 211.219 62.25C211.385 62.125 211.479 62.0312 211.5 61.9688C211.667 61.7812 212 61.3229 212.5 60.5938C212.542 60.5521 212.615 60.4583 212.719 60.3125C212.823 60.1458 212.875 60 212.875 59.875C212.875 59.7292 212.26 59.8333 211.031 60.1875C209.781 60.5625 209.125 60.75 209.062 60.75C208.854 60.75 208.635 60.5729 208.406 60.2188C208.24 60.0521 208.156 59.9167 208.156 59.8125C208.156 59.6667 208.365 59.5833 208.781 59.5625C209.26 59.5417 210 59.4583 211 59.3125C212.021 59.1667 212.625 59.0729 212.812 59.0312L213.25 58.9062C213.312 58.8854 213.385 58.875 213.469 58.875C213.531 58.875 213.625 58.9167 213.75 59C213.896 59.0833 214.021 59.1458 214.125 59.1875C214.396 59.3125 214.552 59.4583 214.594 59.625V59.7188C214.594 59.9062 214.49 60.1042 214.281 60.3125C214.198 60.3958 214.031 60.5729 213.781 60.8438C213.531 61.0938 213.375 61.2604 213.312 61.3438C213.229 61.4271 213.104 61.5625 212.938 61.75C212.771 61.9375 212.677 62.0521 212.656 62.0938C212.656 62.1562 212.677 62.1979 212.719 62.2188C212.76 62.2396 212.812 62.25 212.875 62.25C213.5 62.1667 214.01 62.0729 214.406 61.9688L214.906 61.8125C215.135 61.8125 215.302 61.8958 215.406 62.0625C215.594 62.2708 215.719 62.4479 215.781 62.5938C215.844 62.7188 215.844 62.8438 215.781 62.9688C215.76 63.0312 215.729 63.0938 215.688 63.1562C215.646 63.2188 215.604 63.2917 215.562 63.375C215.542 63.4167 215.5 63.5 215.438 63.625C215.375 63.75 215.333 63.875 215.312 64C214.938 65.0833 214.49 66.0104 213.969 66.7812C213.677 67.1354 213.354 67.4375 213 67.6875C212.521 68.0417 212.052 68.2188 211.594 68.2188ZM208.469 73.4688C208.24 73.4688 207.958 73.2917 207.625 72.9375C207.375 72.6875 207.25 72.5 207.25 72.375C207.25 72.3125 207.292 72.2812 207.375 72.2812C207.458 72.2604 207.562 72.25 207.688 72.25L208.375 72.2188C208.771 72.2188 209.031 72.2083 209.156 72.1875C209.552 72.1875 209.885 72.1771 210.156 72.1562C211.948 71.9896 213.156 71.8542 213.781 71.75C214.094 71.7083 214.375 71.6667 214.625 71.625C214.875 71.5625 215.073 71.5312 215.219 71.5312C215.51 71.5312 215.802 71.6771 216.094 71.9688C216.323 72.1979 216.438 72.3854 216.438 72.5312C216.438 72.6562 216.365 72.7396 216.219 72.7812C216.115 72.8021 215.5 72.8438 214.375 72.9062C213.75 72.9271 212.979 72.9792 212.062 73.0625C211.146 73.1458 210.344 73.2292 209.656 73.3125C209.531 73.3333 209.354 73.3646 209.125 73.4062C208.896 73.4479 208.677 73.4688 208.469 73.4688ZM215.562 85.2812C215.854 85.4688 216 85.6458 216 85.8125C216 86.0417 215.823 86.1875 215.469 86.25C215.115 86.3125 214.615 86.3542 213.969 86.375C213.031 86.3958 212.427 86.3646 212.156 86.2812C211.698 86.0729 211.469 85.7292 211.469 85.25L211.5 84.0938C211.542 83.7188 211.562 83.3854 211.562 83.0938C211.583 82.9062 211.594 82.5417 211.594 82C211.281 82.7083 210.875 83.3958 210.375 84.0625C210.021 84.5 209.708 84.8542 209.438 85.125C209.167 85.4167 208.844 85.6875 208.469 85.9375C208.094 86.1875 207.75 86.3125 207.438 86.3125C207.25 86.3125 207.156 86.25 207.156 86.125C207.156 86.1042 207.354 85.9375 207.75 85.625C208.167 85.3333 208.583 84.9167 209 84.375C209.625 83.5417 210.167 82.5625 210.625 81.4375C209.812 81.5417 209.271 81.6354 209 81.7188C208.896 81.7396 208.802 81.7708 208.719 81.8125C208.635 81.8333 208.531 81.8333 208.406 81.8125C208.302 81.7708 208.156 81.6875 207.969 81.5625C207.781 81.4167 207.635 81.2812 207.531 81.1562C207.448 81.0312 207.406 80.9479 207.406 80.9062C207.406 80.8021 207.562 80.75 207.875 80.75C208.646 80.75 209.635 80.6667 210.844 80.5C210.969 80.0208 211.031 79.25 211.031 78.1875V77.5938C211.031 77.3438 211.083 77.2083 211.188 77.1875C211.208 77.1667 211.25 77.1562 211.312 77.1562C211.479 77.1562 211.708 77.2812 212 77.5312C212.229 77.7188 212.375 77.8646 212.438 77.9688C212.521 78.0521 212.531 78.1667 212.469 78.3125C212.448 78.3542 212.406 78.4375 212.344 78.5625C212.281 78.6875 212.24 78.8125 212.219 78.9375C212.198 79.0417 212.156 79.25 212.094 79.5625C212.031 79.8542 211.99 80.1146 211.969 80.3438C212.26 80.3229 212.625 80.2812 213.062 80.2188C213.5 80.1562 213.823 80.0938 214.031 80.0312L214.656 79.875C214.865 79.8333 215.208 80.0104 215.688 80.4062C215.771 80.4688 215.812 80.5417 215.812 80.625C215.812 80.7083 215.771 80.7812 215.688 80.8438C215.625 80.8854 215.542 80.9062 215.438 80.9062C215.062 80.9062 214.375 80.9688 213.375 81.0938L212.344 81.1875C212.573 81.3542 212.719 81.5 212.781 81.625C212.844 81.75 212.854 81.875 212.812 82L212.719 82.5C212.677 82.9167 212.635 83.375 212.594 83.875C212.573 84.375 212.573 84.7604 212.594 85.0312C212.594 85.1354 212.656 85.2292 212.781 85.3125C212.927 85.3958 213.073 85.4375 213.219 85.4375C213.74 85.4375 214.323 85.3854 214.969 85.2812L215.25 85.2188C215.375 85.2188 215.479 85.2396 215.562 85.2812ZM221.562 72.1562C221.812 72.1562 221.938 72.2708 221.938 72.5C221.938 72.625 221.823 72.8021 221.594 73.0312C220.969 73.8021 219.729 75.2708 217.875 77.4375C217.729 77.625 217.594 77.7188 217.469 77.7188C217.365 77.7188 217.135 77.5625 216.781 77.25C216.49 77 216.344 76.7917 216.344 76.625C216.344 76.4375 216.5 76.2604 216.812 76.0938C217.292 75.8229 218.01 75.2812 218.969 74.4688C219.927 73.6146 220.635 72.9375 221.094 72.4375C221.281 72.25 221.438 72.1562 221.562 72.1562ZM187.906 67.9062C188.01 67.8854 188.156 67.875 188.344 67.875C188.74 67.875 188.938 67.9688 188.938 68.1562C188.938 68.3646 188.708 68.5417 188.25 68.6875C187.812 68.8333 187.406 68.9479 187.031 69.0312C186.781 70.9688 186.438 72.6562 186 74.0938C185.562 75.5104 185.021 76.8542 184.375 78.125C185.375 79.0417 186.104 79.7292 186.562 80.1875C187.021 80.625 187.302 80.9375 187.406 81.125C187.531 81.2917 187.594 81.4583 187.594 81.625C187.594 81.8125 187.458 82.0625 187.188 82.375C186.938 82.6667 186.708 82.8125 186.5 82.8125C186.354 82.8125 186.188 82.6979 186 82.4688C184.75 81.0938 183.885 80.1771 183.406 79.7188C182.531 81.0312 181.542 82.1771 180.438 83.1562C179.354 84.1354 178.271 84.8958 177.188 85.4375C176.812 85.625 176.531 85.7188 176.344 85.7188C176.198 85.7188 176.125 85.6667 176.125 85.5625C176.125 85.375 176.344 85.1042 176.781 84.75C178.948 83.0208 180.75 80.9479 182.188 78.5312C181.708 78.0521 180.979 77.4167 180 76.625C179.896 76.5417 179.74 76.4375 179.531 76.3125C179.323 76.1667 179.167 76.0417 179.062 75.9375C178.958 75.8125 178.885 75.6354 178.844 75.4062C178.823 75.3438 178.812 75.2292 178.812 75.0625C178.812 74.7917 178.865 74.4688 178.969 74.0938C179.302 72.8646 179.583 71.6875 179.812 70.5625C179.375 70.6458 178.896 70.7188 178.375 70.7812C177.875 70.8229 177.521 70.8542 177.312 70.875C176.979 70.875 176.677 70.7708 176.406 70.5625C176.156 70.3333 175.958 70.0833 175.812 69.8125C175.667 69.5208 175.594 69.2917 175.594 69.125C175.594 69 175.667 68.9375 175.812 68.9375L175.938 68.9688C176.292 69.0312 176.615 69.0625 176.906 69.0625C177.177 69.0625 177.396 69.0521 177.562 69.0312L180.156 68.8438C180.531 66.9479 180.802 65.5312 180.969 64.5938C181.135 63.6354 181.219 62.7604 181.219 61.9688V61.625C181.219 61.1875 181.167 60.8542 181.062 60.625C181.021 60.5 181 60.4271 181 60.4062C181 60.2604 181.094 60.1875 181.281 60.1875C181.448 60.1875 181.698 60.2396 182.031 60.3438C182.385 60.4479 182.698 60.5938 182.969 60.7812C183.24 60.9688 183.375 61.1771 183.375 61.4062V61.5312C183.375 62.3646 183.292 63.1875 183.125 64C182.979 64.8125 182.75 65.875 182.438 67.1875L182.094 68.6562C182.802 68.5938 183.844 68.4792 185.219 68.3125L185.25 67.6562V67.4062C185.25 67.0938 185.188 66.7396 185.062 66.3438C185.042 66.3021 185.031 66.2396 185.031 66.1562C185.031 66.0104 185.125 65.9375 185.312 65.9375C185.625 65.9375 186.031 66.0521 186.531 66.2812C187.031 66.4896 187.281 66.7604 187.281 67.0938V67.1562L187.188 68L187.906 67.9062ZM180.5 74.875C181.458 75.6042 182.312 76.2917 183.062 76.9375C183.562 75.7708 183.969 74.625 184.281 73.5C184.615 72.3542 184.875 71.0312 185.062 69.5312L181.75 70.25C181.333 71.9167 180.917 73.4583 180.5 74.875ZM189.438 62.6875C189.438 62.5833 189.51 62.5312 189.656 62.5312C189.906 62.5312 190.594 62.7812 191.719 63.2812L199.344 62.7188C199.51 62.6979 199.719 62.6875 199.969 62.6875C200.24 62.6875 200.521 62.7917 200.812 63C201.125 63.2083 201.281 63.4375 201.281 63.6875C201.281 63.7917 201.219 63.9479 201.094 64.1562C200.99 64.3438 200.938 64.4896 200.938 64.5938L200.156 71.7812C200.677 72.3646 200.938 72.7604 200.938 72.9688C200.938 73.0938 200.875 73.1771 200.75 73.2188C200.646 73.2604 200.458 73.2917 200.188 73.3125L194.781 73.5938C195.49 74.8438 196.271 76.0312 197.125 77.1562C198.396 76.3646 199.469 75.5417 200.344 74.6875C201.219 73.8125 201.708 73.1042 201.812 72.5625C201.875 72.2083 202 72.0312 202.188 72.0312C202.417 72.0312 202.708 72.2604 203.062 72.7188C203.417 73.1771 203.594 73.5312 203.594 73.7812C203.594 74.1354 202.948 74.8333 201.656 75.875C200.365 76.8958 199.167 77.7188 198.062 78.3438C199.042 79.4688 200.125 80.4792 201.312 81.375C202.521 82.25 204.042 83.1354 205.875 84.0312C206.104 84.1562 206.219 84.2708 206.219 84.375C206.219 84.4375 206.125 84.5729 205.938 84.7812C205.75 85.0104 205.531 85.2083 205.281 85.375C205.052 85.5625 204.833 85.6562 204.625 85.6562C204.333 85.6562 203.448 85.1354 201.969 84.0938C200.51 83.0729 198.938 81.6771 197.25 79.9062C195.583 78.1146 194.177 76.0417 193.031 73.6875L191.656 73.75L191.594 83.6875C192.865 83.2083 194.479 82.4688 196.438 81.4688C196.583 81.3854 196.729 81.3438 196.875 81.3438C197.083 81.3438 197.188 81.4271 197.188 81.5938C197.188 81.8229 196.833 82.2396 196.125 82.8438C195.438 83.4271 194.635 84.0208 193.719 84.625C193.073 84.9792 192.406 85.375 191.719 85.8125C191.052 86.2292 190.635 86.4479 190.469 86.4688C190.26 86.4688 190.021 86.3021 189.75 85.9688C189.479 85.6354 189.396 85.3646 189.5 85.1562C189.583 85.0104 189.646 84.6042 189.688 83.9375C189.75 83.25 189.781 82.7396 189.781 82.4062L189.875 65.5625C189.875 64.9792 189.854 64.5104 189.812 64.1562C189.771 63.8021 189.677 63.4167 189.531 63C189.51 62.9583 189.49 62.9167 189.469 62.875C189.448 62.8125 189.438 62.75 189.438 62.6875ZM198.406 71.8438L198.688 68.625L191.656 69.0625V72.1562L198.406 71.8438ZM198.812 67.0312L199.062 64.3125L191.688 64.8125V67.5L198.812 67.0312ZM192.062 59.4062C192.083 59.2396 192.188 59.0417 192.375 58.8125C192.562 58.5625 192.74 58.4479 192.906 58.4688C193.01 58.4688 193.438 58.7083 194.188 59.1875C194.958 59.6458 195.656 60.125 196.281 60.625C196.927 61.125 197.24 61.5 197.219 61.75C197.219 61.875 197.104 62.0938 196.875 62.4062C196.646 62.7188 196.417 62.875 196.188 62.875C195.979 62.875 195.75 62.7292 195.5 62.4375C194.479 61.4583 193.458 60.625 192.438 59.9375C192.188 59.75 192.062 59.5729 192.062 59.4062ZM264.125 64.5312C264.125 64.9896 264.104 65.4271 264.062 65.8438L264 67.5938C263.979 68.0729 263.917 68.875 263.812 70C263.792 70.3333 263.688 70.5938 263.5 70.7812C263.333 70.9688 263.177 71.0625 263.031 71.0625C262.865 71.0417 262.719 70.8958 262.594 70.625C262.49 70.3333 262.458 70.0417 262.5 69.75C262.521 69.5833 262.583 68.8958 262.688 67.6875C262.729 66.3958 262.708 65.5312 262.625 65.0938C262.604 64.9479 262.458 64.8542 262.188 64.8125H261.312L259.875 64.9375C259.583 64.9583 259.146 65.0208 258.562 65.125C258 65.2292 257.542 65.3229 257.188 65.4062C257.167 66.1146 257.177 67.0104 257.219 68.0938L257.344 70.2188C257.344 70.4062 257.292 70.5729 257.188 70.7188C257.104 70.8646 257 70.9375 256.875 70.9375C256.625 70.9375 256.427 70.7708 256.281 70.4375C256.156 70.1875 256.094 69.9062 256.094 69.5938L256.062 69.0625L256 67.2812C256 66.7604 255.979 66.0208 255.938 65.0625C255.938 64.8958 255.927 64.7708 255.906 64.6875C255.885 64.6042 255.875 64.5521 255.875 64.5312C255.854 64.4688 255.844 64.3958 255.844 64.3125C255.844 64.1458 255.927 64.0625 256.094 64.0625C256.219 64.0625 256.323 64.0833 256.406 64.125L256.969 64.3125C257.198 64.2708 257.396 64.2396 257.562 64.2188C257.75 64.1979 257.885 64.1771 257.969 64.1562C258.927 64.0104 260.115 63.9062 261.531 63.8438C262.052 63.8438 262.417 63.7917 262.625 63.6875C262.646 63.6667 262.688 63.6458 262.75 63.625C262.833 63.5833 262.896 63.5729 262.938 63.5938L263.25 63.6875C263.333 63.7083 263.417 63.75 263.5 63.8125C263.583 63.8542 263.656 63.9062 263.719 63.9688C263.99 64.2396 264.125 64.4271 264.125 64.5312ZM260.031 83.0938C259.885 83.0938 259.781 83.0521 259.719 82.9688C259.656 82.8854 259.615 82.8333 259.594 82.8125C259.385 82.5208 259.292 82.2396 259.312 81.9688C259.333 81.8021 259.365 81.3542 259.406 80.625L259.438 79.125C259.417 78.8958 259.396 78.7604 259.375 78.7188C259.354 78.6562 259.26 78.5312 259.094 78.3438C258.76 77.9271 258.375 77.5 257.938 77.0625C257.438 76.5625 257.115 76.2292 256.969 76.0625C256.969 76.0625 256.656 75.75 256.031 75.125C255.969 75.0625 255.938 75 255.938 74.9375C255.938 74.8333 256 74.75 256.125 74.6875C256.271 74.6042 256.417 74.5729 256.562 74.5938C256.979 74.6354 257.25 74.6875 257.375 74.75C257.521 74.7917 257.656 74.9167 257.781 75.125C257.906 75.3333 258.083 75.5833 258.312 75.875C258.562 76.1458 258.75 76.3542 258.875 76.5C259.396 77.125 259.76 77.5417 259.969 77.75C260.344 77.3125 260.812 76.6875 261.375 75.875C261.833 75.2917 262.104 74.8125 262.188 74.4375C262.271 74.1667 262.396 74.0312 262.562 74.0312C262.646 74.0312 262.771 74.0833 262.938 74.1875C263.479 74.5208 263.75 74.7917 263.75 75C263.75 75.125 263.615 75.2812 263.344 75.4688C262.969 75.7396 262.656 76.0417 262.406 76.375L261.781 77.1562C261.365 77.6562 261.052 78.0521 260.844 78.3438C260.74 78.5312 260.688 78.8021 260.688 79.1562V81.0625V82.3125C260.708 82.4583 260.625 82.625 260.438 82.8125C260.271 83 260.135 83.0938 260.031 83.0938ZM248.156 84.6562C248.323 84.6562 248.531 84.2396 248.781 83.4062C249.052 82.5521 249.312 81.375 249.562 79.875C249.812 78.3542 250 76.6458 250.125 74.75L239.281 75.3125V75.8438C239.281 76.0729 239.229 76.25 239.125 76.375C239.021 76.5 238.875 76.5625 238.688 76.5625C238.396 76.5625 238.083 76.4688 237.75 76.2812C237.438 76.0729 237.281 75.8333 237.281 75.5625C237.281 75.4375 237.292 75.3438 237.312 75.2812C237.396 74.6979 237.438 74.0833 237.438 73.4375L237.562 62.6875C237.562 61.8958 237.49 61.3333 237.344 61C237.26 60.8542 237.219 60.7083 237.219 60.5625C237.219 60.4167 237.302 60.3438 237.469 60.3438C237.781 60.3438 238.448 60.5833 239.469 61.0625L248.062 60.5C248.479 60.4792 248.896 60.3958 249.312 60.25C249.354 60.2292 249.427 60.2188 249.531 60.2188C249.781 60.2188 250.125 60.3854 250.562 60.7188C251 61.0312 251.219 61.3021 251.219 61.5312C251.219 61.7812 250.958 61.9271 250.438 61.9688L245.125 62.2812L245.094 64.8438L247.25 64.7188C247.646 64.6771 248.042 64.5938 248.438 64.4688C248.479 64.4479 248.552 64.4375 248.656 64.4375C248.927 64.4375 249.25 64.6042 249.625 64.9375C250.021 65.25 250.219 65.4896 250.219 65.6562C250.219 65.8646 249.969 65.9896 249.469 66.0312L245.062 66.2812V69.0625L247.281 68.9375C247.656 68.9167 248.052 68.8333 248.469 68.6875C248.51 68.6667 248.583 68.6562 248.688 68.6562C248.958 68.6562 249.281 68.8229 249.656 69.1562C250.052 69.4688 250.25 69.7083 250.25 69.875C250.25 70.0833 250 70.2083 249.5 70.25L245.031 70.5L245 73.4375L250.625 73.125H250.844C251.052 73.125 251.323 73.2188 251.656 73.4062C251.99 73.5729 252.156 73.8229 252.156 74.1562C252.156 74.2604 252.135 74.3958 252.094 74.5625C252.052 74.7083 252.021 74.8542 252 75C251.812 77.5417 251.51 79.9271 251.094 82.1562C250.698 84.3854 250.125 85.8125 249.375 86.4375C249.021 86.7292 248.708 86.875 248.438 86.875C248.146 86.875 247.583 86.625 246.75 86.125C245.938 85.6458 245.188 85.1146 244.5 84.5312C243.812 83.9479 243.469 83.5312 243.469 83.2812C243.469 83.1146 243.573 83.0312 243.781 83.0312C243.948 83.0312 244.219 83.1146 244.594 83.2812C245.531 83.7604 246.688 84.2188 248.062 84.6562H248.156ZM224 68.75C224 68.625 224.073 68.5625 224.219 68.5625L224.344 68.5938C224.51 68.6146 224.76 68.625 225.094 68.625C225.781 68.625 227 68.5104 228.75 68.2812C229.292 65.5521 229.625 63.3542 229.75 61.6875V61.375C229.75 60.9375 229.698 60.6042 229.594 60.375C229.552 60.25 229.531 60.1771 229.531 60.1562C229.531 60.0312 229.625 59.9688 229.812 59.9688C229.938 59.9688 230.167 60.0208 230.5 60.125C230.854 60.2292 231.167 60.375 231.438 60.5625C231.729 60.7292 231.875 60.9271 231.875 61.1562V61.2812C231.604 63.3854 231.208 65.6354 230.688 68.0312C231.854 67.8646 232.719 67.7292 233.281 67.625L233.312 67.2812V67.0312C233.312 66.7188 233.25 66.375 233.125 66C233.104 65.9583 233.094 65.8958 233.094 65.8125C233.094 65.6667 233.188 65.5938 233.375 65.5938C233.479 65.6146 233.677 65.6667 233.969 65.75C234.281 65.8125 234.573 65.9271 234.844 66.0938C235.135 66.2604 235.281 66.4583 235.281 66.6875V66.7812L235.219 67.3125L236.156 67.125C236.406 67.0833 236.573 67.0625 236.656 67.0625C236.99 67.0625 237.156 67.1458 237.156 67.3125C237.156 67.5625 236.875 67.7812 236.312 67.9688L235.094 68.375C234.573 72.4792 233.719 75.6562 232.531 77.9062C233.719 79.0521 234.479 79.8125 234.812 80.1875C235.146 80.5625 235.312 80.8542 235.312 81.0625C235.312 81.2708 235.177 81.5208 234.906 81.8125C234.656 82.0833 234.438 82.2188 234.25 82.2188C234.083 82.2188 233.917 82.1146 233.75 81.9062C232.729 80.7188 232.021 79.9167 231.625 79.5C230.812 80.75 229.917 81.8333 228.938 82.75C227.979 83.6458 227.104 84.3333 226.312 84.8125C225.542 85.2917 225.021 85.5312 224.75 85.5312C224.604 85.5312 224.531 85.4792 224.531 85.375C224.531 85.1875 224.74 84.9167 225.156 84.5625C227.344 82.8125 229.104 80.7188 230.438 78.2812L229.781 77.5625C229.24 76.9792 228.833 76.5833 228.562 76.375C228.417 76.2708 228.25 76.1667 228.062 76.0625C227.896 75.9375 227.76 75.8229 227.656 75.7188C227.552 75.5938 227.479 75.4167 227.438 75.1875C227.417 75.125 227.406 75.0208 227.406 74.875C227.406 74.6042 227.458 74.2812 227.562 73.9062C227.771 73.0521 228.052 71.7604 228.406 70.0312C226.823 70.3229 225.917 70.4688 225.688 70.4688C225.479 70.4688 225.271 70.4167 225.062 70.3125C224.688 70.0417 224.417 69.75 224.25 69.4375C224.083 69.1042 224 68.875 224 68.75ZM229.062 74.6562C229.375 74.8854 229.844 75.3125 230.469 75.9375L231.25 76.6875C231.521 76.0625 231.854 75.0417 232.25 73.625C232.646 72.2083 232.948 70.6354 233.156 68.9062C232.615 69.0729 231.667 69.3125 230.312 69.625L230.031 70.8125C229.51 72.9167 229.188 74.1979 229.062 74.6562ZM235.188 83.8125C235.188 83.7083 235.24 83.5312 235.344 83.2812C235.698 82.5312 236.031 81.6875 236.344 80.75C236.656 79.7917 236.906 78.8646 237.094 77.9688C237.135 77.7396 237.198 77.5833 237.281 77.5C237.365 77.4167 237.49 77.375 237.656 77.375C237.885 77.375 238.135 77.4271 238.406 77.5312C238.677 77.6354 238.812 77.8229 238.812 78.0938C238.812 78.2188 238.802 78.3125 238.781 78.375C238.594 79.3125 238.344 80.3021 238.031 81.3438C237.719 82.3854 237.396 83.3125 237.062 84.125C236.958 84.3333 236.854 84.4792 236.75 84.5625C236.667 84.6667 236.562 84.7188 236.438 84.7188C236.375 84.6979 236.24 84.6562 236.031 84.5938C235.823 84.5312 235.625 84.4271 235.438 84.2812C235.271 84.1562 235.188 84 235.188 83.8125ZM243.25 73.5312L243.281 70.5938L239.312 70.8438L239.281 73.7188L243.25 73.5312ZM243.312 69.1562V66.4062L239.344 66.625L239.312 69.375L243.312 69.1562ZM243.344 64.9688L243.375 62.375L239.375 62.625L239.344 65.2188L243.344 64.9688ZM239.562 77.7188C239.562 77.4688 239.688 77.3021 239.938 77.2188C240.208 77.1354 240.448 77.0938 240.656 77.0938C240.781 77.0938 240.875 77.1354 240.938 77.2188C241.021 77.2812 241.094 77.4062 241.156 77.5938C241.49 78.4062 241.781 79.3438 242.031 80.4062C242.302 81.4479 242.438 82.1146 242.438 82.4062C242.438 82.6562 242.312 82.8438 242.062 82.9688C241.833 83.0729 241.542 83.1354 241.188 83.1562C241 83.1562 240.865 83.1042 240.781 83C240.719 82.8958 240.667 82.7188 240.625 82.4688C240.479 81.0938 240.156 79.6562 239.656 78.1562C239.594 77.9896 239.562 77.8438 239.562 77.7188ZM242.5 77.0312C242.5 76.8229 242.625 76.6562 242.875 76.5312C243.125 76.4062 243.344 76.3438 243.531 76.3438C243.74 76.3438 244.042 76.6979 244.438 77.4062C244.833 78.1146 245.198 78.8958 245.531 79.75C245.885 80.5833 246.062 81.0625 246.062 81.1875C246.062 81.4375 245.823 81.6562 245.344 81.8438C245.052 81.9271 244.885 81.9688 244.844 81.9688C244.573 81.9688 244.385 81.7812 244.281 81.4062C243.823 79.9479 243.292 78.6667 242.688 77.5625C242.562 77.3333 242.5 77.1562 242.5 77.0312ZM245.469 76.4688C245.469 76.3021 245.562 76.1562 245.75 76.0312C245.958 75.9062 246.198 75.8021 246.469 75.7188C246.656 75.7188 246.948 76.0312 247.344 76.6562C247.76 77.2604 248.146 77.9167 248.5 78.625C248.854 79.3333 249.031 79.7812 249.031 79.9688C249.031 80.2188 248.875 80.4167 248.562 80.5625C248.271 80.6875 248.042 80.75 247.875 80.75C247.75 80.75 247.646 80.7188 247.562 80.6562C247.479 80.5729 247.406 80.4375 247.344 80.25C246.948 79.1042 246.375 77.9792 245.625 76.875C245.521 76.7083 245.469 76.5729 245.469 76.4688Z" fill="#333333"/>
<path d="M127 88.8125H271V90.375H127V88.8125Z" fill="#333333"/>
</svg>
