<svg xmlns="http://www.w3.org/2000/svg" width="350" height="88" fill="none"><path fill="#333" d="M164.91 18.5a1.25 1.25 0 0 1-.914-.387 26.703 26.703 0 0 0-2.355-2.285c-.891-.75-1.676-1.312-2.356-1.687-.328-.188-.492-.48-.492-.88 0-.07.082-.163.246-.28.211-.141.551-.446 1.02-.915l1.265-1.23a23.692 23.692 0 0 0 1.406-1.582c.399-.469.622-.797.668-.984a1.16 1.16 0 0 0 .071-.282c.047-.164.117-.246.211-.246.117 0 .269.059.457.176.211.117.386.234.527.352.352.328.527.609.527.843-.023.07-.117.153-.281.246-.14.07-.269.141-.387.211a53.04 53.04 0 0 0-1.265 1.125l-2.285 1.97c-.399.327-.598.585-.598.773 0 .093.187.246.563.457.445.28 1.312.855 2.601 1.722.492.328.961.692 1.406 1.09.375.375.563.762.563 1.16 0 .188-.082.352-.246.492a.478.478 0 0 1-.352.141Zm-6.258 7.98c-.257 0-.574-.199-.949-.597-.281-.281-.422-.492-.422-.633 0-.07.047-.105.141-.105.094-.024.211-.036.351-.036l.774-.035c.445 0 .738-.012.879-.035.445 0 .82-.012 1.125-.035 2.015-.188 3.375-.34 4.078-.457a29.8 29.8 0 0 0 .949-.14c.281-.071.504-.106.668-.106.328 0 .656.164.984.492.258.258.387.469.387.633 0 .14-.082.234-.246.281-.117.023-.809.07-2.074.14-.703.024-1.57.083-2.602.176a92.491 92.491 0 0 0-2.707.282c-.14.023-.34.058-.597.105-.258.047-.504.07-.739.07Zm-21.586.036v.422c0 1.265.141 2.19.422 2.777.282.562.821.95 1.617 1.16.821.188 2.145.281 3.973.281 1.781 0 3.41-.105 4.887-.316 1.476-.235 2.566-.516 3.269-.844a.94.94 0 0 1 .422-.105c.141 0 .41.117.809.351.398.211.75.469 1.055.774.328.28.492.515.492.703 0 .187-.094.34-.282.457-.187.14-.457.234-.808.281-3.703.61-7.207.914-10.512.914-2.25 0-3.914-.176-4.992-.527-1.078-.328-1.816-.914-2.215-1.758-.375-.867-.562-2.18-.562-3.938v-.246l.07-6.504-8.086 1.336c-.937.164-1.523.246-1.758.246-.398 0-.773-.164-1.125-.492a5.572 5.572 0 0 1-.844-1.054.566.566 0 0 1-.14-.352c0-.188.129-.281.387-.281h.07c.164.023.398.035.703.035.562 0 1.16-.059 1.793-.176l9.035-1.441.106-10.828c0-.68-.164-1.29-.493-1.829-.07-.117-.105-.199-.105-.246 0-.187.176-.28.527-.28.164.023.446.081.844.175a4.65 4.65 0 0 1 1.125.422c.352.187.527.422.527.703l-.105 11.496 12.094-1.934a7.514 7.514 0 0 0 2.355-.773c.234-.117.434-.176.598-.176.211 0 .504.094.879.281.375.188.703.422.984.704.281.257.422.504.422.738 0 .328-.293.539-.879.633l-16.488 2.707-.071 6.504Zm79.348-8.368c-.141 0-.328-.152-.562-.457-.235-.328-.34-.609-.317-.843.047-.188.082-.715.106-1.582.023-.586.035-1.618.035-3.094 0-1.031-.012-1.723-.035-2.074l-1.161.105a15.24 15.24 0 0 1-2.109.176c-.164 0-.398-.129-.703-.387-.305-.258-.457-.445-.457-.562 0-.188.199-.258.598-.211.257.023 1.019.011 2.285-.035a114.49 114.49 0 0 1 3.761-.211c.399-.024.762-.059 1.09-.106.352-.07.598-.117.739-.14.211-.024.398 0 .562.07.164.07.316.164.457.281.164.094.293.164.387.211.211.14.316.27.316.387 0 .094-.058.187-.176.281a.512.512 0 0 1-.316.105c-.117 0-.281-.011-.492-.035a5.16 5.16 0 0 0-.633-.035c-.867 0-1.758.024-2.672.07-.023.188-.035.657-.035 1.407-.047 1.265-.07 2.508-.07 3.726v1.688c0 .398-.035.656-.106.773-.211.328-.375.492-.492.492Zm-3.762 8.332c-.257 0-.574-.199-.949-.597-.281-.281-.422-.492-.422-.633 0-.07.047-.105.141-.105.094-.024.211-.036.351-.036l.774-.035c.445 0 .738-.012.879-.035.445 0 .82-.012 1.125-.035 2.015-.188 3.375-.34 4.078-.457a29.8 29.8 0 0 0 .949-.14c.281-.071.504-.106.668-.106.328 0 .656.164.984.492.258.258.387.469.387.633 0 .14-.082.234-.246.281-.117.023-.809.07-2.074.14-.703.024-1.57.083-2.602.176a92.491 92.491 0 0 0-2.707.282c-.14.023-.34.058-.597.105-.258.047-.504.07-.739.07Zm10.231-8.859c.117 0 .293.082.527.246-.023.047.024.14.141.281l.246.247c.117.117.234.257.351.421.141.165.293.34.457.528.422.445 1.395 1.605 2.918 3.48.258.375.387.598.387.668 0 .235-.14.352-.422.352-.164 0-.34-.117-.527-.352-.445-.469-1.242-1.207-2.391-2.215-.89-.82-1.699-1.453-2.425-1.898-.352-.164-.528-.352-.528-.563 0-.164.176-.398.528-.703.328-.328.574-.492.738-.492Zm-31.606-5.168a43.67 43.67 0 0 1-4.57 5.203c-1.641 1.617-3.129 2.918-4.465 3.903-1.312.96-2.144 1.441-2.496 1.441-.164 0-.246-.082-.246-.246 0-.211.188-.504.562-.879 2.883-2.672 5.274-5.238 7.172-7.7 1.899-2.484 3.293-4.605 4.184-6.363.891-1.757 1.336-2.953 1.336-3.585l-.035-.387V3.7c0-.305.129-.458.386-.458.399 0 .903.2 1.512.598.633.398.949.773.949 1.125 0 .281-.293.973-.878 2.074a34.72 34.72 0 0 1-1.829 3.164l9.95-.633a5.31 5.31 0 0 1 .703-.035c.492 0 .949.14 1.371.422.422.258.633.563.633.914 0 .188-.059.387-.176.598-.117.187-.199.316-.246.386-2.672 5.532-6.117 10.266-10.336 14.204-4.219 3.914-9.211 6.96-14.977 9.14-.351.117-.597.176-.738.176-.305 0-.457-.094-.457-.281 0-.258.269-.528.809-.809 2.742-1.43 5.285-3 7.628-4.71 2.344-1.735 4.641-3.716 6.891-5.942a60.501 60.501 0 0 0-5.168-4.852c-.258-.21-.387-.422-.387-.633 0-.234.141-.527.422-.878.281-.352.539-.528.774-.528.492 0 2.484 1.676 5.976 5.027 2.836-3.257 5.016-6.585 6.539-9.984l-10.793.668ZM114.781 68.031c-.166 0-.302-.135-.406-.406-.167-.333-.25-.604-.25-.813l.031-.843c.021-.417.032-1.25.032-2.5v-1.563l-.032-1.093c-.229 0-.468.03-.718.093l-.719.188c-.104.041-.271-.021-.5-.188a1.916 1.916 0 0 1-.531-.562.713.713 0 0 1-.094-.282c0-.062.031-.104.094-.124a.688.688 0 0 1 .218-.032c.979 0 1.886-.052 2.719-.156l.937-.063 1.376-.093c.333-.042.562-.073.687-.094.167-.02.354-.042.563-.063.229-.041.374-.052.437-.03a2 2 0 0 0 .313.187c.145.062.302.166.468.312.104.104.188.209.25.313a.386.386 0 0 1 .125.281c0 .083-.052.208-.156.375-.104.167-.208.427-.313.781-.083.354-.145.604-.187.75-.313 1.042-.698 1.802-1.156 2.282a1.666 1.666 0 0 1-1.125.437c-.188 0-.344-.135-.469-.406-.187-.417-.396-.709-.625-.875l.031-.157c.563.188.948.282 1.157.282.166 0 .281-.032.343-.094a.766.766 0 0 0 .219-.281c.104-.271.188-.51.25-.719.083-.208.156-.396.219-.563.041-.187.093-.437.156-.75a5.46 5.46 0 0 0 .156-.75c0-.187-.052-.28-.156-.28h-.687c-.313 0-.667.01-1.063.03-.396.021-.719.053-.969.094l-.062 2.844.031 1.625v.656a1.27 1.27 0 0 1 0 .406v.594c.021.25.021.427 0 .531l-.219.5c-.146.146-.271.22-.375.22Zm4.407 8.563c-.313 0-.615-.23-.907-.688a9.905 9.905 0 0 0-1.093-1.437l-.813-.844c-.437.5-.823.896-1.156 1.188a6.25 6.25 0 0 1-1.188.843c-.896.521-1.646.781-2.25.781-.146 0-.219-.052-.219-.156 0-.062.198-.198.594-.406a6.591 6.591 0 0 0 1.125-.75c.896-.75 1.636-1.52 2.219-2.313-.125-.124-.75-.666-1.875-1.624a10.426 10.426 0 0 1-.656-.532 7.616 7.616 0 0 1-.375-.281c-.188-.146-.282-.25-.282-.313 0-.104.053-.156.157-.156.312 0 .812.219 1.5.656.687.417 1.406.917 2.156 1.5.292-.354.521-.687.687-1 .167-.312.355-.697.563-1.156.104-.229.167-.427.187-.594a4.83 4.83 0 0 0 .032-.343c0-.23.062-.344.187-.344.146 0 .344.115.594.344.437.416.656.698.656.844 0 .083-.052.177-.156.28-.25.25-.479.584-.687 1-.126.25-.355.605-.688 1.063a2.76 2.76 0 0 0-.25.344 3.062 3.062 0 0 1-.188.281c.48.354 1.188.959 2.126 1.813.229.208.374.406.437.594.083.166.125.395.125.687a.89.89 0 0 1-.156.531.504.504 0 0 1-.406.188Zm-3.063 9.625c-1.021 0-1.844-.26-2.469-.781-.666-.584-1-1.26-1-2.032 0-.666.24-1.208.719-1.625.208-.187.49-.344.844-.469a2.631 2.631 0 0 1 1-.218c.208 0 .323-.01.343-.031.042-.042.073-.146.094-.313.021-.146.032-.448.032-.906a2.046 2.046 0 0 1-.032-.438c-1.291.125-2.25.25-2.875.375-.146.021-.323-.01-.531-.094a1.685 1.685 0 0 1-.469-.374c-.125-.146-.166-.25-.125-.313a.558.558 0 0 1 .25-.156c.084-.042.219-.063.406-.063.646 0 1.115-.02 1.407-.062l4.375-.438c.062 0 .208-.01.437-.031.25-.02.479-.063.688-.125h.093c.084 0 .157.031.219.094a.555.555 0 0 0 .157.062c.312.25.468.469.468.656 0 .146-.125.22-.375.22l-.375-.032c-.104-.02-.625 0-1.562.063l-.938.062c.021.25.021.563 0 .938-.021.354-.041.656-.062.906l.031.344a.54.54 0 0 1-.125.343c-.125.209-.333.313-.625.313-.167 0-.313-.01-.437-.031l-.313-.063c-.333-.02-.687.115-1.063.406-.312.313-.468.646-.468 1 0 .48.198.886.594 1.219.229.188.468.313.718.375.271.083.594.125.969.125.5 0 .969-.083 1.406-.25.438-.167.761-.417.969-.75.083-.146.156-.23.219-.25.062-.042.177-.063.343-.063a.55.55 0 0 1 .407.157c.125.125.187.25.187.375 0 .375-.344.781-1.031 1.219-.687.437-1.521.656-2.5.656Zm5.437-11.563c.105 0 .261.073.469.219-.021.042.021.125.125.25l.219.219c.104.104.208.229.313.375.124.146.26.302.406.469.375.395 1.239 1.427 2.594 3.093.229.334.343.531.343.594 0 .208-.125.313-.375.313-.146 0-.302-.105-.468-.313-.396-.417-1.105-1.073-2.126-1.969-.791-.729-1.51-1.291-2.156-1.687-.312-.146-.468-.313-.468-.5 0-.146.156-.354.468-.625.292-.292.511-.438.656-.438Zm-14.812-8c-.625 4.271-1.552 7.771-2.781 10.5a29.623 29.623 0 0 0 2.531 4.031 27.193 27.193 0 0 0 3.188 3.5c.25.23.374.396.374.5 0 .126-.083.23-.25.313-.708.48-1.208.719-1.5.719-.354 0-1.114-.792-2.281-2.375a41.964 41.964 0 0 1-3.062-4.781 22.198 22.198 0 0 1-2.844 3.75c-1.042 1.124-2 2.01-2.875 2.656-.875.646-1.448.969-1.719.969-.104 0-.156-.053-.156-.157 0-.208.167-.49.5-.844a52.518 52.518 0 0 0 3.531-4.187 23.578 23.578 0 0 0 2.563-4.156 19.596 19.596 0 0 1-.844-2.219c-.229-.792-.5-1.781-.813-2.969a33.748 33.748 0 0 0-.624-2.312 31.56 31.56 0 0 1-1.376 2.187c-.5.709-.864 1.063-1.093 1.063-.104 0-.156-.084-.156-.25 0-.188.093-.5.28-.938a51.863 51.863 0 0 0 2.094-5.25c.584-1.708 1.011-3.156 1.282-4.344.291-1.208.437-1.99.437-2.343 0-.313-.021-.542-.062-.688v-.156c0-.208.125-.313.375-.313.312 0 .739.115 1.281.344.542.23.812.51.812.844 0 .208-.187.896-.562 2.063a46.978 46.978 0 0 1-1.312 3.656l4.031-.281a5.924 5.924 0 0 0 1.343-.282c.167-.041.282-.062.344-.062.292 0 .646.177 1.063.531.416.333.625.615.625.844 0 .187-.198.302-.594.344l-1.75.093Zm-26.875 8.031c0-.187.125-.479.375-.874a65.864 65.864 0 0 0 3.313-5.657c1.041-1.979 1.864-3.74 2.468-5.281.625-1.563.938-2.656.938-3.281 0-.188-.01-.334-.031-.438l-.032-.125c0-.166.104-.25.313-.25.333 0 .75.146 1.25.438.52.291.781.562.781.812 0 .167-.333 1.063-1 2.688-.667 1.604-1.333 3.01-2 4.218v19.094c0 .188-.052.334-.156.438a.55.55 0 0 1-.406.156c-.334 0-.667-.115-1-.344-.334-.229-.5-.531-.5-.906 0-.146.01-.26.03-.344a9.604 9.604 0 0 0 .157-1.687l.125-13.531a34.92 34.92 0 0 1-2.594 3.468c-.916 1.084-1.531 1.625-1.844 1.625-.124 0-.187-.073-.187-.219Zm7.406-8.156c0-.104.052-.156.156-.156.084 0 .146.01.188.031.313.104.719.156 1.219.156h.312l2.969-.156.031-4.75c0-.208-.031-.416-.094-.625a3.455 3.455 0 0 0-.28-.656.738.738 0 0 1-.094-.313c0-.145.124-.218.374-.218.23 0 .573.062 1.032.187.666.167 1 .469 1 .907L94 66.311l.813-.03A6.31 6.31 0 0 0 96.53 66a.95.95 0 0 1 .281-.031c.355 0 .73.177 1.126.531.416.333.624.604.624.813 0 .104-.062.197-.187.28-.104.063-.26.105-.469.126h-.094l-3.843.219-.094 4.843 1.844-.094.344-.03c.187 0 .447.135.78.406.334.25.5.49.5.718 0 .104-.04.23-.124.375-.084.146-.125.26-.125.344l-.531 5.281c.52.646.78 1.073.78 1.281 0 .126-.062.209-.187.25-.104.021-.312.042-.625.063l-5.469.156.094 1.281v.094c0 .438-.166.656-.5.656-.25 0-.562-.114-.937-.343-.375-.23-.563-.49-.563-.781 0-.126.01-.23.031-.313A6.47 6.47 0 0 0 89.281 81l-.031-.656-.281-5.688c-.042-.625-.156-1.146-.344-1.562-.146-.25-.219-.427-.219-.531 0-.126.094-.188.281-.188.292 0 .959.177 2 .531l1.376-.062.03-4.813-2.343.125h-.5c-.604 0-1-.083-1.188-.25a6.85 6.85 0 0 1-.562-.625 1.275 1.275 0 0 1-.219-.75Zm3.688 13.406 3.844-.156.343-5.469-4.5.157.313 5.469Zm9.875-12.53c.083.333.25 1.04.5 2.124.583 2.5 1.094 4.313 1.531 5.438.833-2.438 1.396-5.156 1.687-8.156l-3.531.218-.187.375Zm58.75 10.968c-.146 0-.24-.01-.282-.031-.02-.042.011-.115.094-.219.292-.27.521-.531.688-.781.187-.271.385-.698.594-1.281.333-.959.5-1.698.5-2.22 0-.478-.032-.916-.094-1.312v-.094c0-.229.146-.302.437-.218.25.062.531.146.844.25a.946.946 0 0 1 .281-.031c.125-.021.323-.053.594-.094a53.54 53.54 0 0 1 2.75-.313c0-.083.083-.375.25-.875l.188-.687c.083-.292.052-.438-.094-.438-.417 0-1.386.104-2.906.313l-1.657.281c-.146.02-.333-.042-.562-.188a1.89 1.89 0 0 1-.5-.5c-.104-.187-.084-.312.062-.374a.94.94 0 0 1 .5-.157H162l2.062-.062 2-.25c.105-.021.23-.052.376-.094.166-.063.322-.104.468-.125.209-.042.563.188 1.063.688a.39.39 0 0 1 .125.28c0 .126-.084.25-.25.376-.229.229-.375.427-.438.594-.021.104-.062.26-.125.468a6.948 6.948 0 0 0-.187.719.788.788 0 0 1 .187.531c0 .167-.052.292-.156.375-.083.063-.26.094-.531.094-.938.063-1.677.125-2.219.188-.542.041-1.198.145-1.969.312a10.063 10.063 0 0 1-.562 2.594c-.292.77-.698 1.354-1.219 1.75-.5.354-.844.531-1.031.531Zm13.968-14.344c.25 0 .376.115.376.344 0 .125-.115.302-.344.531-.625.771-1.865 2.24-3.719 4.406-.146.188-.281.282-.406.282-.104 0-.334-.156-.688-.469-.291-.25-.437-.458-.437-.625 0-.188.156-.365.468-.531.48-.271 1.198-.813 2.157-1.625.958-.854 1.666-1.531 2.125-2.031.187-.188.344-.282.468-.282Zm-29.781 21.813c0 .562-.187.844-.562.844-.25 0-.531-.094-.844-.282-.396-.229-.677-.427-.844-.594-.146-.166-.219-.385-.219-.656 0-.146.011-.26.032-.344.146-.77.218-1.395.218-1.874V72.061l-9.5.532c-.208.02-.479.031-.812.031-.458 0-.792-.073-1-.219a2.686 2.686 0 0 1-.719-1c-.166-.416-.25-.687-.25-.812s.063-.188.188-.188l.25.063c.312.104.739.156 1.281.156h.375l10.187-.563v-9.156c0-.541-.124-.99-.374-1.343-.105-.146-.157-.26-.157-.344 0-.146.146-.219.438-.219.271 0 .656.063 1.156.188.479.124.781.25.906.374.146.126.219.323.219.594v9.782l9.219-.532c.479-.02.906-.104 1.281-.25a.54.54 0 0 1 .219-.031c.312 0 .698.208 1.156.625.479.396.719.719.719.969a.478.478 0 0 1-.219.406c-.146.083-.344.135-.594.156l-11.781.656.031 13.907Zm68.75-17.594c-.333 0-.541-.094-.625-.281a4.346 4.346 0 0 0-.312-.625c-.104-.188-.292-.406-.563-.656l.063-.126c.75.271 1.239.407 1.468.407.167 0 .292-.031.376-.094.083-.063.218-.208.406-.438.271-.291.521-.74.75-1.343.312-.896.51-1.823.594-2.781v-.094c0-.125-.021-.209-.063-.25-.271 0-.99.062-2.156.187-.646 1.604-1.396 2.927-2.25 3.969-.834 1.02-1.594 1.531-2.281 1.531-.167 0-.25-.062-.25-.187 0-.042.208-.281.624-.719.417-.438.876-1.01 1.376-1.719.52-.729 1.01-1.625 1.468-2.687-.104 0-.406.02-.906.062a6.51 6.51 0 0 0-1.281.219.495.495 0 0 1-.531.063l-.063-.032a.488.488 0 0 1-.125-.093 1.359 1.359 0 0 1-.375-.313.831.831 0 0 1-.125-.406c0-.063.052-.146.156-.25l.375-.5c.125-.167.24-.407.344-.719.104-.333.156-.615.156-.844 0-.146-.01-.24-.031-.281a.346.346 0 0 1-.031-.156c0-.104.052-.157.156-.157.125 0 .302.073.531.22.063.04.177.124.344.25.188.103.292.228.312.374 0 .146-.083.386-.25.719l-.406.719a.39.39 0 0 0-.062.218c0 .063.021.115.062.157a.39.39 0 0 0 .219 0l1.875-.25a11.01 11.01 0 0 0 .5-1.719v-.718c0-.23.062-.324.188-.282.27.063.489.146.656.25.312.188.468.344.468.469 0 .104-.041.281-.124.531-.063.23-.115.406-.157.531-.021.084-.114.354-.281.813.062 0 .448-.042 1.156-.125l.313-.063c.062 0 .177-.02.343-.062a.35.35 0 0 1 .157-.032c.25 0 .406.01.469.032.083.02.208.083.374.187.188.125.313.25.376.375.062.125.083.271.062.438L215.812 63l-.218 1.125c0 .083-.073.354-.219.813a7.464 7.464 0 0 1-.5 1.218c-.354.709-.771 1.24-1.25 1.594-.417.333-.781.5-1.094.5Zm-4.062 5.219c-.229 0-.511-.177-.844-.531-.25-.25-.375-.438-.375-.563 0-.063.042-.094.125-.094.083-.02.187-.031.313-.031l.687-.031c.396 0 .656-.01.781-.031.396 0 .729-.01 1-.032 1.792-.166 3-.302 3.625-.406.313-.042.594-.083.844-.125.25-.063.448-.094.594-.094.291 0 .583.146.875.438.229.229.344.416.344.562 0 .125-.073.209-.219.25-.104.021-.719.063-1.844.125-.625.021-1.396.073-2.313.156-.916.084-1.718.167-2.406.25-.125.021-.302.053-.531.094a3.668 3.668 0 0 1-.656.063Zm7.343 12.312c-.02.021-.072.031-.156.031-.166 0-.406-.114-.718-.343a83.762 83.762 0 0 0-2.782-2.625 21.965 21.965 0 0 1-1.531 1.406 11.53 11.53 0 0 1-.875.563c-.604.354-1.188.572-1.75.656h-.188c-.187 0-.302-.021-.343-.063-.021-.02.021-.062.125-.125.125-.062.218-.114.281-.156.125-.063.479-.292 1.063-.688.291-.208.708-.562 1.25-1.062.541-.5.937-.906 1.187-1.219l-1.281-1a38.944 38.944 0 0 0-.75-.531 5.067 5.067 0 0 0-.532-.406l-.031-.094c0-.125.104-.188.313-.188.25 0 .656.157 1.218.47l1.594 1.03c.354-.458.709-.958 1.063-1.5.375-.562.573-.895.593-1 .021-.062.011-.114-.031-.156-.021-.062-.062-.094-.125-.094h-.625l-1.125.094c-.562.042-1.125.115-1.687.219a8.99 8.99 0 0 1-.313.094 1.405 1.405 0 0 1-.375.062c-.041 0-.219-.114-.531-.344-.292-.25-.448-.406-.469-.468-.021-.021-.031-.052-.031-.094 0-.104.115-.146.344-.125h.437c.584 0 1.427-.052 2.531-.156l1.063-.094.969-.125c.312-.083.489-.125.531-.125h.063c.104 0 .197.031.281.094a.786.786 0 0 1 .187.187.932.932 0 0 0 .094.125l.188.188a.494.494 0 0 1 .187.25.383.383 0 0 1 .063.219c0 .187-.073.322-.219.406-.104.041-.292.26-.563.656a29.33 29.33 0 0 1-1.656 2.344c.354.229.812.562 1.375 1 .25.166.656.448 1.219.844.25.187.437.437.562.75.084.333.125.583.125.75-.021.166-.093.28-.219.343Zm1.75-11.125c.105 0 .261.073.469.219-.021.042.021.125.125.25l.219.219c.104.104.208.229.313.375.124.146.26.302.406.469.375.395 1.239 1.427 2.594 3.093.229.334.343.531.343.594 0 .208-.125.313-.375.313-.146 0-.302-.105-.468-.313-.396-.417-1.105-1.073-2.126-1.969-.791-.729-1.51-1.291-2.156-1.687-.312-.146-.468-.313-.468-.5 0-.146.156-.354.468-.625.292-.292.511-.438.656-.438Zm-14.374 8.5c0 .25-.167.552-.5.906-.334.355-.667.532-1 .532-.271 0-.532-.156-.782-.469A188.93 188.93 0 0 0 197 79.187c-1.396-1.708-2.594-3.093-3.594-4.156-.166-.166-.25-.344-.25-.531 0-.313.146-.583.438-.813.312-.229.552-.343.718-.343.23 0 .48.135.75.406 2.313 2.25 4.928 5.156 7.844 8.719.188.25.282.479.282.687Zm-26.032-14.5c0-.146.084-.219.25-.219a.81.81 0 0 1 .25.032c.334.104.782.156 1.344.156h.375L200.5 67.5c.583-.042 1.042-.125 1.375-.25a.993.993 0 0 1 .281-.063c.146 0 .365.094.656.282.313.166.584.385.813.656.25.25.375.49.375.719a.507.507 0 0 1-.219.437 1.126 1.126 0 0 1-.562.188l-23.094 1.187c-.542.042-.896.063-1.063.063l-.468-.031a7.302 7.302 0 0 0-.282-.126c-.291-.208-.562-.52-.812-.937-.229-.438-.344-.76-.344-.969ZM177.594 85c0-.27.25-.688.75-1.25 2.562-2.813 4.718-5.77 6.468-8.875a2.86 2.86 0 0 0 .344-1.406c0-.334.104-.5.313-.5.166 0 .427.135.781.406.354.25.667.542.938.875.27.333.406.635.406.906 0 .125-.021.209-.063.25a38.676 38.676 0 0 1-3.812 4.813c-1.375 1.5-2.625 2.708-3.75 3.625-1.104.916-1.813 1.375-2.125 1.375-.167 0-.25-.073-.25-.219Zm8.031-23.813c0-.166.073-.406.219-.718.166-.313.364-.48.594-.5.208-.042 1.104.385 2.687 1.281a66.097 66.097 0 0 1 4.5 2.719c.333.208.531.437.594.687.021.271-.104.594-.375.969-.25.354-.479.552-.688.594-.229 0-.5-.125-.812-.375a49.407 49.407 0 0 0-3.156-2.219 41.629 41.629 0 0 0-3-1.844c-.355-.187-.542-.385-.563-.593Zm77.781 6.344a.664.664 0 0 1-.406-.312 1.027 1.027 0 0 1-.156-.25 1.228 1.228 0 0 0-.125-.313l-.157-.344-1.968.25-.75.126c-.188.02-.615.093-1.282.218-.27.042-.562.125-.874.25a.806.806 0 0 0-.219.125c-.084.063-.157.094-.219.094H257c-.208 0-.438-.135-.688-.406a1.367 1.367 0 0 0-.25-.25c-.083-.104-.124-.177-.124-.219 0-.167.072-.323.218-.469.313-.312.75-.948 1.313-1.906.208-.292.458-.719.75-1.281a26.94 26.94 0 0 0 .687-1.407c-.021.063.094-.218.344-.843.188-.521.281-.854.281-1 .042-.23.115-.344.219-.344.083 0 .26.115.531.344.229.187.407.375.531.562.146.188.219.334.219.438a.39.39 0 0 1-.062.218 1.081 1.081 0 0 1-.219.22 3.59 3.59 0 0 0-.312.374c-.271.354-.605.896-1 1.625l-.626 1.094-.468.781-.344.594-.219.344a.132.132 0 0 0 0 .125c.021.02.052.031.094.031l1.594-.188 2.875-.312-.25-.656a21.604 21.604 0 0 0-.375-.969c-.021-.02-.031-.063-.031-.125 0-.063.031-.094.093-.094.104 0 .229.063.375.188.167.104.417.323.75.656.25.208.459.448.625.719.188.27.302.427.344.469.187.27.281.53.281.78 0 .126-.041.334-.125.626-.062.166-.146.281-.25.344-.083.062-.208.093-.375.093Zm-.218 9.063c-.313 0-.615-.23-.907-.688a9.905 9.905 0 0 0-1.093-1.437l-.813-.844c-.437.5-.823.896-1.156 1.188a6.25 6.25 0 0 1-1.188.843c-.896.521-1.646.781-2.25.781-.146 0-.219-.052-.219-.156 0-.062.198-.198.594-.406a6.591 6.591 0 0 0 1.125-.75c.896-.75 1.636-1.52 2.219-2.313-.125-.124-.75-.666-1.875-1.624a10.426 10.426 0 0 1-.656-.532 7.616 7.616 0 0 1-.375-.281c-.188-.146-.282-.25-.282-.313 0-.104.053-.156.157-.156.312 0 .812.219 1.5.656.687.417 1.406.917 2.156 1.5.292-.354.521-.687.687-1 .167-.312.355-.697.563-1.156.104-.229.167-.427.187-.594a4.83 4.83 0 0 0 .032-.343c0-.23.062-.344.187-.344.146 0 .344.115.594.344.437.416.656.698.656.844 0 .083-.052.177-.156.28-.25.25-.479.584-.687 1-.126.25-.355.605-.688 1.063a2.76 2.76 0 0 0-.25.344 3.062 3.062 0 0 1-.188.281c.48.354 1.188.959 2.126 1.813.229.208.374.406.437.594.083.166.125.395.125.687a.89.89 0 0 1-.156.531.504.504 0 0 1-.406.188Zm-.75 9.469c-.084 0-.178-.042-.282-.126a3.108 3.108 0 0 1-.406-.312c-.729-.563-1.438-1.406-2.125-2.531a11.94 11.94 0 0 1-1.469-3.656 5.64 5.64 0 0 0-.094-.438 1.946 1.946 0 0 0-.124-.375c0-.02-.032-.031-.094-.031-.146 0-.427.094-.844.281-.125.063-.25.156-.375.281-.104.104-.219.146-.344.125-.083 0-.198-.052-.343-.156a1.46 1.46 0 0 1-.313-.281c-.208-.292-.313-.469-.313-.531 0-.126.115-.198.344-.22.313 0 .511-.01.594-.03a9.003 9.003 0 0 0 1.719-.407c.083-.02.198-.083.343-.187.021 0 .053-.01.094-.031.063-.021.136 0 .219.062.313.208.469.365.469.469 0 1.458.416 2.823 1.25 4.094.833 1.27 2.052 2.343 3.656 3.218.083.042.188.084.312.125.126.042.188.104.188.188 0 .104-.344.198-1.031.281l-.781.125-.25.063Zm3.124-11.407c.105 0 .261.073.469.219-.021.042.021.125.125.25l.219.219c.104.104.208.229.313.375.124.146.26.302.406.469.375.395 1.239 1.427 2.594 3.093.229.334.343.531.343.594 0 .208-.125.313-.375.313-.146 0-.302-.105-.468-.313-.396-.417-1.105-1.073-2.126-1.969-.791-.729-1.51-1.291-2.156-1.687-.312-.146-.468-.313-.468-.5 0-.146.156-.354.468-.625.292-.292.511-.438.656-.438Zm-23.281-3.437c.834 3.396 1.688 5.906 2.563 7.531.125-.167.385-.552.781-1.156.396-.604.771-1.271 1.125-2 .354-.75.531-1.365.531-1.844 0-.27.084-.406.25-.406.125 0 .313.083.563.25.271.146.5.333.687.562.209.23.313.448.313.656 0 .105-.156.48-.469 1.126a25.122 25.122 0 0 1-1.219 2.124c-.479.792-1.01 1.521-1.594 2.188.709 1.042 1.386 1.896 2.032 2.563.666.666 1.229 1.135 1.687 1.406.459.291.792.437 1 .437.167 0 .261-.062.281-.187.146-.563.303-1.302.469-2.219.167-.917.302-1.76.407-2.531.083-.771.239-1.156.468-1.156.334 0 .5 1.093.5 3.28 0 1.522-.031 2.605-.094 3.25-.062.667-.187 1.115-.374 1.344-.188.25-.5.376-.938.376-1.042 0-2.156-.47-3.344-1.407-1.166-.916-2.291-2.187-3.375-3.812A20.443 20.443 0 0 1 241.656 84c-.979.667-1.854 1.177-2.625 1.531-.75.354-1.239.531-1.469.531-.208 0-.312-.072-.312-.218 0-.209.229-.469.688-.781 2.354-1.584 4.25-3.198 5.687-4.844a28.22 28.22 0 0 1-1.594-3.563c-.479-1.312-.989-3.094-1.531-5.344l-10.094.5a40.756 40.756 0 0 1-.25 3.938c-.146 1.292-.344 2.354-.594 3.188-.5 1.666-1.093 3.083-1.781 4.25-.666 1.145-1.291 2.01-1.875 2.593-.583.584-.968.875-1.156.875-.125 0-.188-.083-.188-.25 0-.208.126-.5.376-.875 2.395-3.646 3.593-8.062 3.593-13.25v-.344c0-.687-.146-1.374-.437-2.062a.508.508 0 0 1-.063-.281c0-.146.084-.219.25-.219.354 0 1.084.27 2.188.813l9.625-.47-.156-.624a1.681 1.681 0 0 0-.563-.906c-.208-.167-.313-.313-.313-.438s.167-.188.5-.188c.542 0 1 .073 1.376.22.395.124.614.301.656.53l.281 1.313 2.344-.156c.666-.042 1.177-.125 1.531-.25a.994.994 0 0 1 .281-.063c.25 0 .5.094.75.281.25.167.448.365.594.594.167.23.25.406.25.531 0 .209-.25.334-.75.376l-4.594.28Zm-16.125-5.094c0-.125.063-.188.188-.188l.125.032c.312.083.708.125 1.187.125H228l5-.25-.094-2.938a6.324 6.324 0 0 0-.125-1.093 1.546 1.546 0 0 0-.343-.72c-.126-.166-.188-.29-.188-.374 0-.125.104-.188.312-.188.271 0 .615.073 1.032.219.458.167.76.313.906.438.146.124.219.333.219.624l.062 3.938 3.313-.156.062-4.625c0-.5-.021-.875-.062-1.125a1.31 1.31 0 0 0-.313-.688c-.125-.166-.187-.291-.187-.375 0-.125.114-.187.344-.187.291 0 .645.073 1.062.218.417.146.688.292.812.438.146.146.219.354.219.625L240 61.813l3.781-.25c.459-.021.865-.094 1.219-.22a.81.81 0 0 1 .25-.03c.208 0 .5.135.875.406.375.27.563.552.563.843 0 .23-.209.365-.626.407l-6.093.343-.031 2.188 8.031-.438c.396-.041.76-.104 1.093-.187h.094c.271 0 .594.156.969.469.375.291.563.552.563.781 0 .208-.219.333-.657.375l-21.5 1.094c-.208.02-.489.031-.843.031-.292 0-.573-.083-.844-.25-.271-.167-.49-.542-.656-1.125l-.032-.125Zm3.75 15.938c0-.167.115-.407.344-.72a13.374 13.374 0 0 0 1.469-2.374c.396-.792.593-1.427.593-1.906v-.25c0-.188.063-.282.188-.282.062 0 .219.073.469.219.271.125.51.292.719.5.229.208.343.427.343.656 0 .188-.271.656-.812 1.406a18.33 18.33 0 0 1-1.75 2.032c-.604.625-1.063.937-1.375.937-.125 0-.188-.073-.188-.219Zm.406 3.75c0-.084.053-.188.157-.313a2.38 2.38 0 0 1 .531-.313c4.021-1.854 6.771-4.28 8.25-7.28.083-.188.146-.365.188-.532.041-.188.062-.406.062-.656s.073-.375.219-.375c.187 0 .469.198.843.594.396.395.594.708.594.937 0 .104-.021.177-.062.219-1.084 2-2.427 3.625-4.032 4.875-1.583 1.229-3.552 2.219-5.906 2.969a1.602 1.602 0 0 1-.5.093c-.229 0-.344-.073-.344-.219ZM231 73.78c0-.104.062-.156.188-.156.083 0 .145.01.187.031.229.104.625.156 1.187.156h.376l4.624-.312c.459-.02.865-.094 1.219-.219.125-.041.229-.062.313-.062.25 0 .541.146.875.437.333.292.5.542.5.75 0 .23-.209.365-.625.406l-3 .188.062 2.406-.062 2.969a.663.663 0 0 1-.156.438c-.105.104-.25.156-.438.156-.292-.021-.583-.167-.875-.438-.271-.291-.406-.573-.406-.844l.031-.28c.104-.626.156-1.126.156-1.5l.032-.97.062-1.812-2.125.125-.406.031c-.521 0-.917-.135-1.188-.406a2.323 2.323 0 0 1-.5-.906.434.434 0 0 1-.031-.188ZM245.5 68c0-.167.073-.365.219-.594.146-.25.312-.375.5-.375.333 0 .937.24 1.812.719.875.458 1.615.865 2.219 1.219.354.208.531.427.531.656 0 .125-.083.344-.25.656-.146.313-.343.469-.593.469-.146 0-.396-.115-.75-.344a31.049 31.049 0 0 0-3.25-1.906c-.292-.125-.438-.292-.438-.5Z"/></svg>