<svg width="350" height="36" viewBox="0 0 350 36" fill="none" xmlns="http://www.w3.org/2000/svg">
<path d="M110.91 18.5C110.559 18.5 110.254 18.3711 109.996 18.1133C109.223 17.2695 108.438 16.5078 107.641 15.8281C106.75 15.0781 105.965 14.5156 105.285 14.1406C104.957 13.9531 104.793 13.6602 104.793 13.2617C104.793 13.1914 104.875 13.0977 105.039 12.9805C105.25 12.8398 105.59 12.5352 106.059 12.0664L107.324 10.8359C107.887 10.25 108.355 9.72266 108.73 9.25391C109.129 8.78516 109.352 8.45703 109.398 8.26953C109.422 8.22266 109.445 8.12891 109.469 7.98828C109.516 7.82422 109.586 7.74219 109.68 7.74219C109.797 7.74219 109.949 7.80078 110.137 7.91797C110.348 8.03516 110.523 8.15234 110.664 8.26953C111.016 8.59766 111.191 8.87891 111.191 9.11328C111.168 9.18359 111.074 9.26563 110.91 9.35938C110.77 9.42969 110.641 9.5 110.523 9.57031C110.406 9.66406 109.984 10.0391 109.258 10.6953L106.973 12.6641C106.574 12.9922 106.375 13.25 106.375 13.4375C106.375 13.5312 106.562 13.6836 106.938 13.8945C107.383 14.1758 108.25 14.75 109.539 15.6172C110.031 15.9453 110.5 16.3086 110.945 16.707C111.32 17.082 111.508 17.4688 111.508 17.8672C111.508 18.0547 111.426 18.2188 111.262 18.3594C111.168 18.4531 111.051 18.5 110.91 18.5ZM104.652 26.4805C104.395 26.4805 104.078 26.2812 103.703 25.8828C103.422 25.6016 103.281 25.3906 103.281 25.25C103.281 25.1797 103.328 25.1445 103.422 25.1445C103.516 25.1211 103.633 25.1094 103.773 25.1094L104.547 25.0742C104.992 25.0742 105.285 25.0625 105.426 25.0391C105.871 25.0391 106.246 25.0273 106.551 25.0039C108.566 24.8164 109.926 24.6641 110.629 24.5469C110.98 24.5 111.297 24.4531 111.578 24.4062C111.859 24.3359 112.082 24.3008 112.246 24.3008C112.574 24.3008 112.902 24.4648 113.23 24.793C113.488 25.0508 113.617 25.2617 113.617 25.4258C113.617 25.5664 113.535 25.6602 113.371 25.707C113.254 25.7305 112.562 25.7773 111.297 25.8477C110.594 25.8711 109.727 25.9297 108.695 26.0234C107.664 26.1172 106.762 26.2109 105.988 26.3047C105.848 26.3281 105.648 26.3633 105.391 26.4102C105.133 26.457 104.887 26.4805 104.652 26.4805ZM83.0664 26.5156V26.9375C83.0664 28.2031 83.207 29.1289 83.4883 29.7148C83.7695 30.2773 84.3086 30.6641 85.1055 30.875C85.9258 31.0625 87.25 31.1562 89.0781 31.1562C90.8594 31.1562 92.4883 31.0508 93.9648 30.8398C95.4414 30.6055 96.5312 30.3242 97.2344 29.9961C97.375 29.9258 97.5156 29.8906 97.6562 29.8906C97.7969 29.8906 98.0664 30.0078 98.4648 30.2422C98.8633 30.4531 99.2148 30.7109 99.5195 31.0156C99.8477 31.2969 100.012 31.5312 100.012 31.7188C100.012 31.9062 99.918 32.0586 99.7305 32.1758C99.543 32.3164 99.2734 32.4102 98.9219 32.457C95.2188 33.0664 91.7148 33.3711 88.4102 33.3711C86.1602 33.3711 84.4961 33.1953 83.418 32.8438C82.3398 32.5156 81.6016 31.9297 81.2031 31.0859C80.8281 30.2188 80.6406 28.9062 80.6406 27.1484V26.9023L80.7109 20.3984L72.625 21.7344C71.6875 21.8984 71.1016 21.9805 70.8672 21.9805C70.4688 21.9805 70.0938 21.8164 69.7422 21.4883C69.3906 21.1367 69.1094 20.7852 68.8984 20.4336C68.8047 20.3164 68.7578 20.1992 68.7578 20.082C68.7578 19.8945 68.8867 19.8008 69.1445 19.8008H69.2148C69.3789 19.8242 69.6133 19.8359 69.918 19.8359C70.4805 19.8359 71.0781 19.7773 71.7109 19.6602L80.7461 18.2188L80.8516 7.39062C80.8516 6.71094 80.6875 6.10156 80.3594 5.5625C80.2891 5.44531 80.2539 5.36328 80.2539 5.31641C80.2539 5.12891 80.4297 5.03516 80.7812 5.03516C80.9453 5.05859 81.2266 5.11719 81.625 5.21094C82.0234 5.30469 82.3984 5.44531 82.75 5.63281C83.1016 5.82031 83.2773 6.05469 83.2773 6.33594L83.1719 17.832L95.2656 15.8984C96.0625 15.7812 96.8477 15.5234 97.6211 15.125C97.8555 15.0078 98.0547 14.9492 98.2188 14.9492C98.4297 14.9492 98.7227 15.043 99.0977 15.2305C99.4727 15.418 99.8008 15.6523 100.082 15.9336C100.363 16.1914 100.504 16.4375 100.504 16.6719C100.504 17 100.211 17.2109 99.625 17.3047L83.1367 20.0117L83.0664 26.5156ZM162.414 18.1484C162.273 18.1484 162.086 17.9961 161.852 17.6914C161.617 17.3633 161.512 17.082 161.535 16.8477C161.582 16.6602 161.617 16.1328 161.641 15.2656C161.664 14.6797 161.676 13.6484 161.676 12.1719C161.676 11.1406 161.664 10.4492 161.641 10.0977L160.48 10.2031C159.66 10.3203 158.957 10.3789 158.371 10.3789C158.207 10.3789 157.973 10.25 157.668 9.99219C157.363 9.73437 157.211 9.54688 157.211 9.42969C157.211 9.24219 157.41 9.17187 157.809 9.21875C158.066 9.24219 158.828 9.23047 160.094 9.18359C161.828 9.06641 163.082 8.99609 163.855 8.97266C164.254 8.94922 164.617 8.91406 164.945 8.86719C165.297 8.79688 165.543 8.75 165.684 8.72656C165.895 8.70313 166.082 8.72656 166.246 8.79688C166.41 8.86719 166.562 8.96094 166.703 9.07812C166.867 9.17187 166.996 9.24219 167.09 9.28906C167.301 9.42969 167.406 9.55859 167.406 9.67578C167.406 9.76953 167.348 9.86328 167.23 9.95703C167.137 10.0273 167.031 10.0625 166.914 10.0625C166.797 10.0625 166.633 10.0508 166.422 10.0273C166.234 10.0039 166.023 9.99219 165.789 9.99219C164.922 9.99219 164.031 10.0156 163.117 10.0625C163.094 10.25 163.082 10.7187 163.082 11.4688C163.035 12.7344 163.012 13.9766 163.012 15.1953V16.5664V16.8828C163.012 17.2812 162.977 17.5391 162.906 17.6562C162.695 17.9844 162.531 18.1484 162.414 18.1484ZM158.652 26.4805C158.395 26.4805 158.078 26.2812 157.703 25.8828C157.422 25.6016 157.281 25.3906 157.281 25.25C157.281 25.1797 157.328 25.1445 157.422 25.1445C157.516 25.1211 157.633 25.1094 157.773 25.1094L158.547 25.0742C158.992 25.0742 159.285 25.0625 159.426 25.0391C159.871 25.0391 160.246 25.0273 160.551 25.0039C162.566 24.8164 163.926 24.6641 164.629 24.5469C164.98 24.5 165.297 24.4531 165.578 24.4062C165.859 24.3359 166.082 24.3008 166.246 24.3008C166.574 24.3008 166.902 24.4648 167.23 24.793C167.488 25.0508 167.617 25.2617 167.617 25.4258C167.617 25.5664 167.535 25.6602 167.371 25.707C167.254 25.7305 166.562 25.7773 165.297 25.8477C164.594 25.8711 163.727 25.9297 162.695 26.0234C161.664 26.1172 160.762 26.2109 159.988 26.3047C159.848 26.3281 159.648 26.3633 159.391 26.4102C159.133 26.457 158.887 26.4805 158.652 26.4805ZM168.883 17.6211C169 17.6211 169.176 17.7031 169.41 17.8672C169.387 17.9141 169.434 18.0078 169.551 18.1484C169.668 18.2656 169.75 18.3477 169.797 18.3945C169.914 18.5117 170.031 18.6523 170.148 18.8164C170.289 18.9805 170.441 19.1562 170.605 19.3438C171.027 19.7891 172 20.9492 173.523 22.8242C173.781 23.1992 173.91 23.4219 173.91 23.4922C173.91 23.7266 173.77 23.8438 173.488 23.8438C173.324 23.8438 173.148 23.7266 172.961 23.4922C172.516 23.0234 171.719 22.2852 170.57 21.2773C169.68 20.457 168.871 19.8242 168.145 19.3789C167.793 19.2148 167.617 19.0273 167.617 18.8164C167.617 18.6523 167.793 18.418 168.145 18.1133C168.473 17.7852 168.719 17.6211 168.883 17.6211ZM137.277 12.4531C135.895 14.3047 134.371 16.0391 132.707 17.6562C131.066 19.2734 129.578 20.5742 128.242 21.5586C126.93 22.5195 126.098 23 125.746 23C125.582 23 125.5 22.918 125.5 22.7539C125.5 22.543 125.688 22.25 126.062 21.875C128.945 19.2031 131.336 16.6367 133.234 14.1758C135.133 11.6914 136.527 9.57031 137.418 7.8125C138.309 6.05469 138.754 4.85938 138.754 4.22656L138.719 3.83984V3.69922C138.719 3.39453 138.848 3.24219 139.105 3.24219C139.504 3.24219 140.008 3.44141 140.617 3.83984C141.25 4.23828 141.566 4.61328 141.566 4.96484C141.566 5.24609 141.273 5.9375 140.688 7.03906C140.125 8.14063 139.516 9.19531 138.859 10.2031L148.809 9.57031C148.973 9.54688 149.207 9.53516 149.512 9.53516C150.004 9.53516 150.461 9.67578 150.883 9.95703C151.305 10.2148 151.516 10.5195 151.516 10.8711C151.516 11.0586 151.457 11.2578 151.34 11.4688C151.223 11.6563 151.141 11.7852 151.094 11.8555C148.422 17.3867 144.977 22.1211 140.758 26.0586C136.539 29.9727 131.547 33.0195 125.781 35.1992C125.43 35.3164 125.184 35.375 125.043 35.375C124.738 35.375 124.586 35.2812 124.586 35.0938C124.586 34.8359 124.855 34.5664 125.395 34.2852C128.137 32.8555 130.68 31.2852 133.023 29.5742C135.367 27.8398 137.664 25.8594 139.914 23.6328C138.344 21.9688 136.621 20.3516 134.746 18.7812C134.488 18.5703 134.359 18.3594 134.359 18.1484C134.359 17.9141 134.5 17.6211 134.781 17.2695C135.062 16.918 135.32 16.7422 135.555 16.7422C136.047 16.7422 138.039 18.418 141.531 21.7695C144.367 18.5117 146.547 15.1836 148.07 11.7852L137.277 12.4531ZM212.652 14.1758C212.395 14.1758 212.078 13.9766 211.703 13.5781C211.422 13.2969 211.281 13.0859 211.281 12.9453C211.281 12.875 211.328 12.8398 211.422 12.8398C211.516 12.8164 211.633 12.8047 211.773 12.8047L212.547 12.7695C212.992 12.7695 213.285 12.7578 213.426 12.7344C213.871 12.7344 214.246 12.7227 214.551 12.6992C216.566 12.5117 217.926 12.3594 218.629 12.2422C218.98 12.1953 219.297 12.1484 219.578 12.1016C219.859 12.0312 220.082 11.9961 220.246 11.9961C220.574 11.9961 220.902 12.1602 221.23 12.4883C221.488 12.7461 221.617 12.957 221.617 13.1211C221.617 13.2617 221.535 13.3555 221.371 13.4023C221.254 13.4258 220.562 13.4727 219.297 13.543C218.594 13.5664 217.727 13.625 216.695 13.7188C215.664 13.8125 214.762 13.9063 213.988 14C213.848 14.0234 213.648 14.0586 213.391 14.1055C213.133 14.1523 212.887 14.1758 212.652 14.1758ZM220.914 30.1367C220.891 30.1602 220.832 30.1719 220.738 30.1719C220.551 30.1719 220.281 30.043 219.93 29.7852C219.133 28.9883 218.09 28.0039 216.801 26.832C216.191 27.4414 215.617 27.9688 215.078 28.4141C214.891 28.5547 214.562 28.7656 214.094 29.0469C213.414 29.4453 212.758 29.6914 212.125 29.7852H211.914C211.703 29.7852 211.574 29.7617 211.527 29.7148C211.504 29.6914 211.551 29.6445 211.668 29.5742C211.809 29.5039 211.914 29.4453 211.984 29.3984C212.125 29.3281 212.523 29.0703 213.18 28.625C213.508 28.3906 213.977 27.9922 214.586 27.4297C215.195 26.8672 215.641 26.4102 215.922 26.0586L214.48 24.9336C214.223 24.7461 213.941 24.5469 213.637 24.3359C213.355 24.1016 213.156 23.9492 213.039 23.8789L213.004 23.7734C213.004 23.6328 213.121 23.5625 213.355 23.5625C213.637 23.5625 214.094 23.7383 214.727 24.0898L216.52 25.25C216.918 24.7344 217.316 24.1719 217.715 23.5625C218.137 22.9297 218.359 22.5547 218.383 22.4375C218.406 22.3672 218.395 22.3086 218.348 22.2617C218.324 22.1914 218.277 22.1562 218.207 22.1562H217.504L216.238 22.2617C215.605 22.3086 214.973 22.3906 214.34 22.5078C214.27 22.5312 214.152 22.5664 213.988 22.6133C213.824 22.6602 213.684 22.6836 213.566 22.6836C213.52 22.6836 213.32 22.5547 212.969 22.2969C212.641 22.0156 212.465 21.8398 212.441 21.7695C212.418 21.7461 212.406 21.7109 212.406 21.6641C212.406 21.5469 212.535 21.5 212.793 21.5234C213.051 21.5234 213.215 21.5234 213.285 21.5234C213.941 21.5234 214.891 21.4648 216.133 21.3477L217.328 21.2422L218.418 21.1016C218.77 21.0078 218.969 20.9609 219.016 20.9609H219.086C219.203 20.9609 219.309 20.9961 219.402 21.0664C219.496 21.1367 219.566 21.207 219.613 21.2773C219.66 21.3477 219.695 21.3945 219.719 21.418C219.742 21.4414 219.812 21.5117 219.93 21.6289C220.047 21.7227 220.117 21.8164 220.141 21.9102C220.188 21.9805 220.211 22.0625 220.211 22.1562C220.211 22.3672 220.129 22.5195 219.965 22.6133C219.848 22.6602 219.637 22.9062 219.332 23.3516C218.816 24.1719 218.195 25.0508 217.469 25.9883C217.867 26.2461 218.383 26.6211 219.016 27.1133C219.297 27.3008 219.754 27.6172 220.387 28.0625C220.668 28.2734 220.879 28.5547 221.02 28.9062C221.113 29.2812 221.16 29.5625 221.16 29.75C221.137 29.9375 221.055 30.0664 220.914 30.1367ZM227.383 14.8086C227.664 14.8086 227.805 14.9375 227.805 15.1953C227.805 15.3359 227.676 15.5352 227.418 15.793C226.715 16.6602 225.32 18.3125 223.234 20.75C223.07 20.9609 222.918 21.0664 222.777 21.0664C222.66 21.0664 222.402 20.8906 222.004 20.5391C221.676 20.2578 221.512 20.0234 221.512 19.8359C221.512 19.625 221.688 19.4258 222.039 19.2383C222.578 18.9336 223.387 18.3242 224.465 17.4102C225.543 16.4492 226.34 15.6875 226.855 15.125C227.066 14.9141 227.242 14.8086 227.383 14.8086ZM206.852 35.0234C204.156 35.0234 200.898 34.707 197.078 34.0742C193.281 33.4414 189.215 32.668 184.879 31.7539C183.52 31.4727 182.43 31.332 181.609 31.332C180.461 31.332 179.254 31.543 177.988 31.9648C177.777 32.0352 177.59 32.0703 177.426 32.0703C176.84 32.0703 176.547 31.5664 176.547 30.5586C176.547 30.3711 176.605 30.2305 176.723 30.1367C176.84 30.0195 177.074 29.9258 177.426 29.8555C177.777 29.7617 178.34 29.6562 179.113 29.5391C180.707 28.0859 182.066 26.6562 183.191 25.25C183.238 25.1562 183.262 25.0977 183.262 25.0742C183.262 24.9336 183.004 24.6641 182.488 24.2656C181.996 23.8438 181.398 23.3984 180.695 22.9297C180.086 22.5312 179.781 22.0742 179.781 21.5586C179.781 21.1602 179.98 20.6562 180.379 20.0469L182.629 16.7773L179.395 17.1992L178.656 17.2695C178.164 17.2695 177.754 17.082 177.426 16.707C177.098 16.332 176.887 15.957 176.793 15.582C176.77 15.5352 176.758 15.4648 176.758 15.3711C176.758 15.207 176.828 15.125 176.969 15.125L177.18 15.1602C177.531 15.2305 177.883 15.2656 178.234 15.2656C178.469 15.2656 178.645 15.2539 178.762 15.2305L184 14.668L184.352 14.6328C184.422 14.6328 184.574 14.6914 184.809 14.8086C185.043 14.9023 185.254 15.043 185.441 15.2305C185.629 15.3945 185.723 15.582 185.723 15.793C185.723 16.0039 185.629 16.2031 185.441 16.3906C185.254 16.5547 185.137 16.6719 185.09 16.7422C185.043 16.8125 184.492 17.5391 183.438 18.9219C182.383 20.2812 181.855 21.0547 181.855 21.2422C181.855 21.3359 181.914 21.418 182.031 21.4883C182.805 21.9805 183.707 22.707 184.738 23.668C185.184 24.0664 185.406 24.5352 185.406 25.0742C185.406 25.5664 185.195 26.0469 184.773 26.5156C183.391 27.9922 182.465 28.9531 181.996 29.3984C182.887 29.4219 183.953 29.5508 185.195 29.7852C195.227 31.7773 202.785 32.7734 207.871 32.7734H208.047C208.586 32.7734 208.855 32.8789 208.855 33.0898C208.855 33.1602 208.773 33.3594 208.609 33.6875C208.469 34.0156 208.27 34.3203 208.012 34.6016C207.754 34.8828 207.449 35.0234 207.098 35.0234H206.852ZM178.691 6.54688C178.691 6.35937 178.844 6.14844 179.148 5.91406C179.453 5.67969 179.699 5.5625 179.887 5.5625C180.121 5.5625 180.672 5.97266 181.539 6.79297C182.43 7.61328 183.262 8.49219 184.035 9.42969C184.832 10.3438 185.23 10.918 185.23 11.1523C185.23 11.3867 185.066 11.668 184.738 11.9961C184.434 12.3242 184.129 12.4883 183.824 12.4883C183.543 12.4883 183.262 12.2656 182.98 11.8203C181.855 10.2031 180.566 8.67969 179.113 7.25C178.832 6.96875 178.691 6.73438 178.691 6.54688ZM184.844 28.6602C184.844 28.3789 184.996 28.0156 185.301 27.5703C186.613 25.4375 187.574 23.1289 188.184 20.6445C188.816 18.1367 189.203 15.2422 189.344 11.9609L188.113 12.0664C187.926 12.0898 187.691 12.1016 187.41 12.1016C187.012 12.1016 186.707 12.0195 186.496 11.8555C186.168 11.5039 185.934 11.0586 185.793 10.5195C185.77 10.4727 185.758 10.4141 185.758 10.3438C185.758 10.25 185.816 10.2031 185.934 10.2031H186.004C186.191 10.2031 186.449 10.2266 186.777 10.2734C187.105 10.3203 187.363 10.3438 187.551 10.3438H187.867L192.965 9.99219C193.387 9.96875 193.867 9.85156 194.406 9.64062C194.477 9.59375 194.594 9.57031 194.758 9.57031C195.062 9.57031 195.426 9.74609 195.848 10.0977C196.293 10.4492 196.516 10.7305 196.516 10.9414C196.516 11.0586 196.445 11.1641 196.305 11.2578C196.164 11.3516 195.977 11.4102 195.742 11.4336L191.383 11.8203C191.289 13.1328 191.195 14.1055 191.102 14.7383L193.773 14.5977H194.055C194.43 14.5977 194.734 14.6797 194.969 14.8438C195.367 15.1953 195.566 15.5117 195.566 15.793C195.566 15.8867 195.543 16.0156 195.496 16.1797C195.449 16.3438 195.414 16.5078 195.391 16.6719C195.25 20.3281 194.922 23.6914 194.406 26.7617C194.195 27.957 193.844 28.7656 193.352 29.1875C192.859 29.6094 192.449 29.8203 192.121 29.8203C191.441 29.8203 190.469 28.8008 189.203 26.7617C188.992 26.4336 188.887 26.1875 188.887 26.0234C188.887 25.8594 188.969 25.7773 189.133 25.7773C189.297 25.7773 189.543 25.9062 189.871 26.1641C190.574 26.7266 191.184 27.125 191.699 27.3594C191.723 27.3828 191.77 27.3945 191.84 27.3945C191.98 27.3945 192.074 27.3359 192.121 27.2188C192.543 25.6016 192.836 23.9375 193 22.2266C193.188 20.5156 193.328 18.5703 193.422 16.3906L190.891 16.4961C190.562 19.0039 190.023 21.1953 189.273 23.0703C188.547 24.9219 187.48 26.6445 186.074 28.2383C185.629 28.707 185.301 28.9414 185.09 28.9414C184.926 28.9414 184.844 28.8477 184.844 28.6602ZM188.395 5.17578C188.395 4.96484 188.5 4.74219 188.711 4.50781C188.945 4.25 189.168 4.12109 189.379 4.12109C189.566 4.12109 190.059 4.39062 190.855 4.92969C191.676 5.44531 192.438 5.99609 193.141 6.58203C193.844 7.16797 194.195 7.57813 194.195 7.8125C194.195 8 194.066 8.26953 193.809 8.62109C193.551 8.94922 193.293 9.11328 193.035 9.11328C192.918 9.11328 192.789 9.06641 192.648 8.97266C192.531 8.85547 192.426 8.76172 192.332 8.69141C192.262 8.59766 192.203 8.52734 192.156 8.48047C191.734 8.03516 191.301 7.63672 190.855 7.28516C190.434 6.93359 190.023 6.62891 189.625 6.37109C189.25 6.08984 188.992 5.90234 188.852 5.80859C188.547 5.57422 188.395 5.36328 188.395 5.17578ZM195.707 14.3164C195.707 14.1523 195.801 13.8594 195.988 13.4375C196.621 12.2422 197.16 11 197.605 9.71094C198.074 8.39844 198.426 7.25 198.66 6.26562C198.918 5.25781 199.047 4.66016 199.047 4.47266C199.047 4.21484 199 3.98047 198.906 3.76953C198.883 3.72266 198.871 3.65234 198.871 3.55859C198.871 3.37109 198.977 3.27734 199.188 3.27734C199.352 3.27734 199.609 3.33594 199.961 3.45312C200.312 3.57031 200.617 3.73438 200.875 3.94531C201.156 4.15625 201.297 4.39062 201.297 4.64844C201.297 4.74219 201.285 4.8125 201.262 4.85938C200.957 5.89063 200.547 7.03906 200.031 8.30469L204.109 7.88281C204.18 7.88281 204.344 7.87109 204.602 7.84766C204.859 7.82422 205.152 7.75391 205.48 7.63672C205.621 7.58984 205.715 7.56641 205.762 7.56641C206.043 7.56641 206.383 7.74219 206.781 8.09375C207.18 8.44531 207.379 8.72656 207.379 8.9375C207.379 9.24219 207.168 9.41797 206.746 9.46484L199.258 10.0273C198.93 10.6602 198.496 11.4219 197.957 12.3125C197.934 12.3359 197.945 12.3477 197.992 12.3477C198.039 12.3242 198.086 12.3125 198.133 12.3125H198.238C198.52 12.4062 198.836 12.4531 199.188 12.4531L199.715 12.418L204.391 12.0312H204.602C204.812 12.0312 205.105 12.1133 205.48 12.2773C205.879 12.4414 206.078 12.6641 206.078 12.9453C206.078 13.1797 205.973 13.4023 205.762 13.6133C205.574 13.8008 205.469 13.918 205.445 13.9648C204.578 15.2773 203.547 16.5078 202.352 17.6562C202.656 18.3594 202.891 19.1094 203.055 19.9062L204.707 19.8008C205.27 19.7773 205.785 19.6953 206.254 19.5547C206.395 19.5078 206.477 19.4844 206.5 19.4844C206.734 19.4844 207.051 19.6484 207.449 19.9766C207.848 20.2812 208.047 20.5742 208.047 20.8555C208.047 21.1602 207.812 21.3359 207.344 21.3828L203.336 21.6289C203.547 22.918 203.652 24.3008 203.652 25.7773C203.652 27.6758 203.453 29.0469 203.055 29.8906C202.68 30.7344 202.176 31.1562 201.543 31.1562C201.121 31.1562 200.594 30.8984 199.961 30.3828C199.328 29.8438 198.766 29.2461 198.273 28.5898C197.781 27.9336 197.535 27.4766 197.535 27.2188C197.535 27.0781 197.605 27.0078 197.746 27.0078C197.957 27.0078 198.273 27.1484 198.695 27.4297C199.961 28.2734 200.723 28.6953 200.98 28.6953C201.191 28.6953 201.309 28.5898 201.332 28.3789C201.566 27.207 201.684 25.9648 201.684 24.6523C201.684 23.6211 201.613 22.6484 201.473 21.7344L198.73 21.9102L198.133 21.9453C197.477 21.9453 196.996 21.7812 196.691 21.4531C196.41 21.1016 196.223 20.7266 196.129 20.3281L196.094 20.1875C196.094 20.0703 196.164 20.0117 196.305 20.0117L196.48 20.0469C196.996 20.1641 197.477 20.2227 197.922 20.2227H198.238L201.086 20.0117C200.805 18.9805 200.383 17.9727 199.82 16.9883C199.75 16.8477 199.715 16.7305 199.715 16.6367C199.715 16.4492 199.867 16.2617 200.172 16.0742C200.5 15.8633 200.77 15.7578 200.98 15.7578C201.215 15.7578 201.414 15.8984 201.578 16.1797C202.305 15.3594 202.902 14.5391 203.371 13.7188L200.277 14.0703L199.434 14.1406C199.082 14.1406 198.777 14.0469 198.52 13.8594C198.285 13.6719 198.074 13.2617 197.887 12.6289C197.863 12.582 197.852 12.5117 197.852 12.418C197.5 13.0039 197.137 13.5195 196.762 13.9648C196.387 14.3867 196.105 14.5977 195.918 14.5977C195.777 14.5977 195.707 14.5039 195.707 14.3164ZM270.414 18.1484C270.273 18.1484 270.086 17.9961 269.852 17.6914C269.617 17.3633 269.512 17.082 269.535 16.8477C269.582 16.6602 269.617 16.1328 269.641 15.2656C269.664 14.6797 269.676 13.6484 269.676 12.1719C269.676 11.1406 269.664 10.4492 269.641 10.0977L268.48 10.2031C267.66 10.3203 266.957 10.3789 266.371 10.3789C266.207 10.3789 265.973 10.25 265.668 9.99219C265.363 9.73437 265.211 9.54688 265.211 9.42969C265.211 9.24219 265.41 9.17187 265.809 9.21875C266.066 9.24219 266.828 9.23047 268.094 9.18359C269.828 9.06641 271.082 8.99609 271.855 8.97266C272.254 8.94922 272.617 8.91406 272.945 8.86719C273.297 8.79688 273.543 8.75 273.684 8.72656C273.895 8.70313 274.082 8.72656 274.246 8.79688C274.41 8.86719 274.562 8.96094 274.703 9.07812C274.867 9.17187 274.996 9.24219 275.09 9.28906C275.301 9.42969 275.406 9.55859 275.406 9.67578C275.406 9.76953 275.348 9.86328 275.23 9.95703C275.137 10.0273 275.031 10.0625 274.914 10.0625C274.797 10.0625 274.633 10.0508 274.422 10.0273C274.234 10.0039 274.023 9.99219 273.789 9.99219C272.922 9.99219 272.031 10.0156 271.117 10.0625C271.094 10.25 271.082 10.7187 271.082 11.4688C271.035 12.7344 271.012 13.9766 271.012 15.1953V16.5664V16.8828C271.012 17.2812 270.977 17.5391 270.906 17.6562C270.695 17.9844 270.531 18.1484 270.414 18.1484ZM266.652 26.4805C266.395 26.4805 266.078 26.2812 265.703 25.8828C265.422 25.6016 265.281 25.3906 265.281 25.25C265.281 25.1797 265.328 25.1445 265.422 25.1445C265.516 25.1211 265.633 25.1094 265.773 25.1094L266.547 25.0742C266.992 25.0742 267.285 25.0625 267.426 25.0391C267.871 25.0391 268.246 25.0273 268.551 25.0039C270.566 24.8164 271.926 24.6641 272.629 24.5469C272.98 24.5 273.297 24.4531 273.578 24.4062C273.859 24.3359 274.082 24.3008 274.246 24.3008C274.574 24.3008 274.902 24.4648 275.23 24.793C275.488 25.0508 275.617 25.2617 275.617 25.4258C275.617 25.5664 275.535 25.6602 275.371 25.707C275.254 25.7305 274.562 25.7773 273.297 25.8477C272.594 25.8711 271.727 25.9297 270.695 26.0234C269.664 26.1172 268.762 26.2109 267.988 26.3047C267.848 26.3281 267.648 26.3633 267.391 26.4102C267.133 26.457 266.887 26.4805 266.652 26.4805ZM276.883 17.6211C277 17.6211 277.176 17.7031 277.41 17.8672C277.387 17.9141 277.434 18.0078 277.551 18.1484C277.668 18.2656 277.75 18.3477 277.797 18.3945C277.914 18.5117 278.031 18.6523 278.148 18.8164C278.289 18.9805 278.441 19.1562 278.605 19.3438C279.027 19.7891 280 20.9492 281.523 22.8242C281.781 23.1992 281.91 23.4219 281.91 23.4922C281.91 23.7266 281.77 23.8438 281.488 23.8438C281.324 23.8438 281.148 23.7266 280.961 23.4922C280.516 23.0234 279.719 22.2852 278.57 21.2773C277.68 20.457 276.871 19.8242 276.145 19.3789C275.793 19.2148 275.617 19.0273 275.617 18.8164C275.617 18.6523 275.793 18.418 276.145 18.1133C276.473 17.7852 276.719 17.6211 276.883 17.6211ZM241.27 14.5977C241.27 14.9492 241.398 15.2188 241.656 15.4062C241.938 15.5938 242.477 15.6875 243.273 15.6875C244.188 15.6875 244.926 15.6172 245.488 15.4766C246.051 15.3359 246.426 15.1953 246.613 15.0547C246.684 15.0078 246.777 14.9844 246.895 14.9844C247.129 14.9844 247.387 15.1719 247.668 15.5469C247.949 15.8984 248.09 16.1797 248.09 16.3906C248.09 16.625 247.867 16.7773 247.422 16.8477C245.359 17.082 243.836 17.1992 242.852 17.1992C241.516 17.1992 240.602 17.0469 240.109 16.7422C239.617 16.4375 239.371 15.8633 239.371 15.0195V14.8086L239.406 14.2109L238.457 14.3164C238.246 14.3398 237.977 14.3516 237.648 14.3516C237.016 14.3516 236.582 14.1641 236.348 13.7891C236.113 13.4141 235.996 13.1211 235.996 12.9102C235.996 12.8164 236.055 12.7695 236.172 12.7695L236.348 12.8047C236.676 12.875 237.016 12.9102 237.367 12.9102C237.672 12.9102 237.906 12.8984 238.07 12.875L239.477 12.7344L239.582 10.9062L235.855 11.1172C235.832 11.4922 235.82 12.0547 235.82 12.8047C235.797 13.2969 235.75 14.457 235.68 16.2852C235.633 18.1133 235.539 19.7188 235.398 21.1016C235.188 23.4453 234.754 25.6133 234.098 27.6055C233.441 29.5742 232.75 31.1445 232.023 32.3164C231.32 33.5117 230.805 34.1094 230.477 34.1094C230.289 34.1094 230.195 33.9688 230.195 33.6875C230.195 33.3828 230.289 33.043 230.477 32.668C231.719 30.043 232.539 27.1367 232.938 23.9492C233.336 20.7383 233.57 16.9766 233.641 12.6641V11.7852C233.641 10.7539 233.523 9.92188 233.289 9.28906C233.195 9.00781 233.148 8.83203 233.148 8.76172C233.148 8.62109 233.219 8.55078 233.359 8.55078C233.688 8.55078 234.578 8.91406 236.031 9.64062L239.688 9.39453L239.758 5.35156C239.758 4.97656 239.711 4.66016 239.617 4.40234C239.547 4.12109 239.418 3.82812 239.23 3.52344L239.16 3.34766C239.16 3.23047 239.277 3.17188 239.512 3.17188C240.168 3.19531 240.719 3.3125 241.164 3.52344C241.609 3.71094 241.832 3.99219 241.832 4.36719L241.797 6.01953L243.977 5.87891C244.562 5.85547 245.09 5.73828 245.559 5.52734C245.746 5.45703 245.922 5.42188 246.086 5.42188C246.391 5.42188 246.754 5.58594 247.176 5.91406C247.621 6.24219 247.844 6.53516 247.844 6.79297C247.844 7.05078 247.527 7.20312 246.895 7.25L241.762 7.56641V9.25391L248.055 8.79688H248.406C248.781 8.79688 249.133 8.9375 249.461 9.21875C249.812 9.47656 249.988 9.72266 249.988 9.95703C249.988 10.1211 249.883 10.3086 249.672 10.5195C249.461 10.7305 249.32 10.8828 249.25 10.9766C247.984 12.8984 247.105 13.8594 246.613 13.8594C246.449 13.8594 246.367 13.7539 246.367 13.543C246.367 13.3555 246.461 13.0508 246.648 12.6289C246.859 12.1836 247.094 11.457 247.352 10.4492L241.516 10.8008L241.375 12.5234L242.605 12.418C243.309 12.3242 243.871 12.2188 244.293 12.1016C244.363 12.0781 244.457 12.0664 244.574 12.0664C244.645 12.0664 244.797 12.125 245.031 12.2422C245.266 12.3359 245.477 12.4766 245.664 12.6641C245.852 12.8281 245.945 13.0039 245.945 13.1914C245.945 13.3086 245.898 13.4141 245.805 13.5078C245.711 13.6016 245.582 13.6484 245.418 13.6484L241.27 14.0352V14.5977ZM233.57 32.0703C233.57 31.9062 233.664 31.8242 233.852 31.8242C233.945 31.8242 234.016 31.8359 234.062 31.8594C234.438 31.9531 234.836 32 235.258 32C235.562 32 236.336 31.9062 237.578 31.7188C238.844 31.5312 240.391 31.2617 242.219 30.9102C242.57 30.4883 242.957 29.9141 243.379 29.1875C243.824 28.4375 244.047 27.8047 244.047 27.2891V27.1133C244.047 26.8789 244.129 26.7617 244.293 26.7617C244.551 26.7617 244.914 26.9492 245.383 27.3242C245.875 27.6992 246.121 28.0273 246.121 28.3086C246.121 28.4258 245.922 28.7305 245.523 29.2227C245.148 29.6914 244.809 30.0781 244.504 30.3828C245.957 30.0547 247.352 29.6914 248.688 29.293C248.828 29.2461 249.004 29.2227 249.215 29.2227C249.379 29.2227 249.496 29.2578 249.566 29.3281C249.66 29.375 249.707 29.4453 249.707 29.5391C249.707 29.7969 249.426 30.043 248.863 30.2773C246.637 31.1211 244.539 31.8125 242.57 32.3516C240.602 32.9141 238.984 33.3242 237.719 33.582C236.453 33.8398 235.738 33.9688 235.574 33.9688C235.223 33.9688 234.895 33.8398 234.59 33.582C234.285 33.3477 234.039 33.0664 233.852 32.7383C233.664 32.4336 233.57 32.2109 233.57 32.0703ZM236.102 18.6406C236.102 18.5469 236.16 18.5 236.277 18.5H236.418C236.816 18.5938 237.273 18.6406 237.789 18.6406H238.281L244.785 18.3945C245.348 18.3711 245.922 18.2539 246.508 18.043C246.555 18.0195 246.637 18.0078 246.754 18.0078C247.035 18.0078 247.41 18.2422 247.879 18.7109C248.16 19.0156 248.301 19.2617 248.301 19.4492C248.301 19.6602 248.102 19.7891 247.703 19.8359L238.844 20.1875L238.07 20.2227C237.555 20.2227 237.145 20.1172 236.84 19.9062C236.559 19.6953 236.324 19.332 236.137 18.8164C236.113 18.7695 236.102 18.7109 236.102 18.6406ZM236.594 21.4883C236.594 21.3477 236.699 21.2773 236.91 21.2773C237.145 21.2773 237.824 21.4531 238.949 21.8047L245.945 21.418L246.332 21.3828C246.566 21.3828 246.766 21.4531 246.93 21.5938C247.375 21.8984 247.598 22.168 247.598 22.4023C247.598 22.5195 247.551 22.6484 247.457 22.7891C247.387 22.9062 247.34 23 247.316 23.0703L246.719 24.9336C247.328 25.5195 247.633 25.918 247.633 26.1289C247.633 26.2461 247.562 26.3281 247.422 26.375C247.305 26.3984 247.164 26.4102 247 26.4102L239.441 26.7266V26.7969C239.441 26.9609 239.395 27.1016 239.301 27.2188C239.207 27.3125 239.078 27.3594 238.914 27.3594C238.609 27.3594 238.27 27.2539 237.895 27.043C237.543 26.832 237.367 26.5977 237.367 26.3398V26.2695C237.391 26.082 237.402 25.8125 237.402 25.4609C237.402 25.1797 237.391 24.9688 237.367 24.8281L237.156 23.3867C237.109 22.918 236.969 22.4375 236.734 21.9453C236.641 21.7109 236.594 21.5586 236.594 21.4883ZM238.316 28.4492C238.316 28.2383 238.434 28.0273 238.668 27.8164C238.902 27.6055 239.125 27.5 239.336 27.5C239.758 27.5 240.461 28.2266 241.445 29.6797C241.539 29.8672 241.586 29.9961 241.586 30.0664C241.586 30.3008 241.41 30.5469 241.059 30.8047C240.801 30.9922 240.566 31.0859 240.355 31.0859C240.145 31.0859 239.945 30.9219 239.758 30.5938C239.359 29.9375 238.938 29.3633 238.492 28.8711C238.375 28.707 238.316 28.5664 238.316 28.4492ZM239.266 25.1797L244.785 24.9688L245.277 23L239.055 23.2812L239.266 25.1797ZM247.809 33.3359C247.809 33.0781 248.031 32.7617 248.477 32.3867C250.844 30.3945 252.812 28.3203 254.383 26.1641C253.703 23.8672 253.129 21.2305 252.66 18.2539L252.449 16.25L251.008 16.4609C250.633 16.5078 250.363 16.5312 250.199 16.5312C249.801 16.5312 249.461 16.4258 249.18 16.2148C248.898 16.0039 248.688 15.7578 248.547 15.4766C248.406 15.1953 248.336 14.9961 248.336 14.8789C248.336 14.7617 248.406 14.7031 248.547 14.7031L248.688 14.7383C248.875 14.7852 249.145 14.8086 249.496 14.8086C249.777 14.8086 250 14.7969 250.164 14.7734L252.203 14.457C251.898 11.8555 251.664 8.91406 251.5 5.63281C251.453 4.92969 251.277 4.39062 250.973 4.01562C250.879 3.89844 250.832 3.79297 250.832 3.69922C250.832 3.55859 250.961 3.48828 251.219 3.48828C251.617 3.48828 252.098 3.60547 252.66 3.83984C253.246 4.07422 253.539 4.37891 253.539 4.75391C253.656 7.89453 253.891 11.0234 254.242 14.1406L258.039 13.5781C258.531 13.5078 258.93 13.3672 259.234 13.1562C259.281 13.1094 259.363 13.0859 259.48 13.0859C259.762 13.0859 260.148 13.2734 260.641 13.6484C261.133 14.0234 261.379 14.3164 261.379 14.5273C261.379 14.7852 261.109 14.9492 260.57 15.0195L254.453 15.9336L254.664 17.9727C255.016 20.3164 255.414 22.3203 255.859 23.9844C256.469 22.9531 257.055 21.7695 257.617 20.4336C258.18 19.0742 258.461 18.0781 258.461 17.4453C258.461 17.1875 258.555 17.0586 258.742 17.0586C259.047 17.0586 259.457 17.2695 259.973 17.6914C260.512 18.1133 260.781 18.4648 260.781 18.7461C260.781 18.8164 260.77 18.875 260.746 18.9219C260.723 18.9688 260.699 19.0156 260.676 19.0625C259.387 21.875 258.004 24.2891 256.527 26.3047C257.629 29.4688 258.906 31.5078 260.359 32.4219L260.535 32.4922C260.652 32.4922 260.852 32.0469 261.133 31.1562C261.438 30.2422 261.754 28.9766 262.082 27.3594C262.176 26.9141 262.281 26.5742 262.398 26.3398C262.539 26.1055 262.668 25.9883 262.785 25.9883C262.902 25.9883 262.996 26.1172 263.066 26.375C263.16 26.6094 263.207 26.9375 263.207 27.3594V27.5703C263.184 28.625 263.113 29.6211 262.996 30.5586C262.902 31.4727 262.703 32.5508 262.398 33.793C262.281 34.2852 262.117 34.625 261.906 34.8125C261.719 35 261.461 35.0938 261.133 35.0938C260.922 35.0938 260.676 35.0586 260.395 34.9883C259.668 34.8242 258.812 34.2148 257.828 33.1602C256.844 32.1289 255.918 30.4531 255.051 28.1328C254.113 29.1641 253.152 30.1016 252.168 30.9453C251.184 31.7656 250.316 32.4102 249.566 32.8789C248.84 33.3477 248.359 33.582 248.125 33.582C247.914 33.582 247.809 33.5 247.809 33.3359ZM254.84 7.39062C254.84 7.22656 254.957 7.02734 255.191 6.79297C255.426 6.55859 255.672 6.44141 255.93 6.44141C256.117 6.44141 256.281 6.53516 256.422 6.72266C257.078 7.40234 257.758 8.17578 258.461 9.04297C259.188 9.91016 259.551 10.4727 259.551 10.7305C259.551 10.918 259.398 11.1523 259.094 11.4336C258.789 11.7148 258.52 11.8555 258.285 11.8555C258.098 11.8555 257.922 11.75 257.758 11.5391C257.055 10.3672 256.141 9.13672 255.016 7.84766C254.898 7.68359 254.84 7.53125 254.84 7.39062Z" fill="#333333"/>
</svg>
