<svg xmlns="http://www.w3.org/2000/svg" width="350" height="88" fill="none"><path fill="#333" d="M164.91 18.5a1.25 1.25 0 0 1-.914-.387 26.703 26.703 0 0 0-2.355-2.285c-.891-.75-1.676-1.312-2.356-1.687-.328-.188-.492-.48-.492-.88 0-.07.082-.163.246-.28.211-.141.551-.446 1.02-.915l1.265-1.23a23.692 23.692 0 0 0 1.406-1.582c.399-.469.622-.797.668-.984a1.16 1.16 0 0 0 .071-.282c.047-.164.117-.246.211-.246.117 0 .269.059.457.176.211.117.386.234.527.352.352.328.527.609.527.843-.023.07-.117.153-.281.246-.14.07-.269.141-.387.211a53.04 53.04 0 0 0-1.265 1.125l-2.285 1.97c-.399.327-.598.585-.598.773 0 .093.187.246.563.457.445.28 1.312.855 2.601 1.722.492.328.961.692 1.406 1.09.375.375.563.762.563 1.16 0 .188-.082.352-.246.492a.478.478 0 0 1-.352.141Zm-6.258 7.98c-.257 0-.574-.199-.949-.597-.281-.281-.422-.492-.422-.633 0-.07.047-.105.141-.105.094-.024.211-.036.351-.036l.774-.035c.445 0 .738-.012.879-.035.445 0 .82-.012 1.125-.035 2.015-.188 3.375-.34 4.078-.457a29.8 29.8 0 0 0 .949-.14c.281-.071.504-.106.668-.106.328 0 .656.164.984.492.258.258.387.469.387.633 0 .14-.082.234-.246.281-.117.023-.809.07-2.074.14-.703.024-1.57.083-2.602.176a92.491 92.491 0 0 0-2.707.282c-.14.023-.34.058-.597.105-.258.047-.504.07-.739.07Zm-21.586.036v.422c0 1.265.141 2.19.422 2.777.282.562.821.95 1.617 1.16.821.188 2.145.281 3.973.281 1.781 0 3.41-.105 4.887-.316 1.476-.235 2.566-.516 3.269-.844a.94.94 0 0 1 .422-.105c.141 0 .41.117.809.351.398.211.75.469 1.055.774.328.28.492.515.492.703 0 .187-.094.34-.282.457-.187.14-.457.234-.808.281-3.703.61-7.207.914-10.512.914-2.25 0-3.914-.176-4.992-.527-1.078-.328-1.816-.914-2.215-1.758-.375-.867-.562-2.18-.562-3.938v-.246l.07-6.504-8.086 1.336c-.937.164-1.523.246-1.758.246-.398 0-.773-.164-1.125-.492a5.572 5.572 0 0 1-.844-1.054.566.566 0 0 1-.14-.352c0-.188.129-.281.387-.281h.07c.164.023.398.035.703.035.562 0 1.16-.059 1.793-.176l9.035-1.441.106-10.828c0-.68-.164-1.29-.493-1.829-.07-.117-.105-.199-.105-.246 0-.187.176-.28.527-.28.164.023.446.081.844.175a4.65 4.65 0 0 1 1.125.422c.352.187.527.422.527.703l-.105 11.496 12.094-1.934a7.514 7.514 0 0 0 2.355-.773c.234-.117.434-.176.598-.176.211 0 .504.094.879.281.375.188.703.422.984.704.281.257.422.504.422.738 0 .328-.293.539-.879.633l-16.488 2.707-.071 6.504Zm79.348-8.368c-.141 0-.328-.152-.562-.457-.235-.328-.34-.609-.317-.843.047-.188.082-.715.106-1.582.023-.586.035-1.618.035-3.094 0-1.031-.012-1.723-.035-2.074l-1.161.105a15.24 15.24 0 0 1-2.109.176c-.164 0-.398-.129-.703-.387-.305-.258-.457-.445-.457-.562 0-.188.199-.258.598-.211.257.023 1.019.011 2.285-.035a114.49 114.49 0 0 1 3.761-.211c.399-.024.762-.059 1.09-.106.352-.07.598-.117.739-.14.211-.024.398 0 .562.07.164.07.316.164.457.281.164.094.293.164.387.211.211.14.316.27.316.387 0 .094-.058.187-.176.281a.512.512 0 0 1-.316.105c-.117 0-.281-.011-.492-.035a5.16 5.16 0 0 0-.633-.035c-.867 0-1.758.024-2.672.07-.023.188-.035.657-.035 1.407-.047 1.265-.07 2.508-.07 3.726v1.688c0 .398-.035.656-.106.773-.211.328-.375.492-.492.492Zm-3.762 8.332c-.257 0-.574-.199-.949-.597-.281-.281-.422-.492-.422-.633 0-.07.047-.105.141-.105.094-.024.211-.036.351-.036l.774-.035c.445 0 .738-.012.879-.035.445 0 .82-.012 1.125-.035 2.015-.188 3.375-.34 4.078-.457a29.8 29.8 0 0 0 .949-.14c.281-.071.504-.106.668-.106.328 0 .656.164.984.492.258.258.387.469.387.633 0 .14-.082.234-.246.281-.117.023-.809.07-2.074.14-.703.024-1.57.083-2.602.176a92.491 92.491 0 0 0-2.707.282c-.14.023-.34.058-.597.105-.258.047-.504.07-.739.07Zm10.231-8.859c.117 0 .293.082.527.246-.023.047.024.14.141.281l.246.247c.117.117.234.257.351.421.141.165.293.34.457.528.422.445 1.395 1.605 2.918 3.48.258.375.387.598.387.668 0 .235-.14.352-.422.352-.164 0-.34-.117-.527-.352-.445-.469-1.242-1.207-2.391-2.215-.89-.82-1.699-1.453-2.425-1.898-.352-.164-.528-.352-.528-.563 0-.164.176-.398.528-.703.328-.328.574-.492.738-.492Zm-31.606-5.168a43.67 43.67 0 0 1-4.57 5.203c-1.641 1.617-3.129 2.918-4.465 3.903-1.312.96-2.144 1.441-2.496 1.441-.164 0-.246-.082-.246-.246 0-.211.188-.504.562-.879 2.883-2.672 5.274-5.238 7.172-7.7 1.899-2.484 3.293-4.605 4.184-6.363.891-1.757 1.336-2.953 1.336-3.585l-.035-.387V3.7c0-.305.129-.458.386-.458.399 0 .903.2 1.512.598.633.398.949.773.949 1.125 0 .281-.293.973-.878 2.074a34.72 34.72 0 0 1-1.829 3.164l9.95-.633a5.31 5.31 0 0 1 .703-.035c.492 0 .949.14 1.371.422.422.258.633.563.633.914 0 .188-.059.387-.176.598-.117.187-.199.316-.246.386-2.672 5.532-6.117 10.266-10.336 14.204-4.219 3.914-9.211 6.96-14.977 9.14-.351.117-.597.176-.738.176-.305 0-.457-.094-.457-.281 0-.258.269-.528.809-.809 2.742-1.43 5.285-3 7.628-4.71 2.344-1.735 4.641-3.716 6.891-5.942a60.501 60.501 0 0 0-5.168-4.852c-.258-.21-.387-.422-.387-.633 0-.234.141-.527.422-.878.281-.352.539-.528.774-.528.492 0 2.484 1.676 5.976 5.027 2.836-3.257 5.016-6.585 6.539-9.984l-10.793.668ZM115.875 71.969c-.167 0-.333-.031-.5-.094A.814.814 0 0 1 115 71.5c-.062-.188-.198-.406-.406-.656a2.388 2.388 0 0 0-.563-.563l.125-.156c.104.063.354.188.75.375.396.188.688.281.875.281.292 0 .552-.104.781-.312.23-.209.521-.604.876-1.188.25-.396.479-.864.687-1.406.208-.542.365-1.042.469-1.5l.031-.063a.211.211 0 0 0-.063-.156c-.041-.062-.083-.094-.124-.094l-1.438.126a41.73 41.73 0 0 1-3 .406 3.25 3.25 0 0 0-.656.156c-.25.083-.427.125-.532.125-.166 0-.385-.135-.656-.406a2.213 2.213 0 0 1-.312-.313c-.084-.125-.104-.229-.063-.312l.25-.25.157-.125c.291-.292.583-.677.874-1.156.209-.292.428-.782.657-1.47 0-.228.052-.343.156-.343.063 0 .167.042.313.125l.5.313c.124.104.208.187.25.25a.45.45 0 0 1 .062.25c0 .124-.083.28-.25.468a4.787 4.787 0 0 0-.438.5l-.718 1.031-.063.126c0 .062.084.093.25.093l2.407-.312 1.624-.125.626-.063.343-.062h.094c.208 0 .437.177.687.531.292.27.438.5.438.688l-.156.406c-.021.041-.188.531-.5 1.469-.375.895-.698 1.572-.969 2.03-.271.46-.563.813-.875 1.063-.562.459-1.104.688-1.625.688Zm.594 10.562c0-.02.052-.094.156-.219a6.96 6.96 0 0 0 .406-.53c.25-.355.5-.876.75-1.563.25-.688.386-1.323.407-1.906 0-.042-.021-.084-.063-.126-.021-.062-.073-.093-.156-.093l-.719.062-1.062.094c-.23.75-.626 1.563-1.188 2.438-.25.395-.594.75-1.031 1.062-.417.292-.823.5-1.219.625a1.5 1.5 0 0 1-.469.063c-.146-.021-.219-.063-.219-.126 0-.083.073-.156.219-.218.25-.167.531-.427.844-.781.333-.355.625-.72.875-1.094.146-.209.302-.48.469-.813.166-.354.302-.677.406-.969-.667.084-1.354.24-2.063.47-.041.04-.114.062-.218.062-.063 0-.156-.042-.282-.125a4.054 4.054 0 0 1-.343-.375c-.042-.104-.021-.198.062-.281l.125-.25c.084-.126.167-.376.25-.75.084-.376.125-.678.125-.907a.908.908 0 0 0-.031-.219c0-.104.01-.156.031-.156.042-.02.094-.02.157 0 .229.042.437.115.624.219a.896.896 0 0 1 .344.344c.084.104.084.198 0 .281a.939.939 0 0 0-.094.125.404.404 0 0 0-.093.188c-.021.02-.063.25-.125.687 0 .02.01.042.031.063.042.02.083.02.125 0 .062 0 .156-.01.281-.032.125-.02.219-.041.281-.062a6.67 6.67 0 0 0 .5-.094 7.95 7.95 0 0 1 .563-.094c.063-.229.104-.479.125-.75.042-.291.073-.49.094-.594l.031-.656v-.219c-.667.021-1.365.084-2.094.188l-.562.094h-.125a.605.605 0 0 1-.313-.094 11.736 11.736 0 0 1-.281-.219c-.271-.25-.406-.437-.406-.562 0-.125.094-.167.281-.125.25.041.51.062.781.062l.906-.031 4.344-.313c.167-.02.323-.041.469-.062.146-.042.292-.073.437-.094h.094c.271 0 .459.052.563.156.125.084.198.136.219.157.333.27.5.479.5.625 0 .125-.178.177-.532.156l-.625-.063c-.541-.02-1.354 0-2.437.063l-.125 1.219a8.009 8.009 0 0 1-.063.5c-.021.125-.041.229-.062.312l-.032.094c.5-.042 1.084-.104 1.75-.188a.98.98 0 0 1 .219-.062 1.79 1.79 0 0 1 .313-.094h.062c.125 0 .25.052.375.156.125.105.198.167.219.188.167.146.281.27.344.375.083.083.094.156.031.219a1.713 1.713 0 0 1-.156.25.69.69 0 0 0-.094.219c-.104.874-.271 1.583-.5 2.124-.187.48-.396.844-.625 1.094a4.19 4.19 0 0 1-.781.656c-.125.084-.323.157-.594.22-.271.04-.406.04-.406 0Zm5.093-11.312c.105 0 .261.073.469.219-.021.041.021.124.125.25l.219.218c.104.104.208.23.313.375.124.146.26.302.406.469.375.396 1.239 1.427 2.594 3.094.229.333.343.531.343.594 0 .208-.125.312-.375.312-.146 0-.302-.104-.468-.313-.396-.416-1.105-1.072-2.126-1.968-.791-.73-1.51-1.292-2.156-1.688-.312-.146-.468-.312-.468-.5 0-.146.156-.354.468-.625.292-.291.511-.437.656-.437ZM88.875 69c0 1.583-.031 2.99-.094 4.219l3.469-1.031.813-.25c.604-.167 1.01-.25 1.218-.25.209 0 .313.052.313.156 0 .187-.448.5-1.344.937-.875.417-2.417 1.063-4.625 1.938-.292 2.416-.938 4.49-1.938 6.219-.979 1.729-2.5 3.354-4.562 4.874-.375.292-.677.438-.906.438-.146 0-.219-.063-.219-.188 0-.229.208-.552.625-.968 1.396-1.396 2.52-2.854 3.375-4.375.875-1.542 1.448-3.313 1.719-5.313a30.14 30.14 0 0 1-2.438.875c-.979.313-1.625.469-1.937.469-.188 0-.323-.042-.406-.125-.23-.167-.48-.417-.75-.75-.25-.354-.376-.667-.376-.938 0-.104.053-.156.157-.156h.094c1.041 0 2.979-.354 5.812-1.062.063-.917.115-2.448.156-4.594l-2.312.188c-.146.02-.334.03-.563.03-.479 0-.791-.051-.937-.156a2.734 2.734 0 0 1-.656-.718c-.167-.292-.25-.542-.25-.75 0-.104.052-.156.156-.156.083 0 .146.01.187.03.5.126.927.188 1.281.188h.22l2.874-.25c0-1.666-.01-2.875-.031-3.625-.833.23-1.719.448-2.656.657-.938.187-1.604.28-2 .28-.438 0-.656-.083-.656-.25 0-.103.104-.218.312-.343.208-.146.5-.27.875-.375a35.441 35.441 0 0 0 3.813-1.406 52.27 52.27 0 0 0 3.812-1.844c.292-.167.604-.49.938-.969.083-.146.197-.218.343-.218.313 0 .636.208.969.624.354.417.531.792.531 1.126 0 .25-.104.416-.312.5-1.604.729-2.98 1.28-4.125 1.656l.031 4.031 1.906-.156c.063 0 .209-.01.438-.031.229-.021.448-.063.656-.126a.537.537 0 0 1 .219-.03c.25 0 .562.166.937.5.375.333.563.593.563.78 0 .209-.23.334-.688.376L88.875 69Zm3.219 6.031c0-.104.041-.156.125-.156.083 0 .146.01.187.031.542.125.99.188 1.344.188h.219l5.719-.281v-3.438l-2.344.156c-.209.021-.48.031-.813.031-.333 0-.583-.041-.75-.124a2.618 2.618 0 0 1-.844-1.282.737.737 0 0 1-.093-.312c0-.104.041-.156.125-.156.02 0 .094.02.219.062.416.104.843.156 1.28.156h.282l2.938-.187v-2.875L97.28 67c-.208.02-.479.031-.812.031-.396 0-.636-.041-.719-.125a3.263 3.263 0 0 1-.656-.75c-.188-.312-.281-.594-.281-.844 0-.104.041-.156.124-.156l.188.063c.417.104.844.156 1.281.156h.281l3-.188V62.72l-3.312.218a8.09 8.09 0 0 1-.781.032c-.417 0-.677-.052-.781-.157a2.857 2.857 0 0 1-.876-1.25.737.737 0 0 1-.093-.312c0-.104.052-.156.156-.156.083 0 .146.01.188.031.541.125.99.188 1.343.188h.219l9.031-.657c.084 0 .24-.01.469-.031.229-.02.458-.063.688-.125a.531.531 0 0 1 .218-.031c.292 0 .625.187 1 .562.375.354.563.625.563.813 0 .208-.229.333-.688.375l-5.437.375v2.468l2.468-.156c.48-.041.865-.104 1.157-.187a.43.43 0 0 1 .187-.031c.229 0 .552.177.969.53.417.355.625.647.625.876 0 .208-.229.333-.688.375l-4.718.281v2.844l2.562-.188a6.346 6.346 0 0 0 1.156-.187.439.439 0 0 1 .188-.031c.25 0 .573.177.969.53.416.355.625.647.625.876 0 .208-.24.333-.719.375l-4.781.312v3.469l5.094-.25c.5-.042.895-.104 1.187-.188l.187-.03c.25 0 .573.197.969.593.396.396.594.688.594.875 0 .208-.229.333-.687.375l-7.344.344v10.156c0 .458-.167.688-.5.688-.271 0-.604-.115-1-.344-.396-.23-.594-.531-.594-.906l.031-.25c.104-.667.156-1.271.156-1.813v-7.438l-5.124.376-1 .062c-.167.02-.459-.25-.876-.813-.395-.583-.593-.968-.593-1.156ZM166.03 72a1.11 1.11 0 0 1-.812-.344 23.934 23.934 0 0 0-2.094-2.031c-.792-.667-1.49-1.167-2.094-1.5-.291-.167-.437-.427-.437-.781 0-.063.073-.146.218-.25.188-.125.49-.396.907-.813l1.125-1.094c.5-.52.916-.99 1.25-1.406.354-.416.552-.708.594-.875.02-.041.041-.125.062-.25.042-.146.104-.218.188-.218.104 0 .239.052.406.156.187.104.344.208.468.312.313.292.469.542.469.75-.021.063-.104.136-.25.219a5.052 5.052 0 0 0-.343.188c-.105.083-.48.416-1.126 1l-2.031 1.75c-.354.291-.531.52-.531.687 0 .083.167.219.5.406.396.25 1.167.76 2.312 1.531.438.292.855.615 1.25.97.334.333.5.676.5 1.03a.56.56 0 0 1-.218.438.426.426 0 0 1-.313.125Zm-5.562 7.094c-.229 0-.511-.177-.844-.531-.25-.25-.375-.438-.375-.563 0-.063.042-.094.125-.094.083-.02.187-.031.313-.031l.687-.031c.396 0 .656-.01.781-.031.396 0 .729-.01 1-.032 1.792-.166 3-.302 3.625-.406.313-.042.594-.083.844-.125.25-.063.448-.094.594-.094.291 0 .583.146.875.438.229.229.344.416.344.562 0 .125-.073.209-.219.25-.104.021-.719.063-1.844.125-.625.021-1.396.073-2.313.156-.916.084-1.718.167-2.406.25-.125.021-.302.053-.531.094a3.668 3.668 0 0 1-.656.063Zm-19.188.031v.375c0 1.125.125 1.948.375 2.469.25.5.729.844 1.438 1.031.729.167 1.906.25 3.531.25 1.583 0 3.031-.094 4.344-.281 1.312-.209 2.281-.459 2.906-.75a.83.83 0 0 1 .375-.094c.125 0 .365.104.719.313.354.187.666.416.937.687.292.25.438.458.438.625 0 .167-.084.302-.25.406-.167.125-.406.209-.719.25-3.292.542-6.406.813-9.344.813-2 0-3.479-.156-4.437-.469-.959-.292-1.615-.813-1.969-1.563-.333-.77-.5-1.937-.5-3.5v-.218l.063-5.781L132 74.874c-.833.146-1.354.219-1.562.219-.355 0-.688-.146-1-.438a4.89 4.89 0 0 1-.75-.937.498.498 0 0 1-.126-.313c0-.166.115-.25.344-.25h.063c.146.021.354.031.625.031.5 0 1.031-.052 1.594-.156l8.031-1.281.093-9.625a3.06 3.06 0 0 0-.437-1.625c-.063-.104-.094-.177-.094-.219 0-.166.157-.25.469-.25.146.021.396.073.75.157.354.083.688.208 1 .374.312.167.469.376.469.626l-.094 10.218 10.75-1.719a6.685 6.685 0 0 0 2.094-.687c.208-.104.385-.156.531-.156.188 0 .448.083.781.25.334.166.625.375.875.625.25.229.375.448.375.656 0 .292-.26.48-.781.563l-14.656 2.406-.063 5.781Zm70.313-10.906c-.271 0-.469-.094-.594-.281a3.712 3.712 0 0 0-.562-.657c-.167-.166-.469-.396-.907-.687l.094-.156c.958.333 1.635.5 2.031.5.334 0 .698-.188 1.094-.563.417-.396.771-.958 1.062-1.688.146-.333.25-.604.313-.812.083-.23.146-.48.187-.75v-.063c0-.187-.093-.28-.281-.28-.208 0-.583.062-1.125.187-.291.083-.677.208-1.156.375l-.25-.063a.736.736 0 0 0-.156-.093 1.174 1.174 0 0 1-.156-.188c-.105-.104-.157-.177-.157-.219l-.031-.125c0-.146.073-.281.219-.406.166-.125.26-.219.281-.281.167-.188.5-.646 1-1.375.042-.042.115-.136.219-.282.104-.166.156-.312.156-.437 0-.146-.615-.042-1.844.313-1.25.374-1.906.562-1.969.562-.208 0-.427-.177-.656-.531-.166-.167-.25-.302-.25-.407 0-.145.209-.229.625-.25.479-.02 1.219-.104 2.219-.25 1.021-.145 1.625-.24 1.812-.28l.438-.126a.69.69 0 0 1 .219-.031c.062 0 .156.042.281.125.146.083.271.146.375.188.271.124.427.27.469.437v.094c0 .187-.104.385-.313.593-.083.084-.25.26-.5.532-.25.25-.406.416-.469.5a10.33 10.33 0 0 0-.374.406 2.846 2.846 0 0 0-.282.344c0 .062.021.104.063.125.041.02.093.031.156.031a12.927 12.927 0 0 0 1.531-.281l.5-.157c.229 0 .396.084.5.25.188.209.313.386.375.532a.396.396 0 0 1 0 .375.817.817 0 0 1-.093.187 2.053 2.053 0 0 0-.126.219l-.124.25c-.063.125-.105.25-.126.375-.374 1.083-.822 2.01-1.343 2.781a4.975 4.975 0 0 1-.969.906c-.479.355-.948.532-1.406.532Zm-3.125 5.25c-.229 0-.511-.177-.844-.531-.25-.25-.375-.438-.375-.563 0-.063.042-.094.125-.094.083-.02.187-.031.313-.031l.687-.031c.396 0 .656-.01.781-.031.396 0 .729-.01 1-.032 1.792-.166 3-.302 3.625-.406.313-.042.594-.083.844-.125.25-.063.448-.094.594-.094.291 0 .583.146.875.438.229.229.344.416.344.562 0 .125-.073.209-.219.25-.104.021-.719.063-1.844.125-.625.021-1.396.073-2.313.156-.916.084-1.718.167-2.406.25-.125.021-.302.053-.531.094a3.668 3.668 0 0 1-.656.063Zm7.093 11.812c.292.188.438.365.438.531 0 .23-.177.376-.531.438-.354.063-.854.104-1.5.125-.938.02-1.542-.01-1.813-.094-.458-.208-.687-.552-.687-1.031l.031-1.156c.042-.375.062-.709.062-1 .021-.188.032-.552.032-1.094a10.534 10.534 0 0 1-1.219 2.063c-.354.437-.667.791-.937 1.062a5.41 5.41 0 0 1-.969.813c-.375.25-.719.374-1.031.374-.188 0-.282-.062-.282-.187 0-.02.198-.188.594-.5.417-.292.833-.708 1.25-1.25.625-.833 1.167-1.813 1.625-2.938-.813.105-1.354.198-1.625.282-.104.02-.198.052-.281.094a.785.785 0 0 1-.313 0 2.646 2.646 0 0 1-.437-.25 2.823 2.823 0 0 1-.438-.407c-.083-.125-.125-.208-.125-.25 0-.104.156-.156.469-.156.771 0 1.76-.083 2.969-.25.125-.48.187-1.25.187-2.313v-.593c0-.25.052-.386.157-.406.02-.021.062-.032.124-.032.167 0 .396.125.688.375.229.188.375.334.438.438.083.083.093.198.031.344l-.125.25c-.063.124-.104.25-.125.374l-.125.626a6.582 6.582 0 0 0-.125.78c.291-.02.656-.062 1.093-.124.438-.063.761-.125.969-.188l.625-.156c.209-.042.552.135 1.032.531.083.063.124.136.124.219 0 .083-.041.156-.124.219a.446.446 0 0 1-.25.062c-.376 0-1.063.063-2.063.188l-1.031.094c.229.166.375.312.437.437a.47.47 0 0 1 .031.375l-.093.5c-.042.417-.084.875-.125 1.375-.021.5-.021.885 0 1.156 0 .104.062.198.187.281a.877.877 0 0 0 .438.126c.521 0 1.104-.053 1.75-.157l.281-.062c.125 0 .229.02.312.062Zm6-13.125c.25 0 .376.115.376.344 0 .125-.115.302-.344.531-.625.771-1.865 2.24-3.719 4.406-.146.188-.281.282-.406.282-.104 0-.334-.156-.688-.469-.291-.25-.437-.458-.437-.625 0-.188.156-.365.468-.531.48-.271 1.198-.813 2.157-1.625.958-.854 1.666-1.531 2.125-2.031.187-.188.344-.282.468-.282Zm-33.656-4.25c.104-.02.25-.031.438-.031.396 0 .594.094.594.281 0 .209-.23.386-.688.531a12.4 12.4 0 0 1-1.219.344c-.25 1.938-.593 3.625-1.031 5.063a25.494 25.494 0 0 1-1.625 4.031c1 .917 1.729 1.604 2.187 2.063.459.437.74.75.844.937a.832.832 0 0 1 .188.5c0 .188-.136.438-.406.75-.25.292-.48.438-.688.438-.146 0-.312-.115-.5-.344-1.25-1.375-2.115-2.292-2.594-2.75a17.644 17.644 0 0 1-2.968 3.437c-1.084.98-2.167 1.74-3.25 2.281-.376.188-.657.282-.844.282-.146 0-.219-.052-.219-.156 0-.188.219-.459.656-.813a22.796 22.796 0 0 0 5.407-6.219c-.48-.479-1.209-1.114-2.188-1.906a4.409 4.409 0 0 0-.469-.313 3.715 3.715 0 0 1-.469-.374c-.104-.126-.177-.303-.218-.532a1.242 1.242 0 0 1-.032-.344c0-.27.053-.593.157-.968.333-1.23.614-2.406.843-3.531-.437.083-.916.156-1.437.218-.5.042-.854.073-1.063.094a1.45 1.45 0 0 1-.906-.313 2.86 2.86 0 0 1-.594-.75c-.145-.291-.218-.52-.218-.687 0-.125.073-.188.218-.188l.126.032a5.62 5.62 0 0 0 1.624.062l2.594-.187c.375-1.896.646-3.313.813-4.25.166-.959.25-1.834.25-2.625v-.344c0-.438-.052-.77-.157-1a1.35 1.35 0 0 1-.062-.219c0-.146.094-.218.281-.218.167 0 .417.052.75.156.354.104.667.25.938.437.271.188.406.396.406.625v.125c0 .834-.083 1.657-.25 2.469a61.362 61.362 0 0 1-.687 3.188l-.344 1.468c.708-.062 1.75-.177 3.125-.344l.031-.656v-.25c0-.312-.062-.666-.188-1.062a.45.45 0 0 1-.031-.188c0-.146.094-.219.281-.219.313 0 .719.115 1.219.344.5.209.75.48.75.813v.062l-.093.844.718-.094Zm-7.406 6.969a54.96 54.96 0 0 1 2.562 2.063 27.18 27.18 0 0 0 1.219-3.438c.334-1.146.594-2.469.781-3.969l-3.312.719a117.143 117.143 0 0 1-1.25 4.625Zm8.938-12.188c0-.104.072-.156.218-.156.25 0 .938.25 2.063.75l7.625-.562a5.16 5.16 0 0 1 .625-.032c.271 0 .552.105.843.313.313.208.469.438.469.688 0 .104-.062.26-.187.468-.104.188-.156.334-.156.438l-.782 7.187c.521.584.782.98.782 1.188 0 .125-.063.208-.188.25-.104.041-.292.073-.562.094l-5.407.28a31.966 31.966 0 0 0 2.344 3.563c1.271-.791 2.344-1.614 3.219-2.469.875-.874 1.364-1.583 1.468-2.124.063-.355.188-.532.376-.532.229 0 .52.23.874.688.355.458.532.812.532 1.062 0 .354-.646 1.052-1.938 2.094-1.291 1.02-2.489 1.844-3.594 2.469a21.378 21.378 0 0 0 3.25 3.031c1.209.875 2.73 1.76 4.563 2.656.229.125.344.24.344.344 0 .063-.094.198-.281.406a2.99 2.99 0 0 1-.657.594c-.229.188-.448.281-.656.281-.292 0-1.177-.52-2.656-1.562-1.459-1.021-3.031-2.417-4.719-4.188-1.667-1.791-3.073-3.864-4.219-6.219l-1.375.063-.062 9.938c1.271-.48 2.885-1.22 4.844-2.22a.87.87 0 0 1 .437-.124c.208 0 .313.083.313.25 0 .229-.355.646-1.063 1.25a24.968 24.968 0 0 1-2.406 1.781c-.646.354-1.313.75-2 1.188-.667.416-1.084.635-1.25.656-.209 0-.448-.167-.719-.5-.271-.334-.354-.604-.25-.813.083-.146.146-.552.188-1.219.062-.687.093-1.197.093-1.53l.094-16.844c0-.584-.021-1.053-.063-1.407a5.41 5.41 0 0 0-.281-1.156l-.062-.125a.585.585 0 0 1-.031-.188Zm8.968 9.157.282-3.219-7.032.438v3.093l6.75-.312Zm.406-4.813.25-2.719-7.374.5V67.5l7.124-.469Zm-6.75-7.625c.021-.166.126-.364.313-.593.187-.25.365-.365.531-.344.104 0 .532.24 1.282.718.77.459 1.468.938 2.093 1.438.646.5.959.875.938 1.125 0 .125-.115.344-.344.656-.229.313-.458.469-.687.469-.209 0-.438-.146-.688-.438a23.13 23.13 0 0 0-3.062-2.5c-.25-.187-.376-.364-.376-.53Zm72.063 5.125c0 .459-.021.896-.063 1.313l-.062 1.75c-.021.479-.083 1.281-.188 2.406-.02.333-.124.594-.312.781-.167.188-.323.281-.469.281-.166-.02-.312-.166-.437-.437a1.805 1.805 0 0 1-.094-.875c.021-.167.083-.854.188-2.063.041-1.291.02-2.156-.063-2.593-.021-.146-.167-.24-.437-.281h-.876l-1.437.124c-.292.021-.729.084-1.313.188-.562.104-1.02.198-1.374.281-.021.709-.011 1.604.031 2.688l.125 2.125a.84.84 0 0 1-.156.5c-.084.146-.188.219-.313.219-.25 0-.448-.167-.594-.5a1.86 1.86 0 0 1-.187-.844l-.032-.531L256 67.28c0-.52-.021-1.26-.062-2.219 0-.166-.011-.291-.032-.374a.908.908 0 0 1-.031-.157.687.687 0 0 1-.031-.219c0-.166.083-.25.25-.25.125 0 .229.021.312.063l.563.188c.229-.042.427-.073.593-.094.188-.021.323-.042.407-.063.958-.146 2.146-.25 3.562-.312.521 0 .886-.052 1.094-.157a.345.345 0 0 1 .125-.062c.083-.042.146-.052.188-.031l.312.093c.083.021.167.063.25.126a.848.848 0 0 1 .219.156c.271.27.406.458.406.562Zm-4.094 18.563c-.146 0-.25-.042-.312-.125a1.953 1.953 0 0 0-.125-.156c-.209-.292-.302-.573-.282-.844.021-.167.053-.615.094-1.344l.032-1.5c-.021-.23-.042-.365-.063-.406-.021-.063-.115-.188-.281-.375a15.863 15.863 0 0 0-1.156-1.281c-.5-.5-.823-.834-.969-1l-.938-.938c-.062-.063-.093-.125-.093-.188 0-.104.062-.187.187-.25a.673.673 0 0 1 .437-.093c.417.041.688.094.813.156.146.042.281.167.406.375s.302.458.531.75c.25.27.438.48.563.625.521.625.885 1.042 1.094 1.25.375-.438.843-1.063 1.406-1.875.458-.583.729-1.063.813-1.438.083-.27.208-.406.374-.406.084 0 .209.052.376.156.541.334.812.605.812.813 0 .125-.135.281-.406.469-.375.27-.688.573-.938.906l-.625.781c-.416.5-.729.896-.937 1.188-.104.187-.156.458-.156.812V82.312c.02.146-.063.313-.25.5-.167.188-.303.282-.407.282Zm-11.875 1.562c.167 0 .375-.416.625-1.25.271-.854.531-2.031.781-3.531.25-1.52.438-3.23.563-5.125l-10.844.563v.53c0 .23-.052.407-.156.532a.538.538 0 0 1-.437.188c-.292 0-.605-.094-.938-.282-.312-.208-.469-.448-.469-.719a.98.98 0 0 1 .031-.28c.084-.584.126-1.199.126-1.844l.124-10.75c0-.792-.072-1.355-.218-1.688a.868.868 0 0 1-.125-.438c0-.145.083-.218.25-.218.312 0 .979.24 2 .718l8.593-.562c.417-.02.834-.104 1.25-.25a.54.54 0 0 1 .219-.031c.25 0 .594.166 1.031.5.438.312.657.583.657.812 0 .25-.261.396-.781.438l-5.313.312-.031 2.563 2.156-.125a6.042 6.042 0 0 0 1.188-.25.53.53 0 0 1 .218-.031c.271 0 .594.166.969.5.396.312.594.552.594.718 0 .209-.25.334-.75.375l-4.407.25v2.781l2.219-.124c.375-.021.771-.105 1.188-.25a.533.533 0 0 1 .219-.032c.27 0 .593.167.968.5.396.313.594.552.594.719 0 .208-.25.333-.75.375l-4.469.25-.031 2.938 5.625-.313h.219c.208 0 .479.094.812.281.334.167.5.417.5.75 0 .104-.021.24-.062.406A3.255 3.255 0 0 0 252 75a65.33 65.33 0 0 1-.906 7.156c-.396 2.23-.969 3.656-1.719 4.281-.354.292-.667.438-.937.438-.292 0-.855-.25-1.688-.75a16.2 16.2 0 0 1-2.25-1.594c-.688-.583-1.031-1-1.031-1.25 0-.166.104-.25.312-.25.167 0 .438.084.813.25.937.48 2.094.938 3.468 1.375h.094ZM224 68.75c0-.125.073-.188.219-.188l.125.032c.166.02.416.031.75.031.687 0 1.906-.115 3.656-.344.542-2.729.875-4.927 1-6.594v-.312c0-.438-.052-.77-.156-1a1.296 1.296 0 0 1-.063-.219c0-.125.094-.187.281-.187.126 0 .355.052.688.156.354.104.667.25.938.438.291.166.437.364.437.593v.125a80.335 80.335 0 0 1-1.187 6.75 69.98 69.98 0 0 0 2.593-.406l.031-.344v-.25c0-.312-.062-.656-.187-1.031a.433.433 0 0 1-.031-.188c0-.145.094-.218.281-.218.104.02.302.073.594.156.312.063.604.177.875.344.291.166.437.364.437.594v.093l-.062.531.937-.187c.25-.042.417-.063.5-.063.334 0 .5.084.5.25 0 .25-.281.47-.844.657l-1.218.406c-.521 4.104-1.375 7.281-2.563 9.531 1.188 1.146 1.948 1.906 2.281 2.281.334.376.5.667.5.876 0 .208-.135.458-.406.75-.25.27-.468.406-.656.406-.167 0-.333-.104-.5-.313-1.021-1.187-1.729-1.99-2.125-2.406-.813 1.25-1.708 2.333-2.687 3.25-.959.896-1.834 1.583-2.626 2.063-.77.479-1.291.718-1.562.718-.146 0-.219-.052-.219-.156 0-.188.209-.458.625-.813a20.687 20.687 0 0 0 5.282-6.28l-.657-.72c-.541-.583-.948-.979-1.219-1.187a5.078 5.078 0 0 0-.5-.313 3.888 3.888 0 0 1-.406-.343c-.104-.125-.177-.302-.218-.531a1.084 1.084 0 0 1-.032-.313c0-.27.052-.594.156-.969.209-.854.49-2.146.844-3.875-1.583.292-2.489.438-2.718.438a1.39 1.39 0 0 1-.626-.156c-.374-.271-.645-.563-.812-.876-.167-.333-.25-.562-.25-.687Zm5.062 5.906c.313.23.782.656 1.407 1.281l.781.75c.271-.624.604-1.645 1-3.062.396-1.417.698-2.99.906-4.719-.541.167-1.489.406-2.844.719l-.281 1.188a243.203 243.203 0 0 1-.969 3.843Zm6.126 9.156c0-.104.052-.28.156-.53.354-.75.687-1.594 1-2.532a26.74 26.74 0 0 0 .75-2.781c.041-.23.104-.386.187-.469.084-.083.209-.125.375-.125.229 0 .479.052.75.156.271.104.406.292.406.563 0 .125-.01.219-.031.281a32.325 32.325 0 0 1-.75 2.969 30.003 30.003 0 0 1-.969 2.781c-.104.208-.208.354-.312.438a.385.385 0 0 1-.312.156c-.063-.021-.198-.063-.407-.125a1.809 1.809 0 0 1-.593-.313.565.565 0 0 1-.25-.469Zm8.062-10.28.031-2.938-3.969.25-.031 2.875 3.969-.188Zm.062-4.376v-2.75l-3.968.219-.032 2.75 4-.219Zm.032-4.187.031-2.594-4 .25-.031 2.594 4-.25Zm-3.782 12.75c0-.25.126-.417.376-.5.27-.084.51-.125.718-.125.125 0 .219.041.282.125.083.062.156.187.218.375.334.812.625 1.75.875 2.812.271 1.042.407 1.709.407 2 0 .25-.126.438-.376.563-.229.104-.52.166-.874.187-.188 0-.323-.052-.407-.156-.062-.104-.114-.281-.156-.531-.146-1.375-.469-2.813-.969-4.313a1.286 1.286 0 0 1-.094-.437Zm2.938-.688c0-.208.125-.375.375-.5s.469-.187.656-.187c.209 0 .511.354.907 1.062.395.709.76 1.49 1.093 2.344.354.833.531 1.313.531 1.438 0 .25-.239.468-.718.656-.292.083-.459.125-.5.125-.271 0-.459-.188-.563-.563-.458-1.458-.989-2.74-1.593-3.844-.126-.229-.188-.406-.188-.53Zm2.969-.562c0-.167.093-.313.281-.438a3.24 3.24 0 0 1 .719-.312c.187 0 .479.312.875.937.416.604.802 1.26 1.156 1.969.354.708.531 1.156.531 1.344 0 .25-.156.448-.469.594-.291.124-.52.187-.687.187a.508.508 0 0 1-.313-.094c-.083-.083-.156-.219-.218-.406a14.357 14.357 0 0 0-1.719-3.375c-.104-.167-.156-.302-.156-.406ZM127 88.813h144v1.562H127v-1.563Z"/></svg>