<svg xmlns="http://www.w3.org/2000/svg" width="350" height="88" fill="none"><path fill="#333" d="M164.91 18.5a1.25 1.25 0 0 1-.914-.387 26.703 26.703 0 0 0-2.355-2.285c-.891-.75-1.676-1.312-2.356-1.687-.328-.188-.492-.48-.492-.88 0-.07.082-.163.246-.28.211-.141.551-.446 1.02-.915l1.265-1.23a23.692 23.692 0 0 0 1.406-1.582c.399-.469.622-.797.668-.984a1.16 1.16 0 0 0 .071-.282c.047-.164.117-.246.211-.246.117 0 .269.059.457.176.211.117.386.234.527.352.352.328.527.609.527.843-.023.07-.117.153-.281.246-.14.07-.269.141-.387.211a53.04 53.04 0 0 0-1.265 1.125l-2.285 1.97c-.399.327-.598.585-.598.773 0 .093.187.246.563.457.445.28 1.312.855 2.601 1.722.492.328.961.692 1.406 1.09.375.375.563.762.563 1.16 0 .188-.082.352-.246.492a.478.478 0 0 1-.352.141Zm-6.258 7.98c-.257 0-.574-.199-.949-.597-.281-.281-.422-.492-.422-.633 0-.07.047-.105.141-.105.094-.024.211-.036.351-.036l.774-.035c.445 0 .738-.012.879-.035.445 0 .82-.012 1.125-.035 2.015-.188 3.375-.34 4.078-.457a29.8 29.8 0 0 0 .949-.14c.281-.071.504-.106.668-.106.328 0 .656.164.984.492.258.258.387.469.387.633 0 .14-.082.234-.246.281-.117.023-.809.07-2.074.14-.703.024-1.57.083-2.602.176a92.491 92.491 0 0 0-2.707.282c-.14.023-.34.058-.597.105-.258.047-.504.07-.739.07Zm-21.586.036v.422c0 1.265.141 2.19.422 2.777.282.562.821.95 1.617 1.16.821.188 2.145.281 3.973.281 1.781 0 3.41-.105 4.887-.316 1.476-.235 2.566-.516 3.269-.844a.94.94 0 0 1 .422-.105c.141 0 .41.117.809.351.398.211.75.469 1.055.774.328.28.492.515.492.703 0 .187-.094.34-.282.457-.187.14-.457.234-.808.281-3.703.61-7.207.914-10.512.914-2.25 0-3.914-.176-4.992-.527-1.078-.328-1.816-.914-2.215-1.758-.375-.867-.562-2.18-.562-3.938v-.246l.07-6.504-8.086 1.336c-.937.164-1.523.246-1.758.246-.398 0-.773-.164-1.125-.492a5.572 5.572 0 0 1-.844-1.054.566.566 0 0 1-.14-.352c0-.188.129-.281.387-.281h.07c.164.023.398.035.703.035.562 0 1.16-.059 1.793-.176l9.035-1.441.106-10.828c0-.68-.164-1.29-.493-1.829-.07-.117-.105-.199-.105-.246 0-.187.176-.28.527-.28.164.023.446.081.844.175a4.65 4.65 0 0 1 1.125.422c.352.187.527.422.527.703l-.105 11.496 12.094-1.934a7.514 7.514 0 0 0 2.355-.773c.234-.117.434-.176.598-.176.211 0 .504.094.879.281.375.188.703.422.984.704.281.257.422.504.422.738 0 .328-.293.539-.879.633l-16.488 2.707-.071 6.504Zm79.348-8.368c-.141 0-.328-.152-.562-.457-.235-.328-.34-.609-.317-.843.047-.188.082-.715.106-1.582.023-.586.035-1.618.035-3.094 0-1.031-.012-1.723-.035-2.074l-1.161.105a15.24 15.24 0 0 1-2.109.176c-.164 0-.398-.129-.703-.387-.305-.258-.457-.445-.457-.562 0-.188.199-.258.598-.211.257.023 1.019.011 2.285-.035a114.49 114.49 0 0 1 3.761-.211c.399-.024.762-.059 1.09-.106.352-.07.598-.117.739-.14.211-.024.398 0 .562.07.164.07.316.164.457.281.164.094.293.164.387.211.211.14.316.27.316.387 0 .094-.058.187-.176.281a.512.512 0 0 1-.316.105c-.117 0-.281-.011-.492-.035a5.16 5.16 0 0 0-.633-.035c-.867 0-1.758.024-2.672.07-.023.188-.035.657-.035 1.407-.047 1.265-.07 2.508-.07 3.726v1.688c0 .398-.035.656-.106.773-.211.328-.375.492-.492.492Zm-3.762 8.332c-.257 0-.574-.199-.949-.597-.281-.281-.422-.492-.422-.633 0-.07.047-.105.141-.105.094-.024.211-.036.351-.036l.774-.035c.445 0 .738-.012.879-.035.445 0 .82-.012 1.125-.035 2.015-.188 3.375-.34 4.078-.457a29.8 29.8 0 0 0 .949-.14c.281-.071.504-.106.668-.106.328 0 .656.164.984.492.258.258.387.469.387.633 0 .14-.082.234-.246.281-.117.023-.809.07-2.074.14-.703.024-1.57.083-2.602.176a92.491 92.491 0 0 0-2.707.282c-.14.023-.34.058-.597.105-.258.047-.504.07-.739.07Zm10.231-8.859c.117 0 .293.082.527.246-.023.047.024.14.141.281l.246.247c.117.117.234.257.351.421.141.165.293.34.457.528.422.445 1.395 1.605 2.918 3.48.258.375.387.598.387.668 0 .235-.14.352-.422.352-.164 0-.34-.117-.527-.352-.445-.469-1.242-1.207-2.391-2.215-.89-.82-1.699-1.453-2.425-1.898-.352-.164-.528-.352-.528-.563 0-.164.176-.398.528-.703.328-.328.574-.492.738-.492Zm-31.606-5.168a43.67 43.67 0 0 1-4.57 5.203c-1.641 1.617-3.129 2.918-4.465 3.903-1.312.96-2.144 1.441-2.496 1.441-.164 0-.246-.082-.246-.246 0-.211.188-.504.562-.879 2.883-2.672 5.274-5.238 7.172-7.7 1.899-2.484 3.293-4.605 4.184-6.363.891-1.757 1.336-2.953 1.336-3.585l-.035-.387V3.7c0-.305.129-.458.386-.458.399 0 .903.2 1.512.598.633.398.949.773.949 1.125 0 .281-.293.973-.878 2.074a34.72 34.72 0 0 1-1.829 3.164l9.95-.633a5.31 5.31 0 0 1 .703-.035c.492 0 .949.14 1.371.422.422.258.633.563.633.914 0 .188-.059.387-.176.598-.117.187-.199.316-.246.386-2.672 5.532-6.117 10.266-10.336 14.204-4.219 3.914-9.211 6.96-14.977 9.14-.351.117-.597.176-.738.176-.305 0-.457-.094-.457-.281 0-.258.269-.528.809-.809 2.742-1.43 5.285-3 7.628-4.71 2.344-1.735 4.641-3.716 6.891-5.942a60.501 60.501 0 0 0-5.168-4.852c-.258-.21-.387-.422-.387-.633 0-.234.141-.527.422-.878.281-.352.539-.528.774-.528.492 0 2.484 1.676 5.976 5.027 2.836-3.257 5.016-6.585 6.539-9.984l-10.793.668ZM67.594 68.219c-.271 0-.469-.094-.594-.281a3.672 3.672 0 0 0-.563-.657c-.166-.166-.468-.396-.906-.687l.094-.156c.958.333 1.635.5 2.031.5.334 0 .698-.188 1.094-.563.417-.396.77-.958 1.063-1.688.145-.333.25-.604.312-.812.083-.23.146-.48.188-.75v-.063c0-.187-.094-.28-.282-.28-.208 0-.583.062-1.125.187-.291.083-.677.208-1.156.375l-.25-.063a.726.726 0 0 0-.156-.093 1.238 1.238 0 0 1-.156-.188c-.105-.104-.157-.177-.157-.219L67 62.656c0-.146.073-.281.219-.406.166-.125.26-.219.281-.281.167-.188.5-.646 1-1.375a2.72 2.72 0 0 0 .219-.282c.104-.166.156-.312.156-.437 0-.146-.615-.042-1.844.313-1.25.374-1.906.562-1.969.562-.208 0-.427-.177-.656-.531-.166-.167-.25-.302-.25-.407 0-.145.209-.229.625-.25.48-.02 1.219-.104 2.219-.25 1.02-.145 1.625-.24 1.813-.28l.437-.126a.694.694 0 0 1 .219-.031c.062 0 .156.042.281.125.146.083.27.146.375.188.27.124.427.27.469.437v.094c0 .187-.104.385-.313.593-.083.084-.25.26-.5.532-.25.25-.406.416-.469.5-.083.083-.208.218-.374.406-.167.188-.26.302-.282.344 0 .062.021.104.063.125.041.02.094.031.156.031a12.923 12.923 0 0 0 1.531-.281l.5-.157c.23 0 .396.084.5.25.188.209.313.386.375.532a.398.398 0 0 1 0 .375.785.785 0 0 1-.094.187 2.057 2.057 0 0 0-.124.219l-.126.25c-.062.125-.104.25-.124.375-.376 1.083-.823 2.01-1.344 2.781a4.96 4.96 0 0 1-.969.906c-.48.355-.948.532-1.406.532Zm3.594 8.375c-.313 0-.615-.23-.907-.688a9.89 9.89 0 0 0-1.094-1.437l-.812-.844c-.438.5-.823.896-1.156 1.188a6.227 6.227 0 0 1-1.188.843c-.896.521-1.646.781-2.25.781-.146 0-.218-.052-.218-.156 0-.062.197-.198.593-.406a6.6 6.6 0 0 0 1.125-.75c.896-.75 1.636-1.52 2.219-2.313-.125-.124-.75-.666-1.875-1.624a10.656 10.656 0 0 1-.656-.532 8.042 8.042 0 0 1-.375-.281c-.188-.146-.281-.25-.281-.313 0-.104.052-.156.156-.156.312 0 .812.219 1.5.656.687.417 1.406.917 2.156 1.5.292-.354.52-.687.688-1 .166-.312.354-.697.562-1.156.104-.229.167-.427.188-.594.02-.187.03-.302.03-.343 0-.23.063-.344.188-.344.146 0 .344.115.594.344.438.416.656.698.656.844 0 .083-.052.177-.156.28-.25.25-.48.584-.688 1-.124.25-.354.605-.687 1.063-.104.125-.188.24-.25.344a3.281 3.281 0 0 1-.188.281c.48.354 1.188.959 2.126 1.813.229.208.374.406.437.594.083.166.125.395.125.687a.89.89 0 0 1-.156.531.504.504 0 0 1-.406.188Zm-6.907 9.344c-.312 0-.552-.084-.719-.25-.187-.188-.28-.355-.28-.5 0-.146.083-.303.25-.47.02-.02.135-.187.343-.5.458-.728.98-1.656 1.563-2.78.604-1.146.979-1.928 1.124-2.344.126-.396.24-.74.344-1.031.125-.292.23-.438.313-.438.146 0 .27.052.375.156.104.084.208.209.312.375.125.146.219.25.281.313.146.166.22.323.22.469a.5.5 0 0 1-.126.312 1.56 1.56 0 0 0-.156.219L66.75 81.78a63.754 63.754 0 0 1-1.406 2.406.5.5 0 0 0-.125.313c0 .083.094.125.281.125.396 0 1.135-.052 2.219-.156 1.083-.084 1.812-.156 2.187-.219.542-.063.917-.125 1.125-.188.23-.062.563.094 1 .47.521.437.636.718.344.843-.167.083-.49.125-.969.125h-1.25c-.27 0-.698.02-1.281.063-.354 0-.75.01-1.188.03-.437.022-.802.042-1.093.063-.334.021-.98.084-1.938.188l-.375.094Zm13.281-13.782c.25 0 .376.115.376.344 0 .125-.115.302-.344.531-.625.771-1.865 2.24-3.719 4.406-.146.188-.281.282-.406.282-.104 0-.334-.156-.688-.469-.291-.25-.437-.458-.437-.625 0-.188.156-.365.469-.531.479-.271 1.197-.813 2.156-1.625.958-.854 1.666-1.531 2.125-2.031.187-.188.344-.282.469-.282ZM39.657 70v.094c0 .354-.177.531-.531.531-.292 0-.594-.083-.906-.25-.313-.167-.469-.417-.469-.75l.031-.313c.021-.104.032-.24.032-.406 0-.146-.01-.312-.032-.5a5.425 5.425 0 0 0-.062-.437l-.563-4.438c-.083-.562-.218-.99-.406-1.281-.146-.23-.219-.385-.219-.469 0-.125.115-.187.344-.187.375 0 1.02.166 1.938.5l4.03-.219-.062-1.406a2.076 2.076 0 0 0-.437-1.188.388.388 0 0 1-.125-.281c0-.146.135-.219.406-.219.23 0 .51.063.844.188.396.146.656.281.781.406.125.104.198.25.219.438l.093 1.968 3.97-.218.03-1.47c0-.52-.114-.958-.343-1.312a.736.736 0 0 1-.094-.312c0-.167.125-.25.375-.25.104.02.302.073.594.156.312.063.604.177.875.344.27.166.406.375.406.625l-.094 2.125 4.782-.25.406-.032c.208 0 .448.105.718.313.292.208.438.417.438.625 0 .083-.02.177-.063.281a1.708 1.708 0 0 0-.093.219l-.844 4.906c.417.5.625.834.625 1 0 .125-.063.209-.188.25-.104.021-.312.042-.624.063l-15.844.719.062.437Zm-7.843 16.906c0-.187.187-.49.562-.906 3.104-3.396 4.688-7.74 4.75-13.031 0-.709-.063-1.25-.188-1.625-.083-.292-.124-.48-.124-.563 0-.166.083-.25.25-.25.312 0 .979.26 2 .781l14.093-.624c.584-.042 1.084-.136 1.5-.282.167-.041.282-.062.344-.062.23 0 .563.177 1 .531.438.333.656.615.656.844 0 .208-.24.333-.718.375L39 72.813a33.868 33.868 0 0 1-.563 4.812L55 76.906c.583-.041 1.083-.135 1.5-.281.167-.042.292-.063.375-.063.25 0 .5.094.75.282.25.166.458.364.625.594.167.208.25.364.25.468 0 .209-.24.334-.719.375l-10.468.438c1.145 1.187 2.114 2.052 2.906 2.594 2.166-.792 3.427-1.553 3.781-2.282.104-.229.24-.344.406-.344.188 0 .427.198.719.594.292.396.438.73.438 1 0 .209-.115.365-.344.469-1 .542-2.157 1.042-3.469 1.5 1.125.625 2.385 1.156 3.781 1.594 1.396.437 3.042.833 4.938 1.187.187.042.323.084.406.125.083.042.125.104.125.188 0 .062-.073.219-.219.469-.125.25-.281.468-.468.656-.188.208-.376.312-.563.312-.063 0-.177-.02-.344-.062-2.291-.542-4.229-1.125-5.812-1.75a20.375 20.375 0 0 1-4.344-2.375c-1.333-.98-2.646-2.24-3.938-3.781l-2.53.093-.157 5.688c1.354-.354 2.948-.813 4.781-1.375a2.86 2.86 0 0 1 .907-.156c.25 0 .374.062.374.187 0 .23-.364.552-1.093.969-.73.416-1.625.844-2.688 1.281-.479.208-.875.375-1.187.5-.313.146-.552.26-.719.344-.792.396-1.292.594-1.5.594-.208 0-.438-.178-.688-.532-.25-.354-.312-.625-.187-.812.083-.146.146-.563.188-1.25a26.29 26.29 0 0 0 .062-1.5L40.969 79l-2.875.125c-.521 1.667-1.209 3.104-2.063 4.313-.854 1.187-1.677 2.093-2.468 2.718-.792.625-1.303.938-1.532.938-.146 0-.218-.063-.218-.188Zm7.28-21.844L43 64.844l-.094-1.625-4 .218.188 1.626Zm.344 3.157 3.688-.188-.063-1.781-3.812.188.188 1.78Zm.75 6.062c0-.083.053-.125.157-.125.083 0 .156.01.218.031.417.105.823.157 1.22.157h.28l9.25-.438c.584-.041 1.084-.135 1.5-.281.167-.042.292-.063.376-.063.25 0 .5.094.75.282.25.166.458.364.624.594.167.208.25.364.25.468 0 .188-.24.302-.718.344l-11.438.563-.718.03c-.813 0-1.365-.395-1.657-1.187a1.2 1.2 0 0 1-.093-.375Zm4.5-9.5 3.75-.187.063-1.656-3.875.187.063 1.656Zm.157 3.188 3.531-.188.031-1.781-3.656.188.094 1.78Zm9.031-.438.25-1.812-4.031.187-.063 1.813 3.844-.188Zm.438-3.219.218-1.687-4.312.219-.063 1.656 4.157-.188ZM116.53 72c-.333 0-.541-.094-.625-.281a4.346 4.346 0 0 0-.312-.625c-.104-.188-.292-.406-.563-.656l.063-.126c.75.271 1.239.407 1.468.407.167 0 .292-.031.376-.094.083-.063.218-.208.406-.438.271-.291.521-.74.75-1.343.312-.896.51-1.823.594-2.781v-.094c0-.125-.021-.209-.063-.25-.271 0-.99.062-2.156.187-.646 1.604-1.396 2.927-2.25 3.969-.834 1.02-1.594 1.531-2.281 1.531-.167 0-.25-.062-.25-.187 0-.042.208-.281.624-.719.417-.438.876-1.01 1.376-1.719.52-.729 1.01-1.625 1.468-2.687-.104 0-.406.02-.906.062a6.51 6.51 0 0 0-1.281.219.495.495 0 0 1-.531.063l-.063-.032a.488.488 0 0 1-.125-.094 1.359 1.359 0 0 1-.375-.312.831.831 0 0 1-.125-.406c0-.063.052-.146.156-.25l.375-.5c.125-.167.24-.406.344-.719.104-.333.156-.615.156-.844 0-.146-.01-.24-.031-.281a.346.346 0 0 1-.031-.156c0-.104.052-.157.156-.157.125 0 .302.073.531.22.063.04.177.124.344.25.188.103.292.228.312.374 0 .146-.083.386-.25.719l-.406.719a.39.39 0 0 0-.062.219c0 .062.021.114.062.156a.39.39 0 0 0 .219 0l1.875-.25a11.01 11.01 0 0 0 .5-1.719v-.718c0-.23.062-.324.188-.282.27.063.489.146.656.25.312.188.468.344.468.469 0 .104-.041.281-.124.531-.063.23-.115.406-.157.531-.021.084-.114.354-.281.813.062 0 .448-.042 1.156-.125l.313-.063c.062 0 .177-.02.343-.062a.35.35 0 0 1 .157-.031c.25 0 .406.01.469.03.083.022.208.084.374.188.188.125.313.25.376.375.062.125.083.271.062.438l-.188 1.031-.218 1.125c0 .083-.073.354-.219.813a7.464 7.464 0 0 1-.5 1.218c-.354.709-.771 1.24-1.25 1.594-.417.333-.781.5-1.094.5Zm-4.062 7.094c-.229 0-.511-.177-.844-.531-.25-.25-.375-.438-.375-.563 0-.063.042-.094.125-.094.083-.02.187-.031.313-.031l.687-.031c.396 0 .656-.01.781-.031.396 0 .729-.01 1-.032 1.792-.166 3-.302 3.625-.406.313-.042.594-.083.844-.125.25-.063.448-.094.594-.094.291 0 .583.146.875.438.229.229.344.416.344.562 0 .125-.073.209-.219.25-.104.021-.719.063-1.844.125-.625.021-1.396.073-2.313.156-.916.084-1.718.167-2.406.25-.125.021-.302.053-.531.094a3.668 3.668 0 0 1-.656.063Zm9.093-7.875c.105 0 .261.073.469.219-.021.041.021.124.125.25l.219.218c.104.104.208.23.313.375.124.146.26.302.406.469.375.396 1.239 1.427 2.594 3.094.229.333.343.531.343.594 0 .208-.125.312-.375.312-.146 0-.302-.104-.468-.313-.396-.416-1.105-1.072-2.126-1.968-.791-.73-1.51-1.292-2.156-1.688-.312-.146-.468-.312-.468-.5 0-.146.156-.354.468-.625.292-.291.511-.437.656-.437ZM91.25 85.969v.062a.55.55 0 0 1-.156.406c-.084.105-.219.157-.406.157-.313 0-.636-.115-.97-.344-.333-.208-.5-.438-.5-.688v-.156c0-.146.011-.281.032-.406a1.76 1.76 0 0 0 .031-.344l-.031-.562-.313-6.188a4.853 4.853 0 0 0-.156-.875c-.062-.333-.125-.573-.187-.719-.146-.291-.219-.5-.219-.624 0-.126.094-.188.281-.188.271 0 .948.188 2.031.563l11.594-.532h.344c.292 0 .531.073.719.219.208.146.364.313.468.5.105.188.157.323.157.406a.599.599 0 0 1-.094.313 1.052 1.052 0 0 0-.125.281l-.531 6.313c.5.645.75 1.083.75 1.312 0 .146-.063.23-.188.25-.125.042-.333.063-.625.063l-11.937.25.031.53Zm-11.469 0c0-.209.094-.531.281-.969 1.063-2.333 1.865-4.604 2.407-6.813a40.692 40.692 0 0 0 1.062-6.78c.188-2.313.281-5.094.281-8.344 0-.605-.01-1.063-.03-1.376a3.8 3.8 0 0 0-.188-.968c-.084-.25-.125-.407-.125-.469 0-.146.073-.219.219-.219.27 0 .99.271 2.156.813l16.968-.938c.605-.02 1.136-.125 1.594-.312a.83.83 0 0 1 .375-.094c.229 0 .479.094.75.281.292.188.531.396.719.625.208.23.312.396.312.5 0 .271-.26.427-.781.469L85.812 62.5c0 1.833-.052 3.77-.156 5.813-.083 2.041-.24 3.78-.469 5.218-.458 2.98-1.072 5.417-1.843 7.313-.75 1.875-1.459 3.229-2.125 4.062-.667.854-1.104 1.281-1.313 1.281-.083 0-.125-.072-.125-.218Zm5.781-10.781c0-.209.178-.5.532-.876.646-.687 1.364-1.552 2.156-2.593a29.823 29.823 0 0 0 2.063-2.969l-1.907.156h-.25c-.458 0-.854-.125-1.187-.375-.313-.25-.469-.583-.469-1 0-.104.063-.156.188-.156l.312.063c.313.062.635.093.969.093h.219l2.75-.187c0-.854.01-1.459.03-1.813-.645.146-1.25.271-1.812.375-.562.104-.937.156-1.125.156-.396 0-.594-.083-.594-.25 0-.083.084-.177.25-.28.167-.126.407-.23.72-.313.916-.271 1.937-.646 3.062-1.125 1.146-.48 1.864-.938 2.156-1.375.104-.125.219-.188.344-.188.208 0 .406.104.594.313a2.5 2.5 0 0 1 .468.656c.146.23.219.396.219.5 0 .208-.073.333-.219.375-1.02.354-1.854.615-2.5.781v2.094l1.219-.094c.417-.041.76-.104 1.031-.187a.811.811 0 0 1 .25-.031c.23 0 .5.145.813.437.312.27.469.5.469.688 0 .208-.209.322-.626.343l-3.156.219v.563A.6.6 0 0 1 92.97 69c.125 0 .437.167.937.5.5.313.959.656 1.375 1.031.438.375.656.646.656.813 0 .208-.114.437-.343.687-.209.25-.386.375-.531.375-.146 0-.334-.114-.563-.344a20.389 20.389 0 0 0-1.969-1.718v4.5c0 .437-.156.656-.469.656-.145 0-.364-.063-.656-.188-.25-.124-.427-.25-.531-.374a.77.77 0 0 1-.125-.438c0-.167.01-.292.031-.375.084-.667.125-1.146.125-1.438l.031-.968c0-.417.042-.969.126-1.656-.23.541-.72 1.24-1.47 2.093-.75.834-1.52 1.573-2.312 2.219-.77.646-1.291.969-1.562.969-.104 0-.156-.052-.156-.156Zm5.313 4.656 10.781-.375.125-2.344-11.031.531.125 2.188Zm.25 4 10.281-.25.156-2.625-10.593.375.156 2.5Zm3.563-9.25c0-.209.197-.51.593-.906a30.787 30.787 0 0 0 4.375-5.376l-1.562.126h-.281c-.396 0-.688-.073-.876-.22-.354-.312-.593-.614-.718-.906a1.31 1.31 0 0 1-.063-.218c0-.104.073-.156.219-.156a.81.81 0 0 1 .25.03c.313.084.615.126.906.126l.344-.031 2.437-.157.063-1.969c-.083.021-.542.126-1.375.313-.813.188-1.427.281-1.844.281-.396 0-.594-.073-.594-.219 0-.083.094-.187.282-.312.208-.125.49-.24.844-.344.916-.291 1.99-.677 3.218-1.156 1.229-.5 1.99-.969 2.282-1.406.104-.167.229-.25.374-.25.271 0 .553.198.844.593.313.376.469.678.469.907a.413.413 0 0 1-.094.25c-.041.062-.083.093-.125.093a33.133 33.133 0 0 1-2.75.876 55.94 55.94 0 0 0-.031 2.25l2.219-.126c.229-.02.573-.093 1.031-.218a.946.946 0 0 1 .281-.031c.229 0 .511.124.844.374.333.23.5.49.5.782 0 .208-.24.333-.719.375l-4.156.25v.719c.375.124 1.115.53 2.219 1.218a59.587 59.587 0 0 1 3.156 2c.021.021.094.104.219.25.146.125.219.26.219.406 0 .126-.073.344-.219.657-.125.291-.292.448-.5.469h-.063c-.166 0-.354-.084-.562-.25-1.584-1.209-3.073-2.24-4.469-3.094l-.031 3.844c0 .25-.032.437-.094.562a.323.323 0 0 1-.312.188c-.313 0-.615-.115-.907-.344-.291-.23-.437-.48-.437-.75l.031-.313c.083-.666.125-1.146.125-1.437v-.875c0-.5.062-1.167.188-2-.459.833-1.084 1.656-1.876 2.469a19.243 19.243 0 0 1-2.312 2c-.75.52-1.219.78-1.406.78-.104 0-.156-.04-.156-.124ZM166.03 72a1.11 1.11 0 0 1-.812-.344 23.934 23.934 0 0 0-2.094-2.031c-.792-.667-1.49-1.167-2.094-1.5-.291-.167-.437-.427-.437-.781 0-.063.073-.146.218-.25.188-.125.49-.396.907-.813l1.125-1.094c.5-.52.916-.99 1.25-1.406.354-.416.552-.708.594-.875.02-.041.041-.125.062-.25.042-.146.104-.218.188-.218.104 0 .239.052.406.156.187.104.344.208.468.312.313.292.469.542.469.75-.021.063-.104.136-.25.219a5.052 5.052 0 0 0-.343.188c-.105.083-.48.416-1.126 1l-2.031 1.75c-.354.291-.531.52-.531.687 0 .083.167.219.5.406.396.25 1.167.76 2.312 1.531.438.292.855.615 1.25.97.334.333.5.676.5 1.03a.56.56 0 0 1-.218.438.426.426 0 0 1-.313.125Zm-5.562 7.094c-.229 0-.511-.177-.844-.531-.25-.25-.375-.438-.375-.563 0-.063.042-.094.125-.094.083-.02.187-.031.313-.031l.687-.031c.396 0 .656-.01.781-.031.396 0 .729-.01 1-.032 1.792-.166 3-.302 3.625-.406.313-.042.594-.083.844-.125.25-.063.448-.094.594-.094.291 0 .583.146.875.438.229.229.344.416.344.562 0 .125-.073.209-.219.25-.104.021-.719.063-1.844.125-.625.021-1.396.073-2.313.156-.916.084-1.718.167-2.406.25-.125.021-.302.053-.531.094a3.668 3.668 0 0 1-.656.063Zm-19.188.031v.375c0 1.125.125 1.948.375 2.469.25.5.729.844 1.438 1.031.729.167 1.906.25 3.531.25 1.583 0 3.031-.094 4.344-.281 1.312-.209 2.281-.459 2.906-.75a.83.83 0 0 1 .375-.094c.125 0 .365.104.719.313.354.187.666.416.937.687.292.25.438.458.438.625 0 .167-.084.302-.25.406-.167.125-.406.209-.719.25-3.292.542-6.406.813-9.344.813-2 0-3.479-.156-4.437-.469-.959-.292-1.615-.813-1.969-1.563-.333-.77-.5-1.937-.5-3.5v-.218l.063-5.781L132 74.874c-.833.146-1.354.219-1.562.219-.355 0-.688-.146-1-.438a4.89 4.89 0 0 1-.75-.937.498.498 0 0 1-.126-.313c0-.166.115-.25.344-.25h.063c.146.021.354.031.625.031.5 0 1.031-.052 1.594-.156l8.031-1.281.093-9.625a3.06 3.06 0 0 0-.437-1.625c-.063-.104-.094-.177-.094-.219 0-.166.157-.25.469-.25.146.021.396.073.75.157.354.083.688.208 1 .374.312.167.469.376.469.626l-.094 10.218 10.75-1.719a6.685 6.685 0 0 0 2.094-.687c.208-.104.385-.156.531-.156.188 0 .448.083.781.25.334.166.625.375.875.625.25.229.375.448.375.656 0 .292-.26.48-.781.563l-14.656 2.406-.063 5.781Zm67.875-8.844c-.687-.25-1.01-.52-.968-.812.124-.875.187-1.875.187-3a13.453 13.453 0 0 0-.094-1.781c-.021-.209-.021-.323 0-.344a.426.426 0 0 1 .313-.125c.187 0 .416.083.687.25.292.166.438.333.438.5 0 .104-.011.208-.031.312a1.152 1.152 0 0 0-.032.281l-.187 3.094c0 .167.062.271.187.313h.156c.167 0 .282-.01.344-.031l4.032-.563v-.813c0-1.02-.021-1.812-.063-2.374-.021-.48-.073-.865-.156-1.157-.063-.333.021-.5.25-.5.166 0 .385.063.656.188.333.166.531.312.594.437.062.104.083.271.062.5-.041.375-.062.938-.062 1.688l.031 2.375c0 .5-.094.896-.281 1.187-.104.125-.209.188-.313.188-.104 0-.25-.094-.437-.281a1.845 1.845 0 0 1-.157-.188.41.41 0 0 0-.187-.156.814.814 0 0 0-.25-.031c-.479.041-1.635.197-3.469.468-.312.042-.562.125-.75.25-.208.104-.344.156-.406.156l-.094-.03Zm3.5 12.656c-.646 0-1.146-.02-1.5-.062a1.5 1.5 0 0 1-.844-.375c-.395-.292-.666-.927-.812-1.906l-.094-1c0-.25-.021-.563-.062-.938a5.336 5.336 0 0 0-.719.125c-.042.021-.115.052-.219.094a.856.856 0 0 1-.187.031.722.722 0 0 1-.407-.125c-.124-.083-.281-.24-.468-.469-.146-.187-.219-.312-.219-.374 0-.063.073-.105.219-.126.146-.02.344-.03.594-.03a9.76 9.76 0 0 0 1.374-.126l-.031-.437c0-.834-.052-1.542-.156-2.125l-.031-.219c0-.292.114-.406.344-.344.25.084.479.188.687.313.167.083.281.166.344.25.062.062.083.156.062.281l-.093 1.344v.812l2.75-.281c0-.146.01-.49.031-1.031.021-.563.021-.927 0-1.094 0-.167-.021-.323-.063-.469a5.904 5.904 0 0 0-.062-.406c0-.167.083-.25.25-.25.166 0 .375.094.625.281.291.188.479.354.562.5.104.146.125.323.063.531a5.704 5.704 0 0 0-.219 1.126c-.042.416-.063.666-.063.75.25-.021.48-.053.688-.094.208-.042.344-.063.406-.063.167-.041.365-.062.594-.062.125.02.302.146.531.375.188.25.281.448.281.594 0 .208-.197.291-.593.25a6.108 6.108 0 0 0-1.063-.094c-.354 0-.656.01-.906.031-.062.75-.188 1.49-.375 2.219a1.09 1.09 0 0 1-.219.437c-.104.104-.198.156-.281.156-.146 0-.24-.052-.281-.156a3.672 3.672 0 0 1-.032-.562 27.07 27.07 0 0 0 .063-2.031c-.563.041-1 .083-1.313.124a8.296 8.296 0 0 1-1.343.188 12.86 12.86 0 0 0 .125 2.281c.062.438.187.74.375.906a.83.83 0 0 0 .437.188c.188.02.375.031.563.031h.375c.646 0 1.25-.031 1.812-.094.167-.02.313-.062.438-.124.146-.063.25-.094.312-.094.188 0 .375.062.563.187.187.125.281.271.281.438 0 .166-.094.291-.281.375-.167.083-.438.156-.813.219-.666.083-1.333.124-2 .124Zm4.906-11.718c.105 0 .261.073.469.219-.021.041.021.124.125.25l.219.218c.104.104.208.23.313.375.124.146.26.302.406.469.375.396 1.239 1.427 2.594 3.094.229.333.343.531.343.594 0 .208-.125.312-.375.312-.146 0-.302-.104-.468-.313-.396-.416-1.105-1.072-2.126-1.968-.791-.73-1.51-1.292-2.156-1.688-.312-.146-.468-.312-.468-.5 0-.146.156-.354.468-.625.292-.291.511-.437.656-.437Zm-32.156 5.125c-.521 2.229-1.344 4.114-2.468 5.656-1.126 1.52-2.594 3.01-4.407 4.469-.437.354-.791.531-1.062.531-.146 0-.219-.073-.219-.219 0-.208.167-.49.5-.844 1.729-1.916 3.042-3.74 3.938-5.468.916-1.73 1.541-3.625 1.874-5.688.355-2.083.532-4.698.532-7.844V64c0-1.146-.104-2.031-.313-2.656a1.283 1.283 0 0 1-.093-.438c0-.166.093-.25.281-.25.333 0 1.062.282 2.187.844l11.156-.656.344-.032c.354 0 .667.146.938.438.271.27.406.51.406.719 0 .083-.031.208-.094.375a1.237 1.237 0 0 0-.094.406l.157 21.656.031 1.063c0 .437-.104.802-.312 1.094-.188.291-.407.5-.657.624-.25.146-.458.22-.625.22-.375 0-1.01-.324-1.906-.97a19.93 19.93 0 0 1-2.5-2.062c-.771-.73-1.156-1.23-1.156-1.5 0-.125.073-.188.218-.188.23 0 .573.136 1.032.407a20.023 20.023 0 0 0 3.812 1.75l-.062-8.969-11.438.469Zm11.438-2.188-.032-4.875-10.718.406c-.084 2.25-.209 3.896-.375 4.938l11.125-.469Zm-.032-6.687-.031-4.781-10.562.656-.063 4.656 10.656-.531ZM262.031 72a1.11 1.11 0 0 1-.812-.344 23.934 23.934 0 0 0-2.094-2.031c-.792-.667-1.49-1.167-2.094-1.5-.291-.167-.437-.427-.437-.781 0-.063.073-.146.218-.25.188-.125.49-.396.907-.813l1.125-1.094c.5-.52.916-.99 1.25-1.406.354-.416.552-.708.594-.875.02-.041.041-.125.062-.25.042-.146.104-.218.188-.218.104 0 .239.052.406.156.187.104.344.208.468.312.313.292.469.542.469.75-.021.063-.104.136-.25.219a5.052 5.052 0 0 0-.343.188c-.105.083-.48.416-1.126 1l-2.031 1.75c-.354.291-.531.52-.531.687 0 .083.167.219.5.406.396.25 1.167.76 2.312 1.531.438.292.855.615 1.25.97.334.333.5.676.5 1.03a.56.56 0 0 1-.218.438.426.426 0 0 1-.313.125Zm-5.562 7.094c-.229 0-.511-.177-.844-.531-.25-.25-.375-.438-.375-.563 0-.063.042-.094.125-.094.083-.02.187-.031.313-.031l.687-.031c.396 0 .656-.01.781-.031.396 0 .729-.01 1-.032 1.792-.166 3-.302 3.625-.406.313-.042.594-.083.844-.125.25-.063.448-.094.594-.094.291 0 .583.146.875.438.229.229.344.416.344.562 0 .125-.073.209-.219.25-.104.021-.719.063-1.844.125-.625.021-1.396.073-2.313.156-.916.084-1.718.167-2.406.25-.125.021-.302.053-.531.094a3.668 3.668 0 0 1-.656.063Zm-19.188.031v.375c0 1.125.125 1.948.375 2.469.25.5.729.844 1.438 1.031.729.167 1.906.25 3.531.25 1.583 0 3.031-.094 4.344-.281 1.312-.209 2.281-.459 2.906-.75a.83.83 0 0 1 .375-.094c.125 0 .365.104.719.313.354.187.666.416.937.687.292.25.438.458.438.625 0 .167-.084.302-.25.406-.167.125-.406.209-.719.25-3.292.542-6.406.813-9.344.813-2 0-3.479-.156-4.437-.469-.959-.292-1.615-.813-1.969-1.563-.333-.77-.5-1.937-.5-3.5v-.218l.063-5.781L228 74.874c-.833.146-1.354.219-1.562.219-.355 0-.688-.146-1-.438a4.89 4.89 0 0 1-.75-.937.498.498 0 0 1-.126-.313c0-.166.115-.25.344-.25h.063c.146.021.354.031.625.031.5 0 1.031-.052 1.594-.156l8.031-1.281.093-9.625a3.06 3.06 0 0 0-.437-1.625c-.063-.104-.094-.177-.094-.219 0-.166.157-.25.469-.25.146.021.396.073.75.157.354.083.688.208 1 .374.312.167.469.376.469.626l-.094 10.218 10.75-1.719a6.685 6.685 0 0 0 2.094-.687c.208-.104.385-.156.531-.156.188 0 .448.083.781.25.334.166.625.375.875.625.25.229.375.448.375.656 0 .292-.26.48-.781.563l-14.656 2.406-.063 5.781Zm68.157-1.313c-.126 0-.303-.093-.532-.28a2.02 2.02 0 0 1-.312-.25c-.084-.084-.125-.157-.125-.22l.031-.5c.021-.187.031-.604.031-1.25-.021-.458-.031-1.416-.031-2.874 0-.584-.052-1.115-.156-1.594l-.125-.75V70c0-.188.125-.24.375-.156.104.02.344.062.718.125.396-.063 1.719-.219 3.969-.469a9.167 9.167 0 0 0 1.157-.219h.124c.23 0 .438.115.626.344.333.396.468.677.406.844-.084.208-.167.562-.25 1.062-.042.292-.094.792-.156 1.5V76.75c0 .188-.094.438-.282.75a.484.484 0 0 1-.25.25.654.654 0 0 1-.344.094c-.124 0-.218-.031-.281-.094l-.125-.125a.346.346 0 0 0-.125-.125c-.021-.02-.062-.031-.125-.031-1.291 0-2.458.083-3.5.25-.083.02-.166.031-.25.031a.588.588 0 0 0-.187.031l-.219.031h-.062Zm.593-1.156c.521-.02 1.229-.083 2.125-.187.417-.042.656-.063.719-.063h.25c.333 0 .583.063.75.188.146-1.042.219-2.948.219-5.719-.042-.313-.167-.469-.375-.469-.396 0-1.198.073-2.407.219-.124 0-.25.01-.374.031l-.376.063a5.03 5.03 0 0 1-.781.094c-.146 0-.198.072-.156.218l-.031 1.063a2.866 2.866 0 0 0-.032.406c.021.125.032.24.032.344.021.166.031.437.031.812 0 1.625.01 2.521.031 2.688 0 .146.042.24.125.281a.353.353 0 0 0 .25.031Zm2.313-1.75c-.229 0-.406-.114-.532-.344a17.96 17.96 0 0 0-1.218-1.812l-.219-.344c-.083-.125-.125-.219-.125-.281.021-.083.073-.115.156-.094a4.388 4.388 0 0 1 1.5.813c.709.541 1.063.958 1.063 1.25a.878.878 0 0 1-.125.437c-.146.25-.313.375-.5.375Zm5.218-8.375c.105 0 .261.073.469.219-.021.042.021.125.125.25l.219.219c.104.104.208.229.313.375.124.146.26.302.406.469.375.395 1.239 1.427 2.594 3.093.229.334.343.531.343.594 0 .208-.125.313-.375.313-.146 0-.302-.105-.468-.313-.396-.417-1.105-1.073-2.126-1.969-.791-.729-1.51-1.291-2.156-1.687-.312-.146-.468-.313-.468-.5 0-.146.156-.354.468-.625.292-.292.511-.438.656-.438Zm-32.874 19.094v.156c0 .521-.167.781-.5.781-.167 0-.396-.062-.688-.187a2.47 2.47 0 0 1-.781-.531c-.209-.209-.313-.438-.313-.688l.032-.219c.062-.437.093-.916.093-1.437v-.625l-.5-18.469a6.954 6.954 0 0 0-.156-1.062c-.083-.396-.198-.719-.344-.969-.146-.292-.219-.5-.219-.625 0-.167.115-.25.344-.25.417 0 1.188.26 2.313.781l13.781-.718h.219c.312 0 .646.124 1 .374.354.23.531.5.531.813 0 .104-.021.219-.062.344-.042.125-.073.229-.094.312L294.469 82c.583.73.875 1.23.875 1.5 0 .146-.073.24-.219.281-.146.042-.406.073-.781.094l-13.688.469.032 1.281Zm-.407-13.531 12.594-.625.313-8-13.126.687.219 7.938Zm.313 10.375 11.875-.375.343-8.719-12.468.563.25 8.53Z"/></svg>