<svg xmlns="http://www.w3.org/2000/svg" width="350" height="126" fill="none"><path fill="#333" d="M164.91 18.5a1.25 1.25 0 0 1-.914-.387 26.703 26.703 0 0 0-2.355-2.285c-.891-.75-1.676-1.312-2.356-1.687-.328-.188-.492-.48-.492-.88 0-.07.082-.163.246-.28.211-.141.551-.446 1.02-.915l1.265-1.23a23.692 23.692 0 0 0 1.406-1.582c.399-.469.622-.797.668-.984a1.16 1.16 0 0 0 .071-.282c.047-.164.117-.246.211-.246.117 0 .269.059.457.176.211.117.386.234.527.352.352.328.527.609.527.843-.023.07-.117.153-.281.246-.14.07-.269.141-.387.211a53.04 53.04 0 0 0-1.265 1.125l-2.285 1.97c-.399.327-.598.585-.598.773 0 .093.187.246.563.457.445.28 1.312.855 2.601 1.722.492.328.961.692 1.406 1.09.375.375.563.762.563 1.16 0 .188-.082.352-.246.492a.478.478 0 0 1-.352.141Zm-6.258 7.98c-.257 0-.574-.199-.949-.597-.281-.281-.422-.492-.422-.633 0-.07.047-.105.141-.105.094-.024.211-.036.351-.036l.774-.035c.445 0 .738-.012.879-.035.445 0 .82-.012 1.125-.035 2.015-.188 3.375-.34 4.078-.457a29.8 29.8 0 0 0 .949-.14c.281-.071.504-.106.668-.106.328 0 .656.164.984.492.258.258.387.469.387.633 0 .14-.082.234-.246.281-.117.023-.809.07-2.074.14-.703.024-1.57.083-2.602.176a92.491 92.491 0 0 0-2.707.282c-.14.023-.34.058-.597.105-.258.047-.504.07-.739.07Zm-21.586.036v.422c0 1.265.141 2.19.422 2.777.282.562.821.95 1.617 1.16.821.188 2.145.281 3.973.281 1.781 0 3.41-.105 4.887-.316 1.476-.235 2.566-.516 3.269-.844a.94.94 0 0 1 .422-.105c.141 0 .41.117.809.351.398.211.75.469 1.055.774.328.28.492.515.492.703 0 .187-.094.34-.282.457-.187.14-.457.234-.808.281-3.703.61-7.207.914-10.512.914-2.25 0-3.914-.176-4.992-.527-1.078-.328-1.816-.914-2.215-1.758-.375-.867-.562-2.18-.562-3.938v-.246l.07-6.504-8.086 1.336c-.937.164-1.523.246-1.758.246-.398 0-.773-.164-1.125-.492a5.572 5.572 0 0 1-.844-1.054.566.566 0 0 1-.14-.352c0-.188.129-.281.387-.281h.07c.164.023.398.035.703.035.562 0 1.16-.059 1.793-.176l9.035-1.441.106-10.828c0-.68-.164-1.29-.493-1.829-.07-.117-.105-.199-.105-.246 0-.187.176-.28.527-.28.164.023.446.081.844.175a4.65 4.65 0 0 1 1.125.422c.352.187.527.422.527.703l-.105 11.496 12.094-1.934a7.514 7.514 0 0 0 2.355-.773c.234-.117.434-.176.598-.176.211 0 .504.094.879.281.375.188.703.422.984.704.281.257.422.504.422.738 0 .328-.293.539-.879.633l-16.488 2.707-.071 6.504Zm79.348-8.368c-.141 0-.328-.152-.562-.457-.235-.328-.34-.609-.317-.843.047-.188.082-.715.106-1.582.023-.586.035-1.618.035-3.094 0-1.031-.012-1.723-.035-2.074l-1.161.105a15.24 15.24 0 0 1-2.109.176c-.164 0-.398-.129-.703-.387-.305-.258-.457-.445-.457-.562 0-.188.199-.258.598-.211.257.023 1.019.011 2.285-.035a114.49 114.49 0 0 1 3.761-.211c.399-.024.762-.059 1.09-.106.352-.07.598-.117.739-.14.211-.024.398 0 .562.07.164.07.316.164.457.281.164.094.293.164.387.211.211.14.316.27.316.387 0 .094-.058.187-.176.281a.512.512 0 0 1-.316.105c-.117 0-.281-.011-.492-.035a5.16 5.16 0 0 0-.633-.035c-.867 0-1.758.024-2.672.07-.023.188-.035.657-.035 1.407-.047 1.265-.07 2.508-.07 3.726v1.688c0 .398-.035.656-.106.773-.211.328-.375.492-.492.492Zm-3.762 8.332c-.257 0-.574-.199-.949-.597-.281-.281-.422-.492-.422-.633 0-.07.047-.105.141-.105.094-.024.211-.036.351-.036l.774-.035c.445 0 .738-.012.879-.035.445 0 .82-.012 1.125-.035 2.015-.188 3.375-.34 4.078-.457a29.8 29.8 0 0 0 .949-.14c.281-.071.504-.106.668-.106.328 0 .656.164.984.492.258.258.387.469.387.633 0 .14-.082.234-.246.281-.117.023-.809.07-2.074.14-.703.024-1.57.083-2.602.176a92.491 92.491 0 0 0-2.707.282c-.14.023-.34.058-.597.105-.258.047-.504.07-.739.07Zm10.231-8.859c.117 0 .293.082.527.246-.023.047.024.14.141.281l.246.247c.117.117.234.257.351.421.141.165.293.34.457.528.422.445 1.395 1.605 2.918 3.48.258.375.387.598.387.668 0 .235-.14.352-.422.352-.164 0-.34-.117-.527-.352-.445-.469-1.242-1.207-2.391-2.215-.89-.82-1.699-1.453-2.425-1.898-.352-.164-.528-.352-.528-.563 0-.164.176-.398.528-.703.328-.328.574-.492.738-.492Zm-31.606-5.168a43.67 43.67 0 0 1-4.57 5.203c-1.641 1.617-3.129 2.918-4.465 3.903-1.312.96-2.144 1.441-2.496 1.441-.164 0-.246-.082-.246-.246 0-.211.188-.504.562-.879 2.883-2.672 5.274-5.238 7.172-7.7 1.899-2.484 3.293-4.605 4.184-6.363.891-1.757 1.336-2.953 1.336-3.585l-.035-.387V3.7c0-.305.129-.458.386-.458.399 0 .903.2 1.512.598.633.398.949.773.949 1.125 0 .281-.293.973-.878 2.074a34.72 34.72 0 0 1-1.829 3.164l9.95-.633a5.31 5.31 0 0 1 .703-.035c.492 0 .949.14 1.371.422.422.258.633.563.633.914 0 .188-.059.387-.176.598-.117.187-.199.316-.246.386-2.672 5.532-6.117 10.266-10.336 14.204-4.219 3.914-9.211 6.96-14.977 9.14-.351.117-.597.176-.738.176-.305 0-.457-.094-.457-.281 0-.258.269-.528.809-.809 2.742-1.43 5.285-3 7.628-4.71 2.344-1.735 4.641-3.716 6.891-5.942a60.501 60.501 0 0 0-5.168-4.852c-.258-.21-.387-.422-.387-.633 0-.234.141-.527.422-.878.281-.352.539-.528.774-.528.492 0 2.484 1.676 5.976 5.027 2.836-3.257 5.016-6.585 6.539-9.984l-10.793.668ZM87.438 68.219c-.271 0-.47-.094-.594-.281a3.672 3.672 0 0 0-.563-.657c-.166-.166-.469-.396-.906-.687l.094-.156c.958.333 1.635.5 2.031.5.333 0 .698-.188 1.094-.563.416-.396.77-.958 1.062-1.688.146-.333.25-.604.313-.812.083-.23.146-.48.187-.75v-.063c0-.187-.094-.28-.281-.28-.208 0-.583.062-1.125.187a22.53 22.53 0 0 0-1.156.375l-.25-.063a.73.73 0 0 0-.156-.093A1.244 1.244 0 0 1 87.03 63c-.104-.104-.156-.177-.156-.219l-.031-.125c0-.146.073-.281.219-.406.166-.125.26-.219.28-.281.167-.188.5-.646 1-1.375.042-.042.115-.136.22-.282.104-.166.156-.312.156-.437 0-.146-.615-.042-1.844.313-1.25.374-1.906.562-1.969.562-.208 0-.427-.177-.656-.531-.167-.167-.25-.302-.25-.407 0-.145.208-.229.625-.25.48-.02 1.219-.104 2.219-.25 1.02-.145 1.625-.24 1.812-.28l.438-.126a.693.693 0 0 1 .219-.031c.062 0 .156.042.28.125.147.083.272.146.376.188.27.124.427.27.469.437v.094c0 .187-.105.385-.313.593-.083.084-.25.26-.5.532-.25.25-.406.416-.469.5-.083.083-.208.218-.375.406a2.82 2.82 0 0 0-.281.344c0 .062.02.104.063.125.041.02.093.031.156.031a12.923 12.923 0 0 0 1.531-.281l.5-.157c.23 0 .396.084.5.25.188.209.313.386.375.532a.398.398 0 0 1 0 .375.786.786 0 0 1-.094.187 2.075 2.075 0 0 0-.125.219l-.125.25a1.33 1.33 0 0 0-.125.375c-.375 1.083-.823 2.01-1.344 2.781a4.962 4.962 0 0 1-.968.906c-.48.355-.948.532-1.406.532Zm-3.126 5.25c-.229 0-.51-.177-.843-.531-.25-.25-.375-.438-.375-.563 0-.063.041-.094.125-.094.083-.02.187-.031.312-.031l.688-.031c.396 0 .656-.01.781-.031.396 0 .73-.01 1-.032 1.792-.166 3-.302 3.625-.406.313-.042.594-.083.844-.125.25-.063.448-.094.594-.094.291 0 .583.146.874.438.23.229.344.416.344.562 0 .125-.073.209-.219.25-.104.021-.718.063-1.843.125-.625.021-1.396.073-2.313.156-.916.084-1.719.167-2.406.25-.125.021-.302.053-.531.094a3.67 3.67 0 0 1-.656.063Zm7.344 12.312c-.02.021-.073.031-.156.031-.167 0-.406-.114-.719-.343A83.127 83.127 0 0 0 88 82.844a22.101 22.101 0 0 1-1.531 1.406 11.55 11.55 0 0 1-.875.563c-.604.354-1.188.572-1.75.656h-.188c-.187 0-.302-.021-.344-.063-.02-.02.021-.062.126-.125.124-.062.218-.114.28-.156.126-.063.48-.292 1.063-.688.292-.208.709-.562 1.25-1.062.542-.5.938-.906 1.188-1.219l-1.281-1c-.23-.166-.48-.344-.75-.531a5.17 5.17 0 0 0-.532-.406l-.031-.094c0-.125.104-.188.313-.188.25 0 .656.157 1.218.47l1.594 1.03c.354-.458.708-.958 1.063-1.5.374-.562.572-.895.593-1 .021-.062.01-.114-.031-.156-.02-.062-.063-.094-.125-.094h-.625l-1.125.094c-.563.042-1.125.115-1.688.219-.062.02-.166.052-.312.094-.146.041-.27.062-.375.062-.042 0-.219-.114-.531-.344-.292-.25-.448-.406-.469-.468-.02-.021-.031-.052-.031-.094 0-.104.114-.146.344-.125h.437c.583 0 1.427-.052 2.531-.156l1.063-.094.969-.125c.312-.083.49-.125.53-.125h.063c.104 0 .198.031.281.094a.797.797 0 0 1 .188.187.918.918 0 0 0 .094.125l.187.188a.494.494 0 0 1 .188.25.385.385 0 0 1 .062.219c0 .187-.073.322-.219.406-.104.041-.291.26-.562.656-.458.73-1.01 1.51-1.656 2.344.354.229.812.562 1.375 1 .25.166.656.448 1.219.844.25.187.437.437.562.75.083.333.125.583.125.75-.02.166-.094.28-.219.343Zm5.75-13.625c.25 0 .375.115.375.344 0 .125-.114.302-.344.531-.624.771-1.864 2.24-3.718 4.406-.146.188-.281.282-.406.282-.105 0-.334-.156-.688-.469-.292-.25-.438-.458-.438-.625 0-.188.157-.365.47-.531.478-.271 1.197-.813 2.156-1.625.958-.854 1.666-1.531 2.124-2.031.188-.188.344-.282.47-.282ZM67.875 86.281c0 .563-.23.844-.688.844-.145 0-.354-.063-.624-.188-.271-.104-.51-.25-.72-.437-.208-.188-.312-.406-.312-.656l.031-.219c.146-.73.22-1.375.22-1.938v-7.874l-10.532.53c-.292.022-.646.032-1.063.032-.479 0-.864-.125-1.156-.375-.291-.27-.5-.552-.625-.844-.104-.312-.156-.541-.156-.687 0-.125.073-.188.219-.188.083 0 .156.01.218.031a7.005 7.005 0 0 0 1.5.188h.25l11.344-.563-.031-6.156-6 .344A22.024 22.024 0 0 1 57 71.688c-1.063 1.104-1.792 1.656-2.188 1.656-.104 0-.156-.052-.156-.156 0-.167.125-.417.375-.75 1-1.313 1.854-2.646 2.563-4 .729-1.376 1.27-2.584 1.625-3.626.375-1.062.562-1.812.562-2.25l-.031-.25v-.156c0-.27.094-.406.281-.406.125.02.365.104.719.25.375.146.719.333 1.031.563.334.208.5.416.5.624 0 .313-.479 1.334-1.437 3.063l4.906-.281v-5.625c0-.521-.135-.969-.406-1.344-.104-.167-.156-.292-.156-.375 0-.146.135-.219.406-.219.125 0 .375.042.75.125.375.084.719.209 1.031.375.333.167.5.386.5.657v6.25l4.688-.282c.479-.041.947-.135 1.406-.281a.536.536 0 0 1 .219-.031c.25 0 .604.198 1.062.594.458.395.688.718.688.968s-.26.396-.782.438l-7.281.437v6.156l9.469-.468c.52-.042 1-.136 1.437-.281a.991.991 0 0 1 .281-.063c.146 0 .365.104.657.313.291.187.552.406.781.656.23.25.344.469.344.656 0 .27-.25.427-.75.469l-12.219.625V86.28ZM136.375 72c-.333 0-.542-.094-.625-.281a4.346 4.346 0 0 0-.312-.625c-.105-.188-.292-.406-.563-.656l.063-.126c.75.271 1.239.407 1.468.407.167 0 .292-.031.375-.094.084-.063.219-.208.407-.438.27-.291.52-.74.75-1.343.312-.896.51-1.823.593-2.781v-.094c0-.125-.021-.209-.062-.25-.271 0-.99.062-2.157.187-.645 1.604-1.395 2.927-2.25 3.969-.833 1.02-1.593 1.531-2.281 1.531-.166 0-.25-.062-.25-.187 0-.042.209-.281.625-.719.417-.438.875-1.01 1.375-1.719.521-.729 1.011-1.625 1.469-2.687-.104 0-.406.02-.906.062-.5.042-.927.115-1.282.219a.494.494 0 0 1-.531.063l-.062-.032a.471.471 0 0 1-.125-.094 1.359 1.359 0 0 1-.375-.312.82.82 0 0 1-.125-.406c0-.063.052-.146.156-.25l.375-.5c.125-.167.24-.406.344-.719.104-.333.156-.615.156-.844 0-.146-.01-.24-.031-.281a.345.345 0 0 1-.032-.156c0-.104.053-.157.157-.157.125 0 .302.073.531.22.062.04.177.124.344.25.187.103.291.228.312.374 0 .146-.083.386-.25.719l-.406.719a.382.382 0 0 0-.062.219c0 .062.02.114.062.156a.39.39 0 0 0 .219 0l1.875-.25a11.01 11.01 0 0 0 .5-1.719v-.718c0-.23.062-.324.187-.282.271.063.49.146.657.25.312.188.468.344.468.469 0 .104-.041.281-.125.531a14.93 14.93 0 0 1-.437 1.344c.062 0 .448-.042 1.156-.125l.312-.063c.063 0 .178-.02.344-.062a.348.348 0 0 1 .156-.031c.25 0 .407.01.469.03.084.022.209.084.375.188.188.125.313.25.375.375.063.125.084.271.063.438l-.188 1.031-.218 1.125c0 .083-.073.354-.219.813a7.464 7.464 0 0 1-.5 1.218c-.354.709-.771 1.24-1.25 1.594-.417.333-.781.5-1.094.5Zm3.031 9.844c.292.187.438.364.438.531 0 .23-.177.375-.532.438-.354.062-.854.104-1.5.124-.937.021-1.541-.01-1.812-.093-.458-.209-.688-.552-.688-1.031l.032-1.157c.041-.375.062-.708.062-1 .021-.187.032-.552.032-1.094a10.534 10.534 0 0 1-1.219 2.063c-.354.438-.667.802-.938 1.094-.271.27-.593.531-.969.781-.374.25-.718.375-1.031.375-.187 0-.281-.063-.281-.188 0-.02.198-.177.594-.468.416-.313.833-.74 1.25-1.281.625-.834 1.166-1.813 1.625-2.938-.813.104-1.354.198-1.625.281-.104.021-.198.052-.282.094a.78.78 0 0 1-.312 0 2.688 2.688 0 0 1-.438-.25 2.857 2.857 0 0 1-.437-.406c-.083-.125-.125-.209-.125-.25 0-.104.156-.156.469-.156.771 0 1.76-.084 2.969-.25.124-.48.187-1.25.187-2.313v-.594c0-.25.052-.385.156-.406.021-.02.063-.031.125-.031.167 0 .396.125.688.375.229.187.375.333.437.437.084.084.094.198.031.344l-.124.25c-.063.125-.105.25-.126.375l-.124.625a6.605 6.605 0 0 0-.126.781c.292-.02.657-.062 1.094-.125.438-.062.761-.125.969-.187l.625-.156c.208-.042.552.135 1.031.53.084.063.125.136.125.22 0 .083-.041.156-.125.218a.443.443 0 0 1-.25.063c-.375 0-1.062.062-2.062.187l-1.031.094c.229.167.374.313.437.438a.47.47 0 0 1 .031.374l-.094.5c-.041.417-.083.876-.124 1.376-.021.5-.021.885 0 1.156 0 .104.062.198.187.281a.876.876 0 0 0 .437.125c.521 0 1.105-.052 1.75-.156l.282-.063c.125 0 .229.021.312.063Zm6-13.125c.25 0 .375.114.375.344 0 .124-.114.302-.343.53-.626.772-1.865 2.24-3.719 4.407-.146.188-.281.281-.407.281-.104 0-.333-.156-.687-.469-.292-.25-.437-.458-.437-.624 0-.188.156-.365.468-.532.479-.27 1.198-.812 2.156-1.625.959-.854 1.667-1.531 2.126-2.031.187-.188.343-.281.468-.281Zm-40.75 12.5c.459-.167.906-.323 1.344-.469 2.188-.77 3.781-1.396 4.781-1.875a49.363 49.363 0 0 0-2.156-2.281c-.146-.146-.219-.292-.219-.438 0-.27.156-.49.469-.656.313-.188.531-.281.656-.281.354 0 1.167.698 2.438 2.094 1.271 1.374 2.364 2.708 3.281 4 .188.25.281.468.281.656 0 .291-.177.552-.531.781-.354.23-.615.344-.781.344-.229 0-.459-.167-.688-.5-.437-.73-1.021-1.573-1.75-2.531-1.396.77-3.041 1.562-4.937 2.374-.479.209-.875.386-1.188.532-.312.125-.552.229-.718.312-.813.375-1.313.573-1.5.594-.209 0-.438-.177-.688-.531-.25-.354-.323-.625-.219-.813.125-.187.188-1.104.188-2.75l-.063-14.156c0-.938-.104-1.74-.312-2.406a.806.806 0 0 1-.032-.25c0-.146.073-.219.219-.219.313 0 1.021.26 2.125.781l7.688-.531.344-.031c.27 0 .572.104.906.312.354.209.531.469.531.782 0 .083-.031.218-.094.406a1.231 1.231 0 0 0-.093.406l-.688 7.656c.583.646.875 1.073.875 1.281 0 .126-.063.209-.187.25-.126.042-.334.073-.626.094l-8.718.344.062 6.719Zm-.094-13.125 7.219-.406.188-3.063-7.438.5.031 2.969Zm.032 4.812 6.875-.281.219-3.375-7.126.375.032 3.281Zm1.094-13.312c.02-.167.124-.365.312-.594.188-.25.365-.365.531-.344.104 0 .531.24 1.281.719.771.458 1.469.938 2.094 1.438.646.5.959.874.938 1.124 0 .126-.115.344-.344.657-.229.312-.458.468-.688.468-.208 0-.437-.145-.687-.437a23.072 23.072 0 0 0-3.063-2.5c-.25-.188-.374-.365-.374-.531Zm10.874 1.875c0-.146.094-.219.282-.219.312 0 1.125.26 2.437.781l6.594-.437.406-.032c.292 0 .594.105.907.313.333.188.5.396.5.625 0 .146-.063.302-.188.469-.125.146-.208.25-.25.312-1.167 2.313-2.354 4.292-3.562 5.938a.387.387 0 0 0-.126.281c0 .104.115.25.344.438 2.75 2.333 4.125 4.833 4.125 7.5 0 .75-.114 1.52-.343 2.312-.209.792-.688 1.188-1.438 1.188-.479 0-1.24-.26-2.281-.782a25.212 25.212 0 0 1-2.844-1.75c-.854-.646-1.281-1.104-1.281-1.375 0-.104.083-.156.25-.156.271 0 .583.083.937.25a27.349 27.349 0 0 0 4.407 1.406.53.53 0 0 0 .218.031c.125 0 .198-.062.219-.187.125-.417.187-.802.187-1.156 0-.584-.177-1.334-.531-2.25a7.429 7.429 0 0 0-1.375-2.25c-.583-.688-1.312-1.396-2.187-2.125-.292-.23-.438-.51-.438-.844 0-.292.125-.625.375-1 .646-.917 1.417-2.25 2.313-4l.812-1.531-5.969.343.094 23.25c0 .459-.156.688-.468.688-.126 0-.344-.063-.657-.188a2.787 2.787 0 0 1-.781-.5c-.229-.208-.344-.437-.344-.687 0-.125.011-.219.032-.281.145-.938.218-1.917.218-2.938l-.031-17.531c0-.896-.021-1.552-.063-1.969a3.616 3.616 0 0 0-.281-1.25c-.146-.333-.219-.562-.219-.687ZM181 76.53c-.688-.25-1.01-.52-.969-.812.125-.875.188-1.875.188-3a13.939 13.939 0 0 0-.094-1.781c-.021-.209-.021-.323 0-.344a.423.423 0 0 1 .313-.125c.187 0 .416.083.687.25.292.166.437.333.437.5 0 .104-.01.208-.031.312a1.155 1.155 0 0 0-.031.281l-.188 3.094c0 .167.063.271.188.313h.156c.167 0 .282-.01.344-.031l4.031-.563v-.813c0-1.02-.021-1.812-.062-2.374-.021-.48-.073-.865-.157-1.157-.062-.333.021-.5.25-.5.167 0 .386.063.657.188.333.166.531.312.593.437.063.104.084.271.063.5-.042.375-.063.938-.063 1.688l.032 2.375c0 .5-.094.896-.282 1.187-.104.125-.208.188-.312.188-.104 0-.25-.094-.438-.281a2.006 2.006 0 0 1-.156-.188.416.416 0 0 0-.187-.156.814.814 0 0 0-.25-.031c-.479.041-1.636.197-3.469.468-.312.042-.562.125-.75.25-.208.104-.344.156-.406.156l-.094-.03Zm12.531-10.437c.063 0 .125.031.188.094a.306.306 0 0 1 .125.187v.063c0 .145-.115.427-.344.843l-2.25 3.906c-.167.355-.385.532-.656.532s-.5-.167-.688-.5c-.187-.271-.416-.677-.687-1.219a3.86 3.86 0 0 1-.313-.563 11.978 11.978 0 0 0-.187-.406c-.229-.396-.344-.677-.344-.844a.21.21 0 0 1 .094-.187c.062-.063.125-.094.187-.094.229 0 .438.125.625.375.146.146.261.302.344.469l.344.469.625.719.281-.438c.292-.5.979-1.49 2.063-2.969.229-.291.427-.437.593-.437Zm-20.062 20.812c-.209 0-.438-.135-.688-.406-1.708-1.77-3.916-3.583-6.625-5.438-.333-.229-.5-.468-.5-.718 0-.209.104-.438.313-.688.208-.27.437-.406.687-.406.167 0 .386.094.656.281 4.917 3.292 7.376 5.281 7.376 5.969 0 .25-.146.542-.438.875-.292.354-.552.531-.781.531Zm-25.594-9.625c0-.125.063-.187.187-.187l.25.062c.584.125 1.063.188 1.438.188h.188l2.25-.094-1-13c-.042-.688-.178-1.292-.407-1.813-.104-.25-.156-.416-.156-.5 0-.124.094-.187.281-.187.313 0 1.011.167 2.094.5 1.75-.52 2.875-1.292 3.375-2.313.104-.229.219-.343.344-.343.229 0 .5.229.812.687.313.459.469.823.469 1.094 0 .23-.083.385-.25.469-.708.458-1.427.854-2.156 1.187-.729.313-1.573.636-2.532.969l.25 3.094 2.126-.125c.52-.042.937-.125 1.25-.25a.501.501 0 0 1 .218-.063c.271 0 .604.188 1 .563.396.354.594.635.594.844 0 .208-.219.333-.656.374l-4.406.282.218 2.937 1.875-.094c.542-.041.959-.124 1.25-.25a.508.508 0 0 1 .219-.062c.25 0 .583.188 1 .563.417.374.625.656.625.843 0 .209-.229.334-.687.375l-4.157.25.313 3.875 16.656-.719.281-3.937-2 .094-.656.031c-.354 0-.635-.052-.844-.156-.5-.313-.833-.75-1-1.313a.433.433 0 0 1-.031-.187c0-.104.062-.156.188-.156.083 0 .156.01.218.03.459.105.875.157 1.25.157h.282l2.687-.156.219-2.969-2.156.125-.626.031c-.374 0-.666-.052-.874-.156-.5-.313-.834-.75-1-1.313a.431.431 0 0 1-.032-.187c0-.104.063-.156.188-.156.083 0 .156.01.218.031.459.104.876.156 1.25.156h.282l2.844-.156.25-3.656-2.594.156c-.25.02-.594.031-1.032.031-.312 0-.541-.041-.687-.125a5.243 5.243 0 0 1-.687-.687c-.25-.313-.376-.625-.376-.938 0-.125.073-.187.219-.187l.188.031c.416.104.864.156 1.343.156h.376l3.5-.218h.374c.313 0 .626.124.938.374.333.23.5.459.5.688 0 .063-.021.156-.062.281a1.648 1.648 0 0 0-.094.344l-.969 13.875 1.219-.063c.187-.02.437-.062.75-.124.333-.084.573-.136.718-.157a.817.817 0 0 1 .25-.031c.209 0 .448.094.719.281.271.188.5.406.688.656.187.25.281.438.281.563a.478.478 0 0 1-.219.406 1.055 1.055 0 0 1-.531.125l-25.938 1.063-.75.031c-.583 0-1.02-.135-1.312-.406-.271-.292-.469-.698-.594-1.219a.688.688 0 0 1-.031-.219Zm1.469 9.656c0-.187.198-.416.594-.687 2.77-1.833 4.906-3.594 6.406-5.281.354-.417.573-.854.656-1.313.062-.333.198-.5.406-.5.104 0 .313.136.625.406.334.25.625.542.875.876.271.312.406.552.406.718 0 .292-.697.938-2.093 1.938a43.803 43.803 0 0 1-4.407 2.75c-1.562.875-2.614 1.312-3.156 1.312-.208 0-.312-.073-.312-.219Zm8.406-10.5c0-.166.083-.416.25-.75.021-.02.208-.312.562-.874.376-.584.75-1.396 1.126-2.438.374-1.042.562-2.02.562-2.938 0-.208.01-.343.031-.406.042-.062.136-.094.281-.094.23 0 .584.126 1.063.376.479.229.719.427.719.593 0 .667-.292 1.521-.875 2.563a17.692 17.692 0 0 1-1.969 2.844c-.708.854-1.219 1.302-1.531 1.343-.104.021-.177-.031-.219-.156v-.063Zm1.656-9c0-.104.011-.187.032-.25.083-.27.145-.677.187-1.218.042-.542.063-.959.063-1.25l.062-3.75c0-.646-.104-1.23-.312-1.75a.346.346 0 0 1-.032-.157c0-.124.094-.187.282-.187.312 0 .687.094 1.124.281.438.188.657.48.657.875v.219l-.094 2.688 2.594-.25c.458-.021.864-.126 1.219-.313a.557.557 0 0 1 .281-.094c.208 0 .5.167.875.5.375.313.562.573.562.782 0 .229-.218.364-.656.406l-4.938.406-.093 2.438 3.469-.344.312-.031c.312.083.573.208.781.374.229.167.344.376.344.626 0 .104-.021.218-.063.343a5.59 5.59 0 0 0-.093.25l-.344 5.531v.188l.031.75c-.041.625-.239 1.073-.594 1.344-.333.229-.604.344-.812.344-.312 0-.698-.198-1.156-.594a10.319 10.319 0 0 1-1.25-1.281c-.375-.459-.563-.74-.563-.844 0-.063.042-.094.125-.094.104 0 .396.104.875.313.104.062.323.177.657.343.354.167.656.271.906.313l.312-6.406-3 .312a5.6 5.6 0 0 0-.437.094 2.89 2.89 0 0 1-.407.031c-.208 0-.416-.104-.624-.313-.188-.208-.282-.416-.282-.624Zm68.844 10.97c-.312 0-.594-.126-.844-.376-.312-.229-.468-.406-.468-.531 0-.146.239-.219.718-.219l1.532-.094 1.562-.156c.042-.333.062-.969.062-1.906.063 0-.26.042-.968.125l-.594.094a1.257 1.257 0 0 1-.5.125.422.422 0 0 1-.312-.125c-.334-.292-.5-.542-.5-.75v-1.469c0-.146-.053-.708-.157-1.688l-.031-.343c0-.167.031-.271.094-.313.062-.041.177-.041.344 0 .624.167.927.354.906.563l-.032.219a8.354 8.354 0 0 0-.062 1.124c0 .542.01.886.031 1.032.042.416.063.614.063.594.021.083.094.124.218.124.126 0 .376-.03.75-.093.396-.084.657-.136.782-.156v-2.75c0-.771-.032-1.292-.094-1.563a4.185 4.185 0 0 1-.062-.344c0-.146.052-.219.156-.219.041 0 .187.042.437.126.396.187.657.354.781.5.146.145.198.302.157.468-.063.209-.104.625-.125 1.25-.042.5-.084 1.313-.125 2.438l1.062-.031c.209 0 .365-.01.469-.032.104-.02.156-.062.156-.125.146-.791.24-1.479.282-2.062l.031-.375c.021-.042.021-.115 0-.219v-.219l-.031-.219c0-.187.072-.28.218-.28.084 0 .261.083.532.25.062.04.145.103.25.187a.535.535 0 0 1 .25.219.45.45 0 0 1 .062.25c0 .124-.01.229-.031.312l-.344 1.75-.094.719c-.083.479-.333.74-.75.781a1.101 1.101 0 0 1-.312-.094.307.307 0 0 0-.157-.062c-.25 0-.77.052-1.562.156l-.031 1.938.531-.032.5-.031c.771 0 1.344-.042 1.719-.125.166 0 .312-.02.437-.063l.094-.03c.208 0 .427.145.656.437.271.27.406.469.406.594 0 .187-.291.25-.874.187l-1.188-.063h-1.562c-.313 0-.886.042-1.719.126-.438 0-.834.02-1.188.062a5.014 5.014 0 0 0-1 .219l-.531.187Zm-3.156 1.406c0 .874-.042 1.677-.125 2.406a34.041 34.041 0 0 1-.407 2.5c-.124.666-.302 1.135-.531 1.406-.208.27-.458.406-.75.406-.646 0-1.364-.406-2.156-1.219-.792-.812-1.604-2.416-2.437-4.812a27.336 27.336 0 0 1-2.313 2.344c-.792.687-1.49 1.229-2.094 1.625-.583.396-.969.594-1.156.594-.146 0-.219-.063-.219-.188 0-.27.209-.583.625-.938 1.813-1.645 3.344-3.374 4.594-5.187-.583-2.083-1.052-4.594-1.406-7.531l-9.407.5h-.218c-.5 0-.917-.167-1.25-.5-.313-.354-.469-.688-.469-1 0-.125.063-.188.187-.188l.25.063c.271.083.594.125.969.125h.313l4.094-.219c.958-1.854 1.437-3.177 1.437-3.969 0-.166-.01-.281-.031-.344a.805.805 0 0 1-.032-.25c0-.124.053-.187.157-.187.146 0 .364.073.656.219.292.146.552.323.781.531.25.208.375.417.375.625 0 .27-.583 1.365-1.75 3.281l3.781-.219c-.229-2.708-.395-5.77-.5-9.187 0-.458-.187-.875-.562-1.25-.104-.104-.156-.188-.156-.25 0-.104.125-.156.375-.156.521 0 1 .073 1.437.218.438.146.656.417.656.813.084 4.167.23 7.406.438 9.719l3.438-.188c.354-.02.697-.083 1.031-.187a.941.941 0 0 1 .281-.031c.229 0 .5.145.812.437.313.292.469.563.469.813 0 .229-.26.364-.781.406l-5.094.281c.209 1.583.354 2.625.438 3.125.104.48.291 1.292.562 2.438.396-.709.761-1.448 1.094-2.22.354-.77.531-1.301.531-1.593a.809.809 0 0 0-.031-.25l-.031-.219c0-.187.073-.281.219-.281.083 0 .26.083.531.25.291.167.552.365.781.594.25.229.375.458.375.687 0 .125-.042.25-.125.375a31.291 31.291 0 0 1-2.781 4.813c.791 2.52 1.687 4.344 2.687 5.469.063.062.125.093.188.093.062 0 .104-.01.125-.031.041 0 .062-.031.062-.094.479-1.437.896-2.99 1.25-4.656.125-.563.281-.844.469-.844.104 0 .188.084.25.25.062.146.094.354.094.625v.156ZM196.5 84.436c0-.187.062-.468.188-.843.437-1.375.843-3.125 1.218-5.25.042-.292.104-.49.188-.594a.42.42 0 0 1 .375-.188c.166 0 .375.063.625.188.271.104.406.26.406.469 0 .416-.115 1.323-.344 2.719-.208 1.374-.489 2.614-.844 3.718-.062.25-.135.427-.218.531-.063.126-.156.188-.282.188-.208 0-.479-.104-.812-.313-.333-.208-.5-.416-.5-.624Zm.25-9.687c0-.083.052-.167.156-.25.104-.104.219-.208.344-.313a3.06 3.06 0 0 1 .219-.187c.125-.083.229-.167.312-.25.313-.27.844-.896 1.594-1.875.771-1 1.552-2.063 2.344-3.188-.375.042-.677.084-.907.126-1.708.229-2.802.343-3.281.343-.208 0-.396-.135-.562-.406-.146-.292-.219-.563-.219-.813 0-.104.031-.187.094-.25.083-.083.208-.166.375-.25a7.43 7.43 0 0 0 .812-.812c.229-.27.636-.885 1.219-1.844a30.996 30.996 0 0 0 1.625-2.906c.479-1 .719-1.74.719-2.219 0-.229.114-.343.344-.343.166 0 .447.135.843.406.417.27.625.52.625.75 0 .27-.062.531-.187.781a24.8 24.8 0 0 0-.219.406c-.292.604-.812 1.51-1.562 2.719-.73 1.208-1.417 2.24-2.063 3.094a40.447 40.447 0 0 0 3.469-.438c.833-1.312 1.26-2.166 1.281-2.562 0-.292.094-.438.281-.438.209 0 .479.136.813.406.354.271.531.532.531.782 0 .125-.062.291-.188.5a3.895 3.895 0 0 0-.25.469c-.416.75-1.26 2.02-2.531 3.812-1.271 1.77-2.312 3.115-3.125 4.031.792-.146 2.219-.52 4.282-1.125a47.726 47.726 0 0 0-.5-1.156c-.126-.23-.188-.396-.188-.5a.576.576 0 0 1 .312-.469 1.21 1.21 0 0 1 .626-.187c.291 0 .51.125.656.375.312.5.687 1.26 1.125 2.281.437 1 .656 1.615.656 1.844 0 .27-.156.479-.469.625-.291.146-.541.219-.75.219-.208-.021-.364-.178-.468-.47l-.407-1.124c-3.812 1.146-6.041 1.719-6.687 1.719-.292-.021-.552-.188-.782-.5-.208-.313-.312-.584-.312-.813Zm3.781 2.813c0-.23.115-.386.344-.47.229-.083.437-.124.625-.124a.42.42 0 0 1 .375.187c.104.104.187.292.25.563l.187.875c.563 2.416.844 3.875.844 4.375 0 .354-.156.594-.468.719-.313.124-.584.187-.813.187a.405.405 0 0 1-.375-.219c-.083-.146-.146-.385-.188-.719-.208-2.083-.437-3.624-.687-4.624a3.633 3.633 0 0 1-.094-.75Zm3-.688c0-.104.084-.23.25-.375.167-.167.396-.25.688-.25.271 0 .479.198.625.594.437.916.823 1.906 1.156 2.969.333 1.041.5 1.74.5 2.093 0 .292-.146.51-.438.656-.291.126-.552.188-.781.188-.271 0-.479-.26-.625-.781-.416-1.792-.812-3.188-1.187-4.188-.125-.5-.188-.802-.188-.906Zm2.688-12.844c0-.125.062-.187.187-.187l.188.031c.416.042.729.063.937.063h.375l3.25-.25a50.411 50.411 0 0 1-.218-.22c-.605-.728-1.396-1.51-2.376-2.343-.124-.104-.187-.208-.187-.313 0-.104.094-.27.281-.5.188-.25.365-.374.532-.374.145 0 .5.208 1.062.624a13.97 13.97 0 0 1 1.562 1.344c.48.459.719.771.719.938 0 .208-.114.427-.343.656l-.126.125 1.313-.094a6.338 6.338 0 0 0 1-.156 1.72 1.72 0 0 1 .344-.063c.208 0 .406.084.593.25.188.146.344.323.469.532.125.187.188.312.188.375 0 .208-.24.333-.719.375l-7 .5c-.146.02-.333.031-.562.031-.417 0-.771-.135-1.063-.406-.271-.292-.406-.604-.406-.938Zm.906 9.063c0-.084.063-.125.187-.125.25 0 .917.177 2 .531l4.344-.25.375-.031c.25 0 .49.104.719.312.25.209.375.417.375.625a.94.94 0 0 1-.094.344c-.041.146-.062.25-.062.313l-.375 5.906c.458.541.687.927.687 1.156 0 .23-.25.344-.75.344l-4.969.156.032 1.031v.094c0 .396-.146.594-.438.594-.271 0-.562-.104-.875-.313-.291-.208-.437-.427-.437-.656l.031-.188a5.72 5.72 0 0 0 .094-1l-.031-.687-.282-6.25a6.396 6.396 0 0 0-.094-.844 2.198 2.198 0 0 0-.312-.75l-.125-.312Zm.563-6.781c0-.167.093-.313.281-.438a.993.993 0 0 1 .625-.219c.208 0 .468.26.781.781.333.5.625 1.063.875 1.688.271.604.406.958.406 1.063 0 .208-.146.374-.437.5-.292.124-.511.187-.657.187a.385.385 0 0 1-.312-.156 1.834 1.834 0 0 1-.25-.5 16.116 16.116 0 0 0-1.188-2.531.791.791 0 0 1-.124-.376Zm1.687 10.812 3.781-.219.094-2.125-3.969.219.094 2.125Zm.125 3.75 3.5-.156.094-2.344-3.688.188.094 2.312Zm9.031-17.594c0-.229.125-.406.375-.531s.438-.188.563-.188c.187 0 .375.126.562.376a47.514 47.514 0 0 1 1.938 2.687c.604.875.906 1.427.906 1.656 0 .188-.135.406-.406.656-.25.23-.49.344-.719.344-.208 0-.406-.198-.594-.594a26.194 26.194 0 0 0-2.406-3.874c-.146-.209-.219-.386-.219-.532Zm60.907 8.688c-.271 0-.469-.094-.594-.281a3.673 3.673 0 0 0-.563-.657c-.166-.166-.469-.396-.906-.687l.094-.156c.958.333 1.635.5 2.031.5.333 0 .698-.188 1.094-.563.416-.396.771-.958 1.062-1.688.146-.333.25-.604.313-.812.083-.23.146-.48.187-.75v-.063c0-.187-.094-.28-.281-.28-.208 0-.583.062-1.125.187-.292.083-.677.208-1.156.375l-.25-.063a.736.736 0 0 0-.156-.094 1.239 1.239 0 0 1-.157-.187c-.104-.104-.156-.177-.156-.219l-.031-.125c0-.146.073-.281.218-.406.167-.125.261-.219.282-.281.166-.188.5-.646 1-1.375.041-.042.114-.136.218-.281.105-.167.157-.313.157-.438 0-.146-.615-.042-1.844.313-1.25.374-1.906.562-1.969.562-.208 0-.427-.177-.656-.531-.167-.167-.25-.302-.25-.407 0-.145.208-.229.625-.25.479-.02 1.219-.104 2.219-.25 1.021-.145 1.625-.24 1.812-.28l.438-.126a.688.688 0 0 1 .218-.031c.063 0 .157.042.282.125.146.083.271.146.375.188.271.124.427.27.469.437v.094c0 .187-.105.385-.313.593-.083.084-.25.26-.5.532-.25.25-.406.416-.469.5-.083.083-.208.219-.375.406-.166.188-.26.302-.281.344 0 .062.021.104.062.125.042.02.094.031.157.031a12.927 12.927 0 0 0 1.531-.281l.5-.156c.229 0 .396.083.5.25.188.208.312.385.375.53a.396.396 0 0 1 0 .376.783.783 0 0 1-.094.187 2.247 2.247 0 0 0-.125.219l-.125.25c-.062.125-.104.25-.125.375-.375 1.083-.823 2.01-1.344 2.781a4.942 4.942 0 0 1-.968.906c-.479.355-.948.532-1.406.532ZM277 81.219c-.688-.25-1.01-.521-.969-.813.125-.875.188-1.875.188-3a13.936 13.936 0 0 0-.094-1.781c-.021-.208-.021-.323 0-.344a.423.423 0 0 1 .313-.125c.187 0 .416.084.687.25.292.167.437.334.437.5 0 .104-.01.209-.031.313a1.153 1.153 0 0 0-.031.281l-.188 3.094c0 .166.063.27.188.312h.156c.167 0 .282-.01.344-.031l4.031-.563V78.5c0-1.02-.021-1.813-.062-2.375-.021-.48-.073-.865-.157-1.156-.062-.334.021-.5.25-.5.167 0 .386.062.657.187.333.167.531.313.593.438.063.104.084.27.063.5-.042.375-.063.937-.063 1.687l.032 2.375c0 .5-.094.896-.282 1.188-.104.125-.208.187-.312.187-.104 0-.25-.094-.438-.281a2.006 2.006 0 0 1-.156-.188.417.417 0 0 0-.187-.156.817.817 0 0 0-.25-.031c-.479.042-1.636.198-3.469.469-.312.041-.562.125-.75.25-.208.104-.344.156-.406.156l-.094-.031Zm12.531-10.438c.063 0 .125.031.188.094a.306.306 0 0 1 .125.188v.062c0 .146-.115.427-.344.844l-2.25 3.906c-.167.354-.385.531-.656.531s-.5-.166-.688-.5c-.187-.27-.416-.677-.687-1.219a3.86 3.86 0 0 1-.313-.562 11.857 11.857 0 0 0-.187-.406c-.229-.396-.344-.677-.344-.844a.21.21 0 0 1 .094-.188c.062-.062.125-.093.187-.093.229 0 .438.125.625.375.146.146.261.302.344.469l.344.468.625.719.281-.438c.292-.5.979-1.49 2.063-2.968.229-.292.427-.438.593-.438Zm-24.593-1.406c-1.021 3.625-2.532 6.708-4.532 9.25a125.58 125.58 0 0 1 8.75 5.156c.459.271.688.584.688.938 0 .27-.104.573-.313.906-.208.354-.437.531-.687.531-.209 0-.521-.156-.938-.469-2.562-1.874-5.489-3.74-8.781-5.593a19.997 19.997 0 0 1-5.094 3.812c-1.854.959-3.541 1.636-5.062 2.031-1.5.417-2.469.626-2.907.626-.374 0-.562-.105-.562-.313 0-.104.062-.219.188-.344.145-.104.343-.198.593-.281 2.396-.833 4.5-1.781 6.313-2.844 1.812-1.062 3.385-2.291 4.718-3.687-2.083-1.104-3.76-1.938-5.031-2.5a1.206 1.206 0 0 0-.375-.094 1.394 1.394 0 0 1-.437-.188c-.125-.104-.24-.28-.344-.53a1.176 1.176 0 0 1-.125-.532c0-.188.073-.406.219-.656a49.429 49.429 0 0 0 2.25-4.594l-6.625.375c-.209.02-.49.031-.844.031-.479 0-.802-.073-.969-.219a2.622 2.622 0 0 1-.719-.874c-.166-.334-.25-.584-.25-.75 0-.105.063-.157.188-.157.104 0 .188.01.25.031.312.105.74.157 1.281.157h.375l8.063-.438a84.326 84.326 0 0 0 1.719-4.75c.562-1.646.843-2.677.843-3.093 0-.25-.041-.49-.125-.72a1.353 1.353 0 0 1-.062-.218c0-.188.135-.281.406-.281.25 0 .656.125 1.219.375.354.166.604.323.75.468.146.126.219.271.219.438 0 .125-.032.25-.094.375a97.137 97.137 0 0 1-2.625 7.281l6.625-.375c.291-.937.416-1.604.375-2l-.031-.312c0-.209.104-.313.312-.313.333 0 .74.156 1.219.469.5.292.76.594.781.906.021.104-.083.48-.312 1.125l4.468-.25c.438-.02.865-.104 1.282-.25a.531.531 0 0 1 .218-.031c.125 0 .334.094.625.281.313.167.584.375.813.625.25.23.375.438.375.625 0 .25-.25.396-.75.438l-7.531.406Zm-11.782 5.594c1.646.75 3.459 1.635 5.438 2.656 1.75-2.208 3.083-4.917 4-8.125l-6.938.406a63.431 63.431 0 0 1-2.5 5.063ZM50.844 88.813h96v1.562h-96v-1.563Zm144 0h96v1.562h-96v-1.563ZM38.2 112.418c-.165 0-.292-.036-.384-.109l-.136-.137a47.476 47.476 0 0 0-.657-1.203c-.346-.657-.601-1.103-.765-1.34-.347-.511-.52-.839-.52-.984 0-.201.119-.493.356-.875.364-.511.61-.921.738-1.231.237-.437.41-.775.52-1.012.109-.255.155-.455.136-.601a1.542 1.542 0 0 1-.027-.301c0-.073.018-.109.055-.109.036-.019.109-.009.218.027.183.055.392.182.63.383.054.054.118.127.19.219a.675.675 0 0 1 .137.246.229.229 0 0 1 .028.191c0 .055-.028.109-.082.164l-.137.109a14.33 14.33 0 0 0-.438.602c-.164.237-.319.456-.464.656l-.684.985c-.182.255-.273.437-.273.547 0 .054.082.2.246.437l.574.629c.547.601.802.884.766.848.346.346.52.683.52 1.011 0 .565-.183.848-.548.848Zm3.609-.082a.91.91 0 0 1-.41-.082 1.8 1.8 0 0 1-.438-.711l-.574-1.012-.547-.957c-.347-.474-.52-.793-.52-.957 0-.219.119-.501.356-.847l.437-.629c.183-.31.283-.493.301-.547.182-.365.337-.684.465-.957.146-.292.21-.511.191-.657a1.145 1.145 0 0 1-.027-.273c0-.146.082-.182.246-.109.237.091.492.237.766.437.127.128.21.237.246.328a.491.491 0 0 1 .082.301c0 .037-.064.109-.192.219a1.715 1.715 0 0 0-.328.301c-.11.109-.355.455-.738 1.039a8.452 8.452 0 0 1-.273.382c-.092.128-.21.301-.356.52-.182.237-.273.41-.273.52 0 .109.109.273.328.492.073.073.146.164.218.273l.329.328.71.793c.347.31.52.611.52.903 0 .601-.173.902-.52.902Zm-2.024 9.379c0-.018.046-.082.137-.192.11-.127.228-.282.355-.464.22-.31.438-.766.657-1.368.218-.601.337-1.157.355-1.668 0-.036-.018-.072-.055-.109-.018-.055-.063-.082-.136-.082l-.63.055-.929.082c-.2.656-.547 1.367-1.039 2.133-.219.346-.52.656-.902.929a3.95 3.95 0 0 1-1.067.547c-.11.037-.246.055-.41.055-.128-.018-.191-.055-.191-.11 0-.072.063-.136.191-.191.219-.146.465-.374.738-.684a7.23 7.23 0 0 0 .766-.957c.128-.182.264-.419.41-.711.146-.309.265-.592.356-.847a9.796 9.796 0 0 0-1.805.41c-.036.036-.1.055-.191.055-.055 0-.137-.037-.247-.11a3.552 3.552 0 0 1-.3-.328c-.037-.091-.019-.173.054-.246l.11-.219c.073-.109.146-.328.218-.656a3.84 3.84 0 0 0 .11-.793.8.8 0 0 0-.028-.191c0-.091.01-.137.028-.137.036-.018.082-.018.137 0 .2.036.382.1.546.191a.797.797 0 0 1 .301.301c.073.091.073.173 0 .246a.795.795 0 0 0-.082.11.343.343 0 0 0-.082.164c-.018.018-.054.218-.11.601 0 .018.01.037.028.055a.118.118 0 0 0 .11 0c.054 0 .136-.009.246-.027.109-.019.191-.037.246-.055.127-.018.273-.046.437-.082.183-.037.347-.064.492-.082.055-.201.091-.419.11-.656.036-.256.064-.429.082-.52l.027-.574v-.192c-.583.019-1.194.073-1.832.164l-.492.083h-.11a.526.526 0 0 1-.273-.083 8.368 8.368 0 0 1-.246-.191c-.237-.219-.355-.383-.355-.492 0-.109.082-.146.246-.109.218.036.446.054.683.054l.793-.027 3.801-.274c.146-.018.282-.036.41-.054.128-.037.255-.064.383-.082h.082c.237 0 .401.045.492.136.11.073.173.119.192.137.291.237.437.419.437.547 0 .109-.155.155-.465.137l-.547-.055c-.474-.018-1.185 0-2.133.055l-.109 1.066a7.254 7.254 0 0 1-.054.438c-.019.109-.037.2-.055.273l-.028.082a36.99 36.99 0 0 0 1.532-.164.898.898 0 0 1 .191-.055 1.67 1.67 0 0 1 .273-.082h.055c.11 0 .219.046.328.137.11.091.173.146.192.164.146.128.246.237.3.328.073.073.083.137.028.192a1.441 1.441 0 0 1-.137.218.614.614 0 0 0-.082.192c-.091.765-.237 1.385-.437 1.859-.164.419-.347.738-.547.957-.183.201-.41.392-.684.574-.11.073-.282.137-.52.192-.236.036-.355.036-.355 0Zm8.067-10.281c.054 0 .109.027.164.082a.264.264 0 0 1 .109.164v.054c0 .128-.1.374-.3.739l-1.97 3.418c-.145.31-.337.464-.574.464-.237 0-.437-.145-.601-.437a9.227 9.227 0 0 1-.602-1.066c-.11-.164-.2-.329-.273-.493a9.567 9.567 0 0 0-.164-.355c-.2-.346-.301-.593-.301-.738 0-.073.027-.128.082-.164.055-.055.11-.082.164-.082.2 0 .383.109.547.328.127.127.228.264.3.41l.301.41.547.629.246-.383c.256-.437.857-1.303 1.805-2.598.2-.255.374-.382.52-.382Zm-22.805 7.054c-1.112 1.422-2.279 2.616-3.5 3.582-1.221.966-2.315 1.687-3.281 2.16-.948.474-1.55.711-1.805.711-.164 0-.246-.054-.246-.164 0-.164.2-.382.601-.656 3.592-2.516 6.144-5.031 7.657-7.547-1.44-2.278-2.452-4.202-3.035-5.769-1.86 3.062-3.081 4.593-3.665 4.593-.09 0-.136-.054-.136-.164 0-.164.11-.437.328-.82a44.076 44.076 0 0 0 2.598-4.922c.838-1.823 1.503-3.472 1.996-4.949.51-1.495.765-2.488.765-2.981l-.027-.382v-.055c0-.146.082-.219.246-.219.219 0 .465.091.738.274.292.182.538.392.739.629.2.237.3.41.3.519 0 .128-.246.82-.738 2.078a48.493 48.493 0 0 1-1.422 3.309l6.617-.41c.328-.019.72-.11 1.176-.274a.91.91 0 0 1 .274-.054c.2 0 .419.091.656.273.237.164.437.365.601.602.183.218.274.373.274.464 0 .183-.2.292-.602.329l-2.433.136c-.784 2.844-1.905 5.442-3.364 7.793 1.933 2.68 4.348 5.077 7.246 7.192.183.145.274.264.274.355 0 .164-.2.374-.602.629-.4.273-.683.41-.847.41-.146 0-.638-.364-1.477-1.094-.82-.711-1.74-1.613-2.762-2.707a33.166 33.166 0 0 1-2.761-3.363l-.383.492Zm-15.45-13.89c0-.11.055-.164.165-.164.054 0 .1.009.136.027.274.073.675.109 1.204.109h.41l5.578-.382h.137c.437 0 .783.118 1.039.355.273.237.41.483.41.738a.957.957 0 0 1-.055.301 3.891 3.891 0 0 0-.082.273l-.71 4.54c.619.565.929.975.929 1.23 0 .237-.192.355-.574.355l-6.016.247-.137 7.41a24.045 24.045 0 0 0 1.696-.821 47.156 47.156 0 0 0 1.668-.902l1.148-.656c.401-.219.665-.328.793-.328s.219.036.273.109a.297.297 0 0 1 .082.219c0 .073-.045.155-.136.246-.091.091-.2.191-.328.301a35.67 35.67 0 0 1-.356.3c-1.094.985-2.142 1.805-3.144 2.461-.402.237-.957.602-1.668 1.094-.584.401-.948.611-1.094.629-.182.018-.392-.118-.63-.41-.236-.292-.309-.52-.218-.684.073-.146.137-.51.192-1.093.054-.602.082-1.049.082-1.34l.082-6.317v-.136c0-.602-.146-1.176-.438-1.723-.11-.219-.164-.365-.164-.438 0-.127.091-.191.274-.191.328 0 1.03.255 2.105.766l3.883-.164.574-4.813-4.648.383-.875.055c-.347 0-.638-.11-.875-.329-.22-.218-.438-.574-.657-1.066a1.14 1.14 0 0 1-.054-.191Zm12.852 4.593c.62 1.787 1.586 3.747 2.899 5.879 1.13-2.023 1.978-4.083 2.543-6.179l-5.442.3Zm58.817 0c-.146 0-.292-.027-.438-.082a.715.715 0 0 1-.328-.328c-.055-.164-.173-.355-.356-.574a2.074 2.074 0 0 0-.492-.492l.11-.137c.09.055.31.164.656.328.346.164.601.246.766.246a.99.99 0 0 0 .683-.273c.2-.182.456-.529.766-1.039.219-.347.42-.757.601-1.231.183-.474.32-.911.41-1.312l.028-.055c0-.054-.018-.1-.055-.137-.036-.054-.073-.082-.11-.082l-1.257.11c-.838.146-1.713.264-2.625.355a2.902 2.902 0 0 0-.574.137c-.219.073-.374.109-.465.109-.146 0-.337-.118-.574-.355a1.911 1.911 0 0 1-.274-.274c-.073-.109-.09-.2-.054-.273l.218-.219.137-.109c.255-.255.51-.593.766-1.012.182-.255.373-.683.574-1.285 0-.2.045-.301.137-.301.054 0 .145.037.273.11l.438.273c.109.091.182.164.218.219a.386.386 0 0 1 .055.219c0 .109-.073.246-.219.41a4.11 4.11 0 0 0-.383.437l-.629.903-.054.109c0 .055.073.082.219.082l2.105-.273 1.422-.11.547-.055.3-.054h.083c.182 0 .382.155.601.465.255.237.383.437.383.601l-.137.356c-.018.036-.164.464-.437 1.285-.328.784-.61 1.376-.848 1.777-.237.401-.492.711-.766.93-.492.401-.966.601-1.421.601Zm-2.98 4.594c-.201 0-.448-.155-.74-.465-.218-.218-.327-.382-.327-.492 0-.055.036-.082.11-.082.072-.018.163-.027.273-.027l.601-.028c.346 0 .574-.009.684-.027.346 0 .638-.009.875-.027 1.567-.146 2.625-.265 3.172-.356.273-.036.52-.073.738-.109a2.26 2.26 0 0 1 .52-.082c.255 0 .51.127.765.383.2.2.3.364.3.492 0 .109-.063.182-.19.219-.092.018-.63.054-1.614.109-.547.018-1.221.064-2.023.137-.802.073-1.504.146-2.106.218l-.465.082c-.2.037-.392.055-.574.055Zm4.073 6.098c-.182.237-.373.355-.574.355-.054 0-.082-.045-.082-.136a1.1 1.1 0 0 1 .11-.438l.546-1.094c.019-.073.046-.146.082-.218a1.48 1.48 0 0 0 .082-.192v-.027c0-.037-.027-.073-.082-.11a.233.233 0 0 0-.191-.027c-.292.018-.73.064-1.313.137-.565.073-.984.146-1.257.219l-.41.136a1.062 1.062 0 0 1-.356.082c-.328 0-.602-.1-.82-.3a1.705 1.705 0 0 1-.41-.383l-.055-.137c0-.091.155-.118.465-.082.419.036 1.285-.018 2.597-.164l.547-.082c.146-.018.374-.046.684-.082a6.79 6.79 0 0 0 .766-.164l.164-.055a.448.448 0 0 1 .191-.055c.091 0 .2.046.328.137.146.091.264.173.356.246.127.091.21.173.246.246.054.055.073.128.054.219 0 .091-.045.173-.136.246a2.743 2.743 0 0 0-.192.164 4.25 4.25 0 0 1-.383.41 4.46 4.46 0 0 1-.492.602c-.218.255-.373.437-.465.547Zm-1.367 5.387c0-.055.091-.201.274-.438.2-.219.355-.392.465-.52.273-.364.601-.893.984-1.585.4-.693.629-1.149.683-1.368.037-.109-.018-.164-.164-.164-.291 0-1.093.082-2.406.246-.857.11-1.495.219-1.914.329a.534.534 0 0 1-.273.082c-.146 0-.301-.101-.465-.301a.726.726 0 0 1-.11-.356c0-.073.046-.146.137-.218l.082-.11c.055-.109.119-.255.192-.437.072-.183.136-.356.191-.52.091-.292.155-.611.191-.957.019-.2.128-.255.329-.164.255.128.446.255.574.383.146.109.191.191.136.246a2.735 2.735 0 0 0-.437.738 7.415 7.415 0 0 0-.164.574c0 .073.045.11.137.11.273 0 .683-.046 1.23-.137l1.148-.137c.456-.054.82-.109 1.094-.164l.684-.136a.686.686 0 0 1 .219-.028c.09 0 .182.037.273.11.091.054.191.127.3.218.183.164.302.301.356.411.055.091.082.2.082.328 0 .073-.054.164-.164.273-.09.11-.2.283-.328.52-.529 1.075-1.212 1.978-2.05 2.707a3.806 3.806 0 0 1-.794.465 1.315 1.315 0 0 1-.355.054c-.091.018-.137 0-.137-.054Zm-10.664-6.29-.027 4.375c0 .42-.137.629-.41.629-.146 0-.374-.082-.684-.246-.31-.146-.465-.355-.465-.629l.027-.164c.092-.474.137-1.103.137-1.886l.028-2.024-1.641.055.027 4.375c0 .2-.045.364-.136.492a.354.354 0 0 1-.328.191c-.128 0-.292-.054-.493-.164-.237-.127-.4-.246-.492-.355a.579.579 0 0 1-.137-.383c0-.091.01-.164.028-.219.054-.382.082-1.002.082-1.859v-2.023l-1.805.082v5.332c0 .364-.146.546-.437.546a2.082 2.082 0 0 1-.903-.355.786.786 0 0 1-.355-.684l.027-.191a8.24 8.24 0 0 0 .137-1.504l.082-7.191c0-.657-.037-1.094-.11-1.313l-.054-.164-.028.274c-.182 1.932-.537 3.709-1.066 5.332-.529 1.604-1.075 2.889-1.64 3.855-.547.966-.93 1.449-1.149 1.449-.11 0-.164-.091-.164-.273 0-.219.073-.501.219-.848.383-.857.72-1.832 1.011-2.926-.054.055-.182.128-.382.219a1.39 1.39 0 0 1-.63.137c-.31 0-.482-.192-.519-.574a18.116 18.116 0 0 0-.574-2.899l-.055-.328c0-.219.11-.374.328-.465.237-.091.438-.136.602-.136.219 0 .374.127.465.382.583 1.769.875 2.853.875 3.254a39.074 39.074 0 0 0 1.066-6.371c.182-2.187.274-4.156.274-5.906 0-1.294-.028-2.16-.082-2.598a4.067 4.067 0 0 0-.301-1.148c-.11-.292-.164-.465-.164-.52 0-.146.09-.218.273-.218.365 0 .994.209 1.887.628 2.935-.565 5.441-1.239 7.52-2.023.346-.146.62-.365.82-.656.09-.128.2-.192.328-.192.255 0 .501.201.738.602.255.383.383.72.383 1.012 0 .255-.128.419-.383.492-2.953.857-6.08 1.531-9.379 2.023v1.313l9.38-.547h.245c.237 0 .483.109.739.328.273.201.41.401.41.602a.677.677 0 0 1-.082.3 1.567 1.567 0 0 0-.082.274l-.356 2.078c.401.492.602.848.602 1.066 0 .128-.064.21-.192.246a2.32 2.32 0 0 1-.52.082l-10.253.52a29.263 29.263 0 0 1-.11 1.531l.137-.027c.183 0 .684.118 1.504.355l8.504-.437h.246c.383 0 .675.118.875.355.219.237.328.438.328.602 0 .091-.027.21-.082.355a1.504 1.504 0 0 0-.055.301l-.081 8.641.027.711c0 .492-.119.847-.356 1.066-.237.237-.483.356-.738.356-.2 0-.483-.174-.848-.52a6.482 6.482 0 0 1-.984-1.121c-.273-.419-.41-.72-.41-.902 0-.092.045-.137.137-.137.145 0 .346.091.601.273.365.237.73.41 1.094.52l.027-4.567-2.078.082Zm-19.879 4.348c0-.146.055-.383.164-.711.42-1.203.812-2.743 1.176-4.621.036-.255.091-.428.164-.519.073-.092.182-.137.328-.137.164 0 .365.055.602.164.237.091.355.228.355.41 0 .328-.11 1.103-.328 2.324a23.598 23.598 0 0 1-.793 3.336c-.11.401-.264.602-.465.602-.2 0-.455-.091-.765-.274-.292-.182-.438-.373-.438-.574Zm.219-8.422c0-.091.073-.191.219-.301.146-.127.237-.2.273-.218.219-.146.374-.265.465-.356.255-.2.747-.729 1.477-1.586a74.98 74.98 0 0 0 2.214-2.734c-.437.036-.765.073-.984.109-1.513.164-2.497.246-2.953.246-.182 0-.346-.127-.492-.382-.146-.256-.219-.493-.219-.711 0-.073.027-.137.082-.192.073-.054.137-.1.191-.136.073-.055.128-.092.164-.11a3.1 3.1 0 0 0 .766-.683c.219-.219.602-.748 1.148-1.586a31.77 31.77 0 0 0 1.532-2.571c.456-.875.683-1.531.683-1.968 0-.201.1-.301.301-.301.091 0 .246.054.465.164.219.109.42.246.602.41.182.164.273.319.273.465 0 .31-.128.674-.383 1.094-.237.474-.71 1.248-1.422 2.324a34.735 34.735 0 0 1-1.941 2.707c.602-.055 1.704-.182 3.309-.383 1.093-1.549 1.64-2.497 1.64-2.844.037-.273.119-.41.246-.41.2 0 .456.128.766.383.328.255.492.501.492.738 0 .091-.055.219-.164.383a5.997 5.997 0 0 1-.246.41c-.401.693-1.294 1.932-2.68 3.719-1.367 1.768-2.415 3.008-3.144 3.719.328-.055 1.258-.274 2.789-.657l1.367-.328c-.31-.711-.474-1.075-.492-1.093-.11-.165-.164-.301-.164-.411 0-.182.09-.319.273-.41.182-.109.365-.164.547-.164.292 0 .501.1.629.301.292.401.647 1.066 1.066 1.996.42.912.63 1.458.63 1.641 0 .237-.138.428-.411.574-.255.128-.483.191-.684.191-.2 0-.346-.136-.437-.41l-.383-.957c-3.682 1.003-5.806 1.504-6.371 1.504-.273-.018-.52-.164-.738-.437-.2-.274-.301-.52-.301-.739Zm3.746 2.543c0-.2.11-.337.328-.41.219-.073.41-.109.574-.109.146 0 .256.054.328.164.092.091.174.246.247.465l.218 1.039c.456 2.005.684 3.208.684 3.609 0 .31-.146.529-.438.656-.273.11-.51.164-.71.164-.292 0-.465-.273-.52-.82-.182-1.805-.392-3.181-.629-4.129l-.055-.328a1.844 1.844 0 0 1-.027-.301Zm16.926-7.82.219-2.024-8.887.493c0 .893-.01 1.558-.027 1.996l8.695-.465Zm-5.496 8.148v-3.062l-1.805.082v3.062l1.805-.082Zm1.422-.054 1.668-.082.027-3.063-1.723.082.028 3.063Zm5.14-.246.028-3.036-2.078.082-.028 3.063 2.078-.109Zm33.66-8.75c0 .382-.118.692-.355.929-.237.219-.593.328-1.066.328-.365 0-.702-.182-1.012-.546-.292-.365-.438-.73-.438-1.094 0-.42.128-.739.383-.957.274-.237.629-.356 1.067-.356.346 0 .665.192.957.574.309.365.464.739.464 1.122Zm-2.871 9.761c0-.419.128-.738.383-.957.274-.237.629-.355 1.067-.355.346 0 .665.191.957.574.309.365.464.738.464 1.121s-.118.693-.355.93c-.237.219-.593.328-1.066.328-.365 0-.702-.182-1.012-.547-.292-.365-.438-.729-.438-1.094Zm61.004-9.351a.6.6 0 0 1-.383-.11l-.136-.136a47.5 47.5 0 0 0-.657-1.203c-.346-.657-.601-1.103-.765-1.34-.347-.511-.52-.839-.52-.985 0-.2.119-.492.356-.875.364-.51.61-.92.738-1.23.237-.438.41-.775.52-1.012.109-.255.155-.456.136-.601a1.567 1.567 0 0 1-.027-.301c0-.073.018-.11.055-.11.036-.018.109-.009.218.028.183.054.392.182.629.383.055.054.119.127.192.218a.667.667 0 0 1 .136.246.23.23 0 0 1 .028.192c0 .054-.028.109-.082.164l-.137.109c-.128.164-.273.365-.438.602-.164.237-.319.456-.464.656l-.684.984c-.182.256-.273.438-.273.547 0 .055.082.201.246.438l.574.629c.547.601.802.884.766.847.346.347.519.684.519 1.012 0 .565-.182.848-.547.848Zm3.61-.082a.928.928 0 0 1-.411-.082 1.803 1.803 0 0 1-.437-.711l-.574-1.012-.547-.957c-.347-.474-.52-.793-.52-.957 0-.219.119-.501.356-.848l.437-.629c.183-.31.283-.492.301-.547.182-.364.337-.683.465-.957.146-.291.21-.51.191-.656a1.163 1.163 0 0 1-.027-.273c0-.146.082-.183.246-.11a3.4 3.4 0 0 1 .766.438c.127.128.209.237.246.328a.496.496 0 0 1 .082.301c0 .036-.064.109-.192.219a1.759 1.759 0 0 0-.328.3c-.109.11-.355.456-.738 1.039-.073.11-.164.237-.273.383-.092.128-.21.301-.356.52-.182.237-.273.41-.273.519 0 .11.109.274.328.492.073.073.146.165.219.274l.328.328.711.793c.346.31.519.611.519.902 0 .602-.173.903-.519.903Zm.355 7.465c-.273 0-.538-.201-.793-.602a8.658 8.658 0 0 0-.957-1.258l-.711-.738c-.383.437-.72.784-1.012 1.039a5.421 5.421 0 0 1-1.039.738c-.784.456-1.44.684-1.968.684-.128 0-.192-.046-.192-.137 0-.055.173-.173.52-.355.346-.183.674-.401.984-.657.784-.656 1.431-1.33 1.942-2.023-.11-.109-.657-.583-1.641-1.422a9.016 9.016 0 0 1-.574-.465 6.371 6.371 0 0 1-.328-.246c-.165-.127-.247-.219-.247-.273 0-.091.046-.137.137-.137.274 0 .711.191 1.313.574.601.365 1.23.802 1.886 1.313.256-.31.456-.602.602-.875.146-.274.31-.611.492-1.012.091-.201.146-.374.164-.52.018-.164.028-.264.028-.3 0-.201.054-.301.164-.301.127 0 .3.1.519.301.383.364.574.61.574.738 0 .073-.045.155-.136.246-.219.219-.42.51-.602.875-.109.219-.31.529-.601.93a2.22 2.22 0 0 0-.219.301 3.18 3.18 0 0 1-.164.246c.419.309 1.039.838 1.859 1.586.201.182.328.355.383.519.073.146.109.346.109.602a.776.776 0 0 1-.136.464.442.442 0 0 1-.356.165Zm-2.68 8.421c-.893 0-1.613-.227-2.16-.683-.583-.511-.875-1.103-.875-1.778 0-.583.21-1.057.629-1.421.182-.164.429-.301.738-.411.31-.127.602-.191.875-.191.183 0 .283-.009.301-.027.037-.037.064-.128.082-.274.018-.127.028-.392.028-.793a1.747 1.747 0 0 1-.028-.383c-1.13.11-1.969.219-2.515.329-.128.018-.283-.01-.465-.082a1.484 1.484 0 0 1-.41-.329c-.11-.127-.146-.218-.11-.273a.491.491 0 0 1 .219-.137c.073-.036.191-.054.355-.054.566 0 .976-.019 1.231-.055l3.828-.383c.055 0 .182-.009.383-.027.219-.018.419-.055.601-.11h.082c.073 0 .137.028.192.082a.46.46 0 0 0 .137.055c.273.219.41.41.41.574 0 .128-.11.192-.328.192l-.329-.028c-.091-.018-.546 0-1.367.055l-.82.055a6.17 6.17 0 0 1 0 .82c-.018.31-.036.574-.055.793l.028.301a.474.474 0 0 1-.11.301c-.109.182-.291.273-.547.273-.145 0-.273-.009-.382-.027l-.274-.055c-.292-.018-.601.1-.93.355-.273.274-.41.566-.41.875 0 .42.173.775.52 1.067.2.164.41.273.629.328.237.073.519.109.847.109.438 0 .848-.073 1.231-.218.383-.146.665-.365.847-.657.073-.127.137-.2.192-.218.055-.037.155-.055.301-.055a.48.48 0 0 1 .355.137c.11.109.164.218.164.328 0 .328-.301.683-.902 1.066-.602.383-1.331.574-2.188.574Zm8.258-12.304c.219 0 .328.1.328.301 0 .109-.1.264-.3.464-.547.675-1.632 1.96-3.254 3.856-.128.164-.246.246-.356.246-.091 0-.292-.137-.601-.41-.256-.219-.383-.401-.383-.547 0-.164.136-.319.41-.465.419-.237 1.048-.711 1.887-1.422.838-.747 1.458-1.34 1.859-1.777.164-.164.301-.246.41-.246Zm-35.465 12.496c0 .474-.136.711-.41.711-.291 0-.62-.119-.984-.356-.347-.218-.52-.528-.52-.929 0-.128.009-.228.028-.301a8.586 8.586 0 0 0 .164-1.778l-.028-18.101a3.21 3.21 0 0 0-.355-1.504c-.11-.255-.164-.41-.164-.465 0-.127.1-.191.301-.191.309 0 .984.182 2.023.547l17.063-1.012h.3c.31 0 .611.1.903.301.31.2.464.437.464.711a.817.817 0 0 1-.082.3.648.648 0 0 0-.082.246l-.082 18.758c.584.657.875 1.094.875 1.313 0 .109-.063.173-.191.191a1.295 1.295 0 0 1-.41.055 2.937 2.937 0 0 1-.328.027l-18.485.41v1.067Zm0-2.516 16.844-.465.055-18.894-16.953.93.054 18.429Zm.766-4.32c0-.128.064-.192.191-.192h.11c.255.055.492.083.711.083.383 0 1.203-.183 2.461-.547a38.218 38.218 0 0 0 3.445-1.149c.273-.091.465-.137.574-.137.201 0 .301.055.301.165 0 .218-.465.592-1.395 1.121a31.437 31.437 0 0 1-3.035 1.504c-1.094.455-1.777.683-2.051.683-.2 0-.401-.1-.601-.301a3.883 3.883 0 0 1-.52-.711c-.127-.255-.191-.428-.191-.519Zm0-9.789c0-.073.046-.11.137-.11l.218.055c.31.091.638.137.985.137h.219l5.632-.301a47.655 47.655 0 0 1-.41-2.351c-.036-.402-.219-.775-.547-1.122-.109-.109-.164-.191-.164-.246 0-.127.155-.191.465-.191.966 0 1.513.237 1.641.711l.027.164c.037.328.073.574.109.738.037.255.083.611.137 1.067.073.455.137.838.192 1.148l3.582-.246c.182 0 .364-.009.546-.027.183-.037.365-.101.547-.192a.453.453 0 0 1 .246-.054c.201 0 .456.154.766.464.328.292.492.511.492.657 0 .182-.2.291-.601.328l-5.305.355c.474 2.279.994 4.065 1.559 5.36.364-.657.701-1.34 1.011-2.051.328-.711.493-1.203.493-1.477a.958.958 0 0 0-.028-.273v-.164c0-.183.064-.274.192-.274.182 0 .464.164.847.492.383.31.574.566.574.766 0 .091-.1.374-.3.848a15.392 15.392 0 0 1-.821 1.668 21.597 21.597 0 0 1-1.257 1.941c.783 1.55 1.576 2.58 2.378 3.09a.43.43 0 0 0 .165.055c.109 0 .164-.037.164-.11.328-1.093.556-2.105.683-3.035.037-.31.1-.547.192-.711.091-.182.182-.273.273-.273.109 0 .191.091.246.273.073.182.119.447.137.793v.547c0 1.786-.128 2.971-.383 3.555-.237.583-.547.875-.93.875-.674 0-1.34-.356-1.996-1.067-.638-.729-1.285-1.64-1.941-2.734-.656.766-1.477 1.559-2.461 2.379-.984.802-1.632 1.203-1.942 1.203-.127 0-.191-.055-.191-.164 0-.182.201-.465.602-.848 1.33-1.221 2.451-2.488 3.363-3.801-.893-1.987-1.595-4.247-2.106-6.781l-5.386.301-.547.027c-.383 0-.647-.063-.793-.191a3.938 3.938 0 0 1-.492-.602c-.146-.237-.219-.437-.219-.601Zm.766 2.68c0-.11.109-.165.328-.165.237 0 .738.11 1.504.329l3.117-.219.164-.028c.219 0 .456.092.711.274.255.182.383.346.383.492a.882.882 0 0 1-.055.246 1.478 1.478 0 0 0-.082.274l-.301 2.023c.365.383.547.665.547.848 0 .164-.21.264-.629.3l-3.582.219.027.274v.082c0 .273-.118.41-.355.41s-.492-.073-.766-.219c-.273-.164-.41-.337-.41-.519 0-.073.009-.128.028-.164a3.24 3.24 0 0 0 .027-.52v-.246l-.164-2.188c-.055-.51-.192-.938-.41-1.285a.464.464 0 0 1-.082-.218Zm2.023 3.417 2.406-.136.219-2.106-2.789.164.164 2.078Zm6.125-9.242c0-.127.046-.291.137-.492.091-.2.237-.301.437-.301.201 0 .702.183 1.504.547.802.347 1.376.611 1.723.793.219.11.328.264.328.465 0 .146-.055.337-.164.574-.11.237-.264.356-.465.356-.109 0-.237-.046-.383-.137-.784-.51-1.704-.975-2.762-1.395-.236-.091-.355-.227-.355-.41Zm59.309 7.11c-.146 0-.292-.028-.438-.082a.716.716 0 0 1-.328-.329c-.055-.164-.173-.355-.355-.574a2.115 2.115 0 0 0-.493-.492l.11-.137c.091.055.31.164.656.329.346.164.602.246.766.246a.988.988 0 0 0 .683-.274c.201-.182.456-.528.766-1.039.219-.346.419-.756.601-1.23.183-.474.319-.912.411-1.313l.027-.055c0-.054-.018-.1-.055-.136-.036-.055-.073-.082-.109-.082l-1.258.109a37.02 37.02 0 0 1-2.625.356 2.828 2.828 0 0 0-.574.136c-.219.073-.374.11-.465.11-.146 0-.337-.119-.574-.356a1.955 1.955 0 0 1-.274-.273c-.073-.11-.091-.201-.054-.274l.218-.218.137-.11c.255-.255.51-.592.766-1.012.182-.255.373-.683.574-1.285 0-.2.045-.3.137-.3.054 0 .145.036.273.109l.438.273c.109.091.182.164.218.219a.386.386 0 0 1 .055.219c0 .109-.073.246-.219.41a4.262 4.262 0 0 0-.383.437l-.628.903-.055.109c0 .055.073.082.219.082l2.105-.273 1.422-.11.547-.054.301-.055h.082c.182 0 .382.155.601.465.255.237.383.437.383.601l-.137.356c-.018.036-.164.465-.437 1.285-.328.784-.611 1.376-.848 1.777s-.492.711-.765.93c-.493.401-.967.602-1.422.602Zm2.242 9.324a.486.486 0 0 1-.246-.082c-.091-.073-.21-.173-.356-.301-.638-.492-1.258-1.23-1.859-2.215a10.412 10.412 0 0 1-1.285-3.199 5.729 5.729 0 0 0-.082-.383 1.685 1.685 0 0 0-.11-.328c0-.018-.027-.027-.082-.027-.127 0-.373.082-.738.246a1.277 1.277 0 0 0-.328.246c-.091.091-.192.128-.301.109-.073 0-.173-.045-.301-.136a1.303 1.303 0 0 1-.273-.247c-.182-.255-.274-.41-.274-.464 0-.11.101-.174.301-.192.274 0 .447-.009.52-.027a7.901 7.901 0 0 0 1.504-.356.996.996 0 0 0 .3-.164.206.206 0 0 0 .082-.027c.055-.018.119 0 .192.055.273.182.41.319.41.41 0 1.276.365 2.47 1.094 3.582.729 1.112 1.795 2.051 3.199 2.816.073.037.164.073.273.11.11.036.164.091.164.164 0 .091-.3.173-.902.246l-.683.109-.219.055Zm6.344-10.363c.054 0 .109.027.164.082a.265.265 0 0 1 .109.164v.054c0 .128-.1.374-.301.739l-1.969 3.418c-.145.31-.337.464-.574.464-.237 0-.437-.145-.601-.437a9.233 9.233 0 0 1-.602-1.066 3.365 3.365 0 0 1-.273-.493 10.748 10.748 0 0 0-.164-.355c-.201-.346-.301-.593-.301-.738 0-.073.027-.128.082-.164.055-.055.109-.082.164-.082.2 0 .383.109.547.328.127.127.228.264.301.41l.3.41.547.629.246-.383c.256-.437.857-1.303 1.805-2.598.201-.255.374-.382.52-.382Zm-25.758-7.684c0-.419-.164-.893-.492-1.422a.486.486 0 0 1-.082-.246c0-.146.127-.219.382-.219.11 0 .319.028.629.082.328.055.638.164.93.328.292.146.437.356.437.629l-.054 7.629 4.457-.683c.401-.055.738-.164 1.011-.328.183-.092.31-.137.383-.137.219 0 .493.127.821.383.328.237.501.501.519.793 0 .309-.228.492-.683.546l-6.508 1.04-.055 8.996c0 .419.064.729.191.929.128.201.411.347.848.438.438.073 1.158.109 2.16.109 1.112 0 2.106-.073 2.981-.219.346-.054.61-.182.793-.382.182-.219.355-.638.519-1.258.183-.638.383-1.641.602-3.008.073-.401.155-.711.246-.93.091-.237.182-.355.273-.355.128 0 .219.209.274.629.073.401.109 1.185.109 2.351 0 1.586-.091 2.68-.273 3.282-.164.601-.629 1.02-1.395 1.257-.765.237-2.114.356-4.047.356-1.349 0-2.36-.064-3.035-.192-.674-.127-1.185-.41-1.531-.847-.328-.419-.492-1.094-.492-2.024l.082-17.527Zm-13.235 19.277c0-.127.092-.191.274-.191 1.148-.037 3.637-.693 7.465-1.969l.027-8.258-4.102.329-.765.054c-.802 0-1.322-.465-1.559-1.394a.31.31 0 0 1-.027-.137c0-.091.055-.137.164-.137l.137.028c.401.036.701.054.902.054.31 0 .547-.009.711-.027l4.539-.301v-6.644c0-.438-.155-.903-.465-1.395a.436.436 0 0 1-.109-.273c0-.128.1-.192.301-.192.328 0 .747.1 1.257.301.529.201.793.447.793.738l-.054 16.625c.31-.109 1.039-.373 2.187-.793.274-.091.474-.136.602-.136.255 0 .383.091.383.273 0 .237-.228.474-.684.711a76.7 76.7 0 0 1-4.648 2.269c-1.495.675-2.762 1.195-3.801 1.559-1.021.383-1.641.574-1.86.574-.237 0-.483-.109-.738-.328a3.61 3.61 0 0 1-.656-.738c-.182-.274-.274-.474-.274-.602Zm72.352-14.082c-.109 0-.255-.118-.438-.355-.182-.255-.264-.474-.246-.656.037-.146.064-.556.082-1.231a68.03 68.03 0 0 0 .028-2.406c0-.802-.009-1.34-.028-1.613l-.902.082c-.638.091-1.185.136-1.641.136-.127 0-.309-.1-.546-.3-.237-.201-.356-.347-.356-.438 0-.146.155-.2.465-.164.2.018.793.009 1.777-.027a88.717 88.717 0 0 1 2.926-.164c.31-.019.592-.046.848-.082.273-.055.465-.092.574-.11.164-.018.31 0 .437.055.128.055.247.127.356.219.127.073.228.127.301.164.164.109.246.209.246.3 0 .073-.046.146-.137.219a.398.398 0 0 1-.246.082c-.091 0-.219-.009-.383-.027a4.05 4.05 0 0 0-.492-.027c-.675 0-1.367.018-2.078.054-.018.146-.028.511-.028 1.094a79.322 79.322 0 0 0-.054 2.898v1.313c0 .31-.028.51-.082.601-.164.256-.292.383-.383.383Zm-2.926 4.84c-.2 0-.446-.155-.738-.465-.219-.218-.328-.382-.328-.492 0-.055.036-.082.109-.082.073-.018.164-.027.274-.027l.601-.028c.346 0 .574-.009.684-.027.346 0 .638-.009.875-.027 1.567-.146 2.625-.265 3.172-.356.273-.036.519-.073.738-.109.219-.055.392-.082.519-.082.256 0 .511.127.766.383.201.2.301.364.301.492 0 .109-.064.182-.192.219-.091.018-.628.054-1.613.109a36.08 36.08 0 0 0-2.023.137 75.87 75.87 0 0 0-2.106.218l-.465.082a3.16 3.16 0 0 1-.574.055Zm5.879 9.434c.037.073.1.182.191.328a.953.953 0 0 1 .137.519.52.52 0 0 1-.219.438.723.723 0 0 1-.492.191c-.164 0-.301-.164-.41-.492-.055-.127-.1-.237-.137-.328a2.53 2.53 0 0 0-.054-.191 6.324 6.324 0 0 1-.93.191c-.383.055-.656.1-.82.137-.875.164-1.477.282-1.805.355-.128.037-.264.073-.41.11a1.107 1.107 0 0 0-.246.109.897.897 0 0 1-.246.055.576.576 0 0 1-.411-.192 1.504 1.504 0 0 1-.492-.656c-.018-.018-.027-.046-.027-.082 0-.037.046-.082.137-.137.109-.054.191-.091.246-.109.237-.128.656-.511 1.258-1.149l.738-.711-1.613-.875c-.183-.054-.301-.118-.356-.191-.055-.073-.082-.182-.082-.328 0-.109.018-.182.055-.219.054-.054.164-.137.328-.246.164-.109.328-.255.492-.437.091-.11.21-.228.356-.356.145-.127.282-.264.41-.41.547-.638.893-1.139 1.039-1.504.091-.182.164-.273.219-.273.036 0 .109.036.218.109.347.255.556.492.629.711v.082c0 .091-.045.164-.137.219a1.07 1.07 0 0 0-.191.136c-.055.037-.328.301-.82.793l-.492.493-.465.464c-.219.201-.328.319-.328.356 0 .055.027.1.082.137a.644.644 0 0 1 .164.109l1.148.547c.711-.711 1.121-1.13 1.231-1.258.474-.547.738-.893.793-1.039a.663.663 0 0 0 .082-.137c.036-.073.073-.109.109-.109.055 0 .109.027.164.082.292.273.501.529.629.766a.492.492 0 0 1 .055.136c0 .037-.046.091-.137.164l-.219.164c-.638.529-1.385 1.222-2.242 2.079l-1.668 1.558c-.036.037-.055.073-.055.11 0 .036.019.063.055.082.036.018.091.018.164 0l3.199-.547c-.091-.365-.2-.73-.328-1.094v-.055c0-.054.028-.082.082-.082.073 0 .182.055.328.164.292.255.657.693 1.094 1.313Zm5.688-8.778c.054 0 .109.028.164.082a.27.27 0 0 1 .109.165v.054c0 .128-.1.374-.301.738l-1.969 3.418c-.145.31-.337.465-.574.465-.237 0-.437-.146-.601-.437a9.263 9.263 0 0 1-.602-1.067 3.357 3.357 0 0 1-.273-.492 10.748 10.748 0 0 0-.164-.355c-.201-.347-.301-.593-.301-.739 0-.072.027-.127.082-.164.055-.054.109-.082.164-.082.2 0 .383.11.547.328.127.128.228.265.301.411l.3.41.547.629.246-.383c.256-.438.857-1.304 1.805-2.598.201-.255.374-.383.52-.383Zm-27.618-11.785c0-.437-.118-.802-.355-1.094-.091-.127-.137-.209-.137-.246 0-.109.1-.164.301-.164.146 0 .392.037.738.11.347.073.666.182.957.328.292.146.438.319.438.519l-.082 20.207.027 1.094c0 .602-.164 1.021-.492 1.258-.328.237-.611.355-.848.355-.273 0-.92-.282-1.941-.847a32.224 32.224 0 0 1-2.817-1.778c-.875-.638-1.312-1.075-1.312-1.312 0-.164.118-.246.355-.246.201 0 .438.064.711.191 1.841.784 3.3 1.322 4.375 1.614l.082-19.989Zm-11.593 16.762c0-.164.109-.419.328-.766 1.239-1.823 2.251-3.463 3.035-4.922a20.826 20.826 0 0 0 1.805-4.73c.073-.292.109-.51.109-.656 0-.146-.027-.301-.082-.465a.616.616 0 0 1-.027-.191c0-.165.091-.247.273-.247.273 0 .684.164 1.23.493.62.364.93.701.93 1.011a.48.48 0 0 1-.027.192c-.875 2.06-1.841 3.883-2.899 5.468-1.057 1.568-2.014 2.799-2.871 3.692-.838.875-1.385 1.312-1.64 1.312-.11 0-.164-.063-.164-.191Zm16.843-10.965c0-.182.137-.383.411-.601.273-.237.537-.356.793-.356.2 0 .373.1.519.301a54.365 54.365 0 0 1 2.68 3.801 72.557 72.557 0 0 1 2.406 3.937c.656 1.149.984 1.814.984 1.996 0 .201-.091.383-.273.547a2.483 2.483 0 0 1-.629.41c-.219.11-.383.164-.492.164-.237 0-.429-.136-.574-.41a69.522 69.522 0 0 0-2.762-5.086 40.1 40.1 0 0 0-2.899-4.293c-.109-.146-.164-.282-.164-.41Zm58.543 3.363c-.273 0-.474-.145-.601-.437l-.246-.547c-.711.182-1.285.319-1.723.41l-1.777.438c-.365.091-.593.136-.684.136a.615.615 0 0 1-.273-.054l-.137-.137a1.188 1.188 0 0 1-.082-.137c-.146-.255-.21-.428-.192-.519l.192-.301c.474-.656.911-1.595 1.312-2.816l-.546.082-.711.082c-.055.018-.174.054-.356.109-.164.036-.292.027-.383-.027-.2-.128-.465-.356-.793-.684-.073-.073-.109-.128-.109-.164 0-.109.2-.164.602-.164h.929c.62-.037 1.185-.082 1.696-.137.109-.273.227-.62.355-1.039.128-.419.219-.756.273-1.012v-.328c.019-.164.055-.264.11-.3h.027c.073 0 .173.036.301.109.128.073.246.164.355.273.347.347.447.62.301.821-.073.018-.228.319-.465.902-.018.036-.082.201-.191.492l1.586-.191c.419-.037.738-.082.957-.137.31-.091.556-.137.738-.137.146 0 .265.055.356.164l.191.192c.055.054.119.164.191.328.073.128.101.219.082.273-.072.11-.2.164-.382.164a15.03 15.03 0 0 0-2.16.055 9.215 9.215 0 0 0-.821.11l-1.066.109-.246.738-.301.656a10.08 10.08 0 0 1-.301.657 6.012 6.012 0 0 0-.246.547.383.383 0 0 0-.027.164c0 .091.054.136.164.136.146 0 .647-.082 1.504-.246l1.011-.164.465-.109c-.164-.456-.291-.748-.383-.875a2.998 2.998 0 0 1-.164-.246l.164-.164c.711.455 1.286.92 1.723 1.394.128.164.21.319.246.465.055.146.073.31.055.492a.759.759 0 0 1-.192.383c-.036.091-.145.155-.328.191Zm-2.242 9.899c0-.018.046-.082.137-.192.109-.127.228-.282.355-.464.219-.31.438-.766.657-1.368.218-.601.337-1.157.355-1.668 0-.036-.018-.072-.055-.109-.018-.055-.063-.082-.136-.082l-.629.055-.93.082c-.2.656-.547 1.367-1.039 2.133-.219.346-.52.656-.902.929a3.95 3.95 0 0 1-1.067.547 1.295 1.295 0 0 1-.41.055c-.128-.018-.191-.055-.191-.11 0-.072.063-.136.191-.191.219-.146.465-.374.738-.684.292-.309.547-.628.766-.957a5.66 5.66 0 0 0 .41-.711c.146-.309.264-.592.356-.847a9.79 9.79 0 0 0-1.805.41c-.037.036-.1.055-.191.055-.055 0-.137-.037-.247-.11a3.548 3.548 0 0 1-.3-.328c-.037-.091-.019-.173.054-.246l.11-.219c.073-.109.146-.328.218-.656.073-.328.11-.592.11-.793a.766.766 0 0 0-.028-.191c0-.091.01-.137.028-.137.036-.018.082-.018.137 0 .2.036.382.1.546.191a.792.792 0 0 1 .301.301c.073.091.073.173 0 .246a.868.868 0 0 0-.082.11.346.346 0 0 0-.082.164c-.018.018-.055.218-.109.601 0 .018.009.037.027.055a.119.119 0 0 0 .11 0c.054 0 .136-.009.246-.027.109-.019.191-.037.246-.055.127-.018.273-.046.437-.082a6.53 6.53 0 0 1 .492-.082c.055-.201.092-.419.11-.656.036-.256.064-.429.082-.52l.027-.574v-.192c-.583.019-1.194.073-1.832.164l-.492.083h-.109a.525.525 0 0 1-.274-.083 8.116 8.116 0 0 1-.246-.191c-.237-.219-.355-.383-.355-.492 0-.109.082-.146.246-.109.218.036.446.054.683.054l.793-.027 3.801-.274c.146-.018.283-.036.41-.054.128-.037.255-.064.383-.082h.082c.237 0 .401.045.492.136.11.073.173.119.192.137.291.237.437.419.437.547 0 .109-.155.155-.465.137l-.547-.055c-.474-.018-1.185 0-2.132.055l-.11 1.066a6.426 6.426 0 0 1-.055.438c-.018.109-.036.2-.054.273l-.028.082c.438-.036.948-.091 1.532-.164a.89.89 0 0 1 .191-.055c.091-.036.182-.063.274-.082h.054c.11 0 .219.046.328.137.11.091.174.146.192.164.146.128.246.237.301.328.072.073.082.137.027.192a1.452 1.452 0 0 1-.137.218.619.619 0 0 0-.082.192c-.091.765-.237 1.385-.437 1.859-.164.419-.347.738-.547.957-.183.201-.41.392-.684.574-.109.073-.282.137-.519.192-.237.036-.356.036-.356 0Zm4.457-9.899c.091 0 .228.064.41.192-.018.036.019.109.11.219l.191.191c.091.091.182.2.274.328.109.128.227.264.355.41.328.347 1.085 1.249 2.27 2.707.2.292.3.465.3.52 0 .182-.109.273-.328.273-.127 0-.264-.091-.41-.273-.346-.365-.966-.939-1.859-1.723-.693-.638-1.322-1.13-1.887-1.476-.273-.128-.41-.274-.41-.438 0-.128.137-.31.41-.547.255-.255.447-.383.574-.383Zm-25.074 7.793a55.609 55.609 0 0 1-4.32 2.735c-1.368.765-2.206 1.148-2.516 1.148a.723.723 0 0 1-.328-.082 2.628 2.628 0 0 1-1.149-1.039.426.426 0 0 1-.054-.164c0-.091.045-.155.137-.191.601-.092 1.622-.401 3.062-.93 1.44-.529 3.062-1.212 4.867-2.051a.922.922 0 0 1 .41-.109c.183 0 .274.064.274.191 0 .164-.128.328-.383.492Zm-11.484.055c0-.164.209-.392.628-.684 1.678-1.112 3.118-2.196 4.321-3.253a21.093 21.093 0 0 0 3.308-3.637l-4.621.219-1.039.054c-.383 0-.692-.1-.929-.301a2.182 2.182 0 0 1-.52-.683c-.091-.255-.137-.419-.137-.492 0-.11.055-.164.164-.164l.219.054c.383.073.784.11 1.203.11h.301l6.344-.301c.437-.747.793-1.477 1.066-2.188l-2.488.137-.656.027c-.693 0-1.14-.419-1.34-1.257l-.028-.11c0-.091.046-.136.137-.136.055 0 .1.009.137.027.328.055.684.082 1.066.082h.328l3.364-.191c.182-.493.364-1.14.547-1.942l-5.223.301c-.255.018-.574.027-.957.027-.456 0-.766-.064-.93-.191-.127-.073-.282-.264-.465-.574-.182-.31-.273-.52-.273-.629 0-.11.064-.164.191-.164.073 0 .137.009.192.027.383.073.784.109 1.203.109h.301l6.261-.382.246-1.75v-.137c0-.346-.1-.638-.3-.875-.091-.128-.137-.228-.137-.301 0-.146.128-.219.383-.219s.638.064 1.148.192c.511.127.766.346.766.656v.082l-.328 2.242 5.222-.301a4.854 4.854 0 0 0 1.45-.3.672.672 0 0 1 .3-.055c.201 0 .411.082.629.246.219.164.41.356.574.574.165.201.247.356.247.465 0 .201-.174.319-.52.356l-8.203.492a31.734 31.734 0 0 1-.492 1.969l4.293-.247a8.623 8.623 0 0 0 1.011-.136.69.69 0 0 1 .219-.028c.182 0 .438.137.766.411.328.273.492.519.492.738 0 .164-.173.264-.52.301l-6.753.355c-.31.857-.648 1.595-1.012 2.215l10.691-.492a5.853 5.853 0 0 0 1.449-.274.916.916 0 0 1 .274-.054c.292 0 .647.209 1.066.628.274.274.41.493.41.657 0 .109-.054.2-.164.273a.678.678 0 0 1-.355.082l-6.809.328c2.461 2.48 5.159 4.421 8.094 5.825.146.072.264.145.356.218.109.073.164.146.164.219 0 .182-.201.428-.602.738-.383.292-.665.438-.848.438-.145 0-.711-.319-1.695-.957-.984-.656-2.142-1.531-3.473-2.625a37.577 37.577 0 0 1-3.882-3.774l-5.551.274a19.524 19.524 0 0 1-3.856 4.156c-1.44 1.167-2.77 2.069-3.992 2.707-1.203.62-1.941.93-2.215.93-.145 0-.218-.046-.218-.137Zm6.89-3.062c0-.183.091-.383.274-.602.182-.219.355-.328.519-.328.128 0 .237.036.328.109 1.222.693 2.142 1.276 2.762 1.75.128.073.191.192.191.356 0 .218-.1.474-.3.765-.183.274-.374.41-.575.41a.493.493 0 0 1-.355-.164c-.911-.783-1.75-1.412-2.516-1.886-.218-.146-.328-.283-.328-.41Zm1.75 5.988c0-.091.055-.137.164-.137.164 0 .374.064.629.192 1.003.455 1.951.774 2.844.957l-.055-9.325c0-.601-.118-1.075-.355-1.422a.464.464 0 0 1-.082-.218c0-.091.082-.137.246-.137.328 0 .72.091 1.176.273.455.183.683.456.683.821v9.844l.028.874c0 .474-.146.83-.438 1.067-.273.237-.519.355-.738.355-.255 0-.72-.218-1.395-.656a13.047 13.047 0 0 1-1.859-1.394c-.565-.493-.848-.857-.848-1.094Zm5.524-3.856c0-.182.209-.401.629-.656a8.62 8.62 0 0 0 1.886-1.613c.584-.675.93-1.222 1.039-1.641.055-.182.137-.273.246-.273.11 0 .274.091.493.273.237.164.446.365.629.602.182.237.273.456.273.656a.421.421 0 0 1-.191.356c-2.571 1.622-4.157 2.433-4.758 2.433-.164 0-.246-.045-.246-.137Zm1.121.93c0-.164.073-.328.219-.492a.752.752 0 0 1 .574-.274c.218 0 .984.374 2.297 1.122a56.2 56.2 0 0 1 3.554 2.105c.255.182.401.383.438.602 0 .127-.082.319-.246.574-.146.273-.338.419-.575.437h-.054c-.11 0-.292-.091-.547-.273-1.149-.802-2.689-1.768-4.621-2.899l-.684-.41a.575.575 0 0 1-.273-.191.572.572 0 0 1-.082-.301Zm55.316-10.527c-.2 0-.446-.155-.738-.465-.219-.219-.328-.383-.328-.492 0-.055.036-.082.109-.082a1.11 1.11 0 0 1 .274-.028l.601-.027c.346 0 .574-.009.684-.027.346 0 .638-.009.875-.028 1.567-.146 2.625-.264 3.172-.355.273-.037.519-.073.738-.11.219-.054.392-.082.519-.082.256 0 .511.128.766.383.201.201.301.365.301.492 0 .11-.064.183-.192.219-.091.018-.628.055-1.613.11-.547.018-1.221.063-2.023.136-.802.073-1.504.146-2.106.219-.109.018-.264.046-.465.082-.2.036-.392.055-.574.055Zm6.207 11.976c.255.164.383.319.383.465 0 .201-.155.328-.465.383-.31.055-.747.091-1.312.109-.821.019-1.349-.009-1.586-.082-.401-.182-.602-.483-.602-.902l.028-1.012c.036-.328.054-.62.054-.875.018-.164.028-.483.028-.957a9.186 9.186 0 0 1-1.067 1.805c-.31.383-.583.702-.82.957-.237.237-.52.465-.848.684-.328.218-.629.328-.902.328-.164 0-.246-.055-.246-.164 0-.019.173-.155.519-.411.365-.273.729-.647 1.094-1.121.547-.729 1.021-1.586 1.422-2.57-.711.091-1.185.173-1.422.246a.988.988 0 0 0-.246.082.695.695 0 0 1-.274 0 2.255 2.255 0 0 1-.382-.219 2.48 2.48 0 0 1-.383-.355c-.073-.109-.11-.182-.11-.219 0-.091.137-.137.411-.137.674 0 1.54-.072 2.597-.218.11-.42.164-1.094.164-2.024v-.519c0-.219.046-.338.137-.356.018-.018.055-.027.109-.027.146 0 .347.109.602.328.201.164.328.292.383.383.073.073.082.173.027.301l-.109.218c-.055.11-.091.219-.11.328l-.109.547a5.716 5.716 0 0 0-.109.684c.255-.018.574-.055.957-.109.383-.055.665-.11.847-.164l.547-.137c.183-.037.483.118.903.465.072.054.109.118.109.191 0 .073-.037.137-.109.191a.386.386 0 0 1-.219.055c-.328 0-.93.055-1.805.164l-.902.082c.2.146.328.274.383.383a.42.42 0 0 1 .027.328l-.082.438c-.037.364-.073.765-.109 1.203a8.794 8.794 0 0 0 0 1.012c0 .091.054.173.164.246a.761.761 0 0 0 .382.109c.456 0 .967-.046 1.532-.137l.246-.054c.109 0 .2.018.273.054Zm5.25-11.484c.219 0 .328.1.328.301 0 .109-.1.264-.3.465-.547.674-1.632 1.959-3.254 3.855-.128.164-.246.246-.356.246-.091 0-.292-.137-.601-.41-.256-.219-.383-.401-.383-.547 0-.164.136-.319.41-.465.419-.237 1.048-.711 1.887-1.422.838-.747 1.458-1.34 1.859-1.777.164-.164.301-.246.41-.246Zm-19.168 13.918c.055 0 .091-.009.11-.027.036 0 .054-.028.054-.082.711-1.805 1.112-4.293 1.203-7.465l-1.367.054c-1.239 2.151-2.579 3.883-4.019 5.196-1.422 1.294-2.68 2.215-3.774 2.761-1.075.547-1.768.821-2.078.821-.182 0-.273-.055-.273-.164 0-.183.273-.456.82-.821a23.671 23.671 0 0 0 7.219-7.683l-2.106.082c-1.093 1.312-2.169 2.397-3.226 3.254-1.058.838-1.969 1.449-2.735 1.832-.747.383-1.239.574-1.476.574-.146 0-.219-.055-.219-.164 0-.091.064-.21.191-.356.146-.164.338-.328.575-.492 1.731-1.221 3.299-2.734 4.703-4.539l-2.762.137a21.469 21.469 0 0 1-2.324 1.695c-.784.492-1.331.738-1.641.738-.127 0-.191-.045-.191-.136 0-.201.191-.447.574-.739 1.568-1.221 3.117-2.843 4.648-4.867l-1.668.11h-.492c-.474 0-.765-.064-.875-.192-.328-.328-.556-.665-.683-1.012l-.055-.218c0-.11.055-.164.164-.164.091 0 .173.009.246.027.328.055.684.082 1.067.082h.328l11.976-.684c.456-.036.802-.091 1.039-.164.146-.036.246-.054.301-.054.219 0 .447.073.684.218a2.7 2.7 0 0 1 .601.493c.183.182.274.328.274.437 0 .237-.219.374-.657.41l-9.898.575a46.893 46.893 0 0 1-1.777 1.941l9.406-.465h.164c.401 0 .702.091.902.274.201.182.301.373.301.574 0 .091-.027.2-.082.328a1.187 1.187 0 0 0-.055.273 44.588 44.588 0 0 1-.82 6.754c-.182.966-.465 1.677-.848 2.133-.364.456-.729.684-1.093.684-.347 0-.857-.201-1.532-.602a12.465 12.465 0 0 1-1.859-1.285c-.565-.474-.848-.802-.848-.984 0-.092.073-.137.219-.137.219 0 .529.082.93.246.984.383 1.859.647 2.625.793h.109Zm-18.922.93c0-.128.009-.228.028-.301.109-.565.164-1.267.164-2.106l.218-16.488v-.465c0-.747-.072-1.312-.218-1.695-.128-.292-.192-.492-.192-.602 0-.127.073-.191.219-.191.237 0 .912.219 2.024.656l3.609-.328.355-.027c.146 0 .365.091.657.273.31.182.464.383.464.602 0 .109-.054.228-.164.355-.091.11-.155.201-.191.274a36.519 36.519 0 0 1-2.27 3.937.426.426 0 0 0-.054.164c0 .11.027.192.082.246.784.875 1.321 1.696 1.613 2.461.31.766.465 1.613.465 2.543 0 .638-.137 1.194-.41 1.668-.255.474-.574.711-.957.711-.274 0-.675-.21-1.203-.629a11.34 11.34 0 0 1-1.422-1.394c-.42-.529-.629-.894-.629-1.094 0-.109.055-.164.164-.164.146 0 .383.109.711.328.383.273.775.519 1.176.738.401.201.665.301.793.301.054 0 .091-.109.109-.328.036-.219.055-.392.055-.52 0-.638-.128-1.276-.383-1.914-.237-.638-.684-1.33-1.34-2.078-.219-.273-.328-.538-.328-.793 0-.219.082-.474.246-.765.766-1.313 1.358-2.443 1.777-3.391l-3.09.273-.273 20.071c0 .51-.155.765-.465.765-.073 0-.219-.045-.437-.136a1.981 1.981 0 0 1-.629-.356.776.776 0 0 1-.274-.601Zm8.942-22.204c0-.091.082-.136.246-.136.255 0 .884.136 1.887.41l7.464-.438h.247c.309 0 .592.092.847.274.274.182.41.374.41.574a.68.68 0 0 1-.082.301c-.036.109-.064.2-.082.273l-.547 5.004c.456.438.684.757.684.957 0 .11-.064.182-.191.219-.11.036-.283.064-.52.082l-7.82.355.027.219v.082c0 .347-.155.52-.465.52-.255 0-.547-.101-.875-.301-.328-.219-.492-.428-.492-.629v-.137c.055-.364.082-.711.082-1.039l-.027-.492-.301-4.375c-.037-.492-.128-.902-.274-1.23-.145-.237-.218-.401-.218-.493Zm2.242 3.336 6.781-.382.164-1.778-7.054.383.109 1.777Zm.219 3.227 6.289-.328.164-1.996-6.59.355.137 1.969Z"/></svg>