<svg width="350" height="88" viewBox="0 0 350 88" fill="none" xmlns="http://www.w3.org/2000/svg">
<path d="M131.582 14.457C131.23 14.457 130.914 14.3164 130.633 14.0352C130.281 13.7773 130.105 13.5781 130.105 13.4375C130.105 13.2734 130.375 13.1914 130.914 13.1914L132.637 13.0859L134.395 12.9102C134.441 12.5352 134.465 11.8203 134.465 10.7656C134.535 10.7656 134.172 10.8125 133.375 10.9062L132.707 11.0117C132.496 11.1055 132.309 11.1523 132.145 11.1523C132.004 11.1523 131.887 11.1055 131.793 11.0117C131.418 10.6836 131.23 10.4023 131.23 10.168V8.51562C131.23 8.35156 131.172 7.71875 131.055 6.61719L131.02 6.23047C131.02 6.04297 131.055 5.92578 131.125 5.87891C131.195 5.83203 131.324 5.83203 131.512 5.87891C132.215 6.06641 132.555 6.27734 132.531 6.51172L132.496 6.75781C132.449 7.08594 132.426 7.50781 132.426 8.02344C132.426 8.63281 132.438 9.01953 132.461 9.18359C132.508 9.65234 132.531 9.875 132.531 9.85156C132.555 9.94531 132.637 9.99219 132.777 9.99219C132.918 9.99219 133.199 9.95703 133.621 9.88672C134.066 9.79297 134.359 9.73437 134.5 9.71094V6.61719C134.5 5.75 134.465 5.16406 134.395 4.85938C134.348 4.625 134.324 4.49609 134.324 4.47266C134.324 4.30859 134.383 4.22656 134.5 4.22656C134.547 4.22656 134.711 4.27344 134.992 4.36719C135.438 4.57812 135.73 4.76563 135.871 4.92969C136.035 5.09375 136.094 5.26953 136.047 5.45703C135.977 5.69141 135.93 6.16016 135.906 6.86328C135.859 7.42578 135.812 8.33984 135.766 9.60547L136.961 9.57031C137.195 9.57031 137.371 9.55859 137.488 9.53516C137.605 9.51172 137.664 9.46484 137.664 9.39453C137.828 8.50391 137.934 7.73047 137.98 7.07422L138.016 6.65234C138.039 6.60547 138.039 6.52344 138.016 6.40625C138.016 6.28906 138.016 6.20703 138.016 6.16016L137.98 5.91406C137.98 5.70312 138.062 5.59766 138.227 5.59766C138.32 5.59766 138.52 5.69141 138.824 5.87891C138.895 5.92578 138.988 5.99609 139.105 6.08984C139.246 6.16016 139.34 6.24219 139.387 6.33594C139.434 6.40625 139.457 6.5 139.457 6.61719C139.457 6.75781 139.445 6.875 139.422 6.96875L139.035 8.9375L138.93 9.74609C138.836 10.2852 138.555 10.5781 138.086 10.625C137.945 10.6016 137.828 10.5664 137.734 10.5195C137.664 10.4727 137.605 10.4492 137.559 10.4492C137.277 10.4492 136.691 10.5078 135.801 10.625L135.766 12.8047L136.363 12.7695L136.926 12.7344C137.793 12.7344 138.438 12.6875 138.859 12.5938C139.047 12.5938 139.211 12.5703 139.352 12.5234L139.457 12.4883C139.691 12.4883 139.938 12.6523 140.195 12.9805C140.5 13.2852 140.652 13.5078 140.652 13.6484C140.652 13.8594 140.324 13.9297 139.668 13.8594L138.332 13.7891H136.574C136.223 13.7891 135.578 13.8359 134.641 13.9297C134.148 13.9297 133.703 13.9531 133.305 14C132.906 14.0469 132.531 14.1289 132.18 14.2461L131.582 14.457ZM139.211 23.668C138.859 23.668 138.52 23.4102 138.191 22.8945C137.77 22.2383 137.359 21.6992 136.961 21.2773L136.047 20.3281C135.555 20.8906 135.121 21.3359 134.746 21.6641C134.395 21.9922 133.949 22.3086 133.41 22.6133C132.402 23.1992 131.559 23.4922 130.879 23.4922C130.715 23.4922 130.633 23.4336 130.633 23.3164C130.633 23.2461 130.855 23.0938 131.301 22.8594C131.746 22.625 132.168 22.3438 132.566 22.0156C133.574 21.1719 134.406 20.3047 135.062 19.4141C134.922 19.2734 134.219 18.6641 132.953 17.5859C132.789 17.4688 132.543 17.2695 132.215 16.9883C132.145 16.9414 132.004 16.8359 131.793 16.6719C131.582 16.5078 131.477 16.3906 131.477 16.3203C131.477 16.2031 131.535 16.1445 131.652 16.1445C132.004 16.1445 132.566 16.3906 133.34 16.8828C134.113 17.3516 134.922 17.9141 135.766 18.5703C136.094 18.1719 136.352 17.7969 136.539 17.4453C136.727 17.0938 136.938 16.6602 137.172 16.1445C137.289 15.8867 137.359 15.6641 137.383 15.4766C137.406 15.2656 137.418 15.1367 137.418 15.0898C137.418 14.832 137.488 14.7031 137.629 14.7031C137.793 14.7031 138.016 14.832 138.297 15.0898C138.789 15.5586 139.035 15.875 139.035 16.0391C139.035 16.1328 138.977 16.2383 138.859 16.3555C138.578 16.6367 138.32 17.0117 138.086 17.4805C137.945 17.7617 137.688 18.1602 137.312 18.6758C137.195 18.8164 137.102 18.9453 137.031 19.0625C136.961 19.1797 136.891 19.2852 136.82 19.3789C137.359 19.7773 138.156 20.457 139.211 21.418C139.469 21.6523 139.633 21.875 139.703 22.0859C139.797 22.2734 139.844 22.5312 139.844 22.8594C139.844 23.0938 139.785 23.293 139.668 23.457C139.551 23.5977 139.398 23.668 139.211 23.668ZM131.441 34.1797C131.09 34.1797 130.82 34.0859 130.633 33.8984C130.422 33.6875 130.316 33.5 130.316 33.3359C130.316 33.1719 130.41 32.9961 130.598 32.8086C130.621 32.7852 130.75 32.5977 130.984 32.2461C131.5 31.4258 132.086 30.3828 132.742 29.1172C133.422 27.8281 133.844 26.9492 134.008 26.4805C134.148 26.0352 134.277 25.6484 134.395 25.3203C134.535 24.9922 134.652 24.8281 134.746 24.8281C134.91 24.8281 135.051 24.8867 135.168 25.0039C135.285 25.0977 135.402 25.2383 135.52 25.4258C135.66 25.5898 135.766 25.707 135.836 25.7773C136 25.9648 136.082 26.1406 136.082 26.3047C136.082 26.4219 136.035 26.5391 135.941 26.6562C135.848 26.7734 135.789 26.8555 135.766 26.9023L134.219 29.5039C133.82 30.2305 133.293 31.1328 132.637 32.2109C132.543 32.3281 132.496 32.4453 132.496 32.5625C132.496 32.6562 132.602 32.7031 132.812 32.7031C133.258 32.7031 134.09 32.6445 135.309 32.5273C136.527 32.4336 137.348 32.3516 137.77 32.2812C138.379 32.2109 138.801 32.1406 139.035 32.0703C139.293 32 139.668 32.1758 140.16 32.5977C140.746 33.0898 140.875 33.4062 140.547 33.5469C140.359 33.6406 139.996 33.6875 139.457 33.6875H138.051C137.746 33.6875 137.266 33.7109 136.609 33.7578C136.211 33.7578 135.766 33.7695 135.273 33.793C134.781 33.8164 134.371 33.8398 134.043 33.8633C133.668 33.8867 132.941 33.957 131.863 34.0742L131.441 34.1797ZM112.457 35.1289C112.457 35.7148 112.223 36.0078 111.754 36.0078C111.402 36.0078 111.016 35.8789 110.594 35.6211C110.172 35.3867 109.961 35.0352 109.961 34.5664L109.996 34.3203C110.113 33.5703 110.172 32.8438 110.172 32.1406L110.207 23.0703L102.543 23.3867L102.648 24.4414V24.5469C102.648 24.9922 102.426 25.2148 101.98 25.2148C101.605 25.2148 101.219 25.0977 100.82 24.8633C100.422 24.6289 100.223 24.2891 100.223 23.8438V23.5625C100.27 23.0469 100.293 22.707 100.293 22.543C100.293 22.3086 100.27 21.9805 100.223 21.5586L99.5898 13.8945C99.5195 13.1211 99.3203 12.4648 98.9922 11.9258C98.8047 11.6211 98.7109 11.3984 98.7109 11.2578C98.7109 11.0703 98.8398 10.9766 99.0977 10.9766C99.5195 10.9766 100.34 11.2227 101.559 11.7148L110.277 11.1875L110.312 5.14062C110.312 4.60156 110.184 4.09766 109.926 3.62891C109.832 3.46484 109.785 3.3125 109.785 3.17188C109.785 2.98437 109.938 2.89062 110.242 2.89062C110.383 2.89062 110.641 2.9375 111.016 3.03125C111.414 3.10156 111.777 3.24219 112.105 3.45312C112.457 3.66406 112.633 3.94531 112.633 4.29688L112.598 11.0469L122.09 10.4844C122.301 10.4609 122.559 10.4492 122.863 10.4492C123.285 10.4492 123.625 10.543 123.883 10.7305C124.141 10.918 124.316 11.1289 124.41 11.3633C124.527 11.5742 124.586 11.7383 124.586 11.8555C124.586 11.9961 124.527 12.1719 124.41 12.3828C124.316 12.5938 124.27 12.7461 124.27 12.8398L123.285 20.4336C123.941 21.1836 124.27 21.7109 124.27 22.0156C124.27 22.2031 124.176 22.332 123.988 22.4023C123.801 22.4492 123.496 22.4844 123.074 22.5078L112.527 22.9648L112.457 35.1289ZM102.402 21.3828L110.242 21.0312L110.277 13.2617L101.734 13.7539L102.402 21.3828ZM121.105 20.5391L121.949 12.5938L112.598 13.1211L112.527 20.9258L121.105 20.5391ZM186.426 16.5664C185.652 16.2852 185.289 15.9805 185.336 15.6523C185.477 14.668 185.547 13.543 185.547 12.2773C185.547 11.7148 185.535 11.3047 185.512 11.0469C185.488 10.7422 185.465 10.4844 185.441 10.2734C185.418 10.0391 185.418 9.91016 185.441 9.88672C185.535 9.79297 185.652 9.74609 185.793 9.74609C186.004 9.74609 186.262 9.83984 186.566 10.0273C186.895 10.2148 187.059 10.4023 187.059 10.5898C187.059 10.707 187.047 10.8242 187.023 10.9414C187 11.0352 186.988 11.1406 186.988 11.2578L186.777 14.7383C186.777 14.9258 186.848 15.043 186.988 15.0898H187.164C187.352 15.0898 187.48 15.0781 187.551 15.0547L192.086 14.4219V13.5078C192.086 12.3594 192.062 11.4688 192.016 10.8359C191.992 10.2969 191.934 9.86328 191.84 9.53516C191.77 9.16016 191.863 8.97266 192.121 8.97266C192.309 8.97266 192.555 9.04297 192.859 9.18359C193.234 9.37109 193.457 9.53516 193.527 9.67578C193.598 9.79297 193.621 9.98047 193.598 10.2383C193.551 10.6602 193.527 11.293 193.527 12.1367L193.562 14.8086C193.562 15.3711 193.457 15.8164 193.246 16.1445C193.129 16.2852 193.012 16.3555 192.895 16.3555C192.777 16.3555 192.613 16.25 192.402 16.0391C192.355 15.9922 192.297 15.9219 192.227 15.8281C192.156 15.7344 192.086 15.6758 192.016 15.6523C191.945 15.6289 191.852 15.6172 191.734 15.6172C191.195 15.6641 189.895 15.8398 187.832 16.1445C187.48 16.1914 187.199 16.2852 186.988 16.4258C186.754 16.543 186.602 16.6016 186.531 16.6016L186.426 16.5664ZM190.891 24.125C190.656 24.4297 190.41 24.582 190.152 24.582C190.082 24.582 190.047 24.5234 190.047 24.4062C190.047 24.2422 190.094 24.0547 190.188 23.8438C190.188 23.8438 190.422 23.375 190.891 22.4375C190.914 22.3438 190.949 22.25 190.996 22.1562C191.043 22.0625 191.078 21.9805 191.102 21.9102V21.875C191.102 21.8281 191.066 21.7812 190.996 21.7344C190.926 21.6875 190.844 21.6758 190.75 21.6992C190.375 21.7227 189.812 21.7812 189.062 21.875C188.336 21.9688 187.797 22.0625 187.445 22.1562C187.305 22.2031 187.129 22.2617 186.918 22.332C186.73 22.4023 186.578 22.4375 186.461 22.4375C186.039 22.4375 185.688 22.3086 185.406 22.0508C185.172 21.8867 184.996 21.7227 184.879 21.5586L184.809 21.3828C184.809 21.2656 185.008 21.2305 185.406 21.2773C185.945 21.3242 187.059 21.2539 188.746 21.0664L189.449 20.9609C189.637 20.9375 189.93 20.9023 190.328 20.8555C190.75 20.7852 191.078 20.7148 191.312 20.6445C191.383 20.6211 191.453 20.5977 191.523 20.5742C191.617 20.5273 191.699 20.5039 191.77 20.5039C191.887 20.5039 192.027 20.5625 192.191 20.6797C192.379 20.7969 192.531 20.9023 192.648 20.9961C192.812 21.1133 192.918 21.2188 192.965 21.3125C193.035 21.3828 193.059 21.4766 193.035 21.5938C193.035 21.7109 192.977 21.8164 192.859 21.9102C192.742 22.0039 192.66 22.0742 192.613 22.1211C192.566 22.1914 192.402 22.3672 192.121 22.6484C192.004 22.8359 191.793 23.0938 191.488 23.4219C191.207 23.75 191.008 23.9844 190.891 24.125ZM189.133 31.0508C189.133 30.9805 189.25 30.8047 189.484 30.5234C189.742 30.2188 189.941 29.9844 190.082 29.8203C190.434 29.3516 190.855 28.6719 191.348 27.7812C191.863 26.8906 192.156 26.3047 192.227 26.0234C192.273 25.8828 192.203 25.8125 192.016 25.8125C191.641 25.8125 190.609 25.918 188.922 26.1289C187.82 26.2695 187 26.4102 186.461 26.5508C186.344 26.6211 186.227 26.6562 186.109 26.6562C185.922 26.6562 185.723 26.5273 185.512 26.2695C185.418 26.1055 185.371 25.9531 185.371 25.8125C185.371 25.7188 185.43 25.625 185.547 25.5312L185.652 25.3906C185.723 25.25 185.805 25.0625 185.898 24.8281C185.992 24.5938 186.074 24.3711 186.145 24.1602C186.262 23.7852 186.344 23.375 186.391 22.9297C186.414 22.6719 186.555 22.6016 186.812 22.7188C187.141 22.8828 187.387 23.0469 187.551 23.2109C187.738 23.3516 187.797 23.457 187.727 23.5273C187.492 23.8086 187.305 24.125 187.164 24.4766C187.047 24.8516 186.977 25.0977 186.953 25.2148C186.953 25.3086 187.012 25.3555 187.129 25.3555C187.48 25.3555 188.008 25.2969 188.711 25.1797C189.109 25.1328 189.602 25.0742 190.188 25.0039C190.773 24.9336 191.242 24.8633 191.594 24.793L192.473 24.6172C192.543 24.5938 192.637 24.582 192.754 24.582C192.871 24.582 192.988 24.6289 193.105 24.7227C193.223 24.793 193.352 24.8867 193.492 25.0039C193.727 25.2148 193.879 25.3906 193.949 25.5312C194.02 25.6484 194.055 25.7891 194.055 25.9531C194.055 26.0469 193.984 26.1641 193.844 26.3047C193.727 26.4453 193.586 26.668 193.422 26.9727C192.742 28.3555 191.863 29.5156 190.785 30.4531C190.48 30.6875 190.141 30.8867 189.766 31.0508C189.602 31.0977 189.449 31.1328 189.309 31.1562C189.191 31.1562 189.133 31.1211 189.133 31.0508ZM200.383 14.8086C200.664 14.8086 200.805 14.9375 200.805 15.1953C200.805 15.3359 200.676 15.5352 200.418 15.793C199.715 16.6602 198.32 18.3125 196.234 20.75C196.07 20.9609 195.918 21.0664 195.777 21.0664C195.66 21.0664 195.402 20.8906 195.004 20.5391C194.676 20.2578 194.512 20.0234 194.512 19.8359C194.512 19.625 194.688 19.4258 195.039 19.2383C195.578 18.9336 196.387 18.3242 197.465 17.4102C198.543 16.4492 199.34 15.6875 199.855 15.125C200.066 14.9141 200.242 14.8086 200.383 14.8086ZM158.512 9.88672C158.254 9.91016 157.926 9.92188 157.527 9.92188H157.176C156.848 9.875 156.613 9.81641 156.473 9.74609C156.238 9.58203 155.992 9.3125 155.734 8.9375C155.477 8.53906 155.348 8.21094 155.348 7.95312C155.348 7.78906 155.418 7.70703 155.559 7.70703C155.652 7.70703 155.734 7.71875 155.805 7.74219C156.227 7.85938 156.742 7.91797 157.352 7.91797H157.809L171.52 7.03906C172.059 6.99219 172.586 6.88672 173.102 6.72266C173.148 6.69922 173.23 6.6875 173.348 6.6875C173.652 6.6875 174.051 6.92187 174.543 7.39062C175.059 7.85938 175.316 8.21094 175.316 8.44531C175.316 8.72656 175.023 8.89062 174.438 8.9375L158.512 9.88672ZM148.949 34.6719C148.949 34.4609 149.219 34.2031 149.758 33.8984C151.82 32.7031 153.543 31.4023 154.926 29.9961C156.332 28.5898 157.492 26.9141 158.406 24.9688C159.32 23 160.059 20.6211 160.621 17.832L154.469 18.1484C154.141 18.1719 153.742 18.1836 153.273 18.1836C152.969 18.1836 152.723 18.1602 152.535 18.1133C152.348 18.0664 152.172 17.9609 152.008 17.7969C151.703 17.4922 151.469 17.1641 151.305 16.8125C151.141 16.4609 151.059 16.2266 151.059 16.1094C151.059 15.9688 151.164 15.8984 151.375 15.8984H151.586C152.031 16.0391 152.57 16.1094 153.203 16.1094H153.555L175.738 14.9844C176.324 14.9375 176.863 14.832 177.355 14.668C177.496 14.6211 177.59 14.5977 177.637 14.5977C177.918 14.5977 178.328 14.832 178.867 15.3008C179.406 15.7695 179.676 16.1562 179.676 16.4609C179.676 16.7188 179.395 16.8711 178.832 16.918L169.199 17.4102L168.988 29.5391V29.6445C168.988 30.2305 169.129 30.6641 169.41 30.9453C169.691 31.2031 170.09 31.3672 170.605 31.4375C171.145 31.5078 171.918 31.543 172.926 31.543C174.332 31.543 175.574 31.4258 176.652 31.1914C177.051 31.1211 177.379 30.8984 177.637 30.5234C177.895 30.1484 178.141 29.4922 178.375 28.5547C178.609 27.6172 178.855 26.2344 179.113 24.4062C179.184 23.9375 179.277 23.5742 179.395 23.3164C179.535 23.0352 179.676 22.8945 179.816 22.8945C180.074 22.8945 180.227 23.1758 180.273 23.7383C180.344 24.3008 180.379 25.0625 180.379 26.0234C180.379 27.5 180.309 29.0117 180.168 30.5586C180.098 31.332 179.887 31.9414 179.535 32.3867C179.207 32.8555 178.539 33.2188 177.531 33.4766C176.547 33.7578 175.082 33.8984 173.137 33.8984C171.777 33.8984 170.664 33.8281 169.797 33.6875C168.93 33.5703 168.191 33.2305 167.582 32.668C166.973 32.1289 166.668 31.2617 166.668 30.0664V29.9609L166.879 17.5156L163.152 17.7266C162.215 22.5078 160.715 26.2344 158.652 28.9062C156.613 31.5547 153.742 33.4883 150.039 34.707C149.758 34.8008 149.5 34.8477 149.266 34.8477C149.055 34.8477 148.949 34.7891 148.949 34.6719ZM246.121 14.3867C245.957 14.3867 245.781 14.2812 245.594 14.0703C245.453 13.9063 245.359 13.7773 245.312 13.6836C245.266 13.5664 245.266 13.4141 245.312 13.2266L245.348 12.3828C245.371 12.2188 245.383 11.8203 245.383 11.1875V10.0273L244.328 10.5195L243.098 11.0469C242.793 11.1641 242.477 11.3047 242.148 11.4688C241.867 11.6094 241.621 11.6797 241.41 11.6797C241.246 11.6563 241.059 11.5977 240.848 11.5039C240.637 11.4102 240.473 11.3281 240.355 11.2578C240.098 11.0938 239.98 10.918 240.004 10.7305L240.109 10.3789C240.109 10.1914 240.121 10.0273 240.145 9.88672L240.18 7.84766V5.94922C240.18 5.57422 240.156 5.25781 240.109 5C240.062 4.71875 240.027 4.51953 240.004 4.40234C240.004 4.28516 240.039 4.20313 240.109 4.15625C240.133 4.13281 240.191 4.12109 240.285 4.12109C240.449 4.12109 240.766 4.22656 241.234 4.4375C241.633 4.625 241.797 4.85938 241.727 5.14062C241.68 5.30469 241.633 5.55078 241.586 5.87891L241.48 9.92188C241.48 10.0391 241.492 10.1328 241.516 10.2031C241.562 10.25 241.609 10.2734 241.656 10.2734C241.938 10.2734 242.277 10.1914 242.676 10.0273C243.426 9.79297 244.07 9.55859 244.609 9.32422L245.383 9.00781V6.6875C245.383 5.75 245.324 4.84766 245.207 3.98047C245.184 3.91016 245.172 3.82812 245.172 3.73438C245.172 3.5 245.266 3.38281 245.453 3.38281C245.477 3.38281 245.605 3.42969 245.84 3.52344C246.191 3.71094 246.449 3.875 246.613 4.01562C246.777 4.15625 246.871 4.23828 246.895 4.26172C246.988 4.33203 247.035 4.40234 247.035 4.47266C247.035 4.51953 247.012 4.57812 246.965 4.64844C246.941 4.71875 246.918 4.77734 246.895 4.82422L246.789 5.87891L246.754 9.11328L246.789 12.2422C246.789 12.7813 246.754 13.25 246.684 13.6484C246.566 14.1406 246.379 14.3867 246.121 14.3867ZM239.652 20.1523C239.395 20.1523 239.078 19.9531 238.703 19.5547C238.422 19.2734 238.281 19.0625 238.281 18.9219C238.281 18.8516 238.328 18.8164 238.422 18.8164C238.516 18.793 238.633 18.7812 238.773 18.7812L239.547 18.7461C239.992 18.7461 240.285 18.7344 240.426 18.7109C240.871 18.7109 241.246 18.6992 241.551 18.6758C243.566 18.4883 244.926 18.3359 245.629 18.2188C245.98 18.1719 246.297 18.125 246.578 18.0781C246.859 18.0078 247.082 17.9727 247.246 17.9727C247.574 17.9727 247.902 18.1367 248.23 18.4648C248.488 18.7227 248.617 18.9336 248.617 19.0977C248.617 19.2383 248.535 19.332 248.371 19.3789C248.254 19.4023 247.562 19.4492 246.297 19.5195C245.594 19.543 244.727 19.6016 243.695 19.6953C242.664 19.7891 241.762 19.8828 240.988 19.9766C240.848 20 240.648 20.0352 240.391 20.082C240.133 20.1289 239.887 20.1523 239.652 20.1523ZM244.363 34.6719C243.637 34.6719 243.074 34.6484 242.676 34.6016C242.301 34.5547 241.984 34.4141 241.727 34.1797C241.281 33.8516 240.977 33.1367 240.812 32.0352L240.707 30.9102C240.707 30.6289 240.684 30.2773 240.637 29.8555C240.262 29.9023 239.992 29.9492 239.828 29.9961C239.781 30.0195 239.699 30.0547 239.582 30.1016C239.488 30.125 239.418 30.1367 239.371 30.1367C239.207 30.1367 239.055 30.0898 238.914 29.9961C238.773 29.9023 238.598 29.7266 238.387 29.4688C238.223 29.2578 238.141 29.1172 238.141 29.0469C238.141 28.9766 238.223 28.9297 238.387 28.9062C238.551 28.8828 238.773 28.8711 239.055 28.8711C239.453 28.8711 239.969 28.8242 240.602 28.7305L240.566 28.2383C240.566 27.3008 240.508 26.5039 240.391 25.8477L240.355 25.6016C240.355 25.2734 240.484 25.1445 240.742 25.2148C241.023 25.3086 241.281 25.4258 241.516 25.5664C241.703 25.6602 241.832 25.7539 241.902 25.8477C241.973 25.918 241.996 26.0234 241.973 26.1641L241.867 27.6758V28.5898L244.961 28.2734C244.961 28.1094 244.973 27.7227 244.996 27.1133C245.02 26.4805 245.02 26.0703 244.996 25.8828C244.996 25.6953 244.973 25.5195 244.926 25.3555C244.902 25.168 244.879 25.0156 244.855 24.8984C244.855 24.7109 244.949 24.6172 245.137 24.6172C245.324 24.6172 245.559 24.7227 245.84 24.9336C246.168 25.1445 246.379 25.332 246.473 25.4961C246.59 25.6602 246.613 25.8594 246.543 26.0938C246.426 26.4688 246.344 26.8906 246.297 27.3594C246.25 27.8281 246.227 28.1094 246.227 28.2031C246.508 28.1797 246.766 28.1445 247 28.0977C247.234 28.0508 247.387 28.0273 247.457 28.0273C247.645 27.9805 247.867 27.957 248.125 27.957C248.266 27.9805 248.465 28.1211 248.723 28.3789C248.934 28.6602 249.039 28.8828 249.039 29.0469C249.039 29.2812 248.816 29.375 248.371 29.3281C247.973 29.2578 247.574 29.2227 247.176 29.2227C246.777 29.2227 246.438 29.2344 246.156 29.2578C246.086 30.1016 245.945 30.9336 245.734 31.7539C245.688 31.9414 245.605 32.0938 245.488 32.2109C245.371 32.3516 245.266 32.4219 245.172 32.4219C245.008 32.4219 244.902 32.3516 244.855 32.2109C244.832 32.0938 244.82 31.8945 244.82 31.6133C244.867 31.0039 244.891 30.2422 244.891 29.3281C244.258 29.375 243.766 29.4219 243.414 29.4688C242.875 29.5859 242.371 29.6562 241.902 29.6797C241.879 30.6406 241.926 31.4961 242.043 32.2461C242.113 32.7383 242.254 33.0781 242.465 33.2656C242.605 33.3828 242.77 33.4531 242.957 33.4766C243.168 33.5 243.379 33.5117 243.59 33.5117C243.801 33.5117 243.941 33.5117 244.012 33.5117C244.738 33.5117 245.418 33.4766 246.051 33.4062C246.238 33.3828 246.402 33.3359 246.543 33.2656C246.707 33.1953 246.824 33.1602 246.895 33.1602C247.105 33.1602 247.316 33.2305 247.527 33.3711C247.738 33.5117 247.844 33.6758 247.844 33.8633C247.844 34.0508 247.738 34.1914 247.527 34.2852C247.34 34.3789 247.035 34.4609 246.613 34.5312C245.863 34.625 245.113 34.6719 244.363 34.6719ZM254.383 18.6758C254.664 18.6758 254.805 18.8047 254.805 19.0625C254.805 19.2031 254.676 19.4023 254.418 19.6602C253.715 20.5273 252.32 22.1797 250.234 24.6172C250.07 24.8281 249.918 24.9336 249.777 24.9336C249.66 24.9336 249.402 24.7578 249.004 24.4062C248.676 24.125 248.512 23.8906 248.512 23.7031C248.512 23.4922 248.688 23.293 249.039 23.1055C249.578 22.8008 250.387 22.1914 251.465 21.2773C252.543 20.3164 253.34 19.5547 253.855 18.9922C254.066 18.7812 254.242 18.6758 254.383 18.6758ZM209.699 30.1719C211.785 29.5156 213.648 28.8008 215.289 28.0273C214.938 27.5352 214.492 26.9727 213.953 26.3398C213.766 26.1055 213.672 25.918 213.672 25.7773C213.672 25.5195 213.824 25.2969 214.129 25.1094C214.434 24.8984 214.668 24.793 214.832 24.793C215.02 24.793 215.219 24.9102 215.43 25.1445C216.766 26.7148 217.902 28.0977 218.84 29.293C219.777 30.4883 220.246 31.2148 220.246 31.4727C220.246 31.6836 220.082 31.9297 219.754 32.2109C219.449 32.5156 219.156 32.668 218.875 32.668C218.641 32.668 218.406 32.4805 218.172 32.1055C217.633 31.2852 217.023 30.3945 216.344 29.4336L212.125 31.543C211.656 31.7539 210.918 32.1289 209.91 32.668C209.066 33.1133 208.551 33.3359 208.363 33.3359C208.223 33.3359 208.047 33.2422 207.836 33.0547C207.625 32.8906 207.461 32.6797 207.344 32.4219C207.25 32.1875 207.25 32 207.344 31.8594C207.484 31.6016 207.555 30.5703 207.555 28.7656V16.6016C207.555 16.0391 207.531 15.582 207.484 15.2305C207.461 14.8789 207.367 14.5039 207.203 14.1055C207.18 14.0352 207.156 13.9766 207.133 13.9297C207.109 13.8828 207.098 13.8359 207.098 13.7891C207.098 13.6719 207.18 13.6133 207.344 13.6133C207.648 13.6133 208.41 13.8711 209.629 14.3867L217.258 13.8594C217.445 13.8359 217.656 13.8242 217.891 13.8242C218.148 13.8242 218.453 13.9414 218.805 14.1758C219.156 14.3867 219.332 14.6211 219.332 14.8789C219.332 14.9727 219.273 15.1133 219.156 15.3008C219.062 15.4883 219.016 15.6289 219.016 15.7227L218.102 22.332C218.664 22.9883 218.945 23.4336 218.945 23.668C218.945 23.7852 218.875 23.8672 218.734 23.9141C218.617 23.9609 218.43 23.9844 218.172 23.9844L209.664 24.3008L209.699 30.1719ZM203.934 14.3867C203.934 14.1523 204.086 13.8711 204.391 13.543C206.102 11.6445 207.59 9.75781 208.855 7.88281C210.121 6.00781 210.754 4.75391 210.754 4.12109L210.719 3.875V3.76953C210.719 3.44141 210.848 3.27734 211.105 3.27734C211.41 3.27734 211.832 3.48828 212.371 3.91016C212.934 4.30859 213.215 4.63672 213.215 4.89453C213.215 5.01172 213.156 5.16406 213.039 5.35156C212.688 5.91406 212.301 6.47656 211.879 7.03906L216.871 6.65234C217.293 6.62891 217.738 6.53516 218.207 6.37109C218.348 6.32422 218.453 6.30078 218.523 6.30078C218.875 6.30078 219.25 6.5 219.648 6.89844C220.07 7.27344 220.281 7.56641 220.281 7.77734C220.281 8.05859 220.023 8.22266 219.508 8.26953L213.496 8.69141C213.66 8.73828 214.023 8.98438 214.586 9.42969C215.172 9.875 215.699 10.332 216.168 10.8008C216.637 11.2695 216.871 11.5977 216.871 11.7852C216.871 11.9961 216.73 12.2539 216.449 12.5586C216.168 12.8398 215.922 12.9805 215.711 12.9805C215.523 12.9805 215.301 12.8281 215.043 12.5234C214.246 11.6563 213.438 10.8945 212.617 10.2383C212.336 10.0039 212.195 9.80469 212.195 9.64062C212.195 9.52344 212.254 9.37109 212.371 9.18359C212.488 8.99609 212.641 8.84375 212.828 8.72656L210.473 8.90234C209.348 10.2852 208.105 11.5859 206.746 12.8047C205.387 14 204.52 14.5977 204.145 14.5977C204.004 14.5977 203.934 14.5273 203.934 14.3867ZM216.59 18.043L216.836 15.582L209.594 16.0742V18.3945L216.59 18.043ZM216.133 22.4023L216.414 19.6953L209.629 20.0117V22.6484L216.133 22.4023ZM218.031 12.875C218.031 12.6406 218.184 12.3594 218.488 12.0312C219.637 10.6484 220.68 9.08984 221.617 7.35547C222.578 5.59766 223.059 4.36719 223.059 3.66406V3.52344C223.059 3.17188 223.188 2.99609 223.445 2.99609C223.609 2.99609 223.855 3.08984 224.184 3.27734C224.535 3.44141 224.852 3.64063 225.133 3.875C225.414 4.10937 225.555 4.34375 225.555 4.57812C225.555 4.78906 225.391 5.16406 225.062 5.70312C224.734 6.24219 224.559 6.52344 224.535 6.54688L231.461 5.98438C231.977 5.9375 232.422 5.85547 232.797 5.73828C232.844 5.71484 232.938 5.70312 233.078 5.70312C233.406 5.70312 233.758 5.89063 234.133 6.26562C234.531 6.61719 234.73 6.91016 234.73 7.14453C234.73 7.28516 234.66 7.40234 234.52 7.49609C234.402 7.56641 234.238 7.61328 234.027 7.63672L226.891 8.12891C227.547 8.55078 228.32 9.17187 229.211 9.99219C230.102 10.7891 230.547 11.3281 230.547 11.6094C230.547 11.7734 230.418 12.0312 230.16 12.3828C229.902 12.7109 229.656 12.875 229.422 12.875C229.234 12.875 229.035 12.7578 228.824 12.5234C227.676 11.2812 226.633 10.2969 225.695 9.57031C225.461 9.38281 225.344 9.20703 225.344 9.04297C225.344 8.85547 225.52 8.57422 225.871 8.19922L223.27 8.375C222.496 9.40625 221.559 10.4492 220.457 11.5039C219.379 12.5586 218.652 13.0859 218.277 13.0859C218.113 13.0859 218.031 13.0156 218.031 12.875ZM221.336 13.6484C221.336 13.5078 221.418 13.4375 221.582 13.4375C221.934 13.4375 222.73 13.7305 223.973 14.3164L231.039 13.7188L231.32 13.6836C231.414 13.6836 231.59 13.7305 231.848 13.8242C232.129 13.8945 232.387 14.0234 232.621 14.2109C232.879 14.375 233.008 14.5977 233.008 14.8789C233.008 14.9727 232.973 15.1016 232.902 15.2656C232.832 15.4297 232.797 15.5469 232.797 15.6172C232.773 18.1953 232.609 20.9492 232.305 23.8789L232.234 24.7578C232.164 25.7422 232.07 26.5625 231.953 27.2188C231.836 27.875 231.637 28.3906 231.355 28.7656C230.91 29.375 230.43 29.6797 229.914 29.6797C229.398 29.6797 228.742 29.3633 227.945 28.7305C227.148 28.0977 226.41 27.4062 225.73 26.6562C225.074 25.9062 224.746 25.4258 224.746 25.2148C224.746 25.0508 224.84 24.9688 225.027 24.9688C225.238 24.9688 225.531 25.0859 225.906 25.3203C226.773 25.8594 227.5 26.293 228.086 26.6211C228.672 26.9492 229.094 27.1133 229.352 27.1133C229.469 27.1133 229.551 27.0312 229.598 26.8672C230.137 23.8672 230.465 20.1055 230.582 15.582L223.973 16.0742C223.973 20.0352 224.008 26.3164 224.078 34.918C224.078 35.1289 224.02 35.2812 223.902 35.375C223.809 35.4922 223.68 35.5508 223.516 35.5508C223.328 35.5508 223.105 35.4805 222.848 35.3398C222.402 35.1523 222.086 34.9766 221.898 34.8125C221.711 34.6484 221.617 34.4609 221.617 34.25L221.652 34.0039C221.793 33.2305 221.863 32.3633 221.863 31.4023L221.758 16.5664C221.758 15.957 221.734 15.4883 221.688 15.1602C221.664 14.832 221.594 14.5156 221.477 14.2109C221.383 13.9297 221.336 13.7422 221.336 13.6484Z" fill="#333333"/>
<path d="M166.031 68.25C165.719 68.25 165.448 68.1354 165.219 67.9062C164.531 67.1562 163.833 66.4792 163.125 65.875C162.333 65.2083 161.635 64.7083 161.031 64.375C160.74 64.2083 160.594 63.9479 160.594 63.5938C160.594 63.5312 160.667 63.4479 160.812 63.3438C161 63.2188 161.302 62.9479 161.719 62.5312L162.844 61.4375C163.344 60.9167 163.76 60.4479 164.094 60.0312C164.448 59.6146 164.646 59.3229 164.688 59.1562C164.708 59.1146 164.729 59.0312 164.75 58.9062C164.792 58.7604 164.854 58.6875 164.938 58.6875C165.042 58.6875 165.177 58.7396 165.344 58.8438C165.531 58.9479 165.688 59.0521 165.812 59.1562C166.125 59.4479 166.281 59.6979 166.281 59.9062C166.26 59.9688 166.177 60.0417 166.031 60.125C165.906 60.1875 165.792 60.25 165.688 60.3125C165.583 60.3958 165.208 60.7292 164.562 61.3125L162.531 63.0625C162.177 63.3542 162 63.5833 162 63.75C162 63.8333 162.167 63.9688 162.5 64.1562C162.896 64.4062 163.667 64.9167 164.812 65.6875C165.25 65.9792 165.667 66.3021 166.062 66.6562C166.396 66.9896 166.562 67.3333 166.562 67.6875C166.562 67.8542 166.49 68 166.344 68.125C166.26 68.2083 166.156 68.25 166.031 68.25ZM160.469 73.4688C160.24 73.4688 159.958 73.2917 159.625 72.9375C159.375 72.6875 159.25 72.5 159.25 72.375C159.25 72.3125 159.292 72.2812 159.375 72.2812C159.458 72.2604 159.562 72.25 159.688 72.25L160.375 72.2188C160.771 72.2188 161.031 72.2083 161.156 72.1875C161.552 72.1875 161.885 72.1771 162.156 72.1562C163.948 71.9896 165.156 71.8542 165.781 71.75C166.094 71.7083 166.375 71.6667 166.625 71.625C166.875 71.5625 167.073 71.5312 167.219 71.5312C167.51 71.5312 167.802 71.6771 168.094 71.9688C168.323 72.1979 168.438 72.3854 168.438 72.5312C168.438 72.6562 168.365 72.7396 168.219 72.7812C168.115 72.8021 167.5 72.8438 166.375 72.9062C165.75 72.9271 164.979 72.9792 164.062 73.0625C163.146 73.1458 162.344 73.2292 161.656 73.3125C161.531 73.3333 161.354 73.3646 161.125 73.4062C160.896 73.4479 160.677 73.4688 160.469 73.4688ZM167.562 85.2812C167.854 85.4688 168 85.6458 168 85.8125C168 86.0417 167.823 86.1875 167.469 86.25C167.115 86.3125 166.615 86.3542 165.969 86.375C165.031 86.3958 164.427 86.3646 164.156 86.2812C163.698 86.0729 163.469 85.7292 163.469 85.25L163.5 84.0938C163.542 83.7188 163.562 83.3854 163.562 83.0938C163.583 82.9062 163.594 82.5417 163.594 82C163.281 82.7083 162.875 83.3958 162.375 84.0625C162.021 84.5 161.708 84.8542 161.438 85.125C161.167 85.4167 160.844 85.6875 160.469 85.9375C160.094 86.1875 159.75 86.3125 159.438 86.3125C159.25 86.3125 159.156 86.25 159.156 86.125C159.156 86.1042 159.354 85.9375 159.75 85.625C160.167 85.3333 160.583 84.9167 161 84.375C161.625 83.5417 162.167 82.5625 162.625 81.4375C161.812 81.5417 161.271 81.6354 161 81.7188C160.896 81.7396 160.802 81.7708 160.719 81.8125C160.635 81.8333 160.531 81.8333 160.406 81.8125C160.302 81.7708 160.156 81.6875 159.969 81.5625C159.781 81.4167 159.635 81.2812 159.531 81.1562C159.448 81.0312 159.406 80.9479 159.406 80.9062C159.406 80.8021 159.562 80.75 159.875 80.75C160.646 80.75 161.635 80.6667 162.844 80.5C162.969 80.0208 163.031 79.25 163.031 78.1875V77.5938C163.031 77.3438 163.083 77.2083 163.188 77.1875C163.208 77.1667 163.25 77.1562 163.312 77.1562C163.479 77.1562 163.708 77.2812 164 77.5312C164.229 77.7188 164.375 77.8646 164.438 77.9688C164.521 78.0521 164.531 78.1667 164.469 78.3125C164.448 78.3542 164.406 78.4375 164.344 78.5625C164.281 78.6875 164.24 78.8125 164.219 78.9375C164.198 79.0417 164.156 79.25 164.094 79.5625C164.031 79.8542 163.99 80.1146 163.969 80.3438C164.26 80.3229 164.625 80.2812 165.062 80.2188C165.5 80.1562 165.823 80.0938 166.031 80.0312L166.656 79.875C166.865 79.8333 167.208 80.0104 167.688 80.4062C167.771 80.4688 167.812 80.5417 167.812 80.625C167.812 80.7083 167.771 80.7812 167.688 80.8438C167.625 80.8854 167.542 80.9062 167.438 80.9062C167.062 80.9062 166.375 80.9688 165.375 81.0938L164.344 81.1875C164.573 81.3542 164.719 81.5 164.781 81.625C164.844 81.75 164.854 81.875 164.812 82L164.719 82.5C164.677 82.9167 164.635 83.375 164.594 83.875C164.573 84.375 164.573 84.7604 164.594 85.0312C164.594 85.1354 164.656 85.2292 164.781 85.3125C164.927 85.3958 165.073 85.4375 165.219 85.4375C165.74 85.4375 166.323 85.3854 166.969 85.2812L167.25 85.2188C167.375 85.2188 167.479 85.2396 167.562 85.2812ZM173.688 74.2188C173.75 74.2188 173.812 74.25 173.875 74.3125C173.938 74.3542 173.979 74.4167 174 74.5V74.5625C174 74.7083 173.885 74.9896 173.656 75.4062L171.406 79.3125C171.24 79.6667 171.021 79.8438 170.75 79.8438C170.479 79.8438 170.25 79.6771 170.062 79.3438C169.875 79.0729 169.646 78.6667 169.375 78.125C169.25 77.9375 169.146 77.75 169.062 77.5625C168.979 77.375 168.917 77.2396 168.875 77.1562C168.646 76.7604 168.531 76.4792 168.531 76.3125C168.531 76.2292 168.562 76.1667 168.625 76.125C168.688 76.0625 168.75 76.0312 168.812 76.0312C169.042 76.0312 169.25 76.1562 169.438 76.4062C169.583 76.5521 169.698 76.7083 169.781 76.875L170.125 77.3438L170.75 78.0625L171.031 77.625C171.323 77.125 172.01 76.1354 173.094 74.6562C173.323 74.3646 173.521 74.2188 173.688 74.2188ZM142.656 77.6875C142.26 79.2083 141.656 80.6146 140.844 81.9062C140.031 83.1979 139.208 84.2292 138.375 85C137.562 85.7917 137.01 86.1875 136.719 86.1875C136.573 86.1875 136.5 86.1146 136.5 85.9688C136.5 85.7604 136.615 85.5104 136.844 85.2188C138.198 83.4896 139.312 81.5625 140.188 79.4375C141.083 77.3125 141.531 74.7292 141.531 71.6875V71.3438C141.531 70.9479 141.438 70.4583 141.25 69.875L141.188 69.6875C140.396 70.4792 139.49 71.2083 138.469 71.875C138.094 72.125 137.812 72.25 137.625 72.25C137.479 72.25 137.406 72.1875 137.406 72.0625C137.406 71.8333 137.594 71.5417 137.969 71.1875C141.302 67.8958 143.906 64.4167 145.781 60.75C145.99 60.3542 146.104 59.8854 146.125 59.3438C146.146 58.9479 146.26 58.75 146.469 58.75C146.552 58.75 146.74 58.8333 147.031 59C147.344 59.1458 147.625 59.3333 147.875 59.5625C148.125 59.7917 148.25 60.0417 148.25 60.3125C148.25 60.3958 148.177 60.5729 148.031 60.8438C147.885 61.1146 147.74 61.375 147.594 61.625C151.031 65.1667 154.385 67.9375 157.656 69.9375C157.885 70.0417 158 70.1562 158 70.2812C158 70.3229 157.896 70.4583 157.688 70.6875C157.5 70.8958 157.292 71.0938 157.062 71.2812C156.833 71.4479 156.625 71.5312 156.438 71.5312C156.354 71.5312 156.26 71.5 156.156 71.4375C154.49 70.2083 152.906 68.9271 151.406 67.5938C149.927 66.2396 148.375 64.7188 146.75 63.0312C145.812 64.4688 144.927 65.6667 144.094 66.625C144.26 66.6458 144.5 66.6562 144.812 66.6562H145.094L147.5 66.5C147.958 66.4792 148.344 66.3854 148.656 66.2188H148.781C148.99 66.2188 149.271 66.3542 149.625 66.625C149.979 66.8958 150.156 67.1458 150.156 67.375C150.156 67.6042 149.979 67.7292 149.625 67.75L145.344 68.0625L144.906 68.0938C144.552 68.0938 144.281 68.0208 144.094 67.875C143.99 67.7708 143.938 67.7188 143.938 67.7188C143.771 67.4688 143.667 67.2812 143.625 67.1562C142.917 67.9271 142.292 68.5521 141.75 69.0312C141.979 69.0938 142.542 69.3021 143.438 69.6562L152 69.1562H152.188C152.375 69.1562 152.646 69.25 153 69.4375C153.354 69.625 153.531 69.8646 153.531 70.1562C153.531 70.2396 153.5 70.3438 153.438 70.4688C153.396 70.5938 153.365 70.7083 153.344 70.8125L152.75 75.8125C153.188 76.3333 153.406 76.6979 153.406 76.9062C153.406 77.0312 153.333 77.1146 153.188 77.1562C153.042 77.1979 152.812 77.2292 152.5 77.25L142.656 77.6875ZM128.094 76.25C128.094 76.1042 128.198 76.0312 128.406 76.0312H128.625C129 76.0312 129.677 75.8958 130.656 75.625C131.635 75.3542 132.542 75.0521 133.375 74.7188L133.406 68.3125L131.594 68.4688C131.344 68.4896 131.021 68.5 130.625 68.5C130.271 68.5 129.938 68.4167 129.625 68.25C129.333 68.0833 129.104 67.6771 128.938 67.0312C128.917 66.9896 128.906 66.9271 128.906 66.8438C128.906 66.7396 128.958 66.6875 129.062 66.6875L129.188 66.7188C129.5 66.7812 129.844 66.8125 130.219 66.8125C130.531 66.8125 130.781 66.8021 130.969 66.7812L133.406 66.5938L133.438 61.4375C133.438 61.0833 133.396 60.7917 133.312 60.5625C133.25 60.3125 133.115 60.0312 132.906 59.7188C132.844 59.6146 132.812 59.5208 132.812 59.4375C132.812 59.3125 132.917 59.25 133.125 59.25C133.271 59.25 133.51 59.2917 133.844 59.375C134.198 59.4583 134.521 59.6042 134.812 59.8125C135.104 60 135.25 60.2604 135.25 60.5938L135.219 66.4688L136.406 66.375C136.823 66.3542 137.219 66.2604 137.594 66.0938C137.677 66.0521 137.75 66.0312 137.812 66.0312C138.104 66.0312 138.448 66.1979 138.844 66.5312C139.24 66.8646 139.438 67.1562 139.438 67.4062C139.438 67.5312 139.365 67.6354 139.219 67.7188C139.094 67.8021 138.927 67.8542 138.719 67.875L135.219 68.1562L135.188 74.0938C136.188 73.7188 137.281 73.2292 138.469 72.625C138.719 72.5 138.917 72.4375 139.062 72.4375C139.229 72.4375 139.312 72.5 139.312 72.625C139.312 73.125 137.927 74.1042 135.156 75.5625L135.125 83.4375C135.125 83.6875 135.135 83.9062 135.156 84.0938C135.177 84.3021 135.188 84.4896 135.188 84.6562C135.188 85.1146 135.021 85.5208 134.688 85.875C134.354 86.2292 134.01 86.4062 133.656 86.4062C133.26 86.4062 132.74 86.1146 132.094 85.5312C131.448 84.9688 130.854 84.3438 130.312 83.6562C129.792 82.9479 129.531 82.4688 129.531 82.2188C129.531 82.1146 129.583 82.0625 129.688 82.0625C129.854 82.0625 130.135 82.1875 130.531 82.4375L131.094 82.8125C131.531 83.125 131.906 83.3646 132.219 83.5312C132.531 83.6979 132.896 83.8542 133.312 84L133.344 76.375C133.031 76.5208 132.75 76.6562 132.5 76.7812C132.25 76.9062 132.031 77.0104 131.844 77.0938L130.844 77.5938C130.385 77.8021 130.031 77.9062 129.781 77.9062C129.552 77.9062 129.375 77.8542 129.25 77.75C128.896 77.5208 128.615 77.25 128.406 76.9375C128.198 76.6042 128.094 76.375 128.094 76.25ZM142.406 79C142.406 78.875 142.49 78.8125 142.656 78.8125C142.927 78.8125 143.552 79.0208 144.531 79.4375L152.438 79.0938H152.594C152.969 79.0938 153.281 79.1875 153.531 79.375C153.781 79.5625 153.906 79.7812 153.906 80.0312C153.906 80.1146 153.865 80.2292 153.781 80.375C153.719 80.5 153.688 80.6042 153.688 80.6875L153.125 83.9062C153.521 84.4479 153.719 84.8333 153.719 85.0625C153.719 85.2083 153.667 85.2917 153.562 85.3125C153.458 85.3542 153.26 85.3854 152.969 85.4062L144.969 85.6562L145 86.2188V86.3438C145 86.8021 144.844 87.0312 144.531 87.0312C144.281 87.0312 143.979 86.9167 143.625 86.6875C143.292 86.4792 143.125 86.2188 143.125 85.9062L143.156 85.6875C143.177 85.5 143.188 85.2083 143.188 84.8125V84.4688L142.938 81.1562C142.896 80.5104 142.771 79.9583 142.562 79.5C142.458 79.2917 142.406 79.125 142.406 79ZM151.031 75.75L151.188 73.9062L143.219 74.3438C143.177 74.6771 143.094 75.2812 142.969 76.1562L151.031 75.75ZM151.312 72.5L151.469 70.6875L143.406 71.1562C143.406 71.4688 143.385 72.0625 143.344 72.9375L151.312 72.5ZM144.844 84L151.406 83.8125L151.875 80.7188L144.625 81.0312L144.844 84ZM210.656 71.9062C210.469 71.9062 210.323 71.8646 210.219 71.7812C210.219 71.7812 210.167 71.7292 210.062 71.625C209.979 71.4583 209.729 71 209.312 70.25C208.917 69.5 208.625 68.9896 208.438 68.7188C208.042 68.1354 207.844 67.7604 207.844 67.5938C207.844 67.3646 207.979 67.0312 208.25 66.5938C208.667 66.0104 208.948 65.5417 209.094 65.1875C209.365 64.6875 209.562 64.3021 209.688 64.0312C209.812 63.7396 209.865 63.5104 209.844 63.3438C209.823 63.2396 209.812 63.125 209.812 63C209.812 62.9167 209.833 62.875 209.875 62.875C209.917 62.8542 210 62.8646 210.125 62.9062C210.333 62.9688 210.573 63.1146 210.844 63.3438C210.906 63.4062 210.979 63.4896 211.062 63.5938C211.146 63.6979 211.198 63.7917 211.219 63.875C211.26 63.9375 211.271 64.0104 211.25 64.0938C211.25 64.1562 211.219 64.2188 211.156 64.2812L211 64.4062C210.854 64.5938 210.688 64.8229 210.5 65.0938C210.312 65.3646 210.135 65.6146 209.969 65.8438L209.188 66.9688C208.979 67.2604 208.875 67.4688 208.875 67.5938C208.875 67.6562 208.969 67.8229 209.156 68.0938L209.812 68.8125C210.438 69.5 210.729 69.8229 210.688 69.7812C211.083 70.1771 211.281 70.5625 211.281 70.9375C211.281 71.5833 211.073 71.9062 210.656 71.9062ZM214.781 71.8125C214.594 71.8125 214.438 71.7812 214.312 71.7188C214.083 71.4896 213.917 71.2188 213.812 70.9062L213.156 69.75L212.531 68.6562C212.135 68.1146 211.938 67.75 211.938 67.5625C211.938 67.3125 212.073 66.9896 212.344 66.5938L212.844 65.875C213.052 65.5208 213.167 65.3125 213.188 65.25C213.396 64.8333 213.573 64.4688 213.719 64.1562C213.885 63.8229 213.958 63.5729 213.938 63.4062C213.917 63.3229 213.906 63.2188 213.906 63.0938C213.906 62.9271 214 62.8854 214.188 62.9688C214.458 63.0729 214.75 63.2396 215.062 63.4688C215.208 63.6146 215.302 63.7396 215.344 63.8438C215.406 63.9271 215.438 64.0417 215.438 64.1875C215.438 64.2292 215.365 64.3125 215.219 64.4375C215.073 64.5417 214.948 64.6562 214.844 64.7812C214.719 64.9062 214.438 65.3021 214 65.9688C213.917 66.0938 213.812 66.2396 213.688 66.4062C213.583 66.5521 213.448 66.75 213.281 67C213.073 67.2708 212.969 67.4688 212.969 67.5938C212.969 67.7188 213.094 67.9062 213.344 68.1562C213.427 68.2396 213.51 68.3438 213.594 68.4688C213.698 68.5729 213.823 68.6979 213.969 68.8438L214.781 69.75C215.177 70.1042 215.375 70.4479 215.375 70.7812C215.375 71.4688 215.177 71.8125 214.781 71.8125ZM215.188 82.2188C214.875 82.2188 214.573 81.9896 214.281 81.5312C213.906 80.9479 213.542 80.4688 213.188 80.0938L212.375 79.25C211.938 79.75 211.552 80.1458 211.219 80.4375C210.906 80.7292 210.51 81.0104 210.031 81.2812C209.135 81.8021 208.385 82.0625 207.781 82.0625C207.635 82.0625 207.562 82.0104 207.562 81.9062C207.562 81.8438 207.76 81.7083 208.156 81.5C208.552 81.2917 208.927 81.0417 209.281 80.75C210.177 80 210.917 79.2292 211.5 78.4375C211.375 78.3125 210.75 77.7708 209.625 76.8125C209.479 76.7083 209.26 76.5312 208.969 76.2812C208.906 76.2396 208.781 76.1458 208.594 76C208.406 75.8542 208.312 75.75 208.312 75.6875C208.312 75.5833 208.365 75.5312 208.469 75.5312C208.781 75.5312 209.281 75.75 209.969 76.1875C210.656 76.6042 211.375 77.1042 212.125 77.6875C212.417 77.3333 212.646 77 212.812 76.6875C212.979 76.375 213.167 75.9896 213.375 75.5312C213.479 75.3021 213.542 75.1042 213.562 74.9375C213.583 74.75 213.594 74.6354 213.594 74.5938C213.594 74.3646 213.656 74.25 213.781 74.25C213.927 74.25 214.125 74.3646 214.375 74.5938C214.812 75.0104 215.031 75.2917 215.031 75.4375C215.031 75.5208 214.979 75.6146 214.875 75.7188C214.625 75.9688 214.396 76.3021 214.188 76.7188C214.062 76.9688 213.833 77.3229 213.5 77.7812C213.396 77.9062 213.312 78.0208 213.25 78.125C213.188 78.2292 213.125 78.3229 213.062 78.4062C213.542 78.7604 214.25 79.3646 215.188 80.2188C215.417 80.4271 215.562 80.625 215.625 80.8125C215.708 80.9792 215.75 81.2083 215.75 81.5C215.75 81.7083 215.698 81.8854 215.594 82.0312C215.49 82.1562 215.354 82.2188 215.188 82.2188ZM191.406 67.2188C191.365 69.9688 191.271 72.0833 191.125 73.5625C190.875 76.3333 190.354 78.6875 189.562 80.625C188.792 82.5625 187.615 84.2917 186.031 85.8125C185.573 86.25 185.24 86.4688 185.031 86.4688C184.927 86.4688 184.875 86.4062 184.875 86.2812C184.875 86.0729 185.021 85.75 185.312 85.3125C186.542 83.4583 187.448 81.6458 188.031 79.875C188.615 78.0833 189 75.9479 189.188 73.4688C189.354 71.1979 189.438 69.4167 189.438 68.125C189.438 66.6667 189.396 65.6562 189.312 65.0938C189.25 64.5104 189.156 64.0938 189.031 63.8438C188.927 63.6354 188.875 63.4896 188.875 63.4062C188.875 63.3021 188.958 63.25 189.125 63.25C189.438 63.25 190.177 63.4583 191.344 63.875C192.677 63.4167 194.25 62.7604 196.062 61.9062C197.875 61.0312 198.979 60.2188 199.375 59.4688C199.542 59.1771 199.708 59.0312 199.875 59.0312C200 59.0312 200.177 59.1458 200.406 59.375C200.635 59.5833 200.833 59.8438 201 60.1562C201.188 60.4479 201.281 60.7083 201.281 60.9375C201.281 61.1042 201.167 61.25 200.938 61.375C199.188 62.2917 197.885 62.9271 197.031 63.2812C196.198 63.6354 195.021 64.0833 193.5 64.625L191.438 65.375L191.406 67.2188ZM175.969 75.9062C175.969 75.8438 176 75.8021 176.062 75.7812C176.125 75.7396 176.208 75.7188 176.312 75.7188C176.917 75.6771 177.635 75.5104 178.469 75.2188C179.302 74.9062 180.625 74.3021 182.438 73.4062C182.312 72.4062 182.104 71.4896 181.812 70.6562C181.542 69.8021 181.177 68.9583 180.719 68.125C180.552 67.8542 180.469 67.6562 180.469 67.5312C180.469 67.3438 180.635 67.1667 180.969 67C181.302 66.8333 181.542 66.75 181.688 66.75C181.792 66.75 181.885 66.8021 181.969 66.9062C182.052 66.9896 182.208 67.1979 182.438 67.5312C183.396 66.4688 184.302 65.2292 185.156 63.8125C185.052 63.8125 184.562 63.8542 183.688 63.9375C182.833 64.0208 181.583 64.125 179.938 64.25C179.75 64.2708 179.51 64.2812 179.219 64.2812C178.802 64.2812 178.448 64.1667 178.156 63.9375C177.865 63.7083 177.646 63.4583 177.5 63.1875C177.375 62.9167 177.312 62.7188 177.312 62.5938C177.312 62.4688 177.396 62.4062 177.562 62.4062C177.646 62.4062 177.719 62.4167 177.781 62.4375C178.198 62.5 178.573 62.5312 178.906 62.5312C179.219 62.5312 179.469 62.5208 179.656 62.5L186.062 62H186.344C186.615 62 186.927 62.125 187.281 62.375C187.656 62.6042 187.844 62.8646 187.844 63.1562C187.844 63.3438 187.75 63.5312 187.562 63.7188C187.396 63.8854 187.292 64 187.25 64.0625C186.5 65.1042 185.823 66 185.219 66.75C184.615 67.4792 183.927 68.2396 183.156 69.0312C183.615 70.1354 183.948 71.3125 184.156 72.5625C185.26 71.9792 186.302 71.4062 187.281 70.8438C187.635 70.6562 187.906 70.5625 188.094 70.5625C188.281 70.5625 188.375 70.625 188.375 70.75C188.375 71.2083 187.031 72.3021 184.344 74.0312C184.531 75.7812 184.625 77.4896 184.625 79.1562C184.625 81.0104 184.573 82.3229 184.469 83.0938C184.385 83.8438 184.229 84.3854 184 84.7188C183.604 85.3021 183.177 85.5938 182.719 85.5938C182.365 85.5938 181.812 85.3229 181.062 84.7812C180.312 84.2604 179.615 83.6875 178.969 83.0625C178.344 82.4167 178.031 81.9583 178.031 81.6875C178.031 81.5625 178.104 81.5 178.25 81.5C178.396 81.5 178.615 81.5833 178.906 81.75C180.031 82.4167 181.104 82.9271 182.125 83.2812L182.25 83.3125C182.354 83.3125 182.458 82.9271 182.562 82.1562C182.688 81.3854 182.75 80.2708 182.75 78.8125C182.75 77.3542 182.708 76.1146 182.625 75.0938C179.875 76.6771 178.24 77.4688 177.719 77.4688C177.469 77.4688 177.208 77.375 176.938 77.1875C176.667 77 176.438 76.7812 176.25 76.5312C176.062 76.2812 175.969 76.0729 175.969 75.9062ZM192.375 82.7188C192.521 82.5104 192.625 82.0312 192.688 81.2812C192.771 80.5104 192.812 80.0938 192.812 80.0312C192.958 77.9062 193.104 75.375 193.25 72.4375L193.469 68.125C193.49 67.8542 193.417 67.5417 193.25 67.1875C193.083 66.8333 193 66.625 193 66.5625C193 66.4167 193.021 66.3125 193.062 66.25C193.125 66.1875 193.24 66.1562 193.406 66.1562C193.677 66.1562 194.094 66.2917 194.656 66.5625C195.219 66.8333 195.49 67.0833 195.469 67.3125L194.562 81.7188C194.708 81.6771 195.198 81.5417 196.031 81.3125C196.885 81.0833 197.552 80.8646 198.031 80.6562C197.74 79.9062 197.375 79.0729 196.938 78.1562C196.792 77.8229 196.719 77.5938 196.719 77.4688C196.719 77.3021 196.823 77.1667 197.031 77.0625C197.26 76.9375 197.531 76.8438 197.844 76.7812C197.969 76.7812 198.073 76.8229 198.156 76.9062C198.24 76.9896 198.333 77.1354 198.438 77.3438C199.146 78.7396 199.792 80.1771 200.375 81.6562C200.979 83.1146 201.281 84.0208 201.281 84.375C201.281 84.5833 201.135 84.7917 200.844 85C200.552 85.2083 200.271 85.3125 200 85.3125C199.854 85.3125 199.729 85.25 199.625 85.125C199.542 85 199.458 84.8021 199.375 84.5312C199.146 83.7396 198.875 82.9062 198.562 82.0312C198.083 82.3229 197.448 82.625 196.656 82.9375C195.781 83.25 195.104 83.5 194.625 83.6875C193.854 84 193.375 84.1562 193.188 84.1562C193.062 84.1562 192.917 84.0625 192.75 83.875C192.583 83.6875 192.458 83.4792 192.375 83.25C192.292 83.0208 192.292 82.8438 192.375 82.7188ZM197 63.8438C197 63.6562 197.146 63.5625 197.438 63.5625C197.667 63.5625 197.979 63.625 198.375 63.75C198.833 63.875 199.125 64.0104 199.25 64.1562C199.396 64.2812 199.49 64.4792 199.531 64.75L199.625 65.5312L199.781 66.5625C200.177 69.0625 200.573 71.1875 200.969 72.9375C201.365 74.6875 201.958 76.5625 202.75 78.5625C203.562 80.5625 204.635 82.5625 205.969 84.5625C206.115 84.7917 206.188 84.9688 206.188 85.0938C206.188 85.2604 205.99 85.4375 205.594 85.625C205.198 85.8125 204.865 85.9062 204.594 85.9062C204.385 85.9062 204.219 85.8021 204.094 85.5938C202.781 83.3854 201.719 81.2292 200.906 79.125C200.115 77 199.521 75.0625 199.125 73.3125C198.75 71.5417 198.365 69.4375 197.969 67C197.781 65.9167 197.646 65.25 197.562 65C197.5 64.75 197.375 64.5 197.188 64.25C197.062 64.0833 197 63.9479 197 63.8438Z" fill="#333333"/>
</svg>
