<svg width="350" height="88" viewBox="0 0 350 88" fill="none" xmlns="http://www.w3.org/2000/svg">
<path d="M131.582 14.457C131.23 14.457 130.914 14.3164 130.633 14.0352C130.281 13.7773 130.105 13.5781 130.105 13.4375C130.105 13.2734 130.375 13.1914 130.914 13.1914L132.637 13.0859L134.395 12.9102C134.441 12.5352 134.465 11.8203 134.465 10.7656C134.535 10.7656 134.172 10.8125 133.375 10.9062L132.707 11.0117C132.496 11.1055 132.309 11.1523 132.145 11.1523C132.004 11.1523 131.887 11.1055 131.793 11.0117C131.418 10.6836 131.23 10.4023 131.23 10.168V8.51562C131.23 8.35156 131.172 7.71875 131.055 6.61719L131.02 6.23047C131.02 6.04297 131.055 5.92578 131.125 5.87891C131.195 5.83203 131.324 5.83203 131.512 5.87891C132.215 6.06641 132.555 6.27734 132.531 6.51172L132.496 6.75781C132.449 7.08594 132.426 7.50781 132.426 8.02344C132.426 8.63281 132.438 9.01953 132.461 9.18359C132.508 9.65234 132.531 9.875 132.531 9.85156C132.555 9.94531 132.637 9.99219 132.777 9.99219C132.918 9.99219 133.199 9.95703 133.621 9.88672C134.066 9.79297 134.359 9.73437 134.5 9.71094V6.61719C134.5 5.75 134.465 5.16406 134.395 4.85938C134.348 4.625 134.324 4.49609 134.324 4.47266C134.324 4.30859 134.383 4.22656 134.5 4.22656C134.547 4.22656 134.711 4.27344 134.992 4.36719C135.438 4.57812 135.73 4.76563 135.871 4.92969C136.035 5.09375 136.094 5.26953 136.047 5.45703C135.977 5.69141 135.93 6.16016 135.906 6.86328C135.859 7.42578 135.812 8.33984 135.766 9.60547L136.961 9.57031C137.195 9.57031 137.371 9.55859 137.488 9.53516C137.605 9.51172 137.664 9.46484 137.664 9.39453C137.828 8.50391 137.934 7.73047 137.98 7.07422L138.016 6.65234C138.039 6.60547 138.039 6.52344 138.016 6.40625C138.016 6.28906 138.016 6.20703 138.016 6.16016L137.98 5.91406C137.98 5.70312 138.062 5.59766 138.227 5.59766C138.32 5.59766 138.52 5.69141 138.824 5.87891C138.895 5.92578 138.988 5.99609 139.105 6.08984C139.246 6.16016 139.34 6.24219 139.387 6.33594C139.434 6.40625 139.457 6.5 139.457 6.61719C139.457 6.75781 139.445 6.875 139.422 6.96875L139.035 8.9375L138.93 9.74609C138.836 10.2852 138.555 10.5781 138.086 10.625C137.945 10.6016 137.828 10.5664 137.734 10.5195C137.664 10.4727 137.605 10.4492 137.559 10.4492C137.277 10.4492 136.691 10.5078 135.801 10.625L135.766 12.8047L136.363 12.7695L136.926 12.7344C137.793 12.7344 138.438 12.6875 138.859 12.5938C139.047 12.5938 139.211 12.5703 139.352 12.5234L139.457 12.4883C139.691 12.4883 139.938 12.6523 140.195 12.9805C140.5 13.2852 140.652 13.5078 140.652 13.6484C140.652 13.8594 140.324 13.9297 139.668 13.8594L138.332 13.7891H136.574C136.223 13.7891 135.578 13.8359 134.641 13.9297C134.148 13.9297 133.703 13.9531 133.305 14C132.906 14.0469 132.531 14.1289 132.18 14.2461L131.582 14.457ZM139.211 23.668C138.859 23.668 138.52 23.4102 138.191 22.8945C137.77 22.2383 137.359 21.6992 136.961 21.2773L136.047 20.3281C135.555 20.8906 135.121 21.3359 134.746 21.6641C134.395 21.9922 133.949 22.3086 133.41 22.6133C132.402 23.1992 131.559 23.4922 130.879 23.4922C130.715 23.4922 130.633 23.4336 130.633 23.3164C130.633 23.2461 130.855 23.0938 131.301 22.8594C131.746 22.625 132.168 22.3438 132.566 22.0156C133.574 21.1719 134.406 20.3047 135.062 19.4141C134.922 19.2734 134.219 18.6641 132.953 17.5859C132.789 17.4688 132.543 17.2695 132.215 16.9883C132.145 16.9414 132.004 16.8359 131.793 16.6719C131.582 16.5078 131.477 16.3906 131.477 16.3203C131.477 16.2031 131.535 16.1445 131.652 16.1445C132.004 16.1445 132.566 16.3906 133.34 16.8828C134.113 17.3516 134.922 17.9141 135.766 18.5703C136.094 18.1719 136.352 17.7969 136.539 17.4453C136.727 17.0938 136.938 16.6602 137.172 16.1445C137.289 15.8867 137.359 15.6641 137.383 15.4766C137.406 15.2656 137.418 15.1367 137.418 15.0898C137.418 14.832 137.488 14.7031 137.629 14.7031C137.793 14.7031 138.016 14.832 138.297 15.0898C138.789 15.5586 139.035 15.875 139.035 16.0391C139.035 16.1328 138.977 16.2383 138.859 16.3555C138.578 16.6367 138.32 17.0117 138.086 17.4805C137.945 17.7617 137.688 18.1602 137.312 18.6758C137.195 18.8164 137.102 18.9453 137.031 19.0625C136.961 19.1797 136.891 19.2852 136.82 19.3789C137.359 19.7773 138.156 20.457 139.211 21.418C139.469 21.6523 139.633 21.875 139.703 22.0859C139.797 22.2734 139.844 22.5312 139.844 22.8594C139.844 23.0938 139.785 23.293 139.668 23.457C139.551 23.5977 139.398 23.668 139.211 23.668ZM131.441 34.1797C131.09 34.1797 130.82 34.0859 130.633 33.8984C130.422 33.6875 130.316 33.5 130.316 33.3359C130.316 33.1719 130.41 32.9961 130.598 32.8086C130.621 32.7852 130.75 32.5977 130.984 32.2461C131.5 31.4258 132.086 30.3828 132.742 29.1172C133.422 27.8281 133.844 26.9492 134.008 26.4805C134.148 26.0352 134.277 25.6484 134.395 25.3203C134.535 24.9922 134.652 24.8281 134.746 24.8281C134.91 24.8281 135.051 24.8867 135.168 25.0039C135.285 25.0977 135.402 25.2383 135.52 25.4258C135.66 25.5898 135.766 25.707 135.836 25.7773C136 25.9648 136.082 26.1406 136.082 26.3047C136.082 26.4219 136.035 26.5391 135.941 26.6562C135.848 26.7734 135.789 26.8555 135.766 26.9023L134.219 29.5039C133.82 30.2305 133.293 31.1328 132.637 32.2109C132.543 32.3281 132.496 32.4453 132.496 32.5625C132.496 32.6562 132.602 32.7031 132.812 32.7031C133.258 32.7031 134.09 32.6445 135.309 32.5273C136.527 32.4336 137.348 32.3516 137.77 32.2812C138.379 32.2109 138.801 32.1406 139.035 32.0703C139.293 32 139.668 32.1758 140.16 32.5977C140.746 33.0898 140.875 33.4062 140.547 33.5469C140.359 33.6406 139.996 33.6875 139.457 33.6875H138.051C137.746 33.6875 137.266 33.7109 136.609 33.7578C136.211 33.7578 135.766 33.7695 135.273 33.793C134.781 33.8164 134.371 33.8398 134.043 33.8633C133.668 33.8867 132.941 33.957 131.863 34.0742L131.441 34.1797ZM112.457 35.1289C112.457 35.7148 112.223 36.0078 111.754 36.0078C111.402 36.0078 111.016 35.8789 110.594 35.6211C110.172 35.3867 109.961 35.0352 109.961 34.5664L109.996 34.3203C110.113 33.5703 110.172 32.8438 110.172 32.1406L110.207 23.0703L102.543 23.3867L102.648 24.4414V24.5469C102.648 24.9922 102.426 25.2148 101.98 25.2148C101.605 25.2148 101.219 25.0977 100.82 24.8633C100.422 24.6289 100.223 24.2891 100.223 23.8438V23.5625C100.27 23.0469 100.293 22.707 100.293 22.543C100.293 22.3086 100.27 21.9805 100.223 21.5586L99.5898 13.8945C99.5195 13.1211 99.3203 12.4648 98.9922 11.9258C98.8047 11.6211 98.7109 11.3984 98.7109 11.2578C98.7109 11.0703 98.8398 10.9766 99.0977 10.9766C99.5195 10.9766 100.34 11.2227 101.559 11.7148L110.277 11.1875L110.312 5.14062C110.312 4.60156 110.184 4.09766 109.926 3.62891C109.832 3.46484 109.785 3.3125 109.785 3.17188C109.785 2.98437 109.938 2.89062 110.242 2.89062C110.383 2.89062 110.641 2.9375 111.016 3.03125C111.414 3.10156 111.777 3.24219 112.105 3.45312C112.457 3.66406 112.633 3.94531 112.633 4.29688L112.598 11.0469L122.09 10.4844C122.301 10.4609 122.559 10.4492 122.863 10.4492C123.285 10.4492 123.625 10.543 123.883 10.7305C124.141 10.918 124.316 11.1289 124.41 11.3633C124.527 11.5742 124.586 11.7383 124.586 11.8555C124.586 11.9961 124.527 12.1719 124.41 12.3828C124.316 12.5938 124.27 12.7461 124.27 12.8398L123.285 20.4336C123.941 21.1836 124.27 21.7109 124.27 22.0156C124.27 22.2031 124.176 22.332 123.988 22.4023C123.801 22.4492 123.496 22.4844 123.074 22.5078L112.527 22.9648L112.457 35.1289ZM102.402 21.3828L110.242 21.0312L110.277 13.2617L101.734 13.7539L102.402 21.3828ZM121.105 20.5391L121.949 12.5938L112.598 13.1211L112.527 20.9258L121.105 20.5391ZM186.426 16.5664C185.652 16.2852 185.289 15.9805 185.336 15.6523C185.477 14.668 185.547 13.543 185.547 12.2773C185.547 11.7148 185.535 11.3047 185.512 11.0469C185.488 10.7422 185.465 10.4844 185.441 10.2734C185.418 10.0391 185.418 9.91016 185.441 9.88672C185.535 9.79297 185.652 9.74609 185.793 9.74609C186.004 9.74609 186.262 9.83984 186.566 10.0273C186.895 10.2148 187.059 10.4023 187.059 10.5898C187.059 10.707 187.047 10.8242 187.023 10.9414C187 11.0352 186.988 11.1406 186.988 11.2578L186.777 14.7383C186.777 14.9258 186.848 15.043 186.988 15.0898H187.164C187.352 15.0898 187.48 15.0781 187.551 15.0547L192.086 14.4219V13.5078C192.086 12.3594 192.062 11.4688 192.016 10.8359C191.992 10.2969 191.934 9.86328 191.84 9.53516C191.77 9.16016 191.863 8.97266 192.121 8.97266C192.309 8.97266 192.555 9.04297 192.859 9.18359C193.234 9.37109 193.457 9.53516 193.527 9.67578C193.598 9.79297 193.621 9.98047 193.598 10.2383C193.551 10.6602 193.527 11.293 193.527 12.1367L193.562 14.8086C193.562 15.3711 193.457 15.8164 193.246 16.1445C193.129 16.2852 193.012 16.3555 192.895 16.3555C192.777 16.3555 192.613 16.25 192.402 16.0391C192.355 15.9922 192.297 15.9219 192.227 15.8281C192.156 15.7344 192.086 15.6758 192.016 15.6523C191.945 15.6289 191.852 15.6172 191.734 15.6172C191.195 15.6641 189.895 15.8398 187.832 16.1445C187.48 16.1914 187.199 16.2852 186.988 16.4258C186.754 16.543 186.602 16.6016 186.531 16.6016L186.426 16.5664ZM190.891 24.125C190.656 24.4297 190.41 24.582 190.152 24.582C190.082 24.582 190.047 24.5234 190.047 24.4062C190.047 24.2422 190.094 24.0547 190.188 23.8438C190.188 23.8438 190.422 23.375 190.891 22.4375C190.914 22.3438 190.949 22.25 190.996 22.1562C191.043 22.0625 191.078 21.9805 191.102 21.9102V21.875C191.102 21.8281 191.066 21.7812 190.996 21.7344C190.926 21.6875 190.844 21.6758 190.75 21.6992C190.375 21.7227 189.812 21.7812 189.062 21.875C188.336 21.9688 187.797 22.0625 187.445 22.1562C187.305 22.2031 187.129 22.2617 186.918 22.332C186.73 22.4023 186.578 22.4375 186.461 22.4375C186.039 22.4375 185.688 22.3086 185.406 22.0508C185.172 21.8867 184.996 21.7227 184.879 21.5586L184.809 21.3828C184.809 21.2656 185.008 21.2305 185.406 21.2773C185.945 21.3242 187.059 21.2539 188.746 21.0664L189.449 20.9609C189.637 20.9375 189.93 20.9023 190.328 20.8555C190.75 20.7852 191.078 20.7148 191.312 20.6445C191.383 20.6211 191.453 20.5977 191.523 20.5742C191.617 20.5273 191.699 20.5039 191.77 20.5039C191.887 20.5039 192.027 20.5625 192.191 20.6797C192.379 20.7969 192.531 20.9023 192.648 20.9961C192.812 21.1133 192.918 21.2188 192.965 21.3125C193.035 21.3828 193.059 21.4766 193.035 21.5938C193.035 21.7109 192.977 21.8164 192.859 21.9102C192.742 22.0039 192.66 22.0742 192.613 22.1211C192.566 22.1914 192.402 22.3672 192.121 22.6484C192.004 22.8359 191.793 23.0938 191.488 23.4219C191.207 23.75 191.008 23.9844 190.891 24.125ZM189.133 31.0508C189.133 30.9805 189.25 30.8047 189.484 30.5234C189.742 30.2188 189.941 29.9844 190.082 29.8203C190.434 29.3516 190.855 28.6719 191.348 27.7812C191.863 26.8906 192.156 26.3047 192.227 26.0234C192.273 25.8828 192.203 25.8125 192.016 25.8125C191.641 25.8125 190.609 25.918 188.922 26.1289C187.82 26.2695 187 26.4102 186.461 26.5508C186.344 26.6211 186.227 26.6562 186.109 26.6562C185.922 26.6562 185.723 26.5273 185.512 26.2695C185.418 26.1055 185.371 25.9531 185.371 25.8125C185.371 25.7188 185.43 25.625 185.547 25.5312L185.652 25.3906C185.723 25.25 185.805 25.0625 185.898 24.8281C185.992 24.5938 186.074 24.3711 186.145 24.1602C186.262 23.7852 186.344 23.375 186.391 22.9297C186.414 22.6719 186.555 22.6016 186.812 22.7188C187.141 22.8828 187.387 23.0469 187.551 23.2109C187.738 23.3516 187.797 23.457 187.727 23.5273C187.492 23.8086 187.305 24.125 187.164 24.4766C187.047 24.8516 186.977 25.0977 186.953 25.2148C186.953 25.3086 187.012 25.3555 187.129 25.3555C187.48 25.3555 188.008 25.2969 188.711 25.1797C189.109 25.1328 189.602 25.0742 190.188 25.0039C190.773 24.9336 191.242 24.8633 191.594 24.793L192.473 24.6172C192.543 24.5938 192.637 24.582 192.754 24.582C192.871 24.582 192.988 24.6289 193.105 24.7227C193.223 24.793 193.352 24.8867 193.492 25.0039C193.727 25.2148 193.879 25.3906 193.949 25.5312C194.02 25.6484 194.055 25.7891 194.055 25.9531C194.055 26.0469 193.984 26.1641 193.844 26.3047C193.727 26.4453 193.586 26.668 193.422 26.9727C192.742 28.3555 191.863 29.5156 190.785 30.4531C190.48 30.6875 190.141 30.8867 189.766 31.0508C189.602 31.0977 189.449 31.1328 189.309 31.1562C189.191 31.1562 189.133 31.1211 189.133 31.0508ZM200.383 14.8086C200.664 14.8086 200.805 14.9375 200.805 15.1953C200.805 15.3359 200.676 15.5352 200.418 15.793C199.715 16.6602 198.32 18.3125 196.234 20.75C196.07 20.9609 195.918 21.0664 195.777 21.0664C195.66 21.0664 195.402 20.8906 195.004 20.5391C194.676 20.2578 194.512 20.0234 194.512 19.8359C194.512 19.625 194.688 19.4258 195.039 19.2383C195.578 18.9336 196.387 18.3242 197.465 17.4102C198.543 16.4492 199.34 15.6875 199.855 15.125C200.066 14.9141 200.242 14.8086 200.383 14.8086ZM158.512 9.88672C158.254 9.91016 157.926 9.92188 157.527 9.92188H157.176C156.848 9.875 156.613 9.81641 156.473 9.74609C156.238 9.58203 155.992 9.3125 155.734 8.9375C155.477 8.53906 155.348 8.21094 155.348 7.95312C155.348 7.78906 155.418 7.70703 155.559 7.70703C155.652 7.70703 155.734 7.71875 155.805 7.74219C156.227 7.85938 156.742 7.91797 157.352 7.91797H157.809L171.52 7.03906C172.059 6.99219 172.586 6.88672 173.102 6.72266C173.148 6.69922 173.23 6.6875 173.348 6.6875C173.652 6.6875 174.051 6.92187 174.543 7.39062C175.059 7.85938 175.316 8.21094 175.316 8.44531C175.316 8.72656 175.023 8.89062 174.438 8.9375L158.512 9.88672ZM148.949 34.6719C148.949 34.4609 149.219 34.2031 149.758 33.8984C151.82 32.7031 153.543 31.4023 154.926 29.9961C156.332 28.5898 157.492 26.9141 158.406 24.9688C159.32 23 160.059 20.6211 160.621 17.832L154.469 18.1484C154.141 18.1719 153.742 18.1836 153.273 18.1836C152.969 18.1836 152.723 18.1602 152.535 18.1133C152.348 18.0664 152.172 17.9609 152.008 17.7969C151.703 17.4922 151.469 17.1641 151.305 16.8125C151.141 16.4609 151.059 16.2266 151.059 16.1094C151.059 15.9688 151.164 15.8984 151.375 15.8984H151.586C152.031 16.0391 152.57 16.1094 153.203 16.1094H153.555L175.738 14.9844C176.324 14.9375 176.863 14.832 177.355 14.668C177.496 14.6211 177.59 14.5977 177.637 14.5977C177.918 14.5977 178.328 14.832 178.867 15.3008C179.406 15.7695 179.676 16.1562 179.676 16.4609C179.676 16.7188 179.395 16.8711 178.832 16.918L169.199 17.4102L168.988 29.5391V29.6445C168.988 30.2305 169.129 30.6641 169.41 30.9453C169.691 31.2031 170.09 31.3672 170.605 31.4375C171.145 31.5078 171.918 31.543 172.926 31.543C174.332 31.543 175.574 31.4258 176.652 31.1914C177.051 31.1211 177.379 30.8984 177.637 30.5234C177.895 30.1484 178.141 29.4922 178.375 28.5547C178.609 27.6172 178.855 26.2344 179.113 24.4062C179.184 23.9375 179.277 23.5742 179.395 23.3164C179.535 23.0352 179.676 22.8945 179.816 22.8945C180.074 22.8945 180.227 23.1758 180.273 23.7383C180.344 24.3008 180.379 25.0625 180.379 26.0234C180.379 27.5 180.309 29.0117 180.168 30.5586C180.098 31.332 179.887 31.9414 179.535 32.3867C179.207 32.8555 178.539 33.2188 177.531 33.4766C176.547 33.7578 175.082 33.8984 173.137 33.8984C171.777 33.8984 170.664 33.8281 169.797 33.6875C168.93 33.5703 168.191 33.2305 167.582 32.668C166.973 32.1289 166.668 31.2617 166.668 30.0664V29.9609L166.879 17.5156L163.152 17.7266C162.215 22.5078 160.715 26.2344 158.652 28.9062C156.613 31.5547 153.742 33.4883 150.039 34.707C149.758 34.8008 149.5 34.8477 149.266 34.8477C149.055 34.8477 148.949 34.7891 148.949 34.6719ZM246.121 14.3867C245.957 14.3867 245.781 14.2812 245.594 14.0703C245.453 13.9063 245.359 13.7773 245.312 13.6836C245.266 13.5664 245.266 13.4141 245.312 13.2266L245.348 12.3828C245.371 12.2188 245.383 11.8203 245.383 11.1875V10.0273L244.328 10.5195L243.098 11.0469C242.793 11.1641 242.477 11.3047 242.148 11.4688C241.867 11.6094 241.621 11.6797 241.41 11.6797C241.246 11.6563 241.059 11.5977 240.848 11.5039C240.637 11.4102 240.473 11.3281 240.355 11.2578C240.098 11.0938 239.98 10.918 240.004 10.7305L240.109 10.3789C240.109 10.1914 240.121 10.0273 240.145 9.88672L240.18 7.84766V5.94922C240.18 5.57422 240.156 5.25781 240.109 5C240.062 4.71875 240.027 4.51953 240.004 4.40234C240.004 4.28516 240.039 4.20313 240.109 4.15625C240.133 4.13281 240.191 4.12109 240.285 4.12109C240.449 4.12109 240.766 4.22656 241.234 4.4375C241.633 4.625 241.797 4.85938 241.727 5.14062C241.68 5.30469 241.633 5.55078 241.586 5.87891L241.48 9.92188C241.48 10.0391 241.492 10.1328 241.516 10.2031C241.562 10.25 241.609 10.2734 241.656 10.2734C241.938 10.2734 242.277 10.1914 242.676 10.0273C243.426 9.79297 244.07 9.55859 244.609 9.32422L245.383 9.00781V6.6875C245.383 5.75 245.324 4.84766 245.207 3.98047C245.184 3.91016 245.172 3.82812 245.172 3.73438C245.172 3.5 245.266 3.38281 245.453 3.38281C245.477 3.38281 245.605 3.42969 245.84 3.52344C246.191 3.71094 246.449 3.875 246.613 4.01562C246.777 4.15625 246.871 4.23828 246.895 4.26172C246.988 4.33203 247.035 4.40234 247.035 4.47266C247.035 4.51953 247.012 4.57812 246.965 4.64844C246.941 4.71875 246.918 4.77734 246.895 4.82422L246.789 5.87891L246.754 9.11328L246.789 12.2422C246.789 12.7813 246.754 13.25 246.684 13.6484C246.566 14.1406 246.379 14.3867 246.121 14.3867ZM239.652 20.1523C239.395 20.1523 239.078 19.9531 238.703 19.5547C238.422 19.2734 238.281 19.0625 238.281 18.9219C238.281 18.8516 238.328 18.8164 238.422 18.8164C238.516 18.793 238.633 18.7812 238.773 18.7812L239.547 18.7461C239.992 18.7461 240.285 18.7344 240.426 18.7109C240.871 18.7109 241.246 18.6992 241.551 18.6758C243.566 18.4883 244.926 18.3359 245.629 18.2188C245.98 18.1719 246.297 18.125 246.578 18.0781C246.859 18.0078 247.082 17.9727 247.246 17.9727C247.574 17.9727 247.902 18.1367 248.23 18.4648C248.488 18.7227 248.617 18.9336 248.617 19.0977C248.617 19.2383 248.535 19.332 248.371 19.3789C248.254 19.4023 247.562 19.4492 246.297 19.5195C245.594 19.543 244.727 19.6016 243.695 19.6953C242.664 19.7891 241.762 19.8828 240.988 19.9766C240.848 20 240.648 20.0352 240.391 20.082C240.133 20.1289 239.887 20.1523 239.652 20.1523ZM244.363 34.6719C243.637 34.6719 243.074 34.6484 242.676 34.6016C242.301 34.5547 241.984 34.4141 241.727 34.1797C241.281 33.8516 240.977 33.1367 240.812 32.0352L240.707 30.9102C240.707 30.6289 240.684 30.2773 240.637 29.8555C240.262 29.9023 239.992 29.9492 239.828 29.9961C239.781 30.0195 239.699 30.0547 239.582 30.1016C239.488 30.125 239.418 30.1367 239.371 30.1367C239.207 30.1367 239.055 30.0898 238.914 29.9961C238.773 29.9023 238.598 29.7266 238.387 29.4688C238.223 29.2578 238.141 29.1172 238.141 29.0469C238.141 28.9766 238.223 28.9297 238.387 28.9062C238.551 28.8828 238.773 28.8711 239.055 28.8711C239.453 28.8711 239.969 28.8242 240.602 28.7305L240.566 28.2383C240.566 27.3008 240.508 26.5039 240.391 25.8477L240.355 25.6016C240.355 25.2734 240.484 25.1445 240.742 25.2148C241.023 25.3086 241.281 25.4258 241.516 25.5664C241.703 25.6602 241.832 25.7539 241.902 25.8477C241.973 25.918 241.996 26.0234 241.973 26.1641L241.867 27.6758V28.5898L244.961 28.2734C244.961 28.1094 244.973 27.7227 244.996 27.1133C245.02 26.4805 245.02 26.0703 244.996 25.8828C244.996 25.6953 244.973 25.5195 244.926 25.3555C244.902 25.168 244.879 25.0156 244.855 24.8984C244.855 24.7109 244.949 24.6172 245.137 24.6172C245.324 24.6172 245.559 24.7227 245.84 24.9336C246.168 25.1445 246.379 25.332 246.473 25.4961C246.59 25.6602 246.613 25.8594 246.543 26.0938C246.426 26.4688 246.344 26.8906 246.297 27.3594C246.25 27.8281 246.227 28.1094 246.227 28.2031C246.508 28.1797 246.766 28.1445 247 28.0977C247.234 28.0508 247.387 28.0273 247.457 28.0273C247.645 27.9805 247.867 27.957 248.125 27.957C248.266 27.9805 248.465 28.1211 248.723 28.3789C248.934 28.6602 249.039 28.8828 249.039 29.0469C249.039 29.2812 248.816 29.375 248.371 29.3281C247.973 29.2578 247.574 29.2227 247.176 29.2227C246.777 29.2227 246.438 29.2344 246.156 29.2578C246.086 30.1016 245.945 30.9336 245.734 31.7539C245.688 31.9414 245.605 32.0938 245.488 32.2109C245.371 32.3516 245.266 32.4219 245.172 32.4219C245.008 32.4219 244.902 32.3516 244.855 32.2109C244.832 32.0938 244.82 31.8945 244.82 31.6133C244.867 31.0039 244.891 30.2422 244.891 29.3281C244.258 29.375 243.766 29.4219 243.414 29.4688C242.875 29.5859 242.371 29.6562 241.902 29.6797C241.879 30.6406 241.926 31.4961 242.043 32.2461C242.113 32.7383 242.254 33.0781 242.465 33.2656C242.605 33.3828 242.77 33.4531 242.957 33.4766C243.168 33.5 243.379 33.5117 243.59 33.5117C243.801 33.5117 243.941 33.5117 244.012 33.5117C244.738 33.5117 245.418 33.4766 246.051 33.4062C246.238 33.3828 246.402 33.3359 246.543 33.2656C246.707 33.1953 246.824 33.1602 246.895 33.1602C247.105 33.1602 247.316 33.2305 247.527 33.3711C247.738 33.5117 247.844 33.6758 247.844 33.8633C247.844 34.0508 247.738 34.1914 247.527 34.2852C247.34 34.3789 247.035 34.4609 246.613 34.5312C245.863 34.625 245.113 34.6719 244.363 34.6719ZM254.383 18.6758C254.664 18.6758 254.805 18.8047 254.805 19.0625C254.805 19.2031 254.676 19.4023 254.418 19.6602C253.715 20.5273 252.32 22.1797 250.234 24.6172C250.07 24.8281 249.918 24.9336 249.777 24.9336C249.66 24.9336 249.402 24.7578 249.004 24.4062C248.676 24.125 248.512 23.8906 248.512 23.7031C248.512 23.4922 248.688 23.293 249.039 23.1055C249.578 22.8008 250.387 22.1914 251.465 21.2773C252.543 20.3164 253.34 19.5547 253.855 18.9922C254.066 18.7812 254.242 18.6758 254.383 18.6758ZM209.699 30.1719C211.785 29.5156 213.648 28.8008 215.289 28.0273C214.938 27.5352 214.492 26.9727 213.953 26.3398C213.766 26.1055 213.672 25.918 213.672 25.7773C213.672 25.5195 213.824 25.2969 214.129 25.1094C214.434 24.8984 214.668 24.793 214.832 24.793C215.02 24.793 215.219 24.9102 215.43 25.1445C216.766 26.7148 217.902 28.0977 218.84 29.293C219.777 30.4883 220.246 31.2148 220.246 31.4727C220.246 31.6836 220.082 31.9297 219.754 32.2109C219.449 32.5156 219.156 32.668 218.875 32.668C218.641 32.668 218.406 32.4805 218.172 32.1055C217.633 31.2852 217.023 30.3945 216.344 29.4336L212.125 31.543C211.656 31.7539 210.918 32.1289 209.91 32.668C209.066 33.1133 208.551 33.3359 208.363 33.3359C208.223 33.3359 208.047 33.2422 207.836 33.0547C207.625 32.8906 207.461 32.6797 207.344 32.4219C207.25 32.1875 207.25 32 207.344 31.8594C207.484 31.6016 207.555 30.5703 207.555 28.7656V16.6016C207.555 16.0391 207.531 15.582 207.484 15.2305C207.461 14.8789 207.367 14.5039 207.203 14.1055C207.18 14.0352 207.156 13.9766 207.133 13.9297C207.109 13.8828 207.098 13.8359 207.098 13.7891C207.098 13.6719 207.18 13.6133 207.344 13.6133C207.648 13.6133 208.41 13.8711 209.629 14.3867L217.258 13.8594C217.445 13.8359 217.656 13.8242 217.891 13.8242C218.148 13.8242 218.453 13.9414 218.805 14.1758C219.156 14.3867 219.332 14.6211 219.332 14.8789C219.332 14.9727 219.273 15.1133 219.156 15.3008C219.062 15.4883 219.016 15.6289 219.016 15.7227L218.102 22.332C218.664 22.9883 218.945 23.4336 218.945 23.668C218.945 23.7852 218.875 23.8672 218.734 23.9141C218.617 23.9609 218.43 23.9844 218.172 23.9844L209.664 24.3008L209.699 30.1719ZM203.934 14.3867C203.934 14.1523 204.086 13.8711 204.391 13.543C206.102 11.6445 207.59 9.75781 208.855 7.88281C210.121 6.00781 210.754 4.75391 210.754 4.12109L210.719 3.875V3.76953C210.719 3.44141 210.848 3.27734 211.105 3.27734C211.41 3.27734 211.832 3.48828 212.371 3.91016C212.934 4.30859 213.215 4.63672 213.215 4.89453C213.215 5.01172 213.156 5.16406 213.039 5.35156C212.688 5.91406 212.301 6.47656 211.879 7.03906L216.871 6.65234C217.293 6.62891 217.738 6.53516 218.207 6.37109C218.348 6.32422 218.453 6.30078 218.523 6.30078C218.875 6.30078 219.25 6.5 219.648 6.89844C220.07 7.27344 220.281 7.56641 220.281 7.77734C220.281 8.05859 220.023 8.22266 219.508 8.26953L213.496 8.69141C213.66 8.73828 214.023 8.98438 214.586 9.42969C215.172 9.875 215.699 10.332 216.168 10.8008C216.637 11.2695 216.871 11.5977 216.871 11.7852C216.871 11.9961 216.73 12.2539 216.449 12.5586C216.168 12.8398 215.922 12.9805 215.711 12.9805C215.523 12.9805 215.301 12.8281 215.043 12.5234C214.246 11.6563 213.438 10.8945 212.617 10.2383C212.336 10.0039 212.195 9.80469 212.195 9.64062C212.195 9.52344 212.254 9.37109 212.371 9.18359C212.488 8.99609 212.641 8.84375 212.828 8.72656L210.473 8.90234C209.348 10.2852 208.105 11.5859 206.746 12.8047C205.387 14 204.52 14.5977 204.145 14.5977C204.004 14.5977 203.934 14.5273 203.934 14.3867ZM216.59 18.043L216.836 15.582L209.594 16.0742V18.3945L216.59 18.043ZM216.133 22.4023L216.414 19.6953L209.629 20.0117V22.6484L216.133 22.4023ZM218.031 12.875C218.031 12.6406 218.184 12.3594 218.488 12.0312C219.637 10.6484 220.68 9.08984 221.617 7.35547C222.578 5.59766 223.059 4.36719 223.059 3.66406V3.52344C223.059 3.17188 223.188 2.99609 223.445 2.99609C223.609 2.99609 223.855 3.08984 224.184 3.27734C224.535 3.44141 224.852 3.64063 225.133 3.875C225.414 4.10937 225.555 4.34375 225.555 4.57812C225.555 4.78906 225.391 5.16406 225.062 5.70312C224.734 6.24219 224.559 6.52344 224.535 6.54688L231.461 5.98438C231.977 5.9375 232.422 5.85547 232.797 5.73828C232.844 5.71484 232.938 5.70312 233.078 5.70312C233.406 5.70312 233.758 5.89063 234.133 6.26562C234.531 6.61719 234.73 6.91016 234.73 7.14453C234.73 7.28516 234.66 7.40234 234.52 7.49609C234.402 7.56641 234.238 7.61328 234.027 7.63672L226.891 8.12891C227.547 8.55078 228.32 9.17187 229.211 9.99219C230.102 10.7891 230.547 11.3281 230.547 11.6094C230.547 11.7734 230.418 12.0312 230.16 12.3828C229.902 12.7109 229.656 12.875 229.422 12.875C229.234 12.875 229.035 12.7578 228.824 12.5234C227.676 11.2812 226.633 10.2969 225.695 9.57031C225.461 9.38281 225.344 9.20703 225.344 9.04297C225.344 8.85547 225.52 8.57422 225.871 8.19922L223.27 8.375C222.496 9.40625 221.559 10.4492 220.457 11.5039C219.379 12.5586 218.652 13.0859 218.277 13.0859C218.113 13.0859 218.031 13.0156 218.031 12.875ZM221.336 13.6484C221.336 13.5078 221.418 13.4375 221.582 13.4375C221.934 13.4375 222.73 13.7305 223.973 14.3164L231.039 13.7188L231.32 13.6836C231.414 13.6836 231.59 13.7305 231.848 13.8242C232.129 13.8945 232.387 14.0234 232.621 14.2109C232.879 14.375 233.008 14.5977 233.008 14.8789C233.008 14.9727 232.973 15.1016 232.902 15.2656C232.832 15.4297 232.797 15.5469 232.797 15.6172C232.773 18.1953 232.609 20.9492 232.305 23.8789L232.234 24.7578C232.164 25.7422 232.07 26.5625 231.953 27.2188C231.836 27.875 231.637 28.3906 231.355 28.7656C230.91 29.375 230.43 29.6797 229.914 29.6797C229.398 29.6797 228.742 29.3633 227.945 28.7305C227.148 28.0977 226.41 27.4062 225.73 26.6562C225.074 25.9062 224.746 25.4258 224.746 25.2148C224.746 25.0508 224.84 24.9688 225.027 24.9688C225.238 24.9688 225.531 25.0859 225.906 25.3203C226.773 25.8594 227.5 26.293 228.086 26.6211C228.672 26.9492 229.094 27.1133 229.352 27.1133C229.469 27.1133 229.551 27.0312 229.598 26.8672C230.137 23.8672 230.465 20.1055 230.582 15.582L223.973 16.0742C223.973 20.0352 224.008 26.3164 224.078 34.918C224.078 35.1289 224.02 35.2812 223.902 35.375C223.809 35.4922 223.68 35.5508 223.516 35.5508C223.328 35.5508 223.105 35.4805 222.848 35.3398C222.402 35.1523 222.086 34.9766 221.898 34.8125C221.711 34.6484 221.617 34.4609 221.617 34.25L221.652 34.0039C221.793 33.2305 221.863 32.3633 221.863 31.4023L221.758 16.5664C221.758 15.957 221.734 15.4883 221.688 15.1602C221.664 14.832 221.594 14.5156 221.477 14.2109C221.383 13.9297 221.336 13.7422 221.336 13.6484Z" fill="#333333"/>
<path d="M39.4375 68.2188C39.1667 68.2188 38.9688 68.125 38.8438 67.9375C38.6562 67.6667 38.4688 67.4479 38.2812 67.2812C38.1146 67.1146 37.8125 66.8854 37.375 66.5938L37.4688 66.4375C38.4271 66.7708 39.1042 66.9375 39.5 66.9375C39.8333 66.9375 40.1979 66.75 40.5938 66.375C41.0104 65.9792 41.3646 65.4167 41.6562 64.6875C41.8021 64.3542 41.9062 64.0833 41.9688 63.875C42.0521 63.6458 42.1146 63.3958 42.1562 63.125V63.0625C42.1562 62.875 42.0625 62.7812 41.875 62.7812C41.6667 62.7812 41.2917 62.8438 40.75 62.9688C40.4583 63.0521 40.0729 63.1771 39.5938 63.3438L39.3438 63.2812C39.3229 63.2604 39.2708 63.2292 39.1875 63.1875C39.125 63.125 39.0729 63.0625 39.0312 63C38.9271 62.8958 38.875 62.8229 38.875 62.7812L38.8438 62.6562C38.8438 62.5104 38.9167 62.375 39.0625 62.25C39.2292 62.125 39.3229 62.0312 39.3438 61.9688C39.5104 61.7812 39.8438 61.3229 40.3438 60.5938C40.3854 60.5521 40.4583 60.4583 40.5625 60.3125C40.6667 60.1458 40.7188 60 40.7188 59.875C40.7188 59.7292 40.1042 59.8333 38.875 60.1875C37.625 60.5625 36.9688 60.75 36.9062 60.75C36.6979 60.75 36.4792 60.5729 36.25 60.2188C36.0833 60.0521 36 59.9167 36 59.8125C36 59.6667 36.2083 59.5833 36.625 59.5625C37.1042 59.5417 37.8438 59.4583 38.8438 59.3125C39.8646 59.1667 40.4688 59.0729 40.6562 59.0312L41.0938 58.9062C41.1562 58.8854 41.2292 58.875 41.3125 58.875C41.375 58.875 41.4688 58.9167 41.5938 59C41.7396 59.0833 41.8646 59.1458 41.9688 59.1875C42.2396 59.3125 42.3958 59.4583 42.4375 59.625V59.7188C42.4375 59.9062 42.3333 60.1042 42.125 60.3125C42.0417 60.3958 41.875 60.5729 41.625 60.8438C41.375 61.0938 41.2188 61.2604 41.1562 61.3438C41.0729 61.4271 40.9479 61.5625 40.7812 61.75C40.6146 61.9375 40.5208 62.0521 40.5 62.0938C40.5 62.1562 40.5208 62.1979 40.5625 62.2188C40.6042 62.2396 40.6562 62.25 40.7188 62.25C41.3438 62.1667 41.8542 62.0729 42.25 61.9688L42.75 61.8125C42.9792 61.8125 43.1458 61.8958 43.25 62.0625C43.4375 62.2708 43.5625 62.4479 43.625 62.5938C43.6875 62.7188 43.6875 62.8438 43.625 62.9688C43.6042 63.0312 43.5729 63.0938 43.5312 63.1562C43.4896 63.2188 43.4479 63.2917 43.4062 63.375C43.3854 63.4167 43.3438 63.5 43.2812 63.625C43.2188 63.75 43.1771 63.875 43.1562 64C42.7812 65.0833 42.3333 66.0104 41.8125 66.7812C41.5208 67.1354 41.1979 67.4375 40.8438 67.6875C40.3646 68.0417 39.8958 68.2188 39.4375 68.2188ZM43.0312 76.5938C42.7188 76.5938 42.4167 76.3646 42.125 75.9062C41.75 75.3229 41.3854 74.8438 41.0312 74.4688L40.2188 73.625C39.7812 74.125 39.3958 74.5208 39.0625 74.8125C38.75 75.1042 38.3542 75.3854 37.875 75.6562C36.9792 76.1771 36.2292 76.4375 35.625 76.4375C35.4792 76.4375 35.4062 76.3854 35.4062 76.2812C35.4062 76.2188 35.6042 76.0833 36 75.875C36.3958 75.6667 36.7708 75.4167 37.125 75.125C38.0208 74.375 38.7604 73.6042 39.3438 72.8125C39.2188 72.6875 38.5938 72.1458 37.4688 71.1875C37.3229 71.0833 37.1042 70.9062 36.8125 70.6562C36.75 70.6146 36.625 70.5208 36.4375 70.375C36.25 70.2292 36.1562 70.125 36.1562 70.0625C36.1562 69.9583 36.2083 69.9062 36.3125 69.9062C36.625 69.9062 37.125 70.125 37.8125 70.5625C38.5 70.9792 39.2188 71.4792 39.9688 72.0625C40.2604 71.7083 40.4896 71.375 40.6562 71.0625C40.8229 70.75 41.0104 70.3646 41.2188 69.9062C41.3229 69.6771 41.3854 69.4792 41.4062 69.3125C41.4271 69.125 41.4375 69.0104 41.4375 68.9688C41.4375 68.7396 41.5 68.625 41.625 68.625C41.7708 68.625 41.9688 68.7396 42.2188 68.9688C42.6562 69.3854 42.875 69.6667 42.875 69.8125C42.875 69.8958 42.8229 69.9896 42.7188 70.0938C42.4688 70.3438 42.2396 70.6771 42.0312 71.0938C41.9062 71.3438 41.6771 71.6979 41.3438 72.1562C41.2396 72.2812 41.1562 72.3958 41.0938 72.5C41.0312 72.6042 40.9688 72.6979 40.9062 72.7812C41.3854 73.1354 42.0938 73.7396 43.0312 74.5938C43.2604 74.8021 43.4062 75 43.4688 75.1875C43.5521 75.3542 43.5938 75.5833 43.5938 75.875C43.5938 76.0833 43.5417 76.2604 43.4375 76.4062C43.3333 76.5312 43.1979 76.5938 43.0312 76.5938ZM36.125 85.9375C35.8125 85.9375 35.5729 85.8542 35.4062 85.6875C35.2188 85.5 35.125 85.3333 35.125 85.1875C35.125 85.0417 35.2083 84.8854 35.375 84.7188C35.3958 84.6979 35.5104 84.5312 35.7188 84.2188C36.1771 83.4896 36.6979 82.5625 37.2812 81.4375C37.8854 80.2917 38.2604 79.5104 38.4062 79.0938C38.5312 78.6979 38.6458 78.3542 38.75 78.0625C38.875 77.7708 38.9792 77.625 39.0625 77.625C39.2083 77.625 39.3333 77.6771 39.4375 77.7812C39.5417 77.8646 39.6458 77.9896 39.75 78.1562C39.875 78.3021 39.9688 78.4062 40.0312 78.4688C40.1771 78.6354 40.25 78.7917 40.25 78.9375C40.25 79.0417 40.2083 79.1458 40.125 79.25C40.0417 79.3542 39.9896 79.4271 39.9688 79.4688L38.5938 81.7812C38.2396 82.4271 37.7708 83.2292 37.1875 84.1875C37.1042 84.2917 37.0625 84.3958 37.0625 84.5C37.0625 84.5833 37.1562 84.625 37.3438 84.625C37.7396 84.625 38.4792 84.5729 39.5625 84.4688C40.6458 84.3854 41.375 84.3125 41.75 84.25C42.2917 84.1875 42.6667 84.125 42.875 84.0625C43.1042 84 43.4375 84.1562 43.875 84.5312C44.3958 84.9688 44.5104 85.25 44.2188 85.375C44.0521 85.4583 43.7292 85.5 43.25 85.5H42C41.7292 85.5 41.3021 85.5208 40.7188 85.5625C40.3646 85.5625 39.9688 85.5729 39.5312 85.5938C39.0938 85.6146 38.7292 85.6354 38.4375 85.6562C38.1042 85.6771 37.4583 85.7396 36.5 85.8438L36.125 85.9375ZM49.4062 72.1562C49.6562 72.1562 49.7812 72.2708 49.7812 72.5C49.7812 72.625 49.6667 72.8021 49.4375 73.0312C48.8125 73.8021 47.5729 75.2708 45.7188 77.4375C45.5729 77.625 45.4375 77.7188 45.3125 77.7188C45.2083 77.7188 44.9792 77.5625 44.625 77.25C44.3333 77 44.1875 76.7917 44.1875 76.625C44.1875 76.4375 44.3438 76.2604 44.6562 76.0938C45.1354 75.8229 45.8542 75.2812 46.8125 74.4688C47.7708 73.6146 48.4792 72.9375 48.9375 72.4375C49.125 72.25 49.2812 72.1562 49.4062 72.1562ZM11.5 70V70.0938C11.5 70.4479 11.3229 70.625 10.9688 70.625C10.6771 70.625 10.375 70.5417 10.0625 70.375C9.75 70.2083 9.59375 69.9583 9.59375 69.625L9.625 69.3125C9.64583 69.2083 9.65625 69.0729 9.65625 68.9062C9.65625 68.7604 9.64583 68.5938 9.625 68.4062C9.60417 68.2188 9.58333 68.0729 9.5625 67.9688L9 63.5312C8.91667 62.9688 8.78125 62.5417 8.59375 62.25C8.44792 62.0208 8.375 61.8646 8.375 61.7812C8.375 61.6562 8.48958 61.5938 8.71875 61.5938C9.09375 61.5938 9.73958 61.7604 10.6562 62.0938L14.6875 61.875L14.625 60.4688C14.6042 60.0312 14.4583 59.6354 14.1875 59.2812C14.1042 59.1979 14.0625 59.1042 14.0625 59C14.0625 58.8542 14.1979 58.7812 14.4688 58.7812C14.6979 58.7812 14.9792 58.8438 15.3125 58.9688C15.7083 59.1146 15.9688 59.25 16.0938 59.375C16.2188 59.4792 16.2917 59.625 16.3125 59.8125L16.4062 61.7812L20.375 61.5625L20.4062 60.0938C20.4062 59.5729 20.2917 59.1354 20.0625 58.7812C20 58.6562 19.9688 58.5521 19.9688 58.4688C19.9688 58.3021 20.0938 58.2188 20.3438 58.2188C20.4479 58.2396 20.6458 58.2917 20.9375 58.375C21.25 58.4375 21.5417 58.5521 21.8125 58.7188C22.0833 58.8854 22.2188 59.0938 22.2188 59.3438L22.125 61.4688L26.9062 61.2188L27.3125 61.1875C27.5208 61.1875 27.7604 61.2917 28.0312 61.5C28.3229 61.7083 28.4688 61.9167 28.4688 62.125C28.4688 62.2083 28.4479 62.3021 28.4062 62.4062C28.3646 62.4896 28.3333 62.5625 28.3125 62.625L27.4688 67.5312C27.8854 68.0312 28.0938 68.3646 28.0938 68.5312C28.0938 68.6562 28.0312 68.7396 27.9062 68.7812C27.8021 68.8021 27.5938 68.8229 27.2812 68.8438L11.4375 69.5625L11.5 70ZM3.65625 86.9062C3.65625 86.7188 3.84375 86.4167 4.21875 86C7.32292 82.6042 8.90625 78.2604 8.96875 72.9688C8.96875 72.2604 8.90625 71.7188 8.78125 71.3438C8.69792 71.0521 8.65625 70.8646 8.65625 70.7812C8.65625 70.6146 8.73958 70.5312 8.90625 70.5312C9.21875 70.5312 9.88542 70.7917 10.9062 71.3125L25 70.6875C25.5833 70.6458 26.0833 70.5521 26.5 70.4062C26.6667 70.3646 26.7812 70.3438 26.8438 70.3438C27.0729 70.3438 27.4062 70.5208 27.8438 70.875C28.2812 71.2083 28.5 71.4896 28.5 71.7188C28.5 71.9271 28.2604 72.0521 27.7812 72.0938L10.8438 72.8125C10.7604 74.5208 10.5729 76.125 10.2812 77.625L26.8438 76.9062C27.4271 76.8646 27.9271 76.7708 28.3438 76.625C28.5104 76.5833 28.6354 76.5625 28.7188 76.5625C28.9688 76.5625 29.2188 76.6562 29.4688 76.8438C29.7188 77.0104 29.9271 77.2083 30.0938 77.4375C30.2604 77.6458 30.3438 77.8021 30.3438 77.9062C30.3438 78.1146 30.1042 78.2396 29.625 78.2812L19.1562 78.7188C20.3021 79.9062 21.2708 80.7708 22.0625 81.3125C24.2292 80.5208 25.4896 79.7604 25.8438 79.0312C25.9479 78.8021 26.0833 78.6875 26.25 78.6875C26.4375 78.6875 26.6771 78.8854 26.9688 79.2812C27.2604 79.6771 27.4062 80.0104 27.4062 80.2812C27.4062 80.4896 27.2917 80.6458 27.0625 80.75C26.0625 81.2917 24.9062 81.7917 23.5938 82.25C24.7188 82.875 25.9792 83.4062 27.375 83.8438C28.7708 84.2812 30.4167 84.6771 32.3125 85.0312C32.5 85.0729 32.6354 85.1146 32.7188 85.1562C32.8021 85.1979 32.8438 85.2604 32.8438 85.3438C32.8438 85.4062 32.7708 85.5625 32.625 85.8125C32.5 86.0625 32.3438 86.2812 32.1562 86.4688C31.9688 86.6771 31.7812 86.7812 31.5938 86.7812C31.5312 86.7812 31.4167 86.7604 31.25 86.7188C28.9583 86.1771 27.0208 85.5938 25.4375 84.9688C23.875 84.3438 22.4271 83.5521 21.0938 82.5938C19.7604 81.6146 18.4479 80.3542 17.1562 78.8125L14.625 78.9062L14.4688 84.5938C15.8229 84.2396 17.4167 83.7812 19.25 83.2188C19.5625 83.1146 19.8646 83.0625 20.1562 83.0625C20.4062 83.0625 20.5312 83.125 20.5312 83.25C20.5312 83.4792 20.1667 83.8021 19.4375 84.2188C18.7083 84.6354 17.8125 85.0625 16.75 85.5C16.2708 85.7083 15.875 85.875 15.5625 86C15.25 86.1458 15.0104 86.2604 14.8438 86.3438C14.0521 86.7396 13.5521 86.9375 13.3438 86.9375C13.1354 86.9375 12.9062 86.7604 12.6562 86.4062C12.4062 86.0521 12.3438 85.7812 12.4688 85.5938C12.5521 85.4479 12.6146 85.0312 12.6562 84.3438C12.6979 83.6771 12.7188 83.1771 12.7188 82.8438L12.8125 79L9.9375 79.125C9.41667 80.7917 8.72917 82.2292 7.875 83.4375C7.02083 84.625 6.19792 85.5312 5.40625 86.1562C4.61458 86.7812 4.10417 87.0938 3.875 87.0938C3.72917 87.0938 3.65625 87.0312 3.65625 86.9062ZM10.9375 65.0625L14.8438 64.8438L14.75 63.2188L10.75 63.4375L10.9375 65.0625ZM11.2812 68.2188L14.9688 68.0312L14.9062 66.25L11.0938 66.4375L11.2812 68.2188ZM12.0312 74.2812C12.0312 74.1979 12.0833 74.1562 12.1875 74.1562C12.2708 74.1562 12.3438 74.1667 12.4062 74.1875C12.8229 74.2917 13.2292 74.3438 13.625 74.3438H13.9062L23.1562 73.9062C23.7396 73.8646 24.2396 73.7708 24.6562 73.625C24.8229 73.5833 24.9479 73.5625 25.0312 73.5625C25.2812 73.5625 25.5312 73.6562 25.7812 73.8438C26.0312 74.0104 26.2396 74.2083 26.4062 74.4375C26.5729 74.6458 26.6562 74.8021 26.6562 74.9062C26.6562 75.0938 26.4167 75.2083 25.9375 75.25L14.5 75.8125L13.7812 75.8438C12.9688 75.8438 12.4167 75.4479 12.125 74.6562C12.0625 74.4896 12.0312 74.3646 12.0312 74.2812ZM16.5312 64.7812L20.2812 64.5938L20.3438 62.9375L16.4688 63.125L16.5312 64.7812ZM16.6875 67.9688L20.2188 67.7812L20.25 66L16.5938 66.1875L16.6875 67.9688ZM25.7188 67.5312L25.9688 65.7188L21.9375 65.9062L21.875 67.7188L25.7188 67.5312ZM26.1562 64.3125L26.375 62.625L22.0625 62.8438L22 64.5L26.1562 64.3125ZM88.375 72C88.0417 72 87.8333 71.9062 87.75 71.7188C87.6458 71.4688 87.5417 71.2604 87.4375 71.0938C87.3333 70.9062 87.1458 70.6875 86.875 70.4375L86.9375 70.3125C87.6875 70.5833 88.1771 70.7188 88.4062 70.7188C88.5729 70.7188 88.6979 70.6875 88.7812 70.625C88.8646 70.5625 89 70.4167 89.1875 70.1875C89.4583 69.8958 89.7083 69.4479 89.9375 68.8438C90.25 67.9479 90.4479 67.0208 90.5312 66.0625V65.9688C90.5312 65.8438 90.5104 65.7604 90.4688 65.7188C90.1979 65.7188 89.4792 65.7812 88.3125 65.9062C87.6667 67.5104 86.9167 68.8333 86.0625 69.875C85.2292 70.8958 84.4688 71.4062 83.7812 71.4062C83.6146 71.4062 83.5312 71.3438 83.5312 71.2188C83.5312 71.1771 83.7396 70.9375 84.1562 70.5C84.5729 70.0625 85.0312 69.4896 85.5312 68.7812C86.0521 68.0521 86.5417 67.1562 87 66.0938C86.8958 66.0938 86.5938 66.1146 86.0938 66.1562C85.5938 66.1979 85.1667 66.2708 84.8125 66.375C84.6458 66.5 84.4688 66.5208 84.2812 66.4375C84.2812 66.4375 84.2604 66.4271 84.2188 66.4062C84.1771 66.3854 84.1354 66.3542 84.0938 66.3125C83.9479 66.2292 83.8229 66.125 83.7188 66C83.6354 65.8542 83.5938 65.7188 83.5938 65.5938C83.5938 65.5312 83.6458 65.4479 83.75 65.3438L84.125 64.8438C84.25 64.6771 84.3646 64.4375 84.4688 64.125C84.5729 63.7917 84.625 63.5104 84.625 63.2812C84.625 63.1354 84.6146 63.0417 84.5938 63C84.5729 62.9583 84.5625 62.9062 84.5625 62.8438C84.5625 62.7396 84.6146 62.6875 84.7188 62.6875C84.8438 62.6875 85.0208 62.7604 85.25 62.9062C85.3125 62.9479 85.4271 63.0312 85.5938 63.1562C85.7812 63.2604 85.8854 63.3854 85.9062 63.5312C85.9062 63.6771 85.8229 63.9167 85.6562 64.25L85.25 64.9688C85.2083 65.0312 85.1875 65.1042 85.1875 65.1875C85.1875 65.25 85.2083 65.3021 85.25 65.3438C85.3125 65.3646 85.3854 65.3646 85.4688 65.3438L87.3438 65.0938C87.5521 64.5521 87.7188 63.9792 87.8438 63.375V63.1875V62.6562C87.8438 62.4271 87.9062 62.3333 88.0312 62.375C88.3021 62.4375 88.5208 62.5208 88.6875 62.625C89 62.8125 89.1562 62.9688 89.1562 63.0938C89.1562 63.1979 89.1146 63.375 89.0312 63.625C88.9688 63.8542 88.9167 64.0312 88.875 64.1562C88.8542 64.2396 88.7604 64.5104 88.5938 64.9688C88.6562 64.9688 89.0417 64.9271 89.75 64.8438L90.0625 64.7812C90.125 64.7812 90.2396 64.7604 90.4062 64.7188C90.4479 64.6979 90.5 64.6875 90.5625 64.6875C90.8125 64.6875 90.9688 64.6979 91.0312 64.7188C91.1146 64.7396 91.2396 64.8021 91.4062 64.9062C91.5938 65.0312 91.7188 65.1562 91.7812 65.2812C91.8438 65.4062 91.8646 65.5521 91.8438 65.7188L91.6562 66.75L91.4375 67.875C91.4375 67.9583 91.3646 68.2292 91.2188 68.6875C91.0729 69.1458 90.9062 69.5521 90.7188 69.9062C90.3646 70.6146 89.9479 71.1458 89.4688 71.5C89.0521 71.8333 88.6875 72 88.375 72ZM84.3125 79.0938C84.0833 79.0938 83.8021 78.9167 83.4688 78.5625C83.2188 78.3125 83.0938 78.125 83.0938 78C83.0938 77.9375 83.1354 77.9062 83.2188 77.9062C83.3021 77.8854 83.4062 77.875 83.5312 77.875L84.2188 77.8438C84.6146 77.8438 84.875 77.8333 85 77.8125C85.3958 77.8125 85.7292 77.8021 86 77.7812C87.7917 77.6146 89 77.4792 89.625 77.375C89.9375 77.3333 90.2188 77.2917 90.4688 77.25C90.7188 77.1875 90.9167 77.1562 91.0625 77.1562C91.3542 77.1562 91.6458 77.3021 91.9375 77.5938C92.1667 77.8229 92.2812 78.0104 92.2812 78.1562C92.2812 78.2812 92.2083 78.3646 92.0625 78.4062C91.9583 78.4271 91.3438 78.4688 90.2188 78.5312C89.5938 78.5521 88.8229 78.6042 87.9062 78.6875C86.9896 78.7708 86.1875 78.8542 85.5 78.9375C85.375 78.9583 85.1979 78.9896 84.9688 79.0312C84.7396 79.0729 84.5208 79.0938 84.3125 79.0938ZM93.4062 71.2188C93.5104 71.2188 93.6667 71.2917 93.875 71.4375C93.8542 71.4792 93.8958 71.5625 94 71.6875C94.1042 71.7917 94.1771 71.8646 94.2188 71.9062C94.3229 72.0104 94.4271 72.1354 94.5312 72.2812C94.6562 72.4271 94.7917 72.5833 94.9375 72.75C95.3125 73.1458 96.1771 74.1771 97.5312 75.8438C97.7604 76.1771 97.875 76.375 97.875 76.4375C97.875 76.6458 97.75 76.75 97.5 76.75C97.3542 76.75 97.1979 76.6458 97.0312 76.4375C96.6354 76.0208 95.9271 75.3646 94.9062 74.4688C94.1146 73.7396 93.3958 73.1771 92.75 72.7812C92.4375 72.6354 92.2812 72.4688 92.2812 72.2812C92.2812 72.1354 92.4375 71.9271 92.75 71.6562C93.0417 71.3646 93.2604 71.2188 93.4062 71.2188ZM63.0938 85.9688V86.0312C63.0938 86.1979 63.0417 86.3333 62.9375 86.4375C62.8542 86.5417 62.7188 86.5938 62.5312 86.5938C62.2188 86.5938 61.8958 86.4792 61.5625 86.25C61.2292 86.0417 61.0625 85.8125 61.0625 85.5625V85.4062C61.0625 85.2604 61.0729 85.125 61.0938 85C61.1146 84.8958 61.125 84.7812 61.125 84.6562L61.0938 84.0938L60.7812 77.9062C60.7604 77.6354 60.7083 77.3438 60.625 77.0312C60.5625 76.6979 60.5 76.4583 60.4375 76.3125C60.2917 76.0208 60.2188 75.8125 60.2188 75.6875C60.2188 75.5625 60.3125 75.5 60.5 75.5C60.7708 75.5 61.4479 75.6875 62.5312 76.0625L74.125 75.5312H74.4688C74.7604 75.5312 75 75.6042 75.1875 75.75C75.3958 75.8958 75.5521 76.0625 75.6562 76.25C75.7604 76.4375 75.8125 76.5729 75.8125 76.6562C75.8125 76.7604 75.7812 76.8646 75.7188 76.9688C75.6562 77.0729 75.6146 77.1667 75.5938 77.25L75.0625 83.5625C75.5625 84.2083 75.8125 84.6458 75.8125 84.875C75.8125 85.0208 75.75 85.1042 75.625 85.125C75.5 85.1667 75.2917 85.1875 75 85.1875L63.0625 85.4375L63.0938 85.9688ZM51.625 85.9688C51.625 85.7604 51.7188 85.4375 51.9062 85C52.9688 82.6667 53.7708 80.3958 54.3125 78.1875C54.8542 75.9792 55.2083 73.7188 55.375 71.4062C55.5625 69.0938 55.6562 66.3125 55.6562 63.0625C55.6562 62.4583 55.6458 62 55.625 61.6875C55.6042 61.3542 55.5417 61.0312 55.4375 60.7188C55.3542 60.4688 55.3125 60.3125 55.3125 60.25C55.3125 60.1042 55.3854 60.0312 55.5312 60.0312C55.8021 60.0312 56.5208 60.3021 57.6875 60.8438L74.6562 59.9062C75.2604 59.8854 75.7917 59.7812 76.25 59.5938C76.375 59.5312 76.5 59.5 76.625 59.5C76.8542 59.5 77.1042 59.5938 77.375 59.7812C77.6667 59.9688 77.9062 60.1771 78.0938 60.4062C78.3021 60.6354 78.4062 60.8021 78.4062 60.9062C78.4062 61.1771 78.1458 61.3333 77.625 61.375L57.6562 62.5C57.6562 64.3333 57.6042 66.2708 57.5 68.3125C57.4167 70.3542 57.2604 72.0938 57.0312 73.5312C56.5729 76.5104 55.9583 78.9479 55.1875 80.8438C54.4375 82.7188 53.7292 84.0729 53.0625 84.9062C52.3958 85.7604 51.9583 86.1875 51.75 86.1875C51.6667 86.1875 51.625 86.1146 51.625 85.9688ZM57.4062 75.1875C57.4062 74.9792 57.5833 74.6875 57.9375 74.3125C58.5833 73.625 59.3021 72.7604 60.0938 71.7188C60.9062 70.6771 61.5938 69.6875 62.1562 68.75L60.25 68.9062H60C59.5417 68.9062 59.1458 68.7812 58.8125 68.5312C58.5 68.2812 58.3438 67.9479 58.3438 67.5312C58.3438 67.4271 58.4062 67.375 58.5312 67.375L58.8438 67.4375C59.1562 67.5 59.4792 67.5312 59.8125 67.5312H60.0312L62.7812 67.3438C62.7812 66.4896 62.7917 65.8854 62.8125 65.5312C62.1667 65.6771 61.5625 65.8021 61 65.9062C60.4375 66.0104 60.0625 66.0625 59.875 66.0625C59.4792 66.0625 59.2812 65.9792 59.2812 65.8125C59.2812 65.7292 59.3646 65.6354 59.5312 65.5312C59.6979 65.4062 59.9375 65.3021 60.25 65.2188C61.1667 64.9479 62.1875 64.5729 63.3125 64.0938C64.4583 63.6146 65.1771 63.1562 65.4688 62.7188C65.5729 62.5938 65.6875 62.5312 65.8125 62.5312C66.0208 62.5312 66.2188 62.6354 66.4062 62.8438C66.5938 63.0312 66.75 63.25 66.875 63.5C67.0208 63.7292 67.0938 63.8958 67.0938 64C67.0938 64.2083 67.0208 64.3333 66.875 64.375C65.8542 64.7292 65.0208 64.9896 64.375 65.1562V67.25L65.5938 67.1562C66.0104 67.1146 66.3542 67.0521 66.625 66.9688C66.6875 66.9479 66.7708 66.9375 66.875 66.9375C67.1042 66.9375 67.375 67.0833 67.6875 67.375C68 67.6458 68.1562 67.875 68.1562 68.0625C68.1562 68.2708 67.9479 68.3854 67.5312 68.4062L64.375 68.625V69.1875C64.5 69.0625 64.6458 69 64.8125 69C64.9375 69 65.25 69.1667 65.75 69.5C66.25 69.8125 66.7083 70.1562 67.125 70.5312C67.5625 70.9062 67.7812 71.1771 67.7812 71.3438C67.7812 71.5521 67.6667 71.7812 67.4375 72.0312C67.2292 72.2812 67.0521 72.4062 66.9062 72.4062C66.7604 72.4062 66.5729 72.2917 66.3438 72.0625C65.7604 71.4792 65.1042 70.9062 64.375 70.3438V74.8438C64.375 75.2812 64.2188 75.5 63.9062 75.5C63.7604 75.5 63.5417 75.4375 63.25 75.3125C63 75.1875 62.8229 75.0625 62.7188 74.9375C62.6354 74.8125 62.5938 74.6667 62.5938 74.5C62.5938 74.3333 62.6042 74.2083 62.625 74.125C62.7083 73.4583 62.75 72.9792 62.75 72.6875L62.7812 71.7188C62.7812 71.3021 62.8229 70.75 62.9062 70.0625C62.6771 70.6042 62.1875 71.3021 61.4375 72.1562C60.6875 72.9896 59.9167 73.7292 59.125 74.375C58.3542 75.0208 57.8333 75.3438 57.5625 75.3438C57.4583 75.3438 57.4062 75.2917 57.4062 75.1875ZM62.7188 79.8438L73.5 79.4688L73.625 77.125L62.5938 77.6562L62.7188 79.8438ZM62.9688 83.8438L73.25 83.5938L73.4062 80.9688L62.8125 81.3438L62.9688 83.8438ZM66.5312 74.5938C66.5312 74.3854 66.7292 74.0833 67.125 73.6875C68.75 72.1042 70.2083 70.3125 71.5 68.3125L69.9375 68.4375H69.6562C69.2604 68.4375 68.9688 68.3646 68.7812 68.2188C68.4271 67.9062 68.1875 67.6042 68.0625 67.3125C68.0208 67.1875 68 67.1146 68 67.0938C68 66.9896 68.0729 66.9375 68.2188 66.9375C68.3229 66.9375 68.4062 66.9479 68.4688 66.9688C68.7812 67.0521 69.0833 67.0938 69.375 67.0938L69.7188 67.0625L72.1562 66.9062L72.2188 64.9375C72.1354 64.9583 71.6771 65.0625 70.8438 65.25C70.0312 65.4375 69.4167 65.5312 69 65.5312C68.6042 65.5312 68.4062 65.4583 68.4062 65.3125C68.4062 65.2292 68.5 65.125 68.6875 65C68.8958 64.875 69.1771 64.7604 69.5312 64.6562C70.4479 64.3646 71.5208 63.9792 72.75 63.5C73.9792 63 74.7396 62.5312 75.0312 62.0938C75.1354 61.9271 75.2604 61.8438 75.4062 61.8438C75.6771 61.8438 75.9583 62.0417 76.25 62.4375C76.5625 62.8125 76.7188 63.1146 76.7188 63.3438C76.7188 63.4271 76.6875 63.5104 76.625 63.5938C76.5833 63.6562 76.5417 63.6875 76.5 63.6875C75.4583 64.0625 74.5417 64.3542 73.75 64.5625C73.7292 65.0208 73.7188 65.7708 73.7188 66.8125L75.9375 66.6875C76.1667 66.6667 76.5104 66.5938 76.9688 66.4688C77.0312 66.4479 77.125 66.4375 77.25 66.4375C77.4792 66.4375 77.7604 66.5625 78.0938 66.8125C78.4271 67.0417 78.5938 67.3021 78.5938 67.5938C78.5938 67.8021 78.3542 67.9271 77.875 67.9688L73.7188 68.2188V68.9375C74.0938 69.0625 74.8333 69.4688 75.9375 70.1562C77.0625 70.8229 78.1146 71.4896 79.0938 72.1562C79.1146 72.1771 79.1875 72.2604 79.3125 72.4062C79.4583 72.5312 79.5312 72.6667 79.5312 72.8125C79.5312 72.9375 79.4583 73.1562 79.3125 73.4688C79.1875 73.7604 79.0208 73.9167 78.8125 73.9375H78.75C78.5833 73.9375 78.3958 73.8542 78.1875 73.6875C76.6042 72.4792 75.1146 71.4479 73.7188 70.5938L73.6875 74.4375C73.6875 74.6875 73.6562 74.875 73.5938 75C73.5312 75.125 73.4271 75.1875 73.2812 75.1875C72.9688 75.1875 72.6667 75.0729 72.375 74.8438C72.0833 74.6146 71.9375 74.3646 71.9375 74.0938L71.9688 73.7812C72.0521 73.1146 72.0938 72.6354 72.0938 72.3438V71.4688C72.0938 70.9688 72.1562 70.3021 72.2812 69.4688C71.8229 70.3021 71.1979 71.125 70.4062 71.9375C69.6146 72.7292 68.8438 73.3958 68.0938 73.9375C67.3438 74.4583 66.875 74.7188 66.6875 74.7188C66.5833 74.7188 66.5312 74.6771 66.5312 74.5938ZM137.875 72C137.562 72 137.292 71.8854 137.062 71.6562C136.375 70.9062 135.677 70.2292 134.969 69.625C134.177 68.9583 133.479 68.4583 132.875 68.125C132.583 67.9583 132.438 67.6979 132.438 67.3438C132.438 67.2812 132.51 67.1979 132.656 67.0938C132.844 66.9688 133.146 66.6979 133.562 66.2812L134.688 65.1875C135.188 64.6667 135.604 64.1979 135.938 63.7812C136.292 63.3646 136.49 63.0729 136.531 62.9062C136.552 62.8646 136.573 62.7812 136.594 62.6562C136.635 62.5104 136.698 62.4375 136.781 62.4375C136.885 62.4375 137.021 62.4896 137.188 62.5938C137.375 62.6979 137.531 62.8021 137.656 62.9062C137.969 63.1979 138.125 63.4479 138.125 63.6562C138.104 63.7188 138.021 63.7917 137.875 63.875C137.75 63.9375 137.635 64 137.531 64.0625C137.427 64.1458 137.052 64.4792 136.406 65.0625L134.375 66.8125C134.021 67.1042 133.844 67.3333 133.844 67.5C133.844 67.5833 134.01 67.7188 134.344 67.9062C134.74 68.1562 135.51 68.6667 136.656 69.4375C137.094 69.7292 137.51 70.0521 137.906 70.4062C138.24 70.7396 138.406 71.0833 138.406 71.4375C138.406 71.6042 138.333 71.75 138.188 71.875C138.104 71.9583 138 72 137.875 72ZM132.312 79.0938C132.083 79.0938 131.802 78.9167 131.469 78.5625C131.219 78.3125 131.094 78.125 131.094 78C131.094 77.9375 131.135 77.9062 131.219 77.9062C131.302 77.8854 131.406 77.875 131.531 77.875L132.219 77.8438C132.615 77.8438 132.875 77.8333 133 77.8125C133.396 77.8125 133.729 77.8021 134 77.7812C135.792 77.6146 137 77.4792 137.625 77.375C137.938 77.3333 138.219 77.2917 138.469 77.25C138.719 77.1875 138.917 77.1562 139.062 77.1562C139.354 77.1562 139.646 77.3021 139.938 77.5938C140.167 77.8229 140.281 78.0104 140.281 78.1562C140.281 78.2812 140.208 78.3646 140.062 78.4062C139.958 78.4271 139.344 78.4688 138.219 78.5312C137.594 78.5521 136.823 78.6042 135.906 78.6875C134.99 78.7708 134.188 78.8542 133.5 78.9375C133.375 78.9583 133.198 78.9896 132.969 79.0312C132.74 79.0729 132.521 79.0938 132.312 79.0938ZM113.125 79.125V79.5C113.125 80.625 113.25 81.4479 113.5 81.9688C113.75 82.4688 114.229 82.8125 114.938 83C115.667 83.1667 116.844 83.25 118.469 83.25C120.052 83.25 121.5 83.1562 122.812 82.9688C124.125 82.7604 125.094 82.5104 125.719 82.2188C125.844 82.1562 125.969 82.125 126.094 82.125C126.219 82.125 126.458 82.2292 126.812 82.4375C127.167 82.625 127.479 82.8542 127.75 83.125C128.042 83.375 128.188 83.5833 128.188 83.75C128.188 83.9167 128.104 84.0521 127.938 84.1562C127.771 84.2812 127.531 84.3646 127.219 84.4062C123.927 84.9479 120.812 85.2188 117.875 85.2188C115.875 85.2188 114.396 85.0625 113.438 84.75C112.479 84.4583 111.823 83.9375 111.469 83.1875C111.135 82.4167 110.969 81.25 110.969 79.6875V79.4688L111.031 73.6875L103.844 74.875C103.01 75.0208 102.49 75.0938 102.281 75.0938C101.927 75.0938 101.594 74.9479 101.281 74.6562C100.969 74.3438 100.719 74.0312 100.531 73.7188C100.448 73.6146 100.406 73.5104 100.406 73.4062C100.406 73.2396 100.521 73.1562 100.75 73.1562H100.812C100.958 73.1771 101.167 73.1875 101.438 73.1875C101.938 73.1875 102.469 73.1354 103.031 73.0312L111.062 71.75L111.156 62.125C111.156 61.5208 111.01 60.9792 110.719 60.5C110.656 60.3958 110.625 60.3229 110.625 60.2812C110.625 60.1146 110.781 60.0312 111.094 60.0312C111.24 60.0521 111.49 60.1042 111.844 60.1875C112.198 60.2708 112.531 60.3958 112.844 60.5625C113.156 60.7292 113.312 60.9375 113.312 61.1875L113.219 71.4062L123.969 69.6875C124.677 69.5833 125.375 69.3542 126.062 69C126.271 68.8958 126.448 68.8438 126.594 68.8438C126.781 68.8438 127.042 68.9271 127.375 69.0938C127.708 69.2604 128 69.4688 128.25 69.7188C128.5 69.9479 128.625 70.1667 128.625 70.375C128.625 70.6667 128.365 70.8542 127.844 70.9375L113.188 73.3438L113.125 79.125ZM181 70.2812C180.312 70.0312 179.99 69.7604 180.031 69.4688C180.156 68.5938 180.219 67.5938 180.219 66.4688C180.219 65.9688 180.208 65.6042 180.188 65.375C180.167 65.1042 180.146 64.875 180.125 64.6875C180.104 64.4792 180.104 64.3646 180.125 64.3438C180.208 64.2604 180.312 64.2188 180.438 64.2188C180.625 64.2188 180.854 64.3021 181.125 64.4688C181.417 64.6354 181.562 64.8021 181.562 64.9688C181.562 65.0729 181.552 65.1771 181.531 65.2812C181.51 65.3646 181.5 65.4583 181.5 65.5625L181.312 68.6562C181.312 68.8229 181.375 68.9271 181.5 68.9688H181.656C181.823 68.9688 181.938 68.9583 182 68.9375L186.031 68.375V67.5625C186.031 66.5417 186.01 65.75 185.969 65.1875C185.948 64.7083 185.896 64.3229 185.812 64.0312C185.75 63.6979 185.833 63.5312 186.062 63.5312C186.229 63.5312 186.448 63.5938 186.719 63.7188C187.052 63.8854 187.25 64.0312 187.312 64.1562C187.375 64.2604 187.396 64.4271 187.375 64.6562C187.333 65.0312 187.312 65.5938 187.312 66.3438L187.344 68.7188C187.344 69.2188 187.25 69.6146 187.062 69.9062C186.958 70.0312 186.854 70.0938 186.75 70.0938C186.646 70.0938 186.5 70 186.312 69.8125C186.271 69.7708 186.219 69.7083 186.156 69.625C186.094 69.5417 186.031 69.4896 185.969 69.4688C185.906 69.4479 185.823 69.4375 185.719 69.4375C185.24 69.4792 184.083 69.6354 182.25 69.9062C181.938 69.9479 181.688 70.0312 181.5 70.1562C181.292 70.2604 181.156 70.3125 181.094 70.3125L181 70.2812ZM184.5 82.9375C183.854 82.9375 183.354 82.9167 183 82.875C182.667 82.8333 182.385 82.7083 182.156 82.5C181.76 82.2083 181.49 81.5729 181.344 80.5938L181.25 79.5938C181.25 79.3438 181.229 79.0312 181.188 78.6562C180.854 78.6979 180.615 78.7396 180.469 78.7812C180.427 78.8021 180.354 78.8333 180.25 78.875C180.167 78.8958 180.104 78.9062 180.062 78.9062C179.917 78.9062 179.781 78.8646 179.656 78.7812C179.531 78.6979 179.375 78.5417 179.188 78.3125C179.042 78.125 178.969 78 178.969 77.9375C178.969 77.875 179.042 77.8333 179.188 77.8125C179.333 77.7917 179.531 77.7812 179.781 77.7812C180.135 77.7812 180.594 77.7396 181.156 77.6562L181.125 77.2188C181.125 76.3854 181.073 75.6771 180.969 75.0938L180.938 74.875C180.938 74.5833 181.052 74.4688 181.281 74.5312C181.531 74.6146 181.76 74.7188 181.969 74.8438C182.135 74.9271 182.25 75.0104 182.312 75.0938C182.375 75.1562 182.396 75.25 182.375 75.375L182.281 76.7188V77.5312L185.031 77.25C185.031 77.1042 185.042 76.7604 185.062 76.2188C185.083 75.6562 185.083 75.2917 185.062 75.125C185.062 74.9583 185.042 74.8021 185 74.6562C184.979 74.4896 184.958 74.3542 184.938 74.25C184.938 74.0833 185.021 74 185.188 74C185.354 74 185.562 74.0938 185.812 74.2812C186.104 74.4688 186.292 74.6354 186.375 74.7812C186.479 74.9271 186.5 75.1042 186.438 75.3125C186.333 75.6458 186.26 76.0208 186.219 76.4375C186.177 76.8542 186.156 77.1042 186.156 77.1875C186.406 77.1667 186.635 77.1354 186.844 77.0938C187.052 77.0521 187.188 77.0312 187.25 77.0312C187.417 76.9896 187.615 76.9688 187.844 76.9688C187.969 76.9896 188.146 77.1146 188.375 77.3438C188.562 77.5938 188.656 77.7917 188.656 77.9375C188.656 78.1458 188.458 78.2292 188.062 78.1875C187.708 78.125 187.354 78.0938 187 78.0938C186.646 78.0938 186.344 78.1042 186.094 78.125C186.031 78.875 185.906 79.6146 185.719 80.3438C185.677 80.5104 185.604 80.6562 185.5 80.7812C185.396 80.8854 185.302 80.9375 185.219 80.9375C185.073 80.9375 184.979 80.8854 184.938 80.7812C184.917 80.6562 184.906 80.4688 184.906 80.2188C184.948 79.6771 184.969 79 184.969 78.1875C184.406 78.2292 183.969 78.2708 183.656 78.3125C183.177 78.4167 182.729 78.4792 182.312 78.5C182.292 79.3542 182.333 80.1146 182.438 80.7812C182.5 81.2188 182.625 81.5208 182.812 81.6875C182.938 81.7917 183.083 81.8542 183.25 81.875C183.438 81.8958 183.625 81.9062 183.812 81.9062C184 81.9062 184.125 81.9062 184.188 81.9062C184.833 81.9062 185.438 81.875 186 81.8125C186.167 81.7917 186.312 81.75 186.438 81.6875C186.583 81.625 186.688 81.5938 186.75 81.5938C186.938 81.5938 187.125 81.6562 187.312 81.7812C187.5 81.9062 187.594 82.0521 187.594 82.2188C187.594 82.3854 187.5 82.5104 187.312 82.5938C187.146 82.6771 186.875 82.75 186.5 82.8125C185.833 82.8958 185.167 82.9375 184.5 82.9375ZM189.406 71.2188C189.51 71.2188 189.667 71.2917 189.875 71.4375C189.854 71.4792 189.896 71.5625 190 71.6875C190.104 71.7917 190.177 71.8646 190.219 71.9062C190.323 72.0104 190.427 72.1354 190.531 72.2812C190.656 72.4271 190.792 72.5833 190.938 72.75C191.312 73.1458 192.177 74.1771 193.531 75.8438C193.76 76.1771 193.875 76.375 193.875 76.4375C193.875 76.6458 193.75 76.75 193.5 76.75C193.354 76.75 193.198 76.6458 193.031 76.4375C192.635 76.0208 191.927 75.3646 190.906 74.4688C190.115 73.7396 189.396 73.1771 188.75 72.7812C188.438 72.6354 188.281 72.4688 188.281 72.2812C188.281 72.1354 188.438 71.9271 188.75 71.6562C189.042 71.3646 189.26 71.2188 189.406 71.2188ZM157.25 76.3438C156.729 78.5729 155.906 80.4583 154.781 82C153.656 83.5208 152.188 85.0104 150.375 86.4688C149.938 86.8229 149.583 87 149.312 87C149.167 87 149.094 86.9271 149.094 86.7812C149.094 86.5729 149.26 86.2917 149.594 85.9375C151.323 84.0208 152.635 82.1979 153.531 80.4688C154.448 78.7396 155.073 76.8438 155.406 74.7812C155.76 72.6979 155.938 70.0833 155.938 66.9375V64C155.938 62.8542 155.833 61.9688 155.625 61.3438C155.562 61.1771 155.531 61.0312 155.531 60.9062C155.531 60.7396 155.625 60.6562 155.812 60.6562C156.146 60.6562 156.875 60.9375 158 61.5L169.156 60.8438L169.5 60.8125C169.854 60.8125 170.167 60.9583 170.438 61.25C170.708 61.5208 170.844 61.7604 170.844 61.9688C170.844 62.0521 170.812 62.1771 170.75 62.3438C170.688 62.5104 170.656 62.6458 170.656 62.75L170.812 84.4062L170.844 85.4688C170.844 85.9062 170.74 86.2708 170.531 86.5625C170.344 86.8542 170.125 87.0625 169.875 87.1875C169.625 87.3333 169.417 87.4062 169.25 87.4062C168.875 87.4062 168.24 87.0833 167.344 86.4375C166.448 85.8125 165.615 85.125 164.844 84.375C164.073 83.6458 163.688 83.1458 163.688 82.875C163.688 82.75 163.76 82.6875 163.906 82.6875C164.135 82.6875 164.479 82.8229 164.938 83.0938C166.083 83.7812 167.354 84.3646 168.75 84.8438L168.688 75.875L157.25 76.3438ZM168.688 74.1562L168.656 69.2812L157.938 69.6875C157.854 71.9375 157.729 73.5833 157.562 74.625L168.688 74.1562ZM168.656 67.4688L168.625 62.6875L158.062 63.3438L158 68L168.656 67.4688ZM227.438 78.375C227.292 78.375 227.198 78.3646 227.156 78.3438C227.135 78.3021 227.167 78.2292 227.25 78.125C227.542 77.8542 227.771 77.5938 227.938 77.3438C228.125 77.0729 228.323 76.6458 228.531 76.0625C228.865 75.1042 229.031 74.3646 229.031 73.8438C229.031 73.3646 229 72.9271 228.938 72.5312V72.4375C228.938 72.2083 229.083 72.1354 229.375 72.2188C229.625 72.2812 229.906 72.3646 230.219 72.4688C230.281 72.4479 230.375 72.4375 230.5 72.4375C230.625 72.4167 230.823 72.3854 231.094 72.3438C231.802 72.2396 232.719 72.1354 233.844 72.0312C233.844 71.9479 233.927 71.6562 234.094 71.1562L234.281 70.4688C234.365 70.1771 234.333 70.0312 234.188 70.0312C233.771 70.0312 232.802 70.1354 231.281 70.3438L229.625 70.625C229.479 70.6458 229.292 70.5833 229.062 70.4375C228.854 70.2917 228.688 70.125 228.562 69.9375C228.458 69.75 228.479 69.625 228.625 69.5625C228.792 69.4583 228.958 69.4062 229.125 69.4062C229.292 69.4062 229.396 69.4062 229.438 69.4062H229.844L231.906 69.3438L233.906 69.0938C234.01 69.0729 234.135 69.0417 234.281 69C234.448 68.9375 234.604 68.8958 234.75 68.875C234.958 68.8333 235.312 69.0625 235.812 69.5625C235.896 69.6458 235.938 69.7396 235.938 69.8438C235.938 69.9688 235.854 70.0938 235.688 70.2188C235.458 70.4479 235.312 70.6458 235.25 70.8125C235.229 70.9167 235.188 71.0729 235.125 71.2812C235.062 71.4688 235 71.7083 234.938 72C235.062 72.1458 235.125 72.3229 235.125 72.5312C235.125 72.6979 235.073 72.8229 234.969 72.9062C234.885 72.9688 234.708 73 234.438 73C233.5 73.0625 232.76 73.125 232.219 73.1875C231.677 73.2292 231.021 73.3333 230.25 73.5C230.167 74.4375 229.979 75.3021 229.688 76.0938C229.396 76.8646 228.99 77.4479 228.469 77.8438C227.969 78.1979 227.625 78.375 227.438 78.375ZM241.406 64.0312C241.656 64.0312 241.781 64.1458 241.781 64.375C241.781 64.5 241.667 64.6771 241.438 64.9062C240.812 65.6771 239.573 67.1458 237.719 69.3125C237.573 69.5 237.438 69.5938 237.312 69.5938C237.208 69.5938 236.979 69.4375 236.625 69.125C236.333 68.875 236.188 68.6667 236.188 68.5C236.188 68.3125 236.344 68.1354 236.656 67.9688C237.135 67.6979 237.854 67.1562 238.812 66.3438C239.771 65.4896 240.479 64.8125 240.938 64.3125C241.125 64.125 241.281 64.0312 241.406 64.0312ZM211.625 85.8438C211.625 86.4062 211.438 86.6875 211.062 86.6875C210.812 86.6875 210.531 86.5938 210.219 86.4062C209.823 86.1771 209.542 85.9792 209.375 85.8125C209.229 85.6458 209.156 85.4271 209.156 85.1562C209.156 85.0104 209.167 84.8958 209.188 84.8125C209.333 84.0417 209.406 83.4167 209.406 82.9375V72.0625L199.906 72.5938C199.698 72.6146 199.427 72.625 199.094 72.625C198.635 72.625 198.302 72.5521 198.094 72.4062C197.781 72.1354 197.542 71.8021 197.375 71.4062C197.208 70.9896 197.125 70.7188 197.125 70.5938C197.125 70.4688 197.188 70.4062 197.312 70.4062L197.562 70.4688C197.875 70.5729 198.302 70.625 198.844 70.625H199.219L209.406 70.0625V60.9062C209.406 60.3646 209.281 59.9167 209.031 59.5625C208.927 59.4167 208.875 59.3021 208.875 59.2188C208.875 59.0729 209.021 59 209.312 59C209.583 59 209.969 59.0625 210.469 59.1875C210.948 59.3125 211.25 59.4375 211.375 59.5625C211.521 59.6875 211.594 59.8854 211.594 60.1562V69.9375L220.812 69.4062C221.292 69.3854 221.719 69.3021 222.094 69.1562C222.135 69.1354 222.208 69.125 222.312 69.125C222.625 69.125 223.01 69.3333 223.469 69.75C223.948 70.1458 224.188 70.4688 224.188 70.7188C224.188 70.8854 224.115 71.0208 223.969 71.125C223.823 71.2083 223.625 71.2604 223.375 71.2812L211.594 71.9375L211.625 85.8438ZM283.031 77.5312C282.719 77.5312 282.417 77.3021 282.125 76.8438C281.75 76.2604 281.385 75.7812 281.031 75.4062L280.219 74.5625C279.781 75.0625 279.396 75.4583 279.062 75.75C278.75 76.0417 278.354 76.3229 277.875 76.5938C276.979 77.1146 276.229 77.375 275.625 77.375C275.479 77.375 275.406 77.3229 275.406 77.2188C275.406 77.1562 275.604 77.0208 276 76.8125C276.396 76.6042 276.771 76.3542 277.125 76.0625C278.021 75.3125 278.76 74.5417 279.344 73.75C279.219 73.625 278.594 73.0833 277.469 72.125C277.323 72.0208 277.104 71.8438 276.812 71.5938C276.75 71.5521 276.625 71.4583 276.438 71.3125C276.25 71.1667 276.156 71.0625 276.156 71C276.156 70.8958 276.208 70.8438 276.312 70.8438C276.625 70.8438 277.125 71.0625 277.812 71.5C278.5 71.9167 279.219 72.4167 279.969 73C280.26 72.6458 280.49 72.3125 280.656 72C280.823 71.6875 281.01 71.3021 281.219 70.8438C281.323 70.6146 281.385 70.4167 281.406 70.25C281.427 70.0625 281.438 69.9479 281.438 69.9062C281.438 69.6771 281.5 69.5625 281.625 69.5625C281.771 69.5625 281.969 69.6771 282.219 69.9062C282.656 70.3229 282.875 70.6042 282.875 70.75C282.875 70.8333 282.823 70.9271 282.719 71.0312C282.469 71.2812 282.24 71.6146 282.031 72.0312C281.906 72.2812 281.677 72.6354 281.344 73.0938C281.24 73.2188 281.156 73.3333 281.094 73.4375C281.031 73.5417 280.969 73.6354 280.906 73.7188C281.385 74.0729 282.094 74.6771 283.031 75.5312C283.26 75.7396 283.406 75.9375 283.469 76.125C283.552 76.2917 283.594 76.5208 283.594 76.8125C283.594 77.0208 283.542 77.1979 283.438 77.3438C283.333 77.4688 283.198 77.5312 283.031 77.5312ZM289.531 66.0938C289.594 66.0938 289.656 66.125 289.719 66.1875C289.781 66.2292 289.823 66.2917 289.844 66.375V66.4375C289.844 66.5833 289.729 66.8646 289.5 67.2812L287.25 71.1875C287.083 71.5417 286.865 71.7188 286.594 71.7188C286.323 71.7188 286.094 71.5521 285.906 71.2188C285.719 70.9479 285.49 70.5417 285.219 70C285.094 69.8125 284.99 69.625 284.906 69.4375C284.823 69.25 284.76 69.1146 284.719 69.0312C284.49 68.6354 284.375 68.3542 284.375 68.1875C284.375 68.1042 284.406 68.0417 284.469 68C284.531 67.9375 284.594 67.9062 284.656 67.9062C284.885 67.9062 285.094 68.0312 285.281 68.2812C285.427 68.4271 285.542 68.5833 285.625 68.75L285.969 69.2188L286.594 69.9375L286.875 69.5C287.167 69 287.854 68.0104 288.938 66.5312C289.167 66.2396 289.365 66.0938 289.531 66.0938ZM247.281 84.7188H246.719C246.302 84.7188 245.979 84.6875 245.75 84.625C245.521 84.5833 245.323 84.5 245.156 84.375C244.948 84.1875 244.729 83.9583 244.5 83.6875C244.271 83.4167 244.156 83.1667 244.156 82.9375C244.156 82.7917 244.229 82.7188 244.375 82.7188C244.458 82.7188 244.521 82.7292 244.562 82.75C244.979 82.8542 245.427 82.9062 245.906 82.9062L246.625 82.875L253.281 82.6875L255.031 73.0625L251.5 73.2188C250.958 73.2604 250.604 73.2812 250.438 73.2812C250 73.2812 249.688 73.1875 249.5 73C249.271 72.7708 249.073 72.5 248.906 72.1875C248.74 71.875 248.656 71.6562 248.656 71.5312C248.656 71.3646 248.729 71.2812 248.875 71.2812C248.938 71.2812 248.99 71.2917 249.031 71.3125C249.427 71.4375 249.885 71.5 250.406 71.5L251.281 71.4688L255.344 71.2812L256.625 64.2812L250.281 64.6562C250.052 64.6771 249.75 64.6875 249.375 64.6875C248.875 64.6875 248.552 64.625 248.406 64.5C248.135 64.2917 247.906 64.0417 247.719 63.75C247.552 63.4375 247.469 63.1667 247.469 62.9375C247.469 62.7917 247.542 62.7188 247.688 62.7188L247.875 62.75C248.25 62.8542 248.708 62.9062 249.25 62.9062H249.656L265.625 61.9375C266.021 61.9167 266.49 61.8125 267.031 61.625C267.073 61.6042 267.135 61.5938 267.219 61.5938C267.469 61.5938 267.833 61.7917 268.312 62.1875C268.792 62.5833 269.031 62.9062 269.031 63.1562C269.031 63.4062 268.76 63.5521 268.219 63.5938L258.844 64.1562L257.531 71.1562L265.25 70.7812H265.438C265.708 70.7812 266.042 70.8646 266.438 71.0312C266.833 71.1979 267.031 71.5104 267.031 71.9688C267.031 72.1354 267 72.3021 266.938 72.4688C266.875 72.6146 266.833 72.7083 266.812 72.75L265.812 82.3125L268.812 82.2188C269.167 82.1979 269.688 82.1146 270.375 81.9688C270.5 81.9271 270.604 81.9062 270.688 81.9062C270.917 81.9062 271.177 82.0104 271.469 82.2188C271.781 82.4271 272.052 82.6667 272.281 82.9375C272.51 83.2083 272.625 83.4167 272.625 83.5625C272.625 83.8333 272.406 83.9896 271.969 84.0312H271.875L247.281 84.7188ZM263.781 82.375L264.688 72.5938L257.188 72.9375L255.344 82.625L263.781 82.375ZM325.281 77.8125C325.156 77.8125 324.979 77.7188 324.75 77.5312C324.625 77.4479 324.521 77.3646 324.438 77.2812C324.354 77.1979 324.312 77.125 324.312 77.0625L324.344 76.5625C324.365 76.375 324.375 75.9583 324.375 75.3125C324.354 74.8542 324.344 73.8958 324.344 72.4375C324.344 71.8542 324.292 71.3229 324.188 70.8438C324.188 70.8438 324.146 70.5938 324.062 70.0938V70C324.062 69.8125 324.188 69.7604 324.438 69.8438C324.542 69.8646 324.781 69.9062 325.156 69.9688C325.552 69.9062 326.875 69.75 329.125 69.5C329.438 69.4583 329.688 69.4167 329.875 69.375C330.062 69.3333 330.198 69.3021 330.281 69.2812H330.406C330.635 69.2812 330.844 69.3958 331.031 69.625C331.365 70.0208 331.5 70.3021 331.438 70.4688C331.354 70.6771 331.271 71.0312 331.188 71.5312C331.146 71.8229 331.094 72.3229 331.031 73.0312V74.4688V76.75C331.031 76.9375 330.938 77.1875 330.75 77.5C330.708 77.6042 330.625 77.6875 330.5 77.75C330.396 77.8125 330.281 77.8438 330.156 77.8438C330.031 77.8438 329.938 77.8125 329.875 77.75C329.833 77.7083 329.792 77.6667 329.75 77.625C329.708 77.5625 329.667 77.5208 329.625 77.5C329.604 77.4792 329.562 77.4688 329.5 77.4688C328.208 77.4688 327.042 77.5521 326 77.7188C325.917 77.7396 325.833 77.75 325.75 77.75C325.688 77.75 325.625 77.7604 325.562 77.7812L325.344 77.8125H325.281ZM325.875 76.6562C326.396 76.6354 327.104 76.5729 328 76.4688C328.417 76.4271 328.656 76.4062 328.719 76.4062H328.969C329.302 76.4062 329.552 76.4688 329.719 76.5938C329.865 75.5521 329.938 73.6458 329.938 70.875C329.896 70.5625 329.771 70.4062 329.562 70.4062C329.167 70.4062 328.365 70.4792 327.156 70.625C327.031 70.625 326.906 70.6354 326.781 70.6562C326.656 70.6771 326.531 70.6979 326.406 70.7188C326.052 70.7812 325.792 70.8125 325.625 70.8125C325.479 70.8125 325.427 70.8854 325.469 71.0312L325.438 72.0938C325.417 72.2396 325.406 72.375 325.406 72.5C325.427 72.625 325.438 72.7396 325.438 72.8438C325.458 73.0104 325.469 73.2812 325.469 73.6562C325.469 75.2812 325.479 76.1771 325.5 76.3438C325.5 76.4896 325.542 76.5833 325.625 76.625C325.708 76.6667 325.792 76.6771 325.875 76.6562ZM328.188 74.9062C327.958 74.9062 327.781 74.7917 327.656 74.5625C327.219 73.8333 326.812 73.2292 326.438 72.75L326.219 72.4062C326.135 72.2812 326.094 72.1875 326.094 72.125C326.115 72.0417 326.167 72.0104 326.25 72.0312C326.792 72.1979 327.292 72.4688 327.75 72.8438C328.458 73.3854 328.812 73.8021 328.812 74.0938C328.812 74.2396 328.771 74.3854 328.688 74.5312C328.542 74.7812 328.375 74.9062 328.188 74.9062ZM333.406 66.5312C333.51 66.5312 333.667 66.6042 333.875 66.75C333.854 66.7917 333.896 66.875 334 67C334.104 67.1042 334.177 67.1771 334.219 67.2188C334.323 67.3229 334.427 67.4479 334.531 67.5938C334.656 67.7396 334.792 67.8958 334.938 68.0625C335.312 68.4583 336.177 69.4896 337.531 71.1562C337.76 71.4896 337.875 71.6875 337.875 71.75C337.875 71.9583 337.75 72.0625 337.5 72.0625C337.354 72.0625 337.198 71.9583 337.031 71.75C336.635 71.3333 335.927 70.6771 334.906 69.7812C334.115 69.0521 333.396 68.4896 332.75 68.0938C332.438 67.9479 332.281 67.7812 332.281 67.5938C332.281 67.4479 332.438 67.2396 332.75 66.9688C333.042 66.6771 333.26 66.5312 333.406 66.5312ZM300.531 85.625V85.7812C300.531 86.3021 300.365 86.5625 300.031 86.5625C299.865 86.5625 299.635 86.5 299.344 86.375C299.052 86.25 298.792 86.0729 298.562 85.8438C298.354 85.6354 298.25 85.4062 298.25 85.1562L298.281 84.9375C298.344 84.5 298.375 84.0208 298.375 83.5V82.875L297.875 64.4062C297.854 64.0729 297.802 63.7188 297.719 63.3438C297.635 62.9479 297.521 62.625 297.375 62.375C297.229 62.0833 297.156 61.875 297.156 61.75C297.156 61.5833 297.271 61.5 297.5 61.5C297.917 61.5 298.688 61.7604 299.812 62.2812L313.594 61.5625H313.812C314.125 61.5625 314.458 61.6875 314.812 61.9375C315.167 62.1667 315.344 62.4375 315.344 62.75C315.344 62.8542 315.323 62.9688 315.281 63.0938C315.24 63.2188 315.208 63.3229 315.188 63.4062L314.312 82C314.896 82.7292 315.188 83.2292 315.188 83.5C315.188 83.6458 315.115 83.7396 314.969 83.7812C314.823 83.8229 314.562 83.8542 314.188 83.875L300.5 84.3438L300.531 85.625ZM300.125 72.0938L312.719 71.4688L313.031 63.4688L299.906 64.1562L300.125 72.0938ZM300.438 82.4688L312.312 82.0938L312.656 73.375L300.188 73.9375L300.438 82.4688Z" fill="#333333"/>
</svg>
