<svg width="350" height="88" viewBox="0 0 350 88" fill="none" xmlns="http://www.w3.org/2000/svg">
<path d="M131.582 14.457C131.23 14.457 130.914 14.3164 130.633 14.0352C130.281 13.7773 130.105 13.5781 130.105 13.4375C130.105 13.2734 130.375 13.1914 130.914 13.1914L132.637 13.0859L134.395 12.9102C134.441 12.5352 134.465 11.8203 134.465 10.7656C134.535 10.7656 134.172 10.8125 133.375 10.9062L132.707 11.0117C132.496 11.1055 132.309 11.1523 132.145 11.1523C132.004 11.1523 131.887 11.1055 131.793 11.0117C131.418 10.6836 131.23 10.4023 131.23 10.168V8.51562C131.23 8.35156 131.172 7.71875 131.055 6.61719L131.02 6.23047C131.02 6.04297 131.055 5.92578 131.125 5.87891C131.195 5.83203 131.324 5.83203 131.512 5.87891C132.215 6.06641 132.555 6.27734 132.531 6.51172L132.496 6.75781C132.449 7.08594 132.426 7.50781 132.426 8.02344C132.426 8.63281 132.438 9.01953 132.461 9.18359C132.508 9.65234 132.531 9.875 132.531 9.85156C132.555 9.94531 132.637 9.99219 132.777 9.99219C132.918 9.99219 133.199 9.95703 133.621 9.88672C134.066 9.79297 134.359 9.73437 134.5 9.71094V6.61719C134.5 5.75 134.465 5.16406 134.395 4.85938C134.348 4.625 134.324 4.49609 134.324 4.47266C134.324 4.30859 134.383 4.22656 134.5 4.22656C134.547 4.22656 134.711 4.27344 134.992 4.36719C135.438 4.57812 135.73 4.76563 135.871 4.92969C136.035 5.09375 136.094 5.26953 136.047 5.45703C135.977 5.69141 135.93 6.16016 135.906 6.86328C135.859 7.42578 135.812 8.33984 135.766 9.60547L136.961 9.57031C137.195 9.57031 137.371 9.55859 137.488 9.53516C137.605 9.51172 137.664 9.46484 137.664 9.39453C137.828 8.50391 137.934 7.73047 137.98 7.07422L138.016 6.65234C138.039 6.60547 138.039 6.52344 138.016 6.40625C138.016 6.28906 138.016 6.20703 138.016 6.16016L137.98 5.91406C137.98 5.70312 138.062 5.59766 138.227 5.59766C138.32 5.59766 138.52 5.69141 138.824 5.87891C138.895 5.92578 138.988 5.99609 139.105 6.08984C139.246 6.16016 139.34 6.24219 139.387 6.33594C139.434 6.40625 139.457 6.5 139.457 6.61719C139.457 6.75781 139.445 6.875 139.422 6.96875L139.035 8.9375L138.93 9.74609C138.836 10.2852 138.555 10.5781 138.086 10.625C137.945 10.6016 137.828 10.5664 137.734 10.5195C137.664 10.4727 137.605 10.4492 137.559 10.4492C137.277 10.4492 136.691 10.5078 135.801 10.625L135.766 12.8047L136.363 12.7695L136.926 12.7344C137.793 12.7344 138.438 12.6875 138.859 12.5938C139.047 12.5938 139.211 12.5703 139.352 12.5234L139.457 12.4883C139.691 12.4883 139.938 12.6523 140.195 12.9805C140.5 13.2852 140.652 13.5078 140.652 13.6484C140.652 13.8594 140.324 13.9297 139.668 13.8594L138.332 13.7891H136.574C136.223 13.7891 135.578 13.8359 134.641 13.9297C134.148 13.9297 133.703 13.9531 133.305 14C132.906 14.0469 132.531 14.1289 132.18 14.2461L131.582 14.457ZM139.211 23.668C138.859 23.668 138.52 23.4102 138.191 22.8945C137.77 22.2383 137.359 21.6992 136.961 21.2773L136.047 20.3281C135.555 20.8906 135.121 21.3359 134.746 21.6641C134.395 21.9922 133.949 22.3086 133.41 22.6133C132.402 23.1992 131.559 23.4922 130.879 23.4922C130.715 23.4922 130.633 23.4336 130.633 23.3164C130.633 23.2461 130.855 23.0938 131.301 22.8594C131.746 22.625 132.168 22.3438 132.566 22.0156C133.574 21.1719 134.406 20.3047 135.062 19.4141C134.922 19.2734 134.219 18.6641 132.953 17.5859C132.789 17.4688 132.543 17.2695 132.215 16.9883C132.145 16.9414 132.004 16.8359 131.793 16.6719C131.582 16.5078 131.477 16.3906 131.477 16.3203C131.477 16.2031 131.535 16.1445 131.652 16.1445C132.004 16.1445 132.566 16.3906 133.34 16.8828C134.113 17.3516 134.922 17.9141 135.766 18.5703C136.094 18.1719 136.352 17.7969 136.539 17.4453C136.727 17.0938 136.938 16.6602 137.172 16.1445C137.289 15.8867 137.359 15.6641 137.383 15.4766C137.406 15.2656 137.418 15.1367 137.418 15.0898C137.418 14.832 137.488 14.7031 137.629 14.7031C137.793 14.7031 138.016 14.832 138.297 15.0898C138.789 15.5586 139.035 15.875 139.035 16.0391C139.035 16.1328 138.977 16.2383 138.859 16.3555C138.578 16.6367 138.32 17.0117 138.086 17.4805C137.945 17.7617 137.688 18.1602 137.312 18.6758C137.195 18.8164 137.102 18.9453 137.031 19.0625C136.961 19.1797 136.891 19.2852 136.82 19.3789C137.359 19.7773 138.156 20.457 139.211 21.418C139.469 21.6523 139.633 21.875 139.703 22.0859C139.797 22.2734 139.844 22.5312 139.844 22.8594C139.844 23.0938 139.785 23.293 139.668 23.457C139.551 23.5977 139.398 23.668 139.211 23.668ZM131.441 34.1797C131.09 34.1797 130.82 34.0859 130.633 33.8984C130.422 33.6875 130.316 33.5 130.316 33.3359C130.316 33.1719 130.41 32.9961 130.598 32.8086C130.621 32.7852 130.75 32.5977 130.984 32.2461C131.5 31.4258 132.086 30.3828 132.742 29.1172C133.422 27.8281 133.844 26.9492 134.008 26.4805C134.148 26.0352 134.277 25.6484 134.395 25.3203C134.535 24.9922 134.652 24.8281 134.746 24.8281C134.91 24.8281 135.051 24.8867 135.168 25.0039C135.285 25.0977 135.402 25.2383 135.52 25.4258C135.66 25.5898 135.766 25.707 135.836 25.7773C136 25.9648 136.082 26.1406 136.082 26.3047C136.082 26.4219 136.035 26.5391 135.941 26.6562C135.848 26.7734 135.789 26.8555 135.766 26.9023L134.219 29.5039C133.82 30.2305 133.293 31.1328 132.637 32.2109C132.543 32.3281 132.496 32.4453 132.496 32.5625C132.496 32.6562 132.602 32.7031 132.812 32.7031C133.258 32.7031 134.09 32.6445 135.309 32.5273C136.527 32.4336 137.348 32.3516 137.77 32.2812C138.379 32.2109 138.801 32.1406 139.035 32.0703C139.293 32 139.668 32.1758 140.16 32.5977C140.746 33.0898 140.875 33.4062 140.547 33.5469C140.359 33.6406 139.996 33.6875 139.457 33.6875H138.051C137.746 33.6875 137.266 33.7109 136.609 33.7578C136.211 33.7578 135.766 33.7695 135.273 33.793C134.781 33.8164 134.371 33.8398 134.043 33.8633C133.668 33.8867 132.941 33.957 131.863 34.0742L131.441 34.1797ZM112.457 35.1289C112.457 35.7148 112.223 36.0078 111.754 36.0078C111.402 36.0078 111.016 35.8789 110.594 35.6211C110.172 35.3867 109.961 35.0352 109.961 34.5664L109.996 34.3203C110.113 33.5703 110.172 32.8438 110.172 32.1406L110.207 23.0703L102.543 23.3867L102.648 24.4414V24.5469C102.648 24.9922 102.426 25.2148 101.98 25.2148C101.605 25.2148 101.219 25.0977 100.82 24.8633C100.422 24.6289 100.223 24.2891 100.223 23.8438V23.5625C100.27 23.0469 100.293 22.707 100.293 22.543C100.293 22.3086 100.27 21.9805 100.223 21.5586L99.5898 13.8945C99.5195 13.1211 99.3203 12.4648 98.9922 11.9258C98.8047 11.6211 98.7109 11.3984 98.7109 11.2578C98.7109 11.0703 98.8398 10.9766 99.0977 10.9766C99.5195 10.9766 100.34 11.2227 101.559 11.7148L110.277 11.1875L110.312 5.14062C110.312 4.60156 110.184 4.09766 109.926 3.62891C109.832 3.46484 109.785 3.3125 109.785 3.17188C109.785 2.98437 109.938 2.89062 110.242 2.89062C110.383 2.89062 110.641 2.9375 111.016 3.03125C111.414 3.10156 111.777 3.24219 112.105 3.45312C112.457 3.66406 112.633 3.94531 112.633 4.29688L112.598 11.0469L122.09 10.4844C122.301 10.4609 122.559 10.4492 122.863 10.4492C123.285 10.4492 123.625 10.543 123.883 10.7305C124.141 10.918 124.316 11.1289 124.41 11.3633C124.527 11.5742 124.586 11.7383 124.586 11.8555C124.586 11.9961 124.527 12.1719 124.41 12.3828C124.316 12.5938 124.27 12.7461 124.27 12.8398L123.285 20.4336C123.941 21.1836 124.27 21.7109 124.27 22.0156C124.27 22.2031 124.176 22.332 123.988 22.4023C123.801 22.4492 123.496 22.4844 123.074 22.5078L112.527 22.9648L112.457 35.1289ZM102.402 21.3828L110.242 21.0312L110.277 13.2617L101.734 13.7539L102.402 21.3828ZM121.105 20.5391L121.949 12.5938L112.598 13.1211L112.527 20.9258L121.105 20.5391ZM186.426 16.5664C185.652 16.2852 185.289 15.9805 185.336 15.6523C185.477 14.668 185.547 13.543 185.547 12.2773C185.547 11.7148 185.535 11.3047 185.512 11.0469C185.488 10.7422 185.465 10.4844 185.441 10.2734C185.418 10.0391 185.418 9.91016 185.441 9.88672C185.535 9.79297 185.652 9.74609 185.793 9.74609C186.004 9.74609 186.262 9.83984 186.566 10.0273C186.895 10.2148 187.059 10.4023 187.059 10.5898C187.059 10.707 187.047 10.8242 187.023 10.9414C187 11.0352 186.988 11.1406 186.988 11.2578L186.777 14.7383C186.777 14.9258 186.848 15.043 186.988 15.0898H187.164C187.352 15.0898 187.48 15.0781 187.551 15.0547L192.086 14.4219V13.5078C192.086 12.3594 192.062 11.4688 192.016 10.8359C191.992 10.2969 191.934 9.86328 191.84 9.53516C191.77 9.16016 191.863 8.97266 192.121 8.97266C192.309 8.97266 192.555 9.04297 192.859 9.18359C193.234 9.37109 193.457 9.53516 193.527 9.67578C193.598 9.79297 193.621 9.98047 193.598 10.2383C193.551 10.6602 193.527 11.293 193.527 12.1367L193.562 14.8086C193.562 15.3711 193.457 15.8164 193.246 16.1445C193.129 16.2852 193.012 16.3555 192.895 16.3555C192.777 16.3555 192.613 16.25 192.402 16.0391C192.355 15.9922 192.297 15.9219 192.227 15.8281C192.156 15.7344 192.086 15.6758 192.016 15.6523C191.945 15.6289 191.852 15.6172 191.734 15.6172C191.195 15.6641 189.895 15.8398 187.832 16.1445C187.48 16.1914 187.199 16.2852 186.988 16.4258C186.754 16.543 186.602 16.6016 186.531 16.6016L186.426 16.5664ZM190.891 24.125C190.656 24.4297 190.41 24.582 190.152 24.582C190.082 24.582 190.047 24.5234 190.047 24.4062C190.047 24.2422 190.094 24.0547 190.188 23.8438C190.188 23.8438 190.422 23.375 190.891 22.4375C190.914 22.3438 190.949 22.25 190.996 22.1562C191.043 22.0625 191.078 21.9805 191.102 21.9102V21.875C191.102 21.8281 191.066 21.7812 190.996 21.7344C190.926 21.6875 190.844 21.6758 190.75 21.6992C190.375 21.7227 189.812 21.7812 189.062 21.875C188.336 21.9688 187.797 22.0625 187.445 22.1562C187.305 22.2031 187.129 22.2617 186.918 22.332C186.73 22.4023 186.578 22.4375 186.461 22.4375C186.039 22.4375 185.688 22.3086 185.406 22.0508C185.172 21.8867 184.996 21.7227 184.879 21.5586L184.809 21.3828C184.809 21.2656 185.008 21.2305 185.406 21.2773C185.945 21.3242 187.059 21.2539 188.746 21.0664L189.449 20.9609C189.637 20.9375 189.93 20.9023 190.328 20.8555C190.75 20.7852 191.078 20.7148 191.312 20.6445C191.383 20.6211 191.453 20.5977 191.523 20.5742C191.617 20.5273 191.699 20.5039 191.77 20.5039C191.887 20.5039 192.027 20.5625 192.191 20.6797C192.379 20.7969 192.531 20.9023 192.648 20.9961C192.812 21.1133 192.918 21.2188 192.965 21.3125C193.035 21.3828 193.059 21.4766 193.035 21.5938C193.035 21.7109 192.977 21.8164 192.859 21.9102C192.742 22.0039 192.66 22.0742 192.613 22.1211C192.566 22.1914 192.402 22.3672 192.121 22.6484C192.004 22.8359 191.793 23.0938 191.488 23.4219C191.207 23.75 191.008 23.9844 190.891 24.125ZM189.133 31.0508C189.133 30.9805 189.25 30.8047 189.484 30.5234C189.742 30.2188 189.941 29.9844 190.082 29.8203C190.434 29.3516 190.855 28.6719 191.348 27.7812C191.863 26.8906 192.156 26.3047 192.227 26.0234C192.273 25.8828 192.203 25.8125 192.016 25.8125C191.641 25.8125 190.609 25.918 188.922 26.1289C187.82 26.2695 187 26.4102 186.461 26.5508C186.344 26.6211 186.227 26.6562 186.109 26.6562C185.922 26.6562 185.723 26.5273 185.512 26.2695C185.418 26.1055 185.371 25.9531 185.371 25.8125C185.371 25.7188 185.43 25.625 185.547 25.5312L185.652 25.3906C185.723 25.25 185.805 25.0625 185.898 24.8281C185.992 24.5938 186.074 24.3711 186.145 24.1602C186.262 23.7852 186.344 23.375 186.391 22.9297C186.414 22.6719 186.555 22.6016 186.812 22.7188C187.141 22.8828 187.387 23.0469 187.551 23.2109C187.738 23.3516 187.797 23.457 187.727 23.5273C187.492 23.8086 187.305 24.125 187.164 24.4766C187.047 24.8516 186.977 25.0977 186.953 25.2148C186.953 25.3086 187.012 25.3555 187.129 25.3555C187.48 25.3555 188.008 25.2969 188.711 25.1797C189.109 25.1328 189.602 25.0742 190.188 25.0039C190.773 24.9336 191.242 24.8633 191.594 24.793L192.473 24.6172C192.543 24.5938 192.637 24.582 192.754 24.582C192.871 24.582 192.988 24.6289 193.105 24.7227C193.223 24.793 193.352 24.8867 193.492 25.0039C193.727 25.2148 193.879 25.3906 193.949 25.5312C194.02 25.6484 194.055 25.7891 194.055 25.9531C194.055 26.0469 193.984 26.1641 193.844 26.3047C193.727 26.4453 193.586 26.668 193.422 26.9727C192.742 28.3555 191.863 29.5156 190.785 30.4531C190.48 30.6875 190.141 30.8867 189.766 31.0508C189.602 31.0977 189.449 31.1328 189.309 31.1562C189.191 31.1562 189.133 31.1211 189.133 31.0508ZM200.383 14.8086C200.664 14.8086 200.805 14.9375 200.805 15.1953C200.805 15.3359 200.676 15.5352 200.418 15.793C199.715 16.6602 198.32 18.3125 196.234 20.75C196.07 20.9609 195.918 21.0664 195.777 21.0664C195.66 21.0664 195.402 20.8906 195.004 20.5391C194.676 20.2578 194.512 20.0234 194.512 19.8359C194.512 19.625 194.688 19.4258 195.039 19.2383C195.578 18.9336 196.387 18.3242 197.465 17.4102C198.543 16.4492 199.34 15.6875 199.855 15.125C200.066 14.9141 200.242 14.8086 200.383 14.8086ZM158.512 9.88672C158.254 9.91016 157.926 9.92188 157.527 9.92188H157.176C156.848 9.875 156.613 9.81641 156.473 9.74609C156.238 9.58203 155.992 9.3125 155.734 8.9375C155.477 8.53906 155.348 8.21094 155.348 7.95312C155.348 7.78906 155.418 7.70703 155.559 7.70703C155.652 7.70703 155.734 7.71875 155.805 7.74219C156.227 7.85938 156.742 7.91797 157.352 7.91797H157.809L171.52 7.03906C172.059 6.99219 172.586 6.88672 173.102 6.72266C173.148 6.69922 173.23 6.6875 173.348 6.6875C173.652 6.6875 174.051 6.92187 174.543 7.39062C175.059 7.85938 175.316 8.21094 175.316 8.44531C175.316 8.72656 175.023 8.89062 174.438 8.9375L158.512 9.88672ZM148.949 34.6719C148.949 34.4609 149.219 34.2031 149.758 33.8984C151.82 32.7031 153.543 31.4023 154.926 29.9961C156.332 28.5898 157.492 26.9141 158.406 24.9688C159.32 23 160.059 20.6211 160.621 17.832L154.469 18.1484C154.141 18.1719 153.742 18.1836 153.273 18.1836C152.969 18.1836 152.723 18.1602 152.535 18.1133C152.348 18.0664 152.172 17.9609 152.008 17.7969C151.703 17.4922 151.469 17.1641 151.305 16.8125C151.141 16.4609 151.059 16.2266 151.059 16.1094C151.059 15.9688 151.164 15.8984 151.375 15.8984H151.586C152.031 16.0391 152.57 16.1094 153.203 16.1094H153.555L175.738 14.9844C176.324 14.9375 176.863 14.832 177.355 14.668C177.496 14.6211 177.59 14.5977 177.637 14.5977C177.918 14.5977 178.328 14.832 178.867 15.3008C179.406 15.7695 179.676 16.1562 179.676 16.4609C179.676 16.7188 179.395 16.8711 178.832 16.918L169.199 17.4102L168.988 29.5391V29.6445C168.988 30.2305 169.129 30.6641 169.41 30.9453C169.691 31.2031 170.09 31.3672 170.605 31.4375C171.145 31.5078 171.918 31.543 172.926 31.543C174.332 31.543 175.574 31.4258 176.652 31.1914C177.051 31.1211 177.379 30.8984 177.637 30.5234C177.895 30.1484 178.141 29.4922 178.375 28.5547C178.609 27.6172 178.855 26.2344 179.113 24.4062C179.184 23.9375 179.277 23.5742 179.395 23.3164C179.535 23.0352 179.676 22.8945 179.816 22.8945C180.074 22.8945 180.227 23.1758 180.273 23.7383C180.344 24.3008 180.379 25.0625 180.379 26.0234C180.379 27.5 180.309 29.0117 180.168 30.5586C180.098 31.332 179.887 31.9414 179.535 32.3867C179.207 32.8555 178.539 33.2188 177.531 33.4766C176.547 33.7578 175.082 33.8984 173.137 33.8984C171.777 33.8984 170.664 33.8281 169.797 33.6875C168.93 33.5703 168.191 33.2305 167.582 32.668C166.973 32.1289 166.668 31.2617 166.668 30.0664V29.9609L166.879 17.5156L163.152 17.7266C162.215 22.5078 160.715 26.2344 158.652 28.9062C156.613 31.5547 153.742 33.4883 150.039 34.707C149.758 34.8008 149.5 34.8477 149.266 34.8477C149.055 34.8477 148.949 34.7891 148.949 34.6719ZM246.121 14.3867C245.957 14.3867 245.781 14.2812 245.594 14.0703C245.453 13.9063 245.359 13.7773 245.312 13.6836C245.266 13.5664 245.266 13.4141 245.312 13.2266L245.348 12.3828C245.371 12.2188 245.383 11.8203 245.383 11.1875V10.0273L244.328 10.5195L243.098 11.0469C242.793 11.1641 242.477 11.3047 242.148 11.4688C241.867 11.6094 241.621 11.6797 241.41 11.6797C241.246 11.6563 241.059 11.5977 240.848 11.5039C240.637 11.4102 240.473 11.3281 240.355 11.2578C240.098 11.0938 239.98 10.918 240.004 10.7305L240.109 10.3789C240.109 10.1914 240.121 10.0273 240.145 9.88672L240.18 7.84766V5.94922C240.18 5.57422 240.156 5.25781 240.109 5C240.062 4.71875 240.027 4.51953 240.004 4.40234C240.004 4.28516 240.039 4.20313 240.109 4.15625C240.133 4.13281 240.191 4.12109 240.285 4.12109C240.449 4.12109 240.766 4.22656 241.234 4.4375C241.633 4.625 241.797 4.85938 241.727 5.14062C241.68 5.30469 241.633 5.55078 241.586 5.87891L241.48 9.92188C241.48 10.0391 241.492 10.1328 241.516 10.2031C241.562 10.25 241.609 10.2734 241.656 10.2734C241.938 10.2734 242.277 10.1914 242.676 10.0273C243.426 9.79297 244.07 9.55859 244.609 9.32422L245.383 9.00781V6.6875C245.383 5.75 245.324 4.84766 245.207 3.98047C245.184 3.91016 245.172 3.82812 245.172 3.73438C245.172 3.5 245.266 3.38281 245.453 3.38281C245.477 3.38281 245.605 3.42969 245.84 3.52344C246.191 3.71094 246.449 3.875 246.613 4.01562C246.777 4.15625 246.871 4.23828 246.895 4.26172C246.988 4.33203 247.035 4.40234 247.035 4.47266C247.035 4.51953 247.012 4.57812 246.965 4.64844C246.941 4.71875 246.918 4.77734 246.895 4.82422L246.789 5.87891L246.754 9.11328L246.789 12.2422C246.789 12.7813 246.754 13.25 246.684 13.6484C246.566 14.1406 246.379 14.3867 246.121 14.3867ZM239.652 20.1523C239.395 20.1523 239.078 19.9531 238.703 19.5547C238.422 19.2734 238.281 19.0625 238.281 18.9219C238.281 18.8516 238.328 18.8164 238.422 18.8164C238.516 18.793 238.633 18.7812 238.773 18.7812L239.547 18.7461C239.992 18.7461 240.285 18.7344 240.426 18.7109C240.871 18.7109 241.246 18.6992 241.551 18.6758C243.566 18.4883 244.926 18.3359 245.629 18.2188C245.98 18.1719 246.297 18.125 246.578 18.0781C246.859 18.0078 247.082 17.9727 247.246 17.9727C247.574 17.9727 247.902 18.1367 248.23 18.4648C248.488 18.7227 248.617 18.9336 248.617 19.0977C248.617 19.2383 248.535 19.332 248.371 19.3789C248.254 19.4023 247.562 19.4492 246.297 19.5195C245.594 19.543 244.727 19.6016 243.695 19.6953C242.664 19.7891 241.762 19.8828 240.988 19.9766C240.848 20 240.648 20.0352 240.391 20.082C240.133 20.1289 239.887 20.1523 239.652 20.1523ZM244.363 34.6719C243.637 34.6719 243.074 34.6484 242.676 34.6016C242.301 34.5547 241.984 34.4141 241.727 34.1797C241.281 33.8516 240.977 33.1367 240.812 32.0352L240.707 30.9102C240.707 30.6289 240.684 30.2773 240.637 29.8555C240.262 29.9023 239.992 29.9492 239.828 29.9961C239.781 30.0195 239.699 30.0547 239.582 30.1016C239.488 30.125 239.418 30.1367 239.371 30.1367C239.207 30.1367 239.055 30.0898 238.914 29.9961C238.773 29.9023 238.598 29.7266 238.387 29.4688C238.223 29.2578 238.141 29.1172 238.141 29.0469C238.141 28.9766 238.223 28.9297 238.387 28.9062C238.551 28.8828 238.773 28.8711 239.055 28.8711C239.453 28.8711 239.969 28.8242 240.602 28.7305L240.566 28.2383C240.566 27.3008 240.508 26.5039 240.391 25.8477L240.355 25.6016C240.355 25.2734 240.484 25.1445 240.742 25.2148C241.023 25.3086 241.281 25.4258 241.516 25.5664C241.703 25.6602 241.832 25.7539 241.902 25.8477C241.973 25.918 241.996 26.0234 241.973 26.1641L241.867 27.6758V28.5898L244.961 28.2734C244.961 28.1094 244.973 27.7227 244.996 27.1133C245.02 26.4805 245.02 26.0703 244.996 25.8828C244.996 25.6953 244.973 25.5195 244.926 25.3555C244.902 25.168 244.879 25.0156 244.855 24.8984C244.855 24.7109 244.949 24.6172 245.137 24.6172C245.324 24.6172 245.559 24.7227 245.84 24.9336C246.168 25.1445 246.379 25.332 246.473 25.4961C246.59 25.6602 246.613 25.8594 246.543 26.0938C246.426 26.4688 246.344 26.8906 246.297 27.3594C246.25 27.8281 246.227 28.1094 246.227 28.2031C246.508 28.1797 246.766 28.1445 247 28.0977C247.234 28.0508 247.387 28.0273 247.457 28.0273C247.645 27.9805 247.867 27.957 248.125 27.957C248.266 27.9805 248.465 28.1211 248.723 28.3789C248.934 28.6602 249.039 28.8828 249.039 29.0469C249.039 29.2812 248.816 29.375 248.371 29.3281C247.973 29.2578 247.574 29.2227 247.176 29.2227C246.777 29.2227 246.438 29.2344 246.156 29.2578C246.086 30.1016 245.945 30.9336 245.734 31.7539C245.688 31.9414 245.605 32.0938 245.488 32.2109C245.371 32.3516 245.266 32.4219 245.172 32.4219C245.008 32.4219 244.902 32.3516 244.855 32.2109C244.832 32.0938 244.82 31.8945 244.82 31.6133C244.867 31.0039 244.891 30.2422 244.891 29.3281C244.258 29.375 243.766 29.4219 243.414 29.4688C242.875 29.5859 242.371 29.6562 241.902 29.6797C241.879 30.6406 241.926 31.4961 242.043 32.2461C242.113 32.7383 242.254 33.0781 242.465 33.2656C242.605 33.3828 242.77 33.4531 242.957 33.4766C243.168 33.5 243.379 33.5117 243.59 33.5117C243.801 33.5117 243.941 33.5117 244.012 33.5117C244.738 33.5117 245.418 33.4766 246.051 33.4062C246.238 33.3828 246.402 33.3359 246.543 33.2656C246.707 33.1953 246.824 33.1602 246.895 33.1602C247.105 33.1602 247.316 33.2305 247.527 33.3711C247.738 33.5117 247.844 33.6758 247.844 33.8633C247.844 34.0508 247.738 34.1914 247.527 34.2852C247.34 34.3789 247.035 34.4609 246.613 34.5312C245.863 34.625 245.113 34.6719 244.363 34.6719ZM254.383 18.6758C254.664 18.6758 254.805 18.8047 254.805 19.0625C254.805 19.2031 254.676 19.4023 254.418 19.6602C253.715 20.5273 252.32 22.1797 250.234 24.6172C250.07 24.8281 249.918 24.9336 249.777 24.9336C249.66 24.9336 249.402 24.7578 249.004 24.4062C248.676 24.125 248.512 23.8906 248.512 23.7031C248.512 23.4922 248.688 23.293 249.039 23.1055C249.578 22.8008 250.387 22.1914 251.465 21.2773C252.543 20.3164 253.34 19.5547 253.855 18.9922C254.066 18.7812 254.242 18.6758 254.383 18.6758ZM209.699 30.1719C211.785 29.5156 213.648 28.8008 215.289 28.0273C214.938 27.5352 214.492 26.9727 213.953 26.3398C213.766 26.1055 213.672 25.918 213.672 25.7773C213.672 25.5195 213.824 25.2969 214.129 25.1094C214.434 24.8984 214.668 24.793 214.832 24.793C215.02 24.793 215.219 24.9102 215.43 25.1445C216.766 26.7148 217.902 28.0977 218.84 29.293C219.777 30.4883 220.246 31.2148 220.246 31.4727C220.246 31.6836 220.082 31.9297 219.754 32.2109C219.449 32.5156 219.156 32.668 218.875 32.668C218.641 32.668 218.406 32.4805 218.172 32.1055C217.633 31.2852 217.023 30.3945 216.344 29.4336L212.125 31.543C211.656 31.7539 210.918 32.1289 209.91 32.668C209.066 33.1133 208.551 33.3359 208.363 33.3359C208.223 33.3359 208.047 33.2422 207.836 33.0547C207.625 32.8906 207.461 32.6797 207.344 32.4219C207.25 32.1875 207.25 32 207.344 31.8594C207.484 31.6016 207.555 30.5703 207.555 28.7656V16.6016C207.555 16.0391 207.531 15.582 207.484 15.2305C207.461 14.8789 207.367 14.5039 207.203 14.1055C207.18 14.0352 207.156 13.9766 207.133 13.9297C207.109 13.8828 207.098 13.8359 207.098 13.7891C207.098 13.6719 207.18 13.6133 207.344 13.6133C207.648 13.6133 208.41 13.8711 209.629 14.3867L217.258 13.8594C217.445 13.8359 217.656 13.8242 217.891 13.8242C218.148 13.8242 218.453 13.9414 218.805 14.1758C219.156 14.3867 219.332 14.6211 219.332 14.8789C219.332 14.9727 219.273 15.1133 219.156 15.3008C219.062 15.4883 219.016 15.6289 219.016 15.7227L218.102 22.332C218.664 22.9883 218.945 23.4336 218.945 23.668C218.945 23.7852 218.875 23.8672 218.734 23.9141C218.617 23.9609 218.43 23.9844 218.172 23.9844L209.664 24.3008L209.699 30.1719ZM203.934 14.3867C203.934 14.1523 204.086 13.8711 204.391 13.543C206.102 11.6445 207.59 9.75781 208.855 7.88281C210.121 6.00781 210.754 4.75391 210.754 4.12109L210.719 3.875V3.76953C210.719 3.44141 210.848 3.27734 211.105 3.27734C211.41 3.27734 211.832 3.48828 212.371 3.91016C212.934 4.30859 213.215 4.63672 213.215 4.89453C213.215 5.01172 213.156 5.16406 213.039 5.35156C212.688 5.91406 212.301 6.47656 211.879 7.03906L216.871 6.65234C217.293 6.62891 217.738 6.53516 218.207 6.37109C218.348 6.32422 218.453 6.30078 218.523 6.30078C218.875 6.30078 219.25 6.5 219.648 6.89844C220.07 7.27344 220.281 7.56641 220.281 7.77734C220.281 8.05859 220.023 8.22266 219.508 8.26953L213.496 8.69141C213.66 8.73828 214.023 8.98438 214.586 9.42969C215.172 9.875 215.699 10.332 216.168 10.8008C216.637 11.2695 216.871 11.5977 216.871 11.7852C216.871 11.9961 216.73 12.2539 216.449 12.5586C216.168 12.8398 215.922 12.9805 215.711 12.9805C215.523 12.9805 215.301 12.8281 215.043 12.5234C214.246 11.6563 213.438 10.8945 212.617 10.2383C212.336 10.0039 212.195 9.80469 212.195 9.64062C212.195 9.52344 212.254 9.37109 212.371 9.18359C212.488 8.99609 212.641 8.84375 212.828 8.72656L210.473 8.90234C209.348 10.2852 208.105 11.5859 206.746 12.8047C205.387 14 204.52 14.5977 204.145 14.5977C204.004 14.5977 203.934 14.5273 203.934 14.3867ZM216.59 18.043L216.836 15.582L209.594 16.0742V18.3945L216.59 18.043ZM216.133 22.4023L216.414 19.6953L209.629 20.0117V22.6484L216.133 22.4023ZM218.031 12.875C218.031 12.6406 218.184 12.3594 218.488 12.0312C219.637 10.6484 220.68 9.08984 221.617 7.35547C222.578 5.59766 223.059 4.36719 223.059 3.66406V3.52344C223.059 3.17188 223.188 2.99609 223.445 2.99609C223.609 2.99609 223.855 3.08984 224.184 3.27734C224.535 3.44141 224.852 3.64063 225.133 3.875C225.414 4.10937 225.555 4.34375 225.555 4.57812C225.555 4.78906 225.391 5.16406 225.062 5.70312C224.734 6.24219 224.559 6.52344 224.535 6.54688L231.461 5.98438C231.977 5.9375 232.422 5.85547 232.797 5.73828C232.844 5.71484 232.938 5.70312 233.078 5.70312C233.406 5.70312 233.758 5.89063 234.133 6.26562C234.531 6.61719 234.73 6.91016 234.73 7.14453C234.73 7.28516 234.66 7.40234 234.52 7.49609C234.402 7.56641 234.238 7.61328 234.027 7.63672L226.891 8.12891C227.547 8.55078 228.32 9.17187 229.211 9.99219C230.102 10.7891 230.547 11.3281 230.547 11.6094C230.547 11.7734 230.418 12.0312 230.16 12.3828C229.902 12.7109 229.656 12.875 229.422 12.875C229.234 12.875 229.035 12.7578 228.824 12.5234C227.676 11.2812 226.633 10.2969 225.695 9.57031C225.461 9.38281 225.344 9.20703 225.344 9.04297C225.344 8.85547 225.52 8.57422 225.871 8.19922L223.27 8.375C222.496 9.40625 221.559 10.4492 220.457 11.5039C219.379 12.5586 218.652 13.0859 218.277 13.0859C218.113 13.0859 218.031 13.0156 218.031 12.875ZM221.336 13.6484C221.336 13.5078 221.418 13.4375 221.582 13.4375C221.934 13.4375 222.73 13.7305 223.973 14.3164L231.039 13.7188L231.32 13.6836C231.414 13.6836 231.59 13.7305 231.848 13.8242C232.129 13.8945 232.387 14.0234 232.621 14.2109C232.879 14.375 233.008 14.5977 233.008 14.8789C233.008 14.9727 232.973 15.1016 232.902 15.2656C232.832 15.4297 232.797 15.5469 232.797 15.6172C232.773 18.1953 232.609 20.9492 232.305 23.8789L232.234 24.7578C232.164 25.7422 232.07 26.5625 231.953 27.2188C231.836 27.875 231.637 28.3906 231.355 28.7656C230.91 29.375 230.43 29.6797 229.914 29.6797C229.398 29.6797 228.742 29.3633 227.945 28.7305C227.148 28.0977 226.41 27.4062 225.73 26.6562C225.074 25.9062 224.746 25.4258 224.746 25.2148C224.746 25.0508 224.84 24.9688 225.027 24.9688C225.238 24.9688 225.531 25.0859 225.906 25.3203C226.773 25.8594 227.5 26.293 228.086 26.6211C228.672 26.9492 229.094 27.1133 229.352 27.1133C229.469 27.1133 229.551 27.0312 229.598 26.8672C230.137 23.8672 230.465 20.1055 230.582 15.582L223.973 16.0742C223.973 20.0352 224.008 26.3164 224.078 34.918C224.078 35.1289 224.02 35.2812 223.902 35.375C223.809 35.4922 223.68 35.5508 223.516 35.5508C223.328 35.5508 223.105 35.4805 222.848 35.3398C222.402 35.1523 222.086 34.9766 221.898 34.8125C221.711 34.6484 221.617 34.4609 221.617 34.25L221.652 34.0039C221.793 33.2305 221.863 32.3633 221.863 31.4023L221.758 16.5664C221.758 15.957 221.734 15.4883 221.688 15.1602C221.664 14.832 221.594 14.5156 221.477 14.2109C221.383 13.9297 221.336 13.7422 221.336 13.6484Z" fill="#333333"/>
<path d="M167.562 70.25C167.854 70.5 168 70.9062 168 71.4688C167.958 71.7812 167.823 71.9271 167.594 71.9062C167.323 71.9271 166.99 71.7604 166.594 71.4062C166.427 71.2188 166.083 70.9271 165.562 70.5312C165.062 70.1146 164.615 69.7812 164.219 69.5312C163.615 70.0729 162.885 70.5938 162.031 71.0938C161.198 71.5938 160.531 71.8438 160.031 71.8438C159.823 71.8438 159.719 71.7812 159.719 71.6562C159.719 71.6146 159.958 71.4479 160.438 71.1562C161 70.8438 161.552 70.4792 162.094 70.0625C162.615 69.6667 163.042 69.3021 163.375 68.9688L162.656 68.5625C162.177 68.25 161.865 68.0625 161.719 68C161.094 67.6042 160.781 67.3542 160.781 67.25C160.781 67.1875 160.885 67.1562 161.094 67.1562C161.26 67.1354 161.646 67.2604 162.25 67.5312L164 68.3438L164.469 67.8438C164.531 67.7604 164.604 67.6771 164.688 67.5938C164.771 67.5104 164.854 67.4167 164.938 67.3125C165.25 66.9167 165.5 66.5833 165.688 66.3125C165.896 66.0208 166.01 65.8021 166.031 65.6562C166.031 65.5729 165.958 65.5312 165.812 65.5312C165.604 65.5312 165.156 65.5833 164.469 65.6875L163.719 65.7812C163.135 65.8646 162.646 65.9583 162.25 66.0625C162.021 66.1042 161.823 66.1667 161.656 66.25C161.594 66.2708 161.5 66.2812 161.375 66.2812C161.25 66.2812 161.156 66.2812 161.094 66.2812C161.031 66.2604 160.979 66.2188 160.938 66.1562C160.896 66.1146 160.833 66.0417 160.75 65.9375C160.646 65.7708 160.594 65.6354 160.594 65.5312C160.594 65.4896 160.677 65.3854 160.844 65.2188L161.438 64.5312C161.583 64.3438 161.76 64.0521 161.969 63.6562C162.177 63.2396 162.292 62.9167 162.312 62.6875C162.312 62.625 162.354 62.5938 162.438 62.5938C162.625 62.5938 162.844 62.6979 163.094 62.9062C163.198 62.9896 163.281 63.0833 163.344 63.1875C163.427 63.2917 163.469 63.375 163.469 63.4375C163.469 63.5208 163.417 63.6146 163.312 63.7188C163.208 63.8229 162.969 64.1354 162.594 64.6562L162.156 65.2188L163.969 64.9062C164.74 64.8438 165.312 64.7604 165.688 64.6562L166.156 64.5938C166.26 64.5729 166.385 64.5625 166.531 64.5625C166.677 64.5625 166.917 64.7188 167.25 65.0312C167.375 65.1354 167.458 65.2292 167.5 65.3125C167.562 65.375 167.594 65.4479 167.594 65.5312C167.594 65.6146 167.573 65.6979 167.531 65.7812C167.49 65.8438 167.448 65.9062 167.406 65.9688C167.198 66.1771 166.896 66.5625 166.5 67.125C166.167 67.6042 165.677 68.1875 165.031 68.875L165.812 69.25C166.812 69.75 167.396 70.0833 167.562 70.25ZM167.188 82.2188C166.875 82.2188 166.573 81.9896 166.281 81.5312C165.906 80.9479 165.542 80.4688 165.188 80.0938L164.375 79.25C163.938 79.75 163.552 80.1458 163.219 80.4375C162.906 80.7292 162.51 81.0104 162.031 81.2812C161.135 81.8021 160.385 82.0625 159.781 82.0625C159.635 82.0625 159.562 82.0104 159.562 81.9062C159.562 81.8438 159.76 81.7083 160.156 81.5C160.552 81.2917 160.927 81.0417 161.281 80.75C162.177 80 162.917 79.2292 163.5 78.4375C163.375 78.3125 162.75 77.7708 161.625 76.8125C161.479 76.7083 161.26 76.5312 160.969 76.2812C160.906 76.2396 160.781 76.1458 160.594 76C160.406 75.8542 160.312 75.75 160.312 75.6875C160.312 75.5833 160.365 75.5312 160.469 75.5312C160.781 75.5312 161.281 75.75 161.969 76.1875C162.656 76.6042 163.375 77.1042 164.125 77.6875C164.417 77.3333 164.646 77 164.812 76.6875C164.979 76.375 165.167 75.9896 165.375 75.5312C165.479 75.3021 165.542 75.1042 165.562 74.9375C165.583 74.75 165.594 74.6354 165.594 74.5938C165.594 74.3646 165.656 74.25 165.781 74.25C165.927 74.25 166.125 74.3646 166.375 74.5938C166.812 75.0104 167.031 75.2917 167.031 75.4375C167.031 75.5208 166.979 75.6146 166.875 75.7188C166.625 75.9688 166.396 76.3021 166.188 76.7188C166.062 76.9688 165.833 77.3229 165.5 77.7812C165.396 77.9062 165.312 78.0208 165.25 78.125C165.188 78.2292 165.125 78.3229 165.062 78.4062C165.542 78.7604 166.25 79.3646 167.188 80.2188C167.417 80.4271 167.562 80.625 167.625 80.8125C167.708 80.9792 167.75 81.2083 167.75 81.5C167.75 81.7083 167.698 81.8854 167.594 82.0312C167.49 82.1562 167.354 82.2188 167.188 82.2188ZM173.688 70.7812C173.75 70.7812 173.812 70.8125 173.875 70.875C173.938 70.9167 173.979 70.9792 174 71.0625V71.125C174 71.2708 173.885 71.5521 173.656 71.9688L171.406 75.875C171.24 76.2292 171.021 76.4062 170.75 76.4062C170.479 76.4062 170.25 76.2396 170.062 75.9062C169.875 75.6354 169.646 75.2292 169.375 74.6875C169.25 74.5 169.146 74.3125 169.062 74.125C168.979 73.9375 168.917 73.8021 168.875 73.7188C168.646 73.3229 168.531 73.0417 168.531 72.875C168.531 72.7917 168.562 72.7292 168.625 72.6875C168.688 72.625 168.75 72.5938 168.812 72.5938C169.042 72.5938 169.25 72.7188 169.438 72.9688C169.583 73.1146 169.698 73.2708 169.781 73.4375L170.125 73.9062L170.75 74.625L171.031 74.1875C171.323 73.6875 172.01 72.6979 173.094 71.2188C173.323 70.9271 173.521 70.7812 173.688 70.7812ZM137.5 86.7188V86.875C137.5 87.3333 137.354 87.5625 137.062 87.5625C136.833 87.5625 136.51 87.4375 136.094 87.1875C135.677 86.9583 135.469 86.6875 135.469 86.375L135.5 86.125C135.542 85.625 135.562 85.1979 135.562 84.8438V84.2812L135.156 77.6875C135.135 77.3542 135.104 77.0833 135.062 76.875C135.021 76.6667 134.938 76.4375 134.812 76.1875C134.688 75.9375 134.625 75.7604 134.625 75.6562C134.625 75.5312 134.708 75.4688 134.875 75.4688C135.208 75.4688 135.917 75.6875 137 76.125L148.875 75.5625H149.156C149.552 75.5625 149.885 75.6979 150.156 75.9688C150.448 76.2188 150.594 76.4479 150.594 76.6562C150.594 76.7396 150.562 76.8438 150.5 76.9688C150.458 77.0729 150.427 77.1562 150.406 77.2188L149.719 83.875C150.219 84.5625 150.469 85.0521 150.469 85.3438C150.469 85.4896 150.417 85.5833 150.312 85.625C150.208 85.6667 150.083 85.6875 149.938 85.6875C149.812 85.7083 149.729 85.7188 149.688 85.7188L137.469 86.0312L137.5 86.7188ZM128.5 72.75C128.5 72.625 128.573 72.5625 128.719 72.5625C128.802 72.5625 128.865 72.5729 128.906 72.5938C129.323 72.6979 129.833 72.75 130.438 72.75H130.781L139.312 72.2812L139.094 65.75L133.938 66.0312C133.792 66.0521 133.615 66.0729 133.406 66.0938C133.219 66.1146 132.99 66.125 132.719 66.125C131.99 66.125 131.417 65.6667 131 64.75C130.958 64.6667 130.938 64.6042 130.938 64.5625C130.938 64.4375 131.021 64.375 131.188 64.375C131.271 64.375 131.344 64.3854 131.406 64.4062C131.76 64.4896 132.156 64.5312 132.594 64.5312L133.125 64.5L142.875 63.9375C143.729 63 144.469 62.0625 145.094 61.125C145.719 60.1875 146.062 59.3958 146.125 58.75C146.167 58.4375 146.271 58.2812 146.438 58.2812C146.562 58.2812 146.781 58.375 147.094 58.5625C147.427 58.75 147.729 58.9688 148 59.2188C148.271 59.4688 148.406 59.6979 148.406 59.9062C148.406 60.0312 148.375 60.125 148.312 60.1875C147.292 61.4583 146.167 62.6667 144.938 63.8125L150.438 63.5C150.938 63.4583 151.469 63.3542 152.031 63.1875C152.198 63.1458 152.312 63.125 152.375 63.125C152.646 63.125 153 63.3125 153.438 63.6875C153.896 64.0625 154.125 64.3542 154.125 64.5625C154.125 64.7708 153.917 64.8958 153.5 64.9375L145.875 65.375L145.75 71.9375L153.156 71.5312C153.781 71.4896 154.312 71.4062 154.75 71.2812C154.917 71.2396 155.031 71.2188 155.094 71.2188C155.406 71.2188 155.844 71.4792 156.406 72C156.719 72.3125 156.875 72.5625 156.875 72.75C156.875 72.9583 156.688 73.0833 156.312 73.125H156.219L131.469 74.375L130.438 74.4062C129.875 74.4062 129.479 74.2917 129.25 74.0625C129.146 73.9583 128.99 73.7708 128.781 73.5C128.594 73.2083 128.5 72.9583 128.5 72.75ZM133.562 67.4688C133.562 67.3229 133.677 67.1458 133.906 66.9375C134.156 66.7292 134.385 66.625 134.594 66.625C134.781 66.625 135.01 66.7708 135.281 67.0625C135.552 67.3333 136.083 67.9792 136.875 69C137.688 70 138.094 70.6562 138.094 70.9688C138.094 71.1771 137.938 71.4062 137.625 71.6562C137.333 71.8854 137.094 72 136.906 72C136.677 72 136.458 71.8021 136.25 71.4062C135.958 70.8438 135.583 70.25 135.125 69.625C134.667 68.9792 134.229 68.4271 133.812 67.9688C133.646 67.7604 133.562 67.5938 133.562 67.4688ZM136.375 60.125C136.375 60 136.469 59.8125 136.656 59.5625C136.865 59.2917 137.073 59.1562 137.281 59.1562C137.49 59.1562 137.677 59.2292 137.844 59.375C138.302 59.7083 139.031 60.3021 140.031 61.1562C141.031 61.9896 141.531 62.5417 141.531 62.8125C141.531 62.875 141.469 63.0104 141.344 63.2188C141.24 63.4062 141.094 63.5833 140.906 63.75C140.74 63.8958 140.562 63.9688 140.375 63.9688C140.125 63.9688 139.917 63.8542 139.75 63.625C138.75 62.3958 137.719 61.375 136.656 60.5625C136.469 60.4167 136.375 60.2708 136.375 60.125ZM137.156 80.0312L148.156 79.625L148.344 77.1562L137.031 77.6562L137.156 80.0312ZM137.375 84.375L147.844 84.0625L148.062 81.1875L137.25 81.625L137.375 84.375ZM141.219 72.1875L143.875 72.0312L144 65.4688L141.031 65.625L141.219 72.1875ZM146.562 71.4688C146.562 71.3021 146.729 71.0208 147.062 70.625C147.188 70.5 147.458 70.1562 147.875 69.5938C148.312 69.0312 148.719 68.3958 149.094 67.6875C149.49 66.9792 149.688 66.3438 149.688 65.7812C149.688 65.5521 149.771 65.4375 149.938 65.4375C150.229 65.4375 150.594 65.6458 151.031 66.0625C151.469 66.4792 151.688 66.8125 151.688 67.0625C151.688 67.25 151.333 67.7292 150.625 68.5C149.938 69.2708 149.198 69.9896 148.406 70.6562C147.635 71.3229 147.083 71.6562 146.75 71.6562C146.625 71.6562 146.562 71.5938 146.562 71.4688ZM212.344 72.2812C212.01 72.2812 211.812 72.1146 211.75 71.7812C211.625 71.4271 211.292 70.9896 210.75 70.4688L210.844 70.3438C210.927 70.3854 211.167 70.4896 211.562 70.6562C211.958 70.8021 212.229 70.875 212.375 70.875C212.5 70.875 212.594 70.875 212.656 70.875C212.719 70.8542 212.792 70.8021 212.875 70.7188C213.125 70.5312 213.438 70.1042 213.812 69.4375C214.083 68.8958 214.323 68.2604 214.531 67.5312C214.76 66.8021 214.875 66.25 214.875 65.875C214.875 65.7708 214.792 65.7188 214.625 65.7188L213.438 65.7812L212.625 65.8438L212.094 65.875L211.875 65.9062C212.021 66.0104 212.115 66.1042 212.156 66.1875C212.219 66.25 212.25 66.3333 212.25 66.4375C212.25 66.5417 212.125 66.8333 211.875 67.3125C211.667 67.7708 211.333 68.2917 210.875 68.875C210.5 69.375 209.99 69.9167 209.344 70.5C208.719 71.0625 208.25 71.3542 207.938 71.375C207.875 71.375 207.812 71.3646 207.75 71.3438C207.708 71.3021 207.688 71.25 207.688 71.1875C207.688 71.1667 207.854 70.9688 208.188 70.5938L209.062 69.5625C209.688 68.7292 210.323 67.6667 210.969 66.375C211.031 66.2083 211 66.1146 210.875 66.0938C210.75 66.1146 210.49 66.1458 210.094 66.1875C209.698 66.2083 209.344 66.2708 209.031 66.375C209.01 66.375 208.938 66.4062 208.812 66.4688C208.688 66.5104 208.583 66.5312 208.5 66.5312C208.375 66.5312 208.271 66.4896 208.188 66.4062L207.938 66.1875C207.75 66.0417 207.656 65.9062 207.656 65.7812C207.656 65.7396 207.677 65.6771 207.719 65.5938L207.875 65.3438C207.958 65.2396 208.094 65.0729 208.281 64.8438C208.469 64.6146 208.677 64.3021 208.906 63.9062C208.948 63.8229 209.031 63.6354 209.156 63.3438C209.302 63.0521 209.375 62.875 209.375 62.8125V62.6875C209.375 62.5625 209.396 62.4792 209.438 62.4375C209.479 62.3958 209.573 62.3958 209.719 62.4375C209.865 62.4792 210.042 62.5938 210.25 62.7812L210.594 63.125C210.656 63.1875 210.688 63.2604 210.688 63.3438C210.688 63.5521 210.396 63.9271 209.812 64.4688C209.708 64.5729 209.583 64.7292 209.438 64.9375C209.292 65.1458 209.219 65.2812 209.219 65.3438C209.219 65.4688 209.312 65.5104 209.5 65.4688L210.219 65.375C211.865 65.125 213.104 64.9792 213.938 64.9375L214.781 64.8125L215.062 64.75L215.219 64.7188C215.385 64.7188 215.5 64.7396 215.562 64.7812C215.625 64.8229 215.688 64.8958 215.75 65C215.812 65.0833 215.875 65.1562 215.938 65.2188C216.083 65.3854 216.188 65.5312 216.25 65.6562L216.312 65.9375L216.25 66.0625L216.188 66.25C216.146 66.3542 216.115 66.4583 216.094 66.5625C216.073 66.6458 216.042 66.7396 216 66.8438C215.562 68.5312 215.052 69.8438 214.469 70.7812C214.281 71.1146 213.958 71.4479 213.5 71.7812C213.062 72.1146 212.677 72.2812 212.344 72.2812ZM215.188 82.2188C214.875 82.2188 214.573 81.9896 214.281 81.5312C213.906 80.9479 213.542 80.4688 213.188 80.0938L212.375 79.25C211.938 79.75 211.552 80.1458 211.219 80.4375C210.906 80.7292 210.51 81.0104 210.031 81.2812C209.135 81.8021 208.385 82.0625 207.781 82.0625C207.635 82.0625 207.562 82.0104 207.562 81.9062C207.562 81.8438 207.76 81.7083 208.156 81.5C208.552 81.2917 208.927 81.0417 209.281 80.75C210.177 80 210.917 79.2292 211.5 78.4375C211.375 78.3125 210.75 77.7708 209.625 76.8125C209.479 76.7083 209.26 76.5312 208.969 76.2812C208.906 76.2396 208.781 76.1458 208.594 76C208.406 75.8542 208.312 75.75 208.312 75.6875C208.312 75.5833 208.365 75.5312 208.469 75.5312C208.781 75.5312 209.281 75.75 209.969 76.1875C210.656 76.6042 211.375 77.1042 212.125 77.6875C212.417 77.3333 212.646 77 212.812 76.6875C212.979 76.375 213.167 75.9896 213.375 75.5312C213.479 75.3021 213.542 75.1042 213.562 74.9375C213.583 74.75 213.594 74.6354 213.594 74.5938C213.594 74.3646 213.656 74.25 213.781 74.25C213.927 74.25 214.125 74.3646 214.375 74.5938C214.812 75.0104 215.031 75.2917 215.031 75.4375C215.031 75.5208 214.979 75.6146 214.875 75.7188C214.625 75.9688 214.396 76.3021 214.188 76.7188C214.062 76.9688 213.833 77.3229 213.5 77.7812C213.396 77.9062 213.312 78.0208 213.25 78.125C213.188 78.2292 213.125 78.3229 213.062 78.4062C213.542 78.7604 214.25 79.3646 215.188 80.2188C215.417 80.4271 215.562 80.625 215.625 80.8125C215.708 80.9792 215.75 81.2083 215.75 81.5C215.75 81.7083 215.698 81.8854 215.594 82.0312C215.49 82.1562 215.354 82.2188 215.188 82.2188ZM217.562 71.2188C217.667 71.2188 217.823 71.2917 218.031 71.4375C218.01 71.4792 218.052 71.5625 218.156 71.6875C218.26 71.7917 218.333 71.8646 218.375 71.9062C218.479 72.0104 218.583 72.1354 218.688 72.2812C218.812 72.4271 218.948 72.5833 219.094 72.75C219.469 73.1458 220.333 74.1771 221.688 75.8438C221.917 76.1771 222.031 76.375 222.031 76.4375C222.031 76.6458 221.906 76.75 221.656 76.75C221.51 76.75 221.354 76.6458 221.188 76.4375C220.792 76.0208 220.083 75.3646 219.062 74.4688C218.271 73.7396 217.552 73.1771 216.906 72.7812C216.594 72.6354 216.438 72.4688 216.438 72.2812C216.438 72.1354 216.594 71.9271 216.906 71.6562C217.198 71.3646 217.417 71.2188 217.562 71.2188ZM187.719 66.0938C187.719 68.5521 187.625 70.8438 187.438 72.9688C187.25 75.0729 186.823 77.2708 186.156 79.5625C185.49 81.8333 184.49 83.9271 183.156 85.8438C182.823 86.3438 182.542 86.5938 182.312 86.5938C182.188 86.5938 182.125 86.4896 182.125 86.2812C182.125 86.0521 182.198 85.7812 182.344 85.4688C183.115 83.7396 183.74 82.0833 184.219 80.5C184.698 78.8958 185.083 76.875 185.375 74.4375C185.688 71.9792 185.844 68.9583 185.844 65.375C185.844 64.9375 185.812 64.4896 185.75 64.0312C185.688 63.5521 185.594 63.1875 185.469 62.9375C185.323 62.6458 185.25 62.4583 185.25 62.375C185.25 62.25 185.344 62.1875 185.531 62.1875C185.802 62.1875 186.542 62.375 187.75 62.75L195.219 62.3438L195.188 62.2812C194.167 61.3021 193.146 60.4688 192.125 59.7812C191.875 59.5938 191.75 59.4167 191.75 59.25C191.771 59.0833 191.875 58.8854 192.062 58.6562C192.25 58.4062 192.427 58.2917 192.594 58.3125C192.698 58.3125 193.135 58.5417 193.906 59C194.677 59.4375 195.375 59.9062 196 60.4062C196.625 60.9062 196.927 61.3021 196.906 61.5938C196.906 61.7396 196.792 61.9583 196.562 62.25L200.625 62.0312C201 62.0104 201.427 61.9062 201.906 61.7188C201.948 61.6979 202.021 61.6875 202.125 61.6875C202.396 61.6875 202.729 61.875 203.125 62.25C203.542 62.625 203.75 62.8958 203.75 63.0625C203.75 63.3125 203.51 63.4583 203.031 63.5L187.719 64.375V66.0938ZM176.406 68.375C176.406 68.2083 176.5 68 176.688 67.75C176.896 67.4792 177.073 67.3438 177.219 67.3438C177.427 67.3438 177.958 67.625 178.812 68.1875C179.667 68.7292 180.75 69.5104 182.062 70.5312C182.396 70.7812 182.562 71 182.562 71.1875C182.562 71.4375 182.406 71.7083 182.094 72C181.802 72.2917 181.594 72.4375 181.469 72.4375C181.323 72.4375 181.104 72.3125 180.812 72.0625C179.292 70.6875 177.969 69.6458 176.844 68.9375C176.552 68.75 176.406 68.5625 176.406 68.375ZM176.562 84.2188C176.562 84.1146 176.646 84.0104 176.812 83.9062C177.292 83.5938 177.667 83.2188 177.938 82.7812C179.729 79.9271 181.25 77.1979 182.5 74.5938C182.812 73.9479 183.094 73.625 183.344 73.625C183.51 73.625 183.594 73.7708 183.594 74.0625C183.594 74.5208 183.24 75.6771 182.531 77.5312C181.844 79.3646 180.927 81.4271 179.781 83.7188C179.51 84.2604 179.281 84.6354 179.094 84.8438C178.927 85.0729 178.74 85.1875 178.531 85.1875H178.469C178.365 85.1667 178.156 85.1146 177.844 85.0312C177.552 84.9688 177.26 84.8646 176.969 84.7188C176.698 84.5729 176.562 84.4062 176.562 84.2188ZM178.281 61.4062C178.281 61.2604 178.396 61.0521 178.625 60.7812C178.812 60.5312 179 60.4062 179.188 60.4062C179.417 60.4062 179.938 60.7292 180.75 61.375C181.562 62.0208 182.333 62.7083 183.062 63.4375C183.812 64.1458 184.188 64.5938 184.188 64.7812C184.188 64.9688 184.062 65.1875 183.812 65.4375C183.5 65.7708 183.25 65.9375 183.062 65.9375C182.896 65.9375 182.667 65.7917 182.375 65.5C181.312 64.2917 180.094 63.125 178.719 62C178.427 61.7708 178.281 61.5729 178.281 61.4062ZM185.562 86.3125C185.562 86.2083 185.646 86.0938 185.812 85.9688C185.979 85.8438 186.229 85.7188 186.562 85.5938C189.354 84.5938 191.75 83.3333 193.75 81.8125C192.458 80.7708 191.625 80.0521 191.25 79.6562C190.875 79.2396 190.688 78.9583 190.688 78.8125C190.688 78.6042 190.781 78.4167 190.969 78.25C191.156 78.0625 191.354 77.9688 191.562 77.9688C191.771 77.9688 191.969 78.0625 192.156 78.25C193.24 79.25 194.219 80.0729 195.094 80.7188C196.365 79.5938 197.479 78.3438 198.438 76.9688L191.219 77.4688C191.052 77.4896 190.792 77.5 190.438 77.5C190.167 77.5 189.969 77.4688 189.844 77.4062C189.615 77.2604 189.406 77.0729 189.219 76.8438C189.031 76.6146 188.906 76.4062 188.844 76.2188C188.802 76.0521 188.781 75.9583 188.781 75.9375C188.781 75.8333 188.865 75.7812 189.031 75.7812H189.219C189.531 75.8438 189.958 75.875 190.5 75.875H190.75L199.188 75.3438L199.719 75.3125C200.073 75.3125 200.375 75.4479 200.625 75.7188C200.875 75.9896 201 76.2188 201 76.4062C201 76.5938 200.927 76.7604 200.781 76.9062C200.656 77.0521 200.583 77.1458 200.562 77.1875C199.458 78.9167 198.135 80.4375 196.594 81.75C198.885 83.2292 201.406 84.3438 204.156 85.0938C204.448 85.1979 204.594 85.3229 204.594 85.4688C204.594 85.6562 204.427 85.9271 204.094 86.2812C203.76 86.6562 203.469 86.8438 203.219 86.8438C203.115 86.8438 202.677 86.7083 201.906 86.4375C201.156 86.1875 200.177 85.7604 198.969 85.1562C197.781 84.5729 196.51 83.8125 195.156 82.875C192.74 84.625 189.958 85.8333 186.812 86.5C186.562 86.5625 186.344 86.5938 186.156 86.5938C185.969 86.5938 185.823 86.5625 185.719 86.5C185.615 86.4583 185.562 86.3958 185.562 86.3125ZM188 68.2188C188 68.0938 188.083 68.0312 188.25 68.0312H188.406C188.531 68.0312 188.76 68.0521 189.094 68.0938C189.427 68.1354 189.677 68.1562 189.844 68.1562H190.125L191.219 68.0625L191.188 66.8125C191.188 66.4583 191.156 66.1562 191.094 65.9062C191.052 65.6562 190.958 65.4375 190.812 65.25C190.75 65.1875 190.719 65.125 190.719 65.0625C190.719 64.9167 190.865 64.8438 191.156 64.8438C191.594 64.8438 192.01 64.9375 192.406 65.125C192.802 65.3125 193 65.5312 193 65.7812L193.062 67.9688L197.062 67.6875L197.156 65.8125V65.6875C197.156 65.2083 197.042 64.8229 196.812 64.5312C196.729 64.4062 196.688 64.3333 196.688 64.3125C196.688 64.2292 196.792 64.1875 197 64.1875C197.417 64.1875 197.865 64.2917 198.344 64.5C198.844 64.7083 199.094 65 199.094 65.375V65.4375L198.906 67.5938L200.625 67.4688C201.021 67.4271 201.427 67.3229 201.844 67.1562C201.885 67.1354 201.948 67.125 202.031 67.125C202.281 67.125 202.594 67.2917 202.969 67.625C203.365 67.9375 203.562 68.2292 203.562 68.5C203.562 68.75 203.365 68.8958 202.969 68.9375L198.781 69.1875L198.562 71.7812C199.083 72.3646 199.344 72.7708 199.344 73C199.344 73.1458 199.26 73.25 199.094 73.3125C198.948 73.375 198.708 73.4167 198.375 73.4375L193.188 73.7188V74.4062C193.188 74.5729 193.135 74.7083 193.031 74.8125C192.948 74.9167 192.833 74.9688 192.688 74.9688C192.375 74.9688 192.042 74.8229 191.688 74.5312C191.333 74.2396 191.156 73.9896 191.156 73.7812L191.188 73.625C191.292 73.0625 191.344 72.5938 191.344 72.2188V71.9062L191.281 69.6875L190.719 69.7188C190.219 69.7604 189.844 69.7812 189.594 69.7812C189.24 69.7812 188.938 69.6771 188.688 69.4688C188.458 69.2396 188.281 69 188.156 68.75C188.052 68.4792 188 68.3021 188 68.2188ZM193.125 72.125L196.812 71.9375L196.969 69.3125L193.094 69.5625L193.125 72.125Z" fill="#333333"/>
</svg>
