<svg width="350" height="88" viewBox="0 0 350 88" fill="none" xmlns="http://www.w3.org/2000/svg">
<path d="M131.582 14.457C131.23 14.457 130.914 14.3164 130.633 14.0352C130.281 13.7773 130.105 13.5781 130.105 13.4375C130.105 13.2734 130.375 13.1914 130.914 13.1914L132.637 13.0859L134.395 12.9102C134.441 12.5352 134.465 11.8203 134.465 10.7656C134.535 10.7656 134.172 10.8125 133.375 10.9062L132.707 11.0117C132.496 11.1055 132.309 11.1523 132.145 11.1523C132.004 11.1523 131.887 11.1055 131.793 11.0117C131.418 10.6836 131.23 10.4023 131.23 10.168V8.51562C131.23 8.35156 131.172 7.71875 131.055 6.61719L131.02 6.23047C131.02 6.04297 131.055 5.92578 131.125 5.87891C131.195 5.83203 131.324 5.83203 131.512 5.87891C132.215 6.06641 132.555 6.27734 132.531 6.51172L132.496 6.75781C132.449 7.08594 132.426 7.50781 132.426 8.02344C132.426 8.63281 132.438 9.01953 132.461 9.18359C132.508 9.65234 132.531 9.875 132.531 9.85156C132.555 9.94531 132.637 9.99219 132.777 9.99219C132.918 9.99219 133.199 9.95703 133.621 9.88672C134.066 9.79297 134.359 9.73437 134.5 9.71094V6.61719C134.5 5.75 134.465 5.16406 134.395 4.85938C134.348 4.625 134.324 4.49609 134.324 4.47266C134.324 4.30859 134.383 4.22656 134.5 4.22656C134.547 4.22656 134.711 4.27344 134.992 4.36719C135.438 4.57812 135.73 4.76563 135.871 4.92969C136.035 5.09375 136.094 5.26953 136.047 5.45703C135.977 5.69141 135.93 6.16016 135.906 6.86328C135.859 7.42578 135.812 8.33984 135.766 9.60547L136.961 9.57031C137.195 9.57031 137.371 9.55859 137.488 9.53516C137.605 9.51172 137.664 9.46484 137.664 9.39453C137.828 8.50391 137.934 7.73047 137.98 7.07422L138.016 6.65234C138.039 6.60547 138.039 6.52344 138.016 6.40625C138.016 6.28906 138.016 6.20703 138.016 6.16016L137.98 5.91406C137.98 5.70312 138.062 5.59766 138.227 5.59766C138.32 5.59766 138.52 5.69141 138.824 5.87891C138.895 5.92578 138.988 5.99609 139.105 6.08984C139.246 6.16016 139.34 6.24219 139.387 6.33594C139.434 6.40625 139.457 6.5 139.457 6.61719C139.457 6.75781 139.445 6.875 139.422 6.96875L139.035 8.9375L138.93 9.74609C138.836 10.2852 138.555 10.5781 138.086 10.625C137.945 10.6016 137.828 10.5664 137.734 10.5195C137.664 10.4727 137.605 10.4492 137.559 10.4492C137.277 10.4492 136.691 10.5078 135.801 10.625L135.766 12.8047L136.363 12.7695L136.926 12.7344C137.793 12.7344 138.438 12.6875 138.859 12.5938C139.047 12.5938 139.211 12.5703 139.352 12.5234L139.457 12.4883C139.691 12.4883 139.938 12.6523 140.195 12.9805C140.5 13.2852 140.652 13.5078 140.652 13.6484C140.652 13.8594 140.324 13.9297 139.668 13.8594L138.332 13.7891H136.574C136.223 13.7891 135.578 13.8359 134.641 13.9297C134.148 13.9297 133.703 13.9531 133.305 14C132.906 14.0469 132.531 14.1289 132.18 14.2461L131.582 14.457ZM139.211 23.668C138.859 23.668 138.52 23.4102 138.191 22.8945C137.77 22.2383 137.359 21.6992 136.961 21.2773L136.047 20.3281C135.555 20.8906 135.121 21.3359 134.746 21.6641C134.395 21.9922 133.949 22.3086 133.41 22.6133C132.402 23.1992 131.559 23.4922 130.879 23.4922C130.715 23.4922 130.633 23.4336 130.633 23.3164C130.633 23.2461 130.855 23.0938 131.301 22.8594C131.746 22.625 132.168 22.3438 132.566 22.0156C133.574 21.1719 134.406 20.3047 135.062 19.4141C134.922 19.2734 134.219 18.6641 132.953 17.5859C132.789 17.4688 132.543 17.2695 132.215 16.9883C132.145 16.9414 132.004 16.8359 131.793 16.6719C131.582 16.5078 131.477 16.3906 131.477 16.3203C131.477 16.2031 131.535 16.1445 131.652 16.1445C132.004 16.1445 132.566 16.3906 133.34 16.8828C134.113 17.3516 134.922 17.9141 135.766 18.5703C136.094 18.1719 136.352 17.7969 136.539 17.4453C136.727 17.0938 136.938 16.6602 137.172 16.1445C137.289 15.8867 137.359 15.6641 137.383 15.4766C137.406 15.2656 137.418 15.1367 137.418 15.0898C137.418 14.832 137.488 14.7031 137.629 14.7031C137.793 14.7031 138.016 14.832 138.297 15.0898C138.789 15.5586 139.035 15.875 139.035 16.0391C139.035 16.1328 138.977 16.2383 138.859 16.3555C138.578 16.6367 138.32 17.0117 138.086 17.4805C137.945 17.7617 137.688 18.1602 137.312 18.6758C137.195 18.8164 137.102 18.9453 137.031 19.0625C136.961 19.1797 136.891 19.2852 136.82 19.3789C137.359 19.7773 138.156 20.457 139.211 21.418C139.469 21.6523 139.633 21.875 139.703 22.0859C139.797 22.2734 139.844 22.5312 139.844 22.8594C139.844 23.0938 139.785 23.293 139.668 23.457C139.551 23.5977 139.398 23.668 139.211 23.668ZM131.441 34.1797C131.09 34.1797 130.82 34.0859 130.633 33.8984C130.422 33.6875 130.316 33.5 130.316 33.3359C130.316 33.1719 130.41 32.9961 130.598 32.8086C130.621 32.7852 130.75 32.5977 130.984 32.2461C131.5 31.4258 132.086 30.3828 132.742 29.1172C133.422 27.8281 133.844 26.9492 134.008 26.4805C134.148 26.0352 134.277 25.6484 134.395 25.3203C134.535 24.9922 134.652 24.8281 134.746 24.8281C134.91 24.8281 135.051 24.8867 135.168 25.0039C135.285 25.0977 135.402 25.2383 135.52 25.4258C135.66 25.5898 135.766 25.707 135.836 25.7773C136 25.9648 136.082 26.1406 136.082 26.3047C136.082 26.4219 136.035 26.5391 135.941 26.6562C135.848 26.7734 135.789 26.8555 135.766 26.9023L134.219 29.5039C133.82 30.2305 133.293 31.1328 132.637 32.2109C132.543 32.3281 132.496 32.4453 132.496 32.5625C132.496 32.6562 132.602 32.7031 132.812 32.7031C133.258 32.7031 134.09 32.6445 135.309 32.5273C136.527 32.4336 137.348 32.3516 137.77 32.2812C138.379 32.2109 138.801 32.1406 139.035 32.0703C139.293 32 139.668 32.1758 140.16 32.5977C140.746 33.0898 140.875 33.4062 140.547 33.5469C140.359 33.6406 139.996 33.6875 139.457 33.6875H138.051C137.746 33.6875 137.266 33.7109 136.609 33.7578C136.211 33.7578 135.766 33.7695 135.273 33.793C134.781 33.8164 134.371 33.8398 134.043 33.8633C133.668 33.8867 132.941 33.957 131.863 34.0742L131.441 34.1797ZM112.457 35.1289C112.457 35.7148 112.223 36.0078 111.754 36.0078C111.402 36.0078 111.016 35.8789 110.594 35.6211C110.172 35.3867 109.961 35.0352 109.961 34.5664L109.996 34.3203C110.113 33.5703 110.172 32.8438 110.172 32.1406L110.207 23.0703L102.543 23.3867L102.648 24.4414V24.5469C102.648 24.9922 102.426 25.2148 101.98 25.2148C101.605 25.2148 101.219 25.0977 100.82 24.8633C100.422 24.6289 100.223 24.2891 100.223 23.8438V23.5625C100.27 23.0469 100.293 22.707 100.293 22.543C100.293 22.3086 100.27 21.9805 100.223 21.5586L99.5898 13.8945C99.5195 13.1211 99.3203 12.4648 98.9922 11.9258C98.8047 11.6211 98.7109 11.3984 98.7109 11.2578C98.7109 11.0703 98.8398 10.9766 99.0977 10.9766C99.5195 10.9766 100.34 11.2227 101.559 11.7148L110.277 11.1875L110.312 5.14062C110.312 4.60156 110.184 4.09766 109.926 3.62891C109.832 3.46484 109.785 3.3125 109.785 3.17188C109.785 2.98437 109.938 2.89062 110.242 2.89062C110.383 2.89062 110.641 2.9375 111.016 3.03125C111.414 3.10156 111.777 3.24219 112.105 3.45312C112.457 3.66406 112.633 3.94531 112.633 4.29688L112.598 11.0469L122.09 10.4844C122.301 10.4609 122.559 10.4492 122.863 10.4492C123.285 10.4492 123.625 10.543 123.883 10.7305C124.141 10.918 124.316 11.1289 124.41 11.3633C124.527 11.5742 124.586 11.7383 124.586 11.8555C124.586 11.9961 124.527 12.1719 124.41 12.3828C124.316 12.5938 124.27 12.7461 124.27 12.8398L123.285 20.4336C123.941 21.1836 124.27 21.7109 124.27 22.0156C124.27 22.2031 124.176 22.332 123.988 22.4023C123.801 22.4492 123.496 22.4844 123.074 22.5078L112.527 22.9648L112.457 35.1289ZM102.402 21.3828L110.242 21.0312L110.277 13.2617L101.734 13.7539L102.402 21.3828ZM121.105 20.5391L121.949 12.5938L112.598 13.1211L112.527 20.9258L121.105 20.5391ZM186.426 16.5664C185.652 16.2852 185.289 15.9805 185.336 15.6523C185.477 14.668 185.547 13.543 185.547 12.2773C185.547 11.7148 185.535 11.3047 185.512 11.0469C185.488 10.7422 185.465 10.4844 185.441 10.2734C185.418 10.0391 185.418 9.91016 185.441 9.88672C185.535 9.79297 185.652 9.74609 185.793 9.74609C186.004 9.74609 186.262 9.83984 186.566 10.0273C186.895 10.2148 187.059 10.4023 187.059 10.5898C187.059 10.707 187.047 10.8242 187.023 10.9414C187 11.0352 186.988 11.1406 186.988 11.2578L186.777 14.7383C186.777 14.9258 186.848 15.043 186.988 15.0898H187.164C187.352 15.0898 187.48 15.0781 187.551 15.0547L192.086 14.4219V13.5078C192.086 12.3594 192.062 11.4688 192.016 10.8359C191.992 10.2969 191.934 9.86328 191.84 9.53516C191.77 9.16016 191.863 8.97266 192.121 8.97266C192.309 8.97266 192.555 9.04297 192.859 9.18359C193.234 9.37109 193.457 9.53516 193.527 9.67578C193.598 9.79297 193.621 9.98047 193.598 10.2383C193.551 10.6602 193.527 11.293 193.527 12.1367L193.562 14.8086C193.562 15.3711 193.457 15.8164 193.246 16.1445C193.129 16.2852 193.012 16.3555 192.895 16.3555C192.777 16.3555 192.613 16.25 192.402 16.0391C192.355 15.9922 192.297 15.9219 192.227 15.8281C192.156 15.7344 192.086 15.6758 192.016 15.6523C191.945 15.6289 191.852 15.6172 191.734 15.6172C191.195 15.6641 189.895 15.8398 187.832 16.1445C187.48 16.1914 187.199 16.2852 186.988 16.4258C186.754 16.543 186.602 16.6016 186.531 16.6016L186.426 16.5664ZM190.891 24.125C190.656 24.4297 190.41 24.582 190.152 24.582C190.082 24.582 190.047 24.5234 190.047 24.4062C190.047 24.2422 190.094 24.0547 190.188 23.8438C190.188 23.8438 190.422 23.375 190.891 22.4375C190.914 22.3438 190.949 22.25 190.996 22.1562C191.043 22.0625 191.078 21.9805 191.102 21.9102V21.875C191.102 21.8281 191.066 21.7812 190.996 21.7344C190.926 21.6875 190.844 21.6758 190.75 21.6992C190.375 21.7227 189.812 21.7812 189.062 21.875C188.336 21.9688 187.797 22.0625 187.445 22.1562C187.305 22.2031 187.129 22.2617 186.918 22.332C186.73 22.4023 186.578 22.4375 186.461 22.4375C186.039 22.4375 185.688 22.3086 185.406 22.0508C185.172 21.8867 184.996 21.7227 184.879 21.5586L184.809 21.3828C184.809 21.2656 185.008 21.2305 185.406 21.2773C185.945 21.3242 187.059 21.2539 188.746 21.0664L189.449 20.9609C189.637 20.9375 189.93 20.9023 190.328 20.8555C190.75 20.7852 191.078 20.7148 191.312 20.6445C191.383 20.6211 191.453 20.5977 191.523 20.5742C191.617 20.5273 191.699 20.5039 191.77 20.5039C191.887 20.5039 192.027 20.5625 192.191 20.6797C192.379 20.7969 192.531 20.9023 192.648 20.9961C192.812 21.1133 192.918 21.2188 192.965 21.3125C193.035 21.3828 193.059 21.4766 193.035 21.5938C193.035 21.7109 192.977 21.8164 192.859 21.9102C192.742 22.0039 192.66 22.0742 192.613 22.1211C192.566 22.1914 192.402 22.3672 192.121 22.6484C192.004 22.8359 191.793 23.0938 191.488 23.4219C191.207 23.75 191.008 23.9844 190.891 24.125ZM189.133 31.0508C189.133 30.9805 189.25 30.8047 189.484 30.5234C189.742 30.2188 189.941 29.9844 190.082 29.8203C190.434 29.3516 190.855 28.6719 191.348 27.7812C191.863 26.8906 192.156 26.3047 192.227 26.0234C192.273 25.8828 192.203 25.8125 192.016 25.8125C191.641 25.8125 190.609 25.918 188.922 26.1289C187.82 26.2695 187 26.4102 186.461 26.5508C186.344 26.6211 186.227 26.6562 186.109 26.6562C185.922 26.6562 185.723 26.5273 185.512 26.2695C185.418 26.1055 185.371 25.9531 185.371 25.8125C185.371 25.7188 185.43 25.625 185.547 25.5312L185.652 25.3906C185.723 25.25 185.805 25.0625 185.898 24.8281C185.992 24.5938 186.074 24.3711 186.145 24.1602C186.262 23.7852 186.344 23.375 186.391 22.9297C186.414 22.6719 186.555 22.6016 186.812 22.7188C187.141 22.8828 187.387 23.0469 187.551 23.2109C187.738 23.3516 187.797 23.457 187.727 23.5273C187.492 23.8086 187.305 24.125 187.164 24.4766C187.047 24.8516 186.977 25.0977 186.953 25.2148C186.953 25.3086 187.012 25.3555 187.129 25.3555C187.48 25.3555 188.008 25.2969 188.711 25.1797C189.109 25.1328 189.602 25.0742 190.188 25.0039C190.773 24.9336 191.242 24.8633 191.594 24.793L192.473 24.6172C192.543 24.5938 192.637 24.582 192.754 24.582C192.871 24.582 192.988 24.6289 193.105 24.7227C193.223 24.793 193.352 24.8867 193.492 25.0039C193.727 25.2148 193.879 25.3906 193.949 25.5312C194.02 25.6484 194.055 25.7891 194.055 25.9531C194.055 26.0469 193.984 26.1641 193.844 26.3047C193.727 26.4453 193.586 26.668 193.422 26.9727C192.742 28.3555 191.863 29.5156 190.785 30.4531C190.48 30.6875 190.141 30.8867 189.766 31.0508C189.602 31.0977 189.449 31.1328 189.309 31.1562C189.191 31.1562 189.133 31.1211 189.133 31.0508ZM200.383 14.8086C200.664 14.8086 200.805 14.9375 200.805 15.1953C200.805 15.3359 200.676 15.5352 200.418 15.793C199.715 16.6602 198.32 18.3125 196.234 20.75C196.07 20.9609 195.918 21.0664 195.777 21.0664C195.66 21.0664 195.402 20.8906 195.004 20.5391C194.676 20.2578 194.512 20.0234 194.512 19.8359C194.512 19.625 194.688 19.4258 195.039 19.2383C195.578 18.9336 196.387 18.3242 197.465 17.4102C198.543 16.4492 199.34 15.6875 199.855 15.125C200.066 14.9141 200.242 14.8086 200.383 14.8086ZM158.512 9.88672C158.254 9.91016 157.926 9.92188 157.527 9.92188H157.176C156.848 9.875 156.613 9.81641 156.473 9.74609C156.238 9.58203 155.992 9.3125 155.734 8.9375C155.477 8.53906 155.348 8.21094 155.348 7.95312C155.348 7.78906 155.418 7.70703 155.559 7.70703C155.652 7.70703 155.734 7.71875 155.805 7.74219C156.227 7.85938 156.742 7.91797 157.352 7.91797H157.809L171.52 7.03906C172.059 6.99219 172.586 6.88672 173.102 6.72266C173.148 6.69922 173.23 6.6875 173.348 6.6875C173.652 6.6875 174.051 6.92187 174.543 7.39062C175.059 7.85938 175.316 8.21094 175.316 8.44531C175.316 8.72656 175.023 8.89062 174.438 8.9375L158.512 9.88672ZM148.949 34.6719C148.949 34.4609 149.219 34.2031 149.758 33.8984C151.82 32.7031 153.543 31.4023 154.926 29.9961C156.332 28.5898 157.492 26.9141 158.406 24.9688C159.32 23 160.059 20.6211 160.621 17.832L154.469 18.1484C154.141 18.1719 153.742 18.1836 153.273 18.1836C152.969 18.1836 152.723 18.1602 152.535 18.1133C152.348 18.0664 152.172 17.9609 152.008 17.7969C151.703 17.4922 151.469 17.1641 151.305 16.8125C151.141 16.4609 151.059 16.2266 151.059 16.1094C151.059 15.9688 151.164 15.8984 151.375 15.8984H151.586C152.031 16.0391 152.57 16.1094 153.203 16.1094H153.555L175.738 14.9844C176.324 14.9375 176.863 14.832 177.355 14.668C177.496 14.6211 177.59 14.5977 177.637 14.5977C177.918 14.5977 178.328 14.832 178.867 15.3008C179.406 15.7695 179.676 16.1562 179.676 16.4609C179.676 16.7188 179.395 16.8711 178.832 16.918L169.199 17.4102L168.988 29.5391V29.6445C168.988 30.2305 169.129 30.6641 169.41 30.9453C169.691 31.2031 170.09 31.3672 170.605 31.4375C171.145 31.5078 171.918 31.543 172.926 31.543C174.332 31.543 175.574 31.4258 176.652 31.1914C177.051 31.1211 177.379 30.8984 177.637 30.5234C177.895 30.1484 178.141 29.4922 178.375 28.5547C178.609 27.6172 178.855 26.2344 179.113 24.4062C179.184 23.9375 179.277 23.5742 179.395 23.3164C179.535 23.0352 179.676 22.8945 179.816 22.8945C180.074 22.8945 180.227 23.1758 180.273 23.7383C180.344 24.3008 180.379 25.0625 180.379 26.0234C180.379 27.5 180.309 29.0117 180.168 30.5586C180.098 31.332 179.887 31.9414 179.535 32.3867C179.207 32.8555 178.539 33.2188 177.531 33.4766C176.547 33.7578 175.082 33.8984 173.137 33.8984C171.777 33.8984 170.664 33.8281 169.797 33.6875C168.93 33.5703 168.191 33.2305 167.582 32.668C166.973 32.1289 166.668 31.2617 166.668 30.0664V29.9609L166.879 17.5156L163.152 17.7266C162.215 22.5078 160.715 26.2344 158.652 28.9062C156.613 31.5547 153.742 33.4883 150.039 34.707C149.758 34.8008 149.5 34.8477 149.266 34.8477C149.055 34.8477 148.949 34.7891 148.949 34.6719ZM246.121 14.3867C245.957 14.3867 245.781 14.2812 245.594 14.0703C245.453 13.9063 245.359 13.7773 245.312 13.6836C245.266 13.5664 245.266 13.4141 245.312 13.2266L245.348 12.3828C245.371 12.2188 245.383 11.8203 245.383 11.1875V10.0273L244.328 10.5195L243.098 11.0469C242.793 11.1641 242.477 11.3047 242.148 11.4688C241.867 11.6094 241.621 11.6797 241.41 11.6797C241.246 11.6563 241.059 11.5977 240.848 11.5039C240.637 11.4102 240.473 11.3281 240.355 11.2578C240.098 11.0938 239.98 10.918 240.004 10.7305L240.109 10.3789C240.109 10.1914 240.121 10.0273 240.145 9.88672L240.18 7.84766V5.94922C240.18 5.57422 240.156 5.25781 240.109 5C240.062 4.71875 240.027 4.51953 240.004 4.40234C240.004 4.28516 240.039 4.20313 240.109 4.15625C240.133 4.13281 240.191 4.12109 240.285 4.12109C240.449 4.12109 240.766 4.22656 241.234 4.4375C241.633 4.625 241.797 4.85938 241.727 5.14062C241.68 5.30469 241.633 5.55078 241.586 5.87891L241.48 9.92188C241.48 10.0391 241.492 10.1328 241.516 10.2031C241.562 10.25 241.609 10.2734 241.656 10.2734C241.938 10.2734 242.277 10.1914 242.676 10.0273C243.426 9.79297 244.07 9.55859 244.609 9.32422L245.383 9.00781V6.6875C245.383 5.75 245.324 4.84766 245.207 3.98047C245.184 3.91016 245.172 3.82812 245.172 3.73438C245.172 3.5 245.266 3.38281 245.453 3.38281C245.477 3.38281 245.605 3.42969 245.84 3.52344C246.191 3.71094 246.449 3.875 246.613 4.01562C246.777 4.15625 246.871 4.23828 246.895 4.26172C246.988 4.33203 247.035 4.40234 247.035 4.47266C247.035 4.51953 247.012 4.57812 246.965 4.64844C246.941 4.71875 246.918 4.77734 246.895 4.82422L246.789 5.87891L246.754 9.11328L246.789 12.2422C246.789 12.7813 246.754 13.25 246.684 13.6484C246.566 14.1406 246.379 14.3867 246.121 14.3867ZM239.652 20.1523C239.395 20.1523 239.078 19.9531 238.703 19.5547C238.422 19.2734 238.281 19.0625 238.281 18.9219C238.281 18.8516 238.328 18.8164 238.422 18.8164C238.516 18.793 238.633 18.7812 238.773 18.7812L239.547 18.7461C239.992 18.7461 240.285 18.7344 240.426 18.7109C240.871 18.7109 241.246 18.6992 241.551 18.6758C243.566 18.4883 244.926 18.3359 245.629 18.2188C245.98 18.1719 246.297 18.125 246.578 18.0781C246.859 18.0078 247.082 17.9727 247.246 17.9727C247.574 17.9727 247.902 18.1367 248.23 18.4648C248.488 18.7227 248.617 18.9336 248.617 19.0977C248.617 19.2383 248.535 19.332 248.371 19.3789C248.254 19.4023 247.562 19.4492 246.297 19.5195C245.594 19.543 244.727 19.6016 243.695 19.6953C242.664 19.7891 241.762 19.8828 240.988 19.9766C240.848 20 240.648 20.0352 240.391 20.082C240.133 20.1289 239.887 20.1523 239.652 20.1523ZM244.363 34.6719C243.637 34.6719 243.074 34.6484 242.676 34.6016C242.301 34.5547 241.984 34.4141 241.727 34.1797C241.281 33.8516 240.977 33.1367 240.812 32.0352L240.707 30.9102C240.707 30.6289 240.684 30.2773 240.637 29.8555C240.262 29.9023 239.992 29.9492 239.828 29.9961C239.781 30.0195 239.699 30.0547 239.582 30.1016C239.488 30.125 239.418 30.1367 239.371 30.1367C239.207 30.1367 239.055 30.0898 238.914 29.9961C238.773 29.9023 238.598 29.7266 238.387 29.4688C238.223 29.2578 238.141 29.1172 238.141 29.0469C238.141 28.9766 238.223 28.9297 238.387 28.9062C238.551 28.8828 238.773 28.8711 239.055 28.8711C239.453 28.8711 239.969 28.8242 240.602 28.7305L240.566 28.2383C240.566 27.3008 240.508 26.5039 240.391 25.8477L240.355 25.6016C240.355 25.2734 240.484 25.1445 240.742 25.2148C241.023 25.3086 241.281 25.4258 241.516 25.5664C241.703 25.6602 241.832 25.7539 241.902 25.8477C241.973 25.918 241.996 26.0234 241.973 26.1641L241.867 27.6758V28.5898L244.961 28.2734C244.961 28.1094 244.973 27.7227 244.996 27.1133C245.02 26.4805 245.02 26.0703 244.996 25.8828C244.996 25.6953 244.973 25.5195 244.926 25.3555C244.902 25.168 244.879 25.0156 244.855 24.8984C244.855 24.7109 244.949 24.6172 245.137 24.6172C245.324 24.6172 245.559 24.7227 245.84 24.9336C246.168 25.1445 246.379 25.332 246.473 25.4961C246.59 25.6602 246.613 25.8594 246.543 26.0938C246.426 26.4688 246.344 26.8906 246.297 27.3594C246.25 27.8281 246.227 28.1094 246.227 28.2031C246.508 28.1797 246.766 28.1445 247 28.0977C247.234 28.0508 247.387 28.0273 247.457 28.0273C247.645 27.9805 247.867 27.957 248.125 27.957C248.266 27.9805 248.465 28.1211 248.723 28.3789C248.934 28.6602 249.039 28.8828 249.039 29.0469C249.039 29.2812 248.816 29.375 248.371 29.3281C247.973 29.2578 247.574 29.2227 247.176 29.2227C246.777 29.2227 246.438 29.2344 246.156 29.2578C246.086 30.1016 245.945 30.9336 245.734 31.7539C245.688 31.9414 245.605 32.0938 245.488 32.2109C245.371 32.3516 245.266 32.4219 245.172 32.4219C245.008 32.4219 244.902 32.3516 244.855 32.2109C244.832 32.0938 244.82 31.8945 244.82 31.6133C244.867 31.0039 244.891 30.2422 244.891 29.3281C244.258 29.375 243.766 29.4219 243.414 29.4688C242.875 29.5859 242.371 29.6562 241.902 29.6797C241.879 30.6406 241.926 31.4961 242.043 32.2461C242.113 32.7383 242.254 33.0781 242.465 33.2656C242.605 33.3828 242.77 33.4531 242.957 33.4766C243.168 33.5 243.379 33.5117 243.59 33.5117C243.801 33.5117 243.941 33.5117 244.012 33.5117C244.738 33.5117 245.418 33.4766 246.051 33.4062C246.238 33.3828 246.402 33.3359 246.543 33.2656C246.707 33.1953 246.824 33.1602 246.895 33.1602C247.105 33.1602 247.316 33.2305 247.527 33.3711C247.738 33.5117 247.844 33.6758 247.844 33.8633C247.844 34.0508 247.738 34.1914 247.527 34.2852C247.34 34.3789 247.035 34.4609 246.613 34.5312C245.863 34.625 245.113 34.6719 244.363 34.6719ZM254.383 18.6758C254.664 18.6758 254.805 18.8047 254.805 19.0625C254.805 19.2031 254.676 19.4023 254.418 19.6602C253.715 20.5273 252.32 22.1797 250.234 24.6172C250.07 24.8281 249.918 24.9336 249.777 24.9336C249.66 24.9336 249.402 24.7578 249.004 24.4062C248.676 24.125 248.512 23.8906 248.512 23.7031C248.512 23.4922 248.688 23.293 249.039 23.1055C249.578 22.8008 250.387 22.1914 251.465 21.2773C252.543 20.3164 253.34 19.5547 253.855 18.9922C254.066 18.7812 254.242 18.6758 254.383 18.6758ZM209.699 30.1719C211.785 29.5156 213.648 28.8008 215.289 28.0273C214.938 27.5352 214.492 26.9727 213.953 26.3398C213.766 26.1055 213.672 25.918 213.672 25.7773C213.672 25.5195 213.824 25.2969 214.129 25.1094C214.434 24.8984 214.668 24.793 214.832 24.793C215.02 24.793 215.219 24.9102 215.43 25.1445C216.766 26.7148 217.902 28.0977 218.84 29.293C219.777 30.4883 220.246 31.2148 220.246 31.4727C220.246 31.6836 220.082 31.9297 219.754 32.2109C219.449 32.5156 219.156 32.668 218.875 32.668C218.641 32.668 218.406 32.4805 218.172 32.1055C217.633 31.2852 217.023 30.3945 216.344 29.4336L212.125 31.543C211.656 31.7539 210.918 32.1289 209.91 32.668C209.066 33.1133 208.551 33.3359 208.363 33.3359C208.223 33.3359 208.047 33.2422 207.836 33.0547C207.625 32.8906 207.461 32.6797 207.344 32.4219C207.25 32.1875 207.25 32 207.344 31.8594C207.484 31.6016 207.555 30.5703 207.555 28.7656V16.6016C207.555 16.0391 207.531 15.582 207.484 15.2305C207.461 14.8789 207.367 14.5039 207.203 14.1055C207.18 14.0352 207.156 13.9766 207.133 13.9297C207.109 13.8828 207.098 13.8359 207.098 13.7891C207.098 13.6719 207.18 13.6133 207.344 13.6133C207.648 13.6133 208.41 13.8711 209.629 14.3867L217.258 13.8594C217.445 13.8359 217.656 13.8242 217.891 13.8242C218.148 13.8242 218.453 13.9414 218.805 14.1758C219.156 14.3867 219.332 14.6211 219.332 14.8789C219.332 14.9727 219.273 15.1133 219.156 15.3008C219.062 15.4883 219.016 15.6289 219.016 15.7227L218.102 22.332C218.664 22.9883 218.945 23.4336 218.945 23.668C218.945 23.7852 218.875 23.8672 218.734 23.9141C218.617 23.9609 218.43 23.9844 218.172 23.9844L209.664 24.3008L209.699 30.1719ZM203.934 14.3867C203.934 14.1523 204.086 13.8711 204.391 13.543C206.102 11.6445 207.59 9.75781 208.855 7.88281C210.121 6.00781 210.754 4.75391 210.754 4.12109L210.719 3.875V3.76953C210.719 3.44141 210.848 3.27734 211.105 3.27734C211.41 3.27734 211.832 3.48828 212.371 3.91016C212.934 4.30859 213.215 4.63672 213.215 4.89453C213.215 5.01172 213.156 5.16406 213.039 5.35156C212.688 5.91406 212.301 6.47656 211.879 7.03906L216.871 6.65234C217.293 6.62891 217.738 6.53516 218.207 6.37109C218.348 6.32422 218.453 6.30078 218.523 6.30078C218.875 6.30078 219.25 6.5 219.648 6.89844C220.07 7.27344 220.281 7.56641 220.281 7.77734C220.281 8.05859 220.023 8.22266 219.508 8.26953L213.496 8.69141C213.66 8.73828 214.023 8.98438 214.586 9.42969C215.172 9.875 215.699 10.332 216.168 10.8008C216.637 11.2695 216.871 11.5977 216.871 11.7852C216.871 11.9961 216.73 12.2539 216.449 12.5586C216.168 12.8398 215.922 12.9805 215.711 12.9805C215.523 12.9805 215.301 12.8281 215.043 12.5234C214.246 11.6563 213.438 10.8945 212.617 10.2383C212.336 10.0039 212.195 9.80469 212.195 9.64062C212.195 9.52344 212.254 9.37109 212.371 9.18359C212.488 8.99609 212.641 8.84375 212.828 8.72656L210.473 8.90234C209.348 10.2852 208.105 11.5859 206.746 12.8047C205.387 14 204.52 14.5977 204.145 14.5977C204.004 14.5977 203.934 14.5273 203.934 14.3867ZM216.59 18.043L216.836 15.582L209.594 16.0742V18.3945L216.59 18.043ZM216.133 22.4023L216.414 19.6953L209.629 20.0117V22.6484L216.133 22.4023ZM218.031 12.875C218.031 12.6406 218.184 12.3594 218.488 12.0312C219.637 10.6484 220.68 9.08984 221.617 7.35547C222.578 5.59766 223.059 4.36719 223.059 3.66406V3.52344C223.059 3.17188 223.188 2.99609 223.445 2.99609C223.609 2.99609 223.855 3.08984 224.184 3.27734C224.535 3.44141 224.852 3.64063 225.133 3.875C225.414 4.10937 225.555 4.34375 225.555 4.57812C225.555 4.78906 225.391 5.16406 225.062 5.70312C224.734 6.24219 224.559 6.52344 224.535 6.54688L231.461 5.98438C231.977 5.9375 232.422 5.85547 232.797 5.73828C232.844 5.71484 232.938 5.70312 233.078 5.70312C233.406 5.70312 233.758 5.89063 234.133 6.26562C234.531 6.61719 234.73 6.91016 234.73 7.14453C234.73 7.28516 234.66 7.40234 234.52 7.49609C234.402 7.56641 234.238 7.61328 234.027 7.63672L226.891 8.12891C227.547 8.55078 228.32 9.17187 229.211 9.99219C230.102 10.7891 230.547 11.3281 230.547 11.6094C230.547 11.7734 230.418 12.0312 230.16 12.3828C229.902 12.7109 229.656 12.875 229.422 12.875C229.234 12.875 229.035 12.7578 228.824 12.5234C227.676 11.2812 226.633 10.2969 225.695 9.57031C225.461 9.38281 225.344 9.20703 225.344 9.04297C225.344 8.85547 225.52 8.57422 225.871 8.19922L223.27 8.375C222.496 9.40625 221.559 10.4492 220.457 11.5039C219.379 12.5586 218.652 13.0859 218.277 13.0859C218.113 13.0859 218.031 13.0156 218.031 12.875ZM221.336 13.6484C221.336 13.5078 221.418 13.4375 221.582 13.4375C221.934 13.4375 222.73 13.7305 223.973 14.3164L231.039 13.7188L231.32 13.6836C231.414 13.6836 231.59 13.7305 231.848 13.8242C232.129 13.8945 232.387 14.0234 232.621 14.2109C232.879 14.375 233.008 14.5977 233.008 14.8789C233.008 14.9727 232.973 15.1016 232.902 15.2656C232.832 15.4297 232.797 15.5469 232.797 15.6172C232.773 18.1953 232.609 20.9492 232.305 23.8789L232.234 24.7578C232.164 25.7422 232.07 26.5625 231.953 27.2188C231.836 27.875 231.637 28.3906 231.355 28.7656C230.91 29.375 230.43 29.6797 229.914 29.6797C229.398 29.6797 228.742 29.3633 227.945 28.7305C227.148 28.0977 226.41 27.4062 225.73 26.6562C225.074 25.9062 224.746 25.4258 224.746 25.2148C224.746 25.0508 224.84 24.9688 225.027 24.9688C225.238 24.9688 225.531 25.0859 225.906 25.3203C226.773 25.8594 227.5 26.293 228.086 26.6211C228.672 26.9492 229.094 27.1133 229.352 27.1133C229.469 27.1133 229.551 27.0312 229.598 26.8672C230.137 23.8672 230.465 20.1055 230.582 15.582L223.973 16.0742C223.973 20.0352 224.008 26.3164 224.078 34.918C224.078 35.1289 224.02 35.2812 223.902 35.375C223.809 35.4922 223.68 35.5508 223.516 35.5508C223.328 35.5508 223.105 35.4805 222.848 35.3398C222.402 35.1523 222.086 34.9766 221.898 34.8125C221.711 34.6484 221.617 34.4609 221.617 34.25L221.652 34.0039C221.793 33.2305 221.863 32.3633 221.863 31.4023L221.758 16.5664C221.758 15.957 221.734 15.4883 221.688 15.1602C221.664 14.832 221.594 14.5156 221.477 14.2109C221.383 13.9297 221.336 13.7422 221.336 13.6484Z" fill="#333333"/>
<path d="M139.094 71.1875C138.094 71.1875 137.427 71.125 137.094 71C136.698 70.8125 136.438 70.3854 136.312 69.7188C136.25 69.3646 136.219 68.9167 136.219 68.375L136.094 66.3438V65.5625C136.073 65.5417 136.062 65.4896 136.062 65.4062L136.031 65.0625C136.01 64.8958 135.917 64.6979 135.75 64.4688C135.688 64.3438 135.656 64.25 135.656 64.1875C135.656 64.0417 135.833 64 136.188 64.0625C136.562 64.125 136.99 64.1562 137.469 64.1562C137.802 64.1562 138.427 64.1354 139.344 64.0938C139.656 64.0729 140.385 63.9792 141.531 63.8125L142.531 63.5938L142.781 63.5312C142.969 63.5312 143.198 63.6458 143.469 63.875C143.698 64.0625 143.812 64.2396 143.812 64.4062C143.812 64.6146 143.656 64.7396 143.344 64.7812C142.531 64.8438 141.906 64.875 141.469 64.875L140.344 64.9375C140.01 64.9792 139.781 65 139.656 65C138.281 65.0625 137.5 65.0938 137.312 65.0938C137.312 66.5521 137.323 67.4583 137.344 67.8125C137.385 68.3958 137.417 68.8542 137.438 69.1875C137.479 69.5208 137.531 69.7396 137.594 69.8438C137.635 69.9271 137.708 69.9896 137.812 70.0312C137.938 70.0521 138.052 70.0729 138.156 70.0938C138.281 70.0938 138.375 70.0938 138.438 70.0938C138.458 70.0938 138.51 70.1042 138.594 70.125C138.698 70.125 138.896 70.125 139.188 70.125C139.396 70.125 139.75 70.1042 140.25 70.0625C140.896 70.0208 141.521 69.9375 142.125 69.8125C142.271 69.7917 142.604 69.7812 143.125 69.7812C143.375 69.7812 143.615 69.8958 143.844 70.125C143.948 70.2292 144 70.375 144 70.5625C144 70.7083 143.958 70.8125 143.875 70.875C143.75 70.9375 143.552 70.9896 143.281 71.0312C143.031 71.0521 142.708 71.0729 142.312 71.0938C141.167 71.1562 140.094 71.1875 139.094 71.1875ZM143.562 81.8438C143.854 82.0312 144 82.2083 144 82.375C144 82.6042 143.823 82.75 143.469 82.8125C143.115 82.875 142.615 82.9167 141.969 82.9375C141.031 82.9583 140.427 82.9271 140.156 82.8438C139.698 82.6354 139.469 82.2917 139.469 81.8125L139.5 80.6562C139.542 80.2812 139.562 79.9479 139.562 79.6562C139.583 79.4688 139.594 79.1042 139.594 78.5625C139.281 79.2708 138.875 79.9583 138.375 80.625C138.021 81.0625 137.708 81.4271 137.438 81.7188C137.167 81.9896 136.844 82.25 136.469 82.5C136.094 82.75 135.75 82.875 135.438 82.875C135.25 82.875 135.156 82.8125 135.156 82.6875C135.156 82.6667 135.354 82.5104 135.75 82.2188C136.167 81.9062 136.583 81.4792 137 80.9375C137.625 80.1042 138.167 79.125 138.625 78C137.812 78.1042 137.271 78.1979 137 78.2812C136.896 78.3021 136.802 78.3333 136.719 78.375C136.635 78.3958 136.531 78.3958 136.406 78.375C136.302 78.3333 136.156 78.25 135.969 78.125C135.781 77.9792 135.635 77.8438 135.531 77.7188C135.448 77.5938 135.406 77.5104 135.406 77.4688C135.406 77.3646 135.562 77.3125 135.875 77.3125C136.646 77.3125 137.635 77.2292 138.844 77.0625C138.969 76.5833 139.031 75.8125 139.031 74.75V74.1562C139.031 73.9062 139.083 73.7708 139.188 73.75C139.208 73.7292 139.25 73.7188 139.312 73.7188C139.479 73.7188 139.708 73.8438 140 74.0938C140.229 74.2812 140.375 74.4271 140.438 74.5312C140.521 74.6146 140.531 74.7292 140.469 74.875C140.448 74.9167 140.406 75 140.344 75.125C140.281 75.25 140.24 75.375 140.219 75.5C140.198 75.6042 140.156 75.8125 140.094 76.125C140.031 76.4167 139.99 76.6771 139.969 76.9062C140.26 76.8854 140.625 76.8438 141.062 76.7812C141.5 76.7188 141.823 76.6562 142.031 76.5938L142.656 76.4375C142.865 76.3958 143.208 76.5729 143.688 76.9688C143.771 77.0312 143.812 77.1042 143.812 77.1875C143.812 77.2708 143.771 77.3438 143.688 77.4062C143.625 77.4479 143.542 77.4688 143.438 77.4688C143.062 77.4688 142.375 77.5312 141.375 77.6562L140.344 77.75C140.573 77.9167 140.719 78.0625 140.781 78.1875C140.844 78.3125 140.854 78.4375 140.812 78.5625L140.719 79.0625C140.677 79.4792 140.635 79.9375 140.594 80.4375C140.573 80.9375 140.573 81.3229 140.594 81.5938C140.594 81.6979 140.656 81.7917 140.781 81.875C140.927 81.9583 141.073 82 141.219 82C141.74 82 142.323 81.9479 142.969 81.8438L143.25 81.7812C143.375 81.7812 143.479 81.8021 143.562 81.8438ZM145.562 71.2188C145.667 71.2188 145.823 71.2917 146.031 71.4375C146.01 71.4792 146.052 71.5625 146.156 71.6875C146.26 71.7917 146.333 71.8646 146.375 71.9062C146.479 72.0104 146.583 72.1354 146.688 72.2812C146.812 72.4271 146.948 72.5833 147.094 72.75C147.469 73.1458 148.333 74.1771 149.688 75.8438C149.917 76.1771 150.031 76.375 150.031 76.4375C150.031 76.6458 149.906 76.75 149.656 76.75C149.51 76.75 149.354 76.6458 149.188 76.4375C148.792 76.0208 148.083 75.3646 147.062 74.4688C146.271 73.7396 145.552 73.1771 144.906 72.7812C144.594 72.6354 144.438 72.4688 144.438 72.2812C144.438 72.1354 144.594 71.9271 144.906 71.6562C145.198 71.3646 145.417 71.2188 145.562 71.2188ZM129.375 67.9062C128.896 69.6562 128.375 71.25 127.812 72.6875C127.271 74.125 126.615 75.5104 125.844 76.8438C127.844 79.6771 130.427 82.2708 133.594 84.625C133.802 84.7708 133.906 84.9167 133.906 85.0625C133.906 85.2292 133.688 85.4688 133.25 85.7812C132.812 86.0938 132.458 86.25 132.188 86.25C131.958 86.25 131.385 85.8125 130.469 84.9375C129.552 84.0625 128.542 83.0208 127.438 81.8125C126.354 80.5833 125.458 79.4896 124.75 78.5312C123.521 80.3021 122.271 81.7604 121 82.9062C119.729 84.0521 118.625 84.8854 117.688 85.4062C116.771 85.9271 116.188 86.1875 115.938 86.1875C115.771 86.1875 115.688 86.125 115.688 86C115.688 85.8125 115.885 85.5521 116.281 85.2188C117.781 84.0104 119.115 82.7396 120.281 81.4062C121.469 80.0729 122.573 78.5417 123.594 76.8125C122.219 74.6458 121.104 72.4167 120.25 70.125C119.708 71 119.073 71.9062 118.344 72.8438C117.615 73.7812 117.083 74.25 116.75 74.25C116.604 74.25 116.531 74.1562 116.531 73.9688C116.531 73.7188 116.646 73.4271 116.875 73.0938C117.833 71.5729 118.729 69.875 119.562 68C120.396 66.1042 121.052 64.3854 121.531 62.8438C122.031 61.2812 122.281 60.2292 122.281 59.6875L122.25 59.1562V59.0938C122.25 58.9271 122.354 58.8438 122.562 58.8438C122.917 58.8438 123.344 59.0625 123.844 59.5C124.344 59.9167 124.594 60.25 124.594 60.5C124.594 60.7292 124.333 61.5104 123.812 62.8438C123.292 64.1771 122.74 65.4479 122.156 66.6562L129.438 66.2188C129.833 66.1979 130.281 66.0938 130.781 65.9062C130.948 65.8646 131.062 65.8438 131.125 65.8438C131.333 65.8438 131.573 65.9479 131.844 66.1562C132.115 66.3438 132.344 66.5625 132.531 66.8125C132.74 67.0417 132.844 67.2188 132.844 67.3438C132.844 67.5729 132.615 67.7083 132.156 67.75L129.375 67.9062ZM104.062 84.3125C104.062 84.125 104.156 83.8438 104.344 83.4688C106.948 78.8021 108.646 73.4583 109.438 67.4375L106.906 67.625C106.74 67.6458 106.51 67.6562 106.219 67.6562C105.865 67.6562 105.552 67.5417 105.281 67.3125C105.01 67.0833 104.792 66.8333 104.625 66.5625C104.479 66.2708 104.406 66.0521 104.406 65.9062C104.406 65.7812 104.479 65.7188 104.625 65.7188L104.906 65.7812C105.448 65.9062 105.865 65.9688 106.156 65.9688H106.344L115.719 65.3125C116.115 65.2917 116.521 65.2083 116.938 65.0625C117.146 65.0208 117.281 65 117.344 65C117.615 65 117.948 65.1875 118.344 65.5625C118.76 65.9167 118.969 66.2083 118.969 66.4375C118.969 66.6667 118.729 66.8021 118.25 66.8438L111.375 67.3125C111.125 68.8542 110.917 70.0104 110.75 70.7812L114.469 70.4375L114.812 70.4062C115.104 70.4062 115.354 70.4896 115.562 70.6562C115.792 70.8229 115.958 71.0104 116.062 71.2188C116.167 71.4062 116.219 71.5417 116.219 71.625C116.219 71.75 116.177 71.8854 116.094 72.0312C116.01 72.1771 115.969 72.2812 115.969 72.3438C115.594 75.8438 115.24 78.5104 114.906 80.3438C114.573 82.1562 114.271 83.3646 114 83.9688C113.729 84.5521 113.438 84.9583 113.125 85.1875C112.729 85.4167 112.438 85.5312 112.25 85.5312C111.833 85.5312 111.292 85.2292 110.625 84.625C109.979 84.0417 109.396 83.3854 108.875 82.6562C108.354 81.9271 108.094 81.4271 108.094 81.1562C108.094 81.0104 108.156 80.9375 108.281 80.9375C108.406 80.9375 108.667 81.0833 109.062 81.375C109.792 81.9583 110.698 82.5625 111.781 83.1875C111.802 83.2083 111.844 83.2188 111.906 83.2188C112.073 83.2188 112.167 83.1458 112.188 83C112.688 81.4583 113.062 79.8542 113.312 78.1875C113.583 76.5 113.823 74.5104 114.031 72.2188L110.375 72.4688C109.792 74.8854 109.083 76.9896 108.25 78.7812C107.438 80.5521 106.365 82.3021 105.031 84.0312C104.74 84.4062 104.49 84.5938 104.281 84.5938C104.135 84.5938 104.062 84.5 104.062 84.3125ZM108.469 61.2188C108.469 61.0312 108.552 60.8229 108.719 60.5938C108.906 60.3438 109.073 60.1979 109.219 60.1562C109.26 60.1354 109.323 60.125 109.406 60.125C109.552 60.125 109.719 60.1875 109.906 60.3125C110.01 60.375 110.219 60.5 110.531 60.6875C113.052 62.2292 114.354 63.1875 114.438 63.5625C114.5 63.8333 114.385 64.1354 114.094 64.4688C113.823 64.7812 113.604 64.9583 113.438 65L113.312 65.0312C113.188 65.0312 113 64.9271 112.75 64.7188C110.958 63.3021 109.667 62.3229 108.875 61.7812C108.729 61.6771 108.625 61.5833 108.562 61.5C108.5 61.4167 108.469 61.3229 108.469 61.2188ZM121.469 68.3438C122.323 70.7812 123.365 73 124.594 75C125.719 72.7083 126.552 70.3854 127.094 68.0312L121.469 68.3438ZM183.594 68.375C183.448 68.375 183.354 68.3646 183.312 68.3438C183.292 68.3021 183.323 68.2292 183.406 68.125C183.698 67.8542 183.927 67.5938 184.094 67.3438C184.281 67.0729 184.479 66.6458 184.688 66.0625C185.021 65.1042 185.188 64.3646 185.188 63.8438C185.188 63.3646 185.156 62.9271 185.094 62.5312V62.4375C185.094 62.2083 185.24 62.1354 185.531 62.2188C185.781 62.2812 186.062 62.3646 186.375 62.4688C186.438 62.4479 186.531 62.4375 186.656 62.4375C186.781 62.4167 186.979 62.3854 187.25 62.3438C187.958 62.2396 188.875 62.1354 190 62.0312C190 61.9479 190.083 61.6562 190.25 61.1562L190.438 60.4688C190.521 60.1771 190.49 60.0312 190.344 60.0312C189.927 60.0312 188.958 60.1354 187.438 60.3438L185.781 60.625C185.635 60.6458 185.448 60.5833 185.219 60.4375C185.01 60.2917 184.844 60.125 184.719 59.9375C184.615 59.75 184.635 59.625 184.781 59.5625C184.948 59.4583 185.115 59.4062 185.281 59.4062C185.448 59.4062 185.552 59.4062 185.594 59.4062H186L188.062 59.3438L190.062 59.0938C190.167 59.0729 190.292 59.0417 190.438 59C190.604 58.9375 190.76 58.8958 190.906 58.875C191.115 58.8333 191.469 59.0625 191.969 59.5625C192.052 59.6458 192.094 59.7396 192.094 59.8438C192.094 59.9688 192.01 60.0938 191.844 60.2188C191.615 60.4479 191.469 60.6458 191.406 60.8125C191.385 60.9167 191.344 61.0729 191.281 61.2812C191.219 61.4688 191.156 61.7083 191.094 62C191.219 62.1458 191.281 62.3229 191.281 62.5312C191.281 62.6979 191.229 62.8229 191.125 62.9062C191.042 62.9688 190.865 63 190.594 63C189.656 63.0625 188.917 63.125 188.375 63.1875C187.833 63.2292 187.177 63.3333 186.406 63.5C186.323 64.4375 186.135 65.3021 185.844 66.0938C185.552 66.8646 185.146 67.4479 184.625 67.8438C184.125 68.1979 183.781 68.375 183.594 68.375ZM191.188 76.5938C190.875 76.5938 190.573 76.3646 190.281 75.9062C189.906 75.3229 189.542 74.8438 189.188 74.4688L188.375 73.625C187.938 74.125 187.552 74.5208 187.219 74.8125C186.906 75.1042 186.51 75.3854 186.031 75.6562C185.135 76.1771 184.385 76.4375 183.781 76.4375C183.635 76.4375 183.562 76.3854 183.562 76.2812C183.562 76.2188 183.76 76.0833 184.156 75.875C184.552 75.6667 184.927 75.4167 185.281 75.125C186.177 74.375 186.917 73.6042 187.5 72.8125C187.375 72.6875 186.75 72.1458 185.625 71.1875C185.479 71.0833 185.26 70.9062 184.969 70.6562C184.906 70.6146 184.781 70.5208 184.594 70.375C184.406 70.2292 184.312 70.125 184.312 70.0625C184.312 69.9583 184.365 69.9062 184.469 69.9062C184.781 69.9062 185.281 70.125 185.969 70.5625C186.656 70.9792 187.375 71.4792 188.125 72.0625C188.417 71.7083 188.646 71.375 188.812 71.0625C188.979 70.75 189.167 70.3646 189.375 69.9062C189.479 69.6771 189.542 69.4792 189.562 69.3125C189.583 69.125 189.594 69.0104 189.594 68.9688C189.594 68.7396 189.656 68.625 189.781 68.625C189.927 68.625 190.125 68.7396 190.375 68.9688C190.812 69.3854 191.031 69.6667 191.031 69.8125C191.031 69.8958 190.979 69.9896 190.875 70.0938C190.625 70.3438 190.396 70.6771 190.188 71.0938C190.062 71.3438 189.833 71.6979 189.5 72.1562C189.396 72.2812 189.312 72.3958 189.25 72.5C189.188 72.6042 189.125 72.6979 189.062 72.7812C189.542 73.1354 190.25 73.7396 191.188 74.5938C191.417 74.8021 191.562 75 191.625 75.1875C191.708 75.3542 191.75 75.5833 191.75 75.875C191.75 76.0833 191.698 76.2604 191.594 76.4062C191.49 76.5312 191.354 76.5938 191.188 76.5938ZM190.438 86.0625C190.354 86.0625 190.26 86.0208 190.156 85.9375C190.052 85.875 189.917 85.7708 189.75 85.625C189.021 85.0625 188.312 84.2188 187.625 83.0938C186.938 81.9688 186.448 80.75 186.156 79.4375C186.135 79.3125 186.104 79.1667 186.062 79C186.021 78.8333 185.979 78.7083 185.938 78.625C185.938 78.6042 185.906 78.5938 185.844 78.5938C185.698 78.5938 185.417 78.6875 185 78.875C184.875 78.9375 184.75 79.0312 184.625 79.1562C184.521 79.2604 184.406 79.3021 184.281 79.2812C184.198 79.2812 184.083 79.2292 183.938 79.125C183.792 79.0208 183.688 78.9271 183.625 78.8438C183.417 78.5521 183.312 78.375 183.312 78.3125C183.312 78.1875 183.427 78.1146 183.656 78.0938C183.969 78.0938 184.167 78.0833 184.25 78.0625C184.854 77.9792 185.427 77.8438 185.969 77.6562C186.052 77.6354 186.167 77.5729 186.312 77.4688C186.333 77.4688 186.365 77.4583 186.406 77.4375C186.469 77.4167 186.542 77.4375 186.625 77.5C186.938 77.7083 187.094 77.8646 187.094 77.9688C187.094 79.4271 187.51 80.7917 188.344 82.0625C189.177 83.3333 190.396 84.4062 192 85.2812C192.083 85.3229 192.188 85.3646 192.312 85.4062C192.438 85.4479 192.5 85.5104 192.5 85.5938C192.5 85.6979 192.156 85.7917 191.469 85.875L190.688 86L190.438 86.0625ZM197.688 74.2188C197.75 74.2188 197.812 74.25 197.875 74.3125C197.938 74.3542 197.979 74.4167 198 74.5V74.5625C198 74.7083 197.885 74.9896 197.656 75.4062L195.406 79.3125C195.24 79.6667 195.021 79.8438 194.75 79.8438C194.479 79.8438 194.25 79.6771 194.062 79.3438C193.875 79.0729 193.646 78.6667 193.375 78.125C193.25 77.9375 193.146 77.75 193.062 77.5625C192.979 77.375 192.917 77.2396 192.875 77.1562C192.646 76.7604 192.531 76.4792 192.531 76.3125C192.531 76.2292 192.562 76.1667 192.625 76.125C192.688 76.0625 192.75 76.0312 192.812 76.0312C193.042 76.0312 193.25 76.1562 193.438 76.4062C193.583 76.5521 193.698 76.7083 193.781 76.875L194.125 77.3438L194.75 78.0625L195.031 77.625C195.323 77.125 196.01 76.1354 197.094 74.6562C197.323 74.3646 197.521 74.2188 197.688 74.2188ZM165.906 61.1562C165.906 60.6562 165.719 60.125 165.344 59.5625C165.26 59.4583 165.219 59.3438 165.219 59.2188C165.219 59.0729 165.344 59 165.594 59C166.031 59 166.552 59.125 167.156 59.375C167.781 59.625 168.094 59.9167 168.094 60.25L168.062 67C168.771 68.1042 169.469 69.1354 170.156 70.0938C171.573 69.0521 172.844 67.9479 173.969 66.7812C175.094 65.5938 175.708 64.6667 175.812 64C175.833 63.7083 175.948 63.5625 176.156 63.5625C176.427 63.5625 176.771 63.8125 177.188 64.3125C177.625 64.7917 177.844 65.1771 177.844 65.4688C177.844 65.7604 177.042 66.625 175.438 68.0625C173.854 69.5 172.438 70.6667 171.188 71.5625C174.25 75.7083 177.667 78.8646 181.438 81.0312C181.792 81.1979 181.969 81.3646 181.969 81.5312C181.969 81.7188 181.708 81.9896 181.188 82.3438C180.688 82.6979 180.312 82.875 180.062 82.875C179.938 82.875 179.792 82.8229 179.625 82.7188C175.125 79.4271 171.271 75.2917 168.062 70.3125L168.031 83.625L168.062 84.8125C168.062 85.1042 168.021 85.3542 167.938 85.5625C167.854 85.7917 167.698 86 167.469 86.1875C167.177 86.4167 166.875 86.5312 166.562 86.5312C166.104 86.5312 165.312 86.2292 164.188 85.625C163.083 85.0417 162.062 84.3958 161.125 83.6875C160.188 82.9792 159.719 82.4896 159.719 82.2188C159.719 82.0312 159.833 81.9375 160.062 81.9375C160.25 81.9375 160.448 81.9896 160.656 82.0938C162.552 82.9688 164.302 83.5625 165.906 83.875V61.1562ZM152.438 82.8438C152.438 82.6146 152.573 82.375 152.844 82.125C154.948 80.0833 156.698 77.9792 158.094 75.8125C159.49 73.625 160.531 71.3125 161.219 68.875L156.562 69.1875C156.062 69.2292 155.74 69.25 155.594 69.25C155.302 69.25 155.021 69.1562 154.75 68.9688C154.479 68.7812 154.188 68.3646 153.875 67.7188C153.812 67.5938 153.781 67.5 153.781 67.4375C153.781 67.3333 153.865 67.2812 154.031 67.2812L154.281 67.3125C154.719 67.375 155.125 67.4062 155.5 67.4062H155.906L162 66.9688H162.375C162.75 66.9688 163.094 67.0938 163.406 67.3438C163.74 67.5729 163.906 67.8333 163.906 68.125C163.906 68.3333 163.844 68.5208 163.719 68.6875C163.594 68.8333 163.521 68.9271 163.5 68.9688C162.542 71.9688 161.24 74.6146 159.594 76.9062C157.948 79.1979 155.896 81.1875 153.438 82.875C153.167 83.0625 152.948 83.1562 152.781 83.1562C152.552 83.1562 152.438 83.0521 152.438 82.8438ZM236.344 72.2812C236.01 72.2812 235.812 72.1146 235.75 71.7812C235.625 71.4271 235.292 70.9896 234.75 70.4688L234.844 70.3438C234.927 70.3854 235.167 70.4896 235.562 70.6562C235.958 70.8021 236.229 70.875 236.375 70.875C236.5 70.875 236.594 70.875 236.656 70.875C236.719 70.8542 236.792 70.8021 236.875 70.7188C237.125 70.5312 237.438 70.1042 237.812 69.4375C238.083 68.8958 238.323 68.2604 238.531 67.5312C238.76 66.8021 238.875 66.25 238.875 65.875C238.875 65.7708 238.792 65.7188 238.625 65.7188L237.438 65.7812L236.625 65.8438L236.094 65.875L235.875 65.9062C236.021 66.0104 236.115 66.1042 236.156 66.1875C236.219 66.25 236.25 66.3333 236.25 66.4375C236.25 66.5417 236.125 66.8333 235.875 67.3125C235.667 67.7708 235.333 68.2917 234.875 68.875C234.5 69.375 233.99 69.9167 233.344 70.5C232.719 71.0625 232.25 71.3542 231.938 71.375C231.875 71.375 231.812 71.3646 231.75 71.3438C231.708 71.3021 231.688 71.25 231.688 71.1875C231.688 71.1667 231.854 70.9688 232.188 70.5938L233.062 69.5625C233.688 68.7292 234.323 67.6667 234.969 66.375C235.031 66.2083 235 66.1146 234.875 66.0938C234.75 66.1146 234.49 66.1458 234.094 66.1875C233.698 66.2083 233.344 66.2708 233.031 66.375C233.01 66.375 232.938 66.4062 232.812 66.4688C232.688 66.5104 232.583 66.5312 232.5 66.5312C232.375 66.5312 232.271 66.4896 232.188 66.4062L231.938 66.1875C231.75 66.0417 231.656 65.9062 231.656 65.7812C231.656 65.7396 231.677 65.6771 231.719 65.5938L231.875 65.3438C231.958 65.2396 232.094 65.0729 232.281 64.8438C232.469 64.6146 232.677 64.3021 232.906 63.9062C232.948 63.8229 233.031 63.6354 233.156 63.3438C233.302 63.0521 233.375 62.875 233.375 62.8125V62.6875C233.375 62.5625 233.396 62.4792 233.438 62.4375C233.479 62.3958 233.573 62.3958 233.719 62.4375C233.865 62.4792 234.042 62.5938 234.25 62.7812L234.594 63.125C234.656 63.1875 234.688 63.2604 234.688 63.3438C234.688 63.5521 234.396 63.9271 233.812 64.4688C233.708 64.5729 233.583 64.7292 233.438 64.9375C233.292 65.1458 233.219 65.2812 233.219 65.3438C233.219 65.4688 233.312 65.5104 233.5 65.4688L234.219 65.375C235.865 65.125 237.104 64.9792 237.938 64.9375L238.781 64.8125L239.062 64.75L239.219 64.7188C239.385 64.7188 239.5 64.7396 239.562 64.7812C239.625 64.8229 239.688 64.8958 239.75 65C239.812 65.0833 239.875 65.1562 239.938 65.2188C240.083 65.3854 240.188 65.5312 240.25 65.6562L240.312 65.9375L240.25 66.0625L240.188 66.25C240.146 66.3542 240.115 66.4583 240.094 66.5625C240.073 66.6458 240.042 66.7396 240 66.8438C239.562 68.5312 239.052 69.8438 238.469 70.7812C238.281 71.1146 237.958 71.4479 237.5 71.7812C237.062 72.1146 236.677 72.2812 236.344 72.2812ZM232.281 82.5C231.969 82.5 231.729 82.4167 231.562 82.25C231.375 82.0625 231.281 81.8958 231.281 81.75C231.281 81.6042 231.365 81.4479 231.531 81.2812C231.552 81.2604 231.667 81.0938 231.875 80.7812C232.333 80.0521 232.854 79.125 233.438 78C234.042 76.8542 234.417 76.0729 234.562 75.6562C234.688 75.2604 234.802 74.9167 234.906 74.625C235.031 74.3333 235.135 74.1875 235.219 74.1875C235.365 74.1875 235.49 74.2396 235.594 74.3438C235.698 74.4271 235.802 74.5521 235.906 74.7188C236.031 74.8646 236.125 74.9688 236.188 75.0312C236.333 75.1979 236.406 75.3542 236.406 75.5C236.406 75.6042 236.365 75.7083 236.281 75.8125C236.198 75.9167 236.146 75.9896 236.125 76.0312L234.75 78.3438C234.396 78.9896 233.927 79.7917 233.344 80.75C233.26 80.8542 233.219 80.9583 233.219 81.0625C233.219 81.1458 233.312 81.1875 233.5 81.1875C233.896 81.1875 234.635 81.1458 235.719 81.0625C236.802 80.9583 237.531 80.875 237.906 80.8125C238.448 80.75 238.823 80.6875 239.031 80.625C239.26 80.5625 239.594 80.7188 240.031 81.0938C240.552 81.5312 240.667 81.8125 240.375 81.9375C240.208 82.0208 239.885 82.0625 239.406 82.0625H238.156C237.885 82.0625 237.458 82.0833 236.875 82.125C236.521 82.125 236.125 82.1354 235.688 82.1562C235.25 82.1771 234.885 82.1979 234.594 82.2188C234.26 82.2396 233.615 82.3021 232.656 82.4062L232.281 82.5ZM205.438 61C205.438 60.5417 205.312 60.125 205.062 59.75C204.979 59.6042 204.938 59.4792 204.938 59.375C204.938 59.2292 205.042 59.1562 205.25 59.1562C205.542 59.1562 205.906 59.2396 206.344 59.4062C206.74 59.5521 207 59.6875 207.125 59.8125C207.25 59.9375 207.312 60.125 207.312 60.375L207.188 68.375C207.771 67.6458 208.198 66.9896 208.469 66.4062C208.76 65.8021 208.917 65.3333 208.938 65C208.938 64.75 209.021 64.625 209.188 64.625C209.438 64.625 209.75 64.8125 210.125 65.1875C210.5 65.5417 210.688 65.8438 210.688 66.0938C210.688 66.1979 210.542 66.4896 210.25 66.9688C209.958 67.4479 209.542 68.0208 209 68.6875C208.479 69.3542 207.865 70.0104 207.156 70.6562C207.156 72.1562 207.01 73.6354 206.719 75.0938C207.844 76.4688 208.844 77.7708 209.719 79C210.594 80.2292 211.031 80.9688 211.031 81.2188C211.031 81.4271 210.865 81.6562 210.531 81.9062C210.198 82.1562 209.958 82.2812 209.812 82.2812C209.646 82.2812 209.458 82.1042 209.25 81.75C208.25 79.9583 207.25 78.4167 206.25 77.125C205.75 78.8542 205.073 80.4062 204.219 81.7812C203.365 83.1562 202.531 84.2396 201.719 85.0312C200.927 85.8438 200.396 86.25 200.125 86.25C200 86.25 199.938 86.1875 199.938 86.0625C199.938 85.8542 200.094 85.5417 200.406 85.125C202.01 82.9792 203.229 80.7292 204.062 78.375C204.896 76 205.323 73.4583 205.344 70.75L205.438 61ZM201.156 66.4375C201.156 66.0208 201.5 65.8125 202.188 65.8125C202.375 65.8125 202.51 65.8646 202.594 65.9688C202.677 66.0729 202.75 66.2604 202.812 66.5312C203.25 68.3021 203.562 70.1979 203.75 72.2188V72.4688C203.75 73.0312 203.354 73.3125 202.562 73.3125C202.354 73.3125 202.208 73.25 202.125 73.125C202.042 73 201.99 72.8021 201.969 72.5312C201.802 70.1354 201.552 68.2604 201.219 66.9062C201.177 66.6562 201.156 66.5 201.156 66.4375ZM208.562 74.3438C208.562 74.1146 208.781 73.7812 209.219 73.3438C210.99 71.5312 212.542 69.5521 213.875 67.4062C213.146 66.7396 212.25 66.0417 211.188 65.3125C210.979 65.1667 210.875 65 210.875 64.8125C210.875 64.6458 210.938 64.4583 211.062 64.25C211.271 63.9375 211.469 63.7812 211.656 63.7812C211.802 63.7812 212.083 63.9271 212.5 64.2188C212.938 64.4896 213.677 65.0521 214.719 65.9062C215.385 64.6562 215.865 63.4896 216.156 62.4062L212.844 62.7188C212.344 62.7604 212.042 62.7812 211.938 62.7812C211.562 62.7812 211.26 62.6771 211.031 62.4688C210.802 62.2396 210.635 62 210.531 61.75C210.427 61.4792 210.375 61.2917 210.375 61.1875C210.375 61.0833 210.448 61.0312 210.594 61.0312L210.781 61.0625C211.115 61.1042 211.354 61.125 211.5 61.125L212.188 61.0938L217 60.7188L217.406 60.6875C217.719 60.6875 217.99 60.7708 218.219 60.9375C218.469 61.1042 218.594 61.3229 218.594 61.5938C218.594 61.7188 218.438 62.1771 218.125 62.9688C217.812 63.7604 217.365 64.7083 216.781 65.8125C216.198 66.9167 215.5 68.0208 214.688 69.125C215.104 69.1667 215.417 69.1875 215.625 69.1875H216L220.125 68.9375C220.542 68.8958 220.896 68.8125 221.188 68.6875C221.312 68.6458 221.396 68.625 221.438 68.625C221.604 68.625 221.865 68.8021 222.219 69.1562C222.573 69.4896 222.75 69.7812 222.75 70.0312C222.75 70.2396 222.573 70.3646 222.219 70.4062H222.125L216.406 70.7188L215.625 70.75C215.021 70.75 214.594 70.3646 214.344 69.5938C212.927 71.4271 211.406 72.9062 209.781 74.0312C209.698 74.0729 209.646 74.1146 209.625 74.1562C209.208 74.3854 208.917 74.5 208.75 74.5C208.625 74.5 208.562 74.4479 208.562 74.3438ZM209.375 83.7812C209.375 83.6354 209.427 83.5625 209.531 83.5625L209.719 83.5938C210.198 83.7188 210.698 83.7812 211.219 83.7812L219.406 83.5625C219.906 82.9167 220.396 82.1771 220.875 81.3438C221.375 80.4896 221.646 79.7292 221.688 79.0625C221.688 78.7292 221.781 78.5625 221.969 78.5625C222.219 78.5625 222.583 78.75 223.062 79.125C223.542 79.4792 223.781 79.7812 223.781 80.0312C223.781 80.2604 223.458 80.7917 222.812 81.625C222.188 82.4583 221.667 83.0833 221.25 83.5L226.031 83.375C226.427 83.375 226.802 83.3125 227.156 83.1875C227.198 83.1667 227.271 83.1562 227.375 83.1562C227.667 83.1562 228.031 83.3438 228.469 83.7188C228.906 84.0938 229.125 84.375 229.125 84.5625C229.125 84.875 228.844 85.0521 228.281 85.0938L212.031 85.5L211.156 85.5312C210.74 85.5312 210.365 85.4375 210.031 85.25C209.698 85.0625 209.479 84.6354 209.375 83.9688V83.7812ZM212.75 72.6562C212.75 72.5312 212.875 72.4688 213.125 72.4688C213.479 72.4688 214.135 72.6146 215.094 72.9062L223.188 72.5312C223.5 72.5312 223.771 72.5938 224 72.7188C224.229 72.8438 224.396 72.9896 224.5 73.1562C224.625 73.3229 224.688 73.4479 224.688 73.5312C224.688 73.6146 224.656 73.7188 224.594 73.8438C224.531 73.9479 224.49 74.0417 224.469 74.125L223.969 76.6875C224.448 77.2292 224.688 77.6042 224.688 77.8125C224.688 78 224.448 78.1146 223.969 78.1562L215.688 78.4688V78.5625C215.688 78.8958 215.51 79.0625 215.156 79.0625C214.906 79.0625 214.604 78.9896 214.25 78.8438C213.896 78.6979 213.719 78.4479 213.719 78.0938V77.9375C213.76 77.6458 213.781 77.375 213.781 77.125C213.781 76.9583 213.771 76.8333 213.75 76.75L213.438 74.3438C213.375 73.9062 213.198 73.4688 212.906 73.0312C212.802 72.8854 212.75 72.7604 212.75 72.6562ZM214.656 80.125C214.656 79.9792 214.771 79.7917 215 79.5625C215.25 79.3125 215.469 79.1875 215.656 79.1875C215.927 79.1875 216.75 80.0833 218.125 81.875C218.229 82.0417 218.281 82.1875 218.281 82.3125C218.281 82.5625 218.125 82.8021 217.812 83.0312C217.521 83.2604 217.271 83.375 217.062 83.375C216.854 83.375 216.656 83.1979 216.469 82.8438C216.031 82.0938 215.479 81.3125 214.812 80.5C214.708 80.3958 214.656 80.2708 214.656 80.125ZM215.5 76.9375L222.094 76.625L222.438 74.1562L215.25 74.4688L215.5 76.9375ZM218.312 63.1875C218.312 63.0208 218.438 62.8542 218.688 62.6875C218.938 62.5208 219.146 62.4375 219.312 62.4375C219.438 62.4375 219.573 62.5208 219.719 62.6875C219.865 62.8333 220.104 63.1667 220.438 63.6875C221.583 62.75 222.365 62.0312 222.781 61.5312C223.198 61.0104 223.469 60.5208 223.594 60.0625C223.656 59.7917 223.771 59.6562 223.938 59.6562C224.125 59.6562 224.406 59.8333 224.781 60.1875C225.156 60.5208 225.344 60.8229 225.344 61.0938C225.344 61.3229 224.979 61.7917 224.25 62.5C223.542 63.1875 222.562 63.9896 221.312 64.9062C221.896 65.6562 222.354 66.2188 222.688 66.5938C224.646 65.0729 225.708 63.9167 225.875 63.125C225.938 62.8542 226.052 62.7188 226.219 62.7188C226.448 62.7188 226.729 62.9062 227.062 63.2812C227.375 63.6146 227.531 63.9062 227.531 64.1562C227.531 64.4271 227.104 64.9375 226.25 65.6875C225.417 66.4375 224.562 67.1146 223.688 67.7188C225.354 69.3854 227.104 70.8021 228.938 71.9688C229.271 72.1771 229.438 72.3542 229.438 72.5C229.438 72.7083 229.26 72.9479 228.906 73.2188C228.552 73.4896 228.25 73.625 228 73.625C227.833 73.625 227.667 73.5625 227.5 73.4375C225.708 72.0417 224.115 70.6146 222.719 69.1562C221.344 67.6771 220.26 66.3854 219.469 65.2812C218.698 64.1562 218.312 63.4583 218.312 63.1875Z" fill="#333333"/>
</svg>
