<svg width="350" height="88" viewBox="0 0 350 88" fill="none" xmlns="http://www.w3.org/2000/svg">
<path d="M131.582 14.457C131.23 14.457 130.914 14.3164 130.633 14.0352C130.281 13.7773 130.105 13.5781 130.105 13.4375C130.105 13.2734 130.375 13.1914 130.914 13.1914L132.637 13.0859L134.395 12.9102C134.441 12.5352 134.465 11.8203 134.465 10.7656C134.535 10.7656 134.172 10.8125 133.375 10.9062L132.707 11.0117C132.496 11.1055 132.309 11.1523 132.145 11.1523C132.004 11.1523 131.887 11.1055 131.793 11.0117C131.418 10.6836 131.23 10.4023 131.23 10.168V8.51562C131.23 8.35156 131.172 7.71875 131.055 6.61719L131.02 6.23047C131.02 6.04297 131.055 5.92578 131.125 5.87891C131.195 5.83203 131.324 5.83203 131.512 5.87891C132.215 6.06641 132.555 6.27734 132.531 6.51172L132.496 6.75781C132.449 7.08594 132.426 7.50781 132.426 8.02344C132.426 8.63281 132.438 9.01953 132.461 9.18359C132.508 9.65234 132.531 9.875 132.531 9.85156C132.555 9.94531 132.637 9.99219 132.777 9.99219C132.918 9.99219 133.199 9.95703 133.621 9.88672C134.066 9.79297 134.359 9.73437 134.5 9.71094V6.61719C134.5 5.75 134.465 5.16406 134.395 4.85938C134.348 4.625 134.324 4.49609 134.324 4.47266C134.324 4.30859 134.383 4.22656 134.5 4.22656C134.547 4.22656 134.711 4.27344 134.992 4.36719C135.438 4.57812 135.73 4.76563 135.871 4.92969C136.035 5.09375 136.094 5.26953 136.047 5.45703C135.977 5.69141 135.93 6.16016 135.906 6.86328C135.859 7.42578 135.812 8.33984 135.766 9.60547L136.961 9.57031C137.195 9.57031 137.371 9.55859 137.488 9.53516C137.605 9.51172 137.664 9.46484 137.664 9.39453C137.828 8.50391 137.934 7.73047 137.98 7.07422L138.016 6.65234C138.039 6.60547 138.039 6.52344 138.016 6.40625C138.016 6.28906 138.016 6.20703 138.016 6.16016L137.98 5.91406C137.98 5.70312 138.062 5.59766 138.227 5.59766C138.32 5.59766 138.52 5.69141 138.824 5.87891C138.895 5.92578 138.988 5.99609 139.105 6.08984C139.246 6.16016 139.34 6.24219 139.387 6.33594C139.434 6.40625 139.457 6.5 139.457 6.61719C139.457 6.75781 139.445 6.875 139.422 6.96875L139.035 8.9375L138.93 9.74609C138.836 10.2852 138.555 10.5781 138.086 10.625C137.945 10.6016 137.828 10.5664 137.734 10.5195C137.664 10.4727 137.605 10.4492 137.559 10.4492C137.277 10.4492 136.691 10.5078 135.801 10.625L135.766 12.8047L136.363 12.7695L136.926 12.7344C137.793 12.7344 138.438 12.6875 138.859 12.5938C139.047 12.5938 139.211 12.5703 139.352 12.5234L139.457 12.4883C139.691 12.4883 139.938 12.6523 140.195 12.9805C140.5 13.2852 140.652 13.5078 140.652 13.6484C140.652 13.8594 140.324 13.9297 139.668 13.8594L138.332 13.7891H136.574C136.223 13.7891 135.578 13.8359 134.641 13.9297C134.148 13.9297 133.703 13.9531 133.305 14C132.906 14.0469 132.531 14.1289 132.18 14.2461L131.582 14.457ZM139.211 23.668C138.859 23.668 138.52 23.4102 138.191 22.8945C137.77 22.2383 137.359 21.6992 136.961 21.2773L136.047 20.3281C135.555 20.8906 135.121 21.3359 134.746 21.6641C134.395 21.9922 133.949 22.3086 133.41 22.6133C132.402 23.1992 131.559 23.4922 130.879 23.4922C130.715 23.4922 130.633 23.4336 130.633 23.3164C130.633 23.2461 130.855 23.0938 131.301 22.8594C131.746 22.625 132.168 22.3438 132.566 22.0156C133.574 21.1719 134.406 20.3047 135.062 19.4141C134.922 19.2734 134.219 18.6641 132.953 17.5859C132.789 17.4688 132.543 17.2695 132.215 16.9883C132.145 16.9414 132.004 16.8359 131.793 16.6719C131.582 16.5078 131.477 16.3906 131.477 16.3203C131.477 16.2031 131.535 16.1445 131.652 16.1445C132.004 16.1445 132.566 16.3906 133.34 16.8828C134.113 17.3516 134.922 17.9141 135.766 18.5703C136.094 18.1719 136.352 17.7969 136.539 17.4453C136.727 17.0938 136.938 16.6602 137.172 16.1445C137.289 15.8867 137.359 15.6641 137.383 15.4766C137.406 15.2656 137.418 15.1367 137.418 15.0898C137.418 14.832 137.488 14.7031 137.629 14.7031C137.793 14.7031 138.016 14.832 138.297 15.0898C138.789 15.5586 139.035 15.875 139.035 16.0391C139.035 16.1328 138.977 16.2383 138.859 16.3555C138.578 16.6367 138.32 17.0117 138.086 17.4805C137.945 17.7617 137.688 18.1602 137.312 18.6758C137.195 18.8164 137.102 18.9453 137.031 19.0625C136.961 19.1797 136.891 19.2852 136.82 19.3789C137.359 19.7773 138.156 20.457 139.211 21.418C139.469 21.6523 139.633 21.875 139.703 22.0859C139.797 22.2734 139.844 22.5312 139.844 22.8594C139.844 23.0938 139.785 23.293 139.668 23.457C139.551 23.5977 139.398 23.668 139.211 23.668ZM131.441 34.1797C131.09 34.1797 130.82 34.0859 130.633 33.8984C130.422 33.6875 130.316 33.5 130.316 33.3359C130.316 33.1719 130.41 32.9961 130.598 32.8086C130.621 32.7852 130.75 32.5977 130.984 32.2461C131.5 31.4258 132.086 30.3828 132.742 29.1172C133.422 27.8281 133.844 26.9492 134.008 26.4805C134.148 26.0352 134.277 25.6484 134.395 25.3203C134.535 24.9922 134.652 24.8281 134.746 24.8281C134.91 24.8281 135.051 24.8867 135.168 25.0039C135.285 25.0977 135.402 25.2383 135.52 25.4258C135.66 25.5898 135.766 25.707 135.836 25.7773C136 25.9648 136.082 26.1406 136.082 26.3047C136.082 26.4219 136.035 26.5391 135.941 26.6562C135.848 26.7734 135.789 26.8555 135.766 26.9023L134.219 29.5039C133.82 30.2305 133.293 31.1328 132.637 32.2109C132.543 32.3281 132.496 32.4453 132.496 32.5625C132.496 32.6562 132.602 32.7031 132.812 32.7031C133.258 32.7031 134.09 32.6445 135.309 32.5273C136.527 32.4336 137.348 32.3516 137.77 32.2812C138.379 32.2109 138.801 32.1406 139.035 32.0703C139.293 32 139.668 32.1758 140.16 32.5977C140.746 33.0898 140.875 33.4062 140.547 33.5469C140.359 33.6406 139.996 33.6875 139.457 33.6875H138.051C137.746 33.6875 137.266 33.7109 136.609 33.7578C136.211 33.7578 135.766 33.7695 135.273 33.793C134.781 33.8164 134.371 33.8398 134.043 33.8633C133.668 33.8867 132.941 33.957 131.863 34.0742L131.441 34.1797ZM112.457 35.1289C112.457 35.7148 112.223 36.0078 111.754 36.0078C111.402 36.0078 111.016 35.8789 110.594 35.6211C110.172 35.3867 109.961 35.0352 109.961 34.5664L109.996 34.3203C110.113 33.5703 110.172 32.8438 110.172 32.1406L110.207 23.0703L102.543 23.3867L102.648 24.4414V24.5469C102.648 24.9922 102.426 25.2148 101.98 25.2148C101.605 25.2148 101.219 25.0977 100.82 24.8633C100.422 24.6289 100.223 24.2891 100.223 23.8438V23.5625C100.27 23.0469 100.293 22.707 100.293 22.543C100.293 22.3086 100.27 21.9805 100.223 21.5586L99.5898 13.8945C99.5195 13.1211 99.3203 12.4648 98.9922 11.9258C98.8047 11.6211 98.7109 11.3984 98.7109 11.2578C98.7109 11.0703 98.8398 10.9766 99.0977 10.9766C99.5195 10.9766 100.34 11.2227 101.559 11.7148L110.277 11.1875L110.312 5.14062C110.312 4.60156 110.184 4.09766 109.926 3.62891C109.832 3.46484 109.785 3.3125 109.785 3.17188C109.785 2.98437 109.938 2.89062 110.242 2.89062C110.383 2.89062 110.641 2.9375 111.016 3.03125C111.414 3.10156 111.777 3.24219 112.105 3.45312C112.457 3.66406 112.633 3.94531 112.633 4.29688L112.598 11.0469L122.09 10.4844C122.301 10.4609 122.559 10.4492 122.863 10.4492C123.285 10.4492 123.625 10.543 123.883 10.7305C124.141 10.918 124.316 11.1289 124.41 11.3633C124.527 11.5742 124.586 11.7383 124.586 11.8555C124.586 11.9961 124.527 12.1719 124.41 12.3828C124.316 12.5938 124.27 12.7461 124.27 12.8398L123.285 20.4336C123.941 21.1836 124.27 21.7109 124.27 22.0156C124.27 22.2031 124.176 22.332 123.988 22.4023C123.801 22.4492 123.496 22.4844 123.074 22.5078L112.527 22.9648L112.457 35.1289ZM102.402 21.3828L110.242 21.0312L110.277 13.2617L101.734 13.7539L102.402 21.3828ZM121.105 20.5391L121.949 12.5938L112.598 13.1211L112.527 20.9258L121.105 20.5391ZM191.91 14.2812C191.559 14.2812 191.254 14.1523 190.996 13.8945C190.223 13.0508 189.438 12.2891 188.641 11.6094C187.75 10.8594 186.965 10.2969 186.285 9.92188C185.957 9.73437 185.793 9.44141 185.793 9.04297C185.793 8.97266 185.875 8.87891 186.039 8.76172C186.25 8.62109 186.59 8.31641 187.059 7.84766L188.324 6.61719C188.887 6.03125 189.355 5.50391 189.73 5.03516C190.129 4.56641 190.352 4.23828 190.398 4.05078C190.422 4.00391 190.445 3.91016 190.469 3.76953C190.516 3.60547 190.586 3.52344 190.68 3.52344C190.797 3.52344 190.949 3.58203 191.137 3.69922C191.348 3.81641 191.523 3.93359 191.664 4.05078C192.016 4.37891 192.191 4.66016 192.191 4.89453C192.168 4.96484 192.074 5.04688 191.91 5.14062C191.77 5.21094 191.641 5.28125 191.523 5.35156C191.406 5.44531 190.984 5.82031 190.258 6.47656L187.973 8.44531C187.574 8.77344 187.375 9.03125 187.375 9.21875C187.375 9.3125 187.562 9.46484 187.938 9.67578C188.383 9.95703 189.25 10.5313 190.539 11.3984C191.031 11.7266 191.5 12.0898 191.945 12.4883C192.32 12.8633 192.508 13.25 192.508 13.6484C192.508 13.8359 192.426 14 192.262 14.1406C192.168 14.2344 192.051 14.2812 191.91 14.2812ZM185.652 20.1523C185.395 20.1523 185.078 19.9531 184.703 19.5547C184.422 19.2734 184.281 19.0625 184.281 18.9219C184.281 18.8516 184.328 18.8164 184.422 18.8164C184.516 18.793 184.633 18.7812 184.773 18.7812L185.547 18.7461C185.992 18.7461 186.285 18.7344 186.426 18.7109C186.871 18.7109 187.246 18.6992 187.551 18.6758C189.566 18.4883 190.926 18.3359 191.629 18.2188C191.98 18.1719 192.297 18.125 192.578 18.0781C192.859 18.0078 193.082 17.9727 193.246 17.9727C193.574 17.9727 193.902 18.1367 194.23 18.4648C194.488 18.7227 194.617 18.9336 194.617 19.0977C194.617 19.2383 194.535 19.332 194.371 19.3789C194.254 19.4023 193.562 19.4492 192.297 19.5195C191.594 19.543 190.727 19.6016 189.695 19.6953C188.664 19.7891 187.762 19.8828 186.988 19.9766C186.848 20 186.648 20.0352 186.391 20.082C186.133 20.1289 185.887 20.1523 185.652 20.1523ZM193.914 34.0039C193.891 34.0273 193.832 34.0391 193.738 34.0391C193.551 34.0391 193.281 33.9102 192.93 33.6523C192.133 32.8555 191.09 31.8711 189.801 30.6992C189.191 31.3086 188.617 31.8359 188.078 32.2812C187.891 32.4219 187.562 32.6328 187.094 32.9141C186.414 33.3125 185.758 33.5586 185.125 33.6523H184.914C184.703 33.6523 184.574 33.6289 184.527 33.582C184.504 33.5586 184.551 33.5117 184.668 33.4414C184.809 33.3711 184.914 33.3125 184.984 33.2656C185.125 33.1953 185.523 32.9375 186.18 32.4922C186.508 32.2578 186.977 31.8594 187.586 31.2969C188.195 30.7344 188.641 30.2773 188.922 29.9258L187.48 28.8008C187.223 28.6133 186.941 28.4141 186.637 28.2031C186.355 27.9688 186.156 27.8164 186.039 27.7461L186.004 27.6406C186.004 27.5 186.121 27.4297 186.355 27.4297C186.637 27.4297 187.094 27.6055 187.727 27.957L189.52 29.1172C189.918 28.6016 190.316 28.0391 190.715 27.4297C191.137 26.7969 191.359 26.4219 191.383 26.3047C191.406 26.2344 191.395 26.1758 191.348 26.1289C191.324 26.0586 191.277 26.0234 191.207 26.0234H190.504L189.238 26.1289C188.605 26.1758 187.973 26.2578 187.34 26.375C187.27 26.3984 187.152 26.4336 186.988 26.4805C186.824 26.5273 186.684 26.5508 186.566 26.5508C186.52 26.5508 186.32 26.4219 185.969 26.1641C185.641 25.8828 185.465 25.707 185.441 25.6367C185.418 25.6133 185.406 25.5781 185.406 25.5312C185.406 25.4141 185.535 25.3672 185.793 25.3906C186.051 25.3906 186.215 25.3906 186.285 25.3906C186.941 25.3906 187.891 25.332 189.133 25.2148L190.328 25.1094L191.418 24.9688C191.77 24.875 191.969 24.8281 192.016 24.8281H192.086C192.203 24.8281 192.309 24.8633 192.402 24.9336C192.496 25.0039 192.566 25.0742 192.613 25.1445C192.66 25.2148 192.695 25.2617 192.719 25.2852C192.742 25.3086 192.812 25.3789 192.93 25.4961C193.047 25.5898 193.117 25.6836 193.141 25.7773C193.188 25.8477 193.211 25.9297 193.211 26.0234C193.211 26.2344 193.129 26.3867 192.965 26.4805C192.848 26.5273 192.637 26.7734 192.332 27.2188C191.816 28.0391 191.195 28.918 190.469 29.8555C190.867 30.1133 191.383 30.4883 192.016 30.9805C192.297 31.168 192.754 31.4844 193.387 31.9297C193.668 32.1406 193.879 32.4219 194.02 32.7734C194.113 33.1484 194.16 33.4297 194.16 33.6172C194.137 33.8047 194.055 33.9336 193.914 34.0039ZM174.789 19.8711C174.484 20.1055 174.262 20.2227 174.121 20.2227C173.98 20.2227 173.91 20.1523 173.91 20.0117C173.91 19.8008 174.027 19.5312 174.262 19.2031C175.176 17.8203 175.938 16.3789 176.547 14.8789C177.156 13.3789 177.461 12.2891 177.461 11.6094C177.461 11.4688 177.438 11.2578 177.391 10.9766L177.355 10.7656C177.355 10.4844 177.473 10.3438 177.707 10.3438C177.848 10.3438 178.117 10.4492 178.516 10.6602C178.914 10.8477 179.277 11.0938 179.605 11.3984C179.934 11.6797 180.098 11.9609 180.098 12.2422C180.098 12.5 179.852 13.0742 179.359 13.9648C178.891 14.8555 178.258 15.8281 177.461 16.8828C176.688 17.9375 175.855 18.875 174.965 19.6953C174.848 19.8125 174.789 19.8711 174.789 19.8711ZM149.09 28.9766C149.09 28.7422 149.266 28.3789 149.617 27.8867C151.938 24.8164 154.105 20.8555 156.121 16.0039L153.027 16.2852C152.277 16.3789 151.82 16.4258 151.656 16.4258C151.164 16.4258 150.766 16.2031 150.461 15.7578C150.156 15.2891 149.969 14.9141 149.898 14.6328C149.875 14.5859 149.863 14.5273 149.863 14.457C149.863 14.3164 149.934 14.2461 150.074 14.2461C150.145 14.2461 150.203 14.2578 150.25 14.2812C150.602 14.375 151.035 14.4219 151.551 14.4219C151.855 14.4219 152.09 14.4102 152.254 14.3867L156.684 13.9648L156.719 9.39453C155.781 9.72266 154.691 10.0625 153.449 10.4141C152.23 10.7422 151.434 10.9062 151.059 10.9062C150.707 10.9062 150.531 10.8008 150.531 10.5898C150.531 10.3555 150.766 10.1562 151.234 9.99219C153.789 8.98438 156.016 7.95312 157.914 6.89844C159.812 5.84375 160.926 5 161.254 4.36719C161.371 4.15625 161.5 4.05078 161.641 4.05078C161.898 4.05078 162.262 4.34375 162.73 4.92969C163.199 5.51562 163.434 5.96094 163.434 6.26562C163.434 6.42969 163.316 6.58203 163.082 6.72266C161.652 7.42578 160.211 8.05859 158.758 8.62109V13.7891L161.043 13.5781C161.512 13.5312 161.957 13.4141 162.379 13.2266C162.473 13.1797 162.566 13.1562 162.66 13.1562C162.941 13.1562 163.34 13.3672 163.855 13.7891C164.371 14.2109 164.629 14.5625 164.629 14.8438C164.629 15.1016 164.371 15.2539 163.855 15.3008L158.758 15.7578V17.832C159.016 17.6211 159.238 17.5156 159.426 17.5156C159.707 17.5156 160.27 17.9023 161.113 18.6758C161.957 19.4258 162.754 20.2344 163.504 21.1016C164.254 21.9688 164.629 22.5195 164.629 22.7539C164.629 23.0352 164.453 23.3398 164.102 23.668C163.773 23.9727 163.504 24.125 163.293 24.125C163.035 24.125 162.766 23.9258 162.484 23.5273C161.336 22.0039 160.094 20.5977 158.758 19.3086V34.2852C158.758 34.9414 158.547 35.2695 158.125 35.2695C157.984 35.2695 157.762 35.1875 157.457 35.0234C157.176 34.8828 156.918 34.6953 156.684 34.4609C156.473 34.25 156.367 34.0156 156.367 33.7578L156.402 33.5117C156.543 32.8086 156.613 31.8711 156.613 30.6992L156.648 21.5938C156.648 20.9844 156.695 20.1641 156.789 19.1328C156.203 20.6562 155.383 22.2031 154.328 23.7734C153.297 25.3203 152.289 26.6094 151.305 27.6406C150.32 28.6719 149.641 29.1875 149.266 29.1875C149.148 29.1875 149.09 29.1172 149.09 28.9766ZM160.867 34.6719C160.867 34.4609 161.125 34.1094 161.641 33.6172C164.5 30.9453 166.598 28.2969 167.934 25.6719C169.27 23.0469 170.102 20.4336 170.43 17.832C170.781 15.207 170.957 11.7734 170.957 7.53125V6.05469C170.957 5.49219 170.793 4.96484 170.465 4.47266C170.324 4.28516 170.254 4.13281 170.254 4.01562C170.254 3.85156 170.383 3.76953 170.641 3.76953C171.086 3.76953 171.637 3.91016 172.293 4.19141C172.973 4.44922 173.312 4.78906 173.312 5.21094C173.312 10.5078 173.066 14.9492 172.574 18.5352C173.723 21.7695 175.129 24.582 176.793 26.9727C178.48 29.3633 180.367 31.3203 182.453 32.8438C182.805 33.125 182.98 33.3242 182.98 33.4414C182.98 33.6289 182.711 33.8984 182.172 34.25C181.633 34.625 181.223 34.8125 180.941 34.8125C180.707 34.8125 180.039 34.25 178.938 33.125C177.836 32 176.629 30.4766 175.316 28.5547C174.004 26.6328 172.855 24.4531 171.871 22.0156L171.836 22.1211C171.227 24.3477 170.184 26.4219 168.707 28.3438C167.23 30.2656 165.73 31.8242 164.207 33.0195C162.684 34.2148 161.641 34.8125 161.078 34.8125C160.938 34.8125 160.867 34.7656 160.867 34.6719ZM164.137 12.0664C164.137 11.7617 164.301 11.5391 164.629 11.3984C164.957 11.2578 165.227 11.1875 165.438 11.1875C165.602 11.1875 165.73 11.2461 165.824 11.3633C165.941 11.457 166.07 11.6211 166.211 11.8555C166.586 12.6055 167.137 13.8828 167.863 15.6875C168.59 17.4688 168.953 18.5234 168.953 18.8516C168.953 19.1797 168.73 19.4375 168.285 19.625C167.863 19.7891 167.547 19.8711 167.336 19.8711C167.148 19.8711 166.996 19.8125 166.879 19.6953C166.785 19.5547 166.691 19.332 166.598 19.0273C165.941 16.6367 165.168 14.4805 164.277 12.5586C164.184 12.3242 164.137 12.1602 164.137 12.0664ZM246.121 14.3867C245.957 14.3867 245.781 14.2812 245.594 14.0703C245.453 13.9063 245.359 13.7773 245.312 13.6836C245.266 13.5664 245.266 13.4141 245.312 13.2266L245.348 12.3828C245.371 12.2188 245.383 11.8203 245.383 11.1875V10.0273L244.328 10.5195L243.098 11.0469C242.793 11.1641 242.477 11.3047 242.148 11.4688C241.867 11.6094 241.621 11.6797 241.41 11.6797C241.246 11.6563 241.059 11.5977 240.848 11.5039C240.637 11.4102 240.473 11.3281 240.355 11.2578C240.098 11.0938 239.98 10.918 240.004 10.7305L240.109 10.3789C240.109 10.1914 240.121 10.0273 240.145 9.88672L240.18 7.84766V5.94922C240.18 5.57422 240.156 5.25781 240.109 5C240.062 4.71875 240.027 4.51953 240.004 4.40234C240.004 4.28516 240.039 4.20313 240.109 4.15625C240.133 4.13281 240.191 4.12109 240.285 4.12109C240.449 4.12109 240.766 4.22656 241.234 4.4375C241.633 4.625 241.797 4.85938 241.727 5.14062C241.68 5.30469 241.633 5.55078 241.586 5.87891L241.48 9.92188C241.48 10.0391 241.492 10.1328 241.516 10.2031C241.562 10.25 241.609 10.2734 241.656 10.2734C241.938 10.2734 242.277 10.1914 242.676 10.0273C243.426 9.79297 244.07 9.55859 244.609 9.32422L245.383 9.00781V6.6875C245.383 5.75 245.324 4.84766 245.207 3.98047C245.184 3.91016 245.172 3.82812 245.172 3.73438C245.172 3.5 245.266 3.38281 245.453 3.38281C245.477 3.38281 245.605 3.42969 245.84 3.52344C246.191 3.71094 246.449 3.875 246.613 4.01562C246.777 4.15625 246.871 4.23828 246.895 4.26172C246.988 4.33203 247.035 4.40234 247.035 4.47266C247.035 4.51953 247.012 4.57812 246.965 4.64844C246.941 4.71875 246.918 4.77734 246.895 4.82422L246.789 5.87891L246.754 9.11328L246.789 12.2422C246.789 12.7813 246.754 13.25 246.684 13.6484C246.566 14.1406 246.379 14.3867 246.121 14.3867ZM239.652 20.1523C239.395 20.1523 239.078 19.9531 238.703 19.5547C238.422 19.2734 238.281 19.0625 238.281 18.9219C238.281 18.8516 238.328 18.8164 238.422 18.8164C238.516 18.793 238.633 18.7812 238.773 18.7812L239.547 18.7461C239.992 18.7461 240.285 18.7344 240.426 18.7109C240.871 18.7109 241.246 18.6992 241.551 18.6758C243.566 18.4883 244.926 18.3359 245.629 18.2188C245.98 18.1719 246.297 18.125 246.578 18.0781C246.859 18.0078 247.082 17.9727 247.246 17.9727C247.574 17.9727 247.902 18.1367 248.23 18.4648C248.488 18.7227 248.617 18.9336 248.617 19.0977C248.617 19.2383 248.535 19.332 248.371 19.3789C248.254 19.4023 247.562 19.4492 246.297 19.5195C245.594 19.543 244.727 19.6016 243.695 19.6953C242.664 19.7891 241.762 19.8828 240.988 19.9766C240.848 20 240.648 20.0352 240.391 20.082C240.133 20.1289 239.887 20.1523 239.652 20.1523ZM244.363 34.6719C243.637 34.6719 243.074 34.6484 242.676 34.6016C242.301 34.5547 241.984 34.4141 241.727 34.1797C241.281 33.8516 240.977 33.1367 240.812 32.0352L240.707 30.9102C240.707 30.6289 240.684 30.2773 240.637 29.8555C240.262 29.9023 239.992 29.9492 239.828 29.9961C239.781 30.0195 239.699 30.0547 239.582 30.1016C239.488 30.125 239.418 30.1367 239.371 30.1367C239.207 30.1367 239.055 30.0898 238.914 29.9961C238.773 29.9023 238.598 29.7266 238.387 29.4688C238.223 29.2578 238.141 29.1172 238.141 29.0469C238.141 28.9766 238.223 28.9297 238.387 28.9062C238.551 28.8828 238.773 28.8711 239.055 28.8711C239.453 28.8711 239.969 28.8242 240.602 28.7305L240.566 28.2383C240.566 27.3008 240.508 26.5039 240.391 25.8477L240.355 25.6016C240.355 25.2734 240.484 25.1445 240.742 25.2148C241.023 25.3086 241.281 25.4258 241.516 25.5664C241.703 25.6602 241.832 25.7539 241.902 25.8477C241.973 25.918 241.996 26.0234 241.973 26.1641L241.867 27.6758V28.5898L244.961 28.2734C244.961 28.1094 244.973 27.7227 244.996 27.1133C245.02 26.4805 245.02 26.0703 244.996 25.8828C244.996 25.6953 244.973 25.5195 244.926 25.3555C244.902 25.168 244.879 25.0156 244.855 24.8984C244.855 24.7109 244.949 24.6172 245.137 24.6172C245.324 24.6172 245.559 24.7227 245.84 24.9336C246.168 25.1445 246.379 25.332 246.473 25.4961C246.59 25.6602 246.613 25.8594 246.543 26.0938C246.426 26.4688 246.344 26.8906 246.297 27.3594C246.25 27.8281 246.227 28.1094 246.227 28.2031C246.508 28.1797 246.766 28.1445 247 28.0977C247.234 28.0508 247.387 28.0273 247.457 28.0273C247.645 27.9805 247.867 27.957 248.125 27.957C248.266 27.9805 248.465 28.1211 248.723 28.3789C248.934 28.6602 249.039 28.8828 249.039 29.0469C249.039 29.2812 248.816 29.375 248.371 29.3281C247.973 29.2578 247.574 29.2227 247.176 29.2227C246.777 29.2227 246.438 29.2344 246.156 29.2578C246.086 30.1016 245.945 30.9336 245.734 31.7539C245.688 31.9414 245.605 32.0938 245.488 32.2109C245.371 32.3516 245.266 32.4219 245.172 32.4219C245.008 32.4219 244.902 32.3516 244.855 32.2109C244.832 32.0938 244.82 31.8945 244.82 31.6133C244.867 31.0039 244.891 30.2422 244.891 29.3281C244.258 29.375 243.766 29.4219 243.414 29.4688C242.875 29.5859 242.371 29.6562 241.902 29.6797C241.879 30.6406 241.926 31.4961 242.043 32.2461C242.113 32.7383 242.254 33.0781 242.465 33.2656C242.605 33.3828 242.77 33.4531 242.957 33.4766C243.168 33.5 243.379 33.5117 243.59 33.5117C243.801 33.5117 243.941 33.5117 244.012 33.5117C244.738 33.5117 245.418 33.4766 246.051 33.4062C246.238 33.3828 246.402 33.3359 246.543 33.2656C246.707 33.1953 246.824 33.1602 246.895 33.1602C247.105 33.1602 247.316 33.2305 247.527 33.3711C247.738 33.5117 247.844 33.6758 247.844 33.8633C247.844 34.0508 247.738 34.1914 247.527 34.2852C247.34 34.3789 247.035 34.4609 246.613 34.5312C245.863 34.625 245.113 34.6719 244.363 34.6719ZM254.383 18.6758C254.664 18.6758 254.805 18.8047 254.805 19.0625C254.805 19.2031 254.676 19.4023 254.418 19.6602C253.715 20.5273 252.32 22.1797 250.234 24.6172C250.07 24.8281 249.918 24.9336 249.777 24.9336C249.66 24.9336 249.402 24.7578 249.004 24.4062C248.676 24.125 248.512 23.8906 248.512 23.7031C248.512 23.4922 248.688 23.293 249.039 23.1055C249.578 22.8008 250.387 22.1914 251.465 21.2773C252.543 20.3164 253.34 19.5547 253.855 18.9922C254.066 18.7812 254.242 18.6758 254.383 18.6758ZM209.699 30.1719C211.785 29.5156 213.648 28.8008 215.289 28.0273C214.938 27.5352 214.492 26.9727 213.953 26.3398C213.766 26.1055 213.672 25.918 213.672 25.7773C213.672 25.5195 213.824 25.2969 214.129 25.1094C214.434 24.8984 214.668 24.793 214.832 24.793C215.02 24.793 215.219 24.9102 215.43 25.1445C216.766 26.7148 217.902 28.0977 218.84 29.293C219.777 30.4883 220.246 31.2148 220.246 31.4727C220.246 31.6836 220.082 31.9297 219.754 32.2109C219.449 32.5156 219.156 32.668 218.875 32.668C218.641 32.668 218.406 32.4805 218.172 32.1055C217.633 31.2852 217.023 30.3945 216.344 29.4336L212.125 31.543C211.656 31.7539 210.918 32.1289 209.91 32.668C209.066 33.1133 208.551 33.3359 208.363 33.3359C208.223 33.3359 208.047 33.2422 207.836 33.0547C207.625 32.8906 207.461 32.6797 207.344 32.4219C207.25 32.1875 207.25 32 207.344 31.8594C207.484 31.6016 207.555 30.5703 207.555 28.7656V16.6016C207.555 16.0391 207.531 15.582 207.484 15.2305C207.461 14.8789 207.367 14.5039 207.203 14.1055C207.18 14.0352 207.156 13.9766 207.133 13.9297C207.109 13.8828 207.098 13.8359 207.098 13.7891C207.098 13.6719 207.18 13.6133 207.344 13.6133C207.648 13.6133 208.41 13.8711 209.629 14.3867L217.258 13.8594C217.445 13.8359 217.656 13.8242 217.891 13.8242C218.148 13.8242 218.453 13.9414 218.805 14.1758C219.156 14.3867 219.332 14.6211 219.332 14.8789C219.332 14.9727 219.273 15.1133 219.156 15.3008C219.062 15.4883 219.016 15.6289 219.016 15.7227L218.102 22.332C218.664 22.9883 218.945 23.4336 218.945 23.668C218.945 23.7852 218.875 23.8672 218.734 23.9141C218.617 23.9609 218.43 23.9844 218.172 23.9844L209.664 24.3008L209.699 30.1719ZM203.934 14.3867C203.934 14.1523 204.086 13.8711 204.391 13.543C206.102 11.6445 207.59 9.75781 208.855 7.88281C210.121 6.00781 210.754 4.75391 210.754 4.12109L210.719 3.875V3.76953C210.719 3.44141 210.848 3.27734 211.105 3.27734C211.41 3.27734 211.832 3.48828 212.371 3.91016C212.934 4.30859 213.215 4.63672 213.215 4.89453C213.215 5.01172 213.156 5.16406 213.039 5.35156C212.688 5.91406 212.301 6.47656 211.879 7.03906L216.871 6.65234C217.293 6.62891 217.738 6.53516 218.207 6.37109C218.348 6.32422 218.453 6.30078 218.523 6.30078C218.875 6.30078 219.25 6.5 219.648 6.89844C220.07 7.27344 220.281 7.56641 220.281 7.77734C220.281 8.05859 220.023 8.22266 219.508 8.26953L213.496 8.69141C213.66 8.73828 214.023 8.98438 214.586 9.42969C215.172 9.875 215.699 10.332 216.168 10.8008C216.637 11.2695 216.871 11.5977 216.871 11.7852C216.871 11.9961 216.73 12.2539 216.449 12.5586C216.168 12.8398 215.922 12.9805 215.711 12.9805C215.523 12.9805 215.301 12.8281 215.043 12.5234C214.246 11.6563 213.438 10.8945 212.617 10.2383C212.336 10.0039 212.195 9.80469 212.195 9.64062C212.195 9.52344 212.254 9.37109 212.371 9.18359C212.488 8.99609 212.641 8.84375 212.828 8.72656L210.473 8.90234C209.348 10.2852 208.105 11.5859 206.746 12.8047C205.387 14 204.52 14.5977 204.145 14.5977C204.004 14.5977 203.934 14.5273 203.934 14.3867ZM216.59 18.043L216.836 15.582L209.594 16.0742V18.3945L216.59 18.043ZM216.133 22.4023L216.414 19.6953L209.629 20.0117V22.6484L216.133 22.4023ZM218.031 12.875C218.031 12.6406 218.184 12.3594 218.488 12.0312C219.637 10.6484 220.68 9.08984 221.617 7.35547C222.578 5.59766 223.059 4.36719 223.059 3.66406V3.52344C223.059 3.17188 223.188 2.99609 223.445 2.99609C223.609 2.99609 223.855 3.08984 224.184 3.27734C224.535 3.44141 224.852 3.64063 225.133 3.875C225.414 4.10937 225.555 4.34375 225.555 4.57812C225.555 4.78906 225.391 5.16406 225.062 5.70312C224.734 6.24219 224.559 6.52344 224.535 6.54688L231.461 5.98438C231.977 5.9375 232.422 5.85547 232.797 5.73828C232.844 5.71484 232.938 5.70312 233.078 5.70312C233.406 5.70312 233.758 5.89063 234.133 6.26562C234.531 6.61719 234.73 6.91016 234.73 7.14453C234.73 7.28516 234.66 7.40234 234.52 7.49609C234.402 7.56641 234.238 7.61328 234.027 7.63672L226.891 8.12891C227.547 8.55078 228.32 9.17187 229.211 9.99219C230.102 10.7891 230.547 11.3281 230.547 11.6094C230.547 11.7734 230.418 12.0312 230.16 12.3828C229.902 12.7109 229.656 12.875 229.422 12.875C229.234 12.875 229.035 12.7578 228.824 12.5234C227.676 11.2812 226.633 10.2969 225.695 9.57031C225.461 9.38281 225.344 9.20703 225.344 9.04297C225.344 8.85547 225.52 8.57422 225.871 8.19922L223.27 8.375C222.496 9.40625 221.559 10.4492 220.457 11.5039C219.379 12.5586 218.652 13.0859 218.277 13.0859C218.113 13.0859 218.031 13.0156 218.031 12.875ZM221.336 13.6484C221.336 13.5078 221.418 13.4375 221.582 13.4375C221.934 13.4375 222.73 13.7305 223.973 14.3164L231.039 13.7188L231.32 13.6836C231.414 13.6836 231.59 13.7305 231.848 13.8242C232.129 13.8945 232.387 14.0234 232.621 14.2109C232.879 14.375 233.008 14.5977 233.008 14.8789C233.008 14.9727 232.973 15.1016 232.902 15.2656C232.832 15.4297 232.797 15.5469 232.797 15.6172C232.773 18.1953 232.609 20.9492 232.305 23.8789L232.234 24.7578C232.164 25.7422 232.07 26.5625 231.953 27.2188C231.836 27.875 231.637 28.3906 231.355 28.7656C230.91 29.375 230.43 29.6797 229.914 29.6797C229.398 29.6797 228.742 29.3633 227.945 28.7305C227.148 28.0977 226.41 27.4062 225.73 26.6562C225.074 25.9062 224.746 25.4258 224.746 25.2148C224.746 25.0508 224.84 24.9688 225.027 24.9688C225.238 24.9688 225.531 25.0859 225.906 25.3203C226.773 25.8594 227.5 26.293 228.086 26.6211C228.672 26.9492 229.094 27.1133 229.352 27.1133C229.469 27.1133 229.551 27.0312 229.598 26.8672C230.137 23.8672 230.465 20.1055 230.582 15.582L223.973 16.0742C223.973 20.0352 224.008 26.3164 224.078 34.918C224.078 35.1289 224.02 35.2812 223.902 35.375C223.809 35.4922 223.68 35.5508 223.516 35.5508C223.328 35.5508 223.105 35.4805 222.848 35.3398C222.402 35.1523 222.086 34.9766 221.898 34.8125C221.711 34.6484 221.617 34.4609 221.617 34.25L221.652 34.0039C221.793 33.2305 221.863 32.3633 221.863 31.4023L221.758 16.5664C221.758 15.957 221.734 15.4883 221.688 15.1602C221.664 14.832 221.594 14.5156 221.477 14.2109C221.383 13.9297 221.336 13.7422 221.336 13.6484Z" fill="#333333"/>
<path d="M136.719 72.8438C136.573 72.8438 136.646 72.7188 136.938 72.4688C137.229 72.2188 137.583 71.9167 138 71.5625C138.417 71.1875 138.885 70.6979 139.406 70.0938C139.74 69.6979 139.99 69.2812 140.156 68.8438C140.26 68.5938 140.375 68.4688 140.5 68.4688C140.604 68.4688 140.76 68.5521 140.969 68.7188C141.385 69.0521 141.594 69.3333 141.594 69.5625C141.594 69.7083 141.51 69.8125 141.344 69.875C141.26 69.8958 141.135 69.9896 140.969 70.1562C140.802 70.3021 140.677 70.4167 140.594 70.5C139.698 71.375 138.865 72.0104 138.094 72.4062C137.469 72.6979 137.052 72.8438 136.844 72.8438H136.719ZM140 78.6562C139.938 78.6562 139.833 78.5729 139.688 78.4062C139.562 78.2188 139.469 78.0417 139.406 77.875C139.385 77.75 139.385 77.5938 139.406 77.4062C139.448 77.1979 139.469 77.0417 139.469 76.9375C139.51 76.5208 139.531 76.1875 139.531 75.9375C139.552 75.7083 139.552 75.4583 139.531 75.1875C139.531 74.9167 139.531 74.7396 139.531 74.6562L139.5 74.1875C139 74.5417 138.615 74.7917 138.344 74.9375C137.74 75.2708 137.302 75.4792 137.031 75.5625C136.698 75.6875 136.396 75.75 136.125 75.75C135.979 75.75 135.896 75.7292 135.875 75.6875C135.833 75.6042 136.25 75.3021 137.125 74.7812C137.958 74.2604 138.865 73.5729 139.844 72.7188C140.385 72.2188 140.802 71.7396 141.094 71.2812C141.135 71.2188 141.167 71.1458 141.188 71.0625C141.229 70.9583 141.271 70.8958 141.312 70.875C141.375 70.8542 141.458 70.8646 141.562 70.9062C141.833 71.0521 142.062 71.2604 142.25 71.5312C142.333 71.6354 142.375 71.7396 142.375 71.8438C142.375 71.9479 142.323 72.0521 142.219 72.1562C142.115 72.2396 142.01 72.3021 141.906 72.3438C141.552 72.5729 141.229 72.8229 140.938 73.0938C140.646 73.3646 140.458 73.5417 140.375 73.625C140.688 73.875 140.844 74.0521 140.844 74.1562L140.75 74.8125C140.708 75 140.688 75.4688 140.688 76.2188C140.688 76.9479 140.708 77.4375 140.75 77.6875V77.75C140.75 77.8542 140.719 77.9688 140.656 78.0938C140.615 78.1979 140.583 78.2708 140.562 78.3125C140.417 78.5417 140.229 78.6562 140 78.6562ZM119.75 72.6562C119.25 72.6979 118.896 72.7188 118.688 72.7188C118.271 72.7188 118 72.6562 117.875 72.5312C117.625 72.3021 117.396 72.0104 117.188 71.6562C117 71.2812 116.906 71.0521 116.906 70.9688C116.906 70.8646 117.021 70.8125 117.25 70.8125C117.604 70.8958 118 70.9375 118.438 70.9375C118.646 70.9375 119 70.9167 119.5 70.875L127.031 70.3125H127.438C127.917 70.3125 128.302 70.4583 128.594 70.75C128.906 71.0208 129.062 71.2708 129.062 71.5C129.062 71.6667 128.99 71.8125 128.844 71.9375C128.719 72.0625 128.573 72.1771 128.406 72.2812C128.24 72.3646 128.125 72.4375 128.062 72.5C125.125 75.0625 123.042 76.9375 121.812 78.125C120.938 78.9583 120.25 79.7812 119.75 80.5938C119.25 81.4062 119 82.0417 119 82.5C119 82.9583 119.167 83.3125 119.5 83.5625C119.854 83.7917 120.396 83.9479 121.125 84.0312C121.854 84.1146 122.885 84.1562 124.219 84.1562C126.385 84.1562 128.292 84.0417 129.938 83.8125C130.333 83.7708 130.625 83.625 130.812 83.375C131.021 83.125 131.198 82.6979 131.344 82.0938C131.51 81.4688 131.729 80.4062 132 78.9062C132.083 78.4896 132.177 78.1667 132.281 77.9375C132.385 77.7083 132.49 77.5938 132.594 77.5938C132.698 77.5938 132.781 77.7188 132.844 77.9688C132.927 78.1979 132.969 78.5417 132.969 79C132.969 80.8542 132.906 82.2188 132.781 83.0938C132.677 83.9479 132.448 84.5729 132.094 84.9688C131.74 85.3646 131.167 85.625 130.375 85.75C128.521 86 126.427 86.125 124.094 86.125C122.552 86.125 121.167 86.0625 119.938 85.9375C118.917 85.8333 118.156 85.4479 117.656 84.7812C117.177 84.1146 116.938 83.3646 116.938 82.5312C116.938 81.8229 117.219 80.9688 117.781 79.9688C118.344 78.9688 119.062 78.0625 119.938 77.25C121.104 76.1667 122.958 74.4896 125.5 72.2188L119.75 72.6562ZM105.219 65.4688C105.219 65.3229 105.323 65.25 105.531 65.25C105.844 65.25 106.531 65.4479 107.594 65.8438L112.031 65.5625C112.198 65.5417 112.406 65.5312 112.656 65.5312C113.031 65.5312 113.333 65.6458 113.562 65.875C113.812 66.1042 113.938 66.3542 113.938 66.625C113.938 66.75 113.906 66.8854 113.844 67.0312C113.802 67.1771 113.771 67.2812 113.75 67.3438L113.156 74.6562C113.656 75.3021 113.906 75.75 113.906 76C113.906 76.1458 113.844 76.2396 113.719 76.2812C113.594 76.3021 113.365 76.3229 113.031 76.3438L108.031 76.5312L108.094 78.1875V78.25C108.094 78.6458 107.917 78.8438 107.562 78.8438C107.229 78.8438 106.885 78.7396 106.531 78.5312C106.198 78.3229 106.031 78.0104 106.031 77.5938C106.031 77.4479 106.042 77.3333 106.062 77.25C106.125 76.8958 106.156 76.5729 106.156 76.2812L106.125 75.6562L105.812 67.6875C105.771 66.9167 105.646 66.3542 105.438 66C105.292 65.75 105.219 65.5729 105.219 65.4688ZM107.938 74.75L111.312 74.6562L111.844 67.3438L107.656 67.5625L107.938 74.75ZM114.156 72.2812C114.156 72.1354 114.25 71.9062 114.438 71.5938C115.604 69.9271 116.656 68.1354 117.594 66.2188C118.552 64.3021 119.333 62.3958 119.938 60.5C120 60.3125 120.031 60.125 120.031 59.9375C120.031 59.6875 119.99 59.4375 119.906 59.1875C119.885 59.1458 119.875 59.0833 119.875 59C119.875 58.8125 119.979 58.7188 120.188 58.7188C120.354 58.7188 120.625 58.8021 121 58.9688C121.375 59.1354 121.708 59.3438 122 59.5938C122.292 59.8229 122.438 60.0417 122.438 60.25C122.438 60.375 122.406 60.5 122.344 60.625C121.656 62.3125 120.927 63.8438 120.156 65.2188L128.938 64.6562C129.375 64.6354 129.74 64.5521 130.031 64.4062C130.24 64.3229 130.385 64.2812 130.469 64.2812C130.781 64.2812 131.115 64.4792 131.469 64.875C131.823 65.2708 132 65.5938 132 65.8438C132 66.0938 131.719 66.2396 131.156 66.2812L119.094 67C118.198 68.4167 117.25 69.6875 116.25 70.8125C115.271 71.9375 114.635 72.5 114.344 72.5C114.219 72.5 114.156 72.4271 114.156 72.2812ZM184.469 68.1562C184.24 68.1562 183.958 67.9792 183.625 67.625C183.375 67.375 183.25 67.1875 183.25 67.0625C183.25 67 183.292 66.9688 183.375 66.9688C183.458 66.9479 183.562 66.9375 183.688 66.9375L184.375 66.9062C184.771 66.9062 185.031 66.8958 185.156 66.875C185.552 66.875 185.885 66.8646 186.156 66.8438C187.948 66.6771 189.156 66.5417 189.781 66.4375C190.094 66.3958 190.375 66.3542 190.625 66.3125C190.875 66.25 191.073 66.2188 191.219 66.2188C191.51 66.2188 191.802 66.3646 192.094 66.6562C192.323 66.8854 192.438 67.0729 192.438 67.2188C192.438 67.3438 192.365 67.4271 192.219 67.4688C192.115 67.4896 191.5 67.5312 190.375 67.5938C189.75 67.6146 188.979 67.6667 188.062 67.75C187.146 67.8333 186.344 67.9167 185.656 68C185.531 68.0208 185.354 68.0521 185.125 68.0938C184.896 68.1354 184.677 68.1562 184.469 68.1562ZM191.812 82.3438C191.792 82.3646 191.74 82.375 191.656 82.375C191.49 82.375 191.25 82.2604 190.938 82.0312C190.229 81.3229 189.302 80.4479 188.156 79.4062C187.615 79.9479 187.104 80.4167 186.625 80.8125C186.458 80.9375 186.167 81.125 185.75 81.375C185.146 81.7292 184.562 81.9479 184 82.0312H183.812C183.625 82.0312 183.51 82.0104 183.469 81.9688C183.448 81.9479 183.49 81.9062 183.594 81.8438C183.719 81.7812 183.812 81.7292 183.875 81.6875C184 81.625 184.354 81.3958 184.938 81C185.229 80.7917 185.646 80.4375 186.188 79.9375C186.729 79.4375 187.125 79.0312 187.375 78.7188L186.094 77.7188C185.865 77.5521 185.615 77.375 185.344 77.1875C185.094 76.9792 184.917 76.8438 184.812 76.7812L184.781 76.6875C184.781 76.5625 184.885 76.5 185.094 76.5C185.344 76.5 185.75 76.6562 186.312 76.9688L187.906 78C188.26 77.5417 188.615 77.0417 188.969 76.5C189.344 75.9375 189.542 75.6042 189.562 75.5C189.583 75.4375 189.573 75.3854 189.531 75.3438C189.51 75.2812 189.469 75.25 189.406 75.25H188.781L187.656 75.3438C187.094 75.3854 186.531 75.4583 185.969 75.5625C185.906 75.5833 185.802 75.6146 185.656 75.6562C185.51 75.6979 185.385 75.7188 185.281 75.7188C185.24 75.7188 185.062 75.6042 184.75 75.375C184.458 75.125 184.302 74.9688 184.281 74.9062C184.26 74.8854 184.25 74.8542 184.25 74.8125C184.25 74.7083 184.365 74.6667 184.594 74.6875C184.823 74.6875 184.969 74.6875 185.031 74.6875C185.615 74.6875 186.458 74.6354 187.562 74.5312L188.625 74.4375L189.594 74.3125C189.906 74.2292 190.083 74.1875 190.125 74.1875H190.188C190.292 74.1875 190.385 74.2188 190.469 74.2812C190.552 74.3438 190.615 74.4062 190.656 74.4688C190.698 74.5312 190.729 74.5729 190.75 74.5938C190.771 74.6146 190.833 74.6771 190.938 74.7812C191.042 74.8646 191.104 74.9479 191.125 75.0312C191.167 75.0938 191.188 75.1667 191.188 75.25C191.188 75.4375 191.115 75.5729 190.969 75.6562C190.865 75.6979 190.677 75.9167 190.406 76.3125C189.948 77.0417 189.396 77.8229 188.75 78.6562C189.104 78.8854 189.562 79.2188 190.125 79.6562C190.375 79.8229 190.781 80.1042 191.344 80.5C191.594 80.6875 191.781 80.9375 191.906 81.25C191.99 81.5833 192.031 81.8333 192.031 82C192.01 82.1667 191.938 82.2812 191.812 82.3438ZM193.562 71.2188C193.667 71.2188 193.823 71.2917 194.031 71.4375C194.01 71.4792 194.052 71.5625 194.156 71.6875C194.26 71.7917 194.333 71.8646 194.375 71.9062C194.479 72.0104 194.583 72.1354 194.688 72.2812C194.812 72.4271 194.948 72.5833 195.094 72.75C195.469 73.1458 196.333 74.1771 197.688 75.8438C197.917 76.1771 198.031 76.375 198.031 76.4375C198.031 76.6458 197.906 76.75 197.656 76.75C197.51 76.75 197.354 76.6458 197.188 76.4375C196.792 76.0208 196.083 75.3646 195.062 74.4688C194.271 73.7396 193.552 73.1771 192.906 72.7812C192.594 72.6354 192.438 72.4688 192.438 72.2812C192.438 72.1354 192.594 71.9271 192.906 71.6562C193.198 71.3646 193.417 71.2188 193.562 71.2188ZM167 85.1875V85.375C167 85.7917 166.865 86 166.594 86C166.469 86 166.271 85.9479 166 85.8438C165.75 85.7604 165.51 85.625 165.281 85.4375C165.073 85.25 164.969 85.0208 164.969 84.75L165 84.4062C165.021 84.1771 165.031 83.8021 165.031 83.2812V82.6875L164.438 70.4688C164.417 69.7396 164.292 69.1667 164.062 68.75C163.917 68.5208 163.844 68.3438 163.844 68.2188C163.844 68.0938 163.958 68.0312 164.188 68.0312C164.479 68.0312 165.156 68.1979 166.219 68.5312L170.688 68.2812L170.656 61.0938C170.656 60.5938 170.51 60.1562 170.219 59.7812C170.094 59.6146 170.031 59.4792 170.031 59.375C170.031 59.2292 170.167 59.1562 170.438 59.1562C170.667 59.1562 171.031 59.2188 171.531 59.3438C171.99 59.4479 172.281 59.5833 172.406 59.75C172.531 59.9167 172.594 60.125 172.594 60.375L172.562 68.1562L177.75 67.875L178.094 67.8438C178.406 67.8438 178.74 67.9792 179.094 68.25C179.448 68.5208 179.625 68.8021 179.625 69.0938C179.625 69.1979 179.583 69.3333 179.5 69.5C179.438 69.6458 179.406 69.7604 179.406 69.8438L178.375 82.375C178.917 83.0417 179.188 83.4896 179.188 83.7188C179.188 83.8646 179.115 83.9583 178.969 84C178.823 84.0208 178.562 84.0417 178.188 84.0625L166.969 84.375L167 85.1875ZM152.219 80.5312C152.219 80.3229 152.323 80.0521 152.531 79.7188C154.677 76.4271 156.469 72.6354 157.906 68.3438L155.406 68.5625C154.948 68.6042 154.656 68.625 154.531 68.625C154.24 68.625 154.01 68.5729 153.844 68.4688C153.406 68.0938 153.104 67.6875 152.938 67.25C152.917 67.2083 152.906 67.1458 152.906 67.0625C152.906 66.9167 152.99 66.8438 153.156 66.8438H153.312C153.688 66.9062 154.042 66.9375 154.375 66.9375H154.75L158.125 66.6562L158.188 60.9375C158.188 60.5417 158.052 60.1354 157.781 59.7188C157.698 59.6146 157.656 59.5104 157.656 59.4062C157.656 59.2396 157.792 59.1562 158.062 59.1562C158.312 59.1562 158.667 59.2396 159.125 59.4062C159.521 59.5521 159.771 59.6875 159.875 59.8125C159.979 59.9375 160.031 60.125 160.031 60.375L159.969 66.5L161.375 66.3438C161.833 66.3021 162.208 66.2292 162.5 66.125C162.625 66.0833 162.719 66.0625 162.781 66.0625C163.031 66.0625 163.333 66.2188 163.688 66.5312C164.042 66.8229 164.219 67.0833 164.219 67.3125C164.219 67.6042 164 67.7708 163.562 67.8125L159.938 68.1562L159.906 71C160.156 70.8125 160.365 70.7188 160.531 70.7188C160.76 70.7188 161.125 71.0104 161.625 71.5938C162.125 72.1771 162.594 72.8229 163.031 73.5312C163.49 74.2188 163.719 74.625 163.719 74.75C163.719 74.9792 163.594 75.1771 163.344 75.3438C163.115 75.5104 162.823 75.6458 162.469 75.75C162.344 75.75 162.229 75.7083 162.125 75.625C162.042 75.5208 161.948 75.375 161.844 75.1875C161.344 74.2708 160.698 73.25 159.906 72.125L159.719 86.2188C159.719 86.6979 159.552 86.9375 159.219 86.9375C158.99 86.9375 158.76 86.8646 158.531 86.7188C157.969 86.4479 157.688 86.0833 157.688 85.625C157.688 85.4792 157.698 85.375 157.719 85.3125C157.865 84.7083 157.938 84.0833 157.938 83.4375C158 79.6042 158.031 76.5729 158.031 74.3438C158.031 73.9479 158.073 73.2083 158.156 72.125C157.885 73.1667 157.344 74.3646 156.531 75.7188C155.719 77.0521 154.896 78.2292 154.062 79.25C153.229 80.25 152.677 80.75 152.406 80.75C152.281 80.75 152.219 80.6771 152.219 80.5312ZM166.531 75.3125L170.688 75.125V69.9688L166.281 70.1875L166.531 75.3125ZM166.875 82.6562L170.719 82.5312L170.688 76.7812L166.594 76.9688L166.875 82.6562ZM176.594 82.375L176.938 76.5L172.562 76.6875L172.531 82.5L176.594 82.375ZM177.031 74.8438L177.344 69.625L172.562 69.875V75.0312L177.031 74.8438ZM234.781 79.9062C234.615 79.9062 234.479 79.7708 234.375 79.5C234.208 79.1667 234.125 78.8958 234.125 78.6875L234.156 77.8438C234.177 77.4271 234.188 76.5938 234.188 75.3438V73.7812L234.156 72.6875C233.927 72.6875 233.688 72.7188 233.438 72.7812L232.719 72.9688C232.615 73.0104 232.448 72.9479 232.219 72.7812C231.99 72.6146 231.812 72.4271 231.688 72.2188C231.625 72.0938 231.594 72 231.594 71.9375C231.594 71.875 231.625 71.8333 231.688 71.8125C231.75 71.7917 231.823 71.7812 231.906 71.7812C232.885 71.7812 233.792 71.7292 234.625 71.625L235.562 71.5625C236.167 71.5208 236.625 71.4896 236.938 71.4688C237.271 71.4271 237.5 71.3958 237.625 71.375C237.792 71.3542 237.979 71.3333 238.188 71.3125C238.417 71.2708 238.562 71.2604 238.625 71.2812C238.708 71.3438 238.812 71.4062 238.938 71.4688C239.083 71.5312 239.24 71.6354 239.406 71.7812C239.51 71.8854 239.594 71.9896 239.656 72.0938C239.74 72.1771 239.781 72.2708 239.781 72.375C239.781 72.4583 239.729 72.5833 239.625 72.75C239.521 72.9167 239.417 73.1771 239.312 73.5312C239.229 73.8854 239.167 74.1354 239.125 74.2812C238.812 75.3229 238.427 76.0833 237.969 76.5625C237.635 76.8542 237.26 77 236.844 77C236.656 77 236.5 76.8646 236.375 76.5938C236.188 76.1771 235.979 75.8854 235.75 75.7188L235.781 75.5625C236.344 75.75 236.729 75.8438 236.938 75.8438C237.104 75.8438 237.219 75.8125 237.281 75.75C237.365 75.6875 237.438 75.5938 237.5 75.4688C237.604 75.1979 237.688 74.9583 237.75 74.75C237.833 74.5417 237.906 74.3542 237.969 74.1875C238.01 74 238.062 73.75 238.125 73.4375C238.208 73.125 238.26 72.875 238.281 72.6875C238.281 72.5 238.229 72.4062 238.125 72.4062H237.438C237.125 72.4062 236.771 72.4167 236.375 72.4375C235.979 72.4583 235.656 72.4896 235.406 72.5312L235.344 75.375L235.375 77C235.375 77.2292 235.375 77.4479 235.375 77.6562C235.396 77.8438 235.396 77.9792 235.375 78.0625C235.375 78.1875 235.375 78.3854 235.375 78.6562C235.396 78.9062 235.396 79.0833 235.375 79.1875L235.156 79.6875C235.01 79.8333 234.885 79.9062 234.781 79.9062ZM235.781 66.5C236.198 66.5 236.552 66.6458 236.844 66.9375C237.156 67.2083 237.312 67.5729 237.312 68.0312C237.312 68.4896 237.156 68.8646 236.844 69.1562C236.552 69.4271 236.198 69.5625 235.781 69.5625C235.365 69.5625 235 69.4271 234.688 69.1562C234.396 68.8646 234.25 68.4896 234.25 68.0312C234.25 67.5729 234.396 67.2083 234.688 66.9375C235 66.6458 235.365 66.5 235.781 66.5ZM216.125 73.5C216.458 75.8542 216.625 78.2917 216.625 80.8125L216.594 82.1875C216.552 83.7083 216.406 84.9167 216.156 85.8125C215.906 86.7292 215.458 87.1875 214.812 87.1875C214.354 87.1875 213.521 86.8229 212.312 86.0938C211.125 85.3646 210.021 84.5729 209 83.7188C208 82.8646 207.5 82.2708 207.5 81.9375C207.5 81.8125 207.583 81.75 207.75 81.75C208 81.75 208.344 81.875 208.781 82.125C210.74 83.2083 212.49 84.0312 214.031 84.5938H214.094C214.219 84.5938 214.281 84.5312 214.281 84.4062C214.49 82.9062 214.594 81.25 214.594 79.4375C214.594 77.3125 214.458 75.3646 214.188 73.5938L202.594 74.2188C202.385 74.2396 202.115 74.25 201.781 74.25C201.344 74.25 201.042 74.1667 200.875 74C200.729 73.8542 200.552 73.6354 200.344 73.3438C200.156 73.0521 200.062 72.7604 200.062 72.4688C200.062 72.3229 200.146 72.25 200.312 72.25C200.396 72.25 200.458 72.2604 200.5 72.2812C200.833 72.3646 201.229 72.4062 201.688 72.4062H202.031L213.875 71.75C213.583 70.4792 213.229 69.4792 212.812 68.75C212.646 68.4583 212.562 68.2396 212.562 68.0938C212.562 67.8854 212.688 67.7083 212.938 67.5625C213.188 67.4167 213.5 67.3125 213.875 67.25C214.125 67.25 214.354 67.4375 214.562 67.8125C216.979 65.9792 218.75 64.2917 219.875 62.75L208.312 63.5938C207.771 63.6354 207.427 63.6562 207.281 63.6562C206.656 63.6562 206.125 63.1458 205.688 62.125L205.625 61.8438C205.625 61.7188 205.698 61.6562 205.844 61.6562C205.927 61.6562 205.99 61.6667 206.031 61.6875C206.365 61.7708 206.729 61.8125 207.125 61.8125L207.656 61.7812L221.125 60.8125L221.531 60.7812C221.844 60.7812 222.177 60.9271 222.531 61.2188C222.906 61.4896 223.094 61.7708 223.094 62.0625C223.094 62.25 222.99 62.4167 222.781 62.5625C222.594 62.7083 222.469 62.8125 222.406 62.875C220.26 65.3125 217.885 67.5208 215.281 69.5C215.469 70.1458 215.646 70.8542 215.812 71.625L225.469 71.0938C226.01 71.0729 226.583 70.9688 227.188 70.7812C227.25 70.7604 227.344 70.75 227.469 70.75C227.844 70.75 228.25 70.9479 228.688 71.3438C229.125 71.7188 229.344 72.0417 229.344 72.3125C229.344 72.4583 229.271 72.5729 229.125 72.6562C229 72.7396 228.833 72.7917 228.625 72.8125H228.562L216.125 73.5Z" fill="#333333"/>
</svg>
