<svg width="350" height="88" viewBox="0 0 350 88" fill="none" xmlns="http://www.w3.org/2000/svg">
<path d="M131.582 14.457C131.23 14.457 130.914 14.3164 130.633 14.0352C130.281 13.7773 130.105 13.5781 130.105 13.4375C130.105 13.2734 130.375 13.1914 130.914 13.1914L132.637 13.0859L134.395 12.9102C134.441 12.5352 134.465 11.8203 134.465 10.7656C134.535 10.7656 134.172 10.8125 133.375 10.9062L132.707 11.0117C132.496 11.1055 132.309 11.1523 132.145 11.1523C132.004 11.1523 131.887 11.1055 131.793 11.0117C131.418 10.6836 131.23 10.4023 131.23 10.168V8.51562C131.23 8.35156 131.172 7.71875 131.055 6.61719L131.02 6.23047C131.02 6.04297 131.055 5.92578 131.125 5.87891C131.195 5.83203 131.324 5.83203 131.512 5.87891C132.215 6.06641 132.555 6.27734 132.531 6.51172L132.496 6.75781C132.449 7.08594 132.426 7.50781 132.426 8.02344C132.426 8.63281 132.438 9.01953 132.461 9.18359C132.508 9.65234 132.531 9.875 132.531 9.85156C132.555 9.94531 132.637 9.99219 132.777 9.99219C132.918 9.99219 133.199 9.95703 133.621 9.88672C134.066 9.79297 134.359 9.73437 134.5 9.71094V6.61719C134.5 5.75 134.465 5.16406 134.395 4.85938C134.348 4.625 134.324 4.49609 134.324 4.47266C134.324 4.30859 134.383 4.22656 134.5 4.22656C134.547 4.22656 134.711 4.27344 134.992 4.36719C135.438 4.57812 135.73 4.76563 135.871 4.92969C136.035 5.09375 136.094 5.26953 136.047 5.45703C135.977 5.69141 135.93 6.16016 135.906 6.86328C135.859 7.42578 135.812 8.33984 135.766 9.60547L136.961 9.57031C137.195 9.57031 137.371 9.55859 137.488 9.53516C137.605 9.51172 137.664 9.46484 137.664 9.39453C137.828 8.50391 137.934 7.73047 137.98 7.07422L138.016 6.65234C138.039 6.60547 138.039 6.52344 138.016 6.40625C138.016 6.28906 138.016 6.20703 138.016 6.16016L137.98 5.91406C137.98 5.70312 138.062 5.59766 138.227 5.59766C138.32 5.59766 138.52 5.69141 138.824 5.87891C138.895 5.92578 138.988 5.99609 139.105 6.08984C139.246 6.16016 139.34 6.24219 139.387 6.33594C139.434 6.40625 139.457 6.5 139.457 6.61719C139.457 6.75781 139.445 6.875 139.422 6.96875L139.035 8.9375L138.93 9.74609C138.836 10.2852 138.555 10.5781 138.086 10.625C137.945 10.6016 137.828 10.5664 137.734 10.5195C137.664 10.4727 137.605 10.4492 137.559 10.4492C137.277 10.4492 136.691 10.5078 135.801 10.625L135.766 12.8047L136.363 12.7695L136.926 12.7344C137.793 12.7344 138.438 12.6875 138.859 12.5938C139.047 12.5938 139.211 12.5703 139.352 12.5234L139.457 12.4883C139.691 12.4883 139.938 12.6523 140.195 12.9805C140.5 13.2852 140.652 13.5078 140.652 13.6484C140.652 13.8594 140.324 13.9297 139.668 13.8594L138.332 13.7891H136.574C136.223 13.7891 135.578 13.8359 134.641 13.9297C134.148 13.9297 133.703 13.9531 133.305 14C132.906 14.0469 132.531 14.1289 132.18 14.2461L131.582 14.457ZM139.211 23.668C138.859 23.668 138.52 23.4102 138.191 22.8945C137.77 22.2383 137.359 21.6992 136.961 21.2773L136.047 20.3281C135.555 20.8906 135.121 21.3359 134.746 21.6641C134.395 21.9922 133.949 22.3086 133.41 22.6133C132.402 23.1992 131.559 23.4922 130.879 23.4922C130.715 23.4922 130.633 23.4336 130.633 23.3164C130.633 23.2461 130.855 23.0938 131.301 22.8594C131.746 22.625 132.168 22.3438 132.566 22.0156C133.574 21.1719 134.406 20.3047 135.062 19.4141C134.922 19.2734 134.219 18.6641 132.953 17.5859C132.789 17.4688 132.543 17.2695 132.215 16.9883C132.145 16.9414 132.004 16.8359 131.793 16.6719C131.582 16.5078 131.477 16.3906 131.477 16.3203C131.477 16.2031 131.535 16.1445 131.652 16.1445C132.004 16.1445 132.566 16.3906 133.34 16.8828C134.113 17.3516 134.922 17.9141 135.766 18.5703C136.094 18.1719 136.352 17.7969 136.539 17.4453C136.727 17.0938 136.938 16.6602 137.172 16.1445C137.289 15.8867 137.359 15.6641 137.383 15.4766C137.406 15.2656 137.418 15.1367 137.418 15.0898C137.418 14.832 137.488 14.7031 137.629 14.7031C137.793 14.7031 138.016 14.832 138.297 15.0898C138.789 15.5586 139.035 15.875 139.035 16.0391C139.035 16.1328 138.977 16.2383 138.859 16.3555C138.578 16.6367 138.32 17.0117 138.086 17.4805C137.945 17.7617 137.688 18.1602 137.312 18.6758C137.195 18.8164 137.102 18.9453 137.031 19.0625C136.961 19.1797 136.891 19.2852 136.82 19.3789C137.359 19.7773 138.156 20.457 139.211 21.418C139.469 21.6523 139.633 21.875 139.703 22.0859C139.797 22.2734 139.844 22.5312 139.844 22.8594C139.844 23.0938 139.785 23.293 139.668 23.457C139.551 23.5977 139.398 23.668 139.211 23.668ZM131.441 34.1797C131.09 34.1797 130.82 34.0859 130.633 33.8984C130.422 33.6875 130.316 33.5 130.316 33.3359C130.316 33.1719 130.41 32.9961 130.598 32.8086C130.621 32.7852 130.75 32.5977 130.984 32.2461C131.5 31.4258 132.086 30.3828 132.742 29.1172C133.422 27.8281 133.844 26.9492 134.008 26.4805C134.148 26.0352 134.277 25.6484 134.395 25.3203C134.535 24.9922 134.652 24.8281 134.746 24.8281C134.91 24.8281 135.051 24.8867 135.168 25.0039C135.285 25.0977 135.402 25.2383 135.52 25.4258C135.66 25.5898 135.766 25.707 135.836 25.7773C136 25.9648 136.082 26.1406 136.082 26.3047C136.082 26.4219 136.035 26.5391 135.941 26.6562C135.848 26.7734 135.789 26.8555 135.766 26.9023L134.219 29.5039C133.82 30.2305 133.293 31.1328 132.637 32.2109C132.543 32.3281 132.496 32.4453 132.496 32.5625C132.496 32.6562 132.602 32.7031 132.812 32.7031C133.258 32.7031 134.09 32.6445 135.309 32.5273C136.527 32.4336 137.348 32.3516 137.77 32.2812C138.379 32.2109 138.801 32.1406 139.035 32.0703C139.293 32 139.668 32.1758 140.16 32.5977C140.746 33.0898 140.875 33.4062 140.547 33.5469C140.359 33.6406 139.996 33.6875 139.457 33.6875H138.051C137.746 33.6875 137.266 33.7109 136.609 33.7578C136.211 33.7578 135.766 33.7695 135.273 33.793C134.781 33.8164 134.371 33.8398 134.043 33.8633C133.668 33.8867 132.941 33.957 131.863 34.0742L131.441 34.1797ZM112.457 35.1289C112.457 35.7148 112.223 36.0078 111.754 36.0078C111.402 36.0078 111.016 35.8789 110.594 35.6211C110.172 35.3867 109.961 35.0352 109.961 34.5664L109.996 34.3203C110.113 33.5703 110.172 32.8438 110.172 32.1406L110.207 23.0703L102.543 23.3867L102.648 24.4414V24.5469C102.648 24.9922 102.426 25.2148 101.98 25.2148C101.605 25.2148 101.219 25.0977 100.82 24.8633C100.422 24.6289 100.223 24.2891 100.223 23.8438V23.5625C100.27 23.0469 100.293 22.707 100.293 22.543C100.293 22.3086 100.27 21.9805 100.223 21.5586L99.5898 13.8945C99.5195 13.1211 99.3203 12.4648 98.9922 11.9258C98.8047 11.6211 98.7109 11.3984 98.7109 11.2578C98.7109 11.0703 98.8398 10.9766 99.0977 10.9766C99.5195 10.9766 100.34 11.2227 101.559 11.7148L110.277 11.1875L110.312 5.14062C110.312 4.60156 110.184 4.09766 109.926 3.62891C109.832 3.46484 109.785 3.3125 109.785 3.17188C109.785 2.98437 109.938 2.89062 110.242 2.89062C110.383 2.89062 110.641 2.9375 111.016 3.03125C111.414 3.10156 111.777 3.24219 112.105 3.45312C112.457 3.66406 112.633 3.94531 112.633 4.29688L112.598 11.0469L122.09 10.4844C122.301 10.4609 122.559 10.4492 122.863 10.4492C123.285 10.4492 123.625 10.543 123.883 10.7305C124.141 10.918 124.316 11.1289 124.41 11.3633C124.527 11.5742 124.586 11.7383 124.586 11.8555C124.586 11.9961 124.527 12.1719 124.41 12.3828C124.316 12.5938 124.27 12.7461 124.27 12.8398L123.285 20.4336C123.941 21.1836 124.27 21.7109 124.27 22.0156C124.27 22.2031 124.176 22.332 123.988 22.4023C123.801 22.4492 123.496 22.4844 123.074 22.5078L112.527 22.9648L112.457 35.1289ZM102.402 21.3828L110.242 21.0312L110.277 13.2617L101.734 13.7539L102.402 21.3828ZM121.105 20.5391L121.949 12.5938L112.598 13.1211L112.527 20.9258L121.105 20.5391ZM191.91 14.2812C191.559 14.2812 191.254 14.1523 190.996 13.8945C190.223 13.0508 189.438 12.2891 188.641 11.6094C187.75 10.8594 186.965 10.2969 186.285 9.92188C185.957 9.73437 185.793 9.44141 185.793 9.04297C185.793 8.97266 185.875 8.87891 186.039 8.76172C186.25 8.62109 186.59 8.31641 187.059 7.84766L188.324 6.61719C188.887 6.03125 189.355 5.50391 189.73 5.03516C190.129 4.56641 190.352 4.23828 190.398 4.05078C190.422 4.00391 190.445 3.91016 190.469 3.76953C190.516 3.60547 190.586 3.52344 190.68 3.52344C190.797 3.52344 190.949 3.58203 191.137 3.69922C191.348 3.81641 191.523 3.93359 191.664 4.05078C192.016 4.37891 192.191 4.66016 192.191 4.89453C192.168 4.96484 192.074 5.04688 191.91 5.14062C191.77 5.21094 191.641 5.28125 191.523 5.35156C191.406 5.44531 190.984 5.82031 190.258 6.47656L187.973 8.44531C187.574 8.77344 187.375 9.03125 187.375 9.21875C187.375 9.3125 187.562 9.46484 187.938 9.67578C188.383 9.95703 189.25 10.5313 190.539 11.3984C191.031 11.7266 191.5 12.0898 191.945 12.4883C192.32 12.8633 192.508 13.25 192.508 13.6484C192.508 13.8359 192.426 14 192.262 14.1406C192.168 14.2344 192.051 14.2812 191.91 14.2812ZM185.652 20.1523C185.395 20.1523 185.078 19.9531 184.703 19.5547C184.422 19.2734 184.281 19.0625 184.281 18.9219C184.281 18.8516 184.328 18.8164 184.422 18.8164C184.516 18.793 184.633 18.7812 184.773 18.7812L185.547 18.7461C185.992 18.7461 186.285 18.7344 186.426 18.7109C186.871 18.7109 187.246 18.6992 187.551 18.6758C189.566 18.4883 190.926 18.3359 191.629 18.2188C191.98 18.1719 192.297 18.125 192.578 18.0781C192.859 18.0078 193.082 17.9727 193.246 17.9727C193.574 17.9727 193.902 18.1367 194.23 18.4648C194.488 18.7227 194.617 18.9336 194.617 19.0977C194.617 19.2383 194.535 19.332 194.371 19.3789C194.254 19.4023 193.562 19.4492 192.297 19.5195C191.594 19.543 190.727 19.6016 189.695 19.6953C188.664 19.7891 187.762 19.8828 186.988 19.9766C186.848 20 186.648 20.0352 186.391 20.082C186.133 20.1289 185.887 20.1523 185.652 20.1523ZM193.914 34.0039C193.891 34.0273 193.832 34.0391 193.738 34.0391C193.551 34.0391 193.281 33.9102 192.93 33.6523C192.133 32.8555 191.09 31.8711 189.801 30.6992C189.191 31.3086 188.617 31.8359 188.078 32.2812C187.891 32.4219 187.562 32.6328 187.094 32.9141C186.414 33.3125 185.758 33.5586 185.125 33.6523H184.914C184.703 33.6523 184.574 33.6289 184.527 33.582C184.504 33.5586 184.551 33.5117 184.668 33.4414C184.809 33.3711 184.914 33.3125 184.984 33.2656C185.125 33.1953 185.523 32.9375 186.18 32.4922C186.508 32.2578 186.977 31.8594 187.586 31.2969C188.195 30.7344 188.641 30.2773 188.922 29.9258L187.48 28.8008C187.223 28.6133 186.941 28.4141 186.637 28.2031C186.355 27.9688 186.156 27.8164 186.039 27.7461L186.004 27.6406C186.004 27.5 186.121 27.4297 186.355 27.4297C186.637 27.4297 187.094 27.6055 187.727 27.957L189.52 29.1172C189.918 28.6016 190.316 28.0391 190.715 27.4297C191.137 26.7969 191.359 26.4219 191.383 26.3047C191.406 26.2344 191.395 26.1758 191.348 26.1289C191.324 26.0586 191.277 26.0234 191.207 26.0234H190.504L189.238 26.1289C188.605 26.1758 187.973 26.2578 187.34 26.375C187.27 26.3984 187.152 26.4336 186.988 26.4805C186.824 26.5273 186.684 26.5508 186.566 26.5508C186.52 26.5508 186.32 26.4219 185.969 26.1641C185.641 25.8828 185.465 25.707 185.441 25.6367C185.418 25.6133 185.406 25.5781 185.406 25.5312C185.406 25.4141 185.535 25.3672 185.793 25.3906C186.051 25.3906 186.215 25.3906 186.285 25.3906C186.941 25.3906 187.891 25.332 189.133 25.2148L190.328 25.1094L191.418 24.9688C191.77 24.875 191.969 24.8281 192.016 24.8281H192.086C192.203 24.8281 192.309 24.8633 192.402 24.9336C192.496 25.0039 192.566 25.0742 192.613 25.1445C192.66 25.2148 192.695 25.2617 192.719 25.2852C192.742 25.3086 192.812 25.3789 192.93 25.4961C193.047 25.5898 193.117 25.6836 193.141 25.7773C193.188 25.8477 193.211 25.9297 193.211 26.0234C193.211 26.2344 193.129 26.3867 192.965 26.4805C192.848 26.5273 192.637 26.7734 192.332 27.2188C191.816 28.0391 191.195 28.918 190.469 29.8555C190.867 30.1133 191.383 30.4883 192.016 30.9805C192.297 31.168 192.754 31.4844 193.387 31.9297C193.668 32.1406 193.879 32.4219 194.02 32.7734C194.113 33.1484 194.16 33.4297 194.16 33.6172C194.137 33.8047 194.055 33.9336 193.914 34.0039ZM174.789 19.8711C174.484 20.1055 174.262 20.2227 174.121 20.2227C173.98 20.2227 173.91 20.1523 173.91 20.0117C173.91 19.8008 174.027 19.5312 174.262 19.2031C175.176 17.8203 175.938 16.3789 176.547 14.8789C177.156 13.3789 177.461 12.2891 177.461 11.6094C177.461 11.4688 177.438 11.2578 177.391 10.9766L177.355 10.7656C177.355 10.4844 177.473 10.3438 177.707 10.3438C177.848 10.3438 178.117 10.4492 178.516 10.6602C178.914 10.8477 179.277 11.0938 179.605 11.3984C179.934 11.6797 180.098 11.9609 180.098 12.2422C180.098 12.5 179.852 13.0742 179.359 13.9648C178.891 14.8555 178.258 15.8281 177.461 16.8828C176.688 17.9375 175.855 18.875 174.965 19.6953C174.848 19.8125 174.789 19.8711 174.789 19.8711ZM149.09 28.9766C149.09 28.7422 149.266 28.3789 149.617 27.8867C151.938 24.8164 154.105 20.8555 156.121 16.0039L153.027 16.2852C152.277 16.3789 151.82 16.4258 151.656 16.4258C151.164 16.4258 150.766 16.2031 150.461 15.7578C150.156 15.2891 149.969 14.9141 149.898 14.6328C149.875 14.5859 149.863 14.5273 149.863 14.457C149.863 14.3164 149.934 14.2461 150.074 14.2461C150.145 14.2461 150.203 14.2578 150.25 14.2812C150.602 14.375 151.035 14.4219 151.551 14.4219C151.855 14.4219 152.09 14.4102 152.254 14.3867L156.684 13.9648L156.719 9.39453C155.781 9.72266 154.691 10.0625 153.449 10.4141C152.23 10.7422 151.434 10.9062 151.059 10.9062C150.707 10.9062 150.531 10.8008 150.531 10.5898C150.531 10.3555 150.766 10.1562 151.234 9.99219C153.789 8.98438 156.016 7.95312 157.914 6.89844C159.812 5.84375 160.926 5 161.254 4.36719C161.371 4.15625 161.5 4.05078 161.641 4.05078C161.898 4.05078 162.262 4.34375 162.73 4.92969C163.199 5.51562 163.434 5.96094 163.434 6.26562C163.434 6.42969 163.316 6.58203 163.082 6.72266C161.652 7.42578 160.211 8.05859 158.758 8.62109V13.7891L161.043 13.5781C161.512 13.5312 161.957 13.4141 162.379 13.2266C162.473 13.1797 162.566 13.1562 162.66 13.1562C162.941 13.1562 163.34 13.3672 163.855 13.7891C164.371 14.2109 164.629 14.5625 164.629 14.8438C164.629 15.1016 164.371 15.2539 163.855 15.3008L158.758 15.7578V17.832C159.016 17.6211 159.238 17.5156 159.426 17.5156C159.707 17.5156 160.27 17.9023 161.113 18.6758C161.957 19.4258 162.754 20.2344 163.504 21.1016C164.254 21.9688 164.629 22.5195 164.629 22.7539C164.629 23.0352 164.453 23.3398 164.102 23.668C163.773 23.9727 163.504 24.125 163.293 24.125C163.035 24.125 162.766 23.9258 162.484 23.5273C161.336 22.0039 160.094 20.5977 158.758 19.3086V34.2852C158.758 34.9414 158.547 35.2695 158.125 35.2695C157.984 35.2695 157.762 35.1875 157.457 35.0234C157.176 34.8828 156.918 34.6953 156.684 34.4609C156.473 34.25 156.367 34.0156 156.367 33.7578L156.402 33.5117C156.543 32.8086 156.613 31.8711 156.613 30.6992L156.648 21.5938C156.648 20.9844 156.695 20.1641 156.789 19.1328C156.203 20.6562 155.383 22.2031 154.328 23.7734C153.297 25.3203 152.289 26.6094 151.305 27.6406C150.32 28.6719 149.641 29.1875 149.266 29.1875C149.148 29.1875 149.09 29.1172 149.09 28.9766ZM160.867 34.6719C160.867 34.4609 161.125 34.1094 161.641 33.6172C164.5 30.9453 166.598 28.2969 167.934 25.6719C169.27 23.0469 170.102 20.4336 170.43 17.832C170.781 15.207 170.957 11.7734 170.957 7.53125V6.05469C170.957 5.49219 170.793 4.96484 170.465 4.47266C170.324 4.28516 170.254 4.13281 170.254 4.01562C170.254 3.85156 170.383 3.76953 170.641 3.76953C171.086 3.76953 171.637 3.91016 172.293 4.19141C172.973 4.44922 173.312 4.78906 173.312 5.21094C173.312 10.5078 173.066 14.9492 172.574 18.5352C173.723 21.7695 175.129 24.582 176.793 26.9727C178.48 29.3633 180.367 31.3203 182.453 32.8438C182.805 33.125 182.98 33.3242 182.98 33.4414C182.98 33.6289 182.711 33.8984 182.172 34.25C181.633 34.625 181.223 34.8125 180.941 34.8125C180.707 34.8125 180.039 34.25 178.938 33.125C177.836 32 176.629 30.4766 175.316 28.5547C174.004 26.6328 172.855 24.4531 171.871 22.0156L171.836 22.1211C171.227 24.3477 170.184 26.4219 168.707 28.3438C167.23 30.2656 165.73 31.8242 164.207 33.0195C162.684 34.2148 161.641 34.8125 161.078 34.8125C160.938 34.8125 160.867 34.7656 160.867 34.6719ZM164.137 12.0664C164.137 11.7617 164.301 11.5391 164.629 11.3984C164.957 11.2578 165.227 11.1875 165.438 11.1875C165.602 11.1875 165.73 11.2461 165.824 11.3633C165.941 11.457 166.07 11.6211 166.211 11.8555C166.586 12.6055 167.137 13.8828 167.863 15.6875C168.59 17.4688 168.953 18.5234 168.953 18.8516C168.953 19.1797 168.73 19.4375 168.285 19.625C167.863 19.7891 167.547 19.8711 167.336 19.8711C167.148 19.8711 166.996 19.8125 166.879 19.6953C166.785 19.5547 166.691 19.332 166.598 19.0273C165.941 16.6367 165.168 14.4805 164.277 12.5586C164.184 12.3242 164.137 12.1602 164.137 12.0664ZM246.121 14.3867C245.957 14.3867 245.781 14.2812 245.594 14.0703C245.453 13.9063 245.359 13.7773 245.312 13.6836C245.266 13.5664 245.266 13.4141 245.312 13.2266L245.348 12.3828C245.371 12.2188 245.383 11.8203 245.383 11.1875V10.0273L244.328 10.5195L243.098 11.0469C242.793 11.1641 242.477 11.3047 242.148 11.4688C241.867 11.6094 241.621 11.6797 241.41 11.6797C241.246 11.6563 241.059 11.5977 240.848 11.5039C240.637 11.4102 240.473 11.3281 240.355 11.2578C240.098 11.0938 239.98 10.918 240.004 10.7305L240.109 10.3789C240.109 10.1914 240.121 10.0273 240.145 9.88672L240.18 7.84766V5.94922C240.18 5.57422 240.156 5.25781 240.109 5C240.062 4.71875 240.027 4.51953 240.004 4.40234C240.004 4.28516 240.039 4.20313 240.109 4.15625C240.133 4.13281 240.191 4.12109 240.285 4.12109C240.449 4.12109 240.766 4.22656 241.234 4.4375C241.633 4.625 241.797 4.85938 241.727 5.14062C241.68 5.30469 241.633 5.55078 241.586 5.87891L241.48 9.92188C241.48 10.0391 241.492 10.1328 241.516 10.2031C241.562 10.25 241.609 10.2734 241.656 10.2734C241.938 10.2734 242.277 10.1914 242.676 10.0273C243.426 9.79297 244.07 9.55859 244.609 9.32422L245.383 9.00781V6.6875C245.383 5.75 245.324 4.84766 245.207 3.98047C245.184 3.91016 245.172 3.82812 245.172 3.73438C245.172 3.5 245.266 3.38281 245.453 3.38281C245.477 3.38281 245.605 3.42969 245.84 3.52344C246.191 3.71094 246.449 3.875 246.613 4.01562C246.777 4.15625 246.871 4.23828 246.895 4.26172C246.988 4.33203 247.035 4.40234 247.035 4.47266C247.035 4.51953 247.012 4.57812 246.965 4.64844C246.941 4.71875 246.918 4.77734 246.895 4.82422L246.789 5.87891L246.754 9.11328L246.789 12.2422C246.789 12.7813 246.754 13.25 246.684 13.6484C246.566 14.1406 246.379 14.3867 246.121 14.3867ZM239.652 20.1523C239.395 20.1523 239.078 19.9531 238.703 19.5547C238.422 19.2734 238.281 19.0625 238.281 18.9219C238.281 18.8516 238.328 18.8164 238.422 18.8164C238.516 18.793 238.633 18.7812 238.773 18.7812L239.547 18.7461C239.992 18.7461 240.285 18.7344 240.426 18.7109C240.871 18.7109 241.246 18.6992 241.551 18.6758C243.566 18.4883 244.926 18.3359 245.629 18.2188C245.98 18.1719 246.297 18.125 246.578 18.0781C246.859 18.0078 247.082 17.9727 247.246 17.9727C247.574 17.9727 247.902 18.1367 248.23 18.4648C248.488 18.7227 248.617 18.9336 248.617 19.0977C248.617 19.2383 248.535 19.332 248.371 19.3789C248.254 19.4023 247.562 19.4492 246.297 19.5195C245.594 19.543 244.727 19.6016 243.695 19.6953C242.664 19.7891 241.762 19.8828 240.988 19.9766C240.848 20 240.648 20.0352 240.391 20.082C240.133 20.1289 239.887 20.1523 239.652 20.1523ZM244.363 34.6719C243.637 34.6719 243.074 34.6484 242.676 34.6016C242.301 34.5547 241.984 34.4141 241.727 34.1797C241.281 33.8516 240.977 33.1367 240.812 32.0352L240.707 30.9102C240.707 30.6289 240.684 30.2773 240.637 29.8555C240.262 29.9023 239.992 29.9492 239.828 29.9961C239.781 30.0195 239.699 30.0547 239.582 30.1016C239.488 30.125 239.418 30.1367 239.371 30.1367C239.207 30.1367 239.055 30.0898 238.914 29.9961C238.773 29.9023 238.598 29.7266 238.387 29.4688C238.223 29.2578 238.141 29.1172 238.141 29.0469C238.141 28.9766 238.223 28.9297 238.387 28.9062C238.551 28.8828 238.773 28.8711 239.055 28.8711C239.453 28.8711 239.969 28.8242 240.602 28.7305L240.566 28.2383C240.566 27.3008 240.508 26.5039 240.391 25.8477L240.355 25.6016C240.355 25.2734 240.484 25.1445 240.742 25.2148C241.023 25.3086 241.281 25.4258 241.516 25.5664C241.703 25.6602 241.832 25.7539 241.902 25.8477C241.973 25.918 241.996 26.0234 241.973 26.1641L241.867 27.6758V28.5898L244.961 28.2734C244.961 28.1094 244.973 27.7227 244.996 27.1133C245.02 26.4805 245.02 26.0703 244.996 25.8828C244.996 25.6953 244.973 25.5195 244.926 25.3555C244.902 25.168 244.879 25.0156 244.855 24.8984C244.855 24.7109 244.949 24.6172 245.137 24.6172C245.324 24.6172 245.559 24.7227 245.84 24.9336C246.168 25.1445 246.379 25.332 246.473 25.4961C246.59 25.6602 246.613 25.8594 246.543 26.0938C246.426 26.4688 246.344 26.8906 246.297 27.3594C246.25 27.8281 246.227 28.1094 246.227 28.2031C246.508 28.1797 246.766 28.1445 247 28.0977C247.234 28.0508 247.387 28.0273 247.457 28.0273C247.645 27.9805 247.867 27.957 248.125 27.957C248.266 27.9805 248.465 28.1211 248.723 28.3789C248.934 28.6602 249.039 28.8828 249.039 29.0469C249.039 29.2812 248.816 29.375 248.371 29.3281C247.973 29.2578 247.574 29.2227 247.176 29.2227C246.777 29.2227 246.438 29.2344 246.156 29.2578C246.086 30.1016 245.945 30.9336 245.734 31.7539C245.688 31.9414 245.605 32.0938 245.488 32.2109C245.371 32.3516 245.266 32.4219 245.172 32.4219C245.008 32.4219 244.902 32.3516 244.855 32.2109C244.832 32.0938 244.82 31.8945 244.82 31.6133C244.867 31.0039 244.891 30.2422 244.891 29.3281C244.258 29.375 243.766 29.4219 243.414 29.4688C242.875 29.5859 242.371 29.6562 241.902 29.6797C241.879 30.6406 241.926 31.4961 242.043 32.2461C242.113 32.7383 242.254 33.0781 242.465 33.2656C242.605 33.3828 242.77 33.4531 242.957 33.4766C243.168 33.5 243.379 33.5117 243.59 33.5117C243.801 33.5117 243.941 33.5117 244.012 33.5117C244.738 33.5117 245.418 33.4766 246.051 33.4062C246.238 33.3828 246.402 33.3359 246.543 33.2656C246.707 33.1953 246.824 33.1602 246.895 33.1602C247.105 33.1602 247.316 33.2305 247.527 33.3711C247.738 33.5117 247.844 33.6758 247.844 33.8633C247.844 34.0508 247.738 34.1914 247.527 34.2852C247.34 34.3789 247.035 34.4609 246.613 34.5312C245.863 34.625 245.113 34.6719 244.363 34.6719ZM254.383 18.6758C254.664 18.6758 254.805 18.8047 254.805 19.0625C254.805 19.2031 254.676 19.4023 254.418 19.6602C253.715 20.5273 252.32 22.1797 250.234 24.6172C250.07 24.8281 249.918 24.9336 249.777 24.9336C249.66 24.9336 249.402 24.7578 249.004 24.4062C248.676 24.125 248.512 23.8906 248.512 23.7031C248.512 23.4922 248.688 23.293 249.039 23.1055C249.578 22.8008 250.387 22.1914 251.465 21.2773C252.543 20.3164 253.34 19.5547 253.855 18.9922C254.066 18.7812 254.242 18.6758 254.383 18.6758ZM209.699 30.1719C211.785 29.5156 213.648 28.8008 215.289 28.0273C214.938 27.5352 214.492 26.9727 213.953 26.3398C213.766 26.1055 213.672 25.918 213.672 25.7773C213.672 25.5195 213.824 25.2969 214.129 25.1094C214.434 24.8984 214.668 24.793 214.832 24.793C215.02 24.793 215.219 24.9102 215.43 25.1445C216.766 26.7148 217.902 28.0977 218.84 29.293C219.777 30.4883 220.246 31.2148 220.246 31.4727C220.246 31.6836 220.082 31.9297 219.754 32.2109C219.449 32.5156 219.156 32.668 218.875 32.668C218.641 32.668 218.406 32.4805 218.172 32.1055C217.633 31.2852 217.023 30.3945 216.344 29.4336L212.125 31.543C211.656 31.7539 210.918 32.1289 209.91 32.668C209.066 33.1133 208.551 33.3359 208.363 33.3359C208.223 33.3359 208.047 33.2422 207.836 33.0547C207.625 32.8906 207.461 32.6797 207.344 32.4219C207.25 32.1875 207.25 32 207.344 31.8594C207.484 31.6016 207.555 30.5703 207.555 28.7656V16.6016C207.555 16.0391 207.531 15.582 207.484 15.2305C207.461 14.8789 207.367 14.5039 207.203 14.1055C207.18 14.0352 207.156 13.9766 207.133 13.9297C207.109 13.8828 207.098 13.8359 207.098 13.7891C207.098 13.6719 207.18 13.6133 207.344 13.6133C207.648 13.6133 208.41 13.8711 209.629 14.3867L217.258 13.8594C217.445 13.8359 217.656 13.8242 217.891 13.8242C218.148 13.8242 218.453 13.9414 218.805 14.1758C219.156 14.3867 219.332 14.6211 219.332 14.8789C219.332 14.9727 219.273 15.1133 219.156 15.3008C219.062 15.4883 219.016 15.6289 219.016 15.7227L218.102 22.332C218.664 22.9883 218.945 23.4336 218.945 23.668C218.945 23.7852 218.875 23.8672 218.734 23.9141C218.617 23.9609 218.43 23.9844 218.172 23.9844L209.664 24.3008L209.699 30.1719ZM203.934 14.3867C203.934 14.1523 204.086 13.8711 204.391 13.543C206.102 11.6445 207.59 9.75781 208.855 7.88281C210.121 6.00781 210.754 4.75391 210.754 4.12109L210.719 3.875V3.76953C210.719 3.44141 210.848 3.27734 211.105 3.27734C211.41 3.27734 211.832 3.48828 212.371 3.91016C212.934 4.30859 213.215 4.63672 213.215 4.89453C213.215 5.01172 213.156 5.16406 213.039 5.35156C212.688 5.91406 212.301 6.47656 211.879 7.03906L216.871 6.65234C217.293 6.62891 217.738 6.53516 218.207 6.37109C218.348 6.32422 218.453 6.30078 218.523 6.30078C218.875 6.30078 219.25 6.5 219.648 6.89844C220.07 7.27344 220.281 7.56641 220.281 7.77734C220.281 8.05859 220.023 8.22266 219.508 8.26953L213.496 8.69141C213.66 8.73828 214.023 8.98438 214.586 9.42969C215.172 9.875 215.699 10.332 216.168 10.8008C216.637 11.2695 216.871 11.5977 216.871 11.7852C216.871 11.9961 216.73 12.2539 216.449 12.5586C216.168 12.8398 215.922 12.9805 215.711 12.9805C215.523 12.9805 215.301 12.8281 215.043 12.5234C214.246 11.6563 213.438 10.8945 212.617 10.2383C212.336 10.0039 212.195 9.80469 212.195 9.64062C212.195 9.52344 212.254 9.37109 212.371 9.18359C212.488 8.99609 212.641 8.84375 212.828 8.72656L210.473 8.90234C209.348 10.2852 208.105 11.5859 206.746 12.8047C205.387 14 204.52 14.5977 204.145 14.5977C204.004 14.5977 203.934 14.5273 203.934 14.3867ZM216.59 18.043L216.836 15.582L209.594 16.0742V18.3945L216.59 18.043ZM216.133 22.4023L216.414 19.6953L209.629 20.0117V22.6484L216.133 22.4023ZM218.031 12.875C218.031 12.6406 218.184 12.3594 218.488 12.0312C219.637 10.6484 220.68 9.08984 221.617 7.35547C222.578 5.59766 223.059 4.36719 223.059 3.66406V3.52344C223.059 3.17188 223.188 2.99609 223.445 2.99609C223.609 2.99609 223.855 3.08984 224.184 3.27734C224.535 3.44141 224.852 3.64063 225.133 3.875C225.414 4.10937 225.555 4.34375 225.555 4.57812C225.555 4.78906 225.391 5.16406 225.062 5.70312C224.734 6.24219 224.559 6.52344 224.535 6.54688L231.461 5.98438C231.977 5.9375 232.422 5.85547 232.797 5.73828C232.844 5.71484 232.938 5.70312 233.078 5.70312C233.406 5.70312 233.758 5.89063 234.133 6.26562C234.531 6.61719 234.73 6.91016 234.73 7.14453C234.73 7.28516 234.66 7.40234 234.52 7.49609C234.402 7.56641 234.238 7.61328 234.027 7.63672L226.891 8.12891C227.547 8.55078 228.32 9.17187 229.211 9.99219C230.102 10.7891 230.547 11.3281 230.547 11.6094C230.547 11.7734 230.418 12.0312 230.16 12.3828C229.902 12.7109 229.656 12.875 229.422 12.875C229.234 12.875 229.035 12.7578 228.824 12.5234C227.676 11.2812 226.633 10.2969 225.695 9.57031C225.461 9.38281 225.344 9.20703 225.344 9.04297C225.344 8.85547 225.52 8.57422 225.871 8.19922L223.27 8.375C222.496 9.40625 221.559 10.4492 220.457 11.5039C219.379 12.5586 218.652 13.0859 218.277 13.0859C218.113 13.0859 218.031 13.0156 218.031 12.875ZM221.336 13.6484C221.336 13.5078 221.418 13.4375 221.582 13.4375C221.934 13.4375 222.73 13.7305 223.973 14.3164L231.039 13.7188L231.32 13.6836C231.414 13.6836 231.59 13.7305 231.848 13.8242C232.129 13.8945 232.387 14.0234 232.621 14.2109C232.879 14.375 233.008 14.5977 233.008 14.8789C233.008 14.9727 232.973 15.1016 232.902 15.2656C232.832 15.4297 232.797 15.5469 232.797 15.6172C232.773 18.1953 232.609 20.9492 232.305 23.8789L232.234 24.7578C232.164 25.7422 232.07 26.5625 231.953 27.2188C231.836 27.875 231.637 28.3906 231.355 28.7656C230.91 29.375 230.43 29.6797 229.914 29.6797C229.398 29.6797 228.742 29.3633 227.945 28.7305C227.148 28.0977 226.41 27.4062 225.73 26.6562C225.074 25.9062 224.746 25.4258 224.746 25.2148C224.746 25.0508 224.84 24.9688 225.027 24.9688C225.238 24.9688 225.531 25.0859 225.906 25.3203C226.773 25.8594 227.5 26.293 228.086 26.6211C228.672 26.9492 229.094 27.1133 229.352 27.1133C229.469 27.1133 229.551 27.0312 229.598 26.8672C230.137 23.8672 230.465 20.1055 230.582 15.582L223.973 16.0742C223.973 20.0352 224.008 26.3164 224.078 34.918C224.078 35.1289 224.02 35.2812 223.902 35.375C223.809 35.4922 223.68 35.5508 223.516 35.5508C223.328 35.5508 223.105 35.4805 222.848 35.3398C222.402 35.1523 222.086 34.9766 221.898 34.8125C221.711 34.6484 221.617 34.4609 221.617 34.25L221.652 34.0039C221.793 33.2305 221.863 32.3633 221.863 31.4023L221.758 16.5664C221.758 15.957 221.734 15.4883 221.688 15.1602C221.664 14.832 221.594 14.5156 221.477 14.2109C221.383 13.9297 221.336 13.7422 221.336 13.6484Z" fill="#333333"/>
<path d="M159.594 72.125C159.448 72.125 159.354 72.1146 159.312 72.0938C159.292 72.0521 159.323 71.9792 159.406 71.875C159.698 71.6042 159.927 71.3438 160.094 71.0938C160.281 70.8229 160.479 70.3958 160.688 69.8125C161.021 68.8542 161.188 68.1146 161.188 67.5938C161.188 67.1146 161.156 66.6771 161.094 66.2812V66.1875C161.094 65.9583 161.24 65.8854 161.531 65.9688C161.781 66.0312 162.062 66.1146 162.375 66.2188C162.438 66.1979 162.531 66.1875 162.656 66.1875C162.781 66.1667 162.979 66.1354 163.25 66.0938C163.958 65.9896 164.875 65.8854 166 65.7812C166 65.6979 166.083 65.4062 166.25 64.9062L166.438 64.2188C166.521 63.9271 166.49 63.7812 166.344 63.7812C165.927 63.7812 164.958 63.8854 163.438 64.0938L161.781 64.375C161.635 64.3958 161.448 64.3333 161.219 64.1875C161.01 64.0417 160.844 63.875 160.719 63.6875C160.615 63.5 160.635 63.375 160.781 63.3125C160.948 63.2083 161.115 63.1562 161.281 63.1562C161.448 63.1562 161.552 63.1562 161.594 63.1562H162L164.062 63.0938L166.062 62.8438C166.167 62.8229 166.292 62.7917 166.438 62.75C166.604 62.6875 166.76 62.6458 166.906 62.625C167.115 62.5833 167.469 62.8125 167.969 63.3125C168.052 63.3958 168.094 63.4896 168.094 63.5938C168.094 63.7188 168.01 63.8438 167.844 63.9688C167.615 64.1979 167.469 64.3958 167.406 64.5625C167.385 64.6667 167.344 64.8229 167.281 65.0312C167.219 65.2188 167.156 65.4583 167.094 65.75C167.219 65.8958 167.281 66.0729 167.281 66.2812C167.281 66.4479 167.229 66.5729 167.125 66.6562C167.042 66.7188 166.865 66.75 166.594 66.75C165.656 66.8125 164.917 66.875 164.375 66.9375C163.833 66.9792 163.177 67.0833 162.406 67.25C162.323 68.1875 162.135 69.0521 161.844 69.8438C161.552 70.6146 161.146 71.1979 160.625 71.5938C160.125 71.9479 159.781 72.125 159.594 72.125ZM167.562 81.8438C167.854 82.0312 168 82.2083 168 82.375C168 82.6042 167.823 82.75 167.469 82.8125C167.115 82.875 166.615 82.9167 165.969 82.9375C165.031 82.9583 164.427 82.9271 164.156 82.8438C163.698 82.6354 163.469 82.2917 163.469 81.8125L163.5 80.6562C163.542 80.2812 163.562 79.9479 163.562 79.6562C163.583 79.4688 163.594 79.1042 163.594 78.5625C163.281 79.2708 162.875 79.9583 162.375 80.625C162.021 81.0625 161.708 81.4271 161.438 81.7188C161.167 81.9896 160.844 82.25 160.469 82.5C160.094 82.75 159.75 82.875 159.438 82.875C159.25 82.875 159.156 82.8125 159.156 82.6875C159.156 82.6667 159.354 82.5104 159.75 82.2188C160.167 81.9062 160.583 81.4792 161 80.9375C161.625 80.1042 162.167 79.125 162.625 78C161.812 78.1042 161.271 78.1979 161 78.2812C160.896 78.3021 160.802 78.3333 160.719 78.375C160.635 78.3958 160.531 78.3958 160.406 78.375C160.302 78.3333 160.156 78.25 159.969 78.125C159.781 77.9792 159.635 77.8438 159.531 77.7188C159.448 77.5938 159.406 77.5104 159.406 77.4688C159.406 77.3646 159.562 77.3125 159.875 77.3125C160.646 77.3125 161.635 77.2292 162.844 77.0625C162.969 76.5833 163.031 75.8125 163.031 74.75V74.1562C163.031 73.9062 163.083 73.7708 163.188 73.75C163.208 73.7292 163.25 73.7188 163.312 73.7188C163.479 73.7188 163.708 73.8438 164 74.0938C164.229 74.2812 164.375 74.4271 164.438 74.5312C164.521 74.6146 164.531 74.7292 164.469 74.875C164.448 74.9167 164.406 75 164.344 75.125C164.281 75.25 164.24 75.375 164.219 75.5C164.198 75.6042 164.156 75.8125 164.094 76.125C164.031 76.4167 163.99 76.6771 163.969 76.9062C164.26 76.8854 164.625 76.8438 165.062 76.7812C165.5 76.7188 165.823 76.6562 166.031 76.5938L166.656 76.4375C166.865 76.3958 167.208 76.5729 167.688 76.9688C167.771 77.0312 167.812 77.1042 167.812 77.1875C167.812 77.2708 167.771 77.3438 167.688 77.4062C167.625 77.4479 167.542 77.4688 167.438 77.4688C167.062 77.4688 166.375 77.5312 165.375 77.6562L164.344 77.75C164.573 77.9167 164.719 78.0625 164.781 78.1875C164.844 78.3125 164.854 78.4375 164.812 78.5625L164.719 79.0625C164.677 79.4792 164.635 79.9375 164.594 80.4375C164.573 80.9375 164.573 81.3229 164.594 81.5938C164.594 81.6979 164.656 81.7917 164.781 81.875C164.927 81.9583 165.073 82 165.219 82C165.74 82 166.323 81.9479 166.969 81.8438L167.25 81.7812C167.375 81.7812 167.479 81.8021 167.562 81.8438ZM173.688 70.7812C173.75 70.7812 173.812 70.8125 173.875 70.875C173.938 70.9167 173.979 70.9792 174 71.0625V71.125C174 71.2708 173.885 71.5521 173.656 71.9688L171.406 75.875C171.24 76.2292 171.021 76.4062 170.75 76.4062C170.479 76.4062 170.25 76.2396 170.062 75.9062C169.875 75.6354 169.646 75.2292 169.375 74.6875C169.25 74.5 169.146 74.3125 169.062 74.125C168.979 73.9375 168.917 73.8021 168.875 73.7188C168.646 73.3229 168.531 73.0417 168.531 72.875C168.531 72.7917 168.562 72.7292 168.625 72.6875C168.688 72.625 168.75 72.5938 168.812 72.5938C169.042 72.5938 169.25 72.7188 169.438 72.9688C169.583 73.1146 169.698 73.2708 169.781 73.4375L170.125 73.9062L170.75 74.625L171.031 74.1875C171.323 73.6875 172.01 72.6979 173.094 71.2188C173.323 70.9271 173.521 70.7812 173.688 70.7812ZM136.906 82V82.0938C136.906 82.4688 136.719 82.6562 136.344 82.6562C136.073 82.6562 135.76 82.5833 135.406 82.4375C135.052 82.2917 134.875 82 134.875 81.5625L134.906 81.3438C134.969 80.9896 135 80.625 135 80.25L134.969 79.5938L134.562 73.3438C134.521 72.6771 134.448 72.25 134.344 72.0625C134.302 72 134.25 71.9062 134.188 71.7812C134.125 71.6562 134.094 71.5625 134.094 71.5C134.094 71.3958 134.177 71.3438 134.344 71.3438C134.677 71.3438 135.344 71.5312 136.344 71.9062L149.094 71.25H149.469C149.76 71.25 150.062 71.3438 150.375 71.5312C150.708 71.6979 150.875 71.9062 150.875 72.1562C150.875 72.2396 150.844 72.3438 150.781 72.4688C150.74 72.5729 150.708 72.6667 150.688 72.75L150.125 79.4688C150.625 79.9896 150.875 80.375 150.875 80.625C150.875 80.75 150.812 80.8333 150.688 80.875C150.562 80.8958 150.333 80.9167 150 80.9375L136.875 81.3438L136.906 82ZM129.406 69C129.406 68.8542 129.448 68.7083 129.531 68.5625C129.969 67.7083 130.365 66.7188 130.719 65.5938C131.073 64.4479 131.323 63.3854 131.469 62.4062C131.51 62.1562 131.562 61.9792 131.625 61.875C131.708 61.75 131.844 61.6875 132.031 61.6875C132.26 61.6875 132.5 61.7292 132.75 61.8125C133.021 61.8958 133.156 62.0938 133.156 62.4062C133.156 62.5312 133.146 62.6354 133.125 62.7188L132.938 63.9062L141.469 63.4062L141.531 60.125C141.531 59.7292 141.385 59.2917 141.094 58.8125C141.01 58.7083 140.969 58.5938 140.969 58.4688C140.969 58.3021 141.104 58.2188 141.375 58.2188C141.729 58.2188 142.167 58.3229 142.688 58.5312C143.229 58.7396 143.5 59 143.5 59.3125V59.375L143.312 63.2812L145.281 63.1562C146.531 62.0729 147.333 61.2396 147.688 60.6562C148.062 60.0521 148.26 59.5417 148.281 59.125C148.281 59.0208 148.302 58.9375 148.344 58.875C148.406 58.8125 148.479 58.7812 148.562 58.7812C148.812 58.7812 149.188 59 149.688 59.4375C150.083 59.8125 150.281 60.1146 150.281 60.3438C150.281 60.5729 149.948 60.9792 149.281 61.5625C148.615 62.125 147.938 62.6146 147.25 63.0312L154.188 62.625H154.594C155.052 62.625 155.427 62.7396 155.719 62.9688C156.01 63.1979 156.156 63.4167 156.156 63.625C156.156 63.75 156.083 63.875 155.938 64C155.792 64.1042 155.688 64.1979 155.625 64.2812C154.583 65.6146 153.646 66.6354 152.812 67.3438C152 68.0312 151.469 68.375 151.219 68.375C151.094 68.375 151.031 68.3125 151.031 68.1875C151.031 68 151.135 67.7604 151.344 67.4688C152.24 66.2396 152.906 65.125 153.344 64.125L132.656 65.2812C132.177 67.2604 131.802 68.5417 131.531 69.125C131.26 69.6875 131.021 69.9688 130.812 69.9688C130.708 69.9479 130.542 69.9062 130.312 69.8438C130.104 69.7604 129.896 69.6458 129.688 69.5C129.5 69.3542 129.406 69.1875 129.406 69ZM130.875 86.6562C130.875 86.4896 131.073 86.3333 131.469 86.1875C133.51 85.4792 135.188 84.7188 136.5 83.9062C137.812 83.0729 138.552 82.3854 138.719 81.8438C138.781 81.6562 138.885 81.5625 139.031 81.5625C139.26 81.5625 139.583 81.8229 140 82.3438C140.417 82.8438 140.625 83.2396 140.625 83.5312C140.625 83.7188 140.5 83.8854 140.25 84.0312C137.229 85.5521 134.354 86.5 131.625 86.875L131.375 86.9062C131.042 86.9062 130.875 86.8229 130.875 86.6562ZM134.406 60.4062C134.406 60.2396 134.479 60.0521 134.625 59.8438C134.771 59.6146 134.948 59.5 135.156 59.5C135.302 59.5 135.729 59.7083 136.438 60.125C137.167 60.5208 137.833 60.9583 138.438 61.4375C139.042 61.8958 139.344 62.2396 139.344 62.4688C139.344 62.7604 139.219 63.0208 138.969 63.25C138.719 63.4583 138.531 63.5625 138.406 63.5625C138.219 63.5625 138.01 63.4479 137.781 63.2188C136.885 62.3646 135.865 61.5625 134.719 60.8125C134.51 60.6667 134.406 60.5312 134.406 60.4062ZM135.5 65.8438C135.5 65.7396 135.583 65.6875 135.75 65.6875C136.062 65.6875 136.74 65.8646 137.781 66.2188L147.156 65.6562H147.469C147.823 65.6562 148.135 65.7604 148.406 65.9688C148.698 66.1562 148.844 66.3438 148.844 66.5312C148.844 66.6146 148.812 66.7188 148.75 66.8438C148.688 66.9479 148.646 67.0312 148.625 67.0938L148.281 68.6562C148.677 69.1354 148.875 69.4792 148.875 69.6875C148.875 69.8125 148.812 69.8958 148.688 69.9375C148.562 69.9792 148.354 70.0104 148.062 70.0312L138.25 70.4688L138.281 70.75V70.8125C138.281 71.125 138.104 71.2812 137.75 71.2812C137.438 71.2812 137.115 71.2188 136.781 71.0938C136.448 70.9688 136.281 70.7396 136.281 70.4062V70.25C136.323 69.875 136.344 69.625 136.344 69.5C136.344 69.375 136.323 69.1667 136.281 68.875L136.094 67.6562C136.01 67.0729 135.875 66.625 135.688 66.3125C135.562 66.0833 135.5 65.9271 135.5 65.8438ZM136.5 74.5312L148.594 73.9688L148.688 72.6875L136.438 73.2812L136.5 74.5312ZM136.656 77.125L148.406 76.625L148.5 75.25L136.562 75.8125L136.656 77.125ZM136.781 79.9375L148.219 79.5625L148.312 77.9688L136.719 78.4375L136.781 79.9375ZM138.094 69.1562L146.438 68.75L146.656 67.0625L137.906 67.5312L138.094 69.1562ZM144.969 82.9688C144.969 82.6146 145.042 82.3229 145.188 82.0938C145.354 81.8438 145.531 81.7188 145.719 81.7188C145.99 81.7188 146.927 82.0521 148.531 82.7188C150.156 83.3854 151.646 84.1042 153 84.875C153.229 85 153.396 85.1146 153.5 85.2188C153.604 85.3438 153.656 85.4792 153.656 85.625C153.656 85.8125 153.562 86.0938 153.375 86.4688C153.188 86.8646 152.958 87.0625 152.688 87.0625C152.542 87.0625 152.323 86.9792 152.031 86.8125C149.885 85.4792 147.729 84.4062 145.562 83.5938C145.354 83.5104 145.198 83.4271 145.094 83.3438C145.01 83.2396 144.969 83.1146 144.969 82.9688ZM209.156 70.2812C208.469 70.0312 208.146 69.7604 208.188 69.4688C208.312 68.5938 208.375 67.5938 208.375 66.4688C208.375 65.9688 208.365 65.6042 208.344 65.375C208.323 65.1042 208.302 64.875 208.281 64.6875C208.26 64.4792 208.26 64.3646 208.281 64.3438C208.365 64.2604 208.469 64.2188 208.594 64.2188C208.781 64.2188 209.01 64.3021 209.281 64.4688C209.573 64.6354 209.719 64.8021 209.719 64.9688C209.719 65.0729 209.708 65.1771 209.688 65.2812C209.667 65.3646 209.656 65.4583 209.656 65.5625L209.469 68.6562C209.469 68.8229 209.531 68.9271 209.656 68.9688H209.812C209.979 68.9688 210.094 68.9583 210.156 68.9375L214.188 68.375V67.5625C214.188 66.5417 214.167 65.75 214.125 65.1875C214.104 64.7083 214.052 64.3229 213.969 64.0312C213.906 63.6979 213.99 63.5312 214.219 63.5312C214.385 63.5312 214.604 63.5938 214.875 63.7188C215.208 63.8854 215.406 64.0312 215.469 64.1562C215.531 64.2604 215.552 64.4271 215.531 64.6562C215.49 65.0312 215.469 65.5938 215.469 66.3438L215.5 68.7188C215.5 69.2188 215.406 69.6146 215.219 69.9062C215.115 70.0312 215.01 70.0938 214.906 70.0938C214.802 70.0938 214.656 70 214.469 69.8125C214.427 69.7708 214.375 69.7083 214.312 69.625C214.25 69.5417 214.188 69.4896 214.125 69.4688C214.062 69.4479 213.979 69.4375 213.875 69.4375C213.396 69.4792 212.24 69.6354 210.406 69.9062C210.094 69.9479 209.844 70.0312 209.656 70.1562C209.448 70.2604 209.312 70.3125 209.25 70.3125L209.156 70.2812ZM212.656 82.9375C212.01 82.9375 211.51 82.9167 211.156 82.875C210.823 82.8333 210.542 82.7083 210.312 82.5C209.917 82.2083 209.646 81.5729 209.5 80.5938L209.406 79.5938C209.406 79.3438 209.385 79.0312 209.344 78.6562C209.01 78.6979 208.771 78.7396 208.625 78.7812C208.583 78.8021 208.51 78.8333 208.406 78.875C208.323 78.8958 208.26 78.9062 208.219 78.9062C208.073 78.9062 207.938 78.8646 207.812 78.7812C207.688 78.6979 207.531 78.5417 207.344 78.3125C207.198 78.125 207.125 78 207.125 77.9375C207.125 77.875 207.198 77.8333 207.344 77.8125C207.49 77.7917 207.688 77.7812 207.938 77.7812C208.292 77.7812 208.75 77.7396 209.312 77.6562L209.281 77.2188C209.281 76.3854 209.229 75.6771 209.125 75.0938L209.094 74.875C209.094 74.5833 209.208 74.4688 209.438 74.5312C209.688 74.6146 209.917 74.7188 210.125 74.8438C210.292 74.9271 210.406 75.0104 210.469 75.0938C210.531 75.1562 210.552 75.25 210.531 75.375L210.438 76.7188V77.5312L213.188 77.25C213.188 77.1042 213.198 76.7604 213.219 76.2188C213.24 75.6562 213.24 75.2917 213.219 75.125C213.219 74.9583 213.198 74.8021 213.156 74.6562C213.135 74.4896 213.115 74.3542 213.094 74.25C213.094 74.0833 213.177 74 213.344 74C213.51 74 213.719 74.0938 213.969 74.2812C214.26 74.4688 214.448 74.6354 214.531 74.7812C214.635 74.9271 214.656 75.1042 214.594 75.3125C214.49 75.6458 214.417 76.0208 214.375 76.4375C214.333 76.8542 214.312 77.1042 214.312 77.1875C214.562 77.1667 214.792 77.1354 215 77.0938C215.208 77.0521 215.344 77.0312 215.406 77.0312C215.573 76.9896 215.771 76.9688 216 76.9688C216.125 76.9896 216.302 77.1146 216.531 77.3438C216.719 77.5938 216.812 77.7917 216.812 77.9375C216.812 78.1458 216.615 78.2292 216.219 78.1875C215.865 78.125 215.51 78.0938 215.156 78.0938C214.802 78.0938 214.5 78.1042 214.25 78.125C214.188 78.875 214.062 79.6146 213.875 80.3438C213.833 80.5104 213.76 80.6562 213.656 80.7812C213.552 80.8854 213.458 80.9375 213.375 80.9375C213.229 80.9375 213.135 80.8854 213.094 80.7812C213.073 80.6562 213.062 80.4688 213.062 80.2188C213.104 79.6771 213.125 79 213.125 78.1875C212.562 78.2292 212.125 78.2708 211.812 78.3125C211.333 78.4167 210.885 78.4792 210.469 78.5C210.448 79.3542 210.49 80.1146 210.594 80.7812C210.656 81.2188 210.781 81.5208 210.969 81.6875C211.094 81.7917 211.24 81.8542 211.406 81.875C211.594 81.8958 211.781 81.9062 211.969 81.9062C212.156 81.9062 212.281 81.9062 212.344 81.9062C212.99 81.9062 213.594 81.875 214.156 81.8125C214.323 81.7917 214.469 81.75 214.594 81.6875C214.74 81.625 214.844 81.5938 214.906 81.5938C215.094 81.5938 215.281 81.6562 215.469 81.7812C215.656 81.9062 215.75 82.0521 215.75 82.2188C215.75 82.3854 215.656 82.5104 215.469 82.5938C215.302 82.6771 215.031 82.75 214.656 82.8125C213.99 82.8958 213.323 82.9375 212.656 82.9375ZM217.562 71.2188C217.667 71.2188 217.823 71.2917 218.031 71.4375C218.01 71.4792 218.052 71.5625 218.156 71.6875C218.26 71.7917 218.333 71.8646 218.375 71.9062C218.479 72.0104 218.583 72.1354 218.688 72.2812C218.812 72.4271 218.948 72.5833 219.094 72.75C219.469 73.1458 220.333 74.1771 221.688 75.8438C221.917 76.1771 222.031 76.375 222.031 76.4375C222.031 76.6458 221.906 76.75 221.656 76.75C221.51 76.75 221.354 76.6458 221.188 76.4375C220.792 76.0208 220.083 75.3646 219.062 74.4688C218.271 73.7396 217.552 73.1771 216.906 72.7812C216.594 72.6354 216.438 72.4688 216.438 72.2812C216.438 72.1354 216.594 71.9271 216.906 71.6562C217.198 71.3646 217.417 71.2188 217.562 71.2188ZM185.406 76.3438C184.885 78.5729 184.062 80.4583 182.938 82C181.812 83.5208 180.344 85.0104 178.531 86.4688C178.094 86.8229 177.74 87 177.469 87C177.323 87 177.25 86.9271 177.25 86.7812C177.25 86.5729 177.417 86.2917 177.75 85.9375C179.479 84.0208 180.792 82.1979 181.688 80.4688C182.604 78.7396 183.229 76.8438 183.562 74.7812C183.917 72.6979 184.094 70.0833 184.094 66.9375V64C184.094 62.8542 183.99 61.9688 183.781 61.3438C183.719 61.1771 183.688 61.0312 183.688 60.9062C183.688 60.7396 183.781 60.6562 183.969 60.6562C184.302 60.6562 185.031 60.9375 186.156 61.5L197.312 60.8438L197.656 60.8125C198.01 60.8125 198.323 60.9583 198.594 61.25C198.865 61.5208 199 61.7604 199 61.9688C199 62.0521 198.969 62.1771 198.906 62.3438C198.844 62.5104 198.812 62.6458 198.812 62.75L198.969 84.4062L199 85.4688C199 85.9062 198.896 86.2708 198.688 86.5625C198.5 86.8542 198.281 87.0625 198.031 87.1875C197.781 87.3333 197.573 87.4062 197.406 87.4062C197.031 87.4062 196.396 87.0833 195.5 86.4375C194.604 85.8125 193.771 85.125 193 84.375C192.229 83.6458 191.844 83.1458 191.844 82.875C191.844 82.75 191.917 82.6875 192.062 82.6875C192.292 82.6875 192.635 82.8229 193.094 83.0938C194.24 83.7812 195.51 84.3646 196.906 84.8438L196.844 75.875L185.406 76.3438ZM196.844 74.1562L196.812 69.2812L186.094 69.6875C186.01 71.9375 185.885 73.5833 185.719 74.625L196.844 74.1562ZM196.812 67.4688L196.781 62.6875L186.219 63.3438L186.156 68L196.812 67.4688Z" fill="#333333"/>
</svg>
