<svg xmlns="http://www.w3.org/2000/svg" width="350" height="88" fill="none"><path fill="#333" d="M131.582 14.457c-.352 0-.668-.14-.949-.422-.352-.258-.528-.457-.528-.598 0-.164.27-.246.809-.246l1.723-.105 1.758-.176c.046-.375.07-1.09.07-2.144.07 0-.293.046-1.09.14l-.668.106a1.41 1.41 0 0 1-.562.14.478.478 0 0 1-.352-.14c-.375-.328-.563-.61-.563-.844V8.516c0-.164-.058-.797-.175-1.899l-.035-.387c0-.187.035-.304.105-.351.07-.047.199-.047.387 0 .703.187 1.043.398 1.019.633l-.035.246a9.25 9.25 0 0 0-.07 1.265c0 .61.012.997.035 1.16.047.47.07.692.07.669.024.093.106.14.246.14.141 0 .422-.035.844-.105.445-.094.738-.153.879-.176V6.617c0-.867-.035-1.453-.105-1.758a5.262 5.262 0 0 1-.071-.386c0-.164.059-.246.176-.246.047 0 .211.046.492.14.446.211.738.399.879.563.164.164.223.34.176.527-.07.234-.117.703-.141 1.406a65.697 65.697 0 0 0-.14 2.742l1.195-.035c.234 0 .41-.011.527-.035.117-.023.176-.07.176-.14.164-.891.27-1.665.316-2.32l.036-.423c.023-.047.023-.129 0-.246V6.16l-.036-.246c0-.21.082-.316.247-.316.093 0 .293.093.597.28.071.048.164.118.281.212.141.07.235.152.282.246.047.07.07.164.07.281 0 .14-.012.258-.035.352l-.387 1.968-.105.81c-.094.538-.375.831-.844.878a1.25 1.25 0 0 1-.352-.105.342.342 0 0 0-.175-.07c-.282 0-.868.058-1.758.175l-.035 2.18.597-.035.563-.036c.867 0 1.512-.046 1.933-.14.188 0 .352-.024.493-.07l.105-.036c.234 0 .481.164.738.492.305.305.457.528.457.668 0 .211-.328.282-.984.211l-1.336-.07h-1.758c-.351 0-.996.047-1.933.14-.493 0-.938.024-1.336.071a5.613 5.613 0 0 0-1.125.246l-.598.211Zm7.629 9.211c-.352 0-.691-.258-1.02-.773-.421-.657-.832-1.196-1.23-1.618l-.914-.949a14.424 14.424 0 0 1-1.301 1.336 6.992 6.992 0 0 1-1.336.95c-1.008.585-1.851.878-2.531.878-.164 0-.246-.058-.246-.176 0-.07.222-.222.668-.457a7.422 7.422 0 0 0 1.265-.843c1.008-.844 1.84-1.711 2.496-2.602-.14-.14-.843-.75-2.109-1.828-.164-.117-.41-.316-.738-.598a9.494 9.494 0 0 1-.422-.316c-.211-.164-.316-.281-.316-.352 0-.117.058-.175.175-.175.352 0 .914.246 1.688.738a25.67 25.67 0 0 1 2.426 1.687 6.91 6.91 0 0 0 .773-1.125c.188-.351.399-.785.633-1.3a2.41 2.41 0 0 0 .211-.668c.023-.211.035-.34.035-.387 0-.258.07-.387.211-.387.164 0 .387.129.668.387.492.469.738.785.738.95 0 .093-.058.198-.176.316-.281.28-.539.656-.773 1.124-.141.282-.398.68-.774 1.196-.117.14-.21.27-.281.387-.07.117-.14.222-.211.316.539.398 1.336 1.078 2.391 2.039.258.234.422.457.492.668.094.187.141.445.141.773 0 .235-.059.434-.176.598a.567.567 0 0 1-.457.211Zm-7.77 10.512c-.351 0-.621-.094-.808-.282-.211-.21-.317-.398-.317-.562 0-.164.094-.34.282-.527.023-.024.152-.211.386-.563.516-.82 1.102-1.863 1.758-3.129.68-1.289 1.102-2.168 1.266-2.637.14-.445.269-.832.387-1.16.14-.328.257-.492.351-.492.164 0 .305.059.422.176.117.094.234.234.352.422.14.164.246.281.316.351.164.188.246.364.246.528a.562.562 0 0 1-.141.351c-.093.117-.152.2-.175.246l-1.547 2.602a72.802 72.802 0 0 1-1.582 2.707.562.562 0 0 0-.141.352c0 .093.106.14.316.14.446 0 1.278-.059 2.497-.176 1.218-.093 2.039-.175 2.461-.246.609-.07 1.031-.14 1.265-.21.258-.071.633.105 1.125.527.586.492.715.808.387.949-.188.094-.551.14-1.09.14h-1.406c-.305 0-.785.024-1.442.07-.398 0-.843.013-1.336.036-.492.023-.902.047-1.23.07-.375.024-1.102.094-2.18.211l-.422.106Zm-18.984.949c0 .586-.234.879-.703.879-.352 0-.738-.13-1.16-.387-.422-.234-.633-.586-.633-1.055l.035-.246c.117-.75.176-1.476.176-2.18l.035-9.07-7.664.317.105 1.054v.106c0 .445-.222.668-.668.668-.375 0-.761-.117-1.16-.352-.398-.234-.597-.574-.597-1.02v-.28c.047-.516.07-.856.07-1.02 0-.234-.023-.563-.07-.984l-.633-7.665c-.07-.773-.27-1.43-.598-1.968-.187-.305-.281-.528-.281-.668 0-.188.129-.281.387-.281.421 0 1.242.246 2.461.738l8.718-.527.035-6.047c0-.54-.128-1.043-.386-1.512a.93.93 0 0 1-.141-.457c0-.188.153-.281.457-.281.141 0 .399.046.774.14.398.07.761.211 1.089.422.352.211.528.492.528.844l-.035 6.75 9.492-.563c.211-.023.469-.035.773-.035.422 0 .762.094 1.02.281.258.188.433.399.527.633.117.211.176.375.176.492 0 .141-.059.317-.176.528-.094.21-.14.363-.14.457l-.985 7.594c.656.75.985 1.277.985 1.582 0 .187-.094.316-.282.386-.187.047-.492.082-.914.106l-10.547.457-.07 12.164Zm-10.055-13.746 7.84-.352.035-7.77-8.543.493.668 7.629Zm18.703-.844.844-7.945-9.351.527-.071 7.805 8.578-.387Zm70.805-6.258a1.25 1.25 0 0 1-.914-.386 26.715 26.715 0 0 0-2.355-2.286c-.891-.75-1.676-1.312-2.356-1.687-.328-.188-.492-.48-.492-.879 0-.07.082-.164.246-.281.211-.14.551-.446 1.02-.914l1.265-1.23a23.702 23.702 0 0 0 1.406-1.583c.399-.469.622-.797.668-.984a1.16 1.16 0 0 0 .071-.281c.047-.165.117-.247.211-.247.117 0 .269.059.457.176.211.117.386.235.527.352.352.328.527.61.527.844-.023.07-.117.152-.281.246-.14.07-.269.14-.387.21-.117.094-.539.47-1.265 1.126l-2.285 1.968c-.399.328-.598.586-.598.774 0 .094.187.246.563.457.445.281 1.312.855 2.601 1.722.492.329.961.692 1.406 1.09.375.375.563.762.563 1.16 0 .188-.082.352-.246.493a.478.478 0 0 1-.352.14Zm-6.258 5.871c-.257 0-.574-.199-.949-.597-.281-.282-.422-.492-.422-.633 0-.07.047-.106.141-.106a1.48 1.48 0 0 1 .351-.035l.774-.035c.445 0 .738-.012.879-.035.445 0 .82-.012 1.125-.035 2.015-.188 3.375-.34 4.078-.457a29.8 29.8 0 0 0 .949-.14c.281-.071.504-.106.668-.106.328 0 .656.164.984.492.258.258.387.469.387.633 0 .14-.082.234-.246.28-.117.024-.809.071-2.074.142-.703.023-1.57.082-2.602.175a92.491 92.491 0 0 0-2.707.282c-.14.023-.34.058-.597.105-.258.047-.504.07-.739.07Zm8.262 13.852c-.023.023-.082.035-.176.035-.187 0-.457-.129-.808-.387a93.994 93.994 0 0 0-3.129-2.953c-.61.61-1.184 1.137-1.723 1.582-.187.14-.516.352-.984.633-.68.398-1.336.645-1.969.738h-.211c-.211 0-.34-.023-.387-.07-.023-.023.024-.07.141-.14a3.03 3.03 0 0 0 .316-.176c.141-.07.539-.328 1.196-.774.328-.234.797-.633 1.406-1.195.609-.563 1.055-1.02 1.336-1.371L187.48 28.8a44.357 44.357 0 0 0-.843-.598 5.944 5.944 0 0 0-.598-.457l-.035-.105c0-.141.117-.211.351-.211.282 0 .739.175 1.372.527l1.793 1.16c.398-.515.796-1.078 1.195-1.687.422-.633.644-1.008.668-1.125.023-.07.012-.13-.035-.176-.024-.07-.071-.106-.141-.106h-.703l-1.266.106c-.633.047-1.265.129-1.898.246-.07.023-.188.059-.352.105-.164.047-.304.07-.422.07-.046 0-.246-.128-.597-.386-.328-.281-.504-.457-.528-.527-.023-.024-.035-.059-.035-.106 0-.117.129-.164.387-.14h.492c.656 0 1.606-.059 2.848-.176l1.195-.106 1.09-.14c.352-.094.551-.14.598-.14h.07c.117 0 .223.034.316.105.094.07.164.14.211.21.047.07.082.118.106.141l.211.211c.117.094.187.188.211.281.047.07.07.153.07.246 0 .211-.082.364-.246.457-.117.047-.328.293-.633.739-.516.82-1.137 1.699-1.863 2.636.398.258.914.633 1.547 1.125.281.188.738.504 1.371.95.281.21.492.492.633.843.093.375.14.657.14.844-.023.188-.105.317-.246.387ZM174.789 19.87c-.305.235-.527.352-.668.352-.141 0-.211-.07-.211-.211 0-.211.117-.48.352-.809a24.637 24.637 0 0 0 2.285-4.324c.609-1.5.914-2.59.914-3.27 0-.14-.023-.351-.07-.632l-.036-.211c0-.282.118-.422.352-.422.141 0 .41.105.809.316.398.188.761.434 1.089.738.329.282.493.563.493.844 0 .258-.246.832-.739 1.723-.468.89-1.101 1.863-1.898 2.918a19.427 19.427 0 0 1-2.496 2.812l-.176.176Zm-25.699 9.106c0-.235.176-.598.527-1.09 2.321-3.07 4.488-7.032 6.504-11.883l-3.094.281c-.75.094-1.207.14-1.371.14-.492 0-.89-.222-1.195-.667-.305-.469-.492-.844-.563-1.125a.398.398 0 0 1-.035-.176c0-.14.071-.21.211-.21.071 0 .129.01.176.034.352.094.785.14 1.301.14.304 0 .539-.01.703-.034l4.43-.422.035-4.57c-.938.328-2.028.668-3.27 1.02-1.219.327-2.015.491-2.39.491-.352 0-.528-.105-.528-.316 0-.235.235-.434.703-.598 2.555-1.008 4.782-2.039 6.68-3.094 1.898-1.054 3.012-1.898 3.34-2.53.117-.212.246-.317.387-.317.257 0 .621.293 1.089.879.469.586.704 1.03.704 1.336 0 .164-.118.316-.352.457a53.89 53.89 0 0 1-4.324 1.898v5.168l2.285-.21a4.328 4.328 0 0 0 1.336-.352.623.623 0 0 1 .281-.07c.281 0 .68.21 1.195.632.516.422.774.774.774 1.055 0 .258-.258.41-.774.457l-5.097.457v2.074c.258-.21.48-.316.668-.316.281 0 .844.386 1.687 1.16.844.75 1.641 1.558 2.391 2.426.75.867 1.125 1.418 1.125 1.652 0 .281-.176.586-.527.914-.329.305-.598.457-.809.457-.258 0-.527-.2-.809-.598a35.729 35.729 0 0 0-3.726-4.218v14.976c0 .656-.211.985-.633.985-.141 0-.363-.083-.668-.247a2.962 2.962 0 0 1-.773-.562c-.211-.211-.317-.445-.317-.703l.035-.246c.141-.703.211-1.64.211-2.813l.035-9.105c0-.61.047-1.43.141-2.461-.586 1.523-1.406 3.07-2.461 4.64-1.031 1.547-2.039 2.836-3.023 3.868-.985 1.03-1.664 1.547-2.039 1.547-.118 0-.176-.07-.176-.211Zm11.777 5.695c0-.211.258-.563.774-1.055 2.859-2.672 4.957-5.32 6.293-7.945 1.336-2.625 2.168-5.238 2.496-7.84.351-2.625.527-6.059.527-10.3V6.054a2.8 2.8 0 0 0-.492-1.582c-.141-.188-.211-.34-.211-.457 0-.164.129-.246.387-.246.445 0 .996.14 1.652.421.68.258 1.019.598 1.019 1.02 0 5.297-.246 9.738-.738 13.324 1.149 3.235 2.555 6.047 4.219 8.438 1.687 2.39 3.574 4.347 5.66 5.87.352.282.527.481.527.598 0 .188-.269.457-.808.809-.539.375-.949.563-1.231.563-.234 0-.902-.563-2.003-1.688-1.102-1.125-2.309-2.648-3.622-4.57-1.312-1.922-2.461-4.102-3.445-6.54l-.035.106c-.609 2.227-1.652 4.3-3.129 6.223-1.477 1.922-2.977 3.48-4.5 4.675-1.523 1.196-2.566 1.794-3.129 1.794-.14 0-.211-.047-.211-.141Zm3.27-22.606c0-.304.164-.527.492-.668.328-.14.598-.21.809-.21.164 0 .292.058.386.175.117.094.246.258.387.492.375.75.926 2.028 1.652 3.832.727 1.782 1.09 2.836 1.09 3.165 0 .328-.223.585-.668.773-.422.164-.738.246-.949.246a.617.617 0 0 1-.457-.176c-.094-.14-.188-.363-.281-.668-.657-2.39-1.43-4.547-2.321-6.468-.093-.235-.14-.399-.14-.493Zm81.984 2.32c-.164 0-.34-.105-.527-.316a2.15 2.15 0 0 1-.282-.386c-.046-.118-.046-.27 0-.457l.036-.844c.023-.164.035-.563.035-1.195v-1.16l-1.055.492-1.23.527a10.87 10.87 0 0 0-.95.422c-.281.14-.527.21-.738.21a2.17 2.17 0 0 1-.562-.175 4.837 4.837 0 0 1-.493-.246c-.257-.164-.375-.34-.351-.527l.105-.352c0-.188.012-.352.036-.492l.035-2.04V5.95c0-.375-.024-.691-.071-.949-.047-.281-.082-.48-.105-.598 0-.117.035-.199.105-.246.024-.023.082-.035.176-.035.164 0 .481.106.949.316.399.188.563.422.493.704-.047.164-.094.41-.141.738l-.106 4.043c0 .117.012.21.036.281.046.047.093.07.14.07.282 0 .621-.082 1.02-.246.75-.234 1.394-.468 1.933-.703l.774-.316v-2.32c0-.938-.059-1.84-.176-2.708a.792.792 0 0 1-.035-.246c0-.234.094-.351.281-.351.024 0 .152.047.387.14.351.188.609.352.773.493.164.14.258.222.282.246.093.07.14.14.14.21a.34.34 0 0 1-.07.176c-.024.07-.047.13-.07.176l-.106 1.055-.035 3.234.035 3.13c0 .538-.035 1.007-.105 1.405-.118.493-.305.739-.563.739Zm-6.469 5.766c-.257 0-.574-.199-.949-.597-.281-.282-.422-.492-.422-.633 0-.07.047-.106.141-.106a1.48 1.48 0 0 1 .351-.035l.774-.035c.445 0 .738-.012.879-.035.445 0 .82-.012 1.125-.035 2.015-.188 3.375-.34 4.078-.457a29.8 29.8 0 0 0 .949-.14c.281-.071.504-.106.668-.106.328 0 .656.164.984.492.258.258.387.469.387.633 0 .14-.082.234-.246.28-.117.024-.809.071-2.074.142-.703.023-1.57.082-2.602.175a92.491 92.491 0 0 0-2.707.282c-.14.023-.34.058-.597.105-.258.047-.504.07-.739.07Zm4.711 14.52c-.726 0-1.289-.024-1.687-.07a1.68 1.68 0 0 1-.949-.422c-.446-.328-.75-1.043-.915-2.145l-.105-1.125c0-.281-.023-.633-.07-1.055a5.987 5.987 0 0 0-.809.141 3.817 3.817 0 0 1-.246.106.965.965 0 0 1-.211.035.81.81 0 0 1-.457-.14c-.141-.095-.316-.27-.527-.528-.164-.211-.246-.352-.246-.422s.082-.117.246-.14c.164-.024.386-.036.668-.036.398 0 .914-.047 1.547-.14l-.036-.493c0-.937-.058-1.734-.175-2.39l-.036-.246c0-.329.129-.457.387-.387.281.094.539.21.774.351.187.094.316.188.386.282.071.07.094.175.071.316l-.106 1.512v.914l3.094-.317c0-.164.012-.55.035-1.16.024-.633.024-1.043 0-1.23 0-.188-.023-.363-.07-.527a6.529 6.529 0 0 0-.071-.458c0-.187.094-.28.282-.28.187 0 .422.105.703.316.328.21.539.398.633.562.117.164.14.363.07.598a6.4 6.4 0 0 0-.246 1.265c-.047.47-.07.75-.07.844.281-.023.539-.058.773-.105.234-.047.387-.07.457-.07.188-.047.41-.071.668-.071.141.023.34.164.598.422.211.281.316.504.316.668 0 .234-.223.328-.668.281a6.863 6.863 0 0 0-1.195-.105c-.399 0-.738.011-1.02.035-.07.844-.211 1.676-.422 2.496a.953.953 0 0 1-.246.457c-.117.14-.222.21-.316.21-.164 0-.27-.07-.317-.21a3.524 3.524 0 0 1-.035-.598c.047-.61.071-1.37.071-2.285a26.99 26.99 0 0 0-1.477.14 9.357 9.357 0 0 1-1.512.212c-.023.96.024 1.816.141 2.566.07.492.211.832.422 1.02.14.117.305.187.492.21.211.024.422.036.633.036h.422c.726 0 1.406-.035 2.039-.106a1.52 1.52 0 0 0 .492-.14c.164-.07.281-.106.352-.106.21 0 .421.07.632.211.211.14.317.305.317.492 0 .188-.106.328-.317.422-.187.094-.492.176-.914.246-.75.094-1.5.14-2.25.14Zm10.02-15.996c.281 0 .422.129.422.387 0 .14-.129.34-.387.597-.703.867-2.098 2.52-4.184 4.957-.164.211-.316.317-.457.317-.117 0-.375-.176-.773-.528-.328-.281-.492-.515-.492-.703 0-.21.176-.41.527-.598.539-.304 1.348-.914 2.426-1.828 1.078-.96 1.875-1.722 2.39-2.285.211-.21.387-.316.528-.316Zm-44.684 11.496c2.086-.656 3.949-1.371 5.59-2.145a25.586 25.586 0 0 0-1.336-1.687c-.187-.235-.281-.422-.281-.563 0-.258.152-.48.457-.668.305-.21.539-.316.703-.316.188 0 .387.117.598.352a137.853 137.853 0 0 1 3.41 4.148c.937 1.195 1.406 1.922 1.406 2.18 0 .21-.164.457-.492.738-.305.305-.598.457-.879.457-.234 0-.469-.188-.703-.563a96.435 96.435 0 0 0-1.828-2.671l-4.219 2.109c-.469.21-1.207.586-2.215 1.125-.844.445-1.359.668-1.547.668-.14 0-.316-.094-.527-.281a1.65 1.65 0 0 1-.492-.633c-.094-.234-.094-.422 0-.563.14-.257.211-1.289.211-3.093V16.602c0-.563-.024-1.02-.071-1.372a3.587 3.587 0 0 0-.281-1.125 1.37 1.37 0 0 0-.07-.175.305.305 0 0 1-.035-.14c0-.118.082-.177.246-.177.304 0 1.066.258 2.285.774l7.629-.528c.187-.023.398-.035.633-.035.257 0 .562.117.914.352.351.21.527.445.527.703 0 .094-.059.234-.176.422-.094.187-.14.328-.14.422l-.914 6.609c.562.656.843 1.102.843 1.336 0 .117-.07.2-.211.246-.117.047-.304.07-.562.07l-8.508.317.035 5.87Zm-5.765-15.785c0-.235.152-.516.457-.844 1.711-1.898 3.199-3.785 4.464-5.66 1.266-1.875 1.899-3.13 1.899-3.762l-.035-.246V3.77c0-.329.129-.493.386-.493.305 0 .727.211 1.266.633.563.399.844.727.844.985 0 .117-.059.27-.176.457a23.895 23.895 0 0 1-1.16 1.687l4.992-.387a4.872 4.872 0 0 0 1.336-.28c.141-.048.246-.071.316-.071.352 0 .727.199 1.125.597.422.375.633.668.633.88 0 .28-.258.445-.773.492l-6.012.421c.164.047.527.293 1.09.739.586.445 1.113.902 1.582 1.37.469.47.703.798.703.985 0 .211-.141.469-.422.774-.281.28-.527.421-.738.421-.188 0-.41-.152-.668-.457a21.796 21.796 0 0 0-2.426-2.285c-.281-.234-.422-.433-.422-.597 0-.118.059-.27.176-.457.117-.188.27-.34.457-.457l-2.355.175a34.406 34.406 0 0 1-3.727 3.903c-1.359 1.195-2.226 1.793-2.601 1.793-.141 0-.211-.07-.211-.211Zm12.656 3.656.246-2.461-7.242.492v2.32l6.996-.351Zm-.457 4.36.281-2.708-6.785.317v2.636l6.504-.246Zm1.898-9.528c0-.234.153-.516.457-.844 1.149-1.383 2.192-2.941 3.129-4.676.961-1.757 1.442-2.988 1.442-3.69v-.142c0-.351.129-.527.386-.527.164 0 .41.094.739.281.351.164.668.364.949.598.281.234.422.469.422.703 0 .211-.164.586-.493 1.125-.328.54-.503.82-.527.844l6.926-.563a6.483 6.483 0 0 0 1.336-.246c.047-.023.141-.035.281-.035.328 0 .68.188 1.055.563.398.351.597.644.597.879 0 .14-.07.257-.21.351-.118.07-.282.117-.493.14l-7.136.493c.656.422 1.429 1.043 2.32 1.863.891.797 1.336 1.336 1.336 1.617 0 .164-.129.422-.387.774-.258.328-.504.492-.738.492-.188 0-.387-.117-.598-.352-1.148-1.242-2.191-2.226-3.129-2.953-.234-.187-.351-.363-.351-.527 0-.188.176-.469.527-.844l-2.601.176c-.774 1.031-1.711 2.074-2.813 3.129-1.078 1.055-1.805 1.582-2.18 1.582-.164 0-.246-.07-.246-.211Zm3.305.773c0-.14.082-.21.246-.21.352 0 1.148.292 2.391.878l7.066-.597.281-.035c.094 0 .27.046.528.14.281.07.539.2.773.387.258.164.387.387.387.668 0 .094-.035.223-.106.387-.07.164-.105.28-.105.351a88.243 88.243 0 0 1-.492 8.262l-.071.879c-.07.984-.164 1.805-.281 2.46-.117.657-.316 1.173-.598 1.548-.445.609-.925.914-1.441.914s-1.172-.317-1.969-.95a18.576 18.576 0 0 1-2.215-2.074c-.656-.75-.984-1.23-.984-1.441 0-.164.094-.246.281-.246.211 0 .504.117.879.351.867.54 1.594.973 2.18 1.301.586.328 1.008.492 1.266.492.117 0 .199-.082.246-.246.539-3 .867-6.762.984-11.285l-6.609.492c0 3.961.035 10.242.105 18.844 0 .21-.058.363-.176.457a.466.466 0 0 1-.386.176c-.188 0-.411-.07-.668-.211-.446-.188-.762-.363-.95-.528-.187-.164-.281-.351-.281-.562l.035-.246c.141-.773.211-1.64.211-2.602l-.105-14.836c0-.609-.024-1.078-.07-1.406a3.306 3.306 0 0 0-.211-.95c-.094-.28-.141-.468-.141-.562ZM159.594 72.125c-.146 0-.24-.01-.282-.031-.02-.042.011-.115.094-.219.292-.27.521-.531.688-.781.187-.271.385-.698.594-1.281.333-.959.5-1.698.5-2.22 0-.478-.032-.916-.094-1.312v-.094c0-.229.146-.302.437-.218.25.062.531.146.844.25a.946.946 0 0 1 .281-.031c.125-.021.323-.053.594-.094a53.54 53.54 0 0 1 2.75-.313c0-.083.083-.375.25-.875l.188-.687c.083-.292.052-.438-.094-.438-.417 0-1.386.104-2.906.313l-1.657.281c-.146.02-.333-.042-.562-.188a1.89 1.89 0 0 1-.5-.5c-.104-.187-.084-.312.062-.374a.94.94 0 0 1 .5-.157H162l2.062-.062 2-.25c.105-.021.23-.052.376-.094.166-.063.322-.104.468-.125.209-.042.563.188 1.063.688a.39.39 0 0 1 .125.28c0 .126-.084.25-.25.376-.229.229-.375.427-.438.593-.021.105-.062.26-.125.47a6.948 6.948 0 0 0-.187.718.788.788 0 0 1 .187.531c0 .167-.052.292-.156.375-.083.063-.26.094-.531.094-.938.063-1.677.125-2.219.188-.542.041-1.198.145-1.969.312a10.063 10.063 0 0 1-.562 2.594c-.292.77-.698 1.354-1.219 1.75-.5.354-.844.531-1.031.531Zm7.968 9.719c.292.187.438.364.438.531 0 .23-.177.375-.531.438-.354.062-.854.104-1.5.124-.938.021-1.542-.01-1.813-.093-.458-.209-.687-.552-.687-1.031l.031-1.157c.042-.375.062-.708.062-1 .021-.187.032-.552.032-1.094a10.534 10.534 0 0 1-1.219 2.063c-.354.438-.667.802-.937 1.094-.271.27-.594.531-.969.781s-.719.375-1.031.375c-.188 0-.282-.063-.282-.188 0-.02.198-.177.594-.468.417-.313.833-.74 1.25-1.281.625-.834 1.167-1.813 1.625-2.938-.813.104-1.354.198-1.625.281-.104.021-.198.052-.281.094a.785.785 0 0 1-.313 0 2.646 2.646 0 0 1-.437-.25 2.823 2.823 0 0 1-.438-.406c-.083-.125-.125-.209-.125-.25 0-.104.156-.156.469-.156.771 0 1.76-.084 2.969-.25.125-.48.187-1.25.187-2.313v-.594c0-.25.052-.385.157-.406.02-.02.062-.031.124-.031.167 0 .396.125.688.375.229.187.375.333.438.437.083.084.093.198.031.344l-.125.25c-.063.125-.104.25-.125.375l-.125.625a6.584 6.584 0 0 0-.125.781c.291-.02.656-.062 1.093-.125.438-.062.761-.125.969-.187l.625-.156c.209-.042.552.135 1.032.53.083.063.124.136.124.22 0 .083-.041.156-.124.218a.446.446 0 0 1-.25.063c-.376 0-1.063.062-2.063.187l-1.031.094c.229.167.375.313.437.438a.47.47 0 0 1 .031.374l-.093.5c-.042.417-.084.876-.125 1.376-.021.5-.021.885 0 1.156 0 .104.062.198.187.281a.877.877 0 0 0 .438.125c.521 0 1.104-.052 1.75-.156l.281-.063c.125 0 .229.021.312.063Zm6.126-11.063c.062 0 .124.031.187.094a.302.302 0 0 1 .125.188v.062c0 .146-.115.427-.344.844l-2.25 3.906c-.166.354-.385.531-.656.531s-.5-.166-.688-.5c-.187-.27-.416-.677-.687-1.219a3.86 3.86 0 0 1-.313-.562 10.16 10.16 0 0 0-.187-.406c-.229-.396-.344-.677-.344-.844a.21.21 0 0 1 .094-.188c.063-.062.125-.093.187-.093.23 0 .438.125.626.375.145.146.26.302.343.469l.344.468.625.719.281-.438c.292-.5.979-1.49 2.063-2.968.229-.292.427-.438.594-.438ZM136.906 82v.094c0 .375-.187.562-.562.562-.271 0-.584-.073-.938-.219-.354-.145-.531-.437-.531-.874l.031-.22c.063-.353.094-.718.094-1.093l-.031-.656-.407-6.25c-.041-.667-.114-1.094-.218-1.281a2.632 2.632 0 0 1-.156-.282.712.712 0 0 1-.094-.281c0-.104.083-.156.25-.156.333 0 1 .187 2 .562l12.75-.656h.375c.291 0 .593.094.906.281.333.167.5.375.5.625a.73.73 0 0 1-.094.313 2.174 2.174 0 0 0-.093.281l-.563 6.719c.5.52.75.906.75 1.156 0 .125-.063.208-.187.25-.126.02-.355.042-.688.063l-13.125.406.031.656Zm-7.5-13c0-.146.042-.292.125-.438.438-.854.834-1.843 1.188-2.968.354-1.146.604-2.209.75-3.188.041-.25.093-.427.156-.531.083-.125.219-.188.406-.188.229 0 .469.042.719.126.271.083.406.28.406.593 0 .125-.01.23-.031.313l-.187 1.187 8.531-.5.062-3.281c0-.396-.146-.833-.437-1.313a.534.534 0 0 1-.125-.343c0-.167.135-.25.406-.25.354 0 .792.104 1.313.312.541.209.812.469.812.782v.062l-.188 3.906 1.969-.125c1.25-1.083 2.052-1.916 2.407-2.5.374-.604.572-1.114.593-1.531 0-.104.021-.188.063-.25a.298.298 0 0 1 .218-.094c.25 0 .626.219 1.126.657.395.374.593.677.593.906 0 .229-.333.635-1 1.218a15.989 15.989 0 0 1-2.031 1.47l6.938-.407h.406c.458 0 .833.115 1.125.344.291.229.437.448.437.656 0 .125-.073.25-.218.375a1.46 1.46 0 0 0-.313.281c-1.042 1.334-1.979 2.354-2.813 3.063-.812.687-1.343 1.031-1.593 1.031-.125 0-.188-.063-.188-.188 0-.187.104-.427.313-.718.896-1.23 1.562-2.344 2-3.344l-20.688 1.156c-.479 1.98-.854 3.26-1.125 3.844-.271.563-.51.844-.719.844a8.79 8.79 0 0 1-.5-.125 3.103 3.103 0 0 1-.624-.344c-.188-.146-.282-.313-.282-.5Zm1.469 17.656c0-.166.198-.323.594-.469 2.041-.708 3.719-1.468 5.031-2.28 1.312-.834 2.052-1.522 2.219-2.063.062-.188.166-.281.312-.281.229 0 .552.26.969.78.417.5.625.897.625 1.188 0 .188-.125.354-.375.5-3.021 1.521-5.896 2.469-8.625 2.844l-.25.031c-.333 0-.5-.083-.5-.25Zm3.531-26.25c0-.166.073-.354.219-.562.146-.23.323-.344.531-.344.146 0 .573.208 1.282.625.729.396 1.395.833 2 1.313.604.458.906.802.906 1.03 0 .292-.125.553-.375.782-.25.208-.438.313-.563.313-.187 0-.396-.115-.625-.344a21.415 21.415 0 0 0-3.062-2.407c-.209-.145-.313-.28-.313-.406Zm1.094 5.438c0-.104.083-.156.25-.156.312 0 .99.177 2.031.53l9.375-.562h.313c.354 0 .666.104.937.313.292.187.438.375.438.562a.745.745 0 0 1-.094.313 1.41 1.41 0 0 0-.125.25l-.344 1.562c.396.48.594.823.594 1.031 0 .126-.063.209-.187.25-.126.042-.334.073-.626.094l-9.812.438.031.281v.063c0 .312-.177.468-.531.468-.312 0-.635-.062-.969-.187-.333-.125-.5-.354-.5-.688v-.156c.042-.375.063-.625.063-.75s-.021-.333-.063-.625l-.187-1.219c-.084-.583-.219-1.031-.406-1.344-.126-.229-.188-.385-.188-.468Zm1 8.687 12.094-.562.094-1.281-12.25.593.062 1.25Zm.156 2.594 11.75-.5.094-1.375-11.938.563.094 1.312Zm.125 2.813 11.438-.376.093-1.593-11.593.469.062 1.5Zm1.313-10.782 8.344-.406.218-1.688-8.75.47.188 1.624Zm6.875 13.813c0-.354.073-.646.219-.875.166-.25.343-.375.531-.375.271 0 1.208.333 2.812 1A38.789 38.789 0 0 1 153 84.875c.229.125.396.24.5.344.104.125.156.26.156.406 0 .188-.094.469-.281.844-.187.396-.417.594-.687.594-.146 0-.365-.084-.657-.25-2.146-1.334-4.302-2.407-6.469-3.22a1.896 1.896 0 0 1-.468-.25.578.578 0 0 1-.125-.374Zm64.187-12.688c-.687-.25-1.01-.52-.968-.812.124-.875.187-1.875.187-3a13.453 13.453 0 0 0-.094-1.781c-.021-.209-.021-.323 0-.344a.426.426 0 0 1 .313-.125c.187 0 .416.083.687.25.292.166.438.333.438.5 0 .104-.011.208-.031.312a1.152 1.152 0 0 0-.032.281l-.187 3.094c0 .167.062.271.187.313h.156c.167 0 .282-.01.344-.031l4.032-.563v-.813c0-1.02-.021-1.812-.063-2.374-.021-.48-.073-.865-.156-1.157-.063-.333.021-.5.25-.5.166 0 .385.063.656.188.333.166.531.312.594.437.062.104.083.271.062.5-.041.375-.062.938-.062 1.688l.031 2.375c0 .5-.094.896-.281 1.187-.104.125-.209.188-.313.188-.104 0-.25-.094-.437-.281a1.845 1.845 0 0 1-.157-.188.41.41 0 0 0-.187-.156.814.814 0 0 0-.25-.031c-.479.041-1.635.197-3.469.468-.312.042-.562.125-.75.25-.208.104-.344.156-.406.156l-.094-.03Zm3.5 12.656c-.646 0-1.146-.02-1.5-.062a1.5 1.5 0 0 1-.844-.375c-.395-.292-.666-.927-.812-1.906l-.094-1c0-.25-.021-.563-.062-.938a5.336 5.336 0 0 0-.719.125c-.042.021-.115.052-.219.094a.856.856 0 0 1-.187.031.722.722 0 0 1-.407-.125c-.124-.083-.281-.24-.468-.469-.146-.187-.219-.312-.219-.374 0-.063.073-.105.219-.126.146-.02.344-.03.594-.03a9.76 9.76 0 0 0 1.374-.126l-.031-.437c0-.834-.052-1.542-.156-2.125l-.031-.219c0-.292.114-.406.344-.344.25.084.479.188.687.313.167.083.281.166.344.25.062.062.083.156.062.281l-.093 1.344v.812l2.75-.281c0-.146.01-.49.031-1.031.021-.563.021-.927 0-1.094 0-.167-.021-.323-.063-.469a5.904 5.904 0 0 0-.062-.406c0-.167.083-.25.25-.25.166 0 .375.094.625.281.291.188.479.354.562.5.104.146.125.323.063.531a5.704 5.704 0 0 0-.219 1.126c-.042.416-.063.666-.063.75.25-.021.48-.053.688-.094.208-.042.344-.063.406-.063.167-.041.365-.062.594-.062.125.02.302.146.531.375.188.25.281.448.281.594 0 .208-.197.291-.593.25a6.108 6.108 0 0 0-1.063-.094c-.354 0-.656.01-.906.031-.062.75-.188 1.49-.375 2.219a1.09 1.09 0 0 1-.219.437c-.104.104-.198.156-.281.156-.146 0-.24-.052-.281-.156a3.672 3.672 0 0 1-.032-.562 27.07 27.07 0 0 0 .063-2.031c-.563.041-1 .083-1.313.124a8.296 8.296 0 0 1-1.343.188 12.86 12.86 0 0 0 .125 2.281c.062.438.187.74.375.906a.83.83 0 0 0 .437.188c.188.02.375.031.563.031h.375c.646 0 1.25-.031 1.812-.094.167-.02.313-.062.438-.124.146-.063.25-.094.312-.094.188 0 .375.062.563.187.187.125.281.271.281.438 0 .166-.094.291-.281.375-.167.083-.438.156-.813.219-.666.083-1.333.124-2 .124Zm4.906-11.718c.105 0 .261.073.469.219-.021.041.021.124.125.25l.219.218c.104.104.208.23.313.375.124.146.26.302.406.469.375.396 1.239 1.427 2.594 3.094.229.333.343.531.343.594 0 .208-.125.312-.375.312-.146 0-.302-.104-.468-.313-.396-.416-1.105-1.072-2.126-1.968-.791-.73-1.51-1.292-2.156-1.688-.312-.146-.468-.312-.468-.5 0-.146.156-.354.468-.625.292-.291.511-.437.656-.437Zm-32.156 5.125c-.521 2.229-1.344 4.114-2.468 5.656-1.126 1.52-2.594 3.01-4.407 4.469-.437.354-.791.531-1.062.531-.146 0-.219-.073-.219-.219 0-.208.167-.49.5-.844 1.729-1.916 3.042-3.74 3.938-5.468.916-1.73 1.541-3.625 1.874-5.688.355-2.083.532-4.698.532-7.844V64c0-1.146-.104-2.031-.313-2.656a1.283 1.283 0 0 1-.093-.438c0-.166.093-.25.281-.25.333 0 1.062.282 2.187.844l11.156-.656.344-.032c.354 0 .667.146.938.438.271.27.406.51.406.719 0 .083-.031.208-.094.375a1.237 1.237 0 0 0-.094.406l.157 21.656.031 1.063c0 .437-.104.802-.312 1.094-.188.291-.407.5-.657.624-.25.146-.458.22-.625.22-.375 0-1.01-.324-1.906-.97a19.93 19.93 0 0 1-2.5-2.062c-.771-.73-1.156-1.23-1.156-1.5 0-.125.073-.188.218-.188.23 0 .573.136 1.032.407a20.023 20.023 0 0 0 3.812 1.75l-.062-8.969-11.438.469Zm11.438-2.188-.032-4.875-10.718.406c-.084 2.25-.209 3.896-.375 4.938l11.125-.469Zm-.032-6.687-.031-4.781-10.562.656-.063 4.656 10.656-.531Z"/></svg>