<svg xmlns="http://www.w3.org/2000/svg" width="350" height="88" fill="none"><path fill="#333" d="M131.582 14.457c-.352 0-.668-.14-.949-.422-.352-.258-.528-.457-.528-.598 0-.164.27-.246.809-.246l1.723-.105 1.758-.176c.046-.375.07-1.09.07-2.144.07 0-.293.046-1.09.14l-.668.106a1.41 1.41 0 0 1-.562.14.478.478 0 0 1-.352-.14c-.375-.328-.563-.61-.563-.844V8.516c0-.164-.058-.797-.175-1.899l-.035-.387c0-.187.035-.304.105-.351.07-.047.199-.047.387 0 .703.187 1.043.398 1.019.633l-.035.246a9.25 9.25 0 0 0-.07 1.265c0 .61.012.997.035 1.16.047.47.07.692.07.669.024.093.106.14.246.14.141 0 .422-.035.844-.105.445-.094.738-.153.879-.176V6.617c0-.867-.035-1.453-.105-1.758a5.262 5.262 0 0 1-.071-.386c0-.164.059-.246.176-.246.047 0 .211.046.492.14.446.211.738.399.879.563.164.164.223.34.176.527-.07.234-.117.703-.141 1.406a65.697 65.697 0 0 0-.14 2.742l1.195-.035c.234 0 .41-.011.527-.035.117-.023.176-.07.176-.14.164-.891.27-1.665.316-2.32l.036-.423c.023-.047.023-.129 0-.246V6.16l-.036-.246c0-.21.082-.316.247-.316.093 0 .293.093.597.28.071.048.164.118.281.212.141.07.235.152.282.246.047.07.07.164.07.281 0 .14-.012.258-.035.352l-.387 1.968-.105.81c-.094.538-.375.831-.844.878a1.25 1.25 0 0 1-.352-.105.342.342 0 0 0-.175-.07c-.282 0-.868.058-1.758.175l-.035 2.18.597-.035.563-.036c.867 0 1.512-.046 1.933-.14.188 0 .352-.024.493-.07l.105-.036c.234 0 .481.164.738.492.305.305.457.528.457.668 0 .211-.328.282-.984.211l-1.336-.07h-1.758c-.351 0-.996.047-1.933.14-.493 0-.938.024-1.336.071a5.613 5.613 0 0 0-1.125.246l-.598.211Zm7.629 9.211c-.352 0-.691-.258-1.02-.773-.421-.657-.832-1.196-1.23-1.618l-.914-.949a14.424 14.424 0 0 1-1.301 1.336 6.992 6.992 0 0 1-1.336.95c-1.008.585-1.851.878-2.531.878-.164 0-.246-.058-.246-.176 0-.07.222-.222.668-.457a7.422 7.422 0 0 0 1.265-.843c1.008-.844 1.84-1.711 2.496-2.602-.14-.14-.843-.75-2.109-1.828-.164-.117-.41-.316-.738-.598a9.494 9.494 0 0 1-.422-.316c-.211-.164-.316-.281-.316-.352 0-.117.058-.175.175-.175.352 0 .914.246 1.688.738a25.67 25.67 0 0 1 2.426 1.687 6.91 6.91 0 0 0 .773-1.125c.188-.351.399-.785.633-1.3a2.41 2.41 0 0 0 .211-.668c.023-.211.035-.34.035-.387 0-.258.07-.387.211-.387.164 0 .387.129.668.387.492.469.738.785.738.95 0 .093-.058.198-.176.316-.281.28-.539.656-.773 1.124-.141.282-.398.68-.774 1.196-.117.14-.21.27-.281.387-.07.117-.14.222-.211.316.539.398 1.336 1.078 2.391 2.039.258.234.422.457.492.668.094.187.141.445.141.773 0 .235-.059.434-.176.598a.567.567 0 0 1-.457.211Zm-7.77 10.512c-.351 0-.621-.094-.808-.282-.211-.21-.317-.398-.317-.562 0-.164.094-.34.282-.527.023-.024.152-.211.386-.563.516-.82 1.102-1.863 1.758-3.129.68-1.289 1.102-2.168 1.266-2.637.14-.445.269-.832.387-1.16.14-.328.257-.492.351-.492.164 0 .305.059.422.176.117.094.234.234.352.422.14.164.246.281.316.351.164.188.246.364.246.528a.562.562 0 0 1-.141.351c-.093.117-.152.2-.175.246l-1.547 2.602a72.802 72.802 0 0 1-1.582 2.707.562.562 0 0 0-.141.352c0 .093.106.14.316.14.446 0 1.278-.059 2.497-.176 1.218-.093 2.039-.175 2.461-.246.609-.07 1.031-.14 1.265-.21.258-.071.633.105 1.125.527.586.492.715.808.387.949-.188.094-.551.14-1.09.14h-1.406c-.305 0-.785.024-1.442.07-.398 0-.843.013-1.336.036-.492.023-.902.047-1.23.07-.375.024-1.102.094-2.18.211l-.422.106Zm-18.984.949c0 .586-.234.879-.703.879-.352 0-.738-.13-1.16-.387-.422-.234-.633-.586-.633-1.055l.035-.246c.117-.75.176-1.476.176-2.18l.035-9.07-7.664.317.105 1.054v.106c0 .445-.222.668-.668.668-.375 0-.761-.117-1.16-.352-.398-.234-.597-.574-.597-1.02v-.28c.047-.516.07-.856.07-1.02 0-.234-.023-.563-.07-.984l-.633-7.665c-.07-.773-.27-1.43-.598-1.968-.187-.305-.281-.528-.281-.668 0-.188.129-.281.387-.281.421 0 1.242.246 2.461.738l8.718-.527.035-6.047c0-.54-.128-1.043-.386-1.512a.93.93 0 0 1-.141-.457c0-.188.153-.281.457-.281.141 0 .399.046.774.14.398.07.761.211 1.089.422.352.211.528.492.528.844l-.035 6.75 9.492-.563c.211-.023.469-.035.773-.035.422 0 .762.094 1.02.281.258.188.433.399.527.633.117.211.176.375.176.492 0 .141-.059.317-.176.528-.094.21-.14.363-.14.457l-.985 7.594c.656.75.985 1.277.985 1.582 0 .187-.094.316-.282.386-.187.047-.492.082-.914.106l-10.547.457-.07 12.164Zm-10.055-13.746 7.84-.352.035-7.77-8.543.493.668 7.629Zm18.703-.844.844-7.945-9.351.527-.071 7.805 8.578-.387Zm70.805-6.258a1.25 1.25 0 0 1-.914-.386 26.715 26.715 0 0 0-2.355-2.286c-.891-.75-1.676-1.312-2.356-1.687-.328-.188-.492-.48-.492-.879 0-.07.082-.164.246-.281.211-.14.551-.446 1.02-.914l1.265-1.23a23.702 23.702 0 0 0 1.406-1.583c.399-.469.622-.797.668-.984a1.16 1.16 0 0 0 .071-.281c.047-.165.117-.247.211-.247.117 0 .269.059.457.176.211.117.386.235.527.352.352.328.527.61.527.844-.023.07-.117.152-.281.246-.14.07-.269.14-.387.21-.117.094-.539.47-1.265 1.126l-2.285 1.968c-.399.328-.598.586-.598.774 0 .094.187.246.563.457.445.281 1.312.855 2.601 1.722.492.329.961.692 1.406 1.09.375.375.563.762.563 1.16 0 .188-.082.352-.246.493a.478.478 0 0 1-.352.14Zm-6.258 5.871c-.257 0-.574-.199-.949-.597-.281-.282-.422-.492-.422-.633 0-.07.047-.106.141-.106a1.48 1.48 0 0 1 .351-.035l.774-.035c.445 0 .738-.012.879-.035.445 0 .82-.012 1.125-.035 2.015-.188 3.375-.34 4.078-.457a29.8 29.8 0 0 0 .949-.14c.281-.071.504-.106.668-.106.328 0 .656.164.984.492.258.258.387.469.387.633 0 .14-.082.234-.246.28-.117.024-.809.071-2.074.142-.703.023-1.57.082-2.602.175a92.491 92.491 0 0 0-2.707.282c-.14.023-.34.058-.597.105-.258.047-.504.07-.739.07Zm8.262 13.852c-.023.023-.082.035-.176.035-.187 0-.457-.129-.808-.387a93.994 93.994 0 0 0-3.129-2.953c-.61.61-1.184 1.137-1.723 1.582-.187.14-.516.352-.984.633-.68.398-1.336.645-1.969.738h-.211c-.211 0-.34-.023-.387-.07-.023-.023.024-.07.141-.14a3.03 3.03 0 0 0 .316-.176c.141-.07.539-.328 1.196-.774.328-.234.797-.633 1.406-1.195.609-.563 1.055-1.02 1.336-1.371L187.48 28.8a44.357 44.357 0 0 0-.843-.598 5.944 5.944 0 0 0-.598-.457l-.035-.105c0-.141.117-.211.351-.211.282 0 .739.175 1.372.527l1.793 1.16c.398-.515.796-1.078 1.195-1.687.422-.633.644-1.008.668-1.125.023-.07.012-.13-.035-.176-.024-.07-.071-.106-.141-.106h-.703l-1.266.106c-.633.047-1.265.129-1.898.246-.07.023-.188.059-.352.105-.164.047-.304.07-.422.07-.046 0-.246-.128-.597-.386-.328-.281-.504-.457-.528-.527-.023-.024-.035-.059-.035-.106 0-.117.129-.164.387-.14h.492c.656 0 1.606-.059 2.848-.176l1.195-.106 1.09-.14c.352-.094.551-.14.598-.14h.07c.117 0 .223.034.316.105.094.07.164.14.211.21.047.07.082.118.106.141l.211.211c.117.094.187.188.211.281.047.07.07.153.07.246 0 .211-.082.364-.246.457-.117.047-.328.293-.633.739-.516.82-1.137 1.699-1.863 2.636.398.258.914.633 1.547 1.125.281.188.738.504 1.371.95.281.21.492.492.633.843.093.375.14.657.14.844-.023.188-.105.317-.246.387ZM174.789 19.87c-.305.235-.527.352-.668.352-.141 0-.211-.07-.211-.211 0-.211.117-.48.352-.809a24.637 24.637 0 0 0 2.285-4.324c.609-1.5.914-2.59.914-3.27 0-.14-.023-.351-.07-.632l-.036-.211c0-.282.118-.422.352-.422.141 0 .41.105.809.316.398.188.761.434 1.089.738.329.282.493.563.493.844 0 .258-.246.832-.739 1.723-.468.89-1.101 1.863-1.898 2.918a19.427 19.427 0 0 1-2.496 2.812l-.176.176Zm-25.699 9.106c0-.235.176-.598.527-1.09 2.321-3.07 4.488-7.032 6.504-11.883l-3.094.281c-.75.094-1.207.14-1.371.14-.492 0-.89-.222-1.195-.667-.305-.469-.492-.844-.563-1.125a.398.398 0 0 1-.035-.176c0-.14.071-.21.211-.21.071 0 .129.01.176.034.352.094.785.14 1.301.14.304 0 .539-.01.703-.034l4.43-.422.035-4.57c-.938.328-2.028.668-3.27 1.02-1.219.327-2.015.491-2.39.491-.352 0-.528-.105-.528-.316 0-.235.235-.434.703-.598 2.555-1.008 4.782-2.039 6.68-3.094 1.898-1.054 3.012-1.898 3.34-2.53.117-.212.246-.317.387-.317.257 0 .621.293 1.089.879.469.586.704 1.03.704 1.336 0 .164-.118.316-.352.457a53.89 53.89 0 0 1-4.324 1.898v5.168l2.285-.21a4.328 4.328 0 0 0 1.336-.352.623.623 0 0 1 .281-.07c.281 0 .68.21 1.195.632.516.422.774.774.774 1.055 0 .258-.258.41-.774.457l-5.097.457v2.074c.258-.21.48-.316.668-.316.281 0 .844.386 1.687 1.16.844.75 1.641 1.558 2.391 2.426.75.867 1.125 1.418 1.125 1.652 0 .281-.176.586-.527.914-.329.305-.598.457-.809.457-.258 0-.527-.2-.809-.598a35.729 35.729 0 0 0-3.726-4.218v14.976c0 .656-.211.985-.633.985-.141 0-.363-.083-.668-.247a2.962 2.962 0 0 1-.773-.562c-.211-.211-.317-.445-.317-.703l.035-.246c.141-.703.211-1.64.211-2.813l.035-9.105c0-.61.047-1.43.141-2.461-.586 1.523-1.406 3.07-2.461 4.64-1.031 1.547-2.039 2.836-3.023 3.868-.985 1.03-1.664 1.547-2.039 1.547-.118 0-.176-.07-.176-.211Zm11.777 5.695c0-.211.258-.563.774-1.055 2.859-2.672 4.957-5.32 6.293-7.945 1.336-2.625 2.168-5.238 2.496-7.84.351-2.625.527-6.059.527-10.3V6.054a2.8 2.8 0 0 0-.492-1.582c-.141-.188-.211-.34-.211-.457 0-.164.129-.246.387-.246.445 0 .996.14 1.652.421.68.258 1.019.598 1.019 1.02 0 5.297-.246 9.738-.738 13.324 1.149 3.235 2.555 6.047 4.219 8.438 1.687 2.39 3.574 4.347 5.66 5.87.352.282.527.481.527.598 0 .188-.269.457-.808.809-.539.375-.949.563-1.231.563-.234 0-.902-.563-2.003-1.688-1.102-1.125-2.309-2.648-3.622-4.57-1.312-1.922-2.461-4.102-3.445-6.54l-.035.106c-.609 2.227-1.652 4.3-3.129 6.223-1.477 1.922-2.977 3.48-4.5 4.675-1.523 1.196-2.566 1.794-3.129 1.794-.14 0-.211-.047-.211-.141Zm3.27-22.606c0-.304.164-.527.492-.668.328-.14.598-.21.809-.21.164 0 .292.058.386.175.117.094.246.258.387.492.375.75.926 2.028 1.652 3.832.727 1.782 1.09 2.836 1.09 3.165 0 .328-.223.585-.668.773-.422.164-.738.246-.949.246a.617.617 0 0 1-.457-.176c-.094-.14-.188-.363-.281-.668-.657-2.39-1.43-4.547-2.321-6.468-.093-.235-.14-.399-.14-.493Zm81.984 2.32c-.164 0-.34-.105-.527-.316a2.15 2.15 0 0 1-.282-.386c-.046-.118-.046-.27 0-.457l.036-.844c.023-.164.035-.563.035-1.195v-1.16l-1.055.492-1.23.527a10.87 10.87 0 0 0-.95.422c-.281.14-.527.21-.738.21a2.17 2.17 0 0 1-.562-.175 4.837 4.837 0 0 1-.493-.246c-.257-.164-.375-.34-.351-.527l.105-.352c0-.188.012-.352.036-.492l.035-2.04V5.95c0-.375-.024-.691-.071-.949-.047-.281-.082-.48-.105-.598 0-.117.035-.199.105-.246.024-.023.082-.035.176-.035.164 0 .481.106.949.316.399.188.563.422.493.704-.047.164-.094.41-.141.738l-.106 4.043c0 .117.012.21.036.281.046.047.093.07.14.07.282 0 .621-.082 1.02-.246.75-.234 1.394-.468 1.933-.703l.774-.316v-2.32c0-.938-.059-1.84-.176-2.708a.792.792 0 0 1-.035-.246c0-.234.094-.351.281-.351.024 0 .152.047.387.14.351.188.609.352.773.493.164.14.258.222.282.246.093.07.14.14.14.21a.34.34 0 0 1-.07.176c-.024.07-.047.13-.07.176l-.106 1.055-.035 3.234.035 3.13c0 .538-.035 1.007-.105 1.405-.118.493-.305.739-.563.739Zm-6.469 5.766c-.257 0-.574-.199-.949-.597-.281-.282-.422-.492-.422-.633 0-.07.047-.106.141-.106a1.48 1.48 0 0 1 .351-.035l.774-.035c.445 0 .738-.012.879-.035.445 0 .82-.012 1.125-.035 2.015-.188 3.375-.34 4.078-.457a29.8 29.8 0 0 0 .949-.14c.281-.071.504-.106.668-.106.328 0 .656.164.984.492.258.258.387.469.387.633 0 .14-.082.234-.246.28-.117.024-.809.071-2.074.142-.703.023-1.57.082-2.602.175a92.491 92.491 0 0 0-2.707.282c-.14.023-.34.058-.597.105-.258.047-.504.07-.739.07Zm4.711 14.52c-.726 0-1.289-.024-1.687-.07a1.68 1.68 0 0 1-.949-.422c-.446-.328-.75-1.043-.915-2.145l-.105-1.125c0-.281-.023-.633-.07-1.055a5.987 5.987 0 0 0-.809.141 3.817 3.817 0 0 1-.246.106.965.965 0 0 1-.211.035.81.81 0 0 1-.457-.14c-.141-.095-.316-.27-.527-.528-.164-.211-.246-.352-.246-.422s.082-.117.246-.14c.164-.024.386-.036.668-.036.398 0 .914-.047 1.547-.14l-.036-.493c0-.937-.058-1.734-.175-2.39l-.036-.246c0-.329.129-.457.387-.387.281.094.539.21.774.351.187.094.316.188.386.282.071.07.094.175.071.316l-.106 1.512v.914l3.094-.317c0-.164.012-.55.035-1.16.024-.633.024-1.043 0-1.23 0-.188-.023-.363-.07-.527a6.529 6.529 0 0 0-.071-.458c0-.187.094-.28.282-.28.187 0 .422.105.703.316.328.21.539.398.633.562.117.164.14.363.07.598a6.4 6.4 0 0 0-.246 1.265c-.047.47-.07.75-.07.844.281-.023.539-.058.773-.105.234-.047.387-.07.457-.07.188-.047.41-.071.668-.071.141.023.34.164.598.422.211.281.316.504.316.668 0 .234-.223.328-.668.281a6.863 6.863 0 0 0-1.195-.105c-.399 0-.738.011-1.02.035-.07.844-.211 1.676-.422 2.496a.953.953 0 0 1-.246.457c-.117.14-.222.21-.316.21-.164 0-.27-.07-.317-.21a3.524 3.524 0 0 1-.035-.598c.047-.61.071-1.37.071-2.285a26.99 26.99 0 0 0-1.477.14 9.357 9.357 0 0 1-1.512.212c-.023.96.024 1.816.141 2.566.07.492.211.832.422 1.02.14.117.305.187.492.21.211.024.422.036.633.036h.422c.726 0 1.406-.035 2.039-.106a1.52 1.52 0 0 0 .492-.14c.164-.07.281-.106.352-.106.21 0 .421.07.632.211.211.14.317.305.317.492 0 .188-.106.328-.317.422-.187.094-.492.176-.914.246-.75.094-1.5.14-2.25.14Zm10.02-15.996c.281 0 .422.129.422.387 0 .14-.129.34-.387.597-.703.867-2.098 2.52-4.184 4.957-.164.211-.316.317-.457.317-.117 0-.375-.176-.773-.528-.328-.281-.492-.515-.492-.703 0-.21.176-.41.527-.598.539-.304 1.348-.914 2.426-1.828 1.078-.96 1.875-1.722 2.39-2.285.211-.21.387-.316.528-.316Zm-44.684 11.496c2.086-.656 3.949-1.371 5.59-2.145a25.586 25.586 0 0 0-1.336-1.687c-.187-.235-.281-.422-.281-.563 0-.258.152-.48.457-.668.305-.21.539-.316.703-.316.188 0 .387.117.598.352a137.853 137.853 0 0 1 3.41 4.148c.937 1.195 1.406 1.922 1.406 2.18 0 .21-.164.457-.492.738-.305.305-.598.457-.879.457-.234 0-.469-.188-.703-.563a96.435 96.435 0 0 0-1.828-2.671l-4.219 2.109c-.469.21-1.207.586-2.215 1.125-.844.445-1.359.668-1.547.668-.14 0-.316-.094-.527-.281a1.65 1.65 0 0 1-.492-.633c-.094-.234-.094-.422 0-.563.14-.257.211-1.289.211-3.093V16.602c0-.563-.024-1.02-.071-1.372a3.587 3.587 0 0 0-.281-1.125 1.37 1.37 0 0 0-.07-.175.305.305 0 0 1-.035-.14c0-.118.082-.177.246-.177.304 0 1.066.258 2.285.774l7.629-.528c.187-.023.398-.035.633-.035.257 0 .562.117.914.352.351.21.527.445.527.703 0 .094-.059.234-.176.422-.094.187-.14.328-.14.422l-.914 6.609c.562.656.843 1.102.843 1.336 0 .117-.07.2-.211.246-.117.047-.304.07-.562.07l-8.508.317.035 5.87Zm-5.765-15.785c0-.235.152-.516.457-.844 1.711-1.898 3.199-3.785 4.464-5.66 1.266-1.875 1.899-3.13 1.899-3.762l-.035-.246V3.77c0-.329.129-.493.386-.493.305 0 .727.211 1.266.633.563.399.844.727.844.985 0 .117-.059.27-.176.457a23.895 23.895 0 0 1-1.16 1.687l4.992-.387a4.872 4.872 0 0 0 1.336-.28c.141-.048.246-.071.316-.071.352 0 .727.199 1.125.597.422.375.633.668.633.88 0 .28-.258.445-.773.492l-6.012.421c.164.047.527.293 1.09.739.586.445 1.113.902 1.582 1.37.469.47.703.798.703.985 0 .211-.141.469-.422.774-.281.28-.527.421-.738.421-.188 0-.41-.152-.668-.457a21.796 21.796 0 0 0-2.426-2.285c-.281-.234-.422-.433-.422-.597 0-.118.059-.27.176-.457.117-.188.27-.34.457-.457l-2.355.175a34.406 34.406 0 0 1-3.727 3.903c-1.359 1.195-2.226 1.793-2.601 1.793-.141 0-.211-.07-.211-.211Zm12.656 3.656.246-2.461-7.242.492v2.32l6.996-.351Zm-.457 4.36.281-2.708-6.785.317v2.636l6.504-.246Zm1.898-9.528c0-.234.153-.516.457-.844 1.149-1.383 2.192-2.941 3.129-4.676.961-1.757 1.442-2.988 1.442-3.69v-.142c0-.351.129-.527.386-.527.164 0 .41.094.739.281.351.164.668.364.949.598.281.234.422.469.422.703 0 .211-.164.586-.493 1.125-.328.54-.503.82-.527.844l6.926-.563a6.483 6.483 0 0 0 1.336-.246c.047-.023.141-.035.281-.035.328 0 .68.188 1.055.563.398.351.597.644.597.879 0 .14-.07.257-.21.351-.118.07-.282.117-.493.14l-7.136.493c.656.422 1.429 1.043 2.32 1.863.891.797 1.336 1.336 1.336 1.617 0 .164-.129.422-.387.774-.258.328-.504.492-.738.492-.188 0-.387-.117-.598-.352-1.148-1.242-2.191-2.226-3.129-2.953-.234-.187-.351-.363-.351-.527 0-.188.176-.469.527-.844l-2.601.176c-.774 1.031-1.711 2.074-2.813 3.129-1.078 1.055-1.805 1.582-2.18 1.582-.164 0-.246-.07-.246-.211Zm3.305.773c0-.14.082-.21.246-.21.352 0 1.148.292 2.391.878l7.066-.597.281-.035c.094 0 .27.046.528.14.281.07.539.2.773.387.258.164.387.387.387.668 0 .094-.035.223-.106.387-.07.164-.105.28-.105.351a88.243 88.243 0 0 1-.492 8.262l-.071.879c-.07.984-.164 1.805-.281 2.46-.117.657-.316 1.173-.598 1.548-.445.609-.925.914-1.441.914s-1.172-.317-1.969-.95a18.576 18.576 0 0 1-2.215-2.074c-.656-.75-.984-1.23-.984-1.441 0-.164.094-.246.281-.246.211 0 .504.117.879.351.867.54 1.594.973 2.18 1.301.586.328 1.008.492 1.266.492.117 0 .199-.082.246-.246.539-3 .867-6.762.984-11.285l-6.609.492c0 3.961.035 10.242.105 18.844 0 .21-.058.363-.176.457a.466.466 0 0 1-.386.176c-.188 0-.411-.07-.668-.211-.446-.188-.762-.363-.95-.528-.187-.164-.281-.351-.281-.562l.035-.246c.141-.773.211-1.64.211-2.602l-.105-14.836c0-.609-.024-1.078-.07-1.406a3.306 3.306 0 0 0-.211-.95c-.094-.28-.141-.468-.141-.562ZM136.719 72.844c-.146 0-.073-.125.219-.375.291-.25.645-.552 1.062-.906a16.43 16.43 0 0 0 1.406-1.47 4.31 4.31 0 0 0 .75-1.25c.104-.25.219-.374.344-.374.104 0 .26.083.469.25.416.333.625.614.625.844 0 .145-.084.25-.25.312-.084.02-.209.115-.375.281-.167.146-.292.26-.375.344-.896.875-1.729 1.51-2.5 1.906-.625.292-1.042.438-1.25.438h-.125ZM140 78.656c-.062 0-.167-.083-.312-.25a2.624 2.624 0 0 1-.282-.531 1.735 1.735 0 0 1 0-.469c.042-.208.063-.364.063-.469.041-.416.062-.75.062-1 .021-.229.021-.479 0-.75v-.53l-.031-.47c-.5.355-.885.605-1.156.75-.604.334-1.042.542-1.313.626a2.606 2.606 0 0 1-.906.187c-.146 0-.229-.02-.25-.063-.042-.083.375-.385 1.25-.906.833-.52 1.74-1.208 2.719-2.062.541-.5.958-.98 1.25-1.438a.713.713 0 0 0 .094-.219c.041-.104.083-.166.124-.187.063-.02.146-.01.25.031.271.146.5.354.688.625a.503.503 0 0 1 .125.313c0 .104-.052.208-.156.312a1.245 1.245 0 0 1-.313.188 6.99 6.99 0 0 0-.968.75c-.292.27-.48.448-.563.531.313.25.469.427.469.531l-.094.656c-.042.188-.062.657-.062 1.407 0 .729.02 1.219.062 1.469v.062a.772.772 0 0 1-.094.344 2.888 2.888 0 0 1-.094.219c-.145.229-.333.343-.562.343Zm-20.25-6c-.5.042-.854.063-1.062.063-.417 0-.688-.063-.813-.188-.25-.229-.479-.52-.687-.875-.188-.375-.282-.604-.282-.687 0-.104.115-.156.344-.156.354.083.75.124 1.188.124.208 0 .562-.02 1.062-.062l7.531-.563h.407c.479 0 .864.146 1.156.438.312.27.468.52.468.75a.56.56 0 0 1-.218.438c-.125.124-.271.24-.438.343a1.431 1.431 0 0 0-.344.219c-2.937 2.563-5.02 4.438-6.25 5.625-.874.833-1.562 1.656-2.062 2.469-.5.812-.75 1.448-.75 1.906 0 .458.167.813.5 1.063.354.229.896.385 1.625.468.729.084 1.76.125 3.094.125 2.166 0 4.073-.114 5.719-.344.395-.041.687-.187.874-.437.209-.25.386-.677.532-1.281.166-.625.385-1.688.656-3.188.083-.416.177-.74.281-.969.104-.229.209-.343.313-.343.104 0 .187.125.25.375.083.229.125.573.125 1.031 0 1.854-.063 3.219-.188 4.094-.104.854-.333 1.479-.687 1.875-.354.396-.927.656-1.719.781-1.854.25-3.948.375-6.281.375a41.41 41.41 0 0 1-4.156-.188c-1.021-.104-1.782-.49-2.282-1.156a3.762 3.762 0 0 1-.718-2.25c0-.708.281-1.562.843-2.562.563-1 1.281-1.906 2.157-2.719 1.166-1.083 3.02-2.76 5.562-5.031l-5.75.437Zm-14.531-7.187c0-.146.104-.219.312-.219.313 0 1 .198 2.063.594l4.437-.281c.167-.021.375-.032.625-.032.375 0 .677.115.906.344.25.23.376.48.376.75 0 .125-.032.26-.094.406-.042.146-.073.25-.094.313l-.594 7.312c.5.646.75 1.094.75 1.344 0 .146-.062.24-.187.281-.125.021-.354.042-.688.063l-5 .187.063 1.656v.063c0 .396-.177.594-.532.594-.333 0-.677-.104-1.031-.313-.333-.208-.5-.52-.5-.937 0-.146.011-.26.031-.344.063-.354.094-.677.094-.969l-.031-.625-.313-7.969c-.041-.77-.166-1.333-.374-1.687-.146-.25-.219-.427-.219-.531Zm2.719 9.281 3.374-.094.532-7.312-4.188.219.282 7.187Zm6.218-2.469c0-.146.094-.375.282-.687a40.13 40.13 0 0 0 3.156-5.375 39.999 39.999 0 0 0 2.344-5.719c.062-.188.093-.375.093-.563 0-.25-.041-.5-.125-.75a.433.433 0 0 1-.031-.187c0-.188.104-.281.313-.281.166 0 .437.083.812.25.375.166.708.375 1 .625.292.229.438.448.438.656 0 .125-.032.25-.094.375a41.216 41.216 0 0 1-2.188 4.594l8.782-.563c.437-.02.802-.104 1.093-.25.209-.083.354-.125.438-.125.312 0 .646.198 1 .594.354.396.531.719.531.969s-.281.396-.844.437L119.094 67a29.282 29.282 0 0 1-2.844 3.813c-.979 1.124-1.615 1.687-1.906 1.687-.125 0-.188-.073-.188-.219Zm70.313-4.125c-.229 0-.511-.177-.844-.531-.25-.25-.375-.438-.375-.563 0-.062.042-.093.125-.093.083-.021.187-.031.313-.031l.687-.032c.396 0 .656-.01.781-.031.396 0 .729-.01 1-.031 1.792-.167 3-.302 3.625-.406.313-.042.594-.084.844-.126.25-.062.448-.093.594-.093.291 0 .583.146.875.437.229.23.344.417.344.563 0 .125-.073.208-.219.25-.104.02-.719.062-1.844.125-.625.02-1.396.073-2.313.156-.916.083-1.718.167-2.406.25-.125.02-.302.052-.531.094a3.676 3.676 0 0 1-.656.062Zm7.343 14.188c-.02.02-.072.031-.156.031-.166 0-.406-.115-.718-.344a83.974 83.974 0 0 0-2.782-2.625 21.943 21.943 0 0 1-1.531 1.406 11.53 11.53 0 0 1-.875.563c-.604.354-1.188.573-1.75.656h-.188c-.187 0-.302-.02-.343-.062-.021-.021.021-.063.125-.125a2.84 2.84 0 0 0 .281-.156c.125-.063.479-.292 1.063-.688.291-.208.708-.563 1.25-1.063.541-.5.937-.906 1.187-1.218l-1.281-1a38.492 38.492 0 0 0-.75-.531 5.102 5.102 0 0 0-.532-.407l-.031-.094c0-.124.104-.187.313-.187.25 0 .656.156 1.218.469L187.906 78c.354-.458.709-.958 1.063-1.5.375-.563.573-.896.593-1 .021-.063.011-.115-.031-.156-.021-.063-.062-.094-.125-.094h-.625l-1.125.094a15.55 15.55 0 0 0-1.687.219c-.063.02-.167.052-.313.093a1.402 1.402 0 0 1-.375.063c-.041 0-.219-.115-.531-.344-.292-.25-.448-.406-.469-.469-.021-.02-.031-.052-.031-.094 0-.104.115-.145.344-.124h.437c.584 0 1.427-.053 2.531-.157l1.063-.094.969-.124c.312-.084.489-.126.531-.126h.063c.104 0 .197.032.281.094a.786.786 0 0 1 .187.188.953.953 0 0 0 .094.125l.188.187a.495.495 0 0 1 .187.25.383.383 0 0 1 .063.219c0 .188-.073.323-.219.406-.104.042-.292.26-.563.656-.458.73-1.01 1.51-1.656 2.344.354.23.812.563 1.375 1 .25.167.656.448 1.219.844.25.188.437.438.562.75.084.333.125.583.125.75-.021.167-.093.281-.219.344Zm1.75-11.125c.105 0 .261.073.469.219-.021.041.021.124.125.25l.219.218c.104.104.208.23.313.375.124.146.26.302.406.469.375.396 1.239 1.427 2.594 3.094.229.333.343.531.343.594 0 .208-.125.312-.375.312-.146 0-.302-.104-.468-.313-.396-.416-1.105-1.072-2.126-1.968-.791-.73-1.51-1.292-2.156-1.688-.312-.146-.468-.312-.468-.5 0-.146.156-.354.468-.625.292-.291.511-.437.656-.437ZM167 85.188v.187c0 .417-.135.625-.406.625-.125 0-.323-.052-.594-.156a2.269 2.269 0 0 1-.719-.406.89.89 0 0 1-.312-.688l.031-.344c.021-.229.031-.604.031-1.125v-.594l-.593-12.218c-.021-.73-.146-1.302-.376-1.719-.145-.23-.218-.406-.218-.531s.114-.188.344-.188c.291 0 .968.167 2.031.5l4.469-.25-.032-7.187c0-.5-.146-.938-.437-1.313-.125-.166-.188-.302-.188-.406 0-.146.136-.219.407-.219.229 0 .593.063 1.093.188.459.104.75.24.875.406.125.167.188.375.188.625l-.032 7.781 5.188-.281.344-.031c.312 0 .646.135 1 .406.354.27.531.552.531.844 0 .104-.042.24-.125.406a.96.96 0 0 0-.094.344l-1.031 12.531c.542.667.813 1.115.813 1.344 0 .146-.073.24-.219.281-.146.02-.407.042-.781.063l-11.219.312.031.813Zm-14.781-4.657c0-.208.104-.479.312-.812 2.146-3.292 3.938-7.084 5.375-11.375l-2.5.219c-.458.041-.75.062-.875.062-.291 0-.521-.052-.687-.156-.438-.375-.74-.781-.906-1.219a.431.431 0 0 1-.032-.188c0-.145.084-.218.25-.218h.156c.376.062.73.094 1.063.094h.375l3.375-.282.063-5.719c0-.395-.136-.802-.407-1.218a.503.503 0 0 1-.125-.313c0-.166.136-.25.406-.25.25 0 .605.084 1.063.25.396.146.646.282.75.407.104.124.156.312.156.562l-.062 6.125 1.406-.156c.458-.042.833-.115 1.125-.219a.993.993 0 0 1 .281-.063c.25 0 .552.157.907.47.354.29.531.551.531.78 0 .292-.219.459-.657.5l-3.624.344-.032 2.844c.25-.188.459-.281.625-.281.229 0 .594.291 1.094.875.5.583.969 1.229 1.406 1.937.459.688.688 1.094.688 1.219 0 .23-.125.427-.375.594a2.848 2.848 0 0 1-.875.406.538.538 0 0 1-.344-.125 3.255 3.255 0 0 1-.281-.438c-.5-.916-1.146-1.937-1.938-3.062l-.187 14.094c0 .479-.167.719-.5.719-.229 0-.459-.073-.688-.22-.562-.27-.843-.635-.843-1.093 0-.146.01-.25.031-.313.146-.604.219-1.229.219-1.874.062-3.834.093-6.865.093-9.094 0-.396.042-1.136.125-2.219-.271 1.042-.812 2.24-1.625 3.594a31.378 31.378 0 0 1-2.469 3.531c-.833 1-1.385 1.5-1.656 1.5-.125 0-.187-.073-.187-.219Zm14.312-5.219 4.157-.187v-5.156l-4.407.219.25 5.124Zm.344 7.344 3.844-.125-.031-5.75-4.094.188.281 5.687Zm9.719-.281.344-5.875-4.376.188-.031 5.812 4.063-.125Zm.437-7.531.313-5.219-4.782.25v5.156l4.469-.187Zm57.75 5.062c-.166 0-.302-.135-.406-.406-.167-.333-.25-.604-.25-.813l.031-.843c.021-.417.032-1.25.032-2.5V73.78l-.032-1.094c-.229 0-.468.032-.718.094l-.719.188c-.104.041-.271-.021-.5-.188a1.916 1.916 0 0 1-.531-.562.713.713 0 0 1-.094-.281c0-.063.031-.105.094-.126a.688.688 0 0 1 .218-.03c.979 0 1.886-.053 2.719-.157l.937-.063 1.376-.093c.333-.042.562-.073.687-.094.167-.02.354-.042.563-.063.229-.041.374-.052.437-.03a2 2 0 0 0 .313.187c.145.062.302.166.468.312.104.104.188.209.25.313a.386.386 0 0 1 .125.281c0 .083-.052.208-.156.375-.104.167-.208.427-.313.781-.083.354-.145.604-.187.75-.313 1.042-.698 1.802-1.156 2.281a1.666 1.666 0 0 1-1.125.438c-.188 0-.344-.135-.469-.406-.187-.417-.396-.709-.625-.875l.031-.156c.563.187.948.28 1.157.28.166 0 .281-.03.343-.093a.766.766 0 0 0 .219-.281c.104-.271.188-.51.25-.719.083-.208.156-.396.219-.563.041-.187.093-.437.156-.75a5.46 5.46 0 0 0 .156-.75c0-.187-.052-.28-.156-.28h-.687c-.313 0-.667.01-1.063.03-.396.021-.719.053-.969.094l-.062 2.844.031 1.625v.656a1.27 1.27 0 0 1 0 .406v.594c.021.25.021.427 0 .531l-.219.5c-.146.146-.271.22-.375.22Zm1-13.406c.417 0 .771.146 1.063.438.312.27.468.635.468 1.093 0 .459-.156.834-.468 1.125-.292.271-.646.406-1.063.406-.416 0-.781-.135-1.093-.406-.292-.291-.438-.666-.438-1.125 0-.458.146-.823.438-1.094a1.55 1.55 0 0 1 1.093-.437Zm-19.656 7c.333 2.354.5 4.792.5 7.313l-.031 1.374c-.042 1.521-.188 2.73-.438 3.626-.25.916-.698 1.374-1.344 1.374-.458 0-1.291-.364-2.5-1.093A27.963 27.963 0 0 1 209 83.719c-1-.854-1.5-1.448-1.5-1.781 0-.126.083-.188.25-.188.25 0 .594.125 1.031.375 1.959 1.083 3.709 1.906 5.25 2.469h.063c.125 0 .187-.063.187-.188.209-1.5.313-3.156.313-4.969 0-2.124-.136-4.072-.406-5.843l-11.594.625c-.209.02-.479.031-.813.031-.437 0-.739-.083-.906-.25a5.366 5.366 0 0 1-.531-.656c-.188-.292-.282-.584-.282-.875 0-.146.084-.219.25-.219.084 0 .146.01.188.031a4.94 4.94 0 0 0 1.188.125h.343l11.844-.656c-.292-1.27-.646-2.27-1.063-3-.166-.292-.25-.51-.25-.656 0-.209.126-.386.376-.531.25-.146.562-.25.937-.313.25 0 .479.188.687.563 2.417-1.834 4.188-3.521 5.313-5.063l-11.563.844c-.541.041-.885.062-1.031.062-.625 0-1.156-.51-1.593-1.531l-.063-.281c0-.125.073-.188.219-.188.083 0 .146.01.187.032.334.083.698.124 1.094.124l.531-.03 13.469-.97.406-.03c.313 0 .646.145 1 .437.375.27.563.552.563.843 0 .188-.104.355-.313.5-.187.146-.312.25-.375.313a48.85 48.85 0 0 1-7.125 6.625c.188.646.365 1.354.531 2.125l9.657-.531a6.688 6.688 0 0 0 1.719-.313.945.945 0 0 1 .281-.031c.375 0 .781.198 1.219.594.437.375.656.698.656.969 0 .145-.073.26-.219.343a1.09 1.09 0 0 1-.5.156h-.063l-12.437.688Z"/></svg>