<svg xmlns="http://www.w3.org/2000/svg" width="350" height="88" fill="none"><path fill="#333" d="M131.582 14.457c-.352 0-.668-.14-.949-.422-.352-.258-.528-.457-.528-.598 0-.164.27-.246.809-.246l1.723-.105 1.758-.176c.046-.375.07-1.09.07-2.144.07 0-.293.046-1.09.14l-.668.106a1.41 1.41 0 0 1-.562.14.478.478 0 0 1-.352-.14c-.375-.328-.563-.61-.563-.844V8.516c0-.164-.058-.797-.175-1.899l-.035-.387c0-.187.035-.304.105-.351.07-.047.199-.047.387 0 .703.187 1.043.398 1.019.633l-.035.246a9.25 9.25 0 0 0-.07 1.265c0 .61.012.997.035 1.16.047.47.07.692.07.669.024.093.106.14.246.14.141 0 .422-.035.844-.105.445-.094.738-.153.879-.176V6.617c0-.867-.035-1.453-.105-1.758a5.262 5.262 0 0 1-.071-.386c0-.164.059-.246.176-.246.047 0 .211.046.492.14.446.211.738.399.879.563.164.164.223.34.176.527-.07.234-.117.703-.141 1.406a65.697 65.697 0 0 0-.14 2.742l1.195-.035c.234 0 .41-.011.527-.035.117-.023.176-.07.176-.14.164-.891.27-1.665.316-2.32l.036-.423c.023-.047.023-.129 0-.246V6.16l-.036-.246c0-.21.082-.316.247-.316.093 0 .293.093.597.28.071.048.164.118.281.212.141.07.235.152.282.246.047.07.07.164.07.281 0 .14-.012.258-.035.352l-.387 1.968-.105.81c-.094.538-.375.831-.844.878a1.25 1.25 0 0 1-.352-.105.342.342 0 0 0-.175-.07c-.282 0-.868.058-1.758.175l-.035 2.18.597-.035.563-.036c.867 0 1.512-.046 1.933-.14.188 0 .352-.024.493-.07l.105-.036c.234 0 .481.164.738.492.305.305.457.528.457.668 0 .211-.328.282-.984.211l-1.336-.07h-1.758c-.351 0-.996.047-1.933.14-.493 0-.938.024-1.336.071a5.613 5.613 0 0 0-1.125.246l-.598.211Zm7.629 9.211c-.352 0-.691-.258-1.02-.773-.421-.657-.832-1.196-1.23-1.618l-.914-.949a14.424 14.424 0 0 1-1.301 1.336 6.992 6.992 0 0 1-1.336.95c-1.008.585-1.851.878-2.531.878-.164 0-.246-.058-.246-.176 0-.07.222-.222.668-.457a7.422 7.422 0 0 0 1.265-.843c1.008-.844 1.84-1.711 2.496-2.602-.14-.14-.843-.75-2.109-1.828-.164-.117-.41-.316-.738-.598a9.494 9.494 0 0 1-.422-.316c-.211-.164-.316-.281-.316-.352 0-.117.058-.175.175-.175.352 0 .914.246 1.688.738a25.67 25.67 0 0 1 2.426 1.687 6.91 6.91 0 0 0 .773-1.125c.188-.351.399-.785.633-1.3a2.41 2.41 0 0 0 .211-.668c.023-.211.035-.34.035-.387 0-.258.07-.387.211-.387.164 0 .387.129.668.387.492.469.738.785.738.95 0 .093-.058.198-.176.316-.281.28-.539.656-.773 1.124-.141.282-.398.68-.774 1.196-.117.14-.21.27-.281.387-.07.117-.14.222-.211.316.539.398 1.336 1.078 2.391 2.039.258.234.422.457.492.668.094.187.141.445.141.773 0 .235-.059.434-.176.598a.567.567 0 0 1-.457.211Zm-7.77 10.512c-.351 0-.621-.094-.808-.282-.211-.21-.317-.398-.317-.562 0-.164.094-.34.282-.527.023-.024.152-.211.386-.563.516-.82 1.102-1.863 1.758-3.129.68-1.289 1.102-2.168 1.266-2.637.14-.445.269-.832.387-1.16.14-.328.257-.492.351-.492.164 0 .305.059.422.176.117.094.234.234.352.422.14.164.246.281.316.351.164.188.246.364.246.528a.562.562 0 0 1-.141.351c-.093.117-.152.2-.175.246l-1.547 2.602a72.802 72.802 0 0 1-1.582 2.707.562.562 0 0 0-.141.352c0 .093.106.14.316.14.446 0 1.278-.059 2.497-.176 1.218-.093 2.039-.175 2.461-.246.609-.07 1.031-.14 1.265-.21.258-.071.633.105 1.125.527.586.492.715.808.387.949-.188.094-.551.14-1.09.14h-1.406c-.305 0-.785.024-1.442.07-.398 0-.843.013-1.336.036-.492.023-.902.047-1.23.07-.375.024-1.102.094-2.18.211l-.422.106Zm-18.984.949c0 .586-.234.879-.703.879-.352 0-.738-.13-1.16-.387-.422-.234-.633-.586-.633-1.055l.035-.246c.117-.75.176-1.476.176-2.18l.035-9.07-7.664.317.105 1.054v.106c0 .445-.222.668-.668.668-.375 0-.761-.117-1.16-.352-.398-.234-.597-.574-.597-1.02v-.28c.047-.516.07-.856.07-1.02 0-.234-.023-.563-.07-.984l-.633-7.665c-.07-.773-.27-1.43-.598-1.968-.187-.305-.281-.528-.281-.668 0-.188.129-.281.387-.281.421 0 1.242.246 2.461.738l8.718-.527.035-6.047c0-.54-.128-1.043-.386-1.512a.93.93 0 0 1-.141-.457c0-.188.153-.281.457-.281.141 0 .399.046.774.14.398.07.761.211 1.089.422.352.211.528.492.528.844l-.035 6.75 9.492-.563c.211-.023.469-.035.773-.035.422 0 .762.094 1.02.281.258.188.433.399.527.633.117.211.176.375.176.492 0 .141-.059.317-.176.528-.094.21-.14.363-.14.457l-.985 7.594c.656.75.985 1.277.985 1.582 0 .187-.094.316-.282.386-.187.047-.492.082-.914.106l-10.547.457-.07 12.164Zm-10.055-13.746 7.84-.352.035-7.77-8.543.493.668 7.629Zm18.703-.844.844-7.945-9.351.527-.071 7.805 8.578-.387Zm70.805-6.258a1.25 1.25 0 0 1-.914-.386 26.715 26.715 0 0 0-2.355-2.286c-.891-.75-1.676-1.312-2.356-1.687-.328-.188-.492-.48-.492-.879 0-.07.082-.164.246-.281.211-.14.551-.446 1.02-.914l1.265-1.23a23.702 23.702 0 0 0 1.406-1.583c.399-.469.622-.797.668-.984a1.16 1.16 0 0 0 .071-.281c.047-.165.117-.247.211-.247.117 0 .269.059.457.176.211.117.386.235.527.352.352.328.527.61.527.844-.023.07-.117.152-.281.246-.14.07-.269.14-.387.21-.117.094-.539.47-1.265 1.126l-2.285 1.968c-.399.328-.598.586-.598.774 0 .094.187.246.563.457.445.281 1.312.855 2.601 1.722.492.329.961.692 1.406 1.09.375.375.563.762.563 1.16 0 .188-.082.352-.246.493a.478.478 0 0 1-.352.14Zm-6.258 5.871c-.257 0-.574-.199-.949-.597-.281-.282-.422-.492-.422-.633 0-.07.047-.106.141-.106a1.48 1.48 0 0 1 .351-.035l.774-.035c.445 0 .738-.012.879-.035.445 0 .82-.012 1.125-.035 2.015-.188 3.375-.34 4.078-.457a29.8 29.8 0 0 0 .949-.14c.281-.071.504-.106.668-.106.328 0 .656.164.984.492.258.258.387.469.387.633 0 .14-.082.234-.246.28-.117.024-.809.071-2.074.142-.703.023-1.57.082-2.602.175a92.491 92.491 0 0 0-2.707.282c-.14.023-.34.058-.597.105-.258.047-.504.07-.739.07Zm8.262 13.852c-.023.023-.082.035-.176.035-.187 0-.457-.129-.808-.387a93.994 93.994 0 0 0-3.129-2.953c-.61.61-1.184 1.137-1.723 1.582-.187.14-.516.352-.984.633-.68.398-1.336.645-1.969.738h-.211c-.211 0-.34-.023-.387-.07-.023-.023.024-.07.141-.14a3.03 3.03 0 0 0 .316-.176c.141-.07.539-.328 1.196-.774.328-.234.797-.633 1.406-1.195.609-.563 1.055-1.02 1.336-1.371L187.48 28.8a44.357 44.357 0 0 0-.843-.598 5.944 5.944 0 0 0-.598-.457l-.035-.105c0-.141.117-.211.351-.211.282 0 .739.175 1.372.527l1.793 1.16c.398-.515.796-1.078 1.195-1.687.422-.633.644-1.008.668-1.125.023-.07.012-.13-.035-.176-.024-.07-.071-.106-.141-.106h-.703l-1.266.106c-.633.047-1.265.129-1.898.246-.07.023-.188.059-.352.105-.164.047-.304.07-.422.07-.046 0-.246-.128-.597-.386-.328-.281-.504-.457-.528-.527-.023-.024-.035-.059-.035-.106 0-.117.129-.164.387-.14h.492c.656 0 1.606-.059 2.848-.176l1.195-.106 1.09-.14c.352-.094.551-.14.598-.14h.07c.117 0 .223.034.316.105.094.07.164.14.211.21.047.07.082.118.106.141l.211.211c.117.094.187.188.211.281.047.07.07.153.07.246 0 .211-.082.364-.246.457-.117.047-.328.293-.633.739-.516.82-1.137 1.699-1.863 2.636.398.258.914.633 1.547 1.125.281.188.738.504 1.371.95.281.21.492.492.633.843.093.375.14.657.14.844-.023.188-.105.317-.246.387ZM174.789 19.87c-.305.235-.527.352-.668.352-.141 0-.211-.07-.211-.211 0-.211.117-.48.352-.809a24.637 24.637 0 0 0 2.285-4.324c.609-1.5.914-2.59.914-3.27 0-.14-.023-.351-.07-.632l-.036-.211c0-.282.118-.422.352-.422.141 0 .41.105.809.316.398.188.761.434 1.089.738.329.282.493.563.493.844 0 .258-.246.832-.739 1.723-.468.89-1.101 1.863-1.898 2.918a19.427 19.427 0 0 1-2.496 2.812l-.176.176Zm-25.699 9.106c0-.235.176-.598.527-1.09 2.321-3.07 4.488-7.032 6.504-11.883l-3.094.281c-.75.094-1.207.14-1.371.14-.492 0-.89-.222-1.195-.667-.305-.469-.492-.844-.563-1.125a.398.398 0 0 1-.035-.176c0-.14.071-.21.211-.21.071 0 .129.01.176.034.352.094.785.14 1.301.14.304 0 .539-.01.703-.034l4.43-.422.035-4.57c-.938.328-2.028.668-3.27 1.02-1.219.327-2.015.491-2.39.491-.352 0-.528-.105-.528-.316 0-.235.235-.434.703-.598 2.555-1.008 4.782-2.039 6.68-3.094 1.898-1.054 3.012-1.898 3.34-2.53.117-.212.246-.317.387-.317.257 0 .621.293 1.089.879.469.586.704 1.03.704 1.336 0 .164-.118.316-.352.457a53.89 53.89 0 0 1-4.324 1.898v5.168l2.285-.21a4.328 4.328 0 0 0 1.336-.352.623.623 0 0 1 .281-.07c.281 0 .68.21 1.195.632.516.422.774.774.774 1.055 0 .258-.258.41-.774.457l-5.097.457v2.074c.258-.21.48-.316.668-.316.281 0 .844.386 1.687 1.16.844.75 1.641 1.558 2.391 2.426.75.867 1.125 1.418 1.125 1.652 0 .281-.176.586-.527.914-.329.305-.598.457-.809.457-.258 0-.527-.2-.809-.598a35.729 35.729 0 0 0-3.726-4.218v14.976c0 .656-.211.985-.633.985-.141 0-.363-.083-.668-.247a2.962 2.962 0 0 1-.773-.562c-.211-.211-.317-.445-.317-.703l.035-.246c.141-.703.211-1.64.211-2.813l.035-9.105c0-.61.047-1.43.141-2.461-.586 1.523-1.406 3.07-2.461 4.64-1.031 1.547-2.039 2.836-3.023 3.868-.985 1.03-1.664 1.547-2.039 1.547-.118 0-.176-.07-.176-.211Zm11.777 5.695c0-.211.258-.563.774-1.055 2.859-2.672 4.957-5.32 6.293-7.945 1.336-2.625 2.168-5.238 2.496-7.84.351-2.625.527-6.059.527-10.3V6.054a2.8 2.8 0 0 0-.492-1.582c-.141-.188-.211-.34-.211-.457 0-.164.129-.246.387-.246.445 0 .996.14 1.652.421.68.258 1.019.598 1.019 1.02 0 5.297-.246 9.738-.738 13.324 1.149 3.235 2.555 6.047 4.219 8.438 1.687 2.39 3.574 4.347 5.66 5.87.352.282.527.481.527.598 0 .188-.269.457-.808.809-.539.375-.949.563-1.231.563-.234 0-.902-.563-2.003-1.688-1.102-1.125-2.309-2.648-3.622-4.57-1.312-1.922-2.461-4.102-3.445-6.54l-.035.106c-.609 2.227-1.652 4.3-3.129 6.223-1.477 1.922-2.977 3.48-4.5 4.675-1.523 1.196-2.566 1.794-3.129 1.794-.14 0-.211-.047-.211-.141Zm3.27-22.606c0-.304.164-.527.492-.668.328-.14.598-.21.809-.21.164 0 .292.058.386.175.117.094.246.258.387.492.375.75.926 2.028 1.652 3.832.727 1.782 1.09 2.836 1.09 3.165 0 .328-.223.585-.668.773-.422.164-.738.246-.949.246a.617.617 0 0 1-.457-.176c-.094-.14-.188-.363-.281-.668-.657-2.39-1.43-4.547-2.321-6.468-.093-.235-.14-.399-.14-.493Zm81.984 2.32c-.164 0-.34-.105-.527-.316a2.15 2.15 0 0 1-.282-.386c-.046-.118-.046-.27 0-.457l.036-.844c.023-.164.035-.563.035-1.195v-1.16l-1.055.492-1.23.527a10.87 10.87 0 0 0-.95.422c-.281.14-.527.21-.738.21a2.17 2.17 0 0 1-.562-.175 4.837 4.837 0 0 1-.493-.246c-.257-.164-.375-.34-.351-.527l.105-.352c0-.188.012-.352.036-.492l.035-2.04V5.95c0-.375-.024-.691-.071-.949-.047-.281-.082-.48-.105-.598 0-.117.035-.199.105-.246.024-.023.082-.035.176-.035.164 0 .481.106.949.316.399.188.563.422.493.704-.047.164-.094.41-.141.738l-.106 4.043c0 .117.012.21.036.281.046.047.093.07.14.07.282 0 .621-.082 1.02-.246.75-.234 1.394-.468 1.933-.703l.774-.316v-2.32c0-.938-.059-1.84-.176-2.708a.792.792 0 0 1-.035-.246c0-.234.094-.351.281-.351.024 0 .152.047.387.14.351.188.609.352.773.493.164.14.258.222.282.246.093.07.14.14.14.21a.34.34 0 0 1-.07.176c-.024.07-.047.13-.07.176l-.106 1.055-.035 3.234.035 3.13c0 .538-.035 1.007-.105 1.405-.118.493-.305.739-.563.739Zm-6.469 5.766c-.257 0-.574-.199-.949-.597-.281-.282-.422-.492-.422-.633 0-.07.047-.106.141-.106a1.48 1.48 0 0 1 .351-.035l.774-.035c.445 0 .738-.012.879-.035.445 0 .82-.012 1.125-.035 2.015-.188 3.375-.34 4.078-.457a29.8 29.8 0 0 0 .949-.14c.281-.071.504-.106.668-.106.328 0 .656.164.984.492.258.258.387.469.387.633 0 .14-.082.234-.246.28-.117.024-.809.071-2.074.142-.703.023-1.57.082-2.602.175a92.491 92.491 0 0 0-2.707.282c-.14.023-.34.058-.597.105-.258.047-.504.07-.739.07Zm4.711 14.52c-.726 0-1.289-.024-1.687-.07a1.68 1.68 0 0 1-.949-.422c-.446-.328-.75-1.043-.915-2.145l-.105-1.125c0-.281-.023-.633-.07-1.055a5.987 5.987 0 0 0-.809.141 3.817 3.817 0 0 1-.246.106.965.965 0 0 1-.211.035.81.81 0 0 1-.457-.14c-.141-.095-.316-.27-.527-.528-.164-.211-.246-.352-.246-.422s.082-.117.246-.14c.164-.024.386-.036.668-.036.398 0 .914-.047 1.547-.14l-.036-.493c0-.937-.058-1.734-.175-2.39l-.036-.246c0-.329.129-.457.387-.387.281.094.539.21.774.351.187.094.316.188.386.282.071.07.094.175.071.316l-.106 1.512v.914l3.094-.317c0-.164.012-.55.035-1.16.024-.633.024-1.043 0-1.23 0-.188-.023-.363-.07-.527a6.529 6.529 0 0 0-.071-.458c0-.187.094-.28.282-.28.187 0 .422.105.703.316.328.21.539.398.633.562.117.164.14.363.07.598a6.4 6.4 0 0 0-.246 1.265c-.047.47-.07.75-.07.844.281-.023.539-.058.773-.105.234-.047.387-.07.457-.07.188-.047.41-.071.668-.071.141.023.34.164.598.422.211.281.316.504.316.668 0 .234-.223.328-.668.281a6.863 6.863 0 0 0-1.195-.105c-.399 0-.738.011-1.02.035-.07.844-.211 1.676-.422 2.496a.953.953 0 0 1-.246.457c-.117.14-.222.21-.316.21-.164 0-.27-.07-.317-.21a3.524 3.524 0 0 1-.035-.598c.047-.61.071-1.37.071-2.285a26.99 26.99 0 0 0-1.477.14 9.357 9.357 0 0 1-1.512.212c-.023.96.024 1.816.141 2.566.07.492.211.832.422 1.02.14.117.305.187.492.21.211.024.422.036.633.036h.422c.726 0 1.406-.035 2.039-.106a1.52 1.52 0 0 0 .492-.14c.164-.07.281-.106.352-.106.21 0 .421.07.632.211.211.14.317.305.317.492 0 .188-.106.328-.317.422-.187.094-.492.176-.914.246-.75.094-1.5.14-2.25.14Zm10.02-15.996c.281 0 .422.129.422.387 0 .14-.129.34-.387.597-.703.867-2.098 2.52-4.184 4.957-.164.211-.316.317-.457.317-.117 0-.375-.176-.773-.528-.328-.281-.492-.515-.492-.703 0-.21.176-.41.527-.598.539-.304 1.348-.914 2.426-1.828 1.078-.96 1.875-1.722 2.39-2.285.211-.21.387-.316.528-.316Zm-44.684 11.496c2.086-.656 3.949-1.371 5.59-2.145a25.586 25.586 0 0 0-1.336-1.687c-.187-.235-.281-.422-.281-.563 0-.258.152-.48.457-.668.305-.21.539-.316.703-.316.188 0 .387.117.598.352a137.853 137.853 0 0 1 3.41 4.148c.937 1.195 1.406 1.922 1.406 2.18 0 .21-.164.457-.492.738-.305.305-.598.457-.879.457-.234 0-.469-.188-.703-.563a96.435 96.435 0 0 0-1.828-2.671l-4.219 2.109c-.469.21-1.207.586-2.215 1.125-.844.445-1.359.668-1.547.668-.14 0-.316-.094-.527-.281a1.65 1.65 0 0 1-.492-.633c-.094-.234-.094-.422 0-.563.14-.257.211-1.289.211-3.093V16.602c0-.563-.024-1.02-.071-1.372a3.587 3.587 0 0 0-.281-1.125 1.37 1.37 0 0 0-.07-.175.305.305 0 0 1-.035-.14c0-.118.082-.177.246-.177.304 0 1.066.258 2.285.774l7.629-.528c.187-.023.398-.035.633-.035.257 0 .562.117.914.352.351.21.527.445.527.703 0 .094-.059.234-.176.422-.094.187-.14.328-.14.422l-.914 6.609c.562.656.843 1.102.843 1.336 0 .117-.07.2-.211.246-.117.047-.304.07-.562.07l-8.508.317.035 5.87Zm-5.765-15.785c0-.235.152-.516.457-.844 1.711-1.898 3.199-3.785 4.464-5.66 1.266-1.875 1.899-3.13 1.899-3.762l-.035-.246V3.77c0-.329.129-.493.386-.493.305 0 .727.211 1.266.633.563.399.844.727.844.985 0 .117-.059.27-.176.457a23.895 23.895 0 0 1-1.16 1.687l4.992-.387a4.872 4.872 0 0 0 1.336-.28c.141-.048.246-.071.316-.071.352 0 .727.199 1.125.597.422.375.633.668.633.88 0 .28-.258.445-.773.492l-6.012.421c.164.047.527.293 1.09.739.586.445 1.113.902 1.582 1.37.469.47.703.798.703.985 0 .211-.141.469-.422.774-.281.28-.527.421-.738.421-.188 0-.41-.152-.668-.457a21.796 21.796 0 0 0-2.426-2.285c-.281-.234-.422-.433-.422-.597 0-.118.059-.27.176-.457.117-.188.27-.34.457-.457l-2.355.175a34.406 34.406 0 0 1-3.727 3.903c-1.359 1.195-2.226 1.793-2.601 1.793-.141 0-.211-.07-.211-.211Zm12.656 3.656.246-2.461-7.242.492v2.32l6.996-.351Zm-.457 4.36.281-2.708-6.785.317v2.636l6.504-.246Zm1.898-9.528c0-.234.153-.516.457-.844 1.149-1.383 2.192-2.941 3.129-4.676.961-1.757 1.442-2.988 1.442-3.69v-.142c0-.351.129-.527.386-.527.164 0 .41.094.739.281.351.164.668.364.949.598.281.234.422.469.422.703 0 .211-.164.586-.493 1.125-.328.54-.503.82-.527.844l6.926-.563a6.483 6.483 0 0 0 1.336-.246c.047-.023.141-.035.281-.035.328 0 .68.188 1.055.563.398.351.597.644.597.879 0 .14-.07.257-.21.351-.118.07-.282.117-.493.14l-7.136.493c.656.422 1.429 1.043 2.32 1.863.891.797 1.336 1.336 1.336 1.617 0 .164-.129.422-.387.774-.258.328-.504.492-.738.492-.188 0-.387-.117-.598-.352-1.148-1.242-2.191-2.226-3.129-2.953-.234-.187-.351-.363-.351-.527 0-.188.176-.469.527-.844l-2.601.176c-.774 1.031-1.711 2.074-2.813 3.129-1.078 1.055-1.805 1.582-2.18 1.582-.164 0-.246-.07-.246-.211Zm3.305.773c0-.14.082-.21.246-.21.352 0 1.148.292 2.391.878l7.066-.597.281-.035c.094 0 .27.046.528.14.281.07.539.2.773.387.258.164.387.387.387.668 0 .094-.035.223-.106.387-.07.164-.105.28-.105.351a88.243 88.243 0 0 1-.492 8.262l-.071.879c-.07.984-.164 1.805-.281 2.46-.117.657-.316 1.173-.598 1.548-.445.609-.925.914-1.441.914s-1.172-.317-1.969-.95a18.576 18.576 0 0 1-2.215-2.074c-.656-.75-.984-1.23-.984-1.441 0-.164.094-.246.281-.246.211 0 .504.117.879.351.867.54 1.594.973 2.18 1.301.586.328 1.008.492 1.266.492.117 0 .199-.082.246-.246.539-3 .867-6.762.984-11.285l-6.609.492c0 3.961.035 10.242.105 18.844 0 .21-.058.363-.176.457a.466.466 0 0 1-.386.176c-.188 0-.411-.07-.668-.211-.446-.188-.762-.363-.95-.528-.187-.164-.281-.351-.281-.562l.035-.246c.141-.773.211-1.64.211-2.602l-.105-14.836c0-.609-.024-1.078-.07-1.406a3.306 3.306 0 0 0-.211-.95c-.094-.28-.141-.468-.141-.562ZM39.438 68.219c-.271 0-.47-.094-.594-.281a3.672 3.672 0 0 0-.563-.657c-.166-.166-.468-.396-.906-.687l.094-.156c.958.333 1.635.5 2.031.5.333 0 .698-.188 1.094-.563.416-.396.77-.958 1.062-1.688.146-.333.25-.604.313-.812.083-.23.146-.48.187-.75v-.063c0-.187-.093-.28-.281-.28-.208 0-.583.062-1.125.187a22.53 22.53 0 0 0-1.156.375l-.25-.063a.73.73 0 0 0-.157-.093 1.244 1.244 0 0 1-.156-.188c-.104-.104-.156-.177-.156-.219l-.031-.125c0-.146.073-.281.218-.406.167-.125.26-.219.282-.281.166-.188.5-.646 1-1.375.041-.042.114-.136.218-.282.105-.166.157-.312.157-.437 0-.146-.615-.042-1.844.313-1.25.374-1.906.562-1.969.562-.208 0-.427-.177-.656-.531-.167-.167-.25-.302-.25-.407 0-.145.208-.229.625-.25.48-.02 1.219-.104 2.219-.25 1.02-.145 1.625-.24 1.812-.28l.438-.126a.693.693 0 0 1 .218-.031c.063 0 .157.042.282.125.146.083.27.146.375.188.27.124.427.27.468.437v.094c0 .187-.104.385-.312.593-.083.084-.25.26-.5.532-.25.25-.406.416-.469.5-.083.083-.208.218-.375.406a2.82 2.82 0 0 0-.281.344c0 .062.02.104.063.125.041.02.093.031.156.031a12.923 12.923 0 0 0 1.531-.281l.5-.157c.23 0 .396.084.5.25.188.209.313.386.375.532a.398.398 0 0 1 0 .375.786.786 0 0 1-.094.187 2.075 2.075 0 0 0-.125.219l-.125.25a1.33 1.33 0 0 0-.125.375c-.375 1.083-.823 2.01-1.343 2.781a4.962 4.962 0 0 1-.97.906c-.478.355-.947.532-1.406.532Zm3.593 8.375c-.312 0-.614-.23-.906-.688a9.89 9.89 0 0 0-1.094-1.437l-.812-.844c-.438.5-.823.896-1.157 1.188a6.223 6.223 0 0 1-1.187.843c-.896.521-1.646.781-2.25.781-.146 0-.219-.052-.219-.156 0-.062.198-.198.594-.406.396-.208.77-.458 1.125-.75.896-.75 1.635-1.52 2.219-2.313-.125-.124-.75-.666-1.875-1.624a10.65 10.65 0 0 1-.657-.532 8.156 8.156 0 0 1-.374-.281c-.188-.146-.282-.25-.282-.313 0-.104.052-.156.157-.156.312 0 .812.219 1.5.656.687.417 1.406.917 2.156 1.5.291-.354.52-.687.687-1 .167-.312.354-.697.563-1.156a2.12 2.12 0 0 0 .187-.594c.021-.187.032-.302.032-.343 0-.23.062-.344.187-.344.146 0 .344.115.594.344.437.416.656.698.656.844 0 .083-.052.177-.156.28-.25.25-.48.584-.688 1-.125.25-.354.605-.687 1.063-.104.125-.188.24-.25.344a3.281 3.281 0 0 1-.188.281c.48.354 1.188.959 2.125 1.813.23.208.375.406.438.594.083.166.125.395.125.687a.89.89 0 0 1-.157.531.504.504 0 0 1-.406.188Zm-6.906 9.344c-.313 0-.552-.084-.719-.25-.187-.188-.281-.355-.281-.5 0-.146.083-.303.25-.47.02-.02.135-.187.344-.5.458-.728.979-1.656 1.562-2.78.604-1.146.98-1.928 1.125-2.344.125-.396.24-.74.344-1.031.125-.292.23-.438.313-.438.145 0 .27.052.374.156.105.084.209.209.313.375.125.146.219.25.281.313.146.166.219.323.219.469a.5.5 0 0 1-.125.312 1.56 1.56 0 0 0-.156.219l-1.375 2.312a63.775 63.775 0 0 1-1.407 2.406.5.5 0 0 0-.124.313c0 .083.093.125.28.125.397 0 1.136-.052 2.22-.156 1.083-.084 1.812-.156 2.187-.219.542-.063.917-.125 1.125-.188.23-.062.563.094 1 .47.52.437.635.718.344.843-.167.083-.49.125-.969.125H42c-.27 0-.698.02-1.281.063-.354 0-.75.01-1.188.03-.437.022-.802.042-1.093.063-.334.021-.98.084-1.938.188l-.375.094Zm13.281-13.782c.25 0 .375.115.375.344 0 .125-.114.302-.343.531-.626.771-1.865 2.24-3.72 4.406-.145.188-.28.282-.406.282-.104 0-.333-.156-.687-.469-.292-.25-.438-.458-.438-.625 0-.188.157-.365.47-.531.478-.271 1.197-.813 2.156-1.625.958-.854 1.666-1.531 2.124-2.031.188-.188.344-.282.47-.282ZM11.5 70v.094c0 .354-.177.531-.531.531-.292 0-.594-.083-.906-.25-.313-.167-.47-.417-.47-.75l.032-.313c.02-.104.031-.24.031-.406 0-.146-.01-.312-.031-.5a5.417 5.417 0 0 0-.063-.437L9 63.53c-.083-.562-.219-.99-.406-1.281-.146-.23-.219-.385-.219-.469 0-.125.115-.187.344-.187.375 0 1.02.166 1.937.5l4.031-.219-.062-1.406a2.076 2.076 0 0 0-.438-1.188.389.389 0 0 1-.124-.281c0-.146.135-.219.406-.219.229 0 .51.063.844.188.395.146.656.281.78.406.126.104.199.25.22.438l.093 1.968 3.969-.218.031-1.47c0-.52-.114-.958-.343-1.312a.737.737 0 0 1-.094-.312c0-.167.125-.25.375-.25.104.02.302.073.593.156.313.063.605.177.875.344.271.166.407.375.407.625l-.094 2.125 4.781-.25.407-.032c.208 0 .447.105.718.313.292.208.438.417.438.625 0 .083-.021.177-.063.281a1.723 1.723 0 0 0-.093.219l-.844 4.906c.416.5.625.834.625 1 0 .125-.063.209-.188.25-.104.021-.312.042-.625.063l-15.843.719.062.437ZM3.656 86.906c0-.187.188-.49.563-.906 3.104-3.396 4.687-7.74 4.75-13.031 0-.709-.063-1.25-.188-1.625-.083-.292-.125-.48-.125-.563 0-.166.084-.25.25-.25.313 0 .98.26 2 .781L25 70.689c.583-.042 1.083-.136 1.5-.282.167-.041.281-.062.344-.062.229 0 .562.177 1 .531.437.333.656.615.656.844 0 .208-.24.333-.719.375l-16.937.719a33.882 33.882 0 0 1-.563 4.812l16.563-.719c.583-.041 1.083-.135 1.5-.281.166-.042.291-.063.375-.063.25 0 .5.094.75.282.25.166.458.364.625.594.166.208.25.364.25.468 0 .209-.24.334-.719.375l-10.469.438c1.146 1.187 2.115 2.052 2.907 2.594 2.166-.792 3.427-1.553 3.78-2.282.105-.229.24-.344.407-.344.188 0 .427.198.719.594.291.396.437.73.437 1 0 .209-.114.365-.343.469-1 .542-2.157 1.042-3.47 1.5 1.126.625 2.386 1.156 3.782 1.594 1.396.437 3.042.833 4.938 1.187.187.042.322.084.406.125.083.042.125.104.125.188 0 .062-.073.219-.219.469-.125.25-.281.468-.469.656-.187.208-.375.312-.562.312-.063 0-.177-.02-.344-.062-2.292-.542-4.23-1.125-5.813-1.75a20.377 20.377 0 0 1-4.343-2.375c-1.334-.98-2.646-2.24-3.938-3.781l-2.531.093-.156 5.688c1.354-.354 2.948-.813 4.781-1.375a2.86 2.86 0 0 1 .906-.156c.25 0 .375.062.375.187 0 .23-.364.552-1.093.969-.73.416-1.625.844-2.688 1.281-.48.208-.875.375-1.188.5-.312.146-.552.26-.718.344-.792.396-1.292.594-1.5.594-.209 0-.438-.178-.688-.532-.25-.354-.312-.625-.187-.812.083-.146.146-.563.187-1.25a26.31 26.31 0 0 0 .063-1.5L12.813 79l-2.876.125c-.52 1.667-1.208 3.104-2.062 4.313-.854 1.187-1.677 2.093-2.469 2.718-.791.625-1.302.938-1.531.938-.146 0-.219-.063-.219-.188Zm7.281-21.844 3.907-.218-.094-1.625-4 .218.188 1.626Zm.344 3.157 3.688-.188-.063-1.781-3.812.188.187 1.78Zm.75 6.062c0-.083.052-.125.156-.125.084 0 .157.01.22.031.416.105.822.157 1.218.157h.281l9.25-.438c.584-.041 1.084-.135 1.5-.281.167-.042.292-.063.375-.063.25 0 .5.094.75.282.25.166.459.364.625.594.167.208.25.364.25.468 0 .188-.24.302-.718.344l-11.438.563-.719.03c-.812 0-1.364-.395-1.656-1.187a1.197 1.197 0 0 1-.094-.375Zm4.5-9.5 3.75-.187.063-1.656-3.875.187.062 1.656Zm.157 3.188 3.53-.188L20.25 66l-3.656.188.093 1.78Zm9.03-.438.25-1.812-4.03.187-.063 1.813 3.844-.188Zm.438-3.219.219-1.687-4.313.219L22 64.5l4.156-.188ZM88.375 72c-.333 0-.542-.094-.625-.281a4.343 4.343 0 0 0-.313-.625c-.104-.188-.291-.406-.562-.656l.063-.126c.75.271 1.24.407 1.468.407.167 0 .292-.031.375-.094.084-.063.219-.208.406-.438.271-.291.521-.74.75-1.343.313-.896.51-1.823.594-2.781v-.094c0-.125-.02-.209-.062-.25-.271 0-.99.062-2.156.187-.646 1.604-1.396 2.927-2.25 3.969-.834 1.02-1.594 1.531-2.282 1.531-.166 0-.25-.062-.25-.187 0-.042.209-.281.625-.719.417-.438.875-1.01 1.375-1.719.521-.729 1.01-1.625 1.469-2.687-.104 0-.406.02-.906.062-.5.042-.927.115-1.281.219a.495.495 0 0 1-.532.063l-.062-.032a.486.486 0 0 1-.125-.094 1.362 1.362 0 0 1-.375-.312.827.827 0 0 1-.125-.406c0-.063.052-.146.156-.25l.375-.5c.125-.167.24-.406.344-.719.104-.333.156-.615.156-.844 0-.146-.01-.24-.031-.281a.347.347 0 0 1-.031-.156c0-.104.052-.157.156-.157.125 0 .302.073.531.22.063.04.177.124.344.25.187.103.291.228.312.374 0 .146-.083.386-.25.719l-.406.719a.385.385 0 0 0-.063.219c0 .062.021.114.063.156a.39.39 0 0 0 .219 0l1.875-.25c.208-.542.375-1.115.5-1.719v-.718c0-.23.062-.324.187-.282.271.063.49.146.656.25.313.188.47.344.47.469 0 .104-.042.281-.126.531a14.271 14.271 0 0 1-.437 1.344c.062 0 .448-.042 1.156-.125l.313-.063c.062 0 .177-.02.343-.062a.347.347 0 0 1 .156-.031c.25 0 .407.01.47.03.083.022.208.084.374.188.188.125.313.25.375.375.063.125.084.271.063.438l-.188 1.031-.219 1.125c0 .083-.072.354-.218.813a7.42 7.42 0 0 1-.5 1.218c-.354.709-.771 1.24-1.25 1.594-.417.333-.781.5-1.094.5Zm-4.063 7.094c-.229 0-.51-.177-.843-.531-.25-.25-.375-.438-.375-.563 0-.063.041-.094.125-.094.083-.02.187-.031.312-.031l.688-.031c.396 0 .656-.01.781-.031.396 0 .73-.01 1-.032 1.792-.166 3-.302 3.625-.406.313-.042.594-.083.844-.125.25-.063.448-.094.594-.094.291 0 .583.146.874.438.23.229.344.416.344.562 0 .125-.073.209-.219.25-.104.021-.718.063-1.843.125-.625.021-1.396.073-2.313.156-.916.084-1.719.167-2.406.25-.125.021-.302.053-.531.094a3.67 3.67 0 0 1-.656.063Zm9.094-7.875c.104 0 .26.073.469.219-.02.041.02.124.125.25l.219.218c.104.104.208.23.312.375.125.146.26.302.406.469.376.396 1.24 1.427 2.594 3.094.23.333.344.531.344.594 0 .208-.125.312-.375.312-.146 0-.302-.104-.469-.313-.396-.416-1.104-1.072-2.125-1.968-.791-.73-1.51-1.292-2.156-1.688-.313-.146-.469-.312-.469-.5 0-.146.156-.354.469-.625.292-.291.51-.437.656-.437Zm-30.312 14.75v.062a.55.55 0 0 1-.157.406c-.083.105-.218.157-.406.157-.312 0-.635-.115-.968-.344-.334-.208-.5-.438-.5-.688v-.156c0-.146.01-.281.03-.406a1.76 1.76 0 0 0 .032-.344l-.031-.562-.313-6.188a4.861 4.861 0 0 0-.156-.875c-.063-.333-.125-.573-.188-.719-.145-.291-.218-.5-.218-.624 0-.126.093-.188.281-.188.27 0 .948.188 2.031.563l11.594-.532h.344c.291 0 .531.073.719.219.208.146.364.313.468.5.104.188.156.323.156.406a.604.604 0 0 1-.093.313 1.059 1.059 0 0 0-.125.281l-.531 6.313c.5.645.75 1.083.75 1.312 0 .146-.063.23-.188.25-.125.042-.333.063-.625.063l-11.938.25.032.53Zm-11.469 0c0-.209.094-.531.281-.969 1.063-2.333 1.865-4.604 2.407-6.813a40.692 40.692 0 0 0 1.062-6.78c.188-2.313.281-5.094.281-8.344 0-.605-.01-1.063-.031-1.376a3.796 3.796 0 0 0-.188-.968c-.083-.25-.124-.407-.124-.469 0-.146.072-.219.218-.219.271 0 .99.271 2.157.813l16.968-.938c.604-.02 1.136-.125 1.594-.312a.83.83 0 0 1 .375-.094c.23 0 .48.094.75.281.292.188.531.396.719.625.208.23.312.396.312.5 0 .271-.26.427-.781.469L57.656 62.5c0 1.833-.052 3.77-.156 5.813-.083 2.041-.24 3.78-.469 5.218-.458 2.98-1.073 5.417-1.843 7.313-.75 1.875-1.459 3.229-2.126 4.062-.666.854-1.104 1.281-1.312 1.281-.083 0-.125-.072-.125-.218Zm5.781-10.781c0-.209.177-.5.532-.876.645-.687 1.364-1.552 2.156-2.593a29.821 29.821 0 0 0 2.062-2.969l-1.906.156H60c-.458 0-.854-.125-1.188-.375-.312-.25-.468-.583-.468-1 0-.104.062-.156.187-.156l.313.063c.312.062.635.093.968.093h.22l2.75-.187c0-.854.01-1.459.03-1.813-.645.146-1.25.271-1.812.375-.563.104-.938.156-1.125.156-.396 0-.594-.083-.594-.25 0-.083.084-.177.25-.28.167-.126.407-.23.719-.313a28.62 28.62 0 0 0 3.063-1.125c1.145-.48 1.864-.938 2.156-1.375.104-.125.219-.188.344-.188.208 0 .406.104.593.313.188.187.344.406.469.656.146.23.219.396.219.5 0 .208-.073.333-.219.375-1.02.354-1.854.615-2.5.781v2.094l1.219-.094c.416-.041.76-.104 1.031-.187a.81.81 0 0 1 .25-.031c.23 0 .5.145.813.437.312.27.468.5.468.688 0 .208-.208.322-.625.343l-3.156.219v.563a.6.6 0 0 1 .438-.188c.124 0 .437.167.937.5.5.313.958.656 1.375 1.031.438.375.656.646.656.813 0 .208-.114.437-.344.687-.208.25-.385.375-.53.375-.147 0-.334-.114-.563-.344a20.4 20.4 0 0 0-1.969-1.718v4.5c0 .437-.156.656-.469.656-.146 0-.364-.063-.656-.188-.25-.124-.427-.25-.531-.374a.77.77 0 0 1-.125-.438c0-.167.01-.292.031-.375.083-.667.125-1.146.125-1.438l.031-.968c0-.417.042-.969.125-1.656-.229.541-.718 1.24-1.468 2.093-.75.834-1.521 1.573-2.313 2.219-.77.646-1.292.969-1.563.969-.104 0-.156-.052-.156-.156Zm5.313 4.656 10.781-.375.125-2.344-11.031.531.125 2.188Zm.25 4 10.281-.25.156-2.625-10.594.375.157 2.5Zm3.562-9.25c0-.209.198-.51.594-.906a30.791 30.791 0 0 0 4.375-5.376l-1.563.126h-.28c-.397 0-.688-.073-.876-.22-.354-.312-.594-.614-.719-.906a1.303 1.303 0 0 1-.062-.218c0-.104.073-.156.219-.156.104 0 .187.01.25.03.312.084.614.126.906.126l.344-.031 2.437-.157.063-1.969c-.084.021-.542.126-1.375.313-.813.188-1.427.281-1.844.281-.396 0-.594-.073-.594-.219 0-.083.094-.187.281-.312.209-.125.49-.24.844-.344A54.66 54.66 0 0 0 72.75 63.5c1.23-.5 1.99-.969 2.281-1.406.104-.167.23-.25.375-.25.271 0 .552.198.844.593.313.376.469.678.469.907a.416.416 0 0 1-.094.25c-.042.062-.083.093-.125.093a33.253 33.253 0 0 1-2.75.876c-.02.458-.031 1.208-.031 2.25l2.219-.126c.229-.02.572-.093 1.03-.218a.945.945 0 0 1 .282-.031c.23 0 .51.124.844.374.333.23.5.49.5.782 0 .208-.24.333-.719.375l-4.156.25v.719c.375.124 1.114.53 2.219 1.218a59.68 59.68 0 0 1 3.156 2c.02.021.094.104.219.25.145.125.218.26.218.406 0 .126-.073.344-.219.657-.124.291-.291.448-.5.469h-.062c-.167 0-.354-.084-.563-.25-1.583-1.209-3.072-2.24-4.468-3.094l-.031 3.844c0 .25-.032.437-.094.562a.323.323 0 0 1-.313.188c-.312 0-.614-.115-.906-.344-.292-.23-.438-.48-.438-.75l.032-.313c.083-.666.125-1.146.125-1.437v-.875c0-.5.062-1.167.187-2-.458.833-1.083 1.656-1.875 2.469a19.234 19.234 0 0 1-2.312 2c-.75.52-1.219.78-1.406.78-.105 0-.157-.04-.157-.124Zm69.188-2.625c-.167 0-.334-.031-.5-.094a.814.814 0 0 1-.375-.375c-.063-.188-.198-.406-.406-.656a2.407 2.407 0 0 0-.563-.563l.125-.156c.104.063.354.188.75.375.396.188.688.281.875.281.292 0 .552-.104.781-.312.229-.209.521-.604.875-1.188.25-.396.479-.864.688-1.406.208-.542.364-1.042.469-1.5l.031-.063a.211.211 0 0 0-.063-.156c-.041-.062-.083-.094-.125-.094l-1.437.126c-.959.166-1.959.302-3 .406a3.25 3.25 0 0 0-.656.156c-.25.083-.428.125-.532.125-.166 0-.385-.135-.656-.406a2.213 2.213 0 0 1-.312-.313c-.084-.125-.105-.229-.063-.312l.25-.25.156-.125c.292-.292.584-.677.875-1.156.209-.292.427-.782.656-1.47 0-.228.053-.343.157-.343.062 0 .166.042.312.125l.5.313c.125.104.209.187.25.25a.441.441 0 0 1 .063.25c0 .124-.084.28-.25.468a4.673 4.673 0 0 0-.438.5l-.718 1.031-.063.126c0 .062.083.093.25.093l2.406-.312 1.625-.125.625-.063.344-.062h.094c.208 0 .437.177.687.531.292.27.438.5.438.688l-.156.406c-.021.041-.188.531-.5 1.469-.376.895-.698 1.572-.969 2.03-.271.46-.563.813-.875 1.063-.563.459-1.104.688-1.625.688Zm.156 11.125c-.146 0-.25-.042-.313-.125a2.035 2.035 0 0 0-.124-.156c-.209-.292-.303-.573-.282-.844.021-.167.052-.615.094-1.344l.031-1.5c-.021-.23-.041-.365-.062-.406-.021-.063-.115-.188-.281-.375a15.698 15.698 0 0 0-1.157-1.281c-.5-.5-.823-.834-.969-1l-.937-.938c-.063-.063-.094-.125-.094-.188 0-.104.063-.187.188-.25a.672.672 0 0 1 .437-.093c.417.041.688.094.813.156.146.042.281.167.406.375s.302.458.531.75c.25.27.438.48.563.625.521.625.885 1.042 1.093 1.25.376-.438.844-1.063 1.407-1.875.458-.583.729-1.063.812-1.438.084-.27.209-.406.375-.406.084 0 .209.052.375.156.542.334.813.605.813.813 0 .125-.136.281-.406.469-.376.27-.688.573-.938.906l-.625.781c-.417.5-.729.896-.937 1.188-.105.187-.157.458-.157.812V82.312c.021.146-.062.313-.25.5-.166.188-.302.282-.406.282Zm-6.187.469c0 .062-.126.218-.376.468a4.25 4.25 0 0 1-.781.719c-.271.23-.479.344-.625.344-.333 0-1.271-.75-2.812-2.25-1.521-1.5-3.156-3.709-4.906-6.625-1.75-2.917-3.219-6.469-4.407-10.656-.291-1-.521-1.72-.687-2.157-.146-.437-.292-.75-.438-.937a3.14 3.14 0 0 0-.656-.594c-.354-.23-.531-.417-.531-.563 0-.187.291-.28.875-.28.687 0 1.208.051 1.562.156.354.104.594.24.719.406.146.166.26.396.344.687a65 65 0 0 1 .343 1.25c.105.292.188.573.25.844.063.25.126.48.188.688 1.042 3.5 2.521 6.895 4.438 10.187 1.916 3.292 4.291 5.917 7.124 7.875.25.146.376.292.376.438Zm-29.594 1.25c0-.25.208-.584.625-1 2.125-2.042 3.802-4.323 5.031-6.844 1.25-2.521 2.115-4.76 2.594-6.719.479-1.958.718-3.198.718-3.719 0-.208-.031-.469-.093-.781l-.031-.188c0-.25.104-.374.312-.374.208 0 .49.083.844.25.354.166.666.374.937.624s.407.5.407.75c0 .084-.021.23-.063.438-.833 3.875-2.063 7.27-3.687 10.188-1.626 2.916-3.75 5.291-6.376 7.124-.416.292-.75.438-1 .438-.145 0-.218-.063-.218-.188ZM181 70.28c-.688-.25-1.01-.52-.969-.812.125-.875.188-1.875.188-3a13.939 13.939 0 0 0-.094-1.781c-.021-.209-.021-.323 0-.344a.423.423 0 0 1 .313-.125c.187 0 .416.083.687.25.292.166.437.333.437.5 0 .104-.01.208-.031.312a1.155 1.155 0 0 0-.031.281l-.188 3.094c0 .167.063.271.188.313h.156c.167 0 .282-.01.344-.031l4.031-.563v-.813c0-1.02-.021-1.812-.062-2.374-.021-.48-.073-.865-.157-1.157-.062-.333.021-.5.25-.5.167 0 .386.063.657.188.333.166.531.312.593.437.063.104.084.271.063.5-.042.375-.063.938-.063 1.688l.032 2.375c0 .5-.094.896-.282 1.187-.104.125-.208.188-.312.188-.104 0-.25-.094-.438-.281a2.006 2.006 0 0 1-.156-.188.416.416 0 0 0-.187-.156.814.814 0 0 0-.25-.031c-.479.041-1.636.197-3.469.468-.312.042-.562.125-.75.25-.208.104-.344.156-.406.156l-.094-.03Zm3.5 12.656c-.646 0-1.146-.02-1.5-.062a1.498 1.498 0 0 1-.844-.375c-.396-.292-.666-.927-.812-1.906l-.094-1c0-.25-.021-.563-.062-.938a5.336 5.336 0 0 0-.719.125c-.042.021-.115.052-.219.094a.853.853 0 0 1-.188.031.719.719 0 0 1-.406-.125c-.125-.083-.281-.24-.468-.469-.146-.187-.219-.312-.219-.374 0-.063.073-.105.219-.126.145-.02.343-.03.593-.03.354 0 .813-.042 1.375-.126l-.031-.437c0-.834-.052-1.542-.156-2.125l-.031-.219c0-.292.114-.406.343-.344.25.084.479.188.688.313.166.083.281.166.343.25.063.062.084.156.063.281l-.094 1.344v.812l2.75-.281c0-.146.011-.49.031-1.031.021-.563.021-.927 0-1.094 0-.167-.02-.323-.062-.469a6.595 6.595 0 0 0-.062-.406c0-.167.083-.25.25-.25.166 0 .374.094.624.281.292.188.48.354.563.5.104.146.125.323.063.531a5.563 5.563 0 0 0-.219 1.126c-.042.416-.063.666-.063.75.25-.021.479-.053.688-.094.208-.042.344-.063.406-.063.167-.041.365-.062.594-.062.125.02.302.146.531.375.187.25.281.448.281.594 0 .208-.198.291-.594.25a6.097 6.097 0 0 0-1.062-.094c-.354 0-.656.01-.906.031-.063.75-.188 1.49-.375 2.219a1.09 1.09 0 0 1-.219.437c-.104.104-.198.156-.281.156-.146 0-.24-.052-.281-.156a3.672 3.672 0 0 1-.032-.562 27.07 27.07 0 0 0 .063-2.031c-.563.041-1 .083-1.313.124a8.292 8.292 0 0 1-1.344.188c-.02.854.021 1.615.126 2.281.062.438.187.74.374.906a.833.833 0 0 0 .438.188c.188.02.375.031.562.031h.376c.645 0 1.25-.031 1.812-.094.167-.02.312-.062.438-.124a.941.941 0 0 1 .312-.094c.188 0 .375.062.562.187.188.125.282.271.282.438 0 .166-.094.291-.282.375-.166.083-.437.156-.812.219-.667.083-1.333.124-2 .124Zm4.906-11.718c.104 0 .261.073.469.219-.021.041.021.124.125.25l.219.218c.104.104.208.23.312.375.125.146.261.302.407.469.374.396 1.239 1.427 2.593 3.094.229.333.344.531.344.594 0 .208-.125.312-.375.312-.146 0-.302-.104-.469-.313-.396-.416-1.104-1.072-2.125-1.968-.791-.73-1.51-1.292-2.156-1.688-.312-.146-.469-.312-.469-.5 0-.146.157-.354.469-.625.292-.291.51-.437.656-.437Zm-32.156 5.125c-.521 2.229-1.344 4.114-2.469 5.656-1.125 1.52-2.593 3.01-4.406 4.469-.437.354-.792.531-1.063.531-.145 0-.218-.073-.218-.219 0-.208.166-.49.5-.844 1.729-1.916 3.041-3.74 3.937-5.468.917-1.73 1.542-3.625 1.875-5.688.354-2.083.532-4.698.532-7.844V64c0-1.146-.105-2.031-.313-2.656a1.264 1.264 0 0 1-.094-.438c0-.166.094-.25.281-.25.334 0 1.063.282 2.188.844l11.156-.656.344-.032c.354 0 .667.146.938.438.27.27.406.51.406.719 0 .083-.032.208-.094.375a1.237 1.237 0 0 0-.094.406l.156 21.656.032 1.063c0 .437-.104.802-.313 1.094-.187.291-.406.5-.656.624-.25.146-.458.22-.625.22-.375 0-1.01-.324-1.906-.97a19.93 19.93 0 0 1-2.5-2.062c-.771-.73-1.156-1.23-1.156-1.5 0-.125.072-.188.218-.188.229 0 .573.136 1.032.407a19.995 19.995 0 0 0 3.812 1.75l-.062-8.969-11.438.469Zm11.438-2.188-.032-4.875-10.718.406c-.084 2.25-.209 3.896-.376 4.938l11.126-.469Zm-.032-6.687-.031-4.781-10.563.656L158 68l10.656-.531Zm58.782 10.906c-.146 0-.24-.01-.282-.031-.021-.042.011-.115.094-.219.292-.27.521-.531.688-.781.187-.271.385-.698.593-1.281.334-.959.5-1.698.5-2.22 0-.478-.031-.916-.093-1.312v-.094c0-.229.145-.302.437-.218.25.062.531.146.844.25a.941.941 0 0 1 .281-.031c.125-.021.323-.053.594-.094a53.54 53.54 0 0 1 2.75-.313c0-.083.083-.375.25-.875l.187-.687c.084-.292.052-.438-.093-.438-.417 0-1.386.104-2.907.313l-1.656.281c-.146.02-.333-.042-.563-.188a1.92 1.92 0 0 1-.5-.5c-.104-.187-.083-.312.063-.374a.937.937 0 0 1 .5-.157H229.844l2.062-.062 2-.25a4.95 4.95 0 0 0 .375-.094c.167-.063.323-.104.469-.125.208-.042.562.188 1.062.688a.387.387 0 0 1 .126.28c0 .126-.084.25-.25.376-.23.229-.376.427-.438.594-.021.104-.062.26-.125.468a6.701 6.701 0 0 0-.187.719.793.793 0 0 1 .187.531c0 .167-.052.292-.156.375-.084.063-.261.094-.531.094-.938.063-1.678.125-2.219.188-.542.041-1.198.145-1.969.312a10.063 10.063 0 0 1-.562 2.594c-.292.77-.698 1.354-1.219 1.75-.5.354-.844.531-1.031.531Zm13.968-14.344c.25 0 .375.115.375.344 0 .125-.114.302-.343.531-.626.771-1.865 2.24-3.719 4.406-.146.188-.281.282-.407.282-.104 0-.333-.156-.687-.469-.292-.25-.437-.458-.437-.625 0-.188.156-.365.468-.531.479-.271 1.198-.813 2.156-1.625.959-.854 1.667-1.531 2.126-2.031.187-.188.343-.282.468-.282Zm-29.781 21.813c0 .562-.187.844-.563.844-.25 0-.531-.094-.843-.282-.396-.229-.677-.427-.844-.594-.146-.166-.219-.385-.219-.656 0-.146.011-.26.032-.344.145-.77.218-1.395.218-1.874V72.061l-9.5.532c-.208.02-.479.031-.812.031-.459 0-.792-.073-1-.219a2.675 2.675 0 0 1-.719-1c-.167-.416-.25-.687-.25-.812s.063-.188.187-.188l.25.063c.313.104.74.156 1.282.156h.375l10.187-.563v-9.156c0-.541-.125-.99-.375-1.343-.104-.146-.156-.26-.156-.344 0-.146.146-.219.437-.219.271 0 .657.063 1.157.188.479.124.781.25.906.374.146.126.219.323.219.594v9.782l9.218-.532c.48-.02.907-.104 1.282-.25a.531.531 0 0 1 .218-.031c.313 0 .698.208 1.157.625.479.396.719.719.719.969a.478.478 0 0 1-.219.406c-.146.083-.344.135-.594.156l-11.781.656.031 13.907Zm71.406-8.313c-.312 0-.614-.229-.906-.687a9.902 9.902 0 0 0-1.094-1.438l-.812-.844c-.438.5-.823.896-1.157 1.188a6.214 6.214 0 0 1-1.187.844c-.896.52-1.646.781-2.25.781-.146 0-.219-.052-.219-.156 0-.063.198-.198.594-.406a6.591 6.591 0 0 0 1.125-.75c.896-.75 1.635-1.521 2.219-2.313-.125-.125-.75-.667-1.875-1.625a10.663 10.663 0 0 1-.657-.531 8.447 8.447 0 0 1-.374-.281c-.188-.146-.282-.25-.282-.313 0-.104.052-.156.156-.156.313 0 .813.219 1.5.656.688.417 1.407.917 2.157 1.5.291-.354.521-.688.687-1 .167-.313.354-.698.563-1.156.104-.23.166-.427.187-.594.021-.188.032-.302.032-.344 0-.229.062-.344.187-.344.146 0 .344.115.594.344.437.417.656.698.656.844 0 .083-.052.177-.156.281-.25.25-.479.584-.688 1-.125.25-.354.604-.687 1.063a2.76 2.76 0 0 0-.25.344 3.299 3.299 0 0 1-.188.28c.479.355 1.188.96 2.125 1.813.229.209.375.406.438.594.083.167.125.396.125.688a.891.891 0 0 1-.156.53.506.506 0 0 1-.407.188Zm6.5-11.437c.063 0 .125.031.188.094a.306.306 0 0 1 .125.187v.063c0 .145-.115.427-.344.843l-2.25 3.906c-.167.355-.385.532-.656.532s-.5-.167-.688-.5c-.187-.271-.416-.677-.687-1.219a3.86 3.86 0 0 1-.313-.563 11.978 11.978 0 0 0-.187-.406c-.229-.396-.344-.677-.344-.844a.21.21 0 0 1 .094-.187c.062-.063.125-.094.187-.094.229 0 .438.125.625.375.146.146.261.302.344.469l.344.469.625.719.281-.438c.292-.5.979-1.49 2.063-2.969.229-.291.427-.437.593-.437Zm-42.25 18.625h-.562c-.417 0-.74-.031-.969-.094a1.39 1.39 0 0 1-.594-.25 7.097 7.097 0 0 1-.656-.688c-.229-.27-.344-.52-.344-.75 0-.145.073-.218.219-.218.083 0 .146.01.187.031.417.104.865.156 1.344.156l.719-.031 6.656-.188 1.75-9.624-3.531.156c-.542.041-.896.062-1.062.062-.438 0-.75-.094-.938-.281a3.42 3.42 0 0 1-.594-.813c-.166-.312-.25-.53-.25-.656 0-.166.073-.25.219-.25.063 0 .115.01.156.031.396.126.854.188 1.375.188l.875-.031 4.063-.188 1.281-7-6.344.375c-.229.021-.531.031-.906.031-.5 0-.823-.062-.969-.187a2.938 2.938 0 0 1-.687-.75c-.167-.313-.25-.583-.25-.813 0-.145.073-.218.219-.218l.187.031c.375.104.833.156 1.375.156h.406l15.969-.968c.396-.021.865-.126 1.406-.313a.437.437 0 0 1 .188-.031c.25 0 .614.198 1.093.593.48.396.719.72.719.97s-.271.395-.812.437l-9.375.562-1.313 7 7.719-.375h.188c.27 0 .604.084 1 .25.395.167.593.48.593.938 0 .166-.031.333-.093.5a6.91 6.91 0 0 1-.126.281l-1 9.563 3-.094c.355-.021.876-.104 1.563-.25.125-.042.229-.063.313-.063.229 0 .489.104.781.313.312.208.583.448.812.719.229.27.344.479.344.624 0 .271-.219.428-.656.47h-.094l-24.594.687Zm16.5-2.344.907-9.781-7.5.344-1.844 9.687 8.437-.25Zm61.5-4.563c-.125 0-.302-.093-.531-.28a2.02 2.02 0 0 1-.312-.25c-.084-.084-.126-.157-.126-.22l.032-.5c.021-.187.031-.604.031-1.25-.021-.458-.031-1.416-.031-2.874 0-.584-.052-1.115-.156-1.594l-.126-.75V70c0-.188.126-.24.376-.156.104.02.343.062.718.125.396-.063 1.719-.219 3.969-.469a9.167 9.167 0 0 0 1.156-.219h.125c.229 0 .438.115.625.344.334.396.469.677.407.844-.084.208-.167.562-.25 1.062-.042.292-.094.792-.157 1.5V76.75c0 .188-.093.438-.281.75a.487.487 0 0 1-.25.25.656.656 0 0 1-.344.094c-.125 0-.218-.031-.281-.094l-.125-.125a.353.353 0 0 0-.125-.125c-.021-.02-.063-.031-.125-.031-1.292 0-2.458.083-3.5.25-.083.02-.167.031-.25.031a.598.598 0 0 0-.188.031l-.218.031h-.063Zm.594-1.156c.521-.02 1.229-.083 2.125-.187.417-.042.656-.063.719-.063h.25c.333 0 .583.063.75.188.146-1.042.219-2.948.219-5.719-.042-.313-.167-.469-.376-.469-.395 0-1.197.073-2.406.219-.125 0-.25.01-.375.031l-.375.063a5.03 5.03 0 0 1-.781.094c-.146 0-.198.072-.156.218l-.031 1.063a2.866 2.866 0 0 0-.032.406c.021.125.032.24.032.344.02.166.031.437.031.812 0 1.625.01 2.521.031 2.688 0 .146.042.24.125.281a.352.352 0 0 0 .25.031Zm2.313-1.75c-.23 0-.407-.114-.532-.344a18.13 18.13 0 0 0-1.218-1.812l-.219-.344c-.084-.125-.125-.219-.125-.281.021-.083.073-.115.156-.094a4.388 4.388 0 0 1 1.5.813c.708.541 1.062.958 1.062 1.25a.877.877 0 0 1-.124.437c-.146.25-.313.375-.5.375Zm5.218-8.375c.104 0 .261.073.469.219-.021.042.021.125.125.25l.219.219c.104.104.208.229.312.375.125.146.261.302.407.469.374.395 1.239 1.427 2.593 3.093.229.334.344.531.344.594 0 .208-.125.313-.375.313-.146 0-.302-.105-.469-.313-.396-.417-1.104-1.073-2.125-1.969-.791-.729-1.51-1.291-2.156-1.687-.312-.146-.469-.313-.469-.5 0-.146.157-.354.469-.625.292-.292.51-.438.656-.438Zm-32.875 19.094v.156c0 .521-.166.781-.5.781-.166 0-.396-.062-.687-.187a2.486 2.486 0 0 1-.782-.531c-.208-.209-.312-.438-.312-.688l.031-.219c.063-.437.094-.916.094-1.437v-.625l-.5-18.469a6.954 6.954 0 0 0-.156-1.062c-.084-.396-.198-.719-.344-.969-.146-.292-.219-.5-.219-.625 0-.167.115-.25.344-.25.417 0 1.188.26 2.312.781l13.782-.718h.218c.313 0 .646.124 1 .374.355.23.532.5.532.813 0 .104-.021.219-.063.344-.041.125-.073.229-.093.312L314.312 82c.584.73.876 1.23.876 1.5 0 .146-.073.24-.219.281-.146.042-.407.073-.781.094l-13.688.469.031 1.281Zm-.406-13.531 12.594-.625.312-8-13.125.687.219 7.938Zm.313 10.375 11.874-.375.344-8.719-12.468.563.25 8.53Z"/></svg>