<svg xmlns="http://www.w3.org/2000/svg" width="350" height="126" fill="none"><path fill="#333" d="M131.582 14.457c-.352 0-.668-.14-.949-.422-.352-.258-.528-.457-.528-.598 0-.164.27-.246.809-.246l1.723-.105 1.758-.176c.046-.375.07-1.09.07-2.144.07 0-.293.046-1.09.14l-.668.106a1.41 1.41 0 0 1-.562.14.478.478 0 0 1-.352-.14c-.375-.328-.563-.61-.563-.844V8.516c0-.164-.058-.797-.175-1.899l-.035-.387c0-.187.035-.304.105-.351.07-.047.199-.047.387 0 .703.187 1.043.398 1.019.633l-.035.246a9.25 9.25 0 0 0-.07 1.265c0 .61.012.997.035 1.16.047.47.07.692.07.669.024.093.106.14.246.14.141 0 .422-.035.844-.105.445-.094.738-.153.879-.176V6.617c0-.867-.035-1.453-.105-1.758a5.262 5.262 0 0 1-.071-.386c0-.164.059-.246.176-.246.047 0 .211.046.492.14.446.211.738.399.879.563.164.164.223.34.176.527-.07.234-.117.703-.141 1.406a65.697 65.697 0 0 0-.14 2.742l1.195-.035c.234 0 .41-.011.527-.035.117-.023.176-.07.176-.14.164-.891.27-1.665.316-2.32l.036-.423c.023-.047.023-.129 0-.246V6.16l-.036-.246c0-.21.082-.316.247-.316.093 0 .293.093.597.28.071.048.164.118.281.212.141.07.235.152.282.246.047.07.07.164.07.281 0 .14-.012.258-.035.352l-.387 1.968-.105.81c-.094.538-.375.831-.844.878a1.25 1.25 0 0 1-.352-.105.342.342 0 0 0-.175-.07c-.282 0-.868.058-1.758.175l-.035 2.18.597-.035.563-.036c.867 0 1.512-.046 1.933-.14.188 0 .352-.024.493-.07l.105-.036c.234 0 .481.164.738.492.305.305.457.528.457.668 0 .211-.328.282-.984.211l-1.336-.07h-1.758c-.351 0-.996.047-1.933.14-.493 0-.938.024-1.336.071a5.613 5.613 0 0 0-1.125.246l-.598.211Zm7.629 9.211c-.352 0-.691-.258-1.02-.773-.421-.657-.832-1.196-1.23-1.618l-.914-.949a14.424 14.424 0 0 1-1.301 1.336 6.992 6.992 0 0 1-1.336.95c-1.008.585-1.851.878-2.531.878-.164 0-.246-.058-.246-.176 0-.07.222-.222.668-.457a7.422 7.422 0 0 0 1.265-.843c1.008-.844 1.84-1.711 2.496-2.602-.14-.14-.843-.75-2.109-1.828-.164-.117-.41-.316-.738-.598a9.494 9.494 0 0 1-.422-.316c-.211-.164-.316-.281-.316-.352 0-.117.058-.175.175-.175.352 0 .914.246 1.688.738a25.67 25.67 0 0 1 2.426 1.687 6.91 6.91 0 0 0 .773-1.125c.188-.351.399-.785.633-1.3a2.41 2.41 0 0 0 .211-.668c.023-.211.035-.34.035-.387 0-.258.07-.387.211-.387.164 0 .387.129.668.387.492.469.738.785.738.95 0 .093-.058.198-.176.316-.281.28-.539.656-.773 1.124-.141.282-.398.68-.774 1.196-.117.14-.21.27-.281.387-.07.117-.14.222-.211.316.539.398 1.336 1.078 2.391 2.039.258.234.422.457.492.668.094.187.141.445.141.773 0 .235-.059.434-.176.598a.567.567 0 0 1-.457.211Zm-7.77 10.512c-.351 0-.621-.094-.808-.282-.211-.21-.317-.398-.317-.562 0-.164.094-.34.282-.527.023-.024.152-.211.386-.563.516-.82 1.102-1.863 1.758-3.129.68-1.289 1.102-2.168 1.266-2.637.14-.445.269-.832.387-1.16.14-.328.257-.492.351-.492.164 0 .305.059.422.176.117.094.234.234.352.422.14.164.246.281.316.351.164.188.246.364.246.528a.562.562 0 0 1-.141.351c-.093.117-.152.2-.175.246l-1.547 2.602a72.802 72.802 0 0 1-1.582 2.707.562.562 0 0 0-.141.352c0 .093.106.14.316.14.446 0 1.278-.059 2.497-.176 1.218-.093 2.039-.175 2.461-.246.609-.07 1.031-.14 1.265-.21.258-.071.633.105 1.125.527.586.492.715.808.387.949-.188.094-.551.14-1.09.14h-1.406c-.305 0-.785.024-1.442.07-.398 0-.843.013-1.336.036-.492.023-.902.047-1.23.07-.375.024-1.102.094-2.18.211l-.422.106Zm-18.984.949c0 .586-.234.879-.703.879-.352 0-.738-.13-1.16-.387-.422-.234-.633-.586-.633-1.055l.035-.246c.117-.75.176-1.476.176-2.18l.035-9.07-7.664.317.105 1.054v.106c0 .445-.222.668-.668.668-.375 0-.761-.117-1.16-.352-.398-.234-.597-.574-.597-1.02v-.28c.047-.516.07-.856.07-1.02 0-.234-.023-.563-.07-.984l-.633-7.665c-.07-.773-.27-1.43-.598-1.968-.187-.305-.281-.528-.281-.668 0-.188.129-.281.387-.281.421 0 1.242.246 2.461.738l8.718-.527.035-6.047c0-.54-.128-1.043-.386-1.512a.93.93 0 0 1-.141-.457c0-.188.153-.281.457-.281.141 0 .399.046.774.14.398.07.761.211 1.089.422.352.211.528.492.528.844l-.035 6.75 9.492-.563c.211-.023.469-.035.773-.035.422 0 .762.094 1.02.281.258.188.433.399.527.633.117.211.176.375.176.492 0 .141-.059.317-.176.528-.094.21-.14.363-.14.457l-.985 7.594c.656.75.985 1.277.985 1.582 0 .187-.094.316-.282.386-.187.047-.492.082-.914.106l-10.547.457-.07 12.164Zm-10.055-13.746 7.84-.352.035-7.77-8.543.493.668 7.629Zm18.703-.844.844-7.945-9.351.527-.071 7.805 8.578-.387Zm70.805-6.258a1.25 1.25 0 0 1-.914-.386 26.715 26.715 0 0 0-2.355-2.286c-.891-.75-1.676-1.312-2.356-1.687-.328-.188-.492-.48-.492-.879 0-.07.082-.164.246-.281.211-.14.551-.446 1.02-.914l1.265-1.23a23.702 23.702 0 0 0 1.406-1.583c.399-.469.622-.797.668-.984a1.16 1.16 0 0 0 .071-.281c.047-.165.117-.247.211-.247.117 0 .269.059.457.176.211.117.386.235.527.352.352.328.527.61.527.844-.023.07-.117.152-.281.246-.14.07-.269.14-.387.21-.117.094-.539.47-1.265 1.126l-2.285 1.968c-.399.328-.598.586-.598.774 0 .094.187.246.563.457.445.281 1.312.855 2.601 1.722.492.329.961.692 1.406 1.09.375.375.563.762.563 1.16 0 .188-.082.352-.246.493a.478.478 0 0 1-.352.14Zm-6.258 5.871c-.257 0-.574-.199-.949-.597-.281-.282-.422-.492-.422-.633 0-.07.047-.106.141-.106a1.48 1.48 0 0 1 .351-.035l.774-.035c.445 0 .738-.012.879-.035.445 0 .82-.012 1.125-.035 2.015-.188 3.375-.34 4.078-.457a29.8 29.8 0 0 0 .949-.14c.281-.071.504-.106.668-.106.328 0 .656.164.984.492.258.258.387.469.387.633 0 .14-.082.234-.246.28-.117.024-.809.071-2.074.142-.703.023-1.57.082-2.602.175a92.491 92.491 0 0 0-2.707.282c-.14.023-.34.058-.597.105-.258.047-.504.07-.739.07Zm8.262 13.852c-.023.023-.082.035-.176.035-.187 0-.457-.129-.808-.387a93.994 93.994 0 0 0-3.129-2.953c-.61.61-1.184 1.137-1.723 1.582-.187.14-.516.352-.984.633-.68.398-1.336.645-1.969.738h-.211c-.211 0-.34-.023-.387-.07-.023-.023.024-.07.141-.14a3.03 3.03 0 0 0 .316-.176c.141-.07.539-.328 1.196-.774.328-.234.797-.633 1.406-1.195.609-.563 1.055-1.02 1.336-1.371L187.48 28.8a44.357 44.357 0 0 0-.843-.598 5.944 5.944 0 0 0-.598-.457l-.035-.105c0-.141.117-.211.351-.211.282 0 .739.175 1.372.527l1.793 1.16c.398-.515.796-1.078 1.195-1.687.422-.633.644-1.008.668-1.125.023-.07.012-.13-.035-.176-.024-.07-.071-.106-.141-.106h-.703l-1.266.106c-.633.047-1.265.129-1.898.246-.07.023-.188.059-.352.105-.164.047-.304.07-.422.07-.046 0-.246-.128-.597-.386-.328-.281-.504-.457-.528-.527-.023-.024-.035-.059-.035-.106 0-.117.129-.164.387-.14h.492c.656 0 1.606-.059 2.848-.176l1.195-.106 1.09-.14c.352-.094.551-.14.598-.14h.07c.117 0 .223.034.316.105.094.07.164.14.211.21.047.07.082.118.106.141l.211.211c.117.094.187.188.211.281.047.07.07.153.07.246 0 .211-.082.364-.246.457-.117.047-.328.293-.633.739-.516.82-1.137 1.699-1.863 2.636.398.258.914.633 1.547 1.125.281.188.738.504 1.371.95.281.21.492.492.633.843.093.375.14.657.14.844-.023.188-.105.317-.246.387ZM174.789 19.87c-.305.235-.527.352-.668.352-.141 0-.211-.07-.211-.211 0-.211.117-.48.352-.809a24.637 24.637 0 0 0 2.285-4.324c.609-1.5.914-2.59.914-3.27 0-.14-.023-.351-.07-.632l-.036-.211c0-.282.118-.422.352-.422.141 0 .41.105.809.316.398.188.761.434 1.089.738.329.282.493.563.493.844 0 .258-.246.832-.739 1.723-.468.89-1.101 1.863-1.898 2.918a19.427 19.427 0 0 1-2.496 2.812l-.176.176Zm-25.699 9.106c0-.235.176-.598.527-1.09 2.321-3.07 4.488-7.032 6.504-11.883l-3.094.281c-.75.094-1.207.14-1.371.14-.492 0-.89-.222-1.195-.667-.305-.469-.492-.844-.563-1.125a.398.398 0 0 1-.035-.176c0-.14.071-.21.211-.21.071 0 .129.01.176.034.352.094.785.14 1.301.14.304 0 .539-.01.703-.034l4.43-.422.035-4.57c-.938.328-2.028.668-3.27 1.02-1.219.327-2.015.491-2.39.491-.352 0-.528-.105-.528-.316 0-.235.235-.434.703-.598 2.555-1.008 4.782-2.039 6.68-3.094 1.898-1.054 3.012-1.898 3.34-2.53.117-.212.246-.317.387-.317.257 0 .621.293 1.089.879.469.586.704 1.03.704 1.336 0 .164-.118.316-.352.457a53.89 53.89 0 0 1-4.324 1.898v5.168l2.285-.21a4.328 4.328 0 0 0 1.336-.352.623.623 0 0 1 .281-.07c.281 0 .68.21 1.195.632.516.422.774.774.774 1.055 0 .258-.258.41-.774.457l-5.097.457v2.074c.258-.21.48-.316.668-.316.281 0 .844.386 1.687 1.16.844.75 1.641 1.558 2.391 2.426.75.867 1.125 1.418 1.125 1.652 0 .281-.176.586-.527.914-.329.305-.598.457-.809.457-.258 0-.527-.2-.809-.598a35.729 35.729 0 0 0-3.726-4.218v14.976c0 .656-.211.985-.633.985-.141 0-.363-.083-.668-.247a2.962 2.962 0 0 1-.773-.562c-.211-.211-.317-.445-.317-.703l.035-.246c.141-.703.211-1.64.211-2.813l.035-9.105c0-.61.047-1.43.141-2.461-.586 1.523-1.406 3.07-2.461 4.64-1.031 1.547-2.039 2.836-3.023 3.868-.985 1.03-1.664 1.547-2.039 1.547-.118 0-.176-.07-.176-.211Zm11.777 5.695c0-.211.258-.563.774-1.055 2.859-2.672 4.957-5.32 6.293-7.945 1.336-2.625 2.168-5.238 2.496-7.84.351-2.625.527-6.059.527-10.3V6.054a2.8 2.8 0 0 0-.492-1.582c-.141-.188-.211-.34-.211-.457 0-.164.129-.246.387-.246.445 0 .996.14 1.652.421.68.258 1.019.598 1.019 1.02 0 5.297-.246 9.738-.738 13.324 1.149 3.235 2.555 6.047 4.219 8.438 1.687 2.39 3.574 4.347 5.66 5.87.352.282.527.481.527.598 0 .188-.269.457-.808.809-.539.375-.949.563-1.231.563-.234 0-.902-.563-2.003-1.688-1.102-1.125-2.309-2.648-3.622-4.57-1.312-1.922-2.461-4.102-3.445-6.54l-.035.106c-.609 2.227-1.652 4.3-3.129 6.223-1.477 1.922-2.977 3.48-4.5 4.675-1.523 1.196-2.566 1.794-3.129 1.794-.14 0-.211-.047-.211-.141Zm3.27-22.606c0-.304.164-.527.492-.668.328-.14.598-.21.809-.21.164 0 .292.058.386.175.117.094.246.258.387.492.375.75.926 2.028 1.652 3.832.727 1.782 1.09 2.836 1.09 3.165 0 .328-.223.585-.668.773-.422.164-.738.246-.949.246a.617.617 0 0 1-.457-.176c-.094-.14-.188-.363-.281-.668-.657-2.39-1.43-4.547-2.321-6.468-.093-.235-.14-.399-.14-.493Zm81.984 2.32c-.164 0-.34-.105-.527-.316a2.15 2.15 0 0 1-.282-.386c-.046-.118-.046-.27 0-.457l.036-.844c.023-.164.035-.563.035-1.195v-1.16l-1.055.492-1.23.527a10.87 10.87 0 0 0-.95.422c-.281.14-.527.21-.738.21a2.17 2.17 0 0 1-.562-.175 4.837 4.837 0 0 1-.493-.246c-.257-.164-.375-.34-.351-.527l.105-.352c0-.188.012-.352.036-.492l.035-2.04V5.95c0-.375-.024-.691-.071-.949-.047-.281-.082-.48-.105-.598 0-.117.035-.199.105-.246.024-.023.082-.035.176-.035.164 0 .481.106.949.316.399.188.563.422.493.704-.047.164-.094.41-.141.738l-.106 4.043c0 .117.012.21.036.281.046.047.093.07.14.07.282 0 .621-.082 1.02-.246.75-.234 1.394-.468 1.933-.703l.774-.316v-2.32c0-.938-.059-1.84-.176-2.708a.792.792 0 0 1-.035-.246c0-.234.094-.351.281-.351.024 0 .152.047.387.14.351.188.609.352.773.493.164.14.258.222.282.246.093.07.14.14.14.21a.34.34 0 0 1-.07.176c-.024.07-.047.13-.07.176l-.106 1.055-.035 3.234.035 3.13c0 .538-.035 1.007-.105 1.405-.118.493-.305.739-.563.739Zm-6.469 5.766c-.257 0-.574-.199-.949-.597-.281-.282-.422-.492-.422-.633 0-.07.047-.106.141-.106a1.48 1.48 0 0 1 .351-.035l.774-.035c.445 0 .738-.012.879-.035.445 0 .82-.012 1.125-.035 2.015-.188 3.375-.34 4.078-.457a29.8 29.8 0 0 0 .949-.14c.281-.071.504-.106.668-.106.328 0 .656.164.984.492.258.258.387.469.387.633 0 .14-.082.234-.246.28-.117.024-.809.071-2.074.142-.703.023-1.57.082-2.602.175a92.491 92.491 0 0 0-2.707.282c-.14.023-.34.058-.597.105-.258.047-.504.07-.739.07Zm4.711 14.52c-.726 0-1.289-.024-1.687-.07a1.68 1.68 0 0 1-.949-.422c-.446-.328-.75-1.043-.915-2.145l-.105-1.125c0-.281-.023-.633-.07-1.055a5.987 5.987 0 0 0-.809.141 3.817 3.817 0 0 1-.246.106.965.965 0 0 1-.211.035.81.81 0 0 1-.457-.14c-.141-.095-.316-.27-.527-.528-.164-.211-.246-.352-.246-.422s.082-.117.246-.14c.164-.024.386-.036.668-.036.398 0 .914-.047 1.547-.14l-.036-.493c0-.937-.058-1.734-.175-2.39l-.036-.246c0-.329.129-.457.387-.387.281.094.539.21.774.351.187.094.316.188.386.282.071.07.094.175.071.316l-.106 1.512v.914l3.094-.317c0-.164.012-.55.035-1.16.024-.633.024-1.043 0-1.23 0-.188-.023-.363-.07-.527a6.529 6.529 0 0 0-.071-.458c0-.187.094-.28.282-.28.187 0 .422.105.703.316.328.21.539.398.633.562.117.164.14.363.07.598a6.4 6.4 0 0 0-.246 1.265c-.047.47-.07.75-.07.844.281-.023.539-.058.773-.105.234-.047.387-.07.457-.07.188-.047.41-.071.668-.071.141.023.34.164.598.422.211.281.316.504.316.668 0 .234-.223.328-.668.281a6.863 6.863 0 0 0-1.195-.105c-.399 0-.738.011-1.02.035-.07.844-.211 1.676-.422 2.496a.953.953 0 0 1-.246.457c-.117.14-.222.21-.316.21-.164 0-.27-.07-.317-.21a3.524 3.524 0 0 1-.035-.598c.047-.61.071-1.37.071-2.285a26.99 26.99 0 0 0-1.477.14 9.357 9.357 0 0 1-1.512.212c-.023.96.024 1.816.141 2.566.07.492.211.832.422 1.02.14.117.305.187.492.21.211.024.422.036.633.036h.422c.726 0 1.406-.035 2.039-.106a1.52 1.52 0 0 0 .492-.14c.164-.07.281-.106.352-.106.21 0 .421.07.632.211.211.14.317.305.317.492 0 .188-.106.328-.317.422-.187.094-.492.176-.914.246-.75.094-1.5.14-2.25.14Zm10.02-15.996c.281 0 .422.129.422.387 0 .14-.129.34-.387.597-.703.867-2.098 2.52-4.184 4.957-.164.211-.316.317-.457.317-.117 0-.375-.176-.773-.528-.328-.281-.492-.515-.492-.703 0-.21.176-.41.527-.598.539-.304 1.348-.914 2.426-1.828 1.078-.96 1.875-1.722 2.39-2.285.211-.21.387-.316.528-.316Zm-44.684 11.496c2.086-.656 3.949-1.371 5.59-2.145a25.586 25.586 0 0 0-1.336-1.687c-.187-.235-.281-.422-.281-.563 0-.258.152-.48.457-.668.305-.21.539-.316.703-.316.188 0 .387.117.598.352a137.853 137.853 0 0 1 3.41 4.148c.937 1.195 1.406 1.922 1.406 2.18 0 .21-.164.457-.492.738-.305.305-.598.457-.879.457-.234 0-.469-.188-.703-.563a96.435 96.435 0 0 0-1.828-2.671l-4.219 2.109c-.469.21-1.207.586-2.215 1.125-.844.445-1.359.668-1.547.668-.14 0-.316-.094-.527-.281a1.65 1.65 0 0 1-.492-.633c-.094-.234-.094-.422 0-.563.14-.257.211-1.289.211-3.093V16.602c0-.563-.024-1.02-.071-1.372a3.587 3.587 0 0 0-.281-1.125 1.37 1.37 0 0 0-.07-.175.305.305 0 0 1-.035-.14c0-.118.082-.177.246-.177.304 0 1.066.258 2.285.774l7.629-.528c.187-.023.398-.035.633-.035.257 0 .562.117.914.352.351.21.527.445.527.703 0 .094-.059.234-.176.422-.094.187-.14.328-.14.422l-.914 6.609c.562.656.843 1.102.843 1.336 0 .117-.07.2-.211.246-.117.047-.304.07-.562.07l-8.508.317.035 5.87Zm-5.765-15.785c0-.235.152-.516.457-.844 1.711-1.898 3.199-3.785 4.464-5.66 1.266-1.875 1.899-3.13 1.899-3.762l-.035-.246V3.77c0-.329.129-.493.386-.493.305 0 .727.211 1.266.633.563.399.844.727.844.985 0 .117-.059.27-.176.457a23.895 23.895 0 0 1-1.16 1.687l4.992-.387a4.872 4.872 0 0 0 1.336-.28c.141-.048.246-.071.316-.071.352 0 .727.199 1.125.597.422.375.633.668.633.88 0 .28-.258.445-.773.492l-6.012.421c.164.047.527.293 1.09.739.586.445 1.113.902 1.582 1.37.469.47.703.798.703.985 0 .211-.141.469-.422.774-.281.28-.527.421-.738.421-.188 0-.41-.152-.668-.457a21.796 21.796 0 0 0-2.426-2.285c-.281-.234-.422-.433-.422-.597 0-.118.059-.27.176-.457.117-.188.27-.34.457-.457l-2.355.175a34.406 34.406 0 0 1-3.727 3.903c-1.359 1.195-2.226 1.793-2.601 1.793-.141 0-.211-.07-.211-.211Zm12.656 3.656.246-2.461-7.242.492v2.32l6.996-.351Zm-.457 4.36.281-2.708-6.785.317v2.636l6.504-.246Zm1.898-9.528c0-.234.153-.516.457-.844 1.149-1.383 2.192-2.941 3.129-4.676.961-1.757 1.442-2.988 1.442-3.69v-.142c0-.351.129-.527.386-.527.164 0 .41.094.739.281.351.164.668.364.949.598.281.234.422.469.422.703 0 .211-.164.586-.493 1.125-.328.54-.503.82-.527.844l6.926-.563a6.483 6.483 0 0 0 1.336-.246c.047-.023.141-.035.281-.035.328 0 .68.188 1.055.563.398.351.597.644.597.879 0 .14-.07.257-.21.351-.118.07-.282.117-.493.14l-7.136.493c.656.422 1.429 1.043 2.32 1.863.891.797 1.336 1.336 1.336 1.617 0 .164-.129.422-.387.774-.258.328-.504.492-.738.492-.188 0-.387-.117-.598-.352-1.148-1.242-2.191-2.226-3.129-2.953-.234-.187-.351-.363-.351-.527 0-.188.176-.469.527-.844l-2.601.176c-.774 1.031-1.711 2.074-2.813 3.129-1.078 1.055-1.805 1.582-2.18 1.582-.164 0-.246-.07-.246-.211Zm3.305.773c0-.14.082-.21.246-.21.352 0 1.148.292 2.391.878l7.066-.597.281-.035c.094 0 .27.046.528.14.281.07.539.2.773.387.258.164.387.387.387.668 0 .094-.035.223-.106.387-.07.164-.105.28-.105.351a88.243 88.243 0 0 1-.492 8.262l-.071.879c-.07.984-.164 1.805-.281 2.46-.117.657-.316 1.173-.598 1.548-.445.609-.925.914-1.441.914s-1.172-.317-1.969-.95a18.576 18.576 0 0 1-2.215-2.074c-.656-.75-.984-1.23-.984-1.441 0-.164.094-.246.281-.246.211 0 .504.117.879.351.867.54 1.594.973 2.18 1.301.586.328 1.008.492 1.266.492.117 0 .199-.082.246-.246.539-3 .867-6.762.984-11.285l-6.609.492c0 3.961.035 10.242.105 18.844 0 .21-.058.363-.176.457a.466.466 0 0 1-.386.176c-.188 0-.411-.07-.668-.211-.446-.188-.762-.363-.95-.528-.187-.164-.281-.351-.281-.562l.035-.246c.141-.773.211-1.64.211-2.602l-.105-14.836c0-.609-.024-1.078-.07-1.406a3.306 3.306 0 0 0-.211-.95c-.094-.28-.141-.468-.141-.562ZM112.719 66.594c-.146 0-.073-.125.219-.375.291-.25.645-.552 1.062-.906a16.43 16.43 0 0 0 1.406-1.47 4.31 4.31 0 0 0 .75-1.25c.104-.25.219-.374.344-.374.104 0 .26.083.469.25.416.333.625.614.625.843 0 .146-.084.25-.25.313-.084.02-.209.115-.375.281-.167.146-.292.26-.375.344-.896.875-1.729 1.51-2.5 1.906-.625.292-1.042.438-1.25.438h-.125ZM116 72.406c-.062 0-.167-.083-.312-.25a2.624 2.624 0 0 1-.282-.531 1.735 1.735 0 0 1 0-.469c.042-.208.063-.364.063-.469.041-.416.062-.75.062-1 .021-.229.021-.479 0-.75v-.53l-.031-.47c-.5.355-.885.605-1.156.75-.604.334-1.042.542-1.313.626a2.606 2.606 0 0 1-.906.187c-.146 0-.229-.02-.25-.063-.042-.083.375-.385 1.25-.906.833-.52 1.74-1.208 2.719-2.062.541-.5.958-.98 1.25-1.438a.713.713 0 0 0 .094-.219c.041-.104.083-.166.124-.187.063-.02.146-.01.25.031.271.146.5.354.688.625a.503.503 0 0 1 .125.313c0 .104-.052.208-.156.312a1.245 1.245 0 0 1-.313.188 6.99 6.99 0 0 0-.968.75c-.292.27-.48.448-.563.531.313.25.469.427.469.531l-.094.656c-.042.188-.062.657-.062 1.407 0 .729.02 1.219.062 1.469v.062a.772.772 0 0 1-.094.344 2.888 2.888 0 0 1-.094.219c-.145.229-.333.343-.562.343Zm3.562 9.438c.292.187.438.364.438.531 0 .23-.177.375-.531.438-.354.062-.854.104-1.5.124-.938.021-1.542-.01-1.813-.093-.458-.209-.687-.552-.687-1.031l.031-1.157c.042-.375.062-.708.062-1 .021-.187.032-.552.032-1.094a10.534 10.534 0 0 1-1.219 2.063c-.354.438-.667.802-.937 1.094-.271.27-.594.531-.969.781s-.719.375-1.031.375c-.188 0-.282-.063-.282-.188 0-.02.198-.177.594-.468.417-.313.833-.74 1.25-1.281.625-.834 1.167-1.813 1.625-2.938-.813.104-1.354.198-1.625.281-.104.021-.198.052-.281.094a.785.785 0 0 1-.313 0 2.646 2.646 0 0 1-.437-.25 2.823 2.823 0 0 1-.438-.406c-.083-.125-.125-.209-.125-.25 0-.104.156-.156.469-.156.771 0 1.76-.084 2.969-.25.125-.48.187-1.25.187-2.313v-.594c0-.25.052-.385.157-.406.02-.02.062-.031.124-.031.167 0 .396.125.688.375.229.187.375.333.438.437.083.084.093.198.031.344l-.125.25c-.063.125-.104.25-.125.375l-.125.625a6.584 6.584 0 0 0-.125.781c.291-.02.656-.062 1.093-.125.438-.062.761-.125.969-.187l.625-.156c.209-.042.552.135 1.032.53.083.063.124.136.124.22 0 .083-.041.156-.124.218a.446.446 0 0 1-.25.063c-.376 0-1.063.062-2.063.187l-1.031.094c.229.167.375.313.437.438a.47.47 0 0 1 .031.374l-.093.5c-.042.417-.084.876-.125 1.376-.021.5-.021.885 0 1.156 0 .104.062.198.187.281a.877.877 0 0 0 .438.125c.521 0 1.104-.052 1.75-.156l.281-.063c.125 0 .229.021.312.063Zm6-13.125c.25 0 .376.114.376.344 0 .124-.115.302-.344.53-.625.772-1.865 2.24-3.719 4.407-.146.188-.281.281-.406.281-.104 0-.334-.156-.688-.469-.291-.25-.437-.458-.437-.624 0-.188.156-.365.468-.532.48-.27 1.198-.812 2.157-1.625.958-.854 1.666-1.531 2.125-2.031.187-.188.344-.281.468-.281Zm-25 9.125v9.031c0 .438-.156.656-.468.656-.271 0-.584-.135-.938-.406-.354-.25-.531-.604-.531-1.063v-.218c.083-.917.125-1.74.125-2.469l.031-5.438-3.781.157.156 5.844v.093c0 .313-.156.469-.469.469-.25 0-.562-.135-.937-.406-.375-.25-.563-.5-.563-.75l.032-.188c.104-.416.156-.906.156-1.469v-.25l-.125-3.062a9.495 9.495 0 0 0-.094-1.063 4.579 4.579 0 0 0-.219-.843c-.104-.25-.156-.417-.156-.5 0-.146.084-.219.25-.219.271 0 .99.27 2.156.813l3.594-.188v-.781a3.18 3.18 0 0 0-.219-1.219l-.062-.281c0-.063.02-.115.063-.156L97.156 74l.031.219v.125c0 .187-.03.323-.093.406-.063.083-.177.125-.344.125-.23 0-.531-.083-.906-.25-.354-.188-.531-.417-.531-.688v-.218c.02-.167.03-.396.03-.688v-.312l-.25-2.469a2.89 2.89 0 0 0-.343-1.156c-.146-.25-.219-.417-.219-.5 0-.125.104-.188.313-.188.354 0 .958.115 1.812.344l6.25-.344c.438 0 .792.125 1.063.375.291.23.437.427.437.594a.556.556 0 0 1-.094.281 3.5 3.5 0 0 0-.124.219l-.5 2.5c.5.48.75.823.75 1.031 0 .104-.063.177-.188.219a1.931 1.931 0 0 1-.5.094l-4.688.187c.021 0 .157.031.407.094.25.063.49.177.719.344.25.166.374.344.374.531v1.406l4.594-.219h.282c.312 0 .604.094.874.282.271.187.407.416.407.687 0 .084-.031.219-.094.406a1.484 1.484 0 0 0-.094.438l-.031 3.719.031 1c0 .437-.156.812-.469 1.125-.312.312-.614.469-.906.469-.229 0-.656-.178-1.281-.532a11.42 11.42 0 0 1-1.719-1.187c-.5-.438-.75-.792-.75-1.063 0-.125.084-.187.25-.187.188 0 .427.073.719.219.813.395 1.573.687 2.281.874l.094-4.656-4.188.188Zm-20.687-8.719c0-.104.063-.156.188-.156l.156.031c.125.02.312.031.562.031.334-.02.802-.062 1.406-.125.626-.062 1.25-.135 1.876-.219.5-2.583.843-4.843 1.03-6.78.022-.084.032-.21.032-.376 0-.291-.052-.562-.156-.812l-.063-.25c0-.125.073-.188.219-.188.125.021.344.084.656.188.313.083.615.208.906.375.292.166.438.364.438.593v.094a93.581 93.581 0 0 1-1.188 6.938l2.563-.375.031-.5v-.281c0-.313-.052-.615-.156-.907a.435.435 0 0 1-.031-.187c0-.125.083-.188.25-.188.104 0 .312.052.625.156.312.084.594.209.844.376.27.145.406.312.406.5v.062l-.063.625.125-.031c.25-.042.406-.063.469-.063.167 0 .292.031.375.094.083.042.125.094.125.156 0 .25-.27.469-.813.656l-.406.126c-.416 3.27-.969 5.802-1.656 7.593a18.62 18.62 0 0 1-.844 1.969 53.518 53.518 0 0 1 2.375 2.531c.75.854 1.125 1.417 1.125 1.688 0 .25-.146.51-.437.781-.271.27-.49.406-.656.406-.146 0-.303-.114-.47-.344-.708-1.02-1.645-2.166-2.812-3.437-.791 1.375-1.646 2.49-2.562 3.344-.917.854-1.73 1.469-2.438 1.844-.708.374-1.146.562-1.312.562-.125 0-.188-.052-.188-.156 0-.188.188-.459.563-.813 1.979-1.875 3.552-3.896 4.719-6.062l-1.282-1.281-.562-.563a1.82 1.82 0 0 0-.469-.313 2.92 2.92 0 0 1-.438-.343 1.106 1.106 0 0 1-.218-.5 1.095 1.095 0 0 1-.031-.313c0-.27.052-.594.156-.969.375-1.562.677-2.864.906-3.906-.375.063-.698.125-.969.188-.729.146-1.166.219-1.312.219a1.28 1.28 0 0 1-.563-.157c-.458-.333-.791-.791-1-1.375a.348.348 0 0 1-.031-.156Zm4.469 5.969c.75.625 1.458 1.25 2.125 1.875.896-1.938 1.531-4.5 1.906-7.688-1.313.354-2.23.584-2.75.688a76.58 76.58 0 0 1-1.281 5.125Zm6.875-5.031c0-.167.041-.344.125-.532a19.35 19.35 0 0 0 1.125-5.062c.02-.25.052-.406.094-.469.062-.083.208-.125.437-.125h.281c.313.02.51.083.594.188.104.104.156.26.156.468v.219l-.031.594 4.719-.281-.063-4.97c0-.54-.104-.937-.312-1.187-.146-.166-.219-.302-.219-.406 0-.125.115-.188.344-.188.375 0 .812.084 1.312.25.5.167.75.47.75.907l-.031 5.468 6.656-.406.688-.062c.166 0 .312.052.437.156.459.292.688.583.688.875 0 .146-.063.292-.188.438a2.203 2.203 0 0 0-.25.28c-.375.75-.875 1.615-1.5 2.594-.604.959-1.104 1.438-1.5 1.438-.166 0-.25-.115-.25-.344 0-.25.094-.562.281-.937.417-.938.75-1.875 1-2.813l-12.75.75c-.25 1.584-.479 2.646-.687 3.188-.188.52-.417.781-.688.781-.145 0-.385-.073-.718-.219-.334-.146-.5-.344-.5-.594Zm2.437-9c0-.126.125-.282.375-.47.292-.187.5-.28.625-.28s.438.25.938.75c.52.479 1 .99 1.437 1.53.438.542.656.917.656 1.126 0 .146-.135.343-.406.593-.27.25-.52.376-.75.376a.424.424 0 0 1-.312-.126 2.795 2.795 0 0 1-.313-.406c-.479-.791-1.125-1.646-1.937-2.562l-.188-.188a.634.634 0 0 1-.125-.343Zm3.375 11.5 5-.25.281-2.407-5.5.281.22 2.376Zm4.563-8.094c0-.167.125-.438.375-.813.75-1.062 1.229-1.823 1.437-2.281.209-.48.313-.875.313-1.188v-.28c0-.272.104-.407.312-.407.25 0 .615.156 1.094.469.479.291.719.573.719.843a.636.636 0 0 1-.125.344c-.834 1-1.636 1.834-2.407 2.5-.75.667-1.26 1-1.531 1-.125 0-.187-.062-.187-.187Zm62.531 13.906c-1 0-1.833-.25-2.5-.75-.687-.563-1.031-1.219-1.031-1.969 0-.583.218-1.094.656-1.531.562-.48 1.271-.719 2.125-.719.042 0 .073-.041.094-.125.041-.104.062-.24.062-.406l.031-.813c-.145.021-.427.053-.843.094a8.574 8.574 0 0 0-.875.125c.104-.02-.219.052-.969.219-.063.02-.177.031-.344.031-.396 0-.729-.177-1-.531-.125-.125-.187-.23-.187-.313 0-.124.187-.187.562-.187l.969-.063 2.656-.343V69.938a1.154 1.154 0 0 1-.031-.282.81.81 0 0 0-.031-.25 1.865 1.865 0 0 1-.063-.312c0-.146.073-.219.219-.219.187 0 .51.135.969.406.146.084.218.198.218.344 0 .104-.02.198-.062.281a.689.689 0 0 0-.031.219V71l.937-.094 1.156-.125c.105-.02.219-.052.344-.094.146-.041.261-.062.344-.062.125 0 .281.063.469.188.354.229.531.427.531.593 0 .167-.177.25-.531.25-.104 0-.25.021-.438.063a18.9 18.9 0 0 1-.719.062l-2.093.156-.031 1.907c-.042.312-.271.51-.688.594h-.062c-.126 0-.25-.01-.376-.032a.718.718 0 0 0-.25-.062c-.166 0-.333.01-.5.031a.83.83 0 0 0-.437.188c-.354.312-.531.677-.531 1.093 0 .417.198.792.594 1.125.354.334.916.5 1.687.5 1.021-.041 1.854-.323 2.5-.844.271-.187.479-.28.625-.28.083 0 .188.02.312.062l.126.125c.062.062.093.125.093.187 0 .584-.489 1.063-1.469 1.438a6.243 6.243 0 0 1-2.187.406Zm9.437-14.344c.25 0 .376.115.376.344 0 .125-.115.302-.344.531-.625.771-1.865 2.24-3.719 4.406-.146.188-.281.282-.406.282-.104 0-.334-.156-.688-.469-.291-.25-.437-.458-.437-.625 0-.188.156-.365.468-.531.48-.271 1.198-.813 2.157-1.625.958-.854 1.666-1.531 2.125-2.031.187-.188.344-.282.468-.282ZM145.25 84.47c0 .562-.146.99-.438 1.281-.27.292-.562.438-.874.438-.313 0-.834-.271-1.563-.813a18.314 18.314 0 0 1-2.031-1.75c-.625-.646-.938-1.094-.938-1.344 0-.166.094-.25.282-.25.208 0 .479.104.812.313 1.104.646 2.094 1.094 2.969 1.344v-7.063c-1.959 1.083-3.136 1.625-3.531 1.625-.23 0-.553-.208-.969-.625-.417-.417-.625-.708-.625-.875 0-.146.166-.23.5-.25a5.978 5.978 0 0 0 1.375-.281c.437-.146 1.521-.584 3.25-1.313l-.031-4.469-2.25.188h-.313c-.542 0-.958-.156-1.25-.469a2.022 2.022 0 0 1-.531-1.125c0-.104.062-.156.187-.156.021 0 .115.02.281.063.313.083.667.124 1.063.124H141l2.438-.187v-3.906c-.438.229-1.042.52-1.813.875-.75.333-1.281.5-1.594.5-.25 0-.375-.084-.375-.25 0-.271.261-.573.782-.906.75-.459 1.739-1.146 2.968-2.063 1.25-.938 2.011-1.719 2.282-2.344.062-.146.145-.218.25-.218.208 0 .489.24.843.718.354.48.531.834.531 1.063 0 .187-.26.468-.781.843a18.33 18.33 0 0 1-1.343.844l.031 4.75 3.531-.281c-.188-1.73-.417-4.406-.688-8.031a2.46 2.46 0 0 0-.156-.75c-.062-.23-.208-.448-.437-.657-.104-.104-.157-.187-.157-.25 0-.124.146-.187.438-.187.375 0 .812.073 1.312.219.521.146.803.427.844.843.229 3.563.448 6.459.656 8.688l3.219-.219c.354-.02.677-.083.969-.187.167-.042.271-.063.312-.063.126 0 .25.042.376.125.124.084.281.23.468.438.313.333.469.583.469.75 0 .208-.24.333-.719.375l-4.968.312c.041.271.083.698.124 1.281l.219 1.75.438 2.72c.771-1.313 1.271-2.21 1.5-2.688.25-.5.406-.99.469-1.469.041-.313.124-.469.25-.469.187 0 .479.198.874.594.417.375.626.688.626.938 0 .208-.282.802-.844 1.78-.563.96-1.365 2.105-2.406 3.438.354 1.48.729 2.698 1.124 3.656.417.938.782 1.626 1.094 2.063.313.417.532.625.656.625.084 0 .157-.063.219-.188.25-.645.615-2.02 1.094-4.124.083-.417.187-.74.313-.97.145-.25.281-.374.406-.374.104 0 .187.083.25.25.062.166.094.406.094.719 0 .208-.011.374-.032.5-.166 1.854-.312 3.187-.437 4-.104.812-.292 1.437-.563 1.874-.25.438-.625.657-1.125.657-.833 0-1.677-.636-2.531-1.906-.833-1.25-1.521-2.98-2.062-5.188a42.34 42.34 0 0 1-2.594 2.25c-.771.604-1.292.906-1.563.906-.166 0-.25-.073-.25-.219 0-.25.229-.593.688-1.03a70.157 70.157 0 0 0 1.906-1.97c.521-.541.99-1.093 1.406-1.656-.354-1.833-.729-4.364-1.125-7.594l-3.687.282v3.75a136.07 136.07 0 0 1 2.281-1.188c.438-.208.708-.312.812-.312.188 0 .282.073.282.219 0 .25-.219.552-.656.906-.834.646-1.74 1.27-2.719 1.875l.031 7.937v.938Zm-17.375-15.844c0-.125.073-.188.219-.188.062 0 .114.01.156.032.312.062.604.094.875.094l.625-.032c.708-.02 1.49-.083 2.344-.187.437-2.209.76-4.459.968-6.75v-.25c0-.354-.052-.667-.156-.938l-.062-.281c0-.146.094-.219.281-.219.333 0 .75.115 1.25.344.5.23.75.51.75.844v.125c-.396 2.708-.792 5.02-1.187 6.937.437-.041 1.281-.156 2.531-.344l.031-.53V67c0-.313-.052-.615-.156-.906a.806.806 0 0 1-.032-.25c0-.167.105-.25.313-.25.313 0 .698.104 1.156.312.459.188.688.438.688.75v.156l-.063.688.656-.125c.25-.042.417-.063.5-.063.313 0 .469.084.469.25 0 .271-.583.584-1.75.938-.604 4.583-1.437 7.844-2.5 9.781.438.438 1.052 1.115 1.844 2.031.813.896 1.219 1.47 1.219 1.72 0 .187-.146.437-.438.75-.271.29-.51.437-.718.437-.167 0-.334-.115-.5-.344a71.775 71.775 0 0 0-2.376-3.031 19.02 19.02 0 0 1-2.437 2.937c-.875.854-1.677 1.51-2.406 1.969-.709.458-1.177.688-1.407.688-.145 0-.218-.063-.218-.188 0-.188.166-.448.5-.781 2.25-2.25 3.864-4.209 4.844-5.875-.313-.354-.792-.823-1.438-1.406l-.469-.438a2.411 2.411 0 0 0-.437-.313 2.463 2.463 0 0 1-.469-.343 1.113 1.113 0 0 1-.219-.5 1.093 1.093 0 0 1-.031-.313c0-.27.052-.594.156-.969.25-.916.584-2.343 1-4.28-.062 0-.385.051-.969.156-.562.104-1 .156-1.312.156-.25 0-.469-.063-.656-.188-.104-.062-.25-.219-.438-.469a3.963 3.963 0 0 1-.5-.937l-.031-.125Zm4.469 6.469c.521.437 1.218 1.083 2.094 1.937.5-1.416.885-2.656 1.156-3.719.271-1.083.521-2.5.75-4.25l-2.719.626c-.583 2.645-1.01 4.447-1.281 5.406Zm18.562-12.719c0-.188.136-.385.406-.594.167-.125.323-.187.469-.187.25 0 .511.146.781.437a23.93 23.93 0 0 1 1.75 2.157c.646.833.969 1.385.969 1.656 0 .166-.083.333-.25.5a2.03 2.03 0 0 1-.531.375c-.188.104-.312.156-.375.156-.229 0-.448-.198-.656-.594a18.875 18.875 0 0 0-2.344-3.437c-.146-.167-.219-.323-.219-.469Zm60.969 9.594c-.167 0-.333-.031-.5-.094A.814.814 0 0 1 211 71.5c-.062-.188-.198-.406-.406-.656a2.388 2.388 0 0 0-.563-.563l.125-.156c.104.063.354.188.75.375.396.188.688.281.875.281.292 0 .552-.104.781-.312.23-.209.521-.604.876-1.188.25-.396.479-.864.687-1.406.208-.542.365-1.042.469-1.5l.031-.063a.211.211 0 0 0-.063-.156c-.041-.062-.083-.094-.124-.094l-1.438.126a41.73 41.73 0 0 1-3 .406 3.25 3.25 0 0 0-.656.156c-.25.083-.427.125-.532.125-.166 0-.385-.135-.656-.406a2.213 2.213 0 0 1-.312-.313c-.084-.125-.104-.229-.063-.312l.25-.25.157-.125c.291-.292.583-.677.874-1.156.209-.292.428-.782.657-1.47 0-.228.052-.343.156-.343.063 0 .167.042.313.125l.5.313c.124.104.208.187.25.25a.45.45 0 0 1 .062.25c0 .124-.083.28-.25.468a4.787 4.787 0 0 0-.438.5l-.718 1.031-.063.126c0 .062.084.093.25.093l2.407-.312 1.624-.125.626-.063.343-.062h.094c.208 0 .437.177.687.531.292.27.438.5.438.688l-.156.406c-.021.041-.188.531-.5 1.469-.375.895-.698 1.572-.969 2.03-.271.46-.563.813-.875 1.063-.562.459-1.104.688-1.625.688Zm3.875 5.312c.229.25.344.459.344.625 0 .146-.084.281-.25.406-.104.084-.365.542-.782 1.376-.458.75-.968 1.406-1.531 1.968-.541.542-1.083.938-1.625 1.188a1.029 1.029 0 0 1-.312.062c-.084 0-.125-.02-.125-.062v-.063c0-.125.104-.27.312-.437.375-.292.657-.584.844-.875.208-.313.365-.542.469-.688.437-.625.75-1.135.937-1.531a3.76 3.76 0 0 0 .438-1.094h-.125c-.542 0-1.417.063-2.625.188-.188.02-.729.094-1.625.219-.188.02-.479.072-.875.156l-.375.094a.557.557 0 0 1-.25.062.838.838 0 0 1-.313-.063 2.843 2.843 0 0 1-.312-.218c-.25-.209-.375-.386-.375-.531a.976.976 0 0 0 .062-.188.5.5 0 0 0 .063-.219l.156-1.031c.021-.104.042-.219.063-.344.02-.125.031-.25.031-.375 0-.396-.011-.708-.031-.937 0-.25-.032-.51-.094-.781v-.094c0-.146.062-.219.187-.219s.344.094.657.281c.416.292.624.521.624.688 0 .062-.01.114-.031.156l-.062.125a8.772 8.772 0 0 0-.094.625l-.156 1.656c0 .042.021.094.062.156a.337.337 0 0 0 .188.063c.5 0 1.625-.125 3.375-.375.687-.063 1.177-.135 1.468-.219a2.31 2.31 0 0 0 .469-.094c.146-.062.24-.093.281-.093.126-.042.209-.063.25-.063.188 0 .417.167.688.5ZM193.5 64.22c1.438 1.354 3.115 2.573 5.031 3.656 1.917 1.063 4.104 2.042 6.563 2.938.333.124.5.28.5.468 0 .125-.094.281-.282.469-.604.583-1.052.875-1.343.875-.229 0-1.063-.344-2.5-1.031-1.417-.688-3.052-1.646-4.907-2.875a35.696 35.696 0 0 1-5.281-4.375l-2.125.125c-1.354 1.958-2.948 3.604-4.781 4.937-1.813 1.334-3.479 2.334-5 3-1.521.667-2.437 1-2.75 1-.229 0-.344-.073-.344-.219 0-.208.219-.427.657-.656 4.208-2.25 7.458-4.896 9.75-7.937l-5.063.312-.594.031c-.375 0-.708-.104-1-.312a2.257 2.257 0 0 1-.625-.719c-.146-.27-.218-.49-.218-.656 0-.125.052-.188.156-.188.021 0 .094.021.218.063.313.104.698.156 1.157.156H181l6.844-.406c1.062-1.792 1.594-3.02 1.594-3.688 0-.124-.021-.27-.063-.437a.688.688 0 0 1-.031-.219c0-.166.104-.25.312-.25.292 0 .719.146 1.282.438.562.291.843.573.843.843 0 .105-.146.47-.437 1.094a20.762 20.762 0 0 1-1.094 2.063l8.656-.5c.459-.021.844-.094 1.156-.219a.54.54 0 0 1 .219-.031c.229 0 .563.177 1 .531.438.333.657.615.657.844 0 .229-.261.364-.782.406l-7.656.469Zm-15.906 12.875c0-.146.083-.219.25-.219.083 0 .156.01.218.031.376.125.813.188 1.313.188h.281l6.032-.25c.02-.354.031-.875.031-1.563 0-.437-.125-.875-.375-1.312a.784.784 0 0 1-.125-.375c0-.167.114-.25.343-.25.271 0 .657.094 1.157.281.437.146.708.281.812.406.125.104.188.271.188.5 0 .75-.031 1.49-.094 2.219l6.437-.25v-1.656c0-.354-.135-.781-.406-1.281-.083-.209-.125-.334-.125-.376 0-.166.136-.25.407-.25.27 0 .614.073 1.031.22.416.145.677.28.781.406.125.124.188.312.188.562v2.281l4.593-.187c.563-.042 1.031-.125 1.407-.25a.98.98 0 0 1 .281-.063c.25 0 .583.188 1 .563.437.375.656.666.656.875 0 .27-.219.427-.656.469h-.094l-7.156.312.031 8.313c0 .5-.208.75-.625.75-.083 0-.25-.042-.5-.126a2.11 2.11 0 0 1-.687-.437c-.209-.208-.313-.49-.313-.844 0-.146.01-.25.031-.312.125-.646.188-1.281.188-1.906l-.032-5.376-6.624.282c-.25 1.208-.573 2.219-.969 3.031a9.117 9.117 0 0 1-2.375 2.938c-.979.791-1.917 1.385-2.813 1.78-.875.417-1.448.626-1.719.626-.229 0-.343-.073-.343-.219 0-.208.26-.48.781-.813 1.833-1.124 3.125-2.26 3.875-3.406a11.433 11.433 0 0 0 1.625-3.844l-5.219.22-.843.03c-.834 0-1.417-.468-1.75-1.406a.73.73 0 0 1-.094-.312Zm6.468-6.969c0-.125.053-.188.157-.188.062 0 .114.01.156.032a7.51 7.51 0 0 0 1.469.156h.312l3.532-.219-.032-1.562c0-.834-.104-1.459-.312-1.875a.383.383 0 0 1-.063-.219c0-.146.104-.219.313-.219.312 0 .698.094 1.156.281.479.167.719.51.719 1.032l.031 2.469 2.656-.157c.604-.02 1.094-.114 1.469-.281.125-.042.24-.063.344-.063.354 0 .708.167 1.062.5.375.313.563.573.563.782 0 .125-.063.229-.188.312-.125.084-.302.136-.531.156l-5.375.313.031 3.594c0 .437-.166.656-.5.656-.312 0-.656-.135-1.031-.406-.354-.271-.531-.542-.531-.813 0-.125.01-.229.031-.312.146-.917.219-1.636.219-2.156v-.47l-3 .188c-.229.021-.531.031-.907.031-.5 0-.802-.062-.906-.187a2.737 2.737 0 0 1-.812-1.219.345.345 0 0 1-.032-.156Zm73.094.156c-.687-.25-1.01-.52-.968-.812.124-.875.187-1.875.187-3a13.453 13.453 0 0 0-.094-1.781c-.021-.209-.021-.323 0-.344a.426.426 0 0 1 .313-.125c.187 0 .416.083.687.25.292.166.438.333.438.5 0 .104-.011.208-.031.312a1.152 1.152 0 0 0-.032.281l-.187 3.094c0 .167.062.271.187.313h.156c.167 0 .282-.01.344-.031l4.032-.563v-.813c0-1.02-.021-1.812-.063-2.374-.021-.48-.073-.865-.156-1.157-.063-.333.021-.5.25-.5.166 0 .385.063.656.188.333.166.531.312.594.437.062.104.083.271.062.5-.041.375-.062.938-.062 1.688l.031 2.375c0 .5-.094.896-.281 1.187-.104.125-.209.188-.313.188-.104 0-.25-.094-.437-.281a1.845 1.845 0 0 1-.157-.188.41.41 0 0 0-.187-.156.814.814 0 0 0-.25-.031c-.479.041-1.635.197-3.469.468-.312.042-.562.125-.75.25-.208.104-.344.156-.406.156l-.094-.03Zm3.5 12.656c-.646 0-1.146-.02-1.5-.062a1.5 1.5 0 0 1-.844-.375c-.395-.292-.666-.927-.812-1.906l-.094-1c0-.25-.021-.563-.062-.938a5.336 5.336 0 0 0-.719.125c-.042.021-.115.052-.219.094a.856.856 0 0 1-.187.031.722.722 0 0 1-.407-.125c-.124-.083-.281-.24-.468-.469-.146-.187-.219-.312-.219-.374 0-.063.073-.105.219-.126.146-.02.344-.03.594-.03a9.76 9.76 0 0 0 1.374-.126l-.031-.437c0-.834-.052-1.542-.156-2.125l-.031-.219c0-.292.114-.406.344-.344.25.084.479.188.687.313.167.083.281.166.344.25.062.062.083.156.062.281l-.093 1.344v.812l2.75-.281c0-.146.01-.49.031-1.031.021-.563.021-.927 0-1.094 0-.167-.021-.323-.063-.469a5.904 5.904 0 0 0-.062-.406c0-.167.083-.25.25-.25.166 0 .375.094.625.281.291.188.479.354.562.5.104.146.125.323.063.531a5.704 5.704 0 0 0-.219 1.126c-.042.416-.063.666-.063.75.25-.021.48-.053.688-.094.208-.042.344-.063.406-.063.167-.041.365-.062.594-.062.125.02.302.146.531.375.188.25.281.448.281.594 0 .208-.197.291-.593.25a6.108 6.108 0 0 0-1.063-.094c-.354 0-.656.01-.906.031-.062.75-.188 1.49-.375 2.219a1.09 1.09 0 0 1-.219.437c-.104.104-.198.156-.281.156-.146 0-.24-.052-.281-.156a3.672 3.672 0 0 1-.032-.562 27.07 27.07 0 0 0 .063-2.031c-.563.041-1 .083-1.313.124a8.296 8.296 0 0 1-1.343.188 12.86 12.86 0 0 0 .125 2.281c.062.438.187.74.375.906a.83.83 0 0 0 .437.188c.188.02.375.031.563.031h.375c.646 0 1.25-.031 1.812-.094.167-.02.313-.062.438-.124.146-.063.25-.094.312-.094.188 0 .375.062.563.187.187.125.281.271.281.438 0 .166-.094.291-.281.375-.167.083-.438.156-.813.219-.666.083-1.333.124-2 .124Zm4.906-11.718c.105 0 .261.073.469.219-.021.041.021.124.125.25l.219.218c.104.104.208.23.313.375.124.146.26.302.406.469.375.396 1.239 1.427 2.594 3.094.229.333.343.531.343.594 0 .208-.125.312-.375.312-.146 0-.302-.104-.468-.313-.396-.416-1.105-1.072-2.126-1.968-.791-.73-1.51-1.292-2.156-1.688-.312-.146-.468-.312-.468-.5 0-.146.156-.354.468-.625.292-.291.511-.437.656-.437Zm-32.156 5.125c-.521 2.229-1.344 4.114-2.468 5.656-1.126 1.52-2.594 3.01-4.407 4.469-.437.354-.791.531-1.062.531-.146 0-.219-.073-.219-.219 0-.208.167-.49.5-.844 1.729-1.916 3.042-3.74 3.938-5.468.916-1.73 1.541-3.625 1.874-5.688.355-2.083.532-4.698.532-7.844V64c0-1.146-.104-2.031-.313-2.656a1.283 1.283 0 0 1-.093-.438c0-.166.093-.25.281-.25.333 0 1.062.282 2.187.844l11.156-.656.344-.032c.354 0 .667.146.938.438.271.27.406.51.406.719 0 .083-.031.208-.094.375a1.237 1.237 0 0 0-.094.406l.157 21.656.031 1.063c0 .437-.104.802-.312 1.094-.188.291-.407.5-.657.624-.25.146-.458.22-.625.22-.375 0-1.01-.324-1.906-.97a19.93 19.93 0 0 1-2.5-2.062c-.771-.73-1.156-1.23-1.156-1.5 0-.125.073-.188.218-.188.23 0 .573.136 1.032.407a20.023 20.023 0 0 0 3.812 1.75l-.062-8.969-11.438.469Zm11.438-2.188-.032-4.875-10.718.406c-.084 2.25-.209 3.896-.375 4.938l11.125-.469Zm-.032-6.687-.031-4.781-10.562.656-.063 4.656 10.656-.531ZM79 88.813h96v1.562H79v-1.563ZM38.2 112.418c-.165 0-.292-.036-.384-.109l-.136-.137a47.476 47.476 0 0 0-.657-1.203c-.346-.657-.601-1.103-.765-1.34-.347-.511-.52-.839-.52-.984 0-.201.119-.493.356-.875.364-.511.61-.921.738-1.231.237-.437.41-.775.52-1.012.109-.255.155-.455.136-.601a1.542 1.542 0 0 1-.027-.301c0-.073.018-.109.055-.109.036-.019.109-.009.218.027.183.055.392.182.63.383.054.054.118.127.19.219a.675.675 0 0 1 .137.246.229.229 0 0 1 .028.191c0 .055-.028.109-.082.164l-.137.109a14.33 14.33 0 0 0-.438.602c-.164.237-.319.456-.464.656l-.684.985c-.182.255-.273.437-.273.547 0 .054.082.2.246.437l.574.629c.547.601.802.884.766.848.346.346.52.683.52 1.011 0 .565-.183.848-.548.848Zm3.609-.082a.91.91 0 0 1-.41-.082 1.8 1.8 0 0 1-.438-.711l-.574-1.012-.547-.957c-.347-.474-.52-.793-.52-.957 0-.219.119-.501.356-.847l.437-.629c.183-.31.283-.493.301-.547.182-.365.337-.684.465-.957.146-.292.21-.511.191-.657a1.145 1.145 0 0 1-.027-.273c0-.146.082-.182.246-.109.237.091.492.237.766.437.127.128.21.237.246.328a.491.491 0 0 1 .082.301c0 .037-.064.109-.192.219a1.715 1.715 0 0 0-.328.301c-.11.109-.355.455-.738 1.039a8.452 8.452 0 0 1-.273.382c-.092.128-.21.301-.356.52-.182.237-.273.41-.273.52 0 .109.109.273.328.492.073.073.146.164.218.273l.329.328.71.793c.347.31.52.611.52.903 0 .601-.173.902-.52.902Zm-2.024 9.379c0-.018.046-.082.137-.192.11-.127.228-.282.355-.464.22-.31.438-.766.657-1.368.218-.601.337-1.157.355-1.668 0-.036-.018-.072-.055-.109-.018-.055-.063-.082-.136-.082l-.63.055-.929.082c-.2.656-.547 1.367-1.039 2.133-.219.346-.52.656-.902.929a3.95 3.95 0 0 1-1.067.547c-.11.037-.246.055-.41.055-.128-.018-.191-.055-.191-.11 0-.072.063-.136.191-.191.219-.146.465-.374.738-.684a7.23 7.23 0 0 0 .766-.957c.128-.182.264-.419.41-.711.146-.309.265-.592.356-.847a9.796 9.796 0 0 0-1.805.41c-.036.036-.1.055-.191.055-.055 0-.137-.037-.247-.11a3.552 3.552 0 0 1-.3-.328c-.037-.091-.019-.173.054-.246l.11-.219c.073-.109.146-.328.218-.656a3.84 3.84 0 0 0 .11-.793.8.8 0 0 0-.028-.191c0-.091.01-.137.028-.137.036-.018.082-.018.137 0 .2.036.382.1.546.191a.797.797 0 0 1 .301.301c.073.091.073.173 0 .246a.795.795 0 0 0-.082.11.343.343 0 0 0-.082.164c-.018.018-.054.218-.11.601 0 .018.01.037.028.055a.118.118 0 0 0 .11 0c.054 0 .136-.009.246-.027.109-.019.191-.037.246-.055.127-.018.273-.046.437-.082.183-.037.347-.064.492-.082.055-.201.091-.419.11-.656.036-.256.064-.429.082-.52l.027-.574v-.192c-.583.019-1.194.073-1.832.164l-.492.083h-.11a.526.526 0 0 1-.273-.083 8.368 8.368 0 0 1-.246-.191c-.237-.219-.355-.383-.355-.492 0-.109.082-.146.246-.109.218.036.446.054.683.054l.793-.027 3.801-.274c.146-.018.282-.036.41-.054.128-.037.255-.064.383-.082h.082c.237 0 .401.045.492.136.11.073.173.119.192.137.291.237.437.419.437.547 0 .109-.155.155-.465.137l-.547-.055c-.474-.018-1.185 0-2.133.055l-.109 1.066a7.254 7.254 0 0 1-.054.438c-.019.109-.037.2-.055.273l-.028.082a36.99 36.99 0 0 0 1.532-.164.898.898 0 0 1 .191-.055 1.67 1.67 0 0 1 .273-.082h.055c.11 0 .219.046.328.137.11.091.173.146.192.164.146.128.246.237.3.328.073.073.083.137.028.192a1.441 1.441 0 0 1-.137.218.614.614 0 0 0-.082.192c-.091.765-.237 1.385-.437 1.859-.164.419-.347.738-.547.957-.183.201-.41.392-.684.574-.11.073-.282.137-.52.192-.236.036-.355.036-.355 0Zm8.067-10.281c.054 0 .109.027.164.082a.264.264 0 0 1 .109.164v.054c0 .128-.1.374-.3.739l-1.97 3.418c-.145.31-.337.464-.574.464-.237 0-.437-.145-.601-.437a9.227 9.227 0 0 1-.602-1.066c-.11-.164-.2-.329-.273-.493a9.567 9.567 0 0 0-.164-.355c-.2-.346-.301-.593-.301-.738 0-.073.027-.128.082-.164.055-.055.11-.082.164-.082.2 0 .383.109.547.328.127.127.228.264.3.41l.301.41.547.629.246-.383c.256-.437.857-1.303 1.805-2.598.2-.255.374-.382.52-.382Zm-22.805 7.054c-1.112 1.422-2.279 2.616-3.5 3.582-1.221.966-2.315 1.687-3.281 2.16-.948.474-1.55.711-1.805.711-.164 0-.246-.054-.246-.164 0-.164.2-.382.601-.656 3.592-2.516 6.144-5.031 7.657-7.547-1.44-2.278-2.452-4.202-3.035-5.769-1.86 3.062-3.081 4.593-3.665 4.593-.09 0-.136-.054-.136-.164 0-.164.11-.437.328-.82a44.076 44.076 0 0 0 2.598-4.922c.838-1.823 1.503-3.472 1.996-4.949.51-1.495.765-2.488.765-2.981l-.027-.382v-.055c0-.146.082-.219.246-.219.219 0 .465.091.738.274.292.182.538.392.739.629.2.237.3.41.3.519 0 .128-.246.82-.738 2.078a48.493 48.493 0 0 1-1.422 3.309l6.617-.41c.328-.019.72-.11 1.176-.274a.91.91 0 0 1 .274-.054c.2 0 .419.091.656.273.237.164.437.365.601.602.183.218.274.373.274.464 0 .183-.2.292-.602.329l-2.433.136c-.784 2.844-1.905 5.442-3.364 7.793 1.933 2.68 4.348 5.077 7.246 7.192.183.145.274.264.274.355 0 .164-.2.374-.602.629-.4.273-.683.41-.847.41-.146 0-.638-.364-1.477-1.094-.82-.711-1.74-1.613-2.762-2.707a33.166 33.166 0 0 1-2.761-3.363l-.383.492Zm-15.45-13.89c0-.11.055-.164.165-.164.054 0 .1.009.136.027.274.073.675.109 1.204.109h.41l5.578-.382h.137c.437 0 .783.118 1.039.355.273.237.41.483.41.738a.957.957 0 0 1-.055.301 3.891 3.891 0 0 0-.082.273l-.71 4.54c.619.565.929.975.929 1.23 0 .237-.192.355-.574.355l-6.016.247-.137 7.41a24.045 24.045 0 0 0 1.696-.821 47.156 47.156 0 0 0 1.668-.902l1.148-.656c.401-.219.665-.328.793-.328s.219.036.273.109a.297.297 0 0 1 .082.219c0 .073-.045.155-.136.246-.091.091-.2.191-.328.301a35.67 35.67 0 0 1-.356.3c-1.094.985-2.142 1.805-3.144 2.461-.402.237-.957.602-1.668 1.094-.584.401-.948.611-1.094.629-.182.018-.392-.118-.63-.41-.236-.292-.309-.52-.218-.684.073-.146.137-.51.192-1.093.054-.602.082-1.049.082-1.34l.082-6.317v-.136c0-.602-.146-1.176-.438-1.723-.11-.219-.164-.365-.164-.438 0-.127.091-.191.274-.191.328 0 1.03.255 2.105.766l3.883-.164.574-4.813-4.648.383-.875.055c-.347 0-.638-.11-.875-.329-.22-.218-.438-.574-.657-1.066a1.14 1.14 0 0 1-.054-.191Zm12.852 4.593c.62 1.787 1.586 3.747 2.899 5.879 1.13-2.023 1.978-4.083 2.543-6.179l-5.442.3Zm58.817 0c-.146 0-.292-.027-.438-.082a.715.715 0 0 1-.328-.328c-.055-.164-.173-.355-.356-.574a2.074 2.074 0 0 0-.492-.492l.11-.137c.09.055.31.164.656.328.346.164.601.246.766.246a.99.99 0 0 0 .683-.273c.2-.182.456-.529.766-1.039.219-.347.42-.757.601-1.231.183-.474.32-.911.41-1.312l.028-.055c0-.054-.018-.1-.055-.137-.036-.054-.073-.082-.11-.082l-1.257.11c-.838.146-1.713.264-2.625.355a2.902 2.902 0 0 0-.574.137c-.219.073-.374.109-.465.109-.146 0-.337-.118-.574-.355a1.911 1.911 0 0 1-.274-.274c-.073-.109-.09-.2-.054-.273l.218-.219.137-.109c.255-.255.51-.593.766-1.012.182-.255.373-.683.574-1.285 0-.2.045-.301.137-.301.054 0 .145.037.273.11l.438.273c.109.091.182.164.218.219a.386.386 0 0 1 .055.219c0 .109-.073.246-.219.41a4.11 4.11 0 0 0-.383.437l-.629.903-.054.109c0 .055.073.082.219.082l2.105-.273 1.422-.11.547-.055.3-.054h.083c.182 0 .382.155.601.465.255.237.383.437.383.601l-.137.356c-.018.036-.164.464-.437 1.285-.328.784-.61 1.376-.848 1.777-.237.401-.492.711-.766.93-.492.401-.966.601-1.421.601Zm-2.98 4.594c-.201 0-.448-.155-.74-.465-.218-.218-.327-.382-.327-.492 0-.055.036-.082.11-.082.072-.018.163-.027.273-.027l.601-.028c.346 0 .574-.009.684-.027.346 0 .638-.009.875-.027 1.567-.146 2.625-.265 3.172-.356.273-.036.52-.073.738-.109a2.26 2.26 0 0 1 .52-.082c.255 0 .51.127.765.383.2.2.3.364.3.492 0 .109-.063.182-.19.219-.092.018-.63.054-1.614.109-.547.018-1.221.064-2.023.137-.802.073-1.504.146-2.106.218l-.465.082c-.2.037-.392.055-.574.055Zm4.073 6.098c-.182.237-.373.355-.574.355-.054 0-.082-.045-.082-.136a1.1 1.1 0 0 1 .11-.438l.546-1.094c.019-.073.046-.146.082-.218a1.48 1.48 0 0 0 .082-.192v-.027c0-.037-.027-.073-.082-.11a.233.233 0 0 0-.191-.027c-.292.018-.73.064-1.313.137-.565.073-.984.146-1.257.219l-.41.136a1.062 1.062 0 0 1-.356.082c-.328 0-.602-.1-.82-.3a1.705 1.705 0 0 1-.41-.383l-.055-.137c0-.091.155-.118.465-.082.419.036 1.285-.018 2.597-.164l.547-.082c.146-.018.374-.046.684-.082a6.79 6.79 0 0 0 .766-.164l.164-.055a.448.448 0 0 1 .191-.055c.091 0 .2.046.328.137.146.091.264.173.356.246.127.091.21.173.246.246.054.055.073.128.054.219 0 .091-.045.173-.136.246a2.743 2.743 0 0 0-.192.164 4.25 4.25 0 0 1-.383.41 4.46 4.46 0 0 1-.492.602c-.218.255-.373.437-.465.547Zm-1.367 5.387c0-.055.091-.201.274-.438.2-.219.355-.392.465-.52.273-.364.601-.893.984-1.585.4-.693.629-1.149.683-1.368.037-.109-.018-.164-.164-.164-.291 0-1.093.082-2.406.246-.857.11-1.495.219-1.914.329a.534.534 0 0 1-.273.082c-.146 0-.301-.101-.465-.301a.726.726 0 0 1-.11-.356c0-.073.046-.146.137-.218l.082-.11c.055-.109.119-.255.192-.437.072-.183.136-.356.191-.52.091-.292.155-.611.191-.957.019-.2.128-.255.329-.164.255.128.446.255.574.383.146.109.191.191.136.246a2.735 2.735 0 0 0-.437.738 7.415 7.415 0 0 0-.164.574c0 .073.045.11.137.11.273 0 .683-.046 1.23-.137l1.148-.137c.456-.054.82-.109 1.094-.164l.684-.136a.686.686 0 0 1 .219-.028c.09 0 .182.037.273.11.091.054.191.127.3.218.183.164.302.301.356.411.055.091.082.2.082.328 0 .073-.054.164-.164.273-.09.11-.2.283-.328.52-.529 1.075-1.212 1.978-2.05 2.707a3.806 3.806 0 0 1-.794.465 1.315 1.315 0 0 1-.355.054c-.091.018-.137 0-.137-.054Zm-10.664-6.29-.027 4.375c0 .42-.137.629-.41.629-.146 0-.374-.082-.684-.246-.31-.146-.465-.355-.465-.629l.027-.164c.092-.474.137-1.103.137-1.886l.028-2.024-1.641.055.027 4.375c0 .2-.045.364-.136.492a.354.354 0 0 1-.328.191c-.128 0-.292-.054-.493-.164-.237-.127-.4-.246-.492-.355a.579.579 0 0 1-.137-.383c0-.091.01-.164.028-.219.054-.382.082-1.002.082-1.859v-2.023l-1.805.082v5.332c0 .364-.146.546-.437.546a2.082 2.082 0 0 1-.903-.355.786.786 0 0 1-.355-.684l.027-.191a8.24 8.24 0 0 0 .137-1.504l.082-7.191c0-.657-.037-1.094-.11-1.313l-.054-.164-.028.274c-.182 1.932-.537 3.709-1.066 5.332-.529 1.604-1.075 2.889-1.64 3.855-.547.966-.93 1.449-1.149 1.449-.11 0-.164-.091-.164-.273 0-.219.073-.501.219-.848.383-.857.72-1.832 1.011-2.926-.054.055-.182.128-.382.219a1.39 1.39 0 0 1-.63.137c-.31 0-.482-.192-.519-.574a18.116 18.116 0 0 0-.574-2.899l-.055-.328c0-.219.11-.374.328-.465.237-.091.438-.136.602-.136.219 0 .374.127.465.382.583 1.769.875 2.853.875 3.254a39.074 39.074 0 0 0 1.066-6.371c.182-2.187.274-4.156.274-5.906 0-1.294-.028-2.16-.082-2.598a4.067 4.067 0 0 0-.301-1.148c-.11-.292-.164-.465-.164-.52 0-.146.09-.218.273-.218.365 0 .994.209 1.887.628 2.935-.565 5.441-1.239 7.52-2.023.346-.146.62-.365.82-.656.09-.128.2-.192.328-.192.255 0 .501.201.738.602.255.383.383.72.383 1.012 0 .255-.128.419-.383.492-2.953.857-6.08 1.531-9.379 2.023v1.313l9.38-.547h.245c.237 0 .483.109.739.328.273.201.41.401.41.602a.677.677 0 0 1-.082.3 1.567 1.567 0 0 0-.082.274l-.356 2.078c.401.492.602.848.602 1.066 0 .128-.064.21-.192.246a2.32 2.32 0 0 1-.52.082l-10.253.52a29.263 29.263 0 0 1-.11 1.531l.137-.027c.183 0 .684.118 1.504.355l8.504-.437h.246c.383 0 .675.118.875.355.219.237.328.438.328.602 0 .091-.027.21-.082.355a1.504 1.504 0 0 0-.055.301l-.081 8.641.027.711c0 .492-.119.847-.356 1.066-.237.237-.483.356-.738.356-.2 0-.483-.174-.848-.52a6.482 6.482 0 0 1-.984-1.121c-.273-.419-.41-.72-.41-.902 0-.092.045-.137.137-.137.145 0 .346.091.601.273.365.237.73.41 1.094.52l.027-4.567-2.078.082Zm-19.879 4.348c0-.146.055-.383.164-.711.42-1.203.812-2.743 1.176-4.621.036-.255.091-.428.164-.519.073-.092.182-.137.328-.137.164 0 .365.055.602.164.237.091.355.228.355.41 0 .328-.11 1.103-.328 2.324a23.598 23.598 0 0 1-.793 3.336c-.11.401-.264.602-.465.602-.2 0-.455-.091-.765-.274-.292-.182-.438-.373-.438-.574Zm.219-8.422c0-.091.073-.191.219-.301.146-.127.237-.2.273-.218.219-.146.374-.265.465-.356.255-.2.747-.729 1.477-1.586a74.98 74.98 0 0 0 2.214-2.734c-.437.036-.765.073-.984.109-1.513.164-2.497.246-2.953.246-.182 0-.346-.127-.492-.382-.146-.256-.219-.493-.219-.711 0-.073.027-.137.082-.192.073-.054.137-.1.191-.136.073-.055.128-.092.164-.11a3.1 3.1 0 0 0 .766-.683c.219-.219.602-.748 1.148-1.586a31.77 31.77 0 0 0 1.532-2.571c.456-.875.683-1.531.683-1.968 0-.201.1-.301.301-.301.091 0 .246.054.465.164.219.109.42.246.602.41.182.164.273.319.273.465 0 .31-.128.674-.383 1.094-.237.474-.71 1.248-1.422 2.324a34.735 34.735 0 0 1-1.941 2.707c.602-.055 1.704-.182 3.309-.383 1.093-1.549 1.64-2.497 1.64-2.844.037-.273.119-.41.246-.41.2 0 .456.128.766.383.328.255.492.501.492.738 0 .091-.055.219-.164.383a5.997 5.997 0 0 1-.246.41c-.401.693-1.294 1.932-2.68 3.719-1.367 1.768-2.415 3.008-3.144 3.719.328-.055 1.258-.274 2.789-.657l1.367-.328c-.31-.711-.474-1.075-.492-1.093-.11-.165-.164-.301-.164-.411 0-.182.09-.319.273-.41.182-.109.365-.164.547-.164.292 0 .501.1.629.301.292.401.647 1.066 1.066 1.996.42.912.63 1.458.63 1.641 0 .237-.138.428-.411.574-.255.128-.483.191-.684.191-.2 0-.346-.136-.437-.41l-.383-.957c-3.682 1.003-5.806 1.504-6.371 1.504-.273-.018-.52-.164-.738-.437-.2-.274-.301-.52-.301-.739Zm3.746 2.543c0-.2.11-.337.328-.41.219-.073.41-.109.574-.109.146 0 .256.054.328.164.092.091.174.246.247.465l.218 1.039c.456 2.005.684 3.208.684 3.609 0 .31-.146.529-.438.656-.273.11-.51.164-.71.164-.292 0-.465-.273-.52-.82-.182-1.805-.392-3.181-.629-4.129l-.055-.328a1.844 1.844 0 0 1-.027-.301Zm16.926-7.82.219-2.024-8.887.493c0 .893-.01 1.558-.027 1.996l8.695-.465Zm-5.496 8.148v-3.062l-1.805.082v3.062l1.805-.082Zm1.422-.054 1.668-.082.027-3.063-1.723.082.028 3.063Zm5.14-.246.028-3.036-2.078.082-.028 3.063 2.078-.109Zm33.66-8.75c0 .382-.118.692-.355.929-.237.219-.593.328-1.066.328-.365 0-.702-.182-1.012-.546-.292-.365-.438-.73-.438-1.094 0-.42.128-.739.383-.957.274-.237.629-.356 1.067-.356.346 0 .665.192.957.574.309.365.464.739.464 1.122Zm-2.871 9.761c0-.419.128-.738.383-.957.274-.237.629-.355 1.067-.355.346 0 .665.191.957.574.309.365.464.738.464 1.121s-.118.693-.355.93c-.237.219-.593.328-1.066.328-.365 0-.702-.182-1.012-.547-.292-.365-.438-.729-.438-1.094Zm61.004-9.351a.6.6 0 0 1-.383-.11l-.136-.136a47.5 47.5 0 0 0-.657-1.203c-.346-.657-.601-1.103-.765-1.34-.347-.511-.52-.839-.52-.985 0-.2.119-.492.356-.875.364-.51.61-.92.738-1.23.237-.438.41-.775.52-1.012.109-.255.155-.456.136-.601a1.567 1.567 0 0 1-.027-.301c0-.073.018-.11.055-.11.036-.018.109-.009.218.028.183.054.392.182.629.383.055.054.119.127.192.218a.667.667 0 0 1 .136.246.23.23 0 0 1 .028.192c0 .054-.028.109-.082.164l-.137.109c-.128.164-.273.365-.438.602-.164.237-.319.456-.464.656l-.684.984c-.182.256-.273.438-.273.547 0 .055.082.201.246.438l.574.629c.547.601.802.884.766.847.346.347.519.684.519 1.012 0 .565-.182.848-.547.848Zm3.61-.082a.928.928 0 0 1-.411-.082 1.803 1.803 0 0 1-.437-.711l-.574-1.012-.547-.957c-.347-.474-.52-.793-.52-.957 0-.219.119-.501.356-.848l.437-.629c.183-.31.283-.492.301-.547.182-.364.337-.683.465-.957.146-.291.21-.51.191-.656a1.163 1.163 0 0 1-.027-.273c0-.146.082-.183.246-.11a3.4 3.4 0 0 1 .766.438c.127.128.209.237.246.328a.496.496 0 0 1 .082.301c0 .036-.064.109-.192.219a1.759 1.759 0 0 0-.328.3c-.109.11-.355.456-.738 1.039-.073.11-.164.237-.273.383-.092.128-.21.301-.356.52-.182.237-.273.41-.273.519 0 .11.109.274.328.492.073.073.146.165.219.274l.328.328.711.793c.346.31.519.611.519.902 0 .602-.173.903-.519.903Zm.355 7.465c-.273 0-.538-.201-.793-.602a8.658 8.658 0 0 0-.957-1.258l-.711-.738c-.383.437-.72.784-1.012 1.039a5.421 5.421 0 0 1-1.039.738c-.784.456-1.44.684-1.968.684-.128 0-.192-.046-.192-.137 0-.055.173-.173.52-.355.346-.183.674-.401.984-.657.784-.656 1.431-1.33 1.942-2.023-.11-.109-.657-.583-1.641-1.422a9.016 9.016 0 0 1-.574-.465 6.371 6.371 0 0 1-.328-.246c-.165-.127-.247-.219-.247-.273 0-.091.046-.137.137-.137.274 0 .711.191 1.313.574.601.365 1.23.802 1.886 1.313.256-.31.456-.602.602-.875.146-.274.31-.611.492-1.012.091-.201.146-.374.164-.52.018-.164.028-.264.028-.3 0-.201.054-.301.164-.301.127 0 .3.1.519.301.383.364.574.61.574.738 0 .073-.045.155-.136.246-.219.219-.42.51-.602.875-.109.219-.31.529-.601.93a2.22 2.22 0 0 0-.219.301 3.18 3.18 0 0 1-.164.246c.419.309 1.039.838 1.859 1.586.201.182.328.355.383.519.073.146.109.346.109.602a.776.776 0 0 1-.136.464.442.442 0 0 1-.356.165Zm-2.68 8.421c-.893 0-1.613-.227-2.16-.683-.583-.511-.875-1.103-.875-1.778 0-.583.21-1.057.629-1.421.182-.164.429-.301.738-.411.31-.127.602-.191.875-.191.183 0 .283-.009.301-.027.037-.037.064-.128.082-.274.018-.127.028-.392.028-.793a1.747 1.747 0 0 1-.028-.383c-1.13.11-1.969.219-2.515.329-.128.018-.283-.01-.465-.082a1.484 1.484 0 0 1-.41-.329c-.11-.127-.146-.218-.11-.273a.491.491 0 0 1 .219-.137c.073-.036.191-.054.355-.054.566 0 .976-.019 1.231-.055l3.828-.383c.055 0 .182-.009.383-.027.219-.018.419-.055.601-.11h.082c.073 0 .137.028.192.082a.46.46 0 0 0 .137.055c.273.219.41.41.41.574 0 .128-.11.192-.328.192l-.329-.028c-.091-.018-.546 0-1.367.055l-.82.055a6.17 6.17 0 0 1 0 .82c-.018.31-.036.574-.055.793l.028.301a.474.474 0 0 1-.11.301c-.109.182-.291.273-.547.273-.145 0-.273-.009-.382-.027l-.274-.055c-.292-.018-.601.1-.93.355-.273.274-.41.566-.41.875 0 .42.173.775.52 1.067.2.164.41.273.629.328.237.073.519.109.847.109.438 0 .848-.073 1.231-.218.383-.146.665-.365.847-.657.073-.127.137-.2.192-.218.055-.037.155-.055.301-.055a.48.48 0 0 1 .355.137c.11.109.164.218.164.328 0 .328-.301.683-.902 1.066-.602.383-1.331.574-2.188.574Zm8.258-12.304c.219 0 .328.1.328.301 0 .109-.1.264-.3.464-.547.675-1.632 1.96-3.254 3.856-.128.164-.246.246-.356.246-.091 0-.292-.137-.601-.41-.256-.219-.383-.401-.383-.547 0-.164.136-.319.41-.465.419-.237 1.048-.711 1.887-1.422.838-.747 1.458-1.34 1.859-1.777.164-.164.301-.246.41-.246Zm-35.465 12.496c0 .474-.136.711-.41.711-.291 0-.62-.119-.984-.356-.347-.218-.52-.528-.52-.929 0-.128.009-.228.028-.301a8.586 8.586 0 0 0 .164-1.778l-.028-18.101a3.21 3.21 0 0 0-.355-1.504c-.11-.255-.164-.41-.164-.465 0-.127.1-.191.301-.191.309 0 .984.182 2.023.547l17.063-1.012h.3c.31 0 .611.1.903.301.31.2.464.437.464.711a.817.817 0 0 1-.082.3.648.648 0 0 0-.082.246l-.082 18.758c.584.657.875 1.094.875 1.313 0 .109-.063.173-.191.191a1.295 1.295 0 0 1-.41.055 2.937 2.937 0 0 1-.328.027l-18.485.41v1.067Zm0-2.516 16.844-.465.055-18.894-16.953.93.054 18.429Zm.766-4.32c0-.128.064-.192.191-.192h.11c.255.055.492.083.711.083.383 0 1.203-.183 2.461-.547a38.218 38.218 0 0 0 3.445-1.149c.273-.091.465-.137.574-.137.201 0 .301.055.301.165 0 .218-.465.592-1.395 1.121a31.437 31.437 0 0 1-3.035 1.504c-1.094.455-1.777.683-2.051.683-.2 0-.401-.1-.601-.301a3.883 3.883 0 0 1-.52-.711c-.127-.255-.191-.428-.191-.519Zm0-9.789c0-.073.046-.11.137-.11l.218.055c.31.091.638.137.985.137h.219l5.632-.301a47.655 47.655 0 0 1-.41-2.351c-.036-.402-.219-.775-.547-1.122-.109-.109-.164-.191-.164-.246 0-.127.155-.191.465-.191.966 0 1.513.237 1.641.711l.027.164c.037.328.073.574.109.738.037.255.083.611.137 1.067.073.455.137.838.192 1.148l3.582-.246c.182 0 .364-.009.546-.027.183-.037.365-.101.547-.192a.453.453 0 0 1 .246-.054c.201 0 .456.154.766.464.328.292.492.511.492.657 0 .182-.2.291-.601.328l-5.305.355c.474 2.279.994 4.065 1.559 5.36.364-.657.701-1.34 1.011-2.051.328-.711.493-1.203.493-1.477a.958.958 0 0 0-.028-.273v-.164c0-.183.064-.274.192-.274.182 0 .464.164.847.492.383.31.574.566.574.766 0 .091-.1.374-.3.848a15.392 15.392 0 0 1-.821 1.668 21.597 21.597 0 0 1-1.257 1.941c.783 1.55 1.576 2.58 2.378 3.09a.43.43 0 0 0 .165.055c.109 0 .164-.037.164-.11.328-1.093.556-2.105.683-3.035.037-.31.1-.547.192-.711.091-.182.182-.273.273-.273.109 0 .191.091.246.273.073.182.119.447.137.793v.547c0 1.786-.128 2.971-.383 3.555-.237.583-.547.875-.93.875-.674 0-1.34-.356-1.996-1.067-.638-.729-1.285-1.64-1.941-2.734-.656.766-1.477 1.559-2.461 2.379-.984.802-1.632 1.203-1.942 1.203-.127 0-.191-.055-.191-.164 0-.182.201-.465.602-.848 1.33-1.221 2.451-2.488 3.363-3.801-.893-1.987-1.595-4.247-2.106-6.781l-5.386.301-.547.027c-.383 0-.647-.063-.793-.191a3.938 3.938 0 0 1-.492-.602c-.146-.237-.219-.437-.219-.601Zm.766 2.68c0-.11.109-.165.328-.165.237 0 .738.11 1.504.329l3.117-.219.164-.028c.219 0 .456.092.711.274.255.182.383.346.383.492a.882.882 0 0 1-.055.246 1.478 1.478 0 0 0-.082.274l-.301 2.023c.365.383.547.665.547.848 0 .164-.21.264-.629.3l-3.582.219.027.274v.082c0 .273-.118.41-.355.41s-.492-.073-.766-.219c-.273-.164-.41-.337-.41-.519 0-.073.009-.128.028-.164a3.24 3.24 0 0 0 .027-.52v-.246l-.164-2.188c-.055-.51-.192-.938-.41-1.285a.464.464 0 0 1-.082-.218Zm2.023 3.417 2.406-.136.219-2.106-2.789.164.164 2.078Zm6.125-9.242c0-.127.046-.291.137-.492.091-.2.237-.301.437-.301.201 0 .702.183 1.504.547.802.347 1.376.611 1.723.793.219.11.328.264.328.465 0 .146-.055.337-.164.574-.11.237-.264.356-.465.356-.109 0-.237-.046-.383-.137-.784-.51-1.704-.975-2.762-1.395-.236-.091-.355-.227-.355-.41Zm59.309 7.11c-.146 0-.292-.028-.438-.082a.716.716 0 0 1-.328-.329c-.055-.164-.173-.355-.355-.574a2.115 2.115 0 0 0-.493-.492l.11-.137c.091.055.31.164.656.329.346.164.602.246.766.246a.988.988 0 0 0 .683-.274c.201-.182.456-.528.766-1.039.219-.346.419-.756.601-1.23.183-.474.319-.912.411-1.313l.027-.055c0-.054-.018-.1-.055-.136-.036-.055-.073-.082-.109-.082l-1.258.109a37.02 37.02 0 0 1-2.625.356 2.828 2.828 0 0 0-.574.136c-.219.073-.374.11-.465.11-.146 0-.337-.119-.574-.356a1.955 1.955 0 0 1-.274-.273c-.073-.11-.091-.201-.054-.274l.218-.218.137-.11c.255-.255.51-.592.766-1.012.182-.255.373-.683.574-1.285 0-.2.045-.3.137-.3.054 0 .145.036.273.109l.438.273c.109.091.182.164.218.219a.386.386 0 0 1 .055.219c0 .109-.073.246-.219.41a4.262 4.262 0 0 0-.383.437l-.628.903-.055.109c0 .055.073.082.219.082l2.105-.273 1.422-.11.547-.054.301-.055h.082c.182 0 .382.155.601.465.255.237.383.437.383.601l-.137.356c-.018.036-.164.465-.437 1.285-.328.784-.611 1.376-.848 1.777s-.492.711-.765.93c-.493.401-.967.602-1.422.602Zm2.242 9.324a.486.486 0 0 1-.246-.082c-.091-.073-.21-.173-.356-.301-.638-.492-1.258-1.23-1.859-2.215a10.412 10.412 0 0 1-1.285-3.199 5.729 5.729 0 0 0-.082-.383 1.685 1.685 0 0 0-.11-.328c0-.018-.027-.027-.082-.027-.127 0-.373.082-.738.246a1.277 1.277 0 0 0-.328.246c-.091.091-.192.128-.301.109-.073 0-.173-.045-.301-.136a1.303 1.303 0 0 1-.273-.247c-.182-.255-.274-.41-.274-.464 0-.11.101-.174.301-.192.274 0 .447-.009.52-.027a7.901 7.901 0 0 0 1.504-.356.996.996 0 0 0 .3-.164.206.206 0 0 0 .082-.027c.055-.018.119 0 .192.055.273.182.41.319.41.41 0 1.276.365 2.47 1.094 3.582.729 1.112 1.795 2.051 3.199 2.816.073.037.164.073.273.11.11.036.164.091.164.164 0 .091-.3.173-.902.246l-.683.109-.219.055Zm6.344-10.363c.054 0 .109.027.164.082a.265.265 0 0 1 .109.164v.054c0 .128-.1.374-.301.739l-1.969 3.418c-.145.31-.337.464-.574.464-.237 0-.437-.145-.601-.437a9.233 9.233 0 0 1-.602-1.066 3.365 3.365 0 0 1-.273-.493 10.748 10.748 0 0 0-.164-.355c-.201-.346-.301-.593-.301-.738 0-.073.027-.128.082-.164.055-.055.109-.082.164-.082.2 0 .383.109.547.328.127.127.228.264.301.41l.3.41.547.629.246-.383c.256-.437.857-1.303 1.805-2.598.201-.255.374-.382.52-.382Zm-25.758-7.684c0-.419-.164-.893-.492-1.422a.486.486 0 0 1-.082-.246c0-.146.127-.219.382-.219.11 0 .319.028.629.082.328.055.638.164.93.328.292.146.437.356.437.629l-.054 7.629 4.457-.683c.401-.055.738-.164 1.011-.328.183-.092.31-.137.383-.137.219 0 .493.127.821.383.328.237.501.501.519.793 0 .309-.228.492-.683.546l-6.508 1.04-.055 8.996c0 .419.064.729.191.929.128.201.411.347.848.438.438.073 1.158.109 2.16.109 1.112 0 2.106-.073 2.981-.219.346-.054.61-.182.793-.382.182-.219.355-.638.519-1.258.183-.638.383-1.641.602-3.008.073-.401.155-.711.246-.93.091-.237.182-.355.273-.355.128 0 .219.209.274.629.073.401.109 1.185.109 2.351 0 1.586-.091 2.68-.273 3.282-.164.601-.629 1.02-1.395 1.257-.765.237-2.114.356-4.047.356-1.349 0-2.36-.064-3.035-.192-.674-.127-1.185-.41-1.531-.847-.328-.419-.492-1.094-.492-2.024l.082-17.527Zm-13.235 19.277c0-.127.092-.191.274-.191 1.148-.037 3.637-.693 7.465-1.969l.027-8.258-4.102.329-.765.054c-.802 0-1.322-.465-1.559-1.394a.31.31 0 0 1-.027-.137c0-.091.055-.137.164-.137l.137.028c.401.036.701.054.902.054.31 0 .547-.009.711-.027l4.539-.301v-6.644c0-.438-.155-.903-.465-1.395a.436.436 0 0 1-.109-.273c0-.128.1-.192.301-.192.328 0 .747.1 1.257.301.529.201.793.447.793.738l-.054 16.625c.31-.109 1.039-.373 2.187-.793.274-.091.474-.136.602-.136.255 0 .383.091.383.273 0 .237-.228.474-.684.711a76.7 76.7 0 0 1-4.648 2.269c-1.495.675-2.762 1.195-3.801 1.559-1.021.383-1.641.574-1.86.574-.237 0-.483-.109-.738-.328a3.61 3.61 0 0 1-.656-.738c-.182-.274-.274-.474-.274-.602Zm72.352-14.082c-.109 0-.255-.118-.438-.355-.182-.255-.264-.474-.246-.656.037-.146.064-.556.082-1.231a68.03 68.03 0 0 0 .028-2.406c0-.802-.009-1.34-.028-1.613l-.902.082c-.638.091-1.185.136-1.641.136-.127 0-.309-.1-.546-.3-.237-.201-.356-.347-.356-.438 0-.146.155-.2.465-.164.2.018.793.009 1.777-.027a88.717 88.717 0 0 1 2.926-.164c.31-.019.592-.046.848-.082.273-.055.465-.092.574-.11.164-.018.31 0 .437.055.128.055.247.127.356.219.127.073.228.127.301.164.164.109.246.209.246.3 0 .073-.046.146-.137.219a.398.398 0 0 1-.246.082c-.091 0-.219-.009-.383-.027a4.05 4.05 0 0 0-.492-.027c-.675 0-1.367.018-2.078.054-.018.146-.028.511-.028 1.094a79.322 79.322 0 0 0-.054 2.898v1.313c0 .31-.028.51-.082.601-.164.256-.292.383-.383.383Zm-2.926 4.84c-.2 0-.446-.155-.738-.465-.219-.218-.328-.382-.328-.492 0-.055.036-.082.109-.082.073-.018.164-.027.274-.027l.601-.028c.346 0 .574-.009.684-.027.346 0 .638-.009.875-.027 1.567-.146 2.625-.265 3.172-.356.273-.036.519-.073.738-.109.219-.055.392-.082.519-.082.256 0 .511.127.766.383.201.2.301.364.301.492 0 .109-.064.182-.192.219-.091.018-.628.054-1.613.109a36.08 36.08 0 0 0-2.023.137 75.87 75.87 0 0 0-2.106.218l-.465.082a3.16 3.16 0 0 1-.574.055Zm5.879 9.434c.037.073.1.182.191.328a.953.953 0 0 1 .137.519.52.52 0 0 1-.219.438.723.723 0 0 1-.492.191c-.164 0-.301-.164-.41-.492-.055-.127-.1-.237-.137-.328a2.53 2.53 0 0 0-.054-.191 6.324 6.324 0 0 1-.93.191c-.383.055-.656.1-.82.137-.875.164-1.477.282-1.805.355-.128.037-.264.073-.41.11a1.107 1.107 0 0 0-.246.109.897.897 0 0 1-.246.055.576.576 0 0 1-.411-.192 1.504 1.504 0 0 1-.492-.656c-.018-.018-.027-.046-.027-.082 0-.037.046-.082.137-.137.109-.054.191-.091.246-.109.237-.128.656-.511 1.258-1.149l.738-.711-1.613-.875c-.183-.054-.301-.118-.356-.191-.055-.073-.082-.182-.082-.328 0-.109.018-.182.055-.219.054-.054.164-.137.328-.246.164-.109.328-.255.492-.437.091-.11.21-.228.356-.356.145-.127.282-.264.41-.41.547-.638.893-1.139 1.039-1.504.091-.182.164-.273.219-.273.036 0 .109.036.218.109.347.255.556.492.629.711v.082c0 .091-.045.164-.137.219a1.07 1.07 0 0 0-.191.136c-.055.037-.328.301-.82.793l-.492.493-.465.464c-.219.201-.328.319-.328.356 0 .055.027.1.082.137a.644.644 0 0 1 .164.109l1.148.547c.711-.711 1.121-1.13 1.231-1.258.474-.547.738-.893.793-1.039a.663.663 0 0 0 .082-.137c.036-.073.073-.109.109-.109.055 0 .109.027.164.082.292.273.501.529.629.766a.492.492 0 0 1 .055.136c0 .037-.046.091-.137.164l-.219.164c-.638.529-1.385 1.222-2.242 2.079l-1.668 1.558c-.036.037-.055.073-.055.11 0 .036.019.063.055.082.036.018.091.018.164 0l3.199-.547c-.091-.365-.2-.73-.328-1.094v-.055c0-.054.028-.082.082-.082.073 0 .182.055.328.164.292.255.657.693 1.094 1.313Zm5.688-8.778c.054 0 .109.028.164.082a.27.27 0 0 1 .109.165v.054c0 .128-.1.374-.301.738l-1.969 3.418c-.145.31-.337.465-.574.465-.237 0-.437-.146-.601-.437a9.263 9.263 0 0 1-.602-1.067 3.357 3.357 0 0 1-.273-.492 10.748 10.748 0 0 0-.164-.355c-.201-.347-.301-.593-.301-.739 0-.072.027-.127.082-.164.055-.054.109-.082.164-.082.2 0 .383.11.547.328.127.128.228.265.301.411l.3.41.547.629.246-.383c.256-.438.857-1.304 1.805-2.598.201-.255.374-.383.52-.383Zm-27.618-11.785c0-.437-.118-.802-.355-1.094-.091-.127-.137-.209-.137-.246 0-.109.1-.164.301-.164.146 0 .392.037.738.11.347.073.666.182.957.328.292.146.438.319.438.519l-.082 20.207.027 1.094c0 .602-.164 1.021-.492 1.258-.328.237-.611.355-.848.355-.273 0-.92-.282-1.941-.847a32.224 32.224 0 0 1-2.817-1.778c-.875-.638-1.312-1.075-1.312-1.312 0-.164.118-.246.355-.246.201 0 .438.064.711.191 1.841.784 3.3 1.322 4.375 1.614l.082-19.989Zm-11.593 16.762c0-.164.109-.419.328-.766 1.239-1.823 2.251-3.463 3.035-4.922a20.826 20.826 0 0 0 1.805-4.73c.073-.292.109-.51.109-.656 0-.146-.027-.301-.082-.465a.616.616 0 0 1-.027-.191c0-.165.091-.247.273-.247.273 0 .684.164 1.23.493.62.364.93.701.93 1.011a.48.48 0 0 1-.027.192c-.875 2.06-1.841 3.883-2.899 5.468-1.057 1.568-2.014 2.799-2.871 3.692-.838.875-1.385 1.312-1.64 1.312-.11 0-.164-.063-.164-.191Zm16.843-10.965c0-.182.137-.383.411-.601.273-.237.537-.356.793-.356.2 0 .373.1.519.301a54.365 54.365 0 0 1 2.68 3.801 72.557 72.557 0 0 1 2.406 3.937c.656 1.149.984 1.814.984 1.996 0 .201-.091.383-.273.547a2.483 2.483 0 0 1-.629.41c-.219.11-.383.164-.492.164-.237 0-.429-.136-.574-.41a69.522 69.522 0 0 0-2.762-5.086 40.1 40.1 0 0 0-2.899-4.293c-.109-.146-.164-.282-.164-.41Zm58.543 3.363c-.273 0-.474-.145-.601-.437l-.246-.547c-.711.182-1.285.319-1.723.41l-1.777.438c-.365.091-.593.136-.684.136a.615.615 0 0 1-.273-.054l-.137-.137a1.188 1.188 0 0 1-.082-.137c-.146-.255-.21-.428-.192-.519l.192-.301c.474-.656.911-1.595 1.312-2.816l-.546.082-.711.082c-.055.018-.174.054-.356.109-.164.036-.292.027-.383-.027-.2-.128-.465-.356-.793-.684-.073-.073-.109-.128-.109-.164 0-.109.2-.164.602-.164h.929c.62-.037 1.185-.082 1.696-.137.109-.273.227-.62.355-1.039.128-.419.219-.756.273-1.012v-.328c.019-.164.055-.264.11-.3h.027c.073 0 .173.036.301.109.128.073.246.164.355.273.347.347.447.62.301.821-.073.018-.228.319-.465.902-.018.036-.082.201-.191.492l1.586-.191c.419-.037.738-.082.957-.137.31-.091.556-.137.738-.137.146 0 .265.055.356.164l.191.192c.055.054.119.164.191.328.073.128.101.219.082.273-.072.11-.2.164-.382.164a15.03 15.03 0 0 0-2.16.055 9.215 9.215 0 0 0-.821.11l-1.066.109-.246.738-.301.656a10.08 10.08 0 0 1-.301.657 6.012 6.012 0 0 0-.246.547.383.383 0 0 0-.027.164c0 .091.054.136.164.136.146 0 .647-.082 1.504-.246l1.011-.164.465-.109c-.164-.456-.291-.748-.383-.875a2.998 2.998 0 0 1-.164-.246l.164-.164c.711.455 1.286.92 1.723 1.394.128.164.21.319.246.465.055.146.073.31.055.492a.759.759 0 0 1-.192.383c-.036.091-.145.155-.328.191Zm-2.242 9.899c0-.018.046-.082.137-.192.109-.127.228-.282.355-.464.219-.31.438-.766.657-1.368.218-.601.337-1.157.355-1.668 0-.036-.018-.072-.055-.109-.018-.055-.063-.082-.136-.082l-.629.055-.93.082c-.2.656-.547 1.367-1.039 2.133-.219.346-.52.656-.902.929a3.95 3.95 0 0 1-1.067.547 1.295 1.295 0 0 1-.41.055c-.128-.018-.191-.055-.191-.11 0-.072.063-.136.191-.191.219-.146.465-.374.738-.684.292-.309.547-.628.766-.957a5.66 5.66 0 0 0 .41-.711c.146-.309.264-.592.356-.847a9.79 9.79 0 0 0-1.805.41c-.037.036-.1.055-.191.055-.055 0-.137-.037-.247-.11a3.548 3.548 0 0 1-.3-.328c-.037-.091-.019-.173.054-.246l.11-.219c.073-.109.146-.328.218-.656.073-.328.11-.592.11-.793a.766.766 0 0 0-.028-.191c0-.091.01-.137.028-.137.036-.018.082-.018.137 0 .2.036.382.1.546.191a.792.792 0 0 1 .301.301c.073.091.073.173 0 .246a.868.868 0 0 0-.082.11.346.346 0 0 0-.082.164c-.018.018-.055.218-.109.601 0 .018.009.037.027.055a.119.119 0 0 0 .11 0c.054 0 .136-.009.246-.027.109-.019.191-.037.246-.055.127-.018.273-.046.437-.082a6.53 6.53 0 0 1 .492-.082c.055-.201.092-.419.11-.656.036-.256.064-.429.082-.52l.027-.574v-.192c-.583.019-1.194.073-1.832.164l-.492.083h-.109a.525.525 0 0 1-.274-.083 8.116 8.116 0 0 1-.246-.191c-.237-.219-.355-.383-.355-.492 0-.109.082-.146.246-.109.218.036.446.054.683.054l.793-.027 3.801-.274c.146-.018.283-.036.41-.054.128-.037.255-.064.383-.082h.082c.237 0 .401.045.492.136.11.073.173.119.192.137.291.237.437.419.437.547 0 .109-.155.155-.465.137l-.547-.055c-.474-.018-1.185 0-2.132.055l-.11 1.066a6.426 6.426 0 0 1-.055.438c-.018.109-.036.2-.054.273l-.028.082c.438-.036.948-.091 1.532-.164a.89.89 0 0 1 .191-.055c.091-.036.182-.063.274-.082h.054c.11 0 .219.046.328.137.11.091.174.146.192.164.146.128.246.237.301.328.072.073.082.137.027.192a1.452 1.452 0 0 1-.137.218.619.619 0 0 0-.082.192c-.091.765-.237 1.385-.437 1.859-.164.419-.347.738-.547.957-.183.201-.41.392-.684.574-.109.073-.282.137-.519.192-.237.036-.356.036-.356 0Zm4.457-9.899c.091 0 .228.064.41.192-.018.036.019.109.11.219l.191.191c.091.091.182.2.274.328.109.128.227.264.355.41.328.347 1.085 1.249 2.27 2.707.2.292.3.465.3.52 0 .182-.109.273-.328.273-.127 0-.264-.091-.41-.273-.346-.365-.966-.939-1.859-1.723-.693-.638-1.322-1.13-1.887-1.476-.273-.128-.41-.274-.41-.438 0-.128.137-.31.41-.547.255-.255.447-.383.574-.383Zm-25.074 7.793a55.609 55.609 0 0 1-4.32 2.735c-1.368.765-2.206 1.148-2.516 1.148a.723.723 0 0 1-.328-.082 2.628 2.628 0 0 1-1.149-1.039.426.426 0 0 1-.054-.164c0-.091.045-.155.137-.191.601-.092 1.622-.401 3.062-.93 1.44-.529 3.062-1.212 4.867-2.051a.922.922 0 0 1 .41-.109c.183 0 .274.064.274.191 0 .164-.128.328-.383.492Zm-11.484.055c0-.164.209-.392.628-.684 1.678-1.112 3.118-2.196 4.321-3.253a21.093 21.093 0 0 0 3.308-3.637l-4.621.219-1.039.054c-.383 0-.692-.1-.929-.301a2.182 2.182 0 0 1-.52-.683c-.091-.255-.137-.419-.137-.492 0-.11.055-.164.164-.164l.219.054c.383.073.784.11 1.203.11h.301l6.344-.301c.437-.747.793-1.477 1.066-2.188l-2.488.137-.656.027c-.693 0-1.14-.419-1.34-1.257l-.028-.11c0-.091.046-.136.137-.136.055 0 .1.009.137.027.328.055.684.082 1.066.082h.328l3.364-.191c.182-.493.364-1.14.547-1.942l-5.223.301c-.255.018-.574.027-.957.027-.456 0-.766-.064-.93-.191-.127-.073-.282-.264-.465-.574-.182-.31-.273-.52-.273-.629 0-.11.064-.164.191-.164.073 0 .137.009.192.027.383.073.784.109 1.203.109h.301l6.261-.382.246-1.75v-.137c0-.346-.1-.638-.3-.875-.091-.128-.137-.228-.137-.301 0-.146.128-.219.383-.219s.638.064 1.148.192c.511.127.766.346.766.656v.082l-.328 2.242 5.222-.301a4.854 4.854 0 0 0 1.45-.3.672.672 0 0 1 .3-.055c.201 0 .411.082.629.246.219.164.41.356.574.574.165.201.247.356.247.465 0 .201-.174.319-.52.356l-8.203.492a31.734 31.734 0 0 1-.492 1.969l4.293-.247a8.623 8.623 0 0 0 1.011-.136.69.69 0 0 1 .219-.028c.182 0 .438.137.766.411.328.273.492.519.492.738 0 .164-.173.264-.52.301l-6.753.355c-.31.857-.648 1.595-1.012 2.215l10.691-.492a5.853 5.853 0 0 0 1.449-.274.916.916 0 0 1 .274-.054c.292 0 .647.209 1.066.628.274.274.41.493.41.657 0 .109-.054.2-.164.273a.678.678 0 0 1-.355.082l-6.809.328c2.461 2.48 5.159 4.421 8.094 5.825.146.072.264.145.356.218.109.073.164.146.164.219 0 .182-.201.428-.602.738-.383.292-.665.438-.848.438-.145 0-.711-.319-1.695-.957-.984-.656-2.142-1.531-3.473-2.625a37.577 37.577 0 0 1-3.882-3.774l-5.551.274a19.524 19.524 0 0 1-3.856 4.156c-1.44 1.167-2.77 2.069-3.992 2.707-1.203.62-1.941.93-2.215.93-.145 0-.218-.046-.218-.137Zm6.89-3.062c0-.183.091-.383.274-.602.182-.219.355-.328.519-.328.128 0 .237.036.328.109 1.222.693 2.142 1.276 2.762 1.75.128.073.191.192.191.356 0 .218-.1.474-.3.765-.183.274-.374.41-.575.41a.493.493 0 0 1-.355-.164c-.911-.783-1.75-1.412-2.516-1.886-.218-.146-.328-.283-.328-.41Zm1.75 5.988c0-.091.055-.137.164-.137.164 0 .374.064.629.192 1.003.455 1.951.774 2.844.957l-.055-9.325c0-.601-.118-1.075-.355-1.422a.464.464 0 0 1-.082-.218c0-.091.082-.137.246-.137.328 0 .72.091 1.176.273.455.183.683.456.683.821v9.844l.028.874c0 .474-.146.83-.438 1.067-.273.237-.519.355-.738.355-.255 0-.72-.218-1.395-.656a13.047 13.047 0 0 1-1.859-1.394c-.565-.493-.848-.857-.848-1.094Zm5.524-3.856c0-.182.209-.401.629-.656a8.62 8.62 0 0 0 1.886-1.613c.584-.675.93-1.222 1.039-1.641.055-.182.137-.273.246-.273.11 0 .274.091.493.273.237.164.446.365.629.602.182.237.273.456.273.656a.421.421 0 0 1-.191.356c-2.571 1.622-4.157 2.433-4.758 2.433-.164 0-.246-.045-.246-.137Zm1.121.93c0-.164.073-.328.219-.492a.752.752 0 0 1 .574-.274c.218 0 .984.374 2.297 1.122a56.2 56.2 0 0 1 3.554 2.105c.255.182.401.383.438.602 0 .127-.082.319-.246.574-.146.273-.338.419-.575.437h-.054c-.11 0-.292-.091-.547-.273-1.149-.802-2.689-1.768-4.621-2.899l-.684-.41a.575.575 0 0 1-.273-.191.572.572 0 0 1-.082-.301Zm55.316-10.527c-.2 0-.446-.155-.738-.465-.219-.219-.328-.383-.328-.492 0-.055.036-.082.109-.082a1.11 1.11 0 0 1 .274-.028l.601-.027c.346 0 .574-.009.684-.027.346 0 .638-.009.875-.028 1.567-.146 2.625-.264 3.172-.355.273-.037.519-.073.738-.11.219-.054.392-.082.519-.082.256 0 .511.128.766.383.201.201.301.365.301.492 0 .11-.064.183-.192.219-.091.018-.628.055-1.613.11-.547.018-1.221.063-2.023.136-.802.073-1.504.146-2.106.219-.109.018-.264.046-.465.082-.2.036-.392.055-.574.055Zm6.207 11.976c.255.164.383.319.383.465 0 .201-.155.328-.465.383-.31.055-.747.091-1.312.109-.821.019-1.349-.009-1.586-.082-.401-.182-.602-.483-.602-.902l.028-1.012c.036-.328.054-.62.054-.875.018-.164.028-.483.028-.957a9.186 9.186 0 0 1-1.067 1.805c-.31.383-.583.702-.82.957-.237.237-.52.465-.848.684-.328.218-.629.328-.902.328-.164 0-.246-.055-.246-.164 0-.019.173-.155.519-.411.365-.273.729-.647 1.094-1.121.547-.729 1.021-1.586 1.422-2.57-.711.091-1.185.173-1.422.246a.988.988 0 0 0-.246.082.695.695 0 0 1-.274 0 2.255 2.255 0 0 1-.382-.219 2.48 2.48 0 0 1-.383-.355c-.073-.109-.11-.182-.11-.219 0-.091.137-.137.411-.137.674 0 1.54-.072 2.597-.218.11-.42.164-1.094.164-2.024v-.519c0-.219.046-.338.137-.356.018-.018.055-.027.109-.027.146 0 .347.109.602.328.201.164.328.292.383.383.073.073.082.173.027.301l-.109.218c-.055.11-.091.219-.11.328l-.109.547a5.716 5.716 0 0 0-.109.684c.255-.018.574-.055.957-.109.383-.055.665-.11.847-.164l.547-.137c.183-.037.483.118.903.465.072.054.109.118.109.191 0 .073-.037.137-.109.191a.386.386 0 0 1-.219.055c-.328 0-.93.055-1.805.164l-.902.082c.2.146.328.274.383.383a.42.42 0 0 1 .027.328l-.082.438c-.037.364-.073.765-.109 1.203a8.794 8.794 0 0 0 0 1.012c0 .091.054.173.164.246a.761.761 0 0 0 .382.109c.456 0 .967-.046 1.532-.137l.246-.054c.109 0 .2.018.273.054Zm5.25-11.484c.219 0 .328.1.328.301 0 .109-.1.264-.3.465-.547.674-1.632 1.959-3.254 3.855-.128.164-.246.246-.356.246-.091 0-.292-.137-.601-.41-.256-.219-.383-.401-.383-.547 0-.164.136-.319.41-.465.419-.237 1.048-.711 1.887-1.422.838-.747 1.458-1.34 1.859-1.777.164-.164.301-.246.41-.246Zm-19.168 13.918c.055 0 .091-.009.11-.027.036 0 .054-.028.054-.082.711-1.805 1.112-4.293 1.203-7.465l-1.367.054c-1.239 2.151-2.579 3.883-4.019 5.196-1.422 1.294-2.68 2.215-3.774 2.761-1.075.547-1.768.821-2.078.821-.182 0-.273-.055-.273-.164 0-.183.273-.456.82-.821a23.671 23.671 0 0 0 7.219-7.683l-2.106.082c-1.093 1.312-2.169 2.397-3.226 3.254-1.058.838-1.969 1.449-2.735 1.832-.747.383-1.239.574-1.476.574-.146 0-.219-.055-.219-.164 0-.091.064-.21.191-.356.146-.164.338-.328.575-.492 1.731-1.221 3.299-2.734 4.703-4.539l-2.762.137a21.469 21.469 0 0 1-2.324 1.695c-.784.492-1.331.738-1.641.738-.127 0-.191-.045-.191-.136 0-.201.191-.447.574-.739 1.568-1.221 3.117-2.843 4.648-4.867l-1.668.11h-.492c-.474 0-.765-.064-.875-.192-.328-.328-.556-.665-.683-1.012l-.055-.218c0-.11.055-.164.164-.164.091 0 .173.009.246.027.328.055.684.082 1.067.082h.328l11.976-.684c.456-.036.802-.091 1.039-.164.146-.036.246-.054.301-.054.219 0 .447.073.684.218a2.7 2.7 0 0 1 .601.493c.183.182.274.328.274.437 0 .237-.219.374-.657.41l-9.898.575a46.893 46.893 0 0 1-1.777 1.941l9.406-.465h.164c.401 0 .702.091.902.274.201.182.301.373.301.574 0 .091-.027.2-.082.328a1.187 1.187 0 0 0-.055.273 44.588 44.588 0 0 1-.82 6.754c-.182.966-.465 1.677-.848 2.133-.364.456-.729.684-1.093.684-.347 0-.857-.201-1.532-.602a12.465 12.465 0 0 1-1.859-1.285c-.565-.474-.848-.802-.848-.984 0-.092.073-.137.219-.137.219 0 .529.082.93.246.984.383 1.859.647 2.625.793h.109Zm-18.922.93c0-.128.009-.228.028-.301.109-.565.164-1.267.164-2.106l.218-16.488v-.465c0-.747-.072-1.312-.218-1.695-.128-.292-.192-.492-.192-.602 0-.127.073-.191.219-.191.237 0 .912.219 2.024.656l3.609-.328.355-.027c.146 0 .365.091.657.273.31.182.464.383.464.602 0 .109-.054.228-.164.355-.091.11-.155.201-.191.274a36.519 36.519 0 0 1-2.27 3.937.426.426 0 0 0-.054.164c0 .11.027.192.082.246.784.875 1.321 1.696 1.613 2.461.31.766.465 1.613.465 2.543 0 .638-.137 1.194-.41 1.668-.255.474-.574.711-.957.711-.274 0-.675-.21-1.203-.629a11.34 11.34 0 0 1-1.422-1.394c-.42-.529-.629-.894-.629-1.094 0-.109.055-.164.164-.164.146 0 .383.109.711.328.383.273.775.519 1.176.738.401.201.665.301.793.301.054 0 .091-.109.109-.328.036-.219.055-.392.055-.52 0-.638-.128-1.276-.383-1.914-.237-.638-.684-1.33-1.34-2.078-.219-.273-.328-.538-.328-.793 0-.219.082-.474.246-.765.766-1.313 1.358-2.443 1.777-3.391l-3.09.273-.273 20.071c0 .51-.155.765-.465.765-.073 0-.219-.045-.437-.136a1.981 1.981 0 0 1-.629-.356.776.776 0 0 1-.274-.601Zm8.942-22.204c0-.091.082-.136.246-.136.255 0 .884.136 1.887.41l7.464-.438h.247c.309 0 .592.092.847.274.274.182.41.374.41.574a.68.68 0 0 1-.082.301c-.036.109-.064.2-.082.273l-.547 5.004c.456.438.684.757.684.957 0 .11-.064.182-.191.219-.11.036-.283.064-.52.082l-7.82.355.027.219v.082c0 .347-.155.52-.465.52-.255 0-.547-.101-.875-.301-.328-.219-.492-.428-.492-.629v-.137c.055-.364.082-.711.082-1.039l-.027-.492-.301-4.375c-.037-.492-.128-.902-.274-1.23-.145-.237-.218-.401-.218-.493Zm2.242 3.336 6.781-.382.164-1.778-7.054.383.109 1.777Zm.219 3.227 6.289-.328.164-1.996-6.59.355.137 1.969Z"/></svg>