<svg width="350" height="88" viewBox="0 0 350 88" fill="none" xmlns="http://www.w3.org/2000/svg">
<path d="M131.934 8.19922C131.77 8.19922 131.852 8.05859 132.18 7.77734C132.508 7.49609 132.906 7.15625 133.375 6.75781C133.844 6.33594 134.371 5.78516 134.957 5.10547C135.332 4.66016 135.613 4.19141 135.801 3.69922C135.918 3.41797 136.047 3.27734 136.188 3.27734C136.305 3.27734 136.48 3.37109 136.715 3.55859C137.184 3.93359 137.418 4.25 137.418 4.50781C137.418 4.67187 137.324 4.78906 137.137 4.85938C137.043 4.88281 136.902 4.98828 136.715 5.17578C136.527 5.33984 136.387 5.46875 136.293 5.5625C135.285 6.54688 134.348 7.26172 133.48 7.70703C132.777 8.03516 132.309 8.19922 132.074 8.19922H131.934ZM135.625 14.7383C135.555 14.7383 135.438 14.6445 135.273 14.457C135.133 14.2461 135.027 14.0469 134.957 13.8594C134.934 13.7188 134.934 13.543 134.957 13.332C135.004 13.0977 135.027 12.9219 135.027 12.8047C135.074 12.3359 135.098 11.9609 135.098 11.6797C135.121 11.4219 135.121 11.1406 135.098 10.8359C135.098 10.5313 135.098 10.332 135.098 10.2383L135.062 9.71094C134.5 10.1094 134.066 10.3906 133.762 10.5547C133.082 10.9297 132.59 11.1641 132.285 11.2578C131.91 11.3984 131.57 11.4688 131.266 11.4688C131.102 11.4688 131.008 11.4453 130.984 11.3984C130.938 11.3047 131.406 10.9648 132.391 10.3789C133.328 9.79297 134.348 9.01953 135.449 8.05859C136.059 7.49609 136.527 6.95703 136.855 6.44141C136.902 6.37109 136.938 6.28906 136.961 6.19531C137.008 6.07812 137.055 6.00781 137.102 5.98438C137.172 5.96094 137.266 5.97266 137.383 6.01953C137.688 6.18359 137.945 6.41797 138.156 6.72266C138.25 6.83984 138.297 6.95703 138.297 7.07422C138.297 7.19141 138.238 7.30859 138.121 7.42578C138.004 7.51953 137.887 7.58984 137.77 7.63672C137.371 7.89453 137.008 8.17578 136.68 8.48047C136.352 8.78516 136.141 8.98438 136.047 9.07812C136.398 9.35938 136.574 9.55859 136.574 9.67578L136.469 10.4141C136.422 10.625 136.398 11.1523 136.398 11.9961C136.398 12.8164 136.422 13.3672 136.469 13.6484V13.7188C136.469 13.8359 136.434 13.9648 136.363 14.1055C136.316 14.2227 136.281 14.3047 136.258 14.3516C136.094 14.6094 135.883 14.7383 135.625 14.7383ZM139.211 23.668C138.859 23.668 138.52 23.4102 138.191 22.8945C137.77 22.2383 137.359 21.6992 136.961 21.2773L136.047 20.3281C135.555 20.8906 135.121 21.3359 134.746 21.6641C134.395 21.9922 133.949 22.3086 133.41 22.6133C132.402 23.1992 131.559 23.4922 130.879 23.4922C130.715 23.4922 130.633 23.4336 130.633 23.3164C130.633 23.2461 130.855 23.0938 131.301 22.8594C131.746 22.625 132.168 22.3438 132.566 22.0156C133.574 21.1719 134.406 20.3047 135.062 19.4141C134.922 19.2734 134.219 18.6641 132.953 17.5859C132.789 17.4688 132.543 17.2695 132.215 16.9883C132.145 16.9414 132.004 16.8359 131.793 16.6719C131.582 16.5078 131.477 16.3906 131.477 16.3203C131.477 16.2031 131.535 16.1445 131.652 16.1445C132.004 16.1445 132.566 16.3906 133.34 16.8828C134.113 17.3516 134.922 17.9141 135.766 18.5703C136.094 18.1719 136.352 17.7969 136.539 17.4453C136.727 17.0938 136.938 16.6602 137.172 16.1445C137.289 15.8867 137.359 15.6641 137.383 15.4766C137.406 15.2656 137.418 15.1367 137.418 15.0898C137.418 14.832 137.488 14.7031 137.629 14.7031C137.793 14.7031 138.016 14.832 138.297 15.0898C138.789 15.5586 139.035 15.875 139.035 16.0391C139.035 16.1328 138.977 16.2383 138.859 16.3555C138.578 16.6367 138.32 17.0117 138.086 17.4805C137.945 17.7617 137.688 18.1602 137.312 18.6758C137.195 18.8164 137.102 18.9453 137.031 19.0625C136.961 19.1797 136.891 19.2852 136.82 19.3789C137.359 19.7773 138.156 20.457 139.211 21.418C139.469 21.6523 139.633 21.875 139.703 22.0859C139.797 22.2734 139.844 22.5312 139.844 22.8594C139.844 23.0938 139.785 23.293 139.668 23.457C139.551 23.5977 139.398 23.668 139.211 23.668ZM131.441 34.1797C131.09 34.1797 130.82 34.0859 130.633 33.8984C130.422 33.6875 130.316 33.5 130.316 33.3359C130.316 33.1719 130.41 32.9961 130.598 32.8086C130.621 32.7852 130.75 32.5977 130.984 32.2461C131.5 31.4258 132.086 30.3828 132.742 29.1172C133.422 27.8281 133.844 26.9492 134.008 26.4805C134.148 26.0352 134.277 25.6484 134.395 25.3203C134.535 24.9922 134.652 24.8281 134.746 24.8281C134.91 24.8281 135.051 24.8867 135.168 25.0039C135.285 25.0977 135.402 25.2383 135.52 25.4258C135.66 25.5898 135.766 25.707 135.836 25.7773C136 25.9648 136.082 26.1406 136.082 26.3047C136.082 26.4219 136.035 26.5391 135.941 26.6562C135.848 26.7734 135.789 26.8555 135.766 26.9023L134.219 29.5039C133.82 30.2305 133.293 31.1328 132.637 32.2109C132.543 32.3281 132.496 32.4453 132.496 32.5625C132.496 32.6562 132.602 32.7031 132.812 32.7031C133.258 32.7031 134.09 32.6445 135.309 32.5273C136.527 32.4336 137.348 32.3516 137.77 32.2812C138.379 32.2109 138.801 32.1406 139.035 32.0703C139.293 32 139.668 32.1758 140.16 32.5977C140.746 33.0898 140.875 33.4062 140.547 33.5469C140.359 33.6406 139.996 33.6875 139.457 33.6875H138.051C137.746 33.6875 137.266 33.7109 136.609 33.7578C136.211 33.7578 135.766 33.7695 135.273 33.793C134.781 33.8164 134.371 33.8398 134.043 33.8633C133.668 33.8867 132.941 33.957 131.863 34.0742L131.441 34.1797ZM146.383 18.6758C146.664 18.6758 146.805 18.8047 146.805 19.0625C146.805 19.2031 146.676 19.4023 146.418 19.6602C145.715 20.5273 144.32 22.1797 142.234 24.6172C142.07 24.8281 141.918 24.9336 141.777 24.9336C141.66 24.9336 141.402 24.7578 141.004 24.4062C140.676 24.125 140.512 23.8906 140.512 23.7031C140.512 23.4922 140.688 23.293 141.039 23.1055C141.578 22.8008 142.387 22.1914 143.465 21.2773C144.543 20.3164 145.34 19.5547 145.855 18.9922C146.066 18.7812 146.242 18.6758 146.383 18.6758ZM98.1133 34.25C97.7383 34.25 97.4336 34.2148 97.1992 34.1445C96.9883 34.0977 96.8242 33.9922 96.707 33.8281C96.332 33.3359 96.0859 32.8789 95.9688 32.457C95.9453 32.4102 95.9336 32.3398 95.9336 32.2461C95.9336 32.082 96.0156 32 96.1797 32L96.3555 32.0352C96.8242 32.1758 97.4922 32.2461 98.3594 32.2461L110.242 31.9648V28.9414L103.176 29.2227H102.402C101.934 29.2227 101.605 29.1289 101.418 28.9414C100.785 28.3086 100.469 27.7812 100.469 27.3594C100.469 27.1953 100.551 27.1133 100.715 27.1133C100.809 27.1133 100.891 27.125 100.961 27.1484C101.43 27.2891 101.945 27.3594 102.508 27.3594H102.824L110.277 27.1133V24.582L104.793 24.793L104.828 25.2148V25.3203C104.828 25.7188 104.652 25.918 104.301 25.918C104.09 25.918 103.809 25.8477 103.457 25.707C103.059 25.5195 102.789 25.3672 102.648 25.25C102.531 25.1094 102.473 24.9219 102.473 24.6875L102.508 24.3711C102.555 23.9961 102.578 23.6562 102.578 23.3516C102.578 23.0938 102.566 22.8945 102.543 22.7539L101.945 16.9883C101.875 16.3086 101.723 15.7227 101.488 15.2305C101.348 14.8555 101.277 14.6328 101.277 14.5625C101.277 14.4219 101.395 14.3516 101.629 14.3516C102.004 14.3516 102.789 14.5508 103.984 14.9492L110.312 14.5977V12.1719L100.188 12.6992C100 12.6992 99.8125 12.7109 99.625 12.7344C99.4609 12.7578 99.2852 12.7695 99.0977 12.7695C98.6289 12.7695 98.3008 12.6758 98.1133 12.4883C97.5977 11.9727 97.2812 11.5859 97.1641 11.3281L97.0938 11.0469C97.0938 10.9062 97.1758 10.8359 97.3398 10.8359H97.4805C97.8789 10.9062 98.3711 10.9414 98.957 10.9414H99.3789L110.348 10.3438V8.26953C108.801 8.45703 106.891 8.59766 104.617 8.69141C103.492 8.73828 102.648 8.78516 102.086 8.83203H101.734C101.359 8.83203 101.066 8.79688 100.855 8.72656C100.668 8.63281 100.574 8.52734 100.574 8.41016C100.574 8.26953 100.691 8.14063 100.926 8.02344C101.16 7.88281 101.5 7.77734 101.945 7.70703C108.555 6.86328 113.781 5.86719 117.625 4.71875C118.234 4.53125 118.715 4.26172 119.066 3.91016C119.207 3.76953 119.324 3.69922 119.418 3.69922C119.723 3.69922 120.098 3.99219 120.543 4.57812C121.012 5.14062 121.246 5.5625 121.246 5.84375C121.246 6.10156 121.082 6.26562 120.754 6.33594C118.035 6.96875 115.281 7.50781 112.492 7.95312V10.2383L122.512 9.67578C123.027 9.62891 123.52 9.53516 123.988 9.39453L124.164 9.35938C124.258 9.35938 124.457 9.45312 124.762 9.64062C125.066 9.80469 125.336 10.0156 125.57 10.2734C125.805 10.5078 125.922 10.7187 125.922 10.9062C125.922 11.1406 125.664 11.2812 125.148 11.3281L112.457 12.0312V14.4922L119.699 14.1055H119.945C120.461 14.1055 120.859 14.2695 121.141 14.5977C121.422 14.9023 121.562 15.1719 121.562 15.4062C121.562 15.5 121.527 15.6172 121.457 15.7578C121.41 15.8984 121.375 16.0273 121.352 16.1445L120.508 22.543C121.047 23.1758 121.316 23.6211 121.316 23.8789C121.316 23.9961 121.258 24.0781 121.141 24.125C121.047 24.1484 120.918 24.1719 120.754 24.1953C120.59 24.1953 120.473 24.1953 120.402 24.1953L112.387 24.5117V27.043L119.031 26.7969C119.453 26.7266 119.852 26.6445 120.227 26.5508C120.414 26.5039 120.543 26.4805 120.613 26.4805C120.848 26.4805 121.199 26.6797 121.668 27.0781C122.16 27.4531 122.406 27.7812 122.406 28.0625C122.406 28.3203 122.078 28.4727 121.422 28.5195L112.387 28.8711L112.352 31.9297L123.566 31.6484C124.152 31.6484 124.727 31.5664 125.289 31.4023L125.711 31.332C126.016 31.332 126.379 31.5664 126.801 32.0352C127.223 32.5273 127.434 32.8906 127.434 33.125C127.434 33.3594 127.199 33.5 126.73 33.5469L98.8516 34.2148L98.1133 34.25ZM104.23 18.957L110.312 18.6758V16.2852L104.02 16.6016L104.23 18.957ZM104.617 23.1406L110.277 22.8945V20.3281L104.406 20.5742L104.617 23.1406ZM118.504 22.5781L118.715 19.9414L112.422 20.2227V22.8242L118.504 22.5781ZM118.855 18.2539L119.066 15.8633L112.457 16.1797L112.422 18.5703L118.855 18.2539ZM185.652 14.1758C185.395 14.1758 185.078 13.9766 184.703 13.5781C184.422 13.2969 184.281 13.0859 184.281 12.9453C184.281 12.875 184.328 12.8398 184.422 12.8398C184.516 12.8164 184.633 12.8047 184.773 12.8047L185.547 12.7695C185.992 12.7695 186.285 12.7578 186.426 12.7344C186.871 12.7344 187.246 12.7227 187.551 12.6992C189.566 12.5117 190.926 12.3594 191.629 12.2422C191.98 12.1953 192.297 12.1484 192.578 12.1016C192.859 12.0312 193.082 11.9961 193.246 11.9961C193.574 11.9961 193.902 12.1602 194.23 12.4883C194.488 12.7461 194.617 12.957 194.617 13.1211C194.617 13.2617 194.535 13.3555 194.371 13.4023C194.254 13.4258 193.562 13.4727 192.297 13.543C191.594 13.5664 190.727 13.625 189.695 13.7188C188.664 13.8125 187.762 13.9063 186.988 14C186.848 14.0234 186.648 14.0586 186.391 14.1055C186.133 14.1523 185.887 14.1758 185.652 14.1758ZM193.633 29.5742C193.961 29.7852 194.125 29.9844 194.125 30.1719C194.125 30.4297 193.926 30.5938 193.527 30.6641C193.129 30.7344 192.566 30.7812 191.84 30.8047C190.785 30.8281 190.105 30.793 189.801 30.6992C189.285 30.4648 189.027 30.0781 189.027 29.5391L189.062 28.2383C189.109 27.8164 189.133 27.4414 189.133 27.1133C189.156 26.9023 189.168 26.4922 189.168 25.8828C188.816 26.6797 188.359 27.4531 187.797 28.2031C187.398 28.6953 187.047 29.1055 186.742 29.4336C186.438 29.7383 186.074 30.0312 185.652 30.3125C185.23 30.5938 184.844 30.7344 184.492 30.7344C184.281 30.7344 184.176 30.6641 184.176 30.5234C184.176 30.5 184.398 30.3242 184.844 29.9961C185.312 29.6445 185.781 29.1641 186.25 28.5547C186.953 27.6172 187.562 26.5156 188.078 25.25C187.164 25.3672 186.555 25.4727 186.25 25.5664C186.133 25.5898 186.027 25.625 185.934 25.6719C185.84 25.6953 185.723 25.6953 185.582 25.6719C185.465 25.625 185.301 25.5312 185.09 25.3906C184.879 25.2266 184.715 25.0742 184.598 24.9336C184.504 24.793 184.457 24.6992 184.457 24.6523C184.457 24.5352 184.633 24.4766 184.984 24.4766C185.852 24.4766 186.965 24.3828 188.324 24.1953C188.465 23.6562 188.535 22.7891 188.535 21.5938V20.9258C188.535 20.6445 188.594 20.4922 188.711 20.4688C188.734 20.4453 188.781 20.4336 188.852 20.4336C189.039 20.4336 189.297 20.5742 189.625 20.8555C189.883 21.0664 190.047 21.2305 190.117 21.3477C190.211 21.4414 190.223 21.5703 190.152 21.7344C190.129 21.7812 190.082 21.875 190.012 22.0156C189.941 22.1562 189.895 22.2969 189.871 22.4375C189.848 22.5547 189.801 22.7891 189.73 23.1406C189.66 23.4688 189.613 23.7617 189.59 24.0195C189.918 23.9961 190.328 23.9492 190.82 23.8789C191.312 23.8086 191.676 23.7383 191.91 23.668L192.613 23.4922C192.848 23.4453 193.234 23.6445 193.773 24.0898C193.867 24.1602 193.914 24.2422 193.914 24.3359C193.914 24.4297 193.867 24.5117 193.773 24.582C193.703 24.6289 193.609 24.6523 193.492 24.6523C193.07 24.6523 192.297 24.7227 191.172 24.8633L190.012 24.9688C190.27 25.1562 190.434 25.3203 190.504 25.4609C190.574 25.6016 190.586 25.7422 190.539 25.8828L190.434 26.4453C190.387 26.9141 190.34 27.4297 190.293 27.9922C190.27 28.5547 190.27 28.9883 190.293 29.293C190.293 29.4102 190.363 29.5156 190.504 29.6094C190.668 29.7031 190.832 29.75 190.996 29.75C191.582 29.75 192.238 29.6914 192.965 29.5742L193.281 29.5039C193.422 29.5039 193.539 29.5273 193.633 29.5742ZM200.383 14.8086C200.664 14.8086 200.805 14.9375 200.805 15.1953C200.805 15.3359 200.676 15.5352 200.418 15.793C199.715 16.6602 198.32 18.3125 196.234 20.75C196.07 20.9609 195.918 21.0664 195.777 21.0664C195.66 21.0664 195.402 20.8906 195.004 20.5391C194.676 20.2578 194.512 20.0234 194.512 19.8359C194.512 19.625 194.688 19.4258 195.039 19.2383C195.578 18.9336 196.387 18.3242 197.465 17.4102C198.543 16.4492 199.34 15.6875 199.855 15.125C200.066 14.9141 200.242 14.8086 200.383 14.8086ZM175.738 32.7031C175.809 32.7031 175.855 32.6914 175.879 32.668C175.926 32.668 175.949 32.6328 175.949 32.5625C176.863 30.2422 177.379 27.043 177.496 22.9648L175.738 23.0352C174.145 25.8008 172.422 28.0273 170.57 29.7148C168.742 31.3789 167.125 32.5625 165.719 33.2656C164.336 33.9688 163.445 34.3203 163.047 34.3203C162.812 34.3203 162.695 34.25 162.695 34.1094C162.695 33.875 163.047 33.5234 163.75 33.0547C167.57 30.4766 170.664 27.1836 173.031 23.1758L170.324 23.2812C168.918 24.9688 167.535 26.3633 166.176 27.4648C164.816 28.543 163.645 29.3281 162.66 29.8203C161.699 30.3125 161.066 30.5586 160.762 30.5586C160.574 30.5586 160.48 30.4883 160.48 30.3477C160.48 30.2305 160.562 30.0781 160.727 29.8906C160.914 29.6797 161.16 29.4688 161.465 29.2578C163.691 27.6875 165.707 25.7422 167.512 23.4219L163.961 23.5977C162.977 24.418 161.98 25.1445 160.973 25.7773C159.965 26.4102 159.262 26.7266 158.863 26.7266C158.699 26.7266 158.617 26.668 158.617 26.5508C158.617 26.293 158.863 25.9766 159.355 25.6016C161.371 24.0312 163.363 21.9453 165.332 19.3438L163.188 19.4844H162.555C161.945 19.4844 161.57 19.4023 161.43 19.2383C161.008 18.8164 160.715 18.3828 160.551 17.9375L160.48 17.6562C160.48 17.5156 160.551 17.4453 160.691 17.4453C160.809 17.4453 160.914 17.457 161.008 17.4805C161.43 17.5508 161.887 17.5859 162.379 17.5859H162.801L178.199 16.707C178.785 16.6602 179.23 16.5898 179.535 16.4961C179.723 16.4492 179.852 16.4258 179.922 16.4258C180.203 16.4258 180.496 16.5195 180.801 16.707C181.105 16.8945 181.363 17.1055 181.574 17.3398C181.809 17.5742 181.926 17.7617 181.926 17.9023C181.926 18.207 181.645 18.3828 181.082 18.4297L168.355 19.168C167.84 19.7773 167.078 20.6094 166.07 21.6641L178.164 21.0664H178.375C178.891 21.0664 179.277 21.1836 179.535 21.418C179.793 21.6523 179.922 21.8984 179.922 22.1562C179.922 22.2734 179.887 22.4141 179.816 22.5781C179.77 22.7422 179.746 22.8594 179.746 22.9297C179.605 25.9297 179.254 28.8242 178.691 31.6133C178.457 32.8555 178.094 33.7695 177.602 34.3555C177.133 34.9414 176.664 35.2344 176.195 35.2344C175.75 35.2344 175.094 34.9766 174.227 34.4609C173.359 33.9688 172.562 33.418 171.836 32.8086C171.109 32.1992 170.746 31.7773 170.746 31.543C170.746 31.4258 170.84 31.3672 171.027 31.3672C171.309 31.3672 171.707 31.4727 172.223 31.6836C173.488 32.1758 174.613 32.5156 175.598 32.7031H175.738ZM151.41 33.8984C151.41 33.7344 151.422 33.6055 151.445 33.5117C151.586 32.7852 151.656 31.8828 151.656 30.8047L151.938 9.60547V9.00781C151.938 8.04687 151.844 7.32031 151.656 6.82812C151.492 6.45313 151.41 6.19531 151.41 6.05469C151.41 5.89063 151.504 5.80859 151.691 5.80859C151.996 5.80859 152.863 6.08984 154.293 6.65234L158.934 6.23047L159.391 6.19531C159.578 6.19531 159.859 6.3125 160.234 6.54688C160.633 6.78125 160.832 7.03906 160.832 7.32031C160.832 7.46094 160.762 7.61328 160.621 7.77734C160.504 7.91797 160.422 8.03516 160.375 8.12891C159.461 9.95703 158.488 11.6445 157.457 13.1914C157.41 13.2852 157.387 13.3555 157.387 13.4023C157.387 13.543 157.422 13.6484 157.492 13.7188C158.5 14.8438 159.191 15.8984 159.566 16.8828C159.965 17.8672 160.164 18.957 160.164 20.1523C160.164 20.9727 159.988 21.6875 159.637 22.2969C159.309 22.9062 158.898 23.2109 158.406 23.2109C158.055 23.2109 157.539 22.9414 156.859 22.4023C156.203 21.8633 155.594 21.2656 155.031 20.6094C154.492 19.9297 154.223 19.4609 154.223 19.2031C154.223 19.0625 154.293 18.9922 154.434 18.9922C154.621 18.9922 154.926 19.1328 155.348 19.4141C155.84 19.7656 156.344 20.082 156.859 20.3633C157.375 20.6211 157.715 20.75 157.879 20.75C157.949 20.75 157.996 20.6094 158.02 20.3281C158.066 20.0469 158.09 19.8242 158.09 19.6602C158.09 18.8398 157.926 18.0195 157.598 17.1992C157.293 16.3789 156.719 15.4883 155.875 14.5273C155.594 14.1758 155.453 13.8359 155.453 13.5078C155.453 13.2266 155.559 12.8984 155.77 12.5234C156.754 10.8359 157.516 9.38281 158.055 8.16406L154.082 8.51562L153.73 34.3203C153.73 34.9766 153.531 35.3047 153.133 35.3047C153.039 35.3047 152.852 35.2461 152.57 35.1289C152.289 35.0352 152.02 34.8828 151.762 34.6719C151.527 34.4609 151.41 34.2031 151.41 33.8984ZM162.906 5.35156C162.906 5.23437 163.012 5.17578 163.223 5.17578C163.551 5.17578 164.359 5.35156 165.648 5.70312L175.246 5.14062H175.562C175.961 5.14062 176.324 5.25781 176.652 5.49219C177.004 5.72656 177.18 5.97266 177.18 6.23047C177.18 6.34766 177.145 6.47656 177.074 6.61719C177.027 6.75781 176.992 6.875 176.969 6.96875L176.266 13.4023C176.852 13.9648 177.145 14.375 177.145 14.6328C177.145 14.7734 177.062 14.8672 176.898 14.9141C176.758 14.9609 176.535 14.9961 176.23 15.0195L166.176 15.4766L166.211 15.7578V15.8633C166.211 16.3086 166.012 16.5312 165.613 16.5312C165.285 16.5312 164.91 16.4023 164.488 16.1445C164.066 15.8633 163.855 15.5938 163.855 15.3359V15.1602C163.926 14.6914 163.961 14.2461 163.961 13.8242L163.926 13.1914L163.539 7.56641C163.492 6.93359 163.375 6.40625 163.188 5.98438C163 5.67969 162.906 5.46875 162.906 5.35156ZM165.789 9.64062L174.508 9.14844L174.719 6.86328L165.648 7.35547L165.789 9.64062ZM166.07 13.7891L174.156 13.3672L174.367 10.8008L165.895 11.2578L166.07 13.7891ZM246.121 14.3867C245.957 14.3867 245.781 14.2812 245.594 14.0703C245.453 13.9063 245.359 13.7773 245.312 13.6836C245.266 13.5664 245.266 13.4141 245.312 13.2266L245.348 12.3828C245.371 12.2188 245.383 11.8203 245.383 11.1875V10.0273L244.328 10.5195L243.098 11.0469C242.793 11.1641 242.477 11.3047 242.148 11.4688C241.867 11.6094 241.621 11.6797 241.41 11.6797C241.246 11.6563 241.059 11.5977 240.848 11.5039C240.637 11.4102 240.473 11.3281 240.355 11.2578C240.098 11.0938 239.98 10.918 240.004 10.7305L240.109 10.3789C240.109 10.1914 240.121 10.0273 240.145 9.88672L240.18 7.84766V5.94922C240.18 5.57422 240.156 5.25781 240.109 5C240.062 4.71875 240.027 4.51953 240.004 4.40234C240.004 4.28516 240.039 4.20313 240.109 4.15625C240.133 4.13281 240.191 4.12109 240.285 4.12109C240.449 4.12109 240.766 4.22656 241.234 4.4375C241.633 4.625 241.797 4.85938 241.727 5.14062C241.68 5.30469 241.633 5.55078 241.586 5.87891L241.48 9.92188C241.48 10.0391 241.492 10.1328 241.516 10.2031C241.562 10.25 241.609 10.2734 241.656 10.2734C241.938 10.2734 242.277 10.1914 242.676 10.0273C243.426 9.79297 244.07 9.55859 244.609 9.32422L245.383 9.00781V6.6875C245.383 5.75 245.324 4.84766 245.207 3.98047C245.184 3.91016 245.172 3.82812 245.172 3.73438C245.172 3.5 245.266 3.38281 245.453 3.38281C245.477 3.38281 245.605 3.42969 245.84 3.52344C246.191 3.71094 246.449 3.875 246.613 4.01562C246.777 4.15625 246.871 4.23828 246.895 4.26172C246.988 4.33203 247.035 4.40234 247.035 4.47266C247.035 4.51953 247.012 4.57812 246.965 4.64844C246.941 4.71875 246.918 4.77734 246.895 4.82422L246.789 5.87891L246.754 9.11328L246.789 12.2422C246.789 12.7813 246.754 13.25 246.684 13.6484C246.566 14.1406 246.379 14.3867 246.121 14.3867ZM239.652 20.1523C239.395 20.1523 239.078 19.9531 238.703 19.5547C238.422 19.2734 238.281 19.0625 238.281 18.9219C238.281 18.8516 238.328 18.8164 238.422 18.8164C238.516 18.793 238.633 18.7812 238.773 18.7812L239.547 18.7461C239.992 18.7461 240.285 18.7344 240.426 18.7109C240.871 18.7109 241.246 18.6992 241.551 18.6758C243.566 18.4883 244.926 18.3359 245.629 18.2188C245.98 18.1719 246.297 18.125 246.578 18.0781C246.859 18.0078 247.082 17.9727 247.246 17.9727C247.574 17.9727 247.902 18.1367 248.23 18.4648C248.488 18.7227 248.617 18.9336 248.617 19.0977C248.617 19.2383 248.535 19.332 248.371 19.3789C248.254 19.4023 247.562 19.4492 246.297 19.5195C245.594 19.543 244.727 19.6016 243.695 19.6953C242.664 19.7891 241.762 19.8828 240.988 19.9766C240.848 20 240.648 20.0352 240.391 20.082C240.133 20.1289 239.887 20.1523 239.652 20.1523ZM244.363 34.6719C243.637 34.6719 243.074 34.6484 242.676 34.6016C242.301 34.5547 241.984 34.4141 241.727 34.1797C241.281 33.8516 240.977 33.1367 240.812 32.0352L240.707 30.9102C240.707 30.6289 240.684 30.2773 240.637 29.8555C240.262 29.9023 239.992 29.9492 239.828 29.9961C239.781 30.0195 239.699 30.0547 239.582 30.1016C239.488 30.125 239.418 30.1367 239.371 30.1367C239.207 30.1367 239.055 30.0898 238.914 29.9961C238.773 29.9023 238.598 29.7266 238.387 29.4688C238.223 29.2578 238.141 29.1172 238.141 29.0469C238.141 28.9766 238.223 28.9297 238.387 28.9062C238.551 28.8828 238.773 28.8711 239.055 28.8711C239.453 28.8711 239.969 28.8242 240.602 28.7305L240.566 28.2383C240.566 27.3008 240.508 26.5039 240.391 25.8477L240.355 25.6016C240.355 25.2734 240.484 25.1445 240.742 25.2148C241.023 25.3086 241.281 25.4258 241.516 25.5664C241.703 25.6602 241.832 25.7539 241.902 25.8477C241.973 25.918 241.996 26.0234 241.973 26.1641L241.867 27.6758V28.5898L244.961 28.2734C244.961 28.1094 244.973 27.7227 244.996 27.1133C245.02 26.4805 245.02 26.0703 244.996 25.8828C244.996 25.6953 244.973 25.5195 244.926 25.3555C244.902 25.168 244.879 25.0156 244.855 24.8984C244.855 24.7109 244.949 24.6172 245.137 24.6172C245.324 24.6172 245.559 24.7227 245.84 24.9336C246.168 25.1445 246.379 25.332 246.473 25.4961C246.59 25.6602 246.613 25.8594 246.543 26.0938C246.426 26.4688 246.344 26.8906 246.297 27.3594C246.25 27.8281 246.227 28.1094 246.227 28.2031C246.508 28.1797 246.766 28.1445 247 28.0977C247.234 28.0508 247.387 28.0273 247.457 28.0273C247.645 27.9805 247.867 27.957 248.125 27.957C248.266 27.9805 248.465 28.1211 248.723 28.3789C248.934 28.6602 249.039 28.8828 249.039 29.0469C249.039 29.2812 248.816 29.375 248.371 29.3281C247.973 29.2578 247.574 29.2227 247.176 29.2227C246.777 29.2227 246.438 29.2344 246.156 29.2578C246.086 30.1016 245.945 30.9336 245.734 31.7539C245.688 31.9414 245.605 32.0938 245.488 32.2109C245.371 32.3516 245.266 32.4219 245.172 32.4219C245.008 32.4219 244.902 32.3516 244.855 32.2109C244.832 32.0938 244.82 31.8945 244.82 31.6133C244.867 31.0039 244.891 30.2422 244.891 29.3281C244.258 29.375 243.766 29.4219 243.414 29.4688C242.875 29.5859 242.371 29.6562 241.902 29.6797C241.879 30.6406 241.926 31.4961 242.043 32.2461C242.113 32.7383 242.254 33.0781 242.465 33.2656C242.605 33.3828 242.77 33.4531 242.957 33.4766C243.168 33.5 243.379 33.5117 243.59 33.5117C243.801 33.5117 243.941 33.5117 244.012 33.5117C244.738 33.5117 245.418 33.4766 246.051 33.4062C246.238 33.3828 246.402 33.3359 246.543 33.2656C246.707 33.1953 246.824 33.1602 246.895 33.1602C247.105 33.1602 247.316 33.2305 247.527 33.3711C247.738 33.5117 247.844 33.6758 247.844 33.8633C247.844 34.0508 247.738 34.1914 247.527 34.2852C247.34 34.3789 247.035 34.4609 246.613 34.5312C245.863 34.625 245.113 34.6719 244.363 34.6719ZM254.383 18.6758C254.664 18.6758 254.805 18.8047 254.805 19.0625C254.805 19.2031 254.676 19.4023 254.418 19.6602C253.715 20.5273 252.32 22.1797 250.234 24.6172C250.07 24.8281 249.918 24.9336 249.777 24.9336C249.66 24.9336 249.402 24.7578 249.004 24.4062C248.676 24.125 248.512 23.8906 248.512 23.7031C248.512 23.4922 248.688 23.293 249.039 23.1055C249.578 22.8008 250.387 22.1914 251.465 21.2773C252.543 20.3164 253.34 19.5547 253.855 18.9922C254.066 18.7812 254.242 18.6758 254.383 18.6758ZM209.699 30.1719C211.785 29.5156 213.648 28.8008 215.289 28.0273C214.938 27.5352 214.492 26.9727 213.953 26.3398C213.766 26.1055 213.672 25.918 213.672 25.7773C213.672 25.5195 213.824 25.2969 214.129 25.1094C214.434 24.8984 214.668 24.793 214.832 24.793C215.02 24.793 215.219 24.9102 215.43 25.1445C216.766 26.7148 217.902 28.0977 218.84 29.293C219.777 30.4883 220.246 31.2148 220.246 31.4727C220.246 31.6836 220.082 31.9297 219.754 32.2109C219.449 32.5156 219.156 32.668 218.875 32.668C218.641 32.668 218.406 32.4805 218.172 32.1055C217.633 31.2852 217.023 30.3945 216.344 29.4336L212.125 31.543C211.656 31.7539 210.918 32.1289 209.91 32.668C209.066 33.1133 208.551 33.3359 208.363 33.3359C208.223 33.3359 208.047 33.2422 207.836 33.0547C207.625 32.8906 207.461 32.6797 207.344 32.4219C207.25 32.1875 207.25 32 207.344 31.8594C207.484 31.6016 207.555 30.5703 207.555 28.7656V16.6016C207.555 16.0391 207.531 15.582 207.484 15.2305C207.461 14.8789 207.367 14.5039 207.203 14.1055C207.18 14.0352 207.156 13.9766 207.133 13.9297C207.109 13.8828 207.098 13.8359 207.098 13.7891C207.098 13.6719 207.18 13.6133 207.344 13.6133C207.648 13.6133 208.41 13.8711 209.629 14.3867L217.258 13.8594C217.445 13.8359 217.656 13.8242 217.891 13.8242C218.148 13.8242 218.453 13.9414 218.805 14.1758C219.156 14.3867 219.332 14.6211 219.332 14.8789C219.332 14.9727 219.273 15.1133 219.156 15.3008C219.062 15.4883 219.016 15.6289 219.016 15.7227L218.102 22.332C218.664 22.9883 218.945 23.4336 218.945 23.668C218.945 23.7852 218.875 23.8672 218.734 23.9141C218.617 23.9609 218.43 23.9844 218.172 23.9844L209.664 24.3008L209.699 30.1719ZM203.934 14.3867C203.934 14.1523 204.086 13.8711 204.391 13.543C206.102 11.6445 207.59 9.75781 208.855 7.88281C210.121 6.00781 210.754 4.75391 210.754 4.12109L210.719 3.875V3.76953C210.719 3.44141 210.848 3.27734 211.105 3.27734C211.41 3.27734 211.832 3.48828 212.371 3.91016C212.934 4.30859 213.215 4.63672 213.215 4.89453C213.215 5.01172 213.156 5.16406 213.039 5.35156C212.688 5.91406 212.301 6.47656 211.879 7.03906L216.871 6.65234C217.293 6.62891 217.738 6.53516 218.207 6.37109C218.348 6.32422 218.453 6.30078 218.523 6.30078C218.875 6.30078 219.25 6.5 219.648 6.89844C220.07 7.27344 220.281 7.56641 220.281 7.77734C220.281 8.05859 220.023 8.22266 219.508 8.26953L213.496 8.69141C213.66 8.73828 214.023 8.98438 214.586 9.42969C215.172 9.875 215.699 10.332 216.168 10.8008C216.637 11.2695 216.871 11.5977 216.871 11.7852C216.871 11.9961 216.73 12.2539 216.449 12.5586C216.168 12.8398 215.922 12.9805 215.711 12.9805C215.523 12.9805 215.301 12.8281 215.043 12.5234C214.246 11.6563 213.438 10.8945 212.617 10.2383C212.336 10.0039 212.195 9.80469 212.195 9.64062C212.195 9.52344 212.254 9.37109 212.371 9.18359C212.488 8.99609 212.641 8.84375 212.828 8.72656L210.473 8.90234C209.348 10.2852 208.105 11.5859 206.746 12.8047C205.387 14 204.52 14.5977 204.145 14.5977C204.004 14.5977 203.934 14.5273 203.934 14.3867ZM216.59 18.043L216.836 15.582L209.594 16.0742V18.3945L216.59 18.043ZM216.133 22.4023L216.414 19.6953L209.629 20.0117V22.6484L216.133 22.4023ZM218.031 12.875C218.031 12.6406 218.184 12.3594 218.488 12.0312C219.637 10.6484 220.68 9.08984 221.617 7.35547C222.578 5.59766 223.059 4.36719 223.059 3.66406V3.52344C223.059 3.17188 223.188 2.99609 223.445 2.99609C223.609 2.99609 223.855 3.08984 224.184 3.27734C224.535 3.44141 224.852 3.64063 225.133 3.875C225.414 4.10937 225.555 4.34375 225.555 4.57812C225.555 4.78906 225.391 5.16406 225.062 5.70312C224.734 6.24219 224.559 6.52344 224.535 6.54688L231.461 5.98438C231.977 5.9375 232.422 5.85547 232.797 5.73828C232.844 5.71484 232.938 5.70312 233.078 5.70312C233.406 5.70312 233.758 5.89063 234.133 6.26562C234.531 6.61719 234.73 6.91016 234.73 7.14453C234.73 7.28516 234.66 7.40234 234.52 7.49609C234.402 7.56641 234.238 7.61328 234.027 7.63672L226.891 8.12891C227.547 8.55078 228.32 9.17187 229.211 9.99219C230.102 10.7891 230.547 11.3281 230.547 11.6094C230.547 11.7734 230.418 12.0312 230.16 12.3828C229.902 12.7109 229.656 12.875 229.422 12.875C229.234 12.875 229.035 12.7578 228.824 12.5234C227.676 11.2812 226.633 10.2969 225.695 9.57031C225.461 9.38281 225.344 9.20703 225.344 9.04297C225.344 8.85547 225.52 8.57422 225.871 8.19922L223.27 8.375C222.496 9.40625 221.559 10.4492 220.457 11.5039C219.379 12.5586 218.652 13.0859 218.277 13.0859C218.113 13.0859 218.031 13.0156 218.031 12.875ZM221.336 13.6484C221.336 13.5078 221.418 13.4375 221.582 13.4375C221.934 13.4375 222.73 13.7305 223.973 14.3164L231.039 13.7188L231.32 13.6836C231.414 13.6836 231.59 13.7305 231.848 13.8242C232.129 13.8945 232.387 14.0234 232.621 14.2109C232.879 14.375 233.008 14.5977 233.008 14.8789C233.008 14.9727 232.973 15.1016 232.902 15.2656C232.832 15.4297 232.797 15.5469 232.797 15.6172C232.773 18.1953 232.609 20.9492 232.305 23.8789L232.234 24.7578C232.164 25.7422 232.07 26.5625 231.953 27.2188C231.836 27.875 231.637 28.3906 231.355 28.7656C230.91 29.375 230.43 29.6797 229.914 29.6797C229.398 29.6797 228.742 29.3633 227.945 28.7305C227.148 28.0977 226.41 27.4062 225.73 26.6562C225.074 25.9062 224.746 25.4258 224.746 25.2148C224.746 25.0508 224.84 24.9688 225.027 24.9688C225.238 24.9688 225.531 25.0859 225.906 25.3203C226.773 25.8594 227.5 26.293 228.086 26.6211C228.672 26.9492 229.094 27.1133 229.352 27.1133C229.469 27.1133 229.551 27.0312 229.598 26.8672C230.137 23.8672 230.465 20.1055 230.582 15.582L223.973 16.0742C223.973 20.0352 224.008 26.3164 224.078 34.918C224.078 35.1289 224.02 35.2812 223.902 35.375C223.809 35.4922 223.68 35.5508 223.516 35.5508C223.328 35.5508 223.105 35.4805 222.848 35.3398C222.402 35.1523 222.086 34.9766 221.898 34.8125C221.711 34.6484 221.617 34.4609 221.617 34.25L221.652 34.0039C221.793 33.2305 221.863 32.3633 221.863 31.4023L221.758 16.5664C221.758 15.957 221.734 15.4883 221.688 15.1602C221.664 14.832 221.594 14.5156 221.477 14.2109C221.383 13.9297 221.336 13.7422 221.336 13.6484Z" fill="#333333"/>
<path d="M135.594 72.125C135.448 72.125 135.354 72.1146 135.312 72.0938C135.292 72.0521 135.323 71.9792 135.406 71.875C135.698 71.6042 135.927 71.3438 136.094 71.0938C136.281 70.8229 136.479 70.3958 136.688 69.8125C137.021 68.8542 137.188 68.1146 137.188 67.5938C137.188 67.1146 137.156 66.6771 137.094 66.2812V66.1875C137.094 65.9583 137.24 65.8854 137.531 65.9688C137.781 66.0312 138.062 66.1146 138.375 66.2188C138.438 66.1979 138.531 66.1875 138.656 66.1875C138.781 66.1667 138.979 66.1354 139.25 66.0938C139.958 65.9896 140.875 65.8854 142 65.7812C142 65.6979 142.083 65.4062 142.25 64.9062L142.438 64.2188C142.521 63.9271 142.49 63.7812 142.344 63.7812C141.927 63.7812 140.958 63.8854 139.438 64.0938L137.781 64.375C137.635 64.3958 137.448 64.3333 137.219 64.1875C137.01 64.0417 136.844 63.875 136.719 63.6875C136.615 63.5 136.635 63.375 136.781 63.3125C136.948 63.2083 137.115 63.1562 137.281 63.1562C137.448 63.1562 137.552 63.1562 137.594 63.1562H138L140.062 63.0938L142.062 62.8438C142.167 62.8229 142.292 62.7917 142.438 62.75C142.604 62.6875 142.76 62.6458 142.906 62.625C143.115 62.5833 143.469 62.8125 143.969 63.3125C144.052 63.3958 144.094 63.4896 144.094 63.5938C144.094 63.7188 144.01 63.8438 143.844 63.9688C143.615 64.1979 143.469 64.3958 143.406 64.5625C143.385 64.6667 143.344 64.8229 143.281 65.0312C143.219 65.2188 143.156 65.4583 143.094 65.75C143.219 65.8958 143.281 66.0729 143.281 66.2812C143.281 66.4479 143.229 66.5729 143.125 66.6562C143.042 66.7188 142.865 66.75 142.594 66.75C141.656 66.8125 140.917 66.875 140.375 66.9375C139.833 66.9792 139.177 67.0833 138.406 67.25C138.323 68.1875 138.135 69.0521 137.844 69.8438C137.552 70.6146 137.146 71.1979 136.625 71.5938C136.125 71.9479 135.781 72.125 135.594 72.125ZM143.562 81.8438C143.854 82.0312 144 82.2083 144 82.375C144 82.6042 143.823 82.75 143.469 82.8125C143.115 82.875 142.615 82.9167 141.969 82.9375C141.031 82.9583 140.427 82.9271 140.156 82.8438C139.698 82.6354 139.469 82.2917 139.469 81.8125L139.5 80.6562C139.542 80.2812 139.562 79.9479 139.562 79.6562C139.583 79.4688 139.594 79.1042 139.594 78.5625C139.281 79.2708 138.875 79.9583 138.375 80.625C138.021 81.0625 137.708 81.4271 137.438 81.7188C137.167 81.9896 136.844 82.25 136.469 82.5C136.094 82.75 135.75 82.875 135.438 82.875C135.25 82.875 135.156 82.8125 135.156 82.6875C135.156 82.6667 135.354 82.5104 135.75 82.2188C136.167 81.9062 136.583 81.4792 137 80.9375C137.625 80.1042 138.167 79.125 138.625 78C137.812 78.1042 137.271 78.1979 137 78.2812C136.896 78.3021 136.802 78.3333 136.719 78.375C136.635 78.3958 136.531 78.3958 136.406 78.375C136.302 78.3333 136.156 78.25 135.969 78.125C135.781 77.9792 135.635 77.8438 135.531 77.7188C135.448 77.5938 135.406 77.5104 135.406 77.4688C135.406 77.3646 135.562 77.3125 135.875 77.3125C136.646 77.3125 137.635 77.2292 138.844 77.0625C138.969 76.5833 139.031 75.8125 139.031 74.75V74.1562C139.031 73.9062 139.083 73.7708 139.188 73.75C139.208 73.7292 139.25 73.7188 139.312 73.7188C139.479 73.7188 139.708 73.8438 140 74.0938C140.229 74.2812 140.375 74.4271 140.438 74.5312C140.521 74.6146 140.531 74.7292 140.469 74.875C140.448 74.9167 140.406 75 140.344 75.125C140.281 75.25 140.24 75.375 140.219 75.5C140.198 75.6042 140.156 75.8125 140.094 76.125C140.031 76.4167 139.99 76.6771 139.969 76.9062C140.26 76.8854 140.625 76.8438 141.062 76.7812C141.5 76.7188 141.823 76.6562 142.031 76.5938L142.656 76.4375C142.865 76.3958 143.208 76.5729 143.688 76.9688C143.771 77.0312 143.812 77.1042 143.812 77.1875C143.812 77.2708 143.771 77.3438 143.688 77.4062C143.625 77.4479 143.542 77.4688 143.438 77.4688C143.062 77.4688 142.375 77.5312 141.375 77.6562L140.344 77.75C140.573 77.9167 140.719 78.0625 140.781 78.1875C140.844 78.3125 140.854 78.4375 140.812 78.5625L140.719 79.0625C140.677 79.4792 140.635 79.9375 140.594 80.4375C140.573 80.9375 140.573 81.3229 140.594 81.5938C140.594 81.6979 140.656 81.7917 140.781 81.875C140.927 81.9583 141.073 82 141.219 82C141.74 82 142.323 81.9479 142.969 81.8438L143.25 81.7812C143.375 81.7812 143.479 81.8021 143.562 81.8438ZM149.688 70.7812C149.75 70.7812 149.812 70.8125 149.875 70.875C149.938 70.9167 149.979 70.9792 150 71.0625V71.125C150 71.2708 149.885 71.5521 149.656 71.9688L147.406 75.875C147.24 76.2292 147.021 76.4062 146.75 76.4062C146.479 76.4062 146.25 76.2396 146.062 75.9062C145.875 75.6354 145.646 75.2292 145.375 74.6875C145.25 74.5 145.146 74.3125 145.062 74.125C144.979 73.9375 144.917 73.8021 144.875 73.7188C144.646 73.3229 144.531 73.0417 144.531 72.875C144.531 72.7917 144.562 72.7292 144.625 72.6875C144.688 72.625 144.75 72.5938 144.812 72.5938C145.042 72.5938 145.25 72.7188 145.438 72.9688C145.583 73.1146 145.698 73.2708 145.781 73.4375L146.125 73.9062L146.75 74.625L147.031 74.1875C147.323 73.6875 148.01 72.6979 149.094 71.2188C149.323 70.9271 149.521 70.7812 149.688 70.7812ZM112.906 82V82.0938C112.906 82.4688 112.719 82.6562 112.344 82.6562C112.073 82.6562 111.76 82.5833 111.406 82.4375C111.052 82.2917 110.875 82 110.875 81.5625L110.906 81.3438C110.969 80.9896 111 80.625 111 80.25L110.969 79.5938L110.562 73.3438C110.521 72.6771 110.448 72.25 110.344 72.0625C110.302 72 110.25 71.9062 110.188 71.7812C110.125 71.6562 110.094 71.5625 110.094 71.5C110.094 71.3958 110.177 71.3438 110.344 71.3438C110.677 71.3438 111.344 71.5312 112.344 71.9062L125.094 71.25H125.469C125.76 71.25 126.062 71.3438 126.375 71.5312C126.708 71.6979 126.875 71.9062 126.875 72.1562C126.875 72.2396 126.844 72.3438 126.781 72.4688C126.74 72.5729 126.708 72.6667 126.688 72.75L126.125 79.4688C126.625 79.9896 126.875 80.375 126.875 80.625C126.875 80.75 126.812 80.8333 126.688 80.875C126.562 80.8958 126.333 80.9167 126 80.9375L112.875 81.3438L112.906 82ZM105.406 69C105.406 68.8542 105.448 68.7083 105.531 68.5625C105.969 67.7083 106.365 66.7188 106.719 65.5938C107.073 64.4479 107.323 63.3854 107.469 62.4062C107.51 62.1562 107.562 61.9792 107.625 61.875C107.708 61.75 107.844 61.6875 108.031 61.6875C108.26 61.6875 108.5 61.7292 108.75 61.8125C109.021 61.8958 109.156 62.0938 109.156 62.4062C109.156 62.5312 109.146 62.6354 109.125 62.7188L108.938 63.9062L117.469 63.4062L117.531 60.125C117.531 59.7292 117.385 59.2917 117.094 58.8125C117.01 58.7083 116.969 58.5938 116.969 58.4688C116.969 58.3021 117.104 58.2188 117.375 58.2188C117.729 58.2188 118.167 58.3229 118.688 58.5312C119.229 58.7396 119.5 59 119.5 59.3125V59.375L119.312 63.2812L121.281 63.1562C122.531 62.0729 123.333 61.2396 123.688 60.6562C124.062 60.0521 124.26 59.5417 124.281 59.125C124.281 59.0208 124.302 58.9375 124.344 58.875C124.406 58.8125 124.479 58.7812 124.562 58.7812C124.812 58.7812 125.188 59 125.688 59.4375C126.083 59.8125 126.281 60.1146 126.281 60.3438C126.281 60.5729 125.948 60.9792 125.281 61.5625C124.615 62.125 123.938 62.6146 123.25 63.0312L130.188 62.625H130.594C131.052 62.625 131.427 62.7396 131.719 62.9688C132.01 63.1979 132.156 63.4167 132.156 63.625C132.156 63.75 132.083 63.875 131.938 64C131.792 64.1042 131.688 64.1979 131.625 64.2812C130.583 65.6146 129.646 66.6354 128.812 67.3438C128 68.0312 127.469 68.375 127.219 68.375C127.094 68.375 127.031 68.3125 127.031 68.1875C127.031 68 127.135 67.7604 127.344 67.4688C128.24 66.2396 128.906 65.125 129.344 64.125L108.656 65.2812C108.177 67.2604 107.802 68.5417 107.531 69.125C107.26 69.6875 107.021 69.9688 106.812 69.9688C106.708 69.9479 106.542 69.9062 106.312 69.8438C106.104 69.7604 105.896 69.6458 105.688 69.5C105.5 69.3542 105.406 69.1875 105.406 69ZM106.875 86.6562C106.875 86.4896 107.073 86.3333 107.469 86.1875C109.51 85.4792 111.188 84.7188 112.5 83.9062C113.812 83.0729 114.552 82.3854 114.719 81.8438C114.781 81.6562 114.885 81.5625 115.031 81.5625C115.26 81.5625 115.583 81.8229 116 82.3438C116.417 82.8438 116.625 83.2396 116.625 83.5312C116.625 83.7188 116.5 83.8854 116.25 84.0312C113.229 85.5521 110.354 86.5 107.625 86.875L107.375 86.9062C107.042 86.9062 106.875 86.8229 106.875 86.6562ZM110.406 60.4062C110.406 60.2396 110.479 60.0521 110.625 59.8438C110.771 59.6146 110.948 59.5 111.156 59.5C111.302 59.5 111.729 59.7083 112.438 60.125C113.167 60.5208 113.833 60.9583 114.438 61.4375C115.042 61.8958 115.344 62.2396 115.344 62.4688C115.344 62.7604 115.219 63.0208 114.969 63.25C114.719 63.4583 114.531 63.5625 114.406 63.5625C114.219 63.5625 114.01 63.4479 113.781 63.2188C112.885 62.3646 111.865 61.5625 110.719 60.8125C110.51 60.6667 110.406 60.5312 110.406 60.4062ZM111.5 65.8438C111.5 65.7396 111.583 65.6875 111.75 65.6875C112.062 65.6875 112.74 65.8646 113.781 66.2188L123.156 65.6562H123.469C123.823 65.6562 124.135 65.7604 124.406 65.9688C124.698 66.1562 124.844 66.3438 124.844 66.5312C124.844 66.6146 124.812 66.7188 124.75 66.8438C124.688 66.9479 124.646 67.0312 124.625 67.0938L124.281 68.6562C124.677 69.1354 124.875 69.4792 124.875 69.6875C124.875 69.8125 124.812 69.8958 124.688 69.9375C124.562 69.9792 124.354 70.0104 124.062 70.0312L114.25 70.4688L114.281 70.75V70.8125C114.281 71.125 114.104 71.2812 113.75 71.2812C113.438 71.2812 113.115 71.2188 112.781 71.0938C112.448 70.9688 112.281 70.7396 112.281 70.4062V70.25C112.323 69.875 112.344 69.625 112.344 69.5C112.344 69.375 112.323 69.1667 112.281 68.875L112.094 67.6562C112.01 67.0729 111.875 66.625 111.688 66.3125C111.562 66.0833 111.5 65.9271 111.5 65.8438ZM112.5 74.5312L124.594 73.9688L124.688 72.6875L112.438 73.2812L112.5 74.5312ZM112.656 77.125L124.406 76.625L124.5 75.25L112.562 75.8125L112.656 77.125ZM112.781 79.9375L124.219 79.5625L124.312 77.9688L112.719 78.4375L112.781 79.9375ZM114.094 69.1562L122.438 68.75L122.656 67.0625L113.906 67.5312L114.094 69.1562ZM120.969 82.9688C120.969 82.6146 121.042 82.3229 121.188 82.0938C121.354 81.8438 121.531 81.7188 121.719 81.7188C121.99 81.7188 122.927 82.0521 124.531 82.7188C126.156 83.3854 127.646 84.1042 129 84.875C129.229 85 129.396 85.1146 129.5 85.2188C129.604 85.3438 129.656 85.4792 129.656 85.625C129.656 85.8125 129.562 86.0938 129.375 86.4688C129.188 86.8646 128.958 87.0625 128.688 87.0625C128.542 87.0625 128.323 86.9792 128.031 86.8125C125.885 85.4792 123.729 84.4062 121.562 83.5938C121.354 83.5104 121.198 83.4271 121.094 83.3438C121.01 83.2396 120.969 83.1146 120.969 82.9688ZM190.219 72.0938C190.073 72.0938 189.917 72 189.75 71.8125C189.625 71.6667 189.542 71.5521 189.5 71.4688C189.458 71.3646 189.458 71.2292 189.5 71.0625L189.531 70.3125C189.552 70.1667 189.562 69.8125 189.562 69.25V68.2188L188.625 68.6562L187.531 69.125C187.26 69.2292 186.979 69.3542 186.688 69.5C186.438 69.625 186.219 69.6875 186.031 69.6875C185.885 69.6667 185.719 69.6146 185.531 69.5312C185.344 69.4479 185.198 69.375 185.094 69.3125C184.865 69.1667 184.76 69.0104 184.781 68.8438L184.875 68.5312C184.875 68.3646 184.885 68.2188 184.906 68.0938L184.938 66.2812V64.5938C184.938 64.2604 184.917 63.9792 184.875 63.75C184.833 63.5 184.802 63.3229 184.781 63.2188C184.781 63.1146 184.812 63.0417 184.875 63C184.896 62.9792 184.948 62.9688 185.031 62.9688C185.177 62.9688 185.458 63.0625 185.875 63.25C186.229 63.4167 186.375 63.625 186.312 63.875C186.271 64.0208 186.229 64.2396 186.188 64.5312L186.094 68.125C186.094 68.2292 186.104 68.3125 186.125 68.375C186.167 68.4167 186.208 68.4375 186.25 68.4375C186.5 68.4375 186.802 68.3646 187.156 68.2188C187.823 68.0104 188.396 67.8021 188.875 67.5938L189.562 67.3125V65.25C189.562 64.4167 189.51 63.6146 189.406 62.8438C189.385 62.7812 189.375 62.7083 189.375 62.625C189.375 62.4167 189.458 62.3125 189.625 62.3125C189.646 62.3125 189.76 62.3542 189.969 62.4375C190.281 62.6042 190.51 62.75 190.656 62.875C190.802 63 190.885 63.0729 190.906 63.0938C190.99 63.1562 191.031 63.2188 191.031 63.2812C191.031 63.3229 191.01 63.375 190.969 63.4375C190.948 63.5 190.927 63.5521 190.906 63.5938L190.812 64.5312L190.781 67.4062L190.812 70.1875C190.812 70.6667 190.781 71.0833 190.719 71.4375C190.615 71.875 190.448 72.0938 190.219 72.0938ZM185.156 81.2188C184.469 80.9688 184.146 80.6979 184.188 80.4062C184.312 79.5312 184.375 78.5312 184.375 77.4062C184.375 76.9062 184.365 76.5417 184.344 76.3125C184.323 76.0417 184.302 75.8125 184.281 75.625C184.26 75.4167 184.26 75.3021 184.281 75.2812C184.365 75.1979 184.469 75.1562 184.594 75.1562C184.781 75.1562 185.01 75.2396 185.281 75.4062C185.573 75.5729 185.719 75.7396 185.719 75.9062C185.719 76.0104 185.708 76.1146 185.688 76.2188C185.667 76.3021 185.656 76.3958 185.656 76.5L185.469 79.5938C185.469 79.7604 185.531 79.8646 185.656 79.9062H185.812C185.979 79.9062 186.094 79.8958 186.156 79.875L190.188 79.3125V78.5C190.188 77.4792 190.167 76.6875 190.125 76.125C190.104 75.6458 190.052 75.2604 189.969 74.9688C189.906 74.6354 189.99 74.4688 190.219 74.4688C190.385 74.4688 190.604 74.5312 190.875 74.6562C191.208 74.8229 191.406 74.9688 191.469 75.0938C191.531 75.1979 191.552 75.3646 191.531 75.5938C191.49 75.9688 191.469 76.5312 191.469 77.2812L191.5 79.6562C191.5 80.1562 191.406 80.5521 191.219 80.8438C191.115 80.9688 191.01 81.0312 190.906 81.0312C190.802 81.0312 190.656 80.9375 190.469 80.75C190.427 80.7083 190.375 80.6458 190.312 80.5625C190.25 80.4792 190.188 80.4271 190.125 80.4062C190.062 80.3854 189.979 80.375 189.875 80.375C189.396 80.4167 188.24 80.5729 186.406 80.8438C186.094 80.8854 185.844 80.9688 185.656 81.0938C185.448 81.1979 185.312 81.25 185.25 81.25L185.156 81.2188ZM197.562 68.7188C197.812 68.7188 197.938 68.8333 197.938 69.0625C197.938 69.1875 197.823 69.3646 197.594 69.5938C196.969 70.3646 195.729 71.8333 193.875 74C193.729 74.1875 193.594 74.2812 193.469 74.2812C193.365 74.2812 193.135 74.125 192.781 73.8125C192.49 73.5625 192.344 73.3542 192.344 73.1875C192.344 73 192.5 72.8229 192.812 72.6562C193.292 72.3854 194.01 71.8438 194.969 71.0312C195.927 70.1771 196.635 69.5 197.094 69C197.281 68.8125 197.438 68.7188 197.562 68.7188ZM173.562 85.2188C173.708 85.2188 173.812 85.125 173.875 84.9375C174.417 83.1042 174.844 80.6354 175.156 77.5312C175.469 74.4271 175.656 71.3333 175.719 68.25L159.812 69.1875C158.479 70.8958 157.01 72.3958 155.406 73.6875L155.25 73.8125C154.979 74.0417 154.688 74.1562 154.375 74.1562C154.229 74.1562 154.156 74.0938 154.156 73.9688C154.156 73.7812 154.323 73.5208 154.656 73.1875C154.969 72.875 155.5 72.2604 156.25 71.3438C157.021 70.4271 157.75 69.3958 158.438 68.25C159.146 67.0833 159.521 66.0729 159.562 65.2188C159.562 65.0104 159.667 64.9062 159.875 64.9062C160 64.9062 160.198 64.9896 160.469 65.1562C160.76 65.3229 161.021 65.5208 161.25 65.75C161.479 65.9792 161.594 66.1979 161.594 66.4062C161.594 66.4896 161.562 66.5833 161.5 66.6875C161.312 67.0417 161.125 67.3333 160.938 67.5625L176.188 66.6562H176.469C176.865 66.6562 177.188 66.7812 177.438 67.0312C177.708 67.2604 177.844 67.4896 177.844 67.7188C177.844 67.8229 177.812 67.9792 177.75 68.1875C177.688 68.375 177.656 68.5208 177.656 68.625C177.531 71.6875 177.271 75.2708 176.875 79.375C176.5 83.4583 175.938 85.8958 175.188 86.6875C174.729 87.1458 174.302 87.375 173.906 87.375C173.594 87.375 173.25 87.2812 172.875 87.0938C171.292 86.3646 170.135 85.7083 169.406 85.125C168.677 84.5417 168.312 84.1146 168.312 83.8438C168.312 83.7396 168.396 83.6875 168.562 83.6875C168.771 83.6875 169.094 83.7812 169.531 83.9688C170.719 84.4688 172.031 84.8854 173.469 85.2188H173.562ZM153.719 62.9375C153.719 62.8125 153.802 62.75 153.969 62.75C154.052 62.75 154.115 62.7604 154.156 62.7812C154.51 62.8646 154.885 62.9062 155.281 62.9062L155.812 62.875L161.688 62.5312L161.5 61.1875C161.479 61.0417 161.396 60.8438 161.25 60.5938C161.104 60.3229 160.948 60.1042 160.781 59.9375C160.635 59.7917 160.562 59.6667 160.562 59.5625C160.562 59.375 160.781 59.2812 161.219 59.2812C161.448 59.2812 161.729 59.3125 162.062 59.375C162.479 59.4375 162.771 59.5417 162.938 59.6875C163.104 59.8333 163.208 60.0104 163.25 60.2188L163.562 62.4062L164.844 62.3125C165.115 62.3125 165.292 62.3229 165.375 62.3438C165.542 62.3854 165.667 62.4583 165.75 62.5625C165.854 62.6458 165.906 62.7604 165.906 62.9062C165.906 63.1562 165.812 63.3333 165.625 63.4375C165.458 63.5417 165.219 63.6146 164.906 63.6562C164.76 63.6771 164.562 63.6979 164.312 63.7188C164.083 63.7396 163.906 63.75 163.781 63.75L164.125 66.0938V66.2812C164.125 66.6562 163.948 66.8438 163.594 66.8438C163.302 66.8438 162.969 66.7708 162.594 66.625C162.219 66.4583 162.031 66.1667 162.031 65.75V65.0625C162.031 64.8125 162.021 64.6146 162 64.4688L161.938 64.125L156.281 64.4688C156.052 64.4896 155.781 64.5 155.469 64.5C154.99 64.5 154.604 64.3542 154.312 64.0625C154.021 63.75 153.823 63.375 153.719 62.9375ZM155.25 84.1562C155.25 83.9479 155.385 83.7708 155.656 83.625C156.49 83.0625 157.344 82.3438 158.219 81.4688C159.094 80.5938 159.844 79.625 160.469 78.5625C160.635 78.2917 160.76 77.9479 160.844 77.5312C160.927 77.3229 161.062 77.25 161.25 77.3125C161.458 77.3542 161.75 77.5521 162.125 77.9062C162.521 78.2396 162.719 78.5625 162.719 78.875C162.719 79.0417 162.646 79.1875 162.5 79.3125C162.375 79.4167 162.281 79.5104 162.219 79.5938C161.615 80.4479 160.854 81.2396 159.938 81.9688C159.021 82.6979 158.135 83.2812 157.281 83.7188C156.448 84.1354 155.833 84.3438 155.438 84.3438C155.312 84.3438 155.25 84.2812 155.25 84.1562ZM155.438 75.625C155.438 75.5417 155.479 75.5 155.562 75.5C155.625 75.5 155.667 75.5104 155.688 75.5312C156.104 75.6354 156.583 75.6875 157.125 75.6875H157.562L163.906 75.3125L163.938 71.4688C163.938 70.8854 163.823 70.3438 163.594 69.8438L163.531 69.6875C163.531 69.5417 163.656 69.4688 163.906 69.4688C164.323 69.4688 164.729 69.5625 165.125 69.75C165.521 69.9375 165.719 70.1562 165.719 70.4062L165.688 75.1875L170.531 74.9062C170.865 74.8854 171.167 74.8542 171.438 74.8125C171.729 74.75 171.958 74.7083 172.125 74.6875C172.167 74.6667 172.219 74.6458 172.281 74.625C172.344 74.6042 172.417 74.5938 172.5 74.5938C172.812 74.5938 173.125 74.75 173.438 75.0625C173.75 75.375 173.906 75.625 173.906 75.8125C173.906 76.0417 173.688 76.1771 173.25 76.2188L165.688 76.6562V77.5938C165.833 77.4896 165.958 77.4375 166.062 77.4375C166.333 77.4375 167.177 77.8542 168.594 78.6875C170.01 79.5208 171.156 80.25 172.031 80.875C172.24 81.0208 172.396 81.1562 172.5 81.2812C172.604 81.3854 172.656 81.5208 172.656 81.6875C172.656 81.8333 172.594 82.0208 172.469 82.25C172.24 82.625 172.021 82.8125 171.812 82.8125C171.708 82.8125 171.594 82.7812 171.469 82.7188C171.365 82.6354 171.25 82.5417 171.125 82.4375C170.479 81.9167 169.583 81.3229 168.438 80.6562C167.271 79.9479 166.396 79.375 165.812 78.9375L165.688 78.8438L165.656 85.3125C165.656 85.5 165.604 85.6458 165.5 85.75C165.417 85.875 165.292 85.9375 165.125 85.9375C165.062 85.9375 164.896 85.8854 164.625 85.7812C164.375 85.6979 164.146 85.5625 163.938 85.375C163.729 85.1875 163.625 84.9688 163.625 84.7188C163.625 84.6146 163.635 84.5417 163.656 84.5C163.781 84 163.844 83.3125 163.844 82.4375L163.875 76.75L157.781 77.125L157.156 77.1562C156.906 77.1562 156.708 77.1354 156.562 77.0938C156.417 77.0312 156.271 76.9375 156.125 76.8125C156.021 76.75 155.875 76.5729 155.688 76.2812C155.521 75.9896 155.438 75.7708 155.438 75.625ZM158.625 72.1562C158.625 72.0104 158.688 71.875 158.812 71.75C159.042 71.4583 159.24 71.3125 159.406 71.3125C159.635 71.3125 160.125 71.5833 160.875 72.125C161.646 72.6458 162.281 73.1042 162.781 73.5C163.01 73.6667 163.125 73.8646 163.125 74.0938C163.125 74.3646 163.01 74.6042 162.781 74.8125C162.552 75.0208 162.354 75.125 162.188 75.125C162.021 75.125 161.823 75.0104 161.594 74.7812C161.219 74.4062 160.781 74.0208 160.281 73.625C159.781 73.2083 159.312 72.8646 158.875 72.5938C158.812 72.5521 158.75 72.4896 158.688 72.4062C158.646 72.3229 158.625 72.2396 158.625 72.1562ZM166.531 74.6562C166.531 74.4896 166.677 74.2708 166.969 74C167.781 73.3125 168.417 72.6562 168.875 72.0312C169.333 71.3854 169.573 70.9167 169.594 70.625C169.615 70.3542 169.729 70.2188 169.938 70.2188C170.208 70.2188 170.51 70.4271 170.844 70.8438C171.177 71.2396 171.344 71.5521 171.344 71.7812C171.344 72.0104 171.031 72.375 170.406 72.875C169.781 73.375 169.094 73.8333 168.344 74.25C167.594 74.6667 167.083 74.875 166.812 74.875C166.625 74.875 166.531 74.8021 166.531 74.6562ZM166.938 62.25C166.938 62.2083 166.969 62.1667 167.031 62.125C167.094 62.0833 167.167 62.0729 167.25 62.0938L167.938 62.0625C168.146 62.0625 168.604 62.0417 169.312 62C169.479 61.25 169.562 60.6771 169.562 60.2812V60.0625C169.562 59.6875 169.479 59.3542 169.312 59.0625C169.25 58.9375 169.219 58.8438 169.219 58.7812C169.219 58.6562 169.302 58.5938 169.469 58.5938C169.573 58.5938 169.823 58.6667 170.219 58.8125C170.615 58.9375 170.969 59.1146 171.281 59.3438C171.615 59.5521 171.781 59.7812 171.781 60.0312C171.781 60.1354 171.771 60.2083 171.75 60.25C171.646 60.625 171.469 61.1875 171.219 61.9375L175.875 61.6562C176.5 61.6354 177.021 61.5521 177.438 61.4062C177.604 61.3438 177.76 61.3125 177.906 61.3125C178.219 61.3125 178.542 61.4896 178.875 61.8438C179.229 62.1979 179.406 62.4896 179.406 62.7188C179.406 62.9479 179.177 63.0833 178.719 63.125L170.594 63.625C170.26 64.375 169.958 65.0104 169.688 65.5312C169.438 66.0312 169.24 66.3646 169.094 66.5312C168.948 66.6979 168.792 66.7812 168.625 66.7812C168.521 66.7812 168.438 66.7396 168.375 66.6562C168.312 66.5521 168.281 66.4062 168.281 66.2188C168.281 66.0312 168.323 65.8125 168.406 65.5625C168.677 64.6042 168.844 63.9896 168.906 63.7188L168.406 63.75C168.031 63.75 167.688 63.6042 167.375 63.3125C167.062 63 166.917 62.6562 166.938 62.2812V62.25ZM231.312 67.75C231.292 67.75 231.219 67.7708 231.094 67.8125C230.99 67.8333 230.938 67.8021 230.938 67.7188C230.938 67.6979 230.979 67.6562 231.062 67.5938C231.146 67.5104 231.219 67.4375 231.281 67.375C231.344 67.3125 231.438 67.2292 231.562 67.125C231.688 67 231.781 66.875 231.844 66.75C232.156 66.2292 232.375 65.7083 232.5 65.1875L232.688 64.0938C232.833 63.2812 232.896 62.3333 232.875 61.25C232.875 61 232.844 60.7396 232.781 60.4688C232.76 60.3438 232.656 60.1667 232.469 59.9375V59.9062C232.469 59.8646 232.521 59.8438 232.625 59.8438C232.771 59.8438 232.896 59.8542 233 59.875C233.271 59.9375 233.573 59.9688 233.906 59.9688C234.26 59.9479 234.479 59.9375 234.562 59.9375L236.656 59.7812C237.073 59.7396 237.344 59.7188 237.469 59.7188C238.365 59.5938 238.771 59.5417 238.688 59.5625C239.167 59.4792 239.458 59.4375 239.562 59.4375C239.896 59.4583 240.229 59.7188 240.562 60.2188L240.625 60.375C240.625 60.5 240.531 60.5729 240.344 60.5938C240.156 60.6146 240.042 60.625 240 60.625C239.354 60.625 238.875 60.6354 238.562 60.6562C237.771 60.6562 237.188 60.6667 236.812 60.6875L235.938 60.75L234.156 60.9375C234.031 62.6875 233.917 63.8333 233.812 64.375C233.646 65.3542 233.323 66.1458 232.844 66.75C232.49 67.2083 231.979 67.5417 231.312 67.75ZM239.188 76.5938C238.875 76.5938 238.573 76.3646 238.281 75.9062C237.906 75.3229 237.542 74.8438 237.188 74.4688L236.375 73.625C235.938 74.125 235.552 74.5208 235.219 74.8125C234.906 75.1042 234.51 75.3854 234.031 75.6562C233.135 76.1771 232.385 76.4375 231.781 76.4375C231.635 76.4375 231.562 76.3854 231.562 76.2812C231.562 76.2188 231.76 76.0833 232.156 75.875C232.552 75.6667 232.927 75.4167 233.281 75.125C234.177 74.375 234.917 73.6042 235.5 72.8125C235.375 72.6875 234.75 72.1458 233.625 71.1875C233.479 71.0833 233.26 70.9062 232.969 70.6562C232.906 70.6146 232.781 70.5208 232.594 70.375C232.406 70.2292 232.312 70.125 232.312 70.0625C232.312 69.9583 232.365 69.9062 232.469 69.9062C232.781 69.9062 233.281 70.125 233.969 70.5625C234.656 70.9792 235.375 71.4792 236.125 72.0625C236.417 71.7083 236.646 71.375 236.812 71.0625C236.979 70.75 237.167 70.3646 237.375 69.9062C237.479 69.6771 237.542 69.4792 237.562 69.3125C237.583 69.125 237.594 69.0104 237.594 68.9688C237.594 68.7396 237.656 68.625 237.781 68.625C237.927 68.625 238.125 68.7396 238.375 68.9688C238.812 69.3854 239.031 69.6667 239.031 69.8125C239.031 69.8958 238.979 69.9896 238.875 70.0938C238.625 70.3438 238.396 70.6771 238.188 71.0938C238.062 71.3438 237.833 71.6979 237.5 72.1562C237.396 72.2812 237.312 72.3958 237.25 72.5C237.188 72.6042 237.125 72.6979 237.062 72.7812C237.542 73.1354 238.25 73.7396 239.188 74.5938C239.417 74.8021 239.562 75 239.625 75.1875C239.708 75.3542 239.75 75.5833 239.75 75.875C239.75 76.0833 239.698 76.2604 239.594 76.4062C239.49 76.5312 239.354 76.5938 239.188 76.5938ZM236.031 86.5312C235.885 86.5312 235.781 86.4896 235.719 86.4062C235.656 86.3229 235.615 86.2708 235.594 86.25C235.385 85.9583 235.292 85.6771 235.312 85.4062C235.333 85.2396 235.365 84.7917 235.406 84.0625L235.438 82.5625C235.417 82.3333 235.396 82.1979 235.375 82.1562C235.354 82.0938 235.26 81.9688 235.094 81.7812C234.76 81.3646 234.375 80.9375 233.938 80.5C233.438 80 233.115 79.6667 232.969 79.5C232.969 79.5 232.656 79.1875 232.031 78.5625C231.969 78.5 231.938 78.4375 231.938 78.375C231.938 78.2708 232 78.1875 232.125 78.125C232.271 78.0417 232.417 78.0104 232.562 78.0312C232.979 78.0729 233.25 78.125 233.375 78.1875C233.521 78.2292 233.656 78.3542 233.781 78.5625C233.906 78.7708 234.083 79.0208 234.312 79.3125C234.562 79.5833 234.75 79.7917 234.875 79.9375C235.396 80.5625 235.76 80.9792 235.969 81.1875C236.344 80.75 236.812 80.125 237.375 79.3125C237.833 78.7292 238.104 78.25 238.188 77.875C238.271 77.6042 238.396 77.4688 238.562 77.4688C238.646 77.4688 238.771 77.5208 238.938 77.625C239.479 77.9583 239.75 78.2292 239.75 78.4375C239.75 78.5625 239.615 78.7188 239.344 78.9062C238.969 79.1771 238.656 79.4792 238.406 79.8125L237.781 80.5938C237.365 81.0938 237.052 81.4896 236.844 81.7812C236.74 81.9688 236.688 82.2396 236.688 82.5938V84.5V85.75C236.708 85.8958 236.625 86.0625 236.438 86.25C236.271 86.4375 236.135 86.5312 236.031 86.5312ZM212.344 68.4062C212.344 68.7812 212.167 68.9688 211.812 68.9688C211.458 68.9688 211.104 68.875 210.75 68.6875C210.396 68.4792 210.219 68.2292 210.219 67.9375V67.7812C210.219 67.6354 210.229 67.4896 210.25 67.3438C210.271 67.1979 210.281 67.0625 210.281 66.9375C210.281 66.8333 210.26 66.6354 210.219 66.3438L210.125 65.9062L204.188 66.25C204 66.2708 203.76 66.2812 203.469 66.2812C203.177 66.2812 202.948 66.2604 202.781 66.2188C202.635 66.1771 202.51 66.1042 202.406 66C202.219 65.8333 202.042 65.5938 201.875 65.2812C201.708 64.9479 201.625 64.7292 201.625 64.625C201.625 64.5 201.708 64.4375 201.875 64.4375C201.958 64.4375 202.021 64.4479 202.062 64.4688C202.417 64.5521 202.76 64.5938 203.094 64.5938L203.625 64.5625L209.844 64.1875L209.375 61.7188C209.333 61.4688 209.25 61.25 209.125 61.0625C209.021 60.875 208.865 60.6562 208.656 60.4062C208.552 60.2604 208.5 60.1354 208.5 60.0312C208.5 59.8438 208.708 59.75 209.125 59.75C209.354 59.75 209.635 59.7812 209.969 59.8438C210.406 59.9271 210.698 60.0312 210.844 60.1562C211.01 60.2812 211.115 60.4583 211.156 60.6875L211.688 64.0938L212.75 64.0312C213.021 64.0312 213.198 64.0417 213.281 64.0625C213.448 64.0833 213.573 64.1562 213.656 64.2812C213.76 64.3854 213.812 64.5208 213.812 64.6875C213.792 64.9167 213.688 65.0833 213.5 65.1875C213.312 65.2708 213.062 65.3333 212.75 65.375C212.562 65.4167 212.281 65.4375 211.906 65.4375L212.344 68.25V68.4062ZM200.781 80.0938C200.781 79.8229 201.021 79.5208 201.5 79.1875C203 78.0625 204.385 76.8438 205.656 75.5312C206.948 74.2188 207.979 73.0104 208.75 71.9062C209.542 70.7812 209.969 69.9479 210.031 69.4062C210.094 69.0312 210.219 68.8438 210.406 68.8438C210.552 68.8438 210.76 68.9375 211.031 69.125C211.323 69.2917 211.573 69.5104 211.781 69.7812C212.01 70.0312 212.125 70.2708 212.125 70.5C212.125 70.9167 211.615 71.6875 210.594 72.8125C209.573 73.9167 209.042 74.4896 209 74.5312L209.062 86.5C209.062 86.8333 208.885 87 208.531 87C208.24 87 207.875 86.8542 207.438 86.5625C207.021 86.2917 206.812 85.9896 206.812 85.6562L206.844 85.4375C206.969 84.6667 207.031 83.7708 207.031 82.75L207.125 76.375C205.562 77.75 203.812 78.9688 201.875 80.0312C201.542 80.2188 201.271 80.3125 201.062 80.3125C200.875 80.3125 200.781 80.2396 200.781 80.0938ZM214.094 69.3125C214.094 69.1667 214.208 69.0938 214.438 69.0938C214.562 69.1146 214.792 69.1667 215.125 69.25C215.479 69.3125 215.812 69.4375 216.125 69.625C216.438 69.7917 216.594 70 216.594 70.25L216.562 74.0625L223.031 73.0312C223.49 72.9688 223.875 72.8438 224.188 72.6562C224.396 72.5521 224.542 72.5 224.625 72.5C224.875 72.5 225.188 72.6458 225.562 72.9375C225.938 73.2083 226.135 73.5104 226.156 73.8438C226.156 74.1562 225.896 74.3646 225.375 74.4688L216.531 75.9375L216.469 81.7812V81.875C216.469 82.5 216.615 82.9792 216.906 83.3125C217.219 83.625 217.708 83.8542 218.375 84C219.062 84.125 220.01 84.1875 221.219 84.1875C222.677 84.1875 223.948 84.0729 225.031 83.8438C225.448 83.7604 225.781 83.625 226.031 83.4375C226.281 83.2292 226.521 82.7812 226.75 82.0938C226.979 81.3854 227.188 80.3021 227.375 78.8438C227.438 78.3854 227.521 78.0312 227.625 77.7812C227.729 77.5312 227.844 77.4062 227.969 77.4062C228.385 77.4062 228.594 78.5521 228.594 80.8438C228.594 81.9896 228.531 82.8854 228.406 83.5312C228.281 84.1562 228 84.6667 227.562 85.0625C227.146 85.4583 226.49 85.7188 225.594 85.8438C224.01 86.0521 222.49 86.1562 221.031 86.1562C219.385 86.1562 218.115 86.0625 217.219 85.875C216.323 85.7083 215.646 85.3438 215.188 84.7812C214.729 84.2396 214.5 83.3958 214.5 82.25L214.562 71.0938C214.562 70.5312 214.427 70.0104 214.156 69.5312C214.115 69.4688 214.094 69.3958 214.094 69.3125ZM214.969 63.9688C214.969 63.9271 215 63.8854 215.062 63.8438C215.125 63.8021 215.198 63.7917 215.281 63.8125L216 63.7812C216.208 63.7812 216.688 63.7604 217.438 63.7188C217.729 62.5521 217.875 61.5104 217.875 60.5938C217.875 60.1979 217.792 59.8542 217.625 59.5625C217.562 59.4375 217.531 59.3438 217.531 59.2812C217.531 59.1562 217.625 59.0938 217.812 59.0938C217.979 59.0938 218.25 59.1667 218.625 59.3125C219.021 59.4583 219.375 59.6458 219.688 59.875C220 60.0833 220.156 60.3021 220.156 60.5312L220.125 60.7188C219.917 61.6979 219.656 62.6562 219.344 63.5938L224.125 63.3125C224.75 63.2917 225.271 63.2083 225.688 63.0625C225.854 63 226.01 62.9688 226.156 62.9688C226.427 62.9688 226.74 63.1458 227.094 63.5C227.469 63.8542 227.656 64.1667 227.656 64.4375C227.656 64.6875 227.427 64.8333 226.969 64.875L218.781 65.375C218.24 66.75 217.823 67.7083 217.531 68.25C217.26 68.7708 217.01 69.0312 216.781 69.0312C216.552 69.0312 216.438 68.8229 216.438 68.4062C216.438 68.2188 216.469 67.9896 216.531 67.7188L217.062 65.4375L216.5 65.4688C216.104 65.4688 215.74 65.3229 215.406 65.0312C215.094 64.7188 214.948 64.375 214.969 64V63.9688Z" fill="#333333"/>
</svg>
