<svg xmlns="http://www.w3.org/2000/svg" width="350" height="126" fill="none"><path fill="#333" d="M131.934 8.2c-.164 0-.082-.141.246-.423l1.195-1.02c.469-.421.996-.972 1.582-1.652.375-.445.656-.914.844-1.406.117-.281.246-.422.387-.422.117 0 .292.094.527.282.469.375.703.691.703.949 0 .164-.094.281-.281.351-.094.024-.235.13-.422.317a9.14 9.14 0 0 0-.422.386c-1.008.985-1.945 1.7-2.813 2.145-.703.328-1.171.492-1.406.492h-.14Zm3.691 6.538c-.07 0-.187-.093-.352-.281a2.99 2.99 0 0 1-.316-.598 2.004 2.004 0 0 1 0-.527c.047-.234.07-.41.07-.527.047-.47.071-.844.071-1.125a5.16 5.16 0 0 0 0-.844v-.598l-.036-.527c-.562.398-.996.68-1.3.844-.68.375-1.172.61-1.477.703-.375.14-.715.21-1.019.21-.164 0-.258-.023-.282-.07-.046-.093.422-.433 1.407-1.02.937-.585 1.957-1.358 3.058-2.32.61-.562 1.078-1.101 1.406-1.617a.77.77 0 0 0 .106-.246c.047-.117.094-.187.141-.21.07-.024.164-.012.281.035.305.164.562.398.773.703a.562.562 0 0 1 .141.351c0 .117-.059.235-.176.352a1.396 1.396 0 0 1-.351.21c-.399.259-.762.54-1.09.844-.328.305-.539.504-.633.598.351.281.527.48.527.598l-.105.738c-.047.211-.071.738-.071 1.582 0 .82.024 1.371.071 1.652v.07a.868.868 0 0 1-.106.387c-.047.118-.082.2-.105.247-.164.257-.375.386-.633.386Zm3.586 8.93c-.352 0-.691-.258-1.02-.773-.421-.657-.832-1.196-1.23-1.618l-.914-.949a14.424 14.424 0 0 1-1.301 1.336 6.992 6.992 0 0 1-1.336.95c-1.008.585-1.851.878-2.531.878-.164 0-.246-.058-.246-.176 0-.07.222-.222.668-.457a7.422 7.422 0 0 0 1.265-.843c1.008-.844 1.84-1.711 2.496-2.602-.14-.14-.843-.75-2.109-1.828-.164-.117-.41-.316-.738-.598a9.494 9.494 0 0 1-.422-.316c-.211-.164-.316-.281-.316-.352 0-.117.058-.175.175-.175.352 0 .914.246 1.688.738a25.67 25.67 0 0 1 2.426 1.687 6.91 6.91 0 0 0 .773-1.125c.188-.351.399-.785.633-1.3a2.41 2.41 0 0 0 .211-.668c.023-.211.035-.34.035-.387 0-.258.07-.387.211-.387.164 0 .387.129.668.387.492.469.738.785.738.95 0 .093-.058.198-.176.316-.281.28-.539.656-.773 1.124-.141.282-.398.68-.774 1.196-.117.14-.21.27-.281.387-.07.117-.14.222-.211.316.539.398 1.336 1.078 2.391 2.039.258.234.422.457.492.668.094.187.141.445.141.773 0 .235-.059.434-.176.598a.567.567 0 0 1-.457.211Zm-7.77 10.512c-.351 0-.621-.094-.808-.282-.211-.21-.317-.398-.317-.562 0-.164.094-.34.282-.527.023-.024.152-.211.386-.563.516-.82 1.102-1.863 1.758-3.129.68-1.289 1.102-2.168 1.266-2.637.14-.445.269-.832.387-1.16.14-.328.257-.492.351-.492.164 0 .305.059.422.176.117.094.234.234.352.422.14.164.246.281.316.351.164.188.246.364.246.528a.562.562 0 0 1-.141.351c-.093.117-.152.2-.175.246l-1.547 2.602a72.802 72.802 0 0 1-1.582 2.707.562.562 0 0 0-.141.352c0 .093.106.14.316.14.446 0 1.278-.059 2.497-.176 1.218-.093 2.039-.175 2.461-.246.609-.07 1.031-.14 1.265-.21.258-.071.633.105 1.125.527.586.492.715.808.387.949-.188.094-.551.14-1.09.14h-1.406c-.305 0-.785.024-1.442.07-.398 0-.843.013-1.336.036-.492.023-.902.047-1.23.07-.375.024-1.102.094-2.18.211l-.422.106Zm14.942-15.504c.281 0 .422.129.422.387 0 .14-.129.34-.387.597-.703.867-2.098 2.52-4.184 4.957-.164.211-.316.317-.457.317-.117 0-.375-.176-.773-.528-.328-.281-.492-.515-.492-.703 0-.21.176-.41.527-.598.539-.304 1.348-.914 2.426-1.828 1.078-.96 1.875-1.722 2.39-2.285.211-.21.387-.316.528-.316ZM98.113 34.25c-.375 0-.68-.035-.914-.105a.792.792 0 0 1-.492-.317c-.375-.492-.621-.95-.738-1.371a.488.488 0 0 1-.035-.21c0-.165.082-.247.246-.247l.175.035c.47.14 1.137.211 2.004.211l11.883-.281V28.94l-7.066.282h-.774c-.468 0-.797-.094-.984-.282-.633-.632-.949-1.16-.949-1.582 0-.164.082-.246.246-.246.094 0 .176.012.246.035.469.141.984.211 1.547.211h.316l7.453-.246v-2.531l-5.484.211.035.422v.105c0 .399-.176.598-.527.598-.211 0-.492-.07-.844-.211-.398-.188-.668-.34-.809-.457-.117-.14-.175-.328-.175-.563l.035-.316c.047-.375.07-.715.07-1.02a3.93 3.93 0 0 0-.035-.597l-.598-5.766c-.07-.68-.222-1.265-.457-1.758-.14-.375-.211-.597-.211-.668 0-.14.118-.21.352-.21.375 0 1.16.199 2.355.597l6.328-.351v-2.426l-10.124.527a4.52 4.52 0 0 0-.563.035 3.74 3.74 0 0 1-.527.036c-.47 0-.797-.094-.985-.282-.515-.515-.832-.902-.949-1.16l-.07-.281c0-.14.082-.211.246-.211h.14c.399.07.891.105 1.477.105h.422l10.969-.597V8.27c-1.547.187-3.457.328-5.731.421a66.69 66.69 0 0 0-2.531.141h-.352c-.375 0-.668-.035-.879-.105-.187-.094-.281-.2-.281-.317 0-.14.117-.27.352-.387.234-.14.574-.246 1.019-.316 6.61-.844 11.836-1.84 15.68-2.988.609-.188 1.09-.457 1.441-.809.141-.14.258-.21.352-.21.305 0 .68.292 1.125.878.469.563.703.984.703 1.266 0 .258-.164.422-.492.492a119.685 119.685 0 0 1-8.262 1.617v2.285l10.02-.562a7.476 7.476 0 0 0 1.476-.281l.176-.036c.094 0 .293.094.598.282.304.164.574.375.808.632.235.235.352.446.352.633 0 .235-.258.375-.774.422l-12.691.703v2.461l7.242-.387h.246c.516 0 .914.165 1.196.493.281.304.421.574.421.808a.832.832 0 0 1-.105.352c-.047.14-.082.27-.105.387l-.844 6.398c.539.633.808 1.078.808 1.336 0 .117-.058.2-.175.246a4.053 4.053 0 0 1-.387.07h-.352l-8.015.317v2.531l6.644-.246c.422-.07.821-.152 1.196-.246a1.93 1.93 0 0 1 .386-.07c.235 0 .586.199 1.055.597.492.375.738.703.738.985 0 .257-.328.41-.984.457l-9.035.351-.035 3.059 11.214-.282a6.12 6.12 0 0 0 1.723-.246l.422-.07c.305 0 .668.234 1.09.703.422.492.633.856.633 1.09 0 .234-.235.375-.704.422l-27.878.668-.739.035Zm6.117-15.293 6.082-.281v-2.39l-6.292.316.21 2.355Zm.387 4.184 5.66-.246v-2.567l-5.871.246.211 2.567Zm13.887-.563.211-2.637-6.293.282v2.601l6.082-.246Zm.351-4.324.211-2.39-6.609.316-.035 2.39 6.433-.316Zm66.797-4.078c-.257 0-.574-.2-.949-.598-.281-.281-.422-.492-.422-.633 0-.07.047-.105.141-.105.094-.024.211-.035.351-.035l.774-.035c.445 0 .738-.012.879-.036.445 0 .82-.011 1.125-.035 2.015-.187 3.375-.34 4.078-.457.351-.047.668-.094.949-.14.281-.07.504-.106.668-.106.328 0 .656.164.984.492.258.258.387.469.387.633 0 .14-.082.234-.246.281-.117.024-.809.07-2.074.141-.703.023-1.57.082-2.602.176a92.523 92.523 0 0 0-2.707.281c-.14.023-.34.059-.597.105-.258.047-.504.07-.739.07Zm7.981 15.398c.328.211.492.41.492.598 0 .258-.199.422-.598.492-.398.07-.961.117-1.687.14-1.055.024-1.735-.011-2.039-.105-.516-.234-.774-.62-.774-1.16l.035-1.3c.047-.423.071-.798.071-1.126.023-.21.035-.62.035-1.23-.352.797-.809 1.57-1.371 2.32-.399.492-.75.902-1.055 1.23a7.087 7.087 0 0 1-1.09.88c-.422.28-.808.421-1.16.421-.211 0-.316-.07-.316-.21 0-.024.222-.2.668-.528.468-.351.937-.832 1.406-1.441.703-.938 1.312-2.04 1.828-3.305-.914.117-1.523.223-1.828.316a1.242 1.242 0 0 0-.316.106.883.883 0 0 1-.352 0 3.005 3.005 0 0 1-.492-.281 3.19 3.19 0 0 1-.492-.457c-.094-.141-.141-.235-.141-.282 0-.117.176-.175.527-.175.868 0 1.981-.094 3.34-.282.141-.539.211-1.406.211-2.601v-.668c0-.281.059-.434.176-.457.023-.024.07-.035.141-.035.187 0 .445.14.773.421.258.211.422.375.492.493.094.093.106.222.035.386l-.14.282c-.071.14-.117.28-.141.422l-.141.703c-.07.328-.117.62-.14.879.328-.024.738-.07 1.23-.141.492-.07.856-.14 1.09-.211l.703-.176c.235-.047.621.152 1.16.598.094.07.141.152.141.246s-.047.176-.141.246a.498.498 0 0 1-.281.07c-.422 0-1.195.07-2.32.211l-1.16.106c.258.187.422.351.492.492.07.14.082.281.035.422l-.105.562c-.047.47-.094.985-.141 1.547a12 12 0 0 0 0 1.301c0 .117.07.223.211.316.164.094.328.141.492.141.586 0 1.242-.059 1.969-.176l.316-.07c.141 0 .258.023.352.07Zm6.75-14.765c.281 0 .422.129.422.386 0 .14-.129.34-.387.598-.703.867-2.098 2.52-4.184 4.957-.164.21-.316.316-.457.316-.117 0-.375-.175-.773-.527-.328-.281-.492-.516-.492-.703 0-.211.176-.41.527-.598.539-.304 1.348-.914 2.426-1.828 1.078-.96 1.875-1.723 2.39-2.285.211-.21.387-.316.528-.316Zm-24.645 17.894c.071 0 .117-.012.141-.035.047 0 .07-.035.07-.105.914-2.32 1.43-5.52 1.547-9.598l-1.758.07c-1.593 2.766-3.316 4.992-5.168 6.68-1.828 1.664-3.445 2.848-4.851 3.55-1.383.704-2.274 1.055-2.672 1.055-.235 0-.352-.07-.352-.21 0-.235.352-.587 1.055-1.055 3.82-2.578 6.914-5.871 9.281-9.88l-2.707.106c-1.406 1.688-2.789 3.082-4.148 4.184-1.36 1.078-2.531 1.863-3.516 2.355-.961.492-1.594.739-1.898.739-.188 0-.282-.07-.282-.211 0-.117.082-.27.247-.457a4.1 4.1 0 0 1 .738-.633c2.226-1.57 4.242-3.516 6.047-5.836l-3.551.176a27.65 27.65 0 0 1-2.988 2.18c-1.008.632-1.711.949-2.11.949-.164 0-.246-.059-.246-.176 0-.258.246-.574.738-.95 2.016-1.57 4.008-3.656 5.977-6.257l-2.144.14h-.633c-.61 0-.985-.082-1.125-.246-.422-.422-.715-.855-.879-1.3l-.071-.282c0-.14.071-.21.211-.21.118 0 .223.011.317.034.422.07.879.106 1.371.106h.422l15.398-.879c.586-.047 1.031-.117 1.336-.21.188-.048.317-.071.387-.071.281 0 .574.094.879.281.304.188.562.398.773.633.235.234.352.422.352.562 0 .305-.281.48-.844.528l-12.727.738c-.515.61-1.277 1.441-2.285 2.496l12.094-.598h.211c.516 0 .902.118 1.16.352.258.234.387.48.387.738 0 .117-.035.258-.106.422-.046.164-.07.281-.07.352-.141 3-.492 5.894-1.055 8.683-.234 1.242-.597 2.157-1.089 2.742-.469.586-.938.88-1.407.88-.445 0-1.101-.258-1.968-.774a15.918 15.918 0 0 1-2.391-1.652c-.727-.61-1.09-1.032-1.09-1.266 0-.117.094-.176.281-.176.282 0 .68.106 1.196.317 1.265.492 2.39.832 3.375 1.02h.14Zm-24.328 1.195c0-.164.012-.293.035-.386.141-.727.211-1.63.211-2.707l.282-21.2v-.597c0-.961-.094-1.688-.282-2.18-.164-.375-.246-.633-.246-.773 0-.164.094-.246.281-.246.305 0 1.172.28 2.602.843l4.641-.422.457-.035c.187 0 .468.117.843.352.399.234.598.492.598.773 0 .14-.07.293-.211.457-.117.141-.199.258-.246.352a47.087 47.087 0 0 1-2.918 5.062.536.536 0 0 0-.07.211c0 .141.035.246.105.317 1.008 1.125 1.699 2.18 2.074 3.164.399.984.598 2.074.598 3.27 0 .82-.176 1.535-.527 2.144-.328.61-.739.914-1.231.914-.351 0-.867-.27-1.547-.809a14.715 14.715 0 0 1-1.828-1.793c-.539-.68-.808-1.148-.808-1.406 0-.14.07-.21.211-.21.187 0 .492.14.914.421.492.352.996.668 1.511.95.516.257.856.386 1.02.386.07 0 .117-.14.141-.422.046-.281.07-.504.07-.668 0-.82-.164-1.64-.492-2.46-.305-.821-.879-1.712-1.723-2.673-.281-.351-.422-.691-.422-1.02 0-.28.106-.609.317-.984.984-1.687 1.746-3.14 2.285-4.359l-3.973.352-.352 25.804c0 .657-.199.985-.597.985-.094 0-.281-.059-.563-.176a2.553 2.553 0 0 1-.808-.457 1 1 0 0 1-.352-.774Zm11.496-28.546c0-.118.106-.176.317-.176.328 0 1.136.176 2.425.527l9.598-.562h.316c.399 0 .762.117 1.09.351.352.235.528.48.528.738a.867.867 0 0 1-.106.387c-.047.14-.082.258-.105.352l-.703 6.433c.586.563.879.973.879 1.23 0 .141-.083.235-.247.282-.14.047-.363.082-.668.106l-10.054.457.035.28v.106c0 .446-.199.668-.598.668-.328 0-.703-.129-1.125-.386-.422-.282-.633-.551-.633-.81v-.175c.071-.469.106-.914.106-1.336l-.035-.633-.387-5.625c-.047-.632-.164-1.16-.351-1.582-.188-.304-.282-.515-.282-.632Zm2.883 4.289 8.719-.493.211-2.285-9.071.492.141 2.286Zm.281 4.148 8.086-.422.211-2.566-8.472.457.175 2.531Zm80.051.598c-.164 0-.34-.106-.527-.317a2.15 2.15 0 0 1-.282-.386c-.046-.118-.046-.27 0-.457l.036-.844c.023-.164.035-.563.035-1.195v-1.16l-1.055.492-1.23.527a10.87 10.87 0 0 0-.95.422c-.281.14-.527.21-.738.21a2.17 2.17 0 0 1-.562-.175 4.837 4.837 0 0 1-.493-.246c-.257-.164-.375-.34-.351-.527l.105-.352c0-.188.012-.352.036-.492l.035-2.04V5.95c0-.375-.024-.691-.071-.949-.047-.281-.082-.48-.105-.598 0-.117.035-.199.105-.246.024-.023.082-.035.176-.035.164 0 .481.106.949.316.399.188.563.422.493.704-.047.164-.094.41-.141.738l-.106 4.043c0 .117.012.21.036.281.046.047.093.07.14.07.282 0 .621-.082 1.02-.246.75-.234 1.394-.468 1.933-.703l.774-.316v-2.32c0-.938-.059-1.84-.176-2.708a.792.792 0 0 1-.035-.246c0-.234.094-.351.281-.351.024 0 .152.047.387.14.351.188.609.352.773.493.164.14.258.222.282.246.093.07.14.14.14.21a.34.34 0 0 1-.07.176c-.024.07-.047.13-.07.176l-.106 1.055-.035 3.234.035 3.13c0 .538-.035 1.007-.105 1.405-.118.493-.305.739-.563.739Zm-6.469 5.765c-.257 0-.574-.199-.949-.597-.281-.282-.422-.492-.422-.633 0-.07.047-.106.141-.106a1.48 1.48 0 0 1 .351-.035l.774-.035c.445 0 .738-.012.879-.035.445 0 .82-.012 1.125-.035 2.015-.188 3.375-.34 4.078-.457a29.8 29.8 0 0 0 .949-.14c.281-.071.504-.106.668-.106.328 0 .656.164.984.492.258.258.387.469.387.633 0 .14-.082.234-.246.28-.117.024-.809.071-2.074.142-.703.023-1.57.082-2.602.175a92.491 92.491 0 0 0-2.707.282c-.14.023-.34.058-.597.105-.258.047-.504.07-.739.07Zm4.711 14.52c-.726 0-1.289-.024-1.687-.07a1.68 1.68 0 0 1-.949-.422c-.446-.328-.75-1.043-.915-2.145l-.105-1.125c0-.281-.023-.633-.07-1.055a5.987 5.987 0 0 0-.809.141 3.817 3.817 0 0 1-.246.106.965.965 0 0 1-.211.035.81.81 0 0 1-.457-.14c-.141-.095-.316-.27-.527-.528-.164-.211-.246-.352-.246-.422s.082-.117.246-.14c.164-.024.386-.036.668-.036.398 0 .914-.047 1.547-.14l-.036-.493c0-.937-.058-1.734-.175-2.39l-.036-.246c0-.329.129-.457.387-.387.281.094.539.21.774.351.187.094.316.188.386.282.071.07.094.175.071.316l-.106 1.512v.914l3.094-.317c0-.164.012-.55.035-1.16.024-.633.024-1.043 0-1.23 0-.188-.023-.363-.07-.527a6.529 6.529 0 0 0-.071-.458c0-.187.094-.28.282-.28.187 0 .422.105.703.316.328.21.539.398.633.562.117.164.14.363.07.598a6.4 6.4 0 0 0-.246 1.265c-.047.47-.07.75-.07.844.281-.023.539-.058.773-.105.234-.047.387-.07.457-.07.188-.047.41-.071.668-.071.141.023.34.164.598.422.211.281.316.504.316.668 0 .234-.223.328-.668.281a6.863 6.863 0 0 0-1.195-.105c-.399 0-.738.011-1.02.035-.07.844-.211 1.676-.422 2.496a.953.953 0 0 1-.246.457c-.117.14-.222.21-.316.21-.164 0-.27-.07-.317-.21a3.524 3.524 0 0 1-.035-.598c.047-.61.071-1.37.071-2.285a26.99 26.99 0 0 0-1.477.14 9.357 9.357 0 0 1-1.512.212c-.023.96.024 1.816.141 2.566.07.492.211.832.422 1.02.14.117.305.187.492.21.211.024.422.036.633.036h.422c.726 0 1.406-.035 2.039-.106a1.52 1.52 0 0 0 .492-.14c.164-.07.281-.106.352-.106.21 0 .421.07.632.211.211.14.317.305.317.492 0 .188-.106.328-.317.422-.187.094-.492.176-.914.246-.75.094-1.5.14-2.25.14Zm10.02-15.996c.281 0 .422.129.422.387 0 .14-.129.34-.387.597-.703.867-2.098 2.52-4.184 4.957-.164.211-.316.317-.457.317-.117 0-.375-.176-.773-.528-.328-.281-.492-.515-.492-.703 0-.21.176-.41.527-.598.539-.304 1.348-.914 2.426-1.828 1.078-.96 1.875-1.722 2.39-2.285.211-.21.387-.316.528-.316Zm-44.684 11.496c2.086-.656 3.949-1.371 5.59-2.145a25.586 25.586 0 0 0-1.336-1.687c-.187-.235-.281-.422-.281-.563 0-.258.152-.48.457-.668.305-.21.539-.316.703-.316.188 0 .387.117.598.352a137.853 137.853 0 0 1 3.41 4.148c.937 1.195 1.406 1.922 1.406 2.18 0 .21-.164.457-.492.738-.305.305-.598.457-.879.457-.234 0-.469-.188-.703-.563a96.435 96.435 0 0 0-1.828-2.671l-4.219 2.109c-.469.21-1.207.586-2.215 1.125-.844.445-1.359.668-1.547.668-.14 0-.316-.094-.527-.281a1.65 1.65 0 0 1-.492-.633c-.094-.234-.094-.422 0-.563.14-.257.211-1.289.211-3.093V16.602c0-.563-.024-1.02-.071-1.372a3.587 3.587 0 0 0-.281-1.125 1.37 1.37 0 0 0-.07-.175.305.305 0 0 1-.035-.14c0-.118.082-.177.246-.177.304 0 1.066.258 2.285.774l7.629-.528c.187-.023.398-.035.633-.035.257 0 .562.117.914.352.351.21.527.445.527.703 0 .094-.059.234-.176.422-.094.187-.14.328-.14.422l-.914 6.609c.562.656.843 1.102.843 1.336 0 .117-.07.2-.211.246-.117.047-.304.07-.562.07l-8.508.317.035 5.87Zm-5.765-15.785c0-.235.152-.516.457-.844 1.711-1.898 3.199-3.785 4.464-5.66 1.266-1.875 1.899-3.13 1.899-3.762l-.035-.246V3.77c0-.329.129-.493.386-.493.305 0 .727.211 1.266.633.563.399.844.727.844.985 0 .117-.059.27-.176.457a23.895 23.895 0 0 1-1.16 1.687l4.992-.387a4.872 4.872 0 0 0 1.336-.28c.141-.048.246-.071.316-.071.352 0 .727.199 1.125.597.422.375.633.668.633.88 0 .28-.258.445-.773.492l-6.012.421c.164.047.527.293 1.09.739.586.445 1.113.902 1.582 1.37.469.47.703.798.703.985 0 .211-.141.469-.422.774-.281.28-.527.421-.738.421-.188 0-.41-.152-.668-.457a21.796 21.796 0 0 0-2.426-2.285c-.281-.234-.422-.433-.422-.597 0-.118.059-.27.176-.457.117-.188.27-.34.457-.457l-2.355.175a34.406 34.406 0 0 1-3.727 3.903c-1.359 1.195-2.226 1.793-2.601 1.793-.141 0-.211-.07-.211-.211Zm12.656 3.656.246-2.461-7.242.492v2.32l6.996-.351Zm-.457 4.36.281-2.708-6.785.317v2.636l6.504-.246Zm1.898-9.528c0-.234.153-.516.457-.844 1.149-1.383 2.192-2.941 3.129-4.676.961-1.757 1.442-2.988 1.442-3.69v-.142c0-.351.129-.527.386-.527.164 0 .41.094.739.281.351.164.668.364.949.598.281.234.422.469.422.703 0 .211-.164.586-.493 1.125-.328.54-.503.82-.527.844l6.926-.563a6.483 6.483 0 0 0 1.336-.246c.047-.023.141-.035.281-.035.328 0 .68.188 1.055.563.398.351.597.644.597.879 0 .14-.07.257-.21.351-.118.07-.282.117-.493.14l-7.136.493c.656.422 1.429 1.043 2.32 1.863.891.797 1.336 1.336 1.336 1.617 0 .164-.129.422-.387.774-.258.328-.504.492-.738.492-.188 0-.387-.117-.598-.352-1.148-1.242-2.191-2.226-3.129-2.953-.234-.187-.351-.363-.351-.527 0-.188.176-.469.527-.844l-2.601.176c-.774 1.031-1.711 2.074-2.813 3.129-1.078 1.055-1.805 1.582-2.18 1.582-.164 0-.246-.07-.246-.211Zm3.305.773c0-.14.082-.21.246-.21.352 0 1.148.292 2.391.878l7.066-.597.281-.035c.094 0 .27.046.528.14.281.07.539.2.773.387.258.164.387.387.387.668 0 .094-.035.223-.106.387-.07.164-.105.28-.105.351a88.243 88.243 0 0 1-.492 8.262l-.071.879c-.07.984-.164 1.805-.281 2.46-.117.657-.316 1.173-.598 1.548-.445.609-.925.914-1.441.914s-1.172-.317-1.969-.95a18.576 18.576 0 0 1-2.215-2.074c-.656-.75-.984-1.23-.984-1.441 0-.164.094-.246.281-.246.211 0 .504.117.879.351.867.54 1.594.973 2.18 1.301.586.328 1.008.492 1.266.492.117 0 .199-.082.246-.246.539-3 .867-6.762.984-11.285l-6.609.492c0 3.961.035 10.242.105 18.844 0 .21-.058.363-.176.457a.466.466 0 0 1-.386.176c-.188 0-.411-.07-.668-.211-.446-.188-.762-.363-.95-.528-.187-.164-.281-.351-.281-.562l.035-.246c.141-.773.211-1.64.211-2.602l-.105-14.836c0-.609-.024-1.078-.07-1.406a3.306 3.306 0 0 0-.211-.95c-.094-.28-.141-.468-.141-.562ZM111.312 67.75c-.02 0-.093.02-.218.063-.104.02-.156-.01-.156-.094 0-.021.041-.063.124-.125l.219-.219c.063-.063.157-.146.281-.25.126-.125.219-.25.282-.375.312-.52.531-1.042.656-1.563l.188-1.093c.145-.813.208-1.76.187-2.844 0-.25-.031-.51-.094-.781-.021-.125-.125-.302-.312-.532v-.03c0-.042.052-.063.156-.063.146 0 .271.01.375.031.271.063.573.094.906.094.354-.021.573-.032.656-.032l2.094-.156c.417-.041.688-.062.813-.062.896-.125 1.302-.177 1.219-.157.479-.083.77-.124.874-.124.334.02.667.28 1 .78l.063.157c0 .125-.094.198-.281.219-.188.02-.302.031-.344.031-.646 0-1.125.01-1.438.031-.791 0-1.374.01-1.75.032l-.874.062-1.782.188c-.125 1.75-.239 2.895-.344 3.437-.166.98-.489 1.77-.968 2.375-.354.458-.865.792-1.532 1Zm7.876 8.844c-.313 0-.615-.23-.907-.688a9.905 9.905 0 0 0-1.093-1.437l-.813-.844c-.437.5-.823.896-1.156 1.188a6.25 6.25 0 0 1-1.188.843c-.896.521-1.646.781-2.25.781-.146 0-.219-.052-.219-.156 0-.062.198-.198.594-.406a6.591 6.591 0 0 0 1.125-.75c.896-.75 1.636-1.52 2.219-2.313-.125-.124-.75-.666-1.875-1.624a10.426 10.426 0 0 1-.656-.532 7.616 7.616 0 0 1-.375-.281c-.188-.146-.282-.25-.282-.313 0-.104.053-.156.157-.156.312 0 .812.219 1.5.656.687.417 1.406.917 2.156 1.5.292-.354.521-.687.687-1 .167-.312.355-.697.563-1.156.104-.229.167-.427.187-.594a4.83 4.83 0 0 0 .032-.343c0-.23.062-.344.187-.344.146 0 .344.115.594.344.437.416.656.698.656.844 0 .083-.052.177-.156.28-.25.25-.479.584-.687 1-.126.25-.355.605-.688 1.063a2.76 2.76 0 0 0-.25.344 3.062 3.062 0 0 1-.188.281c.48.354 1.188.959 2.126 1.813.229.208.374.406.437.594.083.166.125.395.125.687a.89.89 0 0 1-.156.531.504.504 0 0 1-.406.188Zm-2.063 3.844c-.208.27-.427.406-.656.406-.063 0-.094-.052-.094-.156 0-.146.042-.313.125-.5l.625-1.25c.021-.084.052-.167.094-.25.041-.084.073-.157.093-.22v-.03c0-.042-.031-.084-.093-.126a.264.264 0 0 0-.219-.03c-.333.02-.833.072-1.5.156-.646.083-1.125.166-1.438.25l-.468.156a1.227 1.227 0 0 1-.406.094c-.376 0-.688-.115-.938-.344a1.931 1.931 0 0 1-.469-.438l-.062-.156c0-.104.177-.135.531-.094.479.042 1.469-.02 2.969-.187l.625-.094.781-.094c.375-.062.667-.125.875-.187l.188-.063a.502.502 0 0 1 .218-.062c.104 0 .229.052.375.156.167.104.302.198.407.281.145.104.239.198.281.281.062.063.083.146.062.25 0 .105-.052.198-.156.282a3.092 3.092 0 0 0-.219.187c-.041.063-.187.219-.437.469-.104.167-.292.396-.563.688-.25.291-.427.5-.531.624Zm-1.563 6.156c0-.063.105-.23.313-.5.229-.25.406-.448.531-.594.313-.417.688-1.02 1.125-1.813.459-.791.719-1.312.781-1.562.042-.125-.02-.188-.187-.188-.333 0-1.25.094-2.75.282-.979.125-1.708.25-2.187.375a.608.608 0 0 1-.313.094c-.167 0-.344-.115-.531-.344a.821.821 0 0 1-.125-.406c0-.084.052-.167.156-.25l.094-.126c.062-.124.135-.291.219-.5.083-.208.156-.406.218-.593.104-.334.177-.698.219-1.094.021-.23.146-.292.375-.188.292.146.51.292.656.438.167.125.219.219.156.281a3.15 3.15 0 0 0-.5.844 8.477 8.477 0 0 0-.187.656c0 .084.052.125.156.125.313 0 .781-.052 1.407-.156l1.312-.156c.521-.063.938-.125 1.25-.188l.781-.156a.817.817 0 0 1 .25-.031c.104 0 .209.041.313.125.104.062.218.146.344.25.208.187.343.344.406.469a.72.72 0 0 1 .094.374c0 .084-.063.188-.188.313a3.792 3.792 0 0 0-.375.594c-.604 1.229-1.385 2.26-2.344 3.094a4.331 4.331 0 0 1-.906.53 1.486 1.486 0 0 1-.406.063c-.104.021-.157 0-.157-.062Zm10-14.438c.25 0 .376.115.376.344 0 .125-.115.302-.344.531-.625.771-1.865 2.24-3.719 4.406-.146.188-.281.282-.406.282-.104 0-.334-.156-.688-.469-.291-.25-.437-.458-.437-.625 0-.188.156-.365.468-.531.48-.271 1.198-.813 2.157-1.625.958-.854 1.666-1.531 2.125-2.031.187-.188.344-.282.468-.282Zm-29.593 7.156v.094c0 .459-.198.688-.594.688-.208 0-.458-.063-.75-.188s-.51-.26-.656-.406a1.013 1.013 0 0 1-.188-.625l.031-.281c.063-.563.094-1.042.094-1.438v-.437l-.531-7.813a4.861 4.861 0 0 0-.156-.875 3.338 3.338 0 0 0-.344-.875c-.146-.25-.219-.437-.219-.562 0-.146.115-.219.344-.219.396 0 1.188.219 2.375.656l9.187-.562h.282c.354 0 .666.135.937.406.292.27.438.52.438.75 0 .104-.042.23-.125.375-.084.125-.125.219-.125.281l-.938 8.531c.604.667.907 1.126.907 1.376 0 .124-.063.208-.188.25a2.31 2.31 0 0 1-.469.093h-.375l-8.969.406.032.376Zm-15.875 1.376c0-.23.114-.5.344-.813 1.854-2.77 3.552-6.469 5.093-11.094l-2.094.188c-.5.041-.822.062-.968.062-.417 0-.75-.156-1-.469a3.389 3.389 0 0 1-.531-.874.436.436 0 0 1-.032-.188c0-.146.084-.219.25-.219h.156c.5.042.844.063 1.032.063h.406l3.281-.313.063-6.094c0-.395-.136-.802-.406-1.218a.5.5 0 0 1-.126-.313c0-.166.136-.25.407-.25.25 0 .604.084 1.062.25.396.146.646.282.75.407.125.124.188.312.188.562l-.094 6.5 1.719-.156c.458-.042.823-.125 1.094-.25a.535.535 0 0 1 .218-.031c.23 0 .542.156.938.468.396.313.594.584.594.813 0 .27-.22.427-.657.469l-3.906.374-.031 2.376a.538.538 0 0 1 .344-.126c.208 0 .614.271 1.218.813a16.749 16.749 0 0 1 1.688 1.75c.541.625.812 1.031.812 1.219 0 .208-.156.427-.469.656-.291.23-.552.344-.78.344-.23 0-.438-.156-.626-.469-.791-1.188-1.531-2.104-2.219-2.75l-.156 13.844c0 .5-.198.75-.594.75-.312 0-.645-.136-1-.406-.333-.25-.5-.553-.5-.907 0-.062.021-.177.063-.344.146-.604.219-1.229.219-1.874l.125-9.188c0-.396.031-1.115.094-2.156-.459 1.646-1.209 3.229-2.25 4.75-1.021 1.52-1.959 2.708-2.813 3.562l-.156.156c-.271.209-.469.313-.594.313-.104 0-.156-.063-.156-.188Zm9.687 2.062c0-.125.073-.188.219-.188a.81.81 0 0 1 .25.032c.417.104.948.156 1.594.156l14.25-.406c.458 0 .927-.073 1.406-.219.125-.042.208-.063.25-.063.229 0 .573.198 1.031.594.479.396.719.73.719 1 0 .125-.073.23-.219.313a1.329 1.329 0 0 1-.531.156l-16.25.5c-.542.042-.875.063-1 .063-.354 0-.656-.146-.906-.438a3.245 3.245 0 0 1-.594-.906c-.146-.334-.219-.531-.219-.594ZM91.22 62c0-.125.062-.188.187-.188a.69.69 0 0 1 .219.032c.354.083.781.125 1.281.125h.406l10.75-.594c.48-.042.948-.135 1.407-.281a1.02 1.02 0 0 1 .25-.063c.104 0 .302.094.593.282.313.187.584.395.813.624.25.23.375.428.375.594 0 .25-.24.396-.719.438l-12.812.75c-.23.02-.531.031-.906.031-.417 0-.688-.052-.813-.156-.688-.584-1.031-1.115-1.031-1.594Zm4.281 9.969 8.125-.438.313-3.281-8.626.5.188 3.219Zm.344 5.25 7.312-.313.344-3.656-7.875.375.219 3.594Zm70.375-8.875c-.146 0-.302-.094-.469-.281a1.928 1.928 0 0 1-.25-.344c-.042-.104-.042-.24 0-.406l.031-.75c.021-.146.031-.5.031-1.063v-1.031l-.937.437-1.094.469c-.271.104-.552.23-.843.375-.25.125-.469.188-.657.188a1.933 1.933 0 0 1-.5-.157 4.225 4.225 0 0 1-.437-.219c-.229-.145-.334-.302-.313-.468l.094-.313c0-.166.01-.312.031-.437l.032-1.813v-1.687c0-.334-.021-.615-.063-.844-.042-.25-.073-.427-.094-.531 0-.104.031-.177.094-.219.021-.02.073-.031.156-.031.146 0 .427.093.844.281.354.167.5.375.437.625a5.354 5.354 0 0 0-.124.656l-.094 3.594c0 .104.01.188.031.25.042.042.083.063.125.063.25 0 .552-.073.906-.22.667-.208 1.24-.416 1.719-.624l.687-.282V61.5c0-.833-.052-1.635-.156-2.406a.689.689 0 0 1-.031-.219c0-.208.083-.313.25-.313.021 0 .135.042.344.126.312.166.541.312.687.437.146.125.229.198.25.219.084.062.125.125.125.187a.308.308 0 0 1-.062.157 1.21 1.21 0 0 1-.063.156l-.094.937-.031 2.875.031 2.782c0 .479-.031.895-.093 1.25-.104.437-.271.656-.5.656Zm-5.75 5.125c-.229 0-.511-.177-.844-.531-.25-.25-.375-.438-.375-.563 0-.063.042-.094.125-.094.083-.02.187-.031.313-.031l.687-.031c.396 0 .656-.01.781-.031.396 0 .729-.01 1-.032 1.792-.166 3-.302 3.625-.406.313-.042.594-.083.844-.125.25-.063.448-.094.594-.094.291 0 .583.146.875.438.229.229.344.416.344.562 0 .125-.073.209-.219.25-.104.021-.719.063-1.844.125-.625.021-1.396.073-2.313.156-.916.084-1.718.167-2.406.25-.125.021-.302.053-.531.094a3.668 3.668 0 0 1-.656.063Zm-.188 12.469c-.312 0-.552-.084-.719-.25-.187-.188-.281-.355-.281-.5 0-.146.084-.303.25-.47.021-.02.136-.187.344-.5.458-.728.979-1.656 1.563-2.78.604-1.146.979-1.928 1.124-2.344.126-.396.24-.74.344-1.031.125-.292.229-.438.313-.438.146 0 .271.052.375.156.104.084.208.209.312.375.125.146.219.25.282.313.145.166.218.323.218.469a.497.497 0 0 1-.125.312 1.598 1.598 0 0 0-.156.219l-1.375 2.312a63.849 63.849 0 0 1-1.406 2.406.497.497 0 0 0-.125.313c0 .083.093.125.281.125.396 0 1.135-.052 2.219-.156 1.083-.084 1.812-.156 2.187-.219.542-.063.917-.125 1.125-.188.229-.062.563.094 1 .47.521.437.636.718.344.843-.167.083-.49.125-.969.125h-1.25c-.271 0-.698.02-1.281.063-.354 0-.75.01-1.187.03-.438.022-.803.042-1.094.063-.334.021-.979.084-1.938.188l-.375.094Zm13.407-11.72c.062 0 .124.032.187.094a.302.302 0 0 1 .125.188v.063c0 .145-.115.427-.344.843l-2.25 3.906c-.166.355-.385.532-.656.532s-.5-.167-.688-.5c-.187-.271-.416-.677-.687-1.219a3.86 3.86 0 0 1-.313-.563 10.249 10.249 0 0 0-.187-.406c-.229-.396-.344-.677-.344-.844a.21.21 0 0 1 .094-.187c.063-.063.125-.094.187-.094.23 0 .438.125.626.375.145.146.26.302.343.469l.344.469.625.719.281-.438c.292-.5.979-1.49 2.063-2.969.229-.291.427-.437.594-.437Zm-36.438-5.406v.094c0 .375-.177.563-.531.563-.25 0-.584-.084-1-.25-.417-.167-.625-.448-.625-.844v-.156c0-.146.01-.281.031-.406.021-.126.031-.25.031-.376 0-.166-.021-.437-.062-.812l-.438-4.844c-.041-.479-.208-.968-.5-1.468a.584.584 0 0 1-.125-.376c0-.145.125-.218.375-.218.396 0 1.094.187 2.094.562l12.812-.718h.282c.312 0 .604.114.875.343.291.23.437.438.437.625a.53.53 0 0 1-.094.25 1.83 1.83 0 0 0-.093.219l-.688 5.313c.438.562.657.947.657 1.156 0 .146-.063.24-.188.281-.104.02-.312.042-.625.063l-7.375.374c.812.626 1.427 1.198 1.844 1.72l8.687-.407c.625-.042 1.136-.125 1.531-.25a.44.44 0 0 1 .188-.031c.312 0 .656.156 1.031.469.396.312.594.604.594.874 0 .146-.052.26-.156.344a.426.426 0 0 1-.313.125l-24.625 1.094-.812.031c-.75 0-1.281-.448-1.594-1.344a.772.772 0 0 1-.094-.343c0-.104.063-.156.188-.156.083 0 .156.01.219.03.312.105.739.157 1.281.157h.437l11.219-.5a18.661 18.661 0 0 0-1.563-1.438c-.124-.104-.187-.197-.187-.28l-3.156.156.031.374Zm-7.312 17c0-.187.239-.406.718-.656 1.354-.729 2.604-1.5 3.75-2.312 1.146-.834 1.813-1.552 2-2.156.146-.376.292-.563.438-.563.208 0 .51.23.906.688.396.437.594.802.594 1.093 0 .271-.563.74-1.688 1.406a30.418 30.418 0 0 1-3.687 1.844c-1.334.563-2.229.844-2.688.844-.229 0-.343-.063-.343-.188Zm5.093-12.406c0-.187.146-.281.438-.281.396 0 1.021.156 1.875.469l11.25-.563.437-.031c.229 0 .5.104.813.313.333.187.5.427.5.718 0 .104-.032.23-.094.375a2.531 2.531 0 0 0-.125.281l-.594 2.657c.479.562.719.937.719 1.125 0 .104-.062.177-.188.219-.124.02-.364.041-.718.062l-5.656.219.093 5.312c0 .23.011.448.031.656.021.209.032.407.032.594 0 .459-.146.844-.438 1.156-.291.334-.614.5-.968.5-.334 0-.917-.25-1.75-.75a17.85 17.85 0 0 1-2.282-1.593c-.708-.563-1.062-.938-1.062-1.125 0-.125.094-.188.281-.188.208 0 .469.073.781.219 1.167.52 2.334.948 3.5 1.281l-.031-6-4.031.188v.187c0 .459-.177.688-.532.688-.27 0-.604-.104-1-.313-.374-.229-.562-.49-.562-.781v-.219c0-.187.01-.354.031-.5.021-.146.031-.281.031-.406 0-.188-.01-.333-.031-.438l-.281-2.03c-.083-.75-.208-1.292-.375-1.626a1.185 1.185 0 0 1-.094-.375Zm1.75-9.75L148.5 63l.188-1.906-12.094.687.187 1.875Zm.313 3.344 11.031-.563.219-2.062-11.438.625.188 2Zm.594 10.781 9.937-.406.406-2.75-10.625.5.282 2.656Zm9.031 3.563c.021-.084.062-.219.125-.406.083-.188.198-.365.344-.532.145-.166.302-.25.468-.25.167 0 .354.063.563.188 1.896.979 3.302 1.75 4.219 2.312.937.563 1.52.959 1.75 1.188.229.229.343.427.343.594 0 .312-.104.624-.312.937-.188.333-.386.5-.594.5-.167 0-.396-.115-.687-.344a39.782 39.782 0 0 0-5.782-3.625c-.291-.166-.437-.354-.437-.562Zm62-14.75c-.146 0-.073-.125.219-.375.291-.25.645-.552 1.062-.906a16.43 16.43 0 0 0 1.406-1.47 4.31 4.31 0 0 0 .75-1.25c.104-.25.219-.374.344-.374.104 0 .26.083.469.25.416.333.625.614.625.843 0 .146-.084.25-.25.313-.084.02-.209.115-.375.281-.167.146-.292.26-.375.344-.896.875-1.729 1.51-2.5 1.906-.625.292-1.042.438-1.25.438h-.125ZM212 72.406c-.062 0-.167-.083-.312-.25a2.624 2.624 0 0 1-.282-.531 1.735 1.735 0 0 1 0-.469c.042-.208.063-.364.063-.469.041-.416.062-.75.062-1 .021-.229.021-.479 0-.75v-.53l-.031-.47c-.5.355-.885.605-1.156.75-.604.334-1.042.542-1.313.626a2.606 2.606 0 0 1-.906.187c-.146 0-.229-.02-.25-.063-.042-.083.375-.385 1.25-.906.833-.52 1.74-1.208 2.719-2.062.541-.5.958-.98 1.25-1.438a.713.713 0 0 0 .094-.219c.041-.104.083-.166.124-.187.063-.02.146-.01.25.031.271.146.5.354.688.625a.503.503 0 0 1 .125.313c0 .104-.052.208-.156.312a1.245 1.245 0 0 1-.313.188 6.99 6.99 0 0 0-.968.75c-.292.27-.48.448-.563.531.313.25.469.427.469.531l-.094.656c-.042.188-.062.657-.062 1.407 0 .729.02 1.219.062 1.469v.062a.772.772 0 0 1-.094.344 2.888 2.888 0 0 1-.094.219c-.145.229-.333.343-.562.343Zm3.188 9.813c-.313 0-.615-.23-.907-.688a9.905 9.905 0 0 0-1.093-1.437l-.813-.844c-.437.5-.823.896-1.156 1.188a6.25 6.25 0 0 1-1.188.843c-.896.521-1.646.781-2.25.781-.146 0-.219-.052-.219-.156 0-.062.198-.198.594-.406a6.591 6.591 0 0 0 1.125-.75c.896-.75 1.636-1.52 2.219-2.313-.125-.124-.75-.666-1.875-1.624a10.426 10.426 0 0 1-.656-.532 7.616 7.616 0 0 1-.375-.281c-.188-.146-.282-.25-.282-.313 0-.104.053-.156.157-.156.312 0 .812.219 1.5.656.687.417 1.406.917 2.156 1.5.292-.354.521-.687.687-1 .167-.312.355-.697.563-1.156.104-.229.167-.427.187-.594a4.83 4.83 0 0 0 .032-.343c0-.23.062-.344.187-.344.146 0 .344.115.594.344.437.416.656.698.656.844 0 .083-.052.177-.156.28-.25.25-.479.584-.687 1-.126.25-.355.605-.688 1.063a2.76 2.76 0 0 0-.25.344 3.062 3.062 0 0 1-.188.281c.48.354 1.188.959 2.126 1.813.229.208.374.406.437.594.083.166.125.395.125.687a.89.89 0 0 1-.156.531.504.504 0 0 1-.406.188Zm6.374-13.5c.25 0 .376.114.376.344 0 .124-.115.302-.344.53-.625.772-1.865 2.24-3.719 4.407-.146.188-.281.281-.406.281-.104 0-.334-.156-.688-.469-.291-.25-.437-.458-.437-.624 0-.188.156-.365.468-.532.48-.27 1.198-.812 2.157-1.625.958-.854 1.666-1.531 2.125-2.031.187-.188.344-.281.468-.281Zm-33.468 7.25h-.156c-.271 0-.469-.073-.594-.219a3.226 3.226 0 0 1-.563-.75c-.125-.292-.187-.531-.187-.719 0-.104.041-.156.125-.156.083 0 .146.01.187.031.313.104.729.156 1.25.156h.344l5.094-.25-.032-3.093-1.75.094-.781.03c-.416 0-.698-.114-.843-.343-.438-.52-.657-.927-.657-1.219a38.114 38.114 0 0 1-3.656 3.188c.021.146.031.364.031.656 0 .813-.114 1.438-.344 1.875-.229.417-.468.688-.718.813-.229.104-.406.156-.532.156-.291 0-.729-.25-1.312-.75a13.052 13.052 0 0 1-1.594-1.625c-.479-.604-.718-1.01-.718-1.219 0-.125.062-.188.187-.188.187 0 .469.126.844.376 1.208.791 1.927 1.187 2.156 1.187.063 0 .104-.125.125-.375.042-.25.062-.448.062-.594 0-.729-.145-1.458-.437-2.187-.271-.73-.781-1.521-1.531-2.375a1.341 1.341 0 0 1-.375-.938c0-.291.093-.573.281-.844.354-.562.719-1.197 1.094-1.906.375-.708.739-1.427 1.094-2.156l-3.657.313-.312 23c0 .291-.052.5-.157.624a.477.477 0 0 1-.406.22c-.271 0-.594-.136-.968-.407-.355-.25-.532-.52-.532-.813 0-.145.011-.26.032-.343.124-.625.187-1.24.187-1.844l.25-20.25c0-.688-.083-1.25-.25-1.688-.104-.27-.156-.479-.156-.624 0-.188.114-.282.343-.282.355 0 1.073.25 2.157.75l4.25-.375.406-.031c.333 0 .625.135.875.406.271.25.406.448.406.594 0 .125-.062.26-.187.406-.104.125-.177.23-.219.313-1.042 1.958-1.958 3.52-2.75 4.687a.472.472 0 0 0-.062.188c0 .125.031.219.093.281 1.188 1.313 1.907 2.625 2.157 3.938 1.624-1.626 3.02-3.282 4.187-4.97a36.786 36.786 0 0 0 3.156-5.593c.229-.542.344-1.052.344-1.531 0-.209.021-.354.063-.438.062-.083.166-.125.312-.125.104 0 .323.073.656.219.354.125.667.292.938.5.271.208.406.427.406.656 0 .146-.042.302-.125.469l-.437.875c3.437 3.938 6.833 7.125 10.187 9.563.229.145.344.302.344.468 0 .167-.177.417-.531.75-.355.334-.646.5-.876.5-.229 0-.937-.541-2.124-1.625a95.84 95.84 0 0 1-4.032-3.937 86.024 86.024 0 0 1-3.844-4.188c-1.354 2.292-2.874 4.302-4.562 6.032l.094.03c.458.105.896.157 1.312.157h.25l5.406-.281c.396-.021.813-.094 1.25-.219a.54.54 0 0 1 .219-.031c.229 0 .469.094.719.281.25.167.458.365.625.594.187.208.281.364.281.469 0 .229-.26.364-.781.406l-3.656.156.031 3.094 4.312-.219A4.572 4.572 0 0 0 201 73.5a.54.54 0 0 1 .219-.031c.229 0 .458.083.687.25.25.166.459.364.625.594.188.208.281.364.281.468 0 .271-.26.427-.781.469l-6.531.344.062 9.187c0 .209.011.386.032.531.021.167.031.313.031.438 0 .333-.135.635-.406.906-.25.271-.552.406-.907.406-.374 0-.958-.27-1.75-.812a17.9 17.9 0 0 1-2.156-1.781c-.666-.625-1-1.031-1-1.219 0-.125.094-.188.282-.188.187 0 .468.094.843.282 1.146.604 2.188 1.052 3.125 1.344l-.062-9-4.75.25-.75.03Zm-3.532 8.531c0-.188.219-.52.657-1 1.354-1.375 2.552-2.958 3.593-4.75.167-.292.25-.635.25-1.031v-.313c0-.27.094-.406.282-.406.271 0 .656.188 1.156.563.521.354.781.656.781.906 0 .125-.052.27-.156.437-.833 1.271-1.698 2.344-2.594 3.219-.896.854-1.687 1.5-2.375 1.938-.687.437-1.135.656-1.344.656-.166 0-.25-.073-.25-.219Zm13.094-6.375c0-.188.115-.385.344-.594.229-.229.427-.344.594-.344.166 0 .385.136.656.407a46.843 46.843 0 0 1 3.375 3.531c.958 1.125 1.437 1.844 1.437 2.156 0 .209-.166.448-.5.719-.333.292-.614.438-.843.438-.188 0-.407-.188-.657-.563-1.124-1.77-2.489-3.5-4.093-5.188-.209-.208-.313-.395-.313-.562Zm61-9.969c-.187 0-.333-.041-.437-.125l-.157-.156a52.73 52.73 0 0 0-.75-1.375c-.395-.75-.687-1.26-.874-1.531-.396-.584-.594-.959-.594-1.125 0-.23.135-.563.406-1 .417-.584.698-1.052.844-1.407.271-.5.468-.885.594-1.156.124-.291.177-.52.156-.687a1.742 1.742 0 0 1-.032-.344c0-.083.021-.125.063-.125.042-.02.125-.01.25.031.208.063.448.209.719.438.062.062.135.146.218.25a.77.77 0 0 1 .157.281.265.265 0 0 1 .031.219c0 .062-.031.125-.094.187l-.156.125c-.146.188-.312.417-.5.688-.188.27-.365.52-.531.75l-.781 1.125c-.209.291-.313.5-.313.625 0 .062.094.229.281.5l.656.719c.626.687.917 1.01.876.968.395.396.593.781.593 1.156 0 .646-.208.97-.625.97Zm4.125-.094a1.05 1.05 0 0 1-.469-.093 2.06 2.06 0 0 1-.5-.813L261.156 66l-.625-1.094c-.396-.541-.593-.906-.593-1.094 0-.25.135-.572.406-.968l.5-.719c.208-.354.323-.563.344-.625.208-.417.385-.781.531-1.094.166-.333.239-.583.219-.75a1.3 1.3 0 0 1-.032-.312c0-.167.094-.209.282-.125.27.104.562.27.874.5.146.146.24.27.282.375a.565.565 0 0 1 .094.343c0 .042-.073.126-.219.25a1.98 1.98 0 0 0-.375.344c-.125.125-.406.521-.844 1.188-.083.125-.188.27-.312.437-.105.146-.24.344-.407.594-.208.27-.312.469-.312.594s.125.312.375.562c.083.084.166.188.25.313l.375.375.812.906c.396.354.594.698.594 1.031 0 .688-.198 1.031-.594 1.031Zm.407 8.532c-.313 0-.615-.23-.907-.688a9.905 9.905 0 0 0-1.093-1.437l-.813-.844c-.437.5-.823.896-1.156 1.188a6.25 6.25 0 0 1-1.188.843c-.896.521-1.646.781-2.25.781-.146 0-.219-.052-.219-.156 0-.062.198-.198.594-.406a6.591 6.591 0 0 0 1.125-.75c.896-.75 1.636-1.52 2.219-2.313-.125-.124-.75-.666-1.875-1.624a10.426 10.426 0 0 1-.656-.532 7.616 7.616 0 0 1-.375-.281c-.188-.146-.282-.25-.282-.313 0-.104.053-.156.157-.156.312 0 .812.219 1.5.656.687.417 1.406.917 2.156 1.5.292-.354.521-.687.687-1 .167-.312.355-.697.563-1.156.104-.229.167-.427.187-.594a4.83 4.83 0 0 0 .032-.343c0-.23.062-.344.187-.344.146 0 .344.115.594.344.437.416.656.698.656.844 0 .083-.052.177-.156.28-.25.25-.479.584-.687 1-.126.25-.355.605-.688 1.063a2.76 2.76 0 0 0-.25.344 3.062 3.062 0 0 1-.188.281c.48.354 1.188.959 2.126 1.813.229.208.374.406.437.594.083.166.125.395.125.687a.89.89 0 0 1-.156.531.504.504 0 0 1-.406.188Zm-2.719 9.375c0-.021.052-.104.156-.25.125-.125.26-.292.406-.5.25-.354.5-.875.75-1.563.25-.687.386-1.323.407-1.906 0-.042-.021-.083-.063-.125-.021-.063-.073-.094-.156-.094l-.719.063-1.062.094c-.23.75-.626 1.562-1.188 2.437-.25.396-.594.74-1.031 1.031-.417.313-.823.531-1.219.656a1.5 1.5 0 0 1-.469.063c-.146-.02-.219-.063-.219-.125 0-.083.073-.156.219-.219.25-.166.531-.427.844-.781.333-.354.625-.719.875-1.094.146-.208.302-.479.469-.812.166-.354.302-.677.406-.969-.667.083-1.354.24-2.063.469-.041.041-.114.062-.218.062-.063 0-.156-.041-.282-.125a4.028 4.028 0 0 1-.343-.375c-.042-.104-.021-.198.062-.281l.125-.25c.084-.125.167-.375.25-.75.084-.375.125-.677.125-.906a.908.908 0 0 0-.031-.219c0-.104.01-.156.031-.156.042-.021.094-.021.157 0 .229.041.437.114.624.219a.896.896 0 0 1 .344.343c.084.104.084.198 0 .281a.939.939 0 0 0-.094.126.404.404 0 0 0-.093.187c-.021.02-.063.25-.125.688 0 .02.01.041.031.062.042.02.083.02.125 0 .062 0 .156-.01.281-.031.125-.021.219-.042.281-.063.146-.02.313-.052.5-.094.209-.041.396-.072.563-.093.063-.23.104-.48.125-.75.042-.292.073-.49.094-.594l.031-.656v-.219c-.667.02-1.365.083-2.094.188l-.562.093h-.125a.605.605 0 0 1-.313-.094 11.974 11.974 0 0 1-.281-.218c-.271-.25-.406-.438-.406-.563 0-.125.094-.166.281-.125.25.042.51.063.781.063l.906-.031 4.344-.313c.167-.02.323-.042.469-.063.146-.041.292-.072.437-.093h.094c.271 0 .459.052.563.156.125.083.198.135.219.156.333.271.5.48.5.625 0 .125-.178.177-.532.156l-.625-.062c-.541-.02-1.354 0-2.437.063l-.125 1.218a7.999 7.999 0 0 1-.063.5c-.021.125-.041.23-.062.313l-.032.094c.5-.042 1.084-.105 1.75-.188a.98.98 0 0 1 .219-.063 1.78 1.78 0 0 1 .313-.093h.062c.125 0 .25.052.375.156.125.104.198.167.219.188.167.145.281.27.344.374.083.084.094.157.031.22a1.703 1.703 0 0 1-.156.25.693.693 0 0 0-.094.218c-.104.875-.271 1.583-.5 2.125-.187.48-.396.833-.625 1.063-.208.25-.469.479-.781.687-.125.083-.323.146-.594.188-.271.062-.406.072-.406.03Zm5.093-11.313c.105 0 .261.073.469.219-.021.042.021.125.125.25l.219.219c.104.104.208.229.313.375.124.146.26.302.406.469.375.395 1.239 1.427 2.594 3.093.229.334.343.531.343.594 0 .208-.125.313-.375.313-.146 0-.302-.105-.468-.313-.396-.417-1.105-1.073-2.126-1.969-.791-.729-1.51-1.291-2.156-1.687-.312-.146-.468-.313-.468-.5 0-.146.156-.354.468-.625.292-.292.511-.438.656-.438Zm-27.718-11.094c-.229.021-.532.032-.906.032-.417 0-.688-.052-.813-.157a3.881 3.881 0 0 1-.469-.5 2.566 2.566 0 0 1-.375-.75.705.705 0 0 1-.062-.312c0-.125.062-.188.187-.188.084 0 .156.01.219.032a4.81 4.81 0 0 0 1 .093l.687-.03 10.469-.594h.469c.5 0 .885.114 1.156.343.271.23.406.459.406.688a.83.83 0 0 1-.187.5c-.125.146-.198.24-.219.281-1.125 2.208-2.771 4.323-4.937 6.344 2.333 1.416 5.177 2.677 8.531 3.781.312.125.469.26.469.406 0 .084-.052.209-.157.375-.5.688-.885 1.031-1.156 1.031-.166 0-.781-.218-1.844-.656a73.975 73.975 0 0 1-3.624-1.625 39.341 39.341 0 0 1-3.657-2.062 34.935 34.935 0 0 1-3.969 2.781c-1.354.792-2.541 1.406-3.562 1.844-1.021.416-1.677.625-1.969.625-.208 0-.312-.063-.312-.188 0-.187.271-.448.812-.781 2.959-1.792 5.459-3.563 7.5-5.313-.937-.666-1.927-1.49-2.969-2.468-1.02-.98-1.531-1.625-1.531-1.938 0-.166.146-.375.438-.625.229-.187.416-.281.562-.281.188 0 .386.125.594.375 1.187 1.333 2.615 2.573 4.281 3.719 2-1.896 3.406-3.688 4.219-5.375l-9.281.593Zm-13.406 10.063c0-.063.02-.177.062-.344a31.705 31.705 0 0 0 1.281-7.062c.021-.271.073-.459.157-.563.083-.104.25-.156.5-.156l.312.031c.312.042.521.125.625.25.104.104.156.26.156.469v.156c-.125 2.25-.5 4.75-1.125 7.5a1.42 1.42 0 0 1-.218.438c-.084.083-.209.125-.376.125-.208 0-.489-.063-.843-.188s-.531-.344-.531-.656Zm4.031-14.688c0-.166.135-.25.406-.25.354 0 .792.105 1.313.313.52.208.781.458.781.75l-.094 26.781c0 .417-.146.625-.437.625a6.605 6.605 0 0 1-.626-.187 2.523 2.523 0 0 1-.843-.438c-.271-.187-.407-.427-.407-.719 0-.145.011-.26.032-.343.166-.771.25-1.448.25-2.031L229 60.593c0-.5-.115-.917-.344-1.25-.125-.167-.187-.302-.187-.407Zm2.969 6.626c0-.167.114-.313.343-.438.229-.125.5-.219.813-.281.125 0 .26.104.406.312.167.188.406.667.719 1.438.312.75.75 1.927 1.312 3.531.063.188.094.344.094.469 0 .208-.177.396-.531.562-.354.167-.646.25-.875.25a.464.464 0 0 1-.344-.125 2.074 2.074 0 0 1-.187-.5c-.5-1.896-1.042-3.5-1.626-4.812-.083-.209-.124-.344-.124-.406Zm2.187 18.124c0-.124.063-.187.187-.187a.69.69 0 0 1 .219.031c.417.104.969.156 1.657.156l6.437-.124v-4.5l-3.094.124-.937.032h-.156c-.376 0-.719-.177-1.032-.531-.291-.376-.437-.73-.437-1.063 0-.125.073-.188.219-.188l.187.032a7.65 7.65 0 0 0 1.25.094h.406l3.594-.157v-2.781c0-.458-.125-.917-.375-1.375a.745.745 0 0 1-.094-.313c0-.187.146-.28.438-.28.208 0 .541.083 1 .25.458.166.739.312.844.437.124.104.187.26.187.469v3.5l3.063-.126a9.149 9.149 0 0 0 1.374-.187c.167-.042.282-.063.344-.063.292 0 .625.188 1 .563.396.354.594.635.594.844 0 .229-.229.364-.688.406l-5.687.219-.031 4.531 5.937-.125c.542 0 1.021-.052 1.438-.156.062-.021.166-.031.312-.031.25 0 .5.093.75.28.271.167.49.365.657.594.187.23.281.407.281.532 0 .229-.24.364-.719.406l-16.5.438h-.688c-.541 0-.874-.053-1-.157a3.07 3.07 0 0 1-.874-1.281.69.69 0 0 1-.063-.313ZM79 88.813h96v1.562H79v-1.563ZM38.2 112.418c-.165 0-.292-.036-.384-.109l-.136-.137a47.476 47.476 0 0 0-.657-1.203c-.346-.657-.601-1.103-.765-1.34-.347-.511-.52-.839-.52-.984 0-.201.119-.493.356-.875.364-.511.61-.921.738-1.231.237-.437.41-.775.52-1.012.109-.255.155-.455.136-.601a1.542 1.542 0 0 1-.027-.301c0-.073.018-.109.055-.109.036-.019.109-.009.218.027.183.055.392.182.63.383.054.054.118.127.19.219a.675.675 0 0 1 .137.246.229.229 0 0 1 .028.191c0 .055-.028.109-.082.164l-.137.109a14.33 14.33 0 0 0-.438.602c-.164.237-.319.456-.464.656l-.684.985c-.182.255-.273.437-.273.547 0 .054.082.2.246.437l.574.629c.547.601.802.884.766.848.346.346.52.683.52 1.011 0 .565-.183.848-.548.848Zm3.609-.082a.91.91 0 0 1-.41-.082 1.8 1.8 0 0 1-.438-.711l-.574-1.012-.547-.957c-.347-.474-.52-.793-.52-.957 0-.219.119-.501.356-.847l.437-.629c.183-.31.283-.493.301-.547.182-.365.337-.684.465-.957.146-.292.21-.511.191-.657a1.145 1.145 0 0 1-.027-.273c0-.146.082-.182.246-.109.237.091.492.237.766.437.127.128.21.237.246.328a.491.491 0 0 1 .082.301c0 .037-.064.109-.192.219a1.715 1.715 0 0 0-.328.301c-.11.109-.355.455-.738 1.039a8.452 8.452 0 0 1-.273.382c-.092.128-.21.301-.356.52-.182.237-.273.41-.273.52 0 .109.109.273.328.492.073.073.146.164.218.273l.329.328.71.793c.347.31.52.611.52.903 0 .601-.173.902-.52.902Zm-2.024 9.379c0-.018.046-.082.137-.192.11-.127.228-.282.355-.464.22-.31.438-.766.657-1.368.218-.601.337-1.157.355-1.668 0-.036-.018-.072-.055-.109-.018-.055-.063-.082-.136-.082l-.63.055-.929.082c-.2.656-.547 1.367-1.039 2.133-.219.346-.52.656-.902.929a3.95 3.95 0 0 1-1.067.547c-.11.037-.246.055-.41.055-.128-.018-.191-.055-.191-.11 0-.072.063-.136.191-.191.219-.146.465-.374.738-.684a7.23 7.23 0 0 0 .766-.957c.128-.182.264-.419.41-.711.146-.309.265-.592.356-.847a9.796 9.796 0 0 0-1.805.41c-.036.036-.1.055-.191.055-.055 0-.137-.037-.247-.11a3.552 3.552 0 0 1-.3-.328c-.037-.091-.019-.173.054-.246l.11-.219c.073-.109.146-.328.218-.656a3.84 3.84 0 0 0 .11-.793.8.8 0 0 0-.028-.191c0-.091.01-.137.028-.137.036-.018.082-.018.137 0 .2.036.382.1.546.191a.797.797 0 0 1 .301.301c.073.091.073.173 0 .246a.795.795 0 0 0-.082.11.343.343 0 0 0-.082.164c-.018.018-.054.218-.11.601 0 .018.01.037.028.055a.118.118 0 0 0 .11 0c.054 0 .136-.009.246-.027.109-.019.191-.037.246-.055.127-.018.273-.046.437-.082.183-.037.347-.064.492-.082.055-.201.091-.419.11-.656.036-.256.064-.429.082-.52l.027-.574v-.192c-.583.019-1.194.073-1.832.164l-.492.083h-.11a.526.526 0 0 1-.273-.083 8.368 8.368 0 0 1-.246-.191c-.237-.219-.355-.383-.355-.492 0-.109.082-.146.246-.109.218.036.446.054.683.054l.793-.027 3.801-.274c.146-.018.282-.036.41-.054.128-.037.255-.064.383-.082h.082c.237 0 .401.045.492.136.11.073.173.119.192.137.291.237.437.419.437.547 0 .109-.155.155-.465.137l-.547-.055c-.474-.018-1.185 0-2.133.055l-.109 1.066a7.254 7.254 0 0 1-.054.438c-.019.109-.037.2-.055.273l-.028.082a36.99 36.99 0 0 0 1.532-.164.898.898 0 0 1 .191-.055 1.67 1.67 0 0 1 .273-.082h.055c.11 0 .219.046.328.137.11.091.173.146.192.164.146.128.246.237.3.328.073.073.083.137.028.192a1.441 1.441 0 0 1-.137.218.614.614 0 0 0-.082.192c-.091.765-.237 1.385-.437 1.859-.164.419-.347.738-.547.957-.183.201-.41.392-.684.574-.11.073-.282.137-.52.192-.236.036-.355.036-.355 0Zm8.067-10.281c.054 0 .109.027.164.082a.264.264 0 0 1 .109.164v.054c0 .128-.1.374-.3.739l-1.97 3.418c-.145.31-.337.464-.574.464-.237 0-.437-.145-.601-.437a9.227 9.227 0 0 1-.602-1.066c-.11-.164-.2-.329-.273-.493a9.567 9.567 0 0 0-.164-.355c-.2-.346-.301-.593-.301-.738 0-.073.027-.128.082-.164.055-.055.11-.082.164-.082.2 0 .383.109.547.328.127.127.228.264.3.41l.301.41.547.629.246-.383c.256-.437.857-1.303 1.805-2.598.2-.255.374-.382.52-.382Zm-22.805 7.054c-1.112 1.422-2.279 2.616-3.5 3.582-1.221.966-2.315 1.687-3.281 2.16-.948.474-1.55.711-1.805.711-.164 0-.246-.054-.246-.164 0-.164.2-.382.601-.656 3.592-2.516 6.144-5.031 7.657-7.547-1.44-2.278-2.452-4.202-3.035-5.769-1.86 3.062-3.081 4.593-3.665 4.593-.09 0-.136-.054-.136-.164 0-.164.11-.437.328-.82a44.076 44.076 0 0 0 2.598-4.922c.838-1.823 1.503-3.472 1.996-4.949.51-1.495.765-2.488.765-2.981l-.027-.382v-.055c0-.146.082-.219.246-.219.219 0 .465.091.738.274.292.182.538.392.739.629.2.237.3.41.3.519 0 .128-.246.82-.738 2.078a48.493 48.493 0 0 1-1.422 3.309l6.617-.41c.328-.019.72-.11 1.176-.274a.91.91 0 0 1 .274-.054c.2 0 .419.091.656.273.237.164.437.365.601.602.183.218.274.373.274.464 0 .183-.2.292-.602.329l-2.433.136c-.784 2.844-1.905 5.442-3.364 7.793 1.933 2.68 4.348 5.077 7.246 7.192.183.145.274.264.274.355 0 .164-.2.374-.602.629-.4.273-.683.41-.847.41-.146 0-.638-.364-1.477-1.094-.82-.711-1.74-1.613-2.762-2.707a33.166 33.166 0 0 1-2.761-3.363l-.383.492Zm-15.45-13.89c0-.11.055-.164.165-.164.054 0 .1.009.136.027.274.073.675.109 1.204.109h.41l5.578-.382h.137c.437 0 .783.118 1.039.355.273.237.41.483.41.738a.957.957 0 0 1-.055.301 3.891 3.891 0 0 0-.082.273l-.71 4.54c.619.565.929.975.929 1.23 0 .237-.192.355-.574.355l-6.016.247-.137 7.41a24.045 24.045 0 0 0 1.696-.821 47.156 47.156 0 0 0 1.668-.902l1.148-.656c.401-.219.665-.328.793-.328s.219.036.273.109a.297.297 0 0 1 .082.219c0 .073-.045.155-.136.246-.091.091-.2.191-.328.301a35.67 35.67 0 0 1-.356.3c-1.094.985-2.142 1.805-3.144 2.461-.402.237-.957.602-1.668 1.094-.584.401-.948.611-1.094.629-.182.018-.392-.118-.63-.41-.236-.292-.309-.52-.218-.684.073-.146.137-.51.192-1.093.054-.602.082-1.049.082-1.34l.082-6.317v-.136c0-.602-.146-1.176-.438-1.723-.11-.219-.164-.365-.164-.438 0-.127.091-.191.274-.191.328 0 1.03.255 2.105.766l3.883-.164.574-4.813-4.648.383-.875.055c-.347 0-.638-.11-.875-.329-.22-.218-.438-.574-.657-1.066a1.14 1.14 0 0 1-.054-.191Zm12.852 4.593c.62 1.787 1.586 3.747 2.899 5.879 1.13-2.023 1.978-4.083 2.543-6.179l-5.442.3Zm58.817 0c-.146 0-.292-.027-.438-.082a.715.715 0 0 1-.328-.328c-.055-.164-.173-.355-.356-.574a2.074 2.074 0 0 0-.492-.492l.11-.137c.09.055.31.164.656.328.346.164.601.246.766.246a.99.99 0 0 0 .683-.273c.2-.182.456-.529.766-1.039.219-.347.42-.757.601-1.231.183-.474.32-.911.41-1.312l.028-.055c0-.054-.018-.1-.055-.137-.036-.054-.073-.082-.11-.082l-1.257.11c-.838.146-1.713.264-2.625.355a2.902 2.902 0 0 0-.574.137c-.219.073-.374.109-.465.109-.146 0-.337-.118-.574-.355a1.911 1.911 0 0 1-.274-.274c-.073-.109-.09-.2-.054-.273l.218-.219.137-.109c.255-.255.51-.593.766-1.012.182-.255.373-.683.574-1.285 0-.2.045-.301.137-.301.054 0 .145.037.273.11l.438.273c.109.091.182.164.218.219a.386.386 0 0 1 .055.219c0 .109-.073.246-.219.41a4.11 4.11 0 0 0-.383.437l-.629.903-.054.109c0 .055.073.082.219.082l2.105-.273 1.422-.11.547-.055.3-.054h.083c.182 0 .382.155.601.465.255.237.383.437.383.601l-.137.356c-.018.036-.164.464-.437 1.285-.328.784-.61 1.376-.848 1.777-.237.401-.492.711-.766.93-.492.401-.966.601-1.421.601Zm-2.98 4.594c-.201 0-.448-.155-.74-.465-.218-.218-.327-.382-.327-.492 0-.055.036-.082.11-.082.072-.018.163-.027.273-.027l.601-.028c.346 0 .574-.009.684-.027.346 0 .638-.009.875-.027 1.567-.146 2.625-.265 3.172-.356.273-.036.52-.073.738-.109a2.26 2.26 0 0 1 .52-.082c.255 0 .51.127.765.383.2.2.3.364.3.492 0 .109-.063.182-.19.219-.092.018-.63.054-1.614.109-.547.018-1.221.064-2.023.137-.802.073-1.504.146-2.106.218l-.465.082c-.2.037-.392.055-.574.055Zm4.073 6.098c-.182.237-.373.355-.574.355-.054 0-.082-.045-.082-.136a1.1 1.1 0 0 1 .11-.438l.546-1.094c.019-.073.046-.146.082-.218a1.48 1.48 0 0 0 .082-.192v-.027c0-.037-.027-.073-.082-.11a.233.233 0 0 0-.191-.027c-.292.018-.73.064-1.313.137-.565.073-.984.146-1.257.219l-.41.136a1.062 1.062 0 0 1-.356.082c-.328 0-.602-.1-.82-.3a1.705 1.705 0 0 1-.41-.383l-.055-.137c0-.091.155-.118.465-.082.419.036 1.285-.018 2.597-.164l.547-.082c.146-.018.374-.046.684-.082a6.79 6.79 0 0 0 .766-.164l.164-.055a.448.448 0 0 1 .191-.055c.091 0 .2.046.328.137.146.091.264.173.356.246.127.091.21.173.246.246.054.055.073.128.054.219 0 .091-.045.173-.136.246a2.743 2.743 0 0 0-.192.164 4.25 4.25 0 0 1-.383.41 4.46 4.46 0 0 1-.492.602c-.218.255-.373.437-.465.547Zm-1.367 5.387c0-.055.091-.201.274-.438.2-.219.355-.392.465-.52.273-.364.601-.893.984-1.585.4-.693.629-1.149.683-1.368.037-.109-.018-.164-.164-.164-.291 0-1.093.082-2.406.246-.857.11-1.495.219-1.914.329a.534.534 0 0 1-.273.082c-.146 0-.301-.101-.465-.301a.726.726 0 0 1-.11-.356c0-.073.046-.146.137-.218l.082-.11c.055-.109.119-.255.192-.437.072-.183.136-.356.191-.52.091-.292.155-.611.191-.957.019-.2.128-.255.329-.164.255.128.446.255.574.383.146.109.191.191.136.246a2.735 2.735 0 0 0-.437.738 7.415 7.415 0 0 0-.164.574c0 .073.045.11.137.11.273 0 .683-.046 1.23-.137l1.148-.137c.456-.054.82-.109 1.094-.164l.684-.136a.686.686 0 0 1 .219-.028c.09 0 .182.037.273.11.091.054.191.127.3.218.183.164.302.301.356.411.055.091.082.2.082.328 0 .073-.054.164-.164.273-.09.11-.2.283-.328.52-.529 1.075-1.212 1.978-2.05 2.707a3.806 3.806 0 0 1-.794.465 1.315 1.315 0 0 1-.355.054c-.091.018-.137 0-.137-.054Zm-10.664-6.29-.027 4.375c0 .42-.137.629-.41.629-.146 0-.374-.082-.684-.246-.31-.146-.465-.355-.465-.629l.027-.164c.092-.474.137-1.103.137-1.886l.028-2.024-1.641.055.027 4.375c0 .2-.045.364-.136.492a.354.354 0 0 1-.328.191c-.128 0-.292-.054-.493-.164-.237-.127-.4-.246-.492-.355a.579.579 0 0 1-.137-.383c0-.091.01-.164.028-.219.054-.382.082-1.002.082-1.859v-2.023l-1.805.082v5.332c0 .364-.146.546-.437.546a2.082 2.082 0 0 1-.903-.355.786.786 0 0 1-.355-.684l.027-.191a8.24 8.24 0 0 0 .137-1.504l.082-7.191c0-.657-.037-1.094-.11-1.313l-.054-.164-.028.274c-.182 1.932-.537 3.709-1.066 5.332-.529 1.604-1.075 2.889-1.64 3.855-.547.966-.93 1.449-1.149 1.449-.11 0-.164-.091-.164-.273 0-.219.073-.501.219-.848.383-.857.72-1.832 1.011-2.926-.054.055-.182.128-.382.219a1.39 1.39 0 0 1-.63.137c-.31 0-.482-.192-.519-.574a18.116 18.116 0 0 0-.574-2.899l-.055-.328c0-.219.11-.374.328-.465.237-.091.438-.136.602-.136.219 0 .374.127.465.382.583 1.769.875 2.853.875 3.254a39.074 39.074 0 0 0 1.066-6.371c.182-2.187.274-4.156.274-5.906 0-1.294-.028-2.16-.082-2.598a4.067 4.067 0 0 0-.301-1.148c-.11-.292-.164-.465-.164-.52 0-.146.09-.218.273-.218.365 0 .994.209 1.887.628 2.935-.565 5.441-1.239 7.52-2.023.346-.146.62-.365.82-.656.09-.128.2-.192.328-.192.255 0 .501.201.738.602.255.383.383.72.383 1.012 0 .255-.128.419-.383.492-2.953.857-6.08 1.531-9.379 2.023v1.313l9.38-.547h.245c.237 0 .483.109.739.328.273.201.41.401.41.602a.677.677 0 0 1-.082.3 1.567 1.567 0 0 0-.082.274l-.356 2.078c.401.492.602.848.602 1.066 0 .128-.064.21-.192.246a2.32 2.32 0 0 1-.52.082l-10.253.52a29.263 29.263 0 0 1-.11 1.531l.137-.027c.183 0 .684.118 1.504.355l8.504-.437h.246c.383 0 .675.118.875.355.219.237.328.438.328.602 0 .091-.027.21-.082.355a1.504 1.504 0 0 0-.055.301l-.081 8.641.027.711c0 .492-.119.847-.356 1.066-.237.237-.483.356-.738.356-.2 0-.483-.174-.848-.52a6.482 6.482 0 0 1-.984-1.121c-.273-.419-.41-.72-.41-.902 0-.092.045-.137.137-.137.145 0 .346.091.601.273.365.237.73.41 1.094.52l.027-4.567-2.078.082Zm-19.879 4.348c0-.146.055-.383.164-.711.42-1.203.812-2.743 1.176-4.621.036-.255.091-.428.164-.519.073-.092.182-.137.328-.137.164 0 .365.055.602.164.237.091.355.228.355.41 0 .328-.11 1.103-.328 2.324a23.598 23.598 0 0 1-.793 3.336c-.11.401-.264.602-.465.602-.2 0-.455-.091-.765-.274-.292-.182-.438-.373-.438-.574Zm.219-8.422c0-.091.073-.191.219-.301.146-.127.237-.2.273-.218.219-.146.374-.265.465-.356.255-.2.747-.729 1.477-1.586a74.98 74.98 0 0 0 2.214-2.734c-.437.036-.765.073-.984.109-1.513.164-2.497.246-2.953.246-.182 0-.346-.127-.492-.382-.146-.256-.219-.493-.219-.711 0-.073.027-.137.082-.192.073-.054.137-.1.191-.136.073-.055.128-.092.164-.11a3.1 3.1 0 0 0 .766-.683c.219-.219.602-.748 1.148-1.586a31.77 31.77 0 0 0 1.532-2.571c.456-.875.683-1.531.683-1.968 0-.201.1-.301.301-.301.091 0 .246.054.465.164.219.109.42.246.602.41.182.164.273.319.273.465 0 .31-.128.674-.383 1.094-.237.474-.71 1.248-1.422 2.324a34.735 34.735 0 0 1-1.941 2.707c.602-.055 1.704-.182 3.309-.383 1.093-1.549 1.64-2.497 1.64-2.844.037-.273.119-.41.246-.41.2 0 .456.128.766.383.328.255.492.501.492.738 0 .091-.055.219-.164.383a5.997 5.997 0 0 1-.246.41c-.401.693-1.294 1.932-2.68 3.719-1.367 1.768-2.415 3.008-3.144 3.719.328-.055 1.258-.274 2.789-.657l1.367-.328c-.31-.711-.474-1.075-.492-1.093-.11-.165-.164-.301-.164-.411 0-.182.09-.319.273-.41.182-.109.365-.164.547-.164.292 0 .501.1.629.301.292.401.647 1.066 1.066 1.996.42.912.63 1.458.63 1.641 0 .237-.138.428-.411.574-.255.128-.483.191-.684.191-.2 0-.346-.136-.437-.41l-.383-.957c-3.682 1.003-5.806 1.504-6.371 1.504-.273-.018-.52-.164-.738-.437-.2-.274-.301-.52-.301-.739Zm3.746 2.543c0-.2.11-.337.328-.41.219-.073.41-.109.574-.109.146 0 .256.054.328.164.092.091.174.246.247.465l.218 1.039c.456 2.005.684 3.208.684 3.609 0 .31-.146.529-.438.656-.273.11-.51.164-.71.164-.292 0-.465-.273-.52-.82-.182-1.805-.392-3.181-.629-4.129l-.055-.328a1.844 1.844 0 0 1-.027-.301Zm16.926-7.82.219-2.024-8.887.493c0 .893-.01 1.558-.027 1.996l8.695-.465Zm-5.496 8.148v-3.062l-1.805.082v3.062l1.805-.082Zm1.422-.054 1.668-.082.027-3.063-1.723.082.028 3.063Zm5.14-.246.028-3.036-2.078.082-.028 3.063 2.078-.109Zm33.66-8.75c0 .382-.118.692-.355.929-.237.219-.593.328-1.066.328-.365 0-.702-.182-1.012-.546-.292-.365-.438-.73-.438-1.094 0-.42.128-.739.383-.957.274-.237.629-.356 1.067-.356.346 0 .665.192.957.574.309.365.464.739.464 1.122Zm-2.871 9.761c0-.419.128-.738.383-.957.274-.237.629-.355 1.067-.355.346 0 .665.191.957.574.309.365.464.738.464 1.121s-.118.693-.355.93c-.237.219-.593.328-1.066.328-.365 0-.702-.182-1.012-.547-.292-.365-.438-.729-.438-1.094Zm61.004-9.351a.6.6 0 0 1-.383-.11l-.136-.136a47.5 47.5 0 0 0-.657-1.203c-.346-.657-.601-1.103-.765-1.34-.347-.511-.52-.839-.52-.985 0-.2.119-.492.356-.875.364-.51.61-.92.738-1.23.237-.438.41-.775.52-1.012.109-.255.155-.456.136-.601a1.567 1.567 0 0 1-.027-.301c0-.073.018-.11.055-.11.036-.018.109-.009.218.028.183.054.392.182.629.383.055.054.119.127.192.218a.667.667 0 0 1 .136.246.23.23 0 0 1 .028.192c0 .054-.028.109-.082.164l-.137.109c-.128.164-.273.365-.438.602-.164.237-.319.456-.464.656l-.684.984c-.182.256-.273.438-.273.547 0 .055.082.201.246.438l.574.629c.547.601.802.884.766.847.346.347.519.684.519 1.012 0 .565-.182.848-.547.848Zm3.61-.082a.928.928 0 0 1-.411-.082 1.803 1.803 0 0 1-.437-.711l-.574-1.012-.547-.957c-.347-.474-.52-.793-.52-.957 0-.219.119-.501.356-.848l.437-.629c.183-.31.283-.492.301-.547.182-.364.337-.683.465-.957.146-.291.21-.51.191-.656a1.163 1.163 0 0 1-.027-.273c0-.146.082-.183.246-.11a3.4 3.4 0 0 1 .766.438c.127.128.209.237.246.328a.496.496 0 0 1 .082.301c0 .036-.064.109-.192.219a1.759 1.759 0 0 0-.328.3c-.109.11-.355.456-.738 1.039-.073.11-.164.237-.273.383-.092.128-.21.301-.356.52-.182.237-.273.41-.273.519 0 .11.109.274.328.492.073.073.146.165.219.274l.328.328.711.793c.346.31.519.611.519.902 0 .602-.173.903-.519.903Zm.355 7.465c-.273 0-.538-.201-.793-.602a8.658 8.658 0 0 0-.957-1.258l-.711-.738c-.383.437-.72.784-1.012 1.039a5.421 5.421 0 0 1-1.039.738c-.784.456-1.44.684-1.968.684-.128 0-.192-.046-.192-.137 0-.055.173-.173.52-.355.346-.183.674-.401.984-.657.784-.656 1.431-1.33 1.942-2.023-.11-.109-.657-.583-1.641-1.422a9.016 9.016 0 0 1-.574-.465 6.371 6.371 0 0 1-.328-.246c-.165-.127-.247-.219-.247-.273 0-.091.046-.137.137-.137.274 0 .711.191 1.313.574.601.365 1.23.802 1.886 1.313.256-.31.456-.602.602-.875.146-.274.31-.611.492-1.012.091-.201.146-.374.164-.52.018-.164.028-.264.028-.3 0-.201.054-.301.164-.301.127 0 .3.1.519.301.383.364.574.61.574.738 0 .073-.045.155-.136.246-.219.219-.42.51-.602.875-.109.219-.31.529-.601.93a2.22 2.22 0 0 0-.219.301 3.18 3.18 0 0 1-.164.246c.419.309 1.039.838 1.859 1.586.201.182.328.355.383.519.073.146.109.346.109.602a.776.776 0 0 1-.136.464.442.442 0 0 1-.356.165Zm-2.68 8.421c-.893 0-1.613-.227-2.16-.683-.583-.511-.875-1.103-.875-1.778 0-.583.21-1.057.629-1.421.182-.164.429-.301.738-.411.31-.127.602-.191.875-.191.183 0 .283-.009.301-.027.037-.037.064-.128.082-.274.018-.127.028-.392.028-.793a1.747 1.747 0 0 1-.028-.383c-1.13.11-1.969.219-2.515.329-.128.018-.283-.01-.465-.082a1.484 1.484 0 0 1-.41-.329c-.11-.127-.146-.218-.11-.273a.491.491 0 0 1 .219-.137c.073-.036.191-.054.355-.054.566 0 .976-.019 1.231-.055l3.828-.383c.055 0 .182-.009.383-.027.219-.018.419-.055.601-.11h.082c.073 0 .137.028.192.082a.46.46 0 0 0 .137.055c.273.219.41.41.41.574 0 .128-.11.192-.328.192l-.329-.028c-.091-.018-.546 0-1.367.055l-.82.055a6.17 6.17 0 0 1 0 .82c-.018.31-.036.574-.055.793l.028.301a.474.474 0 0 1-.11.301c-.109.182-.291.273-.547.273-.145 0-.273-.009-.382-.027l-.274-.055c-.292-.018-.601.1-.93.355-.273.274-.41.566-.41.875 0 .42.173.775.52 1.067.2.164.41.273.629.328.237.073.519.109.847.109.438 0 .848-.073 1.231-.218.383-.146.665-.365.847-.657.073-.127.137-.2.192-.218.055-.037.155-.055.301-.055a.48.48 0 0 1 .355.137c.11.109.164.218.164.328 0 .328-.301.683-.902 1.066-.602.383-1.331.574-2.188.574Zm8.258-12.304c.219 0 .328.1.328.301 0 .109-.1.264-.3.464-.547.675-1.632 1.96-3.254 3.856-.128.164-.246.246-.356.246-.091 0-.292-.137-.601-.41-.256-.219-.383-.401-.383-.547 0-.164.136-.319.41-.465.419-.237 1.048-.711 1.887-1.422.838-.747 1.458-1.34 1.859-1.777.164-.164.301-.246.41-.246Zm-35.465 12.496c0 .474-.136.711-.41.711-.291 0-.62-.119-.984-.356-.347-.218-.52-.528-.52-.929 0-.128.009-.228.028-.301a8.586 8.586 0 0 0 .164-1.778l-.028-18.101a3.21 3.21 0 0 0-.355-1.504c-.11-.255-.164-.41-.164-.465 0-.127.1-.191.301-.191.309 0 .984.182 2.023.547l17.063-1.012h.3c.31 0 .611.1.903.301.31.2.464.437.464.711a.817.817 0 0 1-.082.3.648.648 0 0 0-.082.246l-.082 18.758c.584.657.875 1.094.875 1.313 0 .109-.063.173-.191.191a1.295 1.295 0 0 1-.41.055 2.937 2.937 0 0 1-.328.027l-18.485.41v1.067Zm0-2.516 16.844-.465.055-18.894-16.953.93.054 18.429Zm.766-4.32c0-.128.064-.192.191-.192h.11c.255.055.492.083.711.083.383 0 1.203-.183 2.461-.547a38.218 38.218 0 0 0 3.445-1.149c.273-.091.465-.137.574-.137.201 0 .301.055.301.165 0 .218-.465.592-1.395 1.121a31.437 31.437 0 0 1-3.035 1.504c-1.094.455-1.777.683-2.051.683-.2 0-.401-.1-.601-.301a3.883 3.883 0 0 1-.52-.711c-.127-.255-.191-.428-.191-.519Zm0-9.789c0-.073.046-.11.137-.11l.218.055c.31.091.638.137.985.137h.219l5.632-.301a47.655 47.655 0 0 1-.41-2.351c-.036-.402-.219-.775-.547-1.122-.109-.109-.164-.191-.164-.246 0-.127.155-.191.465-.191.966 0 1.513.237 1.641.711l.027.164c.037.328.073.574.109.738.037.255.083.611.137 1.067.073.455.137.838.192 1.148l3.582-.246c.182 0 .364-.009.546-.027.183-.037.365-.101.547-.192a.453.453 0 0 1 .246-.054c.201 0 .456.154.766.464.328.292.492.511.492.657 0 .182-.2.291-.601.328l-5.305.355c.474 2.279.994 4.065 1.559 5.36.364-.657.701-1.34 1.011-2.051.328-.711.493-1.203.493-1.477a.958.958 0 0 0-.028-.273v-.164c0-.183.064-.274.192-.274.182 0 .464.164.847.492.383.31.574.566.574.766 0 .091-.1.374-.3.848a15.392 15.392 0 0 1-.821 1.668 21.597 21.597 0 0 1-1.257 1.941c.783 1.55 1.576 2.58 2.378 3.09a.43.43 0 0 0 .165.055c.109 0 .164-.037.164-.11.328-1.093.556-2.105.683-3.035.037-.31.1-.547.192-.711.091-.182.182-.273.273-.273.109 0 .191.091.246.273.073.182.119.447.137.793v.547c0 1.786-.128 2.971-.383 3.555-.237.583-.547.875-.93.875-.674 0-1.34-.356-1.996-1.067-.638-.729-1.285-1.64-1.941-2.734-.656.766-1.477 1.559-2.461 2.379-.984.802-1.632 1.203-1.942 1.203-.127 0-.191-.055-.191-.164 0-.182.201-.465.602-.848 1.33-1.221 2.451-2.488 3.363-3.801-.893-1.987-1.595-4.247-2.106-6.781l-5.386.301-.547.027c-.383 0-.647-.063-.793-.191a3.938 3.938 0 0 1-.492-.602c-.146-.237-.219-.437-.219-.601Zm.766 2.68c0-.11.109-.165.328-.165.237 0 .738.11 1.504.329l3.117-.219.164-.028c.219 0 .456.092.711.274.255.182.383.346.383.492a.882.882 0 0 1-.055.246 1.478 1.478 0 0 0-.082.274l-.301 2.023c.365.383.547.665.547.848 0 .164-.21.264-.629.3l-3.582.219.027.274v.082c0 .273-.118.41-.355.41s-.492-.073-.766-.219c-.273-.164-.41-.337-.41-.519 0-.073.009-.128.028-.164a3.24 3.24 0 0 0 .027-.52v-.246l-.164-2.188c-.055-.51-.192-.938-.41-1.285a.464.464 0 0 1-.082-.218Zm2.023 3.417 2.406-.136.219-2.106-2.789.164.164 2.078Zm6.125-9.242c0-.127.046-.291.137-.492.091-.2.237-.301.437-.301.201 0 .702.183 1.504.547.802.347 1.376.611 1.723.793.219.11.328.264.328.465 0 .146-.055.337-.164.574-.11.237-.264.356-.465.356-.109 0-.237-.046-.383-.137-.784-.51-1.704-.975-2.762-1.395-.236-.091-.355-.227-.355-.41Zm59.309 7.11c-.146 0-.292-.028-.438-.082a.716.716 0 0 1-.328-.329c-.055-.164-.173-.355-.355-.574a2.115 2.115 0 0 0-.493-.492l.11-.137c.091.055.31.164.656.329.346.164.602.246.766.246a.988.988 0 0 0 .683-.274c.201-.182.456-.528.766-1.039.219-.346.419-.756.601-1.23.183-.474.319-.912.411-1.313l.027-.055c0-.054-.018-.1-.055-.136-.036-.055-.073-.082-.109-.082l-1.258.109a37.02 37.02 0 0 1-2.625.356 2.828 2.828 0 0 0-.574.136c-.219.073-.374.11-.465.11-.146 0-.337-.119-.574-.356a1.955 1.955 0 0 1-.274-.273c-.073-.11-.091-.201-.054-.274l.218-.218.137-.11c.255-.255.51-.592.766-1.012.182-.255.373-.683.574-1.285 0-.2.045-.3.137-.3.054 0 .145.036.273.109l.438.273c.109.091.182.164.218.219a.386.386 0 0 1 .055.219c0 .109-.073.246-.219.41a4.262 4.262 0 0 0-.383.437l-.628.903-.055.109c0 .055.073.082.219.082l2.105-.273 1.422-.11.547-.054.301-.055h.082c.182 0 .382.155.601.465.255.237.383.437.383.601l-.137.356c-.018.036-.164.465-.437 1.285-.328.784-.611 1.376-.848 1.777s-.492.711-.765.93c-.493.401-.967.602-1.422.602Zm2.242 9.324a.486.486 0 0 1-.246-.082c-.091-.073-.21-.173-.356-.301-.638-.492-1.258-1.23-1.859-2.215a10.412 10.412 0 0 1-1.285-3.199 5.729 5.729 0 0 0-.082-.383 1.685 1.685 0 0 0-.11-.328c0-.018-.027-.027-.082-.027-.127 0-.373.082-.738.246a1.277 1.277 0 0 0-.328.246c-.091.091-.192.128-.301.109-.073 0-.173-.045-.301-.136a1.303 1.303 0 0 1-.273-.247c-.182-.255-.274-.41-.274-.464 0-.11.101-.174.301-.192.274 0 .447-.009.52-.027a7.901 7.901 0 0 0 1.504-.356.996.996 0 0 0 .3-.164.206.206 0 0 0 .082-.027c.055-.018.119 0 .192.055.273.182.41.319.41.41 0 1.276.365 2.47 1.094 3.582.729 1.112 1.795 2.051 3.199 2.816.073.037.164.073.273.11.11.036.164.091.164.164 0 .091-.3.173-.902.246l-.683.109-.219.055Zm6.344-10.363c.054 0 .109.027.164.082a.265.265 0 0 1 .109.164v.054c0 .128-.1.374-.301.739l-1.969 3.418c-.145.31-.337.464-.574.464-.237 0-.437-.145-.601-.437a9.233 9.233 0 0 1-.602-1.066 3.365 3.365 0 0 1-.273-.493 10.748 10.748 0 0 0-.164-.355c-.201-.346-.301-.593-.301-.738 0-.073.027-.128.082-.164.055-.055.109-.082.164-.082.2 0 .383.109.547.328.127.127.228.264.301.41l.3.41.547.629.246-.383c.256-.437.857-1.303 1.805-2.598.201-.255.374-.382.52-.382Zm-25.758-7.684c0-.419-.164-.893-.492-1.422a.486.486 0 0 1-.082-.246c0-.146.127-.219.382-.219.11 0 .319.028.629.082.328.055.638.164.93.328.292.146.437.356.437.629l-.054 7.629 4.457-.683c.401-.055.738-.164 1.011-.328.183-.092.31-.137.383-.137.219 0 .493.127.821.383.328.237.501.501.519.793 0 .309-.228.492-.683.546l-6.508 1.04-.055 8.996c0 .419.064.729.191.929.128.201.411.347.848.438.438.073 1.158.109 2.16.109 1.112 0 2.106-.073 2.981-.219.346-.054.61-.182.793-.382.182-.219.355-.638.519-1.258.183-.638.383-1.641.602-3.008.073-.401.155-.711.246-.93.091-.237.182-.355.273-.355.128 0 .219.209.274.629.073.401.109 1.185.109 2.351 0 1.586-.091 2.68-.273 3.282-.164.601-.629 1.02-1.395 1.257-.765.237-2.114.356-4.047.356-1.349 0-2.36-.064-3.035-.192-.674-.127-1.185-.41-1.531-.847-.328-.419-.492-1.094-.492-2.024l.082-17.527Zm-13.235 19.277c0-.127.092-.191.274-.191 1.148-.037 3.637-.693 7.465-1.969l.027-8.258-4.102.329-.765.054c-.802 0-1.322-.465-1.559-1.394a.31.31 0 0 1-.027-.137c0-.091.055-.137.164-.137l.137.028c.401.036.701.054.902.054.31 0 .547-.009.711-.027l4.539-.301v-6.644c0-.438-.155-.903-.465-1.395a.436.436 0 0 1-.109-.273c0-.128.1-.192.301-.192.328 0 .747.1 1.257.301.529.201.793.447.793.738l-.054 16.625c.31-.109 1.039-.373 2.187-.793.274-.091.474-.136.602-.136.255 0 .383.091.383.273 0 .237-.228.474-.684.711a76.7 76.7 0 0 1-4.648 2.269c-1.495.675-2.762 1.195-3.801 1.559-1.021.383-1.641.574-1.86.574-.237 0-.483-.109-.738-.328a3.61 3.61 0 0 1-.656-.738c-.182-.274-.274-.474-.274-.602Zm72.352-14.082c-.109 0-.255-.118-.438-.355-.182-.255-.264-.474-.246-.656.037-.146.064-.556.082-1.231a68.03 68.03 0 0 0 .028-2.406c0-.802-.009-1.34-.028-1.613l-.902.082c-.638.091-1.185.136-1.641.136-.127 0-.309-.1-.546-.3-.237-.201-.356-.347-.356-.438 0-.146.155-.2.465-.164.2.018.793.009 1.777-.027a88.717 88.717 0 0 1 2.926-.164c.31-.019.592-.046.848-.082.273-.055.465-.092.574-.11.164-.018.31 0 .437.055.128.055.247.127.356.219.127.073.228.127.301.164.164.109.246.209.246.3 0 .073-.046.146-.137.219a.398.398 0 0 1-.246.082c-.091 0-.219-.009-.383-.027a4.05 4.05 0 0 0-.492-.027c-.675 0-1.367.018-2.078.054-.018.146-.028.511-.028 1.094a79.322 79.322 0 0 0-.054 2.898v1.313c0 .31-.028.51-.082.601-.164.256-.292.383-.383.383Zm-2.926 4.84c-.2 0-.446-.155-.738-.465-.219-.218-.328-.382-.328-.492 0-.055.036-.082.109-.082.073-.018.164-.027.274-.027l.601-.028c.346 0 .574-.009.684-.027.346 0 .638-.009.875-.027 1.567-.146 2.625-.265 3.172-.356.273-.036.519-.073.738-.109.219-.055.392-.082.519-.082.256 0 .511.127.766.383.201.2.301.364.301.492 0 .109-.064.182-.192.219-.091.018-.628.054-1.613.109a36.08 36.08 0 0 0-2.023.137 75.87 75.87 0 0 0-2.106.218l-.465.082a3.16 3.16 0 0 1-.574.055Zm5.879 9.434c.037.073.1.182.191.328a.953.953 0 0 1 .137.519.52.52 0 0 1-.219.438.723.723 0 0 1-.492.191c-.164 0-.301-.164-.41-.492-.055-.127-.1-.237-.137-.328a2.53 2.53 0 0 0-.054-.191 6.324 6.324 0 0 1-.93.191c-.383.055-.656.1-.82.137-.875.164-1.477.282-1.805.355-.128.037-.264.073-.41.11a1.107 1.107 0 0 0-.246.109.897.897 0 0 1-.246.055.576.576 0 0 1-.411-.192 1.504 1.504 0 0 1-.492-.656c-.018-.018-.027-.046-.027-.082 0-.037.046-.082.137-.137.109-.054.191-.091.246-.109.237-.128.656-.511 1.258-1.149l.738-.711-1.613-.875c-.183-.054-.301-.118-.356-.191-.055-.073-.082-.182-.082-.328 0-.109.018-.182.055-.219.054-.054.164-.137.328-.246.164-.109.328-.255.492-.437.091-.11.21-.228.356-.356.145-.127.282-.264.41-.41.547-.638.893-1.139 1.039-1.504.091-.182.164-.273.219-.273.036 0 .109.036.218.109.347.255.556.492.629.711v.082c0 .091-.045.164-.137.219a1.07 1.07 0 0 0-.191.136c-.055.037-.328.301-.82.793l-.492.493-.465.464c-.219.201-.328.319-.328.356 0 .055.027.1.082.137a.644.644 0 0 1 .164.109l1.148.547c.711-.711 1.121-1.13 1.231-1.258.474-.547.738-.893.793-1.039a.663.663 0 0 0 .082-.137c.036-.073.073-.109.109-.109.055 0 .109.027.164.082.292.273.501.529.629.766a.492.492 0 0 1 .055.136c0 .037-.046.091-.137.164l-.219.164c-.638.529-1.385 1.222-2.242 2.079l-1.668 1.558c-.036.037-.055.073-.055.11 0 .036.019.063.055.082.036.018.091.018.164 0l3.199-.547c-.091-.365-.2-.73-.328-1.094v-.055c0-.054.028-.082.082-.082.073 0 .182.055.328.164.292.255.657.693 1.094 1.313Zm5.688-8.778c.054 0 .109.028.164.082a.27.27 0 0 1 .109.165v.054c0 .128-.1.374-.301.738l-1.969 3.418c-.145.31-.337.465-.574.465-.237 0-.437-.146-.601-.437a9.263 9.263 0 0 1-.602-1.067 3.357 3.357 0 0 1-.273-.492 10.748 10.748 0 0 0-.164-.355c-.201-.347-.301-.593-.301-.739 0-.072.027-.127.082-.164.055-.054.109-.082.164-.082.2 0 .383.11.547.328.127.128.228.265.301.411l.3.41.547.629.246-.383c.256-.438.857-1.304 1.805-2.598.201-.255.374-.383.52-.383Zm-27.618-11.785c0-.437-.118-.802-.355-1.094-.091-.127-.137-.209-.137-.246 0-.109.1-.164.301-.164.146 0 .392.037.738.11.347.073.666.182.957.328.292.146.438.319.438.519l-.082 20.207.027 1.094c0 .602-.164 1.021-.492 1.258-.328.237-.611.355-.848.355-.273 0-.92-.282-1.941-.847a32.224 32.224 0 0 1-2.817-1.778c-.875-.638-1.312-1.075-1.312-1.312 0-.164.118-.246.355-.246.201 0 .438.064.711.191 1.841.784 3.3 1.322 4.375 1.614l.082-19.989Zm-11.593 16.762c0-.164.109-.419.328-.766 1.239-1.823 2.251-3.463 3.035-4.922a20.826 20.826 0 0 0 1.805-4.73c.073-.292.109-.51.109-.656 0-.146-.027-.301-.082-.465a.616.616 0 0 1-.027-.191c0-.165.091-.247.273-.247.273 0 .684.164 1.23.493.62.364.93.701.93 1.011a.48.48 0 0 1-.027.192c-.875 2.06-1.841 3.883-2.899 5.468-1.057 1.568-2.014 2.799-2.871 3.692-.838.875-1.385 1.312-1.64 1.312-.11 0-.164-.063-.164-.191Zm16.843-10.965c0-.182.137-.383.411-.601.273-.237.537-.356.793-.356.2 0 .373.1.519.301a54.365 54.365 0 0 1 2.68 3.801 72.557 72.557 0 0 1 2.406 3.937c.656 1.149.984 1.814.984 1.996 0 .201-.091.383-.273.547a2.483 2.483 0 0 1-.629.41c-.219.11-.383.164-.492.164-.237 0-.429-.136-.574-.41a69.522 69.522 0 0 0-2.762-5.086 40.1 40.1 0 0 0-2.899-4.293c-.109-.146-.164-.282-.164-.41Zm58.543 3.363c-.273 0-.474-.145-.601-.437l-.246-.547c-.711.182-1.285.319-1.723.41l-1.777.438c-.365.091-.593.136-.684.136a.615.615 0 0 1-.273-.054l-.137-.137a1.188 1.188 0 0 1-.082-.137c-.146-.255-.21-.428-.192-.519l.192-.301c.474-.656.911-1.595 1.312-2.816l-.546.082-.711.082c-.055.018-.174.054-.356.109-.164.036-.292.027-.383-.027-.2-.128-.465-.356-.793-.684-.073-.073-.109-.128-.109-.164 0-.109.2-.164.602-.164h.929c.62-.037 1.185-.082 1.696-.137.109-.273.227-.62.355-1.039.128-.419.219-.756.273-1.012v-.328c.019-.164.055-.264.11-.3h.027c.073 0 .173.036.301.109.128.073.246.164.355.273.347.347.447.62.301.821-.073.018-.228.319-.465.902-.018.036-.082.201-.191.492l1.586-.191c.419-.037.738-.082.957-.137.31-.091.556-.137.738-.137.146 0 .265.055.356.164l.191.192c.055.054.119.164.191.328.073.128.101.219.082.273-.072.11-.2.164-.382.164a15.03 15.03 0 0 0-2.16.055 9.215 9.215 0 0 0-.821.11l-1.066.109-.246.738-.301.656a10.08 10.08 0 0 1-.301.657 6.012 6.012 0 0 0-.246.547.383.383 0 0 0-.027.164c0 .091.054.136.164.136.146 0 .647-.082 1.504-.246l1.011-.164.465-.109c-.164-.456-.291-.748-.383-.875a2.998 2.998 0 0 1-.164-.246l.164-.164c.711.455 1.286.92 1.723 1.394.128.164.21.319.246.465.055.146.073.31.055.492a.759.759 0 0 1-.192.383c-.036.091-.145.155-.328.191Zm-2.242 9.899c0-.018.046-.082.137-.192.109-.127.228-.282.355-.464.219-.31.438-.766.657-1.368.218-.601.337-1.157.355-1.668 0-.036-.018-.072-.055-.109-.018-.055-.063-.082-.136-.082l-.629.055-.93.082c-.2.656-.547 1.367-1.039 2.133-.219.346-.52.656-.902.929a3.95 3.95 0 0 1-1.067.547 1.295 1.295 0 0 1-.41.055c-.128-.018-.191-.055-.191-.11 0-.072.063-.136.191-.191.219-.146.465-.374.738-.684.292-.309.547-.628.766-.957a5.66 5.66 0 0 0 .41-.711c.146-.309.264-.592.356-.847a9.79 9.79 0 0 0-1.805.41c-.037.036-.1.055-.191.055-.055 0-.137-.037-.247-.11a3.548 3.548 0 0 1-.3-.328c-.037-.091-.019-.173.054-.246l.11-.219c.073-.109.146-.328.218-.656.073-.328.11-.592.11-.793a.766.766 0 0 0-.028-.191c0-.091.01-.137.028-.137.036-.018.082-.018.137 0 .2.036.382.1.546.191a.792.792 0 0 1 .301.301c.073.091.073.173 0 .246a.868.868 0 0 0-.082.11.346.346 0 0 0-.082.164c-.018.018-.055.218-.109.601 0 .018.009.037.027.055a.119.119 0 0 0 .11 0c.054 0 .136-.009.246-.027.109-.019.191-.037.246-.055.127-.018.273-.046.437-.082a6.53 6.53 0 0 1 .492-.082c.055-.201.092-.419.11-.656.036-.256.064-.429.082-.52l.027-.574v-.192c-.583.019-1.194.073-1.832.164l-.492.083h-.109a.525.525 0 0 1-.274-.083 8.116 8.116 0 0 1-.246-.191c-.237-.219-.355-.383-.355-.492 0-.109.082-.146.246-.109.218.036.446.054.683.054l.793-.027 3.801-.274c.146-.018.283-.036.41-.054.128-.037.255-.064.383-.082h.082c.237 0 .401.045.492.136.11.073.173.119.192.137.291.237.437.419.437.547 0 .109-.155.155-.465.137l-.547-.055c-.474-.018-1.185 0-2.132.055l-.11 1.066a6.426 6.426 0 0 1-.055.438c-.018.109-.036.2-.054.273l-.028.082c.438-.036.948-.091 1.532-.164a.89.89 0 0 1 .191-.055c.091-.036.182-.063.274-.082h.054c.11 0 .219.046.328.137.11.091.174.146.192.164.146.128.246.237.301.328.072.073.082.137.027.192a1.452 1.452 0 0 1-.137.218.619.619 0 0 0-.082.192c-.091.765-.237 1.385-.437 1.859-.164.419-.347.738-.547.957-.183.201-.41.392-.684.574-.109.073-.282.137-.519.192-.237.036-.356.036-.356 0Zm4.457-9.899c.091 0 .228.064.41.192-.018.036.019.109.11.219l.191.191c.091.091.182.2.274.328.109.128.227.264.355.41.328.347 1.085 1.249 2.27 2.707.2.292.3.465.3.52 0 .182-.109.273-.328.273-.127 0-.264-.091-.41-.273-.346-.365-.966-.939-1.859-1.723-.693-.638-1.322-1.13-1.887-1.476-.273-.128-.41-.274-.41-.438 0-.128.137-.31.41-.547.255-.255.447-.383.574-.383Zm-25.074 7.793a55.609 55.609 0 0 1-4.32 2.735c-1.368.765-2.206 1.148-2.516 1.148a.723.723 0 0 1-.328-.082 2.628 2.628 0 0 1-1.149-1.039.426.426 0 0 1-.054-.164c0-.091.045-.155.137-.191.601-.092 1.622-.401 3.062-.93 1.44-.529 3.062-1.212 4.867-2.051a.922.922 0 0 1 .41-.109c.183 0 .274.064.274.191 0 .164-.128.328-.383.492Zm-11.484.055c0-.164.209-.392.628-.684 1.678-1.112 3.118-2.196 4.321-3.253a21.093 21.093 0 0 0 3.308-3.637l-4.621.219-1.039.054c-.383 0-.692-.1-.929-.301a2.182 2.182 0 0 1-.52-.683c-.091-.255-.137-.419-.137-.492 0-.11.055-.164.164-.164l.219.054c.383.073.784.11 1.203.11h.301l6.344-.301c.437-.747.793-1.477 1.066-2.188l-2.488.137-.656.027c-.693 0-1.14-.419-1.34-1.257l-.028-.11c0-.091.046-.136.137-.136.055 0 .1.009.137.027.328.055.684.082 1.066.082h.328l3.364-.191c.182-.493.364-1.14.547-1.942l-5.223.301c-.255.018-.574.027-.957.027-.456 0-.766-.064-.93-.191-.127-.073-.282-.264-.465-.574-.182-.31-.273-.52-.273-.629 0-.11.064-.164.191-.164.073 0 .137.009.192.027.383.073.784.109 1.203.109h.301l6.261-.382.246-1.75v-.137c0-.346-.1-.638-.3-.875-.091-.128-.137-.228-.137-.301 0-.146.128-.219.383-.219s.638.064 1.148.192c.511.127.766.346.766.656v.082l-.328 2.242 5.222-.301a4.854 4.854 0 0 0 1.45-.3.672.672 0 0 1 .3-.055c.201 0 .411.082.629.246.219.164.41.356.574.574.165.201.247.356.247.465 0 .201-.174.319-.52.356l-8.203.492a31.734 31.734 0 0 1-.492 1.969l4.293-.247a8.623 8.623 0 0 0 1.011-.136.69.69 0 0 1 .219-.028c.182 0 .438.137.766.411.328.273.492.519.492.738 0 .164-.173.264-.52.301l-6.753.355c-.31.857-.648 1.595-1.012 2.215l10.691-.492a5.853 5.853 0 0 0 1.449-.274.916.916 0 0 1 .274-.054c.292 0 .647.209 1.066.628.274.274.41.493.41.657 0 .109-.054.2-.164.273a.678.678 0 0 1-.355.082l-6.809.328c2.461 2.48 5.159 4.421 8.094 5.825.146.072.264.145.356.218.109.073.164.146.164.219 0 .182-.201.428-.602.738-.383.292-.665.438-.848.438-.145 0-.711-.319-1.695-.957-.984-.656-2.142-1.531-3.473-2.625a37.577 37.577 0 0 1-3.882-3.774l-5.551.274a19.524 19.524 0 0 1-3.856 4.156c-1.44 1.167-2.77 2.069-3.992 2.707-1.203.62-1.941.93-2.215.93-.145 0-.218-.046-.218-.137Zm6.89-3.062c0-.183.091-.383.274-.602.182-.219.355-.328.519-.328.128 0 .237.036.328.109 1.222.693 2.142 1.276 2.762 1.75.128.073.191.192.191.356 0 .218-.1.474-.3.765-.183.274-.374.41-.575.41a.493.493 0 0 1-.355-.164c-.911-.783-1.75-1.412-2.516-1.886-.218-.146-.328-.283-.328-.41Zm1.75 5.988c0-.091.055-.137.164-.137.164 0 .374.064.629.192 1.003.455 1.951.774 2.844.957l-.055-9.325c0-.601-.118-1.075-.355-1.422a.464.464 0 0 1-.082-.218c0-.091.082-.137.246-.137.328 0 .72.091 1.176.273.455.183.683.456.683.821v9.844l.028.874c0 .474-.146.83-.438 1.067-.273.237-.519.355-.738.355-.255 0-.72-.218-1.395-.656a13.047 13.047 0 0 1-1.859-1.394c-.565-.493-.848-.857-.848-1.094Zm5.524-3.856c0-.182.209-.401.629-.656a8.62 8.62 0 0 0 1.886-1.613c.584-.675.93-1.222 1.039-1.641.055-.182.137-.273.246-.273.11 0 .274.091.493.273.237.164.446.365.629.602.182.237.273.456.273.656a.421.421 0 0 1-.191.356c-2.571 1.622-4.157 2.433-4.758 2.433-.164 0-.246-.045-.246-.137Zm1.121.93c0-.164.073-.328.219-.492a.752.752 0 0 1 .574-.274c.218 0 .984.374 2.297 1.122a56.2 56.2 0 0 1 3.554 2.105c.255.182.401.383.438.602 0 .127-.082.319-.246.574-.146.273-.338.419-.575.437h-.054c-.11 0-.292-.091-.547-.273-1.149-.802-2.689-1.768-4.621-2.899l-.684-.41a.575.575 0 0 1-.273-.191.572.572 0 0 1-.082-.301Zm55.316-10.527c-.2 0-.446-.155-.738-.465-.219-.219-.328-.383-.328-.492 0-.055.036-.082.109-.082a1.11 1.11 0 0 1 .274-.028l.601-.027c.346 0 .574-.009.684-.027.346 0 .638-.009.875-.028 1.567-.146 2.625-.264 3.172-.355.273-.037.519-.073.738-.11.219-.054.392-.082.519-.082.256 0 .511.128.766.383.201.201.301.365.301.492 0 .11-.064.183-.192.219-.091.018-.628.055-1.613.11-.547.018-1.221.063-2.023.136-.802.073-1.504.146-2.106.219-.109.018-.264.046-.465.082-.2.036-.392.055-.574.055Zm6.207 11.976c.255.164.383.319.383.465 0 .201-.155.328-.465.383-.31.055-.747.091-1.312.109-.821.019-1.349-.009-1.586-.082-.401-.182-.602-.483-.602-.902l.028-1.012c.036-.328.054-.62.054-.875.018-.164.028-.483.028-.957a9.186 9.186 0 0 1-1.067 1.805c-.31.383-.583.702-.82.957-.237.237-.52.465-.848.684-.328.218-.629.328-.902.328-.164 0-.246-.055-.246-.164 0-.019.173-.155.519-.411.365-.273.729-.647 1.094-1.121.547-.729 1.021-1.586 1.422-2.57-.711.091-1.185.173-1.422.246a.988.988 0 0 0-.246.082.695.695 0 0 1-.274 0 2.255 2.255 0 0 1-.382-.219 2.48 2.48 0 0 1-.383-.355c-.073-.109-.11-.182-.11-.219 0-.091.137-.137.411-.137.674 0 1.54-.072 2.597-.218.11-.42.164-1.094.164-2.024v-.519c0-.219.046-.338.137-.356.018-.018.055-.027.109-.027.146 0 .347.109.602.328.201.164.328.292.383.383.073.073.082.173.027.301l-.109.218c-.055.11-.091.219-.11.328l-.109.547a5.716 5.716 0 0 0-.109.684c.255-.018.574-.055.957-.109.383-.055.665-.11.847-.164l.547-.137c.183-.037.483.118.903.465.072.054.109.118.109.191 0 .073-.037.137-.109.191a.386.386 0 0 1-.219.055c-.328 0-.93.055-1.805.164l-.902.082c.2.146.328.274.383.383a.42.42 0 0 1 .027.328l-.082.438c-.037.364-.073.765-.109 1.203a8.794 8.794 0 0 0 0 1.012c0 .091.054.173.164.246a.761.761 0 0 0 .382.109c.456 0 .967-.046 1.532-.137l.246-.054c.109 0 .2.018.273.054Zm5.25-11.484c.219 0 .328.1.328.301 0 .109-.1.264-.3.465-.547.674-1.632 1.959-3.254 3.855-.128.164-.246.246-.356.246-.091 0-.292-.137-.601-.41-.256-.219-.383-.401-.383-.547 0-.164.136-.319.41-.465.419-.237 1.048-.711 1.887-1.422.838-.747 1.458-1.34 1.859-1.777.164-.164.301-.246.41-.246Zm-19.168 13.918c.055 0 .091-.009.11-.027.036 0 .054-.028.054-.082.711-1.805 1.112-4.293 1.203-7.465l-1.367.054c-1.239 2.151-2.579 3.883-4.019 5.196-1.422 1.294-2.68 2.215-3.774 2.761-1.075.547-1.768.821-2.078.821-.182 0-.273-.055-.273-.164 0-.183.273-.456.82-.821a23.671 23.671 0 0 0 7.219-7.683l-2.106.082c-1.093 1.312-2.169 2.397-3.226 3.254-1.058.838-1.969 1.449-2.735 1.832-.747.383-1.239.574-1.476.574-.146 0-.219-.055-.219-.164 0-.091.064-.21.191-.356.146-.164.338-.328.575-.492 1.731-1.221 3.299-2.734 4.703-4.539l-2.762.137a21.469 21.469 0 0 1-2.324 1.695c-.784.492-1.331.738-1.641.738-.127 0-.191-.045-.191-.136 0-.201.191-.447.574-.739 1.568-1.221 3.117-2.843 4.648-4.867l-1.668.11h-.492c-.474 0-.765-.064-.875-.192-.328-.328-.556-.665-.683-1.012l-.055-.218c0-.11.055-.164.164-.164.091 0 .173.009.246.027.328.055.684.082 1.067.082h.328l11.976-.684c.456-.036.802-.091 1.039-.164.146-.036.246-.054.301-.054.219 0 .447.073.684.218a2.7 2.7 0 0 1 .601.493c.183.182.274.328.274.437 0 .237-.219.374-.657.41l-9.898.575a46.893 46.893 0 0 1-1.777 1.941l9.406-.465h.164c.401 0 .702.091.902.274.201.182.301.373.301.574 0 .091-.027.2-.082.328a1.187 1.187 0 0 0-.055.273 44.588 44.588 0 0 1-.82 6.754c-.182.966-.465 1.677-.848 2.133-.364.456-.729.684-1.093.684-.347 0-.857-.201-1.532-.602a12.465 12.465 0 0 1-1.859-1.285c-.565-.474-.848-.802-.848-.984 0-.092.073-.137.219-.137.219 0 .529.082.93.246.984.383 1.859.647 2.625.793h.109Zm-18.922.93c0-.128.009-.228.028-.301.109-.565.164-1.267.164-2.106l.218-16.488v-.465c0-.747-.072-1.312-.218-1.695-.128-.292-.192-.492-.192-.602 0-.127.073-.191.219-.191.237 0 .912.219 2.024.656l3.609-.328.355-.027c.146 0 .365.091.657.273.31.182.464.383.464.602 0 .109-.054.228-.164.355-.091.11-.155.201-.191.274a36.519 36.519 0 0 1-2.27 3.937.426.426 0 0 0-.054.164c0 .11.027.192.082.246.784.875 1.321 1.696 1.613 2.461.31.766.465 1.613.465 2.543 0 .638-.137 1.194-.41 1.668-.255.474-.574.711-.957.711-.274 0-.675-.21-1.203-.629a11.34 11.34 0 0 1-1.422-1.394c-.42-.529-.629-.894-.629-1.094 0-.109.055-.164.164-.164.146 0 .383.109.711.328.383.273.775.519 1.176.738.401.201.665.301.793.301.054 0 .091-.109.109-.328.036-.219.055-.392.055-.52 0-.638-.128-1.276-.383-1.914-.237-.638-.684-1.33-1.34-2.078-.219-.273-.328-.538-.328-.793 0-.219.082-.474.246-.765.766-1.313 1.358-2.443 1.777-3.391l-3.09.273-.273 20.071c0 .51-.155.765-.465.765-.073 0-.219-.045-.437-.136a1.981 1.981 0 0 1-.629-.356.776.776 0 0 1-.274-.601Zm8.942-22.204c0-.091.082-.136.246-.136.255 0 .884.136 1.887.41l7.464-.438h.247c.309 0 .592.092.847.274.274.182.41.374.41.574a.68.68 0 0 1-.082.301c-.036.109-.064.2-.082.273l-.547 5.004c.456.438.684.757.684.957 0 .11-.064.182-.191.219-.11.036-.283.064-.52.082l-7.82.355.027.219v.082c0 .347-.155.52-.465.52-.255 0-.547-.101-.875-.301-.328-.219-.492-.428-.492-.629v-.137c.055-.364.082-.711.082-1.039l-.027-.492-.301-4.375c-.037-.492-.128-.902-.274-1.23-.145-.237-.218-.401-.218-.493Zm2.242 3.336 6.781-.382.164-1.778-7.054.383.109 1.777Zm.219 3.227 6.289-.328.164-1.996-6.59.355.137 1.969Z"/></svg>