<svg xmlns="http://www.w3.org/2000/svg" width="350" height="88" fill="none"><path fill="#333" d="M131.934 8.2c-.164 0-.082-.141.246-.423l1.195-1.02c.469-.421.996-.972 1.582-1.652.375-.445.656-.914.844-1.406.117-.281.246-.422.387-.422.117 0 .292.094.527.282.469.375.703.691.703.949 0 .164-.094.281-.281.351-.094.024-.235.13-.422.317a9.14 9.14 0 0 0-.422.386c-1.008.985-1.945 1.7-2.813 2.145-.703.328-1.171.492-1.406.492h-.14Zm3.691 6.538c-.07 0-.187-.093-.352-.281a2.99 2.99 0 0 1-.316-.598 2.004 2.004 0 0 1 0-.527c.047-.234.07-.41.07-.527.047-.47.071-.844.071-1.125a5.16 5.16 0 0 0 0-.844v-.598l-.036-.527c-.562.398-.996.68-1.3.844-.68.375-1.172.61-1.477.703-.375.14-.715.21-1.019.21-.164 0-.258-.023-.282-.07-.046-.093.422-.433 1.407-1.02.937-.585 1.957-1.358 3.058-2.32.61-.562 1.078-1.101 1.406-1.617a.77.77 0 0 0 .106-.246c.047-.117.094-.187.141-.21.07-.024.164-.012.281.035.305.164.562.398.773.703a.562.562 0 0 1 .141.351c0 .117-.059.235-.176.352a1.396 1.396 0 0 1-.351.21c-.399.259-.762.54-1.09.844-.328.305-.539.504-.633.598.351.281.527.48.527.598l-.105.738c-.047.211-.071.738-.071 1.582 0 .82.024 1.371.071 1.652v.07a.868.868 0 0 1-.106.387c-.047.118-.082.2-.105.247-.164.257-.375.386-.633.386Zm3.586 8.93c-.352 0-.691-.258-1.02-.773-.421-.657-.832-1.196-1.23-1.618l-.914-.949a14.424 14.424 0 0 1-1.301 1.336 6.992 6.992 0 0 1-1.336.95c-1.008.585-1.851.878-2.531.878-.164 0-.246-.058-.246-.176 0-.07.222-.222.668-.457a7.422 7.422 0 0 0 1.265-.843c1.008-.844 1.84-1.711 2.496-2.602-.14-.14-.843-.75-2.109-1.828-.164-.117-.41-.316-.738-.598a9.494 9.494 0 0 1-.422-.316c-.211-.164-.316-.281-.316-.352 0-.117.058-.175.175-.175.352 0 .914.246 1.688.738a25.67 25.67 0 0 1 2.426 1.687 6.91 6.91 0 0 0 .773-1.125c.188-.351.399-.785.633-1.3a2.41 2.41 0 0 0 .211-.668c.023-.211.035-.34.035-.387 0-.258.07-.387.211-.387.164 0 .387.129.668.387.492.469.738.785.738.95 0 .093-.058.198-.176.316-.281.28-.539.656-.773 1.124-.141.282-.398.68-.774 1.196-.117.14-.21.27-.281.387-.07.117-.14.222-.211.316.539.398 1.336 1.078 2.391 2.039.258.234.422.457.492.668.094.187.141.445.141.773 0 .235-.059.434-.176.598a.567.567 0 0 1-.457.211Zm-7.77 10.512c-.351 0-.621-.094-.808-.282-.211-.21-.317-.398-.317-.562 0-.164.094-.34.282-.527.023-.024.152-.211.386-.563.516-.82 1.102-1.863 1.758-3.129.68-1.289 1.102-2.168 1.266-2.637.14-.445.269-.832.387-1.16.14-.328.257-.492.351-.492.164 0 .305.059.422.176.117.094.234.234.352.422.14.164.246.281.316.351.164.188.246.364.246.528a.562.562 0 0 1-.141.351c-.093.117-.152.2-.175.246l-1.547 2.602a72.802 72.802 0 0 1-1.582 2.707.562.562 0 0 0-.141.352c0 .093.106.14.316.14.446 0 1.278-.059 2.497-.176 1.218-.093 2.039-.175 2.461-.246.609-.07 1.031-.14 1.265-.21.258-.071.633.105 1.125.527.586.492.715.808.387.949-.188.094-.551.14-1.09.14h-1.406c-.305 0-.785.024-1.442.07-.398 0-.843.013-1.336.036-.492.023-.902.047-1.23.07-.375.024-1.102.094-2.18.211l-.422.106Zm14.942-15.504c.281 0 .422.129.422.387 0 .14-.129.34-.387.597-.703.867-2.098 2.52-4.184 4.957-.164.211-.316.317-.457.317-.117 0-.375-.176-.773-.528-.328-.281-.492-.515-.492-.703 0-.21.176-.41.527-.598.539-.304 1.348-.914 2.426-1.828 1.078-.96 1.875-1.722 2.39-2.285.211-.21.387-.316.528-.316ZM98.113 34.25c-.375 0-.68-.035-.914-.105a.792.792 0 0 1-.492-.317c-.375-.492-.621-.95-.738-1.371a.488.488 0 0 1-.035-.21c0-.165.082-.247.246-.247l.175.035c.47.14 1.137.211 2.004.211l11.883-.281V28.94l-7.066.282h-.774c-.468 0-.797-.094-.984-.282-.633-.632-.949-1.16-.949-1.582 0-.164.082-.246.246-.246.094 0 .176.012.246.035.469.141.984.211 1.547.211h.316l7.453-.246v-2.531l-5.484.211.035.422v.105c0 .399-.176.598-.527.598-.211 0-.492-.07-.844-.211-.398-.188-.668-.34-.809-.457-.117-.14-.175-.328-.175-.563l.035-.316c.047-.375.07-.715.07-1.02a3.93 3.93 0 0 0-.035-.597l-.598-5.766c-.07-.68-.222-1.265-.457-1.758-.14-.375-.211-.597-.211-.668 0-.14.118-.21.352-.21.375 0 1.16.199 2.355.597l6.328-.351v-2.426l-10.124.527a4.52 4.52 0 0 0-.563.035 3.74 3.74 0 0 1-.527.036c-.47 0-.797-.094-.985-.282-.515-.515-.832-.902-.949-1.16l-.07-.281c0-.14.082-.211.246-.211h.14c.399.07.891.105 1.477.105h.422l10.969-.597V8.27c-1.547.187-3.457.328-5.731.421a66.69 66.69 0 0 0-2.531.141h-.352c-.375 0-.668-.035-.879-.105-.187-.094-.281-.2-.281-.317 0-.14.117-.27.352-.387.234-.14.574-.246 1.019-.316 6.61-.844 11.836-1.84 15.68-2.988.609-.188 1.09-.457 1.441-.809.141-.14.258-.21.352-.21.305 0 .68.292 1.125.878.469.563.703.984.703 1.266 0 .258-.164.422-.492.492a119.685 119.685 0 0 1-8.262 1.617v2.285l10.02-.562a7.476 7.476 0 0 0 1.476-.281l.176-.036c.094 0 .293.094.598.282.304.164.574.375.808.632.235.235.352.446.352.633 0 .235-.258.375-.774.422l-12.691.703v2.461l7.242-.387h.246c.516 0 .914.165 1.196.493.281.304.421.574.421.808a.832.832 0 0 1-.105.352c-.047.14-.082.27-.105.387l-.844 6.398c.539.633.808 1.078.808 1.336 0 .117-.058.2-.175.246a4.053 4.053 0 0 1-.387.07h-.352l-8.015.317v2.531l6.644-.246c.422-.07.821-.152 1.196-.246a1.93 1.93 0 0 1 .386-.07c.235 0 .586.199 1.055.597.492.375.738.703.738.985 0 .257-.328.41-.984.457l-9.035.351-.035 3.059 11.214-.282a6.12 6.12 0 0 0 1.723-.246l.422-.07c.305 0 .668.234 1.09.703.422.492.633.856.633 1.09 0 .234-.235.375-.704.422l-27.878.668-.739.035Zm6.117-15.293 6.082-.281v-2.39l-6.292.316.21 2.355Zm.387 4.184 5.66-.246v-2.567l-5.871.246.211 2.567Zm13.887-.563.211-2.637-6.293.282v2.601l6.082-.246Zm.351-4.324.211-2.39-6.609.316-.035 2.39 6.433-.316Zm66.797-4.078c-.257 0-.574-.2-.949-.598-.281-.281-.422-.492-.422-.633 0-.07.047-.105.141-.105.094-.024.211-.035.351-.035l.774-.035c.445 0 .738-.012.879-.036.445 0 .82-.011 1.125-.035 2.015-.187 3.375-.34 4.078-.457.351-.047.668-.094.949-.14.281-.07.504-.106.668-.106.328 0 .656.164.984.492.258.258.387.469.387.633 0 .14-.082.234-.246.281-.117.024-.809.07-2.074.141-.703.023-1.57.082-2.602.176a92.523 92.523 0 0 0-2.707.281c-.14.023-.34.059-.597.105-.258.047-.504.07-.739.07Zm7.981 15.398c.328.211.492.41.492.598 0 .258-.199.422-.598.492-.398.07-.961.117-1.687.14-1.055.024-1.735-.011-2.039-.105-.516-.234-.774-.62-.774-1.16l.035-1.3c.047-.423.071-.798.071-1.126.023-.21.035-.62.035-1.23-.352.797-.809 1.57-1.371 2.32-.399.492-.75.902-1.055 1.23a7.087 7.087 0 0 1-1.09.88c-.422.28-.808.421-1.16.421-.211 0-.316-.07-.316-.21 0-.024.222-.2.668-.528.468-.351.937-.832 1.406-1.441.703-.938 1.312-2.04 1.828-3.305-.914.117-1.523.223-1.828.316a1.242 1.242 0 0 0-.316.106.883.883 0 0 1-.352 0 3.005 3.005 0 0 1-.492-.281 3.19 3.19 0 0 1-.492-.457c-.094-.141-.141-.235-.141-.282 0-.117.176-.175.527-.175.868 0 1.981-.094 3.34-.282.141-.539.211-1.406.211-2.601v-.668c0-.281.059-.434.176-.457.023-.024.07-.035.141-.035.187 0 .445.14.773.421.258.211.422.375.492.493.094.093.106.222.035.386l-.14.282c-.071.14-.117.28-.141.422l-.141.703c-.07.328-.117.62-.14.879.328-.024.738-.07 1.23-.141.492-.07.856-.14 1.09-.211l.703-.176c.235-.047.621.152 1.16.598.094.07.141.152.141.246s-.047.176-.141.246a.498.498 0 0 1-.281.07c-.422 0-1.195.07-2.32.211l-1.16.106c.258.187.422.351.492.492.07.14.082.281.035.422l-.105.562c-.047.47-.094.985-.141 1.547a12 12 0 0 0 0 1.301c0 .117.07.223.211.316.164.094.328.141.492.141.586 0 1.242-.059 1.969-.176l.316-.07c.141 0 .258.023.352.07Zm6.75-14.765c.281 0 .422.129.422.386 0 .14-.129.34-.387.598-.703.867-2.098 2.52-4.184 4.957-.164.21-.316.316-.457.316-.117 0-.375-.175-.773-.527-.328-.281-.492-.516-.492-.703 0-.211.176-.41.527-.598.539-.304 1.348-.914 2.426-1.828 1.078-.96 1.875-1.723 2.39-2.285.211-.21.387-.316.528-.316Zm-24.645 17.894c.071 0 .117-.012.141-.035.047 0 .07-.035.07-.105.914-2.32 1.43-5.52 1.547-9.598l-1.758.07c-1.593 2.766-3.316 4.992-5.168 6.68-1.828 1.664-3.445 2.848-4.851 3.55-1.383.704-2.274 1.055-2.672 1.055-.235 0-.352-.07-.352-.21 0-.235.352-.587 1.055-1.055 3.82-2.578 6.914-5.871 9.281-9.88l-2.707.106c-1.406 1.688-2.789 3.082-4.148 4.184-1.36 1.078-2.531 1.863-3.516 2.355-.961.492-1.594.739-1.898.739-.188 0-.282-.07-.282-.211 0-.117.082-.27.247-.457a4.1 4.1 0 0 1 .738-.633c2.226-1.57 4.242-3.516 6.047-5.836l-3.551.176a27.65 27.65 0 0 1-2.988 2.18c-1.008.632-1.711.949-2.11.949-.164 0-.246-.059-.246-.176 0-.258.246-.574.738-.95 2.016-1.57 4.008-3.656 5.977-6.257l-2.144.14h-.633c-.61 0-.985-.082-1.125-.246-.422-.422-.715-.855-.879-1.3l-.071-.282c0-.14.071-.21.211-.21.118 0 .223.011.317.034.422.07.879.106 1.371.106h.422l15.398-.879c.586-.047 1.031-.117 1.336-.21.188-.048.317-.071.387-.071.281 0 .574.094.879.281.304.188.562.398.773.633.235.234.352.422.352.562 0 .305-.281.48-.844.528l-12.727.738c-.515.61-1.277 1.441-2.285 2.496l12.094-.598h.211c.516 0 .902.118 1.16.352.258.234.387.48.387.738 0 .117-.035.258-.106.422-.046.164-.07.281-.07.352-.141 3-.492 5.894-1.055 8.683-.234 1.242-.597 2.157-1.089 2.742-.469.586-.938.88-1.407.88-.445 0-1.101-.258-1.968-.774a15.918 15.918 0 0 1-2.391-1.652c-.727-.61-1.09-1.032-1.09-1.266 0-.117.094-.176.281-.176.282 0 .68.106 1.196.317 1.265.492 2.39.832 3.375 1.02h.14Zm-24.328 1.195c0-.164.012-.293.035-.386.141-.727.211-1.63.211-2.707l.282-21.2v-.597c0-.961-.094-1.688-.282-2.18-.164-.375-.246-.633-.246-.773 0-.164.094-.246.281-.246.305 0 1.172.28 2.602.843l4.641-.422.457-.035c.187 0 .468.117.843.352.399.234.598.492.598.773 0 .14-.07.293-.211.457-.117.141-.199.258-.246.352a47.087 47.087 0 0 1-2.918 5.062.536.536 0 0 0-.07.211c0 .141.035.246.105.317 1.008 1.125 1.699 2.18 2.074 3.164.399.984.598 2.074.598 3.27 0 .82-.176 1.535-.527 2.144-.328.61-.739.914-1.231.914-.351 0-.867-.27-1.547-.809a14.715 14.715 0 0 1-1.828-1.793c-.539-.68-.808-1.148-.808-1.406 0-.14.07-.21.211-.21.187 0 .492.14.914.421.492.352.996.668 1.511.95.516.257.856.386 1.02.386.07 0 .117-.14.141-.422.046-.281.07-.504.07-.668 0-.82-.164-1.64-.492-2.46-.305-.821-.879-1.712-1.723-2.673-.281-.351-.422-.691-.422-1.02 0-.28.106-.609.317-.984.984-1.687 1.746-3.14 2.285-4.359l-3.973.352-.352 25.804c0 .657-.199.985-.597.985-.094 0-.281-.059-.563-.176a2.553 2.553 0 0 1-.808-.457 1 1 0 0 1-.352-.774Zm11.496-28.546c0-.118.106-.176.317-.176.328 0 1.136.176 2.425.527l9.598-.562h.316c.399 0 .762.117 1.09.351.352.235.528.48.528.738a.867.867 0 0 1-.106.387c-.047.14-.082.258-.105.352l-.703 6.433c.586.563.879.973.879 1.23 0 .141-.083.235-.247.282-.14.047-.363.082-.668.106l-10.054.457.035.28v.106c0 .446-.199.668-.598.668-.328 0-.703-.129-1.125-.386-.422-.282-.633-.551-.633-.81v-.175c.071-.469.106-.914.106-1.336l-.035-.633-.387-5.625c-.047-.632-.164-1.16-.351-1.582-.188-.304-.282-.515-.282-.632Zm2.883 4.289 8.719-.493.211-2.285-9.071.492.141 2.286Zm.281 4.148 8.086-.422.211-2.566-8.472.457.175 2.531Zm80.051.598c-.164 0-.34-.106-.527-.317a2.15 2.15 0 0 1-.282-.386c-.046-.118-.046-.27 0-.457l.036-.844c.023-.164.035-.563.035-1.195v-1.16l-1.055.492-1.23.527a10.87 10.87 0 0 0-.95.422c-.281.14-.527.21-.738.21a2.17 2.17 0 0 1-.562-.175 4.837 4.837 0 0 1-.493-.246c-.257-.164-.375-.34-.351-.527l.105-.352c0-.188.012-.352.036-.492l.035-2.04V5.95c0-.375-.024-.691-.071-.949-.047-.281-.082-.48-.105-.598 0-.117.035-.199.105-.246.024-.023.082-.035.176-.035.164 0 .481.106.949.316.399.188.563.422.493.704-.047.164-.094.41-.141.738l-.106 4.043c0 .117.012.21.036.281.046.047.093.07.14.07.282 0 .621-.082 1.02-.246.75-.234 1.394-.468 1.933-.703l.774-.316v-2.32c0-.938-.059-1.84-.176-2.708a.792.792 0 0 1-.035-.246c0-.234.094-.351.281-.351.024 0 .152.047.387.14.351.188.609.352.773.493.164.14.258.222.282.246.093.07.14.14.14.21a.34.34 0 0 1-.07.176c-.024.07-.047.13-.07.176l-.106 1.055-.035 3.234.035 3.13c0 .538-.035 1.007-.105 1.405-.118.493-.305.739-.563.739Zm-6.469 5.765c-.257 0-.574-.199-.949-.597-.281-.282-.422-.492-.422-.633 0-.07.047-.106.141-.106a1.48 1.48 0 0 1 .351-.035l.774-.035c.445 0 .738-.012.879-.035.445 0 .82-.012 1.125-.035 2.015-.188 3.375-.34 4.078-.457a29.8 29.8 0 0 0 .949-.14c.281-.071.504-.106.668-.106.328 0 .656.164.984.492.258.258.387.469.387.633 0 .14-.082.234-.246.28-.117.024-.809.071-2.074.142-.703.023-1.57.082-2.602.175a92.491 92.491 0 0 0-2.707.282c-.14.023-.34.058-.597.105-.258.047-.504.07-.739.07Zm4.711 14.52c-.726 0-1.289-.024-1.687-.07a1.68 1.68 0 0 1-.949-.422c-.446-.328-.75-1.043-.915-2.145l-.105-1.125c0-.281-.023-.633-.07-1.055a5.987 5.987 0 0 0-.809.141 3.817 3.817 0 0 1-.246.106.965.965 0 0 1-.211.035.81.81 0 0 1-.457-.14c-.141-.095-.316-.27-.527-.528-.164-.211-.246-.352-.246-.422s.082-.117.246-.14c.164-.024.386-.036.668-.036.398 0 .914-.047 1.547-.14l-.036-.493c0-.937-.058-1.734-.175-2.39l-.036-.246c0-.329.129-.457.387-.387.281.094.539.21.774.351.187.094.316.188.386.282.071.07.094.175.071.316l-.106 1.512v.914l3.094-.317c0-.164.012-.55.035-1.16.024-.633.024-1.043 0-1.23 0-.188-.023-.363-.07-.527a6.529 6.529 0 0 0-.071-.458c0-.187.094-.28.282-.28.187 0 .422.105.703.316.328.21.539.398.633.562.117.164.14.363.07.598a6.4 6.4 0 0 0-.246 1.265c-.047.47-.07.75-.07.844.281-.023.539-.058.773-.105.234-.047.387-.07.457-.07.188-.047.41-.071.668-.071.141.023.34.164.598.422.211.281.316.504.316.668 0 .234-.223.328-.668.281a6.863 6.863 0 0 0-1.195-.105c-.399 0-.738.011-1.02.035-.07.844-.211 1.676-.422 2.496a.953.953 0 0 1-.246.457c-.117.14-.222.21-.316.21-.164 0-.27-.07-.317-.21a3.524 3.524 0 0 1-.035-.598c.047-.61.071-1.37.071-2.285a26.99 26.99 0 0 0-1.477.14 9.357 9.357 0 0 1-1.512.212c-.023.96.024 1.816.141 2.566.07.492.211.832.422 1.02.14.117.305.187.492.21.211.024.422.036.633.036h.422c.726 0 1.406-.035 2.039-.106a1.52 1.52 0 0 0 .492-.14c.164-.07.281-.106.352-.106.21 0 .421.07.632.211.211.14.317.305.317.492 0 .188-.106.328-.317.422-.187.094-.492.176-.914.246-.75.094-1.5.14-2.25.14Zm10.02-15.996c.281 0 .422.129.422.387 0 .14-.129.34-.387.597-.703.867-2.098 2.52-4.184 4.957-.164.211-.316.317-.457.317-.117 0-.375-.176-.773-.528-.328-.281-.492-.515-.492-.703 0-.21.176-.41.527-.598.539-.304 1.348-.914 2.426-1.828 1.078-.96 1.875-1.722 2.39-2.285.211-.21.387-.316.528-.316Zm-44.684 11.496c2.086-.656 3.949-1.371 5.59-2.145a25.586 25.586 0 0 0-1.336-1.687c-.187-.235-.281-.422-.281-.563 0-.258.152-.48.457-.668.305-.21.539-.316.703-.316.188 0 .387.117.598.352a137.853 137.853 0 0 1 3.41 4.148c.937 1.195 1.406 1.922 1.406 2.18 0 .21-.164.457-.492.738-.305.305-.598.457-.879.457-.234 0-.469-.188-.703-.563a96.435 96.435 0 0 0-1.828-2.671l-4.219 2.109c-.469.21-1.207.586-2.215 1.125-.844.445-1.359.668-1.547.668-.14 0-.316-.094-.527-.281a1.65 1.65 0 0 1-.492-.633c-.094-.234-.094-.422 0-.563.14-.257.211-1.289.211-3.093V16.602c0-.563-.024-1.02-.071-1.372a3.587 3.587 0 0 0-.281-1.125 1.37 1.37 0 0 0-.07-.175.305.305 0 0 1-.035-.14c0-.118.082-.177.246-.177.304 0 1.066.258 2.285.774l7.629-.528c.187-.023.398-.035.633-.035.257 0 .562.117.914.352.351.21.527.445.527.703 0 .094-.059.234-.176.422-.094.187-.14.328-.14.422l-.914 6.609c.562.656.843 1.102.843 1.336 0 .117-.07.2-.211.246-.117.047-.304.07-.562.07l-8.508.317.035 5.87Zm-5.765-15.785c0-.235.152-.516.457-.844 1.711-1.898 3.199-3.785 4.464-5.66 1.266-1.875 1.899-3.13 1.899-3.762l-.035-.246V3.77c0-.329.129-.493.386-.493.305 0 .727.211 1.266.633.563.399.844.727.844.985 0 .117-.059.27-.176.457a23.895 23.895 0 0 1-1.16 1.687l4.992-.387a4.872 4.872 0 0 0 1.336-.28c.141-.048.246-.071.316-.071.352 0 .727.199 1.125.597.422.375.633.668.633.88 0 .28-.258.445-.773.492l-6.012.421c.164.047.527.293 1.09.739.586.445 1.113.902 1.582 1.37.469.47.703.798.703.985 0 .211-.141.469-.422.774-.281.28-.527.421-.738.421-.188 0-.41-.152-.668-.457a21.796 21.796 0 0 0-2.426-2.285c-.281-.234-.422-.433-.422-.597 0-.118.059-.27.176-.457.117-.188.27-.34.457-.457l-2.355.175a34.406 34.406 0 0 1-3.727 3.903c-1.359 1.195-2.226 1.793-2.601 1.793-.141 0-.211-.07-.211-.211Zm12.656 3.656.246-2.461-7.242.492v2.32l6.996-.351Zm-.457 4.36.281-2.708-6.785.317v2.636l6.504-.246Zm1.898-9.528c0-.234.153-.516.457-.844 1.149-1.383 2.192-2.941 3.129-4.676.961-1.757 1.442-2.988 1.442-3.69v-.142c0-.351.129-.527.386-.527.164 0 .41.094.739.281.351.164.668.364.949.598.281.234.422.469.422.703 0 .211-.164.586-.493 1.125-.328.54-.503.82-.527.844l6.926-.563a6.483 6.483 0 0 0 1.336-.246c.047-.023.141-.035.281-.035.328 0 .68.188 1.055.563.398.351.597.644.597.879 0 .14-.07.257-.21.351-.118.07-.282.117-.493.14l-7.136.493c.656.422 1.429 1.043 2.32 1.863.891.797 1.336 1.336 1.336 1.617 0 .164-.129.422-.387.774-.258.328-.504.492-.738.492-.188 0-.387-.117-.598-.352-1.148-1.242-2.191-2.226-3.129-2.953-.234-.187-.351-.363-.351-.527 0-.188.176-.469.527-.844l-2.601.176c-.774 1.031-1.711 2.074-2.813 3.129-1.078 1.055-1.805 1.582-2.18 1.582-.164 0-.246-.07-.246-.211Zm3.305.773c0-.14.082-.21.246-.21.352 0 1.148.292 2.391.878l7.066-.597.281-.035c.094 0 .27.046.528.14.281.07.539.2.773.387.258.164.387.387.387.668 0 .094-.035.223-.106.387-.07.164-.105.28-.105.351a88.243 88.243 0 0 1-.492 8.262l-.071.879c-.07.984-.164 1.805-.281 2.46-.117.657-.316 1.173-.598 1.548-.445.609-.925.914-1.441.914s-1.172-.317-1.969-.95a18.576 18.576 0 0 1-2.215-2.074c-.656-.75-.984-1.23-.984-1.441 0-.164.094-.246.281-.246.211 0 .504.117.879.351.867.54 1.594.973 2.18 1.301.586.328 1.008.492 1.266.492.117 0 .199-.082.246-.246.539-3 .867-6.762.984-11.285l-6.609.492c0 3.961.035 10.242.105 18.844 0 .21-.058.363-.176.457a.466.466 0 0 1-.386.176c-.188 0-.411-.07-.668-.211-.446-.188-.762-.363-.95-.528-.187-.164-.281-.351-.281-.562l.035-.246c.141-.773.211-1.64.211-2.602l-.105-14.836c0-.609-.024-1.078-.07-1.406a3.306 3.306 0 0 0-.211-.95c-.094-.28-.141-.468-.141-.562ZM118.219 72.094c-.146 0-.302-.094-.469-.281a1.928 1.928 0 0 1-.25-.344c-.042-.104-.042-.24 0-.406l.031-.75c.021-.146.031-.5.031-1.063v-1.031l-.937.437-1.094.469c-.271.104-.552.23-.843.375-.25.125-.469.188-.657.188a1.933 1.933 0 0 1-.5-.157 4.225 4.225 0 0 1-.437-.219c-.229-.145-.334-.302-.313-.468l.094-.313c0-.166.01-.312.031-.437l.032-1.813v-1.687c0-.334-.021-.615-.063-.844-.042-.25-.073-.427-.094-.531 0-.104.031-.177.094-.219.021-.02.073-.031.156-.031.146 0 .427.093.844.281.354.167.5.375.437.625a5.354 5.354 0 0 0-.124.656l-.094 3.594c0 .104.01.188.031.25.042.042.083.063.125.063.25 0 .552-.073.906-.22.667-.208 1.24-.416 1.719-.624l.687-.281V65.25c0-.833-.052-1.635-.156-2.406a.689.689 0 0 1-.031-.219c0-.208.083-.313.25-.313.021 0 .135.042.344.126.312.166.541.312.687.437.146.125.229.198.25.219.084.062.125.125.125.187a.308.308 0 0 1-.062.157 1.21 1.21 0 0 1-.063.156l-.094.937-.031 2.875.031 2.781c0 .48-.031.896-.093 1.25-.104.438-.271.657-.5.657Zm-5.75 7c-.229 0-.511-.177-.844-.531-.25-.25-.375-.438-.375-.563 0-.063.042-.094.125-.094.083-.02.187-.031.313-.031l.687-.031c.396 0 .656-.01.781-.031.396 0 .729-.01 1-.032 1.792-.166 3-.302 3.625-.406.313-.042.594-.083.844-.125.25-.063.448-.094.594-.094.291 0 .583.146.875.438.229.229.344.416.344.562 0 .125-.073.209-.219.25-.104.021-.719.063-1.844.125-.625.021-1.396.073-2.313.156-.916.084-1.718.167-2.406.25-.125.021-.302.053-.531.094a3.668 3.668 0 0 1-.656.063Zm9.093-7.875c.105 0 .261.073.469.219-.021.041.021.124.125.25l.219.218c.104.104.208.23.313.375.124.146.26.302.406.469.375.396 1.239 1.427 2.594 3.094.229.333.343.531.343.594 0 .208-.125.312-.375.312-.146 0-.302-.104-.468-.313-.396-.416-1.105-1.072-2.126-1.968-.791-.73-1.51-1.292-2.156-1.688-.312-.146-.468-.312-.468-.5 0-.146.156-.354.468-.625.292-.291.511-.437.656-.437Zm-25.75 10.844v4.218a.55.55 0 0 1-.156.406.538.538 0 0 1-.437.188c-.313 0-.667-.146-1.063-.438-.375-.27-.562-.541-.562-.812l.031-.281c.104-1.042.156-1.896.156-2.563v-1.156L93.812 77l-6.406.281c-.25.021-.573.031-.969.031-.416 0-.687-.062-.812-.187-.333-.313-.552-.604-.656-.875-.104-.27-.156-.469-.156-.594 0-.146.062-.219.187-.219l.25.063c.375.104.75.156 1.125.156h.281L102.22 75a6.584 6.584 0 0 0 1.312-.219l.188-.031c.25 0 .593.188 1.031.563.438.374.656.666.656.874 0 .188-.239.303-.718.344l-8.97.375.094 5.156ZM80.72 76.78c0-.187.187-.406.562-.656 2.542-1.75 4.615-3.52 6.219-5.313 1.02-1.27 1.698-2.145 2.031-2.624a23.25 23.25 0 0 0-2.281-2.094c-.188-.167-.281-.302-.281-.406 0-.105.094-.303.281-.594.208-.313.427-.469.656-.469.313 0 1.167.698 2.563 2.094a26.46 26.46 0 0 0 1.719-3.438l-4.032.25a26.814 26.814 0 0 1-2.437 2.719c-.875.875-1.688 1.583-2.438 2.125-.729.542-1.25.813-1.562.813-.125 0-.188-.053-.188-.157 0-.166.177-.416.531-.75a29.386 29.386 0 0 0 3-3.312c.98-1.271 1.782-2.448 2.407-3.531.625-1.084.937-1.855.937-2.313l-.031-.281-.031-.157c0-.208.114-.312.344-.312.25 0 .624.156 1.124.469.5.312.75.593.75.843 0 .167-.124.47-.374.907-.25.437-.532.875-.844 1.312l3.406-.25.469-.031c.333 0 .677.115 1.031.344.354.229.531.468.531.718 0 .146-.062.303-.187.47-.125.145-.209.25-.25.312-1.646 3.104-3.292 5.583-4.938 7.437l.25.063c.25.083.573.125.969.125h.344l6.5-.375c.541-.042.958-.104 1.25-.188a.536.536 0 0 1 .219-.031c.229 0 .458.094.687.281.25.188.458.396.625.625.188.23.281.386.281.469 0 .167-.229.27-.687.313l-8.344.53c-.417.042-.688.063-.813.063-.229 0-.5-.083-.812-.25-.292-.187-.52-.583-.688-1.187l-.03-.125c-2.167 2.375-4.657 4.229-7.47 5.562-.27.125-.49.188-.656.188-.208 0-.312-.063-.312-.188ZM82.75 85c0-.23.219-.5.656-.813.917-.645 1.969-1.52 3.156-2.624 1.188-1.126 1.855-2.063 2-2.813.063-.313.198-.469.407-.469.187 0 .427.115.719.344.291.208.552.448.78.719.23.25.344.437.344.562 0 .125-.083.271-.25.438a18.207 18.207 0 0 1-3 2.469c-1.083.729-2.062 1.302-2.937 1.718-.875.438-1.406.656-1.594.656-.187 0-.281-.062-.281-.187ZM83 69.562c0-.062.073-.093.219-.093l.344.031c.395 0 .968-.094 1.718-.281.063 0 .563-.136 1.5-.406.896-.271 1.406-.407 1.531-.407.063 0 .115.021.157.063.062.02.094.052.094.094 0 .291-.303.645-.907 1.062-.604.417-1.281.781-2.031 1.094-.75.312-1.281.458-1.594.437-.27.021-.469-.083-.594-.312a7.728 7.728 0 0 1-.406-1.063c-.041-.041-.062-.083-.062-.125a.24.24 0 0 0 .031-.094Zm11.906-5.437c0-.188.136-.365.406-.531.271-.167.51-.25.72-.25.187 0 .343.093.468.281a25.438 25.438 0 0 0 3.031 3.625c1.667-1.667 2.917-3.177 3.75-4.531l-5.25.375-.562.062c-.167.021-.334.032-.5.032-.396 0-.719-.178-.969-.532-.25-.354-.417-.646-.5-.875a.348.348 0 0 1-.031-.156c0-.083.052-.125.156-.125h.125c.313.063.625.094.938.094l.562-.032 6.562-.437h.219c.292 0 .625.146 1 .438.375.27.563.562.563.874a.562.562 0 0 1-.219.438c-.125.104-.198.177-.219.219a41.04 41.04 0 0 1-4.437 5.281 36.596 36.596 0 0 0 8.093 5.594c.105.062.198.125.282.187.083.063.125.136.125.219 0 .104-.219.354-.657.75-.416.396-.697.594-.843.594-.063 0-.198-.063-.407-.188-2.458-1.541-4.624-3.135-6.5-4.781-1.854-1.646-3.302-3.094-4.343-4.344-1.042-1.27-1.563-2.031-1.563-2.281Zm3.125 15.313c0-.146.094-.365.281-.657.209-.312.438-.469.688-.469.27 0 1.031.459 2.281 1.376a67.563 67.563 0 0 1 4.063 3.124c.25.188.375.386.375.594 0 .209-.125.51-.375.906-.229.417-.479.626-.75.626-.167 0-.375-.126-.625-.376a44.224 44.224 0 0 0-5.5-4.53c-.292-.21-.438-.407-.438-.594Zm65.844-7.47c-.167 0-.333-.03-.5-.093A.814.814 0 0 1 163 71.5c-.062-.188-.198-.406-.406-.656a2.388 2.388 0 0 0-.563-.563l.125-.156c.104.063.354.188.75.375.396.188.688.281.875.281.292 0 .552-.104.781-.312.23-.209.521-.604.876-1.188.25-.396.479-.864.687-1.406.208-.542.365-1.042.469-1.5l.031-.063a.211.211 0 0 0-.063-.156c-.041-.062-.083-.094-.124-.094l-1.438.126a41.73 41.73 0 0 1-3 .406 3.25 3.25 0 0 0-.656.156c-.25.083-.427.125-.532.125-.166 0-.385-.135-.656-.406a2.213 2.213 0 0 1-.312-.313c-.084-.125-.104-.229-.063-.312l.25-.25.157-.125c.291-.292.583-.677.874-1.156.209-.292.428-.782.657-1.47 0-.228.052-.343.156-.343.063 0 .167.042.313.125l.5.313c.124.104.208.187.25.25a.45.45 0 0 1 .062.25c0 .124-.083.28-.25.468a4.787 4.787 0 0 0-.438.5l-.718 1.031-.063.126c0 .062.084.093.25.093l2.407-.312 1.624-.125.626-.063.343-.062h.094c.208 0 .437.177.687.531.292.27.438.5.438.688l-.156.406c-.021.041-.188.531-.5 1.469-.375.895-.698 1.572-.969 2.03-.271.46-.563.813-.875 1.063-.562.459-1.104.688-1.625.688Zm.594 10.563c0-.02.052-.094.156-.219a6.96 6.96 0 0 0 .406-.53c.25-.355.5-.876.75-1.563.25-.688.386-1.323.407-1.906 0-.042-.021-.084-.063-.126-.021-.062-.073-.093-.156-.093l-.719.062-1.062.094c-.23.75-.626 1.563-1.188 2.438-.25.395-.594.75-1.031 1.062-.417.292-.823.5-1.219.625a1.5 1.5 0 0 1-.469.063c-.146-.021-.219-.063-.219-.126 0-.083.073-.156.219-.218.25-.167.531-.427.844-.781.333-.355.625-.72.875-1.094.146-.209.302-.48.469-.813.166-.354.302-.677.406-.969-.667.084-1.354.24-2.063.47-.041.04-.114.062-.218.062-.063 0-.156-.042-.282-.125a4.054 4.054 0 0 1-.343-.375c-.042-.104-.021-.198.062-.281l.125-.25c.084-.126.167-.376.25-.75.084-.376.125-.678.125-.907a.908.908 0 0 0-.031-.219c0-.104.01-.156.031-.156.042-.02.094-.02.157 0 .229.042.437.115.624.219a.896.896 0 0 1 .344.344c.084.104.084.198 0 .281a.939.939 0 0 0-.094.125.404.404 0 0 0-.093.188c-.021.02-.063.25-.125.687 0 .02.01.042.031.063.042.02.083.02.125 0 .062 0 .156-.01.281-.032.125-.02.219-.041.281-.062a6.67 6.67 0 0 0 .5-.094 7.95 7.95 0 0 1 .563-.094c.063-.229.104-.479.125-.75.042-.291.073-.49.094-.594l.031-.656v-.219c-.667.021-1.365.084-2.094.188l-.562.094h-.125a.605.605 0 0 1-.313-.094 11.736 11.736 0 0 1-.281-.219c-.271-.25-.406-.437-.406-.562 0-.125.094-.167.281-.125.25.041.51.062.781.062l.906-.031 4.344-.313c.167-.02.323-.041.469-.062.146-.042.292-.073.437-.094h.094c.271 0 .459.052.563.156.125.084.198.136.219.157.333.27.5.479.5.625 0 .125-.178.177-.532.156l-.625-.063c-.541-.02-1.354 0-2.437.063l-.125 1.219a8.009 8.009 0 0 1-.063.5c-.021.125-.041.229-.062.312l-.032.094c.5-.042 1.084-.104 1.75-.188a.98.98 0 0 1 .219-.062 1.79 1.79 0 0 1 .313-.094h.062c.125 0 .25.052.375.156.125.105.198.167.219.188.167.146.281.27.344.375.083.083.094.156.031.219a1.713 1.713 0 0 1-.156.25.69.69 0 0 0-.094.219c-.104.874-.271 1.583-.5 2.124-.187.48-.396.844-.625 1.094a4.19 4.19 0 0 1-.781.656c-.125.084-.323.157-.594.22-.271.04-.406.04-.406 0Zm5.093-11.312c.105 0 .261.073.469.219-.021.041.021.124.125.25l.219.218c.104.104.208.23.313.375.124.146.26.302.406.469.375.396 1.239 1.427 2.594 3.094.229.333.343.531.343.594 0 .208-.125.312-.375.312-.146 0-.302-.104-.468-.313-.396-.416-1.105-1.072-2.126-1.968-.791-.73-1.51-1.292-2.156-1.688-.312-.146-.468-.312-.468-.5 0-.146.156-.354.468-.625.292-.291.511-.437.656-.437ZM136.875 69c0 1.583-.031 2.99-.094 4.219l3.469-1.031.812-.25c.605-.167 1.011-.25 1.219-.25.209 0 .313.052.313.156 0 .187-.448.5-1.344.937-.875.417-2.417 1.063-4.625 1.938-.292 2.416-.937 4.49-1.937 6.219-.98 1.729-2.5 3.354-4.563 4.874-.375.292-.677.438-.906.438-.146 0-.219-.063-.219-.188 0-.229.208-.552.625-.968 1.396-1.396 2.521-2.854 3.375-4.375.875-1.542 1.448-3.313 1.719-5.313-.646.271-1.459.563-2.438.875-.979.313-1.625.469-1.937.469-.188 0-.323-.042-.406-.125-.23-.167-.48-.417-.75-.75-.25-.354-.376-.667-.376-.938 0-.104.053-.156.157-.156h.093c1.042 0 2.98-.354 5.813-1.062.063-.917.115-2.448.156-4.594l-2.312.188c-.146.02-.334.03-.563.03-.479 0-.791-.051-.937-.156a2.744 2.744 0 0 1-.657-.718c-.166-.292-.25-.542-.25-.75 0-.104.053-.156.157-.156a.43.43 0 0 1 .187.03c.5.126.927.188 1.282.188h.218l2.875-.25c0-1.666-.01-2.875-.031-3.625-.833.23-1.719.448-2.656.657-.938.187-1.604.28-2 .28-.438 0-.656-.083-.656-.25 0-.103.104-.218.312-.343.208-.146.5-.27.875-.375a35.506 35.506 0 0 0 3.813-1.406 52.263 52.263 0 0 0 3.812-1.844c.292-.167.604-.49.938-.969.083-.146.197-.218.343-.218.313 0 .636.208.969.624.354.417.531.792.531 1.126 0 .25-.104.416-.312.5-1.604.729-2.979 1.28-4.125 1.656l.031 4.031 1.906-.156c.063 0 .209-.01.438-.031.229-.021.448-.063.656-.126a.54.54 0 0 1 .219-.03c.25 0 .562.166.937.5.375.333.563.593.563.78 0 .209-.229.334-.688.376l-4.031.312Zm3.219 6.031c0-.104.041-.156.125-.156.083 0 .146.01.187.031.542.125.99.188 1.344.188h.219l5.719-.281v-3.438l-2.344.156a8.48 8.48 0 0 1-.813.031c-.333 0-.583-.041-.75-.124a2.615 2.615 0 0 1-.843-1.282.73.73 0 0 1-.094-.312c0-.104.041-.156.125-.156.021 0 .093.02.219.062.416.104.843.156 1.281.156h.281l2.938-.187v-2.875l-2.407.156c-.208.02-.479.031-.812.031-.396 0-.636-.041-.719-.125a3.253 3.253 0 0 1-.656-.75c-.188-.312-.282-.594-.282-.844 0-.104.042-.156.126-.156l.187.063c.417.104.844.156 1.281.156h.282l3-.188V62.72l-3.313.218c-.208.021-.469.032-.781.032-.417 0-.677-.052-.782-.157a2.855 2.855 0 0 1-.874-1.25.731.731 0 0 1-.094-.312c0-.104.052-.156.156-.156a.44.44 0 0 1 .188.031c.541.125.989.188 1.343.188h.219l9.031-.657c.084 0 .24-.01.469-.031.229-.02.458-.063.688-.125a.531.531 0 0 1 .218-.031c.292 0 .625.187 1 .562.375.354.563.625.563.813 0 .208-.229.333-.688.375l-5.437.375v2.468l2.468-.156c.48-.041.865-.104 1.157-.187a.43.43 0 0 1 .187-.031c.229 0 .552.177.969.53.417.355.625.647.625.876 0 .208-.229.333-.688.375l-4.718.281v2.844l2.562-.188a6.346 6.346 0 0 0 1.156-.187.439.439 0 0 1 .188-.031c.25 0 .573.177.969.53.416.355.625.647.625.876 0 .208-.24.333-.719.375l-4.781.312v3.469l5.094-.25c.5-.042.895-.104 1.187-.188l.187-.03c.25 0 .573.197.969.593.396.396.594.688.594.875 0 .208-.229.333-.687.375l-7.344.344v10.156c0 .458-.167.688-.5.688-.271 0-.604-.115-1-.344-.396-.23-.594-.531-.594-.906l.031-.25c.104-.667.157-1.271.157-1.813v-7.438l-5.126.376-1 .062c-.166.02-.458-.25-.874-.813-.396-.583-.594-.968-.594-1.156Zm70.687-3.25c-.166 0-.302-.135-.406-.406-.167-.333-.25-.604-.25-.813l.031-.843c.021-.417.032-1.25.032-2.5v-1.563l-.032-1.094c-.229 0-.468.032-.718.094l-.719.188c-.104.041-.271-.021-.5-.188a1.916 1.916 0 0 1-.531-.562.713.713 0 0 1-.094-.281c0-.063.031-.105.094-.126a.688.688 0 0 1 .218-.03c.979 0 1.886-.053 2.719-.157l.937-.063 1.376-.093c.333-.042.562-.073.687-.094.167-.02.354-.042.563-.063.229-.041.374-.052.437-.03a2 2 0 0 0 .313.187c.145.062.302.166.468.312.104.104.188.209.25.313a.386.386 0 0 1 .125.281c0 .083-.052.208-.156.375-.104.167-.208.427-.313.781-.083.354-.145.604-.187.75-.313 1.042-.698 1.802-1.156 2.281a1.666 1.666 0 0 1-1.125.438c-.188 0-.344-.135-.469-.406-.187-.417-.396-.709-.625-.875l.031-.156c.563.187.948.28 1.157.28.166 0 .281-.03.343-.093a.766.766 0 0 0 .219-.281c.104-.271.188-.51.25-.719.083-.208.156-.396.219-.563.041-.187.093-.437.156-.75a5.46 5.46 0 0 0 .156-.75c0-.187-.052-.28-.156-.28h-.687c-.313 0-.667.01-1.063.03-.396.021-.719.053-.969.094l-.062 2.844.031 1.625v.656a1.27 1.27 0 0 1 0 .406v.594c.021.25.021.427 0 .531l-.219.5c-.146.146-.271.22-.375.22Zm4.407 10.438c-.313 0-.615-.23-.907-.688a9.905 9.905 0 0 0-1.093-1.437l-.813-.844c-.437.5-.823.896-1.156 1.188a6.25 6.25 0 0 1-1.188.843c-.896.521-1.646.781-2.25.781-.146 0-.219-.052-.219-.156 0-.062.198-.198.594-.406a6.591 6.591 0 0 0 1.125-.75c.896-.75 1.636-1.52 2.219-2.313-.125-.124-.75-.666-1.875-1.624a10.426 10.426 0 0 1-.656-.532 7.616 7.616 0 0 1-.375-.281c-.188-.146-.282-.25-.282-.313 0-.104.053-.156.157-.156.312 0 .812.219 1.5.656.687.417 1.406.917 2.156 1.5.292-.354.521-.687.687-1 .167-.312.355-.697.563-1.156.104-.229.167-.427.187-.594a4.83 4.83 0 0 0 .032-.343c0-.23.062-.344.187-.344.146 0 .344.115.594.344.437.416.656.698.656.844 0 .083-.052.177-.156.28-.25.25-.479.584-.687 1-.126.25-.355.605-.688 1.063a2.76 2.76 0 0 0-.25.344 3.062 3.062 0 0 1-.188.281c.48.354 1.188.959 2.126 1.813.229.208.374.406.437.594.083.166.125.395.125.687a.89.89 0 0 1-.156.531.504.504 0 0 1-.406.188Zm6.5-11.438c.062 0 .124.031.187.094a.302.302 0 0 1 .125.188v.062c0 .146-.115.427-.344.844l-2.25 3.906c-.166.354-.385.531-.656.531s-.5-.166-.688-.5c-.187-.27-.416-.677-.687-1.219a3.86 3.86 0 0 1-.313-.562 10.16 10.16 0 0 0-.187-.406c-.229-.396-.344-.677-.344-.844a.21.21 0 0 1 .094-.188c.063-.062.125-.093.187-.093.23 0 .438.125.626.375.145.146.26.302.343.469l.344.468.625.719.281-.438c.292-.5.979-1.49 2.063-2.968.229-.292.427-.438.594-.438ZM187.594 85c-.604 0-1.042-.115-1.313-.344-.25-.229-.469-.687-.656-1.375a.345.345 0 0 1-.031-.156c0-.083.062-.125.187-.125l.188.031c.479.125 1.01.188 1.593.188l2.813-.094-.156-19.063a5.7 5.7 0 0 0-.063-.968 1.567 1.567 0 0 0-.187-.625c-.125-.23-.188-.396-.188-.5 0-.146.094-.219.281-.219.396 0 1.105.198 2.126.594l7.687-.438.406-.031c.292 0 .604.115.938.344.333.229.5.49.5.781 0 .104-.031.23-.094.375a.713.713 0 0 0-.094.281l-.125 19.125 1.688-.062c.396-.021.781-.084 1.156-.188.208-.041.354-.062.438-.062.25 0 .562.187.937.562.375.354.563.677.563.969 0 .25-.282.396-.844.438L187.875 85h-.281ZM176 79.062c0-.208.188-.49.562-.843a43.075 43.075 0 0 0 4.594-5.094 32.253 32.253 0 0 0 3.438-5.625l-4.656.5c-.188.02-.376.042-.563.063a4.3 4.3 0 0 1-.531.03c-.292 0-.542-.072-.75-.218a3.863 3.863 0 0 1-.782-.906c-.166-.313-.25-.521-.25-.625 0-.125.084-.188.25-.188h.157c.354.063.729.094 1.125.094.291 0 .51-.01.656-.031l6.125-.625c.167-.021.365-.031.594-.031.416 0 .739.114.969.343.25.209.374.427.374.656 0 .146-.427.959-1.281 2.438-.854 1.458-1.625 2.635-2.312 3.531 3.187 2.084 4.781 3.354 4.781 3.813a3.27 3.27 0 0 1-.406.937c-.167.25-.354.375-.563.375-.166 0-.375-.146-.625-.437-.771-.896-1.864-1.875-3.281-2.938l-.031 11.563c0 .27-.052.479-.156.625a.491.491 0 0 1-.438.25c-.125 0-.323-.063-.594-.188a2.628 2.628 0 0 1-.687-.5.897.897 0 0 1-.281-.656l.031-.219c.062-.291.114-.698.156-1.219.042-.541.063-.979.063-1.312l.187-7.844c-1.208 1.25-2.375 2.313-3.5 3.188-1.125.854-1.844 1.281-2.156 1.281-.146 0-.219-.063-.219-.188Zm4.188-18.812c0-.125.104-.302.312-.531.208-.25.438-.375.688-.375.229 0 .708.343 1.437 1.031a23.315 23.315 0 0 1 2.094 2.188c.666.77 1 1.229 1 1.374 0 .23-.177.49-.531.782-.334.27-.594.406-.782.406-.166 0-.364-.146-.594-.438a33.522 33.522 0 0 0-3.343-3.937c-.188-.23-.281-.396-.281-.5Zm12.031 8.656 7.312-.375v-4.875l-7.343.375.031 4.875Zm.031 6.375 7.25-.375V70.25l-7.281.375.031 4.656Zm.062 7.781 7.157-.218.031-6.188-7.219.313.031 6.094Zm67.5-15.124c-.124 0-.291-.136-.5-.407-.208-.291-.302-.541-.281-.75.042-.166.073-.635.094-1.406.021-.52.031-1.438.031-2.75a34.2 34.2 0 0 0-.031-1.844l-1.031.094c-.729.104-1.354.156-1.875.156-.146 0-.354-.114-.625-.343-.271-.23-.406-.396-.406-.5 0-.167.177-.23.531-.188.229.02.906.01 2.031-.031 1.542-.104 2.656-.167 3.344-.188.354-.02.677-.052.968-.093.313-.063.532-.105.657-.126a.98.98 0 0 1 .5.063c.146.063.281.146.406.25.146.083.26.146.344.188.187.124.281.24.281.343 0 .084-.052.167-.156.25a.458.458 0 0 1-.282.094c-.104 0-.25-.01-.437-.031a4.56 4.56 0 0 0-.563-.032c-.77 0-1.562.021-2.374.063-.021.167-.032.583-.032 1.25a90.987 90.987 0 0 0-.062 3.313v1.499c0 .355-.032.584-.094.688-.188.292-.333.438-.438.438Zm-3.343 5.53c-.229 0-.511-.176-.844-.53-.25-.25-.375-.438-.375-.563 0-.063.042-.094.125-.094.083-.02.187-.031.313-.031l.687-.031c.396 0 .656-.01.781-.031.396 0 .729-.01 1-.032 1.792-.166 3-.302 3.625-.406.313-.042.594-.083.844-.125.25-.063.448-.094.594-.094.291 0 .583.146.875.438.229.229.344.416.344.562 0 .125-.073.209-.219.25-.104.021-.719.063-1.844.125-.625.021-1.396.073-2.313.156-.916.084-1.718.167-2.406.25-.125.021-.302.053-.531.094a3.668 3.668 0 0 1-.656.063Zm4.656 6.97c-.208.27-.427.406-.656.406-.063 0-.094-.052-.094-.156 0-.146.042-.313.125-.5l.625-1.25c.021-.084.052-.167.094-.25.041-.084.073-.157.093-.22v-.03c0-.042-.031-.084-.093-.126a.264.264 0 0 0-.219-.03c-.333.02-.833.072-1.5.156-.646.083-1.125.166-1.438.25l-.468.156a1.227 1.227 0 0 1-.406.094c-.376 0-.688-.115-.938-.344a1.931 1.931 0 0 1-.469-.438l-.062-.156c0-.104.177-.135.531-.094.479.042 1.469-.02 2.969-.187l.625-.094.781-.094c.375-.062.667-.125.875-.187l.188-.063a.502.502 0 0 1 .218-.062c.104 0 .229.052.375.156.167.104.302.198.407.281.145.104.239.198.281.281.062.063.083.146.062.25 0 .105-.052.198-.156.282a3.092 3.092 0 0 0-.219.187c-.041.063-.187.219-.437.469-.104.167-.292.396-.563.688-.25.291-.427.5-.531.624Zm-1.563 6.156c0-.063.105-.23.313-.5.229-.25.406-.448.531-.594.313-.417.688-1.02 1.125-1.813.459-.791.719-1.312.781-1.562.042-.125-.02-.188-.187-.188-.333 0-1.25.094-2.75.282-.979.125-1.708.25-2.187.375a.608.608 0 0 1-.313.094c-.167 0-.344-.115-.531-.344a.821.821 0 0 1-.125-.406c0-.084.052-.167.156-.25l.094-.126c.062-.124.135-.291.219-.5.083-.208.156-.406.218-.593.104-.334.177-.698.219-1.094.021-.23.146-.292.375-.188.292.146.51.292.656.438.167.125.219.219.156.281a3.15 3.15 0 0 0-.5.844 8.477 8.477 0 0 0-.187.656c0 .084.052.125.156.125.313 0 .781-.052 1.407-.156l1.312-.156c.521-.063.938-.125 1.25-.188l.781-.156a.817.817 0 0 1 .25-.031c.104 0 .209.041.313.125.104.062.218.146.344.25.208.187.343.344.406.469a.72.72 0 0 1 .094.374c0 .084-.063.188-.188.313a3.792 3.792 0 0 0-.375.594c-.604 1.229-1.385 2.26-2.344 3.094a4.331 4.331 0 0 1-.906.53 1.486 1.486 0 0 1-.406.063c-.104.021-.157 0-.157-.062Zm-17.75-4.531c0 .52.105.906.313 1.156.208.25.552.416 1.031.5.479.083 1.209.125 2.188.125 1.312 0 2.427-.104 3.344-.313.333-.062.593-.198.781-.406.187-.23.396-.74.625-1.531.229-.813.489-2.094.781-3.844.083-.438.177-.77.281-1 .104-.23.209-.344.313-.344.354 0 .531 1.042.531 3.125 0 1.021-.062 2.146-.188 3.375-.062.73-.291 1.302-.687 1.719-.375.438-1.01.75-1.906.938-.875.208-2.104.312-3.688.312-1.187 0-2.166-.063-2.937-.188-.771-.124-1.427-.437-1.969-.937-.542-.48-.813-1.24-.813-2.281v-.094l.126-8.75-3.344.156c-.729 3.48-2.042 6.198-3.938 8.156-1.875 1.938-4.448 3.448-7.718 4.532-.23.083-.428.125-.594.125-.229 0-.344-.073-.344-.219 0-.188.229-.417.688-.688 1.916-1.041 3.489-2.072 4.718-3.093A14.213 14.213 0 0 0 232.5 79c.854-1.396 1.51-3.094 1.969-5.094l-5.813.313a7.51 7.51 0 0 1-.781.031c-.521 0-.937-.094-1.25-.281-.313-.209-.583-.625-.813-1.25l-.062-.25c0-.146.083-.219.25-.219a.44.44 0 0 1 .188.031 6.46 6.46 0 0 0 1.437.156h.313l9.687-.53.031-4.97-5.125.313c-.521.833-1.219 1.802-2.093 2.906-.876 1.104-1.511 1.656-1.907 1.656-.125 0-.187-.083-.187-.25 0-.27.146-.624.437-1.062a25.185 25.185 0 0 0 2-3.656c.563-1.23.979-2.313 1.25-3.25.271-.938.407-1.594.407-1.969 0-.25-.011-.438-.032-.563l-.031-.187c0-.188.094-.281.281-.281.313 0 .75.166 1.313.5.562.333.843.635.843.906 0 .125-.124.531-.374 1.219-.25.666-.563 1.406-.938 2.218l4.188-.25.031-4.75c0-.124-.031-.291-.094-.5a1.813 1.813 0 0 0-.25-.53c-.083-.167-.125-.272-.125-.313 0-.146.135-.219.406-.219.396 0 .844.073 1.344.219.521.125.781.385.781.781l-.093 5.188 4.531-.282c.562-.041 1.01-.125 1.343-.25.167-.041.282-.062.344-.062.292 0 .656.187 1.094.562.438.354.656.667.656.938 0 .25-.25.396-.75.437l-7.25.406-.094 5 8.219-.437c.584-.042 1.042-.125 1.375-.25.125-.042.229-.063.313-.063.125 0 .333.094.625.282.291.166.552.375.781.625.229.229.344.437.344.625 0 .27-.25.427-.75.469l-8.531.437-.126 8.563Z"/></svg>