<svg width="350" height="36" viewBox="0 0 350 36" fill="none" xmlns="http://www.w3.org/2000/svg">
<path d="M77.9336 8.19922C77.7695 8.19922 77.8516 8.05859 78.1797 7.77734C78.5078 7.49609 78.9062 7.15625 79.375 6.75781C79.8438 6.33594 80.3711 5.78516 80.957 5.10547C81.332 4.66016 81.6133 4.19141 81.8008 3.69922C81.918 3.41797 82.0469 3.27734 82.1875 3.27734C82.3047 3.27734 82.4805 3.37109 82.7148 3.55859C83.1836 3.93359 83.418 4.25 83.418 4.50781C83.418 4.67187 83.3242 4.78906 83.1367 4.85938C83.043 4.88281 82.9023 4.98828 82.7148 5.17578C82.5273 5.33984 82.3867 5.46875 82.293 5.5625C81.2852 6.54688 80.3477 7.26172 79.4805 7.70703C78.7773 8.03516 78.3086 8.19922 78.0742 8.19922H77.9336ZM81.625 14.7383C81.5547 14.7383 81.4375 14.6445 81.2734 14.457C81.1328 14.2461 81.0273 14.0469 80.957 13.8594C80.9336 13.7188 80.9336 13.543 80.957 13.332C81.0039 13.0977 81.0273 12.9219 81.0273 12.8047C81.0742 12.3359 81.0977 11.9609 81.0977 11.6797C81.1211 11.4219 81.1211 11.1406 81.0977 10.8359C81.0977 10.5313 81.0977 10.332 81.0977 10.2383L81.0625 9.71094C80.5 10.1094 80.0664 10.3906 79.7617 10.5547C79.082 10.9297 78.5898 11.1641 78.2852 11.2578C77.9102 11.3984 77.5703 11.4688 77.2656 11.4688C77.1016 11.4688 77.0078 11.4453 76.9844 11.3984C76.9375 11.3047 77.4062 10.9648 78.3906 10.3789C79.3281 9.79297 80.3477 9.01953 81.4492 8.05859C82.0586 7.49609 82.5273 6.95703 82.8555 6.44141C82.9023 6.37109 82.9375 6.28906 82.9609 6.19531C83.0078 6.07812 83.0547 6.00781 83.1016 5.98438C83.1719 5.96094 83.2656 5.97266 83.3828 6.01953C83.6875 6.18359 83.9453 6.41797 84.1562 6.72266C84.25 6.83984 84.2969 6.95703 84.2969 7.07422C84.2969 7.19141 84.2383 7.30859 84.1211 7.42578C84.0039 7.51953 83.8867 7.58984 83.7695 7.63672C83.3711 7.89453 83.0078 8.17578 82.6797 8.48047C82.3516 8.78516 82.1406 8.98438 82.0469 9.07812C82.3984 9.35938 82.5742 9.55859 82.5742 9.67578L82.4688 10.4141C82.4219 10.625 82.3984 11.1523 82.3984 11.9961C82.3984 12.8164 82.4219 13.3672 82.4688 13.6484V13.7188C82.4688 13.8359 82.4336 13.9648 82.3633 14.1055C82.3164 14.2227 82.2812 14.3047 82.2578 14.3516C82.0938 14.6094 81.8828 14.7383 81.625 14.7383ZM85.2109 23.668C84.8594 23.668 84.5195 23.4102 84.1914 22.8945C83.7695 22.2383 83.3594 21.6992 82.9609 21.2773L82.0469 20.3281C81.5547 20.8906 81.1211 21.3359 80.7461 21.6641C80.3945 21.9922 79.9492 22.3086 79.4102 22.6133C78.4023 23.1992 77.5586 23.4922 76.8789 23.4922C76.7148 23.4922 76.6328 23.4336 76.6328 23.3164C76.6328 23.2461 76.8555 23.0938 77.3008 22.8594C77.7461 22.625 78.168 22.3438 78.5664 22.0156C79.5742 21.1719 80.4062 20.3047 81.0625 19.4141C80.9219 19.2734 80.2188 18.6641 78.9531 17.5859C78.7891 17.4688 78.543 17.2695 78.2148 16.9883C78.1445 16.9414 78.0039 16.8359 77.793 16.6719C77.582 16.5078 77.4766 16.3906 77.4766 16.3203C77.4766 16.2031 77.5352 16.1445 77.6523 16.1445C78.0039 16.1445 78.5664 16.3906 79.3398 16.8828C80.1133 17.3516 80.9219 17.9141 81.7656 18.5703C82.0938 18.1719 82.3516 17.7969 82.5391 17.4453C82.7266 17.0938 82.9375 16.6602 83.1719 16.1445C83.2891 15.8867 83.3594 15.6641 83.3828 15.4766C83.4062 15.2656 83.418 15.1367 83.418 15.0898C83.418 14.832 83.4883 14.7031 83.6289 14.7031C83.793 14.7031 84.0156 14.832 84.2969 15.0898C84.7891 15.5586 85.0352 15.875 85.0352 16.0391C85.0352 16.1328 84.9766 16.2383 84.8594 16.3555C84.5781 16.6367 84.3203 17.0117 84.0859 17.4805C83.9453 17.7617 83.6875 18.1602 83.3125 18.6758C83.1953 18.8164 83.1016 18.9453 83.0312 19.0625C82.9609 19.1797 82.8906 19.2852 82.8203 19.3789C83.3594 19.7773 84.1562 20.457 85.2109 21.418C85.4688 21.6523 85.6328 21.875 85.7031 22.0859C85.7969 22.2734 85.8438 22.5312 85.8438 22.8594C85.8438 23.0938 85.7852 23.293 85.668 23.457C85.5508 23.5977 85.3984 23.668 85.2109 23.668ZM77.4414 34.1797C77.0898 34.1797 76.8203 34.0859 76.6328 33.8984C76.4219 33.6875 76.3164 33.5 76.3164 33.3359C76.3164 33.1719 76.4102 32.9961 76.5977 32.8086C76.6211 32.7852 76.75 32.5977 76.9844 32.2461C77.5 31.4258 78.0859 30.3828 78.7422 29.1172C79.4219 27.8281 79.8438 26.9492 80.0078 26.4805C80.1484 26.0352 80.2773 25.6484 80.3945 25.3203C80.5352 24.9922 80.6523 24.8281 80.7461 24.8281C80.9102 24.8281 81.0508 24.8867 81.168 25.0039C81.2852 25.0977 81.4023 25.2383 81.5195 25.4258C81.6602 25.5898 81.7656 25.707 81.8359 25.7773C82 25.9648 82.082 26.1406 82.082 26.3047C82.082 26.4219 82.0352 26.5391 81.9414 26.6562C81.8477 26.7734 81.7891 26.8555 81.7656 26.9023L80.2188 29.5039C79.8203 30.2305 79.293 31.1328 78.6367 32.2109C78.543 32.3281 78.4961 32.4453 78.4961 32.5625C78.4961 32.6562 78.6016 32.7031 78.8125 32.7031C79.2578 32.7031 80.0898 32.6445 81.3086 32.5273C82.5273 32.4336 83.3477 32.3516 83.7695 32.2812C84.3789 32.2109 84.8008 32.1406 85.0352 32.0703C85.293 32 85.668 32.1758 86.1602 32.5977C86.7461 33.0898 86.875 33.4062 86.5469 33.5469C86.3594 33.6406 85.9961 33.6875 85.457 33.6875H84.0508C83.7461 33.6875 83.2656 33.7109 82.6094 33.7578C82.2109 33.7578 81.7656 33.7695 81.2734 33.793C80.7812 33.8164 80.3711 33.8398 80.043 33.8633C79.668 33.8867 78.9414 33.957 77.8633 34.0742L77.4414 34.1797ZM92.3828 18.6758C92.6641 18.6758 92.8047 18.8047 92.8047 19.0625C92.8047 19.2031 92.6758 19.4023 92.418 19.6602C91.7148 20.5273 90.3203 22.1797 88.2344 24.6172C88.0703 24.8281 87.918 24.9336 87.7773 24.9336C87.6602 24.9336 87.4023 24.7578 87.0039 24.4062C86.6758 24.125 86.5117 23.8906 86.5117 23.7031C86.5117 23.4922 86.6875 23.293 87.0391 23.1055C87.5781 22.8008 88.3867 22.1914 89.4648 21.2773C90.543 20.3164 91.3398 19.5547 91.8555 18.9922C92.0664 18.7812 92.2422 18.6758 92.3828 18.6758ZM44.1133 34.25C43.7383 34.25 43.4336 34.2148 43.1992 34.1445C42.9883 34.0977 42.8242 33.9922 42.707 33.8281C42.332 33.3359 42.0859 32.8789 41.9688 32.457C41.9453 32.4102 41.9336 32.3398 41.9336 32.2461C41.9336 32.082 42.0156 32 42.1797 32L42.3555 32.0352C42.8242 32.1758 43.4922 32.2461 44.3594 32.2461L56.2422 31.9648V28.9414L49.1758 29.2227H48.4023C47.9336 29.2227 47.6055 29.1289 47.418 28.9414C46.7852 28.3086 46.4688 27.7812 46.4688 27.3594C46.4688 27.1953 46.5508 27.1133 46.7148 27.1133C46.8086 27.1133 46.8906 27.125 46.9609 27.1484C47.4297 27.2891 47.9453 27.3594 48.5078 27.3594H48.8242L56.2773 27.1133V24.582L50.793 24.793L50.8281 25.2148V25.3203C50.8281 25.7188 50.6523 25.918 50.3008 25.918C50.0898 25.918 49.8086 25.8477 49.457 25.707C49.0586 25.5195 48.7891 25.3672 48.6484 25.25C48.5312 25.1094 48.4727 24.9219 48.4727 24.6875L48.5078 24.3711C48.5547 23.9961 48.5781 23.6562 48.5781 23.3516C48.5781 23.0938 48.5664 22.8945 48.543 22.7539L47.9453 16.9883C47.875 16.3086 47.7227 15.7227 47.4883 15.2305C47.3477 14.8555 47.2773 14.6328 47.2773 14.5625C47.2773 14.4219 47.3945 14.3516 47.6289 14.3516C48.0039 14.3516 48.7891 14.5508 49.9844 14.9492L56.3125 14.5977V12.1719L46.1875 12.6992C46 12.6992 45.8125 12.7109 45.625 12.7344C45.4609 12.7578 45.2852 12.7695 45.0977 12.7695C44.6289 12.7695 44.3008 12.6758 44.1133 12.4883C43.5977 11.9727 43.2812 11.5859 43.1641 11.3281L43.0938 11.0469C43.0938 10.9062 43.1758 10.8359 43.3398 10.8359H43.4805C43.8789 10.9062 44.3711 10.9414 44.957 10.9414H45.3789L56.3477 10.3438V8.26953C54.8008 8.45703 52.8906 8.59766 50.6172 8.69141C49.4922 8.73828 48.6484 8.78516 48.0859 8.83203H47.7344C47.3594 8.83203 47.0664 8.79688 46.8555 8.72656C46.668 8.63281 46.5742 8.52734 46.5742 8.41016C46.5742 8.26953 46.6914 8.14063 46.9258 8.02344C47.1602 7.88281 47.5 7.77734 47.9453 7.70703C54.5547 6.86328 59.7812 5.86719 63.625 4.71875C64.2344 4.53125 64.7148 4.26172 65.0664 3.91016C65.207 3.76953 65.3242 3.69922 65.418 3.69922C65.7227 3.69922 66.0977 3.99219 66.543 4.57812C67.0117 5.14062 67.2461 5.5625 67.2461 5.84375C67.2461 6.10156 67.082 6.26562 66.7539 6.33594C64.0352 6.96875 61.2812 7.50781 58.4922 7.95312V10.2383L68.5117 9.67578C69.0273 9.62891 69.5195 9.53516 69.9883 9.39453L70.1641 9.35938C70.2578 9.35938 70.457 9.45312 70.7617 9.64062C71.0664 9.80469 71.3359 10.0156 71.5703 10.2734C71.8047 10.5078 71.9219 10.7187 71.9219 10.9062C71.9219 11.1406 71.6641 11.2812 71.1484 11.3281L58.457 12.0312V14.4922L65.6992 14.1055H65.9453C66.4609 14.1055 66.8594 14.2695 67.1406 14.5977C67.4219 14.9023 67.5625 15.1719 67.5625 15.4062C67.5625 15.5 67.5273 15.6172 67.457 15.7578C67.4102 15.8984 67.375 16.0273 67.3516 16.1445L66.5078 22.543C67.0469 23.1758 67.3164 23.6211 67.3164 23.8789C67.3164 23.9961 67.2578 24.0781 67.1406 24.125C67.0469 24.1484 66.918 24.1719 66.7539 24.1953C66.5898 24.1953 66.4727 24.1953 66.4023 24.1953L58.3867 24.5117V27.043L65.0312 26.7969C65.4531 26.7266 65.8516 26.6445 66.2266 26.5508C66.4141 26.5039 66.543 26.4805 66.6133 26.4805C66.8477 26.4805 67.1992 26.6797 67.668 27.0781C68.1602 27.4531 68.4062 27.7812 68.4062 28.0625C68.4062 28.3203 68.0781 28.4727 67.4219 28.5195L58.3867 28.8711L58.3516 31.9297L69.5664 31.6484C70.1523 31.6484 70.7266 31.5664 71.2891 31.4023L71.7109 31.332C72.0156 31.332 72.3789 31.5664 72.8008 32.0352C73.2227 32.5273 73.4336 32.8906 73.4336 33.125C73.4336 33.3594 73.1992 33.5 72.7305 33.5469L44.8516 34.2148L44.1133 34.25ZM50.2305 18.957L56.3125 18.6758V16.2852L50.0195 16.6016L50.2305 18.957ZM50.6172 23.1406L56.2773 22.8945V20.3281L50.4062 20.5742L50.6172 23.1406ZM64.5039 22.5781L64.7148 19.9414L58.4219 20.2227V22.8242L64.5039 22.5781ZM64.8555 18.2539L65.0664 15.8633L58.457 16.1797L58.4219 18.5703L64.8555 18.2539ZM131.652 14.1758C131.395 14.1758 131.078 13.9766 130.703 13.5781C130.422 13.2969 130.281 13.0859 130.281 12.9453C130.281 12.875 130.328 12.8398 130.422 12.8398C130.516 12.8164 130.633 12.8047 130.773 12.8047L131.547 12.7695C131.992 12.7695 132.285 12.7578 132.426 12.7344C132.871 12.7344 133.246 12.7227 133.551 12.6992C135.566 12.5117 136.926 12.3594 137.629 12.2422C137.98 12.1953 138.297 12.1484 138.578 12.1016C138.859 12.0312 139.082 11.9961 139.246 11.9961C139.574 11.9961 139.902 12.1602 140.23 12.4883C140.488 12.7461 140.617 12.957 140.617 13.1211C140.617 13.2617 140.535 13.3555 140.371 13.4023C140.254 13.4258 139.562 13.4727 138.297 13.543C137.594 13.5664 136.727 13.625 135.695 13.7188C134.664 13.8125 133.762 13.9063 132.988 14C132.848 14.0234 132.648 14.0586 132.391 14.1055C132.133 14.1523 131.887 14.1758 131.652 14.1758ZM139.633 29.5742C139.961 29.7852 140.125 29.9844 140.125 30.1719C140.125 30.4297 139.926 30.5938 139.527 30.6641C139.129 30.7344 138.566 30.7812 137.84 30.8047C136.785 30.8281 136.105 30.793 135.801 30.6992C135.285 30.4648 135.027 30.0781 135.027 29.5391L135.062 28.2383C135.109 27.8164 135.133 27.4414 135.133 27.1133C135.156 26.9023 135.168 26.4922 135.168 25.8828C134.816 26.6797 134.359 27.4531 133.797 28.2031C133.398 28.6953 133.047 29.1055 132.742 29.4336C132.438 29.7383 132.074 30.0312 131.652 30.3125C131.23 30.5938 130.844 30.7344 130.492 30.7344C130.281 30.7344 130.176 30.6641 130.176 30.5234C130.176 30.5 130.398 30.3242 130.844 29.9961C131.312 29.6445 131.781 29.1641 132.25 28.5547C132.953 27.6172 133.562 26.5156 134.078 25.25C133.164 25.3672 132.555 25.4727 132.25 25.5664C132.133 25.5898 132.027 25.625 131.934 25.6719C131.84 25.6953 131.723 25.6953 131.582 25.6719C131.465 25.625 131.301 25.5312 131.09 25.3906C130.879 25.2266 130.715 25.0742 130.598 24.9336C130.504 24.793 130.457 24.6992 130.457 24.6523C130.457 24.5352 130.633 24.4766 130.984 24.4766C131.852 24.4766 132.965 24.3828 134.324 24.1953C134.465 23.6562 134.535 22.7891 134.535 21.5938V20.9258C134.535 20.6445 134.594 20.4922 134.711 20.4688C134.734 20.4453 134.781 20.4336 134.852 20.4336C135.039 20.4336 135.297 20.5742 135.625 20.8555C135.883 21.0664 136.047 21.2305 136.117 21.3477C136.211 21.4414 136.223 21.5703 136.152 21.7344C136.129 21.7812 136.082 21.875 136.012 22.0156C135.941 22.1562 135.895 22.2969 135.871 22.4375C135.848 22.5547 135.801 22.7891 135.73 23.1406C135.66 23.4688 135.613 23.7617 135.59 24.0195C135.918 23.9961 136.328 23.9492 136.82 23.8789C137.312 23.8086 137.676 23.7383 137.91 23.668L138.613 23.4922C138.848 23.4453 139.234 23.6445 139.773 24.0898C139.867 24.1602 139.914 24.2422 139.914 24.3359C139.914 24.4297 139.867 24.5117 139.773 24.582C139.703 24.6289 139.609 24.6523 139.492 24.6523C139.07 24.6523 138.297 24.7227 137.172 24.8633L136.012 24.9688C136.27 25.1562 136.434 25.3203 136.504 25.4609C136.574 25.6016 136.586 25.7422 136.539 25.8828L136.434 26.4453C136.387 26.9141 136.34 27.4297 136.293 27.9922C136.27 28.5547 136.27 28.9883 136.293 29.293C136.293 29.4102 136.363 29.5156 136.504 29.6094C136.668 29.7031 136.832 29.75 136.996 29.75C137.582 29.75 138.238 29.6914 138.965 29.5742L139.281 29.5039C139.422 29.5039 139.539 29.5273 139.633 29.5742ZM146.383 14.8086C146.664 14.8086 146.805 14.9375 146.805 15.1953C146.805 15.3359 146.676 15.5352 146.418 15.793C145.715 16.6602 144.32 18.3125 142.234 20.75C142.07 20.9609 141.918 21.0664 141.777 21.0664C141.66 21.0664 141.402 20.8906 141.004 20.5391C140.676 20.2578 140.512 20.0234 140.512 19.8359C140.512 19.625 140.688 19.4258 141.039 19.2383C141.578 18.9336 142.387 18.3242 143.465 17.4102C144.543 16.4492 145.34 15.6875 145.855 15.125C146.066 14.9141 146.242 14.8086 146.383 14.8086ZM121.738 32.7031C121.809 32.7031 121.855 32.6914 121.879 32.668C121.926 32.668 121.949 32.6328 121.949 32.5625C122.863 30.2422 123.379 27.043 123.496 22.9648L121.738 23.0352C120.145 25.8008 118.422 28.0273 116.57 29.7148C114.742 31.3789 113.125 32.5625 111.719 33.2656C110.336 33.9688 109.445 34.3203 109.047 34.3203C108.812 34.3203 108.695 34.25 108.695 34.1094C108.695 33.875 109.047 33.5234 109.75 33.0547C113.57 30.4766 116.664 27.1836 119.031 23.1758L116.324 23.2812C114.918 24.9688 113.535 26.3633 112.176 27.4648C110.816 28.543 109.645 29.3281 108.66 29.8203C107.699 30.3125 107.066 30.5586 106.762 30.5586C106.574 30.5586 106.48 30.4883 106.48 30.3477C106.48 30.2305 106.562 30.0781 106.727 29.8906C106.914 29.6797 107.16 29.4688 107.465 29.2578C109.691 27.6875 111.707 25.7422 113.512 23.4219L109.961 23.5977C108.977 24.418 107.98 25.1445 106.973 25.7773C105.965 26.4102 105.262 26.7266 104.863 26.7266C104.699 26.7266 104.617 26.668 104.617 26.5508C104.617 26.293 104.863 25.9766 105.355 25.6016C107.371 24.0312 109.363 21.9453 111.332 19.3438L109.188 19.4844H108.555C107.945 19.4844 107.57 19.4023 107.43 19.2383C107.008 18.8164 106.715 18.3828 106.551 17.9375L106.48 17.6562C106.48 17.5156 106.551 17.4453 106.691 17.4453C106.809 17.4453 106.914 17.457 107.008 17.4805C107.43 17.5508 107.887 17.5859 108.379 17.5859H108.801L124.199 16.707C124.785 16.6602 125.23 16.5898 125.535 16.4961C125.723 16.4492 125.852 16.4258 125.922 16.4258C126.203 16.4258 126.496 16.5195 126.801 16.707C127.105 16.8945 127.363 17.1055 127.574 17.3398C127.809 17.5742 127.926 17.7617 127.926 17.9023C127.926 18.207 127.645 18.3828 127.082 18.4297L114.355 19.168C113.84 19.7773 113.078 20.6094 112.07 21.6641L124.164 21.0664H124.375C124.891 21.0664 125.277 21.1836 125.535 21.418C125.793 21.6523 125.922 21.8984 125.922 22.1562C125.922 22.2734 125.887 22.4141 125.816 22.5781C125.77 22.7422 125.746 22.8594 125.746 22.9297C125.605 25.9297 125.254 28.8242 124.691 31.6133C124.457 32.8555 124.094 33.7695 123.602 34.3555C123.133 34.9414 122.664 35.2344 122.195 35.2344C121.75 35.2344 121.094 34.9766 120.227 34.4609C119.359 33.9688 118.562 33.418 117.836 32.8086C117.109 32.1992 116.746 31.7773 116.746 31.543C116.746 31.4258 116.84 31.3672 117.027 31.3672C117.309 31.3672 117.707 31.4727 118.223 31.6836C119.488 32.1758 120.613 32.5156 121.598 32.7031H121.738ZM97.4102 33.8984C97.4102 33.7344 97.4219 33.6055 97.4453 33.5117C97.5859 32.7852 97.6562 31.8828 97.6562 30.8047L97.9375 9.60547V9.00781C97.9375 8.04687 97.8438 7.32031 97.6562 6.82812C97.4922 6.45313 97.4102 6.19531 97.4102 6.05469C97.4102 5.89063 97.5039 5.80859 97.6914 5.80859C97.9961 5.80859 98.8633 6.08984 100.293 6.65234L104.934 6.23047L105.391 6.19531C105.578 6.19531 105.859 6.3125 106.234 6.54688C106.633 6.78125 106.832 7.03906 106.832 7.32031C106.832 7.46094 106.762 7.61328 106.621 7.77734C106.504 7.91797 106.422 8.03516 106.375 8.12891C105.461 9.95703 104.488 11.6445 103.457 13.1914C103.41 13.2852 103.387 13.3555 103.387 13.4023C103.387 13.543 103.422 13.6484 103.492 13.7188C104.5 14.8438 105.191 15.8984 105.566 16.8828C105.965 17.8672 106.164 18.957 106.164 20.1523C106.164 20.9727 105.988 21.6875 105.637 22.2969C105.309 22.9062 104.898 23.2109 104.406 23.2109C104.055 23.2109 103.539 22.9414 102.859 22.4023C102.203 21.8633 101.594 21.2656 101.031 20.6094C100.492 19.9297 100.223 19.4609 100.223 19.2031C100.223 19.0625 100.293 18.9922 100.434 18.9922C100.621 18.9922 100.926 19.1328 101.348 19.4141C101.84 19.7656 102.344 20.082 102.859 20.3633C103.375 20.6211 103.715 20.75 103.879 20.75C103.949 20.75 103.996 20.6094 104.02 20.3281C104.066 20.0469 104.09 19.8242 104.09 19.6602C104.09 18.8398 103.926 18.0195 103.598 17.1992C103.293 16.3789 102.719 15.4883 101.875 14.5273C101.594 14.1758 101.453 13.8359 101.453 13.5078C101.453 13.2266 101.559 12.8984 101.77 12.5234C102.754 10.8359 103.516 9.38281 104.055 8.16406L100.082 8.51562L99.7305 34.3203C99.7305 34.9766 99.5312 35.3047 99.1328 35.3047C99.0391 35.3047 98.8516 35.2461 98.5703 35.1289C98.2891 35.0352 98.0195 34.8828 97.7617 34.6719C97.5273 34.4609 97.4102 34.2031 97.4102 33.8984ZM108.906 5.35156C108.906 5.23437 109.012 5.17578 109.223 5.17578C109.551 5.17578 110.359 5.35156 111.648 5.70312L121.246 5.14062H121.562C121.961 5.14062 122.324 5.25781 122.652 5.49219C123.004 5.72656 123.18 5.97266 123.18 6.23047C123.18 6.34766 123.145 6.47656 123.074 6.61719C123.027 6.75781 122.992 6.875 122.969 6.96875L122.266 13.4023C122.852 13.9648 123.145 14.375 123.145 14.6328C123.145 14.7734 123.062 14.8672 122.898 14.9141C122.758 14.9609 122.535 14.9961 122.23 15.0195L112.176 15.4766L112.211 15.7578V15.8633C112.211 16.3086 112.012 16.5312 111.613 16.5312C111.285 16.5312 110.91 16.4023 110.488 16.1445C110.066 15.8633 109.855 15.5938 109.855 15.3359V15.1602C109.926 14.6914 109.961 14.2461 109.961 13.8242L109.926 13.1914L109.539 7.56641C109.492 6.93359 109.375 6.40625 109.188 5.98438C109 5.67969 108.906 5.46875 108.906 5.35156ZM111.789 9.64062L120.508 9.14844L120.719 6.86328L111.648 7.35547L111.789 9.64062ZM112.07 13.7891L120.156 13.3672L120.367 10.8008L111.895 11.2578L112.07 13.7891ZM192.121 14.3867C191.957 14.3867 191.781 14.2812 191.594 14.0703C191.453 13.9063 191.359 13.7773 191.312 13.6836C191.266 13.5664 191.266 13.4141 191.312 13.2266L191.348 12.3828C191.371 12.2188 191.383 11.8203 191.383 11.1875V10.0273L190.328 10.5195L189.098 11.0469C188.793 11.1641 188.477 11.3047 188.148 11.4688C187.867 11.6094 187.621 11.6797 187.41 11.6797C187.246 11.6563 187.059 11.5977 186.848 11.5039C186.637 11.4102 186.473 11.3281 186.355 11.2578C186.098 11.0938 185.98 10.918 186.004 10.7305L186.109 10.3789C186.109 10.1914 186.121 10.0273 186.145 9.88672L186.18 7.84766V5.94922C186.18 5.57422 186.156 5.25781 186.109 5C186.062 4.71875 186.027 4.51953 186.004 4.40234C186.004 4.28516 186.039 4.20313 186.109 4.15625C186.133 4.13281 186.191 4.12109 186.285 4.12109C186.449 4.12109 186.766 4.22656 187.234 4.4375C187.633 4.625 187.797 4.85938 187.727 5.14062C187.68 5.30469 187.633 5.55078 187.586 5.87891L187.48 9.92188C187.48 10.0391 187.492 10.1328 187.516 10.2031C187.562 10.25 187.609 10.2734 187.656 10.2734C187.938 10.2734 188.277 10.1914 188.676 10.0273C189.426 9.79297 190.07 9.55859 190.609 9.32422L191.383 9.00781V6.6875C191.383 5.75 191.324 4.84766 191.207 3.98047C191.184 3.91016 191.172 3.82812 191.172 3.73438C191.172 3.5 191.266 3.38281 191.453 3.38281C191.477 3.38281 191.605 3.42969 191.84 3.52344C192.191 3.71094 192.449 3.875 192.613 4.01562C192.777 4.15625 192.871 4.23828 192.895 4.26172C192.988 4.33203 193.035 4.40234 193.035 4.47266C193.035 4.51953 193.012 4.57812 192.965 4.64844C192.941 4.71875 192.918 4.77734 192.895 4.82422L192.789 5.87891L192.754 9.11328L192.789 12.2422C192.789 12.7813 192.754 13.25 192.684 13.6484C192.566 14.1406 192.379 14.3867 192.121 14.3867ZM185.652 20.1523C185.395 20.1523 185.078 19.9531 184.703 19.5547C184.422 19.2734 184.281 19.0625 184.281 18.9219C184.281 18.8516 184.328 18.8164 184.422 18.8164C184.516 18.793 184.633 18.7812 184.773 18.7812L185.547 18.7461C185.992 18.7461 186.285 18.7344 186.426 18.7109C186.871 18.7109 187.246 18.6992 187.551 18.6758C189.566 18.4883 190.926 18.3359 191.629 18.2188C191.98 18.1719 192.297 18.125 192.578 18.0781C192.859 18.0078 193.082 17.9727 193.246 17.9727C193.574 17.9727 193.902 18.1367 194.23 18.4648C194.488 18.7227 194.617 18.9336 194.617 19.0977C194.617 19.2383 194.535 19.332 194.371 19.3789C194.254 19.4023 193.562 19.4492 192.297 19.5195C191.594 19.543 190.727 19.6016 189.695 19.6953C188.664 19.7891 187.762 19.8828 186.988 19.9766C186.848 20 186.648 20.0352 186.391 20.082C186.133 20.1289 185.887 20.1523 185.652 20.1523ZM190.363 34.6719C189.637 34.6719 189.074 34.6484 188.676 34.6016C188.301 34.5547 187.984 34.4141 187.727 34.1797C187.281 33.8516 186.977 33.1367 186.812 32.0352L186.707 30.9102C186.707 30.6289 186.684 30.2773 186.637 29.8555C186.262 29.9023 185.992 29.9492 185.828 29.9961C185.781 30.0195 185.699 30.0547 185.582 30.1016C185.488 30.125 185.418 30.1367 185.371 30.1367C185.207 30.1367 185.055 30.0898 184.914 29.9961C184.773 29.9023 184.598 29.7266 184.387 29.4688C184.223 29.2578 184.141 29.1172 184.141 29.0469C184.141 28.9766 184.223 28.9297 184.387 28.9062C184.551 28.8828 184.773 28.8711 185.055 28.8711C185.453 28.8711 185.969 28.8242 186.602 28.7305L186.566 28.2383C186.566 27.3008 186.508 26.5039 186.391 25.8477L186.355 25.6016C186.355 25.2734 186.484 25.1445 186.742 25.2148C187.023 25.3086 187.281 25.4258 187.516 25.5664C187.703 25.6602 187.832 25.7539 187.902 25.8477C187.973 25.918 187.996 26.0234 187.973 26.1641L187.867 27.6758V28.5898L190.961 28.2734C190.961 28.1094 190.973 27.7227 190.996 27.1133C191.02 26.4805 191.02 26.0703 190.996 25.8828C190.996 25.6953 190.973 25.5195 190.926 25.3555C190.902 25.168 190.879 25.0156 190.855 24.8984C190.855 24.7109 190.949 24.6172 191.137 24.6172C191.324 24.6172 191.559 24.7227 191.84 24.9336C192.168 25.1445 192.379 25.332 192.473 25.4961C192.59 25.6602 192.613 25.8594 192.543 26.0938C192.426 26.4688 192.344 26.8906 192.297 27.3594C192.25 27.8281 192.227 28.1094 192.227 28.2031C192.508 28.1797 192.766 28.1445 193 28.0977C193.234 28.0508 193.387 28.0273 193.457 28.0273C193.645 27.9805 193.867 27.957 194.125 27.957C194.266 27.9805 194.465 28.1211 194.723 28.3789C194.934 28.6602 195.039 28.8828 195.039 29.0469C195.039 29.2812 194.816 29.375 194.371 29.3281C193.973 29.2578 193.574 29.2227 193.176 29.2227C192.777 29.2227 192.438 29.2344 192.156 29.2578C192.086 30.1016 191.945 30.9336 191.734 31.7539C191.688 31.9414 191.605 32.0938 191.488 32.2109C191.371 32.3516 191.266 32.4219 191.172 32.4219C191.008 32.4219 190.902 32.3516 190.855 32.2109C190.832 32.0938 190.82 31.8945 190.82 31.6133C190.867 31.0039 190.891 30.2422 190.891 29.3281C190.258 29.375 189.766 29.4219 189.414 29.4688C188.875 29.5859 188.371 29.6562 187.902 29.6797C187.879 30.6406 187.926 31.4961 188.043 32.2461C188.113 32.7383 188.254 33.0781 188.465 33.2656C188.605 33.3828 188.77 33.4531 188.957 33.4766C189.168 33.5 189.379 33.5117 189.59 33.5117C189.801 33.5117 189.941 33.5117 190.012 33.5117C190.738 33.5117 191.418 33.4766 192.051 33.4062C192.238 33.3828 192.402 33.3359 192.543 33.2656C192.707 33.1953 192.824 33.1602 192.895 33.1602C193.105 33.1602 193.316 33.2305 193.527 33.3711C193.738 33.5117 193.844 33.6758 193.844 33.8633C193.844 34.0508 193.738 34.1914 193.527 34.2852C193.34 34.3789 193.035 34.4609 192.613 34.5312C191.863 34.625 191.113 34.6719 190.363 34.6719ZM200.383 18.6758C200.664 18.6758 200.805 18.8047 200.805 19.0625C200.805 19.2031 200.676 19.4023 200.418 19.6602C199.715 20.5273 198.32 22.1797 196.234 24.6172C196.07 24.8281 195.918 24.9336 195.777 24.9336C195.66 24.9336 195.402 24.7578 195.004 24.4062C194.676 24.125 194.512 23.8906 194.512 23.7031C194.512 23.4922 194.688 23.293 195.039 23.1055C195.578 22.8008 196.387 22.1914 197.465 21.2773C198.543 20.3164 199.34 19.5547 199.855 18.9922C200.066 18.7812 200.242 18.6758 200.383 18.6758ZM155.699 30.1719C157.785 29.5156 159.648 28.8008 161.289 28.0273C160.938 27.5352 160.492 26.9727 159.953 26.3398C159.766 26.1055 159.672 25.918 159.672 25.7773C159.672 25.5195 159.824 25.2969 160.129 25.1094C160.434 24.8984 160.668 24.793 160.832 24.793C161.02 24.793 161.219 24.9102 161.43 25.1445C162.766 26.7148 163.902 28.0977 164.84 29.293C165.777 30.4883 166.246 31.2148 166.246 31.4727C166.246 31.6836 166.082 31.9297 165.754 32.2109C165.449 32.5156 165.156 32.668 164.875 32.668C164.641 32.668 164.406 32.4805 164.172 32.1055C163.633 31.2852 163.023 30.3945 162.344 29.4336L158.125 31.543C157.656 31.7539 156.918 32.1289 155.91 32.668C155.066 33.1133 154.551 33.3359 154.363 33.3359C154.223 33.3359 154.047 33.2422 153.836 33.0547C153.625 32.8906 153.461 32.6797 153.344 32.4219C153.25 32.1875 153.25 32 153.344 31.8594C153.484 31.6016 153.555 30.5703 153.555 28.7656V16.6016C153.555 16.0391 153.531 15.582 153.484 15.2305C153.461 14.8789 153.367 14.5039 153.203 14.1055C153.18 14.0352 153.156 13.9766 153.133 13.9297C153.109 13.8828 153.098 13.8359 153.098 13.7891C153.098 13.6719 153.18 13.6133 153.344 13.6133C153.648 13.6133 154.41 13.8711 155.629 14.3867L163.258 13.8594C163.445 13.8359 163.656 13.8242 163.891 13.8242C164.148 13.8242 164.453 13.9414 164.805 14.1758C165.156 14.3867 165.332 14.6211 165.332 14.8789C165.332 14.9727 165.273 15.1133 165.156 15.3008C165.062 15.4883 165.016 15.6289 165.016 15.7227L164.102 22.332C164.664 22.9883 164.945 23.4336 164.945 23.668C164.945 23.7852 164.875 23.8672 164.734 23.9141C164.617 23.9609 164.43 23.9844 164.172 23.9844L155.664 24.3008L155.699 30.1719ZM149.934 14.3867C149.934 14.1523 150.086 13.8711 150.391 13.543C152.102 11.6445 153.59 9.75781 154.855 7.88281C156.121 6.00781 156.754 4.75391 156.754 4.12109L156.719 3.875V3.76953C156.719 3.44141 156.848 3.27734 157.105 3.27734C157.41 3.27734 157.832 3.48828 158.371 3.91016C158.934 4.30859 159.215 4.63672 159.215 4.89453C159.215 5.01172 159.156 5.16406 159.039 5.35156C158.688 5.91406 158.301 6.47656 157.879 7.03906L162.871 6.65234C163.293 6.62891 163.738 6.53516 164.207 6.37109C164.348 6.32422 164.453 6.30078 164.523 6.30078C164.875 6.30078 165.25 6.5 165.648 6.89844C166.07 7.27344 166.281 7.56641 166.281 7.77734C166.281 8.05859 166.023 8.22266 165.508 8.26953L159.496 8.69141C159.66 8.73828 160.023 8.98438 160.586 9.42969C161.172 9.875 161.699 10.332 162.168 10.8008C162.637 11.2695 162.871 11.5977 162.871 11.7852C162.871 11.9961 162.73 12.2539 162.449 12.5586C162.168 12.8398 161.922 12.9805 161.711 12.9805C161.523 12.9805 161.301 12.8281 161.043 12.5234C160.246 11.6563 159.438 10.8945 158.617 10.2383C158.336 10.0039 158.195 9.80469 158.195 9.64062C158.195 9.52344 158.254 9.37109 158.371 9.18359C158.488 8.99609 158.641 8.84375 158.828 8.72656L156.473 8.90234C155.348 10.2852 154.105 11.5859 152.746 12.8047C151.387 14 150.52 14.5977 150.145 14.5977C150.004 14.5977 149.934 14.5273 149.934 14.3867ZM162.59 18.043L162.836 15.582L155.594 16.0742V18.3945L162.59 18.043ZM162.133 22.4023L162.414 19.6953L155.629 20.0117V22.6484L162.133 22.4023ZM164.031 12.875C164.031 12.6406 164.184 12.3594 164.488 12.0312C165.637 10.6484 166.68 9.08984 167.617 7.35547C168.578 5.59766 169.059 4.36719 169.059 3.66406V3.52344C169.059 3.17188 169.188 2.99609 169.445 2.99609C169.609 2.99609 169.855 3.08984 170.184 3.27734C170.535 3.44141 170.852 3.64063 171.133 3.875C171.414 4.10937 171.555 4.34375 171.555 4.57812C171.555 4.78906 171.391 5.16406 171.062 5.70312C170.734 6.24219 170.559 6.52344 170.535 6.54688L177.461 5.98438C177.977 5.9375 178.422 5.85547 178.797 5.73828C178.844 5.71484 178.938 5.70312 179.078 5.70312C179.406 5.70312 179.758 5.89063 180.133 6.26562C180.531 6.61719 180.73 6.91016 180.73 7.14453C180.73 7.28516 180.66 7.40234 180.52 7.49609C180.402 7.56641 180.238 7.61328 180.027 7.63672L172.891 8.12891C173.547 8.55078 174.32 9.17187 175.211 9.99219C176.102 10.7891 176.547 11.3281 176.547 11.6094C176.547 11.7734 176.418 12.0312 176.16 12.3828C175.902 12.7109 175.656 12.875 175.422 12.875C175.234 12.875 175.035 12.7578 174.824 12.5234C173.676 11.2812 172.633 10.2969 171.695 9.57031C171.461 9.38281 171.344 9.20703 171.344 9.04297C171.344 8.85547 171.52 8.57422 171.871 8.19922L169.27 8.375C168.496 9.40625 167.559 10.4492 166.457 11.5039C165.379 12.5586 164.652 13.0859 164.277 13.0859C164.113 13.0859 164.031 13.0156 164.031 12.875ZM167.336 13.6484C167.336 13.5078 167.418 13.4375 167.582 13.4375C167.934 13.4375 168.73 13.7305 169.973 14.3164L177.039 13.7188L177.32 13.6836C177.414 13.6836 177.59 13.7305 177.848 13.8242C178.129 13.8945 178.387 14.0234 178.621 14.2109C178.879 14.375 179.008 14.5977 179.008 14.8789C179.008 14.9727 178.973 15.1016 178.902 15.2656C178.832 15.4297 178.797 15.5469 178.797 15.6172C178.773 18.1953 178.609 20.9492 178.305 23.8789L178.234 24.7578C178.164 25.7422 178.07 26.5625 177.953 27.2188C177.836 27.875 177.637 28.3906 177.355 28.7656C176.91 29.375 176.43 29.6797 175.914 29.6797C175.398 29.6797 174.742 29.3633 173.945 28.7305C173.148 28.0977 172.41 27.4062 171.73 26.6562C171.074 25.9062 170.746 25.4258 170.746 25.2148C170.746 25.0508 170.84 24.9688 171.027 24.9688C171.238 24.9688 171.531 25.0859 171.906 25.3203C172.773 25.8594 173.5 26.293 174.086 26.6211C174.672 26.9492 175.094 27.1133 175.352 27.1133C175.469 27.1133 175.551 27.0312 175.598 26.8672C176.137 23.8672 176.465 20.1055 176.582 15.582L169.973 16.0742C169.973 20.0352 170.008 26.3164 170.078 34.918C170.078 35.1289 170.02 35.2812 169.902 35.375C169.809 35.4922 169.68 35.5508 169.516 35.5508C169.328 35.5508 169.105 35.4805 168.848 35.3398C168.402 35.1523 168.086 34.9766 167.898 34.8125C167.711 34.6484 167.617 34.4609 167.617 34.25L167.652 34.0039C167.793 33.2305 167.863 32.3633 167.863 31.4023L167.758 16.5664C167.758 15.957 167.734 15.4883 167.688 15.1602C167.664 14.832 167.594 14.5156 167.477 14.2109C167.383 13.9297 167.336 13.7422 167.336 13.6484ZM239.652 14.1758C239.395 14.1758 239.078 13.9766 238.703 13.5781C238.422 13.2969 238.281 13.0859 238.281 12.9453C238.281 12.875 238.328 12.8398 238.422 12.8398C238.516 12.8164 238.633 12.8047 238.773 12.8047L239.547 12.7695C239.992 12.7695 240.285 12.7578 240.426 12.7344C240.871 12.7344 241.246 12.7227 241.551 12.6992C243.566 12.5117 244.926 12.3594 245.629 12.2422C245.98 12.1953 246.297 12.1484 246.578 12.1016C246.859 12.0312 247.082 11.9961 247.246 11.9961C247.574 11.9961 247.902 12.1602 248.23 12.4883C248.488 12.7461 248.617 12.957 248.617 13.1211C248.617 13.2617 248.535 13.3555 248.371 13.4023C248.254 13.4258 247.562 13.4727 246.297 13.543C245.594 13.5664 244.727 13.625 243.695 13.7188C242.664 13.8125 241.762 13.9063 240.988 14C240.848 14.0234 240.648 14.0586 240.391 14.1055C240.133 14.1523 239.887 14.1758 239.652 14.1758ZM247.914 30.1367C247.891 30.1602 247.832 30.1719 247.738 30.1719C247.551 30.1719 247.281 30.043 246.93 29.7852C246.133 28.9883 245.09 28.0039 243.801 26.832C243.191 27.4414 242.617 27.9688 242.078 28.4141C241.891 28.5547 241.562 28.7656 241.094 29.0469C240.414 29.4453 239.758 29.6914 239.125 29.7852H238.914C238.703 29.7852 238.574 29.7617 238.527 29.7148C238.504 29.6914 238.551 29.6445 238.668 29.5742C238.809 29.5039 238.914 29.4453 238.984 29.3984C239.125 29.3281 239.523 29.0703 240.18 28.625C240.508 28.3906 240.977 27.9922 241.586 27.4297C242.195 26.8672 242.641 26.4102 242.922 26.0586L241.48 24.9336C241.223 24.7461 240.941 24.5469 240.637 24.3359C240.355 24.1016 240.156 23.9492 240.039 23.8789L240.004 23.7734C240.004 23.6328 240.121 23.5625 240.355 23.5625C240.637 23.5625 241.094 23.7383 241.727 24.0898L243.52 25.25C243.918 24.7344 244.316 24.1719 244.715 23.5625C245.137 22.9297 245.359 22.5547 245.383 22.4375C245.406 22.3672 245.395 22.3086 245.348 22.2617C245.324 22.1914 245.277 22.1562 245.207 22.1562H244.504L243.238 22.2617C242.605 22.3086 241.973 22.3906 241.34 22.5078C241.27 22.5312 241.152 22.5664 240.988 22.6133C240.824 22.6602 240.684 22.6836 240.566 22.6836C240.52 22.6836 240.32 22.5547 239.969 22.2969C239.641 22.0156 239.465 21.8398 239.441 21.7695C239.418 21.7461 239.406 21.7109 239.406 21.6641C239.406 21.5469 239.535 21.5 239.793 21.5234C240.051 21.5234 240.215 21.5234 240.285 21.5234C240.941 21.5234 241.891 21.4648 243.133 21.3477L244.328 21.2422L245.418 21.1016C245.77 21.0078 245.969 20.9609 246.016 20.9609H246.086C246.203 20.9609 246.309 20.9961 246.402 21.0664C246.496 21.1367 246.566 21.207 246.613 21.2773C246.66 21.3477 246.695 21.3945 246.719 21.418C246.742 21.4414 246.812 21.5117 246.93 21.6289C247.047 21.7227 247.117 21.8164 247.141 21.9102C247.188 21.9805 247.211 22.0625 247.211 22.1562C247.211 22.3672 247.129 22.5195 246.965 22.6133C246.848 22.6602 246.637 22.9062 246.332 23.3516C245.816 24.1719 245.195 25.0508 244.469 25.9883C244.867 26.2461 245.383 26.6211 246.016 27.1133C246.297 27.3008 246.754 27.6172 247.387 28.0625C247.668 28.2734 247.879 28.5547 248.02 28.9062C248.113 29.2812 248.16 29.5625 248.16 29.75C248.137 29.9375 248.055 30.0664 247.914 30.1367ZM254.383 14.8086C254.664 14.8086 254.805 14.9375 254.805 15.1953C254.805 15.3359 254.676 15.5352 254.418 15.793C253.715 16.6602 252.32 18.3125 250.234 20.75C250.07 20.9609 249.918 21.0664 249.777 21.0664C249.66 21.0664 249.402 20.8906 249.004 20.5391C248.676 20.2578 248.512 20.0234 248.512 19.8359C248.512 19.625 248.688 19.4258 249.039 19.2383C249.578 18.9336 250.387 18.3242 251.465 17.4102C252.543 16.4492 253.34 15.6875 253.855 15.125C254.066 14.9141 254.242 14.8086 254.383 14.8086ZM233.852 35.0234C231.156 35.0234 227.898 34.707 224.078 34.0742C220.281 33.4414 216.215 32.668 211.879 31.7539C210.52 31.4727 209.43 31.332 208.609 31.332C207.461 31.332 206.254 31.543 204.988 31.9648C204.777 32.0352 204.59 32.0703 204.426 32.0703C203.84 32.0703 203.547 31.5664 203.547 30.5586C203.547 30.3711 203.605 30.2305 203.723 30.1367C203.84 30.0195 204.074 29.9258 204.426 29.8555C204.777 29.7617 205.34 29.6562 206.113 29.5391C207.707 28.0859 209.066 26.6562 210.191 25.25C210.238 25.1562 210.262 25.0977 210.262 25.0742C210.262 24.9336 210.004 24.6641 209.488 24.2656C208.996 23.8438 208.398 23.3984 207.695 22.9297C207.086 22.5312 206.781 22.0742 206.781 21.5586C206.781 21.1602 206.98 20.6562 207.379 20.0469L209.629 16.7773L206.395 17.1992L205.656 17.2695C205.164 17.2695 204.754 17.082 204.426 16.707C204.098 16.332 203.887 15.957 203.793 15.582C203.77 15.5352 203.758 15.4648 203.758 15.3711C203.758 15.207 203.828 15.125 203.969 15.125L204.18 15.1602C204.531 15.2305 204.883 15.2656 205.234 15.2656C205.469 15.2656 205.645 15.2539 205.762 15.2305L211 14.668L211.352 14.6328C211.422 14.6328 211.574 14.6914 211.809 14.8086C212.043 14.9023 212.254 15.043 212.441 15.2305C212.629 15.3945 212.723 15.582 212.723 15.793C212.723 16.0039 212.629 16.2031 212.441 16.3906C212.254 16.5547 212.137 16.6719 212.09 16.7422C212.043 16.8125 211.492 17.5391 210.438 18.9219C209.383 20.2812 208.855 21.0547 208.855 21.2422C208.855 21.3359 208.914 21.418 209.031 21.4883C209.805 21.9805 210.707 22.707 211.738 23.668C212.184 24.0664 212.406 24.5352 212.406 25.0742C212.406 25.5664 212.195 26.0469 211.773 26.5156C210.391 27.9922 209.465 28.9531 208.996 29.3984C209.887 29.4219 210.953 29.5508 212.195 29.7852C222.227 31.7773 229.785 32.7734 234.871 32.7734H235.047C235.586 32.7734 235.855 32.8789 235.855 33.0898C235.855 33.1602 235.773 33.3594 235.609 33.6875C235.469 34.0156 235.27 34.3203 235.012 34.6016C234.754 34.8828 234.449 35.0234 234.098 35.0234H233.852ZM205.691 6.54688C205.691 6.35937 205.844 6.14844 206.148 5.91406C206.453 5.67969 206.699 5.5625 206.887 5.5625C207.121 5.5625 207.672 5.97266 208.539 6.79297C209.43 7.61328 210.262 8.49219 211.035 9.42969C211.832 10.3438 212.23 10.918 212.23 11.1523C212.23 11.3867 212.066 11.668 211.738 11.9961C211.434 12.3242 211.129 12.4883 210.824 12.4883C210.543 12.4883 210.262 12.2656 209.98 11.8203C208.855 10.2031 207.566 8.67969 206.113 7.25C205.832 6.96875 205.691 6.73438 205.691 6.54688ZM211.844 28.6602C211.844 28.3789 211.996 28.0156 212.301 27.5703C213.613 25.4375 214.574 23.1289 215.184 20.6445C215.816 18.1367 216.203 15.2422 216.344 11.9609L215.113 12.0664C214.926 12.0898 214.691 12.1016 214.41 12.1016C214.012 12.1016 213.707 12.0195 213.496 11.8555C213.168 11.5039 212.934 11.0586 212.793 10.5195C212.77 10.4727 212.758 10.4141 212.758 10.3438C212.758 10.25 212.816 10.2031 212.934 10.2031H213.004C213.191 10.2031 213.449 10.2266 213.777 10.2734C214.105 10.3203 214.363 10.3438 214.551 10.3438H214.867L219.965 9.99219C220.387 9.96875 220.867 9.85156 221.406 9.64062C221.477 9.59375 221.594 9.57031 221.758 9.57031C222.062 9.57031 222.426 9.74609 222.848 10.0977C223.293 10.4492 223.516 10.7305 223.516 10.9414C223.516 11.0586 223.445 11.1641 223.305 11.2578C223.164 11.3516 222.977 11.4102 222.742 11.4336L218.383 11.8203C218.289 13.1328 218.195 14.1055 218.102 14.7383L220.773 14.5977H221.055C221.43 14.5977 221.734 14.6797 221.969 14.8438C222.367 15.1953 222.566 15.5117 222.566 15.793C222.566 15.8867 222.543 16.0156 222.496 16.1797C222.449 16.3438 222.414 16.5078 222.391 16.6719C222.25 20.3281 221.922 23.6914 221.406 26.7617C221.195 27.957 220.844 28.7656 220.352 29.1875C219.859 29.6094 219.449 29.8203 219.121 29.8203C218.441 29.8203 217.469 28.8008 216.203 26.7617C215.992 26.4336 215.887 26.1875 215.887 26.0234C215.887 25.8594 215.969 25.7773 216.133 25.7773C216.297 25.7773 216.543 25.9062 216.871 26.1641C217.574 26.7266 218.184 27.125 218.699 27.3594C218.723 27.3828 218.77 27.3945 218.84 27.3945C218.98 27.3945 219.074 27.3359 219.121 27.2188C219.543 25.6016 219.836 23.9375 220 22.2266C220.188 20.5156 220.328 18.5703 220.422 16.3906L217.891 16.4961C217.562 19.0039 217.023 21.1953 216.273 23.0703C215.547 24.9219 214.48 26.6445 213.074 28.2383C212.629 28.707 212.301 28.9414 212.09 28.9414C211.926 28.9414 211.844 28.8477 211.844 28.6602ZM215.395 5.17578C215.395 4.96484 215.5 4.74219 215.711 4.50781C215.945 4.25 216.168 4.12109 216.379 4.12109C216.566 4.12109 217.059 4.39062 217.855 4.92969C218.676 5.44531 219.438 5.99609 220.141 6.58203C220.844 7.16797 221.195 7.57813 221.195 7.8125C221.195 8 221.066 8.26953 220.809 8.62109C220.551 8.94922 220.293 9.11328 220.035 9.11328C219.918 9.11328 219.789 9.06641 219.648 8.97266C219.531 8.85547 219.426 8.76172 219.332 8.69141C219.262 8.59766 219.203 8.52734 219.156 8.48047C218.734 8.03516 218.301 7.63672 217.855 7.28516C217.434 6.93359 217.023 6.62891 216.625 6.37109C216.25 6.08984 215.992 5.90234 215.852 5.80859C215.547 5.57422 215.395 5.36328 215.395 5.17578ZM222.707 14.3164C222.707 14.1523 222.801 13.8594 222.988 13.4375C223.621 12.2422 224.16 11 224.605 9.71094C225.074 8.39844 225.426 7.25 225.66 6.26562C225.918 5.25781 226.047 4.66016 226.047 4.47266C226.047 4.21484 226 3.98047 225.906 3.76953C225.883 3.72266 225.871 3.65234 225.871 3.55859C225.871 3.37109 225.977 3.27734 226.188 3.27734C226.352 3.27734 226.609 3.33594 226.961 3.45312C227.312 3.57031 227.617 3.73438 227.875 3.94531C228.156 4.15625 228.297 4.39062 228.297 4.64844C228.297 4.74219 228.285 4.8125 228.262 4.85938C227.957 5.89063 227.547 7.03906 227.031 8.30469L231.109 7.88281C231.18 7.88281 231.344 7.87109 231.602 7.84766C231.859 7.82422 232.152 7.75391 232.48 7.63672C232.621 7.58984 232.715 7.56641 232.762 7.56641C233.043 7.56641 233.383 7.74219 233.781 8.09375C234.18 8.44531 234.379 8.72656 234.379 8.9375C234.379 9.24219 234.168 9.41797 233.746 9.46484L226.258 10.0273C225.93 10.6602 225.496 11.4219 224.957 12.3125C224.934 12.3359 224.945 12.3477 224.992 12.3477C225.039 12.3242 225.086 12.3125 225.133 12.3125H225.238C225.52 12.4062 225.836 12.4531 226.188 12.4531L226.715 12.418L231.391 12.0312H231.602C231.812 12.0312 232.105 12.1133 232.48 12.2773C232.879 12.4414 233.078 12.6641 233.078 12.9453C233.078 13.1797 232.973 13.4023 232.762 13.6133C232.574 13.8008 232.469 13.918 232.445 13.9648C231.578 15.2773 230.547 16.5078 229.352 17.6562C229.656 18.3594 229.891 19.1094 230.055 19.9062L231.707 19.8008C232.27 19.7773 232.785 19.6953 233.254 19.5547C233.395 19.5078 233.477 19.4844 233.5 19.4844C233.734 19.4844 234.051 19.6484 234.449 19.9766C234.848 20.2812 235.047 20.5742 235.047 20.8555C235.047 21.1602 234.812 21.3359 234.344 21.3828L230.336 21.6289C230.547 22.918 230.652 24.3008 230.652 25.7773C230.652 27.6758 230.453 29.0469 230.055 29.8906C229.68 30.7344 229.176 31.1562 228.543 31.1562C228.121 31.1562 227.594 30.8984 226.961 30.3828C226.328 29.8438 225.766 29.2461 225.273 28.5898C224.781 27.9336 224.535 27.4766 224.535 27.2188C224.535 27.0781 224.605 27.0078 224.746 27.0078C224.957 27.0078 225.273 27.1484 225.695 27.4297C226.961 28.2734 227.723 28.6953 227.98 28.6953C228.191 28.6953 228.309 28.5898 228.332 28.3789C228.566 27.207 228.684 25.9648 228.684 24.6523C228.684 23.6211 228.613 22.6484 228.473 21.7344L225.73 21.9102L225.133 21.9453C224.477 21.9453 223.996 21.7812 223.691 21.4531C223.41 21.1016 223.223 20.7266 223.129 20.3281L223.094 20.1875C223.094 20.0703 223.164 20.0117 223.305 20.0117L223.48 20.0469C223.996 20.1641 224.477 20.2227 224.922 20.2227H225.238L228.086 20.0117C227.805 18.9805 227.383 17.9727 226.82 16.9883C226.75 16.8477 226.715 16.7305 226.715 16.6367C226.715 16.4492 226.867 16.2617 227.172 16.0742C227.5 15.8633 227.77 15.7578 227.98 15.7578C228.215 15.7578 228.414 15.8984 228.578 16.1797C229.305 15.3594 229.902 14.5391 230.371 13.7188L227.277 14.0703L226.434 14.1406C226.082 14.1406 225.777 14.0469 225.52 13.8594C225.285 13.6719 225.074 13.2617 224.887 12.6289C224.863 12.582 224.852 12.5117 224.852 12.418C224.5 13.0039 224.137 13.5195 223.762 13.9648C223.387 14.3867 223.105 14.5977 222.918 14.5977C222.777 14.5977 222.707 14.5039 222.707 14.3164ZM297.414 18.1484C297.273 18.1484 297.086 17.9961 296.852 17.6914C296.617 17.3633 296.512 17.082 296.535 16.8477C296.582 16.6602 296.617 16.1328 296.641 15.2656C296.664 14.6797 296.676 13.6484 296.676 12.1719C296.676 11.1406 296.664 10.4492 296.641 10.0977L295.48 10.2031C294.66 10.3203 293.957 10.3789 293.371 10.3789C293.207 10.3789 292.973 10.25 292.668 9.99219C292.363 9.73437 292.211 9.54688 292.211 9.42969C292.211 9.24219 292.41 9.17187 292.809 9.21875C293.066 9.24219 293.828 9.23047 295.094 9.18359C296.828 9.06641 298.082 8.99609 298.855 8.97266C299.254 8.94922 299.617 8.91406 299.945 8.86719C300.297 8.79688 300.543 8.75 300.684 8.72656C300.895 8.70313 301.082 8.72656 301.246 8.79688C301.41 8.86719 301.562 8.96094 301.703 9.07812C301.867 9.17187 301.996 9.24219 302.09 9.28906C302.301 9.42969 302.406 9.55859 302.406 9.67578C302.406 9.76953 302.348 9.86328 302.23 9.95703C302.137 10.0273 302.031 10.0625 301.914 10.0625C301.797 10.0625 301.633 10.0508 301.422 10.0273C301.234 10.0039 301.023 9.99219 300.789 9.99219C299.922 9.99219 299.031 10.0156 298.117 10.0625C298.094 10.25 298.082 10.7187 298.082 11.4688C298.035 12.7344 298.012 13.9766 298.012 15.1953V16.5664V16.8828C298.012 17.2812 297.977 17.5391 297.906 17.6562C297.695 17.9844 297.531 18.1484 297.414 18.1484ZM293.652 26.4805C293.395 26.4805 293.078 26.2812 292.703 25.8828C292.422 25.6016 292.281 25.3906 292.281 25.25C292.281 25.1797 292.328 25.1445 292.422 25.1445C292.516 25.1211 292.633 25.1094 292.773 25.1094L293.547 25.0742C293.992 25.0742 294.285 25.0625 294.426 25.0391C294.871 25.0391 295.246 25.0273 295.551 25.0039C297.566 24.8164 298.926 24.6641 299.629 24.5469C299.98 24.5 300.297 24.4531 300.578 24.4062C300.859 24.3359 301.082 24.3008 301.246 24.3008C301.574 24.3008 301.902 24.4648 302.23 24.793C302.488 25.0508 302.617 25.2617 302.617 25.4258C302.617 25.5664 302.535 25.6602 302.371 25.707C302.254 25.7305 301.562 25.7773 300.297 25.8477C299.594 25.8711 298.727 25.9297 297.695 26.0234C296.664 26.1172 295.762 26.2109 294.988 26.3047C294.848 26.3281 294.648 26.3633 294.391 26.4102C294.133 26.457 293.887 26.4805 293.652 26.4805ZM303.883 17.6211C304 17.6211 304.176 17.7031 304.41 17.8672C304.387 17.9141 304.434 18.0078 304.551 18.1484C304.668 18.2656 304.75 18.3477 304.797 18.3945C304.914 18.5117 305.031 18.6523 305.148 18.8164C305.289 18.9805 305.441 19.1562 305.605 19.3438C306.027 19.7891 307 20.9492 308.523 22.8242C308.781 23.1992 308.91 23.4219 308.91 23.4922C308.91 23.7266 308.77 23.8438 308.488 23.8438C308.324 23.8438 308.148 23.7266 307.961 23.4922C307.516 23.0234 306.719 22.2852 305.57 21.2773C304.68 20.457 303.871 19.8242 303.145 19.3789C302.793 19.2148 302.617 19.0273 302.617 18.8164C302.617 18.6523 302.793 18.418 303.145 18.1133C303.473 17.7852 303.719 17.6211 303.883 17.6211ZM268.27 14.5977C268.27 14.9492 268.398 15.2188 268.656 15.4062C268.938 15.5938 269.477 15.6875 270.273 15.6875C271.188 15.6875 271.926 15.6172 272.488 15.4766C273.051 15.3359 273.426 15.1953 273.613 15.0547C273.684 15.0078 273.777 14.9844 273.895 14.9844C274.129 14.9844 274.387 15.1719 274.668 15.5469C274.949 15.8984 275.09 16.1797 275.09 16.3906C275.09 16.625 274.867 16.7773 274.422 16.8477C272.359 17.082 270.836 17.1992 269.852 17.1992C268.516 17.1992 267.602 17.0469 267.109 16.7422C266.617 16.4375 266.371 15.8633 266.371 15.0195V14.8086L266.406 14.2109L265.457 14.3164C265.246 14.3398 264.977 14.3516 264.648 14.3516C264.016 14.3516 263.582 14.1641 263.348 13.7891C263.113 13.4141 262.996 13.1211 262.996 12.9102C262.996 12.8164 263.055 12.7695 263.172 12.7695L263.348 12.8047C263.676 12.875 264.016 12.9102 264.367 12.9102C264.672 12.9102 264.906 12.8984 265.07 12.875L266.477 12.7344L266.582 10.9062L262.855 11.1172C262.832 11.4922 262.82 12.0547 262.82 12.8047C262.797 13.2969 262.75 14.457 262.68 16.2852C262.633 18.1133 262.539 19.7188 262.398 21.1016C262.188 23.4453 261.754 25.6133 261.098 27.6055C260.441 29.5742 259.75 31.1445 259.023 32.3164C258.32 33.5117 257.805 34.1094 257.477 34.1094C257.289 34.1094 257.195 33.9688 257.195 33.6875C257.195 33.3828 257.289 33.043 257.477 32.668C258.719 30.043 259.539 27.1367 259.938 23.9492C260.336 20.7383 260.57 16.9766 260.641 12.6641V11.7852C260.641 10.7539 260.523 9.92188 260.289 9.28906C260.195 9.00781 260.148 8.83203 260.148 8.76172C260.148 8.62109 260.219 8.55078 260.359 8.55078C260.688 8.55078 261.578 8.91406 263.031 9.64062L266.688 9.39453L266.758 5.35156C266.758 4.97656 266.711 4.66016 266.617 4.40234C266.547 4.12109 266.418 3.82812 266.23 3.52344L266.16 3.34766C266.16 3.23047 266.277 3.17188 266.512 3.17188C267.168 3.19531 267.719 3.3125 268.164 3.52344C268.609 3.71094 268.832 3.99219 268.832 4.36719L268.797 6.01953L270.977 5.87891C271.562 5.85547 272.09 5.73828 272.559 5.52734C272.746 5.45703 272.922 5.42188 273.086 5.42188C273.391 5.42188 273.754 5.58594 274.176 5.91406C274.621 6.24219 274.844 6.53516 274.844 6.79297C274.844 7.05078 274.527 7.20312 273.895 7.25L268.762 7.56641V9.25391L275.055 8.79688H275.406C275.781 8.79688 276.133 8.9375 276.461 9.21875C276.812 9.47656 276.988 9.72266 276.988 9.95703C276.988 10.1211 276.883 10.3086 276.672 10.5195C276.461 10.7305 276.32 10.8828 276.25 10.9766C274.984 12.8984 274.105 13.8594 273.613 13.8594C273.449 13.8594 273.367 13.7539 273.367 13.543C273.367 13.3555 273.461 13.0508 273.648 12.6289C273.859 12.1836 274.094 11.457 274.352 10.4492L268.516 10.8008L268.375 12.5234L269.605 12.418C270.309 12.3242 270.871 12.2188 271.293 12.1016C271.363 12.0781 271.457 12.0664 271.574 12.0664C271.645 12.0664 271.797 12.125 272.031 12.2422C272.266 12.3359 272.477 12.4766 272.664 12.6641C272.852 12.8281 272.945 13.0039 272.945 13.1914C272.945 13.3086 272.898 13.4141 272.805 13.5078C272.711 13.6016 272.582 13.6484 272.418 13.6484L268.27 14.0352V14.5977ZM260.57 32.0703C260.57 31.9062 260.664 31.8242 260.852 31.8242C260.945 31.8242 261.016 31.8359 261.062 31.8594C261.438 31.9531 261.836 32 262.258 32C262.562 32 263.336 31.9062 264.578 31.7188C265.844 31.5312 267.391 31.2617 269.219 30.9102C269.57 30.4883 269.957 29.9141 270.379 29.1875C270.824 28.4375 271.047 27.8047 271.047 27.2891V27.1133C271.047 26.8789 271.129 26.7617 271.293 26.7617C271.551 26.7617 271.914 26.9492 272.383 27.3242C272.875 27.6992 273.121 28.0273 273.121 28.3086C273.121 28.4258 272.922 28.7305 272.523 29.2227C272.148 29.6914 271.809 30.0781 271.504 30.3828C272.957 30.0547 274.352 29.6914 275.688 29.293C275.828 29.2461 276.004 29.2227 276.215 29.2227C276.379 29.2227 276.496 29.2578 276.566 29.3281C276.66 29.375 276.707 29.4453 276.707 29.5391C276.707 29.7969 276.426 30.043 275.863 30.2773C273.637 31.1211 271.539 31.8125 269.57 32.3516C267.602 32.9141 265.984 33.3242 264.719 33.582C263.453 33.8398 262.738 33.9688 262.574 33.9688C262.223 33.9688 261.895 33.8398 261.59 33.582C261.285 33.3477 261.039 33.0664 260.852 32.7383C260.664 32.4336 260.57 32.2109 260.57 32.0703ZM263.102 18.6406C263.102 18.5469 263.16 18.5 263.277 18.5H263.418C263.816 18.5938 264.273 18.6406 264.789 18.6406H265.281L271.785 18.3945C272.348 18.3711 272.922 18.2539 273.508 18.043C273.555 18.0195 273.637 18.0078 273.754 18.0078C274.035 18.0078 274.41 18.2422 274.879 18.7109C275.16 19.0156 275.301 19.2617 275.301 19.4492C275.301 19.6602 275.102 19.7891 274.703 19.8359L265.844 20.1875L265.07 20.2227C264.555 20.2227 264.145 20.1172 263.84 19.9062C263.559 19.6953 263.324 19.332 263.137 18.8164C263.113 18.7695 263.102 18.7109 263.102 18.6406ZM263.594 21.4883C263.594 21.3477 263.699 21.2773 263.91 21.2773C264.145 21.2773 264.824 21.4531 265.949 21.8047L272.945 21.418L273.332 21.3828C273.566 21.3828 273.766 21.4531 273.93 21.5938C274.375 21.8984 274.598 22.168 274.598 22.4023C274.598 22.5195 274.551 22.6484 274.457 22.7891C274.387 22.9062 274.34 23 274.316 23.0703L273.719 24.9336C274.328 25.5195 274.633 25.918 274.633 26.1289C274.633 26.2461 274.562 26.3281 274.422 26.375C274.305 26.3984 274.164 26.4102 274 26.4102L266.441 26.7266V26.7969C266.441 26.9609 266.395 27.1016 266.301 27.2188C266.207 27.3125 266.078 27.3594 265.914 27.3594C265.609 27.3594 265.27 27.2539 264.895 27.043C264.543 26.832 264.367 26.5977 264.367 26.3398V26.2695C264.391 26.082 264.402 25.8125 264.402 25.4609C264.402 25.1797 264.391 24.9688 264.367 24.8281L264.156 23.3867C264.109 22.918 263.969 22.4375 263.734 21.9453C263.641 21.7109 263.594 21.5586 263.594 21.4883ZM265.316 28.4492C265.316 28.2383 265.434 28.0273 265.668 27.8164C265.902 27.6055 266.125 27.5 266.336 27.5C266.758 27.5 267.461 28.2266 268.445 29.6797C268.539 29.8672 268.586 29.9961 268.586 30.0664C268.586 30.3008 268.41 30.5469 268.059 30.8047C267.801 30.9922 267.566 31.0859 267.355 31.0859C267.145 31.0859 266.945 30.9219 266.758 30.5938C266.359 29.9375 265.938 29.3633 265.492 28.8711C265.375 28.707 265.316 28.5664 265.316 28.4492ZM266.266 25.1797L271.785 24.9688L272.277 23L266.055 23.2812L266.266 25.1797ZM274.809 33.3359C274.809 33.0781 275.031 32.7617 275.477 32.3867C277.844 30.3945 279.812 28.3203 281.383 26.1641C280.703 23.8672 280.129 21.2305 279.66 18.2539L279.449 16.25L278.008 16.4609C277.633 16.5078 277.363 16.5312 277.199 16.5312C276.801 16.5312 276.461 16.4258 276.18 16.2148C275.898 16.0039 275.688 15.7578 275.547 15.4766C275.406 15.1953 275.336 14.9961 275.336 14.8789C275.336 14.7617 275.406 14.7031 275.547 14.7031L275.688 14.7383C275.875 14.7852 276.145 14.8086 276.496 14.8086C276.777 14.8086 277 14.7969 277.164 14.7734L279.203 14.457C278.898 11.8555 278.664 8.91406 278.5 5.63281C278.453 4.92969 278.277 4.39062 277.973 4.01562C277.879 3.89844 277.832 3.79297 277.832 3.69922C277.832 3.55859 277.961 3.48828 278.219 3.48828C278.617 3.48828 279.098 3.60547 279.66 3.83984C280.246 4.07422 280.539 4.37891 280.539 4.75391C280.656 7.89453 280.891 11.0234 281.242 14.1406L285.039 13.5781C285.531 13.5078 285.93 13.3672 286.234 13.1562C286.281 13.1094 286.363 13.0859 286.48 13.0859C286.762 13.0859 287.148 13.2734 287.641 13.6484C288.133 14.0234 288.379 14.3164 288.379 14.5273C288.379 14.7852 288.109 14.9492 287.57 15.0195L281.453 15.9336L281.664 17.9727C282.016 20.3164 282.414 22.3203 282.859 23.9844C283.469 22.9531 284.055 21.7695 284.617 20.4336C285.18 19.0742 285.461 18.0781 285.461 17.4453C285.461 17.1875 285.555 17.0586 285.742 17.0586C286.047 17.0586 286.457 17.2695 286.973 17.6914C287.512 18.1133 287.781 18.4648 287.781 18.7461C287.781 18.8164 287.77 18.875 287.746 18.9219C287.723 18.9688 287.699 19.0156 287.676 19.0625C286.387 21.875 285.004 24.2891 283.527 26.3047C284.629 29.4688 285.906 31.5078 287.359 32.4219L287.535 32.4922C287.652 32.4922 287.852 32.0469 288.133 31.1562C288.438 30.2422 288.754 28.9766 289.082 27.3594C289.176 26.9141 289.281 26.5742 289.398 26.3398C289.539 26.1055 289.668 25.9883 289.785 25.9883C289.902 25.9883 289.996 26.1172 290.066 26.375C290.16 26.6094 290.207 26.9375 290.207 27.3594V27.5703C290.184 28.625 290.113 29.6211 289.996 30.5586C289.902 31.4727 289.703 32.5508 289.398 33.793C289.281 34.2852 289.117 34.625 288.906 34.8125C288.719 35 288.461 35.0938 288.133 35.0938C287.922 35.0938 287.676 35.0586 287.395 34.9883C286.668 34.8242 285.812 34.2148 284.828 33.1602C283.844 32.1289 282.918 30.4531 282.051 28.1328C281.113 29.1641 280.152 30.1016 279.168 30.9453C278.184 31.7656 277.316 32.4102 276.566 32.8789C275.84 33.3477 275.359 33.582 275.125 33.582C274.914 33.582 274.809 33.5 274.809 33.3359ZM281.84 7.39062C281.84 7.22656 281.957 7.02734 282.191 6.79297C282.426 6.55859 282.672 6.44141 282.93 6.44141C283.117 6.44141 283.281 6.53516 283.422 6.72266C284.078 7.40234 284.758 8.17578 285.461 9.04297C286.188 9.91016 286.551 10.4727 286.551 10.7305C286.551 10.918 286.398 11.1523 286.094 11.4336C285.789 11.7148 285.52 11.8555 285.285 11.8555C285.098 11.8555 284.922 11.75 284.758 11.5391C284.055 10.3672 283.141 9.13672 282.016 7.84766C281.898 7.68359 281.84 7.53125 281.84 7.39062Z" fill="#333333"/>
</svg>
