<svg width="350" height="88" viewBox="0 0 350 88" fill="none" xmlns="http://www.w3.org/2000/svg">
<path d="M131.934 8.19922C131.77 8.19922 131.852 8.05859 132.18 7.77734C132.508 7.49609 132.906 7.15625 133.375 6.75781C133.844 6.33594 134.371 5.78516 134.957 5.10547C135.332 4.66016 135.613 4.19141 135.801 3.69922C135.918 3.41797 136.047 3.27734 136.188 3.27734C136.305 3.27734 136.48 3.37109 136.715 3.55859C137.184 3.93359 137.418 4.25 137.418 4.50781C137.418 4.67187 137.324 4.78906 137.137 4.85938C137.043 4.88281 136.902 4.98828 136.715 5.17578C136.527 5.33984 136.387 5.46875 136.293 5.5625C135.285 6.54688 134.348 7.26172 133.48 7.70703C132.777 8.03516 132.309 8.19922 132.074 8.19922H131.934ZM135.625 14.7383C135.555 14.7383 135.438 14.6445 135.273 14.457C135.133 14.2461 135.027 14.0469 134.957 13.8594C134.934 13.7188 134.934 13.543 134.957 13.332C135.004 13.0977 135.027 12.9219 135.027 12.8047C135.074 12.3359 135.098 11.9609 135.098 11.6797C135.121 11.4219 135.121 11.1406 135.098 10.8359C135.098 10.5313 135.098 10.332 135.098 10.2383L135.062 9.71094C134.5 10.1094 134.066 10.3906 133.762 10.5547C133.082 10.9297 132.59 11.1641 132.285 11.2578C131.91 11.3984 131.57 11.4688 131.266 11.4688C131.102 11.4688 131.008 11.4453 130.984 11.3984C130.938 11.3047 131.406 10.9648 132.391 10.3789C133.328 9.79297 134.348 9.01953 135.449 8.05859C136.059 7.49609 136.527 6.95703 136.855 6.44141C136.902 6.37109 136.938 6.28906 136.961 6.19531C137.008 6.07812 137.055 6.00781 137.102 5.98438C137.172 5.96094 137.266 5.97266 137.383 6.01953C137.688 6.18359 137.945 6.41797 138.156 6.72266C138.25 6.83984 138.297 6.95703 138.297 7.07422C138.297 7.19141 138.238 7.30859 138.121 7.42578C138.004 7.51953 137.887 7.58984 137.77 7.63672C137.371 7.89453 137.008 8.17578 136.68 8.48047C136.352 8.78516 136.141 8.98438 136.047 9.07812C136.398 9.35938 136.574 9.55859 136.574 9.67578L136.469 10.4141C136.422 10.625 136.398 11.1523 136.398 11.9961C136.398 12.8164 136.422 13.3672 136.469 13.6484V13.7188C136.469 13.8359 136.434 13.9648 136.363 14.1055C136.316 14.2227 136.281 14.3047 136.258 14.3516C136.094 14.6094 135.883 14.7383 135.625 14.7383ZM139.211 23.668C138.859 23.668 138.52 23.4102 138.191 22.8945C137.77 22.2383 137.359 21.6992 136.961 21.2773L136.047 20.3281C135.555 20.8906 135.121 21.3359 134.746 21.6641C134.395 21.9922 133.949 22.3086 133.41 22.6133C132.402 23.1992 131.559 23.4922 130.879 23.4922C130.715 23.4922 130.633 23.4336 130.633 23.3164C130.633 23.2461 130.855 23.0938 131.301 22.8594C131.746 22.625 132.168 22.3438 132.566 22.0156C133.574 21.1719 134.406 20.3047 135.062 19.4141C134.922 19.2734 134.219 18.6641 132.953 17.5859C132.789 17.4688 132.543 17.2695 132.215 16.9883C132.145 16.9414 132.004 16.8359 131.793 16.6719C131.582 16.5078 131.477 16.3906 131.477 16.3203C131.477 16.2031 131.535 16.1445 131.652 16.1445C132.004 16.1445 132.566 16.3906 133.34 16.8828C134.113 17.3516 134.922 17.9141 135.766 18.5703C136.094 18.1719 136.352 17.7969 136.539 17.4453C136.727 17.0938 136.938 16.6602 137.172 16.1445C137.289 15.8867 137.359 15.6641 137.383 15.4766C137.406 15.2656 137.418 15.1367 137.418 15.0898C137.418 14.832 137.488 14.7031 137.629 14.7031C137.793 14.7031 138.016 14.832 138.297 15.0898C138.789 15.5586 139.035 15.875 139.035 16.0391C139.035 16.1328 138.977 16.2383 138.859 16.3555C138.578 16.6367 138.32 17.0117 138.086 17.4805C137.945 17.7617 137.688 18.1602 137.312 18.6758C137.195 18.8164 137.102 18.9453 137.031 19.0625C136.961 19.1797 136.891 19.2852 136.82 19.3789C137.359 19.7773 138.156 20.457 139.211 21.418C139.469 21.6523 139.633 21.875 139.703 22.0859C139.797 22.2734 139.844 22.5312 139.844 22.8594C139.844 23.0938 139.785 23.293 139.668 23.457C139.551 23.5977 139.398 23.668 139.211 23.668ZM131.441 34.1797C131.09 34.1797 130.82 34.0859 130.633 33.8984C130.422 33.6875 130.316 33.5 130.316 33.3359C130.316 33.1719 130.41 32.9961 130.598 32.8086C130.621 32.7852 130.75 32.5977 130.984 32.2461C131.5 31.4258 132.086 30.3828 132.742 29.1172C133.422 27.8281 133.844 26.9492 134.008 26.4805C134.148 26.0352 134.277 25.6484 134.395 25.3203C134.535 24.9922 134.652 24.8281 134.746 24.8281C134.91 24.8281 135.051 24.8867 135.168 25.0039C135.285 25.0977 135.402 25.2383 135.52 25.4258C135.66 25.5898 135.766 25.707 135.836 25.7773C136 25.9648 136.082 26.1406 136.082 26.3047C136.082 26.4219 136.035 26.5391 135.941 26.6562C135.848 26.7734 135.789 26.8555 135.766 26.9023L134.219 29.5039C133.82 30.2305 133.293 31.1328 132.637 32.2109C132.543 32.3281 132.496 32.4453 132.496 32.5625C132.496 32.6562 132.602 32.7031 132.812 32.7031C133.258 32.7031 134.09 32.6445 135.309 32.5273C136.527 32.4336 137.348 32.3516 137.77 32.2812C138.379 32.2109 138.801 32.1406 139.035 32.0703C139.293 32 139.668 32.1758 140.16 32.5977C140.746 33.0898 140.875 33.4062 140.547 33.5469C140.359 33.6406 139.996 33.6875 139.457 33.6875H138.051C137.746 33.6875 137.266 33.7109 136.609 33.7578C136.211 33.7578 135.766 33.7695 135.273 33.793C134.781 33.8164 134.371 33.8398 134.043 33.8633C133.668 33.8867 132.941 33.957 131.863 34.0742L131.441 34.1797ZM146.383 18.6758C146.664 18.6758 146.805 18.8047 146.805 19.0625C146.805 19.2031 146.676 19.4023 146.418 19.6602C145.715 20.5273 144.32 22.1797 142.234 24.6172C142.07 24.8281 141.918 24.9336 141.777 24.9336C141.66 24.9336 141.402 24.7578 141.004 24.4062C140.676 24.125 140.512 23.8906 140.512 23.7031C140.512 23.4922 140.688 23.293 141.039 23.1055C141.578 22.8008 142.387 22.1914 143.465 21.2773C144.543 20.3164 145.34 19.5547 145.855 18.9922C146.066 18.7812 146.242 18.6758 146.383 18.6758ZM98.1133 34.25C97.7383 34.25 97.4336 34.2148 97.1992 34.1445C96.9883 34.0977 96.8242 33.9922 96.707 33.8281C96.332 33.3359 96.0859 32.8789 95.9688 32.457C95.9453 32.4102 95.9336 32.3398 95.9336 32.2461C95.9336 32.082 96.0156 32 96.1797 32L96.3555 32.0352C96.8242 32.1758 97.4922 32.2461 98.3594 32.2461L110.242 31.9648V28.9414L103.176 29.2227H102.402C101.934 29.2227 101.605 29.1289 101.418 28.9414C100.785 28.3086 100.469 27.7812 100.469 27.3594C100.469 27.1953 100.551 27.1133 100.715 27.1133C100.809 27.1133 100.891 27.125 100.961 27.1484C101.43 27.2891 101.945 27.3594 102.508 27.3594H102.824L110.277 27.1133V24.582L104.793 24.793L104.828 25.2148V25.3203C104.828 25.7188 104.652 25.918 104.301 25.918C104.09 25.918 103.809 25.8477 103.457 25.707C103.059 25.5195 102.789 25.3672 102.648 25.25C102.531 25.1094 102.473 24.9219 102.473 24.6875L102.508 24.3711C102.555 23.9961 102.578 23.6562 102.578 23.3516C102.578 23.0938 102.566 22.8945 102.543 22.7539L101.945 16.9883C101.875 16.3086 101.723 15.7227 101.488 15.2305C101.348 14.8555 101.277 14.6328 101.277 14.5625C101.277 14.4219 101.395 14.3516 101.629 14.3516C102.004 14.3516 102.789 14.5508 103.984 14.9492L110.312 14.5977V12.1719L100.188 12.6992C100 12.6992 99.8125 12.7109 99.625 12.7344C99.4609 12.7578 99.2852 12.7695 99.0977 12.7695C98.6289 12.7695 98.3008 12.6758 98.1133 12.4883C97.5977 11.9727 97.2812 11.5859 97.1641 11.3281L97.0938 11.0469C97.0938 10.9062 97.1758 10.8359 97.3398 10.8359H97.4805C97.8789 10.9062 98.3711 10.9414 98.957 10.9414H99.3789L110.348 10.3438V8.26953C108.801 8.45703 106.891 8.59766 104.617 8.69141C103.492 8.73828 102.648 8.78516 102.086 8.83203H101.734C101.359 8.83203 101.066 8.79688 100.855 8.72656C100.668 8.63281 100.574 8.52734 100.574 8.41016C100.574 8.26953 100.691 8.14063 100.926 8.02344C101.16 7.88281 101.5 7.77734 101.945 7.70703C108.555 6.86328 113.781 5.86719 117.625 4.71875C118.234 4.53125 118.715 4.26172 119.066 3.91016C119.207 3.76953 119.324 3.69922 119.418 3.69922C119.723 3.69922 120.098 3.99219 120.543 4.57812C121.012 5.14062 121.246 5.5625 121.246 5.84375C121.246 6.10156 121.082 6.26562 120.754 6.33594C118.035 6.96875 115.281 7.50781 112.492 7.95312V10.2383L122.512 9.67578C123.027 9.62891 123.52 9.53516 123.988 9.39453L124.164 9.35938C124.258 9.35938 124.457 9.45312 124.762 9.64062C125.066 9.80469 125.336 10.0156 125.57 10.2734C125.805 10.5078 125.922 10.7187 125.922 10.9062C125.922 11.1406 125.664 11.2812 125.148 11.3281L112.457 12.0312V14.4922L119.699 14.1055H119.945C120.461 14.1055 120.859 14.2695 121.141 14.5977C121.422 14.9023 121.562 15.1719 121.562 15.4062C121.562 15.5 121.527 15.6172 121.457 15.7578C121.41 15.8984 121.375 16.0273 121.352 16.1445L120.508 22.543C121.047 23.1758 121.316 23.6211 121.316 23.8789C121.316 23.9961 121.258 24.0781 121.141 24.125C121.047 24.1484 120.918 24.1719 120.754 24.1953C120.59 24.1953 120.473 24.1953 120.402 24.1953L112.387 24.5117V27.043L119.031 26.7969C119.453 26.7266 119.852 26.6445 120.227 26.5508C120.414 26.5039 120.543 26.4805 120.613 26.4805C120.848 26.4805 121.199 26.6797 121.668 27.0781C122.16 27.4531 122.406 27.7812 122.406 28.0625C122.406 28.3203 122.078 28.4727 121.422 28.5195L112.387 28.8711L112.352 31.9297L123.566 31.6484C124.152 31.6484 124.727 31.5664 125.289 31.4023L125.711 31.332C126.016 31.332 126.379 31.5664 126.801 32.0352C127.223 32.5273 127.434 32.8906 127.434 33.125C127.434 33.3594 127.199 33.5 126.73 33.5469L98.8516 34.2148L98.1133 34.25ZM104.23 18.957L110.312 18.6758V16.2852L104.02 16.6016L104.23 18.957ZM104.617 23.1406L110.277 22.8945V20.3281L104.406 20.5742L104.617 23.1406ZM118.504 22.5781L118.715 19.9414L112.422 20.2227V22.8242L118.504 22.5781ZM118.855 18.2539L119.066 15.8633L112.457 16.1797L112.422 18.5703L118.855 18.2539ZM185.652 14.1758C185.395 14.1758 185.078 13.9766 184.703 13.5781C184.422 13.2969 184.281 13.0859 184.281 12.9453C184.281 12.875 184.328 12.8398 184.422 12.8398C184.516 12.8164 184.633 12.8047 184.773 12.8047L185.547 12.7695C185.992 12.7695 186.285 12.7578 186.426 12.7344C186.871 12.7344 187.246 12.7227 187.551 12.6992C189.566 12.5117 190.926 12.3594 191.629 12.2422C191.98 12.1953 192.297 12.1484 192.578 12.1016C192.859 12.0312 193.082 11.9961 193.246 11.9961C193.574 11.9961 193.902 12.1602 194.23 12.4883C194.488 12.7461 194.617 12.957 194.617 13.1211C194.617 13.2617 194.535 13.3555 194.371 13.4023C194.254 13.4258 193.562 13.4727 192.297 13.543C191.594 13.5664 190.727 13.625 189.695 13.7188C188.664 13.8125 187.762 13.9063 186.988 14C186.848 14.0234 186.648 14.0586 186.391 14.1055C186.133 14.1523 185.887 14.1758 185.652 14.1758ZM193.633 29.5742C193.961 29.7852 194.125 29.9844 194.125 30.1719C194.125 30.4297 193.926 30.5938 193.527 30.6641C193.129 30.7344 192.566 30.7812 191.84 30.8047C190.785 30.8281 190.105 30.793 189.801 30.6992C189.285 30.4648 189.027 30.0781 189.027 29.5391L189.062 28.2383C189.109 27.8164 189.133 27.4414 189.133 27.1133C189.156 26.9023 189.168 26.4922 189.168 25.8828C188.816 26.6797 188.359 27.4531 187.797 28.2031C187.398 28.6953 187.047 29.1055 186.742 29.4336C186.438 29.7383 186.074 30.0312 185.652 30.3125C185.23 30.5938 184.844 30.7344 184.492 30.7344C184.281 30.7344 184.176 30.6641 184.176 30.5234C184.176 30.5 184.398 30.3242 184.844 29.9961C185.312 29.6445 185.781 29.1641 186.25 28.5547C186.953 27.6172 187.562 26.5156 188.078 25.25C187.164 25.3672 186.555 25.4727 186.25 25.5664C186.133 25.5898 186.027 25.625 185.934 25.6719C185.84 25.6953 185.723 25.6953 185.582 25.6719C185.465 25.625 185.301 25.5312 185.09 25.3906C184.879 25.2266 184.715 25.0742 184.598 24.9336C184.504 24.793 184.457 24.6992 184.457 24.6523C184.457 24.5352 184.633 24.4766 184.984 24.4766C185.852 24.4766 186.965 24.3828 188.324 24.1953C188.465 23.6562 188.535 22.7891 188.535 21.5938V20.9258C188.535 20.6445 188.594 20.4922 188.711 20.4688C188.734 20.4453 188.781 20.4336 188.852 20.4336C189.039 20.4336 189.297 20.5742 189.625 20.8555C189.883 21.0664 190.047 21.2305 190.117 21.3477C190.211 21.4414 190.223 21.5703 190.152 21.7344C190.129 21.7812 190.082 21.875 190.012 22.0156C189.941 22.1562 189.895 22.2969 189.871 22.4375C189.848 22.5547 189.801 22.7891 189.73 23.1406C189.66 23.4688 189.613 23.7617 189.59 24.0195C189.918 23.9961 190.328 23.9492 190.82 23.8789C191.312 23.8086 191.676 23.7383 191.91 23.668L192.613 23.4922C192.848 23.4453 193.234 23.6445 193.773 24.0898C193.867 24.1602 193.914 24.2422 193.914 24.3359C193.914 24.4297 193.867 24.5117 193.773 24.582C193.703 24.6289 193.609 24.6523 193.492 24.6523C193.07 24.6523 192.297 24.7227 191.172 24.8633L190.012 24.9688C190.27 25.1562 190.434 25.3203 190.504 25.4609C190.574 25.6016 190.586 25.7422 190.539 25.8828L190.434 26.4453C190.387 26.9141 190.34 27.4297 190.293 27.9922C190.27 28.5547 190.27 28.9883 190.293 29.293C190.293 29.4102 190.363 29.5156 190.504 29.6094C190.668 29.7031 190.832 29.75 190.996 29.75C191.582 29.75 192.238 29.6914 192.965 29.5742L193.281 29.5039C193.422 29.5039 193.539 29.5273 193.633 29.5742ZM200.383 14.8086C200.664 14.8086 200.805 14.9375 200.805 15.1953C200.805 15.3359 200.676 15.5352 200.418 15.793C199.715 16.6602 198.32 18.3125 196.234 20.75C196.07 20.9609 195.918 21.0664 195.777 21.0664C195.66 21.0664 195.402 20.8906 195.004 20.5391C194.676 20.2578 194.512 20.0234 194.512 19.8359C194.512 19.625 194.688 19.4258 195.039 19.2383C195.578 18.9336 196.387 18.3242 197.465 17.4102C198.543 16.4492 199.34 15.6875 199.855 15.125C200.066 14.9141 200.242 14.8086 200.383 14.8086ZM175.738 32.7031C175.809 32.7031 175.855 32.6914 175.879 32.668C175.926 32.668 175.949 32.6328 175.949 32.5625C176.863 30.2422 177.379 27.043 177.496 22.9648L175.738 23.0352C174.145 25.8008 172.422 28.0273 170.57 29.7148C168.742 31.3789 167.125 32.5625 165.719 33.2656C164.336 33.9688 163.445 34.3203 163.047 34.3203C162.812 34.3203 162.695 34.25 162.695 34.1094C162.695 33.875 163.047 33.5234 163.75 33.0547C167.57 30.4766 170.664 27.1836 173.031 23.1758L170.324 23.2812C168.918 24.9688 167.535 26.3633 166.176 27.4648C164.816 28.543 163.645 29.3281 162.66 29.8203C161.699 30.3125 161.066 30.5586 160.762 30.5586C160.574 30.5586 160.48 30.4883 160.48 30.3477C160.48 30.2305 160.562 30.0781 160.727 29.8906C160.914 29.6797 161.16 29.4688 161.465 29.2578C163.691 27.6875 165.707 25.7422 167.512 23.4219L163.961 23.5977C162.977 24.418 161.98 25.1445 160.973 25.7773C159.965 26.4102 159.262 26.7266 158.863 26.7266C158.699 26.7266 158.617 26.668 158.617 26.5508C158.617 26.293 158.863 25.9766 159.355 25.6016C161.371 24.0312 163.363 21.9453 165.332 19.3438L163.188 19.4844H162.555C161.945 19.4844 161.57 19.4023 161.43 19.2383C161.008 18.8164 160.715 18.3828 160.551 17.9375L160.48 17.6562C160.48 17.5156 160.551 17.4453 160.691 17.4453C160.809 17.4453 160.914 17.457 161.008 17.4805C161.43 17.5508 161.887 17.5859 162.379 17.5859H162.801L178.199 16.707C178.785 16.6602 179.23 16.5898 179.535 16.4961C179.723 16.4492 179.852 16.4258 179.922 16.4258C180.203 16.4258 180.496 16.5195 180.801 16.707C181.105 16.8945 181.363 17.1055 181.574 17.3398C181.809 17.5742 181.926 17.7617 181.926 17.9023C181.926 18.207 181.645 18.3828 181.082 18.4297L168.355 19.168C167.84 19.7773 167.078 20.6094 166.07 21.6641L178.164 21.0664H178.375C178.891 21.0664 179.277 21.1836 179.535 21.418C179.793 21.6523 179.922 21.8984 179.922 22.1562C179.922 22.2734 179.887 22.4141 179.816 22.5781C179.77 22.7422 179.746 22.8594 179.746 22.9297C179.605 25.9297 179.254 28.8242 178.691 31.6133C178.457 32.8555 178.094 33.7695 177.602 34.3555C177.133 34.9414 176.664 35.2344 176.195 35.2344C175.75 35.2344 175.094 34.9766 174.227 34.4609C173.359 33.9688 172.562 33.418 171.836 32.8086C171.109 32.1992 170.746 31.7773 170.746 31.543C170.746 31.4258 170.84 31.3672 171.027 31.3672C171.309 31.3672 171.707 31.4727 172.223 31.6836C173.488 32.1758 174.613 32.5156 175.598 32.7031H175.738ZM151.41 33.8984C151.41 33.7344 151.422 33.6055 151.445 33.5117C151.586 32.7852 151.656 31.8828 151.656 30.8047L151.938 9.60547V9.00781C151.938 8.04687 151.844 7.32031 151.656 6.82812C151.492 6.45313 151.41 6.19531 151.41 6.05469C151.41 5.89063 151.504 5.80859 151.691 5.80859C151.996 5.80859 152.863 6.08984 154.293 6.65234L158.934 6.23047L159.391 6.19531C159.578 6.19531 159.859 6.3125 160.234 6.54688C160.633 6.78125 160.832 7.03906 160.832 7.32031C160.832 7.46094 160.762 7.61328 160.621 7.77734C160.504 7.91797 160.422 8.03516 160.375 8.12891C159.461 9.95703 158.488 11.6445 157.457 13.1914C157.41 13.2852 157.387 13.3555 157.387 13.4023C157.387 13.543 157.422 13.6484 157.492 13.7188C158.5 14.8438 159.191 15.8984 159.566 16.8828C159.965 17.8672 160.164 18.957 160.164 20.1523C160.164 20.9727 159.988 21.6875 159.637 22.2969C159.309 22.9062 158.898 23.2109 158.406 23.2109C158.055 23.2109 157.539 22.9414 156.859 22.4023C156.203 21.8633 155.594 21.2656 155.031 20.6094C154.492 19.9297 154.223 19.4609 154.223 19.2031C154.223 19.0625 154.293 18.9922 154.434 18.9922C154.621 18.9922 154.926 19.1328 155.348 19.4141C155.84 19.7656 156.344 20.082 156.859 20.3633C157.375 20.6211 157.715 20.75 157.879 20.75C157.949 20.75 157.996 20.6094 158.02 20.3281C158.066 20.0469 158.09 19.8242 158.09 19.6602C158.09 18.8398 157.926 18.0195 157.598 17.1992C157.293 16.3789 156.719 15.4883 155.875 14.5273C155.594 14.1758 155.453 13.8359 155.453 13.5078C155.453 13.2266 155.559 12.8984 155.77 12.5234C156.754 10.8359 157.516 9.38281 158.055 8.16406L154.082 8.51562L153.73 34.3203C153.73 34.9766 153.531 35.3047 153.133 35.3047C153.039 35.3047 152.852 35.2461 152.57 35.1289C152.289 35.0352 152.02 34.8828 151.762 34.6719C151.527 34.4609 151.41 34.2031 151.41 33.8984ZM162.906 5.35156C162.906 5.23437 163.012 5.17578 163.223 5.17578C163.551 5.17578 164.359 5.35156 165.648 5.70312L175.246 5.14062H175.562C175.961 5.14062 176.324 5.25781 176.652 5.49219C177.004 5.72656 177.18 5.97266 177.18 6.23047C177.18 6.34766 177.145 6.47656 177.074 6.61719C177.027 6.75781 176.992 6.875 176.969 6.96875L176.266 13.4023C176.852 13.9648 177.145 14.375 177.145 14.6328C177.145 14.7734 177.062 14.8672 176.898 14.9141C176.758 14.9609 176.535 14.9961 176.23 15.0195L166.176 15.4766L166.211 15.7578V15.8633C166.211 16.3086 166.012 16.5312 165.613 16.5312C165.285 16.5312 164.91 16.4023 164.488 16.1445C164.066 15.8633 163.855 15.5938 163.855 15.3359V15.1602C163.926 14.6914 163.961 14.2461 163.961 13.8242L163.926 13.1914L163.539 7.56641C163.492 6.93359 163.375 6.40625 163.188 5.98438C163 5.67969 162.906 5.46875 162.906 5.35156ZM165.789 9.64062L174.508 9.14844L174.719 6.86328L165.648 7.35547L165.789 9.64062ZM166.07 13.7891L174.156 13.3672L174.367 10.8008L165.895 11.2578L166.07 13.7891ZM246.121 14.3867C245.957 14.3867 245.781 14.2812 245.594 14.0703C245.453 13.9063 245.359 13.7773 245.312 13.6836C245.266 13.5664 245.266 13.4141 245.312 13.2266L245.348 12.3828C245.371 12.2188 245.383 11.8203 245.383 11.1875V10.0273L244.328 10.5195L243.098 11.0469C242.793 11.1641 242.477 11.3047 242.148 11.4688C241.867 11.6094 241.621 11.6797 241.41 11.6797C241.246 11.6563 241.059 11.5977 240.848 11.5039C240.637 11.4102 240.473 11.3281 240.355 11.2578C240.098 11.0938 239.98 10.918 240.004 10.7305L240.109 10.3789C240.109 10.1914 240.121 10.0273 240.145 9.88672L240.18 7.84766V5.94922C240.18 5.57422 240.156 5.25781 240.109 5C240.062 4.71875 240.027 4.51953 240.004 4.40234C240.004 4.28516 240.039 4.20313 240.109 4.15625C240.133 4.13281 240.191 4.12109 240.285 4.12109C240.449 4.12109 240.766 4.22656 241.234 4.4375C241.633 4.625 241.797 4.85938 241.727 5.14062C241.68 5.30469 241.633 5.55078 241.586 5.87891L241.48 9.92188C241.48 10.0391 241.492 10.1328 241.516 10.2031C241.562 10.25 241.609 10.2734 241.656 10.2734C241.938 10.2734 242.277 10.1914 242.676 10.0273C243.426 9.79297 244.07 9.55859 244.609 9.32422L245.383 9.00781V6.6875C245.383 5.75 245.324 4.84766 245.207 3.98047C245.184 3.91016 245.172 3.82812 245.172 3.73438C245.172 3.5 245.266 3.38281 245.453 3.38281C245.477 3.38281 245.605 3.42969 245.84 3.52344C246.191 3.71094 246.449 3.875 246.613 4.01562C246.777 4.15625 246.871 4.23828 246.895 4.26172C246.988 4.33203 247.035 4.40234 247.035 4.47266C247.035 4.51953 247.012 4.57812 246.965 4.64844C246.941 4.71875 246.918 4.77734 246.895 4.82422L246.789 5.87891L246.754 9.11328L246.789 12.2422C246.789 12.7813 246.754 13.25 246.684 13.6484C246.566 14.1406 246.379 14.3867 246.121 14.3867ZM239.652 20.1523C239.395 20.1523 239.078 19.9531 238.703 19.5547C238.422 19.2734 238.281 19.0625 238.281 18.9219C238.281 18.8516 238.328 18.8164 238.422 18.8164C238.516 18.793 238.633 18.7812 238.773 18.7812L239.547 18.7461C239.992 18.7461 240.285 18.7344 240.426 18.7109C240.871 18.7109 241.246 18.6992 241.551 18.6758C243.566 18.4883 244.926 18.3359 245.629 18.2188C245.98 18.1719 246.297 18.125 246.578 18.0781C246.859 18.0078 247.082 17.9727 247.246 17.9727C247.574 17.9727 247.902 18.1367 248.23 18.4648C248.488 18.7227 248.617 18.9336 248.617 19.0977C248.617 19.2383 248.535 19.332 248.371 19.3789C248.254 19.4023 247.562 19.4492 246.297 19.5195C245.594 19.543 244.727 19.6016 243.695 19.6953C242.664 19.7891 241.762 19.8828 240.988 19.9766C240.848 20 240.648 20.0352 240.391 20.082C240.133 20.1289 239.887 20.1523 239.652 20.1523ZM244.363 34.6719C243.637 34.6719 243.074 34.6484 242.676 34.6016C242.301 34.5547 241.984 34.4141 241.727 34.1797C241.281 33.8516 240.977 33.1367 240.812 32.0352L240.707 30.9102C240.707 30.6289 240.684 30.2773 240.637 29.8555C240.262 29.9023 239.992 29.9492 239.828 29.9961C239.781 30.0195 239.699 30.0547 239.582 30.1016C239.488 30.125 239.418 30.1367 239.371 30.1367C239.207 30.1367 239.055 30.0898 238.914 29.9961C238.773 29.9023 238.598 29.7266 238.387 29.4688C238.223 29.2578 238.141 29.1172 238.141 29.0469C238.141 28.9766 238.223 28.9297 238.387 28.9062C238.551 28.8828 238.773 28.8711 239.055 28.8711C239.453 28.8711 239.969 28.8242 240.602 28.7305L240.566 28.2383C240.566 27.3008 240.508 26.5039 240.391 25.8477L240.355 25.6016C240.355 25.2734 240.484 25.1445 240.742 25.2148C241.023 25.3086 241.281 25.4258 241.516 25.5664C241.703 25.6602 241.832 25.7539 241.902 25.8477C241.973 25.918 241.996 26.0234 241.973 26.1641L241.867 27.6758V28.5898L244.961 28.2734C244.961 28.1094 244.973 27.7227 244.996 27.1133C245.02 26.4805 245.02 26.0703 244.996 25.8828C244.996 25.6953 244.973 25.5195 244.926 25.3555C244.902 25.168 244.879 25.0156 244.855 24.8984C244.855 24.7109 244.949 24.6172 245.137 24.6172C245.324 24.6172 245.559 24.7227 245.84 24.9336C246.168 25.1445 246.379 25.332 246.473 25.4961C246.59 25.6602 246.613 25.8594 246.543 26.0938C246.426 26.4688 246.344 26.8906 246.297 27.3594C246.25 27.8281 246.227 28.1094 246.227 28.2031C246.508 28.1797 246.766 28.1445 247 28.0977C247.234 28.0508 247.387 28.0273 247.457 28.0273C247.645 27.9805 247.867 27.957 248.125 27.957C248.266 27.9805 248.465 28.1211 248.723 28.3789C248.934 28.6602 249.039 28.8828 249.039 29.0469C249.039 29.2812 248.816 29.375 248.371 29.3281C247.973 29.2578 247.574 29.2227 247.176 29.2227C246.777 29.2227 246.438 29.2344 246.156 29.2578C246.086 30.1016 245.945 30.9336 245.734 31.7539C245.688 31.9414 245.605 32.0938 245.488 32.2109C245.371 32.3516 245.266 32.4219 245.172 32.4219C245.008 32.4219 244.902 32.3516 244.855 32.2109C244.832 32.0938 244.82 31.8945 244.82 31.6133C244.867 31.0039 244.891 30.2422 244.891 29.3281C244.258 29.375 243.766 29.4219 243.414 29.4688C242.875 29.5859 242.371 29.6562 241.902 29.6797C241.879 30.6406 241.926 31.4961 242.043 32.2461C242.113 32.7383 242.254 33.0781 242.465 33.2656C242.605 33.3828 242.77 33.4531 242.957 33.4766C243.168 33.5 243.379 33.5117 243.59 33.5117C243.801 33.5117 243.941 33.5117 244.012 33.5117C244.738 33.5117 245.418 33.4766 246.051 33.4062C246.238 33.3828 246.402 33.3359 246.543 33.2656C246.707 33.1953 246.824 33.1602 246.895 33.1602C247.105 33.1602 247.316 33.2305 247.527 33.3711C247.738 33.5117 247.844 33.6758 247.844 33.8633C247.844 34.0508 247.738 34.1914 247.527 34.2852C247.34 34.3789 247.035 34.4609 246.613 34.5312C245.863 34.625 245.113 34.6719 244.363 34.6719ZM254.383 18.6758C254.664 18.6758 254.805 18.8047 254.805 19.0625C254.805 19.2031 254.676 19.4023 254.418 19.6602C253.715 20.5273 252.32 22.1797 250.234 24.6172C250.07 24.8281 249.918 24.9336 249.777 24.9336C249.66 24.9336 249.402 24.7578 249.004 24.4062C248.676 24.125 248.512 23.8906 248.512 23.7031C248.512 23.4922 248.688 23.293 249.039 23.1055C249.578 22.8008 250.387 22.1914 251.465 21.2773C252.543 20.3164 253.34 19.5547 253.855 18.9922C254.066 18.7812 254.242 18.6758 254.383 18.6758ZM209.699 30.1719C211.785 29.5156 213.648 28.8008 215.289 28.0273C214.938 27.5352 214.492 26.9727 213.953 26.3398C213.766 26.1055 213.672 25.918 213.672 25.7773C213.672 25.5195 213.824 25.2969 214.129 25.1094C214.434 24.8984 214.668 24.793 214.832 24.793C215.02 24.793 215.219 24.9102 215.43 25.1445C216.766 26.7148 217.902 28.0977 218.84 29.293C219.777 30.4883 220.246 31.2148 220.246 31.4727C220.246 31.6836 220.082 31.9297 219.754 32.2109C219.449 32.5156 219.156 32.668 218.875 32.668C218.641 32.668 218.406 32.4805 218.172 32.1055C217.633 31.2852 217.023 30.3945 216.344 29.4336L212.125 31.543C211.656 31.7539 210.918 32.1289 209.91 32.668C209.066 33.1133 208.551 33.3359 208.363 33.3359C208.223 33.3359 208.047 33.2422 207.836 33.0547C207.625 32.8906 207.461 32.6797 207.344 32.4219C207.25 32.1875 207.25 32 207.344 31.8594C207.484 31.6016 207.555 30.5703 207.555 28.7656V16.6016C207.555 16.0391 207.531 15.582 207.484 15.2305C207.461 14.8789 207.367 14.5039 207.203 14.1055C207.18 14.0352 207.156 13.9766 207.133 13.9297C207.109 13.8828 207.098 13.8359 207.098 13.7891C207.098 13.6719 207.18 13.6133 207.344 13.6133C207.648 13.6133 208.41 13.8711 209.629 14.3867L217.258 13.8594C217.445 13.8359 217.656 13.8242 217.891 13.8242C218.148 13.8242 218.453 13.9414 218.805 14.1758C219.156 14.3867 219.332 14.6211 219.332 14.8789C219.332 14.9727 219.273 15.1133 219.156 15.3008C219.062 15.4883 219.016 15.6289 219.016 15.7227L218.102 22.332C218.664 22.9883 218.945 23.4336 218.945 23.668C218.945 23.7852 218.875 23.8672 218.734 23.9141C218.617 23.9609 218.43 23.9844 218.172 23.9844L209.664 24.3008L209.699 30.1719ZM203.934 14.3867C203.934 14.1523 204.086 13.8711 204.391 13.543C206.102 11.6445 207.59 9.75781 208.855 7.88281C210.121 6.00781 210.754 4.75391 210.754 4.12109L210.719 3.875V3.76953C210.719 3.44141 210.848 3.27734 211.105 3.27734C211.41 3.27734 211.832 3.48828 212.371 3.91016C212.934 4.30859 213.215 4.63672 213.215 4.89453C213.215 5.01172 213.156 5.16406 213.039 5.35156C212.688 5.91406 212.301 6.47656 211.879 7.03906L216.871 6.65234C217.293 6.62891 217.738 6.53516 218.207 6.37109C218.348 6.32422 218.453 6.30078 218.523 6.30078C218.875 6.30078 219.25 6.5 219.648 6.89844C220.07 7.27344 220.281 7.56641 220.281 7.77734C220.281 8.05859 220.023 8.22266 219.508 8.26953L213.496 8.69141C213.66 8.73828 214.023 8.98438 214.586 9.42969C215.172 9.875 215.699 10.332 216.168 10.8008C216.637 11.2695 216.871 11.5977 216.871 11.7852C216.871 11.9961 216.73 12.2539 216.449 12.5586C216.168 12.8398 215.922 12.9805 215.711 12.9805C215.523 12.9805 215.301 12.8281 215.043 12.5234C214.246 11.6563 213.438 10.8945 212.617 10.2383C212.336 10.0039 212.195 9.80469 212.195 9.64062C212.195 9.52344 212.254 9.37109 212.371 9.18359C212.488 8.99609 212.641 8.84375 212.828 8.72656L210.473 8.90234C209.348 10.2852 208.105 11.5859 206.746 12.8047C205.387 14 204.52 14.5977 204.145 14.5977C204.004 14.5977 203.934 14.5273 203.934 14.3867ZM216.59 18.043L216.836 15.582L209.594 16.0742V18.3945L216.59 18.043ZM216.133 22.4023L216.414 19.6953L209.629 20.0117V22.6484L216.133 22.4023ZM218.031 12.875C218.031 12.6406 218.184 12.3594 218.488 12.0312C219.637 10.6484 220.68 9.08984 221.617 7.35547C222.578 5.59766 223.059 4.36719 223.059 3.66406V3.52344C223.059 3.17188 223.188 2.99609 223.445 2.99609C223.609 2.99609 223.855 3.08984 224.184 3.27734C224.535 3.44141 224.852 3.64063 225.133 3.875C225.414 4.10937 225.555 4.34375 225.555 4.57812C225.555 4.78906 225.391 5.16406 225.062 5.70312C224.734 6.24219 224.559 6.52344 224.535 6.54688L231.461 5.98438C231.977 5.9375 232.422 5.85547 232.797 5.73828C232.844 5.71484 232.938 5.70312 233.078 5.70312C233.406 5.70312 233.758 5.89063 234.133 6.26562C234.531 6.61719 234.73 6.91016 234.73 7.14453C234.73 7.28516 234.66 7.40234 234.52 7.49609C234.402 7.56641 234.238 7.61328 234.027 7.63672L226.891 8.12891C227.547 8.55078 228.32 9.17187 229.211 9.99219C230.102 10.7891 230.547 11.3281 230.547 11.6094C230.547 11.7734 230.418 12.0312 230.16 12.3828C229.902 12.7109 229.656 12.875 229.422 12.875C229.234 12.875 229.035 12.7578 228.824 12.5234C227.676 11.2812 226.633 10.2969 225.695 9.57031C225.461 9.38281 225.344 9.20703 225.344 9.04297C225.344 8.85547 225.52 8.57422 225.871 8.19922L223.27 8.375C222.496 9.40625 221.559 10.4492 220.457 11.5039C219.379 12.5586 218.652 13.0859 218.277 13.0859C218.113 13.0859 218.031 13.0156 218.031 12.875ZM221.336 13.6484C221.336 13.5078 221.418 13.4375 221.582 13.4375C221.934 13.4375 222.73 13.7305 223.973 14.3164L231.039 13.7188L231.32 13.6836C231.414 13.6836 231.59 13.7305 231.848 13.8242C232.129 13.8945 232.387 14.0234 232.621 14.2109C232.879 14.375 233.008 14.5977 233.008 14.8789C233.008 14.9727 232.973 15.1016 232.902 15.2656C232.832 15.4297 232.797 15.5469 232.797 15.6172C232.773 18.1953 232.609 20.9492 232.305 23.8789L232.234 24.7578C232.164 25.7422 232.07 26.5625 231.953 27.2188C231.836 27.875 231.637 28.3906 231.355 28.7656C230.91 29.375 230.43 29.6797 229.914 29.6797C229.398 29.6797 228.742 29.3633 227.945 28.7305C227.148 28.0977 226.41 27.4062 225.73 26.6562C225.074 25.9062 224.746 25.4258 224.746 25.2148C224.746 25.0508 224.84 24.9688 225.027 24.9688C225.238 24.9688 225.531 25.0859 225.906 25.3203C226.773 25.8594 227.5 26.293 228.086 26.6211C228.672 26.9492 229.094 27.1133 229.352 27.1133C229.469 27.1133 229.551 27.0312 229.598 26.8672C230.137 23.8672 230.465 20.1055 230.582 15.582L223.973 16.0742C223.973 20.0352 224.008 26.3164 224.078 34.918C224.078 35.1289 224.02 35.2812 223.902 35.375C223.809 35.4922 223.68 35.5508 223.516 35.5508C223.328 35.5508 223.105 35.4805 222.848 35.3398C222.402 35.1523 222.086 34.9766 221.898 34.8125C221.711 34.6484 221.617 34.4609 221.617 34.25L221.652 34.0039C221.793 33.2305 221.863 32.3633 221.863 31.4023L221.758 16.5664C221.758 15.957 221.734 15.4883 221.688 15.1602C221.664 14.832 221.594 14.5156 221.477 14.2109C221.383 13.9297 221.336 13.7422 221.336 13.6484Z" fill="#333333"/>
<path d="M118.219 72.0938C118.073 72.0938 117.917 72 117.75 71.8125C117.625 71.6667 117.542 71.5521 117.5 71.4688C117.458 71.3646 117.458 71.2292 117.5 71.0625L117.531 70.3125C117.552 70.1667 117.562 69.8125 117.562 69.25V68.2188L116.625 68.6562L115.531 69.125C115.26 69.2292 114.979 69.3542 114.688 69.5C114.438 69.625 114.219 69.6875 114.031 69.6875C113.885 69.6667 113.719 69.6146 113.531 69.5312C113.344 69.4479 113.198 69.375 113.094 69.3125C112.865 69.1667 112.76 69.0104 112.781 68.8438L112.875 68.5312C112.875 68.3646 112.885 68.2188 112.906 68.0938L112.938 66.2812V64.5938C112.938 64.2604 112.917 63.9792 112.875 63.75C112.833 63.5 112.802 63.3229 112.781 63.2188C112.781 63.1146 112.812 63.0417 112.875 63C112.896 62.9792 112.948 62.9688 113.031 62.9688C113.177 62.9688 113.458 63.0625 113.875 63.25C114.229 63.4167 114.375 63.625 114.312 63.875C114.271 64.0208 114.229 64.2396 114.188 64.5312L114.094 68.125C114.094 68.2292 114.104 68.3125 114.125 68.375C114.167 68.4167 114.208 68.4375 114.25 68.4375C114.5 68.4375 114.802 68.3646 115.156 68.2188C115.823 68.0104 116.396 67.8021 116.875 67.5938L117.562 67.3125V65.25C117.562 64.4167 117.51 63.6146 117.406 62.8438C117.385 62.7812 117.375 62.7083 117.375 62.625C117.375 62.4167 117.458 62.3125 117.625 62.3125C117.646 62.3125 117.76 62.3542 117.969 62.4375C118.281 62.6042 118.51 62.75 118.656 62.875C118.802 63 118.885 63.0729 118.906 63.0938C118.99 63.1562 119.031 63.2188 119.031 63.2812C119.031 63.3229 119.01 63.375 118.969 63.4375C118.948 63.5 118.927 63.5521 118.906 63.5938L118.812 64.5312L118.781 67.4062L118.812 70.1875C118.812 70.6667 118.781 71.0833 118.719 71.4375C118.615 71.875 118.448 72.0938 118.219 72.0938ZM112.469 79.0938C112.24 79.0938 111.958 78.9167 111.625 78.5625C111.375 78.3125 111.25 78.125 111.25 78C111.25 77.9375 111.292 77.9062 111.375 77.9062C111.458 77.8854 111.562 77.875 111.688 77.875L112.375 77.8438C112.771 77.8438 113.031 77.8333 113.156 77.8125C113.552 77.8125 113.885 77.8021 114.156 77.7812C115.948 77.6146 117.156 77.4792 117.781 77.375C118.094 77.3333 118.375 77.2917 118.625 77.25C118.875 77.1875 119.073 77.1562 119.219 77.1562C119.51 77.1562 119.802 77.3021 120.094 77.5938C120.323 77.8229 120.438 78.0104 120.438 78.1562C120.438 78.2812 120.365 78.3646 120.219 78.4062C120.115 78.4271 119.5 78.4688 118.375 78.5312C117.75 78.5521 116.979 78.6042 116.062 78.6875C115.146 78.7708 114.344 78.8542 113.656 78.9375C113.531 78.9583 113.354 78.9896 113.125 79.0312C112.896 79.0729 112.677 79.0938 112.469 79.0938ZM121.562 71.2188C121.667 71.2188 121.823 71.2917 122.031 71.4375C122.01 71.4792 122.052 71.5625 122.156 71.6875C122.26 71.7917 122.333 71.8646 122.375 71.9062C122.479 72.0104 122.583 72.1354 122.688 72.2812C122.812 72.4271 122.948 72.5833 123.094 72.75C123.469 73.1458 124.333 74.1771 125.688 75.8438C125.917 76.1771 126.031 76.375 126.031 76.4375C126.031 76.6458 125.906 76.75 125.656 76.75C125.51 76.75 125.354 76.6458 125.188 76.4375C124.792 76.0208 124.083 75.3646 123.062 74.4688C122.271 73.7396 121.552 73.1771 120.906 72.7812C120.594 72.6354 120.438 72.4688 120.438 72.2812C120.438 72.1354 120.594 71.9271 120.906 71.6562C121.198 71.3646 121.417 71.2188 121.562 71.2188ZM95.8125 82.0625V86.2812C95.8125 86.4479 95.7604 86.5833 95.6562 86.6875C95.5521 86.8125 95.4062 86.875 95.2188 86.875C94.9062 86.875 94.5521 86.7292 94.1562 86.4375C93.7812 86.1667 93.5938 85.8958 93.5938 85.625L93.625 85.3438C93.7292 84.3021 93.7812 83.4479 93.7812 82.7812V81.625L93.8125 77L87.4062 77.2812C87.1562 77.3021 86.8333 77.3125 86.4375 77.3125C86.0208 77.3125 85.75 77.25 85.625 77.125C85.2917 76.8125 85.0729 76.5208 84.9688 76.25C84.8646 75.9792 84.8125 75.7812 84.8125 75.6562C84.8125 75.5104 84.875 75.4375 85 75.4375L85.25 75.5C85.625 75.6042 86 75.6562 86.375 75.6562H86.6562L102.219 75C102.74 74.9583 103.177 74.8854 103.531 74.7812L103.719 74.75C103.969 74.75 104.312 74.9375 104.75 75.3125C105.188 75.6875 105.406 75.9792 105.406 76.1875C105.406 76.375 105.167 76.4896 104.688 76.5312L95.7188 76.9062L95.8125 82.0625ZM80.7188 76.7812C80.7188 76.5938 80.9062 76.375 81.2812 76.125C83.8229 74.375 85.8958 72.6042 87.5 70.8125C88.5208 69.5417 89.1979 68.6667 89.5312 68.1875C88.9062 67.5208 88.1458 66.8229 87.25 66.0938C87.0625 65.9271 86.9688 65.7917 86.9688 65.6875C86.9688 65.5833 87.0625 65.3854 87.25 65.0938C87.4583 64.7812 87.6771 64.625 87.9062 64.625C88.2188 64.625 89.0729 65.3229 90.4688 66.7188C91.1146 65.6354 91.6875 64.4896 92.1875 63.2812L88.1562 63.5312C87.4271 64.4688 86.6146 65.375 85.7188 66.25C84.8438 67.125 84.0312 67.8333 83.2812 68.375C82.5521 68.9167 82.0312 69.1875 81.7188 69.1875C81.5938 69.1875 81.5312 69.1354 81.5312 69.0312C81.5312 68.8646 81.7083 68.6146 82.0625 68.2812C83.0833 67.3229 84.0833 66.2188 85.0625 64.9688C86.0417 63.6979 86.8438 62.5208 87.4688 61.4375C88.0938 60.3542 88.4062 59.5833 88.4062 59.125L88.375 58.8438L88.3438 58.6875C88.3438 58.4792 88.4583 58.375 88.6875 58.375C88.9375 58.375 89.3125 58.5312 89.8125 58.8438C90.3125 59.1562 90.5625 59.4375 90.5625 59.6875C90.5625 59.8542 90.4375 60.1562 90.1875 60.5938C89.9375 61.0312 89.6562 61.4688 89.3438 61.9062L92.75 61.6562L93.2188 61.625C93.5521 61.625 93.8958 61.7396 94.25 61.9688C94.6042 62.1979 94.7812 62.4375 94.7812 62.6875C94.7812 62.8333 94.7188 62.9896 94.5938 63.1562C94.4688 63.3021 94.3854 63.4062 94.3438 63.4688C92.6979 66.5729 91.0521 69.0521 89.4062 70.9062L89.6562 70.9688C89.9062 71.0521 90.2292 71.0938 90.625 71.0938H90.9688L97.4688 70.7188C98.0104 70.6771 98.4271 70.6146 98.7188 70.5312C98.7604 70.5104 98.8333 70.5 98.9375 70.5C99.1667 70.5 99.3958 70.5938 99.625 70.7812C99.875 70.9688 100.083 71.1771 100.25 71.4062C100.438 71.6354 100.531 71.7917 100.531 71.875C100.531 72.0417 100.302 72.1458 99.8438 72.1875L91.5 72.7188C91.0833 72.7604 90.8125 72.7812 90.6875 72.7812C90.4583 72.7812 90.1875 72.6979 89.875 72.5312C89.5833 72.3438 89.3542 71.9479 89.1875 71.3438L89.1562 71.2188C86.9896 73.5938 84.5 75.4479 81.6875 76.7812C81.4167 76.9062 81.1979 76.9688 81.0312 76.9688C80.8229 76.9688 80.7188 76.9062 80.7188 76.7812ZM82.75 85C82.75 84.7708 82.9688 84.5 83.4062 84.1875C84.3229 83.5417 85.375 82.6667 86.5625 81.5625C87.75 80.4375 88.4167 79.5 88.5625 78.75C88.625 78.4375 88.7604 78.2812 88.9688 78.2812C89.1562 78.2812 89.3958 78.3958 89.6875 78.625C89.9792 78.8333 90.2396 79.0729 90.4688 79.3438C90.6979 79.5938 90.8125 79.7812 90.8125 79.9062C90.8125 80.0312 90.7292 80.1771 90.5625 80.3438C89.6667 81.2604 88.6667 82.0833 87.5625 82.8125C86.4792 83.5417 85.5 84.1146 84.625 84.5312C83.75 84.9688 83.2188 85.1875 83.0312 85.1875C82.8438 85.1875 82.75 85.125 82.75 85ZM83 69.5625C83 69.5 83.0729 69.4688 83.2188 69.4688L83.5625 69.5C83.9583 69.5 84.5312 69.4062 85.2812 69.2188C85.3438 69.2188 85.8438 69.0833 86.7812 68.8125C87.6771 68.5417 88.1875 68.4062 88.3125 68.4062C88.375 68.4062 88.4271 68.4271 88.4688 68.4688C88.5312 68.4896 88.5625 68.5208 88.5625 68.5625C88.5625 68.8542 88.2604 69.2083 87.6562 69.625C87.0521 70.0417 86.375 70.4062 85.625 70.7188C84.875 71.0312 84.3438 71.1771 84.0312 71.1562C83.7604 71.1771 83.5625 71.0729 83.4375 70.8438C83.3125 70.5938 83.1771 70.2396 83.0312 69.7812C82.9896 69.7396 82.9688 69.6979 82.9688 69.6562C82.9896 69.6146 83 69.5833 83 69.5625ZM94.9062 64.125C94.9062 63.9375 95.0417 63.7604 95.3125 63.5938C95.5833 63.4271 95.8229 63.3438 96.0312 63.3438C96.2188 63.3438 96.375 63.4375 96.5 63.625C97.3542 64.875 98.3646 66.0833 99.5312 67.25C101.198 65.5833 102.448 64.0729 103.281 62.7188L98.0312 63.0938C97.8438 63.1146 97.6562 63.1354 97.4688 63.1562C97.3021 63.1771 97.1354 63.1875 96.9688 63.1875C96.5729 63.1875 96.25 63.0104 96 62.6562C95.75 62.3021 95.5833 62.0104 95.5 61.7812C95.4792 61.7396 95.4688 61.6875 95.4688 61.625C95.4688 61.5417 95.5208 61.5 95.625 61.5H95.75C96.0625 61.5625 96.375 61.5938 96.6875 61.5938L97.25 61.5625L103.812 61.125H104.031C104.323 61.125 104.656 61.2708 105.031 61.5625C105.406 61.8333 105.594 62.125 105.594 62.4375C105.594 62.6042 105.521 62.75 105.375 62.875C105.25 62.9792 105.177 63.0521 105.156 63.0938C103.781 65.0312 102.302 66.7917 100.719 68.375C103.135 70.5833 105.833 72.4479 108.812 73.9688C108.917 74.0312 109.01 74.0938 109.094 74.1562C109.177 74.2188 109.219 74.2917 109.219 74.375C109.219 74.4792 109 74.7292 108.562 75.125C108.146 75.5208 107.865 75.7188 107.719 75.7188C107.656 75.7188 107.521 75.6562 107.312 75.5312C104.854 73.9896 102.688 72.3958 100.812 70.75C98.9583 69.1042 97.5104 67.6562 96.4688 66.4062C95.4271 65.1354 94.9062 64.375 94.9062 64.125ZM98.0312 79.4375C98.0312 79.2917 98.125 79.0729 98.3125 78.7812C98.5208 78.4688 98.75 78.3125 99 78.3125C99.2708 78.3125 100.031 78.7708 101.281 79.6875C102.552 80.5833 103.906 81.625 105.344 82.8125C105.594 83 105.719 83.1979 105.719 83.4062C105.719 83.6146 105.594 83.9167 105.344 84.3125C105.115 84.7292 104.865 84.9375 104.594 84.9375C104.427 84.9375 104.219 84.8125 103.969 84.5625C102.323 82.9583 100.49 81.4479 98.4688 80.0312C98.1771 79.8229 98.0312 79.625 98.0312 79.4375ZM163.875 71.9688C163.708 71.9688 163.542 71.9375 163.375 71.875C163.208 71.7917 163.083 71.6667 163 71.5C162.938 71.3125 162.802 71.0938 162.594 70.8438C162.406 70.5938 162.219 70.4062 162.031 70.2812L162.156 70.125C162.26 70.1875 162.51 70.3125 162.906 70.5C163.302 70.6875 163.594 70.7812 163.781 70.7812C164.073 70.7812 164.333 70.6771 164.562 70.4688C164.792 70.2604 165.083 69.8646 165.438 69.2812C165.688 68.8854 165.917 68.4167 166.125 67.875C166.333 67.3333 166.49 66.8333 166.594 66.375L166.625 66.3125C166.625 66.25 166.604 66.1979 166.562 66.1562C166.521 66.0938 166.479 66.0625 166.438 66.0625L165 66.1875C164.042 66.3542 163.042 66.4896 162 66.5938C161.812 66.6146 161.594 66.6667 161.344 66.75C161.094 66.8333 160.917 66.875 160.812 66.875C160.646 66.875 160.427 66.7396 160.156 66.4688C160.052 66.3854 159.948 66.2812 159.844 66.1562C159.76 66.0312 159.74 65.9271 159.781 65.8438C159.948 65.6771 160.031 65.5938 160.031 65.5938L160.188 65.4688C160.479 65.1771 160.771 64.7917 161.062 64.3125C161.271 64.0208 161.49 63.5312 161.719 62.8438C161.719 62.6146 161.771 62.5 161.875 62.5C161.938 62.5 162.042 62.5417 162.188 62.625L162.688 62.9375C162.812 63.0417 162.896 63.125 162.938 63.1875C162.979 63.25 163 63.3333 163 63.4375C163 63.5625 162.917 63.7188 162.75 63.9062C162.583 64.0729 162.438 64.2396 162.312 64.4062L161.594 65.4375L161.531 65.5625C161.531 65.625 161.615 65.6562 161.781 65.6562L164.188 65.3438L165.812 65.2188L166.438 65.1562L166.781 65.0938H166.875C167.083 65.0938 167.312 65.2708 167.562 65.625C167.854 65.8958 168 66.125 168 66.3125L167.844 66.7188C167.823 66.7604 167.656 67.25 167.344 68.1875C166.969 69.0833 166.646 69.7604 166.375 70.2188C166.104 70.6771 165.812 71.0312 165.5 71.2812C164.938 71.7396 164.396 71.9688 163.875 71.9688ZM164.469 82.5312C164.469 82.5104 164.521 82.4375 164.625 82.3125C164.75 82.1667 164.885 81.9896 165.031 81.7812C165.281 81.4271 165.531 80.9062 165.781 80.2188C166.031 79.5312 166.167 78.8958 166.188 78.3125C166.188 78.2708 166.167 78.2292 166.125 78.1875C166.104 78.125 166.052 78.0938 165.969 78.0938L165.25 78.1562L164.188 78.25C163.958 79 163.562 79.8125 163 80.6875C162.75 81.0833 162.406 81.4375 161.969 81.75C161.552 82.0417 161.146 82.25 160.75 82.375C160.625 82.4167 160.469 82.4375 160.281 82.4375C160.135 82.4167 160.062 82.375 160.062 82.3125C160.062 82.2292 160.135 82.1562 160.281 82.0938C160.531 81.9271 160.812 81.6667 161.125 81.3125C161.458 80.9583 161.75 80.5938 162 80.2188C162.146 80.0104 162.302 79.7396 162.469 79.4062C162.635 79.0521 162.771 78.7292 162.875 78.4375C162.208 78.5208 161.521 78.6771 160.812 78.9062C160.771 78.9479 160.698 78.9688 160.594 78.9688C160.531 78.9688 160.438 78.9271 160.312 78.8438C160.146 78.6771 160.031 78.5521 159.969 78.4688C159.927 78.3646 159.948 78.2708 160.031 78.1875L160.156 77.9375C160.24 77.8125 160.323 77.5625 160.406 77.1875C160.49 76.8125 160.531 76.5104 160.531 76.2812C160.531 76.2188 160.521 76.1458 160.5 76.0625C160.5 75.9583 160.51 75.9062 160.531 75.9062C160.573 75.8854 160.625 75.8854 160.688 75.9062C160.917 75.9479 161.125 76.0208 161.312 76.125C161.479 76.2292 161.594 76.3438 161.656 76.4688C161.74 76.5729 161.74 76.6667 161.656 76.75C161.635 76.7708 161.604 76.8125 161.562 76.875C161.521 76.9167 161.49 76.9792 161.469 77.0625C161.448 77.0833 161.406 77.3125 161.344 77.75C161.344 77.7708 161.354 77.7917 161.375 77.8125C161.417 77.8333 161.458 77.8333 161.5 77.8125C161.562 77.8125 161.656 77.8021 161.781 77.7812C161.906 77.7604 162 77.7396 162.062 77.7188C162.208 77.6979 162.375 77.6667 162.562 77.625C162.771 77.5833 162.958 77.5521 163.125 77.5312C163.188 77.3021 163.229 77.0521 163.25 76.7812C163.292 76.4896 163.323 76.2917 163.344 76.1875L163.375 75.5312V75.3125C162.708 75.3333 162.01 75.3958 161.281 75.5L160.719 75.5938H160.594C160.49 75.5938 160.385 75.5625 160.281 75.5C160.198 75.4375 160.104 75.3646 160 75.2812C159.729 75.0312 159.594 74.8438 159.594 74.7188C159.594 74.5938 159.688 74.5521 159.875 74.5938C160.125 74.6354 160.385 74.6562 160.656 74.6562L161.562 74.625L165.906 74.3125C166.073 74.2917 166.229 74.2708 166.375 74.25C166.521 74.2083 166.667 74.1771 166.812 74.1562H166.906C167.177 74.1562 167.365 74.2083 167.469 74.3125C167.594 74.3958 167.667 74.4479 167.688 74.4688C168.021 74.7396 168.188 74.9479 168.188 75.0938C168.188 75.2188 168.01 75.2708 167.656 75.25L167.031 75.1875C166.49 75.1667 165.677 75.1875 164.594 75.25L164.469 76.4688C164.448 76.6771 164.427 76.8438 164.406 76.9688C164.385 77.0938 164.365 77.1979 164.344 77.2812L164.312 77.375C164.812 77.3333 165.396 77.2708 166.062 77.1875C166.104 77.1667 166.177 77.1458 166.281 77.125C166.385 77.0833 166.49 77.0521 166.594 77.0312H166.656C166.781 77.0312 166.906 77.0833 167.031 77.1875C167.156 77.2917 167.229 77.3542 167.25 77.375C167.417 77.5208 167.531 77.6458 167.594 77.75C167.677 77.8333 167.688 77.9062 167.625 77.9688C167.583 78.0521 167.531 78.1354 167.469 78.2188C167.427 78.2812 167.396 78.3542 167.375 78.4375C167.271 79.3125 167.104 80.0208 166.875 80.5625C166.688 81.0417 166.479 81.4062 166.25 81.6562C166.042 81.8854 165.781 82.1042 165.469 82.3125C165.344 82.3958 165.146 82.4688 164.875 82.5312C164.604 82.5729 164.469 82.5729 164.469 82.5312ZM169.562 71.2188C169.667 71.2188 169.823 71.2917 170.031 71.4375C170.01 71.4792 170.052 71.5625 170.156 71.6875C170.26 71.7917 170.333 71.8646 170.375 71.9062C170.479 72.0104 170.583 72.1354 170.688 72.2812C170.812 72.4271 170.948 72.5833 171.094 72.75C171.469 73.1458 172.333 74.1771 173.688 75.8438C173.917 76.1771 174.031 76.375 174.031 76.4375C174.031 76.6458 173.906 76.75 173.656 76.75C173.51 76.75 173.354 76.6458 173.188 76.4375C172.792 76.0208 172.083 75.3646 171.062 74.4688C170.271 73.7396 169.552 73.1771 168.906 72.7812C168.594 72.6354 168.438 72.4688 168.438 72.2812C168.438 72.1354 168.594 71.9271 168.906 71.6562C169.198 71.3646 169.417 71.2188 169.562 71.2188ZM136.875 69C136.875 70.5833 136.844 71.9896 136.781 73.2188L140.25 72.1875L141.062 71.9375C141.667 71.7708 142.073 71.6875 142.281 71.6875C142.49 71.6875 142.594 71.7396 142.594 71.8438C142.594 72.0312 142.146 72.3438 141.25 72.7812C140.375 73.1979 138.833 73.8438 136.625 74.7188C136.333 77.1354 135.688 79.2083 134.688 80.9375C133.708 82.6667 132.188 84.2917 130.125 85.8125C129.75 86.1042 129.448 86.25 129.219 86.25C129.073 86.25 129 86.1875 129 86.0625C129 85.8333 129.208 85.5104 129.625 85.0938C131.021 83.6979 132.146 82.2396 133 80.7188C133.875 79.1771 134.448 77.4062 134.719 75.4062C134.073 75.6771 133.26 75.9688 132.281 76.2812C131.302 76.5938 130.656 76.75 130.344 76.75C130.156 76.75 130.021 76.7083 129.938 76.625C129.708 76.4583 129.458 76.2083 129.188 75.875C128.938 75.5208 128.812 75.2083 128.812 74.9375C128.812 74.8333 128.865 74.7812 128.969 74.7812H129.062C130.104 74.7812 132.042 74.4271 134.875 73.7188C134.938 72.8021 134.99 71.2708 135.031 69.125L132.719 69.3125C132.573 69.3333 132.385 69.3438 132.156 69.3438C131.677 69.3438 131.365 69.2917 131.219 69.1875C130.969 69 130.75 68.7604 130.562 68.4688C130.396 68.1771 130.312 67.9271 130.312 67.7188C130.312 67.6146 130.365 67.5625 130.469 67.5625C130.552 67.5625 130.615 67.5729 130.656 67.5938C131.156 67.7188 131.583 67.7812 131.938 67.7812H132.156L135.031 67.5312C135.031 65.8646 135.021 64.6562 135 63.9062C134.167 64.1354 133.281 64.3542 132.344 64.5625C131.406 64.75 130.74 64.8438 130.344 64.8438C129.906 64.8438 129.688 64.7604 129.688 64.5938C129.688 64.4896 129.792 64.375 130 64.25C130.208 64.1042 130.5 63.9792 130.875 63.875C132.229 63.4583 133.5 62.9896 134.688 62.4688C135.896 61.9479 137.167 61.3333 138.5 60.625C138.792 60.4583 139.104 60.1354 139.438 59.6562C139.521 59.5104 139.635 59.4375 139.781 59.4375C140.094 59.4375 140.417 59.6458 140.75 60.0625C141.104 60.4792 141.281 60.8542 141.281 61.1875C141.281 61.4375 141.177 61.6042 140.969 61.6875C139.365 62.4167 137.99 62.9688 136.844 63.3438L136.875 67.375L138.781 67.2188C138.844 67.2188 138.99 67.2083 139.219 67.1875C139.448 67.1667 139.667 67.125 139.875 67.0625C139.917 67.0417 139.99 67.0312 140.094 67.0312C140.344 67.0312 140.656 67.1979 141.031 67.5312C141.406 67.8646 141.594 68.125 141.594 68.3125C141.594 68.5208 141.365 68.6458 140.906 68.6875L136.875 69ZM140.094 75.0312C140.094 74.9271 140.135 74.875 140.219 74.875C140.302 74.875 140.365 74.8854 140.406 74.9062C140.948 75.0312 141.396 75.0938 141.75 75.0938H141.969L147.688 74.8125V71.375L145.344 71.5312C145.135 71.5521 144.865 71.5625 144.531 71.5625C144.198 71.5625 143.948 71.5208 143.781 71.4375C143.365 71.0833 143.083 70.6562 142.938 70.1562C142.875 70.0312 142.844 69.9271 142.844 69.8438C142.844 69.7396 142.885 69.6875 142.969 69.6875C142.99 69.6875 143.062 69.7083 143.188 69.75C143.604 69.8542 144.031 69.9062 144.469 69.9062H144.75L147.688 69.7188V66.8438L145.281 67C145.073 67.0208 144.802 67.0312 144.469 67.0312C144.073 67.0312 143.833 66.9896 143.75 66.9062C143.5 66.6979 143.281 66.4479 143.094 66.1562C142.906 65.8438 142.812 65.5625 142.812 65.3125C142.812 65.2083 142.854 65.1562 142.938 65.1562L143.125 65.2188C143.542 65.3229 143.969 65.375 144.406 65.375H144.688L147.688 65.1875V62.7188L144.375 62.9375C144.167 62.9583 143.906 62.9688 143.594 62.9688C143.177 62.9688 142.917 62.9167 142.812 62.8125C142.396 62.4583 142.104 62.0417 141.938 61.5625C141.875 61.4375 141.844 61.3333 141.844 61.25C141.844 61.1458 141.896 61.0938 142 61.0938C142.083 61.0938 142.146 61.1042 142.188 61.125C142.729 61.25 143.177 61.3125 143.531 61.3125H143.75L152.781 60.6562C152.865 60.6562 153.021 60.6458 153.25 60.625C153.479 60.6042 153.708 60.5625 153.938 60.5C153.979 60.4792 154.052 60.4688 154.156 60.4688C154.448 60.4688 154.781 60.6562 155.156 61.0312C155.531 61.3854 155.719 61.6562 155.719 61.8438C155.719 62.0521 155.49 62.1771 155.031 62.2188L149.594 62.5938V65.0625L152.062 64.9062C152.542 64.8646 152.927 64.8021 153.219 64.7188C153.26 64.6979 153.323 64.6875 153.406 64.6875C153.635 64.6875 153.958 64.8646 154.375 65.2188C154.792 65.5729 155 65.8646 155 66.0938C155 66.3021 154.771 66.4271 154.312 66.4688L149.594 66.75V69.5938L152.156 69.4062C152.635 69.3646 153.021 69.3021 153.312 69.2188C153.354 69.1979 153.417 69.1875 153.5 69.1875C153.75 69.1875 154.073 69.3646 154.469 69.7188C154.885 70.0729 155.094 70.3646 155.094 70.5938C155.094 70.8021 154.854 70.9271 154.375 70.9688L149.594 71.2812V74.75L154.688 74.5C155.188 74.4583 155.583 74.3958 155.875 74.3125L156.062 74.2812C156.312 74.2812 156.635 74.4792 157.031 74.875C157.427 75.2708 157.625 75.5625 157.625 75.75C157.625 75.9583 157.396 76.0833 156.938 76.125L149.594 76.4688V86.625C149.594 87.0833 149.427 87.3125 149.094 87.3125C148.823 87.3125 148.49 87.1979 148.094 86.9688C147.698 86.7396 147.5 86.4375 147.5 86.0625L147.531 85.8125C147.635 85.1458 147.688 84.5417 147.688 84V76.5625L142.562 76.9375L141.562 77C141.396 77.0208 141.104 76.75 140.688 76.1875C140.292 75.6042 140.094 75.2188 140.094 75.0312ZM210.781 71.7812C210.615 71.7812 210.479 71.6458 210.375 71.375C210.208 71.0417 210.125 70.7708 210.125 70.5625L210.156 69.7188C210.177 69.3021 210.188 68.4688 210.188 67.2188V65.6562L210.156 64.5625C209.927 64.5625 209.688 64.5938 209.438 64.6562L208.719 64.8438C208.615 64.8854 208.448 64.8229 208.219 64.6562C207.99 64.4896 207.812 64.3021 207.688 64.0938C207.625 63.9688 207.594 63.875 207.594 63.8125C207.594 63.75 207.625 63.7083 207.688 63.6875C207.75 63.6667 207.823 63.6562 207.906 63.6562C208.885 63.6562 209.792 63.6042 210.625 63.5L211.562 63.4375C212.167 63.3958 212.625 63.3646 212.938 63.3438C213.271 63.3021 213.5 63.2708 213.625 63.25C213.792 63.2292 213.979 63.2083 214.188 63.1875C214.417 63.1458 214.562 63.1354 214.625 63.1562C214.708 63.2188 214.812 63.2812 214.938 63.3438C215.083 63.4062 215.24 63.5104 215.406 63.6562C215.51 63.7604 215.594 63.8646 215.656 63.9688C215.74 64.0521 215.781 64.1458 215.781 64.25C215.781 64.3333 215.729 64.4583 215.625 64.625C215.521 64.7917 215.417 65.0521 215.312 65.4062C215.229 65.7604 215.167 66.0104 215.125 66.1562C214.812 67.1979 214.427 67.9583 213.969 68.4375C213.635 68.7292 213.26 68.875 212.844 68.875C212.656 68.875 212.5 68.7396 212.375 68.4688C212.188 68.0521 211.979 67.7604 211.75 67.5938L211.781 67.4375C212.344 67.625 212.729 67.7188 212.938 67.7188C213.104 67.7188 213.219 67.6875 213.281 67.625C213.365 67.5625 213.438 67.4688 213.5 67.3438C213.604 67.0729 213.688 66.8333 213.75 66.625C213.833 66.4167 213.906 66.2292 213.969 66.0625C214.01 65.875 214.062 65.625 214.125 65.3125C214.208 65 214.26 64.75 214.281 64.5625C214.281 64.375 214.229 64.2812 214.125 64.2812H213.438C213.125 64.2812 212.771 64.2917 212.375 64.3125C211.979 64.3333 211.656 64.3646 211.406 64.4062L211.344 67.25L211.375 68.875C211.375 69.1042 211.375 69.3229 211.375 69.5312C211.396 69.7188 211.396 69.8542 211.375 69.9375C211.375 70.0625 211.375 70.2604 211.375 70.5312C211.396 70.7812 211.396 70.9583 211.375 71.0625L211.156 71.5625C211.01 71.7083 210.885 71.7812 210.781 71.7812ZM215.188 82.2188C214.875 82.2188 214.573 81.9896 214.281 81.5312C213.906 80.9479 213.542 80.4688 213.188 80.0938L212.375 79.25C211.938 79.75 211.552 80.1458 211.219 80.4375C210.906 80.7292 210.51 81.0104 210.031 81.2812C209.135 81.8021 208.385 82.0625 207.781 82.0625C207.635 82.0625 207.562 82.0104 207.562 81.9062C207.562 81.8438 207.76 81.7083 208.156 81.5C208.552 81.2917 208.927 81.0417 209.281 80.75C210.177 80 210.917 79.2292 211.5 78.4375C211.375 78.3125 210.75 77.7708 209.625 76.8125C209.479 76.7083 209.26 76.5312 208.969 76.2812C208.906 76.2396 208.781 76.1458 208.594 76C208.406 75.8542 208.312 75.75 208.312 75.6875C208.312 75.5833 208.365 75.5312 208.469 75.5312C208.781 75.5312 209.281 75.75 209.969 76.1875C210.656 76.6042 211.375 77.1042 212.125 77.6875C212.417 77.3333 212.646 77 212.812 76.6875C212.979 76.375 213.167 75.9896 213.375 75.5312C213.479 75.3021 213.542 75.1042 213.562 74.9375C213.583 74.75 213.594 74.6354 213.594 74.5938C213.594 74.3646 213.656 74.25 213.781 74.25C213.927 74.25 214.125 74.3646 214.375 74.5938C214.812 75.0104 215.031 75.2917 215.031 75.4375C215.031 75.5208 214.979 75.6146 214.875 75.7188C214.625 75.9688 214.396 76.3021 214.188 76.7188C214.062 76.9688 213.833 77.3229 213.5 77.7812C213.396 77.9062 213.312 78.0208 213.25 78.125C213.188 78.2292 213.125 78.3229 213.062 78.4062C213.542 78.7604 214.25 79.3646 215.188 80.2188C215.417 80.4271 215.562 80.625 215.625 80.8125C215.708 80.9792 215.75 81.2083 215.75 81.5C215.75 81.7083 215.698 81.8854 215.594 82.0312C215.49 82.1562 215.354 82.2188 215.188 82.2188ZM221.688 70.7812C221.75 70.7812 221.812 70.8125 221.875 70.875C221.938 70.9167 221.979 70.9792 222 71.0625V71.125C222 71.2708 221.885 71.5521 221.656 71.9688L219.406 75.875C219.24 76.2292 219.021 76.4062 218.75 76.4062C218.479 76.4062 218.25 76.2396 218.062 75.9062C217.875 75.6354 217.646 75.2292 217.375 74.6875C217.25 74.5 217.146 74.3125 217.062 74.125C216.979 73.9375 216.917 73.8021 216.875 73.7188C216.646 73.3229 216.531 73.0417 216.531 72.875C216.531 72.7917 216.562 72.7292 216.625 72.6875C216.688 72.625 216.75 72.5938 216.812 72.5938C217.042 72.5938 217.25 72.7188 217.438 72.9688C217.583 73.1146 217.698 73.2708 217.781 73.4375L218.125 73.9062L218.75 74.625L219.031 74.1875C219.323 73.6875 220.01 72.6979 221.094 71.2188C221.323 70.9271 221.521 70.7812 221.688 70.7812ZM187.594 85C186.99 85 186.552 84.8854 186.281 84.6562C186.031 84.4271 185.812 83.9688 185.625 83.2812C185.604 83.2396 185.594 83.1875 185.594 83.125C185.594 83.0417 185.656 83 185.781 83L185.969 83.0312C186.448 83.1562 186.979 83.2188 187.562 83.2188L190.375 83.125L190.219 64.0625C190.219 63.6458 190.198 63.3229 190.156 63.0938C190.135 62.8646 190.073 62.6562 189.969 62.4688C189.844 62.2396 189.781 62.0729 189.781 61.9688C189.781 61.8229 189.875 61.75 190.062 61.75C190.458 61.75 191.167 61.9479 192.188 62.3438L199.875 61.9062L200.281 61.875C200.573 61.875 200.885 61.9896 201.219 62.2188C201.552 62.4479 201.719 62.7083 201.719 63C201.719 63.1042 201.688 63.2292 201.625 63.375C201.562 63.5 201.531 63.5938 201.531 63.6562L201.406 82.7812L203.094 82.7188C203.49 82.6979 203.875 82.6354 204.25 82.5312C204.458 82.4896 204.604 82.4688 204.688 82.4688C204.938 82.4688 205.25 82.6562 205.625 83.0312C206 83.3854 206.188 83.7083 206.188 84C206.188 84.25 205.906 84.3958 205.344 84.4375L187.875 85H187.594ZM176 79.0625C176 78.8542 176.188 78.5729 176.562 78.2188C178.292 76.5729 179.823 74.875 181.156 73.125C182.49 71.375 183.635 69.5 184.594 67.5L179.938 68C179.75 68.0208 179.562 68.0417 179.375 68.0625C179.208 68.0833 179.031 68.0938 178.844 68.0938C178.552 68.0938 178.302 68.0208 178.094 67.875C177.76 67.5833 177.5 67.2812 177.312 66.9688C177.146 66.6562 177.062 66.4479 177.062 66.3438C177.062 66.2188 177.146 66.1562 177.312 66.1562H177.469C177.823 66.2188 178.198 66.25 178.594 66.25C178.885 66.25 179.104 66.2396 179.25 66.2188L185.375 65.5938C185.542 65.5729 185.74 65.5625 185.969 65.5625C186.385 65.5625 186.708 65.6771 186.938 65.9062C187.188 66.1146 187.312 66.3333 187.312 66.5625C187.312 66.7083 186.885 67.5208 186.031 69C185.177 70.4583 184.406 71.6354 183.719 72.5312C186.906 74.6146 188.5 75.8854 188.5 76.3438C188.396 76.7188 188.26 77.0312 188.094 77.2812C187.927 77.5312 187.74 77.6562 187.531 77.6562C187.365 77.6562 187.156 77.5104 186.906 77.2188C186.135 76.3229 185.042 75.3438 183.625 74.2812L183.594 85.8438C183.594 86.1146 183.542 86.3229 183.438 86.4688C183.333 86.6354 183.188 86.7188 183 86.7188C182.875 86.7188 182.677 86.6562 182.406 86.5312C182.156 86.4062 181.927 86.2396 181.719 86.0312C181.531 85.8438 181.438 85.625 181.438 85.375L181.469 85.1562C181.531 84.8646 181.583 84.4583 181.625 83.9375C181.667 83.3958 181.688 82.9583 181.688 82.625L181.875 74.7812C180.667 76.0312 179.5 77.0938 178.375 77.9688C177.25 78.8229 176.531 79.25 176.219 79.25C176.073 79.25 176 79.1875 176 79.0625ZM180.188 60.25C180.188 60.125 180.292 59.9479 180.5 59.7188C180.708 59.4688 180.938 59.3438 181.188 59.3438C181.417 59.3438 181.896 59.6875 182.625 60.375C183.354 61.0417 184.052 61.7708 184.719 62.5625C185.385 63.3333 185.719 63.7917 185.719 63.9375C185.719 64.1667 185.542 64.4271 185.188 64.7188C184.854 64.9896 184.594 65.125 184.406 65.125C184.24 65.125 184.042 64.9792 183.812 64.6875C182.854 63.3542 181.74 62.0417 180.469 60.75C180.281 60.5208 180.188 60.3542 180.188 60.25ZM192.219 68.9062L199.531 68.5312V63.6562L192.188 64.0312L192.219 68.9062ZM192.25 75.2812L199.5 74.9062V70.25L192.219 70.625L192.25 75.2812ZM192.312 83.0625L199.469 82.8438L199.5 76.6562L192.281 76.9688L192.312 83.0625ZM259.812 67.9375C259.688 67.9375 259.521 67.8021 259.312 67.5312C259.104 67.2396 259.01 66.9896 259.031 66.7812C259.073 66.6146 259.104 66.1458 259.125 65.375C259.146 64.8542 259.156 63.9375 259.156 62.625C259.156 61.7083 259.146 61.0938 259.125 60.7812L258.094 60.875C257.365 60.9792 256.74 61.0312 256.219 61.0312C256.073 61.0312 255.865 60.9167 255.594 60.6875C255.323 60.4583 255.188 60.2917 255.188 60.1875C255.188 60.0208 255.365 59.9583 255.719 60C255.948 60.0208 256.625 60.0104 257.75 59.9688C259.292 59.8646 260.406 59.8021 261.094 59.7812C261.448 59.7604 261.771 59.7292 262.062 59.6875C262.375 59.625 262.594 59.5833 262.719 59.5625C262.906 59.5417 263.073 59.5625 263.219 59.625C263.365 59.6875 263.5 59.7708 263.625 59.875C263.771 59.9583 263.885 60.0208 263.969 60.0625C264.156 60.1875 264.25 60.3021 264.25 60.4062C264.25 60.4896 264.198 60.5729 264.094 60.6562C264.01 60.7188 263.917 60.75 263.812 60.75C263.708 60.75 263.562 60.7396 263.375 60.7188C263.208 60.6979 263.021 60.6875 262.812 60.6875C262.042 60.6875 261.25 60.7083 260.438 60.75C260.417 60.9167 260.406 61.3333 260.406 62C260.365 63.125 260.344 64.2292 260.344 65.3125V66.5312V66.8125C260.344 67.1667 260.312 67.3958 260.25 67.5C260.062 67.7917 259.917 67.9375 259.812 67.9375ZM256.469 73.4688C256.24 73.4688 255.958 73.2917 255.625 72.9375C255.375 72.6875 255.25 72.5 255.25 72.375C255.25 72.3125 255.292 72.2812 255.375 72.2812C255.458 72.2604 255.562 72.25 255.688 72.25L256.375 72.2188C256.771 72.2188 257.031 72.2083 257.156 72.1875C257.552 72.1875 257.885 72.1771 258.156 72.1562C259.948 71.9896 261.156 71.8542 261.781 71.75C262.094 71.7083 262.375 71.6667 262.625 71.625C262.875 71.5625 263.073 71.5312 263.219 71.5312C263.51 71.5312 263.802 71.6771 264.094 71.9688C264.323 72.1979 264.438 72.3854 264.438 72.5312C264.438 72.6562 264.365 72.7396 264.219 72.7812C264.115 72.8021 263.5 72.8438 262.375 72.9062C261.75 72.9271 260.979 72.9792 260.062 73.0625C259.146 73.1458 258.344 73.2292 257.656 73.3125C257.531 73.3333 257.354 73.3646 257.125 73.4062C256.896 73.4479 256.677 73.4688 256.469 73.4688ZM261.125 80.4375C260.917 80.7083 260.698 80.8438 260.469 80.8438C260.406 80.8438 260.375 80.7917 260.375 80.6875C260.375 80.5417 260.417 80.375 260.5 80.1875C260.5 80.1875 260.708 79.7708 261.125 78.9375C261.146 78.8542 261.177 78.7708 261.219 78.6875C261.26 78.6042 261.292 78.5312 261.312 78.4688V78.4375C261.312 78.3958 261.281 78.3542 261.219 78.3125C261.156 78.2708 261.083 78.2604 261 78.2812C260.667 78.3021 260.167 78.3542 259.5 78.4375C258.854 78.5208 258.375 78.6042 258.062 78.6875C257.938 78.7292 257.781 78.7812 257.594 78.8438C257.427 78.9062 257.292 78.9375 257.188 78.9375C256.812 78.9375 256.5 78.8229 256.25 78.5938C256.042 78.4479 255.885 78.3021 255.781 78.1562L255.719 78C255.719 77.8958 255.896 77.8646 256.25 77.9062C256.729 77.9479 257.719 77.8854 259.219 77.7188L259.844 77.625C260.01 77.6042 260.271 77.5729 260.625 77.5312C261 77.4688 261.292 77.4062 261.5 77.3438C261.562 77.3229 261.625 77.3021 261.688 77.2812C261.771 77.2396 261.844 77.2188 261.906 77.2188C262.01 77.2188 262.135 77.2708 262.281 77.375C262.448 77.4792 262.583 77.5729 262.688 77.6562C262.833 77.7604 262.927 77.8542 262.969 77.9375C263.031 78 263.052 78.0833 263.031 78.1875C263.031 78.2917 262.979 78.3854 262.875 78.4688C262.771 78.5521 262.698 78.6146 262.656 78.6562C262.615 78.7188 262.469 78.875 262.219 79.125C262.115 79.2917 261.927 79.5208 261.656 79.8125C261.406 80.1042 261.229 80.3125 261.125 80.4375ZM259.562 86.5938C259.562 86.5312 259.667 86.3646 259.875 86.0938C260.104 85.8438 260.281 85.6458 260.406 85.5C260.719 85.0833 261.094 84.4792 261.531 83.6875C261.99 82.8958 262.25 82.375 262.312 82.125C262.354 82 262.292 81.9375 262.125 81.9375C261.792 81.9375 260.875 82.0312 259.375 82.2188C258.396 82.3438 257.667 82.4688 257.188 82.5938C257.083 82.6562 256.979 82.6875 256.875 82.6875C256.708 82.6875 256.531 82.5729 256.344 82.3438C256.26 82.1979 256.219 82.0625 256.219 81.9375C256.219 81.8542 256.271 81.7708 256.375 81.6875L256.469 81.5625C256.531 81.4375 256.604 81.2708 256.688 81.0625C256.771 80.8542 256.844 80.6562 256.906 80.4688C257.01 80.1354 257.083 79.7708 257.125 79.375C257.146 79.1458 257.271 79.0833 257.5 79.1875C257.792 79.3333 258.01 79.4792 258.156 79.625C258.323 79.75 258.375 79.8438 258.312 79.9062C258.104 80.1562 257.938 80.4375 257.812 80.75C257.708 81.0833 257.646 81.3021 257.625 81.4062C257.625 81.4896 257.677 81.5312 257.781 81.5312C258.094 81.5312 258.562 81.4792 259.188 81.375C259.542 81.3333 259.979 81.2812 260.5 81.2188C261.021 81.1562 261.438 81.0938 261.75 81.0312L262.531 80.875C262.594 80.8542 262.677 80.8438 262.781 80.8438C262.885 80.8438 262.99 80.8854 263.094 80.9688C263.198 81.0312 263.312 81.1146 263.438 81.2188C263.646 81.4062 263.781 81.5625 263.844 81.6875C263.906 81.7917 263.938 81.9167 263.938 82.0625C263.938 82.1458 263.875 82.25 263.75 82.375C263.646 82.5 263.521 82.6979 263.375 82.9688C262.771 84.1979 261.99 85.2292 261.031 86.0625C260.76 86.2708 260.458 86.4479 260.125 86.5938C259.979 86.6354 259.844 86.6562 259.719 86.6562C259.615 86.6771 259.562 86.6562 259.562 86.5938ZM241.812 82.0625C241.812 82.5833 241.917 82.9688 242.125 83.2188C242.333 83.4688 242.677 83.6354 243.156 83.7188C243.635 83.8021 244.365 83.8438 245.344 83.8438C246.656 83.8438 247.771 83.7396 248.688 83.5312C249.021 83.4688 249.281 83.3333 249.469 83.125C249.656 82.8958 249.865 82.3854 250.094 81.5938C250.323 80.7812 250.583 79.5 250.875 77.75C250.958 77.3125 251.052 76.9792 251.156 76.75C251.26 76.5208 251.365 76.4062 251.469 76.4062C251.823 76.4062 252 77.4479 252 79.5312C252 80.5521 251.938 81.6771 251.812 82.9062C251.75 83.6354 251.521 84.2083 251.125 84.625C250.75 85.0625 250.115 85.375 249.219 85.5625C248.344 85.7708 247.115 85.875 245.531 85.875C244.344 85.875 243.365 85.8125 242.594 85.6875C241.823 85.5625 241.167 85.25 240.625 84.75C240.083 84.2708 239.812 83.5104 239.812 82.4688V82.375L239.938 73.625L236.594 73.7812C235.865 77.2604 234.552 79.9792 232.656 81.9375C230.781 83.875 228.208 85.3854 224.938 86.4688C224.708 86.5521 224.51 86.5938 224.344 86.5938C224.115 86.5938 224 86.5208 224 86.375C224 86.1875 224.229 85.9583 224.688 85.6875C226.604 84.6458 228.177 83.6146 229.406 82.5938C230.635 81.5729 231.667 80.375 232.5 79C233.354 77.6042 234.01 75.9062 234.469 73.9062L228.656 74.2188C228.469 74.2396 228.208 74.25 227.875 74.25C227.354 74.25 226.938 74.1562 226.625 73.9688C226.312 73.7604 226.042 73.3438 225.812 72.7188L225.75 72.4688C225.75 72.3229 225.833 72.25 226 72.25C226.083 72.25 226.146 72.2604 226.188 72.2812C226.646 72.3854 227.125 72.4375 227.625 72.4375H227.938L237.625 71.9062L237.656 66.9375L232.531 67.25C232.01 68.0833 231.312 69.0521 230.438 70.1562C229.562 71.2604 228.927 71.8125 228.531 71.8125C228.406 71.8125 228.344 71.7292 228.344 71.5625C228.344 71.2917 228.49 70.9375 228.781 70.5C229.573 69.2917 230.24 68.0729 230.781 66.8438C231.344 65.6146 231.76 64.5312 232.031 63.5938C232.302 62.6562 232.438 62 232.438 61.625C232.438 61.375 232.427 61.1875 232.406 61.0625L232.375 60.875C232.375 60.6875 232.469 60.5938 232.656 60.5938C232.969 60.5938 233.406 60.7604 233.969 61.0938C234.531 61.4271 234.812 61.7292 234.812 62C234.812 62.125 234.688 62.5312 234.438 63.2188C234.188 63.8854 233.875 64.625 233.5 65.4375L237.688 65.1875L237.719 60.4375C237.719 60.3125 237.688 60.1458 237.625 59.9375C237.562 59.7292 237.479 59.5521 237.375 59.4062C237.292 59.2396 237.25 59.1354 237.25 59.0938C237.25 58.9479 237.385 58.875 237.656 58.875C238.052 58.875 238.5 58.9479 239 59.0938C239.521 59.2188 239.781 59.4792 239.781 59.875L239.688 65.0625L244.219 64.7812C244.781 64.7396 245.229 64.6562 245.562 64.5312C245.729 64.4896 245.844 64.4688 245.906 64.4688C246.198 64.4688 246.562 64.6562 247 65.0312C247.438 65.3854 247.656 65.6979 247.656 65.9688C247.656 66.2188 247.406 66.3646 246.906 66.4062L239.656 66.8125L239.562 71.8125L247.781 71.375C248.365 71.3333 248.823 71.25 249.156 71.125C249.281 71.0833 249.385 71.0625 249.469 71.0625C249.594 71.0625 249.802 71.1562 250.094 71.3438C250.385 71.5104 250.646 71.7188 250.875 71.9688C251.104 72.1979 251.219 72.4062 251.219 72.5938C251.219 72.8646 250.969 73.0208 250.469 73.0625L241.938 73.5L241.812 82.0625Z" fill="#333333"/>
</svg>
