<svg width="350" height="88" viewBox="0 0 350 88" fill="none" xmlns="http://www.w3.org/2000/svg">
<path d="M131.934 8.19922C131.77 8.19922 131.852 8.05859 132.18 7.77734C132.508 7.49609 132.906 7.15625 133.375 6.75781C133.844 6.33594 134.371 5.78516 134.957 5.10547C135.332 4.66016 135.613 4.19141 135.801 3.69922C135.918 3.41797 136.047 3.27734 136.188 3.27734C136.305 3.27734 136.48 3.37109 136.715 3.55859C137.184 3.93359 137.418 4.25 137.418 4.50781C137.418 4.67187 137.324 4.78906 137.137 4.85938C137.043 4.88281 136.902 4.98828 136.715 5.17578C136.527 5.33984 136.387 5.46875 136.293 5.5625C135.285 6.54688 134.348 7.26172 133.48 7.70703C132.777 8.03516 132.309 8.19922 132.074 8.19922H131.934ZM135.625 14.7383C135.555 14.7383 135.438 14.6445 135.273 14.457C135.133 14.2461 135.027 14.0469 134.957 13.8594C134.934 13.7188 134.934 13.543 134.957 13.332C135.004 13.0977 135.027 12.9219 135.027 12.8047C135.074 12.3359 135.098 11.9609 135.098 11.6797C135.121 11.4219 135.121 11.1406 135.098 10.8359C135.098 10.5313 135.098 10.332 135.098 10.2383L135.062 9.71094C134.5 10.1094 134.066 10.3906 133.762 10.5547C133.082 10.9297 132.59 11.1641 132.285 11.2578C131.91 11.3984 131.57 11.4688 131.266 11.4688C131.102 11.4688 131.008 11.4453 130.984 11.3984C130.938 11.3047 131.406 10.9648 132.391 10.3789C133.328 9.79297 134.348 9.01953 135.449 8.05859C136.059 7.49609 136.527 6.95703 136.855 6.44141C136.902 6.37109 136.938 6.28906 136.961 6.19531C137.008 6.07812 137.055 6.00781 137.102 5.98438C137.172 5.96094 137.266 5.97266 137.383 6.01953C137.688 6.18359 137.945 6.41797 138.156 6.72266C138.25 6.83984 138.297 6.95703 138.297 7.07422C138.297 7.19141 138.238 7.30859 138.121 7.42578C138.004 7.51953 137.887 7.58984 137.77 7.63672C137.371 7.89453 137.008 8.17578 136.68 8.48047C136.352 8.78516 136.141 8.98438 136.047 9.07812C136.398 9.35938 136.574 9.55859 136.574 9.67578L136.469 10.4141C136.422 10.625 136.398 11.1523 136.398 11.9961C136.398 12.8164 136.422 13.3672 136.469 13.6484V13.7188C136.469 13.8359 136.434 13.9648 136.363 14.1055C136.316 14.2227 136.281 14.3047 136.258 14.3516C136.094 14.6094 135.883 14.7383 135.625 14.7383ZM139.211 23.668C138.859 23.668 138.52 23.4102 138.191 22.8945C137.77 22.2383 137.359 21.6992 136.961 21.2773L136.047 20.3281C135.555 20.8906 135.121 21.3359 134.746 21.6641C134.395 21.9922 133.949 22.3086 133.41 22.6133C132.402 23.1992 131.559 23.4922 130.879 23.4922C130.715 23.4922 130.633 23.4336 130.633 23.3164C130.633 23.2461 130.855 23.0938 131.301 22.8594C131.746 22.625 132.168 22.3438 132.566 22.0156C133.574 21.1719 134.406 20.3047 135.062 19.4141C134.922 19.2734 134.219 18.6641 132.953 17.5859C132.789 17.4688 132.543 17.2695 132.215 16.9883C132.145 16.9414 132.004 16.8359 131.793 16.6719C131.582 16.5078 131.477 16.3906 131.477 16.3203C131.477 16.2031 131.535 16.1445 131.652 16.1445C132.004 16.1445 132.566 16.3906 133.34 16.8828C134.113 17.3516 134.922 17.9141 135.766 18.5703C136.094 18.1719 136.352 17.7969 136.539 17.4453C136.727 17.0938 136.938 16.6602 137.172 16.1445C137.289 15.8867 137.359 15.6641 137.383 15.4766C137.406 15.2656 137.418 15.1367 137.418 15.0898C137.418 14.832 137.488 14.7031 137.629 14.7031C137.793 14.7031 138.016 14.832 138.297 15.0898C138.789 15.5586 139.035 15.875 139.035 16.0391C139.035 16.1328 138.977 16.2383 138.859 16.3555C138.578 16.6367 138.32 17.0117 138.086 17.4805C137.945 17.7617 137.688 18.1602 137.312 18.6758C137.195 18.8164 137.102 18.9453 137.031 19.0625C136.961 19.1797 136.891 19.2852 136.82 19.3789C137.359 19.7773 138.156 20.457 139.211 21.418C139.469 21.6523 139.633 21.875 139.703 22.0859C139.797 22.2734 139.844 22.5312 139.844 22.8594C139.844 23.0938 139.785 23.293 139.668 23.457C139.551 23.5977 139.398 23.668 139.211 23.668ZM131.441 34.1797C131.09 34.1797 130.82 34.0859 130.633 33.8984C130.422 33.6875 130.316 33.5 130.316 33.3359C130.316 33.1719 130.41 32.9961 130.598 32.8086C130.621 32.7852 130.75 32.5977 130.984 32.2461C131.5 31.4258 132.086 30.3828 132.742 29.1172C133.422 27.8281 133.844 26.9492 134.008 26.4805C134.148 26.0352 134.277 25.6484 134.395 25.3203C134.535 24.9922 134.652 24.8281 134.746 24.8281C134.91 24.8281 135.051 24.8867 135.168 25.0039C135.285 25.0977 135.402 25.2383 135.52 25.4258C135.66 25.5898 135.766 25.707 135.836 25.7773C136 25.9648 136.082 26.1406 136.082 26.3047C136.082 26.4219 136.035 26.5391 135.941 26.6562C135.848 26.7734 135.789 26.8555 135.766 26.9023L134.219 29.5039C133.82 30.2305 133.293 31.1328 132.637 32.2109C132.543 32.3281 132.496 32.4453 132.496 32.5625C132.496 32.6562 132.602 32.7031 132.812 32.7031C133.258 32.7031 134.09 32.6445 135.309 32.5273C136.527 32.4336 137.348 32.3516 137.77 32.2812C138.379 32.2109 138.801 32.1406 139.035 32.0703C139.293 32 139.668 32.1758 140.16 32.5977C140.746 33.0898 140.875 33.4062 140.547 33.5469C140.359 33.6406 139.996 33.6875 139.457 33.6875H138.051C137.746 33.6875 137.266 33.7109 136.609 33.7578C136.211 33.7578 135.766 33.7695 135.273 33.793C134.781 33.8164 134.371 33.8398 134.043 33.8633C133.668 33.8867 132.941 33.957 131.863 34.0742L131.441 34.1797ZM146.383 18.6758C146.664 18.6758 146.805 18.8047 146.805 19.0625C146.805 19.2031 146.676 19.4023 146.418 19.6602C145.715 20.5273 144.32 22.1797 142.234 24.6172C142.07 24.8281 141.918 24.9336 141.777 24.9336C141.66 24.9336 141.402 24.7578 141.004 24.4062C140.676 24.125 140.512 23.8906 140.512 23.7031C140.512 23.4922 140.688 23.293 141.039 23.1055C141.578 22.8008 142.387 22.1914 143.465 21.2773C144.543 20.3164 145.34 19.5547 145.855 18.9922C146.066 18.7812 146.242 18.6758 146.383 18.6758ZM98.1133 34.25C97.7383 34.25 97.4336 34.2148 97.1992 34.1445C96.9883 34.0977 96.8242 33.9922 96.707 33.8281C96.332 33.3359 96.0859 32.8789 95.9688 32.457C95.9453 32.4102 95.9336 32.3398 95.9336 32.2461C95.9336 32.082 96.0156 32 96.1797 32L96.3555 32.0352C96.8242 32.1758 97.4922 32.2461 98.3594 32.2461L110.242 31.9648V28.9414L103.176 29.2227H102.402C101.934 29.2227 101.605 29.1289 101.418 28.9414C100.785 28.3086 100.469 27.7812 100.469 27.3594C100.469 27.1953 100.551 27.1133 100.715 27.1133C100.809 27.1133 100.891 27.125 100.961 27.1484C101.43 27.2891 101.945 27.3594 102.508 27.3594H102.824L110.277 27.1133V24.582L104.793 24.793L104.828 25.2148V25.3203C104.828 25.7188 104.652 25.918 104.301 25.918C104.09 25.918 103.809 25.8477 103.457 25.707C103.059 25.5195 102.789 25.3672 102.648 25.25C102.531 25.1094 102.473 24.9219 102.473 24.6875L102.508 24.3711C102.555 23.9961 102.578 23.6562 102.578 23.3516C102.578 23.0938 102.566 22.8945 102.543 22.7539L101.945 16.9883C101.875 16.3086 101.723 15.7227 101.488 15.2305C101.348 14.8555 101.277 14.6328 101.277 14.5625C101.277 14.4219 101.395 14.3516 101.629 14.3516C102.004 14.3516 102.789 14.5508 103.984 14.9492L110.312 14.5977V12.1719L100.188 12.6992C100 12.6992 99.8125 12.7109 99.625 12.7344C99.4609 12.7578 99.2852 12.7695 99.0977 12.7695C98.6289 12.7695 98.3008 12.6758 98.1133 12.4883C97.5977 11.9727 97.2812 11.5859 97.1641 11.3281L97.0938 11.0469C97.0938 10.9062 97.1758 10.8359 97.3398 10.8359H97.4805C97.8789 10.9062 98.3711 10.9414 98.957 10.9414H99.3789L110.348 10.3438V8.26953C108.801 8.45703 106.891 8.59766 104.617 8.69141C103.492 8.73828 102.648 8.78516 102.086 8.83203H101.734C101.359 8.83203 101.066 8.79688 100.855 8.72656C100.668 8.63281 100.574 8.52734 100.574 8.41016C100.574 8.26953 100.691 8.14063 100.926 8.02344C101.16 7.88281 101.5 7.77734 101.945 7.70703C108.555 6.86328 113.781 5.86719 117.625 4.71875C118.234 4.53125 118.715 4.26172 119.066 3.91016C119.207 3.76953 119.324 3.69922 119.418 3.69922C119.723 3.69922 120.098 3.99219 120.543 4.57812C121.012 5.14062 121.246 5.5625 121.246 5.84375C121.246 6.10156 121.082 6.26562 120.754 6.33594C118.035 6.96875 115.281 7.50781 112.492 7.95312V10.2383L122.512 9.67578C123.027 9.62891 123.52 9.53516 123.988 9.39453L124.164 9.35938C124.258 9.35938 124.457 9.45312 124.762 9.64062C125.066 9.80469 125.336 10.0156 125.57 10.2734C125.805 10.5078 125.922 10.7187 125.922 10.9062C125.922 11.1406 125.664 11.2812 125.148 11.3281L112.457 12.0312V14.4922L119.699 14.1055H119.945C120.461 14.1055 120.859 14.2695 121.141 14.5977C121.422 14.9023 121.562 15.1719 121.562 15.4062C121.562 15.5 121.527 15.6172 121.457 15.7578C121.41 15.8984 121.375 16.0273 121.352 16.1445L120.508 22.543C121.047 23.1758 121.316 23.6211 121.316 23.8789C121.316 23.9961 121.258 24.0781 121.141 24.125C121.047 24.1484 120.918 24.1719 120.754 24.1953C120.59 24.1953 120.473 24.1953 120.402 24.1953L112.387 24.5117V27.043L119.031 26.7969C119.453 26.7266 119.852 26.6445 120.227 26.5508C120.414 26.5039 120.543 26.4805 120.613 26.4805C120.848 26.4805 121.199 26.6797 121.668 27.0781C122.16 27.4531 122.406 27.7812 122.406 28.0625C122.406 28.3203 122.078 28.4727 121.422 28.5195L112.387 28.8711L112.352 31.9297L123.566 31.6484C124.152 31.6484 124.727 31.5664 125.289 31.4023L125.711 31.332C126.016 31.332 126.379 31.5664 126.801 32.0352C127.223 32.5273 127.434 32.8906 127.434 33.125C127.434 33.3594 127.199 33.5 126.73 33.5469L98.8516 34.2148L98.1133 34.25ZM104.23 18.957L110.312 18.6758V16.2852L104.02 16.6016L104.23 18.957ZM104.617 23.1406L110.277 22.8945V20.3281L104.406 20.5742L104.617 23.1406ZM118.504 22.5781L118.715 19.9414L112.422 20.2227V22.8242L118.504 22.5781ZM118.855 18.2539L119.066 15.8633L112.457 16.1797L112.422 18.5703L118.855 18.2539ZM185.652 14.1758C185.395 14.1758 185.078 13.9766 184.703 13.5781C184.422 13.2969 184.281 13.0859 184.281 12.9453C184.281 12.875 184.328 12.8398 184.422 12.8398C184.516 12.8164 184.633 12.8047 184.773 12.8047L185.547 12.7695C185.992 12.7695 186.285 12.7578 186.426 12.7344C186.871 12.7344 187.246 12.7227 187.551 12.6992C189.566 12.5117 190.926 12.3594 191.629 12.2422C191.98 12.1953 192.297 12.1484 192.578 12.1016C192.859 12.0312 193.082 11.9961 193.246 11.9961C193.574 11.9961 193.902 12.1602 194.23 12.4883C194.488 12.7461 194.617 12.957 194.617 13.1211C194.617 13.2617 194.535 13.3555 194.371 13.4023C194.254 13.4258 193.562 13.4727 192.297 13.543C191.594 13.5664 190.727 13.625 189.695 13.7188C188.664 13.8125 187.762 13.9063 186.988 14C186.848 14.0234 186.648 14.0586 186.391 14.1055C186.133 14.1523 185.887 14.1758 185.652 14.1758ZM193.633 29.5742C193.961 29.7852 194.125 29.9844 194.125 30.1719C194.125 30.4297 193.926 30.5938 193.527 30.6641C193.129 30.7344 192.566 30.7812 191.84 30.8047C190.785 30.8281 190.105 30.793 189.801 30.6992C189.285 30.4648 189.027 30.0781 189.027 29.5391L189.062 28.2383C189.109 27.8164 189.133 27.4414 189.133 27.1133C189.156 26.9023 189.168 26.4922 189.168 25.8828C188.816 26.6797 188.359 27.4531 187.797 28.2031C187.398 28.6953 187.047 29.1055 186.742 29.4336C186.438 29.7383 186.074 30.0312 185.652 30.3125C185.23 30.5938 184.844 30.7344 184.492 30.7344C184.281 30.7344 184.176 30.6641 184.176 30.5234C184.176 30.5 184.398 30.3242 184.844 29.9961C185.312 29.6445 185.781 29.1641 186.25 28.5547C186.953 27.6172 187.562 26.5156 188.078 25.25C187.164 25.3672 186.555 25.4727 186.25 25.5664C186.133 25.5898 186.027 25.625 185.934 25.6719C185.84 25.6953 185.723 25.6953 185.582 25.6719C185.465 25.625 185.301 25.5312 185.09 25.3906C184.879 25.2266 184.715 25.0742 184.598 24.9336C184.504 24.793 184.457 24.6992 184.457 24.6523C184.457 24.5352 184.633 24.4766 184.984 24.4766C185.852 24.4766 186.965 24.3828 188.324 24.1953C188.465 23.6562 188.535 22.7891 188.535 21.5938V20.9258C188.535 20.6445 188.594 20.4922 188.711 20.4688C188.734 20.4453 188.781 20.4336 188.852 20.4336C189.039 20.4336 189.297 20.5742 189.625 20.8555C189.883 21.0664 190.047 21.2305 190.117 21.3477C190.211 21.4414 190.223 21.5703 190.152 21.7344C190.129 21.7812 190.082 21.875 190.012 22.0156C189.941 22.1562 189.895 22.2969 189.871 22.4375C189.848 22.5547 189.801 22.7891 189.73 23.1406C189.66 23.4688 189.613 23.7617 189.59 24.0195C189.918 23.9961 190.328 23.9492 190.82 23.8789C191.312 23.8086 191.676 23.7383 191.91 23.668L192.613 23.4922C192.848 23.4453 193.234 23.6445 193.773 24.0898C193.867 24.1602 193.914 24.2422 193.914 24.3359C193.914 24.4297 193.867 24.5117 193.773 24.582C193.703 24.6289 193.609 24.6523 193.492 24.6523C193.07 24.6523 192.297 24.7227 191.172 24.8633L190.012 24.9688C190.27 25.1562 190.434 25.3203 190.504 25.4609C190.574 25.6016 190.586 25.7422 190.539 25.8828L190.434 26.4453C190.387 26.9141 190.34 27.4297 190.293 27.9922C190.27 28.5547 190.27 28.9883 190.293 29.293C190.293 29.4102 190.363 29.5156 190.504 29.6094C190.668 29.7031 190.832 29.75 190.996 29.75C191.582 29.75 192.238 29.6914 192.965 29.5742L193.281 29.5039C193.422 29.5039 193.539 29.5273 193.633 29.5742ZM200.383 14.8086C200.664 14.8086 200.805 14.9375 200.805 15.1953C200.805 15.3359 200.676 15.5352 200.418 15.793C199.715 16.6602 198.32 18.3125 196.234 20.75C196.07 20.9609 195.918 21.0664 195.777 21.0664C195.66 21.0664 195.402 20.8906 195.004 20.5391C194.676 20.2578 194.512 20.0234 194.512 19.8359C194.512 19.625 194.688 19.4258 195.039 19.2383C195.578 18.9336 196.387 18.3242 197.465 17.4102C198.543 16.4492 199.34 15.6875 199.855 15.125C200.066 14.9141 200.242 14.8086 200.383 14.8086ZM175.738 32.7031C175.809 32.7031 175.855 32.6914 175.879 32.668C175.926 32.668 175.949 32.6328 175.949 32.5625C176.863 30.2422 177.379 27.043 177.496 22.9648L175.738 23.0352C174.145 25.8008 172.422 28.0273 170.57 29.7148C168.742 31.3789 167.125 32.5625 165.719 33.2656C164.336 33.9688 163.445 34.3203 163.047 34.3203C162.812 34.3203 162.695 34.25 162.695 34.1094C162.695 33.875 163.047 33.5234 163.75 33.0547C167.57 30.4766 170.664 27.1836 173.031 23.1758L170.324 23.2812C168.918 24.9688 167.535 26.3633 166.176 27.4648C164.816 28.543 163.645 29.3281 162.66 29.8203C161.699 30.3125 161.066 30.5586 160.762 30.5586C160.574 30.5586 160.48 30.4883 160.48 30.3477C160.48 30.2305 160.562 30.0781 160.727 29.8906C160.914 29.6797 161.16 29.4688 161.465 29.2578C163.691 27.6875 165.707 25.7422 167.512 23.4219L163.961 23.5977C162.977 24.418 161.98 25.1445 160.973 25.7773C159.965 26.4102 159.262 26.7266 158.863 26.7266C158.699 26.7266 158.617 26.668 158.617 26.5508C158.617 26.293 158.863 25.9766 159.355 25.6016C161.371 24.0312 163.363 21.9453 165.332 19.3438L163.188 19.4844H162.555C161.945 19.4844 161.57 19.4023 161.43 19.2383C161.008 18.8164 160.715 18.3828 160.551 17.9375L160.48 17.6562C160.48 17.5156 160.551 17.4453 160.691 17.4453C160.809 17.4453 160.914 17.457 161.008 17.4805C161.43 17.5508 161.887 17.5859 162.379 17.5859H162.801L178.199 16.707C178.785 16.6602 179.23 16.5898 179.535 16.4961C179.723 16.4492 179.852 16.4258 179.922 16.4258C180.203 16.4258 180.496 16.5195 180.801 16.707C181.105 16.8945 181.363 17.1055 181.574 17.3398C181.809 17.5742 181.926 17.7617 181.926 17.9023C181.926 18.207 181.645 18.3828 181.082 18.4297L168.355 19.168C167.84 19.7773 167.078 20.6094 166.07 21.6641L178.164 21.0664H178.375C178.891 21.0664 179.277 21.1836 179.535 21.418C179.793 21.6523 179.922 21.8984 179.922 22.1562C179.922 22.2734 179.887 22.4141 179.816 22.5781C179.77 22.7422 179.746 22.8594 179.746 22.9297C179.605 25.9297 179.254 28.8242 178.691 31.6133C178.457 32.8555 178.094 33.7695 177.602 34.3555C177.133 34.9414 176.664 35.2344 176.195 35.2344C175.75 35.2344 175.094 34.9766 174.227 34.4609C173.359 33.9688 172.562 33.418 171.836 32.8086C171.109 32.1992 170.746 31.7773 170.746 31.543C170.746 31.4258 170.84 31.3672 171.027 31.3672C171.309 31.3672 171.707 31.4727 172.223 31.6836C173.488 32.1758 174.613 32.5156 175.598 32.7031H175.738ZM151.41 33.8984C151.41 33.7344 151.422 33.6055 151.445 33.5117C151.586 32.7852 151.656 31.8828 151.656 30.8047L151.938 9.60547V9.00781C151.938 8.04687 151.844 7.32031 151.656 6.82812C151.492 6.45313 151.41 6.19531 151.41 6.05469C151.41 5.89063 151.504 5.80859 151.691 5.80859C151.996 5.80859 152.863 6.08984 154.293 6.65234L158.934 6.23047L159.391 6.19531C159.578 6.19531 159.859 6.3125 160.234 6.54688C160.633 6.78125 160.832 7.03906 160.832 7.32031C160.832 7.46094 160.762 7.61328 160.621 7.77734C160.504 7.91797 160.422 8.03516 160.375 8.12891C159.461 9.95703 158.488 11.6445 157.457 13.1914C157.41 13.2852 157.387 13.3555 157.387 13.4023C157.387 13.543 157.422 13.6484 157.492 13.7188C158.5 14.8438 159.191 15.8984 159.566 16.8828C159.965 17.8672 160.164 18.957 160.164 20.1523C160.164 20.9727 159.988 21.6875 159.637 22.2969C159.309 22.9062 158.898 23.2109 158.406 23.2109C158.055 23.2109 157.539 22.9414 156.859 22.4023C156.203 21.8633 155.594 21.2656 155.031 20.6094C154.492 19.9297 154.223 19.4609 154.223 19.2031C154.223 19.0625 154.293 18.9922 154.434 18.9922C154.621 18.9922 154.926 19.1328 155.348 19.4141C155.84 19.7656 156.344 20.082 156.859 20.3633C157.375 20.6211 157.715 20.75 157.879 20.75C157.949 20.75 157.996 20.6094 158.02 20.3281C158.066 20.0469 158.09 19.8242 158.09 19.6602C158.09 18.8398 157.926 18.0195 157.598 17.1992C157.293 16.3789 156.719 15.4883 155.875 14.5273C155.594 14.1758 155.453 13.8359 155.453 13.5078C155.453 13.2266 155.559 12.8984 155.77 12.5234C156.754 10.8359 157.516 9.38281 158.055 8.16406L154.082 8.51562L153.73 34.3203C153.73 34.9766 153.531 35.3047 153.133 35.3047C153.039 35.3047 152.852 35.2461 152.57 35.1289C152.289 35.0352 152.02 34.8828 151.762 34.6719C151.527 34.4609 151.41 34.2031 151.41 33.8984ZM162.906 5.35156C162.906 5.23437 163.012 5.17578 163.223 5.17578C163.551 5.17578 164.359 5.35156 165.648 5.70312L175.246 5.14062H175.562C175.961 5.14062 176.324 5.25781 176.652 5.49219C177.004 5.72656 177.18 5.97266 177.18 6.23047C177.18 6.34766 177.145 6.47656 177.074 6.61719C177.027 6.75781 176.992 6.875 176.969 6.96875L176.266 13.4023C176.852 13.9648 177.145 14.375 177.145 14.6328C177.145 14.7734 177.062 14.8672 176.898 14.9141C176.758 14.9609 176.535 14.9961 176.23 15.0195L166.176 15.4766L166.211 15.7578V15.8633C166.211 16.3086 166.012 16.5312 165.613 16.5312C165.285 16.5312 164.91 16.4023 164.488 16.1445C164.066 15.8633 163.855 15.5938 163.855 15.3359V15.1602C163.926 14.6914 163.961 14.2461 163.961 13.8242L163.926 13.1914L163.539 7.56641C163.492 6.93359 163.375 6.40625 163.188 5.98438C163 5.67969 162.906 5.46875 162.906 5.35156ZM165.789 9.64062L174.508 9.14844L174.719 6.86328L165.648 7.35547L165.789 9.64062ZM166.07 13.7891L174.156 13.3672L174.367 10.8008L165.895 11.2578L166.07 13.7891ZM246.121 14.3867C245.957 14.3867 245.781 14.2812 245.594 14.0703C245.453 13.9063 245.359 13.7773 245.312 13.6836C245.266 13.5664 245.266 13.4141 245.312 13.2266L245.348 12.3828C245.371 12.2188 245.383 11.8203 245.383 11.1875V10.0273L244.328 10.5195L243.098 11.0469C242.793 11.1641 242.477 11.3047 242.148 11.4688C241.867 11.6094 241.621 11.6797 241.41 11.6797C241.246 11.6563 241.059 11.5977 240.848 11.5039C240.637 11.4102 240.473 11.3281 240.355 11.2578C240.098 11.0938 239.98 10.918 240.004 10.7305L240.109 10.3789C240.109 10.1914 240.121 10.0273 240.145 9.88672L240.18 7.84766V5.94922C240.18 5.57422 240.156 5.25781 240.109 5C240.062 4.71875 240.027 4.51953 240.004 4.40234C240.004 4.28516 240.039 4.20313 240.109 4.15625C240.133 4.13281 240.191 4.12109 240.285 4.12109C240.449 4.12109 240.766 4.22656 241.234 4.4375C241.633 4.625 241.797 4.85938 241.727 5.14062C241.68 5.30469 241.633 5.55078 241.586 5.87891L241.48 9.92188C241.48 10.0391 241.492 10.1328 241.516 10.2031C241.562 10.25 241.609 10.2734 241.656 10.2734C241.938 10.2734 242.277 10.1914 242.676 10.0273C243.426 9.79297 244.07 9.55859 244.609 9.32422L245.383 9.00781V6.6875C245.383 5.75 245.324 4.84766 245.207 3.98047C245.184 3.91016 245.172 3.82812 245.172 3.73438C245.172 3.5 245.266 3.38281 245.453 3.38281C245.477 3.38281 245.605 3.42969 245.84 3.52344C246.191 3.71094 246.449 3.875 246.613 4.01562C246.777 4.15625 246.871 4.23828 246.895 4.26172C246.988 4.33203 247.035 4.40234 247.035 4.47266C247.035 4.51953 247.012 4.57812 246.965 4.64844C246.941 4.71875 246.918 4.77734 246.895 4.82422L246.789 5.87891L246.754 9.11328L246.789 12.2422C246.789 12.7813 246.754 13.25 246.684 13.6484C246.566 14.1406 246.379 14.3867 246.121 14.3867ZM239.652 20.1523C239.395 20.1523 239.078 19.9531 238.703 19.5547C238.422 19.2734 238.281 19.0625 238.281 18.9219C238.281 18.8516 238.328 18.8164 238.422 18.8164C238.516 18.793 238.633 18.7812 238.773 18.7812L239.547 18.7461C239.992 18.7461 240.285 18.7344 240.426 18.7109C240.871 18.7109 241.246 18.6992 241.551 18.6758C243.566 18.4883 244.926 18.3359 245.629 18.2188C245.98 18.1719 246.297 18.125 246.578 18.0781C246.859 18.0078 247.082 17.9727 247.246 17.9727C247.574 17.9727 247.902 18.1367 248.23 18.4648C248.488 18.7227 248.617 18.9336 248.617 19.0977C248.617 19.2383 248.535 19.332 248.371 19.3789C248.254 19.4023 247.562 19.4492 246.297 19.5195C245.594 19.543 244.727 19.6016 243.695 19.6953C242.664 19.7891 241.762 19.8828 240.988 19.9766C240.848 20 240.648 20.0352 240.391 20.082C240.133 20.1289 239.887 20.1523 239.652 20.1523ZM244.363 34.6719C243.637 34.6719 243.074 34.6484 242.676 34.6016C242.301 34.5547 241.984 34.4141 241.727 34.1797C241.281 33.8516 240.977 33.1367 240.812 32.0352L240.707 30.9102C240.707 30.6289 240.684 30.2773 240.637 29.8555C240.262 29.9023 239.992 29.9492 239.828 29.9961C239.781 30.0195 239.699 30.0547 239.582 30.1016C239.488 30.125 239.418 30.1367 239.371 30.1367C239.207 30.1367 239.055 30.0898 238.914 29.9961C238.773 29.9023 238.598 29.7266 238.387 29.4688C238.223 29.2578 238.141 29.1172 238.141 29.0469C238.141 28.9766 238.223 28.9297 238.387 28.9062C238.551 28.8828 238.773 28.8711 239.055 28.8711C239.453 28.8711 239.969 28.8242 240.602 28.7305L240.566 28.2383C240.566 27.3008 240.508 26.5039 240.391 25.8477L240.355 25.6016C240.355 25.2734 240.484 25.1445 240.742 25.2148C241.023 25.3086 241.281 25.4258 241.516 25.5664C241.703 25.6602 241.832 25.7539 241.902 25.8477C241.973 25.918 241.996 26.0234 241.973 26.1641L241.867 27.6758V28.5898L244.961 28.2734C244.961 28.1094 244.973 27.7227 244.996 27.1133C245.02 26.4805 245.02 26.0703 244.996 25.8828C244.996 25.6953 244.973 25.5195 244.926 25.3555C244.902 25.168 244.879 25.0156 244.855 24.8984C244.855 24.7109 244.949 24.6172 245.137 24.6172C245.324 24.6172 245.559 24.7227 245.84 24.9336C246.168 25.1445 246.379 25.332 246.473 25.4961C246.59 25.6602 246.613 25.8594 246.543 26.0938C246.426 26.4688 246.344 26.8906 246.297 27.3594C246.25 27.8281 246.227 28.1094 246.227 28.2031C246.508 28.1797 246.766 28.1445 247 28.0977C247.234 28.0508 247.387 28.0273 247.457 28.0273C247.645 27.9805 247.867 27.957 248.125 27.957C248.266 27.9805 248.465 28.1211 248.723 28.3789C248.934 28.6602 249.039 28.8828 249.039 29.0469C249.039 29.2812 248.816 29.375 248.371 29.3281C247.973 29.2578 247.574 29.2227 247.176 29.2227C246.777 29.2227 246.438 29.2344 246.156 29.2578C246.086 30.1016 245.945 30.9336 245.734 31.7539C245.688 31.9414 245.605 32.0938 245.488 32.2109C245.371 32.3516 245.266 32.4219 245.172 32.4219C245.008 32.4219 244.902 32.3516 244.855 32.2109C244.832 32.0938 244.82 31.8945 244.82 31.6133C244.867 31.0039 244.891 30.2422 244.891 29.3281C244.258 29.375 243.766 29.4219 243.414 29.4688C242.875 29.5859 242.371 29.6562 241.902 29.6797C241.879 30.6406 241.926 31.4961 242.043 32.2461C242.113 32.7383 242.254 33.0781 242.465 33.2656C242.605 33.3828 242.77 33.4531 242.957 33.4766C243.168 33.5 243.379 33.5117 243.59 33.5117C243.801 33.5117 243.941 33.5117 244.012 33.5117C244.738 33.5117 245.418 33.4766 246.051 33.4062C246.238 33.3828 246.402 33.3359 246.543 33.2656C246.707 33.1953 246.824 33.1602 246.895 33.1602C247.105 33.1602 247.316 33.2305 247.527 33.3711C247.738 33.5117 247.844 33.6758 247.844 33.8633C247.844 34.0508 247.738 34.1914 247.527 34.2852C247.34 34.3789 247.035 34.4609 246.613 34.5312C245.863 34.625 245.113 34.6719 244.363 34.6719ZM254.383 18.6758C254.664 18.6758 254.805 18.8047 254.805 19.0625C254.805 19.2031 254.676 19.4023 254.418 19.6602C253.715 20.5273 252.32 22.1797 250.234 24.6172C250.07 24.8281 249.918 24.9336 249.777 24.9336C249.66 24.9336 249.402 24.7578 249.004 24.4062C248.676 24.125 248.512 23.8906 248.512 23.7031C248.512 23.4922 248.688 23.293 249.039 23.1055C249.578 22.8008 250.387 22.1914 251.465 21.2773C252.543 20.3164 253.34 19.5547 253.855 18.9922C254.066 18.7812 254.242 18.6758 254.383 18.6758ZM209.699 30.1719C211.785 29.5156 213.648 28.8008 215.289 28.0273C214.938 27.5352 214.492 26.9727 213.953 26.3398C213.766 26.1055 213.672 25.918 213.672 25.7773C213.672 25.5195 213.824 25.2969 214.129 25.1094C214.434 24.8984 214.668 24.793 214.832 24.793C215.02 24.793 215.219 24.9102 215.43 25.1445C216.766 26.7148 217.902 28.0977 218.84 29.293C219.777 30.4883 220.246 31.2148 220.246 31.4727C220.246 31.6836 220.082 31.9297 219.754 32.2109C219.449 32.5156 219.156 32.668 218.875 32.668C218.641 32.668 218.406 32.4805 218.172 32.1055C217.633 31.2852 217.023 30.3945 216.344 29.4336L212.125 31.543C211.656 31.7539 210.918 32.1289 209.91 32.668C209.066 33.1133 208.551 33.3359 208.363 33.3359C208.223 33.3359 208.047 33.2422 207.836 33.0547C207.625 32.8906 207.461 32.6797 207.344 32.4219C207.25 32.1875 207.25 32 207.344 31.8594C207.484 31.6016 207.555 30.5703 207.555 28.7656V16.6016C207.555 16.0391 207.531 15.582 207.484 15.2305C207.461 14.8789 207.367 14.5039 207.203 14.1055C207.18 14.0352 207.156 13.9766 207.133 13.9297C207.109 13.8828 207.098 13.8359 207.098 13.7891C207.098 13.6719 207.18 13.6133 207.344 13.6133C207.648 13.6133 208.41 13.8711 209.629 14.3867L217.258 13.8594C217.445 13.8359 217.656 13.8242 217.891 13.8242C218.148 13.8242 218.453 13.9414 218.805 14.1758C219.156 14.3867 219.332 14.6211 219.332 14.8789C219.332 14.9727 219.273 15.1133 219.156 15.3008C219.062 15.4883 219.016 15.6289 219.016 15.7227L218.102 22.332C218.664 22.9883 218.945 23.4336 218.945 23.668C218.945 23.7852 218.875 23.8672 218.734 23.9141C218.617 23.9609 218.43 23.9844 218.172 23.9844L209.664 24.3008L209.699 30.1719ZM203.934 14.3867C203.934 14.1523 204.086 13.8711 204.391 13.543C206.102 11.6445 207.59 9.75781 208.855 7.88281C210.121 6.00781 210.754 4.75391 210.754 4.12109L210.719 3.875V3.76953C210.719 3.44141 210.848 3.27734 211.105 3.27734C211.41 3.27734 211.832 3.48828 212.371 3.91016C212.934 4.30859 213.215 4.63672 213.215 4.89453C213.215 5.01172 213.156 5.16406 213.039 5.35156C212.688 5.91406 212.301 6.47656 211.879 7.03906L216.871 6.65234C217.293 6.62891 217.738 6.53516 218.207 6.37109C218.348 6.32422 218.453 6.30078 218.523 6.30078C218.875 6.30078 219.25 6.5 219.648 6.89844C220.07 7.27344 220.281 7.56641 220.281 7.77734C220.281 8.05859 220.023 8.22266 219.508 8.26953L213.496 8.69141C213.66 8.73828 214.023 8.98438 214.586 9.42969C215.172 9.875 215.699 10.332 216.168 10.8008C216.637 11.2695 216.871 11.5977 216.871 11.7852C216.871 11.9961 216.73 12.2539 216.449 12.5586C216.168 12.8398 215.922 12.9805 215.711 12.9805C215.523 12.9805 215.301 12.8281 215.043 12.5234C214.246 11.6563 213.438 10.8945 212.617 10.2383C212.336 10.0039 212.195 9.80469 212.195 9.64062C212.195 9.52344 212.254 9.37109 212.371 9.18359C212.488 8.99609 212.641 8.84375 212.828 8.72656L210.473 8.90234C209.348 10.2852 208.105 11.5859 206.746 12.8047C205.387 14 204.52 14.5977 204.145 14.5977C204.004 14.5977 203.934 14.5273 203.934 14.3867ZM216.59 18.043L216.836 15.582L209.594 16.0742V18.3945L216.59 18.043ZM216.133 22.4023L216.414 19.6953L209.629 20.0117V22.6484L216.133 22.4023ZM218.031 12.875C218.031 12.6406 218.184 12.3594 218.488 12.0312C219.637 10.6484 220.68 9.08984 221.617 7.35547C222.578 5.59766 223.059 4.36719 223.059 3.66406V3.52344C223.059 3.17188 223.188 2.99609 223.445 2.99609C223.609 2.99609 223.855 3.08984 224.184 3.27734C224.535 3.44141 224.852 3.64063 225.133 3.875C225.414 4.10937 225.555 4.34375 225.555 4.57812C225.555 4.78906 225.391 5.16406 225.062 5.70312C224.734 6.24219 224.559 6.52344 224.535 6.54688L231.461 5.98438C231.977 5.9375 232.422 5.85547 232.797 5.73828C232.844 5.71484 232.938 5.70312 233.078 5.70312C233.406 5.70312 233.758 5.89063 234.133 6.26562C234.531 6.61719 234.73 6.91016 234.73 7.14453C234.73 7.28516 234.66 7.40234 234.52 7.49609C234.402 7.56641 234.238 7.61328 234.027 7.63672L226.891 8.12891C227.547 8.55078 228.32 9.17187 229.211 9.99219C230.102 10.7891 230.547 11.3281 230.547 11.6094C230.547 11.7734 230.418 12.0312 230.16 12.3828C229.902 12.7109 229.656 12.875 229.422 12.875C229.234 12.875 229.035 12.7578 228.824 12.5234C227.676 11.2812 226.633 10.2969 225.695 9.57031C225.461 9.38281 225.344 9.20703 225.344 9.04297C225.344 8.85547 225.52 8.57422 225.871 8.19922L223.27 8.375C222.496 9.40625 221.559 10.4492 220.457 11.5039C219.379 12.5586 218.652 13.0859 218.277 13.0859C218.113 13.0859 218.031 13.0156 218.031 12.875ZM221.336 13.6484C221.336 13.5078 221.418 13.4375 221.582 13.4375C221.934 13.4375 222.73 13.7305 223.973 14.3164L231.039 13.7188L231.32 13.6836C231.414 13.6836 231.59 13.7305 231.848 13.8242C232.129 13.8945 232.387 14.0234 232.621 14.2109C232.879 14.375 233.008 14.5977 233.008 14.8789C233.008 14.9727 232.973 15.1016 232.902 15.2656C232.832 15.4297 232.797 15.5469 232.797 15.6172C232.773 18.1953 232.609 20.9492 232.305 23.8789L232.234 24.7578C232.164 25.7422 232.07 26.5625 231.953 27.2188C231.836 27.875 231.637 28.3906 231.355 28.7656C230.91 29.375 230.43 29.6797 229.914 29.6797C229.398 29.6797 228.742 29.3633 227.945 28.7305C227.148 28.0977 226.41 27.4062 225.73 26.6562C225.074 25.9062 224.746 25.4258 224.746 25.2148C224.746 25.0508 224.84 24.9688 225.027 24.9688C225.238 24.9688 225.531 25.0859 225.906 25.3203C226.773 25.8594 227.5 26.293 228.086 26.6211C228.672 26.9492 229.094 27.1133 229.352 27.1133C229.469 27.1133 229.551 27.0312 229.598 26.8672C230.137 23.8672 230.465 20.1055 230.582 15.582L223.973 16.0742C223.973 20.0352 224.008 26.3164 224.078 34.918C224.078 35.1289 224.02 35.2812 223.902 35.375C223.809 35.4922 223.68 35.5508 223.516 35.5508C223.328 35.5508 223.105 35.4805 222.848 35.3398C222.402 35.1523 222.086 34.9766 221.898 34.8125C221.711 34.6484 221.617 34.4609 221.617 34.25L221.652 34.0039C221.793 33.2305 221.863 32.3633 221.863 31.4023L221.758 16.5664C221.758 15.957 221.734 15.4883 221.688 15.1602C221.664 14.832 221.594 14.5156 221.477 14.2109C221.383 13.9297 221.336 13.7422 221.336 13.6484Z" fill="#333333"/>
<path d="M59.2812 68.2188C59.0104 68.2188 58.8125 68.125 58.6875 67.9375C58.5 67.6667 58.3125 67.4479 58.125 67.2812C57.9583 67.1146 57.6562 66.8854 57.2188 66.5938L57.3125 66.4375C58.2708 66.7708 58.9479 66.9375 59.3438 66.9375C59.6771 66.9375 60.0417 66.75 60.4375 66.375C60.8542 65.9792 61.2083 65.4167 61.5 64.6875C61.6458 64.3542 61.75 64.0833 61.8125 63.875C61.8958 63.6458 61.9583 63.3958 62 63.125V63.0625C62 62.875 61.9062 62.7812 61.7188 62.7812C61.5104 62.7812 61.1354 62.8438 60.5938 62.9688C60.3021 63.0521 59.9167 63.1771 59.4375 63.3438L59.1875 63.2812C59.1667 63.2604 59.1146 63.2292 59.0312 63.1875C58.9688 63.125 58.9167 63.0625 58.875 63C58.7708 62.8958 58.7188 62.8229 58.7188 62.7812L58.6875 62.6562C58.6875 62.5104 58.7604 62.375 58.9062 62.25C59.0729 62.125 59.1667 62.0312 59.1875 61.9688C59.3542 61.7812 59.6875 61.3229 60.1875 60.5938C60.2292 60.5521 60.3021 60.4583 60.4062 60.3125C60.5104 60.1458 60.5625 60 60.5625 59.875C60.5625 59.7292 59.9479 59.8333 58.7188 60.1875C57.4688 60.5625 56.8125 60.75 56.75 60.75C56.5417 60.75 56.3229 60.5729 56.0938 60.2188C55.9271 60.0521 55.8438 59.9167 55.8438 59.8125C55.8438 59.6667 56.0521 59.5833 56.4688 59.5625C56.9479 59.5417 57.6875 59.4583 58.6875 59.3125C59.7083 59.1667 60.3125 59.0729 60.5 59.0312L60.9375 58.9062C61 58.8854 61.0729 58.875 61.1562 58.875C61.2188 58.875 61.3125 58.9167 61.4375 59C61.5833 59.0833 61.7083 59.1458 61.8125 59.1875C62.0833 59.3125 62.2396 59.4583 62.2812 59.625V59.7188C62.2812 59.9062 62.1771 60.1042 61.9688 60.3125C61.8854 60.3958 61.7188 60.5729 61.4688 60.8438C61.2188 61.0938 61.0625 61.2604 61 61.3438C60.9167 61.4271 60.7917 61.5625 60.625 61.75C60.4583 61.9375 60.3646 62.0521 60.3438 62.0938C60.3438 62.1562 60.3646 62.1979 60.4062 62.2188C60.4479 62.2396 60.5 62.25 60.5625 62.25C61.1875 62.1667 61.6979 62.0729 62.0938 61.9688L62.5938 61.8125C62.8229 61.8125 62.9896 61.8958 63.0938 62.0625C63.2812 62.2708 63.4062 62.4479 63.4688 62.5938C63.5312 62.7188 63.5312 62.8438 63.4688 62.9688C63.4479 63.0312 63.4167 63.0938 63.375 63.1562C63.3333 63.2188 63.2917 63.2917 63.25 63.375C63.2292 63.4167 63.1875 63.5 63.125 63.625C63.0625 63.75 63.0208 63.875 63 64C62.625 65.0833 62.1771 66.0104 61.6562 66.7812C61.3646 67.1354 61.0417 67.4375 60.6875 67.6875C60.2083 68.0417 59.7396 68.2188 59.2812 68.2188ZM62.875 76.5938C62.5625 76.5938 62.2604 76.3646 61.9688 75.9062C61.5938 75.3229 61.2292 74.8438 60.875 74.4688L60.0625 73.625C59.625 74.125 59.2396 74.5208 58.9062 74.8125C58.5938 75.1042 58.1979 75.3854 57.7188 75.6562C56.8229 76.1771 56.0729 76.4375 55.4688 76.4375C55.3229 76.4375 55.25 76.3854 55.25 76.2812C55.25 76.2188 55.4479 76.0833 55.8438 75.875C56.2396 75.6667 56.6146 75.4167 56.9688 75.125C57.8646 74.375 58.6042 73.6042 59.1875 72.8125C59.0625 72.6875 58.4375 72.1458 57.3125 71.1875C57.1667 71.0833 56.9479 70.9062 56.6562 70.6562C56.5938 70.6146 56.4688 70.5208 56.2812 70.375C56.0938 70.2292 56 70.125 56 70.0625C56 69.9583 56.0521 69.9062 56.1562 69.9062C56.4688 69.9062 56.9688 70.125 57.6562 70.5625C58.3438 70.9792 59.0625 71.4792 59.8125 72.0625C60.1042 71.7083 60.3333 71.375 60.5 71.0625C60.6667 70.75 60.8542 70.3646 61.0625 69.9062C61.1667 69.6771 61.2292 69.4792 61.25 69.3125C61.2708 69.125 61.2812 69.0104 61.2812 68.9688C61.2812 68.7396 61.3438 68.625 61.4688 68.625C61.6146 68.625 61.8125 68.7396 62.0625 68.9688C62.5 69.3854 62.7188 69.6667 62.7188 69.8125C62.7188 69.8958 62.6667 69.9896 62.5625 70.0938C62.3125 70.3438 62.0833 70.6771 61.875 71.0938C61.75 71.3438 61.5208 71.6979 61.1875 72.1562C61.0833 72.2812 61 72.3958 60.9375 72.5C60.875 72.6042 60.8125 72.6979 60.75 72.7812C61.2292 73.1354 61.9375 73.7396 62.875 74.5938C63.1042 74.8021 63.25 75 63.3125 75.1875C63.3958 75.3542 63.4375 75.5833 63.4375 75.875C63.4375 76.0833 63.3854 76.2604 63.2812 76.4062C63.1771 76.5312 63.0417 76.5938 62.875 76.5938ZM55.9688 85.9375C55.6562 85.9375 55.4167 85.8542 55.25 85.6875C55.0625 85.5 54.9688 85.3333 54.9688 85.1875C54.9688 85.0417 55.0521 84.8854 55.2188 84.7188C55.2396 84.6979 55.3542 84.5312 55.5625 84.2188C56.0208 83.4896 56.5417 82.5625 57.125 81.4375C57.7292 80.2917 58.1042 79.5104 58.25 79.0938C58.375 78.6979 58.4896 78.3542 58.5938 78.0625C58.7188 77.7708 58.8229 77.625 58.9062 77.625C59.0521 77.625 59.1771 77.6771 59.2812 77.7812C59.3854 77.8646 59.4896 77.9896 59.5938 78.1562C59.7188 78.3021 59.8125 78.4062 59.875 78.4688C60.0208 78.6354 60.0938 78.7917 60.0938 78.9375C60.0938 79.0417 60.0521 79.1458 59.9688 79.25C59.8854 79.3542 59.8333 79.4271 59.8125 79.4688L58.4375 81.7812C58.0833 82.4271 57.6146 83.2292 57.0312 84.1875C56.9479 84.2917 56.9062 84.3958 56.9062 84.5C56.9062 84.5833 57 84.625 57.1875 84.625C57.5833 84.625 58.3229 84.5729 59.4062 84.4688C60.4896 84.3854 61.2188 84.3125 61.5938 84.25C62.1354 84.1875 62.5104 84.125 62.7188 84.0625C62.9479 84 63.2812 84.1562 63.7188 84.5312C64.2396 84.9688 64.3542 85.25 64.0625 85.375C63.8958 85.4583 63.5729 85.5 63.0938 85.5H61.8438C61.5729 85.5 61.1458 85.5208 60.5625 85.5625C60.2083 85.5625 59.8125 85.5729 59.375 85.5938C58.9375 85.6146 58.5729 85.6354 58.2812 85.6562C57.9479 85.6771 57.3021 85.7396 56.3438 85.8438L55.9688 85.9375ZM69.25 72.1562C69.5 72.1562 69.625 72.2708 69.625 72.5C69.625 72.625 69.5104 72.8021 69.2812 73.0312C68.6562 73.8021 67.4167 75.2708 65.5625 77.4375C65.4167 77.625 65.2812 77.7188 65.1562 77.7188C65.0521 77.7188 64.8229 77.5625 64.4688 77.25C64.1771 77 64.0312 76.7917 64.0312 76.625C64.0312 76.4375 64.1875 76.2604 64.5 76.0938C64.9792 75.8229 65.6979 75.2812 66.6562 74.4688C67.6146 73.6146 68.3229 72.9375 68.7812 72.4375C68.9688 72.25 69.125 72.1562 69.25 72.1562ZM31.3438 70V70.0938C31.3438 70.4479 31.1667 70.625 30.8125 70.625C30.5208 70.625 30.2188 70.5417 29.9062 70.375C29.5938 70.2083 29.4375 69.9583 29.4375 69.625L29.4688 69.3125C29.4896 69.2083 29.5 69.0729 29.5 68.9062C29.5 68.7604 29.4896 68.5938 29.4688 68.4062C29.4479 68.2188 29.4271 68.0729 29.4062 67.9688L28.8438 63.5312C28.7604 62.9688 28.625 62.5417 28.4375 62.25C28.2917 62.0208 28.2188 61.8646 28.2188 61.7812C28.2188 61.6562 28.3333 61.5938 28.5625 61.5938C28.9375 61.5938 29.5833 61.7604 30.5 62.0938L34.5312 61.875L34.4688 60.4688C34.4479 60.0312 34.3021 59.6354 34.0312 59.2812C33.9479 59.1979 33.9062 59.1042 33.9062 59C33.9062 58.8542 34.0417 58.7812 34.3125 58.7812C34.5417 58.7812 34.8229 58.8438 35.1562 58.9688C35.5521 59.1146 35.8125 59.25 35.9375 59.375C36.0625 59.4792 36.1354 59.625 36.1562 59.8125L36.25 61.7812L40.2188 61.5625L40.25 60.0938C40.25 59.5729 40.1354 59.1354 39.9062 58.7812C39.8438 58.6562 39.8125 58.5521 39.8125 58.4688C39.8125 58.3021 39.9375 58.2188 40.1875 58.2188C40.2917 58.2396 40.4896 58.2917 40.7812 58.375C41.0938 58.4375 41.3854 58.5521 41.6562 58.7188C41.9271 58.8854 42.0625 59.0938 42.0625 59.3438L41.9688 61.4688L46.75 61.2188L47.1562 61.1875C47.3646 61.1875 47.6042 61.2917 47.875 61.5C48.1667 61.7083 48.3125 61.9167 48.3125 62.125C48.3125 62.2083 48.2917 62.3021 48.25 62.4062C48.2083 62.4896 48.1771 62.5625 48.1562 62.625L47.3125 67.5312C47.7292 68.0312 47.9375 68.3646 47.9375 68.5312C47.9375 68.6562 47.875 68.7396 47.75 68.7812C47.6458 68.8021 47.4375 68.8229 47.125 68.8438L31.2812 69.5625L31.3438 70ZM23.5 86.9062C23.5 86.7188 23.6875 86.4167 24.0625 86C27.1667 82.6042 28.75 78.2604 28.8125 72.9688C28.8125 72.2604 28.75 71.7188 28.625 71.3438C28.5417 71.0521 28.5 70.8646 28.5 70.7812C28.5 70.6146 28.5833 70.5312 28.75 70.5312C29.0625 70.5312 29.7292 70.7917 30.75 71.3125L44.8438 70.6875C45.4271 70.6458 45.9271 70.5521 46.3438 70.4062C46.5104 70.3646 46.625 70.3438 46.6875 70.3438C46.9167 70.3438 47.25 70.5208 47.6875 70.875C48.125 71.2083 48.3438 71.4896 48.3438 71.7188C48.3438 71.9271 48.1042 72.0521 47.625 72.0938L30.6875 72.8125C30.6042 74.5208 30.4167 76.125 30.125 77.625L46.6875 76.9062C47.2708 76.8646 47.7708 76.7708 48.1875 76.625C48.3542 76.5833 48.4792 76.5625 48.5625 76.5625C48.8125 76.5625 49.0625 76.6562 49.3125 76.8438C49.5625 77.0104 49.7708 77.2083 49.9375 77.4375C50.1042 77.6458 50.1875 77.8021 50.1875 77.9062C50.1875 78.1146 49.9479 78.2396 49.4688 78.2812L39 78.7188C40.1458 79.9062 41.1146 80.7708 41.9062 81.3125C44.0729 80.5208 45.3333 79.7604 45.6875 79.0312C45.7917 78.8021 45.9271 78.6875 46.0938 78.6875C46.2812 78.6875 46.5208 78.8854 46.8125 79.2812C47.1042 79.6771 47.25 80.0104 47.25 80.2812C47.25 80.4896 47.1354 80.6458 46.9062 80.75C45.9062 81.2917 44.75 81.7917 43.4375 82.25C44.5625 82.875 45.8229 83.4062 47.2188 83.8438C48.6146 84.2812 50.2604 84.6771 52.1562 85.0312C52.3438 85.0729 52.4792 85.1146 52.5625 85.1562C52.6458 85.1979 52.6875 85.2604 52.6875 85.3438C52.6875 85.4062 52.6146 85.5625 52.4688 85.8125C52.3438 86.0625 52.1875 86.2812 52 86.4688C51.8125 86.6771 51.625 86.7812 51.4375 86.7812C51.375 86.7812 51.2604 86.7604 51.0938 86.7188C48.8021 86.1771 46.8646 85.5938 45.2812 84.9688C43.7188 84.3438 42.2708 83.5521 40.9375 82.5938C39.6042 81.6146 38.2917 80.3542 37 78.8125L34.4688 78.9062L34.3125 84.5938C35.6667 84.2396 37.2604 83.7812 39.0938 83.2188C39.4062 83.1146 39.7083 83.0625 40 83.0625C40.25 83.0625 40.375 83.125 40.375 83.25C40.375 83.4792 40.0104 83.8021 39.2812 84.2188C38.5521 84.6354 37.6562 85.0625 36.5938 85.5C36.1146 85.7083 35.7188 85.875 35.4062 86C35.0938 86.1458 34.8542 86.2604 34.6875 86.3438C33.8958 86.7396 33.3958 86.9375 33.1875 86.9375C32.9792 86.9375 32.75 86.7604 32.5 86.4062C32.25 86.0521 32.1875 85.7812 32.3125 85.5938C32.3958 85.4479 32.4583 85.0312 32.5 84.3438C32.5417 83.6771 32.5625 83.1771 32.5625 82.8438L32.6562 79L29.7812 79.125C29.2604 80.7917 28.5729 82.2292 27.7188 83.4375C26.8646 84.625 26.0417 85.5312 25.25 86.1562C24.4583 86.7812 23.9479 87.0938 23.7188 87.0938C23.5729 87.0938 23.5 87.0312 23.5 86.9062ZM30.7812 65.0625L34.6875 64.8438L34.5938 63.2188L30.5938 63.4375L30.7812 65.0625ZM31.125 68.2188L34.8125 68.0312L34.75 66.25L30.9375 66.4375L31.125 68.2188ZM31.875 74.2812C31.875 74.1979 31.9271 74.1562 32.0312 74.1562C32.1146 74.1562 32.1875 74.1667 32.25 74.1875C32.6667 74.2917 33.0729 74.3438 33.4688 74.3438H33.75L43 73.9062C43.5833 73.8646 44.0833 73.7708 44.5 73.625C44.6667 73.5833 44.7917 73.5625 44.875 73.5625C45.125 73.5625 45.375 73.6562 45.625 73.8438C45.875 74.0104 46.0833 74.2083 46.25 74.4375C46.4167 74.6458 46.5 74.8021 46.5 74.9062C46.5 75.0938 46.2604 75.2083 45.7812 75.25L34.3438 75.8125L33.625 75.8438C32.8125 75.8438 32.2604 75.4479 31.9688 74.6562C31.9062 74.4896 31.875 74.3646 31.875 74.2812ZM36.375 64.7812L40.125 64.5938L40.1875 62.9375L36.3125 63.125L36.375 64.7812ZM36.5312 67.9688L40.0625 67.7812L40.0938 66L36.4375 66.1875L36.5312 67.9688ZM45.5625 67.5312L45.8125 65.7188L41.7812 65.9062L41.7188 67.7188L45.5625 67.5312ZM46 64.3125L46.2188 62.625L41.9062 62.8438L41.8438 64.5L46 64.3125ZM108.219 72C107.885 72 107.677 71.9062 107.594 71.7188C107.49 71.4688 107.385 71.2604 107.281 71.0938C107.177 70.9062 106.99 70.6875 106.719 70.4375L106.781 70.3125C107.531 70.5833 108.021 70.7188 108.25 70.7188C108.417 70.7188 108.542 70.6875 108.625 70.625C108.708 70.5625 108.844 70.4167 109.031 70.1875C109.302 69.8958 109.552 69.4479 109.781 68.8438C110.094 67.9479 110.292 67.0208 110.375 66.0625V65.9688C110.375 65.8438 110.354 65.7604 110.312 65.7188C110.042 65.7188 109.323 65.7812 108.156 65.9062C107.51 67.5104 106.76 68.8333 105.906 69.875C105.073 70.8958 104.312 71.4062 103.625 71.4062C103.458 71.4062 103.375 71.3438 103.375 71.2188C103.375 71.1771 103.583 70.9375 104 70.5C104.417 70.0625 104.875 69.4896 105.375 68.7812C105.896 68.0521 106.385 67.1562 106.844 66.0938C106.74 66.0938 106.438 66.1146 105.938 66.1562C105.438 66.1979 105.01 66.2708 104.656 66.375C104.49 66.5 104.312 66.5208 104.125 66.4375C104.125 66.4375 104.104 66.4271 104.062 66.4062C104.021 66.3854 103.979 66.3542 103.938 66.3125C103.792 66.2292 103.667 66.125 103.562 66C103.479 65.8542 103.438 65.7188 103.438 65.5938C103.438 65.5312 103.49 65.4479 103.594 65.3438L103.969 64.8438C104.094 64.6771 104.208 64.4375 104.312 64.125C104.417 63.7917 104.469 63.5104 104.469 63.2812C104.469 63.1354 104.458 63.0417 104.438 63C104.417 62.9583 104.406 62.9062 104.406 62.8438C104.406 62.7396 104.458 62.6875 104.562 62.6875C104.688 62.6875 104.865 62.7604 105.094 62.9062C105.156 62.9479 105.271 63.0312 105.438 63.1562C105.625 63.2604 105.729 63.3854 105.75 63.5312C105.75 63.6771 105.667 63.9167 105.5 64.25L105.094 64.9688C105.052 65.0312 105.031 65.1042 105.031 65.1875C105.031 65.25 105.052 65.3021 105.094 65.3438C105.156 65.3646 105.229 65.3646 105.312 65.3438L107.188 65.0938C107.396 64.5521 107.562 63.9792 107.688 63.375V63.1875V62.6562C107.688 62.4271 107.75 62.3333 107.875 62.375C108.146 62.4375 108.365 62.5208 108.531 62.625C108.844 62.8125 109 62.9688 109 63.0938C109 63.1979 108.958 63.375 108.875 63.625C108.812 63.8542 108.76 64.0312 108.719 64.1562C108.698 64.2396 108.604 64.5104 108.438 64.9688C108.5 64.9688 108.885 64.9271 109.594 64.8438L109.906 64.7812C109.969 64.7812 110.083 64.7604 110.25 64.7188C110.292 64.6979 110.344 64.6875 110.406 64.6875C110.656 64.6875 110.812 64.6979 110.875 64.7188C110.958 64.7396 111.083 64.8021 111.25 64.9062C111.438 65.0312 111.562 65.1562 111.625 65.2812C111.688 65.4062 111.708 65.5521 111.688 65.7188L111.5 66.75L111.281 67.875C111.281 67.9583 111.208 68.2292 111.062 68.6875C110.917 69.1458 110.75 69.5521 110.562 69.9062C110.208 70.6146 109.792 71.1458 109.312 71.5C108.896 71.8333 108.531 72 108.219 72ZM104.156 79.0938C103.927 79.0938 103.646 78.9167 103.312 78.5625C103.062 78.3125 102.938 78.125 102.938 78C102.938 77.9375 102.979 77.9062 103.062 77.9062C103.146 77.8854 103.25 77.875 103.375 77.875L104.062 77.8438C104.458 77.8438 104.719 77.8333 104.844 77.8125C105.24 77.8125 105.573 77.8021 105.844 77.7812C107.635 77.6146 108.844 77.4792 109.469 77.375C109.781 77.3333 110.062 77.2917 110.312 77.25C110.562 77.1875 110.76 77.1562 110.906 77.1562C111.198 77.1562 111.49 77.3021 111.781 77.5938C112.01 77.8229 112.125 78.0104 112.125 78.1562C112.125 78.2812 112.052 78.3646 111.906 78.4062C111.802 78.4271 111.188 78.4688 110.062 78.5312C109.438 78.5521 108.667 78.6042 107.75 78.6875C106.833 78.7708 106.031 78.8542 105.344 78.9375C105.219 78.9583 105.042 78.9896 104.812 79.0312C104.583 79.0729 104.365 79.0938 104.156 79.0938ZM113.25 71.2188C113.354 71.2188 113.51 71.2917 113.719 71.4375C113.698 71.4792 113.74 71.5625 113.844 71.6875C113.948 71.7917 114.021 71.8646 114.062 71.9062C114.167 72.0104 114.271 72.1354 114.375 72.2812C114.5 72.4271 114.635 72.5833 114.781 72.75C115.156 73.1458 116.021 74.1771 117.375 75.8438C117.604 76.1771 117.719 76.375 117.719 76.4375C117.719 76.6458 117.594 76.75 117.344 76.75C117.198 76.75 117.042 76.6458 116.875 76.4375C116.479 76.0208 115.771 75.3646 114.75 74.4688C113.958 73.7396 113.24 73.1771 112.594 72.7812C112.281 72.6354 112.125 72.4688 112.125 72.2812C112.125 72.1354 112.281 71.9271 112.594 71.6562C112.885 71.3646 113.104 71.2188 113.25 71.2188ZM82.9375 85.9688V86.0312C82.9375 86.1979 82.8854 86.3333 82.7812 86.4375C82.6979 86.5417 82.5625 86.5938 82.375 86.5938C82.0625 86.5938 81.7396 86.4792 81.4062 86.25C81.0729 86.0417 80.9062 85.8125 80.9062 85.5625V85.4062C80.9062 85.2604 80.9167 85.125 80.9375 85C80.9583 84.8958 80.9688 84.7812 80.9688 84.6562L80.9375 84.0938L80.625 77.9062C80.6042 77.6354 80.5521 77.3438 80.4688 77.0312C80.4062 76.6979 80.3438 76.4583 80.2812 76.3125C80.1354 76.0208 80.0625 75.8125 80.0625 75.6875C80.0625 75.5625 80.1562 75.5 80.3438 75.5C80.6146 75.5 81.2917 75.6875 82.375 76.0625L93.9688 75.5312H94.3125C94.6042 75.5312 94.8438 75.6042 95.0312 75.75C95.2396 75.8958 95.3958 76.0625 95.5 76.25C95.6042 76.4375 95.6562 76.5729 95.6562 76.6562C95.6562 76.7604 95.625 76.8646 95.5625 76.9688C95.5 77.0729 95.4583 77.1667 95.4375 77.25L94.9062 83.5625C95.4062 84.2083 95.6562 84.6458 95.6562 84.875C95.6562 85.0208 95.5938 85.1042 95.4688 85.125C95.3438 85.1667 95.1354 85.1875 94.8438 85.1875L82.9062 85.4375L82.9375 85.9688ZM71.4688 85.9688C71.4688 85.7604 71.5625 85.4375 71.75 85C72.8125 82.6667 73.6146 80.3958 74.1562 78.1875C74.6979 75.9792 75.0521 73.7188 75.2188 71.4062C75.4062 69.0938 75.5 66.3125 75.5 63.0625C75.5 62.4583 75.4896 62 75.4688 61.6875C75.4479 61.3542 75.3854 61.0312 75.2812 60.7188C75.1979 60.4688 75.1562 60.3125 75.1562 60.25C75.1562 60.1042 75.2292 60.0312 75.375 60.0312C75.6458 60.0312 76.3646 60.3021 77.5312 60.8438L94.5 59.9062C95.1042 59.8854 95.6354 59.7812 96.0938 59.5938C96.2188 59.5312 96.3438 59.5 96.4688 59.5C96.6979 59.5 96.9479 59.5938 97.2188 59.7812C97.5104 59.9688 97.75 60.1771 97.9375 60.4062C98.1458 60.6354 98.25 60.8021 98.25 60.9062C98.25 61.1771 97.9896 61.3333 97.4688 61.375L77.5 62.5C77.5 64.3333 77.4479 66.2708 77.3438 68.3125C77.2604 70.3542 77.1042 72.0938 76.875 73.5312C76.4167 76.5104 75.8021 78.9479 75.0312 80.8438C74.2812 82.7188 73.5729 84.0729 72.9062 84.9062C72.2396 85.7604 71.8021 86.1875 71.5938 86.1875C71.5104 86.1875 71.4688 86.1146 71.4688 85.9688ZM77.25 75.1875C77.25 74.9792 77.4271 74.6875 77.7812 74.3125C78.4271 73.625 79.1458 72.7604 79.9375 71.7188C80.75 70.6771 81.4375 69.6875 82 68.75L80.0938 68.9062H79.8438C79.3854 68.9062 78.9896 68.7812 78.6562 68.5312C78.3438 68.2812 78.1875 67.9479 78.1875 67.5312C78.1875 67.4271 78.25 67.375 78.375 67.375L78.6875 67.4375C79 67.5 79.3229 67.5312 79.6562 67.5312H79.875L82.625 67.3438C82.625 66.4896 82.6354 65.8854 82.6562 65.5312C82.0104 65.6771 81.4062 65.8021 80.8438 65.9062C80.2812 66.0104 79.9062 66.0625 79.7188 66.0625C79.3229 66.0625 79.125 65.9792 79.125 65.8125C79.125 65.7292 79.2083 65.6354 79.375 65.5312C79.5417 65.4062 79.7812 65.3021 80.0938 65.2188C81.0104 64.9479 82.0312 64.5729 83.1562 64.0938C84.3021 63.6146 85.0208 63.1562 85.3125 62.7188C85.4167 62.5938 85.5312 62.5312 85.6562 62.5312C85.8646 62.5312 86.0625 62.6354 86.25 62.8438C86.4375 63.0312 86.5938 63.25 86.7188 63.5C86.8646 63.7292 86.9375 63.8958 86.9375 64C86.9375 64.2083 86.8646 64.3333 86.7188 64.375C85.6979 64.7292 84.8646 64.9896 84.2188 65.1562V67.25L85.4375 67.1562C85.8542 67.1146 86.1979 67.0521 86.4688 66.9688C86.5312 66.9479 86.6146 66.9375 86.7188 66.9375C86.9479 66.9375 87.2188 67.0833 87.5312 67.375C87.8438 67.6458 88 67.875 88 68.0625C88 68.2708 87.7917 68.3854 87.375 68.4062L84.2188 68.625V69.1875C84.3438 69.0625 84.4896 69 84.6562 69C84.7812 69 85.0938 69.1667 85.5938 69.5C86.0938 69.8125 86.5521 70.1562 86.9688 70.5312C87.4062 70.9062 87.625 71.1771 87.625 71.3438C87.625 71.5521 87.5104 71.7812 87.2812 72.0312C87.0729 72.2812 86.8958 72.4062 86.75 72.4062C86.6042 72.4062 86.4167 72.2917 86.1875 72.0625C85.6042 71.4792 84.9479 70.9062 84.2188 70.3438V74.8438C84.2188 75.2812 84.0625 75.5 83.75 75.5C83.6042 75.5 83.3854 75.4375 83.0938 75.3125C82.8438 75.1875 82.6667 75.0625 82.5625 74.9375C82.4792 74.8125 82.4375 74.6667 82.4375 74.5C82.4375 74.3333 82.4479 74.2083 82.4688 74.125C82.5521 73.4583 82.5938 72.9792 82.5938 72.6875L82.625 71.7188C82.625 71.3021 82.6667 70.75 82.75 70.0625C82.5208 70.6042 82.0312 71.3021 81.2812 72.1562C80.5312 72.9896 79.7604 73.7292 78.9688 74.375C78.1979 75.0208 77.6771 75.3438 77.4062 75.3438C77.3021 75.3438 77.25 75.2917 77.25 75.1875ZM82.5625 79.8438L93.3438 79.4688L93.4688 77.125L82.4375 77.6562L82.5625 79.8438ZM82.8125 83.8438L93.0938 83.5938L93.25 80.9688L82.6562 81.3438L82.8125 83.8438ZM86.375 74.5938C86.375 74.3854 86.5729 74.0833 86.9688 73.6875C88.5938 72.1042 90.0521 70.3125 91.3438 68.3125L89.7812 68.4375H89.5C89.1042 68.4375 88.8125 68.3646 88.625 68.2188C88.2708 67.9062 88.0312 67.6042 87.9062 67.3125C87.8646 67.1875 87.8438 67.1146 87.8438 67.0938C87.8438 66.9896 87.9167 66.9375 88.0625 66.9375C88.1667 66.9375 88.25 66.9479 88.3125 66.9688C88.625 67.0521 88.9271 67.0938 89.2188 67.0938L89.5625 67.0625L92 66.9062L92.0625 64.9375C91.9792 64.9583 91.5208 65.0625 90.6875 65.25C89.875 65.4375 89.2604 65.5312 88.8438 65.5312C88.4479 65.5312 88.25 65.4583 88.25 65.3125C88.25 65.2292 88.3438 65.125 88.5312 65C88.7396 64.875 89.0208 64.7604 89.375 64.6562C90.2917 64.3646 91.3646 63.9792 92.5938 63.5C93.8229 63 94.5833 62.5312 94.875 62.0938C94.9792 61.9271 95.1042 61.8438 95.25 61.8438C95.5208 61.8438 95.8021 62.0417 96.0938 62.4375C96.4062 62.8125 96.5625 63.1146 96.5625 63.3438C96.5625 63.4271 96.5312 63.5104 96.4688 63.5938C96.4271 63.6562 96.3854 63.6875 96.3438 63.6875C95.3021 64.0625 94.3854 64.3542 93.5938 64.5625C93.5729 65.0208 93.5625 65.7708 93.5625 66.8125L95.7812 66.6875C96.0104 66.6667 96.3542 66.5938 96.8125 66.4688C96.875 66.4479 96.9688 66.4375 97.0938 66.4375C97.3229 66.4375 97.6042 66.5625 97.9375 66.8125C98.2708 67.0417 98.4375 67.3021 98.4375 67.5938C98.4375 67.8021 98.1979 67.9271 97.7188 67.9688L93.5625 68.2188V68.9375C93.9375 69.0625 94.6771 69.4688 95.7812 70.1562C96.9062 70.8229 97.9583 71.4896 98.9375 72.1562C98.9583 72.1771 99.0312 72.2604 99.1562 72.4062C99.3021 72.5312 99.375 72.6667 99.375 72.8125C99.375 72.9375 99.3021 73.1562 99.1562 73.4688C99.0312 73.7604 98.8646 73.9167 98.6562 73.9375H98.5938C98.4271 73.9375 98.2396 73.8542 98.0312 73.6875C96.4479 72.4792 94.9583 71.4479 93.5625 70.5938L93.5312 74.4375C93.5312 74.6875 93.5 74.875 93.4375 75C93.375 75.125 93.2708 75.1875 93.125 75.1875C92.8125 75.1875 92.5104 75.0729 92.2188 74.8438C91.9271 74.6146 91.7812 74.3646 91.7812 74.0938L91.8125 73.7812C91.8958 73.1146 91.9375 72.6354 91.9375 72.3438V71.4688C91.9375 70.9688 92 70.3021 92.125 69.4688C91.6667 70.3021 91.0417 71.125 90.25 71.9375C89.4583 72.7292 88.6875 73.3958 87.9375 73.9375C87.1875 74.4583 86.7188 74.7188 86.5312 74.7188C86.4271 74.7188 86.375 74.6771 86.375 74.5938ZM157.906 68.3438C157.76 68.3438 157.604 68.25 157.438 68.0625C157.312 67.9167 157.229 67.8021 157.188 67.7188C157.146 67.6146 157.146 67.4792 157.188 67.3125L157.219 66.5625C157.24 66.4167 157.25 66.0625 157.25 65.5V64.4688L156.312 64.9062L155.219 65.375C154.948 65.4792 154.667 65.6042 154.375 65.75C154.125 65.875 153.906 65.9375 153.719 65.9375C153.573 65.9167 153.406 65.8646 153.219 65.7812C153.031 65.6979 152.885 65.625 152.781 65.5625C152.552 65.4167 152.448 65.2604 152.469 65.0938L152.562 64.7812C152.562 64.6146 152.573 64.4688 152.594 64.3438L152.625 62.5312V60.8438C152.625 60.5104 152.604 60.2292 152.562 60C152.521 59.75 152.49 59.5729 152.469 59.4688C152.469 59.3646 152.5 59.2917 152.562 59.25C152.583 59.2292 152.635 59.2188 152.719 59.2188C152.865 59.2188 153.146 59.3125 153.562 59.5C153.917 59.6667 154.062 59.875 154 60.125C153.958 60.2708 153.917 60.4896 153.875 60.7812L153.781 64.375C153.781 64.4792 153.792 64.5625 153.812 64.625C153.854 64.6667 153.896 64.6875 153.938 64.6875C154.188 64.6875 154.49 64.6146 154.844 64.4688C155.51 64.2604 156.083 64.0521 156.562 63.8438L157.25 63.5625V61.5C157.25 60.6667 157.198 59.8646 157.094 59.0938C157.073 59.0312 157.062 58.9583 157.062 58.875C157.062 58.6667 157.146 58.5625 157.312 58.5625C157.333 58.5625 157.448 58.6042 157.656 58.6875C157.969 58.8542 158.198 59 158.344 59.125C158.49 59.25 158.573 59.3229 158.594 59.3438C158.677 59.4062 158.719 59.4688 158.719 59.5312C158.719 59.5729 158.698 59.625 158.656 59.6875C158.635 59.75 158.615 59.8021 158.594 59.8438L158.5 60.7812L158.469 63.6562L158.5 66.4375C158.5 66.9167 158.469 67.3333 158.406 67.6875C158.302 68.125 158.135 68.3438 157.906 68.3438ZM152.156 73.4688C151.927 73.4688 151.646 73.2917 151.312 72.9375C151.062 72.6875 150.938 72.5 150.938 72.375C150.938 72.3125 150.979 72.2812 151.062 72.2812C151.146 72.2604 151.25 72.25 151.375 72.25L152.062 72.2188C152.458 72.2188 152.719 72.2083 152.844 72.1875C153.24 72.1875 153.573 72.1771 153.844 72.1562C155.635 71.9896 156.844 71.8542 157.469 71.75C157.781 71.7083 158.062 71.6667 158.312 71.625C158.562 71.5625 158.76 71.5312 158.906 71.5312C159.198 71.5312 159.49 71.6771 159.781 71.9688C160.01 72.1979 160.125 72.3854 160.125 72.5312C160.125 72.6562 160.052 72.7396 159.906 72.7812C159.802 72.8021 159.188 72.8438 158.062 72.9062C157.438 72.9271 156.667 72.9792 155.75 73.0625C154.833 73.1458 154.031 73.2292 153.344 73.3125C153.219 73.3333 153.042 73.3646 152.812 73.4062C152.583 73.4479 152.365 73.4688 152.156 73.4688ZM159.5 85.7812C159.479 85.8021 159.427 85.8125 159.344 85.8125C159.177 85.8125 158.938 85.6979 158.625 85.4688C157.917 84.7604 156.99 83.8854 155.844 82.8438C155.302 83.3854 154.792 83.8542 154.312 84.25C154.146 84.375 153.854 84.5625 153.438 84.8125C152.833 85.1667 152.25 85.3854 151.688 85.4688H151.5C151.312 85.4688 151.198 85.4479 151.156 85.4062C151.135 85.3854 151.177 85.3438 151.281 85.2812C151.406 85.2188 151.5 85.1667 151.562 85.125C151.688 85.0625 152.042 84.8333 152.625 84.4375C152.917 84.2292 153.333 83.875 153.875 83.375C154.417 82.875 154.812 82.4688 155.062 82.1562L153.781 81.1562C153.552 80.9896 153.302 80.8125 153.031 80.625C152.781 80.4167 152.604 80.2812 152.5 80.2188L152.469 80.125C152.469 80 152.573 79.9375 152.781 79.9375C153.031 79.9375 153.438 80.0938 154 80.4062L155.594 81.4375C155.948 80.9792 156.302 80.4792 156.656 79.9375C157.031 79.375 157.229 79.0417 157.25 78.9375C157.271 78.875 157.26 78.8229 157.219 78.7812C157.198 78.7188 157.156 78.6875 157.094 78.6875H156.469L155.344 78.7812C154.781 78.8229 154.219 78.8958 153.656 79C153.594 79.0208 153.49 79.0521 153.344 79.0938C153.198 79.1354 153.073 79.1562 152.969 79.1562C152.927 79.1562 152.75 79.0417 152.438 78.8125C152.146 78.5625 151.99 78.4062 151.969 78.3438C151.948 78.3229 151.938 78.2917 151.938 78.25C151.938 78.1458 152.052 78.1042 152.281 78.125C152.51 78.125 152.656 78.125 152.719 78.125C153.302 78.125 154.146 78.0729 155.25 77.9688L156.312 77.875L157.281 77.75C157.594 77.6667 157.771 77.625 157.812 77.625H157.875C157.979 77.625 158.073 77.6562 158.156 77.7188C158.24 77.7812 158.302 77.8438 158.344 77.9062C158.385 77.9688 158.417 78.0104 158.438 78.0312C158.458 78.0521 158.521 78.1146 158.625 78.2188C158.729 78.3021 158.792 78.3854 158.812 78.4688C158.854 78.5312 158.875 78.6042 158.875 78.6875C158.875 78.875 158.802 79.0104 158.656 79.0938C158.552 79.1354 158.365 79.3542 158.094 79.75C157.635 80.4792 157.083 81.2604 156.438 82.0938C156.792 82.3229 157.25 82.6562 157.812 83.0938C158.062 83.2604 158.469 83.5417 159.031 83.9375C159.281 84.125 159.469 84.375 159.594 84.6875C159.677 85.0208 159.719 85.2708 159.719 85.4375C159.698 85.6042 159.625 85.7188 159.5 85.7812ZM165.375 74.2188C165.438 74.2188 165.5 74.25 165.562 74.3125C165.625 74.3542 165.667 74.4167 165.688 74.5V74.5625C165.688 74.7083 165.573 74.9896 165.344 75.4062L163.094 79.3125C162.927 79.6667 162.708 79.8438 162.438 79.8438C162.167 79.8438 161.938 79.6771 161.75 79.3438C161.562 79.0729 161.333 78.6667 161.062 78.125C160.938 77.9375 160.833 77.75 160.75 77.5625C160.667 77.375 160.604 77.2396 160.562 77.1562C160.333 76.7604 160.219 76.4792 160.219 76.3125C160.219 76.2292 160.25 76.1667 160.312 76.125C160.375 76.0625 160.438 76.0312 160.5 76.0312C160.729 76.0312 160.938 76.1562 161.125 76.4062C161.271 76.5521 161.385 76.7083 161.469 76.875L161.812 77.3438L162.438 78.0625L162.719 77.625C163.01 77.125 163.698 76.1354 164.781 74.6562C165.01 74.3646 165.208 74.2188 165.375 74.2188ZM148.781 78.7812C148.781 80.9896 148.625 82.5625 148.312 83.5C148 84.4167 147.458 84.9896 146.688 85.2188C145.938 85.4688 144.656 85.5938 142.844 85.5938C141.594 85.5938 140.625 85.4792 139.938 85.25C139.25 85.0417 138.76 84.7083 138.469 84.25C138.177 83.7917 138.031 83.1667 138.031 82.375C138.031 82.0208 138.042 81.75 138.062 81.5625L139.344 68.7188L133.469 69.25C133.031 71.6042 132.448 73.6562 131.719 75.4062C130.74 77.7604 129.448 79.75 127.844 81.375C126.24 82.9792 124.708 84.1875 123.25 85C121.792 85.8125 120.854 86.2188 120.438 86.2188C120.208 86.2188 120.094 86.1458 120.094 86C120.094 85.8125 120.323 85.5625 120.781 85.25C124.01 83.0833 126.385 80.7396 127.906 78.2188C129.448 75.6771 130.542 72.7604 131.188 69.4688L125.531 69.9688C125.385 69.9896 125.219 70.0104 125.031 70.0312C124.844 70.0521 124.656 70.0625 124.469 70.0625C123.948 70.0625 123.552 69.8646 123.281 69.4688C123.01 69.0729 122.823 68.7083 122.719 68.375C122.698 68.3333 122.688 68.2708 122.688 68.1875C122.688 68.0625 122.75 68 122.875 68L123 68.0312C123.625 68.1354 124.156 68.1875 124.594 68.1875C124.948 68.1875 125.219 68.1771 125.406 68.1562L131.531 67.5938C131.823 65.5312 131.99 63.5625 132.031 61.6875V61.5C132.031 61.1458 132 60.8333 131.938 60.5625C131.875 60.2917 131.771 59.9271 131.625 59.4688C131.604 59.4271 131.594 59.375 131.594 59.3125C131.594 59.2292 131.625 59.1667 131.688 59.125C131.771 59.0625 131.885 59.0312 132.031 59.0312C132.135 59.0312 132.385 59.0833 132.781 59.1875C133.177 59.2917 133.542 59.4583 133.875 59.6875C134.229 59.8958 134.406 60.1562 134.406 60.4688V60.5312C134.302 63.0312 134.094 65.3125 133.781 67.375L139.719 66.8125L140.188 66.7812C140.562 66.7812 140.896 66.9062 141.188 67.1562C141.5 67.3854 141.656 67.6458 141.656 67.9375C141.656 68.0625 141.625 68.2292 141.562 68.4375C141.521 68.625 141.49 68.7812 141.469 68.9062L140.188 81.0625C140.146 81.5625 140.125 81.8854 140.125 82.0312C140.125 82.3854 140.188 82.6667 140.312 82.875C140.458 83.0833 140.74 83.25 141.156 83.375C141.573 83.4792 142.188 83.5312 143 83.5312C143.979 83.5312 144.708 83.4688 145.188 83.3438C145.667 83.2188 146 83.0417 146.188 82.8125C146.375 82.5625 146.562 82.1875 146.75 81.6875C146.896 81.2708 147.062 80.7083 147.25 80C147.438 79.2708 147.573 78.625 147.656 78.0625C147.74 77.5833 147.833 77.2188 147.938 76.9688C148.062 76.6979 148.188 76.5625 148.312 76.5625C148.438 76.5625 148.542 76.6979 148.625 76.9688C148.708 77.2396 148.76 77.6354 148.781 78.1562V78.7812ZM200.844 70.2812C200.156 70.0312 199.833 69.7604 199.875 69.4688C200 68.5938 200.062 67.5938 200.062 66.4688C200.062 65.9688 200.052 65.6042 200.031 65.375C200.01 65.1042 199.99 64.875 199.969 64.6875C199.948 64.4792 199.948 64.3646 199.969 64.3438C200.052 64.2604 200.156 64.2188 200.281 64.2188C200.469 64.2188 200.698 64.3021 200.969 64.4688C201.26 64.6354 201.406 64.8021 201.406 64.9688C201.406 65.0729 201.396 65.1771 201.375 65.2812C201.354 65.3646 201.344 65.4583 201.344 65.5625L201.156 68.6562C201.156 68.8229 201.219 68.9271 201.344 68.9688H201.5C201.667 68.9688 201.781 68.9583 201.844 68.9375L205.875 68.375V67.5625C205.875 66.5417 205.854 65.75 205.812 65.1875C205.792 64.7083 205.74 64.3229 205.656 64.0312C205.594 63.6979 205.677 63.5312 205.906 63.5312C206.073 63.5312 206.292 63.5938 206.562 63.7188C206.896 63.8854 207.094 64.0312 207.156 64.1562C207.219 64.2604 207.24 64.4271 207.219 64.6562C207.177 65.0312 207.156 65.5938 207.156 66.3438L207.188 68.7188C207.188 69.2188 207.094 69.6146 206.906 69.9062C206.802 70.0312 206.698 70.0938 206.594 70.0938C206.49 70.0938 206.344 70 206.156 69.8125C206.115 69.7708 206.062 69.7083 206 69.625C205.938 69.5417 205.875 69.4896 205.812 69.4688C205.75 69.4479 205.667 69.4375 205.562 69.4375C205.083 69.4792 203.927 69.6354 202.094 69.9062C201.781 69.9479 201.531 70.0312 201.344 70.1562C201.135 70.2604 201 70.3125 200.938 70.3125L200.844 70.2812ZM204.344 82.9375C203.698 82.9375 203.198 82.9167 202.844 82.875C202.51 82.8333 202.229 82.7083 202 82.5C201.604 82.2083 201.333 81.5729 201.188 80.5938L201.094 79.5938C201.094 79.3438 201.073 79.0312 201.031 78.6562C200.698 78.6979 200.458 78.7396 200.312 78.7812C200.271 78.8021 200.198 78.8333 200.094 78.875C200.01 78.8958 199.948 78.9062 199.906 78.9062C199.76 78.9062 199.625 78.8646 199.5 78.7812C199.375 78.6979 199.219 78.5417 199.031 78.3125C198.885 78.125 198.812 78 198.812 77.9375C198.812 77.875 198.885 77.8333 199.031 77.8125C199.177 77.7917 199.375 77.7812 199.625 77.7812C199.979 77.7812 200.438 77.7396 201 77.6562L200.969 77.2188C200.969 76.3854 200.917 75.6771 200.812 75.0938L200.781 74.875C200.781 74.5833 200.896 74.4688 201.125 74.5312C201.375 74.6146 201.604 74.7188 201.812 74.8438C201.979 74.9271 202.094 75.0104 202.156 75.0938C202.219 75.1562 202.24 75.25 202.219 75.375L202.125 76.7188V77.5312L204.875 77.25C204.875 77.1042 204.885 76.7604 204.906 76.2188C204.927 75.6562 204.927 75.2917 204.906 75.125C204.906 74.9583 204.885 74.8021 204.844 74.6562C204.823 74.4896 204.802 74.3542 204.781 74.25C204.781 74.0833 204.865 74 205.031 74C205.198 74 205.406 74.0938 205.656 74.2812C205.948 74.4688 206.135 74.6354 206.219 74.7812C206.323 74.9271 206.344 75.1042 206.281 75.3125C206.177 75.6458 206.104 76.0208 206.062 76.4375C206.021 76.8542 206 77.1042 206 77.1875C206.25 77.1667 206.479 77.1354 206.688 77.0938C206.896 77.0521 207.031 77.0312 207.094 77.0312C207.26 76.9896 207.458 76.9688 207.688 76.9688C207.812 76.9896 207.99 77.1146 208.219 77.3438C208.406 77.5938 208.5 77.7917 208.5 77.9375C208.5 78.1458 208.302 78.2292 207.906 78.1875C207.552 78.125 207.198 78.0938 206.844 78.0938C206.49 78.0938 206.188 78.1042 205.938 78.125C205.875 78.875 205.75 79.6146 205.562 80.3438C205.521 80.5104 205.448 80.6562 205.344 80.7812C205.24 80.8854 205.146 80.9375 205.062 80.9375C204.917 80.9375 204.823 80.8854 204.781 80.7812C204.76 80.6562 204.75 80.4688 204.75 80.2188C204.792 79.6771 204.812 79 204.812 78.1875C204.25 78.2292 203.812 78.2708 203.5 78.3125C203.021 78.4167 202.573 78.4792 202.156 78.5C202.135 79.3542 202.177 80.1146 202.281 80.7812C202.344 81.2188 202.469 81.5208 202.656 81.6875C202.781 81.7917 202.927 81.8542 203.094 81.875C203.281 81.8958 203.469 81.9062 203.656 81.9062C203.844 81.9062 203.969 81.9062 204.031 81.9062C204.677 81.9062 205.281 81.875 205.844 81.8125C206.01 81.7917 206.156 81.75 206.281 81.6875C206.427 81.625 206.531 81.5938 206.594 81.5938C206.781 81.5938 206.969 81.6562 207.156 81.7812C207.344 81.9062 207.438 82.0521 207.438 82.2188C207.438 82.3854 207.344 82.5104 207.156 82.5938C206.99 82.6771 206.719 82.75 206.344 82.8125C205.677 82.8958 205.01 82.9375 204.344 82.9375ZM209.25 71.2188C209.354 71.2188 209.51 71.2917 209.719 71.4375C209.698 71.4792 209.74 71.5625 209.844 71.6875C209.948 71.7917 210.021 71.8646 210.062 71.9062C210.167 72.0104 210.271 72.1354 210.375 72.2812C210.5 72.4271 210.635 72.5833 210.781 72.75C211.156 73.1458 212.021 74.1771 213.375 75.8438C213.604 76.1771 213.719 76.375 213.719 76.4375C213.719 76.6458 213.594 76.75 213.344 76.75C213.198 76.75 213.042 76.6458 212.875 76.4375C212.479 76.0208 211.771 75.3646 210.75 74.4688C209.958 73.7396 209.24 73.1771 208.594 72.7812C208.281 72.6354 208.125 72.4688 208.125 72.2812C208.125 72.1354 208.281 71.9271 208.594 71.6562C208.885 71.3646 209.104 71.2188 209.25 71.2188ZM177.094 76.3438C176.573 78.5729 175.75 80.4583 174.625 82C173.5 83.5208 172.031 85.0104 170.219 86.4688C169.781 86.8229 169.427 87 169.156 87C169.01 87 168.938 86.9271 168.938 86.7812C168.938 86.5729 169.104 86.2917 169.438 85.9375C171.167 84.0208 172.479 82.1979 173.375 80.4688C174.292 78.7396 174.917 76.8438 175.25 74.7812C175.604 72.6979 175.781 70.0833 175.781 66.9375V64C175.781 62.8542 175.677 61.9688 175.469 61.3438C175.406 61.1771 175.375 61.0312 175.375 60.9062C175.375 60.7396 175.469 60.6562 175.656 60.6562C175.99 60.6562 176.719 60.9375 177.844 61.5L189 60.8438L189.344 60.8125C189.698 60.8125 190.01 60.9583 190.281 61.25C190.552 61.5208 190.688 61.7604 190.688 61.9688C190.688 62.0521 190.656 62.1771 190.594 62.3438C190.531 62.5104 190.5 62.6458 190.5 62.75L190.656 84.4062L190.688 85.4688C190.688 85.9062 190.583 86.2708 190.375 86.5625C190.188 86.8542 189.969 87.0625 189.719 87.1875C189.469 87.3333 189.26 87.4062 189.094 87.4062C188.719 87.4062 188.083 87.0833 187.188 86.4375C186.292 85.8125 185.458 85.125 184.688 84.375C183.917 83.6458 183.531 83.1458 183.531 82.875C183.531 82.75 183.604 82.6875 183.75 82.6875C183.979 82.6875 184.323 82.8229 184.781 83.0938C185.927 83.7812 187.198 84.3646 188.594 84.8438L188.531 75.875L177.094 76.3438ZM188.531 74.1562L188.5 69.2812L177.781 69.6875C177.698 71.9375 177.573 73.5833 177.406 74.625L188.531 74.1562ZM188.5 67.4688L188.469 62.6875L177.906 63.3438L177.844 68L188.5 67.4688ZM253.906 68.3438C253.76 68.3438 253.604 68.25 253.438 68.0625C253.312 67.9167 253.229 67.8021 253.188 67.7188C253.146 67.6146 253.146 67.4792 253.188 67.3125L253.219 66.5625C253.24 66.4167 253.25 66.0625 253.25 65.5V64.4688L252.312 64.9062L251.219 65.375C250.948 65.4792 250.667 65.6042 250.375 65.75C250.125 65.875 249.906 65.9375 249.719 65.9375C249.573 65.9167 249.406 65.8646 249.219 65.7812C249.031 65.6979 248.885 65.625 248.781 65.5625C248.552 65.4167 248.448 65.2604 248.469 65.0938L248.562 64.7812C248.562 64.6146 248.573 64.4688 248.594 64.3438L248.625 62.5312V60.8438C248.625 60.5104 248.604 60.2292 248.562 60C248.521 59.75 248.49 59.5729 248.469 59.4688C248.469 59.3646 248.5 59.2917 248.562 59.25C248.583 59.2292 248.635 59.2188 248.719 59.2188C248.865 59.2188 249.146 59.3125 249.562 59.5C249.917 59.6667 250.062 59.875 250 60.125C249.958 60.2708 249.917 60.4896 249.875 60.7812L249.781 64.375C249.781 64.4792 249.792 64.5625 249.812 64.625C249.854 64.6667 249.896 64.6875 249.938 64.6875C250.188 64.6875 250.49 64.6146 250.844 64.4688C251.51 64.2604 252.083 64.0521 252.562 63.8438L253.25 63.5625V61.5C253.25 60.6667 253.198 59.8646 253.094 59.0938C253.073 59.0312 253.062 58.9583 253.062 58.875C253.062 58.6667 253.146 58.5625 253.312 58.5625C253.333 58.5625 253.448 58.6042 253.656 58.6875C253.969 58.8542 254.198 59 254.344 59.125C254.49 59.25 254.573 59.3229 254.594 59.3438C254.677 59.4062 254.719 59.4688 254.719 59.5312C254.719 59.5729 254.698 59.625 254.656 59.6875C254.635 59.75 254.615 59.8021 254.594 59.8438L254.5 60.7812L254.469 63.6562L254.5 66.4375C254.5 66.9167 254.469 67.3333 254.406 67.6875C254.302 68.125 254.135 68.3438 253.906 68.3438ZM248.156 73.4688C247.927 73.4688 247.646 73.2917 247.312 72.9375C247.062 72.6875 246.938 72.5 246.938 72.375C246.938 72.3125 246.979 72.2812 247.062 72.2812C247.146 72.2604 247.25 72.25 247.375 72.25L248.062 72.2188C248.458 72.2188 248.719 72.2083 248.844 72.1875C249.24 72.1875 249.573 72.1771 249.844 72.1562C251.635 71.9896 252.844 71.8542 253.469 71.75C253.781 71.7083 254.062 71.6667 254.312 71.625C254.562 71.5625 254.76 71.5312 254.906 71.5312C255.198 71.5312 255.49 71.6771 255.781 71.9688C256.01 72.1979 256.125 72.3854 256.125 72.5312C256.125 72.6562 256.052 72.7396 255.906 72.7812C255.802 72.8021 255.188 72.8438 254.062 72.9062C253.438 72.9271 252.667 72.9792 251.75 73.0625C250.833 73.1458 250.031 73.2292 249.344 73.3125C249.219 73.3333 249.042 73.3646 248.812 73.4062C248.583 73.4479 248.365 73.4688 248.156 73.4688ZM255.5 85.7812C255.479 85.8021 255.427 85.8125 255.344 85.8125C255.177 85.8125 254.938 85.6979 254.625 85.4688C253.917 84.7604 252.99 83.8854 251.844 82.8438C251.302 83.3854 250.792 83.8542 250.312 84.25C250.146 84.375 249.854 84.5625 249.438 84.8125C248.833 85.1667 248.25 85.3854 247.688 85.4688H247.5C247.312 85.4688 247.198 85.4479 247.156 85.4062C247.135 85.3854 247.177 85.3438 247.281 85.2812C247.406 85.2188 247.5 85.1667 247.562 85.125C247.688 85.0625 248.042 84.8333 248.625 84.4375C248.917 84.2292 249.333 83.875 249.875 83.375C250.417 82.875 250.812 82.4688 251.062 82.1562L249.781 81.1562C249.552 80.9896 249.302 80.8125 249.031 80.625C248.781 80.4167 248.604 80.2812 248.5 80.2188L248.469 80.125C248.469 80 248.573 79.9375 248.781 79.9375C249.031 79.9375 249.438 80.0938 250 80.4062L251.594 81.4375C251.948 80.9792 252.302 80.4792 252.656 79.9375C253.031 79.375 253.229 79.0417 253.25 78.9375C253.271 78.875 253.26 78.8229 253.219 78.7812C253.198 78.7188 253.156 78.6875 253.094 78.6875H252.469L251.344 78.7812C250.781 78.8229 250.219 78.8958 249.656 79C249.594 79.0208 249.49 79.0521 249.344 79.0938C249.198 79.1354 249.073 79.1562 248.969 79.1562C248.927 79.1562 248.75 79.0417 248.438 78.8125C248.146 78.5625 247.99 78.4062 247.969 78.3438C247.948 78.3229 247.938 78.2917 247.938 78.25C247.938 78.1458 248.052 78.1042 248.281 78.125C248.51 78.125 248.656 78.125 248.719 78.125C249.302 78.125 250.146 78.0729 251.25 77.9688L252.312 77.875L253.281 77.75C253.594 77.6667 253.771 77.625 253.812 77.625H253.875C253.979 77.625 254.073 77.6562 254.156 77.7188C254.24 77.7812 254.302 77.8438 254.344 77.9062C254.385 77.9688 254.417 78.0104 254.438 78.0312C254.458 78.0521 254.521 78.1146 254.625 78.2188C254.729 78.3021 254.792 78.3854 254.812 78.4688C254.854 78.5312 254.875 78.6042 254.875 78.6875C254.875 78.875 254.802 79.0104 254.656 79.0938C254.552 79.1354 254.365 79.3542 254.094 79.75C253.635 80.4792 253.083 81.2604 252.438 82.0938C252.792 82.3229 253.25 82.6562 253.812 83.0938C254.062 83.2604 254.469 83.5417 255.031 83.9375C255.281 84.125 255.469 84.375 255.594 84.6875C255.677 85.0208 255.719 85.2708 255.719 85.4375C255.698 85.6042 255.625 85.7188 255.5 85.7812ZM261.375 74.2188C261.438 74.2188 261.5 74.25 261.562 74.3125C261.625 74.3542 261.667 74.4167 261.688 74.5V74.5625C261.688 74.7083 261.573 74.9896 261.344 75.4062L259.094 79.3125C258.927 79.6667 258.708 79.8438 258.438 79.8438C258.167 79.8438 257.938 79.6771 257.75 79.3438C257.562 79.0729 257.333 78.6667 257.062 78.125C256.938 77.9375 256.833 77.75 256.75 77.5625C256.667 77.375 256.604 77.2396 256.562 77.1562C256.333 76.7604 256.219 76.4792 256.219 76.3125C256.219 76.2292 256.25 76.1667 256.312 76.125C256.375 76.0625 256.438 76.0312 256.5 76.0312C256.729 76.0312 256.938 76.1562 257.125 76.4062C257.271 76.5521 257.385 76.7083 257.469 76.875L257.812 77.3438L258.438 78.0625L258.719 77.625C259.01 77.125 259.698 76.1354 260.781 74.6562C261.01 74.3646 261.208 74.2188 261.375 74.2188ZM244.781 78.7812C244.781 80.9896 244.625 82.5625 244.312 83.5C244 84.4167 243.458 84.9896 242.688 85.2188C241.938 85.4688 240.656 85.5938 238.844 85.5938C237.594 85.5938 236.625 85.4792 235.938 85.25C235.25 85.0417 234.76 84.7083 234.469 84.25C234.177 83.7917 234.031 83.1667 234.031 82.375C234.031 82.0208 234.042 81.75 234.062 81.5625L235.344 68.7188L229.469 69.25C229.031 71.6042 228.448 73.6562 227.719 75.4062C226.74 77.7604 225.448 79.75 223.844 81.375C222.24 82.9792 220.708 84.1875 219.25 85C217.792 85.8125 216.854 86.2188 216.438 86.2188C216.208 86.2188 216.094 86.1458 216.094 86C216.094 85.8125 216.323 85.5625 216.781 85.25C220.01 83.0833 222.385 80.7396 223.906 78.2188C225.448 75.6771 226.542 72.7604 227.188 69.4688L221.531 69.9688C221.385 69.9896 221.219 70.0104 221.031 70.0312C220.844 70.0521 220.656 70.0625 220.469 70.0625C219.948 70.0625 219.552 69.8646 219.281 69.4688C219.01 69.0729 218.823 68.7083 218.719 68.375C218.698 68.3333 218.688 68.2708 218.688 68.1875C218.688 68.0625 218.75 68 218.875 68L219 68.0312C219.625 68.1354 220.156 68.1875 220.594 68.1875C220.948 68.1875 221.219 68.1771 221.406 68.1562L227.531 67.5938C227.823 65.5312 227.99 63.5625 228.031 61.6875V61.5C228.031 61.1458 228 60.8333 227.938 60.5625C227.875 60.2917 227.771 59.9271 227.625 59.4688C227.604 59.4271 227.594 59.375 227.594 59.3125C227.594 59.2292 227.625 59.1667 227.688 59.125C227.771 59.0625 227.885 59.0312 228.031 59.0312C228.135 59.0312 228.385 59.0833 228.781 59.1875C229.177 59.2917 229.542 59.4583 229.875 59.6875C230.229 59.8958 230.406 60.1562 230.406 60.4688V60.5312C230.302 63.0312 230.094 65.3125 229.781 67.375L235.719 66.8125L236.188 66.7812C236.562 66.7812 236.896 66.9062 237.188 67.1562C237.5 67.3854 237.656 67.6458 237.656 67.9375C237.656 68.0625 237.625 68.2292 237.562 68.4375C237.521 68.625 237.49 68.7812 237.469 68.9062L236.188 81.0625C236.146 81.5625 236.125 81.8854 236.125 82.0312C236.125 82.3854 236.188 82.6667 236.312 82.875C236.458 83.0833 236.74 83.25 237.156 83.375C237.573 83.4792 238.188 83.5312 239 83.5312C239.979 83.5312 240.708 83.4688 241.188 83.3438C241.667 83.2188 242 83.0417 242.188 82.8125C242.375 82.5625 242.562 82.1875 242.75 81.6875C242.896 81.2708 243.062 80.7083 243.25 80C243.438 79.2708 243.573 78.625 243.656 78.0625C243.74 77.5833 243.833 77.2188 243.938 76.9688C244.062 76.6979 244.188 76.5625 244.312 76.5625C244.438 76.5625 244.542 76.6979 244.625 76.9688C244.708 77.2396 244.76 77.6354 244.781 78.1562V78.7812ZM297.125 77.8125C297 77.8125 296.823 77.7188 296.594 77.5312C296.469 77.4479 296.365 77.3646 296.281 77.2812C296.198 77.1979 296.156 77.125 296.156 77.0625L296.188 76.5625C296.208 76.375 296.219 75.9583 296.219 75.3125C296.198 74.8542 296.188 73.8958 296.188 72.4375C296.188 71.8542 296.135 71.3229 296.031 70.8438C296.031 70.8438 295.99 70.5938 295.906 70.0938V70C295.906 69.8125 296.031 69.7604 296.281 69.8438C296.385 69.8646 296.625 69.9062 297 69.9688C297.396 69.9062 298.719 69.75 300.969 69.5C301.281 69.4583 301.531 69.4167 301.719 69.375C301.906 69.3333 302.042 69.3021 302.125 69.2812H302.25C302.479 69.2812 302.688 69.3958 302.875 69.625C303.208 70.0208 303.344 70.3021 303.281 70.4688C303.198 70.6771 303.115 71.0312 303.031 71.5312C302.99 71.8229 302.938 72.3229 302.875 73.0312V74.4688V76.75C302.875 76.9375 302.781 77.1875 302.594 77.5C302.552 77.6042 302.469 77.6875 302.344 77.75C302.24 77.8125 302.125 77.8438 302 77.8438C301.875 77.8438 301.781 77.8125 301.719 77.75C301.677 77.7083 301.635 77.6667 301.594 77.625C301.552 77.5625 301.51 77.5208 301.469 77.5C301.448 77.4792 301.406 77.4688 301.344 77.4688C300.052 77.4688 298.885 77.5521 297.844 77.7188C297.76 77.7396 297.677 77.75 297.594 77.75C297.531 77.75 297.469 77.7604 297.406 77.7812L297.188 77.8125H297.125ZM297.719 76.6562C298.24 76.6354 298.948 76.5729 299.844 76.4688C300.26 76.4271 300.5 76.4062 300.562 76.4062H300.812C301.146 76.4062 301.396 76.4688 301.562 76.5938C301.708 75.5521 301.781 73.6458 301.781 70.875C301.74 70.5625 301.615 70.4062 301.406 70.4062C301.01 70.4062 300.208 70.4792 299 70.625C298.875 70.625 298.75 70.6354 298.625 70.6562C298.5 70.6771 298.375 70.6979 298.25 70.7188C297.896 70.7812 297.635 70.8125 297.469 70.8125C297.323 70.8125 297.271 70.8854 297.312 71.0312L297.281 72.0938C297.26 72.2396 297.25 72.375 297.25 72.5C297.271 72.625 297.281 72.7396 297.281 72.8438C297.302 73.0104 297.312 73.2812 297.312 73.6562C297.312 75.2812 297.323 76.1771 297.344 76.3438C297.344 76.4896 297.385 76.5833 297.469 76.625C297.552 76.6667 297.635 76.6771 297.719 76.6562ZM300.031 74.9062C299.802 74.9062 299.625 74.7917 299.5 74.5625C299.062 73.8333 298.656 73.2292 298.281 72.75L298.062 72.4062C297.979 72.2812 297.938 72.1875 297.938 72.125C297.958 72.0417 298.01 72.0104 298.094 72.0312C298.635 72.1979 299.135 72.4688 299.594 72.8438C300.302 73.3854 300.656 73.8021 300.656 74.0938C300.656 74.2396 300.615 74.3854 300.531 74.5312C300.385 74.7812 300.219 74.9062 300.031 74.9062ZM305.25 66.5312C305.354 66.5312 305.51 66.6042 305.719 66.75C305.698 66.7917 305.74 66.875 305.844 67C305.948 67.1042 306.021 67.1771 306.062 67.2188C306.167 67.3229 306.271 67.4479 306.375 67.5938C306.5 67.7396 306.635 67.8958 306.781 68.0625C307.156 68.4583 308.021 69.4896 309.375 71.1562C309.604 71.4896 309.719 71.6875 309.719 71.75C309.719 71.9583 309.594 72.0625 309.344 72.0625C309.198 72.0625 309.042 71.9583 308.875 71.75C308.479 71.3333 307.771 70.6771 306.75 69.7812C305.958 69.0521 305.24 68.4896 304.594 68.0938C304.281 67.9479 304.125 67.7812 304.125 67.5938C304.125 67.4479 304.281 67.2396 304.594 66.9688C304.885 66.6771 305.104 66.5312 305.25 66.5312ZM272.375 85.625V85.7812C272.375 86.3021 272.208 86.5625 271.875 86.5625C271.708 86.5625 271.479 86.5 271.188 86.375C270.896 86.25 270.635 86.0729 270.406 85.8438C270.198 85.6354 270.094 85.4062 270.094 85.1562L270.125 84.9375C270.188 84.5 270.219 84.0208 270.219 83.5V82.875L269.719 64.4062C269.698 64.0729 269.646 63.7188 269.562 63.3438C269.479 62.9479 269.365 62.625 269.219 62.375C269.073 62.0833 269 61.875 269 61.75C269 61.5833 269.115 61.5 269.344 61.5C269.76 61.5 270.531 61.7604 271.656 62.2812L285.438 61.5625H285.656C285.969 61.5625 286.302 61.6875 286.656 61.9375C287.01 62.1667 287.188 62.4375 287.188 62.75C287.188 62.8542 287.167 62.9688 287.125 63.0938C287.083 63.2188 287.052 63.3229 287.031 63.4062L286.156 82C286.74 82.7292 287.031 83.2292 287.031 83.5C287.031 83.6458 286.958 83.7396 286.812 83.7812C286.667 83.8229 286.406 83.8542 286.031 83.875L272.344 84.3438L272.375 85.625ZM271.969 72.0938L284.562 71.4688L284.875 63.4688L271.75 64.1562L271.969 72.0938ZM272.281 82.4688L284.156 82.0938L284.5 73.375L272.031 73.9375L272.281 82.4688Z" fill="#333333"/>
</svg>
