<svg xmlns="http://www.w3.org/2000/svg" width="350" height="88" fill="none"><path fill="#333" d="M131.934 8.2c-.164 0-.082-.141.246-.423l1.195-1.02c.469-.421.996-.972 1.582-1.652.375-.445.656-.914.844-1.406.117-.281.246-.422.387-.422.117 0 .292.094.527.282.469.375.703.691.703.949 0 .164-.094.281-.281.351-.094.024-.235.13-.422.317a9.14 9.14 0 0 0-.422.386c-1.008.985-1.945 1.7-2.813 2.145-.703.328-1.171.492-1.406.492h-.14Zm3.691 6.538c-.07 0-.187-.093-.352-.281a2.99 2.99 0 0 1-.316-.598 2.004 2.004 0 0 1 0-.527c.047-.234.07-.41.07-.527.047-.47.071-.844.071-1.125a5.16 5.16 0 0 0 0-.844v-.598l-.036-.527c-.562.398-.996.68-1.3.844-.68.375-1.172.61-1.477.703-.375.14-.715.21-1.019.21-.164 0-.258-.023-.282-.07-.046-.093.422-.433 1.407-1.02.937-.585 1.957-1.358 3.058-2.32.61-.562 1.078-1.101 1.406-1.617a.77.77 0 0 0 .106-.246c.047-.117.094-.187.141-.21.07-.024.164-.012.281.035.305.164.562.398.773.703a.562.562 0 0 1 .141.351c0 .117-.059.235-.176.352a1.396 1.396 0 0 1-.351.21c-.399.259-.762.54-1.09.844-.328.305-.539.504-.633.598.351.281.527.48.527.598l-.105.738c-.047.211-.071.738-.071 1.582 0 .82.024 1.371.071 1.652v.07a.868.868 0 0 1-.106.387c-.047.118-.082.2-.105.247-.164.257-.375.386-.633.386Zm3.586 8.93c-.352 0-.691-.258-1.02-.773-.421-.657-.832-1.196-1.23-1.618l-.914-.949a14.424 14.424 0 0 1-1.301 1.336 6.992 6.992 0 0 1-1.336.95c-1.008.585-1.851.878-2.531.878-.164 0-.246-.058-.246-.176 0-.07.222-.222.668-.457a7.422 7.422 0 0 0 1.265-.843c1.008-.844 1.84-1.711 2.496-2.602-.14-.14-.843-.75-2.109-1.828-.164-.117-.41-.316-.738-.598a9.494 9.494 0 0 1-.422-.316c-.211-.164-.316-.281-.316-.352 0-.117.058-.175.175-.175.352 0 .914.246 1.688.738a25.67 25.67 0 0 1 2.426 1.687 6.91 6.91 0 0 0 .773-1.125c.188-.351.399-.785.633-1.3a2.41 2.41 0 0 0 .211-.668c.023-.211.035-.34.035-.387 0-.258.07-.387.211-.387.164 0 .387.129.668.387.492.469.738.785.738.95 0 .093-.058.198-.176.316-.281.28-.539.656-.773 1.124-.141.282-.398.68-.774 1.196-.117.14-.21.27-.281.387-.07.117-.14.222-.211.316.539.398 1.336 1.078 2.391 2.039.258.234.422.457.492.668.094.187.141.445.141.773 0 .235-.059.434-.176.598a.567.567 0 0 1-.457.211Zm-7.77 10.512c-.351 0-.621-.094-.808-.282-.211-.21-.317-.398-.317-.562 0-.164.094-.34.282-.527.023-.024.152-.211.386-.563.516-.82 1.102-1.863 1.758-3.129.68-1.289 1.102-2.168 1.266-2.637.14-.445.269-.832.387-1.16.14-.328.257-.492.351-.492.164 0 .305.059.422.176.117.094.234.234.352.422.14.164.246.281.316.351.164.188.246.364.246.528a.562.562 0 0 1-.141.351c-.093.117-.152.2-.175.246l-1.547 2.602a72.802 72.802 0 0 1-1.582 2.707.562.562 0 0 0-.141.352c0 .093.106.14.316.14.446 0 1.278-.059 2.497-.176 1.218-.093 2.039-.175 2.461-.246.609-.07 1.031-.14 1.265-.21.258-.071.633.105 1.125.527.586.492.715.808.387.949-.188.094-.551.14-1.09.14h-1.406c-.305 0-.785.024-1.442.07-.398 0-.843.013-1.336.036-.492.023-.902.047-1.23.07-.375.024-1.102.094-2.18.211l-.422.106Zm14.942-15.504c.281 0 .422.129.422.387 0 .14-.129.34-.387.597-.703.867-2.098 2.52-4.184 4.957-.164.211-.316.317-.457.317-.117 0-.375-.176-.773-.528-.328-.281-.492-.515-.492-.703 0-.21.176-.41.527-.598.539-.304 1.348-.914 2.426-1.828 1.078-.96 1.875-1.722 2.39-2.285.211-.21.387-.316.528-.316ZM98.113 34.25c-.375 0-.68-.035-.914-.105a.792.792 0 0 1-.492-.317c-.375-.492-.621-.95-.738-1.371a.488.488 0 0 1-.035-.21c0-.165.082-.247.246-.247l.175.035c.47.14 1.137.211 2.004.211l11.883-.281V28.94l-7.066.282h-.774c-.468 0-.797-.094-.984-.282-.633-.632-.949-1.16-.949-1.582 0-.164.082-.246.246-.246.094 0 .176.012.246.035.469.141.984.211 1.547.211h.316l7.453-.246v-2.531l-5.484.211.035.422v.105c0 .399-.176.598-.527.598-.211 0-.492-.07-.844-.211-.398-.188-.668-.34-.809-.457-.117-.14-.175-.328-.175-.563l.035-.316c.047-.375.07-.715.07-1.02a3.93 3.93 0 0 0-.035-.597l-.598-5.766c-.07-.68-.222-1.265-.457-1.758-.14-.375-.211-.597-.211-.668 0-.14.118-.21.352-.21.375 0 1.16.199 2.355.597l6.328-.351v-2.426l-10.124.527a4.52 4.52 0 0 0-.563.035 3.74 3.74 0 0 1-.527.036c-.47 0-.797-.094-.985-.282-.515-.515-.832-.902-.949-1.16l-.07-.281c0-.14.082-.211.246-.211h.14c.399.07.891.105 1.477.105h.422l10.969-.597V8.27c-1.547.187-3.457.328-5.731.421a66.69 66.69 0 0 0-2.531.141h-.352c-.375 0-.668-.035-.879-.105-.187-.094-.281-.2-.281-.317 0-.14.117-.27.352-.387.234-.14.574-.246 1.019-.316 6.61-.844 11.836-1.84 15.68-2.988.609-.188 1.09-.457 1.441-.809.141-.14.258-.21.352-.21.305 0 .68.292 1.125.878.469.563.703.984.703 1.266 0 .258-.164.422-.492.492a119.685 119.685 0 0 1-8.262 1.617v2.285l10.02-.562a7.476 7.476 0 0 0 1.476-.281l.176-.036c.094 0 .293.094.598.282.304.164.574.375.808.632.235.235.352.446.352.633 0 .235-.258.375-.774.422l-12.691.703v2.461l7.242-.387h.246c.516 0 .914.165 1.196.493.281.304.421.574.421.808a.832.832 0 0 1-.105.352c-.047.14-.082.27-.105.387l-.844 6.398c.539.633.808 1.078.808 1.336 0 .117-.058.2-.175.246a4.053 4.053 0 0 1-.387.07h-.352l-8.015.317v2.531l6.644-.246c.422-.07.821-.152 1.196-.246a1.93 1.93 0 0 1 .386-.07c.235 0 .586.199 1.055.597.492.375.738.703.738.985 0 .257-.328.41-.984.457l-9.035.351-.035 3.059 11.214-.282a6.12 6.12 0 0 0 1.723-.246l.422-.07c.305 0 .668.234 1.09.703.422.492.633.856.633 1.09 0 .234-.235.375-.704.422l-27.878.668-.739.035Zm6.117-15.293 6.082-.281v-2.39l-6.292.316.21 2.355Zm.387 4.184 5.66-.246v-2.567l-5.871.246.211 2.567Zm13.887-.563.211-2.637-6.293.282v2.601l6.082-.246Zm.351-4.324.211-2.39-6.609.316-.035 2.39 6.433-.316Zm66.797-4.078c-.257 0-.574-.2-.949-.598-.281-.281-.422-.492-.422-.633 0-.07.047-.105.141-.105.094-.024.211-.035.351-.035l.774-.035c.445 0 .738-.012.879-.036.445 0 .82-.011 1.125-.035 2.015-.187 3.375-.34 4.078-.457.351-.047.668-.094.949-.14.281-.07.504-.106.668-.106.328 0 .656.164.984.492.258.258.387.469.387.633 0 .14-.082.234-.246.281-.117.024-.809.07-2.074.141-.703.023-1.57.082-2.602.176a92.523 92.523 0 0 0-2.707.281c-.14.023-.34.059-.597.105-.258.047-.504.07-.739.07Zm7.981 15.398c.328.211.492.41.492.598 0 .258-.199.422-.598.492-.398.07-.961.117-1.687.14-1.055.024-1.735-.011-2.039-.105-.516-.234-.774-.62-.774-1.16l.035-1.3c.047-.423.071-.798.071-1.126.023-.21.035-.62.035-1.23-.352.797-.809 1.57-1.371 2.32-.399.492-.75.902-1.055 1.23a7.087 7.087 0 0 1-1.09.88c-.422.28-.808.421-1.16.421-.211 0-.316-.07-.316-.21 0-.024.222-.2.668-.528.468-.351.937-.832 1.406-1.441.703-.938 1.312-2.04 1.828-3.305-.914.117-1.523.223-1.828.316a1.242 1.242 0 0 0-.316.106.883.883 0 0 1-.352 0 3.005 3.005 0 0 1-.492-.281 3.19 3.19 0 0 1-.492-.457c-.094-.141-.141-.235-.141-.282 0-.117.176-.175.527-.175.868 0 1.981-.094 3.34-.282.141-.539.211-1.406.211-2.601v-.668c0-.281.059-.434.176-.457.023-.024.07-.035.141-.035.187 0 .445.14.773.421.258.211.422.375.492.493.094.093.106.222.035.386l-.14.282c-.071.14-.117.28-.141.422l-.141.703c-.07.328-.117.62-.14.879.328-.024.738-.07 1.23-.141.492-.07.856-.14 1.09-.211l.703-.176c.235-.047.621.152 1.16.598.094.07.141.152.141.246s-.047.176-.141.246a.498.498 0 0 1-.281.07c-.422 0-1.195.07-2.32.211l-1.16.106c.258.187.422.351.492.492.07.14.082.281.035.422l-.105.562c-.047.47-.094.985-.141 1.547a12 12 0 0 0 0 1.301c0 .117.07.223.211.316.164.094.328.141.492.141.586 0 1.242-.059 1.969-.176l.316-.07c.141 0 .258.023.352.07Zm6.75-14.765c.281 0 .422.129.422.386 0 .14-.129.34-.387.598-.703.867-2.098 2.52-4.184 4.957-.164.21-.316.316-.457.316-.117 0-.375-.175-.773-.527-.328-.281-.492-.516-.492-.703 0-.211.176-.41.527-.598.539-.304 1.348-.914 2.426-1.828 1.078-.96 1.875-1.723 2.39-2.285.211-.21.387-.316.528-.316Zm-24.645 17.894c.071 0 .117-.012.141-.035.047 0 .07-.035.07-.105.914-2.32 1.43-5.52 1.547-9.598l-1.758.07c-1.593 2.766-3.316 4.992-5.168 6.68-1.828 1.664-3.445 2.848-4.851 3.55-1.383.704-2.274 1.055-2.672 1.055-.235 0-.352-.07-.352-.21 0-.235.352-.587 1.055-1.055 3.82-2.578 6.914-5.871 9.281-9.88l-2.707.106c-1.406 1.688-2.789 3.082-4.148 4.184-1.36 1.078-2.531 1.863-3.516 2.355-.961.492-1.594.739-1.898.739-.188 0-.282-.07-.282-.211 0-.117.082-.27.247-.457a4.1 4.1 0 0 1 .738-.633c2.226-1.57 4.242-3.516 6.047-5.836l-3.551.176a27.65 27.65 0 0 1-2.988 2.18c-1.008.632-1.711.949-2.11.949-.164 0-.246-.059-.246-.176 0-.258.246-.574.738-.95 2.016-1.57 4.008-3.656 5.977-6.257l-2.144.14h-.633c-.61 0-.985-.082-1.125-.246-.422-.422-.715-.855-.879-1.3l-.071-.282c0-.14.071-.21.211-.21.118 0 .223.011.317.034.422.07.879.106 1.371.106h.422l15.398-.879c.586-.047 1.031-.117 1.336-.21.188-.048.317-.071.387-.071.281 0 .574.094.879.281.304.188.562.398.773.633.235.234.352.422.352.562 0 .305-.281.48-.844.528l-12.727.738c-.515.61-1.277 1.441-2.285 2.496l12.094-.598h.211c.516 0 .902.118 1.16.352.258.234.387.48.387.738 0 .117-.035.258-.106.422-.046.164-.07.281-.07.352-.141 3-.492 5.894-1.055 8.683-.234 1.242-.597 2.157-1.089 2.742-.469.586-.938.88-1.407.88-.445 0-1.101-.258-1.968-.774a15.918 15.918 0 0 1-2.391-1.652c-.727-.61-1.09-1.032-1.09-1.266 0-.117.094-.176.281-.176.282 0 .68.106 1.196.317 1.265.492 2.39.832 3.375 1.02h.14Zm-24.328 1.195c0-.164.012-.293.035-.386.141-.727.211-1.63.211-2.707l.282-21.2v-.597c0-.961-.094-1.688-.282-2.18-.164-.375-.246-.633-.246-.773 0-.164.094-.246.281-.246.305 0 1.172.28 2.602.843l4.641-.422.457-.035c.187 0 .468.117.843.352.399.234.598.492.598.773 0 .14-.07.293-.211.457-.117.141-.199.258-.246.352a47.087 47.087 0 0 1-2.918 5.062.536.536 0 0 0-.07.211c0 .141.035.246.105.317 1.008 1.125 1.699 2.18 2.074 3.164.399.984.598 2.074.598 3.27 0 .82-.176 1.535-.527 2.144-.328.61-.739.914-1.231.914-.351 0-.867-.27-1.547-.809a14.715 14.715 0 0 1-1.828-1.793c-.539-.68-.808-1.148-.808-1.406 0-.14.07-.21.211-.21.187 0 .492.14.914.421.492.352.996.668 1.511.95.516.257.856.386 1.02.386.07 0 .117-.14.141-.422.046-.281.07-.504.07-.668 0-.82-.164-1.64-.492-2.46-.305-.821-.879-1.712-1.723-2.673-.281-.351-.422-.691-.422-1.02 0-.28.106-.609.317-.984.984-1.687 1.746-3.14 2.285-4.359l-3.973.352-.352 25.804c0 .657-.199.985-.597.985-.094 0-.281-.059-.563-.176a2.553 2.553 0 0 1-.808-.457 1 1 0 0 1-.352-.774Zm11.496-28.546c0-.118.106-.176.317-.176.328 0 1.136.176 2.425.527l9.598-.562h.316c.399 0 .762.117 1.09.351.352.235.528.48.528.738a.867.867 0 0 1-.106.387c-.047.14-.082.258-.105.352l-.703 6.433c.586.563.879.973.879 1.23 0 .141-.083.235-.247.282-.14.047-.363.082-.668.106l-10.054.457.035.28v.106c0 .446-.199.668-.598.668-.328 0-.703-.129-1.125-.386-.422-.282-.633-.551-.633-.81v-.175c.071-.469.106-.914.106-1.336l-.035-.633-.387-5.625c-.047-.632-.164-1.16-.351-1.582-.188-.304-.282-.515-.282-.632Zm2.883 4.289 8.719-.493.211-2.285-9.071.492.141 2.286Zm.281 4.148 8.086-.422.211-2.566-8.472.457.175 2.531Zm80.051.598c-.164 0-.34-.106-.527-.317a2.15 2.15 0 0 1-.282-.386c-.046-.118-.046-.27 0-.457l.036-.844c.023-.164.035-.563.035-1.195v-1.16l-1.055.492-1.23.527a10.87 10.87 0 0 0-.95.422c-.281.14-.527.21-.738.21a2.17 2.17 0 0 1-.562-.175 4.837 4.837 0 0 1-.493-.246c-.257-.164-.375-.34-.351-.527l.105-.352c0-.188.012-.352.036-.492l.035-2.04V5.95c0-.375-.024-.691-.071-.949-.047-.281-.082-.48-.105-.598 0-.117.035-.199.105-.246.024-.023.082-.035.176-.035.164 0 .481.106.949.316.399.188.563.422.493.704-.047.164-.094.41-.141.738l-.106 4.043c0 .117.012.21.036.281.046.047.093.07.14.07.282 0 .621-.082 1.02-.246.75-.234 1.394-.468 1.933-.703l.774-.316v-2.32c0-.938-.059-1.84-.176-2.708a.792.792 0 0 1-.035-.246c0-.234.094-.351.281-.351.024 0 .152.047.387.14.351.188.609.352.773.493.164.14.258.222.282.246.093.07.14.14.14.21a.34.34 0 0 1-.07.176c-.024.07-.047.13-.07.176l-.106 1.055-.035 3.234.035 3.13c0 .538-.035 1.007-.105 1.405-.118.493-.305.739-.563.739Zm-6.469 5.765c-.257 0-.574-.199-.949-.597-.281-.282-.422-.492-.422-.633 0-.07.047-.106.141-.106a1.48 1.48 0 0 1 .351-.035l.774-.035c.445 0 .738-.012.879-.035.445 0 .82-.012 1.125-.035 2.015-.188 3.375-.34 4.078-.457a29.8 29.8 0 0 0 .949-.14c.281-.071.504-.106.668-.106.328 0 .656.164.984.492.258.258.387.469.387.633 0 .14-.082.234-.246.28-.117.024-.809.071-2.074.142-.703.023-1.57.082-2.602.175a92.491 92.491 0 0 0-2.707.282c-.14.023-.34.058-.597.105-.258.047-.504.07-.739.07Zm4.711 14.52c-.726 0-1.289-.024-1.687-.07a1.68 1.68 0 0 1-.949-.422c-.446-.328-.75-1.043-.915-2.145l-.105-1.125c0-.281-.023-.633-.07-1.055a5.987 5.987 0 0 0-.809.141 3.817 3.817 0 0 1-.246.106.965.965 0 0 1-.211.035.81.81 0 0 1-.457-.14c-.141-.095-.316-.27-.527-.528-.164-.211-.246-.352-.246-.422s.082-.117.246-.14c.164-.024.386-.036.668-.036.398 0 .914-.047 1.547-.14l-.036-.493c0-.937-.058-1.734-.175-2.39l-.036-.246c0-.329.129-.457.387-.387.281.094.539.21.774.351.187.094.316.188.386.282.071.07.094.175.071.316l-.106 1.512v.914l3.094-.317c0-.164.012-.55.035-1.16.024-.633.024-1.043 0-1.23 0-.188-.023-.363-.07-.527a6.529 6.529 0 0 0-.071-.458c0-.187.094-.28.282-.28.187 0 .422.105.703.316.328.21.539.398.633.562.117.164.14.363.07.598a6.4 6.4 0 0 0-.246 1.265c-.047.47-.07.75-.07.844.281-.023.539-.058.773-.105.234-.047.387-.07.457-.07.188-.047.41-.071.668-.071.141.023.34.164.598.422.211.281.316.504.316.668 0 .234-.223.328-.668.281a6.863 6.863 0 0 0-1.195-.105c-.399 0-.738.011-1.02.035-.07.844-.211 1.676-.422 2.496a.953.953 0 0 1-.246.457c-.117.14-.222.21-.316.21-.164 0-.27-.07-.317-.21a3.524 3.524 0 0 1-.035-.598c.047-.61.071-1.37.071-2.285a26.99 26.99 0 0 0-1.477.14 9.357 9.357 0 0 1-1.512.212c-.023.96.024 1.816.141 2.566.07.492.211.832.422 1.02.14.117.305.187.492.21.211.024.422.036.633.036h.422c.726 0 1.406-.035 2.039-.106a1.52 1.52 0 0 0 .492-.14c.164-.07.281-.106.352-.106.21 0 .421.07.632.211.211.14.317.305.317.492 0 .188-.106.328-.317.422-.187.094-.492.176-.914.246-.75.094-1.5.14-2.25.14Zm10.02-15.996c.281 0 .422.129.422.387 0 .14-.129.34-.387.597-.703.867-2.098 2.52-4.184 4.957-.164.211-.316.317-.457.317-.117 0-.375-.176-.773-.528-.328-.281-.492-.515-.492-.703 0-.21.176-.41.527-.598.539-.304 1.348-.914 2.426-1.828 1.078-.96 1.875-1.722 2.39-2.285.211-.21.387-.316.528-.316Zm-44.684 11.496c2.086-.656 3.949-1.371 5.59-2.145a25.586 25.586 0 0 0-1.336-1.687c-.187-.235-.281-.422-.281-.563 0-.258.152-.48.457-.668.305-.21.539-.316.703-.316.188 0 .387.117.598.352a137.853 137.853 0 0 1 3.41 4.148c.937 1.195 1.406 1.922 1.406 2.18 0 .21-.164.457-.492.738-.305.305-.598.457-.879.457-.234 0-.469-.188-.703-.563a96.435 96.435 0 0 0-1.828-2.671l-4.219 2.109c-.469.21-1.207.586-2.215 1.125-.844.445-1.359.668-1.547.668-.14 0-.316-.094-.527-.281a1.65 1.65 0 0 1-.492-.633c-.094-.234-.094-.422 0-.563.14-.257.211-1.289.211-3.093V16.602c0-.563-.024-1.02-.071-1.372a3.587 3.587 0 0 0-.281-1.125 1.37 1.37 0 0 0-.07-.175.305.305 0 0 1-.035-.14c0-.118.082-.177.246-.177.304 0 1.066.258 2.285.774l7.629-.528c.187-.023.398-.035.633-.035.257 0 .562.117.914.352.351.21.527.445.527.703 0 .094-.059.234-.176.422-.094.187-.14.328-.14.422l-.914 6.609c.562.656.843 1.102.843 1.336 0 .117-.07.2-.211.246-.117.047-.304.07-.562.07l-8.508.317.035 5.87Zm-5.765-15.785c0-.235.152-.516.457-.844 1.711-1.898 3.199-3.785 4.464-5.66 1.266-1.875 1.899-3.13 1.899-3.762l-.035-.246V3.77c0-.329.129-.493.386-.493.305 0 .727.211 1.266.633.563.399.844.727.844.985 0 .117-.059.27-.176.457a23.895 23.895 0 0 1-1.16 1.687l4.992-.387a4.872 4.872 0 0 0 1.336-.28c.141-.048.246-.071.316-.071.352 0 .727.199 1.125.597.422.375.633.668.633.88 0 .28-.258.445-.773.492l-6.012.421c.164.047.527.293 1.09.739.586.445 1.113.902 1.582 1.37.469.47.703.798.703.985 0 .211-.141.469-.422.774-.281.28-.527.421-.738.421-.188 0-.41-.152-.668-.457a21.796 21.796 0 0 0-2.426-2.285c-.281-.234-.422-.433-.422-.597 0-.118.059-.27.176-.457.117-.188.27-.34.457-.457l-2.355.175a34.406 34.406 0 0 1-3.727 3.903c-1.359 1.195-2.226 1.793-2.601 1.793-.141 0-.211-.07-.211-.211Zm12.656 3.656.246-2.461-7.242.492v2.32l6.996-.351Zm-.457 4.36.281-2.708-6.785.317v2.636l6.504-.246Zm1.898-9.528c0-.234.153-.516.457-.844 1.149-1.383 2.192-2.941 3.129-4.676.961-1.757 1.442-2.988 1.442-3.69v-.142c0-.351.129-.527.386-.527.164 0 .41.094.739.281.351.164.668.364.949.598.281.234.422.469.422.703 0 .211-.164.586-.493 1.125-.328.54-.503.82-.527.844l6.926-.563a6.483 6.483 0 0 0 1.336-.246c.047-.023.141-.035.281-.035.328 0 .68.188 1.055.563.398.351.597.644.597.879 0 .14-.07.257-.21.351-.118.07-.282.117-.493.14l-7.136.493c.656.422 1.429 1.043 2.32 1.863.891.797 1.336 1.336 1.336 1.617 0 .164-.129.422-.387.774-.258.328-.504.492-.738.492-.188 0-.387-.117-.598-.352-1.148-1.242-2.191-2.226-3.129-2.953-.234-.187-.351-.363-.351-.527 0-.188.176-.469.527-.844l-2.601.176c-.774 1.031-1.711 2.074-2.813 3.129-1.078 1.055-1.805 1.582-2.18 1.582-.164 0-.246-.07-.246-.211Zm3.305.773c0-.14.082-.21.246-.21.352 0 1.148.292 2.391.878l7.066-.597.281-.035c.094 0 .27.046.528.14.281.07.539.2.773.387.258.164.387.387.387.668 0 .094-.035.223-.106.387-.07.164-.105.28-.105.351a88.243 88.243 0 0 1-.492 8.262l-.071.879c-.07.984-.164 1.805-.281 2.46-.117.657-.316 1.173-.598 1.548-.445.609-.925.914-1.441.914s-1.172-.317-1.969-.95a18.576 18.576 0 0 1-2.215-2.074c-.656-.75-.984-1.23-.984-1.441 0-.164.094-.246.281-.246.211 0 .504.117.879.351.867.54 1.594.973 2.18 1.301.586.328 1.008.492 1.266.492.117 0 .199-.082.246-.246.539-3 .867-6.762.984-11.285l-6.609.492c0 3.961.035 10.242.105 18.844 0 .21-.058.363-.176.457a.466.466 0 0 1-.386.176c-.188 0-.411-.07-.668-.211-.446-.188-.762-.363-.95-.528-.187-.164-.281-.351-.281-.562l.035-.246c.141-.773.211-1.64.211-2.602l-.105-14.836c0-.609-.024-1.078-.07-1.406a3.306 3.306 0 0 0-.211-.95c-.094-.28-.141-.468-.141-.562ZM135.594 72.125c-.146 0-.24-.01-.282-.031-.02-.042.011-.115.094-.219.292-.27.521-.531.688-.781.187-.271.385-.698.594-1.281.333-.959.5-1.698.5-2.22 0-.478-.032-.916-.094-1.312v-.094c0-.229.146-.302.437-.218.25.062.531.146.844.25a.946.946 0 0 1 .281-.031c.125-.021.323-.053.594-.094a53.54 53.54 0 0 1 2.75-.313c0-.083.083-.375.25-.875l.188-.687c.083-.292.052-.438-.094-.438-.417 0-1.386.104-2.906.313l-1.657.281c-.146.02-.333-.042-.562-.188a1.89 1.89 0 0 1-.5-.5c-.104-.187-.084-.312.062-.374a.94.94 0 0 1 .5-.157H138l2.062-.062 2-.25c.105-.021.23-.052.376-.094.166-.063.322-.104.468-.125.209-.042.563.188 1.063.688a.39.39 0 0 1 .125.28c0 .126-.084.25-.25.376-.229.229-.375.427-.438.593-.021.105-.062.26-.125.47a6.948 6.948 0 0 0-.187.718.788.788 0 0 1 .187.531c0 .167-.052.292-.156.375-.083.063-.26.094-.531.094-.938.063-1.677.125-2.219.188-.542.041-1.198.145-1.969.312a10.063 10.063 0 0 1-.562 2.594c-.292.77-.698 1.354-1.219 1.75-.5.354-.844.531-1.031.531Zm7.968 9.719c.292.187.438.364.438.531 0 .23-.177.375-.531.438-.354.062-.854.104-1.5.124-.938.021-1.542-.01-1.813-.093-.458-.209-.687-.552-.687-1.031l.031-1.157c.042-.375.062-.708.062-1 .021-.187.032-.552.032-1.094a10.534 10.534 0 0 1-1.219 2.063c-.354.438-.667.802-.937 1.094-.271.27-.594.531-.969.781s-.719.375-1.031.375c-.188 0-.282-.063-.282-.188 0-.02.198-.177.594-.468.417-.313.833-.74 1.25-1.281.625-.834 1.167-1.813 1.625-2.938-.813.104-1.354.198-1.625.281-.104.021-.198.052-.281.094a.785.785 0 0 1-.313 0 2.646 2.646 0 0 1-.437-.25 2.823 2.823 0 0 1-.438-.406c-.083-.125-.125-.209-.125-.25 0-.104.156-.156.469-.156.771 0 1.76-.084 2.969-.25.125-.48.187-1.25.187-2.313v-.594c0-.25.052-.385.157-.406.02-.02.062-.031.124-.031.167 0 .396.125.688.375.229.187.375.333.438.437.083.084.093.198.031.344l-.125.25c-.063.125-.104.25-.125.375l-.125.625a6.584 6.584 0 0 0-.125.781c.291-.02.656-.062 1.093-.125.438-.062.761-.125.969-.187l.625-.156c.209-.042.552.135 1.032.53.083.063.124.136.124.22 0 .083-.041.156-.124.218a.446.446 0 0 1-.25.063c-.376 0-1.063.062-2.063.187l-1.031.094c.229.167.375.313.437.438a.47.47 0 0 1 .031.374l-.093.5c-.042.417-.084.876-.125 1.376-.021.5-.021.885 0 1.156 0 .104.062.198.187.281a.877.877 0 0 0 .438.125c.521 0 1.104-.052 1.75-.156l.281-.063c.125 0 .229.021.312.063Zm6.126-11.063c.062 0 .124.031.187.094a.302.302 0 0 1 .125.188v.062c0 .146-.115.427-.344.844l-2.25 3.906c-.166.354-.385.531-.656.531s-.5-.166-.688-.5c-.187-.27-.416-.677-.687-1.219a3.86 3.86 0 0 1-.313-.562 10.16 10.16 0 0 0-.187-.406c-.229-.396-.344-.677-.344-.844a.21.21 0 0 1 .094-.188c.063-.062.125-.093.187-.093.23 0 .438.125.626.375.145.146.26.302.343.469l.344.468.625.719.281-.438c.292-.5.979-1.49 2.063-2.968.229-.292.427-.438.594-.438ZM112.906 82v.094c0 .375-.187.562-.562.562-.271 0-.584-.073-.938-.219-.354-.145-.531-.437-.531-.874l.031-.22c.063-.353.094-.718.094-1.093l-.031-.656-.407-6.25c-.041-.667-.114-1.094-.218-1.281a2.632 2.632 0 0 1-.156-.282.712.712 0 0 1-.094-.281c0-.104.083-.156.25-.156.333 0 1 .187 2 .562l12.75-.656h.375c.291 0 .593.094.906.281.333.167.5.375.5.625a.73.73 0 0 1-.094.313 2.174 2.174 0 0 0-.093.281l-.563 6.719c.5.52.75.906.75 1.156 0 .125-.063.208-.187.25-.126.02-.355.042-.688.063l-13.125.406.031.656Zm-7.5-13c0-.146.042-.292.125-.438.438-.854.834-1.843 1.188-2.968.354-1.146.604-2.209.75-3.188.041-.25.093-.427.156-.531.083-.125.219-.188.406-.188.229 0 .469.042.719.126.271.083.406.28.406.593 0 .125-.01.23-.031.313l-.187 1.187 8.531-.5.062-3.281c0-.396-.146-.833-.437-1.313a.534.534 0 0 1-.125-.343c0-.167.135-.25.406-.25.354 0 .792.104 1.313.312.541.209.812.469.812.782v.062l-.188 3.906 1.969-.125c1.25-1.083 2.052-1.916 2.407-2.5.374-.604.572-1.114.593-1.531 0-.104.021-.188.063-.25a.298.298 0 0 1 .218-.094c.25 0 .626.219 1.126.657.395.374.593.677.593.906 0 .229-.333.635-1 1.218a15.989 15.989 0 0 1-2.031 1.47l6.938-.407h.406c.458 0 .833.115 1.125.344.291.229.437.448.437.656 0 .125-.073.25-.218.375a1.46 1.46 0 0 0-.313.281c-1.042 1.334-1.979 2.354-2.813 3.063-.812.687-1.343 1.031-1.593 1.031-.125 0-.188-.063-.188-.188 0-.187.104-.427.313-.718.896-1.23 1.562-2.344 2-3.344l-20.688 1.156c-.479 1.98-.854 3.26-1.125 3.844-.271.563-.51.844-.719.844a8.79 8.79 0 0 1-.5-.125 3.103 3.103 0 0 1-.624-.344c-.188-.146-.282-.313-.282-.5Zm1.469 17.656c0-.166.198-.323.594-.469 2.041-.708 3.719-1.468 5.031-2.28 1.312-.834 2.052-1.522 2.219-2.063.062-.188.166-.281.312-.281.229 0 .552.26.969.78.417.5.625.897.625 1.188 0 .188-.125.354-.375.5-3.021 1.521-5.896 2.469-8.625 2.844l-.25.031c-.333 0-.5-.083-.5-.25Zm3.531-26.25c0-.166.073-.354.219-.562.146-.23.323-.344.531-.344.146 0 .573.208 1.282.625.729.396 1.395.833 2 1.313.604.458.906.802.906 1.03 0 .292-.125.553-.375.782-.25.208-.438.313-.563.313-.187 0-.396-.115-.625-.344a21.415 21.415 0 0 0-3.062-2.407c-.209-.145-.313-.28-.313-.406Zm1.094 5.438c0-.104.083-.156.25-.156.312 0 .99.177 2.031.53l9.375-.562h.313c.354 0 .666.104.937.313.292.187.438.375.438.562a.745.745 0 0 1-.094.313 1.41 1.41 0 0 0-.125.25l-.344 1.562c.396.48.594.823.594 1.031 0 .126-.063.209-.187.25-.126.042-.334.073-.626.094l-9.812.438.031.281v.063c0 .312-.177.468-.531.468-.312 0-.635-.062-.969-.187-.333-.125-.5-.354-.5-.688v-.156c.042-.375.063-.625.063-.75s-.021-.333-.063-.625l-.187-1.219c-.084-.583-.219-1.031-.406-1.344-.126-.229-.188-.385-.188-.468Zm1 8.687 12.094-.562.094-1.281-12.25.593.062 1.25Zm.156 2.594 11.75-.5.094-1.375-11.938.563.094 1.312Zm.125 2.813 11.438-.376.093-1.593-11.593.469.062 1.5Zm1.313-10.782 8.344-.406.218-1.688-8.75.47.188 1.624Zm6.875 13.813c0-.354.073-.646.219-.875.166-.25.343-.375.531-.375.271 0 1.208.333 2.812 1A38.789 38.789 0 0 1 129 84.875c.229.125.396.24.5.344.104.125.156.26.156.406 0 .188-.094.469-.281.844-.187.396-.417.594-.687.594-.146 0-.365-.084-.657-.25-2.146-1.334-4.302-2.407-6.469-3.22a1.896 1.896 0 0 1-.468-.25.578.578 0 0 1-.125-.374Zm69.25-10.875c-.146 0-.302-.094-.469-.281a1.928 1.928 0 0 1-.25-.344c-.042-.104-.042-.24 0-.406l.031-.75c.021-.146.031-.5.031-1.063v-1.031l-.937.437-1.094.469c-.271.104-.552.23-.843.375-.25.125-.469.188-.657.188a1.933 1.933 0 0 1-.5-.157 4.225 4.225 0 0 1-.437-.219c-.229-.145-.334-.302-.313-.468l.094-.313c0-.166.01-.312.031-.437l.032-1.813v-1.687c0-.334-.021-.615-.063-.844-.042-.25-.073-.427-.094-.531 0-.104.031-.177.094-.219.021-.02.073-.031.156-.031.146 0 .427.093.844.281.354.167.5.375.437.625a5.354 5.354 0 0 0-.124.656l-.094 3.594c0 .104.01.188.031.25.042.042.083.063.125.063.25 0 .552-.073.906-.22.667-.208 1.24-.416 1.719-.624l.687-.281V65.25c0-.833-.052-1.635-.156-2.406a.689.689 0 0 1-.031-.219c0-.208.083-.313.25-.313.021 0 .135.042.344.126.312.166.541.312.687.437.146.125.229.198.25.219.084.062.125.125.125.187a.308.308 0 0 1-.062.157 1.21 1.21 0 0 1-.063.156l-.094.937-.031 2.875.031 2.781c0 .48-.031.896-.093 1.25-.104.438-.271.657-.5.657Zm-5.063 9.125c-.687-.25-1.01-.521-.968-.813.124-.875.187-1.875.187-3a13.45 13.45 0 0 0-.094-1.781c-.021-.208-.021-.323 0-.344a.426.426 0 0 1 .313-.125c.187 0 .416.084.687.25.292.167.438.334.438.5 0 .104-.011.209-.031.313a1.151 1.151 0 0 0-.032.281l-.187 3.094c0 .166.062.27.187.312h.156c.167 0 .282-.01.344-.031l4.032-.563V78.5c0-1.02-.021-1.813-.063-2.375-.021-.48-.073-.865-.156-1.156-.063-.334.021-.5.25-.5.166 0 .385.062.656.187.333.167.531.313.594.438.062.104.083.27.062.5-.041.375-.062.937-.062 1.687l.031 2.375c0 .5-.094.896-.281 1.188-.104.125-.209.187-.313.187-.104 0-.25-.094-.437-.281a1.845 1.845 0 0 1-.157-.188.411.411 0 0 0-.187-.156.817.817 0 0 0-.25-.031c-.479.042-1.635.198-3.469.469-.312.041-.562.125-.75.25-.208.104-.344.156-.406.156l-.094-.031Zm12.406-12.5c.25 0 .376.114.376.344 0 .124-.115.302-.344.53-.625.772-1.865 2.24-3.719 4.407-.146.188-.281.281-.406.281-.104 0-.334-.156-.688-.469-.291-.25-.437-.458-.437-.624 0-.188.156-.365.468-.532.48-.27 1.198-.812 2.157-1.625.958-.854 1.666-1.531 2.125-2.031.187-.188.344-.281.468-.281Zm-24 16.5c.146 0 .25-.094.313-.281.542-1.834.969-4.303 1.281-7.407.313-3.104.5-6.198.563-9.281l-15.907.938a27.34 27.34 0 0 1-4.406 4.5l-.156.124c-.271.23-.562.344-.875.344-.146 0-.219-.062-.219-.187 0-.188.167-.448.5-.781.313-.313.844-.928 1.594-1.844.771-.917 1.5-1.948 2.188-3.094.708-1.167 1.083-2.177 1.124-3.031 0-.209.105-.313.313-.313.125 0 .323.084.594.25.291.167.552.365.781.594.229.23.344.448.344.656a.566.566 0 0 1-.094.281 5.385 5.385 0 0 1-.562.876l15.25-.907h.281c.396 0 .719.125.969.375.27.23.406.459.406.688 0 .104-.032.26-.094.469a1.518 1.518 0 0 0-.094.437c-.125 3.063-.385 6.646-.781 10.75-.375 4.083-.937 6.52-1.687 7.313-.459.458-.886.687-1.282.687-.312 0-.656-.094-1.031-.281-1.583-.73-2.74-1.386-3.469-1.969-.729-.583-1.094-1.01-1.094-1.281 0-.104.084-.156.25-.156.209 0 .532.093.969.28 1.188.5 2.5.917 3.938 1.25h.093Zm-19.843-22.281c0-.126.083-.188.25-.188.083 0 .146.01.187.031.354.084.729.125 1.125.125l.531-.031 5.876-.344-.188-1.343c-.021-.146-.104-.344-.25-.594a2.795 2.795 0 0 0-.469-.657c-.146-.145-.219-.27-.219-.374 0-.188.219-.282.657-.282.229 0 .51.032.843.094.417.063.709.167.876.313.166.145.27.322.312.53l.312 2.188 1.282-.093c.271 0 .448.01.531.03a.667.667 0 0 1 .375.22.416.416 0 0 1 .156.343c0 .25-.094.427-.281.532-.167.104-.406.177-.719.218-.146.021-.344.042-.594.063-.229.02-.406.031-.531.031l.344 2.344v.187c0 .375-.177.563-.531.563-.292 0-.625-.073-1-.219-.375-.167-.563-.458-.563-.875v-.688c0-.25-.01-.447-.031-.593l-.062-.344-5.657.344c-.229.02-.5.031-.812.031-.479 0-.865-.146-1.157-.438a2.451 2.451 0 0 1-.593-1.124Zm1.531 21.218c0-.208.135-.385.406-.531.834-.563 1.688-1.281 2.563-2.156a14.47 14.47 0 0 0 2.25-2.906c.166-.271.291-.615.375-1.032.083-.208.218-.281.406-.219.208.042.5.24.875.594.396.334.594.656.594.969a.562.562 0 0 1-.219.438 1.748 1.748 0 0 0-.281.28c-.604.855-1.365 1.647-2.281 2.376-.917.729-1.803 1.312-2.657 1.75-.833.416-1.448.625-1.843.625-.126 0-.188-.063-.188-.188Zm.188-8.531c0-.083.041-.125.124-.125.063 0 .105.01.126.031.416.104.895.156 1.437.156h.437l6.344-.374.032-3.844c0-.584-.115-1.125-.344-1.625l-.063-.156c0-.146.125-.22.375-.22.417 0 .823.094 1.219.282.396.188.594.406.594.656l-.031 4.781 4.843-.28c.334-.022.636-.053.907-.094.291-.063.52-.105.687-.126.042-.02.094-.041.156-.062a.699.699 0 0 1 .219-.031c.312 0 .625.156.938.469.312.312.468.562.468.75 0 .229-.218.364-.656.406l-7.562.437v.938c.145-.104.27-.156.374-.156.271 0 1.115.416 2.532 1.25 1.416.833 2.562 1.562 3.437 2.187a2.4 2.4 0 0 1 .469.406.55.55 0 0 1 .156.406c0 .146-.062.334-.187.563-.229.375-.448.563-.657.563a.777.777 0 0 1-.343-.094 23.382 23.382 0 0 1-.344-.281c-.646-.521-1.542-1.115-2.687-1.782-1.167-.708-2.042-1.281-2.626-1.719l-.124-.093-.032 6.469c0 .187-.052.333-.156.437a.42.42 0 0 1-.375.188c-.063 0-.229-.053-.5-.157a1.932 1.932 0 0 1-.687-.406c-.209-.188-.313-.406-.313-.656 0-.104.01-.177.031-.219.125-.5.188-1.188.188-2.063l.031-5.687-6.094.375-.625.031c-.25 0-.448-.02-.594-.062a1.74 1.74 0 0 1-.437-.281c-.104-.063-.25-.24-.437-.532-.167-.291-.25-.51-.25-.656Zm3.187-3.469a.57.57 0 0 1 .187-.406c.23-.292.428-.438.594-.438.229 0 .719.271 1.469.813.771.52 1.406.98 1.906 1.375.229.167.344.365.344.594 0 .27-.115.51-.344.719-.229.208-.427.312-.593.312-.167 0-.365-.115-.594-.344-.375-.375-.813-.76-1.313-1.156-.5-.417-.969-.76-1.406-1.031a.776.776 0 0 1-.187-.188.55.55 0 0 1-.063-.25Zm7.906 2.5c0-.166.146-.385.438-.656.812-.688 1.448-1.344 1.906-1.969.458-.646.698-1.114.719-1.406.021-.27.135-.406.344-.406.27 0 .572.208.906.625.333.396.5.708.5.937 0 .23-.313.594-.938 1.094-.625.5-1.312.958-2.062 1.375-.75.417-1.261.625-1.532.625-.187 0-.281-.073-.281-.219Zm.407-12.406c0-.042.031-.083.093-.125a.264.264 0 0 1 .219-.031l.688-.032c.208 0 .666-.02 1.374-.062.167-.75.25-1.323.25-1.719v-.218c0-.376-.083-.709-.25-1a.723.723 0 0 1-.093-.282c0-.125.083-.187.25-.187.104 0 .354.073.75.218.396.126.75.303 1.062.532.334.208.5.437.5.687 0 .104-.01.177-.031.219-.104.375-.281.938-.531 1.688l4.656-.282c.625-.02 1.146-.104 1.563-.25.166-.062.322-.093.468-.093.313 0 .636.177.969.53.354.355.531.647.531.876 0 .229-.229.364-.687.406l-8.125.5c-.334.75-.636 1.385-.906 1.906-.25.5-.448.834-.594 1-.146.167-.302.25-.469.25a.298.298 0 0 1-.25-.125c-.063-.104-.094-.25-.094-.437 0-.188.042-.406.125-.656.271-.959.438-1.573.5-1.844l-.5.031c-.375 0-.718-.146-1.031-.438-.313-.312-.458-.656-.437-1.03v-.032Zm64.374 5.5c-.02 0-.093.02-.218.063-.104.02-.156-.01-.156-.094 0-.021.041-.063.124-.125l.219-.219c.063-.063.157-.146.281-.25.126-.125.219-.25.282-.375.312-.52.531-1.042.656-1.563l.188-1.093c.145-.813.208-1.76.187-2.844 0-.25-.031-.51-.094-.781-.021-.125-.125-.302-.312-.532v-.03c0-.042.052-.063.156-.063.146 0 .271.01.375.031.271.063.573.094.906.094.354-.021.573-.032.656-.032l2.094-.156c.417-.041.688-.062.813-.062.896-.125 1.302-.177 1.219-.157.479-.083.77-.124.874-.124.334.02.667.28 1 .78l.063.157c0 .125-.094.198-.281.219-.188.02-.302.031-.344.031-.646 0-1.125.01-1.438.031-.791 0-1.374.01-1.75.032l-.874.062-1.782.188c-.125 1.75-.239 2.895-.344 3.437-.166.98-.489 1.77-.968 2.375-.354.458-.865.792-1.532 1Zm7.876 8.844c-.313 0-.615-.23-.907-.688a9.905 9.905 0 0 0-1.093-1.437l-.813-.844c-.437.5-.823.896-1.156 1.188a6.25 6.25 0 0 1-1.188.843c-.896.521-1.646.781-2.25.781-.146 0-.219-.052-.219-.156 0-.062.198-.198.594-.406a6.591 6.591 0 0 0 1.125-.75c.896-.75 1.636-1.52 2.219-2.313-.125-.124-.75-.666-1.875-1.624a10.426 10.426 0 0 1-.656-.532 7.616 7.616 0 0 1-.375-.281c-.188-.146-.282-.25-.282-.313 0-.104.053-.156.157-.156.312 0 .812.219 1.5.656.687.417 1.406.917 2.156 1.5.292-.354.521-.687.687-1 .167-.312.355-.697.563-1.156.104-.229.167-.427.187-.594a4.83 4.83 0 0 0 .032-.343c0-.23.062-.344.187-.344.146 0 .344.115.594.344.437.416.656.698.656.844 0 .083-.052.177-.156.28-.25.25-.479.584-.687 1-.126.25-.355.605-.688 1.063a2.76 2.76 0 0 0-.25.344 3.062 3.062 0 0 1-.188.281c.48.354 1.188.959 2.126 1.813.229.208.374.406.437.594.083.166.125.395.125.687a.89.89 0 0 1-.156.531.504.504 0 0 1-.406.188Zm-3.157 9.937c-.146 0-.25-.041-.312-.125a1.964 1.964 0 0 0-.125-.156c-.209-.292-.302-.573-.282-.844.021-.166.053-.614.094-1.344l.032-1.5c-.021-.229-.042-.364-.063-.406-.021-.062-.115-.187-.281-.375a15.88 15.88 0 0 0-1.156-1.281c-.5-.5-.823-.833-.969-1l-.938-.938c-.062-.062-.093-.124-.093-.187 0-.104.062-.188.187-.25a.674.674 0 0 1 .437-.094c.417.042.688.094.813.156.146.042.281.167.406.376.125.208.302.458.531.75.25.27.438.479.563.624.521.626.885 1.042 1.094 1.25.375-.437.843-1.062 1.406-1.874.458-.584.729-1.063.813-1.438.083-.27.208-.406.374-.406.084 0 .209.052.376.156.541.333.812.604.812.813 0 .124-.135.28-.406.468-.375.271-.688.573-.938.906l-.625.782c-.416.5-.729.896-.937 1.187-.104.188-.156.459-.156.813V85.75c.02.146-.063.313-.25.5-.167.188-.303.281-.407.281Zm-23.687-18.125c0 .375-.177.563-.532.563-.354 0-.708-.094-1.062-.281-.354-.209-.531-.459-.531-.75v-.157c0-.146.01-.291.031-.437a2.86 2.86 0 0 0 .031-.406c0-.105-.021-.303-.062-.594l-.094-.438-5.937.344c-.188.02-.428.031-.719.031-.292 0-.521-.02-.688-.062a.85.85 0 0 1-.375-.219c-.187-.167-.364-.406-.531-.719-.167-.333-.25-.552-.25-.656 0-.125.083-.188.25-.188a.43.43 0 0 1 .187.032c.355.083.698.125 1.032.125l.531-.031 6.219-.376-.469-2.468a1.664 1.664 0 0 0-.25-.657 4.38 4.38 0 0 0-.469-.656c-.104-.146-.156-.27-.156-.375 0-.187.208-.281.625-.281.229 0 .51.031.844.094.437.083.729.187.875.312a.817.817 0 0 1 .312.532l.532 3.406 1.062-.063c.271 0 .448.01.531.031.167.021.292.094.375.22a.55.55 0 0 1 .156.406.594.594 0 0 1-.312.5 2.81 2.81 0 0 1-.75.187c-.188.042-.469.063-.844.063l.438 2.812v.156Zm-11.563 11.688c0-.271.24-.573.719-.906a35.018 35.018 0 0 0 4.156-3.657c1.292-1.312 2.323-2.52 3.094-3.625.792-1.125 1.219-1.958 1.281-2.5.063-.375.188-.562.375-.562.146 0 .354.094.625.281.292.167.542.385.75.656.229.25.344.49.344.719 0 .417-.51 1.188-1.531 2.313A302.039 302.039 0 0 1 209 74.53l.062 11.969c0 .333-.177.5-.531.5-.291 0-.656-.146-1.093-.438-.417-.27-.626-.572-.626-.906l.032-.219c.125-.77.187-1.666.187-2.687l.094-6.375a29.094 29.094 0 0 1-5.25 3.656c-.333.188-.604.281-.813.281-.187 0-.281-.072-.281-.218Zm13.313-10.781c0-.146.114-.22.344-.22.124.022.354.074.687.157.354.063.687.188 1 .375.313.167.469.375.469.625l-.032 3.813 6.469-1.032c.459-.062.844-.187 1.157-.375.208-.104.354-.156.437-.156.25 0 .563.146.937.438.376.27.573.572.594.906 0 .312-.26.52-.781.625l-8.844 1.469-.062 5.843v.094c0 .625.146 1.104.437 1.438.313.312.802.541 1.469.687.687.125 1.635.188 2.844.188 1.458 0 2.729-.115 3.812-.344.417-.084.75-.219 1-.406.25-.209.49-.657.719-1.344.229-.709.438-1.792.625-3.25.063-.459.146-.813.25-1.063.104-.25.219-.375.344-.375.416 0 .625 1.146.625 3.438 0 1.146-.063 2.041-.188 2.687-.125.625-.406 1.136-.844 1.531-.416.396-1.072.657-1.968.782a35.01 35.01 0 0 1-4.563.312c-1.646 0-2.916-.094-3.812-.281-.896-.167-1.573-.531-2.031-1.094-.459-.541-.688-1.385-.688-2.531l.062-11.156a3.12 3.12 0 0 0-.406-1.563.39.39 0 0 1-.062-.219Zm.875-5.344c0-.042.031-.084.093-.125a.264.264 0 0 1 .219-.032l.719-.03c.208 0 .688-.022 1.438-.063.291-1.167.437-2.209.437-3.125 0-.396-.083-.74-.25-1.032a.712.712 0 0 1-.094-.28c0-.126.094-.188.281-.188.167 0 .438.073.813.218.396.146.75.334 1.063.563.312.208.468.427.468.656l-.031.188c-.208.979-.469 1.937-.781 2.875l4.781-.282c.625-.02 1.146-.104 1.563-.25.166-.062.322-.093.468-.093.271 0 .584.177.938.531.375.354.562.667.562.938 0 .25-.229.395-.687.437l-8.188.5c-.541 1.375-.958 2.333-1.25 2.875-.271.52-.521.781-.75.781-.229 0-.343-.208-.343-.625 0-.187.031-.416.093-.687l.531-2.281-.562.03c-.396 0-.76-.145-1.094-.437-.312-.312-.458-.656-.437-1.031v-.031Z"/></svg>