<svg width="350" height="88" viewBox="0 0 350 88" fill="none" xmlns="http://www.w3.org/2000/svg">
<path d="M131.934 8.19922C131.77 8.19922 131.852 8.05859 132.18 7.77734C132.508 7.49609 132.906 7.15625 133.375 6.75781C133.844 6.33594 134.371 5.78516 134.957 5.10547C135.332 4.66016 135.613 4.19141 135.801 3.69922C135.918 3.41797 136.047 3.27734 136.188 3.27734C136.305 3.27734 136.48 3.37109 136.715 3.55859C137.184 3.93359 137.418 4.25 137.418 4.50781C137.418 4.67187 137.324 4.78906 137.137 4.85938C137.043 4.88281 136.902 4.98828 136.715 5.17578C136.527 5.33984 136.387 5.46875 136.293 5.5625C135.285 6.54688 134.348 7.26172 133.48 7.70703C132.777 8.03516 132.309 8.19922 132.074 8.19922H131.934ZM135.625 14.7383C135.555 14.7383 135.438 14.6445 135.273 14.457C135.133 14.2461 135.027 14.0469 134.957 13.8594C134.934 13.7188 134.934 13.543 134.957 13.332C135.004 13.0977 135.027 12.9219 135.027 12.8047C135.074 12.3359 135.098 11.9609 135.098 11.6797C135.121 11.4219 135.121 11.1406 135.098 10.8359C135.098 10.5313 135.098 10.332 135.098 10.2383L135.062 9.71094C134.5 10.1094 134.066 10.3906 133.762 10.5547C133.082 10.9297 132.59 11.1641 132.285 11.2578C131.91 11.3984 131.57 11.4688 131.266 11.4688C131.102 11.4688 131.008 11.4453 130.984 11.3984C130.938 11.3047 131.406 10.9648 132.391 10.3789C133.328 9.79297 134.348 9.01953 135.449 8.05859C136.059 7.49609 136.527 6.95703 136.855 6.44141C136.902 6.37109 136.938 6.28906 136.961 6.19531C137.008 6.07812 137.055 6.00781 137.102 5.98438C137.172 5.96094 137.266 5.97266 137.383 6.01953C137.688 6.18359 137.945 6.41797 138.156 6.72266C138.25 6.83984 138.297 6.95703 138.297 7.07422C138.297 7.19141 138.238 7.30859 138.121 7.42578C138.004 7.51953 137.887 7.58984 137.77 7.63672C137.371 7.89453 137.008 8.17578 136.68 8.48047C136.352 8.78516 136.141 8.98438 136.047 9.07812C136.398 9.35938 136.574 9.55859 136.574 9.67578L136.469 10.4141C136.422 10.625 136.398 11.1523 136.398 11.9961C136.398 12.8164 136.422 13.3672 136.469 13.6484V13.7188C136.469 13.8359 136.434 13.9648 136.363 14.1055C136.316 14.2227 136.281 14.3047 136.258 14.3516C136.094 14.6094 135.883 14.7383 135.625 14.7383ZM139.211 23.668C138.859 23.668 138.52 23.4102 138.191 22.8945C137.77 22.2383 137.359 21.6992 136.961 21.2773L136.047 20.3281C135.555 20.8906 135.121 21.3359 134.746 21.6641C134.395 21.9922 133.949 22.3086 133.41 22.6133C132.402 23.1992 131.559 23.4922 130.879 23.4922C130.715 23.4922 130.633 23.4336 130.633 23.3164C130.633 23.2461 130.855 23.0938 131.301 22.8594C131.746 22.625 132.168 22.3438 132.566 22.0156C133.574 21.1719 134.406 20.3047 135.062 19.4141C134.922 19.2734 134.219 18.6641 132.953 17.5859C132.789 17.4688 132.543 17.2695 132.215 16.9883C132.145 16.9414 132.004 16.8359 131.793 16.6719C131.582 16.5078 131.477 16.3906 131.477 16.3203C131.477 16.2031 131.535 16.1445 131.652 16.1445C132.004 16.1445 132.566 16.3906 133.34 16.8828C134.113 17.3516 134.922 17.9141 135.766 18.5703C136.094 18.1719 136.352 17.7969 136.539 17.4453C136.727 17.0938 136.938 16.6602 137.172 16.1445C137.289 15.8867 137.359 15.6641 137.383 15.4766C137.406 15.2656 137.418 15.1367 137.418 15.0898C137.418 14.832 137.488 14.7031 137.629 14.7031C137.793 14.7031 138.016 14.832 138.297 15.0898C138.789 15.5586 139.035 15.875 139.035 16.0391C139.035 16.1328 138.977 16.2383 138.859 16.3555C138.578 16.6367 138.32 17.0117 138.086 17.4805C137.945 17.7617 137.688 18.1602 137.312 18.6758C137.195 18.8164 137.102 18.9453 137.031 19.0625C136.961 19.1797 136.891 19.2852 136.82 19.3789C137.359 19.7773 138.156 20.457 139.211 21.418C139.469 21.6523 139.633 21.875 139.703 22.0859C139.797 22.2734 139.844 22.5312 139.844 22.8594C139.844 23.0938 139.785 23.293 139.668 23.457C139.551 23.5977 139.398 23.668 139.211 23.668ZM131.441 34.1797C131.09 34.1797 130.82 34.0859 130.633 33.8984C130.422 33.6875 130.316 33.5 130.316 33.3359C130.316 33.1719 130.41 32.9961 130.598 32.8086C130.621 32.7852 130.75 32.5977 130.984 32.2461C131.5 31.4258 132.086 30.3828 132.742 29.1172C133.422 27.8281 133.844 26.9492 134.008 26.4805C134.148 26.0352 134.277 25.6484 134.395 25.3203C134.535 24.9922 134.652 24.8281 134.746 24.8281C134.91 24.8281 135.051 24.8867 135.168 25.0039C135.285 25.0977 135.402 25.2383 135.52 25.4258C135.66 25.5898 135.766 25.707 135.836 25.7773C136 25.9648 136.082 26.1406 136.082 26.3047C136.082 26.4219 136.035 26.5391 135.941 26.6562C135.848 26.7734 135.789 26.8555 135.766 26.9023L134.219 29.5039C133.82 30.2305 133.293 31.1328 132.637 32.2109C132.543 32.3281 132.496 32.4453 132.496 32.5625C132.496 32.6562 132.602 32.7031 132.812 32.7031C133.258 32.7031 134.09 32.6445 135.309 32.5273C136.527 32.4336 137.348 32.3516 137.77 32.2812C138.379 32.2109 138.801 32.1406 139.035 32.0703C139.293 32 139.668 32.1758 140.16 32.5977C140.746 33.0898 140.875 33.4062 140.547 33.5469C140.359 33.6406 139.996 33.6875 139.457 33.6875H138.051C137.746 33.6875 137.266 33.7109 136.609 33.7578C136.211 33.7578 135.766 33.7695 135.273 33.793C134.781 33.8164 134.371 33.8398 134.043 33.8633C133.668 33.8867 132.941 33.957 131.863 34.0742L131.441 34.1797ZM146.383 18.6758C146.664 18.6758 146.805 18.8047 146.805 19.0625C146.805 19.2031 146.676 19.4023 146.418 19.6602C145.715 20.5273 144.32 22.1797 142.234 24.6172C142.07 24.8281 141.918 24.9336 141.777 24.9336C141.66 24.9336 141.402 24.7578 141.004 24.4062C140.676 24.125 140.512 23.8906 140.512 23.7031C140.512 23.4922 140.688 23.293 141.039 23.1055C141.578 22.8008 142.387 22.1914 143.465 21.2773C144.543 20.3164 145.34 19.5547 145.855 18.9922C146.066 18.7812 146.242 18.6758 146.383 18.6758ZM98.1133 34.25C97.7383 34.25 97.4336 34.2148 97.1992 34.1445C96.9883 34.0977 96.8242 33.9922 96.707 33.8281C96.332 33.3359 96.0859 32.8789 95.9688 32.457C95.9453 32.4102 95.9336 32.3398 95.9336 32.2461C95.9336 32.082 96.0156 32 96.1797 32L96.3555 32.0352C96.8242 32.1758 97.4922 32.2461 98.3594 32.2461L110.242 31.9648V28.9414L103.176 29.2227H102.402C101.934 29.2227 101.605 29.1289 101.418 28.9414C100.785 28.3086 100.469 27.7812 100.469 27.3594C100.469 27.1953 100.551 27.1133 100.715 27.1133C100.809 27.1133 100.891 27.125 100.961 27.1484C101.43 27.2891 101.945 27.3594 102.508 27.3594H102.824L110.277 27.1133V24.582L104.793 24.793L104.828 25.2148V25.3203C104.828 25.7188 104.652 25.918 104.301 25.918C104.09 25.918 103.809 25.8477 103.457 25.707C103.059 25.5195 102.789 25.3672 102.648 25.25C102.531 25.1094 102.473 24.9219 102.473 24.6875L102.508 24.3711C102.555 23.9961 102.578 23.6562 102.578 23.3516C102.578 23.0938 102.566 22.8945 102.543 22.7539L101.945 16.9883C101.875 16.3086 101.723 15.7227 101.488 15.2305C101.348 14.8555 101.277 14.6328 101.277 14.5625C101.277 14.4219 101.395 14.3516 101.629 14.3516C102.004 14.3516 102.789 14.5508 103.984 14.9492L110.312 14.5977V12.1719L100.188 12.6992C100 12.6992 99.8125 12.7109 99.625 12.7344C99.4609 12.7578 99.2852 12.7695 99.0977 12.7695C98.6289 12.7695 98.3008 12.6758 98.1133 12.4883C97.5977 11.9727 97.2812 11.5859 97.1641 11.3281L97.0938 11.0469C97.0938 10.9062 97.1758 10.8359 97.3398 10.8359H97.4805C97.8789 10.9062 98.3711 10.9414 98.957 10.9414H99.3789L110.348 10.3438V8.26953C108.801 8.45703 106.891 8.59766 104.617 8.69141C103.492 8.73828 102.648 8.78516 102.086 8.83203H101.734C101.359 8.83203 101.066 8.79688 100.855 8.72656C100.668 8.63281 100.574 8.52734 100.574 8.41016C100.574 8.26953 100.691 8.14063 100.926 8.02344C101.16 7.88281 101.5 7.77734 101.945 7.70703C108.555 6.86328 113.781 5.86719 117.625 4.71875C118.234 4.53125 118.715 4.26172 119.066 3.91016C119.207 3.76953 119.324 3.69922 119.418 3.69922C119.723 3.69922 120.098 3.99219 120.543 4.57812C121.012 5.14062 121.246 5.5625 121.246 5.84375C121.246 6.10156 121.082 6.26562 120.754 6.33594C118.035 6.96875 115.281 7.50781 112.492 7.95312V10.2383L122.512 9.67578C123.027 9.62891 123.52 9.53516 123.988 9.39453L124.164 9.35938C124.258 9.35938 124.457 9.45312 124.762 9.64062C125.066 9.80469 125.336 10.0156 125.57 10.2734C125.805 10.5078 125.922 10.7187 125.922 10.9062C125.922 11.1406 125.664 11.2812 125.148 11.3281L112.457 12.0312V14.4922L119.699 14.1055H119.945C120.461 14.1055 120.859 14.2695 121.141 14.5977C121.422 14.9023 121.562 15.1719 121.562 15.4062C121.562 15.5 121.527 15.6172 121.457 15.7578C121.41 15.8984 121.375 16.0273 121.352 16.1445L120.508 22.543C121.047 23.1758 121.316 23.6211 121.316 23.8789C121.316 23.9961 121.258 24.0781 121.141 24.125C121.047 24.1484 120.918 24.1719 120.754 24.1953C120.59 24.1953 120.473 24.1953 120.402 24.1953L112.387 24.5117V27.043L119.031 26.7969C119.453 26.7266 119.852 26.6445 120.227 26.5508C120.414 26.5039 120.543 26.4805 120.613 26.4805C120.848 26.4805 121.199 26.6797 121.668 27.0781C122.16 27.4531 122.406 27.7812 122.406 28.0625C122.406 28.3203 122.078 28.4727 121.422 28.5195L112.387 28.8711L112.352 31.9297L123.566 31.6484C124.152 31.6484 124.727 31.5664 125.289 31.4023L125.711 31.332C126.016 31.332 126.379 31.5664 126.801 32.0352C127.223 32.5273 127.434 32.8906 127.434 33.125C127.434 33.3594 127.199 33.5 126.73 33.5469L98.8516 34.2148L98.1133 34.25ZM104.23 18.957L110.312 18.6758V16.2852L104.02 16.6016L104.23 18.957ZM104.617 23.1406L110.277 22.8945V20.3281L104.406 20.5742L104.617 23.1406ZM118.504 22.5781L118.715 19.9414L112.422 20.2227V22.8242L118.504 22.5781ZM118.855 18.2539L119.066 15.8633L112.457 16.1797L112.422 18.5703L118.855 18.2539ZM185.652 14.1758C185.395 14.1758 185.078 13.9766 184.703 13.5781C184.422 13.2969 184.281 13.0859 184.281 12.9453C184.281 12.875 184.328 12.8398 184.422 12.8398C184.516 12.8164 184.633 12.8047 184.773 12.8047L185.547 12.7695C185.992 12.7695 186.285 12.7578 186.426 12.7344C186.871 12.7344 187.246 12.7227 187.551 12.6992C189.566 12.5117 190.926 12.3594 191.629 12.2422C191.98 12.1953 192.297 12.1484 192.578 12.1016C192.859 12.0312 193.082 11.9961 193.246 11.9961C193.574 11.9961 193.902 12.1602 194.23 12.4883C194.488 12.7461 194.617 12.957 194.617 13.1211C194.617 13.2617 194.535 13.3555 194.371 13.4023C194.254 13.4258 193.562 13.4727 192.297 13.543C191.594 13.5664 190.727 13.625 189.695 13.7188C188.664 13.8125 187.762 13.9063 186.988 14C186.848 14.0234 186.648 14.0586 186.391 14.1055C186.133 14.1523 185.887 14.1758 185.652 14.1758ZM193.633 29.5742C193.961 29.7852 194.125 29.9844 194.125 30.1719C194.125 30.4297 193.926 30.5938 193.527 30.6641C193.129 30.7344 192.566 30.7812 191.84 30.8047C190.785 30.8281 190.105 30.793 189.801 30.6992C189.285 30.4648 189.027 30.0781 189.027 29.5391L189.062 28.2383C189.109 27.8164 189.133 27.4414 189.133 27.1133C189.156 26.9023 189.168 26.4922 189.168 25.8828C188.816 26.6797 188.359 27.4531 187.797 28.2031C187.398 28.6953 187.047 29.1055 186.742 29.4336C186.438 29.7383 186.074 30.0312 185.652 30.3125C185.23 30.5938 184.844 30.7344 184.492 30.7344C184.281 30.7344 184.176 30.6641 184.176 30.5234C184.176 30.5 184.398 30.3242 184.844 29.9961C185.312 29.6445 185.781 29.1641 186.25 28.5547C186.953 27.6172 187.562 26.5156 188.078 25.25C187.164 25.3672 186.555 25.4727 186.25 25.5664C186.133 25.5898 186.027 25.625 185.934 25.6719C185.84 25.6953 185.723 25.6953 185.582 25.6719C185.465 25.625 185.301 25.5312 185.09 25.3906C184.879 25.2266 184.715 25.0742 184.598 24.9336C184.504 24.793 184.457 24.6992 184.457 24.6523C184.457 24.5352 184.633 24.4766 184.984 24.4766C185.852 24.4766 186.965 24.3828 188.324 24.1953C188.465 23.6562 188.535 22.7891 188.535 21.5938V20.9258C188.535 20.6445 188.594 20.4922 188.711 20.4688C188.734 20.4453 188.781 20.4336 188.852 20.4336C189.039 20.4336 189.297 20.5742 189.625 20.8555C189.883 21.0664 190.047 21.2305 190.117 21.3477C190.211 21.4414 190.223 21.5703 190.152 21.7344C190.129 21.7812 190.082 21.875 190.012 22.0156C189.941 22.1562 189.895 22.2969 189.871 22.4375C189.848 22.5547 189.801 22.7891 189.73 23.1406C189.66 23.4688 189.613 23.7617 189.59 24.0195C189.918 23.9961 190.328 23.9492 190.82 23.8789C191.312 23.8086 191.676 23.7383 191.91 23.668L192.613 23.4922C192.848 23.4453 193.234 23.6445 193.773 24.0898C193.867 24.1602 193.914 24.2422 193.914 24.3359C193.914 24.4297 193.867 24.5117 193.773 24.582C193.703 24.6289 193.609 24.6523 193.492 24.6523C193.07 24.6523 192.297 24.7227 191.172 24.8633L190.012 24.9688C190.27 25.1562 190.434 25.3203 190.504 25.4609C190.574 25.6016 190.586 25.7422 190.539 25.8828L190.434 26.4453C190.387 26.9141 190.34 27.4297 190.293 27.9922C190.27 28.5547 190.27 28.9883 190.293 29.293C190.293 29.4102 190.363 29.5156 190.504 29.6094C190.668 29.7031 190.832 29.75 190.996 29.75C191.582 29.75 192.238 29.6914 192.965 29.5742L193.281 29.5039C193.422 29.5039 193.539 29.5273 193.633 29.5742ZM200.383 14.8086C200.664 14.8086 200.805 14.9375 200.805 15.1953C200.805 15.3359 200.676 15.5352 200.418 15.793C199.715 16.6602 198.32 18.3125 196.234 20.75C196.07 20.9609 195.918 21.0664 195.777 21.0664C195.66 21.0664 195.402 20.8906 195.004 20.5391C194.676 20.2578 194.512 20.0234 194.512 19.8359C194.512 19.625 194.688 19.4258 195.039 19.2383C195.578 18.9336 196.387 18.3242 197.465 17.4102C198.543 16.4492 199.34 15.6875 199.855 15.125C200.066 14.9141 200.242 14.8086 200.383 14.8086ZM175.738 32.7031C175.809 32.7031 175.855 32.6914 175.879 32.668C175.926 32.668 175.949 32.6328 175.949 32.5625C176.863 30.2422 177.379 27.043 177.496 22.9648L175.738 23.0352C174.145 25.8008 172.422 28.0273 170.57 29.7148C168.742 31.3789 167.125 32.5625 165.719 33.2656C164.336 33.9688 163.445 34.3203 163.047 34.3203C162.812 34.3203 162.695 34.25 162.695 34.1094C162.695 33.875 163.047 33.5234 163.75 33.0547C167.57 30.4766 170.664 27.1836 173.031 23.1758L170.324 23.2812C168.918 24.9688 167.535 26.3633 166.176 27.4648C164.816 28.543 163.645 29.3281 162.66 29.8203C161.699 30.3125 161.066 30.5586 160.762 30.5586C160.574 30.5586 160.48 30.4883 160.48 30.3477C160.48 30.2305 160.562 30.0781 160.727 29.8906C160.914 29.6797 161.16 29.4688 161.465 29.2578C163.691 27.6875 165.707 25.7422 167.512 23.4219L163.961 23.5977C162.977 24.418 161.98 25.1445 160.973 25.7773C159.965 26.4102 159.262 26.7266 158.863 26.7266C158.699 26.7266 158.617 26.668 158.617 26.5508C158.617 26.293 158.863 25.9766 159.355 25.6016C161.371 24.0312 163.363 21.9453 165.332 19.3438L163.188 19.4844H162.555C161.945 19.4844 161.57 19.4023 161.43 19.2383C161.008 18.8164 160.715 18.3828 160.551 17.9375L160.48 17.6562C160.48 17.5156 160.551 17.4453 160.691 17.4453C160.809 17.4453 160.914 17.457 161.008 17.4805C161.43 17.5508 161.887 17.5859 162.379 17.5859H162.801L178.199 16.707C178.785 16.6602 179.23 16.5898 179.535 16.4961C179.723 16.4492 179.852 16.4258 179.922 16.4258C180.203 16.4258 180.496 16.5195 180.801 16.707C181.105 16.8945 181.363 17.1055 181.574 17.3398C181.809 17.5742 181.926 17.7617 181.926 17.9023C181.926 18.207 181.645 18.3828 181.082 18.4297L168.355 19.168C167.84 19.7773 167.078 20.6094 166.07 21.6641L178.164 21.0664H178.375C178.891 21.0664 179.277 21.1836 179.535 21.418C179.793 21.6523 179.922 21.8984 179.922 22.1562C179.922 22.2734 179.887 22.4141 179.816 22.5781C179.77 22.7422 179.746 22.8594 179.746 22.9297C179.605 25.9297 179.254 28.8242 178.691 31.6133C178.457 32.8555 178.094 33.7695 177.602 34.3555C177.133 34.9414 176.664 35.2344 176.195 35.2344C175.75 35.2344 175.094 34.9766 174.227 34.4609C173.359 33.9688 172.562 33.418 171.836 32.8086C171.109 32.1992 170.746 31.7773 170.746 31.543C170.746 31.4258 170.84 31.3672 171.027 31.3672C171.309 31.3672 171.707 31.4727 172.223 31.6836C173.488 32.1758 174.613 32.5156 175.598 32.7031H175.738ZM151.41 33.8984C151.41 33.7344 151.422 33.6055 151.445 33.5117C151.586 32.7852 151.656 31.8828 151.656 30.8047L151.938 9.60547V9.00781C151.938 8.04687 151.844 7.32031 151.656 6.82812C151.492 6.45313 151.41 6.19531 151.41 6.05469C151.41 5.89063 151.504 5.80859 151.691 5.80859C151.996 5.80859 152.863 6.08984 154.293 6.65234L158.934 6.23047L159.391 6.19531C159.578 6.19531 159.859 6.3125 160.234 6.54688C160.633 6.78125 160.832 7.03906 160.832 7.32031C160.832 7.46094 160.762 7.61328 160.621 7.77734C160.504 7.91797 160.422 8.03516 160.375 8.12891C159.461 9.95703 158.488 11.6445 157.457 13.1914C157.41 13.2852 157.387 13.3555 157.387 13.4023C157.387 13.543 157.422 13.6484 157.492 13.7188C158.5 14.8438 159.191 15.8984 159.566 16.8828C159.965 17.8672 160.164 18.957 160.164 20.1523C160.164 20.9727 159.988 21.6875 159.637 22.2969C159.309 22.9062 158.898 23.2109 158.406 23.2109C158.055 23.2109 157.539 22.9414 156.859 22.4023C156.203 21.8633 155.594 21.2656 155.031 20.6094C154.492 19.9297 154.223 19.4609 154.223 19.2031C154.223 19.0625 154.293 18.9922 154.434 18.9922C154.621 18.9922 154.926 19.1328 155.348 19.4141C155.84 19.7656 156.344 20.082 156.859 20.3633C157.375 20.6211 157.715 20.75 157.879 20.75C157.949 20.75 157.996 20.6094 158.02 20.3281C158.066 20.0469 158.09 19.8242 158.09 19.6602C158.09 18.8398 157.926 18.0195 157.598 17.1992C157.293 16.3789 156.719 15.4883 155.875 14.5273C155.594 14.1758 155.453 13.8359 155.453 13.5078C155.453 13.2266 155.559 12.8984 155.77 12.5234C156.754 10.8359 157.516 9.38281 158.055 8.16406L154.082 8.51562L153.73 34.3203C153.73 34.9766 153.531 35.3047 153.133 35.3047C153.039 35.3047 152.852 35.2461 152.57 35.1289C152.289 35.0352 152.02 34.8828 151.762 34.6719C151.527 34.4609 151.41 34.2031 151.41 33.8984ZM162.906 5.35156C162.906 5.23437 163.012 5.17578 163.223 5.17578C163.551 5.17578 164.359 5.35156 165.648 5.70312L175.246 5.14062H175.562C175.961 5.14062 176.324 5.25781 176.652 5.49219C177.004 5.72656 177.18 5.97266 177.18 6.23047C177.18 6.34766 177.145 6.47656 177.074 6.61719C177.027 6.75781 176.992 6.875 176.969 6.96875L176.266 13.4023C176.852 13.9648 177.145 14.375 177.145 14.6328C177.145 14.7734 177.062 14.8672 176.898 14.9141C176.758 14.9609 176.535 14.9961 176.23 15.0195L166.176 15.4766L166.211 15.7578V15.8633C166.211 16.3086 166.012 16.5312 165.613 16.5312C165.285 16.5312 164.91 16.4023 164.488 16.1445C164.066 15.8633 163.855 15.5938 163.855 15.3359V15.1602C163.926 14.6914 163.961 14.2461 163.961 13.8242L163.926 13.1914L163.539 7.56641C163.492 6.93359 163.375 6.40625 163.188 5.98438C163 5.67969 162.906 5.46875 162.906 5.35156ZM165.789 9.64062L174.508 9.14844L174.719 6.86328L165.648 7.35547L165.789 9.64062ZM166.07 13.7891L174.156 13.3672L174.367 10.8008L165.895 11.2578L166.07 13.7891ZM246.121 14.3867C245.957 14.3867 245.781 14.2812 245.594 14.0703C245.453 13.9063 245.359 13.7773 245.312 13.6836C245.266 13.5664 245.266 13.4141 245.312 13.2266L245.348 12.3828C245.371 12.2188 245.383 11.8203 245.383 11.1875V10.0273L244.328 10.5195L243.098 11.0469C242.793 11.1641 242.477 11.3047 242.148 11.4688C241.867 11.6094 241.621 11.6797 241.41 11.6797C241.246 11.6563 241.059 11.5977 240.848 11.5039C240.637 11.4102 240.473 11.3281 240.355 11.2578C240.098 11.0938 239.98 10.918 240.004 10.7305L240.109 10.3789C240.109 10.1914 240.121 10.0273 240.145 9.88672L240.18 7.84766V5.94922C240.18 5.57422 240.156 5.25781 240.109 5C240.062 4.71875 240.027 4.51953 240.004 4.40234C240.004 4.28516 240.039 4.20313 240.109 4.15625C240.133 4.13281 240.191 4.12109 240.285 4.12109C240.449 4.12109 240.766 4.22656 241.234 4.4375C241.633 4.625 241.797 4.85938 241.727 5.14062C241.68 5.30469 241.633 5.55078 241.586 5.87891L241.48 9.92188C241.48 10.0391 241.492 10.1328 241.516 10.2031C241.562 10.25 241.609 10.2734 241.656 10.2734C241.938 10.2734 242.277 10.1914 242.676 10.0273C243.426 9.79297 244.07 9.55859 244.609 9.32422L245.383 9.00781V6.6875C245.383 5.75 245.324 4.84766 245.207 3.98047C245.184 3.91016 245.172 3.82812 245.172 3.73438C245.172 3.5 245.266 3.38281 245.453 3.38281C245.477 3.38281 245.605 3.42969 245.84 3.52344C246.191 3.71094 246.449 3.875 246.613 4.01562C246.777 4.15625 246.871 4.23828 246.895 4.26172C246.988 4.33203 247.035 4.40234 247.035 4.47266C247.035 4.51953 247.012 4.57812 246.965 4.64844C246.941 4.71875 246.918 4.77734 246.895 4.82422L246.789 5.87891L246.754 9.11328L246.789 12.2422C246.789 12.7813 246.754 13.25 246.684 13.6484C246.566 14.1406 246.379 14.3867 246.121 14.3867ZM239.652 20.1523C239.395 20.1523 239.078 19.9531 238.703 19.5547C238.422 19.2734 238.281 19.0625 238.281 18.9219C238.281 18.8516 238.328 18.8164 238.422 18.8164C238.516 18.793 238.633 18.7812 238.773 18.7812L239.547 18.7461C239.992 18.7461 240.285 18.7344 240.426 18.7109C240.871 18.7109 241.246 18.6992 241.551 18.6758C243.566 18.4883 244.926 18.3359 245.629 18.2188C245.98 18.1719 246.297 18.125 246.578 18.0781C246.859 18.0078 247.082 17.9727 247.246 17.9727C247.574 17.9727 247.902 18.1367 248.23 18.4648C248.488 18.7227 248.617 18.9336 248.617 19.0977C248.617 19.2383 248.535 19.332 248.371 19.3789C248.254 19.4023 247.562 19.4492 246.297 19.5195C245.594 19.543 244.727 19.6016 243.695 19.6953C242.664 19.7891 241.762 19.8828 240.988 19.9766C240.848 20 240.648 20.0352 240.391 20.082C240.133 20.1289 239.887 20.1523 239.652 20.1523ZM244.363 34.6719C243.637 34.6719 243.074 34.6484 242.676 34.6016C242.301 34.5547 241.984 34.4141 241.727 34.1797C241.281 33.8516 240.977 33.1367 240.812 32.0352L240.707 30.9102C240.707 30.6289 240.684 30.2773 240.637 29.8555C240.262 29.9023 239.992 29.9492 239.828 29.9961C239.781 30.0195 239.699 30.0547 239.582 30.1016C239.488 30.125 239.418 30.1367 239.371 30.1367C239.207 30.1367 239.055 30.0898 238.914 29.9961C238.773 29.9023 238.598 29.7266 238.387 29.4688C238.223 29.2578 238.141 29.1172 238.141 29.0469C238.141 28.9766 238.223 28.9297 238.387 28.9062C238.551 28.8828 238.773 28.8711 239.055 28.8711C239.453 28.8711 239.969 28.8242 240.602 28.7305L240.566 28.2383C240.566 27.3008 240.508 26.5039 240.391 25.8477L240.355 25.6016C240.355 25.2734 240.484 25.1445 240.742 25.2148C241.023 25.3086 241.281 25.4258 241.516 25.5664C241.703 25.6602 241.832 25.7539 241.902 25.8477C241.973 25.918 241.996 26.0234 241.973 26.1641L241.867 27.6758V28.5898L244.961 28.2734C244.961 28.1094 244.973 27.7227 244.996 27.1133C245.02 26.4805 245.02 26.0703 244.996 25.8828C244.996 25.6953 244.973 25.5195 244.926 25.3555C244.902 25.168 244.879 25.0156 244.855 24.8984C244.855 24.7109 244.949 24.6172 245.137 24.6172C245.324 24.6172 245.559 24.7227 245.84 24.9336C246.168 25.1445 246.379 25.332 246.473 25.4961C246.59 25.6602 246.613 25.8594 246.543 26.0938C246.426 26.4688 246.344 26.8906 246.297 27.3594C246.25 27.8281 246.227 28.1094 246.227 28.2031C246.508 28.1797 246.766 28.1445 247 28.0977C247.234 28.0508 247.387 28.0273 247.457 28.0273C247.645 27.9805 247.867 27.957 248.125 27.957C248.266 27.9805 248.465 28.1211 248.723 28.3789C248.934 28.6602 249.039 28.8828 249.039 29.0469C249.039 29.2812 248.816 29.375 248.371 29.3281C247.973 29.2578 247.574 29.2227 247.176 29.2227C246.777 29.2227 246.438 29.2344 246.156 29.2578C246.086 30.1016 245.945 30.9336 245.734 31.7539C245.688 31.9414 245.605 32.0938 245.488 32.2109C245.371 32.3516 245.266 32.4219 245.172 32.4219C245.008 32.4219 244.902 32.3516 244.855 32.2109C244.832 32.0938 244.82 31.8945 244.82 31.6133C244.867 31.0039 244.891 30.2422 244.891 29.3281C244.258 29.375 243.766 29.4219 243.414 29.4688C242.875 29.5859 242.371 29.6562 241.902 29.6797C241.879 30.6406 241.926 31.4961 242.043 32.2461C242.113 32.7383 242.254 33.0781 242.465 33.2656C242.605 33.3828 242.77 33.4531 242.957 33.4766C243.168 33.5 243.379 33.5117 243.59 33.5117C243.801 33.5117 243.941 33.5117 244.012 33.5117C244.738 33.5117 245.418 33.4766 246.051 33.4062C246.238 33.3828 246.402 33.3359 246.543 33.2656C246.707 33.1953 246.824 33.1602 246.895 33.1602C247.105 33.1602 247.316 33.2305 247.527 33.3711C247.738 33.5117 247.844 33.6758 247.844 33.8633C247.844 34.0508 247.738 34.1914 247.527 34.2852C247.34 34.3789 247.035 34.4609 246.613 34.5312C245.863 34.625 245.113 34.6719 244.363 34.6719ZM254.383 18.6758C254.664 18.6758 254.805 18.8047 254.805 19.0625C254.805 19.2031 254.676 19.4023 254.418 19.6602C253.715 20.5273 252.32 22.1797 250.234 24.6172C250.07 24.8281 249.918 24.9336 249.777 24.9336C249.66 24.9336 249.402 24.7578 249.004 24.4062C248.676 24.125 248.512 23.8906 248.512 23.7031C248.512 23.4922 248.688 23.293 249.039 23.1055C249.578 22.8008 250.387 22.1914 251.465 21.2773C252.543 20.3164 253.34 19.5547 253.855 18.9922C254.066 18.7812 254.242 18.6758 254.383 18.6758ZM209.699 30.1719C211.785 29.5156 213.648 28.8008 215.289 28.0273C214.938 27.5352 214.492 26.9727 213.953 26.3398C213.766 26.1055 213.672 25.918 213.672 25.7773C213.672 25.5195 213.824 25.2969 214.129 25.1094C214.434 24.8984 214.668 24.793 214.832 24.793C215.02 24.793 215.219 24.9102 215.43 25.1445C216.766 26.7148 217.902 28.0977 218.84 29.293C219.777 30.4883 220.246 31.2148 220.246 31.4727C220.246 31.6836 220.082 31.9297 219.754 32.2109C219.449 32.5156 219.156 32.668 218.875 32.668C218.641 32.668 218.406 32.4805 218.172 32.1055C217.633 31.2852 217.023 30.3945 216.344 29.4336L212.125 31.543C211.656 31.7539 210.918 32.1289 209.91 32.668C209.066 33.1133 208.551 33.3359 208.363 33.3359C208.223 33.3359 208.047 33.2422 207.836 33.0547C207.625 32.8906 207.461 32.6797 207.344 32.4219C207.25 32.1875 207.25 32 207.344 31.8594C207.484 31.6016 207.555 30.5703 207.555 28.7656V16.6016C207.555 16.0391 207.531 15.582 207.484 15.2305C207.461 14.8789 207.367 14.5039 207.203 14.1055C207.18 14.0352 207.156 13.9766 207.133 13.9297C207.109 13.8828 207.098 13.8359 207.098 13.7891C207.098 13.6719 207.18 13.6133 207.344 13.6133C207.648 13.6133 208.41 13.8711 209.629 14.3867L217.258 13.8594C217.445 13.8359 217.656 13.8242 217.891 13.8242C218.148 13.8242 218.453 13.9414 218.805 14.1758C219.156 14.3867 219.332 14.6211 219.332 14.8789C219.332 14.9727 219.273 15.1133 219.156 15.3008C219.062 15.4883 219.016 15.6289 219.016 15.7227L218.102 22.332C218.664 22.9883 218.945 23.4336 218.945 23.668C218.945 23.7852 218.875 23.8672 218.734 23.9141C218.617 23.9609 218.43 23.9844 218.172 23.9844L209.664 24.3008L209.699 30.1719ZM203.934 14.3867C203.934 14.1523 204.086 13.8711 204.391 13.543C206.102 11.6445 207.59 9.75781 208.855 7.88281C210.121 6.00781 210.754 4.75391 210.754 4.12109L210.719 3.875V3.76953C210.719 3.44141 210.848 3.27734 211.105 3.27734C211.41 3.27734 211.832 3.48828 212.371 3.91016C212.934 4.30859 213.215 4.63672 213.215 4.89453C213.215 5.01172 213.156 5.16406 213.039 5.35156C212.688 5.91406 212.301 6.47656 211.879 7.03906L216.871 6.65234C217.293 6.62891 217.738 6.53516 218.207 6.37109C218.348 6.32422 218.453 6.30078 218.523 6.30078C218.875 6.30078 219.25 6.5 219.648 6.89844C220.07 7.27344 220.281 7.56641 220.281 7.77734C220.281 8.05859 220.023 8.22266 219.508 8.26953L213.496 8.69141C213.66 8.73828 214.023 8.98438 214.586 9.42969C215.172 9.875 215.699 10.332 216.168 10.8008C216.637 11.2695 216.871 11.5977 216.871 11.7852C216.871 11.9961 216.73 12.2539 216.449 12.5586C216.168 12.8398 215.922 12.9805 215.711 12.9805C215.523 12.9805 215.301 12.8281 215.043 12.5234C214.246 11.6563 213.438 10.8945 212.617 10.2383C212.336 10.0039 212.195 9.80469 212.195 9.64062C212.195 9.52344 212.254 9.37109 212.371 9.18359C212.488 8.99609 212.641 8.84375 212.828 8.72656L210.473 8.90234C209.348 10.2852 208.105 11.5859 206.746 12.8047C205.387 14 204.52 14.5977 204.145 14.5977C204.004 14.5977 203.934 14.5273 203.934 14.3867ZM216.59 18.043L216.836 15.582L209.594 16.0742V18.3945L216.59 18.043ZM216.133 22.4023L216.414 19.6953L209.629 20.0117V22.6484L216.133 22.4023ZM218.031 12.875C218.031 12.6406 218.184 12.3594 218.488 12.0312C219.637 10.6484 220.68 9.08984 221.617 7.35547C222.578 5.59766 223.059 4.36719 223.059 3.66406V3.52344C223.059 3.17188 223.188 2.99609 223.445 2.99609C223.609 2.99609 223.855 3.08984 224.184 3.27734C224.535 3.44141 224.852 3.64063 225.133 3.875C225.414 4.10937 225.555 4.34375 225.555 4.57812C225.555 4.78906 225.391 5.16406 225.062 5.70312C224.734 6.24219 224.559 6.52344 224.535 6.54688L231.461 5.98438C231.977 5.9375 232.422 5.85547 232.797 5.73828C232.844 5.71484 232.938 5.70312 233.078 5.70312C233.406 5.70312 233.758 5.89063 234.133 6.26562C234.531 6.61719 234.73 6.91016 234.73 7.14453C234.73 7.28516 234.66 7.40234 234.52 7.49609C234.402 7.56641 234.238 7.61328 234.027 7.63672L226.891 8.12891C227.547 8.55078 228.32 9.17187 229.211 9.99219C230.102 10.7891 230.547 11.3281 230.547 11.6094C230.547 11.7734 230.418 12.0312 230.16 12.3828C229.902 12.7109 229.656 12.875 229.422 12.875C229.234 12.875 229.035 12.7578 228.824 12.5234C227.676 11.2812 226.633 10.2969 225.695 9.57031C225.461 9.38281 225.344 9.20703 225.344 9.04297C225.344 8.85547 225.52 8.57422 225.871 8.19922L223.27 8.375C222.496 9.40625 221.559 10.4492 220.457 11.5039C219.379 12.5586 218.652 13.0859 218.277 13.0859C218.113 13.0859 218.031 13.0156 218.031 12.875ZM221.336 13.6484C221.336 13.5078 221.418 13.4375 221.582 13.4375C221.934 13.4375 222.73 13.7305 223.973 14.3164L231.039 13.7188L231.32 13.6836C231.414 13.6836 231.59 13.7305 231.848 13.8242C232.129 13.8945 232.387 14.0234 232.621 14.2109C232.879 14.375 233.008 14.5977 233.008 14.8789C233.008 14.9727 232.973 15.1016 232.902 15.2656C232.832 15.4297 232.797 15.5469 232.797 15.6172C232.773 18.1953 232.609 20.9492 232.305 23.8789L232.234 24.7578C232.164 25.7422 232.07 26.5625 231.953 27.2188C231.836 27.875 231.637 28.3906 231.355 28.7656C230.91 29.375 230.43 29.6797 229.914 29.6797C229.398 29.6797 228.742 29.3633 227.945 28.7305C227.148 28.0977 226.41 27.4062 225.73 26.6562C225.074 25.9062 224.746 25.4258 224.746 25.2148C224.746 25.0508 224.84 24.9688 225.027 24.9688C225.238 24.9688 225.531 25.0859 225.906 25.3203C226.773 25.8594 227.5 26.293 228.086 26.6211C228.672 26.9492 229.094 27.1133 229.352 27.1133C229.469 27.1133 229.551 27.0312 229.598 26.8672C230.137 23.8672 230.465 20.1055 230.582 15.582L223.973 16.0742C223.973 20.0352 224.008 26.3164 224.078 34.918C224.078 35.1289 224.02 35.2812 223.902 35.375C223.809 35.4922 223.68 35.5508 223.516 35.5508C223.328 35.5508 223.105 35.4805 222.848 35.3398C222.402 35.1523 222.086 34.9766 221.898 34.8125C221.711 34.6484 221.617 34.4609 221.617 34.25L221.652 34.0039C221.793 33.2305 221.863 32.3633 221.863 31.4023L221.758 16.5664C221.758 15.957 221.734 15.4883 221.688 15.1602C221.664 14.832 221.594 14.5156 221.477 14.2109C221.383 13.9297 221.336 13.7422 221.336 13.6484Z" fill="#333333"/>
<path d="M136.719 66.5938C136.573 66.5938 136.646 66.4688 136.938 66.2188C137.229 65.9688 137.583 65.6667 138 65.3125C138.417 64.9375 138.885 64.4479 139.406 63.8438C139.74 63.4479 139.99 63.0312 140.156 62.5938C140.26 62.3438 140.375 62.2188 140.5 62.2188C140.604 62.2188 140.76 62.3021 140.969 62.4688C141.385 62.8021 141.594 63.0833 141.594 63.3125C141.594 63.4583 141.51 63.5625 141.344 63.625C141.26 63.6458 141.135 63.7396 140.969 63.9062C140.802 64.0521 140.677 64.1667 140.594 64.25C139.698 65.125 138.865 65.7604 138.094 66.1562C137.469 66.4479 137.052 66.5938 136.844 66.5938H136.719ZM140 72.4062C139.938 72.4062 139.833 72.3229 139.688 72.1562C139.562 71.9688 139.469 71.7917 139.406 71.625C139.385 71.5 139.385 71.3438 139.406 71.1562C139.448 70.9479 139.469 70.7917 139.469 70.6875C139.51 70.2708 139.531 69.9375 139.531 69.6875C139.552 69.4583 139.552 69.2083 139.531 68.9375C139.531 68.6667 139.531 68.4896 139.531 68.4062L139.5 67.9375C139 68.2917 138.615 68.5417 138.344 68.6875C137.74 69.0208 137.302 69.2292 137.031 69.3125C136.698 69.4375 136.396 69.5 136.125 69.5C135.979 69.5 135.896 69.4792 135.875 69.4375C135.833 69.3542 136.25 69.0521 137.125 68.5312C137.958 68.0104 138.865 67.3229 139.844 66.4688C140.385 65.9688 140.802 65.4896 141.094 65.0312C141.135 64.9688 141.167 64.8958 141.188 64.8125C141.229 64.7083 141.271 64.6458 141.312 64.625C141.375 64.6042 141.458 64.6146 141.562 64.6562C141.833 64.8021 142.062 65.0104 142.25 65.2812C142.333 65.3854 142.375 65.4896 142.375 65.5938C142.375 65.6979 142.323 65.8021 142.219 65.9062C142.115 65.9896 142.01 66.0521 141.906 66.0938C141.552 66.3229 141.229 66.5729 140.938 66.8438C140.646 67.1146 140.458 67.2917 140.375 67.375C140.688 67.625 140.844 67.8021 140.844 67.9062L140.75 68.5625C140.708 68.75 140.688 69.2188 140.688 69.9688C140.688 70.6979 140.708 71.1875 140.75 71.4375V71.5C140.75 71.6042 140.719 71.7188 140.656 71.8438C140.615 71.9479 140.583 72.0208 140.562 72.0625C140.417 72.2917 140.229 72.4062 140 72.4062ZM140.031 83.0938C139.885 83.0938 139.781 83.0521 139.719 82.9688C139.656 82.8854 139.615 82.8333 139.594 82.8125C139.385 82.5208 139.292 82.2396 139.312 81.9688C139.333 81.8021 139.365 81.3542 139.406 80.625L139.438 79.125C139.417 78.8958 139.396 78.7604 139.375 78.7188C139.354 78.6562 139.26 78.5312 139.094 78.3438C138.76 77.9271 138.375 77.5 137.938 77.0625C137.438 76.5625 137.115 76.2292 136.969 76.0625C136.969 76.0625 136.656 75.75 136.031 75.125C135.969 75.0625 135.938 75 135.938 74.9375C135.938 74.8333 136 74.75 136.125 74.6875C136.271 74.6042 136.417 74.5729 136.562 74.5938C136.979 74.6354 137.25 74.6875 137.375 74.75C137.521 74.7917 137.656 74.9167 137.781 75.125C137.906 75.3333 138.083 75.5833 138.312 75.875C138.562 76.1458 138.75 76.3542 138.875 76.5C139.396 77.125 139.76 77.5417 139.969 77.75C140.344 77.3125 140.812 76.6875 141.375 75.875C141.833 75.2917 142.104 74.8125 142.188 74.4375C142.271 74.1667 142.396 74.0312 142.562 74.0312C142.646 74.0312 142.771 74.0833 142.938 74.1875C143.479 74.5208 143.75 74.7917 143.75 75C143.75 75.125 143.615 75.2812 143.344 75.4688C142.969 75.7396 142.656 76.0417 142.406 76.375L141.781 77.1562C141.365 77.6562 141.052 78.0521 140.844 78.3438C140.74 78.5312 140.688 78.8021 140.688 79.1562V81.0625V82.3125C140.708 82.4583 140.625 82.625 140.438 82.8125C140.271 83 140.135 83.0938 140.031 83.0938ZM109.062 76.0625C107.979 76.875 107.229 77.4062 106.812 77.6562C106.396 77.8854 106.083 78 105.875 78C105.75 78 105.604 77.9688 105.438 77.9062C104.771 77.5729 104.281 77.0938 103.969 76.4688C103.969 76.3438 104.083 76.2708 104.312 76.25C105.208 76.1875 106.802 75.4896 109.094 74.1562L109.125 67.8438L107.688 68C107.229 68.0625 106.844 68.0938 106.531 68.0938C106.26 68.0938 106.042 68.0312 105.875 67.9062C105.438 67.4896 105.146 67.0729 105 66.6562C104.979 66.6146 104.969 66.5521 104.969 66.4688C104.969 66.3646 105.021 66.3125 105.125 66.3125L105.25 66.3438C105.438 66.3854 105.729 66.4062 106.125 66.4062C106.479 66.4062 106.781 66.3958 107.031 66.375L109.125 66.1562L109.156 61.1875C109.156 60.8333 109.115 60.5417 109.031 60.3125C108.969 60.0625 108.833 59.7812 108.625 59.4688C108.562 59.3646 108.531 59.2812 108.531 59.2188C108.531 59.0729 108.656 59 108.906 59C109.156 59 109.531 59.0938 110.031 59.2812C110.427 59.4271 110.698 59.5833 110.844 59.75C110.99 59.8958 111.062 60.0938 111.062 60.3438L111.031 66L112.031 65.9062C112.406 65.8646 112.792 65.75 113.188 65.5625C113.271 65.5208 113.344 65.5 113.406 65.5C113.656 65.5 113.969 65.6771 114.344 66.0312C114.74 66.3646 114.938 66.6562 114.938 66.9062C114.938 67.1562 114.708 67.3021 114.25 67.3438L111.031 67.6562L111 73.0938C111.792 72.6979 112.729 72.125 113.812 71.375C114.083 71.2083 114.292 71.125 114.438 71.125C114.625 71.125 114.719 71.2083 114.719 71.375C114.719 71.625 114.438 72 113.875 72.5C113.312 73 112.354 73.7292 111 74.6875L110.938 83.4375C110.938 83.6458 110.948 83.8438 110.969 84.0312C110.99 84.2396 111 84.4271 111 84.5938C111 84.8646 110.958 85.1042 110.875 85.3125C110.792 85.5417 110.646 85.75 110.438 85.9375C110.042 86.3125 109.667 86.5 109.312 86.5C108.938 86.5 108.531 86.25 108.094 85.75C106.406 83.8542 105.562 82.6979 105.562 82.2812C105.562 82.1146 105.646 82.0312 105.812 82.0312C106.021 82.0312 106.302 82.1667 106.656 82.4375C107.406 83.0208 108.198 83.5417 109.031 84L109.062 76.0625ZM113.906 68C113.906 67.875 113.979 67.8125 114.125 67.8125C114.208 67.8125 114.271 67.8229 114.312 67.8438C114.792 67.9479 115.26 68 115.719 68H116L122.281 67.6562L122.25 64.0938L118.688 64.3125C118.479 64.3333 118.219 64.3438 117.906 64.3438C117.406 64.3438 117.031 64.1771 116.781 63.8438C116.531 63.5104 116.365 63.1667 116.281 62.8125V62.6875C116.281 62.5625 116.312 62.5 116.375 62.5L116.5 62.5312C116.917 62.6354 117.427 62.6875 118.031 62.6875H118.5L126.5 62.1562C127.25 62.1146 127.823 62.0312 128.219 61.9062C128.385 61.8646 128.5 61.8438 128.562 61.8438C128.854 61.8438 129.167 62.0208 129.5 62.375C129.854 62.7292 130.031 63.0104 130.031 63.2188C130.031 63.4896 129.812 63.6458 129.375 63.6875L124.125 64V67.5312L129.625 67.2188C130.104 67.1771 130.573 67.0833 131.031 66.9375C131.156 66.8958 131.25 66.875 131.312 66.875C131.604 66.875 131.958 67.0625 132.375 67.4375C132.792 67.7917 133 68.0729 133 68.2812C133 68.5312 132.771 68.6771 132.312 68.7188L124.125 69.2188L124.156 83.3438L128.562 83.2812L128.844 79.1562L126.938 79.25H126.5C126.062 79.25 125.729 79.1667 125.5 79C125.292 78.8125 125.083 78.4062 124.875 77.7812C124.854 77.7396 124.844 77.6771 124.844 77.5938C124.844 77.4896 124.906 77.4375 125.031 77.4375C125.115 77.4375 125.188 77.4479 125.25 77.4688C125.604 77.5521 125.969 77.5938 126.344 77.5938H126.656L128.938 77.5L129.156 74.1562L126.562 74.3125H126.156C125.615 74.3125 125.188 74.1562 124.875 73.8438C124.583 73.5104 124.396 73.1042 124.312 72.625C124.312 72.5 124.396 72.4375 124.562 72.4375L124.875 72.5C125.229 72.6042 125.531 72.6562 125.781 72.6562L126.125 72.625L129.719 72.4375L130.125 72.4062C130.438 72.4062 130.719 72.5417 130.969 72.8125C131.24 73.0625 131.375 73.2917 131.375 73.5C131.375 73.6042 131.344 73.7292 131.281 73.875C131.219 74.0208 131.177 74.1458 131.156 74.25L130.375 83.3125C130.958 84.0208 131.25 84.4792 131.25 84.6875C131.25 84.8125 131.177 84.8958 131.031 84.9375C130.885 84.9792 130.646 85 130.312 85L117.938 85.25L117.969 85.9688V86.0625C117.969 86.4583 117.802 86.6562 117.469 86.6562C117.323 86.6562 117.104 86.5938 116.812 86.4688C116.479 86.3021 116.25 86.1458 116.125 86C116 85.8542 115.938 85.6771 115.938 85.4688V85.25C115.938 85.0625 115.948 84.875 115.969 84.6875C115.99 84.5208 116 84.3438 116 84.1562V83.6562L115.469 75.8438C115.406 75.0312 115.271 74.375 115.062 73.875C114.979 73.6667 114.938 73.5312 114.938 73.4688C114.938 73.3229 115.042 73.25 115.25 73.25C115.5 73.25 116.031 73.3854 116.844 73.6562C118.844 72.6354 119.958 71.75 120.188 71C120.312 70.6667 120.448 70.5 120.594 70.5C120.823 70.5 121.094 70.7396 121.406 71.2188C121.719 71.6771 121.875 72.0521 121.875 72.3438C121.875 72.4896 121.812 72.6146 121.688 72.7188C120.396 73.6979 118.927 74.4583 117.281 75L117.469 77.8125L118.938 77.7812C119.25 77.7812 119.615 77.7083 120.031 77.5625C120.156 77.5208 120.25 77.5 120.312 77.5C120.521 77.5 120.792 77.6875 121.125 78.0625C121.458 78.4375 121.625 78.7396 121.625 78.9688C121.625 79.1979 121.375 79.3333 120.875 79.375L117.562 79.5L117.812 83.4375L122.344 83.375L122.281 69.3438L116.625 69.6562C116.396 69.6771 116.094 69.6875 115.719 69.6875C115.302 69.6875 115.031 69.6354 114.906 69.5312C114.24 69.0104 113.906 68.5 113.906 68ZM184.406 72.1562C184.094 72.1562 183.812 72.0312 183.562 71.7812C183.25 71.5521 183.094 71.375 183.094 71.25C183.094 71.1042 183.333 71.0312 183.812 71.0312L185.344 70.9375L186.906 70.7812C186.948 70.4479 186.969 69.8125 186.969 68.875C187.031 68.875 186.708 68.9167 186 69L185.406 69.0938C185.219 69.1771 185.052 69.2188 184.906 69.2188C184.781 69.2188 184.677 69.1771 184.594 69.0938C184.26 68.8021 184.094 68.5521 184.094 68.3438V66.875C184.094 66.7292 184.042 66.1667 183.938 65.1875L183.906 64.8438C183.906 64.6771 183.938 64.5729 184 64.5312C184.062 64.4896 184.177 64.4896 184.344 64.5312C184.969 64.6979 185.271 64.8854 185.25 65.0938L185.219 65.3125C185.177 65.6042 185.156 65.9792 185.156 66.4375C185.156 66.9792 185.167 67.3229 185.188 67.4688C185.229 67.8854 185.25 68.0833 185.25 68.0625C185.271 68.1458 185.344 68.1875 185.469 68.1875C185.594 68.1875 185.844 68.1562 186.219 68.0938C186.615 68.0104 186.875 67.9583 187 67.9375V65.1875C187 64.4167 186.969 63.8958 186.906 63.625C186.865 63.4167 186.844 63.3021 186.844 63.2812C186.844 63.1354 186.896 63.0625 187 63.0625C187.042 63.0625 187.188 63.1042 187.438 63.1875C187.833 63.375 188.094 63.5417 188.219 63.6875C188.365 63.8333 188.417 63.9896 188.375 64.1562C188.312 64.3646 188.271 64.7812 188.25 65.4062C188.208 65.9062 188.167 66.7188 188.125 67.8438L189.188 67.8125C189.396 67.8125 189.552 67.8021 189.656 67.7812C189.76 67.7604 189.812 67.7188 189.812 67.6562C189.958 66.8646 190.052 66.1771 190.094 65.5938L190.125 65.2188C190.146 65.1771 190.146 65.1042 190.125 65C190.125 64.8958 190.125 64.8229 190.125 64.7812L190.094 64.5625C190.094 64.375 190.167 64.2812 190.312 64.2812C190.396 64.2812 190.573 64.3646 190.844 64.5312C190.906 64.5729 190.99 64.6354 191.094 64.7188C191.219 64.7812 191.302 64.8542 191.344 64.9375C191.385 65 191.406 65.0833 191.406 65.1875C191.406 65.3125 191.396 65.4167 191.375 65.5L191.031 67.25L190.938 67.9688C190.854 68.4479 190.604 68.7083 190.188 68.75C190.062 68.7292 189.958 68.6979 189.875 68.6562C189.812 68.6146 189.76 68.5938 189.719 68.5938C189.469 68.5938 188.948 68.6458 188.156 68.75L188.125 70.6875L188.656 70.6562L189.156 70.625C189.927 70.625 190.5 70.5833 190.875 70.5C191.042 70.5 191.188 70.4792 191.312 70.4375L191.406 70.4062C191.615 70.4062 191.833 70.5521 192.062 70.8438C192.333 71.1146 192.469 71.3125 192.469 71.4375C192.469 71.625 192.177 71.6875 191.594 71.625L190.406 71.5625H188.844C188.531 71.5625 187.958 71.6042 187.125 71.6875C186.688 71.6875 186.292 71.7083 185.938 71.75C185.583 71.7917 185.25 71.8646 184.938 71.9688L184.406 72.1562ZM191.188 82.2188C190.875 82.2188 190.573 81.9896 190.281 81.5312C189.906 80.9479 189.542 80.4688 189.188 80.0938L188.375 79.25C187.938 79.75 187.552 80.1458 187.219 80.4375C186.906 80.7292 186.51 81.0104 186.031 81.2812C185.135 81.8021 184.385 82.0625 183.781 82.0625C183.635 82.0625 183.562 82.0104 183.562 81.9062C183.562 81.8438 183.76 81.7083 184.156 81.5C184.552 81.2917 184.927 81.0417 185.281 80.75C186.177 80 186.917 79.2292 187.5 78.4375C187.375 78.3125 186.75 77.7708 185.625 76.8125C185.479 76.7083 185.26 76.5312 184.969 76.2812C184.906 76.2396 184.781 76.1458 184.594 76C184.406 75.8542 184.312 75.75 184.312 75.6875C184.312 75.5833 184.365 75.5312 184.469 75.5312C184.781 75.5312 185.281 75.75 185.969 76.1875C186.656 76.6042 187.375 77.1042 188.125 77.6875C188.417 77.3333 188.646 77 188.812 76.6875C188.979 76.375 189.167 75.9896 189.375 75.5312C189.479 75.3021 189.542 75.1042 189.562 74.9375C189.583 74.75 189.594 74.6354 189.594 74.5938C189.594 74.3646 189.656 74.25 189.781 74.25C189.927 74.25 190.125 74.3646 190.375 74.5938C190.812 75.0104 191.031 75.2917 191.031 75.4375C191.031 75.5208 190.979 75.6146 190.875 75.7188C190.625 75.9688 190.396 76.3021 190.188 76.7188C190.062 76.9688 189.833 77.3229 189.5 77.7812C189.396 77.9062 189.312 78.0208 189.25 78.125C189.188 78.2292 189.125 78.3229 189.062 78.4062C189.542 78.7604 190.25 79.3646 191.188 80.2188C191.417 80.4271 191.562 80.625 191.625 80.8125C191.708 80.9792 191.75 81.2083 191.75 81.5C191.75 81.7083 191.698 81.8854 191.594 82.0312C191.49 82.1562 191.354 82.2188 191.188 82.2188ZM163.812 65.9688C163.812 66.3438 163.635 66.5312 163.281 66.5312C163.01 66.5312 162.688 66.4583 162.312 66.3125C161.938 66.1458 161.75 65.8229 161.75 65.3438C161.75 64.8021 161.729 64.4167 161.688 64.1875L161.656 64.0312L156.031 64.375C155.844 64.3958 155.604 64.4062 155.312 64.4062C155.021 64.4062 154.792 64.3854 154.625 64.3438C154.479 64.3021 154.354 64.2292 154.25 64.125C154 63.8958 153.802 63.6667 153.656 63.4375C153.531 63.1875 153.469 63.0104 153.469 62.9062C153.469 62.7812 153.552 62.7188 153.719 62.7188C153.802 62.7188 153.865 62.7292 153.906 62.75C154.26 62.8333 154.635 62.875 155.031 62.875L155.594 62.8438L161.438 62.5L161.219 61.125C161.156 60.7083 160.917 60.2917 160.5 59.875C160.354 59.7292 160.281 59.6146 160.281 59.5312C160.281 59.3438 160.51 59.25 160.969 59.25C162.219 59.25 162.885 59.5521 162.969 60.1562L163.312 62.4062L164.875 62.3125C165.146 62.3125 165.323 62.3229 165.406 62.3438C165.74 62.4062 165.906 62.6042 165.906 62.9375C165.906 63.1875 165.802 63.3646 165.594 63.4688C165.385 63.5521 165.104 63.6146 164.75 63.6562C164.479 63.6979 164.062 63.7188 163.5 63.7188L163.812 65.7812V65.9688ZM152.438 84.5938C152.438 84.3854 152.823 84.0833 153.594 83.6875C157.531 81.75 161.104 79.2604 164.312 76.2188L156.625 76.5625L155.844 76.5938C155.427 76.5938 155.156 76.5417 155.031 76.4375C154.823 76.2917 154.625 76.0833 154.438 75.8125C154.25 75.5208 154.156 75.2812 154.156 75.0938C154.156 74.9479 154.219 74.875 154.344 74.875C154.406 74.875 154.458 74.8854 154.5 74.9062C154.854 74.9896 155.229 75.0312 155.625 75.0312H155.969L165.781 74.5625L165.812 71.0625L160.438 71.3125C159.938 71.9167 159.396 72.4688 158.812 72.9688C158.25 73.4479 157.75 73.8333 157.312 74.125C156.875 74.3958 156.594 74.5312 156.469 74.5312C156.344 74.5312 156.281 74.4792 156.281 74.375C156.281 74.1875 156.417 73.9271 156.688 73.5938C159.188 70.5521 160.438 68.25 160.438 66.6875C160.438 66.4583 160.51 66.3438 160.656 66.3438C160.719 66.3438 160.906 66.4375 161.219 66.625C161.552 66.8125 161.854 67.0312 162.125 67.2812C162.396 67.5312 162.531 67.7812 162.531 68.0312L162.469 68.2812C162.24 68.7396 161.958 69.2188 161.625 69.7188L165.812 69.5312L165.844 67C165.844 66.5 165.708 66.0625 165.438 65.6875C165.312 65.5208 165.25 65.3854 165.25 65.2812C165.25 65.1562 165.365 65.0938 165.594 65.0938C165.823 65.0938 166.188 65.1771 166.688 65.3438C167.125 65.4896 167.396 65.625 167.5 65.75C167.625 65.8542 167.688 66.0208 167.688 66.25L167.656 69.4375L172.875 69.1875C173.333 69.1458 173.698 69.0938 173.969 69.0312C174.135 68.9896 174.25 68.9688 174.312 68.9688C174.5 68.9688 174.802 69.1354 175.219 69.4688C175.635 69.7812 175.844 70.0417 175.844 70.25C175.844 70.4583 175.583 70.5833 175.062 70.625L167.656 70.9688L167.625 74.5L176.25 74.0938C176.771 74.0521 177.198 73.9792 177.531 73.875C177.656 73.8333 177.75 73.8125 177.812 73.8125C178.125 73.8125 178.469 73.9896 178.844 74.3438C179.219 74.6771 179.406 74.9583 179.406 75.1875C179.406 75.4167 179.156 75.5521 178.656 75.5938L168.969 76.0312C172.74 79.1771 176.583 81.4375 180.5 82.8125C180.792 82.9375 180.938 83.1042 180.938 83.3125C180.938 83.4375 180.729 83.6771 180.312 84.0312C179.917 84.3854 179.604 84.5625 179.375 84.5625C179.208 84.5625 178.448 84.25 177.094 83.625C175.76 82.9792 174.229 82.0729 172.5 80.9062C170.771 79.7396 169.135 78.3542 167.594 76.75L167.625 79.1562C167.625 80.9479 167.604 83.3438 167.562 86.3438C167.562 86.9062 167.365 87.1875 166.969 87.1875C166.781 87.1875 166.562 87.125 166.312 87C165.75 86.75 165.469 86.4062 165.469 85.9688C165.469 85.8438 165.479 85.75 165.5 85.6875C165.646 85 165.719 84.3646 165.719 83.7812L165.75 79.2812C165.75 78.7396 165.781 77.9167 165.844 76.8125C164.594 78.375 163.052 79.7604 161.219 80.9688C159.406 82.1771 157.688 83.125 156.062 83.8125C154.438 84.4792 153.375 84.8125 152.875 84.8125C152.583 84.8125 152.438 84.7396 152.438 84.5938ZM167.344 62.25C167.344 62.2083 167.375 62.1771 167.438 62.1562C167.5 62.1146 167.573 62.0938 167.656 62.0938L169.906 62.0312C169.99 61.6146 170.094 60.9896 170.219 60.1562V59.9375C170.219 59.5833 170.135 59.2604 169.969 58.9688C169.906 58.8438 169.875 58.75 169.875 58.6875C169.875 58.5625 169.948 58.5 170.094 58.5C170.198 58.5 170.448 58.5729 170.844 58.7188C171.24 58.8438 171.594 59.0208 171.906 59.25C172.24 59.4583 172.406 59.6979 172.406 59.9688C172.406 60.0729 172.396 60.1458 172.375 60.1875L172.062 61.1562L171.812 61.9062L176.156 61.6562C176.781 61.6354 177.302 61.5521 177.719 61.4062C177.885 61.3438 178.042 61.3125 178.188 61.3125C178.479 61.3125 178.802 61.4896 179.156 61.8438C179.51 62.1771 179.688 62.4688 179.688 62.7188C179.688 62.9062 179.458 63.0208 179 63.0625L171.156 63.5312C170.76 64.4896 170.417 65.2188 170.125 65.7188C169.854 66.1979 169.583 66.4375 169.312 66.4375C169.083 66.4375 168.969 66.2708 168.969 65.9375C168.969 65.6667 169.135 64.9271 169.469 63.7188L168.969 63.75C168.552 63.7292 168.167 63.5729 167.812 63.2812C167.479 62.9896 167.323 62.6562 167.344 62.2812V62.25ZM233.156 76.5312C232.469 76.2812 232.146 76.0104 232.188 75.7188C232.312 74.8438 232.375 73.8438 232.375 72.7188C232.375 72.2188 232.365 71.8542 232.344 71.625C232.323 71.3542 232.302 71.125 232.281 70.9375C232.26 70.7292 232.26 70.6146 232.281 70.5938C232.365 70.5104 232.469 70.4688 232.594 70.4688C232.781 70.4688 233.01 70.5521 233.281 70.7188C233.573 70.8854 233.719 71.0521 233.719 71.2188C233.719 71.3229 233.708 71.4271 233.688 71.5312C233.667 71.6146 233.656 71.7083 233.656 71.8125L233.469 74.9062C233.469 75.0729 233.531 75.1771 233.656 75.2188H233.812C233.979 75.2188 234.094 75.2083 234.156 75.1875L238.188 74.625V73.8125C238.188 72.7917 238.167 72 238.125 71.4375C238.104 70.9583 238.052 70.5729 237.969 70.2812C237.906 69.9479 237.99 69.7812 238.219 69.7812C238.385 69.7812 238.604 69.8438 238.875 69.9688C239.208 70.1354 239.406 70.2812 239.469 70.4062C239.531 70.5104 239.552 70.6771 239.531 70.9062C239.49 71.2812 239.469 71.8438 239.469 72.5938L239.5 74.9688C239.5 75.4688 239.406 75.8646 239.219 76.1562C239.115 76.2812 239.01 76.3438 238.906 76.3438C238.802 76.3438 238.656 76.25 238.469 76.0625C238.427 76.0208 238.375 75.9583 238.312 75.875C238.25 75.7917 238.188 75.7396 238.125 75.7188C238.062 75.6979 237.979 75.6875 237.875 75.6875C237.396 75.7292 236.24 75.8854 234.406 76.1562C234.094 76.1979 233.844 76.2812 233.656 76.4062C233.448 76.5104 233.312 76.5625 233.25 76.5625L233.156 76.5312ZM245.562 64.0312C245.812 64.0312 245.938 64.1458 245.938 64.375C245.938 64.5 245.823 64.6771 245.594 64.9062C244.969 65.6771 243.729 67.1458 241.875 69.3125C241.729 69.5 241.594 69.5938 241.469 69.5938C241.365 69.5938 241.135 69.4375 240.781 69.125C240.49 68.875 240.344 68.6667 240.344 68.5C240.344 68.3125 240.5 68.1354 240.812 67.9688C241.292 67.6979 242.01 67.1562 242.969 66.3438C243.927 65.4896 244.635 64.8125 245.094 64.3125C245.281 64.125 245.438 64.0312 245.562 64.0312ZM206.656 78.5625V78.6562C206.656 79.0312 206.49 79.2188 206.156 79.2188C205.865 79.2188 205.531 79.1042 205.156 78.875C204.781 78.625 204.594 78.3333 204.594 78V77.8438C204.594 77.6562 204.604 77.4688 204.625 77.2812C204.667 77.0729 204.688 76.875 204.688 76.6875L204.656 76.25L204.25 71.6562C204.146 70.7396 204.01 70.0938 203.844 69.7188C203.698 69.3854 203.625 69.1875 203.625 69.125C203.625 69 203.719 68.9375 203.906 68.9375C204.156 68.9375 204.719 69.0729 205.594 69.3438C207.302 68.7812 208.469 68.2604 209.094 67.7812C209.74 67.3021 210.104 66.9375 210.188 66.6875C210.271 66.4167 210.396 66.2812 210.562 66.2812C210.75 66.2812 210.948 66.4167 211.156 66.6875C211.365 66.9375 211.542 67.2292 211.688 67.5625C211.854 67.875 211.938 68.0625 211.938 68.125C211.938 68.4375 211.219 68.875 209.781 69.4375C208.365 70 207.115 70.4167 206.031 70.6875L206.156 72.5625L208.531 72.375C208.927 72.3542 209.281 72.2708 209.594 72.125C209.844 72.0208 210.031 71.9688 210.156 71.9688C210.406 71.9688 210.708 72.1354 211.062 72.4688C211.417 72.8021 211.594 73.0938 211.594 73.3438C211.594 73.5729 211.302 73.7083 210.719 73.75L206.281 74.0312L206.5 76.4688L212.812 76.2812C213.292 74.4271 213.531 72 213.531 69V68C213.531 67.3125 213.396 66.7396 213.125 66.2812C213 66.0938 212.938 65.9375 212.938 65.8125C212.938 65.6458 213.062 65.5625 213.312 65.5625C213.604 65.5625 213.979 65.6354 214.438 65.7812C214.896 65.9271 215.188 66.0938 215.312 66.2812C215.438 66.4479 215.5 66.7083 215.5 67.0625V68.0625C215.5 71 215.323 73.3958 214.969 75.25L214.812 75.9688L214.906 76.0938L222.281 75.9688L222.5 73.3438L219.5 73.5L218.812 73.5312C218.396 73.5312 218.052 73.3854 217.781 73.0938C217.51 72.8021 217.333 72.5 217.25 72.1875C217.229 72.1458 217.219 72.0833 217.219 72C217.219 71.875 217.281 71.8125 217.406 71.8125C217.49 71.8125 217.562 71.8229 217.625 71.8438C217.938 71.9271 218.312 71.9688 218.75 71.9688H219.188L222.594 71.7812L222.75 69.4375L219.219 69.6562L218.594 69.6875C218.26 69.6875 217.948 69.6042 217.656 69.4375C217.365 69.25 217.104 68.8438 216.875 68.2188C216.854 68.1771 216.844 68.125 216.844 68.0625C216.844 67.9792 216.906 67.9375 217.031 67.9375C217.156 67.9375 217.26 67.9479 217.344 67.9688C217.615 68.0521 217.948 68.0938 218.344 68.0938L218.844 68.0625L223.094 67.75L223.531 67.7188C223.719 67.7188 223.979 67.8333 224.312 68.0625C224.646 68.2708 224.812 68.4896 224.812 68.7188C224.812 68.8021 224.792 68.9062 224.75 69.0312C224.708 69.1562 224.677 69.2708 224.656 69.375L224.125 75.75C224.729 76.4167 225.031 76.875 225.031 77.125C225.031 77.25 224.958 77.3333 224.812 77.375C224.667 77.4167 224.448 77.4375 224.156 77.4375L216.062 77.6562C217.583 79.4896 219.344 80.9792 221.344 82.125C223.365 83.25 225.688 84.1562 228.312 84.8438C228.667 84.9479 228.844 85.0833 228.844 85.25C228.844 85.3125 228.75 85.4688 228.562 85.7188C228.396 85.9688 228.188 86.1875 227.938 86.375C227.688 86.5833 227.458 86.6875 227.25 86.6875C227.167 86.6875 227.062 86.6667 226.938 86.625C221.188 84.875 216.938 82.1146 214.188 78.3438C213.438 80.2604 212.208 81.8542 210.5 83.125C208.792 84.3958 207.052 85.3333 205.281 85.9375C203.531 86.5417 202.229 86.8438 201.375 86.8438C201 86.8438 200.812 86.75 200.812 86.5625C200.812 86.4583 200.896 86.3438 201.062 86.2188C201.229 86.0938 201.458 85.9896 201.75 85.9062C203.833 85.2604 205.802 84.3229 207.656 83.0938C209.51 81.8646 210.865 80.5208 211.719 79.0625C211.906 78.75 212.115 78.3125 212.344 77.75L206.625 77.9688L206.656 78.5625ZM201.188 62.5625C201.188 62.4375 201.271 62.375 201.438 62.375C201.521 62.375 201.583 62.3854 201.625 62.4062C201.979 62.4896 202.354 62.5312 202.75 62.5312L203.281 62.5L209.375 62.1562L209.188 60.8125C209.167 60.6875 209.083 60.5 208.938 60.25C208.792 59.9792 208.635 59.7604 208.469 59.5938C208.323 59.4479 208.25 59.3229 208.25 59.2188C208.25 59.0312 208.469 58.9375 208.906 58.9375C209.135 58.9375 209.417 58.9688 209.75 59.0312C210.167 59.0938 210.458 59.1979 210.625 59.3438C210.792 59.4896 210.896 59.6667 210.938 59.875L211.25 62.0625L212.781 61.9688C213.052 61.9688 213.229 61.9792 213.312 62C213.458 62.0208 213.573 62.0833 213.656 62.1875C213.76 62.2917 213.812 62.4167 213.812 62.5625C213.812 62.8125 213.719 62.9896 213.531 63.0938C213.344 63.1979 213.073 63.2708 212.719 63.3125C212.531 63.3333 212.302 63.3542 212.031 63.375C211.781 63.3958 211.583 63.4062 211.438 63.4062L211.75 65.5V65.6875C211.75 66.0208 211.594 66.1875 211.281 66.1875C211.01 66.1875 210.667 66.1042 210.25 65.9375C209.854 65.7708 209.656 65.5104 209.656 65.1562V64.5C209.656 64.25 209.646 64.0521 209.625 63.9062L209.594 63.75L203.75 64.0312L202.969 64.0625C202.51 64.0625 202.177 63.9896 201.969 63.8438C201.76 63.6562 201.573 63.4271 201.406 63.1562C201.26 62.8646 201.188 62.6667 201.188 62.5625ZM215.062 61.9062C215.062 61.8646 215.094 61.8229 215.156 61.7812C215.219 61.7396 215.292 61.7292 215.375 61.75L216.156 61.7188C216.365 61.7188 216.906 61.6979 217.781 61.6562C217.99 60.8646 218.094 60.2917 218.094 59.9375V59.7188C218.094 59.3438 218.01 59.0104 217.844 58.7188C217.781 58.5938 217.75 58.5 217.75 58.4375C217.75 58.3125 217.833 58.25 218 58.25C218.104 58.25 218.354 58.3229 218.75 58.4688C219.146 58.5938 219.5 58.7708 219.812 59C220.146 59.2083 220.312 59.4375 220.312 59.6875C220.312 59.7917 220.302 59.8646 220.281 59.9062C220.156 60.3438 219.969 60.9062 219.719 61.5938L224.312 61.3438C224.938 61.3229 225.458 61.2396 225.875 61.0938C226.042 61.0312 226.198 61 226.344 61C226.656 61 226.979 61.1771 227.312 61.5312C227.667 61.8854 227.844 62.1771 227.844 62.4062C227.844 62.6354 227.615 62.7708 227.156 62.8125L219.125 63.25C218.521 64.6458 218.073 65.5729 217.781 66.0312C217.51 66.4688 217.26 66.6875 217.031 66.6875C216.927 66.6875 216.844 66.6458 216.781 66.5625C216.719 66.4583 216.688 66.3229 216.688 66.1562C216.688 65.9479 216.938 65.0104 217.438 63.3438C217.146 63.3854 216.875 63.4062 216.625 63.4062C216.229 63.4062 215.865 63.2604 215.531 62.9688C215.198 62.6562 215.042 62.3125 215.062 61.9375V61.9062Z" fill="#333333"/>
</svg>
