<svg xmlns="http://www.w3.org/2000/svg" width="350" height="88" fill="none"><path fill="#333" d="M131.934 8.2c-.164 0-.082-.141.246-.423l1.195-1.02c.469-.421.996-.972 1.582-1.652.375-.445.656-.914.844-1.406.117-.281.246-.422.387-.422.117 0 .292.094.527.282.469.375.703.691.703.949 0 .164-.094.281-.281.351-.094.024-.235.13-.422.317a9.14 9.14 0 0 0-.422.386c-1.008.985-1.945 1.7-2.813 2.145-.703.328-1.171.492-1.406.492h-.14Zm3.691 6.538c-.07 0-.187-.093-.352-.281a2.99 2.99 0 0 1-.316-.598 2.004 2.004 0 0 1 0-.527c.047-.234.07-.41.07-.527.047-.47.071-.844.071-1.125a5.16 5.16 0 0 0 0-.844v-.598l-.036-.527c-.562.398-.996.68-1.3.844-.68.375-1.172.61-1.477.703-.375.14-.715.21-1.019.21-.164 0-.258-.023-.282-.07-.046-.093.422-.433 1.407-1.02.937-.585 1.957-1.358 3.058-2.32.61-.562 1.078-1.101 1.406-1.617a.77.77 0 0 0 .106-.246c.047-.117.094-.187.141-.21.07-.024.164-.012.281.035.305.164.562.398.773.703a.562.562 0 0 1 .141.351c0 .117-.059.235-.176.352a1.396 1.396 0 0 1-.351.21c-.399.259-.762.54-1.09.844-.328.305-.539.504-.633.598.351.281.527.48.527.598l-.105.738c-.047.211-.071.738-.071 1.582 0 .82.024 1.371.071 1.652v.07a.868.868 0 0 1-.106.387c-.047.118-.082.2-.105.247-.164.257-.375.386-.633.386Zm3.586 8.93c-.352 0-.691-.258-1.02-.773-.421-.657-.832-1.196-1.23-1.618l-.914-.949a14.424 14.424 0 0 1-1.301 1.336 6.992 6.992 0 0 1-1.336.95c-1.008.585-1.851.878-2.531.878-.164 0-.246-.058-.246-.176 0-.07.222-.222.668-.457a7.422 7.422 0 0 0 1.265-.843c1.008-.844 1.84-1.711 2.496-2.602-.14-.14-.843-.75-2.109-1.828-.164-.117-.41-.316-.738-.598a9.494 9.494 0 0 1-.422-.316c-.211-.164-.316-.281-.316-.352 0-.117.058-.175.175-.175.352 0 .914.246 1.688.738a25.67 25.67 0 0 1 2.426 1.687 6.91 6.91 0 0 0 .773-1.125c.188-.351.399-.785.633-1.3a2.41 2.41 0 0 0 .211-.668c.023-.211.035-.34.035-.387 0-.258.07-.387.211-.387.164 0 .387.129.668.387.492.469.738.785.738.95 0 .093-.058.198-.176.316-.281.28-.539.656-.773 1.124-.141.282-.398.68-.774 1.196-.117.14-.21.27-.281.387-.07.117-.14.222-.211.316.539.398 1.336 1.078 2.391 2.039.258.234.422.457.492.668.094.187.141.445.141.773 0 .235-.059.434-.176.598a.567.567 0 0 1-.457.211Zm-7.77 10.512c-.351 0-.621-.094-.808-.282-.211-.21-.317-.398-.317-.562 0-.164.094-.34.282-.527.023-.024.152-.211.386-.563.516-.82 1.102-1.863 1.758-3.129.68-1.289 1.102-2.168 1.266-2.637.14-.445.269-.832.387-1.16.14-.328.257-.492.351-.492.164 0 .305.059.422.176.117.094.234.234.352.422.14.164.246.281.316.351.164.188.246.364.246.528a.562.562 0 0 1-.141.351c-.093.117-.152.2-.175.246l-1.547 2.602a72.802 72.802 0 0 1-1.582 2.707.562.562 0 0 0-.141.352c0 .093.106.14.316.14.446 0 1.278-.059 2.497-.176 1.218-.093 2.039-.175 2.461-.246.609-.07 1.031-.14 1.265-.21.258-.071.633.105 1.125.527.586.492.715.808.387.949-.188.094-.551.14-1.09.14h-1.406c-.305 0-.785.024-1.442.07-.398 0-.843.013-1.336.036-.492.023-.902.047-1.23.07-.375.024-1.102.094-2.18.211l-.422.106Zm14.942-15.504c.281 0 .422.129.422.387 0 .14-.129.34-.387.597-.703.867-2.098 2.52-4.184 4.957-.164.211-.316.317-.457.317-.117 0-.375-.176-.773-.528-.328-.281-.492-.515-.492-.703 0-.21.176-.41.527-.598.539-.304 1.348-.914 2.426-1.828 1.078-.96 1.875-1.722 2.39-2.285.211-.21.387-.316.528-.316ZM98.113 34.25c-.375 0-.68-.035-.914-.105a.792.792 0 0 1-.492-.317c-.375-.492-.621-.95-.738-1.371a.488.488 0 0 1-.035-.21c0-.165.082-.247.246-.247l.175.035c.47.14 1.137.211 2.004.211l11.883-.281V28.94l-7.066.282h-.774c-.468 0-.797-.094-.984-.282-.633-.632-.949-1.16-.949-1.582 0-.164.082-.246.246-.246.094 0 .176.012.246.035.469.141.984.211 1.547.211h.316l7.453-.246v-2.531l-5.484.211.035.422v.105c0 .399-.176.598-.527.598-.211 0-.492-.07-.844-.211-.398-.188-.668-.34-.809-.457-.117-.14-.175-.328-.175-.563l.035-.316c.047-.375.07-.715.07-1.02a3.93 3.93 0 0 0-.035-.597l-.598-5.766c-.07-.68-.222-1.265-.457-1.758-.14-.375-.211-.597-.211-.668 0-.14.118-.21.352-.21.375 0 1.16.199 2.355.597l6.328-.351v-2.426l-10.124.527a4.52 4.52 0 0 0-.563.035 3.74 3.74 0 0 1-.527.036c-.47 0-.797-.094-.985-.282-.515-.515-.832-.902-.949-1.16l-.07-.281c0-.14.082-.211.246-.211h.14c.399.07.891.105 1.477.105h.422l10.969-.597V8.27c-1.547.187-3.457.328-5.731.421a66.69 66.69 0 0 0-2.531.141h-.352c-.375 0-.668-.035-.879-.105-.187-.094-.281-.2-.281-.317 0-.14.117-.27.352-.387.234-.14.574-.246 1.019-.316 6.61-.844 11.836-1.84 15.68-2.988.609-.188 1.09-.457 1.441-.809.141-.14.258-.21.352-.21.305 0 .68.292 1.125.878.469.563.703.984.703 1.266 0 .258-.164.422-.492.492a119.685 119.685 0 0 1-8.262 1.617v2.285l10.02-.562a7.476 7.476 0 0 0 1.476-.281l.176-.036c.094 0 .293.094.598.282.304.164.574.375.808.632.235.235.352.446.352.633 0 .235-.258.375-.774.422l-12.691.703v2.461l7.242-.387h.246c.516 0 .914.165 1.196.493.281.304.421.574.421.808a.832.832 0 0 1-.105.352c-.047.14-.082.27-.105.387l-.844 6.398c.539.633.808 1.078.808 1.336 0 .117-.058.2-.175.246a4.053 4.053 0 0 1-.387.07h-.352l-8.015.317v2.531l6.644-.246c.422-.07.821-.152 1.196-.246a1.93 1.93 0 0 1 .386-.07c.235 0 .586.199 1.055.597.492.375.738.703.738.985 0 .257-.328.41-.984.457l-9.035.351-.035 3.059 11.214-.282a6.12 6.12 0 0 0 1.723-.246l.422-.07c.305 0 .668.234 1.09.703.422.492.633.856.633 1.09 0 .234-.235.375-.704.422l-27.878.668-.739.035Zm6.117-15.293 6.082-.281v-2.39l-6.292.316.21 2.355Zm.387 4.184 5.66-.246v-2.567l-5.871.246.211 2.567Zm13.887-.563.211-2.637-6.293.282v2.601l6.082-.246Zm.351-4.324.211-2.39-6.609.316-.035 2.39 6.433-.316Zm66.797-4.078c-.257 0-.574-.2-.949-.598-.281-.281-.422-.492-.422-.633 0-.07.047-.105.141-.105.094-.024.211-.035.351-.035l.774-.035c.445 0 .738-.012.879-.036.445 0 .82-.011 1.125-.035 2.015-.187 3.375-.34 4.078-.457.351-.047.668-.094.949-.14.281-.07.504-.106.668-.106.328 0 .656.164.984.492.258.258.387.469.387.633 0 .14-.082.234-.246.281-.117.024-.809.07-2.074.141-.703.023-1.57.082-2.602.176a92.523 92.523 0 0 0-2.707.281c-.14.023-.34.059-.597.105-.258.047-.504.07-.739.07Zm7.981 15.398c.328.211.492.41.492.598 0 .258-.199.422-.598.492-.398.07-.961.117-1.687.14-1.055.024-1.735-.011-2.039-.105-.516-.234-.774-.62-.774-1.16l.035-1.3c.047-.423.071-.798.071-1.126.023-.21.035-.62.035-1.23-.352.797-.809 1.57-1.371 2.32-.399.492-.75.902-1.055 1.23a7.087 7.087 0 0 1-1.09.88c-.422.28-.808.421-1.16.421-.211 0-.316-.07-.316-.21 0-.024.222-.2.668-.528.468-.351.937-.832 1.406-1.441.703-.938 1.312-2.04 1.828-3.305-.914.117-1.523.223-1.828.316a1.242 1.242 0 0 0-.316.106.883.883 0 0 1-.352 0 3.005 3.005 0 0 1-.492-.281 3.19 3.19 0 0 1-.492-.457c-.094-.141-.141-.235-.141-.282 0-.117.176-.175.527-.175.868 0 1.981-.094 3.34-.282.141-.539.211-1.406.211-2.601v-.668c0-.281.059-.434.176-.457.023-.024.07-.035.141-.035.187 0 .445.14.773.421.258.211.422.375.492.493.094.093.106.222.035.386l-.14.282c-.071.14-.117.28-.141.422l-.141.703c-.07.328-.117.62-.14.879.328-.024.738-.07 1.23-.141.492-.07.856-.14 1.09-.211l.703-.176c.235-.047.621.152 1.16.598.094.07.141.152.141.246s-.047.176-.141.246a.498.498 0 0 1-.281.07c-.422 0-1.195.07-2.32.211l-1.16.106c.258.187.422.351.492.492.07.14.082.281.035.422l-.105.562c-.047.47-.094.985-.141 1.547a12 12 0 0 0 0 1.301c0 .117.07.223.211.316.164.094.328.141.492.141.586 0 1.242-.059 1.969-.176l.316-.07c.141 0 .258.023.352.07Zm6.75-14.765c.281 0 .422.129.422.386 0 .14-.129.34-.387.598-.703.867-2.098 2.52-4.184 4.957-.164.21-.316.316-.457.316-.117 0-.375-.175-.773-.527-.328-.281-.492-.516-.492-.703 0-.211.176-.41.527-.598.539-.304 1.348-.914 2.426-1.828 1.078-.96 1.875-1.723 2.39-2.285.211-.21.387-.316.528-.316Zm-24.645 17.894c.071 0 .117-.012.141-.035.047 0 .07-.035.07-.105.914-2.32 1.43-5.52 1.547-9.598l-1.758.07c-1.593 2.766-3.316 4.992-5.168 6.68-1.828 1.664-3.445 2.848-4.851 3.55-1.383.704-2.274 1.055-2.672 1.055-.235 0-.352-.07-.352-.21 0-.235.352-.587 1.055-1.055 3.82-2.578 6.914-5.871 9.281-9.88l-2.707.106c-1.406 1.688-2.789 3.082-4.148 4.184-1.36 1.078-2.531 1.863-3.516 2.355-.961.492-1.594.739-1.898.739-.188 0-.282-.07-.282-.211 0-.117.082-.27.247-.457a4.1 4.1 0 0 1 .738-.633c2.226-1.57 4.242-3.516 6.047-5.836l-3.551.176a27.65 27.65 0 0 1-2.988 2.18c-1.008.632-1.711.949-2.11.949-.164 0-.246-.059-.246-.176 0-.258.246-.574.738-.95 2.016-1.57 4.008-3.656 5.977-6.257l-2.144.14h-.633c-.61 0-.985-.082-1.125-.246-.422-.422-.715-.855-.879-1.3l-.071-.282c0-.14.071-.21.211-.21.118 0 .223.011.317.034.422.07.879.106 1.371.106h.422l15.398-.879c.586-.047 1.031-.117 1.336-.21.188-.048.317-.071.387-.071.281 0 .574.094.879.281.304.188.562.398.773.633.235.234.352.422.352.562 0 .305-.281.48-.844.528l-12.727.738c-.515.61-1.277 1.441-2.285 2.496l12.094-.598h.211c.516 0 .902.118 1.16.352.258.234.387.48.387.738 0 .117-.035.258-.106.422-.046.164-.07.281-.07.352-.141 3-.492 5.894-1.055 8.683-.234 1.242-.597 2.157-1.089 2.742-.469.586-.938.88-1.407.88-.445 0-1.101-.258-1.968-.774a15.918 15.918 0 0 1-2.391-1.652c-.727-.61-1.09-1.032-1.09-1.266 0-.117.094-.176.281-.176.282 0 .68.106 1.196.317 1.265.492 2.39.832 3.375 1.02h.14Zm-24.328 1.195c0-.164.012-.293.035-.386.141-.727.211-1.63.211-2.707l.282-21.2v-.597c0-.961-.094-1.688-.282-2.18-.164-.375-.246-.633-.246-.773 0-.164.094-.246.281-.246.305 0 1.172.28 2.602.843l4.641-.422.457-.035c.187 0 .468.117.843.352.399.234.598.492.598.773 0 .14-.07.293-.211.457-.117.141-.199.258-.246.352a47.087 47.087 0 0 1-2.918 5.062.536.536 0 0 0-.07.211c0 .141.035.246.105.317 1.008 1.125 1.699 2.18 2.074 3.164.399.984.598 2.074.598 3.27 0 .82-.176 1.535-.527 2.144-.328.61-.739.914-1.231.914-.351 0-.867-.27-1.547-.809a14.715 14.715 0 0 1-1.828-1.793c-.539-.68-.808-1.148-.808-1.406 0-.14.07-.21.211-.21.187 0 .492.14.914.421.492.352.996.668 1.511.95.516.257.856.386 1.02.386.07 0 .117-.14.141-.422.046-.281.07-.504.07-.668 0-.82-.164-1.64-.492-2.46-.305-.821-.879-1.712-1.723-2.673-.281-.351-.422-.691-.422-1.02 0-.28.106-.609.317-.984.984-1.687 1.746-3.14 2.285-4.359l-3.973.352-.352 25.804c0 .657-.199.985-.597.985-.094 0-.281-.059-.563-.176a2.553 2.553 0 0 1-.808-.457 1 1 0 0 1-.352-.774Zm11.496-28.546c0-.118.106-.176.317-.176.328 0 1.136.176 2.425.527l9.598-.562h.316c.399 0 .762.117 1.09.351.352.235.528.48.528.738a.867.867 0 0 1-.106.387c-.047.14-.082.258-.105.352l-.703 6.433c.586.563.879.973.879 1.23 0 .141-.083.235-.247.282-.14.047-.363.082-.668.106l-10.054.457.035.28v.106c0 .446-.199.668-.598.668-.328 0-.703-.129-1.125-.386-.422-.282-.633-.551-.633-.81v-.175c.071-.469.106-.914.106-1.336l-.035-.633-.387-5.625c-.047-.632-.164-1.16-.351-1.582-.188-.304-.282-.515-.282-.632Zm2.883 4.289 8.719-.493.211-2.285-9.071.492.141 2.286Zm.281 4.148 8.086-.422.211-2.566-8.472.457.175 2.531Zm80.051.598c-.164 0-.34-.106-.527-.317a2.15 2.15 0 0 1-.282-.386c-.046-.118-.046-.27 0-.457l.036-.844c.023-.164.035-.563.035-1.195v-1.16l-1.055.492-1.23.527a10.87 10.87 0 0 0-.95.422c-.281.14-.527.21-.738.21a2.17 2.17 0 0 1-.562-.175 4.837 4.837 0 0 1-.493-.246c-.257-.164-.375-.34-.351-.527l.105-.352c0-.188.012-.352.036-.492l.035-2.04V5.95c0-.375-.024-.691-.071-.949-.047-.281-.082-.48-.105-.598 0-.117.035-.199.105-.246.024-.023.082-.035.176-.035.164 0 .481.106.949.316.399.188.563.422.493.704-.047.164-.094.41-.141.738l-.106 4.043c0 .117.012.21.036.281.046.047.093.07.14.07.282 0 .621-.082 1.02-.246.75-.234 1.394-.468 1.933-.703l.774-.316v-2.32c0-.938-.059-1.84-.176-2.708a.792.792 0 0 1-.035-.246c0-.234.094-.351.281-.351.024 0 .152.047.387.14.351.188.609.352.773.493.164.14.258.222.282.246.093.07.14.14.14.21a.34.34 0 0 1-.07.176c-.024.07-.047.13-.07.176l-.106 1.055-.035 3.234.035 3.13c0 .538-.035 1.007-.105 1.405-.118.493-.305.739-.563.739Zm-6.469 5.765c-.257 0-.574-.199-.949-.597-.281-.282-.422-.492-.422-.633 0-.07.047-.106.141-.106a1.48 1.48 0 0 1 .351-.035l.774-.035c.445 0 .738-.012.879-.035.445 0 .82-.012 1.125-.035 2.015-.188 3.375-.34 4.078-.457a29.8 29.8 0 0 0 .949-.14c.281-.071.504-.106.668-.106.328 0 .656.164.984.492.258.258.387.469.387.633 0 .14-.082.234-.246.28-.117.024-.809.071-2.074.142-.703.023-1.57.082-2.602.175a92.491 92.491 0 0 0-2.707.282c-.14.023-.34.058-.597.105-.258.047-.504.07-.739.07Zm4.711 14.52c-.726 0-1.289-.024-1.687-.07a1.68 1.68 0 0 1-.949-.422c-.446-.328-.75-1.043-.915-2.145l-.105-1.125c0-.281-.023-.633-.07-1.055a5.987 5.987 0 0 0-.809.141 3.817 3.817 0 0 1-.246.106.965.965 0 0 1-.211.035.81.81 0 0 1-.457-.14c-.141-.095-.316-.27-.527-.528-.164-.211-.246-.352-.246-.422s.082-.117.246-.14c.164-.024.386-.036.668-.036.398 0 .914-.047 1.547-.14l-.036-.493c0-.937-.058-1.734-.175-2.39l-.036-.246c0-.329.129-.457.387-.387.281.094.539.21.774.351.187.094.316.188.386.282.071.07.094.175.071.316l-.106 1.512v.914l3.094-.317c0-.164.012-.55.035-1.16.024-.633.024-1.043 0-1.23 0-.188-.023-.363-.07-.527a6.529 6.529 0 0 0-.071-.458c0-.187.094-.28.282-.28.187 0 .422.105.703.316.328.21.539.398.633.562.117.164.14.363.07.598a6.4 6.4 0 0 0-.246 1.265c-.047.47-.07.75-.07.844.281-.023.539-.058.773-.105.234-.047.387-.07.457-.07.188-.047.41-.071.668-.071.141.023.34.164.598.422.211.281.316.504.316.668 0 .234-.223.328-.668.281a6.863 6.863 0 0 0-1.195-.105c-.399 0-.738.011-1.02.035-.07.844-.211 1.676-.422 2.496a.953.953 0 0 1-.246.457c-.117.14-.222.21-.316.21-.164 0-.27-.07-.317-.21a3.524 3.524 0 0 1-.035-.598c.047-.61.071-1.37.071-2.285a26.99 26.99 0 0 0-1.477.14 9.357 9.357 0 0 1-1.512.212c-.023.96.024 1.816.141 2.566.07.492.211.832.422 1.02.14.117.305.187.492.21.211.024.422.036.633.036h.422c.726 0 1.406-.035 2.039-.106a1.52 1.52 0 0 0 .492-.14c.164-.07.281-.106.352-.106.21 0 .421.07.632.211.211.14.317.305.317.492 0 .188-.106.328-.317.422-.187.094-.492.176-.914.246-.75.094-1.5.14-2.25.14Zm10.02-15.996c.281 0 .422.129.422.387 0 .14-.129.34-.387.597-.703.867-2.098 2.52-4.184 4.957-.164.211-.316.317-.457.317-.117 0-.375-.176-.773-.528-.328-.281-.492-.515-.492-.703 0-.21.176-.41.527-.598.539-.304 1.348-.914 2.426-1.828 1.078-.96 1.875-1.722 2.39-2.285.211-.21.387-.316.528-.316Zm-44.684 11.496c2.086-.656 3.949-1.371 5.59-2.145a25.586 25.586 0 0 0-1.336-1.687c-.187-.235-.281-.422-.281-.563 0-.258.152-.48.457-.668.305-.21.539-.316.703-.316.188 0 .387.117.598.352a137.853 137.853 0 0 1 3.41 4.148c.937 1.195 1.406 1.922 1.406 2.18 0 .21-.164.457-.492.738-.305.305-.598.457-.879.457-.234 0-.469-.188-.703-.563a96.435 96.435 0 0 0-1.828-2.671l-4.219 2.109c-.469.21-1.207.586-2.215 1.125-.844.445-1.359.668-1.547.668-.14 0-.316-.094-.527-.281a1.65 1.65 0 0 1-.492-.633c-.094-.234-.094-.422 0-.563.14-.257.211-1.289.211-3.093V16.602c0-.563-.024-1.02-.071-1.372a3.587 3.587 0 0 0-.281-1.125 1.37 1.37 0 0 0-.07-.175.305.305 0 0 1-.035-.14c0-.118.082-.177.246-.177.304 0 1.066.258 2.285.774l7.629-.528c.187-.023.398-.035.633-.035.257 0 .562.117.914.352.351.21.527.445.527.703 0 .094-.059.234-.176.422-.094.187-.14.328-.14.422l-.914 6.609c.562.656.843 1.102.843 1.336 0 .117-.07.2-.211.246-.117.047-.304.07-.562.07l-8.508.317.035 5.87Zm-5.765-15.785c0-.235.152-.516.457-.844 1.711-1.898 3.199-3.785 4.464-5.66 1.266-1.875 1.899-3.13 1.899-3.762l-.035-.246V3.77c0-.329.129-.493.386-.493.305 0 .727.211 1.266.633.563.399.844.727.844.985 0 .117-.059.27-.176.457a23.895 23.895 0 0 1-1.16 1.687l4.992-.387a4.872 4.872 0 0 0 1.336-.28c.141-.048.246-.071.316-.071.352 0 .727.199 1.125.597.422.375.633.668.633.88 0 .28-.258.445-.773.492l-6.012.421c.164.047.527.293 1.09.739.586.445 1.113.902 1.582 1.37.469.47.703.798.703.985 0 .211-.141.469-.422.774-.281.28-.527.421-.738.421-.188 0-.41-.152-.668-.457a21.796 21.796 0 0 0-2.426-2.285c-.281-.234-.422-.433-.422-.597 0-.118.059-.27.176-.457.117-.188.27-.34.457-.457l-2.355.175a34.406 34.406 0 0 1-3.727 3.903c-1.359 1.195-2.226 1.793-2.601 1.793-.141 0-.211-.07-.211-.211Zm12.656 3.656.246-2.461-7.242.492v2.32l6.996-.351Zm-.457 4.36.281-2.708-6.785.317v2.636l6.504-.246Zm1.898-9.528c0-.234.153-.516.457-.844 1.149-1.383 2.192-2.941 3.129-4.676.961-1.757 1.442-2.988 1.442-3.69v-.142c0-.351.129-.527.386-.527.164 0 .41.094.739.281.351.164.668.364.949.598.281.234.422.469.422.703 0 .211-.164.586-.493 1.125-.328.54-.503.82-.527.844l6.926-.563a6.483 6.483 0 0 0 1.336-.246c.047-.023.141-.035.281-.035.328 0 .68.188 1.055.563.398.351.597.644.597.879 0 .14-.07.257-.21.351-.118.07-.282.117-.493.14l-7.136.493c.656.422 1.429 1.043 2.32 1.863.891.797 1.336 1.336 1.336 1.617 0 .164-.129.422-.387.774-.258.328-.504.492-.738.492-.188 0-.387-.117-.598-.352-1.148-1.242-2.191-2.226-3.129-2.953-.234-.187-.351-.363-.351-.527 0-.188.176-.469.527-.844l-2.601.176c-.774 1.031-1.711 2.074-2.813 3.129-1.078 1.055-1.805 1.582-2.18 1.582-.164 0-.246-.07-.246-.211Zm3.305.773c0-.14.082-.21.246-.21.352 0 1.148.292 2.391.878l7.066-.597.281-.035c.094 0 .27.046.528.14.281.07.539.2.773.387.258.164.387.387.387.668 0 .094-.035.223-.106.387-.07.164-.105.28-.105.351a88.243 88.243 0 0 1-.492 8.262l-.071.879c-.07.984-.164 1.805-.281 2.46-.117.657-.316 1.173-.598 1.548-.445.609-.925.914-1.441.914s-1.172-.317-1.969-.95a18.576 18.576 0 0 1-2.215-2.074c-.656-.75-.984-1.23-.984-1.441 0-.164.094-.246.281-.246.211 0 .504.117.879.351.867.54 1.594.973 2.18 1.301.586.328 1.008.492 1.266.492.117 0 .199-.082.246-.246.539-3 .867-6.762.984-11.285l-6.609.492c0 3.961.035 10.242.105 18.844 0 .21-.058.363-.176.457a.466.466 0 0 1-.386.176c-.188 0-.411-.07-.668-.211-.446-.188-.762-.363-.95-.528-.187-.164-.281-.351-.281-.562l.035-.246c.141-.773.211-1.64.211-2.602l-.105-14.836c0-.609-.024-1.078-.07-1.406a3.306 3.306 0 0 0-.211-.95c-.094-.28-.141-.468-.141-.562ZM59.281 68.219c-.27 0-.468-.094-.593-.281a3.672 3.672 0 0 0-.563-.657c-.167-.166-.469-.396-.906-.687l.093-.156c.959.333 1.636.5 2.032.5.333 0 .698-.188 1.093-.563.417-.396.771-.958 1.063-1.688.146-.333.25-.604.313-.812.083-.23.145-.48.187-.75v-.063c0-.187-.094-.28-.281-.28-.209 0-.584.062-1.125.187a22.56 22.56 0 0 0-1.157.375l-.25-.063a.725.725 0 0 0-.156-.093 1.25 1.25 0 0 1-.156-.188c-.104-.104-.156-.177-.156-.219l-.032-.125c0-.146.073-.281.22-.406.166-.125.26-.219.28-.281.167-.188.5-.646 1-1.375a2.71 2.71 0 0 0 .22-.282c.103-.166.156-.312.156-.437 0-.146-.615-.042-1.844.313-1.25.374-1.907.562-1.969.562-.208 0-.427-.177-.656-.531-.167-.167-.25-.302-.25-.407 0-.145.208-.229.625-.25.479-.02 1.218-.104 2.218-.25 1.021-.145 1.626-.24 1.813-.28l.438-.126a.693.693 0 0 1 .218-.031c.063 0 .157.042.282.125.145.083.27.146.374.188.271.124.428.27.47.437v.094c0 .187-.105.385-.313.593-.084.084-.25.26-.5.532-.25.25-.407.416-.469.5-.083.083-.208.218-.375.406a2.81 2.81 0 0 0-.281.344c0 .062.02.104.062.125.042.02.094.031.157.031a12.93 12.93 0 0 0 1.53-.281l.5-.157c.23 0 .397.084.5.25.188.209.313.386.376.532a.399.399 0 0 1 0 .375.79.79 0 0 1-.094.187 2.057 2.057 0 0 0-.125.219l-.125.25c-.063.125-.104.25-.125.375-.375 1.083-.823 2.01-1.344 2.781a4.956 4.956 0 0 1-.968.906c-.48.355-.948.532-1.407.532Zm3.594 8.375c-.313 0-.615-.23-.906-.688a9.89 9.89 0 0 0-1.094-1.437l-.813-.844c-.437.5-.822.896-1.156 1.188a6.222 6.222 0 0 1-1.187.843c-.896.521-1.646.781-2.25.781-.146 0-.219-.052-.219-.156 0-.062.198-.198.594-.406.396-.208.77-.458 1.125-.75.896-.75 1.635-1.52 2.218-2.313-.124-.124-.75-.666-1.874-1.624a10.682 10.682 0 0 1-.657-.532 8.273 8.273 0 0 1-.375-.281c-.187-.146-.281-.25-.281-.313 0-.104.052-.156.156-.156.313 0 .813.219 1.5.656.688.417 1.407.917 2.157 1.5.291-.354.52-.687.687-1 .167-.312.354-.697.563-1.156.104-.229.166-.427.187-.594.02-.187.031-.302.031-.343 0-.23.063-.344.188-.344.146 0 .343.115.593.344.438.416.657.698.657.844 0 .083-.052.177-.157.28-.25.25-.479.584-.687 1-.125.25-.354.605-.688 1.063-.104.125-.187.24-.25.344a3.281 3.281 0 0 1-.187.281c.48.354 1.188.959 2.125 1.813.23.208.375.406.438.594.083.166.124.395.124.687a.89.89 0 0 1-.156.531.504.504 0 0 1-.406.188Zm-6.906 9.344c-.313 0-.552-.084-.719-.25-.188-.188-.281-.355-.281-.5 0-.146.083-.303.25-.47.02-.02.135-.187.343-.5.459-.728.98-1.656 1.563-2.78.604-1.146.98-1.928 1.125-2.344.125-.396.24-.74.344-1.031.125-.292.229-.438.312-.438.146 0 .271.052.375.156.104.084.209.209.313.375.125.146.218.25.281.313.146.166.219.323.219.469a.5.5 0 0 1-.125.312 1.555 1.555 0 0 0-.157.219l-1.374 2.312a63.638 63.638 0 0 1-1.407 2.406.5.5 0 0 0-.125.313c0 .083.094.125.282.125.395 0 1.135-.052 2.218-.156 1.084-.084 1.813-.156 2.188-.219.541-.063.916-.125 1.125-.188.229-.062.562.094 1 .47.52.437.635.718.343.843-.166.083-.49.125-.968.125h-1.25c-.271 0-.698.02-1.282.063-.354 0-.75.01-1.187.03-.438.022-.802.042-1.094.063-.333.021-.979.084-1.937.188l-.375.094ZM69.25 72.156c.25 0 .375.115.375.344 0 .125-.115.302-.344.531-.625.771-1.864 2.24-3.719 4.406-.145.188-.28.282-.406.282-.104 0-.333-.156-.687-.469-.292-.25-.438-.458-.438-.625 0-.188.156-.365.469-.531.48-.271 1.198-.813 2.156-1.625.959-.854 1.667-1.531 2.125-2.031.188-.188.344-.282.469-.282ZM31.344 70v.094c0 .354-.177.531-.532.531-.291 0-.593-.083-.906-.25-.312-.167-.468-.417-.468-.75l.03-.313c.022-.104.032-.24.032-.406 0-.146-.01-.312-.031-.5a5.409 5.409 0 0 0-.063-.437l-.562-4.438c-.084-.562-.219-.99-.407-1.281-.145-.23-.218-.385-.218-.469 0-.125.114-.187.343-.187.375 0 1.021.166 1.938.5l4.031-.219-.062-1.406a2.076 2.076 0 0 0-.438-1.188.389.389 0 0 1-.125-.281c0-.146.136-.219.407-.219.229 0 .51.063.843.188.396.146.657.281.782.406.124.104.197.25.218.438l.094 1.968 3.969-.218.031-1.47c0-.52-.115-.958-.344-1.312a.738.738 0 0 1-.093-.312c0-.167.124-.25.374-.25.105.02.303.073.594.156.313.063.604.177.875.344.271.166.407.375.407.625l-.094 2.125 4.781-.25.406-.032c.209 0 .448.105.719.313.292.208.438.417.438.625 0 .083-.021.177-.063.281a1.725 1.725 0 0 0-.094.219l-.843 4.906c.416.5.624.834.624 1 0 .125-.062.209-.187.25-.104.021-.313.042-.625.063l-15.844.719.063.437ZM23.5 86.906c0-.187.188-.49.563-.906 3.104-3.396 4.687-7.74 4.75-13.031 0-.709-.063-1.25-.188-1.625-.083-.292-.125-.48-.125-.563 0-.166.083-.25.25-.25.313 0 .98.26 2 .781l14.094-.624c.583-.042 1.083-.136 1.5-.282.166-.041.281-.062.343-.062.23 0 .563.177 1 .531.438.333.657.615.657.844 0 .208-.24.333-.719.375l-16.938.719a33.868 33.868 0 0 1-.562 4.812l16.563-.719c.583-.041 1.083-.135 1.5-.281.166-.042.291-.063.374-.063.25 0 .5.094.75.282.25.166.459.364.626.594.166.208.25.364.25.468 0 .209-.24.334-.72.375L39 78.72c1.146 1.187 2.115 2.052 2.906 2.594 2.167-.792 3.427-1.553 3.782-2.282.104-.229.24-.344.406-.344.187 0 .427.198.718.594.292.396.438.73.438 1 0 .209-.115.365-.344.469-1 .542-2.156 1.042-3.468 1.5 1.124.625 2.385 1.156 3.78 1.594 1.397.437 3.042.833 4.938 1.187.188.042.323.084.407.125.083.042.124.104.124.188 0 .062-.072.219-.218.469-.125.25-.282.468-.469.656-.188.208-.375.312-.563.312-.062 0-.177-.02-.343-.062-2.292-.542-4.23-1.125-5.813-1.75a20.379 20.379 0 0 1-4.343-2.375c-1.334-.98-2.646-2.24-3.938-3.781l-2.531.093-.157 5.688c1.355-.354 2.948-.813 4.782-1.375.312-.104.614-.156.906-.156.25 0 .375.062.375.187 0 .23-.365.552-1.094.969-.729.416-1.625.844-2.687 1.281-.48.208-.875.375-1.188.5-.312.146-.552.26-.718.344-.792.396-1.292.594-1.5.594-.209 0-.438-.178-.688-.532-.25-.354-.313-.625-.188-.812.084-.146.146-.563.188-1.25a26.29 26.29 0 0 0 .063-1.5L32.656 79l-2.875.125c-.52 1.667-1.208 3.104-2.062 4.313-.854 1.187-1.677 2.093-2.469 2.718-.792.625-1.302.938-1.531.938-.146 0-.219-.063-.219-.188Zm7.281-21.844 3.907-.218-.094-1.625-4 .218.187 1.626Zm.344 3.157 3.688-.188-.063-1.781-3.813.188.188 1.78Zm.75 6.062c0-.083.052-.125.156-.125.084 0 .157.01.219.031.417.105.823.157 1.219.157h.281l9.25-.438c.583-.041 1.083-.135 1.5-.281.167-.042.292-.063.375-.063.25 0 .5.094.75.282.25.166.458.364.625.594.167.208.25.364.25.468 0 .188-.24.302-.719.344l-11.437.563-.719.03c-.813 0-1.365-.395-1.656-1.187a1.194 1.194 0 0 1-.094-.375Zm4.5-9.5 3.75-.187.063-1.656-3.876.187.063 1.656Zm.156 3.188 3.532-.188.03-1.781-3.656.188.094 1.78Zm9.032-.438.25-1.812-4.032.187-.062 1.813 3.843-.188ZM46 64.312l.219-1.687-4.313.219-.062 1.656L46 64.312ZM108.219 72c-.334 0-.542-.094-.625-.281a4.34 4.34 0 0 0-.313-.625c-.104-.188-.291-.406-.562-.656l.062-.126c.75.271 1.24.407 1.469.407.167 0 .292-.031.375-.094.083-.063.219-.208.406-.438.271-.291.521-.74.75-1.343.313-.896.511-1.823.594-2.781v-.094c0-.125-.021-.209-.063-.25-.27 0-.989.062-2.156.187-.646 1.604-1.396 2.927-2.25 3.969-.833 1.02-1.594 1.531-2.281 1.531-.167 0-.25-.062-.25-.187 0-.042.208-.281.625-.719.417-.438.875-1.01 1.375-1.719.521-.729 1.01-1.625 1.469-2.687-.104 0-.406.02-.906.062a6.52 6.52 0 0 0-1.282.219.494.494 0 0 1-.531.063l-.063-.032a.484.484 0 0 1-.124-.094 1.378 1.378 0 0 1-.376-.312.83.83 0 0 1-.124-.406c0-.063.052-.146.156-.25l.375-.5c.125-.167.239-.406.343-.719.105-.333.157-.615.157-.844 0-.146-.011-.24-.031-.281a.345.345 0 0 1-.032-.156c0-.104.052-.157.156-.157.126 0 .303.073.532.22.062.04.177.124.344.25.187.103.291.228.312.374 0 .146-.083.386-.25.719l-.406.719a.383.383 0 0 0-.063.219c0 .062.021.114.063.156.062.02.135.02.218 0l1.876-.25c.208-.542.374-1.115.5-1.719v-.718c0-.23.062-.324.187-.282.271.063.49.146.656.25.313.188.469.344.469.469 0 .104-.042.281-.125.531a14.93 14.93 0 0 1-.437 1.344c.062 0 .447-.042 1.156-.125l.312-.063c.063 0 .177-.02.344-.062a.348.348 0 0 1 .156-.031c.25 0 .406.01.469.03.083.022.208.084.375.188.188.125.312.25.375.375s.083.271.063.438l-.188 1.031-.219 1.125c0 .083-.073.354-.219.813a7.29 7.29 0 0 1-.5 1.218c-.354.709-.77 1.24-1.25 1.594-.416.333-.781.5-1.093.5Zm-4.063 7.094c-.229 0-.51-.177-.844-.531-.25-.25-.374-.438-.374-.563 0-.063.041-.094.124-.094.084-.02.188-.031.313-.031l.687-.031c.396 0 .657-.01.782-.031.396 0 .729-.01 1-.032 1.791-.166 3-.302 3.625-.406.312-.042.593-.083.843-.125.25-.063.448-.094.594-.094.292 0 .584.146.875.438.229.229.344.416.344.562 0 .125-.073.209-.219.25-.104.021-.718.063-1.844.125a41.74 41.74 0 0 0-2.312.156c-.917.084-1.719.167-2.406.25-.125.021-.302.053-.532.094a3.659 3.659 0 0 1-.656.063Zm9.094-7.875c.104 0 .26.073.469.219-.021.041.021.124.125.25l.218.218c.105.104.209.23.313.375.125.146.26.302.406.469.375.396 1.24 1.427 2.594 3.094.229.333.344.531.344.594 0 .208-.125.312-.375.312-.146 0-.302-.104-.469-.313-.396-.416-1.104-1.072-2.125-1.968-.792-.73-1.51-1.292-2.156-1.688-.313-.146-.469-.312-.469-.5 0-.146.156-.354.469-.625.291-.291.51-.437.656-.437Zm-30.313 14.75v.062a.55.55 0 0 1-.156.406c-.083.105-.219.157-.406.157-.313 0-.635-.115-.969-.344-.333-.208-.5-.438-.5-.688v-.156c0-.146.01-.281.031-.406a1.76 1.76 0 0 0 .032-.344l-.031-.562-.313-6.188a4.861 4.861 0 0 0-.156-.875c-.063-.333-.125-.573-.188-.719-.146-.291-.219-.5-.219-.624 0-.126.094-.188.282-.188.27 0 .948.188 2.031.563l11.594-.532h.344c.291 0 .53.073.718.219.209.146.365.313.469.5.104.188.156.323.156.406a.603.603 0 0 1-.094.313 1.062 1.062 0 0 0-.124.281l-.532 6.313c.5.645.75 1.083.75 1.312 0 .146-.062.23-.187.25-.125.042-.334.063-.625.063l-11.938.25.031.53Zm-11.468 0c0-.209.094-.531.281-.969 1.063-2.333 1.865-4.604 2.406-6.813a40.692 40.692 0 0 0 1.063-6.78c.187-2.313.281-5.094.281-8.344 0-.605-.01-1.063-.031-1.376a3.8 3.8 0 0 0-.188-.968c-.083-.25-.125-.407-.125-.469 0-.146.073-.219.219-.219.27 0 .99.271 2.156.813l16.969-.938c.604-.02 1.135-.125 1.594-.312a.83.83 0 0 1 .375-.094c.229 0 .479.094.75.281.291.188.531.396.719.625.208.23.312.396.312.5 0 .271-.26.427-.781.469L77.5 62.5c0 1.833-.052 3.77-.156 5.813-.084 2.041-.24 3.78-.469 5.218-.458 2.98-1.073 5.417-1.844 7.313-.75 1.875-1.458 3.229-2.125 4.062-.666.854-1.104 1.281-1.312 1.281-.084 0-.125-.072-.125-.218Zm5.781-10.781c0-.209.177-.5.531-.876.646-.687 1.365-1.552 2.156-2.593A29.823 29.823 0 0 0 82 68.75l-1.906.156h-.25c-.459 0-.854-.125-1.188-.375-.312-.25-.469-.583-.469-1 0-.104.063-.156.188-.156l.313.063c.312.062.635.093.968.093h.219l2.75-.187c0-.854.01-1.459.031-1.813-.646.146-1.25.271-1.812.375-.563.104-.938.156-1.125.156-.396 0-.594-.083-.594-.25 0-.083.083-.177.25-.28.167-.126.406-.23.719-.313.916-.271 1.937-.646 3.062-1.125 1.146-.48 1.865-.938 2.156-1.375.105-.125.22-.188.344-.188.209 0 .406.104.594.313a2.5 2.5 0 0 1 .469.656c.146.23.219.396.219.5 0 .208-.073.333-.22.375-1.02.354-1.853.615-2.5.781v2.094l1.22-.094a5.42 5.42 0 0 0 1.03-.187.81.81 0 0 1 .25-.031c.23 0 .5.145.813.437.313.27.469.5.469.688 0 .208-.208.322-.625.343l-3.156.219v.563a.6.6 0 0 1 .437-.188c.125 0 .438.167.938.5.5.313.958.656 1.375 1.031.437.375.656.646.656.813 0 .208-.115.437-.344.687-.208.25-.385.375-.531.375-.146 0-.333-.114-.563-.344a20.4 20.4 0 0 0-1.968-1.718v4.5c0 .437-.156.656-.469.656-.146 0-.365-.063-.656-.188-.25-.124-.427-.25-.531-.374a.77.77 0 0 1-.126-.438c0-.167.01-.292.032-.375.083-.667.125-1.146.125-1.438l.031-.968c0-.417.042-.969.125-1.656-.23.541-.719 1.24-1.469 2.093-.75.834-1.52 1.573-2.312 2.219-.771.646-1.292.969-1.563.969-.104 0-.156-.052-.156-.156Zm5.313 4.656 10.78-.375.126-2.344-11.031.531.124 2.188Zm.25 4 10.28-.25.157-2.625-10.594.375.156 2.5Zm3.562-9.25c0-.209.198-.51.594-.906a30.791 30.791 0 0 0 4.375-5.376l-1.563.126H89.5c-.396 0-.688-.073-.875-.22-.354-.312-.594-.614-.719-.906a1.309 1.309 0 0 1-.062-.218c0-.104.073-.156.219-.156a.81.81 0 0 1 .25.03c.312.084.614.126.906.126l.344-.031L92 66.906l.063-1.969c-.084.021-.542.126-1.376.313-.812.188-1.427.281-1.843.281-.396 0-.594-.073-.594-.219 0-.083.094-.187.281-.312a3.7 3.7 0 0 1 .844-.344 54.66 54.66 0 0 0 3.219-1.156c1.229-.5 1.99-.969 2.281-1.406.104-.167.23-.25.375-.25.27 0 .552.198.844.593.312.376.469.678.469.907a.416.416 0 0 1-.094.25c-.042.062-.084.093-.125.093a33.265 33.265 0 0 1-2.75.876c-.021.458-.031 1.208-.031 2.25l2.218-.126c.23-.02.573-.093 1.031-.218a.946.946 0 0 1 .282-.031c.229 0 .51.124.844.374.333.23.5.49.5.782 0 .208-.24.333-.72.375l-4.156.25v.719c.376.124 1.115.53 2.22 1.218a59.68 59.68 0 0 1 3.156 2c.02.021.093.104.218.25.146.125.219.26.219.406 0 .126-.073.344-.219.657-.125.291-.291.448-.5.469h-.062c-.167 0-.354-.084-.563-.25-1.583-1.209-3.073-2.24-4.469-3.094l-.03 3.844c0 .25-.032.437-.094.562a.323.323 0 0 1-.313.188c-.313 0-.615-.115-.906-.344-.292-.23-.438-.48-.438-.75l.031-.313c.084-.666.126-1.146.126-1.437v-.875c0-.5.062-1.167.187-2-.458.833-1.083 1.656-1.875 2.469a19.243 19.243 0 0 1-2.313 2c-.75.52-1.218.78-1.406.78-.104 0-.156-.04-.156-.124Zm71.531-6.25c-.146 0-.302-.094-.468-.281a1.83 1.83 0 0 1-.25-.344c-.042-.104-.042-.24 0-.406l.031-.75c.021-.146.031-.5.031-1.063v-1.031l-.938.437-1.093.469c-.271.104-.552.23-.844.375-.25.125-.469.188-.656.188a1.921 1.921 0 0 1-.5-.157 4.157 4.157 0 0 1-.438-.219c-.229-.145-.333-.302-.312-.468l.093-.313c0-.166.011-.312.032-.437l.031-1.813v-1.687c0-.334-.021-.615-.063-.844a17.01 17.01 0 0 0-.093-.531c0-.104.031-.177.093-.219.021-.02.073-.031.157-.031.146 0 .427.093.843.281.355.167.5.375.438.625a5.316 5.316 0 0 0-.125.656l-.094 3.594a.84.84 0 0 0 .031.25c.042.042.084.063.126.063.25 0 .552-.073.906-.22a17.373 17.373 0 0 0 1.718-.624l.688-.282V61.5c0-.833-.052-1.635-.156-2.406a.688.688 0 0 1-.032-.219c0-.208.084-.313.25-.313.021 0 .136.042.344.126.313.166.542.312.688.437.146.125.229.198.25.219.083.062.125.125.125.187a.302.302 0 0 1-.063.157 1.221 1.221 0 0 1-.062.156l-.094.937-.031 2.875.031 2.782c0 .479-.031.895-.094 1.25-.104.437-.271.656-.5.656Zm-5.75 5.125c-.229 0-.51-.177-.844-.531-.25-.25-.374-.438-.374-.563 0-.063.041-.094.124-.094.084-.02.188-.031.313-.031l.687-.031c.396 0 .657-.01.782-.031.396 0 .729-.01 1-.032 1.791-.166 3-.302 3.625-.406.312-.042.593-.083.843-.125.25-.063.448-.094.594-.094.292 0 .584.146.875.438.229.229.344.416.344.562 0 .125-.073.209-.219.25-.104.021-.718.063-1.844.125a41.74 41.74 0 0 0-2.312.156c-.917.084-1.719.167-2.406.25-.125.021-.302.053-.532.094a3.659 3.659 0 0 1-.656.063ZM159.5 85.78c-.021.021-.073.031-.156.031-.167 0-.406-.114-.719-.343a82.602 82.602 0 0 0-2.781-2.625 21.964 21.964 0 0 1-1.532 1.406c-.166.125-.458.313-.874.563-.605.354-1.188.572-1.75.656h-.188c-.188 0-.302-.021-.344-.063-.021-.02.021-.062.125-.125.125-.062.219-.114.281-.156.126-.063.48-.292 1.063-.688.292-.208.708-.562 1.25-1.062s.937-.906 1.187-1.219l-1.281-1a38.944 38.944 0 0 0-.75-.531 5.2 5.2 0 0 0-.531-.406l-.031-.094c0-.125.104-.188.312-.188.25 0 .657.157 1.219.47l1.594 1.03c.354-.458.708-.958 1.062-1.5.375-.562.573-.895.594-1 .021-.062.01-.114-.031-.156-.021-.062-.063-.094-.125-.094h-.625l-1.125.094c-.563.042-1.125.115-1.688.219a8.15 8.15 0 0 1-.312.094 1.405 1.405 0 0 1-.375.062c-.042 0-.219-.114-.531-.344-.292-.25-.448-.406-.469-.468-.021-.021-.031-.052-.031-.094 0-.104.114-.146.343-.125h.438c.583 0 1.427-.052 2.531-.156l1.062-.094.969-.125c.313-.083.49-.125.531-.125h.063c.104 0 .198.031.281.094a.792.792 0 0 1 .188.187.852.852 0 0 0 .094.125l.187.188c.104.083.167.166.187.25a.383.383 0 0 1 .063.219c0 .187-.073.322-.219.406-.104.041-.291.26-.562.656-.459.73-1.011 1.51-1.656 2.344.354.229.812.562 1.374 1 .25.166.657.448 1.219.844.25.187.438.437.563.75.083.333.125.583.125.75-.021.166-.094.28-.219.343Zm5.875-11.562c.063 0 .125.031.187.094a.303.303 0 0 1 .126.187v.063c0 .145-.115.427-.344.843l-2.25 3.906c-.167.355-.386.532-.656.532-.271 0-.5-.167-.688-.5-.188-.271-.417-.677-.688-1.219a3.851 3.851 0 0 1-.312-.563 9.91 9.91 0 0 0-.188-.406c-.229-.396-.343-.677-.343-.844a.21.21 0 0 1 .093-.187c.063-.063.126-.094.188-.094.229 0 .438.125.625.375.146.146.26.302.344.469l.343.469.626.719.281-.438c.291-.5.979-1.49 2.062-2.969.229-.291.427-.437.594-.437Zm-16.594 4.562c0 2.209-.156 3.781-.469 4.719-.312.917-.854 1.49-1.624 1.719-.75.25-2.032.375-3.844.375-1.25 0-2.219-.115-2.906-.344-.688-.208-1.178-.542-1.469-1-.292-.458-.438-1.083-.438-1.875 0-.354.011-.625.031-.813l1.282-12.843-5.875.531c-.438 2.354-1.021 4.406-1.75 6.156-.979 2.354-2.271 4.344-3.875 5.969-1.604 1.604-3.136 2.813-4.594 3.625-1.458.813-2.396 1.219-2.812 1.219-.23 0-.344-.073-.344-.219 0-.188.229-.438.687-.75 3.229-2.167 5.604-4.51 7.125-7.031 1.542-2.542 2.636-5.459 3.282-8.75l-5.657.5c-.146.02-.312.041-.5.062-.187.021-.375.031-.562.031-.521 0-.917-.197-1.188-.593-.271-.396-.458-.76-.562-1.094a.433.433 0 0 1-.031-.188c0-.124.062-.187.187-.187l.125.031a9.938 9.938 0 0 0 1.594.156c.354 0 .625-.01.812-.03l6.125-.563c.292-2.063.459-4.031.5-5.906V61.5c0-.354-.031-.667-.093-.938-.063-.27-.167-.635-.313-1.093a.346.346 0 0 1-.031-.157.21.21 0 0 1 .094-.187.558.558 0 0 1 .343-.094c.104 0 .354.052.75.157.396.104.761.27 1.094.5.354.208.531.468.531.78v.063c-.104 2.5-.312 4.782-.625 6.844l5.938-.563.469-.03c.374 0 .708.124 1 .374.312.23.468.49.468.781 0 .126-.031.292-.094.5-.041.188-.072.344-.093.47l-1.281 12.156c-.042.5-.063.822-.063.968 0 .354.063.636.187.844.146.208.428.375.844.5.417.104 1.032.156 1.844.156.979 0 1.708-.062 2.188-.187.479-.125.812-.302 1-.531.187-.25.374-.626.562-1.126.146-.416.312-.979.5-1.687.188-.73.323-1.375.406-1.938.084-.479.177-.843.282-1.093.124-.271.25-.406.374-.406.126 0 .23.135.313.406.083.27.135.666.156 1.187v.625Zm52.063-8.5c-.688-.25-1.011-.52-.969-.812.125-.875.187-1.875.187-3 0-.5-.01-.865-.031-1.094-.021-.27-.041-.5-.062-.688-.021-.208-.021-.322 0-.343a.422.422 0 0 1 .312-.125c.188 0 .417.083.688.25.291.166.437.333.437.5 0 .104-.01.208-.031.312a1.155 1.155 0 0 0-.031.281l-.188 3.094c0 .167.063.271.188.313h.156c.167 0 .281-.01.344-.031l4.031-.563v-.813c0-1.02-.021-1.812-.063-2.374-.02-.48-.072-.865-.156-1.157-.062-.333.021-.5.25-.5.167 0 .386.063.656.188.334.166.532.312.594.437.063.104.084.271.063.5-.042.375-.063.938-.063 1.688l.032 2.375c0 .5-.094.896-.282 1.187-.104.125-.208.188-.312.188-.104 0-.25-.094-.438-.281a1.86 1.86 0 0 1-.156-.188.412.412 0 0 0-.188-.156.805.805 0 0 0-.25-.031c-.479.041-1.635.197-3.468.468-.313.042-.563.125-.75.25-.209.104-.344.156-.406.156l-.094-.03Zm3.5 12.656c-.646 0-1.146-.02-1.5-.062A1.495 1.495 0 0 1 202 82.5c-.396-.292-.667-.927-.812-1.906l-.094-1c0-.25-.021-.563-.063-.938a5.367 5.367 0 0 0-.719.125 3.1 3.1 0 0 1-.218.094.862.862 0 0 1-.188.031.716.716 0 0 1-.406-.125c-.125-.083-.281-.24-.469-.469-.146-.187-.219-.312-.219-.374 0-.063.073-.105.219-.126.146-.02.344-.03.594-.03.354 0 .813-.042 1.375-.126l-.031-.437c0-.834-.052-1.542-.157-2.125l-.031-.219c0-.292.115-.406.344-.344.25.084.479.188.687.313.167.083.282.166.344.25.063.062.084.156.063.281l-.094 1.344v.812l2.75-.281c0-.146.01-.49.031-1.031.021-.563.021-.927 0-1.094 0-.167-.021-.323-.062-.469a5.817 5.817 0 0 0-.063-.406c0-.167.084-.25.25-.25.167 0 .375.094.625.281.292.188.479.354.563.5.104.146.125.323.062.531a5.704 5.704 0 0 0-.219 1.126c-.041.416-.062.666-.062.75.25-.021.479-.053.688-.094.208-.042.343-.063.406-.063a2.47 2.47 0 0 1 .594-.062c.124.02.302.146.531.375.187.25.281.448.281.594 0 .208-.198.291-.594.25a6.097 6.097 0 0 0-1.062-.094c-.354 0-.656.01-.906.031-.063.75-.188 1.49-.376 2.219a1.076 1.076 0 0 1-.218.437c-.104.104-.198.156-.282.156-.145 0-.239-.052-.281-.156a3.7 3.7 0 0 1-.031-.562 27.14 27.14 0 0 0 .062-2.031c-.562.041-1 .083-1.312.124a8.292 8.292 0 0 1-1.344.188 12.86 12.86 0 0 0 .125 2.281c.063.438.188.74.375.906a.83.83 0 0 0 .438.188c.187.02.375.031.562.031h.375c.646 0 1.25-.031 1.813-.094.166-.02.312-.062.437-.124.146-.063.25-.094.313-.094.187 0 .375.062.562.187.188.125.282.271.282.438 0 .166-.094.291-.282.375-.166.083-.437.156-.812.219-.667.083-1.334.124-2 .124Zm4.906-11.718c.104 0 .26.073.469.219-.021.041.021.124.125.25l.218.218c.105.104.209.23.313.375.125.146.26.302.406.469.375.396 1.24 1.427 2.594 3.094.229.333.344.531.344.594 0 .208-.125.312-.375.312-.146 0-.302-.104-.469-.313-.396-.416-1.104-1.072-2.125-1.968-.792-.73-1.51-1.292-2.156-1.688-.313-.146-.469-.312-.469-.5 0-.146.156-.354.469-.625.291-.291.51-.437.656-.437Zm-32.156 5.125c-.521 2.229-1.344 4.114-2.469 5.656-1.125 1.52-2.594 3.01-4.406 4.469-.438.354-.792.531-1.063.531-.146 0-.218-.073-.218-.219 0-.208.166-.49.5-.844 1.729-1.916 3.041-3.74 3.937-5.468.917-1.73 1.542-3.625 1.875-5.688.354-2.083.531-4.698.531-7.844V64c0-1.146-.104-2.031-.312-2.656a1.264 1.264 0 0 1-.094-.438c0-.166.094-.25.281-.25.334 0 1.063.282 2.188.844L189 60.844l.344-.032c.354 0 .666.146.937.438.271.27.407.51.407.719 0 .083-.032.208-.094.375a1.212 1.212 0 0 0-.094.406l.156 21.656.032 1.063c0 .437-.105.802-.313 1.094-.187.291-.406.5-.656.624-.25.146-.459.22-.625.22-.375 0-1.011-.324-1.906-.97a19.858 19.858 0 0 1-2.5-2.062c-.771-.73-1.157-1.23-1.157-1.5 0-.125.073-.188.219-.188.229 0 .573.136 1.031.407a20.033 20.033 0 0 0 3.813 1.75l-.063-8.969-11.437.469Zm11.437-2.188-.031-4.875-10.719.406c-.083 2.25-.208 3.896-.375 4.938l11.125-.469Zm-.031-6.687-.031-4.781-10.563.656-.062 4.656 10.656-.531Zm65.406.875c-.146 0-.302-.094-.468-.281a1.83 1.83 0 0 1-.25-.344c-.042-.104-.042-.24 0-.406l.031-.75c.021-.146.031-.5.031-1.063v-1.031l-.938.437-1.093.469c-.271.104-.552.23-.844.375-.25.125-.469.188-.656.188a1.921 1.921 0 0 1-.5-.157 4.157 4.157 0 0 1-.438-.219c-.229-.145-.333-.302-.312-.468l.093-.313c0-.166.011-.312.032-.437l.031-1.813v-1.687c0-.334-.021-.615-.063-.844a17.01 17.01 0 0 0-.093-.531c0-.104.031-.177.093-.219.021-.02.073-.031.157-.031.146 0 .427.093.843.281.355.167.5.375.438.625a5.316 5.316 0 0 0-.125.656l-.094 3.594a.84.84 0 0 0 .031.25c.042.042.084.063.126.063.25 0 .552-.073.906-.22a17.373 17.373 0 0 0 1.718-.624l.688-.282V61.5c0-.833-.052-1.635-.156-2.406a.688.688 0 0 1-.032-.219c0-.208.084-.313.25-.313.021 0 .136.042.344.126.313.166.542.312.688.437.146.125.229.198.25.219.083.062.125.125.125.187a.302.302 0 0 1-.063.157 1.221 1.221 0 0 1-.062.156l-.094.937-.031 2.875.031 2.782c0 .479-.031.895-.094 1.25-.104.437-.271.656-.5.656Zm-5.75 5.125c-.229 0-.51-.177-.844-.531-.25-.25-.374-.438-.374-.563 0-.063.041-.094.124-.094.084-.02.188-.031.313-.031l.687-.031c.396 0 .657-.01.782-.031.396 0 .729-.01 1-.032 1.791-.166 3-.302 3.625-.406.312-.042.593-.083.843-.125.25-.063.448-.094.594-.094.292 0 .584.146.875.438.229.229.344.416.344.562 0 .125-.073.209-.219.25-.104.021-.718.063-1.844.125a41.74 41.74 0 0 0-2.312.156c-.917.084-1.719.167-2.406.25-.125.021-.302.053-.532.094a3.659 3.659 0 0 1-.656.063ZM255.5 85.78c-.021.021-.073.031-.156.031-.167 0-.406-.114-.719-.343a82.602 82.602 0 0 0-2.781-2.625 21.964 21.964 0 0 1-1.532 1.406c-.166.125-.458.313-.874.563-.605.354-1.188.572-1.75.656h-.188c-.188 0-.302-.021-.344-.063-.021-.02.021-.062.125-.125.125-.062.219-.114.281-.156.126-.063.48-.292 1.063-.688.292-.208.708-.562 1.25-1.062s.937-.906 1.187-1.219l-1.281-1a38.944 38.944 0 0 0-.75-.531 5.2 5.2 0 0 0-.531-.406l-.031-.094c0-.125.104-.188.312-.188.25 0 .657.157 1.219.47l1.594 1.03c.354-.458.708-.958 1.062-1.5.375-.562.573-.895.594-1 .021-.062.01-.114-.031-.156-.021-.062-.063-.094-.125-.094h-.625l-1.125.094c-.563.042-1.125.115-1.688.219a8.15 8.15 0 0 1-.312.094 1.405 1.405 0 0 1-.375.062c-.042 0-.219-.114-.531-.344-.292-.25-.448-.406-.469-.468-.021-.021-.031-.052-.031-.094 0-.104.114-.146.343-.125h.438c.583 0 1.427-.052 2.531-.156l1.062-.094.969-.125c.313-.083.49-.125.531-.125h.063c.104 0 .198.031.281.094a.792.792 0 0 1 .188.187.852.852 0 0 0 .094.125l.187.188c.104.083.167.166.187.25a.383.383 0 0 1 .063.219c0 .187-.073.322-.219.406-.104.041-.291.26-.562.656-.459.73-1.011 1.51-1.656 2.344.354.229.812.562 1.374 1 .25.166.657.448 1.219.844.25.187.438.437.563.75.083.333.125.583.125.75-.021.166-.094.28-.219.343Zm5.875-11.562c.063 0 .125.031.187.094a.303.303 0 0 1 .126.187v.063c0 .145-.115.427-.344.843l-2.25 3.906c-.167.355-.386.532-.656.532-.271 0-.5-.167-.688-.5-.188-.271-.417-.677-.688-1.219a3.851 3.851 0 0 1-.312-.563 9.91 9.91 0 0 0-.188-.406c-.229-.396-.343-.677-.343-.844a.21.21 0 0 1 .093-.187c.063-.063.126-.094.188-.094.229 0 .438.125.625.375.146.146.26.302.344.469l.343.469.626.719.281-.438c.291-.5.979-1.49 2.062-2.969.229-.291.427-.437.594-.437Zm-16.594 4.562c0 2.209-.156 3.781-.469 4.719-.312.917-.854 1.49-1.624 1.719-.75.25-2.032.375-3.844.375-1.25 0-2.219-.115-2.906-.344-.688-.208-1.178-.542-1.469-1-.292-.458-.438-1.083-.438-1.875 0-.354.011-.625.031-.813l1.282-12.843-5.875.531c-.438 2.354-1.021 4.406-1.75 6.156-.979 2.354-2.271 4.344-3.875 5.969-1.604 1.604-3.136 2.813-4.594 3.625-1.458.813-2.396 1.219-2.812 1.219-.23 0-.344-.073-.344-.219 0-.188.229-.438.687-.75 3.229-2.167 5.604-4.51 7.125-7.031 1.542-2.542 2.636-5.459 3.282-8.75l-5.657.5c-.146.02-.312.041-.5.062-.187.021-.375.031-.562.031-.521 0-.917-.197-1.188-.593-.271-.396-.458-.76-.562-1.094a.433.433 0 0 1-.031-.188c0-.124.062-.187.187-.187l.125.031a9.938 9.938 0 0 0 1.594.156c.354 0 .625-.01.812-.03l6.125-.563c.292-2.063.459-4.031.5-5.906V61.5c0-.354-.031-.667-.093-.938-.063-.27-.167-.635-.313-1.093a.346.346 0 0 1-.031-.157.21.21 0 0 1 .094-.187.558.558 0 0 1 .343-.094c.104 0 .354.052.75.157.396.104.761.27 1.094.5.354.208.531.468.531.78v.063c-.104 2.5-.312 4.782-.625 6.844l5.938-.563.469-.03c.374 0 .708.124 1 .374.312.23.468.49.468.781 0 .126-.031.292-.094.5-.041.188-.072.344-.093.47l-1.281 12.156c-.042.5-.063.822-.063.968 0 .354.063.636.187.844.146.208.428.375.844.5.417.104 1.032.156 1.844.156.979 0 1.708-.062 2.188-.187.479-.125.812-.302 1-.531.187-.25.374-.626.562-1.126.146-.416.312-.979.5-1.687.188-.73.323-1.375.406-1.938.084-.479.177-.843.282-1.093.124-.271.25-.406.374-.406.126 0 .23.135.313.406.083.27.135.666.156 1.187v.625Zm52.344-.969c-.125 0-.302-.093-.531-.28a2.081 2.081 0 0 1-.313-.25c-.083-.084-.125-.157-.125-.22l.032-.5c.02-.187.031-.604.031-1.25-.021-.458-.031-1.416-.031-2.874 0-.584-.053-1.115-.157-1.594l-.125-.75V70c0-.188.125-.24.375-.156.104.02.344.062.719.125.396-.063 1.719-.219 3.969-.469a9.32 9.32 0 0 0 1.156-.219h.125c.229 0 .438.115.625.344.333.396.469.677.406.844-.083.208-.166.562-.25 1.062a34.21 34.21 0 0 0-.156 1.5V76.75c0 .188-.094.438-.281.75a.487.487 0 0 1-.25.25.656.656 0 0 1-.344.094c-.125 0-.219-.031-.281-.094l-.125-.125a.362.362 0 0 0-.125-.125c-.021-.02-.063-.031-.125-.031-1.292 0-2.459.083-3.5.25-.084.02-.167.031-.25.031a.594.594 0 0 0-.188.031l-.218.031h-.063Zm.594-1.156c.521-.02 1.229-.083 2.125-.187.416-.042.656-.063.718-.063h.25c.334 0 .584.063.75.188.146-1.042.219-2.948.219-5.719-.041-.313-.166-.469-.375-.469-.396 0-1.198.073-2.406.219-.125 0-.25.01-.375.031l-.375.063a5.043 5.043 0 0 1-.781.094c-.146 0-.198.072-.157.218l-.031 1.063a2.857 2.857 0 0 0-.031.406c.021.125.031.24.031.344.021.166.031.437.031.812 0 1.625.011 2.521.032 2.688 0 .146.041.24.125.281a.351.351 0 0 0 .25.031Zm2.312-1.75c-.229 0-.406-.114-.531-.344a18.12 18.12 0 0 0-1.219-1.812l-.219-.344c-.083-.125-.124-.219-.124-.281.02-.083.072-.115.156-.094a4.407 4.407 0 0 1 1.5.813c.708.541 1.062.958 1.062 1.25a.868.868 0 0 1-.125.437c-.146.25-.312.375-.5.375Zm5.219-8.375c.104 0 .26.073.469.219-.021.042.021.125.125.25l.218.219c.105.104.209.229.313.375.125.146.26.302.406.469.375.395 1.24 1.427 2.594 3.093.229.334.344.531.344.594 0 .208-.125.313-.375.313-.146 0-.302-.105-.469-.313-.396-.417-1.104-1.073-2.125-1.969-.792-.729-1.51-1.291-2.156-1.687-.313-.146-.469-.313-.469-.5 0-.146.156-.354.469-.625.291-.292.51-.438.656-.438Zm-32.875 19.094v.156c0 .521-.167.781-.5.781-.167 0-.396-.062-.687-.187a2.474 2.474 0 0 1-.782-.531c-.208-.209-.312-.438-.312-.688l.031-.219c.063-.437.094-.916.094-1.437v-.625l-.5-18.469a6.84 6.84 0 0 0-.157-1.062c-.083-.396-.197-.719-.343-.969-.146-.292-.219-.5-.219-.625 0-.167.115-.25.344-.25.416 0 1.187.26 2.312.781l13.782-.718h.218c.313 0 .646.124 1 .374.354.23.532.5.532.813 0 .104-.021.219-.063.344-.042.125-.073.229-.094.312L286.156 82c.584.73.875 1.23.875 1.5 0 .146-.073.24-.219.281-.145.042-.406.073-.781.094l-13.687.469.031 1.281Zm-.406-13.531 12.593-.625.313-8-13.125.687.219 7.938Zm.312 10.375 11.875-.375.344-8.719-12.469.563.25 8.53Z"/></svg>