<svg xmlns="http://www.w3.org/2000/svg" width="135" height="70" fill="none"><path fill="#333" d="M56.2 35.418c-.165 0-.292-.036-.384-.11l-.136-.136a47.978 47.978 0 0 0-.657-1.203c-.346-.657-.601-1.103-.765-1.34-.347-.51-.52-.839-.52-.984 0-.201.119-.493.356-.875.364-.51.61-.921.738-1.23.237-.438.41-.776.52-1.013.109-.255.155-.455.136-.601a1.539 1.539 0 0 1-.027-.301c0-.073.018-.11.055-.11.036-.018.109-.009.218.028.183.055.392.182.63.383.054.055.118.127.19.219a.677.677 0 0 1 .137.246.23.23 0 0 1 .028.191c0 .055-.028.11-.082.164l-.137.11c-.128.163-.273.364-.438.601-.164.237-.319.456-.464.656l-.684.985c-.182.255-.273.437-.273.547 0 .054.082.2.246.437l.574.629c.547.602.802.884.766.848.346.346.52.683.52 1.011 0 .565-.183.848-.548.848Zm3.609-.082a.913.913 0 0 1-.41-.082c-.201-.2-.347-.438-.438-.711l-.574-1.012-.547-.957c-.347-.474-.52-.793-.52-.957 0-.219.119-.501.356-.848l.437-.628c.183-.31.283-.493.301-.547.182-.365.337-.684.465-.957.146-.292.21-.51.191-.657a1.152 1.152 0 0 1-.027-.273c0-.146.082-.182.246-.11.237.092.492.238.766.438.127.128.21.237.246.328a.491.491 0 0 1 .082.301c0 .037-.064.11-.192.219a1.74 1.74 0 0 0-.328.3c-.11.11-.355.456-.738 1.04-.073.109-.164.237-.273.383-.092.127-.21.3-.356.519-.182.237-.273.41-.273.52 0 .109.109.273.328.492.073.073.146.164.218.273l.329.328.71.793c.347.31.52.61.52.903 0 .601-.173.902-.52.902Zm.355 9.105c-.273 0-.538-.2-.793-.601a8.658 8.658 0 0 0-.957-1.258l-.71-.738c-.384.437-.72.784-1.013 1.039-.273.255-.62.501-1.039.738-.784.456-1.44.684-1.968.684-.128 0-.192-.046-.192-.137 0-.055.173-.173.52-.355.346-.183.674-.402.984-.657.784-.656 1.431-1.33 1.941-2.023-.109-.11-.656-.584-1.64-1.422a9.311 9.311 0 0 1-.574-.465 7.212 7.212 0 0 1-.328-.246c-.165-.128-.247-.219-.247-.273 0-.092.046-.137.137-.137.274 0 .711.191 1.313.574.601.365 1.23.802 1.886 1.313a5.4 5.4 0 0 0 .602-.875c.146-.274.31-.611.492-1.012.091-.2.146-.374.164-.52.018-.164.028-.264.028-.3 0-.201.054-.301.164-.301.127 0 .3.1.52.3.382.365.573.611.573.739 0 .073-.045.155-.136.246-.22.219-.42.51-.602.875-.11.219-.31.529-.602.93a2.44 2.44 0 0 0-.218.3c-.055.091-.11.174-.164.246.419.31 1.039.839 1.86 1.586.2.183.327.356.382.52.073.146.11.346.11.602a.778.778 0 0 1-.137.464.44.44 0 0 1-.356.164Zm2.078-9.625c.091 0 .228.064.41.192-.018.036.019.11.11.219l.191.191c.091.091.182.2.274.328.109.128.227.264.355.41.328.347 1.085 1.249 2.27 2.707.2.292.3.465.3.52 0 .182-.109.273-.328.273-.127 0-.264-.09-.41-.273-.346-.365-.966-.939-1.86-1.723-.692-.638-1.32-1.13-1.886-1.476-.273-.128-.41-.274-.41-.438 0-.128.136-.31.41-.547.255-.255.447-.383.574-.383Zm-14.027-3.062c-.784 3.226-1.823 5.988-3.117 8.285 1.659 2.443 3.819 4.703 6.48 6.781.2.146.3.283.3.41 0 .146-.209.338-.628.575-.401.255-.684.383-.848.383-.237 0-.738-.374-1.504-1.122a41.335 41.335 0 0 1-2.515-2.652c-.893-1.057-1.632-2.014-2.215-2.871a20.21 20.21 0 0 1-2.953 3.473c-1.076 1.002-2.078 1.777-3.008 2.324-.911.565-1.531.847-1.86.847-.145 0-.218-.054-.218-.164 0-.164.173-.382.52-.656a28.162 28.162 0 0 0 3.609-3.336 25.02 25.02 0 0 0 2.953-4.02 32.602 32.602 0 0 1-2.707-5.769 17.811 17.811 0 0 1-1.75 2.516c-.602.71-.994 1.066-1.176 1.066-.091 0-.137-.064-.137-.191 0-.219.1-.502.301-.848a46.87 46.87 0 0 0 2.297-4.976c.656-1.678 1.158-3.136 1.504-4.375.365-1.258.547-2.051.547-2.38 0-.218-.01-.391-.028-.519v-.055c0-.145.092-.218.274-.218.292 0 .656.164 1.094.492.455.31.683.601.683.875 0 .237-.237.975-.71 2.215a60.812 60.812 0 0 1-1.15 2.898l5.579-.383a3.85 3.85 0 0 0 1.23-.273c.146-.037.238-.055.274-.055.219 0 .529.155.93.465.4.292.601.556.601.793 0 .2-.191.32-.574.355l-2.078.11Zm-22.04.055c0-.092.046-.137.137-.137.073 0 .128.009.165.027.273.091.647.137 1.12.137h.274l4.047-.219.027-4.812c0-.183-.027-.365-.082-.547a3.02 3.02 0 0 0-.246-.574.49.49 0 0 1-.082-.247c0-.145.119-.218.356-.218.2 0 .5.054.902.164.602.146.902.41.902.793l-.11 5.36 2.243-.138a5.52 5.52 0 0 0 1.504-.246 1.161 1.161 0 0 1 .957.219c.237.146.428.32.574.52.164.2.246.346.246.437 0 .255-.218.401-.656.438l-4.894.273-.11 4.484 2.516-.136.3-.028c.256 0 .52.119.794.356.273.219.41.428.41.629 0 .09-.037.2-.11.328-.073.128-.109.228-.109.3l-.602 4.868c.456.565.684.948.684 1.148 0 .128-.055.21-.164.246a5.246 5.246 0 0 1-.547.055l-5.934.164.082 1.094v.082c0 .164-.045.3-.136.41-.073.11-.192.164-.356.164-.255 0-.556-.11-.902-.328-.328-.2-.492-.428-.492-.684 0-.109.009-.191.027-.246a5.67 5.67 0 0 0 .082-.984l-.027-.574-.356-5.14c-.036-.548-.136-1.004-.3-1.368-.092-.182-.137-.328-.137-.438 0-.127.091-.191.273-.191.292 0 .893.155 1.805.465l1.613-.082.028-4.485-3.555.192-.547.027c-.456 0-.766-.082-.93-.246a2.286 2.286 0 0 1-.52-.766c-.108-.291-.163-.473-.163-.546Zm4.403 12.195 4.457-.164.438-4.977-5.25.274.355 4.867Zm10.91-11.594c.711 2.188 1.568 4.184 2.57 5.988.84-1.695 1.568-3.864 2.188-6.507l-4.648.328-.11.191ZM95.52 41.078a.68.68 0 0 1-.247-.027c-.018-.037.01-.1.083-.192a3.94 3.94 0 0 0 .601-.683c.164-.237.337-.61.52-1.121.291-.839.437-1.486.437-1.942 0-.419-.027-.802-.082-1.148v-.082c0-.2.128-.265.383-.192.219.055.465.128.738.22a.827.827 0 0 1 .246-.028c.11-.018.283-.046.52-.082.62-.091 1.422-.183 2.406-.274 0-.073.073-.328.219-.765l.164-.602c.073-.255.045-.383-.082-.383-.365 0-1.212.091-2.543.274l-1.45.246c-.127.018-.291-.037-.492-.164a1.662 1.662 0 0 1-.437-.438c-.091-.164-.073-.273.055-.328a.82.82 0 0 1 .437-.136h.629l1.805-.055 1.75-.219c.091-.018.2-.046.328-.082.146-.055.282-.091.41-.11.182-.036.492.165.93.602a.34.34 0 0 1 .109.246c0 .11-.073.219-.219.328-.2.2-.328.374-.383.52a4.715 4.715 0 0 1-.109.41 6.066 6.066 0 0 0-.164.629.692.692 0 0 1 .164.465c0 .146-.045.255-.137.328-.073.055-.227.082-.464.082-.821.055-1.468.11-1.942.164-.474.036-1.048.128-1.722.273a8.792 8.792 0 0 1-.493 2.27c-.255.675-.61 1.185-1.066 1.531-.438.31-.738.465-.903.465Zm8.722-10.363c.091 0 .228.064.41.191-.018.037.019.11.11.219l.191.191c.091.092.182.2.274.329.109.127.227.264.355.41.328.346 1.085 1.248 2.27 2.707.2.291.3.465.3.52 0 .182-.109.273-.328.273-.127 0-.264-.091-.41-.274-.346-.364-.966-.939-1.859-1.722-.693-.638-1.322-1.13-1.887-1.477-.273-.128-.41-.273-.41-.438 0-.127.137-.31.41-.546.255-.256.447-.383.574-.383ZM87.809 41.188c.437.455.656.783.656.984 0 .128-.064.21-.192.246-.109.036-.291.064-.546.082l-6.508.273V45.7l.027.684c.018.127.027.319.027.574 0 .565-.164 1.02-.492 1.367-.328.365-.693.547-1.094.547-.328 0-.856-.228-1.585-.684a15.327 15.327 0 0 1-2.024-1.503c-.62-.53-.93-.884-.93-1.067 0-.146.1-.219.301-.219.183 0 .365.046.547.137 1.495.638 2.68 1.057 3.555 1.258v-3.965l-5.195.219-.739.027c-.638 0-1.103-.373-1.394-1.12a.63.63 0 0 1-.082-.247c0-.091.045-.137.136-.137l.22.055c.2.073.519.11.956.11h.328l5.77-.22v-1.722l-9.27.41h-.191c-.365 0-.693-.064-.984-.191-.292-.146-.51-.483-.657-1.012a.305.305 0 0 1-.027-.137c0-.09.055-.136.164-.136l.164.027c.365.091.684.137.957.137h.219l9.625-.41v-1.504l-5.442.273h-.382c-.456 0-.812-.091-1.067-.273-.237-.183-.4-.374-.492-.575-.073-.2-.11-.346-.11-.437 0-.091.046-.137.137-.137a.38.38 0 0 1 .164.027c.401.092.73.137.985.137l.41-.027 5.77-.328V34.05l-4.813.218.027.22v.109c0 .237-.155.355-.465.355-.2 0-.464-.045-.792-.137-.31-.109-.465-.319-.465-.629v-.656c0-.255-.01-.446-.028-.574l-.191-1.477c-.055-.528-.2-.966-.438-1.312-.127-.2-.191-.346-.191-.438 0-.127.1-.19.3-.19.329 0 .958.163 1.888.491l5.167-.3v-1.587l-7.765.438a6.2 6.2 0 0 1-.656.027c-.383 0-.693-.1-.93-.3-.219-.2-.383-.41-.492-.63-.092-.236-.137-.391-.137-.464 0-.091.055-.137.164-.137.073 0 .137.01.191.027.365.092.739.137 1.121.137h.247l8.257-.492v-1.367c0-.565-.136-1.021-.41-1.367-.054-.091-.082-.155-.082-.192 0-.11.1-.164.301-.164.219 0 .474.046.766.137.455.127.747.264.875.41.127.146.191.365.191.656v1.778l6.973-.41a3.76 3.76 0 0 0 .765-.137 7.14 7.14 0 0 1 .492-.164.382.382 0 0 1 .165-.028c.255 0 .565.164.93.492.364.329.546.593.546.794 0 .2-.2.319-.601.355l-9.27.52v1.585l5.605-.328.438-.027c.237 0 .483.082.738.246.274.146.41.32.41.52 0 .109-.045.227-.136.355a1.822 1.822 0 0 0-.137.273l-.438 1.723c.456.438.684.748.684.93 0 .127-.064.21-.191.246a3.162 3.162 0 0 1-.602.082l-6.344.3v1.587l6.07-.356.302-.027c.236 0 .492.1.765.3.292.183.438.429.438.739a.85.85 0 0 1-.11.355c-.073.146-.11.256-.11.328l-.218 1.204 2.078-.082c.31-.019.593-.073.848-.164.255-.092.41-.146.465-.164.146-.037.246-.055.3-.055.183 0 .465.146.848.437.383.292.574.547.574.766 0 .219-.246.346-.738.383l-4.594.191-.3 1.778Zm-13.235-8.122 4.95-.246v-1.886l-5.168.3.218 1.832Zm6.645 8.395 5.031-.191.246-1.778-5.305.246.028 1.723Zm5.441-3.281.219-1.586-5.688.3v1.504l5.47-.218Zm-.601-5.688.328-1.941-5.196.3v1.887l4.868-.246Z"/></svg>