<svg xmlns="http://www.w3.org/2000/svg" width="135" height="70" fill="none"><path fill="#333" d="M59.316 32.3c-.127 0-.264-.081-.41-.245a1.678 1.678 0 0 1-.218-.301c-.037-.091-.037-.21 0-.356l.027-.656c.018-.127.027-.437.027-.93v-.902l-.82.383-.957.41a8.42 8.42 0 0 0-.738.328c-.22.11-.41.164-.575.164a1.69 1.69 0 0 1-.437-.136 3.692 3.692 0 0 1-.383-.192c-.2-.127-.292-.264-.273-.41l.082-.273c0-.146.009-.274.027-.383l.027-1.586v-1.477a4.21 4.21 0 0 0-.054-.738 16.688 16.688 0 0 0-.082-.465c0-.091.027-.155.082-.191.018-.018.063-.028.136-.028.128 0 .374.082.739.247.31.145.437.328.382.546a4.654 4.654 0 0 0-.109.575l-.082 3.144c0 .091.01.164.027.219.037.036.073.055.11.055.218 0 .483-.064.793-.192a15.142 15.142 0 0 0 1.504-.547l.601-.246v-1.805c0-.729-.045-1.43-.136-2.105a.604.604 0 0 1-.028-.191c0-.183.073-.274.219-.274.018 0 .118.037.3.11.274.145.475.273.602.382.128.11.2.174.219.192.073.055.11.11.11.164a.266.266 0 0 1-.055.137c-.019.054-.037.1-.055.136l-.082.82-.027 2.516.027 2.434c0 .42-.027.784-.082 1.094-.091.382-.237.574-.438.574Zm-5.03 4.485c-.201 0-.447-.155-.74-.465-.218-.218-.327-.383-.327-.492 0-.055.036-.082.11-.082.072-.018.163-.027.273-.027l.601-.028c.346 0 .574-.009.684-.027.346 0 .638-.01.875-.027 1.567-.146 2.625-.265 3.172-.356.273-.036.52-.073.738-.11.219-.054.392-.081.52-.081.255 0 .51.127.765.383.2.2.3.364.3.492 0 .11-.063.182-.19.219-.092.018-.63.054-1.614.109-.547.018-1.221.064-2.023.137a71.75 71.75 0 0 0-2.106.218l-.465.082c-.2.037-.392.055-.574.055Zm4.073 6.098c-.182.237-.373.355-.574.355-.054 0-.082-.045-.082-.136 0-.128.037-.274.11-.438l.546-1.094c.019-.073.046-.145.082-.218a1.5 1.5 0 0 0 .082-.192v-.027c0-.037-.027-.073-.082-.11a.23.23 0 0 0-.191-.027c-.292.018-.73.064-1.313.137-.565.073-.984.146-1.257.219l-.41.136a1.07 1.07 0 0 1-.356.082c-.328 0-.602-.1-.82-.3a1.685 1.685 0 0 1-.41-.383l-.055-.137c0-.091.155-.118.465-.082.419.036 1.285-.018 2.597-.164l.547-.082c.146-.018.374-.046.684-.082.328-.055.583-.11.766-.164l.164-.055a.44.44 0 0 1 .191-.055c.091 0 .2.046.328.137.146.091.264.173.356.246.127.091.21.173.246.246.054.055.073.128.054.22 0 .09-.045.172-.136.245a2.611 2.611 0 0 0-.192.164 4.386 4.386 0 0 1-.383.41 4.489 4.489 0 0 1-.492.602 58.61 58.61 0 0 0-.465.547Zm-1.367 5.386c0-.054.091-.2.274-.437.2-.219.355-.392.465-.52.273-.364.601-.893.984-1.585.4-.693.629-1.149.683-1.368.037-.109-.018-.164-.164-.164-.291 0-1.093.082-2.406.246-.857.11-1.495.22-1.914.328a.528.528 0 0 1-.273.083c-.146 0-.301-.1-.465-.301a.725.725 0 0 1-.11-.356c0-.073.046-.145.137-.218l.082-.11c.055-.11.119-.255.192-.437.073-.183.136-.356.191-.52.091-.291.155-.61.191-.957.019-.2.128-.255.328-.164.256.128.447.255.575.383.146.11.191.191.136.246a2.726 2.726 0 0 0-.437.738 7.343 7.343 0 0 0-.164.575c0 .072.045.109.137.109.273 0 .683-.046 1.23-.137l1.148-.137c.456-.054.82-.109 1.094-.164l.684-.136a.713.713 0 0 1 .219-.028c.09 0 .182.037.273.11.091.054.191.127.3.218.183.164.302.301.356.41.055.092.082.201.082.329 0 .073-.054.164-.164.273-.09.11-.2.283-.328.52-.529 1.075-1.212 1.977-2.05 2.707a3.775 3.775 0 0 1-.794.465 1.298 1.298 0 0 1-.355.054c-.091.018-.137 0-.137-.054Zm8.86-10.828c.054 0 .109.028.164.082a.266.266 0 0 1 .109.164v.055c0 .128-.1.374-.3.739l-1.97 3.417c-.145.31-.337.465-.574.465-.237 0-.437-.146-.601-.437a9.248 9.248 0 0 1-.602-1.067 3.33 3.33 0 0 1-.273-.492 9.53 9.53 0 0 0-.164-.355c-.2-.347-.301-.593-.301-.739 0-.073.027-.127.082-.164.055-.054.11-.082.164-.082.2 0 .383.11.547.328.127.128.228.265.3.41l.301.41.547.63.246-.383c.256-.438.857-1.303 1.805-2.598.2-.255.374-.383.52-.383Zm-36.067-4.539c0-.802-.127-1.494-.383-2.078l-.054-.11c-.456.457-.912.858-1.367 1.204-.456.328-.748.492-.876.492-.109 0-.164-.045-.164-.137 0-.182.146-.419.438-.71.911-.985 1.896-2.27 2.953-3.856 1.057-1.604 1.586-2.725 1.586-3.363 0-.274.11-.41.328-.41.2 0 .501.136.902.41.42.273.63.492.63.656 0 .055-.064.182-.192.383-.11.182-.328.529-.656 1.039l4.293-.3c.237-.02.556-.083.957-.192a1.07 1.07 0 0 1 .355-.082c.274 0 .547.127.82.383.274.255.41.482.41.683 0 .219-.209.346-.628.383l-5.032.3c.383.329.784.739 1.204 1.231.419.492.629.82.629.985 0 .145-.128.319-.383.519-.237.2-.429.3-.575.3-.145 0-.291-.127-.437-.382a8.753 8.753 0 0 0-.711-1.012 6.8 6.8 0 0 0-.793-.902c-.091-.128-.137-.228-.137-.3 0-.11.055-.229.164-.356l-1.093.054c-.784 1.058-1.559 1.95-2.325 2.68.31.037.894.246 1.75.629l4.485-.328h.3c.292 0 .53.064.712.191.2.128.346.265.437.41.091.146.137.237.137.274a.486.486 0 0 1-.055.219 1.504 1.504 0 0 0-.082.191l-.52 4.238c.329.456.493.775.493.957 0 .11-.055.183-.164.22a5.47 5.47 0 0 1-.575.054l-5.195.246-.027 10.828c0 .146-.046.255-.137.328-.073.091-.182.137-.328.137-.091 0-.255-.046-.492-.137a2.01 2.01 0 0 1-.63-.383.673.673 0 0 1-.273-.547c0-.09.01-.164.028-.218.09-.584.136-1.158.136-1.723l.137-13.098Zm5.55 3.336.138-1.613-4.102.219v1.613l3.965-.219Zm.247-2.789.11-1.394-4.32.273v1.367l4.21-.246Zm-1.176 4.785c0-.145.082-.218.246-.218.274 0 .839.2 1.696.601l4.758-.246h.19c.402 0 .73.082.985.246.274.164.41.347.41.547a.645.645 0 0 1-.082.273 4.247 4.247 0 0 0-.082.22l-.328 4.238c.383.455.574.783.574.984 0 .11-.054.182-.164.219a1.791 1.791 0 0 1-.465.082l-5.687.136.027.575v.054a.364.364 0 0 1-.136.301.407.407 0 0 1-.301.11c-.31 0-.574-.1-.793-.301-.219-.2-.328-.41-.328-.63v-.109c.036-.583.054-1.075.054-1.476v-.465l-.164-3.309a4.856 4.856 0 0 0-.3-1.449c-.073-.182-.11-.31-.11-.383Zm1.914 3.172 4.594-.218.055-1.532-4.703.192.054 1.558Zm.11 2.735 4.347-.11.082-1.695-4.484.191.055 1.614Zm1.367-13.59c0-.164.11-.392.328-.684.492-.674 1.085-1.64 1.777-2.898.693-1.276 1.04-2.252 1.04-2.926v-.219c0-.219.09-.328.273-.328.255 0 .574.128.957.383.4.255.601.474.601.656 0 .037-.237.529-.71 1.477l5.523-.356c.364-.036.674-.1.93-.191a.486.486 0 0 1 .218-.055c.2 0 .456.137.766.41.31.274.465.502.465.684 0 .2-.182.319-.547.355l-5.223.301c.31.237.72.602 1.23 1.094.511.492.766.838.766 1.039 0 .182-.118.374-.355.574-.219.2-.41.301-.574.301-.146 0-.283-.091-.41-.273a13.488 13.488 0 0 0-1.75-1.942c-.183-.182-.274-.328-.274-.437 0-.11.037-.21.11-.301l-1.696.11c-.893 1.294-1.777 2.296-2.652 3.007l-.137.11c-.237.163-.41.245-.52.245-.09 0-.136-.045-.136-.136Zm1.805-.301c0-.146.09-.219.273-.219.31 0 .857.173 1.64.52l5.141-.356h.301c.401 0 .72.1.957.301.237.182.355.365.355.547a.645.645 0 0 1-.081.273.893.893 0 0 0-.055.22L48.05 46.3l.027.984c0 .492-.146.875-.437 1.149-.292.273-.602.41-.93.41-.292 0-.738-.21-1.34-.63a10.72 10.72 0 0 1-1.64-1.339c-.493-.474-.739-.82-.739-1.04 0-.108.064-.163.192-.163.109 0 .328.073.656.219.82.419 1.695.774 2.625 1.066l.027-10.172-4.703.246.027.383v.055a.448.448 0 0 1-.136.328c-.073.091-.183.137-.328.137-.22 0-.483-.1-.793-.301-.292-.219-.438-.456-.438-.711l.027-.191c.037-.547.055-.885.055-1.012v-.383l-.11-3.254c-.036-.456-.163-.948-.382-1.477-.073-.182-.11-.3-.11-.355Zm1.996 2.953 4.922-.246v-1.34l-4.977.301.055 1.285Zm.136 2.598 4.758-.246.028-1.477-4.868.246.082 1.477ZM101.316 32.3c-.127 0-.264-.081-.41-.245a1.656 1.656 0 0 1-.218-.301c-.037-.091-.037-.21 0-.356l.027-.656c.018-.127.027-.437.027-.93v-.902l-.82.383-.957.41a8.42 8.42 0 0 0-.738.328c-.22.11-.41.164-.575.164a1.69 1.69 0 0 1-.437-.136 3.692 3.692 0 0 1-.383-.192c-.2-.127-.292-.264-.273-.41l.082-.273c0-.146.009-.274.027-.383l.027-1.586v-1.477a4.21 4.21 0 0 0-.054-.738 16.688 16.688 0 0 0-.082-.465c0-.091.027-.155.082-.191.018-.018.063-.028.136-.028.128 0 .374.082.739.247.31.145.437.328.382.546a4.654 4.654 0 0 0-.109.575l-.082 3.144c0 .091.01.164.027.219.037.036.073.055.11.055.219 0 .483-.064.793-.192a15.19 15.19 0 0 0 1.504-.547l.601-.246v-1.805c0-.729-.045-1.43-.137-2.105a.613.613 0 0 1-.027-.191c0-.183.073-.274.219-.274.018 0 .118.037.301.11.273.145.474.273.601.382.128.11.201.174.219.192.073.055.109.11.109.164a.268.268 0 0 1-.054.137c-.019.054-.037.1-.055.136l-.082.82-.027 2.516.027 2.434c0 .42-.027.784-.082 1.094-.091.382-.237.574-.438.574Zm-5.03 4.485c-.201 0-.448-.155-.74-.465-.218-.218-.327-.383-.327-.492 0-.055.036-.082.11-.082.072-.018.163-.027.273-.027l.601-.028c.346 0 .574-.009.684-.027.346 0 .638-.01.875-.027 1.567-.146 2.625-.265 3.172-.356.273-.036.519-.073.738-.11.219-.054.392-.081.519-.081.256 0 .511.127.766.383.201.2.301.364.301.492 0 .11-.064.182-.192.219-.091.018-.628.054-1.613.109-.547.018-1.221.064-2.023.137a71.75 71.75 0 0 0-2.106.218l-.465.082c-.2.037-.392.055-.574.055Zm3.663 11.293c-.565 0-1.002-.018-1.312-.055a1.31 1.31 0 0 1-.739-.328c-.346-.255-.583-.81-.71-1.668l-.082-.875c0-.218-.019-.492-.055-.82a4.661 4.661 0 0 0-.63.11 2.9 2.9 0 0 1-.19.081.744.744 0 0 1-.165.028.629.629 0 0 1-.355-.11c-.11-.073-.246-.21-.41-.41-.128-.164-.192-.273-.192-.328 0-.055.064-.091.192-.11.127-.018.3-.027.52-.027.31 0 .71-.036 1.202-.109l-.027-.383c0-.729-.045-1.349-.137-1.86l-.027-.19c0-.256.1-.356.3-.301.22.073.42.164.602.273a.852.852 0 0 1 .301.219c.055.054.073.137.055.246l-.082 1.176v.71l2.406-.245c0-.128.009-.429.027-.903.019-.492.019-.811 0-.957 0-.146-.018-.282-.054-.41a5.77 5.77 0 0 0-.055-.355c0-.146.073-.22.219-.22.146 0 .328.083.547.247.255.164.419.31.492.437.091.128.109.283.055.465-.092.292-.155.62-.192.985-.036.364-.055.583-.055.656.219-.018.42-.046.602-.082.182-.037.301-.055.355-.055.146-.036.319-.054.52-.054.109.018.264.127.465.328.164.218.246.392.246.52 0 .181-.173.254-.52.218a5.323 5.323 0 0 0-.929-.082c-.31 0-.575.009-.793.027a11.714 11.714 0 0 1-.328 1.942.753.753 0 0 1-.192.355c-.091.11-.173.164-.246.164-.127 0-.21-.055-.246-.164a2.737 2.737 0 0 1-.027-.465c.036-.474.054-1.066.054-1.777-.492.036-.875.073-1.148.11-.42.09-.811.145-1.176.163-.018.748.018 1.413.11 1.996.054.383.164.648.328.793.109.091.237.146.383.164.163.019.328.028.492.028h.328c.565 0 1.094-.028 1.586-.082.146-.019.273-.055.383-.11a.82.82 0 0 1 .273-.082c.164 0 .328.055.492.164.164.11.246.237.246.383 0 .146-.082.255-.246.328-.146.073-.383.137-.711.192-.583.073-1.166.11-1.75.11Zm4.293-10.254c.091 0 .228.064.41.192-.018.036.019.109.11.218l.191.192c.091.09.182.2.274.328.109.128.227.264.355.41.328.346 1.085 1.249 2.27 2.707.2.292.3.465.3.52 0 .182-.109.273-.328.273-.127 0-.264-.091-.41-.273-.346-.365-.966-.94-1.859-1.723-.693-.638-1.322-1.13-1.887-1.477-.273-.127-.41-.273-.41-.437 0-.128.137-.31.41-.547.255-.255.447-.383.574-.383Zm-24.5-14c0-.219.11-.328.328-.328.146 0 .365.064.657.192.31.127.583.282.82.464.237.183.355.365.355.547 0 .164-.164.51-.492 1.04a32.492 32.492 0 0 0 5.524 5.55 28.31 28.31 0 0 0 6.535 3.773c.346.146.52.283.52.41 0 .183-.229.447-.684.794-.438.346-.739.52-.903.52-.09 0-.21-.046-.355-.138-2.443-1.312-4.585-2.707-6.426-4.183-1.823-1.477-3.518-3.245-5.086-5.305-1.604 2.48-3.308 4.485-5.113 6.016-1.805 1.531-3.39 2.634-4.758 3.308-1.349.657-2.16.985-2.433.985-.165 0-.247-.055-.247-.164 0-.183.192-.392.575-.63 2.807-1.822 5.04-3.636 6.699-5.44 1.659-1.823 2.816-3.373 3.473-4.65.674-1.293 1.011-2.123 1.011-2.487v-.274ZM70.2 48.242c0-.182.21-.428.63-.738 1.366-1.003 2.424-1.941 3.171-2.816.766-.876 1.303-1.924 1.613-3.145.474-1.841.711-3.865.711-6.07v-.328c0-.402-.127-.812-.383-1.23-.09-.129-.136-.229-.136-.302 0-.146.118-.218.355-.218.347 0 .775.1 1.285.3.51.2.766.438.766.711-.018 1.64-.082 3.044-.192 4.211a21.385 21.385 0 0 1-.628 3.5 7.37 7.37 0 0 1-2.024 3.364c-.966.93-1.96 1.65-2.98 2.16-1.003.51-1.64.765-1.914.765-.183 0-.274-.054-.274-.164Zm12.742-15.066c0-.128.119-.192.356-.192.31 0 .684.082 1.121.246.401.146.665.274.793.383.127.11.191.283.191.52l.028 13.89c0 .237-.055.41-.164.52a.518.518 0 0 1-.41.191c-.128 0-.32-.054-.575-.164a1.884 1.884 0 0 1-.656-.437 1.022 1.022 0 0 1-.273-.711c0-.128.009-.228.027-.3.127-.694.191-1.24.191-1.642v-10.8c0-.237-.045-.447-.136-.63a2.239 2.239 0 0 0-.356-.573.418.418 0 0 1-.137-.301Z"/></svg>