<svg width="135" height="70" viewBox="0 0 135 70" fill="none" xmlns="http://www.w3.org/2000/svg">
<path d="M59.3164 32.3008C59.1888 32.3008 59.0521 32.2188 58.9062 32.0547C58.7969 31.9271 58.724 31.8268 58.6875 31.7539C58.651 31.6628 58.651 31.5443 58.6875 31.3984L58.7148 30.7422C58.7331 30.6146 58.7422 30.3047 58.7422 29.8125V28.9102L57.9219 29.293L56.9648 29.7031C56.7279 29.7943 56.4818 29.9036 56.2266 30.0312C56.0078 30.1406 55.8164 30.1953 55.6523 30.1953C55.5247 30.1771 55.3789 30.1315 55.2148 30.0586C55.0508 29.9857 54.9232 29.9219 54.832 29.8672C54.6315 29.7396 54.5404 29.6029 54.5586 29.457L54.6406 29.1836C54.6406 29.0378 54.6497 28.9102 54.668 28.8008L54.6953 27.2148V25.7383C54.6953 25.4466 54.6771 25.2005 54.6406 25C54.6042 24.7812 54.5768 24.6263 54.5586 24.5352C54.5586 24.444 54.5859 24.3802 54.6406 24.3438C54.6589 24.3255 54.7044 24.3164 54.7773 24.3164C54.9049 24.3164 55.151 24.3984 55.5156 24.5625C55.8255 24.7083 55.9531 24.8906 55.8984 25.1094C55.862 25.237 55.8255 25.4284 55.7891 25.6836L55.707 28.8281C55.707 28.9193 55.7161 28.9922 55.7344 29.0469C55.7708 29.0833 55.8073 29.1016 55.8438 29.1016C56.0625 29.1016 56.3268 29.0378 56.6367 28.9102C57.2201 28.7279 57.7214 28.5456 58.1406 28.3633L58.7422 28.1172V26.3125C58.7422 25.5833 58.6966 24.8815 58.6055 24.207C58.5872 24.1523 58.5781 24.0885 58.5781 24.0156C58.5781 23.8333 58.651 23.7422 58.7969 23.7422C58.8151 23.7422 58.9154 23.7786 59.0977 23.8516C59.3711 23.9974 59.5716 24.125 59.6992 24.2344C59.8268 24.3438 59.8997 24.4076 59.918 24.4258C59.9909 24.4805 60.0273 24.5352 60.0273 24.5898C60.0273 24.6263 60.0091 24.6719 59.9727 24.7266C59.9544 24.7812 59.9362 24.8268 59.918 24.8633L59.8359 25.6836L59.8086 28.1992L59.8359 30.6328C59.8359 31.0521 59.8086 31.4167 59.7539 31.7266C59.6628 32.1094 59.5169 32.3008 59.3164 32.3008ZM54.2852 36.7852C54.0846 36.7852 53.8385 36.6302 53.5469 36.3203C53.3281 36.1016 53.2188 35.9375 53.2188 35.8281C53.2188 35.7734 53.2552 35.7461 53.3281 35.7461C53.401 35.7279 53.4922 35.7188 53.6016 35.7188L54.2031 35.6914C54.5495 35.6914 54.7773 35.6823 54.8867 35.6641C55.2331 35.6641 55.5247 35.6549 55.7617 35.6367C57.3294 35.4909 58.3867 35.3724 58.9336 35.2812C59.207 35.2448 59.4531 35.2083 59.6719 35.1719C59.8906 35.1172 60.0638 35.0898 60.1914 35.0898C60.4466 35.0898 60.7018 35.2174 60.957 35.4727C61.1576 35.6732 61.2578 35.8372 61.2578 35.9648C61.2578 36.0742 61.194 36.1471 61.0664 36.1836C60.9753 36.2018 60.4375 36.2383 59.4531 36.293C58.9062 36.3112 58.2318 36.3568 57.4297 36.4297C56.6276 36.5026 55.9258 36.5755 55.3242 36.6484C55.2148 36.6667 55.0599 36.694 54.8594 36.7305C54.6589 36.7669 54.4674 36.7852 54.2852 36.7852ZM58.3594 42.8828C58.1771 43.1198 57.9857 43.2383 57.7852 43.2383C57.7305 43.2383 57.7031 43.1927 57.7031 43.1016C57.7031 42.974 57.7396 42.8281 57.8125 42.6641C57.8125 42.6641 57.9948 42.2995 58.3594 41.5703C58.3776 41.4974 58.4049 41.4245 58.4414 41.3516C58.4779 41.2786 58.5052 41.2148 58.5234 41.1602V41.1328C58.5234 41.0964 58.4961 41.0599 58.4414 41.0234C58.3867 40.987 58.3229 40.9779 58.25 40.9961C57.9583 41.0143 57.5208 41.0599 56.9375 41.1328C56.3724 41.2057 55.9531 41.2786 55.6797 41.3516C55.5703 41.388 55.4336 41.4336 55.2695 41.4883C55.1237 41.543 55.0052 41.5703 54.9141 41.5703C54.5859 41.5703 54.3125 41.4701 54.0938 41.2695C53.9115 41.1419 53.7747 41.0143 53.6836 40.8867L53.6289 40.75C53.6289 40.6589 53.7839 40.6315 54.0938 40.668C54.513 40.7044 55.3789 40.6497 56.6914 40.5039L57.2383 40.4219C57.3841 40.4036 57.612 40.3763 57.9219 40.3398C58.25 40.2852 58.5052 40.2305 58.6875 40.1758C58.7422 40.1576 58.7969 40.1393 58.8516 40.1211C58.9245 40.0846 58.9883 40.0664 59.043 40.0664C59.1341 40.0664 59.2435 40.112 59.3711 40.2031C59.5169 40.2943 59.6354 40.3763 59.7266 40.4492C59.8542 40.5404 59.9362 40.6224 59.9727 40.6953C60.0273 40.75 60.0456 40.8229 60.0273 40.9141C60.0273 41.0052 59.9818 41.0872 59.8906 41.1602C59.7995 41.2331 59.7357 41.2878 59.6992 41.3242C59.6628 41.3789 59.5352 41.5156 59.3164 41.7344C59.2253 41.8802 59.0612 42.0807 58.8242 42.3359C58.6055 42.5911 58.4505 42.7734 58.3594 42.8828ZM56.9922 48.2695C56.9922 48.2148 57.0833 48.069 57.2656 47.832C57.4661 47.6133 57.6211 47.4401 57.7305 47.3125C58.0039 46.9479 58.332 46.4193 58.7148 45.7266C59.1159 45.0339 59.3438 44.5781 59.3984 44.3594C59.4349 44.25 59.3802 44.1953 59.2344 44.1953C58.9427 44.1953 58.1406 44.2773 56.8281 44.4414C55.9714 44.5508 55.3333 44.6602 54.9141 44.7695C54.8229 44.8242 54.7318 44.8516 54.6406 44.8516C54.4948 44.8516 54.3398 44.7513 54.1758 44.5508C54.1029 44.4232 54.0664 44.3047 54.0664 44.1953C54.0664 44.1224 54.112 44.0495 54.2031 43.9766L54.2852 43.8672C54.3398 43.7578 54.4036 43.612 54.4766 43.4297C54.5495 43.2474 54.6133 43.0742 54.668 42.9102C54.7591 42.6185 54.8229 42.2995 54.8594 41.9531C54.8776 41.7526 54.987 41.6979 55.1875 41.7891C55.4427 41.9167 55.6341 42.0443 55.7617 42.1719C55.9076 42.2812 55.9531 42.3633 55.8984 42.418C55.7161 42.6367 55.5703 42.8828 55.4609 43.1562C55.3698 43.4479 55.3151 43.6393 55.2969 43.7305C55.2969 43.8034 55.3424 43.8398 55.4336 43.8398C55.707 43.8398 56.1172 43.7943 56.6641 43.7031C56.974 43.6667 57.3568 43.6211 57.8125 43.5664C58.2682 43.5117 58.6328 43.457 58.9062 43.4023L59.5898 43.2656C59.6445 43.2474 59.7174 43.2383 59.8086 43.2383C59.8997 43.2383 59.9909 43.2747 60.082 43.3477C60.1732 43.4023 60.2734 43.4753 60.3828 43.5664C60.5651 43.7305 60.6836 43.8672 60.7383 43.9766C60.793 44.0677 60.8203 44.1771 60.8203 44.3047C60.8203 44.3776 60.7656 44.4688 60.6562 44.5781C60.5651 44.6875 60.4557 44.8607 60.3281 45.0977C59.7995 46.1732 59.1159 47.0755 58.2773 47.8047C58.0404 47.987 57.776 48.1419 57.4844 48.2695C57.3568 48.306 57.2383 48.3242 57.1289 48.3242C57.0378 48.3424 56.9922 48.3242 56.9922 48.2695ZM65.8516 37.4414C65.9062 37.4414 65.9609 37.4688 66.0156 37.5234C66.0703 37.5599 66.1068 37.6146 66.125 37.6875V37.7422C66.125 37.8698 66.0247 38.1159 65.8242 38.4805L63.8555 41.8984C63.7096 42.2083 63.5182 42.3633 63.2812 42.3633C63.0443 42.3633 62.8438 42.2174 62.6797 41.9258C62.5156 41.6888 62.3151 41.3333 62.0781 40.8594C61.9688 40.6953 61.8776 40.5312 61.8047 40.3672C61.7318 40.2031 61.6771 40.0846 61.6406 40.0117C61.4401 39.6654 61.3398 39.4193 61.3398 39.2734C61.3398 39.2005 61.3672 39.1458 61.4219 39.1094C61.4766 39.0547 61.5312 39.0273 61.5859 39.0273C61.7865 39.0273 61.9688 39.1367 62.1328 39.3555C62.2604 39.4831 62.3607 39.6198 62.4336 39.7656L62.7344 40.1758L63.2812 40.8047L63.5273 40.4219C63.7826 39.9844 64.3841 39.1185 65.332 37.8242C65.5326 37.569 65.7057 37.4414 65.8516 37.4414ZM29.7852 32.9023C29.7852 32.1003 29.6576 31.4076 29.4023 30.8242L29.3477 30.7148C28.8919 31.1706 28.4362 31.5716 27.9805 31.918C27.5247 32.2461 27.2331 32.4102 27.1055 32.4102C26.9961 32.4102 26.9414 32.3646 26.9414 32.2734C26.9414 32.0911 27.0872 31.8542 27.3789 31.5625C28.2904 30.5781 29.2747 29.293 30.332 27.707C31.3893 26.1029 31.918 24.9818 31.918 24.3438C31.918 24.0703 32.0273 23.9336 32.2461 23.9336C32.4466 23.9336 32.7474 24.0703 33.1484 24.3438C33.5677 24.6172 33.7773 24.8359 33.7773 25C33.7773 25.0547 33.7135 25.1823 33.5859 25.3828C33.4766 25.5651 33.2578 25.9115 32.9297 26.4219L37.2227 26.1211C37.4596 26.1029 37.7786 26.0391 38.1797 25.9297C38.3255 25.875 38.444 25.8477 38.5352 25.8477C38.8086 25.8477 39.082 25.9753 39.3555 26.2305C39.6289 26.4857 39.7656 26.7135 39.7656 26.9141C39.7656 27.1328 39.556 27.2604 39.1367 27.2969L34.1055 27.5977C34.4883 27.9258 34.8893 28.3359 35.3086 28.8281C35.7279 29.3203 35.9375 29.6484 35.9375 29.8125C35.9375 29.9583 35.8099 30.1315 35.5547 30.332C35.3177 30.5326 35.1263 30.6328 34.9805 30.6328C34.8346 30.6328 34.6888 30.5052 34.543 30.25C34.3607 29.9401 34.1237 29.6029 33.832 29.2383C33.5586 28.8737 33.2943 28.5729 33.0391 28.3359C32.9479 28.2083 32.9023 28.1081 32.9023 28.0352C32.9023 27.9258 32.957 27.8073 33.0664 27.6797L31.9727 27.7344C31.1888 28.7917 30.4141 29.6849 29.6484 30.4141C29.9583 30.4505 30.5417 30.6602 31.3984 31.043L35.8828 30.7148H36.1836C36.4753 30.7148 36.7122 30.7786 36.8945 30.9062C37.0951 31.0339 37.2409 31.1706 37.332 31.3164C37.4232 31.4622 37.4688 31.5534 37.4688 31.5898C37.4688 31.6628 37.4505 31.7357 37.4141 31.8086C37.3776 31.8815 37.3503 31.9453 37.332 32L36.8125 36.2383C37.1406 36.694 37.3047 37.013 37.3047 37.1953C37.3047 37.3047 37.25 37.3776 37.1406 37.4141C37.0495 37.4323 36.8581 37.4505 36.5664 37.4688L31.3711 37.7148L31.3438 48.543C31.3438 48.6888 31.2982 48.7982 31.207 48.8711C31.1341 48.9622 31.0247 49.0078 30.8789 49.0078C30.7878 49.0078 30.6237 48.9622 30.3867 48.8711C30.1497 48.7799 29.9401 48.6523 29.7578 48.4883C29.5755 48.3424 29.4844 48.1602 29.4844 47.9414C29.4844 47.8503 29.4935 47.7773 29.5117 47.7227C29.6029 47.1393 29.6484 46.5651 29.6484 46L29.7852 32.9023ZM35.3359 36.2383L35.4727 34.625L31.3711 34.8438V36.457L35.3359 36.2383ZM35.582 33.4492L35.6914 32.0547L31.3711 32.3281V33.6953L35.582 33.4492ZM34.4062 38.2344C34.4062 38.0885 34.4883 38.0156 34.6523 38.0156C34.9258 38.0156 35.4909 38.2161 36.3477 38.6172L41.1055 38.3711H41.2969C41.6979 38.3711 42.026 38.4531 42.2812 38.6172C42.5547 38.7812 42.6914 38.9635 42.6914 39.1641C42.6914 39.237 42.6641 39.3281 42.6094 39.4375C42.5729 39.5286 42.5456 39.6016 42.5273 39.6562L42.1992 43.8945C42.582 44.3503 42.7734 44.6784 42.7734 44.8789C42.7734 44.9883 42.7188 45.0612 42.6094 45.0977C42.5182 45.1341 42.3633 45.1615 42.1445 45.1797L36.457 45.3164L36.4844 45.8906V45.9453C36.4844 46.0729 36.4388 46.1732 36.3477 46.2461C36.2747 46.319 36.1745 46.3555 36.0469 46.3555C35.737 46.3555 35.4727 46.2552 35.2539 46.0547C35.0352 45.8542 34.9258 45.6445 34.9258 45.4258V45.3164C34.9622 44.7331 34.9805 44.2409 34.9805 43.8398V43.375L34.8164 40.0664C34.7799 39.5195 34.6797 39.0365 34.5156 38.6172C34.4427 38.4349 34.4062 38.3073 34.4062 38.2344ZM36.3203 41.4062L40.9141 41.1875L40.9688 39.6562L36.2656 39.8477L36.3203 41.4062ZM36.4297 44.1406L40.7773 44.0312L40.8594 42.3359L36.375 42.5273L36.4297 44.1406ZM37.7969 30.5508C37.7969 30.3867 37.9062 30.1589 38.125 29.8672C38.6172 29.1927 39.2096 28.2266 39.9023 26.9688C40.5951 25.6927 40.9414 24.7174 40.9414 24.043V23.8242C40.9414 23.6055 41.0326 23.4961 41.2148 23.4961C41.4701 23.4961 41.7891 23.6237 42.1719 23.8789C42.5729 24.1341 42.7734 24.3529 42.7734 24.5352C42.7734 24.5716 42.5365 25.0638 42.0625 26.0117L47.5859 25.6562C47.9505 25.6198 48.2604 25.556 48.5156 25.4648C48.5885 25.4284 48.6615 25.4102 48.7344 25.4102C48.9349 25.4102 49.1901 25.5469 49.5 25.8203C49.8099 26.0938 49.9648 26.3216 49.9648 26.5039C49.9648 26.7044 49.7826 26.8229 49.418 26.8594L44.1953 27.1602C44.5052 27.3971 44.9154 27.7617 45.4258 28.2539C45.9362 28.7461 46.1914 29.0924 46.1914 29.293C46.1914 29.4753 46.0729 29.6667 45.8359 29.8672C45.6172 30.0677 45.4258 30.168 45.2617 30.168C45.1159 30.168 44.9792 30.0768 44.8516 29.8945C44.3411 29.2018 43.7578 28.5547 43.1016 27.9531C42.9193 27.7708 42.8281 27.625 42.8281 27.5156C42.8281 27.4062 42.8646 27.306 42.9375 27.2148L41.2422 27.3242C40.349 28.6185 39.4648 29.6211 38.5898 30.332L38.4531 30.4414C38.2161 30.6055 38.043 30.6875 37.9336 30.6875C37.8424 30.6875 37.7969 30.6419 37.7969 30.5508ZM39.6016 30.25C39.6016 30.1042 39.6927 30.0312 39.875 30.0312C40.1849 30.0312 40.7318 30.2044 41.5156 30.5508L46.6562 30.1953H46.957C47.3581 30.1953 47.6771 30.2956 47.9141 30.4961C48.151 30.6784 48.2695 30.8607 48.2695 31.043C48.2695 31.1159 48.2422 31.207 48.1875 31.3164C48.151 31.4258 48.1328 31.4987 48.1328 31.5352L48.0508 46.3008L48.0781 47.2852C48.0781 47.7773 47.9323 48.1602 47.6406 48.4336C47.349 48.707 47.0391 48.8438 46.7109 48.8438C46.4193 48.8438 45.9727 48.6341 45.3711 48.2148C44.7695 47.8138 44.2227 47.3672 43.7305 46.875C43.2383 46.401 42.9922 46.0547 42.9922 45.8359C42.9922 45.7266 43.056 45.6719 43.1836 45.6719C43.293 45.6719 43.5117 45.7448 43.8398 45.8906C44.6602 46.3099 45.5352 46.6654 46.4648 46.957L46.4922 36.7852L41.7891 37.0312L41.8164 37.4141V37.4688C41.8164 37.5964 41.7708 37.7057 41.6797 37.7969C41.6068 37.888 41.4974 37.9336 41.3516 37.9336C41.1328 37.9336 40.8685 37.8333 40.5586 37.6328C40.2669 37.4141 40.1211 37.1771 40.1211 36.9219L40.1484 36.7305C40.1849 36.1836 40.2031 35.8464 40.2031 35.7188V35.3359L40.0938 32.082C40.0573 31.6263 39.9297 31.1341 39.7109 30.6055C39.638 30.4232 39.6016 30.3047 39.6016 30.25ZM41.5977 33.2031L46.5195 32.957V31.6172L41.543 31.918L41.5977 33.2031ZM41.7344 35.8008L46.4922 35.5547L46.5195 34.0781L41.6523 34.3242L41.7344 35.8008Z" fill="#333333"/>
<path d="M101.316 32.3008C101.189 32.3008 101.052 32.2188 100.906 32.0547C100.797 31.9271 100.724 31.8268 100.688 31.7539C100.651 31.6628 100.651 31.5443 100.688 31.3984L100.715 30.7422C100.733 30.6146 100.742 30.3047 100.742 29.8125V28.9102L99.9219 29.293L98.9648 29.7031C98.7279 29.7943 98.4818 29.9036 98.2266 30.0312C98.0078 30.1406 97.8164 30.1953 97.6523 30.1953C97.5247 30.1771 97.3789 30.1315 97.2148 30.0586C97.0508 29.9857 96.9232 29.9219 96.832 29.8672C96.6315 29.7396 96.5404 29.6029 96.5586 29.457L96.6406 29.1836C96.6406 29.0378 96.6497 28.9102 96.668 28.8008L96.6953 27.2148V25.7383C96.6953 25.4466 96.6771 25.2005 96.6406 25C96.6042 24.7812 96.5768 24.6263 96.5586 24.5352C96.5586 24.444 96.5859 24.3802 96.6406 24.3438C96.6589 24.3255 96.7044 24.3164 96.7773 24.3164C96.9049 24.3164 97.151 24.3984 97.5156 24.5625C97.8255 24.7083 97.9531 24.8906 97.8984 25.1094C97.862 25.237 97.8255 25.4284 97.7891 25.6836L97.707 28.8281C97.707 28.9193 97.7161 28.9922 97.7344 29.0469C97.7708 29.0833 97.8073 29.1016 97.8438 29.1016C98.0625 29.1016 98.3268 29.0378 98.6367 28.9102C99.2201 28.7279 99.7214 28.5456 100.141 28.3633L100.742 28.1172V26.3125C100.742 25.5833 100.697 24.8815 100.605 24.207C100.587 24.1523 100.578 24.0885 100.578 24.0156C100.578 23.8333 100.651 23.7422 100.797 23.7422C100.815 23.7422 100.915 23.7786 101.098 23.8516C101.371 23.9974 101.572 24.125 101.699 24.2344C101.827 24.3438 101.9 24.4076 101.918 24.4258C101.991 24.4805 102.027 24.5352 102.027 24.5898C102.027 24.6263 102.009 24.6719 101.973 24.7266C101.954 24.7812 101.936 24.8268 101.918 24.8633L101.836 25.6836L101.809 28.1992L101.836 30.6328C101.836 31.0521 101.809 31.4167 101.754 31.7266C101.663 32.1094 101.517 32.3008 101.316 32.3008ZM96.2852 36.7852C96.0846 36.7852 95.8385 36.6302 95.5469 36.3203C95.3281 36.1016 95.2188 35.9375 95.2188 35.8281C95.2188 35.7734 95.2552 35.7461 95.3281 35.7461C95.401 35.7279 95.4922 35.7188 95.6016 35.7188L96.2031 35.6914C96.5495 35.6914 96.7773 35.6823 96.8867 35.6641C97.2331 35.6641 97.5247 35.6549 97.7617 35.6367C99.3294 35.4909 100.387 35.3724 100.934 35.2812C101.207 35.2448 101.453 35.2083 101.672 35.1719C101.891 35.1172 102.064 35.0898 102.191 35.0898C102.447 35.0898 102.702 35.2174 102.957 35.4727C103.158 35.6732 103.258 35.8372 103.258 35.9648C103.258 36.0742 103.194 36.1471 103.066 36.1836C102.975 36.2018 102.438 36.2383 101.453 36.293C100.906 36.3112 100.232 36.3568 99.4297 36.4297C98.6276 36.5026 97.9258 36.5755 97.3242 36.6484C97.2148 36.6667 97.0599 36.694 96.8594 36.7305C96.6589 36.7669 96.4674 36.7852 96.2852 36.7852ZM99.9492 48.0781C99.3841 48.0781 98.9466 48.0599 98.6367 48.0234C98.3451 47.987 98.099 47.8776 97.8984 47.6953C97.5521 47.4401 97.3151 46.8841 97.1875 46.0273L97.1055 45.1523C97.1055 44.9336 97.0872 44.6602 97.0508 44.332C96.7591 44.3685 96.5495 44.4049 96.4219 44.4414C96.3854 44.4596 96.3216 44.487 96.2305 44.5234C96.1576 44.5417 96.1029 44.5508 96.0664 44.5508C95.9388 44.5508 95.8203 44.5143 95.7109 44.4414C95.6016 44.3685 95.4648 44.2318 95.3008 44.0312C95.1732 43.8672 95.1094 43.7578 95.1094 43.7031C95.1094 43.6484 95.1732 43.612 95.3008 43.5938C95.4284 43.5755 95.6016 43.5664 95.8203 43.5664C96.1302 43.5664 96.5312 43.5299 97.0234 43.457L96.9961 43.0742C96.9961 42.3451 96.9505 41.7253 96.8594 41.2148L96.832 41.0234C96.832 40.7682 96.9323 40.668 97.1328 40.7227C97.3516 40.7956 97.5521 40.8867 97.7344 40.9961C97.8802 41.069 97.9805 41.1419 98.0352 41.2148C98.0898 41.2695 98.1081 41.3516 98.0898 41.4609L98.0078 42.6367V43.3477L100.414 43.1016C100.414 42.974 100.423 42.6732 100.441 42.1992C100.46 41.707 100.46 41.388 100.441 41.2422C100.441 41.0964 100.423 40.9596 100.387 40.832C100.368 40.6862 100.35 40.5677 100.332 40.4766C100.332 40.3307 100.405 40.2578 100.551 40.2578C100.697 40.2578 100.879 40.3398 101.098 40.5039C101.353 40.668 101.517 40.8138 101.59 40.9414C101.681 41.069 101.699 41.224 101.645 41.4062C101.553 41.6979 101.49 42.026 101.453 42.3906C101.417 42.7552 101.398 42.974 101.398 43.0469C101.617 43.0286 101.818 43.0013 102 42.9648C102.182 42.9284 102.301 42.9102 102.355 42.9102C102.501 42.8737 102.674 42.8555 102.875 42.8555C102.984 42.8737 103.139 42.9831 103.34 43.1836C103.504 43.4023 103.586 43.5755 103.586 43.7031C103.586 43.8854 103.413 43.9583 103.066 43.9219C102.757 43.8672 102.447 43.8398 102.137 43.8398C101.827 43.8398 101.562 43.849 101.344 43.8672C101.289 44.5234 101.18 45.1706 101.016 45.8086C100.979 45.9544 100.915 46.0729 100.824 46.1641C100.733 46.2734 100.651 46.3281 100.578 46.3281C100.451 46.3281 100.368 46.2734 100.332 46.1641C100.314 46.0729 100.305 45.918 100.305 45.6992C100.341 45.2253 100.359 44.6328 100.359 43.9219C99.8672 43.9583 99.4844 43.9948 99.2109 44.0312C98.7917 44.1224 98.3997 44.1771 98.0352 44.1953C98.0169 44.9427 98.0534 45.6081 98.1445 46.1914C98.1992 46.5742 98.3086 46.8385 98.4727 46.9844C98.582 47.0755 98.7096 47.1302 98.8555 47.1484C99.0195 47.1667 99.1836 47.1758 99.3477 47.1758C99.5117 47.1758 99.6211 47.1758 99.6758 47.1758C100.241 47.1758 100.77 47.1484 101.262 47.0938C101.408 47.0755 101.535 47.0391 101.645 46.9844C101.772 46.9297 101.863 46.9023 101.918 46.9023C102.082 46.9023 102.246 46.957 102.41 47.0664C102.574 47.1758 102.656 47.3034 102.656 47.4492C102.656 47.5951 102.574 47.7044 102.41 47.7773C102.264 47.8503 102.027 47.9141 101.699 47.9688C101.116 48.0417 100.533 48.0781 99.9492 48.0781ZM104.242 37.8242C104.333 37.8242 104.47 37.888 104.652 38.0156C104.634 38.0521 104.671 38.125 104.762 38.2344C104.853 38.3255 104.917 38.3893 104.953 38.4258C105.044 38.5169 105.135 38.6263 105.227 38.7539C105.336 38.8815 105.454 39.0182 105.582 39.1641C105.91 39.5104 106.667 40.4128 107.852 41.8711C108.052 42.1628 108.152 42.3359 108.152 42.3906C108.152 42.5729 108.043 42.6641 107.824 42.6641C107.697 42.6641 107.56 42.5729 107.414 42.3906C107.068 42.026 106.448 41.4518 105.555 40.668C104.862 40.0299 104.233 39.5378 103.668 39.1914C103.395 39.0638 103.258 38.918 103.258 38.7539C103.258 38.6263 103.395 38.444 103.668 38.207C103.923 37.9518 104.115 37.8242 104.242 37.8242ZM79.7422 23.8242C79.7422 23.6055 79.8516 23.4961 80.0703 23.4961C80.2161 23.4961 80.4349 23.5599 80.7266 23.6875C81.0365 23.8151 81.3099 23.9701 81.5469 24.1523C81.7839 24.3346 81.9023 24.5169 81.9023 24.6992C81.9023 24.8633 81.7383 25.2096 81.4102 25.7383C83.069 27.8529 84.9102 29.7031 86.9336 31.2891C88.9753 32.8568 91.1536 34.1146 93.4688 35.0625C93.8151 35.2083 93.9883 35.3451 93.9883 35.4727C93.9883 35.6549 93.7604 35.9193 93.3047 36.2656C92.8672 36.612 92.5664 36.7852 92.4023 36.7852C92.3112 36.7852 92.1927 36.7396 92.0469 36.6484C89.6042 35.3359 87.4622 33.9414 85.6211 32.4648C83.7982 30.9883 82.1029 29.2201 80.5352 27.1602C78.931 29.6393 77.2266 31.6445 75.4219 33.1758C73.6172 34.707 72.0312 35.8099 70.6641 36.4844C69.3151 37.1406 68.5039 37.4688 68.2305 37.4688C68.0664 37.4688 67.9844 37.4141 67.9844 37.3047C67.9844 37.1224 68.1758 36.9128 68.5586 36.6758C71.3659 34.8529 73.599 33.0391 75.2578 31.2344C76.9167 29.4115 78.0742 27.862 78.7305 26.5859C79.4049 25.2917 79.7422 24.4622 79.7422 24.0977V23.8242ZM70.1992 48.2422C70.1992 48.0599 70.4089 47.8138 70.8281 47.5039C72.1953 46.5013 73.2526 45.5625 74 44.6875C74.7656 43.8125 75.3034 42.7643 75.6133 41.543C76.0872 39.7018 76.3242 37.6784 76.3242 35.4727V35.1445C76.3242 34.7435 76.1966 34.3333 75.9414 33.9141C75.8503 33.7865 75.8047 33.6862 75.8047 33.6133C75.8047 33.4674 75.9232 33.3945 76.1602 33.3945C76.5065 33.3945 76.9349 33.4948 77.4453 33.6953C77.9557 33.8958 78.2109 34.1328 78.2109 34.4062C78.1927 36.0469 78.1289 37.4505 78.0195 38.6172C77.9102 39.7839 77.7005 40.9505 77.3906 42.1172C77.026 43.4115 76.3516 44.5326 75.3672 45.4805C74.401 46.4102 73.4076 47.1302 72.3867 47.6406C71.3841 48.151 70.7461 48.4062 70.4727 48.4062C70.2904 48.4062 70.1992 48.3516 70.1992 48.2422ZM82.9414 33.1758C82.9414 33.0482 83.0599 32.9844 83.2969 32.9844C83.6068 32.9844 83.9805 33.0664 84.418 33.2305C84.819 33.3763 85.0833 33.5039 85.2109 33.6133C85.3385 33.7227 85.4023 33.8958 85.4023 34.1328L85.4297 48.0234C85.4297 48.2604 85.375 48.4336 85.2656 48.543C85.1562 48.6706 85.0195 48.7344 84.8555 48.7344C84.7279 48.7344 84.5365 48.6797 84.2812 48.5703C84.0443 48.4792 83.8255 48.3333 83.625 48.1328C83.4427 47.9323 83.3516 47.6953 83.3516 47.4219C83.3516 47.2943 83.3607 47.194 83.3789 47.1211C83.5065 46.4284 83.5703 45.8815 83.5703 45.4805V34.6797C83.5703 34.4427 83.5247 34.2331 83.4336 34.0508C83.3607 33.8685 83.2422 33.6771 83.0781 33.4766C82.987 33.3854 82.9414 33.2852 82.9414 33.1758Z" fill="#333333"/>
</svg>
