<svg xmlns="http://www.w3.org/2000/svg" width="135" height="70" fill="none"><path fill="#333" d="M57.21 35.227c-.108 0-.254-.119-.437-.356-.182-.255-.264-.474-.246-.656.037-.146.064-.556.082-1.23.019-.456.028-1.258.028-2.407 0-.802-.01-1.34-.028-1.613l-.902.082c-.638.091-1.185.137-1.64.137-.128 0-.31-.1-.547-.301-.237-.2-.356-.346-.356-.438 0-.146.155-.2.465-.164.2.018.793.01 1.777-.027a89.437 89.437 0 0 1 2.926-.164c.31-.018.593-.046.848-.082.273-.055.465-.091.574-.11.164-.018.31 0 .437.055.128.055.246.128.356.219.128.073.228.127.3.164.165.11.247.21.247.3 0 .074-.046.147-.137.22a.4.4 0 0 1-.246.081 3.71 3.71 0 0 1-.383-.027 3.982 3.982 0 0 0-.492-.027c-.675 0-1.367.018-2.078.055-.018.145-.028.51-.028 1.093-.036.985-.054 1.95-.054 2.899v1.312c0 .31-.028.51-.082.602-.164.255-.292.383-.383.383Zm-2.925 6.48c-.2 0-.446-.155-.738-.465-.219-.219-.328-.383-.328-.492 0-.055.036-.082.11-.082.072-.018.163-.027.273-.027l.601-.028c.346 0 .574-.009.684-.027.346 0 .638-.01.875-.027 1.567-.146 2.625-.265 3.172-.356.273-.036.52-.073.738-.11.219-.054.392-.081.52-.081.255 0 .51.127.765.383.2.2.3.364.3.492 0 .11-.063.182-.19.218-.092.019-.63.055-1.614.11-.547.018-1.221.064-2.023.137a71.75 71.75 0 0 0-2.106.218l-.465.082a3.21 3.21 0 0 1-.574.055Zm11.457-9.078c.219 0 .328.1.328.3 0 .11-.1.265-.3.465-.547.675-1.632 1.96-3.254 3.856-.128.164-.246.246-.356.246-.091 0-.291-.137-.601-.41-.256-.219-.383-.401-.383-.547 0-.164.136-.319.41-.465.42-.237 1.048-.71 1.887-1.422.838-.747 1.458-1.34 1.859-1.777.164-.164.3-.246.41-.246Zm-31.5 15.504v.082a.518.518 0 0 1-.136.383c-.073.09-.192.136-.356.136-.255 0-.547-.09-.875-.273-.31-.164-.465-.383-.465-.656v-.164a9.38 9.38 0 0 0 .055-.711l-.028-.52-.355-6.617a4.816 4.816 0 0 0-.137-.848c-.054-.31-.11-.528-.164-.656-.146-.292-.218-.501-.218-.629 0-.11.063-.164.19-.164.238 0 .885.191 1.942.574l2.735-.11c.601-.655 1.057-1.202 1.367-1.64.31-.437.483-.847.52-1.23.036-.292.109-.438.218-.438.11 0 .283.091.52.274.237.182.446.392.629.629.2.237.3.437.3.601 0 .11-.082.255-.246.438-.164.182-.61.601-1.34 1.258l6.125-.301h.274c.31 0 .601.118.875.355.273.219.41.447.41.684 0 .091-.036.2-.11.328-.072.128-.109.21-.109.246l-.656 6.672c.42.565.629.975.629 1.23 0 .164-.064.265-.191.301a1.66 1.66 0 0 1-.493.055l-10.937.191.027.52ZM27.57 33.859c0-.109.119-.173.356-.191.802-.055 1.896-.346 3.281-.875a40.187 40.187 0 0 0 3.61-1.559c.328-.164.583-.246.765-.246.146 0 .219.046.219.137 0 .237-.474.693-1.422 1.367a31.033 31.033 0 0 1-3.063 1.86c-1.093.583-1.832.875-2.214.875-.292 0-.62-.164-.985-.493-.364-.346-.547-.638-.547-.875Zm.301-7.683c0-.146.064-.219.192-.219l.109.027c.273.055.583.082.93.082l.628-.027 6.891-.52h.164c.2 0 .429.092.684.274.273.182.41.41.41.684a.956.956 0 0 1-.055.3c-.018.11-.027.21-.027.301l-.219 7.082v.164l.027.957c0 .347-.118.638-.355.875a1.07 1.07 0 0 1-.82.356c-.183 0-.401-.055-.657-.164a23.386 23.386 0 0 1-2.27-1.203c-.637-.42-.956-.739-.956-.958 0-.127.11-.19.328-.19.2 0 .41.036.629.108.784.256 1.577.438 2.379.547l.219-7.547-6.07.465c-.292.037-.511.055-.657.055-.492 0-.866-.155-1.121-.465-.255-.328-.383-.656-.383-.984Zm1.86 2.734c0-.182.072-.392.218-.629.146-.237.301-.355.465-.355.073 0 .447.164 1.121.492.693.328 1.322.674 1.887 1.039.565.365.848.656.848.875 0 .146-.1.365-.301.656-.183.274-.374.41-.575.41-.145 0-.346-.1-.601-.3-.693-.547-1.577-1.121-2.652-1.723a4.983 4.983 0 0 1-.328-.219.4.4 0 0 1-.082-.246Zm4.156 13.207 9.953-.383.191-2.597-10.281.492.137 2.488Zm.246 3.965 9.379-.219.218-2.652-9.761.383.164 2.488Zm3.992-13.043c0-.091.091-.146.273-.164.657-.036 1.687-.31 3.09-.82 1.422-.51 2.616-1.003 3.582-1.477.383-.2.693-.3.93-.3.146 0 .219.045.219.136 0 .237-.474.684-1.422 1.34a33.742 33.742 0 0 1-3.008 1.832c-1.075.583-1.75.875-2.023.875-.256 0-.51-.091-.766-.273-.237-.201-.447-.42-.629-.657-.164-.255-.246-.419-.246-.492Zm.328-7.574c0-.146.064-.219.191-.219l.11.027c.273.073.629.11 1.066.11l.63-.027 6.808-.465h.11c.236 0 .491.063.765.191.273.11.41.328.41.656 0 .11-.018.228-.055.356-.018.11-.027.218-.027.328l-.492 8.148v.63c0 .346-.019.61-.055.792-.036.183-.146.365-.328.547-.292.292-.556.438-.793.438-.219 0-.702-.183-1.45-.547a16.95 16.95 0 0 1-2.05-1.23c-.62-.438-.93-.766-.93-.985 0-.11.091-.164.274-.164.164 0 .465.073.902.218.82.274 1.732.51 2.734.712l.465-8.56-5.96.466a7.655 7.655 0 0 1-.821.054c-.401 0-.674-.072-.82-.218-.328-.365-.547-.739-.657-1.121l-.027-.137Zm1.094 2.734c0-.2.082-.392.246-.574.164-.2.328-.3.492-.3.164 0 .602.2 1.313.6.729.402 1.449.83 2.16 1.286.31.2.465.41.465.629 0 .2-.091.437-.274.71-.164.256-.337.384-.52.384-.163 0-.346-.092-.546-.274-.638-.529-1.604-1.166-2.899-1.914-.291-.182-.437-.364-.437-.547ZM102.355 34.871a.581.581 0 0 1-.355-.273.945.945 0 0 1-.137-.22 1.043 1.043 0 0 0-.109-.273l-.137-.3-1.723.218-.656.11c-.164.018-.537.082-1.12.191-.238.037-.493.11-.766.219a.712.712 0 0 0-.192.11c-.073.054-.137.081-.191.081h-.219c-.182 0-.383-.118-.602-.355a1.235 1.235 0 0 0-.218-.219c-.073-.091-.11-.155-.11-.191 0-.146.064-.283.192-.41.273-.274.656-.83 1.148-1.668.182-.256.401-.63.656-1.121.256-.493.456-.903.602-1.23-.018.054.082-.192.3-.74.165-.455.247-.747.247-.874.036-.2.1-.301.191-.301.073 0 .228.1.465.3.2.165.356.329.465.493.128.164.191.292.191.383a.34.34 0 0 1-.054.191.956.956 0 0 1-.192.192 3.234 3.234 0 0 0-.273.328c-.237.31-.529.784-.875 1.422l-.547.957-.41.683-.301.52-.191.3a.116.116 0 0 0 0 .11c.018.018.045.027.082.027l1.394-.164 2.516-.273-.219-.575c-.091-.255-.2-.537-.328-.847-.018-.018-.027-.055-.027-.11 0-.054.027-.082.082-.082.091 0 .2.055.328.165.146.09.364.282.656.574.219.182.401.392.547.629.164.237.264.373.301.41.164.237.246.465.246.683 0 .11-.037.292-.11.547-.054.146-.127.246-.218.301-.073.055-.183.082-.329.082Zm-.191 9.57c-.273 0-.538-.2-.793-.601a8.644 8.644 0 0 0-.957-1.258l-.71-.738c-.384.437-.72.784-1.013 1.039-.273.255-.62.501-1.039.738-.784.456-1.44.684-1.968.684-.128 0-.192-.046-.192-.137 0-.055.173-.173.52-.355.346-.183.674-.402.984-.657.784-.656 1.431-1.33 1.942-2.023-.11-.11-.657-.584-1.641-1.422a9.311 9.311 0 0 1-.574-.465 7.212 7.212 0 0 1-.329-.246c-.163-.128-.246-.219-.246-.273 0-.092.046-.137.137-.137.274 0 .711.191 1.313.574.601.365 1.23.802 1.886 1.313.256-.31.456-.602.602-.875.146-.274.31-.611.492-1.012.091-.2.146-.374.164-.52.018-.164.028-.264.028-.3 0-.201.054-.301.164-.301.127 0 .3.1.519.3.383.365.574.611.574.739 0 .073-.045.155-.136.246-.219.219-.42.51-.602.875-.109.219-.31.529-.601.93-.092.109-.165.21-.219.3-.055.091-.11.174-.164.246.419.31 1.039.839 1.859 1.586.201.183.328.356.383.52.073.146.109.346.109.602a.78.78 0 0 1-.136.464.443.443 0 0 1-.356.164Zm5.578-11.812c.219 0 .328.1.328.3 0 .11-.1.265-.3.465-.547.675-1.632 1.96-3.254 3.856-.128.164-.246.246-.356.246-.091 0-.292-.137-.601-.41-.256-.219-.383-.401-.383-.547 0-.164.136-.319.41-.465.419-.237 1.048-.71 1.887-1.422.838-.747 1.458-1.34 1.859-1.777.164-.164.301-.246.41-.246ZM81.246 47.723v.109c0 .383-.146.574-.437.574-.42-.054-.775-.173-1.067-.355-.291-.183-.437-.42-.437-.711l.027-.219c.055-.273.082-.574.082-.902 0-.274-.01-.492-.027-.657l-.301-4.703c-.037-.638-.146-1.166-.328-1.586-.091-.182-.137-.328-.137-.437 0-.128.091-.191.273-.191.347 0 .985.164 1.915.492l6.89-.274.356-.027c.273 0 .51.073.71.219.201.145.356.31.466.492.109.164.163.282.163.355 0 .073-.036.173-.109.301a.828.828 0 0 0-.082.274l-.656 4.757c.42.547.629.94.629 1.176 0 .128-.064.21-.192.246-.109.055-.282.082-.52.082l-7.273.137.055.848ZM67.766 37.66c0-.2.118-.456.355-.765a33.076 33.076 0 0 0 3.063-4.649c.93-1.713 1.668-3.281 2.214-4.703.547-1.44.82-2.415.82-2.926 0-.164-.008-.291-.027-.383l-.027-.109c0-.164.1-.246.3-.246.293 0 .666.137 1.122.41.456.255.683.501.683.738a.68.68 0 0 1-.082.301 44.666 44.666 0 0 1-2.624 5.633l-.028 16.898c0 .347-.173.52-.52.52-.255 0-.546-.11-.874-.328-.329-.219-.493-.492-.493-.82 0-.11.01-.192.028-.247.09-.51.136-1.002.136-1.476l.137-11.977a33.815 33.815 0 0 1-2.324 2.953c-.82.912-1.385 1.368-1.695 1.368-.11 0-.164-.064-.164-.192Zm6.289 3.856c0-.164.155-.392.464-.684 1.842-1.64 3.418-3.3 4.731-4.977a35.237 35.237 0 0 0 3.527-5.523c.146-.255.22-.583.22-.984 0-.146-.01-.246-.028-.301a.827.827 0 0 1-.028-.246c0-.2.092-.301.274-.301.291 0 .693.191 1.203.574.529.365.793.647.793.848 0 .055-.1.255-.3.601-.201.329-.338.547-.411.657a44.495 44.495 0 0 0 4.184 4.457 44.023 44.023 0 0 0 4.949 3.883c.2.145.3.264.3.355 0 .164-.209.383-.628.656-.42.274-.693.41-.82.41-.201 0-.794-.419-1.778-1.257-.984-.857-2.124-1.933-3.418-3.227a70.776 70.776 0 0 1-3.61-3.938c-1.257 1.915-2.56 3.564-3.91 4.95-1.348 1.367-2.542 2.415-3.582 3.144-1.02.711-1.668 1.067-1.94 1.067-.129 0-.192-.055-.192-.164Zm1.722-8.723c0-.219.137-.474.41-.766a27.08 27.08 0 0 0 2.106-2.761c.601-.93 1.066-1.741 1.394-2.434.329-.693.493-1.176.493-1.45v-.19c0-.11.018-.192.054-.247.037-.054.11-.082.22-.082.145 0 .355.073.628.219a2.9 2.9 0 0 1 .738.492c.22.2.328.383.328.547 0 .073-.009.128-.027.164a21.111 21.111 0 0 1-2.406 3.5c-.875 1.003-1.668 1.787-2.38 2.352-.71.547-1.175.82-1.394.82-.109 0-.164-.055-.164-.164Zm5.305 12.55 5.77-.136.464-4.758-6.535.246.301 4.649Zm3.992-19.769c0-.164.091-.346.274-.547.2-.2.4-.3.601-.3.146 0 .292.072.438.218a89.838 89.838 0 0 1 3.39 3.473c1.185 1.276 1.778 2.05 1.778 2.324 0 .219-.128.465-.383.738-.255.256-.492.383-.711.383-.182 0-.355-.118-.52-.355-1.33-1.805-2.88-3.646-4.648-5.524-.146-.182-.219-.319-.219-.41Z"/></svg>