<svg width="135" height="70" viewBox="0 0 135 70" fill="none" xmlns="http://www.w3.org/2000/svg">
<path d="M57.2109 35.2266C57.1016 35.2266 56.9557 35.1081 56.7734 34.8711C56.5911 34.6159 56.5091 34.3971 56.5273 34.2148C56.5638 34.069 56.5911 33.6589 56.6094 32.9844C56.6276 32.5286 56.6367 31.7266 56.6367 30.5781C56.6367 29.776 56.6276 29.2383 56.6094 28.9648L55.707 29.0469C55.069 29.138 54.5221 29.1836 54.0664 29.1836C53.9388 29.1836 53.7565 29.0833 53.5195 28.8828C53.2826 28.6823 53.1641 28.5365 53.1641 28.4453C53.1641 28.2995 53.319 28.2448 53.6289 28.2812C53.8294 28.2995 54.4219 28.2904 55.4062 28.2539C56.7552 28.1628 57.7305 28.1081 58.332 28.0898C58.6419 28.0716 58.9245 28.0443 59.1797 28.0078C59.4531 27.9531 59.6445 27.9167 59.7539 27.8984C59.918 27.8802 60.0638 27.8984 60.1914 27.9531C60.319 28.0078 60.4375 28.0807 60.5469 28.1719C60.6745 28.2448 60.7747 28.2995 60.8477 28.3359C61.0117 28.4453 61.0938 28.5456 61.0938 28.6367C61.0938 28.7096 61.0482 28.7826 60.957 28.8555C60.8841 28.9102 60.8021 28.9375 60.7109 28.9375C60.6198 28.9375 60.4922 28.9284 60.3281 28.9102C60.1823 28.8919 60.0182 28.8828 59.8359 28.8828C59.1615 28.8828 58.4688 28.901 57.7578 28.9375C57.7396 29.0833 57.7305 29.4479 57.7305 30.0312C57.694 31.0156 57.6758 31.9818 57.6758 32.9297V33.9961V34.2422C57.6758 34.5521 57.6484 34.7526 57.5938 34.8438C57.4297 35.099 57.3021 35.2266 57.2109 35.2266ZM54.2852 41.707C54.0846 41.707 53.8385 41.5521 53.5469 41.2422C53.3281 41.0234 53.2188 40.8594 53.2188 40.75C53.2188 40.6953 53.2552 40.668 53.3281 40.668C53.401 40.6497 53.4922 40.6406 53.6016 40.6406L54.2031 40.6133C54.5495 40.6133 54.7773 40.6042 54.8867 40.5859C55.2331 40.5859 55.5247 40.5768 55.7617 40.5586C57.3294 40.4128 58.3867 40.2943 58.9336 40.2031C59.207 40.1667 59.4531 40.1302 59.6719 40.0938C59.8906 40.0391 60.0638 40.0117 60.1914 40.0117C60.4466 40.0117 60.7018 40.1393 60.957 40.3945C61.1576 40.5951 61.2578 40.7591 61.2578 40.8867C61.2578 40.9961 61.194 41.069 61.0664 41.1055C60.9753 41.1237 60.4375 41.1602 59.4531 41.2148C58.9062 41.2331 58.2318 41.2786 57.4297 41.3516C56.6276 41.4245 55.9258 41.4974 55.3242 41.5703C55.2148 41.5885 55.0599 41.6159 54.8594 41.6523C54.6589 41.6888 54.4674 41.707 54.2852 41.707ZM65.7422 32.6289C65.9609 32.6289 66.0703 32.7292 66.0703 32.9297C66.0703 33.0391 65.9701 33.194 65.7695 33.3945C65.2227 34.069 64.138 35.3542 62.5156 37.25C62.388 37.4141 62.2695 37.4961 62.1602 37.4961C62.069 37.4961 61.8685 37.3594 61.5586 37.0859C61.3034 36.8672 61.1758 36.6849 61.1758 36.5391C61.1758 36.375 61.3125 36.2201 61.5859 36.0742C62.0052 35.8372 62.6341 35.3633 63.4727 34.6523C64.3112 33.9049 64.931 33.3125 65.332 32.875C65.4961 32.7109 65.6328 32.6289 65.7422 32.6289ZM34.2422 48.1328V48.2148C34.2422 48.3789 34.1966 48.5065 34.1055 48.5977C34.0326 48.6888 33.9141 48.7344 33.75 48.7344C33.4948 48.7344 33.2031 48.6432 32.875 48.4609C32.5651 48.2969 32.4102 48.0781 32.4102 47.8047V47.6406C32.4466 47.276 32.4648 47.0391 32.4648 46.9297L32.4375 46.4102L32.082 39.793C32.0638 39.5195 32.0182 39.237 31.9453 38.9453C31.8906 38.6354 31.8359 38.4167 31.7812 38.2891C31.6354 37.9974 31.5625 37.7878 31.5625 37.6602C31.5625 37.5508 31.6263 37.4961 31.7539 37.4961C31.9909 37.4961 32.638 37.6875 33.6953 38.0703L36.4297 37.9609C37.0312 37.3047 37.487 36.7578 37.7969 36.3203C38.1068 35.8828 38.2799 35.4727 38.3164 35.0898C38.3529 34.7982 38.4258 34.6523 38.5352 34.6523C38.6445 34.6523 38.8177 34.7435 39.0547 34.9258C39.2917 35.1081 39.5013 35.3177 39.6836 35.5547C39.8841 35.7917 39.9844 35.9922 39.9844 36.1562C39.9844 36.2656 39.9023 36.4115 39.7383 36.5938C39.5742 36.776 39.1276 37.1953 38.3984 37.8516L44.5234 37.5508H44.7969C45.1068 37.5508 45.3984 37.6693 45.6719 37.9062C45.9453 38.125 46.082 38.3529 46.082 38.5898C46.082 38.681 46.0456 38.7904 45.9727 38.918C45.8997 39.0456 45.8633 39.1276 45.8633 39.1641L45.207 45.8359C45.6263 46.401 45.8359 46.8112 45.8359 47.0664C45.8359 47.2305 45.7721 47.3307 45.6445 47.3672C45.5352 47.4036 45.3711 47.4219 45.1523 47.4219L34.2148 47.6133L34.2422 48.1328ZM27.5703 33.8594C27.5703 33.75 27.6888 33.6862 27.9258 33.668C28.7279 33.6133 29.8216 33.3216 31.207 32.793C32.5924 32.2643 33.7956 31.7448 34.8164 31.2344C35.1445 31.0703 35.3997 30.9883 35.582 30.9883C35.7279 30.9883 35.8008 31.0339 35.8008 31.125C35.8008 31.362 35.3268 31.8177 34.3789 32.4922C33.431 33.1484 32.4102 33.7682 31.3164 34.3516C30.2227 34.9349 29.4844 35.2266 29.1016 35.2266C28.8099 35.2266 28.4818 35.0625 28.1172 34.7344C27.7526 34.388 27.5703 34.0964 27.5703 33.8594ZM27.8711 26.1758C27.8711 26.0299 27.9349 25.957 28.0625 25.957L28.1719 25.9844C28.4453 26.0391 28.7552 26.0664 29.1016 26.0664L29.7305 26.0391L36.6211 25.5195H36.7852C36.9857 25.5195 37.2135 25.6107 37.4688 25.793C37.7422 25.9753 37.8789 26.2031 37.8789 26.4766C37.8789 26.5677 37.8607 26.668 37.8242 26.7773C37.806 26.8867 37.7969 26.987 37.7969 27.0781L37.5781 34.1602V34.3242L37.6055 35.2812C37.6055 35.6276 37.487 35.9193 37.25 36.1562C37.0312 36.3932 36.7578 36.5117 36.4297 36.5117C36.2474 36.5117 36.0286 36.457 35.7734 36.3477C34.9167 35.9466 34.1602 35.5456 33.5039 35.1445C32.8659 34.7253 32.5469 34.4062 32.5469 34.1875C32.5469 34.0599 32.6562 33.9961 32.875 33.9961C33.0755 33.9961 33.2852 34.0326 33.5039 34.1055C34.2878 34.3607 35.0807 34.543 35.8828 34.6523L36.1016 27.1055L30.0312 27.5703C29.7396 27.6068 29.5208 27.625 29.375 27.625C28.8828 27.625 28.5091 27.4701 28.2539 27.1602C27.9987 26.832 27.8711 26.5039 27.8711 26.1758ZM29.7305 28.9102C29.7305 28.7279 29.8034 28.5182 29.9492 28.2812C30.0951 28.0443 30.25 27.9258 30.4141 27.9258C30.487 27.9258 30.8607 28.0898 31.5352 28.418C32.2279 28.7461 32.8568 29.0924 33.4219 29.457C33.987 29.8216 34.2695 30.1133 34.2695 30.332C34.2695 30.4779 34.1693 30.6966 33.9688 30.9883C33.7865 31.2617 33.5951 31.3984 33.3945 31.3984C33.2487 31.3984 33.0482 31.2982 32.793 31.0977C32.1003 30.5508 31.2161 29.9766 30.1406 29.375C29.9948 29.2839 29.8854 29.2109 29.8125 29.1562C29.7578 29.0833 29.7305 29.0013 29.7305 28.9102ZM33.8867 42.1172L43.8398 41.7344L44.0312 39.1367L33.75 39.6289L33.8867 42.1172ZM34.1328 46.082L43.5117 45.8633L43.7305 43.2109L33.9688 43.5938L34.1328 46.082ZM38.125 33.0391C38.125 32.9479 38.2161 32.8932 38.3984 32.875C39.0547 32.8385 40.0846 32.5651 41.4883 32.0547C42.9102 31.5443 44.1042 31.0521 45.0703 30.5781C45.4531 30.3776 45.763 30.2773 46 30.2773C46.1458 30.2773 46.2188 30.3229 46.2188 30.4141C46.2188 30.651 45.7448 31.0977 44.7969 31.7539C43.8672 32.3919 42.8646 33.0026 41.7891 33.5859C40.7135 34.1693 40.0391 34.4609 39.7656 34.4609C39.5104 34.4609 39.2552 34.3698 39 34.1875C38.763 33.987 38.5534 33.7682 38.3711 33.5312C38.207 33.276 38.125 33.112 38.125 33.0391ZM38.4531 25.4648C38.4531 25.319 38.5169 25.2461 38.6445 25.2461L38.7539 25.2734C39.0273 25.3464 39.3828 25.3828 39.8203 25.3828L40.4492 25.3555L47.2578 24.8906H47.3672C47.6042 24.8906 47.8594 24.9544 48.1328 25.082C48.4062 25.1914 48.543 25.4102 48.543 25.7383C48.543 25.8477 48.5247 25.9661 48.4883 26.0938C48.4701 26.2031 48.4609 26.3125 48.4609 26.4219L47.9688 34.5703V35.1992C47.9688 35.5456 47.9505 35.8099 47.9141 35.9922C47.8776 36.1745 47.7682 36.3568 47.5859 36.5391C47.2943 36.8307 47.0299 36.9766 46.793 36.9766C46.5742 36.9766 46.0911 36.7943 45.3438 36.4297C44.5964 36.0469 43.9128 35.6367 43.293 35.1992C42.6732 34.7617 42.3633 34.4336 42.3633 34.2148C42.3633 34.1055 42.4544 34.0508 42.6367 34.0508C42.8008 34.0508 43.1016 34.1237 43.5391 34.2695C44.3594 34.543 45.2708 34.7799 46.2734 34.9805L46.7383 26.4219L40.7773 26.8867C40.4492 26.9232 40.1758 26.9414 39.957 26.9414C39.556 26.9414 39.2826 26.8685 39.1367 26.7227C38.8086 26.3581 38.5898 25.9844 38.4805 25.6016L38.4531 25.4648ZM39.5469 28.1992C39.5469 27.9987 39.6289 27.8073 39.793 27.625C39.957 27.4245 40.1211 27.3242 40.2852 27.3242C40.4492 27.3242 40.8867 27.5247 41.5977 27.9258C42.3268 28.3268 43.0469 28.7552 43.7578 29.2109C44.0677 29.4115 44.2227 29.6211 44.2227 29.8398C44.2227 30.0404 44.1315 30.2773 43.9492 30.5508C43.7852 30.806 43.612 30.9336 43.4297 30.9336C43.2656 30.9336 43.0833 30.8424 42.8828 30.6602C42.2448 30.1315 41.2786 29.4935 39.9844 28.7461C39.6927 28.5638 39.5469 28.3815 39.5469 28.1992Z" fill="#333333"/>
<path d="M102.355 34.8711C102.21 34.8346 102.091 34.7435 102 34.5977C101.964 34.5612 101.918 34.4883 101.863 34.3789C101.827 34.2513 101.79 34.1602 101.754 34.1055L101.617 33.8047L99.8945 34.0234L99.2383 34.1328C99.0742 34.151 98.7005 34.2148 98.1172 34.3242C97.8802 34.3607 97.625 34.4336 97.3516 34.543C97.2969 34.5612 97.2331 34.5977 97.1602 34.6523C97.0872 34.707 97.0234 34.7344 96.9688 34.7344H96.75C96.5677 34.7344 96.3672 34.6159 96.1484 34.3789C96.0938 34.306 96.0208 34.2331 95.9297 34.1602C95.8568 34.069 95.8203 34.0052 95.8203 33.9688C95.8203 33.8229 95.8841 33.6862 96.0117 33.5586C96.2852 33.2852 96.668 32.7292 97.1602 31.8906C97.3424 31.6354 97.5612 31.2617 97.8164 30.7695C98.0716 30.2773 98.2721 29.8672 98.418 29.5391C98.3997 29.5938 98.5 29.3477 98.7188 28.8008C98.8828 28.3451 98.9648 28.0534 98.9648 27.9258C99.0013 27.7253 99.0651 27.625 99.1562 27.625C99.2292 27.625 99.3841 27.7253 99.6211 27.9258C99.8216 28.0898 99.9766 28.2539 100.086 28.418C100.214 28.582 100.277 28.7096 100.277 28.8008C100.277 28.8737 100.259 28.9375 100.223 28.9922C100.186 29.0469 100.122 29.1107 100.031 29.1836C99.9583 29.2565 99.8672 29.3659 99.7578 29.5117C99.5208 29.8216 99.2292 30.2956 98.8828 30.9336L98.3359 31.8906L97.9258 32.5742L97.625 33.0938L97.4336 33.3945C97.4154 33.431 97.4154 33.4674 97.4336 33.5039C97.4518 33.5221 97.4792 33.5312 97.5156 33.5312C97.5156 33.5312 97.9805 33.4766 98.9102 33.3672L101.426 33.0938C101.371 32.9479 101.298 32.7565 101.207 32.5195C101.116 32.2643 101.007 31.9818 100.879 31.6719C100.861 31.6536 100.852 31.6172 100.852 31.5625C100.852 31.5078 100.879 31.4805 100.934 31.4805C101.025 31.4805 101.134 31.5352 101.262 31.6445C101.408 31.7357 101.626 31.9271 101.918 32.2188C102.137 32.401 102.319 32.6107 102.465 32.8477C102.629 33.0846 102.729 33.2214 102.766 33.2578C102.93 33.4948 103.012 33.7227 103.012 33.9414C103.012 34.0508 102.975 34.2331 102.902 34.4883C102.848 34.6341 102.775 34.7344 102.684 34.7891C102.611 34.8438 102.501 34.8711 102.355 34.8711ZM102.164 44.4414C101.891 44.4414 101.626 44.2409 101.371 43.8398C101.043 43.3294 100.724 42.9102 100.414 42.582L99.7031 41.8438C99.3203 42.2812 98.9831 42.6276 98.6914 42.8828C98.418 43.138 98.0716 43.3841 97.6523 43.6211C96.8685 44.0768 96.2122 44.3047 95.6836 44.3047C95.556 44.3047 95.4922 44.2591 95.4922 44.168C95.4922 44.1133 95.6654 43.9948 96.0117 43.8125C96.3581 43.6302 96.6862 43.4115 96.9961 43.1562C97.7799 42.5 98.4271 41.8255 98.9375 41.1328C98.8281 41.0234 98.2812 40.5495 97.2969 39.7109C97.1693 39.6198 96.9779 39.4648 96.7227 39.2461C96.668 39.2096 96.5586 39.1276 96.3945 39C96.2305 38.8724 96.1484 38.7812 96.1484 38.7266C96.1484 38.6354 96.194 38.5898 96.2852 38.5898C96.5586 38.5898 96.9961 38.7812 97.5977 39.1641C98.1992 39.5286 98.8281 39.9661 99.4844 40.4766C99.7396 40.1667 99.9401 39.875 100.086 39.6016C100.232 39.3281 100.396 38.9909 100.578 38.5898C100.669 38.3893 100.724 38.2161 100.742 38.0703C100.76 37.9062 100.77 37.806 100.77 37.7695C100.77 37.569 100.824 37.4688 100.934 37.4688C101.061 37.4688 101.234 37.569 101.453 37.7695C101.836 38.1341 102.027 38.3802 102.027 38.5078C102.027 38.5807 101.982 38.6628 101.891 38.7539C101.672 38.9727 101.471 39.2643 101.289 39.6289C101.18 39.8477 100.979 40.1576 100.688 40.5586C100.596 40.668 100.523 40.7682 100.469 40.8594C100.414 40.9505 100.359 41.0326 100.305 41.1055C100.724 41.4154 101.344 41.944 102.164 42.6914C102.365 42.8737 102.492 43.0469 102.547 43.2109C102.62 43.3568 102.656 43.5573 102.656 43.8125C102.656 43.9948 102.611 44.1497 102.52 44.2773C102.428 44.3867 102.31 44.4414 102.164 44.4414ZM107.742 32.6289C107.961 32.6289 108.07 32.7292 108.07 32.9297C108.07 33.0391 107.97 33.194 107.77 33.3945C107.223 34.069 106.138 35.3542 104.516 37.25C104.388 37.4141 104.27 37.4961 104.16 37.4961C104.069 37.4961 103.868 37.3594 103.559 37.0859C103.303 36.8672 103.176 36.6849 103.176 36.5391C103.176 36.375 103.312 36.2201 103.586 36.0742C104.005 35.8372 104.634 35.3633 105.473 34.6523C106.311 33.9049 106.931 33.3125 107.332 32.875C107.496 32.7109 107.633 32.6289 107.742 32.6289ZM81.2461 47.7227V47.832C81.2461 48.2148 81.1003 48.4062 80.8086 48.4062C80.3893 48.3516 80.0339 48.2331 79.7422 48.0508C79.4505 47.8685 79.3047 47.6315 79.3047 47.3398L79.332 47.1211C79.3867 46.8477 79.4141 46.5469 79.4141 46.2188C79.4141 45.9453 79.4049 45.7266 79.3867 45.5625L79.0859 40.8594C79.0495 40.2214 78.9401 39.6927 78.7578 39.2734C78.6667 39.0911 78.6211 38.9453 78.6211 38.8359C78.6211 38.7083 78.7122 38.6445 78.8945 38.6445C79.2409 38.6445 79.8789 38.8086 80.8086 39.1367L87.6992 38.8633L88.0547 38.8359C88.3281 38.8359 88.5651 38.9089 88.7656 39.0547C88.9661 39.2005 89.1211 39.3646 89.2305 39.5469C89.3398 39.7109 89.3945 39.8294 89.3945 39.9023C89.3945 39.9753 89.3581 40.0755 89.2852 40.2031C89.2305 40.3307 89.2031 40.4219 89.2031 40.4766L88.5469 45.2344C88.9661 45.7812 89.1758 46.1732 89.1758 46.4102C89.1758 46.5378 89.112 46.6198 88.9844 46.6562C88.875 46.7109 88.7018 46.7383 88.4648 46.7383L81.1914 46.875L81.2461 47.7227ZM67.7656 37.6602C67.7656 37.4596 67.8841 37.2044 68.1211 36.8945C69.2331 35.4909 70.2539 33.9414 71.1836 32.2461C72.1133 30.5326 72.8516 28.9648 73.3984 27.543C73.9453 26.1029 74.2188 25.1276 74.2188 24.6172C74.2188 24.4531 74.2096 24.3255 74.1914 24.2344L74.1641 24.125C74.1641 23.9609 74.2643 23.8789 74.4648 23.8789C74.7565 23.8789 75.1302 24.0156 75.5859 24.2891C76.0417 24.5443 76.2695 24.7904 76.2695 25.0273C76.2695 25.1185 76.2422 25.2188 76.1875 25.3281C75.4036 27.3516 74.5286 29.2292 73.5625 30.9609L73.5352 47.8594C73.5352 48.2057 73.362 48.3789 73.0156 48.3789C72.7604 48.3789 72.4688 48.2695 72.1406 48.0508C71.8125 47.832 71.6484 47.5586 71.6484 47.2305C71.6484 47.1211 71.6576 47.0391 71.6758 46.9844C71.7669 46.474 71.8125 45.9818 71.8125 45.5078L71.9492 33.5312C71.2201 34.5703 70.4453 35.5547 69.625 36.4844C68.8047 37.3958 68.2396 37.8516 67.9297 37.8516C67.8203 37.8516 67.7656 37.7878 67.7656 37.6602ZM74.0547 41.5156C74.0547 41.3516 74.2096 41.1237 74.5195 40.832C76.3607 39.1914 77.9375 37.5326 79.25 35.8555C80.5625 34.1784 81.7383 32.3372 82.7773 30.332C82.9232 30.0768 82.9961 29.7487 82.9961 29.3477C82.9961 29.2018 82.987 29.1016 82.9688 29.0469C82.9505 28.9922 82.9414 28.9102 82.9414 28.8008C82.9414 28.6003 83.0326 28.5 83.2148 28.5C83.5065 28.5 83.9076 28.6914 84.418 29.0742C84.9466 29.4388 85.2109 29.7214 85.2109 29.9219C85.2109 29.9766 85.1107 30.1771 84.9102 30.5234C84.7096 30.8516 84.5729 31.0703 84.5 31.1797C85.8307 32.8021 87.2253 34.2878 88.6836 35.6367C90.1602 36.9857 91.8099 38.2799 93.6328 39.5195C93.8333 39.6654 93.9336 39.7839 93.9336 39.875C93.9336 40.0391 93.724 40.2578 93.3047 40.5312C92.8854 40.8047 92.612 40.9414 92.4844 40.9414C92.2839 40.9414 91.6914 40.5221 90.707 39.6836C89.7227 38.8268 88.5833 37.7513 87.2891 36.457C85.9948 35.1445 84.7917 33.832 83.6797 32.5195C82.4219 34.4336 81.1185 36.0833 79.7695 37.4688C78.4206 38.8359 77.2266 39.8841 76.1875 40.6133C75.1667 41.3242 74.5195 41.6797 74.2461 41.6797C74.1185 41.6797 74.0547 41.625 74.0547 41.5156ZM75.7773 32.793C75.7773 32.5742 75.9141 32.319 76.1875 32.0273C76.9896 31.0977 77.6914 30.1771 78.293 29.2656C78.8945 28.3359 79.3594 27.5247 79.6875 26.832C80.0156 26.1393 80.1797 25.6562 80.1797 25.3828V25.1914C80.1797 25.082 80.1979 25 80.2344 24.9453C80.2708 24.8906 80.3438 24.8633 80.4531 24.8633C80.599 24.8633 80.8086 24.9362 81.082 25.082C81.3555 25.2096 81.6016 25.3737 81.8203 25.5742C82.0391 25.7747 82.1484 25.957 82.1484 26.1211C82.1484 26.194 82.1393 26.2487 82.1211 26.2852C81.3919 27.5977 80.5898 28.7643 79.7148 29.7852C78.8398 30.7878 78.0469 31.5716 77.3359 32.1367C76.625 32.6836 76.1602 32.957 75.9414 32.957C75.832 32.957 75.7773 32.9023 75.7773 32.793ZM81.082 45.3438L86.8516 45.207L87.3164 40.4492L80.7812 40.6953L81.082 45.3438ZM85.0742 25.5742C85.0742 25.4102 85.1654 25.2279 85.3477 25.0273C85.5482 24.8268 85.7487 24.7266 85.9492 24.7266C86.0951 24.7266 86.2409 24.7995 86.3867 24.9453C87.4622 25.9844 88.5924 27.1419 89.7773 28.418C90.9622 29.694 91.5547 30.4688 91.5547 30.7422C91.5547 30.9609 91.4271 31.207 91.1719 31.4805C90.9167 31.7357 90.6797 31.8633 90.4609 31.8633C90.2786 31.8633 90.1055 31.7448 89.9414 31.5078C88.6107 29.7031 87.0612 27.862 85.293 25.9844C85.1471 25.8021 85.0742 25.6654 85.0742 25.5742Z" fill="#333333"/>
</svg>
