<svg width="220" height="70" viewBox="0 0 220 70" fill="none" xmlns="http://www.w3.org/2000/svg">
<path d="M57.582 34.7891C56.707 34.7891 56.1237 34.7344 55.832 34.625C55.4857 34.4609 55.2578 34.0872 55.1484 33.5039C55.0938 33.194 55.0664 32.8021 55.0664 32.3281L54.957 30.5508V29.8672C54.9388 29.849 54.9297 29.8034 54.9297 29.7305L54.9023 29.4297C54.8841 29.2839 54.8021 29.1107 54.6562 28.9102C54.6016 28.8008 54.5742 28.7188 54.5742 28.6641C54.5742 28.5365 54.7292 28.5 55.0391 28.5547C55.3672 28.6094 55.7409 28.6367 56.1602 28.6367C56.4518 28.6367 56.9987 28.6185 57.8008 28.582C58.0742 28.5638 58.7122 28.4818 59.7148 28.3359L60.5898 28.1445L60.8086 28.0898C60.9727 28.0898 61.1732 28.1901 61.4102 28.3906C61.6107 28.5547 61.7109 28.7096 61.7109 28.8555C61.7109 29.0378 61.5742 29.1471 61.3008 29.1836C60.5898 29.2383 60.043 29.2656 59.6602 29.2656L58.6758 29.3203C58.3841 29.3568 58.1836 29.375 58.0742 29.375C56.8711 29.4297 56.1875 29.457 56.0234 29.457C56.0234 30.7331 56.0326 31.526 56.0508 31.8359C56.0872 32.3464 56.1146 32.7474 56.1328 33.0391C56.1693 33.3307 56.2148 33.5221 56.2695 33.6133C56.306 33.6862 56.3698 33.7409 56.4609 33.7773C56.5703 33.7956 56.6706 33.8138 56.7617 33.832C56.8711 33.832 56.9531 33.832 57.0078 33.832C57.026 33.832 57.0716 33.8411 57.1445 33.8594C57.2357 33.8594 57.4089 33.8594 57.6641 33.8594C57.8464 33.8594 58.1562 33.8411 58.5938 33.8047C59.1589 33.7682 59.7057 33.6953 60.2344 33.5859C60.362 33.5677 60.6536 33.5586 61.1094 33.5586C61.3281 33.5586 61.5378 33.6589 61.7383 33.8594C61.8294 33.9505 61.875 34.0781 61.875 34.2422C61.875 34.3698 61.8385 34.4609 61.7656 34.5156C61.6562 34.5703 61.4831 34.6159 61.2461 34.6523C61.0273 34.6706 60.7448 34.6888 60.3984 34.707C59.3958 34.7617 58.457 34.7891 57.582 34.7891ZM59.3594 39.875C59.1771 40.112 58.9857 40.2305 58.7852 40.2305C58.7305 40.2305 58.7031 40.1849 58.7031 40.0938C58.7031 39.9661 58.7396 39.8203 58.8125 39.6562C58.8125 39.6562 58.9948 39.2917 59.3594 38.5625C59.3776 38.4896 59.4049 38.4167 59.4414 38.3438C59.4779 38.2708 59.5052 38.207 59.5234 38.1523V38.125C59.5234 38.0885 59.4961 38.0521 59.4414 38.0156C59.3867 37.9792 59.3229 37.9701 59.25 37.9883C58.9583 38.0065 58.5208 38.0521 57.9375 38.125C57.3724 38.1979 56.9531 38.2708 56.6797 38.3438C56.5703 38.3802 56.4336 38.4258 56.2695 38.4805C56.1237 38.5352 56.0052 38.5625 55.9141 38.5625C55.5859 38.5625 55.3125 38.4622 55.0938 38.2617C54.9115 38.1341 54.7747 38.0065 54.6836 37.8789L54.6289 37.7422C54.6289 37.651 54.7839 37.6237 55.0938 37.6602C55.513 37.6966 56.3789 37.6419 57.6914 37.4961L58.2383 37.4141C58.3841 37.3958 58.612 37.3685 58.9219 37.332C59.25 37.2773 59.5052 37.2227 59.6875 37.168C59.7422 37.1497 59.7969 37.1315 59.8516 37.1133C59.9245 37.0768 59.9883 37.0586 60.043 37.0586C60.1341 37.0586 60.2435 37.1042 60.3711 37.1953C60.5169 37.2865 60.6354 37.3685 60.7266 37.4414C60.8542 37.5326 60.9362 37.6146 60.9727 37.6875C61.0273 37.7422 61.0456 37.8151 61.0273 37.9062C61.0273 37.9974 60.9818 38.0794 60.8906 38.1523C60.7995 38.2253 60.7357 38.2799 60.6992 38.3164C60.6628 38.3711 60.5352 38.5078 60.3164 38.7266C60.2253 38.8724 60.0612 39.0729 59.8242 39.3281C59.6055 39.5833 59.4505 39.7656 59.3594 39.875ZM57.9922 45.2617C57.9922 45.207 58.0833 45.0703 58.2656 44.8516C58.4661 44.6146 58.6211 44.4323 58.7305 44.3047C59.0039 43.9401 59.332 43.4115 59.7148 42.7188C60.1159 42.026 60.3438 41.5703 60.3984 41.3516C60.4349 41.2422 60.3802 41.1875 60.2344 41.1875C59.9427 41.1875 59.1406 41.2695 57.8281 41.4336C56.9714 41.543 56.3333 41.6523 55.9141 41.7617C55.8229 41.8164 55.7318 41.8438 55.6406 41.8438C55.4948 41.8438 55.3398 41.7435 55.1758 41.543C55.1029 41.4154 55.0664 41.2969 55.0664 41.1875C55.0664 41.1146 55.112 41.0417 55.2031 40.9688L55.2852 40.8594C55.3398 40.75 55.4036 40.6042 55.4766 40.4219C55.5495 40.2396 55.6133 40.0664 55.668 39.9023C55.7591 39.6107 55.8229 39.2917 55.8594 38.9453C55.8776 38.7448 55.987 38.6901 56.1875 38.7812C56.4427 38.9089 56.6341 39.0365 56.7617 39.1641C56.9076 39.2734 56.9531 39.3555 56.8984 39.4102C56.7161 39.6289 56.5703 39.875 56.4609 40.1484C56.3698 40.4401 56.3151 40.6315 56.2969 40.7227C56.2969 40.7956 56.3424 40.832 56.4336 40.832C56.707 40.832 57.1172 40.7865 57.6641 40.6953C57.974 40.6589 58.3568 40.6133 58.8125 40.5586C59.2682 40.5039 59.6328 40.4492 59.9062 40.3945L60.5898 40.2578C60.6445 40.2396 60.7174 40.2305 60.8086 40.2305C60.8997 40.2305 60.9909 40.2669 61.082 40.3398C61.1732 40.3945 61.2734 40.4674 61.3828 40.5586C61.5651 40.7227 61.6836 40.8594 61.7383 40.9688C61.793 41.0599 61.8203 41.1693 61.8203 41.2969C61.8203 41.3698 61.7656 41.4609 61.6562 41.5703C61.5651 41.6797 61.4557 41.8529 61.3281 42.0898C60.7995 43.1654 60.1159 44.0677 59.2773 44.7969C59.0404 44.9792 58.776 45.1341 58.4844 45.2617C58.3568 45.2982 58.2383 45.3255 58.1289 45.3438C58.0378 45.3438 57.9922 45.3164 57.9922 45.2617ZM66.8516 34.4336C66.9062 34.4336 66.9609 34.4609 67.0156 34.5156C67.0703 34.5521 67.1068 34.6068 67.125 34.6797V34.7344C67.125 34.862 67.0247 35.1081 66.8242 35.4727L64.8555 38.8906C64.7096 39.2005 64.5182 39.3555 64.2812 39.3555C64.0443 39.3555 63.8438 39.2096 63.6797 38.918C63.5156 38.681 63.3151 38.3255 63.0781 37.8516C62.9688 37.6875 62.8776 37.5234 62.8047 37.3594C62.7318 37.1953 62.6771 37.0768 62.6406 37.0039C62.4401 36.6576 62.3398 36.4115 62.3398 36.2656C62.3398 36.1927 62.3672 36.138 62.4219 36.1016C62.4766 36.0469 62.5312 36.0195 62.5859 36.0195C62.7865 36.0195 62.9688 36.1289 63.1328 36.3477C63.2604 36.4753 63.3607 36.612 63.4336 36.7578L63.7344 37.168L64.2812 37.7969L64.5273 37.4141C64.7826 36.9766 65.3841 36.1107 66.332 34.8164C66.5326 34.5612 66.7057 34.4336 66.8516 34.4336ZM34.4219 29.9766C34.4219 30.1589 34.2852 30.3776 34.0117 30.6328C33.7565 30.888 33.5286 31.0156 33.3281 31.0156C33.1276 31.0156 32.8997 30.8424 32.6445 30.4961C31.6055 29.0924 30.5755 27.9076 29.5547 26.9414C29.3177 26.7409 29.1992 26.5677 29.1992 26.4219C29.1992 26.276 29.3268 26.1029 29.582 25.9023C29.8008 25.7383 29.9922 25.6562 30.1562 25.6562C30.3568 25.6562 30.8034 25.9753 31.4961 26.6133C32.1888 27.2513 32.8451 27.9258 33.4648 28.6367C34.1029 29.3477 34.4219 29.7943 34.4219 29.9766ZM27.0664 44.4961C27.0664 44.3138 27.1211 44.1771 27.2305 44.0859C27.3398 43.9948 27.5404 43.9219 27.832 43.8672C28.707 43.7031 29.3815 43.612 29.8555 43.5938C30.931 42.6458 31.8424 41.6979 32.5898 40.75C32.6263 40.6771 32.6445 40.6315 32.6445 40.6133C32.6445 40.4128 31.9609 39.8568 30.5938 38.9453C30.1016 38.6172 29.8555 38.2617 29.8555 37.8789C29.8555 37.7148 29.8919 37.5417 29.9648 37.3594C30.056 37.1771 30.2839 36.8216 30.6484 36.293C31.013 35.7461 31.5052 35.0352 32.125 34.1602L29.5 34.4883C29.3542 34.5065 29.1719 34.5156 28.9531 34.5156C28.6979 34.5156 28.4154 34.4427 28.1055 34.2969C27.7956 34.1328 27.5677 33.7773 27.4219 33.2305C27.4036 33.194 27.3945 33.1393 27.3945 33.0664C27.3945 32.9388 27.4492 32.875 27.5586 32.875L27.7227 32.9023C27.9961 32.957 28.2786 32.9844 28.5703 32.9844C28.7708 32.9844 28.9167 32.9753 29.0078 32.957L33.2188 32.5195L33.5195 32.4922C33.7383 32.4922 33.9753 32.5924 34.2305 32.793C34.4857 32.9935 34.6133 33.2031 34.6133 33.4219C34.6133 33.5677 34.5404 33.7135 34.3945 33.8594C34.2487 33.987 34.1576 34.0781 34.1211 34.1328C33.5013 34.9167 32.918 35.6823 32.3711 36.4297C31.8242 37.1589 31.5508 37.5599 31.5508 37.6328C31.5508 37.7057 31.5964 37.7695 31.6875 37.8242C32.7448 38.5169 33.474 39.0638 33.875 39.4648C34.2943 39.8659 34.5039 40.2396 34.5039 40.5859C34.5039 40.9141 34.3398 41.2695 34.0117 41.6523C33.6836 42.0169 33.0273 42.6549 32.043 43.5664C32.7174 43.6211 33.3555 43.7122 33.957 43.8398C41.8138 45.3711 47.7292 46.1367 51.7031 46.1367H51.8398C52.2591 46.1367 52.4688 46.2188 52.4688 46.3828C52.4688 46.4375 52.4049 46.6016 52.2773 46.875C52.1497 47.1484 51.9766 47.3945 51.7578 47.6133C51.5573 47.832 51.3203 47.9414 51.0469 47.9414H50.9102C48.7044 47.8685 46.0065 47.5768 42.8164 47.0664C39.6445 46.556 36.6094 46.0091 33.7109 45.4258C32.6172 45.207 31.7422 45.0977 31.0859 45.0977C30.1745 45.0977 29.2174 45.2617 28.2148 45.5898C28.0508 45.6445 27.8958 45.6719 27.75 45.6719C27.5677 45.6719 27.4036 45.5898 27.2578 45.4258C27.1302 45.2435 27.0664 44.9336 27.0664 44.4961ZM34.1484 43.0742C34.1484 42.8555 34.276 42.5547 34.5312 42.1719C35.4245 40.8229 36.0898 39.401 36.5273 37.9062C36.9648 36.3932 37.2474 34.9258 37.375 33.5039C37.5026 32.0638 37.5664 30.4505 37.5664 28.6641C37.5664 27.3516 37.4479 26.4857 37.2109 26.0664C37.138 25.9388 37.1016 25.8294 37.1016 25.7383C37.1016 25.6289 37.1745 25.5742 37.3203 25.5742C37.6849 25.5742 38.3867 25.8568 39.4258 26.4219L46.6172 25.9297C47.2005 25.8932 47.6289 25.793 47.9023 25.6289C47.9935 25.5742 48.0846 25.5469 48.1758 25.5469C48.431 25.5469 48.7318 25.7201 49.0781 26.0664C49.4245 26.3945 49.5977 26.6589 49.5977 26.8594C49.5977 27.1146 49.4154 27.2604 49.0508 27.2969L39.3711 27.8711C39.3346 29.4206 39.2982 30.5508 39.2617 31.2617L47.3008 30.7695L47.793 30.7422C48.0846 30.7422 48.3307 30.8242 48.5312 30.9883C48.7318 31.1341 48.8776 31.2982 48.9688 31.4805C49.0599 31.6445 49.1055 31.763 49.1055 31.8359C49.1055 31.9818 49.0417 32.1458 48.9141 32.3281C48.7865 32.5104 48.6953 32.6562 48.6406 32.7656C47.8021 34.7526 46.7357 36.5208 45.4414 38.0703C48.7044 41.151 50.3359 42.8737 50.3359 43.2383C50.3359 43.3659 50.2083 43.5664 49.9531 43.8398C49.7161 44.1133 49.4974 44.25 49.2969 44.25C49.151 44.25 48.9961 44.1497 48.832 43.9492C47.4102 42.3086 45.9245 40.7409 44.375 39.2461C43.5547 40.0482 42.6523 40.7956 41.668 41.4883C40.7018 42.181 39.8268 42.737 39.043 43.1562C38.2591 43.5755 37.7578 43.7852 37.5391 43.7852C37.3568 43.7852 37.2656 43.7214 37.2656 43.5938C37.2656 43.3568 37.4935 43.0833 37.9492 42.7734C40.0091 41.388 41.7865 39.8659 43.2812 38.207C42.0781 37.0951 40.9844 36.1289 40 35.3086C39.8724 35.181 39.8086 35.0534 39.8086 34.9258C39.8086 34.7617 39.8997 34.5703 40.082 34.3516C40.2643 34.1328 40.4557 34.0234 40.6562 34.0234C40.7839 34.0234 41.0755 34.2148 41.5312 34.5977C41.987 34.9622 42.9076 35.7643 44.293 37.0039C45.4779 35.4727 46.3346 33.8867 46.8633 32.2461L39.1523 32.7109C38.9883 34.8984 38.5781 36.7943 37.9219 38.3984C37.2839 39.9844 36.6003 41.2057 35.8711 42.0625C35.1419 42.901 34.6315 43.3203 34.3398 43.3203C34.2122 43.3203 34.1484 43.2383 34.1484 43.0742Z" fill="#333333"/>
<path d="M96.2734 31.7812C96.2552 31.7812 96.1914 31.7995 96.082 31.8359C95.9909 31.8542 95.9453 31.8268 95.9453 31.7539C95.9453 31.7357 95.9818 31.6992 96.0547 31.6445C96.1276 31.5716 96.1914 31.5078 96.2461 31.4531C96.3008 31.3984 96.3828 31.3255 96.4922 31.2344C96.6016 31.125 96.6836 31.0156 96.7383 30.9062C97.0117 30.4505 97.2031 29.9948 97.3125 29.5391L97.4766 28.582C97.6042 27.8711 97.6589 27.0417 97.6406 26.0938C97.6406 25.875 97.6133 25.6471 97.5586 25.4102C97.5404 25.3008 97.4492 25.1458 97.2852 24.9453V24.918C97.2852 24.8815 97.3307 24.8633 97.4219 24.8633C97.5495 24.8633 97.6589 24.8724 97.75 24.8906C97.987 24.9453 98.2513 24.9727 98.543 24.9727C98.8529 24.9544 99.0443 24.9453 99.1172 24.9453L100.949 24.8086C101.314 24.7721 101.551 24.7539 101.66 24.7539C102.444 24.6445 102.799 24.599 102.727 24.6172C103.146 24.5443 103.401 24.5078 103.492 24.5078C103.784 24.526 104.076 24.7539 104.367 25.1914L104.422 25.3281C104.422 25.4375 104.34 25.5013 104.176 25.5195C104.012 25.5378 103.911 25.5469 103.875 25.5469C103.31 25.5469 102.891 25.556 102.617 25.5742C101.924 25.5742 101.414 25.5833 101.086 25.6016L100.32 25.6562L98.7617 25.8203C98.6523 27.3516 98.5521 28.3542 98.4609 28.8281C98.3151 29.6849 98.0326 30.3776 97.6133 30.9062C97.3034 31.3073 96.8568 31.599 96.2734 31.7812ZM103.164 39.5195C102.891 39.5195 102.626 39.319 102.371 38.918C102.043 38.4076 101.724 37.9883 101.414 37.6602L100.703 36.9219C100.32 37.3594 99.9831 37.7057 99.6914 37.9609C99.418 38.2161 99.0716 38.4622 98.6523 38.6992C97.8685 39.1549 97.2122 39.3828 96.6836 39.3828C96.556 39.3828 96.4922 39.3372 96.4922 39.2461C96.4922 39.1914 96.6654 39.0729 97.0117 38.8906C97.3581 38.7083 97.6862 38.4896 97.9961 38.2344C98.7799 37.5781 99.4271 36.9036 99.9375 36.2109C99.8281 36.1016 99.2812 35.6276 98.2969 34.7891C98.1693 34.6979 97.9779 34.543 97.7227 34.3242C97.668 34.2878 97.5586 34.2057 97.3945 34.0781C97.2305 33.9505 97.1484 33.8594 97.1484 33.8047C97.1484 33.7135 97.194 33.668 97.2852 33.668C97.5586 33.668 97.9961 33.8594 98.5977 34.2422C99.1992 34.6068 99.8281 35.0443 100.484 35.5547C100.74 35.2448 100.94 34.9531 101.086 34.6797C101.232 34.4062 101.396 34.069 101.578 33.668C101.669 33.4674 101.724 33.2943 101.742 33.1484C101.76 32.9844 101.77 32.8841 101.77 32.8477C101.77 32.6471 101.824 32.5469 101.934 32.5469C102.061 32.5469 102.234 32.6471 102.453 32.8477C102.836 33.2122 103.027 33.4583 103.027 33.5859C103.027 33.6589 102.982 33.7409 102.891 33.832C102.672 34.0508 102.471 34.3424 102.289 34.707C102.18 34.9258 101.979 35.2357 101.688 35.6367C101.596 35.7461 101.523 35.8464 101.469 35.9375C101.414 36.0286 101.359 36.1107 101.305 36.1836C101.724 36.4935 102.344 37.0221 103.164 37.7695C103.365 37.9518 103.492 38.125 103.547 38.2891C103.62 38.4349 103.656 38.6354 103.656 38.8906C103.656 39.0729 103.611 39.2279 103.52 39.3555C103.428 39.4648 103.31 39.5195 103.164 39.5195ZM102.508 47.8047C102.435 47.8047 102.353 47.7682 102.262 47.6953C102.171 47.6406 102.052 47.5495 101.906 47.4219C101.268 46.9297 100.648 46.1914 100.047 45.207C99.4453 44.2227 99.0169 43.1562 98.7617 42.0078C98.7435 41.8984 98.7161 41.7708 98.6797 41.625C98.6432 41.4792 98.6068 41.3698 98.5703 41.2969C98.5703 41.2786 98.543 41.2695 98.4883 41.2695C98.3607 41.2695 98.1146 41.3516 97.75 41.5156C97.6406 41.5703 97.5312 41.6523 97.4219 41.7617C97.3307 41.8529 97.2305 41.8893 97.1211 41.8711C97.0482 41.8711 96.9479 41.8255 96.8203 41.7344C96.6927 41.6432 96.6016 41.5612 96.5469 41.4883C96.3646 41.2331 96.2734 41.0781 96.2734 41.0234C96.2734 40.9141 96.3737 40.8503 96.5742 40.832C96.8477 40.832 97.0208 40.8229 97.0938 40.8047C97.6224 40.7318 98.1237 40.6133 98.5977 40.4492C98.6706 40.431 98.7708 40.3763 98.8984 40.2852C98.9167 40.2852 98.944 40.276 98.9805 40.2578C99.0352 40.2396 99.099 40.2578 99.1719 40.3125C99.4453 40.4948 99.582 40.6315 99.582 40.7227C99.582 41.9987 99.9466 43.1927 100.676 44.3047C101.405 45.4167 102.471 46.3555 103.875 47.1211C103.948 47.1576 104.039 47.194 104.148 47.2305C104.258 47.2669 104.312 47.3216 104.312 47.3945C104.312 47.4857 104.012 47.5677 103.41 47.6406L102.727 47.75L102.508 47.8047ZM108.742 35.6367C108.961 35.6367 109.07 35.737 109.07 35.9375C109.07 36.0469 108.97 36.2018 108.77 36.4023C108.223 37.0768 107.138 38.362 105.516 40.2578C105.388 40.4219 105.27 40.5039 105.16 40.5039C105.069 40.5039 104.868 40.3672 104.559 40.0938C104.303 39.875 104.176 39.6927 104.176 39.5469C104.176 39.3828 104.312 39.2279 104.586 39.082C105.005 38.8451 105.634 38.3711 106.473 37.6602C107.311 36.9128 107.931 36.3203 108.332 35.8828C108.496 35.7188 108.633 35.6367 108.742 35.6367ZM74.125 47.1484V47.2305C74.125 47.6497 73.9427 47.8594 73.5781 47.8594C73.2682 47.8594 72.9492 47.75 72.6211 47.5312C72.293 47.3125 72.1289 46.9935 72.1289 46.5742L72.1562 46.3008C72.2109 45.8086 72.2383 45.3164 72.2383 44.8242V44.4961L71.6641 29.9219C71.6276 29.2656 71.5091 28.7461 71.3086 28.3633C71.1992 28.1081 71.1445 27.9531 71.1445 27.8984C71.1445 27.7708 71.2357 27.707 71.418 27.707C71.7096 27.707 72.375 27.8893 73.4141 28.2539L90.5039 27.3242H90.7773C91.1784 27.3242 91.5065 27.4427 91.7617 27.6797C92.0352 27.9167 92.1719 28.1536 92.1719 28.3906C92.1719 28.4818 92.1445 28.582 92.0898 28.6914C92.0534 28.7826 92.026 28.8646 92.0078 28.9375L91.2148 43.457C91.7982 44.0951 92.0898 44.5508 92.0898 44.8242C92.0898 44.9701 92.0078 45.0703 91.8438 45.125C91.6979 45.1615 91.4609 45.1888 91.1328 45.207L74.0703 45.6172L74.125 47.1484ZM73.9883 44.0039L89.4102 43.5391L90.1758 28.9922L73.4141 29.8125L73.9883 44.0039ZM76.8867 32.6016C76.8867 32.4922 76.9779 32.4375 77.1602 32.4375C77.4701 32.4375 78.0898 32.6016 79.0195 32.9297L84.625 32.6016H84.8711C85.181 32.6016 85.4635 32.7109 85.7188 32.9297C85.9922 33.1484 86.1289 33.3581 86.1289 33.5586C86.1289 33.6497 86.1016 33.75 86.0469 33.8594C85.9922 33.9688 85.9557 34.0599 85.9375 34.1328L85.4727 38.2891C85.9648 38.8542 86.2109 39.2552 86.2109 39.4922C86.2109 39.6198 86.1471 39.7018 86.0195 39.7383C85.8919 39.7747 85.6823 39.8021 85.3906 39.8203L79.457 40.0938L79.4844 40.4492V40.5312C79.4844 40.9688 79.3294 41.1875 79.0195 41.1875C78.9466 41.1875 78.8008 41.1602 78.582 41.1055C78.3815 41.0326 78.181 40.9232 77.9805 40.7773C77.7982 40.6133 77.707 40.3854 77.707 40.0938V39.957C77.7435 39.5195 77.7617 39.2005 77.7617 39L77.7344 38.4258L77.4336 34.5156C77.3971 33.8776 77.2786 33.3854 77.0781 33.0391C76.9505 32.8203 76.8867 32.6745 76.8867 32.6016ZM79.3477 38.6172L83.8594 38.3984L84.1875 34.1328L79.0742 34.4062L79.3477 38.6172Z" fill="#333333"/>
<path d="M145.984 28.9648C145.984 29.3659 145.966 29.7487 145.93 30.1133L145.875 31.6445C145.857 32.0638 145.802 32.7656 145.711 33.75C145.693 34.0417 145.602 34.2695 145.438 34.4336C145.292 34.5977 145.155 34.6797 145.027 34.6797C144.882 34.6615 144.754 34.5339 144.645 34.2969C144.553 34.0417 144.526 33.7865 144.562 33.5312C144.581 33.3854 144.635 32.7839 144.727 31.7266C144.763 30.5964 144.745 29.8398 144.672 29.457C144.654 29.3294 144.526 29.2474 144.289 29.2109H143.523L142.266 29.3203C142.01 29.3385 141.628 29.3932 141.117 29.4844C140.625 29.5755 140.224 29.6576 139.914 29.7305C139.896 30.3503 139.905 31.1341 139.941 32.082L140.051 33.9414C140.051 34.1055 140.005 34.2513 139.914 34.3789C139.841 34.5065 139.75 34.5703 139.641 34.5703C139.422 34.5703 139.249 34.4245 139.121 34.1328C139.012 33.9141 138.957 33.668 138.957 33.3945L138.93 32.9297L138.875 31.3711C138.875 30.9154 138.857 30.2682 138.82 29.4297C138.82 29.2839 138.811 29.1745 138.793 29.1016C138.775 29.0286 138.766 28.9831 138.766 28.9648C138.747 28.9102 138.738 28.8464 138.738 28.7734C138.738 28.6276 138.811 28.5547 138.957 28.5547C139.066 28.5547 139.158 28.5729 139.23 28.6094L139.723 28.7734C139.923 28.737 140.096 28.7096 140.242 28.6914C140.406 28.6732 140.525 28.6549 140.598 28.6367C141.436 28.5091 142.475 28.418 143.715 28.3633C144.171 28.3633 144.49 28.3177 144.672 28.2266C144.69 28.2083 144.727 28.1901 144.781 28.1719C144.854 28.1354 144.909 28.1263 144.945 28.1445L145.219 28.2266C145.292 28.2448 145.365 28.2812 145.438 28.3359C145.51 28.3724 145.574 28.418 145.629 28.4727C145.866 28.7096 145.984 28.8737 145.984 28.9648ZM145.164 44.4414C144.891 44.4414 144.626 44.2409 144.371 43.8398C144.043 43.3294 143.724 42.9102 143.414 42.582L142.703 41.8438C142.32 42.2812 141.983 42.6276 141.691 42.8828C141.418 43.138 141.072 43.3841 140.652 43.6211C139.868 44.0768 139.212 44.3047 138.684 44.3047C138.556 44.3047 138.492 44.2591 138.492 44.168C138.492 44.1133 138.665 43.9948 139.012 43.8125C139.358 43.6302 139.686 43.4115 139.996 43.1562C140.78 42.5 141.427 41.8255 141.938 41.1328C141.828 41.0234 141.281 40.5495 140.297 39.7109C140.169 39.6198 139.978 39.4648 139.723 39.2461C139.668 39.2096 139.559 39.1276 139.395 39C139.23 38.8724 139.148 38.7812 139.148 38.7266C139.148 38.6354 139.194 38.5898 139.285 38.5898C139.559 38.5898 139.996 38.7812 140.598 39.1641C141.199 39.5286 141.828 39.9661 142.484 40.4766C142.74 40.1667 142.94 39.875 143.086 39.6016C143.232 39.3281 143.396 38.9909 143.578 38.5898C143.669 38.3893 143.724 38.2161 143.742 38.0703C143.76 37.9062 143.77 37.806 143.77 37.7695C143.77 37.569 143.824 37.4688 143.934 37.4688C144.061 37.4688 144.234 37.569 144.453 37.7695C144.836 38.1341 145.027 38.3802 145.027 38.5078C145.027 38.5807 144.982 38.6628 144.891 38.7539C144.672 38.9727 144.471 39.2643 144.289 39.6289C144.18 39.8477 143.979 40.1576 143.688 40.5586C143.596 40.668 143.523 40.7682 143.469 40.8594C143.414 40.9505 143.359 41.0326 143.305 41.1055C143.724 41.4154 144.344 41.944 145.164 42.6914C145.365 42.8737 145.492 43.0469 145.547 43.2109C145.62 43.3568 145.656 43.5573 145.656 43.8125C145.656 43.9948 145.611 44.1497 145.52 44.2773C145.428 44.3867 145.31 44.4414 145.164 44.4414ZM147.242 34.8164C147.333 34.8164 147.47 34.8802 147.652 35.0078C147.634 35.0443 147.671 35.1172 147.762 35.2266C147.853 35.3177 147.917 35.3815 147.953 35.418C148.044 35.5091 148.135 35.6185 148.227 35.7461C148.336 35.8737 148.454 36.0104 148.582 36.1562C148.91 36.5026 149.667 37.4049 150.852 38.8633C151.052 39.1549 151.152 39.3281 151.152 39.3828C151.152 39.5651 151.043 39.6562 150.824 39.6562C150.697 39.6562 150.56 39.5651 150.414 39.3828C150.068 39.0182 149.448 38.444 148.555 37.6602C147.862 37.0221 147.233 36.5299 146.668 36.1836C146.395 36.056 146.258 35.9102 146.258 35.7461C146.258 35.6185 146.395 35.4362 146.668 35.1992C146.923 34.944 147.115 34.8164 147.242 34.8164ZM118.395 47.5039V47.6406C118.395 48.0964 118.258 48.3242 117.984 48.3242C117.839 48.3242 117.629 48.2695 117.355 48.1602C117.1 48.0508 116.872 47.9049 116.672 47.7227C116.471 47.5404 116.371 47.3307 116.371 47.0938L116.398 46.9023C116.471 46.319 116.508 45.8451 116.508 45.4805V45.0977L116.043 28.4727C116.007 27.7435 115.879 27.1693 115.66 26.75C115.551 26.5312 115.496 26.3672 115.496 26.2578C115.496 26.112 115.587 26.0391 115.77 26.0391C116.098 26.0391 116.763 26.2487 117.766 26.668L130.453 26.0391H130.645C130.918 26.0391 131.201 26.1484 131.492 26.3672C131.784 26.5859 131.93 26.8138 131.93 27.0508C131.93 27.1237 131.911 27.2148 131.875 27.3242C131.839 27.4154 131.811 27.5065 131.793 27.5977L131.301 44.1133C131.738 44.6419 131.957 45.043 131.957 45.3164C131.957 45.4622 131.884 45.5625 131.738 45.6172C131.611 45.6536 131.456 45.681 131.273 45.6992C131.091 45.6992 130.973 45.6992 130.918 45.6992L118.34 46.1641L118.395 47.5039ZM117.93 32.5469L129.879 31.918L129.961 27.6523L117.793 28.2539L117.93 32.5469ZM118.094 38.207L129.742 37.6055L129.824 33.5586L117.984 34.1055L118.094 38.207ZM118.312 44.5781L129.605 44.1953L129.715 39.2461L118.148 39.793L118.312 44.5781Z" fill="#333333"/>
<path d="M184.84 35.5C184.548 35.5 184.366 35.418 184.293 35.2539C184.202 35.0352 184.111 34.8529 184.02 34.707C183.928 34.543 183.764 34.3516 183.527 34.1328L183.582 34.0234C184.238 34.2604 184.667 34.3789 184.867 34.3789C185.013 34.3789 185.122 34.3516 185.195 34.2969C185.268 34.2422 185.387 34.1146 185.551 33.9141C185.788 33.6589 186.007 33.2669 186.207 32.7383C186.48 31.9544 186.654 31.1432 186.727 30.3047V30.2227C186.727 30.1133 186.708 30.0404 186.672 30.0039C186.435 30.0039 185.806 30.0586 184.785 30.168C184.22 31.5716 183.564 32.7292 182.816 33.6406C182.087 34.5339 181.422 34.9805 180.82 34.9805C180.674 34.9805 180.602 34.9258 180.602 34.8164C180.602 34.7799 180.784 34.5703 181.148 34.1875C181.513 33.8047 181.914 33.3034 182.352 32.6836C182.807 32.0456 183.236 31.2617 183.637 30.332C183.546 30.332 183.281 30.3503 182.844 30.3867C182.406 30.4232 182.033 30.487 181.723 30.5781C181.577 30.6875 181.422 30.7057 181.258 30.6328C181.258 30.6328 181.24 30.6237 181.203 30.6055C181.167 30.5872 181.13 30.5599 181.094 30.5234C180.966 30.4505 180.857 30.3594 180.766 30.25C180.693 30.1224 180.656 30.0039 180.656 29.8945C180.656 29.8398 180.702 29.7669 180.793 29.6758L181.121 29.2383C181.23 29.0924 181.331 28.8828 181.422 28.6094C181.513 28.3177 181.559 28.0716 181.559 27.8711C181.559 27.7435 181.549 27.6615 181.531 27.625C181.513 27.5885 181.504 27.543 181.504 27.4883C181.504 27.3971 181.549 27.3516 181.641 27.3516C181.75 27.3516 181.905 27.4154 182.105 27.543C182.16 27.5794 182.26 27.6523 182.406 27.7617C182.57 27.8529 182.661 27.9622 182.68 28.0898C182.68 28.2174 182.607 28.4271 182.461 28.7188L182.105 29.3477C182.069 29.4023 182.051 29.4661 182.051 29.5391C182.051 29.5938 182.069 29.6393 182.105 29.6758C182.16 29.694 182.224 29.694 182.297 29.6758L183.938 29.457C184.12 28.9831 184.266 28.4818 184.375 27.9531V27.7891V27.3242C184.375 27.1237 184.43 27.0417 184.539 27.0781C184.776 27.1328 184.967 27.2057 185.113 27.2969C185.387 27.4609 185.523 27.5977 185.523 27.707C185.523 27.7982 185.487 27.9531 185.414 28.1719C185.359 28.3724 185.314 28.5273 185.277 28.6367C185.259 28.7096 185.177 28.9466 185.031 29.3477C185.086 29.3477 185.423 29.3112 186.043 29.2383L186.316 29.1836C186.371 29.1836 186.471 29.1654 186.617 29.1289C186.654 29.1107 186.699 29.1016 186.754 29.1016C186.973 29.1016 187.109 29.1107 187.164 29.1289C187.237 29.1471 187.346 29.2018 187.492 29.293C187.656 29.4023 187.766 29.5117 187.82 29.6211C187.875 29.7305 187.893 29.8581 187.875 30.0039L187.711 30.9062L187.52 31.8906C187.52 31.9635 187.456 32.2005 187.328 32.6016C187.201 33.0026 187.055 33.3581 186.891 33.668C186.581 34.2878 186.216 34.7526 185.797 35.0625C185.432 35.3542 185.113 35.5 184.84 35.5ZM187.164 44.4414C186.891 44.4414 186.626 44.2409 186.371 43.8398C186.043 43.3294 185.724 42.9102 185.414 42.582L184.703 41.8438C184.32 42.2812 183.983 42.6276 183.691 42.8828C183.418 43.138 183.072 43.3841 182.652 43.6211C181.868 44.0768 181.212 44.3047 180.684 44.3047C180.556 44.3047 180.492 44.2591 180.492 44.168C180.492 44.1133 180.665 43.9948 181.012 43.8125C181.358 43.6302 181.686 43.4115 181.996 43.1562C182.78 42.5 183.427 41.8255 183.938 41.1328C183.828 41.0234 183.281 40.5495 182.297 39.7109C182.169 39.6198 181.978 39.4648 181.723 39.2461C181.668 39.2096 181.559 39.1276 181.395 39C181.23 38.8724 181.148 38.7812 181.148 38.7266C181.148 38.6354 181.194 38.5898 181.285 38.5898C181.559 38.5898 181.996 38.7812 182.598 39.1641C183.199 39.5286 183.828 39.9661 184.484 40.4766C184.74 40.1667 184.94 39.875 185.086 39.6016C185.232 39.3281 185.396 38.9909 185.578 38.5898C185.669 38.3893 185.724 38.2161 185.742 38.0703C185.76 37.9062 185.77 37.806 185.77 37.7695C185.77 37.569 185.824 37.4688 185.934 37.4688C186.061 37.4688 186.234 37.569 186.453 37.7695C186.836 38.1341 187.027 38.3802 187.027 38.5078C187.027 38.5807 186.982 38.6628 186.891 38.7539C186.672 38.9727 186.471 39.2643 186.289 39.6289C186.18 39.8477 185.979 40.1576 185.688 40.5586C185.596 40.668 185.523 40.7682 185.469 40.8594C185.414 40.9505 185.359 41.0326 185.305 41.1055C185.724 41.4154 186.344 41.944 187.164 42.6914C187.365 42.8737 187.492 43.0469 187.547 43.2109C187.62 43.3568 187.656 43.5573 187.656 43.8125C187.656 43.9948 187.611 44.1497 187.52 44.2773C187.428 44.3867 187.31 44.4414 187.164 44.4414ZM189.242 34.8164C189.333 34.8164 189.47 34.8802 189.652 35.0078C189.634 35.0443 189.671 35.1172 189.762 35.2266C189.853 35.3177 189.917 35.3815 189.953 35.418C190.044 35.5091 190.135 35.6185 190.227 35.7461C190.336 35.8737 190.454 36.0104 190.582 36.1562C190.91 36.5026 191.667 37.4049 192.852 38.8633C193.052 39.1549 193.152 39.3281 193.152 39.3828C193.152 39.5651 193.043 39.6562 192.824 39.6562C192.697 39.6562 192.56 39.5651 192.414 39.3828C192.068 39.0182 191.448 38.444 190.555 37.6602C189.862 37.0221 189.233 36.5299 188.668 36.1836C188.395 36.056 188.258 35.9102 188.258 35.7461C188.258 35.6185 188.395 35.4362 188.668 35.1992C188.923 34.944 189.115 34.8164 189.242 34.8164ZM156.512 37.8242C156.329 37.8424 156.102 37.8516 155.828 37.8516H155.691C155.454 37.8516 155.236 37.7604 155.035 37.5781C154.853 37.3958 154.707 37.1862 154.598 36.9492C154.507 36.7122 154.461 36.5391 154.461 36.4297C154.461 36.3203 154.507 36.2656 154.598 36.2656C154.616 36.2656 154.68 36.2839 154.789 36.3203C155.008 36.3932 155.327 36.4297 155.746 36.4297H156.047L158.207 36.293L158.234 33.9414L157.906 33.9688C157.742 33.987 157.533 33.9961 157.277 33.9961C156.858 33.9961 156.539 33.7865 156.32 33.3672C155.664 34.2786 154.98 35.1081 154.27 35.8555C153.577 36.5846 153.112 36.9492 152.875 36.9492C152.784 36.9492 152.738 36.8945 152.738 36.7852C152.738 36.6393 152.829 36.4206 153.012 36.1289C154.069 34.6341 155.008 33.1393 155.828 31.6445C156.648 30.1497 157.286 28.8372 157.742 27.707C158.198 26.5768 158.426 25.793 158.426 25.3555C158.426 25.0456 158.526 24.8906 158.727 24.8906C158.982 24.8906 159.31 25.0456 159.711 25.3555C160.13 25.6471 160.34 25.9115 160.34 26.1484C160.34 26.2578 160.13 26.7318 159.711 27.5703C160.531 28.1354 161.37 28.7643 162.227 29.457C163.083 30.1497 163.512 30.6328 163.512 30.9062C163.512 31.0885 163.411 31.3164 163.211 31.5898C163.029 31.8633 162.846 32 162.664 32C162.5 32 162.29 31.8633 162.035 31.5898C161.251 30.7331 160.276 29.7943 159.109 28.7734C158.344 30.1953 157.578 31.4896 156.812 32.6562L157.168 32.6836L157.496 32.6562L160.121 32.4648C160.504 32.4284 160.786 32.3737 160.969 32.3008C161.042 32.2643 161.115 32.2461 161.188 32.2461C161.424 32.2461 161.698 32.3828 162.008 32.6562C162.318 32.9115 162.473 33.1302 162.473 33.3125C162.473 33.513 162.263 33.6315 161.844 33.668L159.793 33.832L159.766 36.1836L160.805 36.1289C161.26 36.0924 161.607 36.0286 161.844 35.9375C161.953 35.901 162.035 35.8828 162.09 35.8828C162.345 35.8828 162.628 36.0378 162.938 36.3477C163.247 36.6576 163.402 36.8945 163.402 37.0586C163.402 37.2591 163.202 37.3776 162.801 37.4141L159.738 37.6055L159.684 43.8398C160.358 43.6211 161.388 43.2565 162.773 42.7461C163.083 42.6367 163.32 42.582 163.484 42.582C163.685 42.582 163.785 42.6367 163.785 42.7461C163.785 42.9831 163.129 43.457 161.816 44.168C160.522 44.8607 159.128 45.5169 157.633 46.1367C156.138 46.7565 155.163 47.0664 154.707 47.0664C154.379 47.0664 154.096 46.9206 153.859 46.6289C153.641 46.3555 153.477 46.1003 153.367 45.8633C153.312 45.7721 153.285 45.6992 153.285 45.6445C153.285 45.5352 153.376 45.4714 153.559 45.4531C153.996 45.4349 154.525 45.362 155.145 45.2344C155.764 45.0885 156.767 44.7969 158.152 44.3594L158.207 37.7148L156.512 37.8242ZM154.926 39.4102C154.926 39.2461 155.026 39.1094 155.227 39C155.445 38.8906 155.637 38.8359 155.801 38.8359C156.02 38.8359 156.193 38.9727 156.32 39.2461C156.667 39.9388 156.967 40.6771 157.223 41.4609C157.496 42.2266 157.633 42.6914 157.633 42.8555C157.633 43.0013 157.587 43.1198 157.496 43.2109C157.423 43.2839 157.277 43.3568 157.059 43.4297C156.895 43.5026 156.74 43.5391 156.594 43.5391C156.448 43.5391 156.339 43.4935 156.266 43.4023C156.193 43.3112 156.138 43.1654 156.102 42.9648C155.846 41.9258 155.491 40.8685 155.035 39.793C154.962 39.5742 154.926 39.4466 154.926 39.4102ZM160.121 43.0195C160.121 42.8737 160.176 42.6641 160.285 42.3906C161.051 40.6953 161.434 39.556 161.434 38.9727C161.434 38.8997 161.415 38.7539 161.379 38.5352L161.352 38.3711C161.352 38.1706 161.452 38.0703 161.652 38.0703C161.853 38.0703 162.145 38.1979 162.527 38.4531C162.91 38.6901 163.102 38.9089 163.102 39.1094C163.102 39.2917 162.883 39.7747 162.445 40.5586C162.008 41.3242 161.507 42.0534 160.941 42.7461C160.868 42.819 160.823 42.8737 160.805 42.9102C160.568 43.1471 160.395 43.2656 160.285 43.2656C160.176 43.2656 160.121 43.1836 160.121 43.0195ZM162.664 44.25C162.664 44.1406 162.719 44.0768 162.828 44.0586H162.91C163.439 43.9857 164.086 43.7214 164.852 43.2656C165.635 42.7917 166.866 41.8164 168.543 40.3398C168.816 40.0846 169.053 39.957 169.254 39.957C169.382 39.957 169.445 40.0208 169.445 40.1484C169.445 40.3672 169.035 40.9779 168.215 41.9805C167.395 42.9831 166.547 43.9219 165.672 44.7969C165.398 45.0703 165.18 45.2617 165.016 45.3711C164.852 45.4622 164.688 45.5078 164.523 45.5078C164.268 45.5078 163.995 45.4349 163.703 45.2891C163.411 45.125 163.165 44.9427 162.965 44.7422C162.764 44.5417 162.664 44.3776 162.664 44.25ZM162.965 33.3398C162.965 33.2305 163.001 33.1758 163.074 33.1758C163.129 33.1758 163.174 33.1849 163.211 33.2031C163.667 33.3307 164.077 33.3945 164.441 33.3945H164.633L170.566 33.0938L171.633 31.0703L167.449 31.2891C167.285 31.3073 167.112 31.3346 166.93 31.3711C166.747 31.4076 166.611 31.4258 166.52 31.4258C166.228 31.4258 166.009 31.2891 165.863 31.0156C165.717 30.724 165.645 30.4961 165.645 30.332C165.645 30.168 165.699 29.9948 165.809 29.8125C165.936 29.612 166.027 29.4661 166.082 29.375L168.133 25.3281C168.224 25.1458 168.27 24.918 168.27 24.6445C168.27 24.5169 168.26 24.4258 168.242 24.3711L168.215 24.1797C168.215 23.9792 168.306 23.8789 168.488 23.8789C168.762 23.8789 169.09 24.0156 169.473 24.2891C169.855 24.5625 170.047 24.7812 170.047 24.9453C170.047 25.0547 170.001 25.1823 169.91 25.3281L169.445 26.1758L173.875 25.9023H174.203C174.531 25.9023 174.805 26.0026 175.023 26.2031C175.26 26.3854 175.379 26.5859 175.379 26.8047C175.379 26.9323 175.324 27.0781 175.215 27.2422C175.105 27.4062 175.023 27.5521 174.969 27.6797C173.802 30.1224 172.927 31.8906 172.344 32.9844L175.543 32.8203C175.999 32.7839 176.382 32.7018 176.691 32.5742C176.801 32.5195 176.901 32.4922 176.992 32.4922C177.156 32.4922 177.348 32.5833 177.566 32.7656C177.785 32.9297 177.977 33.1211 178.141 33.3398C178.305 33.5586 178.387 33.7135 178.387 33.8047C178.387 34.0052 178.186 34.1237 177.785 34.1602L171.25 34.4883L171.277 38.8359L171.496 38.6719C172.171 38.1797 172.799 37.5781 173.383 36.8672C173.966 36.138 174.312 35.5456 174.422 35.0898C174.477 34.8893 174.559 34.7891 174.668 34.7891C174.777 34.7891 174.941 34.8893 175.16 35.0898C175.397 35.2721 175.607 35.4909 175.789 35.7461C175.971 36.0013 176.062 36.2383 176.062 36.457C176.062 36.6211 175.999 36.7487 175.871 36.8398C173.592 38.4805 172.07 39.3737 171.305 39.5195L171.359 46.0547C171.359 46.237 171.368 46.4466 171.387 46.6836C171.423 46.9206 171.441 47.1211 171.441 47.2852C171.441 47.668 171.314 47.9779 171.059 48.2148C170.822 48.4518 170.557 48.5703 170.266 48.5703C169.974 48.5703 169.518 48.3607 168.898 47.9414C168.297 47.5221 167.732 47.0573 167.203 46.5469C166.693 46.0547 166.438 45.7083 166.438 45.5078C166.438 45.3984 166.51 45.3438 166.656 45.3438C166.82 45.3438 167.039 45.4167 167.312 45.5625C168.115 46 168.926 46.319 169.746 46.5195L169.664 34.5703L165.18 34.8164C164.979 34.8346 164.724 34.8438 164.414 34.8438C164.013 34.8438 163.749 34.7799 163.621 34.6523C163.421 34.4518 163.257 34.224 163.129 33.9688C163.02 33.6953 162.965 33.4857 162.965 33.3398ZM164.605 36.7852C164.605 36.6029 164.724 36.4115 164.961 36.2109C165.198 36.0104 165.371 35.9102 165.48 35.9102C165.59 35.9102 165.918 36.138 166.465 36.5938C167.03 37.0495 167.549 37.5234 168.023 38.0156C168.516 38.4896 168.762 38.8086 168.762 38.9727C168.762 39.1549 168.634 39.3737 168.379 39.6289C168.142 39.8841 167.932 40.0117 167.75 40.0117C167.604 40.0117 167.477 39.9388 167.367 39.793C166.51 38.7904 165.681 37.9336 164.879 37.2227C164.697 37.0404 164.605 36.8945 164.605 36.7852ZM172.316 29.6758C172.663 28.9831 173.018 28.2266 173.383 27.4062L168.625 27.6523L167.395 29.8945L172.316 29.6758ZM171.441 40.75C171.441 40.5677 171.514 40.3854 171.66 40.2031C171.824 40.0026 172.016 39.9023 172.234 39.9023C172.453 39.9023 173.173 40.3034 174.395 41.1055C175.616 41.8893 176.746 42.6823 177.785 43.4844C178.059 43.6849 178.204 43.9036 178.223 44.1406C178.223 44.2682 178.141 44.487 177.977 44.7969C177.831 45.0885 177.639 45.2435 177.402 45.2617H177.348C177.22 45.2617 177.038 45.1615 176.801 44.9609C175.288 43.7031 173.62 42.4818 171.797 41.2969C171.56 41.1693 171.441 40.987 171.441 40.75Z" fill="#333333"/>
</svg>
