<svg width="135" height="70" viewBox="0 0 135 70" fill="none" xmlns="http://www.w3.org/2000/svg">
<path d="M54.2852 32.1367C54.0846 32.1367 53.8385 31.9818 53.5469 31.6719C53.3281 31.4531 53.2188 31.2891 53.2188 31.1797C53.2188 31.125 53.2552 31.0977 53.3281 31.0977C53.401 31.0794 53.4922 31.0703 53.6016 31.0703L54.2031 31.043C54.5495 31.043 54.7773 31.0339 54.8867 31.0156C55.2331 31.0156 55.5247 31.0065 55.7617 30.9883C57.3294 30.8424 58.3867 30.724 58.9336 30.6328C59.207 30.5964 59.4531 30.5599 59.6719 30.5234C59.8906 30.4688 60.0638 30.4414 60.1914 30.4414C60.4466 30.4414 60.7018 30.569 60.957 30.8242C61.1576 31.0247 61.2578 31.1888 61.2578 31.3164C61.2578 31.4258 61.194 31.4987 61.0664 31.5352C60.9753 31.5534 60.4375 31.5898 59.4531 31.6445C58.9062 31.6628 58.2318 31.7083 57.4297 31.7812C56.6276 31.8542 55.9258 31.9271 55.3242 32C55.2148 32.0182 55.0599 32.0456 54.8594 32.082C54.6589 32.1185 54.4674 32.1367 54.2852 32.1367ZM60.7109 44.5508C60.6927 44.569 60.6471 44.5781 60.5742 44.5781C60.4284 44.5781 60.2188 44.4779 59.9453 44.2773C59.3255 43.6576 58.5143 42.8919 57.5117 41.9805C57.0378 42.4544 56.5911 42.8646 56.1719 43.2109C56.026 43.3203 55.7708 43.4844 55.4062 43.7031C54.8776 44.013 54.3672 44.2044 53.875 44.2773H53.7109C53.5469 44.2773 53.4466 44.2591 53.4102 44.2227C53.3919 44.2044 53.4284 44.168 53.5195 44.1133C53.6289 44.0586 53.7109 44.013 53.7656 43.9766C53.875 43.9219 54.1849 43.7214 54.6953 43.375C54.9505 43.1927 55.3151 42.8828 55.7891 42.4453C56.263 42.0078 56.6094 41.6523 56.8281 41.3789L55.707 40.5039C55.5065 40.3581 55.2878 40.2031 55.0508 40.0391C54.832 39.8568 54.6771 39.7383 54.5859 39.6836L54.5586 39.6016C54.5586 39.4922 54.6497 39.4375 54.832 39.4375C55.0508 39.4375 55.4062 39.5742 55.8984 39.8477L57.293 40.75C57.6029 40.349 57.9128 39.9115 58.2227 39.4375C58.5508 38.9453 58.724 38.6536 58.7422 38.5625C58.7604 38.5078 58.7513 38.4622 58.7148 38.4258C58.6966 38.3711 58.6602 38.3438 58.6055 38.3438H58.0586L57.0742 38.4258C56.582 38.4622 56.0898 38.526 55.5977 38.6172C55.543 38.6354 55.4518 38.6628 55.3242 38.6992C55.1966 38.7357 55.0872 38.7539 54.9961 38.7539C54.9596 38.7539 54.8047 38.6536 54.5312 38.4531C54.276 38.2344 54.1393 38.0977 54.1211 38.043C54.1029 38.0247 54.0938 37.9974 54.0938 37.9609C54.0938 37.8698 54.194 37.8333 54.3945 37.8516C54.5951 37.8516 54.7227 37.8516 54.7773 37.8516C55.2878 37.8516 56.026 37.806 56.9922 37.7148L57.9219 37.6328L58.7695 37.5234C59.043 37.4505 59.1979 37.4141 59.2344 37.4141H59.2891C59.3802 37.4141 59.4622 37.4414 59.5352 37.4961C59.6081 37.5508 59.6628 37.6055 59.6992 37.6602C59.7357 37.7148 59.763 37.7513 59.7812 37.7695C59.7995 37.7878 59.8542 37.8424 59.9453 37.9336C60.0365 38.0065 60.0911 38.0794 60.1094 38.1523C60.1458 38.207 60.1641 38.2708 60.1641 38.3438C60.1641 38.5078 60.1003 38.6263 59.9727 38.6992C59.8815 38.7357 59.7174 38.9271 59.4805 39.2734C59.0794 39.9115 58.5964 40.5951 58.0312 41.3242C58.3411 41.5247 58.7422 41.8164 59.2344 42.1992C59.4531 42.3451 59.8086 42.5911 60.3008 42.9375C60.5195 43.1016 60.6836 43.3203 60.793 43.5938C60.8659 43.8854 60.9023 44.1042 60.9023 44.25C60.8841 44.3958 60.8203 44.4961 60.7109 44.5508ZM65.7422 32.6289C65.9609 32.6289 66.0703 32.7292 66.0703 32.9297C66.0703 33.0391 65.9701 33.194 65.7695 33.3945C65.2227 34.069 64.138 35.3542 62.5156 37.25C62.388 37.4141 62.2695 37.4961 62.1602 37.4961C62.069 37.4961 61.8685 37.3594 61.5586 37.0859C61.3034 36.8672 61.1758 36.6849 61.1758 36.5391C61.1758 36.375 61.3125 36.2201 61.5859 36.0742C62.0052 35.8372 62.6341 35.3633 63.4727 34.6523C64.3112 33.9049 64.931 33.3125 65.332 32.875C65.4961 32.7109 65.6328 32.6289 65.7422 32.6289ZM49.7734 48.3516C47.6771 48.3516 45.1432 48.1055 42.1719 47.6133C39.2188 47.1211 36.056 46.5195 32.6836 45.8086C31.6263 45.5898 30.7786 45.4805 30.1406 45.4805C29.2474 45.4805 28.3086 45.6445 27.3242 45.9727C27.1602 46.0273 27.0143 46.0547 26.8867 46.0547C26.431 46.0547 26.2031 45.6628 26.2031 44.8789C26.2031 44.7331 26.2487 44.6237 26.3398 44.5508C26.431 44.4596 26.6133 44.3867 26.8867 44.332C27.1602 44.2591 27.5977 44.1771 28.1992 44.0859C29.4388 42.9557 30.4961 41.8438 31.3711 40.75C31.4076 40.6771 31.4258 40.6315 31.4258 40.6133C31.4258 40.5039 31.2253 40.2943 30.8242 39.9844C30.4414 39.6562 29.9766 39.3099 29.4297 38.9453C28.9557 38.6354 28.7188 38.2799 28.7188 37.8789C28.7188 37.569 28.8737 37.1771 29.1836 36.7031L30.9336 34.1602L28.418 34.4883L27.8438 34.543C27.4609 34.543 27.1419 34.3971 26.8867 34.1055C26.6315 33.8138 26.4674 33.5221 26.3945 33.2305C26.3763 33.194 26.3672 33.1393 26.3672 33.0664C26.3672 32.9388 26.4219 32.875 26.5312 32.875L26.6953 32.9023C26.9688 32.957 27.2422 32.9844 27.5156 32.9844C27.6979 32.9844 27.8346 32.9753 27.9258 32.957L32 32.5195L32.2734 32.4922C32.3281 32.4922 32.4466 32.5378 32.6289 32.6289C32.8112 32.7018 32.9753 32.8112 33.1211 32.957C33.2669 33.0846 33.3398 33.2305 33.3398 33.3945C33.3398 33.5586 33.2669 33.7135 33.1211 33.8594C32.9753 33.987 32.8841 34.0781 32.8477 34.1328C32.8112 34.1875 32.3828 34.7526 31.5625 35.8281C30.7422 36.8854 30.332 37.487 30.332 37.6328C30.332 37.7057 30.3776 37.7695 30.4688 37.8242C31.0703 38.207 31.7721 38.7721 32.5742 39.5195C32.9206 39.8294 33.0938 40.194 33.0938 40.6133C33.0938 40.9961 32.9297 41.3698 32.6016 41.7344C31.526 42.8828 30.806 43.6302 30.4414 43.9766C31.1341 43.9948 31.9635 44.0951 32.9297 44.2773C40.7318 45.8268 46.6107 46.6016 50.5664 46.6016H50.7031C51.1224 46.6016 51.332 46.6836 51.332 46.8477C51.332 46.9023 51.2682 47.0573 51.1406 47.3125C51.0312 47.5677 50.8763 47.8047 50.6758 48.0234C50.4753 48.2422 50.2383 48.3516 49.9648 48.3516H49.7734ZM27.8711 26.2031C27.8711 26.0573 27.9896 25.8932 28.2266 25.7109C28.4635 25.5286 28.6549 25.4375 28.8008 25.4375C28.9831 25.4375 29.4115 25.7565 30.0859 26.3945C30.7786 27.0326 31.4258 27.7161 32.0273 28.4453C32.6471 29.1562 32.957 29.6029 32.957 29.7852C32.957 29.9674 32.8294 30.1862 32.5742 30.4414C32.3372 30.6966 32.1003 30.8242 31.8633 30.8242C31.6445 30.8242 31.4258 30.651 31.207 30.3047C30.332 29.0469 29.3294 27.862 28.1992 26.75C27.9805 26.5312 27.8711 26.349 27.8711 26.2031ZM32.6562 43.4023C32.6562 43.1836 32.7747 42.901 33.0117 42.5547C34.0326 40.8958 34.7799 39.1003 35.2539 37.168C35.7461 35.2174 36.0469 32.9661 36.1562 30.4141L35.1992 30.4961C35.0534 30.5143 34.8711 30.5234 34.6523 30.5234C34.3424 30.5234 34.1055 30.4596 33.9414 30.332C33.6862 30.0586 33.5039 29.7122 33.3945 29.293C33.3763 29.2565 33.3672 29.2109 33.3672 29.1562C33.3672 29.0833 33.4128 29.0469 33.5039 29.0469H33.5586C33.7044 29.0469 33.9049 29.0651 34.1602 29.1016C34.4154 29.138 34.6159 29.1562 34.7617 29.1562H35.0078L38.9727 28.8828C39.3008 28.8646 39.6745 28.7734 40.0938 28.6094C40.1484 28.5729 40.2396 28.5547 40.3672 28.5547C40.6042 28.5547 40.8867 28.6914 41.2148 28.9648C41.5612 29.2383 41.7344 29.457 41.7344 29.6211C41.7344 29.7122 41.6797 29.7943 41.5703 29.8672C41.4609 29.9401 41.3151 29.9857 41.1328 30.0039L37.7422 30.3047C37.6693 31.3255 37.5964 32.082 37.5234 32.5742L39.6016 32.4648H39.8203C40.112 32.4648 40.349 32.5286 40.5312 32.6562C40.8411 32.9297 40.9961 33.1758 40.9961 33.3945C40.9961 33.4674 40.9779 33.5677 40.9414 33.6953C40.9049 33.8229 40.8776 33.9505 40.8594 34.0781C40.75 36.9219 40.4948 39.5378 40.0938 41.9258C39.9297 42.8555 39.6562 43.4844 39.2734 43.8125C38.8906 44.1406 38.5716 44.3047 38.3164 44.3047C37.7878 44.3047 37.0312 43.5117 36.0469 41.9258C35.8828 41.6706 35.8008 41.4792 35.8008 41.3516C35.8008 41.224 35.8646 41.1602 35.9922 41.1602C36.1198 41.1602 36.3112 41.2604 36.5664 41.4609C37.1133 41.8984 37.5872 42.2083 37.9883 42.3906C38.0065 42.4089 38.043 42.418 38.0977 42.418C38.207 42.418 38.2799 42.3724 38.3164 42.2812C38.6445 41.0234 38.8724 39.7292 39 38.3984C39.1458 37.0677 39.2552 35.5547 39.3281 33.8594L37.3594 33.9414C37.1042 35.8919 36.6849 37.5964 36.1016 39.0547C35.5365 40.4948 34.707 41.8346 33.6133 43.0742C33.2669 43.4388 33.0117 43.6211 32.8477 43.6211C32.7201 43.6211 32.6562 43.5482 32.6562 43.4023ZM35.418 25.1367C35.418 24.9727 35.5 24.7995 35.6641 24.6172C35.8464 24.4167 36.0195 24.3164 36.1836 24.3164C36.3294 24.3164 36.7122 24.526 37.332 24.9453C37.9701 25.3464 38.5625 25.7747 39.1094 26.2305C39.6562 26.6862 39.9297 27.0052 39.9297 27.1875C39.9297 27.3333 39.8294 27.543 39.6289 27.8164C39.4284 28.0716 39.2279 28.1992 39.0273 28.1992C38.9362 28.1992 38.8359 28.1628 38.7266 28.0898C38.6354 27.9987 38.5534 27.9258 38.4805 27.8711C38.4258 27.7982 38.3802 27.7435 38.3438 27.707C38.0156 27.3607 37.6784 27.0508 37.332 26.7773C37.0039 26.5039 36.6849 26.2669 36.375 26.0664C36.0833 25.8477 35.8828 25.7018 35.7734 25.6289C35.5365 25.4466 35.418 25.2826 35.418 25.1367ZM41.1055 32.2461C41.1055 32.1185 41.1784 31.8906 41.3242 31.5625C41.8164 30.6328 42.2357 29.6667 42.582 28.6641C42.9466 27.6432 43.2201 26.75 43.4023 25.9844C43.6029 25.2005 43.7031 24.7357 43.7031 24.5898C43.7031 24.3893 43.6667 24.207 43.5938 24.043C43.5755 24.0065 43.5664 23.9518 43.5664 23.8789C43.5664 23.7331 43.6484 23.6602 43.8125 23.6602C43.9401 23.6602 44.1406 23.7057 44.4141 23.7969C44.6875 23.888 44.9245 24.0156 45.125 24.1797C45.3438 24.3438 45.4531 24.526 45.4531 24.7266C45.4531 24.7995 45.444 24.8542 45.4258 24.8906C45.1888 25.6927 44.8698 26.5859 44.4688 27.5703L47.6406 27.2422C47.6953 27.2422 47.8229 27.2331 48.0234 27.2148C48.224 27.1966 48.4518 27.1419 48.707 27.0508C48.8164 27.0143 48.8893 26.9961 48.9258 26.9961C49.1445 26.9961 49.4089 27.1328 49.7188 27.4062C50.0286 27.6797 50.1836 27.8984 50.1836 28.0625C50.1836 28.2995 50.0195 28.4362 49.6914 28.4727L43.8672 28.9102C43.612 29.4023 43.2747 29.9948 42.8555 30.6875C42.8372 30.7057 42.8464 30.7148 42.8828 30.7148C42.9193 30.6966 42.9557 30.6875 42.9922 30.6875H43.0742C43.293 30.7604 43.5391 30.7969 43.8125 30.7969L44.2227 30.7695L47.8594 30.4688H48.0234C48.1875 30.4688 48.4154 30.5326 48.707 30.6602C49.0169 30.7878 49.1719 30.9609 49.1719 31.1797C49.1719 31.362 49.0898 31.5352 48.9258 31.6992C48.7799 31.8451 48.6979 31.9362 48.6797 31.9727C48.0052 32.9935 47.2031 33.9505 46.2734 34.8438C46.5104 35.3906 46.6927 35.974 46.8203 36.5938L48.1055 36.5117C48.543 36.4935 48.944 36.4297 49.3086 36.3203C49.418 36.2839 49.4818 36.2656 49.5 36.2656C49.6823 36.2656 49.9284 36.3932 50.2383 36.6484C50.5482 36.8854 50.7031 37.1133 50.7031 37.332C50.7031 37.569 50.5208 37.7057 50.1562 37.7422L47.0391 37.9336C47.2031 38.9362 47.2852 40.0117 47.2852 41.1602C47.2852 42.6367 47.1302 43.7031 46.8203 44.3594C46.5286 45.0156 46.1367 45.3438 45.6445 45.3438C45.3164 45.3438 44.9062 45.1432 44.4141 44.7422C43.9219 44.3229 43.4844 43.8581 43.1016 43.3477C42.7188 42.8372 42.5273 42.4818 42.5273 42.2812C42.5273 42.1719 42.582 42.1172 42.6914 42.1172C42.8555 42.1172 43.1016 42.2266 43.4297 42.4453C44.4141 43.1016 45.0065 43.4297 45.207 43.4297C45.3711 43.4297 45.4622 43.3477 45.4805 43.1836C45.6628 42.2721 45.7539 41.306 45.7539 40.2852C45.7539 39.4831 45.6992 38.7266 45.5898 38.0156L43.457 38.1523L42.9922 38.1797C42.4818 38.1797 42.1081 38.0521 41.8711 37.7969C41.6523 37.5234 41.5065 37.2318 41.4336 36.9219L41.4062 36.8125C41.4062 36.7214 41.4609 36.6758 41.5703 36.6758L41.707 36.7031C42.1081 36.7943 42.4818 36.8398 42.8281 36.8398H43.0742L45.2891 36.6758C45.0703 35.8737 44.7422 35.0898 44.3047 34.3242C44.25 34.2148 44.2227 34.1237 44.2227 34.0508C44.2227 33.9049 44.3411 33.7591 44.5781 33.6133C44.8333 33.4492 45.043 33.3672 45.207 33.3672C45.3893 33.3672 45.5443 33.4766 45.6719 33.6953C46.237 33.0573 46.7018 32.4193 47.0664 31.7812L44.6602 32.0547L44.0039 32.1094C43.7305 32.1094 43.4935 32.0365 43.293 31.8906C43.1107 31.7448 42.9466 31.4258 42.8008 30.9336C42.7826 30.8971 42.7734 30.8424 42.7734 30.7695C42.5 31.2253 42.2174 31.6263 41.9258 31.9727C41.6341 32.3008 41.4154 32.4648 41.2695 32.4648C41.1602 32.4648 41.1055 32.3919 41.1055 32.2461Z" fill="#333333"/>
<path d="M99.2109 35.2266C99.1016 35.2266 98.9557 35.1081 98.7734 34.8711C98.5911 34.6159 98.5091 34.3971 98.5273 34.2148C98.5638 34.069 98.5911 33.6589 98.6094 32.9844C98.6276 32.5286 98.6367 31.7266 98.6367 30.5781C98.6367 29.776 98.6276 29.2383 98.6094 28.9648L97.707 29.0469C97.069 29.138 96.5221 29.1836 96.0664 29.1836C95.9388 29.1836 95.7565 29.0833 95.5195 28.8828C95.2826 28.6823 95.1641 28.5365 95.1641 28.4453C95.1641 28.2995 95.319 28.2448 95.6289 28.2812C95.8294 28.2995 96.4219 28.2904 97.4062 28.2539C98.7552 28.1628 99.7305 28.1081 100.332 28.0898C100.642 28.0716 100.924 28.0443 101.18 28.0078C101.453 27.9531 101.645 27.9167 101.754 27.8984C101.918 27.8802 102.064 27.8984 102.191 27.9531C102.319 28.0078 102.438 28.0807 102.547 28.1719C102.674 28.2448 102.775 28.2995 102.848 28.3359C103.012 28.4453 103.094 28.5456 103.094 28.6367C103.094 28.7096 103.048 28.7826 102.957 28.8555C102.884 28.9102 102.802 28.9375 102.711 28.9375C102.62 28.9375 102.492 28.9284 102.328 28.9102C102.182 28.8919 102.018 28.8828 101.836 28.8828C101.161 28.8828 100.469 28.901 99.7578 28.9375C99.7396 29.0833 99.7305 29.4479 99.7305 30.0312C99.694 31.0156 99.6758 31.9818 99.6758 32.9297V33.9961V34.2422C99.6758 34.5521 99.6484 34.7526 99.5938 34.8438C99.4297 35.099 99.3021 35.2266 99.2109 35.2266ZM96.2852 41.707C96.0846 41.707 95.8385 41.5521 95.5469 41.2422C95.3281 41.0234 95.2188 40.8594 95.2188 40.75C95.2188 40.6953 95.2552 40.668 95.3281 40.668C95.401 40.6497 95.4922 40.6406 95.6016 40.6406L96.2031 40.6133C96.5495 40.6133 96.7773 40.6042 96.8867 40.5859C97.2331 40.5859 97.5247 40.5768 97.7617 40.5586C99.3294 40.4128 100.387 40.2943 100.934 40.2031C101.207 40.1667 101.453 40.1302 101.672 40.0938C101.891 40.0391 102.064 40.0117 102.191 40.0117C102.447 40.0117 102.702 40.1393 102.957 40.3945C103.158 40.5951 103.258 40.7591 103.258 40.8867C103.258 40.9961 103.194 41.069 103.066 41.1055C102.975 41.1237 102.438 41.1602 101.453 41.2148C100.906 41.2331 100.232 41.2786 99.4297 41.3516C98.6276 41.4245 97.9258 41.4974 97.3242 41.5703C97.2148 41.5885 97.0599 41.6159 96.8594 41.6523C96.6589 41.6888 96.4674 41.707 96.2852 41.707ZM104.242 34.8164C104.333 34.8164 104.47 34.8802 104.652 35.0078C104.634 35.0443 104.671 35.1172 104.762 35.2266C104.853 35.3177 104.917 35.3815 104.953 35.418C105.044 35.5091 105.135 35.6185 105.227 35.7461C105.336 35.8737 105.454 36.0104 105.582 36.1562C105.91 36.5026 106.667 37.4049 107.852 38.8633C108.052 39.1549 108.152 39.3281 108.152 39.3828C108.152 39.5651 108.043 39.6562 107.824 39.6562C107.697 39.6562 107.56 39.5651 107.414 39.3828C107.068 39.0182 106.448 38.444 105.555 37.6602C104.862 37.0221 104.233 36.5299 103.668 36.1836C103.395 36.056 103.258 35.9102 103.258 35.7461C103.258 35.6185 103.395 35.4362 103.668 35.1992C103.923 34.944 104.115 34.8164 104.242 34.8164ZM76.543 32.4648C76.543 32.7383 76.6432 32.9479 76.8438 33.0938C77.0625 33.2396 77.4818 33.3125 78.1016 33.3125C78.8125 33.3125 79.3867 33.2578 79.8242 33.1484C80.2617 33.0391 80.5534 32.9297 80.6992 32.8203C80.7539 32.7839 80.8268 32.7656 80.918 32.7656C81.1003 32.7656 81.3008 32.9115 81.5195 33.2031C81.7383 33.4766 81.8477 33.6953 81.8477 33.8594C81.8477 34.0417 81.6745 34.1602 81.3281 34.2148C79.724 34.3971 78.5391 34.4883 77.7734 34.4883C76.7344 34.4883 76.0234 34.3698 75.6406 34.1328C75.2578 33.8958 75.0664 33.4492 75.0664 32.793V32.6289L75.0938 32.1641L74.3555 32.2461C74.1914 32.2643 73.9818 32.2734 73.7266 32.2734C73.2344 32.2734 72.8971 32.1276 72.7148 31.8359C72.5326 31.5443 72.4414 31.3164 72.4414 31.1523C72.4414 31.0794 72.487 31.043 72.5781 31.043L72.7148 31.0703C72.9701 31.125 73.2344 31.1523 73.5078 31.1523C73.7448 31.1523 73.9271 31.1432 74.0547 31.125L75.1484 31.0156L75.2305 29.5938L72.332 29.7578C72.3138 30.0495 72.3047 30.487 72.3047 31.0703C72.2865 31.4531 72.25 32.3555 72.1953 33.7773C72.1589 35.1992 72.0859 36.4479 71.9766 37.5234C71.8125 39.3464 71.4753 41.0326 70.9648 42.582C70.4544 44.1133 69.9167 45.3346 69.3516 46.2461C68.8047 47.1758 68.4036 47.6406 68.1484 47.6406C68.0026 47.6406 67.9297 47.5312 67.9297 47.3125C67.9297 47.0755 68.0026 46.8112 68.1484 46.5195C69.1146 44.4779 69.7526 42.2174 70.0625 39.7383C70.3724 37.2409 70.5547 34.3151 70.6094 30.9609V30.2773C70.6094 29.4753 70.5182 28.8281 70.3359 28.3359C70.263 28.1172 70.2266 27.9805 70.2266 27.9258C70.2266 27.8164 70.2812 27.7617 70.3906 27.7617C70.6458 27.7617 71.3385 28.0443 72.4688 28.6094L75.3125 28.418L75.3672 25.2734C75.3672 24.9818 75.3307 24.7357 75.2578 24.5352C75.2031 24.3164 75.1029 24.0885 74.957 23.8516L74.9023 23.7148C74.9023 23.6237 74.9935 23.5781 75.1758 23.5781C75.6862 23.5964 76.1146 23.6875 76.4609 23.8516C76.8073 23.9974 76.9805 24.2161 76.9805 24.5078L76.9531 25.793L78.6484 25.6836C79.1042 25.6654 79.5143 25.5742 79.8789 25.4102C80.0247 25.3555 80.1615 25.3281 80.2891 25.3281C80.526 25.3281 80.8086 25.4557 81.1367 25.7109C81.4831 25.9661 81.6562 26.194 81.6562 26.3945C81.6562 26.5951 81.4102 26.7135 80.918 26.75L76.9258 26.9961V28.3086L81.8203 27.9531H82.0938C82.3854 27.9531 82.6589 28.0625 82.9141 28.2812C83.1875 28.4818 83.3242 28.6732 83.3242 28.8555C83.3242 28.9831 83.2422 29.1289 83.0781 29.293C82.9141 29.457 82.8047 29.5755 82.75 29.6484C81.7656 31.1432 81.082 31.8906 80.6992 31.8906C80.5716 31.8906 80.5078 31.8086 80.5078 31.6445C80.5078 31.4987 80.5807 31.2617 80.7266 30.9336C80.8906 30.5872 81.0729 30.0221 81.2734 29.2383L76.7344 29.5117L76.625 30.8516L77.582 30.7695C78.1289 30.6966 78.5664 30.6146 78.8945 30.5234C78.9492 30.5052 79.0221 30.4961 79.1133 30.4961C79.168 30.4961 79.2865 30.5417 79.4688 30.6328C79.651 30.7057 79.8151 30.8151 79.9609 30.9609C80.1068 31.0885 80.1797 31.2253 80.1797 31.3711C80.1797 31.4622 80.1432 31.5443 80.0703 31.6172C79.9974 31.6901 79.8971 31.7266 79.7695 31.7266L76.543 32.0273V32.4648ZM70.5547 46.0547C70.5547 45.9271 70.6276 45.8633 70.7734 45.8633C70.8464 45.8633 70.901 45.8724 70.9375 45.8906C71.2292 45.9635 71.5391 46 71.8672 46C72.1042 46 72.7057 45.9271 73.6719 45.7812C74.6562 45.6354 75.8594 45.4258 77.2812 45.1523C77.5547 44.8242 77.8555 44.3776 78.1836 43.8125C78.5299 43.2292 78.7031 42.737 78.7031 42.3359V42.1992C78.7031 42.0169 78.7669 41.9258 78.8945 41.9258C79.0951 41.9258 79.3776 42.0716 79.7422 42.3633C80.125 42.6549 80.3164 42.9102 80.3164 43.1289C80.3164 43.2201 80.1615 43.457 79.8516 43.8398C79.5599 44.2044 79.2956 44.5052 79.0586 44.7422C80.1888 44.487 81.2734 44.2044 82.3125 43.8945C82.4219 43.8581 82.5586 43.8398 82.7227 43.8398C82.8503 43.8398 82.9414 43.8672 82.9961 43.9219C83.069 43.9583 83.1055 44.013 83.1055 44.0859C83.1055 44.2865 82.8867 44.4779 82.4492 44.6602C80.7174 45.3164 79.0859 45.8542 77.5547 46.2734C76.0234 46.7109 74.7656 47.0299 73.7812 47.2305C72.7969 47.431 72.2409 47.5312 72.1133 47.5312C71.8398 47.5312 71.5846 47.431 71.3477 47.2305C71.1107 47.0482 70.9193 46.8294 70.7734 46.5742C70.6276 46.3372 70.5547 46.1641 70.5547 46.0547ZM72.5234 35.6094C72.5234 35.5365 72.569 35.5 72.6602 35.5H72.7695C73.0794 35.5729 73.4349 35.6094 73.8359 35.6094H74.2188L79.2773 35.418C79.7148 35.3997 80.1615 35.3086 80.6172 35.1445C80.6536 35.1263 80.7174 35.1172 80.8086 35.1172C81.0273 35.1172 81.319 35.2995 81.6836 35.6641C81.9023 35.901 82.0117 36.0924 82.0117 36.2383C82.0117 36.4023 81.8568 36.5026 81.5469 36.5391L74.6562 36.8125L74.0547 36.8398C73.6536 36.8398 73.3346 36.7578 73.0977 36.5938C72.8789 36.4297 72.6966 36.1471 72.5508 35.7461C72.5326 35.7096 72.5234 35.6641 72.5234 35.6094ZM72.9062 37.8242C72.9062 37.7148 72.9883 37.6602 73.1523 37.6602C73.3346 37.6602 73.8633 37.7969 74.7383 38.0703L80.1797 37.7695L80.4805 37.7422C80.6628 37.7422 80.8177 37.7969 80.9453 37.9062C81.2917 38.1432 81.4648 38.3529 81.4648 38.5352C81.4648 38.6263 81.4284 38.7266 81.3555 38.8359C81.3008 38.9271 81.2643 39 81.2461 39.0547L80.7812 40.5039C81.2552 40.9596 81.4922 41.2695 81.4922 41.4336C81.4922 41.5247 81.4375 41.5885 81.3281 41.625C81.237 41.6432 81.1276 41.6523 81 41.6523L75.1211 41.8984V41.9531C75.1211 42.0807 75.0846 42.1901 75.0117 42.2812C74.9388 42.3542 74.8385 42.3906 74.7109 42.3906C74.474 42.3906 74.2096 42.3086 73.918 42.1445C73.6445 41.9805 73.5078 41.7982 73.5078 41.5977V41.543C73.526 41.3971 73.5352 41.1875 73.5352 40.9141C73.5352 40.6953 73.526 40.5312 73.5078 40.4219L73.3438 39.3008C73.3073 38.9362 73.1979 38.5625 73.0156 38.1797C72.9427 37.9974 72.9062 37.8789 72.9062 37.8242ZM74.2461 43.2383C74.2461 43.0742 74.3372 42.9102 74.5195 42.7461C74.7018 42.582 74.875 42.5 75.0391 42.5C75.3672 42.5 75.9141 43.0651 76.6797 44.1953C76.7526 44.3411 76.7891 44.4414 76.7891 44.4961C76.7891 44.6784 76.6523 44.8698 76.3789 45.0703C76.1784 45.2161 75.9961 45.2891 75.832 45.2891C75.668 45.2891 75.513 45.1615 75.3672 44.9062C75.0573 44.3958 74.7292 43.9492 74.3828 43.5664C74.2917 43.4388 74.2461 43.3294 74.2461 43.2383ZM74.9844 40.6953L79.2773 40.5312L79.6602 39L74.8203 39.2188L74.9844 40.6953ZM81.6289 47.0391C81.6289 46.8385 81.8021 46.5924 82.1484 46.3008C83.9896 44.7513 85.5208 43.138 86.7422 41.4609C86.2135 39.6745 85.7669 37.6237 85.4023 35.3086L85.2383 33.75L84.1172 33.9141C83.8255 33.9505 83.6159 33.9688 83.4883 33.9688C83.1784 33.9688 82.9141 33.8867 82.6953 33.7227C82.4766 33.5586 82.3125 33.3672 82.2031 33.1484C82.0938 32.9297 82.0391 32.7747 82.0391 32.6836C82.0391 32.5924 82.0938 32.5469 82.2031 32.5469L82.3125 32.5742C82.4583 32.6107 82.668 32.6289 82.9414 32.6289C83.1602 32.6289 83.3333 32.6198 83.4609 32.6016L85.0469 32.3555C84.8099 30.332 84.6276 28.0443 84.5 25.4922C84.4635 24.9453 84.3268 24.526 84.0898 24.2344C84.0169 24.1432 83.9805 24.0612 83.9805 23.9883C83.9805 23.8789 84.0807 23.8242 84.2812 23.8242C84.5911 23.8242 84.9648 23.9154 85.4023 24.0977C85.8581 24.2799 86.0859 24.5169 86.0859 24.8086C86.1771 27.2513 86.3594 29.6849 86.6328 32.1094L89.5859 31.6719C89.9688 31.6172 90.2786 31.5078 90.5156 31.3438C90.5521 31.3073 90.6159 31.2891 90.707 31.2891C90.9258 31.2891 91.2266 31.4349 91.6094 31.7266C91.9922 32.0182 92.1836 32.2461 92.1836 32.4102C92.1836 32.6107 91.974 32.7383 91.5547 32.793L86.7969 33.5039L86.9609 35.0898C87.2344 36.9128 87.5443 38.4714 87.8906 39.7656C88.3646 38.9635 88.8203 38.043 89.2578 37.0039C89.6953 35.9466 89.9141 35.1719 89.9141 34.6797C89.9141 34.4792 89.987 34.3789 90.1328 34.3789C90.3698 34.3789 90.6888 34.543 91.0898 34.8711C91.5091 35.1992 91.7188 35.4727 91.7188 35.6914C91.7188 35.7461 91.7096 35.7917 91.6914 35.8281C91.6732 35.8646 91.6549 35.901 91.6367 35.9375C90.6341 38.125 89.5586 40.0026 88.4102 41.5703C89.2669 44.0312 90.2604 45.6172 91.3906 46.3281L91.5273 46.3828C91.6185 46.3828 91.7734 46.0365 91.9922 45.3438C92.2292 44.6328 92.4753 43.6484 92.7305 42.3906C92.8034 42.0443 92.8854 41.7799 92.9766 41.5977C93.0859 41.4154 93.1862 41.3242 93.2773 41.3242C93.3685 41.3242 93.4414 41.4245 93.4961 41.625C93.569 41.8073 93.6055 42.0625 93.6055 42.3906V42.5547C93.5872 43.375 93.5326 44.1497 93.4414 44.8789C93.3685 45.5898 93.2135 46.4284 92.9766 47.3945C92.8854 47.7773 92.7578 48.0417 92.5938 48.1875C92.4479 48.3333 92.2474 48.4062 91.9922 48.4062C91.8281 48.4062 91.6367 48.3789 91.418 48.3242C90.8529 48.1966 90.1875 47.7227 89.4219 46.9023C88.6562 46.1003 87.9362 44.7969 87.2617 42.9922C86.5326 43.7943 85.7852 44.5234 85.0195 45.1797C84.2539 45.8177 83.5794 46.319 82.9961 46.6836C82.431 47.0482 82.0573 47.2305 81.875 47.2305C81.7109 47.2305 81.6289 47.1667 81.6289 47.0391ZM87.0977 26.8594C87.0977 26.7318 87.1888 26.5768 87.3711 26.3945C87.5534 26.2122 87.7448 26.1211 87.9453 26.1211C88.0911 26.1211 88.2188 26.194 88.3281 26.3398C88.8385 26.8685 89.3672 27.4701 89.9141 28.1445C90.4792 28.819 90.7617 29.2565 90.7617 29.457C90.7617 29.6029 90.6432 29.7852 90.4062 30.0039C90.1693 30.2227 89.9596 30.332 89.7773 30.332C89.6315 30.332 89.4948 30.25 89.3672 30.0859C88.8203 29.1745 88.1094 28.2174 87.2344 27.2148C87.1432 27.0872 87.0977 26.9688 87.0977 26.8594Z" fill="#333333"/>
</svg>
