<svg xmlns="http://www.w3.org/2000/svg" width="135" height="70" fill="none"><path fill="#333" d="M54.285 32.137c-.2 0-.446-.155-.738-.465-.219-.219-.328-.383-.328-.492 0-.055.036-.082.11-.082.072-.019.163-.028.273-.028l.601-.027c.346 0 .574-.01.684-.027.346 0 .638-.01.875-.028 1.567-.146 2.625-.264 3.172-.355.273-.037.52-.073.738-.11.219-.054.392-.082.52-.082.255 0 .51.128.765.383.2.2.3.365.3.492 0 .11-.063.183-.19.22-.092.017-.63.054-1.614.108-.547.019-1.221.064-2.023.137-.802.073-1.504.146-2.106.219-.11.018-.264.046-.465.082a3.21 3.21 0 0 1-.574.055Zm6.426 12.414c-.018.018-.064.027-.137.027-.146 0-.355-.1-.629-.3a72.922 72.922 0 0 0-2.433-2.297c-.474.473-.92.884-1.34 1.23-.146.11-.401.273-.766.492-.528.31-1.039.501-1.531.574h-.164c-.164 0-.264-.018-.3-.054-.02-.019.017-.055.108-.11.11-.054.192-.1.247-.136.109-.055.419-.256.93-.602.255-.182.62-.492 1.093-.93.474-.437.82-.793 1.04-1.066l-1.122-.875c-.2-.146-.42-.3-.656-.465a4.54 4.54 0 0 0-.465-.355l-.027-.082c0-.11.09-.164.273-.164.219 0 .574.136 1.066.41l1.395.902c.31-.401.62-.839.93-1.313.328-.492.501-.783.52-.874.017-.055.008-.1-.028-.137-.018-.055-.055-.082-.11-.082h-.546l-.985.082c-.492.036-.984.1-1.476.191a7.458 7.458 0 0 1-.274.082 1.224 1.224 0 0 1-.328.055c-.036 0-.191-.1-.465-.3-.255-.22-.392-.356-.41-.411-.018-.018-.027-.046-.027-.082 0-.091.1-.128.3-.11h.383c.51 0 1.249-.045 2.215-.136l.93-.082.848-.11c.273-.073.428-.109.464-.109h.055a.4.4 0 0 1 .246.082c.073.055.128.11.164.164a.823.823 0 0 0 .082.11l.164.164a.432.432 0 0 1 .164.218.338.338 0 0 1 .055.192c0 .164-.064.282-.191.355-.091.037-.256.228-.492.574a25.744 25.744 0 0 1-1.45 2.051c.31.2.711.492 1.203.875.22.146.575.392 1.067.739.218.164.383.382.492.656.073.291.11.51.11.656-.019.146-.083.246-.192.3Zm5.031-11.922c.219 0 .328.1.328.3 0 .11-.1.265-.3.465-.547.675-1.632 1.96-3.254 3.856-.128.164-.246.246-.356.246-.091 0-.291-.137-.601-.41-.256-.219-.383-.401-.383-.547 0-.164.136-.319.41-.465.42-.237 1.048-.71 1.887-1.422.838-.747 1.458-1.34 1.859-1.777.164-.164.3-.246.41-.246ZM49.773 48.352c-2.096 0-4.63-.246-7.601-.739a227.544 227.544 0 0 1-9.488-1.804c-1.058-.22-1.905-.328-2.543-.328-.894 0-1.832.163-2.817.492-.164.054-.31.082-.437.082-.456 0-.684-.392-.684-1.176 0-.146.046-.255.137-.328.091-.091.273-.164.547-.219.273-.073.71-.155 1.312-.246 1.24-1.13 2.297-2.242 3.172-3.336a.479.479 0 0 0 .055-.137c0-.11-.2-.319-.602-.629a14.589 14.589 0 0 0-1.394-1.039c-.474-.31-.711-.665-.711-1.066 0-.31.155-.702.465-1.176l1.75-2.543-2.516.328-.574.055a1.22 1.22 0 0 1-.957-.438c-.256-.291-.42-.583-.492-.874a.382.382 0 0 1-.028-.165c0-.127.055-.191.164-.191l.164.027c.274.055.547.082.82.082.183 0 .32-.009.41-.027L32 32.519l.273-.027c.055 0 .174.046.356.137.182.073.346.182.492.328a.57.57 0 0 1 .219.438c0 .164-.073.319-.219.464a1.816 1.816 0 0 0-.273.274c-.037.054-.465.62-1.285 1.695-.82 1.057-1.231 1.659-1.231 1.805 0 .073.046.136.137.191.601.383 1.303.948 2.105 1.696.347.31.52.674.52 1.093 0 .383-.164.757-.492 1.121-1.076 1.149-1.796 1.896-2.16 2.243.692.018 1.521.118 2.488.3 7.802 1.55 13.68 2.325 17.636 2.325h.137c.42 0 .629.082.629.246 0 .054-.064.21-.191.465-.11.255-.265.492-.465.71a.934.934 0 0 1-.711.329h-.192ZM27.871 26.203c0-.146.119-.31.356-.492.236-.182.428-.273.574-.273.182 0 .61.319 1.285.957.693.638 1.34 1.321 1.941 2.05.62.711.93 1.158.93 1.34 0 .182-.128.401-.383.656-.237.256-.474.383-.71.383-.22 0-.438-.173-.657-.52a25.062 25.062 0 0 0-3.008-3.554c-.219-.219-.328-.401-.328-.547Zm4.785 17.2c0-.22.119-.502.356-.848a18.718 18.718 0 0 0 2.242-5.387c.492-1.95.793-4.202.902-6.754l-.957.082a4.54 4.54 0 0 1-.547.027c-.31 0-.547-.063-.71-.191a2.367 2.367 0 0 1-.547-1.039.305.305 0 0 1-.028-.137c0-.073.046-.11.137-.11h.055c.145 0 .346.02.601.056.255.036.456.054.602.054h.246l3.965-.273c.328-.018.702-.11 1.12-.274.055-.036.147-.054.274-.054.237 0 .52.136.848.41.346.273.52.492.52.656 0 .091-.055.173-.165.246a.954.954 0 0 1-.437.137l-3.39.3c-.074 1.022-.147 1.778-.22 2.27l2.079-.11h.218c.292 0 .529.065.711.192.31.274.465.52.465.739 0 .072-.018.173-.055.3a2.858 2.858 0 0 0-.082.383c-.109 2.844-.364 5.46-.765 7.848-.164.93-.438 1.558-.82 1.886-.383.329-.702.493-.958.493-.528 0-1.285-.793-2.27-2.38-.163-.254-.245-.446-.245-.573 0-.128.064-.192.191-.192.128 0 .32.1.574.3.547.438 1.021.748 1.422.93.019.019.055.028.11.028.109 0 .182-.046.218-.137.328-1.258.556-2.552.684-3.883.146-1.33.255-2.843.328-4.539l-1.969.082c-.255 1.95-.674 3.655-1.257 5.114-.566 1.44-1.395 2.78-2.489 4.02-.346.364-.601.546-.765.546-.128 0-.192-.073-.192-.219Zm2.762-18.266c0-.164.082-.338.246-.52.182-.2.355-.3.52-.3.145 0 .528.209 1.148.628.638.401 1.23.83 1.777 1.285.547.456.82.775.82.957 0 .146-.1.356-.3.63-.2.255-.401.382-.602.382a.554.554 0 0 1-.3-.11 2.385 2.385 0 0 0-.246-.218 1.616 1.616 0 0 0-.137-.164 9.556 9.556 0 0 0-1.012-.93 9.934 9.934 0 0 0-.957-.71 16.292 16.292 0 0 0-.602-.438c-.237-.182-.355-.346-.355-.492Zm5.688 7.11c0-.129.072-.356.218-.684.492-.93.912-1.896 1.258-2.899.365-1.02.638-1.914.82-2.68.2-.784.301-1.248.301-1.394 0-.2-.036-.383-.11-.547a.38.38 0 0 1-.027-.164c0-.146.082-.219.246-.219.128 0 .329.046.602.137.273.091.51.219.711.383.219.164.328.346.328.547a.38.38 0 0 1-.027.164 28.892 28.892 0 0 1-.957 2.68l3.172-.329c.054 0 .182-.009.382-.027.201-.018.429-.073.684-.164a.893.893 0 0 1 .219-.055c.218 0 .483.137.793.41.31.274.465.492.465.657 0 .236-.164.373-.493.41l-5.824.437a31.93 31.93 0 0 1-1.011 1.777c-.019.019-.01.028.027.028a.243.243 0 0 1 .11-.027h.081c.219.072.465.109.739.109l.41-.027 3.636-.301h.164c.164 0 .392.064.684.191.31.128.465.3.465.52 0 .182-.082.355-.246.52-.146.145-.228.236-.246.273a16.907 16.907 0 0 1-2.407 2.87c.237.548.42 1.131.547 1.75l1.285-.081a4.886 4.886 0 0 0 1.204-.192c.109-.036.173-.054.191-.054.182 0 .428.127.738.382.31.237.465.465.465.684 0 .237-.182.374-.547.41l-3.117.192c.164 1.002.246 2.078.246 3.226 0 1.477-.155 2.543-.465 3.2-.291.656-.683.984-1.175.984-.329 0-.739-.2-1.23-.602a8.629 8.629 0 0 1-1.313-1.394c-.383-.51-.575-.866-.575-1.067 0-.11.055-.164.164-.164.164 0 .41.11.739.328.984.657 1.577.985 1.777.985.164 0 .255-.082.273-.246a14.76 14.76 0 0 0 .274-2.899c0-.802-.055-1.558-.164-2.27l-2.133.137-.465.028c-.51 0-.884-.128-1.12-.383a2.2 2.2 0 0 1-.438-.875l-.028-.11c0-.09.055-.136.164-.136l.137.027c.401.091.775.137 1.121.137h.246l2.215-.164a10.075 10.075 0 0 0-.984-2.352.645.645 0 0 1-.082-.273c0-.146.118-.292.355-.438.255-.164.465-.246.629-.246.182 0 .337.11.465.328a11.546 11.546 0 0 0 1.394-1.914l-2.406.274-.656.054c-.273 0-.51-.073-.711-.218-.182-.146-.346-.465-.492-.957a.382.382 0 0 1-.028-.165 9.27 9.27 0 0 1-.847 1.204c-.292.328-.51.492-.657.492-.109 0-.163-.073-.163-.219ZM99.21 35.227c-.108 0-.254-.119-.437-.356-.182-.255-.264-.474-.246-.656.037-.146.064-.556.082-1.23.019-.456.028-1.258.028-2.407 0-.802-.01-1.34-.028-1.613l-.902.082c-.638.091-1.185.137-1.64.137-.128 0-.31-.1-.547-.301-.237-.2-.356-.346-.356-.438 0-.146.155-.2.465-.164.2.018.793.01 1.777-.027a89.437 89.437 0 0 1 2.926-.164c.31-.018.592-.046.848-.082.273-.055.465-.091.574-.11.164-.018.31 0 .437.055.128.055.247.128.356.219.127.073.228.127.301.164.164.11.246.21.246.3 0 .074-.046.147-.137.22a.4.4 0 0 1-.246.081c-.091 0-.219-.009-.383-.027a3.985 3.985 0 0 0-.492-.027c-.675 0-1.367.018-2.078.055-.018.145-.027.51-.027 1.093-.037.985-.055 1.95-.055 2.899v1.312c0 .31-.028.51-.082.602-.164.255-.292.383-.383.383Zm-2.925 6.48c-.2 0-.447-.155-.738-.465-.219-.219-.328-.383-.328-.492 0-.055.036-.082.11-.082.072-.018.163-.027.273-.027l.601-.028c.346 0 .574-.009.684-.027.346 0 .638-.01.875-.027 1.567-.146 2.625-.265 3.172-.356.273-.036.519-.073.738-.11.219-.054.392-.081.519-.081.256 0 .511.127.766.383.201.2.301.364.301.492 0 .11-.064.182-.192.218-.091.019-.628.055-1.613.11a36.37 36.37 0 0 0-2.023.137 71.75 71.75 0 0 0-2.106.218l-.465.082a3.21 3.21 0 0 1-.574.055Zm7.957-6.89c.091 0 .228.063.41.19-.018.037.019.11.11.22l.191.191c.091.091.182.2.274.328.109.128.227.264.355.41.328.347 1.085 1.249 2.27 2.707.2.292.3.465.3.52 0 .182-.109.273-.328.273-.127 0-.264-.09-.41-.273-.346-.365-.966-.939-1.859-1.723-.693-.638-1.322-1.13-1.887-1.476-.273-.128-.41-.274-.41-.438 0-.128.137-.31.41-.547.255-.255.447-.383.574-.383Zm-27.699-2.352c0 .273.1.483.3.629.22.146.639.218 1.259.218.71 0 1.285-.054 1.722-.164.438-.109.73-.218.875-.328a.39.39 0 0 1 .219-.054c.182 0 .383.145.601.437.22.274.329.492.329.656 0 .183-.174.301-.52.356-1.604.182-2.789.273-3.555.273-1.039 0-1.75-.118-2.132-.355-.383-.237-.575-.684-.575-1.34v-.164l.028-.465-.738.082a5.903 5.903 0 0 1-.63.027c-.492 0-.829-.145-1.011-.437-.182-.292-.274-.52-.274-.684 0-.073.046-.109.137-.109l.137.027c.255.055.52.082.793.082.237 0 .42-.009.547-.027l1.093-.11.083-1.421-2.899.164c-.018.291-.027.729-.027 1.312-.019.383-.055 1.285-.11 2.707a50.271 50.271 0 0 1-.218 3.746c-.165 1.823-.502 3.51-1.012 5.059-.51 1.531-1.048 2.753-1.613 3.664-.547.93-.948 1.395-1.204 1.395-.145 0-.218-.11-.218-.328 0-.238.073-.502.218-.794.967-2.041 1.605-4.302 1.915-6.78.31-2.498.492-5.424.546-8.778v-.684c0-.802-.09-1.449-.273-1.941-.073-.219-.11-.355-.11-.41 0-.11.055-.164.165-.164.255 0 .947.282 2.078.847l2.844-.191.054-3.145c0-.291-.036-.537-.11-.738a2.448 2.448 0 0 0-.3-.683l-.055-.137c0-.091.091-.137.274-.137.51.018.939.11 1.285.274.346.145.52.364.52.656l-.028 1.285 1.695-.11c.456-.018.866-.109 1.23-.273.147-.055.284-.082.411-.082.237 0 .52.128.848.383.346.255.52.483.52.684 0 .2-.247.319-.739.355l-3.992.246v1.313l4.894-.356h.274c.291 0 .565.11.82.328.273.2.41.392.41.575 0 .127-.082.273-.246.437a4.014 4.014 0 0 0-.328.355c-.984 1.495-1.668 2.243-2.05 2.243-.128 0-.192-.082-.192-.246 0-.146.073-.383.219-.711.164-.347.346-.912.546-1.696l-4.539.274-.109 1.34.957-.082c.547-.073.984-.155 1.313-.247a.713.713 0 0 1 .218-.027c.055 0 .174.046.356.137.182.073.346.182.492.328.146.128.219.264.219.41a.34.34 0 0 1-.11.246.407.407 0 0 1-.3.11l-3.227.3v.438Zm-5.988 13.59c0-.128.073-.192.218-.192.073 0 .128.01.165.028.291.073.601.109.93.109.236 0 .838-.073 1.804-.219a87.492 87.492 0 0 0 3.61-.629c.273-.328.574-.774.902-1.34.346-.583.52-1.075.52-1.476v-.137c0-.182.063-.273.19-.273.201 0 .484.146.848.437.383.292.574.547.574.766 0 .091-.154.328-.464.71-.292.365-.556.666-.793.903a49.656 49.656 0 0 0 3.254-.847c.109-.037.246-.055.41-.055.127 0 .218.027.273.082.073.036.11.091.11.164 0 .2-.22.392-.657.574a54.497 54.497 0 0 1-4.894 1.613c-1.532.438-2.79.757-3.774.957-.984.201-1.54.301-1.668.301-.273 0-.528-.1-.765-.3a2.197 2.197 0 0 1-.575-.657c-.145-.237-.218-.41-.218-.52Zm1.968-10.446c0-.073.046-.109.137-.109h.11c.31.073.665.11 1.066.11h.383l5.058-.192c.438-.018.885-.11 1.34-.273a.47.47 0 0 1 .192-.028c.218 0 .51.183.875.547.218.237.328.428.328.574 0 .164-.155.265-.465.301l-6.89.273-.602.028c-.401 0-.72-.082-.957-.246-.22-.164-.401-.447-.547-.848a.305.305 0 0 1-.028-.137Zm.383 2.215c0-.11.082-.164.246-.164.183 0 .711.137 1.586.41l5.442-.3.3-.028a.69.69 0 0 1 .465.164c.347.237.52.447.52.63a.554.554 0 0 1-.11.3 1.198 1.198 0 0 0-.109.219l-.465 1.449c.474.456.711.766.711.93 0 .09-.055.155-.164.191a1.7 1.7 0 0 1-.328.027l-5.879.246v.055a.509.509 0 0 1-.11.328.406.406 0 0 1-.3.11c-.237 0-.501-.082-.793-.246-.274-.165-.41-.347-.41-.547v-.055c.018-.146.027-.355.027-.629 0-.219-.009-.383-.027-.492l-.164-1.121a3.395 3.395 0 0 0-.328-1.121c-.073-.183-.11-.301-.11-.356Zm1.34 5.414c0-.164.091-.328.273-.492.183-.164.356-.246.52-.246.328 0 .875.565 1.64 1.695.074.146.11.246.11.301 0 .182-.137.374-.41.574-.2.146-.383.22-.547.22-.164 0-.319-.129-.465-.384a8.786 8.786 0 0 0-.984-1.34c-.091-.127-.137-.237-.137-.328Zm.738-2.543 4.293-.164L79.66 39l-4.84.219.164 1.476Zm6.645 6.344c0-.2.173-.447.52-.738 1.84-1.55 3.372-3.163 4.593-4.84-.529-1.786-.975-3.837-1.34-6.152l-.164-1.559-1.12.164a5.794 5.794 0 0 1-.63.055c-.31 0-.574-.082-.793-.246a1.629 1.629 0 0 1-.492-.575c-.11-.218-.164-.373-.164-.464 0-.092.055-.137.164-.137l.11.027c.145.037.355.055.628.055.22 0 .392-.01.52-.027l1.586-.246a104.31 104.31 0 0 1-.547-6.864c-.037-.547-.173-.966-.41-1.258-.073-.09-.11-.173-.11-.246 0-.11.1-.164.301-.164.31 0 .684.091 1.121.274.456.182.684.419.684.71a97.64 97.64 0 0 0 .547 7.301l2.953-.437c.383-.055.693-.164.93-.328.036-.037.1-.055.191-.055.219 0 .52.146.902.438.383.291.575.52.575.683 0 .2-.21.328-.63.383l-4.757.71.164 1.587c.273 1.823.583 3.381.93 4.676.474-.802.93-1.723 1.367-2.762.437-1.057.656-1.832.656-2.324 0-.2.073-.301.219-.301.237 0 .556.164.957.492.42.328.629.602.629.82 0 .055-.01.1-.028.137l-.054.11c-1.003 2.187-2.078 4.065-3.227 5.632.857 2.461 1.85 4.047 2.98 4.758l.137.055c.091 0 .246-.347.465-1.04.237-.71.483-1.695.739-2.952.072-.347.154-.611.246-.793.109-.183.21-.274.3-.274.091 0 .164.1.22.301.072.182.109.438.109.766v.164c-.019.82-.073 1.595-.165 2.324-.073.71-.228 1.55-.464 2.516-.092.382-.22.647-.383.792-.146.146-.347.22-.602.22-.164 0-.355-.028-.574-.083-.565-.127-1.23-.601-1.996-1.422-.766-.802-1.486-2.105-2.16-3.91a25.192 25.192 0 0 1-2.243 2.188c-.765.638-1.44 1.139-2.023 1.504-.565.364-.939.547-1.121.547-.164 0-.246-.064-.246-.192Zm5.469-20.18c0-.127.09-.282.273-.465.182-.182.374-.273.574-.273.146 0 .274.073.383.219.51.529 1.04 1.13 1.586 1.805.565.674.848 1.111.848 1.312 0 .146-.119.328-.356.547-.237.219-.446.328-.629.328-.145 0-.282-.082-.41-.246-.547-.912-1.258-1.869-2.133-2.871a.624.624 0 0 1-.136-.356Z"/></svg>