<svg xmlns="http://www.w3.org/2000/svg" width="120" height="40" fill="none"><path fill="#333" d="M35.156 23.563c-.203 0-.414-.032-.633-.094-.218-.078-.375-.164-.468-.258a1.005 1.005 0 0 1-.188-.328 1.795 1.795 0 0 1-.07-.469l.094-4.055c0-.28-.04-.523-.118-.726a.327.327 0 0 1-.023-.14c0-.11.055-.165.164-.165.094 0 .195.031.305.094.562.25.804.484.726.703-.093.234-.164.734-.21 1.5a61.716 61.716 0 0 0-.047 2.508.9.9 0 0 0 .093.445c.078.094.211.133.399.117.406-.03.656-.078.75-.14.11-.078.18-.125.21-.14.22 0 .383.038.493.116.125.078.187.18.187.305 0 .219-.125.383-.375.492-.14.063-.343.117-.61.164-.25.047-.476.07-.679.07Zm-4.593.093a.327.327 0 0 1-.141-.023c-.031-.016-.047-.04-.047-.07 0-.032.117-.149.352-.352.25-.219.484-.563.703-1.031.156-.328.265-.64.328-.938.062-.297.11-.586.14-.867.032-.297.055-.5.07-.61.016-.25.024-.562.024-.937s-.039-.625-.117-.75a.36.36 0 0 1-.047-.14c0-.063.024-.118.07-.165a.225.225 0 0 1 .165-.07c.124 0 .28.031.468.094.203.047.344.117.422.21.047.063.07.165.07.305l-.046.493c0 .078-.016.242-.047.492l-.117 1.008a6.686 6.686 0 0 1-.235 1.336c-.11.343-.258.625-.445.843a4.476 4.476 0 0 1-.89.797c-.345.25-.571.375-.68.375Zm7.359-8.226c.078 0 .195.054.351.164-.015.031.016.094.094.187l.164.164c.078.078.157.172.235.282.093.109.195.226.304.351.282.297.93 1.07 1.946 2.32.172.25.257.399.257.446 0 .156-.093.234-.28.234-.11 0-.227-.078-.352-.234-.297-.313-.828-.805-1.594-1.477-.594-.547-1.133-.969-1.617-1.265-.235-.11-.352-.235-.352-.375 0-.11.117-.266.352-.47.218-.218.383-.327.492-.327ZM9.445 12.36h17.133v1.898H9.445v-1.899ZM7.43 26.515h21.164v1.922H7.43v-1.922ZM69.445 16.695c-.203 0-.351-.07-.445-.21a2.745 2.745 0 0 0-.422-.493c-.125-.125-.351-.297-.68-.515l.07-.118c.72.25 1.227.375 1.524.375.25 0 .524-.14.82-.421.313-.297.579-.72.797-1.266.11-.25.188-.453.235-.61.062-.171.11-.359.14-.562v-.047c0-.14-.07-.21-.21-.21-.157 0-.438.046-.844.14-.22.062-.508.156-.868.281l-.187-.047a.541.541 0 0 0-.117-.07.933.933 0 0 1-.117-.14c-.079-.079-.118-.134-.118-.165L69 12.523c0-.109.055-.21.164-.304.125-.094.195-.164.211-.211.125-.14.375-.485.75-1.031.031-.032.086-.102.164-.211a.645.645 0 0 0 .117-.329c0-.109-.46-.03-1.383.235-.937.281-1.43.422-1.476.422-.156 0-.32-.133-.492-.399-.125-.125-.188-.226-.188-.304 0-.11.156-.172.469-.188.36-.015.914-.078 1.664-.187.766-.11 1.219-.18 1.36-.211l.328-.094a.52.52 0 0 1 .164-.024c.046 0 .117.032.21.094.11.063.204.11.282.14.203.095.32.204.351.329v.07c0 .14-.078.29-.234.446-.063.062-.188.195-.375.398a4.749 4.749 0 0 0-.352.375 7.787 7.787 0 0 0-.28.305c-.126.14-.196.226-.212.258 0 .046.016.078.047.093a.26.26 0 0 0 .117.024 9.713 9.713 0 0 0 1.149-.211l.375-.117c.172 0 .297.062.375.187.14.156.234.29.28.399a.299.299 0 0 1 0 .28.587.587 0 0 1-.07.141 1.536 1.536 0 0 0-.093.165l-.094.187a.992.992 0 0 0-.094.281c-.28.813-.617 1.508-1.007 2.086a3.723 3.723 0 0 1-.727.68c-.36.265-.71.398-1.055.398Zm-2.343 3.938c-.172 0-.383-.133-.633-.399-.188-.187-.281-.328-.281-.422 0-.046.03-.07.093-.07a.989.989 0 0 1 .235-.023l.515-.024c.297 0 .492-.008.586-.023.297 0 .547-.008.75-.024 1.344-.125 2.25-.226 2.719-.304.234-.032.445-.063.633-.094a1.95 1.95 0 0 1 .445-.07c.219 0 .438.11.656.328.172.172.258.312.258.422 0 .093-.055.156-.164.187-.078.016-.539.047-1.383.094a31.25 31.25 0 0 0-1.734.117 61.47 61.47 0 0 0-1.805.188c-.094.015-.226.039-.398.07a2.75 2.75 0 0 1-.492.047Zm3.492 5.226c-.156.203-.32.305-.492.305-.047 0-.07-.039-.07-.117 0-.11.03-.235.093-.375l.469-.938a.912.912 0 0 1 .07-.187c.031-.063.055-.117.07-.164v-.024c0-.03-.023-.062-.07-.093a.198.198 0 0 0-.164-.024c-.25.016-.625.055-1.125.117a9.057 9.057 0 0 0-1.078.188l-.352.117a.92.92 0 0 1-.304.07c-.282 0-.516-.086-.704-.257a1.446 1.446 0 0 1-.351-.329l-.047-.117c0-.078.133-.101.398-.07.36.031 1.102-.016 2.227-.14l.469-.071c.125-.016.32-.04.586-.07.281-.047.5-.094.656-.14l.14-.048a.377.377 0 0 1 .165-.047c.078 0 .172.04.28.117.126.079.228.149.306.211.109.079.18.149.21.211.047.047.063.11.047.188 0 .078-.039.148-.117.21-.078.063-.133.11-.164.141-.031.047-.14.165-.328.352a3.856 3.856 0 0 1-.422.516c-.187.218-.32.375-.398.468Zm-1.172 4.618c0-.047.078-.172.234-.375.172-.188.305-.336.399-.446.234-.312.515-.765.843-1.36.344-.593.54-.983.586-1.171.032-.094-.015-.14-.14-.14-.25 0-.938.07-2.063.21-.734.094-1.281.188-1.64.282a.453.453 0 0 1-.235.07c-.125 0-.258-.086-.398-.258a.621.621 0 0 1-.094-.305c0-.062.04-.125.117-.187l.07-.094a8.115 8.115 0 0 0 .328-.82 4.24 4.24 0 0 0 .165-.82c.015-.172.11-.22.281-.141.219.11.383.219.492.328.125.094.164.164.117.21a2.334 2.334 0 0 0-.375.634c-.078.25-.125.414-.14.492 0 .062.039.094.117.094.234 0 .586-.04 1.055-.117.265-.032.593-.07.984-.118.39-.047.703-.093.938-.14l.585-.117a.61.61 0 0 1 .188-.024c.078 0 .156.031.234.094.078.047.164.11.258.187.156.14.258.258.305.352.047.078.07.172.07.281 0 .063-.047.14-.14.235a2.83 2.83 0 0 0-.282.445 7.293 7.293 0 0 1-1.758 2.32c-.203.156-.43.29-.68.399-.109.03-.21.046-.304.046-.078.016-.117 0-.117-.046Zm7.5-10.829c.187 0 .281.086.281.258 0 .094-.086.227-.258.399-.468.578-1.398 1.68-2.789 3.304-.11.141-.21.211-.304.211-.079 0-.25-.117-.516-.351-.219-.188-.328-.344-.328-.469 0-.14.117-.273.351-.398.36-.204.899-.61 1.618-1.22.718-.64 1.25-1.148 1.593-1.523.14-.14.258-.21.352-.21Zm-27.984 3.985h5.367v-4.758h-5.367v4.758Zm15.867 0v1.71h-8.696v5.509h-1.804v-5.508H43.219v-1.711h3.937v-6.445h7.149v-3.633h-5.836c-1.078 1.843-2.29 3.414-3.633 4.71-.625-.53-1.14-.906-1.547-1.124 1.125-.985 2.164-2.211 3.117-3.68.969-1.469 1.735-3 2.297-4.594l1.781.422a69.79 69.79 0 0 1-1.101 2.531h14.32v1.735H56.11v3.633h7.032v1.687h-7.032v4.758h8.696ZM107.414 19.602c-.109 0-.226-.07-.352-.211a1.452 1.452 0 0 1-.187-.258.504.504 0 0 1 0-.305l.023-.562c.016-.11.024-.375.024-.797v-.774l-.703.328-.821.352a7.116 7.116 0 0 0-.632.281c-.188.094-.352.14-.493.14a1.461 1.461 0 0 1-.375-.116 3.201 3.201 0 0 1-.328-.164c-.172-.11-.25-.227-.234-.352l.07-.234c0-.125.008-.235.024-.328l.023-1.36v-1.265c0-.25-.015-.461-.047-.633-.031-.188-.054-.32-.07-.399 0-.078.023-.133.07-.164.016-.015.055-.023.117-.023.11 0 .321.07.633.21.266.126.375.282.328.47-.031.109-.062.273-.093.492l-.071 2.695c0 .078.008.14.024.188.031.03.062.046.094.046.187 0 .414-.054.679-.164.5-.156.93-.312 1.289-.468l.516-.211v-1.547c0-.625-.039-1.227-.117-1.805a.508.508 0 0 1-.024-.164c0-.156.063-.234.188-.234.015 0 .101.03.258.093a2.988 2.988 0 0 1 .703.493c.062.046.093.093.093.14 0 .031-.015.07-.046.117a1.09 1.09 0 0 1-.047.118l-.071.703-.023 2.156.023 2.086c0 .36-.023.672-.07.937-.078.328-.203.493-.375.493Zm-4.312 5.25c-.172 0-.383-.133-.633-.399-.188-.187-.281-.328-.281-.422 0-.047.031-.07.093-.07a.995.995 0 0 1 .235-.023l.515-.024c.297 0 .492-.008.586-.023.297 0 .547-.008.75-.024 1.344-.125 2.25-.226 2.719-.305.234-.03.445-.062.633-.093a1.95 1.95 0 0 1 .445-.07c.219 0 .438.109.656.328.172.171.258.312.258.421 0 .094-.055.157-.164.188-.078.016-.539.047-1.383.094-.469.015-1.047.054-1.734.117-.688.062-1.289.125-1.805.187l-.398.07a2.76 2.76 0 0 1-.492.048Zm9.82-7.782c.187 0 .281.086.281.258 0 .094-.086.227-.258.399a194.68 194.68 0 0 1-2.789 3.304c-.109.14-.211.211-.304.211-.079 0-.25-.117-.516-.351-.219-.188-.328-.344-.328-.47 0-.14.117-.273.351-.398.36-.203.899-.609 1.618-1.218.718-.64 1.25-1.149 1.593-1.524.141-.14.258-.21.352-.21ZM88.547 22.72l-1.406.539c-.063-.36-.18-.82-.352-1.383-4.078.64-6.336 1.078-6.773 1.313-.141-.516-.329-1.07-.563-1.665.36-.062.953-.585 1.781-1.57.516-.578 1.188-1.484 2.016-2.719-1.86.22-2.984.414-3.375.586a11.741 11.741 0 0 0-.586-1.64c.344-.078.797-.516 1.36-1.313.359-.484.859-1.32 1.5-2.508a27.132 27.132 0 0 0 1.64-3.515l1.664.703c-1.11 2.36-2.336 4.476-3.68 6.351l2.508-.234c.516-.812 1.125-1.89 1.828-3.234l1.547.914c-1.765 3.078-3.57 5.656-5.414 7.734l4.125-.61c-.078-.187-.375-.913-.89-2.179l1.289-.445c.921 1.843 1.515 3.468 1.78 4.875Zm-8.11 1.523 1.454.281c-.266 2.266-.672 4.188-1.22 5.766-.14-.078-.6-.25-1.382-.516.469-1.187.852-3.03 1.148-5.53Zm2.579.164 1.289-.258c.375 2.032.593 3.625.656 4.782l-1.36.304c-.078-1.297-.273-2.906-.585-4.828Zm2.601-.445 1.266-.375c.625 1.672 1.031 2.953 1.219 3.844l-1.336.468c-.141-.859-.524-2.171-1.149-3.937Zm12.633-5.484h-4.805c.594 2.265 1.383 4.21 2.368 5.835 1.062-1.687 1.874-3.632 2.437-5.835Zm-1.875-6.727h-3.984a199.548 199.548 0 0 1-.188 5.133h3.281c.391-2.047.688-3.758.891-5.133Zm2.79 5.063 1.101.375c-.641 3.421-1.774 6.32-3.399 8.695 1.203 1.515 2.61 2.633 4.219 3.351-.484.391-.891.891-1.219 1.5-1.515-.765-2.875-1.914-4.078-3.445-1.281 1.516-2.695 2.703-4.242 3.563-.313-.579-.695-1.024-1.149-1.336 1.657-.875 3.11-2.11 4.36-3.703-1.125-1.86-2.031-4.125-2.719-6.797-.484 5.125-1.672 9.015-3.562 11.672a5.897 5.897 0 0 0-1.547-1.102c1.453-1.813 2.422-4.125 2.906-6.938.5-2.812.773-6.445.82-10.898H88.29v-1.688h8.484l.282-.093 1.218.187a102.256 102.256 0 0 1-1.101 6.727h1.687l.305-.07Z"/></svg>