<svg xmlns="http://www.w3.org/2000/svg" width="160" height="50" fill="none"><path fill="#333" d="M43.34 25.285c-.208 0-.332-.104-.371-.312-.078-.222-.287-.495-.625-.82l.059-.079c.052.026.201.091.449.195.247.092.416.137.508.137h.175a.383.383 0 0 0 .137-.097c.156-.118.352-.385.586-.801.17-.339.319-.736.45-1.192.142-.455.214-.8.214-1.035 0-.065-.052-.097-.156-.097l-.742.039-.508.039-.332.02-.137.019a.55.55 0 0 1 .176.176.21.21 0 0 1 .058.156c0 .065-.078.247-.234.547-.13.286-.338.612-.625.976a7.374 7.374 0 0 1-.957 1.016c-.39.351-.684.534-.879.547a.37.37 0 0 1-.117-.02.133.133 0 0 1-.04-.097c0-.014.105-.137.313-.372l.547-.644c.39-.52.788-1.185 1.192-1.992.039-.104.02-.163-.059-.176-.078.013-.24.033-.488.059a2.513 2.513 0 0 0-.664.117.619.619 0 0 0-.137.058.64.64 0 0 1-.195.04.265.265 0 0 1-.196-.079l-.156-.136c-.117-.092-.176-.176-.176-.254 0-.026.013-.065.04-.117l.097-.157c.052-.065.137-.17.254-.312.117-.143.247-.339.39-.586.027-.052.079-.17.157-.352.091-.182.136-.293.136-.332v-.078c0-.078.014-.13.04-.156.026-.026.084-.026.175 0 .092.026.202.098.332.215l.215.215c.04.039.059.084.059.136 0 .13-.182.365-.547.703a2.276 2.276 0 0 0-.234.293c-.092.13-.137.215-.137.254 0 .078.059.104.176.078l.449-.058c1.029-.157 1.803-.248 2.324-.274l.528-.078.175-.039.098-.02c.104 0 .176.014.215.04.039.026.078.071.117.136.039.052.078.098.117.137.091.104.156.195.195.274l.04.175-.04.078-.039.118c-.026.065-.045.13-.058.195-.013.052-.033.11-.059.176-.273 1.054-.592 1.875-.957 2.46-.117.209-.319.417-.605.626-.274.208-.515.312-.723.312Zm-2.422 4.258c-.143 0-.319-.11-.527-.332-.157-.156-.235-.273-.235-.352 0-.039.026-.058.078-.058a.823.823 0 0 1 .196-.02l.43-.02c.247 0 .41-.006.488-.019.247 0 .456-.006.625-.02 1.12-.104 1.875-.188 2.266-.253.195-.026.37-.052.527-.078a1.63 1.63 0 0 1 .37-.059c.183 0 .365.091.548.273.143.144.215.26.215.352 0 .078-.046.13-.137.156-.065.013-.45.04-1.153.078-.39.013-.872.046-1.445.098-.573.052-1.074.104-1.504.156l-.332.059c-.143.026-.28.039-.41.039Zm5.684-4.922c.065 0 .163.046.293.137-.013.026.013.078.078.156l.136.137c.066.065.13.143.196.234l.254.293c.234.248.775.892 1.62 1.934.144.208.216.332.216.37 0 .131-.078.196-.235.196-.09 0-.188-.065-.293-.195-.247-.26-.69-.67-1.328-1.23-.495-.456-.944-.808-1.347-1.055-.196-.091-.293-.196-.293-.313 0-.091.097-.221.293-.39.182-.183.319-.274.41-.274Zm-16.836 9.863c-.469 0-.703-.234-.703-.703v-3.886c-.834.846-1.85 1.634-3.047 2.363a19.654 19.654 0 0 1-3.535 1.719c-.378.13-.684.045-.918-.254-.365-.482-.248-.808.351-.977 2.344-.82 4.304-1.92 5.88-3.3h-3.81c0 .025-.006.038-.019.038-.117.404-.384.58-.8.528-.522-.078-.71-.332-.567-.762.273-.938.54-1.98.8-3.125a1.19 1.19 0 0 1 1.192-.957h4.473v-1.973h-5.801c-.404 0-.606-.208-.606-.625 0-.403.202-.605.606-.605h12.285c.339 0 .612.104.82.312.209.209.313.482.313.82v2.169c0 .338-.104.612-.313.82-.208.208-.481.312-.82.312h-5.078v1.797h6.172c.781 0 1.1.651.957 1.953-.209 1.641-.495 2.644-.86 3.008-.273.3-.677.456-1.21.469a21.26 21.26 0 0 1-1.582.02c-.573-.014-.899-.26-.977-.743v-.02l-.02-.019c-.169-.377.013-.547.547-.508.417.014.886.02 1.407.02.351 0 .579-.046.683-.137.248-.247.45-.95.606-2.11.026-.26.013-.435-.04-.526-.052-.105-.15-.157-.293-.157h-5.39v4.336c0 .469-.235.703-.703.703Zm-5.45-6.289h4.747v-1.797h-4.317c-.052.235-.136.58-.254 1.036l-.175.761Zm6.153-3.027h4.395c.273 0 .41-.137.41-.41v-1.152c0-.274-.137-.41-.41-.41H30.469v1.972Zm-8.086-3.691c-.287.299-.592.338-.918.117-.234-.157-.365-.313-.39-.469-.014-.156.084-.338.292-.547.847-.963 1.543-2.096 2.09-3.398.156-.404.45-.547.88-.43.468.117.618.397.448.84a5.613 5.613 0 0 1-.351.762H28.906c.391 0 .586.195.586.585 0 .391-.195.586-.586.586h-2.949c.235.456.417.88.547 1.27.104.338-.033.586-.41.742-.235.091-.417.117-.547.078-.143-.052-.247-.189-.313-.41a12.99 12.99 0 0 0-.683-1.68h-.762a16.62 16.62 0 0 1-1.406 1.954Zm12.266.117c-.417.182-.703.09-.86-.274a11.612 11.612 0 0 0-1.133-1.797H31.27a12.372 12.372 0 0 1-1.543 1.895c-.3.286-.612.313-.938.078-.443-.325-.449-.677-.02-1.055a9.883 9.883 0 0 0 2.227-3.242c.183-.43.482-.586.899-.469.494.118.644.417.449.899a1.49 1.49 0 0 1-.078.176c-.13.247-.228.43-.293.547h5.918c.39 0 .586.195.586.585 0 .391-.196.586-.586.586H34.18c.325.443.605.873.84 1.29.09.195.104.351.039.468-.052.117-.189.222-.41.313ZM70.371 29.094a.485.485 0 0 1-.175-.02c-.013-.026.006-.071.058-.137.182-.169.326-.332.43-.488.117-.17.24-.436.37-.8.21-.6.313-1.062.313-1.387 0-.3-.02-.573-.058-.82v-.06c0-.142.09-.188.273-.136.157.04.332.091.528.156a.594.594 0 0 1 .175-.02l.371-.058c.443-.065 1.016-.13 1.72-.195 0-.052.051-.235.155-.547l.118-.43c.052-.182.032-.273-.059-.273-.26 0-.866.065-1.816.195l-1.035.176c-.092.013-.209-.026-.352-.117a1.187 1.187 0 0 1-.313-.313c-.065-.117-.052-.195.04-.234a.585.585 0 0 1 .312-.098h.449l1.29-.039 1.25-.156c.064-.013.142-.033.234-.059a1.41 1.41 0 0 1 .293-.078c.13-.026.351.117.664.43.052.052.078.11.078.176 0 .078-.052.156-.156.234-.144.143-.235.267-.274.371-.013.065-.039.163-.078.293-.04.117-.078.267-.117.45a.493.493 0 0 1 .117.331c0 .105-.033.183-.098.235-.052.039-.163.058-.332.058-.586.04-1.048.078-1.386.118a9.373 9.373 0 0 0-1.23.195 6.281 6.281 0 0 1-.352 1.621c-.183.482-.437.846-.762 1.094-.313.221-.528.332-.645.332Zm8.73-8.965c.157 0 .235.072.235.215 0 .078-.072.189-.215.332-.39.482-1.165 1.4-2.324 2.754-.091.117-.176.175-.254.175-.065 0-.208-.097-.43-.293-.182-.156-.273-.286-.273-.39 0-.117.098-.228.293-.332.3-.17.749-.508 1.348-1.016.599-.534 1.041-.957 1.328-1.27.117-.116.215-.175.293-.175ZM59.806 34.484c-.521 0-.781-.254-.781-.761v-8.32h-7.051c-.495 0-.742-.248-.742-.743s.247-.742.742-.742h7.05v-6.465c0-.508.261-.762.782-.762.508 0 .762.254.762.762v6.465h7.148c.495 0 .742.247.742.742s-.247.742-.742.742h-7.148v8.32c0 .508-.254.762-.762.762ZM100.918 26.613c-.143 0-.319-.11-.527-.332-.156-.156-.235-.273-.235-.351 0-.04.026-.059.079-.059a.82.82 0 0 1 .195-.02l.43-.019c.247 0 .41-.006.488-.02.247 0 .456-.006.625-.019 1.12-.104 1.875-.189 2.265-.254.196-.026.372-.052.528-.078a1.63 1.63 0 0 1 .371-.059c.182 0 .364.091.547.274.143.143.215.26.215.351 0 .078-.046.13-.137.157-.065.013-.449.039-1.152.078-.391.013-.873.045-1.446.097a51.34 51.34 0 0 0-1.504.157l-.332.058c-.143.026-.28.04-.41.04Zm-19.101-.43c-.521 0-.782-.266-.782-.8 0-.521.26-.781.782-.781h15.976c.521 0 .781.26.781.78 0 .535-.26.802-.78.802H81.816ZM133.067 25.207c-.183 0-.319-.059-.411-.176-.117-.221-.358-.462-.722-.722l.039-.098c.403.17.742.254 1.015.254.17 0 .313-.098.43-.293.13-.209.267-.508.41-.899.17-.481.261-.885.274-1.21 0-.04-.02-.072-.059-.098-.039-.04-.071-.059-.098-.059-.117-.013-.338.007-.664.059l-.41.058a3.17 3.17 0 0 0-.41.079 3.02 3.02 0 0 1-.351.078 3.75 3.75 0 0 0-.254.078.935.935 0 0 1-.254.058c-.065 0-.143-.032-.235-.097a2.01 2.01 0 0 1-.214-.254c-.014-.013-.02-.04-.02-.078 0-.052.039-.117.117-.196l.215-.214c.065-.079.13-.17.195-.274.065-.117.118-.202.157-.254.065-.104.117-.228.156-.37l.039-.177a.614.614 0 0 0-.02-.097c-.013-.065-.039-.098-.078-.098-.521.065-.905.143-1.152.234-.052.026-.13.053-.234.079a.295.295 0 0 1-.235-.118c-.039-.013-.117-.117-.234-.312-.052-.052-.078-.098-.078-.137 0-.091.136-.143.41-.156l.371-.04c.065 0 .202-.012.41-.038a79.2 79.2 0 0 1 1.738-.137c.261-.013.71-.046 1.348-.098.182-.013.404-.039.664-.078.143-.039.234-.058.273-.058.066 0 .131.026.196.078.065.026.15.078.254.156a.757.757 0 0 1 .234.215c.052.065.078.13.078.195s-.032.11-.097.137a.418.418 0 0 1-.254 0 3.073 3.073 0 0 0-.547-.078 8.652 8.652 0 0 0-.352-.02c-.443-.013-.996.007-1.66.059a3.17 3.17 0 0 1-.41.039c.078.065.15.17.215.312v.04c0 .038-.02.09-.059.156a.338.338 0 0 1-.137.136c-.065.04-.143.13-.234.274-.091.143-.15.234-.176.273-.078.104-.117.19-.117.254 0 .052.052.072.156.059.091-.013.28-.04.567-.078.299-.052.521-.098.664-.137.039-.013.097-.026.176-.04.091-.012.195-.038.312-.077a.424.424 0 0 1 .274.058c.104.052.26.163.468.332.157.118.235.222.235.313 0 .065-.026.13-.078.195a1.11 1.11 0 0 0-.118.371c-.117.547-.254.99-.41 1.328-.117.235-.228.43-.332.586a2.921 2.921 0 0 1-.39.43c-.17.195-.365.293-.586.293Zm.136 6.816c-.625 0-1.146-.156-1.562-.468-.43-.352-.645-.762-.645-1.23 0-.365.137-.684.41-.958.352-.3.795-.449 1.329-.449.026 0 .045-.026.058-.078a.694.694 0 0 0 .039-.254l.02-.508a15.2 15.2 0 0 1-.528.059 5.373 5.373 0 0 0-.546.078c.065-.013-.137.032-.606.137a.79.79 0 0 1-.215.02c-.247 0-.456-.112-.625-.333-.078-.078-.117-.143-.117-.195 0-.078.117-.117.352-.117l.605-.04 1.66-.214v-.723a.729.729 0 0 1-.019-.176.506.506 0 0 0-.02-.156 1.178 1.178 0 0 1-.039-.195c0-.091.046-.137.137-.137.117 0 .319.085.605.254.091.052.137.123.137.215a.388.388 0 0 1-.039.175.432.432 0 0 0-.02.137v.547l.586-.059.723-.078c.065-.013.137-.032.215-.058a.836.836 0 0 1 .215-.04c.078 0 .175.04.293.118.221.143.332.267.332.371 0 .104-.111.156-.332.156-.065 0-.157.013-.274.04-.117.012-.267.025-.449.038l-1.309.098-.019 1.191c-.026.196-.169.32-.43.372h-.039c-.078 0-.156-.007-.234-.02a.447.447 0 0 0-.157-.04c-.104 0-.208.007-.312.02a.518.518 0 0 0-.273.118c-.222.195-.332.423-.332.683 0 .26.123.495.371.703.221.209.573.313 1.054.313.638-.026 1.159-.202 1.563-.527.169-.118.299-.176.39-.176a.64.64 0 0 1 .196.039l.078.078c.039.039.058.078.058.117 0 .365-.306.664-.918.899-.455.169-.911.253-1.367.253Zm3.399-7.402c.065 0 .162.046.293.137-.013.026.013.078.078.156l.137.137c.065.065.13.143.195.234l.254.293c.234.248.775.892 1.621 1.934.143.208.215.332.215.37 0 .131-.078.196-.235.196-.091 0-.188-.065-.293-.195-.247-.26-.69-.67-1.328-1.23-.495-.456-.944-.808-1.347-1.055-.196-.091-.293-.196-.293-.313 0-.091.097-.221.293-.39.182-.183.319-.274.41-.274Zm-13.418 9.844c-.469 0-.703-.228-.703-.684v-4.707c-1.068 1.771-2.286 3.164-3.653 4.18-.195.13-.364.182-.508.156-.143-.013-.292-.11-.449-.293-.195-.221-.28-.41-.254-.566.026-.157.17-.313.43-.469a12.186 12.186 0 0 0 2.07-1.836c.664-.73 1.224-1.49 1.68-2.285h-3.184c-.429 0-.644-.221-.644-.664 0-.43.215-.645.644-.645h3.868v-1.62h-2.657c-.338 0-.612-.105-.82-.313-.208-.209-.312-.482-.312-.82v-5.294c0-.338.104-.611.312-.82.208-.208.482-.312.82-.312H126.621c.339 0 .612.104.821.312.208.209.312.482.312.82v5.293c0 .339-.104.612-.312.82-.209.21-.482.313-.821.313h-2.754v1.621h3.828c.43 0 .645.215.645.645 0 .443-.215.664-.645.664h-3.105a14.91 14.91 0 0 0 3.555 3.965c.247.17.377.332.39.488.013.143-.078.326-.273.547-.169.182-.326.28-.469.293-.13.026-.293-.04-.488-.195-1.315-1.094-2.461-2.461-3.438-4.102v4.824c0 .456-.228.684-.683.684Zm-10.313-1.094c-.338 0-.612-.104-.82-.312-.208-.209-.313-.482-.313-.82v-3.38c0-.338.105-.612.313-.82.208-.208.482-.312.82-.312h3.223c.338 0 .612.104.82.312.209.208.313.482.313.82v3.38c0 .338-.104.611-.313.82-.208.208-.482.312-.82.312h-3.223Zm.508-1.172h2.207c.274 0 .41-.136.41-.41v-2.46c0-.274-.136-.411-.41-.411h-2.207c-.273 0-.41.137-.41.41v2.461c0 .273.137.41.41.41Zm-1.035-5.918c-.391 0-.586-.195-.586-.586 0-.39.195-.586.586-.586h4.277c.391 0 .586.196.586.586 0 .39-.195.586-.586.586h-4.277Zm8.047-2.441h2.148v-2.012h-2.558v1.602c0 .273.136.41.41.41Zm3.398 0h2.227c.273 0 .41-.137.41-.41v-1.602h-2.637v2.012Zm-11.465-.156c-.377 0-.566-.196-.566-.586 0-.378.189-.567.566-.567h4.317c.377 0 .566.19.566.567 0 .39-.189.586-.566.586h-4.317Zm-.82-2.598c-.391 0-.586-.202-.586-.605 0-.391.195-.587.586-.587h5.625c.391 0 .586.196.586.587 0 .403-.195.605-.586.605h-5.625Zm8.477-.43h2.558v-1.992H120.391c-.274 0-.41.137-.41.41v1.582Zm3.808 0h2.637v-1.582c0-.273-.137-.41-.41-.41h-2.227v1.992Zm-11.347-2.148c-.391 0-.586-.195-.586-.586 0-.39.195-.586.586-.586h4.121c.39 0 .586.195.586.586 0 .39-.196.586-.586.586h-4.121Z"/></svg>