<svg xmlns="http://www.w3.org/2000/svg" width="160" height="50" fill="none"><path fill="#333" d="M58.34 25.285c-.208 0-.332-.104-.371-.313-.078-.221-.287-.495-.625-.82l.059-.078c.052.026.201.09.449.195.247.091.416.137.508.137h.175a.383.383 0 0 0 .137-.098c.156-.117.352-.384.586-.8.17-.34.319-.736.45-1.192.142-.456.214-.8.214-1.035 0-.065-.052-.098-.156-.098l-.742.04-.508.038-.332.02-.137.02a.55.55 0 0 1 .176.175c.039.04.058.091.058.156 0 .066-.078.248-.234.547-.13.287-.338.612-.625.977a7.38 7.38 0 0 1-.957 1.016c-.39.351-.684.533-.879.546a.37.37 0 0 1-.117-.02.133.133 0 0 1-.04-.097c0-.013.105-.137.313-.37l.547-.646c.39-.52.788-1.184 1.192-1.992.039-.104.02-.162-.059-.175-.078.013-.24.032-.488.058a2.521 2.521 0 0 0-.664.117.622.622 0 0 0-.137.059.64.64 0 0 1-.195.039.265.265 0 0 1-.196-.078l-.156-.137c-.117-.091-.176-.176-.176-.254 0-.026.013-.065.04-.117l.097-.156.254-.313c.117-.143.247-.338.39-.586.027-.052.079-.169.157-.351.091-.183.136-.293.136-.332v-.078c0-.079.014-.13.04-.157.026-.026.084-.026.175 0 .092.026.202.098.332.215l.215.215a.187.187 0 0 1 .059.137c0 .13-.182.364-.547.703a2.276 2.276 0 0 0-.234.293c-.092.13-.137.215-.137.254 0 .078.059.104.176.078l.449-.059c1.029-.156 1.803-.247 2.324-.273l.528-.078.175-.04.098-.019c.104 0 .176.013.215.04.039.025.078.07.117.136.039.052.078.098.117.137.091.104.156.195.195.273l.04.176-.04.078-.039.117c-.026.065-.045.13-.058.195-.013.053-.033.111-.059.176-.273 1.055-.592 1.875-.957 2.461-.117.209-.319.417-.605.625-.274.209-.515.313-.723.313Zm-2.422 4.258c-.143 0-.319-.111-.527-.332-.157-.157-.235-.274-.235-.352 0-.04.026-.059.078-.059a.818.818 0 0 1 .196-.02l.43-.019c.247 0 .41-.006.488-.02.247 0 .456-.006.625-.019 1.12-.104 1.875-.189 2.266-.254.195-.026.37-.052.527-.078.156-.039.28-.058.37-.058.183 0 .365.09.548.273.143.143.215.26.215.352 0 .078-.046.13-.137.156-.065.013-.45.039-1.153.078-.39.013-.872.046-1.445.098-.573.052-1.074.104-1.504.156l-.332.058c-.143.026-.28.04-.41.04Zm5.684-4.922c.065 0 .163.045.293.136-.013.026.013.078.078.157l.136.136c.066.066.13.144.196.235l.254.293c.234.247.775.892 1.62 1.933.144.209.216.332.216.371 0 .13-.078.196-.235.196-.09 0-.188-.065-.293-.196-.247-.26-.69-.67-1.328-1.23-.495-.456-.944-.807-1.347-1.055-.196-.09-.293-.195-.293-.312 0-.091.097-.222.293-.39.182-.183.319-.274.41-.274Zm-16.836 9.863c-.469 0-.703-.234-.703-.703v-3.887c-.834.847-1.85 1.634-3.047 2.363a19.653 19.653 0 0 1-3.535 1.72c-.378.13-.684.045-.918-.255-.365-.482-.248-.807.351-.976 2.344-.82 4.304-1.92 5.88-3.301h-3.81c0 .026-.006.039-.019.039-.117.404-.384.58-.8.527-.522-.078-.71-.332-.567-.761.273-.938.54-1.98.8-3.125a1.19 1.19 0 0 1 1.192-.957h4.473v-1.973h-5.801c-.404 0-.606-.208-.606-.625 0-.404.202-.606.606-.606h12.285c.339 0 .612.105.82.313.209.208.313.482.313.82v2.168c0 .339-.104.612-.313.82-.208.209-.481.313-.82.313h-5.078v1.797h6.172c.781 0 1.1.65.957 1.953-.209 1.64-.495 2.643-.86 3.008-.273.3-.677.456-1.21.469-.521.026-1.049.032-1.582.02-.573-.014-.899-.261-.977-.743v-.02l-.02-.02c-.169-.377.013-.546.547-.507.417.013.886.02 1.407.02.351 0 .579-.046.683-.137.248-.247.45-.95.606-2.11.026-.26.013-.436-.04-.527-.052-.104-.15-.156-.293-.156h-5.39v4.336c0 .469-.235.703-.703.703Zm-5.45-6.29h4.747v-1.796h-4.317c-.052.234-.137.58-.254 1.035l-.175.762Zm6.153-3.026h4.395c.273 0 .41-.137.41-.41v-1.153c0-.273-.137-.41-.41-.41H45.468v1.973Zm-8.086-3.692c-.287.3-.593.339-.918.117-.234-.156-.365-.312-.39-.468-.014-.157.084-.339.292-.547.847-.964 1.543-2.097 2.09-3.399.157-.403.45-.547.88-.43.468.118.618.398.448.84a5.607 5.607 0 0 1-.351.762H43.906c.391 0 .586.196.586.586 0 .39-.195.586-.586.586h-2.949c.235.456.417.879.547 1.27.104.338-.032.585-.41.742-.235.09-.417.117-.547.078-.143-.052-.247-.189-.313-.41a12.99 12.99 0 0 0-.683-1.68h-.762c-.482.768-.95 1.42-1.406 1.953Zm12.266.117c-.417.183-.703.091-.86-.273a11.612 11.612 0 0 0-1.133-1.797H46.27a12.377 12.377 0 0 1-1.543 1.895c-.3.286-.612.312-.938.078-.443-.326-.449-.677-.02-1.055a9.883 9.883 0 0 0 2.227-3.242c.183-.43.482-.586.899-.469.494.117.644.417.449.898-.013.04-.04.098-.078.176-.13.248-.228.43-.293.547h5.918c.39 0 .586.196.586.586 0 .39-.196.586-.586.586H49.18c.325.443.605.872.84 1.29.09.194.104.35.039.468-.052.117-.189.221-.41.312ZM89.512 22.824c-.091 0-.189-.059-.293-.176a1.19 1.19 0 0 1-.156-.215.416.416 0 0 1 0-.254l.02-.468c.012-.092.019-.313.019-.664v-.645l-.586.273-.684.293c-.17.065-.345.144-.527.235a.945.945 0 0 1-.41.117 1.207 1.207 0 0 1-.313-.098 2.607 2.607 0 0 1-.273-.137c-.144-.09-.209-.188-.195-.292l.058-.196c0-.104.007-.195.02-.273l.02-1.133v-1.055c0-.208-.014-.384-.04-.527a12.031 12.031 0 0 0-.058-.332c0-.065.019-.11.058-.137.013-.013.046-.02.098-.02.09 0 .267.06.527.177.221.104.313.234.273.39a3.301 3.301 0 0 0-.078.41l-.058 2.246a.51.51 0 0 0 .02.157c.025.026.051.039.077.039.157 0 .345-.046.567-.137.416-.13.775-.26 1.074-.39l.43-.177v-1.288c0-.521-.033-1.023-.098-1.504a.434.434 0 0 1-.02-.137c0-.13.053-.195.157-.195.013 0 .084.026.215.078a2.494 2.494 0 0 1 .586.41c.052.039.078.078.078.117a.19.19 0 0 1-.04.098.755.755 0 0 1-.038.097l-.059.586-.02 1.797.02 1.738c0 .3-.02.56-.059.782-.065.273-.169.41-.312.41Zm-3.594 3.203c-.143 0-.319-.11-.527-.332-.157-.156-.235-.273-.235-.352 0-.039.026-.058.078-.058a.823.823 0 0 1 .196-.02l.43-.02c.247 0 .41-.006.488-.019.247 0 .456-.006.625-.02 1.12-.104 1.875-.188 2.266-.253.195-.026.37-.052.527-.078.156-.04.28-.059.37-.059.183 0 .365.091.548.273.143.144.215.26.215.352 0 .078-.046.13-.137.156-.065.013-.45.04-1.153.078-.39.013-.872.046-1.445.098-.573.052-1.074.104-1.504.156l-.332.059c-.143.026-.28.039-.41.039Zm4.59 7.695c-.013.013-.046.02-.098.02-.104 0-.254-.072-.449-.215a51.956 51.956 0 0 0-1.738-1.64c-.339.338-.658.63-.957.878a7.24 7.24 0 0 1-.547.352 3.066 3.066 0 0 1-1.094.41h-.117c-.117 0-.189-.013-.215-.04-.013-.012.013-.038.078-.077.078-.04.137-.072.176-.098.078-.039.3-.182.664-.43a9.03 9.03 0 0 0 .781-.664c.339-.312.586-.566.742-.761l-.8-.625c-.144-.105-.3-.215-.469-.332a3.23 3.23 0 0 0-.332-.254l-.02-.059c0-.078.066-.117.196-.117.156 0 .41.098.761.293l.997.644c.22-.286.442-.599.664-.937.234-.352.358-.56.37-.625.014-.04.007-.072-.019-.098-.013-.039-.039-.058-.078-.058h-.39l-.704.058a9.759 9.759 0 0 0-1.054.137 5.426 5.426 0 0 1-.196.059.876.876 0 0 1-.234.039c-.026 0-.137-.072-.332-.215-.182-.157-.28-.254-.293-.293-.013-.013-.02-.033-.02-.059 0-.065.072-.09.215-.078h.274c.364 0 .892-.033 1.582-.098l.664-.058.605-.078c.196-.052.306-.078.332-.078h.04c.065 0 .123.02.175.058a.494.494 0 0 1 .117.117.591.591 0 0 0 .059.078l.117.118a.309.309 0 0 1 .117.156c.026.039.04.085.04.137 0 .117-.046.201-.137.254-.066.026-.183.162-.352.41-.286.455-.631.944-1.035 1.465.221.143.508.351.86.625.156.104.41.28.761.527.156.117.273.273.352.469.052.208.078.364.078.468-.013.105-.059.176-.137.215Zm3.672-7.226c.039 0 .078.02.117.058a.19.19 0 0 1 .078.118v.038c0 .092-.071.267-.215.528l-1.406 2.441c-.104.222-.24.332-.41.332-.17 0-.313-.104-.43-.312a6.61 6.61 0 0 1-.43-.762 2.375 2.375 0 0 1-.195-.352 6.675 6.675 0 0 0-.117-.253c-.143-.248-.215-.424-.215-.528 0-.052.02-.09.059-.117.039-.039.078-.059.117-.059.143 0 .273.079.39.235.092.091.163.189.216.293l.214.293.39.449.177-.273c.182-.313.612-.931 1.289-1.856.143-.182.267-.273.37-.273Zm-26.524 7.558c-.507.287-.918.267-1.23-.058-.404-.443-.254-.86.45-1.25a9.309 9.309 0 0 0 3.671-4.121c.664-1.459 1.087-3.308 1.27-5.547h-4.395c-.482 0-.723-.241-.723-.723s.241-.723.723-.723h4.473c.039-.859.058-2.187.058-3.984 0-.52.254-.781.762-.781.52 0 .781.26.781.781a142.609 142.609 0 0 1-.097 3.984h4.648c.339 0 .612.105.82.313.209.208.313.482.313.82v9.219c0 .338.039.56.117.664.091.091.287.137.586.137h1.973c.182 0 .312-.059.39-.176.091-.13.163-.371.215-.723.026-.468.104-.846.234-1.133.183-.39.417-.514.704-.37.169.078.286.273.351.585.052.248.072.508.059.782-.104.924-.287 1.562-.547 1.914-.26.364-.697.547-1.309.547h-2.285c-.755 0-1.27-.157-1.543-.47-.273-.299-.41-.891-.41-1.777v-8.476c0-.274-.137-.41-.41-.41H73.3c-.221 2.565-.703 4.661-1.445 6.289-.912 1.992-2.312 3.555-4.2 4.687ZM118.067 25.207c-.183 0-.319-.059-.411-.176-.117-.221-.358-.462-.722-.723l.039-.098c.403.17.742.254 1.015.254.17 0 .313-.097.43-.292.13-.209.267-.508.41-.899.17-.482.261-.885.274-1.21 0-.04-.02-.072-.059-.099-.039-.039-.071-.058-.098-.058-.117-.013-.338.006-.664.058l-.41.059c-.117.013-.254.04-.41.078-.143.04-.26.065-.351.078a3.692 3.692 0 0 0-.254.078.935.935 0 0 1-.254.059c-.065 0-.143-.033-.235-.098a2.003 2.003 0 0 1-.214-.254c-.014-.013-.02-.039-.02-.078 0-.052.039-.117.117-.195l.215-.215c.065-.078.13-.17.195-.273.065-.117.118-.202.157-.254.065-.104.117-.228.156-.371l.039-.176a.614.614 0 0 0-.02-.098c-.013-.065-.039-.097-.078-.097-.521.065-.905.143-1.152.234-.052.026-.13.052-.234.078a.295.295 0 0 1-.235-.117c-.039-.013-.117-.117-.234-.313-.052-.052-.078-.097-.078-.136 0-.091.136-.143.41-.156l.371-.04c.065 0 .202-.013.41-.039.417-.039.996-.084 1.738-.136.261-.013.71-.046 1.348-.098.182-.013.404-.04.664-.078.143-.04.234-.059.273-.059.066 0 .131.026.196.078.065.026.15.078.254.157a.756.756 0 0 1 .234.215c.052.065.078.13.078.195s-.032.11-.097.136a.418.418 0 0 1-.254 0 3.073 3.073 0 0 0-.547-.078 8.454 8.454 0 0 0-.352-.02c-.443-.012-.996.007-1.66.06a3.17 3.17 0 0 1-.41.038c.078.066.15.17.215.313v.04c0 .038-.02.09-.059.155a.338.338 0 0 1-.137.137c-.065.04-.143.13-.234.274-.091.143-.15.234-.176.273-.078.104-.117.189-.117.254 0 .052.052.071.156.058l.567-.078c.299-.052.521-.097.664-.136.039-.014.097-.026.176-.04.091-.012.195-.039.312-.078a.423.423 0 0 1 .274.059c.104.052.26.163.468.332.157.117.235.221.235.313 0 .065-.026.13-.078.195a1.108 1.108 0 0 0-.118.37c-.117.548-.254.99-.41 1.329-.117.234-.228.43-.332.586a2.916 2.916 0 0 1-.39.43c-.17.195-.365.293-.586.293Zm.136 6.816c-.625 0-1.146-.156-1.562-.469-.43-.351-.645-.761-.645-1.23 0-.365.137-.684.41-.957.352-.3.795-.45 1.329-.45.026 0 .045-.026.058-.078a.694.694 0 0 0 .039-.253l.02-.508a15.2 15.2 0 0 1-.528.058 5.344 5.344 0 0 0-.546.078c.065-.013-.137.033-.606.137a.784.784 0 0 1-.215.02c-.247 0-.456-.111-.625-.332-.078-.079-.117-.144-.117-.196 0-.078.117-.117.352-.117l.605-.039 1.66-.215v-.722a.729.729 0 0 1-.019-.176.506.506 0 0 0-.02-.156 1.176 1.176 0 0 1-.039-.196c0-.09.046-.137.137-.137.117 0 .319.085.605.254.091.053.137.124.137.215a.388.388 0 0 1-.039.176.432.432 0 0 0-.02.137v.547l.586-.059.723-.078c.065-.013.137-.033.215-.059a.84.84 0 0 1 .215-.039c.078 0 .175.04.293.118.221.143.332.266.332.37 0 .105-.111.157-.332.157-.065 0-.157.013-.274.039-.117.013-.267.026-.449.039l-1.309.098-.019 1.191c-.026.195-.169.319-.43.371h-.039c-.078 0-.156-.006-.234-.02a.447.447 0 0 0-.157-.039c-.104 0-.208.007-.312.02a.517.517 0 0 0-.273.117c-.222.195-.332.423-.332.684 0 .26.123.495.371.703.221.208.573.312 1.054.312.638-.026 1.159-.201 1.563-.527.169-.117.299-.176.39-.176a.64.64 0 0 1 .196.04l.078.078c.039.039.058.078.058.117 0 .364-.306.664-.918.898-.455.17-.911.254-1.367.254Zm3.399-7.402c.065 0 .162.045.293.136-.013.026.013.078.078.157l.137.136c.065.066.13.144.195.235l.254.293c.234.247.775.892 1.621 1.933.143.209.215.332.215.371 0 .13-.078.196-.235.196-.091 0-.188-.065-.293-.196-.247-.26-.69-.67-1.328-1.23-.495-.456-.944-.807-1.347-1.055-.196-.09-.293-.195-.293-.312 0-.091.097-.222.293-.39.182-.183.319-.274.41-.274Zm-13.418 9.843c-.469 0-.703-.227-.703-.683v-4.707c-1.068 1.77-2.286 3.164-3.653 4.18-.195.13-.364.182-.508.156-.143-.013-.292-.11-.449-.293-.195-.222-.28-.41-.254-.567.026-.156.17-.312.43-.468a12.19 12.19 0 0 0 2.07-1.836c.664-.73 1.224-1.491 1.68-2.285h-3.184c-.429 0-.644-.222-.644-.664 0-.43.215-.645.644-.645h3.868V25.03h-2.657c-.338 0-.612-.104-.82-.313-.208-.208-.312-.481-.312-.82v-5.293c0-.338.104-.612.312-.82.208-.209.482-.313.82-.313H111.621c.339 0 .612.104.821.313.208.208.312.482.312.82v5.293c0 .339-.104.612-.312.82-.209.209-.482.313-.821.313h-2.754v1.62h3.828c.43 0 .645.216.645.646 0 .442-.215.663-.645.663h-3.105a14.916 14.916 0 0 0 3.555 3.965c.247.17.377.332.39.489.013.143-.078.325-.273.547-.169.182-.326.28-.469.293-.13.026-.293-.04-.488-.196-1.315-1.094-2.461-2.46-3.438-4.101v4.824c0 .456-.228.683-.683.683Zm-10.313-1.093c-.338 0-.612-.105-.82-.313-.208-.208-.313-.482-.313-.82v-3.379c0-.339.105-.612.313-.82.208-.209.482-.313.82-.313h3.223c.338 0 .612.104.82.313.209.208.313.481.313.82v3.379c0 .338-.104.612-.313.82-.208.209-.482.313-.82.313h-3.223Zm.508-1.172h2.207c.274 0 .41-.137.41-.41v-2.461c0-.274-.136-.41-.41-.41h-2.207c-.273 0-.41.136-.41.41v2.46c0 .274.137.41.41.41Zm-1.035-5.918c-.39 0-.586-.195-.586-.586 0-.39.195-.586.586-.586h4.277c.391 0 .586.195.586.586 0 .39-.195.586-.586.586H97.343Zm8.047-2.442h2.148v-2.011h-2.558v1.601c0 .274.136.41.41.41Zm3.398 0h2.227c.273 0 .41-.136.41-.41v-1.601h-2.637v2.011Zm-11.465-.156c-.377 0-.566-.195-.566-.586 0-.377.189-.566.566-.566h4.317c.377 0 .566.189.566.566 0 .39-.189.586-.566.586h-4.317Zm-.82-2.598c-.39 0-.586-.201-.586-.605 0-.39.195-.586.586-.586h5.625c.391 0 .586.195.586.586 0 .404-.195.605-.586.605h-5.625Zm8.477-.43h2.558v-1.991H105.391c-.274 0-.41.136-.41.41v1.582Zm3.808 0h2.637v-1.581c0-.274-.137-.41-.41-.41h-2.227v1.992Zm-11.347-2.148c-.391 0-.586-.195-.586-.585 0-.391.195-.587.586-.587h4.121c.39 0 .586.196.586.587 0 .39-.196.585-.586.585h-4.121Z"/></svg>