<svg xmlns="http://www.w3.org/2000/svg" width="107" height="22" fill="none"><path fill="#333" d="M23.445 10.625a.582.582 0 0 1-.21-.023c-.016-.032.007-.086.07-.165.218-.203.39-.398.515-.585.14-.204.29-.524.446-.961.25-.72.375-1.274.375-1.664 0-.36-.024-.688-.07-.985v-.07c0-.172.109-.227.327-.164.188.047.399.11.633.187a.712.712 0 0 1 .211-.023c.094-.016.242-.04.445-.07a40.201 40.201 0 0 1 2.063-.235c0-.062.063-.281.188-.656l.14-.516c.063-.218.04-.328-.07-.328-.313 0-1.04.078-2.18.235l-1.242.21c-.11.016-.25-.03-.422-.14a1.424 1.424 0 0 1-.375-.375c-.078-.14-.062-.234.047-.281a.703.703 0 0 1 .375-.118h.539l1.547-.046 1.5-.188a3.66 3.66 0 0 0 .281-.07c.125-.047.242-.078.352-.094.156-.031.422.14.797.516a.291.291 0 0 1 .093.21c0 .094-.062.188-.187.282-.172.172-.281.32-.328.445a4.24 4.24 0 0 1-.094.352c-.047.14-.094.32-.14.539.093.11.14.242.14.398 0 .125-.04.219-.117.281-.063.047-.196.07-.399.07-.703.048-1.258.095-1.664.141-.406.032-.898.11-1.476.235a7.534 7.534 0 0 1-.422 1.945c-.219.578-.524 1.016-.914 1.313-.375.265-.633.398-.774.398Zm5.977 7.29c.219.14.328.273.328.398 0 .171-.133.28-.398.328a8.44 8.44 0 0 1-1.125.093c-.704.016-1.157-.007-1.36-.07-.344-.156-.515-.414-.515-.773l.023-.868c.031-.28.047-.53.047-.75.015-.14.023-.414.023-.82A7.88 7.88 0 0 1 25.531 17c-.265.328-.5.602-.703.82a4.744 4.744 0 0 1-.726.586c-.282.188-.54.282-.774.282-.14 0-.21-.047-.21-.141 0-.016.148-.133.445-.352.312-.234.625-.554.937-.96a9.841 9.841 0 0 0 1.219-2.204c-.61.078-1.016.149-1.219.211a.834.834 0 0 0-.21.07.587.587 0 0 1-.235 0 1.993 1.993 0 0 1-.328-.187c-.141-.11-.25-.21-.329-.305-.062-.093-.093-.156-.093-.187 0-.078.117-.117.351-.117.578 0 1.32-.063 2.227-.188.094-.36.14-.937.14-1.734v-.446c0-.187.04-.289.118-.304.015-.016.047-.024.093-.024.125 0 .297.094.516.282.172.14.281.25.328.328.063.062.07.148.024.258l-.094.187a.992.992 0 0 0-.094.281l-.094.469a4.98 4.98 0 0 0-.093.586c.218-.016.492-.047.82-.094.328-.047.57-.094.726-.14l.47-.118c.155-.03.413.102.773.399.062.047.093.101.093.164 0 .062-.03.117-.093.164a.333.333 0 0 1-.188.047c-.281 0-.797.047-1.547.14l-.773.07c.172.126.281.235.328.329a.356.356 0 0 1 .023.281l-.07.375c-.031.313-.062.656-.094 1.031a7.863 7.863 0 0 0 0 .868c0 .078.047.148.14.21.11.063.22.094.33.094.39 0 .827-.039 1.312-.117l.21-.047c.094 0 .172.016.235.047Zm1.5-7.97c.078 0 .195.055.351.164-.015.032.016.094.094.188l.164.164c.078.078.157.172.235.281.093.11.195.227.304.352.282.297.93 1.07 1.946 2.32.172.25.257.399.257.445 0 .157-.093.235-.28.235-.11 0-.227-.078-.352-.235-.297-.312-.828-.804-1.594-1.476-.594-.547-1.133-.969-1.617-1.266-.235-.11-.352-.234-.352-.375 0-.11.117-.265.352-.469.218-.218.383-.328.492-.328ZM1.25 20.68c-.578 0-.867-.29-.867-.867 0-.579.289-.868.867-.868h7.805V1.648c0-.593.304-.89.914-.89.594 0 .89.297.89.89V7.93h7.758c.578 0 .867.289.867.867 0 .578-.289.867-.867.867H10.86v9.281h9.352c.578 0 .867.29.867.867 0 .579-.289.868-.867.868H1.25ZM62.61 7.484c-.094 0-.22-.101-.376-.304-.156-.22-.226-.407-.21-.563.03-.125.054-.476.07-1.054.015-.391.023-1.079.023-2.063 0-.688-.008-1.148-.023-1.383l-.774.07c-.547.079-1.015.118-1.406.118-.11 0-.266-.086-.469-.258-.203-.172-.304-.297-.304-.375 0-.125.132-.172.398-.14.172.015.68.007 1.523-.024a76.342 76.342 0 0 1 2.508-.14c.266-.016.508-.04.727-.071.234-.047.398-.078.492-.094.14-.016.266 0 .375.047.11.047.211.11.305.188.11.062.195.109.258.14.14.094.21.18.21.258 0 .062-.039.125-.117.187a.343.343 0 0 1-.21.07c-.079 0-.188-.007-.329-.023a3.427 3.427 0 0 0-.422-.023c-.578 0-1.171.015-1.78.047a10.7 10.7 0 0 0-.024.937 67.029 67.029 0 0 0-.047 2.485V6.64c0 .266-.024.438-.07.516-.141.219-.25.328-.329.328Zm-1.993 5.743c-.515-.188-.758-.391-.726-.61.093-.656.14-1.406.14-2.25a10.141 10.141 0 0 0-.07-1.336c-.016-.156-.016-.242 0-.258a.318.318 0 0 1 .234-.093c.14 0 .313.062.516.187.219.125.328.25.328.375 0 .078-.008.156-.023.235a.873.873 0 0 0-.024.21l-.14 2.32c0 .126.046.204.14.235h.117c.125 0 .211-.008.258-.023l3.024-.422v-.61c0-.765-.016-1.359-.047-1.78a3.876 3.876 0 0 0-.117-.868c-.047-.25.015-.375.187-.375.125 0 .29.047.492.14.25.126.399.235.446.329.046.078.062.203.046.375-.03.281-.046.703-.046 1.265l.023 1.782c0 .375-.07.672-.21.89-.08.094-.157.14-.235.14-.078 0-.188-.07-.328-.21a1.348 1.348 0 0 1-.118-.14.313.313 0 0 0-.14-.118.611.611 0 0 0-.188-.023c-.36.031-1.226.148-2.601.351a1.326 1.326 0 0 0-.563.188c-.156.078-.258.117-.304.117l-.07-.023Zm2.625 8.085c-.484 0-.86-.015-1.125-.046a1.122 1.122 0 0 1-.633-.282c-.297-.218-.5-.695-.609-1.43l-.07-.75c0-.187-.016-.421-.047-.702-.25.03-.43.062-.54.093-.03.016-.085.04-.163.07a.644.644 0 0 1-.14.024.539.539 0 0 1-.306-.094 1.82 1.82 0 0 1-.351-.351c-.11-.14-.164-.235-.164-.282 0-.046.054-.078.164-.093.11-.016.258-.024.445-.024.266 0 .61-.03 1.031-.093l-.023-.329a9.24 9.24 0 0 0-.117-1.593l-.024-.164c0-.22.086-.305.258-.258.188.062.36.14.516.234a.73.73 0 0 1 .258.188c.046.047.062.117.046.21l-.07 1.008v.61l2.063-.211c0-.11.007-.367.023-.774.016-.421.016-.695 0-.82 0-.125-.016-.242-.047-.351a4.385 4.385 0 0 0-.047-.305c0-.125.063-.188.188-.188s.281.07.469.211c.218.14.359.266.421.375.079.11.094.242.047.399-.078.25-.132.531-.164.844-.031.312-.047.5-.047.562.188-.016.36-.04.516-.07a2.05 2.05 0 0 1 .305-.047c.125-.031.273-.047.445-.047.094.016.227.11.398.281.141.188.211.336.211.445 0 .157-.148.22-.445.188a4.576 4.576 0 0 0-.797-.07c-.265 0-.492.008-.68.023-.046.563-.14 1.117-.28 1.664a.812.812 0 0 1-.165.328c-.078.078-.148.117-.21.117-.11 0-.18-.039-.212-.117a2.792 2.792 0 0 1-.023-.422c.031-.406.047-.914.047-1.523-.422.031-.75.063-.985.094-.359.078-.695.125-1.007.14-.016.641.015 1.211.093 1.711.047.328.14.555.282.68a.622.622 0 0 0 .328.14c.14.016.28.024.422.024h.28c.485 0 .938-.023 1.36-.07a1.01 1.01 0 0 0 .328-.094.708.708 0 0 1 .235-.07c.14 0 .28.047.422.14.14.094.21.203.21.328s-.07.22-.21.282c-.125.062-.329.117-.61.164-.5.062-1 .093-1.5.093Zm6.68-10.664c.187 0 .281.086.281.258 0 .094-.086.227-.258.399-.468.578-1.398 1.68-2.789 3.304-.11.141-.21.211-.304.211-.079 0-.25-.117-.516-.351-.219-.188-.328-.344-.328-.469 0-.14.117-.273.351-.398.36-.204.899-.61 1.618-1.22.718-.64 1.25-1.148 1.593-1.523.14-.14.258-.21.352-.21Zm-26.11 11.133c-.624 0-1.007-.187-1.148-.562-.125-.313-.078-.54.14-.68.188-.14.477-.203.868-.187.984 0 1.562-.008 1.734-.024.188-.015.313-.047.375-.094.063-.047.094-.148.094-.304v-2.742h-8.531c-.469 0-.703-.243-.703-.727 0-.469.234-.703.703-.703h8.531v-.727c0-.375.188-.562.563-.562h.445a19.413 19.413 0 0 0 2.789-1.5h-8.297c-.438 0-.656-.219-.656-.656 0-.438.218-.657.656-.657h9.562c.563 0 .891.133.985.399.11.25-.047.601-.469 1.054-.953.86-2.25 1.649-3.89 2.368v.28h8.554c.469 0 .703.235.703.704 0 .484-.234.727-.703.727h-8.554v2.789c0 .453-.063.796-.188 1.03-.14.235-.39.407-.75.516-.484.172-1.422.258-2.813.258Zm-6.046-8.812c-.547 0-.82-.274-.82-.82v-2.063c0-.406.124-.734.374-.984s.578-.375.985-.375h.468l-.375-6.141c-.015-.344.07-.594.258-.75.188-.172.453-.219.797-.14l.07.023c.97-.282 1.93-.602 2.883-.961.25-.11.5-.031.75.234.344.39.297.68-.14.867-.735.266-1.735.555-3 .868l.07 1.03h2.836c.39 0 .586.196.586.587 0 .406-.196.61-.586.61h-2.766l.094 1.265h2.766c.39 0 .586.195.586.586 0 .406-.196.61-.586.61H40.32l.07 1.312h12.727c.047-.36.094-.797.14-1.313H50.47c-.39 0-.586-.203-.586-.61 0-.39.195-.585.586-.585h2.883l.117-1.266h-2.883c-.39 0-.586-.203-.586-.61 0-.39.195-.585.586-.585h2.953l.047-.797c.031-.328-.125-.492-.469-.492h-2.625c-.39 0-.586-.203-.586-.61 0-.39.196-.586.586-.586h3.399c.422 0 .75.125.984.375.25.25.36.579.328.985-.094 2.14-.234 4.172-.422 6.094h.985c.25 0 .445.078.586.234.156.14.234.336.234.586v2.578c0 .563-.281.844-.844.844-.578 0-.867-.281-.867-.844v-1.57c0-.328-.164-.492-.492-.492H39.079c-.329 0-.493.164-.493.492v1.593c0 .547-.273.82-.82.82Zm7.5-4.64c-.328.187-.625.171-.891-.048-.406-.375-.344-.687.188-.937.515-.313.976-.617 1.382-.914-.375-.25-.656-.43-.843-.54-.391-.218-.407-.484-.047-.796.218-.188.445-.219.68-.094.437.25.828.484 1.171.703.328-.312.61-.601.844-.867.188-.25.445-.328.773-.234.5.14.586.414.258.82-.375.406-.672.719-.89.937.312.22.632.485.96.797.266.25.25.516-.046.797-.297.281-.57.297-.82.047-.36-.328-.704-.61-1.032-.844l-.773.563c-.14.11-.242.187-.305.234-.094.063-.227.14-.398.234l-.211.141Zm-.094-4.032c-.313.172-.602.148-.867-.07-.375-.329-.328-.625.14-.891.438-.25.89-.54 1.36-.867-.14-.094-.344-.219-.61-.375a2.114 2.114 0 0 0-.258-.164c-.374-.22-.39-.477-.046-.774.218-.187.445-.218.68-.093.312.156.71.382 1.195.68.187-.157.437-.407.75-.75.172-.235.422-.305.75-.212.5.14.586.399.257.774-.218.25-.484.523-.796.82.343.25.632.469.867.656.297.25.289.531-.024.844-.297.297-.578.297-.843 0-.141-.125-.375-.313-.704-.563a2.785 2.785 0 0 0-.21-.164c-.344.25-.696.508-1.055.774l-.422.281a2.935 2.935 0 0 1-.164.094ZM100.273 10.531a.833.833 0 0 1-.609-.258 17.88 17.88 0 0 0-1.57-1.523c-.594-.5-1.117-.875-1.57-1.125-.22-.125-.329-.32-.329-.586 0-.047.055-.11.164-.187.141-.094.368-.297.68-.61l.844-.82c.375-.39.687-.742.937-1.055.266-.312.414-.531.446-.656a.779.779 0 0 0 .046-.188c.032-.109.079-.164.141-.164.078 0 .18.04.305.118.14.078.258.156.351.234.235.219.352.406.352.562-.016.047-.078.102-.188.165a3.975 3.975 0 0 0-.257.14c-.079.063-.36.313-.844.75l-1.524 1.313c-.265.218-.398.39-.398.515 0 .063.125.164.375.305.297.187.875.57 1.734 1.148.329.22.641.461.938.727.25.25.375.508.375.773a.423.423 0 0 1-.164.329.32.32 0 0 1-.235.093Zm-4.171 5.32c-.172 0-.383-.132-.633-.398-.188-.187-.281-.328-.281-.422 0-.047.03-.07.093-.07a.989.989 0 0 1 .235-.024l.515-.023c.297 0 .492-.008.586-.023.297 0 .547-.008.75-.024 1.344-.125 2.25-.226 2.719-.305.234-.03.445-.062.633-.093a1.95 1.95 0 0 1 .445-.07c.219 0 .438.109.656.328.172.171.258.312.258.421 0 .094-.055.157-.164.188-.078.016-.539.047-1.383.094-.469.015-1.047.054-1.734.117a61.47 61.47 0 0 0-1.805.187l-.398.07a2.76 2.76 0 0 1-.492.048Zm9.82-7.78c.187 0 .281.085.281.257 0 .094-.086.227-.258.399-.468.578-1.398 1.68-2.789 3.304-.109.14-.211.211-.304.211-.079 0-.25-.117-.516-.351-.219-.188-.328-.344-.328-.47 0-.14.117-.273.351-.398.36-.203.899-.609 1.618-1.218.718-.64 1.25-1.149 1.593-1.524.141-.14.258-.21.352-.21ZM74.023 21.312c-.343.328-.71.351-1.101.07-.531-.375-.555-.797-.07-1.266a11.057 11.057 0 0 0 2.109-2.812c.219-.453.578-.61 1.078-.47.594.173.758.524.492 1.056a12.675 12.675 0 0 1-1.148 1.78 14.45 14.45 0 0 1-1.36 1.642Zm15.329.398c-.735 0-1.172-.227-1.313-.68-.11-.343-.039-.601.211-.773.219-.156.54-.227.96-.211.688 0 1.095-.008 1.22-.024.312 0 .468-.164.468-.492v-5.625h-4.875c-.25 2.938-.82 5.32-1.71 7.149-.188.312-.368.492-.54.539-.171.062-.398-.008-.68-.211-.25-.172-.382-.367-.398-.586-.015-.188.055-.43.211-.727.656-1.343 1.117-3.015 1.383-5.015.172-1.375.258-3.055.258-5.04v-7.1c0-.407.125-.735.375-.985s.578-.375.984-.375h5.321c.406 0 .734.125.984.375s.375.578.375.984v16.64c0 .954-.297 1.563-.89 1.829-.485.187-1.266.297-2.344.328Zm-7.641-1.242c-.5.281-.86.21-1.078-.211a18.15 18.15 0 0 0-.656-1.055 15.766 15.766 0 0 0-.868-1.219c-.328-.422-.25-.773.235-1.054.375-.22.71-.157 1.008.187.703.86 1.28 1.672 1.734 2.438.11.203.133.383.07.539-.062.11-.21.234-.445.375Zm-8.836-4.336c-.516 0-.773-.266-.773-.797 0-.516.257-.774.773-.774h1.477V5.047h-1.196c-.515 0-.773-.266-.773-.797 0-.516.258-.773.773-.773h1.196V1.414c0-.516.265-.773.796-.773.516 0 .774.257.774.773v2.063h4.195v-2.04c0-.53.266-.796.797-.796s.797.265.797.796v2.04h.937c.516 0 .774.257.774.773 0 .531-.258.797-.774.797h-.937v9.515h.937c.516 0 .774.258.774.774 0 .531-.258.797-.774.797h-9.773Zm3.047-1.57h4.195v-2.344h-4.195v2.344Zm10.219-2.227h4.757v-3.89h-4.71v1.57c0 .484-.016 1.257-.047 2.32Zm-10.22-1.524h4.196V8.517h-4.195v2.296Zm0-3.703h4.197V5.047h-4.196v2.062Zm10.266-.234h4.711V3.641c0-.329-.164-.493-.492-.493H86.68c-.328 0-.493.164-.493.493v3.234Z"/></svg>