<svg width="107" height="22" viewBox="0 0 107 22" fill="none" xmlns="http://www.w3.org/2000/svg">
<path d="M26.6094 7.48438C26.5156 7.48438 26.3906 7.38281 26.2344 7.17969C26.0781 6.96094 26.0078 6.77344 26.0234 6.61719C26.0547 6.49219 26.0781 6.14062 26.0938 5.5625C26.1094 5.17188 26.1172 4.48438 26.1172 3.5C26.1172 2.8125 26.1094 2.35156 26.0938 2.11719L25.3203 2.1875C24.7734 2.26562 24.3047 2.30469 23.9141 2.30469C23.8047 2.30469 23.6484 2.21875 23.4453 2.04688C23.2422 1.875 23.1406 1.75 23.1406 1.67188C23.1406 1.54688 23.2734 1.5 23.5391 1.53125C23.7109 1.54688 24.2188 1.53906 25.0625 1.50781C26.2188 1.42969 27.0547 1.38281 27.5703 1.36719C27.8359 1.35156 28.0781 1.32812 28.2969 1.29688C28.5312 1.25 28.6953 1.21875 28.7891 1.20312C28.9297 1.1875 29.0547 1.20312 29.1641 1.25C29.2734 1.29688 29.375 1.35938 29.4688 1.4375C29.5781 1.5 29.6641 1.54688 29.7266 1.57812C29.8672 1.67188 29.9375 1.75781 29.9375 1.83594C29.9375 1.89844 29.8984 1.96094 29.8203 2.02344C29.7578 2.07031 29.6875 2.09375 29.6094 2.09375C29.5312 2.09375 29.4219 2.08594 29.2812 2.07031C29.1562 2.05469 29.0156 2.04688 28.8594 2.04688C28.2812 2.04688 27.6875 2.0625 27.0781 2.09375C27.0625 2.21875 27.0547 2.53125 27.0547 3.03125C27.0234 3.875 27.0078 4.70312 27.0078 5.51562V6.42969V6.64062C27.0078 6.90625 26.9844 7.07812 26.9375 7.15625C26.7969 7.375 26.6875 7.48438 26.6094 7.48438ZM24.1016 11.6328C23.9297 11.6328 23.7188 11.5 23.4688 11.2344C23.2812 11.0469 23.1875 10.9062 23.1875 10.8125C23.1875 10.7656 23.2188 10.7422 23.2812 10.7422C23.3438 10.7266 23.4219 10.7188 23.5156 10.7188L24.0312 10.6953C24.3281 10.6953 24.5234 10.6875 24.6172 10.6719C24.9141 10.6719 25.1641 10.6641 25.3672 10.6484C26.7109 10.5234 27.6172 10.4219 28.0859 10.3438C28.3203 10.3125 28.5312 10.2812 28.7188 10.25C28.9062 10.2031 29.0547 10.1797 29.1641 10.1797C29.3828 10.1797 29.6016 10.2891 29.8203 10.5078C29.9922 10.6797 30.0781 10.8203 30.0781 10.9297C30.0781 11.0234 30.0234 11.0859 29.9141 11.1172C29.8359 11.1328 29.375 11.1641 28.5312 11.2109C28.0625 11.2266 27.4844 11.2656 26.7969 11.3281C26.1094 11.3906 25.5078 11.4531 24.9922 11.5156C24.8984 11.5312 24.7656 11.5547 24.5938 11.5859C24.4219 11.6172 24.2578 11.6328 24.1016 11.6328ZM26.7734 21.4297C26.6641 21.4297 26.5859 21.3984 26.5391 21.3359C26.4922 21.2734 26.4609 21.2344 26.4453 21.2188C26.2891 21 26.2188 20.7891 26.2344 20.5859C26.25 20.4609 26.2734 20.125 26.3047 19.5781L26.3281 18.4531C26.3125 18.2812 26.2969 18.1797 26.2812 18.1484C26.2656 18.1016 26.1953 18.0078 26.0703 17.8672C25.8203 17.5547 25.5312 17.2344 25.2031 16.9062C24.8281 16.5312 24.5859 16.2812 24.4766 16.1562C24.4766 16.1562 24.2422 15.9219 23.7734 15.4531C23.7266 15.4062 23.7031 15.3594 23.7031 15.3125C23.7031 15.2344 23.75 15.1719 23.8438 15.125C23.9531 15.0625 24.0625 15.0391 24.1719 15.0547C24.4844 15.0859 24.6875 15.125 24.7812 15.1719C24.8906 15.2031 24.9922 15.2969 25.0859 15.4531C25.1797 15.6094 25.3125 15.7969 25.4844 16.0156C25.6719 16.2188 25.8125 16.375 25.9062 16.4844C26.2969 16.9531 26.5703 17.2656 26.7266 17.4219C27.0078 17.0938 27.3594 16.625 27.7812 16.0156C28.125 15.5781 28.3281 15.2188 28.3906 14.9375C28.4531 14.7344 28.5469 14.6328 28.6719 14.6328C28.7344 14.6328 28.8281 14.6719 28.9531 14.75C29.3594 15 29.5625 15.2031 29.5625 15.3594C29.5625 15.4531 29.4609 15.5703 29.2578 15.7109C28.9766 15.9141 28.7422 16.1406 28.5547 16.3906L28.0859 16.9766C27.7734 17.3516 27.5391 17.6484 27.3828 17.8672C27.3047 18.0078 27.2656 18.2109 27.2656 18.4766V19.9062V20.8438C27.2812 20.9531 27.2188 21.0781 27.0781 21.2188C26.9531 21.3594 26.8516 21.4297 26.7734 21.4297ZM30.9219 12.5234C31 12.5234 31.1172 12.5781 31.2734 12.6875C31.2578 12.7188 31.2891 12.7812 31.3672 12.875C31.4453 12.9531 31.5 13.0078 31.5312 13.0391C31.6094 13.1172 31.6875 13.2109 31.7656 13.3203C31.8594 13.4297 31.9609 13.5469 32.0703 13.6719C32.3516 13.9688 33 14.7422 34.0156 15.9922C34.1875 16.2422 34.2734 16.3906 34.2734 16.4375C34.2734 16.5938 34.1797 16.6719 33.9922 16.6719C33.8828 16.6719 33.7656 16.5938 33.6406 16.4375C33.3438 16.125 32.8125 15.6328 32.0469 14.9609C31.4531 14.4141 30.9141 13.9922 30.4297 13.6953C30.1953 13.5859 30.0781 13.4609 30.0781 13.3203C30.0781 13.2109 30.1953 13.0547 30.4297 12.8516C30.6484 12.6328 30.8125 12.5234 30.9219 12.5234ZM10.2734 21.7578C9.66406 21.7578 9.35938 21.4531 9.35938 20.8438V3.85156H1.34375C0.765625 3.85156 0.476562 3.5625 0.476562 2.98438C0.476562 2.40625 0.765625 2.11719 1.34375 2.11719H10.7188H20.1172C20.6953 2.11719 20.9844 2.40625 20.9844 2.98438C20.9844 3.5625 20.6953 3.85156 20.1172 3.85156H11.1875V8.02344L11.375 7.78906C11.4531 7.71094 11.5391 7.69531 11.6328 7.74219C14.5859 9.19531 17.0703 10.6406 19.0859 12.0781C19.3359 12.25 19.4609 12.4375 19.4609 12.6406C19.4609 12.7969 19.3516 13.0234 19.1328 13.3203C18.9141 13.6016 18.7266 13.7656 18.5703 13.8125C18.3828 13.875 18.1641 13.8125 17.9141 13.625C16.2422 12.3438 14 10.9453 11.1875 9.42969V20.8438C11.1875 21.4531 10.8828 21.7578 10.2734 21.7578Z" fill="#333333"/>
<path d="M62.6094 7.48438C62.5156 7.48438 62.3906 7.38281 62.2344 7.17969C62.0781 6.96094 62.0078 6.77344 62.0234 6.61719C62.0547 6.49219 62.0781 6.14062 62.0938 5.5625C62.1094 5.17188 62.1172 4.48438 62.1172 3.5C62.1172 2.8125 62.1094 2.35156 62.0938 2.11719L61.3203 2.1875C60.7734 2.26562 60.3047 2.30469 59.9141 2.30469C59.8047 2.30469 59.6484 2.21875 59.4453 2.04688C59.2422 1.875 59.1406 1.75 59.1406 1.67188C59.1406 1.54688 59.2734 1.5 59.5391 1.53125C59.7109 1.54688 60.2188 1.53906 61.0625 1.50781C62.2188 1.42969 63.0547 1.38281 63.5703 1.36719C63.8359 1.35156 64.0781 1.32812 64.2969 1.29688C64.5312 1.25 64.6953 1.21875 64.7891 1.20312C64.9297 1.1875 65.0547 1.20312 65.1641 1.25C65.2734 1.29688 65.375 1.35938 65.4688 1.4375C65.5781 1.5 65.6641 1.54688 65.7266 1.57812C65.8672 1.67188 65.9375 1.75781 65.9375 1.83594C65.9375 1.89844 65.8984 1.96094 65.8203 2.02344C65.7578 2.07031 65.6875 2.09375 65.6094 2.09375C65.5312 2.09375 65.4219 2.08594 65.2812 2.07031C65.1562 2.05469 65.0156 2.04688 64.8594 2.04688C64.2812 2.04688 63.6875 2.0625 63.0781 2.09375C63.0625 2.21875 63.0547 2.53125 63.0547 3.03125C63.0234 3.875 63.0078 4.70312 63.0078 5.51562V6.42969V6.64062C63.0078 6.90625 62.9844 7.07812 62.9375 7.15625C62.7969 7.375 62.6875 7.48438 62.6094 7.48438ZM60.6172 13.2266C60.1016 13.0391 59.8594 12.8359 59.8906 12.6172C59.9844 11.9609 60.0312 11.2109 60.0312 10.3672C60.0312 9.99219 60.0234 9.71875 60.0078 9.54688C59.9922 9.34375 59.9766 9.17188 59.9609 9.03125C59.9453 8.875 59.9453 8.78906 59.9609 8.77344C60.0234 8.71094 60.1016 8.67969 60.1953 8.67969C60.3359 8.67969 60.5078 8.74219 60.7109 8.86719C60.9297 8.99219 61.0391 9.11719 61.0391 9.24219C61.0391 9.32031 61.0312 9.39844 61.0156 9.47656C61 9.53906 60.9922 9.60938 60.9922 9.6875L60.8516 12.0078C60.8516 12.1328 60.8984 12.2109 60.9922 12.2422H61.1094C61.2344 12.2422 61.3203 12.2344 61.3672 12.2188L64.3906 11.7969V11.1875C64.3906 10.4219 64.375 9.82812 64.3438 9.40625C64.3281 9.04688 64.2891 8.75781 64.2266 8.53906C64.1797 8.28906 64.2422 8.16406 64.4141 8.16406C64.5391 8.16406 64.7031 8.21094 64.9062 8.30469C65.1562 8.42969 65.3047 8.53906 65.3516 8.63281C65.3984 8.71094 65.4141 8.83594 65.3984 9.00781C65.3672 9.28906 65.3516 9.71094 65.3516 10.2734L65.375 12.0547C65.375 12.4297 65.3047 12.7266 65.1641 12.9453C65.0859 13.0391 65.0078 13.0859 64.9297 13.0859C64.8516 13.0859 64.7422 13.0156 64.6016 12.875C64.5703 12.8438 64.5312 12.7969 64.4844 12.7344C64.4375 12.6719 64.3906 12.6328 64.3438 12.6172C64.2969 12.6016 64.2344 12.5938 64.1562 12.5938C63.7969 12.625 62.9297 12.7422 61.5547 12.9453C61.3203 12.9766 61.1328 13.0391 60.9922 13.1328C60.8359 13.2109 60.7344 13.25 60.6875 13.25L60.6172 13.2266ZM63.2422 21.3125C62.7578 21.3125 62.3828 21.2969 62.1172 21.2656C61.8672 21.2344 61.6562 21.1406 61.4844 20.9844C61.1875 20.7656 60.9844 20.2891 60.875 19.5547L60.8047 18.8047C60.8047 18.6172 60.7891 18.3828 60.7578 18.1016C60.5078 18.1328 60.3281 18.1641 60.2188 18.1953C60.1875 18.2109 60.1328 18.2344 60.0547 18.2656C59.9922 18.2812 59.9453 18.2891 59.9141 18.2891C59.8047 18.2891 59.7031 18.2578 59.6094 18.1953C59.5156 18.1328 59.3984 18.0156 59.2578 17.8438C59.1484 17.7031 59.0938 17.6094 59.0938 17.5625C59.0938 17.5156 59.1484 17.4844 59.2578 17.4688C59.3672 17.4531 59.5156 17.4453 59.7031 17.4453C59.9688 17.4453 60.3125 17.4141 60.7344 17.3516L60.7109 17.0234C60.7109 16.3984 60.6719 15.8672 60.5938 15.4297L60.5703 15.2656C60.5703 15.0469 60.6562 14.9609 60.8281 15.0078C61.0156 15.0703 61.1875 15.1484 61.3438 15.2422C61.4688 15.3047 61.5547 15.3672 61.6016 15.4297C61.6484 15.4766 61.6641 15.5469 61.6484 15.6406L61.5781 16.6484V17.2578L63.6406 17.0469C63.6406 16.9375 63.6484 16.6797 63.6641 16.2734C63.6797 15.8516 63.6797 15.5781 63.6641 15.4531C63.6641 15.3281 63.6484 15.2109 63.6172 15.1016C63.6016 14.9766 63.5859 14.875 63.5703 14.7969C63.5703 14.6719 63.6328 14.6094 63.7578 14.6094C63.8828 14.6094 64.0391 14.6797 64.2266 14.8203C64.4453 14.9609 64.5859 15.0859 64.6484 15.1953C64.7266 15.3047 64.7422 15.4375 64.6953 15.5938C64.6172 15.8438 64.5625 16.125 64.5312 16.4375C64.5 16.75 64.4844 16.9375 64.4844 17C64.6719 16.9844 64.8438 16.9609 65 16.9297C65.1562 16.8984 65.2578 16.8828 65.3047 16.8828C65.4297 16.8516 65.5781 16.8359 65.75 16.8359C65.8438 16.8516 65.9766 16.9453 66.1484 17.1172C66.2891 17.3047 66.3594 17.4531 66.3594 17.5625C66.3594 17.7188 66.2109 17.7812 65.9141 17.75C65.6484 17.7031 65.3828 17.6797 65.1172 17.6797C64.8516 17.6797 64.625 17.6875 64.4375 17.7031C64.3906 18.2656 64.2969 18.8203 64.1562 19.3672C64.125 19.4922 64.0703 19.6016 63.9922 19.6953C63.9141 19.7734 63.8438 19.8125 63.7812 19.8125C63.6719 19.8125 63.6016 19.7734 63.5703 19.6953C63.5547 19.6016 63.5469 19.4609 63.5469 19.2734C63.5781 18.8672 63.5938 18.3594 63.5938 17.75C63.1719 17.7812 62.8438 17.8125 62.6094 17.8438C62.25 17.9219 61.9141 17.9688 61.6016 17.9844C61.5859 18.625 61.6172 19.1953 61.6953 19.6953C61.7422 20.0234 61.8359 20.25 61.9766 20.375C62.0703 20.4531 62.1797 20.5 62.3047 20.5156C62.4453 20.5312 62.5859 20.5391 62.7266 20.5391C62.8672 20.5391 62.9609 20.5391 63.0078 20.5391C63.4922 20.5391 63.9453 20.5156 64.3672 20.4688C64.4922 20.4531 64.6016 20.4219 64.6953 20.375C64.8047 20.3281 64.8828 20.3047 64.9297 20.3047C65.0703 20.3047 65.2109 20.3516 65.3516 20.4453C65.4922 20.5391 65.5625 20.6484 65.5625 20.7734C65.5625 20.8984 65.4922 20.9922 65.3516 21.0547C65.2266 21.1172 65.0234 21.1719 64.7422 21.2188C64.2422 21.2812 63.7422 21.3125 63.2422 21.3125ZM69.9219 10.6484C70.1094 10.6484 70.2031 10.7344 70.2031 10.9062C70.2031 11 70.1172 11.1328 69.9453 11.3047C69.4766 11.8828 68.5469 12.9844 67.1562 14.6094C67.0469 14.75 66.9453 14.8203 66.8516 14.8203C66.7734 14.8203 66.6016 14.7031 66.3359 14.4688C66.1172 14.2812 66.0078 14.125 66.0078 14C66.0078 13.8594 66.125 13.7266 66.3594 13.6016C66.7188 13.3984 67.2578 12.9922 67.9766 12.3828C68.6953 11.7422 69.2266 11.2344 69.5703 10.8594C69.7109 10.7188 69.8281 10.6484 69.9219 10.6484ZM43.8125 21.7812C43.1875 21.7812 42.8047 21.5938 42.6641 21.2188C42.5391 20.9062 42.5859 20.6797 42.8047 20.5391C42.9922 20.3984 43.2812 20.3359 43.6719 20.3516C44.6562 20.3516 45.2344 20.3438 45.4062 20.3281C45.5938 20.3125 45.7188 20.2812 45.7812 20.2344C45.8438 20.1875 45.875 20.0859 45.875 19.9297V17.1875H37.3438C36.875 17.1875 36.6406 16.9453 36.6406 16.4609C36.6406 15.9922 36.875 15.7578 37.3438 15.7578H45.875V15.0312C45.875 14.6562 46.0625 14.4688 46.4375 14.4688H46.8828C47.8203 14.0625 48.75 13.5625 49.6719 12.9688H41.375C40.9375 12.9688 40.7188 12.75 40.7188 12.3125C40.7188 11.875 40.9375 11.6562 41.375 11.6562H46.0625H50.9375C51.5 11.6562 51.8281 11.7891 51.9219 12.0547C52.0312 12.3047 51.875 12.6562 51.4531 13.1094C50.5 13.9688 49.2031 14.7578 47.5625 15.4766V15.7578H56.1172C56.5859 15.7578 56.8203 15.9922 56.8203 16.4609C56.8203 16.9453 56.5859 17.1875 56.1172 17.1875H47.5625V19.9766C47.5625 20.4297 47.5 20.7734 47.375 21.0078C47.2344 21.2422 46.9844 21.4141 46.625 21.5234C46.1406 21.6953 45.2031 21.7812 43.8125 21.7812ZM37.7656 12.9688C37.2188 12.9688 36.9453 12.6953 36.9453 12.1484V10.0859C36.9453 9.67969 37.0703 9.35156 37.3203 9.10156C37.5703 8.85156 37.8984 8.72656 38.3047 8.72656H38.7734L38.3984 2.58594C38.3828 2.24219 38.4688 1.99219 38.6562 1.83594C38.8438 1.66406 39.1094 1.61719 39.4531 1.69531L39.5234 1.71875C40.4922 1.4375 41.4531 1.11719 42.4062 0.757812C42.6562 0.648438 42.9062 0.726562 43.1562 0.992188C43.5 1.38281 43.4531 1.67188 43.0156 1.85938C42.2812 2.125 41.2812 2.41406 40.0156 2.72656L40.0859 3.75781H42.9219C43.3125 3.75781 43.5078 3.95312 43.5078 4.34375C43.5078 4.75 43.3125 4.95312 42.9219 4.95312H40.1562L40.25 6.21875H43.0156C43.4062 6.21875 43.6016 6.41406 43.6016 6.80469C43.6016 7.21094 43.4062 7.41406 43.0156 7.41406H40.3203L40.3906 8.72656H53.1172C53.1641 8.36719 53.2109 7.92969 53.2578 7.41406H50.4688C50.0781 7.41406 49.8828 7.21094 49.8828 6.80469C49.8828 6.41406 50.0781 6.21875 50.4688 6.21875H53.3516L53.4688 4.95312H50.5859C50.1953 4.95312 50 4.75 50 4.34375C50 3.95312 50.1953 3.75781 50.5859 3.75781H53.5391L53.5859 2.96094C53.6172 2.63281 53.4609 2.46875 53.1172 2.46875H50.4922C50.1016 2.46875 49.9062 2.26562 49.9062 1.85938C49.9062 1.46875 50.1016 1.27344 50.4922 1.27344H53.8906C54.3125 1.27344 54.6406 1.39844 54.875 1.64844C55.125 1.89844 55.2344 2.22656 55.2031 2.63281C55.1094 4.77344 54.9688 6.80469 54.7812 8.72656H55.7656C56.0156 8.72656 56.2109 8.80469 56.3516 8.96094C56.5078 9.10156 56.5859 9.29688 56.5859 9.54688V12.125C56.5859 12.6875 56.3047 12.9688 55.7422 12.9688C55.1641 12.9688 54.875 12.6875 54.875 12.125V10.5547C54.875 10.2266 54.7109 10.0625 54.3828 10.0625H46.7188H39.0781C38.75 10.0625 38.5859 10.2266 38.5859 10.5547V12.1484C38.5859 12.6953 38.3125 12.9688 37.7656 12.9688ZM45.2656 8.32812C44.9375 8.51562 44.6406 8.5 44.375 8.28125C43.9688 7.90625 44.0312 7.59375 44.5625 7.34375C45.0781 7.03125 45.5391 6.72656 45.9453 6.42969C45.5703 6.17969 45.2891 6 45.1016 5.89062C44.7109 5.67188 44.6953 5.40625 45.0547 5.09375C45.2734 4.90625 45.5 4.875 45.7344 5C46.1719 5.25 46.5625 5.48438 46.9062 5.70312C47.2344 5.39062 47.5156 5.10156 47.75 4.83594C47.9375 4.58594 48.1953 4.50781 48.5234 4.60156C49.0234 4.74219 49.1094 5.01562 48.7812 5.42188C48.4062 5.82812 48.1094 6.14062 47.8906 6.35938C48.2031 6.57812 48.5234 6.84375 48.8516 7.15625C49.1172 7.40625 49.1016 7.67188 48.8047 7.95312C48.5078 8.23438 48.2344 8.25 47.9844 8C47.625 7.67188 47.2812 7.39062 46.9531 7.15625C46.7812 7.28125 46.5234 7.46875 46.1797 7.71875C46.0391 7.82812 45.9375 7.90625 45.875 7.95312C45.7812 8.01562 45.6484 8.09375 45.4766 8.1875C45.3828 8.25 45.3125 8.29688 45.2656 8.32812ZM45.1719 4.29688C44.8594 4.46875 44.5703 4.44531 44.3047 4.22656C43.9297 3.89844 43.9766 3.60156 44.4453 3.33594C44.8828 3.08594 45.3359 2.79688 45.8047 2.46875C45.6641 2.375 45.4609 2.25 45.1953 2.09375C45.0859 2.01562 45 1.96094 44.9375 1.92969C44.5625 1.71094 44.5469 1.45312 44.8906 1.15625C45.1094 0.96875 45.3359 0.9375 45.5703 1.0625C45.8828 1.21875 46.2812 1.44531 46.7656 1.74219C46.9531 1.58594 47.2031 1.33594 47.5156 0.992188C47.6875 0.757812 47.9375 0.6875 48.2656 0.78125C48.7656 0.921875 48.8516 1.17969 48.5234 1.55469C48.3047 1.80469 48.0391 2.07812 47.7266 2.375C48.0703 2.625 48.3594 2.84375 48.5938 3.03125C48.8906 3.28125 48.8828 3.5625 48.5703 3.875C48.2734 4.17188 47.9922 4.17188 47.7266 3.875C47.5859 3.75 47.3516 3.5625 47.0234 3.3125C46.9297 3.23438 46.8594 3.17969 46.8125 3.14844C46.4688 3.39844 46.1172 3.65625 45.7578 3.92188C45.6641 3.98438 45.5234 4.07812 45.3359 4.20312C45.2578 4.25 45.2031 4.28125 45.1719 4.29688Z" fill="#333333"/>
<path d="M100.273 10.5312C100.039 10.5312 99.8359 10.4453 99.6641 10.2734C99.1484 9.71094 98.625 9.20312 98.0938 8.75C97.5 8.25 96.9766 7.875 96.5234 7.625C96.3047 7.5 96.1953 7.30469 96.1953 7.03906C96.1953 6.99219 96.25 6.92969 96.3594 6.85156C96.5 6.75781 96.7266 6.55469 97.0391 6.24219L97.8828 5.42188C98.2578 5.03125 98.5703 4.67969 98.8203 4.36719C99.0859 4.05469 99.2344 3.83594 99.2656 3.71094C99.2812 3.67969 99.2969 3.61719 99.3125 3.52344C99.3438 3.41406 99.3906 3.35938 99.4531 3.35938C99.5312 3.35938 99.6328 3.39844 99.7578 3.47656C99.8984 3.55469 100.016 3.63281 100.109 3.71094C100.344 3.92969 100.461 4.11719 100.461 4.27344C100.445 4.32031 100.383 4.375 100.273 4.4375C100.18 4.48438 100.094 4.53125 100.016 4.57812C99.9375 4.64062 99.6562 4.89062 99.1719 5.32812L97.6484 6.64062C97.3828 6.85938 97.25 7.03125 97.25 7.15625C97.25 7.21875 97.375 7.32031 97.625 7.46094C97.9219 7.64844 98.5 8.03125 99.3594 8.60938C99.6875 8.82812 100 9.07031 100.297 9.33594C100.547 9.58594 100.672 9.84375 100.672 10.1094C100.672 10.2344 100.617 10.3438 100.508 10.4375C100.445 10.5 100.367 10.5312 100.273 10.5312ZM96.1016 15.8516C95.9297 15.8516 95.7188 15.7188 95.4688 15.4531C95.2812 15.2656 95.1875 15.125 95.1875 15.0312C95.1875 14.9844 95.2188 14.9609 95.2812 14.9609C95.3438 14.9453 95.4219 14.9375 95.5156 14.9375L96.0312 14.9141C96.3281 14.9141 96.5234 14.9062 96.6172 14.8906C96.9141 14.8906 97.1641 14.8828 97.3672 14.8672C98.7109 14.7422 99.6172 14.6406 100.086 14.5625C100.32 14.5312 100.531 14.5 100.719 14.4688C100.906 14.4219 101.055 14.3984 101.164 14.3984C101.383 14.3984 101.602 14.5078 101.82 14.7266C101.992 14.8984 102.078 15.0391 102.078 15.1484C102.078 15.2422 102.023 15.3047 101.914 15.3359C101.836 15.3516 101.375 15.3828 100.531 15.4297C100.062 15.4453 99.4844 15.4844 98.7969 15.5469C98.1094 15.6094 97.5078 15.6719 96.9922 15.7344C96.8984 15.75 96.7656 15.7734 96.5938 15.8047C96.4219 15.8359 96.2578 15.8516 96.1016 15.8516ZM105.922 8.07031C106.109 8.07031 106.203 8.15625 106.203 8.32812C106.203 8.42188 106.117 8.55469 105.945 8.72656C105.477 9.30469 104.547 10.4062 103.156 12.0312C103.047 12.1719 102.945 12.2422 102.852 12.2422C102.773 12.2422 102.602 12.125 102.336 11.8906C102.117 11.7031 102.008 11.5469 102.008 11.4219C102.008 11.2812 102.125 11.1484 102.359 11.0234C102.719 10.8203 103.258 10.4141 103.977 9.80469C104.695 9.16406 105.227 8.65625 105.57 8.28125C105.711 8.14062 105.828 8.07031 105.922 8.07031ZM74.0234 21.3125C73.6797 21.6406 73.3125 21.6641 72.9219 21.3828C72.3906 21.0078 72.3672 20.5859 72.8516 20.1172C73.6953 19.3047 74.3984 18.3672 74.9609 17.3047C75.1797 16.8516 75.5391 16.6953 76.0391 16.8359C76.6328 17.0078 76.7969 17.3594 76.5312 17.8906C76.2188 18.4844 75.8359 19.0781 75.3828 19.6719C75.0234 20.1875 74.5703 20.7344 74.0234 21.3125ZM89.3516 21.7109C88.6172 21.7109 88.1797 21.4844 88.0391 21.0312C87.9297 20.6875 88 20.4297 88.25 20.2578C88.4688 20.1016 88.7891 20.0312 89.2109 20.0469C89.8984 20.0469 90.3047 20.0391 90.4297 20.0234C90.7422 20.0234 90.8984 19.8594 90.8984 19.5312V13.9062H86.0234C85.7734 16.8438 85.2031 19.2266 84.3125 21.0547C84.125 21.3672 83.9453 21.5469 83.7734 21.5938C83.6016 21.6562 83.375 21.5859 83.0938 21.3828C82.8438 21.2109 82.7109 21.0156 82.6953 20.7969C82.6797 20.6094 82.75 20.3672 82.9062 20.0703C83.5625 18.7266 84.0234 17.0547 84.2891 15.0547C84.4609 13.6797 84.5469 12 84.5469 10.0156V2.91406C84.5469 2.50781 84.6719 2.17969 84.9219 1.92969C85.1719 1.67969 85.5 1.55469 85.9062 1.55469H88.5547H91.2266C91.6328 1.55469 91.9609 1.67969 92.2109 1.92969C92.4609 2.17969 92.5859 2.50781 92.5859 2.91406V19.5547C92.5859 20.5078 92.2891 21.1172 91.6953 21.3828C91.2109 21.5703 90.4297 21.6797 89.3516 21.7109ZM81.7109 20.4688C81.2109 20.75 80.8516 20.6797 80.6328 20.2578C80.4453 19.9297 80.2266 19.5781 79.9766 19.2031C79.8047 18.9219 79.5156 18.5156 79.1094 17.9844C78.7812 17.5625 78.8594 17.2109 79.3438 16.9297C79.7188 16.7109 80.0547 16.7734 80.3516 17.1172C81.0547 17.9766 81.6328 18.7891 82.0859 19.5547C82.1953 19.7578 82.2188 19.9375 82.1562 20.0938C82.0938 20.2031 81.9453 20.3281 81.7109 20.4688ZM72.875 16.1328C72.3594 16.1328 72.1016 15.8672 72.1016 15.3359C72.1016 14.8203 72.3594 14.5625 72.875 14.5625H74.3516V5.04688H73.1562C72.6406 5.04688 72.3828 4.78125 72.3828 4.25C72.3828 3.73438 72.6406 3.47656 73.1562 3.47656H74.3516V1.41406C74.3516 0.898438 74.6172 0.640625 75.1484 0.640625C75.6641 0.640625 75.9219 0.898438 75.9219 1.41406V3.47656H80.1172V1.4375C80.1172 0.90625 80.3828 0.640625 80.9141 0.640625C81.4453 0.640625 81.7109 0.90625 81.7109 1.4375V3.47656H82.6484C83.1641 3.47656 83.4219 3.73438 83.4219 4.25C83.4219 4.78125 83.1641 5.04688 82.6484 5.04688H81.7109V14.5625H82.6484C83.1641 14.5625 83.4219 14.8203 83.4219 15.3359C83.4219 15.8672 83.1641 16.1328 82.6484 16.1328H77.75H72.875ZM75.9219 14.5625H80.1172V12.2188H78.0078H75.9219V14.5625ZM86.1406 12.3359H88.5078H90.8984V8.44531H86.1875V10.0156C86.1875 10.5 86.1719 11.2734 86.1406 12.3359ZM75.9219 10.8125H80.1172V8.51562H78.0078H75.9219V10.8125ZM75.9219 7.10938H78.0078H80.1172V5.04688H75.9219V7.10938ZM86.1875 6.875H88.5312H90.8984V3.64062C90.8984 3.3125 90.7344 3.14844 90.4062 3.14844H86.6797C86.3516 3.14844 86.1875 3.3125 86.1875 3.64062V6.875Z" fill="#333333"/>
</svg>
