<svg width="320" height="60" viewBox="0 0 320 60" fill="none" xmlns="http://www.w3.org/2000/svg">
<path d="M104.52 30.0625C104.392 30.0625 104.31 30.0534 104.273 30.0352C104.255 29.9987 104.283 29.9349 104.355 29.8438C104.611 29.6068 104.811 29.3789 104.957 29.1602C105.121 28.9232 105.294 28.5495 105.477 28.0391C105.768 27.2005 105.914 26.5534 105.914 26.0977C105.914 25.6784 105.887 25.2956 105.832 24.9492V24.8672C105.832 24.6667 105.96 24.6029 106.215 24.6758C106.434 24.7305 106.68 24.8034 106.953 24.8945C107.008 24.8763 107.09 24.8672 107.199 24.8672C107.309 24.849 107.482 24.8216 107.719 24.7852C108.339 24.694 109.141 24.6029 110.125 24.5117C110.125 24.4388 110.198 24.1836 110.344 23.7461L110.508 23.1445C110.581 22.8893 110.553 22.7617 110.426 22.7617C110.061 22.7617 109.214 22.8529 107.883 23.0352L106.434 23.2812C106.306 23.2995 106.142 23.2448 105.941 23.1172C105.759 22.9896 105.613 22.8438 105.504 22.6797C105.413 22.5156 105.431 22.4062 105.559 22.3516C105.704 22.2604 105.85 22.2148 105.996 22.2148C106.142 22.2148 106.233 22.2148 106.27 22.2148H106.625L108.43 22.1602L110.18 21.9414C110.271 21.9232 110.38 21.8958 110.508 21.8594C110.654 21.8047 110.79 21.7682 110.918 21.75C111.1 21.7135 111.41 21.9141 111.848 22.3516C111.921 22.4245 111.957 22.5065 111.957 22.5977C111.957 22.707 111.884 22.8164 111.738 22.9258C111.538 23.1263 111.41 23.2995 111.355 23.4453C111.337 23.5365 111.301 23.6732 111.246 23.8555C111.191 24.0195 111.137 24.2292 111.082 24.4844C111.191 24.612 111.246 24.7669 111.246 24.9492C111.246 25.0951 111.201 25.2044 111.109 25.2773C111.036 25.332 110.882 25.3594 110.645 25.3594C109.824 25.4141 109.177 25.4688 108.703 25.5234C108.229 25.5599 107.655 25.651 106.98 25.7969C106.908 26.6172 106.743 27.3737 106.488 28.0664C106.233 28.7409 105.878 29.2513 105.422 29.5977C104.984 29.9076 104.684 30.0625 104.52 30.0625ZM105.121 39.1406C104.848 39.1406 104.638 39.0677 104.492 38.9219C104.328 38.7578 104.246 38.612 104.246 38.4844C104.246 38.3568 104.319 38.2201 104.465 38.0742C104.483 38.056 104.583 37.9102 104.766 37.6367C105.167 36.9987 105.622 36.1875 106.133 35.2031C106.661 34.2005 106.99 33.5169 107.117 33.1523C107.227 32.806 107.327 32.5052 107.418 32.25C107.527 31.9948 107.618 31.8672 107.691 31.8672C107.819 31.8672 107.928 31.9128 108.02 32.0039C108.111 32.0768 108.202 32.1862 108.293 32.332C108.402 32.4596 108.484 32.5508 108.539 32.6055C108.667 32.7513 108.73 32.888 108.73 33.0156C108.73 33.1068 108.694 33.1979 108.621 33.2891C108.548 33.3802 108.503 33.444 108.484 33.4805L107.281 35.5039C106.971 36.069 106.561 36.7708 106.051 37.6094C105.978 37.7005 105.941 37.7917 105.941 37.8828C105.941 37.9557 106.023 37.9922 106.188 37.9922C106.534 37.9922 107.181 37.9557 108.129 37.8828C109.077 37.7917 109.715 37.7188 110.043 37.6641C110.517 37.6094 110.845 37.5547 111.027 37.5C111.228 37.4453 111.52 37.582 111.902 37.9102C112.358 38.293 112.458 38.5391 112.203 38.6484C112.057 38.7214 111.775 38.7578 111.355 38.7578H110.262C110.025 38.7578 109.651 38.776 109.141 38.8125C108.831 38.8125 108.484 38.8216 108.102 38.8398C107.719 38.8581 107.4 38.8763 107.145 38.8945C106.853 38.9128 106.288 38.9674 105.449 39.0586L105.121 39.1406ZM89.207 35.0391L86.6094 35.2305H85.7344C85.5156 35.194 85.2969 35.1302 85.0781 35.0391C84.8594 34.9479 84.7135 34.8294 84.6406 34.6836L84.5312 34.4102C84.5859 34.2643 84.8138 34.1732 85.2148 34.1367L86.1719 34L87.8672 33.8086L89.207 33.6445V29.2695C88.6055 29.3424 88.0951 29.3971 87.6758 29.4336C87.2565 29.4701 86.8828 29.5065 86.5547 29.543C86.3359 29.5612 86.0625 29.5703 85.7344 29.5703C85.3151 29.5703 85.0234 29.5339 84.8594 29.4609L84.1484 29.2148C83.9661 29.543 83.7656 29.8802 83.5469 30.2266C83.3646 30.5729 83.0182 31.056 82.5078 31.6758C81.9974 32.3138 81.5417 32.806 81.1406 33.1523L80.4844 33.2617L80.7578 32.8242C80.9583 32.5326 81.1953 32.1497 81.4688 31.6758C81.7604 31.2018 82.0612 30.6185 82.3711 29.9258C82.681 29.2331 82.9271 28.6406 83.1094 28.1484C83.2917 27.6562 83.4466 27.1641 83.5742 26.6719C83.7201 26.1797 83.8385 25.7422 83.9297 25.3594C84.0026 24.9766 84.0391 24.6211 84.0391 24.293C84.0391 24.0013 84.0938 23.8099 84.2031 23.7188C84.3672 23.7005 84.5768 23.737 84.832 23.8281C85.1419 23.9557 85.388 24.1107 85.5703 24.293C85.7708 24.457 85.9349 24.6393 86.0625 24.8398C86.1719 24.9857 86.2266 25.1589 86.2266 25.3594L85.9531 25.7148C85.7891 25.9154 85.6159 26.207 85.4336 26.5898L84.5312 28.5859C85.6615 28.4583 86.3177 28.3763 86.5 28.3398L89.2617 27.957V24.457C89.2617 23.8008 89.2253 23.1445 89.1523 22.4883C89.0612 21.832 88.9427 21.3398 88.7969 21.0117C88.6875 20.7565 88.6328 20.5378 88.6328 20.3555C88.6328 20.1732 88.6875 20.0456 88.7969 19.9727C88.888 19.8997 89.0521 19.8633 89.2891 19.8633C89.5443 19.8815 89.8177 19.9271 90.1094 20C90.401 20.0729 90.7109 20.1914 91.0391 20.3555C91.3672 20.5013 91.5859 20.6654 91.6953 20.8477L91.8867 21.2578C91.8867 21.4036 91.8229 21.5951 91.6953 21.832C91.513 22.1602 91.3854 22.5521 91.3125 23.0078C91.2396 23.4635 91.1849 23.9102 91.1484 24.3477L90.957 27.6836L93.4727 27.1367L94.8672 26.8359C95.1224 26.8359 95.4049 26.8633 95.7148 26.918C96.0977 26.9909 96.3802 27.1185 96.5625 27.3008C96.7448 27.4648 96.8451 27.638 96.8633 27.8203L96.3438 28.1211C96.1979 28.194 95.9427 28.2578 95.5781 28.3125L94.9219 28.4492L90.9297 29.0781L90.7656 33.5352L92.8984 33.1523L93.2539 33.0977C93.4544 33.0977 93.7917 33.125 94.2656 33.1797C94.776 33.2344 95.1771 33.3346 95.4688 33.4805C95.724 33.6263 95.8151 33.8359 95.7422 34.1094C95.5599 34.2734 95.3411 34.3737 95.0859 34.4102L93.8281 34.5742L92.0508 34.7383L90.7656 34.875L90.6562 39.5234C91.3854 39.4688 92.0964 39.4232 92.7891 39.3867C93.4818 39.3503 94.1654 39.2865 94.8398 39.1953C95.5143 39.1224 96.1068 39.0495 96.6172 38.9766C97.1276 38.9036 97.5469 38.8398 97.875 38.7852C98.2031 38.7122 98.4401 38.6758 98.5859 38.6758C98.7682 38.6758 98.9961 38.7122 99.2695 38.7852C99.543 38.8581 99.862 38.9857 100.227 39.168C100.591 39.3685 100.837 39.5781 100.965 39.7969L101.102 40.2344C101.047 40.3984 100.919 40.4896 100.719 40.5078L99.8438 40.5898H96.9453L93.0898 40.6992L89.2617 40.7812C88.0039 40.8359 86.8737 40.9271 85.8711 41.0547C84.8685 41.1823 84.2669 41.2643 84.0664 41.3008L82.8086 41.5195L81.5234 41.7383L81.0312 41.793C80.776 41.793 80.5299 41.7565 80.293 41.6836C80.0013 41.5924 79.737 41.4648 79.5 41.3008C79.2812 41.1549 79.1081 40.9271 78.9805 40.6172L79.1172 40.4258L79.5 40.3984L80.4844 40.3164L82.7812 40.1523L85.1875 39.9883L89.1523 39.5508L89.207 35.0391Z" fill="#333333"/>
<path d="M146.273 26.2344C146.255 26.2344 146.191 26.2526 146.082 26.2891C145.991 26.3073 145.945 26.2799 145.945 26.207C145.945 26.1888 145.982 26.1523 146.055 26.0977C146.128 26.0247 146.191 25.9609 146.246 25.9062C146.301 25.8516 146.383 25.7786 146.492 25.6875C146.602 25.5781 146.684 25.4688 146.738 25.3594C147.012 24.9036 147.203 24.4479 147.312 23.9922L147.477 23.0352C147.604 22.3242 147.659 21.4948 147.641 20.5469C147.641 20.3281 147.613 20.1003 147.559 19.8633C147.54 19.7539 147.449 19.599 147.285 19.3984V19.3711C147.285 19.3346 147.331 19.3164 147.422 19.3164C147.549 19.3164 147.659 19.3255 147.75 19.3438C147.987 19.3984 148.251 19.4258 148.543 19.4258C148.853 19.4076 149.044 19.3984 149.117 19.3984L150.949 19.2617C151.314 19.2253 151.551 19.207 151.66 19.207C152.444 19.0977 152.799 19.0521 152.727 19.0703C153.146 18.9974 153.401 18.9609 153.492 18.9609C153.784 18.9792 154.076 19.207 154.367 19.6445L154.422 19.7812C154.422 19.8906 154.34 19.9544 154.176 19.9727C154.012 19.9909 153.911 20 153.875 20C153.31 20 152.891 20.0091 152.617 20.0273C151.924 20.0273 151.414 20.0365 151.086 20.0547L150.32 20.1094L148.762 20.2734C148.652 21.8047 148.552 22.8073 148.461 23.2812C148.315 24.138 148.033 24.8307 147.613 25.3594C147.303 25.7604 146.857 26.0521 146.273 26.2344ZM153.164 33.9727C152.891 33.9727 152.626 33.7721 152.371 33.3711C152.043 32.8607 151.724 32.4414 151.414 32.1133L150.703 31.375C150.32 31.8125 149.983 32.1589 149.691 32.4141C149.418 32.6693 149.072 32.9154 148.652 33.1523C147.868 33.6081 147.212 33.8359 146.684 33.8359C146.556 33.8359 146.492 33.7904 146.492 33.6992C146.492 33.6445 146.665 33.526 147.012 33.3438C147.358 33.1615 147.686 32.9427 147.996 32.6875C148.78 32.0312 149.427 31.3568 149.938 30.6641C149.828 30.5547 149.281 30.0807 148.297 29.2422C148.169 29.151 147.978 28.9961 147.723 28.7773C147.668 28.7409 147.559 28.6589 147.395 28.5312C147.23 28.4036 147.148 28.3125 147.148 28.2578C147.148 28.1667 147.194 28.1211 147.285 28.1211C147.559 28.1211 147.996 28.3125 148.598 28.6953C149.199 29.0599 149.828 29.4974 150.484 30.0078C150.74 29.6979 150.94 29.4062 151.086 29.1328C151.232 28.8594 151.396 28.5221 151.578 28.1211C151.669 27.9206 151.724 27.7474 151.742 27.6016C151.76 27.4375 151.77 27.3372 151.77 27.3008C151.77 27.1003 151.824 27 151.934 27C152.061 27 152.234 27.1003 152.453 27.3008C152.836 27.6654 153.027 27.9115 153.027 28.0391C153.027 28.112 152.982 28.194 152.891 28.2852C152.672 28.5039 152.471 28.7956 152.289 29.1602C152.18 29.3789 151.979 29.6888 151.688 30.0898C151.596 30.1992 151.523 30.2995 151.469 30.3906C151.414 30.4818 151.359 30.5638 151.305 30.6367C151.724 30.9466 152.344 31.4753 153.164 32.2227C153.365 32.4049 153.492 32.5781 153.547 32.7422C153.62 32.888 153.656 33.0885 153.656 33.3438C153.656 33.526 153.611 33.681 153.52 33.8086C153.428 33.918 153.31 33.9727 153.164 33.9727ZM150.484 42.3945C149.591 42.3945 148.871 42.1667 148.324 41.7109C147.741 41.2005 147.449 40.6081 147.449 39.9336C147.449 39.3503 147.659 38.8763 148.078 38.5117C148.26 38.3477 148.507 38.2109 148.816 38.1016C149.126 37.974 149.418 37.9102 149.691 37.9102C149.874 37.9102 149.974 37.901 149.992 37.8828C150.029 37.8464 150.056 37.7552 150.074 37.6094C150.092 37.4818 150.102 37.2174 150.102 36.8164C150.083 36.7435 150.074 36.6159 150.074 36.4336C148.944 36.543 148.105 36.6523 147.559 36.7617C147.431 36.7799 147.276 36.7526 147.094 36.6797C146.93 36.5885 146.793 36.4792 146.684 36.3516C146.574 36.224 146.538 36.1328 146.574 36.0781C146.647 36.0052 146.72 35.9596 146.793 35.9414C146.866 35.9049 146.984 35.8867 147.148 35.8867C147.714 35.8867 148.124 35.8685 148.379 35.832L152.207 35.4492C152.262 35.4492 152.389 35.4401 152.59 35.4219C152.809 35.4036 153.009 35.3672 153.191 35.3125H153.273C153.346 35.3125 153.41 35.3398 153.465 35.3945C153.538 35.431 153.583 35.4492 153.602 35.4492C153.875 35.668 154.012 35.8594 154.012 36.0234C154.012 36.151 153.902 36.2148 153.684 36.2148L153.355 36.1875C153.264 36.1693 152.809 36.1875 151.988 36.2422L151.168 36.2969C151.186 36.5156 151.186 36.7891 151.168 37.1172C151.15 37.4271 151.132 37.6914 151.113 37.9102L151.141 38.2109C151.141 38.3203 151.104 38.4206 151.031 38.5117C150.922 38.694 150.74 38.7852 150.484 38.7852C150.339 38.7852 150.211 38.776 150.102 38.7578L149.828 38.7031C149.536 38.6849 149.227 38.8034 148.898 39.0586C148.625 39.332 148.488 39.6237 148.488 39.9336C148.488 40.3529 148.661 40.7083 149.008 41C149.208 41.1641 149.418 41.2734 149.637 41.3281C149.874 41.401 150.156 41.4375 150.484 41.4375C150.922 41.4375 151.332 41.3646 151.715 41.2188C152.098 41.0729 152.38 40.8542 152.562 40.5625C152.635 40.4349 152.699 40.362 152.754 40.3438C152.809 40.3073 152.909 40.2891 153.055 40.2891C153.201 40.2891 153.319 40.3346 153.41 40.4258C153.52 40.5352 153.574 40.6445 153.574 40.7539C153.574 41.082 153.273 41.4375 152.672 41.8203C152.07 42.2031 151.341 42.3945 150.484 42.3945ZM158.742 30.0898C158.961 30.0898 159.07 30.1901 159.07 30.3906C159.07 30.5 158.97 30.6549 158.77 30.8555C158.223 31.5299 157.138 32.8151 155.516 34.7109C155.388 34.875 155.27 34.957 155.16 34.957C155.069 34.957 154.868 34.8203 154.559 34.5469C154.303 34.3281 154.176 34.1458 154.176 34C154.176 33.8359 154.312 33.681 154.586 33.5352C155.005 33.2982 155.634 32.8242 156.473 32.1133C157.311 31.3659 157.931 30.7734 158.332 30.3359C158.496 30.1719 158.633 30.0898 158.742 30.0898ZM121.199 27.3828L120.68 26.8086L120.598 26.5352L120.844 26.3438L121.746 26.5078C122.293 26.6354 122.758 26.7721 123.141 26.918C123.542 27.082 123.815 27.2279 123.961 27.3555C124.107 27.4831 124.216 27.6289 124.289 27.793C124.344 27.9388 124.38 28.2122 124.398 28.6133C124.398 28.9232 124.307 29.1693 124.125 29.3516L123.715 29.4883C123.496 29.4883 123.259 29.4336 123.004 29.3242C122.712 29.1966 122.366 28.8867 121.965 28.3945L121.199 27.3828ZM124.891 32.9609L125.848 31.2383L126.148 31.0742L126.312 31.457L125.793 32.8242L125.219 34.3008L124.809 35.2852L124.344 36.3789L123.77 37.6367C123.66 37.8919 123.551 38.1745 123.441 38.4844L123.086 39.5508C122.995 39.7878 122.913 39.9792 122.84 40.125L122.348 40.4531C122.202 40.4167 122.092 40.3346 122.02 40.207C121.91 40.0794 121.819 39.8789 121.746 39.6055L121.336 38.457C121.263 38.2747 121.208 38.0833 121.172 37.8828L121.199 37.6094C121.29 37.4453 121.473 37.2539 121.746 37.0352C122.001 36.8164 122.247 36.5794 122.484 36.3242C122.703 36.0872 122.977 35.7591 123.305 35.3398C123.615 34.9206 123.897 34.5195 124.152 34.1367C124.408 33.7721 124.654 33.3802 124.891 32.9609ZM124.152 20.9844L124.508 21.0391C124.781 21.0938 125.191 21.194 125.738 21.3398C126.285 21.4857 126.668 21.6497 126.887 21.832C127.124 22.0508 127.297 22.2604 127.406 22.4609C127.516 22.6797 127.57 22.8984 127.57 23.1172C127.552 23.2995 127.507 23.4544 127.434 23.582C127.361 23.7279 127.26 23.8372 127.133 23.9102C127.005 23.9831 126.868 24.0195 126.723 24.0195C126.577 24.0195 126.404 23.9831 126.203 23.9102C126.003 23.8372 125.766 23.6458 125.492 23.3359C125.219 23.0443 125.027 22.8346 124.918 22.707C124.827 22.5977 124.608 22.306 124.262 21.832L123.906 21.0117L124.152 20.9844ZM134.871 23.5547C135.181 23.7552 135.436 23.9466 135.637 24.1289C135.819 24.293 135.883 24.5299 135.828 24.8398C135.719 25.0586 135.628 25.25 135.555 25.4141C135.5 25.5964 135.454 25.7878 135.418 25.9883L135.062 27.7656L137.797 27.5742C137.979 27.5742 138.471 27.5195 139.273 27.4102C140.076 27.319 140.632 27.2461 140.941 27.1914C141.27 27.1185 141.507 27.082 141.652 27.082C141.78 27.1003 141.917 27.1276 142.062 27.1641C142.227 27.2188 142.391 27.2917 142.555 27.3828C142.719 27.474 142.91 27.6016 143.129 27.7656C143.348 27.9115 143.493 28.1393 143.566 28.4492L143.32 28.6953L141.844 28.668C140.768 28.6315 140.167 28.6133 140.039 28.6133C139.911 28.6133 139.483 28.6315 138.754 28.668L137.387 28.6953L134.844 28.8867L134.023 33.3984C134.534 33.3073 134.962 33.2253 135.309 33.1523C135.637 33.0977 135.91 33.043 136.129 32.9883L137.277 32.6875C137.423 32.6693 137.624 32.6237 137.879 32.5508L138.344 32.4688C138.562 32.487 138.79 32.5417 139.027 32.6328C139.246 32.724 139.465 32.8333 139.684 32.9609C139.902 33.0885 140.094 33.2253 140.258 33.3711C140.422 33.5169 140.54 33.6445 140.613 33.7539L140.695 34.1094L140.449 34.3828C140.285 34.5104 140.158 34.6471 140.066 34.793C139.957 34.9388 139.848 35.1029 139.738 35.2852C139.629 35.4857 139.538 35.6953 139.465 35.9141L138.645 38.5391C138.9 38.7031 139.073 38.8398 139.164 38.9492L139.273 39.25C139.182 39.3776 139.036 39.4414 138.836 39.4414H138.234C137.924 39.4414 137.523 39.4505 137.031 39.4688C136.539 39.487 136.001 39.5326 135.418 39.6055C134.835 39.6419 134.479 39.6602 134.352 39.6602L131.453 39.7422L131.316 40.2617L130.934 40.4258L130.66 40.1797C130.46 39.9609 130.332 39.7422 130.277 39.5234C130.241 39.3229 130.177 38.9128 130.086 38.293L129.785 36.2148C129.73 35.7956 129.676 35.4766 129.621 35.2578C129.585 35.0391 129.512 34.8659 129.402 34.7383C129.329 34.6107 129.238 34.4831 129.129 34.3555C129.02 34.2279 128.91 34.1185 128.801 34.0273L128.664 33.6992C128.755 33.5898 128.883 33.5352 129.047 33.5352C129.466 33.5352 129.749 33.5534 129.895 33.5898L130.496 33.7539H131.426L132.684 33.5898L133.176 29.0234C132.483 29.1146 131.936 29.1966 131.535 29.2695L130.168 29.543C129.639 29.6523 129.257 29.7435 129.02 29.8164L128.527 29.9258C128.217 29.9258 127.953 29.8711 127.734 29.7617L126.969 29.2969L126.559 28.9688L126.586 28.75C126.659 28.6589 126.786 28.6133 126.969 28.6133H127.461C127.625 28.6133 127.862 28.5951 128.172 28.5586C128.482 28.5404 128.819 28.513 129.184 28.4766C129.548 28.4401 130.104 28.3763 130.852 28.2852L133.34 27.957L133.559 25.6875C133.577 25.487 133.586 25.3229 133.586 25.1953L133.559 24.9219C133.559 24.6849 133.522 24.4844 133.449 24.3203L133.258 23.9375L132.246 24.1016C131.9 24.1562 131.626 24.1836 131.426 24.1836L130.66 24.2656L129.785 24.375L128.91 24.4297L128.637 24.3203C128.637 24.1745 128.746 24.0742 128.965 24.0195L129.621 23.8828C130.022 23.7917 130.359 23.7188 130.633 23.6641C130.888 23.6094 131.271 23.5091 131.781 23.3633L133.559 22.8164C134.251 22.5977 134.78 22.4062 135.145 22.2422L136.348 21.668C136.73 21.4857 137.068 21.2669 137.359 21.0117L137.934 20.6289C138.116 20.6107 138.298 20.6471 138.48 20.7383C138.717 20.8477 138.964 21.0026 139.219 21.2031C139.456 21.4036 139.665 21.5951 139.848 21.7773L140.094 22.1055L140.039 22.3242C139.948 22.4154 139.802 22.4701 139.602 22.4883C139.383 22.4883 139.128 22.5247 138.836 22.5977L137.742 22.8711C137.578 22.9076 137.214 22.9987 136.648 23.1445L135.582 23.418L134.871 23.5547ZM131.48 38.7852L133.449 38.6758C133.668 38.6758 134.16 38.6302 134.926 38.5391L136.293 38.4023L137.004 38.293L137.715 35.5039C137.788 35.2669 137.852 35.0117 137.906 34.7383L137.934 34.5195L137.879 34.1641C137.806 34.0365 137.688 33.9271 137.523 33.8359L137.113 33.7539C136.858 33.7539 136.512 33.7904 136.074 33.8633C135.673 33.9362 135.072 34.0273 134.27 34.1367L132.465 34.3828L131.152 34.6016L131.48 38.7852Z" fill="#333333"/>
<path d="M188.273 26.2344C188.255 26.2344 188.191 26.2526 188.082 26.2891C187.991 26.3073 187.945 26.2799 187.945 26.207C187.945 26.1888 187.982 26.1523 188.055 26.0977C188.128 26.0247 188.191 25.9609 188.246 25.9062C188.301 25.8516 188.383 25.7786 188.492 25.6875C188.602 25.5781 188.684 25.4688 188.738 25.3594C189.012 24.9036 189.203 24.4479 189.312 23.9922L189.477 23.0352C189.604 22.3242 189.659 21.4948 189.641 20.5469C189.641 20.3281 189.613 20.1003 189.559 19.8633C189.54 19.7539 189.449 19.599 189.285 19.3984V19.3711C189.285 19.3346 189.331 19.3164 189.422 19.3164C189.549 19.3164 189.659 19.3255 189.75 19.3438C189.987 19.3984 190.251 19.4258 190.543 19.4258C190.853 19.4076 191.044 19.3984 191.117 19.3984L192.949 19.2617C193.314 19.2253 193.551 19.207 193.66 19.207C194.444 19.0977 194.799 19.0521 194.727 19.0703C195.146 18.9974 195.401 18.9609 195.492 18.9609C195.784 18.9792 196.076 19.207 196.367 19.6445L196.422 19.7812C196.422 19.8906 196.34 19.9544 196.176 19.9727C196.012 19.9909 195.911 20 195.875 20C195.31 20 194.891 20.0091 194.617 20.0273C193.924 20.0273 193.414 20.0365 193.086 20.0547L192.32 20.1094L190.762 20.2734C190.652 21.8047 190.552 22.8073 190.461 23.2812C190.315 24.138 190.033 24.8307 189.613 25.3594C189.303 25.7604 188.857 26.0521 188.273 26.2344ZM195.164 33.9727C194.891 33.9727 194.626 33.7721 194.371 33.3711C194.043 32.8607 193.724 32.4414 193.414 32.1133L192.703 31.375C192.32 31.8125 191.983 32.1589 191.691 32.4141C191.418 32.6693 191.072 32.9154 190.652 33.1523C189.868 33.6081 189.212 33.8359 188.684 33.8359C188.556 33.8359 188.492 33.7904 188.492 33.6992C188.492 33.6445 188.665 33.526 189.012 33.3438C189.358 33.1615 189.686 32.9427 189.996 32.6875C190.78 32.0312 191.427 31.3568 191.938 30.6641C191.828 30.5547 191.281 30.0807 190.297 29.2422C190.169 29.151 189.978 28.9961 189.723 28.7773C189.668 28.7409 189.559 28.6589 189.395 28.5312C189.23 28.4036 189.148 28.3125 189.148 28.2578C189.148 28.1667 189.194 28.1211 189.285 28.1211C189.559 28.1211 189.996 28.3125 190.598 28.6953C191.199 29.0599 191.828 29.4974 192.484 30.0078C192.74 29.6979 192.94 29.4062 193.086 29.1328C193.232 28.8594 193.396 28.5221 193.578 28.1211C193.669 27.9206 193.724 27.7474 193.742 27.6016C193.76 27.4375 193.77 27.3372 193.77 27.3008C193.77 27.1003 193.824 27 193.934 27C194.061 27 194.234 27.1003 194.453 27.3008C194.836 27.6654 195.027 27.9115 195.027 28.0391C195.027 28.112 194.982 28.194 194.891 28.2852C194.672 28.5039 194.471 28.7956 194.289 29.1602C194.18 29.3789 193.979 29.6888 193.688 30.0898C193.596 30.1992 193.523 30.2995 193.469 30.3906C193.414 30.4818 193.359 30.5638 193.305 30.6367C193.724 30.9466 194.344 31.4753 195.164 32.2227C195.365 32.4049 195.492 32.5781 195.547 32.7422C195.62 32.888 195.656 33.0885 195.656 33.3438C195.656 33.526 195.611 33.681 195.52 33.8086C195.428 33.918 195.31 33.9727 195.164 33.9727ZM192.402 42.668C192.275 42.668 192.184 42.6315 192.129 42.5586C192.074 42.4857 192.038 42.4401 192.02 42.4219C191.837 42.1667 191.755 41.9206 191.773 41.6836C191.792 41.5378 191.819 41.1458 191.855 40.5078L191.883 39.1953C191.865 38.9948 191.846 38.8763 191.828 38.8398C191.81 38.7852 191.728 38.6758 191.582 38.5117C191.29 38.1471 190.953 37.7734 190.57 37.3906C190.133 36.9531 189.85 36.6615 189.723 36.5156C189.723 36.5156 189.449 36.2422 188.902 35.6953C188.848 35.6406 188.82 35.5859 188.82 35.5312C188.82 35.4401 188.875 35.3672 188.984 35.3125C189.112 35.2396 189.24 35.2122 189.367 35.2305C189.732 35.2669 189.969 35.3125 190.078 35.3672C190.206 35.4036 190.324 35.513 190.434 35.6953C190.543 35.8776 190.698 36.0964 190.898 36.3516C191.117 36.5885 191.281 36.7708 191.391 36.8984C191.846 37.4453 192.165 37.8099 192.348 37.9922C192.676 37.6094 193.086 37.0625 193.578 36.3516C193.979 35.8411 194.216 35.4219 194.289 35.0938C194.362 34.8568 194.471 34.7383 194.617 34.7383C194.69 34.7383 194.799 34.7839 194.945 34.875C195.419 35.1667 195.656 35.4036 195.656 35.5859C195.656 35.6953 195.538 35.832 195.301 35.9961C194.973 36.2331 194.699 36.4974 194.48 36.7891L193.934 37.4727C193.569 37.9102 193.296 38.2565 193.113 38.5117C193.022 38.6758 192.977 38.9128 192.977 39.2227V40.8906V41.9844C192.995 42.112 192.922 42.2578 192.758 42.4219C192.612 42.5859 192.493 42.668 192.402 42.668ZM200.742 30.0898C200.961 30.0898 201.07 30.1901 201.07 30.3906C201.07 30.5 200.97 30.6549 200.77 30.8555C200.223 31.5299 199.138 32.8151 197.516 34.7109C197.388 34.875 197.27 34.957 197.16 34.957C197.069 34.957 196.868 34.8203 196.559 34.5469C196.303 34.3281 196.176 34.1458 196.176 34C196.176 33.8359 196.312 33.681 196.586 33.5352C197.005 33.2982 197.634 32.8242 198.473 32.1133C199.311 31.3659 199.931 30.7734 200.332 30.3359C200.496 30.1719 200.633 30.0898 200.742 30.0898ZM176.461 21.4219C176.57 21.0026 176.643 20.7018 176.68 20.5195C176.698 20.3372 176.725 20.1185 176.762 19.8633C176.798 19.5898 176.826 19.3438 176.844 19.125C176.844 18.8698 176.826 18.6693 176.789 18.5234L176.734 18.168C176.753 18.0221 176.853 17.9219 177.035 17.8672C177.199 17.849 177.354 17.8672 177.5 17.9219C177.755 18.013 177.974 18.1133 178.156 18.2227C178.339 18.332 178.512 18.4596 178.676 18.6055L178.949 18.9609C178.949 19.0885 178.885 19.2617 178.758 19.4805C178.667 19.6263 178.585 19.7539 178.512 19.8633L178.266 20.4102L177.883 21.2305C178.302 21.1758 178.639 21.1211 178.895 21.0664C179.168 21.0299 179.487 20.957 179.852 20.8477C180.216 20.7565 180.462 20.7018 180.59 20.6836C180.736 20.6836 180.882 20.7109 181.027 20.7656C181.21 20.8021 181.41 20.8841 181.629 21.0117C181.848 21.1211 182.012 21.2214 182.121 21.3125L182.285 21.5039L182.176 21.7773C182.03 21.8503 181.884 21.9049 181.738 21.9414L181.41 21.9688L180.617 22.0234C180.089 22.0781 179.533 22.1146 178.949 22.1328C178.384 22.1693 178.029 22.1966 177.883 22.2148L177.473 22.2695L177.281 22.6797L176.898 23.3633L176.461 24.1289L176.16 24.5117L175.641 24.6211L175.805 24.0195L176.215 22.4883L175.668 22.5703L174.793 22.6797L174.438 22.5703C174.31 22.4974 174.182 22.4336 174.055 22.3789C173.927 22.306 173.79 22.1602 173.645 21.9414C173.681 21.832 173.79 21.7682 173.973 21.75L174.41 21.7227C174.848 21.6862 175.23 21.6497 175.559 21.6133L176.461 21.4219ZM169.324 22.1055C169.215 21.7044 169.142 21.4492 169.105 21.3398C169.069 21.2305 168.978 20.9935 168.832 20.6289C168.686 20.2643 168.559 20.0091 168.449 19.8633C168.34 19.7174 168.267 19.5169 168.23 19.2617C168.303 19.1159 168.458 19.0339 168.695 19.0156C168.896 19.0156 169.078 19.0247 169.242 19.043C169.461 19.0977 169.652 19.1523 169.816 19.207L170.145 19.3164L170.363 19.4531L170.555 19.6445C170.573 19.7539 170.564 19.9362 170.527 20.1914L170.5 20.4648C170.5 20.6471 170.509 20.793 170.527 20.9023L170.637 21.9414L172.113 21.668L172.551 21.6953C172.77 21.7135 172.897 21.8047 172.934 21.9688C172.934 22.0964 172.861 22.1784 172.715 22.2148L170.719 22.7617L170.828 24.4844L170.801 24.8672C170.764 25.0312 170.609 25.1133 170.336 25.1133C170.154 24.931 170.035 24.7122 169.98 24.457L169.652 23.0898L168.449 23.418C168.23 23.4727 168.003 23.5456 167.766 23.6367C167.529 23.7461 167.355 23.8281 167.246 23.8828L166.781 23.9648C166.544 23.8555 166.371 23.7461 166.262 23.6367C166.152 23.5273 166.016 23.3724 165.852 23.1719C165.688 22.9714 165.56 22.7435 165.469 22.4883L165.66 22.2969C165.77 22.2786 165.897 22.2878 166.043 22.3242C166.189 22.3424 166.326 22.3607 166.453 22.3789C166.581 22.3971 166.745 22.4062 166.945 22.4062C167.146 22.388 167.428 22.3607 167.793 22.3242L169.324 22.1055ZM172.66 26.8086C171.895 26.8451 171.174 26.8906 170.5 26.9453C169.826 27 169.397 27.0273 169.215 27.0273C168.668 27.0273 168.285 26.9909 168.066 26.918C167.829 26.8451 167.611 26.7448 167.41 26.6172L167.164 26.3164C167.219 26.1706 167.392 26.0885 167.684 26.0703L168.887 25.9883C169.324 25.9883 170.072 25.9336 171.129 25.8242C172.204 25.7148 172.997 25.6237 173.508 25.5508C174.036 25.4961 174.747 25.4049 175.641 25.2773C176.534 25.1315 177.254 25.0039 177.801 24.8945C178.348 24.7852 178.749 24.7305 179.004 24.7305C179.259 24.7305 179.514 24.7669 179.77 24.8398C180.007 24.931 180.216 25.0404 180.398 25.168L180.672 25.4414L180.59 25.6602C180.48 25.7695 180.234 25.8607 179.852 25.9336L179.168 26.043L177.418 26.2891C176.634 26.3802 176.096 26.444 175.805 26.4805L174.383 26.5898C174.547 26.6992 174.674 26.8177 174.766 26.9453C174.857 27.0547 174.893 27.2005 174.875 27.3828L174.711 27.7656C174.62 27.9844 174.556 28.2669 174.52 28.6133C174.483 28.9596 174.456 29.3789 174.438 29.8711L174.355 33.3984C175.376 33.3438 176.142 33.2891 176.652 33.2344L179.113 32.9609C180.061 32.8698 180.79 32.7695 181.301 32.6602C181.811 32.5508 182.167 32.4961 182.367 32.4961C182.568 32.5143 182.777 32.5599 182.996 32.6328C183.197 32.7057 183.47 32.8333 183.816 33.0156C184.181 33.1797 184.436 33.3346 184.582 33.4805L184.801 33.7266C184.801 33.8906 184.719 34.0091 184.555 34.082C184.391 34.1549 184.163 34.1914 183.871 34.1914L181.547 34.2461H178.977L176.133 34.3281L174.355 34.3828L174.301 36.8711L176.215 36.6523C176.835 36.5977 177.363 36.5247 177.801 36.4336C178.257 36.3607 178.566 36.3242 178.73 36.3242C178.949 36.3242 179.141 36.3607 179.305 36.4336C179.469 36.4883 179.706 36.5977 180.016 36.7617C180.326 36.9076 180.535 37.0625 180.645 37.2266L180.754 37.582C180.717 37.6914 180.553 37.7643 180.262 37.8008L179.168 37.8555H177.418L175.668 37.9648L174.273 38.0742L174.137 40.0156L174.055 41.1914C174.036 41.4102 173.991 41.7018 173.918 42.0664C173.845 42.431 173.754 42.7227 173.645 42.9414L173.371 43.2695C173.189 43.2695 173.07 43.1419 173.016 42.8867C172.961 42.6315 172.934 42.2305 172.934 41.6836L172.852 38.2109L171.73 38.3477C171.402 38.3841 170.983 38.457 170.473 38.5664C170.017 38.6576 169.671 38.7031 169.434 38.7031C169.178 38.7031 168.859 38.6576 168.477 38.5664C168.094 38.457 167.793 38.3477 167.574 38.2383C167.392 38.0924 167.301 37.9557 167.301 37.8281C167.337 37.7005 167.438 37.6276 167.602 37.6094L168.504 37.5273L169.926 37.418C170.145 37.3815 170.673 37.3177 171.512 37.2266L172.879 37.0625L172.852 34.4922C172.068 34.5651 171.457 34.6289 171.02 34.6836C170.582 34.7383 170.072 34.8112 169.488 34.9023C168.923 35.0117 168.413 35.1029 167.957 35.1758C167.52 35.2487 167.073 35.349 166.617 35.4766C166.161 35.6042 165.833 35.668 165.633 35.668C165.469 35.6497 165.204 35.5859 164.84 35.4766C164.475 35.3672 164.129 35.2122 163.801 35.0117C163.527 34.8477 163.391 34.6836 163.391 34.5195C163.464 34.3737 163.637 34.2826 163.91 34.2461L164.812 34.2188C165.997 34.1641 166.727 34.1276 167 34.1094C167.273 34.0911 167.848 34.0365 168.723 33.9453L170.746 33.7266L172.852 33.5352C172.87 32.9154 172.879 32.4414 172.879 32.1133V28.1211C172.879 27.8294 172.861 27.6016 172.824 27.4375L172.66 26.8086ZM168.121 30.1445C168.048 29.8164 167.984 29.5885 167.93 29.4609C167.893 29.3151 167.848 29.151 167.793 28.9688C167.72 28.7865 167.611 28.5951 167.465 28.3945L167.301 28.0117C167.337 27.8659 167.447 27.7656 167.629 27.7109C167.811 27.6927 167.993 27.7018 168.176 27.7383L169.023 27.9844C169.333 28.0938 169.507 28.2396 169.543 28.4219C169.561 28.5312 169.552 28.6497 169.516 28.7773L169.434 29.1328V29.8711C169.78 29.8529 170.099 29.8255 170.391 29.7891C170.682 29.7526 170.901 29.7344 171.047 29.7344C171.302 29.7526 171.539 29.8346 171.758 29.9805L171.867 30.418L171.047 30.5547L169.543 30.7461L169.707 32.332C169.707 32.569 169.698 32.7695 169.68 32.9336C169.661 33.1888 169.497 33.3073 169.188 33.2891C169.023 33.0885 168.905 32.8424 168.832 32.5508L168.395 31.0195C168.066 31.0924 167.829 31.138 167.684 31.1562L166.918 31.375C166.535 31.4661 166.243 31.5117 166.043 31.5117C165.842 31.5117 165.624 31.4753 165.387 31.4023C165.132 31.3294 164.931 31.2109 164.785 31.0469L164.594 30.7461C164.63 30.6367 164.749 30.5638 164.949 30.5273L165.496 30.4453L167 30.3086L168.121 30.1445ZM179.496 28.9961C179.842 28.9596 180.198 28.8867 180.562 28.7773L181.191 28.6406C181.428 28.6224 181.693 28.668 181.984 28.7773C182.258 28.8867 182.513 29.0143 182.75 29.1602L182.941 29.6797C182.723 29.8073 182.467 29.8711 182.176 29.8711L181.547 29.9258L180.809 29.9531L179.988 29.9805L179.031 30.0898C178.922 30.3997 178.812 30.6732 178.703 30.9102C178.612 31.1654 178.475 31.4297 178.293 31.7031C178.147 31.9766 178.01 32.1771 177.883 32.3047L177.527 32.7148L177.172 32.6055L177.391 31.7305L177.582 30.9102L177.746 30.2539C177.382 30.2904 177.062 30.3451 176.789 30.418L176.242 30.5273L175.723 30.3906C175.449 30.2995 175.24 30.1901 175.094 30.0625V29.707L175.941 29.543C176.434 29.4701 176.78 29.4154 176.98 29.3789L177.883 29.2695C177.919 28.9232 177.947 28.6133 177.965 28.3398C178.001 28.0846 178.02 27.8477 178.02 27.6289C178.001 27.4466 177.965 27.2643 177.91 27.082L177.883 26.7812C177.919 26.6536 178.02 26.5716 178.184 26.5352C178.348 26.5169 178.548 26.5807 178.785 26.7266L179.77 27.2461L180.152 27.6016C180.134 27.7109 180.061 27.8568 179.934 28.0391L179.715 28.3945C179.642 28.5039 179.587 28.6224 179.551 28.75L179.496 28.9961Z" fill="#333333"/>
<path d="M231.887 33.918C231.285 33.6992 231.003 33.4622 231.039 33.207C231.148 32.4414 231.203 31.5664 231.203 30.582C231.203 30.1445 231.194 29.8255 231.176 29.625C231.158 29.388 231.139 29.1875 231.121 29.0234C231.103 28.8411 231.103 28.7409 231.121 28.7227C231.194 28.6497 231.285 28.6133 231.395 28.6133C231.559 28.6133 231.759 28.6862 231.996 28.832C232.251 28.9779 232.379 29.1237 232.379 29.2695C232.379 29.3607 232.37 29.4518 232.352 29.543C232.333 29.6159 232.324 29.6979 232.324 29.7891L232.16 32.4961C232.16 32.6419 232.215 32.7331 232.324 32.7695H232.461C232.607 32.7695 232.707 32.7604 232.762 32.7422L236.289 32.25V31.5391C236.289 30.6458 236.271 29.9531 236.234 29.4609C236.216 29.0417 236.171 28.7044 236.098 28.4492C236.043 28.1576 236.116 28.0117 236.316 28.0117C236.462 28.0117 236.654 28.0664 236.891 28.1758C237.182 28.3216 237.355 28.4492 237.41 28.5586C237.465 28.6497 237.483 28.7956 237.465 28.9961C237.428 29.3242 237.41 29.8164 237.41 30.4727L237.438 32.5508C237.438 32.9883 237.355 33.3346 237.191 33.5898C237.1 33.6992 237.009 33.7539 236.918 33.7539C236.827 33.7539 236.699 33.6719 236.535 33.5078C236.499 33.4714 236.453 33.4167 236.398 33.3438C236.344 33.2708 236.289 33.2253 236.234 33.207C236.18 33.1888 236.107 33.1797 236.016 33.1797C235.596 33.2161 234.585 33.3529 232.98 33.5898C232.707 33.6263 232.488 33.6992 232.324 33.8086C232.142 33.8997 232.023 33.9453 231.969 33.9453L231.887 33.918ZM242.852 24.7852C242.906 24.7852 242.961 24.8125 243.016 24.8672C243.07 24.9036 243.107 24.9583 243.125 25.0312V25.0859C243.125 25.2135 243.025 25.4596 242.824 25.8242L240.855 29.2422C240.71 29.5521 240.518 29.707 240.281 29.707C240.044 29.707 239.844 29.5612 239.68 29.2695C239.516 29.0326 239.315 28.6771 239.078 28.2031C238.969 28.0391 238.878 27.875 238.805 27.7109C238.732 27.5469 238.677 27.4284 238.641 27.3555C238.44 27.0091 238.34 26.763 238.34 26.6172C238.34 26.5443 238.367 26.4896 238.422 26.4531C238.477 26.3984 238.531 26.3711 238.586 26.3711C238.786 26.3711 238.969 26.4805 239.133 26.6992C239.26 26.8268 239.361 26.9635 239.434 27.1094L239.734 27.5195L240.281 28.1484L240.527 27.7656C240.783 27.3281 241.384 26.4622 242.332 25.168C242.533 24.9128 242.706 24.7852 242.852 24.7852ZM217.832 27.5195C217.285 27.5924 216.848 27.6471 216.52 27.6836L215.809 27.7656C215.553 27.7656 215.289 27.7018 215.016 27.5742L214.605 27.1914C214.66 27.082 214.77 27.0273 214.934 27.0273C215.116 27.0091 215.289 26.9909 215.453 26.9727L218.023 26.5898C218.151 25.8242 218.251 25.1862 218.324 24.6758C218.379 24.293 218.406 23.9922 218.406 23.7734L218.379 23.0898C217.85 23.1628 217.413 23.2539 217.066 23.3633C216.72 23.4544 216.456 23.5 216.273 23.5C216.128 23.5 215.982 23.4909 215.836 23.4727C215.599 23.4362 215.353 23.3451 215.098 23.1992C214.824 23.0898 214.633 22.8802 214.523 22.5703L215.262 22.3789L216.738 22.1602C217.704 22.0143 218.826 21.8138 220.102 21.5586C221.396 21.3216 222.234 21.1393 222.617 21.0117C222.982 20.9023 223.246 20.8477 223.41 20.8477C223.611 20.8477 223.82 20.8841 224.039 20.957C224.258 21.0482 224.458 21.1393 224.641 21.2305C224.805 21.3216 224.987 21.4583 225.188 21.6406L225.434 22.1328C225.361 22.2422 225.224 22.306 225.023 22.3242L223.547 22.3789C222.872 22.4336 222.253 22.4974 221.688 22.5703L219.719 22.8438C219.938 23.0078 220.129 23.1628 220.293 23.3086L220.539 23.6094L220.512 23.8828L220.32 24.2109C220.247 24.3021 220.174 24.4661 220.102 24.7031L219.828 25.4961L219.609 26.2891L220.703 26.0703C221.104 25.9974 221.441 25.9245 221.715 25.8516C221.988 25.7786 222.207 25.6966 222.371 25.6055L222.727 25.4688C222.872 25.4505 223.055 25.4779 223.273 25.5508C223.51 25.6602 223.793 25.8151 224.121 26.0156C224.431 26.2161 224.65 26.3711 224.777 26.4805L224.969 26.7266C224.969 26.8724 224.878 27.0456 224.695 27.2461C224.549 27.4284 224.44 27.5833 224.367 27.7109C224.294 27.8385 224.203 28.0391 224.094 28.3125C223.966 28.5859 223.884 28.7773 223.848 28.8867L223.438 30.0898L225.188 29.8711L226.391 29.6523C226.628 29.6706 226.865 29.7253 227.102 29.8164C227.32 29.9258 227.53 30.0443 227.73 30.1719C227.931 30.3177 228.104 30.4635 228.25 30.6094L228.305 31.0469C228.141 31.138 227.849 31.1927 227.43 31.2109L225.734 31.2383C224.24 31.293 222.745 31.3841 221.25 31.5117C219.773 31.6576 218.671 31.776 217.941 31.8672L215.781 32.168L214.742 32.332C214.542 32.332 214.323 32.3047 214.086 32.25C213.794 32.1953 213.557 32.1133 213.375 32.0039C213.193 31.8945 213.056 31.8034 212.965 31.7305L212.801 31.4297C212.928 31.3385 213.211 31.2656 213.648 31.2109L217.094 30.8281L217.832 27.5195ZM218.461 30.6914L221.906 30.3086L222.453 27.957C222.526 27.6471 222.562 27.4193 222.562 27.2734L222.453 27C222.344 26.9089 222.198 26.8633 222.016 26.8633C221.542 26.8633 221.013 26.918 220.43 27.0273L219.363 27.2461L218.461 30.6914ZM216.875 34.5195L221.059 34C221.587 33.9453 221.952 33.8997 222.152 33.8633C222.353 33.8268 222.562 33.7721 222.781 33.6992L223.164 33.6172C223.346 33.6354 223.565 33.6992 223.82 33.8086C224.076 33.9544 224.404 34.1732 224.805 34.4648L225.406 35.0938L225.379 35.3672C225.324 35.4948 225.206 35.6589 225.023 35.8594C224.823 36.0599 224.659 36.2695 224.531 36.4883C224.385 36.707 224.285 36.8893 224.23 37.0352L223.465 38.8945L223.793 39.2227L223.82 39.6875L223.41 39.7148L221.332 39.8516L218.105 40.0977H217.258C217.185 40.2435 217.121 40.3802 217.066 40.5078L216.766 40.6719C216.656 40.6354 216.529 40.5352 216.383 40.3711C216.237 40.1888 216.146 39.8971 216.109 39.4961L215.754 36.5703C215.663 35.8594 215.59 35.4401 215.535 35.3125L215.426 35.0938L214.961 34.2734C215.07 34.1458 215.216 34.082 215.398 34.082C215.599 34.1003 215.818 34.1549 216.055 34.2461L216.875 34.5195ZM217.285 39.0586L219.062 38.8945L222.18 38.457L222.645 36.0234C222.681 35.7318 222.699 35.5039 222.699 35.3398C222.681 35.1758 222.617 35.0299 222.508 34.9023L221.988 34.8203L221.523 34.875L220.156 35.0117L218.926 35.2305L217.039 35.4492L217.148 36.7344L217.285 39.0586ZM210.148 24.5664C209.966 24.4388 209.829 24.3294 209.738 24.2383C209.647 24.1289 209.547 24.0013 209.438 23.8555C209.346 23.7096 209.237 23.5 209.109 23.2266C208.964 22.9531 208.836 22.6888 208.727 22.4336L208.289 21.3672L208.098 20.7383L208.453 20.6016L208.945 20.793C209.073 20.8294 209.264 20.9206 209.52 21.0664C209.775 21.2122 209.975 21.3398 210.121 21.4492C210.249 21.5404 210.395 21.668 210.559 21.832C210.723 21.9779 210.859 22.1237 210.969 22.2695C211.06 22.4154 211.115 22.5977 211.133 22.8164L211.16 23.0625L211.133 23.3633C211.115 23.5456 211.078 23.7005 211.023 23.8281C210.987 23.9557 210.905 24.1198 210.777 24.3203L211.816 24.2109C212.09 24.1562 212.318 24.1289 212.5 24.1289C212.701 24.1289 212.919 24.1654 213.156 24.2383C213.411 24.3112 213.63 24.4023 213.812 24.5117L214.086 24.7578L213.84 25.1133L213.184 25.2227C213.056 25.2591 212.746 25.3047 212.254 25.3594C211.762 25.4141 211.352 25.4779 211.023 25.5508L209.082 25.9336C208.663 26.0247 208.28 26.1159 207.934 26.207L206.977 26.4531C206.612 26.5443 206.32 26.6445 206.102 26.7539L205.664 26.8906C205.536 26.8906 205.391 26.8633 205.227 26.8086C205.008 26.7721 204.844 26.7266 204.734 26.6719C204.625 26.6354 204.488 26.5716 204.324 26.4805C204.16 26.4076 203.996 26.3073 203.832 26.1797L203.559 25.9609L203.586 25.6602L203.969 25.5508L204.68 25.4961C205.19 25.4232 205.992 25.2956 207.086 25.1133L210.148 24.5664ZM207.031 34.5742L208.535 34.2461L209.109 34.1094L209.848 33.8633C210.121 33.7721 210.349 33.6719 210.531 33.5625L210.914 33.4258C211.06 33.4076 211.215 33.4349 211.379 33.5078L212.008 33.7812C212.19 33.8724 212.382 33.9909 212.582 34.1367L212.746 34.6562C212.564 34.8568 212.427 35.0299 212.336 35.1758C212.263 35.3034 212.181 35.4674 212.09 35.668C211.999 35.8867 211.935 36.069 211.898 36.2148L211.352 37.8555L211.652 38.0742L211.762 38.5391C211.634 38.5573 211.507 38.5755 211.379 38.5938C211.233 38.5938 211.096 38.6029 210.969 38.6211C210.823 38.6211 210.622 38.6393 210.367 38.6758C210.112 38.7122 209.875 38.7487 209.656 38.7852L207.988 39.1406C207.897 39.3776 207.788 39.5143 207.66 39.5508C207.533 39.5508 207.405 39.4779 207.277 39.332C207.186 39.2591 207.122 39.1497 207.086 39.0039C207.031 38.8581 206.986 38.6758 206.949 38.457L206.594 36.543C206.539 36.2513 206.484 36.0143 206.43 35.832C206.357 35.6497 206.284 35.4857 206.211 35.3398C206.138 35.194 206.038 35.0664 205.91 34.957L205.664 34.6562C205.701 34.5104 205.81 34.4193 205.992 34.3828C206.138 34.3828 206.302 34.401 206.484 34.4375L207.031 34.5742ZM208.043 38.1289L210.258 37.6641L210.641 35.2852L210.668 35.0664L210.504 34.7109C210.322 34.6927 210.112 34.7109 209.875 34.7656L207.688 35.1758L208.043 38.1289ZM207.195 28.7227L207.633 28.668L208.617 28.4492L209.301 28.2852L210.094 28.0117C210.312 27.9206 210.522 27.8659 210.723 27.8477H211.023L211.516 27.957C211.771 28.0117 211.962 28.0755 212.09 28.1484L212.172 28.4766L211.98 28.6406C211.853 28.6953 211.534 28.7773 211.023 28.8867L208.836 29.4062L208.453 29.5156L208.125 29.5703H207.852C207.669 29.5339 207.523 29.4974 207.414 29.4609C207.305 29.4427 207.195 29.4062 207.086 29.3516C206.977 29.2969 206.876 29.1237 206.785 28.832L207.195 28.7227ZM207.141 31.4023L207.605 31.3477L208.18 31.2109L209.219 30.9922L210.039 30.7461C210.221 30.7096 210.376 30.6732 210.504 30.6367C210.632 30.6367 210.805 30.6549 211.023 30.6914C211.242 30.7279 211.424 30.7643 211.57 30.8008C211.698 30.8372 211.826 30.8919 211.953 30.9648V31.4844L210.504 31.7852L209.137 32.0586L208.234 32.2773H207.824L207.578 32.25L207.113 32.0859C206.931 32.0312 206.785 31.9401 206.676 31.8125L206.73 31.4844C206.967 31.4479 207.104 31.4206 207.141 31.4023Z" fill="#333333"/>
</svg>
