<svg version="1.1" viewBox="0 0 96 96" xmlns="http://www.w3.org/2000/svg" xmlns:xlink="http://www.w3.org/1999/xlink" id="Icons_Volume" overflow="hidden"><path d=" M 73.5 22 L 69.6 25.9 C 82 38.3 82 58.5 69.6 70.9 L 73.5 74.8 C 88.1 60.3 88.1 36.6 73.5 22 Z" fill="#979797"/><path d=" M 65.6 29.8 L 61.7 33.7 C 69.8 41.8 69.8 54.9 61.7 63.1 L 65.6 67 C 75.9 56.7 75.9 40.1 65.6 29.8 Z" fill="#979797"/><path d=" M 57.9 37.8 L 54 41.7 C 57.8 45.5 57.8 51.6 54 55.4 L 57.9 59.3 C 63.9 53.3 63.9 43.7 57.9 37.8 Z" fill="#979797"/><path d=" M 3.5 34.6 L 3.5 61.4 L 22.9 61.4 L 48 82 L 48 14 L 22.9 34.6 Z" fill="#979797"/></svg>