<svg width="340" height="60" viewBox="0 0 340 60" fill="none" xmlns="http://www.w3.org/2000/svg">
<path d="M115.23 27.3555C114.957 27.3555 114.711 27.2461 114.492 27.0273C114.219 26.8268 114.082 26.6719 114.082 26.5625C114.082 26.4349 114.292 26.3711 114.711 26.3711L116.051 26.2891L117.418 26.1523C117.454 25.8607 117.473 25.3047 117.473 24.4844C117.527 24.4844 117.245 24.5208 116.625 24.5938L116.105 24.6758C115.941 24.7487 115.796 24.7852 115.668 24.7852C115.559 24.7852 115.467 24.7487 115.395 24.6758C115.103 24.4206 114.957 24.2018 114.957 24.0195V22.7344C114.957 22.6068 114.911 22.1146 114.82 21.2578L114.793 20.957C114.793 20.8112 114.82 20.7201 114.875 20.6836C114.93 20.6471 115.03 20.6471 115.176 20.6836C115.723 20.8294 115.987 20.9935 115.969 21.1758L115.941 21.3672C115.905 21.6224 115.887 21.9505 115.887 22.3516C115.887 22.8255 115.896 23.1263 115.914 23.2539C115.951 23.6185 115.969 23.7917 115.969 23.7734C115.987 23.8464 116.051 23.8828 116.16 23.8828C116.27 23.8828 116.488 23.8555 116.816 23.8008C117.163 23.7279 117.391 23.6823 117.5 23.6641V21.2578C117.5 20.5833 117.473 20.1276 117.418 19.8906C117.382 19.7083 117.363 19.6081 117.363 19.5898C117.363 19.4622 117.409 19.3984 117.5 19.3984C117.536 19.3984 117.664 19.4349 117.883 19.5078C118.229 19.6719 118.457 19.8177 118.566 19.9453C118.694 20.0729 118.74 20.2096 118.703 20.3555C118.648 20.5378 118.612 20.9023 118.594 21.4492C118.557 21.8867 118.521 22.5977 118.484 23.582L119.414 23.5547C119.596 23.5547 119.733 23.5456 119.824 23.5273C119.915 23.5091 119.961 23.4727 119.961 23.418C120.089 22.7253 120.171 22.1237 120.207 21.6133L120.234 21.2852C120.253 21.2487 120.253 21.1849 120.234 21.0938C120.234 21.0026 120.234 20.9388 120.234 20.9023L120.207 20.7109C120.207 20.5469 120.271 20.4648 120.398 20.4648C120.471 20.4648 120.626 20.5378 120.863 20.6836C120.918 20.7201 120.991 20.7747 121.082 20.8477C121.191 20.9023 121.264 20.9661 121.301 21.0391C121.337 21.0938 121.355 21.1667 121.355 21.2578C121.355 21.3672 121.346 21.4583 121.328 21.5312L121.027 23.0625L120.945 23.6914C120.872 24.1107 120.654 24.3385 120.289 24.375C120.18 24.3568 120.089 24.3294 120.016 24.293C119.961 24.2565 119.915 24.2383 119.879 24.2383C119.66 24.2383 119.204 24.2839 118.512 24.375L118.484 26.0703L118.949 26.043L119.387 26.0156C120.061 26.0156 120.562 25.9792 120.891 25.9062C121.036 25.9062 121.164 25.888 121.273 25.8516L121.355 25.8242C121.538 25.8242 121.729 25.9518 121.93 26.207C122.167 26.444 122.285 26.6172 122.285 26.7266C122.285 26.8906 122.03 26.9453 121.52 26.8906L120.48 26.8359H119.113C118.84 26.8359 118.339 26.8724 117.609 26.9453C117.227 26.9453 116.88 26.9635 116.57 27C116.26 27.0365 115.969 27.1003 115.695 27.1914L115.23 27.3555ZM121.164 34.5195C120.891 34.5195 120.626 34.319 120.371 33.918C120.043 33.4076 119.724 32.9883 119.414 32.6602L118.703 31.9219C118.32 32.3594 117.983 32.7057 117.691 32.9609C117.418 33.2161 117.072 33.4622 116.652 33.6992C115.868 34.1549 115.212 34.3828 114.684 34.3828C114.556 34.3828 114.492 34.3372 114.492 34.2461C114.492 34.1914 114.665 34.0729 115.012 33.8906C115.358 33.7083 115.686 33.4896 115.996 33.2344C116.78 32.5781 117.427 31.9036 117.938 31.2109C117.828 31.1016 117.281 30.6276 116.297 29.7891C116.169 29.6979 115.978 29.543 115.723 29.3242C115.668 29.2878 115.559 29.2057 115.395 29.0781C115.23 28.9505 115.148 28.8594 115.148 28.8047C115.148 28.7135 115.194 28.668 115.285 28.668C115.559 28.668 115.996 28.8594 116.598 29.2422C117.199 29.6068 117.828 30.0443 118.484 30.5547C118.74 30.2448 118.94 29.9531 119.086 29.6797C119.232 29.4062 119.396 29.069 119.578 28.668C119.669 28.4674 119.724 28.2943 119.742 28.1484C119.76 27.9844 119.77 27.8841 119.77 27.8477C119.77 27.6471 119.824 27.5469 119.934 27.5469C120.061 27.5469 120.234 27.6471 120.453 27.8477C120.836 28.2122 121.027 28.4583 121.027 28.5859C121.027 28.6589 120.982 28.7409 120.891 28.832C120.672 29.0508 120.471 29.3424 120.289 29.707C120.18 29.9258 119.979 30.2357 119.688 30.6367C119.596 30.7461 119.523 30.8464 119.469 30.9375C119.414 31.0286 119.359 31.1107 119.305 31.1836C119.724 31.4935 120.344 32.0221 121.164 32.7695C121.365 32.9518 121.492 33.125 121.547 33.2891C121.62 33.4349 121.656 33.6354 121.656 33.8906C121.656 34.0729 121.611 34.2279 121.52 34.3555C121.428 34.4648 121.31 34.5195 121.164 34.5195ZM115.121 42.6953C114.848 42.6953 114.638 42.6224 114.492 42.4766C114.328 42.3125 114.246 42.1667 114.246 42.0391C114.246 41.9115 114.319 41.7747 114.465 41.6289C114.483 41.6107 114.583 41.4648 114.766 41.1914C115.167 40.5534 115.622 39.7422 116.133 38.7578C116.661 37.7552 116.99 37.0716 117.117 36.707C117.227 36.3607 117.327 36.0599 117.418 35.8047C117.527 35.5495 117.618 35.4219 117.691 35.4219C117.819 35.4219 117.928 35.4674 118.02 35.5586C118.111 35.6315 118.202 35.7409 118.293 35.8867C118.402 36.0143 118.484 36.1055 118.539 36.1602C118.667 36.306 118.73 36.4427 118.73 36.5703C118.73 36.6615 118.694 36.7526 118.621 36.8438C118.548 36.9349 118.503 36.9987 118.484 37.0352L117.281 39.0586C116.971 39.6237 116.561 40.3255 116.051 41.1641C115.978 41.2552 115.941 41.3464 115.941 41.4375C115.941 41.5104 116.023 41.5469 116.188 41.5469C116.534 41.5469 117.181 41.5013 118.129 41.4102C119.077 41.3372 119.715 41.2734 120.043 41.2188C120.517 41.1641 120.845 41.1094 121.027 41.0547C121.228 41 121.52 41.1367 121.902 41.4648C122.358 41.8477 122.458 42.0938 122.203 42.2031C122.057 42.276 121.775 42.3125 121.355 42.3125H120.262C120.025 42.3125 119.651 42.3307 119.141 42.3672C118.831 42.3672 118.484 42.3763 118.102 42.3945C117.719 42.4128 117.4 42.431 117.145 42.4492C116.853 42.4674 116.288 42.5221 115.449 42.6133L115.121 42.6953ZM100.355 43.4336C100.355 43.8893 100.173 44.1172 99.8086 44.1172C99.5352 44.1172 99.2344 44.0169 98.9062 43.8164C98.5781 43.6341 98.4141 43.3607 98.4141 42.9961L98.4414 42.8047C98.5326 42.2214 98.5781 41.6562 98.5781 41.1094L98.6055 34.0547L92.6445 34.3008L92.7266 35.1211V35.2031C92.7266 35.5495 92.5534 35.7227 92.207 35.7227C91.9154 35.7227 91.6146 35.6315 91.3047 35.4492C90.9948 35.2669 90.8398 35.0026 90.8398 34.6562V34.4375C90.8763 34.0365 90.8945 33.7721 90.8945 33.6445C90.8945 33.4622 90.8763 33.207 90.8398 32.8789L90.3477 26.918C90.293 26.3164 90.138 25.806 89.8828 25.3867C89.737 25.1497 89.6641 24.9766 89.6641 24.8672C89.6641 24.7214 89.7643 24.6484 89.9648 24.6484C90.293 24.6484 90.931 24.8398 91.8789 25.2227L98.6602 24.8125L98.6875 20.1094C98.6875 19.6901 98.5872 19.2982 98.3867 18.9336C98.3138 18.806 98.2773 18.6875 98.2773 18.5781C98.2773 18.4323 98.3958 18.3594 98.6328 18.3594C98.7422 18.3594 98.9427 18.3958 99.2344 18.4688C99.5443 18.5234 99.8268 18.6328 100.082 18.7969C100.355 18.9609 100.492 19.1797 100.492 19.4531L100.465 24.7031L107.848 24.2656C108.012 24.2474 108.212 24.2383 108.449 24.2383C108.777 24.2383 109.042 24.3112 109.242 24.457C109.443 24.6029 109.579 24.7669 109.652 24.9492C109.743 25.1133 109.789 25.2409 109.789 25.332C109.789 25.4414 109.743 25.5781 109.652 25.7422C109.579 25.9062 109.543 26.0247 109.543 26.0977L108.777 32.0039C109.288 32.5872 109.543 32.9974 109.543 33.2344C109.543 33.3802 109.47 33.4805 109.324 33.5352C109.178 33.5716 108.941 33.599 108.613 33.6172L100.41 33.9727L100.355 43.4336ZM92.5352 32.7422L98.6328 32.4688L98.6602 26.4258L92.0156 26.8086L92.5352 32.7422ZM107.082 32.0859L107.738 25.9062L100.465 26.3164L100.41 32.3867L107.082 32.0859Z" fill="#333333"/>
<path d="M156.273 26.7812C156.255 26.7812 156.191 26.7995 156.082 26.8359C155.991 26.8542 155.945 26.8268 155.945 26.7539C155.945 26.7357 155.982 26.6992 156.055 26.6445C156.128 26.5716 156.191 26.5078 156.246 26.4531C156.301 26.3984 156.383 26.3255 156.492 26.2344C156.602 26.125 156.684 26.0156 156.738 25.9062C157.012 25.4505 157.203 24.9948 157.312 24.5391L157.477 23.582C157.604 22.8711 157.659 22.0417 157.641 21.0938C157.641 20.875 157.613 20.6471 157.559 20.4102C157.54 20.3008 157.449 20.1458 157.285 19.9453V19.918C157.285 19.8815 157.331 19.8633 157.422 19.8633C157.549 19.8633 157.659 19.8724 157.75 19.8906C157.987 19.9453 158.251 19.9727 158.543 19.9727C158.853 19.9544 159.044 19.9453 159.117 19.9453L160.949 19.8086C161.314 19.7721 161.551 19.7539 161.66 19.7539C162.444 19.6445 162.799 19.599 162.727 19.6172C163.146 19.5443 163.401 19.5078 163.492 19.5078C163.784 19.526 164.076 19.7539 164.367 20.1914L164.422 20.3281C164.422 20.4375 164.34 20.5013 164.176 20.5195C164.012 20.5378 163.911 20.5469 163.875 20.5469C163.31 20.5469 162.891 20.556 162.617 20.5742C161.924 20.5742 161.414 20.5833 161.086 20.6016L160.32 20.6562L158.762 20.8203C158.652 22.3516 158.552 23.3542 158.461 23.8281C158.315 24.6849 158.033 25.3776 157.613 25.9062C157.303 26.3073 156.857 26.599 156.273 26.7812ZM163.164 34.5195C162.891 34.5195 162.626 34.319 162.371 33.918C162.043 33.4076 161.724 32.9883 161.414 32.6602L160.703 31.9219C160.32 32.3594 159.983 32.7057 159.691 32.9609C159.418 33.2161 159.072 33.4622 158.652 33.6992C157.868 34.1549 157.212 34.3828 156.684 34.3828C156.556 34.3828 156.492 34.3372 156.492 34.2461C156.492 34.1914 156.665 34.0729 157.012 33.8906C157.358 33.7083 157.686 33.4896 157.996 33.2344C158.78 32.5781 159.427 31.9036 159.938 31.2109C159.828 31.1016 159.281 30.6276 158.297 29.7891C158.169 29.6979 157.978 29.543 157.723 29.3242C157.668 29.2878 157.559 29.2057 157.395 29.0781C157.23 28.9505 157.148 28.8594 157.148 28.8047C157.148 28.7135 157.194 28.668 157.285 28.668C157.559 28.668 157.996 28.8594 158.598 29.2422C159.199 29.6068 159.828 30.0443 160.484 30.5547C160.74 30.2448 160.94 29.9531 161.086 29.6797C161.232 29.4062 161.396 29.069 161.578 28.668C161.669 28.4674 161.724 28.2943 161.742 28.1484C161.76 27.9844 161.77 27.8841 161.77 27.8477C161.77 27.6471 161.824 27.5469 161.934 27.5469C162.061 27.5469 162.234 27.6471 162.453 27.8477C162.836 28.2122 163.027 28.4583 163.027 28.5859C163.027 28.6589 162.982 28.7409 162.891 28.832C162.672 29.0508 162.471 29.3424 162.289 29.707C162.18 29.9258 161.979 30.2357 161.688 30.6367C161.596 30.7461 161.523 30.8464 161.469 30.9375C161.414 31.0286 161.359 31.1107 161.305 31.1836C161.724 31.4935 162.344 32.0221 163.164 32.7695C163.365 32.9518 163.492 33.125 163.547 33.2891C163.62 33.4349 163.656 33.6354 163.656 33.8906C163.656 34.0729 163.611 34.2279 163.52 34.3555C163.428 34.4648 163.31 34.5195 163.164 34.5195ZM160.402 43.2148C160.275 43.2148 160.184 43.1784 160.129 43.1055C160.074 43.0326 160.038 42.987 160.02 42.9688C159.837 42.7135 159.755 42.4674 159.773 42.2305C159.792 42.0846 159.819 41.6927 159.855 41.0547L159.883 39.7422C159.865 39.5417 159.846 39.4232 159.828 39.3867C159.81 39.332 159.728 39.2227 159.582 39.0586C159.29 38.694 158.953 38.3203 158.57 37.9375C158.133 37.5 157.85 37.2083 157.723 37.0625C157.723 37.0625 157.449 36.7891 156.902 36.2422C156.848 36.1875 156.82 36.1328 156.82 36.0781C156.82 35.987 156.875 35.9141 156.984 35.8594C157.112 35.7865 157.24 35.7591 157.367 35.7773C157.732 35.8138 157.969 35.8594 158.078 35.9141C158.206 35.9505 158.324 36.0599 158.434 36.2422C158.543 36.4245 158.698 36.6432 158.898 36.8984C159.117 37.1354 159.281 37.3177 159.391 37.4453C159.846 37.9922 160.165 38.3568 160.348 38.5391C160.676 38.1562 161.086 37.6094 161.578 36.8984C161.979 36.388 162.216 35.9688 162.289 35.6406C162.362 35.4036 162.471 35.2852 162.617 35.2852C162.69 35.2852 162.799 35.3307 162.945 35.4219C163.419 35.7135 163.656 35.9505 163.656 36.1328C163.656 36.2422 163.538 36.3789 163.301 36.543C162.973 36.7799 162.699 37.0443 162.48 37.3359L161.934 38.0195C161.569 38.457 161.296 38.8034 161.113 39.0586C161.022 39.2227 160.977 39.4596 160.977 39.7695V41.4375V42.5312C160.995 42.6589 160.922 42.8047 160.758 42.9688C160.612 43.1328 160.493 43.2148 160.402 43.2148ZM168.742 30.6367C168.961 30.6367 169.07 30.737 169.07 30.9375C169.07 31.0469 168.97 31.2018 168.77 31.4023C168.223 32.0768 167.138 33.362 165.516 35.2578C165.388 35.4219 165.27 35.5039 165.16 35.5039C165.069 35.5039 164.868 35.3672 164.559 35.0938C164.303 34.875 164.176 34.6927 164.176 34.5469C164.176 34.3828 164.312 34.2279 164.586 34.082C165.005 33.8451 165.634 33.3711 166.473 32.6602C167.311 31.9128 167.931 31.3203 168.332 30.8828C168.496 30.7188 168.633 30.6367 168.742 30.6367ZM139.293 24.9492C139.293 25.2773 139.138 25.4414 138.828 25.4414C138.591 25.4414 138.309 25.3776 137.98 25.25C137.652 25.1042 137.488 24.8216 137.488 24.4023C137.488 24.1836 137.452 23.8372 137.379 23.3633L132.676 23.6367C132.475 23.6549 132.238 23.6641 131.965 23.6641C131.618 23.6641 131.327 23.5729 131.09 23.3906C130.871 23.2083 130.707 23.0078 130.598 22.7891C130.488 22.5703 130.434 22.4154 130.434 22.3242C130.434 22.2148 130.507 22.1602 130.652 22.1602C130.725 22.1602 130.78 22.1693 130.816 22.1875C131.126 22.2604 131.454 22.2969 131.801 22.2969L132.293 22.2695L137.16 21.9688L137.023 20.9844C136.951 20.5651 136.759 20.2005 136.449 19.8906C136.322 19.763 136.258 19.6536 136.258 19.5625C136.258 19.4167 136.44 19.3438 136.805 19.3438C137.26 19.3438 137.652 19.3984 137.98 19.5078C138.309 19.599 138.5 19.8086 138.555 20.1367L138.828 21.832L140.086 21.75C140.323 21.75 140.478 21.7591 140.551 21.7773C140.678 21.7956 140.779 21.8503 140.852 21.9414C140.943 22.0326 140.988 22.1419 140.988 22.2695C140.988 22.4883 140.906 22.6432 140.742 22.7344C140.578 22.8255 140.341 22.8893 140.031 22.9258C139.885 22.944 139.703 22.9622 139.484 22.9805C139.284 22.9987 139.129 23.0078 139.02 23.0078L139.293 24.7852V24.9492ZM129.832 34.4375C129.832 34.2917 129.905 34.2188 130.051 34.2188C130.124 34.2188 130.188 34.2279 130.242 34.2461C130.661 34.3737 131.172 34.4375 131.773 34.4375L140.605 34.1367L140.633 27.0547L135.273 27.3281C135.128 27.3464 134.954 27.3646 134.754 27.3828C134.572 27.401 134.371 27.4102 134.152 27.4102C133.788 27.4102 133.487 27.3099 133.25 27.1094C133.013 26.8906 132.84 26.6628 132.73 26.4258C132.639 26.1706 132.594 26.0156 132.594 25.9609C132.594 25.8698 132.648 25.8242 132.758 25.8242C132.849 25.8242 132.922 25.8333 132.977 25.8516C133.432 25.9427 133.788 25.9883 134.043 25.9883L134.508 25.9609L146.949 25.3594C147.441 25.3411 147.934 25.2409 148.426 25.0586C148.48 25.0404 148.553 25.0312 148.645 25.0312C148.936 25.0312 149.264 25.1862 149.629 25.4961C150.012 25.806 150.203 26.0521 150.203 26.2344C150.203 26.4349 150.03 26.5534 149.684 26.5898L142.301 26.9727V34.1094L150.531 33.7812C150.896 33.763 151.388 33.6719 152.008 33.5078C152.044 33.4896 152.099 33.4805 152.172 33.4805C152.409 33.4805 152.737 33.6536 153.156 34C153.576 34.3281 153.785 34.6016 153.785 34.8203C153.785 34.9479 153.73 35.0482 153.621 35.1211C153.512 35.194 153.375 35.2305 153.211 35.2305L142.328 35.6133V37.9102L147.168 37.7188C147.569 37.7005 148.052 37.6185 148.617 37.4727C148.672 37.4544 148.745 37.4453 148.836 37.4453C149.036 37.4453 149.255 37.5182 149.492 37.6641C149.747 37.8099 149.966 37.9831 150.148 38.1836C150.331 38.3841 150.422 38.5391 150.422 38.6484C150.422 38.7578 150.367 38.849 150.258 38.9219C150.148 38.9766 150.012 39.0039 149.848 39.0039L142.328 39.3047V43.3516C142.328 43.8073 142.155 44.0352 141.809 44.0352C141.517 44.0352 141.198 43.9076 140.852 43.6523C140.505 43.4154 140.332 43.1328 140.332 42.8047C140.332 42.75 140.35 42.6315 140.387 42.4492C140.514 41.8841 140.578 41.3372 140.578 40.8086V39.3594L135.793 39.5508L135.055 39.5781C134.508 39.5781 134.116 39.4961 133.879 39.332C133.66 39.168 133.487 38.9674 133.359 38.7305C133.232 38.4935 133.168 38.3112 133.168 38.1836C133.168 38.0742 133.223 38.0195 133.332 38.0195C133.405 38.0195 133.469 38.0286 133.523 38.0469C133.888 38.138 134.307 38.1836 134.781 38.1836H135.055L140.578 37.9648L140.605 35.668L132.484 35.9414H131.992C131.281 35.9414 130.798 35.8503 130.543 35.668C130.342 35.4857 130.169 35.2852 130.023 35.0664C129.896 34.8294 129.832 34.6198 129.832 34.4375ZM131.035 30.1172C131.035 29.9896 131.099 29.9258 131.227 29.9258C131.299 29.9258 131.354 29.9349 131.391 29.9531C131.755 30.0443 132.174 30.0898 132.648 30.0898H132.922L135.766 29.9258L135.656 29.3242C135.583 28.8867 135.474 28.5677 135.328 28.3672C135.219 28.2214 135.164 28.1211 135.164 28.0664C135.164 27.9388 135.301 27.875 135.574 27.875C135.866 27.875 136.194 27.9115 136.559 27.9844C136.923 28.0573 137.133 28.2122 137.188 28.4492L137.406 29.7891L138.828 29.7344C139.065 29.7344 139.22 29.7435 139.293 29.7617C139.585 29.8164 139.73 29.9896 139.73 30.2812C139.73 30.4818 139.612 30.6549 139.375 30.8008C139.138 30.9466 138.865 31.0378 138.555 31.0742C138.555 31.0742 138.254 31.1016 137.652 31.1562L137.98 33.125C137.999 33.1797 138.008 33.2526 138.008 33.3438C138.008 33.6901 137.853 33.8633 137.543 33.8633C137.342 33.8633 137.069 33.7812 136.723 33.6172C136.376 33.4531 136.203 33.1615 136.203 32.7422C136.203 32.3776 136.158 31.9036 136.066 31.3203L133.715 31.457C133.241 31.4935 132.913 31.5117 132.73 31.5117C132.311 31.5117 131.974 31.4115 131.719 31.2109C131.464 31.0104 131.281 30.8008 131.172 30.582C131.081 30.3451 131.035 30.1901 131.035 30.1172ZM142.082 21.6953C142.082 21.6589 142.109 21.6224 142.164 21.5859C142.219 21.5495 142.283 21.5404 142.355 21.5586L143.066 21.5312C143.249 21.5312 143.741 21.513 144.543 21.4766C144.561 21.3672 144.598 21.1758 144.652 20.9023C144.707 20.6107 144.734 20.3555 144.734 20.1367V19.9453C144.734 19.6354 144.661 19.3529 144.516 19.0977C144.461 18.9883 144.434 18.9062 144.434 18.8516C144.434 18.7422 144.507 18.6875 144.652 18.6875C144.816 18.6875 145.062 18.7604 145.391 18.9062C145.737 19.0339 146.038 19.1979 146.293 19.3984C146.566 19.599 146.703 19.7904 146.703 19.9727C146.703 20.0638 146.694 20.1276 146.676 20.1641C146.475 20.7839 146.32 21.2122 146.211 21.4492L149.738 21.2305C150.285 21.2122 150.741 21.1393 151.105 21.0117C151.251 20.957 151.388 20.9297 151.516 20.9297C151.771 20.9297 152.053 21.0846 152.363 21.3945C152.673 21.6862 152.828 21.9414 152.828 22.1602C152.828 22.3424 152.628 22.4518 152.227 22.4883L145.582 22.8711C145.108 23.8555 144.762 24.5117 144.543 24.8398C144.342 25.168 144.133 25.332 143.914 25.332C143.732 25.332 143.641 25.2044 143.641 24.9492C143.641 24.8216 143.686 24.6029 143.777 24.293C143.905 23.9648 144.042 23.5182 144.188 22.9531L143.449 23.0078C143.103 23.0078 142.784 22.8802 142.492 22.625C142.201 22.3516 142.064 22.0508 142.082 21.7227V21.6953ZM143.176 29.625C143.176 29.5885 143.203 29.5612 143.258 29.543C143.312 29.5065 143.376 29.4883 143.449 29.4883C143.704 29.4883 143.896 29.4792 144.023 29.4609C144.443 29.4609 145.09 29.4336 145.965 29.3789C145.983 29.2513 145.992 29.0508 145.992 28.7773C145.992 28.2852 145.938 27.9206 145.828 27.6836C145.792 27.5742 145.773 27.4922 145.773 27.4375C145.773 27.2917 145.865 27.2188 146.047 27.2188C146.32 27.2188 146.694 27.3464 147.168 27.6016C147.66 27.8568 147.906 28.0938 147.906 28.3125V28.3945L147.66 29.2969L148.891 29.2148C149.292 29.1966 149.775 29.1055 150.34 28.9414C150.486 28.9049 150.577 28.8867 150.613 28.8867C150.832 28.8867 151.06 28.9688 151.297 29.1328C151.534 29.2969 151.734 29.4883 151.898 29.707C152.062 29.9076 152.145 30.0443 152.145 30.1172C152.145 30.3177 151.953 30.4362 151.57 30.4727L147.168 30.7188C147.04 31.1198 146.776 31.7122 146.375 32.4961C145.992 33.2799 145.646 33.6719 145.336 33.6719C145.154 33.6719 145.062 33.5443 145.062 33.2891L145.117 32.9609C145.19 32.724 145.372 32.0221 145.664 30.8555L144.68 30.9375C144.297 30.9193 143.941 30.7826 143.613 30.5273C143.303 30.2721 143.158 29.9805 143.176 29.6523V29.625Z" fill="#333333"/>
<path d="M204.316 27.3008C204.189 27.3008 204.052 27.2188 203.906 27.0547C203.797 26.9271 203.724 26.8268 203.688 26.7539C203.651 26.6628 203.651 26.5443 203.688 26.3984L203.715 25.7422C203.733 25.6146 203.742 25.3047 203.742 24.8125V23.9102L202.922 24.293L201.965 24.7031C201.728 24.7943 201.482 24.9036 201.227 25.0312C201.008 25.1406 200.816 25.1953 200.652 25.1953C200.525 25.1771 200.379 25.1315 200.215 25.0586C200.051 24.9857 199.923 24.9219 199.832 24.8672C199.632 24.7396 199.54 24.6029 199.559 24.457L199.641 24.1836C199.641 24.0378 199.65 23.9102 199.668 23.8008L199.695 22.2148V20.7383C199.695 20.4466 199.677 20.2005 199.641 20C199.604 19.7812 199.577 19.6263 199.559 19.5352C199.559 19.444 199.586 19.3802 199.641 19.3438C199.659 19.3255 199.704 19.3164 199.777 19.3164C199.905 19.3164 200.151 19.3984 200.516 19.5625C200.826 19.7083 200.953 19.8906 200.898 20.1094C200.862 20.237 200.826 20.4284 200.789 20.6836L200.707 23.8281C200.707 23.9193 200.716 23.9922 200.734 24.0469C200.771 24.0833 200.807 24.1016 200.844 24.1016C201.062 24.1016 201.327 24.0378 201.637 23.9102C202.22 23.7279 202.721 23.5456 203.141 23.3633L203.742 23.1172V21.3125C203.742 20.5833 203.697 19.8815 203.605 19.207C203.587 19.1523 203.578 19.0885 203.578 19.0156C203.578 18.8333 203.651 18.7422 203.797 18.7422C203.815 18.7422 203.915 18.7786 204.098 18.8516C204.371 18.9974 204.572 19.125 204.699 19.2344C204.827 19.3438 204.9 19.4076 204.918 19.4258C204.991 19.4805 205.027 19.5352 205.027 19.5898C205.027 19.6263 205.009 19.6719 204.973 19.7266C204.954 19.7812 204.936 19.8268 204.918 19.8633L204.836 20.6836L204.809 23.1992L204.836 25.6328C204.836 26.0521 204.809 26.4167 204.754 26.7266C204.663 27.1094 204.517 27.3008 204.316 27.3008ZM199.285 31.7852C199.085 31.7852 198.839 31.6302 198.547 31.3203C198.328 31.1016 198.219 30.9375 198.219 30.8281C198.219 30.7734 198.255 30.7461 198.328 30.7461C198.401 30.7279 198.492 30.7188 198.602 30.7188L199.203 30.6914C199.549 30.6914 199.777 30.6823 199.887 30.6641C200.233 30.6641 200.525 30.6549 200.762 30.6367C202.329 30.4909 203.387 30.3724 203.934 30.2812C204.207 30.2448 204.453 30.2083 204.672 30.1719C204.891 30.1172 205.064 30.0898 205.191 30.0898C205.447 30.0898 205.702 30.2174 205.957 30.4727C206.158 30.6732 206.258 30.8372 206.258 30.9648C206.258 31.0742 206.194 31.1471 206.066 31.1836C205.975 31.2018 205.438 31.2383 204.453 31.293C203.906 31.3112 203.232 31.3568 202.43 31.4297C201.628 31.5026 200.926 31.5755 200.324 31.6484C200.215 31.6667 200.06 31.694 199.859 31.7305C199.659 31.7669 199.467 31.7852 199.285 31.7852ZM202.949 43.0781C202.384 43.0781 201.947 43.0599 201.637 43.0234C201.345 42.987 201.099 42.8776 200.898 42.6953C200.552 42.4401 200.315 41.8841 200.188 41.0273L200.105 40.1523C200.105 39.9336 200.087 39.6602 200.051 39.332C199.759 39.3685 199.549 39.4049 199.422 39.4414C199.385 39.4596 199.322 39.487 199.23 39.5234C199.158 39.5417 199.103 39.5508 199.066 39.5508C198.939 39.5508 198.82 39.5143 198.711 39.4414C198.602 39.3685 198.465 39.2318 198.301 39.0312C198.173 38.8672 198.109 38.7578 198.109 38.7031C198.109 38.6484 198.173 38.612 198.301 38.5938C198.428 38.5755 198.602 38.5664 198.82 38.5664C199.13 38.5664 199.531 38.5299 200.023 38.457L199.996 38.0742C199.996 37.3451 199.951 36.7253 199.859 36.2148L199.832 36.0234C199.832 35.7682 199.932 35.668 200.133 35.7227C200.352 35.7956 200.552 35.8867 200.734 35.9961C200.88 36.069 200.98 36.1419 201.035 36.2148C201.09 36.2695 201.108 36.3516 201.09 36.4609L201.008 37.6367V38.3477L203.414 38.1016C203.414 37.974 203.423 37.6732 203.441 37.1992C203.46 36.707 203.46 36.388 203.441 36.2422C203.441 36.0964 203.423 35.9596 203.387 35.832C203.368 35.6862 203.35 35.5677 203.332 35.4766C203.332 35.3307 203.405 35.2578 203.551 35.2578C203.697 35.2578 203.879 35.3398 204.098 35.5039C204.353 35.668 204.517 35.8138 204.59 35.9414C204.681 36.069 204.699 36.224 204.645 36.4062C204.553 36.6979 204.49 37.026 204.453 37.3906C204.417 37.7552 204.398 37.974 204.398 38.0469C204.617 38.0286 204.818 38.0013 205 37.9648C205.182 37.9284 205.301 37.9102 205.355 37.9102C205.501 37.8737 205.674 37.8555 205.875 37.8555C205.984 37.8737 206.139 37.9831 206.34 38.1836C206.504 38.4023 206.586 38.5755 206.586 38.7031C206.586 38.8854 206.413 38.9583 206.066 38.9219C205.757 38.8672 205.447 38.8398 205.137 38.8398C204.827 38.8398 204.562 38.849 204.344 38.8672C204.289 39.5234 204.18 40.1706 204.016 40.8086C203.979 40.9544 203.915 41.0729 203.824 41.1641C203.733 41.2734 203.651 41.3281 203.578 41.3281C203.451 41.3281 203.368 41.2734 203.332 41.1641C203.314 41.0729 203.305 40.918 203.305 40.6992C203.341 40.2253 203.359 39.6328 203.359 38.9219C202.867 38.9583 202.484 38.9948 202.211 39.0312C201.792 39.1224 201.4 39.1771 201.035 39.1953C201.017 39.9427 201.053 40.6081 201.145 41.1914C201.199 41.5742 201.309 41.8385 201.473 41.9844C201.582 42.0755 201.71 42.1302 201.855 42.1484C202.02 42.1667 202.184 42.1758 202.348 42.1758C202.512 42.1758 202.621 42.1758 202.676 42.1758C203.241 42.1758 203.77 42.1484 204.262 42.0938C204.408 42.0755 204.535 42.0391 204.645 41.9844C204.772 41.9297 204.863 41.9023 204.918 41.9023C205.082 41.9023 205.246 41.957 205.41 42.0664C205.574 42.1758 205.656 42.3034 205.656 42.4492C205.656 42.5951 205.574 42.7044 205.41 42.7773C205.264 42.8503 205.027 42.9141 204.699 42.9688C204.116 43.0417 203.533 43.0781 202.949 43.0781ZM210.742 30.6367C210.961 30.6367 211.07 30.737 211.07 30.9375C211.07 31.0469 210.97 31.2018 210.77 31.4023C210.223 32.0768 209.138 33.362 207.516 35.2578C207.388 35.4219 207.27 35.5039 207.16 35.5039C207.069 35.5039 206.868 35.3672 206.559 35.0938C206.303 34.875 206.176 34.6927 206.176 34.5469C206.176 34.3828 206.312 34.2279 206.586 34.082C207.005 33.8451 207.634 33.3711 208.473 32.6602C209.311 31.9128 209.931 31.3203 210.332 30.8828C210.496 30.7188 210.633 30.6367 210.742 30.6367ZM175.988 39.5781C177.611 39.0677 179.06 38.5117 180.336 37.9102C180.062 37.5273 179.716 37.0898 179.297 36.5977C179.151 36.4154 179.078 36.2695 179.078 36.1602C179.078 35.9596 179.197 35.7865 179.434 35.6406C179.671 35.4766 179.853 35.3945 179.98 35.3945C180.126 35.3945 180.281 35.4857 180.445 35.668C181.484 36.8893 182.368 37.9648 183.098 38.8945C183.827 39.8242 184.191 40.3893 184.191 40.5898C184.191 40.7539 184.064 40.9453 183.809 41.1641C183.572 41.401 183.344 41.5195 183.125 41.5195C182.943 41.5195 182.76 41.3737 182.578 41.082C182.159 40.444 181.685 39.7513 181.156 39.0039L177.875 40.6445C177.51 40.8086 176.936 41.1003 176.152 41.5195C175.496 41.8659 175.095 42.0391 174.949 42.0391C174.84 42.0391 174.703 41.9661 174.539 41.8203C174.375 41.6927 174.247 41.5286 174.156 41.3281C174.083 41.1458 174.083 41 174.156 40.8906C174.266 40.6901 174.32 39.888 174.32 38.4844V29.0234C174.32 28.5859 174.302 28.2305 174.266 27.957C174.247 27.6836 174.174 27.3919 174.047 27.082C174.029 27.0273 174.01 26.9818 173.992 26.9453C173.974 26.9089 173.965 26.8724 173.965 26.8359C173.965 26.7448 174.029 26.6992 174.156 26.6992C174.393 26.6992 174.986 26.8997 175.934 27.3008L181.867 26.8906C182.013 26.8724 182.177 26.8633 182.359 26.8633C182.56 26.8633 182.797 26.9544 183.07 27.1367C183.344 27.3008 183.48 27.4831 183.48 27.6836C183.48 27.7565 183.435 27.8659 183.344 28.0117C183.271 28.1576 183.234 28.2669 183.234 28.3398L182.523 33.4805C182.961 33.9909 183.18 34.3372 183.18 34.5195C183.18 34.6107 183.125 34.6745 183.016 34.7109C182.924 34.7474 182.779 34.7656 182.578 34.7656L175.961 35.0117L175.988 39.5781ZM171.504 27.3008C171.504 27.1185 171.622 26.8997 171.859 26.6445C173.19 25.168 174.348 23.7005 175.332 22.2422C176.316 20.7839 176.809 19.8086 176.809 19.3164L176.781 19.125V19.043C176.781 18.7878 176.882 18.6602 177.082 18.6602C177.319 18.6602 177.647 18.8242 178.066 19.1523C178.504 19.4622 178.723 19.7174 178.723 19.918C178.723 20.0091 178.677 20.1276 178.586 20.2734C178.312 20.7109 178.012 21.1484 177.684 21.5859L181.566 21.2852C181.895 21.2669 182.241 21.194 182.605 21.0664C182.715 21.0299 182.797 21.0117 182.852 21.0117C183.125 21.0117 183.417 21.1667 183.727 21.4766C184.055 21.7682 184.219 21.9961 184.219 22.1602C184.219 22.3789 184.018 22.5065 183.617 22.543L178.941 22.8711C179.069 22.9076 179.352 23.099 179.789 23.4453C180.245 23.7917 180.655 24.1471 181.02 24.5117C181.384 24.8763 181.566 25.1315 181.566 25.2773C181.566 25.4414 181.457 25.6419 181.238 25.8789C181.02 26.0977 180.828 26.207 180.664 26.207C180.518 26.207 180.345 26.0885 180.145 25.8516C179.525 25.1771 178.896 24.5846 178.258 24.0742C178.039 23.8919 177.93 23.737 177.93 23.6094C177.93 23.5182 177.975 23.3997 178.066 23.2539C178.158 23.1081 178.276 22.9896 178.422 22.8984L176.59 23.0352C175.715 24.1107 174.749 25.1224 173.691 26.0703C172.634 27 171.96 27.4648 171.668 27.4648C171.559 27.4648 171.504 27.4102 171.504 27.3008ZM181.348 30.1445L181.539 28.2305L175.906 28.6133V30.418L181.348 30.1445ZM180.992 33.5352L181.211 31.4297L175.934 31.6758V33.7266L180.992 33.5352ZM182.469 26.125C182.469 25.9427 182.587 25.724 182.824 25.4688C183.717 24.3932 184.529 23.181 185.258 21.832C186.005 20.4648 186.379 19.5078 186.379 18.9609V18.8516C186.379 18.5781 186.479 18.4414 186.68 18.4414C186.807 18.4414 186.999 18.5143 187.254 18.6602C187.527 18.7878 187.773 18.9427 187.992 19.125C188.211 19.3073 188.32 19.4896 188.32 19.6719C188.32 19.8359 188.193 20.1276 187.938 20.5469C187.682 20.9661 187.546 21.1849 187.527 21.2031L192.914 20.7656C193.315 20.7292 193.661 20.6654 193.953 20.5742C193.99 20.556 194.062 20.5469 194.172 20.5469C194.427 20.5469 194.701 20.6927 194.992 20.9844C195.302 21.2578 195.457 21.4857 195.457 21.668C195.457 21.7773 195.402 21.8685 195.293 21.9414C195.202 21.9961 195.074 22.0326 194.91 22.0508L189.359 22.4336C189.87 22.7617 190.471 23.2448 191.164 23.8828C191.857 24.5026 192.203 24.9219 192.203 25.1406C192.203 25.2682 192.103 25.4688 191.902 25.7422C191.702 25.9974 191.51 26.125 191.328 26.125C191.182 26.125 191.027 26.0339 190.863 25.8516C189.97 24.8854 189.159 24.1198 188.43 23.5547C188.247 23.4089 188.156 23.2721 188.156 23.1445C188.156 22.9987 188.293 22.7799 188.566 22.4883L186.543 22.625C185.941 23.4271 185.212 24.2383 184.355 25.0586C183.517 25.8789 182.952 26.2891 182.66 26.2891C182.533 26.2891 182.469 26.2344 182.469 26.125ZM185.039 26.7266C185.039 26.6172 185.103 26.5625 185.23 26.5625C185.504 26.5625 186.124 26.7904 187.09 27.2461L192.586 26.7812L192.805 26.7539C192.878 26.7539 193.014 26.7904 193.215 26.8633C193.434 26.918 193.634 27.0182 193.816 27.1641C194.017 27.2917 194.117 27.4648 194.117 27.6836C194.117 27.7565 194.09 27.8568 194.035 27.9844C193.98 28.112 193.953 28.2031 193.953 28.2578C193.935 30.263 193.807 32.4049 193.57 34.6836L193.516 35.3672C193.461 36.1328 193.388 36.7708 193.297 37.2812C193.206 37.7917 193.051 38.1927 192.832 38.4844C192.486 38.9583 192.112 39.1953 191.711 39.1953C191.31 39.1953 190.799 38.9492 190.18 38.457C189.56 37.9648 188.986 37.4271 188.457 36.8438C187.947 36.2604 187.691 35.8867 187.691 35.7227C187.691 35.5951 187.764 35.5312 187.91 35.5312C188.074 35.5312 188.302 35.6224 188.594 35.8047C189.268 36.224 189.833 36.5612 190.289 36.8164C190.745 37.0716 191.073 37.1992 191.273 37.1992C191.365 37.1992 191.428 37.1354 191.465 37.0078C191.884 34.6745 192.139 31.7487 192.23 28.2305L187.09 28.6133C187.09 31.694 187.117 36.5794 187.172 43.2695C187.172 43.4336 187.126 43.5521 187.035 43.625C186.962 43.7161 186.862 43.7617 186.734 43.7617C186.589 43.7617 186.415 43.707 186.215 43.5977C185.868 43.4518 185.622 43.3151 185.477 43.1875C185.331 43.0599 185.258 42.9141 185.258 42.75L185.285 42.5586C185.395 41.957 185.449 41.2826 185.449 40.5352L185.367 28.9961C185.367 28.5221 185.349 28.1576 185.312 27.9023C185.294 27.6471 185.24 27.401 185.148 27.1641C185.076 26.9453 185.039 26.7995 185.039 26.7266Z" fill="#333333"/>
<path d="M246.152 27.2188C245.879 27.2188 245.642 27.1185 245.441 26.918C244.84 26.2617 244.229 25.6693 243.609 25.1406C242.917 24.5573 242.306 24.1198 241.777 23.8281C241.522 23.6823 241.395 23.4544 241.395 23.1445C241.395 23.0898 241.458 23.0169 241.586 22.9258C241.75 22.8164 242.014 22.5794 242.379 22.2148L243.363 21.2578C243.801 20.8021 244.165 20.3919 244.457 20.0273C244.767 19.6628 244.94 19.4076 244.977 19.2617C244.995 19.2253 245.013 19.1523 245.031 19.043C245.068 18.9154 245.122 18.8516 245.195 18.8516C245.286 18.8516 245.405 18.8971 245.551 18.9883C245.715 19.0794 245.852 19.1706 245.961 19.2617C246.234 19.5169 246.371 19.7357 246.371 19.918C246.353 19.9727 246.28 20.0365 246.152 20.1094C246.043 20.1641 245.943 20.2188 245.852 20.2734C245.76 20.3464 245.432 20.638 244.867 21.1484L243.09 22.6797C242.78 22.9349 242.625 23.1354 242.625 23.2812C242.625 23.3542 242.771 23.4727 243.062 23.6367C243.409 23.8555 244.083 24.3021 245.086 24.9766C245.469 25.2318 245.833 25.5143 246.18 25.8242C246.471 26.1159 246.617 26.4167 246.617 26.7266C246.617 26.8724 246.553 27 246.426 27.1094C246.353 27.1823 246.262 27.2188 246.152 27.2188ZM241.285 31.7852C241.085 31.7852 240.839 31.6302 240.547 31.3203C240.328 31.1016 240.219 30.9375 240.219 30.8281C240.219 30.7734 240.255 30.7461 240.328 30.7461C240.401 30.7279 240.492 30.7188 240.602 30.7188L241.203 30.6914C241.549 30.6914 241.777 30.6823 241.887 30.6641C242.233 30.6641 242.525 30.6549 242.762 30.6367C244.329 30.4909 245.387 30.3724 245.934 30.2812C246.207 30.2448 246.453 30.2083 246.672 30.1719C246.891 30.1172 247.064 30.0898 247.191 30.0898C247.447 30.0898 247.702 30.2174 247.957 30.4727C248.158 30.6732 248.258 30.8372 248.258 30.9648C248.258 31.0742 248.194 31.1471 248.066 31.1836C247.975 31.2018 247.438 31.2383 246.453 31.293C245.906 31.3112 245.232 31.3568 244.43 31.4297C243.628 31.5026 242.926 31.5755 242.324 31.6484C242.215 31.6667 242.06 31.694 241.859 31.7305C241.659 31.7669 241.467 31.7852 241.285 31.7852ZM241.121 42.6953C240.848 42.6953 240.638 42.6224 240.492 42.4766C240.328 42.3125 240.246 42.1667 240.246 42.0391C240.246 41.9115 240.319 41.7747 240.465 41.6289C240.483 41.6107 240.583 41.4648 240.766 41.1914C241.167 40.5534 241.622 39.7422 242.133 38.7578C242.661 37.7552 242.99 37.0716 243.117 36.707C243.227 36.3607 243.327 36.0599 243.418 35.8047C243.527 35.5495 243.618 35.4219 243.691 35.4219C243.819 35.4219 243.928 35.4674 244.02 35.5586C244.111 35.6315 244.202 35.7409 244.293 35.8867C244.402 36.0143 244.484 36.1055 244.539 36.1602C244.667 36.306 244.73 36.4427 244.73 36.5703C244.73 36.6615 244.694 36.7526 244.621 36.8438C244.548 36.9349 244.503 36.9987 244.484 37.0352L243.281 39.0586C242.971 39.6237 242.561 40.3255 242.051 41.1641C241.978 41.2552 241.941 41.3464 241.941 41.4375C241.941 41.5104 242.023 41.5469 242.188 41.5469C242.534 41.5469 243.181 41.5013 244.129 41.4102C245.077 41.3372 245.715 41.2734 246.043 41.2188C246.517 41.1641 246.845 41.1094 247.027 41.0547C247.228 41 247.52 41.1367 247.902 41.4648C248.358 41.8477 248.458 42.0938 248.203 42.2031C248.057 42.276 247.775 42.3125 247.355 42.3125H246.262C246.025 42.3125 245.651 42.3307 245.141 42.3672C244.831 42.3672 244.484 42.3763 244.102 42.3945C243.719 42.4128 243.4 42.431 243.145 42.4492C242.853 42.4674 242.288 42.5221 241.449 42.6133L241.121 42.6953ZM249.242 32.8242C249.333 32.8242 249.47 32.888 249.652 33.0156C249.634 33.0521 249.671 33.125 249.762 33.2344C249.853 33.3255 249.917 33.3893 249.953 33.4258C250.044 33.5169 250.135 33.6263 250.227 33.7539C250.336 33.8815 250.454 34.0182 250.582 34.1641C250.91 34.5104 251.667 35.4128 252.852 36.8711C253.052 37.1628 253.152 37.3359 253.152 37.3906C253.152 37.5729 253.043 37.6641 252.824 37.6641C252.697 37.6641 252.56 37.5729 252.414 37.3906C252.068 37.026 251.448 36.4518 250.555 35.668C249.862 35.0299 249.233 34.5378 248.668 34.1914C248.395 34.0638 248.258 33.918 248.258 33.7539C248.258 33.6263 248.395 33.444 248.668 33.207C248.923 32.9518 249.115 32.8242 249.242 32.8242ZM217.77 32.1133C217.514 34.319 217.059 36.2331 216.402 37.8555C215.746 39.4779 215.081 40.7266 214.406 41.6016C213.732 42.4948 213.276 42.9414 213.039 42.9414C213.003 42.9414 212.966 42.9232 212.93 42.8867C212.893 42.8503 212.875 42.7956 212.875 42.7227C212.875 42.6133 212.948 42.3945 213.094 42.0664C214.06 40.1159 214.789 38.1836 215.281 36.2695C215.792 34.3555 216.12 32.487 216.266 30.6641C216.43 28.8411 216.512 26.7721 216.512 24.457V23.6641C216.512 22.8073 216.402 22.0143 216.184 21.2852C216.129 21.1393 216.102 21.0208 216.102 20.9297C216.102 20.7839 216.174 20.7109 216.32 20.7109C216.63 20.7109 217.305 21.0208 218.344 21.6406L225.699 21.1758C225.225 20.6654 224.624 20.0911 223.895 19.4531C223.785 19.362 223.73 19.2708 223.73 19.1797C223.73 19.0885 223.812 18.9427 223.977 18.7422C224.141 18.5234 224.296 18.4141 224.441 18.4141C224.569 18.4141 224.879 18.5964 225.371 18.9609C225.863 19.3255 226.319 19.7174 226.738 20.1367C227.158 20.5378 227.367 20.8112 227.367 20.957V21.0938L232.918 20.7383C233.319 20.7201 233.738 20.6107 234.176 20.4102C234.212 20.3919 234.276 20.3828 234.367 20.3828C234.568 20.3828 234.85 20.5378 235.215 20.8477C235.598 21.1393 235.789 21.3945 235.789 21.6133C235.789 21.8503 235.579 21.987 235.16 22.0234L228.926 22.4062L228.844 23.8281L233.055 23.5547H233.328C233.729 23.5547 234.012 23.6641 234.176 23.8828C234.34 24.0833 234.422 24.2656 234.422 24.4297C234.422 24.5026 234.395 24.5846 234.34 24.6758C234.303 24.7669 234.276 24.849 234.258 24.9219L233.902 26.4531C234.285 26.8359 234.477 27.1003 234.477 27.2461C234.477 27.319 234.431 27.3737 234.34 27.4102C234.249 27.4284 234.167 27.4466 234.094 27.4648C234.039 27.4648 233.993 27.4648 233.957 27.4648L218.125 28.2852L218.043 29.4336L235.133 28.5586H235.27C235.561 28.5586 235.889 28.6771 236.254 28.9141C236.618 29.1328 236.801 29.3516 236.801 29.5703C236.801 29.7161 236.573 29.9987 236.117 30.418C235.661 30.8372 235.169 31.2292 234.641 31.5938C234.13 31.9583 233.766 32.1406 233.547 32.1406C233.419 32.1406 233.355 32.0859 233.355 31.9766C233.355 31.8672 233.447 31.694 233.629 31.457C234.158 30.8008 234.531 30.263 234.75 29.8438L217.934 30.7188L217.77 32.1133ZM215.5 43.2695C215.5 43.1784 215.564 43.0872 215.691 42.9961C215.837 42.9049 216.029 42.8411 216.266 42.8047C219.529 42.1667 222.445 41.2643 225.016 40.0977C223.904 39.4779 222.874 38.8216 221.926 38.1289C220.978 38.8763 220.03 39.5234 219.082 40.0703C218.152 40.6172 217.523 40.8906 217.195 40.8906C217.068 40.8906 217.004 40.8451 217.004 40.7539C217.004 40.5716 217.159 40.3802 217.469 40.1797C218.799 39.2318 219.984 38.2656 221.023 37.2812C220.75 36.9896 220.577 36.7891 220.504 36.6797C220.431 36.5703 220.413 36.4792 220.449 36.4062C220.486 36.2604 220.577 36.1237 220.723 35.9961C220.868 35.8685 221.023 35.8047 221.188 35.8047C221.37 35.8047 221.543 35.9049 221.707 36.1055L221.926 36.3516C222.181 36.0599 222.363 35.8411 222.473 35.6953C222.655 35.4948 222.746 35.2031 222.746 34.8203V34.6562C222.746 34.4193 222.828 34.3008 222.992 34.3008C223.211 34.3008 223.512 34.4466 223.895 34.7383C224.296 35.0117 224.496 35.2669 224.496 35.5039C224.496 35.5951 224.432 35.7227 224.305 35.8867L224.031 36.1875L230.512 35.832H230.703C231.049 35.832 231.396 35.9414 231.742 36.1602C232.089 36.3789 232.262 36.625 232.262 36.8984C232.262 37.0443 232.207 37.1719 232.098 37.2812C231.988 37.3724 231.861 37.4635 231.715 37.5547C231.587 37.6276 231.496 37.6914 231.441 37.7461C230.475 38.5664 229.382 39.3229 228.16 40.0156C229.345 40.4349 230.63 40.7904 232.016 41.082C233.419 41.3737 235.096 41.6654 237.047 41.957C237.357 42.0117 237.512 42.1029 237.512 42.2305C237.512 42.4128 237.366 42.668 237.074 42.9961C236.783 43.3242 236.509 43.4883 236.254 43.4883C235.944 43.4883 235.197 43.3607 234.012 43.1055C232.827 42.8503 231.542 42.5221 230.156 42.1211C228.771 41.7201 227.568 41.2917 226.547 40.8359C223.758 42.1484 220.367 43.0234 216.375 43.4609C216.302 43.4792 216.193 43.4883 216.047 43.4883C215.865 43.4883 215.728 43.4609 215.637 43.4062C215.546 43.3698 215.5 43.3242 215.5 43.2695ZM222.445 26.8906L222.418 25.4688L218.234 25.7422L218.18 27.1367L222.445 26.8906ZM222.391 24.2656L222.363 22.8438L218.262 23.0898V24.5391L222.391 24.2656ZM218.289 34.6289C218.289 34.5378 218.335 34.4284 218.426 34.3008C219.046 33.4987 219.538 32.6055 219.902 31.6211C219.993 31.4023 220.139 31.293 220.34 31.293C220.467 31.293 220.632 31.3385 220.832 31.4297C221.033 31.5026 221.133 31.6302 221.133 31.8125C221.133 31.8854 221.124 31.9401 221.105 31.9766C220.905 32.5964 220.604 33.3255 220.203 34.1641C219.802 34.9844 219.465 35.3945 219.191 35.3945C219.027 35.3945 218.836 35.3034 218.617 35.1211C218.398 34.9206 218.289 34.7565 218.289 34.6289ZM221.926 31.5938C221.926 31.4661 221.999 31.3659 222.145 31.293C222.309 31.2018 222.509 31.1471 222.746 31.1289C222.983 31.1289 223.156 31.2474 223.266 31.4844C223.503 32.0495 223.758 32.5052 224.031 32.8516C224.323 33.1797 224.797 33.444 225.453 33.6445C226.128 33.8451 227.066 33.9453 228.27 33.9453C228.725 33.9453 229.081 33.9362 229.336 33.918C229.591 33.8997 229.719 33.8451 229.719 33.7539C229.719 33.681 229.701 33.6263 229.664 33.5898C228.953 32.5872 228.598 31.9948 228.598 31.8125C228.598 31.7031 228.643 31.6484 228.734 31.6484C228.917 31.6484 229.145 31.776 229.418 32.0312C230.001 32.5417 230.557 32.9883 231.086 33.3711C231.487 33.6628 231.688 33.918 231.688 34.1367C231.688 34.3919 231.423 34.6289 230.895 34.8477C230.384 35.0664 229.564 35.1758 228.434 35.1758C227.686 35.1758 226.966 35.1302 226.273 35.0391C225.581 34.9479 225.007 34.8112 224.551 34.6289C223.876 34.3555 223.339 34 222.938 33.5625C222.555 33.125 222.29 32.724 222.145 32.3594C221.999 31.9766 221.926 31.7214 221.926 31.5938ZM223.047 37.3633C224.104 38.1289 225.262 38.7852 226.52 39.332C227.814 38.6393 228.99 37.8737 230.047 37.0352L223.047 37.3633ZM223.867 24.1562L227.395 23.9375L227.449 22.5156L223.84 22.7344L223.867 24.1562ZM223.895 26.8086L227.258 26.6172L227.34 25.168L223.867 25.3867L223.895 26.8086ZM224.66 31.2109C224.66 31.138 224.715 31.0013 224.824 30.8008C224.934 30.6003 225.07 30.5 225.234 30.5C225.307 30.5 225.572 30.6003 226.027 30.8008C226.483 31.0013 226.902 31.2201 227.285 31.457C227.668 31.6758 227.859 31.8581 227.859 32.0039C227.859 32.1133 227.786 32.2865 227.641 32.5234C227.495 32.7604 227.331 32.8789 227.148 32.8789C227.039 32.8789 226.921 32.8333 226.793 32.7422C226.137 32.25 225.48 31.8216 224.824 31.457C224.715 31.4023 224.66 31.3203 224.66 31.2109ZM232.508 26.3164L232.754 24.8398L228.789 25.0859L228.707 26.5352L232.508 26.3164ZM230.539 31.375C230.539 31.2656 230.612 31.1198 230.758 30.9375C230.958 30.737 231.132 30.6367 231.277 30.6367C231.423 30.6367 231.76 30.8464 232.289 31.2656C232.836 31.6849 233.346 32.1224 233.82 32.5781C234.294 33.0339 234.531 33.3346 234.531 33.4805C234.531 33.6081 234.404 33.7812 234.148 34C233.911 34.2005 233.72 34.3008 233.574 34.3008C233.392 34.3008 233.21 34.1823 233.027 33.9453C232.699 33.526 232.362 33.1523 232.016 32.8242C231.669 32.4779 231.223 32.0768 230.676 31.6211C230.585 31.5482 230.539 31.4661 230.539 31.375Z" fill="#333333"/>
</svg>
