<svg width="320" height="60" viewBox="0 0 320 60" fill="none" xmlns="http://www.w3.org/2000/svg">
<path d="M105.23 30.09C104.957 30.09 104.711 29.9806 104.492 29.7618C104.219 29.5613 104.082 29.4064 104.082 29.297C104.082 29.1694 104.292 29.1056 104.711 29.1056L106.051 29.0235L107.418 28.8868C107.454 28.5952 107.473 28.0392 107.473 27.2189C107.527 27.2189 107.245 27.2553 106.625 27.3282L106.105 27.4103C105.941 27.4832 105.796 27.5196 105.668 27.5196C105.559 27.5196 105.467 27.4832 105.395 27.4103C105.103 27.1551 104.957 26.9363 104.957 26.754V25.4689C104.957 25.3413 104.911 24.8491 104.82 23.9923L104.793 23.6915C104.793 23.5457 104.82 23.4545 104.875 23.4181C104.93 23.3816 105.03 23.3816 105.176 23.4181C105.723 23.5639 105.987 23.728 105.969 23.9103L105.941 24.1017C105.905 24.3569 105.887 24.685 105.887 25.086C105.887 25.56 105.896 25.8608 105.914 25.9884C105.951 26.353 105.969 26.5262 105.969 26.5079C105.987 26.5808 106.051 26.6173 106.16 26.6173C106.27 26.6173 106.488 26.59 106.816 26.5353C107.163 26.4623 107.391 26.4168 107.5 26.3985V23.9923C107.5 23.3178 107.473 22.8621 107.418 22.6251C107.382 22.4428 107.363 22.3426 107.363 22.3243C107.363 22.1967 107.409 22.1329 107.5 22.1329C107.536 22.1329 107.664 22.1694 107.883 22.2423C108.229 22.4064 108.457 22.5522 108.566 22.6798C108.694 22.8074 108.74 22.9441 108.703 23.09C108.648 23.2722 108.612 23.6368 108.594 24.1837C108.557 24.6212 108.521 25.3321 108.484 26.3165L109.414 26.2892C109.596 26.2892 109.733 26.2801 109.824 26.2618C109.915 26.2436 109.961 26.2071 109.961 26.1525C110.089 25.4597 110.171 24.8582 110.207 24.3478L110.234 24.0196C110.253 23.9832 110.253 23.9194 110.234 23.8282C110.234 23.7371 110.234 23.6733 110.234 23.6368L110.207 23.4454C110.207 23.2814 110.271 23.1993 110.398 23.1993C110.471 23.1993 110.626 23.2722 110.863 23.4181C110.918 23.4545 110.991 23.5092 111.082 23.5821C111.191 23.6368 111.264 23.7006 111.301 23.7735C111.337 23.8282 111.355 23.9012 111.355 23.9923C111.355 24.1017 111.346 24.1928 111.328 24.2657L111.027 25.797L110.945 26.4259C110.872 26.8452 110.654 27.073 110.289 27.1095C110.18 27.0913 110.089 27.0639 110.016 27.0275C109.961 26.991 109.915 26.9728 109.879 26.9728C109.66 26.9728 109.204 27.0183 108.512 27.1095L108.484 28.8048L108.949 28.7775L109.387 28.7501C110.061 28.7501 110.562 28.7137 110.891 28.6407C111.036 28.6407 111.164 28.6225 111.273 28.586L111.355 28.5587C111.538 28.5587 111.729 28.6863 111.93 28.9415C112.167 29.1785 112.285 29.3517 112.285 29.461C112.285 29.6251 112.03 29.6798 111.52 29.6251L110.48 29.5704H109.113C108.84 29.5704 108.339 29.6069 107.609 29.6798C107.227 29.6798 106.88 29.698 106.57 29.7345C106.26 29.7709 105.969 29.8347 105.695 29.9259L105.23 30.09ZM111.164 38.8946C110.891 38.8946 110.626 38.6941 110.371 38.2931C110.043 37.7827 109.724 37.3634 109.414 37.0353L108.703 36.297C108.32 36.7345 107.983 37.0808 107.691 37.336C107.418 37.5913 107.072 37.8373 106.652 38.0743C105.868 38.5301 105.212 38.7579 104.684 38.7579C104.556 38.7579 104.492 38.7123 104.492 38.6212C104.492 38.5665 104.665 38.448 105.012 38.2657C105.358 38.0834 105.686 37.8647 105.996 37.6095C106.78 36.9532 107.427 36.2788 107.938 35.586C107.828 35.4767 107.281 35.0027 106.297 34.1642C106.169 34.073 105.978 33.9181 105.723 33.6993C105.668 33.6629 105.559 33.5808 105.395 33.4532C105.23 33.3256 105.148 33.2345 105.148 33.1798C105.148 33.0887 105.194 33.0431 105.285 33.0431C105.559 33.0431 105.996 33.2345 106.598 33.6173C107.199 33.9819 107.828 34.4194 108.484 34.9298C108.74 34.6199 108.94 34.3282 109.086 34.0548C109.232 33.7814 109.396 33.4441 109.578 33.0431C109.669 32.8426 109.724 32.6694 109.742 32.5235C109.76 32.3595 109.77 32.2592 109.77 32.2228C109.77 32.0222 109.824 31.922 109.934 31.922C110.061 31.922 110.234 32.0222 110.453 32.2228C110.836 32.5873 111.027 32.8334 111.027 32.961C111.027 33.034 110.982 33.116 110.891 33.2071C110.672 33.4259 110.471 33.7176 110.289 34.0821C110.18 34.3009 109.979 34.6108 109.688 35.0118C109.596 35.1212 109.523 35.2215 109.469 35.3126C109.414 35.4038 109.359 35.4858 109.305 35.5587C109.724 35.8686 110.344 36.3972 111.164 37.1446C111.365 37.3269 111.492 37.5001 111.547 37.6642C111.62 37.81 111.656 38.0105 111.656 38.2657C111.656 38.448 111.611 38.603 111.52 38.7306C111.428 38.84 111.31 38.8946 111.164 38.8946ZM113.242 29.2696C113.333 29.2696 113.47 29.3334 113.652 29.461C113.634 29.4975 113.671 29.5704 113.762 29.6798C113.853 29.7709 113.917 29.8347 113.953 29.8712C114.044 29.9623 114.135 30.0717 114.227 30.1993C114.336 30.3269 114.454 30.4637 114.582 30.6095C114.91 30.9558 115.667 31.8582 116.852 33.3165C117.052 33.6082 117.152 33.7814 117.152 33.836C117.152 34.0183 117.043 34.1095 116.824 34.1095C116.697 34.1095 116.56 34.0183 116.414 33.836C116.068 33.4715 115.448 32.8972 114.555 32.1134C113.862 31.4754 113.233 30.9832 112.668 30.6368C112.395 30.5092 112.258 30.3634 112.258 30.1993C112.258 30.0717 112.395 29.8894 112.668 29.6525C112.923 29.3972 113.115 29.2696 113.242 29.2696ZM78.707 27.9571L78.3516 26.8634L79.5273 27.0275C79.6367 27.0457 79.8737 27.1095 80.2383 27.2189C80.6393 27.3282 80.931 27.4467 81.1133 27.5743C81.2956 27.7019 81.4505 27.8569 81.5781 28.0392C81.7057 28.2215 81.7878 28.4676 81.8242 28.7775L81.8516 29.0509C81.8516 29.2514 81.8242 29.4064 81.7695 29.5157C81.6602 29.6798 81.4688 29.8347 81.1953 29.9806C80.9766 29.9806 80.7487 29.9168 80.5117 29.7892C80.293 29.698 79.9922 29.4428 79.6094 29.0235C79.2266 28.6043 78.9258 28.2488 78.707 27.9571ZM82.7539 32.9884L83.6836 31.5665C83.793 31.4207 83.9388 31.3569 84.1211 31.3751L84.3398 31.5392C84.3398 31.685 84.3034 31.8217 84.2305 31.9493L83.5195 33.4532C83.3555 33.8178 83.1549 34.228 82.918 34.6837L82.0977 36.379L81.2773 38.0196C81.0951 38.4389 80.9219 38.8673 80.7578 39.3048C80.5938 39.7423 80.457 40.0704 80.3477 40.2892C80.2383 40.4897 80.0104 40.6173 79.6641 40.672C79.4271 40.6173 79.2539 40.4806 79.1445 40.2618C79.0352 40.0431 78.9258 39.7696 78.8164 39.4415C78.707 39.0952 78.6159 38.7853 78.543 38.5118C78.4518 38.2748 78.4062 38.0743 78.4062 37.9103L78.4336 37.5821C78.5065 37.4363 78.6159 37.3087 78.7617 37.1993L79.4727 36.7892C79.6914 36.6616 79.9284 36.4702 80.1836 36.215C80.4388 35.9597 80.7214 35.6407 81.0312 35.2579L81.9062 34.1368L82.7539 32.9884ZM81.6055 22.379L81.1406 21.6954L81.0312 21.3946L81.3594 21.2579L81.9883 21.3946C82.2799 21.4676 82.681 21.586 83.1914 21.7501C83.7201 21.9142 84.112 22.0873 84.3672 22.2696C84.6042 22.4337 84.7773 22.6069 84.8867 22.7892C84.9596 22.9532 84.9961 23.1629 84.9961 23.4181C84.9961 23.7097 84.9414 23.9376 84.832 24.1017C84.7227 24.284 84.6133 24.4025 84.5039 24.4571C84.3945 24.5301 84.2305 24.5665 84.0117 24.5665C83.793 24.5665 83.5013 24.4207 83.1367 24.129C82.9909 24.0196 82.7266 23.7371 82.3438 23.2814C81.9609 22.8256 81.7148 22.5248 81.6055 22.379ZM90.8477 32.797L89.6992 32.961C89.2982 33.0157 88.9518 33.0431 88.6602 33.0431C88.3685 33.0248 88.0768 32.9884 87.7852 32.9337C87.4935 32.8608 87.2747 32.7514 87.1289 32.6056L86.9648 32.3321C87.0013 32.2228 87.1289 32.1498 87.3477 32.1134L88.2227 32.0587L89.0156 31.922L89.8086 31.8126L90.9297 31.6212L90.8477 28.7228C90.8294 28.34 90.8021 28.0483 90.7656 27.8478C90.7474 27.629 90.7018 27.4467 90.6289 27.3009L90.5195 26.9454C90.1914 27.0001 89.8633 27.0457 89.5352 27.0821C89.207 27.1186 88.806 27.1368 88.332 27.1368C87.7122 27.1368 87.2292 27.0821 86.8828 26.9728C86.4635 26.8634 86.2266 26.7358 86.1719 26.59L86.1172 26.3165C86.1354 26.2071 86.3815 26.1251 86.8555 26.0704L87.8945 25.961C88.2591 25.9246 88.5781 25.8881 88.8516 25.8517C89.125 25.797 89.4987 25.715 89.9727 25.6056L91.7227 25.2228C91.431 24.9676 91.2305 24.767 91.1211 24.6212C91.0117 24.4754 90.8294 24.1472 90.5742 23.6368L90.0273 22.5157L89.6445 21.586L89.5898 21.3673L89.7539 21.0939H90L90.957 21.3946C91.3216 21.5222 91.6771 21.741 92.0234 22.0509C92.388 22.3426 92.6341 22.6069 92.7617 22.8439C92.9076 23.0808 92.9987 23.3816 93.0352 23.7462L93.0625 24.047L93.0352 24.3751L92.625 25.0314L94.1289 24.7032C94.2747 24.685 94.6393 24.5665 95.2227 24.3478L95.6602 24.211L96.125 24.1017C96.3438 24.0834 96.5352 24.0926 96.6992 24.129L97.4102 24.3751C97.6654 24.4663 97.8294 24.5665 97.9023 24.6759L98.0117 24.8946C98.0117 25.0405 97.9479 25.1681 97.8203 25.2775C97.6927 25.4233 97.4648 25.5509 97.1367 25.6603C96.7904 25.7696 96.4258 25.879 96.043 25.9884C95.6419 26.0795 95.1771 26.1707 94.6484 26.2618L92.543 26.6446C92.7982 26.7905 92.9622 27.0275 93.0352 27.3556L92.8984 27.9025C92.8438 28.0118 92.8164 28.2488 92.8164 28.6134L92.707 31.2384L94.0742 30.9376L95.0039 30.7189C95.1497 30.6824 95.2865 30.6551 95.4141 30.6368C95.6875 30.6368 96.0156 30.6915 96.3984 30.8009C96.7812 30.9103 97.0273 31.0105 97.1367 31.1017L97.3008 31.2931L97.2461 31.5939L96.7539 31.7306L95.8789 31.922L94.4297 32.2228L92.6523 32.4962L92.5156 37.6915L95.3867 37.4181L96.4258 37.2814C97.1185 37.2084 97.5651 37.1446 97.7656 37.09L98.8867 36.8712C99.0143 36.853 99.1419 36.8439 99.2695 36.8439C99.4154 36.8439 99.5521 36.853 99.6797 36.8712C99.9531 36.9077 100.217 36.9715 100.473 37.0626C100.728 37.1538 100.974 37.2722 101.211 37.4181C101.448 37.5639 101.639 37.7006 101.785 37.8282L102.004 38.129C101.967 38.2748 101.885 38.4116 101.758 38.5392L101.266 38.5665L99.5977 38.5392C98.832 38.5209 97.9388 38.5118 96.918 38.5118C96.4258 38.4936 95.9883 38.4845 95.6055 38.4845C95.2409 38.4845 94.9401 38.4936 94.7031 38.5118C94.2109 38.5483 93.3906 38.6212 92.2422 38.7306C91.0938 38.8217 90.3737 38.8855 90.082 38.922C89.7904 38.9767 89.2617 39.0678 88.4961 39.1954C87.7305 39.3413 87.2383 39.4324 87.0195 39.4689L86.3359 39.6603L85.8164 39.797C85.6341 39.797 85.3516 39.715 84.9688 39.5509C84.5495 39.4051 84.2578 39.2866 84.0938 39.1954C83.9297 39.1225 83.8021 39.0222 83.7109 38.8946L83.6016 38.6759C83.6562 38.5665 83.8659 38.4936 84.2305 38.4571L85.1602 38.3478C85.3789 38.3113 85.8984 38.2748 86.7188 38.2384C87.5391 38.2019 88.1133 38.1472 88.4414 38.0743L91.0117 37.7462L90.8477 32.797Z" fill="#333333"/>
<path d="M147.285 26.59C147.085 26.59 146.839 26.435 146.547 26.1251C146.328 25.9064 146.219 25.7423 146.219 25.6329C146.219 25.5782 146.255 25.5509 146.328 25.5509C146.401 25.5327 146.492 25.5235 146.602 25.5235L147.203 25.4962C147.549 25.4962 147.777 25.4871 147.887 25.4689C148.233 25.4689 148.525 25.4597 148.762 25.4415C150.329 25.2957 151.387 25.1772 151.934 25.086C152.207 25.0496 152.453 25.0131 152.672 24.9767C152.891 24.922 153.064 24.8946 153.191 24.8946C153.447 24.8946 153.702 25.0222 153.957 25.2775C154.158 25.478 154.258 25.642 154.258 25.7696C154.258 25.879 154.194 25.9519 154.066 25.9884C153.975 26.0066 153.438 26.0431 152.453 26.0978C151.906 26.116 151.232 26.1616 150.43 26.2345C149.628 26.3074 148.926 26.3803 148.324 26.4532C148.215 26.4715 148.06 26.4988 147.859 26.5353C147.659 26.5717 147.467 26.59 147.285 26.59ZM153.656 34.5743C153.857 34.7931 153.957 34.9754 153.957 35.1212C153.957 35.2488 153.884 35.3673 153.738 35.4767C153.647 35.5496 153.419 35.9506 153.055 36.6798C152.654 37.336 152.207 37.9103 151.715 38.4025C151.241 38.8764 150.767 39.2228 150.293 39.4415C150.184 39.478 150.092 39.4962 150.02 39.4962C149.947 39.4962 149.91 39.478 149.91 39.4415V39.3868C149.91 39.2775 150.001 39.1498 150.184 39.004C150.512 38.7488 150.758 38.4936 150.922 38.2384C151.104 37.965 151.241 37.7644 151.332 37.6368C151.715 37.09 151.988 36.6433 152.152 36.297C152.335 35.9871 152.462 35.6681 152.535 35.34H152.426C151.952 35.34 151.186 35.3946 150.129 35.504C149.965 35.5222 149.491 35.586 148.707 35.6954C148.543 35.7137 148.288 35.7592 147.941 35.8321L147.613 35.9142C147.54 35.9506 147.467 35.9689 147.395 35.9689C147.303 35.9689 147.212 35.9506 147.121 35.9142C147.03 35.8595 146.939 35.7957 146.848 35.7228C146.629 35.5405 146.52 35.3855 146.52 35.2579C146.538 35.2215 146.556 35.1668 146.574 35.0939C146.611 35.0209 146.629 34.9571 146.629 34.9025L146.766 34.0001C146.784 33.909 146.802 33.8087 146.82 33.6993C146.839 33.59 146.848 33.4806 146.848 33.3712C146.848 33.0248 146.839 32.7514 146.82 32.5509C146.82 32.3321 146.793 32.1043 146.738 31.8673V31.7853C146.738 31.6577 146.793 31.5939 146.902 31.5939C147.012 31.5939 147.203 31.6759 147.477 31.84C147.841 32.0952 148.023 32.2957 148.023 32.4415C148.023 32.4962 148.014 32.5418 147.996 32.5782C147.978 32.6147 147.96 32.6512 147.941 32.6876C147.887 33.0157 147.859 33.198 147.859 33.2345L147.723 34.6837C147.723 34.7202 147.741 34.7657 147.777 34.8204C147.832 34.8569 147.887 34.8751 147.941 34.8751C148.379 34.8751 149.363 34.7657 150.895 34.547C151.496 34.4923 151.924 34.4285 152.18 34.3556C152.344 34.3373 152.48 34.31 152.59 34.2735C152.717 34.2189 152.799 34.1915 152.836 34.1915C152.945 34.1551 153.018 34.1368 153.055 34.1368C153.219 34.1368 153.419 34.2827 153.656 34.5743ZM129.129 29.0509C129.02 28.8321 128.928 28.6407 128.855 28.4767C128.783 28.3126 128.682 28.0301 128.555 27.629L128.199 26.4259L127.844 25.0314L127.543 23.9376C127.233 23.9194 126.996 23.9012 126.832 23.8829C126.686 23.8465 126.495 23.7918 126.258 23.7189C126.039 23.6277 125.884 23.5275 125.793 23.4181L125.684 23.1993C125.72 23.0535 125.829 22.9715 126.012 22.9532L126.559 22.8985C126.668 22.8803 126.923 22.8712 127.324 22.8712C127.689 22.8347 128.217 22.7892 128.91 22.7345C129.603 22.6798 130.059 22.6342 130.277 22.5978C130.496 22.5795 130.842 22.5431 131.316 22.4884L132.137 22.379C131.954 22.2696 131.809 22.1603 131.699 22.0509C131.59 21.9597 131.471 21.7775 131.344 21.504L130.824 20.465C130.569 19.9728 130.414 19.6629 130.359 19.5353L130.113 18.879L130.387 18.7423L131.07 18.9337C131.344 19.0431 131.645 19.1707 131.973 19.3165C132.301 19.4623 132.556 19.6264 132.738 19.8087C132.939 19.991 133.085 20.2553 133.176 20.6017C133.194 20.8204 133.176 21.0301 133.121 21.2306C133.012 21.5587 132.884 21.7957 132.738 21.9415L132.383 22.3243C132.911 22.2696 133.376 22.215 133.777 22.1603C134.197 22.1238 134.543 22.0691 134.816 21.9962L135.527 21.8321L136.266 21.6681C136.411 21.6681 136.548 21.6772 136.676 21.6954C136.822 21.7501 136.977 21.8048 137.141 21.8595C137.305 21.9142 137.478 21.9962 137.66 22.1056L137.824 22.5978C137.642 22.7801 137.332 22.9077 136.895 22.9806L136.211 23.2267C136.339 23.3178 136.457 23.409 136.566 23.5001C136.658 23.573 136.74 23.6642 136.812 23.7735L136.895 24.1017L136.648 24.4571C136.484 24.6394 136.329 24.8946 136.184 25.2228L135.473 26.6446C135.145 27.2462 134.953 27.6017 134.898 27.711L134.324 28.6134C134.616 28.6134 134.898 28.6043 135.172 28.586C135.427 28.5678 136.138 28.504 137.305 28.3946C138.471 28.3035 139.219 28.2306 139.547 28.1759L140.34 28.0665C140.996 27.9571 141.415 27.9025 141.598 27.9025L142.309 28.1485C142.71 28.2944 143.065 28.504 143.375 28.7775L143.785 29.297C143.749 29.4428 143.648 29.5613 143.484 29.6525C143.302 29.7436 142.819 29.7892 142.035 29.7892H141.051L139.547 29.7618C139.328 29.7436 139.055 29.7345 138.727 29.7345C138.417 29.7345 138.061 29.7436 137.66 29.7618C136.275 29.7801 135.09 29.8074 134.105 29.8439L131.043 30.0079C129.712 30.0808 128.792 30.1446 128.281 30.1993L126.121 30.5001L124.508 30.7462L122.895 31.129L122.594 31.1564H122.238C122.001 31.1199 121.746 31.0196 121.473 30.8556L120.98 30.5548C120.689 30.3907 120.488 30.1446 120.379 29.8165C120.452 29.6889 120.607 29.616 120.844 29.5978L121.309 29.5704L122.84 29.5157C123.314 29.4975 124.134 29.4428 125.301 29.3517C126.467 29.2605 127.324 29.1967 127.871 29.1603C128.418 29.1238 128.746 29.0965 128.855 29.0782L129.129 29.0509ZM128.363 23.8829C128.509 24.047 128.637 24.1655 128.746 24.2384C128.819 24.3478 128.938 24.4845 129.102 24.6485C129.266 24.8126 129.457 25.0587 129.676 25.3868C129.913 25.715 130.068 26.0066 130.141 26.2618C130.195 26.4806 130.241 26.7814 130.277 27.1642C130.277 27.6928 130.259 28.0301 130.223 28.1759L130.086 28.9689C131.034 28.8777 131.608 28.8321 131.809 28.8321L133.531 28.6954C133.586 28.5314 133.632 28.3855 133.668 28.2579C133.723 28.1303 133.768 28.0027 133.805 27.8751C133.859 27.7475 133.978 27.3191 134.16 26.59L134.406 25.6056C134.497 25.2775 134.561 24.9676 134.598 24.6759C134.652 24.3842 134.68 24.1017 134.68 23.8282V23.6368L134.625 23.2814C134.352 23.2996 134.142 23.3269 133.996 23.3634C133.814 23.3634 133.331 23.409 132.547 23.5001C131.763 23.5913 131.171 23.6551 130.77 23.6915L129.129 23.8009L128.363 23.8829ZM128.582 40.6993L128.445 41.3282C128.372 41.6381 128.263 41.8022 128.117 41.8204C127.99 41.8204 127.862 41.7475 127.734 41.6017C127.516 41.3829 127.342 41.0639 127.215 40.6446C127.105 40.2983 127.051 40.0066 127.051 39.7696L127.16 39.3048C127.233 39.0314 127.288 38.6212 127.324 38.0743L127.406 36.9806C127.424 36.6342 127.434 36.1329 127.434 35.4767C127.415 35.0027 127.397 34.6108 127.379 34.3009C127.342 34.0092 127.288 33.7722 127.215 33.59L126.969 33.1525L126.859 32.797C126.932 32.6876 127.087 32.642 127.324 32.6603L127.816 32.7696L128.363 32.9337L131.316 32.4142C131.499 32.3959 131.954 32.2957 132.684 32.1134C133.413 31.9493 133.941 31.7762 134.27 31.5939L134.898 31.3478C135.081 31.3478 135.309 31.4207 135.582 31.5665L136.293 31.9767C136.53 32.1043 136.74 32.2592 136.922 32.4415L137.195 32.797C137.177 32.9064 137.132 33.0431 137.059 33.2071C136.986 33.353 136.913 33.517 136.84 33.6993C136.767 33.8816 136.73 34.1551 136.73 34.5196L136.703 36.6251C136.703 37.0626 136.73 37.5821 136.785 38.1837C136.822 38.9493 136.84 39.4233 136.84 39.6056C136.84 40.116 136.776 40.5717 136.648 40.9728C136.521 41.3373 136.275 41.7019 135.91 42.0665C135.637 42.34 135.318 42.4402 134.953 42.3673C134.862 42.2032 134.753 41.9754 134.625 41.6837C134.497 41.392 134.352 41.0821 134.188 40.754L133.941 40.3165C133.34 40.3894 132.893 40.435 132.602 40.4532L130.605 40.6446C129.986 40.7176 129.521 40.754 129.211 40.754L128.582 40.6993ZM128.582 39.6876C128.874 39.6694 129.202 39.642 129.566 39.6056C129.949 39.5691 130.368 39.5144 130.824 39.4415L132.711 39.1134C132.984 39.0952 133.267 39.086 133.559 39.086C133.887 39.1225 134.178 39.2228 134.434 39.3868L134.871 39.5782C135.053 39.5418 135.163 39.2957 135.199 38.84V36.4884C134.944 36.5248 134.734 36.5613 134.57 36.5978L133.559 36.7618L132.52 36.8985C131.608 37.0262 130.997 37.1173 130.688 37.172C130.359 37.2267 130.068 37.254 129.812 37.254C129.576 37.254 129.348 37.2176 129.129 37.1446L128.691 37.0353L128.582 39.6876ZM128.746 36.4064L130.578 36.1056C131.198 35.9962 131.745 35.8868 132.219 35.7775C132.693 35.6863 133.057 35.6225 133.312 35.586C133.495 35.5678 133.704 35.5587 133.941 35.5587C134.087 35.5587 134.297 35.586 134.57 35.6407L135.145 35.7501V34.0001L135.09 33.5353C135.053 33.2436 134.99 33.0522 134.898 32.961C134.826 32.8699 134.634 32.8243 134.324 32.8243C134.16 32.8426 133.887 32.879 133.504 32.9337L132.082 33.1525L128.801 33.8907V34.629L128.746 36.4064Z" fill="#333333"/>
<path d="M191.582 29.2423C190.707 29.2423 190.124 29.1876 189.832 29.0782C189.486 28.9142 189.258 28.5405 189.148 27.9571C189.094 27.6472 189.066 27.2553 189.066 26.7814L188.957 25.004V24.3204C188.939 24.3022 188.93 24.2566 188.93 24.1837L188.902 23.8829C188.884 23.7371 188.802 23.5639 188.656 23.3634C188.602 23.254 188.574 23.172 188.574 23.1173C188.574 22.9897 188.729 22.9532 189.039 23.0079C189.367 23.0626 189.741 23.09 190.16 23.09C190.452 23.09 190.999 23.0717 191.801 23.0353C192.074 23.017 192.712 22.935 193.715 22.7892L194.59 22.5978L194.809 22.5431C194.973 22.5431 195.173 22.6433 195.41 22.8439C195.611 23.0079 195.711 23.1629 195.711 23.3087C195.711 23.491 195.574 23.6004 195.301 23.6368C194.59 23.6915 194.043 23.7189 193.66 23.7189L192.676 23.7735C192.384 23.81 192.184 23.8282 192.074 23.8282C190.871 23.8829 190.188 23.9103 190.023 23.9103C190.023 25.1863 190.033 25.9793 190.051 26.2892C190.087 26.7996 190.115 27.2006 190.133 27.4923C190.169 27.784 190.215 27.9754 190.27 28.0665C190.306 28.1394 190.37 28.1941 190.461 28.2306C190.57 28.2488 190.671 28.267 190.762 28.2853C190.871 28.2853 190.953 28.2853 191.008 28.2853C191.026 28.2853 191.072 28.2944 191.145 28.3126C191.236 28.3126 191.409 28.3126 191.664 28.3126C191.846 28.3126 192.156 28.2944 192.594 28.2579C193.159 28.2215 193.706 28.1485 194.234 28.0392C194.362 28.0209 194.654 28.0118 195.109 28.0118C195.328 28.0118 195.538 28.1121 195.738 28.3126C195.829 28.4038 195.875 28.5314 195.875 28.6954C195.875 28.823 195.839 28.9142 195.766 28.9689C195.656 29.0235 195.483 29.0691 195.246 29.1056C195.027 29.1238 194.745 29.142 194.398 29.1603C193.396 29.215 192.457 29.2423 191.582 29.2423ZM195.164 38.8946C194.891 38.8946 194.626 38.6941 194.371 38.2931C194.043 37.7827 193.724 37.3634 193.414 37.0353L192.703 36.297C192.32 36.7345 191.983 37.0808 191.691 37.336C191.418 37.5913 191.072 37.8373 190.652 38.0743C189.868 38.5301 189.212 38.7579 188.684 38.7579C188.556 38.7579 188.492 38.7123 188.492 38.6212C188.492 38.5665 188.665 38.448 189.012 38.2657C189.358 38.0834 189.686 37.8647 189.996 37.6095C190.78 36.9532 191.427 36.2788 191.938 35.586C191.828 35.4767 191.281 35.0027 190.297 34.1642C190.169 34.073 189.978 33.9181 189.723 33.6993C189.668 33.6629 189.559 33.5808 189.395 33.4532C189.23 33.3256 189.148 33.2345 189.148 33.1798C189.148 33.0887 189.194 33.0431 189.285 33.0431C189.559 33.0431 189.996 33.2345 190.598 33.6173C191.199 33.9819 191.828 34.4194 192.484 34.9298C192.74 34.6199 192.94 34.3282 193.086 34.0548C193.232 33.7814 193.396 33.4441 193.578 33.0431C193.669 32.8426 193.724 32.6694 193.742 32.5235C193.76 32.3595 193.77 32.2592 193.77 32.2228C193.77 32.0222 193.824 31.922 193.934 31.922C194.061 31.922 194.234 32.0222 194.453 32.2228C194.836 32.5873 195.027 32.8334 195.027 32.961C195.027 33.034 194.982 33.116 194.891 33.2071C194.672 33.4259 194.471 33.7176 194.289 34.0821C194.18 34.3009 193.979 34.6108 193.688 35.0118C193.596 35.1212 193.523 35.2215 193.469 35.3126C193.414 35.4038 193.359 35.4858 193.305 35.5587C193.724 35.8686 194.344 36.3972 195.164 37.1446C195.365 37.3269 195.492 37.5001 195.547 37.6642C195.62 37.81 195.656 38.0105 195.656 38.2657C195.656 38.448 195.611 38.603 195.52 38.7306C195.428 38.84 195.31 38.8946 195.164 38.8946ZM200.742 27.0821C200.961 27.0821 201.07 27.1824 201.07 27.3829C201.07 27.4923 200.97 27.6472 200.77 27.8478C200.223 28.5222 199.138 29.8074 197.516 31.7032C197.388 31.8673 197.27 31.9493 197.16 31.9493C197.069 31.9493 196.868 31.8126 196.559 31.5392C196.303 31.3204 196.176 31.1381 196.176 30.9923C196.176 30.8282 196.312 30.6733 196.586 30.5275C197.005 30.2905 197.634 29.8165 198.473 29.1056C199.311 28.3582 199.931 27.7657 200.332 27.3282C200.496 27.1642 200.633 27.0821 200.742 27.0821ZM167.574 37.1173C167.611 36.2241 167.638 35.5314 167.656 35.0392V34.6017C167.656 34.3282 167.647 34.1277 167.629 34.0001L167.52 33.6173C166.717 34.3465 166.116 34.8478 165.715 35.1212C165.314 35.4129 164.876 35.6863 164.402 35.9415C163.928 36.215 163.482 36.4337 163.062 36.5978L162.352 36.6798L163.172 35.9962C163.555 35.6681 164.147 35.103 164.949 34.3009C165.788 33.4988 166.408 32.8152 166.809 32.2501C167.228 31.685 167.556 31.2019 167.793 30.8009C168.012 30.4181 168.203 30.0991 168.367 29.8439C168.513 29.5704 168.613 29.3517 168.668 29.1876C168.723 29.0053 168.759 28.8321 168.777 28.6681C168.814 28.4858 168.832 28.3035 168.832 28.1212L169.023 27.7931C169.188 27.7931 169.352 27.8113 169.516 27.8478C169.68 27.8842 169.953 28.0209 170.336 28.2579C170.719 28.4767 170.974 28.6863 171.102 28.8868L171.293 29.215C171.257 29.3426 171.202 29.4519 171.129 29.5431L170.691 29.9806L170.035 30.8009L168.34 32.879L168.941 33.3165L169.215 33.59L169.297 33.8907C169.279 34.0001 169.233 34.1459 169.16 34.3282C169.087 34.5105 169.051 34.7019 169.051 34.9025L168.941 38.1564L168.996 40.2618C168.96 40.4259 168.896 40.6902 168.805 41.0548C168.695 41.4194 168.595 41.6655 168.504 41.7931L168.203 42.0392C168.076 42.0392 167.93 41.9207 167.766 41.6837C167.602 41.5014 167.456 41.2644 167.328 40.9728C167.201 40.6446 167.109 40.3712 167.055 40.1525L167 39.879V39.6056L167.191 39.0587C167.319 38.7488 167.401 38.4571 167.438 38.1837L167.574 37.1173ZM169.215 22.7071L173.152 21.6954C173.335 21.6772 173.572 21.7319 173.863 21.8595C174.191 21.9871 174.428 22.215 174.574 22.5431L174.438 22.7345C174.346 22.8074 174.164 22.8712 173.891 22.9259L172.824 23.172L171.211 23.4181L170.199 23.6095C169.962 23.6459 169.698 23.6642 169.406 23.6642L168.668 23.5548L168.012 24.5118C167.775 24.84 167.465 25.2045 167.082 25.6056C166.681 26.0066 166.326 26.3347 166.016 26.59C165.706 26.8634 165.368 27.1368 165.004 27.4103L164.32 27.9025L164.047 27.711L164.758 26.8087C165.086 26.4259 165.469 25.9246 165.906 25.3048C166.326 24.7032 166.663 24.1655 166.918 23.6915C167.173 23.2176 167.383 22.7801 167.547 22.379L167.984 21.2032C168.112 20.8569 168.203 20.5561 168.258 20.3009C168.312 20.0457 168.34 19.8269 168.34 19.6446L168.559 19.2071C168.759 19.1707 168.987 19.2345 169.242 19.3985C169.516 19.5626 169.762 19.7176 169.98 19.8634C170.199 20.0092 170.345 20.1551 170.418 20.3009L170.5 20.5743L170.445 20.7931L169.926 21.504L169.215 22.7071ZM169.434 24.5118H169.652C169.835 24.5301 170.181 24.6121 170.691 24.7579C171.202 24.922 171.557 25.0769 171.758 25.2228C171.94 25.4051 172.049 25.6694 172.086 26.0157C172.104 26.2345 172.068 26.435 171.977 26.6173C171.885 26.8543 171.658 27.0275 171.293 27.1368C171.038 27.0821 170.783 26.909 170.527 26.6173C170.272 26.3074 170.008 25.9519 169.734 25.5509L169.352 24.8946L169.434 24.5118ZM178.621 30.6095L178.539 29.6251C178.484 29.0965 178.439 28.741 178.402 28.5587C178.366 28.3764 178.293 28.1577 178.184 27.9025L178.047 27.3556L178.238 27.0548C178.402 27.0366 178.658 27.0548 179.004 27.1095C179.332 27.1642 179.66 27.2735 179.988 27.4376L180.508 27.7384L180.535 28.0939L180.48 28.504L180.371 29.1056L180.234 30.254L182.75 29.7892C183.06 29.7345 183.288 29.7071 183.434 29.7071C183.579 29.7071 183.743 29.7163 183.926 29.7345C184.108 29.7709 184.345 29.8439 184.637 29.9532L185.266 30.254C185.539 30.3816 185.73 30.6004 185.84 30.9103C185.822 31.0561 185.749 31.1564 185.621 31.211C185.512 31.284 185.092 31.3387 184.363 31.3751L180.234 31.5939L180.316 37.965C180.316 39.241 180.262 40.1616 180.152 40.7267C180.043 41.2918 179.833 41.7748 179.523 42.1759C179.232 42.5769 178.867 42.8048 178.43 42.8595C178.266 42.8413 178.138 42.7775 178.047 42.6681L177.199 41.5743C176.816 41.1186 176.306 40.6446 175.668 40.1525L175.066 39.3321L175.285 39.3048L176.434 39.6603L177.418 39.879C177.637 39.9337 177.846 39.961 178.047 39.961C178.211 39.8699 178.329 39.6967 178.402 39.4415C178.475 39.1681 178.548 38.6577 178.621 37.9103C178.658 37.1811 178.676 36.4428 178.676 35.6954V31.7853L175.121 32.4415C174.447 32.5509 173.863 32.6785 173.371 32.8243L172.223 33.0978C172.04 33.0978 171.822 33.0431 171.566 32.9337C171.329 32.8426 171.083 32.7423 170.828 32.6329C170.591 32.5053 170.454 32.3048 170.418 32.0314L170.855 31.8673L173.59 31.4845C174.665 31.3387 175.887 31.129 177.254 30.8556L178.621 30.6095ZM172.168 33.6993H172.578C172.76 33.7358 172.952 33.7722 173.152 33.8087C173.353 33.8634 173.59 33.9363 173.863 34.0275C174.118 34.1368 174.355 34.2644 174.574 34.4103C174.793 34.5561 174.975 34.7293 175.121 34.9298C175.249 35.1303 175.322 35.422 175.34 35.8048C175.34 36.1694 175.258 36.461 175.094 36.6798C174.93 36.8985 174.757 37.017 174.574 37.0353C174.428 37.0353 174.219 36.9623 173.945 36.8165C173.672 36.6707 173.335 36.2332 172.934 35.504C172.533 34.7748 172.286 34.3556 172.195 34.2462L172.004 34.0001L172.168 33.6993ZM177.883 22.1876C178.667 21.9871 179.314 21.8139 179.824 21.6681C180.335 21.5222 180.772 21.3855 181.137 21.2579L182.039 20.9845C182.276 20.9663 182.504 20.9936 182.723 21.0665C182.941 21.1394 183.16 21.2488 183.379 21.3946L183.707 21.6954C183.689 21.8595 183.561 22.0144 183.324 22.1603C183.105 22.3061 182.741 22.4246 182.23 22.5157L180.043 22.9806C179.423 23.09 178.986 23.1538 178.73 23.172L177.965 23.254L177.363 23.172L176.488 24.3478C176.27 24.6394 175.932 25.0222 175.477 25.4962C175.039 25.9337 174.611 26.3074 174.191 26.6173L173.645 27.0275L173.316 26.8907L173.809 26.2618C174.064 25.8972 174.383 25.4051 174.766 24.7853C175.148 24.1472 175.467 23.5639 175.723 23.0353C175.978 22.5248 176.197 22.0144 176.379 21.504C176.543 20.9936 176.671 20.5379 176.762 20.1368C176.871 19.6993 176.935 19.4168 176.953 19.2892C176.971 19.1433 176.98 18.9975 176.98 18.8517L177.172 18.5235C177.445 18.5053 177.701 18.5691 177.938 18.715L178.594 19.1798C178.776 19.3256 178.913 19.4715 179.004 19.6173L179.113 20.0821C179.077 20.228 179.004 20.3738 178.895 20.5196L178.566 20.9845L177.883 22.1876ZM178.566 23.965L179.086 24.047C179.286 24.1017 179.651 24.211 180.18 24.3751C180.708 24.5574 181.055 24.7306 181.219 24.8946C181.383 25.0405 181.52 25.2228 181.629 25.4415C181.702 25.6238 181.747 25.8334 181.766 26.0704C181.766 26.3074 181.729 26.5079 181.656 26.672C181.602 26.7996 181.438 26.9454 181.164 27.1095C181 27.1277 180.818 27.0913 180.617 27.0001C180.344 26.8725 180.061 26.6629 179.77 26.3712C179.496 26.0613 179.241 25.7332 179.004 25.3868C178.767 25.0587 178.621 24.5847 178.566 23.965Z" fill="#333333"/>
<path d="M230.273 29.5157C230.255 29.5157 230.191 29.534 230.082 29.5704C229.991 29.5887 229.945 29.5613 229.945 29.4884C229.945 29.4702 229.982 29.4337 230.055 29.379C230.128 29.3061 230.191 29.2423 230.246 29.1876C230.301 29.1329 230.383 29.06 230.492 28.9689C230.602 28.8595 230.684 28.7501 230.738 28.6407C231.012 28.185 231.203 27.7293 231.312 27.2735L231.477 26.3165C231.604 25.6056 231.659 24.7762 231.641 23.8282C231.641 23.6095 231.613 23.3816 231.559 23.1446C231.54 23.0353 231.449 22.8803 231.285 22.6798V22.6525C231.285 22.616 231.331 22.5978 231.422 22.5978C231.549 22.5978 231.659 22.6069 231.75 22.6251C231.987 22.6798 232.251 22.7071 232.543 22.7071C232.853 22.6889 233.044 22.6798 233.117 22.6798L234.949 22.5431C235.314 22.5066 235.551 22.4884 235.66 22.4884C236.444 22.379 236.799 22.3334 236.727 22.3517C237.146 22.2788 237.401 22.2423 237.492 22.2423C237.784 22.2605 238.076 22.4884 238.367 22.9259L238.422 23.0626C238.422 23.172 238.34 23.2358 238.176 23.254C238.012 23.2722 237.911 23.2814 237.875 23.2814C237.31 23.2814 236.891 23.2905 236.617 23.3087C235.924 23.3087 235.414 23.3178 235.086 23.336L234.32 23.3907L232.762 23.5548C232.652 25.086 232.552 26.0887 232.461 26.5626C232.315 27.4194 232.033 28.1121 231.613 28.6407C231.303 29.0418 230.857 29.3334 230.273 29.5157ZM237.164 37.6642C237.201 37.7371 237.264 37.8465 237.355 37.9923C237.447 38.1381 237.492 38.3113 237.492 38.5118C237.492 38.6941 237.419 38.84 237.273 38.9493C237.128 39.0769 236.964 39.1407 236.781 39.1407C236.617 39.1407 236.48 38.9767 236.371 38.6485C236.316 38.5209 236.271 38.4207 236.234 38.3478C236.216 38.2566 236.198 38.1837 236.18 38.129C235.943 38.2019 235.633 38.2657 235.25 38.3204C234.867 38.3751 234.594 38.4207 234.43 38.4571C233.555 38.6212 232.953 38.7397 232.625 38.8126C232.497 38.8491 232.361 38.8946 232.215 38.9493C232.069 38.9858 231.987 39.0131 231.969 39.0314C231.859 39.0678 231.777 39.086 231.723 39.086C231.577 39.086 231.44 39.0222 231.312 38.8946C231.094 38.7306 230.93 38.5118 230.82 38.2384C230.802 38.2202 230.793 38.1928 230.793 38.1564C230.793 38.1199 230.839 38.0743 230.93 38.0196C231.039 37.965 231.121 37.9285 231.176 37.9103C231.413 37.7827 231.832 37.3998 232.434 36.7618L233.172 36.0509L231.559 35.1759C231.376 35.1212 231.258 35.0574 231.203 34.9845C231.148 34.9116 231.121 34.8022 231.121 34.6564C231.121 34.547 231.139 34.4741 231.176 34.4376C231.23 34.3829 231.34 34.3009 231.504 34.1915C231.668 34.0821 231.832 33.9363 231.996 33.754C232.087 33.6446 232.206 33.5262 232.352 33.3985C232.497 33.2709 232.634 33.1342 232.762 32.9884C233.309 32.3504 233.655 31.8491 233.801 31.4845C233.892 31.3022 233.965 31.211 234.02 31.211C234.056 31.211 234.129 31.2475 234.238 31.3204C234.585 31.5756 234.794 31.8126 234.867 32.0314V32.1134C234.867 32.2045 234.822 32.2775 234.73 32.3321C234.639 32.3868 234.576 32.4324 234.539 32.4689C234.484 32.5053 234.211 32.7696 233.719 33.2618L233.227 33.754C233.135 33.8452 232.98 34.0001 232.762 34.2189C232.543 34.4194 232.434 34.5379 232.434 34.5743C232.434 34.629 232.461 34.6746 232.516 34.711C232.589 34.7475 232.643 34.784 232.68 34.8204L233.828 35.3673C234.539 34.6564 234.949 34.2371 235.059 34.1095C235.533 33.5626 235.797 33.2163 235.852 33.0704C235.87 33.0522 235.897 33.0066 235.934 32.9337C235.97 32.8608 236.007 32.8243 236.043 32.8243C236.098 32.8243 236.152 32.8517 236.207 32.9064C236.499 33.1798 236.708 33.435 236.836 33.672C236.872 33.7449 236.891 33.7905 236.891 33.8087C236.891 33.8452 236.845 33.8998 236.754 33.9728C236.681 34.0275 236.608 34.0821 236.535 34.1368C235.897 34.6655 235.15 35.3582 234.293 36.215L232.625 37.7735C232.589 37.81 232.57 37.8465 232.57 37.8829C232.57 37.9194 232.589 37.9467 232.625 37.965C232.661 37.9832 232.716 37.9832 232.789 37.965L235.988 37.4181C235.897 37.0535 235.788 36.6889 235.66 36.3243V36.2696C235.66 36.215 235.688 36.1876 235.742 36.1876C235.815 36.1876 235.924 36.2423 236.07 36.3517C236.362 36.6069 236.727 37.0444 237.164 37.6642ZM239.242 29.2696C239.333 29.2696 239.47 29.3334 239.652 29.461C239.634 29.4975 239.671 29.5704 239.762 29.6798C239.853 29.7709 239.917 29.8347 239.953 29.8712C240.044 29.9623 240.135 30.0717 240.227 30.1993C240.336 30.3269 240.454 30.4637 240.582 30.6095C240.91 30.9558 241.667 31.8582 242.852 33.3165C243.052 33.6082 243.152 33.7814 243.152 33.836C243.152 34.0183 243.043 34.1095 242.824 34.1095C242.697 34.1095 242.56 34.0183 242.414 33.836C242.068 33.4715 241.448 32.8972 240.555 32.1134C239.862 31.4754 239.233 30.9832 238.668 30.6368C238.395 30.5092 238.258 30.3634 238.258 30.1993C238.258 30.0717 238.395 29.8894 238.668 29.6525C238.923 29.3972 239.115 29.2696 239.242 29.2696ZM217.121 26.2618L214.742 26.6446C214.888 26.6993 215.016 26.7722 215.125 26.8634C215.216 26.9363 215.234 27.1095 215.18 27.3829C215.052 27.6199 214.97 27.7931 214.934 27.9025C214.897 28.0118 214.87 28.2032 214.852 28.4767L214.77 29.297L214.66 31.0196C214.624 31.4207 214.514 32.1407 214.332 33.1798C214.15 34.2189 214.004 34.9663 213.895 35.422C213.785 35.8777 213.594 36.4428 213.32 37.1173C213.047 37.7918 212.764 38.366 212.473 38.84C212.181 39.3139 211.871 39.7332 211.543 40.0978C211.215 40.4623 210.941 40.7267 210.723 40.8907L209.957 41.4103L209.656 41.2189L210.285 40.5079C210.577 40.2345 210.868 39.797 211.16 39.1954C211.488 38.5939 211.743 38.047 211.926 37.5548C212.145 37.0626 212.345 36.4246 212.527 35.6407C212.71 34.8569 212.855 33.9728 212.965 32.9884C213.074 31.9858 213.129 31.1837 213.129 30.5821C213.147 30.1993 213.156 29.8256 213.156 29.461V28.9415L213.102 27.9845C213.083 27.6746 213.038 27.4467 212.965 27.3009L212.801 26.8634L212.336 26.59L212.145 26.2345L212.309 26.0157L212.965 25.9337L214.469 25.7696L215.617 25.5782L217.094 25.3868L217.668 25.3048L217.395 21.2306C217.376 20.866 217.34 20.6108 217.285 20.465C217.249 20.3191 217.203 20.1915 217.148 20.0821L216.875 19.6173L216.957 19.2892L217.203 19.1525C217.349 19.1525 217.586 19.1798 217.914 19.2345C218.242 19.2892 218.479 19.3347 218.625 19.3712C218.771 19.4077 218.908 19.4715 219.035 19.5626L219.227 20.0275C219.135 20.3191 219.09 20.6108 219.09 20.9025L219.035 22.461L221.387 21.7228L222.262 21.3673C222.371 21.3308 222.49 21.3126 222.617 21.3126C222.745 21.3126 222.872 21.34 223 21.3946L223.41 21.504L223.793 22.0782C223.592 22.2423 223.419 22.3426 223.273 22.379L221.824 22.7618L221.031 22.9259L220.047 23.1446H219.637L219.035 23.09L218.98 25.1134L221.797 24.6759L222.645 24.4845C223.082 24.3933 223.383 24.3113 223.547 24.2384L223.793 24.1837C223.939 24.1655 224.212 24.2384 224.613 24.4025L225.27 24.6212L225.762 24.8673C226.199 25.1043 226.482 25.323 226.609 25.5235L226.719 25.9337C226.664 26.0795 226.509 26.2071 226.254 26.3165C225.999 26.3894 225.643 26.5444 225.188 26.7814C224.732 27.0183 224.449 27.1551 224.34 27.1915L223.164 27.6017L223.793 26.2618L223.984 25.7696C223.966 25.6238 223.848 25.5053 223.629 25.4142C223.41 25.3959 223.201 25.3959 223 25.4142L221.059 25.6876L219.199 25.9884L218.57 26.0704C218.88 26.1616 219.035 26.4077 219.035 26.8087C218.962 26.9545 218.898 27.0913 218.844 27.2189C218.789 27.3465 218.753 27.5288 218.734 27.7657L218.652 28.34L219.855 28.0118L220.375 27.8478L220.895 27.6837C221.022 27.6655 221.195 27.6655 221.414 27.6837L222.016 27.7657C222.362 27.8204 222.581 27.8842 222.672 27.9571L222.727 28.2853C222.617 28.3764 222.371 28.4676 221.988 28.5587L221.496 28.6681L220.293 28.9689L218.57 29.3243C218.57 29.5431 218.561 29.7618 218.543 29.9806V30.3907C218.579 30.6824 218.68 30.9103 218.844 31.0743C218.99 31.2202 219.327 31.2931 219.855 31.2931C220.311 31.2931 220.721 31.2566 221.086 31.1837C221.451 31.1108 221.806 30.9832 222.152 30.8009C222.499 30.6551 222.736 30.5639 222.863 30.5275C223.046 30.5275 223.228 30.5548 223.41 30.6095C223.592 30.6824 223.775 30.7735 223.957 30.8829C224.139 31.0105 224.285 31.1837 224.395 31.4025V31.5939C224.358 31.7579 224.221 31.8855 223.984 31.9767C223.747 32.086 223.419 32.1954 223 32.3048C222.581 32.3959 222.171 32.4597 221.77 32.4962C221.605 32.5144 221.414 32.5235 221.195 32.5235C220.977 32.5235 220.73 32.5144 220.457 32.4962C219.91 32.4597 219.491 32.4142 219.199 32.3595C218.908 32.3048 218.652 32.2137 218.434 32.086C218.197 31.9584 217.996 31.7944 217.832 31.5939C217.686 31.3933 217.577 31.1472 217.504 30.8556L217.395 30.3907V29.5978L216.766 29.7071C216.638 29.7071 216.483 29.7163 216.301 29.7345H215.891C215.763 29.7163 215.626 29.6889 215.48 29.6525L215.152 29.5157L214.961 29.297C214.961 29.1329 215.034 29.0327 215.18 28.9962L215.645 28.9415L216.492 28.7775L217.395 28.5587V27.711C217.395 27.4376 217.331 27.0457 217.203 26.5353L217.121 26.2618ZM207.824 29.379C208.043 29.5613 208.216 29.7163 208.344 29.8439L208.48 30.3087C208.408 30.4363 208.298 30.5821 208.152 30.7462C208.007 30.9285 207.861 31.129 207.715 31.3478C207.569 31.5847 207.414 31.8126 207.25 32.0314V32.4689C207.451 32.4871 207.77 32.4689 208.207 32.4142C208.645 32.3413 208.982 32.2775 209.219 32.2228L209.656 32.1407C209.82 32.159 210.012 32.2228 210.23 32.3321C210.449 32.4415 210.632 32.56 210.777 32.6876L211.242 33.0431L211.488 33.3985L211.461 33.6446L211.242 33.9728C211.096 34.1551 210.96 34.5014 210.832 35.0118L210.395 37.0353C210.176 37.892 209.975 38.5665 209.793 39.0587C209.611 39.5509 209.355 39.9975 209.027 40.3985C208.681 40.7996 208.335 41.0821 207.988 41.2462C207.624 41.4285 207.323 41.5288 207.086 41.547C206.922 41.5288 206.794 41.4741 206.703 41.3829C206.612 41.2918 206.503 41.1004 206.375 40.8087C206.247 40.517 206.111 40.2436 205.965 39.9884L205.582 39.3321L205.363 38.9493L205.445 38.7032L205.91 38.9493L206.512 39.3595L206.785 39.5782C206.931 39.5965 207.077 39.6056 207.223 39.6056C207.387 39.5691 207.56 39.4871 207.742 39.3595C207.924 39.2137 208.116 38.9584 208.316 38.5939C208.535 38.211 208.708 37.8738 208.836 37.5821C208.964 37.2905 209.118 36.7801 209.301 36.0509C209.483 35.3217 209.583 34.6928 209.602 34.1642L209.574 33.59C209.52 33.4441 209.438 33.3347 209.328 33.2618C209.237 33.1889 209.046 33.1525 208.754 33.1525C208.389 33.1707 208.089 33.198 207.852 33.2345C207.615 33.2892 207.423 33.3439 207.277 33.3985C207.095 33.4532 206.895 33.5717 206.676 33.754L205.965 34.0275L205.746 33.8907C205.673 33.7996 205.6 33.6811 205.527 33.5353L205.418 33.2345C205.418 33.0887 205.491 32.9246 205.637 32.7423L206.156 32.1681C206.32 31.9493 206.466 31.6941 206.594 31.4025C206.703 31.129 206.776 30.9012 206.812 30.7189C206.867 30.5548 206.895 30.3452 206.895 30.09L206.785 29.7071L205.473 29.6525L204.926 29.6798C204.707 29.6798 204.516 29.6707 204.352 29.6525C204.133 29.5978 203.941 29.534 203.777 29.461L203.477 29.0235L203.832 28.8868L204.324 28.8048L205.992 28.5587C206.521 28.4858 207.04 28.4038 207.551 28.3126L209.164 27.9571C209.547 27.8842 209.866 27.8113 210.121 27.7384L210.531 27.6017C210.714 27.5834 210.923 27.6108 211.16 27.6837C211.397 27.7566 211.579 27.8204 211.707 27.8751L211.98 28.0118L212.172 28.4493C212.135 28.5587 212.035 28.6316 211.871 28.6681L210.996 28.8321C210.449 28.9597 209.848 29.0691 209.191 29.1603L207.824 29.379ZM207.031 21.8048C207.596 21.7319 208.025 21.659 208.316 21.586C208.608 21.5314 208.9 21.4493 209.191 21.34C209.483 21.2306 209.766 21.1121 210.039 20.9845C210.312 20.8569 210.531 20.7931 210.695 20.7931L211.27 21.0118C211.616 21.1212 211.862 21.2215 212.008 21.3126C212.135 21.4038 212.254 21.5131 212.363 21.6407L212.5 21.9415C212.482 22.0509 212.427 22.1603 212.336 22.2696C212.227 22.379 212.099 22.5431 211.953 22.7618L211.734 23.1173L211.078 25.1681L211.324 25.879L210.504 25.961C210.285 25.9793 209.902 26.034 209.355 26.1251C208.809 26.2163 208.444 26.2618 208.262 26.2618L207.523 26.2892L207.414 26.672L207.305 26.9454L206.977 27.0275C206.812 26.8998 206.694 26.7631 206.621 26.6173C206.548 26.4897 206.493 26.2892 206.457 26.0157L206.074 23.4181C206.038 23.1264 205.983 22.8894 205.91 22.7071L205.719 22.3243C205.628 22.1603 205.527 22.0327 205.418 21.9415L205.227 21.586L205.5 21.422L207.031 21.8048ZM207.551 25.5509L209.93 25.1134L210.23 23.0353L210.312 22.4337L210.258 22.1876C210.185 22.0965 210.076 22.0509 209.93 22.0509C209.802 22.0509 209.638 22.0691 209.438 22.1056L208.562 22.2696L207.25 22.5431L207.551 25.5509ZM221.332 35.9962L221.223 38.2657V39.0587C221.223 39.4597 221.259 39.7241 221.332 39.8517C221.441 40.0887 221.66 40.2709 221.988 40.3985C222.28 40.5262 222.672 40.6173 223.164 40.672C223.456 40.7084 223.702 40.7267 223.902 40.7267C224.03 40.7267 224.148 40.7176 224.258 40.6993C224.786 40.6629 225.206 40.5353 225.516 40.3165C225.826 40.0613 226.017 39.8426 226.09 39.6603C226.163 39.4415 226.236 39.1681 226.309 38.84L226.5 37.6915L226.609 37.09L226.801 36.4337L227.074 36.9532L227.402 37.965L227.648 38.6759L228.059 39.2775L228.359 39.797C228.523 40.034 228.615 40.2345 228.633 40.3985C228.633 40.5444 228.514 40.7358 228.277 40.9728C228.059 41.228 227.73 41.4741 227.293 41.711C226.855 41.9663 226.382 42.1485 225.871 42.2579C225.361 42.3673 224.905 42.4311 224.504 42.4493C224.23 42.4858 223.966 42.504 223.711 42.504C223.383 42.504 223.064 42.4767 222.754 42.422C222.207 42.3491 221.715 42.1941 221.277 41.9571C220.84 41.7384 220.53 41.4832 220.348 41.1915C220.165 40.8998 220.038 40.5717 219.965 40.2071C219.91 39.9519 219.883 39.6694 219.883 39.3595C219.883 39.1954 219.892 39.0314 219.91 38.8673L219.965 35.9962V35.6134C219.965 35.0118 219.928 34.6017 219.855 34.3829L219.746 33.9181L219.828 33.672C219.938 33.6173 220.074 33.5991 220.238 33.6173L220.84 33.8087C221.241 33.9545 221.487 34.0639 221.578 34.1368L221.66 34.547C221.587 34.7475 221.514 34.9754 221.441 35.2306C221.368 35.4676 221.332 35.7228 221.332 35.9962ZM213.129 41.8751L212.363 41.9025C212.345 41.7931 212.4 41.7019 212.527 41.629L212.855 41.465C213.001 41.4103 213.211 41.2644 213.484 41.0275C213.758 40.7905 213.967 40.5991 214.113 40.4532C214.259 40.3256 214.46 40.0887 214.715 39.7423C214.97 39.3959 215.143 39.1225 215.234 38.922C215.344 38.7215 215.471 38.4207 215.617 38.0196C215.781 37.6186 215.891 37.2996 215.945 37.0626C216 36.8256 216.055 36.4884 216.109 36.0509C216.164 35.6134 216.191 35.3035 216.191 35.1212L216.137 34.5743C216.1 34.3738 216.055 34.2006 216 34.0548V33.6446L216.164 33.5353C216.292 33.5353 216.447 33.5717 216.629 33.6446L217.258 33.8634C217.531 33.9545 217.723 34.0639 217.832 34.1915L218.051 34.465C218.033 34.5926 217.978 34.7384 217.887 34.9025C217.777 35.0847 217.695 35.2579 217.641 35.422C217.586 35.586 217.54 35.7592 217.504 35.9415L217.312 36.8439C217.221 37.1538 217.103 37.5366 216.957 37.9923C216.811 38.448 216.602 38.8946 216.328 39.3321C216.055 39.7696 215.763 40.1616 215.453 40.5079C215.143 40.836 214.842 41.0913 214.551 41.2735C214.259 41.4376 214.004 41.5652 213.785 41.6564C213.566 41.7475 213.348 41.8204 213.129 41.8751Z" fill="#333333"/>
</svg>
