<svg xmlns="http://www.w3.org/2000/svg" width="340" height="60" fill="none"><path fill="#333" d="M115.23 27.355c-.273 0-.519-.109-.738-.328-.273-.2-.41-.355-.41-.465 0-.127.21-.19.629-.19l1.34-.083 1.367-.137c.036-.291.055-.847.055-1.668.054 0-.228.037-.848.11l-.52.082c-.164.073-.309.11-.437.11a.37.37 0 0 1-.273-.11c-.292-.255-.438-.474-.438-.656v-1.286c0-.127-.046-.62-.137-1.476l-.027-.301c0-.146.027-.237.082-.273.055-.037.155-.037.301 0 .547.145.811.31.793.492l-.028.191a7.294 7.294 0 0 0-.054.985c0 .474.009.774.027.902.037.364.055.538.055.52.018.072.082.109.191.109.11 0 .328-.027.656-.082.347-.073.575-.119.684-.137v-2.406c0-.675-.027-1.13-.082-1.367a4.378 4.378 0 0 1-.055-.301c0-.128.046-.192.137-.192.036 0 .164.037.383.11.346.164.574.31.683.437.128.128.174.265.137.41-.055.183-.091.547-.109 1.094a52.001 52.001 0 0 0-.11 2.133l.93-.027c.182 0 .319-.01.41-.028.091-.018.137-.054.137-.109.128-.693.21-1.294.246-1.805l.027-.328c.019-.036.019-.1 0-.191v-.192l-.027-.191c0-.164.064-.246.191-.246.073 0 .228.073.465.219.055.036.128.09.219.164a.467.467 0 0 1 .219.191.393.393 0 0 1 .054.219c0 .11-.009.2-.027.273l-.301 1.532-.082.628c-.073.42-.291.648-.656.684a.974.974 0 0 1-.273-.082.269.269 0 0 0-.137-.055c-.219 0-.675.046-1.367.137l-.028 1.695.465-.027.438-.027c.674 0 1.175-.037 1.504-.11.145 0 .273-.018.382-.054l.082-.028c.183 0 .374.128.575.383.237.237.355.41.355.52 0 .164-.255.218-.765.164l-1.04-.055h-1.367c-.273 0-.774.036-1.504.11-.382 0-.729.017-1.039.054-.31.037-.601.1-.875.191l-.465.165Zm5.934 7.165c-.273 0-.538-.201-.793-.602a8.639 8.639 0 0 0-.957-1.258l-.711-.738c-.383.437-.72.784-1.012 1.039a5.413 5.413 0 0 1-1.039.738c-.784.456-1.44.684-1.968.684-.128 0-.192-.046-.192-.137 0-.055.173-.173.52-.355.346-.183.674-.401.984-.657.784-.656 1.431-1.33 1.942-2.023-.11-.11-.657-.583-1.641-1.422a9.152 9.152 0 0 1-.574-.465 6.941 6.941 0 0 1-.328-.246c-.165-.127-.247-.219-.247-.273 0-.091.046-.137.137-.137.274 0 .711.191 1.313.574.601.365 1.23.802 1.886 1.313.256-.31.456-.602.602-.875.146-.274.31-.611.492-1.012.091-.2.146-.374.164-.52.018-.164.028-.264.028-.3 0-.2.054-.301.164-.301.127 0 .3.1.519.3.383.365.574.611.574.739 0 .073-.045.155-.136.246-.219.219-.42.51-.602.875-.109.219-.31.529-.601.93-.092.11-.165.21-.219.3-.055.092-.11.174-.164.247.419.31 1.039.838 1.859 1.585.201.183.328.356.383.52.073.146.109.346.109.602a.78.78 0 0 1-.136.465.443.443 0 0 1-.356.163Zm-6.043 8.175c-.273 0-.483-.073-.629-.218-.164-.164-.246-.31-.246-.438s.073-.264.219-.41c.018-.018.118-.164.301-.438a34.91 34.91 0 0 0 1.367-2.433c.528-1.003.857-1.686.984-2.051.11-.346.21-.647.301-.902.109-.255.2-.383.273-.383a.45.45 0 0 1 .329.137c.091.073.182.182.273.328.109.127.191.218.246.273.128.146.191.283.191.41a.437.437 0 0 1-.109.274 1.436 1.436 0 0 0-.137.191l-1.203 2.024c-.31.565-.72 1.267-1.23 2.105a.438.438 0 0 0-.11.273c0 .073.082.11.247.11.346 0 .993-.046 1.941-.137.948-.073 1.586-.137 1.914-.191.474-.055.802-.11.984-.164.201-.055.493.082.875.41.456.383.556.629.301.738-.146.073-.428.11-.848.11h-1.093c-.237 0-.611.018-1.121.054-.31 0-.657.01-1.039.028a42.09 42.09 0 0 0-.957.054c-.292.018-.857.073-1.696.164l-.328.082Zm-14.766.739c0 .455-.182.683-.546.683-.274 0-.575-.1-.903-.3-.328-.183-.492-.456-.492-.82l.027-.192c.092-.584.137-1.149.137-1.696l.028-7.054-5.962.246.083.82v.082c0 .346-.174.52-.52.52-.292 0-.592-.091-.902-.274-.31-.182-.465-.446-.465-.793v-.218c.036-.402.054-.666.054-.794 0-.182-.018-.437-.054-.765l-.492-5.961c-.055-.602-.21-1.112-.465-1.531-.146-.237-.219-.41-.219-.52 0-.146.1-.219.3-.219.329 0 .967.192 1.915.575l6.781-.41.028-4.704c0-.419-.1-.81-.301-1.175a.725.725 0 0 1-.11-.356c0-.146.119-.219.356-.219.11 0 .31.037.601.11.31.054.593.164.848.328.273.164.41.383.41.656l-.027 5.25 7.383-.437c.164-.019.364-.028.601-.028.328 0 .593.073.793.219.201.146.337.31.41.492.091.164.137.292.137.383 0 .11-.046.246-.137.41-.073.164-.109.283-.109.356l-.766 5.906c.511.583.766.993.766 1.23 0 .146-.073.246-.219.301a4.24 4.24 0 0 1-.711.082l-8.203.356-.055 9.46Zm-7.82-10.692 6.098-.273.027-6.043-6.644.383.52 5.933Zm14.547-.656.656-6.18-7.273.41-.055 6.07 6.672-.3ZM156.273 26.781c-.018 0-.082.018-.191.055-.091.018-.137-.01-.137-.082 0-.018.037-.055.11-.11l.191-.19c.055-.056.137-.128.246-.22.11-.109.192-.218.246-.328a4.84 4.84 0 0 0 .574-1.367l.165-.957c.127-.71.182-1.54.164-2.488 0-.219-.028-.447-.082-.684-.019-.11-.11-.264-.274-.465v-.027c0-.037.046-.055.137-.055.127 0 .237.01.328.028.237.054.501.082.793.082.31-.019.501-.028.574-.028l1.832-.136c.365-.037.602-.055.711-.055.784-.11 1.139-.155 1.067-.137.419-.073.674-.11.765-.11.292.019.584.247.875.684l.055.137c0 .11-.082.173-.246.192a4.129 4.129 0 0 1-.301.027c-.565 0-.984.009-1.258.027-.693 0-1.203.01-1.531.028l-.766.054-1.558.164c-.11 1.532-.21 2.534-.301 3.008-.146.857-.428 1.55-.848 2.078-.31.401-.756.693-1.34.875Zm6.891 7.739c-.273 0-.538-.201-.793-.602a8.639 8.639 0 0 0-.957-1.258l-.711-.738c-.383.437-.72.784-1.012 1.039a5.413 5.413 0 0 1-1.039.738c-.784.456-1.44.684-1.968.684-.128 0-.192-.046-.192-.137 0-.055.173-.173.52-.355.346-.183.674-.401.984-.657.784-.656 1.431-1.33 1.942-2.023-.11-.11-.657-.583-1.641-1.422a9.152 9.152 0 0 1-.574-.465 6.941 6.941 0 0 1-.328-.246c-.165-.127-.247-.219-.247-.273 0-.091.046-.137.137-.137.274 0 .711.191 1.313.574.601.365 1.23.802 1.886 1.313.256-.31.456-.602.602-.875.146-.274.31-.611.492-1.012.091-.2.146-.374.164-.52.018-.164.028-.264.028-.3 0-.2.054-.301.164-.301.127 0 .3.1.519.3.383.365.574.611.574.739 0 .073-.045.155-.136.246-.219.219-.42.51-.602.875-.109.219-.31.529-.601.93-.092.11-.165.21-.219.3-.055.092-.11.174-.164.247.419.31 1.039.838 1.859 1.585.201.183.328.356.383.52.073.146.109.346.109.602a.78.78 0 0 1-.136.465.443.443 0 0 1-.356.163Zm-2.762 8.695c-.127 0-.218-.037-.273-.11a1.814 1.814 0 0 0-.109-.136c-.183-.255-.265-.502-.247-.739.019-.145.046-.537.082-1.175l.028-1.313c-.018-.2-.037-.319-.055-.355-.018-.055-.1-.164-.246-.328a13.727 13.727 0 0 0-1.012-1.121c-.437-.438-.72-.73-.847-.876l-.821-.82c-.054-.054-.082-.11-.082-.164 0-.091.055-.164.164-.219a.591.591 0 0 1 .383-.082c.365.037.602.082.711.137.128.036.246.146.356.328.109.183.264.401.464.656.219.237.383.42.493.547.455.547.774.912.957 1.094.328-.383.738-.93 1.23-1.64.401-.511.638-.93.711-1.258.073-.237.182-.356.328-.356.073 0 .182.046.328.137.474.292.711.529.711.71 0 .11-.118.247-.355.411a3.793 3.793 0 0 0-.821.793l-.546.684c-.365.437-.638.783-.821 1.039-.091.164-.136.4-.136.71v2.762c.018.128-.055.274-.219.438-.146.164-.265.246-.356.246Zm8.34-12.578c.219 0 .328.1.328.3 0 .11-.1.265-.3.465-.547.675-1.632 1.96-3.254 3.856-.128.164-.246.246-.356.246-.091 0-.292-.137-.601-.41-.256-.219-.383-.401-.383-.547 0-.164.136-.32.41-.465.419-.237 1.048-.71 1.887-1.422.838-.747 1.458-1.34 1.859-1.777.164-.164.301-.246.41-.246Zm-29.449-5.688c0 .328-.155.492-.465.492-.237 0-.519-.063-.848-.191-.328-.146-.492-.428-.492-.848 0-.218-.036-.565-.109-1.039l-4.703.274a8.01 8.01 0 0 1-.711.027c-.347 0-.638-.091-.875-.273a1.878 1.878 0 0 1-.492-.602c-.11-.219-.164-.374-.164-.465 0-.11.073-.164.218-.164a.38.38 0 0 1 .164.027c.31.073.638.11.985.11l.492-.027 4.867-.301-.137-.985a1.993 1.993 0 0 0-.574-1.093c-.127-.128-.191-.237-.191-.328 0-.146.182-.22.547-.22.455 0 .847.055 1.175.165.329.091.52.3.575.629l.273 1.695 1.258-.082c.237 0 .392.01.465.027a.453.453 0 0 1 .301.164c.091.092.136.2.136.329 0 .218-.082.373-.246.464-.164.091-.401.155-.711.192a13.924 13.924 0 0 1-1.011.082l.273 1.777v.164Zm-9.461 9.488c0-.145.073-.218.219-.218a.6.6 0 0 1 .191.027c.419.128.93.191 1.531.191l8.832-.3.028-7.082-5.36.273c-.145.018-.319.037-.519.055a6.086 6.086 0 0 1-.602.027c-.364 0-.665-.1-.902-.3a2.208 2.208 0 0 1-.52-.684c-.091-.255-.136-.41-.136-.465 0-.091.054-.137.164-.137.091 0 .164.01.219.028.455.09.811.136 1.066.136l.465-.027 12.441-.602a4.742 4.742 0 0 0 1.477-.3.707.707 0 0 1 .219-.028c.291 0 .619.155.984.465.383.31.574.556.574.738 0 .2-.173.32-.519.356l-7.383.383v7.136l8.23-.328c.365-.018.857-.11 1.477-.273a.38.38 0 0 1 .164-.028c.237 0 .565.174.984.52.42.328.629.602.629.82a.344.344 0 0 1-.164.301.723.723 0 0 1-.41.11l-10.883.382v2.297l4.84-.191c.401-.019.884-.1 1.449-.246a.713.713 0 0 1 .219-.028c.2 0 .419.073.656.22.255.145.474.318.656.519.183.2.274.355.274.464 0 .11-.055.201-.164.274a.914.914 0 0 1-.41.082l-7.52.3v4.048c0 .455-.173.683-.519.683-.292 0-.611-.127-.957-.383-.347-.237-.52-.52-.52-.847 0-.055.018-.173.055-.356a7.477 7.477 0 0 0 .191-1.64v-1.45l-4.785.192-.738.027c-.547 0-.939-.082-1.176-.246a1.83 1.83 0 0 1-.52-.602c-.127-.236-.191-.419-.191-.546 0-.11.055-.164.164-.164.073 0 .137.009.191.027.365.091.784.137 1.258.137h.274l5.523-.22.027-2.296-8.121.273h-.492c-.711 0-1.194-.09-1.449-.273a3.231 3.231 0 0 1-.52-.602c-.127-.237-.191-.446-.191-.629Zm1.203-4.32c0-.127.064-.191.192-.191.072 0 .127.009.164.027.364.091.783.137 1.257.137h.274l2.844-.164-.11-.602c-.073-.437-.182-.756-.328-.957-.109-.146-.164-.246-.164-.3 0-.128.137-.192.41-.192.292 0 .62.037.985.11.364.072.574.227.629.464l.218 1.34 1.422-.055c.237 0 .392.01.465.028.292.054.437.228.437.52 0 .2-.118.373-.355.519-.237.146-.51.237-.82.273l-.903.082.328 1.969a.686.686 0 0 1 .028.219c0 .346-.155.52-.465.52-.201 0-.474-.083-.82-.247-.347-.164-.52-.456-.52-.875 0-.364-.045-.838-.137-1.422l-2.351.137c-.474.037-.802.055-.985.055-.419 0-.756-.1-1.011-.301-.255-.2-.438-.41-.547-.629-.091-.237-.137-.392-.137-.465Zm11.047-8.422c0-.036.027-.073.082-.11a.23.23 0 0 1 .191-.026l.711-.028c.183 0 .675-.018 1.477-.054.018-.11.055-.301.109-.575.055-.291.082-.547.082-.765v-.192c0-.31-.073-.592-.218-.847a.625.625 0 0 1-.082-.246c0-.11.073-.165.218-.165.164 0 .41.073.739.22.346.127.647.29.902.491.273.201.41.392.41.575a.475.475 0 0 1-.027.191c-.201.62-.356 1.048-.465 1.285l3.527-.219c.547-.018 1.003-.09 1.367-.218.146-.055.283-.082.411-.082.255 0 .537.155.847.465.31.291.465.546.465.765 0 .182-.2.292-.601.328l-6.645.383c-.474.985-.82 1.64-1.039 1.969-.201.328-.41.492-.629.492-.182 0-.273-.128-.273-.383 0-.127.045-.346.136-.656.128-.328.265-.775.411-1.34l-.739.055c-.346 0-.665-.128-.957-.383-.291-.273-.428-.574-.41-.902v-.028Zm1.094 7.93c0-.037.027-.064.082-.082a.334.334 0 0 1 .191-.055c.255 0 .447-.009.574-.027.42 0 1.067-.027 1.942-.082.018-.128.027-.328.027-.602 0-.492-.054-.856-.164-1.093a.888.888 0 0 1-.055-.247c0-.145.092-.218.274-.218.273 0 .647.127 1.121.383.492.255.738.492.738.71v.082l-.246.903 1.231-.082c.401-.018.884-.11 1.449-.274a1.65 1.65 0 0 1 .273-.054c.219 0 .447.082.684.246.237.164.437.355.601.574.164.2.247.337.247.41 0 .2-.192.32-.575.356l-4.402.246c-.128.4-.392.993-.793 1.777-.383.784-.729 1.176-1.039 1.176-.182 0-.274-.128-.274-.383l.055-.328c.073-.237.255-.939.547-2.105l-.984.081a1.851 1.851 0 0 1-1.067-.41c-.31-.255-.455-.547-.437-.875v-.027ZM204.316 27.3c-.127 0-.264-.081-.41-.245a1.656 1.656 0 0 1-.218-.301c-.037-.091-.037-.21 0-.356l.027-.656c.018-.127.027-.437.027-.93v-.902l-.82.383-.957.41c-.237.091-.483.2-.738.328-.219.11-.411.164-.575.164a1.694 1.694 0 0 1-.437-.136 3.678 3.678 0 0 1-.383-.192c-.2-.127-.292-.264-.273-.41l.082-.273c0-.146.009-.274.027-.383l.027-1.586v-1.477c0-.291-.018-.537-.054-.738a20.47 20.47 0 0 0-.082-.465c0-.091.027-.155.082-.191.018-.018.063-.028.136-.028.128 0 .374.082.739.247.31.145.437.328.382.546a4.866 4.866 0 0 0-.109.575l-.082 3.144a.72.72 0 0 0 .027.219c.037.036.073.055.11.055.218 0 .483-.064.793-.192a15.257 15.257 0 0 0 1.504-.547l.601-.246v-1.805c0-.729-.045-1.43-.137-2.105a.613.613 0 0 1-.027-.191c0-.183.073-.274.219-.274.018 0 .118.037.301.11.273.145.474.273.601.382.128.11.201.174.219.192.073.055.109.11.109.164a.268.268 0 0 1-.054.137c-.019.054-.037.1-.055.136l-.082.82-.027 2.516.027 2.434c0 .42-.027.784-.082 1.094-.091.382-.237.574-.438.574Zm-5.031 4.485c-.2 0-.446-.155-.738-.465-.219-.218-.328-.383-.328-.492 0-.055.036-.082.109-.082.073-.018.164-.027.274-.027l.601-.028c.346 0 .574-.009.684-.027.346 0 .638-.01.875-.027 1.567-.146 2.625-.265 3.172-.356.273-.036.519-.073.738-.11.219-.054.392-.081.519-.081.256 0 .511.127.766.383.201.2.301.364.301.492 0 .11-.064.182-.192.219-.091.018-.628.054-1.613.109a36.33 36.33 0 0 0-2.023.137c-.802.073-1.504.146-2.106.218l-.465.082c-.2.037-.392.055-.574.055Zm3.664 11.293a11.96 11.96 0 0 1-1.312-.055 1.311 1.311 0 0 1-.739-.328c-.346-.255-.583-.81-.71-1.668l-.083-.875c0-.218-.018-.492-.054-.82a4.636 4.636 0 0 0-.629.11 2.86 2.86 0 0 1-.192.081.731.731 0 0 1-.164.028.628.628 0 0 1-.355-.11c-.109-.073-.246-.21-.41-.41-.128-.164-.192-.273-.192-.328 0-.055.064-.091.192-.11.127-.018.301-.027.519-.027.31 0 .711-.036 1.203-.109l-.027-.383c0-.729-.045-1.349-.137-1.86l-.027-.19c0-.256.1-.356.301-.301.219.073.419.164.601.273a.854.854 0 0 1 .301.219c.055.054.073.137.055.246l-.082 1.176v.71l2.406-.245c0-.128.009-.429.027-.903.019-.492.019-.811 0-.957 0-.146-.018-.282-.054-.41a5.77 5.77 0 0 0-.055-.355c0-.146.073-.22.219-.22.146 0 .328.083.547.247.255.164.419.31.492.437.091.128.109.283.055.465-.092.292-.155.62-.192.985-.036.364-.055.583-.055.656.219-.018.42-.046.602-.082.182-.037.301-.055.355-.055.146-.036.319-.054.52-.054.109.018.264.127.465.328.164.218.246.392.246.52 0 .181-.173.254-.52.218a5.323 5.323 0 0 0-.929-.082c-.31 0-.575.009-.793.027a11.714 11.714 0 0 1-.328 1.942.753.753 0 0 1-.192.355c-.091.11-.173.164-.246.164-.127 0-.21-.055-.246-.164a2.737 2.737 0 0 1-.027-.465c.036-.474.054-1.066.054-1.777a20.93 20.93 0 0 0-1.148.11 7.249 7.249 0 0 1-1.176.163 11.19 11.19 0 0 0 .11 1.996c.054.383.164.648.328.793a.725.725 0 0 0 .382.164c.165.019.329.028.493.028h.328c.565 0 1.094-.028 1.586-.082.146-.019.273-.055.383-.11a.82.82 0 0 1 .273-.082c.164 0 .328.055.492.164.164.11.246.237.246.383 0 .146-.082.255-.246.328-.146.073-.383.137-.711.192-.583.073-1.166.11-1.75.11Zm7.793-12.441c.219 0 .328.1.328.3 0 .11-.1.265-.3.465-.547.675-1.632 1.96-3.254 3.856-.128.164-.246.246-.356.246-.091 0-.292-.137-.601-.41-.256-.219-.383-.401-.383-.547 0-.164.136-.32.41-.465.419-.237 1.048-.71 1.887-1.422.838-.747 1.458-1.34 1.859-1.777.164-.164.301-.246.41-.246Zm-34.754 8.941c1.623-.51 3.072-1.066 4.348-1.668-.274-.383-.62-.82-1.039-1.312-.146-.183-.219-.328-.219-.438 0-.2.119-.373.356-.52.237-.163.419-.245.546-.245.146 0 .301.09.465.273a108.153 108.153 0 0 1 2.653 3.227c.729.93 1.093 1.494 1.093 1.695 0 .164-.127.355-.382.574-.237.237-.465.355-.684.355-.182 0-.365-.145-.547-.437a72.735 72.735 0 0 0-1.422-2.078l-3.281 1.64a31.81 31.81 0 0 0-1.723.876c-.656.346-1.057.52-1.203.52-.109 0-.246-.074-.41-.22a1.285 1.285 0 0 1-.383-.492c-.073-.182-.073-.328 0-.437.11-.2.164-1.003.164-2.407v-9.46c0-.438-.018-.794-.054-1.067a2.838 2.838 0 0 0-.219-.875 1.059 1.059 0 0 0-.055-.137.245.245 0 0 1-.027-.11c0-.09.064-.136.191-.136.237 0 .83.2 1.778.602l5.933-.41c.146-.019.31-.028.492-.028.201 0 .438.091.711.274.274.164.41.346.41.547 0 .072-.045.182-.136.328-.073.146-.11.255-.11.328l-.711 5.14c.438.51.657.857.657 1.04 0 .09-.055.154-.164.19-.092.037-.237.056-.438.056l-6.617.246.027 4.566Zm-4.484-12.277c0-.182.118-.401.355-.656a40.143 40.143 0 0 0 3.473-4.403c.984-1.458 1.477-2.433 1.477-2.926l-.028-.191v-.082c0-.255.101-.383.301-.383.237 0 .565.164.984.492.438.31.657.565.657.766 0 .091-.046.21-.137.355-.274.438-.574.875-.902 1.313l3.882-.3a3.78 3.78 0 0 0 1.039-.22.873.873 0 0 1 .247-.054c.273 0 .565.155.875.465.328.291.492.52.492.683 0 .219-.201.346-.602.383l-4.676.328c.128.037.411.228.848.574.456.347.866.702 1.231 1.067.364.364.546.62.546.765 0 .164-.109.365-.328.602-.218.219-.41.328-.574.328-.146 0-.319-.119-.519-.355a17.007 17.007 0 0 0-1.887-1.778c-.219-.182-.328-.337-.328-.465 0-.09.045-.21.136-.355.092-.146.21-.264.356-.356l-1.832.137a26.675 26.675 0 0 1-2.899 3.035c-1.057.93-1.731 1.395-2.023 1.395-.109 0-.164-.055-.164-.164Zm9.844 2.844.191-1.915-5.633.383v1.805l5.442-.273Zm-.356 3.39.219-2.105-5.277.246v2.05l5.058-.19Zm1.477-7.41c0-.182.118-.401.355-.656a22.18 22.18 0 0 0 2.434-3.637c.747-1.367 1.121-2.324 1.121-2.871v-.11c0-.273.1-.41.301-.41.127 0 .319.073.574.22.273.127.519.282.738.464.219.182.328.365.328.547 0 .164-.127.456-.382.875-.256.42-.392.638-.411.656l5.387-.437c.401-.037.747-.1 1.039-.192a.57.57 0 0 1 .219-.027c.255 0 .529.146.82.437.31.274.465.502.465.684 0 .11-.055.2-.164.273a.957.957 0 0 1-.383.11l-5.551.383c.511.328 1.112.81 1.805 1.449.693.62 1.039 1.039 1.039 1.258 0 .127-.1.328-.301.601-.2.255-.392.383-.574.383-.146 0-.301-.091-.465-.273-.893-.967-1.704-1.732-2.433-2.297-.183-.146-.274-.283-.274-.41 0-.146.137-.365.41-.657l-2.023.137a20.115 20.115 0 0 1-2.188 2.434c-.838.82-1.403 1.23-1.695 1.23-.127 0-.191-.055-.191-.164Zm2.57.602c0-.11.064-.165.191-.165.274 0 .894.228 1.86.684l5.496-.465.219-.027c.073 0 .209.036.41.11.219.054.419.154.601.3.201.128.301.3.301.52a.823.823 0 0 1-.082.3.819.819 0 0 0-.082.274 68.226 68.226 0 0 1-.383 6.426l-.054.683a18.93 18.93 0 0 1-.219 1.914c-.091.51-.246.912-.465 1.203-.346.474-.72.711-1.121.711s-.912-.246-1.531-.738a14.454 14.454 0 0 1-1.723-1.613c-.51-.584-.766-.957-.766-1.121 0-.128.073-.192.219-.192.164 0 .392.091.684.274.674.419 1.239.756 1.695 1.011.456.256.784.383.984.383.092 0 .155-.064.192-.191.419-2.334.674-5.26.765-8.778l-5.14.383c0 3.081.027 7.966.082 14.657 0 .164-.046.282-.137.355a.364.364 0 0 1-.301.137c-.145 0-.319-.055-.519-.164-.347-.146-.593-.283-.738-.41-.146-.128-.219-.274-.219-.438l.027-.191c.11-.602.164-1.276.164-2.024l-.082-11.539c0-.474-.018-.838-.055-1.094a2.515 2.515 0 0 0-.164-.738c-.072-.219-.109-.365-.109-.437ZM246.152 27.219c-.273 0-.51-.1-.711-.301a20.73 20.73 0 0 0-1.832-1.777c-.692-.584-1.303-1.021-1.832-1.313-.255-.146-.382-.374-.382-.683 0-.055.063-.128.191-.22.164-.109.428-.346.793-.71l.984-.957c.438-.456.802-.866 1.094-1.23.31-.365.483-.62.52-.766a.918.918 0 0 0 .054-.219c.037-.128.091-.191.164-.191.091 0 .21.045.356.136.164.091.301.183.41.274.273.255.41.474.41.656-.018.055-.091.119-.219.191-.109.055-.209.11-.3.164a38.9 38.9 0 0 0-.985.875l-1.777 1.532c-.31.255-.465.455-.465.601 0 .073.146.192.437.356.347.218 1.021.665 2.024 1.34a9.79 9.79 0 0 1 1.094.847c.291.292.437.593.437.903a.493.493 0 0 1-.191.382.372.372 0 0 1-.274.11Zm-4.867 4.566c-.2 0-.446-.155-.738-.465-.219-.218-.328-.383-.328-.492 0-.055.036-.082.109-.082.073-.018.164-.027.274-.027l.601-.028c.346 0 .574-.009.684-.027.346 0 .638-.01.875-.027 1.567-.146 2.625-.265 3.172-.356.273-.036.519-.073.738-.11.219-.054.392-.081.519-.081.256 0 .511.127.766.383.201.2.301.364.301.492 0 .11-.064.182-.192.219-.091.018-.628.054-1.613.109a36.33 36.33 0 0 0-2.023.137c-.802.073-1.504.146-2.106.218l-.465.082c-.2.037-.392.055-.574.055Zm-.164 10.91c-.273 0-.483-.073-.629-.218-.164-.164-.246-.31-.246-.438s.073-.264.219-.41c.018-.018.118-.164.301-.438a34.91 34.91 0 0 0 1.367-2.433c.528-1.003.857-1.686.984-2.051.11-.346.21-.647.301-.902.109-.255.2-.383.273-.383a.45.45 0 0 1 .329.137c.091.073.182.182.273.328.109.127.191.218.246.273.128.146.191.283.191.41a.437.437 0 0 1-.109.274 1.436 1.436 0 0 0-.137.191l-1.203 2.024c-.31.565-.72 1.267-1.23 2.105a.438.438 0 0 0-.11.273c0 .073.082.11.247.11.346 0 .993-.046 1.941-.137.948-.073 1.586-.137 1.914-.191.474-.055.802-.11.984-.164.201-.055.493.082.875.41.456.383.556.629.301.738-.146.073-.428.11-.848.11h-1.093c-.237 0-.611.018-1.121.054-.31 0-.657.01-1.039.028a42.09 42.09 0 0 0-.957.054c-.292.018-.857.073-1.696.164l-.328.082Zm8.121-9.87c.091 0 .228.063.41.19-.018.037.019.11.11.22l.191.19c.091.092.182.201.274.329.109.128.227.264.355.41.328.346 1.085 1.249 2.27 2.707.2.292.3.465.3.52 0 .182-.109.273-.328.273-.127 0-.264-.091-.41-.273-.346-.365-.966-.94-1.859-1.723-.693-.638-1.322-1.13-1.887-1.477-.273-.127-.41-.273-.41-.437 0-.128.137-.31.41-.547.255-.255.447-.383.574-.383Zm-31.472-.712c-.256 2.206-.711 4.12-1.368 5.742-.656 1.623-1.321 2.872-1.996 3.747-.674.893-1.13 1.34-1.367 1.34-.036 0-.073-.019-.109-.055-.037-.037-.055-.091-.055-.164 0-.11.073-.328.219-.657.966-1.95 1.695-3.882 2.187-5.797.511-1.913.839-3.782.985-5.605.164-1.823.246-3.892.246-6.207v-.793c0-.857-.11-1.65-.328-2.379a1.063 1.063 0 0 1-.082-.355c0-.146.072-.22.218-.22.31 0 .985.31 2.024.93l7.355-.464a24.592 24.592 0 0 0-1.804-1.723c-.11-.091-.165-.182-.165-.273 0-.091.082-.237.247-.438.164-.219.319-.328.464-.328.128 0 .438.182.93.547.492.365.948.756 1.367 1.176.42.4.629.674.629.82v.137l5.551-.356c.401-.018.82-.127 1.258-.328a.465.465 0 0 1 .191-.027c.201 0 .483.155.848.465.383.291.574.547.574.765 0 .237-.21.374-.629.41l-6.234.383-.082 1.422 4.211-.273h.273c.401 0 .684.11.848.328.164.2.246.383.246.547a.487.487 0 0 1-.082.246 1.822 1.822 0 0 0-.082.246l-.356 1.531c.383.383.575.647.575.793 0 .073-.046.128-.137.164a5.413 5.413 0 0 0-.246.055h-.137l-15.832.82-.082 1.149 17.09-.875h.137c.291 0 .619.118.984.355.364.219.547.438.547.656 0 .146-.228.429-.684.848-.456.42-.948.811-1.476 1.176-.511.364-.875.547-1.094.547-.128 0-.192-.055-.192-.164 0-.11.092-.283.274-.52.529-.656.902-1.194 1.121-1.613l-16.816.875-.164 1.394ZM215.5 43.27c0-.092.064-.183.191-.274a1.52 1.52 0 0 1 .575-.191c3.263-.638 6.179-1.54 8.75-2.707a29.926 29.926 0 0 1-3.09-1.97 23.885 23.885 0 0 1-2.844 1.942c-.93.547-1.559.82-1.887.82-.127 0-.191-.045-.191-.136 0-.182.155-.374.465-.574a33.041 33.041 0 0 0 3.554-2.899c-.273-.291-.446-.492-.519-.601-.073-.11-.091-.2-.055-.274a.82.82 0 0 1 .274-.41.693.693 0 0 1 .465-.191c.182 0 .355.1.519.3l.219.247c.255-.292.437-.51.547-.657.182-.2.273-.492.273-.875v-.164c0-.237.082-.355.246-.355.219 0 .52.146.903.437.401.274.601.529.601.766 0 .091-.064.219-.191.383l-.274.3 6.481-.355h.191c.346 0 .693.11 1.039.328.347.219.52.465.52.738a.526.526 0 0 1-.164.383c-.11.091-.237.183-.383.274a1.356 1.356 0 0 0-.274.191 21.205 21.205 0 0 1-3.281 2.27c1.185.419 2.47.774 3.856 1.066 1.403.292 3.08.583 5.031.875.31.055.465.146.465.273 0 .183-.146.438-.438.766-.291.328-.565.492-.82.492-.31 0-1.057-.127-2.242-.383a57.573 57.573 0 0 1-3.856-.984c-1.385-.4-2.588-.83-3.609-1.285-2.789 1.312-6.18 2.187-10.172 2.625a1.45 1.45 0 0 1-.328.027c-.182 0-.319-.027-.41-.082-.091-.036-.137-.082-.137-.136Zm6.945-16.38-.027-1.421-4.184.273-.054 1.395 4.265-.246Zm-.054-2.624-.028-1.422-4.101.246v1.45l4.129-.274Zm-4.102 10.363c0-.091.046-.2.137-.328a10.051 10.051 0 0 0 1.476-2.68c.091-.219.237-.328.438-.328.127 0 .292.046.492.137.201.073.301.2.301.383a.369.369 0 0 1-.028.164c-.2.62-.501 1.348-.902 2.187-.401.82-.738 1.23-1.012 1.23-.164 0-.355-.09-.574-.273-.219-.2-.328-.364-.328-.492Zm3.637-3.035c0-.128.073-.228.219-.301.164-.091.364-.146.601-.164.237 0 .41.118.52.355.237.566.492 1.021.765 1.368.292.328.766.592 1.422.793.675.2 1.613.3 2.817.3.455 0 .811-.009 1.066-.027.255-.018.383-.073.383-.164 0-.073-.018-.128-.055-.164-.711-1.003-1.066-1.595-1.066-1.778 0-.109.045-.164.136-.164.183 0 .411.128.684.383.583.51 1.139.957 1.668 1.34.401.292.602.547.602.766 0 .255-.265.492-.793.71-.511.22-1.331.329-2.461.329a16.57 16.57 0 0 1-2.161-.137c-.692-.091-1.266-.228-1.722-.41-.675-.273-1.212-.629-1.613-1.066-.383-.438-.648-.839-.793-1.204-.146-.382-.219-.638-.219-.765Zm1.121 5.77a18.404 18.404 0 0 0 3.473 1.968 23.515 23.515 0 0 0 3.527-2.297l-7 .328Zm.82-13.208 3.528-.218.054-1.422-3.609.218.027 1.422Zm.028 2.653 3.363-.192.082-1.449-3.473.219.028 1.422Zm.765 4.402c0-.073.055-.21.164-.41.11-.2.246-.301.41-.301.073 0 .338.1.793.3.456.201.875.42 1.258.657.383.219.574.401.574.547 0 .11-.073.282-.218.52-.146.236-.31.355-.493.355a.626.626 0 0 1-.355-.137 17.259 17.259 0 0 0-1.969-1.285c-.109-.055-.164-.137-.164-.246Zm7.848-4.895.246-1.476-3.965.246-.082 1.45 3.801-.22Zm-1.969 5.059c0-.11.073-.255.219-.438.2-.2.374-.3.519-.3.146 0 .483.21 1.012.629.547.419 1.057.856 1.531 1.312.474.456.711.757.711.902 0 .128-.127.301-.383.52-.237.2-.428.3-.574.3-.182 0-.364-.118-.547-.355a10.21 10.21 0 0 0-1.011-1.12 20.538 20.538 0 0 0-1.34-1.204c-.091-.073-.137-.155-.137-.246Z"/></svg>