<svg width="340" height="60" viewBox="0 0 340 60" fill="none" xmlns="http://www.w3.org/2000/svg">
<path d="M114.52 30.6094C114.392 30.6094 114.31 30.6003 114.273 30.582C114.255 30.5456 114.283 30.4818 114.355 30.3906C114.611 30.1536 114.811 29.9258 114.957 29.707C115.121 29.4701 115.294 29.0964 115.477 28.5859C115.768 27.7474 115.914 27.1003 115.914 26.6445C115.914 26.2253 115.887 25.8424 115.832 25.4961V25.4141C115.832 25.2135 115.96 25.1497 116.215 25.2227C116.434 25.2773 116.68 25.3503 116.953 25.4414C117.008 25.4232 117.09 25.4141 117.199 25.4141C117.309 25.3958 117.482 25.3685 117.719 25.332C118.339 25.2409 119.141 25.1497 120.125 25.0586C120.125 24.9857 120.198 24.7305 120.344 24.293L120.508 23.6914C120.581 23.4362 120.553 23.3086 120.426 23.3086C120.061 23.3086 119.214 23.3997 117.883 23.582L116.434 23.8281C116.306 23.8464 116.142 23.7917 115.941 23.6641C115.759 23.5365 115.613 23.3906 115.504 23.2266C115.413 23.0625 115.431 22.9531 115.559 22.8984C115.704 22.8073 115.85 22.7617 115.996 22.7617C116.142 22.7617 116.233 22.7617 116.27 22.7617H116.625L118.43 22.707L120.18 22.4883C120.271 22.4701 120.38 22.4427 120.508 22.4062C120.654 22.3516 120.79 22.3151 120.918 22.2969C121.1 22.2604 121.41 22.4609 121.848 22.8984C121.921 22.9714 121.957 23.0534 121.957 23.1445C121.957 23.2539 121.884 23.3633 121.738 23.4727C121.538 23.6732 121.41 23.8464 121.355 23.9922C121.337 24.0833 121.301 24.2201 121.246 24.4023C121.191 24.5664 121.137 24.776 121.082 25.0312C121.191 25.1589 121.246 25.3138 121.246 25.4961C121.246 25.6419 121.201 25.7513 121.109 25.8242C121.036 25.8789 120.882 25.9062 120.645 25.9062C119.824 25.9609 119.177 26.0156 118.703 26.0703C118.229 26.1068 117.655 26.1979 116.98 26.3438C116.908 27.1641 116.743 27.9206 116.488 28.6133C116.233 29.2878 115.878 29.7982 115.422 30.1445C114.984 30.4544 114.684 30.6094 114.52 30.6094ZM115.121 39.6875C114.848 39.6875 114.638 39.6146 114.492 39.4688C114.328 39.3047 114.246 39.1589 114.246 39.0312C114.246 38.9036 114.319 38.7669 114.465 38.6211C114.483 38.6029 114.583 38.457 114.766 38.1836C115.167 37.5456 115.622 36.7344 116.133 35.75C116.661 34.7474 116.99 34.0638 117.117 33.6992C117.227 33.3529 117.327 33.0521 117.418 32.7969C117.527 32.5417 117.618 32.4141 117.691 32.4141C117.819 32.4141 117.928 32.4596 118.02 32.5508C118.111 32.6237 118.202 32.7331 118.293 32.8789C118.402 33.0065 118.484 33.0977 118.539 33.1523C118.667 33.2982 118.73 33.4349 118.73 33.5625C118.73 33.6536 118.694 33.7448 118.621 33.8359C118.548 33.9271 118.503 33.9909 118.484 34.0273L117.281 36.0508C116.971 36.6159 116.561 37.3177 116.051 38.1562C115.978 38.2474 115.941 38.3385 115.941 38.4297C115.941 38.5026 116.023 38.5391 116.188 38.5391C116.534 38.5391 117.181 38.5026 118.129 38.4297C119.077 38.3385 119.715 38.2656 120.043 38.2109C120.517 38.1562 120.845 38.1016 121.027 38.0469C121.228 37.9922 121.52 38.1289 121.902 38.457C122.358 38.8398 122.458 39.0859 122.203 39.1953C122.057 39.2682 121.775 39.3047 121.355 39.3047H120.262C120.025 39.3047 119.651 39.3229 119.141 39.3594C118.831 39.3594 118.484 39.3685 118.102 39.3867C117.719 39.4049 117.4 39.4232 117.145 39.4414C116.853 39.4596 116.288 39.5143 115.449 39.6055L115.121 39.6875ZM90.1562 41.8203C89.901 41.8203 89.6914 41.8294 89.5273 41.8477C89.3633 41.8659 89.2266 41.875 89.1172 41.875C88.7344 41.875 88.4245 41.7474 88.1875 41.4922C87.9505 41.237 87.7773 40.9635 87.668 40.6719C87.5768 40.3802 87.5312 40.1979 87.5312 40.125C87.5312 40.0156 87.5951 39.9609 87.7227 39.9609C87.7956 39.9609 87.8594 39.9701 87.9141 39.9883C88.3698 40.0977 88.8802 40.1523 89.4453 40.1523L98.6875 39.8789V34.2461L94.5859 34.4102L93.9023 34.4375C93.5195 34.4375 93.2826 34.3919 93.1914 34.3008C92.9362 34.1003 92.7266 33.8542 92.5625 33.5625C92.4167 33.2708 92.3438 33.0521 92.3438 32.9062C92.3438 32.7969 92.3984 32.7422 92.5078 32.7422C92.5807 32.7422 92.6445 32.7513 92.6992 32.7695C93.1003 32.8607 93.4648 32.9062 93.793 32.9062H94.0117L98.6875 32.6875L98.7148 28.0391L93.6016 28.3125C93.0182 29.3516 92.444 30.2174 91.8789 30.9102C91.332 31.6029 90.8581 32.1133 90.457 32.4414C90.056 32.7695 89.8099 32.9336 89.7188 32.9336C89.6458 32.9336 89.6094 32.888 89.6094 32.7969C89.6094 32.6328 89.7005 32.4049 89.8828 32.1133C90.5573 31.056 91.168 29.9167 91.7148 28.6953C92.2617 27.4557 92.6901 26.3255 93 25.3047C93.3281 24.2839 93.4922 23.5547 93.4922 23.1172C93.4922 22.9167 93.4831 22.7708 93.4648 22.6797C93.4466 22.625 93.4375 22.5521 93.4375 22.4609C93.4375 22.2604 93.5286 22.1602 93.7109 22.1602C93.8203 22.1784 94.0391 22.2422 94.3672 22.3516C94.6953 22.4427 95.0052 22.5703 95.2969 22.7344C95.5885 22.8984 95.7344 23.0807 95.7344 23.2812C95.7344 23.3724 95.5885 23.8008 95.2969 24.5664C95.0234 25.3138 94.7227 26.0339 94.3945 26.7266L98.7148 26.4805V21.1484C98.7148 20.6198 98.5781 20.1549 98.3047 19.7539C98.2318 19.6263 98.1953 19.526 98.1953 19.4531C98.1953 19.3255 98.2956 19.2617 98.4961 19.2617C98.6055 19.2617 98.8333 19.3073 99.1797 19.3984C99.526 19.4714 99.8451 19.5898 100.137 19.7539C100.447 19.918 100.602 20.1185 100.602 20.3555L100.574 26.3711L105.387 26.0977C105.806 26.0612 106.216 25.9792 106.617 25.8516C106.654 25.8333 106.717 25.8242 106.809 25.8242C107.027 25.8242 107.337 25.9974 107.738 26.3438C108.139 26.6719 108.34 26.9453 108.34 27.1641C108.34 27.3828 108.112 27.5104 107.656 27.5469L100.574 27.9297L100.547 32.6055L104.375 32.4141C104.776 32.3776 105.141 32.3047 105.469 32.1953C105.505 32.1771 105.56 32.168 105.633 32.168C105.724 32.168 105.888 32.25 106.125 32.4141C106.38 32.5599 106.599 32.7331 106.781 32.9336C106.982 33.1341 107.082 33.3255 107.082 33.5078C107.082 33.6172 107.027 33.7083 106.918 33.7812C106.827 33.8542 106.699 33.8997 106.535 33.918H106.48L100.547 34.1641L100.52 39.8242L109.133 39.5781C109.516 39.5781 109.935 39.4961 110.391 39.332C110.427 39.3138 110.491 39.3047 110.582 39.3047C110.783 39.3047 111.001 39.4049 111.238 39.6055C111.493 39.7878 111.712 39.9974 111.895 40.2344C112.095 40.4714 112.195 40.6445 112.195 40.7539C112.195 40.9909 111.977 41.1276 111.539 41.1641L90.1562 41.8203Z" fill="#333333"/>
<path d="M156.273 26.7812C156.255 26.7812 156.191 26.7995 156.082 26.8359C155.991 26.8542 155.945 26.8268 155.945 26.7539C155.945 26.7357 155.982 26.6992 156.055 26.6445C156.128 26.5716 156.191 26.5078 156.246 26.4531C156.301 26.3984 156.383 26.3255 156.492 26.2344C156.602 26.125 156.684 26.0156 156.738 25.9062C157.012 25.4505 157.203 24.9948 157.312 24.5391L157.477 23.582C157.604 22.8711 157.659 22.0417 157.641 21.0938C157.641 20.875 157.613 20.6471 157.559 20.4102C157.54 20.3008 157.449 20.1458 157.285 19.9453V19.918C157.285 19.8815 157.331 19.8633 157.422 19.8633C157.549 19.8633 157.659 19.8724 157.75 19.8906C157.987 19.9453 158.251 19.9727 158.543 19.9727C158.853 19.9544 159.044 19.9453 159.117 19.9453L160.949 19.8086C161.314 19.7721 161.551 19.7539 161.66 19.7539C162.444 19.6445 162.799 19.599 162.727 19.6172C163.146 19.5443 163.401 19.5078 163.492 19.5078C163.784 19.526 164.076 19.7539 164.367 20.1914L164.422 20.3281C164.422 20.4375 164.34 20.5013 164.176 20.5195C164.012 20.5378 163.911 20.5469 163.875 20.5469C163.31 20.5469 162.891 20.556 162.617 20.5742C161.924 20.5742 161.414 20.5833 161.086 20.6016L160.32 20.6562L158.762 20.8203C158.652 22.3516 158.552 23.3542 158.461 23.8281C158.315 24.6849 158.033 25.3776 157.613 25.9062C157.303 26.3073 156.857 26.599 156.273 26.7812ZM163.164 34.5195C162.891 34.5195 162.626 34.319 162.371 33.918C162.043 33.4076 161.724 32.9883 161.414 32.6602L160.703 31.9219C160.32 32.3594 159.983 32.7057 159.691 32.9609C159.418 33.2161 159.072 33.4622 158.652 33.6992C157.868 34.1549 157.212 34.3828 156.684 34.3828C156.556 34.3828 156.492 34.3372 156.492 34.2461C156.492 34.1914 156.665 34.0729 157.012 33.8906C157.358 33.7083 157.686 33.4896 157.996 33.2344C158.78 32.5781 159.427 31.9036 159.938 31.2109C159.828 31.1016 159.281 30.6276 158.297 29.7891C158.169 29.6979 157.978 29.543 157.723 29.3242C157.668 29.2878 157.559 29.2057 157.395 29.0781C157.23 28.9505 157.148 28.8594 157.148 28.8047C157.148 28.7135 157.194 28.668 157.285 28.668C157.559 28.668 157.996 28.8594 158.598 29.2422C159.199 29.6068 159.828 30.0443 160.484 30.5547C160.74 30.2448 160.94 29.9531 161.086 29.6797C161.232 29.4062 161.396 29.069 161.578 28.668C161.669 28.4674 161.724 28.2943 161.742 28.1484C161.76 27.9844 161.77 27.8841 161.77 27.8477C161.77 27.6471 161.824 27.5469 161.934 27.5469C162.061 27.5469 162.234 27.6471 162.453 27.8477C162.836 28.2122 163.027 28.4583 163.027 28.5859C163.027 28.6589 162.982 28.7409 162.891 28.832C162.672 29.0508 162.471 29.3424 162.289 29.707C162.18 29.9258 161.979 30.2357 161.688 30.6367C161.596 30.7461 161.523 30.8464 161.469 30.9375C161.414 31.0286 161.359 31.1107 161.305 31.1836C161.724 31.4935 162.344 32.0221 163.164 32.7695C163.365 32.9518 163.492 33.125 163.547 33.2891C163.62 33.4349 163.656 33.6354 163.656 33.8906C163.656 34.0729 163.611 34.2279 163.52 34.3555C163.428 34.4648 163.31 34.5195 163.164 34.5195ZM160.484 42.9414C159.591 42.9414 158.871 42.7135 158.324 42.2578C157.741 41.7474 157.449 41.1549 157.449 40.4805C157.449 39.8971 157.659 39.4232 158.078 39.0586C158.26 38.8945 158.507 38.7578 158.816 38.6484C159.126 38.5208 159.418 38.457 159.691 38.457C159.874 38.457 159.974 38.4479 159.992 38.4297C160.029 38.3932 160.056 38.3021 160.074 38.1562C160.092 38.0286 160.102 37.7643 160.102 37.3633C160.083 37.2904 160.074 37.1628 160.074 36.9805C158.944 37.0898 158.105 37.1992 157.559 37.3086C157.431 37.3268 157.276 37.2995 157.094 37.2266C156.93 37.1354 156.793 37.026 156.684 36.8984C156.574 36.7708 156.538 36.6797 156.574 36.625C156.647 36.5521 156.72 36.5065 156.793 36.4883C156.866 36.4518 156.984 36.4336 157.148 36.4336C157.714 36.4336 158.124 36.4154 158.379 36.3789L162.207 35.9961C162.262 35.9961 162.389 35.987 162.59 35.9688C162.809 35.9505 163.009 35.9141 163.191 35.8594H163.273C163.346 35.8594 163.41 35.8867 163.465 35.9414C163.538 35.9779 163.583 35.9961 163.602 35.9961C163.875 36.2148 164.012 36.4062 164.012 36.5703C164.012 36.6979 163.902 36.7617 163.684 36.7617L163.355 36.7344C163.264 36.7161 162.809 36.7344 161.988 36.7891L161.168 36.8438C161.186 37.0625 161.186 37.3359 161.168 37.6641C161.15 37.974 161.132 38.2383 161.113 38.457L161.141 38.7578C161.141 38.8672 161.104 38.9674 161.031 39.0586C160.922 39.2409 160.74 39.332 160.484 39.332C160.339 39.332 160.211 39.3229 160.102 39.3047L159.828 39.25C159.536 39.2318 159.227 39.3503 158.898 39.6055C158.625 39.8789 158.488 40.1706 158.488 40.4805C158.488 40.8997 158.661 41.2552 159.008 41.5469C159.208 41.7109 159.418 41.8203 159.637 41.875C159.874 41.9479 160.156 41.9844 160.484 41.9844C160.922 41.9844 161.332 41.9115 161.715 41.7656C162.098 41.6198 162.38 41.401 162.562 41.1094C162.635 40.9818 162.699 40.9089 162.754 40.8906C162.809 40.8542 162.909 40.8359 163.055 40.8359C163.201 40.8359 163.319 40.8815 163.41 40.9727C163.52 41.082 163.574 41.1914 163.574 41.3008C163.574 41.6289 163.273 41.9844 162.672 42.3672C162.07 42.75 161.341 42.9414 160.484 42.9414ZM168.742 30.6367C168.961 30.6367 169.07 30.737 169.07 30.9375C169.07 31.0469 168.97 31.2018 168.77 31.4023C168.223 32.0768 167.138 33.362 165.516 35.2578C165.388 35.4219 165.27 35.5039 165.16 35.5039C165.069 35.5039 164.868 35.3672 164.559 35.0938C164.303 34.875 164.176 34.6927 164.176 34.5469C164.176 34.3828 164.312 34.2279 164.586 34.082C165.005 33.8451 165.634 33.3711 166.473 32.6602C167.311 31.9128 167.931 31.3203 168.332 30.8828C168.496 30.7188 168.633 30.6367 168.742 30.6367ZM141.617 42.7227V42.8594C141.617 43.2422 141.471 43.4336 141.18 43.4336C140.943 43.4336 140.624 43.3242 140.223 43.1055C139.84 42.9049 139.648 42.6589 139.648 42.3672C139.648 42.2578 139.658 42.1758 139.676 42.1211C139.73 41.8477 139.758 41.5469 139.758 41.2188C139.758 40.9453 139.749 40.7266 139.73 40.5625L139.293 35.1758C139.293 35.1211 139.275 34.9206 139.238 34.5742C139.202 34.2279 139.12 33.918 138.992 33.6445C138.883 33.3893 138.828 33.2435 138.828 33.207C138.828 33.0794 138.919 33.0156 139.102 33.0156C139.411 33.0156 140.031 33.1797 140.961 33.5078L143.777 33.3711L143.805 29.2148L137.543 29.5156H137.297C137.023 29.5156 136.814 29.4974 136.668 29.4609C136.522 29.4062 136.395 29.3151 136.285 29.1875C136.212 29.1146 136.103 28.9505 135.957 28.6953C135.811 28.4219 135.738 28.194 135.738 28.0117C135.738 27.9206 135.784 27.875 135.875 27.875L136.039 27.9023C136.276 27.9753 136.559 28.0117 136.887 28.0117L137.434 27.9844L143.832 27.6836L143.859 23.5273C142.62 23.7826 141.508 23.9922 140.523 24.1562C139.557 24.3021 138.947 24.375 138.691 24.375C138.29 24.375 138.09 24.293 138.09 24.1289C138.09 24.0378 138.172 23.9375 138.336 23.8281C138.518 23.7188 138.755 23.6276 139.047 23.5547C142.674 22.6432 145.701 21.5768 148.125 20.3555C148.49 20.1732 148.818 19.8997 149.109 19.5352C149.164 19.4622 149.228 19.4258 149.301 19.4258C149.483 19.4258 149.72 19.6445 150.012 20.082C150.322 20.5195 150.477 20.8659 150.477 21.1211C150.477 21.3581 150.385 21.513 150.203 21.5859C148.508 22.224 146.995 22.7161 145.664 23.0625L145.609 27.6016L151.242 27.3281C151.57 27.3099 151.953 27.2552 152.391 27.1641C152.573 27.1276 152.701 27.1094 152.773 27.1094C152.974 27.1094 153.229 27.2643 153.539 27.5742C153.867 27.8659 154.031 28.1211 154.031 28.3398C154.031 28.5951 153.822 28.7409 153.402 28.7773H153.32L145.609 29.1328L145.555 33.2891L149.355 33.125L149.711 33.0977C149.93 33.0977 150.194 33.1979 150.504 33.3984C150.832 33.599 150.996 33.8542 150.996 34.1641C150.996 34.2552 150.96 34.3737 150.887 34.5195C150.814 34.6654 150.777 34.7747 150.777 34.8477L150.012 40.043C150.486 40.6445 150.723 41.0547 150.723 41.2734C150.723 41.401 150.65 41.4831 150.504 41.5195C150.376 41.556 150.167 41.5833 149.875 41.6016L141.535 41.7656L141.617 42.7227ZM129.613 27.4102C129.613 27.3008 129.695 27.1276 129.859 26.8906C130.023 26.6354 130.197 26.5078 130.379 26.5078C130.543 26.5078 131.017 26.763 131.801 27.2734C132.603 27.7839 133.35 28.3125 134.043 28.8594C134.754 29.4062 135.109 29.7526 135.109 29.8984C135.109 30.026 134.991 30.263 134.754 30.6094C134.535 30.9375 134.326 31.1016 134.125 31.1016C133.997 31.1016 133.815 31.0013 133.578 30.8008C132.466 29.7253 131.281 28.7591 130.023 27.9023C129.75 27.7383 129.613 27.5742 129.613 27.4102ZM129.805 41.1914C129.805 41.1003 129.878 41.0091 130.023 40.918C130.388 40.7174 130.725 40.4167 131.035 40.0156C132.895 37.5 134.544 35.0208 135.984 32.5781C136.294 32.0859 136.549 31.8398 136.75 31.8398C136.878 31.8398 136.941 31.9492 136.941 32.168C136.941 32.6784 136.486 33.8542 135.574 35.6953C134.663 37.5182 133.688 39.2773 132.648 40.9727C132.375 41.4466 132.165 41.7565 132.02 41.9023C131.892 42.0664 131.719 42.1484 131.5 42.1484H131.418C131.108 42.112 130.762 41.9844 130.379 41.7656C129.996 41.5651 129.805 41.3737 129.805 41.1914ZM131.254 21.1484C131.254 21.0208 131.336 20.8477 131.5 20.6289C131.664 20.4102 131.846 20.3008 132.047 20.3008C132.302 20.3008 132.867 20.6471 133.742 21.3398C134.617 22.0143 135.492 22.7435 136.367 23.5273C136.568 23.7096 136.668 23.8737 136.668 24.0195C136.668 24.2201 136.549 24.4661 136.312 24.7578C136.076 25.0312 135.857 25.168 135.656 25.168C135.51 25.168 135.328 25.0586 135.109 24.8398C133.815 23.5091 132.648 22.4336 131.609 21.6133C131.372 21.431 131.254 21.276 131.254 21.1484ZM141.398 40.1797L148.262 40.0156L148.863 34.7656L140.988 35.0664L141.398 40.1797Z" fill="#333333"/>
<path d="M198.273 26.7812C198.255 26.7812 198.191 26.7995 198.082 26.8359C197.991 26.8542 197.945 26.8268 197.945 26.7539C197.945 26.7357 197.982 26.6992 198.055 26.6445C198.128 26.5716 198.191 26.5078 198.246 26.4531C198.301 26.3984 198.383 26.3255 198.492 26.2344C198.602 26.125 198.684 26.0156 198.738 25.9062C199.012 25.4505 199.203 24.9948 199.312 24.5391L199.477 23.582C199.604 22.8711 199.659 22.0417 199.641 21.0938C199.641 20.875 199.613 20.6471 199.559 20.4102C199.54 20.3008 199.449 20.1458 199.285 19.9453V19.918C199.285 19.8815 199.331 19.8633 199.422 19.8633C199.549 19.8633 199.659 19.8724 199.75 19.8906C199.987 19.9453 200.251 19.9727 200.543 19.9727C200.853 19.9544 201.044 19.9453 201.117 19.9453L202.949 19.8086C203.314 19.7721 203.551 19.7539 203.66 19.7539C204.444 19.6445 204.799 19.599 204.727 19.6172C205.146 19.5443 205.401 19.5078 205.492 19.5078C205.784 19.526 206.076 19.7539 206.367 20.1914L206.422 20.3281C206.422 20.4375 206.34 20.5013 206.176 20.5195C206.012 20.5378 205.911 20.5469 205.875 20.5469C205.31 20.5469 204.891 20.556 204.617 20.5742C203.924 20.5742 203.414 20.5833 203.086 20.6016L202.32 20.6562L200.762 20.8203C200.652 22.3516 200.552 23.3542 200.461 23.8281C200.315 24.6849 200.033 25.3776 199.613 25.9062C199.303 26.3073 198.857 26.599 198.273 26.7812ZM205.164 34.5195C204.891 34.5195 204.626 34.319 204.371 33.918C204.043 33.4076 203.724 32.9883 203.414 32.6602L202.703 31.9219C202.32 32.3594 201.983 32.7057 201.691 32.9609C201.418 33.2161 201.072 33.4622 200.652 33.6992C199.868 34.1549 199.212 34.3828 198.684 34.3828C198.556 34.3828 198.492 34.3372 198.492 34.2461C198.492 34.1914 198.665 34.0729 199.012 33.8906C199.358 33.7083 199.686 33.4896 199.996 33.2344C200.78 32.5781 201.427 31.9036 201.938 31.2109C201.828 31.1016 201.281 30.6276 200.297 29.7891C200.169 29.6979 199.978 29.543 199.723 29.3242C199.668 29.2878 199.559 29.2057 199.395 29.0781C199.23 28.9505 199.148 28.8594 199.148 28.8047C199.148 28.7135 199.194 28.668 199.285 28.668C199.559 28.668 199.996 28.8594 200.598 29.2422C201.199 29.6068 201.828 30.0443 202.484 30.5547C202.74 30.2448 202.94 29.9531 203.086 29.6797C203.232 29.4062 203.396 29.069 203.578 28.668C203.669 28.4674 203.724 28.2943 203.742 28.1484C203.76 27.9844 203.77 27.8841 203.77 27.8477C203.77 27.6471 203.824 27.5469 203.934 27.5469C204.061 27.5469 204.234 27.6471 204.453 27.8477C204.836 28.2122 205.027 28.4583 205.027 28.5859C205.027 28.6589 204.982 28.7409 204.891 28.832C204.672 29.0508 204.471 29.3424 204.289 29.707C204.18 29.9258 203.979 30.2357 203.688 30.6367C203.596 30.7461 203.523 30.8464 203.469 30.9375C203.414 31.0286 203.359 31.1107 203.305 31.1836C203.724 31.4935 204.344 32.0221 205.164 32.7695C205.365 32.9518 205.492 33.125 205.547 33.2891C205.62 33.4349 205.656 33.6354 205.656 33.8906C205.656 34.0729 205.611 34.2279 205.52 34.3555C205.428 34.4648 205.31 34.5195 205.164 34.5195ZM202.402 43.2148C202.275 43.2148 202.184 43.1784 202.129 43.1055C202.074 43.0326 202.038 42.987 202.02 42.9688C201.837 42.7135 201.755 42.4674 201.773 42.2305C201.792 42.0846 201.819 41.6927 201.855 41.0547L201.883 39.7422C201.865 39.5417 201.846 39.4232 201.828 39.3867C201.81 39.332 201.728 39.2227 201.582 39.0586C201.29 38.694 200.953 38.3203 200.57 37.9375C200.133 37.5 199.85 37.2083 199.723 37.0625C199.723 37.0625 199.449 36.7891 198.902 36.2422C198.848 36.1875 198.82 36.1328 198.82 36.0781C198.82 35.987 198.875 35.9141 198.984 35.8594C199.112 35.7865 199.24 35.7591 199.367 35.7773C199.732 35.8138 199.969 35.8594 200.078 35.9141C200.206 35.9505 200.324 36.0599 200.434 36.2422C200.543 36.4245 200.698 36.6432 200.898 36.8984C201.117 37.1354 201.281 37.3177 201.391 37.4453C201.846 37.9922 202.165 38.3568 202.348 38.5391C202.676 38.1562 203.086 37.6094 203.578 36.8984C203.979 36.388 204.216 35.9688 204.289 35.6406C204.362 35.4036 204.471 35.2852 204.617 35.2852C204.69 35.2852 204.799 35.3307 204.945 35.4219C205.419 35.7135 205.656 35.9505 205.656 36.1328C205.656 36.2422 205.538 36.3789 205.301 36.543C204.973 36.7799 204.699 37.0443 204.48 37.3359L203.934 38.0195C203.569 38.457 203.296 38.8034 203.113 39.0586C203.022 39.2227 202.977 39.4596 202.977 39.7695V41.4375V42.5312C202.995 42.6589 202.922 42.8047 202.758 42.9688C202.612 43.1328 202.493 43.2148 202.402 43.2148ZM210.742 30.6367C210.961 30.6367 211.07 30.737 211.07 30.9375C211.07 31.0469 210.97 31.2018 210.77 31.4023C210.223 32.0768 209.138 33.362 207.516 35.2578C207.388 35.4219 207.27 35.5039 207.16 35.5039C207.069 35.5039 206.868 35.3672 206.559 35.0938C206.303 34.875 206.176 34.6927 206.176 34.5469C206.176 34.3828 206.312 34.2279 206.586 34.082C207.005 33.8451 207.634 33.3711 208.473 32.6602C209.311 31.9128 209.931 31.3203 210.332 30.8828C210.496 30.7188 210.633 30.6367 210.742 30.6367ZM181.293 24.9492C181.293 25.2773 181.138 25.4414 180.828 25.4414C180.591 25.4414 180.309 25.3776 179.98 25.25C179.652 25.1042 179.488 24.8216 179.488 24.4023C179.488 24.1836 179.452 23.8372 179.379 23.3633L174.676 23.6367C174.475 23.6549 174.238 23.6641 173.965 23.6641C173.618 23.6641 173.327 23.5729 173.09 23.3906C172.871 23.2083 172.707 23.0078 172.598 22.7891C172.488 22.5703 172.434 22.4154 172.434 22.3242C172.434 22.2148 172.507 22.1602 172.652 22.1602C172.725 22.1602 172.78 22.1693 172.816 22.1875C173.126 22.2604 173.454 22.2969 173.801 22.2969L174.293 22.2695L179.16 21.9688L179.023 20.9844C178.951 20.5651 178.759 20.2005 178.449 19.8906C178.322 19.763 178.258 19.6536 178.258 19.5625C178.258 19.4167 178.44 19.3438 178.805 19.3438C179.26 19.3438 179.652 19.3984 179.98 19.5078C180.309 19.599 180.5 19.8086 180.555 20.1367L180.828 21.832L182.086 21.75C182.323 21.75 182.478 21.7591 182.551 21.7773C182.678 21.7956 182.779 21.8503 182.852 21.9414C182.943 22.0326 182.988 22.1419 182.988 22.2695C182.988 22.4883 182.906 22.6432 182.742 22.7344C182.578 22.8255 182.341 22.8893 182.031 22.9258C181.885 22.944 181.703 22.9622 181.484 22.9805C181.284 22.9987 181.129 23.0078 181.02 23.0078L181.293 24.7852V24.9492ZM171.832 34.4375C171.832 34.2917 171.905 34.2188 172.051 34.2188C172.124 34.2188 172.188 34.2279 172.242 34.2461C172.661 34.3737 173.172 34.4375 173.773 34.4375L182.605 34.1367L182.633 27.0547L177.273 27.3281C177.128 27.3464 176.954 27.3646 176.754 27.3828C176.572 27.401 176.371 27.4102 176.152 27.4102C175.788 27.4102 175.487 27.3099 175.25 27.1094C175.013 26.8906 174.84 26.6628 174.73 26.4258C174.639 26.1706 174.594 26.0156 174.594 25.9609C174.594 25.8698 174.648 25.8242 174.758 25.8242C174.849 25.8242 174.922 25.8333 174.977 25.8516C175.432 25.9427 175.788 25.9883 176.043 25.9883L176.508 25.9609L188.949 25.3594C189.441 25.3411 189.934 25.2409 190.426 25.0586C190.48 25.0404 190.553 25.0312 190.645 25.0312C190.936 25.0312 191.264 25.1862 191.629 25.4961C192.012 25.806 192.203 26.0521 192.203 26.2344C192.203 26.4349 192.03 26.5534 191.684 26.5898L184.301 26.9727V34.1094L192.531 33.7812C192.896 33.763 193.388 33.6719 194.008 33.5078C194.044 33.4896 194.099 33.4805 194.172 33.4805C194.409 33.4805 194.737 33.6536 195.156 34C195.576 34.3281 195.785 34.6016 195.785 34.8203C195.785 34.9479 195.73 35.0482 195.621 35.1211C195.512 35.194 195.375 35.2305 195.211 35.2305L184.328 35.6133V37.9102L189.168 37.7188C189.569 37.7005 190.052 37.6185 190.617 37.4727C190.672 37.4544 190.745 37.4453 190.836 37.4453C191.036 37.4453 191.255 37.5182 191.492 37.6641C191.747 37.8099 191.966 37.9831 192.148 38.1836C192.331 38.3841 192.422 38.5391 192.422 38.6484C192.422 38.7578 192.367 38.849 192.258 38.9219C192.148 38.9766 192.012 39.0039 191.848 39.0039L184.328 39.3047V43.3516C184.328 43.8073 184.155 44.0352 183.809 44.0352C183.517 44.0352 183.198 43.9076 182.852 43.6523C182.505 43.4154 182.332 43.1328 182.332 42.8047C182.332 42.75 182.35 42.6315 182.387 42.4492C182.514 41.8841 182.578 41.3372 182.578 40.8086V39.3594L177.793 39.5508L177.055 39.5781C176.508 39.5781 176.116 39.4961 175.879 39.332C175.66 39.168 175.487 38.9674 175.359 38.7305C175.232 38.4935 175.168 38.3112 175.168 38.1836C175.168 38.0742 175.223 38.0195 175.332 38.0195C175.405 38.0195 175.469 38.0286 175.523 38.0469C175.888 38.138 176.307 38.1836 176.781 38.1836H177.055L182.578 37.9648L182.605 35.668L174.484 35.9414H173.992C173.281 35.9414 172.798 35.8503 172.543 35.668C172.342 35.4857 172.169 35.2852 172.023 35.0664C171.896 34.8294 171.832 34.6198 171.832 34.4375ZM173.035 30.1172C173.035 29.9896 173.099 29.9258 173.227 29.9258C173.299 29.9258 173.354 29.9349 173.391 29.9531C173.755 30.0443 174.174 30.0898 174.648 30.0898H174.922L177.766 29.9258L177.656 29.3242C177.583 28.8867 177.474 28.5677 177.328 28.3672C177.219 28.2214 177.164 28.1211 177.164 28.0664C177.164 27.9388 177.301 27.875 177.574 27.875C177.866 27.875 178.194 27.9115 178.559 27.9844C178.923 28.0573 179.133 28.2122 179.188 28.4492L179.406 29.7891L180.828 29.7344C181.065 29.7344 181.22 29.7435 181.293 29.7617C181.585 29.8164 181.73 29.9896 181.73 30.2812C181.73 30.4818 181.612 30.6549 181.375 30.8008C181.138 30.9466 180.865 31.0378 180.555 31.0742C180.555 31.0742 180.254 31.1016 179.652 31.1562L179.98 33.125C179.999 33.1797 180.008 33.2526 180.008 33.3438C180.008 33.6901 179.853 33.8633 179.543 33.8633C179.342 33.8633 179.069 33.7812 178.723 33.6172C178.376 33.4531 178.203 33.1615 178.203 32.7422C178.203 32.3776 178.158 31.9036 178.066 31.3203L175.715 31.457C175.241 31.4935 174.913 31.5117 174.73 31.5117C174.311 31.5117 173.974 31.4115 173.719 31.2109C173.464 31.0104 173.281 30.8008 173.172 30.582C173.081 30.3451 173.035 30.1901 173.035 30.1172ZM184.082 21.6953C184.082 21.6589 184.109 21.6224 184.164 21.5859C184.219 21.5495 184.283 21.5404 184.355 21.5586L185.066 21.5312C185.249 21.5312 185.741 21.513 186.543 21.4766C186.561 21.3672 186.598 21.1758 186.652 20.9023C186.707 20.6107 186.734 20.3555 186.734 20.1367V19.9453C186.734 19.6354 186.661 19.3529 186.516 19.0977C186.461 18.9883 186.434 18.9062 186.434 18.8516C186.434 18.7422 186.507 18.6875 186.652 18.6875C186.816 18.6875 187.062 18.7604 187.391 18.9062C187.737 19.0339 188.038 19.1979 188.293 19.3984C188.566 19.599 188.703 19.7904 188.703 19.9727C188.703 20.0638 188.694 20.1276 188.676 20.1641C188.475 20.7839 188.32 21.2122 188.211 21.4492L191.738 21.2305C192.285 21.2122 192.741 21.1393 193.105 21.0117C193.251 20.957 193.388 20.9297 193.516 20.9297C193.771 20.9297 194.053 21.0846 194.363 21.3945C194.673 21.6862 194.828 21.9414 194.828 22.1602C194.828 22.3424 194.628 22.4518 194.227 22.4883L187.582 22.8711C187.108 23.8555 186.762 24.5117 186.543 24.8398C186.342 25.168 186.133 25.332 185.914 25.332C185.732 25.332 185.641 25.2044 185.641 24.9492C185.641 24.8216 185.686 24.6029 185.777 24.293C185.905 23.9648 186.042 23.5182 186.188 22.9531L185.449 23.0078C185.103 23.0078 184.784 22.8802 184.492 22.625C184.201 22.3516 184.064 22.0508 184.082 21.7227V21.6953ZM185.176 29.625C185.176 29.5885 185.203 29.5612 185.258 29.543C185.312 29.5065 185.376 29.4883 185.449 29.4883C185.704 29.4883 185.896 29.4792 186.023 29.4609C186.443 29.4609 187.09 29.4336 187.965 29.3789C187.983 29.2513 187.992 29.0508 187.992 28.7773C187.992 28.2852 187.938 27.9206 187.828 27.6836C187.792 27.5742 187.773 27.4922 187.773 27.4375C187.773 27.2917 187.865 27.2188 188.047 27.2188C188.32 27.2188 188.694 27.3464 189.168 27.6016C189.66 27.8568 189.906 28.0938 189.906 28.3125V28.3945L189.66 29.2969L190.891 29.2148C191.292 29.1966 191.775 29.1055 192.34 28.9414C192.486 28.9049 192.577 28.8867 192.613 28.8867C192.832 28.8867 193.06 28.9688 193.297 29.1328C193.534 29.2969 193.734 29.4883 193.898 29.707C194.062 29.9076 194.145 30.0443 194.145 30.1172C194.145 30.3177 193.953 30.4362 193.57 30.4727L189.168 30.7188C189.04 31.1198 188.776 31.7122 188.375 32.4961C187.992 33.2799 187.646 33.6719 187.336 33.6719C187.154 33.6719 187.062 33.5443 187.062 33.2891L187.117 32.9609C187.19 32.724 187.372 32.0221 187.664 30.8555L186.68 30.9375C186.297 30.9193 185.941 30.7826 185.613 30.5273C185.303 30.2721 185.158 29.9805 185.176 29.6523V29.625Z" fill="#333333"/>
<path d="M241.887 34.4648C241.285 34.2461 241.003 34.0091 241.039 33.7539C241.148 32.9883 241.203 32.1133 241.203 31.1289C241.203 30.6914 241.194 30.3724 241.176 30.1719C241.158 29.9349 241.139 29.7344 241.121 29.5703C241.103 29.388 241.103 29.2878 241.121 29.2695C241.194 29.1966 241.285 29.1602 241.395 29.1602C241.559 29.1602 241.759 29.2331 241.996 29.3789C242.251 29.5247 242.379 29.6706 242.379 29.8164C242.379 29.9076 242.37 29.9987 242.352 30.0898C242.333 30.1628 242.324 30.2448 242.324 30.3359L242.16 33.043C242.16 33.1888 242.215 33.2799 242.324 33.3164H242.461C242.607 33.3164 242.707 33.3073 242.762 33.2891L246.289 32.7969V32.0859C246.289 31.1927 246.271 30.5 246.234 30.0078C246.216 29.5885 246.171 29.2513 246.098 28.9961C246.043 28.7044 246.116 28.5586 246.316 28.5586C246.462 28.5586 246.654 28.6133 246.891 28.7227C247.182 28.8685 247.355 28.9961 247.41 29.1055C247.465 29.1966 247.483 29.3424 247.465 29.543C247.428 29.8711 247.41 30.3633 247.41 31.0195L247.438 33.0977C247.438 33.5352 247.355 33.8815 247.191 34.1367C247.1 34.2461 247.009 34.3008 246.918 34.3008C246.827 34.3008 246.699 34.2188 246.535 34.0547C246.499 34.0182 246.453 33.9635 246.398 33.8906C246.344 33.8177 246.289 33.7721 246.234 33.7539C246.18 33.7357 246.107 33.7266 246.016 33.7266C245.596 33.763 244.585 33.8997 242.98 34.1367C242.707 34.1732 242.488 34.2461 242.324 34.3555C242.142 34.4466 242.023 34.4922 241.969 34.4922L241.887 34.4648ZM252.852 25.332C252.906 25.332 252.961 25.3594 253.016 25.4141C253.07 25.4505 253.107 25.5052 253.125 25.5781V25.6328C253.125 25.7604 253.025 26.0065 252.824 26.3711L250.855 29.7891C250.71 30.099 250.518 30.2539 250.281 30.2539C250.044 30.2539 249.844 30.1081 249.68 29.8164C249.516 29.5794 249.315 29.224 249.078 28.75C248.969 28.5859 248.878 28.4219 248.805 28.2578C248.732 28.0938 248.677 27.9753 248.641 27.9023C248.44 27.556 248.34 27.3099 248.34 27.1641C248.34 27.0911 248.367 27.0365 248.422 27C248.477 26.9453 248.531 26.918 248.586 26.918C248.786 26.918 248.969 27.0273 249.133 27.2461C249.26 27.3737 249.361 27.5104 249.434 27.6562L249.734 28.0664L250.281 28.6953L250.527 28.3125C250.783 27.875 251.384 27.0091 252.332 25.7148C252.533 25.4596 252.706 25.332 252.852 25.332ZM224.059 32.6055C223.785 32.6055 223.576 32.5872 223.43 32.5508C223.284 32.4961 223.156 32.4049 223.047 32.2773C222.865 32.0768 222.728 31.8763 222.637 31.6758C222.546 31.457 222.5 31.2839 222.5 31.1562C222.5 31.0651 222.546 31.0195 222.637 31.0195L222.801 31.0469C223.038 31.1198 223.32 31.1562 223.648 31.1562L224.195 31.1289L226.93 30.9922L227.887 27.0547L226.41 27.1367C226.283 27.1549 226.118 27.1641 225.918 27.1641C225.608 27.1641 225.38 27.1276 225.234 27.0547C225.107 26.9635 224.961 26.7995 224.797 26.5625C224.669 26.3438 224.56 26.0977 224.469 25.8242C224.451 25.7878 224.441 25.7331 224.441 25.6602C224.441 25.6055 224.478 25.5781 224.551 25.5781L224.742 25.6055C225.052 25.6602 225.353 25.6875 225.645 25.6875L226.273 25.6602L228.242 25.5508L228.926 22.6797L225.836 22.8711L225.426 22.8984C225.007 22.8984 224.678 22.7799 224.441 22.543C224.204 22.306 224.022 21.9779 223.895 21.5586C223.876 21.5221 223.867 21.4674 223.867 21.3945C223.867 21.3216 223.913 21.2852 224.004 21.2852C224.077 21.2852 224.141 21.2943 224.195 21.3125C224.505 21.3672 224.815 21.3945 225.125 21.3945H225.508L234.012 20.875C234.34 20.8568 234.65 20.8021 234.941 20.7109L235.297 20.6562C235.497 20.6562 235.771 20.8112 236.117 21.1211C236.482 21.4128 236.664 21.668 236.664 21.8867C236.664 22.1055 236.4 22.2331 235.871 22.2695L230.648 22.5703L229.992 25.4414L233.93 25.1953L234.203 25.168C234.422 25.168 234.677 25.2773 234.969 25.4961C235.26 25.6966 235.406 25.9154 235.406 26.1523C235.406 26.2435 235.379 26.3438 235.324 26.4531C235.288 26.5443 235.26 26.6263 235.242 26.6992L234.477 30.6367L236.09 30.5547C236.418 30.5365 236.801 30.4818 237.238 30.3906C237.421 30.3542 237.548 30.3359 237.621 30.3359C237.895 30.3359 238.168 30.4909 238.441 30.8008C238.733 31.1107 238.879 31.3568 238.879 31.5391C238.879 31.776 238.642 31.9128 238.168 31.9492L224.305 32.6055H224.059ZM212.738 24.6758C212.738 24.5664 212.793 24.5117 212.902 24.5117C212.975 24.5117 213.039 24.5208 213.094 24.5391C213.367 24.612 213.659 24.6484 213.969 24.6484L214.434 24.6211L221.105 24.2383C221.634 24.1471 222.008 24.056 222.227 23.9648C222.336 23.9284 222.418 23.9102 222.473 23.9102C222.691 23.9102 222.983 24.056 223.348 24.3477C223.712 24.6393 223.895 24.9036 223.895 25.1406C223.895 25.3776 223.712 25.5143 223.348 25.5508L214.98 26.0977C214.762 26.1159 214.497 26.125 214.188 26.125C213.878 26.125 213.677 26.0794 213.586 25.9883C213.021 25.4961 212.738 25.0586 212.738 24.6758ZM214.434 34.7656C214.434 34.6562 214.516 34.6016 214.68 34.6016C214.99 34.6016 215.655 34.793 216.676 35.1758L220.941 34.957H221.188C221.424 34.957 221.68 35.0573 221.953 35.2578C222.245 35.4583 222.391 35.6771 222.391 35.9141C222.391 35.987 222.363 36.0781 222.309 36.1875C222.272 36.2786 222.245 36.3607 222.227 36.4336L221.789 40.207C222.208 40.7904 222.418 41.1823 222.418 41.3828C222.418 41.5104 222.363 41.5833 222.254 41.6016C222.145 41.638 221.953 41.6654 221.68 41.6836L217.059 41.8477L217.086 42.2031V42.2852C217.086 42.6862 216.913 42.8867 216.566 42.8867C216.366 42.8867 216.102 42.8138 215.773 42.668C215.445 42.5221 215.281 42.2578 215.281 41.875V41.7109C215.318 41.237 215.336 40.8906 215.336 40.6719V40.3438L215.062 36.7891C215.008 36.1693 214.871 35.668 214.652 35.2852C214.507 35.0482 214.434 34.875 214.434 34.7656ZM214.598 31.457C214.598 31.3659 214.643 31.3203 214.734 31.3203C214.789 31.3203 214.835 31.3294 214.871 31.3477C215.181 31.4206 215.518 31.457 215.883 31.457H216.184L219.82 31.2656C220.185 31.2292 220.504 31.1562 220.777 31.0469C220.887 31.0104 220.969 30.9922 221.023 30.9922C221.242 30.9922 221.497 31.1471 221.789 31.457C222.099 31.7487 222.254 31.9857 222.254 32.168C222.254 32.4232 222.072 32.569 221.707 32.6055L216.73 32.9062H215.938C215.682 32.8698 215.5 32.8242 215.391 32.7695C215.044 32.4779 214.789 32.0951 214.625 31.6211C214.607 31.5846 214.598 31.5299 214.598 31.457ZM214.598 28.0664C214.598 27.957 214.643 27.9023 214.734 27.9023L214.844 27.9297C215.154 28.0026 215.491 28.0391 215.855 28.0391H216.156L219.875 27.793C220.203 27.7565 220.531 27.6927 220.859 27.6016C220.969 27.5651 221.042 27.5469 221.078 27.5469C221.279 27.5469 221.534 27.6836 221.844 27.957C222.172 28.2305 222.336 28.4857 222.336 28.7227C222.336 28.8503 222.281 28.9505 222.172 29.0234C222.062 29.0964 221.926 29.1419 221.762 29.1602L216.703 29.4883C216.557 29.5065 216.357 29.5156 216.102 29.5156C215.938 29.5156 215.819 29.5065 215.746 29.4883C215.582 29.4883 215.454 29.4427 215.363 29.3516C215.199 29.224 215.026 29.0234 214.844 28.75C214.68 28.4583 214.598 28.2305 214.598 28.0664ZM215.801 20.8203C215.801 20.6198 215.865 20.4193 215.992 20.2188C216.138 20.0182 216.311 19.918 216.512 19.918C216.658 19.918 217.113 20.0729 217.879 20.3828C218.663 20.6927 219.592 21.1393 220.668 21.7227C220.868 21.832 221.014 21.9414 221.105 22.0508C221.197 22.1419 221.242 22.2513 221.242 22.3789C221.242 22.5977 221.142 22.8529 220.941 23.1445C220.759 23.418 220.568 23.5547 220.367 23.5547C220.24 23.5547 220.048 23.4727 219.793 23.3086C218.681 22.543 217.542 21.8958 216.375 21.3672C216.174 21.276 216.029 21.194 215.938 21.1211C215.846 21.0299 215.801 20.9297 215.801 20.8203ZM216.949 40.3711L220.203 40.2891L220.504 36.4883L216.676 36.6797L216.949 40.3711ZM224.797 34.5195C224.797 34.4102 224.879 34.3555 225.043 34.3555C225.316 34.3555 225.936 34.5378 226.902 34.9023L234.148 34.5469H234.422C234.714 34.5469 234.996 34.6562 235.27 34.875C235.561 35.0755 235.707 35.2943 235.707 35.5312C235.707 35.6224 235.671 35.7409 235.598 35.8867C235.525 36.0143 235.488 36.1146 235.488 36.1875L234.859 40.0977C235.315 40.6992 235.543 41.1003 235.543 41.3008C235.543 41.4102 235.488 41.474 235.379 41.4922C235.288 41.5286 235.096 41.556 234.805 41.5742L227.285 41.7656L227.367 42.7227V42.8047C227.367 43.1875 227.212 43.3789 226.902 43.3789C226.829 43.3789 226.665 43.3333 226.41 43.2422C226.173 43.151 225.954 43.0234 225.754 42.8594C225.553 42.7135 225.453 42.5404 225.453 42.3398C225.453 42.2487 225.462 42.1667 225.48 42.0938C225.535 41.8021 225.562 41.4831 225.562 41.1367L225.535 40.5352L225.234 36.4883C225.18 35.7956 225.079 35.2852 224.934 34.957C224.842 34.7383 224.797 34.5924 224.797 34.5195ZM227.176 40.2891L233.191 40.125L233.684 36.0508L226.902 36.3789L227.176 40.2891ZM232.781 30.7188L233.465 26.6992L229.609 26.9453L228.68 30.9102L232.781 30.7188Z" fill="#333333"/>
</svg>
