<svg xmlns="http://www.w3.org/2000/svg" width="340" height="60" fill="none"><path fill="#333" d="M52.285 27.137c-.2 0-.446-.155-.738-.465-.219-.219-.328-.383-.328-.492 0-.055.036-.082.11-.082.072-.019.163-.028.273-.028l.601-.027c.346 0 .574-.01.684-.027.346 0 .638-.01.875-.028 1.567-.146 2.625-.264 3.172-.355.273-.037.52-.073.738-.11.219-.054.392-.082.52-.082.255 0 .51.128.765.383.2.2.3.365.3.492 0 .11-.063.183-.19.22-.092.017-.63.054-1.614.108-.547.019-1.221.064-2.023.137-.802.073-1.504.146-2.106.219-.11.018-.264.046-.465.082a3.21 3.21 0 0 1-.574.055Zm6.426 12.414c-.018.018-.064.027-.137.027-.146 0-.355-.1-.629-.3a72.922 72.922 0 0 0-2.433-2.297c-.474.473-.92.884-1.34 1.23-.146.11-.401.273-.766.492-.528.31-1.039.501-1.531.574h-.164c-.164 0-.264-.018-.3-.054-.02-.019.017-.055.108-.11.11-.054.192-.1.247-.136.109-.055.419-.256.93-.602.255-.182.62-.492 1.093-.93.474-.437.82-.793 1.04-1.066l-1.122-.875c-.2-.146-.42-.3-.656-.465a4.54 4.54 0 0 0-.465-.355l-.027-.082c0-.11.09-.164.273-.164.219 0 .574.136 1.066.41l1.395.902c.31-.401.62-.839.93-1.313.328-.492.501-.783.52-.874.017-.055.008-.1-.028-.137-.018-.055-.055-.082-.11-.082h-.546l-.985.082c-.492.036-.984.1-1.476.191a7.458 7.458 0 0 1-.274.082 1.224 1.224 0 0 1-.328.055c-.036 0-.191-.1-.465-.3-.255-.22-.392-.356-.41-.411-.018-.018-.027-.046-.027-.082 0-.091.1-.128.3-.11h.383c.51 0 1.249-.045 2.215-.136l.93-.082.848-.11c.273-.073.428-.109.464-.109h.055a.4.4 0 0 1 .246.082c.073.055.128.11.164.164a.823.823 0 0 0 .082.11l.164.164a.432.432 0 0 1 .164.218.338.338 0 0 1 .055.192c0 .164-.064.282-.191.355-.091.037-.256.228-.492.574a25.744 25.744 0 0 1-1.45 2.051c.31.2.711.492 1.203.875.22.146.575.392 1.067.739.218.164.383.382.492.656.073.291.11.51.11.656-.019.146-.083.246-.192.3Zm1.531-9.735c.091 0 .228.064.41.192-.018.036.019.11.11.219l.191.191c.091.091.182.2.274.328.109.128.227.264.355.41.328.347 1.085 1.249 2.27 2.707.2.292.3.465.3.52 0 .182-.109.273-.328.273-.127 0-.264-.09-.41-.273-.346-.365-.966-.939-1.86-1.723-.692-.638-1.32-1.13-1.886-1.476-.273-.128-.41-.274-.41-.438 0-.127.136-.31.41-.547.255-.255.447-.383.574-.383Zm-18.156-1.722c-.346 2.26-.811 4.256-1.395 5.988a16.78 16.78 0 0 1-2.488 4.813c-1.094 1.458-2.516 2.743-4.266 3.855-.364.237-.637.355-.82.355-.127 0-.191-.054-.191-.164 0-.218.182-.483.547-.793 1.312-1.203 2.397-2.424 3.254-3.664.875-1.24 1.604-2.68 2.187-4.32.583-1.659 1.048-3.646 1.395-5.96l-1.996.136c-.51.036-.839.055-.985.055-.346 0-.61-.064-.793-.192a2.68 2.68 0 0 1-.547-.738c-.146-.328-.218-.565-.218-.711 0-.091.045-.137.136-.137.091 0 .164.01.219.027.365.073.757.11 1.176.11h.3l2.926-.164c.237-1.95.356-3.81.356-5.578 0-.529-.082-.966-.246-1.313a.852.852 0 0 1-.11-.355c0-.128.082-.192.246-.192.164 0 .41.046.739.137.328.073.62.2.875.383.273.182.41.428.41.738v.055c0 .838-.046 1.713-.137 2.625a85.314 85.314 0 0 1-.355 3.39l3.992-.246h.191c.31 0 .584.091.82.274.238.182.356.392.356.629 0 .09-.027.218-.082.383a1.5 1.5 0 0 0-.055.328c-.145 4.903-.556 9.078-1.23 12.523-.11.583-.228 1.057-.356 1.422-.127.383-.31.674-.547.875-.364.31-.701.465-1.011.465-.365 0-.966-.283-1.805-.848a20.659 20.659 0 0 1-2.297-1.832c-.71-.656-1.066-1.085-1.066-1.285 0-.146.1-.219.3-.219.165 0 .365.064.602.192 2.151 1.203 3.482 1.804 3.992 1.804.11 0 .174-.063.192-.191.456-1.732.811-3.728 1.066-5.988a66.57 66.57 0 0 0 .41-6.891l-3.691.219ZM24.723 37.91c0-.091.054-.182.164-.273.127-.091.264-.173.41-.246.328-.183.547-.338.656-.465.948-1.112 2.206-2.871 3.774-5.278l1.066-1.695c-.984.182-1.932.346-2.844.492-.911.146-1.531.22-1.86.22-.2 0-.391-.147-.573-.438-.164-.292-.246-.566-.246-.82 0-.201.136-.338.41-.41.383-.128.802-.557 1.258-1.286 2.242-3.646 3.363-6.198 3.363-7.656 0-.2.082-.301.246-.301.127 0 .328.064.601.191.274.11.51.256.711.438.22.164.328.346.328.547 0 .273-.054.51-.164.71a35.9 35.9 0 0 1-1.64 3.5 32.013 32.013 0 0 1-2.16 3.61c.656-.055 1.85-.228 3.582-.52.93-1.64 1.394-2.697 1.394-3.171 0-.274.091-.41.274-.41.218 0 .51.145.875.437.383.273.574.529.574.766 0 .2-.046.419-.137.656-.219.51-.693 1.376-1.422 2.598a65.905 65.905 0 0 1-2.543 3.992 44.7 44.7 0 0 1-2.98 3.91 50.491 50.491 0 0 0 5.66-1.313 7.64 7.64 0 0 0-.465-.738c-.127-.2-.228-.365-.3-.492a8.961 8.961 0 0 1-.383-.602c-.164-.255-.246-.446-.246-.574 0-.164.09-.319.273-.465.2-.146.41-.218.629-.218.2 0 .41.154.629.464a31.192 31.192 0 0 1 1.804 3.008c.62 1.112.93 1.768.93 1.969 0 .255-.128.465-.383.629-.255.146-.474.228-.656.246h-.055c-.218 0-.4-.155-.547-.465a13.786 13.786 0 0 0-.574-1.45l-1.722.466c-3.828 1.075-6.016 1.613-6.563 1.613-.255-.018-.51-.164-.765-.438-.256-.291-.383-.537-.383-.738ZM99.016 35.203c-.237 0-.483-.036-.739-.11-.255-.09-.437-.19-.546-.3-.073-.073-.146-.2-.22-.383a2.096 2.096 0 0 1-.081-.547l.11-4.73c0-.328-.047-.61-.138-.848a.382.382 0 0 1-.027-.164c0-.127.064-.191.191-.191.11 0 .228.036.356.11.656.29.939.564.847.82-.109.273-.19.856-.246 1.75a72.226 72.226 0 0 0-.054 2.925c0 .219.036.392.11.52.09.11.245.155.464.136.474-.036.766-.09.875-.164.128-.09.21-.145.246-.164.255 0 .447.046.574.137.146.091.219.21.219.355 0 .256-.146.447-.437.575a3.233 3.233 0 0 1-.711.191 4.338 4.338 0 0 1-.793.082Zm-5.36.11a.38.38 0 0 1-.164-.028c-.036-.018-.055-.045-.055-.082 0-.036.137-.173.41-.41.292-.255.566-.656.821-1.203.182-.383.31-.748.383-1.094.073-.346.127-.684.164-1.012.036-.346.064-.583.082-.71.018-.292.027-.657.027-1.094 0-.438-.045-.73-.136-.875a.419.419 0 0 1-.055-.164c0-.073.027-.137.082-.192a.262.262 0 0 1 .191-.082c.146 0 .328.037.547.11.237.054.401.136.492.246.055.073.082.191.082.355l-.054.574c0 .091-.019.283-.055.575-.018.164-.064.556-.137 1.175-.054.62-.146 1.14-.273 1.559-.128.401-.301.73-.52.984-.273.328-.62.638-1.039.93-.4.292-.665.438-.793.438Zm12.086-11.786c.219 0 .328.1.328.301 0 .11-.1.264-.3.465-.547.674-1.632 1.96-3.254 3.855-.128.165-.246.247-.356.247-.091 0-.292-.137-.601-.41-.256-.22-.383-.402-.383-.547 0-.165.136-.32.41-.465.419-.237 1.048-.711 1.887-1.422.838-.748 1.458-1.34 1.859-1.778.164-.164.301-.246.41-.246ZM81.379 39.25c0 .383.064.684.191.902.128.22.438.401.93.547.51.128 1.294.192 2.352.192 1.294 0 2.533-.137 3.718-.41.328-.073.575-.192.739-.356.182-.182.346-.583.492-1.203.164-.62.328-1.595.492-2.926.036-.346.1-.61.191-.793.092-.2.192-.3.301-.3.219 0 .356.3.41.902.073.583.11 1.166.11 1.75 0 1.312-.046 2.278-.137 2.898-.091.62-.31 1.076-.656 1.367-.328.31-.866.492-1.614.547-1.768.164-3.244.246-4.43.246-1.366 0-2.387-.063-3.062-.191-.674-.11-1.185-.392-1.531-.848-.328-.456-.492-1.176-.492-2.16v-.219l.164-7.136-2.27.109c-.565 2.789-1.64 5.004-3.226 6.645-1.586 1.622-3.154 2.752-4.703 3.39-1.55.656-2.58.984-3.09.984-.2 0-.301-.054-.301-.164 0-.164.228-.364.684-.601 1.586-.875 2.889-1.714 3.91-2.516 1.039-.802 1.96-1.814 2.761-3.035.803-1.24 1.431-2.78 1.887-4.621l-3.308.164.027.438v.109c0 .401-.137.602-.41.602-.255 0-.574-.128-.957-.383-.365-.274-.547-.529-.547-.766l.027-.191a4.962 4.962 0 0 0 .082-.93 3 3 0 0 0-.027-.465l-.574-5.77c-.091-.874-.21-1.467-.356-1.777-.11-.291-.164-.455-.164-.492 0-.128.091-.191.274-.191.255 0 .765.118 1.53.355a24.178 24.178 0 0 0 2.872-1.367 18.455 18.455 0 0 0 2.488-1.695.99.99 0 0 0 .219-.246c.073-.128.128-.256.164-.383.091-.347.2-.52.328-.52.091 0 .246.119.465.356.219.218.41.474.574.765.182.292.274.556.274.793 0 .183-.11.347-.328.492a33.08 33.08 0 0 1-3.309 1.75 28.645 28.645 0 0 1-3.363 1.34l.191 2.188 3.61-.246c.346-.018.656-.091.93-.22.163-.072.318-.108.464-.108.2 0 .401.082.602.246.2.146.364.328.492.547.127.2.191.355.191.464 0 .256-.255.401-.766.438l-5.413.355.273 3.035 13.371-.683.273-2.926-3.91.219a9.58 9.58 0 0 1-.82.027c-.438 0-.757-.073-.957-.219-.292-.255-.492-.5-.602-.738-.109-.237-.164-.42-.164-.547 0-.09.055-.136.164-.136.073 0 .137.009.192.027.237.073.565.11.984.11h.383l4.867-.274.246-2.844-5.195.3a4.54 4.54 0 0 1-.547.028c-.383 0-.683-.1-.902-.3-.2-.22-.401-.593-.602-1.122a.304.304 0 0 1-.027-.136c0-.073.055-.11.164-.11.11 0 .2.01.273.028.237.073.529.109.875.109l.438-.027 5.879-.383.382-.027c.237 0 .502.109.793.328.31.2.465.4.465.601a.645.645 0 0 1-.082.274c-.036.109-.063.218-.082.328l-.793 7.41c.474.492.711.857.711 1.094 0 .2-.219.319-.656.355l-5.36.274-.136 7.136v.137ZM136.887 28.996c-.602-.219-.884-.456-.848-.71.109-.767.164-1.642.164-2.626a11.964 11.964 0 0 0-.082-1.558c-.018-.183-.018-.283 0-.301a.372.372 0 0 1 .274-.11c.164 0 .364.073.601.22.255.145.383.29.383.437 0 .09-.009.182-.027.273a.978.978 0 0 0-.028.246l-.164 2.707c0 .146.055.237.164.274h.137c.146 0 .246-.01.301-.028l3.527-.492v-.71c0-.894-.018-1.587-.055-2.079-.018-.42-.063-.756-.136-1.012-.055-.291.018-.437.218-.437.146 0 .338.055.575.164.291.146.464.273.519.383.055.09.073.237.055.437-.037.328-.055.82-.055 1.477l.028 2.078c0 .437-.083.784-.247 1.039-.091.11-.182.164-.273.164-.091 0-.219-.082-.383-.246a1.693 1.693 0 0 1-.137-.164.36.36 0 0 0-.164-.137.701.701 0 0 0-.218-.027c-.42.036-1.431.173-3.036.41-.273.036-.492.11-.656.219-.182.09-.301.136-.355.136l-.082-.027Zm3.472 5.879c-.182.237-.373.355-.574.355-.055 0-.082-.045-.082-.136 0-.128.037-.274.109-.438l.547-1.093c.019-.073.046-.146.082-.22a1.4 1.4 0 0 0 .082-.19v-.028c0-.036-.027-.073-.082-.11a.229.229 0 0 0-.191-.027 23.25 23.25 0 0 0-1.312.137c-.566.073-.985.146-1.258.219l-.41.136a1.074 1.074 0 0 1-.356.083c-.328 0-.602-.1-.82-.301a1.669 1.669 0 0 1-.41-.383l-.055-.137c0-.091.155-.118.465-.082.419.037 1.285-.018 2.597-.164l.547-.082c.146-.018.374-.046.684-.082a6.62 6.62 0 0 0 .766-.164l.164-.055a.434.434 0 0 1 .191-.054c.091 0 .2.045.328.136.146.091.264.173.356.246.127.092.209.174.246.246.054.055.073.128.054.22 0 .09-.045.172-.136.245a2.563 2.563 0 0 0-.192.164 4.312 4.312 0 0 1-.383.41 4.476 4.476 0 0 1-.492.602c-.219.255-.373.438-.465.547Zm-1.367 5.387c0-.055.091-.192.274-.41l.464-.547c.274-.365.602-.894.985-1.586.401-.693.629-1.149.683-1.367.037-.11-.018-.164-.164-.164-.291 0-1.093.081-2.406.246-.857.109-1.495.218-1.914.328a.526.526 0 0 1-.273.082c-.146 0-.301-.1-.465-.301a.725.725 0 0 1-.11-.355c0-.073.046-.146.137-.22l.082-.109a5.86 5.86 0 0 0 .192-.437c.072-.182.136-.356.191-.52.091-.291.155-.61.191-.957.019-.2.128-.255.329-.164.255.128.446.255.574.383.146.11.191.191.136.246a2.722 2.722 0 0 0-.437.738 7.296 7.296 0 0 0-.164.575c0 .073.045.109.137.109.273 0 .683-.046 1.23-.137l1.148-.136c.456-.055.821-.11 1.094-.164l.684-.137a.712.712 0 0 1 .219-.028c.091 0 .182.037.273.11.091.054.191.127.301.219.182.164.301.3.355.41.055.09.082.2.082.328 0 .073-.054.164-.164.273-.091.11-.2.283-.328.52-.529 1.075-1.212 1.978-2.051 2.707a3.768 3.768 0 0 1-.793.465 3.232 3.232 0 0 1-.355.082c-.091 0-.137-.028-.137-.082Zm8.75-12.633c.219 0 .328.1.328.3 0 .11-.1.265-.3.466-.547.674-1.632 1.96-3.254 3.855-.128.164-.246.246-.356.246-.091 0-.292-.137-.601-.41-.256-.219-.383-.401-.383-.547 0-.164.136-.319.41-.465.419-.237 1.048-.71 1.887-1.422.838-.747 1.458-1.34 1.859-1.777.164-.164.301-.246.41-.246Zm-35.41 15.504c0 .474-.155.71-.465.71-.273 0-.583-.118-.929-.355-.347-.237-.52-.538-.52-.902 0-.146.009-.255.027-.328a8.51 8.51 0 0 0 .164-1.778l-.027-17.882a3.21 3.21 0 0 0-.355-1.504c-.11-.256-.165-.41-.165-.465 0-.128.092-.192.274-.192.292 0 .957.183 1.996.547l17.008-.93h.246c.401 0 .738.12 1.012.356.273.237.41.456.41.656a.844.844 0 0 1-.082.301.624.624 0 0 0-.082.246l-.082 18.512c.583.656.875 1.094.875 1.313 0 .127-.073.21-.219.246-.146.036-.383.054-.711.054l-18.375.328v1.067Zm0-2.543 16.68-.383.054-18.566-16.789.847.055 18.102Zm.957-13.098c0-.073.037-.11.109-.11.092 0 .164.01.219.028.219.073.501.11.848.11h.273l4.95-.274v-1.45l-2.024.138a7.436 7.436 0 0 1-.711.027c-.237 0-.446-.064-.629-.191-.182-.128-.364-.42-.547-.875a.641.641 0 0 1-.082-.247c0-.09.055-.136.164-.136.073 0 .137.009.192.027.219.073.501.11.847.11h.274l2.516-.137v-.739c0-.328-.11-.665-.329-1.011a.655.655 0 0 1-.082-.274c0-.146.101-.218.301-.218.201 0 .501.072.902.218.329.128.538.237.629.328.092.073.137.2.137.383v1.23l1.723-.109c.054 0 .182-.009.383-.027.2-.018.391-.064.574-.137a.896.896 0 0 1 .273-.054c.274 0 .538.127.793.382.274.256.41.474.41.657 0 .2-.191.319-.574.355l-3.609.219v1.45l4.484-.247c.383-.018.702-.082.957-.191a.875.875 0 0 1 .246-.055c.201 0 .456.127.766.383.31.255.465.501.465.738 0 .219-.192.346-.575.383l-12.332.683a7.427 7.427 0 0 1-.71.028h-.247c-.255-.055-.483-.237-.683-.547-.201-.31-.301-.593-.301-.848Zm.383 10.828c0-.182.164-.364.492-.547a24.809 24.809 0 0 0 2.844-1.968c.911-.73 1.595-1.377 2.051-1.942l-1.45.055v.191c0 .347-.136.52-.41.52-.2 0-.437-.073-.711-.219-.255-.164-.383-.355-.383-.574v-.191c0-.092.01-.183.028-.274.018-.091.027-.173.027-.246 0-.11-.018-.31-.055-.602l-.136-1.34c-.073-.564-.173-.984-.301-1.257-.091-.182-.137-.31-.137-.383 0-.11.073-.164.219-.164.237 0 .72.155 1.449.465l7.028-.356.382-.027c.274 0 .502.11.684.328.2.2.301.365.301.492a.497.497 0 0 1-.082.246 3.59 3.59 0 0 0-.082.22l-.328 1.667c.328.401.492.693.492.875 0 .11-.055.182-.164.219-.11.036-.274.064-.492.082l-3.883.164a.308.308 0 0 1 .027.137c0 .182-.501.674-1.504 1.476l-.055 2.762c.711-.237 1.696-.665 2.954-1.285a.778.778 0 0 1 .41-.137c.146 0 .218.055.218.164 0 .273-.574.802-1.722 1.586a47.644 47.644 0 0 0-1.996 1.395 3.755 3.755 0 0 1-.438.273.641.641 0 0 1-.273.082c-.183 0-.392-.1-.629-.3-.219-.22-.292-.402-.219-.548.073-.127.137-.419.192-.875.072-.474.118-.83.136-1.066l.028-1.04c-.948.62-1.842 1.131-2.68 1.532-.839.383-1.367.574-1.586.574-.164 0-.246-.054-.246-.164Zm3.828-5.687 6.234-.274.192-1.586-6.563.329.137 1.53Zm4.539 2.87c0-.072.055-.2.164-.382.128-.2.283-.3.465-.3.164 0 .738.327 1.723.984.692-.638 1.148-1.103 1.367-1.395.219-.291.355-.583.41-.875.018-.237.091-.355.219-.355.054 0 .173.063.355.191.201.128.374.283.52.465.164.182.246.355.246.52 0 .163-.246.455-.738.874-.493.42-.994.812-1.504 1.176 1.13.802 1.832 1.331 2.105 1.586.292.237.438.42.438.547 0 .128-.092.328-.274.602-.182.273-.364.41-.547.41-.073 0-.182-.055-.328-.164-1.44-1.35-2.853-2.48-4.238-3.39-.255-.147-.383-.31-.383-.493ZM181.676 30.746c-.292 0-.465-.146-.52-.437-.109-.31-.401-.693-.875-1.149l.082-.11c.073.037.283.128.629.274.347.128.584.192.711.192h.246a.538.538 0 0 0 .192-.137c.218-.164.492-.538.82-1.121.237-.474.447-1.03.629-1.668.2-.638.301-1.121.301-1.45 0-.09-.073-.136-.219-.136l-1.039.055-.711.054-.465.028-.191.027c.127.091.209.173.246.246a.298.298 0 0 1 .082.219c0 .091-.11.346-.328.765-.183.401-.474.857-.875 1.368-.329.437-.775.911-1.34 1.422-.547.492-.957.747-1.231.765a.521.521 0 0 1-.164-.027.187.187 0 0 1-.054-.137c0-.018.145-.191.437-.52l.766-.902c.547-.729 1.103-1.659 1.668-2.789.054-.146.027-.228-.082-.246-.11.018-.338.046-.684.082a3.535 3.535 0 0 0-.93.164.865.865 0 0 0-.191.082.902.902 0 0 1-.274.055.37.37 0 0 1-.273-.11l-.219-.19c-.164-.128-.246-.247-.246-.356 0-.037.018-.092.055-.165l.137-.218.355-.438c.164-.2.346-.474.547-.82.036-.073.109-.237.219-.492.127-.255.191-.41.191-.465v-.11c0-.109.018-.182.055-.218.036-.037.118-.037.246 0 .128.036.282.137.465.3l.301.301a.265.265 0 0 1 .082.192c0 .182-.256.51-.766.984a3.135 3.135 0 0 0-.328.41c-.128.183-.192.301-.192.356 0 .11.082.146.247.11l.628-.083c1.441-.219 2.525-.346 3.254-.383l.739-.11.246-.054.136-.027c.146 0 .247.018.301.055.055.036.11.1.164.191.055.073.11.137.164.191.128.146.219.274.274.383l.054.246-.054.11-.055.164a1.575 1.575 0 0 0-.082.273 1.98 1.98 0 0 1-.082.246c-.383 1.477-.829 2.625-1.34 3.446-.164.291-.446.583-.847.875-.383.291-.721.437-1.012.437Zm2.488 8.695c-.273 0-.538-.2-.793-.601a8.644 8.644 0 0 0-.957-1.258l-.711-.738c-.383.437-.72.784-1.012 1.039a5.413 5.413 0 0 1-1.039.738c-.784.456-1.44.684-1.968.684-.128 0-.192-.046-.192-.137 0-.055.173-.173.52-.355.346-.183.674-.402.984-.657.784-.656 1.431-1.33 1.942-2.023-.11-.11-.657-.584-1.641-1.422a9.141 9.141 0 0 1-.574-.465 7.016 7.016 0 0 1-.328-.246c-.165-.128-.247-.219-.247-.273 0-.092.046-.137.137-.137.274 0 .711.191 1.313.574.601.365 1.23.802 1.886 1.313.256-.31.456-.602.602-.875.146-.274.31-.611.492-1.012.091-.2.146-.374.164-.52.018-.164.028-.264.028-.3 0-.201.054-.301.164-.301.127 0 .3.1.519.3.383.365.574.611.574.739 0 .073-.045.155-.136.246-.219.219-.42.51-.602.875-.109.219-.31.529-.601.93-.092.109-.165.21-.219.3-.055.091-.11.174-.164.246.419.31 1.039.839 1.859 1.586.201.183.328.356.383.52.073.146.109.346.109.602a.78.78 0 0 1-.136.464.443.443 0 0 1-.356.164Zm5.578-11.812c.219 0 .328.1.328.3 0 .11-.1.265-.3.466-.547.674-1.632 1.96-3.254 3.855-.128.164-.246.246-.356.246-.091 0-.292-.137-.601-.41-.256-.219-.383-.401-.383-.547 0-.164.136-.319.41-.465.419-.237 1.048-.71 1.887-1.422.838-.747 1.458-1.34 1.859-1.777.164-.164.301-.246.41-.246Zm-25.949 11.95c0 .218-.119.327-.355.327-.219 0-.484-.082-.793-.246-.31-.182-.465-.364-.465-.547l.027-.273a7.96 7.96 0 0 0 .055-.848v-.3l-.219-5.005c-.036-.51-.128-.92-.273-1.23-.11-.255-.165-.401-.165-.438 0-.127.101-.19.301-.19.237 0 .775.108 1.614.327l7.683-.383c.565 0 .939.11 1.121.329.201.2.301.373.301.52a.662.662 0 0 1-.055.245 2.657 2.657 0 0 1-.054.192l-.356 5.632c.347.438.52.766.52.985 0 .09-.046.155-.137.191a1.601 1.601 0 0 1-.41.082l-8.34.274v.355Zm-13.945-15.04c0-.11.054-.164.164-.164.073 0 .136.01.191.027.274.073.565.11.875.11l.465-.028 6.016-.382c.528-.092.902-.183 1.121-.274a.865.865 0 0 1 .246-.055c.219 0 .51.146.875.438.364.292.547.556.547.793s-.183.374-.547.41l-7.711.547a9.725 9.725 0 0 1-.793.027c-.31 0-.511-.045-.602-.136-.565-.493-.847-.93-.847-1.313Zm1.75 9.79c0-.11.073-.165.218-.165.292 0 .948.191 1.969.574l4.211-.246h.219c.292 0 .556.119.793.356.255.237.383.437.383.601a.655.655 0 0 1-.082.274 1.817 1.817 0 0 0-.082.246l-.438 3.718c.419.584.629.967.629 1.149 0 .11-.046.173-.137.191a.88.88 0 0 1-.328.055 2.205 2.205 0 0 1-.273.027l-4.512.192.027.52v.081c0 .401-.164.602-.492.602-.237 0-.51-.091-.82-.273a.796.796 0 0 1-.438-.739v-.164c.037-.474.055-.82.055-1.039v-.328l-.273-3.61c-.055-.62-.192-1.12-.411-1.503-.145-.237-.218-.41-.218-.52Zm.191-3.145c0-.092.046-.137.137-.137.054 0 .1.009.136.027.31.073.648.11 1.012.11h.301l3.527-.192c.365-.036.684-.11.957-.219a.878.878 0 0 1 .246-.054c.219 0 .474.155.766.465.31.291.465.528.465.71 0 .256-.182.402-.547.438l-4.867.3h-.793c-.255-.036-.438-.081-.547-.136a2.561 2.561 0 0 1-.766-1.148.385.385 0 0 1-.027-.164Zm0-3.282c0-.109.046-.164.137-.164l.109.028c.31.073.647.109 1.012.109h.301l3.609-.246c.328-.037.656-.1.984-.192a.906.906 0 0 1 .219-.054c.201 0 .456.137.766.41.328.273.492.529.492.766a.344.344 0 0 1-.164.3.908.908 0 0 1-.41.137l-4.949.328a5.142 5.142 0 0 1-.602.028 1.62 1.62 0 0 1-.355-.028c-.165 0-.292-.045-.383-.137-.164-.127-.338-.328-.52-.601-.164-.292-.246-.52-.246-.684Zm.848-7.246c0-.218.064-.428.191-.629.146-.218.319-.328.52-.328.145 0 .601.155 1.367.465.784.31 1.713.757 2.789 1.34.2.11.346.219.437.328.092.091.137.2.137.328 0 .219-.091.474-.273.766-.164.273-.356.41-.575.41-.145 0-.346-.082-.601-.246a23.452 23.452 0 0 0-3.473-1.887c-.346-.127-.519-.31-.519-.547Zm1.422 19.25 3.199-.136.301-3.774-3.774.191.274 3.72Zm4.511 3.418c0-.2.201-.364.602-.492 2.133-.747 3.874-1.577 5.223-2.488.072-.037.118-.073.136-.11.219-.145.392-.328.52-.547.127-.182.237-.273.328-.273.146 0 .292.1.437.3.164.201.301.43.411.684.127.237.191.392.191.465 0 .164-.091.292-.273.383a22.396 22.396 0 0 1-3.254 1.367c-1.021.347-1.869.584-2.543.711-.675.128-1.121.192-1.34.192-.292 0-.438-.064-.438-.192Zm1.176-17.445c0-.11.082-.164.246-.164.274 0 .83.118 1.668.355l11.649-.656h.164c.2 0 .419.091.656.273.255.165.383.338.383.52a.69.69 0 0 1-.082.3 1.243 1.243 0 0 0-.11.22l-.41 1.722c.347.365.52.63.52.793 0 .11-.064.182-.192.219a2.473 2.473 0 0 1-.547.082l-11.73.547v.055c0 .255-.137.382-.41.382-.128 0-.292-.027-.492-.082-.274-.073-.465-.164-.575-.273a.558.558 0 0 1-.164-.41v-.137c.037-.365.055-.583.055-.656 0-.146-.009-.256-.027-.328l-.192-1.313c-.054-.456-.146-.802-.273-1.039-.091-.219-.137-.355-.137-.41Zm.027-4.54c0-.108.055-.163.165-.163a.61.61 0 0 1 .191.027c.292.073.656.11 1.094.11h.246l4.648-.301v-.739c0-.455-.091-.829-.273-1.12-.073-.128-.11-.229-.11-.301 0-.128.101-.192.301-.192.274 0 .62.064 1.039.192.419.127.629.291.629.492v1.586l3.719-.246a5.07 5.07 0 0 0 1.258-.22.565.565 0 0 1 .218-.026c.256 0 .547.127.875.382.347.237.52.456.52.657 0 .2-.137.319-.41.355l-6.207.383v1.23l1.64-.082c.42-.036.83-.1 1.231-.191a.83.83 0 0 1 .246-.027c.31 0 .638.154.984.464.219.183.328.356.328.52 0 .2-.145.319-.437.355l-7.328.41a16.17 16.17 0 0 1-.902.055c-.347 0-.602-.073-.766-.219a2.414 2.414 0 0 1-.656-.82.384.384 0 0 1-.055-.219c0-.09.064-.136.191-.136.073 0 .137.009.192.027.273.073.62.11 1.039.11h.273l2.489-.137-.028-1.258-3.91.246a15.75 15.75 0 0 1-.93.055c-.656 0-1.139-.347-1.449-1.04l-.055-.218Zm2.079 7.575 2.597-.137-.137-1.668-2.624.137.164 1.668Zm1.722 4.594 7.356-.328.054-1.176-7.464.328.054 1.176Zm.082 2.215 7.192-.301.054-1.149-7.3.329.054 1.12Zm.082 2.324 7.028-.219.054-1.312-7.136.273.054 1.258Zm2.16-9.324 2.297-.11.137-1.722-2.57.136.136 1.696Zm2.899 11.511c0-.145.055-.31.164-.492.182-.31.383-.465.601-.465.219 0 .611.137 1.176.41.584.256 1.778.848 3.582 1.778.365.164.547.383.547.656 0 .146-.073.374-.219.684-.145.31-.328.465-.546.465-.164 0-.374-.092-.629-.274a21.08 21.08 0 0 0-4.129-2.215 1.642 1.642 0 0 1-.41-.218.444.444 0 0 1-.137-.329Zm3.637-11.812.273-1.75-2.871.164-.164 1.723 2.762-.137ZM223.266 30.473c-.146 0-.292-.028-.438-.082a.715.715 0 0 1-.328-.328c-.055-.165-.173-.356-.355-.575a2.108 2.108 0 0 0-.493-.492l.11-.137c.091.055.31.164.656.328.346.165.602.247.766.247a.987.987 0 0 0 .683-.274c.201-.182.456-.529.766-1.039a7 7 0 0 0 .601-1.23c.183-.474.319-.912.411-1.313l.027-.055c0-.054-.018-.1-.055-.136-.036-.055-.073-.082-.109-.082l-1.258.11c-.839.145-1.714.263-2.625.355a2.862 2.862 0 0 0-.574.136c-.219.073-.374.11-.465.11-.146 0-.337-.119-.574-.356a1.94 1.94 0 0 1-.274-.273c-.073-.11-.091-.2-.054-.274l.218-.218.137-.11c.255-.255.51-.592.766-1.012.182-.255.373-.683.574-1.285 0-.2.045-.3.137-.3.054 0 .145.036.273.109l.438.273c.109.091.182.164.218.22a.384.384 0 0 1 .055.218c0 .11-.073.246-.219.41a4.152 4.152 0 0 0-.383.438l-.628.902-.055.11c0 .054.073.081.219.081l2.105-.273 1.422-.11.547-.054.301-.055h.082c.182 0 .382.155.601.465.255.237.383.437.383.601l-.137.356c-.018.036-.164.465-.437 1.285-.328.784-.611 1.376-.848 1.777s-.492.711-.765.93c-.493.401-.967.602-1.422.602Zm3.39 4.648c.201.219.301.401.301.547 0 .128-.073.246-.219.355-.091.073-.319.474-.683 1.204a9.23 9.23 0 0 1-1.34 1.722c-.474.474-.948.82-1.422 1.04a.902.902 0 0 1-.273.054c-.073 0-.11-.018-.11-.055v-.054c0-.11.091-.237.274-.383.328-.255.574-.51.738-.766.182-.273.319-.474.41-.601.383-.547.656-.994.82-1.34.183-.31.31-.63.383-.957h-.109c-.474 0-1.24.054-2.297.164-.164.018-.638.082-1.422.191a8.994 8.994 0 0 0-.766.137l-.328.082a.485.485 0 0 1-.218.055.73.73 0 0 1-.274-.055 2.488 2.488 0 0 1-.273-.191c-.219-.183-.328-.338-.328-.465a.857.857 0 0 0 .054-.164.434.434 0 0 0 .055-.192l.137-.902c.018-.091.036-.191.054-.3.019-.11.028-.22.028-.329 0-.346-.009-.62-.028-.82a3.02 3.02 0 0 0-.082-.684v-.082c0-.128.055-.191.164-.191.11 0 .301.082.575.246.364.255.546.455.546.601 0 .055-.009.1-.027.137a5.594 5.594 0 0 1-.055.11c-.054.328-.082.51-.082.546l-.136 1.45c0 .036.018.081.054.136.055.037.11.055.164.055.438 0 1.422-.11 2.954-.328.601-.055 1.029-.119 1.285-.192.164-.018.3-.045.41-.082a.877.877 0 0 1 .246-.082.885.885 0 0 1 .219-.054c.164 0 .364.145.601.437Zm5.196-5.687c.054 0 .109.027.164.082a.267.267 0 0 1 .109.164v.054c0 .128-.1.374-.301.739l-1.969 3.418c-.145.31-.337.465-.574.465-.237 0-.437-.146-.601-.438a9.254 9.254 0 0 1-.602-1.066 3.363 3.363 0 0 1-.273-.493 10.7 10.7 0 0 0-.164-.355c-.201-.346-.301-.592-.301-.738 0-.073.027-.128.082-.164.055-.055.109-.082.164-.082.2 0 .383.109.547.328.127.127.228.264.301.41l.3.41.547.629.246-.383c.256-.437.857-1.303 1.805-2.598.201-.255.374-.382.52-.382ZM205.41 42.996c0 .492-.182.738-.547.738-.164 0-.355-.054-.574-.164-.547-.273-.82-.592-.82-.957 0-.073.009-.136.027-.191a8.737 8.737 0 0 0 .192-1.695v-2.762l-3.309.137h-.492c-.492 0-.83-.092-1.012-.274a2.092 2.092 0 0 1-.383-.547 2.619 2.619 0 0 1-.219-.574.385.385 0 0 1-.027-.164c0-.073.037-.11.109-.11.055 0 .101.01.137.028.365.091.711.137 1.039.137l.465-.028 3.692-.136v-8.34c-1.441 2.479-2.99 4.575-4.649 6.289-1.659 1.695-3.154 2.971-4.484 3.828-1.313.857-2.142 1.285-2.489 1.285-.164 0-.246-.064-.246-.191 0-.146.146-.338.438-.575 1.859-1.385 3.709-3.117 5.551-5.195 1.859-2.078 3.518-4.411 4.976-7l-5.851.328c-.219.018-.493.028-.821.028-.346 0-.665-.073-.957-.22-.291-.145-.538-.491-.738-1.038l-.055-.219c0-.128.073-.191.219-.191a.38.38 0 0 1 .164.027c.292.073.665.11 1.121.11h.41l7.411-.41v-4.786c0-.456-.119-.848-.356-1.176-.091-.146-.137-.255-.137-.328 0-.127.11-.191.328-.191.092 0 .292.027.602.082.31.055.602.164.875.328.273.146.41.346.41.601v5.36l6.754-.383c.51-.036.912-.11 1.203-.219a.875.875 0 0 1 .246-.054c.255 0 .584.182.985.546.419.347.629.611.629.793 0 .201-.228.32-.684.356l-8.422.465c1.932 2.57 3.819 4.758 5.66 6.562 1.841 1.805 3.819 3.245 5.934 4.32.255.146.383.265.383.356 0 .11-.21.3-.629.574-.401.274-.711.41-.93.41a.727.727 0 0 1-.328-.082 1.39 1.39 0 0 0-.191-.136c-2.206-1.44-4.166-3.017-5.879-4.73-1.714-1.714-3.291-3.701-4.731-5.962v8.696l2.953-.11c.42-.018.811-.1 1.176-.246.146-.036.246-.055.301-.055.237 0 .465.082.683.246.237.146.429.32.575.52.145.2.218.355.218.465a.417.417 0 0 1-.191.355c-.109.073-.283.119-.52.137l-5.195.219v5.113ZM265.02 27.191c-.237 0-.411-.082-.52-.246a3.208 3.208 0 0 0-.492-.574c-.146-.146-.41-.346-.793-.601l.082-.137c.838.291 1.431.437 1.777.437.292 0 .611-.164.957-.492.365-.346.675-.838.93-1.476.128-.292.219-.53.273-.711.073-.2.128-.42.164-.657v-.054c0-.164-.082-.246-.246-.246-.182 0-.51.054-.984.164a20.01 20.01 0 0 0-1.012.328l-.218-.055a.656.656 0 0 0-.137-.082c-.055-.055-.1-.11-.137-.164-.091-.091-.137-.155-.137-.191l-.027-.11c0-.127.064-.246.191-.355.146-.11.228-.192.247-.246.145-.164.437-.565.874-1.203.037-.037.101-.119.192-.247.091-.145.137-.273.137-.382 0-.128-.538-.037-1.614.273-1.093.328-1.668.492-1.722.492-.183 0-.374-.155-.575-.465-.145-.145-.218-.264-.218-.355 0-.128.182-.2.547-.219.419-.018 1.066-.091 1.941-.219.893-.127 1.422-.21 1.586-.246l.383-.109a.598.598 0 0 1 .191-.027c.055 0 .137.036.246.109.128.073.237.128.328.164.237.11.374.237.411.383v.082c0 .164-.092.337-.274.52-.073.072-.219.227-.437.464a5.646 5.646 0 0 0-.411.438c-.072.073-.182.191-.328.355a2.431 2.431 0 0 0-.246.301c0 .055.018.091.055.11a.304.304 0 0 0 .137.027c.547-.073.993-.155 1.339-.246l.438-.137c.2 0 .346.073.437.219.165.182.274.337.329.465a.353.353 0 0 1 0 .328.741.741 0 0 1-.082.164 1.788 1.788 0 0 0-.11.191l-.109.219c-.055.11-.091.219-.11.328-.328.948-.72 1.76-1.175 2.434-.256.31-.538.574-.848.793-.419.31-.829.464-1.23.464Zm-2.735 4.594c-.2 0-.446-.155-.738-.465-.219-.218-.328-.383-.328-.492 0-.055.036-.082.109-.082.073-.018.164-.027.274-.027l.601-.028c.346 0 .574-.009.684-.027.346 0 .638-.01.875-.027 1.567-.146 2.625-.265 3.172-.356.273-.036.519-.073.738-.11.219-.054.392-.081.519-.081.256 0 .511.127.766.383.201.2.301.364.301.492 0 .11-.064.182-.192.219-.091.018-.628.054-1.613.109a36.33 36.33 0 0 0-2.023.137c-.802.073-1.504.146-2.106.218l-.465.082c-.2.037-.392.055-.574.055Zm4.074 6.098c-.182.237-.373.355-.574.355-.055 0-.082-.045-.082-.136 0-.128.037-.274.109-.438l.547-1.094c.019-.073.046-.145.082-.218.037-.073.064-.137.082-.192v-.027c0-.037-.027-.073-.082-.11a.229.229 0 0 0-.191-.027 23.25 23.25 0 0 0-1.312.137c-.566.073-.985.146-1.258.219l-.41.136a1.074 1.074 0 0 1-.356.082c-.328 0-.602-.1-.82-.3a1.669 1.669 0 0 1-.41-.383l-.055-.137c0-.091.155-.118.465-.082.419.036 1.285-.018 2.597-.164l.547-.082c.146-.018.374-.046.684-.082.328-.055.583-.11.766-.164l.164-.055a.434.434 0 0 1 .191-.055c.091 0 .2.046.328.137.146.091.264.173.356.246.127.091.209.173.246.246.054.055.073.128.054.22 0 .09-.045.172-.136.245a2.568 2.568 0 0 0-.192.164 4.312 4.312 0 0 1-.383.41 4.476 4.476 0 0 1-.492.602c-.219.255-.373.437-.465.547Zm-1.367 5.386c0-.054.091-.2.274-.437.2-.219.355-.392.464-.52.274-.364.602-.893.985-1.585.401-.693.629-1.149.683-1.368.037-.109-.018-.164-.164-.164-.291 0-1.093.082-2.406.246-.857.11-1.495.22-1.914.328a.526.526 0 0 1-.273.083c-.146 0-.301-.1-.465-.301a.725.725 0 0 1-.11-.356c0-.073.046-.145.137-.218l.082-.11a5.86 5.86 0 0 0 .192-.437c.072-.183.136-.356.191-.52.091-.291.155-.61.191-.957.019-.2.128-.255.329-.164.255.128.446.255.574.383.146.11.191.191.136.246a2.722 2.722 0 0 0-.437.738 7.296 7.296 0 0 0-.164.575c0 .072.045.109.137.109.273 0 .683-.046 1.23-.137l1.148-.137c.456-.054.821-.109 1.094-.164l.684-.136a.712.712 0 0 1 .219-.028c.091 0 .182.037.273.11.091.054.191.127.301.218.182.164.301.301.355.41.055.092.082.201.082.329 0 .073-.054.164-.164.273-.091.11-.2.283-.328.52-.529 1.075-1.212 1.977-2.051 2.707a3.768 3.768 0 0 1-.793.465 1.293 1.293 0 0 1-.355.054c-.091.018-.137 0-.137-.054Zm5.25-10.445c.091 0 .228.064.41.192-.018.036.019.109.11.218l.191.192c.091.09.182.2.274.328.109.128.227.264.355.41.328.346 1.085 1.249 2.27 2.707.2.292.3.465.3.52 0 .182-.109.273-.328.273-.127 0-.264-.091-.41-.273-.346-.365-.966-.94-1.859-1.723-.693-.638-1.322-1.13-1.887-1.477-.273-.127-.41-.273-.41-.437 0-.128.137-.31.41-.547.255-.255.447-.383.574-.383Zm-32.894 2.543v.082c0 .328-.146.492-.438.492-.255 0-.538-.09-.848-.273-.309-.2-.464-.474-.464-.82 0-.11.009-.2.027-.274.055-.364.082-.71.082-1.039v-.355l-.273-6.918c-.037-.657-.146-1.14-.329-1.45-.127-.218-.191-.373-.191-.464 0-.11.082-.164.246-.164.292 0 .875.164 1.75.492l3.856-.274.519-.027c.219 0 .456.082.711.246.274.164.41.392.41.684 0 .09-.027.2-.082.328-.036.127-.064.228-.082.3l-.355 4.458a51.9 51.9 0 0 0 4.265-5.168c1.276-1.75 2.334-3.427 3.172-5.032.183-.328.274-.701.274-1.12 0-.31.109-.466.328-.466.255 0 .601.183 1.039.547.437.347.656.611.656.793 0 .037-.018.11-.055.22l-.82 1.312a59.804 59.804 0 0 0 4.129 3.964 45.424 45.424 0 0 0 4.648 3.473c.256.164.383.3.383.41 0 .11-.182.32-.547.63-.364.309-.656.464-.875.464-.145 0-.656-.337-1.531-1.012-.875-.692-1.95-1.622-3.226-2.789a76.968 76.968 0 0 1-3.856-3.855c-1.331 1.95-2.598 3.564-3.801 4.84-1.185 1.257-2.16 2.187-2.925 2.789-.748.583-1.194.902-1.34.957l-.055.957c.438.528.656.911.656 1.148 0 .128-.054.21-.164.246-.109.018-.31.037-.601.055l-4.348.246.055 1.367Zm-.11-2.898 2.926-.164.41-6.371-3.609.246.273 6.289Zm3.555 8.394c0-.182.073-.355.219-.52a18.114 18.114 0 0 0 2.433-4.128c.128-.292.283-.438.465-.438.219 0 .438.073.656.22.237.127.356.273.356.437 0 .036-.037.164-.11.382-.802 1.823-1.585 3.336-2.351 4.54-.182.291-.374.437-.574.437-.146 0-.365-.11-.657-.328-.291-.2-.437-.401-.437-.602Zm3.801-10.554c0-.11.054-.165.164-.165.073 0 .137.01.191.028.31.055.629.082.957.082h.301l8.231-.465h.218c.347 0 .638.1.875.3.237.201.356.375.356.52 0 .128-.064.274-.192.438a6.742 6.742 0 0 0-.273.328 46.163 46.163 0 0 1-2.133 2.816c-.784.985-1.34 1.477-1.668 1.477-.164 0-.374-.1-.629-.3-.273-.22-.41-.411-.41-.575 0-.146.091-.3.273-.465a24.656 24.656 0 0 0 2.707-3.035l-6.863.41c-.182.018-.41.027-.683.027-.292 0-.556-.072-.793-.218-.219-.146-.411-.465-.575-.957a.549.549 0 0 1-.054-.246Zm1.066 7.218c0-.127.037-.227.11-.3a1.35 1.35 0 0 1 .792-.3c.256-.001.438.181.547.546.201.656.556 1.312 1.067 1.968.528.638 1.103 1.076 1.722 1.313.875.346 1.823.52 2.844.52.383 0 .784-.019 1.203-.055.42-.037.629-.11.629-.219l-.054-.137c-.019-.036-.192-.4-.52-1.093-.31-.693-.465-1.267-.465-1.723 0-.182.055-.274.164-.274.183 0 .419.21.711.63.675.965 1.322 1.74 1.942 2.324.419.382.628.71.628.984 0 .2-.109.392-.328.574-.237.182-.61.328-1.121.438-.492.109-1.358.164-2.597.164-1.641 0-3.099-.347-4.375-1.04-1.276-.674-2.215-1.977-2.817-3.91a1.371 1.371 0 0 1-.082-.41ZM247 26.918c0-.091.064-.137.191-.137l.164.028c.329.054.648.082.957.082h.301l2.598-.164c.365-.037.674-.1.93-.192.109-.036.173-.055.191-.055.146 0 .392.146.738.438.365.292.547.529.547.71 0 .183-.173.293-.519.329l-3.993.3a4.413 4.413 0 0 1-.574.028c-.346 0-.638-.073-.875-.219-.237-.145-.437-.437-.601-.875a1.6 1.6 0 0 1-.055-.273Zm.766 8.45c0-.11.063-.274.191-.493.128-.237.283-.355.465-.355.164 0 .592.218 1.285.656.711.437 1.367.902 1.969 1.394.62.492.929.83.929 1.012 0 .164-.109.374-.328.629-.218.237-.419.355-.601.355-.128 0-.31-.1-.547-.3-1.076-1.003-2.087-1.823-3.035-2.461-.219-.146-.328-.292-.328-.438Zm6.425.437c0-.164.092-.338.274-.52.2-.2.355-.3.465-.3.164 0 .638.282 1.422.847.783.547 1.513 1.13 2.187 1.75.693.602 1.039.993 1.039 1.176 0 .164-.127.392-.383.683-.237.292-.446.438-.629.438-.145 0-.319-.11-.519-.328-1.167-1.294-2.343-2.388-3.527-3.282-.219-.163-.329-.319-.329-.464ZM307.676 30.746c-.292 0-.465-.146-.52-.437-.109-.31-.401-.693-.875-1.149l.082-.11c.073.037.283.128.629.274.347.128.584.192.711.192h.246a.538.538 0 0 0 .192-.137c.218-.164.492-.538.82-1.121.237-.474.447-1.03.629-1.668.2-.638.301-1.121.301-1.45 0-.09-.073-.136-.219-.136l-1.039.055-.711.054-.465.028-.191.027c.127.091.209.173.246.246a.298.298 0 0 1 .082.219c0 .091-.11.346-.328.765-.183.401-.474.857-.875 1.368-.329.437-.775.911-1.34 1.422-.547.492-.957.747-1.231.765a.521.521 0 0 1-.164-.027.187.187 0 0 1-.054-.137c0-.018.145-.191.437-.52l.766-.902c.547-.729 1.103-1.659 1.668-2.789.054-.146.027-.228-.082-.246-.11.018-.338.046-.684.082a3.535 3.535 0 0 0-.93.164.865.865 0 0 0-.191.082.902.902 0 0 1-.274.055.37.37 0 0 1-.273-.11l-.219-.19c-.164-.128-.246-.247-.246-.356 0-.037.018-.092.055-.165l.137-.218.355-.438c.164-.2.346-.474.547-.82.036-.073.109-.237.219-.492.127-.255.191-.41.191-.465v-.11c0-.109.018-.182.055-.218.036-.037.118-.037.246 0 .128.036.282.137.465.3l.301.301a.265.265 0 0 1 .082.192c0 .182-.256.51-.766.984a3.135 3.135 0 0 0-.328.41c-.128.183-.192.301-.192.356 0 .11.082.146.247.11l.628-.083c1.441-.219 2.525-.346 3.254-.383l.739-.11.246-.054.136-.027c.146 0 .247.018.301.055.055.036.11.1.164.191.055.073.11.137.164.191.128.146.219.274.274.383l.054.246-.054.11-.055.164a1.575 1.575 0 0 0-.082.273 1.98 1.98 0 0 1-.082.246c-.383 1.477-.829 2.625-1.34 3.446-.164.291-.446.583-.847.875-.383.291-.721.437-1.012.437Zm2.488 8.695c-.273 0-.538-.2-.793-.601a8.644 8.644 0 0 0-.957-1.258l-.711-.738c-.383.437-.72.784-1.012 1.039a5.413 5.413 0 0 1-1.039.738c-.784.456-1.44.684-1.968.684-.128 0-.192-.046-.192-.137 0-.055.173-.173.52-.355.346-.183.674-.402.984-.657.784-.656 1.431-1.33 1.942-2.023-.11-.11-.657-.584-1.641-1.422a9.141 9.141 0 0 1-.574-.465 7.016 7.016 0 0 1-.328-.246c-.165-.128-.247-.219-.247-.273 0-.092.046-.137.137-.137.274 0 .711.191 1.313.574.601.365 1.23.802 1.886 1.313.256-.31.456-.602.602-.875.146-.274.31-.611.492-1.012.091-.2.146-.374.164-.52.018-.164.028-.264.028-.3 0-.201.054-.301.164-.301.127 0 .3.1.519.3.383.365.574.611.574.739 0 .073-.045.155-.136.246-.219.219-.42.51-.602.875-.109.219-.31.529-.601.93-.092.109-.165.21-.219.3-.055.091-.11.174-.164.246.419.31 1.039.839 1.859 1.586.201.183.328.356.383.52.073.146.109.346.109.602a.78.78 0 0 1-.136.464.443.443 0 0 1-.356.164Zm5.578-11.812c.219 0 .328.1.328.3 0 .11-.1.265-.3.466-.547.674-1.632 1.96-3.254 3.855-.128.164-.246.246-.356.246-.091 0-.292-.137-.601-.41-.256-.219-.383-.401-.383-.547 0-.164.136-.319.41-.465.419-.237 1.048-.71 1.887-1.422.838-.747 1.458-1.34 1.859-1.777.164-.164.301-.246.41-.246Zm-25.949 11.95c0 .218-.119.327-.355.327-.219 0-.484-.082-.793-.246-.31-.182-.465-.364-.465-.547l.027-.273a7.96 7.96 0 0 0 .055-.848v-.3l-.219-5.005c-.036-.51-.128-.92-.273-1.23-.11-.255-.165-.401-.165-.438 0-.127.101-.19.301-.19.237 0 .775.108 1.614.327l7.683-.383c.565 0 .939.11 1.121.329.201.2.301.373.301.52a.662.662 0 0 1-.055.245 2.657 2.657 0 0 1-.054.192l-.356 5.632c.347.438.52.766.52.985 0 .09-.046.155-.137.191a1.601 1.601 0 0 1-.41.082l-8.34.274v.355Zm-13.945-15.04c0-.11.054-.164.164-.164.073 0 .136.01.191.027.274.073.565.11.875.11l.465-.028 6.016-.382c.528-.092.902-.183 1.121-.274a.865.865 0 0 1 .246-.055c.219 0 .51.146.875.438.364.292.547.556.547.793s-.183.374-.547.41l-7.711.547a9.725 9.725 0 0 1-.793.027c-.31 0-.511-.045-.602-.136-.565-.493-.847-.93-.847-1.313Zm1.75 9.79c0-.11.073-.165.218-.165.292 0 .948.191 1.969.574l4.211-.246h.219c.292 0 .556.119.793.356.255.237.383.437.383.601a.655.655 0 0 1-.082.274 1.817 1.817 0 0 0-.082.246l-.438 3.718c.419.584.629.967.629 1.149 0 .11-.046.173-.137.191a.88.88 0 0 1-.328.055 2.205 2.205 0 0 1-.273.027l-4.512.192.027.52v.081c0 .401-.164.602-.492.602-.237 0-.51-.091-.82-.273a.796.796 0 0 1-.438-.739v-.164c.037-.474.055-.82.055-1.039v-.328l-.273-3.61c-.055-.62-.192-1.12-.411-1.503-.145-.237-.218-.41-.218-.52Zm.191-3.145c0-.092.046-.137.137-.137.054 0 .1.009.136.027.31.073.648.11 1.012.11h.301l3.527-.192c.365-.036.684-.11.957-.219a.878.878 0 0 1 .246-.054c.219 0 .474.155.766.465.31.291.465.528.465.71 0 .256-.182.402-.547.438l-4.867.3h-.793c-.255-.036-.438-.081-.547-.136a2.561 2.561 0 0 1-.766-1.148.385.385 0 0 1-.027-.164Zm0-3.282c0-.109.046-.164.137-.164l.109.028c.31.073.647.109 1.012.109h.301l3.609-.246c.328-.037.656-.1.984-.192a.906.906 0 0 1 .219-.054c.201 0 .456.137.766.41.328.273.492.529.492.766a.344.344 0 0 1-.164.3.908.908 0 0 1-.41.137l-4.949.328a5.142 5.142 0 0 1-.602.028 1.62 1.62 0 0 1-.355-.028c-.165 0-.292-.045-.383-.137-.164-.127-.338-.328-.52-.601-.164-.292-.246-.52-.246-.684Zm.848-7.246c0-.218.064-.428.191-.629.146-.218.319-.328.52-.328.145 0 .601.155 1.367.465.784.31 1.713.757 2.789 1.34.2.11.346.219.437.328.092.091.137.2.137.328 0 .219-.091.474-.273.766-.164.273-.356.41-.575.41-.145 0-.346-.082-.601-.246a23.452 23.452 0 0 0-3.473-1.887c-.346-.127-.519-.31-.519-.547Zm1.422 19.25 3.199-.136.301-3.774-3.774.191.274 3.72Zm4.511 3.418c0-.2.201-.364.602-.492 2.133-.747 3.874-1.577 5.223-2.488.072-.037.118-.073.136-.11.219-.145.392-.328.52-.547.127-.182.237-.273.328-.273.146 0 .292.1.437.3.164.201.301.43.411.684.127.237.191.392.191.465 0 .164-.091.292-.273.383a22.396 22.396 0 0 1-3.254 1.367c-1.021.347-1.869.584-2.543.711-.675.128-1.121.192-1.34.192-.292 0-.438-.064-.438-.192Zm1.176-17.445c0-.11.082-.164.246-.164.274 0 .83.118 1.668.355l11.649-.656h.164c.2 0 .419.091.656.273.255.165.383.338.383.52a.69.69 0 0 1-.082.3 1.243 1.243 0 0 0-.11.22l-.41 1.722c.347.365.52.63.52.793 0 .11-.064.182-.192.219a2.473 2.473 0 0 1-.547.082l-11.73.547v.055c0 .255-.137.382-.41.382-.128 0-.292-.027-.492-.082-.274-.073-.465-.164-.575-.273a.558.558 0 0 1-.164-.41v-.137c.037-.365.055-.583.055-.656 0-.146-.009-.256-.027-.328l-.192-1.313c-.054-.456-.146-.802-.273-1.039-.091-.219-.137-.355-.137-.41Zm.027-4.54c0-.108.055-.163.165-.163a.61.61 0 0 1 .191.027c.292.073.656.11 1.094.11h.246l4.648-.301v-.739c0-.455-.091-.829-.273-1.12-.073-.128-.11-.229-.11-.301 0-.128.101-.192.301-.192.274 0 .62.064 1.039.192.419.127.629.291.629.492v1.586l3.719-.246a5.07 5.07 0 0 0 1.258-.22.565.565 0 0 1 .218-.026c.256 0 .547.127.875.382.347.237.52.456.52.657 0 .2-.137.319-.41.355l-6.207.383v1.23l1.64-.082c.42-.036.83-.1 1.231-.191a.83.83 0 0 1 .246-.027c.31 0 .638.154.984.464.219.183.328.356.328.52 0 .2-.145.319-.437.355l-7.328.41a16.17 16.17 0 0 1-.902.055c-.347 0-.602-.073-.766-.219a2.414 2.414 0 0 1-.656-.82.384.384 0 0 1-.055-.219c0-.09.064-.136.191-.136.073 0 .137.009.192.027.273.073.62.11 1.039.11h.273l2.489-.137-.028-1.258-3.91.246a15.75 15.75 0 0 1-.93.055c-.656 0-1.139-.347-1.449-1.04l-.055-.218Zm2.079 7.575 2.597-.137-.137-1.668-2.624.137.164 1.668Zm1.722 4.594 7.356-.328.054-1.176-7.464.328.054 1.176Zm.082 2.215 7.192-.301.054-1.149-7.3.329.054 1.12Zm.082 2.324 7.028-.219.054-1.312-7.136.273.054 1.258Zm2.16-9.324 2.297-.11.137-1.722-2.57.136.136 1.696Zm2.899 11.511c0-.145.055-.31.164-.492.182-.31.383-.465.601-.465.219 0 .611.137 1.176.41.584.256 1.778.848 3.582 1.778.365.164.547.383.547.656 0 .146-.073.374-.219.684-.145.31-.328.465-.546.465-.164 0-.374-.092-.629-.274a21.08 21.08 0 0 0-4.129-2.215 1.642 1.642 0 0 1-.41-.218.444.444 0 0 1-.137-.329Zm3.637-11.812.273-1.75-2.871.164-.164 1.723 2.762-.137Z"/></svg>