<svg width="320" height="60" viewBox="0 0 320 60" fill="none" xmlns="http://www.w3.org/2000/svg">
<path d="M45.2109 26.3984C45.1016 26.3984 44.9557 26.2799 44.7734 26.043C44.5911 25.7878 44.5091 25.569 44.5273 25.3867C44.5638 25.2409 44.5911 24.8307 44.6094 24.1562C44.6276 23.7005 44.6367 22.8984 44.6367 21.75C44.6367 20.9479 44.6276 20.4102 44.6094 20.1367L43.707 20.2188C43.069 20.3099 42.5221 20.3555 42.0664 20.3555C41.9388 20.3555 41.7565 20.2552 41.5195 20.0547C41.2826 19.8542 41.1641 19.7083 41.1641 19.6172C41.1641 19.4714 41.319 19.4167 41.6289 19.4531C41.8294 19.4714 42.4219 19.4622 43.4062 19.4258C44.7552 19.3346 45.7305 19.2799 46.332 19.2617C46.6419 19.2435 46.9245 19.2161 47.1797 19.1797C47.4531 19.125 47.6445 19.0885 47.7539 19.0703C47.918 19.0521 48.0638 19.0703 48.1914 19.125C48.319 19.1797 48.4375 19.2526 48.5469 19.3438C48.6745 19.4167 48.7747 19.4714 48.8477 19.5078C49.0117 19.6172 49.0938 19.7174 49.0938 19.8086C49.0938 19.8815 49.0482 19.9544 48.957 20.0273C48.8841 20.082 48.8021 20.1094 48.7109 20.1094C48.6198 20.1094 48.4922 20.1003 48.3281 20.082C48.1823 20.0638 48.0182 20.0547 47.8359 20.0547C47.1615 20.0547 46.4688 20.0729 45.7578 20.1094C45.7396 20.2552 45.7305 20.6198 45.7305 21.2031C45.694 22.1875 45.6758 23.1536 45.6758 24.1016V25.168V25.4141C45.6758 25.724 45.6484 25.9245 45.5938 26.0156C45.4297 26.2708 45.3021 26.3984 45.2109 26.3984ZM42.2852 31.2383C42.0846 31.2383 41.8385 31.0833 41.5469 30.7734C41.3281 30.5547 41.2188 30.3906 41.2188 30.2812C41.2188 30.2266 41.2552 30.1992 41.3281 30.1992C41.401 30.181 41.4922 30.1719 41.6016 30.1719L42.2031 30.1445C42.5495 30.1445 42.7773 30.1354 42.8867 30.1172C43.2331 30.1172 43.5247 30.1081 43.7617 30.0898C45.3294 29.944 46.3867 29.8255 46.9336 29.7344C47.207 29.6979 47.4531 29.6615 47.6719 29.625C47.8906 29.5703 48.0638 29.543 48.1914 29.543C48.4466 29.543 48.7018 29.6706 48.957 29.9258C49.1576 30.1263 49.2578 30.2904 49.2578 30.418C49.2578 30.5273 49.194 30.6003 49.0664 30.6367C48.9753 30.6549 48.4375 30.6914 47.4531 30.7461C46.9062 30.7643 46.2318 30.8099 45.4297 30.8828C44.6276 30.9557 43.9258 31.0286 43.3242 31.1016C43.2148 31.1198 43.0599 31.1471 42.8594 31.1836C42.6589 31.2201 42.4674 31.2383 42.2852 31.2383ZM48.1641 40.6719C48.2005 40.7448 48.2643 40.8542 48.3555 41C48.4466 41.1458 48.4922 41.319 48.4922 41.5195C48.4922 41.7018 48.4193 41.8477 48.2734 41.957C48.1276 42.0846 47.9635 42.1484 47.7812 42.1484C47.6172 42.1484 47.4805 41.9844 47.3711 41.6562C47.3164 41.5286 47.2708 41.4193 47.2344 41.3281C47.2161 41.2552 47.1979 41.1914 47.1797 41.1367C46.9427 41.2096 46.6328 41.2734 46.25 41.3281C45.8672 41.3828 45.5938 41.4284 45.4297 41.4648C44.5547 41.6289 43.9531 41.7474 43.625 41.8203C43.4974 41.8568 43.3607 41.8932 43.2148 41.9297C43.069 41.9844 42.987 42.0208 42.9688 42.0391C42.8594 42.0755 42.7773 42.0938 42.7227 42.0938C42.5768 42.0938 42.4401 42.0299 42.3125 41.9023C42.0938 41.7383 41.9297 41.5195 41.8203 41.2461C41.8021 41.2279 41.793 41.2005 41.793 41.1641C41.793 41.1276 41.8385 41.082 41.9297 41.0273C42.0391 40.9727 42.1211 40.9362 42.1758 40.918C42.4128 40.7904 42.832 40.4076 43.4336 39.7695L44.1719 39.0586L42.5586 38.1836C42.3763 38.1289 42.2578 38.0651 42.2031 37.9922C42.1484 37.9193 42.1211 37.8099 42.1211 37.6641C42.1211 37.5547 42.1393 37.4818 42.1758 37.4453C42.2305 37.3906 42.3398 37.3086 42.5039 37.1992C42.668 37.0898 42.832 36.944 42.9961 36.7617C43.0872 36.6523 43.2057 36.5339 43.3516 36.4062C43.4974 36.2786 43.6341 36.1419 43.7617 35.9961C44.3086 35.3581 44.6549 34.8568 44.8008 34.4922C44.8919 34.3099 44.9648 34.2188 45.0195 34.2188C45.056 34.2188 45.1289 34.2552 45.2383 34.3281C45.5846 34.5833 45.7943 34.8203 45.8672 35.0391V35.1211C45.8672 35.2122 45.8216 35.2852 45.7305 35.3398C45.6393 35.3945 45.5755 35.4401 45.5391 35.4766C45.4844 35.513 45.2109 35.7773 44.7188 36.2695L44.2266 36.7617C44.1354 36.8529 43.9805 37.0078 43.7617 37.2266C43.543 37.4271 43.4336 37.5456 43.4336 37.582C43.4336 37.6367 43.4609 37.6823 43.5156 37.7188C43.5885 37.7552 43.6432 37.7917 43.6797 37.8281L44.8281 38.375C45.5391 37.6641 45.9492 37.2448 46.0586 37.1172C46.5326 36.5703 46.7969 36.224 46.8516 36.0781C46.8698 36.0599 46.8971 36.0143 46.9336 35.9414C46.9701 35.8685 47.0065 35.832 47.043 35.832C47.0977 35.832 47.1523 35.8594 47.207 35.9141C47.4987 36.1875 47.7083 36.4427 47.8359 36.6797C47.8724 36.7526 47.8906 36.7982 47.8906 36.8164C47.8906 36.8529 47.8451 36.9076 47.7539 36.9805C47.681 37.0352 47.6081 37.0898 47.5352 37.1445C46.8971 37.6732 46.1497 38.3659 45.293 39.2227L43.625 40.7812C43.5885 40.8177 43.5703 40.8542 43.5703 40.8906C43.5703 40.9271 43.5885 40.9544 43.625 40.9727C43.6615 40.9909 43.7161 40.9909 43.7891 40.9727L46.9883 40.4258C46.8971 40.0612 46.7878 39.6966 46.6602 39.332V39.2773C46.6602 39.2227 46.6875 39.1953 46.7422 39.1953C46.8151 39.1953 46.9245 39.25 47.0703 39.3594C47.362 39.6146 47.7266 40.0521 48.1641 40.6719ZM53.8516 31.8945C53.9062 31.8945 53.9609 31.9219 54.0156 31.9766C54.0703 32.013 54.1068 32.0677 54.125 32.1406V32.1953C54.125 32.3229 54.0247 32.569 53.8242 32.9336L51.8555 36.3516C51.7096 36.6615 51.5182 36.8164 51.2812 36.8164C51.0443 36.8164 50.8438 36.6706 50.6797 36.3789C50.5156 36.1419 50.3151 35.7865 50.0781 35.3125C49.9688 35.1484 49.8776 34.9844 49.8047 34.8203C49.7318 34.6562 49.6771 34.5378 49.6406 34.4648C49.4401 34.1185 49.3398 33.8724 49.3398 33.7266C49.3398 33.6536 49.3672 33.599 49.4219 33.5625C49.4766 33.5078 49.5312 33.4805 49.5859 33.4805C49.7865 33.4805 49.9688 33.5898 50.1328 33.8086C50.2604 33.9362 50.3607 34.0729 50.4336 34.2188L50.7344 34.6289L51.2812 35.2578L51.5273 34.875C51.7826 34.4375 52.3841 33.5716 53.332 32.2773C53.5326 32.0221 53.7057 31.8945 53.8516 31.8945ZM16.4727 35.2852L17.457 33.8359C17.8216 33.3073 18.1406 32.7878 18.4141 32.2773C18.6875 31.7669 18.9154 31.2474 19.0977 30.7188C19.2799 30.1901 19.4076 29.8073 19.4805 29.5703C19.5169 29.388 19.5352 29.1784 19.5352 28.9414L19.6719 28.3398C19.7995 28.3216 19.918 28.3216 20.0273 28.3398C20.1732 28.3945 20.3919 28.5221 20.6836 28.7227C21.0117 28.9049 21.2943 29.1328 21.5312 29.4062C21.6953 29.5885 21.7682 29.7982 21.75 30.0352C21.6953 30.1445 21.5951 30.263 21.4492 30.3906L21.1758 30.6367C21.0846 30.7461 20.7474 31.2383 20.1641 32.1133C19.5807 33.0065 19.0247 33.7174 18.4961 34.2461C17.9492 34.793 17.3659 35.276 16.7461 35.6953L16.3633 35.9414L16.0625 35.8047L16.4727 35.2852ZM26.2617 35.832L26.3984 26.4258L26.2617 23.5C26.2253 23.1719 26.1797 22.7982 26.125 22.3789C26.0703 21.9779 25.9792 21.6315 25.8516 21.3398C25.724 21.0482 25.6602 20.8294 25.6602 20.6836L25.8789 20.3555C26.0247 20.3372 26.1523 20.3372 26.2617 20.3555C26.4987 20.3919 26.7539 20.4557 27.0273 20.5469C27.319 20.638 27.6471 20.7747 28.0117 20.957C28.3581 21.1029 28.6315 21.2669 28.832 21.4492C29.0143 21.6315 29.0964 21.8685 29.0781 22.1602L28.7227 22.8164C28.6497 22.944 28.5586 23.2357 28.4492 23.6914C28.3216 24.1654 28.2122 24.6211 28.1211 25.0586C28.0482 25.4961 28.0026 26.1159 27.9844 26.918L27.793 32.3867L27.957 37.8555L28.0117 39.332C28.0117 39.806 27.957 40.1979 27.8477 40.5078C27.7565 40.7995 27.5924 41.1367 27.3555 41.5195C27.1367 41.8841 26.9362 42.1211 26.7539 42.2305L26.4531 42.3398C26.3073 42.3398 26.1797 42.2852 26.0703 42.1758C25.9609 42.0482 25.7695 41.7839 25.4961 41.3828C25.2044 41 24.8763 40.6081 24.5117 40.207C24.1289 39.8242 23.8008 39.5143 23.5273 39.2773L23.0352 38.8672L22.9805 38.5391L23.1992 38.5117L24.0742 38.7852C24.5846 38.931 24.9674 39.013 25.2227 39.0312L25.5781 39.0039C25.7422 38.9128 25.8607 38.8034 25.9336 38.6758C25.9883 38.5299 26.043 38.1107 26.0977 37.418L26.2617 35.832ZM32.4414 29.1055L32.168 28.3398L32.8242 28.5039C33.0977 28.5951 33.4622 28.7591 33.918 28.9961C34.3919 29.2148 34.9206 29.5247 35.5039 29.9258C36.0872 30.3086 36.5977 30.7734 37.0352 31.3203C37.4727 31.8672 37.7734 32.3958 37.9375 32.9062C38.1016 33.3984 38.1836 33.8451 38.1836 34.2461C38.1654 34.5924 38.0833 34.8659 37.9375 35.0664C37.8099 35.2487 37.6276 35.3581 37.3906 35.3945C37.1901 35.3945 36.9987 35.3307 36.8164 35.2031C36.6706 35.112 36.4883 34.9023 36.2695 34.5742L35.0938 32.8242C34.5469 31.9857 34.1185 31.3477 33.8086 30.9102L32.9883 29.7617L32.4414 29.1055Z" fill="#333333"/>
<path d="M87.2109 26.3984C87.1016 26.3984 86.9557 26.2799 86.7734 26.043C86.5911 25.7878 86.5091 25.569 86.5273 25.3867C86.5638 25.2409 86.5911 24.8307 86.6094 24.1562C86.6276 23.7005 86.6367 22.8984 86.6367 21.75C86.6367 20.9479 86.6276 20.4102 86.6094 20.1367L85.707 20.2188C85.069 20.3099 84.5221 20.3555 84.0664 20.3555C83.9388 20.3555 83.7565 20.2552 83.5195 20.0547C83.2826 19.8542 83.1641 19.7083 83.1641 19.6172C83.1641 19.4714 83.319 19.4167 83.6289 19.4531C83.8294 19.4714 84.4219 19.4622 85.4062 19.4258C86.7552 19.3346 87.7305 19.2799 88.332 19.2617C88.6419 19.2435 88.9245 19.2161 89.1797 19.1797C89.4531 19.125 89.6445 19.0885 89.7539 19.0703C89.918 19.0521 90.0638 19.0703 90.1914 19.125C90.319 19.1797 90.4375 19.2526 90.5469 19.3438C90.6745 19.4167 90.7747 19.4714 90.8477 19.5078C91.0117 19.6172 91.0938 19.7174 91.0938 19.8086C91.0938 19.8815 91.0482 19.9544 90.957 20.0273C90.8841 20.082 90.8021 20.1094 90.7109 20.1094C90.6198 20.1094 90.4922 20.1003 90.3281 20.082C90.1823 20.0638 90.0182 20.0547 89.8359 20.0547C89.1615 20.0547 88.4688 20.0729 87.7578 20.1094C87.7396 20.2552 87.7305 20.6198 87.7305 21.2031C87.694 22.1875 87.6758 23.1536 87.6758 24.1016V25.168V25.4141C87.6758 25.724 87.6484 25.9245 87.5938 26.0156C87.4297 26.2708 87.3021 26.3984 87.2109 26.3984ZM84.8867 33.0977C84.2852 32.8789 84.0026 32.6419 84.0391 32.3867C84.1484 31.6211 84.2031 30.7461 84.2031 29.7617C84.2031 29.3242 84.194 29.0052 84.1758 28.8047C84.1576 28.5677 84.1393 28.3672 84.1211 28.2031C84.1029 28.0208 84.1029 27.9206 84.1211 27.9023C84.194 27.8294 84.2852 27.793 84.3945 27.793C84.5586 27.793 84.7591 27.8659 84.9961 28.0117C85.2513 28.1576 85.3789 28.3034 85.3789 28.4492C85.3789 28.5404 85.3698 28.6315 85.3516 28.7227C85.3333 28.7956 85.3242 28.8776 85.3242 28.9688L85.1602 31.6758C85.1602 31.8216 85.2148 31.9128 85.3242 31.9492H85.4609C85.6068 31.9492 85.707 31.9401 85.7617 31.9219L89.2891 31.4297V30.7188C89.2891 29.8255 89.2708 29.1328 89.2344 28.6406C89.2161 28.2214 89.1706 27.8841 89.0977 27.6289C89.043 27.3372 89.1159 27.1914 89.3164 27.1914C89.4622 27.1914 89.6536 27.2461 89.8906 27.3555C90.1823 27.5013 90.3555 27.6289 90.4102 27.7383C90.4648 27.8294 90.4831 27.9753 90.4648 28.1758C90.4284 28.5039 90.4102 28.9961 90.4102 29.6523L90.4375 31.7305C90.4375 32.168 90.3555 32.5143 90.1914 32.7695C90.1003 32.8789 90.0091 32.9336 89.918 32.9336C89.8268 32.9336 89.6992 32.8516 89.5352 32.6875C89.4987 32.651 89.4531 32.5964 89.3984 32.5234C89.3438 32.4505 89.2891 32.4049 89.2344 32.3867C89.1797 32.3685 89.1068 32.3594 89.0156 32.3594C88.5964 32.3958 87.5846 32.5326 85.9805 32.7695C85.707 32.806 85.4883 32.8789 85.3242 32.9883C85.1419 33.0794 85.0234 33.125 84.9688 33.125L84.8867 33.0977ZM87.9492 42.5312C87.3841 42.5312 86.9466 42.513 86.6367 42.4766C86.3451 42.4401 86.099 42.3307 85.8984 42.1484C85.5521 41.8932 85.3151 41.3372 85.1875 40.4805L85.1055 39.6055C85.1055 39.3867 85.0872 39.1133 85.0508 38.7852C84.7591 38.8216 84.5495 38.8581 84.4219 38.8945C84.3854 38.9128 84.3216 38.9401 84.2305 38.9766C84.1576 38.9948 84.1029 39.0039 84.0664 39.0039C83.9388 39.0039 83.8203 38.9674 83.7109 38.8945C83.6016 38.8216 83.4648 38.6849 83.3008 38.4844C83.1732 38.3203 83.1094 38.2109 83.1094 38.1562C83.1094 38.1016 83.1732 38.0651 83.3008 38.0469C83.4284 38.0286 83.6016 38.0195 83.8203 38.0195C84.1302 38.0195 84.5312 37.9831 85.0234 37.9102L84.9961 37.5273C84.9961 36.7982 84.9505 36.1784 84.8594 35.668L84.832 35.4766C84.832 35.2214 84.9323 35.1211 85.1328 35.1758C85.3516 35.2487 85.5521 35.3398 85.7344 35.4492C85.8802 35.5221 85.9805 35.5951 86.0352 35.668C86.0898 35.7227 86.1081 35.8047 86.0898 35.9141L86.0078 37.0898V37.8008L88.4141 37.5547C88.4141 37.4271 88.4232 37.1263 88.4414 36.6523C88.4596 36.1602 88.4596 35.8411 88.4414 35.6953C88.4414 35.5495 88.4232 35.4128 88.3867 35.2852C88.3685 35.1393 88.3503 35.0208 88.332 34.9297C88.332 34.7839 88.4049 34.7109 88.5508 34.7109C88.6966 34.7109 88.8789 34.793 89.0977 34.957C89.3529 35.1211 89.5169 35.2669 89.5898 35.3945C89.681 35.5221 89.6992 35.6771 89.6445 35.8594C89.5534 36.151 89.4896 36.4792 89.4531 36.8438C89.4167 37.2083 89.3984 37.4271 89.3984 37.5C89.6172 37.4818 89.8177 37.4544 90 37.418C90.1823 37.3815 90.3008 37.3633 90.3555 37.3633C90.5013 37.3268 90.6745 37.3086 90.875 37.3086C90.9844 37.3268 91.1393 37.4362 91.3398 37.6367C91.5039 37.8555 91.5859 38.0286 91.5859 38.1562C91.5859 38.3385 91.4128 38.4115 91.0664 38.375C90.7565 38.3203 90.4466 38.293 90.1367 38.293C89.8268 38.293 89.5625 38.3021 89.3438 38.3203C89.2891 38.9766 89.1797 39.6237 89.0156 40.2617C88.9792 40.4076 88.9154 40.5352 88.8242 40.6445C88.7331 40.7357 88.651 40.7812 88.5781 40.7812C88.4505 40.7812 88.3685 40.7357 88.332 40.6445C88.3138 40.5352 88.3047 40.3711 88.3047 40.1523C88.3411 39.6784 88.3594 39.0859 88.3594 38.375C87.8672 38.4115 87.4844 38.4479 87.2109 38.4844C86.7917 38.5755 86.3997 38.6302 86.0352 38.6484C86.0169 39.3958 86.0534 40.0612 86.1445 40.6445C86.1992 41.0273 86.3086 41.2917 86.4727 41.4375C86.582 41.5286 86.7096 41.5833 86.8555 41.6016C87.0195 41.6198 87.1836 41.6289 87.3477 41.6289C87.5117 41.6289 87.6211 41.6289 87.6758 41.6289C88.2409 41.6289 88.7695 41.6016 89.2617 41.5469C89.4076 41.5286 89.5352 41.4922 89.6445 41.4375C89.7721 41.3828 89.8633 41.3555 89.918 41.3555C90.082 41.3555 90.2461 41.4102 90.4102 41.5195C90.5742 41.6289 90.6562 41.7565 90.6562 41.9023C90.6562 42.0482 90.5742 42.1576 90.4102 42.2305C90.2643 42.3034 90.0273 42.3672 89.6992 42.4219C89.1159 42.4948 88.5326 42.5312 87.9492 42.5312ZM95.7422 30.0898C95.9609 30.0898 96.0703 30.1901 96.0703 30.3906C96.0703 30.5 95.9701 30.6549 95.7695 30.8555C95.2227 31.5299 94.138 32.8151 92.5156 34.7109C92.388 34.875 92.2695 34.957 92.1602 34.957C92.069 34.957 91.8685 34.8203 91.5586 34.5469C91.3034 34.3281 91.1758 34.1458 91.1758 34C91.1758 33.8359 91.3125 33.681 91.5859 33.5352C92.0052 33.2982 92.6341 32.8242 93.4727 32.1133C94.3112 31.3659 94.931 30.7734 95.332 30.3359C95.4961 30.1719 95.6328 30.0898 95.7422 30.0898ZM62.4922 28.668L61.5625 23.5547C61.526 23.3542 61.4531 23.0625 61.3438 22.6797C61.2161 22.2969 61.0977 22.0234 60.9883 21.8594C60.8971 21.6771 60.8242 21.4492 60.7695 21.1758C60.8607 21.0664 61.0339 21.0117 61.2891 21.0117L62.1641 21.1211L62.6016 21.2852C62.8568 21.0664 63.0664 20.8659 63.2305 20.6836C63.3945 20.5013 63.5677 20.2188 63.75 19.8359C63.9323 19.4531 64.0599 19.207 64.1328 19.0977L64.3516 18.9336H64.5977C64.7799 19.0065 65.0169 19.1523 65.3086 19.3711C65.582 19.5898 65.7826 19.7995 65.9102 20L65.8828 20.4922C65.6094 20.5833 65.3268 20.6927 65.0352 20.8203L64.2969 21.1484L62.875 21.8594L62.8203 22.5703L62.9023 23.7188L64.5703 23.1992C64.7708 23.1263 64.9531 23.0807 65.1172 23.0625C65.2995 23.0443 65.4635 23.0352 65.6094 23.0352L65.8828 23.1445L65.9648 23.582C65.7279 23.7643 65.5 23.8737 65.2812 23.9102L63.0117 24.3203L63.1484 25.168L63.2578 25.9336L64.8438 25.5508L65.3633 25.4961C65.7096 25.4779 65.9466 25.4961 66.0742 25.5508C66.2018 25.6237 66.2292 25.7878 66.1562 26.043C65.901 26.207 65.6549 26.2982 65.418 26.3164L63.3672 26.5898L63.6406 28.6133C66.1745 28.3945 67.6693 28.2487 68.125 28.1758L73.5391 27.6562C73.612 27 73.6667 26.5807 73.7031 26.3984L73.8672 25.7148L72.2812 25.8242H71.5977C71.3607 25.8242 71.1784 25.7786 71.0508 25.6875L70.8594 25.4961L70.8867 25.2773C70.9779 25.2044 71.1602 25.1497 71.4336 25.1133L73.1562 24.7852L73.6758 24.6758L74.0859 24.7852L74.332 22.9258L71.6797 23.0625L71.1055 22.7891C71.1237 22.6797 71.2057 22.6068 71.3516 22.5703L71.9531 22.4883L73.2656 22.2148L73.8672 22.1055L74.4688 22.1602L74.5781 20.8477L74.5234 20.5195C74.3776 20.4102 74.1953 20.3555 73.9766 20.3555C73.7578 20.3737 73.5664 20.3919 73.4023 20.4102L72.7461 20.5195C72.4909 20.5742 72.2448 20.6016 72.0078 20.6016C71.862 20.5833 71.6979 20.5378 71.5156 20.4648L71.2422 20.0547C71.2969 19.9453 71.4062 19.8906 71.5703 19.8906C71.7161 19.8724 71.9076 19.8451 72.1445 19.8086L73.4023 19.5352L74.3594 19.2344L74.9609 19.0977C75.1432 19.0794 75.3164 19.0977 75.4805 19.1523C75.6445 19.207 75.8268 19.2982 76.0273 19.4258C76.2096 19.5352 76.401 19.681 76.6016 19.8633L76.9023 20.2188C76.8841 20.3464 76.8294 20.4922 76.7383 20.6562C76.6289 20.8203 76.5286 21.0117 76.4375 21.2305C76.3281 21.4492 76.2461 21.6406 76.1914 21.8047C76.1367 21.9688 76.0911 22.1602 76.0547 22.3789L74.8516 27.4375L76.3281 27.2461L76.875 27.1367C77.2031 27.0638 77.4674 27.0273 77.668 27.0273C77.8685 27.0456 78.0508 27.0911 78.2148 27.1641C78.3789 27.2552 78.625 27.4375 78.9531 27.7109L79.8281 28.4219C80.138 28.6953 80.3477 28.9414 80.457 29.1602L80.5938 29.543C80.5573 29.707 80.4115 29.8255 80.1562 29.8984L79.0625 30.0352C78.9531 30.0716 78.6159 30.1628 78.0508 30.3086C77.4857 30.4544 77.1484 30.5365 77.0391 30.5547L76.1914 30.8555L75.7812 30.6641L76.4922 29.707C76.6745 29.4883 76.8294 29.2331 76.957 28.9414L77.0938 28.5039C77.0573 28.3945 76.9206 28.3307 76.6836 28.3125C76.4466 28.2943 76.2643 28.2852 76.1367 28.2852L64.6797 29.4062C64.2786 29.4609 63.8229 29.5156 63.3125 29.5703C62.8203 29.6432 62.4193 29.707 62.1094 29.7617C61.7812 29.8164 61.5169 29.8438 61.3164 29.8438C61.0612 29.8438 60.8607 29.8255 60.7148 29.7891L60.2773 29.707L59.9766 30.5547C59.8672 30.8646 59.7578 31.1289 59.6484 31.3477C59.5391 31.5664 59.3659 31.8216 59.1289 32.1133C58.8919 32.4049 58.6276 32.5781 58.3359 32.6328C58.1536 32.6328 58.0078 32.5964 57.8984 32.5234C57.7526 32.4323 57.6523 32.2409 57.5977 31.9492L57.5703 31.7305C57.5703 31.4935 57.5977 31.2839 57.6523 31.1016L58.0078 30.5273C58.2448 30.1992 58.4271 29.8893 58.5547 29.5977L58.9375 28.668C59.0651 28.3034 59.1745 28.0208 59.2656 27.8203C59.3385 27.638 59.4661 27.5378 59.6484 27.5195L59.9492 27.7656C60.0404 27.8932 60.1224 28.0846 60.1953 28.3398L60.2773 28.7773C60.8789 28.7591 61.2526 28.7409 61.3984 28.7227L62.4922 28.668ZM69.4102 33.6445L69.7109 34.082L69.8203 34.8203L72.0625 34.6289C72.4271 34.5924 73.0833 34.5195 74.0312 34.4102C74.9792 34.3008 75.6628 34.2005 76.082 34.1094C76.5013 34 76.7839 33.9453 76.9297 33.9453C77.1484 33.9635 77.4948 34.0547 77.9688 34.2188C78.4609 34.3828 78.8255 34.5651 79.0625 34.7656C79.2812 34.9479 79.3451 35.1667 79.2539 35.4219C79.0898 35.5312 78.9349 35.5859 78.7891 35.5859L77.7227 35.6133H75.6719L73.6484 35.6953L71.5156 35.7227L69.8203 35.8047L69.793 39.0039C69.7747 39.1133 69.7565 39.4596 69.7383 40.043C69.7018 40.5898 69.6654 41.0091 69.6289 41.3008C69.5924 41.5924 69.5013 41.9023 69.3555 42.2305C69.2279 42.5404 69.0273 42.7956 68.7539 42.9961C68.5352 43.1784 68.2891 43.2513 68.0156 43.2148L67.4688 42.5859C67.25 42.3125 67.0312 42.0664 66.8125 41.8477L66.2656 41.3555L65.7188 40.8086L65.8008 40.4805L66.5938 40.5898L67.3594 40.7539L67.7695 40.8086C67.9336 40.7357 68.043 40.6081 68.0977 40.4258C68.1523 40.2435 68.1979 39.9245 68.2344 39.4688L68.3438 38.457V35.9414L66.2109 36.1328C65.737 36.1875 65.2904 36.2422 64.8711 36.2969C64.4518 36.3516 63.8685 36.4609 63.1211 36.625C62.3737 36.7708 61.8177 36.8893 61.4531 36.9805C61.0885 37.0898 60.8242 37.1445 60.6602 37.1445C60.4779 37.1445 60.2682 37.1172 60.0312 37.0625C59.8125 36.9896 59.5573 36.8893 59.2656 36.7617C58.974 36.6523 58.7552 36.5065 58.6094 36.3242L58.3906 35.9961C58.4271 35.8503 58.5729 35.7682 58.8281 35.75L59.5938 35.7227C59.9948 35.7227 60.8151 35.668 62.0547 35.5586C63.276 35.4492 64.1966 35.3581 64.8164 35.2852L68.2344 34.9023C68.1979 34.6836 68.1615 34.4831 68.125 34.3008C68.0703 34.1185 67.9609 33.9362 67.7969 33.7539L67.7422 33.1797C67.888 33.1615 68.0339 33.1706 68.1797 33.207L68.8359 33.3984L70.2031 32.0039C70.3125 31.8945 70.4219 31.7487 70.5312 31.5664L70.5039 31.1562C70.3945 31.138 70.2852 31.138 70.1758 31.1562L69.2734 31.293L66.375 31.9492L65.3906 32.168L65.0078 32.2227C64.8255 32.2227 64.6797 32.2044 64.5703 32.168C64.4609 32.1133 64.2969 32.0039 64.0781 31.8398L63.6953 31.3477C63.7135 31.2383 63.7865 31.1836 63.9141 31.1836C64.0599 31.1654 64.2969 31.138 64.625 31.1016L65.6641 31.0195C65.9557 31.0195 66.4206 30.9466 67.0586 30.8008L69.0547 30.4453C69.638 30.3177 70.1029 30.2083 70.4492 30.1172C70.7956 30.026 71.0417 29.9714 71.1875 29.9531C71.3698 29.9531 71.5247 29.9805 71.6523 30.0352C71.7799 30.0716 72.0716 30.2448 72.5273 30.5547C72.9831 30.8646 73.2474 31.0742 73.3203 31.1836L73.4297 31.5391C73.4297 31.6667 73.2839 31.776 72.9922 31.8672C72.7005 31.9583 72.4909 32.0221 72.3633 32.0586C72.2357 32.1133 72.0807 32.1862 71.8984 32.2773L69.4102 33.6445ZM68.043 25.6328L67.4688 25.0586L66.8945 24.5117L66.9219 24.3203L68.4531 24.9766C68.5625 24.7943 68.6445 24.6393 68.6992 24.5117C68.7539 24.4023 68.8086 24.2383 68.8633 24.0195C68.918 23.8008 68.9453 23.6003 68.9453 23.418L69.082 23.0625H69.3281C69.6198 23.1536 69.8385 23.2539 69.9844 23.3633C70.1302 23.4909 70.2487 23.6185 70.3398 23.7461L70.4766 23.9648C70.4401 24.0742 70.349 24.1927 70.2031 24.3203C70.0573 24.4479 69.9206 24.5846 69.793 24.7305L69.1914 25.4414C69.4284 25.5508 69.6471 25.6602 69.8477 25.7695C70.0482 25.8789 70.1849 26.0065 70.2578 26.1523C70.3307 26.2982 70.3763 26.4805 70.3945 26.6992C70.3945 26.8633 70.349 27.0273 70.2578 27.1914L70.1211 27.3828L69.7109 27.4102C69.5651 27.3008 69.3919 27.1185 69.1914 26.8633L68.6172 26.207L67.9062 26.8086C67.6875 26.9909 67.4505 27.1732 67.1953 27.3555L66.5938 27.6836L66.375 27.5469C66.612 27.2917 66.8034 27.082 66.9492 26.918L68.043 25.6328ZM68.207 21.0664L67.0859 19.6992L68.6445 20.3828L68.8359 19.8086C68.9089 19.5534 68.9635 19.3529 69 19.207L69.0273 18.8789L69.2734 18.4961C69.5286 18.5326 69.7474 18.6055 69.9297 18.7148C70.112 18.8242 70.2669 18.9518 70.3945 19.0977L70.5312 19.3711C70.513 19.4805 70.4401 19.5807 70.3125 19.6719C70.2031 19.763 70.0938 19.8815 69.9844 20.0273L69.4375 20.793C69.6927 20.957 69.9115 21.0846 70.0938 21.1758C70.2578 21.2852 70.3763 21.3945 70.4492 21.5039C70.5404 21.6315 70.5859 21.7956 70.5859 21.9961C70.5677 22.2148 70.513 22.388 70.4219 22.5156C70.349 22.6432 70.2396 22.7253 70.0938 22.7617C69.9661 22.7617 69.8477 22.7253 69.7383 22.6523C69.6107 22.5794 69.474 22.4336 69.3281 22.2148L68.8359 21.668C68.5807 21.9232 68.362 22.151 68.1797 22.3516L67.4688 22.9258C67.2135 23.1081 66.9766 23.2539 66.7578 23.3633L66.5664 23.3086L66.8125 22.9258L67.6875 21.832L68.207 21.0664Z" fill="#333333"/>
<path d="M129.266 29.9258C129.12 29.9258 128.974 29.8984 128.828 29.8438C128.682 29.7708 128.573 29.6615 128.5 29.5156C128.445 29.3516 128.327 29.1602 128.145 28.9414C127.98 28.7227 127.816 28.5586 127.652 28.4492L127.762 28.3125C127.853 28.3672 128.072 28.4766 128.418 28.6406C128.764 28.8047 129.02 28.8867 129.184 28.8867C129.439 28.8867 129.667 28.7956 129.867 28.6133C130.068 28.431 130.323 28.0846 130.633 27.5742C130.852 27.2279 131.052 26.8177 131.234 26.3438C131.417 25.8698 131.553 25.4323 131.645 25.0312L131.672 24.9766C131.672 24.9219 131.654 24.8763 131.617 24.8398C131.581 24.7852 131.544 24.7578 131.508 24.7578L130.25 24.8672C129.411 25.013 128.536 25.1315 127.625 25.2227C127.461 25.2409 127.27 25.2865 127.051 25.3594C126.832 25.4323 126.677 25.4688 126.586 25.4688C126.44 25.4688 126.249 25.3503 126.012 25.1133C125.921 25.0404 125.829 24.9492 125.738 24.8398C125.665 24.7305 125.647 24.6393 125.684 24.5664C125.829 24.4206 125.902 24.3477 125.902 24.3477L126.039 24.2383C126.294 23.9831 126.549 23.6458 126.805 23.2266C126.987 22.9714 127.178 22.543 127.379 21.9414C127.379 21.7409 127.424 21.6406 127.516 21.6406C127.57 21.6406 127.661 21.6771 127.789 21.75L128.227 22.0234C128.336 22.1146 128.409 22.1875 128.445 22.2422C128.482 22.2969 128.5 22.3698 128.5 22.4609C128.5 22.5703 128.427 22.707 128.281 22.8711C128.135 23.0169 128.008 23.1628 127.898 23.3086L127.27 24.2109L127.215 24.3203C127.215 24.375 127.288 24.4023 127.434 24.4023L129.539 24.1289L130.961 24.0195L131.508 23.9648L131.809 23.9102H131.891C132.073 23.9102 132.273 24.0651 132.492 24.375C132.747 24.612 132.875 24.8125 132.875 24.9766L132.738 25.332C132.72 25.3685 132.574 25.7969 132.301 26.6172C131.973 27.401 131.69 27.9935 131.453 28.3945C131.216 28.7956 130.961 29.1055 130.688 29.3242C130.195 29.7253 129.721 29.9258 129.266 29.9258ZM132.164 38.8945C131.891 38.8945 131.626 38.694 131.371 38.293C131.043 37.7826 130.724 37.3633 130.414 37.0352L129.703 36.2969C129.32 36.7344 128.983 37.0807 128.691 37.3359C128.418 37.5911 128.072 37.8372 127.652 38.0742C126.868 38.5299 126.212 38.7578 125.684 38.7578C125.556 38.7578 125.492 38.7122 125.492 38.6211C125.492 38.5664 125.665 38.4479 126.012 38.2656C126.358 38.0833 126.686 37.8646 126.996 37.6094C127.78 36.9531 128.427 36.2786 128.938 35.5859C128.828 35.4766 128.281 35.0026 127.297 34.1641C127.169 34.0729 126.978 33.918 126.723 33.6992C126.668 33.6628 126.559 33.5807 126.395 33.4531C126.23 33.3255 126.148 33.2344 126.148 33.1797C126.148 33.0885 126.194 33.043 126.285 33.043C126.559 33.043 126.996 33.2344 127.598 33.6172C128.199 33.9818 128.828 34.4193 129.484 34.9297C129.74 34.6198 129.94 34.3281 130.086 34.0547C130.232 33.7812 130.396 33.444 130.578 33.043C130.669 32.8424 130.724 32.6693 130.742 32.5234C130.76 32.3594 130.77 32.2591 130.77 32.2227C130.77 32.0221 130.824 31.9219 130.934 31.9219C131.061 31.9219 131.234 32.0221 131.453 32.2227C131.836 32.5872 132.027 32.8333 132.027 32.9609C132.027 33.0339 131.982 33.1159 131.891 33.207C131.672 33.4258 131.471 33.7174 131.289 34.082C131.18 34.3008 130.979 34.6107 130.688 35.0117C130.596 35.1211 130.523 35.2214 130.469 35.3125C130.414 35.4036 130.359 35.4857 130.305 35.5586C130.724 35.8685 131.344 36.3971 132.164 37.1445C132.365 37.3268 132.492 37.5 132.547 37.6641C132.62 37.8099 132.656 38.0104 132.656 38.2656C132.656 38.4479 132.611 38.6029 132.52 38.7305C132.428 38.8398 132.31 38.8945 132.164 38.8945ZM134.242 29.2695C134.333 29.2695 134.47 29.3333 134.652 29.4609C134.634 29.4974 134.671 29.5703 134.762 29.6797C134.853 29.7708 134.917 29.8346 134.953 29.8711C135.044 29.9622 135.135 30.0716 135.227 30.1992C135.336 30.3268 135.454 30.4635 135.582 30.6094C135.91 30.9557 136.667 31.8581 137.852 33.3164C138.052 33.6081 138.152 33.7812 138.152 33.8359C138.152 34.0182 138.043 34.1094 137.824 34.1094C137.697 34.1094 137.56 34.0182 137.414 33.8359C137.068 33.4714 136.448 32.8971 135.555 32.1133C134.862 31.4753 134.233 30.9831 133.668 30.6367C133.395 30.5091 133.258 30.3633 133.258 30.1992C133.258 30.0716 133.395 29.8893 133.668 29.6523C133.923 29.3971 134.115 29.2695 134.242 29.2695ZM103.125 24.5664L102.742 24.5117C102.56 24.4753 102.387 24.4388 102.223 24.4023C102.077 24.3659 101.895 24.2018 101.676 23.9102C101.694 23.7643 101.794 23.6823 101.977 23.6641L102.77 23.5547L104.082 23.418C104.447 23.3815 104.829 23.3268 105.23 23.2539C105.668 23.181 105.941 23.1263 106.051 23.0898L106.898 22.8164C106.479 22.2695 106.188 21.8411 106.023 21.5312C105.878 21.2214 105.741 20.8568 105.613 20.4375L105.449 19.918L105.34 19.5352L105.477 19.3438C105.622 19.3438 105.777 19.3711 105.941 19.4258C106.124 19.4622 106.361 19.5625 106.652 19.7266C106.944 19.8906 107.217 20.0547 107.473 20.2188C107.728 20.3828 107.919 20.5742 108.047 20.793C108.12 20.9388 108.147 21.2122 108.129 21.6133C108.092 21.9049 108.038 22.1328 107.965 22.2969L107.855 22.707C108.001 22.6706 108.165 22.6341 108.348 22.5977C108.53 22.5612 108.767 22.4974 109.059 22.4062C109.368 22.3151 109.733 22.1966 110.152 22.0508C110.298 22.0508 110.435 22.069 110.562 22.1055C110.69 22.1237 110.872 22.1875 111.109 22.2969C111.346 22.388 111.611 22.5612 111.902 22.8164C111.902 22.9622 111.839 23.0807 111.711 23.1719C111.602 23.263 111.447 23.3268 111.246 23.3633L110.699 23.5L109.715 23.6914L109.059 23.8008C109.223 23.819 109.368 23.8464 109.496 23.8828C109.642 23.901 109.806 23.9648 109.988 24.0742C110.171 24.1471 110.335 24.2383 110.48 24.3477C110.608 24.4206 110.672 24.5117 110.672 24.6211C110.672 24.7122 110.617 24.8216 110.508 24.9492C110.417 25.0586 110.316 25.2044 110.207 25.3867L109.742 26.1797L109.195 27.1641C109.013 27.474 108.822 27.7747 108.621 28.0664L108.348 28.5039C108.548 28.4674 108.776 28.4219 109.031 28.3672L109.824 28.2031C110.116 28.1484 110.362 28.1211 110.562 28.1211C110.763 28.1211 110.954 28.1393 111.137 28.1758C111.337 28.2122 111.547 28.276 111.766 28.3672C112.003 28.4401 112.194 28.5312 112.34 28.6406C112.449 28.7682 112.504 28.8958 112.504 29.0234C112.522 29.151 112.449 29.2331 112.285 29.2695L111.301 29.3789C111.118 29.4154 110.572 29.4883 109.66 29.5977L107.555 29.8438C107.081 29.9167 106.543 30.0078 105.941 30.1172L103.973 30.5273C103.262 30.6732 102.742 30.7917 102.414 30.8828C102.104 30.974 101.803 31.0833 101.512 31.2109L100.938 31.4023L100.691 31.4297C100.527 31.4297 100.363 31.4023 100.199 31.3477C99.9805 31.2747 99.7799 31.1836 99.5977 31.0742C99.4154 30.9648 99.1966 30.8099 98.9414 30.6094L98.6406 30.1992C98.7135 30.0534 98.8503 29.9622 99.0508 29.9258L99.625 29.8711C100.901 29.7253 101.822 29.6068 102.387 29.5156L104.246 29.2148L104.793 29.1602C104.684 29.0508 104.602 28.9414 104.547 28.832C104.492 28.7227 104.392 28.4492 104.246 28.0117L103.918 26.918C103.699 26.1888 103.572 25.7695 103.535 25.6602L103.207 24.8945L103.125 24.5664ZM103.645 24.5938C103.827 24.7943 103.973 24.931 104.082 25.0039L104.738 25.6055C105.066 25.9336 105.285 26.2253 105.395 26.4805C105.504 26.7174 105.595 26.9727 105.668 27.2461C105.686 27.4284 105.695 27.6745 105.695 27.9844L105.586 28.6406L105.34 29.0508C105.723 28.9779 106.033 28.9232 106.27 28.8867C106.525 28.8503 106.889 28.7865 107.363 28.6953L107.719 28.2305C107.81 27.8477 107.928 27.4102 108.074 26.918C108.22 26.4076 108.32 25.9883 108.375 25.6602C108.448 25.3138 108.484 25.0404 108.484 24.8398C108.503 24.6393 108.493 24.457 108.457 24.293L108.375 23.8828L107.473 24.0742C107.035 24.1471 106.689 24.2018 106.434 24.2383L105.34 24.4023L104.41 24.5664L103.645 24.5938ZM107.281 32.2773C107.646 32.2227 107.928 32.1771 108.129 32.1406C108.348 32.0859 108.585 32.0039 108.84 31.8945C109.095 31.8216 109.286 31.776 109.414 31.7578C109.578 31.7578 109.715 31.7852 109.824 31.8398C109.988 31.8763 110.207 31.9857 110.48 32.168C110.736 32.3138 110.936 32.4414 111.082 32.5508C111.228 32.6602 111.346 32.7969 111.438 32.9609C111.529 33.1068 111.501 33.2708 111.355 33.4531C111.21 33.6172 111.082 33.8177 110.973 34.0547C110.827 34.2734 110.717 34.474 110.645 34.6562L109.496 36.8984L109.879 37.0898L110.098 37.3633C110.098 37.5091 109.988 37.6094 109.77 37.6641L109.059 37.7188L104.355 38.3203C104.246 38.7031 104.146 38.8945 104.055 38.8945C103.964 38.8945 103.872 38.8763 103.781 38.8398C103.708 38.8034 103.617 38.7214 103.508 38.5938C103.417 38.4661 103.371 38.3294 103.371 38.1836L102.879 35.3398C102.824 34.9753 102.733 34.6471 102.605 34.3555C102.496 34.0638 102.405 33.8633 102.332 33.7539L101.867 33.2891L101.73 33.0156C101.767 32.888 101.967 32.8242 102.332 32.8242L102.77 32.9062L103.371 33.0703L107.281 32.2773ZM104.273 37.3633L108.512 36.5977L108.949 34.1914L109.059 33.5078V33.2344C108.986 33.1068 108.812 33.043 108.539 33.043C108.357 33.043 108.12 33.0794 107.828 33.1523L106.543 33.4258L105.148 33.6992L103.809 33.9727L104.273 37.3633ZM116.059 22.7617C115.986 22.9622 115.931 23.1263 115.895 23.2539C115.858 23.3633 115.803 23.6367 115.73 24.0742C115.676 24.5117 115.648 24.8398 115.648 25.0586L115.238 38.1289C115.202 39.1497 115.165 39.7878 115.129 40.043L114.965 41.3008C114.892 41.8477 114.801 42.2578 114.691 42.5312L114.391 42.8867C114.263 42.8867 114.145 42.7591 114.035 42.5039C113.944 42.2487 113.889 41.8477 113.871 41.3008L113.816 39.9609V38.8672L114.09 24.9492C114.09 24.6211 114.081 24.2656 114.062 23.8828C114.044 23.4818 114.026 23.1719 114.008 22.9531C114.008 22.7161 113.962 22.4701 113.871 22.2148L113.789 21.8047L114.062 21.5312C114.227 21.513 114.372 21.5221 114.5 21.5586L115.047 21.7227L115.73 22.1055L118.137 21.2305C118.556 21.0846 118.921 20.9388 119.23 20.793C119.54 20.6471 119.759 20.5742 119.887 20.5742C120.033 20.5742 120.197 20.5924 120.379 20.6289C120.561 20.7018 120.816 20.8112 121.145 20.957C121.473 21.1029 121.71 21.2122 121.855 21.2852C122.001 21.3581 122.12 21.4492 122.211 21.5586C122.32 21.668 122.366 21.7773 122.348 21.8867C122.348 21.9779 122.275 22.0964 122.129 22.2422C121.983 22.3698 121.801 22.5612 121.582 22.8164L121.117 23.418L118.957 26.5898L119.668 27.0547C119.923 27.2188 120.169 27.4284 120.406 27.6836C120.643 27.9388 120.917 28.3034 121.227 28.7773C121.536 29.2331 121.783 29.7799 121.965 30.418C122.129 30.9831 122.211 31.612 122.211 32.3047C122.174 33.0521 122.047 33.6628 121.828 34.1367C121.628 34.6107 121.281 34.9661 120.789 35.2031L120.242 34.7383L119.641 34.2461L118.656 33.3711L117.754 32.7422L117.152 32.2773L117.043 32.0312L117.289 32.0039L118.246 32.1133C118.501 32.168 118.793 32.2318 119.121 32.3047C119.449 32.3594 119.714 32.3867 119.914 32.3867C120.133 32.3867 120.297 32.3411 120.406 32.25L120.461 31.8125C120.443 31.4115 120.397 31.0469 120.324 30.7188C120.27 30.3906 120.188 30.0898 120.078 29.8164C119.987 29.5247 119.832 29.1602 119.613 28.7227C119.395 28.2852 119.094 27.875 118.711 27.4922C118.328 27.1094 118.137 26.8451 118.137 26.6992L118.465 25.8789L119.395 23.0898C119.504 22.7799 119.559 22.5885 119.559 22.5156C119.559 22.4245 119.531 22.3424 119.477 22.2695C119.422 22.1784 119.276 22.1146 119.039 22.0781C118.857 22.0599 118.647 22.0872 118.41 22.1602L116.059 22.7617Z" fill="#333333"/>
<path d="M171.293 30.0898C171.038 30.0898 170.846 30.0078 170.719 29.8438C170.555 29.5339 170.217 29.1966 169.707 28.832L169.762 28.6953C170.327 28.9323 170.801 29.0508 171.184 29.0508C171.421 29.0508 171.621 28.9141 171.785 28.6406C171.967 28.349 172.159 27.9297 172.359 27.3828C172.596 26.7083 172.724 26.1432 172.742 25.6875C172.742 25.6328 172.715 25.5872 172.66 25.5508C172.605 25.4961 172.56 25.4688 172.523 25.4688C172.359 25.4505 172.049 25.4779 171.594 25.5508L171.02 25.6328C170.855 25.651 170.664 25.6875 170.445 25.7422C170.245 25.7969 170.081 25.8333 169.953 25.8516C169.88 25.8698 169.762 25.9062 169.598 25.9609C169.434 26.0156 169.315 26.043 169.242 26.043C169.151 26.043 169.042 25.9974 168.914 25.9062C168.805 25.7969 168.704 25.6784 168.613 25.5508C168.595 25.5326 168.586 25.4961 168.586 25.4414C168.586 25.3685 168.641 25.2773 168.75 25.168C168.878 25.0404 168.978 24.9401 169.051 24.8672C169.142 24.7578 169.233 24.6302 169.324 24.4844C169.415 24.3203 169.488 24.2018 169.543 24.1289C169.634 23.9831 169.707 23.8099 169.762 23.6094L169.816 23.3633C169.816 23.3451 169.807 23.2995 169.789 23.2266C169.771 23.1354 169.734 23.0898 169.68 23.0898C168.951 23.181 168.413 23.2904 168.066 23.418C167.993 23.4544 167.884 23.4909 167.738 23.5273C167.611 23.5273 167.501 23.4727 167.41 23.3633C167.355 23.3451 167.246 23.1992 167.082 22.9258C167.009 22.8529 166.973 22.7891 166.973 22.7344C166.973 22.6068 167.164 22.5339 167.547 22.5156L168.066 22.4609C168.158 22.4609 168.349 22.4427 168.641 22.4062C169.224 22.3516 170.035 22.2878 171.074 22.2148C171.439 22.1966 172.068 22.151 172.961 22.0781C173.216 22.0599 173.526 22.0234 173.891 21.9688C174.091 21.9141 174.219 21.8867 174.273 21.8867C174.365 21.8867 174.456 21.9232 174.547 21.9961C174.638 22.0326 174.757 22.1055 174.902 22.2148C175.048 22.306 175.158 22.4062 175.23 22.5156C175.303 22.6068 175.34 22.6979 175.34 22.7891C175.34 22.8802 175.294 22.944 175.203 22.9805C175.112 23.0169 174.993 23.0169 174.848 22.9805C174.629 22.9258 174.374 22.8893 174.082 22.8711C173.809 22.8529 173.645 22.8438 173.59 22.8438C172.97 22.8255 172.195 22.8529 171.266 22.9258C171.01 22.9622 170.819 22.9805 170.691 22.9805C170.801 23.0716 170.901 23.2174 170.992 23.418V23.4727C170.992 23.5273 170.965 23.6003 170.91 23.6914C170.855 23.7826 170.792 23.8464 170.719 23.8828C170.628 23.9375 170.518 24.0651 170.391 24.2656C170.263 24.4661 170.181 24.5938 170.145 24.6484C170.035 24.7943 169.98 24.9128 169.98 25.0039C169.98 25.0768 170.053 25.1042 170.199 25.0859C170.327 25.0677 170.591 25.0312 170.992 24.9766C171.411 24.9036 171.721 24.8398 171.922 24.7852C171.977 24.7669 172.059 24.7487 172.168 24.7305C172.296 24.7122 172.441 24.6758 172.605 24.6211C172.733 24.6029 172.861 24.6302 172.988 24.7031C173.134 24.776 173.353 24.931 173.645 25.168C173.863 25.332 173.973 25.4779 173.973 25.6055C173.973 25.6966 173.936 25.7878 173.863 25.8789C173.79 26.0065 173.736 26.1797 173.699 26.3984C173.535 27.1641 173.344 27.7839 173.125 28.2578C172.961 28.5859 172.806 28.8594 172.66 29.0781C172.514 29.2786 172.332 29.4792 172.113 29.6797C171.876 29.9531 171.603 30.0898 171.293 30.0898ZM171.484 39.6328C170.609 39.6328 169.88 39.4141 169.297 38.9766C168.695 38.4844 168.395 37.9102 168.395 37.2539C168.395 36.7435 168.586 36.2969 168.969 35.9141C169.461 35.4948 170.081 35.2852 170.828 35.2852C170.865 35.2852 170.892 35.2487 170.91 35.1758C170.947 35.0846 170.965 34.9661 170.965 34.8203L170.992 34.1094C170.865 34.1276 170.618 34.1549 170.254 34.1914C169.908 34.2279 169.652 34.2643 169.488 34.3008C169.579 34.2826 169.297 34.3464 168.641 34.4922C168.586 34.5104 168.486 34.5195 168.34 34.5195C167.993 34.5195 167.702 34.3646 167.465 34.0547C167.355 33.9453 167.301 33.8542 167.301 33.7812C167.301 33.6719 167.465 33.6172 167.793 33.6172L168.641 33.5625L170.965 33.2617V32.9336V32.25C170.947 32.1771 170.938 32.0951 170.938 32.0039C170.938 31.9128 170.928 31.8398 170.91 31.7852C170.874 31.6393 170.855 31.5482 170.855 31.5117C170.855 31.3841 170.919 31.3203 171.047 31.3203C171.211 31.3203 171.493 31.4388 171.895 31.6758C172.022 31.7487 172.086 31.849 172.086 31.9766C172.086 32.0677 172.068 32.1497 172.031 32.2227C172.013 32.2773 172.004 32.3411 172.004 32.4141V33.1797L172.824 33.0977L173.836 32.9883C173.927 32.9701 174.027 32.9427 174.137 32.9062C174.264 32.8698 174.365 32.8516 174.438 32.8516C174.547 32.8516 174.684 32.9062 174.848 33.0156C175.158 33.2161 175.312 33.3893 175.312 33.5352C175.312 33.681 175.158 33.7539 174.848 33.7539C174.757 33.7539 174.629 33.7721 174.465 33.8086C174.301 33.8268 174.091 33.8451 173.836 33.8633L172.004 34L171.977 35.668C171.94 35.9414 171.74 36.1146 171.375 36.1875H171.32C171.211 36.1875 171.102 36.1784 170.992 36.1602C170.901 36.1237 170.828 36.1055 170.773 36.1055C170.628 36.1055 170.482 36.1146 170.336 36.1328C170.19 36.151 170.062 36.2057 169.953 36.2969C169.643 36.5703 169.488 36.8893 169.488 37.2539C169.488 37.6185 169.661 37.9466 170.008 38.2383C170.318 38.5299 170.81 38.6758 171.484 38.6758C172.378 38.6393 173.107 38.3932 173.672 37.9375C173.909 37.7734 174.091 37.6914 174.219 37.6914C174.292 37.6914 174.383 37.7096 174.492 37.7461C174.51 37.7643 174.547 37.8008 174.602 37.8555C174.656 37.9102 174.684 37.9648 174.684 38.0195C174.684 38.5299 174.255 38.9492 173.398 39.2773C172.76 39.5143 172.122 39.6328 171.484 39.6328ZM176.242 29.2695C176.333 29.2695 176.47 29.3333 176.652 29.4609C176.634 29.4974 176.671 29.5703 176.762 29.6797C176.853 29.7708 176.917 29.8346 176.953 29.8711C177.044 29.9622 177.135 30.0716 177.227 30.1992C177.336 30.3268 177.454 30.4635 177.582 30.6094C177.91 30.9557 178.667 31.8581 179.852 33.3164C180.052 33.6081 180.152 33.7812 180.152 33.8359C180.152 34.0182 180.043 34.1094 179.824 34.1094C179.697 34.1094 179.56 34.0182 179.414 33.8359C179.068 33.4714 178.448 32.8971 177.555 32.1133C176.862 31.4753 176.233 30.9831 175.668 30.6367C175.395 30.5091 175.258 30.3633 175.258 30.1992C175.258 30.0716 175.395 29.8893 175.668 29.6523C175.923 29.3971 176.115 29.2695 176.242 29.2695ZM156.801 33.125L156.664 40.0977L156.637 41L156.555 41.6289C156.536 41.7565 156.491 41.9206 156.418 42.1211L156.172 42.6133C156.081 42.7409 155.999 42.8503 155.926 42.9414L155.707 43.0781C155.579 43.0781 155.452 42.9779 155.324 42.7773C155.251 42.668 155.16 42.4492 155.051 42.1211C154.923 41.793 154.832 41.5195 154.777 41.3008C154.759 41.1732 154.75 41.0091 154.75 40.8086C154.75 40.5534 154.796 40.2161 154.887 39.7969C154.996 39.3776 155.069 39.0768 155.105 38.8945C155.142 38.694 155.197 38.2747 155.27 37.6367L155.434 36.2148L155.461 35.1758L155.516 34.4102C154.768 35.3398 154.167 36.0417 153.711 36.5156C153.255 36.9896 152.681 37.4909 151.988 38.0195C151.296 38.5299 150.721 38.8763 150.266 39.0586L149.582 39.2773L148.707 39.4961C148.689 39.3867 148.743 39.2865 148.871 39.1953L149.309 38.8945C149.418 38.8216 149.618 38.6758 149.91 38.457L151.496 37.0352C151.934 36.6159 152.508 35.9505 153.219 35.0391C153.93 34.1458 154.431 33.4076 154.723 32.8242L155.215 31.9766L153.027 32.4414C152.827 32.4779 152.572 32.5417 152.262 32.6328C151.952 32.724 151.724 32.7695 151.578 32.7695C151.341 32.7695 151.04 32.6784 150.676 32.4961L150.32 32.3594C150.029 32.2318 149.819 32.1042 149.691 31.9766L149.555 31.7305C149.591 31.5846 149.71 31.5117 149.91 31.5117L150.84 31.457L151.988 31.3477C152.408 31.3112 152.9 31.2565 153.465 31.1836L155.68 30.8828L155.762 28.7773L153.301 29.0234L153.082 29.2148L152.672 29.2969C152.526 29.1693 152.408 28.9779 152.316 28.7227C152.243 28.4674 152.189 28.1393 152.152 27.7383L151.715 24.1289C151.678 23.8737 151.642 23.6549 151.605 23.4727C151.551 23.2904 151.478 23.0716 151.387 22.8164L151.195 22.3516L150.812 21.668C150.885 21.5586 151.04 21.513 151.277 21.5312L151.934 21.6406L152.645 21.832L155.871 21.3945C156.418 21.3398 157.056 21.2487 157.785 21.1211L159.371 20.8477C159.699 20.7747 159.991 20.6927 160.246 20.6016L160.656 20.4648C160.82 20.4648 161.076 20.5195 161.422 20.6289C161.768 20.7383 162.014 20.8385 162.16 20.9297C162.306 21.0026 162.507 21.1393 162.762 21.3398L163.145 21.8047V22.1055L162.871 22.4883C162.689 22.7253 162.552 22.9622 162.461 23.1992C162.37 23.4544 162.288 23.7096 162.215 23.9648L161.148 27.6289C161.003 28.1211 160.884 28.4492 160.793 28.6133C160.684 28.7956 160.556 28.9232 160.41 28.9961L159.945 29.0508L159.699 28.9141L159.562 28.3672L156.965 28.6406L156.855 30.8281L158.387 30.6914L159.535 30.582L160.82 30.418C161.167 30.3815 161.513 30.3268 161.859 30.2539C162.206 30.1628 162.452 30.1172 162.598 30.1172C162.78 30.1354 162.999 30.1992 163.254 30.3086C163.509 30.418 163.746 30.5365 163.965 30.6641C164.184 30.7917 164.384 30.9466 164.566 31.1289L164.812 31.4844C164.794 31.6484 164.712 31.7487 164.566 31.7852C164.421 31.8216 164.238 31.8398 164.02 31.8398L163.309 31.7852C163.163 31.7852 162.661 31.7669 161.805 31.7305C160.948 31.694 160.337 31.6758 159.973 31.6758C159.608 31.6758 159.125 31.7031 158.523 31.7578L157.566 31.8398L156.828 31.9492C157.047 32.2409 157.211 32.4414 157.32 32.5508L158.332 33.7266L159.699 35.2031C160.191 35.6953 160.665 36.1146 161.121 36.4609C161.595 36.8073 162.105 37.1081 162.652 37.3633C163.199 37.6549 163.637 37.8646 163.965 37.9922C164.311 38.1198 164.603 38.2201 164.84 38.293L165.305 38.457L165.605 38.6484C165.605 38.7943 165.533 38.8945 165.387 38.9492L164.703 39.1406C164.466 39.1953 164.056 39.2682 163.473 39.3594C162.98 39.4505 162.552 39.4961 162.188 39.4961C161.841 39.4961 161.586 39.4596 161.422 39.3867C161.258 39.3138 161.076 39.1953 160.875 39.0312C160.693 38.849 160.474 38.5846 160.219 38.2383C159.945 37.8919 159.608 37.4089 159.207 36.7891L157.867 34.793L157.047 33.5078L156.801 33.125ZM153.137 25.168L155.707 24.8398L155.652 24.0195L155.598 23.582L155.516 22.9805L155.27 22.1602L152.809 22.5156L153.137 25.168ZM155.762 25.7148C155.16 25.7878 154.686 25.8424 154.34 25.8789C154.103 25.8971 153.893 25.9062 153.711 25.9062L153.191 25.8789L153.355 28.0664L155.762 27.9023V25.7148ZM157.32 24.6484L158.277 24.457C158.751 24.3659 159.043 24.3112 159.152 24.293L159.863 24.4023L160.383 24.457L160.574 23.1445C160.629 22.8529 160.656 22.5977 160.656 22.3789L160.602 21.9961C160.547 21.8685 160.447 21.7773 160.301 21.7227C160.191 21.6862 160.018 21.668 159.781 21.668L156.637 22.0234C156.983 22.224 157.238 22.3971 157.402 22.543L157.676 22.9531C157.694 23.0625 157.658 23.2083 157.566 23.3906C157.493 23.6276 157.439 23.8828 157.402 24.1562L157.32 24.6484ZM157.074 27.6289C157.53 27.5924 158.004 27.5378 158.496 27.4648C158.897 27.3919 159.171 27.3555 159.316 27.3555L159.809 27.3828L159.973 26.6992L160.246 25.25L157.184 25.6055L157.074 27.6289ZM146.957 24.5664C146.793 24.457 146.665 24.3477 146.574 24.2383C146.465 24.1289 146.365 24.0104 146.273 23.8828C146.182 23.737 146.064 23.5273 145.918 23.2539L145.535 22.4336C145.426 22.1602 145.28 21.8138 145.098 21.3945L144.906 20.9297L144.934 20.7109L145.289 20.6289L145.754 20.793C145.973 20.9023 146.173 21.0117 146.355 21.1211C146.538 21.2122 146.72 21.3216 146.902 21.4492C147.085 21.5586 147.249 21.6953 147.395 21.8594C147.54 22.0052 147.668 22.1602 147.777 22.3242C147.887 22.4701 147.951 22.6523 147.969 22.8711L147.996 23.1172L147.969 23.3906C147.951 23.5547 147.905 23.7096 147.832 23.8555C147.796 24.0013 147.714 24.1654 147.586 24.3477L148.652 24.2383C149.017 24.1654 149.272 24.1289 149.418 24.1289C149.564 24.1289 149.746 24.1654 149.965 24.2383C150.22 24.3112 150.439 24.4023 150.621 24.5117C150.803 24.6211 150.885 24.7852 150.867 25.0039C150.812 25.1133 150.712 25.168 150.566 25.168C150.457 25.2044 150.275 25.2318 150.02 25.25C149.764 25.2865 149.418 25.332 148.98 25.3867C148.579 25.4596 148.197 25.5234 147.832 25.5781L145.918 25.9609C145.59 26.0156 145.225 26.0977 144.824 26.207C144.423 26.3164 144.068 26.4076 143.758 26.4805C143.448 26.5534 143.184 26.6445 142.965 26.7539L142.555 26.918C142.391 26.918 142.236 26.8997 142.09 26.8633C141.944 26.8268 141.78 26.7721 141.598 26.6992L141.133 26.5078C141.005 26.4531 140.85 26.362 140.668 26.2344L140.395 25.9883L140.422 25.6875L140.805 25.5781L141.516 25.4961C141.917 25.4596 142.719 25.332 143.922 25.1133L146.957 24.5664ZM143.949 28.7227L144.387 28.6406C144.569 28.6224 144.815 28.5677 145.125 28.4766C145.453 28.3854 145.772 28.3034 146.082 28.2305C146.41 28.1393 146.684 28.0482 146.902 27.957L147.285 27.8477L147.695 27.8203C147.823 27.8385 148.014 27.875 148.27 27.9297C148.525 27.9844 148.716 28.0482 148.844 28.1211L149.035 28.2852L148.953 28.5039L148.707 28.668L147.777 28.8867L145.59 29.3789L145.234 29.4883L144.988 29.543C144.861 29.543 144.715 29.5339 144.551 29.5156L144.031 29.4062C143.794 29.2969 143.63 29.0964 143.539 28.8047L143.949 28.7227ZM144.004 31.4297L144.414 31.3477L145.016 31.2383L146.055 31.0195L146.875 30.7461C147.057 30.7096 147.24 30.6823 147.422 30.6641C147.568 30.6641 147.704 30.6732 147.832 30.6914C148.051 30.7096 148.233 30.7461 148.379 30.8008C148.525 30.8555 148.671 30.9193 148.816 30.9922L149.008 31.1562L148.98 31.375C148.908 31.4661 148.798 31.5117 148.652 31.5117L147.34 31.7852L145.973 32.0586L145.098 32.2773L144.469 32.25C144.305 32.2135 144.132 32.168 143.949 32.1133C143.767 32.0404 143.639 31.8398 143.566 31.5117C143.785 31.4753 143.931 31.4479 144.004 31.4297ZM143.895 34.6289L145.426 34.3008C145.608 34.2643 145.781 34.2188 145.945 34.1641L146.684 33.918C147.012 33.8086 147.258 33.6992 147.422 33.5898L147.75 33.4258C147.878 33.4258 148.033 33.4622 148.215 33.5352C148.397 33.6081 148.607 33.6992 148.844 33.8086C149.081 33.918 149.29 34.0365 149.473 34.1641C149.637 34.2734 149.682 34.4557 149.609 34.7109C149.445 34.9115 149.318 35.0938 149.227 35.2578C149.135 35.4219 149.053 35.5859 148.98 35.75C148.908 35.9141 148.835 36.1055 148.762 36.3242L148.215 37.9102L148.543 38.1289L148.652 38.5938C148.525 38.612 148.397 38.6302 148.27 38.6484C148.124 38.6484 147.969 38.6576 147.805 38.6758L147.477 38.7031C147.349 38.7214 147.03 38.7669 146.52 38.8398L144.879 39.2227C144.77 39.4596 144.578 39.5599 144.305 39.5234C144.122 39.3594 144.004 39.2044 143.949 39.0586C143.876 38.8945 143.84 38.7396 143.84 38.5938L143.484 36.6523C143.43 36.3971 143.366 36.1602 143.293 35.9414C143.238 35.7227 143.174 35.5404 143.102 35.3945C143.01 35.2669 142.91 35.1576 142.801 35.0664L142.527 34.6836C142.564 34.556 142.682 34.474 142.883 34.4375L143.348 34.5195L143.895 34.6289ZM144.934 38.1562L147.121 37.6914L147.504 35.3672L147.531 35.0664L147.395 34.793C147.23 34.7747 147.012 34.793 146.738 34.8477L144.551 35.2852L144.934 38.1562Z" fill="#333333"/>
<path d="M216.164 29.3242C215.891 29.3242 215.626 29.1237 215.371 28.7227C215.043 28.2122 214.724 27.793 214.414 27.4648L213.703 26.7266C213.32 27.1641 212.983 27.5104 212.691 27.7656C212.418 28.0208 212.072 28.2669 211.652 28.5039C210.868 28.9596 210.212 29.1875 209.684 29.1875C209.556 29.1875 209.492 29.1419 209.492 29.0508C209.492 28.9961 209.665 28.8776 210.012 28.6953C210.358 28.513 210.686 28.2943 210.996 28.0391C211.78 27.3828 212.427 26.7083 212.938 26.0156C212.828 25.9062 212.281 25.4323 211.297 24.5938C211.169 24.5026 210.978 24.3477 210.723 24.1289C210.668 24.0924 210.559 24.0104 210.395 23.8828C210.23 23.7552 210.148 23.6641 210.148 23.6094C210.148 23.5182 210.194 23.4727 210.285 23.4727C210.559 23.4727 210.996 23.6641 211.598 24.0469C212.199 24.4115 212.828 24.849 213.484 25.3594C213.74 25.0495 213.94 24.7578 214.086 24.4844C214.232 24.2109 214.396 23.8737 214.578 23.4727C214.669 23.2721 214.724 23.099 214.742 22.9531C214.76 22.7891 214.77 22.6888 214.77 22.6523C214.77 22.4518 214.824 22.3516 214.934 22.3516C215.061 22.3516 215.234 22.4518 215.453 22.6523C215.836 23.0169 216.027 23.263 216.027 23.3906C216.027 23.4635 215.982 23.5456 215.891 23.6367C215.672 23.8555 215.471 24.1471 215.289 24.5117C215.18 24.7305 214.979 25.0404 214.688 25.4414C214.596 25.5508 214.523 25.651 214.469 25.7422C214.414 25.8333 214.359 25.9154 214.305 25.9883C214.724 26.2982 215.344 26.8268 216.164 27.5742C216.365 27.7565 216.492 27.9297 216.547 28.0938C216.62 28.2396 216.656 28.4401 216.656 28.6953C216.656 28.8776 216.611 29.0326 216.52 29.1602C216.428 29.2695 216.31 29.3242 216.164 29.3242ZM216.656 34.5742C216.857 34.793 216.957 34.9753 216.957 35.1211C216.957 35.2487 216.884 35.3672 216.738 35.4766C216.647 35.5495 216.419 35.9505 216.055 36.6797C215.654 37.3359 215.207 37.9102 214.715 38.4023C214.241 38.8763 213.767 39.2227 213.293 39.4414C213.184 39.4779 213.092 39.4961 213.02 39.4961C212.947 39.4961 212.91 39.4779 212.91 39.4414V39.3867C212.91 39.2773 213.001 39.1497 213.184 39.0039C213.512 38.7487 213.758 38.4935 213.922 38.2383C214.104 37.9648 214.241 37.7643 214.332 37.6367C214.715 37.0898 214.988 36.6432 215.152 36.2969C215.335 35.987 215.462 35.668 215.535 35.3398H215.426C214.952 35.3398 214.186 35.3945 213.129 35.5039C212.965 35.5221 212.491 35.5859 211.707 35.6953C211.543 35.7135 211.288 35.7591 210.941 35.832L210.613 35.9141C210.54 35.9505 210.467 35.9688 210.395 35.9688C210.303 35.9688 210.212 35.9505 210.121 35.9141C210.03 35.8594 209.939 35.7956 209.848 35.7227C209.629 35.5404 209.52 35.3854 209.52 35.2578C209.538 35.2214 209.556 35.1667 209.574 35.0938C209.611 35.0208 209.629 34.957 209.629 34.9023L209.766 34C209.784 33.9089 209.802 33.8086 209.82 33.6992C209.839 33.5898 209.848 33.4805 209.848 33.3711C209.848 33.0247 209.839 32.7513 209.82 32.5508C209.82 32.332 209.793 32.1042 209.738 31.8672V31.7852C209.738 31.6576 209.793 31.5938 209.902 31.5938C210.012 31.5938 210.203 31.6758 210.477 31.8398C210.841 32.0951 211.023 32.2956 211.023 32.4414C211.023 32.4961 211.014 32.5417 210.996 32.5781C210.978 32.6146 210.96 32.651 210.941 32.6875C210.887 33.0156 210.859 33.1979 210.859 33.2344L210.723 34.6836C210.723 34.7201 210.741 34.7656 210.777 34.8203C210.832 34.8568 210.887 34.875 210.941 34.875C211.379 34.875 212.363 34.7656 213.895 34.5469C214.496 34.4922 214.924 34.4284 215.18 34.3555C215.344 34.3372 215.48 34.3099 215.59 34.2734C215.717 34.2188 215.799 34.1914 215.836 34.1914C215.945 34.1549 216.018 34.1367 216.055 34.1367C216.219 34.1367 216.419 34.2826 216.656 34.5742ZM221.742 27.082C221.961 27.082 222.07 27.1823 222.07 27.3828C222.07 27.4922 221.97 27.6471 221.77 27.8477C221.223 28.5221 220.138 29.8073 218.516 31.7031C218.388 31.8672 218.27 31.9492 218.16 31.9492C218.069 31.9492 217.868 31.8125 217.559 31.5391C217.303 31.3203 217.176 31.138 217.176 30.9922C217.176 30.8281 217.312 30.6732 217.586 30.5273C218.005 30.2904 218.634 29.8164 219.473 29.1055C220.311 28.3581 220.931 27.7656 221.332 27.3281C221.496 27.1641 221.633 27.082 221.742 27.082ZM192.949 34.793C192.493 34.2643 192.147 33.8815 191.91 33.6445C191.691 33.4076 191.327 33.043 190.816 32.5508C190.306 32.0586 189.896 31.6849 189.586 31.4297L188.738 30.8008C188.465 30.6367 188.237 30.5091 188.055 30.418C187.872 30.3451 187.681 30.2995 187.48 30.2812L187.098 30.1172C187.079 29.9531 187.143 29.8346 187.289 29.7617C187.417 29.6888 187.608 29.6432 187.863 29.625C188.082 29.625 188.246 29.6341 188.355 29.6523L188.766 29.7891C188.911 29.8438 189.139 29.9622 189.449 30.1445C189.759 30.3268 190.042 30.5091 190.297 30.6914C190.552 30.8737 190.871 31.1289 191.254 31.457L192.676 32.6602L193.852 33.6992L194.645 32.5781C194.9 32.2135 195.173 31.6758 195.465 30.9648C195.757 30.2721 195.993 29.5794 196.176 28.8867C196.267 28.4492 196.312 28.0755 196.312 27.7656C196.312 27.6198 196.303 27.4922 196.285 27.3828L196.176 26.6172C195.118 26.7083 194.371 26.7812 193.934 26.8359C193.514 26.8906 192.539 27.0456 191.008 27.3008C189.458 27.556 188.392 27.7565 187.809 27.9023C187.207 28.0846 186.76 28.1758 186.469 28.1758C186.141 28.1758 185.876 28.1393 185.676 28.0664C185.421 27.9935 185.174 27.8841 184.938 27.7383C184.701 27.6107 184.564 27.4193 184.527 27.1641C184.6 27.0729 184.719 27.0182 184.883 27L185.484 26.918L185.867 26.8906C186.396 26.8542 187.298 26.7357 188.574 26.5352L192.457 25.9609L193.551 25.8242C193.368 25.7148 193.223 25.6146 193.113 25.5234C193.004 25.4323 192.84 25.2682 192.621 25.0312C192.402 24.776 192.12 24.3477 191.773 23.7461L190.98 22.3242L190.789 21.7773L191.062 21.6133L191.609 21.7227C191.773 21.7591 192.129 21.8958 192.676 22.1328C193.223 22.388 193.605 22.5977 193.824 22.7617C194.043 22.9258 194.225 23.1445 194.371 23.418C194.517 23.7096 194.599 24.0195 194.617 24.3477C194.617 24.6576 194.572 24.9219 194.48 25.1406L194.316 25.6602L198.145 25.1133C198.819 25.0039 199.348 24.8945 199.73 24.7852C200.132 24.6758 200.405 24.6211 200.551 24.6211C200.678 24.6211 200.988 24.694 201.48 24.8398C201.991 24.9492 202.355 25.1133 202.574 25.332C202.793 25.5508 202.884 25.7878 202.848 26.043C202.72 26.1706 202.565 26.2344 202.383 26.2344C202.219 26.2526 201.991 26.2617 201.699 26.2617C201.426 26.2982 200.952 26.3164 200.277 26.3164C199.585 26.3164 199.129 26.3255 198.91 26.3438L197.215 26.5078C197.47 26.6719 197.762 26.8451 198.09 27.0273C198.4 27.2279 198.591 27.4284 198.664 27.6289L198.691 28.2305L198.418 28.6406C198.309 28.8047 198.181 29.0508 198.035 29.3789L197.488 30.6914C196.905 32.0039 196.486 32.8424 196.23 33.207L195.219 34.7656C195.766 35.2214 196.322 35.6589 196.887 36.0781C197.452 36.4974 198.099 36.9167 198.828 37.3359C199.557 37.7552 200.451 38.1927 201.508 38.6484C202.547 39.1042 203.495 39.4596 204.352 39.7148L206.512 40.4258L206.949 40.5625L207.168 40.8359C207.132 40.9635 207.004 41.0456 206.785 41.082C206.275 41.1549 205.309 41.2643 203.887 41.4102C202.684 41.556 201.781 41.6289 201.18 41.6289C200.56 41.6107 200.068 41.5286 199.703 41.3828C199.339 41.2188 198.974 40.9909 198.609 40.6992C198.227 40.4076 197.78 40.0065 197.27 39.4961C196.759 38.9857 196.03 38.1927 195.082 37.1172L194.098 36.0508C193.368 36.6888 192.694 37.2539 192.074 37.7461C191.454 38.2201 190.707 38.6667 189.832 39.0859C188.957 39.5052 188.027 39.8424 187.043 40.0977C186.059 40.3164 185.266 40.4258 184.664 40.4258C184.062 40.4258 183.689 40.4076 183.543 40.3711L182.996 40.2891L182.832 40.207C182.832 40.0612 182.887 39.9701 182.996 39.9336L183.734 39.7969C184.208 39.7057 184.874 39.5326 185.73 39.2773C186.587 39.0221 187.59 38.5846 188.738 37.9648C189.887 37.3451 190.807 36.7161 191.5 36.0781L192.949 34.793Z" fill="#333333"/>
<path d="M255.02 26.6445C254.783 26.6445 254.609 26.5625 254.5 26.3984C254.336 26.1615 254.172 25.9701 254.008 25.8242C253.862 25.6784 253.598 25.4779 253.215 25.2227L253.297 25.0859C254.135 25.3776 254.728 25.5234 255.074 25.5234C255.366 25.5234 255.685 25.3594 256.031 25.0312C256.396 24.6849 256.706 24.1927 256.961 23.5547C257.089 23.263 257.18 23.026 257.234 22.8438C257.307 22.6432 257.362 22.4245 257.398 22.1875V22.1328C257.398 21.9688 257.316 21.8867 257.152 21.8867C256.97 21.8867 256.642 21.9414 256.168 22.0508C255.913 22.1237 255.576 22.2331 255.156 22.3789L254.938 22.3242C254.919 22.306 254.874 22.2786 254.801 22.2422C254.746 22.1875 254.701 22.1328 254.664 22.0781C254.573 21.987 254.527 21.9232 254.527 21.8867L254.5 21.7773C254.5 21.6497 254.564 21.5312 254.691 21.4219C254.837 21.3125 254.919 21.2305 254.938 21.1758C255.083 21.0117 255.375 20.6107 255.812 19.9727C255.849 19.9362 255.913 19.8542 256.004 19.7266C256.095 19.5807 256.141 19.4531 256.141 19.3438C256.141 19.2161 255.603 19.3073 254.527 19.6172C253.434 19.9453 252.859 20.1094 252.805 20.1094C252.622 20.1094 252.431 19.9544 252.23 19.6445C252.085 19.4987 252.012 19.3802 252.012 19.2891C252.012 19.1615 252.194 19.0885 252.559 19.0703C252.978 19.0521 253.625 18.9792 254.5 18.8516C255.393 18.724 255.922 18.6419 256.086 18.6055L256.469 18.4961C256.523 18.4779 256.587 18.4688 256.66 18.4688C256.715 18.4688 256.797 18.5052 256.906 18.5781C257.034 18.651 257.143 18.7057 257.234 18.7422C257.471 18.8516 257.608 18.9792 257.645 19.125V19.207C257.645 19.3711 257.553 19.5443 257.371 19.7266C257.298 19.7995 257.152 19.9544 256.934 20.1914C256.715 20.4102 256.578 20.556 256.523 20.6289C256.451 20.7018 256.341 20.8203 256.195 20.9844C256.049 21.1484 255.967 21.2487 255.949 21.2852C255.949 21.3398 255.967 21.3763 256.004 21.3945C256.04 21.4128 256.086 21.4219 256.141 21.4219C256.688 21.349 257.134 21.2669 257.48 21.1758L257.918 21.0391C258.118 21.0391 258.264 21.112 258.355 21.2578C258.52 21.4401 258.629 21.5951 258.684 21.7227C258.738 21.832 258.738 21.9414 258.684 22.0508C258.665 22.1055 258.638 22.1602 258.602 22.2148C258.565 22.2695 258.529 22.3333 258.492 22.4062C258.474 22.4427 258.438 22.5156 258.383 22.625C258.328 22.7344 258.292 22.8438 258.273 22.9531C257.945 23.901 257.553 24.7122 257.098 25.3867C256.842 25.6966 256.56 25.9609 256.25 26.1797C255.831 26.4896 255.421 26.6445 255.02 26.6445ZM252.285 31.2383C252.085 31.2383 251.839 31.0833 251.547 30.7734C251.328 30.5547 251.219 30.3906 251.219 30.2812C251.219 30.2266 251.255 30.1992 251.328 30.1992C251.401 30.181 251.492 30.1719 251.602 30.1719L252.203 30.1445C252.549 30.1445 252.777 30.1354 252.887 30.1172C253.233 30.1172 253.525 30.1081 253.762 30.0898C255.329 29.944 256.387 29.8255 256.934 29.7344C257.207 29.6979 257.453 29.6615 257.672 29.625C257.891 29.5703 258.064 29.543 258.191 29.543C258.447 29.543 258.702 29.6706 258.957 29.9258C259.158 30.1263 259.258 30.2904 259.258 30.418C259.258 30.5273 259.194 30.6003 259.066 30.6367C258.975 30.6549 258.438 30.6914 257.453 30.7461C256.906 30.7643 256.232 30.8099 255.43 30.8828C254.628 30.9557 253.926 31.0286 253.324 31.1016C253.215 31.1198 253.06 31.1471 252.859 31.1836C252.659 31.2201 252.467 31.2383 252.285 31.2383ZM256.359 37.3359C256.177 37.5729 255.986 37.6914 255.785 37.6914C255.73 37.6914 255.703 37.6458 255.703 37.5547C255.703 37.4271 255.74 37.2812 255.812 37.1172C255.812 37.1172 255.995 36.7526 256.359 36.0234C256.378 35.9505 256.405 35.8776 256.441 35.8047C256.478 35.7318 256.505 35.668 256.523 35.6133V35.5859C256.523 35.5495 256.496 35.513 256.441 35.4766C256.387 35.4401 256.323 35.431 256.25 35.4492C255.958 35.4674 255.521 35.513 254.938 35.5859C254.372 35.6589 253.953 35.7318 253.68 35.8047C253.57 35.8411 253.434 35.8867 253.27 35.9414C253.124 35.9961 253.005 36.0234 252.914 36.0234C252.586 36.0234 252.312 35.9232 252.094 35.7227C251.911 35.5951 251.775 35.4674 251.684 35.3398L251.629 35.2031C251.629 35.112 251.784 35.0846 252.094 35.1211C252.513 35.1576 253.379 35.1029 254.691 34.957L255.238 34.875C255.384 34.8568 255.612 34.8294 255.922 34.793C256.25 34.7383 256.505 34.6836 256.688 34.6289C256.742 34.6107 256.797 34.5924 256.852 34.5742C256.924 34.5378 256.988 34.5195 257.043 34.5195C257.134 34.5195 257.243 34.5651 257.371 34.6562C257.517 34.7474 257.635 34.8294 257.727 34.9023C257.854 34.9935 257.936 35.0755 257.973 35.1484C258.027 35.2031 258.046 35.276 258.027 35.3672C258.027 35.4583 257.982 35.5404 257.891 35.6133C257.799 35.6862 257.736 35.7409 257.699 35.7773C257.663 35.832 257.535 35.9688 257.316 36.1875C257.225 36.3333 257.061 36.5339 256.824 36.7891C256.605 37.0443 256.451 37.2266 256.359 37.3359ZM254.992 42.7227C254.992 42.668 255.083 42.5221 255.266 42.2852C255.466 42.0664 255.621 41.8932 255.73 41.7656C256.004 41.401 256.332 40.8724 256.715 40.1797C257.116 39.487 257.344 39.0312 257.398 38.8125C257.435 38.7031 257.38 38.6484 257.234 38.6484C256.943 38.6484 256.141 38.7305 254.828 38.8945C253.971 39.0039 253.333 39.1133 252.914 39.2227C252.823 39.2773 252.732 39.3047 252.641 39.3047C252.495 39.3047 252.34 39.2044 252.176 39.0039C252.103 38.8763 252.066 38.7578 252.066 38.6484C252.066 38.5755 252.112 38.5026 252.203 38.4297L252.285 38.3203C252.34 38.2109 252.404 38.0651 252.477 37.8828C252.549 37.7005 252.613 37.5273 252.668 37.3633C252.759 37.0716 252.823 36.7526 252.859 36.4062C252.878 36.2057 252.987 36.151 253.188 36.2422C253.443 36.3698 253.634 36.4974 253.762 36.625C253.908 36.7344 253.953 36.8164 253.898 36.8711C253.716 37.0898 253.57 37.3359 253.461 37.6094C253.37 37.901 253.315 38.0924 253.297 38.1836C253.297 38.2565 253.342 38.293 253.434 38.293C253.707 38.293 254.117 38.2474 254.664 38.1562C254.974 38.1198 255.357 38.0742 255.812 38.0195C256.268 37.9648 256.633 37.9102 256.906 37.8555L257.59 37.7188C257.645 37.7005 257.717 37.6914 257.809 37.6914C257.9 37.6914 257.991 37.7279 258.082 37.8008C258.173 37.8555 258.273 37.9284 258.383 38.0195C258.565 38.1836 258.684 38.3203 258.738 38.4297C258.793 38.5208 258.82 38.6302 258.82 38.7578C258.82 38.8307 258.766 38.9219 258.656 39.0312C258.565 39.1406 258.456 39.3138 258.328 39.5508C257.799 40.6263 257.116 41.5286 256.277 42.2578C256.04 42.4401 255.776 42.5951 255.484 42.7227C255.357 42.7591 255.238 42.7773 255.129 42.7773C255.038 42.7956 254.992 42.7773 254.992 42.7227ZM260.242 32.2773C260.333 32.2773 260.47 32.3411 260.652 32.4688C260.634 32.5052 260.671 32.5781 260.762 32.6875C260.853 32.7786 260.917 32.8424 260.953 32.8789C261.044 32.9701 261.135 33.0794 261.227 33.207C261.336 33.3346 261.454 33.4714 261.582 33.6172C261.91 33.9635 262.667 34.8659 263.852 36.3242C264.052 36.6159 264.152 36.7891 264.152 36.8438C264.152 37.026 264.043 37.1172 263.824 37.1172C263.697 37.1172 263.56 37.026 263.414 36.8438C263.068 36.4792 262.448 35.9049 261.555 35.1211C260.862 34.4831 260.233 33.9909 259.668 33.6445C259.395 33.5169 259.258 33.3711 259.258 33.207C259.258 33.0794 259.395 32.8971 259.668 32.6602C259.923 32.4049 260.115 32.2773 260.242 32.2773ZM226.746 30.8008L226.691 31.2383L226.609 31.5117C226.555 31.6576 226.436 31.7487 226.254 31.7852L225.98 31.457C225.853 31.3112 225.753 31.0924 225.68 30.8008L225.543 29.9531L225.27 27.0547C225.233 26.9271 225.197 26.7266 225.16 26.4531L224.969 25.7148C224.896 25.4961 224.786 25.3138 224.641 25.168L224.367 24.7305L224.504 24.5664L224.75 24.5117L225.406 24.6211L226.117 24.7852L227.566 24.457C227.967 24.3841 228.314 24.293 228.605 24.1836C228.897 24.0742 229.152 23.9557 229.371 23.8281L229.863 23.6367C230.046 23.6185 230.228 23.6367 230.41 23.6914C230.629 23.7643 230.875 23.8646 231.148 23.9922C231.422 24.138 231.622 24.2839 231.75 24.4297C231.878 24.5755 231.914 24.7852 231.859 25.0586L231.449 25.6875C231.303 25.888 231.185 26.1432 231.094 26.4531L230.82 27.4102L230.191 29.7891L230.383 30.0352L230.328 30.3906L229.426 30.4727L228.168 30.6094L226.746 30.8008ZM226.691 29.8711L228.934 29.4883L229.371 26.6445C229.408 26.3529 229.462 26.0612 229.535 25.7695L229.562 25.5508L229.535 25.2773C229.444 25.168 229.253 25.1133 228.961 25.1133L227.84 25.332L226.391 25.6055L226.691 29.8711ZM237.848 22.3789L236.891 24.1289L235.879 25.8516C235.587 26.3438 235.049 27.1003 234.266 28.1211C233.482 29.1419 232.816 29.944 232.27 30.5273C231.723 31.1107 231.167 31.6029 230.602 32.0039C230.055 32.4414 229.535 32.7878 229.043 33.043L228.223 33.4805L227.785 33.2891L228.77 32.4141C229.061 32.1771 229.462 31.7943 229.973 31.2656C230.483 30.737 230.993 30.1628 231.504 29.543C232.014 28.9049 232.543 28.194 233.09 27.4102C233.637 26.6081 234.184 25.7513 234.73 24.8398C235.277 23.9284 235.678 23.1719 235.934 22.5703C236.189 21.9688 236.362 21.4674 236.453 21.0664C236.544 20.6654 236.599 20.3464 236.617 20.1094C236.635 19.8724 236.645 19.6628 236.645 19.4805L236.672 19.1797C236.763 19.0885 236.872 19.0339 237 19.0156C237.146 19.0156 237.337 19.0794 237.574 19.207C237.829 19.3893 238.048 19.5625 238.23 19.7266C238.413 19.8906 238.549 20.0456 238.641 20.1914C238.732 20.3372 238.786 20.5378 238.805 20.793L238.449 21.3398L238.23 21.668C238.522 21.8503 238.759 22.0052 238.941 22.1328C239.087 22.2604 239.324 22.4883 239.652 22.8164L240.691 23.8008L242.332 25.4414C242.952 26.043 243.471 26.5078 243.891 26.8359C244.31 27.1641 244.811 27.5013 245.395 27.8477C245.978 28.2122 246.47 28.4857 246.871 28.668L248.184 29.2422L249.305 29.707L249.633 29.8711L249.66 30.2266L249.277 30.3633L248.156 30.6094L247.145 30.8008C246.652 30.8737 246.233 30.9102 245.887 30.9102C245.486 30.9102 245.176 30.8555 244.957 30.7461C244.738 30.6185 244.492 30.3997 244.219 30.0898C243.945 29.7982 243.626 29.4062 243.262 28.9141L242.141 27.4648L241.02 25.9883L239.953 24.6211C239.279 23.7461 238.85 23.2357 238.668 23.0898L237.848 22.3789ZM230.848 36.2422L231.176 35.3672L231.34 35.1484C231.486 35.1302 231.622 35.2031 231.75 35.3672C231.841 35.4948 231.905 35.7227 231.941 36.0508C231.996 36.3789 232.033 36.7253 232.051 37.0898C232.069 37.2721 232.069 37.4271 232.051 37.5547C232.014 37.974 231.905 38.3841 231.723 38.7852C231.577 39.2227 231.431 39.5508 231.285 39.7695C231.139 40.0247 230.948 40.2617 230.711 40.4805C230.492 40.7174 230.301 40.8359 230.137 40.8359C229.991 40.8359 229.836 40.7721 229.672 40.6445C229.508 40.4987 229.38 40.2982 229.289 40.043C229.216 39.8424 229.18 39.5872 229.18 39.2773C229.216 38.9857 229.262 38.7852 229.316 38.6758L229.918 37.7461L230.465 36.8438C230.665 36.5339 230.793 36.3333 230.848 36.2422ZM241.84 38.3203L241.375 36.5977C241.484 36.5612 241.603 36.6159 241.73 36.7617L242.551 37.6641C242.697 37.8281 242.934 38.0469 243.262 38.3203C243.59 38.5938 243.882 38.8034 244.137 38.9492L244.984 39.5508C245.221 39.7695 245.358 39.9518 245.395 40.0977C245.395 40.2435 245.34 40.4076 245.23 40.5898C245.085 40.7904 244.866 40.9818 244.574 41.1641C244.283 41.3464 243.9 41.5104 243.426 41.6562C242.952 41.8021 242.368 41.9115 241.676 41.9844C241.366 42.0208 241.047 42.0391 240.719 42.0391C240.318 42.0391 239.908 42.0117 239.488 41.957C238.613 41.8659 237.875 41.6836 237.273 41.4102C236.672 41.1185 236.125 40.7539 235.633 40.3164C235.141 39.8789 234.767 39.4049 234.512 38.8945C234.257 38.3659 234.038 37.7461 233.855 37.0352C233.673 36.3424 233.518 35.8047 233.391 35.4219L233.773 35.2031C234.01 35.3307 234.184 35.4492 234.293 35.5586C234.402 35.668 234.484 35.8138 234.539 35.9961L234.73 36.8438C234.803 37.2266 234.995 37.6641 235.305 38.1562C235.596 38.6484 235.915 39.0312 236.262 39.3047C236.626 39.5781 237.082 39.806 237.629 39.9883C238.176 40.1523 238.75 40.2435 239.352 40.2617C239.534 40.2799 239.707 40.2891 239.871 40.2891C240.126 40.2891 240.363 40.2708 240.582 40.2344C240.983 40.1797 241.32 40.0885 241.594 39.9609C241.867 39.8333 242.031 39.6693 242.086 39.4688C242.104 39.2865 242.077 39.0768 242.004 38.8398L241.84 38.3203ZM238.176 30.6914L236.699 30.9648C236.59 31.0013 236.353 31.0742 235.988 31.1836C235.678 31.2747 235.423 31.3203 235.223 31.3203C235.059 31.3021 234.876 31.2565 234.676 31.1836C234.457 31.0924 234.247 30.9922 234.047 30.8828C233.846 30.7734 233.719 30.5911 233.664 30.3359C233.701 30.1901 233.865 30.1172 234.156 30.1172C234.448 30.099 234.803 30.0716 235.223 30.0352C235.624 29.9987 236.025 29.9531 236.426 29.8984C236.827 29.8438 237.264 29.7617 237.738 29.6523L239.105 29.3516C239.543 29.2604 239.871 29.151 240.09 29.0234L240.5 28.832C240.664 28.832 240.865 28.8685 241.102 28.9414C241.339 29.0326 241.566 29.151 241.785 29.2969C242.004 29.4245 242.168 29.5612 242.277 29.707L242.469 30.1172C242.414 30.2266 242.314 30.3451 242.168 30.4727C242.022 30.582 241.858 30.7461 241.676 30.9648L241.02 31.7852C240.801 32.0768 240.527 32.3776 240.199 32.6875C239.889 32.9974 239.634 33.2435 239.434 33.4258C239.215 33.5898 238.969 33.7539 238.695 33.918L237.629 34.1367L238.176 33.4805C238.413 33.2253 238.632 32.9792 238.832 32.7422C239.014 32.5052 239.197 32.2318 239.379 31.9219C239.579 31.612 239.762 31.293 239.926 30.9648L239.953 30.3359C239.789 30.3177 239.616 30.3268 239.434 30.3633L238.176 30.6914ZM235.77 27.0547L236.371 26.918L237 26.7539C237.237 26.6992 237.529 26.6081 237.875 26.4805L238.449 26.2891L238.75 26.207C238.914 26.207 239.087 26.2253 239.27 26.2617C239.452 26.2982 239.625 26.3529 239.789 26.4258L240.09 26.5625L240.254 26.8633C240.217 26.9727 240.108 27.0456 239.926 27.082C239.762 27.1185 239.543 27.1732 239.27 27.2461L238.395 27.4648L237.438 27.7109C237.146 27.7839 236.854 27.8203 236.562 27.8203C236.253 27.8203 235.979 27.7565 235.742 27.6289L235.441 27.3281C235.46 27.2005 235.569 27.1094 235.77 27.0547ZM237.957 37.0352L236.562 35.0938L236.754 34.7383L237.574 34.793C237.793 34.8477 238.057 34.9388 238.367 35.0664C238.695 35.2122 238.96 35.3398 239.16 35.4492C239.342 35.5586 239.507 35.7135 239.652 35.9141C239.78 36.1146 239.844 36.4062 239.844 36.7891C239.844 37.0807 239.798 37.2995 239.707 37.4453C239.634 37.5729 239.534 37.6732 239.406 37.7461L239.078 37.8281C238.932 37.8281 238.777 37.7826 238.613 37.6914C238.431 37.6003 238.212 37.3815 237.957 37.0352ZM242.934 34.5195L242.195 33.8633L242.004 33.5352L242.25 33.3438L243.262 33.5352C243.535 33.6081 243.882 33.7174 244.301 33.8633C244.702 34.0091 245.085 34.1641 245.449 34.3281C245.796 34.4922 246.06 34.6745 246.242 34.875C246.406 35.0755 246.507 35.3763 246.543 35.7773C246.543 36.0872 246.497 36.3242 246.406 36.4883C246.279 36.6706 246.105 36.7982 245.887 36.8711C245.686 36.8711 245.395 36.707 245.012 36.3789L243.918 35.3672L242.934 34.5195Z" fill="#333333"/>
<path d="M297.676 30.1992C297.384 30.1992 297.211 30.0534 297.156 29.7617C297.047 29.4518 296.755 29.069 296.281 28.6133L296.363 28.5039C296.436 28.5404 296.646 28.6315 296.992 28.7773C297.339 28.9049 297.576 28.9688 297.703 28.9688C297.812 28.9688 297.895 28.9688 297.949 28.9688C298.004 28.9505 298.068 28.9049 298.141 28.832C298.359 28.668 298.633 28.2943 298.961 27.7109C299.198 27.237 299.408 26.681 299.59 26.043C299.79 25.4049 299.891 24.9219 299.891 24.5938C299.891 24.5026 299.818 24.457 299.672 24.457L298.633 24.5117L297.922 24.5664L297.457 24.5938L297.266 24.6211C297.393 24.7122 297.475 24.7943 297.512 24.8672C297.566 24.9219 297.594 24.9948 297.594 25.0859C297.594 25.1771 297.484 25.4323 297.266 25.8516C297.083 26.2526 296.792 26.7083 296.391 27.2188C296.062 27.6562 295.616 28.1302 295.051 28.6406C294.504 29.1328 294.094 29.388 293.82 29.4062C293.766 29.4062 293.711 29.3971 293.656 29.3789C293.62 29.3424 293.602 29.2969 293.602 29.2422C293.602 29.224 293.747 29.0508 294.039 28.7227L294.805 27.8203C295.352 27.0911 295.908 26.1615 296.473 25.0312C296.527 24.8854 296.5 24.8034 296.391 24.7852C296.281 24.8034 296.053 24.8307 295.707 24.8672C295.361 24.8854 295.051 24.9401 294.777 25.0312C294.759 25.0312 294.695 25.0586 294.586 25.1133C294.477 25.1497 294.385 25.168 294.312 25.168C294.203 25.168 294.112 25.1315 294.039 25.0586L293.82 24.8672C293.656 24.7396 293.574 24.6211 293.574 24.5117C293.574 24.4753 293.592 24.4206 293.629 24.3477L293.766 24.1289C293.839 24.0378 293.957 23.8919 294.121 23.6914C294.285 23.4909 294.467 23.2174 294.668 22.8711C294.704 22.7982 294.777 22.6341 294.887 22.3789C295.014 22.1237 295.078 21.9688 295.078 21.9141V21.8047C295.078 21.6953 295.096 21.6224 295.133 21.5859C295.169 21.5495 295.251 21.5495 295.379 21.5859C295.507 21.6224 295.661 21.7227 295.844 21.8867L296.145 22.1875C296.199 22.2422 296.227 22.306 296.227 22.3789C296.227 22.5612 295.971 22.8893 295.461 23.3633C295.37 23.4544 295.26 23.5911 295.133 23.7734C295.005 23.9557 294.941 24.0742 294.941 24.1289C294.941 24.2383 295.023 24.2747 295.188 24.2383L295.816 24.1562C297.257 23.9375 298.341 23.8099 299.07 23.7734L299.809 23.6641L300.055 23.6094L300.191 23.582C300.337 23.582 300.438 23.6003 300.492 23.6367C300.547 23.6732 300.602 23.737 300.656 23.8281C300.711 23.901 300.766 23.9648 300.82 24.0195C300.948 24.1654 301.039 24.293 301.094 24.4023L301.148 24.6484L301.094 24.7578L301.039 24.9219C301.003 25.013 300.975 25.1042 300.957 25.1953C300.939 25.2682 300.911 25.3503 300.875 25.4414C300.492 26.918 300.046 28.0664 299.535 28.8867C299.371 29.1784 299.089 29.4701 298.688 29.7617C298.305 30.0534 297.967 30.1992 297.676 30.1992ZM300.164 38.8945C299.891 38.8945 299.626 38.694 299.371 38.293C299.043 37.7826 298.724 37.3633 298.414 37.0352L297.703 36.2969C297.32 36.7344 296.983 37.0807 296.691 37.3359C296.418 37.5911 296.072 37.8372 295.652 38.0742C294.868 38.5299 294.212 38.7578 293.684 38.7578C293.556 38.7578 293.492 38.7122 293.492 38.6211C293.492 38.5664 293.665 38.4479 294.012 38.2656C294.358 38.0833 294.686 37.8646 294.996 37.6094C295.78 36.9531 296.427 36.2786 296.938 35.5859C296.828 35.4766 296.281 35.0026 295.297 34.1641C295.169 34.0729 294.978 33.918 294.723 33.6992C294.668 33.6628 294.559 33.5807 294.395 33.4531C294.23 33.3255 294.148 33.2344 294.148 33.1797C294.148 33.0885 294.194 33.043 294.285 33.043C294.559 33.043 294.996 33.2344 295.598 33.6172C296.199 33.9818 296.828 34.4193 297.484 34.9297C297.74 34.6198 297.94 34.3281 298.086 34.0547C298.232 33.7812 298.396 33.444 298.578 33.043C298.669 32.8424 298.724 32.6693 298.742 32.5234C298.76 32.3594 298.77 32.2591 298.77 32.2227C298.77 32.0221 298.824 31.9219 298.934 31.9219C299.061 31.9219 299.234 32.0221 299.453 32.2227C299.836 32.5872 300.027 32.8333 300.027 32.9609C300.027 33.0339 299.982 33.1159 299.891 33.207C299.672 33.4258 299.471 33.7174 299.289 34.082C299.18 34.3008 298.979 34.6107 298.688 35.0117C298.596 35.1211 298.523 35.2214 298.469 35.3125C298.414 35.4036 298.359 35.4857 298.305 35.5586C298.724 35.8685 299.344 36.3971 300.164 37.1445C300.365 37.3268 300.492 37.5 300.547 37.6641C300.62 37.8099 300.656 38.0104 300.656 38.2656C300.656 38.4479 300.611 38.6029 300.52 38.7305C300.428 38.8398 300.31 38.8945 300.164 38.8945ZM305.742 27.082C305.961 27.082 306.07 27.1823 306.07 27.3828C306.07 27.4922 305.97 27.6471 305.77 27.8477C305.223 28.5221 304.138 29.8073 302.516 31.7031C302.388 31.8672 302.27 31.9492 302.16 31.9492C302.069 31.9492 301.868 31.8125 301.559 31.5391C301.303 31.3203 301.176 31.138 301.176 30.9922C301.176 30.8281 301.312 30.6732 301.586 30.5273C302.005 30.2904 302.634 29.8164 303.473 29.1055C304.311 28.3581 304.931 27.7656 305.332 27.3281C305.496 27.1641 305.633 27.082 305.742 27.082ZM282.527 24.0742L282.555 22.5977L281.352 22.707C281.206 22.7435 280.951 22.7617 280.586 22.7617H279.766C279.547 22.7435 279.328 22.707 279.109 22.6523C278.909 22.5794 278.754 22.4974 278.645 22.4062L278.508 22.1602C278.581 22.0508 278.69 21.9779 278.836 21.9414L279.629 21.8867C280.194 21.8503 280.832 21.7773 281.543 21.668L282.555 21.5039L282.527 21.0391C282.509 20.7474 282.482 20.4922 282.445 20.2734C282.409 20.0729 282.363 19.8906 282.309 19.7266C282.254 19.5625 282.172 19.4076 282.062 19.2617L281.926 18.9336L281.953 18.7148C282.026 18.6055 282.145 18.5508 282.309 18.5508C282.454 18.5508 282.6 18.569 282.746 18.6055C282.928 18.6419 283.147 18.7148 283.402 18.8242C283.639 18.9154 283.849 19.0247 284.031 19.1523C284.214 19.2617 284.323 19.3984 284.359 19.5625C284.378 19.6901 284.341 19.8451 284.25 20.0273L284.031 20.6016L283.977 21.3125C284.305 21.276 284.56 21.2396 284.742 21.2031L285.535 21.0391C286.1 20.9479 286.465 20.875 286.629 20.8203L286.93 20.7383C287.112 20.7383 287.34 20.7747 287.613 20.8477C287.868 20.9388 288.078 21.0391 288.242 21.1484L288.352 21.6133C288.133 21.7956 287.878 21.9049 287.586 21.9414C287.312 21.9961 286.921 22.0508 286.41 22.1055L284.414 22.3242L283.922 22.3789L283.867 23.8281L284.086 23.8008L284.469 23.6914L285.125 23.582C285.417 23.5456 285.681 23.5273 285.918 23.5273L286.355 23.6094C286.592 23.6641 286.766 23.7005 286.875 23.7188C286.984 23.7552 287.121 23.819 287.285 23.9102L287.531 24.1016C287.513 24.2292 287.44 24.3112 287.312 24.3477C287.185 24.3841 286.957 24.4206 286.629 24.457L286.164 24.5664L281.844 25.0859C281.479 25.1406 281.206 25.168 281.023 25.168C280.823 25.168 280.65 25.1497 280.504 25.1133C280.376 25.0768 280.24 25.0312 280.094 24.9766C279.948 24.9219 279.811 24.849 279.684 24.7578L279.52 24.5391C279.538 24.4115 279.629 24.3294 279.793 24.293H280.23C280.704 24.2565 281.014 24.2292 281.16 24.2109L282.008 24.1016L282.527 24.0742ZM281.734 38.1836C281.99 38.3659 282.208 38.5391 282.391 38.7031C282.555 38.849 282.582 39.0586 282.473 39.332L281.898 39.6328C281.789 39.7057 281.57 39.9154 281.242 40.2617C280.914 40.5898 280.458 40.9635 279.875 41.3828C279.292 41.8021 278.9 42.0664 278.699 42.1758C278.48 42.2852 278.289 42.3763 278.125 42.4492L277.195 42.6133L277.605 42.2031L278.125 41.7383L279.273 40.6445C279.456 40.4622 279.738 40.1341 280.121 39.6602C280.504 39.1862 280.704 38.8763 280.723 38.7305L280.805 38.2656L280.039 38.457L279.574 38.4844C279.447 38.3203 279.346 38.1016 279.273 37.8281L279.164 37.3359V36.8711L279.273 36.4883C279.346 36.2331 279.392 35.9414 279.41 35.6133L279.547 33.6719C279.547 33.4896 279.529 33.2161 279.492 32.8516C279.474 32.5052 279.447 32.2682 279.41 32.1406C279.374 32.013 279.31 31.8763 279.219 31.7305L279.109 31.4297C279.128 31.3203 279.31 31.2565 279.656 31.2383L280.176 31.3477L280.613 31.5117L283.047 31.2109C283.32 31.1927 283.594 31.1471 283.867 31.0742L284.578 30.9375C285.052 30.8464 285.408 30.7643 285.645 30.6914L286.055 30.582C286.237 30.5638 286.401 30.582 286.547 30.6367C286.711 30.6732 286.957 30.7734 287.285 30.9375C287.632 31.1016 287.878 31.2474 288.023 31.375L288.133 31.8945C288.023 32.1315 287.941 32.3229 287.887 32.4688L287.805 32.7969C287.786 32.9609 287.777 33.2799 287.777 33.7539L287.75 36.2148V37.1719C287.714 37.4453 287.65 37.6732 287.559 37.8555C287.467 38.0742 287.349 38.2565 287.203 38.4023L286.793 38.6211C286.629 38.5482 286.501 38.4297 286.41 38.2656L286.219 37.8555L281.734 38.1836ZM280.586 33.5898L283.73 33.1797C284.441 33.0885 284.924 33.0156 285.18 32.9609C285.453 32.9062 285.763 32.9062 286.109 32.9609L286.191 32.1133C286.155 31.931 286.018 31.776 285.781 31.6484C285.562 31.6302 285.353 31.6302 285.152 31.6484C284.952 31.6667 284.742 31.694 284.523 31.7305L283.484 31.8945L282.062 32.0859L281.324 32.1953L280.695 32.168L280.586 33.5898ZM280.422 35.5586L284.305 35.0664L285.672 34.9023L286.191 35.0117L286.273 33.6445L282.199 34.1641C281.47 34.2552 280.969 34.3008 280.695 34.3008L280.422 35.5586ZM280.312 37.4453C281.88 37.3177 282.819 37.2357 283.129 37.1992L286.246 36.8984L286.328 35.6953L280.395 36.2148L280.312 37.4453ZM274.188 24.7305C274.023 24.6211 273.896 24.5117 273.805 24.4023C273.695 24.3112 273.595 24.1927 273.504 24.0469L273.148 23.418L272.766 22.543C272.62 22.2513 272.474 21.9232 272.328 21.5586L272.137 21.0938L272.301 20.793H272.547L272.984 20.957C273.13 21.0117 273.331 21.112 273.586 21.2578C273.841 21.4036 274.033 21.5221 274.16 21.6133C274.306 21.7227 274.461 21.8503 274.625 21.9961C274.771 22.1419 274.898 22.2969 275.008 22.4609C275.117 22.6068 275.181 22.7891 275.199 23.0078L275.227 23.2539L275.199 23.5547C275.181 23.7188 275.145 23.8646 275.09 23.9922C275.035 24.1198 274.944 24.2839 274.816 24.4844L275.883 24.4023C276.193 24.3294 276.43 24.293 276.594 24.293C276.74 24.293 276.949 24.3294 277.223 24.4023C277.478 24.4753 277.697 24.5664 277.879 24.6758C278.043 24.7852 278.043 24.9948 277.879 25.3047C277.587 25.3594 277.378 25.3958 277.25 25.4141C277.104 25.4323 276.785 25.4779 276.293 25.5508C275.801 25.6055 275.391 25.6602 275.062 25.7148L273.148 26.0977C272.82 26.1706 272.456 26.2617 272.055 26.3711C271.654 26.4622 271.298 26.5534 270.988 26.6445C270.678 26.7174 270.414 26.8086 270.195 26.918L269.703 27.0547C269.576 27.0547 269.439 27.0365 269.293 27L268.801 26.8633L268.363 26.6719C268.199 26.5807 268.035 26.4805 267.871 26.3711L267.625 26.125L267.652 25.8516L268.035 25.7422L268.746 25.6602L271.152 25.2773L274.188 24.7305ZM271.234 28.832L271.645 28.75C271.954 28.6953 272.237 28.6406 272.492 28.5859C272.747 28.5312 273.03 28.4583 273.34 28.3672C273.65 28.276 273.914 28.1849 274.133 28.0938L274.543 27.957H274.953C275.135 27.957 275.336 27.9935 275.555 28.0664C275.792 28.1029 275.974 28.1576 276.102 28.2305L276.211 28.5586C276.138 28.668 276.029 28.7409 275.883 28.7773C275.737 28.832 275.454 28.9049 275.035 28.9961L272.848 29.5156L272.492 29.5977L272.219 29.6523H271.781L271.289 29.5156C271.034 29.4245 270.879 29.2331 270.824 28.9414L271.234 28.832ZM271.18 31.5117L271.645 31.457L272.355 31.293C272.775 31.2018 273.066 31.1289 273.23 31.0742L274.051 30.8555L274.434 30.7461C274.616 30.7461 274.826 30.7643 275.062 30.8008C275.281 30.819 275.454 30.8555 275.582 30.9102C275.71 30.9466 275.846 31.0013 275.992 31.0742L276.184 31.457C276.092 31.5299 275.974 31.5846 275.828 31.6211L274.516 31.8945L273.148 32.168L272.273 32.3594H271.836L271.59 32.332C271.462 32.2956 271.307 32.2409 271.125 32.168C270.961 32.1133 270.833 31.9219 270.742 31.5938C270.961 31.5573 271.107 31.5299 271.18 31.5117ZM271.152 34.6289L272.656 34.3555C272.766 34.319 273.003 34.2552 273.367 34.1641C273.732 34.0547 273.978 33.9727 274.105 33.918C274.251 33.8815 274.424 33.8086 274.625 33.6992L275.035 33.5352C275.181 33.5352 275.336 33.5625 275.5 33.6172C275.682 33.6719 275.883 33.7539 276.102 33.8633C276.32 33.9727 276.521 34.1003 276.703 34.2461L276.977 34.5195C276.958 34.6289 276.885 34.7565 276.758 34.9023C276.648 35.0117 276.557 35.1302 276.484 35.2578C276.411 35.3854 276.32 35.5586 276.211 35.7773C276.138 35.9961 276.074 36.1784 276.02 36.3242L275.473 37.9102L275.773 38.1289L275.691 38.6211C275.509 38.6211 275.309 38.6302 275.09 38.6484L274.57 38.7031C274.461 38.7214 274.197 38.7578 273.777 38.8125L272.109 39.168C272.018 39.4049 271.909 39.5417 271.781 39.5781C271.654 39.5781 271.526 39.5052 271.398 39.3594C271.326 39.2682 271.262 39.1406 271.207 38.9766C271.152 38.8125 271.107 38.6484 271.07 38.4844L270.742 36.625L270.551 35.9141C270.496 35.7135 270.423 35.5495 270.332 35.4219C270.259 35.2943 270.168 35.1758 270.059 35.0664L269.785 34.7383C269.822 34.5924 269.931 34.5195 270.113 34.5195L270.633 34.5742L271.152 34.6289ZM272.164 38.1289L274.379 37.6914L274.762 35.3945L274.816 35.0938L274.652 34.8203C274.47 34.8021 274.251 34.8203 273.996 34.875L271.809 35.2852L272.164 38.1289ZM287.23 29.4609L279.465 30.2539L279.219 30.3359C279.109 30.3177 278.991 30.2083 278.863 30.0078L278.098 27.3281C277.988 27.0911 277.87 26.9089 277.742 26.7812L277.578 26.5352L277.742 26.2617C277.906 26.2435 278.07 26.2617 278.234 26.3164L278.617 26.3984L279.055 26.5078L283.594 25.9883L285.18 25.8242C285.763 25.7878 286.118 25.7513 286.246 25.7148L286.766 25.6602C287.203 25.5872 287.549 25.5326 287.805 25.4961L288.188 25.4141C288.406 25.3958 288.634 25.4414 288.871 25.5508C289.108 25.6237 289.354 25.7513 289.609 25.9336C289.883 26.0794 290.083 26.2253 290.211 26.3711L290.375 26.6445C290.375 26.8086 290.302 26.9544 290.156 27.082L289.746 27.4922L289.5 27.8203L289.227 28.1758L288.68 29.1602C288.497 29.4701 288.352 29.6797 288.242 29.7891C288.115 29.8984 287.932 29.9714 287.695 30.0078L287.422 29.9805L287.203 29.7344L287.23 29.4609ZM284.688 28.7773C285.234 28.6862 285.672 28.6042 286 28.5312C286.328 28.4766 286.565 28.4492 286.711 28.4492C286.875 28.4492 287.021 28.4674 287.148 28.5039L287.531 28.6406L287.859 27.7656L287.914 27.3281L288.023 26.8633L287.969 26.5898C287.878 26.4805 287.723 26.4258 287.504 26.4258L286.93 26.4531L286.383 26.4805L285.289 26.5898L285.59 27.2188L285.316 27.5742C285.225 27.6836 285.143 27.8294 285.07 28.0117L284.688 28.7773ZM282.062 26.8633L282.363 27.0273L282.473 27.4922C282.454 27.7656 282.445 27.9935 282.445 28.1758L282.418 29.0508L284.031 28.832L284.223 28.0664L284.305 27.6562L284.387 27L284.305 26.6445L282.062 26.8633ZM281.762 29.1602L281.543 28.2031L281.461 27.7656L281.379 27.3828L281.105 26.9727L279.438 27.1914L279.656 29.3789L281.762 29.1602ZM284.387 38.7305L284.469 38.5664C284.615 38.5664 284.833 38.6211 285.125 38.7305C285.417 38.8398 285.772 38.9948 286.191 39.1953C286.611 39.3776 286.966 39.569 287.258 39.7695C287.568 39.9518 287.841 40.1706 288.078 40.4258C288.333 40.681 288.516 40.9362 288.625 41.1914C288.716 41.4466 288.762 41.7201 288.762 42.0117C288.743 42.194 288.689 42.3763 288.598 42.5586C288.507 42.7409 288.361 42.832 288.16 42.832C287.996 42.832 287.841 42.7773 287.695 42.668C287.549 42.5586 287.422 42.4492 287.312 42.3398L286.82 41.7383L285.809 40.4258L285.07 39.4961L284.387 38.7305Z" fill="#333333"/>
</svg>
