<svg width="320" height="60" viewBox="0 0 320 60" fill="none" xmlns="http://www.w3.org/2000/svg">
<path d="M42.2852 26.5898C42.0846 26.5898 41.8385 26.4349 41.5469 26.125C41.3281 25.9062 41.2188 25.7422 41.2188 25.6328C41.2188 25.5781 41.2552 25.5508 41.3281 25.5508C41.401 25.5326 41.4922 25.5234 41.6016 25.5234L42.2031 25.4961C42.5495 25.4961 42.7773 25.487 42.8867 25.4688C43.2331 25.4688 43.5247 25.4596 43.7617 25.4414C45.3294 25.2956 46.3867 25.1771 46.9336 25.0859C47.207 25.0495 47.4531 25.013 47.6719 24.9766C47.8906 24.9219 48.0638 24.8945 48.1914 24.8945C48.4466 24.8945 48.7018 25.0221 48.957 25.2773C49.1576 25.4779 49.2578 25.6419 49.2578 25.7695C49.2578 25.8789 49.194 25.9518 49.0664 25.9883C48.9753 26.0065 48.4375 26.043 47.4531 26.0977C46.9062 26.1159 46.2318 26.1615 45.4297 26.2344C44.6276 26.3073 43.9258 26.3802 43.3242 26.4531C43.2148 26.4714 43.0599 26.4987 42.8594 26.5352C42.6589 26.5716 42.4674 26.5898 42.2852 26.5898ZM48.7109 39.0039C48.6927 39.0221 48.6471 39.0312 48.5742 39.0312C48.4284 39.0312 48.2188 38.931 47.9453 38.7305C47.3255 38.1107 46.5143 37.3451 45.5117 36.4336C45.0378 36.9076 44.5911 37.3177 44.1719 37.6641C44.026 37.7734 43.7708 37.9375 43.4062 38.1562C42.8776 38.4661 42.3672 38.6576 41.875 38.7305H41.7109C41.5469 38.7305 41.4466 38.7122 41.4102 38.6758C41.3919 38.6576 41.4284 38.6211 41.5195 38.5664C41.6289 38.5117 41.7109 38.4661 41.7656 38.4297C41.875 38.375 42.1849 38.1745 42.6953 37.8281C42.9505 37.6458 43.3151 37.3359 43.7891 36.8984C44.263 36.4609 44.6094 36.1055 44.8281 35.832L43.707 34.957C43.5065 34.8112 43.2878 34.6562 43.0508 34.4922C42.832 34.3099 42.6771 34.1914 42.5859 34.1367L42.5586 34.0547C42.5586 33.9453 42.6497 33.8906 42.832 33.8906C43.0508 33.8906 43.4062 34.0273 43.8984 34.3008L45.293 35.2031C45.6029 34.8021 45.9128 34.3646 46.2227 33.8906C46.5508 33.3984 46.724 33.1068 46.7422 33.0156C46.7604 32.9609 46.7513 32.9154 46.7148 32.8789C46.6966 32.8242 46.6602 32.7969 46.6055 32.7969H46.0586L45.0742 32.8789C44.582 32.9154 44.0898 32.9792 43.5977 33.0703C43.543 33.0885 43.4518 33.1159 43.3242 33.1523C43.1966 33.1888 43.0872 33.207 42.9961 33.207C42.9596 33.207 42.8047 33.1068 42.5312 32.9062C42.276 32.6875 42.1393 32.5508 42.1211 32.4961C42.1029 32.4779 42.0938 32.4505 42.0938 32.4141C42.0938 32.3229 42.194 32.2865 42.3945 32.3047C42.5951 32.3047 42.7227 32.3047 42.7773 32.3047C43.2878 32.3047 44.026 32.2591 44.9922 32.168L45.9219 32.0859L46.7695 31.9766C47.043 31.9036 47.1979 31.8672 47.2344 31.8672H47.2891C47.3802 31.8672 47.4622 31.8945 47.5352 31.9492C47.6081 32.0039 47.6628 32.0586 47.6992 32.1133C47.7357 32.168 47.763 32.2044 47.7812 32.2227C47.7995 32.2409 47.8542 32.2956 47.9453 32.3867C48.0365 32.4596 48.0911 32.5326 48.1094 32.6055C48.1458 32.6602 48.1641 32.724 48.1641 32.7969C48.1641 32.9609 48.1003 33.0794 47.9727 33.1523C47.8815 33.1888 47.7174 33.3802 47.4805 33.7266C47.0794 34.3646 46.5964 35.0482 46.0312 35.7773C46.3411 35.9779 46.7422 36.2695 47.2344 36.6523C47.4531 36.7982 47.8086 37.0443 48.3008 37.3906C48.5195 37.5547 48.6836 37.7734 48.793 38.0469C48.8659 38.3385 48.9023 38.5573 48.9023 38.7031C48.8841 38.849 48.8203 38.9492 48.7109 39.0039ZM50.2422 29.2695C50.3333 29.2695 50.4701 29.3333 50.6523 29.4609C50.6341 29.4974 50.6706 29.5703 50.7617 29.6797C50.8529 29.7708 50.9167 29.8346 50.9531 29.8711C51.0443 29.9622 51.1354 30.0716 51.2266 30.1992C51.3359 30.3268 51.4544 30.4635 51.582 30.6094C51.9102 30.9557 52.6667 31.8581 53.8516 33.3164C54.0521 33.6081 54.1523 33.7812 54.1523 33.8359C54.1523 34.0182 54.043 34.1094 53.8242 34.1094C53.6966 34.1094 53.5599 34.0182 53.4141 33.8359C53.0677 33.4714 52.4479 32.8971 51.5547 32.1133C50.862 31.4753 50.2331 30.9831 49.668 30.6367C49.3945 30.5091 49.2578 30.3633 49.2578 30.1992C49.2578 30.0716 49.3945 29.8893 49.668 29.6523C49.9232 29.3971 50.1146 29.2695 50.2422 29.2695ZM24.1836 36.1602L19.9727 37.8828L18.6875 38.4297C18.4505 38.5573 18.2135 38.7031 17.9766 38.8672C17.7214 39.0312 17.457 39.1589 17.1836 39.25C17.0195 39.2318 16.8464 39.1315 16.6641 38.9492C16.4818 38.7487 16.3542 38.5755 16.2812 38.4297L16.0625 38.0742L15.8164 37.5547L15.8438 37.3086C15.9349 37.1628 16.1081 37.0169 16.3633 36.8711C16.6367 36.707 16.9284 36.4883 17.2383 36.2148C17.5482 35.9596 17.8398 35.6771 18.1133 35.3672C18.3867 35.0573 18.8333 34.4648 19.4531 33.5898L21.5312 30.6914L18.5508 31.3477L17.8125 31.5391C17.3203 31.6667 16.9922 31.7852 16.8281 31.8945L16.2812 32.0586C16.1354 31.9492 16.026 31.8034 15.9531 31.6211C15.8802 31.4388 15.8255 31.2656 15.7891 31.1016C15.7526 30.9375 15.7161 30.7096 15.6797 30.418L15.6523 30.1445V29.8711C15.707 29.7617 15.8802 29.6159 16.1719 29.4336C16.4635 29.2695 16.7188 29.1055 16.9375 28.9414C17.1927 28.7591 17.4661 28.4674 17.7578 28.0664C18.0495 27.6654 18.3594 27.1914 18.6875 26.6445L19.3984 25.3594C19.5443 25.0495 19.7357 24.6211 19.9727 24.0742C20.2096 23.5273 20.3555 23.1536 20.4102 22.9531C20.4648 22.7526 20.5195 22.5247 20.5742 22.2695C20.6289 22.0143 20.6654 21.832 20.6836 21.7227L20.7383 21.5039C20.793 21.3945 20.8932 21.3398 21.0391 21.3398C21.1849 21.3581 21.3307 21.4492 21.4766 21.6133C21.6406 21.7591 21.8047 21.9232 21.9688 22.1055C22.1146 22.306 22.2422 22.4974 22.3516 22.6797C22.4609 22.862 22.4883 23.0716 22.4336 23.3086C22.3607 23.4544 22.2422 23.6276 22.0781 23.8281C21.9323 24.0286 21.75 24.293 21.5312 24.6211L20.8477 25.7148L18.6055 29.1602L18.6328 29.9258L22.0234 29.8711L22.3242 29.3789C22.4518 29.1966 22.5794 28.9596 22.707 28.668C22.8529 28.4128 23.026 28.0664 23.2266 27.6289C23.4089 27.1914 23.5273 26.8724 23.582 26.6719C23.6367 26.4714 23.6914 26.2526 23.7461 26.0156L23.8828 25.6328L24.1289 25.4961C24.293 25.5326 24.4661 25.6419 24.6484 25.8242L25.0859 26.2617L25.4141 26.6992C25.6328 26.9909 25.7604 27.237 25.7969 27.4375L25.7695 27.6562C25.7148 27.7656 25.6146 27.875 25.4688 27.9844C25.3229 28.0938 25.1406 28.2487 24.9219 28.4492L24.2656 29.2695L18.9062 36.4336L18.8516 36.9531C19.0156 36.9714 19.1615 36.9622 19.2891 36.9258L23.9102 35.668L22.6797 33.4531L22.9531 33.3164L23.5547 33.5898C23.9193 33.7721 24.2474 33.9453 24.5391 34.1094C24.8307 34.2734 25.0768 34.4648 25.2773 34.6836C25.4779 34.8841 25.6237 35.0755 25.7148 35.2578C25.7878 35.4583 25.8424 35.7318 25.8789 36.0781C25.8971 36.2786 25.888 36.4427 25.8516 36.5703C25.8151 36.8073 25.6237 37.0169 25.2773 37.1992C25.0768 37.1992 24.9036 37.1445 24.7578 37.0352C24.6484 36.9622 24.5573 36.8529 24.4844 36.707L24.1836 36.1602ZM25.6055 37.6914L26.3164 36.707L26.918 35.75C27.1185 35.4401 27.401 34.9023 27.7656 34.1367C28.1667 33.3893 28.4766 32.724 28.6953 32.1406C28.9141 31.5573 29.0599 31.1107 29.1328 30.8008L29.4883 29.2148C29.1055 29.3424 28.8229 29.4336 28.6406 29.4883L27.8477 29.7891L27.5195 29.8711C27.319 29.8711 27.1094 29.8164 26.8906 29.707C26.6719 29.5977 26.4531 29.4609 26.2344 29.2969L25.9336 28.832C25.9883 28.7227 26.1432 28.6497 26.3984 28.6133L27.082 28.5586L27.957 28.4492L28.9688 28.2852L29.5703 28.1758C29.7526 27.556 29.8984 27.0091 30.0078 26.5352C30.1172 26.0612 30.2357 25.4779 30.3633 24.7852C30.4909 24.056 30.5729 23.5456 30.6094 23.2539C30.6458 22.9622 30.6823 22.625 30.7188 22.2422C30.7552 21.8594 30.7826 21.4857 30.8008 21.1211C30.8008 20.9388 30.7826 20.7292 30.7461 20.4922L30.7188 20.1367L30.7734 19.8359C30.8828 19.7812 31.0104 19.7539 31.1562 19.7539C31.2839 19.7721 31.5026 19.8359 31.8125 19.9453C32.1224 20.0547 32.3776 20.1641 32.5781 20.2734C32.7969 20.401 32.9792 20.5469 33.125 20.7109C33.2891 20.875 33.3438 21.1393 33.2891 21.5039C33.1979 21.7409 33.1159 21.9505 33.043 22.1328C32.9518 22.2969 32.8789 22.4883 32.8242 22.707C32.7695 22.9076 32.6875 23.2357 32.5781 23.6914L32.1953 25.2773C32.0495 25.8607 31.9219 26.3438 31.8125 26.7266L31.4844 27.9023L33.8359 27.3555C34.3464 27.2461 34.7018 27.1641 34.9023 27.1094L35.6133 26.8633C35.8503 26.7904 36.0234 26.7448 36.1328 26.7266C36.2786 26.7266 36.4245 26.7539 36.5703 26.8086C36.7344 26.8451 36.9349 26.9362 37.1719 27.082C37.4089 27.2279 37.6458 27.401 37.8828 27.6016C38.138 27.8021 38.3021 28.1302 38.375 28.5859L38.0742 29.1328C37.9102 29.4062 37.8008 29.6068 37.7461 29.7344C37.6914 29.8802 37.6276 30.181 37.5547 30.6367L37.2812 32.6328C36.9896 34.638 36.7799 36.0326 36.6523 36.8164C36.5065 37.582 36.2969 38.3112 36.0234 39.0039C35.7318 39.6966 35.4219 40.2617 35.0938 40.6992C34.7839 41.1367 34.4557 41.4466 34.1094 41.6289C33.763 41.8294 33.4987 41.9297 33.3164 41.9297L33.0703 41.9023C32.9245 41.793 32.7969 41.6289 32.6875 41.4102L32.4141 40.8633C32.3229 40.7174 32.1862 40.5352 32.0039 40.3164L31.4844 39.6602C31.3021 39.4779 31.1562 39.3138 31.0469 39.168L30.6914 38.457L31.375 38.6484L32.25 39.0039L32.7422 39.1406C32.9427 39.2135 33.1432 39.25 33.3438 39.25C33.5443 39.1953 33.7083 39.0951 33.8359 38.9492C33.9453 38.7852 34.0638 38.5573 34.1914 38.2656C34.319 37.974 34.4648 37.582 34.6289 37.0898C34.7747 36.5794 34.9297 35.8958 35.0938 35.0391C35.276 34.1823 35.4036 33.5078 35.4766 33.0156C35.5495 32.5234 35.6224 31.8398 35.6953 30.9648C35.7865 30.2357 35.832 29.6615 35.832 29.2422C35.832 28.8229 35.75 28.5404 35.5859 28.3945C35.4036 28.2487 35.1667 28.1758 34.875 28.1758L33.7812 28.3672L31.2109 28.832L30.6094 30.9375C30.4271 31.5755 30.181 32.2773 29.8711 33.043C29.5612 33.7721 29.1966 34.5104 28.7773 35.2578C28.3581 36.0052 27.9023 36.6979 27.4102 37.3359C26.918 37.974 26.4167 38.5208 25.9062 38.9766C25.3958 39.4323 24.931 39.7878 24.5117 40.043L23.7461 40.4805L23.418 40.3164C23.3997 40.1706 23.4635 40.0247 23.6094 39.8789L24.2656 39.25C24.6667 38.8672 24.9583 38.5573 25.1406 38.3203L25.6055 37.6914Z" fill="#333333"/>
<path d="M89.0156 34.6562C88.7786 34.6562 88.5326 34.6198 88.2773 34.5469C88.0221 34.4557 87.8398 34.3555 87.7305 34.2461C87.6576 34.1732 87.5846 34.0456 87.5117 33.8633C87.457 33.6628 87.4297 33.4805 87.4297 33.3164L87.5391 28.5859C87.5391 28.2578 87.4935 27.9753 87.4023 27.7383C87.3841 27.7018 87.375 27.6471 87.375 27.5742C87.375 27.4466 87.4388 27.3828 87.5664 27.3828C87.6758 27.3828 87.7943 27.4193 87.9219 27.4922C88.5781 27.7839 88.8607 28.0573 88.7695 28.3125C88.6602 28.5859 88.5781 29.1693 88.5234 30.0625C88.487 30.9557 88.4688 31.931 88.4688 32.9883C88.4688 33.207 88.5052 33.3802 88.5781 33.5078C88.6693 33.6172 88.8242 33.6628 89.043 33.6445C89.5169 33.6081 89.8086 33.5534 89.918 33.4805C90.0456 33.3893 90.1276 33.3346 90.1641 33.3164C90.4193 33.3164 90.6107 33.362 90.7383 33.4531C90.8841 33.5443 90.957 33.6628 90.957 33.8086C90.957 34.0638 90.8112 34.2552 90.5195 34.3828C90.3555 34.4557 90.1185 34.5195 89.8086 34.5742C89.5169 34.6289 89.2526 34.6562 89.0156 34.6562ZM83.6562 34.7656C83.5833 34.7656 83.5286 34.7565 83.4922 34.7383C83.4557 34.7201 83.4375 34.6927 83.4375 34.6562C83.4375 34.6198 83.5742 34.4831 83.8477 34.2461C84.1393 33.9909 84.4128 33.5898 84.668 33.043C84.8503 32.6602 84.9779 32.2956 85.0508 31.9492C85.1237 31.6029 85.1784 31.2656 85.2148 30.9375C85.2513 30.5911 85.2786 30.3542 85.2969 30.2266C85.3151 29.9349 85.3242 29.5703 85.3242 29.1328C85.3242 28.6953 85.2786 28.4036 85.1875 28.2578C85.151 28.1849 85.1328 28.1302 85.1328 28.0938C85.1328 28.0208 85.1602 27.957 85.2148 27.9023C85.2695 27.8477 85.3333 27.8203 85.4062 27.8203C85.5521 27.8203 85.7344 27.8568 85.9531 27.9297C86.1901 27.9844 86.3542 28.0664 86.4453 28.1758C86.5 28.2487 86.5273 28.3672 86.5273 28.5312L86.4727 29.1055C86.4727 29.1966 86.4544 29.388 86.418 29.6797C86.3997 29.8438 86.3542 30.2357 86.2812 30.8555C86.2266 31.4753 86.1354 31.9948 86.0078 32.4141C85.8802 32.8151 85.707 33.1432 85.4883 33.3984C85.2148 33.7266 84.8685 34.0365 84.4492 34.3281C84.0482 34.6198 83.7839 34.7656 83.6562 34.7656ZM95.7422 22.9805C95.9609 22.9805 96.0703 23.0807 96.0703 23.2812C96.0703 23.3906 95.9701 23.5456 95.7695 23.7461C95.2227 24.4206 94.138 25.7057 92.5156 27.6016C92.388 27.7656 92.2695 27.8477 92.1602 27.8477C92.069 27.8477 91.8685 27.7109 91.5586 27.4375C91.3034 27.2188 91.1758 27.0365 91.1758 26.8906C91.1758 26.7266 91.3125 26.5716 91.5859 26.4258C92.0052 26.1888 92.6341 25.7148 93.4727 25.0039C94.3112 24.2565 94.931 23.6641 95.332 23.2266C95.4961 23.0625 95.6328 22.9805 95.7422 22.9805ZM65.4453 32.7148C65.1172 32.7695 64.8346 32.7969 64.5977 32.7969L64.0508 32.7422C64.0143 33.1068 63.9505 33.3529 63.8594 33.4805L63.5039 33.6719C63.3216 33.5807 63.1667 33.3802 63.0391 33.0703C62.9115 32.7604 62.8294 32.487 62.793 32.25L62.3555 28.6133C62.319 28.194 62.237 27.6562 62.1094 27C61.9818 26.3255 61.8633 25.9062 61.7539 25.7422C61.6628 25.5781 61.5534 25.4049 61.4258 25.2227L61.0703 24.8125L60.9336 24.4297L61.0977 24.2383L61.3164 24.1562C61.444 24.1562 61.5625 24.1745 61.6719 24.2109L62.5469 24.4023C62.9661 24.0378 63.3216 23.7096 63.6133 23.418C63.9049 23.1628 64.2331 22.8346 64.5977 22.4336C64.9622 22.0326 65.2448 21.6862 65.4453 21.3945C65.6458 21.1029 65.8008 20.8385 65.9102 20.6016C66.0195 20.3646 66.0924 20.1549 66.1289 19.9727L66.4297 19.4805C66.5755 19.4622 66.7396 19.4987 66.9219 19.5898C67.3047 19.7357 67.5872 19.8542 67.7695 19.9453C67.9701 20.0547 68.1888 20.1914 68.4258 20.3555C68.6445 20.5013 68.7995 20.6562 68.8906 20.8203L68.9727 21.1211C68.9544 21.2305 68.8451 21.3125 68.6445 21.3672C68.444 21.4219 68.2708 21.4857 68.125 21.5586C67.9974 21.6315 67.6875 21.8411 67.1953 22.1875C66.7031 22.5339 66.1562 22.8984 65.5547 23.2812C64.9531 23.6641 64.3971 23.9922 63.8867 24.2656L63.0391 24.7305L63.3125 24.9492C63.4036 25.0586 63.4492 25.2865 63.4492 25.6328C63.4857 25.9609 63.5039 26.207 63.5039 26.3711C63.5039 26.5169 63.5221 26.8177 63.5586 27.2734L63.6133 27.8477L64.7617 27.4102C65.3815 27.1732 65.8099 27.0456 66.0469 27.0273C66.2109 27.0091 66.3568 27.0273 66.4844 27.082C66.6484 27.1549 66.8034 27.2461 66.9492 27.3555L67.0039 27.9844C66.8581 28.0755 66.6393 28.1393 66.3477 28.1758C66.056 28.2122 65.737 28.2852 65.3906 28.3945C65.0443 28.4674 64.8073 28.5039 64.6797 28.5039L63.7773 28.6133L64.1055 31.7305C64.9258 31.694 65.5091 31.6576 65.8555 31.6211C66.1836 31.5846 66.8854 31.5117 67.9609 31.4023C69.0365 31.293 69.8021 31.2018 70.2578 31.1289L71.1055 30.9922C71.2331 30.9922 71.388 31.0013 71.5703 31.0195L71.9258 31.1016L72.3633 31.375L73.375 27.6836L71.707 28.0117C71.2331 28.1029 70.8776 28.1484 70.6406 28.1484C70.4401 28.1484 70.2214 28.1211 69.9844 28.0664C69.7474 28.0117 69.5742 27.9297 69.4648 27.8203L69.2734 27.6016C69.2917 27.4922 69.3919 27.4102 69.5742 27.3555L70.5312 27.2461L71.6523 26.918L72.3906 26.7539C72.5547 26.7357 72.6914 26.7357 72.8008 26.7539L73.5664 26.918L73.8945 24.5664C73.8945 24.4206 73.8672 24.2656 73.8125 24.1016L73.4023 23.7461C73.2383 23.7279 73.0378 23.7461 72.8008 23.8008L71.2695 24.1562C70.9414 24.2292 70.6862 24.2656 70.5039 24.2656C70.3216 24.2474 70.1393 24.2201 69.957 24.1836C69.7747 24.1289 69.6654 23.9466 69.6289 23.6367L70.1211 23.5273L70.7227 23.5C70.8503 23.5 71.1602 23.4362 71.6523 23.3086L72.0898 23.1992C72.418 23.1263 72.7734 23.0078 73.1562 22.8438C73.5391 22.6797 73.8307 22.5885 74.0312 22.5703C74.2135 22.5703 74.3594 22.5794 74.4688 22.5977L75.2891 22.8711C75.6901 22.9805 76 23.1081 76.2188 23.2539C76.4375 23.3815 76.556 23.5456 76.5742 23.7461C76.5742 23.9466 76.474 24.2018 76.2734 24.5117C76.0365 24.8945 75.8633 25.2682 75.7539 25.6328L74.4414 29.7891L73.7305 32.1953C73.6576 32.3594 73.5755 32.4961 73.4844 32.6055C73.3932 32.7148 73.2747 32.7878 73.1289 32.8242L72.8555 32.9062C72.6914 32.888 72.5638 32.8242 72.4727 32.7148L72.0898 32.2227H71.4336L70.1758 32.332C70.431 32.4779 70.6589 32.6237 70.8594 32.7695C71.0599 32.9154 71.1328 33.1341 71.0781 33.4258L70.832 34.0273C70.7227 34.319 70.6133 34.6927 70.5039 35.1484C70.3945 35.6042 70.3125 36.0508 70.2578 36.4883C70.2031 36.944 70.1758 37.3633 70.1758 37.7461C70.1758 38.2201 70.2396 38.6393 70.3672 39.0039C70.4948 39.4049 70.7044 39.7513 70.9961 40.043C71.2878 40.3346 71.6888 40.5625 72.1992 40.7266C72.7096 40.8906 73.4388 40.9727 74.3867 40.9727C75.3346 40.9544 76.1185 40.8542 76.7383 40.6719C77.3581 40.4896 77.7956 40.2526 78.0508 39.9609C78.306 39.6875 78.5065 39.3594 78.6523 38.9766C78.7799 38.612 78.8711 38.2747 78.9258 37.9648C78.9987 37.6732 79.0534 37.3633 79.0898 37.0352L79.2812 36.1328C79.4271 36.0964 79.5182 36.1328 79.5547 36.2422L79.8008 37.2539C79.9102 37.6549 80.0378 38.0742 80.1836 38.5117C80.3294 38.9492 80.5026 39.332 80.7031 39.6602C80.9036 39.9701 80.9948 40.2617 80.9766 40.5352C80.9036 40.7539 80.7305 40.9909 80.457 41.2461C80.2018 41.5195 79.5911 41.8477 78.625 42.2305C77.6771 42.5951 76.3008 42.7865 74.4961 42.8047C73.2201 42.8047 72.2721 42.668 71.6523 42.3945C70.9961 42.1211 70.4857 41.793 70.1211 41.4102C69.7383 41.0273 69.4648 40.6263 69.3008 40.207C69.1549 39.7878 69.0365 39.2956 68.9453 38.7305C68.8542 38.1836 68.8086 37.819 68.8086 37.6367L68.918 34.8477V34C68.918 33.5807 68.8724 33.2891 68.7812 33.125L68.4805 32.4961L66.457 32.6328L67.0039 33.0977C67.2227 33.2799 67.3776 33.5534 67.4688 33.918L67.4414 34.2461C67.3867 34.3555 67.25 34.5104 67.0312 34.7109C66.8125 34.9115 66.6029 35.1393 66.4023 35.3945C66.2201 35.668 65.901 36.0872 65.4453 36.6523L64.3242 37.9648C64.0326 38.293 63.5951 38.694 63.0117 39.168C62.4284 39.6419 61.8086 40.0794 61.1523 40.4805C60.4961 40.8815 59.9036 41.1641 59.375 41.3281C58.8646 41.5104 58.3268 41.6654 57.7617 41.793L57.1055 41.6836L57.543 41.4648C57.7617 41.3555 58.0898 41.1732 58.5273 40.918C58.9648 40.681 59.5755 40.2617 60.3594 39.6602C61.1432 39.0768 61.8268 38.4753 62.4102 37.8555C63.0299 37.2357 63.5495 36.6341 63.9688 36.0508C64.388 35.4674 64.707 34.957 64.9258 34.5195C65.1263 34.082 65.2539 33.6901 65.3086 33.3438L65.4453 32.7148Z" fill="#333333"/>
<path d="M126.887 28.4492C126.285 28.2305 126.003 27.9935 126.039 27.7383C126.148 26.9727 126.203 26.0977 126.203 25.1133C126.203 24.6758 126.194 24.3568 126.176 24.1562C126.158 23.9193 126.139 23.7188 126.121 23.5547C126.103 23.3724 126.103 23.2721 126.121 23.2539C126.194 23.181 126.285 23.1445 126.395 23.1445C126.559 23.1445 126.759 23.2174 126.996 23.3633C127.251 23.5091 127.379 23.6549 127.379 23.8008C127.379 23.8919 127.37 23.9831 127.352 24.0742C127.333 24.1471 127.324 24.2292 127.324 24.3203L127.16 27.0273C127.16 27.1732 127.215 27.2643 127.324 27.3008H127.461C127.607 27.3008 127.707 27.2917 127.762 27.2734L131.289 26.7812V26.0703C131.289 25.1771 131.271 24.4844 131.234 23.9922C131.216 23.5729 131.171 23.2357 131.098 22.9805C131.043 22.6888 131.116 22.543 131.316 22.543C131.462 22.543 131.654 22.5977 131.891 22.707C132.182 22.8529 132.355 22.9805 132.41 23.0898C132.465 23.181 132.483 23.3268 132.465 23.5273C132.428 23.8555 132.41 24.3477 132.41 25.0039L132.438 27.082C132.438 27.5195 132.355 27.8659 132.191 28.1211C132.1 28.2305 132.009 28.2852 131.918 28.2852C131.827 28.2852 131.699 28.2031 131.535 28.0391C131.499 28.0026 131.453 27.9479 131.398 27.875C131.344 27.8021 131.289 27.7565 131.234 27.7383C131.18 27.7201 131.107 27.7109 131.016 27.7109C130.596 27.7474 129.585 27.8841 127.98 28.1211C127.707 28.1576 127.488 28.2305 127.324 28.3398C127.142 28.431 127.023 28.4766 126.969 28.4766L126.887 28.4492ZM130.359 34.3281C130.177 34.5651 129.986 34.6836 129.785 34.6836C129.73 34.6836 129.703 34.638 129.703 34.5469C129.703 34.4193 129.74 34.2734 129.812 34.1094C129.812 34.1094 129.995 33.7448 130.359 33.0156C130.378 32.9427 130.405 32.8698 130.441 32.7969C130.478 32.724 130.505 32.6602 130.523 32.6055V32.5781C130.523 32.5417 130.496 32.5052 130.441 32.4688C130.387 32.4323 130.323 32.4232 130.25 32.4414C129.958 32.4596 129.521 32.5052 128.938 32.5781C128.372 32.651 127.953 32.724 127.68 32.7969C127.57 32.8333 127.434 32.8789 127.27 32.9336C127.124 32.9883 127.005 33.0156 126.914 33.0156C126.586 33.0156 126.312 32.9154 126.094 32.7148C125.911 32.5872 125.775 32.4596 125.684 32.332L125.629 32.1953C125.629 32.1042 125.784 32.0768 126.094 32.1133C126.513 32.1497 127.379 32.0951 128.691 31.9492L129.238 31.8672C129.384 31.849 129.612 31.8216 129.922 31.7852C130.25 31.7305 130.505 31.6758 130.688 31.6211C130.742 31.6029 130.797 31.5846 130.852 31.5664C130.924 31.5299 130.988 31.5117 131.043 31.5117C131.134 31.5117 131.243 31.5573 131.371 31.6484C131.517 31.7396 131.635 31.8216 131.727 31.8945C131.854 31.9857 131.936 32.0677 131.973 32.1406C132.027 32.1953 132.046 32.2682 132.027 32.3594C132.027 32.4505 131.982 32.5326 131.891 32.6055C131.799 32.6784 131.736 32.7331 131.699 32.7695C131.663 32.8242 131.535 32.9609 131.316 33.1797C131.225 33.3255 131.061 33.526 130.824 33.7812C130.605 34.0365 130.451 34.2188 130.359 34.3281ZM128.992 39.7148C128.992 39.6602 129.083 39.5234 129.266 39.3047C129.466 39.0677 129.621 38.8854 129.73 38.7578C130.004 38.3932 130.332 37.8646 130.715 37.1719C131.116 36.4792 131.344 36.0234 131.398 35.8047C131.435 35.6953 131.38 35.6406 131.234 35.6406C130.943 35.6406 130.141 35.7227 128.828 35.8867C127.971 35.9961 127.333 36.1055 126.914 36.2148C126.823 36.2695 126.732 36.2969 126.641 36.2969C126.495 36.2969 126.34 36.1966 126.176 35.9961C126.103 35.8685 126.066 35.75 126.066 35.6406C126.066 35.5677 126.112 35.4948 126.203 35.4219L126.285 35.3125C126.34 35.2031 126.404 35.0573 126.477 34.875C126.549 34.6927 126.613 34.5195 126.668 34.3555C126.759 34.0638 126.823 33.7448 126.859 33.3984C126.878 33.1979 126.987 33.1432 127.188 33.2344C127.443 33.362 127.634 33.4896 127.762 33.6172C127.908 33.7266 127.953 33.8086 127.898 33.8633C127.716 34.082 127.57 34.3281 127.461 34.6016C127.37 34.8932 127.315 35.0846 127.297 35.1758C127.297 35.2487 127.342 35.2852 127.434 35.2852C127.707 35.2852 128.117 35.2396 128.664 35.1484C128.974 35.112 129.357 35.0664 129.812 35.0117C130.268 34.957 130.633 34.9023 130.906 34.8477L131.59 34.7109C131.645 34.6927 131.717 34.6836 131.809 34.6836C131.9 34.6836 131.991 34.7201 132.082 34.793C132.173 34.8477 132.273 34.9206 132.383 35.0117C132.565 35.1758 132.684 35.3125 132.738 35.4219C132.793 35.513 132.82 35.6224 132.82 35.75C132.82 35.8229 132.766 35.9141 132.656 36.0234C132.565 36.1328 132.456 36.306 132.328 36.543C131.799 37.6185 131.116 38.5208 130.277 39.25C130.04 39.4323 129.776 39.5872 129.484 39.7148C129.357 39.7513 129.238 39.7786 129.129 39.7969C129.038 39.7969 128.992 39.7695 128.992 39.7148ZM137.742 27.082C137.961 27.082 138.07 27.1823 138.07 27.3828C138.07 27.4922 137.97 27.6471 137.77 27.8477C137.223 28.5221 136.138 29.8073 134.516 31.7031C134.388 31.8672 134.27 31.9492 134.16 31.9492C134.069 31.9492 133.868 31.8125 133.559 31.5391C133.303 31.3203 133.176 31.138 133.176 30.9922C133.176 30.8281 133.312 30.6732 133.586 30.5273C134.005 30.2904 134.634 29.8164 135.473 29.1055C136.311 28.3581 136.931 27.7656 137.332 27.3281C137.496 27.1641 137.633 27.082 137.742 27.082ZM111.055 23.8828C111.346 23.8281 111.565 23.7826 111.711 23.7461L112.203 23.6094L112.887 23.418L113.105 23.3359C113.27 23.3177 113.479 23.3451 113.734 23.418C113.99 23.4909 114.181 23.582 114.309 23.6914L114.363 24.1016C114.145 24.2292 113.917 24.3112 113.68 24.3477C113.443 24.3841 113.178 24.4388 112.887 24.5117C112.613 24.5846 112.413 24.6211 112.285 24.6211L111 24.8125L110.918 26.5078L112.695 26.2617L113.516 26.125C113.99 26.0339 114.354 25.9701 114.609 25.9336C114.865 25.8607 115.056 25.8242 115.184 25.8242C115.329 25.8424 115.503 25.888 115.703 25.9609C115.885 26.0156 116.086 26.1068 116.305 26.2344C116.487 26.3438 116.633 26.4531 116.742 26.5625L116.906 26.8086C116.87 26.918 116.697 26.9909 116.387 27.0273C116.059 27.0638 115.594 27.0911 114.992 27.1094C114.391 27.1276 113.898 27.1549 113.516 27.1914C113.115 27.2279 112.458 27.3008 111.547 27.4102L109.551 27.6289C108.895 27.7018 108.357 27.7747 107.938 27.8477L106.789 28.0664C106.443 28.1393 106.133 28.1758 105.859 28.1758C105.677 28.1393 105.477 28.0755 105.258 27.9844C105.003 27.8932 104.848 27.6927 104.793 27.3828C105.03 27.3281 105.322 27.2826 105.668 27.2461L106.625 27.1367L107.418 27L109.688 26.6992V25.0039L109.195 25.0586L108.703 25.1133L108.129 25.168C107.928 25.168 107.701 25.1315 107.445 25.0586C107.172 24.9857 107.017 24.7943 106.98 24.4844L107.664 24.375L109.688 24.1562C109.651 23.974 109.633 23.8008 109.633 23.6367C109.633 23.4909 109.615 23.3451 109.578 23.1992C109.542 23.0534 109.496 22.9167 109.441 22.7891C109.387 22.6615 109.314 22.5065 109.223 22.3242L109.113 21.9961C109.168 21.8867 109.296 21.832 109.496 21.832C109.66 21.8503 109.906 21.8958 110.234 21.9688C110.562 22.0599 110.827 22.151 111.027 22.2422L111.273 22.707C111.201 22.8893 111.155 23.0534 111.137 23.1992L111.109 23.4727L111.055 23.8828ZM109.414 32.0586L108.676 32.1133C108.658 32.2409 108.621 32.3594 108.566 32.4688L108.184 32.5781C108.02 32.4141 107.919 32.2227 107.883 32.0039L107.719 31.2656L107.363 30.0625C107.236 29.8255 107.117 29.6523 107.008 29.543L106.789 29.2695C106.789 29.1419 106.88 29.069 107.062 29.0508C107.281 29.0508 107.464 29.0599 107.609 29.0781L107.992 29.1602C108.43 29.0872 108.776 29.0326 109.031 28.9961L110.18 28.75C110.909 28.6042 111.346 28.513 111.492 28.4766L112.039 28.3398L112.586 28.2305C112.768 28.2122 112.969 28.2487 113.188 28.3398C113.406 28.4128 113.607 28.4948 113.789 28.5859C113.971 28.6771 114.135 28.7956 114.281 28.9414L114.391 29.4336C114.245 29.5794 114.108 29.707 113.98 29.8164L113.652 30.2266L113.324 30.6367L113.051 31.1836C113.16 31.2565 113.224 31.4479 113.242 31.7578C112.914 31.776 112.595 31.8034 112.285 31.8398L111.383 31.8945L110.535 31.9492C110.663 32.0586 110.763 32.1771 110.836 32.3047L110.809 32.6875C110.608 32.7969 110.453 32.8971 110.344 32.9883C110.234 33.0977 109.997 33.3164 109.633 33.6445L109.141 34.082L108.703 34.4375C108.794 34.5286 108.885 34.6289 108.977 34.7383L109.113 34.957C109.132 35.0664 109.113 35.3581 109.059 35.832C109.04 36.1237 109.022 36.4336 109.004 36.7617L109.305 37.1172C109.56 37.0443 109.76 36.9805 109.906 36.9258L110.453 36.6797L110.973 36.4883L111.109 36.707L110.672 37.0898L110.07 37.5273L109.305 38.1836C109.086 38.3659 108.922 38.5208 108.812 38.6484L108.566 38.8398C108.439 38.8398 108.32 38.7852 108.211 38.6758C108.083 38.5846 107.974 38.4388 107.883 38.2383L107.801 37.8281L107.883 37.4727C107.938 37.2904 107.965 37.1081 107.965 36.9258C107.983 36.7435 107.992 36.5247 107.992 36.2695C107.974 35.8685 107.956 35.6133 107.938 35.5039L107.883 34.957C107.664 35.1029 107.482 35.2305 107.336 35.3398C107.19 35.431 106.908 35.5586 106.488 35.7227L105.559 36.0508H104.684L105.312 35.6133C105.75 35.3581 106.105 35.1393 106.379 34.957C106.652 34.7565 107.017 34.4648 107.473 34.082C107.928 33.681 108.229 33.4076 108.375 33.2617L109.414 32.0586ZM108.43 29.6523L108.512 30.0352L108.648 31.2109C108.904 31.1927 109.132 31.1836 109.332 31.1836C109.533 31.1471 109.833 31.1198 110.234 31.1016C110.635 31.0651 110.909 31.0378 111.055 31.0195L111.93 30.9102C112.057 30.5456 112.139 30.2721 112.176 30.0898L112.258 29.3789L112.066 29.0781C111.829 29.0599 111.602 29.0781 111.383 29.1328C111.164 29.1875 110.809 29.2513 110.316 29.3242C109.824 29.3971 109.441 29.4701 109.168 29.543L108.703 29.6523H108.43ZM112.367 34.5195L112.859 33.9453C112.969 33.8177 113.096 33.6445 113.242 33.4258C113.388 33.2435 113.497 33.0794 113.57 32.9336C113.643 32.7878 113.698 32.6237 113.734 32.4414L113.926 32.1133C114.035 32.0951 114.154 32.1224 114.281 32.1953C114.427 32.2865 114.6 32.4232 114.801 32.6055C115.02 32.7878 115.156 33.0885 115.211 33.5078L114.719 33.6992L114.062 34.0273L113.461 34.3008L112.723 34.7109L113.57 35.2852L114.199 35.7227C114.382 35.8867 114.536 36.069 114.664 36.2695C114.81 36.4518 114.901 36.6341 114.938 36.8164C114.974 36.9805 115.001 37.2083 115.02 37.5L114.992 37.8828C114.919 38.0286 114.81 38.1289 114.664 38.1836C114.536 38.1836 114.372 38.0924 114.172 37.9102C113.971 37.7461 113.716 37.5 113.406 37.1719L112.695 36.3789L111.93 35.5039L111.492 35.0117L111.109 34.6562L110.617 34.1914L110.508 33.8633H110.727L111.328 34.0547L111.875 34.3008L112.367 34.5195ZM103.562 21.0938C104.109 21.0755 104.583 21.0573 104.984 21.0391C105.367 21.0208 106.042 20.9661 107.008 20.875L109.551 20.6562C110.845 20.5469 111.747 20.4648 112.258 20.4102C112.768 20.3737 113.434 20.319 114.254 20.2461C115.056 20.1732 115.648 20.1003 116.031 20.0273C116.396 19.9544 116.76 19.8633 117.125 19.7539C117.49 19.6628 117.745 19.6172 117.891 19.6172C118.036 19.6354 118.264 19.6901 118.574 19.7812C118.884 19.8724 119.148 19.9727 119.367 20.082C119.568 20.1914 119.786 20.319 120.023 20.4648C120.242 20.6289 120.415 20.7747 120.543 20.9023L120.68 21.4492L120.516 21.8867C120.424 22.1419 120.352 22.4154 120.297 22.707C120.224 22.9987 120.16 23.4362 120.105 24.0195C120.051 24.6029 120.014 25.1771 119.996 25.7422V26.3438C119.996 26.7448 120.005 27.1914 120.023 27.6836V30.1719L120.051 32.6602C120.051 33.1341 120.069 33.8451 120.105 34.793C120.16 35.7227 120.188 36.543 120.188 37.2539C120.224 37.9466 120.242 38.5573 120.242 39.0859C120.206 39.651 120.151 40.0977 120.078 40.4258C119.969 40.7539 119.814 41.0638 119.613 41.3555C119.413 41.6471 119.203 41.8659 118.984 42.0117L118.574 42.2031C118.41 42.1849 118.255 42.0391 118.109 41.7656C117.964 41.474 117.854 41.2279 117.781 41.0273L117.508 40.2617L117.234 39.6602C116.797 39.6966 116.478 39.7148 116.277 39.7148L114.172 39.7695C113.734 39.806 112.951 39.8607 111.82 39.9336C110.708 40.0065 109.979 40.043 109.633 40.043L107.008 40.2617C105.732 40.3346 104.948 40.3893 104.656 40.4258C104.474 40.444 104.292 40.4531 104.109 40.4531C103.909 40.4531 103.69 40.4349 103.453 40.3984L102.961 40.3164L102.852 40.7812C102.779 41.0547 102.706 41.237 102.633 41.3281C102.542 41.4193 102.405 41.474 102.223 41.4922L101.922 41.1914C101.812 41.082 101.712 40.9271 101.621 40.7266C101.53 40.5443 101.448 40.3346 101.375 40.0977C101.302 39.8424 101.266 39.5872 101.266 39.332C101.266 39.0768 101.302 38.7396 101.375 38.3203L101.648 37.0352C101.758 36.3789 101.858 35.6042 101.949 34.7109C102.04 33.8177 102.113 32.8698 102.168 31.8672L102.305 29.2148C102.341 27.8477 102.378 26.8815 102.414 26.3164V24.293C102.378 23.6732 102.341 23.1901 102.305 22.8438C102.232 22.4974 102.159 22.1875 102.086 21.9141C102.013 21.6406 101.949 21.4219 101.895 21.2578L101.867 20.875C101.94 20.7839 102.059 20.7383 102.223 20.7383C102.387 20.7565 102.533 20.7839 102.66 20.8203L103.562 21.0938ZM103.781 22.1328C103.781 22.9167 103.772 23.582 103.754 24.1289C103.754 24.6393 103.727 25.5052 103.672 26.7266C103.617 27.9297 103.572 28.987 103.535 29.8984L103.398 33.2344C103.362 34.5286 103.326 35.5312 103.289 36.2422L103.125 38.457L103.043 39.332C103.663 39.332 104.31 39.3229 104.984 39.3047C105.677 39.2865 106.188 39.2682 106.516 39.25C106.862 39.2318 107.737 39.1589 109.141 39.0312L110.945 38.8945L112.914 38.7305C114.482 38.5846 115.43 38.4935 115.758 38.457C116.086 38.4206 116.323 38.4023 116.469 38.4023C116.615 38.4023 116.797 38.4388 117.016 38.5117C117.198 38.5846 117.408 38.6849 117.645 38.8125L118 38.9492C118.128 38.931 118.21 38.8034 118.246 38.5664C118.283 38.3112 118.31 38.0013 118.328 37.6367C118.365 37.2721 118.392 36.7253 118.41 35.9961C118.428 35.2669 118.447 34.4831 118.465 33.6445C118.483 32.8242 118.492 31.7578 118.492 30.4453C118.474 29.5156 118.456 28.7227 118.438 28.0664C118.438 27.4466 118.419 26.6628 118.383 25.7148C118.383 24.7669 118.365 23.9831 118.328 23.3633C118.292 22.7435 118.246 22.2786 118.191 21.9688C118.137 21.6589 118.064 21.4492 117.973 21.3398C117.882 21.2305 117.635 21.1576 117.234 21.1211H116.77C116.387 21.1211 115.858 21.1302 115.184 21.1484C114.181 21.2031 113.516 21.2305 113.188 21.2305C112.896 21.2669 112.24 21.3216 111.219 21.3945C110.216 21.4674 109.387 21.5404 108.73 21.6133L107.008 21.8047C106.534 21.8776 106.042 21.9596 105.531 22.0508C105.021 22.1237 104.583 22.1875 104.219 22.2422L103.781 22.1328Z" fill="#333333"/>
<path d="M171.676 30.1992C171.384 30.1992 171.211 30.0534 171.156 29.7617C171.047 29.4518 170.755 29.069 170.281 28.6133L170.363 28.5039C170.436 28.5404 170.646 28.6315 170.992 28.7773C171.339 28.9049 171.576 28.9688 171.703 28.9688C171.812 28.9688 171.895 28.9688 171.949 28.9688C172.004 28.9505 172.068 28.9049 172.141 28.832C172.359 28.668 172.633 28.2943 172.961 27.7109C173.198 27.237 173.408 26.681 173.59 26.043C173.79 25.4049 173.891 24.9219 173.891 24.5938C173.891 24.5026 173.818 24.457 173.672 24.457L172.633 24.5117L171.922 24.5664L171.457 24.5938L171.266 24.6211C171.393 24.7122 171.475 24.7943 171.512 24.8672C171.566 24.9219 171.594 24.9948 171.594 25.0859C171.594 25.1771 171.484 25.4323 171.266 25.8516C171.083 26.2526 170.792 26.7083 170.391 27.2188C170.062 27.6562 169.616 28.1302 169.051 28.6406C168.504 29.1328 168.094 29.388 167.82 29.4062C167.766 29.4062 167.711 29.3971 167.656 29.3789C167.62 29.3424 167.602 29.2969 167.602 29.2422C167.602 29.224 167.747 29.0508 168.039 28.7227L168.805 27.8203C169.352 27.0911 169.908 26.1615 170.473 25.0312C170.527 24.8854 170.5 24.8034 170.391 24.7852C170.281 24.8034 170.053 24.8307 169.707 24.8672C169.361 24.8854 169.051 24.9401 168.777 25.0312C168.759 25.0312 168.695 25.0586 168.586 25.1133C168.477 25.1497 168.385 25.168 168.312 25.168C168.203 25.168 168.112 25.1315 168.039 25.0586L167.82 24.8672C167.656 24.7396 167.574 24.6211 167.574 24.5117C167.574 24.4753 167.592 24.4206 167.629 24.3477L167.766 24.1289C167.839 24.0378 167.957 23.8919 168.121 23.6914C168.285 23.4909 168.467 23.2174 168.668 22.8711C168.704 22.7982 168.777 22.6341 168.887 22.3789C169.014 22.1237 169.078 21.9688 169.078 21.9141V21.8047C169.078 21.6953 169.096 21.6224 169.133 21.5859C169.169 21.5495 169.251 21.5495 169.379 21.5859C169.507 21.6224 169.661 21.7227 169.844 21.8867L170.145 22.1875C170.199 22.2422 170.227 22.306 170.227 22.3789C170.227 22.5612 169.971 22.8893 169.461 23.3633C169.37 23.4544 169.26 23.5911 169.133 23.7734C169.005 23.9557 168.941 24.0742 168.941 24.1289C168.941 24.2383 169.023 24.2747 169.188 24.2383L169.816 24.1562C171.257 23.9375 172.341 23.8099 173.07 23.7734L173.809 23.6641L174.055 23.6094L174.191 23.582C174.337 23.582 174.438 23.6003 174.492 23.6367C174.547 23.6732 174.602 23.737 174.656 23.8281C174.711 23.901 174.766 23.9648 174.82 24.0195C174.948 24.1654 175.039 24.293 175.094 24.4023L175.148 24.6484L175.094 24.7578L175.039 24.9219C175.003 25.013 174.975 25.1042 174.957 25.1953C174.939 25.2682 174.911 25.3503 174.875 25.4414C174.492 26.918 174.046 28.0664 173.535 28.8867C173.371 29.1784 173.089 29.4701 172.688 29.7617C172.305 30.0534 171.967 30.1992 171.676 30.1992ZM174.164 38.8945C173.891 38.8945 173.626 38.694 173.371 38.293C173.043 37.7826 172.724 37.3633 172.414 37.0352L171.703 36.2969C171.32 36.7344 170.983 37.0807 170.691 37.3359C170.418 37.5911 170.072 37.8372 169.652 38.0742C168.868 38.5299 168.212 38.7578 167.684 38.7578C167.556 38.7578 167.492 38.7122 167.492 38.6211C167.492 38.5664 167.665 38.4479 168.012 38.2656C168.358 38.0833 168.686 37.8646 168.996 37.6094C169.78 36.9531 170.427 36.2786 170.938 35.5859C170.828 35.4766 170.281 35.0026 169.297 34.1641C169.169 34.0729 168.978 33.918 168.723 33.6992C168.668 33.6628 168.559 33.5807 168.395 33.4531C168.23 33.3255 168.148 33.2344 168.148 33.1797C168.148 33.0885 168.194 33.043 168.285 33.043C168.559 33.043 168.996 33.2344 169.598 33.6172C170.199 33.9818 170.828 34.4193 171.484 34.9297C171.74 34.6198 171.94 34.3281 172.086 34.0547C172.232 33.7812 172.396 33.444 172.578 33.043C172.669 32.8424 172.724 32.6693 172.742 32.5234C172.76 32.3594 172.77 32.2591 172.77 32.2227C172.77 32.0221 172.824 31.9219 172.934 31.9219C173.061 31.9219 173.234 32.0221 173.453 32.2227C173.836 32.5872 174.027 32.8333 174.027 32.9609C174.027 33.0339 173.982 33.1159 173.891 33.207C173.672 33.4258 173.471 33.7174 173.289 34.082C173.18 34.3008 172.979 34.6107 172.688 35.0117C172.596 35.1211 172.523 35.2214 172.469 35.3125C172.414 35.4036 172.359 35.4857 172.305 35.5586C172.724 35.8685 173.344 36.3971 174.164 37.1445C174.365 37.3268 174.492 37.5 174.547 37.6641C174.62 37.8099 174.656 38.0104 174.656 38.2656C174.656 38.4479 174.611 38.6029 174.52 38.7305C174.428 38.8398 174.31 38.8945 174.164 38.8945ZM179.742 27.082C179.961 27.082 180.07 27.1823 180.07 27.3828C180.07 27.4922 179.97 27.6471 179.77 27.8477C179.223 28.5221 178.138 29.8073 176.516 31.7031C176.388 31.8672 176.27 31.9492 176.16 31.9492C176.069 31.9492 175.868 31.8125 175.559 31.5391C175.303 31.3203 175.176 31.138 175.176 30.9922C175.176 30.8281 175.312 30.6732 175.586 30.5273C176.005 30.2904 176.634 29.8164 177.473 29.1055C178.311 28.3581 178.931 27.7656 179.332 27.3281C179.496 27.1641 179.633 27.082 179.742 27.082ZM156.527 24.0742L156.555 22.5977L155.352 22.707C155.206 22.7435 154.951 22.7617 154.586 22.7617H153.766C153.547 22.7435 153.328 22.707 153.109 22.6523C152.909 22.5794 152.754 22.4974 152.645 22.4062L152.508 22.1602C152.581 22.0508 152.69 21.9779 152.836 21.9414L153.629 21.8867C154.194 21.8503 154.832 21.7773 155.543 21.668L156.555 21.5039L156.527 21.0391C156.509 20.7474 156.482 20.4922 156.445 20.2734C156.409 20.0729 156.363 19.8906 156.309 19.7266C156.254 19.5625 156.172 19.4076 156.062 19.2617L155.926 18.9336L155.953 18.7148C156.026 18.6055 156.145 18.5508 156.309 18.5508C156.454 18.5508 156.6 18.569 156.746 18.6055C156.928 18.6419 157.147 18.7148 157.402 18.8242C157.639 18.9154 157.849 19.0247 158.031 19.1523C158.214 19.2617 158.323 19.3984 158.359 19.5625C158.378 19.6901 158.341 19.8451 158.25 20.0273L158.031 20.6016L157.977 21.3125C158.305 21.276 158.56 21.2396 158.742 21.2031L159.535 21.0391C160.1 20.9479 160.465 20.875 160.629 20.8203L160.93 20.7383C161.112 20.7383 161.34 20.7747 161.613 20.8477C161.868 20.9388 162.078 21.0391 162.242 21.1484L162.352 21.6133C162.133 21.7956 161.878 21.9049 161.586 21.9414C161.312 21.9961 160.921 22.0508 160.41 22.1055L158.414 22.3242L157.922 22.3789L157.867 23.8281L158.086 23.8008L158.469 23.6914L159.125 23.582C159.417 23.5456 159.681 23.5273 159.918 23.5273L160.355 23.6094C160.592 23.6641 160.766 23.7005 160.875 23.7188C160.984 23.7552 161.121 23.819 161.285 23.9102L161.531 24.1016C161.513 24.2292 161.44 24.3112 161.312 24.3477C161.185 24.3841 160.957 24.4206 160.629 24.457L160.164 24.5664L155.844 25.0859C155.479 25.1406 155.206 25.168 155.023 25.168C154.823 25.168 154.65 25.1497 154.504 25.1133C154.376 25.0768 154.24 25.0312 154.094 24.9766C153.948 24.9219 153.811 24.849 153.684 24.7578L153.52 24.5391C153.538 24.4115 153.629 24.3294 153.793 24.293H154.23C154.704 24.2565 155.014 24.2292 155.16 24.2109L156.008 24.1016L156.527 24.0742ZM155.734 38.1836C155.99 38.3659 156.208 38.5391 156.391 38.7031C156.555 38.849 156.582 39.0586 156.473 39.332L155.898 39.6328C155.789 39.7057 155.57 39.9154 155.242 40.2617C154.914 40.5898 154.458 40.9635 153.875 41.3828C153.292 41.8021 152.9 42.0664 152.699 42.1758C152.48 42.2852 152.289 42.3763 152.125 42.4492L151.195 42.6133L151.605 42.2031L152.125 41.7383L153.273 40.6445C153.456 40.4622 153.738 40.1341 154.121 39.6602C154.504 39.1862 154.704 38.8763 154.723 38.7305L154.805 38.2656L154.039 38.457L153.574 38.4844C153.447 38.3203 153.346 38.1016 153.273 37.8281L153.164 37.3359V36.8711L153.273 36.4883C153.346 36.2331 153.392 35.9414 153.41 35.6133L153.547 33.6719C153.547 33.4896 153.529 33.2161 153.492 32.8516C153.474 32.5052 153.447 32.2682 153.41 32.1406C153.374 32.013 153.31 31.8763 153.219 31.7305L153.109 31.4297C153.128 31.3203 153.31 31.2565 153.656 31.2383L154.176 31.3477L154.613 31.5117L157.047 31.2109C157.32 31.1927 157.594 31.1471 157.867 31.0742L158.578 30.9375C159.052 30.8464 159.408 30.7643 159.645 30.6914L160.055 30.582C160.237 30.5638 160.401 30.582 160.547 30.6367C160.711 30.6732 160.957 30.7734 161.285 30.9375C161.632 31.1016 161.878 31.2474 162.023 31.375L162.133 31.8945C162.023 32.1315 161.941 32.3229 161.887 32.4688L161.805 32.7969C161.786 32.9609 161.777 33.2799 161.777 33.7539L161.75 36.2148V37.1719C161.714 37.4453 161.65 37.6732 161.559 37.8555C161.467 38.0742 161.349 38.2565 161.203 38.4023L160.793 38.6211C160.629 38.5482 160.501 38.4297 160.41 38.2656L160.219 37.8555L155.734 38.1836ZM154.586 33.5898L157.73 33.1797C158.441 33.0885 158.924 33.0156 159.18 32.9609C159.453 32.9062 159.763 32.9062 160.109 32.9609L160.191 32.1133C160.155 31.931 160.018 31.776 159.781 31.6484C159.562 31.6302 159.353 31.6302 159.152 31.6484C158.952 31.6667 158.742 31.694 158.523 31.7305L157.484 31.8945L156.062 32.0859L155.324 32.1953L154.695 32.168L154.586 33.5898ZM154.422 35.5586L158.305 35.0664L159.672 34.9023L160.191 35.0117L160.273 33.6445L156.199 34.1641C155.47 34.2552 154.969 34.3008 154.695 34.3008L154.422 35.5586ZM154.312 37.4453C155.88 37.3177 156.819 37.2357 157.129 37.1992L160.246 36.8984L160.328 35.6953L154.395 36.2148L154.312 37.4453ZM148.188 24.7305C148.023 24.6211 147.896 24.5117 147.805 24.4023C147.695 24.3112 147.595 24.1927 147.504 24.0469L147.148 23.418L146.766 22.543C146.62 22.2513 146.474 21.9232 146.328 21.5586L146.137 21.0938L146.301 20.793H146.547L146.984 20.957C147.13 21.0117 147.331 21.112 147.586 21.2578C147.841 21.4036 148.033 21.5221 148.16 21.6133C148.306 21.7227 148.461 21.8503 148.625 21.9961C148.771 22.1419 148.898 22.2969 149.008 22.4609C149.117 22.6068 149.181 22.7891 149.199 23.0078L149.227 23.2539L149.199 23.5547C149.181 23.7188 149.145 23.8646 149.09 23.9922C149.035 24.1198 148.944 24.2839 148.816 24.4844L149.883 24.4023C150.193 24.3294 150.43 24.293 150.594 24.293C150.74 24.293 150.949 24.3294 151.223 24.4023C151.478 24.4753 151.697 24.5664 151.879 24.6758C152.043 24.7852 152.043 24.9948 151.879 25.3047C151.587 25.3594 151.378 25.3958 151.25 25.4141C151.104 25.4323 150.785 25.4779 150.293 25.5508C149.801 25.6055 149.391 25.6602 149.062 25.7148L147.148 26.0977C146.82 26.1706 146.456 26.2617 146.055 26.3711C145.654 26.4622 145.298 26.5534 144.988 26.6445C144.678 26.7174 144.414 26.8086 144.195 26.918L143.703 27.0547C143.576 27.0547 143.439 27.0365 143.293 27L142.801 26.8633L142.363 26.6719C142.199 26.5807 142.035 26.4805 141.871 26.3711L141.625 26.125L141.652 25.8516L142.035 25.7422L142.746 25.6602L145.152 25.2773L148.188 24.7305ZM145.234 28.832L145.645 28.75C145.954 28.6953 146.237 28.6406 146.492 28.5859C146.747 28.5312 147.03 28.4583 147.34 28.3672C147.65 28.276 147.914 28.1849 148.133 28.0938L148.543 27.957H148.953C149.135 27.957 149.336 27.9935 149.555 28.0664C149.792 28.1029 149.974 28.1576 150.102 28.2305L150.211 28.5586C150.138 28.668 150.029 28.7409 149.883 28.7773C149.737 28.832 149.454 28.9049 149.035 28.9961L146.848 29.5156L146.492 29.5977L146.219 29.6523H145.781L145.289 29.5156C145.034 29.4245 144.879 29.2331 144.824 28.9414L145.234 28.832ZM145.18 31.5117L145.645 31.457L146.355 31.293C146.775 31.2018 147.066 31.1289 147.23 31.0742L148.051 30.8555L148.434 30.7461C148.616 30.7461 148.826 30.7643 149.062 30.8008C149.281 30.819 149.454 30.8555 149.582 30.9102C149.71 30.9466 149.846 31.0013 149.992 31.0742L150.184 31.457C150.092 31.5299 149.974 31.5846 149.828 31.6211L148.516 31.8945L147.148 32.168L146.273 32.3594H145.836L145.59 32.332C145.462 32.2956 145.307 32.2409 145.125 32.168C144.961 32.1133 144.833 31.9219 144.742 31.5938C144.961 31.5573 145.107 31.5299 145.18 31.5117ZM145.152 34.6289L146.656 34.3555C146.766 34.319 147.003 34.2552 147.367 34.1641C147.732 34.0547 147.978 33.9727 148.105 33.918C148.251 33.8815 148.424 33.8086 148.625 33.6992L149.035 33.5352C149.181 33.5352 149.336 33.5625 149.5 33.6172C149.682 33.6719 149.883 33.7539 150.102 33.8633C150.32 33.9727 150.521 34.1003 150.703 34.2461L150.977 34.5195C150.958 34.6289 150.885 34.7565 150.758 34.9023C150.648 35.0117 150.557 35.1302 150.484 35.2578C150.411 35.3854 150.32 35.5586 150.211 35.7773C150.138 35.9961 150.074 36.1784 150.02 36.3242L149.473 37.9102L149.773 38.1289L149.691 38.6211C149.509 38.6211 149.309 38.6302 149.09 38.6484L148.57 38.7031C148.461 38.7214 148.197 38.7578 147.777 38.8125L146.109 39.168C146.018 39.4049 145.909 39.5417 145.781 39.5781C145.654 39.5781 145.526 39.5052 145.398 39.3594C145.326 39.2682 145.262 39.1406 145.207 38.9766C145.152 38.8125 145.107 38.6484 145.07 38.4844L144.742 36.625L144.551 35.9141C144.496 35.7135 144.423 35.5495 144.332 35.4219C144.259 35.2943 144.168 35.1758 144.059 35.0664L143.785 34.7383C143.822 34.5924 143.931 34.5195 144.113 34.5195L144.633 34.5742L145.152 34.6289ZM146.164 38.1289L148.379 37.6914L148.762 35.3945L148.816 35.0938L148.652 34.8203C148.47 34.8021 148.251 34.8203 147.996 34.875L145.809 35.2852L146.164 38.1289ZM161.23 29.4609L153.465 30.2539L153.219 30.3359C153.109 30.3177 152.991 30.2083 152.863 30.0078L152.098 27.3281C151.988 27.0911 151.87 26.9089 151.742 26.7812L151.578 26.5352L151.742 26.2617C151.906 26.2435 152.07 26.2617 152.234 26.3164L152.617 26.3984L153.055 26.5078L157.594 25.9883L159.18 25.8242C159.763 25.7878 160.118 25.7513 160.246 25.7148L160.766 25.6602C161.203 25.5872 161.549 25.5326 161.805 25.4961L162.188 25.4141C162.406 25.3958 162.634 25.4414 162.871 25.5508C163.108 25.6237 163.354 25.7513 163.609 25.9336C163.883 26.0794 164.083 26.2253 164.211 26.3711L164.375 26.6445C164.375 26.8086 164.302 26.9544 164.156 27.082L163.746 27.4922L163.5 27.8203L163.227 28.1758L162.68 29.1602C162.497 29.4701 162.352 29.6797 162.242 29.7891C162.115 29.8984 161.932 29.9714 161.695 30.0078L161.422 29.9805L161.203 29.7344L161.23 29.4609ZM158.688 28.7773C159.234 28.6862 159.672 28.6042 160 28.5312C160.328 28.4766 160.565 28.4492 160.711 28.4492C160.875 28.4492 161.021 28.4674 161.148 28.5039L161.531 28.6406L161.859 27.7656L161.914 27.3281L162.023 26.8633L161.969 26.5898C161.878 26.4805 161.723 26.4258 161.504 26.4258L160.93 26.4531L160.383 26.4805L159.289 26.5898L159.59 27.2188L159.316 27.5742C159.225 27.6836 159.143 27.8294 159.07 28.0117L158.688 28.7773ZM156.062 26.8633L156.363 27.0273L156.473 27.4922C156.454 27.7656 156.445 27.9935 156.445 28.1758L156.418 29.0508L158.031 28.832L158.223 28.0664L158.305 27.6562L158.387 27L158.305 26.6445L156.062 26.8633ZM155.762 29.1602L155.543 28.2031L155.461 27.7656L155.379 27.3828L155.105 26.9727L153.438 27.1914L153.656 29.3789L155.762 29.1602ZM158.387 38.7305L158.469 38.5664C158.615 38.5664 158.833 38.6211 159.125 38.7305C159.417 38.8398 159.772 38.9948 160.191 39.1953C160.611 39.3776 160.966 39.569 161.258 39.7695C161.568 39.9518 161.841 40.1706 162.078 40.4258C162.333 40.681 162.516 40.9362 162.625 41.1914C162.716 41.4466 162.762 41.7201 162.762 42.0117C162.743 42.194 162.689 42.3763 162.598 42.5586C162.507 42.7409 162.361 42.832 162.16 42.832C161.996 42.832 161.841 42.7773 161.695 42.668C161.549 42.5586 161.422 42.4492 161.312 42.3398L160.82 41.7383L159.809 40.4258L159.07 39.4961L158.387 38.7305Z" fill="#333333"/>
<path d="M213.266 29.9258C213.12 29.9258 212.974 29.8984 212.828 29.8438C212.682 29.7708 212.573 29.6615 212.5 29.5156C212.445 29.3516 212.327 29.1602 212.145 28.9414C211.98 28.7227 211.816 28.5586 211.652 28.4492L211.762 28.3125C211.853 28.3672 212.072 28.4766 212.418 28.6406C212.764 28.8047 213.02 28.8867 213.184 28.8867C213.439 28.8867 213.667 28.7956 213.867 28.6133C214.068 28.431 214.323 28.0846 214.633 27.5742C214.852 27.2279 215.052 26.8177 215.234 26.3438C215.417 25.8698 215.553 25.4323 215.645 25.0312L215.672 24.9766C215.672 24.9219 215.654 24.8763 215.617 24.8398C215.581 24.7852 215.544 24.7578 215.508 24.7578L214.25 24.8672C213.411 25.013 212.536 25.1315 211.625 25.2227C211.461 25.2409 211.27 25.2865 211.051 25.3594C210.832 25.4323 210.677 25.4688 210.586 25.4688C210.44 25.4688 210.249 25.3503 210.012 25.1133C209.921 25.0404 209.829 24.9492 209.738 24.8398C209.665 24.7305 209.647 24.6393 209.684 24.5664C209.829 24.4206 209.902 24.3477 209.902 24.3477L210.039 24.2383C210.294 23.9831 210.549 23.6458 210.805 23.2266C210.987 22.9714 211.178 22.543 211.379 21.9414C211.379 21.7409 211.424 21.6406 211.516 21.6406C211.57 21.6406 211.661 21.6771 211.789 21.75L212.227 22.0234C212.336 22.1146 212.409 22.1875 212.445 22.2422C212.482 22.2969 212.5 22.3698 212.5 22.4609C212.5 22.5703 212.427 22.707 212.281 22.8711C212.135 23.0169 212.008 23.1628 211.898 23.3086L211.27 24.2109L211.215 24.3203C211.215 24.375 211.288 24.4023 211.434 24.4023L213.539 24.1289L214.961 24.0195L215.508 23.9648L215.809 23.9102H215.891C216.073 23.9102 216.273 24.0651 216.492 24.375C216.747 24.612 216.875 24.8125 216.875 24.9766L216.738 25.332C216.72 25.3685 216.574 25.7969 216.301 26.6172C215.973 27.401 215.69 27.9935 215.453 28.3945C215.216 28.7956 214.961 29.1055 214.688 29.3242C214.195 29.7253 213.721 29.9258 213.266 29.9258ZM216.656 34.5742C216.857 34.793 216.957 34.9753 216.957 35.1211C216.957 35.2487 216.884 35.3672 216.738 35.4766C216.647 35.5495 216.419 35.9505 216.055 36.6797C215.654 37.3359 215.207 37.9102 214.715 38.4023C214.241 38.8763 213.767 39.2227 213.293 39.4414C213.184 39.4779 213.092 39.4961 213.02 39.4961C212.947 39.4961 212.91 39.4779 212.91 39.4414V39.3867C212.91 39.2773 213.001 39.1497 213.184 39.0039C213.512 38.7487 213.758 38.4935 213.922 38.2383C214.104 37.9648 214.241 37.7643 214.332 37.6367C214.715 37.0898 214.988 36.6432 215.152 36.2969C215.335 35.987 215.462 35.668 215.535 35.3398H215.426C214.952 35.3398 214.186 35.3945 213.129 35.5039C212.965 35.5221 212.491 35.5859 211.707 35.6953C211.543 35.7135 211.288 35.7591 210.941 35.832L210.613 35.9141C210.54 35.9505 210.467 35.9688 210.395 35.9688C210.303 35.9688 210.212 35.9505 210.121 35.9141C210.03 35.8594 209.939 35.7956 209.848 35.7227C209.629 35.5404 209.52 35.3854 209.52 35.2578C209.538 35.2214 209.556 35.1667 209.574 35.0938C209.611 35.0208 209.629 34.957 209.629 34.9023L209.766 34C209.784 33.9089 209.802 33.8086 209.82 33.6992C209.839 33.5898 209.848 33.4805 209.848 33.3711C209.848 33.0247 209.839 32.7513 209.82 32.5508C209.82 32.332 209.793 32.1042 209.738 31.8672V31.7852C209.738 31.6576 209.793 31.5938 209.902 31.5938C210.012 31.5938 210.203 31.6758 210.477 31.8398C210.841 32.0951 211.023 32.2956 211.023 32.4414C211.023 32.4961 211.014 32.5417 210.996 32.5781C210.978 32.6146 210.96 32.651 210.941 32.6875C210.887 33.0156 210.859 33.1979 210.859 33.2344L210.723 34.6836C210.723 34.7201 210.741 34.7656 210.777 34.8203C210.832 34.8568 210.887 34.875 210.941 34.875C211.379 34.875 212.363 34.7656 213.895 34.5469C214.496 34.4922 214.924 34.4284 215.18 34.3555C215.344 34.3372 215.48 34.3099 215.59 34.2734C215.717 34.2188 215.799 34.1914 215.836 34.1914C215.945 34.1549 216.018 34.1367 216.055 34.1367C216.219 34.1367 216.419 34.2826 216.656 34.5742ZM221.852 28.8867C221.906 28.8867 221.961 28.9141 222.016 28.9688C222.07 29.0052 222.107 29.0599 222.125 29.1328V29.1875C222.125 29.3151 222.025 29.5612 221.824 29.9258L219.855 33.3438C219.71 33.6536 219.518 33.8086 219.281 33.8086C219.044 33.8086 218.844 33.6628 218.68 33.3711C218.516 33.1341 218.315 32.7786 218.078 32.3047C217.969 32.1406 217.878 31.9766 217.805 31.8125C217.732 31.6484 217.677 31.5299 217.641 31.457C217.44 31.1107 217.34 30.8646 217.34 30.7188C217.34 30.6458 217.367 30.5911 217.422 30.5547C217.477 30.5 217.531 30.4727 217.586 30.4727C217.786 30.4727 217.969 30.582 218.133 30.8008C218.26 30.9284 218.361 31.0651 218.434 31.2109L218.734 31.6211L219.281 32.25L219.527 31.8672C219.783 31.4297 220.384 30.5638 221.332 29.2695C221.533 29.0143 221.706 28.8867 221.852 28.8867ZM194.645 37.0625C194.663 37.2995 194.681 37.5547 194.699 37.8281C194.699 38.1016 194.717 38.5846 194.754 39.2773C194.79 39.7878 194.809 40.1706 194.809 40.4258C194.772 40.6445 194.717 40.8906 194.645 41.1641C194.553 41.4375 194.462 41.6654 194.371 41.8477C194.262 42.0664 194.125 42.2852 193.961 42.5039L193.633 42.832C193.487 42.832 193.296 42.6953 193.059 42.4219C192.84 42.1484 192.685 41.8659 192.594 41.5742C192.503 41.2826 192.43 40.9909 192.375 40.6992C192.32 40.4076 192.293 40.1615 192.293 39.9609L192.484 39.332C192.594 38.9674 192.703 38.4753 192.812 37.8555L192.895 37.2812C192.621 37.2995 192.421 37.3086 192.293 37.3086L191.145 37.4453C190.908 37.4635 190.643 37.4727 190.352 37.4727C189.896 37.4727 189.513 37.418 189.203 37.3086C188.893 37.2174 188.711 37.1172 188.656 37.0078V36.625C188.82 36.4974 188.957 36.4245 189.066 36.4062C189.176 36.388 189.522 36.3424 190.105 36.2695L192.977 35.8867L193.059 34.5195L193.168 29.707L192.402 30.7734C192.22 31.0469 191.892 31.457 191.418 32.0039C190.962 32.569 190.488 33.1159 189.996 33.6445C189.486 34.1732 188.966 34.6471 188.438 35.0664C187.909 35.4857 187.38 35.8503 186.852 36.1602C186.341 36.4883 185.822 36.7799 185.293 37.0352C184.783 37.3268 184.309 37.5456 183.871 37.6914L183.023 38.0195L182.477 37.9922C182.458 37.8646 182.577 37.7188 182.832 37.5547L183.652 37.0078C184.181 36.6432 184.837 36.1602 185.621 35.5586C186.387 34.9388 187.089 34.3372 187.727 33.7539C188.365 33.1706 188.975 32.5508 189.559 31.8945C190.142 31.2383 190.725 30.5091 191.309 29.707C191.892 28.8867 192.275 28.2852 192.457 27.9023L192.785 27.1914L190.434 27.5195C190.142 27.556 189.723 27.638 189.176 27.7656C188.592 27.875 188.155 27.9297 187.863 27.9297H187.508C187.344 27.875 187.116 27.7839 186.824 27.6562C186.533 27.5286 186.332 27.3919 186.223 27.2461L186.086 26.9727C186.104 26.8633 186.423 26.7721 187.043 26.6992L193.168 25.9609V22.3516C193.168 22.1693 193.141 21.8503 193.086 21.3945C193.031 20.957 192.986 20.6562 192.949 20.4922C192.913 20.3281 192.84 20.1549 192.73 19.9727C192.621 19.7721 192.539 19.5352 192.484 19.2617C192.576 19.1159 192.749 19.0339 193.004 19.0156C193.296 19.0156 193.578 19.0612 193.852 19.1523C194.125 19.2253 194.398 19.3255 194.672 19.4531C194.945 19.5807 195.137 19.7174 195.246 19.8633C195.355 20.0091 195.401 20.1732 195.383 20.3555L195.191 20.8203C195.064 21.0938 194.973 21.4128 194.918 21.7773C194.845 22.1784 194.79 22.8073 194.754 23.6641L194.672 25.7695L197.652 25.2773L198.773 25.1133C199.193 25.0404 199.475 24.9948 199.621 24.9766C199.876 24.9766 200.132 25.0221 200.387 25.1133C200.642 25.2044 200.888 25.3138 201.125 25.4414C201.362 25.5872 201.526 25.724 201.617 25.8516L201.727 26.125L201.672 26.3711C201.599 26.4805 201.417 26.5352 201.125 26.5352C200.852 26.5352 200.505 26.5534 200.086 26.5898L197.898 26.7266L196.531 26.8086L195.41 26.8633L194.699 27.0273L195.52 28.0664L196.75 29.3242C197.315 29.8893 197.835 30.3815 198.309 30.8008C198.764 31.2383 199.32 31.7122 199.977 32.2227C200.633 32.7331 201.189 33.1341 201.645 33.4258C202.118 33.7174 202.72 34.0456 203.449 34.4102C204.16 34.7747 204.835 35.0755 205.473 35.3125L206.512 35.6953L207.168 35.9414C207.423 36.0508 207.551 36.1784 207.551 36.3242C207.551 36.4518 207.368 36.543 207.004 36.5977L206.266 36.707C205.992 36.7617 205.4 36.8438 204.488 36.9531C203.741 37.0443 203.094 37.0898 202.547 37.0898C201.927 37.0534 201.462 36.9531 201.152 36.7891C200.824 36.625 200.296 36.0781 199.566 35.1484L198.062 33.207L196.887 31.5664L195.766 30.0352L194.645 28.5039L194.59 35.5586L195.492 35.3945C196.021 35.2852 196.349 35.2305 196.477 35.2305C196.604 35.2305 196.878 35.276 197.297 35.3672C197.716 35.4583 198.035 35.5495 198.254 35.6406L198.609 35.9414L198.555 36.1875C198.427 36.3151 198.199 36.4245 197.871 36.5156C197.525 36.6068 197.279 36.6615 197.133 36.6797L194.645 37.0625Z" fill="#333333"/>
<path d="M255.02 26.6445C254.783 26.6445 254.609 26.5625 254.5 26.3984C254.336 26.1615 254.172 25.9701 254.008 25.8242C253.862 25.6784 253.598 25.4779 253.215 25.2227L253.297 25.0859C254.135 25.3776 254.728 25.5234 255.074 25.5234C255.366 25.5234 255.685 25.3594 256.031 25.0312C256.396 24.6849 256.706 24.1927 256.961 23.5547C257.089 23.263 257.18 23.026 257.234 22.8438C257.307 22.6432 257.362 22.4245 257.398 22.1875V22.1328C257.398 21.9688 257.316 21.8867 257.152 21.8867C256.97 21.8867 256.642 21.9414 256.168 22.0508C255.913 22.1237 255.576 22.2331 255.156 22.3789L254.938 22.3242C254.919 22.306 254.874 22.2786 254.801 22.2422C254.746 22.1875 254.701 22.1328 254.664 22.0781C254.573 21.987 254.527 21.9232 254.527 21.8867L254.5 21.7773C254.5 21.6497 254.564 21.5312 254.691 21.4219C254.837 21.3125 254.919 21.2305 254.938 21.1758C255.083 21.0117 255.375 20.6107 255.812 19.9727C255.849 19.9362 255.913 19.8542 256.004 19.7266C256.095 19.5807 256.141 19.4531 256.141 19.3438C256.141 19.2161 255.603 19.3073 254.527 19.6172C253.434 19.9453 252.859 20.1094 252.805 20.1094C252.622 20.1094 252.431 19.9544 252.23 19.6445C252.085 19.4987 252.012 19.3802 252.012 19.2891C252.012 19.1615 252.194 19.0885 252.559 19.0703C252.978 19.0521 253.625 18.9792 254.5 18.8516C255.393 18.724 255.922 18.6419 256.086 18.6055L256.469 18.4961C256.523 18.4779 256.587 18.4688 256.66 18.4688C256.715 18.4688 256.797 18.5052 256.906 18.5781C257.034 18.651 257.143 18.7057 257.234 18.7422C257.471 18.8516 257.608 18.9792 257.645 19.125V19.207C257.645 19.3711 257.553 19.5443 257.371 19.7266C257.298 19.7995 257.152 19.9544 256.934 20.1914C256.715 20.4102 256.578 20.556 256.523 20.6289C256.451 20.7018 256.341 20.8203 256.195 20.9844C256.049 21.1484 255.967 21.2487 255.949 21.2852C255.949 21.3398 255.967 21.3763 256.004 21.3945C256.04 21.4128 256.086 21.4219 256.141 21.4219C256.688 21.349 257.134 21.2669 257.48 21.1758L257.918 21.0391C258.118 21.0391 258.264 21.112 258.355 21.2578C258.52 21.4401 258.629 21.5951 258.684 21.7227C258.738 21.832 258.738 21.9414 258.684 22.0508C258.665 22.1055 258.638 22.1602 258.602 22.2148C258.565 22.2695 258.529 22.3333 258.492 22.4062C258.474 22.4427 258.438 22.5156 258.383 22.625C258.328 22.7344 258.292 22.8438 258.273 22.9531C257.945 23.901 257.553 24.7122 257.098 25.3867C256.842 25.6966 256.56 25.9609 256.25 26.1797C255.831 26.4896 255.421 26.6445 255.02 26.6445ZM252.285 31.2383C252.085 31.2383 251.839 31.0833 251.547 30.7734C251.328 30.5547 251.219 30.3906 251.219 30.2812C251.219 30.2266 251.255 30.1992 251.328 30.1992C251.401 30.181 251.492 30.1719 251.602 30.1719L252.203 30.1445C252.549 30.1445 252.777 30.1354 252.887 30.1172C253.233 30.1172 253.525 30.1081 253.762 30.0898C255.329 29.944 256.387 29.8255 256.934 29.7344C257.207 29.6979 257.453 29.6615 257.672 29.625C257.891 29.5703 258.064 29.543 258.191 29.543C258.447 29.543 258.702 29.6706 258.957 29.9258C259.158 30.1263 259.258 30.2904 259.258 30.418C259.258 30.5273 259.194 30.6003 259.066 30.6367C258.975 30.6549 258.438 30.6914 257.453 30.7461C256.906 30.7643 256.232 30.8099 255.43 30.8828C254.628 30.9557 253.926 31.0286 253.324 31.1016C253.215 31.1198 253.06 31.1471 252.859 31.1836C252.659 31.2201 252.467 31.2383 252.285 31.2383ZM256.359 37.3359C256.177 37.5729 255.986 37.6914 255.785 37.6914C255.73 37.6914 255.703 37.6458 255.703 37.5547C255.703 37.4271 255.74 37.2812 255.812 37.1172C255.812 37.1172 255.995 36.7526 256.359 36.0234C256.378 35.9505 256.405 35.8776 256.441 35.8047C256.478 35.7318 256.505 35.668 256.523 35.6133V35.5859C256.523 35.5495 256.496 35.513 256.441 35.4766C256.387 35.4401 256.323 35.431 256.25 35.4492C255.958 35.4674 255.521 35.513 254.938 35.5859C254.372 35.6589 253.953 35.7318 253.68 35.8047C253.57 35.8411 253.434 35.8867 253.27 35.9414C253.124 35.9961 253.005 36.0234 252.914 36.0234C252.586 36.0234 252.312 35.9232 252.094 35.7227C251.911 35.5951 251.775 35.4674 251.684 35.3398L251.629 35.2031C251.629 35.112 251.784 35.0846 252.094 35.1211C252.513 35.1576 253.379 35.1029 254.691 34.957L255.238 34.875C255.384 34.8568 255.612 34.8294 255.922 34.793C256.25 34.7383 256.505 34.6836 256.688 34.6289C256.742 34.6107 256.797 34.5924 256.852 34.5742C256.924 34.5378 256.988 34.5195 257.043 34.5195C257.134 34.5195 257.243 34.5651 257.371 34.6562C257.517 34.7474 257.635 34.8294 257.727 34.9023C257.854 34.9935 257.936 35.0755 257.973 35.1484C258.027 35.2031 258.046 35.276 258.027 35.3672C258.027 35.4583 257.982 35.5404 257.891 35.6133C257.799 35.6862 257.736 35.7409 257.699 35.7773C257.663 35.832 257.535 35.9688 257.316 36.1875C257.225 36.3333 257.061 36.5339 256.824 36.7891C256.605 37.0443 256.451 37.2266 256.359 37.3359ZM254.992 42.7227C254.992 42.668 255.083 42.5221 255.266 42.2852C255.466 42.0664 255.621 41.8932 255.73 41.7656C256.004 41.401 256.332 40.8724 256.715 40.1797C257.116 39.487 257.344 39.0312 257.398 38.8125C257.435 38.7031 257.38 38.6484 257.234 38.6484C256.943 38.6484 256.141 38.7305 254.828 38.8945C253.971 39.0039 253.333 39.1133 252.914 39.2227C252.823 39.2773 252.732 39.3047 252.641 39.3047C252.495 39.3047 252.34 39.2044 252.176 39.0039C252.103 38.8763 252.066 38.7578 252.066 38.6484C252.066 38.5755 252.112 38.5026 252.203 38.4297L252.285 38.3203C252.34 38.2109 252.404 38.0651 252.477 37.8828C252.549 37.7005 252.613 37.5273 252.668 37.3633C252.759 37.0716 252.823 36.7526 252.859 36.4062C252.878 36.2057 252.987 36.151 253.188 36.2422C253.443 36.3698 253.634 36.4974 253.762 36.625C253.908 36.7344 253.953 36.8164 253.898 36.8711C253.716 37.0898 253.57 37.3359 253.461 37.6094C253.37 37.901 253.315 38.0924 253.297 38.1836C253.297 38.2565 253.342 38.293 253.434 38.293C253.707 38.293 254.117 38.2474 254.664 38.1562C254.974 38.1198 255.357 38.0742 255.812 38.0195C256.268 37.9648 256.633 37.9102 256.906 37.8555L257.59 37.7188C257.645 37.7005 257.717 37.6914 257.809 37.6914C257.9 37.6914 257.991 37.7279 258.082 37.8008C258.173 37.8555 258.273 37.9284 258.383 38.0195C258.565 38.1836 258.684 38.3203 258.738 38.4297C258.793 38.5208 258.82 38.6302 258.82 38.7578C258.82 38.8307 258.766 38.9219 258.656 39.0312C258.565 39.1406 258.456 39.3138 258.328 39.5508C257.799 40.6263 257.116 41.5286 256.277 42.2578C256.04 42.4401 255.776 42.5951 255.484 42.7227C255.357 42.7591 255.238 42.7773 255.129 42.7773C255.038 42.7956 254.992 42.7773 254.992 42.7227ZM260.242 32.2773C260.333 32.2773 260.47 32.3411 260.652 32.4688C260.634 32.5052 260.671 32.5781 260.762 32.6875C260.853 32.7786 260.917 32.8424 260.953 32.8789C261.044 32.9701 261.135 33.0794 261.227 33.207C261.336 33.3346 261.454 33.4714 261.582 33.6172C261.91 33.9635 262.667 34.8659 263.852 36.3242C264.052 36.6159 264.152 36.7891 264.152 36.8438C264.152 37.026 264.043 37.1172 263.824 37.1172C263.697 37.1172 263.56 37.026 263.414 36.8438C263.068 36.4792 262.448 35.9049 261.555 35.1211C260.862 34.4831 260.233 33.9909 259.668 33.6445C259.395 33.5169 259.258 33.3711 259.258 33.207C259.258 33.0794 259.395 32.8971 259.668 32.6602C259.923 32.4049 260.115 32.2773 260.242 32.2773ZM226.746 30.8008L226.691 31.2383L226.609 31.5117C226.555 31.6576 226.436 31.7487 226.254 31.7852L225.98 31.457C225.853 31.3112 225.753 31.0924 225.68 30.8008L225.543 29.9531L225.27 27.0547C225.233 26.9271 225.197 26.7266 225.16 26.4531L224.969 25.7148C224.896 25.4961 224.786 25.3138 224.641 25.168L224.367 24.7305L224.504 24.5664L224.75 24.5117L225.406 24.6211L226.117 24.7852L227.566 24.457C227.967 24.3841 228.314 24.293 228.605 24.1836C228.897 24.0742 229.152 23.9557 229.371 23.8281L229.863 23.6367C230.046 23.6185 230.228 23.6367 230.41 23.6914C230.629 23.7643 230.875 23.8646 231.148 23.9922C231.422 24.138 231.622 24.2839 231.75 24.4297C231.878 24.5755 231.914 24.7852 231.859 25.0586L231.449 25.6875C231.303 25.888 231.185 26.1432 231.094 26.4531L230.82 27.4102L230.191 29.7891L230.383 30.0352L230.328 30.3906L229.426 30.4727L228.168 30.6094L226.746 30.8008ZM226.691 29.8711L228.934 29.4883L229.371 26.6445C229.408 26.3529 229.462 26.0612 229.535 25.7695L229.562 25.5508L229.535 25.2773C229.444 25.168 229.253 25.1133 228.961 25.1133L227.84 25.332L226.391 25.6055L226.691 29.8711ZM237.848 22.3789L236.891 24.1289L235.879 25.8516C235.587 26.3438 235.049 27.1003 234.266 28.1211C233.482 29.1419 232.816 29.944 232.27 30.5273C231.723 31.1107 231.167 31.6029 230.602 32.0039C230.055 32.4414 229.535 32.7878 229.043 33.043L228.223 33.4805L227.785 33.2891L228.77 32.4141C229.061 32.1771 229.462 31.7943 229.973 31.2656C230.483 30.737 230.993 30.1628 231.504 29.543C232.014 28.9049 232.543 28.194 233.09 27.4102C233.637 26.6081 234.184 25.7513 234.73 24.8398C235.277 23.9284 235.678 23.1719 235.934 22.5703C236.189 21.9688 236.362 21.4674 236.453 21.0664C236.544 20.6654 236.599 20.3464 236.617 20.1094C236.635 19.8724 236.645 19.6628 236.645 19.4805L236.672 19.1797C236.763 19.0885 236.872 19.0339 237 19.0156C237.146 19.0156 237.337 19.0794 237.574 19.207C237.829 19.3893 238.048 19.5625 238.23 19.7266C238.413 19.8906 238.549 20.0456 238.641 20.1914C238.732 20.3372 238.786 20.5378 238.805 20.793L238.449 21.3398L238.23 21.668C238.522 21.8503 238.759 22.0052 238.941 22.1328C239.087 22.2604 239.324 22.4883 239.652 22.8164L240.691 23.8008L242.332 25.4414C242.952 26.043 243.471 26.5078 243.891 26.8359C244.31 27.1641 244.811 27.5013 245.395 27.8477C245.978 28.2122 246.47 28.4857 246.871 28.668L248.184 29.2422L249.305 29.707L249.633 29.8711L249.66 30.2266L249.277 30.3633L248.156 30.6094L247.145 30.8008C246.652 30.8737 246.233 30.9102 245.887 30.9102C245.486 30.9102 245.176 30.8555 244.957 30.7461C244.738 30.6185 244.492 30.3997 244.219 30.0898C243.945 29.7982 243.626 29.4062 243.262 28.9141L242.141 27.4648L241.02 25.9883L239.953 24.6211C239.279 23.7461 238.85 23.2357 238.668 23.0898L237.848 22.3789ZM230.848 36.2422L231.176 35.3672L231.34 35.1484C231.486 35.1302 231.622 35.2031 231.75 35.3672C231.841 35.4948 231.905 35.7227 231.941 36.0508C231.996 36.3789 232.033 36.7253 232.051 37.0898C232.069 37.2721 232.069 37.4271 232.051 37.5547C232.014 37.974 231.905 38.3841 231.723 38.7852C231.577 39.2227 231.431 39.5508 231.285 39.7695C231.139 40.0247 230.948 40.2617 230.711 40.4805C230.492 40.7174 230.301 40.8359 230.137 40.8359C229.991 40.8359 229.836 40.7721 229.672 40.6445C229.508 40.4987 229.38 40.2982 229.289 40.043C229.216 39.8424 229.18 39.5872 229.18 39.2773C229.216 38.9857 229.262 38.7852 229.316 38.6758L229.918 37.7461L230.465 36.8438C230.665 36.5339 230.793 36.3333 230.848 36.2422ZM241.84 38.3203L241.375 36.5977C241.484 36.5612 241.603 36.6159 241.73 36.7617L242.551 37.6641C242.697 37.8281 242.934 38.0469 243.262 38.3203C243.59 38.5938 243.882 38.8034 244.137 38.9492L244.984 39.5508C245.221 39.7695 245.358 39.9518 245.395 40.0977C245.395 40.2435 245.34 40.4076 245.23 40.5898C245.085 40.7904 244.866 40.9818 244.574 41.1641C244.283 41.3464 243.9 41.5104 243.426 41.6562C242.952 41.8021 242.368 41.9115 241.676 41.9844C241.366 42.0208 241.047 42.0391 240.719 42.0391C240.318 42.0391 239.908 42.0117 239.488 41.957C238.613 41.8659 237.875 41.6836 237.273 41.4102C236.672 41.1185 236.125 40.7539 235.633 40.3164C235.141 39.8789 234.767 39.4049 234.512 38.8945C234.257 38.3659 234.038 37.7461 233.855 37.0352C233.673 36.3424 233.518 35.8047 233.391 35.4219L233.773 35.2031C234.01 35.3307 234.184 35.4492 234.293 35.5586C234.402 35.668 234.484 35.8138 234.539 35.9961L234.73 36.8438C234.803 37.2266 234.995 37.6641 235.305 38.1562C235.596 38.6484 235.915 39.0312 236.262 39.3047C236.626 39.5781 237.082 39.806 237.629 39.9883C238.176 40.1523 238.75 40.2435 239.352 40.2617C239.534 40.2799 239.707 40.2891 239.871 40.2891C240.126 40.2891 240.363 40.2708 240.582 40.2344C240.983 40.1797 241.32 40.0885 241.594 39.9609C241.867 39.8333 242.031 39.6693 242.086 39.4688C242.104 39.2865 242.077 39.0768 242.004 38.8398L241.84 38.3203ZM238.176 30.6914L236.699 30.9648C236.59 31.0013 236.353 31.0742 235.988 31.1836C235.678 31.2747 235.423 31.3203 235.223 31.3203C235.059 31.3021 234.876 31.2565 234.676 31.1836C234.457 31.0924 234.247 30.9922 234.047 30.8828C233.846 30.7734 233.719 30.5911 233.664 30.3359C233.701 30.1901 233.865 30.1172 234.156 30.1172C234.448 30.099 234.803 30.0716 235.223 30.0352C235.624 29.9987 236.025 29.9531 236.426 29.8984C236.827 29.8438 237.264 29.7617 237.738 29.6523L239.105 29.3516C239.543 29.2604 239.871 29.151 240.09 29.0234L240.5 28.832C240.664 28.832 240.865 28.8685 241.102 28.9414C241.339 29.0326 241.566 29.151 241.785 29.2969C242.004 29.4245 242.168 29.5612 242.277 29.707L242.469 30.1172C242.414 30.2266 242.314 30.3451 242.168 30.4727C242.022 30.582 241.858 30.7461 241.676 30.9648L241.02 31.7852C240.801 32.0768 240.527 32.3776 240.199 32.6875C239.889 32.9974 239.634 33.2435 239.434 33.4258C239.215 33.5898 238.969 33.7539 238.695 33.918L237.629 34.1367L238.176 33.4805C238.413 33.2253 238.632 32.9792 238.832 32.7422C239.014 32.5052 239.197 32.2318 239.379 31.9219C239.579 31.612 239.762 31.293 239.926 30.9648L239.953 30.3359C239.789 30.3177 239.616 30.3268 239.434 30.3633L238.176 30.6914ZM235.77 27.0547L236.371 26.918L237 26.7539C237.237 26.6992 237.529 26.6081 237.875 26.4805L238.449 26.2891L238.75 26.207C238.914 26.207 239.087 26.2253 239.27 26.2617C239.452 26.2982 239.625 26.3529 239.789 26.4258L240.09 26.5625L240.254 26.8633C240.217 26.9727 240.108 27.0456 239.926 27.082C239.762 27.1185 239.543 27.1732 239.27 27.2461L238.395 27.4648L237.438 27.7109C237.146 27.7839 236.854 27.8203 236.562 27.8203C236.253 27.8203 235.979 27.7565 235.742 27.6289L235.441 27.3281C235.46 27.2005 235.569 27.1094 235.77 27.0547ZM237.957 37.0352L236.562 35.0938L236.754 34.7383L237.574 34.793C237.793 34.8477 238.057 34.9388 238.367 35.0664C238.695 35.2122 238.96 35.3398 239.16 35.4492C239.342 35.5586 239.507 35.7135 239.652 35.9141C239.78 36.1146 239.844 36.4062 239.844 36.7891C239.844 37.0807 239.798 37.2995 239.707 37.4453C239.634 37.5729 239.534 37.6732 239.406 37.7461L239.078 37.8281C238.932 37.8281 238.777 37.7826 238.613 37.6914C238.431 37.6003 238.212 37.3815 237.957 37.0352ZM242.934 34.5195L242.195 33.8633L242.004 33.5352L242.25 33.3438L243.262 33.5352C243.535 33.6081 243.882 33.7174 244.301 33.8633C244.702 34.0091 245.085 34.1641 245.449 34.3281C245.796 34.4922 246.06 34.6745 246.242 34.875C246.406 35.0755 246.507 35.3763 246.543 35.7773C246.543 36.0872 246.497 36.3242 246.406 36.4883C246.279 36.6706 246.105 36.7982 245.887 36.8711C245.686 36.8711 245.395 36.707 245.012 36.3789L243.918 35.3672L242.934 34.5195Z" fill="#333333"/>
<path d="M297.676 30.1992C297.384 30.1992 297.211 30.0534 297.156 29.7617C297.047 29.4518 296.755 29.069 296.281 28.6133L296.363 28.5039C296.436 28.5404 296.646 28.6315 296.992 28.7773C297.339 28.9049 297.576 28.9688 297.703 28.9688C297.812 28.9688 297.895 28.9688 297.949 28.9688C298.004 28.9505 298.068 28.9049 298.141 28.832C298.359 28.668 298.633 28.2943 298.961 27.7109C299.198 27.237 299.408 26.681 299.59 26.043C299.79 25.4049 299.891 24.9219 299.891 24.5938C299.891 24.5026 299.818 24.457 299.672 24.457L298.633 24.5117L297.922 24.5664L297.457 24.5938L297.266 24.6211C297.393 24.7122 297.475 24.7943 297.512 24.8672C297.566 24.9219 297.594 24.9948 297.594 25.0859C297.594 25.1771 297.484 25.4323 297.266 25.8516C297.083 26.2526 296.792 26.7083 296.391 27.2188C296.062 27.6562 295.616 28.1302 295.051 28.6406C294.504 29.1328 294.094 29.388 293.82 29.4062C293.766 29.4062 293.711 29.3971 293.656 29.3789C293.62 29.3424 293.602 29.2969 293.602 29.2422C293.602 29.224 293.747 29.0508 294.039 28.7227L294.805 27.8203C295.352 27.0911 295.908 26.1615 296.473 25.0312C296.527 24.8854 296.5 24.8034 296.391 24.7852C296.281 24.8034 296.053 24.8307 295.707 24.8672C295.361 24.8854 295.051 24.9401 294.777 25.0312C294.759 25.0312 294.695 25.0586 294.586 25.1133C294.477 25.1497 294.385 25.168 294.312 25.168C294.203 25.168 294.112 25.1315 294.039 25.0586L293.82 24.8672C293.656 24.7396 293.574 24.6211 293.574 24.5117C293.574 24.4753 293.592 24.4206 293.629 24.3477L293.766 24.1289C293.839 24.0378 293.957 23.8919 294.121 23.6914C294.285 23.4909 294.467 23.2174 294.668 22.8711C294.704 22.7982 294.777 22.6341 294.887 22.3789C295.014 22.1237 295.078 21.9688 295.078 21.9141V21.8047C295.078 21.6953 295.096 21.6224 295.133 21.5859C295.169 21.5495 295.251 21.5495 295.379 21.5859C295.507 21.6224 295.661 21.7227 295.844 21.8867L296.145 22.1875C296.199 22.2422 296.227 22.306 296.227 22.3789C296.227 22.5612 295.971 22.8893 295.461 23.3633C295.37 23.4544 295.26 23.5911 295.133 23.7734C295.005 23.9557 294.941 24.0742 294.941 24.1289C294.941 24.2383 295.023 24.2747 295.188 24.2383L295.816 24.1562C297.257 23.9375 298.341 23.8099 299.07 23.7734L299.809 23.6641L300.055 23.6094L300.191 23.582C300.337 23.582 300.438 23.6003 300.492 23.6367C300.547 23.6732 300.602 23.737 300.656 23.8281C300.711 23.901 300.766 23.9648 300.82 24.0195C300.948 24.1654 301.039 24.293 301.094 24.4023L301.148 24.6484L301.094 24.7578L301.039 24.9219C301.003 25.013 300.975 25.1042 300.957 25.1953C300.939 25.2682 300.911 25.3503 300.875 25.4414C300.492 26.918 300.046 28.0664 299.535 28.8867C299.371 29.1784 299.089 29.4701 298.688 29.7617C298.305 30.0534 297.967 30.1992 297.676 30.1992ZM300.164 38.8945C299.891 38.8945 299.626 38.694 299.371 38.293C299.043 37.7826 298.724 37.3633 298.414 37.0352L297.703 36.2969C297.32 36.7344 296.983 37.0807 296.691 37.3359C296.418 37.5911 296.072 37.8372 295.652 38.0742C294.868 38.5299 294.212 38.7578 293.684 38.7578C293.556 38.7578 293.492 38.7122 293.492 38.6211C293.492 38.5664 293.665 38.4479 294.012 38.2656C294.358 38.0833 294.686 37.8646 294.996 37.6094C295.78 36.9531 296.427 36.2786 296.938 35.5859C296.828 35.4766 296.281 35.0026 295.297 34.1641C295.169 34.0729 294.978 33.918 294.723 33.6992C294.668 33.6628 294.559 33.5807 294.395 33.4531C294.23 33.3255 294.148 33.2344 294.148 33.1797C294.148 33.0885 294.194 33.043 294.285 33.043C294.559 33.043 294.996 33.2344 295.598 33.6172C296.199 33.9818 296.828 34.4193 297.484 34.9297C297.74 34.6198 297.94 34.3281 298.086 34.0547C298.232 33.7812 298.396 33.444 298.578 33.043C298.669 32.8424 298.724 32.6693 298.742 32.5234C298.76 32.3594 298.77 32.2591 298.77 32.2227C298.77 32.0221 298.824 31.9219 298.934 31.9219C299.061 31.9219 299.234 32.0221 299.453 32.2227C299.836 32.5872 300.027 32.8333 300.027 32.9609C300.027 33.0339 299.982 33.1159 299.891 33.207C299.672 33.4258 299.471 33.7174 299.289 34.082C299.18 34.3008 298.979 34.6107 298.688 35.0117C298.596 35.1211 298.523 35.2214 298.469 35.3125C298.414 35.4036 298.359 35.4857 298.305 35.5586C298.724 35.8685 299.344 36.3971 300.164 37.1445C300.365 37.3268 300.492 37.5 300.547 37.6641C300.62 37.8099 300.656 38.0104 300.656 38.2656C300.656 38.4479 300.611 38.6029 300.52 38.7305C300.428 38.8398 300.31 38.8945 300.164 38.8945ZM305.742 27.082C305.961 27.082 306.07 27.1823 306.07 27.3828C306.07 27.4922 305.97 27.6471 305.77 27.8477C305.223 28.5221 304.138 29.8073 302.516 31.7031C302.388 31.8672 302.27 31.9492 302.16 31.9492C302.069 31.9492 301.868 31.8125 301.559 31.5391C301.303 31.3203 301.176 31.138 301.176 30.9922C301.176 30.8281 301.312 30.6732 301.586 30.5273C302.005 30.2904 302.634 29.8164 303.473 29.1055C304.311 28.3581 304.931 27.7656 305.332 27.3281C305.496 27.1641 305.633 27.082 305.742 27.082ZM282.527 24.0742L282.555 22.5977L281.352 22.707C281.206 22.7435 280.951 22.7617 280.586 22.7617H279.766C279.547 22.7435 279.328 22.707 279.109 22.6523C278.909 22.5794 278.754 22.4974 278.645 22.4062L278.508 22.1602C278.581 22.0508 278.69 21.9779 278.836 21.9414L279.629 21.8867C280.194 21.8503 280.832 21.7773 281.543 21.668L282.555 21.5039L282.527 21.0391C282.509 20.7474 282.482 20.4922 282.445 20.2734C282.409 20.0729 282.363 19.8906 282.309 19.7266C282.254 19.5625 282.172 19.4076 282.062 19.2617L281.926 18.9336L281.953 18.7148C282.026 18.6055 282.145 18.5508 282.309 18.5508C282.454 18.5508 282.6 18.569 282.746 18.6055C282.928 18.6419 283.147 18.7148 283.402 18.8242C283.639 18.9154 283.849 19.0247 284.031 19.1523C284.214 19.2617 284.323 19.3984 284.359 19.5625C284.378 19.6901 284.341 19.8451 284.25 20.0273L284.031 20.6016L283.977 21.3125C284.305 21.276 284.56 21.2396 284.742 21.2031L285.535 21.0391C286.1 20.9479 286.465 20.875 286.629 20.8203L286.93 20.7383C287.112 20.7383 287.34 20.7747 287.613 20.8477C287.868 20.9388 288.078 21.0391 288.242 21.1484L288.352 21.6133C288.133 21.7956 287.878 21.9049 287.586 21.9414C287.312 21.9961 286.921 22.0508 286.41 22.1055L284.414 22.3242L283.922 22.3789L283.867 23.8281L284.086 23.8008L284.469 23.6914L285.125 23.582C285.417 23.5456 285.681 23.5273 285.918 23.5273L286.355 23.6094C286.592 23.6641 286.766 23.7005 286.875 23.7188C286.984 23.7552 287.121 23.819 287.285 23.9102L287.531 24.1016C287.513 24.2292 287.44 24.3112 287.312 24.3477C287.185 24.3841 286.957 24.4206 286.629 24.457L286.164 24.5664L281.844 25.0859C281.479 25.1406 281.206 25.168 281.023 25.168C280.823 25.168 280.65 25.1497 280.504 25.1133C280.376 25.0768 280.24 25.0312 280.094 24.9766C279.948 24.9219 279.811 24.849 279.684 24.7578L279.52 24.5391C279.538 24.4115 279.629 24.3294 279.793 24.293H280.23C280.704 24.2565 281.014 24.2292 281.16 24.2109L282.008 24.1016L282.527 24.0742ZM281.734 38.1836C281.99 38.3659 282.208 38.5391 282.391 38.7031C282.555 38.849 282.582 39.0586 282.473 39.332L281.898 39.6328C281.789 39.7057 281.57 39.9154 281.242 40.2617C280.914 40.5898 280.458 40.9635 279.875 41.3828C279.292 41.8021 278.9 42.0664 278.699 42.1758C278.48 42.2852 278.289 42.3763 278.125 42.4492L277.195 42.6133L277.605 42.2031L278.125 41.7383L279.273 40.6445C279.456 40.4622 279.738 40.1341 280.121 39.6602C280.504 39.1862 280.704 38.8763 280.723 38.7305L280.805 38.2656L280.039 38.457L279.574 38.4844C279.447 38.3203 279.346 38.1016 279.273 37.8281L279.164 37.3359V36.8711L279.273 36.4883C279.346 36.2331 279.392 35.9414 279.41 35.6133L279.547 33.6719C279.547 33.4896 279.529 33.2161 279.492 32.8516C279.474 32.5052 279.447 32.2682 279.41 32.1406C279.374 32.013 279.31 31.8763 279.219 31.7305L279.109 31.4297C279.128 31.3203 279.31 31.2565 279.656 31.2383L280.176 31.3477L280.613 31.5117L283.047 31.2109C283.32 31.1927 283.594 31.1471 283.867 31.0742L284.578 30.9375C285.052 30.8464 285.408 30.7643 285.645 30.6914L286.055 30.582C286.237 30.5638 286.401 30.582 286.547 30.6367C286.711 30.6732 286.957 30.7734 287.285 30.9375C287.632 31.1016 287.878 31.2474 288.023 31.375L288.133 31.8945C288.023 32.1315 287.941 32.3229 287.887 32.4688L287.805 32.7969C287.786 32.9609 287.777 33.2799 287.777 33.7539L287.75 36.2148V37.1719C287.714 37.4453 287.65 37.6732 287.559 37.8555C287.467 38.0742 287.349 38.2565 287.203 38.4023L286.793 38.6211C286.629 38.5482 286.501 38.4297 286.41 38.2656L286.219 37.8555L281.734 38.1836ZM280.586 33.5898L283.73 33.1797C284.441 33.0885 284.924 33.0156 285.18 32.9609C285.453 32.9062 285.763 32.9062 286.109 32.9609L286.191 32.1133C286.155 31.931 286.018 31.776 285.781 31.6484C285.562 31.6302 285.353 31.6302 285.152 31.6484C284.952 31.6667 284.742 31.694 284.523 31.7305L283.484 31.8945L282.062 32.0859L281.324 32.1953L280.695 32.168L280.586 33.5898ZM280.422 35.5586L284.305 35.0664L285.672 34.9023L286.191 35.0117L286.273 33.6445L282.199 34.1641C281.47 34.2552 280.969 34.3008 280.695 34.3008L280.422 35.5586ZM280.312 37.4453C281.88 37.3177 282.819 37.2357 283.129 37.1992L286.246 36.8984L286.328 35.6953L280.395 36.2148L280.312 37.4453ZM274.188 24.7305C274.023 24.6211 273.896 24.5117 273.805 24.4023C273.695 24.3112 273.595 24.1927 273.504 24.0469L273.148 23.418L272.766 22.543C272.62 22.2513 272.474 21.9232 272.328 21.5586L272.137 21.0938L272.301 20.793H272.547L272.984 20.957C273.13 21.0117 273.331 21.112 273.586 21.2578C273.841 21.4036 274.033 21.5221 274.16 21.6133C274.306 21.7227 274.461 21.8503 274.625 21.9961C274.771 22.1419 274.898 22.2969 275.008 22.4609C275.117 22.6068 275.181 22.7891 275.199 23.0078L275.227 23.2539L275.199 23.5547C275.181 23.7188 275.145 23.8646 275.09 23.9922C275.035 24.1198 274.944 24.2839 274.816 24.4844L275.883 24.4023C276.193 24.3294 276.43 24.293 276.594 24.293C276.74 24.293 276.949 24.3294 277.223 24.4023C277.478 24.4753 277.697 24.5664 277.879 24.6758C278.043 24.7852 278.043 24.9948 277.879 25.3047C277.587 25.3594 277.378 25.3958 277.25 25.4141C277.104 25.4323 276.785 25.4779 276.293 25.5508C275.801 25.6055 275.391 25.6602 275.062 25.7148L273.148 26.0977C272.82 26.1706 272.456 26.2617 272.055 26.3711C271.654 26.4622 271.298 26.5534 270.988 26.6445C270.678 26.7174 270.414 26.8086 270.195 26.918L269.703 27.0547C269.576 27.0547 269.439 27.0365 269.293 27L268.801 26.8633L268.363 26.6719C268.199 26.5807 268.035 26.4805 267.871 26.3711L267.625 26.125L267.652 25.8516L268.035 25.7422L268.746 25.6602L271.152 25.2773L274.188 24.7305ZM271.234 28.832L271.645 28.75C271.954 28.6953 272.237 28.6406 272.492 28.5859C272.747 28.5312 273.03 28.4583 273.34 28.3672C273.65 28.276 273.914 28.1849 274.133 28.0938L274.543 27.957H274.953C275.135 27.957 275.336 27.9935 275.555 28.0664C275.792 28.1029 275.974 28.1576 276.102 28.2305L276.211 28.5586C276.138 28.668 276.029 28.7409 275.883 28.7773C275.737 28.832 275.454 28.9049 275.035 28.9961L272.848 29.5156L272.492 29.5977L272.219 29.6523H271.781L271.289 29.5156C271.034 29.4245 270.879 29.2331 270.824 28.9414L271.234 28.832ZM271.18 31.5117L271.645 31.457L272.355 31.293C272.775 31.2018 273.066 31.1289 273.23 31.0742L274.051 30.8555L274.434 30.7461C274.616 30.7461 274.826 30.7643 275.062 30.8008C275.281 30.819 275.454 30.8555 275.582 30.9102C275.71 30.9466 275.846 31.0013 275.992 31.0742L276.184 31.457C276.092 31.5299 275.974 31.5846 275.828 31.6211L274.516 31.8945L273.148 32.168L272.273 32.3594H271.836L271.59 32.332C271.462 32.2956 271.307 32.2409 271.125 32.168C270.961 32.1133 270.833 31.9219 270.742 31.5938C270.961 31.5573 271.107 31.5299 271.18 31.5117ZM271.152 34.6289L272.656 34.3555C272.766 34.319 273.003 34.2552 273.367 34.1641C273.732 34.0547 273.978 33.9727 274.105 33.918C274.251 33.8815 274.424 33.8086 274.625 33.6992L275.035 33.5352C275.181 33.5352 275.336 33.5625 275.5 33.6172C275.682 33.6719 275.883 33.7539 276.102 33.8633C276.32 33.9727 276.521 34.1003 276.703 34.2461L276.977 34.5195C276.958 34.6289 276.885 34.7565 276.758 34.9023C276.648 35.0117 276.557 35.1302 276.484 35.2578C276.411 35.3854 276.32 35.5586 276.211 35.7773C276.138 35.9961 276.074 36.1784 276.02 36.3242L275.473 37.9102L275.773 38.1289L275.691 38.6211C275.509 38.6211 275.309 38.6302 275.09 38.6484L274.57 38.7031C274.461 38.7214 274.197 38.7578 273.777 38.8125L272.109 39.168C272.018 39.4049 271.909 39.5417 271.781 39.5781C271.654 39.5781 271.526 39.5052 271.398 39.3594C271.326 39.2682 271.262 39.1406 271.207 38.9766C271.152 38.8125 271.107 38.6484 271.07 38.4844L270.742 36.625L270.551 35.9141C270.496 35.7135 270.423 35.5495 270.332 35.4219C270.259 35.2943 270.168 35.1758 270.059 35.0664L269.785 34.7383C269.822 34.5924 269.931 34.5195 270.113 34.5195L270.633 34.5742L271.152 34.6289ZM272.164 38.1289L274.379 37.6914L274.762 35.3945L274.816 35.0938L274.652 34.8203C274.47 34.8021 274.251 34.8203 273.996 34.875L271.809 35.2852L272.164 38.1289ZM287.23 29.4609L279.465 30.2539L279.219 30.3359C279.109 30.3177 278.991 30.2083 278.863 30.0078L278.098 27.3281C277.988 27.0911 277.87 26.9089 277.742 26.7812L277.578 26.5352L277.742 26.2617C277.906 26.2435 278.07 26.2617 278.234 26.3164L278.617 26.3984L279.055 26.5078L283.594 25.9883L285.18 25.8242C285.763 25.7878 286.118 25.7513 286.246 25.7148L286.766 25.6602C287.203 25.5872 287.549 25.5326 287.805 25.4961L288.188 25.4141C288.406 25.3958 288.634 25.4414 288.871 25.5508C289.108 25.6237 289.354 25.7513 289.609 25.9336C289.883 26.0794 290.083 26.2253 290.211 26.3711L290.375 26.6445C290.375 26.8086 290.302 26.9544 290.156 27.082L289.746 27.4922L289.5 27.8203L289.227 28.1758L288.68 29.1602C288.497 29.4701 288.352 29.6797 288.242 29.7891C288.115 29.8984 287.932 29.9714 287.695 30.0078L287.422 29.9805L287.203 29.7344L287.23 29.4609ZM284.688 28.7773C285.234 28.6862 285.672 28.6042 286 28.5312C286.328 28.4766 286.565 28.4492 286.711 28.4492C286.875 28.4492 287.021 28.4674 287.148 28.5039L287.531 28.6406L287.859 27.7656L287.914 27.3281L288.023 26.8633L287.969 26.5898C287.878 26.4805 287.723 26.4258 287.504 26.4258L286.93 26.4531L286.383 26.4805L285.289 26.5898L285.59 27.2188L285.316 27.5742C285.225 27.6836 285.143 27.8294 285.07 28.0117L284.688 28.7773ZM282.062 26.8633L282.363 27.0273L282.473 27.4922C282.454 27.7656 282.445 27.9935 282.445 28.1758L282.418 29.0508L284.031 28.832L284.223 28.0664L284.305 27.6562L284.387 27L284.305 26.6445L282.062 26.8633ZM281.762 29.1602L281.543 28.2031L281.461 27.7656L281.379 27.3828L281.105 26.9727L279.438 27.1914L279.656 29.3789L281.762 29.1602ZM284.387 38.7305L284.469 38.5664C284.615 38.5664 284.833 38.6211 285.125 38.7305C285.417 38.8398 285.772 38.9948 286.191 39.1953C286.611 39.3776 286.966 39.569 287.258 39.7695C287.568 39.9518 287.841 40.1706 288.078 40.4258C288.333 40.681 288.516 40.9362 288.625 41.1914C288.716 41.4466 288.762 41.7201 288.762 42.0117C288.743 42.194 288.689 42.3763 288.598 42.5586C288.507 42.7409 288.361 42.832 288.16 42.832C287.996 42.832 287.841 42.7773 287.695 42.668C287.549 42.5586 287.422 42.4492 287.312 42.3398L286.82 41.7383L285.809 40.4258L285.07 39.4961L284.387 38.7305Z" fill="#333333"/>
</svg>
