<svg width="320" height="60" viewBox="0 0 320 60" fill="none" xmlns="http://www.w3.org/2000/svg">
<path d="M66.2109 26.3984C66.1016 26.3984 65.9557 26.2799 65.7734 26.043C65.5911 25.7878 65.5091 25.569 65.5273 25.3867C65.5638 25.2409 65.5911 24.8307 65.6094 24.1562C65.6276 23.7005 65.6367 22.8984 65.6367 21.75C65.6367 20.9479 65.6276 20.4102 65.6094 20.1367L64.707 20.2188C64.069 20.3099 63.5221 20.3555 63.0664 20.3555C62.9388 20.3555 62.7565 20.2552 62.5195 20.0547C62.2826 19.8542 62.1641 19.7083 62.1641 19.6172C62.1641 19.4714 62.319 19.4167 62.6289 19.4531C62.8294 19.4714 63.4219 19.4622 64.4062 19.4258C65.7552 19.3346 66.7305 19.2799 67.332 19.2617C67.6419 19.2435 67.9245 19.2161 68.1797 19.1797C68.4531 19.125 68.6445 19.0885 68.7539 19.0703C68.918 19.0521 69.0638 19.0703 69.1914 19.125C69.319 19.1797 69.4375 19.2526 69.5469 19.3438C69.6745 19.4167 69.7747 19.4714 69.8477 19.5078C70.0117 19.6172 70.0938 19.7174 70.0938 19.8086C70.0938 19.8815 70.0482 19.9544 69.957 20.0273C69.8841 20.082 69.8021 20.1094 69.7109 20.1094C69.6198 20.1094 69.4922 20.1003 69.3281 20.082C69.1823 20.0638 69.0182 20.0547 68.8359 20.0547C68.1615 20.0547 67.4688 20.0729 66.7578 20.1094C66.7396 20.2552 66.7305 20.6198 66.7305 21.2031C66.694 22.1875 66.6758 23.1536 66.6758 24.1016V25.168V25.4141C66.6758 25.724 66.6484 25.9245 66.5938 26.0156C66.4297 26.2708 66.3021 26.3984 66.2109 26.3984ZM63.2852 31.2383C63.0846 31.2383 62.8385 31.0833 62.5469 30.7734C62.3281 30.5547 62.2188 30.3906 62.2188 30.2812C62.2188 30.2266 62.2552 30.1992 62.3281 30.1992C62.401 30.181 62.4922 30.1719 62.6016 30.1719L63.2031 30.1445C63.5495 30.1445 63.7773 30.1354 63.8867 30.1172C64.2331 30.1172 64.5247 30.1081 64.7617 30.0898C66.3294 29.944 67.3867 29.8255 67.9336 29.7344C68.207 29.6979 68.4531 29.6615 68.6719 29.625C68.8906 29.5703 69.0638 29.543 69.1914 29.543C69.4466 29.543 69.7018 29.6706 69.957 29.9258C70.1576 30.1263 70.2578 30.2904 70.2578 30.418C70.2578 30.5273 70.194 30.6003 70.0664 30.6367C69.9753 30.6549 69.4375 30.6914 68.4531 30.7461C67.9062 30.7643 67.2318 30.8099 66.4297 30.8828C65.6276 30.9557 64.9258 31.0286 64.3242 31.1016C64.2148 31.1198 64.0599 31.1471 63.8594 31.1836C63.6589 31.2201 63.4674 31.2383 63.2852 31.2383ZM69.1641 40.6719C69.2005 40.7448 69.2643 40.8542 69.3555 41C69.4466 41.1458 69.4922 41.319 69.4922 41.5195C69.4922 41.7018 69.4193 41.8477 69.2734 41.957C69.1276 42.0846 68.9635 42.1484 68.7812 42.1484C68.6172 42.1484 68.4805 41.9844 68.3711 41.6562C68.3164 41.5286 68.2708 41.4193 68.2344 41.3281C68.2161 41.2552 68.1979 41.1914 68.1797 41.1367C67.9427 41.2096 67.6328 41.2734 67.25 41.3281C66.8672 41.3828 66.5938 41.4284 66.4297 41.4648C65.5547 41.6289 64.9531 41.7474 64.625 41.8203C64.4974 41.8568 64.3607 41.8932 64.2148 41.9297C64.069 41.9844 63.987 42.0208 63.9688 42.0391C63.8594 42.0755 63.7773 42.0938 63.7227 42.0938C63.5768 42.0938 63.4401 42.0299 63.3125 41.9023C63.0938 41.7383 62.9297 41.5195 62.8203 41.2461C62.8021 41.2279 62.793 41.2005 62.793 41.1641C62.793 41.1276 62.8385 41.082 62.9297 41.0273C63.0391 40.9727 63.1211 40.9362 63.1758 40.918C63.4128 40.7904 63.832 40.4076 64.4336 39.7695L65.1719 39.0586L63.5586 38.1836C63.3763 38.1289 63.2578 38.0651 63.2031 37.9922C63.1484 37.9193 63.1211 37.8099 63.1211 37.6641C63.1211 37.5547 63.1393 37.4818 63.1758 37.4453C63.2305 37.3906 63.3398 37.3086 63.5039 37.1992C63.668 37.0898 63.832 36.944 63.9961 36.7617C64.0872 36.6523 64.2057 36.5339 64.3516 36.4062C64.4974 36.2786 64.6341 36.1419 64.7617 35.9961C65.3086 35.3581 65.6549 34.8568 65.8008 34.4922C65.8919 34.3099 65.9648 34.2188 66.0195 34.2188C66.056 34.2188 66.1289 34.2552 66.2383 34.3281C66.5846 34.5833 66.7943 34.8203 66.8672 35.0391V35.1211C66.8672 35.2122 66.8216 35.2852 66.7305 35.3398C66.6393 35.3945 66.5755 35.4401 66.5391 35.4766C66.4844 35.513 66.2109 35.7773 65.7188 36.2695L65.2266 36.7617C65.1354 36.8529 64.9805 37.0078 64.7617 37.2266C64.543 37.4271 64.4336 37.5456 64.4336 37.582C64.4336 37.6367 64.4609 37.6823 64.5156 37.7188C64.5885 37.7552 64.6432 37.7917 64.6797 37.8281L65.8281 38.375C66.5391 37.6641 66.9492 37.2448 67.0586 37.1172C67.5326 36.5703 67.7969 36.224 67.8516 36.0781C67.8698 36.0599 67.8971 36.0143 67.9336 35.9414C67.9701 35.8685 68.0065 35.832 68.043 35.832C68.0977 35.832 68.1523 35.8594 68.207 35.9141C68.4987 36.1875 68.7083 36.4427 68.8359 36.6797C68.8724 36.7526 68.8906 36.7982 68.8906 36.8164C68.8906 36.8529 68.8451 36.9076 68.7539 36.9805C68.681 37.0352 68.6081 37.0898 68.5352 37.1445C67.8971 37.6732 67.1497 38.3659 66.293 39.2227L64.625 40.7812C64.5885 40.8177 64.5703 40.8542 64.5703 40.8906C64.5703 40.9271 64.5885 40.9544 64.625 40.9727C64.6615 40.9909 64.7161 40.9909 64.7891 40.9727L67.9883 40.4258C67.8971 40.0612 67.7878 39.6966 67.6602 39.332V39.2773C67.6602 39.2227 67.6875 39.1953 67.7422 39.1953C67.8151 39.1953 67.9245 39.25 68.0703 39.3594C68.362 39.6146 68.7266 40.0521 69.1641 40.6719ZM74.8516 31.8945C74.9062 31.8945 74.9609 31.9219 75.0156 31.9766C75.0703 32.013 75.1068 32.0677 75.125 32.1406V32.1953C75.125 32.3229 75.0247 32.569 74.8242 32.9336L72.8555 36.3516C72.7096 36.6615 72.5182 36.8164 72.2812 36.8164C72.0443 36.8164 71.8438 36.6706 71.6797 36.3789C71.5156 36.1419 71.3151 35.7865 71.0781 35.3125C70.9688 35.1484 70.8776 34.9844 70.8047 34.8203C70.7318 34.6562 70.6771 34.5378 70.6406 34.4648C70.4401 34.1185 70.3398 33.8724 70.3398 33.7266C70.3398 33.6536 70.3672 33.599 70.4219 33.5625C70.4766 33.5078 70.5312 33.4805 70.5859 33.4805C70.7865 33.4805 70.9688 33.5898 71.1328 33.8086C71.2604 33.9362 71.3607 34.0729 71.4336 34.2188L71.7344 34.6289L72.2812 35.2578L72.5273 34.875C72.7826 34.4375 73.3841 33.5716 74.332 32.2773C74.5326 32.0221 74.7057 31.8945 74.8516 31.8945ZM37.4727 35.2852L38.457 33.8359C38.8216 33.3073 39.1406 32.7878 39.4141 32.2773C39.6875 31.7669 39.9154 31.2474 40.0977 30.7188C40.2799 30.1901 40.4076 29.8073 40.4805 29.5703C40.5169 29.388 40.5352 29.1784 40.5352 28.9414L40.6719 28.3398C40.7995 28.3216 40.918 28.3216 41.0273 28.3398C41.1732 28.3945 41.3919 28.5221 41.6836 28.7227C42.0117 28.9049 42.2943 29.1328 42.5312 29.4062C42.6953 29.5885 42.7682 29.7982 42.75 30.0352C42.6953 30.1445 42.5951 30.263 42.4492 30.3906L42.1758 30.6367C42.0846 30.7461 41.7474 31.2383 41.1641 32.1133C40.5807 33.0065 40.0247 33.7174 39.4961 34.2461C38.9492 34.793 38.3659 35.276 37.7461 35.6953L37.3633 35.9414L37.0625 35.8047L37.4727 35.2852ZM47.2617 35.832L47.3984 26.4258L47.2617 23.5C47.2253 23.1719 47.1797 22.7982 47.125 22.3789C47.0703 21.9779 46.9792 21.6315 46.8516 21.3398C46.724 21.0482 46.6602 20.8294 46.6602 20.6836L46.8789 20.3555C47.0247 20.3372 47.1523 20.3372 47.2617 20.3555C47.4987 20.3919 47.7539 20.4557 48.0273 20.5469C48.319 20.638 48.6471 20.7747 49.0117 20.957C49.3581 21.1029 49.6315 21.2669 49.832 21.4492C50.0143 21.6315 50.0964 21.8685 50.0781 22.1602L49.7227 22.8164C49.6497 22.944 49.5586 23.2357 49.4492 23.6914C49.3216 24.1654 49.2122 24.6211 49.1211 25.0586C49.0482 25.4961 49.0026 26.1159 48.9844 26.918L48.793 32.3867L48.957 37.8555L49.0117 39.332C49.0117 39.806 48.957 40.1979 48.8477 40.5078C48.7565 40.7995 48.5924 41.1367 48.3555 41.5195C48.1367 41.8841 47.9362 42.1211 47.7539 42.2305L47.4531 42.3398C47.3073 42.3398 47.1797 42.2852 47.0703 42.1758C46.9609 42.0482 46.7695 41.7839 46.4961 41.3828C46.2044 41 45.8763 40.6081 45.5117 40.207C45.1289 39.8242 44.8008 39.5143 44.5273 39.2773L44.0352 38.8672L43.9805 38.5391L44.1992 38.5117L45.0742 38.7852C45.5846 38.931 45.9674 39.013 46.2227 39.0312L46.5781 39.0039C46.7422 38.9128 46.8607 38.8034 46.9336 38.6758C46.9883 38.5299 47.043 38.1107 47.0977 37.418L47.2617 35.832ZM53.4414 29.1055L53.168 28.3398L53.8242 28.5039C54.0977 28.5951 54.4622 28.7591 54.918 28.9961C55.3919 29.2148 55.9206 29.5247 56.5039 29.9258C57.0872 30.3086 57.5977 30.7734 58.0352 31.3203C58.4727 31.8672 58.7734 32.3958 58.9375 32.9062C59.1016 33.3984 59.1836 33.8451 59.1836 34.2461C59.1654 34.5924 59.0833 34.8659 58.9375 35.0664C58.8099 35.2487 58.6276 35.3581 58.3906 35.3945C58.1901 35.3945 57.9987 35.3307 57.8164 35.2031C57.6706 35.112 57.4883 34.9023 57.2695 34.5742L56.0938 32.8242C55.5469 31.9857 55.1185 31.3477 54.8086 30.9102L53.9883 29.7617L53.4414 29.1055Z" fill="#333333"/>
<path d="M111.027 29.2695C110.754 29.2695 110.553 29.1237 110.426 28.832L110.18 28.2852C109.469 28.4674 108.895 28.6042 108.457 28.6953L106.68 29.1328C106.315 29.224 106.087 29.2695 105.996 29.2695C105.887 29.2695 105.796 29.2513 105.723 29.2148C105.668 29.1602 105.622 29.1146 105.586 29.0781C105.549 29.0234 105.522 28.9779 105.504 28.9414C105.358 28.6862 105.294 28.513 105.312 28.4219L105.504 28.1211C105.978 27.4648 106.415 26.526 106.816 25.3047L106.27 25.3867L105.559 25.4688C105.504 25.487 105.385 25.5234 105.203 25.5781C105.039 25.6146 104.911 25.6055 104.82 25.5508C104.62 25.4232 104.355 25.1953 104.027 24.8672C103.954 24.7943 103.918 24.7396 103.918 24.7031C103.918 24.5938 104.118 24.5391 104.52 24.5391H105.449C106.069 24.5026 106.634 24.457 107.145 24.4023C107.254 24.1289 107.372 23.7826 107.5 23.3633C107.628 22.944 107.719 22.6068 107.773 22.3516C107.773 22.2969 107.773 22.1875 107.773 22.0234C107.792 21.8594 107.828 21.7591 107.883 21.7227H107.91C107.983 21.7227 108.083 21.7591 108.211 21.832C108.339 21.9049 108.457 21.9961 108.566 22.1055C108.913 22.4518 109.013 22.7253 108.867 22.9258C108.794 22.944 108.639 23.2448 108.402 23.8281C108.384 23.8646 108.32 24.0286 108.211 24.3203C108.357 24.3021 108.885 24.2383 109.797 24.1289C110.216 24.0924 110.535 24.0469 110.754 23.9922C111.064 23.901 111.31 23.8555 111.492 23.8555C111.638 23.8555 111.757 23.9102 111.848 24.0195C111.939 24.1107 112.003 24.1745 112.039 24.2109C112.094 24.2656 112.158 24.375 112.23 24.5391C112.303 24.6667 112.331 24.7578 112.312 24.8125C112.24 24.9219 112.112 24.9766 111.93 24.9766C111.328 24.9401 110.608 24.9583 109.77 25.0312C109.405 25.0677 109.132 25.1042 108.949 25.1406L107.883 25.25L107.637 25.9883L107.336 26.6445C107.245 26.8633 107.145 27.082 107.035 27.3008C106.926 27.5195 106.844 27.7018 106.789 27.8477C106.771 27.8841 106.762 27.9388 106.762 28.0117C106.762 28.1029 106.816 28.1484 106.926 28.1484C107.072 28.1484 107.573 28.0664 108.43 27.9023L109.441 27.7383L109.906 27.6289C109.742 27.1732 109.615 26.8815 109.523 26.7539C109.432 26.6263 109.378 26.5443 109.359 26.5078L109.523 26.3438C110.234 26.7995 110.809 27.2643 111.246 27.7383C111.374 27.9023 111.456 28.0573 111.492 28.2031C111.547 28.349 111.565 28.513 111.547 28.6953C111.51 28.8594 111.447 28.987 111.355 29.0781C111.319 29.1693 111.21 29.2331 111.027 29.2695ZM108.785 39.168C108.785 39.1497 108.831 39.0859 108.922 38.9766C109.031 38.849 109.15 38.694 109.277 38.5117C109.496 38.2018 109.715 37.7461 109.934 37.1445C110.152 36.543 110.271 35.987 110.289 35.4766C110.289 35.4401 110.271 35.4036 110.234 35.3672C110.216 35.3125 110.171 35.2852 110.098 35.2852L109.469 35.3398L108.539 35.4219C108.339 36.0781 107.992 36.7891 107.5 37.5547C107.281 37.901 106.98 38.2109 106.598 38.4844C106.233 38.7396 105.878 38.9219 105.531 39.0312C105.422 39.0677 105.285 39.0859 105.121 39.0859C104.993 39.0677 104.93 39.0312 104.93 38.9766C104.93 38.9036 104.993 38.8398 105.121 38.7852C105.34 38.6393 105.586 38.4115 105.859 38.1016C106.151 37.7917 106.406 37.4727 106.625 37.1445C106.753 36.9622 106.889 36.7253 107.035 36.4336C107.181 36.1237 107.299 35.8411 107.391 35.5859C106.807 35.6589 106.206 35.7956 105.586 35.9961C105.549 36.0326 105.486 36.0508 105.395 36.0508C105.34 36.0508 105.258 36.0143 105.148 35.9414C105.003 35.7956 104.902 35.6862 104.848 35.6133C104.811 35.5221 104.829 35.4401 104.902 35.3672L105.012 35.1484C105.085 35.0391 105.158 34.8203 105.23 34.4922C105.303 34.1641 105.34 33.8997 105.34 33.6992C105.34 33.6445 105.331 33.5807 105.312 33.5078C105.312 33.4167 105.322 33.3711 105.34 33.3711C105.376 33.3529 105.422 33.3529 105.477 33.3711C105.677 33.4076 105.859 33.4714 106.023 33.5625C106.169 33.6536 106.27 33.7539 106.324 33.8633C106.397 33.9544 106.397 34.0365 106.324 34.1094C106.306 34.1276 106.279 34.1641 106.242 34.2188C106.206 34.2552 106.178 34.3099 106.16 34.3828C106.142 34.401 106.105 34.6016 106.051 34.9844C106.051 35.0026 106.06 35.0208 106.078 35.0391C106.115 35.0573 106.151 35.0573 106.188 35.0391C106.242 35.0391 106.324 35.0299 106.434 35.0117C106.543 34.9935 106.625 34.9753 106.68 34.957C106.807 34.9388 106.953 34.9115 107.117 34.875C107.299 34.8385 107.464 34.8112 107.609 34.793C107.664 34.5924 107.701 34.3737 107.719 34.1367C107.755 33.8815 107.783 33.7083 107.801 33.6172L107.828 33.043V32.8516C107.245 32.8698 106.634 32.9245 105.996 33.0156L105.504 33.0977H105.395C105.303 33.0977 105.212 33.0703 105.121 33.0156C105.048 32.9609 104.966 32.8971 104.875 32.8242C104.638 32.6055 104.52 32.4414 104.52 32.332C104.52 32.2227 104.602 32.1862 104.766 32.2227C104.984 32.2591 105.212 32.2773 105.449 32.2773L106.242 32.25L110.043 31.9766C110.189 31.9583 110.326 31.9401 110.453 31.9219C110.581 31.8854 110.708 31.8581 110.836 31.8398H110.918C111.155 31.8398 111.319 31.8854 111.41 31.9766C111.52 32.0495 111.583 32.0951 111.602 32.1133C111.893 32.3503 112.039 32.5326 112.039 32.6602C112.039 32.7695 111.884 32.8151 111.574 32.7969L111.027 32.7422C110.553 32.724 109.842 32.7422 108.895 32.7969L108.785 33.8633C108.767 34.0456 108.749 34.1914 108.73 34.3008C108.712 34.4102 108.694 34.5013 108.676 34.5742L108.648 34.6562C109.086 34.6198 109.596 34.5651 110.18 34.4922C110.216 34.474 110.28 34.4557 110.371 34.4375C110.462 34.401 110.553 34.3737 110.645 34.3555H110.699C110.809 34.3555 110.918 34.401 111.027 34.4922C111.137 34.5833 111.201 34.638 111.219 34.6562C111.365 34.7839 111.465 34.8932 111.52 34.9844C111.592 35.0573 111.602 35.1211 111.547 35.1758C111.51 35.2487 111.465 35.3216 111.41 35.3945C111.374 35.4492 111.346 35.513 111.328 35.5859C111.237 36.3516 111.091 36.9714 110.891 37.4453C110.727 37.8646 110.544 38.1836 110.344 38.4023C110.161 38.6029 109.934 38.7943 109.66 38.9766C109.551 39.0495 109.378 39.1133 109.141 39.168C108.904 39.2044 108.785 39.2044 108.785 39.168ZM113.242 29.2695C113.333 29.2695 113.47 29.3333 113.652 29.4609C113.634 29.4974 113.671 29.5703 113.762 29.6797C113.853 29.7708 113.917 29.8346 113.953 29.8711C114.044 29.9622 114.135 30.0716 114.227 30.1992C114.336 30.3268 114.454 30.4635 114.582 30.6094C114.91 30.9557 115.667 31.8581 116.852 33.3164C117.052 33.6081 117.152 33.7812 117.152 33.8359C117.152 34.0182 117.043 34.1094 116.824 34.1094C116.697 34.1094 116.56 34.0182 116.414 33.8359C116.068 33.4714 115.448 32.8971 114.555 32.1133C113.862 31.4753 113.233 30.9831 112.668 30.6367C112.395 30.5091 112.258 30.3633 112.258 30.1992C112.258 30.0716 112.395 29.8893 112.668 29.6523C112.923 29.3971 113.115 29.2695 113.242 29.2695ZM85.3242 29.3789L83.1641 29.7617C82.0885 29.944 81.4505 30.0352 81.25 30.0352C81.0495 30.0352 80.8672 30.0078 80.7031 29.9531L80.2109 29.7617C80.0104 29.6888 79.819 29.5612 79.6367 29.3789L79.3906 29.1055C79.4089 28.9961 79.582 28.9141 79.9102 28.8594L81.1133 28.7227L82.2617 28.6133C82.5534 28.5768 83.1458 28.4948 84.0391 28.3672L85.9531 28.0938L86.2539 27.6016C86.2904 27.4922 86.3633 27.2917 86.4727 27L86.7461 26.2617L85.3242 26.4805C84.9414 26.5169 84.6589 26.5443 84.4766 26.5625C84.3307 26.5625 84.2031 26.5534 84.0938 26.5352C83.9297 26.4987 83.7383 26.4076 83.5195 26.2617L83.2461 25.9609C83.2826 25.8333 83.4648 25.7513 83.793 25.7148L85.0508 25.5234C85.306 25.5052 85.6706 25.4505 86.1445 25.3594L87.0742 25.2227L87.293 24.5117L87.5391 23.1992L84.9961 23.4727C84.5404 23.5091 84.1029 23.5365 83.6836 23.5547C83.3555 23.5547 83.1185 23.5273 82.9727 23.4727C82.7904 23.418 82.5898 23.3268 82.3711 23.1992L82.0156 22.9531L82.043 22.6797L82.4531 22.5977L83.082 22.5156C83.3737 22.4974 83.6654 22.4609 83.957 22.4062L85.2695 22.2148L87.7852 21.832C87.8216 21.5404 87.8398 21.3034 87.8398 21.1211C87.8763 20.9388 87.8945 20.7383 87.8945 20.5195C87.8763 20.1185 87.8398 19.7812 87.7852 19.5078L87.6758 18.8242L87.8125 18.6055L88.1406 18.5508C88.4505 18.6055 88.6784 18.6602 88.8242 18.7148C88.9883 18.7695 89.2161 18.8607 89.5078 18.9883C89.7812 19.1341 89.9544 19.2617 90.0273 19.3711L90.082 19.6445C90.0638 19.7904 89.9362 20.0365 89.6992 20.3828L89.5078 21.0117L89.2617 21.6133L91.7773 21.0938L93.0352 20.8477L93.2539 20.8203C93.4727 20.8203 93.6641 20.8385 93.8281 20.875C94.1016 20.9297 94.3294 21.0117 94.5117 21.1211L94.8125 21.3398L94.8398 21.8047C94.7669 22.0052 94.4388 22.1419 93.8555 22.2148L91.7773 22.543L89.043 22.9805L88.8789 23.4453L88.4688 25.0039L90.4375 24.5938L91.9688 24.2656C92.2057 24.2656 92.4336 24.293 92.6523 24.3477C92.9258 24.3841 93.1628 24.4753 93.3633 24.6211L93.5547 25.0859L93.2539 25.25L92.4062 25.3594L90.5195 25.6602L89.3164 25.8789L88.168 26.0977C88.0768 26.3893 87.9857 26.6628 87.8945 26.918L87.7305 27.3828L87.5117 27.957L90.6016 27.5195L93.1445 27.1094C93.9102 27.0182 94.4844 26.9362 94.8672 26.8633C95.25 26.7904 95.5234 26.7539 95.6875 26.7539C96.1068 26.7721 96.4622 26.8633 96.7539 27.0273C97.0456 27.2096 97.3099 27.3919 97.5469 27.5742L97.8477 27.9844L97.7383 28.2031C97.6289 28.2943 97.5013 28.3398 97.3555 28.3398L94.6484 28.4492C94.0469 28.4674 93.4362 28.5039 92.8164 28.5586L91.6406 28.668C92.6068 29.5612 93.4362 30.2904 94.1289 30.8555C94.8398 31.4023 95.569 31.8763 96.3164 32.2773C97.082 32.6602 97.9206 33.0247 98.832 33.3711C99.7617 33.7357 100.6 34.0365 101.348 34.2734L102.414 34.6289L102.77 34.793L102.742 35.0391C102.596 35.1849 102.359 35.2578 102.031 35.2578L100.582 35.3945C100.29 35.431 99.8438 35.4492 99.2422 35.4492H98.5586C97.8659 35.431 97.401 35.3763 97.1641 35.2852C96.9271 35.1758 96.6628 35.0299 96.3711 34.8477C96.0794 34.6471 95.5508 34.1732 94.7852 33.4258C94.0378 32.6784 93.5911 32.2227 93.4453 32.0586C93.2812 31.8945 92.862 31.4023 92.1875 30.582L90.6836 28.7227L87.0195 29.1602C86.7643 29.6341 86.5091 30.0716 86.2539 30.4727C86.0169 30.8737 85.7253 31.293 85.3789 31.7305C85.0508 32.168 84.6771 32.6146 84.2578 33.0703C83.8385 33.5078 83.3372 33.9362 82.7539 34.3555C82.1706 34.793 81.6602 35.1302 81.2227 35.3672C80.7852 35.6042 80.3568 35.8138 79.9375 35.9961C79.5182 36.1784 78.9987 36.3789 78.3789 36.5977L77.5312 36.8438L77.3398 36.7344C77.3398 36.6068 77.4219 36.4883 77.5859 36.3789L78.2148 36.0234C78.9805 35.6042 79.6185 35.2305 80.1289 34.9023C80.6393 34.5742 81.2044 34.1367 81.8242 33.5898C82.4622 33.043 83.0638 32.4505 83.6289 31.8125C84.2122 31.1745 84.6406 30.6003 84.9141 30.0898L85.3242 29.3789ZM86.6367 35.5586C86.6367 35.7044 86.6094 35.8594 86.5547 36.0234L86.3906 36.3242L86.1445 36.4336C85.8893 36.4336 85.6797 36.388 85.5156 36.2969C85.3516 36.2057 85.1237 35.9779 84.832 35.6133L84.0117 34.6016L83.7383 34.082C83.8112 33.9727 83.9297 33.8997 84.0938 33.8633C84.2943 33.8633 84.5586 33.8997 84.8867 33.9727C85.2878 34.082 85.5612 34.1549 85.707 34.1914C85.8529 34.2279 85.9987 34.3008 86.1445 34.4102C86.2721 34.5195 86.3815 34.6927 86.4727 34.9297C86.582 35.1667 86.6367 35.3763 86.6367 35.5586ZM87.457 37.1172L85.4336 38.9219C85.0143 39.3047 84.7227 39.5781 84.5586 39.7422C84.3763 39.9062 84.2031 40.1068 84.0391 40.3438L83.8203 40.6445L83.3281 40.9727C83.0547 40.9727 82.8086 40.918 82.5898 40.8086C82.3711 40.681 82.1706 40.5352 81.9883 40.3711C81.7695 40.207 81.5964 40.0065 81.4688 39.7695L81.3594 39.5234L81.5508 39.2227L82.207 39.0586C82.3529 39.0221 82.763 38.8672 83.4375 38.5938C84.112 38.3203 84.5221 38.1471 84.668 38.0742L87.0742 36.7617L87.375 36.6523L87.6211 36.7891C87.6393 36.9167 87.5846 37.026 87.457 37.1172ZM86.418 40.8633L86.0078 40.1797L86.582 40.2617L87.4297 40.4805C87.612 40.5352 87.8034 40.5534 88.0039 40.5352C88.1497 40.4258 88.2591 40.2891 88.332 40.125C88.4049 39.9609 88.4414 39.5143 88.4414 38.7852L88.5234 35.3945C88.5234 35.0117 88.5143 34.6927 88.4961 34.4375C88.4779 34.2005 88.4505 33.9362 88.4141 33.6445C88.3594 33.3711 88.3138 33.125 88.2773 32.9062C88.2227 32.6693 88.1406 32.4232 88.0312 32.168L87.9219 31.8398L88.1953 31.5117C88.4323 31.4753 88.7148 31.5299 89.043 31.6758C89.444 31.8581 89.6992 31.9766 89.8086 32.0312C89.918 32.0859 90.0091 32.168 90.082 32.2773L90.1914 32.6328L90.0273 33.1523C89.9909 33.2982 89.9453 33.599 89.8906 34.0547C89.8542 34.4922 89.8359 34.8021 89.8359 34.9844V38.0469L89.9727 40.5352C89.9727 41.2279 89.8724 41.7201 89.6719 42.0117C89.4714 42.3398 89.2526 42.5768 89.0156 42.7227C88.7969 42.8867 88.6146 42.9688 88.4688 42.9688C88.3411 42.9688 88.2044 42.9049 88.0586 42.7773L87.5664 42.1758C87.3841 41.9023 87.1927 41.6654 86.9922 41.4648L86.418 40.8633ZM91.5312 35.4492L90.5195 35.668L90.957 35.0664C91.0664 34.957 91.194 34.7565 91.3398 34.4648C91.5221 34.1732 91.6589 33.918 91.75 33.6992C91.8411 33.4805 91.9141 33.2708 91.9688 33.0703L92.2148 32.6875C92.3789 32.651 92.5612 32.6875 92.7617 32.7969C92.944 32.9062 93.1081 33.0156 93.2539 33.125C93.3997 33.2526 93.5638 33.4076 93.7461 33.5898C93.9284 33.7721 94.0195 33.9727 94.0195 34.1914C93.9466 34.3372 93.819 34.4466 93.6367 34.5195C93.4544 34.556 93.0443 34.7292 92.4062 35.0391L91.5312 35.4492ZM91.5312 37.5L91.1484 37.1992L90.957 36.9258L91.2305 36.7891L92.0234 37.0078L93.1992 37.3633C93.8555 37.5456 94.3841 37.7188 94.7852 37.8828C95.1497 38.0469 95.5052 38.2839 95.8516 38.5938C96.1979 38.8854 96.4258 39.1497 96.5352 39.3867C96.6445 39.6419 96.7083 39.8971 96.7266 40.1523C96.7266 40.4076 96.681 40.599 96.5898 40.7266C96.5352 40.8359 96.362 40.9453 96.0703 41.0547C95.7969 41.0547 95.5234 40.9727 95.25 40.8086C94.9766 40.6263 94.6667 40.3711 94.3203 40.043L93.418 39.1133L92.2969 38.1289L91.5312 37.5Z" fill="#333333"/>
<path d="M147.285 26.5898C147.085 26.5898 146.839 26.4349 146.547 26.125C146.328 25.9062 146.219 25.7422 146.219 25.6328C146.219 25.5781 146.255 25.5508 146.328 25.5508C146.401 25.5326 146.492 25.5234 146.602 25.5234L147.203 25.4961C147.549 25.4961 147.777 25.487 147.887 25.4688C148.233 25.4688 148.525 25.4596 148.762 25.4414C150.329 25.2956 151.387 25.1771 151.934 25.0859C152.207 25.0495 152.453 25.013 152.672 24.9766C152.891 24.9219 153.064 24.8945 153.191 24.8945C153.447 24.8945 153.702 25.0221 153.957 25.2773C154.158 25.4779 154.258 25.6419 154.258 25.7695C154.258 25.8789 154.194 25.9518 154.066 25.9883C153.975 26.0065 153.438 26.043 152.453 26.0977C151.906 26.1159 151.232 26.1615 150.43 26.2344C149.628 26.3073 148.926 26.3802 148.324 26.4531C148.215 26.4714 148.06 26.4987 147.859 26.5352C147.659 26.5716 147.467 26.5898 147.285 26.5898ZM153.492 38.5664C153.747 38.7305 153.875 38.8854 153.875 39.0312C153.875 39.2318 153.72 39.3594 153.41 39.4141C153.1 39.4688 152.663 39.5052 152.098 39.5234C151.277 39.5417 150.749 39.5143 150.512 39.4414C150.111 39.2591 149.91 38.9583 149.91 38.5391L149.938 37.5273C149.974 37.1992 149.992 36.9076 149.992 36.6523C150.01 36.4883 150.02 36.1693 150.02 35.6953C149.746 36.3151 149.391 36.9167 148.953 37.5C148.643 37.8828 148.37 38.2018 148.133 38.457C147.896 38.694 147.613 38.9219 147.285 39.1406C146.957 39.3594 146.656 39.4688 146.383 39.4688C146.219 39.4688 146.137 39.4141 146.137 39.3047C146.137 39.2865 146.31 39.1497 146.656 38.8945C147.021 38.6211 147.385 38.2474 147.75 37.7734C148.297 37.0443 148.771 36.1875 149.172 35.2031C148.461 35.2943 147.987 35.3763 147.75 35.4492C147.659 35.4674 147.577 35.4948 147.504 35.5312C147.431 35.5495 147.34 35.5495 147.23 35.5312C147.139 35.4948 147.012 35.4219 146.848 35.3125C146.684 35.1849 146.556 35.0664 146.465 34.957C146.392 34.8477 146.355 34.7747 146.355 34.7383C146.355 34.6471 146.492 34.6016 146.766 34.6016C147.44 34.6016 148.306 34.5286 149.363 34.3828C149.473 33.9635 149.527 33.2891 149.527 32.3594V31.8398C149.527 31.6211 149.573 31.5026 149.664 31.4844C149.682 31.4661 149.719 31.457 149.773 31.457C149.919 31.457 150.12 31.5664 150.375 31.7852C150.576 31.9492 150.703 32.0768 150.758 32.168C150.831 32.2409 150.84 32.3411 150.785 32.4688C150.767 32.5052 150.73 32.5781 150.676 32.6875C150.621 32.7969 150.585 32.9062 150.566 33.0156C150.548 33.1068 150.512 33.2891 150.457 33.5625C150.402 33.8177 150.366 34.0456 150.348 34.2461C150.603 34.2279 150.922 34.1914 151.305 34.1367C151.688 34.082 151.97 34.0273 152.152 33.9727L152.699 33.8359C152.882 33.7995 153.182 33.9544 153.602 34.3008C153.674 34.3555 153.711 34.4193 153.711 34.4922C153.711 34.5651 153.674 34.6289 153.602 34.6836C153.547 34.7201 153.474 34.7383 153.383 34.7383C153.055 34.7383 152.453 34.793 151.578 34.9023L150.676 34.9844C150.876 35.1302 151.004 35.2578 151.059 35.3672C151.113 35.4766 151.122 35.5859 151.086 35.6953L151.004 36.1328C150.967 36.4974 150.931 36.8984 150.895 37.3359C150.876 37.7734 150.876 38.1107 150.895 38.3477C150.895 38.4388 150.949 38.5208 151.059 38.5938C151.186 38.6667 151.314 38.7031 151.441 38.7031C151.897 38.7031 152.408 38.6576 152.973 38.5664L153.219 38.5117C153.328 38.5117 153.419 38.5299 153.492 38.5664ZM158.742 27.082C158.961 27.082 159.07 27.1823 159.07 27.3828C159.07 27.4922 158.97 27.6471 158.77 27.8477C158.223 28.5221 157.138 29.8073 155.516 31.7031C155.388 31.8672 155.27 31.9492 155.16 31.9492C155.069 31.9492 154.868 31.8125 154.559 31.5391C154.303 31.3203 154.176 31.138 154.176 30.9922C154.176 30.8281 154.312 30.6732 154.586 30.5273C155.005 30.2904 155.634 29.8164 156.473 29.1055C157.311 28.3581 157.931 27.7656 158.332 27.3281C158.496 27.1641 158.633 27.082 158.742 27.082ZM130.688 29.7617C130.396 29.8346 130.15 29.8893 129.949 29.9258C129.749 29.9805 129.566 30.0078 129.402 30.0078C129.238 30.0078 129.092 29.9896 128.965 29.9531L128.391 29.7617L127.844 29.4883C127.698 29.3971 127.607 29.2057 127.57 28.9141L127.98 28.832C128.108 28.8138 128.382 28.7956 128.801 28.7773C129.22 28.7409 129.995 28.668 131.125 28.5586L133.996 28.2305C134.762 28.1576 135.573 28.0846 136.43 28.0117C137.268 27.9388 137.815 27.8841 138.07 27.8477C138.326 27.8112 138.781 27.7383 139.438 27.6289C140.076 27.5378 140.549 27.4557 140.859 27.3828C141.188 27.3281 141.415 27.2917 141.543 27.2734C141.707 27.2734 141.88 27.3008 142.062 27.3555C142.263 27.3919 142.491 27.474 142.746 27.6016C143.02 27.7292 143.247 27.8568 143.43 27.9844L143.73 28.2852C143.712 28.431 143.621 28.5404 143.457 28.6133C143.275 28.6862 143.047 28.7227 142.773 28.7227L141.543 28.832C141.051 28.8685 140.54 28.8867 140.012 28.8867L137.961 28.9961C137.451 29.0143 136.721 29.0599 135.773 29.1328C134.826 29.2057 134.16 29.2604 133.777 29.2969C133.395 29.3516 133.048 29.3971 132.738 29.4336L131.891 29.543C132.055 29.6888 132.182 29.7982 132.273 29.8711L132.547 30.1445L132.684 30.418L132.438 30.7188L132.191 30.8828L131.781 31.2383L131.125 31.8672L134.352 31.5117L135.418 31.375L136.703 31.2109L137.906 31.0195C138.362 30.9466 138.708 30.8737 138.945 30.8008L139.383 30.6367C139.529 30.6549 139.747 30.7279 140.039 30.8555C140.312 31.0013 140.559 31.1471 140.777 31.293C140.978 31.457 141.151 31.6211 141.297 31.7852L141.434 32.332C141.288 32.5508 141.169 32.7786 141.078 33.0156C140.969 33.2526 140.896 33.444 140.859 33.5898C140.823 33.7539 140.768 34.0456 140.695 34.4648C140.622 34.8841 140.477 35.6315 140.258 36.707L139.848 38.5117C139.665 39.2044 139.438 39.8333 139.164 40.3984C138.891 40.9635 138.617 41.4102 138.344 41.7383C138.052 42.0482 137.742 42.3034 137.414 42.5039C137.177 42.6315 136.949 42.6953 136.73 42.6953C136.603 42.6406 136.448 42.4674 136.266 42.1758L135.992 41.7109L135.527 41.1367L135.145 40.6445L134.324 39.6055L134.461 39.4414L135.664 39.8789L136.484 40.125L136.977 40.2344C137.104 40.2161 137.232 40.1159 137.359 39.9336C137.505 39.7695 137.624 39.5872 137.715 39.3867C137.824 39.2044 137.97 38.8307 138.152 38.2656C138.335 37.7005 138.471 37.2357 138.562 36.8711C138.654 36.5065 138.763 35.9596 138.891 35.2305C139 34.4831 139.073 33.918 139.109 33.5352C139.128 33.2799 139.137 33.0247 139.137 32.7695L139.027 32.25C138.9 32.1406 138.708 32.0859 138.453 32.0859L137.852 32.1133L136.32 32.25L136.594 32.4414L136.977 32.7148C137.104 32.806 137.232 32.9245 137.359 33.0703L137.414 33.5625L137.004 33.9453C136.876 34.0365 136.74 34.1914 136.594 34.4102L135.418 35.9961C134.962 36.5612 134.452 37.1263 133.887 37.6914C133.322 38.2747 132.784 38.7578 132.273 39.1406C131.763 39.5417 131.234 39.9062 130.688 40.2344C130.141 40.5807 129.639 40.8451 129.184 41.0273L128.609 41.2461H128.199C128.181 41.1185 128.254 40.9909 128.418 40.8633L129.129 40.3711C129.329 40.2253 129.685 39.9427 130.195 39.5234C130.706 39.1042 131.161 38.7031 131.562 38.3203C131.982 37.9375 132.447 37.4544 132.957 36.8711C133.449 36.2878 133.85 35.7773 134.16 35.3398C134.47 34.9023 134.753 34.4466 135.008 33.9727C135.299 33.4987 135.464 33.1341 135.5 32.8789L135.664 32.3047L133.176 32.6602C133.376 32.806 133.54 32.9518 133.668 33.0977L133.859 33.3711L133.613 33.7539C133.413 33.8268 133.221 33.9635 133.039 34.1641L132.602 34.6289L131.645 35.6133C131.335 35.9049 130.924 36.2331 130.414 36.5977C129.904 36.9805 129.493 37.2539 129.184 37.418C128.874 37.6003 128.527 37.7734 128.145 37.9375L127.16 38.0742L127.406 37.8008L127.953 37.418C128.208 37.2174 128.464 36.9987 128.719 36.7617C129.01 36.543 129.339 36.2513 129.703 35.8867C130.068 35.5221 130.405 35.1667 130.715 34.8203C131.007 34.474 131.253 34.1549 131.453 33.8633C131.654 33.5716 131.809 33.2891 131.918 33.0156C131.663 32.9974 131.435 32.9883 131.234 32.9883C131.052 32.9883 130.888 32.9427 130.742 32.8516L130.359 32.6328C129.977 32.9427 129.648 33.1888 129.375 33.3711C129.083 33.5898 128.71 33.8268 128.254 34.082C127.798 34.3372 127.443 34.5195 127.188 34.6289H126.285L126.859 34.1641C127.406 33.7812 127.88 33.3984 128.281 33.0156C128.701 32.6328 129.111 32.2135 129.512 31.7578C129.895 31.3021 130.159 30.9375 130.305 30.6641C130.451 30.3906 130.551 30.181 130.605 30.0352L130.688 29.7617ZM122.566 22.2422L122.977 22.1055C123.086 22.069 123.469 21.9323 124.125 21.6953C124.781 21.4583 125.228 21.2669 125.465 21.1211C125.702 20.957 125.884 20.8659 126.012 20.8477C126.139 20.8477 126.303 20.8841 126.504 20.957C126.741 21.0482 127.014 21.1758 127.324 21.3398C127.634 21.5039 127.826 21.6497 127.898 21.7773L128.035 22.0508C128.017 22.1602 127.971 22.2604 127.898 22.3516C127.826 22.4427 127.634 22.5977 127.324 22.8164C127.014 23.0534 126.695 23.3633 126.367 23.7461C126.039 24.1107 125.82 24.4115 125.711 24.6484C125.602 24.8307 125.547 25.013 125.547 25.1953C125.547 25.3776 125.693 25.6875 125.984 26.125C126.276 26.5443 126.495 26.8815 126.641 27.1367C126.786 27.3919 126.941 27.7109 127.105 28.0938C127.233 28.4219 127.297 28.7773 127.297 29.1602C127.279 29.5065 127.197 29.862 127.051 30.2266C126.905 30.5729 126.714 30.8464 126.477 31.0469C126.312 31.1927 126.066 31.2292 125.738 31.1562L124.863 30.418L124.234 29.9258L123.277 29.2695L123.086 29.0234L123.332 28.8867L124.617 29.1055L125.109 29.1602C125.255 29.1602 125.392 29.0872 125.52 28.9414L125.574 28.5859L125.602 28.2578C125.583 28.0208 125.52 27.7292 125.41 27.3828C125.301 27.0365 125.182 26.7357 125.055 26.4805C124.945 26.2253 124.818 25.9883 124.672 25.7695C124.562 25.5143 124.499 25.3047 124.48 25.1406L124.672 24.6211L125.301 23.0352L125.246 22.5156C125.082 22.4974 124.9 22.5065 124.699 22.543L122.785 23.0078L122.402 34.793C122.384 35.3581 122.339 36.1055 122.266 37.0352L122.102 39.168C122.083 39.6237 122.047 39.9518 121.992 40.1523C121.919 40.3346 121.846 40.4896 121.773 40.6172C121.701 40.7448 121.536 40.7904 121.281 40.7539C121.026 40.5352 120.826 40.2982 120.68 40.043C120.534 39.7695 120.443 39.4961 120.406 39.2227C120.37 39.0221 120.352 38.8125 120.352 38.5938C120.352 38.3932 120.388 38.1471 120.461 37.8555C120.516 37.5638 120.607 37.0352 120.734 36.2695C120.88 35.5039 120.98 34.9297 121.035 34.5469C121.09 34.1823 121.145 33.5807 121.199 32.7422C121.254 31.9036 121.29 31.138 121.309 30.4453L121.391 25.6602C121.391 25.332 121.363 24.9036 121.309 24.375C121.272 23.8464 121.227 23.4727 121.172 23.2539C121.117 23.0169 121.026 22.7982 120.898 22.5977C120.771 22.3971 120.716 22.1875 120.734 21.9688L121.09 21.832C121.436 21.8685 121.701 21.9141 121.883 21.9688L122.184 22.0781L122.566 22.2422ZM136.156 26.3438L132.602 26.7812L132.328 27.1914C132.201 27.1914 132.027 27.0638 131.809 26.8086C131.717 26.5716 131.663 26.3893 131.645 26.2617L131.289 22.1875C131.253 21.8047 131.198 21.4948 131.125 21.2578C131.052 21.0208 130.988 20.8477 130.934 20.7383L130.688 20.4102L130.578 20.1094C130.615 19.9453 130.797 19.8724 131.125 19.8906L131.59 19.9727L132.027 20.1367L135.336 19.5352L136.184 19.3164C136.475 19.2435 136.676 19.1979 136.785 19.1797L137.004 19.125C137.168 19.1068 137.341 19.1523 137.523 19.2617C137.706 19.3711 137.934 19.4987 138.207 19.6445C138.48 19.7904 138.672 19.9362 138.781 20.082L138.863 20.6016C138.717 20.8021 138.608 20.9935 138.535 21.1758C138.48 21.3763 138.435 21.5677 138.398 21.75L137.523 25.9883C137.451 26.3346 137.286 26.599 137.031 26.7812C136.885 26.9089 136.703 26.9635 136.484 26.9453L136.211 26.7539L136.156 26.3438ZM132.492 23.0078L135.062 22.4062C135.354 22.3516 135.591 22.3151 135.773 22.2969L135.992 22.3242L136.594 22.543L136.758 20.8477C136.758 20.6289 136.703 20.4557 136.594 20.3281C136.503 20.237 136.311 20.1914 136.02 20.1914L132.355 20.7383L132.492 23.0078ZM136.594 23.2539L133.805 23.7461L133.203 23.8281H132.93L132.547 23.7188L132.656 25.7695L134.98 25.4141C135.254 25.3776 135.464 25.3594 135.609 25.3594L135.883 25.3867L136.266 25.5508L136.594 23.2539Z" fill="#333333"/>
<path d="M191.199 29.8711C191.035 29.8711 190.908 29.8346 190.816 29.7617C190.816 29.7617 190.771 29.7161 190.68 29.625C190.607 29.4792 190.388 29.0781 190.023 28.4219C189.677 27.7656 189.422 27.319 189.258 27.082C188.911 26.5716 188.738 26.2435 188.738 26.0977C188.738 25.8971 188.857 25.6055 189.094 25.2227C189.458 24.7122 189.704 24.3021 189.832 23.9922C190.069 23.5547 190.242 23.2174 190.352 22.9805C190.461 22.7253 190.507 22.5247 190.488 22.3789C190.47 22.2878 190.461 22.1875 190.461 22.0781C190.461 22.0052 190.479 21.9688 190.516 21.9688C190.552 21.9505 190.625 21.9596 190.734 21.9961C190.917 22.0508 191.126 22.1784 191.363 22.3789C191.418 22.4336 191.482 22.5065 191.555 22.5977C191.628 22.6888 191.673 22.7708 191.691 22.8438C191.728 22.8984 191.737 22.9622 191.719 23.0352C191.719 23.0898 191.691 23.1445 191.637 23.1992L191.5 23.3086C191.372 23.4727 191.227 23.6732 191.062 23.9102C190.898 24.1471 190.743 24.3659 190.598 24.5664L189.914 25.5508C189.732 25.806 189.641 25.9883 189.641 26.0977C189.641 26.1523 189.723 26.2982 189.887 26.5352L190.461 27.1641C191.008 27.7656 191.263 28.0482 191.227 28.0117C191.573 28.3581 191.746 28.6953 191.746 29.0234C191.746 29.5885 191.564 29.8711 191.199 29.8711ZM194.809 29.7891C194.645 29.7891 194.508 29.7617 194.398 29.707C194.198 29.5065 194.052 29.2695 193.961 28.9961L193.387 27.9844L192.84 27.0273C192.493 26.5534 192.32 26.2344 192.32 26.0703C192.32 25.8516 192.439 25.569 192.676 25.2227L193.113 24.5938C193.296 24.2839 193.396 24.1016 193.414 24.0469C193.596 23.6823 193.751 23.3633 193.879 23.0898C194.025 22.7982 194.089 22.5794 194.07 22.4336C194.052 22.3607 194.043 22.2695 194.043 22.1602C194.043 22.0143 194.125 21.9779 194.289 22.0508C194.526 22.1419 194.781 22.2878 195.055 22.4883C195.182 22.6159 195.264 22.7253 195.301 22.8164C195.355 22.8893 195.383 22.9896 195.383 23.1172C195.383 23.1536 195.319 23.2266 195.191 23.3359C195.064 23.4271 194.954 23.5273 194.863 23.6367C194.754 23.7461 194.508 24.0924 194.125 24.6758C194.052 24.7852 193.961 24.9128 193.852 25.0586C193.76 25.1862 193.642 25.3594 193.496 25.5781C193.314 25.8151 193.223 25.9883 193.223 26.0977C193.223 26.207 193.332 26.3711 193.551 26.5898C193.624 26.6628 193.697 26.7539 193.77 26.8633C193.861 26.9544 193.97 27.0638 194.098 27.1914L194.809 27.9844C195.155 28.2943 195.328 28.5951 195.328 28.8867C195.328 29.4883 195.155 29.7891 194.809 29.7891ZM195.164 38.8945C194.891 38.8945 194.626 38.694 194.371 38.293C194.043 37.7826 193.724 37.3633 193.414 37.0352L192.703 36.2969C192.32 36.7344 191.983 37.0807 191.691 37.3359C191.418 37.5911 191.072 37.8372 190.652 38.0742C189.868 38.5299 189.212 38.7578 188.684 38.7578C188.556 38.7578 188.492 38.7122 188.492 38.6211C188.492 38.5664 188.665 38.4479 189.012 38.2656C189.358 38.0833 189.686 37.8646 189.996 37.6094C190.78 36.9531 191.427 36.2786 191.938 35.5859C191.828 35.4766 191.281 35.0026 190.297 34.1641C190.169 34.0729 189.978 33.918 189.723 33.6992C189.668 33.6628 189.559 33.5807 189.395 33.4531C189.23 33.3255 189.148 33.2344 189.148 33.1797C189.148 33.0885 189.194 33.043 189.285 33.043C189.559 33.043 189.996 33.2344 190.598 33.6172C191.199 33.9818 191.828 34.4193 192.484 34.9297C192.74 34.6198 192.94 34.3281 193.086 34.0547C193.232 33.7812 193.396 33.444 193.578 33.043C193.669 32.8424 193.724 32.6693 193.742 32.5234C193.76 32.3594 193.77 32.2591 193.77 32.2227C193.77 32.0221 193.824 31.9219 193.934 31.9219C194.061 31.9219 194.234 32.0221 194.453 32.2227C194.836 32.5872 195.027 32.8333 195.027 32.9609C195.027 33.0339 194.982 33.1159 194.891 33.207C194.672 33.4258 194.471 33.7174 194.289 34.082C194.18 34.3008 193.979 34.6107 193.688 35.0117C193.596 35.1211 193.523 35.2214 193.469 35.3125C193.414 35.4036 193.359 35.4857 193.305 35.5586C193.724 35.8685 194.344 36.3971 195.164 37.1445C195.365 37.3268 195.492 37.5 195.547 37.6641C195.62 37.8099 195.656 38.0104 195.656 38.2656C195.656 38.4479 195.611 38.6029 195.52 38.7305C195.428 38.8398 195.31 38.8945 195.164 38.8945ZM197.242 29.2695C197.333 29.2695 197.47 29.3333 197.652 29.4609C197.634 29.4974 197.671 29.5703 197.762 29.6797C197.853 29.7708 197.917 29.8346 197.953 29.8711C198.044 29.9622 198.135 30.0716 198.227 30.1992C198.336 30.3268 198.454 30.4635 198.582 30.6094C198.91 30.9557 199.667 31.8581 200.852 33.3164C201.052 33.6081 201.152 33.7812 201.152 33.8359C201.152 34.0182 201.043 34.1094 200.824 34.1094C200.697 34.1094 200.56 34.0182 200.414 33.8359C200.068 33.4714 199.448 32.8971 198.555 32.1133C197.862 31.4753 197.233 30.9831 196.668 30.6367C196.395 30.5091 196.258 30.3633 196.258 30.1992C196.258 30.0716 196.395 29.8893 196.668 29.6523C196.923 29.3971 197.115 29.2695 197.242 29.2695ZM177.582 35.668L178.812 36.6523C179.25 36.9805 179.724 37.2904 180.234 37.582C180.727 37.8737 181.246 38.1198 181.793 38.3203C182.34 38.5391 182.914 38.7396 183.516 38.9219C184.117 39.0859 184.582 39.2044 184.91 39.2773L185.621 39.4688C185.767 39.5234 185.84 39.6602 185.84 39.8789L185.02 40.1523C184.327 40.3711 183.643 40.5352 182.969 40.6445C182.294 40.7539 181.839 40.8086 181.602 40.8086C181.182 40.8086 180.809 40.7357 180.48 40.5898C180.152 40.444 179.715 40.0521 179.168 39.4141L178.266 38.4297L177.473 37.3906L176.926 36.8164C176.598 37.2539 176.27 37.6458 175.941 37.9922C175.595 38.3385 175.076 38.694 174.383 39.0586C173.672 39.4232 172.997 39.6966 172.359 39.8789C171.703 40.043 171.165 40.125 170.746 40.125H170.227L170.035 40.043L170.145 39.8516L170.746 39.6055C171.111 39.4961 171.53 39.332 172.004 39.1133C172.514 38.8945 173.034 38.6029 173.562 38.2383C174.109 37.8737 174.538 37.5 174.848 37.1172C175.176 36.7526 175.413 36.4518 175.559 36.2148L175.941 35.668C175.759 35.4128 175.622 35.2122 175.531 35.0664L175.34 34.7383L174.547 33.7539C174.201 33.3529 173.945 33.0885 173.781 32.9609C173.617 32.8516 173.48 32.7786 173.371 32.7422L172.879 32.6328L172.824 32.2773L173.617 32.0586H173.918C174.173 32.1133 174.383 32.2044 174.547 32.332C174.711 32.4779 174.921 32.6875 175.176 32.9609L176.488 34.6289L176.789 33.8633C176.88 33.6445 176.98 33.2891 177.09 32.7969C177.199 32.3047 177.281 31.8216 177.336 31.3477C177.391 30.8555 177.427 30.4544 177.445 30.1445C177.464 29.9805 177.473 29.8346 177.473 29.707L177.445 29.4609C177.427 29.2604 177.382 29.069 177.309 28.8867L177.227 28.4492L176.188 28.6133C175.951 28.6862 175.732 28.7227 175.531 28.7227L174.465 28.5586C173.991 29.1784 173.608 29.6523 173.316 29.9805C173.025 30.3086 172.733 30.6003 172.441 30.8555L171.84 31.0742C171.84 30.9466 171.904 30.7917 172.031 30.6094C172.268 30.2266 172.56 29.7253 172.906 29.1055C173.253 28.4674 173.59 27.8021 173.918 27.1094C174.21 26.4349 174.51 25.6419 174.82 24.7305C175.13 23.819 175.349 23.1081 175.477 22.5977C175.604 22.0872 175.686 21.5768 175.723 21.0664C175.741 20.8112 175.723 20.6016 175.668 20.4375L175.613 20.1914L175.641 19.9453C175.714 19.8177 175.859 19.7357 176.078 19.6992L176.652 20.0273C176.98 20.2279 177.208 20.3919 177.336 20.5195C177.482 20.6289 177.618 20.7747 177.746 20.957L177.965 21.3125L177.801 21.832C177.655 22.0143 177.518 22.224 177.391 22.4609L176.98 23.3633L176.434 24.7852C176.033 25.7695 175.741 26.4076 175.559 26.6992L174.902 27.8477C175.54 27.7018 176.06 27.5742 176.461 27.4648C176.88 27.3555 177.418 27.1914 178.074 26.9727C178.767 26.7539 179.35 26.5534 179.824 26.3711C180.316 26.1888 180.663 26.0885 180.863 26.0703C181.155 26.0703 181.483 26.1523 181.848 26.3164C182.23 26.4622 182.513 26.6263 182.695 26.8086L182.941 27.1367C182.923 27.2643 182.814 27.3646 182.613 27.4375C182.431 27.5104 182.085 27.5469 181.574 27.5469C180.918 27.5469 179.97 27.6745 178.73 27.9297L177.965 28.0938L178.348 28.2031L178.84 28.3945C178.986 28.4857 179.132 28.6042 179.277 28.75L179.387 29.2695C179.241 29.5247 179.141 29.7799 179.086 30.0352L178.895 30.8555L178.676 32.25C178.621 32.5052 178.512 32.9245 178.348 33.5078C178.202 34.1094 178.074 34.5195 177.965 34.7383L177.582 35.668ZM168.777 27.3008L169.98 26.9727L170.801 26.7539C171.02 26.7357 171.229 26.7721 171.43 26.8633C171.721 26.9544 171.931 27.0547 172.059 27.1641L172.277 27.4375C172.277 27.5651 172.214 27.6745 172.086 27.7656C171.977 27.8568 171.776 27.9206 171.484 27.957L170.336 28.2305L168.586 28.5586L167.984 33.0703C168.477 32.9792 168.85 32.9154 169.105 32.8789C169.361 32.8242 169.57 32.7695 169.734 32.7148C169.898 32.6784 170.126 32.5964 170.418 32.4688C170.6 32.4323 170.773 32.4596 170.938 32.5508L171.32 32.7422C171.448 32.7969 171.612 32.8971 171.812 33.043C172.013 33.1706 172.168 33.2891 172.277 33.3984L172.441 33.6172C172.423 33.7266 172.378 33.8268 172.305 33.918C172.232 34.0273 172.132 34.2096 172.004 34.4648C171.895 34.7018 171.822 34.8932 171.785 35.0391L171.047 37.4727C171.375 37.7461 171.53 37.9648 171.512 38.1289C171.457 38.2383 171.238 38.3203 170.855 38.375C170.473 38.375 170.108 38.3932 169.762 38.4297L168.777 38.5664L167.355 38.7305L165.223 38.9492C165.223 39.0951 165.204 39.2409 165.168 39.3867C165.132 39.5326 165.013 39.6146 164.812 39.6328C164.667 39.6328 164.539 39.5781 164.43 39.4688C164.302 39.3411 164.22 39.1224 164.184 38.8125L163.91 36.2969C163.801 35.4401 163.682 34.8568 163.555 34.5469C163.427 34.2552 163.281 34.0182 163.117 33.8359L163.09 33.4531L163.582 33.3711L164.484 33.5625L166.699 33.2891L167.082 28.8047L164.949 29.0508C164.585 29.0872 164.211 29.1055 163.828 29.1055C163.445 29.1055 163.072 29.0508 162.707 28.9414C162.379 28.8503 162.215 28.7318 162.215 28.5859C162.215 28.4583 162.288 28.3581 162.434 28.2852L163.035 28.2305L163.801 28.1484C164.73 28.0573 165.296 27.9844 165.496 27.9297L167.137 27.6289L167.41 24.1289C167.428 23.6003 167.438 23.1719 167.438 22.8438V22.4336C167.401 22.069 167.355 21.8229 167.301 21.6953L167 21.0664L167.027 20.8477C167.137 20.7383 167.283 20.6836 167.465 20.6836L168.121 20.8477C168.413 20.957 168.668 21.0664 168.887 21.1758C169.087 21.2852 169.288 21.4219 169.488 21.5859L169.816 21.9414V22.2969C169.78 22.4062 169.716 22.543 169.625 22.707C169.534 22.8893 169.452 23.0807 169.379 23.2812C169.306 23.4818 169.251 23.8008 169.215 24.2383L168.777 27.3008ZM165.223 37.9648L167.219 37.6641L168.121 37.4727C168.686 37.3451 169.178 37.2539 169.598 37.1992L170.145 34.6562C170.199 34.3828 170.217 34.1549 170.199 33.9727C170.181 33.8633 170.053 33.7357 169.816 33.5898H169.543C169.251 33.5898 168.85 33.6263 168.34 33.6992L164.977 34.2461L165.223 37.9648Z" fill="#333333"/>
<path d="M230.52 35.5312C230.392 35.5312 230.31 35.5221 230.273 35.5039C230.255 35.4674 230.283 35.4036 230.355 35.3125C230.611 35.0755 230.811 34.8477 230.957 34.6289C231.121 34.3919 231.294 34.0182 231.477 33.5078C231.768 32.6693 231.914 32.0221 231.914 31.5664C231.914 31.1471 231.887 30.7643 231.832 30.418V30.3359C231.832 30.1354 231.96 30.0716 232.215 30.1445C232.434 30.1992 232.68 30.2721 232.953 30.3633C233.008 30.3451 233.09 30.3359 233.199 30.3359C233.309 30.3177 233.482 30.2904 233.719 30.2539C234.339 30.1628 235.141 30.0716 236.125 29.9805C236.125 29.9076 236.198 29.6523 236.344 29.2148L236.508 28.6133C236.581 28.3581 236.553 28.2305 236.426 28.2305C236.061 28.2305 235.214 28.3216 233.883 28.5039L232.434 28.75C232.306 28.7682 232.142 28.7135 231.941 28.5859C231.759 28.4583 231.613 28.3125 231.504 28.1484C231.413 27.9844 231.431 27.875 231.559 27.8203C231.704 27.7292 231.85 27.6836 231.996 27.6836C232.142 27.6836 232.233 27.6836 232.27 27.6836H232.625L234.43 27.6289L236.18 27.4102C236.271 27.3919 236.38 27.3646 236.508 27.3281C236.654 27.2734 236.79 27.237 236.918 27.2188C237.1 27.1823 237.41 27.3828 237.848 27.8203C237.921 27.8932 237.957 27.9753 237.957 28.0664C237.957 28.1758 237.884 28.2852 237.738 28.3945C237.538 28.5951 237.41 28.7682 237.355 28.9141C237.337 29.0052 237.301 29.1419 237.246 29.3242C237.191 29.4883 237.137 29.6979 237.082 29.9531C237.191 30.0807 237.246 30.2357 237.246 30.418C237.246 30.5638 237.201 30.6732 237.109 30.7461C237.036 30.8008 236.882 30.8281 236.645 30.8281C235.824 30.8828 235.177 30.9375 234.703 30.9922C234.229 31.0286 233.655 31.1198 232.98 31.2656C232.908 32.0859 232.743 32.8424 232.488 33.5352C232.233 34.2096 231.878 34.7201 231.422 35.0664C230.984 35.3763 230.684 35.5312 230.52 35.5312ZM239.242 25.168C239.333 25.168 239.47 25.2318 239.652 25.3594C239.634 25.3958 239.671 25.4688 239.762 25.5781C239.853 25.6693 239.917 25.7331 239.953 25.7695C240.044 25.8607 240.135 25.9701 240.227 26.0977C240.336 26.2253 240.454 26.362 240.582 26.5078C240.91 26.8542 241.667 27.7565 242.852 29.2148C243.052 29.5065 243.152 29.6797 243.152 29.7344C243.152 29.9167 243.043 30.0078 242.824 30.0078C242.697 30.0078 242.56 29.9167 242.414 29.7344C242.068 29.3698 241.448 28.7956 240.555 28.0117C239.862 27.3737 239.233 26.8815 238.668 26.5352C238.395 26.4076 238.258 26.2617 238.258 26.0977C238.258 25.9701 238.395 25.7878 238.668 25.5508C238.923 25.2956 239.115 25.168 239.242 25.168ZM214.688 21.2852C214.688 20.9388 214.669 20.6471 214.633 20.4102C214.596 20.1732 214.542 19.918 214.469 19.6445C214.396 19.3529 214.286 19.0703 214.141 18.7969L213.977 18.3047C214.049 18.1406 214.268 18.0312 214.633 17.9766C214.961 18.013 215.253 18.0677 215.508 18.1406L216.219 18.4414C216.474 18.569 216.674 18.7148 216.82 18.8789C216.984 19.0247 217.076 19.1615 217.094 19.2891C217.094 19.4167 217.057 19.5898 216.984 19.8086L216.82 20.2461L216.602 21.1211L220.566 20.7109C220.986 20.6745 221.523 20.6107 222.18 20.5195C222.818 20.4284 223.355 20.3372 223.793 20.2461C224.23 20.1732 224.549 20.1367 224.75 20.1367C225.042 20.1367 225.388 20.1914 225.789 20.3008C226.172 20.4284 226.509 20.5651 226.801 20.7109C227.111 20.8385 227.311 21.0208 227.402 21.2578V21.4766C227.348 21.6042 227.247 21.6862 227.102 21.7227C226.938 21.7773 226.737 21.8047 226.5 21.8047C226.19 21.7865 225.57 21.7773 224.641 21.7773L222.918 21.75L221.168 21.832L219.609 21.8867L216.438 22.1602L216.273 23.9922C217.039 23.8828 217.714 23.7826 218.297 23.6914C218.88 23.582 219.29 23.5091 219.527 23.4727L220.211 23.3633C220.43 23.3086 220.594 23.2721 220.703 23.2539C220.885 23.2539 221.122 23.3177 221.414 23.4453C221.706 23.5547 221.97 23.6732 222.207 23.8008C222.444 23.9466 222.654 24.0924 222.836 24.2383C223 24.4023 223.091 24.5391 223.109 24.6484C223.109 24.776 223.073 24.8945 223 25.0039L222.508 25.332C222.398 25.4049 222.216 25.5872 221.961 25.8789L221.551 26.3711L221.168 26.918L221.66 27.3555C221.678 27.5378 221.505 27.6471 221.141 27.6836L220.348 27.7109L219.555 27.793L216.137 28.1484L216.109 29.9258L217.613 29.7891L218.461 29.6523L219.637 29.4336C219.947 29.3971 220.247 29.3151 220.539 29.1875L221.059 28.9961C221.223 28.9961 221.387 29.0143 221.551 29.0508C221.697 29.0872 221.87 29.1419 222.07 29.2148C222.289 29.306 222.508 29.4154 222.727 29.543C222.945 29.6888 223.155 29.8529 223.355 30.0352L223.574 30.6367L223.082 31.3203L222.781 31.9766C223.438 31.8854 223.984 31.8125 224.422 31.7578C224.768 31.7031 225.087 31.6758 225.379 31.6758C225.689 31.7122 225.953 31.7669 226.172 31.8398L226.992 32.168C227.32 32.3138 227.548 32.4505 227.676 32.5781C227.803 32.7057 227.867 32.8333 227.867 32.9609C227.831 33.0885 227.74 33.1888 227.594 33.2617C227.448 33.3346 227.266 33.3711 227.047 33.3711H226.199L224.586 33.3164L222.344 33.2617L221.578 35.6133L222.098 35.832C222.225 35.9049 222.298 36.0234 222.316 36.1875C222.316 36.3333 222.143 36.4154 221.797 36.4336L220.703 36.5156L218.926 36.5977L216.137 36.8164L216.273 39.5508V40.918C216.237 41.3008 216.173 41.6562 216.082 41.9844C215.973 42.3125 215.799 42.6497 215.562 42.9961C215.326 43.3242 215.043 43.4974 214.715 43.5156C214.587 43.4792 214.46 43.3971 214.332 43.2695L213.785 42.5039C213.512 42.1576 213.266 41.8659 213.047 41.6289C212.828 41.3737 212.536 41.0911 212.172 40.7812L211.789 40.4258L211.707 40.043L211.98 40.0156L212.582 40.1797C213.257 40.3802 213.685 40.4987 213.867 40.5352C214.031 40.5352 214.159 40.4987 214.25 40.4258C214.359 40.3529 214.441 40.1523 214.496 39.8242C214.551 39.4961 214.596 39.1315 214.633 38.7305L214.688 36.9258L213.047 37.0898C212.536 37.1263 212.099 37.181 211.734 37.2539C211.461 37.2904 211.224 37.3086 211.023 37.3086C210.805 37.3086 210.513 37.263 210.148 37.1719C209.802 37.0807 209.592 36.9805 209.52 36.8711L209.383 36.5156C209.456 36.4245 209.62 36.3607 209.875 36.3242L214.688 35.8594L214.797 33.6719L211.133 34.1641C210.549 34.2552 210.057 34.3281 209.656 34.3828C209.237 34.4557 208.809 34.5378 208.371 34.6289C207.952 34.7201 207.642 34.7656 207.441 34.7656C207.241 34.7656 207.049 34.7383 206.867 34.6836C206.685 34.6107 206.466 34.5104 206.211 34.3828C205.992 34.2552 205.81 34.1185 205.664 33.9727L205.473 33.6992C205.509 33.5898 205.664 33.526 205.938 33.5078L207.086 33.4531C207.451 33.4349 208.052 33.3984 208.891 33.3438C209.747 33.2708 210.531 33.1979 211.242 33.125C211.935 33.0521 212.591 32.9701 213.211 32.8789L214.797 32.6875L214.852 31.1289L211.734 31.5664C211.333 31.6211 210.978 31.6484 210.668 31.6484C210.358 31.6302 210.076 31.5846 209.82 31.5117C209.565 31.4023 209.374 31.2747 209.246 31.1289L209.191 30.8008C209.428 30.7279 209.911 30.6549 210.641 30.582L214.797 30.1172L214.824 28.2852L212.719 28.4766L212.062 28.5312L211.625 28.5859L211.461 29.0508L211.188 29.2148C211.078 29.1966 210.969 29.1237 210.859 28.9961C210.732 28.8503 210.641 28.6497 210.586 28.3945L210.121 26.2891C210.066 26.0521 210.003 25.8607 209.93 25.7148C209.857 25.569 209.738 25.4232 209.574 25.2773C209.428 25.1315 209.31 24.9492 209.219 24.7305L209.355 24.5391L209.766 24.5117C210.039 24.5482 210.24 24.5846 210.367 24.6211L211.023 24.7852L214.852 24.1836L214.742 22.2422L211.789 22.543C211.497 22.5794 211.023 22.6523 210.367 22.7617L209.055 23.0352C208.362 23.181 207.797 23.3086 207.359 23.418C206.922 23.5273 206.603 23.582 206.402 23.582C206.111 23.582 205.755 23.4909 205.336 23.3086C204.826 23.1263 204.516 22.9531 204.406 22.7891L204.242 22.5156C204.279 22.3516 204.406 22.2695 204.625 22.2695L205.719 22.2422C206.247 22.224 206.94 22.1602 207.797 22.0508L209.602 21.832L212.336 21.5312L214.688 21.2852ZM214.852 27.3281L214.824 25.0586C213.895 25.2044 213.202 25.3229 212.746 25.4141C212.29 25.5052 211.953 25.5872 211.734 25.6602L211.27 25.7695L211.516 27.6289L214.852 27.3281ZM216.164 35.6953C216.766 35.6406 217.221 35.5951 217.531 35.5586L218.953 35.3672L220.047 35.2852L220.594 33.3438L216.109 33.5898L216.164 35.6953ZM216.109 32.5781L220.867 32.2227C220.94 31.931 220.995 31.6576 221.031 31.4023C221.031 31.1471 220.977 30.9466 220.867 30.8008C220.721 30.6914 220.512 30.6185 220.238 30.582C220.038 30.5638 219.846 30.5729 219.664 30.6094C219.336 30.6641 218.98 30.7096 218.598 30.7461C218.215 30.7826 217.85 30.819 217.504 30.8555L216.164 31.0469L216.109 32.5781ZM216.164 27.1914C216.766 27.1185 217.294 27.0456 217.75 26.9727C218.206 26.918 218.552 26.8633 218.789 26.8086L219.828 26.6445L220.102 25.4688L220.156 25.1133L220.129 24.8672C220.074 24.7396 219.974 24.6576 219.828 24.6211C219.719 24.5846 219.5 24.5664 219.172 24.5664L218.516 24.6211L216.219 24.8398L216.164 27.1914Z" fill="#333333"/>
<path d="M278.316 30.0352C278.189 30.0352 278.052 29.9531 277.906 29.7891C277.797 29.6615 277.724 29.5612 277.688 29.4883C277.651 29.3971 277.651 29.2786 277.688 29.1328L277.715 28.4766C277.733 28.349 277.742 28.0391 277.742 27.5469V26.6445L276.922 27.0273L275.965 27.4375C275.728 27.5286 275.482 27.638 275.227 27.7656C275.008 27.875 274.816 27.9297 274.652 27.9297C274.525 27.9115 274.379 27.8659 274.215 27.793C274.051 27.7201 273.923 27.6562 273.832 27.6016C273.632 27.474 273.54 27.3372 273.559 27.1914L273.641 26.918C273.641 26.7721 273.65 26.6445 273.668 26.5352L273.695 24.9492V23.4727C273.695 23.181 273.677 22.9349 273.641 22.7344C273.604 22.5156 273.577 22.3607 273.559 22.2695C273.559 22.1784 273.586 22.1146 273.641 22.0781C273.659 22.0599 273.704 22.0508 273.777 22.0508C273.905 22.0508 274.151 22.1328 274.516 22.2969C274.826 22.4427 274.953 22.625 274.898 22.8438C274.862 22.9714 274.826 23.1628 274.789 23.418L274.707 26.5625C274.707 26.6536 274.716 26.7266 274.734 26.7812C274.771 26.8177 274.807 26.8359 274.844 26.8359C275.062 26.8359 275.327 26.7721 275.637 26.6445C276.22 26.4622 276.721 26.2799 277.141 26.0977L277.742 25.8516V24.0469C277.742 23.3177 277.697 22.6159 277.605 21.9414C277.587 21.8867 277.578 21.8229 277.578 21.75C277.578 21.5677 277.651 21.4766 277.797 21.4766C277.815 21.4766 277.915 21.513 278.098 21.5859C278.371 21.7318 278.572 21.8594 278.699 21.9688C278.827 22.0781 278.9 22.1419 278.918 22.1602C278.991 22.2148 279.027 22.2695 279.027 22.3242C279.027 22.3607 279.009 22.4062 278.973 22.4609C278.954 22.5156 278.936 22.5612 278.918 22.5977L278.836 23.418L278.809 25.9336L278.836 28.3672C278.836 28.7865 278.809 29.151 278.754 29.4609C278.663 29.8438 278.517 30.0352 278.316 30.0352ZM273.285 36.1602C273.085 36.1602 272.839 36.0052 272.547 35.6953C272.328 35.4766 272.219 35.3125 272.219 35.2031C272.219 35.1484 272.255 35.1211 272.328 35.1211C272.401 35.1029 272.492 35.0938 272.602 35.0938L273.203 35.0664C273.549 35.0664 273.777 35.0573 273.887 35.0391C274.233 35.0391 274.525 35.0299 274.762 35.0117C276.329 34.8659 277.387 34.7474 277.934 34.6562C278.207 34.6198 278.453 34.5833 278.672 34.5469C278.891 34.4922 279.064 34.4648 279.191 34.4648C279.447 34.4648 279.702 34.5924 279.957 34.8477C280.158 35.0482 280.258 35.2122 280.258 35.3398C280.258 35.4492 280.194 35.5221 280.066 35.5586C279.975 35.5768 279.438 35.6133 278.453 35.668C277.906 35.6862 277.232 35.7318 276.43 35.8047C275.628 35.8776 274.926 35.9505 274.324 36.0234C274.215 36.0417 274.06 36.069 273.859 36.1055C273.659 36.1419 273.467 36.1602 273.285 36.1602ZM284.742 27.082C284.961 27.082 285.07 27.1823 285.07 27.3828C285.07 27.4922 284.97 27.6471 284.77 27.8477C284.223 28.5221 283.138 29.8073 281.516 31.7031C281.388 31.8672 281.27 31.9492 281.16 31.9492C281.069 31.9492 280.868 31.8125 280.559 31.5391C280.303 31.3203 280.176 31.138 280.176 30.9922C280.176 30.8281 280.312 30.6732 280.586 30.5273C281.005 30.2904 281.634 29.8164 282.473 29.1055C283.311 28.3581 283.931 27.7656 284.332 27.3281C284.496 27.1641 284.633 27.082 284.742 27.082ZM259.477 34.7109L259.23 40.207C259.212 40.5898 259.185 40.9362 259.148 41.2461C259.13 41.5742 259.085 41.8659 259.012 42.1211C258.957 42.3945 258.857 42.6224 258.711 42.8047L258.301 43.0508L258 42.7773C257.872 42.5951 257.772 42.4128 257.699 42.2305C257.626 42.0482 257.553 41.8112 257.48 41.5195C257.426 41.2461 257.398 41.0182 257.398 40.8359L257.508 40.3711C257.599 40.0977 257.681 39.7604 257.754 39.3594C257.809 38.9583 257.854 38.5664 257.891 38.1836L257.945 37.4453L258.082 34.8203L257.727 34.875C257.581 34.8932 256.979 34.9753 255.922 35.1211L253.926 35.3945C253.652 35.431 253.096 35.5404 252.258 35.7227L251.164 35.9414C250.836 36.0143 250.599 36.0508 250.453 36.0508C250.289 36.0326 250.089 35.9779 249.852 35.8867C249.633 35.7773 249.396 35.6497 249.141 35.5039C248.867 35.3581 248.676 35.2214 248.566 35.0938L248.402 34.793C248.421 34.6471 248.576 34.5651 248.867 34.5469L249.332 34.5195L250.836 34.4648C251.164 34.4466 251.839 34.3919 252.859 34.3008L255.867 34.0273C256.469 33.9909 256.997 33.9544 257.453 33.918L258.027 33.8633C258.009 33.6445 258 33.444 258 33.2617C257.964 33.0794 257.909 32.9062 257.836 32.7422L257.535 31.9766C257.59 31.849 257.699 31.7669 257.863 31.7305C258.009 31.7305 258.173 31.7487 258.355 31.7852C258.611 31.8581 258.839 31.931 259.039 32.0039C259.258 32.0768 259.458 32.1953 259.641 32.3594L259.832 32.9062L259.613 33.3438L259.531 33.7266C259.932 33.6901 260.534 33.6445 261.336 33.5898C262.138 33.5169 262.612 33.4714 262.758 33.4531L264.781 33.207C265.474 33.1341 265.984 33.0521 266.312 32.9609L266.859 32.8242C267.096 32.8242 267.361 32.8789 267.652 32.9883C267.926 33.0977 268.208 33.2253 268.5 33.3711C268.755 33.5169 268.965 33.6719 269.129 33.8359L269.32 34.1641C269.32 34.2917 269.238 34.3828 269.074 34.4375C268.91 34.5104 268.591 34.556 268.117 34.5742L266.586 34.6289C266.385 34.6289 265.939 34.6198 265.246 34.6016H264.535C264.079 34.6016 263.633 34.6107 263.195 34.6289L260.625 34.7109H259.477ZM261.828 36.8438L261.281 36.1875L261.5 36.0508L262.211 36.2695C262.594 36.3789 263.013 36.5521 263.469 36.7891C263.906 37.0078 264.389 37.2812 264.918 37.6094C265.447 37.9375 265.866 38.2565 266.176 38.5664C266.467 38.8581 266.714 39.1953 266.914 39.5781C267.096 39.9245 267.188 40.3073 267.188 40.7266C267.188 41.1823 267.042 41.4922 266.75 41.6562C266.495 41.6562 266.167 41.4831 265.766 41.1367C265.474 40.918 265.118 40.5716 264.699 40.0977L263.578 38.7578L262.621 37.6914C262.348 37.3633 262.083 37.0807 261.828 36.8438ZM253.734 31.7031C253.698 31.9583 253.661 32.1406 253.625 32.25C253.589 32.3594 253.516 32.487 253.406 32.6328L252.914 32.7695C252.677 32.5508 252.495 32.2773 252.367 31.9492C252.258 31.6576 252.167 31.3932 252.094 31.1562L252.012 30.6914C252.03 30.5638 252.094 30.3633 252.203 30.0898C252.312 29.7982 252.385 29.543 252.422 29.3242C252.458 29.1055 252.495 28.7227 252.531 28.1758C252.604 27.6289 252.641 27.2734 252.641 27.1094L252.723 24.1562L251.875 25.2227C251.583 25.5508 251.191 25.9245 250.699 26.3438C250.207 26.763 249.724 27.1458 249.25 27.4922C248.758 27.8385 248.393 28.0664 248.156 28.1758L246.926 28.5586C246.926 28.431 246.99 28.3034 247.117 28.1758L247.637 27.7656C247.746 27.6745 248.092 27.3555 248.676 26.8086C249.259 26.2617 249.706 25.8242 250.016 25.4961C250.344 25.168 250.745 24.6849 251.219 24.0469C251.693 23.4271 252.076 22.8529 252.367 22.3242C252.695 21.7773 252.978 21.2214 253.215 20.6562C253.452 20.0911 253.579 19.6719 253.598 19.3984L253.816 18.7422C253.926 18.724 254.062 18.7695 254.227 18.8789C254.482 19.0247 254.682 19.1523 254.828 19.2617C254.956 19.3711 255.111 19.526 255.293 19.7266C255.475 19.9271 255.603 20.1094 255.676 20.2734L255.73 20.6562L255.43 20.9023L254.992 21.2852C254.865 21.431 254.719 21.6133 254.555 21.832L254.145 22.3789C254.491 22.3607 254.737 22.3424 254.883 22.3242C255.029 22.3242 255.284 22.2969 255.648 22.2422L258.328 21.9414C258.966 21.8503 259.577 21.7591 260.16 21.668C260.725 21.5586 261.327 21.431 261.965 21.2852C262.603 21.1393 263.159 20.9844 263.633 20.8203C264.107 20.6745 264.435 20.6016 264.617 20.6016C264.763 20.6198 264.973 20.6654 265.246 20.7383C265.52 20.8112 265.747 20.9115 265.93 21.0391L266.148 21.4219L265.875 21.668C265.693 21.7773 265.401 21.8867 265 21.9961C264.581 22.1055 263.988 22.2148 263.223 22.3242C262.439 22.4518 261.81 22.543 261.336 22.5977L259.777 22.8164C259.996 22.8893 260.169 22.9805 260.297 23.0898C260.443 23.181 260.525 23.2904 260.543 23.418L260.406 23.9375L260.297 24.4844C260.589 24.4297 260.953 24.3659 261.391 24.293C261.828 24.2201 262.211 24.1654 262.539 24.1289C262.849 24.056 263.095 24.0104 263.277 23.9922C263.46 23.974 263.633 23.9557 263.797 23.9375C263.961 23.9375 264.125 23.9557 264.289 23.9922C264.471 24.0286 264.654 24.0742 264.836 24.1289C265.036 24.2018 265.191 24.2839 265.301 24.375L265.492 24.5938C265.492 24.7578 265.41 24.849 265.246 24.8672L264.398 24.9766C264.18 25.013 263.688 25.0859 262.922 25.1953C262.138 25.3229 261.555 25.4049 261.172 25.4414L260.215 25.5508L260.16 27.1914C260.689 27.1185 261.199 27.0365 261.691 26.9453C262.184 26.8724 262.585 26.8177 262.895 26.7812C263.204 26.7266 263.478 26.6992 263.715 26.6992C263.897 26.7174 264.07 26.7448 264.234 26.7812C264.398 26.7995 264.581 26.8451 264.781 26.918C264.964 26.9909 265.109 27.0638 265.219 27.1367C265.328 27.2461 265.346 27.401 265.273 27.6016L264.125 27.793L262.758 28.0117L261.418 28.1484L260.105 28.2852L260.051 29.8984C260.434 29.8438 260.689 29.8164 260.816 29.8164C260.944 29.7982 261.391 29.7435 262.156 29.6523C262.922 29.543 263.441 29.4518 263.715 29.3789L264.207 29.2695C264.371 29.2695 264.608 29.306 264.918 29.3789C265.21 29.4701 265.456 29.5612 265.656 29.6523C265.875 29.7253 266.094 29.8346 266.312 29.9805L266.641 30.2539C266.641 30.418 266.549 30.5456 266.367 30.6367C266.185 30.7461 265.93 30.8008 265.602 30.8008L264.289 30.9102H263.195C262.503 30.9102 261.719 30.9466 260.844 31.0195C259.987 31.0742 259.294 31.1289 258.766 31.1836L256.359 31.457L253.734 31.7031ZM253.789 30.6641L258.82 30.0625V28.4492C258.346 28.5221 257.891 28.5768 257.453 28.6133C257.016 28.6862 256.487 28.7318 255.867 28.75C255.612 28.7682 255.393 28.7773 255.211 28.7773C254.938 28.7773 254.737 28.7591 254.609 28.7227L253.844 28.6133L253.789 30.6641ZM253.898 27.875C254.263 27.8568 254.746 27.8203 255.348 27.7656C255.949 27.7109 256.533 27.6471 257.098 27.5742L258.848 27.3281L258.875 25.7695L257.891 25.9062C257.49 25.9609 256.979 26.043 256.359 26.1523C255.758 26.2617 255.366 26.3164 255.184 26.3164C255.02 26.3164 254.846 26.2982 254.664 26.2617L253.953 26.1523L253.898 27.875ZM253.98 25.2227C254.4 25.2227 254.846 25.2044 255.32 25.168C255.794 25.1315 256.141 25.1042 256.359 25.0859C256.578 25.0677 257.216 24.9766 258.273 24.8125L258.82 24.7305C258.802 24.4206 258.775 24.1654 258.738 23.9648L258.684 23.582L258.41 22.9805C257.863 23.0534 257.371 23.1263 256.934 23.1992C256.478 23.2539 256.049 23.3086 255.648 23.3633C255.448 23.3815 255.257 23.3906 255.074 23.3906C254.91 23.3906 254.746 23.3815 254.582 23.3633L253.898 23.2539C254.008 23.5456 254.081 23.7643 254.117 23.9102C254.154 24.056 254.172 24.1927 254.172 24.3203L254.062 24.7852L253.98 25.2227ZM258.164 19.125L257.945 18.4688L258.164 18.332L258.711 18.4961C259.057 18.6055 259.349 18.7331 259.586 18.8789C259.823 19.0247 260.023 19.1706 260.188 19.3164C260.352 19.4622 260.47 19.6263 260.543 19.8086C260.579 19.9362 260.598 20.1367 260.598 20.4102C260.543 20.7747 260.452 21.0482 260.324 21.2305C260.178 21.3763 260.014 21.4583 259.832 21.4766C259.65 21.4766 259.458 21.3581 259.258 21.1211C259.148 20.9753 259.021 20.7747 258.875 20.5195L258.52 19.8906C258.428 19.7266 258.31 19.4714 258.164 19.125ZM249.906 41.1641L250.535 40.7539C250.645 40.681 250.964 40.444 251.492 40.043C252.039 39.6419 252.44 39.332 252.695 39.1133C252.951 38.8945 253.242 38.6029 253.57 38.2383C253.898 37.8737 254.126 37.5729 254.254 37.3359C254.382 37.099 254.473 36.8893 254.527 36.707L254.609 36.3516L254.828 36.1328C254.956 36.1146 255.083 36.151 255.211 36.2422C255.32 36.3333 255.521 36.5339 255.812 36.8438C256.104 37.1719 256.305 37.4453 256.414 37.6641L256.496 37.9102L256.441 38.1562C256.35 38.2474 256.232 38.3203 256.086 38.375C255.904 38.4297 255.703 38.5299 255.484 38.6758C255.266 38.7852 254.919 39.013 254.445 39.3594C253.935 39.7057 253.57 39.9427 253.352 40.0703C253.133 40.1979 252.741 40.4076 252.176 40.6992C251.611 40.9909 251.219 41.1732 251 41.2461L249.934 41.6016L249.688 41.5195C249.688 41.3919 249.76 41.2734 249.906 41.1641Z" fill="#333333"/>
</svg>
