<svg xmlns="http://www.w3.org/2000/svg" width="340" height="60" fill="none"><path fill="#333" d="M114.52 30.61a.684.684 0 0 1-.247-.028c-.018-.036.01-.1.082-.191.256-.237.456-.465.602-.684.164-.237.337-.61.52-1.121.291-.839.437-1.486.437-1.941 0-.42-.027-.803-.082-1.149v-.082c0-.2.128-.264.383-.191.219.054.465.127.738.218a.833.833 0 0 1 .246-.027c.11-.018.283-.046.52-.082a46.97 46.97 0 0 1 2.406-.273c0-.073.073-.329.219-.766l.164-.602c.073-.255.045-.382-.082-.382-.365 0-1.212.09-2.543.273l-1.449.246c-.128.018-.292-.036-.493-.164a1.66 1.66 0 0 1-.437-.437c-.091-.165-.073-.274.055-.329a.816.816 0 0 1 .437-.136h.629l1.805-.055 1.75-.219c.091-.018.2-.045.328-.082.146-.054.282-.09.41-.11.182-.036.492.165.93.602a.34.34 0 0 1 .109.247c0 .109-.073.218-.219.328-.2.2-.328.373-.383.52a4.715 4.715 0 0 1-.109.41 6.066 6.066 0 0 0-.164.628.692.692 0 0 1 .164.465c0 .146-.045.255-.137.328-.073.055-.227.082-.464.082-.821.055-1.468.11-1.942.164-.474.037-1.048.128-1.723.274a8.763 8.763 0 0 1-.492 2.27c-.255.674-.61 1.184-1.066 1.53-.438.31-.738.465-.902.465Zm.601 9.078c-.273 0-.483-.073-.629-.22-.164-.163-.246-.31-.246-.437s.073-.264.219-.41c.018-.018.118-.164.301-.437a34.91 34.91 0 0 0 1.367-2.434c.528-1.003.857-1.686.984-2.05.11-.347.21-.648.301-.903.109-.255.2-.383.273-.383a.45.45 0 0 1 .329.137c.091.073.182.182.273.328.109.128.191.219.246.273.128.146.191.283.191.41a.437.437 0 0 1-.109.274 1.45 1.45 0 0 0-.137.191l-1.203 2.024c-.31.565-.72 1.267-1.23 2.105a.438.438 0 0 0-.11.274c0 .073.082.11.247.11.346 0 .993-.037 1.941-.11.948-.091 1.586-.164 1.914-.22.474-.054.802-.108.984-.163.201-.055.493.082.875.41.456.383.556.629.301.738-.146.073-.428.11-.848.11h-1.093c-.237 0-.611.018-1.121.054-.31 0-.657.01-1.039.028-.383.018-.702.036-.957.054-.292.019-.857.073-1.696.164l-.328.083ZM90.156 41.82c-.255 0-.465.01-.629.028-.164.018-.3.027-.41.027-.383 0-.693-.128-.93-.383a2.49 2.49 0 0 1-.519-.82c-.091-.292-.137-.474-.137-.547 0-.11.064-.164.192-.164.073 0 .136.01.191.027.456.11.966.164 1.531.164l9.243-.273v-5.633l-4.102.164-.684.028c-.383 0-.62-.046-.71-.137a2.464 2.464 0 0 1-.63-.739c-.145-.291-.218-.51-.218-.656 0-.11.054-.164.164-.164.073 0 .136.01.191.028.401.09.766.136 1.094.136h.219l4.675-.218.028-4.649-5.113.273c-.584 1.04-1.158 1.905-1.723 2.598-.547.693-1.02 1.203-1.422 1.531-.401.328-.647.493-.738.493-.073 0-.11-.046-.11-.137 0-.164.092-.392.274-.684a26.402 26.402 0 0 0 1.832-3.418A30.34 30.34 0 0 0 93 25.305c.328-1.021.492-1.75.492-2.188 0-.2-.009-.346-.027-.437a.713.713 0 0 1-.028-.22c0-.2.092-.3.274-.3.11.018.328.082.656.192.328.09.638.218.93.382.291.164.437.347.437.547 0 .091-.145.52-.437 1.285a25.542 25.542 0 0 1-.903 2.16l4.32-.245v-5.333c0-.528-.136-.993-.41-1.394-.072-.128-.109-.228-.109-.3 0-.128.1-.192.301-.192.11 0 .337.045.684.136.346.073.665.192.957.356.31.164.465.364.465.601l-.028 6.016 4.813-.273a5.666 5.666 0 0 0 1.23-.246.47.47 0 0 1 .192-.028c.218 0 .528.173.929.52.401.328.602.601.602.82 0 .219-.228.346-.684.383l-7.082.383-.027 4.675 3.828-.19c.401-.037.766-.11 1.094-.22a.38.38 0 0 1 .164-.027c.091 0 .255.082.492.246.255.146.474.32.656.52.201.2.301.392.301.574 0 .11-.055.2-.164.273a.733.733 0 0 1-.383.137h-.055l-5.933.246-.027 5.66 8.613-.246c.383 0 .802-.082 1.258-.246a.467.467 0 0 1 .191-.027c.201 0 .419.1.656.3.255.183.474.392.657.63.2.236.3.41.3.519 0 .237-.218.374-.656.41l-21.383.656ZM156.273 26.781c-.018 0-.082.018-.191.055-.091.018-.137-.01-.137-.082 0-.018.037-.055.11-.11l.191-.19c.055-.056.137-.128.246-.22.11-.109.192-.218.246-.328a4.84 4.84 0 0 0 .574-1.367l.165-.957c.127-.71.182-1.54.164-2.488 0-.219-.028-.447-.082-.684-.019-.11-.11-.264-.274-.465v-.027c0-.037.046-.055.137-.055.127 0 .237.01.328.028.237.054.501.082.793.082.31-.019.501-.028.574-.028l1.832-.136c.365-.037.602-.055.711-.055.784-.11 1.139-.155 1.067-.137.419-.073.674-.11.765-.11.292.019.584.247.875.684l.055.137c0 .11-.082.173-.246.192a4.129 4.129 0 0 1-.301.027c-.565 0-.984.009-1.258.027-.693 0-1.203.01-1.531.028l-.766.054-1.558.164c-.11 1.532-.21 2.534-.301 3.008-.146.857-.428 1.55-.848 2.078-.31.401-.756.693-1.34.875Zm6.891 7.739c-.273 0-.538-.201-.793-.602a8.639 8.639 0 0 0-.957-1.258l-.711-.738c-.383.437-.72.784-1.012 1.039a5.413 5.413 0 0 1-1.039.738c-.784.456-1.44.684-1.968.684-.128 0-.192-.046-.192-.137 0-.055.173-.173.52-.355.346-.183.674-.401.984-.657.784-.656 1.431-1.33 1.942-2.023-.11-.11-.657-.583-1.641-1.422a9.152 9.152 0 0 1-.574-.465 6.941 6.941 0 0 1-.328-.246c-.165-.127-.247-.219-.247-.273 0-.091.046-.137.137-.137.274 0 .711.191 1.313.574.601.365 1.23.802 1.886 1.313.256-.31.456-.602.602-.875.146-.274.31-.611.492-1.012.091-.2.146-.374.164-.52.018-.164.028-.264.028-.3 0-.2.054-.301.164-.301.127 0 .3.1.519.3.383.365.574.611.574.739 0 .073-.045.155-.136.246-.219.219-.42.51-.602.875-.109.219-.31.529-.601.93-.092.11-.165.21-.219.3-.055.092-.11.174-.164.247.419.31 1.039.838 1.859 1.585.201.183.328.356.383.52.073.146.109.346.109.602a.78.78 0 0 1-.136.465.443.443 0 0 1-.356.163Zm-2.68 8.421c-.893 0-1.613-.227-2.16-.683-.583-.51-.875-1.103-.875-1.778 0-.583.21-1.057.629-1.421.182-.164.429-.301.738-.41.31-.128.602-.192.875-.192.183 0 .283-.01.301-.027.037-.037.064-.128.082-.274.018-.127.028-.392.028-.793a1.748 1.748 0 0 1-.028-.383c-1.13.11-1.969.22-2.515.329-.128.018-.283-.01-.465-.082a1.475 1.475 0 0 1-.41-.329c-.11-.127-.146-.218-.11-.273a.484.484 0 0 1 .219-.137c.073-.036.191-.054.355-.054.566 0 .976-.019 1.231-.055l3.828-.383c.055 0 .182-.009.383-.027.219-.019.419-.055.601-.11h.082c.073 0 .137.028.192.082a.471.471 0 0 0 .137.055c.273.219.41.41.41.574 0 .128-.11.192-.328.192l-.329-.028c-.091-.018-.546 0-1.367.055l-.82.055c.018.218.018.492 0 .82a28.6 28.6 0 0 1-.055.793l.028.3a.47.47 0 0 1-.11.302c-.109.182-.291.273-.547.273-.145 0-.273-.01-.382-.027l-.274-.055c-.292-.018-.601.1-.93.355-.273.274-.41.566-.41.876 0 .419.173.774.52 1.066.2.164.41.273.629.328.237.073.519.11.847.11.438 0 .848-.074 1.231-.22.383-.145.665-.364.847-.656.073-.127.137-.2.192-.218.055-.037.155-.055.301-.055a.48.48 0 0 1 .355.137c.11.109.164.218.164.328 0 .328-.301.683-.902 1.066-.602.383-1.331.574-2.188.574Zm8.258-12.304c.219 0 .328.1.328.3 0 .11-.1.265-.3.465-.547.675-1.632 1.96-3.254 3.856-.128.164-.246.246-.356.246-.091 0-.292-.137-.601-.41-.256-.219-.383-.401-.383-.547 0-.164.136-.32.41-.465.419-.237 1.048-.71 1.887-1.422.838-.747 1.458-1.34 1.859-1.777.164-.164.301-.246.41-.246Zm-27.125 12.086v.136c0 .383-.146.575-.437.575-.237 0-.556-.11-.957-.328-.383-.201-.575-.447-.575-.739 0-.11.01-.191.028-.246.054-.273.082-.574.082-.902 0-.274-.009-.492-.028-.657l-.437-5.386c0-.055-.018-.255-.055-.602a2.883 2.883 0 0 0-.246-.93c-.109-.255-.164-.4-.164-.437 0-.128.091-.191.274-.191.309 0 .929.164 1.859.492l2.816-.137.028-4.156-6.262.3h-.246c-.274 0-.483-.018-.629-.054a.934.934 0 0 1-.383-.273c-.073-.073-.182-.237-.328-.493-.146-.273-.219-.501-.219-.683 0-.091.046-.137.137-.137l.164.027c.237.073.52.11.848.11l.547-.028 6.398-.3.027-4.157a89.735 89.735 0 0 1-3.336.63c-.966.145-1.576.218-1.832.218-.401 0-.601-.082-.601-.246 0-.091.082-.192.246-.3.182-.11.419-.201.711-.274 3.627-.912 6.654-1.978 9.078-3.2.365-.182.693-.455.984-.82.055-.073.119-.11.192-.11.182 0 .419.22.711.657.31.438.465.784.465 1.04 0 .236-.092.391-.274.464-1.695.638-3.208 1.13-4.539 1.477l-.055 4.539 5.633-.274a7.894 7.894 0 0 0 1.149-.164c.182-.036.31-.055.382-.055.201 0 .456.155.766.465.328.292.492.547.492.766 0 .255-.209.4-.629.437h-.082l-7.711.356-.054 4.156 3.8-.164.356-.027c.219 0 .483.1.793.3.328.201.492.456.492.766 0 .091-.036.21-.109.355-.073.146-.11.256-.11.329l-.765 5.195c.474.602.711 1.012.711 1.23 0 .128-.073.21-.219.246a3.3 3.3 0 0 1-.629.083l-8.34.164.082.957ZM129.613 27.41c0-.11.082-.282.246-.52.164-.255.338-.382.52-.382.164 0 .638.255 1.422.765.802.51 1.549 1.04 2.242 1.586.711.547 1.066.894 1.066 1.04 0 .127-.118.364-.355.71-.219.328-.428.493-.629.493-.128 0-.31-.1-.547-.301a26.84 26.84 0 0 0-3.555-2.899c-.273-.164-.41-.328-.41-.492Zm.192 13.781c0-.09.073-.182.218-.273.365-.2.702-.501 1.012-.902a86.022 86.022 0 0 0 4.949-7.438c.31-.492.565-.738.766-.738.128 0 .191.11.191.328 0 .51-.455 1.686-1.367 3.527a69.529 69.529 0 0 1-2.926 5.278c-.273.474-.483.784-.628.93a.624.624 0 0 1-.52.245h-.082c-.31-.036-.656-.164-1.039-.382-.383-.2-.574-.392-.574-.575Zm1.449-20.043c0-.127.082-.3.246-.52.164-.218.346-.327.547-.327.255 0 .82.346 1.695 1.039.875.674 1.75 1.404 2.625 2.187.201.183.301.347.301.492 0 .201-.119.447-.356.739-.236.273-.455.41-.656.41-.146 0-.328-.11-.547-.328-1.294-1.33-2.461-2.406-3.5-3.227-.237-.182-.355-.337-.355-.465Zm10.144 19.032 6.864-.164.601-5.25-7.875.3.41 5.114ZM198.273 26.781c-.018 0-.082.018-.191.055-.091.018-.137-.01-.137-.082 0-.018.037-.055.11-.11l.191-.19c.055-.056.137-.128.246-.22.11-.109.192-.218.246-.328a4.84 4.84 0 0 0 .574-1.367l.165-.957c.127-.71.182-1.54.164-2.488 0-.219-.028-.447-.082-.684-.019-.11-.11-.264-.274-.465v-.027c0-.037.046-.055.137-.055.127 0 .237.01.328.028.237.054.501.082.793.082.31-.019.501-.028.574-.028l1.832-.136c.365-.037.602-.055.711-.055.784-.11 1.139-.155 1.067-.137.419-.073.674-.11.765-.11.292.019.584.247.875.684l.055.137c0 .11-.082.173-.246.192a4.129 4.129 0 0 1-.301.027c-.565 0-.984.009-1.258.027-.693 0-1.203.01-1.531.028l-.766.054-1.558.164c-.11 1.532-.21 2.534-.301 3.008-.146.857-.428 1.55-.848 2.078-.31.401-.756.693-1.34.875Zm6.891 7.739c-.273 0-.538-.201-.793-.602a8.639 8.639 0 0 0-.957-1.258l-.711-.738c-.383.437-.72.784-1.012 1.039a5.413 5.413 0 0 1-1.039.738c-.784.456-1.44.684-1.968.684-.128 0-.192-.046-.192-.137 0-.055.173-.173.52-.355.346-.183.674-.401.984-.657.784-.656 1.431-1.33 1.942-2.023-.11-.11-.657-.583-1.641-1.422a9.152 9.152 0 0 1-.574-.465 6.941 6.941 0 0 1-.328-.246c-.165-.127-.247-.219-.247-.273 0-.091.046-.137.137-.137.274 0 .711.191 1.313.574.601.365 1.23.802 1.886 1.313.256-.31.456-.602.602-.875.146-.274.31-.611.492-1.012.091-.2.146-.374.164-.52.018-.164.028-.264.028-.3 0-.2.054-.301.164-.301.127 0 .3.1.519.3.383.365.574.611.574.739 0 .073-.045.155-.136.246-.219.219-.42.51-.602.875-.109.219-.31.529-.601.93-.092.11-.165.21-.219.3-.055.092-.11.174-.164.247.419.31 1.039.838 1.859 1.585.201.183.328.356.383.52.073.146.109.346.109.602a.78.78 0 0 1-.136.465.443.443 0 0 1-.356.163Zm-2.762 8.695c-.127 0-.218-.037-.273-.11a1.814 1.814 0 0 0-.109-.136c-.183-.255-.265-.502-.247-.739.019-.145.046-.537.082-1.175l.028-1.313c-.018-.2-.037-.319-.055-.355-.018-.055-.1-.164-.246-.328a13.727 13.727 0 0 0-1.012-1.121c-.437-.438-.72-.73-.847-.876l-.821-.82c-.054-.054-.082-.11-.082-.164 0-.091.055-.164.164-.219a.591.591 0 0 1 .383-.082c.365.037.602.082.711.137.128.036.246.146.356.328.109.183.264.401.464.656.219.237.383.42.493.547.455.547.774.912.957 1.094.328-.383.738-.93 1.23-1.64.401-.511.638-.93.711-1.258.073-.237.182-.356.328-.356.073 0 .182.046.328.137.474.292.711.529.711.71 0 .11-.118.247-.355.411a3.793 3.793 0 0 0-.821.793l-.546.684c-.365.437-.638.783-.821 1.039-.091.164-.136.4-.136.71v2.762c.018.128-.055.274-.219.438-.146.164-.265.246-.356.246Zm8.34-12.578c.219 0 .328.1.328.3 0 .11-.1.265-.3.465-.547.675-1.632 1.96-3.254 3.856-.128.164-.246.246-.356.246-.091 0-.292-.137-.601-.41-.256-.219-.383-.401-.383-.547 0-.164.136-.32.41-.465.419-.237 1.048-.71 1.887-1.422.838-.747 1.458-1.34 1.859-1.777.164-.164.301-.246.41-.246Zm-29.449-5.688c0 .328-.155.492-.465.492-.237 0-.519-.063-.848-.191-.328-.146-.492-.428-.492-.848 0-.218-.036-.565-.109-1.039l-4.703.274a8.01 8.01 0 0 1-.711.027c-.347 0-.638-.091-.875-.273a1.878 1.878 0 0 1-.492-.602c-.11-.219-.164-.374-.164-.465 0-.11.073-.164.218-.164a.38.38 0 0 1 .164.027c.31.073.638.11.985.11l.492-.027 4.867-.301-.137-.985a1.993 1.993 0 0 0-.574-1.093c-.127-.128-.191-.237-.191-.328 0-.146.182-.22.547-.22.455 0 .847.055 1.175.165.329.091.52.3.575.629l.273 1.695 1.258-.082c.237 0 .392.01.465.027a.453.453 0 0 1 .301.164c.091.092.136.2.136.329 0 .218-.082.373-.246.464-.164.091-.401.155-.711.192a13.924 13.924 0 0 1-1.011.082l.273 1.777v.164Zm-9.461 9.488c0-.145.073-.218.219-.218a.6.6 0 0 1 .191.027c.419.128.93.191 1.531.191l8.832-.3.028-7.082-5.36.273c-.145.018-.319.037-.519.055a6.086 6.086 0 0 1-.602.027c-.364 0-.665-.1-.902-.3a2.208 2.208 0 0 1-.52-.684c-.091-.255-.136-.41-.136-.465 0-.091.054-.137.164-.137.091 0 .164.01.219.028.455.09.811.136 1.066.136l.465-.027 12.441-.602a4.742 4.742 0 0 0 1.477-.3.707.707 0 0 1 .219-.028c.291 0 .619.155.984.465.383.31.574.556.574.738 0 .2-.173.32-.519.356l-7.383.383v7.136l8.23-.328c.365-.018.857-.11 1.477-.273a.38.38 0 0 1 .164-.028c.237 0 .565.174.984.52.42.328.629.602.629.82a.344.344 0 0 1-.164.301.723.723 0 0 1-.41.11l-10.883.382v2.297l4.84-.191c.401-.019.884-.1 1.449-.246a.713.713 0 0 1 .219-.028c.2 0 .419.073.656.22.255.145.474.318.656.519.183.2.274.355.274.464 0 .11-.055.201-.164.274a.914.914 0 0 1-.41.082l-7.52.3v4.048c0 .455-.173.683-.519.683-.292 0-.611-.127-.957-.383-.347-.237-.52-.52-.52-.847 0-.055.018-.173.055-.356a7.477 7.477 0 0 0 .191-1.64v-1.45l-4.785.192-.738.027c-.547 0-.939-.082-1.176-.246a1.83 1.83 0 0 1-.52-.602c-.127-.236-.191-.419-.191-.546 0-.11.055-.164.164-.164.073 0 .137.009.191.027.365.091.784.137 1.258.137h.274l5.523-.22.027-2.296-8.121.273h-.492c-.711 0-1.194-.09-1.449-.273a3.231 3.231 0 0 1-.52-.602c-.127-.237-.191-.446-.191-.629Zm1.203-4.32c0-.127.064-.191.192-.191.072 0 .127.009.164.027.364.091.783.137 1.257.137h.274l2.844-.164-.11-.602c-.073-.437-.182-.756-.328-.957-.109-.146-.164-.246-.164-.3 0-.128.137-.192.41-.192.292 0 .62.037.985.11.364.072.574.227.629.464l.218 1.34 1.422-.055c.237 0 .392.01.465.028.292.054.437.228.437.52 0 .2-.118.373-.355.519-.237.146-.51.237-.82.273l-.903.082.328 1.969a.686.686 0 0 1 .028.219c0 .346-.155.52-.465.52-.201 0-.474-.083-.82-.247-.347-.164-.52-.456-.52-.875 0-.364-.045-.838-.137-1.422l-2.351.137c-.474.037-.802.055-.985.055-.419 0-.756-.1-1.011-.301-.255-.2-.438-.41-.547-.629-.091-.237-.137-.392-.137-.465Zm11.047-8.422c0-.036.027-.073.082-.11a.23.23 0 0 1 .191-.026l.711-.028c.183 0 .675-.018 1.477-.054.018-.11.055-.301.109-.575.055-.291.082-.547.082-.765v-.192c0-.31-.073-.592-.218-.847a.625.625 0 0 1-.082-.246c0-.11.073-.165.218-.165.164 0 .41.073.739.22.346.127.647.29.902.491.273.201.41.392.41.575a.475.475 0 0 1-.027.191c-.201.62-.356 1.048-.465 1.285l3.527-.219c.547-.018 1.003-.09 1.367-.218.146-.055.283-.082.411-.082.255 0 .537.155.847.465.31.291.465.546.465.765 0 .182-.2.292-.601.328l-6.645.383c-.474.985-.82 1.64-1.039 1.969-.201.328-.41.492-.629.492-.182 0-.273-.128-.273-.383 0-.127.045-.346.136-.656.128-.328.265-.775.411-1.34l-.739.055c-.346 0-.665-.128-.957-.383-.291-.273-.428-.574-.41-.902v-.028Zm1.094 7.93c0-.037.027-.064.082-.082a.334.334 0 0 1 .191-.055c.255 0 .447-.009.574-.027.42 0 1.067-.027 1.942-.082.018-.128.027-.328.027-.602 0-.492-.054-.856-.164-1.093a.888.888 0 0 1-.055-.247c0-.145.092-.218.274-.218.273 0 .647.127 1.121.383.492.255.738.492.738.71v.082l-.246.903 1.231-.082c.401-.018.884-.11 1.449-.274a1.65 1.65 0 0 1 .273-.054c.219 0 .447.082.684.246.237.164.437.355.601.574.164.2.247.337.247.41 0 .2-.192.32-.575.356l-4.402.246c-.128.4-.392.993-.793 1.777-.383.784-.729 1.176-1.039 1.176-.182 0-.274-.128-.274-.383l.055-.328c.073-.237.255-.939.547-2.105l-.984.081a1.851 1.851 0 0 1-1.067-.41c-.31-.255-.455-.547-.437-.875v-.027ZM241.887 34.465c-.602-.219-.884-.456-.848-.711.109-.766.164-1.64.164-2.625a11.961 11.961 0 0 0-.082-1.559c-.018-.182-.018-.282 0-.3a.371.371 0 0 1 .274-.11c.164 0 .364.073.601.219.255.146.383.292.383.437 0 .092-.009.183-.027.274a.979.979 0 0 0-.028.246l-.164 2.707c0 .146.055.237.164.273h.137c.146 0 .246-.009.301-.027l3.527-.492v-.711c0-.893-.018-1.586-.055-2.078-.018-.42-.063-.757-.136-1.012-.055-.292.018-.437.218-.437.146 0 .338.054.575.164.291.146.464.273.519.383.055.09.073.236.055.437-.037.328-.055.82-.055 1.477l.028 2.078c0 .437-.083.784-.247 1.039-.091.11-.182.164-.273.164-.091 0-.219-.082-.383-.246a1.71 1.71 0 0 1-.137-.164.36.36 0 0 0-.164-.137.705.705 0 0 0-.218-.027c-.42.036-1.431.173-3.036.41-.273.036-.492.11-.656.218-.182.092-.301.137-.355.137l-.082-.027Zm10.965-9.133c.054 0 .109.027.164.082a.267.267 0 0 1 .109.164v.055c0 .127-.1.373-.301.738l-1.969 3.418c-.145.31-.337.465-.574.465-.237 0-.437-.146-.601-.438a9.245 9.245 0 0 1-.602-1.066 3.358 3.358 0 0 1-.273-.492 10.9 10.9 0 0 0-.164-.356c-.201-.346-.301-.592-.301-.738 0-.073.027-.128.082-.164.055-.055.109-.082.164-.082.2 0 .383.11.547.328.127.128.228.264.301.41l.3.41.547.63.246-.384c.256-.437.857-1.303 1.805-2.597.201-.255.374-.383.52-.383Zm-28.793 7.273c-.274 0-.483-.018-.629-.054a.928.928 0 0 1-.383-.274 2.357 2.357 0 0 1-.41-.601c-.091-.219-.137-.392-.137-.52 0-.09.046-.136.137-.136l.164.027c.237.073.519.11.847.11l.547-.028 2.735-.137.957-3.937-1.477.082a3.601 3.601 0 0 1-.492.027c-.31 0-.538-.036-.684-.11-.127-.09-.273-.255-.437-.491a3.887 3.887 0 0 1-.328-.739.382.382 0 0 1-.028-.164c0-.055.037-.082.11-.082l.191.027c.31.055.611.082.903.082l.628-.027 1.969-.11.684-2.87-3.09.191-.41.027c-.419 0-.748-.118-.985-.355s-.419-.565-.546-.984a.369.369 0 0 1-.028-.165c0-.072.046-.109.137-.109a.6.6 0 0 1 .191.027c.31.055.62.082.93.082h.383l8.504-.519a3.8 3.8 0 0 0 .929-.164l.356-.055c.2 0 .474.155.82.465.365.292.547.547.547.766 0 .218-.264.346-.793.383l-5.223.3-.656 2.871 3.938-.246.273-.027c.219 0 .474.11.766.328.291.2.437.42.437.656a.676.676 0 0 1-.082.301 1.98 1.98 0 0 0-.082.246l-.765 3.938 1.613-.082a7.851 7.851 0 0 0 1.148-.164c.183-.037.31-.055.383-.055.274 0 .547.155.82.465.292.31.438.556.438.738 0 .237-.237.374-.711.41l-13.863.656h-.246Zm-11.321-7.93c0-.109.055-.163.164-.163.073 0 .137.009.192.027.273.073.565.11.875.11l.465-.028 6.671-.383c.529-.09.903-.182 1.122-.273a.864.864 0 0 1 .246-.055c.218 0 .51.146.875.438.364.291.547.556.547.793s-.183.373-.547.41l-8.368.547a9.75 9.75 0 0 1-.792.027c-.31 0-.511-.046-.602-.137-.565-.492-.848-.93-.848-1.312Zm1.696 10.09c0-.109.082-.163.246-.163.31 0 .975.191 1.996.574l4.265-.219h.247c.236 0 .492.1.765.3.292.201.438.42.438.657a.655.655 0 0 1-.082.273 1.822 1.822 0 0 0-.082.247l-.438 3.773c.419.583.629.975.629 1.176 0 .127-.055.2-.164.219-.109.036-.301.063-.574.082l-4.621.164.027.355v.082c0 .401-.173.602-.52.602-.2 0-.464-.073-.793-.219-.328-.146-.492-.41-.492-.793v-.164c.037-.474.055-.82.055-1.04v-.327l-.274-3.555c-.054-.62-.191-1.121-.41-1.504-.145-.237-.218-.41-.218-.52Zm.164-3.308c0-.091.045-.137.136-.137.055 0 .101.01.137.028.31.073.647.109 1.012.109h.301l3.636-.191c.365-.037.684-.11.957-.22a.875.875 0 0 1 .246-.054c.219 0 .474.155.766.465.31.292.465.529.465.711 0 .255-.182.401-.547.438l-4.977.3h-.792c-.256-.036-.438-.082-.547-.136a2.552 2.552 0 0 1-.766-1.149.385.385 0 0 1-.027-.164Zm0-3.39c0-.11.045-.165.136-.165l.11.028c.31.073.647.11 1.011.11h.301l3.719-.247c.328-.037.656-.1.984-.191a.906.906 0 0 1 .219-.055c.201 0 .456.137.766.41.328.273.492.529.492.766a.344.344 0 0 1-.164.3.913.913 0 0 1-.41.137l-5.059.328a5.127 5.127 0 0 1-.601.028c-.164 0-.283-.01-.356-.028a.518.518 0 0 1-.383-.136c-.164-.128-.337-.329-.519-.602-.164-.292-.246-.52-.246-.684Zm1.203-7.247c0-.2.064-.4.191-.601.146-.2.319-.301.52-.301.146 0 .601.155 1.367.465.784.31 1.713.756 2.789 1.34.2.109.346.218.437.328.092.09.137.2.137.328 0 .219-.1.474-.301.765-.182.274-.373.41-.574.41-.127 0-.319-.081-.574-.245a22.123 22.123 0 0 0-3.418-1.942 2.158 2.158 0 0 1-.437-.246.415.415 0 0 1-.137-.3Zm1.148 19.551 3.254-.082.301-3.8-3.828.19.273 3.692Zm7.848-5.852c0-.109.082-.163.246-.163.273 0 .893.182 1.859.546l7.246-.355h.274c.292 0 .574.11.848.328.291.2.437.42.437.656 0 .091-.036.21-.109.356-.073.127-.11.228-.11.3l-.629 3.91c.456.602.684 1.003.684 1.204 0 .11-.055.173-.164.191-.091.037-.283.064-.574.082l-7.52.192.082.957v.082c0 .383-.155.574-.465.574-.073 0-.237-.046-.492-.137a2.374 2.374 0 0 1-.656-.383c-.201-.145-.301-.319-.301-.52 0-.09.009-.172.027-.245.055-.292.082-.61.082-.957l-.027-.602-.301-4.047c-.054-.692-.155-1.203-.3-1.531-.092-.219-.137-.365-.137-.438Zm2.379 5.77 6.015-.164.493-4.074-6.782.328.274 3.91Zm5.605-9.57.684-4.02-3.856.246-.929 3.965 4.101-.191Z"/></svg>