<svg width="320" height="60" viewBox="0 0 320 60" fill="none" xmlns="http://www.w3.org/2000/svg">
<path d="M105.23 26.8086C104.957 26.8086 104.711 26.6992 104.492 26.4805C104.219 26.2799 104.082 26.125 104.082 26.0156C104.082 25.888 104.292 25.8242 104.711 25.8242L106.051 25.7422L107.418 25.6055C107.454 25.3138 107.473 24.7578 107.473 23.9375C107.527 23.9375 107.245 23.974 106.625 24.0469L106.105 24.1289C105.941 24.2018 105.796 24.2383 105.668 24.2383C105.559 24.2383 105.467 24.2018 105.395 24.1289C105.103 23.8737 104.957 23.6549 104.957 23.4727V22.1875C104.957 22.0599 104.911 21.5677 104.82 20.7109L104.793 20.4102C104.793 20.2643 104.82 20.1732 104.875 20.1367C104.93 20.1003 105.03 20.1003 105.176 20.1367C105.723 20.2826 105.987 20.4466 105.969 20.6289L105.941 20.8203C105.905 21.0755 105.887 21.4036 105.887 21.8047C105.887 22.2786 105.896 22.5794 105.914 22.707C105.951 23.0716 105.969 23.2448 105.969 23.2266C105.987 23.2995 106.051 23.3359 106.16 23.3359C106.27 23.3359 106.488 23.3086 106.816 23.2539C107.163 23.181 107.391 23.1354 107.5 23.1172V20.7109C107.5 20.0365 107.473 19.5807 107.418 19.3438C107.382 19.1615 107.363 19.0612 107.363 19.043C107.363 18.9154 107.409 18.8516 107.5 18.8516C107.536 18.8516 107.664 18.888 107.883 18.9609C108.229 19.125 108.457 19.2708 108.566 19.3984C108.694 19.526 108.74 19.6628 108.703 19.8086C108.648 19.9909 108.612 20.3555 108.594 20.9023C108.557 21.3398 108.521 22.0508 108.484 23.0352L109.414 23.0078C109.596 23.0078 109.733 22.9987 109.824 22.9805C109.915 22.9622 109.961 22.9258 109.961 22.8711C110.089 22.1784 110.171 21.5768 110.207 21.0664L110.234 20.7383C110.253 20.7018 110.253 20.638 110.234 20.5469C110.234 20.4557 110.234 20.3919 110.234 20.3555L110.207 20.1641C110.207 20 110.271 19.918 110.398 19.918C110.471 19.918 110.626 19.9909 110.863 20.1367C110.918 20.1732 110.991 20.2279 111.082 20.3008C111.191 20.3555 111.264 20.4193 111.301 20.4922C111.337 20.5469 111.355 20.6198 111.355 20.7109C111.355 20.8203 111.346 20.9115 111.328 20.9844L111.027 22.5156L110.945 23.1445C110.872 23.5638 110.654 23.7917 110.289 23.8281C110.18 23.8099 110.089 23.7826 110.016 23.7461C109.961 23.7096 109.915 23.6914 109.879 23.6914C109.66 23.6914 109.204 23.737 108.512 23.8281L108.484 25.5234L108.949 25.4961L109.387 25.4688C110.061 25.4688 110.562 25.4323 110.891 25.3594C111.036 25.3594 111.164 25.3411 111.273 25.3047L111.355 25.2773C111.538 25.2773 111.729 25.4049 111.93 25.6602C112.167 25.8971 112.285 26.0703 112.285 26.1797C112.285 26.3438 112.03 26.3984 111.52 26.3438L110.48 26.2891H109.113C108.84 26.2891 108.339 26.3255 107.609 26.3984C107.227 26.3984 106.88 26.4167 106.57 26.4531C106.26 26.4896 105.969 26.5534 105.695 26.6445L105.23 26.8086ZM111.164 33.9727C110.891 33.9727 110.626 33.7721 110.371 33.3711C110.043 32.8607 109.724 32.4414 109.414 32.1133L108.703 31.375C108.32 31.8125 107.983 32.1589 107.691 32.4141C107.418 32.6693 107.072 32.9154 106.652 33.1523C105.868 33.6081 105.212 33.8359 104.684 33.8359C104.556 33.8359 104.492 33.7904 104.492 33.6992C104.492 33.6445 104.665 33.526 105.012 33.3438C105.358 33.1615 105.686 32.9427 105.996 32.6875C106.78 32.0312 107.427 31.3568 107.938 30.6641C107.828 30.5547 107.281 30.0807 106.297 29.2422C106.169 29.151 105.978 28.9961 105.723 28.7773C105.668 28.7409 105.559 28.6589 105.395 28.5312C105.23 28.4036 105.148 28.3125 105.148 28.2578C105.148 28.1667 105.194 28.1211 105.285 28.1211C105.559 28.1211 105.996 28.3125 106.598 28.6953C107.199 29.0599 107.828 29.4974 108.484 30.0078C108.74 29.6979 108.94 29.4062 109.086 29.1328C109.232 28.8594 109.396 28.5221 109.578 28.1211C109.669 27.9206 109.724 27.7474 109.742 27.6016C109.76 27.4375 109.77 27.3372 109.77 27.3008C109.77 27.1003 109.824 27 109.934 27C110.061 27 110.234 27.1003 110.453 27.3008C110.836 27.6654 111.027 27.9115 111.027 28.0391C111.027 28.112 110.982 28.194 110.891 28.2852C110.672 28.5039 110.471 28.7956 110.289 29.1602C110.18 29.3789 109.979 29.6888 109.688 30.0898C109.596 30.1992 109.523 30.2995 109.469 30.3906C109.414 30.4818 109.359 30.5638 109.305 30.6367C109.724 30.9466 110.344 31.4753 111.164 32.2227C111.365 32.4049 111.492 32.5781 111.547 32.7422C111.62 32.888 111.656 33.0885 111.656 33.3438C111.656 33.526 111.611 33.681 111.52 33.8086C111.428 33.918 111.31 33.9727 111.164 33.9727ZM105.121 42.1484C104.848 42.1484 104.638 42.0755 104.492 41.9297C104.328 41.7656 104.246 41.6198 104.246 41.4922C104.246 41.3646 104.319 41.2279 104.465 41.082C104.483 41.0638 104.583 40.918 104.766 40.6445C105.167 40.0065 105.622 39.1953 106.133 38.2109C106.661 37.2083 106.99 36.5247 107.117 36.1602C107.227 35.8138 107.327 35.513 107.418 35.2578C107.527 35.0026 107.618 34.875 107.691 34.875C107.819 34.875 107.928 34.9206 108.02 35.0117C108.111 35.0846 108.202 35.194 108.293 35.3398C108.402 35.4674 108.484 35.5586 108.539 35.6133C108.667 35.7591 108.73 35.8958 108.73 36.0234C108.73 36.1146 108.694 36.2057 108.621 36.2969C108.548 36.388 108.503 36.4518 108.484 36.4883L107.281 38.5117C106.971 39.0768 106.561 39.7786 106.051 40.6172C105.978 40.7083 105.941 40.7995 105.941 40.8906C105.941 40.9635 106.023 41 106.188 41C106.534 41 107.181 40.9635 108.129 40.8906C109.077 40.7995 109.715 40.7266 110.043 40.6719C110.517 40.6172 110.845 40.5625 111.027 40.5078C111.228 40.4531 111.52 40.5898 111.902 40.918C112.358 41.3008 112.458 41.5469 112.203 41.6562C112.057 41.7292 111.775 41.7656 111.355 41.7656H110.262C110.025 41.7656 109.651 41.7839 109.141 41.8203C108.831 41.8203 108.484 41.8294 108.102 41.8477C107.719 41.8659 107.4 41.8841 107.145 41.9023C106.853 41.9206 106.288 41.9753 105.449 42.0664L105.121 42.1484ZM89.8633 32.1133L89.7539 36.4336C89.7539 36.9076 89.7266 37.5091 89.6719 38.2383C89.6172 39.0039 89.5807 39.4961 89.5625 39.7148C89.5443 39.9336 89.4896 40.2799 89.3984 40.7539C89.3255 41.1914 89.2617 41.5286 89.207 41.7656C89.1706 42.0026 89.0885 42.2487 88.9609 42.5039L88.6602 42.832C88.5326 42.832 88.4414 42.7227 88.3867 42.5039C88.332 42.2669 88.2956 42.0117 88.2773 41.7383L88.2227 40.7266L88.1953 39.4961L88.168 37.8008L88.25 32.2227L84.2578 32.5508C84.1302 32.8424 84.0208 33.0339 83.9297 33.125L83.4648 33.207C83.2279 32.9883 83.0729 32.7695 83 32.5508C82.9089 32.332 82.8359 31.9674 82.7812 31.457L82.3164 27.7656C82.2799 27.5286 82.207 27.2643 82.0977 26.9727C81.9883 26.6992 81.8971 26.4987 81.8242 26.3711L81.3594 25.8789L81.2227 25.5234C81.2409 25.3594 81.3685 25.2409 81.6055 25.168C81.7331 25.168 81.9701 25.2044 82.3164 25.2773L82.8633 25.4414L83.5195 25.6875L88.3594 25.0859L88.4414 22.543L88.3867 21.5312C88.3503 20.8568 88.3138 20.4466 88.2773 20.3008C88.2409 20.1367 88.1771 19.9362 88.0859 19.6992C87.9948 19.4805 87.931 19.3073 87.8945 19.1797L87.9219 18.9336C88.013 18.8242 88.168 18.7695 88.3867 18.7695C88.5143 18.7695 88.6875 18.7969 88.9062 18.8516C89.125 18.9062 89.3164 18.9701 89.4805 19.043L90.0547 19.3164C90.2734 19.444 90.4284 19.5625 90.5195 19.6719L90.6289 19.9453C90.6289 20.0729 90.5833 20.2279 90.4922 20.4102C90.401 20.5924 90.3372 20.793 90.3008 21.0117C90.2279 21.2305 90.1823 21.4401 90.1641 21.6406C90.1458 21.8411 90.1276 22.0872 90.1094 22.3789C90.0911 22.6706 90.0729 23.1901 90.0547 23.9375L90.0273 24.9492L92.0508 24.7305C93.0534 24.6211 93.6458 24.5482 93.8281 24.5117C94.0286 24.4935 94.2565 24.457 94.5117 24.4023C94.8034 24.3659 95.1042 24.3021 95.4141 24.2109L96.0156 24.0742C96.2708 24.0742 96.5169 24.1107 96.7539 24.1836C97.0456 24.2565 97.2917 24.3659 97.4922 24.5117C97.6927 24.6576 97.9023 24.8307 98.1211 25.0312C98.3581 25.2135 98.5586 25.3867 98.7227 25.5508C98.8503 25.6784 98.9141 25.8151 98.9141 25.9609C98.8958 26.0703 98.832 26.1797 98.7227 26.2891L98.2305 26.6992C98.0846 26.8268 97.9115 27.0547 97.7109 27.3828C97.4922 27.7292 97.3372 28.0117 97.2461 28.2305L96.125 30.9648L96.5352 31.4023C96.5352 31.5299 96.4622 31.6211 96.3164 31.6758L95.5508 31.7305L89.8633 32.1133ZM84.2578 31.3203L88.25 31.0195L88.332 25.9609C87.7305 26.0521 87.056 26.1615 86.3086 26.2891C85.5612 26.4167 84.9414 26.5352 84.4492 26.6445L83.7383 26.8633L84.2578 31.3203ZM89.9453 30.8555C90.6927 30.7826 91.2487 30.7188 91.6133 30.6641L93.6367 30.4453L94.457 30.3633L95.4961 26.8633C95.5872 26.5716 95.6237 26.3073 95.6055 26.0703C95.6055 25.8333 95.5599 25.6693 95.4688 25.5781C95.3776 25.487 95.168 25.4414 94.8398 25.4414C94.2747 25.4596 93.6914 25.487 93.0898 25.5234C92.4701 25.5417 92.0599 25.569 91.8594 25.6055L90.0273 25.7695L89.9453 30.8555Z" fill="#333333"/>
<path d="M146.273 26.2344C146.255 26.2344 146.191 26.2526 146.082 26.2891C145.991 26.3073 145.945 26.2799 145.945 26.207C145.945 26.1888 145.982 26.1523 146.055 26.0977C146.128 26.0247 146.191 25.9609 146.246 25.9062C146.301 25.8516 146.383 25.7786 146.492 25.6875C146.602 25.5781 146.684 25.4688 146.738 25.3594C147.012 24.9036 147.203 24.4479 147.312 23.9922L147.477 23.0352C147.604 22.3242 147.659 21.4948 147.641 20.5469C147.641 20.3281 147.613 20.1003 147.559 19.8633C147.54 19.7539 147.449 19.599 147.285 19.3984V19.3711C147.285 19.3346 147.331 19.3164 147.422 19.3164C147.549 19.3164 147.659 19.3255 147.75 19.3438C147.987 19.3984 148.251 19.4258 148.543 19.4258C148.853 19.4076 149.044 19.3984 149.117 19.3984L150.949 19.2617C151.314 19.2253 151.551 19.207 151.66 19.207C152.444 19.0977 152.799 19.0521 152.727 19.0703C153.146 18.9974 153.401 18.9609 153.492 18.9609C153.784 18.9792 154.076 19.207 154.367 19.6445L154.422 19.7812C154.422 19.8906 154.34 19.9544 154.176 19.9727C154.012 19.9909 153.911 20 153.875 20C153.31 20 152.891 20.0091 152.617 20.0273C151.924 20.0273 151.414 20.0365 151.086 20.0547L150.32 20.1094L148.762 20.2734C148.652 21.8047 148.552 22.8073 148.461 23.2812C148.315 24.138 148.033 24.8307 147.613 25.3594C147.303 25.7604 146.857 26.0521 146.273 26.2344ZM153.164 33.9727C152.891 33.9727 152.626 33.7721 152.371 33.3711C152.043 32.8607 151.724 32.4414 151.414 32.1133L150.703 31.375C150.32 31.8125 149.983 32.1589 149.691 32.4141C149.418 32.6693 149.072 32.9154 148.652 33.1523C147.868 33.6081 147.212 33.8359 146.684 33.8359C146.556 33.8359 146.492 33.7904 146.492 33.6992C146.492 33.6445 146.665 33.526 147.012 33.3438C147.358 33.1615 147.686 32.9427 147.996 32.6875C148.78 32.0312 149.427 31.3568 149.938 30.6641C149.828 30.5547 149.281 30.0807 148.297 29.2422C148.169 29.151 147.978 28.9961 147.723 28.7773C147.668 28.7409 147.559 28.6589 147.395 28.5312C147.23 28.4036 147.148 28.3125 147.148 28.2578C147.148 28.1667 147.194 28.1211 147.285 28.1211C147.559 28.1211 147.996 28.3125 148.598 28.6953C149.199 29.0599 149.828 29.4974 150.484 30.0078C150.74 29.6979 150.94 29.4062 151.086 29.1328C151.232 28.8594 151.396 28.5221 151.578 28.1211C151.669 27.9206 151.724 27.7474 151.742 27.6016C151.76 27.4375 151.77 27.3372 151.77 27.3008C151.77 27.1003 151.824 27 151.934 27C152.061 27 152.234 27.1003 152.453 27.3008C152.836 27.6654 153.027 27.9115 153.027 28.0391C153.027 28.112 152.982 28.194 152.891 28.2852C152.672 28.5039 152.471 28.7956 152.289 29.1602C152.18 29.3789 151.979 29.6888 151.688 30.0898C151.596 30.1992 151.523 30.2995 151.469 30.3906C151.414 30.4818 151.359 30.5638 151.305 30.6367C151.724 30.9466 152.344 31.4753 153.164 32.2227C153.365 32.4049 153.492 32.5781 153.547 32.7422C153.62 32.888 153.656 33.0885 153.656 33.3438C153.656 33.526 153.611 33.681 153.52 33.8086C153.428 33.918 153.31 33.9727 153.164 33.9727ZM150.402 42.668C150.275 42.668 150.184 42.6315 150.129 42.5586C150.074 42.4857 150.038 42.4401 150.02 42.4219C149.837 42.1667 149.755 41.9206 149.773 41.6836C149.792 41.5378 149.819 41.1458 149.855 40.5078L149.883 39.1953C149.865 38.9948 149.846 38.8763 149.828 38.8398C149.81 38.7852 149.728 38.6758 149.582 38.5117C149.29 38.1471 148.953 37.7734 148.57 37.3906C148.133 36.9531 147.85 36.6615 147.723 36.5156C147.723 36.5156 147.449 36.2422 146.902 35.6953C146.848 35.6406 146.82 35.5859 146.82 35.5312C146.82 35.4401 146.875 35.3672 146.984 35.3125C147.112 35.2396 147.24 35.2122 147.367 35.2305C147.732 35.2669 147.969 35.3125 148.078 35.3672C148.206 35.4036 148.324 35.513 148.434 35.6953C148.543 35.8776 148.698 36.0964 148.898 36.3516C149.117 36.5885 149.281 36.7708 149.391 36.8984C149.846 37.4453 150.165 37.8099 150.348 37.9922C150.676 37.6094 151.086 37.0625 151.578 36.3516C151.979 35.8411 152.216 35.4219 152.289 35.0938C152.362 34.8568 152.471 34.7383 152.617 34.7383C152.69 34.7383 152.799 34.7839 152.945 34.875C153.419 35.1667 153.656 35.4036 153.656 35.5859C153.656 35.6953 153.538 35.832 153.301 35.9961C152.973 36.2331 152.699 36.4974 152.48 36.7891L151.934 37.4727C151.569 37.9102 151.296 38.2565 151.113 38.5117C151.022 38.6758 150.977 38.9128 150.977 39.2227V40.8906V41.9844C150.995 42.112 150.922 42.2578 150.758 42.4219C150.612 42.5859 150.493 42.668 150.402 42.668ZM158.742 30.0898C158.961 30.0898 159.07 30.1901 159.07 30.3906C159.07 30.5 158.97 30.6549 158.77 30.8555C158.223 31.5299 157.138 32.8151 155.516 34.7109C155.388 34.875 155.27 34.957 155.16 34.957C155.069 34.957 154.868 34.8203 154.559 34.5469C154.303 34.3281 154.176 34.1458 154.176 34C154.176 33.8359 154.312 33.681 154.586 33.5352C155.005 33.2982 155.634 32.8242 156.473 32.1133C157.311 31.3659 157.931 30.7734 158.332 30.3359C158.496 30.1719 158.633 30.0898 158.742 30.0898ZM134.461 21.4219C134.57 21.0026 134.643 20.7018 134.68 20.5195C134.698 20.3372 134.725 20.1185 134.762 19.8633C134.798 19.5898 134.826 19.3438 134.844 19.125C134.844 18.8698 134.826 18.6693 134.789 18.5234L134.734 18.168C134.753 18.0221 134.853 17.9219 135.035 17.8672C135.199 17.849 135.354 17.8672 135.5 17.9219C135.755 18.013 135.974 18.1133 136.156 18.2227C136.339 18.332 136.512 18.4596 136.676 18.6055L136.949 18.9609C136.949 19.0885 136.885 19.2617 136.758 19.4805C136.667 19.6263 136.585 19.7539 136.512 19.8633L136.266 20.4102L135.883 21.2305C136.302 21.1758 136.639 21.1211 136.895 21.0664C137.168 21.0299 137.487 20.957 137.852 20.8477C138.216 20.7565 138.462 20.7018 138.59 20.6836C138.736 20.6836 138.882 20.7109 139.027 20.7656C139.21 20.8021 139.41 20.8841 139.629 21.0117C139.848 21.1211 140.012 21.2214 140.121 21.3125L140.285 21.5039L140.176 21.7773C140.03 21.8503 139.884 21.9049 139.738 21.9414L139.41 21.9688L138.617 22.0234C138.089 22.0781 137.533 22.1146 136.949 22.1328C136.384 22.1693 136.029 22.1966 135.883 22.2148L135.473 22.2695L135.281 22.6797L134.898 23.3633L134.461 24.1289L134.16 24.5117L133.641 24.6211L133.805 24.0195L134.215 22.4883L133.668 22.5703L132.793 22.6797L132.438 22.5703C132.31 22.4974 132.182 22.4336 132.055 22.3789C131.927 22.306 131.79 22.1602 131.645 21.9414C131.681 21.832 131.79 21.7682 131.973 21.75L132.41 21.7227C132.848 21.6862 133.23 21.6497 133.559 21.6133L134.461 21.4219ZM127.324 22.1055C127.215 21.7044 127.142 21.4492 127.105 21.3398C127.069 21.2305 126.978 20.9935 126.832 20.6289C126.686 20.2643 126.559 20.0091 126.449 19.8633C126.34 19.7174 126.267 19.5169 126.23 19.2617C126.303 19.1159 126.458 19.0339 126.695 19.0156C126.896 19.0156 127.078 19.0247 127.242 19.043C127.461 19.0977 127.652 19.1523 127.816 19.207L128.145 19.3164L128.363 19.4531L128.555 19.6445C128.573 19.7539 128.564 19.9362 128.527 20.1914L128.5 20.4648C128.5 20.6471 128.509 20.793 128.527 20.9023L128.637 21.9414L130.113 21.668L130.551 21.6953C130.77 21.7135 130.897 21.8047 130.934 21.9688C130.934 22.0964 130.861 22.1784 130.715 22.2148L128.719 22.7617L128.828 24.4844L128.801 24.8672C128.764 25.0312 128.609 25.1133 128.336 25.1133C128.154 24.931 128.035 24.7122 127.98 24.457L127.652 23.0898L126.449 23.418C126.23 23.4727 126.003 23.5456 125.766 23.6367C125.529 23.7461 125.355 23.8281 125.246 23.8828L124.781 23.9648C124.544 23.8555 124.371 23.7461 124.262 23.6367C124.152 23.5273 124.016 23.3724 123.852 23.1719C123.688 22.9714 123.56 22.7435 123.469 22.4883L123.66 22.2969C123.77 22.2786 123.897 22.2878 124.043 22.3242C124.189 22.3424 124.326 22.3607 124.453 22.3789C124.581 22.3971 124.745 22.4062 124.945 22.4062C125.146 22.388 125.428 22.3607 125.793 22.3242L127.324 22.1055ZM130.66 26.8086C129.895 26.8451 129.174 26.8906 128.5 26.9453C127.826 27 127.397 27.0273 127.215 27.0273C126.668 27.0273 126.285 26.9909 126.066 26.918C125.829 26.8451 125.611 26.7448 125.41 26.6172L125.164 26.3164C125.219 26.1706 125.392 26.0885 125.684 26.0703L126.887 25.9883C127.324 25.9883 128.072 25.9336 129.129 25.8242C130.204 25.7148 130.997 25.6237 131.508 25.5508C132.036 25.4961 132.747 25.4049 133.641 25.2773C134.534 25.1315 135.254 25.0039 135.801 24.8945C136.348 24.7852 136.749 24.7305 137.004 24.7305C137.259 24.7305 137.514 24.7669 137.77 24.8398C138.007 24.931 138.216 25.0404 138.398 25.168L138.672 25.4414L138.59 25.6602C138.48 25.7695 138.234 25.8607 137.852 25.9336L137.168 26.043L135.418 26.2891C134.634 26.3802 134.096 26.444 133.805 26.4805L132.383 26.5898C132.547 26.6992 132.674 26.8177 132.766 26.9453C132.857 27.0547 132.893 27.2005 132.875 27.3828L132.711 27.7656C132.62 27.9844 132.556 28.2669 132.52 28.6133C132.483 28.9596 132.456 29.3789 132.438 29.8711L132.355 33.3984C133.376 33.3438 134.142 33.2891 134.652 33.2344L137.113 32.9609C138.061 32.8698 138.79 32.7695 139.301 32.6602C139.811 32.5508 140.167 32.4961 140.367 32.4961C140.568 32.5143 140.777 32.5599 140.996 32.6328C141.197 32.7057 141.47 32.8333 141.816 33.0156C142.181 33.1797 142.436 33.3346 142.582 33.4805L142.801 33.7266C142.801 33.8906 142.719 34.0091 142.555 34.082C142.391 34.1549 142.163 34.1914 141.871 34.1914L139.547 34.2461H136.977L134.133 34.3281L132.355 34.3828L132.301 36.8711L134.215 36.6523C134.835 36.5977 135.363 36.5247 135.801 36.4336C136.257 36.3607 136.566 36.3242 136.73 36.3242C136.949 36.3242 137.141 36.3607 137.305 36.4336C137.469 36.4883 137.706 36.5977 138.016 36.7617C138.326 36.9076 138.535 37.0625 138.645 37.2266L138.754 37.582C138.717 37.6914 138.553 37.7643 138.262 37.8008L137.168 37.8555H135.418L133.668 37.9648L132.273 38.0742L132.137 40.0156L132.055 41.1914C132.036 41.4102 131.991 41.7018 131.918 42.0664C131.845 42.431 131.754 42.7227 131.645 42.9414L131.371 43.2695C131.189 43.2695 131.07 43.1419 131.016 42.8867C130.961 42.6315 130.934 42.2305 130.934 41.6836L130.852 38.2109L129.73 38.3477C129.402 38.3841 128.983 38.457 128.473 38.5664C128.017 38.6576 127.671 38.7031 127.434 38.7031C127.178 38.7031 126.859 38.6576 126.477 38.5664C126.094 38.457 125.793 38.3477 125.574 38.2383C125.392 38.0924 125.301 37.9557 125.301 37.8281C125.337 37.7005 125.438 37.6276 125.602 37.6094L126.504 37.5273L127.926 37.418C128.145 37.3815 128.673 37.3177 129.512 37.2266L130.879 37.0625L130.852 34.4922C130.068 34.5651 129.457 34.6289 129.02 34.6836C128.582 34.7383 128.072 34.8112 127.488 34.9023C126.923 35.0117 126.413 35.1029 125.957 35.1758C125.52 35.2487 125.073 35.349 124.617 35.4766C124.161 35.6042 123.833 35.668 123.633 35.668C123.469 35.6497 123.204 35.5859 122.84 35.4766C122.475 35.3672 122.129 35.2122 121.801 35.0117C121.527 34.8477 121.391 34.6836 121.391 34.5195C121.464 34.3737 121.637 34.2826 121.91 34.2461L122.812 34.2188C123.997 34.1641 124.727 34.1276 125 34.1094C125.273 34.0911 125.848 34.0365 126.723 33.9453L128.746 33.7266L130.852 33.5352C130.87 32.9154 130.879 32.4414 130.879 32.1133V28.1211C130.879 27.8294 130.861 27.6016 130.824 27.4375L130.66 26.8086ZM126.121 30.1445C126.048 29.8164 125.984 29.5885 125.93 29.4609C125.893 29.3151 125.848 29.151 125.793 28.9688C125.72 28.7865 125.611 28.5951 125.465 28.3945L125.301 28.0117C125.337 27.8659 125.447 27.7656 125.629 27.7109C125.811 27.6927 125.993 27.7018 126.176 27.7383L127.023 27.9844C127.333 28.0938 127.507 28.2396 127.543 28.4219C127.561 28.5312 127.552 28.6497 127.516 28.7773L127.434 29.1328V29.8711C127.78 29.8529 128.099 29.8255 128.391 29.7891C128.682 29.7526 128.901 29.7344 129.047 29.7344C129.302 29.7526 129.539 29.8346 129.758 29.9805L129.867 30.418L129.047 30.5547L127.543 30.7461L127.707 32.332C127.707 32.569 127.698 32.7695 127.68 32.9336C127.661 33.1888 127.497 33.3073 127.188 33.2891C127.023 33.0885 126.905 32.8424 126.832 32.5508L126.395 31.0195C126.066 31.0924 125.829 31.138 125.684 31.1562L124.918 31.375C124.535 31.4661 124.243 31.5117 124.043 31.5117C123.842 31.5117 123.624 31.4753 123.387 31.4023C123.132 31.3294 122.931 31.2109 122.785 31.0469L122.594 30.7461C122.63 30.6367 122.749 30.5638 122.949 30.5273L123.496 30.4453L125 30.3086L126.121 30.1445ZM137.496 28.9961C137.842 28.9596 138.198 28.8867 138.562 28.7773L139.191 28.6406C139.428 28.6224 139.693 28.668 139.984 28.7773C140.258 28.8867 140.513 29.0143 140.75 29.1602L140.941 29.6797C140.723 29.8073 140.467 29.8711 140.176 29.8711L139.547 29.9258L138.809 29.9531L137.988 29.9805L137.031 30.0898C136.922 30.3997 136.812 30.6732 136.703 30.9102C136.612 31.1654 136.475 31.4297 136.293 31.7031C136.147 31.9766 136.01 32.1771 135.883 32.3047L135.527 32.7148L135.172 32.6055L135.391 31.7305L135.582 30.9102L135.746 30.2539C135.382 30.2904 135.062 30.3451 134.789 30.418L134.242 30.5273L133.723 30.3906C133.449 30.2995 133.24 30.1901 133.094 30.0625V29.707L133.941 29.543C134.434 29.4701 134.78 29.4154 134.98 29.3789L135.883 29.2695C135.919 28.9232 135.947 28.6133 135.965 28.3398C136.001 28.0846 136.02 27.8477 136.02 27.6289C136.001 27.4466 135.965 27.2643 135.91 27.082L135.883 26.7812C135.919 26.6536 136.02 26.5716 136.184 26.5352C136.348 26.5169 136.548 26.5807 136.785 26.7266L137.77 27.2461L138.152 27.6016C138.134 27.7109 138.061 27.8568 137.934 28.0391L137.715 28.3945C137.642 28.5039 137.587 28.6224 137.551 28.75L137.496 28.9961Z" fill="#333333"/>
<path d="M194.316 26.7539C194.189 26.7539 194.052 26.6719 193.906 26.5078C193.797 26.3802 193.724 26.2799 193.688 26.207C193.651 26.1159 193.651 25.9974 193.688 25.8516L193.715 25.1953C193.733 25.0677 193.742 24.7578 193.742 24.2656V23.3633L192.922 23.7461L191.965 24.1562C191.728 24.2474 191.482 24.3568 191.227 24.4844C191.008 24.5938 190.816 24.6484 190.652 24.6484C190.525 24.6302 190.379 24.5846 190.215 24.5117C190.051 24.4388 189.923 24.375 189.832 24.3203C189.632 24.1927 189.54 24.056 189.559 23.9102L189.641 23.6367C189.641 23.4909 189.65 23.3633 189.668 23.2539L189.695 21.668V20.1914C189.695 19.8997 189.677 19.6536 189.641 19.4531C189.604 19.2344 189.577 19.0794 189.559 18.9883C189.559 18.8971 189.586 18.8333 189.641 18.7969C189.659 18.7786 189.704 18.7695 189.777 18.7695C189.905 18.7695 190.151 18.8516 190.516 19.0156C190.826 19.1615 190.953 19.3438 190.898 19.5625C190.862 19.6901 190.826 19.8815 190.789 20.1367L190.707 23.2812C190.707 23.3724 190.716 23.4453 190.734 23.5C190.771 23.5365 190.807 23.5547 190.844 23.5547C191.062 23.5547 191.327 23.4909 191.637 23.3633C192.22 23.181 192.721 22.9987 193.141 22.8164L193.742 22.5703V20.7656C193.742 20.0365 193.697 19.3346 193.605 18.6602C193.587 18.6055 193.578 18.5417 193.578 18.4688C193.578 18.2865 193.651 18.1953 193.797 18.1953C193.815 18.1953 193.915 18.2318 194.098 18.3047C194.371 18.4505 194.572 18.5781 194.699 18.6875C194.827 18.7969 194.9 18.8607 194.918 18.8789C194.991 18.9336 195.027 18.9883 195.027 19.043C195.027 19.0794 195.009 19.125 194.973 19.1797C194.954 19.2344 194.936 19.2799 194.918 19.3164L194.836 20.1367L194.809 22.6523L194.836 25.0859C194.836 25.5052 194.809 25.8698 194.754 26.1797C194.663 26.5625 194.517 26.7539 194.316 26.7539ZM189.285 31.2383C189.085 31.2383 188.839 31.0833 188.547 30.7734C188.328 30.5547 188.219 30.3906 188.219 30.2812C188.219 30.2266 188.255 30.1992 188.328 30.1992C188.401 30.181 188.492 30.1719 188.602 30.1719L189.203 30.1445C189.549 30.1445 189.777 30.1354 189.887 30.1172C190.233 30.1172 190.525 30.1081 190.762 30.0898C192.329 29.944 193.387 29.8255 193.934 29.7344C194.207 29.6979 194.453 29.6615 194.672 29.625C194.891 29.5703 195.064 29.543 195.191 29.543C195.447 29.543 195.702 29.6706 195.957 29.9258C196.158 30.1263 196.258 30.2904 196.258 30.418C196.258 30.5273 196.194 30.6003 196.066 30.6367C195.975 30.6549 195.438 30.6914 194.453 30.7461C193.906 30.7643 193.232 30.8099 192.43 30.8828C191.628 30.9557 190.926 31.0286 190.324 31.1016C190.215 31.1198 190.06 31.1471 189.859 31.1836C189.659 31.2201 189.467 31.2383 189.285 31.2383ZM192.949 42.5312C192.384 42.5312 191.947 42.513 191.637 42.4766C191.345 42.4401 191.099 42.3307 190.898 42.1484C190.552 41.8932 190.315 41.3372 190.188 40.4805L190.105 39.6055C190.105 39.3867 190.087 39.1133 190.051 38.7852C189.759 38.8216 189.549 38.8581 189.422 38.8945C189.385 38.9128 189.322 38.9401 189.23 38.9766C189.158 38.9948 189.103 39.0039 189.066 39.0039C188.939 39.0039 188.82 38.9674 188.711 38.8945C188.602 38.8216 188.465 38.6849 188.301 38.4844C188.173 38.3203 188.109 38.2109 188.109 38.1562C188.109 38.1016 188.173 38.0651 188.301 38.0469C188.428 38.0286 188.602 38.0195 188.82 38.0195C189.13 38.0195 189.531 37.9831 190.023 37.9102L189.996 37.5273C189.996 36.7982 189.951 36.1784 189.859 35.668L189.832 35.4766C189.832 35.2214 189.932 35.1211 190.133 35.1758C190.352 35.2487 190.552 35.3398 190.734 35.4492C190.88 35.5221 190.98 35.5951 191.035 35.668C191.09 35.7227 191.108 35.8047 191.09 35.9141L191.008 37.0898V37.8008L193.414 37.5547C193.414 37.4271 193.423 37.1263 193.441 36.6523C193.46 36.1602 193.46 35.8411 193.441 35.6953C193.441 35.5495 193.423 35.4128 193.387 35.2852C193.368 35.1393 193.35 35.0208 193.332 34.9297C193.332 34.7839 193.405 34.7109 193.551 34.7109C193.697 34.7109 193.879 34.793 194.098 34.957C194.353 35.1211 194.517 35.2669 194.59 35.3945C194.681 35.5221 194.699 35.6771 194.645 35.8594C194.553 36.151 194.49 36.4792 194.453 36.8438C194.417 37.2083 194.398 37.4271 194.398 37.5C194.617 37.4818 194.818 37.4544 195 37.418C195.182 37.3815 195.301 37.3633 195.355 37.3633C195.501 37.3268 195.674 37.3086 195.875 37.3086C195.984 37.3268 196.139 37.4362 196.34 37.6367C196.504 37.8555 196.586 38.0286 196.586 38.1562C196.586 38.3385 196.413 38.4115 196.066 38.375C195.757 38.3203 195.447 38.293 195.137 38.293C194.827 38.293 194.562 38.3021 194.344 38.3203C194.289 38.9766 194.18 39.6237 194.016 40.2617C193.979 40.4076 193.915 40.5352 193.824 40.6445C193.733 40.7357 193.651 40.7812 193.578 40.7812C193.451 40.7812 193.368 40.7357 193.332 40.6445C193.314 40.5352 193.305 40.3711 193.305 40.1523C193.341 39.6784 193.359 39.0859 193.359 38.375C192.867 38.4115 192.484 38.4479 192.211 38.4844C191.792 38.5755 191.4 38.6302 191.035 38.6484C191.017 39.3958 191.053 40.0612 191.145 40.6445C191.199 41.0273 191.309 41.2917 191.473 41.4375C191.582 41.5286 191.71 41.5833 191.855 41.6016C192.02 41.6198 192.184 41.6289 192.348 41.6289C192.512 41.6289 192.621 41.6289 192.676 41.6289C193.241 41.6289 193.77 41.6016 194.262 41.5469C194.408 41.5286 194.535 41.4922 194.645 41.4375C194.772 41.3828 194.863 41.3555 194.918 41.3555C195.082 41.3555 195.246 41.4102 195.41 41.5195C195.574 41.6289 195.656 41.7565 195.656 41.9023C195.656 42.0482 195.574 42.1576 195.41 42.2305C195.264 42.3034 195.027 42.3672 194.699 42.4219C194.116 42.4948 193.533 42.5312 192.949 42.5312ZM200.742 30.0898C200.961 30.0898 201.07 30.1901 201.07 30.3906C201.07 30.5 200.97 30.6549 200.77 30.8555C200.223 31.5299 199.138 32.8151 197.516 34.7109C197.388 34.875 197.27 34.957 197.16 34.957C197.069 34.957 196.868 34.8203 196.559 34.5469C196.303 34.3281 196.176 34.1458 196.176 34C196.176 33.8359 196.312 33.681 196.586 33.5352C197.005 33.2982 197.634 32.8242 198.473 32.1133C199.311 31.3659 199.931 30.7734 200.332 30.3359C200.496 30.1719 200.633 30.0898 200.742 30.0898ZM170.883 36.5977C170.792 36.4518 170.719 36.3242 170.664 36.2148C170.591 36.1055 170.518 35.9596 170.445 35.7773V35.1211L171.184 35.2852L171.922 35.6133C172.25 35.7591 172.542 35.9049 172.797 36.0508C173.052 36.2148 173.262 36.4609 173.426 36.7891C173.553 37.0625 173.617 37.3815 173.617 37.7461C173.599 38.1107 173.508 38.3932 173.344 38.5938C173.198 38.7943 173.007 38.8945 172.77 38.8945C172.533 38.8945 172.286 38.7487 172.031 38.457C171.885 38.3112 171.749 38.1016 171.621 37.8281L171.211 37.1445L168.258 39.2773L167.273 40.0977L166.617 40.7539L166.289 40.9727C166.107 40.9727 165.924 40.8542 165.742 40.6172C165.578 40.4167 165.432 40.1706 165.305 39.8789C165.195 39.6419 165.141 39.4141 165.141 39.1953L165.305 38.6758C165.414 38.3841 165.496 38.0833 165.551 37.7734C165.605 37.4453 165.651 37.0716 165.688 36.6523C165.724 36.2513 165.76 35.668 165.797 34.9023L165.934 30.1445C165.934 29.8893 165.924 29.625 165.906 29.3516C165.87 29.0781 165.824 28.8503 165.77 28.668C165.715 28.4857 165.633 28.3216 165.523 28.1758L165.305 27.957L165.25 27.6836C165.323 27.5742 165.451 27.5195 165.633 27.5195C166.07 27.5195 166.417 27.5924 166.672 27.7383L167.082 27.957C167.538 27.9023 167.911 27.8477 168.203 27.793C168.513 27.7565 168.896 27.6836 169.352 27.5742C169.789 27.4648 170.126 27.3737 170.363 27.3008C170.6 27.2279 170.846 27.1367 171.102 27.0273C171.357 26.918 171.557 26.8633 171.703 26.8633C171.849 26.8815 172.022 26.9362 172.223 27.0273L172.797 27.3281L173.152 27.5742C173.48 27.7747 173.69 27.9388 173.781 28.0664L173.809 28.5586L173.535 28.9688C173.48 29.0781 173.398 29.2604 173.289 29.5156L173.152 29.9258L172.469 32.4688L172.195 33.5352C172.049 33.8997 171.904 34.1276 171.758 34.2188L171.457 34.3281H171.266L170.91 33.9727C170.418 34.0273 170.044 34.0638 169.789 34.082L167.902 34.3555L167.219 34.4102L167.055 37.418L167.164 38.0195C167.31 38.0195 167.474 37.9831 167.656 37.9102L170.883 36.5977ZM167.219 33.5078C167.547 33.4896 167.802 33.4714 167.984 33.4531C168.167 33.4349 168.44 33.3802 168.805 33.2891C169.206 33.1979 169.552 33.125 169.844 33.0703C170.062 33.0339 170.263 33.0156 170.445 33.0156L170.965 33.0703L171.43 30.9648C170.974 31.0013 170.637 31.0378 170.418 31.0742L169.105 31.293C168.723 31.3659 168.413 31.4023 168.176 31.4023L167.738 31.3477L167.328 31.2109L167.219 33.5078ZM167.355 30.6367C167.702 30.6185 167.975 30.5911 168.176 30.5547C168.376 30.5182 168.714 30.4362 169.188 30.3086C169.625 30.181 169.953 30.1081 170.172 30.0898C170.482 30.0898 170.783 30.1445 171.074 30.2539L171.512 30.418L171.648 29.5703C171.685 29.3333 171.703 29.069 171.703 28.7773C171.703 28.4857 171.658 28.2943 171.566 28.2031C171.475 28.112 171.348 28.0664 171.184 28.0664C171.001 28.0846 170.773 28.1302 170.5 28.2031C170.245 28.2578 169.826 28.3398 169.242 28.4492C168.641 28.5586 168.258 28.6133 168.094 28.6133L167.52 28.6406L167.355 30.6367ZM177.227 29.4883C177.154 29.7799 177.108 29.9987 177.09 30.1445C177.072 30.2904 177.044 30.5273 177.008 30.8555C176.971 31.1836 176.953 31.457 176.953 31.6758L176.871 37.1992C176.853 37.9648 176.789 38.8581 176.68 39.8789L176.57 41.0547C176.497 41.7656 176.37 42.3763 176.188 42.8867C176.005 43.3789 175.841 43.625 175.695 43.625C175.568 43.6068 175.458 43.3424 175.367 42.832C175.276 42.3398 175.221 41.7656 175.203 41.1094C175.185 40.6719 175.176 40.2344 175.176 39.7969V39.1133L175.285 31.9492C175.303 31.4753 175.312 31.0924 175.312 30.8008C175.312 30.5091 175.303 30.3086 175.285 30.1992C175.267 29.9622 175.24 29.6888 175.203 29.3789C175.167 29.069 175.103 28.8138 175.012 28.6133L174.902 28.0664L175.039 27.9023C175.203 27.9023 175.404 27.9388 175.641 28.0117C176.115 28.1576 176.424 28.276 176.57 28.3672L177.008 28.6406L178.348 28.3398C178.803 28.2305 179.268 28.1029 179.742 27.957L180.344 27.793C180.635 27.7018 180.891 27.6016 181.109 27.4922L181.492 27.3555C181.62 27.3555 181.775 27.4102 181.957 27.5195C182.139 27.6289 182.331 27.7565 182.531 27.9023C182.75 28.0482 182.96 28.2122 183.16 28.3945C183.324 28.5404 183.379 28.7591 183.324 29.0508C183.178 29.2513 183.078 29.4336 183.023 29.5977C182.987 29.7617 182.951 29.9805 182.914 30.2539C182.878 30.5456 182.859 30.8464 182.859 31.1562L182.695 34.082C182.659 34.8112 182.604 35.3763 182.531 35.7773C182.477 36.1784 182.358 36.5339 182.176 36.8438C181.975 37.1536 181.747 37.3997 181.492 37.582L181 37.8008C180.854 37.7643 180.708 37.6549 180.562 37.4727C180.398 37.2721 180.171 37.0169 179.879 36.707C179.605 36.3789 179.341 36.0872 179.086 35.832L178.594 35.3945L178.43 35.0117C178.539 34.9935 178.667 35.0117 178.812 35.0664L179.441 35.2578C179.806 35.3854 180.089 35.4583 180.289 35.4766C180.453 35.4766 180.59 35.4492 180.699 35.3945C180.863 35.2852 180.964 35.0482 181 34.6836C181.055 34.2826 181.091 33.8997 181.109 33.5352L181.219 29.9805C181.219 29.5612 181.201 29.2878 181.164 29.1602L181.055 28.9414C180.945 28.832 180.781 28.7773 180.562 28.7773C180.38 28.7773 180.07 28.8138 179.633 28.8867L178.402 29.1328L177.227 29.4883ZM177.773 21.0938L181.219 20.4102C181.401 20.3737 181.602 20.319 181.82 20.2461L182.312 20.1367C182.549 20.1185 182.75 20.1276 182.914 20.1641C183.133 20.2188 183.361 20.319 183.598 20.4648L183.98 20.7383C183.999 20.8477 183.935 20.9753 183.789 21.1211C183.643 21.2305 183.434 21.3125 183.16 21.3672L182.148 21.5586C181.857 21.5951 181.447 21.6497 180.918 21.7227C180.389 21.7773 179.915 21.832 179.496 21.8867C179.077 21.9596 178.794 21.9961 178.648 21.9961C178.357 21.9961 178.074 21.9596 177.801 21.8867L177.336 21.8047L176.543 22.8984C176.233 23.2995 175.859 23.7096 175.422 24.1289C174.948 24.5664 174.638 24.8307 174.492 24.9219L174 25.2227L173.672 25.332L173.48 25.1953L173.672 24.8945L174.273 24.1289C174.529 23.819 174.738 23.5456 174.902 23.3086C175.066 23.0534 175.258 22.7344 175.477 22.3516C175.714 21.9688 175.905 21.6315 176.051 21.3398C176.178 21.0664 176.297 20.793 176.406 20.5195C176.516 20.2279 176.598 19.9909 176.652 19.8086C176.707 19.6081 176.771 19.4076 176.844 19.207C176.88 18.9883 176.898 18.7878 176.898 18.6055L177.062 18.168L177.254 18.0859C177.382 18.0859 177.527 18.1224 177.691 18.1953C177.91 18.2865 178.138 18.4049 178.375 18.5508C178.612 18.6966 178.794 18.8516 178.922 19.0156L179.086 19.3438L179.031 19.5898C178.94 19.681 178.812 19.8086 178.648 19.9727C178.466 20.1549 178.302 20.3372 178.156 20.5195L177.773 21.0938ZM168.75 21.7773L169.516 21.6406C169.844 21.5859 170.363 21.4492 171.074 21.2305L171.484 21.0938L172.168 20.9023L172.578 20.9844C172.797 21.0391 172.961 21.0846 173.07 21.1211C173.18 21.1758 173.289 21.2487 173.398 21.3398L173.59 21.5312C173.608 21.6589 173.562 21.7682 173.453 21.8594C173.307 21.9505 173.07 22.0326 172.742 22.1055L172.086 22.2695C171.94 22.306 171.576 22.3607 170.992 22.4336L170.062 22.5703C169.826 22.5885 169.634 22.5977 169.488 22.5977L169.133 22.5703L168.422 22.3242L167.602 23.2812C167.346 23.5911 167.055 23.901 166.727 24.2109C166.398 24.5391 166.098 24.8034 165.824 25.0039C165.551 25.1862 165.259 25.3685 164.949 25.5508L164.02 25.8516C164.001 25.724 164.047 25.6055 164.156 25.4961L164.621 25.0586C164.895 24.8034 165.141 24.5482 165.359 24.293C165.578 24.0742 165.842 23.7461 166.152 23.3086C166.462 22.8711 166.745 22.4336 167 21.9961C167.255 21.5951 167.474 21.2305 167.656 20.9023C167.82 20.5742 167.957 20.2643 168.066 19.9727C168.176 19.681 168.23 19.3893 168.23 19.0977L168.449 18.6875C168.686 18.6875 168.941 18.7695 169.215 18.9336C169.488 19.0794 169.671 19.1979 169.762 19.2891C169.871 19.3802 169.971 19.4805 170.062 19.5898L170.227 20.1367C170.19 20.2461 170.099 20.3464 169.953 20.4375L169.652 20.6289L169.133 21.3398L168.75 21.7773ZM168.859 23.9375C169.06 23.901 169.242 23.8919 169.406 23.9102L170.008 24.0469C170.172 24.1016 170.354 24.1562 170.555 24.2109C170.755 24.2656 170.919 24.3477 171.047 24.457C171.193 24.5664 171.293 24.6758 171.348 24.7852C171.402 24.8945 171.43 25.0586 171.43 25.2773C171.43 25.569 171.357 25.7878 171.211 25.9336C171.083 26.0794 170.919 26.1615 170.719 26.1797C170.555 26.1797 170.354 26.0794 170.117 25.8789C169.953 25.7513 169.734 25.5326 169.461 25.2227C169.188 24.931 168.987 24.7031 168.859 24.5391C168.75 24.375 168.75 24.1745 168.859 23.9375ZM178.211 23.0352L178.895 23.1445C179.387 23.2539 179.806 23.3906 180.152 23.5547C180.48 23.7188 180.727 23.9102 180.891 24.1289C181.036 24.3477 181.109 24.6393 181.109 25.0039C181.091 25.4414 180.936 25.724 180.645 25.8516C180.408 25.8516 180.18 25.7786 179.961 25.6328C179.669 25.4688 179.387 25.2318 179.113 24.9219L178.43 24.0742L177.91 23.0625C178.038 23.026 178.138 23.0169 178.211 23.0352Z" fill="#333333"/>
<path d="M236.152 26.6719C235.879 26.6719 235.642 26.5716 235.441 26.3711C234.84 25.7148 234.229 25.1224 233.609 24.5938C232.917 24.0104 232.306 23.5729 231.777 23.2812C231.522 23.1354 231.395 22.9076 231.395 22.5977C231.395 22.543 231.458 22.4701 231.586 22.3789C231.75 22.2695 232.014 22.0326 232.379 21.668L233.363 20.7109C233.801 20.2552 234.165 19.8451 234.457 19.4805C234.767 19.1159 234.94 18.8607 234.977 18.7148C234.995 18.6784 235.013 18.6055 235.031 18.4961C235.068 18.3685 235.122 18.3047 235.195 18.3047C235.286 18.3047 235.405 18.3503 235.551 18.4414C235.715 18.5326 235.852 18.6237 235.961 18.7148C236.234 18.9701 236.371 19.1888 236.371 19.3711C236.353 19.4258 236.28 19.4896 236.152 19.5625C236.043 19.6172 235.943 19.6719 235.852 19.7266C235.76 19.7995 235.432 20.0911 234.867 20.6016L233.09 22.1328C232.78 22.388 232.625 22.5885 232.625 22.7344C232.625 22.8073 232.771 22.9258 233.062 23.0898C233.409 23.3086 234.083 23.7552 235.086 24.4297C235.469 24.6849 235.833 24.9674 236.18 25.2773C236.471 25.569 236.617 25.8698 236.617 26.1797C236.617 26.3255 236.553 26.4531 236.426 26.5625C236.353 26.6354 236.262 26.6719 236.152 26.6719ZM231.285 31.2383C231.085 31.2383 230.839 31.0833 230.547 30.7734C230.328 30.5547 230.219 30.3906 230.219 30.2812C230.219 30.2266 230.255 30.1992 230.328 30.1992C230.401 30.181 230.492 30.1719 230.602 30.1719L231.203 30.1445C231.549 30.1445 231.777 30.1354 231.887 30.1172C232.233 30.1172 232.525 30.1081 232.762 30.0898C234.329 29.944 235.387 29.8255 235.934 29.7344C236.207 29.6979 236.453 29.6615 236.672 29.625C236.891 29.5703 237.064 29.543 237.191 29.543C237.447 29.543 237.702 29.6706 237.957 29.9258C238.158 30.1263 238.258 30.2904 238.258 30.418C238.258 30.5273 238.194 30.6003 238.066 30.6367C237.975 30.6549 237.438 30.6914 236.453 30.7461C235.906 30.7643 235.232 30.8099 234.43 30.8828C233.628 30.9557 232.926 31.0286 232.324 31.1016C232.215 31.1198 232.06 31.1471 231.859 31.1836C231.659 31.2201 231.467 31.2383 231.285 31.2383ZM231.121 42.1484C230.848 42.1484 230.638 42.0755 230.492 41.9297C230.328 41.7656 230.246 41.6198 230.246 41.4922C230.246 41.3646 230.319 41.2279 230.465 41.082C230.483 41.0638 230.583 40.918 230.766 40.6445C231.167 40.0065 231.622 39.1953 232.133 38.2109C232.661 37.2083 232.99 36.5247 233.117 36.1602C233.227 35.8138 233.327 35.513 233.418 35.2578C233.527 35.0026 233.618 34.875 233.691 34.875C233.819 34.875 233.928 34.9206 234.02 35.0117C234.111 35.0846 234.202 35.194 234.293 35.3398C234.402 35.4674 234.484 35.5586 234.539 35.6133C234.667 35.7591 234.73 35.8958 234.73 36.0234C234.73 36.1146 234.694 36.2057 234.621 36.2969C234.548 36.388 234.503 36.4518 234.484 36.4883L233.281 38.5117C232.971 39.0768 232.561 39.7786 232.051 40.6172C231.978 40.7083 231.941 40.7995 231.941 40.8906C231.941 40.9635 232.023 41 232.188 41C232.534 41 233.181 40.9635 234.129 40.8906C235.077 40.7995 235.715 40.7266 236.043 40.6719C236.517 40.6172 236.845 40.5625 237.027 40.5078C237.228 40.4531 237.52 40.5898 237.902 40.918C238.358 41.3008 238.458 41.5469 238.203 41.6562C238.057 41.7292 237.775 41.7656 237.355 41.7656H236.262C236.025 41.7656 235.651 41.7839 235.141 41.8203C234.831 41.8203 234.484 41.8294 234.102 41.8477C233.719 41.8659 233.4 41.8841 233.145 41.9023C232.853 41.9206 232.288 41.9753 231.449 42.0664L231.121 42.1484ZM239.242 32.2773C239.333 32.2773 239.47 32.3411 239.652 32.4688C239.634 32.5052 239.671 32.5781 239.762 32.6875C239.853 32.7786 239.917 32.8424 239.953 32.8789C240.044 32.9701 240.135 33.0794 240.227 33.207C240.336 33.3346 240.454 33.4714 240.582 33.6172C240.91 33.9635 241.667 34.8659 242.852 36.3242C243.052 36.6159 243.152 36.7891 243.152 36.8438C243.152 37.026 243.043 37.1172 242.824 37.1172C242.697 37.1172 242.56 37.026 242.414 36.8438C242.068 36.4792 241.448 35.9049 240.555 35.1211C239.862 34.4831 239.233 33.9909 238.668 33.6445C238.395 33.5169 238.258 33.3711 238.258 33.207C238.258 33.0794 238.395 32.8971 238.668 32.6602C238.923 32.4049 239.115 32.2773 239.242 32.2773ZM217.422 21.5586C217.185 21.3763 216.984 21.2122 216.82 21.0664C216.674 20.9023 216.51 20.6836 216.328 20.4102L215.918 19.7539C215.754 19.4987 215.681 19.2161 215.699 18.9062C215.845 18.8698 216 18.8698 216.164 18.9062C216.419 18.9609 216.702 19.043 217.012 19.1523C217.322 19.2617 217.586 19.3893 217.805 19.5352C218.023 19.681 218.197 19.8633 218.324 20.082L218.461 20.5742L218.242 21.4492C218.57 21.4128 218.908 21.3672 219.254 21.3125L220.293 21.1484L221.469 20.9297L222.344 20.793L222.809 20.7109C223.009 20.7292 223.201 20.7656 223.383 20.8203L224.039 21.1211C224.258 21.2305 224.44 21.4401 224.586 21.75C224.549 21.8776 224.44 21.9414 224.258 21.9414L223.602 21.9961C223.346 22.0143 222.891 22.0326 222.234 22.0508L221.195 22.1055L219.445 22.2695C219.846 22.3971 220.102 22.5247 220.211 22.6523L220.43 22.9805C220.43 23.1081 220.402 23.263 220.348 23.4453L220.211 23.7734L220.156 24.1562L220.84 24.0742L221.797 23.9102L222.562 23.7461L222.945 23.6914C223.128 23.6914 223.319 23.737 223.52 23.8281C223.72 23.9193 223.939 24.0469 224.176 24.2109C224.413 24.375 224.577 24.5299 224.668 24.6758L224.777 24.9492C224.759 25.0586 224.686 25.1497 224.559 25.2227C224.431 25.332 224.276 25.4779 224.094 25.6602C223.911 25.8424 223.784 25.9792 223.711 26.0703L223.383 26.7539L223.738 27.3008C223.684 27.4284 223.574 27.5013 223.41 27.5195L222.781 27.5742L221.66 27.6016L221.059 27.6562L220.184 27.7383L215.562 28.2305L213.539 28.4492C212.883 28.5221 212.372 28.5586 212.008 28.5586H210.805L210.668 29.2695L210.531 29.8984C210.859 29.8802 211.115 29.8529 211.297 29.8164L213.293 29.6523C214.587 29.5247 215.38 29.4427 215.672 29.4062L221.523 28.7773C221.924 28.7409 222.326 28.6862 222.727 28.6133C223.128 28.5768 223.474 28.5221 223.766 28.4492L224.586 28.3125L225.023 28.2852C225.206 28.2852 225.452 28.349 225.762 28.4766C226.053 28.5859 226.354 28.7135 226.664 28.8594C226.992 29.0052 227.257 29.1693 227.457 29.3516L227.758 29.7344L227.676 29.9531C227.585 30.0443 227.43 30.1081 227.211 30.1445C226.992 30.181 226.792 30.2357 226.609 30.3086C226.391 30.3815 226.154 30.4818 225.898 30.6094C225.625 30.737 225.424 30.8372 225.297 30.9102L224.777 31.1562L224.477 31.0469L224.75 30.4453C224.823 30.2995 224.878 30.1263 224.914 29.9258L224.941 29.5977C224.887 29.4883 224.759 29.4336 224.559 29.4336C224.431 29.4518 224.258 29.4701 224.039 29.4883C223.784 29.5065 223.328 29.543 222.672 29.5977C221.979 29.6341 221.396 29.6706 220.922 29.707L216.109 30.1719C215.544 30.2266 214.943 30.2904 214.305 30.3633L212.664 30.5547C212.008 30.6276 211.552 30.6823 211.297 30.7188L210.805 30.7734L210.422 30.6914L209.875 32.6055C209.711 33.1888 209.492 33.8451 209.219 34.5742C208.964 35.3034 208.645 36.0326 208.262 36.7617C207.879 37.4909 207.478 38.1289 207.059 38.6758C206.639 39.2227 206.229 39.6966 205.828 40.0977C205.391 40.4987 205.026 40.7995 204.734 41L203.969 41.5195L203.668 41.4375L204.297 40.6445C204.552 40.3893 204.844 40.0156 205.172 39.5234L206.266 37.8008C206.648 37.1445 206.967 36.5339 207.223 35.9688C207.496 35.4036 207.77 34.7201 208.043 33.918C208.335 33.1341 208.572 32.4049 208.754 31.7305C208.954 31.0742 209.128 30.3268 209.273 29.4883C209.419 28.6862 209.529 27.9844 209.602 27.3828C209.674 26.7995 209.729 26.2526 209.766 25.7422V24.5117C209.747 24.2201 209.729 24.0195 209.711 23.9102L209.547 23.4727L209.219 23.2539C209.109 23.181 209.009 23.0443 208.918 22.8438C208.973 22.7344 209.109 22.6706 209.328 22.6523L209.984 22.5703L211.297 22.4062L212.309 22.3242L213.293 22.1602L217.422 21.5586ZM210.941 27.8203C211.525 27.8021 212.062 27.7747 212.555 27.7383C213.029 27.7018 213.43 27.6654 213.758 27.6289L214.797 27.5195L214.742 25.7148L213.758 25.8789L212.691 26.0156L212.035 26.1523C211.816 26.1523 211.652 26.125 211.543 26.0703L211.188 25.9336L211.078 26.7539L210.941 27.8203ZM211.297 25.3047C212.354 25.1953 213.02 25.1133 213.293 25.0586L214.66 24.8945C214.642 24.6029 214.624 24.3294 214.605 24.0742C214.587 23.8372 214.542 23.6185 214.469 23.418L214.305 22.8984L211.516 23.418L211.625 24.0469C211.516 24.3203 211.443 24.5664 211.406 24.7852L211.297 25.3047ZM215.18 22.707C215.398 22.7799 215.562 22.8438 215.672 22.8984L215.918 23.0078L216.082 23.2539C216.1 23.3815 216.091 23.5273 216.055 23.6914L215.918 24.1562L215.891 24.7305C216.583 24.6576 217.003 24.6029 217.148 24.5664L218.57 24.3477C218.607 24.0924 218.625 23.8919 218.625 23.7461V23.1992C218.607 22.9805 218.579 22.8164 218.543 22.707L218.406 22.3242C217.622 22.4336 217.167 22.4883 217.039 22.4883L215.18 22.707ZM215.809 27.3555C216.538 27.2826 216.984 27.2279 217.148 27.1914L218.434 27.0273L218.543 25.2773L217.258 25.4414L215.891 25.5781L215.836 26.2617L215.809 27.3555ZM219.527 26.8086C219.837 26.7721 220.083 26.7357 220.266 26.6992L221.141 26.5898C221.359 26.5716 221.578 26.5352 221.797 26.4805L222.18 26.3984L222.398 25.8242C222.453 25.6055 222.48 25.3776 222.48 25.1406C222.408 25.013 222.262 24.9401 222.043 24.9219C221.915 24.9219 221.706 24.931 221.414 24.9492L220.539 25.0586L219.883 25.1133L219.527 26.8086ZM213.594 37.0898C213.484 37.0169 213.375 36.9622 213.266 36.9258C213.156 36.8529 212.974 36.7708 212.719 36.6797L212.281 36.5156L212.172 36.2422C212.281 36.151 212.409 36.0964 212.555 36.0781L213.074 36.1055C213.202 36.1237 213.475 36.2057 213.895 36.3516C214.168 36.1693 214.341 36.0143 214.414 35.8867C214.487 35.7773 214.578 35.5859 214.688 35.3125C214.797 35.0391 214.87 34.8112 214.906 34.6289L215.043 33.9727C215.152 33.9544 215.289 33.9909 215.453 34.082C215.581 34.1549 215.717 34.2461 215.863 34.3555C216.009 34.4648 216.146 34.5742 216.273 34.6836C216.383 34.793 216.438 35.0391 216.438 35.4219C216.255 35.5495 216.109 35.6953 216 35.8594C216.219 35.8776 216.419 35.8685 216.602 35.832C216.766 35.832 217.148 35.7956 217.75 35.7227C218.37 35.668 218.853 35.6133 219.199 35.5586C219.546 35.5221 219.846 35.4766 220.102 35.4219C220.357 35.3672 220.612 35.349 220.867 35.3672C221.086 35.4219 221.332 35.5221 221.605 35.668C221.879 35.8138 222.052 36.0326 222.125 36.3242C222.125 36.4518 222.025 36.5794 221.824 36.707C221.624 36.8529 221.441 37.0169 221.277 37.1992L220.594 38.1836C220.375 38.457 220.111 38.7669 219.801 39.1133L219.336 39.6055C219.792 39.8242 220.211 40.0065 220.594 40.1523C220.958 40.2982 221.523 40.4805 222.289 40.6992C223.018 40.918 223.638 41.082 224.148 41.1914L225.898 41.4922C226.536 41.5833 227.01 41.6562 227.32 41.7109L228.25 41.875C228.414 41.9115 228.46 42.0299 228.387 42.2305L227.32 42.4766C226.938 42.5677 226.454 42.6497 225.871 42.7227C225.27 42.8138 224.814 42.8685 224.504 42.8867C224.176 42.9232 223.72 42.9414 223.137 42.9414C222.717 42.9414 222.408 42.9232 222.207 42.8867C221.934 42.8503 221.669 42.7773 221.414 42.668C221.159 42.5404 220.758 42.2943 220.211 41.9297L219.117 41.1641L218.297 40.5898L217.203 41.3008C216.875 41.5013 216.456 41.6927 215.945 41.875C215.435 42.0391 214.906 42.1758 214.359 42.2852C213.812 42.3945 213.393 42.4583 213.102 42.4766L212.281 42.5312L211.953 42.4766C211.953 42.349 212.072 42.2487 212.309 42.1758L213.047 41.957L214.168 41.5742C214.678 41.3737 215.161 41.1549 215.617 40.918C216.055 40.681 216.438 40.444 216.766 40.207L217.312 39.7969L216.191 38.8945C215.882 38.6758 215.599 38.4661 215.344 38.2656L214.66 37.7461C214.423 38.0195 214.168 38.293 213.895 38.5664C213.621 38.8216 213.229 39.1406 212.719 39.5234C212.208 39.9062 211.716 40.207 211.242 40.4258C210.805 40.6628 210.404 40.8268 210.039 40.918L208.918 41.1094C208.9 41 208.945 40.918 209.055 40.8633L209.93 40.3438C210.185 40.1979 210.504 39.9792 210.887 39.6875C211.27 39.4141 211.671 39.0859 212.09 38.7031C212.509 38.3203 212.828 38.0013 213.047 37.7461L213.594 37.0898ZM215.508 36.5977L215.125 37.0898L215.891 37.6367L216.547 38.0742L217.641 38.7305L218.188 39.0586L218.789 38.375C218.971 38.138 219.099 37.9648 219.172 37.8555L219.773 36.9258C219.919 36.707 219.983 36.4518 219.965 36.1602C219.837 36.1419 219.701 36.151 219.555 36.1875C219.336 36.2422 218.98 36.2878 218.488 36.3242C217.996 36.3607 217.54 36.4336 217.121 36.543L216.328 36.6797H215.891L215.508 36.5977ZM214.359 32.0039L214.141 31.5117L214.305 31.2383L214.742 31.7305C214.979 32.0586 215.216 32.3229 215.453 32.5234C215.672 32.724 215.982 32.9154 216.383 33.0977C216.784 33.2799 217.176 33.3984 217.559 33.4531C217.759 33.4714 217.96 33.4805 218.16 33.4805C218.379 33.4805 218.607 33.4714 218.844 33.4531C219.281 33.4349 219.628 33.3802 219.883 33.2891L220.266 33.0703C220.284 32.9427 220.229 32.7695 220.102 32.5508L219.828 32.0039L219.938 31.6211L220.484 32.0039C220.594 32.0768 220.812 32.2044 221.141 32.3867C221.469 32.569 221.742 32.6966 221.961 32.7695C222.143 32.8424 222.307 32.9245 222.453 33.0156C222.562 33.1068 222.581 33.2799 222.508 33.5352C222.362 33.7174 222.171 33.8724 221.934 34C221.697 34.1276 221.414 34.2279 221.086 34.3008C220.758 34.3737 220.329 34.4284 219.801 34.4648C219.454 34.4831 219.117 34.4922 218.789 34.4922H218.297C217.75 34.474 217.331 34.4193 217.039 34.3281C216.729 34.237 216.401 34.1003 216.055 33.918C215.727 33.7357 215.49 33.5716 215.344 33.4258C215.198 33.2799 215.007 33.043 214.77 32.7148C214.533 32.3867 214.396 32.1497 214.359 32.0039ZM211.023 33.9453V33.7266C211.096 33.5625 211.206 33.3984 211.352 33.2344L211.844 32.6602C212.026 32.4414 212.163 32.2318 212.254 32.0312L212.637 31.6484C212.764 31.6667 212.855 31.776 212.91 31.9766C212.965 32.1771 213.001 32.4141 213.02 32.6875C213.02 32.9062 212.992 33.1068 212.938 33.2891C212.865 33.526 212.755 33.7539 212.609 33.9727C212.464 34.1914 212.29 34.3737 212.09 34.5195L211.707 34.7383C211.525 34.7383 211.379 34.6836 211.27 34.5742C211.142 34.4648 211.06 34.2552 211.023 33.9453ZM216.629 30.5547H216.848C217.267 30.6276 217.549 30.6823 217.695 30.7188L218.188 30.9102L218.461 31.1289L218.625 31.4297C218.625 31.5938 218.607 31.7487 218.57 31.8945L218.461 32.2227C218.352 32.332 218.224 32.4049 218.078 32.4414C217.932 32.4414 217.768 32.3594 217.586 32.1953C217.495 32.1224 217.331 31.9401 217.094 31.6484C216.875 31.3568 216.729 31.1471 216.656 31.0195C216.583 30.8919 216.574 30.737 216.629 30.5547ZM221.168 30.1719L221.852 30.3086L222.672 30.4727C222.854 30.5091 223.055 30.582 223.273 30.6914L223.629 30.8828C223.702 30.9922 223.738 31.1927 223.738 31.4844L223.711 31.8125L223.574 32.0859L223.246 32.168C222.936 32.1315 222.635 31.9766 222.344 31.7031L221.633 31.0469C221.305 30.7917 221.086 30.6003 220.977 30.4727L220.949 30.1992L221.168 30.1719Z" fill="#333333"/>
</svg>
