<svg xmlns="http://www.w3.org/2000/svg" width="340" height="60" fill="none"><path fill="#333" d="M55.21 26.945c-.108 0-.254-.118-.437-.355-.182-.255-.264-.474-.246-.656.037-.146.064-.556.082-1.23a70.63 70.63 0 0 0 .028-2.407c0-.802-.01-1.34-.028-1.613l-.902.082c-.638.09-1.185.136-1.64.136-.128 0-.31-.1-.547-.3-.237-.201-.356-.347-.356-.438 0-.146.155-.2.465-.164.2.018.793.01 1.777-.027a88.862 88.862 0 0 1 2.926-.164c.31-.019.593-.046.848-.082.273-.055.465-.092.574-.11.164-.018.31 0 .437.055.128.055.246.127.356.219.128.073.228.127.3.164.165.11.247.21.247.3 0 .073-.046.146-.137.22a.4.4 0 0 1-.246.081 3.71 3.71 0 0 1-.383-.027 4.003 4.003 0 0 0-.492-.027c-.675 0-1.367.018-2.078.054-.018.146-.028.51-.028 1.094-.036.984-.054 1.95-.054 2.898v1.313c0 .31-.028.51-.082.602-.164.255-.292.382-.383.382Zm-2.925 4.84c-.2 0-.446-.155-.738-.465-.219-.218-.328-.383-.328-.492 0-.055.036-.082.11-.082.072-.018.163-.027.273-.027l.601-.028c.346 0 .574-.009.684-.027.346 0 .638-.01.875-.027 1.567-.146 2.625-.265 3.172-.356.273-.036.52-.073.738-.11.219-.054.392-.081.52-.081.255 0 .51.127.765.383.2.2.3.364.3.492 0 .11-.063.182-.19.219-.092.018-.63.054-1.614.109-.547.018-1.221.064-2.023.137a71.75 71.75 0 0 0-2.106.218l-.465.082c-.2.037-.392.055-.574.055Zm5.88 9.434c.035.073.1.182.19.328a.96.96 0 0 1 .137.52.52.52 0 0 1-.219.437.728.728 0 0 1-.492.191c-.164 0-.3-.164-.41-.492-.055-.128-.1-.237-.137-.328a2.682 2.682 0 0 0-.054-.191 6.292 6.292 0 0 1-.93.191c-.383.055-.656.1-.82.137-.875.164-1.477.282-1.805.355-.128.037-.264.073-.41.11a1.132 1.132 0 0 0-.246.109.867.867 0 0 1-.246.055.575.575 0 0 1-.41-.192 1.493 1.493 0 0 1-.493-.656c-.018-.018-.027-.046-.027-.082 0-.036.046-.082.137-.137a2.12 2.12 0 0 1 .246-.11c.237-.127.656-.51 1.258-1.148l.738-.71-1.613-.876c-.183-.054-.301-.118-.356-.19-.055-.074-.082-.183-.082-.33 0-.108.018-.181.055-.218.054-.054.164-.136.328-.246.164-.11.328-.255.492-.437.091-.11.21-.228.356-.356.145-.128.282-.264.41-.41.547-.638.893-1.14 1.039-1.504.09-.182.164-.273.218-.273.037 0 .11.036.22.109.346.255.555.492.628.71v.083c0 .091-.045.164-.136.219-.092.054-.156.1-.192.136-.055.037-.328.301-.82.793l-.492.493c-.092.09-.246.246-.465.464-.219.201-.328.32-.328.356 0 .055.027.1.082.137a.638.638 0 0 1 .164.109l1.148.547c.711-.711 1.121-1.13 1.23-1.258.475-.547.739-.893.794-1.039a.636.636 0 0 0 .082-.137c.036-.073.073-.11.109-.11.055 0 .11.028.164.083.292.273.501.529.629.766a.479.479 0 0 1 .055.136c0 .037-.046.091-.137.164l-.219.164c-.638.53-1.385 1.222-2.242 2.078l-1.668 1.56c-.036.036-.055.072-.055.108 0 .037.019.064.055.083.036.018.091.018.164 0l3.2-.547c-.092-.365-.201-.73-.329-1.094v-.055c0-.054.028-.082.082-.082.073 0 .183.055.328.164.292.255.657.693 1.094 1.313Zm5.687-8.778c.054 0 .109.028.164.082a.266.266 0 0 1 .109.164v.055c0 .128-.1.374-.3.739l-1.97 3.417c-.145.31-.337.465-.574.465-.237 0-.437-.146-.601-.437a9.248 9.248 0 0 1-.602-1.067 3.33 3.33 0 0 1-.273-.492 9.53 9.53 0 0 0-.164-.355c-.2-.347-.301-.593-.301-.739 0-.073.027-.127.082-.164.055-.054.11-.082.164-.082.2 0 .383.11.547.328.127.128.228.265.3.41l.301.41.547.63.246-.383c.256-.438.857-1.303 1.805-2.598.2-.255.374-.383.52-.383ZM36.234 20.656c0-.437-.118-.802-.355-1.093-.091-.128-.137-.21-.137-.247 0-.109.1-.164.301-.164.146 0 .392.037.738.11.347.073.666.182.957.328.292.146.438.319.438.52l-.082 20.206.027 1.094c0 .602-.164 1.021-.492 1.258-.328.237-.61.355-.848.355-.273 0-.92-.282-1.941-.847a32.34 32.34 0 0 1-2.817-1.778c-.875-.638-1.312-1.075-1.312-1.312 0-.164.118-.246.355-.246.2 0 .438.064.711.191 1.841.784 3.3 1.322 4.375 1.614l.082-19.989ZM24.641 37.418c0-.164.109-.42.328-.766 1.24-1.823 2.251-3.463 3.035-4.922A20.81 20.81 0 0 0 29.809 27c.072-.292.109-.51.109-.656 0-.146-.027-.301-.082-.465a.607.607 0 0 1-.027-.192c0-.164.09-.246.273-.246.273 0 .684.165 1.23.493.62.364.93.701.93 1.011 0 .091-.009.155-.027.192-.875 2.06-1.841 3.883-2.899 5.468-1.057 1.568-2.014 2.799-2.87 3.692-.84.875-1.386 1.312-1.641 1.312-.11 0-.164-.063-.164-.191Zm16.843-10.965c0-.182.137-.383.41-.601.274-.237.538-.356.794-.356.2 0 .373.1.519.3a54.725 54.725 0 0 1 2.68 3.802 73.065 73.065 0 0 1 2.406 3.937c.656 1.149.984 1.814.984 1.996 0 .2-.09.383-.273.547-.182.164-.392.3-.629.41-.219.11-.383.164-.492.164-.237 0-.429-.136-.574-.41a69.31 69.31 0 0 0-2.762-5.086 40.25 40.25 0 0 0-2.899-4.293c-.109-.146-.164-.282-.164-.41ZM97.21 26.945c-.108 0-.254-.118-.437-.355-.182-.255-.264-.474-.246-.656.037-.146.064-.556.082-1.23a70.63 70.63 0 0 0 .028-2.407c0-.802-.01-1.34-.028-1.613l-.902.082c-.638.09-1.185.136-1.64.136-.128 0-.31-.1-.547-.3-.237-.201-.356-.347-.356-.438 0-.146.155-.2.465-.164.2.018.793.01 1.777-.027a88.862 88.862 0 0 1 2.926-.164c.31-.019.593-.046.848-.082.273-.055.464-.092.574-.11.164-.018.31 0 .437.055.128.055.247.127.356.219.127.073.228.127.301.164.164.11.246.21.246.3 0 .073-.046.146-.137.22a.4.4 0 0 1-.246.081c-.091 0-.219-.009-.383-.027a4.006 4.006 0 0 0-.492-.027c-.674 0-1.367.018-2.078.054-.018.146-.027.51-.027 1.094-.037.984-.055 1.95-.055 2.898v1.313c0 .31-.028.51-.082.602-.164.255-.292.382-.383.382Zm-2.323 6.7c-.602-.22-.884-.456-.848-.711.11-.766.164-1.641.164-2.625a11.83 11.83 0 0 0-.082-1.559c-.018-.182-.018-.283 0-.3a.371.371 0 0 1 .273-.11c.165 0 .365.073.602.219.255.145.383.291.383.437 0 .091-.01.182-.027.274a1.013 1.013 0 0 0-.028.246l-.164 2.707c0 .145.055.237.164.273h.137c.146 0 .246-.009.3-.027l3.528-.492v-.711c0-.894-.018-1.586-.055-2.078-.018-.42-.063-.757-.136-1.012-.055-.292.018-.438.218-.438.146 0 .338.055.575.164.291.146.464.274.519.383.055.091.073.237.055.438-.037.328-.055.82-.055 1.476l.028 2.078c0 .438-.083.784-.247 1.04-.091.109-.182.163-.273.163-.091 0-.219-.082-.383-.246a1.601 1.601 0 0 1-.137-.164.364.364 0 0 0-.164-.136.712.712 0 0 0-.218-.028c-.42.037-1.431.173-3.035.41-.274.037-.493.11-.657.22-.182.09-.3.136-.355.136l-.082-.027Zm3.062 9.433c-.565 0-1.002-.018-1.312-.055a1.31 1.31 0 0 1-.739-.328c-.346-.255-.583-.81-.71-1.668l-.082-.875c0-.218-.019-.492-.055-.82a4.661 4.661 0 0 0-.63.11 2.9 2.9 0 0 1-.19.081.744.744 0 0 1-.165.028.629.629 0 0 1-.355-.11c-.11-.073-.246-.21-.41-.41-.128-.164-.192-.273-.192-.328 0-.055.064-.091.192-.11.127-.018.3-.027.52-.027.31 0 .71-.036 1.202-.109l-.027-.383c0-.729-.045-1.349-.137-1.86l-.027-.19c0-.256.1-.356.3-.301.22.073.42.164.602.273a.852.852 0 0 1 .301.219c.055.054.073.137.055.246l-.082 1.176v.71l2.406-.245c0-.128.01-.429.027-.903.019-.492.019-.811 0-.957 0-.146-.018-.282-.054-.41a5.056 5.056 0 0 0-.055-.355c0-.146.073-.22.219-.22.146 0 .328.083.547.247.255.164.419.31.492.437.091.128.11.283.054.465-.09.292-.154.62-.19.985-.037.364-.056.583-.056.656.22-.018.42-.046.602-.082.182-.037.301-.055.355-.055.146-.036.319-.054.52-.054.109.018.264.127.465.328.164.218.246.392.246.52 0 .181-.173.254-.52.218a5.323 5.323 0 0 0-.929-.082c-.31 0-.575.009-.793.027a11.673 11.673 0 0 1-.328 1.942.746.746 0 0 1-.192.355c-.09.11-.173.164-.246.164-.127 0-.21-.055-.246-.164a2.707 2.707 0 0 1-.027-.465c.036-.474.054-1.066.054-1.777-.492.036-.875.073-1.148.11-.42.09-.811.145-1.176.163-.018.748.018 1.413.11 1.996.054.383.164.648.328.793.109.091.237.146.383.164.163.019.328.028.492.028h.328c.565 0 1.093-.028 1.586-.082.146-.019.273-.055.382-.11a.828.828 0 0 1 .274-.082c.164 0 .328.055.492.164.164.11.246.237.246.383 0 .146-.082.255-.246.328-.146.073-.383.137-.71.192-.584.073-1.167.11-1.75.11Zm7.793-12.441c.219 0 .328.1.328.3 0 .11-.1.265-.3.465-.547.675-1.632 1.96-3.254 3.856-.128.164-.246.246-.356.246-.091 0-.292-.137-.601-.41-.256-.219-.383-.401-.383-.547 0-.164.136-.32.41-.465.419-.237 1.048-.71 1.887-1.422.838-.747 1.458-1.34 1.859-1.777.164-.164.301-.246.41-.246Zm-36.285.3c-.365 1.55-.647 2.543-.848 2.981-.182.42-.355.629-.52.629-.273 0-.546-.1-.82-.3-.273-.201-.41-.402-.41-.602 0-.11.028-.201.082-.274.693-1.349 1.167-2.871 1.422-4.566.037-.22.082-.365.137-.438.073-.091.219-.137.438-.137l.273.028c.401.127.602.337.602.629 0 .11-.01.2-.028.273l-.082.492.848-.027-.547-6.836c-.073-.73-.155-1.267-.246-1.613-.091-.274-.137-.465-.137-.574 0-.128.073-.192.219-.192.2 0 .656.137 1.367.41a5.37 5.37 0 0 0 1.695-.902c.492-.383.793-.72.903-1.012.054-.182.145-.273.273-.273.2 0 .428.191.684.574.273.383.41.693.41.93a.355.355 0 0 1-.191.328c-.803.4-1.45.71-1.942.93-.474.218-.993.419-1.558.601l.109 1.422 1.367-.137c.31-.036.629-.1.957-.191.146-.037.255-.055.328-.055.274 0 .538.137.793.41.255.256.383.456.383.602 0 .219-.21.346-.629.383l-3.117.246.11 1.558 1.394-.109c.364-.018.674-.082.93-.191.109-.037.2-.055.273-.055.164 0 .41.11.738.328.328.219.492.438.492.656 0 .11-.063.2-.191.274-.11.073-.264.118-.465.136l-3.062.22.164 2.05 13.234-.684.164-1.941-2.133.137-.52.027c-.29 0-.528-.091-.71-.273a1.586 1.586 0 0 1-.383-.575 1.923 1.923 0 0 1-.082-.41c0-.09.055-.137.164-.137l.137.028c.31.055.601.082.875.082h.273l2.461-.164.11-1.559-2.243.164-.41.028c-.328 0-.592-.082-.793-.246a1.667 1.667 0 0 1-.383-.547c-.073-.2-.109-.338-.109-.41 0-.11.055-.165.164-.165l.137.028c.31.055.61.082.902.082h.274l2.57-.192.11-1.695-2.434.164-.52.027c-.528 0-.884-.164-1.066-.492-.182-.346-.274-.629-.274-.847 0-.091.046-.137.137-.137l.164.027c.273.055.565.082.875.082h.3l3.2-.246h.219c.219 0 .474.082.766.246.31.164.464.374.464.63a.67.67 0 0 1-.054.245.9.9 0 0 0-.028.22l-.765 7.737 1.832-.082.52-.027c.254 0 .5.11.737.328.256.2.383.41.383.629a.492.492 0 0 1-.191.383 1.25 1.25 0 0 0-.192.219c-.984 1.257-1.777 2.123-2.378 2.597-.602.474-1.012.711-1.23.711-.147 0-.22-.073-.22-.219 0-.2.119-.446.356-.738.729-.875 1.276-1.723 1.64-2.543l-18.648.902Zm-2.46 5.961c0-.109.063-.164.19-.164l.137.028c.547.11 1.048.164 1.504.164h.356l8.914-.356a5.294 5.294 0 0 0-.602-1.066c-.127-.2-.191-.346-.191-.438 0-.182.127-.337.382-.464.274-.128.484-.192.63-.192.236 0 .455.173.656.52a17.47 17.47 0 0 0 1.722-.82 13.25 13.25 0 0 0 1.395-.93l-7.41.492c-.237.018-.52.027-.848.027-.438 0-.784-.1-1.039-.3a2.843 2.843 0 0 1-.656-.848.468.468 0 0 1-.082-.219c0-.128.09-.191.273-.191.073 0 .137.009.191.027.292.091.702.137 1.231.137h.383l8.64-.492.52-.028c.255 0 .483.073.684.219.218.128.382.282.492.465.127.164.191.282.191.355 0 .164-.091.301-.273.41l-.328.164a19.665 19.665 0 0 1-2.133 1.422c-.675.365-1.468.757-2.38 1.176l.192.492 7.11-.273a7.914 7.914 0 0 0 1.941-.274.96.96 0 0 1 .273-.027c.256 0 .502.091.739.273.237.165.428.356.574.575.164.2.246.337.246.41 0 .219-.164.346-.492.383l-10.035.383c.127.656.2 1.321.219 1.996l.027.738c0 1.221-.182 2.042-.547 2.46-.346.42-.738.63-1.176.63-.383 0-.984-.21-1.805-.63a16.166 16.166 0 0 1-2.269-1.339c-.675-.492-1.012-.848-1.012-1.066 0-.092.082-.137.246-.137.164 0 .41.054.739.164.601.237 1.34.483 2.215.738.875.255 1.412.383 1.613.383.09 0 .164-.055.219-.164l.027-.137c.054-.528.082-1.057.082-1.586 0-.71-.055-1.376-.164-1.996l-9.051.328-.793.028c-.492 0-.866-.137-1.121-.41-.255-.292-.428-.584-.52-.876a.381.381 0 0 1-.027-.164Zm8.257-7.93c0-.163.228-.419.683-.765.748-.565 1.331-1.112 1.75-1.64-.692-.51-1.175-.839-1.449-.985-.237-.127-.355-.255-.355-.383 0-.146.073-.31.219-.492.145-.182.273-.273.382-.273.164 0 .857.392 2.079 1.175.528-.62.838-1.175.93-1.668.036-.145.127-.218.273-.218.2 0 .455.127.765.383.328.236.492.464.492.683 0 .128-.182.383-.546.766-.365.383-.62.638-.766.765.273.165.62.401 1.039.711.438.31.656.556.656.739 0 .164-.09.364-.273.601-.164.237-.328.356-.492.356-.146 0-.32-.082-.52-.246l-.492-.41a9.765 9.765 0 0 0-.985-.82c-1.604 1.239-2.67 1.858-3.199 1.858-.127 0-.191-.045-.191-.136Zm.219-4.866c0-.183.191-.429.574-.739a15.735 15.735 0 0 0 1.695-1.613c-.893-.602-1.449-.966-1.668-1.094-.2-.127-.3-.264-.3-.41 0-.11.054-.246.163-.41.165-.219.32-.328.465-.328.292 0 1.04.41 2.242 1.23.092-.09.237-.3.438-.629.219-.328.392-.683.52-1.066.054-.146.154-.219.3-.219.2 0 .447.137.739.41.291.256.437.502.437.739a.406.406 0 0 1-.11.3s-.181.183-.546.547l-.629.63c.601.419.984.72 1.148.902.183.164.274.3.274.41 0 .127-.091.319-.274.574-.164.237-.319.355-.464.355-.165 0-.338-.09-.52-.273a17.928 17.928 0 0 0-1.285-1.04c-1.55 1.24-2.552 1.86-3.008 1.86-.127 0-.191-.045-.191-.136ZM139.266 30.473c-.146 0-.292-.028-.438-.082a.715.715 0 0 1-.328-.328c-.055-.165-.173-.356-.355-.575a2.108 2.108 0 0 0-.493-.492l.11-.137c.091.055.31.164.656.328.346.165.602.247.766.247a.987.987 0 0 0 .683-.274c.201-.182.456-.529.766-1.039a7 7 0 0 0 .601-1.23c.183-.474.319-.912.411-1.313l.027-.055c0-.054-.018-.1-.055-.136-.036-.055-.073-.082-.109-.082l-1.258.11c-.839.145-1.714.263-2.625.355a2.862 2.862 0 0 0-.574.136c-.219.073-.374.11-.465.11-.146 0-.337-.119-.574-.356a1.94 1.94 0 0 1-.274-.273c-.073-.11-.091-.2-.054-.274l.218-.218.137-.11c.255-.255.51-.592.766-1.012.182-.255.373-.683.574-1.285 0-.2.045-.3.137-.3.054 0 .145.036.273.109l.438.273c.109.091.182.164.218.22a.384.384 0 0 1 .055.218c0 .11-.073.246-.219.41a4.152 4.152 0 0 0-.383.438l-.628.902-.055.11c0 .054.073.081.219.081l2.105-.273 1.422-.11.547-.054.301-.055h.082c.182 0 .382.155.601.465.255.237.383.437.383.601l-.137.356c-.018.036-.164.465-.437 1.285-.328.784-.611 1.376-.848 1.777s-.492.711-.765.93c-.493.401-.967.602-1.422.602Zm2.898 8.968c-.273 0-.538-.2-.793-.601a8.644 8.644 0 0 0-.957-1.258l-.711-.738c-.383.437-.72.784-1.012 1.039a5.413 5.413 0 0 1-1.039.738c-.784.456-1.44.684-1.968.684-.128 0-.192-.046-.192-.137 0-.055.173-.173.52-.355.346-.183.674-.402.984-.657.784-.656 1.431-1.33 1.942-2.023-.11-.11-.657-.584-1.641-1.422a9.141 9.141 0 0 1-.574-.465 7.016 7.016 0 0 1-.328-.246c-.165-.128-.247-.219-.247-.273 0-.092.046-.137.137-.137.274 0 .711.191 1.313.574.601.365 1.23.802 1.886 1.313.256-.31.456-.602.602-.875.146-.274.31-.611.492-1.012.091-.2.146-.374.164-.52.018-.164.028-.264.028-.3 0-.201.054-.301.164-.301.127 0 .3.1.519.3.383.365.574.611.574.739 0 .073-.045.155-.136.246-.219.219-.42.51-.602.875-.109.219-.31.529-.601.93-.092.109-.165.21-.219.3-.055.091-.11.174-.164.246.419.31 1.039.839 1.859 1.586.201.183.328.356.383.52.073.146.109.346.109.602a.78.78 0 0 1-.136.464.443.443 0 0 1-.356.164Zm2.078-9.625c.091 0 .228.064.41.192-.018.036.019.11.11.219l.191.191c.091.091.182.2.274.328.109.128.227.264.355.41.328.347 1.085 1.249 2.27 2.707.2.292.3.465.3.52 0 .182-.109.273-.328.273-.127 0-.264-.09-.41-.273-.346-.365-.966-.939-1.859-1.723-.693-.638-1.322-1.13-1.887-1.476-.273-.128-.41-.274-.41-.438 0-.127.137-.31.41-.547.255-.255.447-.383.574-.383Zm-20.863 12.305a17.19 17.19 0 0 0 .191-2.543l.055-15.559c0-.783-.018-1.357-.055-1.722a2.883 2.883 0 0 0-.246-1.04c-.127-.327-.191-.537-.191-.628 0-.128.073-.192.219-.192.237 0 .92.228 2.05.684l5.141-.355h.219c.328 0 .638.082.929.246.292.164.438.355.438.574 0 .128-.055.264-.164.41-.11.128-.182.219-.219.274a44.99 44.99 0 0 1-3.008 5.113c-.073.11-.109.2-.109.273 0 .146.091.283.273.41 1.003.894 1.832 1.832 2.489 2.817.674.966 1.011 2.133 1.011 3.5 0 .857-.136 1.595-.41 2.215-.273.62-.665.93-1.176.93-.419 0-1.048-.22-1.886-.657a15.89 15.89 0 0 1-2.297-1.45c-.675-.528-1.012-.901-1.012-1.12 0-.128.091-.192.274-.192.164 0 .419.073.765.22 1.021.455 2.179.847 3.473 1.175.036.018.1.027.191.027.128 0 .219-.155.274-.465.073-.31.109-.601.109-.875 0-.474-.137-1.102-.41-1.886a6.034 6.034 0 0 0-1.094-1.832c-.474-.565-1.112-1.194-1.914-1.887-.273-.255-.41-.51-.41-.766 0-.237.109-.52.328-.847a37.664 37.664 0 0 0 2.762-4.758l-4.703.273v20.48c0 .384-.146.575-.438.575-.237 0-.538-.118-.902-.355-.365-.238-.547-.52-.547-.848v-.219Zm-15.477-11.867c0-.11.055-.164.164-.164.073 0 .137.009.192.027.328.091.674.137 1.039.137h.219l6.589-.3c.657-1.24 1.103-2.18 1.34-2.817.256-.638.383-1.203.383-1.696v-.191l-.027-.219c0-.2.082-.3.246-.3.237 0 .683.246 1.34.738.237.218.355.419.355.601a.445.445 0 0 1-.054.192 32.431 32.431 0 0 1-2.051 3.61l2.761-.138c.146 0 .347-.018.602-.054.255-.055.492-.11.711-.164a.38.38 0 0 1 .164-.028c.109 0 .273.064.492.192.219.11.419.255.602.437.182.164.273.337.273.52 0 .127-.064.237-.191.328-.11.073-.265.118-.465.137l-12.578.628h-.465c-.492 0-.811-.072-.957-.218a7.823 7.823 0 0 1-.465-.657c-.146-.273-.219-.474-.219-.601Zm1.313-6.754c0-.146.064-.219.191-.219l.164.028c.401.109.748.164 1.039.164h.164l5.797-.356-.191-.191a20.182 20.182 0 0 0-2.68-2.188c-.219-.164-.328-.319-.328-.465.018-.145.109-.319.274-.52.164-.218.319-.318.464-.3.092 0 .465.21 1.121.629.675.401 1.286.82 1.832 1.258.566.437.839.765.821.984 0 .055-.046.164-.137.328-.091.164-.191.301-.301.41l1.86-.109c.346-.036.656-.091.929-.164a.713.713 0 0 1 .219-.027c.201 0 .474.136.82.41.365.273.547.538.547.793 0 .2-.191.319-.574.355l-10.035.602-.574.027c-.438 0-.775-.137-1.012-.41a2.193 2.193 0 0 1-.41-1.039Zm1.449 10.2c0-.147.091-.22.274-.22.273 0 .902.201 1.886.602l6.262-.3h.137c.364 0 .674.1.929.3.256.2.383.41.383.629 0 .073-.036.182-.109.328-.073.146-.11.255-.11.328l-.601 4.32c.437.51.656.876.656 1.094 0 .237-.228.356-.683.356l-6.481.136.082 1.04v.109c0 .383-.137.574-.41.574-.274 0-.583-.11-.93-.328-.346-.2-.519-.456-.519-.766l.027-.218c.055-.438.082-.793.082-1.067 0-.219-.009-.383-.027-.492l-.383-4.512c-.073-.62-.173-1.093-.301-1.422-.109-.291-.164-.455-.164-.492Zm.766-7.794c0-.164.127-.337.382-.52.201-.109.356-.163.465-.163.183 0 .347.1.493.3.455.639.884 1.35 1.285 2.133.401.784.601 1.258.601 1.422 0 .2-.127.383-.383.547-.255.146-.492.219-.711.219a.45.45 0 0 1-.328-.137c-.073-.091-.145-.246-.218-.465a17.166 17.166 0 0 0-1.45-2.953c-.091-.146-.136-.273-.136-.383Zm1.668 13.864 5.004-.11.437-4.375-5.742.246.301 4.239ZM181.293 30.637c-.255 0-.447-.082-.574-.246-.164-.31-.502-.647-1.012-1.012l.055-.137c.565.237 1.039.356 1.422.356.237 0 .437-.137.601-.41.182-.292.374-.711.574-1.258.237-.675.365-1.24.383-1.696 0-.054-.027-.1-.082-.136-.055-.055-.1-.082-.137-.082-.164-.019-.474.009-.929.082l-.574.082a4.411 4.411 0 0 0-.575.11c-.2.054-.364.09-.492.108a5.537 5.537 0 0 0-.355.11 1.302 1.302 0 0 1-.356.082c-.091 0-.2-.046-.328-.137a2.833 2.833 0 0 1-.301-.355c-.018-.019-.027-.055-.027-.11 0-.073.055-.164.164-.273l.301-.3c.091-.11.182-.238.273-.384a3.29 3.29 0 0 1 .219-.355c.091-.146.164-.32.219-.52l.054-.246a.832.832 0 0 0-.027-.137c-.018-.09-.055-.136-.109-.136-.729.09-1.267.2-1.614.328a1.684 1.684 0 0 1-.328.11.415.415 0 0 1-.328-.165c-.055-.018-.164-.164-.328-.437-.073-.073-.109-.137-.109-.192 0-.127.191-.2.574-.218l.519-.055c.092 0 .283-.018.575-.055.583-.055 1.394-.118 2.433-.191.365-.018.994-.064 1.887-.137.255-.018.565-.055.93-.11.2-.054.328-.081.382-.081.092 0 .183.036.274.109.091.036.21.11.355.219.146.09.256.191.328.3.073.092.11.183.11.274 0 .091-.046.155-.137.191a.582.582 0 0 1-.355 0 4.296 4.296 0 0 0-.766-.109 11.705 11.705 0 0 0-.492-.027c-.62-.019-1.395.009-2.324.082a4.479 4.479 0 0 1-.575.054c.11.091.21.237.301.438v.055a.464.464 0 0 1-.082.218.482.482 0 0 1-.191.192c-.091.054-.201.182-.328.383-.128.2-.21.328-.246.382-.11.146-.165.265-.165.356 0 .073.073.1.219.082l.793-.11c.419-.072.729-.136.93-.191.055-.018.137-.036.246-.055.128-.018.273-.054.437-.109a.588.588 0 0 1 .383.082c.146.073.365.228.657.465.218.164.328.31.328.437a.438.438 0 0 1-.11.274c-.073.127-.127.3-.164.52-.164.765-.355 1.385-.574 1.859a7.704 7.704 0 0 1-.465.82c-.146.2-.328.401-.547.602-.237.273-.51.41-.82.41Zm.191 9.543c-.875 0-1.604-.22-2.187-.657-.602-.492-.902-1.066-.902-1.722 0-.51.191-.957.574-1.34.492-.42 1.112-.629 1.859-.629.037 0 .064-.036.082-.11a.96.96 0 0 0 .055-.355l.027-.71c-.127.018-.374.045-.738.081a7.496 7.496 0 0 0-.766.11c.091-.019-.191.045-.847.191a1.105 1.105 0 0 1-.301.027c-.347 0-.638-.155-.875-.464-.11-.11-.164-.201-.164-.274 0-.11.164-.164.492-.164l.848-.055 2.324-.3v-1.012a1.03 1.03 0 0 1-.027-.246.716.716 0 0 0-.028-.219 1.712 1.712 0 0 1-.055-.273c0-.128.064-.192.192-.192.164 0 .446.119.848.356.127.073.191.173.191.3a.536.536 0 0 1-.055.246.613.613 0 0 0-.027.192v.766l.82-.082 1.012-.11c.091-.018.191-.045.301-.082.127-.036.228-.055.301-.055.109 0 .246.055.41.164.31.201.464.374.464.52 0 .146-.154.219-.464.219-.091 0-.219.018-.383.054-.164.019-.374.037-.629.055l-1.832.137-.027 1.668c-.037.273-.237.446-.602.52h-.055c-.109 0-.218-.01-.328-.028a.63.63 0 0 0-.219-.055c-.145 0-.291.01-.437.028a.724.724 0 0 0-.383.164c-.31.273-.465.592-.465.957 0 .364.173.692.52.984.31.292.802.438 1.476.438.894-.037 1.623-.283 2.188-.739.237-.164.419-.246.547-.246.073 0 .164.019.273.055l.11.11c.054.054.082.109.082.163 0 .51-.429.93-1.286 1.258a5.464 5.464 0 0 1-1.914.356Zm4.758-10.364c.091 0 .228.064.41.192-.018.036.019.11.11.219l.191.191c.091.091.182.2.274.328.109.128.227.264.355.41.328.347 1.085 1.249 2.27 2.707.2.292.3.465.3.52 0 .182-.109.273-.328.273-.127 0-.264-.09-.41-.273-.346-.365-.966-.939-1.859-1.723-.693-.638-1.322-1.13-1.887-1.476-.273-.128-.41-.274-.41-.438 0-.127.137-.31.41-.547.255-.255.447-.383.574-.383Zm-19.906 12.715c.109-1.02.164-1.941.164-2.761v-3.555c0-.328.036-.957.109-1.887-.346.966-1.02 2.033-2.023 3.2a23.207 23.207 0 0 1-3.117 3.035c-1.058.838-1.768 1.257-2.133 1.257-.128 0-.191-.054-.191-.164 0-.146.136-.346.41-.601 2.351-2.151 4.347-4.694 5.988-7.63l-3.582.165h-.383c-.255 0-.446-.01-.574-.028a.68.68 0 0 1-.301-.164 2.332 2.332 0 0 1-.519-.629c-.146-.273-.219-.473-.219-.601s.082-.191.246-.191l.109.027c.401.091.784.137 1.149.137h.246l4.758-.192v-2.215l-2.844.137.027.356v.082c0 .382-.155.574-.465.574-.237 0-.519-.091-.847-.274-.328-.2-.492-.455-.492-.765l.027-.41c.036-.401.055-.73.055-.985 0-.237-.01-.42-.028-.547l-.41-5.086c-.055-.71-.182-1.312-.383-1.804a1.334 1.334 0 0 1-.082-.383c0-.128.082-.192.246-.192.328 0 .939.192 1.832.575l8.832-.602h.164c.456 0 .803.119 1.04.356.237.218.355.41.355.574 0 .091-.036.21-.109.355-.073.128-.11.22-.11.274l-.711 6.07c.529.529.793.893.793 1.094 0 .11-.054.182-.164.219a1.689 1.689 0 0 1-.437.082l-4.649.218v2.215l4.43-.191c.51-.037.902-.11 1.176-.219a.897.897 0 0 1 .273-.055c.237 0 .52.137.848.41.346.274.519.53.519.766 0 .274-.2.428-.601.465l-5.961.246.765.82c1.295 1.404 2.361 2.507 3.2 3.309.856.784 1.868 1.54 3.035 2.27.146.09.219.182.219.273 0 .036-.046.118-.137.246-.492.547-.875.82-1.149.82-.182 0-.692-.355-1.531-1.066a39.886 39.886 0 0 1-2.734-2.652c-.966-1.04-1.777-2.051-2.434-3.036.073.839.11 1.45.11 1.832l.027 7.137c0 .365-.164.547-.492.547-.255 0-.547-.11-.875-.328-.31-.219-.465-.474-.465-.766v-.164ZM149.82 24.484c0-.109.055-.164.164-.164.073 0 .137.01.192.028.273.073.565.109.875.109l.465-.027 6.672-.356c.528-.09.893-.173 1.093-.246a.879.879 0 0 1 .246-.055c.183 0 .383.082.602.247.237.164.437.346.601.546.183.2.274.347.274.438 0 .219-.21.346-.629.383l-8.313.52c-.2.017-.437.027-.71.027-.347 0-.575-.046-.684-.137-.328-.292-.556-.556-.684-.793-.109-.255-.164-.428-.164-.52Zm1.696 9.926c0-.11.073-.164.218-.164.292 0 .93.182 1.914.547l4.129-.191.274-.028c.237 0 .492.128.765.383.274.237.411.456.411.656a.534.534 0 0 1-.082.274 2 2 0 0 0-.083.246l-.464 3.61c.401.546.601.929.601 1.148 0 .127-.054.21-.164.246a2.484 2.484 0 0 1-.547.082l-4.457.136.028.52v.082c0 .401-.164.602-.493.602-.255 0-.528-.1-.82-.301-.292-.2-.437-.447-.437-.739v-.19c.036-.438.054-.767.054-.985v-.356l-.273-3.61c-.055-.655-.182-1.148-.383-1.476-.128-.255-.191-.419-.191-.492Zm.273-6.453c0-.091.037-.137.109-.137.073 0 .128.01.164.028.329.054.657.082.985.082h.301l3.691-.22a3.51 3.51 0 0 0 .957-.218.868.868 0 0 1 .246-.055c.182 0 .438.155.766.465.346.292.519.538.519.739 0 .109-.054.2-.164.273a.951.951 0 0 1-.437.137l-5.031.328a5.146 5.146 0 0 1-.602.027c-.383 0-.684-.1-.902-.3-.219-.201-.374-.41-.465-.63-.091-.236-.137-.41-.137-.519Zm.055 3.336c0-.091.045-.137.136-.137l.137.028c.292.072.62.109.985.109h.3l3.528-.164a3.73 3.73 0 0 0 .984-.219.861.861 0 0 1 .246-.055c.219 0 .483.155.793.465.31.292.465.538.465.739 0 .237-.191.373-.574.41l-4.895.273-.601.028c-.31 0-.584-.083-.821-.247-.237-.164-.455-.52-.656-1.066a.385.385 0 0 1-.027-.164Zm.683-10.773a.94.94 0 0 1 .219-.602c.164-.182.328-.273.492-.273.11 0 .274.045.492.136 1.295.529 2.243.948 2.844 1.258.62.292 1.003.51 1.149.656.164.128.246.256.246.383 0 .164-.082.401-.246.711-.164.31-.374.465-.629.465-.128 0-.31-.073-.547-.219-1.221-.82-2.361-1.467-3.418-1.941a2.056 2.056 0 0 1-.465-.246.449.449 0 0 1-.137-.328Zm1.395 19.414 3.172-.11.301-3.718-3.747.136.274 3.692Zm9.351-15.286 3.172-.191v-2.27l-3.336.22.164 2.241Zm.274 3.801 2.926-.164-.028-2.433-3.09.164.192 2.433Zm7.738-4.265.219-2.297-3.418.218v2.27l3.199-.191Zm-.328 3.882.219-2.488-3.063.164v2.461l2.844-.137ZM226.164 29.871c-.273 0-.538-.2-.793-.601a8.639 8.639 0 0 0-.957-1.258l-.711-.739c-.383.438-.72.784-1.012 1.04a5.413 5.413 0 0 1-1.039.738c-.784.456-1.44.683-1.968.683-.128 0-.192-.045-.192-.136 0-.055.173-.174.52-.356.346-.182.674-.4.984-.656.784-.656 1.431-1.33 1.942-2.023-.11-.11-.657-.584-1.641-1.422a9.141 9.141 0 0 1-.574-.465 7.016 7.016 0 0 1-.328-.246c-.165-.128-.247-.22-.247-.274 0-.09.046-.136.137-.136.274 0 .711.19 1.313.574.601.364 1.23.802 1.886 1.312.256-.31.456-.601.602-.875.146-.273.31-.61.492-1.011.091-.201.146-.374.164-.52.018-.164.028-.264.028-.3 0-.201.054-.302.164-.302.127 0 .3.1.519.301.383.365.574.61.574.738 0 .073-.045.155-.136.247-.219.218-.42.51-.602.875-.109.218-.31.528-.601.93-.092.109-.165.209-.219.3-.055.091-.11.173-.164.246.419.31 1.039.839 1.859 1.586.201.182.328.356.383.52.073.146.109.346.109.601a.78.78 0 0 1-.136.465.443.443 0 0 1-.356.164Zm.492 5.25c.201.219.301.401.301.547 0 .128-.073.246-.219.355-.091.073-.319.474-.683 1.204a9.23 9.23 0 0 1-1.34 1.722c-.474.474-.948.82-1.422 1.04a.902.902 0 0 1-.273.054c-.073 0-.11-.018-.11-.055v-.054c0-.11.091-.237.274-.383.328-.255.574-.51.738-.766.182-.273.319-.474.41-.601.383-.547.656-.994.82-1.34.183-.31.31-.63.383-.957h-.109c-.474 0-1.24.054-2.297.164-.164.018-.638.082-1.422.191a8.994 8.994 0 0 0-.766.137l-.328.082a.485.485 0 0 1-.218.055.73.73 0 0 1-.274-.055 2.488 2.488 0 0 1-.273-.191c-.219-.183-.328-.338-.328-.465a.857.857 0 0 0 .054-.164.434.434 0 0 0 .055-.192l.137-.902c.018-.091.036-.191.054-.3.019-.11.028-.22.028-.329 0-.346-.009-.62-.028-.82a3.02 3.02 0 0 0-.082-.684v-.082c0-.128.055-.191.164-.191.11 0 .301.082.575.246.364.255.546.455.546.601 0 .055-.009.1-.027.137a5.594 5.594 0 0 1-.055.11c-.054.328-.082.51-.082.546l-.136 1.45c0 .036.018.081.054.136.055.037.11.055.164.055.438 0 1.422-.11 2.954-.328.601-.055 1.029-.119 1.285-.192.164-.018.3-.045.41-.082a.877.877 0 0 1 .246-.082.885.885 0 0 1 .219-.054c.164 0 .364.145.601.437Zm5.086-7.492c.219 0 .328.1.328.3 0 .11-.1.265-.3.466-.547.674-1.632 1.96-3.254 3.855-.128.164-.246.246-.356.246-.091 0-.292-.137-.601-.41-.256-.219-.383-.401-.383-.547 0-.164.136-.319.41-.465.419-.237 1.048-.71 1.887-1.422.838-.747 1.458-1.34 1.859-1.777.164-.164.301-.246.41-.246Zm-20.781-1.969a33.49 33.49 0 0 1-2.242 4.73c-.893 1.587-1.823 2.99-2.789 4.212 3.317 3.153 6.936 5.523 10.855 7.109.255.091.383.2.383.328 0 .091-.1.246-.301.465a3.075 3.075 0 0 1-.656.629c-.255.182-.483.273-.684.273a.878.878 0 0 1-.246-.054c-3.791-1.805-7.291-4.284-10.5-7.438a26.156 26.156 0 0 1-4.676 3.855c-1.677 1.094-3.208 1.933-4.593 2.516-1.367.602-2.261.903-2.68.903-.219 0-.328-.064-.328-.192 0-.164.173-.337.519-.52a50.674 50.674 0 0 0 5.934-3.718c1.896-1.386 3.436-2.744 4.621-4.074-.911-1.04-1.814-2.297-2.707-3.774a61.389 61.389 0 0 1-2.461-4.539l-2.351.137c-.438.036-.757.055-.957.055-.31 0-.566-.055-.766-.165-.201-.109-.41-.346-.629-.71a2.775 2.775 0 0 1-.246-.52.385.385 0 0 1-.027-.164c0-.128.073-.192.218-.192l.137.028c.365.073.793.11 1.285.11h.356l17.828-1.067a8.25 8.25 0 0 0 1.394-.219.713.713 0 0 1 .219-.027c.219 0 .456.082.711.246.255.164.465.355.629.574.182.2.273.355.273.465a.342.342 0 0 1-.164.3.693.693 0 0 1-.355.137l-5.004.301Zm-10.719.602a39.547 39.547 0 0 0 2.078 3.828c.802 1.276 1.595 2.36 2.379 3.254 1.714-2.26 3.063-4.785 4.047-7.575l-8.504.493Zm1.313-5.934c0-.11.082-.291.246-.547.182-.255.364-.383.547-.383.218 0 .738.274 1.558.82.821.548 1.586 1.131 2.297 1.75.711.62 1.067 1.03 1.067 1.231 0 .2-.128.438-.383.711-.237.255-.438.383-.602.383-.146 0-.319-.11-.519-.328a20.13 20.13 0 0 0-1.723-1.586 32.792 32.792 0 0 0-2.133-1.586c-.237-.164-.355-.319-.355-.465ZM265.02 27.191c-.237 0-.411-.082-.52-.246a3.208 3.208 0 0 0-.492-.574c-.146-.146-.41-.346-.793-.601l.082-.137c.838.291 1.431.437 1.777.437.292 0 .611-.164.957-.492.365-.346.675-.838.93-1.476.128-.292.219-.53.273-.711.073-.2.128-.42.164-.657v-.054c0-.164-.082-.246-.246-.246-.182 0-.51.054-.984.164a20.01 20.01 0 0 0-1.012.328l-.218-.055a.656.656 0 0 0-.137-.082c-.055-.055-.1-.11-.137-.164-.091-.091-.137-.155-.137-.191l-.027-.11c0-.127.064-.246.191-.355.146-.11.228-.192.247-.246.145-.164.437-.565.874-1.203.037-.037.101-.119.192-.247.091-.145.137-.273.137-.382 0-.128-.538-.037-1.614.273-1.093.328-1.668.492-1.722.492-.183 0-.374-.155-.575-.465-.145-.145-.218-.264-.218-.355 0-.128.182-.2.547-.219.419-.018 1.066-.091 1.941-.219.893-.127 1.422-.21 1.586-.246l.383-.109a.598.598 0 0 1 .191-.027c.055 0 .137.036.246.109.128.073.237.128.328.164.237.11.374.237.411.383v.082c0 .164-.092.337-.274.52-.073.072-.219.227-.437.464a5.646 5.646 0 0 0-.411.438c-.072.073-.182.191-.328.355a2.431 2.431 0 0 0-.246.301c0 .055.018.091.055.11a.304.304 0 0 0 .137.027c.547-.073.993-.155 1.339-.246l.438-.137c.2 0 .346.073.437.219.165.182.274.337.329.465a.353.353 0 0 1 0 .328.741.741 0 0 1-.082.164 1.788 1.788 0 0 0-.11.191l-.109.219c-.055.11-.091.219-.11.328-.328.948-.72 1.76-1.175 2.434-.256.31-.538.574-.848.793-.419.31-.829.464-1.23.464Zm-2.735 4.594c-.2 0-.446-.155-.738-.465-.219-.218-.328-.383-.328-.492 0-.055.036-.082.109-.082.073-.018.164-.027.274-.027l.601-.028c.346 0 .574-.009.684-.027.346 0 .638-.01.875-.027 1.567-.146 2.625-.265 3.172-.356.273-.036.519-.073.738-.11.219-.054.392-.081.519-.081.256 0 .511.127.766.383.201.2.301.364.301.492 0 .11-.064.182-.192.219-.091.018-.628.054-1.613.109a36.33 36.33 0 0 0-2.023.137c-.802.073-1.504.146-2.106.218l-.465.082c-.2.037-.392.055-.574.055Zm4.074 6.098c-.182.237-.373.355-.574.355-.055 0-.082-.045-.082-.136 0-.128.037-.274.109-.438l.547-1.094c.019-.073.046-.145.082-.218.037-.073.064-.137.082-.192v-.027c0-.037-.027-.073-.082-.11a.229.229 0 0 0-.191-.027 23.25 23.25 0 0 0-1.312.137c-.566.073-.985.146-1.258.219l-.41.136a1.074 1.074 0 0 1-.356.082c-.328 0-.602-.1-.82-.3a1.669 1.669 0 0 1-.41-.383l-.055-.137c0-.091.155-.118.465-.082.419.036 1.285-.018 2.597-.164l.547-.082c.146-.018.374-.046.684-.082.328-.055.583-.11.766-.164l.164-.055a.434.434 0 0 1 .191-.055c.091 0 .2.046.328.137.146.091.264.173.356.246.127.091.209.173.246.246.054.055.073.128.054.22 0 .09-.045.172-.136.245a2.568 2.568 0 0 0-.192.164 4.312 4.312 0 0 1-.383.41 4.476 4.476 0 0 1-.492.602c-.219.255-.373.437-.465.547Zm-1.367 5.386c0-.054.091-.2.274-.437.2-.219.355-.392.464-.52.274-.364.602-.893.985-1.585.401-.693.629-1.149.683-1.368.037-.109-.018-.164-.164-.164-.291 0-1.093.082-2.406.246-.857.11-1.495.22-1.914.328a.526.526 0 0 1-.273.083c-.146 0-.301-.1-.465-.301a.725.725 0 0 1-.11-.356c0-.073.046-.145.137-.218l.082-.11a5.86 5.86 0 0 0 .192-.437c.072-.183.136-.356.191-.52.091-.291.155-.61.191-.957.019-.2.128-.255.329-.164.255.128.446.255.574.383.146.11.191.191.136.246a2.722 2.722 0 0 0-.437.738 7.296 7.296 0 0 0-.164.575c0 .072.045.109.137.109.273 0 .683-.046 1.23-.137l1.148-.137c.456-.054.821-.109 1.094-.164l.684-.136a.712.712 0 0 1 .219-.028c.091 0 .182.037.273.11.091.054.191.127.301.218.182.164.301.301.355.41.055.092.082.201.082.329 0 .073-.054.164-.164.273-.091.11-.2.283-.328.52-.529 1.075-1.212 1.977-2.051 2.707a3.768 3.768 0 0 1-.793.465 1.293 1.293 0 0 1-.355.054c-.091.018-.137 0-.137-.054Zm5.25-10.445c.091 0 .228.064.41.192-.018.036.019.109.11.218l.191.192c.091.09.182.2.274.328.109.128.227.264.355.41.328.346 1.085 1.249 2.27 2.707.2.292.3.465.3.52 0 .182-.109.273-.328.273-.127 0-.264-.091-.41-.273-.346-.365-.966-.94-1.859-1.723-.693-.638-1.322-1.13-1.887-1.477-.273-.127-.41-.273-.41-.437 0-.128.137-.31.41-.547.255-.255.447-.383.574-.383Zm-32.894 2.543v.082c0 .328-.146.492-.438.492-.255 0-.538-.09-.848-.273-.309-.2-.464-.474-.464-.82 0-.11.009-.2.027-.274.055-.364.082-.71.082-1.039v-.355l-.273-6.918c-.037-.657-.146-1.14-.329-1.45-.127-.218-.191-.373-.191-.464 0-.11.082-.164.246-.164.292 0 .875.164 1.75.492l3.856-.274.519-.027c.219 0 .456.082.711.246.274.164.41.392.41.684 0 .09-.027.2-.082.328-.036.127-.064.228-.082.3l-.355 4.458a51.9 51.9 0 0 0 4.265-5.168c1.276-1.75 2.334-3.427 3.172-5.032.183-.328.274-.701.274-1.12 0-.31.109-.466.328-.466.255 0 .601.183 1.039.547.437.347.656.611.656.793 0 .037-.018.11-.055.22l-.82 1.312a59.804 59.804 0 0 0 4.129 3.964 45.424 45.424 0 0 0 4.648 3.473c.256.164.383.3.383.41 0 .11-.182.32-.547.63-.364.309-.656.464-.875.464-.145 0-.656-.337-1.531-1.012-.875-.692-1.95-1.622-3.226-2.789a76.968 76.968 0 0 1-3.856-3.855c-1.331 1.95-2.598 3.564-3.801 4.84-1.185 1.257-2.16 2.187-2.925 2.789-.748.583-1.194.902-1.34.957l-.055.957c.438.528.656.911.656 1.148 0 .128-.054.21-.164.246-.109.018-.31.037-.601.055l-4.348.246.055 1.367Zm-.11-2.898 2.926-.164.41-6.371-3.609.246.273 6.289Zm3.555 8.394c0-.182.073-.355.219-.52a18.114 18.114 0 0 0 2.433-4.128c.128-.292.283-.438.465-.438.219 0 .438.073.656.22.237.127.356.273.356.437 0 .036-.037.164-.11.382-.802 1.823-1.585 3.336-2.351 4.54-.182.291-.374.437-.574.437-.146 0-.365-.11-.657-.328-.291-.2-.437-.401-.437-.602Zm3.801-10.554c0-.11.054-.165.164-.165.073 0 .137.01.191.028.31.055.629.082.957.082h.301l8.231-.465h.218c.347 0 .638.1.875.3.237.201.356.375.356.52 0 .128-.064.274-.192.438a6.742 6.742 0 0 0-.273.328 46.163 46.163 0 0 1-2.133 2.816c-.784.985-1.34 1.477-1.668 1.477-.164 0-.374-.1-.629-.3-.273-.22-.41-.411-.41-.575 0-.146.091-.3.273-.465a24.656 24.656 0 0 0 2.707-3.035l-6.863.41c-.182.018-.41.027-.683.027-.292 0-.556-.072-.793-.218-.219-.146-.411-.465-.575-.957a.549.549 0 0 1-.054-.246Zm1.066 7.218c0-.127.037-.227.11-.3a1.35 1.35 0 0 1 .792-.3c.256-.001.438.181.547.546.201.656.556 1.312 1.067 1.968.528.638 1.103 1.076 1.722 1.313.875.346 1.823.52 2.844.52.383 0 .784-.019 1.203-.055.42-.037.629-.11.629-.219l-.054-.137c-.019-.036-.192-.4-.52-1.093-.31-.693-.465-1.267-.465-1.723 0-.182.055-.274.164-.274.183 0 .419.21.711.63.675.965 1.322 1.74 1.942 2.324.419.382.628.71.628.984 0 .2-.109.392-.328.574-.237.182-.61.328-1.121.438-.492.109-1.358.164-2.597.164-1.641 0-3.099-.347-4.375-1.04-1.276-.674-2.215-1.977-2.817-3.91a1.371 1.371 0 0 1-.082-.41ZM247 26.918c0-.091.064-.137.191-.137l.164.028c.329.054.648.082.957.082h.301l2.598-.164c.365-.037.674-.1.93-.192.109-.036.173-.055.191-.055.146 0 .392.146.738.438.365.292.547.529.547.71 0 .183-.173.293-.519.329l-3.993.3a4.413 4.413 0 0 1-.574.028c-.346 0-.638-.073-.875-.219-.237-.145-.437-.437-.601-.875a1.6 1.6 0 0 1-.055-.273Zm.766 8.45c0-.11.063-.274.191-.493.128-.237.283-.355.465-.355.164 0 .592.218 1.285.656.711.437 1.367.902 1.969 1.394.62.492.929.83.929 1.012 0 .164-.109.374-.328.629-.218.237-.419.355-.601.355-.128 0-.31-.1-.547-.3-1.076-1.003-2.087-1.823-3.035-2.461-.219-.146-.328-.292-.328-.438Zm6.425.437c0-.164.092-.338.274-.52.2-.2.355-.3.465-.3.164 0 .638.282 1.422.847.783.547 1.513 1.13 2.187 1.75.693.602 1.039.993 1.039 1.176 0 .164-.127.392-.383.683-.237.292-.446.438-.629.438-.145 0-.319-.11-.519-.328-1.167-1.294-2.343-2.388-3.527-3.282-.219-.163-.329-.319-.329-.464ZM307.676 30.746c-.292 0-.465-.146-.52-.437-.109-.31-.401-.693-.875-1.149l.082-.11c.073.037.283.128.629.274.347.128.584.192.711.192h.246a.538.538 0 0 0 .192-.137c.218-.164.492-.538.82-1.121.237-.474.447-1.03.629-1.668.2-.638.301-1.121.301-1.45 0-.09-.073-.136-.219-.136l-1.039.055-.711.054-.465.028-.191.027c.127.091.209.173.246.246a.298.298 0 0 1 .082.219c0 .091-.11.346-.328.765-.183.401-.474.857-.875 1.368-.329.437-.775.911-1.34 1.422-.547.492-.957.747-1.231.765a.521.521 0 0 1-.164-.027.187.187 0 0 1-.054-.137c0-.018.145-.191.437-.52l.766-.902c.547-.729 1.103-1.659 1.668-2.789.054-.146.027-.228-.082-.246-.11.018-.338.046-.684.082a3.535 3.535 0 0 0-.93.164.865.865 0 0 0-.191.082.902.902 0 0 1-.274.055.37.37 0 0 1-.273-.11l-.219-.19c-.164-.128-.246-.247-.246-.356 0-.037.018-.092.055-.165l.137-.218.355-.438c.164-.2.346-.474.547-.82.036-.073.109-.237.219-.492.127-.255.191-.41.191-.465v-.11c0-.109.018-.182.055-.218.036-.037.118-.037.246 0 .128.036.282.137.465.3l.301.301a.265.265 0 0 1 .082.192c0 .182-.256.51-.766.984a3.135 3.135 0 0 0-.328.41c-.128.183-.192.301-.192.356 0 .11.082.146.247.11l.628-.083c1.441-.219 2.525-.346 3.254-.383l.739-.11.246-.054.136-.027c.146 0 .247.018.301.055.055.036.11.1.164.191.055.073.11.137.164.191.128.146.219.274.274.383l.054.246-.054.11-.055.164a1.575 1.575 0 0 0-.082.273 1.98 1.98 0 0 1-.082.246c-.383 1.477-.829 2.625-1.34 3.446-.164.291-.446.583-.847.875-.383.291-.721.437-1.012.437Zm2.488 8.695c-.273 0-.538-.2-.793-.601a8.644 8.644 0 0 0-.957-1.258l-.711-.738c-.383.437-.72.784-1.012 1.039a5.413 5.413 0 0 1-1.039.738c-.784.456-1.44.684-1.968.684-.128 0-.192-.046-.192-.137 0-.055.173-.173.52-.355.346-.183.674-.402.984-.657.784-.656 1.431-1.33 1.942-2.023-.11-.11-.657-.584-1.641-1.422a9.141 9.141 0 0 1-.574-.465 7.016 7.016 0 0 1-.328-.246c-.165-.128-.247-.219-.247-.273 0-.092.046-.137.137-.137.274 0 .711.191 1.313.574.601.365 1.23.802 1.886 1.313.256-.31.456-.602.602-.875.146-.274.31-.611.492-1.012.091-.2.146-.374.164-.52.018-.164.028-.264.028-.3 0-.201.054-.301.164-.301.127 0 .3.1.519.3.383.365.574.611.574.739 0 .073-.045.155-.136.246-.219.219-.42.51-.602.875-.109.219-.31.529-.601.93-.092.109-.165.21-.219.3-.055.091-.11.174-.164.246.419.31 1.039.839 1.859 1.586.201.183.328.356.383.52.073.146.109.346.109.602a.78.78 0 0 1-.136.464.443.443 0 0 1-.356.164Zm5.578-11.812c.219 0 .328.1.328.3 0 .11-.1.265-.3.466-.547.674-1.632 1.96-3.254 3.855-.128.164-.246.246-.356.246-.091 0-.292-.137-.601-.41-.256-.219-.383-.401-.383-.547 0-.164.136-.319.41-.465.419-.237 1.048-.71 1.887-1.422.838-.747 1.458-1.34 1.859-1.777.164-.164.301-.246.41-.246Zm-25.949 11.95c0 .218-.119.327-.355.327-.219 0-.484-.082-.793-.246-.31-.182-.465-.364-.465-.547l.027-.273a7.96 7.96 0 0 0 .055-.848v-.3l-.219-5.005c-.036-.51-.128-.92-.273-1.23-.11-.255-.165-.401-.165-.438 0-.127.101-.19.301-.19.237 0 .775.108 1.614.327l7.683-.383c.565 0 .939.11 1.121.329.201.2.301.373.301.52a.662.662 0 0 1-.055.245 2.657 2.657 0 0 1-.054.192l-.356 5.632c.347.438.52.766.52.985 0 .09-.046.155-.137.191a1.601 1.601 0 0 1-.41.082l-8.34.274v.355Zm-13.945-15.04c0-.11.054-.164.164-.164.073 0 .136.01.191.027.274.073.565.11.875.11l.465-.028 6.016-.382c.528-.092.902-.183 1.121-.274a.865.865 0 0 1 .246-.055c.219 0 .51.146.875.438.364.292.547.556.547.793s-.183.374-.547.41l-7.711.547a9.725 9.725 0 0 1-.793.027c-.31 0-.511-.045-.602-.136-.565-.493-.847-.93-.847-1.313Zm1.75 9.79c0-.11.073-.165.218-.165.292 0 .948.191 1.969.574l4.211-.246h.219c.292 0 .556.119.793.356.255.237.383.437.383.601a.655.655 0 0 1-.082.274 1.817 1.817 0 0 0-.082.246l-.438 3.718c.419.584.629.967.629 1.149 0 .11-.046.173-.137.191a.88.88 0 0 1-.328.055 2.205 2.205 0 0 1-.273.027l-4.512.192.027.52v.081c0 .401-.164.602-.492.602-.237 0-.51-.091-.82-.273a.796.796 0 0 1-.438-.739v-.164c.037-.474.055-.82.055-1.039v-.328l-.273-3.61c-.055-.62-.192-1.12-.411-1.503-.145-.237-.218-.41-.218-.52Zm.191-3.145c0-.092.046-.137.137-.137.054 0 .1.009.136.027.31.073.648.11 1.012.11h.301l3.527-.192c.365-.036.684-.11.957-.219a.878.878 0 0 1 .246-.054c.219 0 .474.155.766.465.31.291.465.528.465.71 0 .256-.182.402-.547.438l-4.867.3h-.793c-.255-.036-.438-.081-.547-.136a2.561 2.561 0 0 1-.766-1.148.385.385 0 0 1-.027-.164Zm0-3.282c0-.109.046-.164.137-.164l.109.028c.31.073.647.109 1.012.109h.301l3.609-.246c.328-.037.656-.1.984-.192a.906.906 0 0 1 .219-.054c.201 0 .456.137.766.41.328.273.492.529.492.766a.344.344 0 0 1-.164.3.908.908 0 0 1-.41.137l-4.949.328a5.142 5.142 0 0 1-.602.028 1.62 1.62 0 0 1-.355-.028c-.165 0-.292-.045-.383-.137-.164-.127-.338-.328-.52-.601-.164-.292-.246-.52-.246-.684Zm.848-7.246c0-.218.064-.428.191-.629.146-.218.319-.328.52-.328.145 0 .601.155 1.367.465.784.31 1.713.757 2.789 1.34.2.11.346.219.437.328.092.091.137.2.137.328 0 .219-.091.474-.273.766-.164.273-.356.41-.575.41-.145 0-.346-.082-.601-.246a23.452 23.452 0 0 0-3.473-1.887c-.346-.127-.519-.31-.519-.547Zm1.422 19.25 3.199-.136.301-3.774-3.774.191.274 3.72Zm4.511 3.418c0-.2.201-.364.602-.492 2.133-.747 3.874-1.577 5.223-2.488.072-.037.118-.073.136-.11.219-.145.392-.328.52-.547.127-.182.237-.273.328-.273.146 0 .292.1.437.3.164.201.301.43.411.684.127.237.191.392.191.465 0 .164-.091.292-.273.383a22.396 22.396 0 0 1-3.254 1.367c-1.021.347-1.869.584-2.543.711-.675.128-1.121.192-1.34.192-.292 0-.438-.064-.438-.192Zm1.176-17.445c0-.11.082-.164.246-.164.274 0 .83.118 1.668.355l11.649-.656h.164c.2 0 .419.091.656.273.255.165.383.338.383.52a.69.69 0 0 1-.082.3 1.243 1.243 0 0 0-.11.22l-.41 1.722c.347.365.52.63.52.793 0 .11-.064.182-.192.219a2.473 2.473 0 0 1-.547.082l-11.73.547v.055c0 .255-.137.382-.41.382-.128 0-.292-.027-.492-.082-.274-.073-.465-.164-.575-.273a.558.558 0 0 1-.164-.41v-.137c.037-.365.055-.583.055-.656 0-.146-.009-.256-.027-.328l-.192-1.313c-.054-.456-.146-.802-.273-1.039-.091-.219-.137-.355-.137-.41Zm.027-4.54c0-.108.055-.163.165-.163a.61.61 0 0 1 .191.027c.292.073.656.11 1.094.11h.246l4.648-.301v-.739c0-.455-.091-.829-.273-1.12-.073-.128-.11-.229-.11-.301 0-.128.101-.192.301-.192.274 0 .62.064 1.039.192.419.127.629.291.629.492v1.586l3.719-.246a5.07 5.07 0 0 0 1.258-.22.565.565 0 0 1 .218-.026c.256 0 .547.127.875.382.347.237.52.456.52.657 0 .2-.137.319-.41.355l-6.207.383v1.23l1.64-.082c.42-.036.83-.1 1.231-.191a.83.83 0 0 1 .246-.027c.31 0 .638.154.984.464.219.183.328.356.328.52 0 .2-.145.319-.437.355l-7.328.41a16.17 16.17 0 0 1-.902.055c-.347 0-.602-.073-.766-.219a2.414 2.414 0 0 1-.656-.82.384.384 0 0 1-.055-.219c0-.09.064-.136.191-.136.073 0 .137.009.192.027.273.073.62.11 1.039.11h.273l2.489-.137-.028-1.258-3.91.246a15.75 15.75 0 0 1-.93.055c-.656 0-1.139-.347-1.449-1.04l-.055-.218Zm2.079 7.575 2.597-.137-.137-1.668-2.624.137.164 1.668Zm1.722 4.594 7.356-.328.054-1.176-7.464.328.054 1.176Zm.082 2.215 7.192-.301.054-1.149-7.3.329.054 1.12Zm.082 2.324 7.028-.219.054-1.312-7.136.273.054 1.258Zm2.16-9.324 2.297-.11.137-1.722-2.57.136.136 1.696Zm2.899 11.511c0-.145.055-.31.164-.492.182-.31.383-.465.601-.465.219 0 .611.137 1.176.41.584.256 1.778.848 3.582 1.778.365.164.547.383.547.656 0 .146-.073.374-.219.684-.145.31-.328.465-.546.465-.164 0-.374-.092-.629-.274a21.08 21.08 0 0 0-4.129-2.215 1.642 1.642 0 0 1-.41-.218.444.444 0 0 1-.137-.329Zm3.637-11.812.273-1.75-2.871.164-.164 1.723 2.762-.137Z"/></svg>