<svg width="340" height="60" viewBox="0 0 340 60" fill="none" xmlns="http://www.w3.org/2000/svg">
<path d="M115.23 30.6367C114.957 30.6367 114.711 30.5273 114.492 30.3086C114.219 30.1081 114.082 29.9531 114.082 29.8438C114.082 29.7161 114.292 29.6523 114.711 29.6523L116.051 29.5703L117.418 29.4336C117.454 29.1419 117.473 28.5859 117.473 27.7656C117.527 27.7656 117.245 27.8021 116.625 27.875L116.105 27.957C115.941 28.0299 115.796 28.0664 115.668 28.0664C115.559 28.0664 115.467 28.0299 115.395 27.957C115.103 27.7018 114.957 27.4831 114.957 27.3008V26.0156C114.957 25.888 114.911 25.3958 114.82 24.5391L114.793 24.2383C114.793 24.0924 114.82 24.0013 114.875 23.9648C114.93 23.9284 115.03 23.9284 115.176 23.9648C115.723 24.1107 115.987 24.2747 115.969 24.457L115.941 24.6484C115.905 24.9036 115.887 25.2318 115.887 25.6328C115.887 26.1068 115.896 26.4076 115.914 26.5352C115.951 26.8997 115.969 27.0729 115.969 27.0547C115.987 27.1276 116.051 27.1641 116.16 27.1641C116.27 27.1641 116.488 27.1367 116.816 27.082C117.163 27.0091 117.391 26.9635 117.5 26.9453V24.5391C117.5 23.8646 117.473 23.4089 117.418 23.1719C117.382 22.9896 117.363 22.8893 117.363 22.8711C117.363 22.7435 117.409 22.6797 117.5 22.6797C117.536 22.6797 117.664 22.7161 117.883 22.7891C118.229 22.9531 118.457 23.099 118.566 23.2266C118.694 23.3542 118.74 23.4909 118.703 23.6367C118.648 23.819 118.612 24.1836 118.594 24.7305C118.557 25.168 118.521 25.8789 118.484 26.8633L119.414 26.8359C119.596 26.8359 119.733 26.8268 119.824 26.8086C119.915 26.7904 119.961 26.7539 119.961 26.6992C120.089 26.0065 120.171 25.4049 120.207 24.8945L120.234 24.5664C120.253 24.5299 120.253 24.4661 120.234 24.375C120.234 24.2839 120.234 24.2201 120.234 24.1836L120.207 23.9922C120.207 23.8281 120.271 23.7461 120.398 23.7461C120.471 23.7461 120.626 23.819 120.863 23.9648C120.918 24.0013 120.991 24.056 121.082 24.1289C121.191 24.1836 121.264 24.2474 121.301 24.3203C121.337 24.375 121.355 24.4479 121.355 24.5391C121.355 24.6484 121.346 24.7396 121.328 24.8125L121.027 26.3438L120.945 26.9727C120.872 27.3919 120.654 27.6198 120.289 27.6562C120.18 27.638 120.089 27.6107 120.016 27.5742C119.961 27.5378 119.915 27.5195 119.879 27.5195C119.66 27.5195 119.204 27.5651 118.512 27.6562L118.484 29.3516L118.949 29.3242L119.387 29.2969C120.061 29.2969 120.562 29.2604 120.891 29.1875C121.036 29.1875 121.164 29.1693 121.273 29.1328L121.355 29.1055C121.538 29.1055 121.729 29.2331 121.93 29.4883C122.167 29.7253 122.285 29.8984 122.285 30.0078C122.285 30.1719 122.03 30.2266 121.52 30.1719L120.48 30.1172H119.113C118.84 30.1172 118.339 30.1536 117.609 30.2266C117.227 30.2266 116.88 30.2448 116.57 30.2812C116.26 30.3177 115.969 30.3815 115.695 30.4727L115.23 30.6367ZM121.164 39.4414C120.891 39.4414 120.626 39.2409 120.371 38.8398C120.043 38.3294 119.724 37.9102 119.414 37.582L118.703 36.8438C118.32 37.2812 117.983 37.6276 117.691 37.8828C117.418 38.138 117.072 38.3841 116.652 38.6211C115.868 39.0768 115.212 39.3047 114.684 39.3047C114.556 39.3047 114.492 39.2591 114.492 39.168C114.492 39.1133 114.665 38.9948 115.012 38.8125C115.358 38.6302 115.686 38.4115 115.996 38.1562C116.78 37.5 117.427 36.8255 117.938 36.1328C117.828 36.0234 117.281 35.5495 116.297 34.7109C116.169 34.6198 115.978 34.4648 115.723 34.2461C115.668 34.2096 115.559 34.1276 115.395 34C115.23 33.8724 115.148 33.7812 115.148 33.7266C115.148 33.6354 115.194 33.5898 115.285 33.5898C115.559 33.5898 115.996 33.7812 116.598 34.1641C117.199 34.5286 117.828 34.9661 118.484 35.4766C118.74 35.1667 118.94 34.875 119.086 34.6016C119.232 34.3281 119.396 33.9909 119.578 33.5898C119.669 33.3893 119.724 33.2161 119.742 33.0703C119.76 32.9062 119.77 32.806 119.77 32.7695C119.77 32.569 119.824 32.4688 119.934 32.4688C120.061 32.4688 120.234 32.569 120.453 32.7695C120.836 33.1341 121.027 33.3802 121.027 33.5078C121.027 33.5807 120.982 33.6628 120.891 33.7539C120.672 33.9727 120.471 34.2643 120.289 34.6289C120.18 34.8477 119.979 35.1576 119.688 35.5586C119.596 35.668 119.523 35.7682 119.469 35.8594C119.414 35.9505 119.359 36.0326 119.305 36.1055C119.724 36.4154 120.344 36.944 121.164 37.6914C121.365 37.8737 121.492 38.0469 121.547 38.2109C121.62 38.3568 121.656 38.5573 121.656 38.8125C121.656 38.9948 121.611 39.1497 121.52 39.2773C121.428 39.3867 121.31 39.4414 121.164 39.4414ZM123.242 29.8164C123.333 29.8164 123.47 29.8802 123.652 30.0078C123.634 30.0443 123.671 30.1172 123.762 30.2266C123.853 30.3177 123.917 30.3815 123.953 30.418C124.044 30.5091 124.135 30.6185 124.227 30.7461C124.336 30.8737 124.454 31.0104 124.582 31.1562C124.91 31.5026 125.667 32.4049 126.852 33.8633C127.052 34.1549 127.152 34.3281 127.152 34.3828C127.152 34.5651 127.043 34.6562 126.824 34.6562C126.697 34.6562 126.56 34.5651 126.414 34.3828C126.068 34.0182 125.448 33.444 124.555 32.6602C123.862 32.0221 123.233 31.5299 122.668 31.1836C122.395 31.056 122.258 30.9102 122.258 30.7461C122.258 30.6185 122.395 30.4362 122.668 30.1992C122.923 29.944 123.115 29.8164 123.242 29.8164ZM104.512 23.9922C104.348 23.9922 104.165 23.8919 103.965 23.6914C102.707 22.3971 101.267 21.2031 99.6445 20.1094C99.4258 19.9453 99.3164 19.7904 99.3164 19.6445C99.3164 19.4805 99.4167 19.2891 99.6172 19.0703C99.8359 18.8333 100.018 18.7148 100.164 18.7148C100.365 18.7148 100.911 19.0247 101.805 19.6445C102.698 20.2461 103.536 20.8841 104.32 21.5586C105.104 22.2331 105.496 22.6797 105.496 22.8984C105.496 23.1172 105.387 23.3542 105.168 23.6094C104.949 23.8646 104.73 23.9922 104.512 23.9922ZM87.4219 27.3008C87.4219 27.1367 87.5039 26.9453 87.668 26.7266C87.832 26.5078 87.987 26.3984 88.1328 26.3984C88.3333 26.3984 88.8893 26.7083 89.8008 27.3281C90.7305 27.9479 91.5964 28.5677 92.3984 29.1875C92.6901 29.4062 92.8359 29.6068 92.8359 29.7891C92.8359 29.9531 92.7266 30.181 92.5078 30.4727C92.3073 30.7643 92.1159 30.9102 91.9336 30.9102C91.806 30.9102 91.6146 30.8008 91.3594 30.582C90.2656 29.5977 89.0807 28.6771 87.8047 27.8203C87.5495 27.6562 87.4219 27.4831 87.4219 27.3008ZM87.5859 41C87.5859 40.9089 87.6589 40.8177 87.8047 40.7266C88.1875 40.4714 88.5247 40.1523 88.8164 39.7695C90.5846 37.2357 92.0612 34.8568 93.2461 32.6328C93.556 32.0859 93.8112 31.8125 94.0117 31.8125C94.1393 31.8125 94.2031 31.931 94.2031 32.168C94.2031 32.3503 94.1484 32.6237 94.0391 32.9883C93.3281 35.1029 92.1159 37.6732 90.4023 40.6992C90.1289 41.1732 89.9193 41.4922 89.7734 41.6562C89.6458 41.8203 89.4818 41.9023 89.2812 41.9023H89.1992C88.7982 41.8477 88.4245 41.7109 88.0781 41.4922C87.75 41.2917 87.5859 41.1276 87.5859 41ZM89.5273 21.2305C89.5273 21.0482 89.6185 20.8568 89.8008 20.6562C89.9831 20.4557 90.1471 20.3555 90.293 20.3555C90.4753 20.3555 90.931 20.638 91.6602 21.2031C92.3893 21.7682 93.082 22.3607 93.7383 22.9805C94.4128 23.6003 94.75 23.9831 94.75 24.1289C94.75 24.293 94.6315 24.5117 94.3945 24.7852C94.1758 25.0586 93.9661 25.1953 93.7656 25.1953C93.6198 25.1953 93.4375 25.0768 93.2188 24.8398C92.1797 23.7461 91.0677 22.7161 89.8828 21.75C89.6458 21.5677 89.5273 21.3945 89.5273 21.2305ZM93.793 40.5898C93.793 40.4805 93.8568 40.4258 93.9844 40.4258C94.0755 40.4258 94.1484 40.4349 94.2031 40.4531C94.5677 40.5443 95.0326 40.5898 95.5977 40.5898L101.887 40.4258L101.859 33.8633L98.8516 34.0273L98.0312 34.0547C97.6849 34.0547 97.457 34.0091 97.3477 33.918C96.7461 33.4076 96.4453 32.9427 96.4453 32.5234C96.4453 32.4141 96.5 32.3594 96.6094 32.3594C96.6823 32.3594 96.7461 32.3685 96.8008 32.3867C97.1107 32.4596 97.4844 32.4961 97.9219 32.4961H98.2773L101.859 32.3047L101.832 26.5625L97.457 26.8086C97.2565 26.8268 96.9922 26.8359 96.6641 26.8359C96.2995 26.8359 96.0625 26.7904 95.9531 26.6992C95.6979 26.4987 95.4792 26.2708 95.2969 26.0156C95.1328 25.7422 95.0508 25.487 95.0508 25.25C95.0508 25.1406 95.1055 25.0859 95.2148 25.0859C95.2878 25.0859 95.3516 25.0951 95.4062 25.1133C95.7161 25.1862 96.0898 25.2227 96.5273 25.2227H96.8828L107.355 24.6484C107.793 24.612 108.203 24.5299 108.586 24.4023C108.622 24.3841 108.677 24.375 108.75 24.375C108.859 24.375 109.042 24.457 109.297 24.6211C109.57 24.7852 109.807 24.9766 110.008 25.1953C110.227 25.3958 110.336 25.5781 110.336 25.7422C110.336 25.9427 110.135 26.0612 109.734 26.0977L103.609 26.4531L103.637 32.2227L106.48 32.0859C106.9 32.0495 107.31 31.9674 107.711 31.8398C107.82 31.8034 107.893 31.7852 107.93 31.7852C108.021 31.7852 108.194 31.8672 108.449 32.0312C108.723 32.1953 108.96 32.3776 109.16 32.5781C109.379 32.7786 109.488 32.9518 109.488 33.0977C109.488 33.3164 109.279 33.444 108.859 33.4805L103.637 33.7539L103.664 40.3984L109.242 40.2617C109.625 40.2617 110.035 40.1979 110.473 40.0703C110.509 40.0521 110.573 40.043 110.664 40.043C110.828 40.043 111.029 40.1341 111.266 40.3164C111.521 40.4805 111.74 40.681 111.922 40.918C112.122 41.1367 112.223 41.3008 112.223 41.4102C112.223 41.6654 112.022 41.8112 111.621 41.8477H111.566L96.1719 42.2031L95.3516 42.2305C95.0052 42.2305 94.7135 42.112 94.4766 41.875C94.2396 41.6562 94.0664 41.4102 93.957 41.1367C93.8477 40.8633 93.793 40.681 93.793 40.5898Z" fill="#333333"/>
<path d="M157.285 27.1367C157.085 27.1367 156.839 26.9818 156.547 26.6719C156.328 26.4531 156.219 26.2891 156.219 26.1797C156.219 26.125 156.255 26.0977 156.328 26.0977C156.401 26.0794 156.492 26.0703 156.602 26.0703L157.203 26.043C157.549 26.043 157.777 26.0339 157.887 26.0156C158.233 26.0156 158.525 26.0065 158.762 25.9883C160.329 25.8424 161.387 25.724 161.934 25.6328C162.207 25.5964 162.453 25.5599 162.672 25.5234C162.891 25.4688 163.064 25.4414 163.191 25.4414C163.447 25.4414 163.702 25.569 163.957 25.8242C164.158 26.0247 164.258 26.1888 164.258 26.3164C164.258 26.4258 164.194 26.4987 164.066 26.5352C163.975 26.5534 163.438 26.5898 162.453 26.6445C161.906 26.6628 161.232 26.7083 160.43 26.7812C159.628 26.8542 158.926 26.9271 158.324 27C158.215 27.0182 158.06 27.0456 157.859 27.082C157.659 27.1185 157.467 27.1367 157.285 27.1367ZM163.656 35.1211C163.857 35.3398 163.957 35.5221 163.957 35.668C163.957 35.7956 163.884 35.9141 163.738 36.0234C163.647 36.0964 163.419 36.4974 163.055 37.2266C162.654 37.8828 162.207 38.457 161.715 38.9492C161.241 39.4232 160.767 39.7695 160.293 39.9883C160.184 40.0247 160.092 40.043 160.02 40.043C159.947 40.043 159.91 40.0247 159.91 39.9883V39.9336C159.91 39.8242 160.001 39.6966 160.184 39.5508C160.512 39.2956 160.758 39.0404 160.922 38.7852C161.104 38.5117 161.241 38.3112 161.332 38.1836C161.715 37.6367 161.988 37.1901 162.152 36.8438C162.335 36.5339 162.462 36.2148 162.535 35.8867H162.426C161.952 35.8867 161.186 35.9414 160.129 36.0508C159.965 36.069 159.491 36.1328 158.707 36.2422C158.543 36.2604 158.288 36.306 157.941 36.3789L157.613 36.4609C157.54 36.4974 157.467 36.5156 157.395 36.5156C157.303 36.5156 157.212 36.4974 157.121 36.4609C157.03 36.4062 156.939 36.3424 156.848 36.2695C156.629 36.0872 156.52 35.9323 156.52 35.8047C156.538 35.7682 156.556 35.7135 156.574 35.6406C156.611 35.5677 156.629 35.5039 156.629 35.4492L156.766 34.5469C156.784 34.4557 156.802 34.3555 156.82 34.2461C156.839 34.1367 156.848 34.0273 156.848 33.918C156.848 33.5716 156.839 33.2982 156.82 33.0977C156.82 32.8789 156.793 32.651 156.738 32.4141V32.332C156.738 32.2044 156.793 32.1406 156.902 32.1406C157.012 32.1406 157.203 32.2227 157.477 32.3867C157.841 32.6419 158.023 32.8424 158.023 32.9883C158.023 33.043 158.014 33.0885 157.996 33.125C157.978 33.1615 157.96 33.1979 157.941 33.2344C157.887 33.5625 157.859 33.7448 157.859 33.7812L157.723 35.2305C157.723 35.2669 157.741 35.3125 157.777 35.3672C157.832 35.4036 157.887 35.4219 157.941 35.4219C158.379 35.4219 159.363 35.3125 160.895 35.0938C161.496 35.0391 161.924 34.9753 162.18 34.9023C162.344 34.8841 162.48 34.8568 162.59 34.8203C162.717 34.7656 162.799 34.7383 162.836 34.7383C162.945 34.7018 163.018 34.6836 163.055 34.6836C163.219 34.6836 163.419 34.8294 163.656 35.1211ZM137.379 42.8047V42.9141C137.379 43.3151 137.242 43.5156 136.969 43.5156C136.677 43.5156 136.349 43.388 135.984 43.1328C135.638 42.8958 135.465 42.6497 135.465 42.3945V42.2852C135.483 42.1758 135.501 42.0208 135.52 41.8203C135.538 41.6198 135.547 41.4375 135.547 41.2734C135.547 41.0547 135.538 40.8815 135.52 40.7539L134.918 33.9727C134.845 33.2982 134.736 32.8333 134.59 32.5781C134.499 32.3958 134.453 32.2682 134.453 32.1953C134.453 32.0495 134.553 31.9766 134.754 31.9766C135.082 31.9766 135.72 32.168 136.668 32.5508L147.25 32.0586H147.441C147.806 32.0586 148.125 32.1589 148.398 32.3594C148.69 32.5417 148.836 32.7786 148.836 33.0703C148.836 33.1615 148.809 33.2708 148.754 33.3984C148.699 33.526 148.663 33.6263 148.645 33.6992L148.016 40.3164C148.471 40.918 148.699 41.3281 148.699 41.5469C148.699 41.6745 148.635 41.7565 148.508 41.793C148.398 41.8294 148.225 41.8477 147.988 41.8477L137.324 42.0391L137.379 42.8047ZM129.039 29.0508C129.039 28.9232 129.094 28.8594 129.203 28.8594C129.276 28.8594 129.34 28.8685 129.395 28.8867C129.686 28.9779 130.087 29.0234 130.598 29.0234H130.953L138.555 28.6406C138.427 28.5677 138.281 28.3763 138.117 28.0664C137.589 27.1003 136.978 26.1979 136.285 25.3594C136.103 25.1589 136.012 24.9948 136.012 24.8672C136.012 24.6849 136.221 24.457 136.641 24.1836L134.617 24.293C134.417 24.3112 134.161 24.3203 133.852 24.3203H133.578C133.159 24.2656 132.812 24.0924 132.539 23.8008C132.284 23.5091 132.156 23.1992 132.156 22.8711C132.156 22.7435 132.211 22.6797 132.32 22.6797C132.393 22.6797 132.457 22.6888 132.512 22.707C132.84 22.7982 133.241 22.8438 133.715 22.8438H134.07L141.918 22.4062C140.551 21.349 139.566 20.6107 138.965 20.1914C138.837 20.1003 138.746 20.0182 138.691 19.9453C138.637 19.8724 138.609 19.7904 138.609 19.6992C138.609 19.5352 138.682 19.3529 138.828 19.1523C138.992 18.9336 139.138 18.806 139.266 18.7695C139.302 18.7513 139.357 18.7422 139.43 18.7422C139.557 18.7422 139.703 18.7969 139.867 18.9062L140.359 19.207C141.38 19.8451 142.201 20.3737 142.82 20.793C143.44 21.2122 143.777 21.5312 143.832 21.75L143.859 21.8867C143.859 21.9961 143.805 22.1419 143.695 22.3242L147.988 22.0781C148.408 22.0417 148.818 21.9596 149.219 21.832C149.255 21.8138 149.319 21.8047 149.41 21.8047C149.629 21.8047 149.939 21.9779 150.34 22.3242C150.741 22.6523 150.941 22.9258 150.941 23.1445C150.941 23.3268 150.714 23.4362 150.258 23.4727L145.609 23.7188C145.846 23.8646 146.111 24.1016 146.402 24.4297C146.712 24.7578 146.867 25.0404 146.867 25.2773C146.867 25.4049 146.812 25.5417 146.703 25.6875C145.919 26.6901 145.117 27.5833 144.297 28.3672L151.461 28.0117C151.88 27.9753 152.29 27.8932 152.691 27.7656C152.728 27.7474 152.792 27.7383 152.883 27.7383C153.083 27.7383 153.384 27.9115 153.785 28.2578C154.204 28.6042 154.414 28.8958 154.414 29.1328C154.414 29.3516 154.186 29.4792 153.73 29.5156L131.5 30.582L130.543 30.6094C130.233 30.6094 130.023 30.5638 129.914 30.4727C129.586 30.1992 129.358 29.9258 129.23 29.6523C129.103 29.3789 129.039 29.1784 129.039 29.0508ZM136.887 36.4609L146.594 36.1055L146.758 33.6172L136.695 34.0547L136.887 36.4609ZM137.188 40.5078L146.293 40.3164L146.484 37.5547L136.996 37.9102L137.188 40.5078ZM137.133 24.1562C137.206 24.1927 137.479 24.4753 137.953 25.0039C138.427 25.5326 138.865 26.0703 139.266 26.6172C139.667 27.1458 139.867 27.5195 139.867 27.7383C139.867 27.957 139.703 28.194 139.375 28.4492L139.238 28.5586L139.102 28.6133L142.574 28.4492C143.176 27.6836 143.695 26.9271 144.133 26.1797C144.57 25.4141 144.844 24.7669 144.953 24.2383L144.98 23.9375L145.008 23.7461L137.133 24.1562Z" fill="#333333"/>
<path d="M201.582 29.7891C200.707 29.7891 200.124 29.7344 199.832 29.625C199.486 29.4609 199.258 29.0872 199.148 28.5039C199.094 28.194 199.066 27.8021 199.066 27.3281L198.957 25.5508V24.8672C198.939 24.849 198.93 24.8034 198.93 24.7305L198.902 24.4297C198.884 24.2839 198.802 24.1107 198.656 23.9102C198.602 23.8008 198.574 23.7188 198.574 23.6641C198.574 23.5365 198.729 23.5 199.039 23.5547C199.367 23.6094 199.741 23.6367 200.16 23.6367C200.452 23.6367 200.999 23.6185 201.801 23.582C202.074 23.5638 202.712 23.4818 203.715 23.3359L204.59 23.1445L204.809 23.0898C204.973 23.0898 205.173 23.1901 205.41 23.3906C205.611 23.5547 205.711 23.7096 205.711 23.8555C205.711 24.0378 205.574 24.1471 205.301 24.1836C204.59 24.2383 204.043 24.2656 203.66 24.2656L202.676 24.3203C202.384 24.3568 202.184 24.375 202.074 24.375C200.871 24.4297 200.188 24.457 200.023 24.457C200.023 25.7331 200.033 26.526 200.051 26.8359C200.087 27.3464 200.115 27.7474 200.133 28.0391C200.169 28.3307 200.215 28.5221 200.27 28.6133C200.306 28.6862 200.37 28.7409 200.461 28.7773C200.57 28.7956 200.671 28.8138 200.762 28.832C200.871 28.832 200.953 28.832 201.008 28.832C201.026 28.832 201.072 28.8411 201.145 28.8594C201.236 28.8594 201.409 28.8594 201.664 28.8594C201.846 28.8594 202.156 28.8411 202.594 28.8047C203.159 28.7682 203.706 28.6953 204.234 28.5859C204.362 28.5677 204.654 28.5586 205.109 28.5586C205.328 28.5586 205.538 28.6589 205.738 28.8594C205.829 28.9505 205.875 29.0781 205.875 29.2422C205.875 29.3698 205.839 29.4609 205.766 29.5156C205.656 29.5703 205.483 29.6159 205.246 29.6523C205.027 29.6706 204.745 29.6888 204.398 29.707C203.396 29.7617 202.457 29.7891 201.582 29.7891ZM205.164 39.4414C204.891 39.4414 204.626 39.2409 204.371 38.8398C204.043 38.3294 203.724 37.9102 203.414 37.582L202.703 36.8438C202.32 37.2812 201.983 37.6276 201.691 37.8828C201.418 38.138 201.072 38.3841 200.652 38.6211C199.868 39.0768 199.212 39.3047 198.684 39.3047C198.556 39.3047 198.492 39.2591 198.492 39.168C198.492 39.1133 198.665 38.9948 199.012 38.8125C199.358 38.6302 199.686 38.4115 199.996 38.1562C200.78 37.5 201.427 36.8255 201.938 36.1328C201.828 36.0234 201.281 35.5495 200.297 34.7109C200.169 34.6198 199.978 34.4648 199.723 34.2461C199.668 34.2096 199.559 34.1276 199.395 34C199.23 33.8724 199.148 33.7812 199.148 33.7266C199.148 33.6354 199.194 33.5898 199.285 33.5898C199.559 33.5898 199.996 33.7812 200.598 34.1641C201.199 34.5286 201.828 34.9661 202.484 35.4766C202.74 35.1667 202.94 34.875 203.086 34.6016C203.232 34.3281 203.396 33.9909 203.578 33.5898C203.669 33.3893 203.724 33.2161 203.742 33.0703C203.76 32.9062 203.77 32.806 203.77 32.7695C203.77 32.569 203.824 32.4688 203.934 32.4688C204.061 32.4688 204.234 32.569 204.453 32.7695C204.836 33.1341 205.027 33.3802 205.027 33.5078C205.027 33.5807 204.982 33.6628 204.891 33.7539C204.672 33.9727 204.471 34.2643 204.289 34.6289C204.18 34.8477 203.979 35.1576 203.688 35.5586C203.596 35.668 203.523 35.7682 203.469 35.8594C203.414 35.9505 203.359 36.0326 203.305 36.1055C203.724 36.4154 204.344 36.944 205.164 37.6914C205.365 37.8737 205.492 38.0469 205.547 38.2109C205.62 38.3568 205.656 38.5573 205.656 38.8125C205.656 38.9948 205.611 39.1497 205.52 39.2773C205.428 39.3867 205.31 39.4414 205.164 39.4414ZM210.742 27.6289C210.961 27.6289 211.07 27.7292 211.07 27.9297C211.07 28.0391 210.97 28.194 210.77 28.3945C210.223 29.069 209.138 30.3542 207.516 32.25C207.388 32.4141 207.27 32.4961 207.16 32.4961C207.069 32.4961 206.868 32.3594 206.559 32.0859C206.303 31.8672 206.176 31.6849 206.176 31.5391C206.176 31.375 206.312 31.2201 206.586 31.0742C207.005 30.8372 207.634 30.3633 208.473 29.6523C209.311 28.9049 209.931 28.3125 210.332 27.875C210.496 27.7109 210.633 27.6289 210.742 27.6289ZM181.02 31.8672C180.6 31.8672 180.29 31.7852 180.09 31.6211C179.889 31.457 179.698 31.0833 179.516 30.5C179.497 30.4635 179.488 30.418 179.488 30.3633C179.488 30.2904 179.525 30.2539 179.598 30.2539C179.671 30.2539 179.734 30.263 179.789 30.2812C180.154 30.3724 180.546 30.418 180.965 30.418H181.238L189.004 30.0078V28.1758C189.004 27.6107 188.867 27.1185 188.594 26.6992C188.503 26.5534 188.457 26.444 188.457 26.3711C188.457 26.2253 188.585 26.1523 188.84 26.1523C189.04 26.1523 189.332 26.207 189.715 26.3164C190.098 26.4258 190.344 26.5443 190.453 26.6719C190.581 26.7812 190.645 26.9544 190.645 27.1914L190.672 29.9258L193.543 29.7891C193.853 29.7708 194.181 29.6797 194.527 29.5156C194.618 29.4609 194.71 29.4336 194.801 29.4336C195.038 29.4336 195.339 29.6068 195.703 29.9531C196.086 30.2995 196.277 30.5729 196.277 30.7734C196.277 30.974 196.077 31.0924 195.676 31.1289L190.672 31.375L190.727 41.1914L190.754 42.0391C190.754 42.4219 190.635 42.75 190.398 43.0234C190.161 43.2969 189.888 43.4336 189.578 43.4336C189.286 43.4336 188.694 43.2057 187.801 42.75C186.926 42.3125 186.115 41.8294 185.367 41.3008C184.62 40.7904 184.246 40.4167 184.246 40.1797C184.246 40.0521 184.346 39.9883 184.547 39.9883C184.729 39.9883 184.966 40.043 185.258 40.1523C186.771 40.7539 188.038 41.1458 189.059 41.3281L189.031 31.457L181.73 31.8398L181.02 31.8672ZM171.121 36.8711C171.121 36.707 171.267 36.4792 171.559 36.1875C172.889 34.875 174.129 33.4987 175.277 32.0586C176.426 30.6003 177.383 29.1875 178.148 27.8203C178.312 27.5286 178.395 27.2188 178.395 26.8906L178.367 26.6445L178.34 26.4805C178.34 26.2799 178.431 26.1797 178.613 26.1797C178.741 26.1797 178.951 26.2617 179.242 26.4258C179.534 26.5716 179.798 26.7539 180.035 26.9727C180.272 27.1732 180.391 27.3646 180.391 27.5469C180.391 27.6562 180.126 28.1211 179.598 28.9414C179.087 29.7435 178.458 30.5729 177.711 31.4297L177.738 42.5859C177.738 43.0964 177.574 43.3516 177.246 43.3516C176.863 43.2604 176.535 43.1237 176.262 42.9414C176.007 42.7591 175.879 42.5312 175.879 42.2578C175.879 42.2214 175.897 42.0938 175.934 41.875C176.043 41.401 176.098 40.7995 176.098 40.0703L176.152 33.207C174.895 34.5195 173.491 35.7044 171.941 36.7617L171.805 36.8438C171.568 36.9714 171.395 37.0352 171.285 37.0352C171.176 37.0352 171.121 36.9805 171.121 36.8711ZM171.75 27.8203C171.75 27.6562 171.878 27.4466 172.133 27.1914C173.135 26.1706 174.211 24.8125 175.359 23.1172C176.508 21.4219 177.082 20.2917 177.082 19.7266L177.055 19.5352V19.4531C177.055 19.1979 177.155 19.0703 177.355 19.0703C177.592 19.0703 177.921 19.2344 178.34 19.5625C178.777 19.8724 178.996 20.1276 178.996 20.3281C178.996 20.4193 178.951 20.5378 178.859 20.6836C178.622 21.1211 178.349 21.5586 178.039 21.9961L182.113 21.6953C182.441 21.6771 182.788 21.6042 183.152 21.4766C183.298 21.4401 183.398 21.4219 183.453 21.4219C183.635 21.4219 183.9 21.5677 184.246 21.8594C184.592 22.151 184.766 22.388 184.766 22.5703C184.766 22.7891 184.565 22.9167 184.164 22.9531L179.406 23.2812C179.826 23.5547 180.345 23.9557 180.965 24.4844C181.603 24.9948 181.922 25.3685 181.922 25.6055C181.922 25.7695 181.84 25.9336 181.676 26.0977C181.402 26.4076 181.184 26.5625 181.02 26.5625C180.874 26.5625 180.701 26.444 180.5 26.207C179.971 25.6055 179.342 24.9674 178.613 24.293C178.395 24.0742 178.285 23.9102 178.285 23.8008C178.285 23.6732 178.367 23.5182 178.531 23.3359L177 23.4453C176.089 24.5938 175.268 25.5052 174.539 26.1797C173.81 26.8542 173.227 27.3281 172.789 27.6016C172.352 27.8568 172.069 27.9844 171.941 27.9844C171.814 27.9844 171.75 27.9297 171.75 27.8203ZM182.004 34.1094C182.004 33.9635 182.086 33.7904 182.25 33.5898C182.432 33.3893 182.615 33.2891 182.797 33.2891C182.961 33.2891 183.362 33.5443 184 34.0547C184.638 34.5651 185.24 35.1029 185.805 35.668C186.37 36.2331 186.652 36.5885 186.652 36.7344C186.652 36.9349 186.516 37.1719 186.242 37.4453C185.987 37.7188 185.768 37.8555 185.586 37.8555C185.458 37.8555 185.322 37.7734 185.176 37.6094C184.137 36.3698 183.171 35.3672 182.277 34.6016C182.095 34.4375 182.004 34.2734 182.004 34.1094ZM182.77 26.8633C182.77 26.6992 182.879 26.4805 183.098 26.207C184.592 24.293 185.786 22.2878 186.68 20.1914C186.771 20.0091 186.816 19.6992 186.816 19.2617V18.9883C186.816 18.7695 186.908 18.6602 187.09 18.6602C187.217 18.6602 187.418 18.7331 187.691 18.8789C187.965 19.0065 188.211 19.1706 188.43 19.3711C188.648 19.5534 188.758 19.7357 188.758 19.918C188.758 19.9727 188.721 20.0911 188.648 20.2734C188.32 20.8568 188.065 21.2943 187.883 21.5859L192.914 21.1758C193.333 21.1393 193.68 21.0755 193.953 20.9844C194.008 20.9661 194.09 20.957 194.199 20.957C194.418 20.957 194.691 21.1029 195.02 21.3945C195.348 21.6862 195.512 21.9141 195.512 22.0781C195.512 22.2969 195.311 22.4245 194.91 22.4609L189.715 22.8164C190.371 23.3086 191.018 23.8372 191.656 24.4023C192.294 24.9492 192.613 25.332 192.613 25.5508C192.613 25.7148 192.504 25.9245 192.285 26.1797C192.085 26.4167 191.893 26.5352 191.711 26.5352C191.583 26.5352 191.438 26.444 191.273 26.2617C190.544 25.4232 189.733 24.612 188.84 23.8281C188.639 23.6276 188.539 23.4727 188.539 23.3633C188.539 23.2174 188.612 23.0625 188.758 22.8984L186.926 23.0078C186.415 23.737 185.878 24.4115 185.312 25.0312C184.766 25.651 184.264 26.1432 183.809 26.5078C183.371 26.8542 183.079 27.0273 182.934 27.0273C182.824 27.0273 182.77 26.9727 182.77 26.8633Z" fill="#333333"/>
<path d="M240.273 30.0625C240.255 30.0625 240.191 30.0807 240.082 30.1172C239.991 30.1354 239.945 30.1081 239.945 30.0352C239.945 30.0169 239.982 29.9805 240.055 29.9258C240.128 29.8529 240.191 29.7891 240.246 29.7344C240.301 29.6797 240.383 29.6068 240.492 29.5156C240.602 29.4062 240.684 29.2969 240.738 29.1875C241.012 28.7318 241.203 28.276 241.312 27.8203L241.477 26.8633C241.604 26.1523 241.659 25.3229 241.641 24.375C241.641 24.1562 241.613 23.9284 241.559 23.6914C241.54 23.582 241.449 23.4271 241.285 23.2266V23.1992C241.285 23.1628 241.331 23.1445 241.422 23.1445C241.549 23.1445 241.659 23.1536 241.75 23.1719C241.987 23.2266 242.251 23.2539 242.543 23.2539C242.853 23.2357 243.044 23.2266 243.117 23.2266L244.949 23.0898C245.314 23.0534 245.551 23.0352 245.66 23.0352C246.444 22.9258 246.799 22.8802 246.727 22.8984C247.146 22.8255 247.401 22.7891 247.492 22.7891C247.784 22.8073 248.076 23.0352 248.367 23.4727L248.422 23.6094C248.422 23.7188 248.34 23.7826 248.176 23.8008C248.012 23.819 247.911 23.8281 247.875 23.8281C247.31 23.8281 246.891 23.8372 246.617 23.8555C245.924 23.8555 245.414 23.8646 245.086 23.8828L244.32 23.9375L242.762 24.1016C242.652 25.6328 242.552 26.6354 242.461 27.1094C242.315 27.9661 242.033 28.6589 241.613 29.1875C241.303 29.5885 240.857 29.8802 240.273 30.0625ZM247.164 38.2109C247.201 38.2839 247.264 38.3932 247.355 38.5391C247.447 38.6849 247.492 38.8581 247.492 39.0586C247.492 39.2409 247.419 39.3867 247.273 39.4961C247.128 39.6237 246.964 39.6875 246.781 39.6875C246.617 39.6875 246.48 39.5234 246.371 39.1953C246.316 39.0677 246.271 38.9674 246.234 38.8945C246.216 38.8034 246.198 38.7305 246.18 38.6758C245.943 38.7487 245.633 38.8125 245.25 38.8672C244.867 38.9219 244.594 38.9674 244.43 39.0039C243.555 39.168 242.953 39.2865 242.625 39.3594C242.497 39.3958 242.361 39.4414 242.215 39.4961C242.069 39.5326 241.987 39.5599 241.969 39.5781C241.859 39.6146 241.777 39.6328 241.723 39.6328C241.577 39.6328 241.44 39.569 241.312 39.4414C241.094 39.2773 240.93 39.0586 240.82 38.7852C240.802 38.7669 240.793 38.7396 240.793 38.7031C240.793 38.6667 240.839 38.6211 240.93 38.5664C241.039 38.5117 241.121 38.4753 241.176 38.457C241.413 38.3294 241.832 37.9466 242.434 37.3086L243.172 36.5977L241.559 35.7227C241.376 35.668 241.258 35.6042 241.203 35.5312C241.148 35.4583 241.121 35.349 241.121 35.2031C241.121 35.0938 241.139 35.0208 241.176 34.9844C241.23 34.9297 241.34 34.8477 241.504 34.7383C241.668 34.6289 241.832 34.4831 241.996 34.3008C242.087 34.1914 242.206 34.0729 242.352 33.9453C242.497 33.8177 242.634 33.681 242.762 33.5352C243.309 32.8971 243.655 32.3958 243.801 32.0312C243.892 31.849 243.965 31.7578 244.02 31.7578C244.056 31.7578 244.129 31.7943 244.238 31.8672C244.585 32.1224 244.794 32.3594 244.867 32.5781V32.6602C244.867 32.7513 244.822 32.8242 244.73 32.8789C244.639 32.9336 244.576 32.9792 244.539 33.0156C244.484 33.0521 244.211 33.3164 243.719 33.8086L243.227 34.3008C243.135 34.3919 242.98 34.5469 242.762 34.7656C242.543 34.9661 242.434 35.0846 242.434 35.1211C242.434 35.1758 242.461 35.2214 242.516 35.2578C242.589 35.2943 242.643 35.3307 242.68 35.3672L243.828 35.9141C244.539 35.2031 244.949 34.7839 245.059 34.6562C245.533 34.1094 245.797 33.763 245.852 33.6172C245.87 33.599 245.897 33.5534 245.934 33.4805C245.97 33.4076 246.007 33.3711 246.043 33.3711C246.098 33.3711 246.152 33.3984 246.207 33.4531C246.499 33.7266 246.708 33.9818 246.836 34.2188C246.872 34.2917 246.891 34.3372 246.891 34.3555C246.891 34.3919 246.845 34.4466 246.754 34.5195C246.681 34.5742 246.608 34.6289 246.535 34.6836C245.897 35.2122 245.15 35.9049 244.293 36.7617L242.625 38.3203C242.589 38.3568 242.57 38.3932 242.57 38.4297C242.57 38.4661 242.589 38.4935 242.625 38.5117C242.661 38.5299 242.716 38.5299 242.789 38.5117L245.988 37.9648C245.897 37.6003 245.788 37.2357 245.66 36.8711V36.8164C245.66 36.7617 245.688 36.7344 245.742 36.7344C245.815 36.7344 245.924 36.7891 246.07 36.8984C246.362 37.1536 246.727 37.5911 247.164 38.2109ZM249.242 29.8164C249.333 29.8164 249.47 29.8802 249.652 30.0078C249.634 30.0443 249.671 30.1172 249.762 30.2266C249.853 30.3177 249.917 30.3815 249.953 30.418C250.044 30.5091 250.135 30.6185 250.227 30.7461C250.336 30.8737 250.454 31.0104 250.582 31.1562C250.91 31.5026 251.667 32.4049 252.852 33.8633C253.052 34.1549 253.152 34.3281 253.152 34.3828C253.152 34.5651 253.043 34.6562 252.824 34.6562C252.697 34.6562 252.56 34.5651 252.414 34.3828C252.068 34.0182 251.448 33.444 250.555 32.6602C249.862 32.0221 249.233 31.5299 248.668 31.1836C248.395 31.056 248.258 30.9102 248.258 30.7461C248.258 30.6185 248.395 30.4362 248.668 30.1992C248.923 29.944 249.115 29.8164 249.242 29.8164ZM225.863 25.9062C225.863 28.5677 225.745 30.9648 225.508 33.0977C225.326 34.9753 224.924 36.6615 224.305 38.1562C223.685 39.6328 223.038 40.7995 222.363 41.6562C221.707 42.5312 221.26 42.9688 221.023 42.9688C220.896 42.9688 220.832 42.8867 220.832 42.7227C220.832 42.5586 220.932 42.3034 221.133 41.957C222.336 39.8242 223.156 37.5547 223.594 35.1484C224.031 32.7422 224.25 30.1354 224.25 27.3281V26.7812C224.232 25.7969 224.141 25.0039 223.977 24.4023C223.922 24.2383 223.895 24.1107 223.895 24.0195C223.895 23.8737 223.967 23.8008 224.113 23.8008C224.387 23.8008 224.979 24.0651 225.891 24.5938L229.035 24.375V20.5742C229.035 19.9909 228.935 19.5534 228.734 19.2617C228.68 19.1706 228.652 19.0885 228.652 19.0156C228.652 18.888 228.762 18.8242 228.98 18.8242C229.199 18.8242 229.509 18.888 229.91 19.0156C230.184 19.0885 230.366 19.1888 230.457 19.3164C230.548 19.444 230.594 19.6172 230.594 19.8359V21.2852L233.328 21.0938C233.638 21.0573 233.939 20.9935 234.23 20.9023C234.267 20.8841 234.312 20.875 234.367 20.875C234.549 20.875 234.732 20.957 234.914 21.1211C235.096 21.2669 235.251 21.4401 235.379 21.6406C235.525 21.8411 235.598 21.9688 235.598 22.0234C235.598 22.1328 235.543 22.2057 235.434 22.2422C235.324 22.2786 235.16 22.306 234.941 22.3242L230.566 22.625V24.293L236.172 23.9102H236.391C236.737 23.9102 237.029 24.0286 237.266 24.2656C237.503 24.5026 237.621 24.7031 237.621 24.8672C237.621 25.013 237.384 25.3138 236.91 25.7695C236.436 26.207 235.926 26.6172 235.379 27C234.832 27.3828 234.458 27.5742 234.258 27.5742C234.13 27.5742 234.066 27.5195 234.066 27.4102C234.066 27.2461 234.194 27.0365 234.449 26.7812C234.96 26.1979 235.315 25.7057 235.516 25.3047L225.863 25.9062ZM213.121 29.6797C213.121 29.5339 213.167 29.4609 213.258 29.4609C213.312 29.4609 213.358 29.4701 213.395 29.4883C213.704 29.6159 214.014 29.6797 214.324 29.6797H214.516L220.723 29.3789C221.105 29.3607 221.516 29.2786 221.953 29.1328C222.099 29.0964 222.199 29.0781 222.254 29.0781C222.454 29.0781 222.664 29.1602 222.883 29.3242C223.102 29.4701 223.284 29.6432 223.43 29.8438C223.576 30.026 223.648 30.1536 223.648 30.2266C223.648 30.4453 223.43 30.5729 222.992 30.6094L218.07 30.9102L217.168 33.4258L220.176 33.207L220.586 33.1797C220.859 33.1797 221.105 33.2708 221.324 33.4531C221.543 33.6354 221.652 33.8359 221.652 34.0547C221.652 34.1458 221.616 34.2826 221.543 34.4648C221.47 34.6471 221.434 34.793 221.434 34.9023C221.288 36.0326 221.105 37.0443 220.887 37.9375C220.686 38.8307 220.422 39.7786 220.094 40.7812C219.966 41.1094 219.775 41.4466 219.52 41.793C219.283 42.1393 218.954 42.3125 218.535 42.3125C218.225 42.3125 217.751 42.0755 217.113 41.6016C216.493 41.1458 215.919 40.6354 215.391 40.0703C214.88 39.5052 214.625 39.1133 214.625 38.8945C214.625 38.8034 214.68 38.7578 214.789 38.7578C214.971 38.7578 215.245 38.8763 215.609 39.1133C216.357 39.5872 217.232 40.0065 218.234 40.3711C218.253 40.3893 218.289 40.3984 218.344 40.3984C218.471 40.3984 218.544 40.3438 218.562 40.2344C219.146 38.6667 219.574 36.7799 219.848 34.5742L217.387 34.7383C217.186 34.7565 216.967 34.8021 216.73 34.875C216.493 34.9297 216.329 34.957 216.238 34.957C216.092 34.957 215.901 34.8659 215.664 34.6836C215.445 34.5013 215.336 34.3099 215.336 34.1094C215.336 34.0365 215.391 33.8542 215.5 33.5625L216.457 30.9922L214.871 31.1016H214.516C214.133 31.1016 213.868 31.0378 213.723 30.9102C213.504 30.7279 213.349 30.5182 213.258 30.2812C213.167 30.026 213.121 29.8255 213.121 29.6797ZM214.98 21.2852C214.98 21.1758 215.053 21.1211 215.199 21.1211C215.491 21.1211 216.065 21.2852 216.922 21.6133L220.859 21.2852L221.133 21.2578C221.37 21.2578 221.634 21.3672 221.926 21.5859C222.181 21.75 222.309 21.9414 222.309 22.1602C222.309 22.2513 222.263 22.3789 222.172 22.543C222.099 22.6888 222.062 22.7891 222.062 22.8438L221.543 25.8516C222.035 26.3255 222.281 26.681 222.281 26.918C222.281 27.1003 222.09 27.2096 221.707 27.2461L217.305 27.4922L217.359 28.0664V28.1484C217.359 28.4401 217.232 28.5859 216.977 28.5859C216.721 28.5859 216.439 28.4948 216.129 28.3125C215.819 28.1302 215.664 27.8932 215.664 27.6016C215.664 27.4557 215.673 27.3464 215.691 27.2734C215.728 27.0729 215.746 26.7812 215.746 26.3984C215.746 26.0703 215.737 25.8151 215.719 25.6328L215.418 22.8438C215.345 22.3698 215.245 21.987 215.117 21.6953C215.026 21.513 214.98 21.3763 214.98 21.2852ZM217.223 26.1797L220.094 26.0156L220.477 22.6523L216.977 22.9258L217.223 26.1797ZM223.676 42.832C223.676 42.6315 223.885 42.4036 224.305 42.1484C226.747 40.599 228.014 38.375 228.105 35.4766V35.2578C228.105 34.8021 228.023 34.4193 227.859 34.1094C227.805 34.0182 227.777 33.9362 227.777 33.8633C227.777 33.7539 227.868 33.6992 228.051 33.6992C228.342 33.6992 228.698 33.7904 229.117 33.9727C229.536 34.1367 229.746 34.4102 229.746 34.793C229.691 36.2695 229.418 37.6458 228.926 38.9219C228.579 39.7969 228.069 40.5352 227.395 41.1367C226.72 41.7565 226.046 42.2214 225.371 42.5312C224.697 42.8411 224.223 42.9961 223.949 42.9961C223.767 42.9961 223.676 42.9414 223.676 42.832ZM226.137 28.8867C226.137 28.8138 226.173 28.7773 226.246 28.7773C226.319 28.7773 226.383 28.7865 226.438 28.8047C226.656 28.8594 226.857 28.8867 227.039 28.8867C227.203 28.8867 227.331 28.8776 227.422 28.8594L228.953 28.6953V27.6016C228.953 27.1823 228.871 26.8086 228.707 26.4805C228.652 26.3711 228.625 26.2891 228.625 26.2344C228.625 26.125 228.707 26.0703 228.871 26.0703C229.09 26.0703 229.409 26.1432 229.828 26.2891C230.247 26.4349 230.457 26.6992 230.457 27.082L230.43 28.5039L233.164 28.2031C233.474 28.1849 233.784 28.112 234.094 27.9844C234.167 27.9479 234.23 27.9297 234.285 27.9297C234.486 27.9297 234.714 28.0664 234.969 28.3398C235.242 28.5951 235.379 28.7956 235.379 28.9414C235.379 29.1055 235.251 29.2148 234.996 29.2695L234.832 29.2969L230.402 29.7891L230.375 30.9375C230.375 31.1562 230.402 31.3112 230.457 31.4023C230.512 31.4935 230.621 31.5573 230.785 31.5938C230.967 31.612 231.259 31.6211 231.66 31.6211C232.262 31.6211 232.727 31.5846 233.055 31.5117C233.383 31.4388 233.674 31.3385 233.93 31.2109C234.039 31.1562 234.139 31.1289 234.23 31.1289C234.413 31.1289 234.641 31.2747 234.914 31.5664C235.206 31.8398 235.352 32.0768 235.352 32.2773C235.352 32.5326 235.105 32.6875 234.613 32.7422C233.283 32.9245 232.198 33.0156 231.359 33.0156C230.812 33.0156 230.375 32.9883 230.047 32.9336C229.719 32.8607 229.445 32.6875 229.227 32.4141C229.026 32.1406 228.926 31.7214 228.926 31.1562V29.9531L227.723 30.0898C227.632 30.1081 227.504 30.1172 227.34 30.1172C226.993 30.1172 226.702 29.9805 226.465 29.707C226.246 29.4154 226.137 29.1419 226.137 28.8867ZM231.277 33.7812C231.277 33.6536 231.387 33.5898 231.605 33.5898C231.842 33.5898 232.171 33.6719 232.59 33.8359C233.027 33.9818 233.246 34.2461 233.246 34.6289L233.137 39.8516C233.137 40.3255 233.255 40.6263 233.492 40.7539C233.747 40.8633 234.185 40.918 234.805 40.918C235.57 40.918 236.099 40.8542 236.391 40.7266C236.682 40.599 236.892 40.3164 237.02 39.8789C237.165 39.4414 237.329 38.612 237.512 37.3906C237.621 36.6797 237.785 36.3242 238.004 36.3242C238.095 36.3242 238.168 36.4154 238.223 36.5977C238.277 36.7799 238.314 37.0443 238.332 37.3906V38.1836C238.332 39.4596 238.268 40.3711 238.141 40.918C238.013 41.4648 237.694 41.8659 237.184 42.1211C236.673 42.3763 235.826 42.5039 234.641 42.5039C233.948 42.5039 233.392 42.4583 232.973 42.3672C232.572 42.2943 232.234 42.0846 231.961 41.7383C231.706 41.3919 231.578 40.8633 231.578 40.1523V40.043L231.66 35.0664C231.66 34.6289 231.56 34.2734 231.359 34C231.305 33.9089 231.277 33.8359 231.277 33.7812Z" fill="#333333"/>
</svg>
