<svg width="340" height="60" viewBox="0 0 340 60" fill="none" xmlns="http://www.w3.org/2000/svg">
<path d="M52.2852 27.1367C52.0846 27.1367 51.8385 26.9818 51.5469 26.6719C51.3281 26.4531 51.2188 26.2891 51.2188 26.1797C51.2188 26.125 51.2552 26.0977 51.3281 26.0977C51.401 26.0794 51.4922 26.0703 51.6016 26.0703L52.2031 26.043C52.5495 26.043 52.7773 26.0339 52.8867 26.0156C53.2331 26.0156 53.5247 26.0065 53.7617 25.9883C55.3294 25.8424 56.3867 25.724 56.9336 25.6328C57.207 25.5964 57.4531 25.5599 57.6719 25.5234C57.8906 25.4688 58.0638 25.4414 58.1914 25.4414C58.4466 25.4414 58.7018 25.569 58.957 25.8242C59.1576 26.0247 59.2578 26.1888 59.2578 26.3164C59.2578 26.4258 59.194 26.4987 59.0664 26.5352C58.9753 26.5534 58.4375 26.5898 57.4531 26.6445C56.9062 26.6628 56.2318 26.7083 55.4297 26.7812C54.6276 26.8542 53.9258 26.9271 53.3242 27C53.2148 27.0182 53.0599 27.0456 52.8594 27.082C52.6589 27.1185 52.4674 27.1367 52.2852 27.1367ZM58.7109 39.5508C58.6927 39.569 58.6471 39.5781 58.5742 39.5781C58.4284 39.5781 58.2188 39.4779 57.9453 39.2773C57.3255 38.6576 56.5143 37.8919 55.5117 36.9805C55.0378 37.4544 54.5911 37.8646 54.1719 38.2109C54.026 38.3203 53.7708 38.4844 53.4062 38.7031C52.8776 39.013 52.3672 39.2044 51.875 39.2773H51.7109C51.5469 39.2773 51.4466 39.2591 51.4102 39.2227C51.3919 39.2044 51.4284 39.168 51.5195 39.1133C51.6289 39.0586 51.7109 39.013 51.7656 38.9766C51.875 38.9219 52.1849 38.7214 52.6953 38.375C52.9505 38.1927 53.3151 37.8828 53.7891 37.4453C54.263 37.0078 54.6094 36.6523 54.8281 36.3789L53.707 35.5039C53.5065 35.3581 53.2878 35.2031 53.0508 35.0391C52.832 34.8568 52.6771 34.7383 52.5859 34.6836L52.5586 34.6016C52.5586 34.4922 52.6497 34.4375 52.832 34.4375C53.0508 34.4375 53.4062 34.5742 53.8984 34.8477L55.293 35.75C55.6029 35.349 55.9128 34.9115 56.2227 34.4375C56.5508 33.9453 56.724 33.6536 56.7422 33.5625C56.7604 33.5078 56.7513 33.4622 56.7148 33.4258C56.6966 33.3711 56.6602 33.3438 56.6055 33.3438H56.0586L55.0742 33.4258C54.582 33.4622 54.0898 33.526 53.5977 33.6172C53.543 33.6354 53.4518 33.6628 53.3242 33.6992C53.1966 33.7357 53.0872 33.7539 52.9961 33.7539C52.9596 33.7539 52.8047 33.6536 52.5312 33.4531C52.276 33.2344 52.1393 33.0977 52.1211 33.043C52.1029 33.0247 52.0938 32.9974 52.0938 32.9609C52.0938 32.8698 52.194 32.8333 52.3945 32.8516C52.5951 32.8516 52.7227 32.8516 52.7773 32.8516C53.2878 32.8516 54.026 32.806 54.9922 32.7148L55.9219 32.6328L56.7695 32.5234C57.043 32.4505 57.1979 32.4141 57.2344 32.4141H57.2891C57.3802 32.4141 57.4622 32.4414 57.5352 32.4961C57.6081 32.5508 57.6628 32.6055 57.6992 32.6602C57.7357 32.7148 57.763 32.7513 57.7812 32.7695C57.7995 32.7878 57.8542 32.8424 57.9453 32.9336C58.0365 33.0065 58.0911 33.0794 58.1094 33.1523C58.1458 33.207 58.1641 33.2708 58.1641 33.3438C58.1641 33.5078 58.1003 33.6263 57.9727 33.6992C57.8815 33.7357 57.7174 33.9271 57.4805 34.2734C57.0794 34.9115 56.5964 35.5951 56.0312 36.3242C56.3411 36.5247 56.7422 36.8164 57.2344 37.1992C57.4531 37.3451 57.8086 37.5911 58.3008 37.9375C58.5195 38.1016 58.6836 38.3203 58.793 38.5938C58.8659 38.8854 58.9023 39.1042 58.9023 39.25C58.8841 39.3958 58.8203 39.4961 58.7109 39.5508ZM60.2422 29.8164C60.3333 29.8164 60.4701 29.8802 60.6523 30.0078C60.6341 30.0443 60.6706 30.1172 60.7617 30.2266C60.8529 30.3177 60.9167 30.3815 60.9531 30.418C61.0443 30.5091 61.1354 30.6185 61.2266 30.7461C61.3359 30.8737 61.4544 31.0104 61.582 31.1562C61.9102 31.5026 62.6667 32.4049 63.8516 33.8633C64.0521 34.1549 64.1523 34.3281 64.1523 34.3828C64.1523 34.5651 64.043 34.6562 63.8242 34.6562C63.6966 34.6562 63.5599 34.5651 63.4141 34.3828C63.0677 34.0182 62.4479 33.444 61.5547 32.6602C60.862 32.0221 60.2331 31.5299 59.668 31.1836C59.3945 31.056 59.2578 30.9102 59.2578 30.7461C59.2578 30.6185 59.3945 30.4362 59.668 30.1992C59.9232 29.944 60.1146 29.8164 60.2422 29.8164ZM42.0859 28.0938C41.7396 30.3542 41.2747 32.3503 40.6914 34.082C40.1263 35.8138 39.2969 37.418 38.2031 38.8945C37.1094 40.3529 35.6875 41.638 33.9375 42.75C33.5729 42.987 33.2995 43.1055 33.1172 43.1055C32.9896 43.1055 32.9258 43.0508 32.9258 42.9414C32.9258 42.7227 33.1081 42.4583 33.4727 42.1484C34.7852 40.9453 35.8698 39.724 36.7266 38.4844C37.6016 37.2448 38.3307 35.8047 38.9141 34.1641C39.4974 32.5052 39.9622 30.5182 40.3086 28.2031L38.3125 28.3398C37.8021 28.3763 37.474 28.3945 37.3281 28.3945C36.9818 28.3945 36.7174 28.3307 36.5352 28.2031C36.3346 28.0208 36.1523 27.7747 35.9883 27.4648C35.8424 27.1367 35.7695 26.8997 35.7695 26.7539C35.7695 26.6628 35.8151 26.6172 35.9062 26.6172C35.9974 26.6172 36.0703 26.6263 36.125 26.6445C36.4896 26.7174 36.8815 26.7539 37.3008 26.7539H37.6016L40.5273 26.5898C40.7643 24.6393 40.8828 22.7799 40.8828 21.0117C40.8828 20.4831 40.8008 20.0456 40.6367 19.6992C40.5638 19.5534 40.5273 19.4349 40.5273 19.3438C40.5273 19.2161 40.6094 19.1523 40.7734 19.1523C40.9375 19.1523 41.1836 19.1979 41.5117 19.2891C41.8398 19.362 42.1315 19.4896 42.3867 19.6719C42.6602 19.8542 42.7969 20.1003 42.7969 20.4102V20.4648C42.7969 21.3034 42.7513 22.1784 42.6602 23.0898C42.5872 24.0013 42.4688 25.1315 42.3047 26.4805L46.2969 26.2344H46.4883C46.7982 26.2344 47.0716 26.3255 47.3086 26.5078C47.5456 26.6901 47.6641 26.8997 47.6641 27.1367C47.6641 27.2279 47.6367 27.3555 47.582 27.5195C47.5456 27.6654 47.5273 27.7747 47.5273 27.8477C47.3815 32.7513 46.9714 36.9258 46.2969 40.3711C46.1875 40.9544 46.069 41.4284 45.9414 41.793C45.8138 42.1758 45.6315 42.4674 45.3945 42.668C45.0299 42.9779 44.6927 43.1328 44.3828 43.1328C44.0182 43.1328 43.4167 42.8503 42.5781 42.2852C41.7578 41.7201 40.9922 41.1094 40.2812 40.4531C39.5703 39.7969 39.2148 39.3685 39.2148 39.168C39.2148 39.0221 39.3151 38.9492 39.5156 38.9492C39.6797 38.9492 39.8802 39.013 40.1172 39.1406C42.2682 40.3438 43.599 40.9453 44.1094 40.9453C44.2188 40.9453 44.2826 40.8815 44.3008 40.7539C44.7565 39.0221 45.112 37.026 45.3672 34.7656C45.6224 32.487 45.7591 30.1901 45.7773 27.875L42.0859 28.0938ZM24.7227 37.9102C24.7227 37.819 24.7773 37.7279 24.8867 37.6367C25.0143 37.5456 25.151 37.4635 25.2969 37.3906C25.625 37.2083 25.8438 37.0534 25.9531 36.9258C26.901 35.8138 28.1589 34.0547 29.7266 31.6484L30.793 29.9531C29.8086 30.1354 28.8607 30.2995 27.9492 30.4453C27.0378 30.5911 26.418 30.6641 26.0898 30.6641C25.8893 30.6641 25.6979 30.5182 25.5156 30.2266C25.3516 29.9349 25.2695 29.6615 25.2695 29.4062C25.2695 29.2057 25.4062 29.069 25.6797 28.9961C26.0625 28.8685 26.4818 28.4401 26.9375 27.7109C29.1797 24.0651 30.3008 21.513 30.3008 20.0547C30.3008 19.8542 30.3828 19.7539 30.5469 19.7539C30.6745 19.7539 30.875 19.8177 31.1484 19.9453C31.4219 20.0547 31.6589 20.2005 31.8594 20.3828C32.0781 20.5469 32.1875 20.7292 32.1875 20.9297C32.1875 21.2031 32.1328 21.4401 32.0234 21.6406C31.6042 22.6979 31.0573 23.8646 30.3828 25.1406C29.7266 26.4167 29.0065 27.6198 28.2227 28.75C28.8789 28.6953 30.0729 28.5221 31.8047 28.2305C32.7344 26.5898 33.1992 25.5326 33.1992 25.0586C33.1992 24.7852 33.2904 24.6484 33.4727 24.6484C33.6914 24.6484 33.9831 24.7943 34.3477 25.0859C34.7305 25.3594 34.9219 25.6146 34.9219 25.8516C34.9219 26.0521 34.8763 26.2708 34.7852 26.5078C34.5664 27.0182 34.0924 27.8841 33.3633 29.1055C32.6523 30.3268 31.8047 31.6576 30.8203 33.0977C29.8359 34.5378 28.8424 35.8411 27.8398 37.0078C29.8268 36.6615 31.7135 36.224 33.5 35.6953C33.3359 35.4036 33.181 35.1576 33.0352 34.957C32.9076 34.7565 32.8073 34.5924 32.7344 34.4648C32.5156 34.1367 32.388 33.9362 32.3516 33.8633C32.1875 33.6081 32.1055 33.4167 32.1055 33.2891C32.1055 33.125 32.1966 32.9701 32.3789 32.8242C32.5794 32.6784 32.7891 32.6055 33.0078 32.6055C33.2083 32.6055 33.418 32.7604 33.6367 33.0703C34.2383 33.9453 34.8398 34.9479 35.4414 36.0781C36.0612 37.1901 36.3711 37.8464 36.3711 38.0469C36.3711 38.3021 36.2435 38.5117 35.9883 38.6758C35.7331 38.8216 35.5143 38.9036 35.332 38.9219H35.2773C35.0586 38.9219 34.8763 38.7669 34.7305 38.457C34.6029 38.056 34.4115 37.5729 34.1562 37.0078L32.4336 37.4727C28.6055 38.5482 26.418 39.0859 25.8711 39.0859C25.6159 39.0677 25.3607 38.9219 25.1055 38.6484C24.8503 38.3568 24.7227 38.1107 24.7227 37.9102Z" fill="#333333"/>
<path d="M99.0156 35.2031C98.7786 35.2031 98.5326 35.1667 98.2773 35.0938C98.0221 35.0026 97.8398 34.9023 97.7305 34.793C97.6576 34.7201 97.5846 34.5924 97.5117 34.4102C97.457 34.2096 97.4297 34.0273 97.4297 33.8633L97.5391 29.1328C97.5391 28.8047 97.4935 28.5221 97.4023 28.2852C97.3841 28.2487 97.375 28.194 97.375 28.1211C97.375 27.9935 97.4388 27.9297 97.5664 27.9297C97.6758 27.9297 97.7943 27.9661 97.9219 28.0391C98.5781 28.3307 98.8607 28.6042 98.7695 28.8594C98.6602 29.1328 98.5781 29.7161 98.5234 30.6094C98.487 31.5026 98.4688 32.4779 98.4688 33.5352C98.4688 33.7539 98.5052 33.9271 98.5781 34.0547C98.6693 34.1641 98.8242 34.2096 99.043 34.1914C99.5169 34.1549 99.8086 34.1003 99.918 34.0273C100.046 33.9362 100.128 33.8815 100.164 33.8633C100.419 33.8633 100.611 33.9089 100.738 34C100.884 34.0911 100.957 34.2096 100.957 34.3555C100.957 34.6107 100.811 34.8021 100.52 34.9297C100.355 35.0026 100.118 35.0664 99.8086 35.1211C99.5169 35.1758 99.2526 35.2031 99.0156 35.2031ZM93.6562 35.3125C93.5833 35.3125 93.5286 35.3034 93.4922 35.2852C93.4557 35.2669 93.4375 35.2396 93.4375 35.2031C93.4375 35.1667 93.5742 35.0299 93.8477 34.793C94.1393 34.5378 94.4128 34.1367 94.668 33.5898C94.8503 33.207 94.9779 32.8424 95.0508 32.4961C95.1237 32.1497 95.1784 31.8125 95.2148 31.4844C95.2513 31.138 95.2786 30.901 95.2969 30.7734C95.3151 30.4818 95.3242 30.1172 95.3242 29.6797C95.3242 29.2422 95.2786 28.9505 95.1875 28.8047C95.151 28.7318 95.1328 28.6771 95.1328 28.6406C95.1328 28.5677 95.1602 28.5039 95.2148 28.4492C95.2695 28.3945 95.3333 28.3672 95.4062 28.3672C95.5521 28.3672 95.7344 28.4036 95.9531 28.4766C96.1901 28.5312 96.3542 28.6133 96.4453 28.7227C96.5 28.7956 96.5273 28.9141 96.5273 29.0781L96.4727 29.6523C96.4727 29.7435 96.4544 29.9349 96.418 30.2266C96.3997 30.3906 96.3542 30.7826 96.2812 31.4023C96.2266 32.0221 96.1354 32.5417 96.0078 32.9609C95.8802 33.362 95.707 33.6901 95.4883 33.9453C95.2148 34.2734 94.8685 34.5833 94.4492 34.875C94.0482 35.1667 93.7839 35.3125 93.6562 35.3125ZM105.742 23.5273C105.961 23.5273 106.07 23.6276 106.07 23.8281C106.07 23.9375 105.97 24.0924 105.77 24.293C105.223 24.9674 104.138 26.2526 102.516 28.1484C102.388 28.3125 102.27 28.3945 102.16 28.3945C102.069 28.3945 101.868 28.2578 101.559 27.9844C101.303 27.7656 101.176 27.5833 101.176 27.4375C101.176 27.2734 101.312 27.1185 101.586 26.9727C102.005 26.7357 102.634 26.2617 103.473 25.5508C104.311 24.8034 104.931 24.2109 105.332 23.7734C105.496 23.6094 105.633 23.5273 105.742 23.5273ZM81.3789 39.25C81.3789 39.6328 81.4427 39.9336 81.5703 40.1523C81.6979 40.3711 82.0078 40.5534 82.5 40.6992C83.0104 40.8268 83.7943 40.8906 84.8516 40.8906C86.1458 40.8906 87.3854 40.7539 88.5703 40.4805C88.8984 40.4076 89.1445 40.2891 89.3086 40.125C89.4909 39.9427 89.6549 39.5417 89.8008 38.9219C89.9648 38.3021 90.1289 37.3268 90.293 35.9961C90.3294 35.6497 90.3932 35.3854 90.4844 35.2031C90.5755 35.0026 90.6758 34.9023 90.7852 34.9023C91.0039 34.9023 91.1406 35.2031 91.1953 35.8047C91.2682 36.388 91.3047 36.9714 91.3047 37.5547C91.3047 38.8672 91.2591 39.8333 91.168 40.4531C91.0768 41.0729 90.8581 41.5286 90.5117 41.8203C90.1836 42.1302 89.6458 42.3125 88.8984 42.3672C87.1302 42.5312 85.6536 42.6133 84.4688 42.6133C83.1016 42.6133 82.0807 42.5495 81.4062 42.4219C80.7318 42.3125 80.2214 42.0299 79.875 41.5742C79.5469 41.1185 79.3828 40.3984 79.3828 39.4141V39.1953L79.5469 32.0586L77.2773 32.168C76.7122 34.957 75.6367 37.1719 74.0508 38.8125C72.4648 40.4349 70.8971 41.5651 69.3477 42.2031C67.7982 42.8594 66.7682 43.1875 66.2578 43.1875C66.0573 43.1875 65.957 43.1328 65.957 43.0234C65.957 42.8594 66.1849 42.6589 66.6406 42.4219C68.2266 41.5469 69.5299 40.7083 70.5508 39.9062C71.5898 39.1042 72.5104 38.0924 73.3125 36.8711C74.1146 35.6315 74.7435 34.0911 75.1992 32.25L71.8906 32.4141L71.918 32.8516V32.9609C71.918 33.362 71.7812 33.5625 71.5078 33.5625C71.2526 33.5625 70.9336 33.4349 70.5508 33.1797C70.1862 32.9062 70.0039 32.651 70.0039 32.4141L70.0312 32.2227C70.0495 32.1133 70.0677 31.9857 70.0859 31.8398C70.1042 31.6758 70.1133 31.4935 70.1133 31.293C70.1133 31.0924 70.1042 30.9375 70.0859 30.8281L69.5117 25.0586C69.4206 24.1836 69.3021 23.5911 69.1562 23.2812C69.0469 22.9896 68.9922 22.8255 68.9922 22.7891C68.9922 22.6615 69.0833 22.5977 69.2656 22.5977C69.5208 22.5977 70.0312 22.7161 70.7969 22.9531C71.763 22.5703 72.7201 22.1146 73.668 21.5859C74.6159 21.0391 75.4453 20.474 76.1562 19.8906C76.2292 19.8359 76.3021 19.7539 76.375 19.6445C76.4479 19.5169 76.5026 19.3893 76.5391 19.2617C76.6302 18.9154 76.7396 18.7422 76.8672 18.7422C76.9583 18.7422 77.1133 18.8607 77.332 19.0977C77.5508 19.3164 77.7422 19.5716 77.9062 19.8633C78.0885 20.1549 78.1797 20.4193 78.1797 20.6562C78.1797 20.8385 78.0703 21.0026 77.8516 21.1484C76.8307 21.7682 75.7279 22.3516 74.543 22.8984C73.3763 23.4453 72.2552 23.8919 71.1797 24.2383L71.3711 26.4258L74.9805 26.1797C75.3268 26.1615 75.6367 26.0885 75.9102 25.9609C76.0742 25.888 76.2292 25.8516 76.375 25.8516C76.5755 25.8516 76.776 25.9336 76.9766 26.0977C77.1771 26.2435 77.3411 26.4258 77.4688 26.6445C77.5964 26.8451 77.6602 27 77.6602 27.1094C77.6602 27.3646 77.4049 27.5104 76.8945 27.5469L71.4805 27.9023L71.7539 30.9375L85.125 30.2539L85.3984 27.3281L81.4883 27.5469C81.2878 27.5651 81.0143 27.5742 80.668 27.5742C80.2305 27.5742 79.9115 27.5013 79.7109 27.3555C79.4193 27.1003 79.2188 26.8542 79.1094 26.6172C79 26.3802 78.9453 26.1979 78.9453 26.0703C78.9453 25.9792 79 25.9336 79.1094 25.9336C79.1823 25.9336 79.2461 25.9427 79.3008 25.9609C79.5378 26.0339 79.8659 26.0703 80.2852 26.0703H80.668L85.5352 25.7969L85.7812 22.9531L80.5859 23.2539C80.4401 23.2721 80.2578 23.2812 80.0391 23.2812C79.6562 23.2812 79.3555 23.181 79.1367 22.9805C78.9362 22.7617 78.7357 22.388 78.5352 21.8594C78.5169 21.8229 78.5078 21.7773 78.5078 21.7227C78.5078 21.6497 78.5625 21.6133 78.6719 21.6133C78.7812 21.6133 78.8724 21.6224 78.9453 21.6406C79.1823 21.7135 79.474 21.75 79.8203 21.75L80.2578 21.7227L86.1367 21.3398L86.5195 21.3125C86.7565 21.3125 87.0208 21.4219 87.3125 21.6406C87.6224 21.8411 87.7773 22.0417 87.7773 22.2422C87.7773 22.3151 87.75 22.4062 87.6953 22.5156C87.6589 22.625 87.6315 22.7344 87.6133 22.8438L86.8203 30.2539C87.2943 30.7461 87.5312 31.1107 87.5312 31.3477C87.5312 31.5482 87.3125 31.6667 86.875 31.7031L81.5156 31.9766L81.3789 39.1133V39.25Z" fill="#333333"/>
<path d="M136.887 28.9961C136.285 28.7773 136.003 28.5404 136.039 28.2852C136.148 27.5195 136.203 26.6445 136.203 25.6602C136.203 25.2227 136.194 24.9036 136.176 24.7031C136.158 24.4661 136.139 24.2656 136.121 24.1016C136.103 23.9193 136.103 23.819 136.121 23.8008C136.194 23.7279 136.285 23.6914 136.395 23.6914C136.559 23.6914 136.759 23.7643 136.996 23.9102C137.251 24.056 137.379 24.2018 137.379 24.3477C137.379 24.4388 137.37 24.5299 137.352 24.6211C137.333 24.694 137.324 24.776 137.324 24.8672L137.16 27.5742C137.16 27.7201 137.215 27.8112 137.324 27.8477H137.461C137.607 27.8477 137.707 27.8385 137.762 27.8203L141.289 27.3281V26.6172C141.289 25.724 141.271 25.0312 141.234 24.5391C141.216 24.1198 141.171 23.7826 141.098 23.5273C141.043 23.2357 141.116 23.0898 141.316 23.0898C141.462 23.0898 141.654 23.1445 141.891 23.2539C142.182 23.3997 142.355 23.5273 142.41 23.6367C142.465 23.7279 142.483 23.8737 142.465 24.0742C142.428 24.4023 142.41 24.8945 142.41 25.5508L142.438 27.6289C142.438 28.0664 142.355 28.4128 142.191 28.668C142.1 28.7773 142.009 28.832 141.918 28.832C141.827 28.832 141.699 28.75 141.535 28.5859C141.499 28.5495 141.453 28.4948 141.398 28.4219C141.344 28.349 141.289 28.3034 141.234 28.2852C141.18 28.2669 141.107 28.2578 141.016 28.2578C140.596 28.2943 139.585 28.431 137.98 28.668C137.707 28.7044 137.488 28.7773 137.324 28.8867C137.142 28.9779 137.023 29.0234 136.969 29.0234L136.887 28.9961ZM140.359 34.875C140.177 35.112 139.986 35.2305 139.785 35.2305C139.73 35.2305 139.703 35.1849 139.703 35.0938C139.703 34.9661 139.74 34.8203 139.812 34.6562C139.812 34.6562 139.995 34.2917 140.359 33.5625C140.378 33.4896 140.405 33.4167 140.441 33.3438C140.478 33.2708 140.505 33.207 140.523 33.1523V33.125C140.523 33.0885 140.496 33.0521 140.441 33.0156C140.387 32.9792 140.323 32.9701 140.25 32.9883C139.958 33.0065 139.521 33.0521 138.938 33.125C138.372 33.1979 137.953 33.2708 137.68 33.3438C137.57 33.3802 137.434 33.4258 137.27 33.4805C137.124 33.5352 137.005 33.5625 136.914 33.5625C136.586 33.5625 136.312 33.4622 136.094 33.2617C135.911 33.1341 135.775 33.0065 135.684 32.8789L135.629 32.7422C135.629 32.651 135.784 32.6237 136.094 32.6602C136.513 32.6966 137.379 32.6419 138.691 32.4961L139.238 32.4141C139.384 32.3958 139.612 32.3685 139.922 32.332C140.25 32.2773 140.505 32.2227 140.688 32.168C140.742 32.1497 140.797 32.1315 140.852 32.1133C140.924 32.0768 140.988 32.0586 141.043 32.0586C141.134 32.0586 141.243 32.1042 141.371 32.1953C141.517 32.2865 141.635 32.3685 141.727 32.4414C141.854 32.5326 141.936 32.6146 141.973 32.6875C142.027 32.7422 142.046 32.8151 142.027 32.9062C142.027 32.9974 141.982 33.0794 141.891 33.1523C141.799 33.2253 141.736 33.2799 141.699 33.3164C141.663 33.3711 141.535 33.5078 141.316 33.7266C141.225 33.8724 141.061 34.0729 140.824 34.3281C140.605 34.5833 140.451 34.7656 140.359 34.875ZM138.992 40.2617C138.992 40.207 139.083 40.0703 139.266 39.8516C139.466 39.6146 139.621 39.4323 139.73 39.3047C140.004 38.9401 140.332 38.4115 140.715 37.7188C141.116 37.026 141.344 36.5703 141.398 36.3516C141.435 36.2422 141.38 36.1875 141.234 36.1875C140.943 36.1875 140.141 36.2695 138.828 36.4336C137.971 36.543 137.333 36.6523 136.914 36.7617C136.823 36.8164 136.732 36.8438 136.641 36.8438C136.495 36.8438 136.34 36.7435 136.176 36.543C136.103 36.4154 136.066 36.2969 136.066 36.1875C136.066 36.1146 136.112 36.0417 136.203 35.9688L136.285 35.8594C136.34 35.75 136.404 35.6042 136.477 35.4219C136.549 35.2396 136.613 35.0664 136.668 34.9023C136.759 34.6107 136.823 34.2917 136.859 33.9453C136.878 33.7448 136.987 33.6901 137.188 33.7812C137.443 33.9089 137.634 34.0365 137.762 34.1641C137.908 34.2734 137.953 34.3555 137.898 34.4102C137.716 34.6289 137.57 34.875 137.461 35.1484C137.37 35.4401 137.315 35.6315 137.297 35.7227C137.297 35.7956 137.342 35.832 137.434 35.832C137.707 35.832 138.117 35.7865 138.664 35.6953C138.974 35.6589 139.357 35.6133 139.812 35.5586C140.268 35.5039 140.633 35.4492 140.906 35.3945L141.59 35.2578C141.645 35.2396 141.717 35.2305 141.809 35.2305C141.9 35.2305 141.991 35.2669 142.082 35.3398C142.173 35.3945 142.273 35.4674 142.383 35.5586C142.565 35.7227 142.684 35.8594 142.738 35.9688C142.793 36.0599 142.82 36.1693 142.82 36.2969C142.82 36.3698 142.766 36.4609 142.656 36.5703C142.565 36.6797 142.456 36.8529 142.328 37.0898C141.799 38.1654 141.116 39.0677 140.277 39.7969C140.04 39.9792 139.776 40.1341 139.484 40.2617C139.357 40.2982 139.238 40.3255 139.129 40.3438C139.038 40.3438 138.992 40.3164 138.992 40.2617ZM147.742 27.6289C147.961 27.6289 148.07 27.7292 148.07 27.9297C148.07 28.0391 147.97 28.194 147.77 28.3945C147.223 29.069 146.138 30.3542 144.516 32.25C144.388 32.4141 144.27 32.4961 144.16 32.4961C144.069 32.4961 143.868 32.3594 143.559 32.0859C143.303 31.8672 143.176 31.6849 143.176 31.5391C143.176 31.375 143.312 31.2201 143.586 31.0742C144.005 30.8372 144.634 30.3633 145.473 29.6523C146.311 28.9049 146.931 28.3125 147.332 27.875C147.496 27.7109 147.633 27.6289 147.742 27.6289ZM112.332 43.1328C112.332 43.6068 112.177 43.8438 111.867 43.8438C111.594 43.8438 111.284 43.7253 110.938 43.4883C110.591 43.2513 110.418 42.9505 110.418 42.5859C110.418 42.4401 110.427 42.3307 110.445 42.2578C110.555 41.7474 110.609 41.1549 110.609 40.4805L110.582 22.5977C110.582 22.0508 110.464 21.5495 110.227 21.0938C110.117 20.8385 110.062 20.6836 110.062 20.6289C110.062 20.5013 110.154 20.4375 110.336 20.4375C110.628 20.4375 111.293 20.6198 112.332 20.9844L129.34 20.0547H129.586C129.987 20.0547 130.324 20.1732 130.598 20.4102C130.871 20.6471 131.008 20.8659 131.008 21.0664C131.008 21.1393 130.98 21.2396 130.926 21.3672C130.871 21.4766 130.844 21.5586 130.844 21.6133L130.762 40.125C131.345 40.7812 131.637 41.2188 131.637 41.4375C131.637 41.5651 131.564 41.6471 131.418 41.6836C131.272 41.7201 131.035 41.7383 130.707 41.7383L112.332 42.0664V43.1328ZM112.332 40.5898L129.012 40.207L129.066 21.6406L112.277 22.4883L112.332 40.5898ZM113.289 27.4922C113.289 27.4193 113.326 27.3828 113.398 27.3828C113.49 27.3828 113.562 27.3919 113.617 27.4102C113.836 27.4831 114.118 27.5195 114.465 27.5195H114.738L119.688 27.2461V25.7969L117.664 25.9336C117.482 25.9518 117.245 25.9609 116.953 25.9609C116.716 25.9609 116.507 25.8971 116.324 25.7695C116.142 25.6419 115.96 25.3503 115.777 24.8945C115.723 24.7852 115.695 24.7031 115.695 24.6484C115.695 24.5573 115.75 24.5117 115.859 24.5117C115.932 24.5117 115.996 24.5208 116.051 24.5391C116.27 24.612 116.552 24.6484 116.898 24.6484H117.172L119.688 24.5117V23.7734C119.688 23.4453 119.578 23.1081 119.359 22.7617C119.305 22.6523 119.277 22.5612 119.277 22.4883C119.277 22.3424 119.378 22.2695 119.578 22.2695C119.779 22.2695 120.079 22.3424 120.48 22.4883C120.809 22.6159 121.018 22.7253 121.109 22.8164C121.201 22.8893 121.246 23.0169 121.246 23.1992V24.4297L122.969 24.3203C123.023 24.3203 123.151 24.3112 123.352 24.293C123.552 24.2747 123.743 24.2292 123.926 24.1562C124.035 24.1198 124.126 24.1016 124.199 24.1016C124.473 24.1016 124.737 24.2292 124.992 24.4844C125.266 24.7396 125.402 24.9583 125.402 25.1406C125.402 25.3411 125.211 25.4596 124.828 25.4961L121.219 25.7148V27.1641L125.703 26.918C126.086 26.8997 126.405 26.8359 126.66 26.7266C126.77 26.6901 126.852 26.6719 126.906 26.6719C127.107 26.6719 127.362 26.7995 127.672 27.0547C127.982 27.3099 128.137 27.556 128.137 27.793C128.137 28.0117 127.945 28.1393 127.562 28.1758L115.23 28.8594C115.048 28.8776 114.811 28.8867 114.52 28.8867H114.273C114.018 28.832 113.79 28.6497 113.59 28.3398C113.389 28.0299 113.289 27.7474 113.289 27.4922ZM113.672 38.3203C113.672 38.138 113.836 37.9557 114.164 37.7734C115.148 37.1901 116.096 36.5339 117.008 35.8047C117.919 35.0755 118.603 34.4284 119.059 33.8633L117.609 33.918V34.1094C117.609 34.4557 117.473 34.6289 117.199 34.6289C116.999 34.6289 116.762 34.556 116.488 34.4102C116.233 34.2461 116.105 34.0547 116.105 33.8359V33.6445C116.105 33.5534 116.115 33.4622 116.133 33.3711C116.151 33.2799 116.16 33.1979 116.16 33.125C116.16 33.0156 116.142 32.8151 116.105 32.5234L115.969 31.1836C115.896 30.6185 115.796 30.1992 115.668 29.9258C115.577 29.7435 115.531 29.6159 115.531 29.543C115.531 29.4336 115.604 29.3789 115.75 29.3789C115.987 29.3789 116.47 29.5339 117.199 29.8438L124.227 29.4883L124.609 29.4609C124.883 29.4609 125.111 29.5703 125.293 29.7891C125.493 29.9896 125.594 30.1536 125.594 30.2812C125.594 30.3542 125.566 30.4362 125.512 30.5273C125.475 30.6185 125.448 30.6914 125.43 30.7461L125.102 32.4141C125.43 32.8151 125.594 33.1068 125.594 33.2891C125.594 33.3984 125.539 33.4714 125.43 33.5078C125.32 33.5443 125.156 33.5716 124.938 33.5898L121.055 33.7539C121.073 33.7904 121.082 33.8359 121.082 33.8906C121.082 34.0729 120.581 34.5651 119.578 35.3672L119.523 38.1289C120.234 37.8919 121.219 37.4635 122.477 36.8438C122.622 36.7526 122.759 36.707 122.887 36.707C123.033 36.707 123.105 36.7617 123.105 36.8711C123.105 37.1445 122.531 37.6732 121.383 38.457C120.964 38.7305 120.435 39.0951 119.797 39.5508C119.724 39.6055 119.587 39.7057 119.387 39.8516C119.204 39.9792 119.059 40.0703 118.949 40.125C118.84 40.1797 118.749 40.207 118.676 40.207C118.493 40.207 118.284 40.1068 118.047 39.9062C117.828 39.6875 117.755 39.5052 117.828 39.3594C117.901 39.2318 117.965 38.9401 118.02 38.4844C118.092 38.0104 118.138 37.6549 118.156 37.418L118.184 36.3789C117.236 36.9987 116.342 37.5091 115.504 37.9102C114.665 38.293 114.137 38.4844 113.918 38.4844C113.754 38.4844 113.672 38.4297 113.672 38.3203ZM117.5 32.6328L123.734 32.3594L123.926 30.7734L117.363 31.1016L117.5 32.6328ZM122.039 35.5039C122.039 35.431 122.094 35.3034 122.203 35.1211C122.331 34.9206 122.486 34.8203 122.668 34.8203C122.832 34.8203 123.406 35.1484 124.391 35.8047C125.083 35.1667 125.539 34.7018 125.758 34.4102C125.977 34.1185 126.113 33.8268 126.168 33.5352C126.186 33.2982 126.259 33.1797 126.387 33.1797C126.441 33.1797 126.56 33.2435 126.742 33.3711C126.943 33.4987 127.116 33.6536 127.262 33.8359C127.426 34.0182 127.508 34.1914 127.508 34.3555C127.508 34.5195 127.262 34.8112 126.77 35.2305C126.277 35.6497 125.776 36.0417 125.266 36.4062C126.396 37.2083 127.098 37.737 127.371 37.9922C127.663 38.2292 127.809 38.4115 127.809 38.5391C127.809 38.6667 127.717 38.8672 127.535 39.1406C127.353 39.4141 127.171 39.5508 126.988 39.5508C126.915 39.5508 126.806 39.4961 126.66 39.3867C125.22 38.0378 123.807 36.9076 122.422 35.9961C122.167 35.8503 122.039 35.6862 122.039 35.5039Z" fill="#333333"/>
<path d="M181.676 30.7461C181.384 30.7461 181.211 30.6003 181.156 30.3086C181.047 29.9987 180.755 29.6159 180.281 29.1602L180.363 29.0508C180.436 29.0872 180.646 29.1784 180.992 29.3242C181.339 29.4518 181.576 29.5156 181.703 29.5156C181.812 29.5156 181.895 29.5156 181.949 29.5156C182.004 29.4974 182.068 29.4518 182.141 29.3789C182.359 29.2148 182.633 28.8411 182.961 28.2578C183.198 27.7839 183.408 27.2279 183.59 26.5898C183.79 25.9518 183.891 25.4688 183.891 25.1406C183.891 25.0495 183.818 25.0039 183.672 25.0039L182.633 25.0586L181.922 25.1133L181.457 25.1406L181.266 25.168C181.393 25.2591 181.475 25.3411 181.512 25.4141C181.566 25.4688 181.594 25.5417 181.594 25.6328C181.594 25.724 181.484 25.9792 181.266 26.3984C181.083 26.7995 180.792 27.2552 180.391 27.7656C180.062 28.2031 179.616 28.6771 179.051 29.1875C178.504 29.6797 178.094 29.9349 177.82 29.9531C177.766 29.9531 177.711 29.944 177.656 29.9258C177.62 29.8893 177.602 29.8438 177.602 29.7891C177.602 29.7708 177.747 29.5977 178.039 29.2695L178.805 28.3672C179.352 27.638 179.908 26.7083 180.473 25.5781C180.527 25.4323 180.5 25.3503 180.391 25.332C180.281 25.3503 180.053 25.3776 179.707 25.4141C179.361 25.4323 179.051 25.487 178.777 25.5781C178.759 25.5781 178.695 25.6055 178.586 25.6602C178.477 25.6966 178.385 25.7148 178.312 25.7148C178.203 25.7148 178.112 25.6784 178.039 25.6055L177.82 25.4141C177.656 25.2865 177.574 25.168 177.574 25.0586C177.574 25.0221 177.592 24.9674 177.629 24.8945L177.766 24.6758C177.839 24.5846 177.957 24.4388 178.121 24.2383C178.285 24.0378 178.467 23.7643 178.668 23.418C178.704 23.3451 178.777 23.181 178.887 22.9258C179.014 22.6706 179.078 22.5156 179.078 22.4609V22.3516C179.078 22.2422 179.096 22.1693 179.133 22.1328C179.169 22.0964 179.251 22.0964 179.379 22.1328C179.507 22.1693 179.661 22.2695 179.844 22.4336L180.145 22.7344C180.199 22.7891 180.227 22.8529 180.227 22.9258C180.227 23.1081 179.971 23.4362 179.461 23.9102C179.37 24.0013 179.26 24.138 179.133 24.3203C179.005 24.5026 178.941 24.6211 178.941 24.6758C178.941 24.7852 179.023 24.8216 179.188 24.7852L179.816 24.7031C181.257 24.4844 182.341 24.3568 183.07 24.3203L183.809 24.2109L184.055 24.1562L184.191 24.1289C184.337 24.1289 184.438 24.1471 184.492 24.1836C184.547 24.2201 184.602 24.2839 184.656 24.375C184.711 24.4479 184.766 24.5117 184.82 24.5664C184.948 24.7122 185.039 24.8398 185.094 24.9492L185.148 25.1953L185.094 25.3047L185.039 25.4688C185.003 25.5599 184.975 25.651 184.957 25.7422C184.939 25.8151 184.911 25.8971 184.875 25.9883C184.492 27.4648 184.046 28.6133 183.535 29.4336C183.371 29.7253 183.089 30.0169 182.688 30.3086C182.305 30.6003 181.967 30.7461 181.676 30.7461ZM184.164 39.4414C183.891 39.4414 183.626 39.2409 183.371 38.8398C183.043 38.3294 182.724 37.9102 182.414 37.582L181.703 36.8438C181.32 37.2812 180.983 37.6276 180.691 37.8828C180.418 38.138 180.072 38.3841 179.652 38.6211C178.868 39.0768 178.212 39.3047 177.684 39.3047C177.556 39.3047 177.492 39.2591 177.492 39.168C177.492 39.1133 177.665 38.9948 178.012 38.8125C178.358 38.6302 178.686 38.4115 178.996 38.1562C179.78 37.5 180.427 36.8255 180.938 36.1328C180.828 36.0234 180.281 35.5495 179.297 34.7109C179.169 34.6198 178.978 34.4648 178.723 34.2461C178.668 34.2096 178.559 34.1276 178.395 34C178.23 33.8724 178.148 33.7812 178.148 33.7266C178.148 33.6354 178.194 33.5898 178.285 33.5898C178.559 33.5898 178.996 33.7812 179.598 34.1641C180.199 34.5286 180.828 34.9661 181.484 35.4766C181.74 35.1667 181.94 34.875 182.086 34.6016C182.232 34.3281 182.396 33.9909 182.578 33.5898C182.669 33.3893 182.724 33.2161 182.742 33.0703C182.76 32.9062 182.77 32.806 182.77 32.7695C182.77 32.569 182.824 32.4688 182.934 32.4688C183.061 32.4688 183.234 32.569 183.453 32.7695C183.836 33.1341 184.027 33.3802 184.027 33.5078C184.027 33.5807 183.982 33.6628 183.891 33.7539C183.672 33.9727 183.471 34.2643 183.289 34.6289C183.18 34.8477 182.979 35.1576 182.688 35.5586C182.596 35.668 182.523 35.7682 182.469 35.8594C182.414 35.9505 182.359 36.0326 182.305 36.1055C182.724 36.4154 183.344 36.944 184.164 37.6914C184.365 37.8737 184.492 38.0469 184.547 38.2109C184.62 38.3568 184.656 38.5573 184.656 38.8125C184.656 38.9948 184.611 39.1497 184.52 39.2773C184.428 39.3867 184.31 39.4414 184.164 39.4414ZM189.742 27.6289C189.961 27.6289 190.07 27.7292 190.07 27.9297C190.07 28.0391 189.97 28.194 189.77 28.3945C189.223 29.069 188.138 30.3542 186.516 32.25C186.388 32.4141 186.27 32.4961 186.16 32.4961C186.069 32.4961 185.868 32.3594 185.559 32.0859C185.303 31.8672 185.176 31.6849 185.176 31.5391C185.176 31.375 185.312 31.2201 185.586 31.0742C186.005 30.8372 186.634 30.3633 187.473 29.6523C188.311 28.9049 188.931 28.3125 189.332 27.875C189.496 27.7109 189.633 27.6289 189.742 27.6289ZM163.793 39.5781C163.793 39.7969 163.674 39.9062 163.438 39.9062C163.219 39.9062 162.954 39.8242 162.645 39.6602C162.335 39.4779 162.18 39.2956 162.18 39.1133L162.207 38.8398C162.243 38.5117 162.262 38.2292 162.262 37.9922V37.6914L162.043 32.6875C162.007 32.1771 161.915 31.7669 161.77 31.457C161.66 31.2018 161.605 31.056 161.605 31.0195C161.605 30.8919 161.706 30.8281 161.906 30.8281C162.143 30.8281 162.681 30.9375 163.52 31.1562L171.203 30.7734C171.768 30.7734 172.142 30.8828 172.324 31.1016C172.525 31.3021 172.625 31.4753 172.625 31.6211C172.625 31.694 172.607 31.776 172.57 31.8672C172.552 31.9401 172.534 32.0039 172.516 32.0586L172.16 37.6914C172.507 38.1289 172.68 38.457 172.68 38.6758C172.68 38.7669 172.634 38.8307 172.543 38.8672C172.452 38.9036 172.315 38.931 172.133 38.9492L163.793 39.2227V39.5781ZM149.848 24.5391C149.848 24.4297 149.902 24.375 150.012 24.375C150.085 24.375 150.148 24.3841 150.203 24.4023C150.477 24.4753 150.768 24.5117 151.078 24.5117L151.543 24.4844L157.559 24.1016C158.087 24.0104 158.461 23.9193 158.68 23.8281C158.789 23.7917 158.871 23.7734 158.926 23.7734C159.145 23.7734 159.436 23.9193 159.801 24.2109C160.165 24.5026 160.348 24.7669 160.348 25.0039C160.348 25.2409 160.165 25.3776 159.801 25.4141L152.09 25.9609C151.871 25.9792 151.607 25.9883 151.297 25.9883C150.987 25.9883 150.786 25.9427 150.695 25.8516C150.13 25.3594 149.848 24.9219 149.848 24.5391ZM151.598 34.3281C151.598 34.2188 151.671 34.1641 151.816 34.1641C152.108 34.1641 152.764 34.3555 153.785 34.7383L157.996 34.4922H158.215C158.507 34.4922 158.771 34.6107 159.008 34.8477C159.263 35.0846 159.391 35.2852 159.391 35.4492C159.391 35.5221 159.363 35.6133 159.309 35.7227C159.272 35.8138 159.245 35.8958 159.227 35.9688L158.789 39.6875C159.208 40.2708 159.418 40.6536 159.418 40.8359C159.418 40.9453 159.372 41.0091 159.281 41.0273C159.19 41.0638 159.081 41.082 158.953 41.082C158.826 41.1003 158.734 41.1094 158.68 41.1094L154.168 41.3008L154.195 41.8203V41.9023C154.195 42.3034 154.031 42.5039 153.703 42.5039C153.466 42.5039 153.193 42.4128 152.883 42.2305C152.591 42.0664 152.445 41.8203 152.445 41.4922V41.3281C152.482 40.8542 152.5 40.5078 152.5 40.2891V39.9609L152.227 36.3516C152.172 35.7318 152.035 35.2305 151.816 34.8477C151.671 34.6107 151.598 34.4375 151.598 34.3281ZM151.789 31.1836C151.789 31.0924 151.835 31.0469 151.926 31.0469C151.98 31.0469 152.026 31.056 152.062 31.0742C152.372 31.1471 152.71 31.1836 153.074 31.1836H153.375L156.902 30.9922C157.267 30.9557 157.586 30.8828 157.859 30.7734C157.969 30.737 158.051 30.7188 158.105 30.7188C158.324 30.7188 158.579 30.8737 158.871 31.1836C159.181 31.4753 159.336 31.7122 159.336 31.8945C159.336 32.1497 159.154 32.2956 158.789 32.332L153.922 32.6328H153.129C152.874 32.5964 152.691 32.5508 152.582 32.4961C152.236 32.2044 151.98 31.8216 151.816 31.3477C151.798 31.3112 151.789 31.2565 151.789 31.1836ZM151.789 27.9023C151.789 27.793 151.835 27.7383 151.926 27.7383L152.035 27.7656C152.345 27.8385 152.682 27.875 153.047 27.875H153.348L156.957 27.6289C157.285 27.5924 157.613 27.5286 157.941 27.4375C158.051 27.401 158.124 27.3828 158.16 27.3828C158.361 27.3828 158.616 27.5195 158.926 27.793C159.254 28.0664 159.418 28.3216 159.418 28.5586C159.418 28.6862 159.363 28.7865 159.254 28.8594C159.145 28.9323 159.008 28.9779 158.844 28.9961L153.895 29.3242C153.749 29.3424 153.548 29.3516 153.293 29.3516C153.129 29.3516 153.01 29.3424 152.938 29.3242C152.773 29.3242 152.646 29.2786 152.555 29.1875C152.391 29.0599 152.217 28.8594 152.035 28.5859C151.871 28.2943 151.789 28.0664 151.789 27.9023ZM152.637 20.6562C152.637 20.4375 152.701 20.2279 152.828 20.0273C152.974 19.8086 153.147 19.6992 153.348 19.6992C153.493 19.6992 153.949 19.8542 154.715 20.1641C155.499 20.474 156.428 20.9206 157.504 21.5039C157.704 21.6133 157.85 21.7227 157.941 21.832C158.033 21.9232 158.078 22.0326 158.078 22.1602C158.078 22.3789 157.987 22.6341 157.805 22.9258C157.641 23.1992 157.449 23.3359 157.23 23.3359C157.085 23.3359 156.884 23.2539 156.629 23.0898C155.553 22.3789 154.396 21.75 153.156 21.2031C152.81 21.0755 152.637 20.8932 152.637 20.6562ZM154.059 39.9062L157.258 39.7695L157.559 35.9961L153.785 36.1875L154.059 39.9062ZM158.57 43.3242C158.57 43.1237 158.771 42.9596 159.172 42.832C161.305 42.0846 163.046 41.2552 164.395 40.3438C164.467 40.3073 164.513 40.2708 164.531 40.2344C164.75 40.0885 164.923 39.9062 165.051 39.6875C165.178 39.5052 165.288 39.4141 165.379 39.4141C165.525 39.4141 165.671 39.5143 165.816 39.7148C165.98 39.9154 166.117 40.1432 166.227 40.3984C166.354 40.6354 166.418 40.7904 166.418 40.8633C166.418 41.0273 166.327 41.1549 166.145 41.2461C164.996 41.8294 163.911 42.2852 162.891 42.6133C161.87 42.9596 161.022 43.1966 160.348 43.3242C159.673 43.4518 159.227 43.5156 159.008 43.5156C158.716 43.5156 158.57 43.4518 158.57 43.3242ZM159.746 25.8789C159.746 25.7695 159.828 25.7148 159.992 25.7148C160.266 25.7148 160.822 25.8333 161.66 26.0703L173.309 25.4141H173.473C173.673 25.4141 173.892 25.5052 174.129 25.6875C174.384 25.8516 174.512 26.0247 174.512 26.207C174.512 26.2982 174.484 26.3984 174.43 26.5078C174.375 26.599 174.339 26.6719 174.32 26.7266L173.91 28.4492C174.257 28.8138 174.43 29.0781 174.43 29.2422C174.43 29.3516 174.366 29.4245 174.238 29.4609C174.129 29.4974 173.947 29.5247 173.691 29.543L161.961 30.0898V30.1445C161.961 30.3997 161.824 30.5273 161.551 30.5273C161.423 30.5273 161.259 30.5 161.059 30.4453C160.785 30.3724 160.594 30.2812 160.484 30.1719C160.375 30.0625 160.32 29.9258 160.32 29.7617V29.625C160.357 29.2604 160.375 29.0417 160.375 28.9688C160.375 28.8229 160.366 28.7135 160.348 28.6406L160.156 27.3281C160.102 26.8724 160.01 26.526 159.883 26.2891C159.792 26.0703 159.746 25.9336 159.746 25.8789ZM159.773 21.3398C159.773 21.2305 159.828 21.1758 159.938 21.1758C160.01 21.1758 160.074 21.1849 160.129 21.2031C160.421 21.276 160.785 21.3125 161.223 21.3125H161.469L166.117 21.0117V20.2734C166.117 19.8177 166.026 19.444 165.844 19.1523C165.771 19.0247 165.734 18.9245 165.734 18.8516C165.734 18.724 165.835 18.6602 166.035 18.6602C166.309 18.6602 166.655 18.724 167.074 18.8516C167.493 18.9792 167.703 19.1432 167.703 19.3438V20.9297L171.422 20.6836C171.841 20.6654 172.26 20.5924 172.68 20.4648C172.716 20.4466 172.789 20.4375 172.898 20.4375C173.154 20.4375 173.445 20.5651 173.773 20.8203C174.12 21.0573 174.293 21.276 174.293 21.4766C174.293 21.6771 174.156 21.7956 173.883 21.832L167.676 22.2148V23.4453L169.316 23.3633C169.736 23.3268 170.146 23.263 170.547 23.1719C170.602 23.1536 170.684 23.1445 170.793 23.1445C171.103 23.1445 171.431 23.2995 171.777 23.6094C171.996 23.7917 172.105 23.9648 172.105 24.1289C172.105 24.3294 171.96 24.4479 171.668 24.4844L164.34 24.8945C163.866 24.931 163.565 24.9492 163.438 24.9492C163.091 24.9492 162.836 24.8763 162.672 24.7305C162.398 24.5117 162.18 24.2383 162.016 23.9102C161.979 23.8555 161.961 23.7826 161.961 23.6914C161.961 23.6003 162.025 23.5547 162.152 23.5547C162.225 23.5547 162.289 23.5638 162.344 23.582C162.617 23.6549 162.964 23.6914 163.383 23.6914H163.656L166.145 23.5547L166.117 22.2969L162.207 22.543C161.733 22.5794 161.423 22.5977 161.277 22.5977C160.621 22.5977 160.138 22.2513 159.828 21.5586L159.773 21.3398ZM161.852 28.9141L164.449 28.7773L164.312 27.1094L161.688 27.2461L161.852 28.9141ZM163.574 33.5078L170.93 33.1797L170.984 32.0039L163.52 32.332L163.574 33.5078ZM163.656 35.7227L170.848 35.4219L170.902 34.2734L163.602 34.6016L163.656 35.7227ZM163.738 38.0469L170.766 37.8281L170.82 36.5156L163.684 36.7891L163.738 38.0469ZM165.898 28.7227L168.195 28.6133L168.332 26.8906L165.762 27.0273L165.898 28.7227ZM168.797 40.2344C168.797 40.0885 168.852 39.9245 168.961 39.7422C169.143 39.4323 169.344 39.2773 169.562 39.2773C169.781 39.2773 170.173 39.4141 170.738 39.6875C171.322 39.9427 172.516 40.5352 174.32 41.4648C174.685 41.6289 174.867 41.8477 174.867 42.1211C174.867 42.2669 174.794 42.4948 174.648 42.8047C174.503 43.1146 174.32 43.2695 174.102 43.2695C173.938 43.2695 173.728 43.1784 173.473 42.9961C172.142 42.0846 170.766 41.3464 169.344 40.7812C169.161 40.7083 169.025 40.6354 168.934 40.5625C168.842 40.4714 168.797 40.362 168.797 40.2344ZM172.434 28.4219L172.707 26.6719L169.836 26.8359L169.672 28.5586L172.434 28.4219Z" fill="#333333"/>
<path d="M223.266 30.4727C223.12 30.4727 222.974 30.4453 222.828 30.3906C222.682 30.3177 222.573 30.2083 222.5 30.0625C222.445 29.8984 222.327 29.707 222.145 29.4883C221.98 29.2695 221.816 29.1055 221.652 28.9961L221.762 28.8594C221.853 28.9141 222.072 29.0234 222.418 29.1875C222.764 29.3516 223.02 29.4336 223.184 29.4336C223.439 29.4336 223.667 29.3424 223.867 29.1602C224.068 28.9779 224.323 28.6315 224.633 28.1211C224.852 27.7747 225.052 27.3646 225.234 26.8906C225.417 26.4167 225.553 25.9792 225.645 25.5781L225.672 25.5234C225.672 25.4688 225.654 25.4232 225.617 25.3867C225.581 25.332 225.544 25.3047 225.508 25.3047L224.25 25.4141C223.411 25.5599 222.536 25.6784 221.625 25.7695C221.461 25.7878 221.27 25.8333 221.051 25.9062C220.832 25.9792 220.677 26.0156 220.586 26.0156C220.44 26.0156 220.249 25.8971 220.012 25.6602C219.921 25.5872 219.829 25.4961 219.738 25.3867C219.665 25.2773 219.647 25.1862 219.684 25.1133C219.829 24.9674 219.902 24.8945 219.902 24.8945L220.039 24.7852C220.294 24.5299 220.549 24.1927 220.805 23.7734C220.987 23.5182 221.178 23.0898 221.379 22.4883C221.379 22.2878 221.424 22.1875 221.516 22.1875C221.57 22.1875 221.661 22.224 221.789 22.2969L222.227 22.5703C222.336 22.6615 222.409 22.7344 222.445 22.7891C222.482 22.8438 222.5 22.9167 222.5 23.0078C222.5 23.1172 222.427 23.2539 222.281 23.418C222.135 23.5638 222.008 23.7096 221.898 23.8555L221.27 24.7578L221.215 24.8672C221.215 24.9219 221.288 24.9492 221.434 24.9492L223.539 24.6758L224.961 24.5664L225.508 24.5117L225.809 24.457H225.891C226.073 24.457 226.273 24.612 226.492 24.9219C226.747 25.1589 226.875 25.3594 226.875 25.5234L226.738 25.8789C226.72 25.9154 226.574 26.3438 226.301 27.1641C225.973 27.9479 225.69 28.5404 225.453 28.9414C225.216 29.3424 224.961 29.6523 224.688 29.8711C224.195 30.2721 223.721 30.4727 223.266 30.4727ZM226.656 35.1211C226.857 35.3398 226.957 35.5221 226.957 35.668C226.957 35.7956 226.884 35.9141 226.738 36.0234C226.647 36.0964 226.419 36.4974 226.055 37.2266C225.654 37.8828 225.207 38.457 224.715 38.9492C224.241 39.4232 223.767 39.7695 223.293 39.9883C223.184 40.0247 223.092 40.043 223.02 40.043C222.947 40.043 222.91 40.0247 222.91 39.9883V39.9336C222.91 39.8242 223.001 39.6966 223.184 39.5508C223.512 39.2956 223.758 39.0404 223.922 38.7852C224.104 38.5117 224.241 38.3112 224.332 38.1836C224.715 37.6367 224.988 37.1901 225.152 36.8438C225.335 36.5339 225.462 36.2148 225.535 35.8867H225.426C224.952 35.8867 224.186 35.9414 223.129 36.0508C222.965 36.069 222.491 36.1328 221.707 36.2422C221.543 36.2604 221.288 36.306 220.941 36.3789L220.613 36.4609C220.54 36.4974 220.467 36.5156 220.395 36.5156C220.303 36.5156 220.212 36.4974 220.121 36.4609C220.03 36.4062 219.939 36.3424 219.848 36.2695C219.629 36.0872 219.52 35.9323 219.52 35.8047C219.538 35.7682 219.556 35.7135 219.574 35.6406C219.611 35.5677 219.629 35.5039 219.629 35.4492L219.766 34.5469C219.784 34.4557 219.802 34.3555 219.82 34.2461C219.839 34.1367 219.848 34.0273 219.848 33.918C219.848 33.5716 219.839 33.2982 219.82 33.0977C219.82 32.8789 219.793 32.651 219.738 32.4141V32.332C219.738 32.2044 219.793 32.1406 219.902 32.1406C220.012 32.1406 220.203 32.2227 220.477 32.3867C220.841 32.6419 221.023 32.8424 221.023 32.9883C221.023 33.043 221.014 33.0885 220.996 33.125C220.978 33.1615 220.96 33.1979 220.941 33.2344C220.887 33.5625 220.859 33.7448 220.859 33.7812L220.723 35.2305C220.723 35.2669 220.741 35.3125 220.777 35.3672C220.832 35.4036 220.887 35.4219 220.941 35.4219C221.379 35.4219 222.363 35.3125 223.895 35.0938C224.496 35.0391 224.924 34.9753 225.18 34.9023C225.344 34.8841 225.48 34.8568 225.59 34.8203C225.717 34.7656 225.799 34.7383 225.836 34.7383C225.945 34.7018 226.018 34.6836 226.055 34.6836C226.219 34.6836 226.419 34.8294 226.656 35.1211ZM231.852 29.4336C231.906 29.4336 231.961 29.4609 232.016 29.5156C232.07 29.5521 232.107 29.6068 232.125 29.6797V29.7344C232.125 29.862 232.025 30.1081 231.824 30.4727L229.855 33.8906C229.71 34.2005 229.518 34.3555 229.281 34.3555C229.044 34.3555 228.844 34.2096 228.68 33.918C228.516 33.681 228.315 33.3255 228.078 32.8516C227.969 32.6875 227.878 32.5234 227.805 32.3594C227.732 32.1953 227.677 32.0768 227.641 32.0039C227.44 31.6576 227.34 31.4115 227.34 31.2656C227.34 31.1927 227.367 31.138 227.422 31.1016C227.477 31.0469 227.531 31.0195 227.586 31.0195C227.786 31.0195 227.969 31.1289 228.133 31.3477C228.26 31.4753 228.361 31.612 228.434 31.7578L228.734 32.168L229.281 32.7969L229.527 32.4141C229.783 31.9766 230.384 31.1107 231.332 29.8164C231.533 29.5612 231.706 29.4336 231.852 29.4336ZM205.41 42.9961C205.41 43.4883 205.228 43.7344 204.863 43.7344C204.699 43.7344 204.508 43.6797 204.289 43.5703C203.742 43.2969 203.469 42.9779 203.469 42.6133C203.469 42.5404 203.478 42.4766 203.496 42.4219C203.624 41.7839 203.688 41.2188 203.688 40.7266V37.9648L200.379 38.1016H199.887C199.395 38.1016 199.057 38.0104 198.875 37.8281C198.729 37.6823 198.602 37.5 198.492 37.2812C198.383 37.0625 198.31 36.8711 198.273 36.707C198.255 36.6706 198.246 36.6159 198.246 36.543C198.246 36.4701 198.283 36.4336 198.355 36.4336C198.41 36.4336 198.456 36.4427 198.492 36.4609C198.857 36.5521 199.203 36.5977 199.531 36.5977L199.996 36.5703L203.688 36.4336V28.0938C202.247 30.5729 200.698 32.6693 199.039 34.3828C197.38 36.0781 195.885 37.3542 194.555 38.2109C193.242 39.0677 192.413 39.4961 192.066 39.4961C191.902 39.4961 191.82 39.4323 191.82 39.3047C191.82 39.1589 191.966 38.9674 192.258 38.7305C194.117 37.3451 195.967 35.6133 197.809 33.5352C199.668 31.457 201.327 29.1237 202.785 26.5352L196.934 26.8633C196.715 26.8815 196.441 26.8906 196.113 26.8906C195.767 26.8906 195.448 26.8177 195.156 26.6719C194.865 26.526 194.618 26.1797 194.418 25.6328L194.363 25.4141C194.363 25.2865 194.436 25.2227 194.582 25.2227C194.655 25.2227 194.71 25.2318 194.746 25.25C195.038 25.3229 195.411 25.3594 195.867 25.3594H196.277L203.688 24.9492V20.1641C203.688 19.7083 203.569 19.3164 203.332 18.9883C203.241 18.8424 203.195 18.7331 203.195 18.6602C203.195 18.5326 203.305 18.4688 203.523 18.4688C203.615 18.4688 203.815 18.4961 204.125 18.5508C204.435 18.6055 204.727 18.7148 205 18.8789C205.273 19.0247 205.41 19.2253 205.41 19.4805V24.8398L212.164 24.457C212.674 24.4206 213.076 24.3477 213.367 24.2383C213.477 24.2018 213.559 24.1836 213.613 24.1836C213.868 24.1836 214.197 24.3659 214.598 24.7305C215.017 25.0768 215.227 25.3411 215.227 25.5234C215.227 25.724 214.999 25.8424 214.543 25.8789L206.121 26.3438C208.053 28.9141 209.94 31.1016 211.781 32.9062C213.622 34.7109 215.6 36.151 217.715 37.2266C217.97 37.3724 218.098 37.4909 218.098 37.582C218.098 37.6914 217.888 37.8828 217.469 38.1562C217.068 38.4297 216.758 38.5664 216.539 38.5664C216.43 38.5664 216.32 38.5391 216.211 38.4844C216.12 38.4115 216.056 38.3659 216.02 38.3477C213.814 36.9076 211.854 35.3307 210.141 33.6172C208.427 31.9036 206.85 29.9167 205.41 27.6562V36.3516L208.363 36.2422C208.783 36.224 209.174 36.1419 209.539 35.9961C209.685 35.9596 209.785 35.9414 209.84 35.9414C210.077 35.9414 210.305 36.0234 210.523 36.1875C210.76 36.3333 210.952 36.5065 211.098 36.707C211.243 36.9076 211.316 37.0625 211.316 37.1719C211.316 37.3177 211.253 37.4362 211.125 37.5273C211.016 37.6003 210.842 37.6458 210.605 37.6641L205.41 37.8828V42.9961Z" fill="#333333"/>
<path d="M265.02 27.1914C264.783 27.1914 264.609 27.1094 264.5 26.9453C264.336 26.7083 264.172 26.5169 264.008 26.3711C263.862 26.2253 263.598 26.0247 263.215 25.7695L263.297 25.6328C264.135 25.9245 264.728 26.0703 265.074 26.0703C265.366 26.0703 265.685 25.9062 266.031 25.5781C266.396 25.2318 266.706 24.7396 266.961 24.1016C267.089 23.8099 267.18 23.5729 267.234 23.3906C267.307 23.1901 267.362 22.9714 267.398 22.7344V22.6797C267.398 22.5156 267.316 22.4336 267.152 22.4336C266.97 22.4336 266.642 22.4883 266.168 22.5977C265.913 22.6706 265.576 22.7799 265.156 22.9258L264.938 22.8711C264.919 22.8529 264.874 22.8255 264.801 22.7891C264.746 22.7344 264.701 22.6797 264.664 22.625C264.573 22.5339 264.527 22.4701 264.527 22.4336L264.5 22.3242C264.5 22.1966 264.564 22.0781 264.691 21.9688C264.837 21.8594 264.919 21.7773 264.938 21.7227C265.083 21.5586 265.375 21.1576 265.812 20.5195C265.849 20.4831 265.913 20.401 266.004 20.2734C266.095 20.1276 266.141 20 266.141 19.8906C266.141 19.763 265.603 19.8542 264.527 20.1641C263.434 20.4922 262.859 20.6562 262.805 20.6562C262.622 20.6562 262.431 20.5013 262.23 20.1914C262.085 20.0456 262.012 19.9271 262.012 19.8359C262.012 19.7083 262.194 19.6354 262.559 19.6172C262.978 19.599 263.625 19.526 264.5 19.3984C265.393 19.2708 265.922 19.1888 266.086 19.1523L266.469 19.043C266.523 19.0247 266.587 19.0156 266.66 19.0156C266.715 19.0156 266.797 19.0521 266.906 19.125C267.034 19.1979 267.143 19.2526 267.234 19.2891C267.471 19.3984 267.608 19.526 267.645 19.6719V19.7539C267.645 19.918 267.553 20.0911 267.371 20.2734C267.298 20.3464 267.152 20.5013 266.934 20.7383C266.715 20.957 266.578 21.1029 266.523 21.1758C266.451 21.2487 266.341 21.3672 266.195 21.5312C266.049 21.6953 265.967 21.7956 265.949 21.832C265.949 21.8867 265.967 21.9232 266.004 21.9414C266.04 21.9596 266.086 21.9688 266.141 21.9688C266.688 21.8958 267.134 21.8138 267.48 21.7227L267.918 21.5859C268.118 21.5859 268.264 21.6589 268.355 21.8047C268.52 21.987 268.629 22.1419 268.684 22.2695C268.738 22.3789 268.738 22.4883 268.684 22.5977C268.665 22.6523 268.638 22.707 268.602 22.7617C268.565 22.8164 268.529 22.8802 268.492 22.9531C268.474 22.9896 268.438 23.0625 268.383 23.1719C268.328 23.2812 268.292 23.3906 268.273 23.5C267.945 24.4479 267.553 25.2591 267.098 25.9336C266.842 26.2435 266.56 26.5078 266.25 26.7266C265.831 27.0365 265.421 27.1914 265.02 27.1914ZM262.285 31.7852C262.085 31.7852 261.839 31.6302 261.547 31.3203C261.328 31.1016 261.219 30.9375 261.219 30.8281C261.219 30.7734 261.255 30.7461 261.328 30.7461C261.401 30.7279 261.492 30.7188 261.602 30.7188L262.203 30.6914C262.549 30.6914 262.777 30.6823 262.887 30.6641C263.233 30.6641 263.525 30.6549 263.762 30.6367C265.329 30.4909 266.387 30.3724 266.934 30.2812C267.207 30.2448 267.453 30.2083 267.672 30.1719C267.891 30.1172 268.064 30.0898 268.191 30.0898C268.447 30.0898 268.702 30.2174 268.957 30.4727C269.158 30.6732 269.258 30.8372 269.258 30.9648C269.258 31.0742 269.194 31.1471 269.066 31.1836C268.975 31.2018 268.438 31.2383 267.453 31.293C266.906 31.3112 266.232 31.3568 265.43 31.4297C264.628 31.5026 263.926 31.5755 263.324 31.6484C263.215 31.6667 263.06 31.694 262.859 31.7305C262.659 31.7669 262.467 31.7852 262.285 31.7852ZM266.359 37.8828C266.177 38.1198 265.986 38.2383 265.785 38.2383C265.73 38.2383 265.703 38.1927 265.703 38.1016C265.703 37.974 265.74 37.8281 265.812 37.6641C265.812 37.6641 265.995 37.2995 266.359 36.5703C266.378 36.4974 266.405 36.4245 266.441 36.3516C266.478 36.2786 266.505 36.2148 266.523 36.1602V36.1328C266.523 36.0964 266.496 36.0599 266.441 36.0234C266.387 35.987 266.323 35.9779 266.25 35.9961C265.958 36.0143 265.521 36.0599 264.938 36.1328C264.372 36.2057 263.953 36.2786 263.68 36.3516C263.57 36.388 263.434 36.4336 263.27 36.4883C263.124 36.543 263.005 36.5703 262.914 36.5703C262.586 36.5703 262.312 36.4701 262.094 36.2695C261.911 36.1419 261.775 36.0143 261.684 35.8867L261.629 35.75C261.629 35.6589 261.784 35.6315 262.094 35.668C262.513 35.7044 263.379 35.6497 264.691 35.5039L265.238 35.4219C265.384 35.4036 265.612 35.3763 265.922 35.3398C266.25 35.2852 266.505 35.2305 266.688 35.1758C266.742 35.1576 266.797 35.1393 266.852 35.1211C266.924 35.0846 266.988 35.0664 267.043 35.0664C267.134 35.0664 267.243 35.112 267.371 35.2031C267.517 35.2943 267.635 35.3763 267.727 35.4492C267.854 35.5404 267.936 35.6224 267.973 35.6953C268.027 35.75 268.046 35.8229 268.027 35.9141C268.027 36.0052 267.982 36.0872 267.891 36.1602C267.799 36.2331 267.736 36.2878 267.699 36.3242C267.663 36.3789 267.535 36.5156 267.316 36.7344C267.225 36.8802 267.061 37.0807 266.824 37.3359C266.605 37.5911 266.451 37.7734 266.359 37.8828ZM264.992 43.2695C264.992 43.2148 265.083 43.069 265.266 42.832C265.466 42.6133 265.621 42.4401 265.73 42.3125C266.004 41.9479 266.332 41.4193 266.715 40.7266C267.116 40.0339 267.344 39.5781 267.398 39.3594C267.435 39.25 267.38 39.1953 267.234 39.1953C266.943 39.1953 266.141 39.2773 264.828 39.4414C263.971 39.5508 263.333 39.6602 262.914 39.7695C262.823 39.8242 262.732 39.8516 262.641 39.8516C262.495 39.8516 262.34 39.7513 262.176 39.5508C262.103 39.4232 262.066 39.3047 262.066 39.1953C262.066 39.1224 262.112 39.0495 262.203 38.9766L262.285 38.8672C262.34 38.7578 262.404 38.612 262.477 38.4297C262.549 38.2474 262.613 38.0742 262.668 37.9102C262.759 37.6185 262.823 37.2995 262.859 36.9531C262.878 36.7526 262.987 36.6979 263.188 36.7891C263.443 36.9167 263.634 37.0443 263.762 37.1719C263.908 37.2812 263.953 37.3633 263.898 37.418C263.716 37.6367 263.57 37.8828 263.461 38.1562C263.37 38.4479 263.315 38.6393 263.297 38.7305C263.297 38.8034 263.342 38.8398 263.434 38.8398C263.707 38.8398 264.117 38.7943 264.664 38.7031C264.974 38.6667 265.357 38.6211 265.812 38.5664C266.268 38.5117 266.633 38.457 266.906 38.4023L267.59 38.2656C267.645 38.2474 267.717 38.2383 267.809 38.2383C267.9 38.2383 267.991 38.2747 268.082 38.3477C268.173 38.4023 268.273 38.4753 268.383 38.5664C268.565 38.7305 268.684 38.8672 268.738 38.9766C268.793 39.0677 268.82 39.1771 268.82 39.3047C268.82 39.3776 268.766 39.4688 268.656 39.5781C268.565 39.6875 268.456 39.8607 268.328 40.0977C267.799 41.1732 267.116 42.0755 266.277 42.8047C266.04 42.987 265.776 43.1419 265.484 43.2695C265.357 43.306 265.238 43.3242 265.129 43.3242C265.038 43.3424 264.992 43.3242 264.992 43.2695ZM270.242 32.8242C270.333 32.8242 270.47 32.888 270.652 33.0156C270.634 33.0521 270.671 33.125 270.762 33.2344C270.853 33.3255 270.917 33.3893 270.953 33.4258C271.044 33.5169 271.135 33.6263 271.227 33.7539C271.336 33.8815 271.454 34.0182 271.582 34.1641C271.91 34.5104 272.667 35.4128 273.852 36.8711C274.052 37.1628 274.152 37.3359 274.152 37.3906C274.152 37.5729 274.043 37.6641 273.824 37.6641C273.697 37.6641 273.56 37.5729 273.414 37.3906C273.068 37.026 272.448 36.4518 271.555 35.668C270.862 35.0299 270.233 34.5378 269.668 34.1914C269.395 34.0638 269.258 33.918 269.258 33.7539C269.258 33.6263 269.395 33.444 269.668 33.207C269.923 32.9518 270.115 32.8242 270.242 32.8242ZM237.348 35.3672V35.4492C237.348 35.7773 237.202 35.9414 236.91 35.9414C236.655 35.9414 236.372 35.8503 236.062 35.668C235.753 35.4674 235.598 35.194 235.598 34.8477C235.598 34.7383 235.607 34.6471 235.625 34.5742C235.68 34.2096 235.707 33.8633 235.707 33.5352V33.1797L235.434 26.2617C235.397 25.6055 235.288 25.1224 235.105 24.8125C234.978 24.5938 234.914 24.4388 234.914 24.3477C234.914 24.2383 234.996 24.1836 235.16 24.1836C235.452 24.1836 236.035 24.3477 236.91 24.6758L240.766 24.4023L241.285 24.375C241.504 24.375 241.741 24.457 241.996 24.6211C242.27 24.7852 242.406 25.013 242.406 25.3047C242.406 25.3958 242.379 25.5052 242.324 25.6328C242.288 25.7604 242.26 25.8607 242.242 25.9336L241.887 30.3906C243.473 28.6953 244.895 26.9727 246.152 25.2227C247.428 23.4727 248.486 21.7956 249.324 20.1914C249.507 19.8633 249.598 19.4896 249.598 19.0703C249.598 18.7604 249.707 18.6055 249.926 18.6055C250.181 18.6055 250.527 18.7878 250.965 19.1523C251.402 19.4987 251.621 19.763 251.621 19.9453C251.621 19.9818 251.603 20.0547 251.566 20.1641L250.746 21.4766C252.095 22.8984 253.471 24.2201 254.875 25.4414C256.279 26.6445 257.828 27.8021 259.523 28.9141C259.779 29.0781 259.906 29.2148 259.906 29.3242C259.906 29.4336 259.724 29.6432 259.359 29.9531C258.995 30.263 258.703 30.418 258.484 30.418C258.339 30.418 257.828 30.0807 256.953 29.4062C256.078 28.7135 255.003 27.7839 253.727 26.6172C252.469 25.4505 251.184 24.1654 249.871 22.7617C248.54 24.7122 247.273 26.3255 246.07 27.6016C244.885 28.8594 243.91 29.7891 243.145 30.3906C242.397 30.974 241.951 31.293 241.805 31.3477L241.75 32.3047C242.188 32.8333 242.406 33.2161 242.406 33.4531C242.406 33.5807 242.352 33.6628 242.242 33.6992C242.133 33.7174 241.932 33.7357 241.641 33.7539L237.293 34L237.348 35.3672ZM237.238 32.4688L240.164 32.3047L240.574 25.9336L236.965 26.1797L237.238 32.4688ZM240.793 40.8633C240.793 40.681 240.866 40.5078 241.012 40.3438C241.978 39.1224 242.789 37.7461 243.445 36.2148C243.573 35.9232 243.728 35.7773 243.91 35.7773C244.129 35.7773 244.348 35.8503 244.566 35.9961C244.803 36.1237 244.922 36.2695 244.922 36.4336C244.922 36.4701 244.885 36.5977 244.812 36.8164C244.01 38.6393 243.227 40.1523 242.461 41.3555C242.279 41.6471 242.087 41.793 241.887 41.793C241.741 41.793 241.522 41.6836 241.23 41.4648C240.939 41.2643 240.793 41.0638 240.793 40.8633ZM244.594 30.3086C244.594 30.1992 244.648 30.1445 244.758 30.1445C244.831 30.1445 244.895 30.1536 244.949 30.1719C245.259 30.2266 245.578 30.2539 245.906 30.2539H246.207L254.438 29.7891H254.656C255.003 29.7891 255.294 29.8893 255.531 30.0898C255.768 30.2904 255.887 30.4635 255.887 30.6094C255.887 30.737 255.823 30.8828 255.695 31.0469C255.568 31.1927 255.477 31.3021 255.422 31.375C254.802 32.2682 254.091 33.207 253.289 34.1914C252.505 35.1758 251.949 35.668 251.621 35.668C251.457 35.668 251.247 35.5677 250.992 35.3672C250.719 35.1484 250.582 34.957 250.582 34.793C250.582 34.6471 250.673 34.4922 250.855 34.3281C251.785 33.4531 252.688 32.4414 253.562 31.293L246.699 31.7031C246.517 31.7214 246.289 31.7305 246.016 31.7305C245.724 31.7305 245.46 31.6576 245.223 31.5117C245.004 31.3659 244.812 31.0469 244.648 30.5547C244.612 30.4818 244.594 30.3997 244.594 30.3086ZM245.66 37.5273C245.66 37.3997 245.697 37.2995 245.77 37.2266C245.842 37.1536 245.97 37.0807 246.152 37.0078C246.316 36.9531 246.453 36.9258 246.562 36.9258C246.818 36.9258 247 37.1081 247.109 37.4727C247.31 38.1289 247.665 38.7852 248.176 39.4414C248.704 40.0794 249.279 40.5169 249.898 40.7539C250.773 41.1003 251.721 41.2734 252.742 41.2734C253.125 41.2734 253.526 41.2552 253.945 41.2188C254.365 41.1823 254.574 41.1094 254.574 41L254.52 40.8633C254.501 40.8268 254.328 40.4622 254 39.7695C253.69 39.0768 253.535 38.5026 253.535 38.0469C253.535 37.8646 253.59 37.7734 253.699 37.7734C253.882 37.7734 254.118 37.9831 254.41 38.4023C255.085 39.3685 255.732 40.1432 256.352 40.7266C256.771 41.1094 256.98 41.4375 256.98 41.7109C256.98 41.9115 256.871 42.1029 256.652 42.2852C256.415 42.4674 256.042 42.6133 255.531 42.7227C255.039 42.832 254.173 42.8867 252.934 42.8867C251.293 42.8867 249.835 42.5404 248.559 41.8477C247.283 41.1732 246.344 39.8698 245.742 37.9375C245.688 37.7734 245.66 37.6367 245.66 37.5273ZM247 26.918C247 26.8268 247.064 26.7812 247.191 26.7812L247.355 26.8086C247.684 26.8633 248.003 26.8906 248.312 26.8906H248.613L251.211 26.7266C251.576 26.6901 251.885 26.6263 252.141 26.5352C252.25 26.4987 252.314 26.4805 252.332 26.4805C252.478 26.4805 252.724 26.6263 253.07 26.918C253.435 27.2096 253.617 27.4466 253.617 27.6289C253.617 27.8112 253.444 27.9206 253.098 27.957L249.105 28.2578C248.978 28.276 248.786 28.2852 248.531 28.2852C248.185 28.2852 247.893 28.2122 247.656 28.0664C247.419 27.9206 247.219 27.6289 247.055 27.1914C247.018 27.0456 247 26.9544 247 26.918ZM247.766 35.3672C247.766 35.2578 247.829 35.0938 247.957 34.875C248.085 34.638 248.24 34.5195 248.422 34.5195C248.586 34.5195 249.014 34.7383 249.707 35.1758C250.418 35.6133 251.074 36.0781 251.676 36.5703C252.296 37.0625 252.605 37.3997 252.605 37.582C252.605 37.7461 252.496 37.9557 252.277 38.2109C252.059 38.4479 251.858 38.5664 251.676 38.5664C251.548 38.5664 251.366 38.4661 251.129 38.2656C250.053 37.263 249.042 36.4427 248.094 35.8047C247.875 35.6589 247.766 35.513 247.766 35.3672ZM254.191 35.8047C254.191 35.6406 254.283 35.4674 254.465 35.2852C254.665 35.0846 254.82 34.9844 254.93 34.9844C255.094 34.9844 255.568 35.2669 256.352 35.832C257.135 36.3789 257.865 36.9622 258.539 37.582C259.232 38.1836 259.578 38.5755 259.578 38.7578C259.578 38.9219 259.451 39.1497 259.195 39.4414C258.958 39.7331 258.749 39.8789 258.566 39.8789C258.421 39.8789 258.247 39.7695 258.047 39.5508C256.88 38.2565 255.704 37.1628 254.52 36.2695C254.301 36.1055 254.191 35.9505 254.191 35.8047Z" fill="#333333"/>
<path d="M307.676 30.7461C307.384 30.7461 307.211 30.6003 307.156 30.3086C307.047 29.9987 306.755 29.6159 306.281 29.1602L306.363 29.0508C306.436 29.0872 306.646 29.1784 306.992 29.3242C307.339 29.4518 307.576 29.5156 307.703 29.5156C307.812 29.5156 307.895 29.5156 307.949 29.5156C308.004 29.4974 308.068 29.4518 308.141 29.3789C308.359 29.2148 308.633 28.8411 308.961 28.2578C309.198 27.7839 309.408 27.2279 309.59 26.5898C309.79 25.9518 309.891 25.4688 309.891 25.1406C309.891 25.0495 309.818 25.0039 309.672 25.0039L308.633 25.0586L307.922 25.1133L307.457 25.1406L307.266 25.168C307.393 25.2591 307.475 25.3411 307.512 25.4141C307.566 25.4688 307.594 25.5417 307.594 25.6328C307.594 25.724 307.484 25.9792 307.266 26.3984C307.083 26.7995 306.792 27.2552 306.391 27.7656C306.062 28.2031 305.616 28.6771 305.051 29.1875C304.504 29.6797 304.094 29.9349 303.82 29.9531C303.766 29.9531 303.711 29.944 303.656 29.9258C303.62 29.8893 303.602 29.8438 303.602 29.7891C303.602 29.7708 303.747 29.5977 304.039 29.2695L304.805 28.3672C305.352 27.638 305.908 26.7083 306.473 25.5781C306.527 25.4323 306.5 25.3503 306.391 25.332C306.281 25.3503 306.053 25.3776 305.707 25.4141C305.361 25.4323 305.051 25.487 304.777 25.5781C304.759 25.5781 304.695 25.6055 304.586 25.6602C304.477 25.6966 304.385 25.7148 304.312 25.7148C304.203 25.7148 304.112 25.6784 304.039 25.6055L303.82 25.4141C303.656 25.2865 303.574 25.168 303.574 25.0586C303.574 25.0221 303.592 24.9674 303.629 24.8945L303.766 24.6758C303.839 24.5846 303.957 24.4388 304.121 24.2383C304.285 24.0378 304.467 23.7643 304.668 23.418C304.704 23.3451 304.777 23.181 304.887 22.9258C305.014 22.6706 305.078 22.5156 305.078 22.4609V22.3516C305.078 22.2422 305.096 22.1693 305.133 22.1328C305.169 22.0964 305.251 22.0964 305.379 22.1328C305.507 22.1693 305.661 22.2695 305.844 22.4336L306.145 22.7344C306.199 22.7891 306.227 22.8529 306.227 22.9258C306.227 23.1081 305.971 23.4362 305.461 23.9102C305.37 24.0013 305.26 24.138 305.133 24.3203C305.005 24.5026 304.941 24.6211 304.941 24.6758C304.941 24.7852 305.023 24.8216 305.188 24.7852L305.816 24.7031C307.257 24.4844 308.341 24.3568 309.07 24.3203L309.809 24.2109L310.055 24.1562L310.191 24.1289C310.337 24.1289 310.438 24.1471 310.492 24.1836C310.547 24.2201 310.602 24.2839 310.656 24.375C310.711 24.4479 310.766 24.5117 310.82 24.5664C310.948 24.7122 311.039 24.8398 311.094 24.9492L311.148 25.1953L311.094 25.3047L311.039 25.4688C311.003 25.5599 310.975 25.651 310.957 25.7422C310.939 25.8151 310.911 25.8971 310.875 25.9883C310.492 27.4648 310.046 28.6133 309.535 29.4336C309.371 29.7253 309.089 30.0169 308.688 30.3086C308.305 30.6003 307.967 30.7461 307.676 30.7461ZM310.164 39.4414C309.891 39.4414 309.626 39.2409 309.371 38.8398C309.043 38.3294 308.724 37.9102 308.414 37.582L307.703 36.8438C307.32 37.2812 306.983 37.6276 306.691 37.8828C306.418 38.138 306.072 38.3841 305.652 38.6211C304.868 39.0768 304.212 39.3047 303.684 39.3047C303.556 39.3047 303.492 39.2591 303.492 39.168C303.492 39.1133 303.665 38.9948 304.012 38.8125C304.358 38.6302 304.686 38.4115 304.996 38.1562C305.78 37.5 306.427 36.8255 306.938 36.1328C306.828 36.0234 306.281 35.5495 305.297 34.7109C305.169 34.6198 304.978 34.4648 304.723 34.2461C304.668 34.2096 304.559 34.1276 304.395 34C304.23 33.8724 304.148 33.7812 304.148 33.7266C304.148 33.6354 304.194 33.5898 304.285 33.5898C304.559 33.5898 304.996 33.7812 305.598 34.1641C306.199 34.5286 306.828 34.9661 307.484 35.4766C307.74 35.1667 307.94 34.875 308.086 34.6016C308.232 34.3281 308.396 33.9909 308.578 33.5898C308.669 33.3893 308.724 33.2161 308.742 33.0703C308.76 32.9062 308.77 32.806 308.77 32.7695C308.77 32.569 308.824 32.4688 308.934 32.4688C309.061 32.4688 309.234 32.569 309.453 32.7695C309.836 33.1341 310.027 33.3802 310.027 33.5078C310.027 33.5807 309.982 33.6628 309.891 33.7539C309.672 33.9727 309.471 34.2643 309.289 34.6289C309.18 34.8477 308.979 35.1576 308.688 35.5586C308.596 35.668 308.523 35.7682 308.469 35.8594C308.414 35.9505 308.359 36.0326 308.305 36.1055C308.724 36.4154 309.344 36.944 310.164 37.6914C310.365 37.8737 310.492 38.0469 310.547 38.2109C310.62 38.3568 310.656 38.5573 310.656 38.8125C310.656 38.9948 310.611 39.1497 310.52 39.2773C310.428 39.3867 310.31 39.4414 310.164 39.4414ZM315.742 27.6289C315.961 27.6289 316.07 27.7292 316.07 27.9297C316.07 28.0391 315.97 28.194 315.77 28.3945C315.223 29.069 314.138 30.3542 312.516 32.25C312.388 32.4141 312.27 32.4961 312.16 32.4961C312.069 32.4961 311.868 32.3594 311.559 32.0859C311.303 31.8672 311.176 31.6849 311.176 31.5391C311.176 31.375 311.312 31.2201 311.586 31.0742C312.005 30.8372 312.634 30.3633 313.473 29.6523C314.311 28.9049 314.931 28.3125 315.332 27.875C315.496 27.7109 315.633 27.6289 315.742 27.6289ZM289.793 39.5781C289.793 39.7969 289.674 39.9062 289.438 39.9062C289.219 39.9062 288.954 39.8242 288.645 39.6602C288.335 39.4779 288.18 39.2956 288.18 39.1133L288.207 38.8398C288.243 38.5117 288.262 38.2292 288.262 37.9922V37.6914L288.043 32.6875C288.007 32.1771 287.915 31.7669 287.77 31.457C287.66 31.2018 287.605 31.056 287.605 31.0195C287.605 30.8919 287.706 30.8281 287.906 30.8281C288.143 30.8281 288.681 30.9375 289.52 31.1562L297.203 30.7734C297.768 30.7734 298.142 30.8828 298.324 31.1016C298.525 31.3021 298.625 31.4753 298.625 31.6211C298.625 31.694 298.607 31.776 298.57 31.8672C298.552 31.9401 298.534 32.0039 298.516 32.0586L298.16 37.6914C298.507 38.1289 298.68 38.457 298.68 38.6758C298.68 38.7669 298.634 38.8307 298.543 38.8672C298.452 38.9036 298.315 38.931 298.133 38.9492L289.793 39.2227V39.5781ZM275.848 24.5391C275.848 24.4297 275.902 24.375 276.012 24.375C276.085 24.375 276.148 24.3841 276.203 24.4023C276.477 24.4753 276.768 24.5117 277.078 24.5117L277.543 24.4844L283.559 24.1016C284.087 24.0104 284.461 23.9193 284.68 23.8281C284.789 23.7917 284.871 23.7734 284.926 23.7734C285.145 23.7734 285.436 23.9193 285.801 24.2109C286.165 24.5026 286.348 24.7669 286.348 25.0039C286.348 25.2409 286.165 25.3776 285.801 25.4141L278.09 25.9609C277.871 25.9792 277.607 25.9883 277.297 25.9883C276.987 25.9883 276.786 25.9427 276.695 25.8516C276.13 25.3594 275.848 24.9219 275.848 24.5391ZM277.598 34.3281C277.598 34.2188 277.671 34.1641 277.816 34.1641C278.108 34.1641 278.764 34.3555 279.785 34.7383L283.996 34.4922H284.215C284.507 34.4922 284.771 34.6107 285.008 34.8477C285.263 35.0846 285.391 35.2852 285.391 35.4492C285.391 35.5221 285.363 35.6133 285.309 35.7227C285.272 35.8138 285.245 35.8958 285.227 35.9688L284.789 39.6875C285.208 40.2708 285.418 40.6536 285.418 40.8359C285.418 40.9453 285.372 41.0091 285.281 41.0273C285.19 41.0638 285.081 41.082 284.953 41.082C284.826 41.1003 284.734 41.1094 284.68 41.1094L280.168 41.3008L280.195 41.8203V41.9023C280.195 42.3034 280.031 42.5039 279.703 42.5039C279.466 42.5039 279.193 42.4128 278.883 42.2305C278.591 42.0664 278.445 41.8203 278.445 41.4922V41.3281C278.482 40.8542 278.5 40.5078 278.5 40.2891V39.9609L278.227 36.3516C278.172 35.7318 278.035 35.2305 277.816 34.8477C277.671 34.6107 277.598 34.4375 277.598 34.3281ZM277.789 31.1836C277.789 31.0924 277.835 31.0469 277.926 31.0469C277.98 31.0469 278.026 31.056 278.062 31.0742C278.372 31.1471 278.71 31.1836 279.074 31.1836H279.375L282.902 30.9922C283.267 30.9557 283.586 30.8828 283.859 30.7734C283.969 30.737 284.051 30.7188 284.105 30.7188C284.324 30.7188 284.579 30.8737 284.871 31.1836C285.181 31.4753 285.336 31.7122 285.336 31.8945C285.336 32.1497 285.154 32.2956 284.789 32.332L279.922 32.6328H279.129C278.874 32.5964 278.691 32.5508 278.582 32.4961C278.236 32.2044 277.98 31.8216 277.816 31.3477C277.798 31.3112 277.789 31.2565 277.789 31.1836ZM277.789 27.9023C277.789 27.793 277.835 27.7383 277.926 27.7383L278.035 27.7656C278.345 27.8385 278.682 27.875 279.047 27.875H279.348L282.957 27.6289C283.285 27.5924 283.613 27.5286 283.941 27.4375C284.051 27.401 284.124 27.3828 284.16 27.3828C284.361 27.3828 284.616 27.5195 284.926 27.793C285.254 28.0664 285.418 28.3216 285.418 28.5586C285.418 28.6862 285.363 28.7865 285.254 28.8594C285.145 28.9323 285.008 28.9779 284.844 28.9961L279.895 29.3242C279.749 29.3424 279.548 29.3516 279.293 29.3516C279.129 29.3516 279.01 29.3424 278.938 29.3242C278.773 29.3242 278.646 29.2786 278.555 29.1875C278.391 29.0599 278.217 28.8594 278.035 28.5859C277.871 28.2943 277.789 28.0664 277.789 27.9023ZM278.637 20.6562C278.637 20.4375 278.701 20.2279 278.828 20.0273C278.974 19.8086 279.147 19.6992 279.348 19.6992C279.493 19.6992 279.949 19.8542 280.715 20.1641C281.499 20.474 282.428 20.9206 283.504 21.5039C283.704 21.6133 283.85 21.7227 283.941 21.832C284.033 21.9232 284.078 22.0326 284.078 22.1602C284.078 22.3789 283.987 22.6341 283.805 22.9258C283.641 23.1992 283.449 23.3359 283.23 23.3359C283.085 23.3359 282.884 23.2539 282.629 23.0898C281.553 22.3789 280.396 21.75 279.156 21.2031C278.81 21.0755 278.637 20.8932 278.637 20.6562ZM280.059 39.9062L283.258 39.7695L283.559 35.9961L279.785 36.1875L280.059 39.9062ZM284.57 43.3242C284.57 43.1237 284.771 42.9596 285.172 42.832C287.305 42.0846 289.046 41.2552 290.395 40.3438C290.467 40.3073 290.513 40.2708 290.531 40.2344C290.75 40.0885 290.923 39.9062 291.051 39.6875C291.178 39.5052 291.288 39.4141 291.379 39.4141C291.525 39.4141 291.671 39.5143 291.816 39.7148C291.98 39.9154 292.117 40.1432 292.227 40.3984C292.354 40.6354 292.418 40.7904 292.418 40.8633C292.418 41.0273 292.327 41.1549 292.145 41.2461C290.996 41.8294 289.911 42.2852 288.891 42.6133C287.87 42.9596 287.022 43.1966 286.348 43.3242C285.673 43.4518 285.227 43.5156 285.008 43.5156C284.716 43.5156 284.57 43.4518 284.57 43.3242ZM285.746 25.8789C285.746 25.7695 285.828 25.7148 285.992 25.7148C286.266 25.7148 286.822 25.8333 287.66 26.0703L299.309 25.4141H299.473C299.673 25.4141 299.892 25.5052 300.129 25.6875C300.384 25.8516 300.512 26.0247 300.512 26.207C300.512 26.2982 300.484 26.3984 300.43 26.5078C300.375 26.599 300.339 26.6719 300.32 26.7266L299.91 28.4492C300.257 28.8138 300.43 29.0781 300.43 29.2422C300.43 29.3516 300.366 29.4245 300.238 29.4609C300.129 29.4974 299.947 29.5247 299.691 29.543L287.961 30.0898V30.1445C287.961 30.3997 287.824 30.5273 287.551 30.5273C287.423 30.5273 287.259 30.5 287.059 30.4453C286.785 30.3724 286.594 30.2812 286.484 30.1719C286.375 30.0625 286.32 29.9258 286.32 29.7617V29.625C286.357 29.2604 286.375 29.0417 286.375 28.9688C286.375 28.8229 286.366 28.7135 286.348 28.6406L286.156 27.3281C286.102 26.8724 286.01 26.526 285.883 26.2891C285.792 26.0703 285.746 25.9336 285.746 25.8789ZM285.773 21.3398C285.773 21.2305 285.828 21.1758 285.938 21.1758C286.01 21.1758 286.074 21.1849 286.129 21.2031C286.421 21.276 286.785 21.3125 287.223 21.3125H287.469L292.117 21.0117V20.2734C292.117 19.8177 292.026 19.444 291.844 19.1523C291.771 19.0247 291.734 18.9245 291.734 18.8516C291.734 18.724 291.835 18.6602 292.035 18.6602C292.309 18.6602 292.655 18.724 293.074 18.8516C293.493 18.9792 293.703 19.1432 293.703 19.3438V20.9297L297.422 20.6836C297.841 20.6654 298.26 20.5924 298.68 20.4648C298.716 20.4466 298.789 20.4375 298.898 20.4375C299.154 20.4375 299.445 20.5651 299.773 20.8203C300.12 21.0573 300.293 21.276 300.293 21.4766C300.293 21.6771 300.156 21.7956 299.883 21.832L293.676 22.2148V23.4453L295.316 23.3633C295.736 23.3268 296.146 23.263 296.547 23.1719C296.602 23.1536 296.684 23.1445 296.793 23.1445C297.103 23.1445 297.431 23.2995 297.777 23.6094C297.996 23.7917 298.105 23.9648 298.105 24.1289C298.105 24.3294 297.96 24.4479 297.668 24.4844L290.34 24.8945C289.866 24.931 289.565 24.9492 289.438 24.9492C289.091 24.9492 288.836 24.8763 288.672 24.7305C288.398 24.5117 288.18 24.2383 288.016 23.9102C287.979 23.8555 287.961 23.7826 287.961 23.6914C287.961 23.6003 288.025 23.5547 288.152 23.5547C288.225 23.5547 288.289 23.5638 288.344 23.582C288.617 23.6549 288.964 23.6914 289.383 23.6914H289.656L292.145 23.5547L292.117 22.2969L288.207 22.543C287.733 22.5794 287.423 22.5977 287.277 22.5977C286.621 22.5977 286.138 22.2513 285.828 21.5586L285.773 21.3398ZM287.852 28.9141L290.449 28.7773L290.312 27.1094L287.688 27.2461L287.852 28.9141ZM289.574 33.5078L296.93 33.1797L296.984 32.0039L289.52 32.332L289.574 33.5078ZM289.656 35.7227L296.848 35.4219L296.902 34.2734L289.602 34.6016L289.656 35.7227ZM289.738 38.0469L296.766 37.8281L296.82 36.5156L289.684 36.7891L289.738 38.0469ZM291.898 28.7227L294.195 28.6133L294.332 26.8906L291.762 27.0273L291.898 28.7227ZM294.797 40.2344C294.797 40.0885 294.852 39.9245 294.961 39.7422C295.143 39.4323 295.344 39.2773 295.562 39.2773C295.781 39.2773 296.173 39.4141 296.738 39.6875C297.322 39.9427 298.516 40.5352 300.32 41.4648C300.685 41.6289 300.867 41.8477 300.867 42.1211C300.867 42.2669 300.794 42.4948 300.648 42.8047C300.503 43.1146 300.32 43.2695 300.102 43.2695C299.938 43.2695 299.728 43.1784 299.473 42.9961C298.142 42.0846 296.766 41.3464 295.344 40.7812C295.161 40.7083 295.025 40.6354 294.934 40.5625C294.842 40.4714 294.797 40.362 294.797 40.2344ZM298.434 28.4219L298.707 26.6719L295.836 26.8359L295.672 28.5586L298.434 28.4219Z" fill="#333333"/>
</svg>
