<svg width="340" height="60" viewBox="0 0 340 60" fill="none" xmlns="http://www.w3.org/2000/svg">
<path d="M55.2109 26.9453C55.1016 26.9453 54.9557 26.8268 54.7734 26.5898C54.5911 26.3346 54.5091 26.1159 54.5273 25.9336C54.5638 25.7878 54.5911 25.3776 54.6094 24.7031C54.6276 24.2474 54.6367 23.4453 54.6367 22.2969C54.6367 21.4948 54.6276 20.957 54.6094 20.6836L53.707 20.7656C53.069 20.8568 52.5221 20.9023 52.0664 20.9023C51.9388 20.9023 51.7565 20.8021 51.5195 20.6016C51.2826 20.401 51.1641 20.2552 51.1641 20.1641C51.1641 20.0182 51.319 19.9635 51.6289 20C51.8294 20.0182 52.4219 20.0091 53.4062 19.9727C54.7552 19.8815 55.7305 19.8268 56.332 19.8086C56.6419 19.7904 56.9245 19.763 57.1797 19.7266C57.4531 19.6719 57.6445 19.6354 57.7539 19.6172C57.918 19.599 58.0638 19.6172 58.1914 19.6719C58.319 19.7266 58.4375 19.7995 58.5469 19.8906C58.6745 19.9635 58.7747 20.0182 58.8477 20.0547C59.0117 20.1641 59.0938 20.2643 59.0938 20.3555C59.0938 20.4284 59.0482 20.5013 58.957 20.5742C58.8841 20.6289 58.8021 20.6562 58.7109 20.6562C58.6198 20.6562 58.4922 20.6471 58.3281 20.6289C58.1823 20.6107 58.0182 20.6016 57.8359 20.6016C57.1615 20.6016 56.4688 20.6198 55.7578 20.6562C55.7396 20.8021 55.7305 21.1667 55.7305 21.75C55.694 22.7344 55.6758 23.7005 55.6758 24.6484V25.7148V25.9609C55.6758 26.2708 55.6484 26.4714 55.5938 26.5625C55.4297 26.8177 55.3021 26.9453 55.2109 26.9453ZM52.2852 31.7852C52.0846 31.7852 51.8385 31.6302 51.5469 31.3203C51.3281 31.1016 51.2188 30.9375 51.2188 30.8281C51.2188 30.7734 51.2552 30.7461 51.3281 30.7461C51.401 30.7279 51.4922 30.7188 51.6016 30.7188L52.2031 30.6914C52.5495 30.6914 52.7773 30.6823 52.8867 30.6641C53.2331 30.6641 53.5247 30.6549 53.7617 30.6367C55.3294 30.4909 56.3867 30.3724 56.9336 30.2812C57.207 30.2448 57.4531 30.2083 57.6719 30.1719C57.8906 30.1172 58.0638 30.0898 58.1914 30.0898C58.4466 30.0898 58.7018 30.2174 58.957 30.4727C59.1576 30.6732 59.2578 30.8372 59.2578 30.9648C59.2578 31.0742 59.194 31.1471 59.0664 31.1836C58.9753 31.2018 58.4375 31.2383 57.4531 31.293C56.9062 31.3112 56.2318 31.3568 55.4297 31.4297C54.6276 31.5026 53.9258 31.5755 53.3242 31.6484C53.2148 31.6667 53.0599 31.694 52.8594 31.7305C52.6589 31.7669 52.4674 31.7852 52.2852 31.7852ZM58.1641 41.2188C58.2005 41.2917 58.2643 41.401 58.3555 41.5469C58.4466 41.6927 58.4922 41.8659 58.4922 42.0664C58.4922 42.2487 58.4193 42.3945 58.2734 42.5039C58.1276 42.6315 57.9635 42.6953 57.7812 42.6953C57.6172 42.6953 57.4805 42.5312 57.3711 42.2031C57.3164 42.0755 57.2708 41.9661 57.2344 41.875C57.2161 41.8021 57.1979 41.7383 57.1797 41.6836C56.9427 41.7565 56.6328 41.8203 56.25 41.875C55.8672 41.9297 55.5938 41.9753 55.4297 42.0117C54.5547 42.1758 53.9531 42.2943 53.625 42.3672C53.4974 42.4036 53.3607 42.4401 53.2148 42.4766C53.069 42.5312 52.987 42.5677 52.9688 42.5859C52.8594 42.6224 52.7773 42.6406 52.7227 42.6406C52.5768 42.6406 52.4401 42.5768 52.3125 42.4492C52.0938 42.2852 51.9297 42.0664 51.8203 41.793C51.8021 41.7747 51.793 41.7474 51.793 41.7109C51.793 41.6745 51.8385 41.6289 51.9297 41.5742C52.0391 41.5195 52.1211 41.4831 52.1758 41.4648C52.4128 41.3372 52.832 40.9544 53.4336 40.3164L54.1719 39.6055L52.5586 38.7305C52.3763 38.6758 52.2578 38.612 52.2031 38.5391C52.1484 38.4661 52.1211 38.3568 52.1211 38.2109C52.1211 38.1016 52.1393 38.0286 52.1758 37.9922C52.2305 37.9375 52.3398 37.8555 52.5039 37.7461C52.668 37.6367 52.832 37.4909 52.9961 37.3086C53.0872 37.1992 53.2057 37.0807 53.3516 36.9531C53.4974 36.8255 53.6341 36.6888 53.7617 36.543C54.3086 35.9049 54.6549 35.4036 54.8008 35.0391C54.8919 34.8568 54.9648 34.7656 55.0195 34.7656C55.056 34.7656 55.1289 34.8021 55.2383 34.875C55.5846 35.1302 55.7943 35.3672 55.8672 35.5859V35.668C55.8672 35.7591 55.8216 35.832 55.7305 35.8867C55.6393 35.9414 55.5755 35.987 55.5391 36.0234C55.4844 36.0599 55.2109 36.3242 54.7188 36.8164L54.2266 37.3086C54.1354 37.3997 53.9805 37.5547 53.7617 37.7734C53.543 37.974 53.4336 38.0924 53.4336 38.1289C53.4336 38.1836 53.4609 38.2292 53.5156 38.2656C53.5885 38.3021 53.6432 38.3385 53.6797 38.375L54.8281 38.9219C55.5391 38.2109 55.9492 37.7917 56.0586 37.6641C56.5326 37.1172 56.7969 36.7708 56.8516 36.625C56.8698 36.6068 56.8971 36.5612 56.9336 36.4883C56.9701 36.4154 57.0065 36.3789 57.043 36.3789C57.0977 36.3789 57.1523 36.4062 57.207 36.4609C57.4987 36.7344 57.7083 36.9896 57.8359 37.2266C57.8724 37.2995 57.8906 37.3451 57.8906 37.3633C57.8906 37.3997 57.8451 37.4544 57.7539 37.5273C57.681 37.582 57.6081 37.6367 57.5352 37.6914C56.8971 38.2201 56.1497 38.9128 55.293 39.7695L53.625 41.3281C53.5885 41.3646 53.5703 41.401 53.5703 41.4375C53.5703 41.474 53.5885 41.5013 53.625 41.5195C53.6615 41.5378 53.7161 41.5378 53.7891 41.5195L56.9883 40.9727C56.8971 40.6081 56.7878 40.2435 56.6602 39.8789V39.8242C56.6602 39.7695 56.6875 39.7422 56.7422 39.7422C56.8151 39.7422 56.9245 39.7969 57.0703 39.9062C57.362 40.1615 57.7266 40.599 58.1641 41.2188ZM63.8516 32.4414C63.9062 32.4414 63.9609 32.4688 64.0156 32.5234C64.0703 32.5599 64.1068 32.6146 64.125 32.6875V32.7422C64.125 32.8698 64.0247 33.1159 63.8242 33.4805L61.8555 36.8984C61.7096 37.2083 61.5182 37.3633 61.2812 37.3633C61.0443 37.3633 60.8438 37.2174 60.6797 36.9258C60.5156 36.6888 60.3151 36.3333 60.0781 35.8594C59.9688 35.6953 59.8776 35.5312 59.8047 35.3672C59.7318 35.2031 59.6771 35.0846 59.6406 35.0117C59.4401 34.6654 59.3398 34.4193 59.3398 34.2734C59.3398 34.2005 59.3672 34.1458 59.4219 34.1094C59.4766 34.0547 59.5312 34.0273 59.5859 34.0273C59.7865 34.0273 59.9688 34.1367 60.1328 34.3555C60.2604 34.4831 60.3607 34.6198 60.4336 34.7656L60.7344 35.1758L61.2812 35.8047L61.5273 35.4219C61.7826 34.9844 62.3841 34.1185 63.332 32.8242C63.5326 32.569 63.7057 32.4414 63.8516 32.4414ZM36.2344 20.6562C36.2344 20.2188 36.1159 19.8542 35.8789 19.5625C35.7878 19.4349 35.7422 19.3529 35.7422 19.3164C35.7422 19.207 35.8424 19.1523 36.043 19.1523C36.1888 19.1523 36.4349 19.1888 36.7812 19.2617C37.1276 19.3346 37.4466 19.444 37.7383 19.5898C38.0299 19.7357 38.1758 19.9089 38.1758 20.1094L38.0938 40.3164L38.1211 41.4102C38.1211 42.0117 37.957 42.431 37.6289 42.668C37.3008 42.9049 37.0182 43.0234 36.7812 43.0234C36.5078 43.0234 35.8607 42.7409 34.8398 42.1758C33.8372 41.6107 32.8984 41.0182 32.0234 40.3984C31.1484 39.7604 30.7109 39.3229 30.7109 39.0859C30.7109 38.9219 30.8294 38.8398 31.0664 38.8398C31.2669 38.8398 31.5039 38.9036 31.7773 39.0312C33.6185 39.8151 35.0768 40.3529 36.1523 40.6445L36.2344 20.6562ZM24.6406 37.418C24.6406 37.2539 24.75 36.9987 24.9688 36.6523C26.2083 34.8294 27.2201 33.1888 28.0039 31.7305C28.7878 30.2539 29.3893 28.6771 29.8086 27C29.8815 26.7083 29.918 26.4896 29.918 26.3438C29.918 26.1979 29.8906 26.043 29.8359 25.8789C29.8177 25.8242 29.8086 25.7604 29.8086 25.6875C29.8086 25.5234 29.8997 25.4414 30.082 25.4414C30.3555 25.4414 30.7656 25.6055 31.3125 25.9336C31.9323 26.2982 32.2422 26.6354 32.2422 26.9453C32.2422 27.0365 32.2331 27.1003 32.2148 27.1367C31.3398 29.1966 30.3737 31.0195 29.3164 32.6055C28.2591 34.1732 27.3021 35.4036 26.4453 36.2969C25.6068 37.1719 25.0599 37.6094 24.8047 37.6094C24.6953 37.6094 24.6406 37.5456 24.6406 37.418ZM41.4844 26.4531C41.4844 26.2708 41.6211 26.0703 41.8945 25.8516C42.168 25.6146 42.4323 25.4961 42.6875 25.4961C42.888 25.4961 43.0612 25.5964 43.207 25.7969C44.0456 26.8724 44.9388 28.1393 45.8867 29.5977C46.8346 31.056 47.6367 32.3685 48.293 33.5352C48.9492 34.6836 49.2773 35.349 49.2773 35.5312C49.2773 35.7318 49.1862 35.9141 49.0039 36.0781C48.8216 36.2422 48.612 36.3789 48.375 36.4883C48.1562 36.5977 47.9922 36.6523 47.8828 36.6523C47.6458 36.6523 47.4544 36.5156 47.3086 36.2422C46.3607 34.3281 45.4401 32.6328 44.5469 31.1562C43.6719 29.6615 42.7057 28.2305 41.6484 26.8633C41.5391 26.7174 41.4844 26.5807 41.4844 26.4531Z" fill="#333333"/>
<path d="M97.2109 26.9453C97.1016 26.9453 96.9557 26.8268 96.7734 26.5898C96.5911 26.3346 96.5091 26.1159 96.5273 25.9336C96.5638 25.7878 96.5911 25.3776 96.6094 24.7031C96.6276 24.2474 96.6367 23.4453 96.6367 22.2969C96.6367 21.4948 96.6276 20.957 96.6094 20.6836L95.707 20.7656C95.069 20.8568 94.5221 20.9023 94.0664 20.9023C93.9388 20.9023 93.7565 20.8021 93.5195 20.6016C93.2826 20.401 93.1641 20.2552 93.1641 20.1641C93.1641 20.0182 93.319 19.9635 93.6289 20C93.8294 20.0182 94.4219 20.0091 95.4062 19.9727C96.7552 19.8815 97.7305 19.8268 98.332 19.8086C98.6419 19.7904 98.9245 19.763 99.1797 19.7266C99.4531 19.6719 99.6445 19.6354 99.7539 19.6172C99.918 19.599 100.064 19.6172 100.191 19.6719C100.319 19.7266 100.438 19.7995 100.547 19.8906C100.674 19.9635 100.775 20.0182 100.848 20.0547C101.012 20.1641 101.094 20.2643 101.094 20.3555C101.094 20.4284 101.048 20.5013 100.957 20.5742C100.884 20.6289 100.802 20.6562 100.711 20.6562C100.62 20.6562 100.492 20.6471 100.328 20.6289C100.182 20.6107 100.018 20.6016 99.8359 20.6016C99.1615 20.6016 98.4688 20.6198 97.7578 20.6562C97.7396 20.8021 97.7305 21.1667 97.7305 21.75C97.694 22.7344 97.6758 23.7005 97.6758 24.6484V25.7148V25.9609C97.6758 26.2708 97.6484 26.4714 97.5938 26.5625C97.4297 26.8177 97.3021 26.9453 97.2109 26.9453ZM94.8867 33.6445C94.2852 33.4258 94.0026 33.1888 94.0391 32.9336C94.1484 32.168 94.2031 31.293 94.2031 30.3086C94.2031 29.8711 94.194 29.5521 94.1758 29.3516C94.1576 29.1146 94.1393 28.9141 94.1211 28.75C94.1029 28.5677 94.1029 28.4674 94.1211 28.4492C94.194 28.3763 94.2852 28.3398 94.3945 28.3398C94.5586 28.3398 94.7591 28.4128 94.9961 28.5586C95.2513 28.7044 95.3789 28.8503 95.3789 28.9961C95.3789 29.0872 95.3698 29.1784 95.3516 29.2695C95.3333 29.3424 95.3242 29.4245 95.3242 29.5156L95.1602 32.2227C95.1602 32.3685 95.2148 32.4596 95.3242 32.4961H95.4609C95.6068 32.4961 95.707 32.487 95.7617 32.4688L99.2891 31.9766V31.2656C99.2891 30.3724 99.2708 29.6797 99.2344 29.1875C99.2161 28.7682 99.1706 28.431 99.0977 28.1758C99.043 27.8841 99.1159 27.7383 99.3164 27.7383C99.4622 27.7383 99.6536 27.793 99.8906 27.9023C100.182 28.0482 100.355 28.1758 100.41 28.2852C100.465 28.3763 100.483 28.5221 100.465 28.7227C100.428 29.0508 100.41 29.543 100.41 30.1992L100.438 32.2773C100.438 32.7148 100.355 33.0612 100.191 33.3164C100.1 33.4258 100.009 33.4805 99.918 33.4805C99.8268 33.4805 99.6992 33.3984 99.5352 33.2344C99.4987 33.1979 99.4531 33.1432 99.3984 33.0703C99.3438 32.9974 99.2891 32.9518 99.2344 32.9336C99.1797 32.9154 99.1068 32.9062 99.0156 32.9062C98.5964 32.9427 97.5846 33.0794 95.9805 33.3164C95.707 33.3529 95.4883 33.4258 95.3242 33.5352C95.1419 33.6263 95.0234 33.6719 94.9688 33.6719L94.8867 33.6445ZM97.9492 43.0781C97.3841 43.0781 96.9466 43.0599 96.6367 43.0234C96.3451 42.987 96.099 42.8776 95.8984 42.6953C95.5521 42.4401 95.3151 41.8841 95.1875 41.0273L95.1055 40.1523C95.1055 39.9336 95.0872 39.6602 95.0508 39.332C94.7591 39.3685 94.5495 39.4049 94.4219 39.4414C94.3854 39.4596 94.3216 39.487 94.2305 39.5234C94.1576 39.5417 94.1029 39.5508 94.0664 39.5508C93.9388 39.5508 93.8203 39.5143 93.7109 39.4414C93.6016 39.3685 93.4648 39.2318 93.3008 39.0312C93.1732 38.8672 93.1094 38.7578 93.1094 38.7031C93.1094 38.6484 93.1732 38.612 93.3008 38.5938C93.4284 38.5755 93.6016 38.5664 93.8203 38.5664C94.1302 38.5664 94.5312 38.5299 95.0234 38.457L94.9961 38.0742C94.9961 37.3451 94.9505 36.7253 94.8594 36.2148L94.832 36.0234C94.832 35.7682 94.9323 35.668 95.1328 35.7227C95.3516 35.7956 95.5521 35.8867 95.7344 35.9961C95.8802 36.069 95.9805 36.1419 96.0352 36.2148C96.0898 36.2695 96.1081 36.3516 96.0898 36.4609L96.0078 37.6367V38.3477L98.4141 38.1016C98.4141 37.974 98.4232 37.6732 98.4414 37.1992C98.4596 36.707 98.4596 36.388 98.4414 36.2422C98.4414 36.0964 98.4232 35.9596 98.3867 35.832C98.3685 35.6862 98.3503 35.5677 98.332 35.4766C98.332 35.3307 98.4049 35.2578 98.5508 35.2578C98.6966 35.2578 98.8789 35.3398 99.0977 35.5039C99.3529 35.668 99.5169 35.8138 99.5898 35.9414C99.681 36.069 99.6992 36.224 99.6445 36.4062C99.5534 36.6979 99.4896 37.026 99.4531 37.3906C99.4167 37.7552 99.3984 37.974 99.3984 38.0469C99.6172 38.0286 99.8177 38.0013 100 37.9648C100.182 37.9284 100.301 37.9102 100.355 37.9102C100.501 37.8737 100.674 37.8555 100.875 37.8555C100.984 37.8737 101.139 37.9831 101.34 38.1836C101.504 38.4023 101.586 38.5755 101.586 38.7031C101.586 38.8854 101.413 38.9583 101.066 38.9219C100.757 38.8672 100.447 38.8398 100.137 38.8398C99.8268 38.8398 99.5625 38.849 99.3438 38.8672C99.2891 39.5234 99.1797 40.1706 99.0156 40.8086C98.9792 40.9544 98.9154 41.0729 98.8242 41.1641C98.7331 41.2734 98.651 41.3281 98.5781 41.3281C98.4505 41.3281 98.3685 41.2734 98.332 41.1641C98.3138 41.0729 98.3047 40.918 98.3047 40.6992C98.3411 40.2253 98.3594 39.6328 98.3594 38.9219C97.8672 38.9583 97.4844 38.9948 97.2109 39.0312C96.7917 39.1224 96.3997 39.1771 96.0352 39.1953C96.0169 39.9427 96.0534 40.6081 96.1445 41.1914C96.1992 41.5742 96.3086 41.8385 96.4727 41.9844C96.582 42.0755 96.7096 42.1302 96.8555 42.1484C97.0195 42.1667 97.1836 42.1758 97.3477 42.1758C97.5117 42.1758 97.6211 42.1758 97.6758 42.1758C98.2409 42.1758 98.7695 42.1484 99.2617 42.0938C99.4076 42.0755 99.5352 42.0391 99.6445 41.9844C99.7721 41.9297 99.8633 41.9023 99.918 41.9023C100.082 41.9023 100.246 41.957 100.41 42.0664C100.574 42.1758 100.656 42.3034 100.656 42.4492C100.656 42.5951 100.574 42.7044 100.41 42.7773C100.264 42.8503 100.027 42.9141 99.6992 42.9688C99.1159 43.0417 98.5326 43.0781 97.9492 43.0781ZM105.742 30.6367C105.961 30.6367 106.07 30.737 106.07 30.9375C106.07 31.0469 105.97 31.2018 105.77 31.4023C105.223 32.0768 104.138 33.362 102.516 35.2578C102.388 35.4219 102.27 35.5039 102.16 35.5039C102.069 35.5039 101.868 35.3672 101.559 35.0938C101.303 34.875 101.176 34.6927 101.176 34.5469C101.176 34.3828 101.312 34.2279 101.586 34.082C102.005 33.8451 102.634 33.3711 103.473 32.6602C104.311 31.9128 104.931 31.3203 105.332 30.8828C105.496 30.7188 105.633 30.6367 105.742 30.6367ZM69.457 30.9375C69.0924 32.487 68.8099 33.4805 68.6094 33.918C68.4271 34.3372 68.2539 34.5469 68.0898 34.5469C67.8164 34.5469 67.543 34.4466 67.2695 34.2461C66.9961 34.0456 66.8594 33.8451 66.8594 33.6445C66.8594 33.5352 66.8867 33.444 66.9414 33.3711C67.6341 32.0221 68.1081 30.5 68.3633 28.8047C68.3997 28.5859 68.4453 28.4401 68.5 28.3672C68.5729 28.276 68.7188 28.2305 68.9375 28.2305L69.2109 28.2578C69.612 28.3854 69.8125 28.5951 69.8125 28.8867C69.8125 28.9961 69.8034 29.0872 69.7852 29.1602L69.7031 29.6523L70.5508 29.625L70.0039 22.7891C69.931 22.0599 69.849 21.5221 69.7578 21.1758C69.6667 20.9023 69.6211 20.7109 69.6211 20.6016C69.6211 20.474 69.694 20.4102 69.8398 20.4102C70.0404 20.4102 70.4961 20.5469 71.207 20.8203C71.8633 20.6016 72.4284 20.3008 72.9023 19.918C73.3945 19.5352 73.6953 19.1979 73.8047 18.9062C73.8594 18.724 73.9505 18.6328 74.0781 18.6328C74.2786 18.6328 74.5065 18.8242 74.7617 19.207C75.0352 19.5898 75.1719 19.8997 75.1719 20.1367C75.1719 20.2826 75.1081 20.3919 74.9805 20.4648C74.1784 20.8659 73.5312 21.1758 73.0391 21.3945C72.5651 21.6133 72.0456 21.8138 71.4805 21.9961L71.5898 23.418L72.957 23.2812C73.2669 23.2448 73.5859 23.181 73.9141 23.0898C74.0599 23.0534 74.1693 23.0352 74.2422 23.0352C74.5156 23.0352 74.7799 23.1719 75.0352 23.4453C75.2904 23.7005 75.418 23.901 75.418 24.0469C75.418 24.2656 75.2083 24.3932 74.7891 24.4297L71.6719 24.6758L71.7812 26.2344L73.1758 26.125C73.5404 26.1068 73.8503 26.043 74.1055 25.9336C74.2148 25.8971 74.306 25.8789 74.3789 25.8789C74.543 25.8789 74.7891 25.9883 75.1172 26.207C75.4453 26.4258 75.6094 26.6445 75.6094 26.8633C75.6094 26.9727 75.5456 27.0638 75.418 27.1367C75.3086 27.2096 75.1536 27.2552 74.9531 27.2734L71.8906 27.4922L72.0547 29.543L85.2891 28.8594L85.4531 26.918L83.3203 27.0547L82.8008 27.082C82.5091 27.082 82.2721 26.9909 82.0898 26.8086C81.9076 26.6263 81.7799 26.4349 81.707 26.2344C81.6523 26.0339 81.625 25.8971 81.625 25.8242C81.625 25.7331 81.6797 25.6875 81.7891 25.6875L81.9258 25.7148C82.2357 25.7695 82.5273 25.7969 82.8008 25.7969H83.0742L85.5352 25.6328L85.6445 24.0742L83.4023 24.2383L82.9922 24.2656C82.6641 24.2656 82.3997 24.1836 82.1992 24.0195C82.0169 23.8372 81.8893 23.6549 81.8164 23.4727C81.7435 23.2721 81.707 23.1354 81.707 23.0625C81.707 22.9531 81.7617 22.8984 81.8711 22.8984L82.0078 22.9258C82.3177 22.9805 82.6185 23.0078 82.9102 23.0078H83.1836L85.7539 22.8164L85.8633 21.1211L83.4297 21.2852L82.9102 21.3125C82.3815 21.3125 82.026 21.1484 81.8438 20.8203C81.6615 20.474 81.5703 20.1914 81.5703 19.9727C81.5703 19.8815 81.6159 19.8359 81.707 19.8359L81.8711 19.8633C82.1445 19.918 82.4362 19.9453 82.7461 19.9453H83.0469L86.2461 19.6992H86.4648C86.6836 19.6992 86.9388 19.7812 87.2305 19.9453C87.5404 20.1094 87.6953 20.319 87.6953 20.5742C87.6953 20.6471 87.6771 20.7292 87.6406 20.8203C87.6224 20.8932 87.6133 20.9661 87.6133 21.0391L86.8477 28.7773L88.6797 28.6953L89.1992 28.668C89.4544 28.668 89.7005 28.7773 89.9375 28.9961C90.1927 29.1966 90.3203 29.4062 90.3203 29.625C90.3203 29.7708 90.2565 29.8984 90.1289 30.0078C90.0195 30.1172 89.9557 30.1901 89.9375 30.2266C88.9531 31.4844 88.1602 32.3503 87.5586 32.8242C86.957 33.2982 86.5469 33.5352 86.3281 33.5352C86.1823 33.5352 86.1094 33.4622 86.1094 33.3164C86.1094 33.1159 86.2279 32.8698 86.4648 32.5781C87.194 31.7031 87.7409 30.8555 88.1055 30.0352L69.457 30.9375ZM66.9961 36.8984C66.9961 36.7891 67.0599 36.7344 67.1875 36.7344L67.3242 36.7617C67.8711 36.8711 68.3724 36.9258 68.8281 36.9258H69.1836L78.0977 36.5703C77.9154 36.151 77.7148 35.7956 77.4961 35.5039C77.3685 35.3034 77.3047 35.1576 77.3047 35.0664C77.3047 34.8841 77.4323 34.7292 77.6875 34.6016C77.9609 34.474 78.1706 34.4102 78.3164 34.4102C78.5534 34.4102 78.7721 34.5833 78.9727 34.9297C79.6654 34.638 80.2396 34.3646 80.6953 34.1094C81.1693 33.8359 81.6341 33.526 82.0898 33.1797L74.6797 33.6719C74.4427 33.6901 74.1602 33.6992 73.832 33.6992C73.3945 33.6992 73.0482 33.599 72.793 33.3984C72.5378 33.1797 72.319 32.8971 72.1367 32.5508C72.082 32.4596 72.0547 32.3867 72.0547 32.332C72.0547 32.2044 72.1458 32.1406 72.3281 32.1406C72.401 32.1406 72.4648 32.1497 72.5195 32.168C72.8112 32.2591 73.2214 32.3047 73.75 32.3047H74.1328L82.7734 31.8125L83.293 31.7852C83.5482 31.7852 83.776 31.8581 83.9766 32.0039C84.1953 32.1315 84.3594 32.2865 84.4688 32.4688C84.5964 32.6328 84.6602 32.7513 84.6602 32.8242C84.6602 32.9883 84.569 33.125 84.3867 33.2344C84.2044 33.3255 84.0951 33.3802 84.0586 33.3984C83.3112 33.9635 82.6003 34.4375 81.9258 34.8203C81.2513 35.1849 80.4583 35.5768 79.5469 35.9961L79.7383 36.4883L86.8477 36.2148C87.5586 36.1966 88.2057 36.1055 88.7891 35.9414C88.8438 35.9232 88.9349 35.9141 89.0625 35.9141C89.3177 35.9141 89.5638 36.0052 89.8008 36.1875C90.0378 36.3516 90.2292 36.543 90.375 36.7617C90.5391 36.9622 90.6211 37.099 90.6211 37.1719C90.6211 37.3906 90.457 37.5182 90.1289 37.5547L80.0938 37.9375C80.2214 38.5938 80.2943 39.2591 80.3125 39.9336L80.3398 40.6719C80.3398 41.8932 80.1576 42.7135 79.793 43.1328C79.4466 43.5521 79.0547 43.7617 78.6172 43.7617C78.2344 43.7617 77.6328 43.5521 76.8125 43.1328C75.9922 42.7318 75.2357 42.2852 74.543 41.793C73.8685 41.3008 73.5312 40.9453 73.5312 40.7266C73.5312 40.6354 73.6133 40.5898 73.7773 40.5898C73.9414 40.5898 74.1875 40.6445 74.5156 40.7539C75.1172 40.9909 75.8555 41.237 76.7305 41.4922C77.6055 41.7474 78.1432 41.875 78.3438 41.875C78.4349 41.875 78.5078 41.8203 78.5625 41.7109L78.5898 41.5742C78.6445 41.0456 78.6719 40.5169 78.6719 39.9883C78.6719 39.2773 78.6172 38.612 78.5078 37.9922L69.457 38.3203L68.6641 38.3477C68.1719 38.3477 67.7982 38.2109 67.543 37.9375C67.2878 37.6458 67.1146 37.3542 67.0234 37.0625C67.0052 37.026 66.9961 36.9714 66.9961 36.8984ZM75.2539 28.9688C75.2539 28.8047 75.4818 28.5495 75.9375 28.2031C76.6849 27.638 77.2682 27.0911 77.6875 26.5625C76.9948 26.0521 76.5117 25.724 76.2383 25.5781C76.0013 25.4505 75.8828 25.3229 75.8828 25.1953C75.8828 25.0495 75.9557 24.8854 76.1016 24.7031C76.2474 24.5208 76.375 24.4297 76.4844 24.4297C76.6484 24.4297 77.3411 24.8216 78.5625 25.6055C79.0911 24.9857 79.401 24.4297 79.4922 23.9375C79.5286 23.7917 79.6198 23.7188 79.7656 23.7188C79.9661 23.7188 80.2214 23.8464 80.5312 24.1016C80.8594 24.3385 81.0234 24.5664 81.0234 24.7852C81.0234 24.9128 80.8411 25.168 80.4766 25.5508C80.112 25.9336 79.8568 26.1888 79.7109 26.3164C79.9844 26.4805 80.3307 26.7174 80.75 27.0273C81.1875 27.3372 81.4062 27.5833 81.4062 27.7656C81.4062 27.9297 81.3151 28.1302 81.1328 28.3672C80.9688 28.6042 80.8047 28.7227 80.6406 28.7227C80.4948 28.7227 80.3216 28.6406 80.1211 28.4766L79.6289 28.0664C79.3008 27.7565 78.9727 27.4831 78.6445 27.2461C77.0404 28.4857 75.974 29.1055 75.4453 29.1055C75.3177 29.1055 75.2539 29.0599 75.2539 28.9688ZM75.4727 24.1016C75.4727 23.9193 75.6641 23.6732 76.0469 23.3633C76.6484 22.8711 77.2135 22.3333 77.7422 21.75C76.849 21.1484 76.293 20.7839 76.0742 20.6562C75.8737 20.5286 75.7734 20.3919 75.7734 20.2461C75.7734 20.1367 75.8281 20 75.9375 19.8359C76.1016 19.6172 76.2565 19.5078 76.4023 19.5078C76.694 19.5078 77.4414 19.918 78.6445 20.7383C78.7357 20.6471 78.8815 20.4375 79.082 20.1094C79.3008 19.7812 79.474 19.4258 79.6016 19.043C79.6562 18.8971 79.7565 18.8242 79.9023 18.8242C80.1029 18.8242 80.349 18.9609 80.6406 19.2344C80.9323 19.4896 81.0781 19.7357 81.0781 19.9727C81.0781 20.1003 81.0417 20.2005 80.9688 20.2734C80.9688 20.2734 80.7865 20.4557 80.4219 20.8203C80.0026 21.2396 79.793 21.4492 79.793 21.4492C80.3945 21.8685 80.7773 22.1693 80.9414 22.3516C81.1237 22.5156 81.2148 22.6523 81.2148 22.7617C81.2148 22.8893 81.1237 23.0807 80.9414 23.3359C80.7773 23.5729 80.6224 23.6914 80.4766 23.6914C80.3125 23.6914 80.1393 23.6003 79.957 23.418C79.5013 23.0169 79.0729 22.6706 78.6719 22.3789C77.1224 23.6185 76.1198 24.2383 75.6641 24.2383C75.5365 24.2383 75.4727 24.1927 75.4727 24.1016Z" fill="#333333"/>
<path d="M139.266 30.4727C139.12 30.4727 138.974 30.4453 138.828 30.3906C138.682 30.3177 138.573 30.2083 138.5 30.0625C138.445 29.8984 138.327 29.707 138.145 29.4883C137.98 29.2695 137.816 29.1055 137.652 28.9961L137.762 28.8594C137.853 28.9141 138.072 29.0234 138.418 29.1875C138.764 29.3516 139.02 29.4336 139.184 29.4336C139.439 29.4336 139.667 29.3424 139.867 29.1602C140.068 28.9779 140.323 28.6315 140.633 28.1211C140.852 27.7747 141.052 27.3646 141.234 26.8906C141.417 26.4167 141.553 25.9792 141.645 25.5781L141.672 25.5234C141.672 25.4688 141.654 25.4232 141.617 25.3867C141.581 25.332 141.544 25.3047 141.508 25.3047L140.25 25.4141C139.411 25.5599 138.536 25.6784 137.625 25.7695C137.461 25.7878 137.27 25.8333 137.051 25.9062C136.832 25.9792 136.677 26.0156 136.586 26.0156C136.44 26.0156 136.249 25.8971 136.012 25.6602C135.921 25.5872 135.829 25.4961 135.738 25.3867C135.665 25.2773 135.647 25.1862 135.684 25.1133C135.829 24.9674 135.902 24.8945 135.902 24.8945L136.039 24.7852C136.294 24.5299 136.549 24.1927 136.805 23.7734C136.987 23.5182 137.178 23.0898 137.379 22.4883C137.379 22.2878 137.424 22.1875 137.516 22.1875C137.57 22.1875 137.661 22.224 137.789 22.2969L138.227 22.5703C138.336 22.6615 138.409 22.7344 138.445 22.7891C138.482 22.8438 138.5 22.9167 138.5 23.0078C138.5 23.1172 138.427 23.2539 138.281 23.418C138.135 23.5638 138.008 23.7096 137.898 23.8555L137.27 24.7578L137.215 24.8672C137.215 24.9219 137.288 24.9492 137.434 24.9492L139.539 24.6758L140.961 24.5664L141.508 24.5117L141.809 24.457H141.891C142.073 24.457 142.273 24.612 142.492 24.9219C142.747 25.1589 142.875 25.3594 142.875 25.5234L142.738 25.8789C142.72 25.9154 142.574 26.3438 142.301 27.1641C141.973 27.9479 141.69 28.5404 141.453 28.9414C141.216 29.3424 140.961 29.6523 140.688 29.8711C140.195 30.2721 139.721 30.4727 139.266 30.4727ZM142.164 39.4414C141.891 39.4414 141.626 39.2409 141.371 38.8398C141.043 38.3294 140.724 37.9102 140.414 37.582L139.703 36.8438C139.32 37.2812 138.983 37.6276 138.691 37.8828C138.418 38.138 138.072 38.3841 137.652 38.6211C136.868 39.0768 136.212 39.3047 135.684 39.3047C135.556 39.3047 135.492 39.2591 135.492 39.168C135.492 39.1133 135.665 38.9948 136.012 38.8125C136.358 38.6302 136.686 38.4115 136.996 38.1562C137.78 37.5 138.427 36.8255 138.938 36.1328C138.828 36.0234 138.281 35.5495 137.297 34.7109C137.169 34.6198 136.978 34.4648 136.723 34.2461C136.668 34.2096 136.559 34.1276 136.395 34C136.23 33.8724 136.148 33.7812 136.148 33.7266C136.148 33.6354 136.194 33.5898 136.285 33.5898C136.559 33.5898 136.996 33.7812 137.598 34.1641C138.199 34.5286 138.828 34.9661 139.484 35.4766C139.74 35.1667 139.94 34.875 140.086 34.6016C140.232 34.3281 140.396 33.9909 140.578 33.5898C140.669 33.3893 140.724 33.2161 140.742 33.0703C140.76 32.9062 140.77 32.806 140.77 32.7695C140.77 32.569 140.824 32.4688 140.934 32.4688C141.061 32.4688 141.234 32.569 141.453 32.7695C141.836 33.1341 142.027 33.3802 142.027 33.5078C142.027 33.5807 141.982 33.6628 141.891 33.7539C141.672 33.9727 141.471 34.2643 141.289 34.6289C141.18 34.8477 140.979 35.1576 140.688 35.5586C140.596 35.668 140.523 35.7682 140.469 35.8594C140.414 35.9505 140.359 36.0326 140.305 36.1055C140.724 36.4154 141.344 36.944 142.164 37.6914C142.365 37.8737 142.492 38.0469 142.547 38.2109C142.62 38.3568 142.656 38.5573 142.656 38.8125C142.656 38.9948 142.611 39.1497 142.52 39.2773C142.428 39.3867 142.31 39.4414 142.164 39.4414ZM144.242 29.8164C144.333 29.8164 144.47 29.8802 144.652 30.0078C144.634 30.0443 144.671 30.1172 144.762 30.2266C144.853 30.3177 144.917 30.3815 144.953 30.418C145.044 30.5091 145.135 30.6185 145.227 30.7461C145.336 30.8737 145.454 31.0104 145.582 31.1562C145.91 31.5026 146.667 32.4049 147.852 33.8633C148.052 34.1549 148.152 34.3281 148.152 34.3828C148.152 34.5651 148.043 34.6562 147.824 34.6562C147.697 34.6562 147.56 34.5651 147.414 34.3828C147.068 34.0182 146.448 33.444 145.555 32.6602C144.862 32.0221 144.233 31.5299 143.668 31.1836C143.395 31.056 143.258 30.9102 143.258 30.7461C143.258 30.6185 143.395 30.4362 143.668 30.1992C143.923 29.944 144.115 29.8164 144.242 29.8164ZM123.379 42.1211C123.507 41.2643 123.57 40.4167 123.57 39.5781L123.625 24.0195C123.625 23.2357 123.607 22.6615 123.57 22.2969C123.552 21.9323 123.47 21.5859 123.324 21.2578C123.197 20.9297 123.133 20.7201 123.133 20.6289C123.133 20.5013 123.206 20.4375 123.352 20.4375C123.589 20.4375 124.272 20.6654 125.402 21.1211L130.543 20.7656H130.762C131.09 20.7656 131.4 20.8477 131.691 21.0117C131.983 21.1758 132.129 21.3672 132.129 21.5859C132.129 21.7135 132.074 21.8503 131.965 21.9961C131.855 22.1237 131.783 22.2148 131.746 22.2695C130.889 23.9831 129.887 25.6875 128.738 27.3828C128.665 27.4922 128.629 27.5833 128.629 27.6562C128.629 27.8021 128.72 27.9388 128.902 28.0664C129.905 28.9596 130.734 29.8984 131.391 30.8828C132.065 31.849 132.402 33.0156 132.402 34.3828C132.402 35.2396 132.266 35.9779 131.992 36.5977C131.719 37.2174 131.327 37.5273 130.816 37.5273C130.397 37.5273 129.768 37.3086 128.93 36.8711C128.091 36.4336 127.326 35.9505 126.633 35.4219C125.958 34.8932 125.621 34.5195 125.621 34.3008C125.621 34.1732 125.712 34.1094 125.895 34.1094C126.059 34.1094 126.314 34.1823 126.66 34.3281C127.681 34.7839 128.839 35.1758 130.133 35.5039C130.169 35.5221 130.233 35.5312 130.324 35.5312C130.452 35.5312 130.543 35.3763 130.598 35.0664C130.671 34.7565 130.707 34.4648 130.707 34.1914C130.707 33.7174 130.57 33.0885 130.297 32.3047C130.042 31.6302 129.677 31.0195 129.203 30.4727C128.729 29.9076 128.091 29.2786 127.289 28.5859C127.016 28.3307 126.879 28.0755 126.879 27.8203C126.879 27.5833 126.988 27.3008 127.207 26.9727C128.283 25.3867 129.203 23.8008 129.969 22.2148L125.266 22.4883V42.9688C125.266 43.3516 125.12 43.543 124.828 43.543C124.591 43.543 124.29 43.4245 123.926 43.1875C123.561 42.9505 123.379 42.668 123.379 42.3398V42.1211ZM107.902 30.2539C107.902 30.1445 107.957 30.0898 108.066 30.0898C108.139 30.0898 108.203 30.099 108.258 30.1172C108.586 30.2083 108.932 30.2539 109.297 30.2539H109.516L116.105 29.9531C116.762 28.7135 117.208 27.7747 117.445 27.1367C117.701 26.4987 117.828 25.9336 117.828 25.4414V25.25L117.801 25.0312C117.801 24.8307 117.883 24.7305 118.047 24.7305C118.284 24.7305 118.73 24.9766 119.387 25.4688C119.624 25.6875 119.742 25.888 119.742 26.0703C119.742 26.125 119.724 26.1888 119.688 26.2617C119.013 27.6289 118.329 28.832 117.637 29.8711L120.398 29.7344C120.544 29.7344 120.745 29.7161 121 29.6797C121.255 29.625 121.492 29.5703 121.711 29.5156C121.747 29.4974 121.802 29.4883 121.875 29.4883C121.984 29.4883 122.148 29.5521 122.367 29.6797C122.586 29.7891 122.786 29.9349 122.969 30.1172C123.151 30.2812 123.242 30.4544 123.242 30.6367C123.242 30.7643 123.178 30.8737 123.051 30.9648C122.941 31.0378 122.786 31.0833 122.586 31.1016L110.008 31.7305H109.543C109.051 31.7305 108.732 31.6576 108.586 31.5117C108.44 31.3294 108.285 31.1107 108.121 30.8555C107.975 30.582 107.902 30.3815 107.902 30.2539ZM109.215 23.5C109.215 23.3542 109.279 23.2812 109.406 23.2812L109.57 23.3086C109.971 23.418 110.318 23.4727 110.609 23.4727H110.773L116.57 23.1172L116.379 22.9258C115.486 22.069 114.592 21.3398 113.699 20.7383C113.48 20.5742 113.371 20.4193 113.371 20.2734C113.389 20.1276 113.48 19.9544 113.645 19.7539C113.809 19.5352 113.964 19.4349 114.109 19.4531C114.201 19.4531 114.574 19.6628 115.23 20.082C115.905 20.4831 116.516 20.9023 117.062 21.3398C117.628 21.7773 117.901 22.1055 117.883 22.3242C117.883 22.3789 117.837 22.4883 117.746 22.6523C117.655 22.8164 117.555 22.9531 117.445 23.0625L119.305 22.9531C119.651 22.9167 119.961 22.862 120.234 22.7891C120.289 22.7708 120.362 22.7617 120.453 22.7617C120.654 22.7617 120.927 22.8984 121.273 23.1719C121.638 23.4453 121.82 23.7096 121.82 23.9648C121.82 24.1654 121.629 24.2839 121.246 24.3203L111.211 24.9219L110.637 24.9492C110.199 24.9492 109.862 24.8125 109.625 24.5391C109.406 24.2474 109.27 23.901 109.215 23.5ZM110.664 33.6992C110.664 33.5534 110.755 33.4805 110.938 33.4805C111.211 33.4805 111.84 33.681 112.824 34.082L119.086 33.7812H119.223C119.587 33.7812 119.897 33.8815 120.152 34.082C120.408 34.2826 120.535 34.4922 120.535 34.7109C120.535 34.7839 120.499 34.8932 120.426 35.0391C120.353 35.1849 120.316 35.2943 120.316 35.3672L119.715 39.6875C120.152 40.1979 120.371 40.5625 120.371 40.7812C120.371 41.0182 120.143 41.1367 119.688 41.1367L113.207 41.2734L113.289 42.3125V42.4219C113.289 42.8047 113.152 42.9961 112.879 42.9961C112.605 42.9961 112.296 42.8867 111.949 42.668C111.603 42.4674 111.43 42.2122 111.43 41.9023L111.457 41.6836C111.512 41.2461 111.539 40.8906 111.539 40.6172C111.539 40.3984 111.53 40.2344 111.512 40.125L111.129 35.6133C111.056 34.9935 110.956 34.5195 110.828 34.1914C110.719 33.8997 110.664 33.7357 110.664 33.6992ZM111.43 25.9062C111.43 25.7422 111.557 25.569 111.812 25.3867C112.013 25.2773 112.168 25.2227 112.277 25.2227C112.46 25.2227 112.624 25.3229 112.77 25.5234C113.225 26.1615 113.654 26.8724 114.055 27.6562C114.456 28.4401 114.656 28.9141 114.656 29.0781C114.656 29.2786 114.529 29.4609 114.273 29.625C114.018 29.7708 113.781 29.8438 113.562 29.8438C113.435 29.8438 113.326 29.7982 113.234 29.707C113.161 29.6159 113.089 29.4609 113.016 29.2422C112.596 28.1484 112.113 27.1641 111.566 26.2891C111.475 26.1432 111.43 26.0156 111.43 25.9062ZM113.098 39.7695L118.102 39.6602L118.539 35.2852L112.797 35.5312L113.098 39.7695Z" fill="#333333"/>
<path d="M181.293 30.6367C181.038 30.6367 180.846 30.5547 180.719 30.3906C180.555 30.0807 180.217 29.7435 179.707 29.3789L179.762 29.2422C180.327 29.4792 180.801 29.5977 181.184 29.5977C181.421 29.5977 181.621 29.4609 181.785 29.1875C181.967 28.8958 182.159 28.4766 182.359 27.9297C182.596 27.2552 182.724 26.6901 182.742 26.2344C182.742 26.1797 182.715 26.1341 182.66 26.0977C182.605 26.043 182.56 26.0156 182.523 26.0156C182.359 25.9974 182.049 26.0247 181.594 26.0977L181.02 26.1797C180.855 26.1979 180.664 26.2344 180.445 26.2891C180.245 26.3438 180.081 26.3802 179.953 26.3984C179.88 26.4167 179.762 26.4531 179.598 26.5078C179.434 26.5625 179.315 26.5898 179.242 26.5898C179.151 26.5898 179.042 26.5443 178.914 26.4531C178.805 26.3438 178.704 26.2253 178.613 26.0977C178.595 26.0794 178.586 26.043 178.586 25.9883C178.586 25.9154 178.641 25.8242 178.75 25.7148C178.878 25.5872 178.978 25.487 179.051 25.4141C179.142 25.3047 179.233 25.1771 179.324 25.0312C179.415 24.8672 179.488 24.7487 179.543 24.6758C179.634 24.5299 179.707 24.3568 179.762 24.1562L179.816 23.9102C179.816 23.8919 179.807 23.8464 179.789 23.7734C179.771 23.6823 179.734 23.6367 179.68 23.6367C178.951 23.7279 178.413 23.8372 178.066 23.9648C177.993 24.0013 177.884 24.0378 177.738 24.0742C177.611 24.0742 177.501 24.0195 177.41 23.9102C177.355 23.8919 177.246 23.7461 177.082 23.4727C177.009 23.3997 176.973 23.3359 176.973 23.2812C176.973 23.1536 177.164 23.0807 177.547 23.0625L178.066 23.0078C178.158 23.0078 178.349 22.9896 178.641 22.9531C179.224 22.8984 180.035 22.8346 181.074 22.7617C181.439 22.7435 182.068 22.6979 182.961 22.625C183.216 22.6068 183.526 22.5703 183.891 22.5156C184.091 22.4609 184.219 22.4336 184.273 22.4336C184.365 22.4336 184.456 22.4701 184.547 22.543C184.638 22.5794 184.757 22.6523 184.902 22.7617C185.048 22.8529 185.158 22.9531 185.23 23.0625C185.303 23.1536 185.34 23.2448 185.34 23.3359C185.34 23.4271 185.294 23.4909 185.203 23.5273C185.112 23.5638 184.993 23.5638 184.848 23.5273C184.629 23.4727 184.374 23.4362 184.082 23.418C183.809 23.3997 183.645 23.3906 183.59 23.3906C182.97 23.3724 182.195 23.3997 181.266 23.4727C181.01 23.5091 180.819 23.5273 180.691 23.5273C180.801 23.6185 180.901 23.7643 180.992 23.9648V24.0195C180.992 24.0742 180.965 24.1471 180.91 24.2383C180.855 24.3294 180.792 24.3932 180.719 24.4297C180.628 24.4844 180.518 24.612 180.391 24.8125C180.263 25.013 180.181 25.1406 180.145 25.1953C180.035 25.3411 179.98 25.4596 179.98 25.5508C179.98 25.6237 180.053 25.651 180.199 25.6328C180.327 25.6146 180.591 25.5781 180.992 25.5234C181.411 25.4505 181.721 25.3867 181.922 25.332C181.977 25.3138 182.059 25.2956 182.168 25.2773C182.296 25.2591 182.441 25.2227 182.605 25.168C182.733 25.1497 182.861 25.1771 182.988 25.25C183.134 25.3229 183.353 25.4779 183.645 25.7148C183.863 25.8789 183.973 26.0247 183.973 26.1523C183.973 26.2435 183.936 26.3346 183.863 26.4258C183.79 26.5534 183.736 26.7266 183.699 26.9453C183.535 27.7109 183.344 28.3307 183.125 28.8047C182.961 29.1328 182.806 29.4062 182.66 29.625C182.514 29.8255 182.332 30.026 182.113 30.2266C181.876 30.5 181.603 30.6367 181.293 30.6367ZM181.484 40.1797C180.609 40.1797 179.88 39.9609 179.297 39.5234C178.695 39.0312 178.395 38.457 178.395 37.8008C178.395 37.2904 178.586 36.8438 178.969 36.4609C179.461 36.0417 180.081 35.832 180.828 35.832C180.865 35.832 180.892 35.7956 180.91 35.7227C180.947 35.6315 180.965 35.513 180.965 35.3672L180.992 34.6562C180.865 34.6745 180.618 34.7018 180.254 34.7383C179.908 34.7747 179.652 34.8112 179.488 34.8477C179.579 34.8294 179.297 34.8932 178.641 35.0391C178.586 35.0573 178.486 35.0664 178.34 35.0664C177.993 35.0664 177.702 34.9115 177.465 34.6016C177.355 34.4922 177.301 34.401 177.301 34.3281C177.301 34.2188 177.465 34.1641 177.793 34.1641L178.641 34.1094L180.965 33.8086V33.4805V32.7969C180.947 32.724 180.938 32.6419 180.938 32.5508C180.938 32.4596 180.928 32.3867 180.91 32.332C180.874 32.1862 180.855 32.0951 180.855 32.0586C180.855 31.931 180.919 31.8672 181.047 31.8672C181.211 31.8672 181.493 31.9857 181.895 32.2227C182.022 32.2956 182.086 32.3958 182.086 32.5234C182.086 32.6146 182.068 32.6966 182.031 32.7695C182.013 32.8242 182.004 32.888 182.004 32.9609V33.7266L182.824 33.6445L183.836 33.5352C183.927 33.5169 184.027 33.4896 184.137 33.4531C184.264 33.4167 184.365 33.3984 184.438 33.3984C184.547 33.3984 184.684 33.4531 184.848 33.5625C185.158 33.763 185.312 33.9362 185.312 34.082C185.312 34.2279 185.158 34.3008 184.848 34.3008C184.757 34.3008 184.629 34.319 184.465 34.3555C184.301 34.3737 184.091 34.3919 183.836 34.4102L182.004 34.5469L181.977 36.2148C181.94 36.4883 181.74 36.6615 181.375 36.7344H181.32C181.211 36.7344 181.102 36.7253 180.992 36.707C180.901 36.6706 180.828 36.6523 180.773 36.6523C180.628 36.6523 180.482 36.6615 180.336 36.6797C180.19 36.6979 180.062 36.7526 179.953 36.8438C179.643 37.1172 179.488 37.4362 179.488 37.8008C179.488 38.1654 179.661 38.4935 180.008 38.7852C180.318 39.0768 180.81 39.2227 181.484 39.2227C182.378 39.1862 183.107 38.9401 183.672 38.4844C183.909 38.3203 184.091 38.2383 184.219 38.2383C184.292 38.2383 184.383 38.2565 184.492 38.293C184.51 38.3112 184.547 38.3477 184.602 38.4023C184.656 38.457 184.684 38.5117 184.684 38.5664C184.684 39.0768 184.255 39.4961 183.398 39.8242C182.76 40.0612 182.122 40.1797 181.484 40.1797ZM186.242 29.8164C186.333 29.8164 186.47 29.8802 186.652 30.0078C186.634 30.0443 186.671 30.1172 186.762 30.2266C186.853 30.3177 186.917 30.3815 186.953 30.418C187.044 30.5091 187.135 30.6185 187.227 30.7461C187.336 30.8737 187.454 31.0104 187.582 31.1562C187.91 31.5026 188.667 32.4049 189.852 33.8633C190.052 34.1549 190.152 34.3281 190.152 34.3828C190.152 34.5651 190.043 34.6562 189.824 34.6562C189.697 34.6562 189.56 34.5651 189.414 34.3828C189.068 34.0182 188.448 33.444 187.555 32.6602C186.862 32.0221 186.233 31.5299 185.668 31.1836C185.395 31.056 185.258 30.9102 185.258 30.7461C185.258 30.6185 185.395 30.4362 185.668 30.1992C185.923 29.944 186.115 29.8164 186.242 29.8164ZM166.336 42.5312C166.445 41.5104 166.5 40.5898 166.5 39.7695V36.2148C166.5 35.8867 166.536 35.2578 166.609 34.3281C166.263 35.2943 165.589 36.3607 164.586 37.5273C163.583 38.694 162.544 39.7057 161.469 40.5625C160.411 41.401 159.701 41.8203 159.336 41.8203C159.208 41.8203 159.145 41.7656 159.145 41.6562C159.145 41.5104 159.281 41.3099 159.555 41.0547C161.906 38.9036 163.902 36.3607 165.543 33.4258L161.961 33.5898H161.578C161.323 33.5898 161.132 33.5807 161.004 33.5625C160.876 33.526 160.776 33.4714 160.703 33.3984C160.521 33.2526 160.348 33.043 160.184 32.7695C160.038 32.4961 159.965 32.2956 159.965 32.168C159.965 32.0404 160.047 31.9766 160.211 31.9766L160.32 32.0039C160.721 32.0951 161.104 32.1406 161.469 32.1406H161.715L166.473 31.9492V29.7344L163.629 29.8711L163.656 30.2266V30.3086C163.656 30.6914 163.501 30.8828 163.191 30.8828C162.954 30.8828 162.672 30.7917 162.344 30.6094C162.016 30.4089 161.852 30.1536 161.852 29.8438L161.879 29.4336C161.915 29.0326 161.934 28.7044 161.934 28.4492C161.934 28.2122 161.924 28.0299 161.906 27.9023L161.496 22.8164C161.441 22.1055 161.314 21.5039 161.113 21.0117C161.059 20.8477 161.031 20.7201 161.031 20.6289C161.031 20.5013 161.113 20.4375 161.277 20.4375C161.605 20.4375 162.216 20.6289 163.109 21.0117L171.941 20.4102H172.105C172.561 20.4102 172.908 20.5286 173.145 20.7656C173.382 20.9844 173.5 21.1758 173.5 21.3398C173.5 21.431 173.464 21.5495 173.391 21.6953C173.318 21.8229 173.281 21.9141 173.281 21.9688L172.57 28.0391C173.099 28.5677 173.363 28.9323 173.363 29.1328C173.363 29.2422 173.309 29.3151 173.199 29.3516C173.108 29.388 172.962 29.4154 172.762 29.4336L168.113 29.6523V31.8672L172.543 31.6758C173.053 31.6393 173.445 31.5664 173.719 31.457C173.828 31.4206 173.919 31.4023 173.992 31.4023C174.229 31.4023 174.512 31.5391 174.84 31.8125C175.186 32.0859 175.359 32.3411 175.359 32.5781C175.359 32.8516 175.159 33.0065 174.758 33.043L168.797 33.2891L169.562 34.1094C170.857 35.513 171.923 36.6159 172.762 37.418C173.618 38.2018 174.63 38.9583 175.797 39.6875C175.943 39.7786 176.016 39.8698 176.016 39.9609C176.016 39.9974 175.97 40.0794 175.879 40.207C175.387 40.7539 175.004 41.0273 174.73 41.0273C174.548 41.0273 174.038 40.6719 173.199 39.9609C172.361 39.2318 171.449 38.3477 170.465 37.3086C169.499 36.2695 168.688 35.2578 168.031 34.2734C168.104 35.112 168.141 35.7227 168.141 36.1055L168.168 43.2422C168.168 43.6068 168.004 43.7891 167.676 43.7891C167.421 43.7891 167.129 43.6797 166.801 43.4609C166.491 43.2422 166.336 42.987 166.336 42.6953V42.5312ZM149.82 24.4844C149.82 24.375 149.875 24.3203 149.984 24.3203C150.057 24.3203 150.121 24.3294 150.176 24.3477C150.449 24.4206 150.741 24.457 151.051 24.457L151.516 24.4297L158.188 24.0742C158.716 23.9831 159.081 23.901 159.281 23.8281C159.391 23.7917 159.473 23.7734 159.527 23.7734C159.71 23.7734 159.91 23.8555 160.129 24.0195C160.366 24.1836 160.566 24.3659 160.73 24.5664C160.913 24.7669 161.004 24.9128 161.004 25.0039C161.004 25.2227 160.794 25.3503 160.375 25.3867L152.062 25.9062C151.862 25.9245 151.625 25.9336 151.352 25.9336C151.005 25.9336 150.777 25.888 150.668 25.7969C150.34 25.5052 150.112 25.2409 149.984 25.0039C149.875 24.7487 149.82 24.5755 149.82 24.4844ZM151.516 34.4102C151.516 34.3008 151.589 34.2461 151.734 34.2461C152.026 34.2461 152.664 34.4284 153.648 34.793L157.777 34.6016L158.051 34.5742C158.288 34.5742 158.543 34.7018 158.816 34.957C159.09 35.194 159.227 35.4128 159.227 35.6133C159.227 35.7044 159.199 35.7956 159.145 35.8867C159.108 35.9779 159.081 36.0599 159.062 36.1328L158.598 39.7422C158.999 40.2891 159.199 40.6719 159.199 40.8906C159.199 41.0182 159.145 41.1003 159.035 41.1367C158.926 41.1732 158.743 41.2005 158.488 41.2188L154.031 41.3555L154.059 41.875V41.957C154.059 42.3581 153.895 42.5586 153.566 42.5586C153.311 42.5586 153.038 42.4583 152.746 42.2578C152.454 42.0573 152.309 41.8112 152.309 41.5195V41.3281C152.345 40.8906 152.363 40.5625 152.363 40.3438V39.9883L152.09 36.3789C152.035 35.7227 151.908 35.2305 151.707 34.9023C151.579 34.6471 151.516 34.4831 151.516 34.4102ZM151.789 27.957C151.789 27.8659 151.826 27.8203 151.898 27.8203C151.971 27.8203 152.026 27.8294 152.062 27.8477C152.391 27.9023 152.719 27.9297 153.047 27.9297H153.348L157.039 27.7109C157.404 27.6745 157.723 27.6016 157.996 27.4922C158.105 27.4557 158.188 27.4375 158.242 27.4375C158.424 27.4375 158.68 27.5924 159.008 27.9023C159.354 28.194 159.527 28.4401 159.527 28.6406C159.527 28.75 159.473 28.8411 159.363 28.9141C159.254 28.987 159.108 29.0326 158.926 29.0508L153.895 29.3789C153.749 29.3971 153.548 29.4062 153.293 29.4062C152.91 29.4062 152.609 29.306 152.391 29.1055C152.172 28.9049 152.017 28.6953 151.926 28.4766C151.835 28.2396 151.789 28.0664 151.789 27.957ZM151.844 31.293C151.844 31.2018 151.889 31.1562 151.98 31.1562L152.117 31.1836C152.409 31.2565 152.737 31.293 153.102 31.293H153.402L156.93 31.1289C157.221 31.1107 157.549 31.0378 157.914 30.9102C158.023 30.8737 158.105 30.8555 158.16 30.8555C158.379 30.8555 158.643 31.0104 158.953 31.3203C159.263 31.612 159.418 31.8581 159.418 32.0586C159.418 32.2956 159.227 32.4323 158.844 32.4688L153.949 32.7422L153.348 32.7695C153.038 32.7695 152.764 32.6875 152.527 32.5234C152.29 32.3594 152.072 32.0039 151.871 31.457C151.853 31.4206 151.844 31.3659 151.844 31.293ZM152.527 20.5195C152.527 20.3008 152.6 20.1003 152.746 19.918C152.91 19.7357 153.074 19.6445 153.238 19.6445C153.348 19.6445 153.512 19.6901 153.73 19.7812C155.025 20.3099 155.973 20.7292 156.574 21.0391C157.194 21.3307 157.577 21.5495 157.723 21.6953C157.887 21.8229 157.969 21.9505 157.969 22.0781C157.969 22.2422 157.887 22.4792 157.723 22.7891C157.559 23.099 157.349 23.2539 157.094 23.2539C156.966 23.2539 156.784 23.181 156.547 23.0352C155.326 22.2148 154.186 21.5677 153.129 21.0938C152.91 21.0026 152.755 20.9206 152.664 20.8477C152.573 20.7565 152.527 20.6471 152.527 20.5195ZM153.922 39.9336L157.094 39.8242L157.395 36.1055L153.648 36.2422L153.922 39.9336ZM163.273 24.6484L166.445 24.457V22.1875L163.109 22.4062L163.273 24.6484ZM163.547 28.4492L166.473 28.2852L166.445 25.8516L163.355 26.0156L163.547 28.4492ZM171.285 24.1836L171.504 21.8867L168.086 22.1055V24.375L171.285 24.1836ZM170.957 28.0664L171.176 25.5781L168.113 25.7422V28.2031L170.957 28.0664Z" fill="#333333"/>
<path d="M226.164 29.8711C225.891 29.8711 225.626 29.6706 225.371 29.2695C225.043 28.7591 224.724 28.3398 224.414 28.0117L223.703 27.2734C223.32 27.7109 222.983 28.0573 222.691 28.3125C222.418 28.5677 222.072 28.8138 221.652 29.0508C220.868 29.5065 220.212 29.7344 219.684 29.7344C219.556 29.7344 219.492 29.6888 219.492 29.5977C219.492 29.543 219.665 29.4245 220.012 29.2422C220.358 29.0599 220.686 28.8411 220.996 28.5859C221.78 27.9297 222.427 27.2552 222.938 26.5625C222.828 26.4531 222.281 25.9792 221.297 25.1406C221.169 25.0495 220.978 24.8945 220.723 24.6758C220.668 24.6393 220.559 24.5573 220.395 24.4297C220.23 24.3021 220.148 24.2109 220.148 24.1562C220.148 24.0651 220.194 24.0195 220.285 24.0195C220.559 24.0195 220.996 24.2109 221.598 24.5938C222.199 24.9583 222.828 25.3958 223.484 25.9062C223.74 25.5964 223.94 25.3047 224.086 25.0312C224.232 24.7578 224.396 24.4206 224.578 24.0195C224.669 23.819 224.724 23.6458 224.742 23.5C224.76 23.3359 224.77 23.2357 224.77 23.1992C224.77 22.9987 224.824 22.8984 224.934 22.8984C225.061 22.8984 225.234 22.9987 225.453 23.1992C225.836 23.5638 226.027 23.8099 226.027 23.9375C226.027 24.0104 225.982 24.0924 225.891 24.1836C225.672 24.4023 225.471 24.694 225.289 25.0586C225.18 25.2773 224.979 25.5872 224.688 25.9883C224.596 26.0977 224.523 26.1979 224.469 26.2891C224.414 26.3802 224.359 26.4622 224.305 26.5352C224.724 26.8451 225.344 27.3737 226.164 28.1211C226.365 28.3034 226.492 28.4766 226.547 28.6406C226.62 28.7865 226.656 28.987 226.656 29.2422C226.656 29.4245 226.611 29.5794 226.52 29.707C226.428 29.8164 226.31 29.8711 226.164 29.8711ZM226.656 35.1211C226.857 35.3398 226.957 35.5221 226.957 35.668C226.957 35.7956 226.884 35.9141 226.738 36.0234C226.647 36.0964 226.419 36.4974 226.055 37.2266C225.654 37.8828 225.207 38.457 224.715 38.9492C224.241 39.4232 223.767 39.7695 223.293 39.9883C223.184 40.0247 223.092 40.043 223.02 40.043C222.947 40.043 222.91 40.0247 222.91 39.9883V39.9336C222.91 39.8242 223.001 39.6966 223.184 39.5508C223.512 39.2956 223.758 39.0404 223.922 38.7852C224.104 38.5117 224.241 38.3112 224.332 38.1836C224.715 37.6367 224.988 37.1901 225.152 36.8438C225.335 36.5339 225.462 36.2148 225.535 35.8867H225.426C224.952 35.8867 224.186 35.9414 223.129 36.0508C222.965 36.069 222.491 36.1328 221.707 36.2422C221.543 36.2604 221.288 36.306 220.941 36.3789L220.613 36.4609C220.54 36.4974 220.467 36.5156 220.395 36.5156C220.303 36.5156 220.212 36.4974 220.121 36.4609C220.03 36.4062 219.939 36.3424 219.848 36.2695C219.629 36.0872 219.52 35.9323 219.52 35.8047C219.538 35.7682 219.556 35.7135 219.574 35.6406C219.611 35.5677 219.629 35.5039 219.629 35.4492L219.766 34.5469C219.784 34.4557 219.802 34.3555 219.82 34.2461C219.839 34.1367 219.848 34.0273 219.848 33.918C219.848 33.5716 219.839 33.2982 219.82 33.0977C219.82 32.8789 219.793 32.651 219.738 32.4141V32.332C219.738 32.2044 219.793 32.1406 219.902 32.1406C220.012 32.1406 220.203 32.2227 220.477 32.3867C220.841 32.6419 221.023 32.8424 221.023 32.9883C221.023 33.043 221.014 33.0885 220.996 33.125C220.978 33.1615 220.96 33.1979 220.941 33.2344C220.887 33.5625 220.859 33.7448 220.859 33.7812L220.723 35.2305C220.723 35.2669 220.741 35.3125 220.777 35.3672C220.832 35.4036 220.887 35.4219 220.941 35.4219C221.379 35.4219 222.363 35.3125 223.895 35.0938C224.496 35.0391 224.924 34.9753 225.18 34.9023C225.344 34.8841 225.48 34.8568 225.59 34.8203C225.717 34.7656 225.799 34.7383 225.836 34.7383C225.945 34.7018 226.018 34.6836 226.055 34.6836C226.219 34.6836 226.419 34.8294 226.656 35.1211ZM231.742 27.6289C231.961 27.6289 232.07 27.7292 232.07 27.9297C232.07 28.0391 231.97 28.194 231.77 28.3945C231.223 29.069 230.138 30.3542 228.516 32.25C228.388 32.4141 228.27 32.4961 228.16 32.4961C228.069 32.4961 227.868 32.3594 227.559 32.0859C227.303 31.8672 227.176 31.6849 227.176 31.5391C227.176 31.375 227.312 31.2201 227.586 31.0742C228.005 30.8372 228.634 30.3633 229.473 29.6523C230.311 28.9049 230.931 28.3125 231.332 27.875C231.496 27.7109 231.633 27.6289 231.742 27.6289ZM210.961 25.6602C210.378 27.2096 209.63 28.7865 208.719 30.3906C207.826 31.9766 206.896 33.3802 205.93 34.6016C209.247 37.7552 212.866 40.125 216.785 41.7109C217.04 41.8021 217.168 41.9115 217.168 42.0391C217.168 42.1302 217.068 42.2852 216.867 42.5039C216.685 42.7409 216.466 42.9505 216.211 43.1328C215.956 43.3151 215.728 43.4062 215.527 43.4062C215.473 43.4062 215.391 43.388 215.281 43.3516C211.49 41.5469 207.99 39.0677 204.781 35.9141C203.359 37.3906 201.801 38.6758 200.105 39.7695C198.428 40.8633 196.897 41.7018 195.512 42.2852C194.145 42.8867 193.251 43.1875 192.832 43.1875C192.613 43.1875 192.504 43.1237 192.504 42.9961C192.504 42.832 192.677 42.6589 193.023 42.4766C195.102 41.3646 197.079 40.125 198.957 38.7578C200.853 37.3724 202.393 36.0143 203.578 34.6836C202.667 33.6445 201.764 32.3867 200.871 30.9102C199.978 29.4154 199.158 27.9023 198.41 26.3711L196.059 26.5078C195.621 26.5443 195.302 26.5625 195.102 26.5625C194.792 26.5625 194.536 26.5078 194.336 26.3984C194.135 26.2891 193.926 26.0521 193.707 25.6875C193.616 25.5417 193.534 25.3685 193.461 25.168C193.443 25.1315 193.434 25.0768 193.434 25.0039C193.434 24.8763 193.507 24.8125 193.652 24.8125L193.789 24.8398C194.154 24.9128 194.582 24.9492 195.074 24.9492H195.43L213.258 23.8828C213.75 23.8464 214.215 23.7734 214.652 23.6641C214.707 23.6458 214.78 23.6367 214.871 23.6367C215.09 23.6367 215.327 23.7188 215.582 23.8828C215.837 24.0469 216.047 24.2383 216.211 24.457C216.393 24.6576 216.484 24.8125 216.484 24.9219C216.484 25.0495 216.43 25.1497 216.32 25.2227C216.229 25.2956 216.111 25.3411 215.965 25.3594L210.961 25.6602ZM200.242 26.2617C200.844 27.5378 201.536 28.8138 202.32 30.0898C203.122 31.3659 203.915 32.4505 204.699 33.3438C206.413 31.0833 207.762 28.5586 208.746 25.7695L200.242 26.2617ZM201.555 20.3281C201.555 20.2188 201.637 20.0365 201.801 19.7812C201.983 19.526 202.165 19.3984 202.348 19.3984C202.566 19.3984 203.086 19.6719 203.906 20.2188C204.727 20.7656 205.492 21.349 206.203 21.9688C206.914 22.5885 207.27 22.9987 207.27 23.1992C207.27 23.3997 207.142 23.6367 206.887 23.9102C206.65 24.1654 206.449 24.293 206.285 24.293C206.139 24.293 205.966 24.1836 205.766 23.9648C205.219 23.3997 204.645 22.8711 204.043 22.3789C203.441 21.8867 202.73 21.3581 201.91 20.793C201.673 20.6289 201.555 20.474 201.555 20.3281Z" fill="#333333"/>
<path d="M265.02 27.1914C264.783 27.1914 264.609 27.1094 264.5 26.9453C264.336 26.7083 264.172 26.5169 264.008 26.3711C263.862 26.2253 263.598 26.0247 263.215 25.7695L263.297 25.6328C264.135 25.9245 264.728 26.0703 265.074 26.0703C265.366 26.0703 265.685 25.9062 266.031 25.5781C266.396 25.2318 266.706 24.7396 266.961 24.1016C267.089 23.8099 267.18 23.5729 267.234 23.3906C267.307 23.1901 267.362 22.9714 267.398 22.7344V22.6797C267.398 22.5156 267.316 22.4336 267.152 22.4336C266.97 22.4336 266.642 22.4883 266.168 22.5977C265.913 22.6706 265.576 22.7799 265.156 22.9258L264.938 22.8711C264.919 22.8529 264.874 22.8255 264.801 22.7891C264.746 22.7344 264.701 22.6797 264.664 22.625C264.573 22.5339 264.527 22.4701 264.527 22.4336L264.5 22.3242C264.5 22.1966 264.564 22.0781 264.691 21.9688C264.837 21.8594 264.919 21.7773 264.938 21.7227C265.083 21.5586 265.375 21.1576 265.812 20.5195C265.849 20.4831 265.913 20.401 266.004 20.2734C266.095 20.1276 266.141 20 266.141 19.8906C266.141 19.763 265.603 19.8542 264.527 20.1641C263.434 20.4922 262.859 20.6562 262.805 20.6562C262.622 20.6562 262.431 20.5013 262.23 20.1914C262.085 20.0456 262.012 19.9271 262.012 19.8359C262.012 19.7083 262.194 19.6354 262.559 19.6172C262.978 19.599 263.625 19.526 264.5 19.3984C265.393 19.2708 265.922 19.1888 266.086 19.1523L266.469 19.043C266.523 19.0247 266.587 19.0156 266.66 19.0156C266.715 19.0156 266.797 19.0521 266.906 19.125C267.034 19.1979 267.143 19.2526 267.234 19.2891C267.471 19.3984 267.608 19.526 267.645 19.6719V19.7539C267.645 19.918 267.553 20.0911 267.371 20.2734C267.298 20.3464 267.152 20.5013 266.934 20.7383C266.715 20.957 266.578 21.1029 266.523 21.1758C266.451 21.2487 266.341 21.3672 266.195 21.5312C266.049 21.6953 265.967 21.7956 265.949 21.832C265.949 21.8867 265.967 21.9232 266.004 21.9414C266.04 21.9596 266.086 21.9688 266.141 21.9688C266.688 21.8958 267.134 21.8138 267.48 21.7227L267.918 21.5859C268.118 21.5859 268.264 21.6589 268.355 21.8047C268.52 21.987 268.629 22.1419 268.684 22.2695C268.738 22.3789 268.738 22.4883 268.684 22.5977C268.665 22.6523 268.638 22.707 268.602 22.7617C268.565 22.8164 268.529 22.8802 268.492 22.9531C268.474 22.9896 268.438 23.0625 268.383 23.1719C268.328 23.2812 268.292 23.3906 268.273 23.5C267.945 24.4479 267.553 25.2591 267.098 25.9336C266.842 26.2435 266.56 26.5078 266.25 26.7266C265.831 27.0365 265.421 27.1914 265.02 27.1914ZM262.285 31.7852C262.085 31.7852 261.839 31.6302 261.547 31.3203C261.328 31.1016 261.219 30.9375 261.219 30.8281C261.219 30.7734 261.255 30.7461 261.328 30.7461C261.401 30.7279 261.492 30.7188 261.602 30.7188L262.203 30.6914C262.549 30.6914 262.777 30.6823 262.887 30.6641C263.233 30.6641 263.525 30.6549 263.762 30.6367C265.329 30.4909 266.387 30.3724 266.934 30.2812C267.207 30.2448 267.453 30.2083 267.672 30.1719C267.891 30.1172 268.064 30.0898 268.191 30.0898C268.447 30.0898 268.702 30.2174 268.957 30.4727C269.158 30.6732 269.258 30.8372 269.258 30.9648C269.258 31.0742 269.194 31.1471 269.066 31.1836C268.975 31.2018 268.438 31.2383 267.453 31.293C266.906 31.3112 266.232 31.3568 265.43 31.4297C264.628 31.5026 263.926 31.5755 263.324 31.6484C263.215 31.6667 263.06 31.694 262.859 31.7305C262.659 31.7669 262.467 31.7852 262.285 31.7852ZM266.359 37.8828C266.177 38.1198 265.986 38.2383 265.785 38.2383C265.73 38.2383 265.703 38.1927 265.703 38.1016C265.703 37.974 265.74 37.8281 265.812 37.6641C265.812 37.6641 265.995 37.2995 266.359 36.5703C266.378 36.4974 266.405 36.4245 266.441 36.3516C266.478 36.2786 266.505 36.2148 266.523 36.1602V36.1328C266.523 36.0964 266.496 36.0599 266.441 36.0234C266.387 35.987 266.323 35.9779 266.25 35.9961C265.958 36.0143 265.521 36.0599 264.938 36.1328C264.372 36.2057 263.953 36.2786 263.68 36.3516C263.57 36.388 263.434 36.4336 263.27 36.4883C263.124 36.543 263.005 36.5703 262.914 36.5703C262.586 36.5703 262.312 36.4701 262.094 36.2695C261.911 36.1419 261.775 36.0143 261.684 35.8867L261.629 35.75C261.629 35.6589 261.784 35.6315 262.094 35.668C262.513 35.7044 263.379 35.6497 264.691 35.5039L265.238 35.4219C265.384 35.4036 265.612 35.3763 265.922 35.3398C266.25 35.2852 266.505 35.2305 266.688 35.1758C266.742 35.1576 266.797 35.1393 266.852 35.1211C266.924 35.0846 266.988 35.0664 267.043 35.0664C267.134 35.0664 267.243 35.112 267.371 35.2031C267.517 35.2943 267.635 35.3763 267.727 35.4492C267.854 35.5404 267.936 35.6224 267.973 35.6953C268.027 35.75 268.046 35.8229 268.027 35.9141C268.027 36.0052 267.982 36.0872 267.891 36.1602C267.799 36.2331 267.736 36.2878 267.699 36.3242C267.663 36.3789 267.535 36.5156 267.316 36.7344C267.225 36.8802 267.061 37.0807 266.824 37.3359C266.605 37.5911 266.451 37.7734 266.359 37.8828ZM264.992 43.2695C264.992 43.2148 265.083 43.069 265.266 42.832C265.466 42.6133 265.621 42.4401 265.73 42.3125C266.004 41.9479 266.332 41.4193 266.715 40.7266C267.116 40.0339 267.344 39.5781 267.398 39.3594C267.435 39.25 267.38 39.1953 267.234 39.1953C266.943 39.1953 266.141 39.2773 264.828 39.4414C263.971 39.5508 263.333 39.6602 262.914 39.7695C262.823 39.8242 262.732 39.8516 262.641 39.8516C262.495 39.8516 262.34 39.7513 262.176 39.5508C262.103 39.4232 262.066 39.3047 262.066 39.1953C262.066 39.1224 262.112 39.0495 262.203 38.9766L262.285 38.8672C262.34 38.7578 262.404 38.612 262.477 38.4297C262.549 38.2474 262.613 38.0742 262.668 37.9102C262.759 37.6185 262.823 37.2995 262.859 36.9531C262.878 36.7526 262.987 36.6979 263.188 36.7891C263.443 36.9167 263.634 37.0443 263.762 37.1719C263.908 37.2812 263.953 37.3633 263.898 37.418C263.716 37.6367 263.57 37.8828 263.461 38.1562C263.37 38.4479 263.315 38.6393 263.297 38.7305C263.297 38.8034 263.342 38.8398 263.434 38.8398C263.707 38.8398 264.117 38.7943 264.664 38.7031C264.974 38.6667 265.357 38.6211 265.812 38.5664C266.268 38.5117 266.633 38.457 266.906 38.4023L267.59 38.2656C267.645 38.2474 267.717 38.2383 267.809 38.2383C267.9 38.2383 267.991 38.2747 268.082 38.3477C268.173 38.4023 268.273 38.4753 268.383 38.5664C268.565 38.7305 268.684 38.8672 268.738 38.9766C268.793 39.0677 268.82 39.1771 268.82 39.3047C268.82 39.3776 268.766 39.4688 268.656 39.5781C268.565 39.6875 268.456 39.8607 268.328 40.0977C267.799 41.1732 267.116 42.0755 266.277 42.8047C266.04 42.987 265.776 43.1419 265.484 43.2695C265.357 43.306 265.238 43.3242 265.129 43.3242C265.038 43.3424 264.992 43.3242 264.992 43.2695ZM270.242 32.8242C270.333 32.8242 270.47 32.888 270.652 33.0156C270.634 33.0521 270.671 33.125 270.762 33.2344C270.853 33.3255 270.917 33.3893 270.953 33.4258C271.044 33.5169 271.135 33.6263 271.227 33.7539C271.336 33.8815 271.454 34.0182 271.582 34.1641C271.91 34.5104 272.667 35.4128 273.852 36.8711C274.052 37.1628 274.152 37.3359 274.152 37.3906C274.152 37.5729 274.043 37.6641 273.824 37.6641C273.697 37.6641 273.56 37.5729 273.414 37.3906C273.068 37.026 272.448 36.4518 271.555 35.668C270.862 35.0299 270.233 34.5378 269.668 34.1914C269.395 34.0638 269.258 33.918 269.258 33.7539C269.258 33.6263 269.395 33.444 269.668 33.207C269.923 32.9518 270.115 32.8242 270.242 32.8242ZM237.348 35.3672V35.4492C237.348 35.7773 237.202 35.9414 236.91 35.9414C236.655 35.9414 236.372 35.8503 236.062 35.668C235.753 35.4674 235.598 35.194 235.598 34.8477C235.598 34.7383 235.607 34.6471 235.625 34.5742C235.68 34.2096 235.707 33.8633 235.707 33.5352V33.1797L235.434 26.2617C235.397 25.6055 235.288 25.1224 235.105 24.8125C234.978 24.5938 234.914 24.4388 234.914 24.3477C234.914 24.2383 234.996 24.1836 235.16 24.1836C235.452 24.1836 236.035 24.3477 236.91 24.6758L240.766 24.4023L241.285 24.375C241.504 24.375 241.741 24.457 241.996 24.6211C242.27 24.7852 242.406 25.013 242.406 25.3047C242.406 25.3958 242.379 25.5052 242.324 25.6328C242.288 25.7604 242.26 25.8607 242.242 25.9336L241.887 30.3906C243.473 28.6953 244.895 26.9727 246.152 25.2227C247.428 23.4727 248.486 21.7956 249.324 20.1914C249.507 19.8633 249.598 19.4896 249.598 19.0703C249.598 18.7604 249.707 18.6055 249.926 18.6055C250.181 18.6055 250.527 18.7878 250.965 19.1523C251.402 19.4987 251.621 19.763 251.621 19.9453C251.621 19.9818 251.603 20.0547 251.566 20.1641L250.746 21.4766C252.095 22.8984 253.471 24.2201 254.875 25.4414C256.279 26.6445 257.828 27.8021 259.523 28.9141C259.779 29.0781 259.906 29.2148 259.906 29.3242C259.906 29.4336 259.724 29.6432 259.359 29.9531C258.995 30.263 258.703 30.418 258.484 30.418C258.339 30.418 257.828 30.0807 256.953 29.4062C256.078 28.7135 255.003 27.7839 253.727 26.6172C252.469 25.4505 251.184 24.1654 249.871 22.7617C248.54 24.7122 247.273 26.3255 246.07 27.6016C244.885 28.8594 243.91 29.7891 243.145 30.3906C242.397 30.974 241.951 31.293 241.805 31.3477L241.75 32.3047C242.188 32.8333 242.406 33.2161 242.406 33.4531C242.406 33.5807 242.352 33.6628 242.242 33.6992C242.133 33.7174 241.932 33.7357 241.641 33.7539L237.293 34L237.348 35.3672ZM237.238 32.4688L240.164 32.3047L240.574 25.9336L236.965 26.1797L237.238 32.4688ZM240.793 40.8633C240.793 40.681 240.866 40.5078 241.012 40.3438C241.978 39.1224 242.789 37.7461 243.445 36.2148C243.573 35.9232 243.728 35.7773 243.91 35.7773C244.129 35.7773 244.348 35.8503 244.566 35.9961C244.803 36.1237 244.922 36.2695 244.922 36.4336C244.922 36.4701 244.885 36.5977 244.812 36.8164C244.01 38.6393 243.227 40.1523 242.461 41.3555C242.279 41.6471 242.087 41.793 241.887 41.793C241.741 41.793 241.522 41.6836 241.23 41.4648C240.939 41.2643 240.793 41.0638 240.793 40.8633ZM244.594 30.3086C244.594 30.1992 244.648 30.1445 244.758 30.1445C244.831 30.1445 244.895 30.1536 244.949 30.1719C245.259 30.2266 245.578 30.2539 245.906 30.2539H246.207L254.438 29.7891H254.656C255.003 29.7891 255.294 29.8893 255.531 30.0898C255.768 30.2904 255.887 30.4635 255.887 30.6094C255.887 30.737 255.823 30.8828 255.695 31.0469C255.568 31.1927 255.477 31.3021 255.422 31.375C254.802 32.2682 254.091 33.207 253.289 34.1914C252.505 35.1758 251.949 35.668 251.621 35.668C251.457 35.668 251.247 35.5677 250.992 35.3672C250.719 35.1484 250.582 34.957 250.582 34.793C250.582 34.6471 250.673 34.4922 250.855 34.3281C251.785 33.4531 252.688 32.4414 253.562 31.293L246.699 31.7031C246.517 31.7214 246.289 31.7305 246.016 31.7305C245.724 31.7305 245.46 31.6576 245.223 31.5117C245.004 31.3659 244.812 31.0469 244.648 30.5547C244.612 30.4818 244.594 30.3997 244.594 30.3086ZM245.66 37.5273C245.66 37.3997 245.697 37.2995 245.77 37.2266C245.842 37.1536 245.97 37.0807 246.152 37.0078C246.316 36.9531 246.453 36.9258 246.562 36.9258C246.818 36.9258 247 37.1081 247.109 37.4727C247.31 38.1289 247.665 38.7852 248.176 39.4414C248.704 40.0794 249.279 40.5169 249.898 40.7539C250.773 41.1003 251.721 41.2734 252.742 41.2734C253.125 41.2734 253.526 41.2552 253.945 41.2188C254.365 41.1823 254.574 41.1094 254.574 41L254.52 40.8633C254.501 40.8268 254.328 40.4622 254 39.7695C253.69 39.0768 253.535 38.5026 253.535 38.0469C253.535 37.8646 253.59 37.7734 253.699 37.7734C253.882 37.7734 254.118 37.9831 254.41 38.4023C255.085 39.3685 255.732 40.1432 256.352 40.7266C256.771 41.1094 256.98 41.4375 256.98 41.7109C256.98 41.9115 256.871 42.1029 256.652 42.2852C256.415 42.4674 256.042 42.6133 255.531 42.7227C255.039 42.832 254.173 42.8867 252.934 42.8867C251.293 42.8867 249.835 42.5404 248.559 41.8477C247.283 41.1732 246.344 39.8698 245.742 37.9375C245.688 37.7734 245.66 37.6367 245.66 37.5273ZM247 26.918C247 26.8268 247.064 26.7812 247.191 26.7812L247.355 26.8086C247.684 26.8633 248.003 26.8906 248.312 26.8906H248.613L251.211 26.7266C251.576 26.6901 251.885 26.6263 252.141 26.5352C252.25 26.4987 252.314 26.4805 252.332 26.4805C252.478 26.4805 252.724 26.6263 253.07 26.918C253.435 27.2096 253.617 27.4466 253.617 27.6289C253.617 27.8112 253.444 27.9206 253.098 27.957L249.105 28.2578C248.978 28.276 248.786 28.2852 248.531 28.2852C248.185 28.2852 247.893 28.2122 247.656 28.0664C247.419 27.9206 247.219 27.6289 247.055 27.1914C247.018 27.0456 247 26.9544 247 26.918ZM247.766 35.3672C247.766 35.2578 247.829 35.0938 247.957 34.875C248.085 34.638 248.24 34.5195 248.422 34.5195C248.586 34.5195 249.014 34.7383 249.707 35.1758C250.418 35.6133 251.074 36.0781 251.676 36.5703C252.296 37.0625 252.605 37.3997 252.605 37.582C252.605 37.7461 252.496 37.9557 252.277 38.2109C252.059 38.4479 251.858 38.5664 251.676 38.5664C251.548 38.5664 251.366 38.4661 251.129 38.2656C250.053 37.263 249.042 36.4427 248.094 35.8047C247.875 35.6589 247.766 35.513 247.766 35.3672ZM254.191 35.8047C254.191 35.6406 254.283 35.4674 254.465 35.2852C254.665 35.0846 254.82 34.9844 254.93 34.9844C255.094 34.9844 255.568 35.2669 256.352 35.832C257.135 36.3789 257.865 36.9622 258.539 37.582C259.232 38.1836 259.578 38.5755 259.578 38.7578C259.578 38.9219 259.451 39.1497 259.195 39.4414C258.958 39.7331 258.749 39.8789 258.566 39.8789C258.421 39.8789 258.247 39.7695 258.047 39.5508C256.88 38.2565 255.704 37.1628 254.52 36.2695C254.301 36.1055 254.191 35.9505 254.191 35.8047Z" fill="#333333"/>
<path d="M307.676 30.7461C307.384 30.7461 307.211 30.6003 307.156 30.3086C307.047 29.9987 306.755 29.6159 306.281 29.1602L306.363 29.0508C306.436 29.0872 306.646 29.1784 306.992 29.3242C307.339 29.4518 307.576 29.5156 307.703 29.5156C307.812 29.5156 307.895 29.5156 307.949 29.5156C308.004 29.4974 308.068 29.4518 308.141 29.3789C308.359 29.2148 308.633 28.8411 308.961 28.2578C309.198 27.7839 309.408 27.2279 309.59 26.5898C309.79 25.9518 309.891 25.4688 309.891 25.1406C309.891 25.0495 309.818 25.0039 309.672 25.0039L308.633 25.0586L307.922 25.1133L307.457 25.1406L307.266 25.168C307.393 25.2591 307.475 25.3411 307.512 25.4141C307.566 25.4688 307.594 25.5417 307.594 25.6328C307.594 25.724 307.484 25.9792 307.266 26.3984C307.083 26.7995 306.792 27.2552 306.391 27.7656C306.062 28.2031 305.616 28.6771 305.051 29.1875C304.504 29.6797 304.094 29.9349 303.82 29.9531C303.766 29.9531 303.711 29.944 303.656 29.9258C303.62 29.8893 303.602 29.8438 303.602 29.7891C303.602 29.7708 303.747 29.5977 304.039 29.2695L304.805 28.3672C305.352 27.638 305.908 26.7083 306.473 25.5781C306.527 25.4323 306.5 25.3503 306.391 25.332C306.281 25.3503 306.053 25.3776 305.707 25.4141C305.361 25.4323 305.051 25.487 304.777 25.5781C304.759 25.5781 304.695 25.6055 304.586 25.6602C304.477 25.6966 304.385 25.7148 304.312 25.7148C304.203 25.7148 304.112 25.6784 304.039 25.6055L303.82 25.4141C303.656 25.2865 303.574 25.168 303.574 25.0586C303.574 25.0221 303.592 24.9674 303.629 24.8945L303.766 24.6758C303.839 24.5846 303.957 24.4388 304.121 24.2383C304.285 24.0378 304.467 23.7643 304.668 23.418C304.704 23.3451 304.777 23.181 304.887 22.9258C305.014 22.6706 305.078 22.5156 305.078 22.4609V22.3516C305.078 22.2422 305.096 22.1693 305.133 22.1328C305.169 22.0964 305.251 22.0964 305.379 22.1328C305.507 22.1693 305.661 22.2695 305.844 22.4336L306.145 22.7344C306.199 22.7891 306.227 22.8529 306.227 22.9258C306.227 23.1081 305.971 23.4362 305.461 23.9102C305.37 24.0013 305.26 24.138 305.133 24.3203C305.005 24.5026 304.941 24.6211 304.941 24.6758C304.941 24.7852 305.023 24.8216 305.188 24.7852L305.816 24.7031C307.257 24.4844 308.341 24.3568 309.07 24.3203L309.809 24.2109L310.055 24.1562L310.191 24.1289C310.337 24.1289 310.438 24.1471 310.492 24.1836C310.547 24.2201 310.602 24.2839 310.656 24.375C310.711 24.4479 310.766 24.5117 310.82 24.5664C310.948 24.7122 311.039 24.8398 311.094 24.9492L311.148 25.1953L311.094 25.3047L311.039 25.4688C311.003 25.5599 310.975 25.651 310.957 25.7422C310.939 25.8151 310.911 25.8971 310.875 25.9883C310.492 27.4648 310.046 28.6133 309.535 29.4336C309.371 29.7253 309.089 30.0169 308.688 30.3086C308.305 30.6003 307.967 30.7461 307.676 30.7461ZM310.164 39.4414C309.891 39.4414 309.626 39.2409 309.371 38.8398C309.043 38.3294 308.724 37.9102 308.414 37.582L307.703 36.8438C307.32 37.2812 306.983 37.6276 306.691 37.8828C306.418 38.138 306.072 38.3841 305.652 38.6211C304.868 39.0768 304.212 39.3047 303.684 39.3047C303.556 39.3047 303.492 39.2591 303.492 39.168C303.492 39.1133 303.665 38.9948 304.012 38.8125C304.358 38.6302 304.686 38.4115 304.996 38.1562C305.78 37.5 306.427 36.8255 306.938 36.1328C306.828 36.0234 306.281 35.5495 305.297 34.7109C305.169 34.6198 304.978 34.4648 304.723 34.2461C304.668 34.2096 304.559 34.1276 304.395 34C304.23 33.8724 304.148 33.7812 304.148 33.7266C304.148 33.6354 304.194 33.5898 304.285 33.5898C304.559 33.5898 304.996 33.7812 305.598 34.1641C306.199 34.5286 306.828 34.9661 307.484 35.4766C307.74 35.1667 307.94 34.875 308.086 34.6016C308.232 34.3281 308.396 33.9909 308.578 33.5898C308.669 33.3893 308.724 33.2161 308.742 33.0703C308.76 32.9062 308.77 32.806 308.77 32.7695C308.77 32.569 308.824 32.4688 308.934 32.4688C309.061 32.4688 309.234 32.569 309.453 32.7695C309.836 33.1341 310.027 33.3802 310.027 33.5078C310.027 33.5807 309.982 33.6628 309.891 33.7539C309.672 33.9727 309.471 34.2643 309.289 34.6289C309.18 34.8477 308.979 35.1576 308.688 35.5586C308.596 35.668 308.523 35.7682 308.469 35.8594C308.414 35.9505 308.359 36.0326 308.305 36.1055C308.724 36.4154 309.344 36.944 310.164 37.6914C310.365 37.8737 310.492 38.0469 310.547 38.2109C310.62 38.3568 310.656 38.5573 310.656 38.8125C310.656 38.9948 310.611 39.1497 310.52 39.2773C310.428 39.3867 310.31 39.4414 310.164 39.4414ZM315.742 27.6289C315.961 27.6289 316.07 27.7292 316.07 27.9297C316.07 28.0391 315.97 28.194 315.77 28.3945C315.223 29.069 314.138 30.3542 312.516 32.25C312.388 32.4141 312.27 32.4961 312.16 32.4961C312.069 32.4961 311.868 32.3594 311.559 32.0859C311.303 31.8672 311.176 31.6849 311.176 31.5391C311.176 31.375 311.312 31.2201 311.586 31.0742C312.005 30.8372 312.634 30.3633 313.473 29.6523C314.311 28.9049 314.931 28.3125 315.332 27.875C315.496 27.7109 315.633 27.6289 315.742 27.6289ZM289.793 39.5781C289.793 39.7969 289.674 39.9062 289.438 39.9062C289.219 39.9062 288.954 39.8242 288.645 39.6602C288.335 39.4779 288.18 39.2956 288.18 39.1133L288.207 38.8398C288.243 38.5117 288.262 38.2292 288.262 37.9922V37.6914L288.043 32.6875C288.007 32.1771 287.915 31.7669 287.77 31.457C287.66 31.2018 287.605 31.056 287.605 31.0195C287.605 30.8919 287.706 30.8281 287.906 30.8281C288.143 30.8281 288.681 30.9375 289.52 31.1562L297.203 30.7734C297.768 30.7734 298.142 30.8828 298.324 31.1016C298.525 31.3021 298.625 31.4753 298.625 31.6211C298.625 31.694 298.607 31.776 298.57 31.8672C298.552 31.9401 298.534 32.0039 298.516 32.0586L298.16 37.6914C298.507 38.1289 298.68 38.457 298.68 38.6758C298.68 38.7669 298.634 38.8307 298.543 38.8672C298.452 38.9036 298.315 38.931 298.133 38.9492L289.793 39.2227V39.5781ZM275.848 24.5391C275.848 24.4297 275.902 24.375 276.012 24.375C276.085 24.375 276.148 24.3841 276.203 24.4023C276.477 24.4753 276.768 24.5117 277.078 24.5117L277.543 24.4844L283.559 24.1016C284.087 24.0104 284.461 23.9193 284.68 23.8281C284.789 23.7917 284.871 23.7734 284.926 23.7734C285.145 23.7734 285.436 23.9193 285.801 24.2109C286.165 24.5026 286.348 24.7669 286.348 25.0039C286.348 25.2409 286.165 25.3776 285.801 25.4141L278.09 25.9609C277.871 25.9792 277.607 25.9883 277.297 25.9883C276.987 25.9883 276.786 25.9427 276.695 25.8516C276.13 25.3594 275.848 24.9219 275.848 24.5391ZM277.598 34.3281C277.598 34.2188 277.671 34.1641 277.816 34.1641C278.108 34.1641 278.764 34.3555 279.785 34.7383L283.996 34.4922H284.215C284.507 34.4922 284.771 34.6107 285.008 34.8477C285.263 35.0846 285.391 35.2852 285.391 35.4492C285.391 35.5221 285.363 35.6133 285.309 35.7227C285.272 35.8138 285.245 35.8958 285.227 35.9688L284.789 39.6875C285.208 40.2708 285.418 40.6536 285.418 40.8359C285.418 40.9453 285.372 41.0091 285.281 41.0273C285.19 41.0638 285.081 41.082 284.953 41.082C284.826 41.1003 284.734 41.1094 284.68 41.1094L280.168 41.3008L280.195 41.8203V41.9023C280.195 42.3034 280.031 42.5039 279.703 42.5039C279.466 42.5039 279.193 42.4128 278.883 42.2305C278.591 42.0664 278.445 41.8203 278.445 41.4922V41.3281C278.482 40.8542 278.5 40.5078 278.5 40.2891V39.9609L278.227 36.3516C278.172 35.7318 278.035 35.2305 277.816 34.8477C277.671 34.6107 277.598 34.4375 277.598 34.3281ZM277.789 31.1836C277.789 31.0924 277.835 31.0469 277.926 31.0469C277.98 31.0469 278.026 31.056 278.062 31.0742C278.372 31.1471 278.71 31.1836 279.074 31.1836H279.375L282.902 30.9922C283.267 30.9557 283.586 30.8828 283.859 30.7734C283.969 30.737 284.051 30.7188 284.105 30.7188C284.324 30.7188 284.579 30.8737 284.871 31.1836C285.181 31.4753 285.336 31.7122 285.336 31.8945C285.336 32.1497 285.154 32.2956 284.789 32.332L279.922 32.6328H279.129C278.874 32.5964 278.691 32.5508 278.582 32.4961C278.236 32.2044 277.98 31.8216 277.816 31.3477C277.798 31.3112 277.789 31.2565 277.789 31.1836ZM277.789 27.9023C277.789 27.793 277.835 27.7383 277.926 27.7383L278.035 27.7656C278.345 27.8385 278.682 27.875 279.047 27.875H279.348L282.957 27.6289C283.285 27.5924 283.613 27.5286 283.941 27.4375C284.051 27.401 284.124 27.3828 284.16 27.3828C284.361 27.3828 284.616 27.5195 284.926 27.793C285.254 28.0664 285.418 28.3216 285.418 28.5586C285.418 28.6862 285.363 28.7865 285.254 28.8594C285.145 28.9323 285.008 28.9779 284.844 28.9961L279.895 29.3242C279.749 29.3424 279.548 29.3516 279.293 29.3516C279.129 29.3516 279.01 29.3424 278.938 29.3242C278.773 29.3242 278.646 29.2786 278.555 29.1875C278.391 29.0599 278.217 28.8594 278.035 28.5859C277.871 28.2943 277.789 28.0664 277.789 27.9023ZM278.637 20.6562C278.637 20.4375 278.701 20.2279 278.828 20.0273C278.974 19.8086 279.147 19.6992 279.348 19.6992C279.493 19.6992 279.949 19.8542 280.715 20.1641C281.499 20.474 282.428 20.9206 283.504 21.5039C283.704 21.6133 283.85 21.7227 283.941 21.832C284.033 21.9232 284.078 22.0326 284.078 22.1602C284.078 22.3789 283.987 22.6341 283.805 22.9258C283.641 23.1992 283.449 23.3359 283.23 23.3359C283.085 23.3359 282.884 23.2539 282.629 23.0898C281.553 22.3789 280.396 21.75 279.156 21.2031C278.81 21.0755 278.637 20.8932 278.637 20.6562ZM280.059 39.9062L283.258 39.7695L283.559 35.9961L279.785 36.1875L280.059 39.9062ZM284.57 43.3242C284.57 43.1237 284.771 42.9596 285.172 42.832C287.305 42.0846 289.046 41.2552 290.395 40.3438C290.467 40.3073 290.513 40.2708 290.531 40.2344C290.75 40.0885 290.923 39.9062 291.051 39.6875C291.178 39.5052 291.288 39.4141 291.379 39.4141C291.525 39.4141 291.671 39.5143 291.816 39.7148C291.98 39.9154 292.117 40.1432 292.227 40.3984C292.354 40.6354 292.418 40.7904 292.418 40.8633C292.418 41.0273 292.327 41.1549 292.145 41.2461C290.996 41.8294 289.911 42.2852 288.891 42.6133C287.87 42.9596 287.022 43.1966 286.348 43.3242C285.673 43.4518 285.227 43.5156 285.008 43.5156C284.716 43.5156 284.57 43.4518 284.57 43.3242ZM285.746 25.8789C285.746 25.7695 285.828 25.7148 285.992 25.7148C286.266 25.7148 286.822 25.8333 287.66 26.0703L299.309 25.4141H299.473C299.673 25.4141 299.892 25.5052 300.129 25.6875C300.384 25.8516 300.512 26.0247 300.512 26.207C300.512 26.2982 300.484 26.3984 300.43 26.5078C300.375 26.599 300.339 26.6719 300.32 26.7266L299.91 28.4492C300.257 28.8138 300.43 29.0781 300.43 29.2422C300.43 29.3516 300.366 29.4245 300.238 29.4609C300.129 29.4974 299.947 29.5247 299.691 29.543L287.961 30.0898V30.1445C287.961 30.3997 287.824 30.5273 287.551 30.5273C287.423 30.5273 287.259 30.5 287.059 30.4453C286.785 30.3724 286.594 30.2812 286.484 30.1719C286.375 30.0625 286.32 29.9258 286.32 29.7617V29.625C286.357 29.2604 286.375 29.0417 286.375 28.9688C286.375 28.8229 286.366 28.7135 286.348 28.6406L286.156 27.3281C286.102 26.8724 286.01 26.526 285.883 26.2891C285.792 26.0703 285.746 25.9336 285.746 25.8789ZM285.773 21.3398C285.773 21.2305 285.828 21.1758 285.938 21.1758C286.01 21.1758 286.074 21.1849 286.129 21.2031C286.421 21.276 286.785 21.3125 287.223 21.3125H287.469L292.117 21.0117V20.2734C292.117 19.8177 292.026 19.444 291.844 19.1523C291.771 19.0247 291.734 18.9245 291.734 18.8516C291.734 18.724 291.835 18.6602 292.035 18.6602C292.309 18.6602 292.655 18.724 293.074 18.8516C293.493 18.9792 293.703 19.1432 293.703 19.3438V20.9297L297.422 20.6836C297.841 20.6654 298.26 20.5924 298.68 20.4648C298.716 20.4466 298.789 20.4375 298.898 20.4375C299.154 20.4375 299.445 20.5651 299.773 20.8203C300.12 21.0573 300.293 21.276 300.293 21.4766C300.293 21.6771 300.156 21.7956 299.883 21.832L293.676 22.2148V23.4453L295.316 23.3633C295.736 23.3268 296.146 23.263 296.547 23.1719C296.602 23.1536 296.684 23.1445 296.793 23.1445C297.103 23.1445 297.431 23.2995 297.777 23.6094C297.996 23.7917 298.105 23.9648 298.105 24.1289C298.105 24.3294 297.96 24.4479 297.668 24.4844L290.34 24.8945C289.866 24.931 289.565 24.9492 289.438 24.9492C289.091 24.9492 288.836 24.8763 288.672 24.7305C288.398 24.5117 288.18 24.2383 288.016 23.9102C287.979 23.8555 287.961 23.7826 287.961 23.6914C287.961 23.6003 288.025 23.5547 288.152 23.5547C288.225 23.5547 288.289 23.5638 288.344 23.582C288.617 23.6549 288.964 23.6914 289.383 23.6914H289.656L292.145 23.5547L292.117 22.2969L288.207 22.543C287.733 22.5794 287.423 22.5977 287.277 22.5977C286.621 22.5977 286.138 22.2513 285.828 21.5586L285.773 21.3398ZM287.852 28.9141L290.449 28.7773L290.312 27.1094L287.688 27.2461L287.852 28.9141ZM289.574 33.5078L296.93 33.1797L296.984 32.0039L289.52 32.332L289.574 33.5078ZM289.656 35.7227L296.848 35.4219L296.902 34.2734L289.602 34.6016L289.656 35.7227ZM289.738 38.0469L296.766 37.8281L296.82 36.5156L289.684 36.7891L289.738 38.0469ZM291.898 28.7227L294.195 28.6133L294.332 26.8906L291.762 27.0273L291.898 28.7227ZM294.797 40.2344C294.797 40.0885 294.852 39.9245 294.961 39.7422C295.143 39.4323 295.344 39.2773 295.562 39.2773C295.781 39.2773 296.173 39.4141 296.738 39.6875C297.322 39.9427 298.516 40.5352 300.32 41.4648C300.685 41.6289 300.867 41.8477 300.867 42.1211C300.867 42.2669 300.794 42.4948 300.648 42.8047C300.503 43.1146 300.32 43.2695 300.102 43.2695C299.938 43.2695 299.728 43.1784 299.473 42.9961C298.142 42.0846 296.766 41.3464 295.344 40.7812C295.161 40.7083 295.025 40.6354 294.934 40.5625C294.842 40.4714 294.797 40.362 294.797 40.2344ZM298.434 28.4219L298.707 26.6719L295.836 26.8359L295.672 28.5586L298.434 28.4219Z" fill="#333333"/>
</svg>
