<svg xmlns="http://www.w3.org/2000/svg" width="340" height="60" fill="none"><path fill="#333" d="M76.21 26.945c-.108 0-.254-.118-.437-.355-.182-.255-.264-.474-.246-.656.037-.146.064-.556.082-1.23a70.63 70.63 0 0 0 .028-2.407c0-.802-.01-1.34-.028-1.613l-.902.082c-.638.09-1.185.136-1.64.136-.128 0-.31-.1-.547-.3-.237-.201-.356-.347-.356-.438 0-.146.155-.2.465-.164.2.018.793.01 1.777-.027a88.862 88.862 0 0 1 2.926-.164c.31-.019.593-.046.848-.082.273-.055.464-.092.574-.11.164-.018.31 0 .437.055.128.055.246.127.356.219.127.073.228.127.3.164.165.11.247.21.247.3 0 .073-.046.146-.137.22a.4.4 0 0 1-.246.081 3.71 3.71 0 0 1-.383-.027 4.003 4.003 0 0 0-.492-.027c-.674 0-1.367.018-2.078.054-.018.146-.027.51-.027 1.094-.037.984-.055 1.95-.055 2.898v1.313c0 .31-.028.51-.082.602-.164.255-.292.382-.383.382Zm-2.925 4.84c-.2 0-.447-.155-.738-.465-.219-.218-.328-.383-.328-.492 0-.055.036-.082.11-.082.072-.018.163-.027.273-.027l.601-.028c.346 0 .574-.009.684-.027.346 0 .638-.01.875-.027 1.567-.146 2.625-.265 3.172-.356.273-.036.52-.073.738-.11.219-.054.392-.081.52-.081.255 0 .51.127.765.383.2.2.3.364.3.492 0 .11-.063.182-.19.219-.092.018-.63.054-1.614.109-.547.018-1.221.064-2.023.137a71.75 71.75 0 0 0-2.106.218l-.465.082c-.2.037-.392.055-.574.055Zm5.88 9.434c.035.073.1.182.19.328a.96.96 0 0 1 .137.52.52.52 0 0 1-.219.437.728.728 0 0 1-.492.191c-.164 0-.3-.164-.41-.492-.055-.128-.1-.237-.137-.328a2.682 2.682 0 0 0-.054-.191 6.292 6.292 0 0 1-.93.191c-.383.055-.656.1-.82.137-.875.164-1.477.282-1.805.355-.128.037-.264.073-.41.11a1.132 1.132 0 0 0-.246.109.867.867 0 0 1-.246.055.575.575 0 0 1-.41-.192 1.493 1.493 0 0 1-.493-.656c-.018-.018-.027-.046-.027-.082 0-.036.045-.082.137-.137a2.12 2.12 0 0 1 .246-.11c.237-.127.656-.51 1.258-1.148l.738-.71-1.613-.876c-.183-.054-.301-.118-.356-.19-.055-.074-.082-.183-.082-.33 0-.108.018-.181.055-.218.055-.054.164-.136.328-.246.164-.11.328-.255.492-.437.091-.11.21-.228.356-.356.145-.128.282-.264.41-.41.547-.638.893-1.14 1.039-1.504.09-.182.164-.273.218-.273.037 0 .11.036.22.109.346.255.555.492.628.71v.083c0 .091-.045.164-.136.219-.092.054-.155.1-.192.136-.055.037-.328.301-.82.793l-.492.493c-.092.09-.246.246-.465.464-.219.201-.328.32-.328.356 0 .055.027.1.082.137a.638.638 0 0 1 .164.109l1.148.547c.711-.711 1.121-1.13 1.23-1.258.475-.547.739-.893.794-1.039a.636.636 0 0 0 .082-.137c.036-.073.073-.11.109-.11.055 0 .11.028.164.083.292.273.501.529.629.766a.479.479 0 0 1 .055.136c0 .037-.046.091-.137.164l-.219.164c-.638.53-1.385 1.222-2.242 2.078l-1.668 1.56c-.037.036-.055.072-.055.108 0 .037.019.064.055.083.037.018.091.018.164 0l3.2-.547c-.092-.365-.201-.73-.329-1.094v-.055c0-.054.028-.082.082-.082.073 0 .182.055.328.164.292.255.657.693 1.094 1.313Zm5.687-8.778c.054 0 .109.028.164.082a.266.266 0 0 1 .109.164v.055c0 .128-.1.374-.3.739l-1.97 3.417c-.145.31-.337.465-.574.465-.237 0-.437-.146-.601-.437a9.248 9.248 0 0 1-.602-1.067 3.33 3.33 0 0 1-.273-.492 9.53 9.53 0 0 0-.164-.355c-.2-.347-.301-.593-.301-.739 0-.073.027-.127.082-.164.055-.054.11-.082.164-.082.2 0 .383.11.547.328.127.128.228.265.3.41l.301.41.547.63.246-.383c.256-.438.857-1.303 1.805-2.598.2-.255.374-.383.52-.383ZM57.234 20.656c0-.437-.118-.802-.355-1.093-.091-.128-.137-.21-.137-.247 0-.109.1-.164.301-.164.146 0 .392.037.738.11.347.073.666.182.957.328.292.146.438.319.438.52l-.082 20.206.027 1.094c0 .602-.164 1.021-.492 1.258-.328.237-.61.355-.848.355-.273 0-.92-.282-1.941-.847a32.34 32.34 0 0 1-2.817-1.778c-.875-.638-1.312-1.075-1.312-1.312 0-.164.118-.246.355-.246.2 0 .438.064.711.191 1.841.784 3.3 1.322 4.375 1.614l.082-19.989ZM45.641 37.418c0-.164.109-.42.328-.766 1.24-1.823 2.251-3.463 3.035-4.922A20.81 20.81 0 0 0 50.809 27c.073-.292.109-.51.109-.656 0-.146-.027-.301-.082-.465a.607.607 0 0 1-.027-.192c0-.164.09-.246.273-.246.273 0 .684.165 1.23.493.62.364.93.701.93 1.011 0 .091-.009.155-.027.192-.875 2.06-1.841 3.883-2.899 5.468-1.057 1.568-2.014 2.799-2.87 3.692-.84.875-1.386 1.312-1.641 1.312-.11 0-.164-.063-.164-.191Zm16.843-10.965c0-.182.137-.383.41-.601.274-.237.538-.356.794-.356.2 0 .373.1.519.3a54.725 54.725 0 0 1 2.68 3.802 73.065 73.065 0 0 1 2.406 3.937c.656 1.149.984 1.814.984 1.996 0 .2-.09.383-.273.547-.182.164-.392.3-.629.41-.219.11-.383.164-.492.164-.237 0-.429-.136-.574-.41a69.31 69.31 0 0 0-2.762-5.086 40.25 40.25 0 0 0-2.899-4.293c-.109-.146-.164-.282-.164-.41ZM121.027 29.816c-.273 0-.474-.145-.601-.437l-.246-.547c-.711.182-1.285.319-1.723.41l-1.777.438c-.365.09-.593.136-.684.136a.608.608 0 0 1-.273-.054l-.137-.137a1.215 1.215 0 0 1-.082-.137c-.146-.255-.21-.428-.192-.52l.192-.3c.474-.656.911-1.595 1.312-2.816l-.546.082-.711.082c-.055.018-.174.054-.356.109-.164.037-.292.027-.383-.027-.2-.128-.465-.356-.793-.684-.073-.073-.109-.128-.109-.164 0-.11.2-.164.602-.164h.929a35.67 35.67 0 0 0 1.696-.137c.109-.273.227-.62.355-1.039.128-.42.219-.756.273-1.012v-.328c.019-.164.055-.264.11-.3h.027c.073 0 .173.036.301.109.128.073.246.164.355.273.347.347.447.62.301.82-.073.019-.228.32-.465.903-.018.037-.082.2-.191.492l1.586-.191c.419-.037.738-.082.957-.137.31-.091.556-.137.738-.137.146 0 .265.055.356.164l.191.192c.055.055.119.164.191.328.073.128.101.219.082.273-.072.11-.2.164-.382.164a14.982 14.982 0 0 0-2.16.055 9.263 9.263 0 0 0-.821.11l-1.066.109-.246.738-.301.656c-.091.22-.191.438-.301.657a6.125 6.125 0 0 0-.246.547.385.385 0 0 0-.027.164c0 .09.054.136.164.136.146 0 .647-.082 1.504-.246l1.011-.164.465-.11c-.164-.455-.291-.747-.383-.874a2.854 2.854 0 0 1-.164-.246l.164-.164c.711.455 1.286.92 1.723 1.394.128.164.21.32.246.465.055.146.073.31.055.492a.759.759 0 0 1-.192.383c-.036.091-.145.155-.328.191Zm-2.242 9.899c0-.018.046-.082.137-.192.109-.127.228-.282.355-.464.219-.31.438-.766.657-1.368.218-.601.337-1.157.355-1.668 0-.036-.018-.073-.055-.109-.018-.055-.063-.082-.136-.082l-.629.055-.93.082c-.2.656-.547 1.367-1.039 2.133-.219.346-.52.656-.902.93a3.95 3.95 0 0 1-1.067.546 1.31 1.31 0 0 1-.41.055c-.128-.018-.191-.055-.191-.11 0-.073.063-.136.191-.191.219-.146.465-.374.738-.684.292-.31.547-.629.766-.957a5.71 5.71 0 0 0 .41-.71c.146-.31.264-.593.356-.848a9.815 9.815 0 0 0-1.805.41c-.037.036-.1.055-.191.055-.055 0-.137-.037-.247-.11a3.545 3.545 0 0 1-.3-.328c-.037-.091-.019-.173.054-.246l.11-.219c.073-.11.146-.328.218-.656.073-.328.11-.592.11-.793a.77.77 0 0 0-.028-.191c0-.091.01-.137.028-.137.036-.018.082-.018.137 0 .2.036.382.1.546.191a.782.782 0 0 1 .301.301c.073.091.073.173 0 .246a.895.895 0 0 0-.082.11.35.35 0 0 0-.082.164c-.018.018-.055.218-.109.601 0 .019.009.037.027.055a.117.117 0 0 0 .11 0c.054 0 .136-.01.246-.027.109-.019.191-.037.246-.055.127-.018.273-.046.437-.082a6.97 6.97 0 0 1 .492-.082c.055-.2.092-.42.11-.656.036-.256.064-.429.082-.52l.027-.574v-.192c-.583.019-1.194.073-1.832.164l-.492.083h-.109a.527.527 0 0 1-.274-.083 9.745 9.745 0 0 1-.246-.19c-.237-.22-.355-.384-.355-.493 0-.11.082-.146.246-.11.218.037.446.055.683.055l.793-.027 3.801-.274c.146-.018.283-.036.41-.054.128-.037.255-.064.383-.082h.082c.237 0 .401.045.492.136.11.073.173.119.192.137.291.237.437.42.437.547 0 .11-.155.155-.465.137l-.547-.055c-.474-.018-1.185 0-2.132.055l-.11 1.066a6.34 6.34 0 0 1-.055.438c-.018.109-.036.2-.054.273l-.028.082c.438-.036.948-.091 1.532-.164a.832.832 0 0 1 .191-.055c.091-.036.182-.063.274-.082h.054c.11 0 .219.046.328.137.11.091.174.146.192.164.146.128.246.237.301.328.072.073.082.137.027.192a1.457 1.457 0 0 1-.137.218.613.613 0 0 0-.082.192c-.091.765-.237 1.385-.437 1.86-.164.418-.347.737-.547.956-.183.2-.41.392-.684.574-.109.073-.282.137-.519.192-.237.036-.356.036-.356 0Zm4.457-9.899c.091 0 .228.064.41.192-.018.036.019.11.11.219l.191.191c.091.091.182.2.274.328.109.128.227.264.355.41.328.347 1.085 1.249 2.27 2.707.2.292.3.465.3.52 0 .182-.109.273-.328.273-.127 0-.264-.09-.41-.273-.346-.365-.966-.939-1.859-1.723-.693-.638-1.322-1.13-1.887-1.476-.273-.128-.41-.274-.41-.438 0-.127.137-.31.41-.547.255-.255.447-.383.574-.383ZM98.168 37.61a55.454 55.454 0 0 1-4.32 2.735c-1.367.765-2.206 1.148-2.516 1.148a.73.73 0 0 1-.328-.082 2.623 2.623 0 0 1-1.148-1.039.419.419 0 0 1-.055-.164c0-.091.045-.155.136-.191.602-.091 1.623-.401 3.063-.93 1.44-.529 3.063-1.212 4.867-2.05a.92.92 0 0 1 .41-.11c.183 0 .274.064.274.191 0 .164-.128.328-.383.492Zm-11.484.055c0-.164.21-.392.629-.684 1.677-1.111 3.117-2.196 4.32-3.253a21.061 21.061 0 0 0 3.308-3.637l-4.62.219-1.04.054c-.383 0-.693-.1-.93-.3a2.196 2.196 0 0 1-.519-.684c-.091-.255-.137-.42-.137-.492 0-.11.055-.164.164-.164l.22.054c.382.073.783.11 1.202.11h.301l6.344-.301c.437-.747.793-1.477 1.066-2.188l-2.488.137-.656.027c-.693 0-1.14-.419-1.34-1.257l-.027-.11c0-.09.045-.136.136-.136.055 0 .1.009.137.027.328.055.683.082 1.066.082h.328l3.364-.191c.182-.493.364-1.14.547-1.942l-5.223.3a13.79 13.79 0 0 1-.957.028c-.456 0-.766-.064-.93-.191-.127-.073-.282-.264-.465-.574-.182-.31-.273-.52-.273-.63 0-.109.064-.163.191-.163.073 0 .137.009.192.027.383.073.784.11 1.203.11h.3l6.262-.383.247-1.75v-.137c0-.346-.1-.638-.301-.875-.092-.128-.137-.228-.137-.3 0-.147.128-.22.383-.22s.638.064 1.148.192c.511.127.766.346.766.656v.082l-.328 2.242 5.222-.3a4.866 4.866 0 0 0 1.45-.301.68.68 0 0 1 .3-.055c.201 0 .411.082.629.246.219.164.41.355.574.574.165.2.247.356.247.465 0 .2-.174.32-.52.356l-8.203.492a31.003 31.003 0 0 1-.492 1.969l4.293-.247a8.538 8.538 0 0 0 1.011-.136.716.716 0 0 1 .219-.028c.182 0 .438.137.766.41.328.274.492.52.492.739 0 .164-.173.264-.52.3l-6.753.356c-.31.857-.648 1.595-1.012 2.215l10.691-.492a5.835 5.835 0 0 0 1.449-.274.905.905 0 0 1 .274-.054c.292 0 .647.21 1.066.628.274.274.41.493.41.657 0 .11-.054.2-.164.273a.681.681 0 0 1-.355.082l-6.809.328c2.461 2.48 5.159 4.42 8.094 5.825.146.073.264.145.356.218.109.073.164.146.164.22 0 .181-.201.427-.602.737-.383.292-.665.438-.848.438-.145 0-.711-.32-1.695-.957-.984-.656-2.142-1.531-3.473-2.625a37.61 37.61 0 0 1-3.882-3.774l-5.551.274a19.526 19.526 0 0 1-3.856 4.156c-1.44 1.167-2.77 2.07-3.992 2.707-1.203.62-1.941.93-2.215.93-.145 0-.218-.046-.218-.137Zm6.89-3.062c0-.183.091-.383.274-.602.182-.219.355-.328.52-.328.127 0 .236.036.327.11 1.222.692 2.142 1.275 2.762 1.75.128.072.191.19.191.355 0 .218-.1.474-.3.765-.183.274-.374.41-.575.41a.496.496 0 0 1-.355-.164c-.912-.783-1.75-1.412-2.516-1.886-.218-.146-.328-.283-.328-.41Zm1.75 5.988c0-.091.055-.137.164-.137.164 0 .374.064.63.191 1.002.456 1.95.775 2.843.958l-.055-9.325c0-.601-.118-1.075-.355-1.422a.468.468 0 0 1-.082-.218c0-.091.082-.137.246-.137.328 0 .72.091 1.176.273.455.183.683.456.683.82v9.845l.028.874c0 .474-.146.83-.438 1.067-.273.237-.52.355-.738.355-.255 0-.72-.218-1.395-.656a13.021 13.021 0 0 1-1.86-1.394c-.564-.493-.847-.857-.847-1.094Zm5.524-3.856c0-.182.209-.4.629-.656a8.619 8.619 0 0 0 1.886-1.613c.584-.675.93-1.222 1.039-1.64.055-.183.137-.274.246-.274.11 0 .274.09.493.273.237.164.446.365.629.602.182.237.273.456.273.656a.42.42 0 0 1-.191.355c-2.571 1.623-4.157 2.434-4.758 2.434-.164 0-.246-.046-.246-.137Zm1.121.93c0-.164.073-.328.219-.492a.75.75 0 0 1 .574-.274c.218 0 .984.374 2.297 1.121 1.33.73 2.515 1.431 3.554 2.106.255.182.401.383.438.602 0 .127-.082.319-.246.574-.146.273-.338.42-.575.437h-.054c-.11 0-.292-.09-.547-.273-1.149-.802-2.689-1.768-4.621-2.899l-.684-.41a.578.578 0 0 1-.273-.191.57.57 0 0 1-.082-.3ZM157.285 27.137c-.2 0-.446-.155-.738-.465-.219-.219-.328-.383-.328-.492 0-.055.036-.082.109-.082.073-.019.164-.028.274-.028l.601-.027c.346 0 .574-.01.684-.027.346 0 .638-.01.875-.028 1.567-.146 2.625-.264 3.172-.355.273-.037.519-.073.738-.11.219-.054.392-.082.519-.082.256 0 .511.128.766.383.201.2.301.365.301.492 0 .11-.064.183-.192.22-.091.017-.628.054-1.613.108-.547.019-1.221.064-2.023.137-.802.073-1.504.146-2.106.219-.109.018-.264.046-.465.082-.2.037-.392.055-.574.055Zm6.207 11.976c.255.164.383.32.383.465 0 .2-.155.328-.465.383-.31.055-.747.091-1.312.11-.821.018-1.349-.01-1.586-.083-.401-.182-.602-.483-.602-.902l.028-1.012a8.12 8.12 0 0 0 .054-.875c.018-.164.028-.483.028-.957a9.201 9.201 0 0 1-1.067 1.805c-.31.383-.583.702-.82.957-.237.237-.52.465-.848.684-.328.218-.629.328-.902.328-.164 0-.246-.055-.246-.164 0-.019.173-.155.519-.41.365-.274.729-.648 1.094-1.122.547-.729 1.021-1.586 1.422-2.57-.711.091-1.185.173-1.422.246a.98.98 0 0 0-.246.082.684.684 0 0 1-.274 0 2.321 2.321 0 0 1-.382-.219 2.49 2.49 0 0 1-.383-.355c-.073-.11-.11-.182-.11-.219 0-.091.137-.137.411-.137.674 0 1.54-.073 2.597-.218.11-.42.164-1.094.164-2.024v-.52c0-.218.046-.337.137-.355.018-.018.055-.027.109-.027.146 0 .347.11.602.328.201.164.328.292.383.383.073.073.082.173.027.3l-.109.22c-.055.109-.091.218-.11.328l-.109.546a5.698 5.698 0 0 0-.109.684c.255-.018.574-.055.957-.11.383-.054.665-.109.847-.163l.547-.137c.183-.037.483.118.903.465.072.054.109.118.109.191 0 .073-.037.137-.109.191a.391.391 0 0 1-.219.055c-.328 0-.93.055-1.805.164l-.902.082c.2.146.328.274.383.383a.42.42 0 0 1 .027.328l-.082.438a64.1 64.1 0 0 0-.109 1.203 8.787 8.787 0 0 0 0 1.011c0 .092.054.174.164.247.127.073.255.109.382.109.456 0 .967-.046 1.532-.137l.246-.054c.109 0 .2.018.273.054Zm5.25-11.484c.219 0 .328.1.328.3 0 .11-.1.265-.3.466-.547.674-1.632 1.96-3.254 3.855-.128.164-.246.246-.356.246-.091 0-.292-.137-.601-.41-.256-.219-.383-.401-.383-.547 0-.164.136-.319.41-.465.419-.237 1.048-.71 1.887-1.422.838-.747 1.458-1.34 1.859-1.777.164-.164.301-.246.41-.246Zm-19.168 13.918c.055 0 .091-.01.11-.027.036 0 .054-.028.054-.083.711-1.804 1.112-4.292 1.203-7.464l-1.367.054c-1.239 2.151-2.579 3.883-4.019 5.196-1.422 1.294-2.68 2.215-3.774 2.761-1.075.547-1.768.82-2.078.82-.182 0-.273-.054-.273-.163 0-.183.273-.456.82-.82a23.673 23.673 0 0 0 7.219-7.684l-2.106.082c-1.093 1.312-2.169 2.397-3.226 3.254-1.058.838-1.969 1.449-2.735 1.832-.747.383-1.239.574-1.476.574-.146 0-.219-.055-.219-.164 0-.091.064-.21.191-.356.146-.164.338-.328.575-.492 1.731-1.221 3.299-2.734 4.703-4.539l-2.762.137a21.487 21.487 0 0 1-2.324 1.695c-.784.492-1.331.738-1.641.738-.127 0-.191-.045-.191-.136 0-.2.191-.447.574-.739 1.568-1.22 3.117-2.843 4.648-4.867l-1.668.11h-.492c-.474 0-.765-.064-.875-.192-.328-.328-.556-.665-.683-1.012l-.055-.218c0-.11.055-.164.164-.164.091 0 .173.009.246.027a6.5 6.5 0 0 0 1.067.082h.328l11.976-.684c.456-.036.802-.09 1.039-.164.146-.036.246-.054.301-.054.219 0 .447.073.684.218.237.146.437.31.601.493.183.182.274.328.274.437 0 .237-.219.374-.657.41l-9.898.575a46.4 46.4 0 0 1-1.777 1.94l9.406-.464h.164c.401 0 .702.091.902.273.201.183.301.374.301.575 0 .09-.027.2-.082.328a1.188 1.188 0 0 0-.055.273 44.602 44.602 0 0 1-.82 6.754c-.182.966-.465 1.677-.848 2.133-.364.456-.729.684-1.093.684-.347 0-.857-.2-1.532-.602a12.458 12.458 0 0 1-1.859-1.285c-.565-.474-.848-.802-.848-.984 0-.092.073-.137.219-.137.219 0 .529.082.93.246.984.383 1.859.647 2.625.793h.109Zm-18.922.93c0-.128.009-.228.028-.301.109-.565.164-1.267.164-2.106l.218-16.488v-.465c0-.747-.072-1.312-.218-1.695-.128-.292-.192-.492-.192-.602 0-.127.073-.191.219-.191.237 0 .912.219 2.024.656l3.609-.328.355-.027c.146 0 .365.09.657.273.31.182.464.383.464.602 0 .11-.054.228-.164.355-.091.11-.155.2-.191.274a36.45 36.45 0 0 1-2.27 3.937.423.423 0 0 0-.054.164c0 .11.027.192.082.246.784.875 1.321 1.696 1.613 2.461.31.766.465 1.613.465 2.543 0 .638-.137 1.194-.41 1.668-.255.474-.574.711-.957.711-.274 0-.675-.21-1.203-.629-.511-.42-.985-.884-1.422-1.394-.42-.529-.629-.894-.629-1.094 0-.11.055-.164.164-.164.146 0 .383.11.711.328.383.273.775.52 1.176.738.401.2.665.301.793.301.054 0 .091-.11.109-.328.036-.219.055-.392.055-.52 0-.638-.128-1.276-.383-1.914-.237-.638-.684-1.33-1.34-2.078-.219-.273-.328-.538-.328-.793 0-.219.082-.474.246-.765.766-1.313 1.358-2.443 1.777-3.391l-3.09.273-.273 20.07c0 .511-.155.766-.465.766-.073 0-.219-.045-.437-.136a1.976 1.976 0 0 1-.629-.356.777.777 0 0 1-.274-.601Zm8.942-22.204c0-.09.082-.136.246-.136.255 0 .884.136 1.887.41l7.464-.438h.247c.309 0 .592.091.847.274.274.182.41.373.41.574a.676.676 0 0 1-.082.3c-.036.11-.064.201-.082.274l-.547 5.004c.456.438.684.757.684.957 0 .11-.064.182-.191.219-.11.036-.283.064-.52.082l-7.82.355.027.22v.081c0 .347-.155.52-.465.52-.255 0-.547-.1-.875-.301-.328-.219-.492-.428-.492-.629v-.137c.055-.364.082-.71.082-1.039l-.027-.492-.301-4.375c-.037-.492-.128-.902-.274-1.23-.145-.237-.218-.401-.218-.493Zm2.242 3.336 6.781-.382.164-1.778-7.054.383.109 1.777Zm.219 3.227 6.289-.328.164-1.996-6.59.355.137 1.969ZM201.199 30.418c-.164 0-.291-.037-.383-.11l-.136-.136a48.002 48.002 0 0 0-.657-1.203c-.346-.657-.601-1.103-.765-1.34-.347-.51-.52-.839-.52-.985 0-.2.119-.492.356-.874.364-.51.61-.921.738-1.23.237-.438.41-.776.52-1.013.109-.255.155-.455.136-.601a1.556 1.556 0 0 1-.027-.301c0-.073.018-.11.055-.11.036-.018.109-.009.218.028.183.055.392.182.629.383.055.055.119.127.192.219a.67.67 0 0 1 .136.246.229.229 0 0 1 .028.191c0 .055-.028.11-.082.164l-.137.11c-.128.163-.273.364-.438.601-.164.237-.319.456-.464.656l-.684.985c-.182.255-.273.437-.273.547 0 .054.082.2.246.437l.574.629c.547.602.802.884.766.848.346.346.519.683.519 1.011 0 .565-.182.848-.547.848Zm3.61-.082a.919.919 0 0 1-.411-.082c-.2-.2-.346-.438-.437-.711l-.574-1.012-.547-.957c-.347-.474-.52-.793-.52-.957 0-.219.119-.501.356-.848l.437-.628c.183-.31.283-.493.301-.547.182-.365.337-.684.465-.957.146-.292.21-.51.191-.657a1.165 1.165 0 0 1-.027-.273c0-.146.082-.182.246-.11.237.092.492.238.766.438.127.128.209.237.246.328a.496.496 0 0 1 .082.301c0 .037-.064.11-.192.219a1.755 1.755 0 0 0-.328.3c-.109.11-.355.456-.738 1.04-.073.109-.164.237-.273.383-.092.127-.21.3-.356.519-.182.237-.273.41-.273.52 0 .109.109.273.328.492.073.073.146.164.219.273l.328.328.711.793c.346.31.519.61.519.903 0 .601-.173.902-.519.902Zm.355 9.105c-.273 0-.538-.2-.793-.601a8.644 8.644 0 0 0-.957-1.258l-.711-.738c-.383.437-.72.784-1.012 1.039a5.413 5.413 0 0 1-1.039.738c-.784.456-1.44.684-1.968.684-.128 0-.192-.046-.192-.137 0-.055.173-.173.52-.355.346-.183.674-.402.984-.657.784-.656 1.431-1.33 1.942-2.023-.11-.11-.657-.584-1.641-1.422a9.141 9.141 0 0 1-.574-.465 7.016 7.016 0 0 1-.328-.246c-.165-.128-.247-.219-.247-.273 0-.092.046-.137.137-.137.274 0 .711.191 1.313.574.601.365 1.23.802 1.886 1.313.256-.31.456-.602.602-.875.146-.274.31-.611.492-1.012.091-.2.146-.374.164-.52.018-.164.028-.264.028-.3 0-.201.054-.301.164-.301.127 0 .3.1.519.3.383.365.574.611.574.739 0 .073-.045.155-.136.246-.219.219-.42.51-.602.875-.109.219-.31.529-.601.93-.092.109-.165.21-.219.3-.055.091-.11.174-.164.246.419.31 1.039.839 1.859 1.586.201.183.328.356.383.52.073.146.109.346.109.602a.78.78 0 0 1-.136.464.443.443 0 0 1-.356.164Zm2.078-9.625c.091 0 .228.064.41.192-.018.036.019.11.11.219l.191.191c.091.091.182.2.274.328.109.128.227.264.355.41.328.347 1.085 1.249 2.27 2.707.2.292.3.465.3.52 0 .182-.109.273-.328.273-.127 0-.264-.09-.41-.273-.346-.365-.966-.939-1.859-1.723-.693-.638-1.322-1.13-1.887-1.476-.273-.128-.41-.274-.41-.438 0-.127.137-.31.41-.547.255-.255.447-.383.574-.383Zm-14.027-3.062c-.784 3.226-1.823 5.988-3.117 8.285 1.659 2.443 3.819 4.703 6.48 6.781.201.146.301.283.301.41 0 .146-.21.338-.629.575-.401.255-.684.383-.848.383-.237 0-.738-.374-1.504-1.122a41.369 41.369 0 0 1-2.515-2.652c-.893-1.057-1.632-2.014-2.215-2.871a20.2 20.2 0 0 1-2.953 3.473c-1.076 1.002-2.078 1.777-3.008 2.324-.911.565-1.531.847-1.859.847-.146 0-.219-.054-.219-.164 0-.164.173-.382.519-.656a28.16 28.16 0 0 0 3.61-3.336 25.062 25.062 0 0 0 2.953-4.02 32.588 32.588 0 0 1-2.707-5.769 17.852 17.852 0 0 1-1.75 2.516c-.602.71-.994 1.066-1.176 1.066-.091 0-.137-.064-.137-.191 0-.219.101-.502.301-.848.875-1.64 1.641-3.3 2.297-4.976.656-1.678 1.158-3.136 1.504-4.375.365-1.258.547-2.051.547-2.38 0-.218-.009-.391-.028-.519v-.055c0-.145.092-.218.274-.218.292 0 .656.164 1.094.492.455.31.683.601.683.875 0 .237-.237.975-.711 2.215a60.028 60.028 0 0 1-1.148 2.898l5.578-.383c.401-.018.811-.109 1.23-.273.146-.037.237-.055.274-.055.219 0 .529.155.93.465.401.292.601.556.601.793 0 .2-.191.32-.574.355l-2.078.11Zm-22.039.055c0-.092.045-.137.136-.137.073 0 .128.009.165.027.273.091.647.137 1.121.137h.273l4.047-.219.027-4.812c0-.183-.027-.365-.082-.547a2.938 2.938 0 0 0-.246-.574.487.487 0 0 1-.082-.247c0-.145.119-.218.356-.218.2 0 .501.054.902.164.602.146.902.41.902.793l-.109 5.36 2.242-.138a5.522 5.522 0 0 0 1.504-.246 1.162 1.162 0 0 1 .957.219c.237.146.428.32.574.52.164.2.246.346.246.437 0 .255-.218.401-.656.438l-4.894.273-.11 4.484 2.516-.136.301-.028c.255 0 .519.119.793.356.273.219.41.428.41.629 0 .09-.037.2-.11.328-.073.128-.109.228-.109.3l-.602 4.868c.456.565.684.948.684 1.148 0 .128-.055.21-.164.246a5.223 5.223 0 0 1-.547.055l-5.933.164.082 1.094v.082a.62.62 0 0 1-.137.41c-.073.11-.192.164-.356.164-.255 0-.556-.11-.902-.328-.328-.2-.492-.428-.492-.684a.84.84 0 0 1 .027-.246 5.63 5.63 0 0 0 .082-.984l-.027-.574-.356-5.14c-.036-.548-.136-1.004-.3-1.368-.092-.182-.137-.328-.137-.438 0-.127.091-.191.273-.191.292 0 .894.155 1.805.465l1.613-.082.028-4.485-3.555.192-.547.027c-.456 0-.766-.082-.93-.246a2.278 2.278 0 0 1-.519-.765c-.11-.292-.164-.475-.164-.547Zm4.402 12.195 4.457-.164.438-4.977-5.25.274.355 4.867Zm10.91-11.594c.711 2.188 1.568 4.184 2.571 5.988.838-1.695 1.567-3.864 2.187-6.507l-4.648.328-.11.191ZM240.52 36.078a.687.687 0 0 1-.247-.027c-.018-.037.01-.1.082-.192.256-.237.456-.465.602-.683.164-.237.337-.61.52-1.121.291-.839.437-1.486.437-1.942 0-.419-.027-.802-.082-1.148v-.082c0-.2.128-.264.383-.192.219.055.465.128.738.22a.83.83 0 0 1 .246-.028c.11-.018.283-.046.52-.082.62-.091 1.422-.182 2.406-.274 0-.073.073-.328.219-.765l.164-.602c.073-.255.045-.383-.082-.383-.365 0-1.212.091-2.543.274l-1.449.246c-.128.018-.292-.037-.493-.164a1.659 1.659 0 0 1-.437-.438c-.091-.164-.073-.273.055-.328a.815.815 0 0 1 .437-.137h.629l1.805-.054 1.75-.219c.091-.018.2-.046.328-.082.146-.055.282-.091.41-.11.182-.036.492.165.93.602a.34.34 0 0 1 .109.246c0 .11-.073.219-.219.328-.2.2-.328.374-.383.52a4.715 4.715 0 0 1-.109.41 6.066 6.066 0 0 0-.164.629.692.692 0 0 1 .164.465c0 .146-.045.255-.137.328-.073.055-.227.082-.464.082-.821.055-1.468.11-1.942.164-.474.037-1.048.128-1.723.273a8.763 8.763 0 0 1-.492 2.27c-.255.675-.61 1.185-1.066 1.531-.438.31-.738.465-.902.465Zm8.722-10.363c.091 0 .228.064.41.191-.018.037.019.11.11.219l.191.191c.091.092.182.2.274.329.109.127.227.264.355.41.328.346 1.085 1.248 2.27 2.707.2.291.3.465.3.52 0 .181-.109.273-.328.273-.127 0-.264-.091-.41-.274-.346-.364-.966-.939-1.859-1.722-.693-.638-1.322-1.13-1.887-1.477-.273-.128-.41-.273-.41-.438 0-.127.137-.31.41-.546.255-.256.447-.383.574-.383Zm-16.433 10.473c.437.455.656.783.656.984 0 .128-.064.21-.192.246a2.474 2.474 0 0 1-.546.082l-6.508.273V40.7l.027.684c.018.127.027.319.027.574 0 .565-.164 1.02-.492 1.367-.328.365-.692.547-1.093.547-.329 0-.857-.228-1.586-.684a15.293 15.293 0 0 1-2.024-1.503c-.62-.53-.93-.884-.93-1.067 0-.146.101-.219.301-.219.183 0 .365.046.547.137 1.495.638 2.68 1.057 3.555 1.258v-3.965l-5.196.219-.738.027c-.638 0-1.103-.373-1.394-1.12a.624.624 0 0 1-.082-.247c0-.091.045-.137.136-.137l.219.055c.201.073.52.11.957.11h.328l5.77-.22v-1.722l-9.27.41h-.191c-.365 0-.693-.064-.985-.191-.291-.146-.51-.483-.656-1.012a.308.308 0 0 1-.027-.137c0-.09.055-.136.164-.136l.164.027c.365.091.684.137.957.137h.219l9.625-.41v-1.504l-5.442.273h-.382c-.456 0-.812-.091-1.067-.273-.237-.183-.401-.374-.492-.575-.073-.2-.109-.346-.109-.437 0-.091.045-.137.136-.137.073 0 .128.01.164.027.401.092.73.137.985.137l.41-.027 5.769-.328V29.05l-4.812.219.027.218v.11c0 .237-.155.355-.465.355-.2 0-.464-.045-.793-.137-.309-.109-.464-.319-.464-.628v-.657c0-.255-.009-.446-.028-.574l-.191-1.477c-.055-.528-.201-.966-.438-1.312-.127-.2-.191-.346-.191-.438 0-.127.1-.19.301-.19.328 0 .957.163 1.886.491l5.168-.3v-1.587l-7.765.438a6.202 6.202 0 0 1-.656.027c-.383 0-.693-.1-.93-.3-.219-.2-.383-.41-.492-.63-.091-.236-.137-.391-.137-.464 0-.091.055-.137.164-.137.073 0 .137.01.191.027.365.092.739.137 1.122.137h.246l8.257-.492v-1.367c0-.565-.136-1.021-.41-1.367a.486.486 0 0 1-.082-.192c0-.11.101-.164.301-.164.219 0 .474.046.766.137.455.127.747.264.875.41.127.146.191.365.191.656v1.778l6.973-.41c.255-.019.51-.064.765-.137.256-.091.42-.146.493-.164a.38.38 0 0 1 .164-.028c.255 0 .565.164.929.492.365.329.547.593.547.794 0 .2-.2.319-.601.355l-9.27.52v1.585l5.606-.328.437-.027c.237 0 .483.082.738.246.274.146.41.32.41.52 0 .109-.045.227-.136.355a1.8 1.8 0 0 0-.137.273l-.437 1.723c.455.438.683.748.683.93 0 .127-.064.21-.191.246a3.166 3.166 0 0 1-.602.082l-6.344.3v1.587l6.071-.356.3-.027c.237 0 .493.1.766.3.292.183.438.429.438.739 0 .091-.037.21-.11.355-.073.146-.109.256-.109.329l-.219 1.203 2.078-.082c.31-.019.593-.073.848-.164.255-.092.41-.146.465-.164.146-.037.246-.055.301-.055.182 0 .464.146.847.437.383.292.574.547.574.766 0 .219-.246.346-.738.383l-4.594.191-.3 1.778Zm-13.235-8.122 4.949-.246v-1.886l-5.168.3.219 1.832Zm6.645 8.395 5.031-.191.246-1.778-5.305.246.028 1.723Zm5.441-3.281.219-1.586-5.688.3v1.504l5.469-.218Zm-.601-5.688.328-1.941-5.196.3v1.887l4.868-.246ZM288.316 30.582c-.127 0-.264-.082-.41-.246a1.656 1.656 0 0 1-.218-.3c-.037-.092-.037-.21 0-.356l.027-.657c.018-.127.027-.437.027-.93v-.902l-.82.383-.957.41c-.237.091-.483.2-.738.328-.219.11-.411.165-.575.165a1.694 1.694 0 0 1-.437-.137 3.678 3.678 0 0 1-.383-.192c-.2-.127-.292-.264-.273-.41l.082-.273c0-.146.009-.274.027-.383l.027-1.586V24.02c0-.292-.018-.538-.054-.739a20.679 20.679 0 0 0-.082-.465c0-.09.027-.154.082-.191.018-.018.063-.027.136-.027.128 0 .374.082.739.246.31.146.437.328.382.547a4.866 4.866 0 0 0-.109.574l-.082 3.144a.72.72 0 0 0 .027.22c.037.036.073.054.11.054.218 0 .483-.064.793-.192a15.257 15.257 0 0 0 1.504-.546l.601-.247v-1.804c0-.73-.045-1.431-.137-2.106a.613.613 0 0 1-.027-.191c0-.182.073-.274.219-.274.018 0 .118.037.301.11.273.146.474.273.601.383.128.109.201.173.219.191.073.055.109.11.109.164a.268.268 0 0 1-.054.137c-.019.055-.037.1-.055.137l-.082.82-.027 2.515.027 2.434c0 .42-.027.784-.082 1.094-.091.383-.237.574-.438.574Zm-5.031 6.125c-.2 0-.446-.155-.738-.465-.219-.219-.328-.383-.328-.492 0-.055.036-.082.109-.082.073-.018.164-.027.274-.027l.601-.028c.346 0 .574-.009.684-.027.346 0 .638-.01.875-.027 1.567-.146 2.625-.265 3.172-.356.273-.036.519-.073.738-.11.219-.054.392-.081.519-.081.256 0 .511.127.766.383.201.2.301.364.301.492 0 .11-.064.182-.192.218-.091.019-.628.055-1.613.11-.547.018-1.221.064-2.023.137-.802.073-1.504.145-2.106.218l-.465.082c-.2.037-.392.055-.574.055Zm11.457-9.078c.219 0 .328.1.328.3 0 .11-.1.265-.3.466-.547.674-1.632 1.96-3.254 3.855-.128.164-.246.246-.356.246-.091 0-.292-.137-.601-.41-.256-.219-.383-.401-.383-.547 0-.164.136-.319.41-.465.419-.237 1.048-.71 1.887-1.422.838-.747 1.458-1.34 1.859-1.777.164-.164.301-.246.41-.246Zm-26.387 15.394c0 .401-.154.602-.464.602-.237 0-.511-.1-.821-.3-.31-.201-.465-.475-.465-.821 0-.11.01-.2.028-.273.073-.347.109-.876.109-1.587l.028-4.867-8.067.383h-.492c-.419 0-.766-.064-1.039-.191-.274-.146-.501-.483-.684-1.012a.307.307 0 0 1-.027-.137c0-.09.046-.136.137-.136.073 0 .127.009.164.027.291.073.665.11 1.121.11h.328l8.559-.41V34c0-.456-.11-.857-.329-1.203-.091-.146-.136-.264-.136-.356 0-.127.091-.191.273-.191.328 0 .711.1 1.149.3.437.183.656.42.656.712v1.093l8.094-.382c.328-.037.647-.11.957-.22a.467.467 0 0 1 .191-.026c.182 0 .447.145.793.437.346.273.52.51.52.711 0 .2-.183.319-.547.355l-10.008.465-.028 7.328Zm-12.441-14.601c0-.164.128-.365.383-.602a64.66 64.66 0 0 0 4.457-4.84c1.476-1.786 2.215-3.108 2.215-3.964v-.11c0-.218.1-.328.301-.328.127 0 .328.073.601.219.292.127.538.291.738.492.219.182.329.365.329.547 0 .146-.237.529-.711 1.148a99.553 99.553 0 0 1-1.094 1.422l6.59-.437a1.024 1.024 0 0 1-.328-.301c-.529-.638-1.222-1.322-2.079-2.05-.109-.092-.164-.183-.164-.274 0-.091.082-.237.246-.438.164-.218.319-.328.465-.328.128 0 .438.182.93.547.492.365.948.756 1.367 1.176.419.4.629.674.629.82 0 .182-.1.374-.301.574-.109.11-.218.192-.328.246l3.5-.218c.328-.019.638-.091.93-.22a.894.894 0 0 1 .273-.054c.201 0 .456.128.766.383.328.255.492.501.492.738 0 .11-.045.2-.137.274a.682.682 0 0 1-.355.082h-.082l-6.699.41-.028 1.586 3.418-.192c.438-.036.748-.1.93-.19a.68.68 0 0 1 .301-.083c.146 0 .383.128.711.383.328.237.492.456.492.656 0 .091-.055.164-.164.219a.873.873 0 0 1-.328.11l-5.36.3-.027 1.531 3.801-.218c.291-.019.592-.082.902-.192a.868.868 0 0 1 .246-.055c.128 0 .356.128.684.383.328.237.492.465.492.684 0 .091-.046.173-.137.246a.491.491 0 0 1-.301.082h-.082l-5.605.273-.027 1.723 6.289-.355c.401-.037.711-.092.929-.165l.219-.054c.182 0 .438.127.766.383.346.255.519.5.519.738 0 .2-.164.319-.492.355l-15.094.793v.684c0 .437-.155.656-.464.656a2.402 2.402 0 0 1-.985-.41c-.255-.2-.383-.474-.383-.82 0-.11.009-.2.028-.274.091-.474.136-.975.136-1.504l.055-5.113a29.645 29.645 0 0 1-2.543 2.133c-.857.638-1.413.957-1.668.957-.109 0-.164-.055-.164-.164Zm1.066 13.808c0-.2.228-.464.684-.792a19.515 19.515 0 0 0 2.898-2.544c.93-1.002 1.495-1.786 1.696-2.351.091-.2.182-.3.273-.3.091 0 .246.1.465.3.237.182.438.401.602.656.182.237.273.447.273.63 0 .236-.465.737-1.394 1.503a24.023 24.023 0 0 1-2.981 2.078c-1.057.656-1.814.985-2.269.985-.165 0-.247-.055-.247-.165Zm10.282-17.199.027-1.586-5.332.328-.164.192v1.367l5.469-.3Zm-5.414 2.98 5.386-.273v-1.504l-5.414.301.028 1.477Zm.027 2.927 5.305-.274.027-1.723-5.359.274.027 1.723Zm9.461 6.097c0-.164.082-.346.246-.547.164-.2.356-.3.574-.3.219 0 .921.428 2.106 1.285a52.218 52.218 0 0 1 3.254 2.543c.273.237.41.474.41.71 0 .128-.082.338-.246.63-.164.291-.365.437-.602.437-.146 0-.346-.11-.601-.328a48.84 48.84 0 0 0-4.813-3.883c-.219-.164-.328-.346-.328-.547Z"/></svg>