<svg width="340" height="60" viewBox="0 0 340 60" fill="none" xmlns="http://www.w3.org/2000/svg">
<path d="M76.2109 26.9453C76.1016 26.9453 75.9557 26.8268 75.7734 26.5898C75.5911 26.3346 75.5091 26.1159 75.5273 25.9336C75.5638 25.7878 75.5911 25.3776 75.6094 24.7031C75.6276 24.2474 75.6367 23.4453 75.6367 22.2969C75.6367 21.4948 75.6276 20.957 75.6094 20.6836L74.707 20.7656C74.069 20.8568 73.5221 20.9023 73.0664 20.9023C72.9388 20.9023 72.7565 20.8021 72.5195 20.6016C72.2826 20.401 72.1641 20.2552 72.1641 20.1641C72.1641 20.0182 72.319 19.9635 72.6289 20C72.8294 20.0182 73.4219 20.0091 74.4062 19.9727C75.7552 19.8815 76.7305 19.8268 77.332 19.8086C77.6419 19.7904 77.9245 19.763 78.1797 19.7266C78.4531 19.6719 78.6445 19.6354 78.7539 19.6172C78.918 19.599 79.0638 19.6172 79.1914 19.6719C79.319 19.7266 79.4375 19.7995 79.5469 19.8906C79.6745 19.9635 79.7747 20.0182 79.8477 20.0547C80.0117 20.1641 80.0938 20.2643 80.0938 20.3555C80.0938 20.4284 80.0482 20.5013 79.957 20.5742C79.8841 20.6289 79.8021 20.6562 79.7109 20.6562C79.6198 20.6562 79.4922 20.6471 79.3281 20.6289C79.1823 20.6107 79.0182 20.6016 78.8359 20.6016C78.1615 20.6016 77.4688 20.6198 76.7578 20.6562C76.7396 20.8021 76.7305 21.1667 76.7305 21.75C76.694 22.7344 76.6758 23.7005 76.6758 24.6484V25.7148V25.9609C76.6758 26.2708 76.6484 26.4714 76.5938 26.5625C76.4297 26.8177 76.3021 26.9453 76.2109 26.9453ZM73.2852 31.7852C73.0846 31.7852 72.8385 31.6302 72.5469 31.3203C72.3281 31.1016 72.2188 30.9375 72.2188 30.8281C72.2188 30.7734 72.2552 30.7461 72.3281 30.7461C72.401 30.7279 72.4922 30.7188 72.6016 30.7188L73.2031 30.6914C73.5495 30.6914 73.7773 30.6823 73.8867 30.6641C74.2331 30.6641 74.5247 30.6549 74.7617 30.6367C76.3294 30.4909 77.3867 30.3724 77.9336 30.2812C78.207 30.2448 78.4531 30.2083 78.6719 30.1719C78.8906 30.1172 79.0638 30.0898 79.1914 30.0898C79.4466 30.0898 79.7018 30.2174 79.957 30.4727C80.1576 30.6732 80.2578 30.8372 80.2578 30.9648C80.2578 31.0742 80.194 31.1471 80.0664 31.1836C79.9753 31.2018 79.4375 31.2383 78.4531 31.293C77.9062 31.3112 77.2318 31.3568 76.4297 31.4297C75.6276 31.5026 74.9258 31.5755 74.3242 31.6484C74.2148 31.6667 74.0599 31.694 73.8594 31.7305C73.6589 31.7669 73.4674 31.7852 73.2852 31.7852ZM79.1641 41.2188C79.2005 41.2917 79.2643 41.401 79.3555 41.5469C79.4466 41.6927 79.4922 41.8659 79.4922 42.0664C79.4922 42.2487 79.4193 42.3945 79.2734 42.5039C79.1276 42.6315 78.9635 42.6953 78.7812 42.6953C78.6172 42.6953 78.4805 42.5312 78.3711 42.2031C78.3164 42.0755 78.2708 41.9661 78.2344 41.875C78.2161 41.8021 78.1979 41.7383 78.1797 41.6836C77.9427 41.7565 77.6328 41.8203 77.25 41.875C76.8672 41.9297 76.5938 41.9753 76.4297 42.0117C75.5547 42.1758 74.9531 42.2943 74.625 42.3672C74.4974 42.4036 74.3607 42.4401 74.2148 42.4766C74.069 42.5312 73.987 42.5677 73.9688 42.5859C73.8594 42.6224 73.7773 42.6406 73.7227 42.6406C73.5768 42.6406 73.4401 42.5768 73.3125 42.4492C73.0938 42.2852 72.9297 42.0664 72.8203 41.793C72.8021 41.7747 72.793 41.7474 72.793 41.7109C72.793 41.6745 72.8385 41.6289 72.9297 41.5742C73.0391 41.5195 73.1211 41.4831 73.1758 41.4648C73.4128 41.3372 73.832 40.9544 74.4336 40.3164L75.1719 39.6055L73.5586 38.7305C73.3763 38.6758 73.2578 38.612 73.2031 38.5391C73.1484 38.4661 73.1211 38.3568 73.1211 38.2109C73.1211 38.1016 73.1393 38.0286 73.1758 37.9922C73.2305 37.9375 73.3398 37.8555 73.5039 37.7461C73.668 37.6367 73.832 37.4909 73.9961 37.3086C74.0872 37.1992 74.2057 37.0807 74.3516 36.9531C74.4974 36.8255 74.6341 36.6888 74.7617 36.543C75.3086 35.9049 75.6549 35.4036 75.8008 35.0391C75.8919 34.8568 75.9648 34.7656 76.0195 34.7656C76.056 34.7656 76.1289 34.8021 76.2383 34.875C76.5846 35.1302 76.7943 35.3672 76.8672 35.5859V35.668C76.8672 35.7591 76.8216 35.832 76.7305 35.8867C76.6393 35.9414 76.5755 35.987 76.5391 36.0234C76.4844 36.0599 76.2109 36.3242 75.7188 36.8164L75.2266 37.3086C75.1354 37.3997 74.9805 37.5547 74.7617 37.7734C74.543 37.974 74.4336 38.0924 74.4336 38.1289C74.4336 38.1836 74.4609 38.2292 74.5156 38.2656C74.5885 38.3021 74.6432 38.3385 74.6797 38.375L75.8281 38.9219C76.5391 38.2109 76.9492 37.7917 77.0586 37.6641C77.5326 37.1172 77.7969 36.7708 77.8516 36.625C77.8698 36.6068 77.8971 36.5612 77.9336 36.4883C77.9701 36.4154 78.0065 36.3789 78.043 36.3789C78.0977 36.3789 78.1523 36.4062 78.207 36.4609C78.4987 36.7344 78.7083 36.9896 78.8359 37.2266C78.8724 37.2995 78.8906 37.3451 78.8906 37.3633C78.8906 37.3997 78.8451 37.4544 78.7539 37.5273C78.681 37.582 78.6081 37.6367 78.5352 37.6914C77.8971 38.2201 77.1497 38.9128 76.293 39.7695L74.625 41.3281C74.5885 41.3646 74.5703 41.401 74.5703 41.4375C74.5703 41.474 74.5885 41.5013 74.625 41.5195C74.6615 41.5378 74.7161 41.5378 74.7891 41.5195L77.9883 40.9727C77.8971 40.6081 77.7878 40.2435 77.6602 39.8789V39.8242C77.6602 39.7695 77.6875 39.7422 77.7422 39.7422C77.8151 39.7422 77.9245 39.7969 78.0703 39.9062C78.362 40.1615 78.7266 40.599 79.1641 41.2188ZM84.8516 32.4414C84.9062 32.4414 84.9609 32.4688 85.0156 32.5234C85.0703 32.5599 85.1068 32.6146 85.125 32.6875V32.7422C85.125 32.8698 85.0247 33.1159 84.8242 33.4805L82.8555 36.8984C82.7096 37.2083 82.5182 37.3633 82.2812 37.3633C82.0443 37.3633 81.8438 37.2174 81.6797 36.9258C81.5156 36.6888 81.3151 36.3333 81.0781 35.8594C80.9688 35.6953 80.8776 35.5312 80.8047 35.3672C80.7318 35.2031 80.6771 35.0846 80.6406 35.0117C80.4401 34.6654 80.3398 34.4193 80.3398 34.2734C80.3398 34.2005 80.3672 34.1458 80.4219 34.1094C80.4766 34.0547 80.5312 34.0273 80.5859 34.0273C80.7865 34.0273 80.9688 34.1367 81.1328 34.3555C81.2604 34.4831 81.3607 34.6198 81.4336 34.7656L81.7344 35.1758L82.2812 35.8047L82.5273 35.4219C82.7826 34.9844 83.3841 34.1185 84.332 32.8242C84.5326 32.569 84.7057 32.4414 84.8516 32.4414ZM57.2344 20.6562C57.2344 20.2188 57.1159 19.8542 56.8789 19.5625C56.7878 19.4349 56.7422 19.3529 56.7422 19.3164C56.7422 19.207 56.8424 19.1523 57.043 19.1523C57.1888 19.1523 57.4349 19.1888 57.7812 19.2617C58.1276 19.3346 58.4466 19.444 58.7383 19.5898C59.0299 19.7357 59.1758 19.9089 59.1758 20.1094L59.0938 40.3164L59.1211 41.4102C59.1211 42.0117 58.957 42.431 58.6289 42.668C58.3008 42.9049 58.0182 43.0234 57.7812 43.0234C57.5078 43.0234 56.8607 42.7409 55.8398 42.1758C54.8372 41.6107 53.8984 41.0182 53.0234 40.3984C52.1484 39.7604 51.7109 39.3229 51.7109 39.0859C51.7109 38.9219 51.8294 38.8398 52.0664 38.8398C52.2669 38.8398 52.5039 38.9036 52.7773 39.0312C54.6185 39.8151 56.0768 40.3529 57.1523 40.6445L57.2344 20.6562ZM45.6406 37.418C45.6406 37.2539 45.75 36.9987 45.9688 36.6523C47.2083 34.8294 48.2201 33.1888 49.0039 31.7305C49.7878 30.2539 50.3893 28.6771 50.8086 27C50.8815 26.7083 50.918 26.4896 50.918 26.3438C50.918 26.1979 50.8906 26.043 50.8359 25.8789C50.8177 25.8242 50.8086 25.7604 50.8086 25.6875C50.8086 25.5234 50.8997 25.4414 51.082 25.4414C51.3555 25.4414 51.7656 25.6055 52.3125 25.9336C52.9323 26.2982 53.2422 26.6354 53.2422 26.9453C53.2422 27.0365 53.2331 27.1003 53.2148 27.1367C52.3398 29.1966 51.3737 31.0195 50.3164 32.6055C49.2591 34.1732 48.3021 35.4036 47.4453 36.2969C46.6068 37.1719 46.0599 37.6094 45.8047 37.6094C45.6953 37.6094 45.6406 37.5456 45.6406 37.418ZM62.4844 26.4531C62.4844 26.2708 62.6211 26.0703 62.8945 25.8516C63.168 25.6146 63.4323 25.4961 63.6875 25.4961C63.888 25.4961 64.0612 25.5964 64.207 25.7969C65.0456 26.8724 65.9388 28.1393 66.8867 29.5977C67.8346 31.056 68.6367 32.3685 69.293 33.5352C69.9492 34.6836 70.2773 35.349 70.2773 35.5312C70.2773 35.7318 70.1862 35.9141 70.0039 36.0781C69.8216 36.2422 69.612 36.3789 69.375 36.4883C69.1562 36.5977 68.9922 36.6523 68.8828 36.6523C68.6458 36.6523 68.4544 36.5156 68.3086 36.2422C67.3607 34.3281 66.4401 32.6328 65.5469 31.1562C64.6719 29.6615 63.7057 28.2305 62.6484 26.8633C62.5391 26.7174 62.4844 26.5807 62.4844 26.4531Z" fill="#333333"/>
<path d="M121.027 29.8164C120.754 29.8164 120.553 29.6706 120.426 29.3789L120.18 28.832C119.469 29.0143 118.895 29.151 118.457 29.2422L116.68 29.6797C116.315 29.7708 116.087 29.8164 115.996 29.8164C115.887 29.8164 115.796 29.7982 115.723 29.7617C115.668 29.707 115.622 29.6615 115.586 29.625C115.549 29.5703 115.522 29.5247 115.504 29.4883C115.358 29.2331 115.294 29.0599 115.312 28.9688L115.504 28.668C115.978 28.0117 116.415 27.0729 116.816 25.8516L116.27 25.9336L115.559 26.0156C115.504 26.0339 115.385 26.0703 115.203 26.125C115.039 26.1615 114.911 26.1523 114.82 26.0977C114.62 25.9701 114.355 25.7422 114.027 25.4141C113.954 25.3411 113.918 25.2865 113.918 25.25C113.918 25.1406 114.118 25.0859 114.52 25.0859H115.449C116.069 25.0495 116.634 25.0039 117.145 24.9492C117.254 24.6758 117.372 24.3294 117.5 23.9102C117.628 23.4909 117.719 23.1536 117.773 22.8984C117.773 22.8438 117.773 22.7344 117.773 22.5703C117.792 22.4062 117.828 22.306 117.883 22.2695H117.91C117.983 22.2695 118.083 22.306 118.211 22.3789C118.339 22.4518 118.457 22.543 118.566 22.6523C118.913 22.9987 119.013 23.2721 118.867 23.4727C118.794 23.4909 118.639 23.7917 118.402 24.375C118.384 24.4115 118.32 24.5755 118.211 24.8672C118.357 24.849 118.885 24.7852 119.797 24.6758C120.216 24.6393 120.535 24.5938 120.754 24.5391C121.064 24.4479 121.31 24.4023 121.492 24.4023C121.638 24.4023 121.757 24.457 121.848 24.5664C121.939 24.6576 122.003 24.7214 122.039 24.7578C122.094 24.8125 122.158 24.9219 122.23 25.0859C122.303 25.2135 122.331 25.3047 122.312 25.3594C122.24 25.4688 122.112 25.5234 121.93 25.5234C121.328 25.487 120.608 25.5052 119.77 25.5781C119.405 25.6146 119.132 25.651 118.949 25.6875L117.883 25.7969L117.637 26.5352L117.336 27.1914C117.245 27.4102 117.145 27.6289 117.035 27.8477C116.926 28.0664 116.844 28.2487 116.789 28.3945C116.771 28.431 116.762 28.4857 116.762 28.5586C116.762 28.6497 116.816 28.6953 116.926 28.6953C117.072 28.6953 117.573 28.6133 118.43 28.4492L119.441 28.2852L119.906 28.1758C119.742 27.7201 119.615 27.4284 119.523 27.3008C119.432 27.1732 119.378 27.0911 119.359 27.0547L119.523 26.8906C120.234 27.3464 120.809 27.8112 121.246 28.2852C121.374 28.4492 121.456 28.6042 121.492 28.75C121.547 28.8958 121.565 29.0599 121.547 29.2422C121.51 29.4062 121.447 29.5339 121.355 29.625C121.319 29.7161 121.21 29.7799 121.027 29.8164ZM118.785 39.7148C118.785 39.6966 118.831 39.6328 118.922 39.5234C119.031 39.3958 119.15 39.2409 119.277 39.0586C119.496 38.7487 119.715 38.293 119.934 37.6914C120.152 37.0898 120.271 36.5339 120.289 36.0234C120.289 35.987 120.271 35.9505 120.234 35.9141C120.216 35.8594 120.171 35.832 120.098 35.832L119.469 35.8867L118.539 35.9688C118.339 36.625 117.992 37.3359 117.5 38.1016C117.281 38.4479 116.98 38.7578 116.598 39.0312C116.233 39.2865 115.878 39.4688 115.531 39.5781C115.422 39.6146 115.285 39.6328 115.121 39.6328C114.993 39.6146 114.93 39.5781 114.93 39.5234C114.93 39.4505 114.993 39.3867 115.121 39.332C115.34 39.1862 115.586 38.9583 115.859 38.6484C116.151 38.3385 116.406 38.0195 116.625 37.6914C116.753 37.5091 116.889 37.2721 117.035 36.9805C117.181 36.6706 117.299 36.388 117.391 36.1328C116.807 36.2057 116.206 36.3424 115.586 36.543C115.549 36.5794 115.486 36.5977 115.395 36.5977C115.34 36.5977 115.258 36.5612 115.148 36.4883C115.003 36.3424 114.902 36.2331 114.848 36.1602C114.811 36.069 114.829 35.987 114.902 35.9141L115.012 35.6953C115.085 35.5859 115.158 35.3672 115.23 35.0391C115.303 34.7109 115.34 34.4466 115.34 34.2461C115.34 34.1914 115.331 34.1276 115.312 34.0547C115.312 33.9635 115.322 33.918 115.34 33.918C115.376 33.8997 115.422 33.8997 115.477 33.918C115.677 33.9544 115.859 34.0182 116.023 34.1094C116.169 34.2005 116.27 34.3008 116.324 34.4102C116.397 34.5013 116.397 34.5833 116.324 34.6562C116.306 34.6745 116.279 34.7109 116.242 34.7656C116.206 34.8021 116.178 34.8568 116.16 34.9297C116.142 34.9479 116.105 35.1484 116.051 35.5312C116.051 35.5495 116.06 35.5677 116.078 35.5859C116.115 35.6042 116.151 35.6042 116.188 35.5859C116.242 35.5859 116.324 35.5768 116.434 35.5586C116.543 35.5404 116.625 35.5221 116.68 35.5039C116.807 35.4857 116.953 35.4583 117.117 35.4219C117.299 35.3854 117.464 35.3581 117.609 35.3398C117.664 35.1393 117.701 34.9206 117.719 34.6836C117.755 34.4284 117.783 34.2552 117.801 34.1641L117.828 33.5898V33.3984C117.245 33.4167 116.634 33.4714 115.996 33.5625L115.504 33.6445H115.395C115.303 33.6445 115.212 33.6172 115.121 33.5625C115.048 33.5078 114.966 33.444 114.875 33.3711C114.638 33.1523 114.52 32.9883 114.52 32.8789C114.52 32.7695 114.602 32.7331 114.766 32.7695C114.984 32.806 115.212 32.8242 115.449 32.8242L116.242 32.7969L120.043 32.5234C120.189 32.5052 120.326 32.487 120.453 32.4688C120.581 32.4323 120.708 32.4049 120.836 32.3867H120.918C121.155 32.3867 121.319 32.4323 121.41 32.5234C121.52 32.5964 121.583 32.6419 121.602 32.6602C121.893 32.8971 122.039 33.0794 122.039 33.207C122.039 33.3164 121.884 33.362 121.574 33.3438L121.027 33.2891C120.553 33.2708 119.842 33.2891 118.895 33.3438L118.785 34.4102C118.767 34.5924 118.749 34.7383 118.73 34.8477C118.712 34.957 118.694 35.0482 118.676 35.1211L118.648 35.2031C119.086 35.1667 119.596 35.112 120.18 35.0391C120.216 35.0208 120.28 35.0026 120.371 34.9844C120.462 34.9479 120.553 34.9206 120.645 34.9023H120.699C120.809 34.9023 120.918 34.9479 121.027 35.0391C121.137 35.1302 121.201 35.1849 121.219 35.2031C121.365 35.3307 121.465 35.4401 121.52 35.5312C121.592 35.6042 121.602 35.668 121.547 35.7227C121.51 35.7956 121.465 35.8685 121.41 35.9414C121.374 35.9961 121.346 36.0599 121.328 36.1328C121.237 36.8984 121.091 37.5182 120.891 37.9922C120.727 38.4115 120.544 38.7305 120.344 38.9492C120.161 39.1497 119.934 39.3411 119.66 39.5234C119.551 39.5964 119.378 39.6602 119.141 39.7148C118.904 39.7513 118.785 39.7513 118.785 39.7148ZM123.242 29.8164C123.333 29.8164 123.47 29.8802 123.652 30.0078C123.634 30.0443 123.671 30.1172 123.762 30.2266C123.853 30.3177 123.917 30.3815 123.953 30.418C124.044 30.5091 124.135 30.6185 124.227 30.7461C124.336 30.8737 124.454 31.0104 124.582 31.1562C124.91 31.5026 125.667 32.4049 126.852 33.8633C127.052 34.1549 127.152 34.3281 127.152 34.3828C127.152 34.5651 127.043 34.6562 126.824 34.6562C126.697 34.6562 126.56 34.5651 126.414 34.3828C126.068 34.0182 125.448 33.444 124.555 32.6602C123.862 32.0221 123.233 31.5299 122.668 31.1836C122.395 31.056 122.258 30.9102 122.258 30.7461C122.258 30.6185 122.395 30.4362 122.668 30.1992C122.923 29.944 123.115 29.8164 123.242 29.8164ZM98.168 37.6094C96.6732 38.6484 95.2331 39.5599 93.8477 40.3438C92.4805 41.1094 91.6419 41.4922 91.332 41.4922C91.2227 41.4922 91.1133 41.4648 91.0039 41.4102C90.5299 41.1914 90.1471 40.8451 89.8555 40.3711C89.819 40.2982 89.8008 40.2435 89.8008 40.207C89.8008 40.1159 89.8464 40.0521 89.9375 40.0156C90.5391 39.9245 91.5599 39.6146 93 39.0859C94.4401 38.5573 96.0625 37.8737 97.8672 37.0352C98.013 36.9622 98.1497 36.9258 98.2773 36.9258C98.4596 36.9258 98.5508 36.9896 98.5508 37.1172C98.5508 37.2812 98.4232 37.4453 98.168 37.6094ZM86.6836 37.6641C86.6836 37.5 86.8932 37.2721 87.3125 36.9805C88.9896 35.8685 90.4297 34.7839 91.6328 33.7266C92.8542 32.6693 93.957 31.457 94.9414 30.0898L90.3203 30.3086L89.2812 30.3633C88.8984 30.3633 88.5885 30.263 88.3516 30.0625C88.1146 29.8438 87.9414 29.6159 87.832 29.3789C87.7409 29.1237 87.6953 28.9596 87.6953 28.8867C87.6953 28.7773 87.75 28.7227 87.8594 28.7227L88.0781 28.7773C88.4609 28.8503 88.862 28.8867 89.2812 28.8867H89.582L95.9258 28.5859C96.3633 27.8385 96.7188 27.1094 96.9922 26.3984L94.5039 26.5352L93.8477 26.5625C93.1549 26.5625 92.7083 26.1432 92.5078 25.3047L92.4805 25.1953C92.4805 25.1042 92.526 25.0586 92.6172 25.0586C92.6719 25.0586 92.7174 25.0677 92.7539 25.0859C93.082 25.1406 93.4375 25.168 93.8203 25.168H94.1484L97.5117 24.9766C97.694 24.4844 97.8763 23.8372 98.0586 23.0352L92.8359 23.3359C92.5807 23.3542 92.2617 23.3633 91.8789 23.3633C91.4232 23.3633 91.1133 23.2995 90.9492 23.1719C90.8216 23.099 90.6667 22.9076 90.4844 22.5977C90.3021 22.2878 90.2109 22.0781 90.2109 21.9688C90.2109 21.8594 90.2747 21.8047 90.4023 21.8047C90.4753 21.8047 90.5391 21.8138 90.5938 21.832C90.9766 21.9049 91.3776 21.9414 91.7969 21.9414H92.0977L98.3594 21.5586L98.6055 19.8086V19.6719C98.6055 19.3255 98.5052 19.0339 98.3047 18.7969C98.2135 18.6693 98.168 18.569 98.168 18.4961C98.168 18.3503 98.2956 18.2773 98.5508 18.2773C98.806 18.2773 99.1888 18.3411 99.6992 18.4688C100.21 18.5964 100.465 18.8151 100.465 19.125V19.207L100.137 21.4492L105.359 21.1484C105.906 21.112 106.389 21.0117 106.809 20.8477C106.882 20.8112 106.982 20.793 107.109 20.793C107.31 20.793 107.52 20.875 107.738 21.0391C107.957 21.2031 108.148 21.3945 108.312 21.6133C108.477 21.8138 108.559 21.9688 108.559 22.0781C108.559 22.2786 108.385 22.3971 108.039 22.4336L99.8359 22.9258C99.7083 23.5273 99.5443 24.1836 99.3438 24.8945L103.637 24.6484C104.056 24.612 104.393 24.5664 104.648 24.5117C104.703 24.4935 104.776 24.4844 104.867 24.4844C105.049 24.4844 105.305 24.6211 105.633 24.8945C105.961 25.168 106.125 25.4141 106.125 25.6328C106.125 25.7969 105.952 25.8971 105.605 25.9336L98.8516 26.2891C98.5417 27.1458 98.2044 27.8841 97.8398 28.5039L108.531 28.0117C109.06 27.9753 109.543 27.8841 109.98 27.7383C110.09 27.7018 110.181 27.6836 110.254 27.6836C110.546 27.6836 110.901 27.8932 111.32 28.3125C111.594 28.5859 111.73 28.8047 111.73 28.9688C111.73 29.0781 111.676 29.1693 111.566 29.2422C111.475 29.2969 111.357 29.3242 111.211 29.3242L104.402 29.6523C106.863 32.1315 109.561 34.0729 112.496 35.4766C112.642 35.5495 112.76 35.6224 112.852 35.6953C112.961 35.7682 113.016 35.8411 113.016 35.9141C113.016 36.0964 112.815 36.3424 112.414 36.6523C112.031 36.944 111.749 37.0898 111.566 37.0898C111.421 37.0898 110.855 36.7708 109.871 36.1328C108.887 35.4766 107.729 34.6016 106.398 33.5078C105.068 32.3958 103.773 31.138 102.516 29.7344L96.9648 30.0078C95.8529 31.612 94.5677 32.9974 93.1094 34.1641C91.6693 35.3307 90.3385 36.2331 89.1172 36.8711C87.9141 37.4909 87.1758 37.8008 86.9023 37.8008C86.7565 37.8008 86.6836 37.7552 86.6836 37.6641ZM93.5742 34.6016C93.5742 34.4193 93.6654 34.2188 93.8477 34C94.0299 33.7812 94.2031 33.6719 94.3672 33.6719C94.4948 33.6719 94.6042 33.7083 94.6953 33.7812C95.9167 34.474 96.8372 35.0573 97.457 35.5312C97.5846 35.6042 97.6484 35.7227 97.6484 35.8867C97.6484 36.1055 97.5482 36.3607 97.3477 36.6523C97.1654 36.9258 96.974 37.0625 96.7734 37.0625C96.6458 37.0625 96.5273 37.0078 96.418 36.8984C95.5065 36.1146 94.668 35.4857 93.9023 35.0117C93.6836 34.8659 93.5742 34.7292 93.5742 34.6016ZM95.3242 40.5898C95.3242 40.4987 95.3789 40.4531 95.4883 40.4531C95.6523 40.4531 95.862 40.5169 96.1172 40.6445C97.1198 41.1003 98.0677 41.4193 98.9609 41.6016L98.9062 32.2773C98.9062 31.6758 98.7878 31.2018 98.5508 30.8555C98.4961 30.7643 98.4688 30.6914 98.4688 30.6367C98.4688 30.5456 98.5508 30.5 98.7148 30.5C99.043 30.5 99.4349 30.5911 99.8906 30.7734C100.346 30.9557 100.574 31.2292 100.574 31.5938V41.4375L100.602 42.3125C100.602 42.7865 100.456 43.1419 100.164 43.3789C99.8906 43.6159 99.6445 43.7344 99.4258 43.7344C99.1706 43.7344 98.7057 43.5156 98.0312 43.0781C97.3568 42.6589 96.737 42.194 96.1719 41.6836C95.6068 41.1914 95.3242 40.8268 95.3242 40.5898ZM100.848 36.7344C100.848 36.5521 101.057 36.3333 101.477 36.0781C102.151 35.6589 102.78 35.1211 103.363 34.4648C103.947 33.7904 104.293 33.2435 104.402 32.8242C104.457 32.6419 104.539 32.5508 104.648 32.5508C104.758 32.5508 104.922 32.6419 105.141 32.8242C105.378 32.9883 105.587 33.1888 105.77 33.4258C105.952 33.6628 106.043 33.8815 106.043 34.082C106.043 34.2279 105.979 34.3464 105.852 34.4375C103.281 36.0599 101.695 36.8711 101.094 36.8711C100.93 36.8711 100.848 36.8255 100.848 36.7344ZM101.969 37.6641C101.969 37.5 102.042 37.3359 102.188 37.1719C102.352 36.9896 102.543 36.8984 102.762 36.8984C102.98 36.8984 103.746 37.2721 105.059 38.0195C106.389 38.7487 107.574 39.4505 108.613 40.125C108.868 40.3073 109.014 40.5078 109.051 40.7266C109.051 40.8542 108.969 41.0456 108.805 41.3008C108.659 41.5742 108.467 41.7201 108.23 41.7383H108.176C108.066 41.7383 107.884 41.6471 107.629 41.4648C106.48 40.6628 104.94 39.6966 103.008 38.5664L102.324 38.1562C102.215 38.1198 102.124 38.056 102.051 37.9648C101.996 37.8737 101.969 37.7734 101.969 37.6641Z" fill="#333333"/>
<path d="M157.285 27.1367C157.085 27.1367 156.839 26.9818 156.547 26.6719C156.328 26.4531 156.219 26.2891 156.219 26.1797C156.219 26.125 156.255 26.0977 156.328 26.0977C156.401 26.0794 156.492 26.0703 156.602 26.0703L157.203 26.043C157.549 26.043 157.777 26.0339 157.887 26.0156C158.233 26.0156 158.525 26.0065 158.762 25.9883C160.329 25.8424 161.387 25.724 161.934 25.6328C162.207 25.5964 162.453 25.5599 162.672 25.5234C162.891 25.4688 163.064 25.4414 163.191 25.4414C163.447 25.4414 163.702 25.569 163.957 25.8242C164.158 26.0247 164.258 26.1888 164.258 26.3164C164.258 26.4258 164.194 26.4987 164.066 26.5352C163.975 26.5534 163.438 26.5898 162.453 26.6445C161.906 26.6628 161.232 26.7083 160.43 26.7812C159.628 26.8542 158.926 26.9271 158.324 27C158.215 27.0182 158.06 27.0456 157.859 27.082C157.659 27.1185 157.467 27.1367 157.285 27.1367ZM163.492 39.1133C163.747 39.2773 163.875 39.4323 163.875 39.5781C163.875 39.7786 163.72 39.9062 163.41 39.9609C163.1 40.0156 162.663 40.0521 162.098 40.0703C161.277 40.0885 160.749 40.0612 160.512 39.9883C160.111 39.806 159.91 39.5052 159.91 39.0859L159.938 38.0742C159.974 37.7461 159.992 37.4544 159.992 37.1992C160.01 37.0352 160.02 36.7161 160.02 36.2422C159.746 36.862 159.391 37.4635 158.953 38.0469C158.643 38.4297 158.37 38.7487 158.133 39.0039C157.896 39.2409 157.613 39.4688 157.285 39.6875C156.957 39.9062 156.656 40.0156 156.383 40.0156C156.219 40.0156 156.137 39.9609 156.137 39.8516C156.137 39.8333 156.31 39.6966 156.656 39.4414C157.021 39.168 157.385 38.7943 157.75 38.3203C158.297 37.5911 158.771 36.7344 159.172 35.75C158.461 35.8411 157.987 35.9232 157.75 35.9961C157.659 36.0143 157.577 36.0417 157.504 36.0781C157.431 36.0964 157.34 36.0964 157.23 36.0781C157.139 36.0417 157.012 35.9688 156.848 35.8594C156.684 35.7318 156.556 35.6133 156.465 35.5039C156.392 35.3945 156.355 35.3216 156.355 35.2852C156.355 35.194 156.492 35.1484 156.766 35.1484C157.44 35.1484 158.306 35.0755 159.363 34.9297C159.473 34.5104 159.527 33.8359 159.527 32.9062V32.3867C159.527 32.168 159.573 32.0495 159.664 32.0312C159.682 32.013 159.719 32.0039 159.773 32.0039C159.919 32.0039 160.12 32.1133 160.375 32.332C160.576 32.4961 160.703 32.6237 160.758 32.7148C160.831 32.7878 160.84 32.888 160.785 33.0156C160.767 33.0521 160.73 33.125 160.676 33.2344C160.621 33.3438 160.585 33.4531 160.566 33.5625C160.548 33.6536 160.512 33.8359 160.457 34.1094C160.402 34.3646 160.366 34.5924 160.348 34.793C160.603 34.7747 160.922 34.7383 161.305 34.6836C161.688 34.6289 161.97 34.5742 162.152 34.5195L162.699 34.3828C162.882 34.3464 163.182 34.5013 163.602 34.8477C163.674 34.9023 163.711 34.9661 163.711 35.0391C163.711 35.112 163.674 35.1758 163.602 35.2305C163.547 35.2669 163.474 35.2852 163.383 35.2852C163.055 35.2852 162.453 35.3398 161.578 35.4492L160.676 35.5312C160.876 35.6771 161.004 35.8047 161.059 35.9141C161.113 36.0234 161.122 36.1328 161.086 36.2422L161.004 36.6797C160.967 37.0443 160.931 37.4453 160.895 37.8828C160.876 38.3203 160.876 38.6576 160.895 38.8945C160.895 38.9857 160.949 39.0677 161.059 39.1406C161.186 39.2135 161.314 39.25 161.441 39.25C161.897 39.25 162.408 39.2044 162.973 39.1133L163.219 39.0586C163.328 39.0586 163.419 39.0768 163.492 39.1133ZM168.742 27.6289C168.961 27.6289 169.07 27.7292 169.07 27.9297C169.07 28.0391 168.97 28.194 168.77 28.3945C168.223 29.069 167.138 30.3542 165.516 32.25C165.388 32.4141 165.27 32.4961 165.16 32.4961C165.069 32.4961 164.868 32.3594 164.559 32.0859C164.303 31.8672 164.176 31.6849 164.176 31.5391C164.176 31.375 164.312 31.2201 164.586 31.0742C165.005 30.8372 165.634 30.3633 166.473 29.6523C167.311 28.9049 167.931 28.3125 168.332 27.875C168.496 27.7109 168.633 27.6289 168.742 27.6289ZM149.574 41.5469C149.629 41.5469 149.665 41.5378 149.684 41.5195C149.72 41.5195 149.738 41.4922 149.738 41.4375C150.449 39.6328 150.85 37.1445 150.941 33.9727L149.574 34.0273C148.335 36.1784 146.995 37.9102 145.555 39.2227C144.133 40.5169 142.875 41.4375 141.781 41.9844C140.706 42.5312 140.013 42.8047 139.703 42.8047C139.521 42.8047 139.43 42.75 139.43 42.6406C139.43 42.4583 139.703 42.1849 140.25 41.8203C143.221 39.8151 145.628 37.2539 147.469 34.1367L145.363 34.2188C144.27 35.5312 143.194 36.6159 142.137 37.4727C141.079 38.3112 140.168 38.9219 139.402 39.3047C138.655 39.6875 138.163 39.8789 137.926 39.8789C137.78 39.8789 137.707 39.8242 137.707 39.7148C137.707 39.6237 137.771 39.5052 137.898 39.3594C138.044 39.1953 138.236 39.0312 138.473 38.8672C140.204 37.6458 141.772 36.1328 143.176 34.3281L140.414 34.4648C139.648 35.1029 138.874 35.668 138.09 36.1602C137.306 36.6523 136.759 36.8984 136.449 36.8984C136.322 36.8984 136.258 36.8529 136.258 36.7617C136.258 36.5612 136.449 36.3151 136.832 36.0234C138.4 34.8021 139.949 33.1797 141.48 31.1562L139.812 31.2656H139.32C138.846 31.2656 138.555 31.2018 138.445 31.0742C138.117 30.7461 137.889 30.4089 137.762 30.0625L137.707 29.8438C137.707 29.7344 137.762 29.6797 137.871 29.6797C137.962 29.6797 138.044 29.6888 138.117 29.707C138.445 29.7617 138.801 29.7891 139.184 29.7891H139.512L151.488 29.1055C151.944 29.069 152.29 29.0143 152.527 28.9414C152.673 28.9049 152.773 28.8867 152.828 28.8867C153.047 28.8867 153.275 28.9596 153.512 29.1055C153.749 29.2513 153.949 29.4154 154.113 29.5977C154.296 29.7799 154.387 29.9258 154.387 30.0352C154.387 30.2721 154.168 30.4089 153.73 30.4453L143.832 31.0195C143.431 31.4935 142.839 32.1406 142.055 32.9609L151.461 32.4961H151.625C152.026 32.4961 152.327 32.5872 152.527 32.7695C152.728 32.9518 152.828 33.1432 152.828 33.3438C152.828 33.4349 152.801 33.5443 152.746 33.6719C152.71 33.7995 152.691 33.8906 152.691 33.9453C152.582 36.2786 152.309 38.5299 151.871 40.6992C151.689 41.6654 151.406 42.3763 151.023 42.832C150.659 43.2878 150.294 43.5156 149.93 43.5156C149.583 43.5156 149.073 43.3151 148.398 42.9141C147.724 42.5312 147.104 42.1029 146.539 41.6289C145.974 41.1549 145.691 40.8268 145.691 40.6445C145.691 40.5534 145.764 40.5078 145.91 40.5078C146.129 40.5078 146.439 40.5898 146.84 40.7539C147.824 41.1367 148.699 41.401 149.465 41.5469H149.574ZM130.652 42.4766C130.652 42.349 130.661 42.2487 130.68 42.1758C130.789 41.6107 130.844 40.9089 130.844 40.0703L131.062 23.582V23.1172C131.062 22.3698 130.99 21.8047 130.844 21.4219C130.716 21.1302 130.652 20.9297 130.652 20.8203C130.652 20.6927 130.725 20.6289 130.871 20.6289C131.108 20.6289 131.783 20.8477 132.895 21.2852L136.504 20.957L136.859 20.9297C137.005 20.9297 137.224 21.0208 137.516 21.2031C137.826 21.3854 137.98 21.5859 137.98 21.8047C137.98 21.9141 137.926 22.0326 137.816 22.1602C137.725 22.2695 137.661 22.3607 137.625 22.4336C136.914 23.8555 136.158 25.168 135.355 26.3711C135.319 26.444 135.301 26.4987 135.301 26.5352C135.301 26.6445 135.328 26.7266 135.383 26.7812C136.167 27.6562 136.704 28.4766 136.996 29.2422C137.306 30.0078 137.461 30.8555 137.461 31.7852C137.461 32.4232 137.324 32.9792 137.051 33.4531C136.796 33.9271 136.477 34.1641 136.094 34.1641C135.82 34.1641 135.419 33.9544 134.891 33.5352C134.38 33.1159 133.906 32.651 133.469 32.1406C133.049 31.612 132.84 31.2474 132.84 31.0469C132.84 30.9375 132.895 30.8828 133.004 30.8828C133.15 30.8828 133.387 30.9922 133.715 31.2109C134.098 31.4844 134.49 31.7305 134.891 31.9492C135.292 32.1497 135.556 32.25 135.684 32.25C135.738 32.25 135.775 32.1406 135.793 31.9219C135.829 31.7031 135.848 31.5299 135.848 31.4023C135.848 30.7643 135.72 30.1263 135.465 29.4883C135.228 28.8503 134.781 28.1576 134.125 27.4102C133.906 27.1367 133.797 26.8724 133.797 26.6172C133.797 26.3984 133.879 26.1432 134.043 25.8516C134.809 24.5391 135.401 23.4089 135.82 22.4609L132.73 22.7344L132.457 42.8047C132.457 43.3151 132.302 43.5703 131.992 43.5703C131.919 43.5703 131.773 43.5247 131.555 43.4336C131.336 43.3607 131.126 43.2422 130.926 43.0781C130.743 42.9141 130.652 42.7135 130.652 42.4766ZM139.594 20.2734C139.594 20.1823 139.676 20.1367 139.84 20.1367C140.095 20.1367 140.724 20.2734 141.727 20.5469L149.191 20.1094H149.438C149.747 20.1094 150.03 20.2005 150.285 20.3828C150.559 20.5651 150.695 20.7565 150.695 20.957C150.695 21.0482 150.668 21.1484 150.613 21.2578C150.577 21.3672 150.549 21.4583 150.531 21.5312L149.984 26.5352C150.44 26.9727 150.668 27.2917 150.668 27.4922C150.668 27.6016 150.604 27.6745 150.477 27.7109C150.367 27.7474 150.194 27.7747 149.957 27.793L142.137 28.1484L142.164 28.3672V28.4492C142.164 28.7956 142.009 28.9688 141.699 28.9688C141.444 28.9688 141.152 28.8685 140.824 28.668C140.496 28.4492 140.332 28.2396 140.332 28.0391V27.9023C140.387 27.5378 140.414 27.1914 140.414 26.8633L140.387 26.3711L140.086 21.9961C140.049 21.5039 139.958 21.0938 139.812 20.7656C139.667 20.5286 139.594 20.3646 139.594 20.2734ZM141.836 23.6094L148.617 23.2266L148.781 21.4492L141.727 21.832L141.836 23.6094ZM142.055 26.8359L148.344 26.5078L148.508 24.5117L141.918 24.8672L142.055 26.8359Z" fill="#333333"/>
<path d="M201.199 30.418C201.035 30.418 200.908 30.3815 200.816 30.3086C200.816 30.3086 200.771 30.263 200.68 30.1719C200.607 30.026 200.388 29.625 200.023 28.9688C199.677 28.3125 199.422 27.8659 199.258 27.6289C198.911 27.1185 198.738 26.7904 198.738 26.6445C198.738 26.444 198.857 26.1523 199.094 25.7695C199.458 25.2591 199.704 24.849 199.832 24.5391C200.069 24.1016 200.242 23.7643 200.352 23.5273C200.461 23.2721 200.507 23.0716 200.488 22.9258C200.47 22.8346 200.461 22.7344 200.461 22.625C200.461 22.5521 200.479 22.5156 200.516 22.5156C200.552 22.4974 200.625 22.5065 200.734 22.543C200.917 22.5977 201.126 22.7253 201.363 22.9258C201.418 22.9805 201.482 23.0534 201.555 23.1445C201.628 23.2357 201.673 23.3177 201.691 23.3906C201.728 23.4453 201.737 23.5091 201.719 23.582C201.719 23.6367 201.691 23.6914 201.637 23.7461L201.5 23.8555C201.372 24.0195 201.227 24.2201 201.062 24.457C200.898 24.694 200.743 24.9128 200.598 25.1133L199.914 26.0977C199.732 26.3529 199.641 26.5352 199.641 26.6445C199.641 26.6992 199.723 26.8451 199.887 27.082L200.461 27.7109C201.008 28.3125 201.263 28.5951 201.227 28.5586C201.573 28.9049 201.746 29.2422 201.746 29.5703C201.746 30.1354 201.564 30.418 201.199 30.418ZM204.809 30.3359C204.645 30.3359 204.508 30.3086 204.398 30.2539C204.198 30.0534 204.052 29.8164 203.961 29.543L203.387 28.5312L202.84 27.5742C202.493 27.1003 202.32 26.7812 202.32 26.6172C202.32 26.3984 202.439 26.1159 202.676 25.7695L203.113 25.1406C203.296 24.8307 203.396 24.6484 203.414 24.5938C203.596 24.2292 203.751 23.9102 203.879 23.6367C204.025 23.3451 204.089 23.1263 204.07 22.9805C204.052 22.9076 204.043 22.8164 204.043 22.707C204.043 22.5612 204.125 22.5247 204.289 22.5977C204.526 22.6888 204.781 22.8346 205.055 23.0352C205.182 23.1628 205.264 23.2721 205.301 23.3633C205.355 23.4362 205.383 23.5365 205.383 23.6641C205.383 23.7005 205.319 23.7734 205.191 23.8828C205.064 23.974 204.954 24.0742 204.863 24.1836C204.754 24.293 204.508 24.6393 204.125 25.2227C204.052 25.332 203.961 25.4596 203.852 25.6055C203.76 25.7331 203.642 25.9062 203.496 26.125C203.314 26.362 203.223 26.5352 203.223 26.6445C203.223 26.7539 203.332 26.918 203.551 27.1367C203.624 27.2096 203.697 27.3008 203.77 27.4102C203.861 27.5013 203.97 27.6107 204.098 27.7383L204.809 28.5312C205.155 28.8411 205.328 29.1419 205.328 29.4336C205.328 30.0352 205.155 30.3359 204.809 30.3359ZM205.164 39.4414C204.891 39.4414 204.626 39.2409 204.371 38.8398C204.043 38.3294 203.724 37.9102 203.414 37.582L202.703 36.8438C202.32 37.2812 201.983 37.6276 201.691 37.8828C201.418 38.138 201.072 38.3841 200.652 38.6211C199.868 39.0768 199.212 39.3047 198.684 39.3047C198.556 39.3047 198.492 39.2591 198.492 39.168C198.492 39.1133 198.665 38.9948 199.012 38.8125C199.358 38.6302 199.686 38.4115 199.996 38.1562C200.78 37.5 201.427 36.8255 201.938 36.1328C201.828 36.0234 201.281 35.5495 200.297 34.7109C200.169 34.6198 199.978 34.4648 199.723 34.2461C199.668 34.2096 199.559 34.1276 199.395 34C199.23 33.8724 199.148 33.7812 199.148 33.7266C199.148 33.6354 199.194 33.5898 199.285 33.5898C199.559 33.5898 199.996 33.7812 200.598 34.1641C201.199 34.5286 201.828 34.9661 202.484 35.4766C202.74 35.1667 202.94 34.875 203.086 34.6016C203.232 34.3281 203.396 33.9909 203.578 33.5898C203.669 33.3893 203.724 33.2161 203.742 33.0703C203.76 32.9062 203.77 32.806 203.77 32.7695C203.77 32.569 203.824 32.4688 203.934 32.4688C204.061 32.4688 204.234 32.569 204.453 32.7695C204.836 33.1341 205.027 33.3802 205.027 33.5078C205.027 33.5807 204.982 33.6628 204.891 33.7539C204.672 33.9727 204.471 34.2643 204.289 34.6289C204.18 34.8477 203.979 35.1576 203.688 35.5586C203.596 35.668 203.523 35.7682 203.469 35.8594C203.414 35.9505 203.359 36.0326 203.305 36.1055C203.724 36.4154 204.344 36.944 205.164 37.6914C205.365 37.8737 205.492 38.0469 205.547 38.2109C205.62 38.3568 205.656 38.5573 205.656 38.8125C205.656 38.9948 205.611 39.1497 205.52 39.2773C205.428 39.3867 205.31 39.4414 205.164 39.4414ZM207.242 29.8164C207.333 29.8164 207.47 29.8802 207.652 30.0078C207.634 30.0443 207.671 30.1172 207.762 30.2266C207.853 30.3177 207.917 30.3815 207.953 30.418C208.044 30.5091 208.135 30.6185 208.227 30.7461C208.336 30.8737 208.454 31.0104 208.582 31.1562C208.91 31.5026 209.667 32.4049 210.852 33.8633C211.052 34.1549 211.152 34.3281 211.152 34.3828C211.152 34.5651 211.043 34.6562 210.824 34.6562C210.697 34.6562 210.56 34.5651 210.414 34.3828C210.068 34.0182 209.448 33.444 208.555 32.6602C207.862 32.0221 207.233 31.5299 206.668 31.1836C206.395 31.056 206.258 30.9102 206.258 30.7461C206.258 30.6185 206.395 30.4362 206.668 30.1992C206.923 29.944 207.115 29.8164 207.242 29.8164ZM193.215 26.7539C192.431 29.9805 191.392 32.7422 190.098 35.0391C191.757 37.4818 193.917 39.7422 196.578 41.8203C196.779 41.9661 196.879 42.1029 196.879 42.2305C196.879 42.3763 196.669 42.5677 196.25 42.8047C195.849 43.0599 195.566 43.1875 195.402 43.1875C195.165 43.1875 194.664 42.8138 193.898 42.0664C193.133 41.3372 192.294 40.4531 191.383 39.4141C190.49 38.3568 189.751 37.3997 189.168 36.543C188.293 37.8372 187.309 38.9948 186.215 40.0156C185.139 41.0182 184.137 41.793 183.207 42.3398C182.296 42.9049 181.676 43.1875 181.348 43.1875C181.202 43.1875 181.129 43.1328 181.129 43.0234C181.129 42.8594 181.302 42.6406 181.648 42.3672C182.924 41.3828 184.128 40.2708 185.258 39.0312C186.388 37.7734 187.372 36.4336 188.211 35.0117C187.117 33.1706 186.215 31.2474 185.504 29.2422C184.939 30.2083 184.355 31.0469 183.754 31.7578C183.152 32.4688 182.76 32.8242 182.578 32.8242C182.487 32.8242 182.441 32.7604 182.441 32.6328C182.441 32.4141 182.542 32.1315 182.742 31.7852C183.617 30.1445 184.383 28.4857 185.039 26.8086C185.695 25.1315 186.197 23.6732 186.543 22.4336C186.908 21.1758 187.09 20.3828 187.09 20.0547C187.09 19.8359 187.081 19.6628 187.062 19.5352V19.4805C187.062 19.3346 187.154 19.2617 187.336 19.2617C187.628 19.2617 187.992 19.4258 188.43 19.7539C188.885 20.0638 189.113 20.3555 189.113 20.6289C189.113 20.8659 188.876 21.6042 188.402 22.8438C187.947 24.0651 187.564 25.0312 187.254 25.7422L192.832 25.3594C193.233 25.3411 193.643 25.25 194.062 25.0859C194.208 25.0495 194.299 25.0312 194.336 25.0312C194.555 25.0312 194.865 25.1862 195.266 25.4961C195.667 25.7878 195.867 26.0521 195.867 26.2891C195.867 26.4896 195.676 26.6081 195.293 26.6445L193.215 26.7539ZM171.176 26.8086C171.176 26.7174 171.221 26.6719 171.312 26.6719C171.385 26.6719 171.44 26.681 171.477 26.6992C171.75 26.7904 172.124 26.8359 172.598 26.8359H172.871L176.918 26.6172L176.945 21.8047C176.945 21.6224 176.918 21.4401 176.863 21.2578C176.809 21.0755 176.727 20.8841 176.617 20.6836C176.562 20.5924 176.535 20.5104 176.535 20.4375C176.535 20.2917 176.654 20.2188 176.891 20.2188C177.091 20.2188 177.392 20.2734 177.793 20.3828C178.395 20.5286 178.695 20.793 178.695 21.1758L178.586 26.5352L180.828 26.3984C181.375 26.3802 181.876 26.2982 182.332 26.1523C182.387 26.1341 182.469 26.125 182.578 26.125C182.833 26.125 183.07 26.207 183.289 26.3711C183.526 26.5169 183.717 26.6901 183.863 26.8906C184.027 27.0911 184.109 27.237 184.109 27.3281C184.109 27.5833 183.891 27.7292 183.453 27.7656L178.559 28.0391L178.449 32.5234L180.965 32.3867L181.266 32.3594C181.521 32.3594 181.785 32.4779 182.059 32.7148C182.332 32.9336 182.469 33.1432 182.469 33.3438C182.469 33.4349 182.432 33.5443 182.359 33.6719C182.286 33.7995 182.25 33.8997 182.25 33.9727L181.648 38.8398C182.104 39.4049 182.332 39.7878 182.332 39.9883C182.332 40.1159 182.277 40.1979 182.168 40.2344C182.077 40.2526 181.895 40.2708 181.621 40.2891L175.688 40.4531L175.77 41.5469V41.6289C175.77 41.793 175.724 41.9297 175.633 42.0391C175.56 42.1484 175.441 42.2031 175.277 42.2031C175.022 42.2031 174.721 42.0938 174.375 41.875C174.047 41.6745 173.883 41.4466 173.883 41.1914C173.883 41.082 173.892 41 173.91 40.9453C173.965 40.6354 173.992 40.3073 173.992 39.9609L173.965 39.3867L173.609 34.2461C173.573 33.6992 173.473 33.2435 173.309 32.8789C173.217 32.6966 173.172 32.5508 173.172 32.4414C173.172 32.3138 173.263 32.25 173.445 32.25C173.737 32.25 174.339 32.4049 175.25 32.7148L176.863 32.6328L176.891 28.1484L173.336 28.3398L172.789 28.3672C172.333 28.3672 172.023 28.2852 171.859 28.1211C171.622 27.8841 171.449 27.6289 171.34 27.3555C171.23 27.0638 171.176 26.8815 171.176 26.8086ZM175.578 39.0039L180.035 38.8398L180.473 33.8633L175.223 34.1367L175.578 39.0039ZM186.488 27.4102C187.199 29.5977 188.056 31.5938 189.059 33.3984C189.897 31.7031 190.626 29.5339 191.246 26.8906L186.598 27.2188L186.488 27.4102Z" fill="#333333"/>
<path d="M240.52 36.0781C240.392 36.0781 240.31 36.069 240.273 36.0508C240.255 36.0143 240.283 35.9505 240.355 35.8594C240.611 35.6224 240.811 35.3945 240.957 35.1758C241.121 34.9388 241.294 34.5651 241.477 34.0547C241.768 33.2161 241.914 32.569 241.914 32.1133C241.914 31.694 241.887 31.3112 241.832 30.9648V30.8828C241.832 30.6823 241.96 30.6185 242.215 30.6914C242.434 30.7461 242.68 30.819 242.953 30.9102C243.008 30.8919 243.09 30.8828 243.199 30.8828C243.309 30.8646 243.482 30.8372 243.719 30.8008C244.339 30.7096 245.141 30.6185 246.125 30.5273C246.125 30.4544 246.198 30.1992 246.344 29.7617L246.508 29.1602C246.581 28.9049 246.553 28.7773 246.426 28.7773C246.061 28.7773 245.214 28.8685 243.883 29.0508L242.434 29.2969C242.306 29.3151 242.142 29.2604 241.941 29.1328C241.759 29.0052 241.613 28.8594 241.504 28.6953C241.413 28.5312 241.431 28.4219 241.559 28.3672C241.704 28.276 241.85 28.2305 241.996 28.2305C242.142 28.2305 242.233 28.2305 242.27 28.2305H242.625L244.43 28.1758L246.18 27.957C246.271 27.9388 246.38 27.9115 246.508 27.875C246.654 27.8203 246.79 27.7839 246.918 27.7656C247.1 27.7292 247.41 27.9297 247.848 28.3672C247.921 28.4401 247.957 28.5221 247.957 28.6133C247.957 28.7227 247.884 28.832 247.738 28.9414C247.538 29.1419 247.41 29.3151 247.355 29.4609C247.337 29.5521 247.301 29.6888 247.246 29.8711C247.191 30.0352 247.137 30.2448 247.082 30.5C247.191 30.6276 247.246 30.7826 247.246 30.9648C247.246 31.1107 247.201 31.2201 247.109 31.293C247.036 31.3477 246.882 31.375 246.645 31.375C245.824 31.4297 245.177 31.4844 244.703 31.5391C244.229 31.5755 243.655 31.6667 242.98 31.8125C242.908 32.6328 242.743 33.3893 242.488 34.082C242.233 34.7565 241.878 35.2669 241.422 35.6133C240.984 35.9232 240.684 36.0781 240.52 36.0781ZM249.242 25.7148C249.333 25.7148 249.47 25.7786 249.652 25.9062C249.634 25.9427 249.671 26.0156 249.762 26.125C249.853 26.2161 249.917 26.2799 249.953 26.3164C250.044 26.4076 250.135 26.5169 250.227 26.6445C250.336 26.7721 250.454 26.9089 250.582 27.0547C250.91 27.401 251.667 28.3034 252.852 29.7617C253.052 30.0534 253.152 30.2266 253.152 30.2812C253.152 30.4635 253.043 30.5547 252.824 30.5547C252.697 30.5547 252.56 30.4635 252.414 30.2812C252.068 29.9167 251.448 29.3424 250.555 28.5586C249.862 27.9206 249.233 27.4284 248.668 27.082C248.395 26.9544 248.258 26.8086 248.258 26.6445C248.258 26.5169 248.395 26.3346 248.668 26.0977C248.923 25.8424 249.115 25.7148 249.242 25.7148ZM232.809 36.1875C233.246 36.6432 233.465 36.9714 233.465 37.1719C233.465 37.2995 233.401 37.3815 233.273 37.418C233.164 37.4544 232.982 37.4818 232.727 37.5L226.219 37.7734V40.6992L226.246 41.3828C226.264 41.5104 226.273 41.7018 226.273 41.957C226.273 42.5221 226.109 42.9779 225.781 43.3242C225.453 43.6888 225.089 43.8711 224.688 43.8711C224.359 43.8711 223.831 43.6432 223.102 43.1875C222.372 42.7318 221.698 42.2305 221.078 41.6836C220.458 41.1549 220.148 40.7995 220.148 40.6172C220.148 40.4714 220.249 40.3984 220.449 40.3984C220.632 40.3984 220.814 40.444 220.996 40.5352C222.491 41.1732 223.676 41.5924 224.551 41.793V37.8281L219.355 38.0469L218.617 38.0742C217.979 38.0742 217.514 37.7005 217.223 36.9531C217.168 36.8438 217.141 36.7617 217.141 36.707C217.141 36.6159 217.186 36.5703 217.277 36.5703L217.496 36.625C217.697 36.6979 218.016 36.7344 218.453 36.7344H218.781L224.551 36.5156V34.793L215.281 35.2031H215.09C214.725 35.2031 214.397 35.1393 214.105 35.0117C213.814 34.8659 213.595 34.5286 213.449 34C213.431 33.9635 213.422 33.918 213.422 33.8633C213.422 33.7721 213.477 33.7266 213.586 33.7266L213.75 33.7539C214.115 33.8451 214.434 33.8906 214.707 33.8906H214.926L224.551 33.4805V31.9766L219.109 32.25H218.727C218.271 32.25 217.915 32.1589 217.66 31.9766C217.423 31.7943 217.259 31.6029 217.168 31.4023C217.095 31.2018 217.059 31.056 217.059 30.9648C217.059 30.8737 217.104 30.8281 217.195 30.8281C217.268 30.8281 217.323 30.8372 217.359 30.8555C217.76 30.9466 218.089 30.9922 218.344 30.9922L218.754 30.9648L224.523 30.6367V29.0508L219.711 29.2695L219.738 29.4883V29.5977C219.738 29.8346 219.583 29.9531 219.273 29.9531C219.073 29.9531 218.809 29.9076 218.48 29.8164C218.171 29.707 218.016 29.4974 218.016 29.1875V28.5312C218.016 28.276 218.007 28.0846 217.988 27.957L217.797 26.4805C217.742 25.9518 217.596 25.5143 217.359 25.168C217.232 24.9674 217.168 24.8216 217.168 24.7305C217.168 24.6029 217.268 24.5391 217.469 24.5391C217.797 24.5391 218.426 24.7031 219.355 25.0312L224.523 24.7305V23.1445L216.758 23.582C216.594 23.6003 216.375 23.6094 216.102 23.6094C215.719 23.6094 215.409 23.5091 215.172 23.3086C214.953 23.1081 214.789 22.8984 214.68 22.6797C214.589 22.4427 214.543 22.2878 214.543 22.2148C214.543 22.1237 214.598 22.0781 214.707 22.0781C214.78 22.0781 214.844 22.0872 214.898 22.1055C215.263 22.1966 215.637 22.2422 216.02 22.2422H216.266L224.523 21.75V20.3828C224.523 19.8177 224.387 19.362 224.113 19.0156C224.059 18.9245 224.031 18.8607 224.031 18.8242C224.031 18.7148 224.132 18.6602 224.332 18.6602C224.551 18.6602 224.806 18.7057 225.098 18.7969C225.553 18.9245 225.845 19.0612 225.973 19.207C226.1 19.3529 226.164 19.5716 226.164 19.8633V21.6406L233.137 21.2305C233.392 21.2122 233.647 21.1667 233.902 21.0938C234.158 21.0026 234.322 20.9479 234.395 20.9297C234.431 20.9115 234.486 20.9023 234.559 20.9023C234.814 20.9023 235.124 21.0664 235.488 21.3945C235.853 21.7227 236.035 21.987 236.035 22.1875C236.035 22.388 235.835 22.5065 235.434 22.543L226.164 23.0625V24.6484L231.77 24.3203L232.207 24.293C232.444 24.293 232.69 24.375 232.945 24.5391C233.219 24.6849 233.355 24.8581 233.355 25.0586C233.355 25.168 233.31 25.2865 233.219 25.4141C233.146 25.5417 233.1 25.6328 233.082 25.6875L232.645 27.4102C233.1 27.8477 233.328 28.1576 233.328 28.3398C233.328 28.4674 233.264 28.5495 233.137 28.5859C233.009 28.6224 232.809 28.6497 232.535 28.668L226.191 28.9688V30.5547L232.262 30.1992L232.562 30.1719C232.799 30.1719 233.055 30.2721 233.328 30.4727C233.62 30.6549 233.766 30.901 233.766 31.2109C233.766 31.3021 233.729 31.4206 233.656 31.5664C233.583 31.7122 233.547 31.8216 233.547 31.8945L233.328 33.0977L235.406 33.0156C235.716 32.9974 235.999 32.9427 236.254 32.8516C236.509 32.7604 236.664 32.7057 236.719 32.6875C236.865 32.651 236.965 32.6328 237.02 32.6328C237.202 32.6328 237.484 32.7786 237.867 33.0703C238.25 33.362 238.441 33.6172 238.441 33.8359C238.441 34.0547 238.195 34.1823 237.703 34.2188L233.109 34.4102L232.809 36.1875ZM219.574 28.0664L224.523 27.8203V25.9336L219.355 26.2344L219.574 28.0664ZM226.219 36.4609L231.25 36.2695L231.496 34.4922L226.191 34.7383L226.219 36.4609ZM231.66 33.1797L231.879 31.5938L226.191 31.8945V33.3984L231.66 33.1797ZM231.059 27.4922L231.387 25.5508L226.191 25.8516V27.7383L231.059 27.4922Z" fill="#333333"/>
<path d="M288.316 30.582C288.189 30.582 288.052 30.5 287.906 30.3359C287.797 30.2083 287.724 30.1081 287.688 30.0352C287.651 29.944 287.651 29.8255 287.688 29.6797L287.715 29.0234C287.733 28.8958 287.742 28.5859 287.742 28.0938V27.1914L286.922 27.5742L285.965 27.9844C285.728 28.0755 285.482 28.1849 285.227 28.3125C285.008 28.4219 284.816 28.4766 284.652 28.4766C284.525 28.4583 284.379 28.4128 284.215 28.3398C284.051 28.2669 283.923 28.2031 283.832 28.1484C283.632 28.0208 283.54 27.8841 283.559 27.7383L283.641 27.4648C283.641 27.319 283.65 27.1914 283.668 27.082L283.695 25.4961V24.0195C283.695 23.7279 283.677 23.4818 283.641 23.2812C283.604 23.0625 283.577 22.9076 283.559 22.8164C283.559 22.7253 283.586 22.6615 283.641 22.625C283.659 22.6068 283.704 22.5977 283.777 22.5977C283.905 22.5977 284.151 22.6797 284.516 22.8438C284.826 22.9896 284.953 23.1719 284.898 23.3906C284.862 23.5182 284.826 23.7096 284.789 23.9648L284.707 27.1094C284.707 27.2005 284.716 27.2734 284.734 27.3281C284.771 27.3646 284.807 27.3828 284.844 27.3828C285.062 27.3828 285.327 27.319 285.637 27.1914C286.22 27.0091 286.721 26.8268 287.141 26.6445L287.742 26.3984V24.5938C287.742 23.8646 287.697 23.1628 287.605 22.4883C287.587 22.4336 287.578 22.3698 287.578 22.2969C287.578 22.1146 287.651 22.0234 287.797 22.0234C287.815 22.0234 287.915 22.0599 288.098 22.1328C288.371 22.2786 288.572 22.4062 288.699 22.5156C288.827 22.625 288.9 22.6888 288.918 22.707C288.991 22.7617 289.027 22.8164 289.027 22.8711C289.027 22.9076 289.009 22.9531 288.973 23.0078C288.954 23.0625 288.936 23.1081 288.918 23.1445L288.836 23.9648L288.809 26.4805L288.836 28.9141C288.836 29.3333 288.809 29.6979 288.754 30.0078C288.663 30.3906 288.517 30.582 288.316 30.582ZM283.285 36.707C283.085 36.707 282.839 36.5521 282.547 36.2422C282.328 36.0234 282.219 35.8594 282.219 35.75C282.219 35.6953 282.255 35.668 282.328 35.668C282.401 35.6497 282.492 35.6406 282.602 35.6406L283.203 35.6133C283.549 35.6133 283.777 35.6042 283.887 35.5859C284.233 35.5859 284.525 35.5768 284.762 35.5586C286.329 35.4128 287.387 35.2943 287.934 35.2031C288.207 35.1667 288.453 35.1302 288.672 35.0938C288.891 35.0391 289.064 35.0117 289.191 35.0117C289.447 35.0117 289.702 35.1393 289.957 35.3945C290.158 35.5951 290.258 35.7591 290.258 35.8867C290.258 35.9961 290.194 36.069 290.066 36.1055C289.975 36.1237 289.438 36.1602 288.453 36.2148C287.906 36.2331 287.232 36.2786 286.43 36.3516C285.628 36.4245 284.926 36.4974 284.324 36.5703C284.215 36.5885 284.06 36.6159 283.859 36.6523C283.659 36.6888 283.467 36.707 283.285 36.707ZM294.742 27.6289C294.961 27.6289 295.07 27.7292 295.07 27.9297C295.07 28.0391 294.97 28.194 294.77 28.3945C294.223 29.069 293.138 30.3542 291.516 32.25C291.388 32.4141 291.27 32.4961 291.16 32.4961C291.069 32.4961 290.868 32.3594 290.559 32.0859C290.303 31.8672 290.176 31.6849 290.176 31.5391C290.176 31.375 290.312 31.2201 290.586 31.0742C291.005 30.8372 291.634 30.3633 292.473 29.6523C293.311 28.9049 293.931 28.3125 294.332 27.875C294.496 27.7109 294.633 27.6289 294.742 27.6289ZM268.355 43.0234C268.355 43.4245 268.201 43.625 267.891 43.625C267.654 43.625 267.38 43.5247 267.07 43.3242C266.76 43.1237 266.605 42.8503 266.605 42.5039C266.605 42.3945 266.615 42.3034 266.633 42.2305C266.706 41.8841 266.742 41.3555 266.742 40.6445L266.77 35.7773L258.703 36.1602H258.211C257.792 36.1602 257.445 36.0964 257.172 35.9688C256.898 35.8229 256.671 35.4857 256.488 34.957C256.47 34.9206 256.461 34.875 256.461 34.8203C256.461 34.7292 256.507 34.6836 256.598 34.6836C256.671 34.6836 256.725 34.6927 256.762 34.7109C257.053 34.7839 257.427 34.8203 257.883 34.8203H258.211L266.77 34.4102V34C266.77 33.5443 266.66 33.1432 266.441 32.7969C266.35 32.651 266.305 32.5326 266.305 32.4414C266.305 32.3138 266.396 32.25 266.578 32.25C266.906 32.25 267.289 32.3503 267.727 32.5508C268.164 32.7331 268.383 32.9701 268.383 33.2617V34.3555L276.477 33.9727C276.805 33.9362 277.124 33.8633 277.434 33.7539C277.47 33.7357 277.534 33.7266 277.625 33.7266C277.807 33.7266 278.072 33.8724 278.418 34.1641C278.764 34.4375 278.938 34.6745 278.938 34.875C278.938 35.0755 278.755 35.194 278.391 35.2305L268.383 35.6953L268.355 43.0234ZM255.914 28.4219C255.914 28.2578 256.042 28.0573 256.297 27.8203C257.792 26.362 259.277 24.7487 260.754 22.9805C262.23 21.194 262.969 19.8724 262.969 19.0156V18.9062C262.969 18.6875 263.069 18.5781 263.27 18.5781C263.397 18.5781 263.598 18.651 263.871 18.7969C264.163 18.9245 264.409 19.0885 264.609 19.2891C264.828 19.4714 264.938 19.6536 264.938 19.8359C264.938 19.9818 264.701 20.3646 264.227 20.9844C263.771 21.5859 263.406 22.0599 263.133 22.4062L269.723 21.9688C269.595 21.8958 269.486 21.7956 269.395 21.668C268.866 21.0299 268.173 20.3464 267.316 19.6172C267.207 19.526 267.152 19.4349 267.152 19.3438C267.152 19.2526 267.234 19.1068 267.398 18.9062C267.562 18.6875 267.717 18.5781 267.863 18.5781C267.991 18.5781 268.301 18.7604 268.793 19.125C269.285 19.4896 269.741 19.8815 270.16 20.3008C270.579 20.7018 270.789 20.9753 270.789 21.1211C270.789 21.3034 270.689 21.4948 270.488 21.6953C270.379 21.8047 270.27 21.8867 270.16 21.9414L273.66 21.7227C273.988 21.7044 274.298 21.6315 274.59 21.5039C274.699 21.4674 274.79 21.4492 274.863 21.4492C275.064 21.4492 275.319 21.5768 275.629 21.832C275.957 22.0872 276.121 22.3333 276.121 22.5703C276.121 22.6797 276.076 22.7708 275.984 22.8438C275.893 22.8984 275.775 22.9258 275.629 22.9258H275.547L268.848 23.3359L268.82 24.9219L272.238 24.7305C272.676 24.694 272.986 24.6302 273.168 24.5391C273.277 24.4844 273.378 24.457 273.469 24.457C273.615 24.457 273.852 24.5846 274.18 24.8398C274.508 25.0768 274.672 25.2956 274.672 25.4961C274.672 25.5872 274.617 25.6602 274.508 25.7148C274.417 25.7695 274.307 25.806 274.18 25.8242L268.82 26.125L268.793 27.6562L272.594 27.4375C272.885 27.4193 273.186 27.3555 273.496 27.2461C273.605 27.2096 273.688 27.1914 273.742 27.1914C273.87 27.1914 274.098 27.319 274.426 27.5742C274.754 27.8112 274.918 28.0391 274.918 28.2578C274.918 28.349 274.872 28.431 274.781 28.5039C274.708 28.5586 274.608 28.5859 274.48 28.5859H274.398L268.793 28.8594L268.766 30.582L275.055 30.2266C275.456 30.1901 275.766 30.1354 275.984 30.0625L276.203 30.0078C276.385 30.0078 276.641 30.1354 276.969 30.3906C277.315 30.6458 277.488 30.8919 277.488 31.1289C277.488 31.3294 277.324 31.4479 276.996 31.4844L261.902 32.2773V32.9609C261.902 33.3984 261.747 33.6172 261.438 33.6172C261.055 33.5443 260.727 33.4076 260.453 33.207C260.198 33.0065 260.07 32.7331 260.07 32.3867C260.07 32.2773 260.079 32.1862 260.098 32.1133C260.189 31.6393 260.234 31.138 260.234 30.6094L260.289 25.4961C259.451 26.2799 258.603 26.9909 257.746 27.6289C256.889 28.2669 256.333 28.5859 256.078 28.5859C255.969 28.5859 255.914 28.5312 255.914 28.4219ZM256.98 42.2305C256.98 42.0299 257.208 41.7656 257.664 41.4375C258.667 40.7266 259.633 39.8789 260.562 38.8945C261.492 37.8919 262.057 37.1081 262.258 36.543C262.349 36.3424 262.44 36.2422 262.531 36.2422C262.622 36.2422 262.777 36.3424 262.996 36.543C263.233 36.7253 263.434 36.944 263.598 37.1992C263.78 37.4362 263.871 37.6458 263.871 37.8281C263.871 38.0651 263.406 38.5664 262.477 39.332C261.565 40.0794 260.572 40.7721 259.496 41.4102C258.439 42.0664 257.682 42.3945 257.227 42.3945C257.062 42.3945 256.98 42.3398 256.98 42.2305ZM267.262 25.0312L267.289 23.4453L261.957 23.7734L261.793 23.9648V25.332L267.262 25.0312ZM261.848 28.0117L267.234 27.7383V26.2344L261.82 26.5352L261.848 28.0117ZM261.875 30.9375L267.18 30.6641L267.207 28.9414L261.848 29.2148L261.875 30.9375ZM271.336 37.0352C271.336 36.8711 271.418 36.6888 271.582 36.4883C271.746 36.2878 271.938 36.1875 272.156 36.1875C272.375 36.1875 273.077 36.6159 274.262 37.4727C275.447 38.3294 276.531 39.1771 277.516 40.0156C277.789 40.2526 277.926 40.4896 277.926 40.7266C277.926 40.8542 277.844 41.0638 277.68 41.3555C277.516 41.6471 277.315 41.793 277.078 41.793C276.932 41.793 276.732 41.6836 276.477 41.4648C274.945 40.0612 273.341 38.7669 271.664 37.582C271.445 37.418 271.336 37.2357 271.336 37.0352Z" fill="#333333"/>
</svg>
