<svg xmlns="http://www.w3.org/2000/svg" width="340" height="30" fill="none"><path fill="#333" d="M110.906 14.156c-.291 0-.51-.094-.656-.281-.188-.354-.573-.74-1.156-1.156l.062-.156c.646.27 1.188.406 1.625.406.271 0 .5-.156.688-.469.208-.333.427-.813.656-1.438.271-.77.417-1.416.437-1.937 0-.063-.031-.115-.093-.156-.063-.063-.115-.094-.157-.094-.187-.02-.541.01-1.062.094l-.656.094c-.188.02-.406.062-.656.124-.23.063-.417.105-.563.126a6.27 6.27 0 0 0-.406.124 1.49 1.49 0 0 1-.407.094c-.104 0-.229-.052-.374-.156a3.128 3.128 0 0 1-.344-.406c-.021-.021-.032-.063-.032-.125 0-.084.063-.188.188-.313l.344-.344c.104-.124.208-.27.312-.437a3.91 3.91 0 0 1 .25-.406c.104-.167.188-.365.25-.594l.063-.281c0-.021-.011-.073-.031-.157-.021-.104-.063-.156-.126-.156-.833.104-1.447.23-1.843.375a1.97 1.97 0 0 1-.375.125.473.473 0 0 1-.375-.187c-.063-.021-.188-.188-.375-.5-.084-.084-.125-.157-.125-.219 0-.146.219-.23.656-.25l.594-.063c.104 0 .323-.02.656-.062.667-.063 1.594-.135 2.781-.219.417-.02 1.136-.073 2.156-.156.292-.02.646-.063 1.063-.125.229-.063.375-.094.437-.094a.5.5 0 0 1 .313.125c.104.042.24.125.406.25.167.104.292.219.375.344a.497.497 0 0 1 .125.313c0 .104-.052.177-.156.218-.104.042-.24.042-.406 0a4.904 4.904 0 0 0-.875-.125c-.313-.02-.5-.031-.563-.031-.708-.02-1.593.01-2.656.094-.292.041-.51.062-.656.062.125.104.239.271.343.5v.063a.537.537 0 0 1-.093.25.555.555 0 0 1-.219.218c-.104.063-.229.209-.375.438-.146.23-.24.375-.281.438-.125.166-.188.302-.188.406 0 .083.084.114.25.094l.906-.126c.48-.083.834-.156 1.063-.218.063-.021.156-.042.281-.063.146-.02.313-.062.5-.125.146-.02.292.01.438.094.166.083.416.26.75.531.25.188.375.354.375.5a.502.502 0 0 1-.125.313 1.803 1.803 0 0 0-.188.594c-.187.874-.406 1.583-.656 2.124a9.058 9.058 0 0 1-.531.938c-.167.23-.375.458-.625.688-.271.312-.584.468-.938.468Zm.219 10.906c-1 0-1.833-.25-2.5-.75-.687-.562-1.031-1.218-1.031-1.968 0-.584.218-1.094.656-1.532.562-.479 1.271-.718 2.125-.718.042 0 .073-.042.094-.125.041-.104.062-.24.062-.407l.031-.812c-.145.02-.427.052-.843.094a8.517 8.517 0 0 0-.875.125c.104-.021-.219.052-.969.218-.063.021-.177.032-.344.032-.396 0-.729-.177-1-.532-.125-.125-.187-.229-.187-.312 0-.125.187-.188.562-.188l.969-.062 2.656-.344V16.625a1.154 1.154 0 0 1-.031-.281.808.808 0 0 0-.031-.25 1.866 1.866 0 0 1-.063-.313c0-.146.073-.219.219-.219.187 0 .51.136.969.407.146.083.218.198.218.344 0 .104-.02.197-.062.28a.687.687 0 0 0-.031.22v.875l.937-.094 1.156-.125c.105-.021.219-.052.344-.094.146-.042.261-.063.344-.063.125 0 .281.063.469.188.354.23.531.427.531.594 0 .166-.177.25-.531.25-.104 0-.25.02-.438.062-.187.021-.427.042-.719.063l-2.093.156-.031 1.906c-.042.313-.271.51-.688.594h-.062c-.126 0-.25-.01-.376-.031a.717.717 0 0 0-.25-.063c-.166 0-.333.01-.5.032a.83.83 0 0 0-.437.187c-.354.313-.531.677-.531 1.094 0 .416.198.791.594 1.125.354.333.916.5 1.687.5 1.021-.042 1.854-.323 2.5-.844.271-.188.479-.281.625-.281.083 0 .188.02.312.062l.126.125c.062.063.093.125.093.188 0 .583-.489 1.062-1.469 1.437a6.24 6.24 0 0 1-2.187.407Zm5.437-11.843c.105 0 .261.073.469.219-.021.041.021.124.125.25l.219.218c.104.104.208.23.313.375.124.146.26.302.406.469.375.396 1.239 1.427 2.594 3.094.229.333.343.531.343.593 0 .209-.125.313-.375.313-.146 0-.302-.104-.468-.313-.396-.416-1.105-1.072-2.126-1.968-.791-.73-1.51-1.292-2.156-1.688-.312-.146-.468-.312-.468-.5 0-.146.156-.354.468-.625.292-.291.511-.437.656-.437ZM93.812 27.75c.126-1.167.188-2.219.188-3.156V20.53c0-.375.042-1.093.125-2.156-.396 1.104-1.167 2.323-2.313 3.656-1.145 1.334-2.333 2.49-3.562 3.469-1.208.958-2.02 1.438-2.438 1.438-.145 0-.218-.063-.218-.188 0-.167.156-.396.469-.688 2.687-2.458 4.968-5.364 6.843-8.718l-4.094.187h-.437c-.292 0-.51-.01-.656-.031a.778.778 0 0 1-.344-.188c-.208-.166-.406-.406-.594-.718-.166-.313-.25-.542-.25-.688 0-.146.094-.219.281-.219l.126.032c.458.104.895.156 1.312.156h.281l5.438-.219v-2.531l-3.25.156.031.406v.094c0 .438-.177.656-.531.656-.271 0-.594-.104-.969-.312-.375-.23-.563-.52-.563-.875l.032-.469c.041-.458.062-.833.062-1.125 0-.27-.01-.479-.031-.625l-.469-5.812c-.062-.813-.208-1.5-.437-2.063a1.496 1.496 0 0 1-.094-.437c0-.146.094-.219.281-.219.375 0 1.073.219 2.094.656l10.094-.687h.187c.521 0 .917.135 1.188.406.271.25.406.469.406.656 0 .104-.042.24-.125.406-.083.146-.125.25-.125.313l-.812 6.938c.604.604.906 1.02.906 1.25 0 .124-.063.208-.188.25a1.928 1.928 0 0 1-.5.093l-5.312.25v2.531l5.062-.218c.584-.042 1.032-.125 1.344-.25.125-.042.229-.063.312-.063.271 0 .594.156.969.469.396.313.594.604.594.875 0 .313-.229.49-.687.531l-6.813.282.875.937c1.48 1.604 2.698 2.865 3.656 3.781.979.896 2.136 1.76 3.469 2.594.167.104.25.208.25.313 0 .041-.052.135-.156.28-.563.626-1 .938-1.313.938-.208 0-.791-.406-1.75-1.218-.958-.834-2-1.844-3.125-3.032-1.104-1.187-2.031-2.343-2.781-3.468.083.958.125 1.656.125 2.093l.031 8.157c0 .416-.187.625-.562.625-.292 0-.625-.125-1-.375-.354-.25-.531-.542-.531-.875v-.188ZM74.939 7.125c0-.125.062-.188.187-.188.083 0 .156.01.219.032.312.083.646.125 1 .125l.531-.032 7.625-.406c.604-.104 1.02-.198 1.25-.281a.992.992 0 0 1 .281-.063c.209 0 .438.094.688.282.27.187.5.396.687.625.209.229.313.396.313.5 0 .25-.24.396-.719.437l-9.5.594c-.23.02-.5.031-.813.031-.395 0-.656-.052-.78-.156-.376-.333-.636-.635-.782-.906-.125-.292-.188-.49-.188-.594Zm1.937 11.344c0-.125.083-.188.25-.188.333 0 1.063.209 2.188.625l4.718-.218.313-.032c.27 0 .562.146.875.438.312.27.469.52.469.75a.603.603 0 0 1-.094.312 2.21 2.21 0 0 0-.094.282l-.531 4.125c.458.625.687 1.062.687 1.312 0 .146-.062.24-.187.281-.125.042-.334.073-.625.094l-5.094.156.031.594v.094c0 .458-.187.687-.562.687-.292 0-.604-.114-.938-.343-.333-.23-.5-.51-.5-.844v-.219c.042-.5.063-.875.063-1.125v-.406l-.313-4.125c-.062-.75-.208-1.313-.437-1.688-.146-.291-.219-.479-.219-.562Zm.313-7.375c0-.104.041-.156.124-.156.084 0 .146.01.188.03.375.063.75.095 1.125.095h.344l4.219-.25a4.024 4.024 0 0 0 1.093-.25.991.991 0 0 1 .281-.063c.209 0 .5.177.876.531.395.334.593.615.593.844 0 .125-.062.23-.187.313a1.092 1.092 0 0 1-.5.156l-5.75.375c-.167.02-.396.031-.688.031-.437 0-.781-.115-1.031-.344a2.07 2.07 0 0 1-.531-.719c-.104-.27-.156-.468-.156-.593Zm.062 3.812c0-.104.052-.156.156-.156l.156.031c.334.084.709.125 1.126.125h.343l4.031-.187c.334-.021.709-.104 1.126-.25a.991.991 0 0 1 .28-.063c.25 0 .553.177.907.531.354.334.531.615.531.844 0 .271-.219.427-.656.469l-5.594.313-.687.03c-.354 0-.667-.093-.938-.28-.27-.188-.52-.594-.75-1.22a.436.436 0 0 1-.031-.187Zm.781-12.312c0-.25.084-.48.25-.688.188-.208.375-.312.563-.312.125 0 .312.052.562.156 1.48.604 2.563 1.083 3.25 1.438.709.333 1.146.583 1.313.75.187.145.281.291.281.437 0 .188-.094.458-.281.813-.188.354-.427.53-.719.53-.146 0-.354-.083-.625-.25-1.396-.937-2.698-1.676-3.906-2.218-.25-.104-.427-.198-.531-.281a.511.511 0 0 1-.157-.375Zm1.594 22.187 3.625-.125.344-4.25-4.281.157.312 4.218ZM90.313 7.313l3.624-.22V4.5l-3.812.25.188 2.563Zm.312 4.343 3.344-.187-.031-2.781-3.532.187.219 2.781Zm8.844-4.875.25-2.625-3.906.25V7l3.656-.219Zm-.375 4.438.25-2.844-3.5.188v2.812l3.25-.156ZM158.594 13.969c-.271 0-.469-.094-.594-.281a3.712 3.712 0 0 0-.562-.657c-.167-.166-.469-.396-.907-.687l.094-.156c.958.333 1.635.5 2.031.5.334 0 .698-.188 1.094-.563.417-.396.771-.958 1.062-1.688.146-.333.25-.604.313-.812.083-.23.146-.48.187-.75v-.063c0-.187-.093-.28-.281-.28-.208 0-.583.062-1.125.187-.291.083-.677.208-1.156.375l-.25-.063a.733.733 0 0 0-.156-.094 1.174 1.174 0 0 1-.156-.187c-.105-.104-.157-.177-.157-.219L158 8.406c0-.146.073-.281.219-.406.166-.125.26-.219.281-.281.167-.188.5-.646 1-1.375.042-.042.115-.136.219-.282.104-.166.156-.312.156-.437 0-.146-.615-.042-1.844.313-1.25.375-1.906.562-1.969.562-.208 0-.427-.177-.656-.531-.166-.167-.25-.302-.25-.407 0-.145.209-.229.625-.25.479-.02 1.219-.104 2.219-.25 1.021-.145 1.625-.24 1.812-.28l.438-.126a.69.69 0 0 1 .219-.031c.062 0 .156.042.281.125.146.083.271.146.375.188.271.125.427.27.469.437v.094c0 .187-.104.385-.313.593-.083.084-.25.26-.5.532-.25.25-.406.416-.469.5-.083.083-.208.218-.374.406a2.85 2.85 0 0 0-.282.344c0 .062.021.104.063.125.041.02.093.031.156.031a12.917 12.917 0 0 0 1.531-.281l.5-.157c.229 0 .396.084.5.25.188.209.313.386.375.532a.396.396 0 0 1 0 .375.818.818 0 0 1-.093.187 2.04 2.04 0 0 0-.126.219l-.124.25c-.063.125-.105.25-.126.375-.374 1.083-.822 2.01-1.343 2.781a4.975 4.975 0 0 1-.969.906c-.479.355-.948.532-1.406.532Zm2.844 10.656a.56.56 0 0 1-.282-.094 13.272 13.272 0 0 1-.406-.343c-.729-.563-1.438-1.407-2.125-2.532A11.94 11.94 0 0 1 157.156 18a5.64 5.64 0 0 0-.094-.438 1.946 1.946 0 0 0-.124-.375c0-.02-.032-.03-.094-.03-.146 0-.427.093-.844.28a1.47 1.47 0 0 0-.375.282c-.104.104-.219.146-.344.125-.083 0-.198-.052-.343-.157a1.456 1.456 0 0 1-.313-.28c-.208-.292-.313-.47-.313-.532 0-.125.115-.198.344-.219.313 0 .511-.01.594-.031a9.018 9.018 0 0 0 1.719-.406c.083-.021.198-.084.343-.188.021 0 .053-.01.094-.031.063-.02.136 0 .219.063.313.208.469.364.469.468 0 1.459.416 2.823 1.25 4.094.833 1.27 2.052 2.344 3.656 3.219.083.041.188.083.312.125.126.041.188.104.188.187 0 .104-.344.198-1.031.282l-.781.125-.25.062Zm3.124-11.406c.105 0 .261.073.469.219-.021.041.021.124.125.25l.219.218c.104.104.208.23.313.375.124.146.26.302.406.469.375.396 1.239 1.427 2.594 3.094.229.333.343.531.343.593 0 .209-.125.313-.375.313-.146 0-.302-.104-.468-.313-.396-.416-1.105-1.072-2.126-1.968-.791-.73-1.51-1.292-2.156-1.688-.312-.146-.468-.312-.468-.5 0-.146.156-.354.468-.625.292-.291.511-.437.656-.437ZM138.344 8.78a26.111 26.111 0 0 0 2.937 6.375c1.25 1.959 2.698 3.542 4.344 4.75.125.084.229.167.313.25.083.084.124.167.124.25 0 .167-.187.396-.562.688-.354.291-.635.437-.844.437-.146 0-.302-.062-.468-.187-1.292-.98-2.48-2.209-3.563-3.688a26.744 26.744 0 0 1-2.75-4.843c-1.083 1.937-2.219 3.624-3.406 5.062-1.167 1.438-2.209 2.542-3.125 3.313-.917.77-1.521 1.156-1.813 1.156-.146 0-.219-.073-.219-.219 0-.208.167-.51.5-.906 1.542-1.771 2.886-3.49 4.032-5.157 1.146-1.687 2.156-3.593 3.031-5.718l-.469-1.469-7.718.406-.063 18.688c0 .625-.198.937-.594.937-.083 0-.271-.062-.562-.187a2.478 2.478 0 0 1-.781-.5.976.976 0 0 1-.344-.75c0-.084.021-.25.062-.5a8.629 8.629 0 0 0 .188-1.813l.094-15.781a4.84 4.84 0 0 0-.313-1.75c-.125-.313-.187-.542-.187-.688 0-.166.083-.25.25-.25.354 0 1.135.282 2.343.844l7.188-.406a22.01 22.01 0 0 1-.375-1.844 787.399 787.399 0 0 0-.406-2.531c-.063-.333-.292-.688-.688-1.063-.25-.187-.375-.343-.375-.468 0-.146.208-.219.625-.219l.75.063c.5.062.865.156 1.094.28.229.126.364.261.406.407.042.125.073.313.094.563.208 1.895.458 3.468.75 4.718l9.281-.5h.375c.333 0 .646.125.938.375.312.23.468.48.468.75a.94.94 0 0 1-.094.344.724.724 0 0 0-.093.281l-.188 17.875c0 .188.011.375.031.563.042.187.063.375.063.562 0 .521-.156.896-.469 1.125-.312.25-.594.375-.844.375-.437 0-1.26-.312-2.468-.937a26.503 26.503 0 0 1-3.282-2.032c-1-.75-1.5-1.302-1.5-1.656 0-.146.115-.218.344-.218.229 0 .511.083.844.25 1.917.916 3.677 1.593 5.281 2.03l.157-17.874-8.344.437ZM206.812 9.938c-.124 0-.291-.136-.5-.407-.208-.291-.302-.541-.281-.75.042-.166.073-.635.094-1.406.021-.52.031-1.438.031-2.75 0-.917-.01-1.531-.031-1.844l-1.031.094c-.729.104-1.354.156-1.875.156-.146 0-.354-.114-.625-.344-.271-.229-.406-.395-.406-.5 0-.166.177-.229.531-.187.229.02.906.01 2.031-.031a101.74 101.74 0 0 1 3.344-.188c.354-.02.677-.052.968-.093.313-.063.532-.105.657-.125.187-.021.354 0 .5.062.146.063.281.146.406.25.146.083.26.146.344.188.187.124.281.24.281.343 0 .084-.052.167-.156.25a.459.459 0 0 1-.282.094c-.104 0-.25-.01-.437-.031a4.574 4.574 0 0 0-.563-.031c-.77 0-1.562.02-2.374.062-.021.167-.032.583-.032 1.25a90.985 90.985 0 0 0-.062 3.313v1.499c0 .355-.032.584-.094.688-.188.292-.333.438-.438.438Zm-2.656 7.656c-.687-.25-1.01-.521-.968-.813.124-.875.187-1.875.187-3a13.45 13.45 0 0 0-.094-1.781c-.021-.208-.021-.323 0-.344a.426.426 0 0 1 .313-.125c.187 0 .416.084.687.25.292.167.438.334.438.5 0 .104-.011.209-.031.313a1.151 1.151 0 0 0-.032.281l-.187 3.094c0 .166.062.27.187.312h.156c.167 0 .282-.01.344-.031l4.032-.563v-.812c0-1.02-.021-1.813-.063-2.375-.021-.48-.073-.865-.156-1.156-.063-.334.021-.5.25-.5.166 0 .385.062.656.187.333.167.531.313.594.438.062.104.083.27.062.5-.041.375-.062.937-.062 1.687l.031 2.375c0 .5-.094.896-.281 1.188-.104.125-.209.187-.313.187-.104 0-.25-.093-.437-.281a1.845 1.845 0 0 1-.157-.188.411.411 0 0 0-.187-.156.817.817 0 0 0-.25-.031c-.479.042-1.635.198-3.469.469-.312.041-.562.125-.75.25-.208.104-.344.156-.406.156l-.094-.031Zm3.5 10.781c-.646 0-1.146-.02-1.5-.063a1.5 1.5 0 0 1-.844-.375c-.395-.291-.666-.927-.812-1.906l-.094-1c0-.25-.021-.562-.062-.937a5.304 5.304 0 0 0-.719.125c-.042.02-.115.052-.219.093a.857.857 0 0 1-.187.032.723.723 0 0 1-.407-.125c-.124-.084-.281-.24-.468-.469-.146-.188-.219-.313-.219-.375 0-.063.073-.104.219-.125.146-.02.344-.031.594-.031.354 0 .812-.042 1.374-.125l-.031-.438c0-.833-.052-1.541-.156-2.125l-.031-.218c0-.292.114-.407.344-.344.25.083.479.187.687.312.167.084.281.167.344.25.062.063.083.157.062.282l-.093 1.343v.813l2.75-.282c0-.145.01-.49.031-1.03.021-.563.021-.928 0-1.095 0-.166-.021-.322-.063-.468a5.898 5.898 0 0 0-.062-.407c0-.166.083-.25.25-.25.166 0 .375.094.625.282.291.187.479.354.562.5.104.146.125.323.063.531a5.704 5.704 0 0 0-.219 1.125c-.042.417-.063.667-.063.75.25-.02.48-.052.688-.094a2.75 2.75 0 0 1 .406-.062c.167-.042.365-.063.594-.063.125.021.302.146.531.375.188.25.281.448.281.594 0 .208-.197.292-.593.25a6.109 6.109 0 0 0-1.063-.094c-.354 0-.656.01-.906.032a13.34 13.34 0 0 1-.375 2.218.857.857 0 0 1-.219.407c-.104.125-.198.187-.281.187-.146 0-.24-.063-.281-.188a3.051 3.051 0 0 1-.032-.53c.042-.542.063-1.22.063-2.032-.563.042-1 .083-1.313.125a8.296 8.296 0 0 1-1.343.188c-.021.854.021 1.614.125 2.28.062.438.187.74.375.907a.83.83 0 0 0 .437.188c.188.02.375.03.563.03h.375c.646 0 1.25-.03 1.812-.093.167-.02.313-.063.438-.125.146-.063.25-.094.312-.094.188 0 .375.063.563.188.187.125.281.27.281.437 0 .167-.094.292-.281.375-.167.084-.438.157-.813.219-.666.083-1.333.125-2 .125Zm8.906-14.219c.25 0 .376.115.376.344 0 .125-.115.302-.344.531-.625.771-1.865 2.24-3.719 4.406-.146.188-.281.282-.406.282-.104 0-.334-.157-.688-.469-.291-.25-.437-.458-.437-.625 0-.188.156-.365.468-.531.48-.271 1.198-.813 2.157-1.625.958-.854 1.666-1.532 2.125-2.032.187-.187.344-.28.468-.28Zm-41.468.344c-.417 1.77-.74 2.906-.969 3.406-.208.48-.406.719-.594.719-.312 0-.625-.115-.937-.344-.313-.229-.469-.458-.469-.687 0-.125.031-.23.094-.313.791-1.541 1.333-3.281 1.625-5.218.041-.25.094-.417.156-.5.083-.105.25-.157.5-.157l.312.031c.459.146.688.386.688.72 0 .124-.01.228-.031.312l-.094.562.969-.031-.625-7.813c-.084-.833-.177-1.447-.281-1.843-.105-.313-.157-.531-.157-.656 0-.146.084-.22.25-.22.229 0 .75.157 1.563.47.75-.25 1.396-.594 1.937-1.032.563-.437.907-.823 1.031-1.156.063-.208.167-.313.313-.313.229 0 .49.22.781.657.313.437.469.791.469 1.062a.405.405 0 0 1-.219.375c-.916.459-1.656.813-2.218 1.063-.542.25-1.136.479-1.782.687l.125 1.625 1.563-.156a7.29 7.29 0 0 0 1.094-.219 1.7 1.7 0 0 1 .374-.062c.313 0 .615.156.907.468.291.292.437.521.437.688 0 .25-.239.396-.718.438l-3.563.28.125 1.782L179.344 9c.416-.02.771-.094 1.062-.219.125-.041.229-.062.313-.062.187 0 .469.125.843.375.376.25.563.5.563.75 0 .125-.073.229-.219.312-.125.084-.302.136-.531.156l-3.5.25.187 2.344 15.126-.781.187-2.219-2.437.156-.594.032c-.334 0-.604-.104-.813-.313a1.81 1.81 0 0 1-.437-.656c-.063-.23-.094-.385-.094-.469 0-.104.062-.156.188-.156l.156.031c.354.063.687.094 1 .094h.312l2.813-.188.125-1.78-2.563.187-.469.031c-.374 0-.677-.094-.906-.281a1.902 1.902 0 0 1-.437-.625c-.084-.23-.125-.386-.125-.469 0-.125.062-.188.187-.188l.157.032a5.92 5.92 0 0 0 1.031.093h.312l2.938-.218.125-1.938-2.782.188-.593.031c-.604 0-1.011-.188-1.219-.563-.208-.395-.312-.718-.312-.968 0-.104.052-.157.156-.157l.187.032a5.1 5.1 0 0 0 1 .093h.344l3.656-.28h.25c.25 0 .542.093.875.28.354.188.532.428.532.72a.763.763 0 0 1-.063.28 1.019 1.019 0 0 0-.031.25l-.875 8.844 2.093-.094.594-.03c.292 0 .573.124.844.374.292.23.438.469.438.719a.562.562 0 0 1-.219.438 1.445 1.445 0 0 0-.219.25c-1.125 1.437-2.031 2.427-2.719 2.968-.687.542-1.156.813-1.406.813-.167 0-.25-.084-.25-.25 0-.23.135-.51.406-.844.834-1 1.459-1.969 1.875-2.906L175.094 14.5Zm-2.813 6.813c0-.125.073-.188.219-.188l.156.031a8.82 8.82 0 0 0 1.719.188h.406l10.188-.407a6.077 6.077 0 0 0-.688-1.218c-.146-.23-.219-.396-.219-.5 0-.209.146-.386.438-.532.312-.145.552-.218.719-.218.271 0 .521.198.75.593a20.044 20.044 0 0 0 1.969-.937 15.215 15.215 0 0 0 1.593-1.063l-8.469.563c-.27.02-.593.031-.968.031-.5 0-.896-.114-1.188-.343a3.27 3.27 0 0 1-.75-.97.541.541 0 0 1-.094-.25c0-.145.105-.218.313-.218.083 0 .156.01.219.031.333.104.802.156 1.406.156h.438l9.874-.562.594-.031c.292 0 .552.083.782.25.25.146.437.323.562.531.146.188.219.323.219.406 0 .188-.104.344-.313.469l-.375.188a22.447 22.447 0 0 1-2.437 1.625c-.771.416-1.677.864-2.719 1.343l.219.563 8.125-.313a9.059 9.059 0 0 0 2.219-.312c.062-.021.166-.032.312-.032.292 0 .573.105.844.313.271.188.489.406.656.656.188.23.281.386.281.469 0 .25-.187.396-.562.438l-11.469.437c.146.75.229 1.51.25 2.281l.031.844c0 1.396-.208 2.333-.625 2.813-.396.479-.844.718-1.344.718-.437 0-1.124-.24-2.062-.718a18.463 18.463 0 0 1-2.594-1.532c-.771-.562-1.156-.968-1.156-1.218 0-.105.094-.157.281-.157.188 0 .469.063.844.188.687.27 1.531.552 2.531.843 1 .292 1.615.438 1.844.438.104 0 .188-.063.25-.188l.031-.156c.063-.604.094-1.208.094-1.812 0-.813-.063-1.573-.187-2.282l-10.344.375-.906.032c-.563 0-.99-.157-1.282-.469-.291-.333-.489-.667-.594-1a.45.45 0 0 1-.031-.188Zm9.438-9.063c0-.188.26-.48.781-.875.854-.646 1.521-1.27 2-1.875-.792-.583-1.344-.958-1.656-1.125-.271-.146-.406-.292-.406-.438 0-.166.083-.354.25-.562.166-.208.312-.313.437-.313.187 0 .979.448 2.375 1.344.604-.708.958-1.344 1.062-1.906.042-.167.146-.25.313-.25.229 0 .521.146.875.438.375.27.562.53.562.78 0 .147-.208.438-.624.876-.417.437-.709.729-.876.875.313.187.709.458 1.188.812.5.354.75.636.75.844 0 .188-.104.417-.312.688-.188.27-.376.406-.563.406-.167 0-.365-.094-.594-.281l-.562-.47c-.375-.353-.75-.666-1.125-.937-1.834 1.417-3.052 2.125-3.656 2.125-.146 0-.219-.052-.219-.156Zm.25-5.563c0-.208.219-.49.656-.843A17.991 17.991 0 0 0 184.562 4c-1.02-.688-1.656-1.104-1.906-1.25-.229-.146-.344-.302-.344-.469 0-.125.063-.281.188-.469.188-.25.365-.375.531-.375.334 0 1.188.47 2.563 1.407.104-.104.271-.344.5-.719.25-.375.448-.781.594-1.219.062-.166.177-.25.343-.25.229 0 .511.156.844.469.333.292.5.573.5.844 0 .146-.042.26-.125.343l-.625.626-.719.718c.688.48 1.125.823 1.313 1.031.208.188.312.344.312.47 0 .145-.104.364-.312.655-.188.271-.365.407-.531.407-.188 0-.386-.104-.594-.313a20.605 20.605 0 0 0-1.469-1.187c-1.771 1.416-2.917 2.125-3.437 2.125-.146 0-.219-.052-.219-.157ZM254.812 13.688c-.124 0-.291-.136-.5-.407-.208-.291-.302-.541-.281-.75.042-.166.073-.635.094-1.406.021-.52.031-1.438.031-2.75 0-.917-.01-1.531-.031-1.844l-1.031.094c-.729.104-1.354.156-1.875.156-.146 0-.354-.114-.625-.343-.271-.23-.406-.396-.406-.5 0-.167.177-.23.531-.188.229.02.906.01 2.031-.031a101.74 101.74 0 0 1 3.344-.188c.354-.02.677-.052.968-.093.313-.063.532-.105.657-.125.187-.021.354 0 .5.062.146.063.281.146.406.25.146.083.26.146.344.188.187.125.281.24.281.343 0 .084-.052.167-.156.25a.459.459 0 0 1-.282.094c-.104 0-.25-.01-.437-.031a4.574 4.574 0 0 0-.563-.032c-.77 0-1.562.021-2.374.063-.021.167-.032.583-.032 1.25a90.985 90.985 0 0 0-.062 3.313v1.499c0 .355-.032.584-.094.688-.188.292-.333.438-.438.438Zm-3.343 7.406c-.229 0-.511-.177-.844-.532-.25-.25-.375-.437-.375-.562 0-.063.042-.094.125-.094.083-.02.187-.031.313-.031l.687-.031c.396 0 .656-.01.781-.032.396 0 .729-.01 1-.03 1.792-.167 3-.303 3.625-.407.313-.042.594-.083.844-.125.25-.063.448-.094.594-.094.291 0 .583.146.875.438.229.229.344.416.344.562 0 .125-.073.209-.219.25-.104.021-.719.063-1.844.125-.625.021-1.396.073-2.313.157-.916.083-1.718.166-2.406.25-.125.02-.302.052-.531.093a3.668 3.668 0 0 1-.656.063Zm13.093-10.375c.25 0 .376.114.376.344 0 .124-.115.302-.344.53-.625.772-1.865 2.24-3.719 4.407-.146.188-.281.281-.406.281-.104 0-.334-.156-.688-.468-.291-.25-.437-.459-.437-.626 0-.187.156-.364.468-.53.48-.272 1.198-.813 2.157-1.626.958-.854 1.666-1.531 2.125-2.031.187-.188.344-.281.468-.281Zm-36 17.718v.094c0 .188-.052.334-.156.438-.083.104-.218.156-.406.156-.292 0-.625-.104-1-.313-.354-.187-.531-.437-.531-.75v-.187c.041-.417.062-.688.062-.813l-.031-.593-.406-7.563a5.551 5.551 0 0 0-.156-.968c-.063-.355-.126-.605-.188-.75-.167-.334-.25-.573-.25-.72 0-.124.073-.187.219-.187.271 0 1.01.219 2.219.657l3.124-.125c.688-.75 1.209-1.375 1.563-1.875.354-.5.552-.97.594-1.407.041-.333.125-.5.25-.5s.323.104.593.313c.271.208.511.448.719.719.229.27.344.5.344.687 0 .125-.094.292-.281.5-.188.208-.698.688-1.532 1.438l7-.344h.313c.354 0 .687.135 1 .406.313.25.469.51.469.781 0 .104-.042.23-.125.375-.084.146-.125.24-.125.282l-.75 7.625c.479.645.718 1.114.718 1.406 0 .187-.072.302-.218.343-.125.042-.313.063-.563.063l-12.5.219.031.593Zm-7.624-16.312c0-.125.135-.198.406-.219.916-.062 2.166-.396 3.75-1 1.583-.604 2.958-1.198 4.125-1.781.375-.188.666-.281.875-.281.166 0 .25.052.25.156 0 .27-.542.792-1.625 1.563a35.534 35.534 0 0 1-3.5 2.124c-1.25.667-2.094 1-2.531 1-.334 0-.709-.187-1.126-.562-.416-.396-.624-.73-.624-1Zm.343-8.781c0-.167.073-.25.219-.25l.125.031c.313.063.667.094 1.063.094l.718-.031 7.875-.594h.188c.229 0 .489.104.781.312.312.209.469.469.469.781 0 .105-.021.22-.063.344-.021.125-.031.24-.031.344l-.25 8.094v.187l.031 1.094c0 .396-.135.73-.406 1-.25.27-.562.406-.938.406-.208 0-.458-.062-.75-.187a26.736 26.736 0 0 1-2.593-1.375c-.729-.48-1.094-.844-1.094-1.094 0-.146.125-.219.375-.219.229 0 .469.042.719.125.896.292 1.802.5 2.719.625l.25-8.625-6.938.532A6.619 6.619 0 0 1 223 5c-.562 0-.99-.177-1.281-.531-.292-.375-.438-.75-.438-1.125Zm2.125 3.125c0-.209.084-.448.25-.719.167-.27.344-.406.532-.406.083 0 .51.187 1.281.562.791.375 1.51.771 2.156 1.188.646.416.969.75.969 1 0 .166-.115.416-.344.75-.208.312-.427.469-.656.469-.167 0-.396-.115-.688-.344-.791-.625-1.802-1.281-3.031-1.969a5.545 5.545 0 0 1-.375-.25.46.46 0 0 1-.094-.281Zm4.75 15.093 11.375-.437.219-2.969-11.75.563.156 2.843Zm.282 4.532 10.718-.25.25-3.032-11.156.438.188 2.844ZM233 11.187c0-.104.104-.166.312-.187.75-.042 1.928-.354 3.532-.938 1.625-.583 2.989-1.145 4.094-1.687.437-.23.791-.344 1.062-.344.167 0 .25.052.25.156 0 .271-.542.782-1.625 1.532a38.658 38.658 0 0 1-3.437 2.094c-1.23.666-2 1-2.313 1-.292 0-.583-.105-.875-.313-.271-.23-.51-.48-.719-.75-.187-.292-.281-.48-.281-.563Zm.375-8.656c0-.166.073-.25.219-.25l.125.031c.312.084.719.126 1.219.126l.718-.032 7.782-.531h.124c.271 0 .563.073.876.219.312.125.468.375.468.75 0 .125-.021.26-.062.406a2.26 2.26 0 0 0-.032.375l-.562 9.313v.718c0 .396-.021.698-.062.906-.042.209-.167.417-.376.626-.333.333-.635.5-.906.5-.25 0-.802-.209-1.656-.626a19.44 19.44 0 0 1-2.344-1.406c-.708-.5-1.062-.875-1.062-1.125 0-.125.104-.187.312-.187.188 0 .532.083 1.032.25a26.1 26.1 0 0 0 3.124.812l.532-9.781-6.813.531a8.753 8.753 0 0 1-.937.063c-.459 0-.771-.084-.938-.25-.375-.417-.625-.844-.75-1.281l-.031-.157Zm1.25 3.125c0-.229.094-.448.281-.656.188-.23.375-.344.563-.344.187 0 .687.23 1.5.688.833.458 1.656.948 2.469 1.468.354.23.531.47.531.72 0 .228-.104.5-.313.812-.187.291-.385.437-.594.437-.187 0-.395-.104-.624-.312-.73-.604-1.834-1.334-3.313-2.188-.333-.208-.5-.416-.5-.625Z"/></svg>