<svg width="214" height="32" viewBox="0 0 214 32" fill="none" xmlns="http://www.w3.org/2000/svg">
<path d="M40.5195 14.9727C40.1914 14.9727 39.9453 14.8672 39.7812 14.6562C39.5703 14.2578 39.1367 13.8242 38.4805 13.3555L38.5508 13.1797C39.2773 13.4844 39.8867 13.6367 40.3789 13.6367C40.6836 13.6367 40.9414 13.4609 41.1523 13.1094C41.3867 12.7344 41.6328 12.1953 41.8906 11.4922C42.1953 10.625 42.3594 9.89844 42.3828 9.3125C42.3828 9.24219 42.3477 9.18359 42.2773 9.13672C42.207 9.06641 42.1484 9.03125 42.1016 9.03125C41.8906 9.00781 41.4922 9.04297 40.9062 9.13672L40.168 9.24219C39.957 9.26562 39.7109 9.3125 39.4297 9.38281C39.1719 9.45312 38.9609 9.5 38.7969 9.52344C38.7031 9.54687 38.5508 9.59375 38.3398 9.66406C38.1289 9.73438 37.9766 9.76953 37.8828 9.76953C37.7656 9.76953 37.625 9.71094 37.4609 9.59375C37.3203 9.45312 37.1914 9.30078 37.0742 9.13672C37.0508 9.11328 37.0391 9.06641 37.0391 8.99609C37.0391 8.90234 37.1094 8.78516 37.25 8.64453C37.4141 8.48047 37.543 8.35156 37.6367 8.25781C37.7539 8.11719 37.8711 7.95313 37.9883 7.76562C38.1055 7.55469 38.1992 7.40234 38.2695 7.30859C38.3867 7.12109 38.4805 6.89844 38.5508 6.64062L38.6211 6.32422C38.6211 6.30078 38.6094 6.24219 38.5859 6.14844C38.5625 6.03125 38.5156 5.97266 38.4453 5.97266C37.5078 6.08984 36.8164 6.23047 36.3711 6.39453C36.2773 6.44141 36.1367 6.48828 35.9492 6.53516C35.7852 6.53516 35.6445 6.46484 35.5273 6.32422C35.457 6.30078 35.3164 6.11328 35.1055 5.76172C35.0117 5.66797 34.9648 5.58594 34.9648 5.51562C34.9648 5.35156 35.2109 5.25781 35.7031 5.23438L36.3711 5.16406C36.4883 5.16406 36.7344 5.14063 37.1094 5.09375C37.8594 5.02344 38.9023 4.94141 40.2383 4.84766C40.707 4.82422 41.5156 4.76562 42.6641 4.67188C42.9922 4.64844 43.3906 4.60156 43.8594 4.53125C44.1172 4.46094 44.2812 4.42578 44.3516 4.42578C44.4688 4.42578 44.5859 4.47266 44.7031 4.56641C44.8203 4.61328 44.9727 4.70703 45.1602 4.84766C45.3477 4.96484 45.4883 5.09375 45.582 5.23438C45.6758 5.35156 45.7227 5.46875 45.7227 5.58594C45.7227 5.70313 45.6641 5.78516 45.5469 5.83203C45.4297 5.87891 45.2773 5.87891 45.0898 5.83203C44.8086 5.76172 44.4805 5.71484 44.1055 5.69141C43.7539 5.66797 43.543 5.65625 43.4727 5.65625C42.6758 5.63281 41.6797 5.66797 40.4844 5.76172C40.1562 5.80859 39.9102 5.83203 39.7461 5.83203C39.8867 5.94922 40.0156 6.13672 40.1328 6.39453V6.46484C40.1328 6.53516 40.0977 6.62891 40.0273 6.74609C39.957 6.86328 39.875 6.94531 39.7812 6.99219C39.6641 7.0625 39.5234 7.22656 39.3594 7.48438C39.1953 7.74219 39.0898 7.90625 39.043 7.97656C38.9023 8.16406 38.832 8.31641 38.832 8.43359C38.832 8.52734 38.9258 8.5625 39.1133 8.53906C39.2773 8.51563 39.6172 8.46875 40.1328 8.39844C40.6719 8.30469 41.0703 8.22266 41.3281 8.15234C41.3984 8.12891 41.5039 8.10547 41.6445 8.08203C41.8086 8.05859 41.9961 8.01172 42.207 7.94141C42.3711 7.91797 42.5352 7.95313 42.6992 8.04688C42.8867 8.14062 43.168 8.33984 43.543 8.64453C43.8242 8.85547 43.9648 9.04297 43.9648 9.20703C43.9648 9.32422 43.918 9.44141 43.8242 9.55859C43.7305 9.72266 43.6602 9.94531 43.6133 10.2266C43.4023 11.2109 43.1562 12.0078 42.875 12.6172C42.6641 13.0391 42.4648 13.3906 42.2773 13.6719C42.0898 13.9297 41.8555 14.1875 41.5742 14.4453C41.2695 14.7969 40.918 14.9727 40.5195 14.9727ZM40.7656 27.2422C39.6406 27.2422 38.7031 26.9609 37.9531 26.3984C37.1797 25.7656 36.793 25.0273 36.793 24.1836C36.793 23.5273 37.0391 22.9531 37.5312 22.4609C38.1641 21.9219 38.9609 21.6523 39.9219 21.6523C39.9688 21.6523 40.0039 21.6055 40.0273 21.5117C40.0742 21.3945 40.0977 21.2422 40.0977 21.0547L40.1328 20.1406C39.9688 20.1641 39.6523 20.1992 39.1836 20.2461C38.7383 20.293 38.4102 20.3398 38.1992 20.3867C38.3164 20.3633 37.9531 20.4453 37.1094 20.6328C37.0391 20.6562 36.9102 20.668 36.7227 20.668C36.2773 20.668 35.9023 20.4688 35.5977 20.0703C35.457 19.9297 35.3867 19.8125 35.3867 19.7188C35.3867 19.5781 35.5977 19.5078 36.0195 19.5078L37.1094 19.4375L40.0977 19.0508V18.6289V17.75C40.0742 17.6562 40.0625 17.5508 40.0625 17.4336C40.0625 17.3164 40.0508 17.2227 40.0273 17.1523C39.9805 16.9648 39.957 16.8477 39.957 16.8008C39.957 16.6367 40.0391 16.5547 40.2031 16.5547C40.4141 16.5547 40.7773 16.707 41.293 17.0117C41.457 17.1055 41.5391 17.2344 41.5391 17.3984C41.5391 17.5156 41.5156 17.6211 41.4688 17.7148C41.4453 17.7852 41.4336 17.8672 41.4336 17.9609V18.9453L42.4883 18.8398L43.7891 18.6992C43.9062 18.6758 44.0352 18.6406 44.1758 18.5938C44.3398 18.5469 44.4688 18.5234 44.5625 18.5234C44.7031 18.5234 44.8789 18.5938 45.0898 18.7344C45.4883 18.9922 45.6875 19.2148 45.6875 19.4023C45.6875 19.5898 45.4883 19.6836 45.0898 19.6836C44.9727 19.6836 44.8086 19.707 44.5977 19.7539C44.3867 19.7773 44.1172 19.8008 43.7891 19.8242L41.4336 20L41.3984 22.1445C41.3516 22.4961 41.0938 22.7188 40.625 22.8125H40.5547C40.4141 22.8125 40.2734 22.8008 40.1328 22.7773C40.0156 22.7305 39.9219 22.707 39.8516 22.707C39.6641 22.707 39.4766 22.7188 39.2891 22.7422C39.1016 22.7656 38.9375 22.8359 38.7969 22.9531C38.3984 23.3047 38.1992 23.7148 38.1992 24.1836C38.1992 24.6523 38.4219 25.0742 38.8672 25.4492C39.2656 25.8242 39.8984 26.0117 40.7656 26.0117C41.9141 25.9648 42.8516 25.6484 43.5781 25.0625C43.8828 24.8516 44.1172 24.7461 44.2812 24.7461C44.375 24.7461 44.4922 24.7695 44.6328 24.8164C44.6562 24.8398 44.7031 24.8867 44.7734 24.957C44.8438 25.0273 44.8789 25.0977 44.8789 25.168C44.8789 25.8242 44.3281 26.3633 43.2266 26.7852C42.4062 27.0898 41.5859 27.2422 40.7656 27.2422ZM46.8828 13.918C47 13.918 47.1758 14 47.4102 14.1641C47.3867 14.2109 47.4336 14.3047 47.5508 14.4453C47.668 14.5625 47.75 14.6445 47.7969 14.6914C47.9141 14.8086 48.0312 14.9492 48.1484 15.1133C48.2891 15.2773 48.4414 15.4531 48.6055 15.6406C49.0273 16.0859 50 17.2461 51.5234 19.1211C51.7812 19.4961 51.9102 19.7188 51.9102 19.7891C51.9102 20.0234 51.7695 20.1406 51.4883 20.1406C51.3242 20.1406 51.1484 20.0234 50.9609 19.7891C50.5156 19.3203 49.7188 18.582 48.5703 17.5742C47.6797 16.7539 46.8711 16.1211 46.1445 15.6758C45.793 15.5117 45.6172 15.3242 45.6172 15.1133C45.6172 14.9492 45.793 14.7148 46.1445 14.4102C46.4727 14.082 46.7188 13.918 46.8828 13.918ZM21.8867 18.875L21.7109 27.8398L21.6758 29L21.5703 29.8086C21.5469 29.9727 21.4883 30.1836 21.3945 30.4414L21.0781 31.0742C20.9609 31.2383 20.8555 31.3789 20.7617 31.4961L20.4805 31.6719C20.3164 31.6719 20.1523 31.543 19.9883 31.2852C19.8945 31.1445 19.7773 30.8633 19.6367 30.4414C19.4727 30.0195 19.3555 29.668 19.2852 29.3867C19.2617 29.2227 19.25 29.0117 19.25 28.7539C19.25 28.4258 19.3086 27.9922 19.4258 27.4531C19.5664 26.9141 19.6602 26.5273 19.707 26.293C19.7539 26.0352 19.8242 25.4961 19.918 24.6758L20.1289 22.8477L20.1641 21.5117L20.2344 20.5273C19.2734 21.7227 18.5 22.625 17.9141 23.2344C17.3281 23.8438 16.5898 24.4883 15.6992 25.168C14.8086 25.8242 14.0703 26.2695 13.4844 26.5039L12.6055 26.7852L11.4805 27.0664C11.457 26.9258 11.5273 26.7969 11.6914 26.6797L12.2539 26.293C12.3945 26.1992 12.6523 26.0117 13.0273 25.7305L15.0664 23.9023C15.6289 23.3633 16.3672 22.5078 17.2812 21.3359C18.1953 20.1875 18.8398 19.2383 19.2148 18.4883L19.8477 17.3984L17.0352 17.9961C16.7773 18.043 16.4492 18.125 16.0508 18.2422C15.6523 18.3594 15.3594 18.418 15.1719 18.418C14.8672 18.418 14.4805 18.3008 14.0117 18.0664L13.5547 17.8906C13.1797 17.7266 12.9102 17.5625 12.7461 17.3984L12.5703 17.082C12.6172 16.8945 12.7695 16.8008 13.0273 16.8008L14.2227 16.7305L15.6992 16.5898C16.2383 16.543 16.8711 16.4727 17.5977 16.3789L20.4453 15.9922L20.5508 13.2852L17.3867 13.6016L17.1055 13.8477L16.5781 13.9531C16.3906 13.7891 16.2383 13.543 16.1211 13.2148C16.0273 12.8867 15.957 12.4648 15.9102 11.9492L15.3477 7.30859C15.3008 6.98047 15.2539 6.69922 15.207 6.46484C15.1367 6.23047 15.043 5.94922 14.9258 5.62109L14.6797 5.02344L14.1875 4.14453C14.2812 4.00391 14.4805 3.94531 14.7852 3.96875L15.6289 4.10938L16.543 4.35547L20.6914 3.79297C21.3945 3.72266 22.2148 3.60547 23.1523 3.44141L25.1914 3.08984C25.6133 2.99609 25.9883 2.89063 26.3164 2.77344L26.8438 2.59766C27.0547 2.59766 27.3828 2.66797 27.8281 2.80859C28.2734 2.94922 28.5898 3.07812 28.7773 3.19531C28.9648 3.28906 29.2227 3.46484 29.5508 3.72266L30.043 4.32031V4.70703L29.6914 5.19922C29.457 5.50391 29.2812 5.80859 29.1641 6.11328C29.0469 6.44141 28.9414 6.76953 28.8477 7.09766L27.4766 11.8086C27.2891 12.4414 27.1367 12.8633 27.0195 13.0742C26.8789 13.3086 26.7148 13.4727 26.5273 13.5664L25.9297 13.6367L25.6133 13.4609L25.4375 12.7578L22.0977 13.1094L21.957 15.9219L23.9258 15.7461L25.4023 15.6055L27.0547 15.3945C27.5 15.3477 27.9453 15.2773 28.3906 15.1836C28.8359 15.0664 29.1523 15.0078 29.3398 15.0078C29.5742 15.0312 29.8555 15.1133 30.1836 15.2539C30.5117 15.3945 30.8164 15.5469 31.0977 15.7109C31.3789 15.875 31.6367 16.0742 31.8711 16.3086L32.1875 16.7656C32.1641 16.9766 32.0586 17.1055 31.8711 17.1523C31.6836 17.1992 31.4492 17.2227 31.168 17.2227L30.2539 17.1523C30.0664 17.1523 29.4219 17.1289 28.3203 17.082C27.2188 17.0352 26.4336 17.0117 25.9648 17.0117C25.4961 17.0117 24.875 17.0469 24.1016 17.1172L22.8711 17.2227L21.9219 17.3633C22.2031 17.7383 22.4141 17.9961 22.5547 18.1367L23.8555 19.6484L25.6133 21.5469C26.2461 22.1797 26.8555 22.7188 27.4414 23.1641C28.0508 23.6094 28.707 23.9961 29.4102 24.3242C30.1133 24.6992 30.6758 24.9688 31.0977 25.1328C31.543 25.2969 31.918 25.4258 32.2227 25.5195L32.8203 25.7305L33.207 25.9766C33.207 26.1641 33.1133 26.293 32.9258 26.3633L32.0469 26.6094C31.7422 26.6797 31.2148 26.7734 30.4648 26.8906C29.832 27.0078 29.2812 27.0664 28.8125 27.0664C28.3672 27.0664 28.0391 27.0195 27.8281 26.9258C27.6172 26.832 27.3828 26.6797 27.125 26.4688C26.8906 26.2344 26.6094 25.8945 26.2812 25.4492C25.9297 25.0039 25.4961 24.3828 24.9805 23.5859L23.2578 21.0195L22.2031 19.3672L21.8867 18.875ZM17.1758 8.64453L20.4805 8.22266L20.4102 7.16797L20.3398 6.60547L20.2344 5.83203L19.918 4.77734L16.7539 5.23438L17.1758 8.64453ZM20.5508 9.34766C19.7773 9.44141 19.168 9.51172 18.7227 9.55859C18.418 9.58203 18.1484 9.59375 17.9141 9.59375L17.2461 9.55859L17.457 12.3711L20.5508 12.1602V9.34766ZM22.5547 7.97656L23.7852 7.73047C24.3945 7.61328 24.7695 7.54297 24.9102 7.51953L25.8242 7.66016L26.4922 7.73047L26.7383 6.04297C26.8086 5.66797 26.8438 5.33984 26.8438 5.05859L26.7734 4.56641C26.7031 4.40234 26.5742 4.28516 26.3867 4.21484C26.2461 4.16797 26.0234 4.14453 25.7188 4.14453L21.6758 4.60156C22.1211 4.85938 22.4492 5.08203 22.6602 5.26953L23.0117 5.79688C23.0352 5.9375 22.9883 6.125 22.8711 6.35938C22.7773 6.66406 22.707 6.99219 22.6602 7.34375L22.5547 7.97656ZM22.2383 11.8086C22.8242 11.7617 23.4336 11.6914 24.0664 11.5977C24.582 11.5039 24.9336 11.457 25.1211 11.457L25.7539 11.4922L25.9648 10.6133L26.3164 8.75L22.3789 9.20703L22.2383 11.8086ZM9.23047 7.87109C9.01953 7.73047 8.85547 7.58984 8.73828 7.44922C8.59766 7.30859 8.46875 7.15625 8.35156 6.99219C8.23438 6.80469 8.08203 6.53516 7.89453 6.18359L7.40234 5.12891C7.26172 4.77734 7.07422 4.33203 6.83984 3.79297L6.59375 3.19531L6.62891 2.91406L7.08594 2.80859L7.68359 3.01953C7.96484 3.16016 8.22266 3.30078 8.45703 3.44141C8.69141 3.55859 8.92578 3.69922 9.16016 3.86328C9.39453 4.00391 9.60547 4.17969 9.79297 4.39062C9.98047 4.57813 10.1445 4.77734 10.2852 4.98828C10.4258 5.17578 10.5078 5.41016 10.5312 5.69141L10.5664 6.00781L10.5312 6.35938C10.5078 6.57031 10.4492 6.76953 10.3555 6.95703C10.3086 7.14453 10.2031 7.35547 10.0391 7.58984L11.4102 7.44922C11.8789 7.35547 12.207 7.30859 12.3945 7.30859C12.582 7.30859 12.8164 7.35547 13.0977 7.44922C13.4258 7.54297 13.707 7.66016 13.9414 7.80078C14.1758 7.94141 14.2812 8.15234 14.2578 8.43359C14.1875 8.57422 14.0586 8.64453 13.8711 8.64453C13.7305 8.69141 13.4961 8.72656 13.168 8.75C12.8398 8.79688 12.3945 8.85547 11.832 8.92578C11.3164 9.01953 10.8242 9.10156 10.3555 9.17188L7.89453 9.66406C7.47266 9.73438 7.00391 9.83984 6.48828 9.98047C5.97266 10.1211 5.51562 10.2383 5.11719 10.332C4.71875 10.4258 4.37891 10.543 4.09766 10.6836L3.57031 10.8945C3.35938 10.8945 3.16016 10.8711 2.97266 10.8242C2.78516 10.7773 2.57422 10.707 2.33984 10.6133L1.74219 10.3672C1.57812 10.2969 1.37891 10.1797 1.14453 10.0156L0.792969 9.69922L0.828125 9.3125L1.32031 9.17188L2.23438 9.06641C2.75 9.01953 3.78125 8.85547 5.32812 8.57422L9.23047 7.87109ZM5.36328 13.2148L5.92578 13.1094C6.16016 13.0859 6.47656 13.0156 6.875 12.8984C7.29688 12.7812 7.70703 12.6758 8.10547 12.582C8.52734 12.4648 8.87891 12.3477 9.16016 12.2305L9.65234 12.0898L10.1797 12.0547C10.3438 12.0781 10.5898 12.125 10.918 12.1953C11.2461 12.2656 11.4922 12.3477 11.6562 12.4414L11.9023 12.6523L11.7969 12.9336L11.4805 13.1445L10.2852 13.4258L7.47266 14.0586L7.01562 14.1992L6.69922 14.2695C6.53516 14.2695 6.34766 14.2578 6.13672 14.2344L5.46875 14.0938C5.16406 13.9531 4.95312 13.6953 4.83594 13.3203L5.36328 13.2148ZM5.43359 16.6953L5.96094 16.5898L6.73438 16.4492L8.07031 16.168L9.125 15.8164C9.35938 15.7695 9.59375 15.7344 9.82812 15.7109C10.0156 15.7109 10.1914 15.7227 10.3555 15.7461C10.6367 15.7695 10.8711 15.8164 11.0586 15.8867C11.2461 15.957 11.4336 16.0391 11.6211 16.1328L11.8672 16.3438L11.832 16.625C11.7383 16.7422 11.5977 16.8008 11.4102 16.8008L9.72266 17.1523L7.96484 17.5039L6.83984 17.7852L6.03125 17.75C5.82031 17.7031 5.59766 17.6445 5.36328 17.5742C5.12891 17.4805 4.96484 17.2227 4.87109 16.8008C5.15234 16.7539 5.33984 16.7188 5.43359 16.6953ZM5.29297 20.8086L7.26172 20.3867C7.49609 20.3398 7.71875 20.2812 7.92969 20.2109L8.87891 19.8945C9.30078 19.7539 9.61719 19.6133 9.82812 19.4727L10.25 19.2617C10.4141 19.2617 10.6133 19.3086 10.8477 19.4023C11.082 19.4961 11.3516 19.6133 11.6562 19.7539C11.9609 19.8945 12.2305 20.0469 12.4648 20.2109C12.6758 20.3516 12.7344 20.5859 12.6406 20.9141C12.4297 21.1719 12.2656 21.4062 12.1484 21.6172C12.0312 21.8281 11.9258 22.0391 11.832 22.25C11.7383 22.4609 11.6445 22.707 11.5508 22.9883L10.8477 25.0273L11.2695 25.3086L11.4102 25.9062C11.2461 25.9297 11.082 25.9531 10.918 25.9766C10.7305 25.9766 10.5312 25.9883 10.3203 26.0117L9.89844 26.0469C9.73438 26.0703 9.32422 26.1289 8.66797 26.2227L6.55859 26.7148C6.41797 27.0195 6.17188 27.1484 5.82031 27.1016C5.58594 26.8906 5.43359 26.6914 5.36328 26.5039C5.26953 26.293 5.22266 26.0938 5.22266 25.9062L4.76562 23.4102C4.69531 23.082 4.61328 22.7773 4.51953 22.4961C4.44922 22.2148 4.36719 21.9805 4.27344 21.793C4.15625 21.6289 4.02734 21.4883 3.88672 21.3711L3.53516 20.8789C3.58203 20.7148 3.73438 20.6094 3.99219 20.5625L4.58984 20.668L5.29297 20.8086ZM6.62891 25.3438L9.44141 24.7461L9.93359 21.7578L9.96875 21.3711L9.79297 21.0195C9.58203 20.9961 9.30078 21.0195 8.94922 21.0898L6.13672 21.6523L6.62891 25.3438ZM98.2109 13.9883C97.8594 13.9883 97.5195 13.7305 97.1914 13.2148C96.7695 12.5586 96.3594 12.0195 95.9609 11.5977L95.0469 10.6484C94.5547 11.2109 94.1211 11.6562 93.7461 11.9844C93.3945 12.3125 92.9492 12.6289 92.4102 12.9336C91.4023 13.5195 90.5586 13.8125 89.8789 13.8125C89.7148 13.8125 89.6328 13.7539 89.6328 13.6367C89.6328 13.5664 89.8555 13.4141 90.3008 13.1797C90.7461 12.9453 91.168 12.6641 91.5664 12.3359C92.5742 11.4922 93.4062 10.625 94.0625 9.73438C93.9219 9.59375 93.2188 8.98437 91.9531 7.90625C91.7891 7.78906 91.543 7.58984 91.2148 7.30859C91.1445 7.26172 91.0039 7.15625 90.793 6.99219C90.582 6.82813 90.4766 6.71094 90.4766 6.64062C90.4766 6.52344 90.5352 6.46484 90.6523 6.46484C91.0039 6.46484 91.5664 6.71094 92.3398 7.20312C93.1133 7.67188 93.9219 8.23438 94.7656 8.89062C95.0938 8.49219 95.3516 8.11719 95.5391 7.76562C95.7266 7.41406 95.9375 6.98047 96.1719 6.46484C96.2891 6.20703 96.3594 5.98438 96.3828 5.79688C96.4062 5.58594 96.418 5.45703 96.418 5.41016C96.418 5.15234 96.4883 5.02344 96.6289 5.02344C96.793 5.02344 97.0156 5.15234 97.2969 5.41016C97.7891 5.87891 98.0352 6.19531 98.0352 6.35938C98.0352 6.45312 97.9766 6.55859 97.8594 6.67578C97.5781 6.95703 97.3203 7.33203 97.0859 7.80078C96.9453 8.08203 96.6875 8.48047 96.3125 8.99609C96.1953 9.13672 96.1016 9.26562 96.0312 9.38281C95.9609 9.5 95.8906 9.60547 95.8203 9.69922C96.3594 10.0977 97.1562 10.7773 98.2109 11.7383C98.4688 11.9727 98.6328 12.1953 98.7031 12.4062C98.7969 12.5938 98.8438 12.8516 98.8438 13.1797C98.8438 13.4141 98.7852 13.6133 98.668 13.7773C98.5508 13.918 98.3984 13.9883 98.2109 13.9883ZM95.1523 26.6445C95.1523 26.6211 95.2109 26.5391 95.3281 26.3984C95.4688 26.2344 95.6211 26.0352 95.7852 25.8008C96.0664 25.4023 96.3477 24.8164 96.6289 24.043C96.9102 23.2695 97.0625 22.5547 97.0859 21.8984C97.0859 21.8516 97.0625 21.8047 97.0156 21.7578C96.9922 21.6875 96.9336 21.6523 96.8398 21.6523L96.0312 21.7227L94.8359 21.8281C94.5781 22.6719 94.1328 23.5859 93.5 24.5703C93.2188 25.0156 92.832 25.4141 92.3398 25.7656C91.8711 26.0938 91.4141 26.3281 90.9688 26.4688C90.8281 26.5156 90.6523 26.5391 90.4414 26.5391C90.2773 26.5156 90.1953 26.4688 90.1953 26.3984C90.1953 26.3047 90.2773 26.2227 90.4414 26.1523C90.7227 25.9648 91.0391 25.6719 91.3906 25.2734C91.7656 24.875 92.0938 24.4648 92.375 24.043C92.5391 23.8086 92.7148 23.5039 92.9023 23.1289C93.0898 22.7305 93.2422 22.3672 93.3594 22.0391C92.6094 22.1328 91.8359 22.3086 91.0391 22.5664C90.9922 22.6133 90.9102 22.6367 90.793 22.6367C90.7227 22.6367 90.6172 22.5898 90.4766 22.4961C90.2891 22.3086 90.1602 22.168 90.0898 22.0742C90.043 21.957 90.0664 21.8516 90.1602 21.7578L90.3008 21.4766C90.3945 21.3359 90.4883 21.0547 90.582 20.6328C90.6758 20.2109 90.7227 19.8711 90.7227 19.6133C90.7227 19.543 90.7109 19.4609 90.6875 19.3672C90.6875 19.25 90.6992 19.1914 90.7227 19.1914C90.7695 19.168 90.8281 19.168 90.8984 19.1914C91.1562 19.2383 91.3906 19.3203 91.6016 19.4375C91.7891 19.5547 91.918 19.6836 91.9883 19.8242C92.082 19.9414 92.082 20.0469 91.9883 20.1406C91.9648 20.1641 91.9297 20.2109 91.8828 20.2812C91.8359 20.3281 91.8008 20.3984 91.7773 20.4922C91.7539 20.5156 91.707 20.7734 91.6367 21.2656C91.6367 21.2891 91.6484 21.3125 91.6719 21.3359C91.7188 21.3594 91.7656 21.3594 91.8125 21.3359C91.8828 21.3359 91.9883 21.3242 92.1289 21.3008C92.2695 21.2773 92.375 21.2539 92.4453 21.2305C92.6094 21.207 92.7969 21.1719 93.0078 21.125C93.2422 21.0781 93.4531 21.043 93.6406 21.0195C93.7109 20.7617 93.7578 20.4805 93.7812 20.1758C93.8281 19.8477 93.8633 19.625 93.8867 19.5078L93.9219 18.7695V18.5234C93.1719 18.5469 92.3867 18.6172 91.5664 18.7344L90.9336 18.8398H90.793C90.6758 18.8398 90.5586 18.8047 90.4414 18.7344C90.3477 18.6641 90.2422 18.582 90.125 18.4883C89.8203 18.207 89.668 17.9961 89.668 17.8555C89.668 17.7148 89.7734 17.668 89.9844 17.7148C90.2656 17.7617 90.5586 17.7852 90.8633 17.7852L91.8828 17.75L96.7695 17.3984C96.957 17.375 97.1328 17.3516 97.2969 17.3281C97.4609 17.2812 97.625 17.2461 97.7891 17.2227H97.8945C98.1992 17.2227 98.4102 17.2812 98.5273 17.3984C98.668 17.4922 98.75 17.5508 98.7734 17.5742C99.1484 17.8789 99.3359 18.1133 99.3359 18.2773C99.3359 18.418 99.1367 18.4766 98.7383 18.4531L98.0352 18.3828C97.4258 18.3594 96.5117 18.3828 95.293 18.4531L95.1523 19.8242C95.1289 20.0586 95.1055 20.2461 95.082 20.3867C95.0586 20.5273 95.0352 20.6445 95.0117 20.7383L94.9766 20.8438C95.5391 20.7969 96.1953 20.7266 96.9453 20.6328C96.9922 20.6094 97.0742 20.5859 97.1914 20.5625C97.3086 20.5156 97.4258 20.4805 97.543 20.457H97.6133C97.7539 20.457 97.8945 20.5156 98.0352 20.6328C98.1758 20.75 98.2578 20.8203 98.2812 20.8438C98.4688 21.0078 98.5977 21.1484 98.668 21.2656C98.7617 21.3594 98.7734 21.4414 98.7031 21.5117C98.6562 21.6055 98.5977 21.6992 98.5273 21.793C98.4805 21.8633 98.4453 21.9453 98.4219 22.0391C98.3047 23.0234 98.1172 23.8203 97.8594 24.4297C97.6484 24.9688 97.4141 25.3789 97.1562 25.6602C96.9219 25.918 96.6289 26.1641 96.2773 26.3984C96.1367 26.4922 95.9141 26.5742 95.6094 26.6445C95.3047 26.6914 95.1523 26.6914 95.1523 26.6445ZM100.883 13.918C101 13.918 101.176 14 101.41 14.1641C101.387 14.2109 101.434 14.3047 101.551 14.4453C101.668 14.5625 101.75 14.6445 101.797 14.6914C101.914 14.8086 102.031 14.9492 102.148 15.1133C102.289 15.2773 102.441 15.4531 102.605 15.6406C103.027 16.0859 104 17.2461 105.523 19.1211C105.781 19.4961 105.91 19.7188 105.91 19.7891C105.91 20.0234 105.77 20.1406 105.488 20.1406C105.324 20.1406 105.148 20.0234 104.961 19.7891C104.516 19.3203 103.719 18.582 102.57 17.5742C101.68 16.7539 100.871 16.1211 100.145 15.6758C99.793 15.5117 99.6172 15.3242 99.6172 15.1133C99.6172 14.9492 99.793 14.7148 100.145 14.4102C100.473 14.082 100.719 13.918 100.883 13.918ZM64.0391 19.1211C63.8047 19.0039 63.6172 18.8867 63.4766 18.7695C63.3359 18.6758 63.207 18.5586 63.0898 18.418C62.9727 18.3008 62.6797 17.9609 62.2109 17.3984L61.2266 16.3086L60.3125 15.2539L59.75 14.6211L59.3633 15.043C59.1992 15.1836 58.8945 15.418 58.4492 15.7461L57.7812 16.2383L57.3242 16.0977L57.9922 15.2891C58.1797 15.0547 58.5664 14.4805 59.1523 13.5664L60.4531 11.457C60.7344 10.9883 61.0742 10.3438 61.4727 9.52344C61.8711 8.72656 62.1641 8.08203 62.3516 7.58984C62.5391 7.12109 62.7148 6.62891 62.8789 6.11328C63.043 5.62109 63.1484 5.24609 63.1953 4.98828C63.2422 4.70703 63.2656 4.47266 63.2656 4.28516L63.1953 3.72266L63.4414 3.23047H63.793C64.0977 3.27734 64.3906 3.39453 64.6719 3.58203C64.9531 3.76953 65.2109 3.96875 65.4453 4.17969C65.6562 4.39062 65.8438 4.61328 66.0078 4.84766L66.043 5.51562L65.5156 6.04297L65.1992 6.53516C65.0117 6.76953 64.8828 6.95703 64.8125 7.09766L64.4258 7.83594L63.8984 8.75C64.2734 8.72656 64.5781 8.69141 64.8125 8.64453C65.0703 8.62109 65.4922 8.53906 66.0781 8.39844C66.6875 8.28125 67.2266 8.16406 67.6953 8.04688C68.1641 7.92969 68.5391 7.82422 68.8203 7.73047L69.8047 7.48438C70.0156 7.46094 70.2383 7.53125 70.4727 7.69531C70.707 7.85937 70.9531 8.05859 71.2109 8.29297C71.4922 8.50391 71.6914 8.71484 71.8086 8.92578L71.9492 9.34766C71.9258 9.48828 71.8203 9.64063 71.6328 9.80469L71.1055 10.2617C70.9414 10.4258 70.7656 10.6602 70.5781 10.9648C70.3438 11.2695 70.1094 11.6445 69.875 12.0898L68.75 14.2695C68.2812 15.2539 67.918 15.9805 67.6602 16.4492L66.4648 18.5234C65.9258 19.4375 65.3633 20.293 64.7773 21.0898C64.1914 21.8867 63.6289 22.5898 63.0898 23.1992C62.5273 23.8086 61.9414 24.3594 61.332 24.8516C60.6992 25.3438 60.0781 25.7773 59.4688 26.1523C58.8594 26.5039 58.3906 26.7383 58.0625 26.8555L56.6562 26.9961L57.5703 26.2227L58.8008 25.168C59.1992 24.8164 59.6562 24.3711 60.1719 23.832L61.9297 21.9336C62.5859 21.1836 63.0078 20.668 63.1953 20.3867L64.0391 19.1211ZM60.2422 14.1289L61.3672 14.5508C61.6719 14.6445 62.0586 14.8086 62.5273 15.043C62.9961 15.2773 63.3711 15.4883 63.6523 15.6758C63.957 15.8633 64.1797 16.0742 64.3203 16.3086C64.4609 16.4961 64.5898 16.7891 64.707 17.1875L64.8828 17.8203L65.6562 16.4844L66.6055 14.6914C67.0039 13.9414 67.332 13.2969 67.5898 12.7578L68.3281 11.0703C68.5859 10.4609 68.75 10.0039 68.8203 9.69922L68.6797 9.10156C68.5156 9.07813 68.3516 9.08984 68.1875 9.13672L67.3438 9.34766C67.0625 9.39453 66.7109 9.5 66.2891 9.66406L65.2344 10.0156L64.6367 10.1914C64.3789 10.1914 64.0156 10.1211 63.5469 9.98047L62.668 10.9648L61.7539 12.2305L60.8047 13.4961L60.2422 14.1289ZM76.2031 11.9492L76.0625 21.8633L76.0977 24.1836C76.1445 25.6836 76.1914 26.7266 76.2383 27.3125C76.2617 27.7109 76.2734 28.0977 76.2734 28.4727L76.1328 29.3164C76.0625 29.5508 75.9688 29.7852 75.8516 30.0195C75.7578 30.3008 75.6406 30.5352 75.5 30.7227C75.4062 30.957 75.2773 31.1445 75.1133 31.2852L74.7266 31.5312C74.5625 31.5312 74.375 31.3789 74.1641 31.0742C74.0234 30.8867 73.8594 30.6172 73.6719 30.2656C73.5078 29.9141 73.3789 29.5039 73.2852 29.0352C73.2148 28.6602 73.1797 28.3203 73.1797 28.0156C73.1797 27.7578 73.25 27.3711 73.3906 26.8555C73.4844 26.3633 73.5781 25.8359 73.6719 25.2734C73.7656 24.7344 73.8477 24.1016 73.918 23.375C73.9883 22.6484 74.0586 21.7812 74.1289 20.7734C74.1992 19.7656 74.2344 18.6758 74.2344 17.5039L74.375 7.44922V5.97266L74.3047 4.63672C74.3047 4.09766 74.2812 3.65234 74.2344 3.30078C74.2344 2.94922 74.1875 2.62109 74.0938 2.31641C74 1.98828 73.8828 1.69531 73.7422 1.4375C73.5781 1.17969 73.4727 0.863281 73.4258 0.488281C73.5195 0.300781 73.7305 0.207031 74.0586 0.207031C74.3164 0.207031 74.6328 0.265625 75.0078 0.382812C75.3828 0.476562 75.7344 0.582031 76.0625 0.699219C76.4375 0.839844 76.7188 0.980469 76.9062 1.12109L77.2578 1.54297C77.2578 1.73047 77.2109 1.90625 77.1172 2.07031C77 2.32813 76.9062 2.57422 76.8359 2.80859C76.7422 3.04297 76.6719 3.3125 76.625 3.61719C76.5781 3.92187 76.543 4.20312 76.5195 4.46094C76.4961 4.71875 76.4609 5.36328 76.4141 6.39453L76.3438 7.83594L76.2383 11L77.6797 11.457C78.1484 11.5977 78.7695 11.8086 79.543 12.0898C80.293 12.3711 81.043 12.6875 81.793 13.0391C82.5195 13.3672 83.1172 13.6953 83.5859 14.0234C84.0547 14.375 84.4297 14.7266 84.7109 15.0781C84.9922 15.4531 85.2031 15.8281 85.3438 16.2031C85.4844 16.6016 85.5664 16.9766 85.5898 17.3281L85.4844 17.9258C85.3438 18.0195 85.1445 18.0664 84.8867 18.0664C84.6289 18.0664 84.3828 18.0195 84.1484 17.9258C83.8906 17.832 83.5039 17.5977 82.9883 17.2227C82.4492 16.8477 82.0859 16.5781 81.8984 16.4141C81.6641 16.25 81.2188 15.8867 80.5625 15.3242L78.3828 13.5664C77.6328 12.957 77.1172 12.5586 76.8359 12.3711L76.2031 11.9492ZM148.414 10.2266C148.273 10.2266 148.086 10.0742 147.852 9.76953C147.617 9.44141 147.512 9.16016 147.535 8.92578C147.582 8.73828 147.617 8.21094 147.641 7.34375C147.664 6.75781 147.676 5.72656 147.676 4.25C147.676 3.21875 147.664 2.52734 147.641 2.17578L146.48 2.28125C145.66 2.39844 144.957 2.45703 144.371 2.45703C144.207 2.45703 143.973 2.32813 143.668 2.07031C143.363 1.8125 143.211 1.625 143.211 1.50781C143.211 1.32031 143.41 1.25 143.809 1.29688C144.066 1.32031 144.828 1.30859 146.094 1.26172C147.828 1.14453 149.082 1.07422 149.855 1.05078C150.254 1.02734 150.617 0.992188 150.945 0.945312C151.297 0.875 151.543 0.828125 151.684 0.804688C151.895 0.78125 152.082 0.804688 152.246 0.875C152.41 0.945312 152.562 1.03906 152.703 1.15625C152.867 1.25 152.996 1.32031 153.09 1.36719C153.301 1.50781 153.406 1.63672 153.406 1.75391C153.406 1.84766 153.348 1.94141 153.23 2.03516C153.137 2.10547 153.031 2.14062 152.914 2.14062C152.797 2.14062 152.633 2.12891 152.422 2.10547C152.234 2.08203 152.023 2.07031 151.789 2.07031C150.922 2.07031 150.031 2.09375 149.117 2.14062C149.094 2.32813 149.082 2.79687 149.082 3.54688C149.035 4.8125 149.012 6.05469 149.012 7.27344V8.64453V8.96094C149.012 9.35938 148.977 9.61719 148.906 9.73438C148.695 10.0625 148.531 10.2266 148.414 10.2266ZM145.426 18.8398C144.652 18.5586 144.289 18.2539 144.336 17.9258C144.477 16.9414 144.547 15.8164 144.547 14.5508C144.547 13.9883 144.535 13.5781 144.512 13.3203C144.488 13.0156 144.465 12.7578 144.441 12.5469C144.418 12.3125 144.418 12.1836 144.441 12.1602C144.535 12.0664 144.652 12.0195 144.793 12.0195C145.004 12.0195 145.262 12.1133 145.566 12.3008C145.895 12.4883 146.059 12.6758 146.059 12.8633C146.059 12.9805 146.047 13.0977 146.023 13.2148C146 13.3086 145.988 13.4141 145.988 13.5312L145.777 17.0117C145.777 17.1992 145.848 17.3164 145.988 17.3633H146.164C146.352 17.3633 146.48 17.3516 146.551 17.3281L151.086 16.6953V15.7812C151.086 14.6328 151.062 13.7422 151.016 13.1094C150.992 12.5703 150.934 12.1367 150.84 11.8086C150.77 11.4336 150.863 11.2461 151.121 11.2461C151.309 11.2461 151.555 11.3164 151.859 11.457C152.234 11.6445 152.457 11.8086 152.527 11.9492C152.598 12.0664 152.621 12.2539 152.598 12.5117C152.551 12.9336 152.527 13.5664 152.527 14.4102L152.562 17.082C152.562 17.6445 152.457 18.0898 152.246 18.418C152.129 18.5586 152.012 18.6289 151.895 18.6289C151.777 18.6289 151.613 18.5234 151.402 18.3125C151.355 18.2656 151.297 18.1953 151.227 18.1016C151.156 18.0078 151.086 17.9492 151.016 17.9258C150.945 17.9023 150.852 17.8906 150.734 17.8906C150.195 17.9375 148.895 18.1133 146.832 18.418C146.48 18.4648 146.199 18.5586 145.988 18.6992C145.754 18.8164 145.602 18.875 145.531 18.875L145.426 18.8398ZM149.363 30.9688C148.637 30.9688 148.074 30.9453 147.676 30.8984C147.301 30.8516 146.984 30.7109 146.727 30.4766C146.281 30.1484 145.977 29.4336 145.812 28.332L145.707 27.207C145.707 26.9258 145.684 26.5742 145.637 26.1523C145.262 26.1992 144.992 26.2461 144.828 26.293C144.781 26.3164 144.699 26.3516 144.582 26.3984C144.488 26.4219 144.418 26.4336 144.371 26.4336C144.207 26.4336 144.055 26.3867 143.914 26.293C143.773 26.1992 143.598 26.0234 143.387 25.7656C143.223 25.5547 143.141 25.4141 143.141 25.3438C143.141 25.2734 143.223 25.2266 143.387 25.2031C143.551 25.1797 143.773 25.168 144.055 25.168C144.453 25.168 144.969 25.1211 145.602 25.0273L145.566 24.5352C145.566 23.5977 145.508 22.8008 145.391 22.1445L145.355 21.8984C145.355 21.5703 145.484 21.4414 145.742 21.5117C146.023 21.6055 146.281 21.7227 146.516 21.8633C146.703 21.957 146.832 22.0508 146.902 22.1445C146.973 22.2148 146.996 22.3203 146.973 22.4609L146.867 23.9727V24.8867L149.961 24.5703C149.961 24.4062 149.973 24.0195 149.996 23.4102C150.02 22.7773 150.02 22.3672 149.996 22.1797C149.996 21.9922 149.973 21.8164 149.926 21.6523C149.902 21.4648 149.879 21.3125 149.855 21.1953C149.855 21.0078 149.949 20.9141 150.137 20.9141C150.324 20.9141 150.559 21.0195 150.84 21.2305C151.168 21.4414 151.379 21.6289 151.473 21.793C151.59 21.957 151.613 22.1562 151.543 22.3906C151.426 22.7656 151.344 23.1875 151.297 23.6562C151.25 24.125 151.227 24.4062 151.227 24.5C151.508 24.4766 151.766 24.4414 152 24.3945C152.234 24.3477 152.387 24.3242 152.457 24.3242C152.645 24.2773 152.867 24.2539 153.125 24.2539C153.266 24.2773 153.465 24.418 153.723 24.6758C153.934 24.957 154.039 25.1797 154.039 25.3438C154.039 25.5781 153.816 25.6719 153.371 25.625C152.973 25.5547 152.574 25.5195 152.176 25.5195C151.777 25.5195 151.438 25.5312 151.156 25.5547C151.086 26.3984 150.945 27.2305 150.734 28.0508C150.688 28.2383 150.605 28.4023 150.488 28.543C150.371 28.6602 150.266 28.7188 150.172 28.7188C150.008 28.7188 149.902 28.6602 149.855 28.543C149.832 28.4023 149.82 28.1914 149.82 27.9102C149.867 27.3008 149.891 26.5391 149.891 25.625C149.258 25.6719 148.766 25.7188 148.414 25.7656C147.875 25.8828 147.371 25.9531 146.902 25.9766C146.879 26.9375 146.926 27.793 147.043 28.543C147.113 29.0352 147.254 29.375 147.465 29.5625C147.605 29.6797 147.77 29.75 147.957 29.7734C148.168 29.7969 148.379 29.8086 148.59 29.8086C148.801 29.8086 148.941 29.8086 149.012 29.8086C149.738 29.8086 150.418 29.7734 151.051 29.7031C151.238 29.6797 151.402 29.6328 151.543 29.5625C151.707 29.4922 151.824 29.457 151.895 29.457C152.105 29.457 152.316 29.5273 152.527 29.668C152.738 29.8086 152.844 29.9727 152.844 30.1602C152.844 30.3477 152.738 30.4883 152.527 30.582C152.34 30.6758 152.035 30.7578 151.613 30.8281C150.863 30.9219 150.113 30.9688 149.363 30.9688ZM159.383 14.9727C159.664 14.9727 159.805 15.1016 159.805 15.3594C159.805 15.5 159.676 15.6992 159.418 15.957C158.715 16.8242 157.32 18.4766 155.234 20.9141C155.07 21.125 154.918 21.2305 154.777 21.2305C154.66 21.2305 154.402 21.0547 154.004 20.7031C153.676 20.4219 153.512 20.1875 153.512 20C153.512 19.7891 153.688 19.5898 154.039 19.4023C154.578 19.0977 155.387 18.4883 156.465 17.5742C157.543 16.6133 158.34 15.8516 158.855 15.2891C159.066 15.0781 159.242 14.9727 159.383 14.9727ZM116.633 13.1445L115.438 6.57031C115.391 6.3125 115.297 5.9375 115.156 5.44531C114.992 4.95312 114.84 4.60156 114.699 4.39062C114.582 4.15625 114.488 3.86328 114.418 3.51172C114.535 3.37109 114.758 3.30078 115.086 3.30078L116.211 3.44141L116.773 3.65234C117.102 3.37109 117.371 3.11328 117.582 2.87891C117.793 2.64453 118.016 2.28125 118.25 1.78906C118.484 1.29688 118.648 0.980469 118.742 0.839844L119.023 0.628906H119.34C119.574 0.722656 119.879 0.910156 120.254 1.19141C120.605 1.47266 120.863 1.74219 121.027 2L120.992 2.63281C120.641 2.75 120.277 2.89063 119.902 3.05469L118.953 3.47656L117.125 4.39062L117.055 5.30469L117.16 6.78125L119.305 6.11328C119.562 6.01953 119.797 5.96094 120.008 5.9375C120.242 5.91406 120.453 5.90234 120.641 5.90234L120.992 6.04297L121.098 6.60547C120.793 6.83984 120.5 6.98047 120.219 7.02734L117.301 7.55469L117.477 8.64453L117.617 9.62891L119.656 9.13672L120.324 9.06641C120.77 9.04297 121.074 9.06641 121.238 9.13672C121.402 9.23047 121.438 9.44141 121.344 9.76953C121.016 9.98047 120.699 10.0977 120.395 10.1211L117.758 10.4727L118.109 13.0742C121.367 12.793 123.289 12.6055 123.875 12.5117L130.836 11.8438C130.93 11 131 10.4609 131.047 10.2266L131.258 9.34766L129.219 9.48828H128.34C128.035 9.48828 127.801 9.42969 127.637 9.3125L127.391 9.06641L127.426 8.78516C127.543 8.69141 127.777 8.62109 128.129 8.57422L130.344 8.15234L131.012 8.01172L131.539 8.15234L131.855 5.76172L128.445 5.9375L127.707 5.58594C127.73 5.44531 127.836 5.35156 128.023 5.30469L128.797 5.19922L130.484 4.84766L131.258 4.70703L132.031 4.77734L132.172 3.08984L132.102 2.66797C131.914 2.52734 131.68 2.45703 131.398 2.45703C131.117 2.48047 130.871 2.50391 130.66 2.52734L129.816 2.66797C129.488 2.73828 129.172 2.77344 128.867 2.77344C128.68 2.75 128.469 2.69141 128.234 2.59766L127.883 2.07031C127.953 1.92969 128.094 1.85938 128.305 1.85938C128.492 1.83594 128.738 1.80078 129.043 1.75391L130.66 1.40234L131.891 1.01562L132.664 0.839844C132.898 0.816406 133.121 0.839844 133.332 0.910156C133.543 0.980469 133.777 1.09766 134.035 1.26172C134.27 1.40234 134.516 1.58984 134.773 1.82422L135.16 2.28125C135.137 2.44531 135.066 2.63281 134.949 2.84375C134.809 3.05469 134.68 3.30078 134.562 3.58203C134.422 3.86328 134.316 4.10938 134.246 4.32031C134.176 4.53125 134.117 4.77734 134.07 5.05859L132.523 11.5625L134.422 11.3164L135.125 11.1758C135.547 11.082 135.887 11.0352 136.145 11.0352C136.402 11.0586 136.637 11.1172 136.848 11.2109C137.059 11.3281 137.375 11.5625 137.797 11.9141L138.922 12.8281C139.32 13.1797 139.59 13.4961 139.73 13.7773L139.906 14.2695C139.859 14.4805 139.672 14.6328 139.344 14.7266L137.938 14.9023C137.797 14.9492 137.363 15.0664 136.637 15.2539C135.91 15.4414 135.477 15.5469 135.336 15.5703L134.246 15.957L133.719 15.7109L134.633 14.4805C134.867 14.1992 135.066 13.8711 135.23 13.4961L135.406 12.9336C135.359 12.793 135.184 12.7109 134.879 12.6875C134.574 12.6641 134.34 12.6523 134.176 12.6523L119.445 14.0938C118.93 14.1641 118.344 14.2344 117.688 14.3047C117.055 14.3984 116.539 14.4805 116.141 14.5508C115.719 14.6211 115.379 14.6562 115.121 14.6562C114.793 14.6562 114.535 14.6328 114.348 14.5859L113.785 14.4805L113.398 15.5703C113.258 15.9688 113.117 16.3086 112.977 16.5898C112.836 16.8711 112.613 17.1992 112.309 17.5742C112.004 17.9492 111.664 18.1719 111.289 18.2422C111.055 18.2422 110.867 18.1953 110.727 18.1016C110.539 17.9844 110.41 17.7383 110.34 17.3633L110.305 17.082C110.305 16.7773 110.34 16.5078 110.41 16.2734L110.867 15.5352C111.172 15.1133 111.406 14.7148 111.57 14.3398L112.062 13.1445C112.227 12.6758 112.367 12.3125 112.484 12.0547C112.578 11.8203 112.742 11.6914 112.977 11.668L113.363 11.9844C113.48 12.1484 113.586 12.3945 113.68 12.7227L113.785 13.2852C114.559 13.2617 115.039 13.2383 115.227 13.2148L116.633 13.1445ZM125.527 19.543L125.914 20.1055L126.055 21.0547L128.938 20.8086C129.406 20.7617 130.25 20.668 131.469 20.5273C132.688 20.3867 133.566 20.2578 134.105 20.1406C134.645 20 135.008 19.9297 135.195 19.9297C135.477 19.9531 135.922 20.0703 136.531 20.2812C137.164 20.4922 137.633 20.7266 137.938 20.9844C138.219 21.2188 138.301 21.5 138.184 21.8281C137.973 21.9688 137.773 22.0391 137.586 22.0391L136.215 22.0742H133.578L130.977 22.1797L128.234 22.2148L126.055 22.3203L126.02 26.4336C125.996 26.5742 125.973 27.0195 125.949 27.7695C125.902 28.4727 125.855 29.0117 125.809 29.3867C125.762 29.7617 125.645 30.1602 125.457 30.582C125.293 30.9805 125.035 31.3086 124.684 31.5664C124.402 31.8008 124.086 31.8945 123.734 31.8477L123.031 31.0391C122.75 30.6875 122.469 30.3711 122.188 30.0898L121.484 29.457L120.781 28.7539L120.887 28.332L121.906 28.4727L122.891 28.6836L123.418 28.7539C123.629 28.6602 123.77 28.4961 123.84 28.2617C123.91 28.0273 123.969 27.6172 124.016 27.0312L124.156 25.7305V22.4961L121.414 22.7422C120.805 22.8125 120.23 22.8828 119.691 22.9531C119.152 23.0234 118.402 23.1641 117.441 23.375C116.48 23.5625 115.766 23.7148 115.297 23.832C114.828 23.9727 114.488 24.043 114.277 24.043C114.043 24.043 113.773 24.0078 113.469 23.9375C113.188 23.8438 112.859 23.7148 112.484 23.5508C112.109 23.4102 111.828 23.2227 111.641 22.9883L111.359 22.5664C111.406 22.3789 111.594 22.2734 111.922 22.25L112.906 22.2148C113.422 22.2148 114.477 22.1445 116.07 22.0039C117.641 21.8633 118.824 21.7461 119.621 21.6523L124.016 21.1602C123.969 20.8789 123.922 20.6211 123.875 20.3867C123.805 20.1523 123.664 19.918 123.453 19.6836L123.383 18.9453C123.57 18.9219 123.758 18.9336 123.945 18.9805L124.789 19.2266L126.547 17.4336C126.688 17.293 126.828 17.1055 126.969 16.8711L126.934 16.3438C126.793 16.3203 126.652 16.3203 126.512 16.3438L125.352 16.5195L121.625 17.3633L120.359 17.6445L119.867 17.7148C119.633 17.7148 119.445 17.6914 119.305 17.6445C119.164 17.5742 118.953 17.4336 118.672 17.2227L118.18 16.5898C118.203 16.4492 118.297 16.3789 118.461 16.3789C118.648 16.3555 118.953 16.3203 119.375 16.2734L120.711 16.168C121.086 16.168 121.684 16.0742 122.504 15.8867L125.07 15.4297C125.82 15.2656 126.418 15.125 126.863 15.0078C127.309 14.8906 127.625 14.8203 127.812 14.7969C128.047 14.7969 128.246 14.832 128.41 14.9023C128.574 14.9492 128.949 15.1719 129.535 15.5703C130.121 15.9688 130.461 16.2383 130.555 16.3789L130.695 16.8359C130.695 17 130.508 17.1406 130.133 17.2578C129.758 17.375 129.488 17.457 129.324 17.5039C129.16 17.5742 128.961 17.668 128.727 17.7852L125.527 19.543ZM123.77 9.24219L123.031 8.50391L122.293 7.80078L122.328 7.55469L124.297 8.39844C124.438 8.16406 124.543 7.96484 124.613 7.80078C124.684 7.66016 124.754 7.44922 124.824 7.16797C124.895 6.88672 124.93 6.62891 124.93 6.39453L125.105 5.9375H125.422C125.797 6.05469 126.078 6.18359 126.266 6.32422C126.453 6.48828 126.605 6.65234 126.723 6.81641L126.898 7.09766C126.852 7.23828 126.734 7.39063 126.547 7.55469C126.359 7.71875 126.184 7.89453 126.02 8.08203L125.246 8.99609C125.551 9.13672 125.832 9.27734 126.09 9.41797C126.348 9.55859 126.523 9.72266 126.617 9.91016C126.711 10.0977 126.77 10.332 126.793 10.6133C126.793 10.8242 126.734 11.0352 126.617 11.2461L126.441 11.4922L125.914 11.5273C125.727 11.3867 125.504 11.1523 125.246 10.8242L124.508 9.98047L123.594 10.7539C123.312 10.9883 123.008 11.2227 122.68 11.457L121.906 11.8789L121.625 11.7031C121.93 11.375 122.176 11.1055 122.363 10.8945L123.77 9.24219ZM123.98 3.37109L122.539 1.61328L124.543 2.49219L124.789 1.75391C124.883 1.42578 124.953 1.16797 125 0.980469L125.035 0.558594L125.352 0.0664062C125.68 0.113281 125.961 0.207031 126.195 0.347656C126.43 0.488281 126.629 0.652344 126.793 0.839844L126.969 1.19141C126.945 1.33203 126.852 1.46094 126.688 1.57812C126.547 1.69531 126.406 1.84766 126.266 2.03516L125.562 3.01953C125.891 3.23047 126.172 3.39453 126.406 3.51172C126.617 3.65234 126.77 3.79297 126.863 3.93359C126.98 4.09766 127.039 4.30859 127.039 4.56641C127.016 4.84766 126.945 5.07031 126.828 5.23438C126.734 5.39844 126.594 5.50391 126.406 5.55078C126.242 5.55078 126.09 5.50391 125.949 5.41016C125.785 5.31641 125.609 5.12891 125.422 4.84766L124.789 4.14453C124.461 4.47266 124.18 4.76562 123.945 5.02344L123.031 5.76172C122.703 5.99609 122.398 6.18359 122.117 6.32422L121.871 6.25391L122.188 5.76172L123.312 4.35547L123.98 3.37109ZM202.414 14.4453C202.273 14.4453 202.086 14.293 201.852 13.9883C201.617 13.6602 201.512 13.3789 201.535 13.1445C201.582 12.957 201.617 12.4297 201.641 11.5625C201.664 10.9766 201.676 9.94531 201.676 8.46875C201.676 7.4375 201.664 6.74609 201.641 6.39453L200.48 6.5C199.66 6.61719 198.957 6.67578 198.371 6.67578C198.207 6.67578 197.973 6.54688 197.668 6.28906C197.363 6.03125 197.211 5.84375 197.211 5.72656C197.211 5.53906 197.41 5.46875 197.809 5.51562C198.066 5.53906 198.828 5.52734 200.094 5.48047C201.828 5.36328 203.082 5.29297 203.855 5.26953C204.254 5.24609 204.617 5.21094 204.945 5.16406C205.297 5.09375 205.543 5.04687 205.684 5.02344C205.895 5 206.082 5.02344 206.246 5.09375C206.41 5.16406 206.562 5.25781 206.703 5.375C206.867 5.46875 206.996 5.53906 207.09 5.58594C207.301 5.72656 207.406 5.85547 207.406 5.97266C207.406 6.06641 207.348 6.16016 207.23 6.25391C207.137 6.32422 207.031 6.35938 206.914 6.35938C206.797 6.35938 206.633 6.34766 206.422 6.32422C206.234 6.30078 206.023 6.28906 205.789 6.28906C204.922 6.28906 204.031 6.3125 203.117 6.35938C203.094 6.54688 203.082 7.01562 203.082 7.76562C203.035 9.03125 203.012 10.2734 203.012 11.4922V12.8633V13.1797C203.012 13.5781 202.977 13.8359 202.906 13.9531C202.695 14.2812 202.531 14.4453 202.414 14.4453ZM198.652 22.7773C198.395 22.7773 198.078 22.5781 197.703 22.1797C197.422 21.8984 197.281 21.6875 197.281 21.5469C197.281 21.4766 197.328 21.4414 197.422 21.4414C197.516 21.418 197.633 21.4062 197.773 21.4062L198.547 21.3711C198.992 21.3711 199.285 21.3594 199.426 21.3359C199.871 21.3359 200.246 21.3242 200.551 21.3008C202.566 21.1133 203.926 20.9609 204.629 20.8438C204.98 20.7969 205.297 20.75 205.578 20.7031C205.859 20.6328 206.082 20.5977 206.246 20.5977C206.574 20.5977 206.902 20.7617 207.23 21.0898C207.488 21.3477 207.617 21.5586 207.617 21.7227C207.617 21.8633 207.535 21.957 207.371 22.0039C207.254 22.0273 206.562 22.0742 205.297 22.1445C204.594 22.168 203.727 22.2266 202.695 22.3203C201.664 22.4141 200.762 22.5078 199.988 22.6016C199.848 22.625 199.648 22.6602 199.391 22.707C199.133 22.7539 198.887 22.7773 198.652 22.7773ZM213.383 11.1055C213.664 11.1055 213.805 11.2344 213.805 11.4922C213.805 11.6328 213.676 11.832 213.418 12.0898C212.715 12.957 211.32 14.6094 209.234 17.0469C209.07 17.2578 208.918 17.3633 208.777 17.3633C208.66 17.3633 208.402 17.1875 208.004 16.8359C207.676 16.5547 207.512 16.3203 207.512 16.1328C207.512 15.9219 207.688 15.7227 208.039 15.5352C208.578 15.2305 209.387 14.6211 210.465 13.707C211.543 12.7461 212.34 11.9844 212.855 11.4219C213.066 11.2109 213.242 11.1055 213.383 11.1055ZM176.645 18.8398L180.371 18.2773C180.699 18.2305 181.262 18.125 182.059 17.9609C182.855 17.7969 183.512 17.6328 184.027 17.4688C184.402 17.3516 184.742 17.293 185.047 17.293C185.258 17.3398 185.656 17.4922 186.242 17.75C186.852 18.0312 187.32 18.3008 187.648 18.5586C187.953 18.793 188.129 19.0039 188.176 19.1914C188.176 19.3789 188.059 19.707 187.824 20.1758C187.566 20.668 187.402 21.3125 187.332 22.1094C187.285 22.8828 187.262 23.5039 187.262 23.9727L187.297 26.5391C187.273 27.125 187.215 27.7227 187.121 28.332C187.004 28.918 186.781 29.5039 186.453 30.0898C186.102 30.6992 185.785 31.0625 185.504 31.1797L184.941 31.3203C184.801 31.2734 184.625 31.0273 184.414 30.582L183.887 29.3867C183.746 29.0352 183.629 28.8008 183.535 28.6836L183.113 28.1914L177.98 28.6133C176.879 28.707 176.094 28.7773 175.625 28.8242L175.168 28.8594H174.816L173.973 28.6133L173.691 29.5273C173.574 29.8555 173.434 30.0312 173.27 30.0547C173.082 30.0547 172.895 29.9023 172.707 29.5977C172.449 29.1992 172.273 28.7773 172.18 28.332C172.109 28.0039 172.074 27.7109 172.074 27.4531C172.074 27.2891 172.133 26.9727 172.25 26.5039C172.391 26.0586 172.473 25.6836 172.496 25.3789C172.543 25.0508 172.59 24.3594 172.637 23.3047V22.0742C172.637 21.7461 172.59 21.3008 172.496 20.7383C172.402 20.1992 172.285 19.7656 172.145 19.4375L172.004 18.9102C172.051 18.7461 172.156 18.6406 172.32 18.5938C172.508 18.5938 172.754 18.6289 173.059 18.6992L173.973 19.0508L175.73 18.875L176.504 17.5039C176.738 17.1055 176.938 16.7422 177.102 16.4141C177.266 16.0859 177.406 15.7578 177.523 15.4297C177.641 15.1016 177.723 14.832 177.77 14.6211L177.84 14.2344L178.191 13.9883C178.379 13.9648 178.59 14.0117 178.824 14.1289C179.387 14.3633 179.855 14.5977 180.23 14.832L180.406 15.6055L179.809 16.0273C179.668 16.1211 179.422 16.332 179.07 16.6602C178.719 17.0117 178.309 17.3867 177.84 17.7852L176.645 18.8398ZM174.113 27.5586L180.125 26.9961L182.445 26.7148C182.797 26.7148 183.137 26.7617 183.465 26.8555C183.77 26.9492 184.004 27.043 184.168 27.1367L184.484 27.2773L184.766 27.207C184.836 27.0195 184.906 26.7266 184.977 26.3281L185.082 25.6953L185.152 23.1992C184.59 23.3398 184.18 23.4336 183.922 23.4805L181.953 23.7617L180.371 24.0078L177.84 24.3242C177.043 24.4648 176.539 24.5352 176.328 24.5352H174.219L174.113 27.5586ZM174.254 23.5508C174.816 23.457 175.25 23.3867 175.555 23.3398L177.488 23.0586L179.879 22.6719C180.723 22.5312 181.402 22.4023 181.918 22.2852C182.434 22.1914 182.879 22.1445 183.254 22.1445C183.676 22.1445 183.992 22.168 184.203 22.2148L185.117 22.4961L185.188 20.3164C185.188 19.8008 185.07 19.4844 184.836 19.3672C184.602 19.25 184.344 19.1914 184.062 19.1914C183.242 19.2148 182.527 19.2383 181.918 19.2617C181.332 19.3086 180.559 19.3906 179.598 19.5078L174.395 20.1758L174.254 23.5508ZM169.578 5.9375L170.562 6.04297C170.727 6.04297 171.09 6.11328 171.652 6.25391C172.215 6.39453 172.59 6.55859 172.777 6.74609C172.965 6.93359 173.059 7.19141 173.059 7.51953C173.059 7.84766 172.965 8.05859 172.777 8.15234C172.59 8.29297 172.402 8.36328 172.215 8.36328C172.027 8.36328 171.816 8.32812 171.582 8.25781C171.348 8.1875 171.078 8.01172 170.773 7.73047L169.965 7.09766C169.566 6.76953 169.297 6.53516 169.156 6.39453L169.262 5.97266L169.578 5.9375ZM177.418 7.20312L177.453 10.8242C177.453 11.3164 177.43 11.832 177.383 12.3711C177.359 12.8867 177.242 13.3789 177.031 13.8477C176.82 14.293 176.48 14.6914 176.012 15.043C175.613 15.3477 175.273 15.4766 174.992 15.4297C174.875 15.2656 174.582 14.8906 174.113 14.3047L173.41 13.4961L172.953 13.1445L172.426 12.3359L172.707 12.3008L173.34 12.3711C173.949 12.4883 174.371 12.5469 174.605 12.5469C174.816 12.5469 175.016 12.4766 175.203 12.3359C175.391 12.1953 175.531 11.9727 175.625 11.668C175.695 11.3398 175.754 10.6719 175.801 9.66406L175.871 8.29297L175.766 4.74219C175.742 4.50781 175.707 4.30859 175.66 4.14453L175.484 3.82812C175.367 3.73438 175.145 3.69922 174.816 3.72266C174.652 3.72266 174.395 3.74609 174.043 3.79297C173.668 3.81641 173.293 3.85156 172.918 3.89844L171.582 4.07422C170.973 4.16797 170.539 4.27344 170.281 4.39062L169.508 4.53125C169.133 4.41406 168.887 4.26172 168.77 4.07422L168.629 3.6875L169.191 3.51172L169.965 3.44141C170.434 3.39453 170.809 3.34766 171.09 3.30078C171.371 3.25391 171.699 3.19531 172.074 3.125C172.449 3.05469 172.883 2.96094 173.375 2.84375C173.867 2.75 174.348 2.60938 174.816 2.42188L175.625 2.14062C175.789 2.16406 175.953 2.1875 176.117 2.21094C176.258 2.23437 176.469 2.31641 176.75 2.45703C177.008 2.59766 177.301 2.80859 177.629 3.08984C177.957 3.37109 178.133 3.61719 178.156 3.82812L177.945 4.32031C177.734 4.67188 177.582 5.03516 177.488 5.41016C177.418 5.64453 177.383 5.98438 177.383 6.42969C177.383 6.66406 177.395 6.92188 177.418 7.20312ZM185.293 12.4414L184.801 11.8789L185.082 11.668L185.715 11.8438C185.996 11.9375 186.23 12.0078 186.418 12.0547C186.652 12.0781 186.863 12.0898 187.051 12.0898C187.238 12.0664 187.426 11.9961 187.613 11.8789C187.801 11.7852 187.965 11.4453 188.105 10.8594C188.246 10.2734 188.316 9.54687 188.316 8.67969L188.281 4.84766L188.176 3.30078C188.059 3.11328 187.906 2.98438 187.719 2.91406C187.508 2.84375 187.238 2.80859 186.91 2.80859C186.348 2.85547 185.902 2.87891 185.574 2.87891C185.27 2.92578 184.941 2.96094 184.59 2.98438L182.973 3.19531C182.27 3.26562 181.766 3.33594 181.461 3.40625L180.828 3.47656C180.57 3.47656 180.336 3.44141 180.125 3.37109C179.867 3.27734 179.703 3.04297 179.633 2.66797L180.16 2.5625L181.496 2.42188C182.434 2.32813 183.09 2.25781 183.465 2.21094C183.84 2.16406 184.355 2.08203 185.012 1.96484C185.691 1.84766 186.219 1.74219 186.594 1.64844L187.648 1.36719C187.906 1.29688 188.164 1.26172 188.422 1.26172L188.914 1.40234C189.172 1.47266 189.441 1.58984 189.723 1.75391C190.004 1.94141 190.262 2.15234 190.496 2.38672L190.848 2.98438L190.637 3.47656C190.52 3.73438 190.391 4.07422 190.25 4.49609C190.133 4.96484 190.074 5.41016 190.074 5.83203L190.109 8.29297L190.18 9.3125C190.203 9.94531 190.215 10.4492 190.215 10.8242C190.215 11.4102 190.145 11.9609 190.004 12.4766C189.863 13.0156 189.641 13.5195 189.336 13.9883C189.031 14.5039 188.715 14.8438 188.387 15.0078L187.789 15.2539C187.484 15.207 187.191 14.9609 186.91 14.5156C186.629 14.0703 186.348 13.6602 186.066 13.2852C185.785 12.9336 185.527 12.6523 185.293 12.4414ZM181.637 4.56641L182.34 4.70703L183.113 4.8125C183.488 4.88281 183.922 4.98828 184.414 5.12891C184.883 5.26953 185.211 5.45703 185.398 5.69141C185.539 5.87891 185.609 6.125 185.609 6.42969C185.586 6.73437 185.48 6.98047 185.293 7.16797C185.105 7.30859 184.883 7.37891 184.625 7.37891C184.367 7.37891 184.062 7.27344 183.711 7.0625C183.359 6.85156 183.02 6.60547 182.691 6.32422L181.496 5.33984L181.109 4.98828L181.355 4.60156L181.637 4.56641ZM171.125 10.332L174.359 8.71484L174.57 9.10156L171.898 11.3867C171.547 11.668 171.277 11.8906 171.09 12.0547C170.902 12.2188 170.715 12.4062 170.527 12.6172C170.34 12.8281 170.188 13.0273 170.07 13.2148L169.578 13.6367C169.414 13.6367 169.238 13.5898 169.051 13.4961C168.816 13.4023 168.559 13.2383 168.277 13.0039C167.996 12.7695 167.797 12.582 167.68 12.4414C167.562 12.3008 167.457 12.1133 167.363 11.8789L167.574 11.5273C167.879 11.457 168.148 11.3984 168.383 11.3516C168.594 11.2812 168.805 11.2227 169.016 11.1758C169.203 11.1289 169.543 11.0117 170.035 10.8242C170.504 10.6367 170.867 10.4727 171.125 10.332ZM187.121 7.87109L183.957 10.4023L183.043 11.1758C182.855 11.3164 182.656 11.4922 182.445 11.7031L181.918 12.2305L181.637 12.4766L181.355 12.582C181.145 12.582 180.91 12.4766 180.652 12.2656C180.371 12.0781 180.172 11.9258 180.055 11.8086C179.938 11.7148 179.762 11.5391 179.527 11.2812C179.316 11.0234 179.27 10.7305 179.387 10.4023C179.691 10.3086 179.938 10.25 180.125 10.2266C180.289 10.2031 180.5 10.1562 180.758 10.0859C180.992 10.0156 181.332 9.89844 181.777 9.73438C182.223 9.57031 182.621 9.40625 182.973 9.24219L186.945 7.48438L187.227 7.69531L187.121 7.87109Z" fill="#333333"/>
</svg>
