<svg width="191" height="30" viewBox="0 0 191 30" fill="none" xmlns="http://www.w3.org/2000/svg">
<path d="M36.9062 14.1562C36.6146 14.1562 36.3958 14.0625 36.25 13.875C36.0625 13.5208 35.6771 13.1354 35.0938 12.7188L35.1562 12.5625C35.8021 12.8333 36.3438 12.9688 36.7812 12.9688C37.0521 12.9688 37.2812 12.8125 37.4688 12.5C37.6771 12.1667 37.8958 11.6875 38.125 11.0625C38.3958 10.2917 38.5417 9.64583 38.5625 9.125C38.5625 9.0625 38.5312 9.01042 38.4688 8.96875C38.4062 8.90625 38.3542 8.875 38.3125 8.875C38.125 8.85417 37.7708 8.88542 37.25 8.96875L36.5938 9.0625C36.4062 9.08333 36.1875 9.125 35.9375 9.1875C35.7083 9.25 35.5208 9.29167 35.375 9.3125C35.2917 9.33333 35.1562 9.375 34.9688 9.4375C34.7812 9.5 34.6458 9.53125 34.5625 9.53125C34.4583 9.53125 34.3333 9.47917 34.1875 9.375C34.0625 9.25 33.9479 9.11458 33.8438 8.96875C33.8229 8.94792 33.8125 8.90625 33.8125 8.84375C33.8125 8.76042 33.875 8.65625 34 8.53125C34.1458 8.38542 34.2604 8.27083 34.3438 8.1875C34.4479 8.0625 34.5521 7.91667 34.6562 7.75C34.7604 7.5625 34.8438 7.42708 34.9062 7.34375C35.0104 7.17708 35.0938 6.97917 35.1562 6.75L35.2188 6.46875C35.2188 6.44792 35.2083 6.39583 35.1875 6.3125C35.1667 6.20833 35.125 6.15625 35.0625 6.15625C34.2292 6.26042 33.6146 6.38542 33.2188 6.53125C33.1354 6.57292 33.0104 6.61458 32.8438 6.65625C32.6979 6.65625 32.5729 6.59375 32.4688 6.46875C32.4062 6.44792 32.2812 6.28125 32.0938 5.96875C32.0104 5.88542 31.9688 5.8125 31.9688 5.75C31.9688 5.60417 32.1875 5.52083 32.625 5.5L33.2188 5.4375C33.3229 5.4375 33.5417 5.41667 33.875 5.375C34.5417 5.3125 35.4688 5.23958 36.6562 5.15625C37.0729 5.13542 37.7917 5.08333 38.8125 5C39.1042 4.97917 39.4583 4.9375 39.875 4.875C40.1042 4.8125 40.25 4.78125 40.3125 4.78125C40.4167 4.78125 40.5208 4.82292 40.625 4.90625C40.7292 4.94792 40.8646 5.03125 41.0312 5.15625C41.1979 5.26042 41.3229 5.375 41.4062 5.5C41.4896 5.60417 41.5312 5.70833 41.5312 5.8125C41.5312 5.91667 41.4792 5.98958 41.375 6.03125C41.2708 6.07292 41.1354 6.07292 40.9688 6.03125C40.7188 5.96875 40.4271 5.92708 40.0938 5.90625C39.7812 5.88542 39.5938 5.875 39.5312 5.875C38.8229 5.85417 37.9375 5.88542 36.875 5.96875C36.5833 6.01042 36.3646 6.03125 36.2188 6.03125C36.3438 6.13542 36.4583 6.30208 36.5625 6.53125V6.59375C36.5625 6.65625 36.5312 6.73958 36.4688 6.84375C36.4062 6.94792 36.3333 7.02083 36.25 7.0625C36.1458 7.125 36.0208 7.27083 35.875 7.5C35.7292 7.72917 35.6354 7.875 35.5938 7.9375C35.4688 8.10417 35.4062 8.23958 35.4062 8.34375C35.4062 8.42708 35.4896 8.45833 35.6562 8.4375C35.8021 8.41667 36.1042 8.375 36.5625 8.3125C37.0417 8.22917 37.3958 8.15625 37.625 8.09375C37.6875 8.07292 37.7812 8.05208 37.9062 8.03125C38.0521 8.01042 38.2188 7.96875 38.4062 7.90625C38.5521 7.88542 38.6979 7.91667 38.8438 8C39.0104 8.08333 39.2604 8.26042 39.5938 8.53125C39.8438 8.71875 39.9688 8.88542 39.9688 9.03125C39.9688 9.13542 39.9271 9.23958 39.8438 9.34375C39.7604 9.48958 39.6979 9.6875 39.6562 9.9375C39.4688 10.8125 39.25 11.5208 39 12.0625C38.8125 12.4375 38.6354 12.75 38.4688 13C38.3021 13.2292 38.0938 13.4583 37.8438 13.6875C37.5729 14 37.2604 14.1562 36.9062 14.1562ZM37.125 25.0625C36.125 25.0625 35.2917 24.8125 34.625 24.3125C33.9375 23.75 33.5938 23.0938 33.5938 22.3438C33.5938 21.7604 33.8125 21.25 34.25 20.8125C34.8125 20.3333 35.5208 20.0938 36.375 20.0938C36.4167 20.0938 36.4479 20.0521 36.4688 19.9688C36.5104 19.8646 36.5312 19.7292 36.5312 19.5625L36.5625 18.75C36.4167 18.7708 36.1354 18.8021 35.7188 18.8438C35.3229 18.8854 35.0312 18.9271 34.8438 18.9688C34.9479 18.9479 34.625 19.0208 33.875 19.1875C33.8125 19.2083 33.6979 19.2188 33.5312 19.2188C33.1354 19.2188 32.8021 19.0417 32.5312 18.6875C32.4062 18.5625 32.3438 18.4583 32.3438 18.375C32.3438 18.25 32.5312 18.1875 32.9062 18.1875L33.875 18.125L36.5312 17.7812V17.4062V16.625C36.5104 16.5417 36.5 16.4479 36.5 16.3438C36.5 16.2396 36.4896 16.1562 36.4688 16.0938C36.4271 15.9271 36.4062 15.8229 36.4062 15.7812C36.4062 15.6354 36.4792 15.5625 36.625 15.5625C36.8125 15.5625 37.1354 15.6979 37.5938 15.9688C37.7396 16.0521 37.8125 16.1667 37.8125 16.3125C37.8125 16.4167 37.7917 16.5104 37.75 16.5938C37.7292 16.6562 37.7188 16.7292 37.7188 16.8125V17.6875L38.6562 17.5938L39.8125 17.4688C39.9167 17.4479 40.0312 17.4167 40.1562 17.375C40.3021 17.3333 40.4167 17.3125 40.5 17.3125C40.625 17.3125 40.7812 17.375 40.9688 17.5C41.3229 17.7292 41.5 17.9271 41.5 18.0938C41.5 18.2604 41.3229 18.3438 40.9688 18.3438C40.8646 18.3438 40.7188 18.3646 40.5312 18.4062C40.3438 18.4271 40.1042 18.4479 39.8125 18.4688L37.7188 18.625L37.6875 20.5312C37.6458 20.8438 37.4167 21.0417 37 21.125H36.9375C36.8125 21.125 36.6875 21.1146 36.5625 21.0938C36.4583 21.0521 36.375 21.0312 36.3125 21.0312C36.1458 21.0312 35.9792 21.0417 35.8125 21.0625C35.6458 21.0833 35.5 21.1458 35.375 21.25C35.0208 21.5625 34.8438 21.9271 34.8438 22.3438C34.8438 22.7604 35.0417 23.1354 35.4375 23.4688C35.7917 23.8021 36.3542 23.9688 37.125 23.9688C38.1458 23.9271 38.9792 23.6458 39.625 23.125C39.8958 22.9375 40.1042 22.8438 40.25 22.8438C40.3333 22.8438 40.4375 22.8646 40.5625 22.9062C40.5833 22.9271 40.625 22.9688 40.6875 23.0312C40.75 23.0938 40.7812 23.1562 40.7812 23.2188C40.7812 23.8021 40.2917 24.2812 39.3125 24.6562C38.5833 24.9271 37.8542 25.0625 37.125 25.0625ZM42.5625 13.2188C42.6667 13.2188 42.8229 13.2917 43.0312 13.4375C43.0104 13.4792 43.0521 13.5625 43.1562 13.6875C43.2604 13.7917 43.3333 13.8646 43.375 13.9062C43.4792 14.0104 43.5833 14.1354 43.6875 14.2812C43.8125 14.4271 43.9479 14.5833 44.0938 14.75C44.4688 15.1458 45.3333 16.1771 46.6875 17.8438C46.9167 18.1771 47.0312 18.375 47.0312 18.4375C47.0312 18.6458 46.9062 18.75 46.6562 18.75C46.5104 18.75 46.3542 18.6458 46.1875 18.4375C45.7917 18.0208 45.0833 17.3646 44.0625 16.4688C43.2708 15.7396 42.5521 15.1771 41.9062 14.7812C41.5938 14.6354 41.4375 14.4688 41.4375 14.2812C41.4375 14.1354 41.5938 13.9271 41.9062 13.6562C42.1979 13.3646 42.4167 13.2188 42.5625 13.2188ZM19.8125 27.75C19.9375 26.5833 20 25.5312 20 24.5938V20.5312C20 20.1562 20.0417 19.4375 20.125 18.375C19.7292 19.4792 18.9583 20.6979 17.8125 22.0312C16.6667 23.3646 15.4792 24.5208 14.25 25.5C13.0417 26.4583 12.2292 26.9375 11.8125 26.9375C11.6667 26.9375 11.5938 26.875 11.5938 26.75C11.5938 26.5833 11.75 26.3542 12.0625 26.0625C14.75 23.6042 17.0312 20.6979 18.9062 17.3438L14.8125 17.5312H14.375C14.0833 17.5312 13.8646 17.5208 13.7188 17.5C13.5729 17.4583 13.4583 17.3958 13.375 17.3125C13.1667 17.1458 12.9688 16.9062 12.7812 16.5938C12.6146 16.2812 12.5312 16.0521 12.5312 15.9062C12.5312 15.7604 12.625 15.6875 12.8125 15.6875L12.9375 15.7188C13.3958 15.8229 13.8333 15.875 14.25 15.875H14.5312L19.9688 15.6562V13.125L16.7188 13.2812L16.75 13.6875V13.7812C16.75 14.2188 16.5729 14.4375 16.2188 14.4375C15.9479 14.4375 15.625 14.3333 15.25 14.125C14.875 13.8958 14.6875 13.6042 14.6875 13.25L14.7188 12.7812C14.7604 12.3229 14.7812 11.9479 14.7812 11.6562C14.7812 11.3854 14.7708 11.1771 14.75 11.0312L14.2812 5.21875C14.2188 4.40625 14.0729 3.71875 13.8438 3.15625C13.7812 2.96875 13.75 2.82292 13.75 2.71875C13.75 2.57292 13.8438 2.5 14.0312 2.5C14.4062 2.5 15.1042 2.71875 16.125 3.15625L26.2188 2.46875H26.4062C26.9271 2.46875 27.3229 2.60417 27.5938 2.875C27.8646 3.125 28 3.34375 28 3.53125C28 3.63542 27.9583 3.77083 27.875 3.9375C27.7917 4.08333 27.75 4.1875 27.75 4.25L26.9375 11.1875C27.5417 11.7917 27.8438 12.2083 27.8438 12.4375C27.8438 12.5625 27.7812 12.6458 27.6562 12.6875C27.5521 12.7292 27.3854 12.7604 27.1562 12.7812L21.8438 13.0312V15.5625L26.9062 15.3438C27.4896 15.3021 27.9375 15.2188 28.25 15.0938C28.375 15.0521 28.4792 15.0312 28.5625 15.0312C28.8333 15.0312 29.1562 15.1875 29.5312 15.5C29.9271 15.8125 30.125 16.1042 30.125 16.375C30.125 16.6875 29.8958 16.8646 29.4375 16.9062L22.625 17.1875L23.5 18.125C24.9792 19.7292 26.1979 20.9896 27.1562 21.9062C28.1354 22.8021 29.2917 23.6667 30.625 24.5C30.7917 24.6042 30.875 24.7083 30.875 24.8125C30.875 24.8542 30.8229 24.9479 30.7188 25.0938C30.1562 25.7188 29.7188 26.0312 29.4062 26.0312C29.1979 26.0312 28.6146 25.625 27.6562 24.8125C26.6979 23.9792 25.6562 22.9688 24.5312 21.7812C23.4271 20.5938 22.5 19.4375 21.75 18.3125C21.8333 19.2708 21.875 19.9688 21.875 20.4062L21.9062 28.5625C21.9062 28.9792 21.7188 29.1875 21.3438 29.1875C21.0521 29.1875 20.7188 29.0625 20.3438 28.8125C19.9896 28.5625 19.8125 28.2708 19.8125 27.9375V27.75ZM0.9375 7.125C0.9375 7 1 6.9375 1.125 6.9375C1.20833 6.9375 1.28125 6.94792 1.34375 6.96875C1.65625 7.05208 1.98958 7.09375 2.34375 7.09375L2.875 7.0625L10.5 6.65625C11.1042 6.55208 11.5208 6.45833 11.75 6.375C11.875 6.33333 11.9688 6.3125 12.0312 6.3125C12.2396 6.3125 12.4688 6.40625 12.7188 6.59375C12.9896 6.78125 13.2188 6.98958 13.4062 7.21875C13.6146 7.44792 13.7188 7.61458 13.7188 7.71875C13.7188 7.96875 13.4792 8.11458 13 8.15625L3.5 8.75C3.27083 8.77083 3 8.78125 2.6875 8.78125C2.29167 8.78125 2.03125 8.72917 1.90625 8.625C1.53125 8.29167 1.27083 7.98958 1.125 7.71875C1 7.42708 0.9375 7.22917 0.9375 7.125ZM2.875 18.4688C2.875 18.3438 2.95833 18.2812 3.125 18.2812C3.45833 18.2812 4.1875 18.4896 5.3125 18.9062L10.0312 18.6875L10.3438 18.6562C10.6146 18.6562 10.9062 18.8021 11.2188 19.0938C11.5312 19.3646 11.6875 19.6146 11.6875 19.8438C11.6875 19.9479 11.6562 20.0521 11.5938 20.1562C11.5521 20.2604 11.5208 20.3542 11.5 20.4375L10.9688 24.5625C11.4271 25.1875 11.6562 25.625 11.6562 25.875C11.6562 26.0208 11.5938 26.1146 11.4688 26.1562C11.3438 26.1979 11.1354 26.2292 10.8438 26.25L5.75 26.4062L5.78125 27V27.0938C5.78125 27.5521 5.59375 27.7812 5.21875 27.7812C4.92708 27.7812 4.61458 27.6667 4.28125 27.4375C3.94792 27.2083 3.78125 26.9271 3.78125 26.5938V26.375C3.82292 25.875 3.84375 25.5 3.84375 25.25V24.8438L3.53125 20.7188C3.46875 19.9688 3.32292 19.4062 3.09375 19.0312C2.94792 18.7396 2.875 18.5521 2.875 18.4688ZM3.1875 11.0938C3.1875 10.9896 3.22917 10.9375 3.3125 10.9375C3.39583 10.9375 3.45833 10.9479 3.5 10.9688C3.875 11.0312 4.25 11.0625 4.625 11.0625H4.96875L9.1875 10.8125C9.60417 10.7708 9.96875 10.6875 10.2812 10.5625C10.4062 10.5208 10.5 10.5 10.5625 10.5C10.7708 10.5 11.0625 10.6771 11.4375 11.0312C11.8333 11.3646 12.0312 11.6458 12.0312 11.875C12.0312 12 11.9688 12.1042 11.8438 12.1875C11.7188 12.2708 11.5521 12.3229 11.3438 12.3438L5.59375 12.7188C5.42708 12.7396 5.19792 12.75 4.90625 12.75C4.46875 12.75 4.125 12.6354 3.875 12.4062C3.625 12.1771 3.44792 11.9375 3.34375 11.6875C3.23958 11.4167 3.1875 11.2188 3.1875 11.0938ZM3.25 14.9062C3.25 14.8021 3.30208 14.75 3.40625 14.75L3.5625 14.7812C3.89583 14.8646 4.27083 14.9062 4.6875 14.9062H5.03125L9.0625 14.7188C9.39583 14.6979 9.77083 14.6146 10.1875 14.4688C10.3125 14.4271 10.4062 14.4062 10.4688 14.4062C10.7188 14.4062 11.0208 14.5833 11.375 14.9375C11.7292 15.2708 11.9062 15.5521 11.9062 15.7812C11.9062 16.0521 11.6875 16.2083 11.25 16.25L5.65625 16.5625L4.96875 16.5938C4.61458 16.5938 4.30208 16.5 4.03125 16.3125C3.76042 16.125 3.51042 15.7188 3.28125 15.0938C3.26042 15.0521 3.25 14.9896 3.25 14.9062ZM4.03125 2.59375C4.03125 2.34375 4.11458 2.11458 4.28125 1.90625C4.46875 1.69792 4.65625 1.59375 4.84375 1.59375C4.96875 1.59375 5.15625 1.64583 5.40625 1.75C6.88542 2.35417 7.96875 2.83333 8.65625 3.1875C9.36458 3.52083 9.80208 3.77083 9.96875 3.9375C10.1562 4.08333 10.25 4.22917 10.25 4.375C10.25 4.5625 10.1562 4.83333 9.96875 5.1875C9.78125 5.54167 9.54167 5.71875 9.25 5.71875C9.10417 5.71875 8.89583 5.63542 8.625 5.46875C7.22917 4.53125 5.92708 3.79167 4.71875 3.25C4.46875 3.14583 4.29167 3.05208 4.1875 2.96875C4.08333 2.86458 4.03125 2.73958 4.03125 2.59375ZM5.625 24.7812L9.25 24.6562L9.59375 20.4062L5.3125 20.5625L5.625 24.7812ZM16.3125 7.3125L19.9375 7.09375V4.5L16.125 4.75L16.3125 7.3125ZM16.625 11.6562L19.9688 11.4688L19.9375 8.6875L16.4062 8.875L16.625 11.6562ZM25.4688 6.78125L25.7188 4.15625L21.8125 4.40625V7L25.4688 6.78125ZM25.0938 11.2188L25.3438 8.375L21.8438 8.5625V11.375L25.0938 11.2188Z" fill="#333333"/>
<path d="M88.1875 13.2812C87.875 13.2812 87.5729 13.0521 87.2812 12.5938C86.9062 12.0104 86.5417 11.5312 86.1875 11.1562L85.375 10.3125C84.9375 10.8125 84.5521 11.2083 84.2188 11.5C83.9062 11.7917 83.5104 12.0729 83.0312 12.3438C82.1354 12.8646 81.3854 13.125 80.7812 13.125C80.6354 13.125 80.5625 13.0729 80.5625 12.9688C80.5625 12.9062 80.7604 12.7708 81.1562 12.5625C81.5521 12.3542 81.9271 12.1042 82.2812 11.8125C83.1771 11.0625 83.9167 10.2917 84.5 9.5C84.375 9.375 83.75 8.83333 82.625 7.875C82.4792 7.77083 82.2604 7.59375 81.9688 7.34375C81.9062 7.30208 81.7812 7.20833 81.5938 7.0625C81.4062 6.91667 81.3125 6.8125 81.3125 6.75C81.3125 6.64583 81.3646 6.59375 81.4688 6.59375C81.7812 6.59375 82.2812 6.8125 82.9688 7.25C83.6562 7.66667 84.375 8.16667 85.125 8.75C85.4167 8.39583 85.6458 8.0625 85.8125 7.75C85.9792 7.4375 86.1667 7.05208 86.375 6.59375C86.4792 6.36458 86.5417 6.16667 86.5625 6C86.5833 5.8125 86.5938 5.69792 86.5938 5.65625C86.5938 5.42708 86.6562 5.3125 86.7812 5.3125C86.9271 5.3125 87.125 5.42708 87.375 5.65625C87.8125 6.07292 88.0312 6.35417 88.0312 6.5C88.0312 6.58333 87.9792 6.67708 87.875 6.78125C87.625 7.03125 87.3958 7.36458 87.1875 7.78125C87.0625 8.03125 86.8333 8.38542 86.5 8.84375C86.3958 8.96875 86.3125 9.08333 86.25 9.1875C86.1875 9.29167 86.125 9.38542 86.0625 9.46875C86.5417 9.82292 87.25 10.4271 88.1875 11.2812C88.4167 11.4896 88.5625 11.6875 88.625 11.875C88.7083 12.0417 88.75 12.2708 88.75 12.5625C88.75 12.7708 88.6979 12.9479 88.5938 13.0938C88.4896 13.2188 88.3542 13.2812 88.1875 13.2812ZM85.4688 24.5312C85.4688 24.5104 85.5208 24.4375 85.625 24.3125C85.75 24.1667 85.8854 23.9896 86.0312 23.7812C86.2812 23.4271 86.5312 22.9062 86.7812 22.2188C87.0312 21.5312 87.1667 20.8958 87.1875 20.3125C87.1875 20.2708 87.1667 20.2292 87.125 20.1875C87.1042 20.125 87.0521 20.0938 86.9688 20.0938L86.25 20.1562L85.1875 20.25C84.9583 21 84.5625 21.8125 84 22.6875C83.75 23.0833 83.4062 23.4375 82.9688 23.75C82.5521 24.0417 82.1458 24.25 81.75 24.375C81.625 24.4167 81.4688 24.4375 81.2812 24.4375C81.1354 24.4167 81.0625 24.375 81.0625 24.3125C81.0625 24.2292 81.1354 24.1562 81.2812 24.0938C81.5312 23.9271 81.8125 23.6667 82.125 23.3125C82.4583 22.9583 82.75 22.5938 83 22.2188C83.1458 22.0104 83.3021 21.7396 83.4688 21.4062C83.6354 21.0521 83.7708 20.7292 83.875 20.4375C83.2083 20.5208 82.5208 20.6771 81.8125 20.9062C81.7708 20.9479 81.6979 20.9688 81.5938 20.9688C81.5312 20.9688 81.4375 20.9271 81.3125 20.8438C81.1458 20.6771 81.0312 20.5521 80.9688 20.4688C80.9271 20.3646 80.9479 20.2708 81.0312 20.1875L81.1562 19.9375C81.2396 19.8125 81.3229 19.5625 81.4062 19.1875C81.4896 18.8125 81.5312 18.5104 81.5312 18.2812C81.5312 18.2188 81.5208 18.1458 81.5 18.0625C81.5 17.9583 81.5104 17.9062 81.5312 17.9062C81.5729 17.8854 81.625 17.8854 81.6875 17.9062C81.9167 17.9479 82.125 18.0208 82.3125 18.125C82.4792 18.2292 82.5938 18.3438 82.6562 18.4688C82.7396 18.5729 82.7396 18.6667 82.6562 18.75C82.6354 18.7708 82.6042 18.8125 82.5625 18.875C82.5208 18.9167 82.4896 18.9792 82.4688 19.0625C82.4479 19.0833 82.4062 19.3125 82.3438 19.75C82.3438 19.7708 82.3542 19.7917 82.375 19.8125C82.4167 19.8333 82.4583 19.8333 82.5 19.8125C82.5625 19.8125 82.6562 19.8021 82.7812 19.7812C82.9062 19.7604 83 19.7396 83.0625 19.7188C83.2083 19.6979 83.375 19.6667 83.5625 19.625C83.7708 19.5833 83.9583 19.5521 84.125 19.5312C84.1875 19.3021 84.2292 19.0521 84.25 18.7812C84.2917 18.4896 84.3229 18.2917 84.3438 18.1875L84.375 17.5312V17.3125C83.7083 17.3333 83.0104 17.3958 82.2812 17.5L81.7188 17.5938H81.5938C81.4896 17.5938 81.3854 17.5625 81.2812 17.5C81.1979 17.4375 81.1042 17.3646 81 17.2812C80.7292 17.0312 80.5938 16.8438 80.5938 16.7188C80.5938 16.5938 80.6875 16.5521 80.875 16.5938C81.125 16.6354 81.3854 16.6562 81.6562 16.6562L82.5625 16.625L86.9062 16.3125C87.0729 16.2917 87.2292 16.2708 87.375 16.25C87.5208 16.2083 87.6667 16.1771 87.8125 16.1562H87.9062C88.1771 16.1562 88.3646 16.2083 88.4688 16.3125C88.5938 16.3958 88.6667 16.4479 88.6875 16.4688C89.0208 16.7396 89.1875 16.9479 89.1875 17.0938C89.1875 17.2188 89.0104 17.2708 88.6562 17.25L88.0312 17.1875C87.4896 17.1667 86.6771 17.1875 85.5938 17.25L85.4688 18.4688C85.4479 18.6771 85.4271 18.8438 85.4062 18.9688C85.3854 19.0938 85.3646 19.1979 85.3438 19.2812L85.3125 19.375C85.8125 19.3333 86.3958 19.2708 87.0625 19.1875C87.1042 19.1667 87.1771 19.1458 87.2812 19.125C87.3854 19.0833 87.4896 19.0521 87.5938 19.0312H87.6562C87.7812 19.0312 87.9062 19.0833 88.0312 19.1875C88.1562 19.2917 88.2292 19.3542 88.25 19.375C88.4167 19.5208 88.5312 19.6458 88.5938 19.75C88.6771 19.8333 88.6875 19.9062 88.625 19.9688C88.5833 20.0521 88.5312 20.1354 88.4688 20.2188C88.4271 20.2812 88.3958 20.3542 88.375 20.4375C88.2708 21.3125 88.1042 22.0208 87.875 22.5625C87.6875 23.0417 87.4792 23.4062 87.25 23.6562C87.0417 23.8854 86.7812 24.1042 86.4688 24.3125C86.3438 24.3958 86.1458 24.4688 85.875 24.5312C85.6042 24.5729 85.4688 24.5729 85.4688 24.5312ZM90.5625 13.2188C90.6667 13.2188 90.8229 13.2917 91.0312 13.4375C91.0104 13.4792 91.0521 13.5625 91.1562 13.6875C91.2604 13.7917 91.3333 13.8646 91.375 13.9062C91.4792 14.0104 91.5833 14.1354 91.6875 14.2812C91.8125 14.4271 91.9479 14.5833 92.0938 14.75C92.4688 15.1458 93.3333 16.1771 94.6875 17.8438C94.9167 18.1771 95.0312 18.375 95.0312 18.4375C95.0312 18.6458 94.9062 18.75 94.6562 18.75C94.5104 18.75 94.3542 18.6458 94.1875 18.4375C93.7917 18.0208 93.0833 17.3646 92.0625 16.4688C91.2708 15.7396 90.5521 15.1771 89.9062 14.7812C89.5938 14.6354 89.4375 14.4688 89.4375 14.2812C89.4375 14.1354 89.5938 13.9271 89.9062 13.6562C90.1979 13.3646 90.4167 13.2188 90.5625 13.2188ZM56.8125 8.8125C56 10.375 55.1458 11.7917 54.25 13.0625C53.3542 14.3125 52.5521 15.3021 51.8438 16.0312C51.1354 16.7396 50.6667 17.0938 50.4375 17.0938C50.3125 17.0938 50.25 17.0208 50.25 16.875C50.25 16.6042 50.3958 16.2812 50.6875 15.9062C52.1667 13.8021 53.3854 11.7396 54.3438 9.71875C55.3229 7.69792 56.0312 5.96875 56.4688 4.53125C56.9271 3.09375 57.1562 2.14583 57.1562 1.6875L57.125 1.28125C57.125 1.05208 57.2083 0.9375 57.375 0.9375C57.5417 0.9375 57.7917 1.03125 58.125 1.21875C58.4583 1.38542 58.75 1.59375 59 1.84375C59.25 2.09375 59.375 2.33333 59.375 2.5625C59.375 2.64583 59.3542 2.77083 59.3125 2.9375C58.7917 4.41667 58.25 5.78125 57.6875 7.03125L63.0625 6.6875H63.2812C63.6771 6.6875 64.0312 6.82292 64.3438 7.09375C64.6562 7.34375 64.8125 7.59375 64.8125 7.84375C64.8125 8.05208 64.7396 8.26042 64.5938 8.46875C64.4688 8.65625 64.3958 8.78125 64.375 8.84375C62.9375 13.1354 61.1562 16.7917 59.0312 19.8125C56.9271 22.8125 54.1458 25.5 50.6875 27.875C50.2708 28.1667 49.9479 28.3125 49.7188 28.3125C49.5729 28.3125 49.5 28.25 49.5 28.125C49.5 27.875 49.7188 27.5625 50.1562 27.1875C53.5521 24.1667 56.2708 20.9167 58.3125 17.4375C57.3542 16.2083 56.25 15.0312 55 13.9062C54.875 13.7812 54.8125 13.6562 54.8125 13.5312C54.8125 13.3438 54.9271 13.125 55.1562 12.875C55.4062 12.625 55.625 12.5 55.8125 12.5C56.0417 12.5 56.5 12.8542 57.1875 13.5625C57.8958 14.25 58.5833 14.9896 59.25 15.7812C60.4375 13.5104 61.4479 11.0833 62.2812 8.5L56.8125 8.8125ZM66.4688 0.65625C66.4688 0.552083 66.5625 0.5 66.75 0.5C66.875 0.5 67.125 0.541667 67.5 0.625C67.875 0.6875 68.2292 0.8125 68.5625 1C68.8958 1.1875 69.0625 1.42708 69.0625 1.71875V10.4688C69.25 10.2604 69.4271 10.1562 69.5938 10.1562C69.6979 10.1562 70.0938 10.3646 70.7812 10.7812C71.4896 11.1979 72.4167 11.8125 73.5625 12.625C74.7292 13.4167 76.0208 14.3854 77.4375 15.5312C77.75 15.7812 77.9062 16.0104 77.9062 16.2188C77.9062 16.4479 77.7708 16.7604 77.5 17.1562C77.25 17.5312 77 17.7188 76.75 17.7188C76.625 17.7188 76.4583 17.6354 76.25 17.4688C74.875 16.2812 73.6458 15.2708 72.5625 14.4375C71.5 13.6042 70.3333 12.7708 69.0625 11.9375L69.0938 28.5938C69.0938 28.9688 68.9271 29.1562 68.5938 29.1562C68.2812 29.1562 67.8958 29.0417 67.4375 28.8125C67 28.5833 66.7812 28.3021 66.7812 27.9688C66.7812 27.8854 66.7917 27.8125 66.8125 27.75C66.9792 27.0208 67.0625 26.2812 67.0625 25.5312L67.0312 2.375C67.0312 1.85417 66.875 1.35417 66.5625 0.875C66.5 0.770833 66.4688 0.697917 66.4688 0.65625Z" fill="#333333"/>
<path d="M132.812 9.9375C132.688 9.9375 132.521 9.80208 132.312 9.53125C132.104 9.23958 132.01 8.98958 132.031 8.78125C132.073 8.61458 132.104 8.14583 132.125 7.375C132.146 6.85417 132.156 5.9375 132.156 4.625C132.156 3.70833 132.146 3.09375 132.125 2.78125L131.094 2.875C130.365 2.97917 129.74 3.03125 129.219 3.03125C129.073 3.03125 128.865 2.91667 128.594 2.6875C128.323 2.45833 128.188 2.29167 128.188 2.1875C128.188 2.02083 128.365 1.95833 128.719 2C128.948 2.02083 129.625 2.01042 130.75 1.96875C132.292 1.86458 133.406 1.80208 134.094 1.78125C134.448 1.76042 134.771 1.72917 135.062 1.6875C135.375 1.625 135.594 1.58333 135.719 1.5625C135.906 1.54167 136.073 1.5625 136.219 1.625C136.365 1.6875 136.5 1.77083 136.625 1.875C136.771 1.95833 136.885 2.02083 136.969 2.0625C137.156 2.1875 137.25 2.30208 137.25 2.40625C137.25 2.48958 137.198 2.57292 137.094 2.65625C137.01 2.71875 136.917 2.75 136.812 2.75C136.708 2.75 136.562 2.73958 136.375 2.71875C136.208 2.69792 136.021 2.6875 135.812 2.6875C135.042 2.6875 134.25 2.70833 133.438 2.75C133.417 2.91667 133.406 3.33333 133.406 4C133.365 5.125 133.344 6.22917 133.344 7.3125V8.53125V8.8125C133.344 9.16667 133.312 9.39583 133.25 9.5C133.062 9.79167 132.917 9.9375 132.812 9.9375ZM130.156 17.5938C129.469 17.3438 129.146 17.0729 129.188 16.7812C129.312 15.9062 129.375 14.9062 129.375 13.7812C129.375 13.2812 129.365 12.9167 129.344 12.6875C129.323 12.4167 129.302 12.1875 129.281 12C129.26 11.7917 129.26 11.6771 129.281 11.6562C129.365 11.5729 129.469 11.5312 129.594 11.5312C129.781 11.5312 130.01 11.6146 130.281 11.7812C130.573 11.9479 130.719 12.1146 130.719 12.2812C130.719 12.3854 130.708 12.4896 130.688 12.5938C130.667 12.6771 130.656 12.7708 130.656 12.875L130.469 15.9688C130.469 16.1354 130.531 16.2396 130.656 16.2812H130.812C130.979 16.2812 131.094 16.2708 131.156 16.25L135.188 15.6875V14.875C135.188 13.8542 135.167 13.0625 135.125 12.5C135.104 12.0208 135.052 11.6354 134.969 11.3438C134.906 11.0104 134.99 10.8438 135.219 10.8438C135.385 10.8438 135.604 10.9062 135.875 11.0312C136.208 11.1979 136.406 11.3438 136.469 11.4688C136.531 11.5729 136.552 11.7396 136.531 11.9688C136.49 12.3438 136.469 12.9062 136.469 13.6562L136.5 16.0312C136.5 16.5312 136.406 16.9271 136.219 17.2188C136.115 17.3438 136.01 17.4062 135.906 17.4062C135.802 17.4062 135.656 17.3125 135.469 17.125C135.427 17.0833 135.375 17.0208 135.312 16.9375C135.25 16.8542 135.188 16.8021 135.125 16.7812C135.062 16.7604 134.979 16.75 134.875 16.75C134.396 16.7917 133.24 16.9479 131.406 17.2188C131.094 17.2604 130.844 17.3438 130.656 17.4688C130.448 17.5729 130.312 17.625 130.25 17.625L130.156 17.5938ZM133.656 28.375C133.01 28.375 132.51 28.3542 132.156 28.3125C131.823 28.2708 131.542 28.1458 131.312 27.9375C130.917 27.6458 130.646 27.0104 130.5 26.0312L130.406 25.0312C130.406 24.7812 130.385 24.4688 130.344 24.0938C130.01 24.1354 129.771 24.1771 129.625 24.2188C129.583 24.2396 129.51 24.2708 129.406 24.3125C129.323 24.3333 129.26 24.3438 129.219 24.3438C129.073 24.3438 128.938 24.3021 128.812 24.2188C128.688 24.1354 128.531 23.9792 128.344 23.75C128.198 23.5625 128.125 23.4375 128.125 23.375C128.125 23.3125 128.198 23.2708 128.344 23.25C128.49 23.2292 128.688 23.2188 128.938 23.2188C129.292 23.2188 129.75 23.1771 130.312 23.0938L130.281 22.6562C130.281 21.8229 130.229 21.1146 130.125 20.5312L130.094 20.3125C130.094 20.0208 130.208 19.9062 130.438 19.9688C130.688 20.0521 130.917 20.1562 131.125 20.2812C131.292 20.3646 131.406 20.4479 131.469 20.5312C131.531 20.5938 131.552 20.6875 131.531 20.8125L131.438 22.1562V22.9688L134.188 22.6875C134.188 22.5417 134.198 22.1979 134.219 21.6562C134.24 21.0938 134.24 20.7292 134.219 20.5625C134.219 20.3958 134.198 20.2396 134.156 20.0938C134.135 19.9271 134.115 19.7917 134.094 19.6875C134.094 19.5208 134.177 19.4375 134.344 19.4375C134.51 19.4375 134.719 19.5312 134.969 19.7188C135.26 19.9062 135.448 20.0729 135.531 20.2188C135.635 20.3646 135.656 20.5417 135.594 20.75C135.49 21.0833 135.417 21.4583 135.375 21.875C135.333 22.2917 135.312 22.5417 135.312 22.625C135.562 22.6042 135.792 22.5729 136 22.5312C136.208 22.4896 136.344 22.4688 136.406 22.4688C136.573 22.4271 136.771 22.4062 137 22.4062C137.125 22.4271 137.302 22.5521 137.531 22.7812C137.719 23.0312 137.812 23.2292 137.812 23.375C137.812 23.5833 137.615 23.6667 137.219 23.625C136.865 23.5625 136.51 23.5312 136.156 23.5312C135.802 23.5312 135.5 23.5417 135.25 23.5625C135.188 24.3125 135.062 25.0521 134.875 25.7812C134.833 25.9479 134.76 26.0833 134.656 26.1875C134.552 26.3125 134.458 26.375 134.375 26.375C134.229 26.375 134.135 26.3125 134.094 26.1875C134.073 26.0833 134.062 25.9062 134.062 25.6562C134.104 25.1146 134.125 24.4375 134.125 23.625C133.562 23.6667 133.125 23.7083 132.812 23.75C132.333 23.8542 131.885 23.9167 131.469 23.9375C131.448 24.7917 131.49 25.5521 131.594 26.2188C131.656 26.6562 131.781 26.9583 131.969 27.125C132.094 27.2292 132.24 27.2917 132.406 27.3125C132.594 27.3333 132.781 27.3438 132.969 27.3438C133.156 27.3438 133.281 27.3438 133.344 27.3438C133.99 27.3438 134.594 27.3125 135.156 27.25C135.323 27.2292 135.469 27.1875 135.594 27.125C135.74 27.0625 135.844 27.0312 135.906 27.0312C136.094 27.0312 136.281 27.0938 136.469 27.2188C136.656 27.3438 136.75 27.4896 136.75 27.6562C136.75 27.8229 136.656 27.9479 136.469 28.0312C136.302 28.1146 136.031 28.1875 135.656 28.25C134.99 28.3333 134.323 28.375 133.656 28.375ZM142.562 14.1562C142.812 14.1562 142.938 14.2708 142.938 14.5C142.938 14.625 142.823 14.8021 142.594 15.0312C141.969 15.8021 140.729 17.2708 138.875 19.4375C138.729 19.625 138.594 19.7188 138.469 19.7188C138.365 19.7188 138.135 19.5625 137.781 19.25C137.49 19 137.344 18.7917 137.344 18.625C137.344 18.4375 137.5 18.2604 137.812 18.0938C138.292 17.8229 139.01 17.2812 139.969 16.4688C140.927 15.6146 141.635 14.9375 142.094 14.4375C142.281 14.25 142.438 14.1562 142.562 14.1562ZM101.094 14.5C100.677 16.2708 100.354 17.4062 100.125 17.9062C99.9167 18.3854 99.7188 18.625 99.5312 18.625C99.2188 18.625 98.9062 18.5104 98.5938 18.2812C98.2812 18.0521 98.125 17.8229 98.125 17.5938C98.125 17.4688 98.1562 17.3646 98.2188 17.2812C99.0104 15.7396 99.5521 14 99.8438 12.0625C99.8854 11.8125 99.9375 11.6458 100 11.5625C100.083 11.4583 100.25 11.4062 100.5 11.4062L100.812 11.4375C101.271 11.5833 101.5 11.8229 101.5 12.1562C101.5 12.2812 101.49 12.3854 101.469 12.4688L101.375 13.0312L102.344 13L101.719 5.1875C101.635 4.35417 101.542 3.73958 101.438 3.34375C101.333 3.03125 101.281 2.8125 101.281 2.6875C101.281 2.54167 101.365 2.46875 101.531 2.46875C101.76 2.46875 102.281 2.625 103.094 2.9375C103.844 2.6875 104.49 2.34375 105.031 1.90625C105.594 1.46875 105.938 1.08333 106.062 0.75C106.125 0.541667 106.229 0.4375 106.375 0.4375C106.604 0.4375 106.865 0.65625 107.156 1.09375C107.469 1.53125 107.625 1.88542 107.625 2.15625C107.625 2.32292 107.552 2.44792 107.406 2.53125C106.49 2.98958 105.75 3.34375 105.188 3.59375C104.646 3.84375 104.052 4.07292 103.406 4.28125L103.531 5.90625L105.094 5.75C105.448 5.70833 105.812 5.63542 106.188 5.53125C106.354 5.48958 106.479 5.46875 106.562 5.46875C106.875 5.46875 107.177 5.625 107.469 5.9375C107.76 6.22917 107.906 6.45833 107.906 6.625C107.906 6.875 107.667 7.02083 107.188 7.0625L103.625 7.34375L103.75 9.125L105.344 9C105.76 8.97917 106.115 8.90625 106.406 8.78125C106.531 8.73958 106.635 8.71875 106.719 8.71875C106.906 8.71875 107.188 8.84375 107.562 9.09375C107.938 9.34375 108.125 9.59375 108.125 9.84375C108.125 9.96875 108.052 10.0729 107.906 10.1562C107.781 10.2396 107.604 10.2917 107.375 10.3125L103.875 10.5625L104.062 12.9062L119.188 12.125L119.375 9.90625L116.938 10.0625L116.344 10.0938C116.01 10.0938 115.74 9.98958 115.531 9.78125C115.323 9.57292 115.177 9.35417 115.094 9.125C115.031 8.89583 115 8.73958 115 8.65625C115 8.55208 115.062 8.5 115.188 8.5L115.344 8.53125C115.698 8.59375 116.031 8.625 116.344 8.625H116.656L119.469 8.4375L119.594 6.65625L117.031 6.84375L116.562 6.875C116.188 6.875 115.885 6.78125 115.656 6.59375C115.448 6.38542 115.302 6.17708 115.219 5.96875C115.135 5.73958 115.094 5.58333 115.094 5.5C115.094 5.375 115.156 5.3125 115.281 5.3125L115.438 5.34375C115.792 5.40625 116.135 5.4375 116.469 5.4375H116.781L119.719 5.21875L119.844 3.28125L117.062 3.46875L116.469 3.5C115.865 3.5 115.458 3.3125 115.25 2.9375C115.042 2.54167 114.938 2.21875 114.938 1.96875C114.938 1.86458 114.99 1.8125 115.094 1.8125L115.281 1.84375C115.594 1.90625 115.927 1.9375 116.281 1.9375H116.625L120.281 1.65625H120.531C120.781 1.65625 121.073 1.75 121.406 1.9375C121.76 2.125 121.938 2.36458 121.938 2.65625C121.938 2.73958 121.917 2.83333 121.875 2.9375C121.854 3.02083 121.844 3.10417 121.844 3.1875L120.969 12.0312L123.062 11.9375L123.656 11.9062C123.948 11.9062 124.229 12.0312 124.5 12.2812C124.792 12.5104 124.938 12.75 124.938 13C124.938 13.1667 124.865 13.3125 124.719 13.4375C124.594 13.5625 124.521 13.6458 124.5 13.6875C123.375 15.125 122.469 16.1146 121.781 16.6562C121.094 17.1979 120.625 17.4688 120.375 17.4688C120.208 17.4688 120.125 17.3854 120.125 17.2188C120.125 16.9896 120.26 16.7083 120.531 16.375C121.365 15.375 121.99 14.4062 122.406 13.4688L101.094 14.5ZM98.2812 21.3125C98.2812 21.1875 98.3542 21.125 98.5 21.125L98.6562 21.1562C99.2812 21.2812 99.8542 21.3438 100.375 21.3438H100.781L110.969 20.9375C110.76 20.4583 110.531 20.0521 110.281 19.7188C110.135 19.4896 110.062 19.3229 110.062 19.2188C110.062 19.0104 110.208 18.8333 110.5 18.6875C110.812 18.5417 111.052 18.4688 111.219 18.4688C111.49 18.4688 111.74 18.6667 111.969 19.0625C112.76 18.7292 113.417 18.4167 113.938 18.125C114.479 17.8125 115.01 17.4583 115.531 17.0625L107.062 17.625C106.792 17.6458 106.469 17.6562 106.094 17.6562C105.594 17.6562 105.198 17.5417 104.906 17.3125C104.615 17.0625 104.365 16.7396 104.156 16.3438C104.094 16.2396 104.062 16.1562 104.062 16.0938C104.062 15.9479 104.167 15.875 104.375 15.875C104.458 15.875 104.531 15.8854 104.594 15.9062C104.927 16.0104 105.396 16.0625 106 16.0625H106.438L116.312 15.5L116.906 15.4688C117.198 15.4688 117.458 15.5521 117.688 15.7188C117.938 15.8646 118.125 16.0417 118.25 16.25C118.396 16.4375 118.469 16.5729 118.469 16.6562C118.469 16.8438 118.365 17 118.156 17.125C117.948 17.2292 117.823 17.2917 117.781 17.3125C116.927 17.9583 116.115 18.5 115.344 18.9375C114.573 19.3542 113.667 19.8021 112.625 20.2812L112.844 20.8438L120.969 20.5312C121.781 20.5104 122.521 20.4062 123.188 20.2188C123.25 20.1979 123.354 20.1875 123.5 20.1875C123.792 20.1875 124.073 20.2917 124.344 20.5C124.615 20.6875 124.833 20.9062 125 21.1562C125.188 21.3854 125.281 21.5417 125.281 21.625C125.281 21.875 125.094 22.0208 124.719 22.0625L113.25 22.5C113.396 23.25 113.479 24.0104 113.5 24.7812L113.531 25.625C113.531 27.0208 113.323 27.9583 112.906 28.4375C112.51 28.9167 112.062 29.1562 111.562 29.1562C111.125 29.1562 110.438 28.9167 109.5 28.4375C108.562 27.9792 107.698 27.4688 106.906 26.9062C106.135 26.3438 105.75 25.9375 105.75 25.6875C105.75 25.5833 105.844 25.5312 106.031 25.5312C106.219 25.5312 106.5 25.5938 106.875 25.7188C107.562 25.9896 108.406 26.2708 109.406 26.5625C110.406 26.8542 111.021 27 111.25 27C111.354 27 111.438 26.9375 111.5 26.8125L111.531 26.6562C111.594 26.0521 111.625 25.4479 111.625 24.8438C111.625 24.0312 111.562 23.2708 111.438 22.5625L101.094 22.9375L100.188 22.9688C99.625 22.9688 99.1979 22.8125 98.9062 22.5C98.6146 22.1667 98.4167 21.8333 98.3125 21.5C98.2917 21.4583 98.2812 21.3958 98.2812 21.3125ZM107.719 12.25C107.719 12.0625 107.979 11.7708 108.5 11.375C109.354 10.7292 110.021 10.1042 110.5 9.5C109.708 8.91667 109.156 8.54167 108.844 8.375C108.573 8.22917 108.438 8.08333 108.438 7.9375C108.438 7.77083 108.521 7.58333 108.688 7.375C108.854 7.16667 109 7.0625 109.125 7.0625C109.312 7.0625 110.104 7.51042 111.5 8.40625C112.104 7.69792 112.458 7.0625 112.562 6.5C112.604 6.33333 112.708 6.25 112.875 6.25C113.104 6.25 113.396 6.39583 113.75 6.6875C114.125 6.95833 114.312 7.21875 114.312 7.46875C114.312 7.61458 114.104 7.90625 113.688 8.34375C113.271 8.78125 112.979 9.07292 112.812 9.21875C113.125 9.40625 113.521 9.67708 114 10.0312C114.5 10.3854 114.75 10.6667 114.75 10.875C114.75 11.0625 114.646 11.2917 114.438 11.5625C114.25 11.8333 114.062 11.9688 113.875 11.9688C113.708 11.9688 113.51 11.875 113.281 11.6875L112.719 11.2188C112.344 10.8646 111.969 10.5521 111.594 10.2812C109.76 11.6979 108.542 12.4062 107.938 12.4062C107.792 12.4062 107.719 12.3542 107.719 12.25ZM107.969 6.6875C107.969 6.47917 108.188 6.19792 108.625 5.84375C109.312 5.28125 109.958 4.66667 110.562 4C109.542 3.3125 108.906 2.89583 108.656 2.75C108.427 2.60417 108.312 2.44792 108.312 2.28125C108.312 2.15625 108.375 2 108.5 1.8125C108.688 1.5625 108.865 1.4375 109.031 1.4375C109.365 1.4375 110.219 1.90625 111.594 2.84375C111.698 2.73958 111.865 2.5 112.094 2.125C112.344 1.75 112.542 1.34375 112.688 0.90625C112.75 0.739583 112.865 0.65625 113.031 0.65625C113.26 0.65625 113.542 0.8125 113.875 1.125C114.208 1.41667 114.375 1.69792 114.375 1.96875C114.375 2.11458 114.333 2.22917 114.25 2.3125C114.25 2.3125 114.042 2.52083 113.625 2.9375C113.146 3.41667 112.906 3.65625 112.906 3.65625C113.594 4.13542 114.031 4.47917 114.219 4.6875C114.427 4.875 114.531 5.03125 114.531 5.15625C114.531 5.30208 114.427 5.52083 114.219 5.8125C114.031 6.08333 113.854 6.21875 113.688 6.21875C113.5 6.21875 113.302 6.11458 113.094 5.90625C112.573 5.44792 112.083 5.05208 111.625 4.71875C109.854 6.13542 108.708 6.84375 108.188 6.84375C108.042 6.84375 107.969 6.79167 107.969 6.6875Z" fill="#333333"/>
<path d="M180.812 13.6875C180.688 13.6875 180.521 13.5521 180.312 13.2812C180.104 12.9896 180.01 12.7396 180.031 12.5312C180.073 12.3646 180.104 11.8958 180.125 11.125C180.146 10.6042 180.156 9.6875 180.156 8.375C180.156 7.45833 180.146 6.84375 180.125 6.53125L179.094 6.625C178.365 6.72917 177.74 6.78125 177.219 6.78125C177.073 6.78125 176.865 6.66667 176.594 6.4375C176.323 6.20833 176.188 6.04167 176.188 5.9375C176.188 5.77083 176.365 5.70833 176.719 5.75C176.948 5.77083 177.625 5.76042 178.75 5.71875C180.292 5.61458 181.406 5.55208 182.094 5.53125C182.448 5.51042 182.771 5.47917 183.062 5.4375C183.375 5.375 183.594 5.33333 183.719 5.3125C183.906 5.29167 184.073 5.3125 184.219 5.375C184.365 5.4375 184.5 5.52083 184.625 5.625C184.771 5.70833 184.885 5.77083 184.969 5.8125C185.156 5.9375 185.25 6.05208 185.25 6.15625C185.25 6.23958 185.198 6.32292 185.094 6.40625C185.01 6.46875 184.917 6.5 184.812 6.5C184.708 6.5 184.562 6.48958 184.375 6.46875C184.208 6.44792 184.021 6.4375 183.812 6.4375C183.042 6.4375 182.25 6.45833 181.438 6.5C181.417 6.66667 181.406 7.08333 181.406 7.75C181.365 8.875 181.344 9.97917 181.344 11.0625V12.2812V12.5625C181.344 12.9167 181.312 13.1458 181.25 13.25C181.062 13.5417 180.917 13.6875 180.812 13.6875ZM177.469 21.0938C177.24 21.0938 176.958 20.9167 176.625 20.5625C176.375 20.3125 176.25 20.125 176.25 20C176.25 19.9375 176.292 19.9062 176.375 19.9062C176.458 19.8854 176.562 19.875 176.688 19.875L177.375 19.8438C177.771 19.8438 178.031 19.8333 178.156 19.8125C178.552 19.8125 178.885 19.8021 179.156 19.7812C180.948 19.6146 182.156 19.4792 182.781 19.375C183.094 19.3333 183.375 19.2917 183.625 19.25C183.875 19.1875 184.073 19.1562 184.219 19.1562C184.51 19.1562 184.802 19.3021 185.094 19.5938C185.323 19.8229 185.438 20.0104 185.438 20.1562C185.438 20.2812 185.365 20.3646 185.219 20.4062C185.115 20.4271 184.5 20.4688 183.375 20.5312C182.75 20.5521 181.979 20.6042 181.062 20.6875C180.146 20.7708 179.344 20.8542 178.656 20.9375C178.531 20.9583 178.354 20.9896 178.125 21.0312C177.896 21.0729 177.677 21.0938 177.469 21.0938ZM190.562 10.7188C190.812 10.7188 190.938 10.8333 190.938 11.0625C190.938 11.1875 190.823 11.3646 190.594 11.5938C189.969 12.3646 188.729 13.8333 186.875 16C186.729 16.1875 186.594 16.2812 186.469 16.2812C186.365 16.2812 186.135 16.125 185.781 15.8125C185.49 15.5625 185.344 15.3542 185.344 15.1875C185.344 15 185.5 14.8229 185.812 14.6562C186.292 14.3854 187.01 13.8438 187.969 13.0312C188.927 12.1771 189.635 11.5 190.094 11C190.281 10.8125 190.438 10.7188 190.562 10.7188ZM154.562 28.4375V28.5312C154.562 28.7188 154.51 28.8646 154.406 28.9688C154.323 29.0729 154.188 29.125 154 29.125C153.708 29.125 153.375 29.0208 153 28.8125C152.646 28.625 152.469 28.375 152.469 28.0625V27.875C152.51 27.4583 152.531 27.1875 152.531 27.0625L152.5 26.4688L152.094 18.9062C152.073 18.5938 152.021 18.2708 151.938 17.9375C151.875 17.5833 151.812 17.3333 151.75 17.1875C151.583 16.8542 151.5 16.6146 151.5 16.4688C151.5 16.3438 151.573 16.2812 151.719 16.2812C151.99 16.2812 152.729 16.5 153.938 16.9375L157.062 16.8125C157.75 16.0625 158.271 15.4375 158.625 14.9375C158.979 14.4375 159.177 13.9688 159.219 13.5312C159.26 13.1979 159.344 13.0312 159.469 13.0312C159.594 13.0312 159.792 13.1354 160.062 13.3438C160.333 13.5521 160.573 13.7917 160.781 14.0625C161.01 14.3333 161.125 14.5625 161.125 14.75C161.125 14.875 161.031 15.0417 160.844 15.25C160.656 15.4583 160.146 15.9375 159.312 16.6875L166.312 16.3438H166.625C166.979 16.3438 167.312 16.4792 167.625 16.75C167.938 17 168.094 17.2604 168.094 17.5312C168.094 17.6354 168.052 17.7604 167.969 17.9062C167.885 18.0521 167.844 18.1458 167.844 18.1875L167.094 25.8125C167.573 26.4583 167.812 26.9271 167.812 27.2188C167.812 27.4062 167.74 27.5208 167.594 27.5625C167.469 27.6042 167.281 27.625 167.031 27.625L154.531 27.8438L154.562 28.4375ZM146.938 12.125C146.938 12 147.073 11.9271 147.344 11.9062C148.26 11.8438 149.51 11.5104 151.094 10.9062C152.677 10.3021 154.052 9.70833 155.219 9.125C155.594 8.9375 155.885 8.84375 156.094 8.84375C156.26 8.84375 156.344 8.89583 156.344 9C156.344 9.27083 155.802 9.79167 154.719 10.5625C153.635 11.3125 152.469 12.0208 151.219 12.6875C149.969 13.3542 149.125 13.6875 148.688 13.6875C148.354 13.6875 147.979 13.5 147.562 13.125C147.146 12.7292 146.938 12.3958 146.938 12.125ZM147.281 3.34375C147.281 3.17708 147.354 3.09375 147.5 3.09375L147.625 3.125C147.938 3.1875 148.292 3.21875 148.688 3.21875L149.406 3.1875L157.281 2.59375H157.469C157.698 2.59375 157.958 2.69792 158.25 2.90625C158.562 3.11458 158.719 3.375 158.719 3.6875C158.719 3.79167 158.698 3.90625 158.656 4.03125C158.635 4.15625 158.625 4.27083 158.625 4.375L158.375 12.4688V12.6562L158.406 13.75C158.406 14.1458 158.271 14.4792 158 14.75C157.75 15.0208 157.438 15.1562 157.062 15.1562C156.854 15.1562 156.604 15.0938 156.312 14.9688C155.333 14.5104 154.469 14.0521 153.719 13.5938C152.99 13.1146 152.625 12.75 152.625 12.5C152.625 12.3542 152.75 12.2812 153 12.2812C153.229 12.2812 153.469 12.3229 153.719 12.4062C154.615 12.6979 155.521 12.9062 156.438 13.0312L156.688 4.40625L149.75 4.9375C149.417 4.97917 149.167 5 149 5C148.438 5 148.01 4.82292 147.719 4.46875C147.427 4.09375 147.281 3.71875 147.281 3.34375ZM149.406 6.46875C149.406 6.26042 149.49 6.02083 149.656 5.75C149.823 5.47917 150 5.34375 150.188 5.34375C150.271 5.34375 150.698 5.53125 151.469 5.90625C152.26 6.28125 152.979 6.67708 153.625 7.09375C154.271 7.51042 154.594 7.84375 154.594 8.09375C154.594 8.26042 154.479 8.51042 154.25 8.84375C154.042 9.15625 153.823 9.3125 153.594 9.3125C153.427 9.3125 153.198 9.19792 152.906 8.96875C152.115 8.34375 151.104 7.6875 149.875 7C149.708 6.89583 149.583 6.8125 149.5 6.75C149.438 6.66667 149.406 6.57292 149.406 6.46875ZM154.156 21.5625L165.531 21.125L165.75 18.1562L154 18.7188L154.156 21.5625ZM154.438 26.0938L165.156 25.8438L165.406 22.8125L154.25 23.25L154.438 26.0938ZM159 11.1875C159 11.0833 159.104 11.0208 159.312 11C160.062 10.9583 161.24 10.6458 162.844 10.0625C164.469 9.47917 165.833 8.91667 166.938 8.375C167.375 8.14583 167.729 8.03125 168 8.03125C168.167 8.03125 168.25 8.08333 168.25 8.1875C168.25 8.45833 167.708 8.96875 166.625 9.71875C165.562 10.4479 164.417 11.1458 163.188 11.8125C161.958 12.4792 161.188 12.8125 160.875 12.8125C160.583 12.8125 160.292 12.7083 160 12.5C159.729 12.2708 159.49 12.0208 159.281 11.75C159.094 11.4583 159 11.2708 159 11.1875ZM159.375 2.53125C159.375 2.36458 159.448 2.28125 159.594 2.28125L159.719 2.3125C160.031 2.39583 160.438 2.4375 160.938 2.4375L161.656 2.40625L169.438 1.875H169.562C169.833 1.875 170.125 1.94792 170.438 2.09375C170.75 2.21875 170.906 2.46875 170.906 2.84375C170.906 2.96875 170.885 3.10417 170.844 3.25C170.823 3.375 170.812 3.5 170.812 3.625L170.25 12.9375V13.6562C170.25 14.0521 170.229 14.3542 170.188 14.5625C170.146 14.7708 170.021 14.9792 169.812 15.1875C169.479 15.5208 169.177 15.6875 168.906 15.6875C168.656 15.6875 168.104 15.4792 167.25 15.0625C166.396 14.625 165.615 14.1562 164.906 13.6562C164.198 13.1562 163.844 12.7812 163.844 12.5312C163.844 12.4062 163.948 12.3438 164.156 12.3438C164.344 12.3438 164.688 12.4271 165.188 12.5938C166.125 12.9062 167.167 13.1771 168.312 13.4062L168.844 3.625L162.031 4.15625C161.656 4.19792 161.344 4.21875 161.094 4.21875C160.635 4.21875 160.323 4.13542 160.156 3.96875C159.781 3.55208 159.531 3.125 159.406 2.6875L159.375 2.53125ZM160.625 5.65625C160.625 5.42708 160.719 5.20833 160.906 5C161.094 4.77083 161.281 4.65625 161.469 4.65625C161.656 4.65625 162.156 4.88542 162.969 5.34375C163.802 5.80208 164.625 6.29167 165.438 6.8125C165.792 7.04167 165.969 7.28125 165.969 7.53125C165.969 7.76042 165.865 8.03125 165.656 8.34375C165.469 8.63542 165.271 8.78125 165.062 8.78125C164.875 8.78125 164.667 8.67708 164.438 8.46875C163.708 7.86458 162.604 7.13542 161.125 6.28125C160.792 6.07292 160.625 5.86458 160.625 5.65625Z" fill="#333333"/>
</svg>
