<svg xmlns="http://www.w3.org/2000/svg" width="191" height="30" fill="none"><path fill="#333" d="M36.906 14.156c-.291 0-.51-.094-.656-.281-.188-.354-.573-.74-1.156-1.156l.062-.156c.646.27 1.188.406 1.625.406.271 0 .5-.156.688-.469.208-.333.427-.813.656-1.438.27-.77.417-1.416.438-1.937 0-.063-.032-.115-.094-.156-.063-.063-.115-.094-.157-.094-.187-.02-.541.01-1.062.094l-.656.094a5.06 5.06 0 0 0-.657.124c-.229.063-.416.105-.562.126-.083.02-.219.062-.406.124a1.488 1.488 0 0 1-.407.094c-.104 0-.229-.052-.374-.156a3.215 3.215 0 0 1-.344-.406c-.021-.021-.032-.063-.032-.125 0-.084.063-.188.188-.313l.344-.344c.104-.124.208-.27.312-.437.104-.188.188-.323.25-.406a2.21 2.21 0 0 0 .25-.594l.063-.281c0-.021-.01-.073-.032-.157-.02-.104-.062-.156-.124-.156-.834.104-1.448.23-1.844.375a1.94 1.94 0 0 1-.375.125.473.473 0 0 1-.375-.187c-.063-.021-.188-.188-.375-.5-.084-.084-.125-.157-.125-.219 0-.146.218-.23.656-.25l.594-.063c.104 0 .323-.02.656-.062a126.78 126.78 0 0 1 2.781-.219c.417-.02 1.136-.073 2.157-.156.291-.02.645-.063 1.062-.125.23-.063.375-.094.438-.094a.5.5 0 0 1 .312.125c.104.042.24.125.406.25.167.104.292.219.375.344a.5.5 0 0 1 .125.313c0 .104-.052.177-.156.218-.104.042-.24.042-.406 0a4.9 4.9 0 0 0-.875-.125c-.313-.02-.5-.031-.563-.031-.708-.02-1.593.01-2.656.094-.292.041-.51.062-.656.062.125.104.24.271.343.5v.063a.535.535 0 0 1-.093.25.55.55 0 0 1-.219.218c-.104.063-.23.209-.375.438-.146.23-.24.375-.281.438-.125.166-.188.302-.188.406 0 .083.084.114.25.094l.907-.126c.479-.083.833-.156 1.062-.218.063-.021.156-.042.281-.063.146-.02.313-.062.5-.125.146-.02.292.01.438.094.166.083.416.26.75.531.25.188.375.354.375.5a.5.5 0 0 1-.125.313 1.81 1.81 0 0 0-.188.594c-.187.874-.406 1.583-.656 2.124a8.857 8.857 0 0 1-.531.938 4.67 4.67 0 0 1-.625.688c-.271.312-.584.468-.938.468Zm.219 10.906c-1 0-1.833-.25-2.5-.75-.688-.562-1.031-1.218-1.031-1.968 0-.584.218-1.094.656-1.532.563-.479 1.27-.718 2.125-.718.042 0 .073-.042.094-.125.041-.104.062-.24.062-.407l.032-.812c-.146.02-.428.052-.844.094a8.538 8.538 0 0 0-.875.125c.104-.021-.219.052-.969.218-.063.021-.177.032-.344.032-.396 0-.729-.177-1-.532-.125-.125-.187-.229-.187-.312 0-.125.187-.188.562-.188l.969-.062 2.656-.344V16.625a1.163 1.163 0 0 1-.031-.281.814.814 0 0 0-.031-.25 1.88 1.88 0 0 1-.063-.313c0-.146.073-.219.219-.219.188 0 .51.136.969.407.146.083.218.198.218.344a.62.62 0 0 1-.062.28.693.693 0 0 0-.031.22v.875l.937-.094 1.157-.125c.104-.021.218-.052.343-.094a1.34 1.34 0 0 1 .344-.063c.125 0 .281.063.469.188.354.23.531.427.531.594 0 .166-.177.25-.531.25-.104 0-.25.02-.438.062-.187.021-.427.042-.718.063l-2.094.156-.032 1.906c-.041.313-.27.51-.687.594h-.063c-.124 0-.25-.01-.374-.031a.72.72 0 0 0-.25-.063c-.167 0-.334.01-.5.032a.829.829 0 0 0-.438.187c-.354.313-.531.677-.531 1.094 0 .416.198.791.593 1.125.355.333.917.5 1.688.5 1.02-.042 1.854-.323 2.5-.844.27-.188.48-.281.625-.281.083 0 .188.02.313.062l.124.125c.063.063.094.125.094.188 0 .583-.49 1.062-1.468 1.437-.73.271-1.459.407-2.188.407Zm5.438-11.843c.104 0 .26.073.468.219-.02.041.021.124.125.25l.219.218c.104.104.208.23.313.375.124.146.26.302.406.469.375.396 1.24 1.427 2.593 3.094.23.333.344.531.344.593 0 .209-.125.313-.375.313-.146 0-.302-.104-.468-.313-.396-.416-1.105-1.072-2.126-1.968-.791-.73-1.51-1.292-2.156-1.688-.312-.146-.468-.312-.468-.5 0-.146.156-.354.468-.625.292-.291.51-.437.657-.437ZM19.813 27.75c.125-1.167.187-2.219.187-3.156V20.53c0-.375.042-1.093.125-2.156-.396 1.104-1.167 2.323-2.313 3.656-1.145 1.334-2.333 2.49-3.562 3.469-1.208.958-2.02 1.438-2.438 1.438-.145 0-.218-.063-.218-.188 0-.167.156-.396.469-.688 2.687-2.458 4.968-5.364 6.843-8.718l-4.093.187h-.438c-.292 0-.51-.01-.656-.031a.778.778 0 0 1-.344-.188c-.208-.166-.406-.406-.594-.718-.166-.313-.25-.542-.25-.688 0-.146.094-.219.281-.219l.126.032c.458.104.895.156 1.312.156h.281l5.438-.219v-2.531l-3.25.156.031.406v.094c0 .438-.177.656-.531.656-.271 0-.594-.104-.969-.312-.375-.23-.563-.52-.563-.875l.032-.469c.041-.458.062-.833.062-1.125 0-.27-.01-.479-.031-.625l-.469-5.812c-.062-.813-.208-1.5-.437-2.063a1.496 1.496 0 0 1-.094-.437c0-.146.094-.219.281-.219.375 0 1.073.219 2.094.656l10.094-.687h.187c.521 0 .917.135 1.188.406.27.25.406.469.406.656 0 .104-.042.24-.125.406-.083.146-.125.25-.125.313l-.813 6.938c.605.604.907 1.02.907 1.25 0 .124-.063.208-.188.25-.104.041-.27.072-.5.093l-5.312.25v2.531l5.062-.218c.584-.042 1.032-.125 1.344-.25.125-.042.23-.063.313-.063.27 0 .593.156.968.469.396.313.594.604.594.875 0 .313-.23.49-.688.531l-6.812.282.875.937c1.48 1.604 2.698 2.865 3.656 3.781.98.896 2.136 1.76 3.469 2.594.167.104.25.208.25.313 0 .041-.052.135-.156.28-.563.626-1 .938-1.313.938-.208 0-.791-.406-1.75-1.218-.958-.834-2-1.844-3.125-3.032-1.104-1.187-2.031-2.343-2.781-3.468.083.958.125 1.656.125 2.093l.031 8.157c0 .416-.187.625-.562.625-.292 0-.625-.125-1-.375-.354-.25-.532-.542-.532-.875v-.188ZM.938 7.125c0-.125.062-.188.187-.188.083 0 .156.01.219.032.312.083.646.125 1 .125l.531-.032 7.625-.406c.604-.104 1.02-.198 1.25-.281a.992.992 0 0 1 .281-.063c.209 0 .438.094.688.282.27.187.5.396.687.625.209.229.313.396.313.5 0 .25-.24.396-.719.437l-9.5.594c-.23.02-.5.031-.813.031-.395 0-.656-.052-.78-.156-.376-.333-.636-.635-.782-.906C1 7.427.937 7.229.937 7.125Zm1.937 11.344c0-.125.083-.188.25-.188.333 0 1.063.209 2.188.625l4.718-.218.313-.032c.27 0 .562.146.875.438.312.27.469.52.469.75a.603.603 0 0 1-.094.312 2.21 2.21 0 0 0-.094.282l-.531 4.125c.458.625.687 1.062.687 1.312 0 .146-.062.24-.187.281-.125.042-.334.073-.625.094l-5.094.156.031.594v.094c0 .458-.187.687-.562.687-.292 0-.604-.114-.938-.343-.333-.23-.5-.51-.5-.844v-.219c.042-.5.063-.875.063-1.125v-.406l-.313-4.125c-.062-.75-.208-1.313-.437-1.688-.146-.291-.219-.479-.219-.562Zm.313-7.375c0-.104.041-.156.124-.156.084 0 .146.01.188.03.375.063.75.095 1.125.095h.344l4.218-.25a4.025 4.025 0 0 0 1.094-.25.991.991 0 0 1 .281-.063c.209 0 .5.177.876.531.395.334.593.615.593.844 0 .125-.062.23-.187.313a1.092 1.092 0 0 1-.5.156l-5.75.375c-.167.02-.396.031-.688.031-.437 0-.781-.115-1.031-.344a2.07 2.07 0 0 1-.531-.719c-.104-.27-.156-.468-.156-.593Zm.062 3.812c0-.104.052-.156.156-.156l.156.031c.334.084.709.125 1.126.125h.343l4.032-.187c.333-.021.708-.104 1.124-.25a.991.991 0 0 1 .282-.063c.25 0 .552.177.906.531.354.334.531.615.531.844 0 .271-.219.427-.656.469l-5.594.313-.687.03c-.354 0-.667-.093-.938-.28-.27-.188-.52-.594-.75-1.22a.436.436 0 0 1-.031-.187Zm.781-12.312c0-.25.084-.48.25-.688.188-.208.375-.312.563-.312.125 0 .312.052.562.156 1.48.604 2.563 1.083 3.25 1.438.709.333 1.146.583 1.313.75.187.145.281.291.281.437 0 .188-.094.458-.281.813-.188.354-.427.53-.719.53-.146 0-.354-.083-.625-.25-1.396-.937-2.698-1.676-3.906-2.218-.25-.104-.427-.198-.532-.281a.511.511 0 0 1-.156-.375ZM5.625 24.78l3.625-.125.344-4.25-4.281.157.312 4.218ZM16.313 7.313l3.625-.22V4.5l-3.813.25.188 2.563Zm.312 4.343 3.344-.187-.032-2.781-3.53.187.218 2.781Zm8.844-4.875.25-2.625-3.907.25V7l3.657-.219Zm-.375 4.438.25-2.844-3.5.188v2.812l3.25-.156ZM88.188 13.281c-.313 0-.615-.229-.907-.687a9.887 9.887 0 0 0-1.094-1.438l-.812-.844c-.438.5-.823.896-1.156 1.188a6.232 6.232 0 0 1-1.188.844c-.896.52-1.646.781-2.25.781-.146 0-.219-.052-.219-.156 0-.063.198-.198.594-.406a6.6 6.6 0 0 0 1.125-.75c.896-.75 1.636-1.521 2.219-2.313-.125-.125-.75-.667-1.875-1.625a10.64 10.64 0 0 1-.656-.531 8.087 8.087 0 0 1-.375-.282c-.188-.145-.281-.25-.281-.312 0-.104.052-.156.156-.156.312 0 .812.218 1.5.656.687.417 1.406.917 2.156 1.5.292-.354.52-.688.688-1 .166-.313.354-.698.562-1.156.104-.23.167-.427.188-.594.02-.188.03-.302.03-.344 0-.229.063-.343.188-.343.146 0 .344.114.594.343.438.417.656.698.656.844 0 .083-.052.177-.156.281-.25.25-.48.584-.688 1-.124.25-.354.604-.687 1.063-.104.125-.188.24-.25.344a3.292 3.292 0 0 1-.188.28c.48.355 1.188.96 2.126 1.813.229.209.374.406.437.594.083.167.125.396.125.688a.89.89 0 0 1-.156.53.504.504 0 0 1-.406.188Zm-2.72 11.25c0-.02.053-.093.157-.218.125-.146.26-.323.406-.532.25-.354.5-.875.75-1.562.25-.688.386-1.323.406-1.907 0-.041-.02-.083-.062-.125-.02-.062-.073-.093-.156-.093l-.719.062-1.063.094c-.229.75-.624 1.563-1.187 2.438-.25.395-.594.75-1.031 1.062a4.52 4.52 0 0 1-1.219.625 1.5 1.5 0 0 1-.469.063c-.146-.021-.219-.063-.219-.125 0-.084.073-.157.22-.22.25-.166.53-.426.843-.78.333-.355.625-.72.875-1.094.146-.209.302-.48.469-.813.166-.354.302-.677.406-.968-.667.083-1.354.24-2.063.468-.041.042-.114.063-.218.063-.063 0-.156-.042-.281-.125a4.045 4.045 0 0 1-.344-.375c-.042-.104-.021-.198.062-.282l.125-.25c.084-.125.167-.375.25-.75a4.39 4.39 0 0 0 .125-.906.92.92 0 0 0-.031-.218c0-.105.01-.157.031-.157.042-.02.094-.02.156 0 .23.042.438.115.626.219a.9.9 0 0 1 .343.344c.084.104.084.198 0 .281a.936.936 0 0 0-.094.125.396.396 0 0 0-.093.188c-.021.02-.063.25-.125.687 0 .02.01.042.031.063.042.02.083.02.125 0 .063 0 .156-.01.281-.032.125-.02.219-.041.281-.062.146-.021.313-.052.5-.094.209-.042.396-.073.563-.094.063-.229.104-.479.125-.75.042-.291.073-.49.094-.593l.031-.657v-.218c-.667.02-1.365.083-2.094.187l-.562.094h-.125a.603.603 0 0 1-.313-.094 11.517 11.517 0 0 1-.281-.219c-.27-.25-.406-.437-.406-.562 0-.125.094-.167.281-.125.25.041.51.062.781.062l.906-.031 4.344-.313c.167-.02.323-.041.469-.062.146-.042.292-.073.438-.094h.093c.271 0 .459.052.563.157.125.083.198.135.219.156.333.27.5.479.5.625 0 .125-.178.177-.532.156l-.625-.063c-.541-.02-1.354 0-2.437.063l-.125 1.219c-.021.208-.042.375-.063.5-.02.125-.041.229-.062.312l-.031.094c.5-.042 1.083-.104 1.75-.188a.97.97 0 0 1 .218-.062c.104-.042.209-.073.313-.094h.062c.125 0 .25.052.375.157.125.104.198.166.219.187.167.146.281.27.344.375.083.083.094.156.031.219a1.657 1.657 0 0 1-.156.25.692.692 0 0 0-.094.218c-.104.875-.27 1.584-.5 2.125-.188.48-.396.844-.625 1.094-.208.23-.469.448-.781.657-.125.083-.323.156-.594.218-.27.042-.406.042-.406 0Zm5.094-11.312c.105 0 .26.073.47.219-.022.041.02.124.124.25l.219.218c.104.104.208.23.313.375.124.146.26.302.406.469.375.396 1.24 1.427 2.594 3.094.229.333.343.531.343.593 0 .209-.125.313-.375.313-.146 0-.302-.104-.469-.313-.395-.416-1.104-1.072-2.124-1.968-.792-.73-1.51-1.292-2.157-1.688-.312-.146-.469-.312-.469-.5 0-.146.157-.354.47-.625.29-.291.51-.437.656-.437Zm-33.75-4.406a36.993 36.993 0 0 1-2.562 4.25c-.896 1.25-1.698 2.24-2.406 2.968-.709.709-1.177 1.063-1.407 1.063-.124 0-.187-.073-.187-.219 0-.27.146-.594.438-.969 1.479-2.104 2.697-4.166 3.656-6.187.979-2.021 1.687-3.75 2.125-5.188.458-1.437.687-2.385.687-2.843l-.031-.407c0-.229.083-.343.25-.343.167 0 .417.093.75.28.333.167.625.376.875.626s.375.49.375.718c0 .084-.02.209-.063.376a52.405 52.405 0 0 1-1.624 4.093l5.374-.343h.22c.395 0 .75.135 1.062.406.312.25.469.5.469.75 0 .208-.073.416-.22.625a2.154 2.154 0 0 0-.218.375c-1.438 4.291-3.219 7.948-5.344 10.969-2.104 3-4.885 5.687-8.343 8.062-.417.292-.74.438-.97.438-.145 0-.218-.063-.218-.188 0-.25.219-.563.656-.938 3.396-3.02 6.115-6.27 8.157-9.75A27.555 27.555 0 0 0 55 13.908c-.125-.126-.188-.25-.188-.376 0-.187.115-.406.344-.656.25-.25.469-.375.657-.375.229 0 .687.354 1.374 1.063a30.197 30.197 0 0 1 2.063 2.218A46.45 46.45 0 0 0 62.281 8.5l-5.468.313ZM66.47.655c0-.104.094-.156.281-.156.125 0 .375.042.75.125.375.063.73.188 1.063.375.333.188.5.427.5.719v8.75c.187-.209.364-.313.53-.313.105 0 .5.209 1.188.625.709.417 1.636 1.031 2.781 1.844a58.462 58.462 0 0 1 3.876 2.906c.312.25.468.48.468.688 0 .229-.135.541-.406.937-.25.375-.5.563-.75.563-.125 0-.292-.084-.5-.25a85.453 85.453 0 0 0-3.688-3.032 50.912 50.912 0 0 0-3.5-2.5l.032 16.657c0 .375-.167.562-.5.562-.313 0-.698-.114-1.156-.343-.438-.23-.657-.51-.657-.844 0-.084.01-.157.031-.219.167-.73.25-1.469.25-2.219l-.03-23.156c0-.52-.157-1.02-.47-1.5C66.5.771 66.47.698 66.47.656ZM132.812 9.938c-.124 0-.291-.136-.5-.407-.208-.291-.302-.541-.281-.75.042-.166.073-.635.094-1.406.021-.52.031-1.438.031-2.75 0-.917-.01-1.531-.031-1.844l-1.031.094c-.729.104-1.354.156-1.875.156-.146 0-.354-.114-.625-.344-.271-.229-.406-.395-.406-.5 0-.166.177-.229.531-.187.229.02.906.01 2.031-.031a101.74 101.74 0 0 1 3.344-.188c.354-.02.677-.052.968-.093.313-.063.532-.105.657-.125.187-.021.354 0 .5.062.146.063.281.146.406.25.146.083.26.146.344.188.187.124.281.24.281.343 0 .084-.052.167-.156.25a.459.459 0 0 1-.282.094c-.104 0-.25-.01-.437-.031a4.574 4.574 0 0 0-.563-.031c-.77 0-1.562.02-2.374.062-.021.167-.032.583-.032 1.25a90.985 90.985 0 0 0-.062 3.313v1.499c0 .355-.032.584-.094.688-.188.292-.333.438-.438.438Zm-2.656 7.656c-.687-.25-1.01-.521-.968-.813.124-.875.187-1.875.187-3a13.45 13.45 0 0 0-.094-1.781c-.021-.208-.021-.323 0-.344a.426.426 0 0 1 .313-.125c.187 0 .416.084.687.25.292.167.438.334.438.5 0 .104-.011.209-.031.313a1.151 1.151 0 0 0-.032.281l-.187 3.094c0 .166.062.27.187.312h.156c.167 0 .282-.01.344-.031l4.032-.563v-.812c0-1.02-.021-1.813-.063-2.375-.021-.48-.073-.865-.156-1.156-.063-.334.021-.5.25-.5.166 0 .385.062.656.187.333.167.531.313.594.438.062.104.083.27.062.5-.041.375-.062.937-.062 1.687l.031 2.375c0 .5-.094.896-.281 1.188-.104.125-.209.187-.313.187-.104 0-.25-.093-.437-.281a1.845 1.845 0 0 1-.157-.188.411.411 0 0 0-.187-.156.817.817 0 0 0-.25-.031c-.479.042-1.635.198-3.469.469-.312.041-.562.125-.75.25-.208.104-.344.156-.406.156l-.094-.031Zm3.5 10.781c-.646 0-1.146-.02-1.5-.063a1.5 1.5 0 0 1-.844-.375c-.395-.291-.666-.927-.812-1.906l-.094-1c0-.25-.021-.562-.062-.937a5.304 5.304 0 0 0-.719.125c-.042.02-.115.052-.219.093a.857.857 0 0 1-.187.032.723.723 0 0 1-.407-.125c-.124-.084-.281-.24-.468-.469-.146-.188-.219-.313-.219-.375 0-.063.073-.104.219-.125.146-.02.344-.031.594-.031.354 0 .812-.042 1.374-.125l-.031-.438c0-.833-.052-1.541-.156-2.125l-.031-.218c0-.292.114-.407.344-.344.25.083.479.187.687.312.167.084.281.167.344.25.062.063.083.157.062.282l-.093 1.343v.813l2.75-.282c0-.145.01-.49.031-1.03.021-.563.021-.928 0-1.095 0-.166-.021-.322-.063-.468a5.898 5.898 0 0 0-.062-.407c0-.166.083-.25.25-.25.166 0 .375.094.625.282.291.187.479.354.562.5.104.146.125.323.063.531a5.704 5.704 0 0 0-.219 1.125c-.042.417-.063.667-.063.75.25-.02.48-.052.688-.094a2.75 2.75 0 0 1 .406-.062c.167-.042.365-.063.594-.063.125.021.302.146.531.375.188.25.281.448.281.594 0 .208-.197.292-.593.25a6.109 6.109 0 0 0-1.063-.094c-.354 0-.656.01-.906.032a13.34 13.34 0 0 1-.375 2.218.857.857 0 0 1-.219.407c-.104.125-.198.187-.281.187-.146 0-.24-.063-.281-.188a3.051 3.051 0 0 1-.032-.53c.042-.542.063-1.22.063-2.032-.563.042-1 .083-1.313.125a8.296 8.296 0 0 1-1.343.188c-.021.854.021 1.614.125 2.28.062.438.187.74.375.907a.83.83 0 0 0 .437.188c.188.02.375.03.563.03h.375c.646 0 1.25-.03 1.812-.093.167-.02.313-.063.438-.125.146-.063.25-.094.312-.094.188 0 .375.063.563.188.187.125.281.27.281.437 0 .167-.094.292-.281.375-.167.084-.438.157-.813.219-.666.083-1.333.125-2 .125Zm8.906-14.219c.25 0 .376.115.376.344 0 .125-.115.302-.344.531-.625.771-1.865 2.24-3.719 4.406-.146.188-.281.282-.406.282-.104 0-.334-.157-.688-.469-.291-.25-.437-.458-.437-.625 0-.188.156-.365.468-.531.48-.271 1.198-.813 2.157-1.625.958-.854 1.666-1.532 2.125-2.032.187-.187.344-.28.468-.28Zm-41.468.344c-.417 1.77-.74 2.906-.969 3.406-.208.48-.406.719-.594.719-.312 0-.625-.115-.937-.344-.313-.229-.469-.458-.469-.687 0-.125.031-.23.094-.313.791-1.541 1.333-3.281 1.625-5.218.041-.25.094-.417.156-.5.083-.105.25-.157.5-.157l.312.031c.459.146.688.386.688.72 0 .124-.01.228-.031.312l-.094.562.969-.031-.625-7.813c-.084-.833-.177-1.447-.281-1.843-.105-.313-.157-.531-.157-.656 0-.146.084-.22.25-.22.229 0 .75.157 1.563.47.75-.25 1.396-.594 1.937-1.032.563-.437.907-.823 1.031-1.156.063-.208.167-.313.313-.313.229 0 .49.22.781.657.313.437.469.791.469 1.062a.405.405 0 0 1-.219.375c-.916.459-1.656.813-2.218 1.063-.542.25-1.136.479-1.782.687l.125 1.625 1.563-.156a7.29 7.29 0 0 0 1.094-.219 1.7 1.7 0 0 1 .374-.062c.313 0 .615.156.907.468.291.292.437.521.437.688 0 .25-.239.396-.718.438l-3.563.28.125 1.782L105.344 9c.416-.02.771-.094 1.062-.219.125-.041.229-.062.313-.062.187 0 .469.125.843.375.376.25.563.5.563.75 0 .125-.073.229-.219.312-.125.084-.302.136-.531.156l-3.5.25.187 2.344 15.126-.781.187-2.219-2.437.156-.594.032c-.334 0-.604-.104-.813-.313a1.81 1.81 0 0 1-.437-.656c-.063-.23-.094-.385-.094-.469 0-.104.062-.156.188-.156l.156.031c.354.063.687.094 1 .094h.312l2.813-.188.125-1.78-2.563.187-.469.031c-.374 0-.677-.094-.906-.281a1.902 1.902 0 0 1-.437-.625c-.084-.23-.125-.386-.125-.469 0-.125.062-.188.187-.188l.157.032a5.92 5.92 0 0 0 1.031.093h.312l2.938-.218.125-1.938-2.782.188-.593.031c-.604 0-1.011-.188-1.219-.563-.208-.395-.312-.718-.312-.968 0-.104.052-.157.156-.157l.187.032a5.1 5.1 0 0 0 1 .093h.344l3.656-.28h.25c.25 0 .542.093.875.28.354.188.532.428.532.72a.763.763 0 0 1-.063.28 1.019 1.019 0 0 0-.031.25l-.875 8.844 2.093-.094.594-.03c.292 0 .573.124.844.374.292.23.438.469.438.719a.562.562 0 0 1-.219.438 1.445 1.445 0 0 0-.219.25c-1.125 1.437-2.031 2.427-2.719 2.968-.687.542-1.156.813-1.406.813-.167 0-.25-.084-.25-.25 0-.23.135-.51.406-.844.834-1 1.459-1.969 1.875-2.906L101.094 14.5Zm-2.813 6.813c0-.125.073-.188.219-.188l.156.031a8.82 8.82 0 0 0 1.719.188h.406l10.188-.407a6.077 6.077 0 0 0-.688-1.218c-.146-.23-.219-.396-.219-.5 0-.209.146-.386.438-.532.312-.145.552-.218.719-.218.271 0 .521.198.75.593a20.044 20.044 0 0 0 1.969-.937 15.215 15.215 0 0 0 1.593-1.063l-8.469.563c-.27.02-.593.031-.968.031-.5 0-.896-.114-1.188-.343a3.27 3.27 0 0 1-.75-.97.541.541 0 0 1-.094-.25c0-.145.105-.218.313-.218.083 0 .156.01.219.031.333.104.802.156 1.406.156h.438l9.874-.562.594-.031c.292 0 .552.083.782.25.25.146.437.323.562.531.146.188.219.323.219.406 0 .188-.104.344-.313.469l-.375.188a22.447 22.447 0 0 1-2.437 1.625c-.771.416-1.677.864-2.719 1.343l.219.563 8.125-.313a9.059 9.059 0 0 0 2.219-.312c.062-.021.166-.032.312-.032.292 0 .573.105.844.313.271.188.489.406.656.656.188.23.281.386.281.469 0 .25-.187.396-.562.438l-11.469.437c.146.75.229 1.51.25 2.281l.031.844c0 1.396-.208 2.333-.625 2.813-.396.479-.844.718-1.344.718-.437 0-1.124-.24-2.062-.718a18.463 18.463 0 0 1-2.594-1.532c-.771-.562-1.156-.968-1.156-1.218 0-.105.094-.157.281-.157.188 0 .469.063.844.188.687.27 1.531.552 2.531.843 1 .292 1.615.438 1.844.438.104 0 .188-.063.25-.188l.031-.156c.063-.604.094-1.208.094-1.812 0-.813-.063-1.573-.187-2.282l-10.344.375-.906.032c-.563 0-.99-.157-1.282-.469-.291-.333-.49-.667-.594-1a.436.436 0 0 1-.03-.188Zm9.438-9.063c0-.188.26-.48.781-.875.854-.646 1.521-1.27 2-1.875-.792-.583-1.344-.958-1.656-1.125-.271-.146-.406-.292-.406-.438 0-.166.083-.354.25-.562.166-.208.312-.313.437-.313.187 0 .979.448 2.375 1.344.604-.708.958-1.344 1.062-1.906.042-.167.146-.25.313-.25.229 0 .521.146.875.438.375.27.562.53.562.78 0 .147-.208.438-.624.876-.417.437-.709.729-.876.875.313.187.709.458 1.188.812.5.354.75.636.75.844 0 .188-.104.417-.312.688-.188.27-.376.406-.563.406-.167 0-.365-.094-.594-.281l-.562-.47c-.375-.353-.75-.666-1.125-.937-1.834 1.417-3.052 2.125-3.656 2.125-.146 0-.219-.052-.219-.156Zm.25-5.563c0-.208.219-.49.656-.843A17.991 17.991 0 0 0 110.562 4c-1.02-.688-1.656-1.104-1.906-1.25-.229-.146-.344-.302-.344-.469 0-.125.063-.281.188-.469.188-.25.365-.375.531-.375.334 0 1.188.47 2.563 1.407.104-.104.271-.344.5-.719.25-.375.448-.781.594-1.219.062-.166.177-.25.343-.25.229 0 .511.156.844.469.333.292.5.573.5.844 0 .146-.042.26-.125.343l-.625.626-.719.718c.688.48 1.125.823 1.313 1.031.208.188.312.344.312.47 0 .145-.104.364-.312.655-.188.271-.365.407-.531.407-.188 0-.386-.104-.594-.313a20.605 20.605 0 0 0-1.469-1.187c-1.771 1.416-2.917 2.125-3.437 2.125-.146 0-.219-.052-.219-.157ZM180.812 13.688c-.124 0-.291-.136-.5-.407-.208-.291-.302-.541-.281-.75.042-.166.073-.635.094-1.406.021-.52.031-1.438.031-2.75 0-.917-.01-1.531-.031-1.844l-1.031.094c-.729.104-1.354.156-1.875.156-.146 0-.354-.114-.625-.343-.271-.23-.406-.396-.406-.5 0-.167.177-.23.531-.188.229.02.906.01 2.031-.031a101.74 101.74 0 0 1 3.344-.188c.354-.02.677-.052.968-.093.313-.063.532-.105.657-.125.187-.021.354 0 .5.062.146.063.281.146.406.25.146.083.26.146.344.188.187.125.281.24.281.343 0 .084-.052.167-.156.25a.459.459 0 0 1-.282.094c-.104 0-.25-.01-.437-.031a4.574 4.574 0 0 0-.563-.032c-.77 0-1.562.021-2.374.063-.021.167-.032.583-.032 1.25a90.985 90.985 0 0 0-.062 3.313v1.499c0 .355-.032.584-.094.688-.188.292-.333.438-.438.438Zm-3.343 7.406c-.229 0-.511-.177-.844-.532-.25-.25-.375-.437-.375-.562 0-.063.042-.094.125-.094.083-.02.187-.031.313-.031l.687-.031c.396 0 .656-.01.781-.032.396 0 .729-.01 1-.03 1.792-.167 3-.303 3.625-.407.313-.042.594-.083.844-.125.25-.063.448-.094.594-.094.291 0 .583.146.875.438.229.229.344.416.344.562 0 .125-.073.209-.219.25-.104.021-.719.063-1.844.125-.625.021-1.396.073-2.313.157-.916.083-1.718.166-2.406.25-.125.02-.302.052-.531.093a3.668 3.668 0 0 1-.656.063Zm13.093-10.375c.25 0 .376.114.376.344 0 .124-.115.302-.344.53-.625.772-1.865 2.24-3.719 4.407-.146.188-.281.281-.406.281-.104 0-.334-.156-.688-.468-.291-.25-.437-.459-.437-.626 0-.187.156-.364.468-.53.48-.272 1.198-.813 2.157-1.626.958-.854 1.666-1.531 2.125-2.031.187-.188.344-.281.468-.281Zm-36 17.718v.094c0 .188-.052.334-.156.438-.083.104-.218.156-.406.156-.292 0-.625-.104-1-.313-.354-.187-.531-.437-.531-.75v-.187c.041-.417.062-.688.062-.813l-.031-.593-.406-7.563a5.551 5.551 0 0 0-.156-.968c-.063-.355-.126-.605-.188-.75-.167-.334-.25-.573-.25-.72 0-.124.073-.187.219-.187.271 0 1.01.219 2.219.657l3.124-.125c.688-.75 1.209-1.375 1.563-1.875.354-.5.552-.97.594-1.407.041-.333.125-.5.25-.5s.323.104.593.313c.271.208.511.448.719.719.229.27.344.5.344.687 0 .125-.094.292-.281.5-.188.208-.698.688-1.532 1.438l7-.344h.313c.354 0 .687.135 1 .406.313.25.469.51.469.781 0 .104-.042.23-.125.375-.084.146-.125.24-.125.282l-.75 7.625c.479.645.718 1.114.718 1.406 0 .187-.072.302-.218.343-.125.042-.313.063-.563.063l-12.5.219.031.593Zm-7.624-16.312c0-.125.135-.198.406-.219.916-.062 2.166-.396 3.75-1 1.583-.604 2.958-1.198 4.125-1.781.375-.188.666-.281.875-.281.166 0 .25.052.25.156 0 .27-.542.792-1.625 1.563a35.534 35.534 0 0 1-3.5 2.124c-1.25.667-2.094 1-2.531 1-.334 0-.709-.187-1.126-.562-.416-.396-.624-.73-.624-1Zm.343-8.781c0-.167.073-.25.219-.25l.125.031c.313.063.667.094 1.063.094l.718-.031 7.875-.594h.188c.229 0 .489.104.781.312.312.209.469.469.469.781 0 .105-.021.22-.063.344-.021.125-.031.24-.031.344l-.25 8.094v.187l.031 1.094c0 .396-.135.73-.406 1-.25.27-.562.406-.938.406-.208 0-.458-.062-.75-.187a26.736 26.736 0 0 1-2.593-1.375c-.729-.48-1.094-.844-1.094-1.094 0-.146.125-.219.375-.219.229 0 .469.042.719.125.896.292 1.802.5 2.719.625l.25-8.625-6.938.532A6.619 6.619 0 0 1 149 5c-.562 0-.99-.177-1.281-.531-.292-.375-.438-.75-.438-1.125Zm2.125 3.125c0-.209.084-.448.25-.719.167-.27.344-.406.532-.406.083 0 .51.187 1.281.562.791.375 1.51.771 2.156 1.188.646.416.969.75.969 1 0 .166-.115.416-.344.75-.208.312-.427.469-.656.469-.167 0-.396-.115-.688-.344-.791-.625-1.802-1.281-3.031-1.969a5.545 5.545 0 0 1-.375-.25.46.46 0 0 1-.094-.281Zm4.75 15.093 11.375-.437.219-2.969-11.75.563.156 2.843Zm.282 4.532 10.718-.25.25-3.032-11.156.438.188 2.844ZM159 11.187c0-.104.104-.166.312-.187.75-.042 1.928-.354 3.532-.938 1.625-.583 2.989-1.145 4.094-1.687.437-.23.791-.344 1.062-.344.167 0 .25.052.25.156 0 .271-.542.782-1.625 1.532a38.658 38.658 0 0 1-3.437 2.094c-1.23.666-2 1-2.313 1-.292 0-.583-.105-.875-.313-.271-.23-.51-.48-.719-.75-.187-.292-.281-.48-.281-.563Zm.375-8.656c0-.166.073-.25.219-.25l.125.031c.312.084.719.126 1.219.126l.718-.032 7.782-.531h.124c.271 0 .563.073.876.219.312.125.468.375.468.75 0 .125-.021.26-.062.406a2.26 2.26 0 0 0-.032.375l-.562 9.313v.718c0 .396-.021.698-.062.906-.042.209-.167.417-.376.626-.333.333-.635.5-.906.5-.25 0-.802-.209-1.656-.626a19.44 19.44 0 0 1-2.344-1.406c-.708-.5-1.062-.875-1.062-1.125 0-.125.104-.187.312-.187.188 0 .532.083 1.032.25a26.1 26.1 0 0 0 3.124.812l.532-9.781-6.813.531a8.753 8.753 0 0 1-.937.063c-.459 0-.771-.084-.938-.25-.375-.417-.625-.844-.75-1.281l-.031-.157Zm1.25 3.125c0-.229.094-.448.281-.656.188-.23.375-.344.563-.344.187 0 .687.23 1.5.688.833.458 1.656.948 2.469 1.468.354.23.531.47.531.72 0 .228-.104.5-.313.812-.187.291-.385.437-.594.437-.187 0-.395-.104-.624-.312-.73-.604-1.834-1.334-3.313-2.188-.333-.208-.5-.416-.5-.625Z"/></svg>