<svg xmlns="http://www.w3.org/2000/svg" width="200" height="50" fill="none"><path fill="#333" d="M32.629 25.187a.486.486 0 0 1-.176-.02c-.013-.026.007-.071.059-.136.182-.17.325-.332.43-.488.117-.17.24-.437.37-.801.209-.6.313-1.061.313-1.387 0-.3-.02-.573-.059-.82v-.059c0-.143.092-.189.274-.137.156.04.332.092.527.157a.592.592 0 0 1 .176-.02l.371-.058c.443-.066 1.016-.13 1.719-.196 0-.052.052-.234.156-.547l.117-.43c.052-.182.033-.273-.058-.273-.26 0-.866.065-1.817.196l-1.035.175c-.091.013-.208-.026-.352-.117a1.188 1.188 0 0 1-.312-.312c-.065-.117-.052-.196.04-.235a.586.586 0 0 1 .312-.097h.449l1.289-.04 1.25-.156c.065-.013.143-.032.234-.058.104-.04.202-.065.293-.078.13-.026.352.117.664.43.052.051.078.11.078.175 0 .078-.052.156-.156.234-.143.144-.234.267-.273.372a3.52 3.52 0 0 1-.078.293c-.04.117-.078.266-.118.449a.493.493 0 0 1 .118.332c0 .104-.033.182-.098.234-.052.04-.163.059-.332.059-.586.039-1.048.078-1.387.117a9.374 9.374 0 0 0-1.23.195 6.285 6.285 0 0 1-.352 1.621c-.182.482-.436.847-.762 1.094-.312.221-.527.332-.644.332Zm4.98 6.074c.183.117.274.228.274.332 0 .144-.11.235-.332.274a7.05 7.05 0 0 1-.938.078c-.586.013-.963-.007-1.133-.059-.286-.13-.43-.345-.43-.644l.02-.723c.026-.234.04-.443.04-.625.012-.117.019-.345.019-.683-.195.442-.45.872-.762 1.289-.221.273-.416.5-.586.683-.169.17-.37.332-.605.489-.235.156-.45.234-.645.234-.117 0-.175-.04-.175-.117 0-.013.123-.111.37-.293.261-.196.521-.463.782-.801a8.2 8.2 0 0 0 1.015-1.836c-.507.065-.846.124-1.015.176a.702.702 0 0 0-.176.058.485.485 0 0 1-.195 0 1.66 1.66 0 0 1-.274-.156 1.785 1.785 0 0 1-.273-.254c-.052-.078-.078-.13-.078-.156 0-.065.097-.098.293-.098.481 0 1.1-.052 1.855-.156.078-.3.117-.781.117-1.445v-.371c0-.157.033-.241.098-.254.013-.013.04-.02.078-.02.104 0 .247.078.43.235.143.117.234.208.273.273.052.052.059.124.02.215l-.078.156a.828.828 0 0 0-.078.235l-.079.39c-.039.182-.065.345-.078.488.183-.013.41-.039.684-.078a4.53 4.53 0 0 0 .605-.117l.391-.098c.13-.026.345.085.645.332.052.04.078.085.078.137 0 .052-.026.098-.078.137a.278.278 0 0 1-.157.039c-.234 0-.664.039-1.289.117l-.644.059c.143.104.234.195.273.273.04.078.046.156.02.235l-.059.312c-.026.26-.052.547-.078.86a6.553 6.553 0 0 0 0 .722c0 .065.039.124.117.176a.547.547 0 0 0 .273.078c.326 0 .69-.033 1.094-.098l.176-.039c.078 0 .143.013.195.04Zm1.25-6.64c.066 0 .163.045.293.136-.013.026.013.078.078.157l.137.136c.065.066.13.144.196.235l.253.293c.235.247.775.892 1.621 1.933.144.209.215.332.215.371 0 .13-.078.196-.234.196-.091 0-.189-.065-.293-.196-.247-.26-.69-.67-1.328-1.23-.495-.456-.944-.807-1.348-1.055-.195-.09-.293-.195-.293-.312 0-.091.098-.222.293-.39.183-.183.32-.274.41-.274Zm-24.726 8.945c-.482 0-.723-.24-.723-.723 0-.481.241-.722.723-.722h6.504V17.707c0-.495.254-.743.761-.743.495 0 .743.248.743.743v5.234h6.465c.481 0 .722.24.722.723 0 .481-.24.722-.723.722h-6.464v7.735h7.793c.481 0 .722.24.722.722s-.24.723-.722.723H14.133ZM67.902 20.636c.17.143.254.248.254.313 0 .117-.163.17-.488.156h-.41c-.365 0-1.14.046-2.324.137-.026.169-.059.345-.098.527-.04.17-.065.3-.078.39V22.395c.065 0 .11-.006.136-.02.066-.012.215-.032.45-.058.247-.04.495-.078.742-.117.078-.013.156-.033.234-.059a.46.46 0 0 1 .196-.058c.143 0 .319.09.527.273.143.117.215.208.215.273 0 .144-.085.359-.254.645a5.543 5.543 0 0 1-.879 1.191c-.378.378-.768.625-1.172.743a.728.728 0 0 1-.176.02c-.052 0-.078-.014-.078-.04 0-.039.091-.143.274-.312a5.73 5.73 0 0 0 1.21-1.465c.183-.326.274-.521.274-.586 0-.052-.032-.078-.098-.078h-.097l-.508.058c-.508.078-.827.137-.957.176-.156.078-.28.117-.371.117-.091 0-.209-.071-.352-.215a1.181 1.181 0 0 0-.097-.078c-.04-.039-.059-.097-.059-.175 0-.04.026-.098.078-.176a1.39 1.39 0 0 0 .117-.39c.026-.157.04-.255.04-.294l.078-.45c-.222.027-.573.085-1.055.177-.13.026-.222.039-.274.039a.585.585 0 0 1-.312-.117c-.248-.17-.371-.28-.371-.332 0-.092.117-.144.351-.157l.684-.058 1.094-.117c.065-.521.097-.84.097-.957l.02-.41c.026-.222.078-.333.156-.333.065 0 .143.026.235.078.169.091.292.19.37.293.092.091.124.17.098.235l-.136.41c-.04.078-.092.28-.157.605l1.7-.156c.143-.013.312-.052.507-.117l.156-.02c.13 0 .241.04.333.118.09.065.15.11.175.136Zm-2.441 11.387c-.625 0-1.146-.156-1.563-.469-.43-.351-.644-.761-.644-1.23 0-.365.137-.684.41-.957.352-.3.794-.45 1.328-.45.026 0 .046-.026.059-.078a.694.694 0 0 0 .039-.253l.02-.508c-.092.013-.268.032-.528.058-.247.026-.43.052-.547.078.065-.013-.137.033-.605.137a.783.783 0 0 1-.215.02c-.248 0-.456-.111-.625-.332-.078-.079-.117-.144-.117-.196 0-.078.117-.117.351-.117l.606-.039 1.66-.215v-.722a.728.728 0 0 1-.02-.176.508.508 0 0 0-.02-.156 1.17 1.17 0 0 1-.038-.196c0-.09.045-.137.136-.137.118 0 .32.085.606.254.091.053.137.124.137.215a.388.388 0 0 1-.04.176.43.43 0 0 0-.019.137v.547l.586-.059.723-.078c.065-.013.136-.033.215-.059a.838.838 0 0 1 .214-.039c.078 0 .176.04.293.118.222.143.332.266.332.37 0 .105-.11.157-.332.157a1.35 1.35 0 0 0-.273.039c-.117.013-.267.026-.45.039L65.833 28l-.02 1.191c-.025.195-.169.319-.43.371h-.038c-.078 0-.156-.006-.235-.02a.45.45 0 0 0-.156-.039c-.104 0-.208.007-.312.02a.518.518 0 0 0-.274.117c-.221.195-.332.423-.332.684 0 .26.124.495.371.703.222.208.573.312 1.055.312.638-.026 1.159-.201 1.562-.527.17-.117.3-.176.391-.176.052 0 .117.013.195.04.013.012.04.038.079.078.039.039.058.078.058.117 0 .364-.306.664-.918.898-.456.17-.911.254-1.367.254Zm3.398-7.402c.066 0 .163.045.293.136-.013.026.013.078.079.157l.136.136c.065.066.13.144.195.235l.254.293c.235.247.775.892 1.621 1.933.144.209.215.332.215.371 0 .13-.078.196-.234.196-.091 0-.189-.065-.293-.196-.247-.26-.69-.67-1.328-1.23-.495-.456-.944-.807-1.348-1.055-.195-.09-.293-.195-.293-.312 0-.091.098-.222.293-.39.183-.183.32-.274.41-.274Zm-23.066 9.922c-.469 0-.703-.235-.703-.704v-7.558h-1.172c-.469 0-.703-.234-.703-.703s.234-.703.703-.703h1.172v-5.86c0-.338.104-.612.312-.82.209-.208.482-.313.82-.313H58.02c.338 0 .611.105.82.313.208.208.312.482.312.82v5.86h1.035c.47 0 .704.234.704.703s-.235.703-.703.703h-1.036v6.484c0 .39-.039.697-.117.918a1.148 1.148 0 0 1-.508.547c-.221.13-.71.215-1.465.254-.598 0-.956-.189-1.074-.566-.195-.573.124-.847.957-.82h.508c.208 0 .313-.118.313-.352V26.28h-2.93v7.305c0 .455-.228.683-.684.683-.455 0-.683-.228-.683-.683V26.28h-2.871v7.324c0 .443-.222.664-.664.664-.456 0-.684-.221-.684-.664v-7.324h-2.754v7.558c0 .47-.234.704-.703.704Zm.703-9.668h2.754v-5.586h-2.344c-.273 0-.41.136-.41.41v5.176Zm4.102 0h2.87v-5.586h-2.87v5.586Zm4.238 0h2.93v-5.176c0-.274-.137-.41-.41-.41h-2.52v5.586ZM99.973 25.285c-.209 0-.332-.104-.371-.313-.079-.221-.287-.495-.625-.82l.058-.078c.052.026.202.09.45.195.247.091.416.137.507.137h.176a.384.384 0 0 0 .137-.098c.156-.117.351-.384.586-.8.169-.34.319-.736.449-1.192.143-.456.215-.8.215-1.035 0-.065-.052-.098-.157-.098l-.742.04-.508.038-.332.02-.136.02c.09.065.15.123.175.175.04.04.06.091.06.156 0 .066-.08.248-.235.547-.13.287-.339.612-.625.977a7.392 7.392 0 0 1-.957 1.016c-.391.351-.684.533-.88.546a.369.369 0 0 1-.116-.02.132.132 0 0 1-.04-.097c0-.013.105-.137.313-.37l.547-.646c.39-.52.788-1.184 1.191-1.992.04-.104.02-.162-.058-.175-.078.013-.241.032-.489.058a2.522 2.522 0 0 0-.664.117.624.624 0 0 0-.136.059.64.64 0 0 1-.196.039.265.265 0 0 1-.195-.078l-.156-.137c-.117-.091-.176-.176-.176-.254a.3.3 0 0 1 .039-.117l.098-.156c.052-.065.136-.17.254-.313.117-.143.247-.338.39-.586a8.65 8.65 0 0 0 .157-.351c.09-.183.136-.293.136-.332v-.078c0-.079.013-.13.04-.157.025-.026.084-.026.175 0 .091.026.202.098.332.215l.215.215c.039.04.058.085.058.137 0 .13-.182.364-.546.703a2.276 2.276 0 0 0-.235.293c-.09.13-.137.215-.137.254 0 .078.06.104.176.078l.45-.059c1.028-.156 1.803-.247 2.324-.273l.527-.078.176-.04.098-.019c.104 0 .175.013.214.04a.438.438 0 0 1 .118.136c.039.052.078.098.117.137.091.104.156.195.195.273l.039.176-.039.078-.039.117c-.026.065-.046.13-.059.195-.013.053-.032.111-.058.176-.274 1.055-.593 1.875-.957 2.461-.117.209-.319.417-.606.625-.273.209-.514.313-.722.313Zm-2.422 4.258c-.143 0-.32-.111-.528-.332-.156-.157-.234-.274-.234-.352 0-.04.026-.059.078-.059a.817.817 0 0 1 .195-.02l.43-.019c.248 0 .41-.006.489-.02.247 0 .455-.006.625-.019 1.12-.104 1.874-.189 2.265-.254a16.5 16.5 0 0 0 .527-.078c.157-.039.28-.058.372-.058.182 0 .364.09.546.273.144.143.215.26.215.352 0 .078-.045.13-.136.156-.066.013-.45.039-1.153.078-.39.013-.872.046-1.445.098-.573.052-1.074.104-1.504.156-.078.013-.189.032-.332.058-.143.026-.28.04-.41.04Zm5.683-4.922c.065 0 .163.045.293.136-.013.026.013.078.078.157l.137.136c.065.066.13.144.196.235l.253.293c.235.247.775.892 1.621 1.933.144.209.215.332.215.371 0 .13-.078.196-.234.196-.091 0-.189-.065-.293-.196-.247-.26-.69-.67-1.328-1.23-.495-.456-.944-.807-1.348-1.055-.195-.09-.293-.195-.293-.312 0-.091.098-.222.293-.39.183-.183.319-.274.41-.274Zm-16.836 9.863c-.468 0-.703-.234-.703-.703v-3.887c-.833.847-1.849 1.634-3.047 2.363a19.656 19.656 0 0 1-3.535 1.72c-.377.13-.683.045-.918-.255-.364-.482-.247-.807.352-.976 2.344-.82 4.303-1.92 5.879-3.301h-3.809c0 .026-.006.039-.02.039-.116.404-.383.58-.8.527-.521-.078-.71-.332-.566-.761.273-.938.54-1.98.8-3.125a1.191 1.191 0 0 1 1.192-.957h4.472v-1.973h-5.8c-.404 0-.606-.208-.606-.625 0-.404.202-.606.605-.606H92.18c.338 0 .612.105.82.313.208.208.313.482.313.82v2.168c0 .339-.105.612-.313.82-.208.209-.482.313-.82.313h-5.078v1.797h6.171c.782 0 1.1.65.958 1.953-.209 1.64-.495 2.643-.86 3.008-.273.3-.677.456-1.21.469-.522.026-1.049.032-1.583.02-.573-.014-.898-.261-.976-.743v-.02l-.02-.02c-.17-.377.013-.546.547-.507.417.013.885.02 1.406.02.352 0 .58-.046.684-.137.247-.247.449-.95.605-2.11.026-.26.013-.436-.039-.527-.052-.104-.15-.156-.293-.156h-5.39v4.336c0 .469-.235.703-.704.703Zm-5.449-6.29h4.746v-1.796H81.38c-.052.234-.137.58-.254 1.035l-.176.762Zm6.153-3.026h4.394c.273 0 .41-.137.41-.41v-1.153c0-.273-.137-.41-.41-.41h-4.394v1.973Zm-8.086-3.692c-.287.3-.593.339-.918.117-.235-.156-.365-.312-.391-.468-.013-.157.085-.339.293-.547.846-.964 1.543-2.097 2.09-3.399.156-.403.45-.547.879-.43.469.118.618.398.449.84a5.62 5.62 0 0 1-.352.762h4.473c.39 0 .586.196.586.586 0 .39-.195.586-.586.586h-2.95c.235.456.418.879.548 1.27.104.338-.033.585-.41.742-.235.09-.417.117-.547.078-.144-.052-.248-.189-.313-.41-.182-.56-.41-1.12-.683-1.68h-.762c-.482.768-.95 1.42-1.406 1.953Zm12.265.117c-.416.183-.703.091-.86-.273a11.612 11.612 0 0 0-1.132-1.797h-1.387a12.376 12.376 0 0 1-1.543 1.895c-.3.286-.612.312-.937.078-.443-.326-.45-.677-.02-1.055a9.88 9.88 0 0 0 2.227-3.242c.182-.43.482-.586.898-.469.495.117.645.417.45.898a1.52 1.52 0 0 1-.079.176c-.13.248-.227.43-.292.547h5.917c.391 0 .586.196.586.586 0 .39-.195.586-.586.586h-3.71c.325.443.605.872.84 1.29.09.194.103.35.038.468-.052.117-.188.221-.41.312ZM115.832 33c-.299 0-.534-.105-.703-.313-.156-.208-.221-.475-.195-.8.169-2.436.546-4.532 1.132-6.29.599-1.797 1.543-3.594 2.832-5.39h-6.171c-.508 0-.762-.254-.762-.762s.254-.762.762-.762h7.656c.364 0 .547.183.547.547v.059c0 .3-.111.599-.332.898-1.368 1.836-2.331 3.678-2.891 5.527-.495 1.589-.807 3.666-.937 6.23-.013.313-.105.567-.274.763-.156.195-.378.293-.664.293ZM129.191 27.394c-.612 0-1.321-.312-2.129-.937l-.234-.176a6.397 6.397 0 0 0-.742-.508c-.274-.156-.534-.234-.781-.234-.443 0-.847.208-1.211.625-.13.195-.28.325-.449.39a.549.549 0 0 1-.547-.058.52.52 0 0 1-.215-.45c0-.169.058-.338.176-.507.677-.886 1.445-1.329 2.304-1.329.404 0 .814.111 1.231.333.247.13.586.364 1.015.703.365.273.632.455.801.547.3.169.573.254.82.254.443 0 .834-.196 1.172-.587.144-.195.3-.332.469-.41a.583.583 0 0 1 .567.059.555.555 0 0 1 .214.45c0 .168-.065.344-.195.526-.664.873-1.419 1.31-2.266 1.31ZM138.879 33c-.586 0-.879-.293-.879-.88V20.676l-2.305 1.563c-.403.273-.742.215-1.015-.176-.274-.404-.209-.742.195-1.015l3.125-2.09c.299-.183.599-.274.898-.274h.254c.404 0 .606.202.606.606V32.12c0 .586-.293.879-.879.879ZM144.914 33c-.352 0-.527-.176-.527-.528v-.058c0-.313.182-.632.547-.957 2.07-1.85 3.587-3.47 4.55-4.864.977-1.419 1.465-2.715 1.465-3.886 0-.86-.215-1.537-.644-2.032-.469-.534-1.133-.8-1.993-.8-.846 0-1.647.358-2.402 1.074-.364.39-.736.41-1.113.058-.326-.338-.313-.683.039-1.035 1.133-1.041 2.363-1.562 3.691-1.562 1.276 0 2.285.384 3.028 1.152.755.768 1.133 1.797 1.133 3.086 0 1.341-.515 2.793-1.543 4.355-.886 1.329-2.24 2.859-4.063 4.59.052 0 .137-.006.254-.02.963-.077 1.66-.116 2.09-.116h3.203c.508 0 .762.253.762.761 0 .521-.254.782-.762.782h-7.715ZM181.809 25.207c-.183 0-.319-.059-.411-.176-.117-.221-.358-.462-.722-.723l.039-.098c.403.17.742.254 1.015.254.17 0 .313-.097.43-.292.13-.209.267-.508.41-.899.17-.482.261-.885.274-1.21 0-.04-.02-.072-.059-.099-.039-.039-.071-.058-.097-.058-.118-.013-.339.006-.665.058l-.41.059c-.117.013-.254.04-.41.078-.143.04-.26.065-.351.078a3.692 3.692 0 0 0-.254.078.935.935 0 0 1-.254.059c-.065 0-.143-.033-.235-.098a2.003 2.003 0 0 1-.214-.254c-.013-.013-.02-.039-.02-.078 0-.052.039-.117.117-.195l.215-.215c.065-.078.13-.17.195-.273.065-.117.118-.202.157-.254.065-.104.117-.228.156-.371l.039-.176a.614.614 0 0 0-.02-.098c-.013-.065-.039-.097-.078-.097-.521.065-.905.143-1.152.234-.052.026-.13.052-.234.078a.295.295 0 0 1-.235-.117c-.039-.013-.117-.117-.234-.313-.052-.052-.078-.097-.078-.136 0-.091.136-.143.41-.156l.371-.04c.065 0 .202-.013.41-.039.417-.039.996-.084 1.738-.136.261-.013.71-.046 1.348-.098.182-.013.404-.04.664-.078.143-.04.234-.059.274-.059.065 0 .13.026.195.078.065.026.15.078.254.157a.756.756 0 0 1 .234.215c.052.065.078.13.078.195s-.032.11-.097.136a.418.418 0 0 1-.254 0 3.073 3.073 0 0 0-.547-.078 8.454 8.454 0 0 0-.352-.02c-.442-.012-.996.007-1.66.06a3.17 3.17 0 0 1-.41.038c.078.066.15.17.215.313v.04c0 .038-.02.09-.059.155a.338.338 0 0 1-.137.137c-.065.04-.143.13-.234.274-.091.143-.15.234-.176.273-.078.104-.117.189-.117.254 0 .052.052.071.156.058l.567-.078c.299-.052.521-.097.664-.136.039-.014.097-.026.176-.04.091-.012.195-.039.312-.078a.423.423 0 0 1 .274.059c.104.052.26.163.468.332.157.117.235.221.235.313 0 .065-.026.13-.078.195a1.108 1.108 0 0 0-.118.37c-.117.548-.254.99-.41 1.329-.117.234-.228.43-.332.586a2.916 2.916 0 0 1-.39.43c-.17.195-.365.293-.586.293Zm.136 6.816c-.625 0-1.146-.156-1.562-.469-.43-.351-.645-.761-.645-1.23 0-.365.137-.684.41-.957.352-.3.795-.45 1.329-.45.026 0 .045-.026.058-.078a.694.694 0 0 0 .039-.253l.02-.508a15.2 15.2 0 0 1-.528.058 5.344 5.344 0 0 0-.546.078c.065-.013-.137.033-.606.137a.784.784 0 0 1-.215.02c-.247 0-.456-.111-.625-.332-.078-.079-.117-.144-.117-.196 0-.078.117-.117.352-.117l.605-.039 1.66-.215v-.722a.729.729 0 0 1-.019-.176.506.506 0 0 0-.02-.156 1.176 1.176 0 0 1-.039-.196c0-.09.046-.137.137-.137.117 0 .319.085.605.254.091.053.137.124.137.215a.388.388 0 0 1-.039.176.432.432 0 0 0-.02.137v.547l.586-.059.723-.078c.065-.013.137-.033.215-.059a.84.84 0 0 1 .215-.039c.078 0 .175.04.293.118.221.143.332.266.332.37 0 .105-.111.157-.332.157-.065 0-.157.013-.274.039-.117.013-.267.026-.449.039l-1.309.098-.019 1.191c-.026.195-.169.319-.43.371h-.039c-.078 0-.156-.006-.234-.02a.448.448 0 0 0-.156-.039c-.105 0-.209.007-.313.02a.517.517 0 0 0-.273.117c-.222.195-.332.423-.332.684 0 .26.123.495.371.703.221.208.573.312 1.054.312.638-.026 1.159-.201 1.563-.527.169-.117.299-.176.39-.176a.64.64 0 0 1 .196.04l.078.078c.039.039.058.078.058.117 0 .364-.306.664-.918.898-.455.17-.911.254-1.367.254Zm3.399-7.402c.065 0 .163.045.293.136-.013.026.013.078.078.157l.137.136c.065.066.13.144.195.235l.254.293c.234.247.775.892 1.621 1.933.143.209.215.332.215.371 0 .13-.078.196-.235.196-.091 0-.188-.065-.293-.196-.247-.26-.69-.67-1.328-1.23-.495-.456-.944-.807-1.347-1.055-.196-.09-.293-.195-.293-.312 0-.091.097-.222.293-.39.182-.183.319-.274.41-.274Zm-13.418 9.843c-.469 0-.703-.227-.703-.683v-4.707c-1.068 1.77-2.285 3.164-3.653 4.18-.195.13-.364.182-.508.156-.143-.013-.292-.11-.449-.293-.195-.222-.28-.41-.254-.567.026-.156.17-.312.43-.468a12.19 12.19 0 0 0 2.07-1.836c.664-.73 1.224-1.491 1.68-2.285h-3.184c-.429 0-.644-.222-.644-.664 0-.43.215-.645.644-.645h3.868V25.03h-2.657c-.338 0-.612-.104-.82-.313-.208-.208-.312-.481-.312-.82v-5.293c0-.338.104-.612.312-.82.208-.209.482-.313.82-.313H175.363c.339 0 .612.104.821.313.208.208.312.482.312.82v5.293c0 .339-.104.612-.312.82-.209.209-.482.313-.821.313h-2.754v1.62h3.829c.429 0 .644.216.644.646 0 .442-.215.663-.644.663h-3.106a14.916 14.916 0 0 0 3.555 3.965c.247.17.377.332.39.489.013.143-.078.325-.273.547-.169.182-.326.28-.469.293-.13.026-.293-.04-.488-.196-1.315-1.094-2.461-2.46-3.438-4.101v4.824c0 .456-.227.683-.683.683Zm-10.313-1.093c-.338 0-.612-.105-.82-.313-.208-.208-.313-.482-.313-.82v-3.379c0-.339.105-.612.313-.82.208-.209.482-.313.82-.313h3.223c.338 0 .612.104.82.313.209.208.313.481.313.82v3.379c0 .338-.104.612-.313.82-.208.209-.482.313-.82.313h-3.223Zm.508-1.172h2.207c.274 0 .41-.137.41-.41v-2.461c0-.274-.136-.41-.41-.41h-2.207c-.273 0-.41.136-.41.41v2.46c0 .274.137.41.41.41Zm-1.035-5.918c-.391 0-.586-.195-.586-.586 0-.39.195-.586.586-.586h4.277c.391 0 .586.195.586.586 0 .39-.195.586-.586.586h-4.277Zm8.047-2.442h2.148v-2.011h-2.558v1.601c0 .274.136.41.41.41Zm3.398 0h2.227c.273 0 .41-.136.41-.41v-1.601h-2.637v2.011Zm-11.465-.156c-.377 0-.566-.195-.566-.586 0-.377.189-.566.566-.566h4.317c.377 0 .566.189.566.566 0 .39-.189.586-.566.586h-4.317Zm-.82-2.598c-.391 0-.586-.201-.586-.605 0-.39.195-.586.586-.586h5.625c.391 0 .586.195.586.586 0 .404-.195.605-.586.605h-5.625Zm8.477-.43h2.558v-1.991H169.133c-.274 0-.41.136-.41.41v1.582Zm3.808 0h2.637v-1.581c0-.274-.137-.41-.41-.41h-2.227v1.992Zm-11.347-2.148c-.391 0-.586-.195-.586-.585 0-.391.195-.587.586-.587h4.121c.39 0 .586.196.586.587 0 .39-.196.585-.586.585h-4.121Z"/></svg>