<svg width="200" height="50" viewBox="0 0 200 50" fill="none" xmlns="http://www.w3.org/2000/svg">
<path d="M32.6289 25.1871C32.5378 25.1871 32.4792 25.1806 32.4531 25.1676C32.4401 25.1415 32.4596 25.0959 32.5117 25.0308C32.694 24.8616 32.8372 24.6988 32.9414 24.5426C33.0586 24.3733 33.1823 24.1064 33.3125 23.7418C33.5208 23.1428 33.625 22.6806 33.625 22.3551C33.625 22.0556 33.6055 21.7821 33.5664 21.5347V21.4761C33.5664 21.3329 33.6576 21.2873 33.8398 21.3394C33.9961 21.3785 34.1719 21.4306 34.3672 21.4957C34.4062 21.4827 34.4648 21.4761 34.543 21.4761C34.6211 21.4631 34.7448 21.4436 34.9141 21.4176C35.3568 21.3524 35.9297 21.2873 36.6328 21.2222C36.6328 21.1702 36.6849 20.9879 36.7891 20.6754L36.9062 20.2457C36.9583 20.0634 36.9388 19.9722 36.8477 19.9722C36.5872 19.9722 35.9818 20.0373 35.0312 20.1676L33.9961 20.3433C33.9049 20.3564 33.7878 20.3173 33.6445 20.2261C33.5143 20.135 33.4102 20.0308 33.332 19.9136C33.2669 19.7965 33.2799 19.7183 33.3711 19.6793C33.4753 19.6142 33.5794 19.5816 33.6836 19.5816C33.7878 19.5816 33.8529 19.5816 33.8789 19.5816H34.1328L35.4219 19.5426L36.6719 19.3863C36.737 19.3733 36.8151 19.3537 36.9062 19.3277C37.0104 19.2886 37.1081 19.2626 37.1992 19.2496C37.3294 19.2235 37.5508 19.3668 37.8633 19.6793C37.9154 19.7314 37.9414 19.7899 37.9414 19.8551C37.9414 19.9332 37.8893 20.0113 37.7852 20.0894C37.6419 20.2327 37.5508 20.3564 37.5117 20.4605C37.4987 20.5256 37.4727 20.6233 37.4336 20.7535C37.3945 20.8707 37.3555 21.0204 37.3164 21.2027C37.3945 21.2939 37.4336 21.4045 37.4336 21.5347C37.4336 21.6389 37.401 21.717 37.3359 21.7691C37.2839 21.8082 37.1732 21.8277 37.0039 21.8277C36.418 21.8668 35.9557 21.9058 35.6172 21.9449C35.2786 21.9709 34.8685 22.036 34.3867 22.1402C34.3346 22.7261 34.2174 23.2665 34.0352 23.7613C33.8529 24.2431 33.599 24.6077 33.2734 24.8551C32.9609 25.0764 32.7461 25.1871 32.6289 25.1871ZM37.6094 31.2613C37.7917 31.3785 37.8828 31.4892 37.8828 31.5933C37.8828 31.7366 37.7721 31.8277 37.5508 31.8668C37.3294 31.9058 37.0169 31.9319 36.6133 31.9449C36.0273 31.9579 35.6497 31.9384 35.4805 31.8863C35.194 31.7561 35.0508 31.5412 35.0508 31.2418L35.0703 30.5191C35.0964 30.2847 35.1094 30.0764 35.1094 29.8941C35.1224 29.7769 35.1289 29.5491 35.1289 29.2105C34.9336 29.6532 34.6797 30.0829 34.3672 30.4996C34.1458 30.773 33.9505 31.0009 33.7812 31.1832C33.612 31.3524 33.4102 31.5152 33.1758 31.6715C32.9414 31.8277 32.7266 31.9058 32.5312 31.9058C32.4141 31.9058 32.3555 31.8668 32.3555 31.7886C32.3555 31.7756 32.4792 31.678 32.7266 31.4957C32.987 31.3004 33.2474 31.0334 33.5078 30.6949C33.8984 30.1741 34.237 29.5621 34.5234 28.859C34.0156 28.9241 33.6771 28.9827 33.5078 29.0347C33.4427 29.0478 33.3841 29.0673 33.332 29.0933C33.2799 29.1064 33.2148 29.1064 33.1367 29.0933C33.0716 29.0673 32.9805 29.0152 32.8633 28.9371C32.7461 28.8459 32.6549 28.7613 32.5898 28.6832C32.5378 28.6051 32.5117 28.553 32.5117 28.5269C32.5117 28.4618 32.6094 28.4293 32.8047 28.4293C33.2865 28.4293 33.9049 28.3772 34.6602 28.273C34.7383 27.9735 34.7773 27.4918 34.7773 26.8277V26.4566C34.7773 26.3004 34.8099 26.2157 34.875 26.2027C34.888 26.1897 34.9141 26.1832 34.9531 26.1832C35.0573 26.1832 35.2005 26.2613 35.3828 26.4176C35.526 26.5347 35.6172 26.6259 35.6562 26.691C35.7083 26.7431 35.7148 26.8147 35.6758 26.9058C35.6628 26.9319 35.6367 26.984 35.5977 27.0621C35.5586 27.1402 35.5326 27.2183 35.5195 27.2965C35.5065 27.3616 35.4805 27.4918 35.4414 27.6871C35.4023 27.8694 35.3763 28.0321 35.3633 28.1754C35.5456 28.1623 35.7734 28.1363 36.0469 28.0972C36.3203 28.0582 36.5221 28.0191 36.6523 27.9801L37.043 27.8824C37.1732 27.8564 37.388 27.967 37.6875 28.2144C37.7396 28.2535 37.7656 28.2991 37.7656 28.3511C37.7656 28.4032 37.7396 28.4488 37.6875 28.4879C37.6484 28.5139 37.5964 28.5269 37.5312 28.5269C37.2969 28.5269 36.8672 28.566 36.2422 28.6441L35.5977 28.7027C35.7409 28.8069 35.832 28.898 35.8711 28.9761C35.9102 29.0543 35.9167 29.1324 35.8906 29.2105L35.832 29.523C35.806 29.7834 35.7799 30.0699 35.7539 30.3824C35.7409 30.6949 35.7409 30.9358 35.7539 31.1051C35.7539 31.1702 35.793 31.2287 35.8711 31.2808C35.9622 31.3329 36.0534 31.359 36.1445 31.359C36.4701 31.359 36.8346 31.3264 37.2383 31.2613L37.4141 31.2222C37.4922 31.2222 37.5573 31.2353 37.6094 31.2613ZM38.8594 24.6207C38.9245 24.6207 39.0221 24.6662 39.1523 24.7574C39.1393 24.7834 39.1654 24.8355 39.2305 24.9136C39.2956 24.9787 39.3411 25.0243 39.3672 25.0504C39.4323 25.1155 39.4974 25.1936 39.5625 25.2847C39.6406 25.3759 39.7253 25.4735 39.8164 25.5777C40.0508 25.8251 40.5911 26.4696 41.4375 27.5113C41.5807 27.7196 41.6523 27.8433 41.6523 27.8824C41.6523 28.0126 41.5742 28.0777 41.418 28.0777C41.3268 28.0777 41.2292 28.0126 41.125 27.8824C40.8776 27.622 40.4349 27.2118 39.7969 26.6519C39.3021 26.1962 38.8529 25.8446 38.4492 25.5972C38.2539 25.5061 38.1562 25.4019 38.1562 25.2847C38.1562 25.1936 38.2539 25.0634 38.4492 24.8941C38.6315 24.7118 38.7682 24.6207 38.8594 24.6207ZM14.1328 33.566C13.651 33.566 13.4102 33.3251 13.4102 32.8433C13.4102 32.3616 13.651 32.1207 14.1328 32.1207H20.6367V17.7066C20.6367 17.2118 20.8906 16.9644 21.3984 16.9644C21.8932 16.9644 22.1406 17.2118 22.1406 17.7066V22.941H28.6055C29.0872 22.941 29.3281 23.1819 29.3281 23.6636C29.3281 24.1454 29.0872 24.3863 28.6055 24.3863H22.1406V32.1207H29.9336C30.4154 32.1207 30.6562 32.3616 30.6562 32.8433C30.6562 33.3251 30.4154 33.566 29.9336 33.566H22.0234H14.1328Z" fill="#333333"/>
<path d="M67.9023 20.6363C68.0716 20.7795 68.1562 20.8837 68.1562 20.9488C68.1562 21.066 67.9935 21.1181 67.668 21.1051H67.2578C66.8932 21.1051 66.1185 21.1506 64.9336 21.2418C64.9076 21.411 64.875 21.5868 64.8359 21.7691C64.7969 21.9384 64.7708 22.0686 64.7578 22.1597V22.316C64.7578 22.329 64.7578 22.342 64.7578 22.3551C64.7578 22.3681 64.7578 22.3811 64.7578 22.3941C64.8229 22.3941 64.8685 22.3876 64.8945 22.3746C64.9596 22.3616 65.1094 22.342 65.3438 22.316C65.5911 22.2769 65.8385 22.2379 66.0859 22.1988C66.1641 22.1858 66.2422 22.1662 66.3203 22.1402C66.3984 22.1011 66.4635 22.0816 66.5156 22.0816C66.6589 22.0816 66.8346 22.1728 67.043 22.3551C67.1862 22.4722 67.2578 22.5634 67.2578 22.6285C67.2578 22.7717 67.1732 22.9866 67.0039 23.273C66.7305 23.7548 66.4375 24.1519 66.125 24.4644C65.7474 24.842 65.3568 25.0894 64.9531 25.2066C64.901 25.2196 64.8424 25.2261 64.7773 25.2261C64.7253 25.2261 64.6992 25.2131 64.6992 25.1871C64.6992 25.148 64.7904 25.0439 64.9727 24.8746C65.4544 24.4579 65.8581 23.9696 66.1836 23.4097C66.3659 23.0842 66.457 22.8889 66.457 22.8238C66.457 22.7717 66.4245 22.7457 66.3594 22.7457C66.3073 22.7457 66.2747 22.7457 66.2617 22.7457L65.7539 22.8043C65.2461 22.8824 64.9271 22.941 64.7969 22.9801C64.6406 23.0582 64.5169 23.0972 64.4258 23.0972C64.3346 23.0972 64.2174 23.0256 64.0742 22.8824C64.0612 22.8694 64.0286 22.8433 63.9766 22.8043C63.9375 22.7652 63.918 22.7066 63.918 22.6285C63.918 22.5894 63.944 22.5308 63.9961 22.4527C64.0482 22.3485 64.0872 22.2183 64.1133 22.0621C64.1393 21.9058 64.1523 21.8082 64.1523 21.7691L64.2305 21.3199C64.0091 21.3459 63.6576 21.4045 63.1758 21.4957C63.0456 21.5217 62.9544 21.5347 62.9023 21.5347C62.8112 21.5347 62.707 21.4957 62.5898 21.4176C62.3424 21.2483 62.2188 21.1376 62.2188 21.0855C62.2188 20.9944 62.3359 20.9423 62.5703 20.9293L63.2539 20.8707L64.3477 20.7535C64.4128 20.2327 64.4453 19.9136 64.4453 19.7965L64.4648 19.3863C64.4909 19.1649 64.543 19.0543 64.6211 19.0543C64.6862 19.0543 64.7643 19.0803 64.8555 19.1324C65.0247 19.2235 65.1484 19.3212 65.2266 19.4254C65.3177 19.5165 65.3503 19.5946 65.3242 19.6597L65.1875 20.0699C65.1484 20.148 65.0964 20.3498 65.0312 20.6754L66.7305 20.5191C66.8737 20.5061 67.043 20.467 67.2383 20.4019L67.3945 20.3824C67.5247 20.3824 67.6354 20.4215 67.7266 20.4996C67.8177 20.5647 67.8763 20.6103 67.9023 20.6363ZM65.4609 32.023C64.8359 32.023 64.3151 31.8668 63.8984 31.5543C63.4688 31.2027 63.2539 30.7926 63.2539 30.3238C63.2539 29.9592 63.3906 29.6402 63.6641 29.3668C64.0156 29.0673 64.4583 28.9176 64.9922 28.9176C65.0182 28.9176 65.0378 28.8915 65.0508 28.8394C65.0768 28.7743 65.0898 28.6897 65.0898 28.5855L65.1094 28.0777C65.0182 28.0907 64.8424 28.1103 64.582 28.1363C64.3346 28.1623 64.1523 28.1884 64.0352 28.2144C64.1003 28.2014 63.8984 28.247 63.4297 28.3511C63.3906 28.3642 63.319 28.3707 63.2148 28.3707C62.9674 28.3707 62.7591 28.26 62.5898 28.0386C62.5117 27.9605 62.4727 27.8954 62.4727 27.8433C62.4727 27.7652 62.5898 27.7261 62.8242 27.7261L63.4297 27.6871L65.0898 27.4722V27.2379V26.7496C65.0768 26.6975 65.0703 26.6389 65.0703 26.5738C65.0703 26.5087 65.0638 26.4566 65.0508 26.4176C65.0247 26.3134 65.0117 26.2483 65.0117 26.2222C65.0117 26.1311 65.0573 26.0855 65.1484 26.0855C65.2656 26.0855 65.4674 26.1702 65.7539 26.3394C65.8451 26.3915 65.8906 26.4631 65.8906 26.5543C65.8906 26.6194 65.8776 26.678 65.8516 26.7301C65.8385 26.7691 65.832 26.8147 65.832 26.8668V27.4136L66.418 27.3551L67.1406 27.2769C67.2057 27.2639 67.2773 27.2444 67.3555 27.2183C67.4466 27.1923 67.5182 27.1793 67.5703 27.1793C67.6484 27.1793 67.7461 27.2183 67.8633 27.2965C68.0846 27.4397 68.1953 27.5634 68.1953 27.6676C68.1953 27.7717 68.0846 27.8238 67.8633 27.8238C67.7982 27.8238 67.707 27.8368 67.5898 27.8629C67.4727 27.8759 67.3229 27.8889 67.1406 27.9019L65.832 27.9996L65.8125 29.191C65.7865 29.3863 65.6432 29.51 65.3828 29.5621H65.3438C65.2656 29.5621 65.1875 29.5556 65.1094 29.5426C65.0443 29.5165 64.9922 29.5035 64.9531 29.5035C64.849 29.5035 64.7448 29.51 64.6406 29.523C64.5365 29.536 64.4453 29.5751 64.3672 29.6402C64.1458 29.8355 64.0352 30.0634 64.0352 30.3238C64.0352 30.5842 64.1589 30.8186 64.4062 31.0269C64.6276 31.2353 64.9792 31.3394 65.4609 31.3394C66.099 31.3134 66.6198 31.1376 67.0234 30.8121C67.1927 30.6949 67.3229 30.6363 67.4141 30.6363C67.4661 30.6363 67.5312 30.6493 67.6094 30.6754C67.6224 30.6884 67.6484 30.7144 67.6875 30.7535C67.7266 30.7926 67.7461 30.8316 67.7461 30.8707C67.7461 31.2353 67.4401 31.5347 66.8281 31.7691C66.3724 31.9384 65.9167 32.023 65.4609 32.023ZM68.8594 24.6207C68.9245 24.6207 69.0221 24.6662 69.1523 24.7574C69.1393 24.7834 69.1654 24.8355 69.2305 24.9136C69.2956 24.9787 69.3411 25.0243 69.3672 25.0504C69.4323 25.1155 69.4974 25.1936 69.5625 25.2847C69.6406 25.3759 69.7253 25.4735 69.8164 25.5777C70.0508 25.8251 70.5911 26.4696 71.4375 27.5113C71.5807 27.7196 71.6523 27.8433 71.6523 27.8824C71.6523 28.0126 71.5742 28.0777 71.418 28.0777C71.3268 28.0777 71.2292 28.0126 71.125 27.8824C70.8776 27.622 70.4349 27.2118 69.7969 26.6519C69.3021 26.1962 68.8529 25.8446 68.4492 25.5972C68.2539 25.5061 68.1562 25.4019 68.1562 25.2847C68.1562 25.1936 68.2539 25.0634 68.4492 24.8941C68.6315 24.7118 68.7682 24.6207 68.8594 24.6207ZM45.793 34.5426C45.3242 34.5426 45.0898 34.3082 45.0898 33.8394V26.2808H43.918C43.4492 26.2808 43.2148 26.0465 43.2148 25.5777C43.2148 25.109 43.4492 24.8746 43.918 24.8746H45.0898V19.0152C45.0898 18.6767 45.194 18.4032 45.4023 18.1949C45.6107 17.9866 45.8841 17.8824 46.2227 17.8824H52.1211H58.0195C58.3581 17.8824 58.6315 17.9866 58.8398 18.1949C59.0482 18.4032 59.1523 18.6767 59.1523 19.0152V24.8746H60.1875C60.6562 24.8746 60.8906 25.109 60.8906 25.5777C60.8906 26.0465 60.6562 26.2808 60.1875 26.2808H59.1523V32.7652C59.1523 33.1558 59.1133 33.4618 59.0352 33.6832C58.931 33.9176 58.7617 34.0998 58.5273 34.2301C58.306 34.3603 57.8177 34.4449 57.0625 34.484C56.4635 34.484 56.1055 34.2952 55.9883 33.9176C55.793 33.3446 56.112 33.0712 56.9453 33.0972C57.1146 33.0972 57.2839 33.0972 57.4531 33.0972C57.6615 33.0972 57.7656 32.9801 57.7656 32.7457V26.2808H54.8359V33.5855C54.8359 34.0412 54.6081 34.2691 54.1523 34.2691C53.6966 34.2691 53.4688 34.0412 53.4688 33.5855V26.2808H50.5977V33.6051C50.5977 34.0478 50.3763 34.2691 49.9336 34.2691C49.4779 34.2691 49.25 34.0478 49.25 33.6051V26.2808H46.4961V33.8394C46.4961 34.3082 46.2617 34.5426 45.793 34.5426ZM46.4961 24.8746H49.25V19.2886H47.8633H46.9062C46.6328 19.2886 46.4961 19.4254 46.4961 19.6988V24.8746ZM50.5977 24.8746H53.4688V19.2886H52.0234H50.5977V24.8746ZM54.8359 24.8746H57.7656V19.6988C57.7656 19.4254 57.6289 19.2886 57.3555 19.2886H56.3008H54.8359V24.8746Z" fill="#333333"/>
<path d="M99.9727 25.2847C99.7643 25.2847 99.6406 25.1806 99.6016 24.9722C99.5234 24.7509 99.3151 24.4774 98.9766 24.1519L99.0352 24.0738C99.0872 24.0998 99.237 24.1649 99.4844 24.2691C99.7318 24.3603 99.901 24.4058 99.9922 24.4058C100.07 24.4058 100.129 24.4058 100.168 24.4058C100.207 24.3928 100.253 24.3603 100.305 24.3082C100.461 24.191 100.656 23.9241 100.891 23.5074C101.06 23.1689 101.21 22.7717 101.34 22.316C101.483 21.8603 101.555 21.5152 101.555 21.2808C101.555 21.2157 101.503 21.1832 101.398 21.1832L100.656 21.2222L100.148 21.2613L99.8164 21.2808L99.6797 21.3004C99.7708 21.3655 99.8294 21.4241 99.8555 21.4761C99.8945 21.5152 99.9141 21.5673 99.9141 21.6324C99.9141 21.6975 99.8359 21.8798 99.6797 22.1793C99.5495 22.4657 99.3411 22.7912 99.0547 23.1558C98.8203 23.4683 98.5013 23.8069 98.0977 24.1715C97.707 24.523 97.4141 24.7053 97.2188 24.7183C97.1797 24.7183 97.1406 24.7118 97.1016 24.6988C97.0755 24.6728 97.0625 24.6402 97.0625 24.6011C97.0625 24.5881 97.1667 24.4644 97.375 24.2301L97.9219 23.5855C98.3125 23.0647 98.7096 22.4006 99.1133 21.5933C99.1523 21.4892 99.1328 21.4306 99.0547 21.4176C98.9766 21.4306 98.8138 21.4501 98.5664 21.4761C98.319 21.4892 98.0977 21.5282 97.9023 21.5933C97.8893 21.5933 97.8438 21.6129 97.7656 21.6519C97.6875 21.678 97.6224 21.691 97.5703 21.691C97.4922 21.691 97.4271 21.6649 97.375 21.6129L97.2188 21.4761C97.1016 21.385 97.043 21.3004 97.043 21.2222C97.043 21.1962 97.056 21.1571 97.082 21.1051L97.1797 20.9488C97.2318 20.8837 97.3164 20.7795 97.4336 20.6363C97.5508 20.4931 97.681 20.2978 97.8242 20.0504C97.8503 19.9983 97.9023 19.8811 97.9805 19.6988C98.0716 19.5165 98.1172 19.4058 98.1172 19.3668V19.2886C98.1172 19.2105 98.1302 19.1584 98.1562 19.1324C98.1823 19.1064 98.2409 19.1064 98.332 19.1324C98.4232 19.1584 98.5339 19.2301 98.6641 19.3472L98.8789 19.5621C98.918 19.6011 98.9375 19.6467 98.9375 19.6988C98.9375 19.829 98.7552 20.0634 98.3906 20.4019C98.3255 20.467 98.2474 20.5647 98.1562 20.6949C98.0651 20.8251 98.0195 20.9097 98.0195 20.9488C98.0195 21.0269 98.0781 21.053 98.1953 21.0269L98.6445 20.9683C99.6732 20.8121 100.448 20.7209 100.969 20.6949L101.496 20.6168L101.672 20.5777L101.77 20.5582C101.874 20.5582 101.945 20.5712 101.984 20.5972C102.023 20.6233 102.062 20.6689 102.102 20.734C102.141 20.786 102.18 20.8316 102.219 20.8707C102.31 20.9748 102.375 21.066 102.414 21.1441L102.453 21.3199L102.414 21.398L102.375 21.5152C102.349 21.5803 102.329 21.6454 102.316 21.7105C102.303 21.7626 102.284 21.8212 102.258 21.8863C101.984 22.941 101.665 23.7613 101.301 24.3472C101.184 24.5556 100.982 24.7639 100.695 24.9722C100.422 25.1806 100.181 25.2847 99.9727 25.2847ZM97.5508 29.5426C97.4076 29.5426 97.2318 29.4319 97.0234 29.2105C96.8672 29.0543 96.7891 28.9371 96.7891 28.859C96.7891 28.8199 96.8151 28.8004 96.8672 28.8004C96.9193 28.7873 96.9844 28.7808 97.0625 28.7808L97.4922 28.7613C97.7396 28.7613 97.9023 28.7548 97.9805 28.7418C98.2279 28.7418 98.4362 28.7353 98.6055 28.7222C99.7253 28.6181 100.48 28.5334 100.871 28.4683C101.066 28.4423 101.242 28.4162 101.398 28.3902C101.555 28.3511 101.678 28.3316 101.77 28.3316C101.952 28.3316 102.134 28.4228 102.316 28.6051C102.46 28.7483 102.531 28.8655 102.531 28.9566C102.531 29.0347 102.486 29.0868 102.395 29.1129C102.329 29.1259 101.945 29.1519 101.242 29.191C100.852 29.204 100.37 29.2366 99.7969 29.2886C99.224 29.3407 98.7227 29.3928 98.293 29.4449C98.2148 29.4579 98.1042 29.4774 97.9609 29.5035C97.8177 29.5295 97.681 29.5426 97.5508 29.5426ZM103.234 24.6207C103.299 24.6207 103.397 24.6662 103.527 24.7574C103.514 24.7834 103.54 24.8355 103.605 24.9136C103.671 24.9787 103.716 25.0243 103.742 25.0504C103.807 25.1155 103.872 25.1936 103.938 25.2847C104.016 25.3759 104.1 25.4735 104.191 25.5777C104.426 25.8251 104.966 26.4696 105.812 27.5113C105.956 27.7196 106.027 27.8433 106.027 27.8824C106.027 28.0126 105.949 28.0777 105.793 28.0777C105.702 28.0777 105.604 28.0126 105.5 27.8824C105.253 27.622 104.81 27.2118 104.172 26.6519C103.677 26.1962 103.228 25.8446 102.824 25.5972C102.629 25.5061 102.531 25.4019 102.531 25.2847C102.531 25.1936 102.629 25.0634 102.824 24.8941C103.007 24.7118 103.143 24.6207 103.234 24.6207ZM86.3984 34.484C85.9297 34.484 85.6953 34.2496 85.6953 33.7808V29.8941C84.862 30.7405 83.8464 31.5282 82.6484 32.2574C81.5026 32.9605 80.3242 33.5334 79.1133 33.9761C78.7357 34.1064 78.4297 34.0217 78.1953 33.7222C77.8307 33.2405 77.9479 32.9149 78.5469 32.7457C80.8906 31.9254 82.8503 30.8251 84.4258 29.4449H80.6172C80.6172 29.4709 80.6107 29.484 80.5977 29.484C80.4805 29.8876 80.2135 30.0634 79.7969 30.0113C79.276 29.9332 79.0872 29.6793 79.2305 29.2496C79.5039 28.3121 79.7708 27.2704 80.0312 26.1246C80.0964 25.8381 80.2331 25.6103 80.4414 25.441C80.6628 25.2587 80.9232 25.1676 81.2227 25.1676H85.6953V23.1949H79.8945C79.4909 23.1949 79.2891 22.9866 79.2891 22.5699C79.2891 22.1662 79.4909 21.9644 79.8945 21.9644H86.3008H92.1797C92.5182 21.9644 92.7917 22.0686 93 22.2769C93.2083 22.4853 93.3125 22.7587 93.3125 23.0972V25.2652C93.3125 25.6037 93.2083 25.8772 93 26.0855C92.7917 26.2939 92.5182 26.398 92.1797 26.398H87.1016V28.1949H93.2734C94.0547 28.1949 94.3737 28.8459 94.2305 30.148C94.0221 31.7886 93.7357 32.7912 93.3711 33.1558C93.0977 33.4553 92.694 33.6116 92.1602 33.6246C91.6393 33.6506 91.112 33.6571 90.5781 33.6441C90.0052 33.6311 89.6797 33.3837 89.6016 32.9019V32.8824L89.582 32.8629C89.4128 32.4853 89.5951 32.316 90.1289 32.3551C90.5456 32.3681 91.0143 32.3746 91.5352 32.3746C91.8867 32.3746 92.1146 32.329 92.2188 32.2379C92.4661 31.9905 92.668 31.2873 92.8242 30.1285C92.8503 29.8681 92.8372 29.6923 92.7852 29.6011C92.7331 29.497 92.6354 29.4449 92.4922 29.4449H87.1016V33.7808C87.1016 34.2496 86.8672 34.484 86.3984 34.484ZM80.9492 28.1949H83.3125H85.6953V26.398H81.3789C81.3268 26.6324 81.2422 26.9774 81.125 27.4332C81.0469 27.7717 80.9883 28.0256 80.9492 28.1949ZM87.1016 25.1676H91.4961C91.7695 25.1676 91.9062 25.0308 91.9062 24.7574V23.6051C91.9062 23.3316 91.7695 23.1949 91.4961 23.1949H89.5039H87.1016V25.1676ZM79.0156 21.4761C78.7292 21.7756 78.4232 21.8147 78.0977 21.5933C77.8633 21.4371 77.7331 21.2808 77.707 21.1246C77.694 20.9683 77.7917 20.786 78 20.5777C78.8464 19.6142 79.543 18.4814 80.0898 17.1793C80.2461 16.7756 80.5391 16.6324 80.9688 16.7496C81.4375 16.8668 81.5872 17.1467 81.418 17.5894C81.3268 17.8368 81.2096 18.0907 81.0664 18.3511H83.5859H85.5391C85.9297 18.3511 86.125 18.5465 86.125 18.9371C86.125 19.3277 85.9297 19.523 85.5391 19.523H82.5898C82.8242 19.9787 83.0065 20.4019 83.1367 20.7926C83.2409 21.1311 83.1042 21.3785 82.7266 21.5347C82.4922 21.6259 82.3099 21.6519 82.1797 21.6129C82.0365 21.5608 81.9323 21.4241 81.8672 21.2027C81.6849 20.6428 81.457 20.0829 81.1836 19.523H80.4219C79.9401 20.2912 79.4714 20.9423 79.0156 21.4761ZM91.2812 21.5933C90.8646 21.7756 90.5781 21.6845 90.4219 21.3199C90.0964 20.6819 89.7188 20.0829 89.2891 19.523H87.9023C87.4336 20.2261 86.9193 20.8577 86.3594 21.4176C86.0599 21.704 85.7474 21.7301 85.4219 21.4957C84.9792 21.1702 84.9727 20.8186 85.4023 20.441C86.3659 19.5035 87.1081 18.4228 87.6289 17.1988C87.8112 16.7691 88.1107 16.6129 88.5273 16.7301C89.0221 16.8472 89.1719 17.1467 88.9766 17.6285C88.9635 17.6676 88.9375 17.7261 88.8984 17.8043C88.7682 18.0517 88.6706 18.234 88.6055 18.3511H91.8477H94.5234C94.9141 18.3511 95.1094 18.5465 95.1094 18.9371C95.1094 19.3277 94.9141 19.523 94.5234 19.523H90.8125C91.138 19.9657 91.418 20.3954 91.6523 20.8121C91.7435 21.0074 91.7565 21.1636 91.6914 21.2808C91.6393 21.398 91.5026 21.5022 91.2812 21.5933Z" fill="#333333"/>
<path d="M115.832 32.9996C115.533 32.9996 115.298 32.8954 115.129 32.6871C114.973 32.4787 114.908 32.2118 114.934 31.8863C115.103 29.4514 115.48 27.3551 116.066 25.5972C116.665 23.8004 117.609 22.0035 118.898 20.2066H112.727C112.219 20.2066 111.965 19.9527 111.965 19.4449C111.965 18.9371 112.219 18.6832 112.727 18.6832H116.438H120.383C120.747 18.6832 120.93 18.8655 120.93 19.2301V19.2886C120.93 19.5881 120.819 19.8876 120.598 20.1871C119.23 22.023 118.267 23.8655 117.707 25.7144C117.212 27.303 116.9 29.3798 116.77 31.9449C116.757 32.2574 116.665 32.5113 116.496 32.7066C116.34 32.9019 116.118 32.9996 115.832 32.9996Z" fill="#333333"/>
<path d="M129.191 27.3941C128.579 27.3941 127.87 27.0816 127.062 26.4566C127.01 26.4176 126.932 26.359 126.828 26.2808C126.503 26.0334 126.255 25.8642 126.086 25.773C125.812 25.6168 125.552 25.5386 125.305 25.5386C124.862 25.5386 124.458 25.747 124.094 26.1636C123.964 26.359 123.814 26.4892 123.645 26.5543C123.449 26.6324 123.267 26.6129 123.098 26.4957C122.954 26.3915 122.883 26.2418 122.883 26.0465C122.883 25.8772 122.941 25.7079 123.059 25.5386C123.736 24.6532 124.504 24.2105 125.363 24.2105C125.767 24.2105 126.177 24.3212 126.594 24.5426C126.841 24.6728 127.18 24.9071 127.609 25.2457C127.974 25.5191 128.241 25.7014 128.41 25.7926C128.71 25.9618 128.983 26.0465 129.23 26.0465C129.673 26.0465 130.064 25.8511 130.402 25.4605C130.546 25.2652 130.702 25.1285 130.871 25.0504C131.079 24.9722 131.268 24.9918 131.438 25.109C131.581 25.2261 131.652 25.3759 131.652 25.5582C131.652 25.7274 131.587 25.9032 131.457 26.0855C130.793 26.9579 130.038 27.3941 129.191 27.3941Z" fill="#333333"/>
<path d="M138.879 32.9996C138.293 32.9996 138 32.7066 138 32.1207V20.6754L135.695 22.2379C135.292 22.5113 134.953 22.4527 134.68 22.0621C134.406 21.6584 134.471 21.3199 134.875 21.0465L138 18.9566C138.299 18.7743 138.599 18.6832 138.898 18.6832H139.152C139.556 18.6832 139.758 18.885 139.758 19.2886V25.8511V32.1207C139.758 32.7066 139.465 32.9996 138.879 32.9996Z" fill="#333333"/>
<path d="M144.914 32.9996C144.562 32.9996 144.387 32.8238 144.387 32.4722V32.4136C144.387 32.1011 144.569 31.7821 144.934 31.4566C147.004 29.6077 148.521 27.9866 149.484 26.5933C150.461 25.1741 150.949 23.8785 150.949 22.7066C150.949 21.8472 150.734 21.1702 150.305 20.6754C149.836 20.1415 149.172 19.8746 148.312 19.8746C147.466 19.8746 146.665 20.2327 145.91 20.9488C145.546 21.3394 145.174 21.359 144.797 21.0074C144.471 20.6689 144.484 20.3238 144.836 19.9722C145.969 18.9306 147.199 18.4097 148.527 18.4097C149.803 18.4097 150.812 18.7939 151.555 19.5621C152.31 20.3303 152.688 21.359 152.688 22.648C152.688 23.9892 152.173 25.441 151.145 27.0035C150.259 28.3316 148.905 29.8616 147.082 31.5933C147.134 31.5933 147.219 31.5868 147.336 31.5738C148.299 31.4957 148.996 31.4566 149.426 31.4566H152.629C153.137 31.4566 153.391 31.7105 153.391 32.2183C153.391 32.7392 153.137 32.9996 152.629 32.9996H148.879H144.914Z" fill="#333333"/>
<path d="M181.809 25.2066C181.626 25.2066 181.49 25.148 181.398 25.0308C181.281 24.8095 181.04 24.5686 180.676 24.3082L180.715 24.2105C181.118 24.3798 181.457 24.4644 181.73 24.4644C181.9 24.4644 182.043 24.3668 182.16 24.1715C182.29 23.9631 182.427 23.6636 182.57 23.273C182.74 22.7912 182.831 22.3876 182.844 22.0621C182.844 22.023 182.824 21.9905 182.785 21.9644C182.746 21.9254 182.714 21.9058 182.688 21.9058C182.57 21.8928 182.349 21.9123 182.023 21.9644L181.613 22.023C181.496 22.036 181.359 22.0621 181.203 22.1011C181.06 22.1402 180.943 22.1662 180.852 22.1793C180.799 22.1923 180.715 22.2183 180.598 22.2574C180.48 22.2965 180.396 22.316 180.344 22.316C180.279 22.316 180.201 22.2834 180.109 22.2183C180.031 22.1402 179.96 22.0556 179.895 21.9644C179.882 21.9514 179.875 21.9254 179.875 21.8863C179.875 21.8342 179.914 21.7691 179.992 21.691C180.083 21.5998 180.155 21.5282 180.207 21.4761C180.272 21.398 180.337 21.3069 180.402 21.2027C180.467 21.0855 180.52 21.0009 180.559 20.9488C180.624 20.8446 180.676 20.7209 180.715 20.5777L180.754 20.4019C180.754 20.3889 180.747 20.3564 180.734 20.3043C180.721 20.2392 180.695 20.2066 180.656 20.2066C180.135 20.2717 179.751 20.3498 179.504 20.441C179.452 20.467 179.374 20.4931 179.27 20.5191C179.178 20.5191 179.1 20.4801 179.035 20.4019C178.996 20.3889 178.918 20.2847 178.801 20.0894C178.749 20.0373 178.723 19.9918 178.723 19.9527C178.723 19.8616 178.859 19.8095 179.133 19.7965L179.504 19.7574C179.569 19.7574 179.706 19.7444 179.914 19.7183C180.331 19.6793 180.91 19.6337 181.652 19.5816C181.913 19.5686 182.362 19.536 183 19.484C183.182 19.4709 183.404 19.4449 183.664 19.4058C183.807 19.3668 183.898 19.3472 183.938 19.3472C184.003 19.3472 184.068 19.3733 184.133 19.4254C184.198 19.4514 184.283 19.5035 184.387 19.5816C184.491 19.6467 184.569 19.7183 184.621 19.7965C184.673 19.8616 184.699 19.9267 184.699 19.9918C184.699 20.0569 184.667 20.1024 184.602 20.1285C184.536 20.1545 184.452 20.1545 184.348 20.1285C184.191 20.0894 184.009 20.0634 183.801 20.0504C183.605 20.0373 183.488 20.0308 183.449 20.0308C183.007 20.0178 182.453 20.0373 181.789 20.0894C181.607 20.1155 181.47 20.1285 181.379 20.1285C181.457 20.1936 181.529 20.2978 181.594 20.441V20.4801C181.594 20.5191 181.574 20.5712 181.535 20.6363C181.496 20.7014 181.451 20.747 181.398 20.773C181.333 20.8121 181.255 20.9032 181.164 21.0465C181.073 21.1897 181.014 21.2808 180.988 21.3199C180.91 21.4241 180.871 21.5087 180.871 21.5738C180.871 21.6259 180.923 21.6454 181.027 21.6324C181.118 21.6194 181.307 21.5933 181.594 21.5543C181.893 21.5022 182.115 21.4566 182.258 21.4176C182.297 21.4045 182.355 21.3915 182.434 21.3785C182.525 21.3655 182.629 21.3394 182.746 21.3004C182.837 21.2873 182.928 21.3069 183.02 21.359C183.124 21.411 183.28 21.5217 183.488 21.691C183.645 21.8082 183.723 21.9123 183.723 22.0035C183.723 22.0686 183.697 22.1337 183.645 22.1988C183.592 22.2899 183.553 22.4136 183.527 22.5699C183.41 23.1168 183.273 23.5595 183.117 23.898C183 24.1324 182.889 24.3277 182.785 24.484C182.681 24.6272 182.551 24.7704 182.395 24.9136C182.225 25.109 182.03 25.2066 181.809 25.2066ZM181.945 32.023C181.32 32.023 180.799 31.8668 180.383 31.5543C179.953 31.2027 179.738 30.7926 179.738 30.3238C179.738 29.9592 179.875 29.6402 180.148 29.3668C180.5 29.0673 180.943 28.9176 181.477 28.9176C181.503 28.9176 181.522 28.8915 181.535 28.8394C181.561 28.7743 181.574 28.6897 181.574 28.5855L181.594 28.0777C181.503 28.0907 181.327 28.1103 181.066 28.1363C180.819 28.1623 180.637 28.1884 180.52 28.2144C180.585 28.2014 180.383 28.247 179.914 28.3511C179.875 28.3642 179.803 28.3707 179.699 28.3707C179.452 28.3707 179.243 28.26 179.074 28.0386C178.996 27.9605 178.957 27.8954 178.957 27.8433C178.957 27.7652 179.074 27.7261 179.309 27.7261L179.914 27.6871L181.574 27.4722V27.2379V26.7496C181.561 26.6975 181.555 26.6389 181.555 26.5738C181.555 26.5087 181.548 26.4566 181.535 26.4176C181.509 26.3134 181.496 26.2483 181.496 26.2222C181.496 26.1311 181.542 26.0855 181.633 26.0855C181.75 26.0855 181.952 26.1702 182.238 26.3394C182.329 26.3915 182.375 26.4631 182.375 26.5543C182.375 26.6194 182.362 26.678 182.336 26.7301C182.323 26.7691 182.316 26.8147 182.316 26.8668V27.4136L182.902 27.3551L183.625 27.2769C183.69 27.2639 183.762 27.2444 183.84 27.2183C183.931 27.1923 184.003 27.1793 184.055 27.1793C184.133 27.1793 184.23 27.2183 184.348 27.2965C184.569 27.4397 184.68 27.5634 184.68 27.6676C184.68 27.7717 184.569 27.8238 184.348 27.8238C184.283 27.8238 184.191 27.8368 184.074 27.8629C183.957 27.8759 183.807 27.8889 183.625 27.9019L182.316 27.9996L182.297 29.191C182.271 29.3863 182.128 29.51 181.867 29.5621H181.828C181.75 29.5621 181.672 29.5556 181.594 29.5426C181.529 29.5165 181.477 29.5035 181.438 29.5035C181.333 29.5035 181.229 29.51 181.125 29.523C181.021 29.536 180.93 29.5751 180.852 29.6402C180.63 29.8355 180.52 30.0634 180.52 30.3238C180.52 30.5842 180.643 30.8186 180.891 31.0269C181.112 31.2353 181.464 31.3394 181.945 31.3394C182.583 31.3134 183.104 31.1376 183.508 30.8121C183.677 30.6949 183.807 30.6363 183.898 30.6363C183.951 30.6363 184.016 30.6493 184.094 30.6754C184.107 30.6884 184.133 30.7144 184.172 30.7535C184.211 30.7926 184.23 30.8316 184.23 30.8707C184.23 31.2353 183.924 31.5347 183.312 31.7691C182.857 31.9384 182.401 32.023 181.945 32.023ZM185.344 24.6207C185.409 24.6207 185.507 24.6662 185.637 24.7574C185.624 24.7834 185.65 24.8355 185.715 24.9136C185.78 24.9787 185.826 25.0243 185.852 25.0504C185.917 25.1155 185.982 25.1936 186.047 25.2847C186.125 25.3759 186.21 25.4735 186.301 25.5777C186.535 25.8251 187.076 26.4696 187.922 27.5113C188.065 27.7196 188.137 27.8433 188.137 27.8824C188.137 28.0126 188.059 28.0777 187.902 28.0777C187.811 28.0777 187.714 28.0126 187.609 27.8824C187.362 27.622 186.919 27.2118 186.281 26.6519C185.786 26.1962 185.337 25.8446 184.934 25.5972C184.738 25.5061 184.641 25.4019 184.641 25.2847C184.641 25.1936 184.738 25.0634 184.934 24.8941C185.116 24.7118 185.253 24.6207 185.344 24.6207ZM171.926 34.4644C171.457 34.4644 171.223 34.2366 171.223 33.7808V29.0738C170.155 30.8446 168.938 32.2379 167.57 33.2535C167.375 33.3837 167.206 33.4358 167.062 33.4097C166.919 33.3967 166.77 33.2991 166.613 33.1168C166.418 32.8954 166.333 32.7066 166.359 32.5504C166.385 32.3941 166.529 32.2379 166.789 32.0816C167.505 31.5868 168.195 30.9748 168.859 30.2457C169.523 29.5165 170.083 28.7548 170.539 27.9605H167.355C166.926 27.9605 166.711 27.7392 166.711 27.2965C166.711 26.8668 166.926 26.6519 167.355 26.6519H171.223V25.0308H168.566C168.228 25.0308 167.954 24.9267 167.746 24.7183C167.538 24.51 167.434 24.2366 167.434 23.898V18.6051C167.434 18.2665 167.538 17.9931 167.746 17.7847C167.954 17.5764 168.228 17.4722 168.566 17.4722H171.965H175.363C175.702 17.4722 175.975 17.5764 176.184 17.7847C176.392 17.9931 176.496 18.2665 176.496 18.6051V23.898C176.496 24.2366 176.392 24.51 176.184 24.7183C175.975 24.9267 175.702 25.0308 175.363 25.0308H172.609V26.6519H176.438C176.867 26.6519 177.082 26.8668 177.082 27.2965C177.082 27.7392 176.867 27.9605 176.438 27.9605H173.332C173.775 28.6897 174.315 29.4123 174.953 30.1285C175.591 30.8316 176.236 31.4306 176.887 31.9254C177.134 32.0946 177.264 32.2574 177.277 32.4136C177.29 32.5569 177.199 32.7392 177.004 32.9605C176.835 33.1428 176.678 33.2405 176.535 33.2535C176.405 33.2795 176.242 33.2144 176.047 33.0582C174.732 31.9644 173.586 30.5972 172.609 28.9566V33.7808C172.609 34.2366 172.382 34.4644 171.926 34.4644ZM161.613 33.3707C161.275 33.3707 161.001 33.2665 160.793 33.0582C160.585 32.8498 160.48 32.5764 160.48 32.2379V28.859C160.48 28.5204 160.585 28.247 160.793 28.0386C161.001 27.8303 161.275 27.7261 161.613 27.7261H163.215H164.836C165.174 27.7261 165.448 27.8303 165.656 28.0386C165.865 28.247 165.969 28.5204 165.969 28.859V32.2379C165.969 32.5764 165.865 32.8498 165.656 33.0582C165.448 33.2665 165.174 33.3707 164.836 33.3707H161.613ZM162.121 32.1988H163.215H164.328C164.602 32.1988 164.738 32.0621 164.738 31.7886V29.3277C164.738 29.0543 164.602 28.9176 164.328 28.9176H162.121C161.848 28.9176 161.711 29.0543 161.711 29.3277V31.7886C161.711 32.0621 161.848 32.1988 162.121 32.1988ZM161.086 26.2808C160.695 26.2808 160.5 26.0855 160.5 25.6949C160.5 25.3043 160.695 25.109 161.086 25.109H165.363C165.754 25.109 165.949 25.3043 165.949 25.6949C165.949 26.0855 165.754 26.2808 165.363 26.2808H163.215H161.086ZM169.133 23.8394H171.281V21.8277H169.992H168.723V23.4293C168.723 23.7027 168.859 23.8394 169.133 23.8394ZM172.531 23.8394H173.84H174.758C175.031 23.8394 175.168 23.7027 175.168 23.4293V21.8277H172.531V23.8394ZM161.066 23.6832C160.689 23.6832 160.5 23.4879 160.5 23.0972C160.5 22.7196 160.689 22.5308 161.066 22.5308H163.215H165.383C165.76 22.5308 165.949 22.7196 165.949 23.0972C165.949 23.4879 165.76 23.6832 165.383 23.6832H161.066ZM160.246 21.0855C159.855 21.0855 159.66 20.8837 159.66 20.4801C159.66 20.0894 159.855 19.8941 160.246 19.8941H163.059H165.871C166.262 19.8941 166.457 20.0894 166.457 20.4801C166.457 20.8837 166.262 21.0855 165.871 21.0855H160.246ZM168.723 20.6558H171.281V18.6636H169.992H169.133C168.859 18.6636 168.723 18.8004 168.723 19.0738V20.6558ZM172.531 20.6558H173.84H175.168V19.0738C175.168 18.8004 175.031 18.6636 174.758 18.6636H172.531V20.6558ZM161.184 18.5074C160.793 18.5074 160.598 18.3121 160.598 17.9215C160.598 17.5308 160.793 17.3355 161.184 17.3355H163.234H165.305C165.695 17.3355 165.891 17.5308 165.891 17.9215C165.891 18.3121 165.695 18.5074 165.305 18.5074H161.184Z" fill="#333333"/>
</svg>
