<svg width="200" height="50" viewBox="0 0 200 50" fill="none" xmlns="http://www.w3.org/2000/svg">
<path d="M40.1855 22.5699C40.1074 22.5699 40.0033 22.4853 39.873 22.316C39.7428 22.1337 39.6842 21.9774 39.6973 21.8472C39.7233 21.7431 39.7428 21.4501 39.7559 20.9683C39.7689 20.6428 39.7754 20.0699 39.7754 19.2496C39.7754 18.6767 39.7689 18.2926 39.7559 18.0972L39.1113 18.1558C38.6556 18.2209 38.265 18.2535 37.9395 18.2535C37.8483 18.2535 37.7181 18.1819 37.5488 18.0386C37.3796 17.8954 37.2949 17.7912 37.2949 17.7261C37.2949 17.622 37.4056 17.5829 37.627 17.609C37.7702 17.622 38.1934 17.6155 38.8965 17.5894C39.86 17.5243 40.5566 17.4853 40.9863 17.4722C41.2077 17.4592 41.4095 17.4397 41.5918 17.4136C41.7871 17.3746 41.9238 17.3485 42.002 17.3355C42.1191 17.3225 42.2233 17.3355 42.3145 17.3746C42.4056 17.4136 42.4902 17.4657 42.5684 17.5308C42.6595 17.5829 42.7311 17.622 42.7832 17.648C42.9004 17.7261 42.959 17.7978 42.959 17.8629C42.959 17.9149 42.9264 17.967 42.8613 18.0191C42.8092 18.0582 42.7507 18.0777 42.6855 18.0777C42.6204 18.0777 42.5293 18.0712 42.4121 18.0582C42.3079 18.0452 42.1908 18.0386 42.0605 18.0386C41.5788 18.0386 41.084 18.0517 40.5762 18.0777C40.5632 18.1819 40.5566 18.4423 40.5566 18.859C40.5306 19.5621 40.5176 20.2522 40.5176 20.9293V21.691V21.8668C40.5176 22.0881 40.498 22.2314 40.459 22.2965C40.3418 22.4787 40.2507 22.5699 40.1855 22.5699ZM38.0957 26.0269C37.9525 26.0269 37.7767 25.9162 37.5684 25.6949C37.4121 25.5386 37.334 25.4215 37.334 25.3433C37.334 25.3043 37.36 25.2847 37.4121 25.2847C37.4642 25.2717 37.5293 25.2652 37.6074 25.2652L38.0371 25.2457C38.2845 25.2457 38.4473 25.2392 38.5254 25.2261C38.7728 25.2261 38.9811 25.2196 39.1504 25.2066C40.2702 25.1024 41.0254 25.0178 41.416 24.9527C41.6113 24.9267 41.7871 24.9006 41.9434 24.8746C42.0996 24.8355 42.2233 24.816 42.3145 24.816C42.4967 24.816 42.679 24.9071 42.8613 25.0894C43.0046 25.2327 43.0762 25.3498 43.0762 25.441C43.0762 25.5191 43.0306 25.5712 42.9395 25.5972C42.8743 25.6103 42.4902 25.6363 41.7871 25.6754C41.3965 25.6884 40.9147 25.7209 40.3418 25.773C39.7689 25.8251 39.2676 25.8772 38.8379 25.9293C38.7598 25.9423 38.6491 25.9618 38.5059 25.9879C38.3626 26.0139 38.2259 26.0269 38.0957 26.0269ZM40.3223 34.191C40.2311 34.191 40.166 34.1649 40.127 34.1129C40.0879 34.0608 40.0618 34.0282 40.0488 34.0152C39.9186 33.8329 39.86 33.6571 39.873 33.4879C39.8861 33.3837 39.9056 33.1037 39.9316 32.648L39.9512 31.7105C39.9382 31.5673 39.9251 31.4827 39.9121 31.4566C39.8991 31.4176 39.8405 31.3394 39.7363 31.2222C39.528 30.9618 39.2871 30.6949 39.0137 30.4215C38.7012 30.109 38.4993 29.9006 38.4082 29.7965C38.4082 29.7965 38.2129 29.6011 37.8223 29.2105C37.7832 29.1715 37.7637 29.1324 37.7637 29.0933C37.7637 29.0282 37.8027 28.9761 37.8809 28.9371C37.972 28.885 38.0632 28.8655 38.1543 28.8785C38.4147 28.9045 38.584 28.9371 38.6621 28.9761C38.7533 29.0022 38.8379 29.0803 38.916 29.2105C38.9941 29.3407 39.1048 29.497 39.248 29.6793C39.4043 29.8485 39.5215 29.9787 39.5996 30.0699C39.9251 30.4605 40.153 30.7209 40.2832 30.8511C40.5176 30.5777 40.8105 30.1871 41.1621 29.6793C41.4486 29.3147 41.6178 29.0152 41.6699 28.7808C41.722 28.6116 41.8001 28.5269 41.9043 28.5269C41.9564 28.5269 42.0345 28.5595 42.1387 28.6246C42.4772 28.8329 42.6465 29.0022 42.6465 29.1324C42.6465 29.2105 42.5618 29.3082 42.3926 29.4254C42.1582 29.5946 41.9629 29.7834 41.8066 29.9918L41.416 30.4801C41.1556 30.7926 40.9603 31.0399 40.8301 31.2222C40.765 31.3394 40.7324 31.5087 40.7324 31.7301V32.9215V33.7027C40.7454 33.7939 40.6934 33.898 40.5762 34.0152C40.472 34.1324 40.3874 34.191 40.3223 34.191ZM43.7793 26.7691C43.8444 26.7691 43.9421 26.8147 44.0723 26.9058C44.0592 26.9319 44.0853 26.984 44.1504 27.0621C44.2155 27.1272 44.2611 27.1728 44.2871 27.1988C44.3522 27.2639 44.4173 27.342 44.4824 27.4332C44.5605 27.5243 44.6452 27.622 44.7363 27.7261C44.9707 27.9735 45.5111 28.6181 46.3574 29.6597C46.5007 29.8681 46.5723 29.9918 46.5723 30.0308C46.5723 30.161 46.4941 30.2261 46.3379 30.2261C46.2467 30.2261 46.1491 30.161 46.0449 30.0308C45.7975 29.7704 45.3548 29.3603 44.7168 28.8004C44.222 28.3446 43.7728 27.9931 43.3691 27.7457C43.1738 27.6545 43.0762 27.5504 43.0762 27.4332C43.0762 27.342 43.1738 27.2118 43.3691 27.0426C43.5514 26.8603 43.6882 26.7691 43.7793 26.7691ZM26.5723 34.4644C26.0645 34.4644 25.8105 34.2105 25.8105 33.7027V19.5426H19.1309C18.6491 19.5426 18.4082 19.3017 18.4082 18.8199C18.4082 18.3381 18.6491 18.0972 19.1309 18.0972H26.9434H34.7754C35.2572 18.0972 35.498 18.3381 35.498 18.8199C35.498 19.3017 35.2572 19.5426 34.7754 19.5426H27.334V23.0191L27.4902 22.8238C27.5553 22.7587 27.627 22.7457 27.7051 22.7847C30.166 23.9957 32.2363 25.2001 33.916 26.398C34.1243 26.5412 34.2285 26.6975 34.2285 26.8668C34.2285 26.997 34.1374 27.1858 33.9551 27.4332C33.7728 27.6676 33.6165 27.8043 33.4863 27.8433C33.3301 27.8954 33.1478 27.8433 32.9395 27.6871C31.5462 26.6194 29.6777 25.454 27.334 24.191V33.7027C27.334 34.2105 27.0801 34.4644 26.5723 34.4644Z" fill="#333333"/>
<path d="M72.8223 20.6363C72.9915 20.7795 73.0762 20.8837 73.0762 20.9488C73.0762 21.066 72.9134 21.1181 72.5879 21.1051H72.1777C71.8132 21.1051 71.0384 21.1506 69.8535 21.2418C69.8275 21.411 69.7949 21.5868 69.7559 21.7691C69.7168 21.9384 69.6908 22.0686 69.6777 22.1597V22.316C69.6777 22.329 69.6777 22.342 69.6777 22.3551C69.6777 22.3681 69.6777 22.3811 69.6777 22.3941C69.7428 22.3941 69.7884 22.3876 69.8145 22.3746C69.8796 22.3616 70.0293 22.342 70.2637 22.316C70.5111 22.2769 70.7585 22.2379 71.0059 22.1988C71.084 22.1858 71.1621 22.1662 71.2402 22.1402C71.3184 22.1011 71.3835 22.0816 71.4355 22.0816C71.5788 22.0816 71.7546 22.1728 71.9629 22.3551C72.1061 22.4722 72.1777 22.5634 72.1777 22.6285C72.1777 22.7717 72.0931 22.9866 71.9238 23.273C71.6504 23.7548 71.3574 24.1519 71.0449 24.4644C70.6673 24.842 70.2767 25.0894 69.873 25.2066C69.821 25.2196 69.7624 25.2261 69.6973 25.2261C69.6452 25.2261 69.6191 25.2131 69.6191 25.1871C69.6191 25.148 69.7103 25.0439 69.8926 24.8746C70.3743 24.4579 70.778 23.9696 71.1035 23.4097C71.2858 23.0842 71.377 22.8889 71.377 22.8238C71.377 22.7717 71.3444 22.7457 71.2793 22.7457C71.2272 22.7457 71.1947 22.7457 71.1816 22.7457L70.6738 22.8043C70.166 22.8824 69.847 22.941 69.7168 22.9801C69.5605 23.0582 69.4368 23.0972 69.3457 23.0972C69.2546 23.0972 69.1374 23.0256 68.9941 22.8824C68.9811 22.8694 68.9486 22.8433 68.8965 22.8043C68.8574 22.7652 68.8379 22.7066 68.8379 22.6285C68.8379 22.5894 68.8639 22.5308 68.916 22.4527C68.9681 22.3485 69.0072 22.2183 69.0332 22.0621C69.0592 21.9058 69.0723 21.8082 69.0723 21.7691L69.1504 21.3199C68.929 21.3459 68.5775 21.4045 68.0957 21.4957C67.9655 21.5217 67.8743 21.5347 67.8223 21.5347C67.7311 21.5347 67.627 21.4957 67.5098 21.4176C67.2624 21.2483 67.1387 21.1376 67.1387 21.0855C67.1387 20.9944 67.2559 20.9423 67.4902 20.9293L68.1738 20.8707L69.2676 20.7535C69.3327 20.2327 69.3652 19.9136 69.3652 19.7965L69.3848 19.3863C69.4108 19.1649 69.4629 19.0543 69.541 19.0543C69.6061 19.0543 69.6842 19.0803 69.7754 19.1324C69.9447 19.2235 70.0684 19.3212 70.1465 19.4254C70.2376 19.5165 70.2702 19.5946 70.2441 19.6597L70.1074 20.0699C70.0684 20.148 70.0163 20.3498 69.9512 20.6754L71.6504 20.5191C71.7936 20.5061 71.9629 20.467 72.1582 20.4019L72.3145 20.3824C72.4447 20.3824 72.5553 20.4215 72.6465 20.4996C72.7376 20.5647 72.7962 20.6103 72.8223 20.6363ZM70.3809 32.023C69.7559 32.023 69.235 31.8668 68.8184 31.5543C68.3887 31.2027 68.1738 30.7926 68.1738 30.3238C68.1738 29.9592 68.3105 29.6402 68.584 29.3668C68.9355 29.0673 69.3783 28.9176 69.9121 28.9176C69.9382 28.9176 69.9577 28.8915 69.9707 28.8394C69.9967 28.7743 70.0098 28.6897 70.0098 28.5855L70.0293 28.0777C69.9382 28.0907 69.7624 28.1103 69.502 28.1363C69.2546 28.1623 69.0723 28.1884 68.9551 28.2144C69.0202 28.2014 68.8184 28.247 68.3496 28.3511C68.3105 28.3642 68.2389 28.3707 68.1348 28.3707C67.8874 28.3707 67.679 28.26 67.5098 28.0386C67.4316 27.9605 67.3926 27.8954 67.3926 27.8433C67.3926 27.7652 67.5098 27.7261 67.7441 27.7261L68.3496 27.6871L70.0098 27.4722V27.2379V26.7496C69.9967 26.6975 69.9902 26.6389 69.9902 26.5738C69.9902 26.5087 69.9837 26.4566 69.9707 26.4176C69.9447 26.3134 69.9316 26.2483 69.9316 26.2222C69.9316 26.1311 69.9772 26.0855 70.0684 26.0855C70.1855 26.0855 70.3874 26.1702 70.6738 26.3394C70.765 26.3915 70.8105 26.4631 70.8105 26.5543C70.8105 26.6194 70.7975 26.678 70.7715 26.7301C70.7585 26.7691 70.752 26.8147 70.752 26.8668V27.4136L71.3379 27.3551L72.0605 27.2769C72.1257 27.2639 72.1973 27.2444 72.2754 27.2183C72.3665 27.1923 72.4382 27.1793 72.4902 27.1793C72.5684 27.1793 72.666 27.2183 72.7832 27.2965C73.0046 27.4397 73.1152 27.5634 73.1152 27.6676C73.1152 27.7717 73.0046 27.8238 72.7832 27.8238C72.7181 27.8238 72.627 27.8368 72.5098 27.8629C72.3926 27.8759 72.2428 27.8889 72.0605 27.9019L70.752 27.9996L70.7324 29.191C70.7064 29.3863 70.5632 29.51 70.3027 29.5621H70.2637C70.1855 29.5621 70.1074 29.5556 70.0293 29.5426C69.9642 29.5165 69.9121 29.5035 69.873 29.5035C69.7689 29.5035 69.6647 29.51 69.5605 29.523C69.4564 29.536 69.3652 29.5751 69.2871 29.6402C69.0658 29.8355 68.9551 30.0634 68.9551 30.3238C68.9551 30.5842 69.0788 30.8186 69.3262 31.0269C69.5475 31.2353 69.8991 31.3394 70.3809 31.3394C71.0189 31.3134 71.5397 31.1376 71.9434 30.8121C72.1126 30.6949 72.2428 30.6363 72.334 30.6363C72.3861 30.6363 72.4512 30.6493 72.5293 30.6754C72.5423 30.6884 72.5684 30.7144 72.6074 30.7535C72.6465 30.7926 72.666 30.8316 72.666 30.8707C72.666 31.2353 72.36 31.5347 71.748 31.7691C71.2923 31.9384 70.8366 32.023 70.3809 32.023ZM73.7793 24.6207C73.8444 24.6207 73.9421 24.6662 74.0723 24.7574C74.0592 24.7834 74.0853 24.8355 74.1504 24.9136C74.2155 24.9787 74.2611 25.0243 74.2871 25.0504C74.3522 25.1155 74.4173 25.1936 74.4824 25.2847C74.5605 25.3759 74.6452 25.4735 74.7363 25.5777C74.9707 25.8251 75.5111 26.4696 76.3574 27.5113C76.5007 27.7196 76.5723 27.8433 76.5723 27.8824C76.5723 28.0126 76.4941 28.0777 76.3379 28.0777C76.2467 28.0777 76.1491 28.0126 76.0449 27.8824C75.7975 27.622 75.3548 27.2118 74.7168 26.6519C74.222 26.1962 73.7728 25.8446 73.3691 25.5972C73.1738 25.5061 73.0762 25.4019 73.0762 25.2847C73.0762 25.1936 73.1738 25.0634 73.3691 24.8941C73.5514 24.7118 73.6882 24.6207 73.7793 24.6207ZM50.7129 34.5426C50.2441 34.5426 50.0098 34.3082 50.0098 33.8394V26.2808H48.8379C48.3691 26.2808 48.1348 26.0465 48.1348 25.5777C48.1348 25.109 48.3691 24.8746 48.8379 24.8746H50.0098V19.0152C50.0098 18.6767 50.1139 18.4032 50.3223 18.1949C50.5306 17.9866 50.804 17.8824 51.1426 17.8824H57.041H62.9395C63.278 17.8824 63.5514 17.9866 63.7598 18.1949C63.9681 18.4032 64.0723 18.6767 64.0723 19.0152V24.8746H65.1074C65.5762 24.8746 65.8105 25.109 65.8105 25.5777C65.8105 26.0465 65.5762 26.2808 65.1074 26.2808H64.0723V32.7652C64.0723 33.1558 64.0332 33.4618 63.9551 33.6832C63.8509 33.9176 63.6816 34.0998 63.4473 34.2301C63.2259 34.3603 62.7376 34.4449 61.9824 34.484C61.3835 34.484 61.0254 34.2952 60.9082 33.9176C60.7129 33.3446 61.0319 33.0712 61.8652 33.0972C62.0345 33.0972 62.2038 33.0972 62.373 33.0972C62.5814 33.0972 62.6855 32.9801 62.6855 32.7457V26.2808H59.7559V33.5855C59.7559 34.0412 59.528 34.2691 59.0723 34.2691C58.6165 34.2691 58.3887 34.0412 58.3887 33.5855V26.2808H55.5176V33.6051C55.5176 34.0478 55.2962 34.2691 54.8535 34.2691C54.3978 34.2691 54.1699 34.0478 54.1699 33.6051V26.2808H51.416V33.8394C51.416 34.3082 51.1816 34.5426 50.7129 34.5426ZM51.416 24.8746H54.1699V19.2886H52.7832H51.8262C51.5527 19.2886 51.416 19.4254 51.416 19.6988V24.8746ZM55.5176 24.8746H58.3887V19.2886H56.9434H55.5176V24.8746ZM59.7559 24.8746H62.6855V19.6988C62.6855 19.4254 62.5488 19.2886 62.2754 19.2886H61.2207H59.7559V24.8746Z" fill="#333333"/>
<path d="M104.893 25.2847C104.684 25.2847 104.561 25.1806 104.521 24.9722C104.443 24.7509 104.235 24.4774 103.896 24.1519L103.955 24.0738C104.007 24.0998 104.157 24.1649 104.404 24.2691C104.652 24.3603 104.821 24.4058 104.912 24.4058C104.99 24.4058 105.049 24.4058 105.088 24.4058C105.127 24.3928 105.173 24.3603 105.225 24.3082C105.381 24.191 105.576 23.9241 105.811 23.5074C105.98 23.1689 106.13 22.7717 106.26 22.316C106.403 21.8603 106.475 21.5152 106.475 21.2808C106.475 21.2157 106.423 21.1832 106.318 21.1832L105.576 21.2222L105.068 21.2613L104.736 21.2808L104.6 21.3004C104.691 21.3655 104.749 21.4241 104.775 21.4761C104.814 21.5152 104.834 21.5673 104.834 21.6324C104.834 21.6975 104.756 21.8798 104.6 22.1793C104.469 22.4657 104.261 22.7912 103.975 23.1558C103.74 23.4683 103.421 23.8069 103.018 24.1715C102.627 24.523 102.334 24.7053 102.139 24.7183C102.1 24.7183 102.061 24.7118 102.021 24.6988C101.995 24.6728 101.982 24.6402 101.982 24.6011C101.982 24.5881 102.087 24.4644 102.295 24.2301L102.842 23.5855C103.232 23.0647 103.63 22.4006 104.033 21.5933C104.072 21.4892 104.053 21.4306 103.975 21.4176C103.896 21.4306 103.734 21.4501 103.486 21.4761C103.239 21.4892 103.018 21.5282 102.822 21.5933C102.809 21.5933 102.764 21.6129 102.686 21.6519C102.607 21.678 102.542 21.691 102.49 21.691C102.412 21.691 102.347 21.6649 102.295 21.6129L102.139 21.4761C102.021 21.385 101.963 21.3004 101.963 21.2222C101.963 21.1962 101.976 21.1571 102.002 21.1051L102.1 20.9488C102.152 20.8837 102.236 20.7795 102.354 20.6363C102.471 20.4931 102.601 20.2978 102.744 20.0504C102.77 19.9983 102.822 19.8811 102.9 19.6988C102.992 19.5165 103.037 19.4058 103.037 19.3668V19.2886C103.037 19.2105 103.05 19.1584 103.076 19.1324C103.102 19.1064 103.161 19.1064 103.252 19.1324C103.343 19.1584 103.454 19.2301 103.584 19.3472L103.799 19.5621C103.838 19.6011 103.857 19.6467 103.857 19.6988C103.857 19.829 103.675 20.0634 103.311 20.4019C103.245 20.467 103.167 20.5647 103.076 20.6949C102.985 20.8251 102.939 20.9097 102.939 20.9488C102.939 21.0269 102.998 21.053 103.115 21.0269L103.564 20.9683C104.593 20.8121 105.368 20.7209 105.889 20.6949L106.416 20.6168L106.592 20.5777L106.689 20.5582C106.794 20.5582 106.865 20.5712 106.904 20.5972C106.943 20.6233 106.982 20.6689 107.021 20.734C107.061 20.786 107.1 20.8316 107.139 20.8707C107.23 20.9748 107.295 21.066 107.334 21.1441L107.373 21.3199L107.334 21.398L107.295 21.5152C107.269 21.5803 107.249 21.6454 107.236 21.7105C107.223 21.7626 107.204 21.8212 107.178 21.8863C106.904 22.941 106.585 23.7613 106.221 24.3472C106.104 24.5556 105.902 24.7639 105.615 24.9722C105.342 25.1806 105.101 25.2847 104.893 25.2847ZM102.471 29.5426C102.327 29.5426 102.152 29.4319 101.943 29.2105C101.787 29.0543 101.709 28.9371 101.709 28.859C101.709 28.8199 101.735 28.8004 101.787 28.8004C101.839 28.7873 101.904 28.7808 101.982 28.7808L102.412 28.7613C102.66 28.7613 102.822 28.7548 102.9 28.7418C103.148 28.7418 103.356 28.7353 103.525 28.7222C104.645 28.6181 105.4 28.5334 105.791 28.4683C105.986 28.4423 106.162 28.4162 106.318 28.3902C106.475 28.3511 106.598 28.3316 106.689 28.3316C106.872 28.3316 107.054 28.4228 107.236 28.6051C107.38 28.7483 107.451 28.8655 107.451 28.9566C107.451 29.0347 107.406 29.0868 107.314 29.1129C107.249 29.1259 106.865 29.1519 106.162 29.191C105.771 29.204 105.29 29.2366 104.717 29.2886C104.144 29.3407 103.643 29.3928 103.213 29.4449C103.135 29.4579 103.024 29.4774 102.881 29.5035C102.738 29.5295 102.601 29.5426 102.471 29.5426ZM108.154 24.6207C108.219 24.6207 108.317 24.6662 108.447 24.7574C108.434 24.7834 108.46 24.8355 108.525 24.9136C108.59 24.9787 108.636 25.0243 108.662 25.0504C108.727 25.1155 108.792 25.1936 108.857 25.2847C108.936 25.3759 109.02 25.4735 109.111 25.5777C109.346 25.8251 109.886 26.4696 110.732 27.5113C110.876 27.7196 110.947 27.8433 110.947 27.8824C110.947 28.0126 110.869 28.0777 110.713 28.0777C110.622 28.0777 110.524 28.0126 110.42 27.8824C110.173 27.622 109.73 27.2118 109.092 26.6519C108.597 26.1962 108.148 25.8446 107.744 25.5972C107.549 25.5061 107.451 25.4019 107.451 25.2847C107.451 25.1936 107.549 25.0634 107.744 24.8941C107.926 24.7118 108.063 24.6207 108.154 24.6207ZM91.3184 34.484C90.8496 34.484 90.6152 34.2496 90.6152 33.7808V29.8941C89.7819 30.7405 88.7663 31.5282 87.5684 32.2574C86.4225 32.9605 85.2441 33.5334 84.0332 33.9761C83.6556 34.1064 83.3496 34.0217 83.1152 33.7222C82.7507 33.2405 82.8678 32.9149 83.4668 32.7457C85.8105 31.9254 87.7702 30.8251 89.3457 29.4449H85.5371C85.5371 29.4709 85.5306 29.484 85.5176 29.484C85.4004 29.8876 85.1335 30.0634 84.7168 30.0113C84.196 29.9332 84.0072 29.6793 84.1504 29.2496C84.4238 28.3121 84.6908 27.2704 84.9512 26.1246C85.0163 25.8381 85.153 25.6103 85.3613 25.441C85.5827 25.2587 85.8431 25.1676 86.1426 25.1676H90.6152V23.1949H84.8145C84.4108 23.1949 84.209 22.9866 84.209 22.5699C84.209 22.1662 84.4108 21.9644 84.8145 21.9644H91.2207H97.0996C97.4382 21.9644 97.7116 22.0686 97.9199 22.2769C98.1283 22.4853 98.2324 22.7587 98.2324 23.0972V25.2652C98.2324 25.6037 98.1283 25.8772 97.9199 26.0855C97.7116 26.2939 97.4382 26.398 97.0996 26.398H92.0215V28.1949H98.1934C98.9746 28.1949 99.2936 28.8459 99.1504 30.148C98.9421 31.7886 98.6556 32.7912 98.291 33.1558C98.0176 33.4553 97.6139 33.6116 97.0801 33.6246C96.5592 33.6506 96.0319 33.6571 95.498 33.6441C94.9251 33.6311 94.5996 33.3837 94.5215 32.9019V32.8824L94.502 32.8629C94.3327 32.4853 94.515 32.316 95.0488 32.3551C95.4655 32.3681 95.9342 32.3746 96.4551 32.3746C96.8066 32.3746 97.0345 32.329 97.1387 32.2379C97.3861 31.9905 97.5879 31.2873 97.7441 30.1285C97.7702 29.8681 97.7572 29.6923 97.7051 29.6011C97.653 29.497 97.5553 29.4449 97.4121 29.4449H92.0215V33.7808C92.0215 34.2496 91.7871 34.484 91.3184 34.484ZM85.8691 28.1949H88.2324H90.6152V26.398H86.2988C86.2467 26.6324 86.1621 26.9774 86.0449 27.4332C85.9668 27.7717 85.9082 28.0256 85.8691 28.1949ZM92.0215 25.1676H96.416C96.6895 25.1676 96.8262 25.0308 96.8262 24.7574V23.6051C96.8262 23.3316 96.6895 23.1949 96.416 23.1949H94.4238H92.0215V25.1676ZM83.9355 21.4761C83.6491 21.7756 83.3431 21.8147 83.0176 21.5933C82.7832 21.4371 82.653 21.2808 82.627 21.1246C82.6139 20.9683 82.7116 20.786 82.9199 20.5777C83.7663 19.6142 84.4629 18.4814 85.0098 17.1793C85.166 16.7756 85.459 16.6324 85.8887 16.7496C86.3574 16.8668 86.5072 17.1467 86.3379 17.5894C86.2467 17.8368 86.1296 18.0907 85.9863 18.3511H88.5059H90.459C90.8496 18.3511 91.0449 18.5465 91.0449 18.9371C91.0449 19.3277 90.8496 19.523 90.459 19.523H87.5098C87.7441 19.9787 87.9264 20.4019 88.0566 20.7926C88.1608 21.1311 88.0241 21.3785 87.6465 21.5347C87.4121 21.6259 87.2298 21.6519 87.0996 21.6129C86.9564 21.5608 86.8522 21.4241 86.7871 21.2027C86.6048 20.6428 86.377 20.0829 86.1035 19.523H85.3418C84.86 20.2912 84.3913 20.9423 83.9355 21.4761ZM96.2012 21.5933C95.7845 21.7756 95.498 21.6845 95.3418 21.3199C95.0163 20.6819 94.6387 20.0829 94.209 19.523H92.8223C92.3535 20.2261 91.8392 20.8577 91.2793 21.4176C90.9798 21.704 90.6673 21.7301 90.3418 21.4957C89.8991 21.1702 89.8926 20.8186 90.3223 20.441C91.2858 19.5035 92.028 18.4228 92.5488 17.1988C92.7311 16.7691 93.0306 16.6129 93.4473 16.7301C93.9421 16.8472 94.0918 17.1467 93.8965 17.6285C93.8835 17.6676 93.8574 17.7261 93.8184 17.8043C93.6882 18.0517 93.5905 18.234 93.5254 18.3511H96.7676H99.4434C99.834 18.3511 100.029 18.5465 100.029 18.9371C100.029 19.3277 99.834 19.523 99.4434 19.523H95.7324C96.0579 19.9657 96.3379 20.3954 96.5723 20.8121C96.6634 21.0074 96.6764 21.1636 96.6113 21.2808C96.5592 21.398 96.4225 21.5022 96.2012 21.5933Z" fill="#333333"/>
<path d="M122.119 32.9996C121.533 32.9996 121.24 32.7066 121.24 32.1207V20.6754L118.936 22.2379C118.532 22.5113 118.193 22.4527 117.92 22.0621C117.646 21.6584 117.712 21.3199 118.115 21.0465L121.24 18.9566C121.54 18.7743 121.839 18.6832 122.139 18.6832H122.393C122.796 18.6832 122.998 18.885 122.998 19.2886V25.8511V32.1207C122.998 32.7066 122.705 32.9996 122.119 32.9996Z" fill="#333333"/>
<path d="M134.111 27.3941C133.499 27.3941 132.79 27.0816 131.982 26.4566C131.93 26.4176 131.852 26.359 131.748 26.2808C131.423 26.0334 131.175 25.8642 131.006 25.773C130.732 25.6168 130.472 25.5386 130.225 25.5386C129.782 25.5386 129.378 25.747 129.014 26.1636C128.883 26.359 128.734 26.4892 128.564 26.5543C128.369 26.6324 128.187 26.6129 128.018 26.4957C127.874 26.3915 127.803 26.2418 127.803 26.0465C127.803 25.8772 127.861 25.7079 127.979 25.5386C128.656 24.6532 129.424 24.2105 130.283 24.2105C130.687 24.2105 131.097 24.3212 131.514 24.5426C131.761 24.6728 132.1 24.9071 132.529 25.2457C132.894 25.5191 133.161 25.7014 133.33 25.7926C133.63 25.9618 133.903 26.0465 134.15 26.0465C134.593 26.0465 134.984 25.8511 135.322 25.4605C135.465 25.2652 135.622 25.1285 135.791 25.0504C135.999 24.9722 136.188 24.9918 136.357 25.109C136.501 25.2261 136.572 25.3759 136.572 25.5582C136.572 25.7274 136.507 25.9032 136.377 26.0855C135.713 26.9579 134.958 27.3941 134.111 27.3941Z" fill="#333333"/>
<path d="M143.486 33.2535C142.054 33.2535 140.915 32.661 140.068 31.4761C139.157 30.2261 138.701 28.4553 138.701 26.1636C138.701 23.5204 139.235 21.5282 140.303 20.1871C141.227 19.0022 142.458 18.4097 143.994 18.4097C145.075 18.4097 146.032 18.7483 146.865 19.4254C147.178 19.7248 147.184 20.0439 146.885 20.3824C146.533 20.786 146.149 20.7991 145.732 20.4215C145.212 20.0699 144.652 19.8941 144.053 19.8941C142.985 19.8941 142.139 20.3303 141.514 21.2027C140.785 22.2183 140.4 23.7678 140.361 25.8511C140.804 25.3173 141.312 24.8941 141.885 24.5816C142.471 24.2691 143.05 24.1129 143.623 24.1129C144.86 24.1129 145.824 24.4905 146.514 25.2457C147.23 26.0269 147.588 27.1467 147.588 28.6051C147.588 29.9592 147.184 31.079 146.377 31.9644C145.596 32.8238 144.632 33.2535 143.486 33.2535ZM143.486 31.8668C144.176 31.8668 144.749 31.5673 145.205 30.9683C145.674 30.3564 145.908 29.5686 145.908 28.6051C145.908 27.6155 145.693 26.8472 145.264 26.3004C144.821 25.7274 144.176 25.441 143.33 25.441C142.236 25.441 141.26 26.053 140.4 27.2769C140.518 28.8004 140.837 29.9332 141.357 30.6754C141.878 31.4696 142.588 31.8668 143.486 31.8668Z" fill="#333333"/>
<path d="M175.889 25.2066C175.706 25.2066 175.57 25.148 175.479 25.0308C175.361 24.8095 175.12 24.5686 174.756 24.3082L174.795 24.2105C175.199 24.3798 175.537 24.4644 175.811 24.4644C175.98 24.4644 176.123 24.3668 176.24 24.1715C176.37 23.9631 176.507 23.6636 176.65 23.273C176.82 22.7912 176.911 22.3876 176.924 22.0621C176.924 22.023 176.904 21.9905 176.865 21.9644C176.826 21.9254 176.794 21.9058 176.768 21.9058C176.65 21.8928 176.429 21.9123 176.104 21.9644L175.693 22.023C175.576 22.036 175.439 22.0621 175.283 22.1011C175.14 22.1402 175.023 22.1662 174.932 22.1793C174.88 22.1923 174.795 22.2183 174.678 22.2574C174.561 22.2965 174.476 22.316 174.424 22.316C174.359 22.316 174.281 22.2834 174.189 22.2183C174.111 22.1402 174.04 22.0556 173.975 21.9644C173.962 21.9514 173.955 21.9254 173.955 21.8863C173.955 21.8342 173.994 21.7691 174.072 21.691C174.163 21.5998 174.235 21.5282 174.287 21.4761C174.352 21.398 174.417 21.3069 174.482 21.2027C174.548 21.0855 174.6 21.0009 174.639 20.9488C174.704 20.8446 174.756 20.7209 174.795 20.5777L174.834 20.4019C174.834 20.3889 174.827 20.3564 174.814 20.3043C174.801 20.2392 174.775 20.2066 174.736 20.2066C174.215 20.2717 173.831 20.3498 173.584 20.441C173.532 20.467 173.454 20.4931 173.35 20.5191C173.258 20.5191 173.18 20.4801 173.115 20.4019C173.076 20.3889 172.998 20.2847 172.881 20.0894C172.829 20.0373 172.803 19.9918 172.803 19.9527C172.803 19.8616 172.939 19.8095 173.213 19.7965L173.584 19.7574C173.649 19.7574 173.786 19.7444 173.994 19.7183C174.411 19.6793 174.99 19.6337 175.732 19.5816C175.993 19.5686 176.442 19.536 177.08 19.484C177.262 19.4709 177.484 19.4449 177.744 19.4058C177.887 19.3668 177.979 19.3472 178.018 19.3472C178.083 19.3472 178.148 19.3733 178.213 19.4254C178.278 19.4514 178.363 19.5035 178.467 19.5816C178.571 19.6467 178.649 19.7183 178.701 19.7965C178.753 19.8616 178.779 19.9267 178.779 19.9918C178.779 20.0569 178.747 20.1024 178.682 20.1285C178.617 20.1545 178.532 20.1545 178.428 20.1285C178.271 20.0894 178.089 20.0634 177.881 20.0504C177.686 20.0373 177.568 20.0308 177.529 20.0308C177.087 20.0178 176.533 20.0373 175.869 20.0894C175.687 20.1155 175.55 20.1285 175.459 20.1285C175.537 20.1936 175.609 20.2978 175.674 20.441V20.4801C175.674 20.5191 175.654 20.5712 175.615 20.6363C175.576 20.7014 175.531 20.747 175.479 20.773C175.413 20.8121 175.335 20.9032 175.244 21.0465C175.153 21.1897 175.094 21.2808 175.068 21.3199C174.99 21.4241 174.951 21.5087 174.951 21.5738C174.951 21.6259 175.003 21.6454 175.107 21.6324C175.199 21.6194 175.387 21.5933 175.674 21.5543C175.973 21.5022 176.195 21.4566 176.338 21.4176C176.377 21.4045 176.436 21.3915 176.514 21.3785C176.605 21.3655 176.709 21.3394 176.826 21.3004C176.917 21.2873 177.008 21.3069 177.1 21.359C177.204 21.411 177.36 21.5217 177.568 21.691C177.725 21.8082 177.803 21.9123 177.803 22.0035C177.803 22.0686 177.777 22.1337 177.725 22.1988C177.673 22.2899 177.633 22.4136 177.607 22.5699C177.49 23.1168 177.354 23.5595 177.197 23.898C177.08 24.1324 176.969 24.3277 176.865 24.484C176.761 24.6272 176.631 24.7704 176.475 24.9136C176.305 25.109 176.11 25.2066 175.889 25.2066ZM176.025 32.023C175.4 32.023 174.88 31.8668 174.463 31.5543C174.033 31.2027 173.818 30.7926 173.818 30.3238C173.818 29.9592 173.955 29.6402 174.229 29.3668C174.58 29.0673 175.023 28.9176 175.557 28.9176C175.583 28.9176 175.602 28.8915 175.615 28.8394C175.641 28.7743 175.654 28.6897 175.654 28.5855L175.674 28.0777C175.583 28.0907 175.407 28.1103 175.146 28.1363C174.899 28.1623 174.717 28.1884 174.6 28.2144C174.665 28.2014 174.463 28.247 173.994 28.3511C173.955 28.3642 173.883 28.3707 173.779 28.3707C173.532 28.3707 173.324 28.26 173.154 28.0386C173.076 27.9605 173.037 27.8954 173.037 27.8433C173.037 27.7652 173.154 27.7261 173.389 27.7261L173.994 27.6871L175.654 27.4722V27.2379V26.7496C175.641 26.6975 175.635 26.6389 175.635 26.5738C175.635 26.5087 175.628 26.4566 175.615 26.4176C175.589 26.3134 175.576 26.2483 175.576 26.2222C175.576 26.1311 175.622 26.0855 175.713 26.0855C175.83 26.0855 176.032 26.1702 176.318 26.3394C176.41 26.3915 176.455 26.4631 176.455 26.5543C176.455 26.6194 176.442 26.678 176.416 26.7301C176.403 26.7691 176.396 26.8147 176.396 26.8668V27.4136L176.982 27.3551L177.705 27.2769C177.77 27.2639 177.842 27.2444 177.92 27.2183C178.011 27.1923 178.083 27.1793 178.135 27.1793C178.213 27.1793 178.311 27.2183 178.428 27.2965C178.649 27.4397 178.76 27.5634 178.76 27.6676C178.76 27.7717 178.649 27.8238 178.428 27.8238C178.363 27.8238 178.271 27.8368 178.154 27.8629C178.037 27.8759 177.887 27.8889 177.705 27.9019L176.396 27.9996L176.377 29.191C176.351 29.3863 176.208 29.51 175.947 29.5621H175.908C175.83 29.5621 175.752 29.5556 175.674 29.5426C175.609 29.5165 175.557 29.5035 175.518 29.5035C175.413 29.5035 175.309 29.51 175.205 29.523C175.101 29.536 175.01 29.5751 174.932 29.6402C174.71 29.8355 174.6 30.0634 174.6 30.3238C174.6 30.5842 174.723 30.8186 174.971 31.0269C175.192 31.2353 175.544 31.3394 176.025 31.3394C176.663 31.3134 177.184 31.1376 177.588 30.8121C177.757 30.6949 177.887 30.6363 177.979 30.6363C178.031 30.6363 178.096 30.6493 178.174 30.6754C178.187 30.6884 178.213 30.7144 178.252 30.7535C178.291 30.7926 178.311 30.8316 178.311 30.8707C178.311 31.2353 178.005 31.5347 177.393 31.7691C176.937 31.9384 176.481 32.023 176.025 32.023ZM179.424 24.6207C179.489 24.6207 179.587 24.6662 179.717 24.7574C179.704 24.7834 179.73 24.8355 179.795 24.9136C179.86 24.9787 179.906 25.0243 179.932 25.0504C179.997 25.1155 180.062 25.1936 180.127 25.2847C180.205 25.3759 180.29 25.4735 180.381 25.5777C180.615 25.8251 181.156 26.4696 182.002 27.5113C182.145 27.7196 182.217 27.8433 182.217 27.8824C182.217 28.0126 182.139 28.0777 181.982 28.0777C181.891 28.0777 181.794 28.0126 181.689 27.8824C181.442 27.622 180.999 27.2118 180.361 26.6519C179.867 26.1962 179.417 25.8446 179.014 25.5972C178.818 25.5061 178.721 25.4019 178.721 25.2847C178.721 25.1936 178.818 25.0634 179.014 24.8941C179.196 24.7118 179.333 24.6207 179.424 24.6207ZM166.006 34.4644C165.537 34.4644 165.303 34.2366 165.303 33.7808V29.0738C164.235 30.8446 163.018 32.2379 161.65 33.2535C161.455 33.3837 161.286 33.4358 161.143 33.4097C160.999 33.3967 160.85 33.2991 160.693 33.1168C160.498 32.8954 160.413 32.7066 160.439 32.5504C160.465 32.3941 160.609 32.2379 160.869 32.0816C161.585 31.5868 162.275 30.9748 162.939 30.2457C163.604 29.5165 164.163 28.7548 164.619 27.9605H161.436C161.006 27.9605 160.791 27.7392 160.791 27.2965C160.791 26.8668 161.006 26.6519 161.436 26.6519H165.303V25.0308H162.646C162.308 25.0308 162.035 24.9267 161.826 24.7183C161.618 24.51 161.514 24.2366 161.514 23.898V18.6051C161.514 18.2665 161.618 17.9931 161.826 17.7847C162.035 17.5764 162.308 17.4722 162.646 17.4722H166.045H169.443C169.782 17.4722 170.055 17.5764 170.264 17.7847C170.472 17.9931 170.576 18.2665 170.576 18.6051V23.898C170.576 24.2366 170.472 24.51 170.264 24.7183C170.055 24.9267 169.782 25.0308 169.443 25.0308H166.689V26.6519H170.518C170.947 26.6519 171.162 26.8668 171.162 27.2965C171.162 27.7392 170.947 27.9605 170.518 27.9605H167.412C167.855 28.6897 168.395 29.4123 169.033 30.1285C169.671 30.8316 170.316 31.4306 170.967 31.9254C171.214 32.0946 171.344 32.2574 171.357 32.4136C171.37 32.5569 171.279 32.7392 171.084 32.9605C170.915 33.1428 170.758 33.2405 170.615 33.2535C170.485 33.2795 170.322 33.2144 170.127 33.0582C168.812 31.9644 167.666 30.5972 166.689 28.9566V33.7808C166.689 34.2366 166.462 34.4644 166.006 34.4644ZM155.693 33.3707C155.355 33.3707 155.081 33.2665 154.873 33.0582C154.665 32.8498 154.561 32.5764 154.561 32.2379V28.859C154.561 28.5204 154.665 28.247 154.873 28.0386C155.081 27.8303 155.355 27.7261 155.693 27.7261H157.295H158.916C159.255 27.7261 159.528 27.8303 159.736 28.0386C159.945 28.247 160.049 28.5204 160.049 28.859V32.2379C160.049 32.5764 159.945 32.8498 159.736 33.0582C159.528 33.2665 159.255 33.3707 158.916 33.3707H155.693ZM156.201 32.1988H157.295H158.408C158.682 32.1988 158.818 32.0621 158.818 31.7886V29.3277C158.818 29.0543 158.682 28.9176 158.408 28.9176H156.201C155.928 28.9176 155.791 29.0543 155.791 29.3277V31.7886C155.791 32.0621 155.928 32.1988 156.201 32.1988ZM155.166 26.2808C154.775 26.2808 154.58 26.0855 154.58 25.6949C154.58 25.3043 154.775 25.109 155.166 25.109H159.443C159.834 25.109 160.029 25.3043 160.029 25.6949C160.029 26.0855 159.834 26.2808 159.443 26.2808H157.295H155.166ZM163.213 23.8394H165.361V21.8277H164.072H162.803V23.4293C162.803 23.7027 162.939 23.8394 163.213 23.8394ZM166.611 23.8394H167.92H168.838C169.111 23.8394 169.248 23.7027 169.248 23.4293V21.8277H166.611V23.8394ZM155.146 23.6832C154.769 23.6832 154.58 23.4879 154.58 23.0972C154.58 22.7196 154.769 22.5308 155.146 22.5308H157.295H159.463C159.84 22.5308 160.029 22.7196 160.029 23.0972C160.029 23.4879 159.84 23.6832 159.463 23.6832H155.146ZM154.326 21.0855C153.936 21.0855 153.74 20.8837 153.74 20.4801C153.74 20.0894 153.936 19.8941 154.326 19.8941H157.139H159.951C160.342 19.8941 160.537 20.0894 160.537 20.4801C160.537 20.8837 160.342 21.0855 159.951 21.0855H154.326ZM162.803 20.6558H165.361V18.6636H164.072H163.213C162.939 18.6636 162.803 18.8004 162.803 19.0738V20.6558ZM166.611 20.6558H167.92H169.248V19.0738C169.248 18.8004 169.111 18.6636 168.838 18.6636H166.611V20.6558ZM155.264 18.5074C154.873 18.5074 154.678 18.3121 154.678 17.9215C154.678 17.5308 154.873 17.3355 155.264 17.3355H157.314H159.385C159.775 17.3355 159.971 17.5308 159.971 17.9215C159.971 18.3121 159.775 18.5074 159.385 18.5074H155.264Z" fill="#333333"/>
</svg>
