<svg xmlns="http://www.w3.org/2000/svg" width="200" height="50" fill="none"><path fill="#333" d="M40.185 22.57c-.078 0-.182-.085-.312-.254-.13-.182-.189-.339-.176-.469.026-.104.046-.397.059-.879.013-.325.02-.898.02-1.718 0-.573-.007-.957-.02-1.153l-.645.059a8.473 8.473 0 0 1-1.171.098c-.092 0-.222-.072-.391-.215-.17-.144-.254-.248-.254-.313 0-.104.11-.143.332-.117.143.013.566.006 1.27-.02.963-.065 1.66-.104 2.09-.117.22-.013.422-.032.605-.058.195-.04.332-.066.41-.079a.611.611 0 0 1 .313.04c.09.039.175.09.253.156.092.052.163.091.215.117.117.078.176.15.176.215 0 .052-.033.104-.098.156a.285.285 0 0 1-.175.059 2.65 2.65 0 0 1-.274-.02 2.858 2.858 0 0 0-.352-.02c-.481 0-.976.014-1.484.04-.013.104-.02.364-.02.781a56.035 56.035 0 0 0-.038 2.07v.938c0 .221-.02.364-.059.43-.117.182-.208.273-.274.273Zm-2.09 3.457c-.142 0-.318-.11-.527-.332-.156-.156-.234-.273-.234-.352 0-.039.026-.058.078-.058a.823.823 0 0 1 .195-.02l.43-.02c.248 0 .41-.006.488-.019.248 0 .456-.006.625-.02 1.12-.104 1.875-.188 2.266-.253.195-.026.371-.052.527-.078.157-.04.28-.059.372-.059.182 0 .364.091.546.273.144.144.215.26.215.352 0 .078-.045.13-.136.156-.066.013-.45.04-1.153.078-.39.013-.872.046-1.445.098-.573.052-1.074.104-1.504.156l-.332.059a2.3 2.3 0 0 1-.41.039Zm2.227 8.164c-.09 0-.156-.026-.195-.078a1.186 1.186 0 0 0-.078-.098c-.13-.182-.189-.358-.176-.527.013-.104.033-.384.059-.84l.02-.938a1.098 1.098 0 0 0-.04-.253c-.013-.04-.072-.118-.176-.235a9.781 9.781 0 0 0-.722-.8 16.79 16.79 0 0 1-.606-.625l-.586-.587c-.039-.038-.058-.078-.058-.117 0-.065.039-.117.117-.156a.42.42 0 0 1 .273-.059c.26.026.43.06.508.098.091.026.176.104.254.235.078.13.189.286.332.468.156.17.274.3.352.39.325.392.553.652.683.782.235-.273.527-.664.88-1.172.286-.364.455-.664.507-.898.052-.17.13-.254.234-.254.052 0 .13.032.235.098.338.208.508.377.508.507 0 .078-.085.176-.254.293-.235.17-.43.358-.586.567l-.391.488c-.26.313-.456.56-.586.742-.065.117-.098.287-.098.508v1.972c.013.092-.039.196-.156.313-.104.117-.189.176-.254.176Zm3.457-7.422c.065 0 .163.046.293.137-.013.026.013.078.078.156l.137.137c.065.065.13.143.195.234l.254.293c.235.248.775.892 1.621 1.934.144.208.215.332.215.37 0 .131-.078.196-.234.196-.091 0-.189-.065-.293-.195-.248-.26-.69-.67-1.328-1.23-.495-.456-.944-.808-1.348-1.055-.195-.091-.293-.196-.293-.313 0-.091.098-.221.293-.39.182-.183.32-.274.41-.274Zm-17.207 7.695c-.508 0-.761-.253-.761-.761v-14.16h-6.68c-.482 0-.723-.241-.723-.723s.241-.723.723-.723h15.644c.482 0 .723.241.723.723s-.24.723-.723.723h-7.441v3.476l.156-.195c.065-.065.137-.078.215-.04 2.461 1.212 4.531 2.416 6.211 3.614.208.143.313.3.313.469 0 .13-.092.319-.274.566-.182.235-.338.371-.469.41-.156.052-.338 0-.546-.156-1.394-1.068-3.262-2.233-5.606-3.496v9.512c0 .508-.254.761-.762.761ZM72.822 20.636c.17.143.254.248.254.313 0 .117-.163.17-.488.156h-.41c-.365 0-1.14.046-2.325.137-.025.169-.058.345-.097.527-.04.17-.065.3-.078.39V22.395c.065 0 .11-.006.136-.02.066-.012.215-.032.45-.058.247-.04.495-.078.742-.117.078-.013.156-.033.234-.059a.46.46 0 0 1 .196-.058c.143 0 .319.09.527.273.143.117.215.208.215.273 0 .144-.085.359-.254.645a5.543 5.543 0 0 1-.88 1.191c-.377.378-.767.625-1.171.743a.726.726 0 0 1-.176.02c-.052 0-.078-.014-.078-.04 0-.039.091-.143.274-.312a5.73 5.73 0 0 0 1.21-1.465c.183-.326.274-.521.274-.586 0-.052-.033-.078-.098-.078h-.097l-.508.058c-.508.078-.827.137-.957.176-.156.078-.28.117-.371.117-.091 0-.209-.071-.352-.215a1.163 1.163 0 0 0-.097-.078c-.04-.039-.06-.097-.06-.175 0-.04.027-.098.079-.176.052-.104.091-.235.117-.39.026-.157.04-.255.04-.294l.077-.45c-.221.027-.573.085-1.054.177-.13.026-.222.039-.274.039a.584.584 0 0 1-.312-.117c-.248-.17-.371-.28-.371-.332 0-.092.117-.144.351-.157l.684-.058 1.094-.117c.065-.521.097-.84.097-.957l.02-.41c.026-.222.078-.333.156-.333.065 0 .143.026.234.078.17.091.293.19.371.293.092.091.124.17.098.235l-.137.41c-.039.078-.09.28-.156.605l1.7-.156c.143-.013.312-.052.507-.117l.156-.02c.13 0 .241.04.333.118.09.065.15.11.175.136Zm-2.441 11.387c-.625 0-1.146-.156-1.563-.469-.43-.351-.644-.761-.644-1.23 0-.365.136-.684.41-.957.352-.3.794-.45 1.328-.45.026 0 .046-.026.059-.078a.694.694 0 0 0 .039-.253l.02-.508c-.092.013-.268.032-.528.058-.247.026-.43.052-.547.078.065-.013-.137.033-.605.137a.782.782 0 0 1-.215.02c-.248 0-.456-.111-.625-.332-.078-.079-.117-.144-.117-.196 0-.078.117-.117.351-.117l.606-.039 1.66-.215v-.722a.722.722 0 0 1-.02-.176.508.508 0 0 0-.02-.156 1.18 1.18 0 0 1-.038-.196c0-.09.045-.137.136-.137.118 0 .32.085.606.254.091.053.136.124.136.215a.388.388 0 0 1-.038.176.433.433 0 0 0-.02.137v.547l.586-.059.723-.078c.065-.013.136-.033.214-.059a.84.84 0 0 1 .215-.039c.078 0 .176.04.293.118.222.143.332.266.332.37 0 .105-.11.157-.332.157a1.35 1.35 0 0 0-.273.039c-.117.013-.267.026-.45.039L70.752 28l-.02 1.191c-.026.195-.169.319-.43.371h-.038c-.078 0-.157-.006-.235-.02a.45.45 0 0 0-.156-.039c-.104 0-.208.007-.313.02a.518.518 0 0 0-.273.117c-.221.195-.332.423-.332.684 0 .26.124.495.371.703.222.208.573.312 1.055.312.638-.026 1.159-.201 1.562-.527.17-.117.3-.176.391-.176a.64.64 0 0 1 .195.04c.013.012.04.038.078.078.04.039.059.078.059.117 0 .364-.306.664-.918.898-.456.17-.911.254-1.367.254Zm3.398-7.402c.065 0 .163.045.293.136-.013.026.013.078.078.157l.137.136c.065.066.13.144.195.235l.254.293c.235.247.775.892 1.621 1.933.144.209.215.332.215.371 0 .13-.078.196-.234.196-.091 0-.189-.065-.293-.196-.248-.26-.69-.67-1.328-1.23-.495-.456-.944-.807-1.348-1.055-.195-.09-.293-.195-.293-.312 0-.091.098-.222.293-.39.182-.183.32-.274.41-.274Zm-23.066 9.922c-.469 0-.703-.235-.703-.704v-7.558h-1.172c-.469 0-.703-.234-.703-.703s.234-.703.703-.703h1.172v-5.86c0-.338.104-.612.312-.82.209-.208.482-.313.82-.313H62.94c.338 0 .611.105.82.313.208.208.312.482.312.82v5.86h1.035c.47 0 .704.234.704.703s-.235.703-.704.703h-1.035v6.484c0 .39-.039.697-.117.918a1.148 1.148 0 0 1-.508.547c-.221.13-.71.215-1.465.254-.599 0-.957-.189-1.074-.566-.195-.573.124-.847.957-.82h.508c.208 0 .313-.118.313-.352V26.28h-2.93v7.305c0 .455-.228.683-.684.683-.456 0-.683-.228-.683-.683V26.28h-2.871v7.324c0 .443-.222.664-.665.664-.455 0-.683-.221-.683-.664v-7.324h-2.754v7.558c0 .47-.234.704-.703.704Zm.703-9.668h2.754v-5.586h-2.344c-.273 0-.41.136-.41.41v5.176Zm4.102 0h2.87v-5.586h-2.87v5.586Zm4.238 0h2.93v-5.176c0-.274-.137-.41-.41-.41h-2.52v5.586ZM104.893 25.285c-.209 0-.332-.104-.372-.313-.078-.221-.286-.495-.625-.82l.059-.078c.052.026.202.09.449.195.248.091.417.137.508.137h.176a.384.384 0 0 0 .137-.098c.156-.117.351-.384.586-.8.169-.34.319-.736.449-1.192.143-.456.215-.8.215-1.035 0-.065-.052-.098-.157-.098l-.742.04-.508.038-.332.02-.136.02a.549.549 0 0 1 .175.175c.039.04.059.091.059.156 0 .066-.078.248-.234.547a5.038 5.038 0 0 1-.625.977 7.466 7.466 0 0 1-.957 1.016c-.391.351-.684.533-.879.546a.379.379 0 0 1-.118-.02.133.133 0 0 1-.039-.097c0-.013.105-.137.313-.37l.547-.646c.39-.52.788-1.184 1.191-1.992.039-.104.02-.162-.058-.175-.079.013-.241.032-.489.058a2.529 2.529 0 0 0-.664.117.622.622 0 0 0-.136.059.65.65 0 0 1-.196.039.265.265 0 0 1-.195-.078l-.156-.137c-.118-.091-.176-.176-.176-.254a.3.3 0 0 1 .039-.117l.098-.156c.052-.065.136-.17.254-.313.117-.143.247-.338.39-.586.026-.052.078-.169.156-.351.092-.183.137-.293.137-.332v-.078c0-.079.013-.13.039-.157.026-.026.085-.026.176 0 .091.026.202.098.332.215l.215.215a.187.187 0 0 1 .058.137c0 .13-.182.364-.546.703a2.18 2.18 0 0 0-.235.293c-.091.13-.137.215-.137.254 0 .078.059.104.176.078l.449-.059c1.029-.156 1.804-.247 2.325-.273l.527-.078.176-.04.097-.019c.105 0 .176.013.215.04a.425.425 0 0 1 .117.136c.04.052.079.098.118.137.091.104.156.195.195.273l.039.176-.039.078-.039.117c-.026.065-.046.13-.059.195-.013.053-.032.111-.058.176-.274 1.055-.593 1.875-.957 2.461-.117.209-.319.417-.606.625-.273.209-.514.313-.722.313Zm-2.422 4.258c-.144 0-.319-.111-.528-.332-.156-.157-.234-.274-.234-.352 0-.04.026-.059.078-.059a.815.815 0 0 1 .195-.02l.43-.019c.248 0 .41-.006.488-.02a8.3 8.3 0 0 0 .625-.019c1.12-.104 1.875-.189 2.266-.254a16.5 16.5 0 0 0 .527-.078c.157-.039.28-.058.371-.058.183 0 .365.09.547.273.144.143.215.26.215.352 0 .078-.045.13-.137.156-.065.013-.449.039-1.152.078-.391.013-.872.046-1.445.098-.573.052-1.074.104-1.504.156a23.13 23.13 0 0 0-.332.058c-.143.026-.28.04-.41.04Zm5.683-4.922c.065 0 .163.045.293.136-.013.026.013.078.078.157l.137.136c.065.066.13.144.195.235l.254.293c.235.247.775.892 1.621 1.933.144.209.215.332.215.371 0 .13-.078.196-.234.196-.091 0-.189-.065-.293-.196-.247-.26-.69-.67-1.328-1.23-.495-.456-.944-.807-1.348-1.055-.195-.09-.293-.195-.293-.312 0-.091.098-.222.293-.39.182-.183.319-.274.41-.274Zm-16.836 9.863c-.468 0-.703-.234-.703-.703v-3.887c-.833.847-1.849 1.634-3.047 2.363a19.66 19.66 0 0 1-3.535 1.72c-.377.13-.683.045-.918-.255-.364-.482-.247-.807.352-.976 2.344-.82 4.303-1.92 5.879-3.301h-3.809c0 .026-.006.039-.02.039-.117.404-.383.58-.8.527-.521-.078-.71-.332-.567-.761.274-.938.54-1.98.801-3.125a1.19 1.19 0 0 1 1.192-.957h4.472v-1.973h-5.8c-.404 0-.606-.208-.606-.625 0-.404.202-.606.605-.606H97.1c.338 0 .612.105.82.313.208.208.312.482.312.82v2.168c0 .339-.104.612-.312.82-.208.209-.482.313-.82.313h-5.078v1.797h6.171c.782 0 1.1.65.957 1.953-.208 1.64-.494 2.643-.859 3.008-.273.3-.677.456-1.21.469-.522.026-1.05.032-1.583.02-.573-.014-.898-.261-.977-.743v-.02l-.019-.02c-.17-.377.013-.546.547-.507.416.013.885.02 1.406.02.352 0 .58-.046.684-.137.247-.247.449-.95.605-2.11.026-.26.013-.436-.039-.527-.052-.104-.15-.156-.293-.156h-5.39v4.336c0 .469-.235.703-.704.703Zm-5.449-6.29h4.746v-1.796H86.3c-.052.234-.137.58-.254 1.035l-.176.762Zm6.153-3.026h4.394c.273 0 .41-.137.41-.41v-1.153c0-.273-.136-.41-.41-.41h-4.395v1.973Zm-8.087-3.692c-.286.3-.592.339-.917.117-.235-.156-.365-.312-.391-.468-.013-.157.085-.339.293-.547.846-.964 1.543-2.097 2.09-3.399.156-.403.449-.547.879-.43.468.118.618.398.449.84a5.608 5.608 0 0 1-.352.762h4.473c.39 0 .586.196.586.586 0 .39-.195.586-.586.586h-2.95c.235.456.417.879.548 1.27.104.338-.033.585-.41.742-.235.09-.417.117-.547.078-.144-.052-.248-.189-.313-.41a12.99 12.99 0 0 0-.684-1.68h-.761c-.482.768-.95 1.42-1.406 1.953Zm12.266.117c-.416.183-.703.091-.86-.273a11.612 11.612 0 0 0-1.132-1.797h-1.387a12.383 12.383 0 0 1-1.543 1.895c-.3.286-.612.312-.937.078-.443-.326-.45-.677-.02-1.055a9.88 9.88 0 0 0 2.227-3.242c.182-.43.482-.586.898-.469.495.117.645.417.45.898-.014.04-.04.098-.079.176-.13.248-.227.43-.293.547H99.443c.391 0 .586.196.586.586 0 .39-.195.586-.586.586h-3.71c.325.443.605.872.84 1.29.09.194.103.35.038.468-.052.117-.189.221-.41.312ZM120.752 33c-.3 0-.534-.105-.703-.313-.156-.208-.222-.475-.195-.8.169-2.436.546-4.532 1.132-6.29.599-1.797 1.543-3.594 2.832-5.39h-6.172c-.507 0-.761-.254-.761-.762s.254-.762.761-.762h7.657c.364 0 .547.183.547.547v.059c0 .3-.111.599-.332.898-1.368 1.836-2.331 3.678-2.891 5.527-.495 1.589-.807 3.666-.938 6.23-.013.313-.104.567-.273.763-.156.195-.378.293-.664.293ZM134.111 27.394c-.612 0-1.321-.312-2.129-.937l-.234-.176a6.397 6.397 0 0 0-.742-.508c-.274-.156-.534-.234-.781-.234-.443 0-.847.208-1.211.625-.131.195-.28.325-.45.39a.547.547 0 0 1-.546-.058.52.52 0 0 1-.215-.45c0-.169.058-.338.176-.507.677-.886 1.445-1.329 2.304-1.329.404 0 .814.111 1.231.333.247.13.586.364 1.015.703.365.273.632.455.801.547.3.169.573.254.82.254.443 0 .834-.196 1.172-.587.143-.195.3-.332.469-.41a.581.581 0 0 1 .566.059.553.553 0 0 1 .215.45c0 .168-.065.344-.195.526-.664.873-1.419 1.31-2.266 1.31ZM143.057 33.254c-1.302 0-2.396-.359-3.282-1.075-.859-.729-1.289-1.64-1.289-2.734 0-.886.274-1.693.821-2.422.468-.612 1.074-1.12 1.816-1.523v-.098c-1.289-.886-1.934-1.986-1.934-3.3 0-1.082.372-1.96 1.114-2.638.742-.664 1.679-.996 2.812-.996 1.198 0 2.155.352 2.871 1.055.703.69 1.055 1.595 1.055 2.715 0 .69-.208 1.374-.625 2.05a5.54 5.54 0 0 1-1.289 1.407v.098c1.615.937 2.422 2.187 2.422 3.75 0 1.054-.41 1.933-1.231 2.636-.846.716-1.933 1.075-3.261 1.075Zm.039-1.329c.82 0 1.484-.221 1.992-.664.508-.455.762-1.041.762-1.758 0-.872-.378-1.588-1.133-2.148-.469-.338-1.354-.775-2.656-1.308-.599.39-1.068.852-1.407 1.386a3.397 3.397 0 0 0-.547 1.856c0 .755.28 1.386.84 1.894.573.495 1.289.742 2.149.742Zm.937-6.699c.99-.872 1.485-1.836 1.485-2.89 0-.73-.215-1.335-.645-1.817-.456-.495-1.055-.742-1.797-.742-.664 0-1.211.215-1.64.645-.417.43-.625.989-.625 1.68 0 .754.325 1.405.976 1.952.456.378 1.205.769 2.246 1.172ZM175.889 25.207c-.183 0-.319-.059-.41-.176-.118-.221-.359-.462-.723-.723l.039-.098c.404.17.742.254 1.016.254.169 0 .312-.097.429-.292.13-.209.267-.508.41-.899.17-.482.261-.885.274-1.21 0-.04-.02-.072-.059-.099-.039-.039-.071-.058-.097-.058-.118-.013-.339.006-.664.058l-.411.059c-.117.013-.254.04-.41.078-.143.04-.26.065-.351.078a3.873 3.873 0 0 0-.254.078.928.928 0 0 1-.254.059c-.065 0-.143-.033-.235-.098a2.003 2.003 0 0 1-.214-.254c-.013-.013-.02-.039-.02-.078 0-.052.039-.117.117-.195l.215-.215c.065-.078.13-.17.195-.273.066-.117.118-.202.157-.254.065-.104.117-.228.156-.371l.039-.176a.614.614 0 0 0-.02-.098c-.013-.065-.039-.097-.078-.097-.521.065-.905.143-1.152.234-.052.026-.13.052-.234.078a.295.295 0 0 1-.235-.117c-.039-.013-.117-.117-.234-.313-.052-.052-.078-.097-.078-.136 0-.091.136-.143.41-.156l.371-.04c.065 0 .202-.013.41-.039.417-.039.996-.084 1.738-.136.261-.013.71-.046 1.348-.098.182-.013.404-.04.664-.078.143-.04.235-.059.274-.059.065 0 .13.026.195.078.065.026.15.078.254.157a.756.756 0 0 1 .234.215c.052.065.078.13.078.195s-.032.11-.097.136a.418.418 0 0 1-.254 0 3.073 3.073 0 0 0-.547-.078 8.36 8.36 0 0 0-.352-.02c-.442-.012-.996.007-1.66.06a3.17 3.17 0 0 1-.41.038c.078.066.15.17.215.313v.04c0 .038-.02.09-.059.155a.342.342 0 0 1-.136.137c-.066.04-.144.13-.235.274-.091.143-.15.234-.176.273-.078.104-.117.189-.117.254 0 .052.052.071.156.058l.567-.078c.299-.052.521-.097.664-.136.039-.014.098-.026.176-.04.091-.012.195-.039.312-.078a.423.423 0 0 1 .274.059c.104.052.26.163.468.332.157.117.235.221.235.313 0 .065-.026.13-.078.195a1.131 1.131 0 0 0-.118.37c-.117.548-.253.99-.41 1.329-.117.234-.228.43-.332.586a2.916 2.916 0 0 1-.39.43c-.17.195-.365.293-.586.293Zm.136 6.816c-.625 0-1.145-.156-1.562-.469-.43-.351-.645-.761-.645-1.23 0-.365.137-.684.411-.957.351-.3.794-.45 1.328-.45.026 0 .045-.026.058-.078a.694.694 0 0 0 .039-.253l.02-.508a15.2 15.2 0 0 1-.528.058 5.344 5.344 0 0 0-.546.078c.065-.013-.137.033-.606.137a.784.784 0 0 1-.215.02c-.247 0-.455-.111-.625-.332-.078-.079-.117-.144-.117-.196 0-.078.117-.117.352-.117l.605-.039 1.66-.215v-.722a.729.729 0 0 1-.019-.176.506.506 0 0 0-.02-.156 1.176 1.176 0 0 1-.039-.196c0-.09.046-.137.137-.137.117 0 .319.085.605.254.092.053.137.124.137.215a.388.388 0 0 1-.039.176.432.432 0 0 0-.02.137v.547l.586-.059.723-.078c.065-.013.137-.033.215-.059a.84.84 0 0 1 .215-.039c.078 0 .176.04.293.118.221.143.332.266.332.37 0 .105-.111.157-.332.157-.065 0-.157.013-.274.039-.117.013-.267.026-.449.039l-1.309.098-.019 1.191c-.026.195-.169.319-.43.371h-.039c-.078 0-.156-.006-.234-.02a.448.448 0 0 0-.156-.039c-.105 0-.209.007-.313.02a.517.517 0 0 0-.273.117c-.222.195-.332.423-.332.684 0 .26.123.495.371.703.221.208.573.312 1.054.312.638-.026 1.159-.201 1.563-.527.169-.117.299-.176.391-.176a.64.64 0 0 1 .195.04l.078.078c.039.039.059.078.059.117 0 .364-.306.664-.918.898-.456.17-.912.254-1.368.254Zm3.399-7.402c.065 0 .163.045.293.136-.013.026.013.078.078.157l.137.136c.065.066.13.144.195.235l.254.293c.234.247.775.892 1.621 1.933.143.209.215.332.215.371 0 .13-.078.196-.235.196-.091 0-.188-.065-.293-.196-.247-.26-.69-.67-1.328-1.23-.494-.456-.944-.807-1.347-1.055-.196-.09-.293-.195-.293-.312 0-.091.097-.222.293-.39.182-.183.319-.274.41-.274Zm-13.418 9.843c-.469 0-.703-.227-.703-.683v-4.707c-1.068 1.77-2.285 3.164-3.653 4.18-.195.13-.364.182-.507.156-.144-.013-.293-.11-.45-.293-.195-.222-.28-.41-.254-.567.026-.156.17-.312.43-.468a12.19 12.19 0 0 0 2.07-1.836c.665-.73 1.224-1.491 1.68-2.285h-3.183c-.43 0-.645-.222-.645-.664 0-.43.215-.645.645-.645h3.867V25.03h-2.657c-.338 0-.611-.104-.82-.313-.208-.208-.312-.481-.312-.82v-5.293c0-.338.104-.612.312-.82.209-.209.482-.313.82-.313H169.443c.339 0 .612.104.821.313.208.208.312.482.312.82v5.293c0 .339-.104.612-.312.82-.209.209-.482.313-.821.313h-2.754v1.62h3.829c.429 0 .644.216.644.646 0 .442-.215.663-.644.663h-3.106a14.916 14.916 0 0 0 3.555 3.965c.247.17.377.332.39.489.013.143-.078.325-.273.547-.169.182-.326.28-.469.293-.13.026-.293-.04-.488-.196-1.315-1.094-2.461-2.46-3.438-4.101v4.824c0 .456-.227.683-.683.683Zm-10.313-1.093c-.338 0-.612-.105-.82-.313-.208-.208-.312-.482-.312-.82v-3.379c0-.339.104-.612.312-.82.208-.209.482-.313.82-.313h3.223c.339 0 .612.104.82.313.209.208.313.481.313.82v3.379c0 .338-.104.612-.313.82-.208.209-.481.313-.82.313h-3.223Zm.508-1.172h2.207c.274 0 .41-.137.41-.41v-2.461c0-.274-.136-.41-.41-.41h-2.207c-.273 0-.41.136-.41.41v2.46c0 .274.137.41.41.41Zm-1.035-5.918c-.391 0-.586-.195-.586-.586 0-.39.195-.586.586-.586h4.277c.391 0 .586.195.586.586 0 .39-.195.586-.586.586h-4.277Zm8.047-2.442h2.148v-2.011h-2.558v1.601c0 .274.136.41.41.41Zm3.398 0h2.227c.273 0 .41-.136.41-.41v-1.601h-2.637v2.011Zm-11.465-.156c-.377 0-.566-.195-.566-.586 0-.377.189-.566.566-.566h4.317c.377 0 .566.189.566.566 0 .39-.189.586-.566.586h-4.317Zm-.82-2.598c-.39 0-.586-.201-.586-.605 0-.39.196-.586.586-.586h5.625c.391 0 .586.195.586.586 0 .404-.195.605-.586.605h-5.625Zm8.477-.43h2.558v-1.991H163.213c-.274 0-.41.136-.41.41v1.582Zm3.808 0h2.637v-1.581c0-.274-.137-.41-.41-.41h-2.227v1.992Zm-11.347-2.148c-.391 0-.586-.195-.586-.585 0-.391.195-.587.586-.587h4.121c.39 0 .586.196.586.587 0 .39-.196.585-.586.585h-4.121Z"/></svg>