<svg width="320" height="60" viewBox="0 0 320 60" fill="none" xmlns="http://www.w3.org/2000/svg">
<path d="M108.293 30.0895C108.038 30.0895 107.846 30.0075 107.719 29.8434C107.555 29.5335 107.217 29.1963 106.707 28.8317L106.762 28.695C107.327 28.932 107.801 29.0505 108.184 29.0505C108.421 29.0505 108.621 28.9137 108.785 28.6403C108.967 28.3486 109.159 27.9294 109.359 27.3825C109.596 26.708 109.724 26.1429 109.742 25.6872C109.742 25.6325 109.715 25.5869 109.66 25.5505C109.605 25.4958 109.56 25.4684 109.523 25.4684C109.359 25.4502 109.049 25.4775 108.594 25.5505L108.02 25.6325C107.855 25.6507 107.664 25.6872 107.445 25.7419C107.245 25.7965 107.081 25.833 106.953 25.8512C106.88 25.8695 106.762 25.9059 106.598 25.9606C106.434 26.0153 106.315 26.0426 106.242 26.0426C106.151 26.0426 106.042 25.9971 105.914 25.9059C105.805 25.7965 105.704 25.6781 105.613 25.5505C105.595 25.5322 105.586 25.4958 105.586 25.4411C105.586 25.3682 105.641 25.277 105.75 25.1676C105.878 25.04 105.978 24.9398 106.051 24.8669C106.142 24.7575 106.233 24.6299 106.324 24.484C106.415 24.32 106.488 24.2015 106.543 24.1286C106.634 23.9827 106.707 23.8096 106.762 23.609L106.816 23.363C106.816 23.3447 106.807 23.2992 106.789 23.2262C106.771 23.1351 106.734 23.0895 106.68 23.0895C105.951 23.1807 105.413 23.29 105.066 23.4176C104.993 23.4541 104.884 23.4906 104.738 23.527C104.611 23.527 104.501 23.4723 104.41 23.363C104.355 23.3447 104.246 23.1989 104.082 22.9255C104.009 22.8525 103.973 22.7887 103.973 22.734C103.973 22.6064 104.164 22.5335 104.547 22.5153L105.066 22.4606C105.158 22.4606 105.349 22.4424 105.641 22.4059C106.224 22.3512 107.035 22.2874 108.074 22.2145C108.439 22.1963 109.068 22.1507 109.961 22.0778C110.216 22.0596 110.526 22.0231 110.891 21.9684C111.091 21.9137 111.219 21.8864 111.273 21.8864C111.365 21.8864 111.456 21.9229 111.547 21.9958C111.638 22.0322 111.757 22.1051 111.902 22.2145C112.048 22.3057 112.158 22.4059 112.23 22.5153C112.303 22.6064 112.34 22.6976 112.34 22.7887C112.34 22.8799 112.294 22.9437 112.203 22.9801C112.112 23.0166 111.993 23.0166 111.848 22.9801C111.629 22.9255 111.374 22.889 111.082 22.8708C110.809 22.8525 110.645 22.8434 110.59 22.8434C109.97 22.8252 109.195 22.8525 108.266 22.9255C108.01 22.9619 107.819 22.9801 107.691 22.9801C107.801 23.0713 107.901 23.2171 107.992 23.4176V23.4723C107.992 23.527 107.965 23.5999 107.91 23.6911C107.855 23.7822 107.792 23.846 107.719 23.8825C107.628 23.9372 107.518 24.0648 107.391 24.2653C107.263 24.4658 107.181 24.5934 107.145 24.6481C107.035 24.7939 106.98 24.9124 106.98 25.0036C106.98 25.0765 107.053 25.1038 107.199 25.0856C107.327 25.0674 107.591 25.0309 107.992 24.9762C108.411 24.9033 108.721 24.8395 108.922 24.7848C108.977 24.7666 109.059 24.7484 109.168 24.7301C109.296 24.7119 109.441 24.6755 109.605 24.6208C109.733 24.6025 109.861 24.6299 109.988 24.7028C110.134 24.7757 110.353 24.9307 110.645 25.1676C110.863 25.3317 110.973 25.4775 110.973 25.6051C110.973 25.6963 110.936 25.7874 110.863 25.8786C110.79 26.0062 110.736 26.1794 110.699 26.3981C110.535 27.1637 110.344 27.7835 110.125 28.2575C109.961 28.5856 109.806 28.859 109.66 29.0778C109.514 29.2783 109.332 29.4788 109.113 29.6794C108.876 29.9528 108.603 30.0895 108.293 30.0895ZM108.484 39.6325C107.609 39.6325 106.88 39.4137 106.297 38.9762C105.695 38.484 105.395 37.9098 105.395 37.2536C105.395 36.7432 105.586 36.2965 105.969 35.9137C106.461 35.4945 107.081 35.2848 107.828 35.2848C107.865 35.2848 107.892 35.2484 107.91 35.1755C107.947 35.0843 107.965 34.9658 107.965 34.82L107.992 34.109C107.865 34.1273 107.618 34.1546 107.254 34.1911C106.908 34.2275 106.652 34.264 106.488 34.3005C106.579 34.2822 106.297 34.346 105.641 34.4919C105.586 34.5101 105.486 34.5192 105.34 34.5192C104.993 34.5192 104.702 34.3643 104.465 34.0544C104.355 33.945 104.301 33.8538 104.301 33.7809C104.301 33.6715 104.465 33.6169 104.793 33.6169L105.641 33.5622L107.965 33.2614V32.9333V32.2497C107.947 32.1768 107.938 32.0947 107.938 32.0036C107.938 31.9124 107.928 31.8395 107.91 31.7848C107.874 31.639 107.855 31.5479 107.855 31.5114C107.855 31.3838 107.919 31.32 108.047 31.32C108.211 31.32 108.493 31.4385 108.895 31.6755C109.022 31.7484 109.086 31.8486 109.086 31.9762C109.086 32.0674 109.068 32.1494 109.031 32.2223C109.013 32.277 109.004 32.3408 109.004 32.4137V33.1794L109.824 33.0973L110.836 32.988C110.927 32.9697 111.027 32.9424 111.137 32.9059C111.264 32.8695 111.365 32.8512 111.438 32.8512C111.547 32.8512 111.684 32.9059 111.848 33.0153C112.158 33.2158 112.312 33.389 112.312 33.5348C112.312 33.6807 112.158 33.7536 111.848 33.7536C111.757 33.7536 111.629 33.7718 111.465 33.8083C111.301 33.8265 111.091 33.8447 110.836 33.863L109.004 33.9997L108.977 35.6676C108.94 35.9411 108.74 36.1143 108.375 36.1872H108.32C108.211 36.1872 108.102 36.1781 107.992 36.1598C107.901 36.1234 107.828 36.1051 107.773 36.1051C107.628 36.1051 107.482 36.1143 107.336 36.1325C107.19 36.1507 107.062 36.2054 106.953 36.2965C106.643 36.57 106.488 36.889 106.488 37.2536C106.488 37.6182 106.661 37.9463 107.008 38.238C107.318 38.5296 107.81 38.6755 108.484 38.6755C109.378 38.639 110.107 38.3929 110.672 37.9372C110.909 37.7731 111.091 37.6911 111.219 37.6911C111.292 37.6911 111.383 37.7093 111.492 37.7458C111.51 37.764 111.547 37.8005 111.602 37.8551C111.656 37.9098 111.684 37.9645 111.684 38.0192C111.684 38.5296 111.255 38.9489 110.398 39.277C109.76 39.514 109.122 39.6325 108.484 39.6325ZM113.242 29.2692C113.333 29.2692 113.47 29.333 113.652 29.4606C113.634 29.4971 113.671 29.57 113.762 29.6794C113.853 29.7705 113.917 29.8343 113.953 29.8708C114.044 29.9619 114.135 30.0713 114.227 30.1989C114.336 30.3265 114.454 30.4632 114.582 30.609C114.91 30.9554 115.667 31.8577 116.852 33.3161C117.052 33.6077 117.152 33.7809 117.152 33.8356C117.152 34.0179 117.043 34.109 116.824 34.109C116.697 34.109 116.56 34.0179 116.414 33.8356C116.068 33.471 115.448 32.8968 114.555 32.113C113.862 31.4749 113.233 30.9827 112.668 30.6364C112.395 30.5088 112.258 30.363 112.258 30.1989C112.258 30.0713 112.395 29.889 112.668 29.652C112.923 29.3968 113.115 29.2692 113.242 29.2692ZM93.8008 33.1247L93.6641 40.0973L93.6367 40.9997L93.5547 41.6286C93.5365 41.7562 93.4909 41.9202 93.418 42.1208L93.1719 42.613C93.0807 42.7406 92.9987 42.8499 92.9258 42.9411L92.707 43.0778C92.5794 43.0778 92.4518 42.9775 92.3242 42.777C92.2513 42.6676 92.1602 42.4489 92.0508 42.1208C91.9232 41.7926 91.832 41.5192 91.7773 41.3005C91.7591 41.1729 91.75 41.0088 91.75 40.8083C91.75 40.5531 91.7956 40.2158 91.8867 39.7965C91.9961 39.3773 92.069 39.0765 92.1055 38.8942C92.1419 38.6937 92.1966 38.2744 92.2695 37.6364L92.4336 36.2145L92.4609 35.1755L92.5156 34.4098C91.7682 35.3395 91.1667 36.0413 90.7109 36.5153C90.2552 36.9893 89.681 37.4906 88.9883 38.0192C88.2956 38.5296 87.7214 38.876 87.2656 39.0583L86.582 39.277L85.707 39.4958C85.6888 39.3864 85.7435 39.2861 85.8711 39.195L86.3086 38.8942C86.418 38.8213 86.6185 38.6755 86.9102 38.4567L88.4961 37.0348C88.9336 36.6156 89.5078 35.9502 90.2188 35.0387C90.9297 34.1455 91.431 33.4072 91.7227 32.8239L92.2148 31.9762L90.0273 32.4411C89.8268 32.4775 89.5716 32.5413 89.2617 32.6325C88.9518 32.7236 88.724 32.7692 88.5781 32.7692C88.3411 32.7692 88.0404 32.6781 87.6758 32.4958L87.3203 32.359C87.0286 32.2314 86.819 32.1038 86.6914 31.9762L86.5547 31.7301C86.5911 31.5843 86.7096 31.5114 86.9102 31.5114L87.8398 31.4567L88.9883 31.3473C89.4076 31.3109 89.8997 31.2562 90.4648 31.1833L92.6797 30.8825L92.7617 28.777L90.3008 29.0231L90.082 29.2145L89.6719 29.2965C89.526 29.1689 89.4076 28.9775 89.3164 28.7223C89.2435 28.4671 89.1888 28.139 89.1523 27.738L88.7148 24.1286C88.6784 23.8734 88.6419 23.6546 88.6055 23.4723C88.5508 23.29 88.4779 23.0713 88.3867 22.8161L88.1953 22.3512L87.8125 21.6676C87.8854 21.5583 88.0404 21.5127 88.2773 21.5309L88.9336 21.6403L89.6445 21.8317L92.8711 21.3942C93.418 21.3395 94.056 21.2484 94.7852 21.1208L96.3711 20.8473C96.6992 20.7744 96.9909 20.6924 97.2461 20.6012L97.6562 20.4645C97.8203 20.4645 98.0755 20.5192 98.4219 20.6286C98.7682 20.738 99.0143 20.8382 99.1602 20.9294C99.306 21.0023 99.5065 21.139 99.7617 21.3395L100.145 21.8044V22.1051L99.8711 22.488C99.6888 22.7249 99.5521 22.9619 99.4609 23.1989C99.3698 23.4541 99.2878 23.7093 99.2148 23.9645L98.1484 27.6286C98.0026 28.1208 97.8841 28.4489 97.793 28.613C97.6836 28.7952 97.556 28.9229 97.4102 28.9958L96.9453 29.0505L96.6992 28.9137L96.5625 28.3669L93.9648 28.6403L93.8555 30.8278L95.3867 30.6911L96.5352 30.5817L97.8203 30.4176C98.1667 30.3812 98.513 30.3265 98.8594 30.2536C99.2057 30.1624 99.4518 30.1169 99.5977 30.1169C99.7799 30.1351 99.9987 30.1989 100.254 30.3083C100.509 30.4176 100.746 30.5361 100.965 30.6637C101.184 30.7913 101.384 30.9463 101.566 31.1286L101.812 31.484C101.794 31.6481 101.712 31.7484 101.566 31.7848C101.421 31.8213 101.238 31.8395 101.02 31.8395L100.309 31.7848C100.163 31.7848 99.6615 31.7666 98.8047 31.7301C97.9479 31.6937 97.3372 31.6755 96.9727 31.6755C96.6081 31.6755 96.125 31.7028 95.5234 31.7575L94.5664 31.8395L93.8281 31.9489C94.0469 32.2406 94.2109 32.4411 94.3203 32.5505L95.332 33.7262L96.6992 35.2028C97.1914 35.695 97.6654 36.1143 98.1211 36.4606C98.5951 36.807 99.1055 37.1077 99.6523 37.363C100.199 37.6546 100.637 37.8643 100.965 37.9919C101.311 38.1195 101.603 38.2197 101.84 38.2926L102.305 38.4567L102.605 38.6481C102.605 38.7939 102.533 38.8942 102.387 38.9489L101.703 39.1403C101.466 39.195 101.056 39.2679 100.473 39.359C99.9805 39.4502 99.5521 39.4958 99.1875 39.4958C98.8411 39.4958 98.5859 39.4593 98.4219 39.3864C98.2578 39.3135 98.0755 39.195 97.875 39.0309C97.6927 38.8486 97.474 38.5843 97.2188 38.238C96.9453 37.8916 96.6081 37.4085 96.207 36.7887L94.8672 34.7926L94.0469 33.5075L93.8008 33.1247ZM90.1367 25.1676L92.707 24.8395L92.6523 24.0192L92.5977 23.5817L92.5156 22.9801L92.2695 22.1598L89.8086 22.5153L90.1367 25.1676ZM92.7617 25.7145C92.1602 25.7874 91.6862 25.8421 91.3398 25.8786C91.1029 25.8968 90.8932 25.9059 90.7109 25.9059L90.1914 25.8786L90.3555 28.0661L92.7617 27.902V25.7145ZM94.3203 24.6481L95.2773 24.4567C95.7513 24.3656 96.043 24.3109 96.1523 24.2926L96.8633 24.402L97.3828 24.4567L97.5742 23.1442C97.6289 22.8525 97.6562 22.5973 97.6562 22.3786L97.6016 21.9958C97.5469 21.8682 97.4466 21.777 97.3008 21.7223C97.1914 21.6859 97.0182 21.6676 96.7812 21.6676L93.6367 22.0231C93.9831 22.2236 94.2383 22.3968 94.4023 22.5426L94.6758 22.9528C94.694 23.0622 94.6576 23.208 94.5664 23.3903C94.4935 23.6273 94.4388 23.8825 94.4023 24.1559L94.3203 24.6481ZM94.0742 27.6286C94.5299 27.5921 95.0039 27.5374 95.4961 27.4645C95.8971 27.3916 96.1706 27.3551 96.3164 27.3551L96.8086 27.3825L96.9727 26.6989L97.2461 25.2497L94.1836 25.6051L94.0742 27.6286ZM83.957 24.5661C83.793 24.4567 83.6654 24.3473 83.5742 24.238C83.4648 24.1286 83.3646 24.0101 83.2734 23.8825C83.1823 23.7367 83.0638 23.527 82.918 23.2536L82.5352 22.4333C82.4258 22.1598 82.2799 21.8135 82.0977 21.3942L81.9062 20.9294L81.9336 20.7106L82.2891 20.6286L82.7539 20.7926C82.9727 20.902 83.1732 21.0114 83.3555 21.1208C83.5378 21.2119 83.7201 21.3213 83.9023 21.4489C84.0846 21.5583 84.2487 21.695 84.3945 21.859C84.5404 22.0049 84.668 22.1598 84.7773 22.3239C84.8867 22.4697 84.9505 22.652 84.9688 22.8708L84.9961 23.1169L84.9688 23.3903C84.9505 23.5544 84.9049 23.7093 84.832 23.8551C84.7956 24.001 84.7135 24.165 84.5859 24.3473L85.6523 24.238C86.0169 24.165 86.2721 24.1286 86.418 24.1286C86.5638 24.1286 86.7461 24.165 86.9648 24.238C87.2201 24.3109 87.4388 24.402 87.6211 24.5114C87.8034 24.6208 87.8854 24.7848 87.8672 25.0036C87.8125 25.113 87.7122 25.1676 87.5664 25.1676C87.457 25.2041 87.2747 25.2314 87.0195 25.2497C86.7643 25.2861 86.418 25.3317 85.9805 25.3864C85.5794 25.4593 85.1966 25.5231 84.832 25.5778L82.918 25.9606C82.5898 26.0153 82.2253 26.0973 81.8242 26.2067C81.4232 26.3161 81.0677 26.4072 80.7578 26.4801C80.4479 26.5531 80.1836 26.6442 79.9648 26.7536L79.5547 26.9176C79.3906 26.9176 79.2357 26.8994 79.0898 26.863C78.944 26.8265 78.7799 26.7718 78.5977 26.6989L78.1328 26.5075C78.0052 26.4528 77.8503 26.3617 77.668 26.234L77.3945 25.988L77.4219 25.6872L77.8047 25.5778L78.5156 25.4958C78.9167 25.4593 79.7188 25.3317 80.9219 25.113L83.957 24.5661ZM80.9492 28.7223L81.3867 28.6403C81.569 28.6221 81.8151 28.5674 82.125 28.4762C82.4531 28.3851 82.7721 28.3031 83.082 28.2301C83.4102 28.139 83.6836 28.0479 83.9023 27.9567L84.2852 27.8473L84.6953 27.82C84.8229 27.8382 85.0143 27.8747 85.2695 27.9294C85.5247 27.984 85.7161 28.0479 85.8438 28.1208L86.0352 28.2848L85.9531 28.5036L85.707 28.6676L84.7773 28.8864L82.5898 29.3786L82.2344 29.488L81.9883 29.5426C81.8607 29.5426 81.7148 29.5335 81.5508 29.5153L81.0312 29.4059C80.7943 29.2965 80.6302 29.096 80.5391 28.8044L80.9492 28.7223ZM81.0039 31.4294L81.4141 31.3473L82.0156 31.238L83.0547 31.0192L83.875 30.7458C84.0573 30.7093 84.2396 30.682 84.4219 30.6637C84.5677 30.6637 84.7044 30.6729 84.832 30.6911C85.0508 30.7093 85.2331 30.7458 85.3789 30.8005C85.5247 30.8551 85.6706 30.9189 85.8164 30.9919L86.0078 31.1559L85.9805 31.3747C85.9076 31.4658 85.7982 31.5114 85.6523 31.5114L84.3398 31.7848L82.9727 32.0583L82.0977 32.277L81.4688 32.2497C81.3047 32.2132 81.1315 32.1676 80.9492 32.113C80.7669 32.04 80.6393 31.8395 80.5664 31.5114C80.7852 31.4749 80.931 31.4476 81.0039 31.4294ZM80.8945 34.6286L82.4258 34.3005C82.6081 34.264 82.7812 34.2184 82.9453 34.1637L83.6836 33.9176C84.0117 33.8083 84.2578 33.6989 84.4219 33.5895L84.75 33.4255C84.8776 33.4255 85.0326 33.4619 85.2148 33.5348C85.3971 33.6077 85.6068 33.6989 85.8438 33.8083C86.0807 33.9176 86.2904 34.0361 86.4727 34.1637C86.6367 34.2731 86.6823 34.4554 86.6094 34.7106C86.4453 34.9111 86.3177 35.0934 86.2266 35.2575C86.1354 35.4215 86.0534 35.5856 85.9805 35.7497C85.9076 35.9137 85.8346 36.1051 85.7617 36.3239L85.2148 37.9098L85.543 38.1286L85.6523 38.5934C85.5247 38.6117 85.3971 38.6299 85.2695 38.6481C85.1237 38.6481 84.9688 38.6572 84.8047 38.6755L84.4766 38.7028C84.349 38.721 84.0299 38.7666 83.5195 38.8395L81.8789 39.2223C81.7695 39.4593 81.5781 39.5596 81.3047 39.5231C81.1224 39.359 81.0039 39.2041 80.9492 39.0583C80.8763 38.8942 80.8398 38.7393 80.8398 38.5934L80.4844 36.652C80.4297 36.3968 80.3659 36.1598 80.293 35.9411C80.2383 35.7223 80.1745 35.54 80.1016 35.3942C80.0104 35.2666 79.9102 35.1572 79.8008 35.0661L79.5273 34.6833C79.5638 34.5557 79.6823 34.4736 79.8828 34.4372L80.3477 34.5192L80.8945 34.6286ZM81.9336 38.1559L84.1211 37.6911L84.5039 35.3669L84.5312 35.0661L84.3945 34.7926C84.2305 34.7744 84.0117 34.7926 83.7383 34.8473L81.5508 35.2848L81.9336 38.1559Z" fill="#333333"/>
<path d="M153.027 29.2692C152.754 29.2692 152.553 29.1234 152.426 28.8317L152.18 28.2848C151.469 28.4671 150.895 28.6038 150.457 28.695L148.68 29.1325C148.315 29.2236 148.087 29.2692 147.996 29.2692C147.887 29.2692 147.796 29.251 147.723 29.2145C147.668 29.1598 147.622 29.1143 147.586 29.0778C147.549 29.0231 147.522 28.9775 147.504 28.9411C147.358 28.6859 147.294 28.5127 147.312 28.4215L147.504 28.1208C147.978 27.4645 148.415 26.5257 148.816 25.3044L148.27 25.3864L147.559 25.4684C147.504 25.4867 147.385 25.5231 147.203 25.5778C147.039 25.6143 146.911 25.6051 146.82 25.5505C146.62 25.4229 146.355 25.195 146.027 24.8669C145.954 24.7939 145.918 24.7393 145.918 24.7028C145.918 24.5934 146.118 24.5387 146.52 24.5387H147.449C148.069 24.5023 148.634 24.4567 149.145 24.402C149.254 24.1286 149.372 23.7822 149.5 23.363C149.628 22.9437 149.719 22.6064 149.773 22.3512C149.773 22.2965 149.773 22.1872 149.773 22.0231C149.792 21.859 149.828 21.7588 149.883 21.7223H149.91C149.983 21.7223 150.083 21.7588 150.211 21.8317C150.339 21.9046 150.457 21.9958 150.566 22.1051C150.913 22.4515 151.013 22.7249 150.867 22.9255C150.794 22.9437 150.639 23.2445 150.402 23.8278C150.384 23.8643 150.32 24.0283 150.211 24.32C150.357 24.3018 150.885 24.238 151.797 24.1286C152.216 24.0921 152.535 24.0465 152.754 23.9919C153.064 23.9007 153.31 23.8551 153.492 23.8551C153.638 23.8551 153.757 23.9098 153.848 24.0192C153.939 24.1104 154.003 24.1742 154.039 24.2106C154.094 24.2653 154.158 24.3747 154.23 24.5387C154.303 24.6663 154.331 24.7575 154.312 24.8122C154.24 24.9215 154.112 24.9762 153.93 24.9762C153.328 24.9398 152.608 24.958 151.77 25.0309C151.405 25.0674 151.132 25.1038 150.949 25.1403L149.883 25.2497L149.637 25.988L149.336 26.6442C149.245 26.863 149.145 27.0817 149.035 27.3005C148.926 27.5192 148.844 27.7015 148.789 27.8473C148.771 27.8838 148.762 27.9385 148.762 28.0114C148.762 28.1025 148.816 28.1481 148.926 28.1481C149.072 28.1481 149.573 28.0661 150.43 27.902L151.441 27.738L151.906 27.6286C151.742 27.1729 151.615 26.8812 151.523 26.7536C151.432 26.626 151.378 26.5439 151.359 26.5075L151.523 26.3434C152.234 26.7992 152.809 27.264 153.246 27.738C153.374 27.902 153.456 28.057 153.492 28.2028C153.547 28.3486 153.565 28.5127 153.547 28.695C153.51 28.859 153.447 28.9867 153.355 29.0778C153.319 29.1689 153.21 29.2327 153.027 29.2692ZM153.492 38.5661C153.747 38.7301 153.875 38.8851 153.875 39.0309C153.875 39.2314 153.72 39.359 153.41 39.4137C153.1 39.4684 152.663 39.5049 152.098 39.5231C151.277 39.5413 150.749 39.514 150.512 39.4411C150.111 39.2588 149.91 38.958 149.91 38.5387L149.938 37.527C149.974 37.1989 149.992 36.9072 149.992 36.652C150.01 36.488 150.02 36.1689 150.02 35.695C149.746 36.3148 149.391 36.9163 148.953 37.4997C148.643 37.8825 148.37 38.2015 148.133 38.4567C147.896 38.6937 147.613 38.9215 147.285 39.1403C146.957 39.359 146.656 39.4684 146.383 39.4684C146.219 39.4684 146.137 39.4137 146.137 39.3044C146.137 39.2861 146.31 39.1494 146.656 38.8942C147.021 38.6208 147.385 38.2471 147.75 37.7731C148.297 37.0439 148.771 36.1872 149.172 35.2028C148.461 35.2939 147.987 35.376 147.75 35.4489C147.659 35.4671 147.577 35.4945 147.504 35.5309C147.431 35.5492 147.34 35.5492 147.23 35.5309C147.139 35.4945 147.012 35.4215 146.848 35.3122C146.684 35.1846 146.556 35.0661 146.465 34.9567C146.392 34.8473 146.355 34.7744 146.355 34.738C146.355 34.6468 146.492 34.6012 146.766 34.6012C147.44 34.6012 148.306 34.5283 149.363 34.3825C149.473 33.9632 149.527 33.2887 149.527 32.359V31.8395C149.527 31.6208 149.573 31.5023 149.664 31.484C149.682 31.4658 149.719 31.4567 149.773 31.4567C149.919 31.4567 150.12 31.5661 150.375 31.7848C150.576 31.9489 150.703 32.0765 150.758 32.1676C150.831 32.2406 150.84 32.3408 150.785 32.4684C150.767 32.5049 150.73 32.5778 150.676 32.6872C150.621 32.7965 150.585 32.9059 150.566 33.0153C150.548 33.1064 150.512 33.2887 150.457 33.5622C150.402 33.8174 150.366 34.0452 150.348 34.2458C150.603 34.2275 150.922 34.1911 151.305 34.1364C151.688 34.0817 151.97 34.027 152.152 33.9723L152.699 33.8356C152.882 33.7992 153.182 33.9541 153.602 34.3005C153.674 34.3551 153.711 34.4189 153.711 34.4919C153.711 34.5648 153.674 34.6286 153.602 34.6833C153.547 34.7197 153.474 34.738 153.383 34.738C153.055 34.738 152.453 34.7926 151.578 34.902L150.676 34.984C150.876 35.1299 151.004 35.2575 151.059 35.3669C151.113 35.4762 151.122 35.5856 151.086 35.695L151.004 36.1325C150.967 36.4971 150.931 36.8981 150.895 37.3356C150.876 37.7731 150.876 38.1104 150.895 38.3473C150.895 38.4385 150.949 38.5205 151.059 38.5934C151.186 38.6663 151.314 38.7028 151.441 38.7028C151.897 38.7028 152.408 38.6572 152.973 38.5661L153.219 38.5114C153.328 38.5114 153.419 38.5296 153.492 38.5661ZM158.742 27.0817C158.961 27.0817 159.07 27.182 159.07 27.3825C159.07 27.4919 158.97 27.6468 158.77 27.8473C158.223 28.5218 157.138 29.807 155.516 31.7028C155.388 31.8669 155.27 31.9489 155.16 31.9489C155.069 31.9489 154.868 31.8122 154.559 31.5387C154.303 31.32 154.176 31.1377 154.176 30.9919C154.176 30.8278 154.312 30.6729 154.586 30.527C155.005 30.29 155.634 29.8161 156.473 29.1051C157.311 28.3577 157.931 27.7653 158.332 27.3278C158.496 27.1637 158.633 27.0817 158.742 27.0817ZM132 25.7419C132.438 25.6872 132.775 25.6507 133.012 25.6325L134.844 25.4411C136.138 25.2952 136.849 25.2132 136.977 25.195L138.398 25.0036C139.036 24.9489 139.492 24.8851 139.766 24.8122L140.23 24.7301C140.467 24.7301 140.677 24.7848 140.859 24.8942C141.06 25.0036 141.352 25.2223 141.734 25.5505L142.5 26.234C142.646 26.3617 142.773 26.5531 142.883 26.8083L142.965 27.2731C142.892 27.4189 142.682 27.5192 142.336 27.5739C142.008 27.6286 141.625 27.7106 141.188 27.82C140.75 27.9111 140.367 28.0114 140.039 28.1208C139.729 28.2119 139.474 28.2939 139.273 28.3669L138.371 28.4215L138.781 27.8747C138.909 27.7288 139.009 27.6104 139.082 27.5192C139.137 27.4098 139.246 27.2275 139.41 26.9723C139.574 26.6989 139.674 26.471 139.711 26.2887V26.0426C139.656 25.915 139.438 25.8604 139.055 25.8786C138.727 25.915 138.262 25.9424 137.66 25.9606C137.059 25.9788 136.493 26.0153 135.965 26.07C135.418 26.1247 134.643 26.2067 133.641 26.3161L130.742 26.6442C129.794 26.7536 129.174 26.8265 128.883 26.863L126.805 27.109C126.148 27.2002 125.665 27.264 125.355 27.3005L124.781 27.3825H124.234L123.797 27.3278C123.724 27.6742 123.66 27.9476 123.605 28.1481C123.551 28.3486 123.432 28.6859 123.25 29.1598C123.068 29.6156 122.904 29.9801 122.758 30.2536C122.612 30.527 122.43 30.7549 122.211 30.9372C121.992 31.1012 121.792 31.1833 121.609 31.1833C121.445 31.1468 121.299 30.9827 121.172 30.6911C121.062 30.3994 121.008 30.0895 121.008 29.7614L121.035 29.3512C121.09 29.1872 121.227 28.9411 121.445 28.613C121.664 28.2848 121.855 27.9111 122.02 27.4919C122.184 27.0726 122.32 26.6898 122.43 26.3434C122.539 25.9971 122.63 25.7327 122.703 25.5505L122.949 25.277C123.059 25.2588 123.168 25.2952 123.277 25.3864C123.368 25.4958 123.451 25.6416 123.523 25.8239L123.66 26.234C123.97 26.2158 124.198 26.2067 124.344 26.2067L125.766 26.152L127.023 26.07L128.281 25.988L130.414 25.8512L130.359 23.363V22.2692C130.359 21.8682 130.341 21.5218 130.305 21.2301C130.286 20.9385 130.25 20.665 130.195 20.4098C130.141 20.1546 130.086 19.9723 130.031 19.863L129.73 19.1794C129.785 19.0335 129.949 18.9515 130.223 18.9333C130.441 18.915 130.697 18.9515 130.988 19.0426C131.389 19.1156 131.681 19.1794 131.863 19.234C132.027 19.2887 132.182 19.3708 132.328 19.4801L132.52 19.945C132.428 20.2184 132.355 20.501 132.301 20.7926C132.246 21.1208 132.201 21.3486 132.164 21.4762C132.164 21.6038 132.155 21.8499 132.137 22.2145L132.055 23.4176L132 25.7419ZM130.414 40.0973L130.359 37.5817C129.922 37.6182 129.484 37.6455 129.047 37.6637L128.172 37.7184C127.753 37.7184 127.415 37.6911 127.16 37.6364C126.814 37.5635 126.559 37.4814 126.395 37.3903L126.121 37.1715L126.066 36.8981L126.422 36.7887L127.242 36.7614L128.391 36.652L129.539 36.5426L130.359 36.4333V35.7497C130.359 35.5492 130.323 35.2301 130.25 34.7926C130.177 34.3551 130.104 34.0452 130.031 33.863L129.84 33.5348L129.074 33.5895H128.336C128.299 33.7536 128.245 33.8994 128.172 34.027C128.099 34.1364 127.962 34.2002 127.762 34.2184L127.461 33.7536C127.37 33.5713 127.306 33.3434 127.27 33.07L127.16 32.277L126.969 31.238C126.896 30.8734 126.832 30.5999 126.777 30.4176C126.723 30.2354 126.641 30.0804 126.531 29.9528C126.404 29.8252 126.267 29.6976 126.121 29.57L125.957 29.2145L126.285 29.1051L127.023 29.1872L127.406 29.2692C127.734 29.2327 128.026 29.1963 128.281 29.1598C128.555 29.1234 129.138 29.0413 130.031 28.9137C130.924 28.8044 131.663 28.7041 132.246 28.613C132.829 28.54 133.312 28.4671 133.695 28.3942L134.434 28.2848L134.68 28.2575C134.862 28.2757 135.053 28.3213 135.254 28.3942C135.454 28.4671 135.646 28.5765 135.828 28.7223C136.029 28.8499 136.238 29.0049 136.457 29.1872L136.785 29.5426L136.676 29.8708L136.402 30.1442C136.257 30.2718 136.12 30.4085 135.992 30.5544C135.865 30.7184 135.719 30.9281 135.555 31.1833C135.372 31.4385 135.236 31.6755 135.145 31.8942L134.844 32.4958C134.99 32.6051 135.099 32.8148 135.172 33.1247C135.044 33.1794 134.826 33.2067 134.516 33.2067C134.224 33.2067 133.841 33.2249 133.367 33.2614L131.945 33.3434L130.961 33.3708C131.234 33.4801 131.49 33.5713 131.727 33.6442C131.945 33.7354 132.109 33.8538 132.219 33.9997L132.328 34.4645C132.201 34.738 132.128 34.9749 132.109 35.1755V35.5583L132.055 36.1872C132.365 36.1507 132.602 36.1143 132.766 36.0778L133.668 35.8864L134.434 35.7223C134.689 35.6859 134.908 35.6676 135.09 35.6676L135.609 35.8044C135.901 35.8955 136.138 36.014 136.32 36.1598L136.539 36.4333C136.539 36.5609 136.466 36.6611 136.32 36.734C136.193 36.807 135.974 36.8525 135.664 36.8708L134.27 37.1169L132.82 37.3083L132 37.4176L131.945 38.484L131.891 40.0426C132.365 40.0062 132.884 39.9697 133.449 39.9333C134.014 39.8968 134.379 39.8695 134.543 39.8512C134.689 39.833 135.154 39.7783 135.938 39.6872C136.721 39.596 137.195 39.5505 137.359 39.5505C137.505 39.514 137.724 39.4775 138.016 39.4411C138.307 39.4046 138.517 39.3864 138.645 39.3864C138.772 39.3864 138.945 39.4229 139.164 39.4958C139.419 39.5505 139.665 39.6416 139.902 39.7692C140.158 39.8786 140.367 39.9971 140.531 40.1247C140.714 40.2523 140.85 40.3708 140.941 40.4801C141.033 40.6077 141.078 40.7354 141.078 40.863C141.042 41.0088 140.932 41.0817 140.75 41.0817H139.41C139.246 41.0999 138.818 41.109 138.125 41.109H137.359C136.794 41.109 136.12 41.1182 135.336 41.1364C134.169 41.1546 133.185 41.182 132.383 41.2184C131.544 41.2367 130.724 41.2822 129.922 41.3551L127.844 41.5465C127.224 41.6012 126.641 41.6742 126.094 41.7653C125.547 41.8564 125.128 41.9294 124.836 41.984L124.316 42.0661C124.079 42.0661 123.87 42.0387 123.688 41.984C123.505 41.9294 123.296 41.8473 123.059 41.738C122.822 41.6286 122.63 41.5283 122.484 41.4372C122.32 41.346 122.193 41.2367 122.102 41.109L121.992 40.863C122.065 40.7171 122.211 40.6442 122.43 40.6442L123.551 40.5895L125 40.5622C125.365 40.5439 125.875 40.5075 126.531 40.4528L128.281 40.3161C129.029 40.2432 129.484 40.1976 129.648 40.1794L130.414 40.0973ZM127.898 30.0348C127.971 30.4359 128.026 30.7275 128.062 30.9098L128.172 31.8669L128.281 32.6872C128.664 32.6689 128.956 32.6416 129.156 32.6051L130.523 32.4958C131.107 32.4593 131.581 32.4137 131.945 32.359L132.984 32.195L133.531 32.113C133.586 31.9124 133.632 31.7393 133.668 31.5934C133.723 31.4476 133.786 31.1833 133.859 30.8005C133.932 30.3994 133.987 30.0622 134.023 29.7887L133.996 29.488C133.905 29.3786 133.714 29.3239 133.422 29.3239C133.057 29.3239 132.693 29.3421 132.328 29.3786C131.945 29.415 131.581 29.4606 131.234 29.5153C130.906 29.57 130.587 29.6156 130.277 29.652L129.211 29.8434C128.883 29.8981 128.646 29.9528 128.5 30.0075L128.227 30.0895L127.898 30.0348ZM125.355 21.695L125.574 21.6676C126.03 21.7406 126.385 21.8135 126.641 21.8864C126.896 21.9593 127.169 22.0778 127.461 22.2419C127.753 22.4059 127.953 22.5791 128.062 22.7614C128.172 22.9255 128.236 23.1898 128.254 23.5544C128.254 23.846 128.208 24.083 128.117 24.2653C128.008 24.484 127.826 24.6299 127.57 24.7028C127.424 24.7028 127.279 24.6663 127.133 24.5934C126.987 24.5205 126.805 24.32 126.586 23.9919L125.984 23.2262L125.684 22.7067C125.483 22.415 125.355 22.2054 125.301 22.0778C125.246 21.9502 125.264 21.8226 125.355 21.695ZM133.859 23.9645L134.406 23.1989L134.98 22.4333C135.163 22.1781 135.299 21.9775 135.391 21.8317C135.5 21.6859 135.6 21.4945 135.691 21.2575C135.783 21.0387 135.828 20.8291 135.828 20.6286L136.102 20.1911C136.284 20.1729 136.493 20.2093 136.73 20.3005C137.004 20.3916 137.214 20.4645 137.359 20.5192C137.505 20.5921 137.678 20.7015 137.879 20.8473C138.079 20.9932 138.225 21.1481 138.316 21.3122L138.207 21.7497C137.934 21.8226 137.724 21.9229 137.578 22.0505C137.396 22.1963 137.086 22.415 136.648 22.7067L135.801 23.2809C135.491 23.4997 135.227 23.6546 135.008 23.7458L134.133 24.1833H133.723L133.859 23.9645Z" fill="#333333"/>
<path d="M193.359 30.2262C193.177 30.4632 192.986 30.5817 192.785 30.5817C192.73 30.5817 192.703 30.5361 192.703 30.445C192.703 30.3174 192.74 30.1715 192.812 30.0075C192.812 30.0075 192.995 29.6429 193.359 28.9137C193.378 28.8408 193.405 28.7679 193.441 28.695C193.478 28.6221 193.505 28.5583 193.523 28.5036V28.4762C193.523 28.4398 193.496 28.4033 193.441 28.3669C193.387 28.3304 193.323 28.3213 193.25 28.3395C192.958 28.3577 192.521 28.4033 191.938 28.4762C191.372 28.5492 190.953 28.6221 190.68 28.695C190.57 28.7314 190.434 28.777 190.27 28.8317C190.124 28.8864 190.005 28.9137 189.914 28.9137C189.586 28.9137 189.312 28.8135 189.094 28.613C188.911 28.4854 188.775 28.3577 188.684 28.2301L188.629 28.0934C188.629 28.0023 188.784 27.9749 189.094 28.0114C189.513 28.0479 190.379 27.9932 191.691 27.8473L192.238 27.7653C192.384 27.7471 192.612 27.7197 192.922 27.6833C193.25 27.6286 193.505 27.5739 193.688 27.5192C193.742 27.501 193.797 27.4827 193.852 27.4645C193.924 27.4281 193.988 27.4098 194.043 27.4098C194.134 27.4098 194.243 27.4554 194.371 27.5465C194.517 27.6377 194.635 27.7197 194.727 27.7926C194.854 27.8838 194.936 27.9658 194.973 28.0387C195.027 28.0934 195.046 28.1663 195.027 28.2575C195.027 28.3486 194.982 28.4307 194.891 28.5036C194.799 28.5765 194.736 28.6312 194.699 28.6676C194.663 28.7223 194.535 28.859 194.316 29.0778C194.225 29.2236 194.061 29.4242 193.824 29.6794C193.605 29.9346 193.451 30.1169 193.359 30.2262ZM191.992 35.613C191.992 35.5583 192.083 35.4215 192.266 35.2028C192.466 34.9658 192.621 34.7835 192.73 34.6559C193.004 34.2913 193.332 33.7627 193.715 33.07C194.116 32.3773 194.344 31.9215 194.398 31.7028C194.435 31.5934 194.38 31.5387 194.234 31.5387C193.943 31.5387 193.141 31.6208 191.828 31.7848C190.971 31.8942 190.333 32.0036 189.914 32.113C189.823 32.1676 189.732 32.195 189.641 32.195C189.495 32.195 189.34 32.0947 189.176 31.8942C189.103 31.7666 189.066 31.6481 189.066 31.5387C189.066 31.4658 189.112 31.3929 189.203 31.32L189.285 31.2106C189.34 31.1012 189.404 30.9554 189.477 30.7731C189.549 30.5908 189.613 30.4176 189.668 30.2536C189.759 29.9619 189.823 29.6429 189.859 29.2965C189.878 29.096 189.987 29.0413 190.188 29.1325C190.443 29.2601 190.634 29.3877 190.762 29.5153C190.908 29.6247 190.953 29.7067 190.898 29.7614C190.716 29.9801 190.57 30.2262 190.461 30.4997C190.37 30.7913 190.315 30.9827 190.297 31.0739C190.297 31.1468 190.342 31.1833 190.434 31.1833C190.707 31.1833 191.117 31.1377 191.664 31.0465C191.974 31.0101 192.357 30.9645 192.812 30.9098C193.268 30.8551 193.633 30.8005 193.906 30.7458L194.59 30.609C194.645 30.5908 194.717 30.5817 194.809 30.5817C194.9 30.5817 194.991 30.6182 195.082 30.6911C195.173 30.7458 195.273 30.8187 195.383 30.9098C195.565 31.0739 195.684 31.2106 195.738 31.32C195.793 31.4111 195.82 31.5205 195.82 31.6481C195.82 31.721 195.766 31.8122 195.656 31.9215C195.565 32.0309 195.456 32.2041 195.328 32.4411C194.799 33.5166 194.116 34.4189 193.277 35.1481C193.04 35.3304 192.776 35.4854 192.484 35.613C192.357 35.6494 192.238 35.6768 192.129 35.695C192.038 35.695 191.992 35.6676 191.992 35.613ZM172.223 31.2106L176.516 30.9645C176.57 30.5999 176.598 30.3265 176.598 30.1442L176.543 29.2145L176.816 29.0778C177.035 29.096 177.217 29.1325 177.363 29.1872C177.509 29.2419 177.719 29.3512 177.992 29.5153C178.266 29.6794 178.466 29.8343 178.594 29.9801L178.785 30.2536L178.676 30.8005L180.48 30.5817L181.793 30.445C182.34 30.3903 182.796 30.3265 183.16 30.2536C183.525 30.1807 183.798 30.1442 183.98 30.1442C184.163 30.1442 184.354 30.1898 184.555 30.2809C184.755 30.3538 185.029 30.4814 185.375 30.6637C185.721 30.8278 185.986 30.9827 186.168 31.1286C186.314 31.238 186.359 31.4294 186.305 31.7028C186.177 31.8122 186.004 31.8669 185.785 31.8669L184.664 31.8942L180.48 31.8669L178.293 31.8942C178.111 32.3135 177.938 32.7327 177.773 33.152C177.609 33.5895 177.372 34.1364 177.062 34.7926C176.753 35.4307 176.452 35.9593 176.16 36.3786L175.832 36.8708L177.418 37.6364C178.001 37.9281 178.484 38.1924 178.867 38.4294C179.25 38.6663 179.633 38.9854 180.016 39.3864C180.398 39.7874 180.654 40.1702 180.781 40.5348C180.909 40.8994 180.973 41.2093 180.973 41.4645C180.973 41.6833 180.936 41.8473 180.863 41.9567L180.699 42.1755L180.316 42.3122C180.189 42.3122 180.061 42.2848 179.934 42.2301C179.788 42.1572 179.605 42.0387 179.387 41.8747C179.168 41.7106 178.703 41.2913 177.992 40.6169C177.281 39.9606 176.634 39.4046 176.051 38.9489L174.766 38.0739C174.237 38.5661 173.754 38.9762 173.316 39.3044C172.897 39.6507 172.368 39.988 171.73 40.3161C171.092 40.6442 170.391 40.9085 169.625 41.109C168.878 41.3096 168.249 41.4281 167.738 41.4645H166.098L165.715 41.4372L165.605 41.2731C165.624 41.1637 165.733 41.0817 165.934 41.027L166.371 40.9176C166.699 40.8447 166.973 40.7718 167.191 40.6989C167.428 40.6442 167.866 40.4984 168.504 40.2614C169.16 40.0244 169.816 39.7236 170.473 39.359C171.165 39.0127 171.749 38.6025 172.223 38.1286L173.289 37.1442L171.293 36.1598C170.855 35.9411 170.436 35.7679 170.035 35.6403C169.634 35.5127 169.352 35.3942 169.188 35.2848C169.023 35.1572 168.941 35.0205 168.941 34.8747C168.941 34.7288 169.005 34.5557 169.133 34.3551L169.543 33.8083C169.816 33.4437 170.017 33.1338 170.145 32.8786L170.363 32.3864C169.816 32.4593 169.306 32.5231 168.832 32.5778C168.34 32.6325 167.72 32.7327 166.973 32.8786L165.633 33.1247L164.566 33.3708C164.311 33.4072 164.102 33.4255 163.938 33.4255C163.701 33.4255 163.473 33.3799 163.254 33.2887L162.57 32.9606C162.206 32.7965 161.969 32.5413 161.859 32.195C161.914 32.0674 162.051 31.9945 162.27 31.9762L163.363 31.9215L165.523 31.8395L168.723 31.5661L170.801 31.402C170.91 31.0374 171.029 30.682 171.156 30.3356C171.284 29.971 171.375 29.5882 171.43 29.1872C171.503 28.8044 171.548 28.3942 171.566 27.9567C171.585 27.738 171.594 27.5465 171.594 27.3825L171.566 27.109L171.375 26.3434L171.348 25.988C171.421 25.8786 171.548 25.8239 171.73 25.8239C171.949 25.8421 172.186 25.8968 172.441 25.988C172.697 26.0609 172.97 26.1976 173.262 26.3981C173.59 26.5986 173.818 26.7809 173.945 26.945L174.137 27.4098L173.973 27.738C173.882 27.902 173.745 28.1208 173.562 28.3942C173.38 28.6859 173.262 28.9046 173.207 29.0505L172.414 30.8551L172.223 31.2106ZM176.379 31.9762L171.785 32.277L170.773 34.027L170.527 34.7926L171.539 35.2301L174.246 36.2145L174.848 35.3395C175.012 35.0661 175.212 34.7015 175.449 34.2458C175.704 33.79 175.887 33.4072 175.996 33.0973L176.379 31.9762ZM168.012 23.527C169.762 23.4723 170.801 23.4268 171.129 23.3903L174.465 23.1169C174.191 22.8799 174.009 22.6885 173.918 22.5426L173.043 21.0114C172.77 20.6104 172.624 20.3278 172.605 20.1637L172.742 19.8083C172.888 19.79 173.061 19.8083 173.262 19.863L174.547 20.3278C174.875 20.4554 175.158 20.6559 175.395 20.9294C175.632 21.2028 175.777 21.4945 175.832 21.8044L175.859 22.0778L175.832 22.4333L175.613 22.9528L179.496 22.488C180.079 22.415 180.517 22.3239 180.809 22.2145L181.328 22.0778C181.529 22.096 181.747 22.1689 181.984 22.2965C182.221 22.4424 182.586 22.7249 183.078 23.1442C183.57 23.5635 183.889 23.9189 184.035 24.2106C184.145 24.4111 184.19 24.6117 184.172 24.8122C184.117 24.9398 183.935 25.04 183.625 25.113L182.887 25.277C182.595 25.3499 182.221 25.4684 181.766 25.6325C181.31 25.7965 180.9 25.9697 180.535 26.152L179.797 26.4801L179.441 26.2887L179.797 25.6598C179.852 25.5505 179.988 25.3317 180.207 25.0036C180.426 24.6755 180.599 24.3929 180.727 24.1559L180.836 23.8551L180.809 23.6364C180.699 23.4906 180.517 23.3994 180.262 23.363C180.098 23.3447 179.943 23.3447 179.797 23.363L178.184 23.445C177.892 23.4632 177.154 23.5452 175.969 23.6911C174.766 23.8369 174.082 23.9189 173.918 23.9372L171.539 24.2926L170.199 24.5114L169.023 24.7301L168.121 24.6481C168.085 24.8851 168.048 25.1038 168.012 25.3044C167.975 25.5049 167.857 25.833 167.656 26.2887C167.474 26.7262 167.283 27.1182 167.082 27.4645C166.863 27.7926 166.626 27.9749 166.371 28.0114C166.152 28.0114 165.952 27.9294 165.77 27.7653C165.551 27.5648 165.432 27.3096 165.414 26.9997C165.414 26.6715 165.451 26.4163 165.523 26.234L166.043 25.3317L166.754 23.4997L166.973 22.7887C167.064 22.5518 167.173 22.4242 167.301 22.4059C167.428 22.4059 167.538 22.4697 167.629 22.5973C167.738 22.7432 167.829 22.9163 167.902 23.1169L168.012 23.527Z" fill="#333333"/>
<path d="M237.492 28.4215C237.747 28.6403 237.875 28.9958 237.875 29.488C237.839 29.7614 237.72 29.889 237.52 29.8708C237.283 29.889 236.991 29.7432 236.645 29.4333C236.499 29.2692 236.198 29.014 235.742 28.6676C235.305 28.3031 234.913 28.0114 234.566 27.7926C234.038 28.2666 233.4 28.7223 232.652 29.1598C231.923 29.5973 231.34 29.8161 230.902 29.8161C230.72 29.8161 230.629 29.7614 230.629 29.652C230.629 29.6156 230.839 29.4697 231.258 29.2145C231.75 28.9411 232.233 28.6221 232.707 28.2575C233.163 27.9111 233.536 27.5921 233.828 27.3005L233.199 26.945C232.78 26.6715 232.507 26.5075 232.379 26.4528C231.832 26.1064 231.559 25.8877 231.559 25.7965C231.559 25.7419 231.65 25.7145 231.832 25.7145C231.978 25.6963 232.315 25.8057 232.844 26.0426L234.375 26.7536L234.785 26.3161C234.84 26.2432 234.904 26.1702 234.977 26.0973C235.049 26.0244 235.122 25.9424 235.195 25.8512C235.469 25.5049 235.688 25.2132 235.852 24.9762C236.034 24.721 236.134 24.5296 236.152 24.402C236.152 24.3291 236.089 24.2926 235.961 24.2926C235.779 24.2926 235.387 24.3382 234.785 24.4294L234.129 24.5114C233.618 24.5843 233.19 24.6663 232.844 24.7575C232.643 24.7939 232.47 24.8486 232.324 24.9215C232.27 24.9398 232.188 24.9489 232.078 24.9489C231.969 24.9489 231.887 24.9489 231.832 24.9489C231.777 24.9307 231.732 24.8942 231.695 24.8395C231.659 24.8031 231.604 24.7393 231.531 24.6481C231.44 24.5023 231.395 24.3838 231.395 24.2926C231.395 24.2562 231.467 24.165 231.613 24.0192L232.133 23.4176C232.26 23.2536 232.415 22.9984 232.598 22.652C232.78 22.2874 232.88 22.0049 232.898 21.8044C232.898 21.7497 232.935 21.7223 233.008 21.7223C233.172 21.7223 233.363 21.8135 233.582 21.9958C233.673 22.0687 233.746 22.1507 233.801 22.2419C233.874 22.333 233.91 22.4059 233.91 22.4606C233.91 22.5335 233.865 22.6156 233.773 22.7067C233.682 22.7979 233.473 23.0713 233.145 23.527L232.762 24.0192L234.348 23.7458C235.022 23.6911 235.523 23.6182 235.852 23.527L236.262 23.4723C236.353 23.4541 236.462 23.445 236.59 23.445C236.717 23.445 236.927 23.5817 237.219 23.8551C237.328 23.9463 237.401 24.0283 237.438 24.1012C237.492 24.1559 237.52 24.2197 237.52 24.2926C237.52 24.3656 237.501 24.4385 237.465 24.5114C237.428 24.5661 237.392 24.6208 237.355 24.6755C237.173 24.8577 236.909 25.195 236.562 25.6872C236.271 26.1064 235.842 26.6169 235.277 27.2184L235.961 27.5465C236.836 27.984 237.346 28.2757 237.492 28.4215ZM234.785 39.1676C234.785 39.1494 234.831 39.0856 234.922 38.9762C235.031 38.8486 235.15 38.6937 235.277 38.5114C235.496 38.2015 235.715 37.7458 235.934 37.1442C236.152 36.5426 236.271 35.9867 236.289 35.4762C236.289 35.4398 236.271 35.4033 236.234 35.3669C236.216 35.3122 236.171 35.2848 236.098 35.2848L235.469 35.3395L234.539 35.4215C234.339 36.0778 233.992 36.7887 233.5 37.5544C233.281 37.9007 232.98 38.2106 232.598 38.484C232.233 38.7393 231.878 38.9215 231.531 39.0309C231.422 39.0674 231.285 39.0856 231.121 39.0856C230.993 39.0674 230.93 39.0309 230.93 38.9762C230.93 38.9033 230.993 38.8395 231.121 38.7848C231.34 38.639 231.586 38.4111 231.859 38.1012C232.151 37.7913 232.406 37.4723 232.625 37.1442C232.753 36.9619 232.889 36.7249 233.035 36.4333C233.181 36.1234 233.299 35.8408 233.391 35.5856C232.807 35.6585 232.206 35.7952 231.586 35.9958C231.549 36.0322 231.486 36.0505 231.395 36.0505C231.34 36.0505 231.258 36.014 231.148 35.9411C231.003 35.7952 230.902 35.6859 230.848 35.613C230.811 35.5218 230.829 35.4398 230.902 35.3669L231.012 35.1481C231.085 35.0387 231.158 34.82 231.23 34.4919C231.303 34.1637 231.34 33.8994 231.34 33.6989C231.34 33.6442 231.331 33.5804 231.312 33.5075C231.312 33.4163 231.322 33.3708 231.34 33.3708C231.376 33.3525 231.422 33.3525 231.477 33.3708C231.677 33.4072 231.859 33.471 232.023 33.5622C232.169 33.6533 232.27 33.7536 232.324 33.863C232.397 33.9541 232.397 34.0361 232.324 34.109C232.306 34.1273 232.279 34.1637 232.242 34.2184C232.206 34.2549 232.178 34.3096 232.16 34.3825C232.142 34.4007 232.105 34.6012 232.051 34.984C232.051 35.0023 232.06 35.0205 232.078 35.0387C232.115 35.057 232.151 35.057 232.188 35.0387C232.242 35.0387 232.324 35.0296 232.434 35.0114C232.543 34.9932 232.625 34.9749 232.68 34.9567C232.807 34.9385 232.953 34.9111 233.117 34.8747C233.299 34.8382 233.464 34.8109 233.609 34.7926C233.664 34.5921 233.701 34.3734 233.719 34.1364C233.755 33.8812 233.783 33.708 233.801 33.6169L233.828 33.0426V32.8512C233.245 32.8695 232.634 32.9242 231.996 33.0153L231.504 33.0973H231.395C231.303 33.0973 231.212 33.07 231.121 33.0153C231.048 32.9606 230.966 32.8968 230.875 32.8239C230.638 32.6051 230.52 32.4411 230.52 32.3317C230.52 32.2223 230.602 32.1859 230.766 32.2223C230.984 32.2588 231.212 32.277 231.449 32.277L232.242 32.2497L236.043 31.9762C236.189 31.958 236.326 31.9398 236.453 31.9215C236.581 31.8851 236.708 31.8577 236.836 31.8395H236.918C237.155 31.8395 237.319 31.8851 237.41 31.9762C237.52 32.0492 237.583 32.0947 237.602 32.113C237.893 32.3499 238.039 32.5322 238.039 32.6598C238.039 32.7692 237.884 32.8148 237.574 32.7965L237.027 32.7419C236.553 32.7236 235.842 32.7419 234.895 32.7965L234.785 33.863C234.767 34.0452 234.749 34.1911 234.73 34.3005C234.712 34.4098 234.694 34.501 234.676 34.5739L234.648 34.6559C235.086 34.6195 235.596 34.5648 236.18 34.4919C236.216 34.4736 236.28 34.4554 236.371 34.4372C236.462 34.4007 236.553 34.3734 236.645 34.3551H236.699C236.809 34.3551 236.918 34.4007 237.027 34.4919C237.137 34.583 237.201 34.6377 237.219 34.6559C237.365 34.7835 237.465 34.8929 237.52 34.984C237.592 35.057 237.602 35.1208 237.547 35.1755C237.51 35.2484 237.465 35.3213 237.41 35.3942C237.374 35.4489 237.346 35.5127 237.328 35.5856C237.237 36.3512 237.091 36.971 236.891 37.445C236.727 37.8643 236.544 38.1833 236.344 38.402C236.161 38.6025 235.934 38.7939 235.66 38.9762C235.551 39.0492 235.378 39.113 235.141 39.1676C234.904 39.2041 234.785 39.2041 234.785 39.1676ZM242.742 27.0817C242.961 27.0817 243.07 27.182 243.07 27.3825C243.07 27.4919 242.97 27.6468 242.77 27.8473C242.223 28.5218 241.138 29.807 239.516 31.7028C239.388 31.8669 239.27 31.9489 239.16 31.9489C239.069 31.9489 238.868 31.8122 238.559 31.5387C238.303 31.32 238.176 31.1377 238.176 30.9919C238.176 30.8278 238.312 30.6729 238.586 30.527C239.005 30.29 239.634 29.8161 240.473 29.1051C241.311 28.3577 241.931 27.7653 242.332 27.3278C242.496 27.1637 242.633 27.0817 242.742 27.0817ZM217.203 31.6208L215.043 31.8942L214.359 31.9762C214.141 31.9762 213.931 31.9033 213.73 31.7575L213.43 31.484C213.448 31.32 213.539 31.2197 213.703 31.1833L215.562 30.8551C215.964 30.7822 216.246 30.7275 216.41 30.6911L216.684 30.6364L217.258 30.6911L217.34 28.2848L215.508 28.5583C214.961 28.6312 214.624 28.6676 214.496 28.6676C214.368 28.6494 214.223 28.613 214.059 28.5583C213.895 28.4854 213.749 28.3486 213.621 28.1481C213.639 28.0205 213.703 27.9385 213.812 27.902L215.836 27.4645L216.547 27.3005L216.848 27.2458L217.312 27.1911V25.6325C217.294 25.2861 217.267 24.9124 217.23 24.5114C217.176 24.1286 217.112 23.8369 217.039 23.6364C216.966 23.4176 216.884 23.2445 216.793 23.1169C216.702 22.9893 216.638 22.7887 216.602 22.5153C216.674 22.3512 216.93 22.2783 217.367 22.2965C217.659 22.333 217.923 22.3786 218.16 22.4333C218.397 22.5062 218.643 22.5973 218.898 22.7067C219.135 22.8161 219.299 22.9255 219.391 23.0348L219.555 23.363C219.555 23.527 219.518 23.7184 219.445 23.9372C219.372 24.1195 219.318 24.3109 219.281 24.5114C219.227 24.7301 219.19 24.9307 219.172 25.113C219.135 25.2952 219.117 25.5322 219.117 25.8239L219.062 28.1208C219.044 28.8317 219.008 29.652 218.953 30.5817C218.88 31.5296 218.807 32.3499 218.734 33.0426C218.661 33.7718 218.543 34.4645 218.379 35.1208C218.215 35.777 217.923 36.5426 217.504 37.4176C217.085 38.2926 216.583 39.04 216 39.6598C215.417 40.3161 214.888 40.79 214.414 41.0817L213.539 41.2458L214.25 40.3708C214.542 40.0062 214.806 39.6507 215.043 39.3044C215.28 38.958 215.544 38.4476 215.836 37.7731C216.128 37.1169 216.319 36.5882 216.41 36.1872L216.711 35.0114L215.398 35.613C215.18 35.6859 214.961 35.7952 214.742 35.9411L214.25 36.2692L213.922 36.488C213.703 36.6338 213.521 36.7067 213.375 36.7067C213.211 36.7067 213.01 36.6156 212.773 36.4333L212.309 36.0231C212.145 35.8408 212.008 35.6585 211.898 35.4762L211.816 35.1481C211.871 35.0205 212.026 34.9658 212.281 34.984C212.5 35.0205 212.755 35.0387 213.047 35.0387L213.621 35.0114C213.785 34.9932 214.031 34.9385 214.359 34.8473L216.875 34.0544C216.911 33.8174 216.948 33.6169 216.984 33.4528C217.021 33.2887 217.057 33.0062 217.094 32.6051L217.203 31.6208ZM223.438 26.4528L225.461 25.9333C225.99 25.8239 226.345 25.7601 226.527 25.7419C226.728 25.7419 226.938 25.7783 227.156 25.8512C227.411 25.9242 227.639 26.0153 227.84 26.1247L228.059 26.5622C227.949 26.6898 227.667 26.79 227.211 26.863L225.27 27.2458C224.96 27.3005 224.686 27.3278 224.449 27.3278L223.984 27.3005L223.438 27.2458L223.383 30.8278C223.674 30.7367 223.893 30.6729 224.039 30.6364L224.859 30.4176L225.625 30.1989C225.88 30.126 226.117 30.0986 226.336 30.1169L226.883 30.2536C227.174 30.3265 227.411 30.4268 227.594 30.5544C227.74 30.6637 227.812 30.7913 227.812 30.9372C227.776 31.0648 227.648 31.1468 227.43 31.1833L224.941 31.5661L224.258 31.6755L223.355 31.5661L223.273 35.1755L224.887 34.902C225.197 34.8656 225.552 34.8018 225.953 34.7106C226.354 34.6195 226.673 34.5739 226.91 34.5739C227.165 34.5739 227.366 34.5921 227.512 34.6286C227.712 34.6833 227.922 34.7562 228.141 34.8473C228.378 34.9567 228.551 35.1846 228.66 35.5309C228.605 35.6585 228.523 35.7314 228.414 35.7497L225.57 35.9958L224.148 36.1598L223.273 36.1051L223.219 37.609C223.219 37.8825 223.201 38.3838 223.164 39.113C223.128 39.8421 223.073 40.4255 223 40.863C222.945 41.3187 222.863 41.738 222.754 42.1208L222.535 42.777L222.18 42.9958C222.07 42.8864 221.988 42.695 221.934 42.4215C221.897 42.1299 221.861 41.7744 221.824 41.3551C221.788 40.9359 221.76 40.1885 221.742 39.113C221.724 38.402 221.715 37.7458 221.715 37.1442V36.2419L221.852 22.7614C221.852 22.4697 221.824 22.1051 221.77 21.6676C221.715 21.2119 221.642 20.8747 221.551 20.6559C221.46 20.4372 221.423 20.2184 221.441 19.9997C221.551 19.8721 221.697 19.8083 221.879 19.8083C222.007 19.8447 222.161 19.8812 222.344 19.9176C222.526 19.9541 222.763 20.027 223.055 20.1364C223.346 20.264 223.565 20.4007 223.711 20.5465L223.93 20.9294C223.948 21.057 223.93 21.2028 223.875 21.3669C223.802 21.4945 223.747 21.6676 223.711 21.8864C223.674 22.1051 223.638 22.3877 223.602 22.734C223.565 23.0804 223.547 23.4632 223.547 23.8825L223.438 26.4528ZM211.023 26.5075C211.279 26.4163 211.497 26.3343 211.68 26.2614C211.862 26.2067 212.026 26.1702 212.172 26.152C212.318 26.152 212.518 26.1885 212.773 26.2614C213.029 26.2979 213.257 26.389 213.457 26.5348L213.758 26.8356L213.703 27.0817C213.576 27.1911 213.411 27.264 213.211 27.3005L212.719 27.4098L211.598 27.6286L210.969 27.738L210.859 31.402L212.773 30.2809L213.211 30.3083C213.247 30.4176 213.174 30.5452 212.992 30.6911L210.859 32.3864V35.2848C210.859 35.8682 210.878 36.5609 210.914 37.363C210.951 38.165 210.969 38.6937 210.969 38.9489C210.969 39.2406 210.951 39.5231 210.914 39.7965C210.878 40.0882 210.777 40.4255 210.613 40.8083C210.449 41.1729 210.258 41.4645 210.039 41.6833C209.857 41.8656 209.684 41.9567 209.52 41.9567C209.392 41.9567 209.292 41.9111 209.219 41.82C209.146 41.7288 209.046 41.5921 208.918 41.4098C208.79 41.2458 208.626 41.0544 208.426 40.8356C208.225 40.6169 208.043 40.4072 207.879 40.2067C207.697 40.0244 207.56 39.8968 207.469 39.8239C207.396 39.7327 207.286 39.6234 207.141 39.4958L206.566 38.9215L206.758 38.7848L207.523 38.9489L207.906 39.0583C208.125 39.1312 208.326 39.1768 208.508 39.195C208.69 39.195 208.854 39.1403 209 39.0309C209.146 38.9033 209.237 38.6025 209.273 38.1286C209.328 37.6182 209.374 37.126 209.41 36.652L209.602 33.3434L207.852 34.7653L206.648 35.7223L206.047 36.2965L205.746 36.57L205.336 36.8434C205.19 36.8434 205.026 36.807 204.844 36.734C204.661 36.6429 204.47 36.5244 204.27 36.3786L203.695 35.9411C203.549 35.777 203.495 35.5309 203.531 35.2028C203.714 35.1481 203.878 35.0934 204.023 35.0387C204.188 34.984 204.361 34.9202 204.543 34.8473C204.725 34.7744 204.971 34.6559 205.281 34.4919C205.573 34.346 205.91 34.1637 206.293 33.945L209.656 32.113L209.711 28.0114L208.207 28.2301C207.861 28.3031 207.505 28.3395 207.141 28.3395C206.885 28.3395 206.676 28.3213 206.512 28.2848C206.293 28.2484 206.083 28.1937 205.883 28.1208C205.664 28.0479 205.536 27.8838 205.5 27.6286C205.573 27.5374 205.664 27.4827 205.773 27.4645L206.375 27.3825L207.387 27.2458C207.952 27.1911 208.398 27.1273 208.727 27.0544L209.711 26.863V24.1286C209.711 23.8369 209.684 23.4085 209.629 22.8434C209.574 22.2783 209.52 21.8864 209.465 21.6676C209.41 21.4489 209.337 21.1937 209.246 20.902C209.155 20.665 209.109 20.4645 209.109 20.3005L209.219 19.9997C209.328 19.9085 209.456 19.863 209.602 19.863C209.839 19.8994 210.066 19.945 210.285 19.9997C210.486 20.0726 210.768 20.2093 211.133 20.4098C211.479 20.6286 211.716 20.82 211.844 20.984C211.953 21.1481 212.008 21.3031 212.008 21.4489C212.008 21.5765 211.944 21.7406 211.816 21.9411C211.689 22.1234 211.589 22.3239 211.516 22.5426C211.443 22.7614 211.388 22.9801 211.352 23.1989C211.315 23.3994 211.26 23.7275 211.188 24.1833C211.151 24.639 211.133 24.9307 211.133 25.0583L211.023 26.5075Z" fill="#333333"/>
<path d="M277.902 24.5035C277.64 23.518 276.869 22.742 275.89 22.4786C274.116 22 267 22 267 22C267 22 259.884 22 258.109 22.4786C257.13 22.742 256.359 23.518 256.098 24.5035C255.622 26.2896 255.622 30.0162 255.622 30.0162C255.622 30.0162 255.622 33.7427 256.098 35.5289C256.359 36.5143 257.13 37.258 258.109 37.5214C259.884 38 267 38 267 38C267 38 274.116 38 275.89 37.5214C276.869 37.258 277.64 36.5143 277.902 35.5289C278.378 33.7427 278.378 30.0162 278.378 30.0162C278.378 30.0162 278.378 26.2896 277.902 24.5035V24.5035ZM264.673 33.3996V26.6327L270.62 30.0163L264.673 33.3996V33.3996Z" fill="#FF4747"/>
</svg>
