<svg width="320" height="60" viewBox="0 0 320 60" fill="none" xmlns="http://www.w3.org/2000/svg">
<path d="M83.5195 30.0625C83.3919 30.0625 83.3099 30.0534 83.2734 30.0352C83.2552 29.9987 83.2826 29.9349 83.3555 29.8438C83.6107 29.6068 83.8112 29.3789 83.957 29.1602C84.1211 28.9232 84.2943 28.5495 84.4766 28.0391C84.7682 27.2005 84.9141 26.5534 84.9141 26.0977C84.9141 25.6784 84.8867 25.2956 84.832 24.9492V24.8672C84.832 24.6667 84.9596 24.6029 85.2148 24.6758C85.4336 24.7305 85.6797 24.8034 85.9531 24.8945C86.0078 24.8763 86.0898 24.8672 86.1992 24.8672C86.3086 24.849 86.4818 24.8216 86.7188 24.7852C87.3385 24.694 88.1406 24.6029 89.125 24.5117C89.125 24.4388 89.1979 24.1836 89.3438 23.7461L89.5078 23.1445C89.5807 22.8893 89.5534 22.7617 89.4258 22.7617C89.0612 22.7617 88.2135 22.8529 86.8828 23.0352L85.4336 23.2812C85.306 23.2995 85.1419 23.2448 84.9414 23.1172C84.7591 22.9896 84.6133 22.8438 84.5039 22.6797C84.4128 22.5156 84.431 22.4062 84.5586 22.3516C84.7044 22.2604 84.8503 22.2148 84.9961 22.2148C85.1419 22.2148 85.2331 22.2148 85.2695 22.2148H85.625L87.4297 22.1602L89.1797 21.9414C89.2708 21.9232 89.3802 21.8958 89.5078 21.8594C89.6536 21.8047 89.7904 21.7682 89.918 21.75C90.1003 21.7135 90.4102 21.9141 90.8477 22.3516C90.9206 22.4245 90.957 22.5065 90.957 22.5977C90.957 22.707 90.8841 22.8164 90.7383 22.9258C90.5378 23.1263 90.4102 23.2995 90.3555 23.4453C90.3372 23.5365 90.3008 23.6732 90.2461 23.8555C90.1914 24.0195 90.1367 24.2292 90.082 24.4844C90.1914 24.612 90.2461 24.7669 90.2461 24.9492C90.2461 25.0951 90.2005 25.2044 90.1094 25.2773C90.0365 25.332 89.8815 25.3594 89.6445 25.3594C88.8242 25.4141 88.1771 25.4688 87.7031 25.5234C87.2292 25.5599 86.6549 25.651 85.9805 25.7969C85.9076 26.6172 85.7435 27.3737 85.4883 28.0664C85.2331 28.7409 84.8776 29.2513 84.4219 29.5977C83.9844 29.9076 83.6836 30.0625 83.5195 30.0625ZM84.1211 39.1406C83.8477 39.1406 83.638 39.0677 83.4922 38.9219C83.3281 38.7578 83.2461 38.612 83.2461 38.4844C83.2461 38.3568 83.319 38.2201 83.4648 38.0742C83.4831 38.056 83.5833 37.9102 83.7656 37.6367C84.1667 36.9987 84.6224 36.1875 85.1328 35.2031C85.6615 34.2005 85.9896 33.5169 86.1172 33.1523C86.2266 32.806 86.3268 32.5052 86.418 32.25C86.5273 31.9948 86.6185 31.8672 86.6914 31.8672C86.819 31.8672 86.9284 31.9128 87.0195 32.0039C87.1107 32.0768 87.2018 32.1862 87.293 32.332C87.4023 32.4596 87.4844 32.5508 87.5391 32.6055C87.6667 32.7513 87.7305 32.888 87.7305 33.0156C87.7305 33.1068 87.694 33.1979 87.6211 33.2891C87.5482 33.3802 87.5026 33.444 87.4844 33.4805L86.2812 35.5039C85.9714 36.069 85.5612 36.7708 85.0508 37.6094C84.9779 37.7005 84.9414 37.7917 84.9414 37.8828C84.9414 37.9557 85.0234 37.9922 85.1875 37.9922C85.5339 37.9922 86.181 37.9557 87.1289 37.8828C88.0768 37.7917 88.7148 37.7188 89.043 37.6641C89.5169 37.6094 89.8451 37.5547 90.0273 37.5C90.2279 37.4453 90.5195 37.582 90.9023 37.9102C91.3581 38.293 91.4583 38.5391 91.2031 38.6484C91.0573 38.7214 90.7747 38.7578 90.3555 38.7578H89.2617C89.0247 38.7578 88.651 38.776 88.1406 38.8125C87.8307 38.8125 87.4844 38.8216 87.1016 38.8398C86.7188 38.8581 86.3997 38.8763 86.1445 38.8945C85.8529 38.9128 85.2878 38.9674 84.4492 39.0586L84.1211 39.1406ZM68.207 35.0391L65.6094 35.2305H64.7344C64.5156 35.194 64.2969 35.1302 64.0781 35.0391C63.8594 34.9479 63.7135 34.8294 63.6406 34.6836L63.5312 34.4102C63.5859 34.2643 63.8138 34.1732 64.2148 34.1367L65.1719 34L66.8672 33.8086L68.207 33.6445V29.2695C67.6055 29.3424 67.0951 29.3971 66.6758 29.4336C66.2565 29.4701 65.8828 29.5065 65.5547 29.543C65.3359 29.5612 65.0625 29.5703 64.7344 29.5703C64.3151 29.5703 64.0234 29.5339 63.8594 29.4609L63.1484 29.2148C62.9661 29.543 62.7656 29.8802 62.5469 30.2266C62.3646 30.5729 62.0182 31.056 61.5078 31.6758C60.9974 32.3138 60.5417 32.806 60.1406 33.1523L59.4844 33.2617L59.7578 32.8242C59.9583 32.5326 60.1953 32.1497 60.4688 31.6758C60.7604 31.2018 61.0612 30.6185 61.3711 29.9258C61.681 29.2331 61.9271 28.6406 62.1094 28.1484C62.2917 27.6562 62.4466 27.1641 62.5742 26.6719C62.7201 26.1797 62.8385 25.7422 62.9297 25.3594C63.0026 24.9766 63.0391 24.6211 63.0391 24.293C63.0391 24.0013 63.0938 23.8099 63.2031 23.7188C63.3672 23.7005 63.5768 23.737 63.832 23.8281C64.1419 23.9557 64.388 24.1107 64.5703 24.293C64.7708 24.457 64.9349 24.6393 65.0625 24.8398C65.1719 24.9857 65.2266 25.1589 65.2266 25.3594L64.9531 25.7148C64.7891 25.9154 64.6159 26.207 64.4336 26.5898L63.5312 28.5859C64.6615 28.4583 65.3177 28.3763 65.5 28.3398L68.2617 27.957V24.457C68.2617 23.8008 68.2253 23.1445 68.1523 22.4883C68.0612 21.832 67.9427 21.3398 67.7969 21.0117C67.6875 20.7565 67.6328 20.5378 67.6328 20.3555C67.6328 20.1732 67.6875 20.0456 67.7969 19.9727C67.888 19.8997 68.0521 19.8633 68.2891 19.8633C68.5443 19.8815 68.8177 19.9271 69.1094 20C69.401 20.0729 69.7109 20.1914 70.0391 20.3555C70.3672 20.5013 70.5859 20.6654 70.6953 20.8477L70.8867 21.2578C70.8867 21.4036 70.8229 21.5951 70.6953 21.832C70.513 22.1602 70.3854 22.5521 70.3125 23.0078C70.2396 23.4635 70.1849 23.9102 70.1484 24.3477L69.957 27.6836L72.4727 27.1367L73.8672 26.8359C74.1224 26.8359 74.4049 26.8633 74.7148 26.918C75.0977 26.9909 75.3802 27.1185 75.5625 27.3008C75.7448 27.4648 75.8451 27.638 75.8633 27.8203L75.3438 28.1211C75.1979 28.194 74.9427 28.2578 74.5781 28.3125L73.9219 28.4492L69.9297 29.0781L69.7656 33.5352L71.8984 33.1523L72.2539 33.0977C72.4544 33.0977 72.7917 33.125 73.2656 33.1797C73.776 33.2344 74.1771 33.3346 74.4688 33.4805C74.724 33.6263 74.8151 33.8359 74.7422 34.1094C74.5599 34.2734 74.3411 34.3737 74.0859 34.4102L72.8281 34.5742L71.0508 34.7383L69.7656 34.875L69.6562 39.5234C70.3854 39.4688 71.0964 39.4232 71.7891 39.3867C72.4818 39.3503 73.1654 39.2865 73.8398 39.1953C74.5143 39.1224 75.1068 39.0495 75.6172 38.9766C76.1276 38.9036 76.5469 38.8398 76.875 38.7852C77.2031 38.7122 77.4401 38.6758 77.5859 38.6758C77.7682 38.6758 77.9961 38.7122 78.2695 38.7852C78.543 38.8581 78.862 38.9857 79.2266 39.168C79.5911 39.3685 79.8372 39.5781 79.9648 39.7969L80.1016 40.2344C80.0469 40.3984 79.9193 40.4896 79.7188 40.5078L78.8438 40.5898H75.9453L72.0898 40.6992L68.2617 40.7812C67.0039 40.8359 65.8737 40.9271 64.8711 41.0547C63.8685 41.1823 63.2669 41.2643 63.0664 41.3008L61.8086 41.5195L60.5234 41.7383L60.0312 41.793C59.776 41.793 59.5299 41.7565 59.293 41.6836C59.0013 41.5924 58.737 41.4648 58.5 41.3008C58.2812 41.1549 58.1081 40.9271 57.9805 40.6172L58.1172 40.4258L58.5 40.3984L59.4844 40.3164L61.7812 40.1523L64.1875 39.9883L68.1523 39.5508L68.207 35.0391Z" fill="#333333"/>
<path d="M128.309 35.2305C128.163 35.2305 128.044 35.112 127.953 34.875C127.807 34.5833 127.734 34.3464 127.734 34.1641L127.762 33.4258C127.78 33.0612 127.789 32.332 127.789 31.2383V29.8711L127.762 28.9141C127.561 28.9141 127.352 28.9414 127.133 28.9961L126.504 29.1602C126.413 29.1966 126.267 29.1419 126.066 28.9961C125.866 28.8503 125.711 28.6862 125.602 28.5039C125.547 28.3945 125.52 28.3125 125.52 28.2578C125.52 28.2031 125.547 28.1667 125.602 28.1484C125.656 28.1302 125.72 28.1211 125.793 28.1211C126.65 28.1211 127.443 28.0755 128.172 27.9844L128.992 27.9297C129.521 27.8932 129.922 27.8659 130.195 27.8477C130.487 27.8112 130.688 27.7839 130.797 27.7656C130.943 27.7474 131.107 27.7292 131.289 27.7109C131.49 27.6745 131.617 27.6654 131.672 27.6836C131.745 27.7383 131.836 27.793 131.945 27.8477C132.073 27.9023 132.21 27.9935 132.355 28.1211C132.447 28.2122 132.52 28.3034 132.574 28.3945C132.647 28.4674 132.684 28.5495 132.684 28.6406C132.684 28.7135 132.638 28.8229 132.547 28.9688C132.456 29.1146 132.365 29.3424 132.273 29.6523C132.201 29.9622 132.146 30.181 132.109 30.3086C131.836 31.2201 131.499 31.8854 131.098 32.3047C130.806 32.5599 130.478 32.6875 130.113 32.6875C129.949 32.6875 129.812 32.569 129.703 32.332C129.539 31.9674 129.357 31.7122 129.156 31.5664L129.184 31.4297C129.676 31.5938 130.013 31.6758 130.195 31.6758C130.341 31.6758 130.441 31.6484 130.496 31.5938C130.569 31.5391 130.633 31.457 130.688 31.3477C130.779 31.1107 130.852 30.901 130.906 30.7188C130.979 30.5365 131.043 30.3724 131.098 30.2266C131.134 30.0625 131.18 29.8438 131.234 29.5703C131.307 29.2969 131.353 29.0781 131.371 28.9141C131.371 28.75 131.326 28.668 131.234 28.668H130.633C130.359 28.668 130.049 28.6771 129.703 28.6953C129.357 28.7135 129.074 28.7409 128.855 28.7773L128.801 31.2656L128.828 32.6875C128.828 32.888 128.828 33.0794 128.828 33.2617C128.846 33.4258 128.846 33.5443 128.828 33.6172C128.828 33.7266 128.828 33.8997 128.828 34.1367C128.846 34.3555 128.846 34.5104 128.828 34.6016L128.637 35.0391C128.509 35.1667 128.4 35.2305 128.309 35.2305ZM134.242 25.168C134.333 25.168 134.47 25.2318 134.652 25.3594C134.634 25.3958 134.671 25.4688 134.762 25.5781C134.853 25.6693 134.917 25.7331 134.953 25.7695C135.044 25.8607 135.135 25.9701 135.227 26.0977C135.336 26.2253 135.454 26.362 135.582 26.5078C135.91 26.8542 136.667 27.7565 137.852 29.2148C138.052 29.5065 138.152 29.6797 138.152 29.7344C138.152 29.9167 138.043 30.0078 137.824 30.0078C137.697 30.0078 137.56 29.9167 137.414 29.7344C137.068 29.3698 136.448 28.7956 135.555 28.0117C134.862 27.3737 134.233 26.8815 133.668 26.5352C133.395 26.4076 133.258 26.2617 133.258 26.0977C133.258 25.9701 133.395 25.7878 133.668 25.5508C133.923 25.2956 134.115 25.168 134.242 25.168ZM110.371 32.5508C110.335 32.2591 110.298 32.0495 110.262 31.9219C110.225 31.7943 110.161 31.6302 110.07 31.4297C109.979 31.2292 109.861 31.0469 109.715 30.8828L109.414 30.4453L109.441 30.2266L109.742 30.1172L110.645 30.418L111.629 29.2695C111.72 29.1419 111.893 28.9141 112.148 28.5859C112.385 28.276 112.586 28.0026 112.75 27.7656L112.887 27.3281C112.832 27.1823 112.741 27.1094 112.613 27.1094C112.504 27.1276 112.258 27.1732 111.875 27.2461L109.688 27.7109L107.91 28.1211L106.898 28.3672C106.68 28.3672 106.497 28.3398 106.352 28.2852C106.188 28.2122 106.005 28.112 105.805 27.9844C105.604 27.8568 105.477 27.7383 105.422 27.6289L105.531 27.3281L106.215 27.2461C106.361 27.2279 106.725 27.1914 107.309 27.1367C107.892 27.0638 108.384 26.9909 108.785 26.918L110.207 26.6172L111.465 26.2891C112.085 26.125 112.522 25.9974 112.777 25.9062L113.297 25.7695C113.516 25.7513 113.725 25.7695 113.926 25.8242C114.217 25.8971 114.564 26.0703 114.965 26.3438C115.384 26.6172 115.676 26.8542 115.84 27.0547C115.986 27.237 116.059 27.401 116.059 27.5469C116.022 27.6745 115.904 27.8112 115.703 27.957L114.746 28.3672C114.509 28.4948 114.199 28.6862 113.816 28.9414L111.355 30.7461C111.501 30.8919 111.611 31.0286 111.684 31.1562C111.775 31.2839 111.829 31.4753 111.848 31.7305L111.902 32.4414L114.172 32.2227L116.031 32.0859L117.098 31.9492L118.793 31.7578C119.23 31.7031 119.54 31.6758 119.723 31.6758C119.941 31.694 120.224 31.7669 120.57 31.8945C120.917 32.0039 121.227 32.1406 121.5 32.3047C121.773 32.4688 121.983 32.6146 122.129 32.7422L122.293 32.9883C122.275 33.1159 122.165 33.2161 121.965 33.2891C121.746 33.3438 121.509 33.3802 121.254 33.3984L120.051 33.4531L118.191 33.3984C118.009 33.3984 117.398 33.4167 116.359 33.4531L114.309 33.4805L111.902 33.5898L112.012 36.2422C112.012 36.7161 112.003 37.2812 111.984 37.9375C111.966 38.5755 111.93 39.1497 111.875 39.6602C111.82 40.1706 111.738 40.6081 111.629 40.9727C111.52 41.3737 111.374 41.7383 111.191 42.0664C110.991 42.3945 110.772 42.6497 110.535 42.832L110.098 43.0508C109.934 43.0508 109.733 42.8867 109.496 42.5586C109.259 42.2305 109.077 41.9935 108.949 41.8477C108.84 41.7018 108.639 41.4831 108.348 41.1914C108.074 40.8815 107.837 40.6263 107.637 40.4258L107.145 39.9883L107.008 39.6055L107.227 39.5781L107.801 39.7148L108.594 39.9883L109.223 40.1797L109.523 40.2617H109.742C109.833 40.1888 109.934 40.0156 110.043 39.7422C110.152 39.4505 110.225 39.1406 110.262 38.8125C110.298 38.4844 110.335 38.0833 110.371 37.6094C110.408 37.1354 110.426 36.6888 110.426 36.2695L110.453 33.7266L108.676 33.8906C108.092 33.9453 107.354 34.0365 106.461 34.1641L104.355 34.4648C103.699 34.556 103.198 34.6471 102.852 34.7383C102.505 34.8477 102.268 34.9023 102.141 34.9023C101.977 34.9023 101.648 34.8294 101.156 34.6836C100.664 34.5195 100.309 34.3281 100.09 34.1094L99.8164 33.6992C99.8711 33.5534 99.9896 33.4714 100.172 33.4531L101.32 33.3984L102.496 33.2891L104.574 33.1523C104.975 33.1159 105.978 33.0065 107.582 32.8242L110.371 32.5508ZM110.809 22.7344C110.608 22.5339 110.435 22.3424 110.289 22.1602C110.143 21.9779 109.988 21.7409 109.824 21.4492L109.332 20.3555C109.168 19.9544 109.059 19.6536 109.004 19.4531L109.223 19.0156C109.514 18.9974 109.806 19.0612 110.098 19.207C110.426 19.3711 110.736 19.5534 111.027 19.7539C111.319 19.9362 111.556 20.1732 111.738 20.4648C111.921 20.7565 112.039 21.0117 112.094 21.2305L112.121 21.4766C112.121 21.7318 112.085 21.9505 112.012 22.1328L111.82 22.5703L115.512 22.1055L116.605 21.9414C117.225 21.8503 117.663 21.7591 117.918 21.668L118.383 21.5586C118.62 21.5404 118.857 21.6042 119.094 21.75C119.367 21.8958 119.695 22.1328 120.078 22.4609C120.461 22.7891 120.762 23.0716 120.98 23.3086C121.199 23.5456 121.345 23.7734 121.418 23.9922L121.445 24.375C121.372 24.5208 121.163 24.612 120.816 24.6484L120.023 24.7305L119.012 24.9492C118.501 25.0768 118.064 25.2044 117.699 25.332L116.305 25.6602L116.496 25.3047L116.824 24.8398L117.18 24.3203C117.344 24.0833 117.499 23.8737 117.645 23.6914L117.863 23.2812C117.827 23.099 117.745 22.9805 117.617 22.9258C117.471 22.8529 117.316 22.8164 117.152 22.8164C116.861 22.8346 116.387 22.8893 115.73 22.9805C115.092 23.0534 114.126 23.1719 112.832 23.3359C111.556 23.5 110.59 23.6185 109.934 23.6914L107.773 24.0195L105.887 24.3203C105.431 24.4115 105.103 24.457 104.902 24.457H104.355L103.918 24.4297C103.845 24.6667 103.772 24.8854 103.699 25.0859C103.626 25.2865 103.48 25.5872 103.262 25.9883C103.061 26.4076 102.879 26.6992 102.715 26.8633C102.533 27.0456 102.35 27.1367 102.168 27.1367C101.949 27.1367 101.776 27.0365 101.648 26.8359C101.521 26.6354 101.448 26.3984 101.43 26.125C101.43 25.888 101.457 25.6784 101.512 25.4961C101.548 25.3503 101.685 25.1042 101.922 24.7578C102.159 24.4115 102.332 24.1016 102.441 23.8281C102.569 23.5547 102.678 23.263 102.77 22.9531C102.842 22.6432 102.915 22.4154 102.988 22.2695L103.207 22.0508C103.335 22.0326 103.453 22.1055 103.562 22.2695C103.672 22.4154 103.736 22.5885 103.754 22.7891L103.836 23.2812L105.066 23.2539L107.637 23.0352L110.809 22.7344Z" fill="#333333"/>
<path d="M171.84 26.6719C171.548 26.6719 171.366 26.5898 171.293 26.4258C171.202 26.207 171.111 26.0247 171.02 25.8789C170.928 25.7148 170.764 25.5234 170.527 25.3047L170.582 25.1953C171.238 25.4323 171.667 25.5508 171.867 25.5508C172.013 25.5508 172.122 25.5234 172.195 25.4688C172.268 25.4141 172.387 25.2865 172.551 25.0859C172.788 24.8307 173.007 24.4388 173.207 23.9102C173.48 23.1263 173.654 22.3151 173.727 21.4766V21.3945C173.727 21.2852 173.708 21.2122 173.672 21.1758C173.435 21.1758 172.806 21.2305 171.785 21.3398C171.22 22.7435 170.564 23.901 169.816 24.8125C169.087 25.7057 168.422 26.1523 167.82 26.1523C167.674 26.1523 167.602 26.0977 167.602 25.9883C167.602 25.9518 167.784 25.7422 168.148 25.3594C168.513 24.9766 168.914 24.4753 169.352 23.8555C169.807 23.2174 170.236 22.4336 170.637 21.5039C170.546 21.5039 170.281 21.5221 169.844 21.5586C169.406 21.5951 169.033 21.6589 168.723 21.75C168.577 21.8594 168.422 21.8776 168.258 21.8047C168.258 21.8047 168.24 21.7956 168.203 21.7773C168.167 21.7591 168.13 21.7318 168.094 21.6953C167.966 21.6224 167.857 21.5312 167.766 21.4219C167.693 21.2943 167.656 21.1758 167.656 21.0664C167.656 21.0117 167.702 20.9388 167.793 20.8477L168.121 20.4102C168.23 20.2643 168.331 20.0547 168.422 19.7812C168.513 19.4896 168.559 19.2435 168.559 19.043C168.559 18.9154 168.549 18.8333 168.531 18.7969C168.513 18.7604 168.504 18.7148 168.504 18.6602C168.504 18.569 168.549 18.5234 168.641 18.5234C168.75 18.5234 168.905 18.5872 169.105 18.7148C169.16 18.7513 169.26 18.8242 169.406 18.9336C169.57 19.0247 169.661 19.1341 169.68 19.2617C169.68 19.3893 169.607 19.599 169.461 19.8906L169.105 20.5195C169.069 20.5742 169.051 20.638 169.051 20.7109C169.051 20.7656 169.069 20.8112 169.105 20.8477C169.16 20.8659 169.224 20.8659 169.297 20.8477L170.938 20.6289C171.12 20.1549 171.266 19.6536 171.375 19.125V18.9609V18.4961C171.375 18.2956 171.43 18.2135 171.539 18.25C171.776 18.3047 171.967 18.3776 172.113 18.4688C172.387 18.6328 172.523 18.7695 172.523 18.8789C172.523 18.9701 172.487 19.125 172.414 19.3438C172.359 19.5443 172.314 19.6992 172.277 19.8086C172.259 19.8815 172.177 20.1185 172.031 20.5195C172.086 20.5195 172.423 20.4831 173.043 20.4102L173.316 20.3555C173.371 20.3555 173.471 20.3372 173.617 20.3008C173.654 20.2826 173.699 20.2734 173.754 20.2734C173.973 20.2734 174.109 20.2826 174.164 20.3008C174.237 20.319 174.346 20.3737 174.492 20.4648C174.656 20.5742 174.766 20.6836 174.82 20.793C174.875 20.9023 174.893 21.0299 174.875 21.1758L174.711 22.0781L174.52 23.0625C174.52 23.1354 174.456 23.3724 174.328 23.7734C174.201 24.1745 174.055 24.5299 173.891 24.8398C173.581 25.4596 173.216 25.9245 172.797 26.2344C172.432 26.526 172.113 26.6719 171.84 26.6719ZM168.285 31.2383C168.085 31.2383 167.839 31.0833 167.547 30.7734C167.328 30.5547 167.219 30.3906 167.219 30.2812C167.219 30.2266 167.255 30.1992 167.328 30.1992C167.401 30.181 167.492 30.1719 167.602 30.1719L168.203 30.1445C168.549 30.1445 168.777 30.1354 168.887 30.1172C169.233 30.1172 169.525 30.1081 169.762 30.0898C171.329 29.944 172.387 29.8255 172.934 29.7344C173.207 29.6979 173.453 29.6615 173.672 29.625C173.891 29.5703 174.064 29.543 174.191 29.543C174.447 29.543 174.702 29.6706 174.957 29.9258C175.158 30.1263 175.258 30.2904 175.258 30.418C175.258 30.5273 175.194 30.6003 175.066 30.6367C174.975 30.6549 174.438 30.6914 173.453 30.7461C172.906 30.7643 172.232 30.8099 171.43 30.8828C170.628 30.9557 169.926 31.0286 169.324 31.1016C169.215 31.1198 169.06 31.1471 168.859 31.1836C168.659 31.2201 168.467 31.2383 168.285 31.2383ZM172.359 37.3359C172.177 37.5729 171.986 37.6914 171.785 37.6914C171.73 37.6914 171.703 37.6458 171.703 37.5547C171.703 37.4271 171.74 37.2812 171.812 37.1172C171.812 37.1172 171.995 36.7526 172.359 36.0234C172.378 35.9505 172.405 35.8776 172.441 35.8047C172.478 35.7318 172.505 35.668 172.523 35.6133V35.5859C172.523 35.5495 172.496 35.513 172.441 35.4766C172.387 35.4401 172.323 35.431 172.25 35.4492C171.958 35.4674 171.521 35.513 170.938 35.5859C170.372 35.6589 169.953 35.7318 169.68 35.8047C169.57 35.8411 169.434 35.8867 169.27 35.9414C169.124 35.9961 169.005 36.0234 168.914 36.0234C168.586 36.0234 168.312 35.9232 168.094 35.7227C167.911 35.5951 167.775 35.4674 167.684 35.3398L167.629 35.2031C167.629 35.112 167.784 35.0846 168.094 35.1211C168.513 35.1576 169.379 35.1029 170.691 34.957L171.238 34.875C171.384 34.8568 171.612 34.8294 171.922 34.793C172.25 34.7383 172.505 34.6836 172.688 34.6289C172.742 34.6107 172.797 34.5924 172.852 34.5742C172.924 34.5378 172.988 34.5195 173.043 34.5195C173.134 34.5195 173.243 34.5651 173.371 34.6562C173.517 34.7474 173.635 34.8294 173.727 34.9023C173.854 34.9935 173.936 35.0755 173.973 35.1484C174.027 35.2031 174.046 35.276 174.027 35.3672C174.027 35.4583 173.982 35.5404 173.891 35.6133C173.799 35.6862 173.736 35.7409 173.699 35.7773C173.663 35.832 173.535 35.9688 173.316 36.1875C173.225 36.3333 173.061 36.5339 172.824 36.7891C172.605 37.0443 172.451 37.2266 172.359 37.3359ZM170.992 42.7227C170.992 42.668 171.083 42.5221 171.266 42.2852C171.466 42.0664 171.621 41.8932 171.73 41.7656C172.004 41.401 172.332 40.8724 172.715 40.1797C173.116 39.487 173.344 39.0312 173.398 38.8125C173.435 38.7031 173.38 38.6484 173.234 38.6484C172.943 38.6484 172.141 38.7305 170.828 38.8945C169.971 39.0039 169.333 39.1133 168.914 39.2227C168.823 39.2773 168.732 39.3047 168.641 39.3047C168.495 39.3047 168.34 39.2044 168.176 39.0039C168.103 38.8763 168.066 38.7578 168.066 38.6484C168.066 38.5755 168.112 38.5026 168.203 38.4297L168.285 38.3203C168.34 38.2109 168.404 38.0651 168.477 37.8828C168.549 37.7005 168.613 37.5273 168.668 37.3633C168.759 37.0716 168.823 36.7526 168.859 36.4062C168.878 36.2057 168.987 36.151 169.188 36.2422C169.443 36.3698 169.634 36.4974 169.762 36.625C169.908 36.7344 169.953 36.8164 169.898 36.8711C169.716 37.0898 169.57 37.3359 169.461 37.6094C169.37 37.901 169.315 38.0924 169.297 38.1836C169.297 38.2565 169.342 38.293 169.434 38.293C169.707 38.293 170.117 38.2474 170.664 38.1562C170.974 38.1198 171.357 38.0742 171.812 38.0195C172.268 37.9648 172.633 37.9102 172.906 37.8555L173.59 37.7188C173.645 37.7005 173.717 37.6914 173.809 37.6914C173.9 37.6914 173.991 37.7279 174.082 37.8008C174.173 37.8555 174.273 37.9284 174.383 38.0195C174.565 38.1836 174.684 38.3203 174.738 38.4297C174.793 38.5208 174.82 38.6302 174.82 38.7578C174.82 38.8307 174.766 38.9219 174.656 39.0312C174.565 39.1406 174.456 39.3138 174.328 39.5508C173.799 40.6263 173.116 41.5286 172.277 42.2578C172.04 42.4401 171.776 42.5951 171.484 42.7227C171.357 42.7591 171.238 42.7773 171.129 42.7773C171.038 42.7956 170.992 42.7773 170.992 42.7227ZM176.242 32.2773C176.333 32.2773 176.47 32.3411 176.652 32.4688C176.634 32.5052 176.671 32.5781 176.762 32.6875C176.853 32.7786 176.917 32.8424 176.953 32.8789C177.044 32.9701 177.135 33.0794 177.227 33.207C177.336 33.3346 177.454 33.4714 177.582 33.6172C177.91 33.9635 178.667 34.8659 179.852 36.3242C180.052 36.6159 180.152 36.7891 180.152 36.8438C180.152 37.026 180.043 37.1172 179.824 37.1172C179.697 37.1172 179.56 37.026 179.414 36.8438C179.068 36.4792 178.448 35.9049 177.555 35.1211C176.862 34.4831 176.233 33.9909 175.668 33.6445C175.395 33.5169 175.258 33.3711 175.258 33.207C175.258 33.0794 175.395 32.8971 175.668 32.6602C175.923 32.4049 176.115 32.2773 176.242 32.2773ZM144.934 28.5586L143.02 29.2148C142.673 29.3242 142.382 29.4518 142.145 29.5977L141.707 29.8164C141.525 29.8164 141.388 29.7617 141.297 29.6523C141.206 29.543 141.115 29.3607 141.023 29.1055C140.932 28.8685 140.878 28.6589 140.859 28.4766V28.2031C140.914 28.0938 141.033 27.9844 141.215 27.875C141.397 27.7656 141.598 27.6289 141.816 27.4648C142.035 27.2826 142.254 27.0365 142.473 26.7266C142.691 26.4167 142.983 25.9518 143.348 25.332C143.694 24.694 143.958 24.1745 144.141 23.7734C144.341 23.3906 144.533 22.9531 144.715 22.4609C144.897 21.9688 145.007 21.5586 145.043 21.2305L145.125 20.6836L145.371 20.3828H145.617C145.854 20.474 146.118 20.6471 146.41 20.9023C146.702 21.1393 146.902 21.3398 147.012 21.5039L147.148 21.8867C147.13 21.9961 147.057 22.1146 146.93 22.2422C146.802 22.3698 146.684 22.4792 146.574 22.5703C146.483 22.6797 146.374 22.8346 146.246 23.0352L143.074 27.3555L142.855 27.875L143.047 28.1484C143.211 28.1484 143.457 28.1211 143.785 28.0664L145.344 27.793L146.027 26.6445C146.21 26.3529 146.365 26.0703 146.492 25.7969C146.62 25.5234 146.72 25.25 146.793 24.9766L147.012 24.5117H147.203C147.331 24.5482 147.477 24.6393 147.641 24.7852C147.805 24.931 147.96 25.0768 148.105 25.2227C148.233 25.3685 148.342 25.5234 148.434 25.6875L148.488 26.0977C148.47 26.207 148.361 26.3438 148.16 26.5078C147.978 26.6719 147.777 26.8815 147.559 27.1367L147.012 27.793L144.305 31.293L143.594 32.6602C143.74 32.6602 143.949 32.6055 144.223 32.4961L146.902 31.457L146.465 30.582L146.574 30.0352C146.866 30.0898 147.13 30.1719 147.367 30.2812C147.604 30.4089 147.832 30.5456 148.051 30.6914C148.233 30.8555 148.379 31.0378 148.488 31.2383C148.598 31.457 148.671 31.7122 148.707 32.0039C148.707 32.2773 148.652 32.4779 148.543 32.6055C148.434 32.7878 148.27 32.8789 148.051 32.8789C147.905 32.8789 147.777 32.8424 147.668 32.7695L147.449 32.6055L147.121 32.0859L144.688 33.125C144.469 33.2161 144.177 33.3529 143.812 33.5352C143.448 33.7174 143.202 33.8451 143.074 33.918L142.582 34.2734L142.254 34.4375C142.09 34.4375 141.944 34.3646 141.816 34.2188C141.707 34.0729 141.589 33.8815 141.461 33.6445C141.333 33.4258 141.279 33.207 141.297 32.9883C141.352 32.8607 141.47 32.7331 141.652 32.6055C141.835 32.4961 142.062 32.2956 142.336 32.0039C142.609 31.7305 142.783 31.5482 142.855 31.457L144.934 28.5586ZM153.438 28.9961C153.51 29.1966 153.547 29.3607 153.547 29.4883L153.492 29.7617C153.328 29.9805 153.173 30.0898 153.027 30.0898C152.845 30.0898 152.681 30.0078 152.535 29.8438C152.462 29.7526 152.316 29.4701 152.098 28.9961L151.742 28.2578L151.824 27.9297C152.043 27.9115 152.253 27.957 152.453 28.0664C152.654 28.1758 152.845 28.3125 153.027 28.4766C153.21 28.6406 153.346 28.8138 153.438 28.9961ZM156.008 29.5703L156.281 29.1055C156.445 28.8138 156.6 28.513 156.746 28.2031C156.874 27.8932 156.965 27.6471 157.02 27.4648L157.238 27.1094H157.457C157.603 27.1641 157.794 27.2917 158.031 27.4922L158.469 28.0391L158.441 28.2578C158.332 28.349 158.159 28.4492 157.922 28.5586C157.667 28.7044 157.411 28.8776 157.156 29.0781C156.901 29.2786 156.719 29.4154 156.609 29.4883L155.953 29.7617L156.008 29.5703ZM153.602 31.7305L151.469 31.8672C151.414 32.0312 151.359 32.168 151.305 32.2773C151.25 32.3867 151.104 32.4505 150.867 32.4688C150.703 32.3776 150.585 32.2227 150.512 32.0039C150.439 31.8034 150.375 31.5299 150.32 31.1836L149.91 28.9414C149.801 28.3216 149.71 27.9115 149.637 27.7109C149.6 27.5104 149.5 27.3281 149.336 27.1641L148.953 26.8359L148.844 26.5352C148.898 26.4258 148.99 26.3529 149.117 26.3164L149.555 26.3984L150.676 26.5625C151.496 26.5078 151.97 26.4622 152.098 26.4258L154.148 26.1523V24.2383C153.693 24.3112 153.31 24.3659 153 24.4023C152.872 24.4206 152.745 24.4297 152.617 24.4297C152.435 24.4297 152.243 24.4115 152.043 24.375C151.824 24.3568 151.615 24.3203 151.414 24.2656C151.214 24.2109 151.068 24.1289 150.977 24.0195L150.867 23.7734L151.223 23.6367L151.742 23.5273L153.191 23.3086L154.148 23.1172L154.121 21.2578C154.121 21.0573 154.103 20.793 154.066 20.4648C154.03 20.1367 153.993 19.8906 153.957 19.7266L153.684 19.1523L153.629 18.8242L153.793 18.6875L154.012 18.6328C154.176 18.6328 154.34 18.651 154.504 18.6875C154.796 18.7604 155.042 18.8242 155.242 18.8789C155.443 18.9518 155.634 19.0612 155.816 19.207L156.145 19.5625C156.145 19.7083 156.099 19.8906 156.008 20.1094C155.953 20.237 155.889 20.4466 155.816 20.7383C155.762 21.0117 155.725 21.2487 155.707 21.4492L155.598 22.7617C156.072 22.6523 156.482 22.543 156.828 22.4336C157.174 22.3424 157.439 22.2878 157.621 22.2695C157.803 22.2695 157.986 22.2878 158.168 22.3242C158.35 22.3607 158.551 22.4336 158.77 22.543L159.098 22.7891L159.043 23.0898C158.897 23.2539 158.66 23.3633 158.332 23.418L156.965 23.6914L155.488 23.9648L155.434 25.9609C156.053 25.8333 156.518 25.7331 156.828 25.6602L157.73 25.3867C158.113 25.2773 158.423 25.1771 158.66 25.0859L159.152 24.9492C159.371 24.9492 159.599 24.9948 159.836 25.0859C160.109 25.1771 160.447 25.3138 160.848 25.4961C161.249 25.6784 161.522 25.8516 161.668 26.0156L161.887 26.3438C161.887 26.4714 161.814 26.6263 161.668 26.8086C161.522 26.9727 161.395 27.1367 161.285 27.3008C161.176 27.4466 161.057 27.638 160.93 27.875C160.82 28.112 160.665 28.513 160.465 29.0781C160.283 29.6432 160.109 30.1536 159.945 30.6094C159.781 31.0651 159.654 31.3932 159.562 31.5938C159.471 31.7943 159.326 31.9674 159.125 32.1133L158.879 32.25L158.605 32.2227C158.35 32.1133 158.214 31.9766 158.195 31.8125L158.113 31.4023L155.324 31.7305C156.09 32.6055 156.728 33.2799 157.238 33.7539C157.749 34.2279 158.259 34.6745 158.77 35.0938C159.298 35.513 159.891 35.9049 160.547 36.2695C161.185 36.6523 161.75 36.944 162.242 37.1445C162.734 37.3451 163.4 37.6003 164.238 37.9102L165.469 38.6758L164.402 38.9219C164.147 38.9766 163.783 39.0312 163.309 39.0859L162.133 39.2227C161.823 39.2591 161.559 39.2773 161.34 39.2773C161.085 39.2773 160.848 39.2409 160.629 39.168C160.447 39.0951 160.228 38.9492 159.973 38.7305C159.717 38.5117 159.335 38.0833 158.824 37.4453L157.402 35.668L156.145 34L155.215 32.8242L155.324 37.3086L155.379 39.3594C155.434 40.2161 155.461 40.8086 155.461 41.1367C155.443 41.3919 155.388 41.6562 155.297 41.9297C155.206 42.2031 155.078 42.4857 154.914 42.7773C154.768 43.0326 154.595 43.1602 154.395 43.1602L154.066 42.8594C153.921 42.6589 153.811 42.4674 153.738 42.2852C153.647 42.1393 153.565 41.9297 153.492 41.6562C153.438 41.3828 153.41 41.1185 153.41 40.8633C153.41 40.6992 153.456 40.3529 153.547 39.8242C153.638 39.3138 153.702 38.8125 153.738 38.3203L153.957 33.8086C153.501 34.3555 153.137 34.7747 152.863 35.0664C152.59 35.3945 152.243 35.7682 151.824 36.1875C151.387 36.625 150.949 36.9987 150.512 37.3086C150.074 37.6185 149.518 37.9466 148.844 38.293C148.169 38.6576 147.668 38.8945 147.34 39.0039L146.41 39.168L146.465 38.9492L147.148 38.5117L148.926 37.1992C149.509 36.7617 150.02 36.3333 150.457 35.9141C150.895 35.4948 151.405 34.9206 151.988 34.1914C152.553 33.4622 152.918 32.9609 153.082 32.6875L153.602 31.7305ZM151.441 31.0195L154.066 30.8281L154.121 26.9453L150.84 27.3008L151.441 31.0195ZM155.324 30.6367C155.743 30.6185 156.145 30.582 156.527 30.5273C156.837 30.4727 157.083 30.4453 157.266 30.4453C157.539 30.4635 157.74 30.5091 157.867 30.582L158.387 30.8281L158.879 29.2422C159.025 28.75 159.152 28.2669 159.262 27.793C159.335 27.4102 159.371 27.0911 159.371 26.8359C159.335 26.5807 159.271 26.4167 159.18 26.3438C159.089 26.2526 158.924 26.207 158.688 26.207C158.505 26.207 158.286 26.2253 158.031 26.2617L155.434 26.7266L155.324 30.6367ZM140.777 35.9414L141.215 36.1328L141.707 36.4609C141.999 36.6615 142.217 36.8255 142.363 36.9531C142.509 37.0807 142.655 37.2539 142.801 37.4727C142.91 37.7096 142.983 37.9466 143.02 38.1836C143.056 38.4023 143.074 38.6302 143.074 38.8672C143.038 39.1589 142.974 39.3685 142.883 39.4961C142.792 39.6419 142.6 39.7786 142.309 39.9062C142.126 39.888 141.98 39.8151 141.871 39.6875C141.762 39.5599 141.652 39.3685 141.543 39.1133C141.415 38.8581 141.315 38.6211 141.242 38.4023L140.941 37.5L140.668 36.8164L140.641 35.9141L140.777 35.9414ZM143.512 35.1211L143.621 34.6836L144.086 34.8203C144.25 34.875 144.441 34.957 144.66 35.0664C144.879 35.1758 145.089 35.2943 145.289 35.4219C145.49 35.5677 145.645 35.7044 145.754 35.832C145.863 35.9779 145.954 36.2148 146.027 36.543C146.046 36.7253 146.036 36.8893 146 37.0352C145.945 37.2904 145.872 37.4727 145.781 37.582C145.672 37.7096 145.526 37.7826 145.344 37.8008C145.161 37.8008 144.988 37.7188 144.824 37.5547C144.678 37.4271 144.542 37.2539 144.414 37.0352L144.059 36.3242L143.785 35.75C143.676 35.513 143.585 35.3034 143.512 35.1211ZM146.246 34L146.328 33.6445L146.738 33.7539C146.848 33.7904 147.012 33.8542 147.23 33.9453C147.449 34.0365 147.641 34.1367 147.805 34.2461C147.969 34.3372 148.105 34.4466 148.215 34.5742C148.324 34.7018 148.397 34.9297 148.434 35.2578V35.5586C148.379 35.7409 148.306 35.8867 148.215 35.9961C148.124 36.069 148.014 36.1237 147.887 36.1602C147.741 36.1602 147.586 36.0964 147.422 35.9688C147.294 35.8776 147.176 35.7409 147.066 35.5586C146.939 35.3581 146.829 35.1576 146.738 34.957L146.52 34.5195C146.41 34.2826 146.319 34.1094 146.246 34Z" fill="#333333"/>
<path d="M213.211 29.6797C213.102 29.6797 212.956 29.5612 212.773 29.3242C212.591 29.069 212.509 28.8503 212.527 28.668C212.564 28.5221 212.591 28.112 212.609 27.4375C212.628 26.9818 212.637 26.1797 212.637 25.0312C212.637 24.2292 212.628 23.6914 212.609 23.418L211.707 23.5C211.069 23.5911 210.522 23.6367 210.066 23.6367C209.939 23.6367 209.757 23.5365 209.52 23.3359C209.283 23.1354 209.164 22.9896 209.164 22.8984C209.164 22.7526 209.319 22.6979 209.629 22.7344C209.829 22.7526 210.422 22.7435 211.406 22.707C212.755 22.6159 213.73 22.5612 214.332 22.543C214.642 22.5247 214.924 22.4974 215.18 22.4609C215.453 22.4062 215.645 22.3698 215.754 22.3516C215.918 22.3333 216.064 22.3516 216.191 22.4062C216.319 22.4609 216.438 22.5339 216.547 22.625C216.674 22.6979 216.775 22.7526 216.848 22.7891C217.012 22.8984 217.094 22.9987 217.094 23.0898C217.094 23.1628 217.048 23.2357 216.957 23.3086C216.884 23.3633 216.802 23.3906 216.711 23.3906C216.62 23.3906 216.492 23.3815 216.328 23.3633C216.182 23.3451 216.018 23.3359 215.836 23.3359C215.161 23.3359 214.469 23.3542 213.758 23.3906C213.74 23.5365 213.73 23.901 213.73 24.4844C213.694 25.4688 213.676 26.4349 213.676 27.3828V28.4492V28.6953C213.676 29.0052 213.648 29.2057 213.594 29.2969C213.43 29.5521 213.302 29.6797 213.211 29.6797ZM210.285 36.1602C210.085 36.1602 209.839 36.0052 209.547 35.6953C209.328 35.4766 209.219 35.3125 209.219 35.2031C209.219 35.1484 209.255 35.1211 209.328 35.1211C209.401 35.1029 209.492 35.0938 209.602 35.0938L210.203 35.0664C210.549 35.0664 210.777 35.0573 210.887 35.0391C211.233 35.0391 211.525 35.0299 211.762 35.0117C213.329 34.8659 214.387 34.7474 214.934 34.6562C215.207 34.6198 215.453 34.5833 215.672 34.5469C215.891 34.4922 216.064 34.4648 216.191 34.4648C216.447 34.4648 216.702 34.5924 216.957 34.8477C217.158 35.0482 217.258 35.2122 217.258 35.3398C217.258 35.4492 217.194 35.5221 217.066 35.5586C216.975 35.5768 216.438 35.6133 215.453 35.668C214.906 35.6862 214.232 35.7318 213.43 35.8047C212.628 35.8776 211.926 35.9505 211.324 36.0234C211.215 36.0417 211.06 36.069 210.859 36.1055C210.659 36.1419 210.467 36.1602 210.285 36.1602ZM221.742 27.082C221.961 27.082 222.07 27.1823 222.07 27.3828C222.07 27.4922 221.97 27.6471 221.77 27.8477C221.223 28.5221 220.138 29.8073 218.516 31.7031C218.388 31.8672 218.27 31.9492 218.16 31.9492C218.069 31.9492 217.868 31.8125 217.559 31.5391C217.303 31.3203 217.176 31.138 217.176 30.9922C217.176 30.8281 217.312 30.6732 217.586 30.5273C218.005 30.2904 218.634 29.8164 219.473 29.1055C220.311 28.3581 220.931 27.7656 221.332 27.3281C221.496 27.1641 221.633 27.082 221.742 27.082ZM193.168 33.0977L196.066 32.6602C196.322 32.6237 196.759 32.5417 197.379 32.4141C197.999 32.2865 198.509 32.1589 198.91 32.0312C199.202 31.9401 199.466 31.8945 199.703 31.8945C199.867 31.931 200.177 32.0495 200.633 32.25C201.107 32.4688 201.471 32.6784 201.727 32.8789C201.964 33.0612 202.1 33.2253 202.137 33.3711C202.137 33.5169 202.046 33.7721 201.863 34.1367C201.663 34.5195 201.535 35.0208 201.48 35.6406C201.444 36.2422 201.426 36.7253 201.426 37.0898L201.453 39.0859C201.435 39.5417 201.389 40.0065 201.316 40.4805C201.225 40.9362 201.052 41.3919 200.797 41.8477C200.523 42.3216 200.277 42.6042 200.059 42.6953L199.621 42.8047C199.512 42.7682 199.375 42.5768 199.211 42.2305L198.801 41.3008C198.691 41.0273 198.6 40.8451 198.527 40.7539L198.199 40.3711L194.207 40.6992C193.35 40.7721 192.74 40.8268 192.375 40.8633L192.02 40.8906H191.746L191.09 40.6992L190.871 41.4102C190.78 41.6654 190.671 41.8021 190.543 41.8203C190.397 41.8203 190.251 41.7018 190.105 41.4648C189.905 41.1549 189.768 40.8268 189.695 40.4805C189.641 40.2253 189.613 39.9974 189.613 39.7969C189.613 39.6693 189.659 39.4232 189.75 39.0586C189.859 38.7122 189.923 38.4206 189.941 38.1836C189.978 37.9284 190.014 37.3906 190.051 36.5703V35.6133C190.051 35.3581 190.014 35.0117 189.941 34.5742C189.868 34.1549 189.777 33.8177 189.668 33.5625L189.559 33.1523C189.595 33.0247 189.677 32.9427 189.805 32.9062C189.951 32.9062 190.142 32.9336 190.379 32.9883L191.09 33.2617L192.457 33.125L193.059 32.0586C193.241 31.7487 193.396 31.4661 193.523 31.2109C193.651 30.9557 193.76 30.7005 193.852 30.4453C193.943 30.1901 194.007 29.9805 194.043 29.8164L194.098 29.5156L194.371 29.3242C194.517 29.306 194.681 29.3424 194.863 29.4336C195.301 29.6159 195.665 29.7982 195.957 29.9805L196.094 30.582L195.629 30.9102C195.52 30.9831 195.328 31.1471 195.055 31.4023C194.781 31.6758 194.462 31.9674 194.098 32.2773L193.168 33.0977ZM191.199 39.8789L195.875 39.4414L197.68 39.2227C197.953 39.2227 198.217 39.2591 198.473 39.332C198.71 39.4049 198.892 39.4779 199.02 39.5508L199.266 39.6602L199.484 39.6055C199.539 39.4596 199.594 39.2318 199.648 38.9219L199.73 38.4297L199.785 36.4883C199.348 36.5977 199.029 36.6706 198.828 36.707L197.297 36.9258L196.066 37.1172L194.098 37.3633C193.478 37.4727 193.086 37.5273 192.922 37.5273H191.281L191.199 39.8789ZM191.309 36.7617C191.746 36.6888 192.083 36.6341 192.32 36.5977L193.824 36.3789L195.684 36.0781C196.34 35.9688 196.868 35.8685 197.27 35.7773C197.671 35.7044 198.017 35.668 198.309 35.668C198.637 35.668 198.883 35.6862 199.047 35.7227L199.758 35.9414L199.812 34.2461C199.812 33.8451 199.721 33.599 199.539 33.5078C199.357 33.4167 199.156 33.3711 198.938 33.3711C198.299 33.3893 197.743 33.4076 197.27 33.4258C196.814 33.4622 196.212 33.526 195.465 33.6172L191.418 34.1367L191.309 36.7617ZM187.672 23.0625L188.438 23.1445C188.565 23.1445 188.848 23.1992 189.285 23.3086C189.723 23.418 190.014 23.5456 190.16 23.6914C190.306 23.8372 190.379 24.0378 190.379 24.293C190.379 24.5482 190.306 24.7122 190.16 24.7852C190.014 24.8945 189.868 24.9492 189.723 24.9492C189.577 24.9492 189.413 24.9219 189.23 24.8672C189.048 24.8125 188.839 24.6758 188.602 24.457L187.973 23.9648C187.663 23.7096 187.453 23.5273 187.344 23.418L187.426 23.0898L187.672 23.0625ZM193.77 24.0469L193.797 26.8633C193.797 27.2461 193.779 27.6471 193.742 28.0664C193.724 28.4674 193.633 28.8503 193.469 29.2148C193.305 29.5612 193.04 29.8711 192.676 30.1445C192.366 30.3815 192.102 30.4818 191.883 30.4453C191.792 30.3177 191.564 30.026 191.199 29.5703L190.652 28.9414L190.297 28.668L189.887 28.0391L190.105 28.0117L190.598 28.0664C191.072 28.1576 191.4 28.2031 191.582 28.2031C191.746 28.2031 191.901 28.1484 192.047 28.0391C192.193 27.9297 192.302 27.7565 192.375 27.5195C192.43 27.2643 192.475 26.7448 192.512 25.9609L192.566 24.8945L192.484 22.1328C192.466 21.9505 192.439 21.7956 192.402 21.668L192.266 21.4219C192.174 21.349 192.001 21.3216 191.746 21.3398C191.618 21.3398 191.418 21.3581 191.145 21.3945C190.853 21.4128 190.561 21.4401 190.27 21.4766L189.23 21.6133C188.757 21.6862 188.419 21.7682 188.219 21.8594L187.617 21.9688C187.326 21.8776 187.134 21.7591 187.043 21.6133L186.934 21.3125L187.371 21.1758L187.973 21.1211C188.337 21.0846 188.629 21.0482 188.848 21.0117C189.066 20.9753 189.322 20.9297 189.613 20.875C189.905 20.8203 190.242 20.7474 190.625 20.6562C191.008 20.5833 191.382 20.474 191.746 20.3281L192.375 20.1094C192.503 20.1276 192.63 20.1458 192.758 20.1641C192.867 20.1823 193.031 20.2461 193.25 20.3555C193.451 20.4648 193.678 20.6289 193.934 20.8477C194.189 21.0664 194.326 21.2578 194.344 21.4219L194.18 21.8047C194.016 22.0781 193.897 22.3607 193.824 22.6523C193.77 22.8346 193.742 23.099 193.742 23.4453C193.742 23.6276 193.751 23.8281 193.77 24.0469ZM199.895 28.1211L199.512 27.6836L199.73 27.5195L200.223 27.6562C200.441 27.7292 200.624 27.7839 200.77 27.8203C200.952 27.8385 201.116 27.8477 201.262 27.8477C201.408 27.8294 201.553 27.7747 201.699 27.6836C201.845 27.6107 201.973 27.3464 202.082 26.8906C202.191 26.4349 202.246 25.8698 202.246 25.1953L202.219 22.2148L202.137 21.0117C202.046 20.8659 201.927 20.7656 201.781 20.7109C201.617 20.6562 201.408 20.6289 201.152 20.6289C200.715 20.6654 200.368 20.6836 200.113 20.6836C199.876 20.7201 199.621 20.7474 199.348 20.7656L198.09 20.9297C197.543 20.9844 197.151 21.0391 196.914 21.0938L196.422 21.1484C196.221 21.1484 196.039 21.1211 195.875 21.0664C195.674 20.9935 195.547 20.8112 195.492 20.5195L195.902 20.4375L196.941 20.3281C197.671 20.2552 198.181 20.2005 198.473 20.1641C198.764 20.1276 199.165 20.0638 199.676 19.9727C200.204 19.8815 200.615 19.7995 200.906 19.7266L201.727 19.5078C201.927 19.4531 202.128 19.4258 202.328 19.4258L202.711 19.5352C202.911 19.5898 203.121 19.681 203.34 19.8086C203.559 19.9544 203.759 20.1185 203.941 20.3008L204.215 20.7656L204.051 21.1484C203.96 21.349 203.859 21.6133 203.75 21.9414C203.659 22.306 203.613 22.6523 203.613 22.9805L203.641 24.8945L203.695 25.6875C203.714 26.1797 203.723 26.5716 203.723 26.8633C203.723 27.319 203.668 27.7474 203.559 28.1484C203.449 28.5677 203.276 28.9596 203.039 29.3242C202.802 29.7253 202.556 29.9896 202.301 30.1172L201.836 30.3086C201.599 30.2721 201.371 30.0807 201.152 29.7344C200.934 29.388 200.715 29.069 200.496 28.7773C200.277 28.5039 200.077 28.2852 199.895 28.1211ZM197.051 21.9961L197.598 22.1055L198.199 22.1875C198.491 22.2422 198.828 22.3242 199.211 22.4336C199.576 22.543 199.831 22.6888 199.977 22.8711C200.086 23.0169 200.141 23.2083 200.141 23.4453C200.122 23.6823 200.04 23.8737 199.895 24.0195C199.749 24.1289 199.576 24.1836 199.375 24.1836C199.174 24.1836 198.938 24.1016 198.664 23.9375C198.391 23.7734 198.126 23.582 197.871 23.3633L196.941 22.5977L196.641 22.3242L196.832 22.0234L197.051 21.9961ZM188.875 26.4805L191.391 25.2227L191.555 25.5234L189.477 27.3008C189.203 27.5195 188.993 27.6927 188.848 27.8203C188.702 27.9479 188.556 28.0938 188.41 28.2578C188.264 28.4219 188.146 28.5768 188.055 28.7227L187.672 29.0508C187.544 29.0508 187.408 29.0143 187.262 28.9414C187.079 28.8685 186.879 28.7409 186.66 28.5586C186.441 28.3763 186.286 28.2305 186.195 28.1211C186.104 28.0117 186.022 27.8659 185.949 27.6836L186.113 27.4102C186.35 27.3555 186.56 27.3099 186.742 27.2734C186.906 27.2188 187.07 27.1732 187.234 27.1367C187.38 27.1003 187.645 27.0091 188.027 26.8633C188.392 26.7174 188.674 26.5898 188.875 26.4805ZM201.316 24.5664L198.855 26.5352L198.145 27.1367C197.999 27.2461 197.844 27.3828 197.68 27.5469L197.27 27.957L197.051 28.1484L196.832 28.2305C196.668 28.2305 196.486 28.1484 196.285 27.9844C196.066 27.8385 195.911 27.7201 195.82 27.6289C195.729 27.556 195.592 27.4193 195.41 27.2188C195.246 27.0182 195.21 26.7904 195.301 26.5352C195.538 26.4622 195.729 26.4167 195.875 26.3984C196.003 26.3802 196.167 26.3438 196.367 26.2891C196.549 26.2344 196.814 26.1432 197.16 26.0156C197.507 25.888 197.816 25.7604 198.09 25.6328L201.18 24.2656L201.398 24.4297L201.316 24.5664Z" fill="#333333"/>
<path d="M255.266 29.9258C255.12 29.9258 254.974 29.8984 254.828 29.8438C254.682 29.7708 254.573 29.6615 254.5 29.5156C254.445 29.3516 254.327 29.1602 254.145 28.9414C253.98 28.7227 253.816 28.5586 253.652 28.4492L253.762 28.3125C253.853 28.3672 254.072 28.4766 254.418 28.6406C254.764 28.8047 255.02 28.8867 255.184 28.8867C255.439 28.8867 255.667 28.7956 255.867 28.6133C256.068 28.431 256.323 28.0846 256.633 27.5742C256.852 27.2279 257.052 26.8177 257.234 26.3438C257.417 25.8698 257.553 25.4323 257.645 25.0312L257.672 24.9766C257.672 24.9219 257.654 24.8763 257.617 24.8398C257.581 24.7852 257.544 24.7578 257.508 24.7578L256.25 24.8672C255.411 25.013 254.536 25.1315 253.625 25.2227C253.461 25.2409 253.27 25.2865 253.051 25.3594C252.832 25.4323 252.677 25.4688 252.586 25.4688C252.44 25.4688 252.249 25.3503 252.012 25.1133C251.921 25.0404 251.829 24.9492 251.738 24.8398C251.665 24.7305 251.647 24.6393 251.684 24.5664C251.829 24.4206 251.902 24.3477 251.902 24.3477L252.039 24.2383C252.294 23.9831 252.549 23.6458 252.805 23.2266C252.987 22.9714 253.178 22.543 253.379 21.9414C253.379 21.7409 253.424 21.6406 253.516 21.6406C253.57 21.6406 253.661 21.6771 253.789 21.75L254.227 22.0234C254.336 22.1146 254.409 22.1875 254.445 22.2422C254.482 22.2969 254.5 22.3698 254.5 22.4609C254.5 22.5703 254.427 22.707 254.281 22.8711C254.135 23.0169 254.008 23.1628 253.898 23.3086L253.27 24.2109L253.215 24.3203C253.215 24.375 253.288 24.4023 253.434 24.4023L255.539 24.1289L256.961 24.0195L257.508 23.9648L257.809 23.9102H257.891C258.073 23.9102 258.273 24.0651 258.492 24.375C258.747 24.612 258.875 24.8125 258.875 24.9766L258.738 25.332C258.72 25.3685 258.574 25.7969 258.301 26.6172C257.973 27.401 257.69 27.9935 257.453 28.3945C257.216 28.7956 256.961 29.1055 256.688 29.3242C256.195 29.7253 255.721 29.9258 255.266 29.9258ZM258.164 38.8945C257.891 38.8945 257.626 38.694 257.371 38.293C257.043 37.7826 256.724 37.3633 256.414 37.0352L255.703 36.2969C255.32 36.7344 254.983 37.0807 254.691 37.3359C254.418 37.5911 254.072 37.8372 253.652 38.0742C252.868 38.5299 252.212 38.7578 251.684 38.7578C251.556 38.7578 251.492 38.7122 251.492 38.6211C251.492 38.5664 251.665 38.4479 252.012 38.2656C252.358 38.0833 252.686 37.8646 252.996 37.6094C253.78 36.9531 254.427 36.2786 254.938 35.5859C254.828 35.4766 254.281 35.0026 253.297 34.1641C253.169 34.0729 252.978 33.918 252.723 33.6992C252.668 33.6628 252.559 33.5807 252.395 33.4531C252.23 33.3255 252.148 33.2344 252.148 33.1797C252.148 33.0885 252.194 33.043 252.285 33.043C252.559 33.043 252.996 33.2344 253.598 33.6172C254.199 33.9818 254.828 34.4193 255.484 34.9297C255.74 34.6198 255.94 34.3281 256.086 34.0547C256.232 33.7812 256.396 33.444 256.578 33.043C256.669 32.8424 256.724 32.6693 256.742 32.5234C256.76 32.3594 256.77 32.2591 256.77 32.2227C256.77 32.0221 256.824 31.9219 256.934 31.9219C257.061 31.9219 257.234 32.0221 257.453 32.2227C257.836 32.5872 258.027 32.8333 258.027 32.9609C258.027 33.0339 257.982 33.1159 257.891 33.207C257.672 33.4258 257.471 33.7174 257.289 34.082C257.18 34.3008 256.979 34.6107 256.688 35.0117C256.596 35.1211 256.523 35.2214 256.469 35.3125C256.414 35.4036 256.359 35.4857 256.305 35.5586C256.724 35.8685 257.344 36.3971 258.164 37.1445C258.365 37.3268 258.492 37.5 258.547 37.6641C258.62 37.8099 258.656 38.0104 258.656 38.2656C258.656 38.4479 258.611 38.6029 258.52 38.7305C258.428 38.8398 258.31 38.8945 258.164 38.8945ZM260.242 29.2695C260.333 29.2695 260.47 29.3333 260.652 29.4609C260.634 29.4974 260.671 29.5703 260.762 29.6797C260.853 29.7708 260.917 29.8346 260.953 29.8711C261.044 29.9622 261.135 30.0716 261.227 30.1992C261.336 30.3268 261.454 30.4635 261.582 30.6094C261.91 30.9557 262.667 31.8581 263.852 33.3164C264.052 33.6081 264.152 33.7812 264.152 33.8359C264.152 34.0182 264.043 34.1094 263.824 34.1094C263.697 34.1094 263.56 34.0182 263.414 33.8359C263.068 33.4714 262.448 32.8971 261.555 32.1133C260.862 31.4753 260.233 30.9831 259.668 30.6367C259.395 30.5091 259.258 30.3633 259.258 30.1992C259.258 30.0716 259.395 29.8893 259.668 29.6523C259.923 29.3971 260.115 29.2695 260.242 29.2695ZM237.602 31.4023L237.246 31.4297L236.234 31.5117L235.223 31.5664L234.484 31.5117V32.5781C234.484 32.8516 234.457 33.0977 234.402 33.3164C234.348 33.5352 234.266 33.7539 234.156 33.9727L233.664 34.2461C233.518 34.1185 233.4 33.9544 233.309 33.7539C233.199 33.5716 233.145 33.3529 233.145 33.0977L233.227 32.6602C233.263 32.332 233.281 31.9492 233.281 31.5117L233.254 30.0898C233.236 29.7617 233.19 29.3516 233.117 28.8594C233.044 28.3672 232.99 28.0482 232.953 27.9023L232.789 26.9727C232.935 26.9362 233.108 26.9544 233.309 27.0273L233.719 27.1914L234.156 27.3008C234.922 27.1732 235.624 27.0638 236.262 26.9727L237.246 26.8086L237.656 26.7539V25.5508C237.365 25.6237 237.155 25.6602 237.027 25.6602L236.398 25.7695L235.168 25.9609C234.949 25.9609 234.749 25.9427 234.566 25.9062C234.329 25.8516 234.138 25.7969 233.992 25.7422C233.846 25.6875 233.728 25.6055 233.637 25.4961L233.5 25.3047C233.536 25.1771 233.682 25.1133 233.938 25.1133C234.193 25.1133 234.539 25.0768 234.977 25.0039L236.289 24.7852L236.727 24.7305L237.684 24.5664L237.656 24.2383L237.574 23.8008L237.465 23.3906L237.273 22.8711L237.328 22.6523C237.401 22.543 237.574 22.4974 237.848 22.5156C238.066 22.5703 238.276 22.6341 238.477 22.707L238.969 22.8711C239.078 22.9258 239.224 23.0169 239.406 23.1445C239.589 23.2539 239.689 23.3633 239.707 23.4727L239.488 24.0742C239.962 24.0195 240.336 23.9648 240.609 23.9102C240.865 23.8372 241.065 23.7734 241.211 23.7188L241.457 23.6367C241.566 23.6185 241.721 23.6367 241.922 23.6914C242.104 23.7279 242.268 23.7734 242.414 23.8281C242.56 23.8828 242.715 23.9557 242.879 24.0469L243.125 24.2383C243.107 24.3477 243.043 24.4479 242.934 24.5391C242.824 24.6302 242.678 24.6849 242.496 24.7031L241.84 24.7852L241.348 24.8945C241.074 24.9492 240.719 25.013 240.281 25.0859L239.297 25.2773L239.242 25.9336L239.215 26.4805L239.953 26.3438L241.266 26.125C241.849 26.0339 242.268 25.9336 242.523 25.8242L243.098 25.6602L243.453 25.8242L244.082 26.125L244.465 26.4258C244.684 26.5716 244.82 26.8177 244.875 27.1641C244.729 27.401 244.638 27.5833 244.602 27.7109C244.565 27.8568 244.547 28.1211 244.547 28.5039L244.383 31.293C244.346 31.8763 244.264 32.3958 244.137 32.8516C244.009 33.3073 243.799 33.6536 243.508 33.8906C243.253 34.0911 243.034 34.1914 242.852 34.1914C242.651 34.1914 242.451 34.0456 242.25 33.7539L241.676 32.9883C241.512 32.7695 241.375 32.6055 241.266 32.4961L240.883 32.0859L240.801 31.7852C240.91 31.7669 241.111 31.8216 241.402 31.9492L242.059 32.1953L242.359 32.2773C242.505 32.2409 242.596 32.168 242.633 32.0586C242.688 31.9492 242.742 31.6211 242.797 31.0742V30.582L242.359 30.7188L241.812 30.8008C241.521 30.8372 241.147 30.8919 240.691 30.9648C240.236 31.0378 239.826 31.0924 239.461 31.1289L238.969 31.1836C238.932 31.6576 238.896 32.0404 238.859 32.332C238.823 32.6237 238.777 32.8607 238.723 33.043C238.668 33.2253 238.595 33.4531 238.504 33.7266C238.413 34 238.331 34.1823 238.258 34.2734L237.957 34.3281C237.848 34.1458 237.775 33.8815 237.738 33.5352L237.656 32.8516L237.602 31.9766V31.4023ZM237.602 28.7773L237.629 27.4922L237.027 27.5742L236.754 27.6289L235.523 27.8477L234.43 28.0664V29.0781H234.977C235.122 29.0781 235.469 29.0326 236.016 28.9414L236.809 28.8594L237.602 28.7773ZM239.133 28.5039C239.297 28.4857 239.57 28.4492 239.953 28.3945L240.609 28.2852L241.211 28.1211L241.977 28.0391C242.195 28.0573 242.359 28.0846 242.469 28.1211L242.961 28.2852L242.934 27.5742C242.897 27.3555 242.833 27.1914 242.742 27.082C242.669 26.9909 242.414 26.9544 241.977 26.9727L240.09 27.1641L239.188 27.2734L239.133 28.5039ZM237.602 29.4609C237.273 29.5156 237.018 29.543 236.836 29.543L236.453 29.5977L235.688 29.6523L235.141 29.707L234.457 29.6523L234.484 30.9375C234.776 30.9193 235.049 30.9102 235.305 30.9102C235.578 30.8737 235.861 30.8464 236.152 30.8281C236.444 30.8099 236.79 30.7643 237.191 30.6914L237.574 30.6367V30.0352L237.602 29.4609ZM239.078 29.2969L239.023 30.418C239.26 30.3633 239.443 30.3268 239.57 30.3086L240.281 30.1992L240.938 30.0898L241.785 29.9805C241.949 29.9805 242.141 30.0078 242.359 30.0625L242.852 30.1719L242.906 28.668L242.305 28.8594L241.785 28.9414C241.512 28.9779 241.138 29.0326 240.664 29.1055C240.19 29.1784 239.789 29.2331 239.461 29.2695L239.078 29.2969ZM240.117 36.2148C239.826 36.2331 239.607 36.2513 239.461 36.2695L238.859 36.3242L236.809 36.4336C236.517 36.4701 236.052 36.5339 235.414 36.625C234.776 36.7161 234.329 36.7891 234.074 36.8438C233.837 36.8984 233.628 36.944 233.445 36.9805L232.953 37.1445L232.625 37.2539C232.479 37.2539 232.306 37.2266 232.105 37.1719C231.905 37.1172 231.75 37.0625 231.641 37.0078L231.121 36.707C230.848 36.5612 230.665 36.3607 230.574 36.1055L230.711 35.9414L231.094 35.9141C231.24 35.9141 231.641 35.8958 232.297 35.8594C232.953 35.8047 233.464 35.7682 233.828 35.75L235.77 35.5586C236.699 35.4492 237.52 35.3672 238.23 35.3125C238.941 35.2578 239.361 35.2122 239.488 35.1758L240.008 35.1211C239.971 34.8841 239.935 34.6836 239.898 34.5195C239.862 34.3555 239.789 34.1458 239.68 33.8906L239.543 33.4531C239.598 33.3255 239.734 33.2617 239.953 33.2617C240.135 33.2617 240.4 33.3164 240.746 33.4258C241.092 33.5352 241.375 33.6536 241.594 33.7812C241.812 33.9089 241.922 34.0456 241.922 34.1914L241.758 34.5195L241.594 35.0117C241.831 34.9753 242.013 34.957 242.141 34.957L242.961 34.875L244.438 34.6562C244.984 34.6016 245.404 34.5286 245.695 34.4375L246.133 34.3281C246.352 34.3099 246.625 34.3555 246.953 34.4648C247.281 34.5742 247.518 34.6654 247.664 34.7383C247.81 34.8112 247.974 34.9297 248.156 35.0938L248.43 35.3945C248.411 35.5404 248.302 35.6589 248.102 35.75C247.883 35.8594 247.5 35.9232 246.953 35.9414H246.242C245.823 35.9414 245.176 35.9596 244.301 35.9961C243.444 36.0326 242.76 36.0599 242.25 36.0781L241.512 36.1055C241.512 36.3971 241.521 36.5977 241.539 36.707L241.621 38.5938C241.639 39.1953 241.648 39.7513 241.648 40.2617C241.63 40.8086 241.576 41.2643 241.484 41.6289C241.411 41.957 241.247 42.3125 240.992 42.6953C240.737 43.0599 240.509 43.2422 240.309 43.2422C240.126 43.2422 239.898 43.1055 239.625 42.832L238.941 42.0664C238.741 41.8477 238.458 41.5742 238.094 41.2461L237.574 40.7266L237.41 40.3711H237.629L238.312 40.5352L239.023 40.6445C239.352 40.7174 239.589 40.7539 239.734 40.7539C239.917 40.681 240.017 40.5169 240.035 40.2617C240.053 39.9883 240.081 39.5234 240.117 38.8672L240.172 37.8555L240.117 36.2148ZM226.172 29.1875L227.156 29.4609C227.648 29.6068 228.031 29.7982 228.305 30.0352C228.523 30.2539 228.633 30.6276 228.633 31.1562C228.615 31.4297 228.523 31.6576 228.359 31.8398C228.268 31.9492 228.15 32.0039 228.004 32.0039C227.876 32.0039 227.74 31.9766 227.594 31.9219C227.484 31.8854 227.375 31.8034 227.266 31.6758C227.12 31.5299 226.965 31.3477 226.801 31.1289C226.637 30.9102 226.473 30.6732 226.309 30.418L225.816 29.6523L225.734 29.3242L225.871 29.1602C225.999 29.1602 226.099 29.1693 226.172 29.1875ZM228.66 25.1133L229.59 25.3867C229.79 25.4414 230.018 25.5417 230.273 25.6875C230.529 25.8151 230.766 25.9974 230.984 26.2344C231.112 26.3802 231.176 26.5534 231.176 26.7539C231.176 26.8815 231.148 27.0273 231.094 27.1914C230.966 27.5924 230.738 27.8203 230.41 27.875C230.173 27.875 229.927 27.7565 229.672 27.5195C229.49 27.3555 229.298 27.1276 229.098 26.8359C228.897 26.526 228.77 26.3164 228.715 26.207L228.305 25.4961L228.25 25.1133C228.396 25.0768 228.533 25.0768 228.66 25.1133ZM234.129 37.6914L235.004 37.9102C235.314 38.0195 235.578 38.1471 235.797 38.293C236.016 38.4388 236.189 38.6393 236.316 38.8945L236.398 39.168C236.398 39.3685 236.362 39.5417 236.289 39.6875C236.18 39.9609 235.988 40.1341 235.715 40.207C235.551 40.207 235.396 40.1706 235.25 40.0977C235.068 40.0065 234.867 39.806 234.648 39.4961C234.43 39.2044 234.247 38.9492 234.102 38.7305L233.719 37.6914C233.846 37.6549 233.983 37.6549 234.129 37.6914ZM239.98 21.0938L240.5 21.1758L241.102 21.2852C241.32 21.3216 241.53 21.3763 241.73 21.4492C241.931 21.5221 242.086 21.6224 242.195 21.75C242.305 21.8776 242.359 22.0872 242.359 22.3789C242.359 22.5794 242.314 22.7253 242.223 22.8164C242.095 22.9622 241.931 23.0443 241.73 23.0625C241.548 23.0625 241.32 22.9714 241.047 22.7891L240.664 22.3789L240.227 21.9414L239.816 21.4492L239.734 21.1211L239.98 21.0938ZM231.531 22.1602L232.105 22.2695C232.306 22.306 232.543 22.3789 232.816 22.4883C233.09 22.5612 233.29 22.6432 233.418 22.7344C233.546 22.8073 233.628 22.9076 233.664 23.0352C233.701 23.1445 233.719 23.2812 233.719 23.4453C233.701 23.6641 233.618 23.8372 233.473 23.9648C233.363 24.0742 233.208 24.1289 233.008 24.1289C232.789 24.1107 232.534 23.9284 232.242 23.582L231.531 22.7891L231.203 22.4609L231.176 22.1602C231.303 22.1237 231.422 22.1237 231.531 22.1602ZM230.219 33.0977L230.82 32.0312L231.094 31.8672L231.23 32.1953L230.82 33.4531L230.328 34.7656L229.18 37.6367L228.66 39.0039L228.277 40.0977C228.204 40.3529 228.132 40.5443 228.059 40.6719L227.648 40.8633C227.466 40.7539 227.339 40.6354 227.266 40.5078C227.193 40.3984 227.047 40.0339 226.828 39.4141C226.628 38.849 226.527 38.4479 226.527 38.2109L226.555 37.9102C226.664 37.7643 226.828 37.6094 227.047 37.4453C227.302 37.2812 227.521 37.099 227.703 36.8984C227.922 36.6979 228.15 36.4245 228.387 36.0781L229.234 34.793C229.544 34.3008 229.872 33.7357 230.219 33.0977ZM244.055 23.7188L244.547 23.8008C244.766 23.8372 245.121 23.9102 245.613 24.0195C246.105 24.1289 246.443 24.2565 246.625 24.4023C246.807 24.5299 246.926 24.6576 246.98 24.7852C247.053 24.8945 247.09 25.0221 247.09 25.168C247.072 25.3138 247.035 25.4505 246.98 25.5781L246.789 25.7969L246.406 25.9062C246.224 25.9062 246.051 25.8698 245.887 25.7969C245.686 25.724 245.458 25.5872 245.203 25.3867C244.948 25.2044 244.738 25.013 244.574 24.8125L244.055 24.2383L243.891 23.7734L244.055 23.7188ZM231.641 20.3555C231.969 20.3008 232.233 20.2552 232.434 20.2188C232.634 20.1641 232.862 20.1094 233.117 20.0547L233.938 19.8633L234.922 19.6445L235.441 19.8086C235.751 19.918 235.961 20 236.07 20.0547L236.289 20.2461L236.207 20.6289L235.852 20.7383L234.812 20.957C234.43 21.0299 233.938 21.0846 233.336 21.1211C232.953 21.1393 232.643 21.1484 232.406 21.1484L231.148 21.0117C230.966 21.2122 230.829 21.3763 230.738 21.5039L230.383 21.9414C230.237 22.1055 230.064 22.2695 229.863 22.4336C229.681 22.6159 229.38 22.862 228.961 23.1719C228.56 23.5 228.268 23.7096 228.086 23.8008L227.266 23.8281L227.867 23.1992L228.359 22.707C228.688 22.3424 228.952 22.0143 229.152 21.7227C229.353 21.431 229.599 21.0299 229.891 20.5195C230.182 20.0091 230.383 19.6354 230.492 19.3984C230.62 19.1615 230.711 18.9518 230.766 18.7695C230.802 18.5872 230.82 18.3867 230.82 18.168L231.039 17.8125C231.294 17.7943 231.513 17.8398 231.695 17.9492C231.896 18.0404 232.069 18.1315 232.215 18.2227C232.379 18.332 232.525 18.4596 232.652 18.6055L232.844 19.1523C232.807 19.2617 232.716 19.3529 232.57 19.4258C232.443 19.4987 232.333 19.5807 232.242 19.6719L231.914 20.0547L231.641 20.3555ZM239.406 19.6992L242.523 19.0703L243.289 18.9336C243.617 18.8607 243.863 18.8333 244.027 18.8516L244.383 18.9609C244.602 19.0156 244.802 19.0977 244.984 19.207C245.13 19.2982 245.176 19.4896 245.121 19.7812C244.993 19.8906 244.784 19.9635 244.492 20L243.344 20.1914L241.703 20.4102C241.174 20.4831 240.828 20.5195 240.664 20.5195C240.263 20.5195 239.953 20.4922 239.734 20.4375L238.969 20.2461C238.75 20.4831 238.586 20.6654 238.477 20.793L237.957 21.2578L237.273 21.8867L236.617 22.2695L236.18 22.4883L235.824 22.3516L236.316 21.832L236.645 21.4492L237.055 20.957C237.292 20.6654 237.492 20.3737 237.656 20.082L238.121 19.2617L238.367 18.7969C238.404 18.6328 238.449 18.4505 238.504 18.25L238.531 17.8672L238.723 17.4023C238.832 17.3841 238.951 17.4023 239.078 17.457L239.68 17.6211C239.826 17.694 239.99 17.7852 240.172 17.8945C240.354 18.0039 240.454 18.2044 240.473 18.4961L240.172 18.7695C239.99 18.8971 239.844 19.043 239.734 19.207L239.406 19.6992Z" fill="#333333"/>
</svg>
