<svg width="320" height="60" viewBox="0 0 320 60" fill="none" xmlns="http://www.w3.org/2000/svg">
<path d="M108.266 29.9258C108.12 29.9258 107.974 29.8984 107.828 29.8438C107.682 29.7708 107.573 29.6615 107.5 29.5156C107.445 29.3516 107.327 29.1602 107.145 28.9414C106.98 28.7227 106.816 28.5586 106.652 28.4492L106.762 28.3125C106.853 28.3672 107.072 28.4766 107.418 28.6406C107.764 28.8047 108.02 28.8867 108.184 28.8867C108.439 28.8867 108.667 28.7956 108.867 28.6133C109.068 28.431 109.323 28.0846 109.633 27.5742C109.852 27.2279 110.052 26.8177 110.234 26.3438C110.417 25.8698 110.553 25.4323 110.645 25.0312L110.672 24.9766C110.672 24.9219 110.654 24.8763 110.617 24.8398C110.581 24.7852 110.544 24.7578 110.508 24.7578L109.25 24.8672C108.411 25.013 107.536 25.1315 106.625 25.2227C106.461 25.2409 106.27 25.2865 106.051 25.3594C105.832 25.4323 105.677 25.4688 105.586 25.4688C105.44 25.4688 105.249 25.3503 105.012 25.1133C104.921 25.0404 104.829 24.9492 104.738 24.8398C104.665 24.7305 104.647 24.6393 104.684 24.5664C104.829 24.4206 104.902 24.3477 104.902 24.3477L105.039 24.2383C105.294 23.9831 105.549 23.6458 105.805 23.2266C105.987 22.9714 106.178 22.543 106.379 21.9414C106.379 21.7409 106.424 21.6406 106.516 21.6406C106.57 21.6406 106.661 21.6771 106.789 21.75L107.227 22.0234C107.336 22.1146 107.409 22.1875 107.445 22.2422C107.482 22.2969 107.5 22.3698 107.5 22.4609C107.5 22.5703 107.427 22.707 107.281 22.8711C107.135 23.0169 107.008 23.1628 106.898 23.3086L106.27 24.2109L106.215 24.3203C106.215 24.375 106.288 24.4023 106.434 24.4023L108.539 24.1289L109.961 24.0195L110.508 23.9648L110.809 23.9102H110.891C111.073 23.9102 111.273 24.0651 111.492 24.375C111.747 24.612 111.875 24.8125 111.875 24.9766L111.738 25.332C111.72 25.3685 111.574 25.7969 111.301 26.6172C110.973 27.401 110.69 27.9935 110.453 28.3945C110.216 28.7956 109.961 29.1055 109.688 29.3242C109.195 29.7253 108.721 29.9258 108.266 29.9258ZM109.359 34.3281C109.177 34.5651 108.986 34.6836 108.785 34.6836C108.73 34.6836 108.703 34.638 108.703 34.5469C108.703 34.4193 108.74 34.2734 108.812 34.1094C108.812 34.1094 108.995 33.7448 109.359 33.0156C109.378 32.9427 109.405 32.8698 109.441 32.7969C109.478 32.724 109.505 32.6602 109.523 32.6055V32.5781C109.523 32.5417 109.496 32.5052 109.441 32.4688C109.387 32.4323 109.323 32.4232 109.25 32.4414C108.958 32.4596 108.521 32.5052 107.938 32.5781C107.372 32.651 106.953 32.724 106.68 32.7969C106.57 32.8333 106.434 32.8789 106.27 32.9336C106.124 32.9883 106.005 33.0156 105.914 33.0156C105.586 33.0156 105.312 32.9154 105.094 32.7148C104.911 32.5872 104.775 32.4596 104.684 32.332L104.629 32.1953C104.629 32.1042 104.784 32.0768 105.094 32.1133C105.513 32.1497 106.379 32.0951 107.691 31.9492L108.238 31.8672C108.384 31.849 108.612 31.8216 108.922 31.7852C109.25 31.7305 109.505 31.6758 109.688 31.6211C109.742 31.6029 109.797 31.5846 109.852 31.5664C109.924 31.5299 109.988 31.5117 110.043 31.5117C110.134 31.5117 110.243 31.5573 110.371 31.6484C110.517 31.7396 110.635 31.8216 110.727 31.8945C110.854 31.9857 110.936 32.0677 110.973 32.1406C111.027 32.1953 111.046 32.2682 111.027 32.3594C111.027 32.4505 110.982 32.5326 110.891 32.6055C110.799 32.6784 110.736 32.7331 110.699 32.7695C110.663 32.8242 110.535 32.9609 110.316 33.1797C110.225 33.3255 110.061 33.526 109.824 33.7812C109.605 34.0365 109.451 34.2188 109.359 34.3281ZM107.992 39.7148C107.992 39.6602 108.083 39.5234 108.266 39.3047C108.466 39.0677 108.621 38.8854 108.73 38.7578C109.004 38.3932 109.332 37.8646 109.715 37.1719C110.116 36.4792 110.344 36.0234 110.398 35.8047C110.435 35.6953 110.38 35.6406 110.234 35.6406C109.943 35.6406 109.141 35.7227 107.828 35.8867C106.971 35.9961 106.333 36.1055 105.914 36.2148C105.823 36.2695 105.732 36.2969 105.641 36.2969C105.495 36.2969 105.34 36.1966 105.176 35.9961C105.103 35.8685 105.066 35.75 105.066 35.6406C105.066 35.5677 105.112 35.4948 105.203 35.4219L105.285 35.3125C105.34 35.2031 105.404 35.0573 105.477 34.875C105.549 34.6927 105.613 34.5195 105.668 34.3555C105.759 34.0638 105.823 33.7448 105.859 33.3984C105.878 33.1979 105.987 33.1432 106.188 33.2344C106.443 33.362 106.634 33.4896 106.762 33.6172C106.908 33.7266 106.953 33.8086 106.898 33.8633C106.716 34.082 106.57 34.3281 106.461 34.6016C106.37 34.8932 106.315 35.0846 106.297 35.1758C106.297 35.2487 106.342 35.2852 106.434 35.2852C106.707 35.2852 107.117 35.2396 107.664 35.1484C107.974 35.112 108.357 35.0664 108.812 35.0117C109.268 34.957 109.633 34.9023 109.906 34.8477L110.59 34.7109C110.645 34.6927 110.717 34.6836 110.809 34.6836C110.9 34.6836 110.991 34.7201 111.082 34.793C111.173 34.8477 111.273 34.9206 111.383 35.0117C111.565 35.1758 111.684 35.3125 111.738 35.4219C111.793 35.513 111.82 35.6224 111.82 35.75C111.82 35.8229 111.766 35.9141 111.656 36.0234C111.565 36.1328 111.456 36.306 111.328 36.543C110.799 37.6185 110.116 38.5208 109.277 39.25C109.04 39.4323 108.776 39.5872 108.484 39.7148C108.357 39.7513 108.238 39.7786 108.129 39.7969C108.038 39.7969 107.992 39.7695 107.992 39.7148ZM83.9844 35.6133L87.375 34.5195L87.5117 34.875L83.2734 37.1445C82.9818 37.2904 82.5443 37.5456 81.9609 37.9102L80.7852 38.6211C80.5846 38.7487 80.4115 38.8763 80.2656 39.0039C80.1016 39.1133 79.9375 39.1953 79.7734 39.25C79.6458 39.25 79.5182 39.2227 79.3906 39.168C79.263 39.0951 79.1172 39.0039 78.9531 38.8945C78.8073 38.7669 78.6159 38.612 78.3789 38.4297C78.1419 38.2292 77.9779 38.0195 77.8867 37.8008L77.9414 37.3633L78.5156 37.2539C78.6615 37.2539 78.9076 37.2083 79.2539 37.1172C79.6003 37.026 79.8555 36.9531 80.0195 36.8984L82.5352 36.0781L82.4531 31.4023C82.0339 31.4753 81.7057 31.5208 81.4688 31.5391H80.7578C80.5573 31.5208 80.3477 31.4935 80.1289 31.457C79.9284 31.3841 79.7643 31.2839 79.6367 31.1562L79.5 30.8555L79.8828 30.7188L80.4844 30.6094L82.3984 30.2266V28.5586C82.3802 27.9753 82.362 27.4831 82.3438 27.082C82.3438 26.681 82.2344 26.2982 82.0156 25.9336C81.6693 25.8789 81.3867 25.8516 81.168 25.8516C80.9857 25.8516 80.7943 25.8424 80.5938 25.8242C80.3021 25.7878 80.0651 25.7331 79.8828 25.6602C79.7005 25.6055 79.5638 25.5052 79.4727 25.3594L79.3086 25.0312L79.8281 24.8945L80.5664 24.7852C80.8398 24.7669 81.2865 24.694 81.9062 24.5664C82.526 24.457 83.0911 24.3477 83.6016 24.2383C84.0938 24.1289 84.4857 24.0286 84.7773 23.9375L85.4336 23.8008C85.6523 23.8008 85.8255 23.819 85.9531 23.8555C86.1536 23.8919 86.3815 23.9831 86.6367 24.1289C86.8919 24.2383 87.0469 24.3932 87.1016 24.5938C87.1016 24.7578 86.9557 24.8763 86.6641 24.9492C86.3724 25.0221 86.099 25.0768 85.8438 25.1133L83.6562 25.5508C83.8385 25.6237 84.0208 25.7148 84.2031 25.8242C84.3672 25.9336 84.4583 26.0703 84.4766 26.2344L84.3672 26.5898C84.3307 26.7539 84.2852 27.0729 84.2305 27.5469L84.1484 28.3125L84.1211 29.8438C84.2852 29.8073 84.4401 29.7708 84.5859 29.7344C84.7318 29.6797 84.9141 29.6523 85.1328 29.6523C85.2786 29.6341 85.4062 29.6341 85.5156 29.6523C85.8073 29.6706 86.0716 29.7161 86.3086 29.7891L86.7188 29.9258L86.8555 30.3359C86.7279 30.5 86.5365 30.6003 86.2812 30.6367L84.0938 31.0742L83.9844 35.6133ZM89.8633 31.3477L89.4805 31.6758C89.2799 31.6758 89.0885 31.6029 88.9062 31.457C88.7604 31.3112 88.5964 31.1016 88.4141 30.8281L87.7578 29.8164C87.5026 29.3971 87.2383 29.0234 86.9648 28.6953L86.6641 28.0938L87.0195 28.1484C87.293 28.2214 87.5573 28.3125 87.8125 28.4219C88.0677 28.5312 88.3594 28.6862 88.6875 28.8867C88.9974 29.069 89.2435 29.2513 89.4258 29.4336L89.7266 29.7344L89.9727 30.2266L90.0273 28.4766C90.0456 27.9115 90.0547 27.1185 90.0547 26.0977C90.0547 25.0768 90.0365 24.293 90 23.7461C89.9635 23.0898 89.8997 22.5703 89.8086 22.1875C89.7174 21.8047 89.5898 21.4492 89.4258 21.1211L89.2344 20.5742C89.3073 20.4102 89.444 20.3008 89.6445 20.2461C89.8268 20.2461 90.0273 20.2826 90.2461 20.3555C90.5195 20.4284 90.8385 20.556 91.2031 20.7383C91.5859 20.9023 91.8229 21.0573 91.9141 21.2031C91.987 21.3307 92.0326 21.4674 92.0508 21.6133C92.0508 21.7591 92.0234 21.9779 91.9688 22.2695C91.9323 22.3789 91.8958 22.6159 91.8594 22.9805C91.8047 23.3633 91.7682 23.6367 91.75 23.8008C91.75 23.9466 91.7318 24.4023 91.6953 25.168L91.5586 28.0664C91.5039 29.2695 91.4492 30.2904 91.3945 31.1289C91.3398 31.9857 91.2487 32.7513 91.1211 33.4258C90.9935 34.1185 90.8021 34.8841 90.5469 35.7227C90.2917 36.5612 89.9635 37.3815 89.5625 38.1836C89.1615 38.9857 88.6055 39.7331 87.8945 40.4258C87.1836 41.1003 86.5 41.638 85.8438 42.0391L85.1602 42.0117L85.5156 41.6289C85.8438 41.3008 86.1901 40.8997 86.5547 40.4258C86.901 39.9701 87.2839 39.3958 87.7031 38.7031C88.1042 38.0286 88.4505 37.3359 88.7422 36.625C89.0339 35.9323 89.2617 35.1849 89.4258 34.3828C89.5898 33.599 89.7083 32.8424 89.7812 32.1133L89.8633 31.3477ZM95.5234 31.5117C95.1589 31.5664 94.8034 31.612 94.457 31.6484H93.5273C93.2721 31.6302 93.0078 31.5573 92.7344 31.4297C92.4792 31.3203 92.388 31.1562 92.4609 30.9375C92.6068 30.8099 92.7708 30.7461 92.9531 30.7461L93.5 30.6914C93.974 30.6367 94.4297 30.5729 94.8672 30.5L95.5234 30.3906L95.5781 26.9453C95.5781 26.6719 95.5508 26.4076 95.4961 26.1523C95.4596 25.8789 95.3503 25.569 95.168 25.2227C94.7669 25.1862 94.4297 25.168 94.1562 25.168C93.8646 25.168 93.5638 25.1497 93.2539 25.1133C92.944 25.0586 92.707 24.9492 92.543 24.7852L92.3516 24.4844C92.388 24.3385 92.5156 24.2565 92.7344 24.2383L93.1719 24.1836C93.3906 24.1471 93.8646 24.0742 94.5938 23.9648C95.3229 23.8555 95.8516 23.7734 96.1797 23.7188C96.5078 23.6458 96.8724 23.5547 97.2734 23.4453C97.6927 23.3542 98.0208 23.2721 98.2578 23.1992C98.513 23.1263 98.7044 23.0898 98.832 23.0898C99.0326 23.0898 99.2878 23.1445 99.5977 23.2539C99.9258 23.3451 100.163 23.4544 100.309 23.582L100.527 23.8555L100.445 24.0742L100.172 24.2383L99.5977 24.3477L97.9023 24.6758L96.8633 24.8672C97.0638 24.9583 97.237 25.0586 97.3828 25.168L97.6016 25.4141C97.6016 25.5417 97.5833 25.6602 97.5469 25.7695L97.4375 26.1523C97.401 26.2982 97.3737 26.6081 97.3555 27.082L97.1914 30.0898C97.5378 30.0169 97.8203 29.9622 98.0391 29.9258C98.276 29.8893 98.4766 29.862 98.6406 29.8438C98.8594 29.8438 99.1146 29.8802 99.4062 29.9531C99.6979 30.0078 99.9531 30.0898 100.172 30.1992L100.5 30.418L100.418 30.6914C100.29 30.7826 100.072 30.8646 99.7617 30.9375L98.4766 31.1289L97.1367 31.293L96.918 36.9805L99.0781 36.707C99.2604 36.707 99.4974 36.6706 99.7891 36.5977C100.081 36.543 100.309 36.5156 100.473 36.5156C100.673 36.5339 100.919 36.5977 101.211 36.707C101.466 36.8164 101.74 36.9896 102.031 37.2266C102.268 37.4271 102.296 37.7096 102.113 38.0742L101.047 38.1016L98.75 38.0195C98.2943 38.0195 97.7018 38.0378 96.9727 38.0742C96.2435 38.1289 95.6146 38.2018 95.0859 38.293L94.4023 38.4023L93.8008 38.5117C93.6003 38.5846 93.3633 38.6667 93.0898 38.7578L92.543 38.8945C92.3424 38.8945 92.151 38.8581 91.9688 38.7852C91.75 38.6758 91.5312 38.5391 91.3125 38.375C91.0938 38.2109 90.957 37.9831 90.9023 37.6914L91.75 37.582C92.1328 37.5456 92.4792 37.5091 92.7891 37.4727L94.5938 37.1992L95.4961 37.0898L95.5234 31.5117Z" fill="#333333"/>
<path d="M152.316 30.0352C152.189 30.0352 152.052 29.9531 151.906 29.7891C151.797 29.6615 151.724 29.5612 151.688 29.4883C151.651 29.3971 151.651 29.2786 151.688 29.1328L151.715 28.4766C151.733 28.349 151.742 28.0391 151.742 27.5469V26.6445L150.922 27.0273L149.965 27.4375C149.728 27.5286 149.482 27.638 149.227 27.7656C149.008 27.875 148.816 27.9297 148.652 27.9297C148.525 27.9115 148.379 27.8659 148.215 27.793C148.051 27.7201 147.923 27.6562 147.832 27.6016C147.632 27.474 147.54 27.3372 147.559 27.1914L147.641 26.918C147.641 26.7721 147.65 26.6445 147.668 26.5352L147.695 24.9492V23.4727C147.695 23.181 147.677 22.9349 147.641 22.7344C147.604 22.5156 147.577 22.3607 147.559 22.2695C147.559 22.1784 147.586 22.1146 147.641 22.0781C147.659 22.0599 147.704 22.0508 147.777 22.0508C147.905 22.0508 148.151 22.1328 148.516 22.2969C148.826 22.4427 148.953 22.625 148.898 22.8438C148.862 22.9714 148.826 23.1628 148.789 23.418L148.707 26.5625C148.707 26.6536 148.716 26.7266 148.734 26.7812C148.771 26.8177 148.807 26.8359 148.844 26.8359C149.062 26.8359 149.327 26.7721 149.637 26.6445C150.22 26.4622 150.721 26.2799 151.141 26.0977L151.742 25.8516V24.0469C151.742 23.3177 151.697 22.6159 151.605 21.9414C151.587 21.8867 151.578 21.8229 151.578 21.75C151.578 21.5677 151.651 21.4766 151.797 21.4766C151.815 21.4766 151.915 21.513 152.098 21.5859C152.371 21.7318 152.572 21.8594 152.699 21.9688C152.827 22.0781 152.9 22.1419 152.918 22.1602C152.991 22.2148 153.027 22.2695 153.027 22.3242C153.027 22.3607 153.009 22.4062 152.973 22.4609C152.954 22.5156 152.936 22.5612 152.918 22.5977L152.836 23.418L152.809 25.9336L152.836 28.3672C152.836 28.7865 152.809 29.151 152.754 29.4609C152.663 29.8438 152.517 30.0352 152.316 30.0352ZM147.285 36.1602C147.085 36.1602 146.839 36.0052 146.547 35.6953C146.328 35.4766 146.219 35.3125 146.219 35.2031C146.219 35.1484 146.255 35.1211 146.328 35.1211C146.401 35.1029 146.492 35.0938 146.602 35.0938L147.203 35.0664C147.549 35.0664 147.777 35.0573 147.887 35.0391C148.233 35.0391 148.525 35.0299 148.762 35.0117C150.329 34.8659 151.387 34.7474 151.934 34.6562C152.207 34.6198 152.453 34.5833 152.672 34.5469C152.891 34.4922 153.064 34.4648 153.191 34.4648C153.447 34.4648 153.702 34.5924 153.957 34.8477C154.158 35.0482 154.258 35.2122 154.258 35.3398C154.258 35.4492 154.194 35.5221 154.066 35.5586C153.975 35.5768 153.438 35.6133 152.453 35.668C151.906 35.6862 151.232 35.7318 150.43 35.8047C149.628 35.8776 148.926 35.9505 148.324 36.0234C148.215 36.0417 148.06 36.069 147.859 36.1055C147.659 36.1419 147.467 36.1602 147.285 36.1602ZM158.742 27.082C158.961 27.082 159.07 27.1823 159.07 27.3828C159.07 27.4922 158.97 27.6471 158.77 27.8477C158.223 28.5221 157.138 29.8073 155.516 31.7031C155.388 31.8672 155.27 31.9492 155.16 31.9492C155.069 31.9492 154.868 31.8125 154.559 31.5391C154.303 31.3203 154.176 31.138 154.176 30.9922C154.176 30.8281 154.312 30.6732 154.586 30.5273C155.005 30.2904 155.634 29.8164 156.473 29.1055C157.311 28.3581 157.931 27.7656 158.332 27.3281C158.496 27.1641 158.633 27.082 158.742 27.082ZM126.012 27.2734L126.723 26.2617C126.868 26.043 127.005 25.7786 127.133 25.4688C127.26 25.1589 127.324 24.8945 127.324 24.6758L127.625 24.1836C127.789 24.1654 127.944 24.2109 128.09 24.3203C128.181 24.3932 128.309 24.5208 128.473 24.7031C128.655 24.8672 128.801 25.0221 128.91 25.168C129.02 25.3138 129.056 25.5964 129.02 26.0156L128.527 26.4258C128.345 26.5898 128.217 26.7174 128.145 26.8086L127.68 27.3281L123.688 31.9219L123.469 32.4688C123.651 32.4688 123.888 32.4323 124.18 32.3594L127.434 31.457C127.251 31.0924 127.124 30.8281 127.051 30.6641L126.832 30.2539L126.914 29.8984L127.324 30.0352C127.434 30.0716 127.616 30.181 127.871 30.3633C128.163 30.5456 128.391 30.7188 128.555 30.8828C128.719 31.0469 128.855 31.2565 128.965 31.5117C129.056 31.7487 129.102 32.013 129.102 32.3047C129.083 32.651 129.01 32.8971 128.883 33.043C128.755 33.1888 128.618 33.2617 128.473 33.2617C128.254 33.2617 128.09 33.0885 127.98 32.7422L127.707 32.0586L124.645 33.0977L123.77 33.5352C123.241 33.7904 122.904 33.9727 122.758 34.082C122.612 34.1914 122.448 34.2734 122.266 34.3281C122.102 34.3281 121.874 34.1276 121.582 33.7266C121.491 33.599 121.409 33.444 121.336 33.2617L121.227 32.9336L121.281 32.7148C121.372 32.6055 121.582 32.4505 121.91 32.25C122.202 32.0495 122.421 31.8581 122.566 31.6758L125.355 28.1758L123.387 28.7773C123.223 28.832 123.004 28.9232 122.73 29.0508C122.439 29.1602 122.22 29.2604 122.074 29.3516L121.582 29.5703C121.473 29.5339 121.345 29.4154 121.199 29.2148C121.053 29.0326 120.926 28.8047 120.816 28.5312L120.652 28.0391C120.689 27.8932 120.789 27.7565 120.953 27.6289L121.473 27.2461C121.691 27.0638 121.928 26.8359 122.184 26.5625C122.439 26.2708 122.776 25.8424 123.195 25.2773C123.615 24.694 123.915 24.2292 124.098 23.8828C124.28 23.5182 124.526 22.9896 124.836 22.2969C125.128 21.6589 125.273 21.2214 125.273 20.9844L125.465 20.4102C125.629 20.3919 125.784 20.4193 125.93 20.4922C126.13 20.6198 126.312 20.7474 126.477 20.875C126.641 21.0208 126.814 21.2122 126.996 21.4492C127.178 21.668 127.279 21.8776 127.297 22.0781L127.27 22.3242C127.197 22.4336 127.096 22.5247 126.969 22.5977L126.559 22.9531C126.376 23.099 126.012 23.5182 125.465 24.2109L124.316 25.5781L123.551 26.5352L123.004 27.2461L122.895 27.7656L123.387 27.793C123.605 27.7565 123.779 27.7292 123.906 27.7109L126.012 27.2734ZM131.973 24.2383C131.645 24.3841 131.38 24.4935 131.18 24.5664L130.742 24.6484C130.56 24.5938 130.405 24.5208 130.277 24.4297C130.15 24.3385 130.031 24.2292 129.922 24.1016L129.867 23.7734L130.414 23.6094L130.797 23.5273L132.027 23.2539C132.829 23.1081 133.723 22.8984 134.707 22.625L136.047 22.2695C136.43 22.1602 136.74 22.0508 136.977 21.9414L137.387 21.7773C137.514 21.7773 137.688 21.8229 137.906 21.9141C138.143 22.0052 138.408 22.1419 138.699 22.3242C139.009 22.5065 139.237 22.6706 139.383 22.8164C139.529 22.9622 139.611 23.099 139.629 23.2266C139.629 23.3542 139.556 23.5456 139.41 23.8008L139.164 24.1289C139.036 24.3112 138.945 24.4661 138.891 24.5938L137.332 28.2852C137.733 28.194 138.025 28.1211 138.207 28.0664C138.389 28.0117 138.544 27.9479 138.672 27.875L138.918 27.7656C139.064 27.7474 139.264 27.7747 139.52 27.8477C139.757 27.9206 140.048 28.0664 140.395 28.2852C140.723 28.5039 140.887 28.6953 140.887 28.8594L140.613 29.2422C140.413 29.4062 140.258 29.5612 140.148 29.707C140.039 29.8711 139.93 30.0534 139.82 30.2539L139.164 31.7305C138.836 32.4961 138.608 32.9883 138.48 33.207L137.277 35.2305C137.46 35.4492 137.624 35.6224 137.77 35.75C137.879 35.8776 138.152 36.1237 138.59 36.4883C138.991 36.8529 139.556 37.2266 140.285 37.6094C141.014 38.0104 141.598 38.3021 142.035 38.4844C142.491 38.6667 143.129 38.8854 143.949 39.1406L144.551 39.332L144.824 39.5234C144.824 39.6875 144.76 39.7878 144.633 39.8242L144.141 39.9883C143.685 40.1341 143.138 40.2526 142.5 40.3438L140.832 40.5898C140.65 40.6081 140.486 40.6172 140.34 40.6172C140.103 40.6172 139.911 40.599 139.766 40.5625C139.529 40.5078 139.273 40.3711 139 40.1523C138.727 39.9336 138.298 39.3776 137.715 38.4844L136.375 36.4609C136.102 36.7344 135.746 37.0443 135.309 37.3906C134.908 37.737 134.251 38.1471 133.34 38.6211C132.428 39.0951 131.608 39.4414 130.879 39.6602C130.15 39.8424 129.484 39.9609 128.883 40.0156L128.309 40.043C128.163 40.043 128.081 39.9883 128.062 39.8789C128.062 39.7331 128.135 39.6419 128.281 39.6055L128.801 39.4961C129.147 39.4232 129.667 39.2318 130.359 38.9219C131.052 38.612 131.845 38.1745 132.738 37.6094C133.613 37.0443 134.324 36.4883 134.871 35.9414L135.527 35.2305C135.309 34.8659 135.154 34.6107 135.062 34.4648L134.461 33.3438L133.723 32.0586L132.902 31.0195L132.438 30.4453C132.237 31.1198 132.046 31.7122 131.863 32.2227C131.699 32.7148 131.49 33.2344 131.234 33.7812C130.961 34.3464 130.678 34.8477 130.387 35.2852C130.077 35.7227 129.676 36.1966 129.184 36.707C128.71 37.2174 128.318 37.582 128.008 37.8008L127.188 38.0195L127.516 37.5547C127.734 37.2812 127.999 36.9167 128.309 36.4609C128.637 36.0234 128.983 35.4674 129.348 34.793C129.712 34.1367 130.022 33.526 130.277 32.9609C130.496 32.3958 130.715 31.7396 130.934 30.9922L131.371 29.1875C131.48 28.7318 131.59 28.1576 131.699 27.4648C131.827 26.7357 131.918 26.1523 131.973 25.7148C132.027 25.4232 132.046 25.1406 132.027 24.8672L131.973 24.2383ZM133.066 23.8555C133.212 23.9284 133.34 23.9831 133.449 24.0195L133.777 24.1836C133.887 24.2565 133.996 24.3477 134.105 24.457L134.27 24.7852L134.051 25.0859C133.905 25.25 133.796 25.4323 133.723 25.6328C133.65 25.8333 133.586 26.0703 133.531 26.3438L133.258 27.5742L132.93 28.8867L136.02 28.5039L136.84 24.4023L136.949 23.5547L136.676 23.2266C136.53 23.2083 136.393 23.2174 136.266 23.2539C136.083 23.2904 135.773 23.3268 135.336 23.3633C134.898 23.418 134.288 23.5456 133.504 23.7461L133.066 23.8555ZM133.23 29.8711L133.723 30.5273L134.215 31.2109L135.145 32.6602C135.4 33.0247 135.664 33.3711 135.938 33.6992L136.348 34.1914C136.785 33.3893 137.113 32.7422 137.332 32.25C137.551 31.7578 137.733 31.2839 137.879 30.8281C137.988 30.3724 138.07 30.0169 138.125 29.7617L138.152 29.543L137.742 29.2148C137.396 29.2148 136.913 29.2786 136.293 29.4062C135.673 29.5339 135.135 29.6341 134.68 29.707C134.224 29.7799 133.914 29.8255 133.75 29.8438L133.23 29.8711ZM119.367 36.3242L119.531 35.9414L120.023 36.0508C120.333 36.1419 120.698 36.2878 121.117 36.4883C121.536 36.6706 121.865 36.9531 122.102 37.3359C122.32 37.6823 122.43 38.1471 122.43 38.7305C122.411 39.0221 122.339 39.25 122.211 39.4141C122.102 39.5781 121.938 39.6602 121.719 39.6602C121.555 39.6419 121.382 39.5326 121.199 39.332C121.017 39.1133 120.871 38.9128 120.762 38.7305L119.914 37.3086C119.659 36.9076 119.477 36.5794 119.367 36.3242ZM123.168 35.1211L123.195 34.6836L123.77 34.8203C124.499 35.0573 124.936 35.2669 125.082 35.4492C125.228 35.6315 125.328 35.8685 125.383 36.1602L125.41 36.4336C125.41 36.6341 125.392 36.7982 125.355 36.9258C125.264 37.1081 125.109 37.2448 124.891 37.3359C124.745 37.3359 124.608 37.2995 124.48 37.2266C124.262 37.1172 124.016 36.7982 123.742 36.2695L123.168 35.1211ZM126.121 33.4805L126.641 33.5898C126.841 33.6263 127.096 33.7083 127.406 33.8359C127.698 33.9635 127.917 34.1367 128.062 34.3555C128.19 34.5378 128.263 34.7565 128.281 35.0117C128.281 35.2669 128.236 35.4766 128.145 35.6406C128.035 35.7865 127.889 35.8685 127.707 35.8867C127.543 35.8867 127.397 35.832 127.27 35.7227C127.087 35.6133 126.859 35.3307 126.586 34.875L126.148 34.1914L125.875 33.6445C125.911 33.5352 125.993 33.4805 126.121 33.4805Z" fill="#333333"/>
<path d="M194.316 26.7539C194.189 26.7539 194.052 26.6719 193.906 26.5078C193.797 26.3802 193.724 26.2799 193.688 26.207C193.651 26.1159 193.651 25.9974 193.688 25.8516L193.715 25.1953C193.733 25.0677 193.742 24.7578 193.742 24.2656V23.3633L192.922 23.7461L191.965 24.1562C191.728 24.2474 191.482 24.3568 191.227 24.4844C191.008 24.5938 190.816 24.6484 190.652 24.6484C190.525 24.6302 190.379 24.5846 190.215 24.5117C190.051 24.4388 189.923 24.375 189.832 24.3203C189.632 24.1927 189.54 24.056 189.559 23.9102L189.641 23.6367C189.641 23.4909 189.65 23.3633 189.668 23.2539L189.695 21.668V20.1914C189.695 19.8997 189.677 19.6536 189.641 19.4531C189.604 19.2344 189.577 19.0794 189.559 18.9883C189.559 18.8971 189.586 18.8333 189.641 18.7969C189.659 18.7786 189.704 18.7695 189.777 18.7695C189.905 18.7695 190.151 18.8516 190.516 19.0156C190.826 19.1615 190.953 19.3438 190.898 19.5625C190.862 19.6901 190.826 19.8815 190.789 20.1367L190.707 23.2812C190.707 23.3724 190.716 23.4453 190.734 23.5C190.771 23.5365 190.807 23.5547 190.844 23.5547C191.062 23.5547 191.327 23.4909 191.637 23.3633C192.22 23.181 192.721 22.9987 193.141 22.8164L193.742 22.5703V20.7656C193.742 20.0365 193.697 19.3346 193.605 18.6602C193.587 18.6055 193.578 18.5417 193.578 18.4688C193.578 18.2865 193.651 18.1953 193.797 18.1953C193.815 18.1953 193.915 18.2318 194.098 18.3047C194.371 18.4505 194.572 18.5781 194.699 18.6875C194.827 18.7969 194.9 18.8607 194.918 18.8789C194.991 18.9336 195.027 18.9883 195.027 19.043C195.027 19.0794 195.009 19.125 194.973 19.1797C194.954 19.2344 194.936 19.2799 194.918 19.3164L194.836 20.1367L194.809 22.6523L194.836 25.0859C194.836 25.5052 194.809 25.8698 194.754 26.1797C194.663 26.5625 194.517 26.7539 194.316 26.7539ZM189.285 31.2383C189.085 31.2383 188.839 31.0833 188.547 30.7734C188.328 30.5547 188.219 30.3906 188.219 30.2812C188.219 30.2266 188.255 30.1992 188.328 30.1992C188.401 30.181 188.492 30.1719 188.602 30.1719L189.203 30.1445C189.549 30.1445 189.777 30.1354 189.887 30.1172C190.233 30.1172 190.525 30.1081 190.762 30.0898C192.329 29.944 193.387 29.8255 193.934 29.7344C194.207 29.6979 194.453 29.6615 194.672 29.625C194.891 29.5703 195.064 29.543 195.191 29.543C195.447 29.543 195.702 29.6706 195.957 29.9258C196.158 30.1263 196.258 30.2904 196.258 30.418C196.258 30.5273 196.194 30.6003 196.066 30.6367C195.975 30.6549 195.438 30.6914 194.453 30.7461C193.906 30.7643 193.232 30.8099 192.43 30.8828C191.628 30.9557 190.926 31.0286 190.324 31.1016C190.215 31.1198 190.06 31.1471 189.859 31.1836C189.659 31.2201 189.467 31.2383 189.285 31.2383ZM189.121 42.1484C188.848 42.1484 188.638 42.0755 188.492 41.9297C188.328 41.7656 188.246 41.6198 188.246 41.4922C188.246 41.3646 188.319 41.2279 188.465 41.082C188.483 41.0638 188.583 40.918 188.766 40.6445C189.167 40.0065 189.622 39.1953 190.133 38.2109C190.661 37.2083 190.99 36.5247 191.117 36.1602C191.227 35.8138 191.327 35.513 191.418 35.2578C191.527 35.0026 191.618 34.875 191.691 34.875C191.819 34.875 191.928 34.9206 192.02 35.0117C192.111 35.0846 192.202 35.194 192.293 35.3398C192.402 35.4674 192.484 35.5586 192.539 35.6133C192.667 35.7591 192.73 35.8958 192.73 36.0234C192.73 36.1146 192.694 36.2057 192.621 36.2969C192.548 36.388 192.503 36.4518 192.484 36.4883L191.281 38.5117C190.971 39.0768 190.561 39.7786 190.051 40.6172C189.978 40.7083 189.941 40.7995 189.941 40.8906C189.941 40.9635 190.023 41 190.188 41C190.534 41 191.181 40.9635 192.129 40.8906C193.077 40.7995 193.715 40.7266 194.043 40.6719C194.517 40.6172 194.845 40.5625 195.027 40.5078C195.228 40.4531 195.52 40.5898 195.902 40.918C196.358 41.3008 196.458 41.5469 196.203 41.6562C196.057 41.7292 195.775 41.7656 195.355 41.7656H194.262C194.025 41.7656 193.651 41.7839 193.141 41.8203C192.831 41.8203 192.484 41.8294 192.102 41.8477C191.719 41.8659 191.4 41.8841 191.145 41.9023C190.853 41.9206 190.288 41.9753 189.449 42.0664L189.121 42.1484ZM176.844 38.8398C176.826 38.1107 176.807 37.4909 176.789 36.9805C176.771 36.4701 176.725 36.1237 176.652 35.9414L176.406 35.2031L174 35.3672C173.799 35.3672 173.626 35.349 173.48 35.3125C173.225 35.2578 173.025 35.1667 172.879 35.0391L172.688 34.7383C172.706 34.6107 172.897 34.5195 173.262 34.4648L174.465 34.3281L177.91 33.8633C178.457 33.7904 179.022 33.681 179.605 33.5352C180.171 33.3893 180.581 33.3164 180.836 33.3164L181.492 33.4258C181.875 33.4987 182.139 33.5807 182.285 33.6719L182.34 34.082C182.158 34.2279 181.939 34.319 181.684 34.3555L178.074 34.9297C178.22 35.0391 178.348 35.2487 178.457 35.5586C178.475 35.7409 178.448 35.9414 178.375 36.1602C178.302 36.4518 178.257 36.7253 178.238 36.9805L178.074 38.7305L181.602 38.3477C182.312 38.2747 182.914 38.1836 183.406 38.0742C183.826 37.9831 184.163 37.9375 184.418 37.9375C184.637 37.9557 184.883 38.0195 185.156 38.1289C185.411 38.2383 185.639 38.3477 185.84 38.457C186.04 38.5846 186.204 38.7305 186.332 38.8945L186.496 39.1953L186.387 39.4414L186.113 39.5508H184.91L182.504 39.4688C182.176 39.4688 181.483 39.4961 180.426 39.5508L177.801 39.6602C176.853 39.7331 176.033 39.8151 175.34 39.9062C174.647 39.9974 174.036 40.1068 173.508 40.2344C172.979 40.3438 172.533 40.4531 172.168 40.5625C171.803 40.6536 171.539 40.6992 171.375 40.6992C171.211 40.6992 171.01 40.6628 170.773 40.5898L170.281 40.4258C170.19 40.3529 170.008 40.2435 169.734 40.0977C169.461 39.9518 169.324 39.806 169.324 39.6602C169.324 39.5143 169.415 39.4414 169.598 39.4414L170.391 39.4141C170.518 39.4141 170.837 39.3958 171.348 39.3594C171.858 39.3229 172.223 39.2956 172.441 39.2773L174.684 39.0312L176.844 38.8398ZM172.77 30.3633C172.988 30.5456 173.225 30.7005 173.48 30.8281C173.736 30.9557 174.027 31.138 174.355 31.375C174.684 31.5938 174.902 31.7852 175.012 31.9492C175.103 32.1315 175.148 32.3685 175.148 32.6602C175.148 32.9154 175.103 33.1159 175.012 33.2617C174.902 33.444 174.757 33.5443 174.574 33.5625C174.41 33.5625 174.201 33.3984 173.945 33.0703L173.398 32.4141L172.797 31.7305L172.113 31.0195L171.73 30.582C171.73 30.418 171.803 30.1992 171.949 29.9258C172.04 29.7435 172.15 29.4701 172.277 29.1055L172.551 28.3398C172.733 27.7747 172.861 27.3372 172.934 27.0273C173.007 26.6992 173.061 26.3984 173.098 26.125L173.207 25.6875L173.535 25.5781C173.717 25.5964 173.927 25.6966 174.164 25.8789C174.401 26.0612 174.592 26.2253 174.738 26.3711L174.902 26.7266C174.902 26.8542 174.811 27.0091 174.629 27.1914C174.447 27.3737 174.264 27.6107 174.082 27.9023L173.645 28.5586L172.988 29.4883C172.842 29.707 172.751 29.8711 172.715 29.9805C172.678 30.0898 172.697 30.2174 172.77 30.3633ZM174.848 22.6523C175.941 22.4518 176.816 22.2786 177.473 22.1328C178.147 22.0052 178.73 21.8503 179.223 21.668C179.733 21.5039 180.079 21.4128 180.262 21.3945C180.444 21.3945 180.645 21.431 180.863 21.5039C181.082 21.5586 181.283 21.6406 181.465 21.75C181.647 21.8776 181.784 21.9961 181.875 22.1055L182.012 22.3242C182.012 22.5065 181.82 22.6615 181.438 22.7891C181.055 22.9167 180.553 23.0352 179.934 23.1445C179.296 23.2721 178.685 23.3815 178.102 23.4727C177.5 23.5456 176.816 23.6367 176.051 23.7461C175.486 23.819 175.03 23.8555 174.684 23.8555C174.246 23.8555 173.882 23.7917 173.59 23.6641C173.298 23.5365 173.098 23.418 172.988 23.3086L172.852 23.0898C172.888 22.9805 172.97 22.9167 173.098 22.8984L174.848 22.6523ZM167.684 28.4219L168.723 26.8086C168.905 26.5352 169.06 26.2253 169.188 25.8789C169.333 25.5143 169.415 25.2318 169.434 25.0312L169.488 24.6758L169.707 24.5117C169.853 24.4935 169.98 24.5117 170.09 24.5664C170.199 24.6393 170.327 24.7487 170.473 24.8945C170.618 25.0404 170.746 25.2135 170.855 25.4141C170.965 25.5964 171.065 25.8424 171.156 26.1523L170.965 26.5898C170.746 26.7539 170.536 26.9544 170.336 27.1914L169.762 27.8203C169.652 27.9479 169.434 28.2305 169.105 28.668C168.759 29.1237 168.267 29.7344 167.629 30.5L165.77 32.6875L165.578 33.2891L166.645 32.9883L169.051 32.2773C168.905 32.0039 168.777 31.7852 168.668 31.6211L168.504 31.293L168.613 30.9648C168.85 30.9648 169.087 31.0013 169.324 31.0742C169.561 31.1654 169.798 31.2839 170.035 31.4297C170.29 31.5573 170.5 31.7305 170.664 31.9492C170.846 32.168 170.965 32.487 171.02 32.9062C171.038 33.1797 171.001 33.3984 170.91 33.5625C170.837 33.7266 170.618 33.8542 170.254 33.9453C170.126 33.8906 170.017 33.7904 169.926 33.6445L169.652 33.2617L169.352 32.8789L166.645 33.8359C166.426 33.9271 166.161 34.0456 165.852 34.1914C165.542 34.3372 165.314 34.4557 165.168 34.5469C165.004 34.638 164.849 34.7383 164.703 34.8477L164.266 34.9844C164.138 34.8932 164.02 34.7839 163.91 34.6562C163.801 34.5286 163.71 34.401 163.637 34.2734C163.564 34.1458 163.5 34 163.445 33.8359L163.391 33.5078C163.445 33.3802 163.591 33.2617 163.828 33.1523C164.065 33.0065 164.302 32.806 164.539 32.5508L165.551 31.3477C165.988 30.8008 166.243 30.4635 166.316 30.3359L167.191 29.1055C166.79 29.1784 166.517 29.2331 166.371 29.2695C166.225 29.306 165.915 29.3971 165.441 29.543C164.967 29.6888 164.658 29.7891 164.512 29.8438C164.366 29.8984 164.202 29.9805 164.02 30.0898L163.691 30.2266C163.546 30.2266 163.418 30.1628 163.309 30.0352C163.199 29.9258 163.099 29.7617 163.008 29.543C162.917 29.3607 162.844 29.1328 162.789 28.8594L162.816 28.5859L163.117 28.3398C163.281 28.2122 163.436 28.1029 163.582 28.0117L164.238 27.3281C164.566 26.9818 164.895 26.5352 165.223 25.9883C165.569 25.4414 165.915 24.8307 166.262 24.1562C166.608 23.4818 166.845 22.9987 166.973 22.707C167.082 22.4154 167.182 22.1055 167.273 21.7773C167.365 21.4492 167.41 21.1849 167.41 20.9844L167.438 20.6562L167.684 20.4648C167.811 20.4466 167.939 20.4831 168.066 20.5742C168.376 20.7565 168.622 20.9115 168.805 21.0391C168.969 21.1667 169.124 21.3307 169.27 21.5312C169.379 21.6953 169.434 21.8594 169.434 22.0234C169.415 22.1328 169.324 22.2695 169.16 22.4336C169.014 22.5794 168.878 22.7253 168.75 22.8711C168.622 23.0169 168.467 23.2083 168.285 23.4453C168.103 23.6823 167.747 24.1745 167.219 24.9219L166.398 26.0703L165.223 27.6289C165.022 27.8841 164.876 28.1576 164.785 28.4492C164.858 28.5586 165.031 28.6133 165.305 28.6133L167.684 28.4219ZM176.516 29.625L176.816 29.8438C176.999 29.9714 177.236 30.099 177.527 30.2266C177.801 30.3542 178.092 30.5 178.402 30.6641C178.712 30.8281 178.913 30.9831 179.004 31.1289C179.113 31.2747 179.168 31.4844 179.168 31.7578C179.168 32.0312 179.122 32.2591 179.031 32.4414C178.94 32.6237 178.812 32.7148 178.648 32.7148C178.503 32.7148 178.32 32.5964 178.102 32.3594C177.609 31.8307 177.272 31.4844 177.09 31.3203C176.908 31.138 176.68 30.9284 176.406 30.6914C176.115 30.4544 175.914 30.2812 175.805 30.1719L175.613 29.9258C175.613 29.7435 175.686 29.5247 175.832 29.2695C175.887 29.1602 175.996 28.8867 176.16 28.4492L176.434 27.793C176.616 27.319 176.743 26.9362 176.816 26.6445C176.889 26.3529 176.944 26.0521 176.98 25.7422L177.227 25.168H177.473C177.637 25.2044 177.81 25.2773 177.992 25.3867C178.174 25.5326 178.357 25.6875 178.539 25.8516C178.721 26.0339 178.803 26.2161 178.785 26.3984L178.512 26.7266C178.311 26.9089 178.056 27.2096 177.746 27.6289L177.035 28.5586C176.871 28.7409 176.734 28.9414 176.625 29.1602L176.516 29.4883V29.625ZM180.754 29.0508L181.109 29.2969C181.328 29.4245 181.629 29.543 182.012 29.6523C182.376 29.7799 182.704 29.9076 182.996 30.0352C183.251 30.181 183.47 30.3359 183.652 30.5C183.816 30.6823 183.926 30.9648 183.98 31.3477C183.98 31.6393 183.935 31.849 183.844 31.9766C183.716 32.1406 183.561 32.2227 183.379 32.2227C183.215 32.2227 183.033 32.1224 182.832 31.9219C182.65 31.7214 182.376 31.4479 182.012 31.1016C181.647 30.7552 181.374 30.5273 181.191 30.418L180.207 29.707C179.988 29.5612 179.879 29.4062 179.879 29.2422C179.879 29.0781 179.934 28.8958 180.043 28.6953L180.453 27.957C180.581 27.7383 180.717 27.4193 180.863 27C181.009 26.5807 181.109 26.2344 181.164 25.9609C181.219 25.6875 181.273 25.3867 181.328 25.0586L181.438 24.5391L181.766 24.457C181.966 24.4753 182.176 24.5664 182.395 24.7305C182.613 24.8763 182.796 25.0404 182.941 25.2227C183.087 25.3867 183.151 25.569 183.133 25.7695L182.832 26.125L182.34 26.6719L181.684 27.5469C181.392 27.9661 181.164 28.3125 181 28.5859L180.754 29.0508ZM161.887 36.8164L162.297 37.0078L162.789 37.3086C163.062 37.4909 163.29 37.6549 163.473 37.8008C163.637 37.9284 163.783 38.1016 163.91 38.3203C164.056 38.5391 164.147 38.7578 164.184 38.9766C164.22 39.1224 164.238 39.3229 164.238 39.5781C164.202 39.9427 164.147 40.1888 164.074 40.3164C164.001 40.4622 163.828 40.5898 163.555 40.6992C163.354 40.6992 163.199 40.6445 163.09 40.5352C162.98 40.4258 162.853 40.2253 162.707 39.9336C162.561 39.6419 162.47 39.4232 162.434 39.2773L162.051 38.4023C161.905 38.0013 161.814 37.7461 161.777 37.6367L161.723 36.8164H161.887ZM165.168 36.2969L165.25 35.9141L165.715 36.0234L166.289 36.2148C166.453 36.2878 166.645 36.3971 166.863 36.543C167.082 36.6706 167.237 36.7982 167.328 36.9258C167.419 37.0352 167.501 37.2539 167.574 37.582V37.9102C167.52 38.1471 167.438 38.3203 167.328 38.4297C167.237 38.5208 167.1 38.5755 166.918 38.5938C166.754 38.5938 166.59 38.5299 166.426 38.4023C166.28 38.293 166.152 38.1471 166.043 37.9648C165.915 37.7643 165.788 37.5365 165.66 37.2812C165.533 37.026 165.432 36.8346 165.359 36.707L165.168 36.2969ZM168.176 35.0938L168.258 34.7383L168.668 34.8203C168.868 34.875 169.051 34.9388 169.215 35.0117C169.379 35.0846 169.561 35.1758 169.762 35.2852C169.944 35.3945 170.09 35.5221 170.199 35.668C170.309 35.7773 170.391 35.987 170.445 36.2969C170.464 36.4609 170.454 36.5977 170.418 36.707C170.382 36.8529 170.318 36.9714 170.227 37.0625C170.135 37.1536 170.017 37.2174 169.871 37.2539C169.725 37.2539 169.561 37.181 169.379 37.0352C169.27 36.9622 169.142 36.8164 168.996 36.5977L168.668 36.0508L168.449 35.5859L168.176 35.0938Z" fill="#333333"/>
<path d="M231.285 26.5898C231.085 26.5898 230.839 26.4349 230.547 26.125C230.328 25.9062 230.219 25.7422 230.219 25.6328C230.219 25.5781 230.255 25.5508 230.328 25.5508C230.401 25.5326 230.492 25.5234 230.602 25.5234L231.203 25.4961C231.549 25.4961 231.777 25.487 231.887 25.4688C232.233 25.4688 232.525 25.4596 232.762 25.4414C234.329 25.2956 235.387 25.1771 235.934 25.0859C236.207 25.0495 236.453 25.013 236.672 24.9766C236.891 24.9219 237.064 24.8945 237.191 24.8945C237.447 24.8945 237.702 25.0221 237.957 25.2773C238.158 25.4779 238.258 25.6419 238.258 25.7695C238.258 25.8789 238.194 25.9518 238.066 25.9883C237.975 26.0065 237.438 26.043 236.453 26.0977C235.906 26.1159 235.232 26.1615 234.43 26.2344C233.628 26.3073 232.926 26.3802 232.324 26.4531C232.215 26.4714 232.06 26.4987 231.859 26.5352C231.659 26.5716 231.467 26.5898 231.285 26.5898ZM231.121 39.1406C230.848 39.1406 230.638 39.0677 230.492 38.9219C230.328 38.7578 230.246 38.612 230.246 38.4844C230.246 38.3568 230.319 38.2201 230.465 38.0742C230.483 38.056 230.583 37.9102 230.766 37.6367C231.167 36.9987 231.622 36.1875 232.133 35.2031C232.661 34.2005 232.99 33.5169 233.117 33.1523C233.227 32.806 233.327 32.5052 233.418 32.25C233.527 31.9948 233.618 31.8672 233.691 31.8672C233.819 31.8672 233.928 31.9128 234.02 32.0039C234.111 32.0768 234.202 32.1862 234.293 32.332C234.402 32.4596 234.484 32.5508 234.539 32.6055C234.667 32.7513 234.73 32.888 234.73 33.0156C234.73 33.1068 234.694 33.1979 234.621 33.2891C234.548 33.3802 234.503 33.444 234.484 33.4805L233.281 35.5039C232.971 36.069 232.561 36.7708 232.051 37.6094C231.978 37.7005 231.941 37.7917 231.941 37.8828C231.941 37.9557 232.023 37.9922 232.188 37.9922C232.534 37.9922 233.181 37.9557 234.129 37.8828C235.077 37.7917 235.715 37.7188 236.043 37.6641C236.517 37.6094 236.845 37.5547 237.027 37.5C237.228 37.4453 237.52 37.582 237.902 37.9102C238.358 38.293 238.458 38.5391 238.203 38.6484C238.057 38.7214 237.775 38.7578 237.355 38.7578H236.262C236.025 38.7578 235.651 38.776 235.141 38.8125C234.831 38.8125 234.484 38.8216 234.102 38.8398C233.719 38.8581 233.4 38.8763 233.145 38.8945C232.853 38.9128 232.288 38.9674 231.449 39.0586L231.121 39.1406ZM242.742 27.082C242.961 27.082 243.07 27.1823 243.07 27.3828C243.07 27.4922 242.97 27.6471 242.77 27.8477C242.223 28.5221 241.138 29.8073 239.516 31.7031C239.388 31.8672 239.27 31.9492 239.16 31.9492C239.069 31.9492 238.868 31.8125 238.559 31.5391C238.303 31.3203 238.176 31.138 238.176 30.9922C238.176 30.8281 238.312 30.6732 238.586 30.5273C239.005 30.2904 239.634 29.8164 240.473 29.1055C241.311 28.3581 241.931 27.7656 242.332 27.3281C242.496 27.1641 242.633 27.082 242.742 27.082ZM207.988 30.6914C207.879 31.0742 207.788 31.4297 207.715 31.7578C207.605 32.0677 207.423 32.4779 207.168 32.9883C206.876 33.4987 206.539 33.7721 206.156 33.8086C205.865 33.8086 205.637 33.7174 205.473 33.5352C205.29 33.3346 205.199 33.0885 205.199 32.7969C205.199 32.5599 205.236 32.3685 205.309 32.2227C205.382 32.0768 205.546 31.8307 205.801 31.4844C206.056 31.138 206.266 30.7917 206.43 30.4453C206.594 30.099 206.703 29.7617 206.758 29.4336C206.812 29.1055 206.867 28.8776 206.922 28.75L207.086 28.5859C207.195 28.5677 207.368 28.7409 207.605 29.1055L207.879 29.5977C209.191 29.5247 210.331 29.4701 211.297 29.4336C212.263 29.3789 213.02 29.3333 213.566 29.2969L216.574 28.9961L220.266 28.5859C220.904 28.5312 221.478 28.4674 221.988 28.3945C222.499 28.3216 222.954 28.2396 223.355 28.1484C223.757 28.0573 224.039 28.0117 224.203 28.0117C224.367 28.0482 224.586 28.1484 224.859 28.3125C225.133 28.4766 225.415 28.6771 225.707 28.9141C225.999 29.151 226.272 29.3971 226.527 29.6523C226.764 29.9076 226.883 30.1263 226.883 30.3086C226.865 30.418 226.819 30.5182 226.746 30.6094C226.673 30.7005 226.518 30.7734 226.281 30.8281L225.215 31.0195L224.176 31.3203L223.246 31.6211L222.426 31.6758C222.408 31.5664 222.444 31.4661 222.535 31.375L222.863 31.0195C223.046 30.8372 223.21 30.6549 223.355 30.4727C223.52 30.2904 223.629 30.0625 223.684 29.7891V29.5156C223.611 29.3698 223.337 29.2969 222.863 29.2969L220.238 29.4883L218.16 29.6523C217.449 29.707 216.319 29.8164 214.77 29.9805C213.238 30.1263 211.971 30.2721 210.969 30.418C209.966 30.5638 209.392 30.6367 209.246 30.6367L207.988 30.6914ZM209.93 24.7305C209.62 24.5846 209.346 24.3294 209.109 23.9648L208.645 23.2539C208.572 23.1263 208.499 22.9805 208.426 22.8164L208.371 22.4609L208.727 22.3789L209.301 22.4883C209.483 22.543 209.702 22.625 209.957 22.7344C210.212 22.8438 210.404 22.9714 210.531 23.1172C210.659 23.2448 210.741 23.4635 210.777 23.7734C210.777 24.0286 210.732 24.2383 210.641 24.4023C210.513 24.6211 210.276 24.7305 209.93 24.7305ZM213.02 22.707C213.348 22.3789 213.621 22.1146 213.84 21.9141C214.059 21.7135 214.232 21.4948 214.359 21.2578L214.852 20.9297L215.562 21.3125C215.763 21.4766 215.918 21.6224 216.027 21.75L216.109 22.0234C216.091 22.151 216.027 22.2331 215.918 22.2695C215.809 22.3424 215.553 22.4154 215.152 22.4883L214.168 22.8438L212.992 23.2266C212.974 23.5 212.947 23.7279 212.91 23.9102C212.892 24.0924 212.874 24.2565 212.855 24.4023L212.691 25.0859C213.02 25.2135 213.357 25.332 213.703 25.4414C214.049 25.569 214.341 25.6966 214.578 25.8242C214.797 25.9336 214.943 26.0703 215.016 26.2344C215.07 26.3984 215.107 26.6081 215.125 26.8633C215.125 27.1185 215.043 27.3099 214.879 27.4375C214.788 27.5104 214.624 27.5469 214.387 27.5469C214.113 27.4557 213.812 27.2005 213.484 26.7812L212.938 26.207L212.5 25.7148C212.299 26.0794 212.126 26.3711 211.98 26.5898C211.835 26.8268 211.643 27.0638 211.406 27.3008C211.169 27.556 210.868 27.8021 210.504 28.0391C210.158 28.2943 209.857 28.4674 209.602 28.5586L208.672 28.8594L208.699 28.668L209.328 28.1211C209.747 27.793 210.085 27.4557 210.34 27.1094C210.595 26.7812 210.823 26.3711 211.023 25.8789C211.224 25.3685 211.379 24.8581 211.488 24.3477C211.579 23.8372 211.643 23.1992 211.68 22.4336C211.698 22.0508 211.707 21.7135 211.707 21.4219C211.707 21.112 211.698 20.8568 211.68 20.6562C211.625 20.2734 211.561 19.9544 211.488 19.6992L211.27 19.2617L211.215 18.9062C211.288 18.8151 211.424 18.7604 211.625 18.7422C211.88 18.7422 212.135 18.7695 212.391 18.8242C212.737 18.8971 212.992 18.9883 213.156 19.0977C213.32 19.207 213.411 19.3529 213.43 19.5352L213.293 19.918C213.22 20.082 213.156 20.4466 213.102 21.0117C213.047 21.5951 213.02 21.9505 213.02 22.0781V22.707ZM215.316 35.4766C215.48 35.6042 215.626 35.7227 215.754 35.832L215.781 36.2695L215.098 36.9531L214.305 37.6914L218.57 37.1992C219.026 37.1628 219.418 37.099 219.746 37.0078L220.32 36.8984C220.503 36.9167 220.758 37.0169 221.086 37.1992C221.414 37.3815 221.633 37.5091 221.742 37.582C221.833 37.6549 221.943 37.7552 222.07 37.8828L222.207 38.1836C222.189 38.293 222.107 38.4115 221.961 38.5391C221.797 38.6667 221.642 38.8398 221.496 39.0586C221.35 39.2773 221.204 39.5599 221.059 39.9062L220.512 41.082C220.658 41.1914 220.785 41.3099 220.895 41.4375L221.004 41.7656C220.986 41.8932 220.785 41.957 220.402 41.957L218.625 42.0117L212.746 42.5039L212.637 42.8594C212.564 42.987 212.436 43.0599 212.254 43.0781C212.108 43.0781 211.99 42.987 211.898 42.8047C211.807 42.6042 211.734 42.3763 211.68 42.1211L211.242 40.0156C211.133 39.487 211.051 39.1497 210.996 39.0039L210.832 38.6758L210.285 37.9922C210.358 37.8281 210.522 37.7552 210.777 37.7734L211.762 38.0195L213.566 37.8008L213.895 37.2266L214.168 36.5977L214.277 36.1055L214.223 35.6133L213.129 35.668C213.038 35.7409 212.947 35.832 212.855 35.9414L212.363 35.9688C212.254 35.6953 212.154 35.3763 212.062 35.0117L211.816 33.8633C211.725 33.5534 211.625 33.2799 211.516 33.043C211.388 32.8242 211.242 32.651 211.078 32.5234C210.914 32.3958 210.823 32.2135 210.805 31.9766C210.878 31.849 211.005 31.7852 211.188 31.7852L211.57 31.8672L212.172 32.0039L217.012 31.3477C217.194 31.3112 217.458 31.2383 217.805 31.1289C218.151 31.0195 218.424 30.9648 218.625 30.9648C218.807 30.9831 218.999 31.0378 219.199 31.1289C219.382 31.2018 219.582 31.3112 219.801 31.457C220.038 31.6029 220.211 31.7396 220.32 31.8672L220.457 32.1406C220.421 32.2682 220.32 32.4141 220.156 32.5781C219.992 32.724 219.874 32.8789 219.801 33.043L219.035 34.5195L219.254 34.793L219.227 35.1211L217.668 35.2031L215.316 35.4766ZM212.254 38.7852L212.746 41.5195C213.439 41.4831 213.995 41.4375 214.414 41.3828C214.833 41.3464 215.517 41.2734 216.465 41.1641L219.336 40.8359L219.637 39.7422C219.691 39.5234 219.746 39.2409 219.801 38.8945C219.837 38.7122 219.846 38.5026 219.828 38.2656C219.755 38.1198 219.555 38.0378 219.227 38.0195C219.117 38.0013 218.999 37.9922 218.871 37.9922C218.616 37.9922 218.306 38.0195 217.941 38.0742L215.645 38.293C214.642 38.3841 214.022 38.457 213.785 38.5117L212.254 38.7852ZM212.746 32.6602L213.047 34.7109L217.914 34.2461L218.078 33.2617C218.133 32.9154 218.16 32.6693 218.16 32.5234C218.16 32.3958 218.115 32.2956 218.023 32.2227C217.932 32.1497 217.777 32.1133 217.559 32.1133C217.23 32.1133 216.811 32.1315 216.301 32.168C215.79 32.2044 215.353 32.2591 214.988 32.332L212.746 32.6602ZM220.184 22.4883C220.694 22.1602 221.077 21.8867 221.332 21.668C221.587 21.4492 221.806 21.2305 221.988 21.0117L222.535 20.4375C222.699 20.4193 222.882 20.4648 223.082 20.5742C223.301 20.7201 223.474 20.8568 223.602 20.9844C223.747 21.112 223.884 21.2487 224.012 21.3945L224.176 21.6953C224.139 21.8594 224.066 21.9596 223.957 21.9961C223.848 22.0326 223.72 22.069 223.574 22.1055C223.41 22.1237 223.1 22.2148 222.645 22.3789C222.171 22.5247 221.861 22.6159 221.715 22.6523L220.184 23.0898L220.102 23.8008L219.91 24.6758C220.421 24.8581 220.876 25.0039 221.277 25.1133C221.66 25.2227 222.052 25.3958 222.453 25.6328C222.854 25.8516 223.064 26.207 223.082 26.6992C223.082 27.2096 222.891 27.4922 222.508 27.5469C222.307 27.5469 222.143 27.5104 222.016 27.4375C221.833 27.3464 221.624 27.1823 221.387 26.9453L220.348 25.9336L219.664 25.332L219.281 25.9883C219.154 26.1706 219.008 26.362 218.844 26.5625C218.68 26.763 218.406 26.9909 218.023 27.2461C217.659 27.5013 217.322 27.7018 217.012 27.8477C216.702 27.9935 216.438 28.1029 216.219 28.1758L215.617 28.3672L215.371 28.2578C215.371 28.1302 215.426 28.0299 215.535 27.957L216.246 27.5195C216.465 27.3737 216.747 27.1367 217.094 26.8086C217.44 26.4987 217.741 26.1159 217.996 25.6602C218.251 25.2227 218.434 24.7305 218.543 24.1836C218.671 23.6185 218.743 23.0716 218.762 22.543C218.798 21.9961 218.816 21.4401 218.816 20.875C218.816 20.3464 218.789 19.9453 218.734 19.6719C218.68 19.3984 218.607 19.1615 218.516 18.9609L218.406 18.6055C218.443 18.4779 218.589 18.3867 218.844 18.332C219.062 18.3138 219.29 18.3503 219.527 18.4414C219.855 18.5326 220.129 18.6237 220.348 18.7148L220.676 19.043C220.676 19.207 220.648 19.362 220.594 19.5078C220.539 19.6536 220.475 19.8724 220.402 20.1641C220.329 20.4557 220.293 20.6836 220.293 20.8477L220.184 22.4883ZM217.559 24.2383C217.522 24.3841 217.349 24.5482 217.039 24.7305C216.766 24.694 216.529 24.5755 216.328 24.375C216.128 24.1745 215.964 23.9922 215.836 23.8281C215.708 23.6641 215.599 23.4453 215.508 23.1719C215.562 23.0625 215.681 23.0078 215.863 23.0078C216.064 23.026 216.292 23.0625 216.547 23.1172C216.802 23.1719 217.012 23.2357 217.176 23.3086C217.322 23.3633 217.458 23.5365 217.586 23.8281C217.604 23.9922 217.595 24.1289 217.559 24.2383Z" fill="#333333"/>
<path d="M277.902 24.5035C277.64 23.518 276.869 22.742 275.89 22.4786C274.116 22 267 22 267 22C267 22 259.884 22 258.109 22.4786C257.13 22.742 256.359 23.518 256.098 24.5035C255.622 26.2896 255.622 30.0162 255.622 30.0162C255.622 30.0162 255.622 33.7427 256.098 35.5289C256.359 36.5143 257.13 37.258 258.109 37.5214C259.884 38 267 38 267 38C267 38 274.116 38 275.89 37.5214C276.869 37.258 277.64 36.5143 277.902 35.5289C278.378 33.7427 278.378 30.0162 278.378 30.0162C278.378 30.0162 278.378 26.2896 277.902 24.5035V24.5035ZM264.673 33.3996V26.6327L270.62 30.0163L264.673 33.3996V33.3996Z" fill="#FF4747"/>
</svg>
