<svg width="214" height="33" viewBox="0 0 214 33" fill="none" xmlns="http://www.w3.org/2000/svg">
<path d="M43.1211 11.6836C42.957 11.6836 42.7812 11.5781 42.5938 11.3672C42.4531 11.2031 42.3594 11.0742 42.3125 10.9805C42.2656 10.8633 42.2656 10.7109 42.3125 10.5234L42.3477 9.67969C42.3711 9.51563 42.3828 9.11719 42.3828 8.48438V7.32422L41.3281 7.81641L40.0977 8.34375C39.793 8.46094 39.4766 8.60156 39.1484 8.76562C38.8672 8.90625 38.6211 8.97656 38.4102 8.97656C38.2461 8.95313 38.0586 8.89453 37.8477 8.80078C37.6367 8.70703 37.4727 8.625 37.3555 8.55469C37.0977 8.39063 36.9805 8.21484 37.0039 8.02734L37.1094 7.67578C37.1094 7.48828 37.1211 7.32422 37.1445 7.18359L37.1797 5.14453V3.24609C37.1797 2.87109 37.1562 2.55469 37.1094 2.29688C37.0625 2.01562 37.0273 1.81641 37.0039 1.69922C37.0039 1.58203 37.0391 1.5 37.1094 1.45312C37.1328 1.42969 37.1914 1.41797 37.2852 1.41797C37.4492 1.41797 37.7656 1.52344 38.2344 1.73438C38.6328 1.92188 38.7969 2.15625 38.7266 2.4375C38.6797 2.60156 38.6328 2.84766 38.5859 3.17578L38.4805 7.21875C38.4805 7.33594 38.4922 7.42969 38.5156 7.5C38.5625 7.54688 38.6094 7.57031 38.6562 7.57031C38.9375 7.57031 39.2773 7.48828 39.6758 7.32422C40.4258 7.08984 41.0703 6.85547 41.6094 6.62109L42.3828 6.30469V3.98438C42.3828 3.04688 42.3242 2.14453 42.207 1.27734C42.1836 1.20703 42.1719 1.125 42.1719 1.03125C42.1719 0.796875 42.2656 0.679688 42.4531 0.679688C42.4766 0.679688 42.6055 0.726563 42.8398 0.820312C43.1914 1.00781 43.4492 1.17188 43.6133 1.3125C43.7773 1.45312 43.8711 1.53516 43.8945 1.55859C43.9883 1.62891 44.0352 1.69922 44.0352 1.76953C44.0352 1.81641 44.0117 1.875 43.9648 1.94531C43.9414 2.01562 43.918 2.07422 43.8945 2.12109L43.7891 3.17578L43.7539 6.41016L43.7891 9.53906C43.7891 10.0781 43.7539 10.5469 43.6836 10.9453C43.5664 11.4375 43.3789 11.6836 43.1211 11.6836ZM36.6523 17.4492C36.3945 17.4492 36.0781 17.25 35.7031 16.8516C35.4219 16.5703 35.2812 16.3594 35.2812 16.2188C35.2812 16.1484 35.3281 16.1133 35.4219 16.1133C35.5156 16.0898 35.6328 16.0781 35.7734 16.0781L36.5469 16.043C36.9922 16.043 37.2852 16.0312 37.4258 16.0078C37.8711 16.0078 38.2461 15.9961 38.5508 15.9727C40.5664 15.7852 41.9258 15.6328 42.6289 15.5156C42.9805 15.4688 43.2969 15.4219 43.5781 15.375C43.8594 15.3047 44.082 15.2695 44.2461 15.2695C44.5742 15.2695 44.9023 15.4336 45.2305 15.7617C45.4883 16.0195 45.6172 16.2305 45.6172 16.3945C45.6172 16.5352 45.5352 16.6289 45.3711 16.6758C45.2539 16.6992 44.5625 16.7461 43.2969 16.8164C42.5938 16.8398 41.7266 16.8984 40.6953 16.9922C39.6641 17.0859 38.7617 17.1797 37.9883 17.2734C37.8477 17.2969 37.6484 17.332 37.3906 17.3789C37.1328 17.4258 36.8867 17.4492 36.6523 17.4492ZM44.2109 29.5781C44.2578 29.6719 44.3398 29.8125 44.457 30C44.5742 30.1875 44.6328 30.4102 44.6328 30.668C44.6328 30.9023 44.5391 31.0898 44.3516 31.2305C44.1641 31.3945 43.9531 31.4766 43.7188 31.4766C43.5078 31.4766 43.332 31.2656 43.1914 30.8438C43.1211 30.6797 43.0625 30.5391 43.0156 30.4219C42.9922 30.3281 42.9688 30.2461 42.9453 30.1758C42.6406 30.2695 42.2422 30.3516 41.75 30.4219C41.2578 30.4922 40.9062 30.5508 40.6953 30.5977C39.5703 30.8086 38.7969 30.9609 38.375 31.0547C38.2109 31.1016 38.0352 31.1484 37.8477 31.1953C37.6602 31.2656 37.5547 31.3125 37.5312 31.3359C37.3906 31.3828 37.2852 31.4062 37.2148 31.4062C37.0273 31.4062 36.8516 31.3242 36.6875 31.1602C36.4062 30.9492 36.1953 30.668 36.0547 30.3164C36.0312 30.293 36.0195 30.2578 36.0195 30.2109C36.0195 30.1641 36.0781 30.1055 36.1953 30.0352C36.3359 29.9648 36.4414 29.918 36.5117 29.8945C36.8164 29.7305 37.3555 29.2383 38.1289 28.418L39.0781 27.5039L37.0039 26.3789C36.7695 26.3086 36.6172 26.2266 36.5469 26.1328C36.4766 26.0391 36.4414 25.8984 36.4414 25.7109C36.4414 25.5703 36.4648 25.4766 36.5117 25.4297C36.582 25.3594 36.7227 25.2539 36.9336 25.1133C37.1445 24.9727 37.3555 24.7852 37.5664 24.5508C37.6836 24.4102 37.8359 24.2578 38.0234 24.0938C38.2109 23.9297 38.3867 23.7539 38.5508 23.5664C39.2539 22.7461 39.6992 22.1016 39.8867 21.6328C40.0039 21.3984 40.0977 21.2812 40.168 21.2812C40.2148 21.2812 40.3086 21.3281 40.4492 21.4219C40.8945 21.75 41.1641 22.0547 41.2578 22.3359V22.4414C41.2578 22.5586 41.1992 22.6523 41.082 22.7227C40.9648 22.793 40.8828 22.8516 40.8359 22.8984C40.7656 22.9453 40.4141 23.2852 39.7812 23.918L39.1484 24.5508C39.0312 24.668 38.832 24.8672 38.5508 25.1484C38.2695 25.4062 38.1289 25.5586 38.1289 25.6055C38.1289 25.6758 38.1641 25.7344 38.2344 25.7812C38.3281 25.8281 38.3984 25.875 38.4453 25.9219L39.9219 26.625C40.8359 25.7109 41.3633 25.1719 41.5039 25.0078C42.1133 24.3047 42.4531 23.8594 42.5234 23.6719C42.5469 23.6484 42.582 23.5898 42.6289 23.4961C42.6758 23.4023 42.7227 23.3555 42.7695 23.3555C42.8398 23.3555 42.9102 23.3906 42.9805 23.4609C43.3555 23.8125 43.625 24.1406 43.7891 24.4453C43.8359 24.5391 43.8594 24.5977 43.8594 24.6211C43.8594 24.668 43.8008 24.7383 43.6836 24.832C43.5898 24.9023 43.4961 24.9727 43.4023 25.043C42.582 25.7227 41.6211 26.6133 40.5195 27.7148L38.375 29.7188C38.3281 29.7656 38.3047 29.8125 38.3047 29.8594C38.3047 29.9062 38.3281 29.9414 38.375 29.9648C38.4219 29.9883 38.4922 29.9883 38.5859 29.9648L42.6992 29.2617C42.582 28.793 42.4414 28.3242 42.2773 27.8555V27.7852C42.2773 27.7148 42.3125 27.6797 42.3828 27.6797C42.4766 27.6797 42.6172 27.75 42.8047 27.8906C43.1797 28.2188 43.6484 28.7812 44.2109 29.5781ZM46.8828 18.7852C47 18.7852 47.1758 18.8672 47.4102 19.0312C47.3867 19.0781 47.4336 19.1719 47.5508 19.3125C47.668 19.4297 47.75 19.5117 47.7969 19.5586C47.9141 19.6758 48.0312 19.8164 48.1484 19.9805C48.2891 20.1445 48.4414 20.3203 48.6055 20.5078C49.0273 20.9531 50 22.1133 51.5234 23.9883C51.7812 24.3633 51.9102 24.5859 51.9102 24.6562C51.9102 24.8906 51.7695 25.0078 51.4883 25.0078C51.3242 25.0078 51.1484 24.8906 50.9609 24.6562C50.5156 24.1875 49.7188 23.4492 48.5703 22.4414C47.6797 21.6211 46.8711 20.9883 46.1445 20.543C45.793 20.3789 45.6172 20.1914 45.6172 19.9805C45.6172 19.8164 45.793 19.582 46.1445 19.2773C46.4727 18.9492 46.7188 18.7852 46.8828 18.7852ZM10.1445 12.7383L10.1797 11.332L10.1445 9.25781C9.72266 9.28125 9.27734 9.31641 8.80859 9.36328C8.50391 9.38672 8.23438 9.39844 8 9.39844C7.4375 9.39844 6.98047 9.31641 6.62891 9.15234C6.25391 9.01172 6.04297 8.78906 5.99609 8.48438C6.08984 8.32031 6.23047 8.21484 6.41797 8.16797L7.26172 8.09766L9.01953 7.88672L10.2852 7.5C10.2852 7.17187 10.2617 6.71484 10.2148 6.12891C10.1914 5.56641 10.168 5.14453 10.1445 4.86328C10.0977 4.58203 10.0273 4.26562 9.93359 3.91406C9.83984 3.5625 9.76953 3.31641 9.72266 3.17578L9.44141 2.68359L9.30078 2.22656C9.37109 2.0625 9.54688 1.95703 9.82812 1.91016C10.0625 1.91016 10.2969 1.93359 10.5312 1.98047C10.8359 2.07422 11.1289 2.17969 11.4102 2.29688C11.6914 2.4375 11.9492 2.61328 12.1836 2.82422L12.5703 3.38672C12.5703 3.57422 12.5117 3.78516 12.3945 4.01953C12.3008 4.25391 12.2305 4.58203 12.1836 5.00391L12.043 6.05859L12.0078 6.51562L11.9727 7.32422C12.3477 7.23047 12.6758 7.13672 12.957 7.04297C13.1914 6.97266 13.4258 6.9375 13.6602 6.9375L14.0117 7.00781C14.2227 7.07812 14.4688 7.20703 14.75 7.39453L15.207 7.81641C15.207 7.98047 15.0898 8.12109 14.8555 8.23828C14.6211 8.35547 14.2227 8.47266 13.6602 8.58984L11.9727 8.90625L11.9023 10.7344L11.832 12.3867L13.0273 12.1758C13.4023 11.7305 13.6953 11.3672 13.9062 11.0859C14.0938 10.8281 14.3281 10.4414 14.6094 9.92578C14.8672 9.43359 15.0781 9.01172 15.2422 8.66016C15.3828 8.28516 15.4648 7.94531 15.4883 7.64062C15.5352 7.33594 15.5586 7.08984 15.5586 6.90234V6.41016L15.6289 6.09375C15.7461 5.97656 15.9336 5.91797 16.1914 5.91797C16.3789 5.96484 16.5898 6.05859 16.8242 6.19922C17.0352 6.36328 17.2695 6.5625 17.5273 6.79688C17.8086 7.03125 18.0195 7.25391 18.1602 7.46484L18.3711 7.88672C18.3711 8.07422 18.3242 8.23828 18.2305 8.37891L17.7383 8.87109L16.8945 10.0664L15.6992 11.6836C16.332 11.5664 16.8477 11.5078 17.2461 11.5078C17.668 11.5312 18.0898 11.6016 18.5117 11.7188C18.9336 11.8359 19.1797 12.0469 19.25 12.3516L19.2148 12.7031C19.0977 12.8672 18.8633 12.9492 18.5117 12.9492C18.0898 12.9492 17.4805 12.9961 16.6836 13.0898L14.3984 13.3711C13.2266 14.7305 12.4883 15.5625 12.1836 15.8672L10.707 17.3438C11.1289 17.2734 11.4922 17.2031 11.7969 17.1328C12.1016 17.0625 12.4531 16.9336 12.8516 16.7461C13.2266 16.5586 13.6016 16.4414 13.9766 16.3945C14.3047 16.3945 14.6211 16.4648 14.9258 16.6055L15.8398 17.0625C16.543 17.4141 16.8945 17.707 16.8945 17.9414L16.8594 18.293L15.875 18.7852L14.3633 19.7344L12.6758 21.0352L12.957 21.5273V22.793L16.3672 21.8086L16.7188 21.9844C16.7422 22.125 16.6602 22.2305 16.4727 22.3008L12.957 23.918L12.8867 28.6289C12.8867 29.2383 12.8398 29.7773 12.7461 30.2461C12.6758 30.6914 12.5352 31.0898 12.3242 31.4414C12.1133 31.7695 11.8555 32.0273 11.5508 32.2148L10.9883 32.4258C10.8242 32.4023 10.6484 32.1914 10.4609 31.793C10.2969 31.3711 10.0977 31.0312 9.86328 30.7734L9.16016 30.0352C8.92578 29.8008 8.73828 29.625 8.59766 29.5078L8.07031 29.0156L8.31641 28.8398L8.80859 28.9453L9.58203 29.2617C9.81641 29.332 10.0273 29.3672 10.2148 29.3672L10.5312 29.332C10.7891 29.1914 10.9883 28.9453 11.1289 28.5938C11.2695 28.2422 11.3398 27.8203 11.3398 27.3281L11.375 24.6211L7.05078 26.625L6.3125 27.1523H5.99609C5.80859 27.1055 5.59766 26.9883 5.36328 26.8008C5.12891 26.6133 4.88281 26.4023 4.625 26.168C4.34375 25.9336 4.26172 25.6289 4.37891 25.2539C4.66016 25.2305 5.01172 25.1836 5.43359 25.1133L6.20703 24.9375L11.375 23.3555L11.3398 22.3711C11.3398 22.1133 11.2812 21.8672 11.1641 21.6328C11.0469 21.375 10.8828 21.1641 10.6719 21L10.4961 20.5781L10.7773 20.4023C10.9883 20.4023 11.1875 20.4258 11.375 20.4727L12.0078 20.543L13.168 18.7148C13.3555 18.4336 13.4375 18.1875 13.4141 17.9766C13.3438 17.8359 13.2031 17.7539 12.9922 17.7305C12.8281 17.707 12.6172 17.7539 12.3594 17.8711L11.6211 18.1172L10.9883 18.3633L10.2852 18.7148L9.93359 18.8203L9.37109 18.5742L8.17578 19.5586C7.73047 19.8867 6.94531 20.3906 5.82031 21.0703C4.67188 21.75 3.74609 22.2539 3.04297 22.582C2.33984 22.8867 1.80078 23.0742 1.42578 23.1445L0.40625 23.0742L1.00391 22.6523L2.12891 22.0195C2.97266 21.5508 3.89844 20.9297 4.90625 20.1562C5.91406 19.3828 6.93359 18.5273 7.96484 17.5898C8.99609 16.6992 9.65234 16.0781 9.93359 15.7266L11.7266 13.7578C10.4844 13.9688 9.57031 14.1328 8.98438 14.25L6.83984 14.7773C6.13672 14.9648 5.63281 15.1055 5.32812 15.1992C5.02344 15.293 4.77734 15.3398 4.58984 15.3398C4.40234 15.3398 4.13281 15.293 3.78125 15.1992C3.42969 15.082 3.06641 14.918 2.69141 14.707C2.41016 14.5195 2.29297 14.2852 2.33984 14.0039C2.50391 13.9102 2.78516 13.8281 3.18359 13.7578L3.85156 13.6523C5.14062 13.5117 6.04297 13.3945 6.55859 13.3008C7.07422 13.2539 7.625 13.1719 8.21094 13.0547L9.125 12.9141L10.1445 12.7383ZM21.8867 13.3008L23.0117 13.0547C23.293 12.9844 23.9141 12.8086 24.875 12.5273C25.8359 12.2461 26.5859 11.9883 27.125 11.7539C27.6641 11.543 28.0508 11.4141 28.2852 11.3672C28.5195 11.2969 28.7773 11.2617 29.0586 11.2617C29.457 11.2617 29.9609 11.3555 30.5703 11.543C31.1797 11.7305 31.4844 11.9297 31.4844 12.1406L31.3789 12.4219C31.2383 12.5859 31.0039 12.6797 30.6758 12.7031C30.3477 12.7266 29.7852 12.8203 28.9883 12.9844C28.2148 13.1484 27.7578 13.2539 27.6172 13.3008L25.0508 13.793C25.4727 14.0508 25.7891 14.2617 26 14.4258C26.2109 14.6133 26.3633 14.7773 26.457 14.918L26.6328 15.5508L26.3164 16.5C26.2461 16.6641 26.1875 16.8633 26.1406 17.0977C26.1172 17.332 25.9648 18.1406 25.6836 19.5234C25.4023 20.9062 25.2383 21.6797 25.1914 21.8438L24.5586 23.4961C25.168 24.1992 25.7188 24.7852 26.2109 25.2539C26.7031 25.7227 27.3711 26.2383 28.2148 26.8008C29.0586 27.3633 29.8555 27.8203 30.6055 28.1719C31.3086 28.5234 32.0703 28.8398 32.8906 29.1211L33.7695 29.6836L33.7344 29.9297L33.0664 30.1055C32.8789 30.1992 32.4453 30.2695 31.7656 30.3164C31.1094 30.3633 30.6758 30.3984 30.4648 30.4219H29.6211C28.7305 30.4219 28.0508 30.3164 27.582 30.1055C27.1367 29.918 26.7734 29.6484 26.4922 29.2969C26.1875 28.9453 25.8945 28.5352 25.6133 28.0664L23.6445 25.1484C23.1523 25.7109 22.6836 26.2148 22.2383 26.6602C21.7695 27.1055 21.1836 27.5508 20.4805 27.9961C19.7305 28.418 19.0273 28.6875 18.3711 28.8047C17.7148 28.9219 17.0938 28.9922 16.5078 29.0156L15.6992 28.6992L16.3672 28.4531C17 28.2422 17.5273 28.043 17.9492 27.8555C18.3711 27.668 18.9336 27.3047 19.6367 26.7656C20.3398 26.2266 20.8789 25.7344 21.2539 25.2891C21.6523 24.8438 21.957 24.4336 22.168 24.0586L22.6602 23.25L21.9922 22.0898C21.8516 21.8789 21.5703 21.4805 21.1484 20.8945C20.75 20.2852 20.457 19.875 20.2695 19.6641C20.082 19.4531 19.8711 19.2891 19.6367 19.1719L19.1797 18.6797C19.2734 18.5391 19.4258 18.4688 19.6367 18.4688C20.0117 18.4922 20.2695 18.5156 20.4102 18.5391C20.5508 18.5625 20.7617 18.668 21.043 18.8555C21.3477 19.0664 21.6289 19.3594 21.8867 19.7344L23.3633 21.8086C23.5273 21.4102 23.668 21.0469 23.7852 20.7188C23.8789 20.3672 23.9727 19.793 24.0664 18.9961C24.1602 18.1992 24.2305 17.4375 24.2773 16.7109C24.3242 16.2656 24.3477 15.9258 24.3477 15.6914L24.3125 15.4102L24.0664 14.0039C23.6445 14.1445 23.3164 14.2617 23.082 14.3555C22.8242 14.4258 22.5195 14.4844 22.168 14.5312H21.6758L21.1836 14.3906L20.375 15.4102C20.0703 15.8086 19.6953 16.2305 19.25 16.6758C18.8281 17.1445 18.4883 17.4609 18.2305 17.625L17.2109 17.9062L17.5977 17.3438C17.8789 16.9688 18.2422 16.4062 18.6875 15.6562C19.1562 14.9297 19.5664 14.2617 19.918 13.6523C20.2461 13.0664 20.5977 12.3867 20.9727 11.6133L22.168 8.625C22.6367 7.42969 22.9648 6.53906 23.1523 5.95312C23.3398 5.36719 23.457 4.85156 23.5039 4.40625C23.5742 4.10156 23.5977 3.67969 23.5742 3.14062L23.75 2.50781H24.0312C24.4062 2.57812 24.793 2.73047 25.1914 2.96484C25.6133 3.24609 25.918 3.52734 26.1055 3.80859C26.2695 4.01953 26.3398 4.25391 26.3164 4.51172C26.2695 4.65234 26.1523 4.82812 25.9648 5.03906C25.7773 5.25 25.5781 5.61328 25.3672 6.12891L23.7852 9.78516C23.457 10.5352 22.9883 11.4375 22.3789 12.4922L21.8867 13.3008ZM94.4141 11.2266C94.2734 11.2266 94.0859 11.0742 93.8516 10.7695C93.6172 10.4414 93.5117 10.1602 93.5352 9.92578C93.582 9.73828 93.6172 9.21094 93.6406 8.34375C93.6641 7.75781 93.6758 6.72656 93.6758 5.25C93.6758 4.21875 93.6641 3.52734 93.6406 3.17578L92.4805 3.28125C91.6602 3.39844 90.957 3.45703 90.3711 3.45703C90.207 3.45703 89.9727 3.32813 89.668 3.07031C89.3633 2.8125 89.2109 2.625 89.2109 2.50781C89.2109 2.32031 89.4102 2.25 89.8086 2.29688C90.0664 2.32031 90.8281 2.30859 92.0938 2.26172C93.8281 2.14453 95.082 2.07422 95.8555 2.05078C96.2539 2.02734 96.6172 1.99219 96.9453 1.94531C97.2969 1.875 97.543 1.82812 97.6836 1.80469C97.8945 1.78125 98.082 1.80469 98.2461 1.875C98.4102 1.94531 98.5625 2.03906 98.7031 2.15625C98.8672 2.25 98.9961 2.32031 99.0898 2.36719C99.3008 2.50781 99.4062 2.63672 99.4062 2.75391C99.4062 2.84766 99.3477 2.94141 99.2305 3.03516C99.1367 3.10547 99.0312 3.14062 98.9141 3.14062C98.7969 3.14062 98.6328 3.12891 98.4219 3.10547C98.2344 3.08203 98.0234 3.07031 97.7891 3.07031C96.9219 3.07031 96.0312 3.09375 95.1172 3.14062C95.0938 3.32813 95.082 3.79687 95.082 4.54688C95.0352 5.8125 95.0117 7.05469 95.0117 8.27344V9.64453V9.96094C95.0117 10.3594 94.9766 10.6172 94.9062 10.7344C94.6953 11.0625 94.5312 11.2266 94.4141 11.2266ZM91.4258 19.8398C90.6523 19.5586 90.2891 19.2539 90.3359 18.9258C90.4766 17.9414 90.5469 16.8164 90.5469 15.5508C90.5469 14.9883 90.5352 14.5781 90.5117 14.3203C90.4883 14.0156 90.4648 13.7578 90.4414 13.5469C90.418 13.3125 90.418 13.1836 90.4414 13.1602C90.5352 13.0664 90.6523 13.0195 90.793 13.0195C91.0039 13.0195 91.2617 13.1133 91.5664 13.3008C91.8945 13.4883 92.0586 13.6758 92.0586 13.8633C92.0586 13.9805 92.0469 14.0977 92.0234 14.2148C92 14.3086 91.9883 14.4141 91.9883 14.5312L91.7773 18.0117C91.7773 18.1992 91.8477 18.3164 91.9883 18.3633H92.1641C92.3516 18.3633 92.4805 18.3516 92.5508 18.3281L97.0859 17.6953V16.7812C97.0859 15.6328 97.0625 14.7422 97.0156 14.1094C96.9922 13.5703 96.9336 13.1367 96.8398 12.8086C96.7695 12.4336 96.8633 12.2461 97.1211 12.2461C97.3086 12.2461 97.5547 12.3164 97.8594 12.457C98.2344 12.6445 98.457 12.8086 98.5273 12.9492C98.5977 13.0664 98.6211 13.2539 98.5977 13.5117C98.5508 13.9336 98.5273 14.5664 98.5273 15.4102L98.5625 18.082C98.5625 18.6445 98.457 19.0898 98.2461 19.418C98.1289 19.5586 98.0117 19.6289 97.8945 19.6289C97.7773 19.6289 97.6133 19.5234 97.4023 19.3125C97.3555 19.2656 97.2969 19.1953 97.2266 19.1016C97.1562 19.0078 97.0859 18.9492 97.0156 18.9258C96.9453 18.9023 96.8516 18.8906 96.7344 18.8906C96.1953 18.9375 94.8945 19.1133 92.832 19.418C92.4805 19.4648 92.1992 19.5586 91.9883 19.6992C91.7539 19.8164 91.6016 19.875 91.5312 19.875L91.4258 19.8398ZM95.3633 31.9688C94.6367 31.9688 94.0742 31.9453 93.6758 31.8984C93.3008 31.8516 92.9844 31.7109 92.7266 31.4766C92.2812 31.1484 91.9766 30.4336 91.8125 29.332L91.707 28.207C91.707 27.9258 91.6836 27.5742 91.6367 27.1523C91.2617 27.1992 90.9922 27.2461 90.8281 27.293C90.7812 27.3164 90.6992 27.3516 90.582 27.3984C90.4883 27.4219 90.418 27.4336 90.3711 27.4336C90.207 27.4336 90.0547 27.3867 89.9141 27.293C89.7734 27.1992 89.5977 27.0234 89.3867 26.7656C89.2227 26.5547 89.1406 26.4141 89.1406 26.3438C89.1406 26.2734 89.2227 26.2266 89.3867 26.2031C89.5508 26.1797 89.7734 26.168 90.0547 26.168C90.4531 26.168 90.9688 26.1211 91.6016 26.0273L91.5664 25.5352C91.5664 24.5977 91.5078 23.8008 91.3906 23.1445L91.3555 22.8984C91.3555 22.5703 91.4844 22.4414 91.7422 22.5117C92.0234 22.6055 92.2812 22.7227 92.5156 22.8633C92.7031 22.957 92.832 23.0508 92.9023 23.1445C92.9727 23.2148 92.9961 23.3203 92.9727 23.4609L92.8672 24.9727V25.8867L95.9609 25.5703C95.9609 25.4062 95.9727 25.0195 95.9961 24.4102C96.0195 23.7773 96.0195 23.3672 95.9961 23.1797C95.9961 22.9922 95.9727 22.8164 95.9258 22.6523C95.9023 22.4648 95.8789 22.3125 95.8555 22.1953C95.8555 22.0078 95.9492 21.9141 96.1367 21.9141C96.3242 21.9141 96.5586 22.0195 96.8398 22.2305C97.168 22.4414 97.3789 22.6289 97.4727 22.793C97.5898 22.957 97.6133 23.1562 97.543 23.3906C97.4258 23.7656 97.3438 24.1875 97.2969 24.6562C97.25 25.125 97.2266 25.4062 97.2266 25.5C97.5078 25.4766 97.7656 25.4414 98 25.3945C98.2344 25.3477 98.3867 25.3242 98.457 25.3242C98.6445 25.2773 98.8672 25.2539 99.125 25.2539C99.2656 25.2773 99.4648 25.418 99.7227 25.6758C99.9336 25.957 100.039 26.1797 100.039 26.3438C100.039 26.5781 99.8164 26.6719 99.3711 26.625C98.9727 26.5547 98.5742 26.5195 98.1758 26.5195C97.7773 26.5195 97.4375 26.5312 97.1562 26.5547C97.0859 27.3984 96.9453 28.2305 96.7344 29.0508C96.6875 29.2383 96.6055 29.4023 96.4883 29.543C96.3711 29.6602 96.2656 29.7188 96.1719 29.7188C96.0078 29.7188 95.9023 29.6602 95.8555 29.543C95.832 29.4023 95.8203 29.1914 95.8203 28.9102C95.8672 28.3008 95.8906 27.5391 95.8906 26.625C95.2578 26.6719 94.7656 26.7188 94.4141 26.7656C93.875 26.8828 93.3711 26.9531 92.9023 26.9766C92.8789 27.9375 92.9258 28.793 93.043 29.543C93.1133 30.0352 93.2539 30.375 93.4648 30.5625C93.6055 30.6797 93.7695 30.75 93.957 30.7734C94.168 30.7969 94.3789 30.8086 94.5898 30.8086C94.8008 30.8086 94.9414 30.8086 95.0117 30.8086C95.7383 30.8086 96.418 30.7734 97.0508 30.7031C97.2383 30.6797 97.4023 30.6328 97.543 30.5625C97.707 30.4922 97.8242 30.457 97.8945 30.457C98.1055 30.457 98.3164 30.5273 98.5273 30.668C98.7383 30.8086 98.8438 30.9727 98.8438 31.1602C98.8438 31.3477 98.7383 31.4883 98.5273 31.582C98.3398 31.6758 98.0352 31.7578 97.6133 31.8281C96.8633 31.9219 96.1133 31.9688 95.3633 31.9688ZM105.383 15.9727C105.664 15.9727 105.805 16.1016 105.805 16.3594C105.805 16.5 105.676 16.6992 105.418 16.957C104.715 17.8242 103.32 19.4766 101.234 21.9141C101.07 22.125 100.918 22.2305 100.777 22.2305C100.66 22.2305 100.402 22.0547 100.004 21.7031C99.6758 21.4219 99.5117 21.1875 99.5117 21C99.5117 20.7891 99.6875 20.5898 100.039 20.4023C100.578 20.0977 101.387 19.4883 102.465 18.5742C103.543 17.6133 104.34 16.8516 104.855 16.2891C105.066 16.0781 105.242 15.9727 105.383 15.9727ZM62.6328 14.1445L61.4375 7.57031C61.3906 7.3125 61.2969 6.9375 61.1562 6.44531C60.9922 5.95312 60.8398 5.60156 60.6992 5.39062C60.582 5.15625 60.4883 4.86328 60.418 4.51172C60.5352 4.37109 60.7578 4.30078 61.0859 4.30078L62.2109 4.44141L62.7734 4.65234C63.1016 4.37109 63.3711 4.11328 63.582 3.87891C63.793 3.64453 64.0156 3.28125 64.25 2.78906C64.4844 2.29688 64.6484 1.98047 64.7422 1.83984L65.0234 1.62891H65.3398C65.5742 1.72266 65.8789 1.91016 66.2539 2.19141C66.6055 2.47266 66.8633 2.74219 67.0273 3L66.9922 3.63281C66.6406 3.75 66.2773 3.89063 65.9023 4.05469L64.9531 4.47656L63.125 5.39062L63.0547 6.30469L63.1602 7.78125L65.3047 7.11328C65.5625 7.01953 65.7969 6.96094 66.0078 6.9375C66.2422 6.91406 66.4531 6.90234 66.6406 6.90234L66.9922 7.04297L67.0977 7.60547C66.793 7.83984 66.5 7.98047 66.2188 8.02734L63.3008 8.55469L63.4766 9.64453L63.6172 10.6289L65.6562 10.1367L66.3242 10.0664C66.7695 10.043 67.0742 10.0664 67.2383 10.1367C67.4023 10.2305 67.4375 10.4414 67.3438 10.7695C67.0156 10.9805 66.6992 11.0977 66.3945 11.1211L63.7578 11.4727L64.1094 14.0742C67.3672 13.793 69.2891 13.6055 69.875 13.5117L76.8359 12.8438C76.9297 12 77 11.4609 77.0469 11.2266L77.2578 10.3477L75.2188 10.4883H74.3398C74.0352 10.4883 73.8008 10.4297 73.6367 10.3125L73.3906 10.0664L73.4258 9.78516C73.543 9.69141 73.7773 9.62109 74.1289 9.57422L76.3438 9.15234L77.0117 9.01172L77.5391 9.15234L77.8555 6.76172L74.4453 6.9375L73.707 6.58594C73.7305 6.44531 73.8359 6.35156 74.0234 6.30469L74.7969 6.19922L76.4844 5.84766L77.2578 5.70703L78.0312 5.77734L78.1719 4.08984L78.1016 3.66797C77.9141 3.52734 77.6797 3.45703 77.3984 3.45703C77.1172 3.48047 76.8711 3.50391 76.6602 3.52734L75.8164 3.66797C75.4883 3.73828 75.1719 3.77344 74.8672 3.77344C74.6797 3.75 74.4688 3.69141 74.2344 3.59766L73.8828 3.07031C73.9531 2.92969 74.0938 2.85938 74.3047 2.85938C74.4922 2.83594 74.7383 2.80078 75.043 2.75391L76.6602 2.40234L77.8906 2.01562L78.6641 1.83984C78.8984 1.81641 79.1211 1.83984 79.332 1.91016C79.543 1.98047 79.7773 2.09766 80.0352 2.26172C80.2695 2.40234 80.5156 2.58984 80.7734 2.82422L81.1602 3.28125C81.1367 3.44531 81.0664 3.63281 80.9492 3.84375C80.8086 4.05469 80.6797 4.30078 80.5625 4.58203C80.4219 4.86328 80.3164 5.10938 80.2461 5.32031C80.1758 5.53125 80.1172 5.77734 80.0703 6.05859L78.5234 12.5625L80.4219 12.3164L81.125 12.1758C81.5469 12.082 81.8867 12.0352 82.1445 12.0352C82.4023 12.0586 82.6367 12.1172 82.8477 12.2109C83.0586 12.3281 83.375 12.5625 83.7969 12.9141L84.9219 13.8281C85.3203 14.1797 85.5898 14.4961 85.7305 14.7773L85.9062 15.2695C85.8594 15.4805 85.6719 15.6328 85.3438 15.7266L83.9375 15.9023C83.7969 15.9492 83.3633 16.0664 82.6367 16.2539C81.9102 16.4414 81.4766 16.5469 81.3359 16.5703L80.2461 16.957L79.7188 16.7109L80.6328 15.4805C80.8672 15.1992 81.0664 14.8711 81.2305 14.4961L81.4062 13.9336C81.3594 13.793 81.1836 13.7109 80.8789 13.6875C80.5742 13.6641 80.3398 13.6523 80.1758 13.6523L65.4453 15.0938C64.9297 15.1641 64.3438 15.2344 63.6875 15.3047C63.0547 15.3984 62.5391 15.4805 62.1406 15.5508C61.7188 15.6211 61.3789 15.6562 61.1211 15.6562C60.793 15.6562 60.5352 15.6328 60.3477 15.5859L59.7852 15.4805L59.3984 16.5703C59.2578 16.9688 59.1172 17.3086 58.9766 17.5898C58.8359 17.8711 58.6133 18.1992 58.3086 18.5742C58.0039 18.9492 57.6641 19.1719 57.2891 19.2422C57.0547 19.2422 56.8672 19.1953 56.7266 19.1016C56.5391 18.9844 56.4102 18.7383 56.3398 18.3633L56.3047 18.082C56.3047 17.7773 56.3398 17.5078 56.4102 17.2734L56.8672 16.5352C57.1719 16.1133 57.4062 15.7148 57.5703 15.3398L58.0625 14.1445C58.2266 13.6758 58.3672 13.3125 58.4844 13.0547C58.5781 12.8203 58.7422 12.6914 58.9766 12.668L59.3633 12.9844C59.4805 13.1484 59.5859 13.3945 59.6797 13.7227L59.7852 14.2852C60.5586 14.2617 61.0391 14.2383 61.2266 14.2148L62.6328 14.1445ZM71.5273 20.543L71.9141 21.1055L72.0547 22.0547L74.9375 21.8086C75.4062 21.7617 76.25 21.668 77.4688 21.5273C78.6875 21.3867 79.5664 21.2578 80.1055 21.1406C80.6445 21 81.0078 20.9297 81.1953 20.9297C81.4766 20.9531 81.9219 21.0703 82.5312 21.2812C83.1641 21.4922 83.6328 21.7266 83.9375 21.9844C84.2188 22.2188 84.3008 22.5 84.1836 22.8281C83.9727 22.9688 83.7734 23.0391 83.5859 23.0391L82.2148 23.0742H79.5781L76.9766 23.1797L74.2344 23.2148L72.0547 23.3203L72.0195 27.4336C71.9961 27.5742 71.9727 28.0195 71.9492 28.7695C71.9023 29.4727 71.8555 30.0117 71.8086 30.3867C71.7617 30.7617 71.6445 31.1602 71.457 31.582C71.293 31.9805 71.0352 32.3086 70.6836 32.5664C70.4023 32.8008 70.0859 32.8945 69.7344 32.8477L69.0312 32.0391C68.75 31.6875 68.4688 31.3711 68.1875 31.0898L67.4844 30.457L66.7812 29.7539L66.8867 29.332L67.9062 29.4727L68.8906 29.6836L69.418 29.7539C69.6289 29.6602 69.7695 29.4961 69.8398 29.2617C69.9102 29.0273 69.9688 28.6172 70.0156 28.0312L70.1562 26.7305V23.4961L67.4141 23.7422C66.8047 23.8125 66.2305 23.8828 65.6914 23.9531C65.1523 24.0234 64.4023 24.1641 63.4414 24.375C62.4805 24.5625 61.7656 24.7148 61.2969 24.832C60.8281 24.9727 60.4883 25.043 60.2773 25.043C60.043 25.043 59.7734 25.0078 59.4688 24.9375C59.1875 24.8438 58.8594 24.7148 58.4844 24.5508C58.1094 24.4102 57.8281 24.2227 57.6406 23.9883L57.3594 23.5664C57.4062 23.3789 57.5938 23.2734 57.9219 23.25L58.9062 23.2148C59.4219 23.2148 60.4766 23.1445 62.0703 23.0039C63.6406 22.8633 64.8242 22.7461 65.6211 22.6523L70.0156 22.1602C69.9688 21.8789 69.9219 21.6211 69.875 21.3867C69.8047 21.1523 69.6641 20.918 69.4531 20.6836L69.3828 19.9453C69.5703 19.9219 69.7578 19.9336 69.9453 19.9805L70.7891 20.2266L72.5469 18.4336C72.6875 18.293 72.8281 18.1055 72.9688 17.8711L72.9336 17.3438C72.793 17.3203 72.6523 17.3203 72.5117 17.3438L71.3516 17.5195L67.625 18.3633L66.3594 18.6445L65.8672 18.7148C65.6328 18.7148 65.4453 18.6914 65.3047 18.6445C65.1641 18.5742 64.9531 18.4336 64.6719 18.2227L64.1797 17.5898C64.2031 17.4492 64.2969 17.3789 64.4609 17.3789C64.6484 17.3555 64.9531 17.3203 65.375 17.2734L66.7109 17.168C67.0859 17.168 67.6836 17.0742 68.5039 16.8867L71.0703 16.4297C71.8203 16.2656 72.418 16.125 72.8633 16.0078C73.3086 15.8906 73.625 15.8203 73.8125 15.7969C74.0469 15.7969 74.2461 15.832 74.4102 15.9023C74.5742 15.9492 74.9492 16.1719 75.5352 16.5703C76.1211 16.9688 76.4609 17.2383 76.5547 17.3789L76.6953 17.8359C76.6953 18 76.5078 18.1406 76.1328 18.2578C75.7578 18.375 75.4883 18.457 75.3242 18.5039C75.1602 18.5742 74.9609 18.668 74.7266 18.7852L71.5273 20.543ZM69.7695 10.2422L69.0312 9.50391L68.293 8.80078L68.3281 8.55469L70.2969 9.39844C70.4375 9.16406 70.543 8.96484 70.6133 8.80078C70.6836 8.66016 70.7539 8.44922 70.8242 8.16797C70.8945 7.88672 70.9297 7.62891 70.9297 7.39453L71.1055 6.9375H71.4219C71.7969 7.05469 72.0781 7.18359 72.2656 7.32422C72.4531 7.48828 72.6055 7.65234 72.7227 7.81641L72.8984 8.09766C72.8516 8.23828 72.7344 8.39063 72.5469 8.55469C72.3594 8.71875 72.1836 8.89453 72.0195 9.08203L71.2461 9.99609C71.5508 10.1367 71.832 10.2773 72.0898 10.418C72.3477 10.5586 72.5234 10.7227 72.6172 10.9102C72.7109 11.0977 72.7695 11.332 72.793 11.6133C72.793 11.8242 72.7344 12.0352 72.6172 12.2461L72.4414 12.4922L71.9141 12.5273C71.7266 12.3867 71.5039 12.1523 71.2461 11.8242L70.5078 10.9805L69.5938 11.7539C69.3125 11.9883 69.0078 12.2227 68.6797 12.457L67.9062 12.8789L67.625 12.7031C67.9297 12.375 68.1758 12.1055 68.3633 11.8945L69.7695 10.2422ZM69.9805 4.37109L68.5391 2.61328L70.543 3.49219L70.7891 2.75391C70.8828 2.42578 70.9531 2.16797 71 1.98047L71.0352 1.55859L71.3516 1.06641C71.6797 1.11328 71.9609 1.20703 72.1953 1.34766C72.4297 1.48828 72.6289 1.65234 72.793 1.83984L72.9688 2.19141C72.9453 2.33203 72.8516 2.46094 72.6875 2.57812C72.5469 2.69531 72.4062 2.84766 72.2656 3.03516L71.5625 4.01953C71.8906 4.23047 72.1719 4.39453 72.4062 4.51172C72.6172 4.65234 72.7695 4.79297 72.8633 4.93359C72.9805 5.09766 73.0391 5.30859 73.0391 5.56641C73.0156 5.84766 72.9453 6.07031 72.8281 6.23438C72.7344 6.39844 72.5938 6.50391 72.4062 6.55078C72.2422 6.55078 72.0898 6.50391 71.9492 6.41016C71.7852 6.31641 71.6094 6.12891 71.4219 5.84766L70.7891 5.14453C70.4609 5.47266 70.1797 5.76562 69.9453 6.02344L69.0312 6.76172C68.7031 6.99609 68.3984 7.18359 68.1172 7.32422L67.8711 7.25391L68.1875 6.76172L69.3125 5.35547L69.9805 4.37109ZM151.121 11.6836C150.957 11.6836 150.781 11.5781 150.594 11.3672C150.453 11.2031 150.359 11.0742 150.312 10.9805C150.266 10.8633 150.266 10.7109 150.312 10.5234L150.348 9.67969C150.371 9.51563 150.383 9.11719 150.383 8.48438V7.32422L149.328 7.81641L148.098 8.34375C147.793 8.46094 147.477 8.60156 147.148 8.76562C146.867 8.90625 146.621 8.97656 146.41 8.97656C146.246 8.95313 146.059 8.89453 145.848 8.80078C145.637 8.70703 145.473 8.625 145.355 8.55469C145.098 8.39063 144.98 8.21484 145.004 8.02734L145.109 7.67578C145.109 7.48828 145.121 7.32422 145.145 7.18359L145.18 5.14453V3.24609C145.18 2.87109 145.156 2.55469 145.109 2.29688C145.062 2.01562 145.027 1.81641 145.004 1.69922C145.004 1.58203 145.039 1.5 145.109 1.45312C145.133 1.42969 145.191 1.41797 145.285 1.41797C145.449 1.41797 145.766 1.52344 146.234 1.73438C146.633 1.92188 146.797 2.15625 146.727 2.4375C146.68 2.60156 146.633 2.84766 146.586 3.17578L146.48 7.21875C146.48 7.33594 146.492 7.42969 146.516 7.5C146.562 7.54688 146.609 7.57031 146.656 7.57031C146.938 7.57031 147.277 7.48828 147.676 7.32422C148.426 7.08984 149.07 6.85547 149.609 6.62109L150.383 6.30469V3.98438C150.383 3.04688 150.324 2.14453 150.207 1.27734C150.184 1.20703 150.172 1.125 150.172 1.03125C150.172 0.796875 150.266 0.679688 150.453 0.679688C150.477 0.679688 150.605 0.726563 150.84 0.820312C151.191 1.00781 151.449 1.17188 151.613 1.3125C151.777 1.45312 151.871 1.53516 151.895 1.55859C151.988 1.62891 152.035 1.69922 152.035 1.76953C152.035 1.81641 152.012 1.875 151.965 1.94531C151.941 2.01562 151.918 2.07422 151.895 2.12109L151.789 3.17578L151.754 6.41016L151.789 9.53906C151.789 10.0781 151.754 10.5469 151.684 10.9453C151.566 11.4375 151.379 11.6836 151.121 11.6836ZM144.652 17.4492C144.395 17.4492 144.078 17.25 143.703 16.8516C143.422 16.5703 143.281 16.3594 143.281 16.2188C143.281 16.1484 143.328 16.1133 143.422 16.1133C143.516 16.0898 143.633 16.0781 143.773 16.0781L144.547 16.043C144.992 16.043 145.285 16.0312 145.426 16.0078C145.871 16.0078 146.246 15.9961 146.551 15.9727C148.566 15.7852 149.926 15.6328 150.629 15.5156C150.98 15.4688 151.297 15.4219 151.578 15.375C151.859 15.3047 152.082 15.2695 152.246 15.2695C152.574 15.2695 152.902 15.4336 153.23 15.7617C153.488 16.0195 153.617 16.2305 153.617 16.3945C153.617 16.5352 153.535 16.6289 153.371 16.6758C153.254 16.6992 152.562 16.7461 151.297 16.8164C150.594 16.8398 149.727 16.8984 148.695 16.9922C147.664 17.0859 146.762 17.1797 145.988 17.2734C145.848 17.2969 145.648 17.332 145.391 17.3789C145.133 17.4258 144.887 17.4492 144.652 17.4492ZM152.211 29.5781C152.258 29.6719 152.34 29.8125 152.457 30C152.574 30.1875 152.633 30.4102 152.633 30.668C152.633 30.9023 152.539 31.0898 152.352 31.2305C152.164 31.3945 151.953 31.4766 151.719 31.4766C151.508 31.4766 151.332 31.2656 151.191 30.8438C151.121 30.6797 151.062 30.5391 151.016 30.4219C150.992 30.3281 150.969 30.2461 150.945 30.1758C150.641 30.2695 150.242 30.3516 149.75 30.4219C149.258 30.4922 148.906 30.5508 148.695 30.5977C147.57 30.8086 146.797 30.9609 146.375 31.0547C146.211 31.1016 146.035 31.1484 145.848 31.1953C145.66 31.2656 145.555 31.3125 145.531 31.3359C145.391 31.3828 145.285 31.4062 145.215 31.4062C145.027 31.4062 144.852 31.3242 144.688 31.1602C144.406 30.9492 144.195 30.668 144.055 30.3164C144.031 30.293 144.02 30.2578 144.02 30.2109C144.02 30.1641 144.078 30.1055 144.195 30.0352C144.336 29.9648 144.441 29.918 144.512 29.8945C144.816 29.7305 145.355 29.2383 146.129 28.418L147.078 27.5039L145.004 26.3789C144.77 26.3086 144.617 26.2266 144.547 26.1328C144.477 26.0391 144.441 25.8984 144.441 25.7109C144.441 25.5703 144.465 25.4766 144.512 25.4297C144.582 25.3594 144.723 25.2539 144.934 25.1133C145.145 24.9727 145.355 24.7852 145.566 24.5508C145.684 24.4102 145.836 24.2578 146.023 24.0938C146.211 23.9297 146.387 23.7539 146.551 23.5664C147.254 22.7461 147.699 22.1016 147.887 21.6328C148.004 21.3984 148.098 21.2812 148.168 21.2812C148.215 21.2812 148.309 21.3281 148.449 21.4219C148.895 21.75 149.164 22.0547 149.258 22.3359V22.4414C149.258 22.5586 149.199 22.6523 149.082 22.7227C148.965 22.793 148.883 22.8516 148.836 22.8984C148.766 22.9453 148.414 23.2852 147.781 23.918L147.148 24.5508C147.031 24.668 146.832 24.8672 146.551 25.1484C146.27 25.4062 146.129 25.5586 146.129 25.6055C146.129 25.6758 146.164 25.7344 146.234 25.7812C146.328 25.8281 146.398 25.875 146.445 25.9219L147.922 26.625C148.836 25.7109 149.363 25.1719 149.504 25.0078C150.113 24.3047 150.453 23.8594 150.523 23.6719C150.547 23.6484 150.582 23.5898 150.629 23.4961C150.676 23.4023 150.723 23.3555 150.77 23.3555C150.84 23.3555 150.91 23.3906 150.98 23.4609C151.355 23.8125 151.625 24.1406 151.789 24.4453C151.836 24.5391 151.859 24.5977 151.859 24.6211C151.859 24.668 151.801 24.7383 151.684 24.832C151.59 24.9023 151.496 24.9727 151.402 25.043C150.582 25.7227 149.621 26.6133 148.52 27.7148L146.375 29.7188C146.328 29.7656 146.305 29.8125 146.305 29.8594C146.305 29.9062 146.328 29.9414 146.375 29.9648C146.422 29.9883 146.492 29.9883 146.586 29.9648L150.699 29.2617C150.582 28.793 150.441 28.3242 150.277 27.8555V27.7852C150.277 27.7148 150.312 27.6797 150.383 27.6797C150.477 27.6797 150.617 27.75 150.805 27.8906C151.18 28.2188 151.648 28.7812 152.211 29.5781ZM122.434 23.7773L121.555 22.6523C121.18 22.1836 120.805 21.7383 120.43 21.3164C120.078 20.8945 119.797 20.5898 119.586 20.4023C119.398 20.2148 119.094 19.9453 118.672 19.5938C118.273 19.2422 117.922 18.9961 117.617 18.8555C117.336 18.7148 117.078 18.5156 116.844 18.2578C116.891 18.0703 117.008 17.9414 117.195 17.8711C117.383 17.8242 117.617 17.8008 117.898 17.8008C118.414 17.8008 118.801 17.8828 119.059 18.0469C119.316 18.1875 119.633 18.457 120.008 18.8555C120.336 19.2773 120.676 19.6758 121.027 20.0508C121.355 20.4023 121.766 20.8008 122.258 21.2461L122.891 21.8438L123.523 22.4414L124.156 21.457C124.344 21.1289 124.578 20.5898 124.859 19.8398C125.141 19.0898 125.34 18.4805 125.457 18.0117C125.574 17.543 125.656 17.0977 125.703 16.6758C125.703 16.3711 125.668 16.0898 125.598 15.832L125.562 15.2695C125.656 15.1055 125.797 15.0117 125.984 14.9883C126.172 14.9883 126.43 15.0469 126.758 15.1641C127.086 15.3047 127.402 15.457 127.707 15.6211C128.012 15.8086 128.305 16.043 128.586 16.3242C128.867 16.6523 129.008 16.9336 129.008 17.168C128.984 17.3086 128.926 17.4375 128.832 17.5547L128.375 18.0117C128.234 18.1523 128.023 18.5391 127.742 19.1719C127.461 19.7812 127.145 20.4141 126.793 21.0703C126.441 21.75 126.125 22.3008 125.844 22.7227L125.105 23.7422L126.16 24.6211C126.512 24.8789 127.133 25.2656 128.023 25.7812C128.914 26.2734 129.781 26.707 130.625 27.082C131.469 27.457 132.254 27.75 132.98 27.9609C133.73 28.1719 134.609 28.4062 135.617 28.6641C136.602 28.8984 137.305 29.0742 137.727 29.1914L138.992 29.5078L139.344 29.7891C139.297 29.9531 139.191 30.0703 139.027 30.1406C138.863 30.2109 138.594 30.293 138.219 30.3867C137.82 30.4805 137.094 30.6211 136.039 30.8086C134.984 31.043 134.117 31.1836 133.438 31.2305C132.992 31.3008 132.559 31.3359 132.137 31.3359C131.949 31.3359 131.75 31.3242 131.539 31.3008C130.93 31.2773 130.426 31.1836 130.027 31.0195C129.629 30.8789 129.125 30.5273 128.516 29.9648L126.477 27.9961L125.281 26.8359L124.367 25.8867L123.875 25.3945C123.359 25.8867 122.832 26.3555 122.293 26.8008C121.754 27.2695 121.016 27.7852 120.078 28.3477C119.141 28.9102 118.25 29.3555 117.406 29.6836C116.516 30.0117 115.637 30.2344 114.77 30.3516C113.902 30.4688 113.164 30.5391 112.555 30.5625H111.148L110.621 30.4219L110.727 30.0703L111.184 29.9648C111.441 29.918 111.828 29.8242 112.344 29.6836L114.312 29.1211C115.109 28.8398 115.93 28.4883 116.773 28.0664C117.664 27.6445 118.625 27.0703 119.656 26.3438C120.688 25.6172 121.344 25.0898 121.625 24.7617L122.434 23.7773ZM112.027 19.0664L112.555 18.6445L112.977 18.2578L113.891 17.4141C114.242 17.0625 114.57 16.6992 114.875 16.3242C115.203 15.9961 115.531 15.6211 115.859 15.1992C116.188 14.7773 116.445 14.3789 116.633 14.0039C116.844 13.6758 116.973 13.4414 117.02 13.3008C117.043 13.1602 117.09 12.9727 117.16 12.7383C117.207 12.5039 117.242 12.3047 117.266 12.1406L117.512 11.7891C117.723 11.7422 117.969 11.7773 118.25 11.8945C118.531 11.9883 118.766 12.0938 118.953 12.2109L119.656 12.668C119.914 12.8555 120.125 13.0312 120.289 13.1953L120.5 13.582L120.359 13.8633C120.172 13.957 119.996 14.0508 119.832 14.1445C119.668 14.2383 119.492 14.3555 119.305 14.4961C119.117 14.6367 118.789 14.9414 118.32 15.4102L117.055 16.5703C116.68 16.9219 116.328 17.2148 116 17.4492L114.734 18.293L113.574 18.9258C113.316 19.043 113 19.1719 112.625 19.3125H111.816L112.027 19.0664ZM123.102 7.88672L122.398 7.18359C122.258 6.99609 122 6.62109 121.625 6.05859L120.992 5.10938L120.641 4.37109L120.254 3.45703L120.57 3.24609L121.414 3.38672C121.648 3.43359 122.07 3.57422 122.68 3.80859C123.289 4.04297 123.758 4.27734 124.086 4.51172C124.461 4.74609 124.707 5.03906 124.824 5.39062C124.965 5.74219 125.047 6.03516 125.07 6.26953C125.07 6.59766 125.047 6.83203 125 6.97266L124.719 7.67578L127.812 7.21875L129.008 6.97266L130.695 6.72656C131.422 6.60937 131.891 6.55078 132.102 6.55078C132.406 6.55078 132.688 6.59766 132.945 6.69141C133.227 6.78516 133.602 6.97266 134.07 7.25391C134.562 7.51172 134.832 7.73437 134.879 7.92188L134.844 8.23828L134.703 8.55469C134.516 8.625 133.848 8.68359 132.699 8.73047L127.32 9.08203C126.523 9.12891 125.715 9.1875 124.895 9.25781C124.074 9.32812 123.395 9.41016 122.855 9.50391C122.316 9.55078 121.602 9.64453 120.711 9.78516C119.82 9.92578 118.953 10.0547 118.109 10.1719C117.289 10.2891 116.574 10.4297 115.965 10.5938C115.402 10.7344 114.98 10.8047 114.699 10.8047C114.348 10.8047 113.902 10.7109 113.363 10.5234C112.824 10.3359 112.484 10.1719 112.344 10.0312L112.133 9.60938C112.227 9.44531 112.52 9.32812 113.012 9.25781L123.102 7.88672ZM126.336 11.2266L126.969 11.3672C127.203 11.4375 127.59 11.5664 128.129 11.7539C128.668 11.9414 129.195 12.1406 129.711 12.3516C130.227 12.5625 130.766 12.8203 131.328 13.125C131.891 13.4297 132.289 13.6992 132.523 13.9336C132.758 14.2148 132.945 14.4961 133.086 14.7773C133.18 15.0586 133.238 15.3633 133.262 15.6914C133.262 16.0195 133.203 16.3359 133.086 16.6406L132.77 17.0977L132.418 17.2383C132.184 17.2383 131.949 17.1797 131.715 17.0625C131.457 16.9453 131.176 16.7461 130.871 16.4648C130.566 16.1836 130.203 15.8086 129.781 15.3398L128.41 13.793C127.918 13.2773 127.484 12.8438 127.109 12.4922L126.23 11.7539L126.055 11.2969L126.336 11.2266ZM203.223 11.5781C202.848 11.5781 202.613 11.4727 202.52 11.2617C202.402 10.9805 202.285 10.7461 202.168 10.5586C202.051 10.3477 201.84 10.1016 201.535 9.82031L201.605 9.67969C202.449 9.98437 203 10.1367 203.258 10.1367C203.445 10.1367 203.586 10.1016 203.68 10.0312C203.773 9.96094 203.926 9.79688 204.137 9.53906C204.441 9.21094 204.723 8.70703 204.98 8.02734C205.332 7.01953 205.555 5.97656 205.648 4.89844V4.79297C205.648 4.65234 205.625 4.55859 205.578 4.51172C205.273 4.51172 204.465 4.58203 203.152 4.72266C202.426 6.52734 201.582 8.01562 200.621 9.1875C199.684 10.3359 198.828 10.9102 198.055 10.9102C197.867 10.9102 197.773 10.8398 197.773 10.6992C197.773 10.6523 198.008 10.3828 198.477 9.89062C198.945 9.39844 199.461 8.75391 200.023 7.95703C200.609 7.13672 201.16 6.12891 201.676 4.93359C201.559 4.93359 201.219 4.95703 200.656 5.00391C200.094 5.05078 199.613 5.13281 199.215 5.25C199.027 5.39062 198.828 5.41406 198.617 5.32031C198.617 5.32031 198.594 5.30859 198.547 5.28516C198.5 5.26172 198.453 5.22656 198.406 5.17969C198.242 5.08594 198.102 4.96875 197.984 4.82812C197.891 4.66406 197.844 4.51172 197.844 4.37109C197.844 4.30078 197.902 4.20703 198.02 4.08984L198.441 3.52734C198.582 3.33984 198.711 3.07031 198.828 2.71875C198.945 2.34375 199.004 2.02734 199.004 1.76953C199.004 1.60547 198.992 1.5 198.969 1.45312C198.945 1.40625 198.934 1.34766 198.934 1.27734C198.934 1.16016 198.992 1.10156 199.109 1.10156C199.25 1.10156 199.449 1.18359 199.707 1.34766C199.777 1.39453 199.906 1.48828 200.094 1.62891C200.305 1.74609 200.422 1.88672 200.445 2.05078C200.445 2.21484 200.352 2.48438 200.164 2.85938L199.707 3.66797C199.66 3.73828 199.637 3.82031 199.637 3.91406C199.637 3.98438 199.66 4.04297 199.707 4.08984C199.777 4.11328 199.859 4.11328 199.953 4.08984L202.062 3.80859C202.297 3.19922 202.484 2.55469 202.625 1.875V1.66406V1.06641C202.625 0.808594 202.695 0.703125 202.836 0.75C203.141 0.820312 203.387 0.914062 203.574 1.03125C203.926 1.24219 204.102 1.41797 204.102 1.55859C204.102 1.67578 204.055 1.875 203.961 2.15625C203.891 2.41406 203.832 2.61328 203.785 2.75391C203.762 2.84766 203.656 3.15234 203.469 3.66797C203.539 3.66797 203.973 3.62109 204.77 3.52734L205.121 3.45703C205.191 3.45703 205.32 3.43359 205.508 3.38672C205.555 3.36328 205.613 3.35156 205.684 3.35156C205.965 3.35156 206.141 3.36328 206.211 3.38672C206.305 3.41016 206.445 3.48047 206.633 3.59766C206.844 3.73828 206.984 3.87891 207.055 4.01953C207.125 4.16016 207.148 4.32422 207.125 4.51172L206.914 5.67188L206.668 6.9375C206.668 7.03125 206.586 7.33594 206.422 7.85156C206.258 8.36719 206.07 8.82422 205.859 9.22266C205.461 10.0195 204.992 10.6172 204.453 11.0156C203.984 11.3906 203.574 11.5781 203.223 11.5781ZM198.652 17.4492C198.395 17.4492 198.078 17.25 197.703 16.8516C197.422 16.5703 197.281 16.3594 197.281 16.2188C197.281 16.1484 197.328 16.1133 197.422 16.1133C197.516 16.0898 197.633 16.0781 197.773 16.0781L198.547 16.043C198.992 16.043 199.285 16.0312 199.426 16.0078C199.871 16.0078 200.246 15.9961 200.551 15.9727C202.566 15.7852 203.926 15.6328 204.629 15.5156C204.98 15.4688 205.297 15.4219 205.578 15.375C205.859 15.3047 206.082 15.2695 206.246 15.2695C206.574 15.2695 206.902 15.4336 207.23 15.7617C207.488 16.0195 207.617 16.2305 207.617 16.3945C207.617 16.5352 207.535 16.6289 207.371 16.6758C207.254 16.6992 206.562 16.7461 205.297 16.8164C204.594 16.8398 203.727 16.8984 202.695 16.9922C201.664 17.0859 200.762 17.1797 199.988 17.2734C199.848 17.2969 199.648 17.332 199.391 17.3789C199.133 17.4258 198.887 17.4492 198.652 17.4492ZM206.914 31.3008C206.891 31.3242 206.832 31.3359 206.738 31.3359C206.551 31.3359 206.281 31.207 205.93 30.9492C205.133 30.1523 204.09 29.168 202.801 27.9961C202.191 28.6055 201.617 29.1328 201.078 29.5781C200.891 29.7188 200.562 29.9297 200.094 30.2109C199.414 30.6094 198.758 30.8555 198.125 30.9492H197.914C197.703 30.9492 197.574 30.9258 197.527 30.8789C197.504 30.8555 197.551 30.8086 197.668 30.7383C197.809 30.668 197.914 30.6094 197.984 30.5625C198.125 30.4922 198.523 30.2344 199.18 29.7891C199.508 29.5547 199.977 29.1562 200.586 28.5938C201.195 28.0312 201.641 27.5742 201.922 27.2227L200.48 26.0977C200.223 25.9102 199.941 25.7109 199.637 25.5C199.355 25.2656 199.156 25.1133 199.039 25.043L199.004 24.9375C199.004 24.7969 199.121 24.7266 199.355 24.7266C199.637 24.7266 200.094 24.9023 200.727 25.2539L202.52 26.4141C202.918 25.8984 203.316 25.3359 203.715 24.7266C204.137 24.0938 204.359 23.7188 204.383 23.6016C204.406 23.5312 204.395 23.4727 204.348 23.4258C204.324 23.3555 204.277 23.3203 204.207 23.3203H203.504L202.238 23.4258C201.605 23.4727 200.973 23.5547 200.34 23.6719C200.27 23.6953 200.152 23.7305 199.988 23.7773C199.824 23.8242 199.684 23.8477 199.566 23.8477C199.52 23.8477 199.32 23.7188 198.969 23.4609C198.641 23.1797 198.465 23.0039 198.441 22.9336C198.418 22.9102 198.406 22.875 198.406 22.8281C198.406 22.7109 198.535 22.6641 198.793 22.6875C199.051 22.6875 199.215 22.6875 199.285 22.6875C199.941 22.6875 200.891 22.6289 202.133 22.5117L203.328 22.4062L204.418 22.2656C204.77 22.1719 204.969 22.125 205.016 22.125H205.086C205.203 22.125 205.309 22.1602 205.402 22.2305C205.496 22.3008 205.566 22.3711 205.613 22.4414C205.66 22.5117 205.695 22.5586 205.719 22.582C205.742 22.6055 205.812 22.6758 205.93 22.793C206.047 22.8867 206.117 22.9805 206.141 23.0742C206.188 23.1445 206.211 23.2266 206.211 23.3203C206.211 23.5312 206.129 23.6836 205.965 23.7773C205.848 23.8242 205.637 24.0703 205.332 24.5156C204.816 25.3359 204.195 26.2148 203.469 27.1523C203.867 27.4102 204.383 27.7852 205.016 28.2773C205.297 28.4648 205.754 28.7812 206.387 29.2266C206.668 29.4375 206.879 29.7188 207.02 30.0703C207.113 30.4453 207.16 30.7266 207.16 30.9141C207.137 31.1016 207.055 31.2305 206.914 31.3008ZM213.383 15.9727C213.664 15.9727 213.805 16.1016 213.805 16.3594C213.805 16.5 213.676 16.6992 213.418 16.957C212.715 17.8242 211.32 19.4766 209.234 21.9141C209.07 22.125 208.918 22.2305 208.777 22.2305C208.66 22.2305 208.402 22.0547 208.004 21.7031C207.676 21.4219 207.512 21.1875 207.512 21C207.512 20.7891 207.688 20.5898 208.039 20.4023C208.578 20.0977 209.387 19.4883 210.465 18.5742C211.543 17.6133 212.34 16.8516 212.855 16.2891C213.066 16.0781 213.242 15.9727 213.383 15.9727ZM164.586 12.9492L163.742 11.7539L164.023 11.4727L165.219 11.7539C165.383 11.8008 165.781 11.9063 166.414 12.0703C167.047 12.2344 167.504 12.4102 167.785 12.5977C168.066 12.7617 168.289 12.9844 168.453 13.2656C168.617 13.5703 168.699 13.9219 168.699 14.3203C168.699 14.7188 168.641 15.0234 168.523 15.2344L168.277 15.5156C168.137 15.6094 167.844 15.6445 167.398 15.6211C167 15.5039 166.613 15.2461 166.238 14.8477C165.84 14.4727 165.559 14.1797 165.395 13.9688C165.207 13.7578 164.938 13.418 164.586 12.9492ZM170.035 17.9414L170.879 16.3945L171.266 16.1133L171.547 16.2539L171.512 16.6055L171.02 17.9414C170.738 18.832 170.539 19.418 170.422 19.6992C170.305 19.9805 170.035 20.5898 169.613 21.5273C169.215 22.4648 168.863 23.332 168.559 24.1289L167.645 26.5195C167.363 27.1289 167.141 27.668 166.977 28.1367C166.812 28.6055 166.637 28.9336 166.449 29.1211L166.027 29.332C165.84 29.332 165.664 29.2266 165.5 29.0156C165.336 28.8047 165.195 28.5234 165.078 28.1719C164.938 27.8203 164.82 27.4805 164.727 27.1523C164.633 26.8242 164.551 26.4961 164.48 26.168L164.445 25.8867L164.48 25.5C164.551 25.3359 164.738 25.125 165.043 24.8672L166.098 23.8828C166.473 23.4844 166.824 23.0625 167.152 22.6172C167.48 22.1719 167.832 21.6562 168.207 21.0703C168.629 20.4844 168.934 20.0273 169.121 19.6992C169.309 19.3711 169.613 18.7852 170.035 17.9414ZM168.418 6.30469L167.926 5.63672L167.715 5.17969C167.738 5.03906 167.902 4.98047 168.207 5.00391L169.121 5.14453C169.332 5.19141 169.73 5.30859 170.316 5.49609C170.879 5.68359 171.277 5.87109 171.512 6.05859C171.746 6.26953 171.934 6.50391 172.074 6.76172C172.215 7.04297 172.285 7.34766 172.285 7.67578C172.285 7.98047 172.25 8.21484 172.18 8.37891C172.086 8.51953 171.945 8.64844 171.758 8.76562C171.594 8.85937 171.406 8.90625 171.195 8.90625C170.844 8.88281 170.504 8.71875 170.176 8.41406C169.848 8.08594 169.52 7.73437 169.191 7.35938C168.887 6.98438 168.629 6.63281 168.418 6.30469ZM170.984 29.4023L171.652 28.9102C171.863 28.7695 172.145 28.4883 172.496 28.0664C172.871 27.6445 173.176 27.2578 173.41 26.9062C173.691 26.5547 173.938 26.1211 174.148 25.6055C174.359 25.0898 174.535 24.5625 174.676 24.0234C174.816 23.4609 174.91 22.9688 174.957 22.5469C175.004 22.1484 175.027 21.7617 175.027 21.3867C175.004 20.8242 174.934 20.4141 174.816 20.1562C174.723 19.9219 174.605 19.6758 174.465 19.418L174.289 18.9609L174.641 18.6445C174.805 18.6211 174.957 18.6211 175.098 18.6445C175.473 18.7148 175.801 18.8086 176.082 18.9258C176.41 19.0195 176.668 19.1367 176.855 19.2773L177.242 19.8398L177.102 20.3672C176.984 20.6484 176.914 20.9883 176.891 21.3867C176.844 21.8086 176.785 22.2422 176.715 22.6875C176.668 23.1328 176.562 23.6484 176.398 24.2344C176.234 24.8203 176.012 25.3828 175.73 25.9219C175.449 26.4609 175.074 26.9883 174.605 27.5039C174.137 28.0664 173.691 28.4766 173.27 28.7344C172.801 28.9922 172.402 29.2031 172.074 29.3672L170.738 29.6836L170.984 29.4023ZM180.934 7.32422L184.027 6.83203C185.012 6.69141 185.797 6.5625 186.383 6.44531C186.805 6.32812 187.203 6.29297 187.578 6.33984L188.562 6.65625C189.148 6.89062 189.523 7.08984 189.688 7.25391L189.863 7.60547C189.816 7.79297 189.699 7.88672 189.512 7.88672L188.809 7.92188L186.734 8.02734C184.836 8.12109 183.43 8.23828 182.516 8.37891L180.09 8.73047L177.91 12.5273C177.488 13.2305 177.23 13.7109 177.137 13.9688L177.242 14.5664C177.547 14.5898 177.863 14.5781 178.191 14.5312L179.422 14.3555L185.645 13.3008L184.414 11.7539C184.133 11.4258 183.898 11.1445 183.711 10.9102L183.746 10.4531L184.625 10.6641C185.211 10.875 185.902 11.2031 186.699 11.6484C187.473 12.0938 188.012 12.4805 188.316 12.8086C188.645 13.1602 188.867 13.4766 188.984 13.7578C189.102 14.0625 189.172 14.3789 189.195 14.707C189.195 15.0586 189.113 15.3867 188.949 15.6914L188.738 16.0078L188.352 16.1836C188.188 16.1836 188.035 16.1484 187.895 16.0781C187.73 15.9844 187.566 15.8438 187.402 15.6562L186.102 14.1797L180.09 15.4805L178.754 15.832L177.488 16.1133C177.23 16.207 176.938 16.3242 176.609 16.4648L176.082 16.7461L175.625 16.8867C175.414 16.8398 175.215 16.6992 175.027 16.4648C174.84 16.2305 174.688 15.9609 174.57 15.6562C174.453 15.3516 174.383 15.0469 174.359 14.7422V14.4258C174.383 14.2852 174.582 14.0977 174.957 13.8633C175.309 13.6289 175.613 13.3477 175.871 13.0195C176.152 12.6445 176.422 12.2461 176.68 11.8242C176.938 11.3789 177.254 10.793 177.629 10.0664L178.227 8.94141C177.641 9.08203 177.172 9.17578 176.82 9.22266C176.469 9.26953 176.117 9.33984 175.766 9.43359L175.203 9.53906C175.039 9.53906 174.699 9.46875 174.184 9.32812C173.668 9.1875 173.352 9.03516 173.234 8.87109L173.094 8.48438L173.586 8.30859L175.309 8.09766L176.363 7.95703L177.523 7.81641L178.859 7.60547C179.117 7.06641 179.305 6.64453 179.422 6.33984C179.539 6.03516 179.691 5.61328 179.879 5.07422C180.066 4.53516 180.195 4.11328 180.266 3.80859C180.336 3.48047 180.383 3.17578 180.406 2.89453L180.441 1.875C180.488 1.57031 180.617 1.34766 180.828 1.20703C181.039 1.18359 181.238 1.21875 181.426 1.3125C181.613 1.40625 181.848 1.60547 182.129 1.91016C182.434 2.21484 182.668 2.48438 182.832 2.71875C182.973 2.95312 183.09 3.19922 183.184 3.45703L183.254 3.91406C183.207 4.07812 183.102 4.24219 182.938 4.40625C182.773 4.57031 182.527 4.85156 182.199 5.25L181.707 5.91797L180.934 7.32422ZM181.988 21.0352L181.848 25.6055C181.848 25.8867 181.859 26.2266 181.883 26.625C181.906 26.9062 181.918 27.1641 181.918 27.3984C181.895 27.7969 181.801 28.1484 181.637 28.4531C181.496 28.7812 181.355 29.0039 181.215 29.1211C181.098 29.2617 180.922 29.3438 180.688 29.3672L180.266 28.6992C180.102 28.4414 179.996 28.207 179.949 27.9961C179.879 27.8086 179.844 27.6094 179.844 27.3984C179.844 27.2109 179.867 27 179.914 26.7656L180.055 25.7812C180.172 24.9609 180.23 24.4219 180.23 24.1641L180.336 21.3164C180.336 21.0352 180.324 20.8008 180.301 20.6133C180.254 20.4258 180.195 20.1094 180.125 19.6641C180.031 19.2188 179.938 18.9023 179.844 18.7148L179.703 18.3633L180.02 18.0469C180.395 18.0469 180.711 18.0938 180.969 18.1875C181.227 18.2578 181.496 18.3633 181.777 18.5039L182.199 18.7148L182.27 19.3125C182.129 19.6875 182.047 20.0391 182.023 20.3672C182 20.6719 181.988 20.8945 181.988 21.0352ZM185.891 20.6836C185.844 20.0273 185.809 19.5586 185.785 19.2773C185.785 18.9961 185.762 18.7617 185.715 18.5742C185.691 18.3867 185.633 18.1875 185.539 17.9766L185.398 17.5898L185.504 17.3086L185.785 17.168C185.949 17.168 186.102 17.1914 186.242 17.2383L187.262 17.5195C187.59 17.6602 187.871 17.8008 188.105 17.9414C188.34 18.082 188.457 18.2695 188.457 18.5039C188.48 18.6914 188.434 18.9258 188.316 19.207C188.199 19.4883 188.117 19.7695 188.07 20.0508C188.023 20.332 187.965 20.707 187.895 21.1758L187.754 22.6172C187.707 23.1094 187.66 23.9648 187.613 25.1836V26.0273C187.613 26.7539 187.66 27.1992 187.754 27.3633C187.848 27.5273 188.012 27.6914 188.246 27.8555C188.48 27.9961 188.773 28.0898 189.125 28.1367C189.383 28.1836 189.688 28.207 190.039 28.207C190.297 28.207 190.59 28.1836 190.918 28.1367C191.246 28.1133 191.586 28.043 191.938 27.9258L192.57 27.7852C192.805 27.7617 193.016 27.8086 193.203 27.9258L193.836 28.3477C194.047 28.5352 194.176 28.7461 194.223 28.9805C194.246 29.1445 194.211 29.2852 194.117 29.4023C193.953 29.6602 193.566 29.8477 192.957 29.9648C192.348 30.1055 191.645 30.1758 190.848 30.1758C190.168 30.1758 189.465 30.1289 188.738 30.0352C188.035 29.9414 187.438 29.7305 186.945 29.4023C186.453 29.1211 186.125 28.8164 185.961 28.4883C185.797 28.1602 185.703 27.7734 185.68 27.3281C185.68 26.7891 185.703 25.9805 185.75 24.9023L185.891 20.6836Z" fill="#333333"/>
</svg>
