<svg width="120" height="40" viewBox="0 0 120 40" fill="none" xmlns="http://www.w3.org/2000/svg">
<path d="M36.3047 18.9922C36.1797 18.9609 36.0781 18.8828 36 18.7578C35.9688 18.7266 35.9297 18.6641 35.8828 18.5703C35.8516 18.4609 35.8203 18.3828 35.7891 18.3359L35.6719 18.0781L34.1953 18.2656L33.6328 18.3594C33.4922 18.375 33.1719 18.4297 32.6719 18.5234C32.4688 18.5547 32.25 18.6172 32.0156 18.7109C31.9688 18.7266 31.9141 18.7578 31.8516 18.8047C31.7891 18.8516 31.7344 18.875 31.6875 18.875H31.5C31.3438 18.875 31.1719 18.7734 30.9844 18.5703C30.9375 18.5078 30.875 18.4453 30.7969 18.3828C30.7344 18.3047 30.7031 18.25 30.7031 18.2188C30.7031 18.0938 30.7578 17.9766 30.8672 17.8672C31.1016 17.6328 31.4297 17.1562 31.8516 16.4375C32.0078 16.2188 32.1953 15.8984 32.4141 15.4766C32.6328 15.0547 32.8047 14.7031 32.9297 14.4219C32.9141 14.4688 33 14.2578 33.1875 13.7891C33.3281 13.3984 33.3984 13.1484 33.3984 13.0391C33.4297 12.8672 33.4844 12.7812 33.5625 12.7812C33.625 12.7812 33.7578 12.8672 33.9609 13.0391C34.1328 13.1797 34.2656 13.3203 34.3594 13.4609C34.4688 13.6016 34.5234 13.7109 34.5234 13.7891C34.5234 13.8516 34.5078 13.9062 34.4766 13.9531C34.4453 14 34.3906 14.0547 34.3125 14.1172C34.25 14.1797 34.1719 14.2734 34.0781 14.3984C33.875 14.6641 33.625 15.0703 33.3281 15.6172L32.8594 16.4375L32.5078 17.0234L32.25 17.4688L32.0859 17.7266C32.0703 17.7578 32.0703 17.7891 32.0859 17.8203C32.1016 17.8359 32.125 17.8438 32.1562 17.8438C32.1562 17.8438 32.5547 17.7969 33.3516 17.7031L35.5078 17.4688C35.4609 17.3438 35.3984 17.1797 35.3203 16.9766C35.2422 16.7578 35.1484 16.5156 35.0391 16.25C35.0234 16.2344 35.0156 16.2031 35.0156 16.1562C35.0156 16.1094 35.0391 16.0859 35.0859 16.0859C35.1641 16.0859 35.2578 16.1328 35.3672 16.2266C35.4922 16.3047 35.6797 16.4688 35.9297 16.7188C36.1172 16.875 36.2734 17.0547 36.3984 17.2578C36.5391 17.4609 36.625 17.5781 36.6562 17.6094C36.7969 17.8125 36.8672 18.0078 36.8672 18.1953C36.8672 18.2891 36.8359 18.4453 36.7734 18.6641C36.7266 18.7891 36.6641 18.875 36.5859 18.9219C36.5234 18.9688 36.4297 18.9922 36.3047 18.9922ZM34.5938 23.2812C34.4375 23.4844 34.2734 23.5859 34.1016 23.5859C34.0547 23.5859 34.0312 23.5469 34.0312 23.4688C34.0312 23.3594 34.0625 23.2344 34.125 23.0938C34.125 23.0938 34.2812 22.7812 34.5938 22.1562C34.6094 22.0938 34.6328 22.0312 34.6641 21.9688C34.6953 21.9062 34.7188 21.8516 34.7344 21.8047V21.7812C34.7344 21.75 34.7109 21.7188 34.6641 21.6875C34.6172 21.6562 34.5625 21.6484 34.5 21.6641C34.25 21.6797 33.875 21.7188 33.375 21.7812C32.8906 21.8438 32.5312 21.9062 32.2969 21.9688C32.2031 22 32.0859 22.0391 31.9453 22.0859C31.8203 22.1328 31.7188 22.1562 31.6406 22.1562C31.3594 22.1562 31.125 22.0703 30.9375 21.8984C30.7812 21.7891 30.6641 21.6797 30.5859 21.5703L30.5391 21.4531C30.5391 21.375 30.6719 21.3516 30.9375 21.3828C31.2969 21.4141 32.0391 21.3672 33.1641 21.2422L33.6328 21.1719C33.7578 21.1562 33.9531 21.1328 34.2188 21.1016C34.5 21.0547 34.7188 21.0078 34.875 20.9609C34.9219 20.9453 34.9688 20.9297 35.0156 20.9141C35.0781 20.8828 35.1328 20.8672 35.1797 20.8672C35.2578 20.8672 35.3516 20.9062 35.4609 20.9844C35.5859 21.0625 35.6875 21.1328 35.7656 21.1953C35.875 21.2734 35.9453 21.3438 35.9766 21.4062C36.0234 21.4531 36.0391 21.5156 36.0234 21.5938C36.0234 21.6719 35.9844 21.7422 35.9062 21.8047C35.8281 21.8672 35.7734 21.9141 35.7422 21.9453C35.7109 21.9922 35.6016 22.1094 35.4141 22.2969C35.3359 22.4219 35.1953 22.5938 34.9922 22.8125C34.8047 23.0312 34.6719 23.1875 34.5938 23.2812ZM33.4219 27.8984C33.4219 27.8516 33.5 27.7344 33.6562 27.5469C33.8281 27.3438 33.9609 27.1875 34.0547 27.0781C34.2891 26.7656 34.5703 26.3125 34.8984 25.7188C35.2422 25.125 35.4375 24.7344 35.4844 24.5469C35.5156 24.4531 35.4688 24.4062 35.3438 24.4062C35.0938 24.4062 34.4062 24.4766 33.2812 24.6172C32.5469 24.7109 32 24.8047 31.6406 24.8984C31.5625 24.9453 31.4844 24.9688 31.4062 24.9688C31.2812 24.9688 31.1484 24.8828 31.0078 24.7109C30.9453 24.6016 30.9141 24.5 30.9141 24.4062C30.9141 24.3438 30.9531 24.2812 31.0312 24.2188L31.1016 24.125C31.1484 24.0312 31.2031 23.9062 31.2656 23.75C31.3281 23.5938 31.3828 23.4453 31.4297 23.3047C31.5078 23.0547 31.5625 22.7812 31.5938 22.4844C31.6094 22.3125 31.7031 22.2656 31.875 22.3438C32.0938 22.4531 32.2578 22.5625 32.3672 22.6719C32.4922 22.7656 32.5312 22.8359 32.4844 22.8828C32.3281 23.0703 32.2031 23.2812 32.1094 23.5156C32.0312 23.7656 31.9844 23.9297 31.9688 24.0078C31.9688 24.0703 32.0078 24.1016 32.0859 24.1016C32.3203 24.1016 32.6719 24.0625 33.1406 23.9844C33.4062 23.9531 33.7344 23.9141 34.125 23.8672C34.5156 23.8203 34.8281 23.7734 35.0625 23.7266L35.6484 23.6094C35.6953 23.5938 35.7578 23.5859 35.8359 23.5859C35.9141 23.5859 35.9922 23.6172 36.0703 23.6797C36.1484 23.7266 36.2344 23.7891 36.3281 23.8672C36.4844 24.0078 36.5859 24.125 36.6328 24.2188C36.6797 24.2969 36.7031 24.3906 36.7031 24.5C36.7031 24.5625 36.6562 24.6406 36.5625 24.7344C36.4844 24.8281 36.3906 24.9766 36.2812 25.1797C35.8281 26.1016 35.2422 26.875 34.5234 27.5C34.3203 27.6562 34.0938 27.7891 33.8438 27.8984C33.7344 27.9297 33.6328 27.9531 33.5391 27.9688C33.4609 27.9688 33.4219 27.9453 33.4219 27.8984ZM9.02344 11.2344H27.0234V13.0156H9.02344V11.2344ZM10.5703 19.0156H25.1484V20.8203H10.5703V19.0156ZM7.66406 27.2891H28.3125V29.0938H7.66406V27.2891Z" fill="#333333"/>
<path d="M69.4453 16.6953C69.2422 16.6953 69.0938 16.625 69 16.4844C68.8594 16.2812 68.7188 16.1172 68.5781 15.9922C68.4531 15.8672 68.2266 15.6953 67.8984 15.4766L67.9688 15.3594C68.6875 15.6094 69.1953 15.7344 69.4922 15.7344C69.7422 15.7344 70.0156 15.5938 70.3125 15.3125C70.625 15.0156 70.8906 14.5938 71.1094 14.0469C71.2188 13.7969 71.2969 13.5938 71.3438 13.4375C71.4062 13.2656 71.4531 13.0781 71.4844 12.875V12.8281C71.4844 12.6875 71.4141 12.6172 71.2734 12.6172C71.1172 12.6172 70.8359 12.6641 70.4297 12.7578C70.2109 12.8203 69.9219 12.9141 69.5625 13.0391L69.375 12.9922C69.3594 12.9766 69.3203 12.9531 69.2578 12.9219C69.2109 12.875 69.1719 12.8281 69.1406 12.7812C69.0625 12.7031 69.0234 12.6484 69.0234 12.6172L69 12.5234C69 12.4141 69.0547 12.3125 69.1641 12.2188C69.2891 12.125 69.3594 12.0547 69.375 12.0078C69.5 11.8672 69.75 11.5234 70.125 10.9766C70.1562 10.9453 70.2109 10.875 70.2891 10.7656C70.3672 10.6406 70.4062 10.5312 70.4062 10.4375C70.4062 10.3281 69.9453 10.4062 69.0234 10.6719C68.0859 10.9531 67.5938 11.0938 67.5469 11.0938C67.3906 11.0938 67.2266 10.9609 67.0547 10.6953C66.9297 10.5703 66.8672 10.4688 66.8672 10.3906C66.8672 10.2812 67.0234 10.2188 67.3359 10.2031C67.6953 10.1875 68.25 10.125 69 10.0156C69.7656 9.90625 70.2188 9.83594 70.3594 9.80469L70.6875 9.71094C70.7344 9.69531 70.7891 9.6875 70.8516 9.6875C70.8984 9.6875 70.9688 9.71875 71.0625 9.78125C71.1719 9.84375 71.2656 9.89062 71.3438 9.92188C71.5469 10.0156 71.6641 10.125 71.6953 10.25V10.3203C71.6953 10.4609 71.6172 10.6094 71.4609 10.7656C71.3984 10.8281 71.2734 10.9609 71.0859 11.1641C70.8984 11.3516 70.7812 11.4766 70.7344 11.5391C70.6719 11.6016 70.5781 11.7031 70.4531 11.8438C70.3281 11.9844 70.2578 12.0703 70.2422 12.1016C70.2422 12.1484 70.2578 12.1797 70.2891 12.1953C70.3203 12.2109 70.3594 12.2188 70.4062 12.2188C70.875 12.1562 71.2578 12.0859 71.5547 12.0078L71.9297 11.8906C72.1016 11.8906 72.2266 11.9531 72.3047 12.0781C72.4453 12.2344 72.5391 12.3672 72.5859 12.4766C72.6328 12.5703 72.6328 12.6641 72.5859 12.7578C72.5703 12.8047 72.5469 12.8516 72.5156 12.8984C72.4844 12.9453 72.4531 13 72.4219 13.0625C72.4062 13.0938 72.375 13.1562 72.3281 13.25C72.2812 13.3438 72.25 13.4375 72.2344 13.5312C71.9531 14.3438 71.6172 15.0391 71.2266 15.6172C71.0078 15.8828 70.7656 16.1094 70.5 16.2969C70.1406 16.5625 69.7891 16.6953 69.4453 16.6953ZM67.1016 20.6328C66.9297 20.6328 66.7188 20.5 66.4688 20.2344C66.2812 20.0469 66.1875 19.9062 66.1875 19.8125C66.1875 19.7656 66.2188 19.7422 66.2812 19.7422C66.3438 19.7266 66.4219 19.7188 66.5156 19.7188L67.0312 19.6953C67.3281 19.6953 67.5234 19.6875 67.6172 19.6719C67.9141 19.6719 68.1641 19.6641 68.3672 19.6484C69.7109 19.5234 70.6172 19.4219 71.0859 19.3438C71.3203 19.3125 71.5312 19.2812 71.7188 19.25C71.9062 19.2031 72.0547 19.1797 72.1641 19.1797C72.3828 19.1797 72.6016 19.2891 72.8203 19.5078C72.9922 19.6797 73.0781 19.8203 73.0781 19.9297C73.0781 20.0234 73.0234 20.0859 72.9141 20.1172C72.8359 20.1328 72.375 20.1641 71.5312 20.2109C71.0625 20.2266 70.4844 20.2656 69.7969 20.3281C69.1094 20.3906 68.5078 20.4531 67.9922 20.5156C67.8984 20.5312 67.7656 20.5547 67.5938 20.5859C67.4219 20.6172 67.2578 20.6328 67.1016 20.6328ZM70.5938 25.8594C70.4375 26.0625 70.2734 26.1641 70.1016 26.1641C70.0547 26.1641 70.0312 26.125 70.0312 26.0469C70.0312 25.9375 70.0625 25.8125 70.125 25.6719C70.125 25.6719 70.2812 25.3594 70.5938 24.7344C70.6094 24.6719 70.6328 24.6094 70.6641 24.5469C70.6953 24.4844 70.7188 24.4297 70.7344 24.3828V24.3594C70.7344 24.3281 70.7109 24.2969 70.6641 24.2656C70.6172 24.2344 70.5625 24.2266 70.5 24.2422C70.25 24.2578 69.875 24.2969 69.375 24.3594C68.8906 24.4219 68.5312 24.4844 68.2969 24.5469C68.2031 24.5781 68.0859 24.6172 67.9453 24.6641C67.8203 24.7109 67.7188 24.7344 67.6406 24.7344C67.3594 24.7344 67.125 24.6484 66.9375 24.4766C66.7812 24.3672 66.6641 24.2578 66.5859 24.1484L66.5391 24.0312C66.5391 23.9531 66.6719 23.9297 66.9375 23.9609C67.2969 23.9922 68.0391 23.9453 69.1641 23.8203L69.6328 23.75C69.7578 23.7344 69.9531 23.7109 70.2188 23.6797C70.5 23.6328 70.7188 23.5859 70.875 23.5391C70.9219 23.5234 70.9688 23.5078 71.0156 23.4922C71.0781 23.4609 71.1328 23.4453 71.1797 23.4453C71.2578 23.4453 71.3516 23.4844 71.4609 23.5625C71.5859 23.6406 71.6875 23.7109 71.7656 23.7734C71.875 23.8516 71.9453 23.9219 71.9766 23.9844C72.0234 24.0312 72.0391 24.0938 72.0234 24.1719C72.0234 24.25 71.9844 24.3203 71.9062 24.3828C71.8281 24.4453 71.7734 24.4922 71.7422 24.5234C71.7109 24.5703 71.6016 24.6875 71.4141 24.875C71.3359 25 71.1953 25.1719 70.9922 25.3906C70.8047 25.6094 70.6719 25.7656 70.5938 25.8594ZM69.4219 30.4766C69.4219 30.4297 69.5 30.3047 69.6562 30.1016C69.8281 29.9141 69.9609 29.7656 70.0547 29.6562C70.2891 29.3438 70.5703 28.8906 70.8984 28.2969C71.2422 27.7031 71.4375 27.3125 71.4844 27.125C71.5156 27.0312 71.4688 26.9844 71.3438 26.9844C71.0938 26.9844 70.4062 27.0547 69.2812 27.1953C68.5469 27.2891 68 27.3828 67.6406 27.4766C67.5625 27.5234 67.4844 27.5469 67.4062 27.5469C67.2812 27.5469 67.1484 27.4609 67.0078 27.2891C66.9453 27.1797 66.9141 27.0781 66.9141 26.9844C66.9141 26.9219 66.9531 26.8594 67.0312 26.7969L67.1016 26.7031C67.1484 26.6094 67.2031 26.4844 67.2656 26.3281C67.3281 26.1719 67.3828 26.0234 67.4297 25.8828C67.5078 25.6328 67.5625 25.3594 67.5938 25.0625C67.6094 24.8906 67.7031 24.8438 67.875 24.9219C68.0938 25.0312 68.2578 25.1406 68.3672 25.25C68.4922 25.3438 68.5312 25.4141 68.4844 25.4609C68.3281 25.6484 68.2031 25.8594 68.1094 26.0938C68.0312 26.3438 67.9844 26.5078 67.9688 26.5859C67.9688 26.6484 68.0078 26.6797 68.0859 26.6797C68.3203 26.6797 68.6719 26.6406 69.1406 26.5625C69.4062 26.5312 69.7344 26.4922 70.125 26.4453C70.5156 26.3984 70.8281 26.3516 71.0625 26.3047L71.6484 26.1875C71.6953 26.1719 71.7578 26.1641 71.8359 26.1641C71.9141 26.1641 71.9922 26.1953 72.0703 26.2578C72.1484 26.3047 72.2344 26.3672 72.3281 26.4453C72.4844 26.5859 72.5859 26.7031 72.6328 26.7969C72.6797 26.875 72.7031 26.9688 72.7031 27.0781C72.7031 27.1406 72.6562 27.2188 72.5625 27.3125C72.4844 27.4062 72.3906 27.5547 72.2812 27.7578C71.8281 28.6797 71.2422 29.4531 70.5234 30.0781C70.3203 30.2344 70.0938 30.3672 69.8438 30.4766C69.7344 30.5078 69.6328 30.5234 69.5391 30.5234C69.4609 30.5391 69.4219 30.5234 69.4219 30.4766ZM76.9219 19.6484C77.1094 19.6484 77.2031 19.7344 77.2031 19.9062C77.2031 20 77.1172 20.1328 76.9453 20.3047C76.4766 20.8828 75.5469 21.9844 74.1562 23.6094C74.0469 23.75 73.9453 23.8203 73.8516 23.8203C73.7734 23.8203 73.6016 23.7031 73.3359 23.4688C73.1172 23.2812 73.0078 23.125 73.0078 23C73.0078 22.8594 73.125 22.7266 73.3594 22.6016C73.7188 22.3984 74.2578 21.9922 74.9766 21.3828C75.6953 20.7422 76.2266 20.2344 76.5703 19.8594C76.7109 19.7188 76.8281 19.6484 76.9219 19.6484ZM48.9375 23.6328H54.3047V18.875H48.9375V23.6328ZM64.8047 23.6328V25.3438H56.1094V30.8516H54.3047V25.3438H43.2188V23.6328H47.1562V17.1875H54.3047V13.5547H48.4688C47.3906 15.3984 46.1797 16.9688 44.8359 18.2656C44.2109 17.7344 43.6953 17.3594 43.2891 17.1406C44.4141 16.1562 45.4531 14.9297 46.4062 13.4609C47.375 11.9922 48.1406 10.4609 48.7031 8.86719L50.4844 9.28906C50.2656 9.83594 49.8984 10.6797 49.3828 11.8203H63.7031V13.5547H56.1094V17.1875H63.1406V18.875H56.1094V23.6328H64.8047Z" fill="#333333"/>
<path d="M107.414 19.6016C107.305 19.6016 107.188 19.5312 107.062 19.3906C106.969 19.2812 106.906 19.1953 106.875 19.1328C106.844 19.0547 106.844 18.9531 106.875 18.8281L106.898 18.2656C106.914 18.1562 106.922 17.8906 106.922 17.4688V16.6953L106.219 17.0234L105.398 17.375C105.195 17.4531 104.984 17.5469 104.766 17.6562C104.578 17.75 104.414 17.7969 104.273 17.7969C104.164 17.7812 104.039 17.7422 103.898 17.6797C103.758 17.6172 103.648 17.5625 103.57 17.5156C103.398 17.4062 103.32 17.2891 103.336 17.1641L103.406 16.9297C103.406 16.8047 103.414 16.6953 103.43 16.6016L103.453 15.2422V13.9766C103.453 13.7266 103.438 13.5156 103.406 13.3438C103.375 13.1562 103.352 13.0234 103.336 12.9453C103.336 12.8672 103.359 12.8125 103.406 12.7812C103.422 12.7656 103.461 12.7578 103.523 12.7578C103.633 12.7578 103.844 12.8281 104.156 12.9688C104.422 13.0938 104.531 13.25 104.484 13.4375C104.453 13.5469 104.422 13.7109 104.391 13.9297L104.32 16.625C104.32 16.7031 104.328 16.7656 104.344 16.8125C104.375 16.8438 104.406 16.8594 104.438 16.8594C104.625 16.8594 104.852 16.8047 105.117 16.6953C105.617 16.5391 106.047 16.3828 106.406 16.2266L106.922 16.0156V14.4688C106.922 13.8438 106.883 13.2422 106.805 12.6641C106.789 12.6172 106.781 12.5625 106.781 12.5C106.781 12.3438 106.844 12.2656 106.969 12.2656C106.984 12.2656 107.07 12.2969 107.227 12.3594C107.461 12.4844 107.633 12.5938 107.742 12.6875C107.852 12.7812 107.914 12.8359 107.93 12.8516C107.992 12.8984 108.023 12.9453 108.023 12.9922C108.023 13.0234 108.008 13.0625 107.977 13.1094C107.961 13.1562 107.945 13.1953 107.93 13.2266L107.859 13.9297L107.836 16.0859L107.859 18.1719C107.859 18.5312 107.836 18.8438 107.789 19.1094C107.711 19.4375 107.586 19.6016 107.414 19.6016ZM103.102 24.8516C102.93 24.8516 102.719 24.7188 102.469 24.4531C102.281 24.2656 102.188 24.125 102.188 24.0312C102.188 23.9844 102.219 23.9609 102.281 23.9609C102.344 23.9453 102.422 23.9375 102.516 23.9375L103.031 23.9141C103.328 23.9141 103.523 23.9062 103.617 23.8906C103.914 23.8906 104.164 23.8828 104.367 23.8672C105.711 23.7422 106.617 23.6406 107.086 23.5625C107.32 23.5312 107.531 23.5 107.719 23.4688C107.906 23.4219 108.055 23.3984 108.164 23.3984C108.383 23.3984 108.602 23.5078 108.82 23.7266C108.992 23.8984 109.078 24.0391 109.078 24.1484C109.078 24.2422 109.023 24.3047 108.914 24.3359C108.836 24.3516 108.375 24.3828 107.531 24.4297C107.062 24.4453 106.484 24.4844 105.797 24.5469C105.109 24.6094 104.508 24.6719 103.992 24.7344C103.898 24.75 103.766 24.7734 103.594 24.8047C103.422 24.8359 103.258 24.8516 103.102 24.8516ZM112.922 17.0703C113.109 17.0703 113.203 17.1562 113.203 17.3281C113.203 17.4219 113.117 17.5547 112.945 17.7266C112.477 18.3047 111.547 19.4062 110.156 21.0312C110.047 21.1719 109.945 21.2422 109.852 21.2422C109.773 21.2422 109.602 21.125 109.336 20.8906C109.117 20.7031 109.008 20.5469 109.008 20.4219C109.008 20.2812 109.125 20.1484 109.359 20.0234C109.719 19.8203 110.258 19.4141 110.977 18.8047C111.695 18.1641 112.227 17.6562 112.57 17.2812C112.711 17.1406 112.828 17.0703 112.922 17.0703ZM88.5469 22.7188L87.1406 23.2578C87.0781 22.8984 86.9609 22.4375 86.7891 21.875C82.7109 22.5156 80.4531 22.9531 80.0156 23.1875C79.875 22.6719 79.6875 22.1172 79.4531 21.5234C79.8125 21.4609 80.4062 20.9375 81.2344 19.9531C81.75 19.375 82.4219 18.4688 83.25 17.2344C81.3906 17.4531 80.2656 17.6484 79.875 17.8203C79.7031 17.2109 79.5078 16.6641 79.2891 16.1797C79.6328 16.1016 80.0859 15.6641 80.6484 14.8672C81.0078 14.3828 81.5078 13.5469 82.1484 12.3594C82.8047 11.1719 83.3516 10 83.7891 8.84375L85.4531 9.54688C84.3438 11.9062 83.1172 14.0234 81.7734 15.8984L84.2812 15.6641C84.7969 14.8516 85.4062 13.7734 86.1094 12.4297L87.6562 13.3438C85.8906 16.4219 84.0859 19 82.2422 21.0781L86.3672 20.4688C86.2891 20.2812 85.9922 19.5547 85.4766 18.2891L86.7656 17.8438C87.6875 19.6875 88.2812 21.3125 88.5469 22.7188ZM80.4375 24.2422L81.8906 24.5234C81.625 26.7891 81.2188 28.7109 80.6719 30.2891C80.5312 30.2109 80.0703 30.0391 79.2891 29.7734C79.7578 28.5859 80.1406 26.7422 80.4375 24.2422ZM83.0156 24.4062L84.3047 24.1484C84.6797 26.1797 84.8984 27.7734 84.9609 28.9297L83.6016 29.2344C83.5234 27.9375 83.3281 26.3281 83.0156 24.4062ZM85.6172 23.9609L86.8828 23.5859C87.5078 25.2578 87.9141 26.5391 88.1016 27.4297L86.7656 27.8984C86.625 27.0391 86.2422 25.7266 85.6172 23.9609ZM98.25 18.4766H93.4453C94.0391 20.7422 94.8281 22.6875 95.8125 24.3125C96.875 22.625 97.6875 20.6797 98.25 18.4766ZM96.375 11.75H92.3906C92.3281 14.0469 92.2656 15.7578 92.2031 16.8828H95.4844C95.875 14.8359 96.1719 13.125 96.375 11.75ZM99.1641 16.8125L100.266 17.1875C99.625 20.6094 98.4922 23.5078 96.8672 25.8828C98.0703 27.3984 99.4766 28.5156 101.086 29.2344C100.602 29.625 100.195 30.125 99.8672 30.7344C98.3516 29.9688 96.9922 28.8203 95.7891 27.2891C94.5078 28.8047 93.0938 29.9922 91.5469 30.8516C91.2344 30.2734 90.8516 29.8281 90.3984 29.5156C92.0547 28.6406 93.5078 27.4062 94.7578 25.8125C93.6328 23.9531 92.7266 21.6875 92.0391 19.0156C91.5547 24.1406 90.3672 28.0312 88.4766 30.6875C88.0391 30.25 87.5234 29.8828 86.9297 29.5859C88.3828 27.7734 89.3516 25.4609 89.8359 22.6484C90.3359 19.8359 90.6094 16.2031 90.6562 11.75H88.2891V10.0625H96.7734L97.0547 9.96875L98.2734 10.1562C97.9766 12.4375 97.6094 14.6797 97.1719 16.8828H98.8594L99.1641 16.8125Z" fill="#333333"/>
</svg>
