<svg width="160" height="50" viewBox="0 0 160 50" fill="none" xmlns="http://www.w3.org/2000/svg">
<path d="M58.34 25.2852C58.1317 25.2852 58.008 25.181 57.9689 24.9727C57.8908 24.7513 57.6825 24.4779 57.3439 24.1523L57.4025 24.0742C57.4546 24.1003 57.6043 24.1654 57.8517 24.2695C58.0991 24.3607 58.2684 24.4062 58.3595 24.4062C58.4377 24.4062 58.4963 24.4062 58.5353 24.4062C58.5744 24.3932 58.62 24.3607 58.672 24.3086C58.8283 24.1914 59.0236 23.9245 59.258 23.5078C59.4273 23.1693 59.577 22.7721 59.7072 22.3164C59.8504 21.8607 59.922 21.5156 59.922 21.2812C59.922 21.2161 59.87 21.1836 59.7658 21.1836L59.0236 21.2227L58.5158 21.2617L58.1838 21.2812L58.047 21.3008C58.1382 21.3659 58.1968 21.4245 58.2228 21.4766C58.2619 21.5156 58.2814 21.5677 58.2814 21.6328C58.2814 21.6979 58.2033 21.8802 58.047 22.1797C57.9168 22.4661 57.7085 22.7917 57.422 23.1562C57.1877 23.4688 56.8687 23.8073 56.465 24.1719C56.0744 24.5234 55.7814 24.7057 55.5861 24.7188C55.547 24.7188 55.508 24.7122 55.4689 24.6992C55.4429 24.6732 55.4299 24.6406 55.4299 24.6016C55.4299 24.5885 55.534 24.4648 55.7424 24.2305L56.2892 23.5859C56.6799 23.0651 57.077 22.401 57.4806 21.5938C57.5197 21.4896 57.5002 21.431 57.422 21.418C57.3439 21.431 57.1812 21.4505 56.9338 21.4766C56.6864 21.4896 56.465 21.5286 56.2697 21.5938C56.2567 21.5938 56.2111 21.6133 56.133 21.6523C56.0549 21.6784 55.9898 21.6914 55.9377 21.6914C55.8595 21.6914 55.7944 21.6654 55.7424 21.6133L55.5861 21.4766C55.4689 21.3854 55.4103 21.3008 55.4103 21.2227C55.4103 21.1966 55.4233 21.1576 55.4494 21.1055L55.547 20.9492C55.5991 20.8841 55.6838 20.7799 55.801 20.6367C55.9181 20.4935 56.0483 20.2982 56.1916 20.0508C56.2176 19.9987 56.2697 19.8815 56.3478 19.6992C56.439 19.5169 56.4845 19.4062 56.4845 19.3672V19.2891C56.4845 19.2109 56.4976 19.1589 56.5236 19.1328C56.5497 19.1068 56.6082 19.1068 56.6994 19.1328C56.7905 19.1589 56.9012 19.2305 57.0314 19.3477L57.2463 19.5625C57.2853 19.6016 57.3049 19.6471 57.3049 19.6992C57.3049 19.8294 57.1226 20.0638 56.758 20.4023C56.6929 20.4674 56.6148 20.5651 56.5236 20.6953C56.4325 20.8255 56.3869 20.9102 56.3869 20.9492C56.3869 21.0273 56.4455 21.0534 56.5627 21.0273L57.0119 20.9688C58.0405 20.8125 58.8153 20.7214 59.3361 20.6953L59.8635 20.6172L60.0392 20.5781L60.1369 20.5586C60.2411 20.5586 60.3127 20.5716 60.3517 20.5977C60.3908 20.6237 60.4299 20.6693 60.4689 20.7344C60.508 20.7865 60.547 20.832 60.5861 20.8711C60.6773 20.9753 60.7424 21.0664 60.7814 21.1445L60.8205 21.3203L60.7814 21.3984L60.7424 21.5156C60.7163 21.5807 60.6968 21.6458 60.6838 21.7109C60.6707 21.763 60.6512 21.8216 60.6252 21.8867C60.3517 22.9414 60.0327 23.7617 59.6681 24.3477C59.551 24.556 59.3491 24.7643 59.0627 24.9727C58.7892 25.181 58.5483 25.2852 58.34 25.2852ZM55.9181 29.543C55.7749 29.543 55.5991 29.4323 55.3908 29.2109C55.2345 29.0547 55.1564 28.9375 55.1564 28.8594C55.1564 28.8203 55.1825 28.8008 55.2345 28.8008C55.2866 28.7878 55.3517 28.7812 55.4299 28.7812L55.8595 28.7617C56.1069 28.7617 56.2697 28.7552 56.3478 28.7422C56.5952 28.7422 56.8036 28.7357 56.9728 28.7227C58.0926 28.6185 58.8478 28.5339 59.2385 28.4688C59.4338 28.4427 59.6095 28.4167 59.7658 28.3906C59.922 28.3516 60.0457 28.332 60.1369 28.332C60.3192 28.332 60.5015 28.4232 60.6838 28.6055C60.827 28.7487 60.8986 28.8659 60.8986 28.957C60.8986 29.0352 60.853 29.0872 60.7619 29.1133C60.6968 29.1263 60.3127 29.1523 59.6095 29.1914C59.2189 29.2044 58.7372 29.237 58.1642 29.2891C57.5913 29.3411 57.09 29.3932 56.6603 29.4453C56.5822 29.4583 56.4715 29.4779 56.3283 29.5039C56.1851 29.5299 56.0483 29.543 55.9181 29.543ZM61.6017 24.6211C61.6668 24.6211 61.7645 24.6667 61.8947 24.7578C61.8817 24.7839 61.9077 24.8359 61.9728 24.9141C62.0379 24.9792 62.0835 25.0247 62.1095 25.0508C62.1747 25.1159 62.2398 25.194 62.3049 25.2852C62.383 25.3763 62.4676 25.474 62.5588 25.5781C62.7931 25.8255 63.3335 26.4701 64.1799 27.5117C64.3231 27.7201 64.3947 27.8438 64.3947 27.8828C64.3947 28.013 64.3166 28.0781 64.1603 28.0781C64.0692 28.0781 63.9715 28.013 63.8674 27.8828C63.62 27.6224 63.1773 27.2122 62.5392 26.6523C62.0444 26.1966 61.5952 25.8451 61.1916 25.5977C60.9963 25.5065 60.8986 25.4023 60.8986 25.2852C60.8986 25.194 60.9963 25.0638 61.1916 24.8945C61.3739 24.7122 61.5106 24.6211 61.6017 24.6211ZM44.7658 34.4844C44.297 34.4844 44.0627 34.25 44.0627 33.7812V29.8945C43.2293 30.7409 42.2137 31.5286 41.0158 32.2578C39.87 32.9609 38.6916 33.5339 37.4806 33.9766C37.103 34.1068 36.797 34.0221 36.5627 33.7227C36.1981 33.2409 36.3153 32.9154 36.9142 32.7461C39.258 31.9258 41.2176 30.8255 42.7931 29.4453H38.9845C38.9845 29.4714 38.978 29.4844 38.965 29.4844C38.8478 29.888 38.5809 30.0638 38.1642 30.0117C37.6434 29.9336 37.4546 29.6797 37.5978 29.25C37.8713 28.3125 38.1382 27.2708 38.3986 26.125C38.4637 25.8385 38.6004 25.6107 38.8088 25.4414C39.0301 25.2591 39.2905 25.168 39.59 25.168H44.0627V23.1953H38.2619C37.8582 23.1953 37.6564 22.987 37.6564 22.5703C37.6564 22.1667 37.8582 21.9648 38.2619 21.9648H44.6681H50.547C50.8856 21.9648 51.159 22.069 51.3674 22.2773C51.5757 22.4857 51.6799 22.7591 51.6799 23.0977V25.2656C51.6799 25.6042 51.5757 25.8776 51.3674 26.0859C51.159 26.2943 50.8856 26.3984 50.547 26.3984H45.4689V28.1953H51.6408C52.422 28.1953 52.7411 28.8464 52.5978 30.1484C52.3895 31.7891 52.103 32.7917 51.7385 33.1562C51.465 33.4557 51.0614 33.612 50.5275 33.625C50.0067 33.651 49.4793 33.6576 48.9455 33.6445C48.3726 33.6315 48.047 33.3841 47.9689 32.9023V32.8828L47.9494 32.8633C47.7801 32.4857 47.9624 32.3164 48.4963 32.3555C48.9129 32.3685 49.3817 32.375 49.9025 32.375C50.2541 32.375 50.4819 32.3294 50.5861 32.2383C50.8335 31.9909 51.0353 31.2878 51.1916 30.1289C51.2176 29.8685 51.2046 29.6927 51.1525 29.6016C51.1004 29.4974 51.0028 29.4453 50.8595 29.4453H45.4689V33.7812C45.4689 34.25 45.2345 34.4844 44.7658 34.4844ZM39.3166 28.1953H41.6799H44.0627V26.3984H39.7463C39.6942 26.6328 39.6095 26.9779 39.4924 27.4336C39.4142 27.7721 39.3556 28.026 39.3166 28.1953ZM45.4689 25.168H49.8635C50.1369 25.168 50.2736 25.0312 50.2736 24.7578V23.6055C50.2736 23.332 50.1369 23.1953 49.8635 23.1953H47.8713H45.4689V25.168ZM37.383 21.4766C37.0965 21.776 36.7905 21.8151 36.465 21.5938C36.2306 21.4375 36.1004 21.2812 36.0744 21.125C36.0614 20.9688 36.159 20.7865 36.3674 20.5781C37.2137 19.6146 37.9103 18.4818 38.4572 17.1797C38.6135 16.776 38.9064 16.6328 39.3361 16.75C39.8049 16.8672 39.9546 17.1471 39.7853 17.5898C39.6942 17.8372 39.577 18.0911 39.4338 18.3516H41.9533H43.9064C44.297 18.3516 44.4924 18.5469 44.4924 18.9375C44.4924 19.3281 44.297 19.5234 43.9064 19.5234H40.9572C41.1916 19.9792 41.3739 20.4023 41.5041 20.793C41.6082 21.1315 41.4715 21.3789 41.0939 21.5352C40.8595 21.6263 40.6773 21.6523 40.547 21.6133C40.4038 21.5612 40.2997 21.4245 40.2345 21.2031C40.0523 20.6432 39.8244 20.0833 39.551 19.5234H38.7892C38.3075 20.2917 37.8387 20.9427 37.383 21.4766ZM49.6486 21.5938C49.2319 21.776 48.9455 21.6849 48.7892 21.3203C48.4637 20.6823 48.0861 20.0833 47.6564 19.5234H46.2697C45.801 20.2266 45.2866 20.8581 44.7267 21.418C44.4273 21.7044 44.1148 21.7305 43.7892 21.4961C43.3465 21.1706 43.34 20.819 43.7697 20.4414C44.7332 19.5039 45.4754 18.4232 45.9963 17.1992C46.1786 16.7695 46.478 16.6133 46.8947 16.7305C47.3895 16.8477 47.5392 17.1471 47.3439 17.6289C47.3309 17.668 47.3049 17.7266 47.2658 17.8047C47.1356 18.0521 47.0379 18.2344 46.9728 18.3516H50.215H52.8908C53.2814 18.3516 53.4767 18.5469 53.4767 18.9375C53.4767 19.3281 53.2814 19.5234 52.8908 19.5234H49.1799C49.5054 19.9661 49.7853 20.3958 50.0197 20.8125C50.1108 21.0078 50.1239 21.1641 50.0588 21.2812C50.0067 21.3984 49.87 21.5026 49.6486 21.5938Z" fill="#333333"/>
<path d="M85.3713 29.0938C85.2801 29.0938 85.2215 29.0872 85.1955 29.0742C85.1825 29.0482 85.202 29.0026 85.2541 28.9375C85.4364 28.7682 85.5796 28.6055 85.6838 28.4492C85.801 28.2799 85.9247 28.013 86.0549 27.6484C86.2632 27.0495 86.3674 26.5872 86.3674 26.2617C86.3674 25.9622 86.3478 25.6888 86.3088 25.4414V25.3828C86.3088 25.2396 86.3999 25.194 86.5822 25.2461C86.7385 25.2852 86.9142 25.3372 87.1095 25.4023C87.1486 25.3893 87.2072 25.3828 87.2853 25.3828C87.3635 25.3698 87.4872 25.3503 87.6564 25.3242C88.0991 25.2591 88.672 25.194 89.3752 25.1289C89.3752 25.0768 89.4273 24.8945 89.5314 24.582L89.6486 24.1523C89.7007 23.9701 89.6812 23.8789 89.59 23.8789C89.3296 23.8789 88.7241 23.944 87.7736 24.0742L86.7385 24.25C86.6473 24.263 86.5301 24.224 86.3869 24.1328C86.2567 24.0417 86.1525 23.9375 86.0744 23.8203C86.0093 23.7031 86.0223 23.625 86.1135 23.5859C86.2176 23.5208 86.3218 23.4883 86.426 23.4883C86.5301 23.4883 86.5952 23.4883 86.6213 23.4883H86.8752L88.1642 23.4492L89.4142 23.293C89.4793 23.2799 89.5575 23.2604 89.6486 23.2344C89.7528 23.1953 89.8504 23.1693 89.9416 23.1562C90.0718 23.1302 90.2931 23.2734 90.6056 23.5859C90.6577 23.638 90.6838 23.6966 90.6838 23.7617C90.6838 23.8398 90.6317 23.918 90.5275 23.9961C90.3843 24.1393 90.2931 24.263 90.2541 24.3672C90.2411 24.4323 90.215 24.5299 90.176 24.6602C90.1369 24.7773 90.0978 24.9271 90.0588 25.1094C90.1369 25.2005 90.176 25.3112 90.176 25.4414C90.176 25.5456 90.1434 25.6237 90.0783 25.6758C90.0262 25.7148 89.9155 25.7344 89.7463 25.7344C89.1603 25.7734 88.6981 25.8125 88.3595 25.8516C88.021 25.8776 87.6108 25.9427 87.1291 26.0469C87.077 26.6328 86.9598 27.1732 86.7775 27.668C86.5952 28.1497 86.3413 28.5143 86.0158 28.7617C85.7033 28.9831 85.4885 29.0938 85.3713 29.0938ZM94.1017 20.1289C94.258 20.1289 94.3361 20.2005 94.3361 20.3438C94.3361 20.4219 94.2645 20.5326 94.1213 20.6758C93.7306 21.1576 92.9559 22.0755 91.797 23.4297C91.7059 23.5469 91.6213 23.6055 91.5431 23.6055C91.478 23.6055 91.3348 23.5078 91.1135 23.3125C90.9312 23.1562 90.84 23.026 90.84 22.9219C90.84 22.8047 90.9377 22.694 91.133 22.5898C91.4325 22.4206 91.8817 22.082 92.4806 21.5742C93.0796 21.0404 93.5223 20.6172 93.8088 20.3047C93.926 20.1875 94.0236 20.1289 94.1017 20.1289ZM74.8049 34.4844C74.284 34.4844 74.0236 34.2305 74.0236 33.7227V25.4023H66.9728C66.478 25.4023 66.2306 25.1549 66.2306 24.6602C66.2306 24.1654 66.478 23.918 66.9728 23.918H74.0236V17.4531C74.0236 16.9453 74.284 16.6914 74.8049 16.6914C75.3127 16.6914 75.5666 16.9453 75.5666 17.4531V23.918H79.5119H82.715C83.2098 23.918 83.4572 24.1654 83.4572 24.6602C83.4572 25.1549 83.2098 25.4023 82.715 25.4023H75.5666V33.7227C75.5666 34.2305 75.3127 34.4844 74.8049 34.4844Z" fill="#333333"/>
<path d="M118.067 25.207C117.884 25.207 117.748 25.1484 117.656 25.0312C117.539 24.8099 117.298 24.569 116.934 24.3086L116.973 24.2109C117.376 24.3802 117.715 24.4648 117.988 24.4648C118.158 24.4648 118.301 24.3672 118.418 24.1719C118.548 23.9635 118.685 23.6641 118.828 23.2734C118.998 22.7917 119.089 22.388 119.102 22.0625C119.102 22.0234 119.082 21.9909 119.043 21.9648C119.004 21.9258 118.972 21.9062 118.945 21.9062C118.828 21.8932 118.607 21.9128 118.281 21.9648L117.871 22.0234C117.754 22.0365 117.617 22.0625 117.461 22.1016C117.318 22.1406 117.201 22.1667 117.11 22.1797C117.057 22.1927 116.973 22.2188 116.856 22.2578C116.738 22.2969 116.654 22.3164 116.602 22.3164C116.537 22.3164 116.459 22.2839 116.367 22.2188C116.289 22.1406 116.218 22.056 116.153 21.9648C116.139 21.9518 116.133 21.9258 116.133 21.8867C116.133 21.8346 116.172 21.7695 116.25 21.6914C116.341 21.6003 116.413 21.5286 116.465 21.4766C116.53 21.3984 116.595 21.3073 116.66 21.2031C116.725 21.0859 116.778 21.0013 116.817 20.9492C116.882 20.8451 116.934 20.7214 116.973 20.5781L117.012 20.4023C117.012 20.3893 117.005 20.3568 116.992 20.3047C116.979 20.2396 116.953 20.207 116.914 20.207C116.393 20.2721 116.009 20.3503 115.762 20.4414C115.71 20.4674 115.632 20.4935 115.528 20.5195C115.436 20.5195 115.358 20.4805 115.293 20.4023C115.254 20.3893 115.176 20.2852 115.059 20.0898C115.007 20.0378 114.981 19.9922 114.981 19.9531C114.981 19.862 115.117 19.8099 115.391 19.7969L115.762 19.7578C115.827 19.7578 115.964 19.7448 116.172 19.7188C116.589 19.6797 117.168 19.6341 117.91 19.582C118.171 19.569 118.62 19.5365 119.258 19.4844C119.44 19.4714 119.662 19.4453 119.922 19.4062C120.065 19.3672 120.156 19.3477 120.195 19.3477C120.261 19.3477 120.326 19.3737 120.391 19.4258C120.456 19.4518 120.541 19.5039 120.645 19.582C120.749 19.6471 120.827 19.7188 120.879 19.7969C120.931 19.862 120.957 19.9271 120.957 19.9922C120.957 20.0573 120.925 20.1029 120.86 20.1289C120.794 20.1549 120.71 20.1549 120.606 20.1289C120.449 20.0898 120.267 20.0638 120.059 20.0508C119.863 20.0378 119.746 20.0312 119.707 20.0312C119.264 20.0182 118.711 20.0378 118.047 20.0898C117.865 20.1159 117.728 20.1289 117.637 20.1289C117.715 20.194 117.787 20.2982 117.852 20.4414V20.4805C117.852 20.5195 117.832 20.5716 117.793 20.6367C117.754 20.7018 117.709 20.7474 117.656 20.7734C117.591 20.8125 117.513 20.9036 117.422 21.0469C117.331 21.1901 117.272 21.2812 117.246 21.3203C117.168 21.4245 117.129 21.5091 117.129 21.5742C117.129 21.6263 117.181 21.6458 117.285 21.6328C117.376 21.6198 117.565 21.5938 117.852 21.5547C118.151 21.5026 118.373 21.457 118.516 21.418C118.555 21.4049 118.613 21.3919 118.692 21.3789C118.783 21.3659 118.887 21.3398 119.004 21.3008C119.095 21.2878 119.186 21.3073 119.278 21.3594C119.382 21.4115 119.538 21.5221 119.746 21.6914C119.903 21.8086 119.981 21.9128 119.981 22.0039C119.981 22.069 119.955 22.1341 119.903 22.1992C119.85 22.2904 119.811 22.4141 119.785 22.5703C119.668 23.1172 119.531 23.5599 119.375 23.8984C119.258 24.1328 119.147 24.3281 119.043 24.4844C118.939 24.6276 118.809 24.7708 118.653 24.9141C118.483 25.1094 118.288 25.207 118.067 25.207ZM118.203 32.0234C117.578 32.0234 117.057 31.8672 116.641 31.5547C116.211 31.2031 115.996 30.793 115.996 30.3242C115.996 29.9596 116.133 29.6406 116.406 29.3672C116.758 29.0677 117.201 28.918 117.735 28.918C117.761 28.918 117.78 28.8919 117.793 28.8398C117.819 28.7747 117.832 28.6901 117.832 28.5859L117.852 28.0781C117.761 28.0911 117.585 28.1107 117.324 28.1367C117.077 28.1628 116.895 28.1888 116.778 28.2148C116.843 28.2018 116.641 28.2474 116.172 28.3516C116.133 28.3646 116.061 28.3711 115.957 28.3711C115.71 28.3711 115.501 28.2604 115.332 28.0391C115.254 27.9609 115.215 27.8958 115.215 27.8438C115.215 27.7656 115.332 27.7266 115.567 27.7266L116.172 27.6875L117.832 27.4727V27.2383V26.75C117.819 26.6979 117.813 26.6393 117.813 26.5742C117.813 26.5091 117.806 26.457 117.793 26.418C117.767 26.3138 117.754 26.2487 117.754 26.2227C117.754 26.1315 117.8 26.0859 117.891 26.0859C118.008 26.0859 118.21 26.1706 118.496 26.3398C118.587 26.3919 118.633 26.4635 118.633 26.5547C118.633 26.6198 118.62 26.6784 118.594 26.7305C118.581 26.7695 118.574 26.8151 118.574 26.8672V27.4141L119.16 27.3555L119.883 27.2773C119.948 27.2643 120.02 27.2448 120.098 27.2188C120.189 27.1927 120.261 27.1797 120.313 27.1797C120.391 27.1797 120.488 27.2188 120.606 27.2969C120.827 27.4401 120.938 27.5638 120.938 27.668C120.938 27.7721 120.827 27.8242 120.606 27.8242C120.541 27.8242 120.449 27.8372 120.332 27.8633C120.215 27.8763 120.065 27.8893 119.883 27.9023L118.574 28L118.555 29.1914C118.529 29.3867 118.386 29.5104 118.125 29.5625H118.086C118.008 29.5625 117.93 29.556 117.852 29.543C117.787 29.5169 117.735 29.5039 117.695 29.5039C117.591 29.5039 117.487 29.5104 117.383 29.5234C117.279 29.5365 117.188 29.5755 117.11 29.6406C116.888 29.8359 116.778 30.0638 116.778 30.3242C116.778 30.5846 116.901 30.819 117.149 31.0273C117.37 31.2357 117.722 31.3398 118.203 31.3398C118.841 31.3138 119.362 31.138 119.766 30.8125C119.935 30.6953 120.065 30.6367 120.156 30.6367C120.209 30.6367 120.274 30.6497 120.352 30.6758C120.365 30.6888 120.391 30.7148 120.43 30.7539C120.469 30.793 120.488 30.832 120.488 30.8711C120.488 31.2357 120.182 31.5352 119.57 31.7695C119.115 31.9388 118.659 32.0234 118.203 32.0234ZM121.602 24.6211C121.667 24.6211 121.764 24.6667 121.895 24.7578C121.882 24.7839 121.908 24.8359 121.973 24.9141C122.038 24.9792 122.084 25.0247 122.11 25.0508C122.175 25.1159 122.24 25.194 122.305 25.2852C122.383 25.3763 122.468 25.474 122.559 25.5781C122.793 25.8255 123.334 26.4701 124.18 27.5117C124.323 27.7201 124.395 27.8438 124.395 27.8828C124.395 28.013 124.317 28.0781 124.16 28.0781C124.069 28.0781 123.972 28.013 123.867 27.8828C123.62 27.6224 123.177 27.2122 122.539 26.6523C122.044 26.1966 121.595 25.8451 121.192 25.5977C120.996 25.5065 120.899 25.4023 120.899 25.2852C120.899 25.194 120.996 25.0638 121.192 24.8945C121.374 24.7122 121.511 24.6211 121.602 24.6211ZM108.184 34.4648C107.715 34.4648 107.481 34.237 107.481 33.7812V29.0742C106.413 30.8451 105.195 32.2383 103.828 33.2539C103.633 33.3841 103.464 33.4362 103.32 33.4102C103.177 33.3971 103.028 33.2995 102.871 33.1172C102.676 32.8958 102.591 32.707 102.617 32.5508C102.643 32.3945 102.787 32.2383 103.047 32.082C103.763 31.5872 104.453 30.9753 105.117 30.2461C105.781 29.5169 106.341 28.7552 106.797 27.9609H103.613C103.184 27.9609 102.969 27.7396 102.969 27.2969C102.969 26.8672 103.184 26.6523 103.613 26.6523H107.481V25.0312H104.824C104.486 25.0312 104.212 24.9271 104.004 24.7188C103.796 24.5104 103.692 24.237 103.692 23.8984V18.6055C103.692 18.2669 103.796 17.9935 104.004 17.7852C104.212 17.5768 104.486 17.4727 104.824 17.4727H108.223H111.621C111.96 17.4727 112.233 17.5768 112.442 17.7852C112.65 17.9935 112.754 18.2669 112.754 18.6055V23.8984C112.754 24.237 112.65 24.5104 112.442 24.7188C112.233 24.9271 111.96 25.0312 111.621 25.0312H108.867V26.6523H112.695C113.125 26.6523 113.34 26.8672 113.34 27.2969C113.34 27.7396 113.125 27.9609 112.695 27.9609H109.59C110.033 28.6901 110.573 29.4128 111.211 30.1289C111.849 30.832 112.494 31.431 113.145 31.9258C113.392 32.0951 113.522 32.2578 113.535 32.4141C113.548 32.5573 113.457 32.7396 113.262 32.9609C113.093 33.1432 112.936 33.2409 112.793 33.2539C112.663 33.2799 112.5 33.2148 112.305 33.0586C110.99 31.9648 109.844 30.5977 108.867 28.957V33.7812C108.867 34.237 108.639 34.4648 108.184 34.4648ZM97.8713 33.3711C97.5327 33.3711 97.2593 33.2669 97.051 33.0586C96.8426 32.8503 96.7385 32.5768 96.7385 32.2383V28.8594C96.7385 28.5208 96.8426 28.2474 97.051 28.0391C97.2593 27.8307 97.5327 27.7266 97.8713 27.7266H99.4728H101.094C101.432 27.7266 101.706 27.8307 101.914 28.0391C102.123 28.2474 102.227 28.5208 102.227 28.8594V32.2383C102.227 32.5768 102.123 32.8503 101.914 33.0586C101.706 33.2669 101.432 33.3711 101.094 33.3711H97.8713ZM98.3791 32.1992H99.4728H100.586C100.86 32.1992 100.996 32.0625 100.996 31.7891V29.3281C100.996 29.0547 100.86 28.918 100.586 28.918H98.3791C98.1056 28.918 97.9689 29.0547 97.9689 29.3281V31.7891C97.9689 32.0625 98.1056 32.1992 98.3791 32.1992ZM97.3439 26.2812C96.9533 26.2812 96.758 26.0859 96.758 25.6953C96.758 25.3047 96.9533 25.1094 97.3439 25.1094H101.621C102.012 25.1094 102.207 25.3047 102.207 25.6953C102.207 26.0859 102.012 26.2812 101.621 26.2812H99.4728H97.3439ZM105.391 23.8398H107.539V21.8281H106.25H104.981V23.4297C104.981 23.7031 105.117 23.8398 105.391 23.8398ZM108.789 23.8398H110.098H111.016C111.289 23.8398 111.426 23.7031 111.426 23.4297V21.8281H108.789V23.8398ZM97.3244 23.6836C96.9468 23.6836 96.758 23.4883 96.758 23.0977C96.758 22.7201 96.9468 22.5312 97.3244 22.5312H99.4728H101.641C102.018 22.5312 102.207 22.7201 102.207 23.0977C102.207 23.4883 102.018 23.6836 101.641 23.6836H97.3244ZM96.5041 21.0859C96.1135 21.0859 95.9181 20.8841 95.9181 20.4805C95.9181 20.0898 96.1135 19.8945 96.5041 19.8945H99.3166H102.129C102.52 19.8945 102.715 20.0898 102.715 20.4805C102.715 20.8841 102.52 21.0859 102.129 21.0859H96.5041ZM104.981 20.6562H107.539V18.6641H106.25H105.391C105.117 18.6641 104.981 18.8008 104.981 19.0742V20.6562ZM108.789 20.6562H110.098H111.426V19.0742C111.426 18.8008 111.289 18.6641 111.016 18.6641H108.789V20.6562ZM97.4416 18.5078C97.051 18.5078 96.8556 18.3125 96.8556 17.9219C96.8556 17.5312 97.051 17.3359 97.4416 17.3359H99.4924H101.563C101.953 17.3359 102.149 17.5312 102.149 17.9219C102.149 18.3125 101.953 18.5078 101.563 18.5078H97.4416Z" fill="#333333"/>
</svg>
