<svg width="160" height="50" viewBox="0 0 160 50" fill="none" xmlns="http://www.w3.org/2000/svg">
<path d="M43.34 25.2852C43.1317 25.2852 43.008 25.181 42.9689 24.9727C42.8908 24.7513 42.6825 24.4779 42.3439 24.1523L42.4025 24.0742C42.4546 24.1003 42.6043 24.1654 42.8517 24.2695C43.0991 24.3607 43.2684 24.4062 43.3595 24.4062C43.4377 24.4062 43.4963 24.4062 43.5353 24.4062C43.5744 24.3932 43.62 24.3607 43.672 24.3086C43.8283 24.1914 44.0236 23.9245 44.258 23.5078C44.4273 23.1693 44.577 22.7721 44.7072 22.3164C44.8504 21.8607 44.922 21.5156 44.922 21.2812C44.922 21.2161 44.87 21.1836 44.7658 21.1836L44.0236 21.2227L43.5158 21.2617L43.1838 21.2812L43.047 21.3008C43.1382 21.3659 43.1968 21.4245 43.2228 21.4766C43.2619 21.5156 43.2814 21.5677 43.2814 21.6328C43.2814 21.6979 43.2033 21.8802 43.047 22.1797C42.9168 22.4661 42.7085 22.7917 42.422 23.1562C42.1877 23.4688 41.8687 23.8073 41.465 24.1719C41.0744 24.5234 40.7814 24.7057 40.5861 24.7188C40.547 24.7188 40.508 24.7122 40.4689 24.6992C40.4429 24.6732 40.4299 24.6406 40.4299 24.6016C40.4299 24.5885 40.534 24.4648 40.7424 24.2305L41.2892 23.5859C41.6799 23.0651 42.077 22.401 42.4806 21.5938C42.5197 21.4896 42.5002 21.431 42.422 21.418C42.3439 21.431 42.1812 21.4505 41.9338 21.4766C41.6864 21.4896 41.465 21.5286 41.2697 21.5938C41.2567 21.5938 41.2111 21.6133 41.133 21.6523C41.0549 21.6784 40.9898 21.6914 40.9377 21.6914C40.8595 21.6914 40.7944 21.6654 40.7424 21.6133L40.5861 21.4766C40.4689 21.3854 40.4103 21.3008 40.4103 21.2227C40.4103 21.1966 40.4233 21.1576 40.4494 21.1055L40.547 20.9492C40.5991 20.8841 40.6838 20.7799 40.801 20.6367C40.9181 20.4935 41.0483 20.2982 41.1916 20.0508C41.2176 19.9987 41.2697 19.8815 41.3478 19.6992C41.439 19.5169 41.4845 19.4062 41.4845 19.3672V19.2891C41.4845 19.2109 41.4976 19.1589 41.5236 19.1328C41.5497 19.1068 41.6082 19.1068 41.6994 19.1328C41.7905 19.1589 41.9012 19.2305 42.0314 19.3477L42.2463 19.5625C42.2853 19.6016 42.3049 19.6471 42.3049 19.6992C42.3049 19.8294 42.1226 20.0638 41.758 20.4023C41.6929 20.4674 41.6148 20.5651 41.5236 20.6953C41.4325 20.8255 41.3869 20.9102 41.3869 20.9492C41.3869 21.0273 41.4455 21.0534 41.5627 21.0273L42.0119 20.9688C43.0405 20.8125 43.8153 20.7214 44.3361 20.6953L44.8635 20.6172L45.0392 20.5781L45.1369 20.5586C45.2411 20.5586 45.3127 20.5716 45.3517 20.5977C45.3908 20.6237 45.4299 20.6693 45.4689 20.7344C45.508 20.7865 45.547 20.832 45.5861 20.8711C45.6773 20.9753 45.7424 21.0664 45.7814 21.1445L45.8205 21.3203L45.7814 21.3984L45.7424 21.5156C45.7163 21.5807 45.6968 21.6458 45.6838 21.7109C45.6707 21.763 45.6512 21.8216 45.6252 21.8867C45.3517 22.9414 45.0327 23.7617 44.6681 24.3477C44.551 24.556 44.3491 24.7643 44.0627 24.9727C43.7892 25.181 43.5483 25.2852 43.34 25.2852ZM40.9181 29.543C40.7749 29.543 40.5991 29.4323 40.3908 29.2109C40.2345 29.0547 40.1564 28.9375 40.1564 28.8594C40.1564 28.8203 40.1825 28.8008 40.2345 28.8008C40.2866 28.7878 40.3517 28.7812 40.4299 28.7812L40.8595 28.7617C41.1069 28.7617 41.2697 28.7552 41.3478 28.7422C41.5952 28.7422 41.8036 28.7357 41.9728 28.7227C43.0926 28.6185 43.8478 28.5339 44.2385 28.4688C44.4338 28.4427 44.6095 28.4167 44.7658 28.3906C44.922 28.3516 45.0457 28.332 45.1369 28.332C45.3192 28.332 45.5015 28.4232 45.6838 28.6055C45.827 28.7487 45.8986 28.8659 45.8986 28.957C45.8986 29.0352 45.853 29.0872 45.7619 29.1133C45.6968 29.1263 45.3127 29.1523 44.6095 29.1914C44.2189 29.2044 43.7372 29.237 43.1642 29.2891C42.5913 29.3411 42.09 29.3932 41.6603 29.4453C41.5822 29.4583 41.4715 29.4779 41.3283 29.5039C41.1851 29.5299 41.0483 29.543 40.9181 29.543ZM46.6017 24.6211C46.6668 24.6211 46.7645 24.6667 46.8947 24.7578C46.8817 24.7839 46.9077 24.8359 46.9728 24.9141C47.0379 24.9792 47.0835 25.0247 47.1095 25.0508C47.1747 25.1159 47.2398 25.194 47.3049 25.2852C47.383 25.3763 47.4676 25.474 47.5588 25.5781C47.7931 25.8255 48.3335 26.4701 49.1799 27.5117C49.3231 27.7201 49.3947 27.8438 49.3947 27.8828C49.3947 28.013 49.3166 28.0781 49.1603 28.0781C49.0692 28.0781 48.9715 28.013 48.8674 27.8828C48.62 27.6224 48.1773 27.2122 47.5392 26.6523C47.0444 26.1966 46.5952 25.8451 46.1916 25.5977C45.9963 25.5065 45.8986 25.4023 45.8986 25.2852C45.8986 25.194 45.9963 25.0638 46.1916 24.8945C46.3739 24.7122 46.5106 24.6211 46.6017 24.6211ZM29.7658 34.4844C29.297 34.4844 29.0627 34.25 29.0627 33.7812V29.8945C28.2293 30.7409 27.2137 31.5286 26.0158 32.2578C24.87 32.9609 23.6916 33.5339 22.4806 33.9766C22.103 34.1068 21.797 34.0221 21.5627 33.7227C21.1981 33.2409 21.3153 32.9154 21.9142 32.7461C24.258 31.9258 26.2176 30.8255 27.7931 29.4453H23.9845C23.9845 29.4714 23.978 29.4844 23.965 29.4844C23.8478 29.888 23.5809 30.0638 23.1642 30.0117C22.6434 29.9336 22.4546 29.6797 22.5978 29.25C22.8713 28.3125 23.1382 27.2708 23.3986 26.125C23.4637 25.8385 23.6004 25.6107 23.8088 25.4414C24.0301 25.2591 24.2905 25.168 24.59 25.168H29.0627V23.1953H23.2619C22.8582 23.1953 22.6564 22.987 22.6564 22.5703C22.6564 22.1667 22.8582 21.9648 23.2619 21.9648H29.6681H35.547C35.8856 21.9648 36.159 22.069 36.3674 22.2773C36.5757 22.4857 36.6799 22.7591 36.6799 23.0977V25.2656C36.6799 25.6042 36.5757 25.8776 36.3674 26.0859C36.159 26.2943 35.8856 26.3984 35.547 26.3984H30.4689V28.1953H36.6408C37.422 28.1953 37.7411 28.8464 37.5978 30.1484C37.3895 31.7891 37.103 32.7917 36.7385 33.1562C36.465 33.4557 36.0614 33.612 35.5275 33.625C35.0067 33.651 34.4793 33.6576 33.9455 33.6445C33.3726 33.6315 33.047 33.3841 32.9689 32.9023V32.8828L32.9494 32.8633C32.7801 32.4857 32.9624 32.3164 33.4963 32.3555C33.9129 32.3685 34.3817 32.375 34.9025 32.375C35.2541 32.375 35.4819 32.3294 35.5861 32.2383C35.8335 31.9909 36.0353 31.2878 36.1916 30.1289C36.2176 29.8685 36.2046 29.6927 36.1525 29.6016C36.1004 29.4974 36.0028 29.4453 35.8595 29.4453H30.4689V33.7812C30.4689 34.25 30.2345 34.4844 29.7658 34.4844ZM24.3166 28.1953H26.6799H29.0627V26.3984H24.7463C24.6942 26.6328 24.6095 26.9779 24.4924 27.4336C24.4142 27.7721 24.3556 28.026 24.3166 28.1953ZM30.4689 25.168H34.8635C35.1369 25.168 35.2736 25.0312 35.2736 24.7578V23.6055C35.2736 23.332 35.1369 23.1953 34.8635 23.1953H32.8713H30.4689V25.168ZM22.383 21.4766C22.0965 21.776 21.7905 21.8151 21.465 21.5938C21.2306 21.4375 21.1004 21.2812 21.0744 21.125C21.0614 20.9688 21.159 20.7865 21.3674 20.5781C22.2137 19.6146 22.9103 18.4818 23.4572 17.1797C23.6135 16.776 23.9064 16.6328 24.3361 16.75C24.8049 16.8672 24.9546 17.1471 24.7853 17.5898C24.6942 17.8372 24.577 18.0911 24.4338 18.3516H26.9533H28.9064C29.297 18.3516 29.4924 18.5469 29.4924 18.9375C29.4924 19.3281 29.297 19.5234 28.9064 19.5234H25.9572C26.1916 19.9792 26.3739 20.4023 26.5041 20.793C26.6082 21.1315 26.4715 21.3789 26.0939 21.5352C25.8595 21.6263 25.6773 21.6523 25.547 21.6133C25.4038 21.5612 25.2997 21.4245 25.2345 21.2031C25.0523 20.6432 24.8244 20.0833 24.551 19.5234H23.7892C23.3075 20.2917 22.8387 20.9427 22.383 21.4766ZM34.6486 21.5938C34.2319 21.776 33.9455 21.6849 33.7892 21.3203C33.4637 20.6823 33.0861 20.0833 32.6564 19.5234H31.2697C30.801 20.2266 30.2866 20.8581 29.7267 21.418C29.4273 21.7044 29.1148 21.7305 28.7892 21.4961C28.3465 21.1706 28.34 20.819 28.7697 20.4414C29.7332 19.5039 30.4754 18.4232 30.9963 17.1992C31.1786 16.7695 31.478 16.6133 31.8947 16.7305C32.3895 16.8477 32.5392 17.1471 32.3439 17.6289C32.3309 17.668 32.3049 17.7266 32.2658 17.8047C32.1356 18.0521 32.0379 18.2344 31.9728 18.3516H35.215H37.8908C38.2814 18.3516 38.4767 18.5469 38.4767 18.9375C38.4767 19.3281 38.2814 19.5234 37.8908 19.5234H34.1799C34.5054 19.9661 34.7853 20.3958 35.0197 20.8125C35.1108 21.0078 35.1239 21.1641 35.0588 21.2812C35.0067 21.3984 34.87 21.5026 34.6486 21.5938Z" fill="#333333"/>
<path d="M70.3713 29.0938C70.2801 29.0938 70.2215 29.0872 70.1955 29.0742C70.1825 29.0482 70.202 29.0026 70.2541 28.9375C70.4364 28.7682 70.5796 28.6055 70.6838 28.4492C70.801 28.2799 70.9247 28.013 71.0549 27.6484C71.2632 27.0495 71.3674 26.5872 71.3674 26.2617C71.3674 25.9622 71.3478 25.6888 71.3088 25.4414V25.3828C71.3088 25.2396 71.3999 25.194 71.5822 25.2461C71.7385 25.2852 71.9142 25.3372 72.1095 25.4023C72.1486 25.3893 72.2072 25.3828 72.2853 25.3828C72.3635 25.3698 72.4872 25.3503 72.6564 25.3242C73.0991 25.2591 73.672 25.194 74.3752 25.1289C74.3752 25.0768 74.4273 24.8945 74.5314 24.582L74.6486 24.1523C74.7007 23.9701 74.6812 23.8789 74.59 23.8789C74.3296 23.8789 73.7241 23.944 72.7736 24.0742L71.7385 24.25C71.6473 24.263 71.5301 24.224 71.3869 24.1328C71.2567 24.0417 71.1525 23.9375 71.0744 23.8203C71.0093 23.7031 71.0223 23.625 71.1135 23.5859C71.2176 23.5208 71.3218 23.4883 71.426 23.4883C71.5301 23.4883 71.5952 23.4883 71.6213 23.4883H71.8752L73.1642 23.4492L74.4142 23.293C74.4793 23.2799 74.5575 23.2604 74.6486 23.2344C74.7528 23.1953 74.8504 23.1693 74.9416 23.1562C75.0718 23.1302 75.2931 23.2734 75.6056 23.5859C75.6577 23.638 75.6838 23.6966 75.6838 23.7617C75.6838 23.8398 75.6317 23.918 75.5275 23.9961C75.3843 24.1393 75.2931 24.263 75.2541 24.3672C75.2411 24.4323 75.215 24.5299 75.176 24.6602C75.1369 24.7773 75.0978 24.9271 75.0588 25.1094C75.1369 25.2005 75.176 25.3112 75.176 25.4414C75.176 25.5456 75.1434 25.6237 75.0783 25.6758C75.0262 25.7148 74.9155 25.7344 74.7463 25.7344C74.1603 25.7734 73.6981 25.8125 73.3595 25.8516C73.021 25.8776 72.6108 25.9427 72.1291 26.0469C72.077 26.6328 71.9598 27.1732 71.7775 27.668C71.5952 28.1497 71.3413 28.5143 71.0158 28.7617C70.7033 28.9831 70.4885 29.0938 70.3713 29.0938ZM79.1017 20.1289C79.258 20.1289 79.3361 20.2005 79.3361 20.3438C79.3361 20.4219 79.2645 20.5326 79.1213 20.6758C78.7306 21.1576 77.9559 22.0755 76.797 23.4297C76.7059 23.5469 76.6213 23.6055 76.5431 23.6055C76.478 23.6055 76.3348 23.5078 76.1135 23.3125C75.9312 23.1562 75.84 23.026 75.84 22.9219C75.84 22.8047 75.9377 22.694 76.133 22.5898C76.4325 22.4206 76.8817 22.082 77.4806 21.5742C78.0796 21.0404 78.5223 20.6172 78.8088 20.3047C78.926 20.1875 79.0236 20.1289 79.1017 20.1289ZM59.8049 34.4844C59.284 34.4844 59.0236 34.2305 59.0236 33.7227V25.4023H51.9728C51.478 25.4023 51.2306 25.1549 51.2306 24.6602C51.2306 24.1654 51.478 23.918 51.9728 23.918H59.0236V17.4531C59.0236 16.9453 59.284 16.6914 59.8049 16.6914C60.3127 16.6914 60.5666 16.9453 60.5666 17.4531V23.918H64.5119H67.715C68.2098 23.918 68.4572 24.1654 68.4572 24.6602C68.4572 25.1549 68.2098 25.4023 67.715 25.4023H60.5666V33.7227C60.5666 34.2305 60.3127 34.4844 59.8049 34.4844Z" fill="#333333"/>
<path d="M105.117 28.5664C104.922 28.5664 104.733 28.4232 104.551 28.1367C104.317 27.7721 104.089 27.4727 103.867 27.2383L103.36 26.7109C103.086 27.0234 102.845 27.2708 102.637 27.4531C102.442 27.6354 102.194 27.8112 101.895 27.9805C101.335 28.306 100.866 28.4688 100.488 28.4688C100.397 28.4688 100.352 28.4362 100.352 28.3711C100.352 28.332 100.475 28.2474 100.723 28.1172C100.97 27.987 101.205 27.8307 101.426 27.6484C101.986 27.1797 102.448 26.6979 102.813 26.2031C102.735 26.125 102.344 25.7865 101.641 25.1875C101.55 25.1224 101.413 25.0117 101.231 24.8555C101.192 24.8294 101.113 24.7708 100.996 24.6797C100.879 24.5885 100.82 24.5234 100.82 24.4844C100.82 24.4193 100.853 24.3867 100.918 24.3867C101.113 24.3867 101.426 24.5234 101.856 24.7969C102.285 25.0573 102.735 25.3698 103.203 25.7344C103.386 25.513 103.529 25.3047 103.633 25.1094C103.737 24.9141 103.854 24.6732 103.985 24.3867C104.05 24.2435 104.089 24.1198 104.102 24.0156C104.115 23.8984 104.121 23.8268 104.121 23.8008C104.121 23.6576 104.16 23.5859 104.238 23.5859C104.33 23.5859 104.453 23.6576 104.61 23.8008C104.883 24.0612 105.02 24.237 105.02 24.3281C105.02 24.3802 104.987 24.4388 104.922 24.5039C104.766 24.6602 104.623 24.8685 104.492 25.1289C104.414 25.2852 104.271 25.5065 104.063 25.793C103.998 25.8711 103.945 25.9427 103.906 26.0078C103.867 26.0729 103.828 26.1315 103.789 26.1836C104.089 26.4049 104.531 26.7826 105.117 27.3164C105.261 27.4466 105.352 27.5703 105.391 27.6875C105.443 27.7917 105.469 27.9349 105.469 28.1172C105.469 28.2474 105.436 28.3581 105.371 28.4492C105.306 28.5273 105.222 28.5664 105.117 28.5664ZM109.18 21.418C109.219 21.418 109.258 21.4375 109.297 21.4766C109.336 21.5026 109.362 21.5417 109.375 21.5938V21.6328C109.375 21.724 109.304 21.8997 109.16 22.1602L107.754 24.6016C107.65 24.8229 107.513 24.9336 107.344 24.9336C107.175 24.9336 107.031 24.8294 106.914 24.6211C106.797 24.4518 106.654 24.1979 106.485 23.8594C106.406 23.7422 106.341 23.625 106.289 23.5078C106.237 23.3906 106.198 23.306 106.172 23.2539C106.029 23.0065 105.957 22.8307 105.957 22.7266C105.957 22.6745 105.977 22.6354 106.016 22.6094C106.055 22.5703 106.094 22.5508 106.133 22.5508C106.276 22.5508 106.406 22.6289 106.524 22.7852C106.615 22.8763 106.686 22.974 106.738 23.0781L106.953 23.3711L107.344 23.8203L107.52 23.5469C107.702 23.2344 108.132 22.6159 108.809 21.6914C108.952 21.5091 109.076 21.418 109.18 21.418ZM81.9533 33.4102C81.4845 33.4102 81.2502 33.1758 81.2502 32.707C81.2502 32.2383 81.4845 32.0039 81.9533 32.0039H85.5666C86.0614 29.9857 86.5106 27.8763 86.9142 25.6758H83.926C83.4572 25.6758 83.2228 25.4349 83.2228 24.9531C83.2228 24.4844 83.4572 24.25 83.926 24.25H87.1877C87.4611 22.8438 87.715 21.418 87.9494 19.9727H83.1838C82.715 19.9727 82.4806 19.7318 82.4806 19.25C82.4806 18.7812 82.715 18.5469 83.1838 18.5469H96.2306C96.6994 18.5469 96.9338 18.7812 96.9338 19.25C96.9338 19.7318 96.6994 19.9727 96.2306 19.9727H89.5119C89.4338 20.4023 89.3166 21.0729 89.1603 21.9844C88.978 22.987 88.8413 23.7422 88.7502 24.25H93.9846C94.3231 24.25 94.5965 24.3542 94.8049 24.5625C95.0132 24.7708 95.1174 25.0443 95.1174 25.3828V32.0039H97.6369C98.1056 32.0039 98.34 32.2383 98.34 32.707C98.34 33.1758 98.1056 33.4102 97.6369 33.4102H89.7853H81.9533ZM87.1291 32.0039H90.3908H93.6721V26.0859C93.6721 25.8125 93.5353 25.6758 93.2619 25.6758H88.4572C87.9754 28.1497 87.5327 30.2591 87.1291 32.0039Z" fill="#333333"/>
<path d="M133.067 25.207C132.884 25.207 132.748 25.1484 132.656 25.0312C132.539 24.8099 132.298 24.569 131.934 24.3086L131.973 24.2109C132.376 24.3802 132.715 24.4648 132.988 24.4648C133.158 24.4648 133.301 24.3672 133.418 24.1719C133.548 23.9635 133.685 23.6641 133.828 23.2734C133.998 22.7917 134.089 22.388 134.102 22.0625C134.102 22.0234 134.082 21.9909 134.043 21.9648C134.004 21.9258 133.972 21.9062 133.945 21.9062C133.828 21.8932 133.607 21.9128 133.281 21.9648L132.871 22.0234C132.754 22.0365 132.617 22.0625 132.461 22.1016C132.318 22.1406 132.201 22.1667 132.11 22.1797C132.057 22.1927 131.973 22.2188 131.856 22.2578C131.738 22.2969 131.654 22.3164 131.602 22.3164C131.537 22.3164 131.459 22.2839 131.367 22.2188C131.289 22.1406 131.218 22.056 131.153 21.9648C131.139 21.9518 131.133 21.9258 131.133 21.8867C131.133 21.8346 131.172 21.7695 131.25 21.6914C131.341 21.6003 131.413 21.5286 131.465 21.4766C131.53 21.3984 131.595 21.3073 131.66 21.2031C131.725 21.0859 131.778 21.0013 131.817 20.9492C131.882 20.8451 131.934 20.7214 131.973 20.5781L132.012 20.4023C132.012 20.3893 132.005 20.3568 131.992 20.3047C131.979 20.2396 131.953 20.207 131.914 20.207C131.393 20.2721 131.009 20.3503 130.762 20.4414C130.71 20.4674 130.632 20.4935 130.528 20.5195C130.436 20.5195 130.358 20.4805 130.293 20.4023C130.254 20.3893 130.176 20.2852 130.059 20.0898C130.007 20.0378 129.981 19.9922 129.981 19.9531C129.981 19.862 130.117 19.8099 130.391 19.7969L130.762 19.7578C130.827 19.7578 130.964 19.7448 131.172 19.7188C131.589 19.6797 132.168 19.6341 132.91 19.582C133.171 19.569 133.62 19.5365 134.258 19.4844C134.44 19.4714 134.662 19.4453 134.922 19.4062C135.065 19.3672 135.156 19.3477 135.195 19.3477C135.261 19.3477 135.326 19.3737 135.391 19.4258C135.456 19.4518 135.541 19.5039 135.645 19.582C135.749 19.6471 135.827 19.7188 135.879 19.7969C135.931 19.862 135.957 19.9271 135.957 19.9922C135.957 20.0573 135.925 20.1029 135.86 20.1289C135.794 20.1549 135.71 20.1549 135.606 20.1289C135.449 20.0898 135.267 20.0638 135.059 20.0508C134.863 20.0378 134.746 20.0312 134.707 20.0312C134.264 20.0182 133.711 20.0378 133.047 20.0898C132.865 20.1159 132.728 20.1289 132.637 20.1289C132.715 20.194 132.787 20.2982 132.852 20.4414V20.4805C132.852 20.5195 132.832 20.5716 132.793 20.6367C132.754 20.7018 132.709 20.7474 132.656 20.7734C132.591 20.8125 132.513 20.9036 132.422 21.0469C132.331 21.1901 132.272 21.2812 132.246 21.3203C132.168 21.4245 132.129 21.5091 132.129 21.5742C132.129 21.6263 132.181 21.6458 132.285 21.6328C132.376 21.6198 132.565 21.5938 132.852 21.5547C133.151 21.5026 133.373 21.457 133.516 21.418C133.555 21.4049 133.613 21.3919 133.692 21.3789C133.783 21.3659 133.887 21.3398 134.004 21.3008C134.095 21.2878 134.186 21.3073 134.278 21.3594C134.382 21.4115 134.538 21.5221 134.746 21.6914C134.903 21.8086 134.981 21.9128 134.981 22.0039C134.981 22.069 134.955 22.1341 134.903 22.1992C134.85 22.2904 134.811 22.4141 134.785 22.5703C134.668 23.1172 134.531 23.5599 134.375 23.8984C134.258 24.1328 134.147 24.3281 134.043 24.4844C133.939 24.6276 133.809 24.7708 133.653 24.9141C133.483 25.1094 133.288 25.207 133.067 25.207ZM133.203 32.0234C132.578 32.0234 132.057 31.8672 131.641 31.5547C131.211 31.2031 130.996 30.793 130.996 30.3242C130.996 29.9596 131.133 29.6406 131.406 29.3672C131.758 29.0677 132.201 28.918 132.735 28.918C132.761 28.918 132.78 28.8919 132.793 28.8398C132.819 28.7747 132.832 28.6901 132.832 28.5859L132.852 28.0781C132.761 28.0911 132.585 28.1107 132.324 28.1367C132.077 28.1628 131.895 28.1888 131.778 28.2148C131.843 28.2018 131.641 28.2474 131.172 28.3516C131.133 28.3646 131.061 28.3711 130.957 28.3711C130.71 28.3711 130.501 28.2604 130.332 28.0391C130.254 27.9609 130.215 27.8958 130.215 27.8438C130.215 27.7656 130.332 27.7266 130.567 27.7266L131.172 27.6875L132.832 27.4727V27.2383V26.75C132.819 26.6979 132.813 26.6393 132.813 26.5742C132.813 26.5091 132.806 26.457 132.793 26.418C132.767 26.3138 132.754 26.2487 132.754 26.2227C132.754 26.1315 132.8 26.0859 132.891 26.0859C133.008 26.0859 133.21 26.1706 133.496 26.3398C133.587 26.3919 133.633 26.4635 133.633 26.5547C133.633 26.6198 133.62 26.6784 133.594 26.7305C133.581 26.7695 133.574 26.8151 133.574 26.8672V27.4141L134.16 27.3555L134.883 27.2773C134.948 27.2643 135.02 27.2448 135.098 27.2188C135.189 27.1927 135.261 27.1797 135.313 27.1797C135.391 27.1797 135.488 27.2188 135.606 27.2969C135.827 27.4401 135.938 27.5638 135.938 27.668C135.938 27.7721 135.827 27.8242 135.606 27.8242C135.541 27.8242 135.449 27.8372 135.332 27.8633C135.215 27.8763 135.065 27.8893 134.883 27.9023L133.574 28L133.555 29.1914C133.529 29.3867 133.386 29.5104 133.125 29.5625H133.086C133.008 29.5625 132.93 29.556 132.852 29.543C132.787 29.5169 132.735 29.5039 132.695 29.5039C132.591 29.5039 132.487 29.5104 132.383 29.5234C132.279 29.5365 132.188 29.5755 132.11 29.6406C131.888 29.8359 131.778 30.0638 131.778 30.3242C131.778 30.5846 131.901 30.819 132.149 31.0273C132.37 31.2357 132.722 31.3398 133.203 31.3398C133.841 31.3138 134.362 31.138 134.766 30.8125C134.935 30.6953 135.065 30.6367 135.156 30.6367C135.209 30.6367 135.274 30.6497 135.352 30.6758C135.365 30.6888 135.391 30.7148 135.43 30.7539C135.469 30.793 135.488 30.832 135.488 30.8711C135.488 31.2357 135.182 31.5352 134.57 31.7695C134.115 31.9388 133.659 32.0234 133.203 32.0234ZM136.602 24.6211C136.667 24.6211 136.764 24.6667 136.895 24.7578C136.882 24.7839 136.908 24.8359 136.973 24.9141C137.038 24.9792 137.084 25.0247 137.11 25.0508C137.175 25.1159 137.24 25.194 137.305 25.2852C137.383 25.3763 137.468 25.474 137.559 25.5781C137.793 25.8255 138.334 26.4701 139.18 27.5117C139.323 27.7201 139.395 27.8438 139.395 27.8828C139.395 28.013 139.317 28.0781 139.16 28.0781C139.069 28.0781 138.972 28.013 138.867 27.8828C138.62 27.6224 138.177 27.2122 137.539 26.6523C137.044 26.1966 136.595 25.8451 136.192 25.5977C135.996 25.5065 135.899 25.4023 135.899 25.2852C135.899 25.194 135.996 25.0638 136.192 24.8945C136.374 24.7122 136.511 24.6211 136.602 24.6211ZM123.184 34.4648C122.715 34.4648 122.481 34.237 122.481 33.7812V29.0742C121.413 30.8451 120.195 32.2383 118.828 33.2539C118.633 33.3841 118.464 33.4362 118.32 33.4102C118.177 33.3971 118.028 33.2995 117.871 33.1172C117.676 32.8958 117.591 32.707 117.617 32.5508C117.643 32.3945 117.787 32.2383 118.047 32.082C118.763 31.5872 119.453 30.9753 120.117 30.2461C120.781 29.5169 121.341 28.7552 121.797 27.9609H118.613C118.184 27.9609 117.969 27.7396 117.969 27.2969C117.969 26.8672 118.184 26.6523 118.613 26.6523H122.481V25.0312H119.824C119.486 25.0312 119.212 24.9271 119.004 24.7188C118.796 24.5104 118.692 24.237 118.692 23.8984V18.6055C118.692 18.2669 118.796 17.9935 119.004 17.7852C119.212 17.5768 119.486 17.4727 119.824 17.4727H123.223H126.621C126.96 17.4727 127.233 17.5768 127.442 17.7852C127.65 17.9935 127.754 18.2669 127.754 18.6055V23.8984C127.754 24.237 127.65 24.5104 127.442 24.7188C127.233 24.9271 126.96 25.0312 126.621 25.0312H123.867V26.6523H127.695C128.125 26.6523 128.34 26.8672 128.34 27.2969C128.34 27.7396 128.125 27.9609 127.695 27.9609H124.59C125.033 28.6901 125.573 29.4128 126.211 30.1289C126.849 30.832 127.494 31.431 128.145 31.9258C128.392 32.0951 128.522 32.2578 128.535 32.4141C128.548 32.5573 128.457 32.7396 128.262 32.9609C128.093 33.1432 127.936 33.2409 127.793 33.2539C127.663 33.2799 127.5 33.2148 127.305 33.0586C125.99 31.9648 124.844 30.5977 123.867 28.957V33.7812C123.867 34.237 123.639 34.4648 123.184 34.4648ZM112.871 33.3711C112.533 33.3711 112.259 33.2669 112.051 33.0586C111.843 32.8503 111.738 32.5768 111.738 32.2383V28.8594C111.738 28.5208 111.843 28.2474 112.051 28.0391C112.259 27.8307 112.533 27.7266 112.871 27.7266H114.473H116.094C116.432 27.7266 116.706 27.8307 116.914 28.0391C117.123 28.2474 117.227 28.5208 117.227 28.8594V32.2383C117.227 32.5768 117.123 32.8503 116.914 33.0586C116.706 33.2669 116.432 33.3711 116.094 33.3711H112.871ZM113.379 32.1992H114.473H115.586C115.86 32.1992 115.996 32.0625 115.996 31.7891V29.3281C115.996 29.0547 115.86 28.918 115.586 28.918H113.379C113.106 28.918 112.969 29.0547 112.969 29.3281V31.7891C112.969 32.0625 113.106 32.1992 113.379 32.1992ZM112.344 26.2812C111.953 26.2812 111.758 26.0859 111.758 25.6953C111.758 25.3047 111.953 25.1094 112.344 25.1094H116.621C117.012 25.1094 117.207 25.3047 117.207 25.6953C117.207 26.0859 117.012 26.2812 116.621 26.2812H114.473H112.344ZM120.391 23.8398H122.539V21.8281H121.25H119.981V23.4297C119.981 23.7031 120.117 23.8398 120.391 23.8398ZM123.789 23.8398H125.098H126.016C126.289 23.8398 126.426 23.7031 126.426 23.4297V21.8281H123.789V23.8398ZM112.324 23.6836C111.947 23.6836 111.758 23.4883 111.758 23.0977C111.758 22.7201 111.947 22.5312 112.324 22.5312H114.473H116.641C117.018 22.5312 117.207 22.7201 117.207 23.0977C117.207 23.4883 117.018 23.6836 116.641 23.6836H112.324ZM111.504 21.0859C111.113 21.0859 110.918 20.8841 110.918 20.4805C110.918 20.0898 111.113 19.8945 111.504 19.8945H114.317H117.129C117.52 19.8945 117.715 20.0898 117.715 20.4805C117.715 20.8841 117.52 21.0859 117.129 21.0859H111.504ZM119.981 20.6562H122.539V18.6641H121.25H120.391C120.117 18.6641 119.981 18.8008 119.981 19.0742V20.6562ZM123.789 20.6562H125.098H126.426V19.0742C126.426 18.8008 126.289 18.6641 126.016 18.6641H123.789V20.6562ZM112.442 18.5078C112.051 18.5078 111.856 18.3125 111.856 17.9219C111.856 17.5312 112.051 17.3359 112.442 17.3359H114.492H116.563C116.953 17.3359 117.149 17.5312 117.149 17.9219C117.149 18.3125 116.953 18.5078 116.563 18.5078H112.442Z" fill="#333333"/>
</svg>
