<svg width="160" height="50" viewBox="0 0 160 50" fill="none" xmlns="http://www.w3.org/2000/svg">
<path d="M58.34 25.2847C58.1317 25.2847 58.008 25.1806 57.9689 24.9722C57.8908 24.7509 57.6825 24.4774 57.3439 24.1519L57.4025 24.0738C57.4546 24.0998 57.6043 24.1649 57.8517 24.2691C58.0991 24.3603 58.2684 24.4058 58.3595 24.4058C58.4377 24.4058 58.4963 24.4058 58.5353 24.4058C58.5744 24.3928 58.62 24.3603 58.672 24.3082C58.8283 24.191 59.0236 23.9241 59.258 23.5074C59.4273 23.1689 59.577 22.7717 59.7072 22.316C59.8504 21.8603 59.922 21.5152 59.922 21.2808C59.922 21.2157 59.87 21.1832 59.7658 21.1832L59.0236 21.2222L58.5158 21.2613L58.1838 21.2808L58.047 21.3004C58.1382 21.3655 58.1968 21.4241 58.2228 21.4761C58.2619 21.5152 58.2814 21.5673 58.2814 21.6324C58.2814 21.6975 58.2033 21.8798 58.047 22.1793C57.9168 22.4657 57.7085 22.7912 57.422 23.1558C57.1877 23.4683 56.8687 23.8069 56.465 24.1715C56.0744 24.523 55.7814 24.7053 55.5861 24.7183C55.547 24.7183 55.508 24.7118 55.4689 24.6988C55.4429 24.6728 55.4299 24.6402 55.4299 24.6011C55.4299 24.5881 55.534 24.4644 55.7424 24.2301L56.2892 23.5855C56.6799 23.0647 57.077 22.4006 57.4806 21.5933C57.5197 21.4892 57.5002 21.4306 57.422 21.4176C57.3439 21.4306 57.1812 21.4501 56.9338 21.4761C56.6864 21.4892 56.465 21.5282 56.2697 21.5933C56.2567 21.5933 56.2111 21.6129 56.133 21.6519C56.0549 21.678 55.9898 21.691 55.9377 21.691C55.8595 21.691 55.7944 21.6649 55.7424 21.6129L55.5861 21.4761C55.4689 21.385 55.4103 21.3004 55.4103 21.2222C55.4103 21.1962 55.4233 21.1571 55.4494 21.1051L55.547 20.9488C55.5991 20.8837 55.6838 20.7795 55.801 20.6363C55.9181 20.4931 56.0483 20.2978 56.1916 20.0504C56.2176 19.9983 56.2697 19.8811 56.3478 19.6988C56.439 19.5165 56.4845 19.4058 56.4845 19.3668V19.2886C56.4845 19.2105 56.4976 19.1584 56.5236 19.1324C56.5497 19.1064 56.6082 19.1064 56.6994 19.1324C56.7905 19.1584 56.9012 19.2301 57.0314 19.3472L57.2463 19.5621C57.2853 19.6011 57.3049 19.6467 57.3049 19.6988C57.3049 19.829 57.1226 20.0634 56.758 20.4019C56.6929 20.467 56.6148 20.5647 56.5236 20.6949C56.4325 20.8251 56.3869 20.9097 56.3869 20.9488C56.3869 21.0269 56.4455 21.053 56.5627 21.0269L57.0119 20.9683C58.0405 20.8121 58.8153 20.7209 59.3361 20.6949L59.8635 20.6168L60.0392 20.5777L60.1369 20.5582C60.2411 20.5582 60.3127 20.5712 60.3517 20.5972C60.3908 20.6233 60.4299 20.6689 60.4689 20.734C60.508 20.786 60.547 20.8316 60.5861 20.8707C60.6773 20.9748 60.7424 21.066 60.7814 21.1441L60.8205 21.3199L60.7814 21.398L60.7424 21.5152C60.7163 21.5803 60.6968 21.6454 60.6838 21.7105C60.6707 21.7626 60.6512 21.8212 60.6252 21.8863C60.3517 22.941 60.0327 23.7613 59.6681 24.3472C59.551 24.5556 59.3491 24.7639 59.0627 24.9722C58.7892 25.1806 58.5483 25.2847 58.34 25.2847ZM55.9181 29.5426C55.7749 29.5426 55.5991 29.4319 55.3908 29.2105C55.2345 29.0543 55.1564 28.9371 55.1564 28.859C55.1564 28.8199 55.1825 28.8004 55.2345 28.8004C55.2866 28.7873 55.3517 28.7808 55.4299 28.7808L55.8595 28.7613C56.1069 28.7613 56.2697 28.7548 56.3478 28.7418C56.5952 28.7418 56.8036 28.7353 56.9728 28.7222C58.0926 28.6181 58.8478 28.5334 59.2385 28.4683C59.4338 28.4423 59.6095 28.4162 59.7658 28.3902C59.922 28.3511 60.0457 28.3316 60.1369 28.3316C60.3192 28.3316 60.5015 28.4228 60.6838 28.6051C60.827 28.7483 60.8986 28.8655 60.8986 28.9566C60.8986 29.0347 60.853 29.0868 60.7619 29.1129C60.6968 29.1259 60.3127 29.1519 59.6095 29.191C59.2189 29.204 58.7372 29.2366 58.1642 29.2886C57.5913 29.3407 57.09 29.3928 56.6603 29.4449C56.5822 29.4579 56.4715 29.4774 56.3283 29.5035C56.1851 29.5295 56.0483 29.5426 55.9181 29.5426ZM61.6017 24.6207C61.6668 24.6207 61.7645 24.6662 61.8947 24.7574C61.8817 24.7834 61.9077 24.8355 61.9728 24.9136C62.0379 24.9787 62.0835 25.0243 62.1095 25.0504C62.1747 25.1155 62.2398 25.1936 62.3049 25.2847C62.383 25.3759 62.4676 25.4735 62.5588 25.5777C62.7931 25.8251 63.3335 26.4696 64.1799 27.5113C64.3231 27.7196 64.3947 27.8433 64.3947 27.8824C64.3947 28.0126 64.3166 28.0777 64.1603 28.0777C64.0692 28.0777 63.9715 28.0126 63.8674 27.8824C63.62 27.622 63.1773 27.2118 62.5392 26.6519C62.0444 26.1962 61.5952 25.8446 61.1916 25.5972C60.9963 25.5061 60.8986 25.4019 60.8986 25.2847C60.8986 25.1936 60.9963 25.0634 61.1916 24.8941C61.3739 24.7118 61.5106 24.6207 61.6017 24.6207ZM44.7658 34.484C44.297 34.484 44.0627 34.2496 44.0627 33.7808V29.8941C43.2293 30.7405 42.2137 31.5282 41.0158 32.2574C39.87 32.9605 38.6916 33.5334 37.4806 33.9761C37.103 34.1064 36.797 34.0217 36.5627 33.7222C36.1981 33.2405 36.3153 32.9149 36.9142 32.7457C39.258 31.9254 41.2176 30.8251 42.7931 29.4449H38.9845C38.9845 29.4709 38.978 29.484 38.965 29.484C38.8478 29.8876 38.5809 30.0634 38.1642 30.0113C37.6434 29.9332 37.4546 29.6793 37.5978 29.2496C37.8713 28.3121 38.1382 27.2704 38.3986 26.1246C38.4637 25.8381 38.6004 25.6103 38.8088 25.441C39.0301 25.2587 39.2905 25.1676 39.59 25.1676H44.0627V23.1949H38.2619C37.8582 23.1949 37.6564 22.9866 37.6564 22.5699C37.6564 22.1662 37.8582 21.9644 38.2619 21.9644H44.6681H50.547C50.8856 21.9644 51.159 22.0686 51.3674 22.2769C51.5757 22.4853 51.6799 22.7587 51.6799 23.0972V25.2652C51.6799 25.6037 51.5757 25.8772 51.3674 26.0855C51.159 26.2939 50.8856 26.398 50.547 26.398H45.4689V28.1949H51.6408C52.422 28.1949 52.7411 28.8459 52.5978 30.148C52.3895 31.7886 52.103 32.7912 51.7385 33.1558C51.465 33.4553 51.0614 33.6116 50.5275 33.6246C50.0067 33.6506 49.4793 33.6571 48.9455 33.6441C48.3726 33.6311 48.047 33.3837 47.9689 32.9019V32.8824L47.9494 32.8629C47.7801 32.4853 47.9624 32.316 48.4963 32.3551C48.9129 32.3681 49.3817 32.3746 49.9025 32.3746C50.2541 32.3746 50.4819 32.329 50.5861 32.2379C50.8335 31.9905 51.0353 31.2873 51.1916 30.1285C51.2176 29.8681 51.2046 29.6923 51.1525 29.6011C51.1004 29.497 51.0028 29.4449 50.8595 29.4449H45.4689V33.7808C45.4689 34.2496 45.2345 34.484 44.7658 34.484ZM39.3166 28.1949H41.6799H44.0627V26.398H39.7463C39.6942 26.6324 39.6095 26.9774 39.4924 27.4332C39.4142 27.7717 39.3556 28.0256 39.3166 28.1949ZM45.4689 25.1676H49.8635C50.1369 25.1676 50.2736 25.0308 50.2736 24.7574V23.6051C50.2736 23.3316 50.1369 23.1949 49.8635 23.1949H47.8713H45.4689V25.1676ZM37.383 21.4761C37.0965 21.7756 36.7905 21.8147 36.465 21.5933C36.2306 21.4371 36.1004 21.2808 36.0744 21.1246C36.0614 20.9683 36.159 20.786 36.3674 20.5777C37.2137 19.6142 37.9103 18.4814 38.4572 17.1793C38.6135 16.7756 38.9064 16.6324 39.3361 16.7496C39.8049 16.8668 39.9546 17.1467 39.7853 17.5894C39.6942 17.8368 39.577 18.0907 39.4338 18.3511H41.9533H43.9064C44.297 18.3511 44.4924 18.5465 44.4924 18.9371C44.4924 19.3277 44.297 19.523 43.9064 19.523H40.9572C41.1916 19.9787 41.3739 20.4019 41.5041 20.7926C41.6082 21.1311 41.4715 21.3785 41.0939 21.5347C40.8595 21.6259 40.6773 21.6519 40.547 21.6129C40.4038 21.5608 40.2997 21.4241 40.2345 21.2027C40.0523 20.6428 39.8244 20.0829 39.551 19.523H38.7892C38.3075 20.2912 37.8387 20.9423 37.383 21.4761ZM49.6486 21.5933C49.2319 21.7756 48.9455 21.6845 48.7892 21.3199C48.4637 20.6819 48.0861 20.0829 47.6564 19.523H46.2697C45.801 20.2261 45.2866 20.8577 44.7267 21.4176C44.4273 21.704 44.1148 21.7301 43.7892 21.4957C43.3465 21.1702 43.34 20.8186 43.7697 20.441C44.7332 19.5035 45.4754 18.4228 45.9963 17.1988C46.1786 16.7691 46.478 16.6129 46.8947 16.7301C47.3895 16.8472 47.5392 17.1467 47.3439 17.6285C47.3309 17.6676 47.3049 17.7261 47.2658 17.8043C47.1356 18.0517 47.0379 18.234 46.9728 18.3511H50.215H52.8908C53.2814 18.3511 53.4767 18.5465 53.4767 18.9371C53.4767 19.3277 53.2814 19.523 52.8908 19.523H49.1799C49.5054 19.9657 49.7853 20.3954 50.0197 20.8121C50.1108 21.0074 50.1239 21.1636 50.0588 21.2808C50.0067 21.398 49.87 21.5022 49.6486 21.5933Z" fill="#333333"/>
<path d="M89.3947 25.109C89.1994 25.109 89.0301 25.0373 88.8869 24.8941C88.4572 24.4254 88.021 24.0022 87.5783 23.6246C87.0835 23.2079 86.6473 22.8954 86.2697 22.6871C86.0874 22.5829 85.9963 22.4202 85.9963 22.1988C85.9963 22.1597 86.0418 22.1077 86.133 22.0426C86.2502 21.9644 86.439 21.7952 86.6994 21.5347L87.4025 20.8511C87.715 20.5256 87.9754 20.2327 88.1838 19.9722C88.4051 19.7118 88.5288 19.5295 88.5549 19.4254C88.5679 19.3993 88.5809 19.3472 88.5939 19.2691C88.62 19.178 88.659 19.1324 88.7111 19.1324C88.7762 19.1324 88.8608 19.1649 88.965 19.2301C89.0822 19.2952 89.1799 19.3603 89.258 19.4254C89.4533 19.6077 89.551 19.7639 89.551 19.8941C89.5379 19.9332 89.4858 19.9787 89.3947 20.0308C89.3166 20.0699 89.245 20.109 89.1799 20.148C89.1148 20.2001 88.8804 20.4084 88.4767 20.773L87.2072 21.8668C86.9858 22.0491 86.8752 22.1923 86.8752 22.2965C86.8752 22.3485 86.9793 22.4332 87.1877 22.5504C87.4351 22.7066 87.9168 23.0256 88.633 23.5074C88.9064 23.6897 89.1668 23.8915 89.4142 24.1129C89.6226 24.3212 89.7267 24.536 89.7267 24.7574C89.7267 24.8616 89.6812 24.9527 89.59 25.0308C89.5379 25.0829 89.4728 25.109 89.3947 25.109ZM85.9181 29.5426C85.7749 29.5426 85.5991 29.4319 85.3908 29.2105C85.2345 29.0543 85.1564 28.9371 85.1564 28.859C85.1564 28.8199 85.1825 28.8004 85.2345 28.8004C85.2866 28.7873 85.3517 28.7808 85.4299 28.7808L85.8595 28.7613C86.1069 28.7613 86.2697 28.7548 86.3478 28.7418C86.5952 28.7418 86.8036 28.7353 86.9728 28.7222C88.0926 28.6181 88.8478 28.5334 89.2385 28.4683C89.4338 28.4423 89.6095 28.4162 89.7658 28.3902C89.922 28.3511 90.0457 28.3316 90.1369 28.3316C90.3192 28.3316 90.5015 28.4228 90.6838 28.6051C90.827 28.7483 90.8986 28.8655 90.8986 28.9566C90.8986 29.0347 90.853 29.0868 90.7619 29.1129C90.6968 29.1259 90.3127 29.1519 89.6095 29.191C89.2189 29.204 88.7372 29.2366 88.1642 29.2886C87.5913 29.3407 87.09 29.3928 86.6603 29.4449C86.5822 29.4579 86.4715 29.4774 86.3283 29.5035C86.1851 29.5295 86.0483 29.5426 85.9181 29.5426ZM74.7658 33.8004C73.5679 33.8004 72.7541 33.5985 72.3244 33.1949C71.8947 32.8043 71.6799 32.036 71.6799 30.8902V24.9722L67.051 25.7144C66.5822 25.7926 66.3088 25.5907 66.2306 25.109C66.1525 24.6272 66.3478 24.3472 66.8166 24.2691L71.6799 23.4879V17.7457C71.6799 17.2509 71.9338 17.0035 72.4416 17.0035C72.9364 17.0035 73.1838 17.2509 73.1838 17.7457V23.2535L82.5197 21.7301C83.0015 21.6519 83.2814 21.8603 83.3595 22.3551C83.4377 22.8368 83.2293 23.1168 82.7345 23.1949L73.1838 24.7183V30.9097C73.1838 31.5087 73.2879 31.9058 73.4963 32.1011C73.7046 32.2834 74.1473 32.3746 74.8244 32.3746H79.7658C80.2345 32.3746 80.5731 32.2639 80.7814 32.0426C81.0028 31.8082 81.159 31.385 81.2502 30.773C81.3023 30.3043 81.4064 29.9202 81.5627 29.6207C81.771 29.217 82.0249 29.0868 82.3244 29.2301C82.5197 29.3212 82.6564 29.5295 82.7345 29.8551C82.7866 30.1024 82.7997 30.3759 82.7736 30.6754C82.6174 31.8472 82.3439 32.6545 81.9533 33.0972C81.5236 33.566 80.8075 33.8004 79.8049 33.8004H77.2853H74.7658Z" fill="#333333"/>
<path d="M118.067 25.2066C117.884 25.2066 117.748 25.148 117.656 25.0308C117.539 24.8095 117.298 24.5686 116.934 24.3082L116.973 24.2105C117.376 24.3798 117.715 24.4644 117.988 24.4644C118.158 24.4644 118.301 24.3668 118.418 24.1715C118.548 23.9631 118.685 23.6636 118.828 23.273C118.998 22.7912 119.089 22.3876 119.102 22.0621C119.102 22.023 119.082 21.9905 119.043 21.9644C119.004 21.9254 118.972 21.9058 118.945 21.9058C118.828 21.8928 118.607 21.9123 118.281 21.9644L117.871 22.023C117.754 22.036 117.617 22.0621 117.461 22.1011C117.318 22.1402 117.201 22.1662 117.11 22.1793C117.057 22.1923 116.973 22.2183 116.856 22.2574C116.738 22.2965 116.654 22.316 116.602 22.316C116.537 22.316 116.459 22.2834 116.367 22.2183C116.289 22.1402 116.218 22.0556 116.153 21.9644C116.139 21.9514 116.133 21.9254 116.133 21.8863C116.133 21.8342 116.172 21.7691 116.25 21.691C116.341 21.5998 116.413 21.5282 116.465 21.4761C116.53 21.398 116.595 21.3069 116.66 21.2027C116.725 21.0855 116.778 21.0009 116.817 20.9488C116.882 20.8446 116.934 20.7209 116.973 20.5777L117.012 20.4019C117.012 20.3889 117.005 20.3564 116.992 20.3043C116.979 20.2392 116.953 20.2066 116.914 20.2066C116.393 20.2717 116.009 20.3498 115.762 20.441C115.71 20.467 115.632 20.4931 115.528 20.5191C115.436 20.5191 115.358 20.4801 115.293 20.4019C115.254 20.3889 115.176 20.2847 115.059 20.0894C115.007 20.0373 114.981 19.9918 114.981 19.9527C114.981 19.8616 115.117 19.8095 115.391 19.7965L115.762 19.7574C115.827 19.7574 115.964 19.7444 116.172 19.7183C116.589 19.6793 117.168 19.6337 117.91 19.5816C118.171 19.5686 118.62 19.536 119.258 19.484C119.44 19.4709 119.662 19.4449 119.922 19.4058C120.065 19.3668 120.156 19.3472 120.195 19.3472C120.261 19.3472 120.326 19.3733 120.391 19.4254C120.456 19.4514 120.541 19.5035 120.645 19.5816C120.749 19.6467 120.827 19.7183 120.879 19.7965C120.931 19.8616 120.957 19.9267 120.957 19.9918C120.957 20.0569 120.925 20.1024 120.86 20.1285C120.794 20.1545 120.71 20.1545 120.606 20.1285C120.449 20.0894 120.267 20.0634 120.059 20.0504C119.863 20.0373 119.746 20.0308 119.707 20.0308C119.264 20.0178 118.711 20.0373 118.047 20.0894C117.865 20.1155 117.728 20.1285 117.637 20.1285C117.715 20.1936 117.787 20.2978 117.852 20.441V20.4801C117.852 20.5191 117.832 20.5712 117.793 20.6363C117.754 20.7014 117.709 20.747 117.656 20.773C117.591 20.8121 117.513 20.9032 117.422 21.0465C117.331 21.1897 117.272 21.2808 117.246 21.3199C117.168 21.4241 117.129 21.5087 117.129 21.5738C117.129 21.6259 117.181 21.6454 117.285 21.6324C117.376 21.6194 117.565 21.5933 117.852 21.5543C118.151 21.5022 118.373 21.4566 118.516 21.4176C118.555 21.4045 118.613 21.3915 118.692 21.3785C118.783 21.3655 118.887 21.3394 119.004 21.3004C119.095 21.2873 119.186 21.3069 119.278 21.359C119.382 21.411 119.538 21.5217 119.746 21.691C119.903 21.8082 119.981 21.9123 119.981 22.0035C119.981 22.0686 119.955 22.1337 119.903 22.1988C119.85 22.2899 119.811 22.4136 119.785 22.5699C119.668 23.1168 119.531 23.5595 119.375 23.898C119.258 24.1324 119.147 24.3277 119.043 24.484C118.939 24.6272 118.809 24.7704 118.653 24.9136C118.483 25.109 118.288 25.2066 118.067 25.2066ZM118.203 32.023C117.578 32.023 117.057 31.8668 116.641 31.5543C116.211 31.2027 115.996 30.7926 115.996 30.3238C115.996 29.9592 116.133 29.6402 116.406 29.3668C116.758 29.0673 117.201 28.9176 117.735 28.9176C117.761 28.9176 117.78 28.8915 117.793 28.8394C117.819 28.7743 117.832 28.6897 117.832 28.5855L117.852 28.0777C117.761 28.0907 117.585 28.1103 117.324 28.1363C117.077 28.1623 116.895 28.1884 116.778 28.2144C116.843 28.2014 116.641 28.247 116.172 28.3511C116.133 28.3642 116.061 28.3707 115.957 28.3707C115.71 28.3707 115.501 28.26 115.332 28.0386C115.254 27.9605 115.215 27.8954 115.215 27.8433C115.215 27.7652 115.332 27.7261 115.567 27.7261L116.172 27.6871L117.832 27.4722V27.2379V26.7496C117.819 26.6975 117.813 26.6389 117.813 26.5738C117.813 26.5087 117.806 26.4566 117.793 26.4176C117.767 26.3134 117.754 26.2483 117.754 26.2222C117.754 26.1311 117.8 26.0855 117.891 26.0855C118.008 26.0855 118.21 26.1702 118.496 26.3394C118.587 26.3915 118.633 26.4631 118.633 26.5543C118.633 26.6194 118.62 26.678 118.594 26.7301C118.581 26.7691 118.574 26.8147 118.574 26.8668V27.4136L119.16 27.3551L119.883 27.2769C119.948 27.2639 120.02 27.2444 120.098 27.2183C120.189 27.1923 120.261 27.1793 120.313 27.1793C120.391 27.1793 120.488 27.2183 120.606 27.2965C120.827 27.4397 120.938 27.5634 120.938 27.6676C120.938 27.7717 120.827 27.8238 120.606 27.8238C120.541 27.8238 120.449 27.8368 120.332 27.8629C120.215 27.8759 120.065 27.8889 119.883 27.9019L118.574 27.9996L118.555 29.191C118.529 29.3863 118.386 29.51 118.125 29.5621H118.086C118.008 29.5621 117.93 29.5556 117.852 29.5426C117.787 29.5165 117.735 29.5035 117.695 29.5035C117.591 29.5035 117.487 29.51 117.383 29.523C117.279 29.536 117.188 29.5751 117.11 29.6402C116.888 29.8355 116.778 30.0634 116.778 30.3238C116.778 30.5842 116.901 30.8186 117.149 31.0269C117.37 31.2353 117.722 31.3394 118.203 31.3394C118.841 31.3134 119.362 31.1376 119.766 30.8121C119.935 30.6949 120.065 30.6363 120.156 30.6363C120.209 30.6363 120.274 30.6493 120.352 30.6754C120.365 30.6884 120.391 30.7144 120.43 30.7535C120.469 30.7926 120.488 30.8316 120.488 30.8707C120.488 31.2353 120.182 31.5347 119.57 31.7691C119.115 31.9384 118.659 32.023 118.203 32.023ZM121.602 24.6207C121.667 24.6207 121.764 24.6662 121.895 24.7574C121.882 24.7834 121.908 24.8355 121.973 24.9136C122.038 24.9787 122.084 25.0243 122.11 25.0504C122.175 25.1155 122.24 25.1936 122.305 25.2847C122.383 25.3759 122.468 25.4735 122.559 25.5777C122.793 25.8251 123.334 26.4696 124.18 27.5113C124.323 27.7196 124.395 27.8433 124.395 27.8824C124.395 28.0126 124.317 28.0777 124.16 28.0777C124.069 28.0777 123.972 28.0126 123.867 27.8824C123.62 27.622 123.177 27.2118 122.539 26.6519C122.044 26.1962 121.595 25.8446 121.192 25.5972C120.996 25.5061 120.899 25.4019 120.899 25.2847C120.899 25.1936 120.996 25.0634 121.192 24.8941C121.374 24.7118 121.511 24.6207 121.602 24.6207ZM108.184 34.4644C107.715 34.4644 107.481 34.2366 107.481 33.7808V29.0738C106.413 30.8446 105.195 32.2379 103.828 33.2535C103.633 33.3837 103.464 33.4358 103.32 33.4097C103.177 33.3967 103.028 33.2991 102.871 33.1168C102.676 32.8954 102.591 32.7066 102.617 32.5504C102.643 32.3941 102.787 32.2379 103.047 32.0816C103.763 31.5868 104.453 30.9748 105.117 30.2457C105.781 29.5165 106.341 28.7548 106.797 27.9605H103.613C103.184 27.9605 102.969 27.7392 102.969 27.2965C102.969 26.8668 103.184 26.6519 103.613 26.6519H107.481V25.0308H104.824C104.486 25.0308 104.212 24.9267 104.004 24.7183C103.796 24.51 103.692 24.2366 103.692 23.898V18.6051C103.692 18.2665 103.796 17.9931 104.004 17.7847C104.212 17.5764 104.486 17.4722 104.824 17.4722H108.223H111.621C111.96 17.4722 112.233 17.5764 112.442 17.7847C112.65 17.9931 112.754 18.2665 112.754 18.6051V23.898C112.754 24.2366 112.65 24.51 112.442 24.7183C112.233 24.9267 111.96 25.0308 111.621 25.0308H108.867V26.6519H112.695C113.125 26.6519 113.34 26.8668 113.34 27.2965C113.34 27.7392 113.125 27.9605 112.695 27.9605H109.59C110.033 28.6897 110.573 29.4123 111.211 30.1285C111.849 30.8316 112.494 31.4306 113.145 31.9254C113.392 32.0946 113.522 32.2574 113.535 32.4136C113.548 32.5569 113.457 32.7392 113.262 32.9605C113.093 33.1428 112.936 33.2405 112.793 33.2535C112.663 33.2795 112.5 33.2144 112.305 33.0582C110.99 31.9644 109.844 30.5972 108.867 28.9566V33.7808C108.867 34.2366 108.639 34.4644 108.184 34.4644ZM97.8713 33.3707C97.5327 33.3707 97.2593 33.2665 97.051 33.0582C96.8426 32.8498 96.7385 32.5764 96.7385 32.2379V28.859C96.7385 28.5204 96.8426 28.247 97.051 28.0386C97.2593 27.8303 97.5327 27.7261 97.8713 27.7261H99.4728H101.094C101.432 27.7261 101.706 27.8303 101.914 28.0386C102.123 28.247 102.227 28.5204 102.227 28.859V32.2379C102.227 32.5764 102.123 32.8498 101.914 33.0582C101.706 33.2665 101.432 33.3707 101.094 33.3707H97.8713ZM98.3791 32.1988H99.4728H100.586C100.86 32.1988 100.996 32.0621 100.996 31.7886V29.3277C100.996 29.0543 100.86 28.9176 100.586 28.9176H98.3791C98.1056 28.9176 97.9689 29.0543 97.9689 29.3277V31.7886C97.9689 32.0621 98.1056 32.1988 98.3791 32.1988ZM97.3439 26.2808C96.9533 26.2808 96.758 26.0855 96.758 25.6949C96.758 25.3043 96.9533 25.109 97.3439 25.109H101.621C102.012 25.109 102.207 25.3043 102.207 25.6949C102.207 26.0855 102.012 26.2808 101.621 26.2808H99.4728H97.3439ZM105.391 23.8394H107.539V21.8277H106.25H104.981V23.4293C104.981 23.7027 105.117 23.8394 105.391 23.8394ZM108.789 23.8394H110.098H111.016C111.289 23.8394 111.426 23.7027 111.426 23.4293V21.8277H108.789V23.8394ZM97.3244 23.6832C96.9468 23.6832 96.758 23.4879 96.758 23.0972C96.758 22.7196 96.9468 22.5308 97.3244 22.5308H99.4728H101.641C102.018 22.5308 102.207 22.7196 102.207 23.0972C102.207 23.4879 102.018 23.6832 101.641 23.6832H97.3244ZM96.5041 21.0855C96.1135 21.0855 95.9181 20.8837 95.9181 20.4801C95.9181 20.0894 96.1135 19.8941 96.5041 19.8941H99.3166H102.129C102.52 19.8941 102.715 20.0894 102.715 20.4801C102.715 20.8837 102.52 21.0855 102.129 21.0855H96.5041ZM104.981 20.6558H107.539V18.6636H106.25H105.391C105.117 18.6636 104.981 18.8004 104.981 19.0738V20.6558ZM108.789 20.6558H110.098H111.426V19.0738C111.426 18.8004 111.289 18.6636 111.016 18.6636H108.789V20.6558ZM97.4416 18.5074C97.051 18.5074 96.8556 18.3121 96.8556 17.9215C96.8556 17.5308 97.051 17.3355 97.4416 17.3355H99.4924H101.563C101.953 17.3355 102.149 17.5308 102.149 17.9215C102.149 18.3121 101.953 18.5074 101.563 18.5074H97.4416Z" fill="#333333"/>
</svg>
