<svg width="1200" height="720" viewBox="0 0 1200 720" fill="none" xmlns="http://www.w3.org/2000/svg">
<rect width="1200" height="720" fill="#FFFEF9"/>
<line x1="13" y1="-4.37114e-08" x2="13" y2="720" stroke="#FFF2E8" stroke-width="2"/>
<line x1="33.0001" y1="-4.37114e-08" x2="33.0001" y2="720" stroke="#FFF2E8" stroke-width="2"/>
<line x1="53.0001" y1="-4.37114e-08" x2="53.0001" y2="720" stroke="#FFF2E8" stroke-width="2"/>
<line x1="73.0001" y1="-4.37114e-08" x2="73.0002" y2="720" stroke="#FFF2E8" stroke-width="2"/>
<line x1="93.0001" y1="-4.37114e-08" x2="93.0002" y2="720" stroke="#FFF2E8" stroke-width="2"/>
<line x1="113" y1="-4.37114e-08" x2="113" y2="720" stroke="#FFF2E8" stroke-width="2"/>
<line x1="133" y1="-4.37114e-08" x2="133" y2="720" stroke="#FFF2E8" stroke-width="2"/>
<line x1="153" y1="-4.37114e-08" x2="153" y2="720" stroke="#FFF2E8" stroke-width="2"/>
<line x1="173" y1="-4.37114e-08" x2="173" y2="720" stroke="#FFF2E8" stroke-width="2"/>
<line x1="193" y1="-4.37114e-08" x2="193" y2="720" stroke="#FFF2E8" stroke-width="2"/>
<line x1="213" y1="-4.37114e-08" x2="213" y2="720" stroke="#FFF2E8" stroke-width="2"/>
<line x1="233" y1="-4.37114e-08" x2="233" y2="720" stroke="#FFF2E8" stroke-width="2"/>
<line x1="253" y1="-4.37114e-08" x2="253" y2="720" stroke="#FFF2E8" stroke-width="2"/>
<line x1="273" y1="-4.37114e-08" x2="273" y2="720" stroke="#FFF2E8" stroke-width="2"/>
<line x1="293" y1="-4.37114e-08" x2="293" y2="720" stroke="#FFF2E8" stroke-width="2"/>
<line x1="313" y1="-4.37114e-08" x2="313.001" y2="720" stroke="#FFF2E8" stroke-width="2"/>
<line x1="333.001" y1="-4.37114e-08" x2="333.001" y2="720" stroke="#FFF2E8" stroke-width="2"/>
<line x1="353.001" y1="-4.37114e-08" x2="353.001" y2="720" stroke="#FFF2E8" stroke-width="2"/>
<line x1="373.001" y1="-4.37114e-08" x2="373.001" y2="720" stroke="#FFF2E8" stroke-width="2"/>
<line x1="393.001" y1="-4.37114e-08" x2="393.001" y2="720" stroke="#FFF2E8" stroke-width="2"/>
<line x1="413.001" y1="-4.37114e-08" x2="413.001" y2="720" stroke="#FFF2E8" stroke-width="2"/>
<line x1="433.001" y1="-4.37114e-08" x2="433.001" y2="720" stroke="#FFF2E8" stroke-width="2"/>
<line x1="453.001" y1="-4.37114e-08" x2="453.001" y2="720" stroke="#FFF2E8" stroke-width="2"/>
<line x1="473.001" y1="-4.37114e-08" x2="473.001" y2="720" stroke="#FFF2E8" stroke-width="2"/>
<line x1="493.001" y1="-4.37114e-08" x2="493.001" y2="720" stroke="#FFF2E8" stroke-width="2"/>
<line x1="513.001" y1="-4.37114e-08" x2="513.001" y2="720" stroke="#FFF2E8" stroke-width="2"/>
<line x1="533.001" y1="-4.37114e-08" x2="533.001" y2="720" stroke="#FFF2E8" stroke-width="2"/>
<line x1="553.001" y1="-4.37114e-08" x2="553.001" y2="720" stroke="#FFF2E8" stroke-width="2"/>
<line x1="573.001" y1="-4.37114e-08" x2="573.001" y2="720" stroke="#FFF2E8" stroke-width="2"/>
<line x1="593.001" y1="-4.37114e-08" x2="593.001" y2="720" stroke="#FFF2E8" stroke-width="2"/>
<line x1="613.001" y1="-4.37114e-08" x2="613.001" y2="720" stroke="#FFF2E8" stroke-width="2"/>
<line x1="633.001" y1="-4.37114e-08" x2="633.001" y2="720" stroke="#FFF2E8" stroke-width="2"/>
<line x1="653.001" y1="-4.37114e-08" x2="653.001" y2="720" stroke="#FFF2E8" stroke-width="2"/>
<line x1="673.001" y1="-4.37114e-08" x2="673.001" y2="720" stroke="#FFF2E8" stroke-width="2"/>
<line x1="693.001" y1="-4.37114e-08" x2="693.001" y2="720" stroke="#FFF2E8" stroke-width="2"/>
<line x1="713.001" y1="-4.37114e-08" x2="713.001" y2="720" stroke="#FFF2E8" stroke-width="2"/>
<line x1="733.001" y1="-4.37114e-08" x2="733.002" y2="720" stroke="#FFF2E8" stroke-width="2"/>
<line x1="753.002" y1="-4.37114e-08" x2="753.002" y2="720" stroke="#FFF2E8" stroke-width="2"/>
<line x1="773.002" y1="-4.37114e-08" x2="773.002" y2="720" stroke="#FFF2E8" stroke-width="2"/>
<line x1="793.002" y1="-4.37114e-08" x2="793.002" y2="720" stroke="#FFF2E8" stroke-width="2"/>
<line x1="813.002" y1="-4.37114e-08" x2="813.002" y2="720" stroke="#FFF2E8" stroke-width="2"/>
<line x1="833.002" y1="-4.37114e-08" x2="833.002" y2="720" stroke="#FFF2E8" stroke-width="2"/>
<line x1="853.002" y1="-4.37114e-08" x2="853.002" y2="720" stroke="#FFF2E8" stroke-width="2"/>
<line x1="873.002" y1="-4.37114e-08" x2="873.002" y2="720" stroke="#FFF2E8" stroke-width="2"/>
<line x1="893.002" y1="-4.37114e-08" x2="893.002" y2="720" stroke="#FFF2E8" stroke-width="2"/>
<line x1="913.002" y1="-4.37114e-08" x2="913.002" y2="720" stroke="#FFF2E8" stroke-width="2"/>
<line x1="933.002" y1="-4.37114e-08" x2="933.002" y2="720" stroke="#FFF2E8" stroke-width="2"/>
<line x1="953.002" y1="-4.37114e-08" x2="953.002" y2="720" stroke="#FFF2E8" stroke-width="2"/>
<line x1="973.002" y1="-4.37114e-08" x2="973.002" y2="720" stroke="#FFF2E8" stroke-width="2"/>
<line x1="993.002" y1="-4.37114e-08" x2="993.002" y2="720" stroke="#FFF2E8" stroke-width="2"/>
<line x1="1013" y1="-4.37114e-08" x2="1013" y2="720" stroke="#FFF2E8" stroke-width="2"/>
<line x1="1033" y1="-4.37114e-08" x2="1033" y2="720" stroke="#FFF2E8" stroke-width="2"/>
<line x1="1053" y1="-4.37114e-08" x2="1053" y2="720" stroke="#FFF2E8" stroke-width="2"/>
<line x1="1073" y1="-4.37114e-08" x2="1073" y2="720" stroke="#FFF2E8" stroke-width="2"/>
<line x1="1093" y1="-4.37114e-08" x2="1093" y2="720" stroke="#FFF2E8" stroke-width="2"/>
<line x1="1113" y1="-4.37114e-08" x2="1113" y2="720" stroke="#FFF2E8" stroke-width="2"/>
<line x1="1133" y1="-4.37114e-08" x2="1133" y2="720" stroke="#FFF2E8" stroke-width="2"/>
<line x1="1153" y1="-4.37114e-08" x2="1153" y2="720" stroke="#FFF2E8" stroke-width="2"/>
<line x1="1173" y1="-4.37114e-08" x2="1173" y2="720" stroke="#FFF2E8" stroke-width="2"/>
<line x1="1193" y1="-4.37114e-08" x2="1193" y2="720" stroke="#FFF2E8" stroke-width="2"/>
<line y1="9.5" x2="1200" y2="9.5" stroke="#FFF2E8"/>
<line y1="29.5" x2="1200" y2="29.5" stroke="#FFF2E8"/>
<line y1="49.5" x2="1200" y2="49.5" stroke="#FFF2E8"/>
<line y1="69.5" x2="1200" y2="69.5" stroke="#FFF2E8"/>
<line y1="89.5" x2="1200" y2="89.5" stroke="#FFF2E8"/>
<line y1="109.5" x2="1200" y2="109.5" stroke="#FFF2E8"/>
<line y1="129.5" x2="1200" y2="129.5" stroke="#FFF2E8"/>
<line y1="149.5" x2="1200" y2="149.5" stroke="#FFF2E8"/>
<line y1="169.5" x2="1200" y2="169.5" stroke="#FFF2E8"/>
<line y1="189.5" x2="1200" y2="189.5" stroke="#FFF2E8"/>
<line y1="209.5" x2="1200" y2="209.5" stroke="#FFF2E8"/>
<line y1="229.5" x2="1200" y2="229.5" stroke="#FFF2E8"/>
<line y1="249.5" x2="1200" y2="249.5" stroke="#FFF2E8"/>
<line y1="269.5" x2="1200" y2="269.5" stroke="#FFF2E8"/>
<line y1="289.5" x2="1200" y2="289.5" stroke="#FFF2E8"/>
<line y1="309.5" x2="1200" y2="309.5" stroke="#FFF2E8"/>
<line y1="329.5" x2="1200" y2="329.5" stroke="#FFF2E8"/>
<line y1="349.5" x2="1200" y2="349.5" stroke="#FFF2E8"/>
<line y1="369.5" x2="1200" y2="369.5" stroke="#FFF2E8"/>
<line y1="389.5" x2="1200" y2="389.5" stroke="#FFF2E8"/>
<line y1="409.5" x2="1200" y2="409.5" stroke="#FFF2E8"/>
<line y1="429.5" x2="1200" y2="429.5" stroke="#FFF2E8"/>
<line y1="449.5" x2="1200" y2="449.5" stroke="#FFF2E8"/>
<line y1="469.5" x2="1200" y2="469.5" stroke="#FFF2E8"/>
<line y1="489.5" x2="1200" y2="489.5" stroke="#FFF2E8"/>
<line y1="509.5" x2="1200" y2="509.5" stroke="#FFF2E8"/>
<line y1="529.5" x2="1200" y2="529.5" stroke="#FFF2E8"/>
<line y1="549.5" x2="1200" y2="549.5" stroke="#FFF2E8"/>
<line y1="569.5" x2="1200" y2="569.5" stroke="#FFF2E8"/>
<line y1="589.5" x2="1200" y2="589.5" stroke="#FFF2E8"/>
<line y1="609.5" x2="1200" y2="609.5" stroke="#FFF2E8"/>
<line y1="629.5" x2="1200" y2="629.5" stroke="#FFF2E8"/>
<line y1="649.5" x2="1200" y2="649.5" stroke="#FFF2E8"/>
<line y1="669.5" x2="1200" y2="669.5" stroke="#FFF2E8"/>
<line y1="689.5" x2="1200" y2="689.5" stroke="#FFF2E8"/>
<line y1="709.5" x2="1200" y2="709.5" stroke="#FFF2E8"/>
</svg>
