<svg width="280" height="280" viewBox="0 0 280 280" fill="none" xmlns="http://www.w3.org/2000/svg">
<path d="M198.13 223.192C195.732 224.662 191.908 249.896 193.165 251.399C194.423 252.903 199.219 253.489 200.733 252.006C201.363 249.919 202.88 223.902 201.638 223.902C199.735 223.902 199.699 222.23 198.13 223.192Z" fill="#F568CC"/>
<path d="M207.212 225.525C206.066 226.129 204.923 249.849 205.138 251.49C205.955 252.911 210.497 253.543 212.397 252.377C213.336 249.488 212.421 227.765 210.64 226.054C209.888 225.344 208.98 224.597 207.212 225.525Z" fill="#F568CC"/>
<path d="M226.382 227.143C225.174 228.501 225.028 250.007 225.477 252.008C225.995 253.502 232.142 252.999 232.645 251.49C232.969 249.346 232.085 227.664 229.814 225.688C228.209 224.662 227.727 225.629 226.382 227.143Z" fill="#F568CC"/>
<path d="M235.702 224.242C234.559 229.259 236.495 247.293 237.234 251.49C237.833 253.214 241.621 252.688 243.078 251.736C243.762 249.735 241.172 224.926 240.086 223.902C238.048 222.015 237.564 223.023 235.702 224.242Z" fill="#F568CC"/>
<path fill-rule="evenodd" clip-rule="evenodd" d="M181.608 163.42C182.06 162.782 181.969 161.892 181.371 161.36C180.729 160.789 179.746 160.847 179.175 161.489C178.958 161.733 178.827 162.015 178.762 162.163C178.679 162.351 178.6 162.566 178.526 162.789C178.376 163.238 178.212 163.816 178.039 164.488C177.692 165.838 177.283 167.657 176.843 169.78C175.963 174.03 174.943 179.558 174.022 185.102C173.101 190.644 172.274 196.225 171.781 200.578C171.535 202.75 171.369 204.645 171.319 206.087C171.294 206.804 171.297 207.447 171.34 207.973C171.362 208.235 171.396 208.501 171.454 208.75C171.505 208.969 171.605 209.314 171.832 209.633C172.33 210.332 173.301 210.496 174.001 209.997C174.643 209.54 174.833 208.686 174.477 208.008C174.466 207.951 174.452 207.857 174.441 207.716C174.412 207.365 174.405 206.86 174.428 206.195C174.474 204.873 174.63 203.071 174.872 200.928C175.357 196.65 176.174 191.128 177.091 185.612C178.007 180.098 179.019 174.612 179.89 170.411C180.326 168.308 180.723 166.543 181.052 165.264C181.218 164.621 181.36 164.123 181.476 163.774C181.535 163.601 181.579 163.486 181.608 163.42ZM174.491 208.068C174.491 208.068 174.489 208.063 174.486 208.053C174.49 208.062 174.491 208.068 174.491 208.068ZM181.622 163.389C181.627 163.378 181.63 163.373 181.63 163.374C181.63 163.374 181.627 163.38 181.622 163.389Z" fill="#BE090E"/>
<path d="M184.301 143.773C185.725 143.604 188.924 140.921 193.894 144.032C196.378 145.769 198.983 149.287 196.606 154.732C195.382 157.456 193.345 159.736 190.775 161.257C185.237 164.599 179.422 166.3 178.139 166.476C176.534 161.682 169.752 154.703 169.109 150.374C168.533 146.715 169.368 140.633 175.751 139.944C182.175 139.485 184.301 143.773 184.301 143.773Z" fill="#BE090E"/>
<path d="M193.352 154.032C194.493 154.745 192.945 156.738 190.708 158.439C188.797 159.894 186.526 160.944 185.834 159.977C185.056 158.885 187.299 158.893 189.891 156.803C192.056 155.061 192.598 153.56 193.352 154.032Z" fill="#F8DE76"/>
<path d="M184.817 160.664C185.219 161.309 184.781 161.701 184.558 161.89C184.335 162.079 183.521 161.999 183.288 161.711C183.054 161.423 182.984 160.674 183.459 160.371C183.933 160.067 184.415 160.018 184.817 160.664Z" fill="#F8DE76"/>
<path d="M193.471 186.675C191.317 186.981 177.892 193.978 173.158 191.7C168.958 189.677 167.356 185.143 169.625 182.625C171.893 180.108 175.531 184.7 178.318 184.541C181.105 184.383 184.021 182.727 184.257 177.705C184.493 172.683 180.915 170.013 176.28 169.38C171.644 168.747 163.713 171.4 160.924 176.279C158.072 181.28 159.156 190.647 162.941 195.353C168.533 202.301 183.103 204.486 193.422 199.094C194.179 191.503 194.355 187.233 193.471 186.675Z" fill="#F568CC"/>
<path fill-rule="evenodd" clip-rule="evenodd" d="M164.813 184.536C164.813 184.107 165.161 183.758 165.591 183.758H168.533C168.963 183.758 169.311 184.107 169.311 184.536C169.311 184.966 168.963 185.314 168.533 185.314H165.591C165.161 185.314 164.813 184.966 164.813 184.536Z" fill="#570751"/>
<path fill-rule="evenodd" clip-rule="evenodd" d="M170.842 188.566C171.034 188.951 170.877 189.418 170.492 189.609L167.407 191.144C167.022 191.335 166.556 191.179 166.364 190.794C166.173 190.409 166.33 189.942 166.714 189.751L169.799 188.216C170.184 188.025 170.651 188.182 170.842 188.566Z" fill="#570751"/>
<path fill-rule="evenodd" clip-rule="evenodd" d="M174.971 191.764C175.4 191.764 175.748 192.112 175.748 192.542V195.347C175.748 195.777 175.4 196.125 174.971 196.125C174.541 196.125 174.193 195.777 174.193 195.347V192.542C174.193 192.112 174.541 191.764 174.971 191.764Z" fill="#570751"/>
<path fill-rule="evenodd" clip-rule="evenodd" d="M180.026 191.438C180.419 191.266 180.878 191.445 181.05 191.839L182.447 195.036C182.619 195.429 182.44 195.888 182.046 196.06C181.652 196.232 181.194 196.052 181.022 195.659L179.624 192.462C179.452 192.068 179.632 191.61 180.026 191.438Z" fill="#570751"/>
<path d="M251.491 165.932C251.491 165.932 248.331 171.197 242.158 172.154Z" fill="#FABFE9"/>
<path fill-rule="evenodd" clip-rule="evenodd" d="M252.025 165.043C252.516 165.337 252.675 165.974 252.38 166.465L251.491 165.932C252.38 166.465 252.38 166.466 252.38 166.466L252.379 166.467L252.378 166.469L252.375 166.475L252.364 166.492C252.356 166.505 252.344 166.524 252.329 166.547C252.3 166.594 252.258 166.659 252.203 166.74C252.093 166.902 251.933 167.13 251.722 167.403C251.3 167.949 250.673 168.682 249.842 169.447C248.182 170.974 245.667 172.659 242.317 173.179C241.751 173.266 241.221 172.879 241.133 172.313C241.045 171.747 241.433 171.217 241.999 171.129C244.822 170.692 246.974 169.266 248.438 167.921C249.167 167.25 249.716 166.607 250.08 166.136C250.262 165.9 250.397 165.709 250.484 165.58C250.527 165.515 250.559 165.466 250.579 165.435C250.589 165.419 250.596 165.408 250.599 165.402L250.602 165.397C250.897 164.907 251.534 164.748 252.025 165.043Z" fill="#570751"/>
<path d="M194.734 167.285C200.653 153.192 233.446 151.73 239.951 164.12C242.992 171.324 247.682 213.057 241.647 225.452C235.264 233.749 196.989 232.025 193.279 225.839C187.633 216.42 190.552 176.535 194.734 167.285Z" fill="#FBBDE8"/>
<path d="M252.546 148.097C255.138 147.719 258.978 152.349 258.978 156.07C258.978 159.585 254.83 165.719 252.043 166.098C249.256 166.476 246.744 159.601 247.2 157.078C247.656 154.556 250.052 148.46 252.546 148.097Z" fill="#F568CC"/>
<path d="M199.6 173.3C200.412 173.3 202.343 173.891 202.364 176.089C202.377 177.521 200.845 178.586 199.401 178.521C197.957 178.456 196.785 177.391 196.837 175.911C196.904 174.365 197.811 173.3 199.6 173.3Z" fill="#570751"/>
<path d="M209.436 174.008C211.202 172.862 224.136 173.3 224.113 185.394C224.09 196.693 210.473 195.863 208.967 194.728C207.461 193.592 207.793 175.078 209.436 174.008Z" fill="#F568CC"/>
</svg>
