<svg width="280" height="280" viewBox="0 0 280 280" fill="none" xmlns="http://www.w3.org/2000/svg">
<path d="M126.871 77.9339C125.484 76.6972 115.394 23.9665 117.411 21.3039C119.428 18.6413 153.862 18.0242 157.267 22.1879C160.671 26.3516 156.134 75.1598 154.619 76.0413C153.105 76.9227 129.142 79.9665 126.871 77.9339Z" fill="#FA770C"/>
<path d="M167.357 74.9081C166.187 72.1081 173.535 32.8874 177.076 31.267C180.41 29.74 200.15 40.3411 200.285 44.1314C200.42 47.9218 185.463 78.8177 183.319 79.707C181.175 80.5962 167.691 75.7014 167.357 74.9081Z" fill="#F7CB0F"/>
<path d="M197.853 81.0295C195.429 78.8284 216.167 29.5017 219.447 28.2417C222.04 27.2409 243.04 46.5298 244.294 49.8095C245.396 52.6613 218.311 89.7898 214.15 89.7898C209.989 89.7898 199.243 82.2998 197.853 81.0295Z" fill="#FA770C"/>
<path d="M224.492 101.143C226.095 99.3073 258.422 76.0413 261.953 75.9169C265.484 75.7924 275.336 89.0406 274.558 91.6824C273.78 94.3243 233.574 118.674 232.06 117.79C230.546 116.906 223.621 102.141 224.492 101.143Z" fill="#F7CB0F"/>
<path d="M235.591 127.88C238.184 127.284 274.312 131.16 275.701 133.683C277.091 136.205 268.512 166.09 266.241 167.231C263.97 168.371 233.447 151.341 232.817 150.078C232.187 148.816 234.43 128.147 235.591 127.88Z" fill="#FA770C"/>
<path d="M195.611 209.357C196.057 211.743 218.146 251.316 221.845 250.854C225.88 250.349 259.303 215.16 258.8 210.493C258.297 205.826 222.6 184.764 219.701 185.646C216.803 186.527 195.365 208.053 195.611 209.357Z" fill="#FA770C"/>
<path d="M156.258 214.522C154.342 215.481 146.546 254.251 148.69 257.025C150.834 259.799 179.845 256.016 181.098 252.737C182.35 249.457 174.8 215.538 173.035 214.522C171.269 213.506 158.278 213.521 156.258 214.522Z" fill="#F7CB0F"/>
<path d="M108.583 206.332C107.027 206.851 89.0347 239.629 89.6569 242.53C90.2791 245.431 124.628 262.669 127.529 260.398C130.431 258.127 135.953 215.917 134.558 214.024C133.163 212.132 110.854 205.575 108.583 206.332Z" fill="#FA770C"/>
<path d="M78.4385 186.151C76.3644 186.151 50.957 213.016 51.1955 217.052C51.434 221.089 69.3437 232.691 72.0063 232.818C74.6689 232.945 88.2774 199.267 87.8911 197.629C87.5048 195.99 79.8255 186.151 78.4385 186.151Z" fill="#F7CB0F"/>
<path d="M71.8794 155.88C70.4353 152.992 8.18716 163.321 4.90753 166.601C1.6279 169.88 8.18716 203.81 12.9783 205.448C17.7694 207.087 75.4105 183.113 77.0516 180.64C78.6927 178.166 72.6364 157.394 71.8794 155.88Z" fill="#FA770C"/>
<path d="M70.9514 132.168C70.827 130.024 40.0996 112.846 37.4474 113.603C34.7951 114.36 26.224 134.818 26.9785 137.592C27.7329 140.366 67.97 147.185 70.114 145.411C72.2581 143.638 70.9514 132.168 70.9514 132.168Z" fill="#F7CB0F"/>
<path d="M87.2664 99.1231C87.8912 96.6757 54.5997 60.7812 51.7012 60.7812C48.8027 60.7812 31.8912 79.1887 32.2775 82.222C32.6638 85.2553 76.4216 113.629 79.1957 112.633C81.9697 111.638 86.8905 100.637 87.2664 99.1231Z" fill="#FA770C"/>
<path d="M113.755 83.8553C114.688 82.2427 105.933 45.1349 103.916 43.7453C101.899 42.3556 79.7014 50.556 79.1958 52.0701C78.6903 53.5842 94.6321 88.7812 97.4477 89.6653C100.263 90.5493 112.368 86.2586 113.755 83.8553Z" fill="#F7CB0F"/>
<path d="M143.31 69.0778C218.35 65.0126 246.817 103.168 238.596 153.153C227.487 220.83 170.076 225.061 150.559 223.716C131.042 222.37 61.1562 221.841 61.1562 149.785C61.1562 86.8241 120.078 70.3248 143.31 69.0778Z" fill="#F8DE76"/>
<path d="M113.558 101.672C113.581 103.774 112.075 105.498 110.188 105.517C108.741 105.532 107.364 104.192 107.336 102.743C107.302 100.928 109.41 98.6592 111.144 98.6436C112.666 98.6333 113.54 99.7273 113.558 101.672Z" fill="#3D1C07"/>
<path d="M156.336 91.1844C156.305 93.1029 154.78 94.814 153.137 94.757C151.781 94.7103 150.025 93.1159 150.025 91.9233C150.025 90.1085 151.822 88.2159 153.52 88.234C155.039 88.2625 156.357 89.634 156.336 91.1844Z" fill="#3D1C07"/>
<path d="M89.885 128.966C86.3772 128.966 83.7094 125.749 85.1483 123.522C86.0661 122.099 87.4816 120.87 88.9128 119.934C91.5779 118.202 95.4072 120.25 96.6905 122.106C98.0516 124.082 97.1598 127.001 94.7616 127.851C93.0765 128.448 91.2616 128.966 89.885 128.966Z" fill="#BE090E"/>
<path d="M177.66 101.122C175.438 101.122 173.628 99.7196 173.252 97.8892C172.814 95.8151 173.885 93.5985 175.967 92.8674C178.199 92.0896 180.475 92.1337 182.479 93.6451C184.26 94.9803 184.455 97.0155 183.024 98.7085C181.541 100.448 179.591 101.078 177.66 101.122Z" fill="#BE090E"/>
<path d="M94.2459 123.395C94.6892 123.379 95.1896 123.815 95.1611 124.23C95.0962 125.158 93.8933 126.646 92.9548 126.54C92.5425 126.493 91.9022 125.988 91.8581 125.632C91.7414 124.652 92.8433 123.392 94.2459 123.395Z" fill="#FBBDE8"/>
<path d="M182.093 96.6215C182.093 97.0856 180.748 98.0941 180.278 98.0941C179.897 98.0941 179.436 97.3863 179.4 97.0571C179.34 96.5385 180.538 95.6674 180.875 95.6208C181.022 95.5976 181.172 95.6058 181.316 95.6449C181.46 95.684 181.594 95.7531 181.709 95.8477C181.824 95.9422 181.918 96.06 181.984 96.1934C182.05 96.3268 182.087 96.4727 182.093 96.6215V96.6215Z" fill="#FBBDE8"/>
<path d="M136.614 127.717C134.311 127.717 130.223 126.26 127.28 124.002C125.206 122.412 125.605 120.271 127.939 119.076C132.932 116.483 138.475 115.215 143.754 114.012C147.267 113.354 148.496 114.225 147.803 118.036C146.777 123.703 142.439 127.712 136.614 127.717Z" fill="#BE090E"/>
</svg>
