<svg width="280" height="280" viewBox="0 0 280 280" fill="none" xmlns="http://www.w3.org/2000/svg">
<g filter="url(#filter0_d_405_484)">
<path d="M85.0207 132.478C85.6845 131.816 86.4881 131.659 87.4315 132.007C89.3532 132.914 90.2442 134.464 90.1044 136.66C90.4888 144.467 90.611 153.667 90.4713 164.262C90.3315 166.214 89.9297 168.305 89.2659 170.535C88.9165 171.232 88.4622 171.859 87.9032 172.417C86.8201 172.975 85.8243 173.759 84.9158 174.769C84.3219 175.432 83.6755 175.867 82.9767 176.076C81.6839 175.972 80.8803 175.24 80.5658 173.881C80.3911 173.288 79.8146 172.626 78.8363 171.894C77.7881 171.162 77.2989 170.727 77.3688 170.587C77.5435 170.518 78.155 170.535 79.2032 170.64C79.7273 170.64 80.2514 170.692 80.7755 170.796C81.9285 170.622 82.802 169.89 83.396 168.601C83.9201 166.998 84.2345 164.21 84.3393 160.237C84.7936 151.245 84.7062 142.689 84.0773 134.569C83.9026 134.081 84.217 133.384 85.0207 132.478ZM97.0749 147.324C97.5291 146.662 98.2803 146.418 99.3285 146.593C102.648 146.976 105.216 148.771 107.033 151.977C108.605 154.695 108.43 157.135 106.509 159.296C106.02 159.853 105.46 160.393 104.832 160.916C103.993 161.125 103.242 160.707 102.578 159.662C101.425 155.48 99.9225 151.994 98.0707 149.206C97.3719 148.44 97.04 147.812 97.0749 147.324ZM68.4592 151.716C69.158 150.74 69.8742 150.6 70.608 151.297C71.5164 152.029 72.6345 152.082 73.9622 151.454C74.4863 151.141 74.4688 151.489 73.9098 152.5C72.9315 154.591 72.5122 156.699 72.6519 158.825C72.8616 159.94 72.9315 160.725 72.8616 161.178C72.7218 161.735 72.023 162.031 70.7652 162.066C69.6821 161.962 68.8784 161.456 68.3543 160.55C67.1314 157.17 67.1664 154.225 68.4592 151.716Z" fill="#333333"/>
<path d="M139.37 131.537C139.999 130.073 140.855 129.655 141.938 130.282C142.811 130.701 143.283 131.276 143.353 132.007C143.388 133.123 143.859 133.558 144.768 133.314C146.864 132.931 148.961 132.617 151.057 132.373C151.791 132.234 152.542 132.53 153.311 133.262C153.975 133.75 154.149 134.447 153.835 135.353C153.555 136.05 152.996 136.468 152.158 136.608L144.191 137.706C142.794 137.462 141.903 138.193 141.518 139.901C141.309 141.016 141.815 141.452 143.038 141.208L148.961 140.163C149.869 140.058 150.708 140.581 151.476 141.731C152.105 143.02 151.494 143.961 149.642 144.554L147.912 144.763C147.004 144.902 146.515 145.094 146.445 145.338C146.55 146.906 147.511 147.865 149.328 148.213C151.424 148.109 153.52 147.934 155.617 147.69C157.853 147.307 159.478 148.387 160.491 150.931C160.491 152.395 159.6 152.97 157.818 152.657C156.77 152.482 155.722 152.36 154.673 152.291C153.8 152.151 153.293 152.308 153.153 152.761C153.153 153.075 153.503 153.458 154.202 153.911C157.556 155.967 160.578 158.79 163.269 162.38C164.002 163.495 163.618 163.757 162.116 163.164C160.473 162.746 159.111 162.816 158.028 163.373C156.42 163.548 154.534 162.624 152.367 160.603C151.494 160.115 151.109 160.341 151.214 161.282C151.144 161.979 150.725 162.485 149.956 162.798C147.965 162.938 146.061 163.635 144.244 164.889C143.65 165.482 143.405 166.301 143.51 167.346V171.372C143.265 173.741 141.833 175.554 139.212 176.808C138.549 177.819 137.832 178.289 137.064 178.22C136.365 177.767 136.033 177.174 136.068 176.442C136.173 175.815 135.858 175.118 135.124 174.351C134.146 173.41 134.181 172.94 135.229 172.94C137.186 173.428 138.374 172.469 138.793 170.065C138.968 169.507 139.003 168.479 138.898 166.98C139.038 163.007 138.985 160.306 138.741 158.877C138.252 157.344 138.531 156.159 139.579 155.323C140.627 154.417 141.623 154.573 142.567 155.793C143.3 157.327 143.615 159.505 143.51 162.328C143.894 162.885 144.488 162.694 145.292 161.753C146.69 160.463 148.157 159.662 149.694 159.348C150.253 158.93 150.061 158.32 149.118 157.518C148.279 156.577 147.249 155.218 146.026 153.441C145.502 152.535 144.733 152.116 143.72 152.186C141.204 152.326 138.828 152.604 136.592 153.023C135.753 153.406 135.124 154.225 134.705 155.48L133.29 157.571C132.312 158.755 132.679 159.522 134.391 159.871C136.382 160.672 137.116 161.892 136.592 163.53C136.452 163.635 135.771 163.582 134.548 163.373C133.849 163.234 133.15 163.025 132.452 162.746C131.683 162.328 131.054 162.119 130.565 162.119C129.936 162.153 129.045 162.833 127.892 164.157C126.04 165.83 124.066 167.381 121.97 168.81C120.782 169.542 120.415 169.28 120.869 168.026C122.127 165.029 124.171 161.683 127.001 157.989C127.595 157.152 127.892 156.63 127.892 156.42C127.787 156.211 127.211 156.194 126.162 156.368C124.625 157.065 123.245 156.577 122.022 154.904C120.694 153.301 121.114 152.186 123.28 151.559C126.914 150.722 129.709 150.234 131.665 150.095C132.958 149.712 133.57 148.771 133.5 147.272C133.36 147.133 132.766 147.063 131.718 147.063C130.25 147.063 129.202 146.105 128.573 144.188C128.713 143.421 129.359 142.951 130.512 142.776C131.91 142.532 133.308 142.341 134.705 142.201C135.998 142.271 136.802 141.591 137.116 140.163C137.186 139.012 136.627 138.647 135.439 139.065L131.613 139.587C129.552 140.319 127.927 139.657 126.739 137.601C126.285 136.242 126.756 135.44 128.154 135.196C131.299 134.813 134.443 134.482 137.588 134.203C138.147 134.203 138.583 133.872 138.898 133.21C139.003 132.652 139.16 132.095 139.37 131.537ZM141.361 146.227C140.138 145.739 139.212 146.174 138.583 147.534C138.339 148.161 138.391 148.596 138.741 148.84C140.767 148.91 142.182 148.701 142.986 148.213C143.196 147.621 142.654 146.958 141.361 146.227ZM127.473 169.803C129.918 168.583 132.364 167.521 134.81 166.614C135.858 166.266 136.365 166.144 136.33 166.248C134.024 168.026 132.137 170.082 130.67 172.417C130.18 173.323 129.569 173.672 128.835 173.463C127.368 172.731 126.686 171.737 126.791 170.483C126.896 170.309 127.123 170.082 127.473 169.803ZM145.764 167.503C145.868 167.329 146.445 167.277 147.493 167.346C150.288 167.625 152.525 168.409 154.202 169.699C154.865 170.431 155.128 171.302 154.988 172.313C154.324 173.811 153.258 174.282 151.791 173.724C150.673 173.132 148.996 171.633 146.759 169.228C146.061 168.218 145.729 167.642 145.764 167.503Z" fill="#333333"/>
<path d="M205.616 131.903C206.769 130.509 207.869 130.579 208.917 132.112C210.14 133.332 210.682 134.761 210.542 136.399C210.507 137.688 210.525 139.03 210.595 140.424C210.769 143.63 209.424 146.07 206.559 147.743C205.511 148.126 204.917 148.3 204.777 148.265C204.393 147.359 203.886 146.958 203.257 147.063C201.86 147.377 200.462 147.603 199.064 147.743C198.401 147.673 197.807 147.882 197.282 148.37C196.968 148.893 196.601 148.997 196.182 148.684C195.239 147.568 194.592 146.122 194.243 144.345C193.579 139.953 193.754 136.346 194.767 133.523C195.221 131.816 196.042 131.38 197.23 132.217C198.208 132.948 199.257 133.123 200.375 132.739C202.96 132.67 204.707 132.391 205.616 131.903ZM176.214 134.726C176.668 133.68 177.541 133.611 178.834 134.517C179.428 134.9 180.529 135.005 182.136 134.83C184.302 134.795 185.77 134.621 186.538 134.308C187.657 133.367 188.705 133.279 189.683 134.046C190.172 134.36 190.399 134.743 190.364 135.196C189.735 137.706 188.285 140.424 186.014 143.351C184.547 144.815 184.617 146.209 186.224 147.534C188.076 150.043 188.198 152.831 186.591 155.898C185.717 157.327 184.791 158.215 183.813 158.564C182.52 159.156 181.752 159.435 181.507 159.4C180.983 159.296 180.738 158.93 180.773 158.302C180.669 157.292 180.144 156.647 179.201 156.368C178.991 156.508 178.817 157.1 178.677 158.146C178.572 162.676 178.694 166.806 179.044 170.535C179.323 172.243 179.254 173.672 178.834 174.822C178.17 176.286 177.437 176.721 176.633 176.129C175.69 175.013 175.113 173.689 174.904 172.156C174.31 159.993 174.344 150.13 175.008 142.567C175.253 139.326 175.655 136.712 176.214 134.726ZM203.624 134.674C202.296 135.231 200.899 135.597 199.431 135.771C198.523 136.224 198.051 136.834 198.016 137.601C197.946 138.786 198.593 139.082 199.955 138.49C200.969 138.246 201.772 138.281 202.366 138.594C203.24 138.803 203.572 139.291 203.362 140.058C202.558 141.313 201.126 141.94 199.064 141.94C198.086 142.219 197.737 142.863 198.016 143.874C198.401 144.85 199.064 145.129 200.008 144.711C201.336 144.327 202.541 144.153 203.624 144.188C205.127 144.815 205.808 144.258 205.668 142.515L205.825 140.79C205.86 138.978 205.825 137.165 205.72 135.353C205.301 134.412 204.602 134.186 203.624 134.674ZM184.232 138.751C182.8 138.856 181.175 139.518 179.358 140.738C179.149 141.121 179.009 141.923 178.939 143.142C178.625 146.906 178.537 150.688 178.677 154.486C178.957 155.636 179.673 156.089 180.826 155.845C182.293 155.985 183.411 155.236 184.18 153.598C184.774 152.134 184.879 150.409 184.495 148.422C184.075 146.889 183.254 146.627 182.031 147.638C181.263 147.987 181.053 147.603 181.402 146.488C181.961 144.641 182.87 142.654 184.128 140.528C184.582 139.936 184.617 139.344 184.232 138.751ZM192.88 151.611C199.554 150.426 206.577 149.747 213.949 149.572C215.905 149.293 217.251 150.078 217.984 151.925C218.229 153.598 217.513 154.225 215.836 153.807C210.175 153.528 204.882 153.807 199.955 154.643C199.222 154.678 198.628 154.922 198.173 155.375C197.754 156.177 197.964 156.769 198.802 157.152C200.2 156.908 201.598 156.717 202.995 156.577C204.672 156.577 206.577 156.664 208.708 156.839C209.442 156.978 210.036 156.908 210.49 156.63C211.608 155.933 212.586 156.02 213.425 156.891C215.346 159.435 215.381 163.582 213.53 169.333C213.075 170.971 212.132 172.888 210.699 175.083C210.245 175.501 209.511 175.745 208.498 175.815C207.31 175.92 206.122 176.251 204.934 176.808C203.746 177.226 202.838 177.314 202.209 177.07C201.86 176.93 201.563 176.251 201.318 175.031L201.004 174.351C200.41 173.306 200.637 172.905 201.685 173.149C203.048 173.393 204.27 173.097 205.354 172.26C207.31 170.448 208.708 167.677 209.546 163.948C209.861 162.729 209.896 161.16 209.651 159.243C209.337 158.546 208.883 158.337 208.289 158.616C207.24 158.93 207.031 159.47 207.66 160.237C208.358 161.282 208.009 162.345 206.611 163.426C204.061 165.795 201.58 168.514 199.169 171.581C197.492 173.707 195.605 174.944 193.509 175.292C192.391 175.71 192.076 175.432 192.566 174.456C194.837 170.378 198.523 166.109 203.624 161.648C204.393 160.707 204.777 160.132 204.777 159.923C204.288 159.435 203.187 159.522 201.475 160.184C200.497 160.428 199.938 160.899 199.798 161.596C199.728 161.91 199.571 162.258 199.326 162.641C197.824 163.861 196.304 165.273 194.767 166.876C193.439 168.444 192.251 169.333 191.203 169.542C190.085 169.925 189.805 169.577 190.364 168.496C191.587 166.545 193.299 164.523 195.501 162.432C196.549 161.247 196.199 160.498 194.452 160.184C193.823 160.254 193.142 160.742 192.408 161.648C191.081 162.798 189.823 163.53 188.635 163.844C187.482 164.088 187.15 163.739 187.639 162.798C188.373 161.474 189.613 159.958 191.36 158.25C192.094 157.414 192.373 156.926 192.199 156.786C191.535 156.542 190.854 156.229 190.155 155.845C188.967 154.904 188.827 153.894 189.735 152.813C190.504 152.047 191.552 151.646 192.88 151.611Z" fill="#333333"/>
<path d="M65.3146 193.85C66.9917 192.909 68.3194 193.362 69.2977 195.21C69.6821 196.464 70.7128 196.534 72.3899 195.419C73.9971 194.687 75.2724 195.227 76.2158 197.039C76.7748 198.085 76.2857 199.008 74.7483 199.81C73.5254 200.402 71.761 200.646 69.4549 200.542C67.7429 200.158 66.3977 200.629 65.4194 201.953C65.1049 202.267 65.07 202.668 65.3146 203.156C66.6073 203.818 67.2712 204.567 67.3061 205.403C67.2712 206.379 66.6947 206.954 65.5766 207.129L63.4802 207.442C62.7814 207.686 62.3447 207.878 62.17 208.017C62.0652 208.226 62.0652 208.854 62.17 209.899C62.135 211.328 62.8688 211.799 64.3712 211.311C65.4194 211.311 66.0483 210.701 66.2579 209.481C66.4676 208.575 66.9567 208.035 67.7254 207.86C68.3893 207.651 69.0531 208 69.717 208.906C70.4857 210.021 71.3941 210.631 72.4423 210.736C73.805 210.631 75.1676 210.579 76.5303 210.579C78.2423 210.23 79.5526 210.927 80.461 212.67C81.2297 214.447 80.6008 215.249 78.5743 215.075C75.7791 214.935 72.9839 214.865 70.1887 214.865C69.2802 214.865 68.3718 215.65 67.4634 217.218C66.7646 218.194 66.4152 218.804 66.4152 219.048C66.7646 219.501 67.5332 219.605 68.7212 219.361L72.914 218.943C73.8574 218.908 74.7483 219.309 75.5869 220.145C76.9146 222.062 76.4953 223.212 74.3291 223.596C73.0712 223.63 71.6037 223.526 69.9266 223.282C67.7953 223.282 65.3146 223.421 62.4844 223.7C61.1917 224.014 60.7549 225.112 61.1742 226.994C61.4537 227.621 62.0302 227.847 62.9037 227.673C64.3013 227.464 65.6989 227.325 67.0965 227.255C69.6122 226.663 71.0971 227.76 71.5513 230.548C71.3417 231.036 70.9923 231.193 70.5031 231.019C67.7778 231.054 65.0525 231.158 62.3272 231.333C61.873 231.402 61.4887 231.681 61.1742 232.169C61.4887 235.515 61.1218 238.041 60.0736 239.749C58.9206 240.795 58.2567 241.23 58.082 241.056C57.3133 239.348 56.9814 236.752 57.0862 233.267C57.0513 232.709 56.7368 232.378 56.1428 232.274C52.8934 233.249 50.5525 233.528 49.1199 233.11C48.3163 232.761 47.7922 232.152 47.5476 231.28C47.338 230.897 47.4778 230.461 47.9669 229.973C48.3513 229.695 48.9627 229.485 49.8013 229.346L54.9898 228.562C56.6669 228.457 57.3657 227.725 57.0862 226.366C57.4356 225.007 56.8242 224.362 55.2519 224.432C52.2471 224.85 49.4519 225.338 46.8663 225.896C45.5037 226.384 44.5603 225.826 44.0362 224.223C43.7916 223.805 43.8964 223.317 44.3506 222.759C45.294 222.097 46.5169 221.644 48.0193 221.4C49.7314 221.365 50.2031 220.564 49.4344 218.995C49.085 217.95 48.3163 217.688 47.1284 218.211C46.0103 218.629 44.6127 218.978 42.9356 219.257C42.0621 219.326 41.2585 218.978 40.5247 218.211C39.5115 216.782 39.9657 215.65 41.8874 214.813C43.4247 214.221 45.3988 213.768 47.8097 213.454C48.6482 212.966 49.085 212.496 49.1199 212.043C49.9934 210.614 51.0242 210.718 52.2121 212.356C53.2603 212.67 54.5181 212.652 55.9856 212.304C56.8941 212.06 57.3133 211.555 57.2435 210.788C57.2784 209.324 56.4748 208.923 54.8326 209.586C53.2254 210.108 51.688 209.603 50.2205 208.07C49.5567 207.129 49.8711 206.414 51.1639 205.926C52.0724 205.717 52.4218 205.247 52.2121 204.515C52.282 204.062 51.9501 203.609 51.2163 203.156L47.2856 203.417C45.888 203.208 45.0494 202.249 44.7699 200.542C44.5952 199.705 45.1892 199.165 46.5519 198.921C47.2506 198.921 47.9494 198.851 48.6482 198.712C50.2555 198.712 50.8844 197.945 50.535 196.412C51.094 193.589 52.3693 192.997 54.3609 194.635C55.0597 195.192 55.4091 195.767 55.4091 196.36C55.6188 197.475 56.2477 197.841 57.2959 197.457C58.0296 197.388 58.4314 197.457 58.5013 197.667C58.3965 198.991 57.4531 200.176 55.6712 201.221C54.4832 201.953 54.2212 203.034 54.885 204.462C55.3043 204.95 55.9332 205.038 56.7718 204.724L60.4929 203.783C61.1567 203.4 61.7507 202.598 62.2748 201.378C62.764 200.507 62.4844 199.914 61.4362 199.601C60.7374 199.322 60.9121 199.008 61.9603 198.66C63.5326 198.451 64.4061 197.492 64.5808 195.785C64.6856 194.983 64.9302 194.338 65.3146 193.85ZM64.6332 215.441C63.7947 215.057 62.8862 215.022 61.9079 215.336C61.6633 215.58 61.5061 216.225 61.4362 217.27C61.2615 218.316 61.4537 218.96 62.0127 219.204C62.5718 219.1 63.2881 218.455 64.1616 217.27C64.7905 216.643 64.9477 216.033 64.6332 215.441ZM54.885 216.277C53.2428 216.486 52.7187 217.392 53.3127 218.995C53.1031 220.738 53.9416 221.226 55.8284 220.459C56.3175 220.389 56.7368 220.111 57.0862 219.623C57.191 218.682 57.2085 217.723 57.1386 216.747C56.7194 216.085 55.9681 215.928 54.885 216.277Z" fill="#333333"/>
<path d="M123.542 201.692C125.184 201.274 126.407 201.901 127.211 203.574C127.595 205.003 126.809 206.222 124.852 207.233C123.594 207.756 122.319 208.209 121.026 208.592C120.118 208.836 119.576 209.08 119.402 209.324C119.367 209.568 119.541 209.934 119.926 210.422C120.799 210.805 121.044 211.346 120.659 212.043C119.052 214.761 118.144 217.549 117.934 220.407C117.899 221.417 117.672 222.655 117.253 224.118C117.218 224.537 117.55 225.025 118.248 225.582C121.253 227.499 124.049 229.015 126.634 230.13C130.617 232.012 133.989 233.912 136.749 235.828C137.588 236.978 137.413 237.484 136.225 237.344C134.199 236.926 131.84 237.292 129.15 238.442C127.542 238.512 126.075 238.181 124.747 237.449C121.183 235.881 117.707 233.546 114.318 230.444C113.479 229.782 112.431 229.956 111.173 230.967C106.91 233.476 102.718 235.079 98.5948 235.776C96.8478 236.02 95.1008 236.334 93.3538 236.717C92.0261 237.066 91.5894 237.013 92.0436 236.56C92.3231 236.281 92.8996 235.985 93.7731 235.671C95.3803 235.149 98.1755 233.946 102.159 232.064C104.604 231.158 107.05 229.573 109.496 227.307C110.055 226.575 109.776 225.652 108.657 224.537C107.085 222.899 105.583 221.766 104.15 221.139C102.927 220.616 101.914 219.884 101.11 218.943C100.237 217.828 100.412 216.8 101.635 215.859C102.613 215.092 104.01 215.249 105.827 216.329C107.574 217.201 109.671 218.647 112.117 220.668C112.92 221.295 113.514 221.086 113.898 220.041C114.597 216.835 115.873 213.628 117.724 210.422C117.724 210.283 117.62 210.126 117.41 209.952C116.886 209.917 116.082 210.039 114.999 210.317C110.107 211.433 105.915 212.478 102.421 213.454C99.4858 214.29 97.4593 213.245 96.3412 210.317C95.9219 208.993 96.5683 207.965 98.2803 207.233C102.263 206.78 105.897 206.17 109.182 205.403C109.321 204.149 109.409 202.79 109.444 201.326C109.409 200.315 109.182 199.322 108.762 198.346C108.483 197.998 108.326 197.649 108.291 197.301C108.186 196.151 108.5 195.488 109.234 195.314C110.701 194.966 112.326 195.401 114.108 196.621C115.576 198.12 116.152 199.479 115.838 200.699C115.733 201.326 115.611 202.11 115.471 203.051C115.436 203.225 115.401 203.487 115.366 203.835L123.542 201.692Z" fill="#333333"/>
<path d="M168.247 194.635C169.226 193.694 169.82 193.258 170.029 193.328C171.462 194.164 171.916 195.14 171.392 196.255C171.217 196.464 170.973 196.656 170.658 196.83C169.82 197.074 169.121 197.475 168.562 198.032C167.898 198.695 167.234 199.27 166.57 199.758C166.291 200.141 166.151 200.437 166.151 200.646C166.815 201.169 167.898 200.925 169.4 199.914C170.903 198.59 172.213 198.817 173.331 200.594C174.03 201.709 174.449 202.842 174.589 203.992C175.218 204.584 176.144 204.271 177.367 203.051L181.35 195.732C182.398 194.199 183.516 193.99 184.704 195.105C185.578 196.151 185.333 197.405 183.97 198.869C181.56 201.274 180.284 203.417 180.144 205.299C180.913 206.623 181.822 206.414 182.87 204.672C183.394 204.044 183.918 203.469 184.442 202.946C184.791 202.598 185.228 202.685 185.752 203.208C187.045 204.358 186.888 205.735 185.281 207.338C184.163 208.871 183.481 209.986 183.237 210.683C183.307 211.206 183.604 211.328 184.128 211.049C185.281 211.189 186.434 212.165 187.587 213.977C188.705 215.998 188.635 217.741 187.377 219.204C186.608 220.006 186.119 219.971 185.91 219.1C185.91 217.741 185.298 217.357 184.075 217.95C182.154 218.751 180.179 219.414 178.153 219.936C177 220.355 176.126 220.302 175.532 219.779C174.764 218.664 173.925 218.542 173.017 219.414C172.318 220.076 171.619 220.598 170.92 220.982C170.361 221.365 170.291 222.045 170.711 223.021C171.13 223.752 171.776 224.066 172.65 223.962C176.843 223.613 181.035 223.317 185.228 223.073C187.709 223.282 189.229 224.606 189.788 227.046C189.473 228.335 188.478 228.788 186.801 228.405C182.503 228.091 178.153 227.935 173.75 227.935C171.969 227.83 171.252 228.562 171.602 230.13C171.707 232.953 171.41 235.515 170.711 237.815C170.361 238.512 169.4 239.348 167.828 240.324C167.479 240.568 167.182 240.864 166.937 241.213C165.819 242.328 165.05 242.258 164.631 241.004C164.631 240.063 163.932 239.122 162.535 238.181C161.487 237.588 161.487 237.309 162.535 237.344C163.094 237.344 163.653 237.397 164.212 237.501C165.26 237.675 166.046 236.944 166.57 235.306C166.78 233.737 166.92 232.152 166.99 230.548C167.409 229.259 166.78 228.614 165.103 228.614C160.91 229.137 156.717 230.217 152.525 231.855C150.568 232.657 148.908 232.012 147.546 229.921C146.602 228.388 146.987 227.36 148.699 226.837C153.136 225.931 158.552 225.181 164.946 224.589C166.588 224.554 167.112 223.822 166.518 222.393C166.273 221.208 166.815 220.738 168.143 220.982C168.946 221.191 169.331 220.842 169.296 219.936C168.946 218.995 168.405 218.542 167.671 218.577C167.112 218.577 166.448 219.082 165.679 220.093C165.295 221.522 164.561 221.574 163.478 220.25C163.129 219.274 162.517 219.222 161.644 220.093C161.12 220.616 160.77 220.86 160.596 220.825C160.421 220.686 160.264 220.389 160.124 219.936C160.159 219.414 159.914 219.048 159.39 218.838C158.691 218.873 157.381 219.274 155.459 220.041L152.315 221.034C151.441 221.417 150.638 221.104 149.904 220.093C148.961 219.292 149.153 218.438 150.481 217.532C151.075 216.904 151.476 216.207 151.686 215.441C151.965 214.744 152.315 214.046 152.734 213.349C153.678 211.99 153.52 211.049 152.262 210.527L150.166 209.899C149.502 209.62 149.135 208.993 149.065 208.017C149.1 207.181 149.502 206.554 150.271 206.135C151.109 206.031 151.756 205.595 152.21 204.828C153.293 202.737 154.289 200.646 155.197 198.555C155.547 197.405 156.053 196.534 156.717 195.941C157.765 195.07 158.744 195.314 159.652 196.673C160.037 198.207 159.32 199.758 157.503 201.326C155.582 203.975 154.778 205.996 155.093 207.39C155.477 207.878 156.071 207.599 156.875 206.554C157.993 205.438 158.691 204.968 158.971 205.142C160.264 206.397 160.369 207.721 159.285 209.115C157.713 211.067 156.578 213.245 155.879 215.65C156.403 216.451 157.206 216.434 158.29 215.597C158.779 215.319 158.796 214.709 158.342 213.768C157.958 212.792 158.29 212.252 159.338 212.147C159.547 212.252 159.949 212.548 160.543 213.036C161.312 213.872 161.819 213.803 162.063 212.827C161.923 209.098 162.081 205.456 162.535 201.901C162.779 199.845 163.531 198.764 164.788 198.66C165.417 199.043 165.906 199.008 166.256 198.555C166.85 197.266 167.514 195.959 168.247 194.635ZM168.143 202.476C167.094 202.859 166.273 203.661 165.679 204.881C165.54 205.717 165.522 206.554 165.627 207.39C165.802 207.878 166.116 208.087 166.57 208.017C167.269 207.808 167.968 207.651 168.667 207.547C170.344 207.791 170.99 207.076 170.606 205.403C170.676 204.428 170.623 203.678 170.449 203.156C169.96 202.215 169.191 201.988 168.143 202.476ZM176.423 208.435C175.235 207.878 174.746 208.366 174.956 209.899C174.886 211.572 174.869 213.297 174.904 215.075C174.869 215.528 175.043 215.911 175.428 216.225C176.022 216.05 176.476 215.528 176.79 214.656L178.729 210.788C178.799 209.847 178.031 209.063 176.423 208.435ZM169.663 209.899C167.671 210.352 166.378 210.945 165.784 211.677C165.679 212.652 165.644 213.628 165.679 214.604C165.609 215.545 166.046 216.016 166.99 216.016L169.086 215.911C169.68 215.876 170.134 215.58 170.449 215.022C170.553 213.663 170.588 212.304 170.553 210.945C170.588 210.387 170.291 210.039 169.663 209.899ZM183.656 212.618C183.027 211.502 182.328 211.659 181.56 213.088C181.035 213.855 180.931 214.5 181.245 215.022C181.525 215.371 182.101 215.388 182.975 215.075C184.302 214.726 184.529 213.907 183.656 212.618ZM178.415 231.019C179.708 230.67 181.228 231.367 182.975 233.11C184.302 234.852 184.599 236.403 183.866 237.763C182.748 239.366 181.577 239.575 180.354 238.39C179.655 236.508 179.044 235.114 178.52 234.208C177.856 233.023 177.611 232.186 177.786 231.698C177.926 231.385 178.135 231.158 178.415 231.019ZM154.621 233.371C154.935 232.849 155.39 232.692 155.984 232.901C156.682 233.249 157.346 233.493 157.975 233.633C158.569 233.598 158.656 234.173 158.237 235.358C157.958 236.369 157.888 237.675 158.028 239.279C158.062 239.627 157.818 239.923 157.294 240.167C156.036 240.446 155.128 240.324 154.568 239.801C153.241 237.501 153.258 235.358 154.621 233.371Z" fill="#333333"/>
<path d="M231.663 197.092C233.306 196.046 234.948 196.534 236.59 198.555C238.232 201.831 239.175 205.665 239.42 210.056C239.665 213.541 239.839 217.044 239.944 220.564C240.084 224.362 239.962 227.325 239.577 229.451C239.333 232.03 238.616 234.121 237.428 235.724C236.765 236.386 236.083 236.874 235.384 237.188C233.777 238.686 232.31 239.488 230.982 239.592C230.283 239.104 229.951 238.494 229.986 237.763C229.742 236.926 229.165 236.508 228.257 236.508C222.841 235.811 216.185 236.02 208.289 237.135C207.834 237.205 207.38 237.501 206.926 238.024C206.786 238.616 206.367 239.069 205.668 239.383C204.969 239.488 204.358 238.965 203.834 237.815C202.925 236.003 202.436 233.215 202.366 229.451C202.157 225.617 202.069 221.766 202.104 217.898C202.454 212.461 203.17 206.885 204.253 201.169C204.428 200.472 204.672 199.775 204.987 199.078C205.336 197.823 205.983 197.475 206.926 198.032C207.136 198.276 207.782 198.381 208.865 198.346L217.198 197.248C222.719 196.76 226.999 196.778 230.039 197.301C230.493 197.44 231.034 197.37 231.663 197.092ZM230.563 199.549C228.571 199.932 225.968 200.193 222.754 200.333C221.845 200.402 221.374 200.699 221.339 201.221C221.793 202.162 222.684 202.424 224.012 202.005C224.92 201.831 225.479 202.005 225.689 202.528C225.898 203.748 225.13 204.689 223.383 205.351C221.81 205.665 221.356 206.344 222.02 207.39C222.614 207.495 223.418 207.39 224.431 207.076C226.318 206.658 227.942 206.536 229.305 206.71C229.829 206.919 230.143 207.285 230.248 207.808C230.213 209.028 229.27 209.708 227.418 209.847C223.225 210.753 219.033 211.729 214.84 212.774C214.106 212.984 213.233 213.053 212.219 212.984C211.276 213.018 210.63 212.722 210.28 212.095C209.896 211.328 210.07 210.649 210.804 210.056C211.643 209.533 213.04 209.15 214.997 208.906C215.696 208.767 216.395 208.679 217.093 208.645C218.246 208.226 218.421 207.599 217.618 206.763C216.884 206.623 216.133 206.536 215.364 206.501C214.281 205.804 213.984 205.055 214.473 204.253C215.207 203.661 216.01 203.347 216.884 203.312C217.792 203.417 218.439 202.842 218.823 201.587C218.823 200.925 218.404 200.681 217.565 200.855C214.071 201.552 211.276 202.267 209.18 202.999C208.201 203.522 207.712 204.131 207.712 204.828C206.14 211.415 205.755 220.32 206.559 231.542C206.454 232.239 206.716 232.814 207.345 233.267C208.114 233.371 209.599 233.267 211.8 232.953L224.378 231.698C225.986 231.594 227.383 231.855 228.571 232.483C229.829 233.493 230.877 233.807 231.716 233.424C233.218 232.204 233.969 230.148 233.969 227.255C234.563 218.751 234.319 211.311 233.236 204.933C232.921 202.912 232.607 201.518 232.292 200.751C232.048 199.845 231.471 199.444 230.563 199.549ZM216.831 214.134C220.465 213.088 223.627 212.67 226.318 212.879C227.296 213.367 227.505 214.221 226.946 215.441C225.514 218.054 224.029 219.431 222.492 219.57L220.395 219.779C218.893 220.337 218.439 222.236 219.033 225.478C219.033 225.931 219.33 226.244 219.924 226.419C221.845 225.931 223.086 225.39 223.645 224.798C223.715 224.519 223.33 224.066 222.492 223.439C220.954 223.195 220.605 222.533 221.443 221.452C221.828 221.139 222.282 221.121 222.806 221.4C223.749 221.923 224.693 221.627 225.636 220.511C226.265 219.466 227.051 218.647 227.995 218.054C228.868 217.741 229.48 218.072 229.829 219.048C230.109 220.407 229.41 221.086 227.733 221.086C226.894 221.261 226.283 221.522 225.898 221.871C225.619 222.219 225.828 222.637 226.527 223.125C228.065 223.752 229.41 224.798 230.563 226.262C231.087 226.959 231.279 227.725 231.139 228.562C229.777 230.06 228.012 229.346 225.846 226.419C224.937 225.303 223.907 225.39 222.754 226.68C221.216 228.074 219.819 229.137 218.561 229.869C216.989 230.984 215.713 231.42 214.735 231.176C213.687 230.653 213.075 229.869 212.901 228.823C213.075 228.649 213.687 228.457 214.735 228.248C216.657 228.074 217.338 227.011 216.779 225.059C216.744 224.362 216.692 223.927 216.622 223.752C216.098 223.195 215.381 223.421 214.473 224.432C213.075 225.652 211.608 226.802 210.07 227.882C208.952 228.579 208.638 228.44 209.127 227.464C210.455 225.478 212.132 223.509 214.158 221.557C214.613 220.651 214.578 219.954 214.054 219.466C212.656 217.863 212.604 216.068 213.896 214.081C214.071 213.977 214.333 213.994 214.683 214.134C215.032 214.412 215.748 214.412 216.831 214.134ZM221.339 214.97C220.675 215.005 219.993 215.109 219.295 215.284C218.246 215.493 217.478 215.841 216.989 216.329C216.115 217.375 216.237 218.141 217.355 218.629C218.858 218.211 220.36 217.915 221.863 217.741C222.736 217.532 223.19 217.044 223.225 216.277C223.505 215.057 222.876 214.622 221.339 214.97Z" fill="#333333"/>
</g>
<defs>
<filter id="filter0_d_405_484" x="36" y="130" width="208" height="120" filterUnits="userSpaceOnUse" color-interpolation-filters="sRGB">
<feFlood flood-opacity="0" result="BackgroundImageFix"/>
<feColorMatrix in="SourceAlpha" type="matrix" values="0 0 0 0 0 0 0 0 0 0 0 0 0 0 0 0 0 0 127 0" result="hardAlpha"/>
<feOffset dy="4"/>
<feGaussianBlur stdDeviation="2"/>
<feComposite in2="hardAlpha" operator="out"/>
<feColorMatrix type="matrix" values="0 0 0 0 1 0 0 0 0 1 0 0 0 0 1 0 0 0 0.6 0"/>
<feBlend mode="normal" in2="BackgroundImageFix" result="effect1_dropShadow_405_484"/>
<feBlend mode="normal" in="SourceGraphic" in2="effect1_dropShadow_405_484" result="shape"/>
</filter>
</defs>
</svg>
