<svg width="720" height="720" viewBox="0 0 720 720" fill="none" xmlns="http://www.w3.org/2000/svg">
<path d="M703.901 670H16.0992C13.283 670 11 672.638 11 675.892V684.108C11 687.362 13.283 690 16.0992 690H703.901C706.717 690 709 687.362 709 684.108V675.892C709 672.638 706.717 670 703.901 670Z" fill="#603813" stroke="#603813" stroke-miterlimit="10"/>
<path d="M120 669.766L360 346L150.634 669.766H120Z" fill="#603813"/>
<path d="M600 669.766L360 346L569.366 669.766H600Z" fill="#603813"/>
<path d="M360 71V346" stroke="#603813" stroke-width="10" stroke-miterlimit="10"/>
<path d="M521.641 124L360 346.48" stroke="#603813" stroke-width="10" stroke-miterlimit="10"/>
<path d="M621.541 261L360 345.98" stroke="#603813" stroke-width="10" stroke-miterlimit="10"/>
<path d="M621.541 430.98L360 346" stroke="#603813" stroke-width="10" stroke-miterlimit="10"/>
<path d="M521.641 568.48L360 346" stroke="#603813" stroke-width="10" stroke-miterlimit="10"/>
<path d="M360 621L360 346" stroke="#603813" stroke-width="10" stroke-miterlimit="10"/>
<path d="M198 568.48L359.641 346" stroke="#603813" stroke-width="10" stroke-miterlimit="10"/>
<path d="M98 430.98L359.541 346" stroke="#603813" stroke-width="10" stroke-miterlimit="10"/>
<path d="M98 261L359.541 345.98" stroke="#603813" stroke-width="10" stroke-miterlimit="10"/>
<path d="M198 124L359.641 346.48" stroke="#603813" stroke-width="10" stroke-miterlimit="10"/>
<path d="M606 346C606 481.862 495.862 592 360 592C224.138 592 114 481.862 114 346C114 210.138 224.138 100 360 100C495.862 100 606 210.138 606 346Z" stroke="#603813" stroke-width="8" stroke-miterlimit="10"/>
<path d="M627 346C627 493.46 507.46 613 360 613C212.54 613 93 493.46 93 346C93 198.54 212.54 79 360 79C507.46 79 627 198.54 627 346Z" stroke="#603813" stroke-width="16" stroke-miterlimit="10"/>
<path d="M360 112C382.644 112 401 93.6437 401 71C401 48.3563 382.644 30 360 30C337.356 30 319 48.3563 319 71C319 93.6437 337.356 112 360 112Z" fill="#FFFB78"/>
<path d="M479 139C501.644 139 520 120.644 520 98C520 75.3563 501.644 57 479 57C456.356 57 438 75.3563 438 98C438 120.644 456.356 139 479 139Z" fill="#FC987A"/>
<path d="M575 216C597.644 216 616 197.644 616 175C616 152.356 597.644 134 575 134C552.356 134 534 152.356 534 175C534 197.644 552.356 216 575 216Z" fill="#7AEDF2"/>
<path d="M628 326C650.644 326 669 307.644 669 285C669 262.356 650.644 244 628 244C605.356 244 587 262.356 587 285C587 307.644 605.356 326 628 326Z" fill="#A4FF94"/>
<path d="M628 448C650.644 448 669 429.644 669 407C669 384.356 650.644 366 628 366C605.356 366 587 384.356 587 407C587 429.644 605.356 448 628 448Z" fill="#FFA1E7"/>
<path d="M575 558C597.644 558 616 539.644 616 517C616 494.356 597.644 476 575 476C552.356 476 534 494.356 534 517C534 539.644 552.356 558 575 558Z" fill="#FFFB78"/>
<path d="M479 635C501.644 635 520 616.644 520 594C520 571.356 501.644 553 479 553C456.356 553 438 571.356 438 594C438 616.644 456.356 635 479 635Z" fill="#7AEDF2"/>
<path d="M360 662C382.644 662 401 643.644 401 621C401 598.356 382.644 580 360 580C337.356 580 319 598.356 319 621C319 643.644 337.356 662 360 662Z" fill="#A4FF94"/>
<path d="M241 635C263.644 635 282 616.644 282 594C282 571.356 263.644 553 241 553C218.356 553 200 571.356 200 594C200 616.644 218.356 635 241 635Z" fill="#FAB8FF"/>
<path d="M145 558C167.644 558 186 539.644 186 517C186 494.356 167.644 476 145 476C122.356 476 104 494.356 104 517C104 539.644 122.356 558 145 558Z" fill="#FFFB78"/>
<path d="M88 448C110.644 448 129 429.644 129 407C129 384.356 110.644 366 88 366C65.3563 366 47 384.356 47 407C47 429.644 65.3563 448 88 448Z" fill="#FC987A"/>
<path d="M92 325C114.644 325 133 306.644 133 284C133 261.356 114.644 243 92 243C69.3563 243 51 261.356 51 284C51 306.644 69.3563 325 92 325Z" fill="#7AEDF2"/>
<path d="M145 216C167.644 216 186 197.644 186 175C186 152.356 167.644 134 145 134C122.356 134 104 152.356 104 175C104 197.644 122.356 216 145 216Z" fill="#A4FF94"/>
<path d="M241 139C263.644 139 282 120.644 282 98C282 75.3563 263.644 57 241 57C218.356 57 200 75.3563 200 98C200 120.644 218.356 139 241 139Z" fill="#FAB8FF"/>
<path d="M345.132 277.624C343.606 276.263 332.506 218.26 334.725 215.331C336.944 212.402 374.822 211.723 378.567 216.303C382.311 220.883 377.32 274.572 375.655 275.542C373.99 276.511 347.63 279.86 345.132 277.624Z" fill="#FA770C"/>
<path d="M389.666 274.296C388.38 271.216 396.462 228.073 400.358 226.29C404.025 224.611 425.739 236.272 425.888 240.441C426.036 244.611 409.584 278.596 407.225 279.574C404.867 280.553 390.034 275.168 389.666 274.296Z" fill="#F7CB0F"/>
<path d="M423.213 281.029C420.546 278.608 443.358 224.348 446.966 222.962C449.817 221.861 472.917 243.079 474.298 246.687C475.51 249.824 445.716 290.665 441.139 290.665C436.562 290.665 424.741 282.426 423.213 281.029Z" fill="#FA770C"/>
<path d="M452.515 303.153C454.278 301.134 489.837 275.542 493.722 275.405C497.606 275.268 508.443 289.841 507.587 292.747C506.732 295.653 462.505 322.438 460.84 321.465C459.174 320.493 451.557 304.251 452.515 303.153Z" fill="#F7CB0F"/>
<path d="M464.724 332.565C467.576 331.909 507.317 336.172 508.845 338.947C510.374 341.722 500.937 374.595 498.439 375.85C495.94 377.105 462.366 358.371 461.673 356.982C460.98 355.593 463.446 332.858 464.724 332.565Z" fill="#FA770C"/>
<path d="M420.746 422.19C421.236 424.813 445.534 468.344 449.603 467.836C454.041 467.28 490.807 428.572 490.254 423.439C489.701 418.306 450.433 395.137 447.245 396.107C444.057 397.076 420.475 420.755 420.746 422.19Z" fill="#FA770C"/>
<path d="M377.457 427.871C375.35 428.926 366.774 471.572 369.133 474.624C371.491 477.675 403.404 473.515 404.781 469.907C406.158 466.299 397.854 428.989 395.912 427.871C393.97 426.753 379.679 426.77 377.457 427.871Z" fill="#F7CB0F"/>
<path d="M325.015 418.862C323.304 419.432 303.512 455.488 304.196 458.679C304.881 461.87 342.665 480.832 345.856 478.334C349.047 475.836 355.122 429.405 353.587 427.323C352.053 425.241 327.513 418.029 325.015 418.862Z" fill="#FA770C"/>
<path d="M291.856 396.663C289.575 396.663 261.627 426.214 261.889 430.654C262.151 435.094 281.852 447.856 284.781 447.996C287.71 448.136 302.679 411.09 302.254 409.288C301.829 407.486 293.382 396.663 291.856 396.663Z" fill="#F7CB0F"/>
<path d="M284.641 363.365C283.053 360.188 214.58 371.549 210.972 375.157C207.364 378.765 214.58 416.087 219.85 417.889C225.12 419.692 288.525 393.32 290.33 390.6C292.136 387.879 285.474 365.03 284.641 363.365Z" fill="#FA770C"/>
<path d="M283.62 337.282C283.483 334.923 249.683 316.027 246.766 316.859C243.848 317.692 234.42 340.196 235.25 343.248C236.08 346.299 280.34 353.8 282.699 351.849C285.057 349.898 283.62 337.282 283.62 337.282Z" fill="#F7CB0F"/>
<path d="M301.567 300.932C302.254 298.24 265.633 258.756 262.445 258.756C259.257 258.756 240.654 279.004 241.079 282.341C241.504 285.677 289.637 316.888 292.689 315.793C295.74 314.698 301.153 302.597 301.567 300.932Z" fill="#FA770C"/>
<path d="M330.704 284.137C331.731 282.363 322.1 241.545 319.881 240.016C317.663 238.488 293.245 247.508 292.689 249.174C292.133 250.839 309.669 289.556 312.766 290.528C315.863 291.501 329.178 286.781 330.704 284.137Z" fill="#F7CB0F"/>
<path d="M363.215 267.882C445.759 263.41 477.073 305.381 468.029 360.364C455.809 434.809 392.658 439.463 371.189 437.983C349.72 436.503 272.846 435.921 272.846 356.66C272.846 287.403 337.66 269.253 363.215 267.882Z" fill="#F8DE76"/>
<path d="M330.487 303.735C330.513 306.048 328.856 307.945 326.78 307.965C325.189 307.982 323.674 306.507 323.643 304.913C323.606 302.917 325.924 300.421 327.832 300.404C329.506 300.393 330.467 301.596 330.487 303.735Z" fill="#3D1C07"/>
<path d="M377.543 292.2C377.509 294.31 375.832 296.192 374.024 296.129C372.532 296.078 370.602 294.324 370.602 293.012C370.602 291.016 372.578 288.934 374.446 288.954C376.117 288.985 377.566 290.494 377.543 292.2Z" fill="#3D1C07"/>
<path d="M304.447 333.76C300.589 333.76 297.654 330.22 299.237 327.771C300.246 326.205 301.803 324.853 303.378 323.824C306.309 321.919 310.522 324.172 311.933 326.214C313.43 328.387 312.449 331.598 309.811 332.533C307.958 333.189 305.961 333.76 304.447 333.76Z" fill="#BE090E"/>
<path d="M400.999 303.131C398.555 303.131 396.565 301.588 396.151 299.574C395.669 297.293 396.847 294.855 399.137 294.05C401.593 293.195 404.097 293.243 406.301 294.906C408.26 296.375 408.474 298.613 406.9 300.476C405.269 302.389 403.124 303.082 400.999 303.131Z" fill="#BE090E"/>
<path d="M309.244 327.631C309.732 327.614 310.282 328.093 310.251 328.549C310.179 329.57 308.856 331.207 307.824 331.09C307.37 331.039 306.666 330.483 306.617 330.092C306.489 329.014 307.701 327.628 309.244 327.631Z" fill="#FBBDE8"/>
<path d="M405.876 298.18C405.876 298.69 404.396 299.8 403.88 299.8C403.461 299.8 402.953 299.021 402.913 298.659C402.847 298.089 404.165 297.13 404.536 297.079C404.698 297.054 404.863 297.063 405.021 297.106C405.179 297.149 405.326 297.225 405.453 297.329C405.58 297.433 405.683 297.562 405.756 297.709C405.829 297.856 405.87 298.016 405.876 298.18Z" fill="#FBBDE8"/>
<path d="M355.849 332.385C353.316 332.385 348.819 330.782 345.582 328.298C343.301 326.55 343.74 324.194 346.307 322.88C351.799 320.028 357.897 318.633 363.703 317.31C367.567 316.586 368.919 317.544 368.158 321.736C367.028 327.97 362.257 332.379 355.849 332.385Z" fill="#BE090E"/>
<path d="M657.735 645.228C655.713 646.467 652.488 667.745 653.549 669.013C654.609 670.281 658.654 670.776 659.93 669.525C660.461 667.765 661.74 645.827 660.693 645.827C659.089 645.827 659.058 644.417 657.735 645.228Z" fill="#F568CC"/>
<path d="M665.394 647.195C664.427 647.705 663.463 667.706 663.645 669.09C664.333 670.288 668.163 670.822 669.766 669.838C670.557 667.402 669.786 649.084 668.284 647.641C667.65 647.042 666.885 646.413 665.394 647.195Z" fill="#F568CC"/>
<path d="M681.558 648.559C680.54 649.705 680.417 667.839 680.795 669.527C681.233 670.786 686.416 670.362 686.84 669.09C687.113 667.282 686.368 648.999 684.453 647.333C683.1 646.467 682.693 647.283 681.558 648.559Z" fill="#F568CC"/>
<path d="M689.418 646.113C688.454 650.343 690.087 665.551 690.71 669.09C691.215 670.544 694.409 670.1 695.637 669.298C696.215 667.61 694.031 646.69 693.115 645.827C691.396 644.235 690.987 645.086 689.418 646.113Z" fill="#F568CC"/>
<path fill-rule="evenodd" clip-rule="evenodd" d="M643.803 594.826C644.184 594.287 644.107 593.537 643.603 593.088C643.062 592.607 642.233 592.656 641.751 593.197C641.568 593.403 641.458 593.641 641.403 593.765C641.333 593.924 641.267 594.105 641.204 594.294C641.077 594.672 640.939 595.16 640.794 595.726C640.501 596.864 640.156 598.399 639.785 600.188C639.042 603.772 638.183 608.433 637.406 613.109C636.629 617.782 635.932 622.488 635.516 626.159C635.309 627.99 635.169 629.588 635.127 630.804C635.106 631.409 635.108 631.951 635.145 632.394C635.163 632.615 635.192 632.84 635.241 633.05C635.284 633.235 635.368 633.525 635.559 633.794C635.979 634.384 636.798 634.522 637.389 634.102C637.929 633.716 638.09 632.996 637.79 632.424C637.78 632.376 637.769 632.297 637.759 632.178C637.735 631.882 637.729 631.456 637.749 630.895C637.787 629.78 637.919 628.261 638.123 626.454C638.532 622.847 639.221 618.19 639.994 613.539C640.767 608.889 641.62 604.263 642.354 600.721C642.722 598.948 643.057 597.459 643.334 596.38C643.474 595.838 643.594 595.418 643.692 595.124C643.741 594.978 643.778 594.881 643.803 594.826ZM637.801 632.475C637.801 632.475 637.8 632.471 637.798 632.462C637.8 632.47 637.801 632.474 637.801 632.475ZM643.815 594.799C643.819 594.79 643.821 594.786 643.821 594.787C643.822 594.787 643.819 594.791 643.815 594.799Z" fill="#BE090E"/>
<path d="M646.074 578.258C647.274 578.116 649.972 575.853 654.163 578.477C656.257 579.941 658.455 582.908 656.45 587.499C655.418 589.797 653.7 591.719 651.533 593.002C646.863 595.82 641.96 597.254 640.878 597.402C639.524 593.36 633.805 587.475 633.263 583.824C632.778 580.739 633.482 575.611 638.864 575.029C644.281 574.642 646.074 578.258 646.074 578.258Z" fill="#BE090E"/>
<path d="M653.706 586.909C654.668 587.51 653.363 589.191 651.476 590.625C649.865 591.852 647.95 592.737 647.366 591.922C646.71 591.001 648.601 591.008 650.788 589.246C652.613 587.777 653.07 586.511 653.706 586.909Z" fill="#F8DE76"/>
<path d="M646.509 592.501C646.848 593.045 646.479 593.375 646.291 593.535C646.103 593.695 645.416 593.627 645.219 593.384C645.023 593.142 644.964 592.51 645.364 592.254C645.764 591.998 646.17 591.957 646.509 592.501Z" fill="#F8DE76"/>
<path d="M653.807 614.435C651.99 614.693 640.67 620.594 636.678 618.672C633.136 616.967 631.785 613.143 633.698 611.02C635.611 608.897 638.678 612.769 641.028 612.636C643.379 612.503 645.838 611.106 646.037 606.871C646.236 602.636 643.219 600.384 639.31 599.851C635.401 599.318 628.714 601.554 626.361 605.668C623.956 609.886 624.87 617.784 628.062 621.752C632.778 627.611 645.064 629.454 653.765 624.907C654.404 618.506 654.552 614.905 653.807 614.435Z" fill="#F568CC"/>
<path fill-rule="evenodd" clip-rule="evenodd" d="M629.641 612.632C629.641 612.269 629.934 611.976 630.296 611.976H632.778C633.14 611.976 633.434 612.269 633.434 612.632C633.434 612.994 633.14 613.287 632.778 613.287H630.296C629.934 613.287 629.641 612.994 629.641 612.632Z" fill="#570751"/>
<path fill-rule="evenodd" clip-rule="evenodd" d="M634.725 616.03C634.886 616.354 634.754 616.748 634.43 616.909L631.828 618.203C631.504 618.365 631.11 618.233 630.949 617.908C630.787 617.584 630.92 617.19 631.244 617.029L633.845 615.735C634.17 615.573 634.563 615.705 634.725 616.03Z" fill="#570751"/>
<path fill-rule="evenodd" clip-rule="evenodd" d="M638.206 618.727C638.568 618.727 638.862 619.02 638.862 619.383V621.748C638.862 622.11 638.568 622.404 638.206 622.404C637.844 622.404 637.55 622.11 637.55 621.748V619.383C637.55 619.02 637.844 618.727 638.206 618.727Z" fill="#570751"/>
<path fill-rule="evenodd" clip-rule="evenodd" d="M642.469 618.451C642.801 618.306 643.187 618.458 643.332 618.79L644.511 621.485C644.656 621.817 644.504 622.204 644.173 622.349C643.841 622.494 643.454 622.343 643.309 622.011L642.131 619.315C641.985 618.983 642.137 618.596 642.469 618.451Z" fill="#570751"/>
<path d="M702.732 596.943C702.732 596.943 700.067 601.383 694.861 602.19L702.732 596.943Z" fill="#FABFE9"/>
<path fill-rule="evenodd" clip-rule="evenodd" d="M703.182 596.194C703.596 596.442 703.73 596.979 703.481 597.393L702.732 596.943C703.481 597.393 703.481 597.394 703.481 597.394L703.481 597.395L703.48 597.397L703.477 597.401L703.468 597.415C703.461 597.427 703.451 597.443 703.439 597.462C703.414 597.502 703.378 597.557 703.332 597.625C703.239 597.762 703.104 597.954 702.926 598.184C702.571 598.644 702.042 599.263 701.341 599.908C699.941 601.195 697.821 602.616 694.995 603.054C694.518 603.128 694.071 602.802 693.997 602.324C693.923 601.847 694.25 601.4 694.727 601.326C697.108 600.957 698.923 599.755 700.157 598.621C700.772 598.055 701.235 597.513 701.542 597.115C701.695 596.917 701.809 596.756 701.882 596.646C701.919 596.592 701.946 596.551 701.962 596.525C701.971 596.511 701.976 596.502 701.98 596.497L701.982 596.493C702.231 596.079 702.768 595.945 703.182 596.194Z" fill="#570751"/>
<path d="M654.871 598.085C659.863 586.2 687.516 584.967 693.001 595.415C695.565 601.491 699.52 636.682 694.431 647.134C689.048 654.13 656.773 652.676 653.645 647.46C648.884 639.517 651.345 605.885 654.871 598.085Z" fill="#FBBDE8"/>
<path d="M703.621 581.905C705.807 581.585 709.045 585.49 709.045 588.627C709.045 591.592 705.547 596.764 703.197 597.083C700.847 597.403 698.729 591.605 699.113 589.478C699.498 587.35 701.518 582.211 703.621 581.905Z" fill="#F568CC"/>
<path d="M658.975 603.157C659.659 603.157 661.288 603.655 661.305 605.509C661.316 606.716 660.024 607.614 658.807 607.56C657.589 607.505 656.601 606.606 656.644 605.358C656.701 604.055 657.466 603.157 658.975 603.157Z" fill="#570751"/>
<path d="M667.269 603.753C668.758 602.787 679.665 603.157 679.645 613.355C679.626 622.883 668.144 622.183 666.874 621.225C665.603 620.268 665.883 604.656 667.269 603.753Z" fill="#F568CC"/>
</svg>
