<svg xmlns="http://www.w3.org/2000/svg" width="50" height="50" fill="none"><path fill="#333" d="M20.219 14.656c.218 0 .578.125 1.078.375.594.313.89.563.89.75 0 .156-.203.547-.609 1.172-1.406 2.235-2.11 3.594-2.11 4.078 0 .203.095.305.282.305.172 0 1.883-.281 5.133-.844 3.375-.484 5.203-.844 5.484-1.078.281-.172.524-.258.727-.258.172 0 .547.282 1.125.844.75.703 1.125 1.21 1.125 1.523 0 .063-.117.243-.352.54-.25.468-.586 1.546-1.008 3.234-.843 3.187-1.859 5.625-3.047 7.312-1.03 1.532-2 2.297-2.906 2.297-.328 0-.617-.242-.867-.726-.375-.657-1.008-1.39-1.898-2.203-.094-.079-.141-.133-.141-.165 0-.062.031-.093.094-.093.031 0 .39.148 1.078.445.734.328 1.25.492 1.547.492.875 0 1.906-1.273 3.093-3.82 1.25-2.734 1.875-5.172 1.875-7.313 0-.453-.187-.68-.562-.68-.516 0-2.29.259-5.32.774-2.703.485-4.696.945-5.977 1.383-.594.266-.953.398-1.078.398-.219 0-.508-.218-.867-.656-.297-.39-.445-.648-.445-.773 0-.25.25-.688.75-1.313 1.875-3 2.75-4.875 2.625-5.625 0-.25.093-.375.28-.375Z"/><path fill="#333" d="m21.297 15.031.233-.442-.01-.005-.223.447Zm.281 1.922-.42-.272-.003.006.423.266Zm3.305 3.54-.071-.496-.007.001-.008.002.086.492Zm5.484-1.079-.26-.427-.032.02-.028.023.32.384ZM32.22 20l-.349.358.007.007.342-.365Zm.773 2.063-.392-.31-.028.035-.021.04.441.235Zm-1.008 3.234.484.128.001-.007-.485-.121Zm-3.047 7.312-.409-.287-.005.008.415.28Zm-3.773 1.57.444-.229-.005-.01-.005-.008-.434.248Zm-1.898-2.202.337-.37-.009-.007-.008-.008-.32.385Zm1.03.187.205-.457-.006-.002-.198.46Zm4.642-3.328.453.211.001-.003-.454-.208Zm-4.008-7.219-.084-.493-.005.001.089.492ZM18.953 23l-.161-.473-.022.007-.021.01.204.456Zm-1.945-.258-.398.303.006.007.005.008.387-.318Zm.305-2.086.39.313.018-.023.015-.025-.424-.265Zm2.625-5.625h-.5v.042l.006.04.494-.082Zm.28.125c.028 0 .11.01.27.066.152.053.346.137.585.257l.447-.895a6.073 6.073 0 0 0-.703-.306c-.2-.07-.406-.122-.598-.122v1Zm.846.318c.285.15.47.27.579.362a.736.736 0 0 1 .07.068l.004.004.001.002-.001-.002a.288.288 0 0 1-.03-.127h1c0-.18-.07-.328-.141-.433a1.396 1.396 0 0 0-.26-.277 4.342 4.342 0 0 0-.756-.482l-.466.885Zm.623.307c0-.051.013-.065-.006-.013a1.799 1.799 0 0 1-.09.193c-.09.174-.233.413-.432.72l.838.545a10.1 10.1 0 0 0 .482-.804c.056-.108.104-.21.14-.306a.98.98 0 0 0 .069-.335h-1Zm-.532.906c-.706 1.122-1.242 2.034-1.603 2.732-.18.348-.321.652-.419.907-.091.24-.164.488-.164.705h1c0-.025.015-.129.099-.349.078-.206.2-.473.372-.804.342-.661.861-1.546 1.561-2.659l-.846-.532Zm-2.186 4.344c0 .17.038.39.203.568a.77.77 0 0 0 .578.237v-1c-.006 0 .078 0 .157.085.07.076.062.144.062.11h-1Zm.781.805c.059 0 .137-.01.2-.017.074-.01.172-.023.291-.041.24-.036.574-.09 1.002-.16.858-.14 2.1-.352 3.725-.633l-.17-.985c-1.625.28-2.864.491-3.717.632a72.63 72.63 0 0 1-1.257.195c-.077.01-.09.009-.074.009v1Zm5.204-.849c1.69-.242 3-.455 3.928-.637.462-.09.837-.176 1.12-.255.14-.04.266-.08.372-.123.095-.037.215-.092.313-.174l-.64-.768c.028-.023.03-.015-.043.013a2.914 2.914 0 0 1-.273.089c-.245.069-.59.148-1.042.237-.902.177-2.192.387-3.877.628l.142.99Zm5.674-1.146c.247-.151.395-.185.466-.185v-1c-.336 0-.672.139-.988.331l.522.854Zm.466-.185c-.077 0-.107-.026-.062-.002.034.017.09.052.172.113.162.122.383.316.666.591l.697-.716a8.326 8.326 0 0 0-.763-.675 2.275 2.275 0 0 0-.315-.203.878.878 0 0 0-.395-.108v1Zm.783.709c.365.342.621.621.783.84.178.241.184.334.184.318h1c0-.327-.182-.645-.38-.912a7.606 7.606 0 0 0-.903-.976l-.684.73Zm.967 1.158a.407.407 0 0 1 .025-.143l.002-.004v-.001c0 .001 0 .003-.002.004l-.006.012a4.753 4.753 0 0 1-.263.362l.785.62c.12-.154.219-.286.29-.395.035-.053.07-.11.097-.168.018-.037.072-.149.072-.287h-1Zm-.293.304c-.284.533-.633 1.675-1.052 3.349l.97.242c.426-1.702.749-2.716.964-3.12l-.882-.47Zm-1.05 3.342c-.837 3.16-1.833 5.534-2.972 7.153l.817.575c1.236-1.756 2.27-4.257 3.122-7.472l-.967-.256Zm-2.978 7.161c-.5.742-.966 1.27-1.395 1.61-.428.338-.79.466-1.097.466v1c.6 0 1.176-.254 1.716-.682.54-.426 1.074-1.046 1.605-1.835l-.83-.559Zm-2.492 2.076c-.038 0-.198-.02-.423-.456l-.888.459c.275.534.694.997 1.311.997v-1Zm-.433-.474c-.411-.72-1.086-1.495-1.995-2.325l-.674.739c.872.796 1.463 1.49 1.8 2.082l.87-.496Zm-2.012-2.34c-.038-.031-.05-.044-.046-.04a.414.414 0 0 1 .064.123c.01.032.021.08.021.137h-1c0 .126.044.221.07.268.028.052.06.093.085.122.05.059.11.112.165.159l.64-.768Zm.039.22a.408.408 0 0 1-.123.284.407.407 0 0 1-.283.123v-1a.593.593 0 0 0-.424.17.594.594 0 0 0-.17.424h1Zm-.406.407a.467.467 0 0 1-.115-.014l-.014-.004a57.022 57.022 0 0 1 1.009.422l.396-.918c-.344-.149-.609-.261-.792-.337a9.01 9.01 0 0 0-.302-.117.785.785 0 0 0-.048-.015c-.005-.001-.063-.017-.134-.017v1Zm.874.402c.377.168.708.299.99.389.273.087.535.146.76.146v-1c-.07 0-.215-.022-.457-.1a8.758 8.758 0 0 1-.885-.348l-.408.913Zm1.75.535c.679 0 1.285-.481 1.819-1.14.553-.683 1.128-1.68 1.729-2.969l-.907-.422c-.587 1.258-1.121 2.171-1.6 2.762-.497.614-.843.77-1.04.77v1Zm3.55-4.112c1.268-2.775 1.92-5.285 1.92-7.52h-1c0 2.045-.599 4.41-1.83 7.104l.91.416Zm1.92-7.52c0-.284-.057-.589-.256-.83-.214-.258-.515-.35-.807-.35v1c.044 0 .06.006.06.006a.066.066 0 0 1-.023-.018c-.006-.007 0-.003.008.027a.634.634 0 0 1 .017.164h1Zm-1.063-1.18c-.301 0-.912.07-1.789.198-.892.13-2.098.324-3.615.582l.168.986c1.514-.257 2.71-.45 3.591-.578.897-.13 1.43-.188 1.645-.188v-1Zm-5.409.781c-2.708.485-4.73.951-6.05 1.402l.324.946c1.243-.424 3.205-.88 5.903-1.364l-.177-.984Zm-6.092 1.419c-.293.13-.52.225-.684.286-.083.03-.143.05-.184.061-.052.015-.045.007-.006.007v1c.101 0 .2-.023.27-.042.08-.022.17-.052.267-.088.194-.072.444-.177.745-.312l-.408-.912Zm-.874.354c.05 0 .03.02-.08-.062a2.58 2.58 0 0 1-.4-.411l-.774.635c.193.234.383.43.571.573.18.136.414.265.683.265v-1Zm-.47-.458a4.393 4.393 0 0 1-.298-.434.799.799 0 0 1-.05-.1c-.01-.022.006.005.006.063h-1c0 .12.033.226.061.3.031.079.072.159.117.236.089.156.215.337.369.54l.796-.605Zm-.343-.471c0 .013.005-.062.122-.268.107-.187.277-.43.519-.732l-.78-.625c-.259.322-.464.61-.607.861-.133.232-.253.5-.253.764h1Zm.674-1.048c.942-1.507 1.642-2.745 2.092-3.71.225-.481.393-.906.497-1.269.1-.351.155-.695.106-.993l-.987.164c.013.078.006.25-.081.554a7.884 7.884 0 0 1-.441 1.122c-.425.91-1.1 2.11-2.034 3.602l.848.53Zm2.701-5.89c0-.033.004-.045.003-.043a.185.185 0 0 1-.032.062.28.28 0 0 1-.11.087.206.206 0 0 1-.08.02v-1c-.215 0-.45.079-.61.293a.956.956 0 0 0-.17.581h1Z"/></svg>