<svg xmlns="http://www.w3.org/2000/svg" width="50" height="50" fill="none"><path fill="#333" d="M20.523 14.656c.172 0 .563.242 1.172.727.453.328.68.586.68.773 0 .219-.11.399-.328.54-.375.312-.828 1.023-1.36 2.132-.562 1.125-.843 1.89-.843 2.297 0 .266.125.398.375.398.218 0 1.71-.351 4.476-1.054 2.547-.532 4.032-.922 4.453-1.172.657-.344 1.118-.516 1.383-.516.36 0 .852.328 1.477.985.453.5.68.859.68 1.078 0 .14-.157.343-.47.61-.312.25-.952 1.202-1.921 2.858-.969 1.641-2 3.086-3.094 4.336 1.86 1.063 3.227 2.024 4.102 2.883.484.516.726 1.36.726 2.532 0 .562-.156.843-.468.843-.329 0-.868-.414-1.618-1.242-.75-.937-1.992-2.172-3.726-3.703l-.14-.094-.095.094c-1.422 1.469-3.14 2.719-5.156 3.75-1.625.797-2.726 1.195-3.305 1.195-.14 0-.21-.031-.21-.093 0-.032.164-.133.492-.305 1.03-.438 2.445-1.453 4.242-3.047a37.11 37.11 0 0 0 2.742-2.648 42.465 42.465 0 0 0-2.695-1.899c-.813-.516-1.219-.82-1.219-.914 0-.063.063-.094.188-.094.656 0 2.203.633 4.64 1.899a28.774 28.774 0 0 0 1.875-2.414c1.656-2.313 2.485-3.797 2.485-4.453 0-.25-.125-.375-.375-.375-.844 0-2.688.406-5.532 1.218-2.797.735-4.5 1.305-5.11 1.711-.343.172-.608.258-.796.258-.14 0-.352-.219-.633-.656-.203-.297-.305-.54-.305-.727 0-.14.313-.765.938-1.875 1.375-2.265 2.063-3.953 2.063-5.062 0-.516.07-.774.21-.774Z"/><path fill="#333" d="m21.695 15.383-.31.391.008.007.01.007.292-.405Zm.352 1.312-.27-.42-.027.016-.023.02.32.384Zm-1.36 2.133.448.224.003-.008-.45-.216Zm4.008 1.64-.102-.489-.01.003-.01.002.122.485Zm4.453-1.171-.232-.443-.011.006-.012.007.255.43Zm2.86.469.37-.336-.008-.01-.362.346Zm.21 1.687.313.39.006-.004.006-.005-.324-.38Zm-1.921 2.86.43.254.002-.002-.432-.253Zm-3.094 4.335-.376-.329-.403.46.531.304.248-.435Zm4.102 2.883.364-.342-.007-.007-.007-.008-.35.357Zm-1.36 2.133-.39.312.01.012.01.012.37-.336Zm-3.726-3.703.33-.375-.025-.022-.028-.02-.277.417Zm-.14-.094.276-.416-.34-.227-.29.29.353.353Zm-.095.094-.353-.354-.006.006.36.348Zm-5.156 3.75.22.449.008-.004-.228-.445Zm-3.023.797-.196-.46-.018.008-.018.009.232.443Zm4.242-3.047-.33-.376-.002.002.332.374Zm2.742-2.648.366.34.377-.405-.44-.334-.303.398Zm-2.695-1.899.27-.42-.002-.002-.268.422Zm3.61.89-.231.444.35.183.259-.3-.379-.326Zm1.874-2.413-.406-.292-.005.007.411.285Zm-3.422-3.61.127.484.01-.003-.137-.48Zm-5.11 1.711.224.447.028-.014.026-.017-.277-.416Zm-1.429-.398.42-.27-.003-.007-.004-.006-.413.283Zm.633-2.602-.427-.26-.005.008-.004.007.436.245Zm2.273-5.336c-.058 0-.076-.016-.027.005.039.017.1.049.186.102.171.106.404.274.702.511l.622-.783a8.866 8.866 0 0 0-.797-.578 2.477 2.477 0 0 0-.318-.17.944.944 0 0 0-.368-.087v1Zm.88.632c.212.154.348.275.427.364.038.044.053.07.057.077.004.008-.012-.02-.012-.073h1c0-.282-.16-.511-.294-.664a3.629 3.629 0 0 0-.592-.514l-.587.81Zm.472.368c0 .022-.004.03-.01.04a.277.277 0 0 1-.088.079l.54.84c.33-.212.558-.536.558-.959h-1Zm-.148.155c-.246.205-.486.51-.723.883-.24.378-.497.853-.768 1.418l.902.432c.26-.544.497-.98.71-1.312.215-.34.39-.545.519-.653l-.64-.768Zm-1.487 2.294a14.87 14.87 0 0 0-.655 1.469c-.144.394-.241.755-.241 1.051h1c0-.11.043-.335.18-.706.132-.36.334-.814.61-1.367l-.894-.447Zm-.896 2.52c0 .203.047.448.23.642.187.2.435.256.645.256v-1c-.02 0-.016-.002.003.004a.21.21 0 0 1 .08.054c.057.061.042.107.042.044h-1Zm.875.898c.072 0 .156-.012.222-.023.077-.012.171-.03.281-.053.221-.045.52-.112.895-.2.75-.177 1.818-.442 3.201-.794l-.246-.969c-1.382.351-2.443.614-3.185.79-.371.087-.66.151-.866.194a6.25 6.25 0 0 1-.241.046c-.069.01-.08.01-.061.01v1Zm4.578-1.065a63.602 63.602 0 0 0 3.049-.697c.728-.192 1.276-.367 1.557-.534l-.51-.86c-.14.083-.545.228-1.302.427-.73.192-1.728.42-2.998.685l.204.98Zm4.583-1.218c.318-.167.577-.285.781-.361.214-.08.328-.098.37-.098v-1c-.223 0-.472.069-.72.16a8.055 8.055 0 0 0-.895.413l.464.886Zm1.151-.459c.036 0 .15.021.362.162.203.136.454.354.753.667l.724-.69a5.692 5.692 0 0 0-.923-.809c-.28-.187-.592-.33-.916-.33v1Zm1.106.82c.217.24.366.43.458.576.102.162.093.206.093.167h1c0-.258-.123-.504-.248-.7a5.4 5.4 0 0 0-.562-.714l-.74.671Zm.55.743c0-.056.016-.09.016-.09 0-.002-.006.012-.029.043a1.991 1.991 0 0 1-.28.275l.649.762c.169-.144.315-.287.424-.428.096-.125.22-.322.22-.562h-1Zm-.28.219c-.226.18-.504.546-.818 1.014a39.006 39.006 0 0 0-1.224 1.983l.864.505c.482-.824.878-1.466 1.19-1.93.326-.486.525-.722.612-.791l-.625-.781Zm-2.04 2.995c-.956 1.618-1.97 3.038-3.04 4.261l.752.659c1.117-1.277 2.166-2.748 3.148-4.411l-.86-.509Zm-2.912 5.025c1.845 1.054 3.17 1.99 4 2.805l.7-.714c-.92-.903-2.33-1.89-4.204-2.96l-.496.869Zm3.985 2.79c.356.379.591 1.066.591 2.19h1c0-1.221-.248-2.221-.862-2.874l-.729.685Zm.591 2.19c0 .118-.008.21-.02.278a.392.392 0 0 1-.034.111c-.004.008.004-.01.033-.027.03-.018.053-.019.052-.019v1a.89.89 0 0 0 .463-.124.91.91 0 0 0 .326-.344c.14-.251.18-.564.18-.876h-1Zm.032.343c.014 0-.087-.008-.346-.207-.236-.18-.535-.466-.901-.87l-.741.67c.384.425.729.76 1.033.993.28.215.612.414.954.414v-1Zm-1.227-1.054c-.778-.972-2.046-2.23-3.786-3.766l-.662.75c1.728 1.526 2.944 2.738 3.667 3.64l.78-.624Zm-3.84-3.807-.14-.094-.555.832.14.094.555-.832Zm-.771-.031-.094.093.707.707.094-.093-.707-.707Zm-.1.1c-1.38 1.424-3.053 2.643-5.025 3.652l.456.89c2.06-1.053 3.824-2.335 5.288-3.847l-.719-.696Zm-5.017 3.648c-.804.394-1.468.685-1.995.875-.54.196-.892.27-1.09.27v1c.38 0 .87-.126 1.43-.33a21.72 21.72 0 0 0 2.095-.917l-.44-.898Zm-3.085 1.144c-.048 0-.016-.008.045.02a.434.434 0 0 1 .244.387h-1c0 .116.035.236.114.34a.595.595 0 0 0 .236.187c.132.058.27.066.361.066v-1Zm.29.407a.485.485 0 0 1-.11.306c-.024.03-.044.045-.045.045-.004.004.006-.004.04-.026.067-.041.177-.103.339-.187l-.464-.886a6.755 6.755 0 0 0-.4.223 1.406 1.406 0 0 0-.144.1.662.662 0 0 0-.092.088c-.014.017-.125.142-.125.337h1Zm.187.155c1.111-.471 2.577-1.535 4.379-3.133l-.664-.748c-1.792 1.59-3.154 2.557-4.106 2.96l.391.921Zm4.376-3.13a37.553 37.553 0 0 0 2.78-2.685l-.733-.681a36.566 36.566 0 0 1-2.705 2.613l.658.752Zm2.715-3.424a42.961 42.961 0 0 0-2.727-1.92l-.54.84a41.986 41.986 0 0 1 2.663 1.877l.604-.797Zm-2.73-1.922a14.743 14.743 0 0 1-.881-.593 1.95 1.95 0 0 1-.179-.146c-.014-.014-.009-.011.004.007 0 .001.07.093.07.24h-1c0 .17.082.292.108.33a.966.966 0 0 0 .118.137c.074.073.17.151.279.232.219.164.537.377.946.637l.536-.844ZM21.376 26a.427.427 0 0 1-.23.377c-.073.037-.12.03-.082.03v-1a.813.813 0 0 0-.365.076.572.572 0 0 0-.323.517h1Zm-.313.406c.218 0 .685.119 1.463.438.754.308 1.735.775 2.948 1.404l.46-.887c-1.224-.636-2.235-1.118-3.029-1.443-.768-.314-1.403-.512-1.841-.512v1Zm5.02 1.725a29.264 29.264 0 0 0 1.907-2.456l-.822-.569a28.267 28.267 0 0 1-1.843 2.372l.758.653Zm1.903-2.45c.832-1.162 1.466-2.129 1.893-2.894.214-.383.38-.725.495-1.022.112-.288.19-.572.19-.828h-1c0 .073-.027.221-.122.468a7.36 7.36 0 0 1-.436.894c-.401.719-1.01 1.65-1.833 2.8l.813.583Zm2.578-4.744a.877.877 0 0 0-.24-.634.877.877 0 0 0-.636-.24v1c.048 0-.008.011-.072-.053-.064-.065-.052-.12-.052-.073h1Zm-.875-.875c-.481 0-1.199.113-2.124.317-.936.206-2.118.514-3.545.921l.275.962a60.886 60.886 0 0 1 3.485-.907c.92-.202 1.545-.293 1.909-.293v-1Zm-5.659 1.236c-1.403.368-2.54.698-3.407.988-.85.284-1.486.546-1.852.79l.554.832c.243-.162.763-.389 1.616-.674.837-.28 1.95-.603 3.343-.97l-.254-.966Zm-5.206 1.747c-.332.166-.51.205-.573.205v1c.311 0 .665-.133 1.02-.31l-.447-.895Zm-.573.205c.092 0 .145.034.145.035.004.001-.013-.009-.049-.046a2.855 2.855 0 0 1-.308-.416l-.841.541c.147.23.29.425.43.569.069.072.15.144.24.2.088.055.22.117.383.117v-1Zm-.22-.439c-.19-.278-.218-.414-.218-.444h-1c0 .345.177.694.392 1.01l.826-.566Zm-.218-.444c0 .057-.012.09-.006.068a.897.897 0 0 1 .028-.075c.032-.079.084-.192.16-.343.15-.302.38-.727.692-1.28l-.872-.49c-.314.557-.553.999-.714 1.322-.08.161-.146.3-.192.413a1.887 1.887 0 0 0-.06.167.775.775 0 0 0-.035.218h1Zm.865-1.615c.696-1.147 1.226-2.16 1.583-3.036.354-.87.552-1.639.552-2.286h-1c0 .461-.145 1.091-.478 1.909-.33.81-.832 1.774-1.511 2.894l.854.519Zm2.136-5.322c0-.247.018-.386.035-.449.009-.033.007-.005-.03.04a.395.395 0 0 1-.295.135v-1a.616.616 0 0 0-.479.232.882.882 0 0 0-.161.33c-.053.195-.07.443-.07.712h1Z"/></svg>