<svg xmlns="http://www.w3.org/2000/svg" width="50" height="50" fill="none"><path fill="#333" d="M16.844 17.844c.11 0 .336.172.68.515.312.282.617.422.913.422.204 0 .774-.093 1.711-.281 2.125-.563 4.829-1.008 8.11-1.336 1.219-.078 2.031-.289 2.437-.633.25-.25.446-.375.586-.375.219 0 .563.211 1.032.633.624.531.937.914.937 1.148 0 .25-.07.493-.21.727-.095.234-.134 1.39-.118 3.469.047 4.687-.086 7.86-.399 9.515-.203 1.125-.492 1.688-.867 1.688-.156 0-.36-.266-.61-.797-.343-.656-.515-1.086-.515-1.289 0-.125.047-.336.14-.633.22-1 .329-3.258.329-6.773 0-2.844-.07-4.54-.21-5.086-.126-.485-.493-.727-1.102-.727-.938 0-2.516.227-4.735.68-1.984.406-3.406.789-4.265 1.148-.516.22-.829.328-.938.328-.344 0-.719-.156-1.125-.468.234 5.297.29 8.984.164 11.062-.062.688-.242 1.032-.539 1.032-.36 0-.71-.407-1.055-1.22a4.358 4.358 0 0 1-.351-1.687l.093-1.383a39.738 39.738 0 0 0-.187-7.71c-.125-.75-.188-1.18-.188-1.29 0-.453.094-.68.282-.68Z"/><path fill="#333" d="m17.523 18.36-.353.353.01.01.009.008.334-.372Zm2.625.14.099.49.015-.003.014-.004-.128-.483Zm8.11-1.336-.032-.499h-.01l-.008.002.05.497Zm2.437-.633.323.382.016-.014.015-.014-.354-.354Zm1.617.258-.334.372.005.004.006.005.323-.38Zm.727 1.875-.429-.257-.02.034-.015.037.464.186Zm-.117 3.469-.5.004.5-.004Zm-.399 9.515-.49-.092-.002.004.492.088Zm-1.476.891.452-.213-.004-.01-.005-.009-.443.232Zm-.375-1.922.477.15.006-.02.005-.023-.488-.107Zm.117-11.86.484-.124-.484.125Zm-5.836-.046-.1-.49.1.49Zm-4.265 1.148-.193-.46h-.003l.195.46Zm-2.063-.14.305-.397-.852-.655.047 1.074.5-.022Zm.164 11.062.498.046v-.008l.001-.008-.499-.03Zm-1.594-.187-.461.192v.003l.461-.195Zm-.351-1.688-.5-.034v.034h.5Zm.093-1.383-.498-.036v.003l.498.033Zm-.187-7.71.496-.061-.001-.01-.002-.012-.493.082Zm.094-1.47c-.09 0-.14-.03-.124-.022.006.003.03.017.074.05.086.066.21.177.376.342l.707-.707a4.933 4.933 0 0 0-.48-.432 1.519 1.519 0 0 0-.221-.143.732.732 0 0 0-.332-.087v1Zm.345.388c.366.33.785.55 1.248.55v-1c-.13 0-.32-.06-.58-.293l-.668.743Zm1.248.55c.15 0 .382-.03.662-.077.293-.048.676-.12 1.148-.214l-.197-.98c-.466.093-.837.162-1.114.208-.29.047-.444.063-.498.063v1Zm1.84-.298c2.09-.553 4.764-.995 8.03-1.321l-.099-.995c-3.296.33-6.028.778-8.188 1.35l.256.966Zm8.013-1.32c.628-.04 1.17-.116 1.617-.232.441-.114.827-.278 1.111-.518l-.646-.763c-.122.103-.345.217-.716.313-.366.095-.84.164-1.43.202l.064.998Zm2.759-.778a1.617 1.617 0 0 1 .28-.232.099.099 0 0 1 .01-.005l-.014.004a.228.228 0 0 1-.044.004v-1a.98.98 0 0 0-.521.173c-.14.09-.28.21-.418.349l.707.707Zm.232-.229c-.032 0 .01-.007.16.085.136.083.314.22.537.42l.669-.744a4.866 4.866 0 0 0-.682-.529c-.194-.119-.433-.232-.684-.232v1Zm.708.514c.302.257.51.463.64.62.15.184.121.219.121.148h1c0-.306-.184-.58-.347-.78a6.14 6.14 0 0 0-.767-.75l-.647.762Zm.761.767a.895.895 0 0 1-.14.47l.858.514c.183-.304.282-.634.282-.983h-1Zm-.175.541a1.897 1.897 0 0 0-.094.487c-.018.189-.031.431-.041.725a63.34 63.34 0 0 0-.018 2.447l1-.008a62.146 62.146 0 0 1 .017-2.405c.01-.285.023-.505.038-.664.017-.182.033-.228.026-.21l-.928-.372Zm-.153 3.66c.047 4.693-.088 7.817-.39 9.418l.983.185c.323-1.712.454-4.931.407-9.613l-1 .01Zm-.39 9.422c-.1.546-.212.91-.322 1.125-.121.236-.159.15-.054.15v1c.48 0 .775-.365.943-.692.178-.348.312-.827.417-1.406l-.985-.177Zm-.376 1.276c.105 0 .166.044.172.048.006.005-.01-.005-.044-.051a2.969 2.969 0 0 1-.285-.507l-.904.426c.13.277.261.514.395.688.066.088.147.177.243.248.095.07.24.148.423.148v-1Zm-.166-.529a8.722 8.722 0 0 1-.366-.768c-.084-.212-.093-.292-.093-.289h-1c0 .206.078.443.165.66.095.237.232.526.408.861l.886-.464Zm-.459-1.057c0-.04.023-.183.118-.482l-.954-.301c-.093.294-.164.572-.164.783h1Zm.13-.526c.232-1.063.339-3.38.339-6.88h-1c0 3.53-.112 5.73-.317 6.666l.977.214Zm.339-6.88c0-1.425-.018-2.568-.053-3.425-.035-.839-.088-1.453-.174-1.786l-.968.25c.055.213.107.72.143 1.577.034.838.052 1.965.052 3.384h1Zm-.227-5.211a1.388 1.388 0 0 0-.578-.837c-.29-.192-.641-.265-1.008-.265v1c.244 0 .382.05.458.1.066.043.124.112.16.252l.968-.25Zm-1.585-1.102c-.994 0-2.616.237-4.835.69l.2.98c2.22-.453 3.753-.67 4.634-.67v-1Zm-4.835.69c-1.988.407-3.451.798-4.358 1.177l.385.923c.812-.34 2.193-.715 4.173-1.12l-.2-.98Zm-4.36 1.178c-.254.108-.45.185-.592.235-.07.024-.122.04-.156.049-.044.011-.034.005.005.005v1a1 1 0 0 0 .246-.037c.07-.018.15-.044.236-.074.17-.06.389-.146.65-.257l-.39-.92Zm-.743.288c-.191 0-.46-.088-.82-.365l-.61.793c.453.348.933.573 1.43.573v-1Zm-1.625.054c.235 5.298.288 8.961.165 11.01l.998.06c.127-2.107.07-5.819-.163-11.114l-1 .044Zm.166 10.995c-.03.321-.082.502-.127.587-.02.038-.026.034-.006.02a.166.166 0 0 1 .092-.03v1c.393 0 .655-.249.8-.527.136-.258.204-.593.237-.96l-.996-.09Zm-.041.576c.025 0-.027.017-.155-.131-.127-.147-.276-.397-.44-.782l-.92.39c.18.427.379.786.604 1.046.223.258.527.477.911.477v-1Zm-.593-.91a3.856 3.856 0 0 1-.313-1.496h-1c0 .634.132 1.262.39 1.88l.923-.385Zm-.314-1.462.093-1.383-.997-.067-.094 1.382.998.068Zm.093-1.38c.19-2.61.127-5.213-.19-7.808l-.992.121c.308 2.53.37 5.068.185 7.614l.997.073Zm-.193-7.83a45.118 45.118 0 0 1-.139-.874 8.844 8.844 0 0 1-.033-.248l-.009-.085h-1c0 .1.023.275.053.477.032.22.08.518.142.895l.986-.165Zm-.18-1.207c0-.097.005-.172.012-.229a.419.419 0 0 1 .02-.09c.002-.005-.011.032-.06.072a.31.31 0 0 1-.191.068v-1a.69.69 0 0 0-.437.153.81.81 0 0 0-.236.326c-.085.205-.108.454-.108.7h1Z"/></svg>