<svg xmlns="http://www.w3.org/2000/svg" width="50" height="50" fill="none"><path fill="#333" d="M30.719 17.094c.468 0 .984.148 1.547.445.656.344.984.64.984.89 0 .266-.695.407-2.086.423-.969.046-3.07.304-6.305.773-2.718.406-4.562.656-5.53.75.155.594.233 1.375.233 2.344l.024 4.101c0 1.5.234 2.57.703 3.211.438.5 1.04.75 1.805.75.86 0 2.164-.062 3.914-.187 2.234-.125 3.68-.297 4.336-.516.406-.156.718-.234.937-.234.422 0 .867.21 1.336.633.422.39.633.718.633.984 0 .422-.781.633-2.344.633h-3.445c-.75 0-1.492.039-2.227.117-.843.062-1.547.094-2.109.094-1.734 0-3.07-.446-4.008-1.336-.828-.844-1.242-2.14-1.242-3.89v-2.485c0-1.328-.18-2.727-.54-4.196-.327-.984-.491-1.523-.491-1.617 0-.375.156-.562.468-.562.297 0 .665.21 1.102.633l.234.046c.391.047.665.07.82.07 1.11 0 3.126-.195 6.048-.585 1.515-.203 2.765-.469 3.75-.797.812-.328 1.297-.492 1.453-.492Z"/><path fill="#333" d="m32.266 17.54-.234.441.002.001.232-.443Zm-1.102 1.312-.006-.5h-.019l.025.5Zm-6.305.773-.071-.495h-.003l.074.495Zm-5.53.75-.049-.498-.585.057.15.568.483-.127Zm.233 2.344h-.5v.003l.5-.003Zm.024 4.101h.5v-.003l-.5.003Zm.703 3.211-.404.296.013.017.015.016.376-.329Zm5.719.563-.028-.5-.008.001.036.499Zm4.336-.516.158.474.01-.003.011-.004-.18-.467Zm2.273.399.34-.367-.005-.005-.335.372Zm-7.383 1.734.037.499.008-.001h.008l-.053-.498Zm-6.117-1.242-.357.35.006.006.007.006.344-.362Zm-1.781-10.57.486-.12-.005-.02-.007-.019-.474.158Zm1.078-1.547-.347.36.105.101.144.029.098-.49Zm.234.046-.098.49.02.005.019.002.06-.497Zm6.868-.515.066.495-.066-.495Zm3.75-.797.158.474.015-.005.014-.005-.187-.464Zm1.453.008c.363 0 .798.115 1.313.387l.467-.884c-.61-.322-1.206-.503-1.78-.503v1Zm1.315.388c.312.163.516.3.634.408.135.122.082.133.082.04h1c0-.343-.217-.606-.41-.781-.21-.19-.498-.373-.842-.553l-.464.886Zm.716.448c0-.192.136-.267.117-.256a.926.926 0 0 1-.238.07c-.3.061-.783.1-1.47.108l.01 1c.704-.008 1.263-.048 1.659-.128.193-.039.386-.095.544-.187.155-.09.378-.282.378-.607h-1Zm-1.61-.078c-.997.048-3.124.31-6.352.778l.143.99c3.24-.47 5.317-.724 6.257-.769l-.048-.999Zm-6.355.779c-2.72.406-4.551.654-5.505.746l.096.996c.984-.096 2.84-.348 5.557-.754l-.148-.988Zm-5.94 1.371c.14.536.218 1.27.218 2.217h1c0-.99-.08-1.82-.251-2.471l-.967.254Zm.218 2.22.023 4.101 1-.006-.023-4.101-1 .006Zm.023 4.098c0 1.526.233 2.732.8 3.506l.807-.59c-.371-.507-.607-1.44-.607-2.916h-1Zm.827 3.54c.547.626 1.295.921 2.18.921v-1c-.645 0-1.1-.205-1.428-.579l-.752.658Zm2.18.921c.879 0 2.198-.063 3.95-.188l-.07-.998c-1.748.125-3.038.186-3.88.186v1Zm3.943-.188a46.365 46.365 0 0 0 2.79-.225c.729-.087 1.297-.19 1.676-.316l-.316-.948c-.277.092-.76.185-1.477.27-.709.085-1.617.158-2.73.22l.057.999Zm4.487-.548c.395-.152.636-.201.758-.201v-1c-.315 0-.698.107-1.117.267l.36.934Zm.758-.201c.25 0 .58.125 1.002.504l.669-.743c-.517-.465-1.076-.761-1.67-.761v1Zm.997.5c.193.178.319.326.393.442.077.119.079.173.079.175h1c0-.264-.103-.507-.238-.716a3.414 3.414 0 0 0-.555-.635l-.68.733Zm.472.617c0-.075.044-.116.039-.112a.763.763 0 0 1-.255.104c-.325.088-.858.14-1.628.14v1c.793 0 1.432-.052 1.888-.175.227-.06.45-.15.624-.292a.847.847 0 0 0 .332-.665h-1Zm-1.844.133h-3.445v1h3.445v-1Zm-3.445 0c-.767 0-1.527.04-2.28.12l.106.994a20.54 20.54 0 0 1 2.174-.114v-1Zm-2.264.118c-.837.062-1.526.093-2.072.093v1c.58 0 1.296-.032 2.146-.095l-.074-.998Zm-2.072.093c-1.65 0-2.847-.423-3.663-1.199l-.69.725c1.06 1.006 2.535 1.474 4.353 1.474v-1Zm-3.651-1.186c-.7-.714-1.099-1.86-1.099-3.54h-1c0 1.818.43 3.266 1.385 4.24l.714-.7Zm-1.099-3.54v-2.485h-1v2.484h1Zm0-2.485c0-1.373-.186-2.812-.553-4.314l-.972.237c.351 1.435.525 2.794.525 4.077h1Zm-.565-4.354c-.163-.49-.285-.866-.365-1.13a8.104 8.104 0 0 1-.103-.37c-.005-.024.002 0 .002.041h-1c0 .065.011.126.017.154a8.825 8.825 0 0 0 .127.466c.084.276.21.662.374 1.156l.948-.317Zm-.466-1.459c0-.06.006-.096.01-.112.005-.015.005-.007-.009.01a.14.14 0 0 1-.052.04c-.013.004-.01 0 .02 0v-1c-.26 0-.538.082-.736.32-.184.221-.233.498-.233.742h1Zm-.032-.062c.086 0 .327.08.755.492l.694-.72c-.447-.43-.94-.772-1.448-.772v1Zm1.004.623.234.047.197-.98-.235-.048-.196.98Zm.273.053c.39.047.69.074.88.074v-1c-.123 0-.37-.02-.761-.067l-.12.993Zm.88.074c1.147 0 3.194-.2 6.113-.59l-.133-.992c-2.924.391-4.909.582-5.98.582v1Zm6.113-.59c1.534-.206 2.817-.477 3.842-.819l-.316-.948c-.945.314-2.161.575-3.659.775l.133.991Zm3.87-.83c.403-.162.718-.281.947-.359.114-.039.202-.065.265-.081.074-.02.082-.015.055-.015v-1c-.106 0-.217.024-.303.046-.097.025-.21.06-.338.103-.255.087-.59.214-1 .38l.375.927Z"/></svg>