<svg xmlns="http://www.w3.org/2000/svg" width="50" height="50" fill="none"><path fill="#333" d="M20.219 14.398c.234 0 .672.243 1.312.727.563.484.844.86.844 1.125 0 .188-.164.414-.492.68-.297.156-.93 1.008-1.899 2.554-.718 1.125-1.078 1.774-1.078 1.946 0 .172.157.258.469.258.063 0 .352-.063.867-.188a103.509 103.509 0 0 1 8.625-1.523c.828-.094 1.5-.22 2.016-.375.375-.157.633-.235.773-.235.297 0 .703.32 1.219.961.563.703.844 1.188.844 1.453 0 .078-.117.29-.352.633-.172.203-.32.578-.445 1.125-.89 3.781-2.094 6.766-3.61 8.953-1.125 1.672-2.125 2.508-3 2.508-.39 0-.687-.281-.89-.844-.297-.781-.828-1.57-1.594-2.367-.094-.062-.14-.117-.14-.164 0-.063.03-.094.093-.094l.422.188c.953.515 1.656.773 2.11.773.765 0 1.726-1.336 2.882-4.008 1.453-3.125 2.18-5.422 2.18-6.89 0-.313-.281-.469-.844-.469-1.156 0-3.07.258-5.742.773l-2.18.422c.266.203.5.438.703.703.313.407.47.711.47.915 0 .562-.712 1.828-2.134 3.796-1.125 1.688-2.289 2.993-3.492 3.914-.875.735-1.468 1.102-1.781 1.102-.063 0-.094-.031-.094-.094 0-.047.055-.164.164-.351 1.235-1.094 2.446-2.703 3.633-4.828 1.156-2.063 1.735-3.555 1.735-4.477 0-.125-.07-.281-.211-.469-1.157.266-2.102.532-2.836.797-.391.219-.688.328-.891.328-.188 0-.484-.148-.89-.445-.407-.281-.61-.508-.61-.68 0-.11.219-.445.656-1.008 1.313-2.125 2.25-3.976 2.813-5.554.187-.422.218-.828.093-1.219 0-.234.094-.352.282-.352Z"/><path fill="#333" d="m21.531 15.125.327-.379-.012-.01-.013-.01-.302.399Zm.352 1.805.233.442.043-.023.038-.03-.314-.39Zm-1.899 2.554.422.27.002-.004-.424-.266Zm.258 2.016-.108-.488-.01.002.118.486Zm8.625-1.523-.056-.497-.01.001.066.496Zm2.016-.375.145.478.024-.007.023-.01-.192-.461Zm1.992.726.39-.312v-.001l-.39.313Zm.492 2.086.382.323.017-.02.014-.021-.413-.282Zm-.445 1.125.487.115v-.003l-.487-.112Zm-3.61 8.953-.41-.285-.004.006.415.28Zm-3.89 1.664.47-.17-.003-.007-.467.177Zm-1.594-2.367.36-.346-.037-.04-.046-.03-.277.416Zm-.047-.258.203-.457-.097-.043h-.106v.5Zm.422.188.238-.44-.017-.01-.018-.007-.203.457Zm4.992-3.235-.453-.21-.006.012.46.198Zm-4.406-6.586-.095-.49.095.49Zm-2.18.422-.095-.49-1.093.211.885.677.303-.398Zm.703.703-.397.304.001.001.396-.305Zm-1.664 4.711-.405-.292-.005.007-.006.008.416.277Zm-3.492 3.914-.304-.396-.009.006-.008.007.321.383Zm-1.71.657-.332-.375-.06.054-.04.069.431.252Zm3.632-4.828-.436-.245.436.245Zm1.524-4.946.4-.3-.195-.26-.317.073.112.487Zm-2.836.797-.17-.47-.039.014-.036.02.245.436Zm-1.782-.117.295-.404-.01-.007-.285.41Zm.047-1.688.395.307.017-.02.014-.024-.426-.263Zm2.813-5.554-.457-.203-.008.017-.006.018.47.168Zm.093-1.219h-.5v.078l.024.074.477-.152Zm.282.148c-.02 0 .05.003.261.12.19.104.438.27.75.506l.603-.798a7.647 7.647 0 0 0-.868-.583c-.227-.126-.492-.245-.746-.245v1Zm.986.606c.268.23.449.419.56.566.119.16.11.211.11.18h1c0-.297-.15-.565-.31-.78a4.827 4.827 0 0 0-.707-.724l-.653.758Zm.67.746c0-.052.021-.05-.028.017a1.568 1.568 0 0 1-.279.274l.63.777c.182-.148.342-.302.459-.464.115-.159.218-.365.218-.604h-1Zm-.225.237a1.675 1.675 0 0 0-.42.351 6.878 6.878 0 0 0-.446.55 29.216 29.216 0 0 0-1.223 1.831l.847.53c.482-.768.874-1.355 1.179-1.765.153-.206.278-.36.378-.468.109-.118.156-.147.15-.144l-.465-.885Zm-2.087 2.728c-.361.566-.637 1.02-.825 1.357a5.464 5.464 0 0 0-.222.439 1.77 1.77 0 0 0-.07.184.803.803 0 0 0-.04.235h1c0 .053-.011.08-.005.06a.834.834 0 0 1 .03-.078c.037-.082.096-.2.182-.355.172-.31.435-.744.793-1.303l-.843-.539Zm-1.157 2.215a.713.713 0 0 0 .377.631c.188.104.406.127.592.127v-1a.665.665 0 0 1-.115-.008c-.022-.005-.016-.006.004.005a.275.275 0 0 1 .1.098.288.288 0 0 1 .042.147h-1Zm.969.758c.067 0 .139-.013.177-.02l.192-.039c.15-.032.357-.08.616-.143l-.236-.972a26.084 26.084 0 0 1-.747.17c-.05.008-.037.003-.002.003v1Zm.975-.2a102.988 102.988 0 0 1 8.583-1.516l-.132-.991c-2.936.392-5.825.903-8.667 1.53l.216.977Zm8.573-1.515c.844-.095 1.549-.224 2.105-.393l-.29-.957c-.476.144-1.115.265-1.927.357l.112.993Zm2.152-.41a4.7 4.7 0 0 1 .427-.159c.117-.035.16-.037.154-.037v-1c-.146 0-.302.037-.444.08-.15.046-.325.111-.521.193l.384.923Zm.581-.196c-.02 0 .044-.004.218.133.162.127.365.336.612.642l.779-.627a5.085 5.085 0 0 0-.772-.8c-.232-.183-.519-.348-.837-.348v1Zm.829.773c.273.343.467.618.59.83.136.233.144.32.144.311h1c0-.275-.133-.562-.279-.813a8.13 8.13 0 0 0-.675-.952l-.78.625Zm.734 1.141c0-.048.008-.081.01-.091l.004-.013a.824.824 0 0 1-.04.078c-.047.086-.125.21-.239.377l.826.564c.12-.177.218-.33.288-.455.034-.062.067-.126.092-.188a.729.729 0 0 0 .059-.272h-1Zm-.233.31c-.255.301-.424.78-.552 1.337l.975.223c.123-.538.251-.81.34-.914l-.764-.646Zm-.55 1.333c-.883 3.746-2.067 6.665-3.535 8.783l.823.57c1.563-2.257 2.786-5.307 3.685-9.123l-.974-.23Zm-3.538 8.79c-.55.815-1.05 1.4-1.5 1.775-.453.379-.81.511-1.085.511v1c.6 0 1.179-.286 1.726-.743.55-.46 1.112-1.13 1.688-1.986l-.83-.558ZM26.313 34.5c-.074 0-.245-.026-.42-.514l-.941.34c.23.637.653 1.174 1.36 1.174v-1Zm-.424-.521c-.327-.861-.902-1.706-1.7-2.536l-.721.692c.733.764 1.22 1.497 1.486 2.199l.935-.355Zm-1.784-2.606c-.027-.018-.02-.018-.003.003a.385.385 0 0 1 .085.249h-1c0 .192.095.33.156.402.065.075.142.134.208.178l.555-.832Zm.082.252a.408.408 0 0 1-.123.283.407.407 0 0 1-.283.123v-1a.594.594 0 0 0-.424.17.594.594 0 0 0-.17.424h1Zm-.609.363.422.188.406-.914-.422-.188-.406.914Zm.387.17c.49.265.927.47 1.308.61.376.138.728.224 1.04.224v-1c-.142 0-.368-.043-.696-.163a9.263 9.263 0 0 1-1.176-.55l-.476.88Zm2.348.834c.34 0 .65-.148.916-.355.268-.207.529-.5.784-.855.512-.711 1.058-1.751 1.641-3.099l-.918-.397c-.573 1.324-1.085 2.287-1.535 2.912-.224.313-.42.522-.584.648-.164.128-.262.146-.305.146v1Zm3.336-4.297c1.453-3.125 2.226-5.511 2.226-7.101h-1c0 1.347-.68 3.555-2.133 6.68l.907.421Zm2.226-7.101a.89.89 0 0 0-.124-.463.911.911 0 0 0-.344-.326c-.252-.14-.565-.18-.876-.18v1c.12 0 .21.008.278.02a.394.394 0 0 1 .112.034c.008.004-.01-.004-.027-.033-.018-.03-.019-.053-.019-.052h1Zm-1.344-.969c-1.208 0-3.164.267-5.837.782l.19.982c2.67-.515 4.543-.764 5.647-.764v-1Zm-5.837.782-2.18.422.19.982 2.18-.422-.19-.982Zm-2.388 1.31c.23.177.433.38.61.61l.794-.607c-.23-.301-.496-.567-.797-.797l-.607.795Zm.61.611c.146.19.244.341.303.457.064.124.062.167.062.152h1c0-.217-.08-.428-.172-.609a4.107 4.107 0 0 0-.4-.61l-.793.61Zm.365.61c0 .048-.018.165-.1.372-.076.199-.198.45-.369.754-.342.609-.863 1.4-1.569 2.378l.81.585c.716-.99 1.262-1.817 1.631-2.474.184-.328.33-.623.43-.88.097-.25.167-.503.167-.735h-1Zm-2.049 3.519c-1.104 1.656-2.232 2.915-3.38 3.795l.608.793c1.259-.964 2.459-2.315 3.604-4.033l-.832-.555Zm-3.397 3.808c-.43.36-.776.619-1.043.784a2.198 2.198 0 0 1-.318.169c-.083.034-.111.032-.099.032v1c.31 0 .642-.164.943-.35.326-.202.714-.494 1.16-.869l-.643-.766Zm-1.46.985c.046 0 .172.012.283.123a.407.407 0 0 1 .123.283h-1c0 .109.028.282.17.424.143.143.316.17.424.17v-1Zm.406.406a.398.398 0 0 1-.015.11l.01-.021c.017-.039.05-.1.101-.188l-.864-.504c-.058.1-.107.19-.144.269a1.18 1.18 0 0 0-.052.128.653.653 0 0 0-.036.206h1Zm-.004.023c1.291-1.144 2.534-2.806 3.738-4.959l-.873-.487c-1.172 2.097-2.35 3.654-3.528 4.697l.663.749Zm3.737-4.958c.585-1.043 1.03-1.954 1.331-2.73.298-.767.468-1.439.468-1.991h-1c0 .37-.12.905-.4 1.63-.278.716-.7 1.583-1.271 2.602l.872.49ZM22.313 23c0-.293-.155-.56-.311-.769l-.8.6a.912.912 0 0 1 .102.163c.016.036.009.035.009.006h1Zm-.823-.956c-1.167.268-2.134.539-2.894.814l.34.94c.708-.256 1.632-.516 2.777-.78l-.223-.974Zm-2.969.848c-.385.216-.583.264-.646.264v1c.343 0 .74-.17 1.135-.392l-.489-.872Zm-.646.264c.023 0-.015.004-.14-.058a3.366 3.366 0 0 1-.456-.29l-.59.807c.216.157.416.286.6.377.171.086.376.164.586.164v-1Zm-.606-.356a2.18 2.18 0 0 1-.37-.304.471.471 0 0 1-.032-.04l-.009-.013s.017.032.017.088h-1c0 .274.154.492.28.633.139.155.327.307.545.458l.569-.822Zm-.394-.269c0 .099-.036.15-.01.096.015-.03.044-.08.093-.157.098-.15.252-.362.468-.64l-.79-.613c-.221.285-.395.522-.516.707-.06.092-.113.181-.153.262a.798.798 0 0 0-.092.345h1Zm.582-.745c1.323-2.142 2.28-4.026 2.858-5.65l-.942-.335c-.547 1.533-1.465 3.352-2.767 5.46l.85.525Zm2.844-5.614c.23-.52.28-1.052.113-1.574l-.953.304c.083.26.07.539-.074.864l.914.406Zm.137-1.422c0-.064.014-.02-.04.049a.28.28 0 0 1-.11.083.19.19 0 0 1-.07.016v-1a.752.752 0 0 0-.6.276.907.907 0 0 0-.18.576h1Z"/></svg>