<svg xmlns="http://www.w3.org/2000/svg" width="50" height="50" fill="none"><path fill="#333" d="M24.438 15.336c.312 0 .773.172 1.382.516.64.406.961.726.961.96 0 .079-.133.313-.398.704-.313.375-.578 1.07-.797 2.086-.219 1-.508 2.062-.867 3.187 3.093-.562 4.937-.96 5.531-1.195.375-.11.688-.164.938-.164.328 0 .804.172 1.43.515.609.375.913.664.913.867 0 .157-.125.25-.375.282h-.375c-1.61.093-2.968.258-4.078.492l-4.547.75c-.234.656-.5 1.32-.797 1.992-.78 1.828-1.43 3.195-1.945 4.102-.297.53-.445.93-.445 1.195 0 .188.125.281.375.281s1.468-.312 3.656-.937c1.828-.485 3.234-.907 4.219-1.266a25.645 25.645 0 0 0-1.594-2.203c-.25-.313-.375-.5-.375-.563v-.093c.11 0 .445.133 1.008.398 1.062.5 2.101 1.203 3.117 2.11.766.703 1.148 1.585 1.148 2.648 0 .375-.086.688-.257.938-.11.187-.25.28-.422.28-.344 0-.664-.28-.961-.843a46.497 46.497 0 0 0-1.008-1.664c-3.188.719-6.078 1.71-8.672 2.977-.672.312-1.094.468-1.265.468-.172 0-.5-.226-.985-.68-.406-.453-.61-.757-.61-.913 0-.25.259-.743.774-1.477 1.016-1.36 2.086-3.508 3.211-6.445l-1.383.234c-.875.125-1.53.297-1.968.516-.47.156-.774.234-.915.234-.14 0-.468-.21-.984-.633-.469-.39-.703-.648-.703-.773 0-.25.156-.375.469-.375h.68c.874 0 2.671-.242 5.39-.727.89-2.469 1.336-4.539 1.336-6.21 0-.36-.063-.61-.188-.75v-.376c0-.297.125-.445.375-.445Z"/><path fill="#333" d="m25.82 15.852.268-.423-.01-.007-.012-.006-.246.436Zm.563 1.664.384.32.015-.019.014-.02-.413-.281Zm-.797 2.086.488.106v-.001l-.488-.105Zm-.867 3.187-.477-.152-.253.793.82-.149-.09-.492Zm5.531-1.195-.14-.48-.022.006-.022.009.184.465Zm2.367.351.262-.425-.01-.007-.01-.006-.242.438Zm.54 1.149v.5h.03l.031-.004-.062-.496Zm-.376 0v-.5H32.752l.03.5Zm-4.078.492.082.493.01-.002.011-.002-.103-.49Zm-4.547.75-.081-.493-.29.047-.1.278.471.168Zm-.797 1.992-.457-.202-.002.006.46.196Zm-1.945 4.102-.434-.248-.002.004.436.244Zm3.586.539-.128-.484-.01.003.138.48Zm4.219-1.266.171.47.592-.216-.345-.528-.418.274ZM27.625 27.5l-.39.312.003.005.387-.317Zm-.375-.656v-.5h-.5v.5h.5Zm1.008.398-.214.452.214-.452Zm3.117 2.11.338-.369-.005-.005-.333.374Zm.89 3.585-.411-.283-.01.015-.01.017.432.252Zm-1.382-.562.442-.233-.005-.009-.005-.009-.432.251Zm-1.008-1.664.422-.268-.189-.297-.343.077.11.488Zm-8.672 2.977.211.453.008-.004-.219-.45Zm-2.25-.211-.372.333.015.017.015.015.342-.365Zm.164-2.391-.4-.3-.005.007-.004.006.41.287Zm3.211-6.445.467.178.313-.818-.863.147.083.493Zm-1.383.234.071.495.013-.002-.084-.493Zm-1.968.516.158.474.033-.011.032-.016-.223-.447Zm-1.899-.399-.32.384.004.003.316-.387Zm5.836-1.875.088.492.284-.05.098-.272-.47-.17Zm1.148-6.96h-.5v.19l.127.141.373-.332Zm.375-.321c.171 0 .532.11 1.138.451l.491-.87c-.613-.347-1.174-.581-1.628-.581v1Zm1.115.438c.308.194.513.353.636.476.143.144.093.157.093.063h1c0-.33-.21-.593-.386-.77a4.783 4.783 0 0 0-.807-.614l-.536.845Zm.73.538c0-.054.01-.091.012-.1l.002-.007a1.055 1.055 0 0 1-.05.095c-.056.1-.147.243-.277.434l.827.563c.136-.2.244-.369.32-.504.038-.066.073-.133.1-.197a.735.735 0 0 0 .065-.284h-1Zm-.283.383c-.396.476-.681 1.277-.902 2.301l.978.21c.216-1.006.463-1.596.692-1.87l-.768-.64Zm-.901 2.3c-.215.982-.5 2.03-.855 3.142l.952.304c.363-1.137.657-2.215.88-3.233l-.977-.213Zm-.29 3.786c1.55-.282 2.79-.523 3.72-.724.915-.198 1.565-.363 1.906-.498l-.368-.93c-.252.1-.822.25-1.75.45-.914.198-2.142.437-3.687.718l.18.984Zm5.582-1.207c.352-.103.614-.144.797-.144v-1c-.316 0-.679.068-1.077.184l.28.96Zm.797-.144c.191 0 .57.113 1.19.453l.481-.876c-.631-.347-1.205-.577-1.67-.577v1Zm1.168.441c.293.18.488.325.604.435a.588.588 0 0 1 .09.101c.009.015-.018-.02-.018-.095h1a.822.822 0 0 0-.132-.431 1.546 1.546 0 0 0-.252-.3 4.778 4.778 0 0 0-.768-.561l-.524.851Zm.676.442c0-.03.007-.073.03-.119a.269.269 0 0 1 .077-.094c.02-.016.033-.019.024-.016a.383.383 0 0 1-.068.014l.124.992c.164-.02.357-.068.52-.19a.722.722 0 0 0 .293-.587h-1Zm.125-.22h-.375v1h.375v-1Zm-.404.002c-1.625.094-3.01.26-4.152.502l.206.978c1.078-.227 2.41-.39 4.004-.482l-.058-.998Zm-4.13.498-4.547.75.163.986 4.547-.75-.163-.986Zm-4.937 1.075c-.23.644-.49 1.297-.783 1.958l.915.404a29.86 29.86 0 0 0 .81-2.026l-.942-.336Zm-.785 1.964c-.78 1.823-1.42 3.17-1.92 4.05l.869.495c.53-.931 1.187-2.32 1.97-4.152l-.92-.393Zm-1.922 4.054c-.298.532-.51 1.032-.51 1.439h1c0-.124.087-.422.383-.951l-.873-.488Zm-.51 1.439c0 .216.08.45.294.61.188.141.409.171.582.171v-1c-.033 0-.045-.003-.043-.002.003 0 .028.007.062.032a.28.28 0 0 1 .086.109c.018.041.02.072.02.08h-1Zm.876.781c.124 0 .298-.032.473-.07.193-.04.445-.1.753-.18.616-.158 1.472-.394 2.567-.706l-.274-.962a102.66 102.66 0 0 1-2.542.7c-.302.077-.538.134-.712.17a4.161 4.161 0 0 1-.205.04c-.055.009-.07.008-.06.008v1Zm3.784-.954c1.833-.486 3.257-.912 4.262-1.28l-.343-.939c-.963.352-2.352.77-4.175 1.252l.256.967Zm4.51-2.023c-.57-.87-1.112-1.62-1.627-2.246l-.773.634a25.111 25.111 0 0 1 1.562 2.16l.837-.548Zm-1.623-2.241a5.276 5.276 0 0 1-.255-.34.7.7 0 0 1-.04-.064.408.408 0 0 1 .03.153h-1c0 .143.059.26.076.294.029.058.065.116.102.171.074.112.178.25.307.41l.78-.624Zm-.265-.25v-.094h-1v.093h1Zm-.5.406c-.05 0-.068-.01-.018.004.036.01.091.03.168.06.154.061.367.155.644.286l.427-.904c-.285-.135-.52-.24-.703-.312a3.106 3.106 0 0 0-.25-.088.959.959 0 0 0-.268-.046v1Zm.795.35c1.012.477 2.012 1.152 2.997 2.03l.666-.745c-1.046-.934-2.125-1.666-3.237-2.19l-.426.906Zm2.992 2.026c.66.606.986 1.354.986 2.28h1c0-1.199-.439-2.216-1.31-3.017l-.676.737Zm.986 2.28c0 .298-.067.505-.17.654l.825.567c.241-.351.345-.769.345-1.221h-1Zm-.19.686c-.026.046-.04.052-.032.046a.086.086 0 0 1 .043-.013v1c.398 0 .682-.235.853-.53l-.863-.503Zm.01.033c-.04 0-.234-.039-.518-.577l-.884.466c.31.587.756 1.11 1.403 1.11v-1Zm-.527-.595a46.95 46.95 0 0 0-1.02-1.682l-.843.537c.324.51.656 1.058.997 1.647l.866-.502Zm-1.551-1.9c-3.22.725-6.148 1.73-8.781 3.014l.438.899c2.555-1.247 5.408-2.227 8.563-2.938l-.22-.976Zm-8.773 3.01c-.33.154-.59.265-.783.336-.217.08-.287.086-.271.086v1c.187 0 .414-.072.619-.148.228-.085.516-.208.857-.367l-.422-.907Zm-1.055.422c.059 0 .08.017.049.002a.963.963 0 0 1-.14-.083 5.182 5.182 0 0 1-.551-.464l-.684.73c.25.235.474.423.667.557.097.066.196.126.295.171.093.042.22.087.364.087v-1Zm-.612-.513a4.907 4.907 0 0 1-.413-.512.895.895 0 0 1-.073-.125c-.012-.029.005-.004.005.056h-1c0 .139.042.26.08.347.041.093.096.186.156.277.12.18.29.39.5.624l.745-.667Zm-.481-.58c0 .007.01-.083.136-.325.115-.22.294-.506.546-.865l-.818-.574c-.264.375-.47.702-.614.975-.131.25-.25.531-.25.788h1Zm.674-1.178c1.057-1.415 2.147-3.615 3.277-6.566l-.934-.357c-1.12 2.924-2.17 5.021-3.144 6.325l.8.598Zm2.727-7.237-1.383.234.167.986 1.383-.234-.167-.986Zm-1.37.232c-.893.128-1.612.309-2.122.563l.447.895c.366-.183.959-.346 1.816-.468l-.141-.99Zm-2.057.536c-.228.076-.41.131-.546.166-.068.017-.12.029-.16.036-.042.007-.055.007-.05.007v1c.139 0 .303-.034.459-.074.168-.043.374-.106.614-.186l-.317-.949Zm-.756.209c.073 0 .104.022.065.005a1.211 1.211 0 0 1-.146-.084 6.845 6.845 0 0 1-.586-.44l-.633.773c.263.216.491.388.679.508.093.06.186.114.276.154a.853.853 0 0 0 .346.084v-1Zm-.664-.517a5.039 5.039 0 0 1-.477-.439.717.717 0 0 1-.076-.093c-.014-.023.03.034.03.143h-1c0 .17.073.307.117.38.053.085.12.167.189.243.14.154.336.333.577.534l.64-.768Zm-.523-.39c0-.01.002.003-.01.029a.208.208 0 0 1-.06.08c-.026.021-.043.025-.038.023a.327.327 0 0 1 .077-.006v-1c-.21 0-.46.04-.664.203a.836.836 0 0 0-.305.672h1Zm-.031.126h.68v-1h-.68v1Zm.68 0c.927 0 2.768-.252 5.478-.735l-.176-.984c-2.727.486-4.48.719-5.303.719v1Zm5.86-1.057c.9-2.496 1.366-4.628 1.366-6.38h-1c0 1.59-.425 3.599-1.306 6.04l.94.34Zm1.366-6.38c0-.385-.06-.798-.314-1.083l-.747.664c-.007-.008.01.008.03.082.017.074.031.183.031.336h1Zm-.188-.75v-.376h-1v.375h1Zm0-.376a.384.384 0 0 1 .005-.056v-.003s-.006.02-.028.047a.211.211 0 0 1-.082.06c-.023.01-.034.007-.02.007v-1a.844.844 0 0 0-.663.29c-.17.2-.212.449-.212.655h1Z"/></svg>