<svg xmlns="http://www.w3.org/2000/svg" width="50" height="50" fill="none"><path fill="#333" d="M25.563 14.656c.359 0 .82.188 1.382.563.828.578 1.242.96 1.242 1.148 0 .297-.195.555-.585.774-.547.328-1.336 1.226-2.368 2.695-.843 1.219-1.265 1.867-1.265 1.945 0 .188.093.282.281.282.203 0 .992-.149 2.367-.446 1.985-.578 3.008-.867 3.07-.867.344 0 .868.273 1.57.82.579.422.868.742.868.961 0 .14-.11.328-.328.563-.281.39-.57 1.195-.867 2.414-.688 2.656-1.446 4.71-2.274 6.164-.515.953-1.148 1.703-1.898 2.25-.688.531-1.336.797-1.945.797-.36 0-.61-.14-.75-.422-.22-.453-.711-1.008-1.477-1.664-.64-.531-.961-.836-.961-.914v-.094c.047 0 .414.117 1.102.352.812.28 1.382.421 1.71.421.782 0 1.54-.43 2.274-1.289.766-.875 1.437-2.226 2.016-4.054.578-1.766.867-3.149.867-4.149 0-.297-.188-.445-.563-.445-.812 0-2.445.336-4.898 1.008-1.235.375-1.883.562-1.945.562-.094 0-.313-.164-.657-.492-.312-.328-.468-.602-.468-.82 0-.469.195-.758.585-.867.5-.172 1.204-1.047 2.11-2.625.703-1.266 1.055-2.07 1.055-2.415 0-.296-.157-.445-.47-.445-.343 0-1.234.188-2.671.563-1.25.312-1.953.468-2.11.468-.218 0-.554-.187-1.007-.562-.453-.36-.68-.617-.68-.773 0-.063.063-.094.188-.094.875 0 2.093-.125 3.656-.375 1.687-.313 2.75-.563 3.187-.75.313-.125.532-.188.657-.188Z"/><path fill="#333" d="m26.945 15.219.287-.41-.01-.006-.277.416Zm.657 1.922-.245-.437-.006.004-.007.004.258.429Zm-2.368 2.695-.409-.287-.002.002.411.285Zm1.383 1.781.106.489.017-.004.017-.005-.14-.48Zm4.64-.047-.306.395.006.005.006.004.295-.404Zm.54 1.524-.366-.341-.021.023-.019.026.406.292Zm-.867 2.414.484.125.002-.007-.486-.118Zm-2.274 6.164-.434-.248-.006.01.44.238Zm-1.898 2.25-.295-.404-.01.008.305.396Zm-2.695.375-.45.217.002.006.448-.223Zm-1.477-1.664.325-.38-.006-.005-.32.385Zm-.961-1.008v-.5h-.5v.5h.5Zm1.102.352.163-.473h-.002l-.161.473Zm3.984-.868-.376-.329-.004.005.38.324Zm2.016-4.054-.476-.156-.001.005.477.15Zm-4.594-3.586L24 22.986l-.014.004.146.479Zm-2.602.07-.362.345.008.008.009.009.345-.362Zm.117-1.687.135.481.014-.004.014-.005-.163-.472Zm2.11-2.625.433.249.004-.007-.437-.242Zm-2.086-2.297.121.485.005-.002-.126-.483Zm-3.117-.094.319-.385-.009-.007-.31.392Zm3.164-1.242.079.494.012-.003-.091-.491Zm3.187-.75-.185-.465-.012.005.197.46Zm.657.312c.206 0 .563.117 1.105.479l.555-.832c-.583-.389-1.148-.647-1.66-.647v1Zm1.096.473c.408.284.696.51.879.678.091.085.143.143.167.177.037.05-.017 0-.017-.117h1a.815.815 0 0 0-.173-.47 2.293 2.293 0 0 0-.299-.325 9.647 9.647 0 0 0-.985-.763l-.572.82Zm1.029.738c0 .034-.01.158-.33.337l.488.873c.46-.258.841-.65.841-1.21h-1Zm-.344.345c-.34.204-.716.558-1.12 1.019-.41.467-.877 1.075-1.399 1.818l.819.574c.51-.726.953-1.302 1.331-1.733.385-.438.678-.697.884-.82l-.515-.858Zm-2.52 2.84a64.49 64.49 0 0 0-.958 1.412 9.81 9.81 0 0 0-.25.4c-.03.05-.057.1-.079.146a.87.87 0 0 0-.035.083c-.007.02-.033.094-.033.188h1c0 .085-.024.145-.024.145-.005.014-.008.02-.005.015.004-.01.017-.033.04-.074.047-.08.12-.198.224-.358.207-.318.52-.78.941-1.389l-.822-.569Zm-1.355 2.23c0 .17.043.39.216.564a.782.782 0 0 0 .565.216v-1c-.017 0 .063-.003.143.077.08.08.076.159.076.142h-1Zm.781.78c.159 0 .459-.048.837-.12.4-.075.947-.187 1.636-.336l-.211-.978c-.686.148-1.222.259-1.61.332a13.353 13.353 0 0 1-.601.098l-.051.005v1Zm2.507-.465a309.72 309.72 0 0 1 2.252-.649 41.426 41.426 0 0 1 .753-.204c.019-.004-.021.006-.075.006v-1c-.06 0-.116.012-.12.013l-.064.014c-.044.01-.102.026-.171.044-.14.037-.338.092-.595.165-.514.145-1.267.362-2.26.651l.28.96Zm2.93-.847c.053 0 .185.026.42.148.225.118.505.304.844.567l.614-.79a6.846 6.846 0 0 0-.996-.663c-.288-.15-.59-.262-.881-.262v1Zm1.276.724c.277.202.463.364.574.488.131.145.088.158.088.07h1c0-.308-.188-.565-.346-.74a4.828 4.828 0 0 0-.727-.626l-.589.808Zm.662.557c0-.053.018-.061-.014-.006a1.37 1.37 0 0 1-.18.228l.731.682a2.34 2.34 0 0 0 .313-.406.998.998 0 0 0 .15-.498h-1Zm-.234.27c-.181.252-.342.602-.492 1.02-.153.425-.304.95-.455 1.569l.972.236c.145-.6.287-1.087.424-1.467.139-.387.262-.634.363-.773l-.812-.584Zm-.945 2.582c-.683 2.637-1.427 4.643-2.224 6.041l.869.495c.86-1.508 1.63-3.61 2.323-6.286l-.968-.25Zm-2.23 6.051c-.486.899-1.072 1.588-1.753 2.084l.59.808c.819-.598 1.498-1.409 2.043-2.416l-.88-.476Zm-1.764 2.092c-.636.492-1.18.693-1.64.693v1c.759 0 1.513-.33 2.252-.901l-.612-.792Zm-1.64.693a.43.43 0 0 1-.211-.041.225.225 0 0 1-.091-.105l-.895.447c.11.221.275.405.495.53.217.12.458.169.703.169v-1Zm-.3-.14c-.265-.55-.825-1.16-1.6-1.826l-.651.76c.755.647 1.18 1.146 1.351 1.501l.9-.434Zm-1.607-1.831a14.767 14.767 0 0 1-.695-.604 2.017 2.017 0 0 1-.142-.145c-.011-.014-.007-.011.002.004a.45.45 0 0 1 .055.216h-1c0 .152.067.264.085.295.03.05.063.093.092.127.058.069.134.146.219.227.172.164.423.382.746.65l.638-.77Zm-.78-.53v-.093h-1v.094h1Zm-.5.407c-.06 0-.102-.012-.08-.007a45.073 45.073 0 0 1 1.02.332l.323-.947a46.32 46.32 0 0 0-.8-.266 7.82 7.82 0 0 0-.318-.094c-.01-.002-.074-.018-.145-.018v1Zm.938.324c.806.28 1.451.45 1.875.45v-1c-.234 0-.73-.112-1.548-.395l-.327.945Zm1.875.45c.983 0 1.867-.545 2.653-1.465l-.76-.65c-.683.8-1.314 1.114-1.893 1.114v1Zm2.65-1.46c.83-.95 1.528-2.377 2.115-4.234l-.953-.301c-.57 1.8-1.215 3.076-1.915 3.876l.752.659Zm2.114-4.229c.583-1.78.892-3.224.892-4.304h-1c0 .92-.27 2.242-.843 3.993l.95.311Zm.892-4.304a.898.898 0 0 0-.33-.726c-.22-.174-.493-.22-.733-.22v1c.063 0 .1.007.119.012.018.005.01.006-.007-.008a.152.152 0 0 1-.045-.058c-.008-.019-.004-.022-.004 0h1Zm-1.063-.945c-.891 0-2.59.357-5.03 1.026l.264.964c2.466-.676 4.033-.99 4.766-.99v-1Zm-5.043 1.03c-.617.187-1.085.326-1.406.42a17.137 17.137 0 0 1-.453.124c-.04.009 0-.004.058-.004v1c.075 0 .15-.018.16-.02l.125-.031a120.163 120.163 0 0 0 1.806-.532l-.29-.958Zm-1.8.54c.057 0 .098.012.114.018.018.005.027.01.024.009a.645.645 0 0 1-.073-.05 4.54 4.54 0 0 1-.377-.33l-.69.723c.177.17.334.308.467.407.066.05.137.098.208.135.058.03.178.088.326.088v-1Zm-.295-.337a1.942 1.942 0 0 1-.28-.354c-.052-.093-.05-.129-.05-.121h-1c0 .226.08.436.183.617.104.183.25.366.423.548l.724-.69Zm-.33-.475c0-.168.035-.25.06-.289.021-.03.06-.069.16-.097l-.27-.963a1.25 1.25 0 0 0-.718.5c-.17.252-.233.548-.233.849h1Zm.248-.395c.395-.135.772-.5 1.13-.944.374-.467.791-1.105 1.25-1.904l-.867-.498c-.447.778-.835 1.366-1.163 1.775-.345.43-.57.59-.675.626l.325.945Zm2.384-2.855c.355-.639.627-1.172.812-1.595.092-.211.166-.403.218-.57.049-.162.087-.332.087-.491h-1a.853.853 0 0 1-.044.197 4.466 4.466 0 0 1-.177.464 18.67 18.67 0 0 1-.77 1.51l.874.485Zm1.117-2.657c0-.232-.062-.496-.272-.696-.206-.195-.47-.249-.696-.249v1c.04 0 .055.005.054.005a.136.136 0 0 1-.047-.031.18.18 0 0 1-.04-.058c-.003-.009.002-.002.002.03h1Zm-.968-.945c-.231 0-.588.059-1.029.151-.456.097-1.047.24-1.77.428l.253.967a38.84 38.84 0 0 1 1.723-.416c.45-.095.71-.13.823-.13v-1Zm-2.793.578c-.624.155-1.107.271-1.452.348-.173.039-.308.066-.406.084-.113.02-.143.021-.13.021v1c.09 0 .206-.018.309-.037.116-.021.265-.052.444-.092.357-.08.85-.198 1.477-.354l-.242-.97Zm-1.988.453c.018 0-.03.003-.173-.077a3.629 3.629 0 0 1-.517-.37l-.637.77c.239.198.462.36.667.473.193.108.422.204.66.204v-1Zm-.698-.454a3.579 3.579 0 0 1-.444-.401.544.544 0 0 1-.065-.084c-.007-.013.019.027.019.104h-1c0 .155.054.285.104.376.052.095.12.183.19.264.142.162.339.337.575.525l.621-.784Zm-.49-.381a.427.427 0 0 1-.23.376c-.073.037-.12.03-.082.03v-1a.813.813 0 0 0-.365.076.572.572 0 0 0-.323.518h1Zm-.313.406c.915 0 2.164-.13 3.736-.382l-.158-.987c-1.554.249-2.742.369-3.578.369v1Zm3.748-.384c1.67-.309 2.794-.568 3.293-.782l-.394-.919c-.375.161-1.377.402-3.081.718l.182.983Zm3.282-.777c.147-.059.263-.1.35-.124.095-.027.128-.028.12-.028v-1c-.132 0-.27.031-.395.066a4.723 4.723 0 0 0-.446.158l.37.928Z"/></svg>