<svg xmlns="http://www.w3.org/2000/svg" width="50" height="50" fill="none"><path fill="#333" d="M20.219 16.156c.281 0 .633.196 1.054.586.36.328.54.633.54.914 0 .078-.063.211-.188.399-.531.78-1.055 1.89-1.57 3.328-.266.75-.399 1.195-.399 1.336 0 .187.125.281.375.281l.516-.117 3.258-.844c.593-2.016.93-4.125 1.008-6.328.046-.703.359-1.055.937-1.055.375 0 .734.094 1.078.281.219.126.328.344.328.657 0 .484-.25 1.719-.75 3.703a44.926 44.926 0 0 1-.633 2.25l3.258-.82c.344-.11.742-.305 1.196-.586.406-.22.632-.328.68-.328.202 0 .554.195 1.054.585.61.454.914.797.914 1.032 0 .062-.031.164-.094.304-.078.203-.164 1.04-.258 2.508-.234 2.5-.664 4.547-1.289 6.14-.547 1.47-1.218 2.595-2.015 3.376-.782.765-1.438 1.148-1.969 1.148a.983.983 0 0 1-.516-.14.44.44 0 0 1-.21-.305c-.063-.219-.383-.648-.962-1.29-.562-.577-.843-.905-.843-.983.015-.063.047-.094.093-.094l.704.164c.562.156 1.015.234 1.359.234.61 0 1.133-.242 1.57-.726.516-.547 1.055-1.774 1.617-3.68.625-2.047.938-3.922.938-5.625 0-.484-.188-.742-.563-.773-.703 0-2.398.367-5.085 1.101-.704 1.969-1.5 3.672-2.391 5.11-1.547 2.5-3.25 4.343-5.11 5.53-.374.235-.585.352-.632.352-.063 0-.094-.031-.094-.093 0-.094.086-.243.258-.446 1.219-1.281 2.414-2.914 3.586-4.898 1.11-1.813 1.922-3.485 2.437-5.016-2.297.625-3.703 1.078-4.218 1.36-.375.187-.594.28-.657.28-.156 0-.406-.163-.75-.491-.312-.313-.468-.524-.468-.633 0-.125.07-.344.21-.657a12.254 12.254 0 0 0 1.665-3.468c.5-1.25.75-2.282.75-3.094 0-.313.093-.469.28-.469Z"/><path fill="#333" d="m21.273 16.742-.34.367.003.002.337-.369Zm.352 1.313.413.28.003-.003-.416-.277Zm-1.57 3.328-.471-.169v.002l.47.167ZM20.03 23v.5h.056l.055-.012-.11-.488Zm.516-.117.11.487.008-.001.007-.002-.125-.484Zm3.258-.844.125.484.274-.07.08-.273-.48-.14Zm1.008-6.328-.5-.033v.015l.5.018Zm2.015-.774.248-.434-.008-.004-.24.438Zm-.422 4.36.485.123v-.001l-.485-.122Zm-.633 2.25-.477-.149-.265.851.864-.217-.122-.485Zm3.258-.82.122.484.015-.003.015-.005-.152-.476Zm1.196-.586-.238-.44-.013.007-.013.008.264.425Zm1.734.257-.308.395.01.007.298-.402Zm.82 1.336-.457-.203-.005.012-.004.012.466.18Zm-.258 2.508.498.047v-.008l.001-.007-.499-.032Zm-1.289 6.14-.465-.182-.003.008.468.175Zm-2.015 3.376.35.357-.35-.357Zm-2.485 1.008.258-.43-.01-.005-.248.435Zm-.21-.305.488-.108-.004-.015-.004-.014-.48.137Zm-.962-1.29.372-.334-.007-.007-.006-.007-.358.349Zm-.843-.983-.485-.122-.015.06v.062h.5Zm.093-.094.114-.487-.056-.013h-.058v.5Zm.704.164.133-.482-.01-.003-.01-.002-.113.487Zm2.93-.492-.365-.343-.007.008.371.335Zm1.616-3.68-.478-.146-.001.004.48.142Zm.375-6.398.042-.499-.02-.002h-.021v.5Zm-5.085 1.101-.132-.482-.252.068-.087.246.47.168ZM22.96 27.9l-.425-.264.425.263Zm-5.11 5.53.266.425.004-.003-.27-.421Zm-.468-.187-.363-.344-.01.01-.009.011.382.323Zm3.586-4.898-.427-.261-.004.007.43.254Zm2.437-5.016.474.16.3-.888-.905.246.131.482Zm-4.218 1.36.223.447.008-.004.008-.005-.24-.439Zm-1.407-.211-.353.353.008.008.345-.361Zm-.258-1.29-.41-.284-.027.038-.018.041.455.206Zm1.665-3.468-.465-.186-.008.02-.006.022.479.144Zm1.03-3.063c.077 0 .304.072.716.453l.68-.734c-.433-.4-.909-.719-1.395-.719v1Zm.718.455c.327.3.377.479.377.545h1c0-.495-.31-.925-.702-1.283l-.675.738Zm.377.545a.26.26 0 0 1 .008-.073l-.008.019a1.474 1.474 0 0 1-.104.175l.832.555c.07-.105.131-.207.177-.305a.886.886 0 0 0 .095-.37h-1Zm-.101.117c-.565.831-1.106 1.985-1.628 3.441l.941.338c.51-1.42 1.016-2.485 1.514-3.216l-.828-.563Zm-1.629 3.443c-.134.378-.236.686-.306.92-.035.117-.064.221-.084.31a1.284 1.284 0 0 0-.037.273h1c0 .024-.003.016.013-.052.013-.059.034-.14.066-.245.063-.21.16-.5.291-.872l-.943-.334Zm-.427 1.503c0 .215.08.45.294.61.187.141.408.171.581.171v-1c-.033 0-.045-.003-.043-.003.003.001.029.008.062.033a.28.28 0 0 1 .087.109c.018.04.02.072.02.08h-1Zm.986.769.516-.118-.222-.975-.516.117.222.976Zm.53-.121 3.258-.844-.25-.968-3.258.844.25.968Zm3.612-1.187a26.005 26.005 0 0 0 1.028-6.451l-1-.036a25.007 25.007 0 0 1-.987 6.205l.96.282Zm1.027-6.436c.02-.293.091-.431.145-.492.04-.045.112-.096.294-.096v-1c-.396 0-.77.125-1.042.432-.258.29-.367.68-.394 1.09l.997.066Zm.439-.588c.288 0 .565.071.839.22l.479-.877a2.72 2.72 0 0 0-1.318-.343v1Zm.83.216c.024.013.076.038.076.222h1c0-.442-.166-.854-.58-1.09l-.496.868Zm.076.222c0 .185-.052.57-.177 1.19a54.676 54.676 0 0 1-.558 2.39l.97.245c.251-.996.44-1.809.568-2.437.124-.614.197-1.09.197-1.388h-1Zm-.734 3.58a44.48 44.48 0 0 1-.626 2.224l.955.297c.221-.712.435-1.47.64-2.275l-.97-.247Zm-.027 2.858 3.258-.82-.244-.97-3.258.82.244.97Zm3.288-.829c.397-.126.834-.344 1.307-.638l-.527-.85c-.433.27-.793.443-1.083.535l.303.953Zm1.28-.622c.202-.108.352-.186.456-.236l.104-.048c.01-.004.009-.003 0 0a.444.444 0 0 1-.117.016v-1c-.082 0-.148.02-.168.025a.993.993 0 0 0-.086.03 2.74 2.74 0 0 0-.168.076c-.123.06-.29.146-.495.256l.475.88Zm.443-.268c-.032 0 .012-.006.173.083.144.08.334.21.574.396l.616-.788a5.654 5.654 0 0 0-.704-.482c-.19-.106-.423-.21-.659-.21v1Zm.757.487c.292.217.49.393.61.528.138.156.102.18.102.102h1c0-.313-.188-.578-.354-.766a5.101 5.101 0 0 0-.762-.667l-.596.803Zm.712.63c0-.024.003-.039.003-.04l-.004.016a1.2 1.2 0 0 1-.05.125l.914.406c.061-.137.137-.327.137-.507h-1Zm-.06.125c-.04.105-.067.243-.088.372a10.39 10.39 0 0 0-.066.535c-.044.428-.09 1.012-.136 1.748l.997.064c.047-.732.092-1.3.134-1.71a9.25 9.25 0 0 1 .06-.48c.02-.13.033-.174.032-.17l-.933-.36Zm-.29 2.64c-.231 2.474-.654 4.47-1.256 6.005l.93.365c.649-1.652 1.085-3.75 1.322-6.276l-.995-.094Zm-1.26 6.013c-.53 1.426-1.169 2.48-1.896 3.193l.7.714c.866-.85 1.571-2.046 2.134-3.558l-.937-.349Zm-1.896 3.193c-.373.365-.7.622-.98.786-.283.165-.492.22-.639.22v1c.384 0 .769-.138 1.143-.356.375-.22.767-.536 1.176-.936l-.7-.714Zm-1.619 1.005a.484.484 0 0 1-.258-.07l-.515.858c.236.142.498.212.773.212v-1Zm-.268-.075a.093.093 0 0 1 .028.026c.008.011.005.013.002-.005l-.977.217a.94.94 0 0 0 .451.63l.496-.867Zm.022-.007c-.059-.206-.206-.433-.367-.648a12.16 12.16 0 0 0-.703-.84l-.743.67c.284.316.498.57.645.767.073.099.126.178.162.238.038.066.046.091.045.087l.961-.274Zm-1.083-1.5c-.28-.288-.481-.505-.612-.657a2.143 2.143 0 0 1-.126-.159c-.011-.015-.01-.015-.004-.003a.444.444 0 0 1 .04.183h-1c0 .132.05.234.066.264.023.047.051.09.075.126.05.071.116.153.19.24.151.176.37.411.654.703l.717-.698Zm-.717-.515a.357.357 0 0 1-.096.162.42.42 0 0 1-.296.123v-1a.58.58 0 0 0-.412.17.645.645 0 0 0-.166.302l.97.243Zm-.505.272.703.164.227-.974-.703-.164-.227.974Zm.683.159c.58.16 1.083.252 1.493.252v-1c-.278 0-.68-.065-1.226-.216l-.267.964Zm1.493.252c.762 0 1.417-.31 1.941-.891l-.742-.67c-.35.387-.742.561-1.199.561v1Zm1.934-.883c.316-.336.608-.841.885-1.472.281-.64.563-1.445.848-2.41l-.96-.283c-.277.942-.545 1.703-.803 2.29-.262.596-.498.977-.698 1.189l.728.686Zm1.732-3.877c.636-2.083.959-4.008.959-5.771h-1c0 1.643-.302 3.468-.916 5.479l.957.292Zm.959-5.771c0-.296-.056-.602-.236-.85a1.046 1.046 0 0 0-.785-.422l-.083.997a.17.17 0 0 1 .06.012h-.001c.007.01.045.075.045.263h1Zm-1.063-1.273c-.41 0-1.058.103-1.904.286-.86.186-1.965.464-3.313.833l.263.964a65.555 65.555 0 0 1 3.261-.82c.85-.183 1.401-.264 1.694-.264v-1Zm-5.556 1.433c-.694 1.943-1.477 3.613-2.345 5.014l.85.527c.913-1.474 1.724-3.21 2.436-5.205l-.941-.336Zm-2.345 5.014c-1.52 2.457-3.175 4.237-4.954 5.373l.539.843c1.94-1.239 3.691-3.146 5.265-5.69l-.85-.526Zm-4.95 5.37a10.34 10.34 0 0 1-.417.251 1.476 1.476 0 0 1-.091.048l.008-.003s.055-.02.133-.02v1c.09 0 .16-.023.183-.03a.942.942 0 0 0 .09-.036 2.39 2.39 0 0 0 .163-.085c.117-.064.272-.158.462-.276l-.53-.848Zm-.367.276c.046 0 .172.012.283.123a.408.408 0 0 1 .123.283h-1c0 .109.027.282.17.424.142.143.315.17.424.17v-1Zm.406.407c0 .05-.01.081-.013.086-.002.007 0 .001.01-.018.023-.038.067-.101.143-.19L17 32.918c-.096.114-.18.227-.244.336a.876.876 0 0 0-.132.432h1Zm.12-.101c1.251-1.316 2.469-2.981 3.654-4.989l-.86-.508c-1.159 1.96-2.332 3.56-3.519 4.808l.725.689Zm3.65-4.982c1.123-1.835 1.954-3.541 2.485-5.117l-.948-.32c-.5 1.487-1.294 3.125-2.39 4.915l.853.522Zm1.88-5.76a65.898 65.898 0 0 0-2.8.816c-.701.226-1.223.422-1.527.588l.479.877c.212-.115.65-.286 1.355-.513a65.08 65.08 0 0 1 2.756-.802l-.263-.965Zm-4.311 1.395a8.462 8.462 0 0 1-.419.199l-.096.038c-.008.003-.007.002 0 0a.362.362 0 0 1 .082-.008v1c.105 0 .2-.032.235-.044.053-.017.112-.04.173-.067.123-.053.281-.128.472-.223l-.447-.895Zm-.433.229c.046 0 .066.01.053.005a.527.527 0 0 1-.083-.046 2.843 2.843 0 0 1-.375-.313l-.69.723c.183.174.356.32.516.426.144.094.349.205.58.205v-1Zm-.396-.346a3.288 3.288 0 0 1-.304-.337.684.684 0 0 1-.037-.056l-.002-.003v-.001.001l.002.004.006.02a.339.339 0 0 1 .012.093h-1c0 .136.046.25.08.32.038.077.086.15.136.218.1.134.236.284.4.448l.707-.707Zm-.323-.28c0 .017-.001-.01.03-.104.027-.085.071-.2.137-.346l-.912-.41a4.43 4.43 0 0 0-.178.45 1.38 1.38 0 0 0-.076.41h1Zm.123-.371a12.756 12.756 0 0 0 1.731-3.61l-.957-.287c-.36 1.2-.893 2.31-1.597 3.328l.823.569Zm1.717-3.568c.51-1.275.785-2.375.785-3.279h-1c0 .72-.224 1.683-.714 2.908l.929.371Zm.785-3.279c0-.055.005-.089.008-.107.004-.019.005-.01-.008.013a.265.265 0 0 1-.099.092.253.253 0 0 1-.12.033v-1a.73.73 0 0 0-.639.36c-.116.194-.142.42-.142.609h1Z"/></svg>