<svg width="50" height="50" viewBox="0 0 50 50" fill="none" xmlns="http://www.w3.org/2000/svg">
<path d="M20.2188 16.1562C20.5 16.1562 20.8516 16.3516 21.2734 16.7422C21.6328 17.0703 21.8125 17.375 21.8125 17.6562C21.8125 17.7344 21.75 17.8672 21.625 18.0547C21.0938 18.8359 20.5703 19.9453 20.0547 21.3828C19.7891 22.1328 19.6562 22.5781 19.6562 22.7188C19.6562 22.9062 19.7812 23 20.0312 23L20.5469 22.8828L23.8047 22.0391C24.3984 20.0234 24.7344 17.9141 24.8125 15.7109C24.8594 15.0078 25.1719 14.6562 25.75 14.6562C26.125 14.6562 26.4844 14.75 26.8281 14.9375C27.0469 15.0625 27.1562 15.2812 27.1562 15.5938C27.1562 16.0781 26.9062 17.3125 26.4062 19.2969C26.2031 20.0938 25.9922 20.8438 25.7734 21.5469L29.0312 20.7266C29.375 20.6172 29.7734 20.4219 30.2266 20.1406C30.6328 19.9219 30.8594 19.8125 30.9062 19.8125C31.1094 19.8125 31.4609 20.0078 31.9609 20.3984C32.5703 20.8516 32.875 21.1953 32.875 21.4297C32.875 21.4922 32.8438 21.5938 32.7812 21.7344C32.7031 21.9375 32.6172 22.7734 32.5234 24.2422C32.2891 26.7422 31.8594 28.7891 31.2344 30.3828C30.6875 31.8516 30.0156 32.9766 29.2188 33.7578C28.4375 34.5234 27.7812 34.9062 27.25 34.9062C27.0625 34.9062 26.8906 34.8594 26.7344 34.7656C26.625 34.7031 26.5547 34.6016 26.5234 34.4609C26.4609 34.2422 26.1406 33.8125 25.5625 33.1719C25 32.5938 24.7188 32.2656 24.7188 32.1875C24.7344 32.125 24.7656 32.0938 24.8125 32.0938L25.5156 32.2578C26.0781 32.4141 26.5312 32.4922 26.875 32.4922C27.4844 32.4922 28.0078 32.25 28.4453 31.7656C28.9609 31.2188 29.5 29.9922 30.0625 28.0859C30.6875 26.0391 31 24.1641 31 22.4609C31 21.9766 30.8125 21.7188 30.4375 21.6875C29.7344 21.6875 28.0391 22.0547 25.3516 22.7891C24.6484 24.7578 23.8516 26.4609 22.9609 27.8984C21.4141 30.3984 19.7109 32.2422 17.8516 33.4297C17.4766 33.6641 17.2656 33.7812 17.2188 33.7812C17.1562 33.7812 17.125 33.75 17.125 33.6875C17.125 33.5938 17.2109 33.4453 17.3828 33.2422C18.6016 31.9609 19.7969 30.3281 20.9688 28.3438C22.0781 26.5312 22.8906 24.8594 23.4062 23.3281C21.1094 23.9531 19.7031 24.4062 19.1875 24.6875C18.8125 24.875 18.5938 24.9688 18.5312 24.9688C18.375 24.9688 18.125 24.8047 17.7812 24.4766C17.4688 24.1641 17.3125 23.9531 17.3125 23.8438C17.3125 23.7188 17.3828 23.5 17.5234 23.1875C18.2578 22.125 18.8125 20.9688 19.1875 19.7188C19.6875 18.4688 19.9375 17.4375 19.9375 16.625C19.9375 16.3125 20.0312 16.1562 20.2188 16.1562Z" fill="#333333"/>
<path d="M21.2734 16.7422L20.9337 17.1091L20.9363 17.1114L21.2734 16.7422ZM21.625 18.0547L22.0385 18.3359L22.041 18.332L21.625 18.0547ZM20.0547 21.3828L19.584 21.214L19.5834 21.2159L20.0547 21.3828ZM20.0312 23V23.5H20.0874L20.1421 23.4876L20.0312 23ZM20.5469 22.8828L20.6577 23.3704L20.665 23.3687L20.6722 23.3668L20.5469 22.8828ZM23.8047 22.0391L23.93 22.5231L24.2043 22.4521L24.2843 22.1803L23.8047 22.0391ZM24.8125 15.7109L24.3136 15.6777L24.3131 15.6854L24.3128 15.6932L24.8125 15.7109ZM26.8281 14.9375L27.0762 14.5033L27.0676 14.4986L26.8281 14.9375ZM26.4062 19.2969L26.8908 19.4204L26.8911 19.419L26.4062 19.2969ZM25.7734 21.5469L25.296 21.3983L25.0312 22.2494L25.8955 22.0317L25.7734 21.5469ZM29.0312 20.7266L29.1533 21.2114L29.1682 21.2077L29.1829 21.203L29.0312 20.7266ZM30.2266 20.1406L29.9895 19.7004L29.976 19.7077L29.9629 19.7158L30.2266 20.1406ZM31.9609 20.3984L31.653 20.7926L31.6626 20.7997L31.9609 20.3984ZM32.7812 21.7344L32.3243 21.5313L32.3192 21.543L32.3146 21.5549L32.7812 21.7344ZM32.5234 24.2422L33.0213 24.2889L33.0219 24.2815L33.0224 24.274L32.5234 24.2422ZM31.2344 30.3828L30.7688 30.2002L30.7658 30.2083L31.2344 30.3828ZM29.2188 33.7578L29.5687 34.1149L29.5688 34.1148L29.2188 33.7578ZM26.7344 34.7656L26.9917 34.3368L26.9824 34.3315L26.7344 34.7656ZM26.5234 34.4609L27.0115 34.3525L27.0083 34.3379L27.0042 34.3236L26.5234 34.4609ZM25.5625 33.1719L25.9337 32.8369L25.9274 32.8299L25.9209 32.8232L25.5625 33.1719ZM24.7188 32.1875L24.2337 32.0662L24.2188 32.1259V32.1875H24.7188ZM24.8125 32.0938L24.9261 31.6068L24.8701 31.5938H24.8125V32.0938ZM25.5156 32.2578L25.6494 31.7761L25.6394 31.7733L25.6292 31.7709L25.5156 32.2578ZM28.4453 31.7656L28.0814 31.4225L28.0743 31.4305L28.4453 31.7656ZM30.0625 28.0859L29.5843 27.9399L29.5829 27.9444L30.0625 28.0859ZM30.4375 21.6875L30.479 21.1892L30.4583 21.1875H30.4375V21.6875ZM25.3516 22.7891L25.2198 22.3067L24.9684 22.3754L24.8807 22.6209L25.3516 22.7891ZM22.9609 27.8984L22.5359 27.6351L22.5357 27.6354L22.9609 27.8984ZM17.8516 33.4297L18.1166 33.8537L18.1207 33.8511L17.8516 33.4297ZM17.3828 33.2422L17.0205 32.8976L17.0105 32.9081L17.0011 32.9192L17.3828 33.2422ZM20.9688 28.3438L20.5422 28.0827L20.5382 28.0895L20.9688 28.3438ZM23.4062 23.3281L23.8801 23.4877L24.1791 22.5996L23.275 22.8457L23.4062 23.3281ZM19.1875 24.6875L19.4111 25.1347L19.4191 25.1307L19.4269 25.1264L19.1875 24.6875ZM17.7812 24.4766L17.4276 24.8302L17.436 24.8382L17.7812 24.4766ZM17.5234 23.1875L17.1121 22.9032L17.0862 22.9407L17.0675 22.9823L17.5234 23.1875ZM19.1875 19.7188L18.7233 19.5331L18.715 19.5537L18.7086 19.5751L19.1875 19.7188ZM20.2188 16.6562C20.2949 16.6562 20.5223 16.7281 20.9337 17.1091L21.6131 16.3753C21.1808 15.975 20.7051 15.6562 20.2188 15.6562V16.6562ZM20.9363 17.1114C21.2634 17.4101 21.3125 17.5895 21.3125 17.6562H22.3125C22.3125 17.1605 22.0023 16.7306 21.6106 16.3729L20.9363 17.1114ZM21.3125 17.6562C21.3125 17.6125 21.3206 17.5856 21.3214 17.5831C21.3227 17.5787 21.3214 17.5842 21.3132 17.6016C21.2965 17.6371 21.2642 17.6945 21.209 17.7773L22.041 18.332C22.1108 18.2274 22.1723 18.1246 22.218 18.0274C22.2578 17.9428 22.3125 17.8083 22.3125 17.6562H21.3125ZM21.2115 17.7735C20.6466 18.6043 20.1063 19.7579 19.584 21.214L20.5253 21.5516C21.0343 20.1327 21.5409 19.0675 22.0385 18.3358L21.2115 17.7735ZM19.5834 21.2159C19.4494 21.5941 19.3466 21.902 19.2767 22.1364C19.2418 22.2533 19.2135 22.3573 19.1935 22.4456C19.1758 22.5238 19.1562 22.6241 19.1562 22.7188H20.1562C20.1562 22.743 20.1533 22.735 20.1688 22.6667C20.182 22.6085 20.2035 22.5279 20.235 22.4222C20.2979 22.2113 20.3943 21.9215 20.526 21.5497L19.5834 21.2159ZM19.1562 22.7188C19.1562 22.9345 19.2358 23.169 19.45 23.3297C19.6372 23.4701 19.8582 23.5 20.0312 23.5V22.5C19.9984 22.5 19.9861 22.4968 19.9885 22.4974C19.9914 22.4981 20.0169 22.5049 20.05 22.5297C20.0859 22.5566 20.117 22.5947 20.1366 22.6387C20.1549 22.6799 20.1562 22.7106 20.1562 22.7188H19.1562ZM20.1421 23.4876L20.6577 23.3704L20.4361 22.3952L19.9204 22.5124L20.1421 23.4876ZM20.6722 23.3668L23.93 22.5231L23.6793 21.555L20.4215 22.3988L20.6722 23.3668ZM24.2843 22.1803C24.8905 20.1226 25.2326 17.9716 25.3122 15.7287L24.3128 15.6932C24.2361 17.8565 23.9064 19.9243 23.3251 21.8978L24.2843 22.1803ZM25.3114 15.7442C25.331 15.4507 25.402 15.3126 25.4557 15.2521C25.4959 15.207 25.5683 15.1562 25.75 15.1562V14.1562C25.3535 14.1562 24.9807 14.2813 24.7083 14.5877C24.4496 14.8788 24.3409 15.268 24.3136 15.6777L25.3114 15.7442ZM25.75 15.1562C26.0376 15.1562 26.315 15.2272 26.5887 15.3764L27.0676 14.4986C26.6537 14.2728 26.2124 14.1562 25.75 14.1562V15.1562ZM26.5801 15.3716C26.6037 15.3851 26.6562 15.4102 26.6562 15.5938H27.6562C27.6562 15.1523 27.4901 14.7399 27.0762 14.5034L26.5801 15.3716ZM26.6562 15.5938C26.6562 15.7794 26.6043 16.1633 26.4787 16.7836C26.3559 17.3898 26.1705 18.1861 25.9214 19.1747L26.8911 19.419C27.142 18.4233 27.3316 17.6102 27.4588 16.9821C27.5832 16.3679 27.6562 15.8925 27.6562 15.5938H26.6562ZM25.9217 19.1734C25.7205 19.9628 25.5119 20.7044 25.296 21.3983L26.2509 21.6954C26.4725 20.9831 26.6857 20.2247 26.8908 19.4204L25.9217 19.1734ZM25.8955 22.0317L29.1533 21.2114L28.9092 20.2417L25.6513 21.062L25.8955 22.0317ZM29.1829 21.203C29.5798 21.0767 30.0171 20.8591 30.4902 20.5654L29.9629 19.7158C29.5298 19.9846 29.1702 20.1577 28.8796 20.2501L29.1829 21.203ZM30.4636 20.5809C30.6646 20.4726 30.8152 20.3947 30.9185 20.3448C30.9709 20.3195 31.0045 20.3047 31.0231 20.2972C31.0327 20.2934 31.0316 20.2943 31.023 20.2968C31.0185 20.2982 31.0076 20.3013 30.9921 20.3043C30.9789 20.3069 30.9477 20.3125 30.9062 20.3125V19.3125C30.8242 19.3125 30.7576 19.3325 30.7375 19.3384C30.706 19.3478 30.6763 19.3589 30.6517 19.3688C30.6019 19.3887 30.5447 19.4149 30.4838 19.4443C30.3606 19.5038 30.1947 19.5899 29.9895 19.7004L30.4636 20.5809ZM30.9062 20.3125C30.874 20.3125 30.9184 20.3066 31.0794 20.3961C31.2234 20.476 31.4134 20.6051 31.6531 20.7924L32.2688 20.0044C32.0085 19.8011 31.7727 19.6373 31.5651 19.5219C31.3745 19.416 31.1417 19.3125 30.9062 19.3125V20.3125ZM31.6626 20.7997C31.9551 21.0171 32.1527 21.1928 32.2723 21.3277C32.4107 21.4838 32.375 21.5077 32.375 21.4297H33.375C33.375 21.1173 33.187 20.8521 33.0207 20.6644C32.8356 20.4556 32.5762 20.2329 32.2593 19.9972L31.6626 20.7997ZM32.375 21.4297C32.375 21.4055 32.3778 21.3911 32.378 21.3903C32.3783 21.3887 32.3775 21.3934 32.3737 21.4057C32.3659 21.431 32.3507 21.4719 32.3243 21.5313L33.2382 21.9374C33.2992 21.8002 33.375 21.6102 33.375 21.4297H32.375ZM32.3146 21.5549C32.2741 21.6602 32.2478 21.7978 32.2273 21.9274C32.2048 22.0698 32.1828 22.2492 32.1608 22.4625C32.1169 22.89 32.0715 23.4735 32.0245 24.2103L33.0224 24.274C33.0691 23.5421 33.1136 22.9733 33.1556 22.5648C33.1766 22.3602 33.1965 22.2007 33.2151 22.0834C33.2356 21.9532 33.2494 21.9101 33.2479 21.9139L32.3146 21.5549ZM32.0256 24.1955C31.7938 26.6685 31.3709 28.6652 30.7689 30.2003L31.6999 30.5654C32.3479 28.9129 32.7843 26.8159 33.0213 24.2889L32.0256 24.1955ZM30.7658 30.2083C30.2349 31.6343 29.5964 32.6874 28.8687 33.4008L29.5688 34.1148C30.4348 33.2658 31.1401 32.0688 31.7029 30.5573L30.7658 30.2083ZM28.8688 33.4007C28.4959 33.7661 28.1694 34.0235 27.8887 34.1873C27.606 34.3522 27.397 34.4062 27.25 34.4062V35.4062C27.6342 35.4062 28.019 35.2689 28.3926 35.051C28.7681 34.8319 29.1603 34.5151 29.5687 34.1149L28.8688 33.4007ZM27.25 34.4062C27.1504 34.4062 27.0678 34.3826 26.9916 34.3369L26.4771 35.1944C26.7134 35.3361 26.9746 35.4062 27.25 35.4062V34.4062ZM26.9824 34.3315C26.986 34.3335 26.9911 34.337 26.9968 34.3422C27.0025 34.3474 27.0072 34.3529 27.0107 34.358C27.018 34.3684 27.0154 34.37 27.0115 34.3525L26.0353 34.5694C26.0923 34.8258 26.2365 35.057 26.4863 35.1997L26.9824 34.3315ZM27.0042 34.3236C26.9453 34.1176 26.7976 33.891 26.6372 33.6758C26.4639 33.4433 26.2277 33.1627 25.9337 32.8369L25.1913 33.5069C25.4754 33.8216 25.6885 34.0763 25.8355 34.2734C25.9089 34.372 25.9618 34.4508 25.9977 34.5115C26.036 34.5765 26.0439 34.6024 26.0427 34.5983L27.0042 34.3236ZM25.9209 32.8232C25.6418 32.5364 25.4396 32.3188 25.3093 32.1668C25.2432 32.0897 25.2033 32.0384 25.1826 32.0084C25.1718 31.9928 25.1732 31.9929 25.1791 32.0049C25.1823 32.0112 25.1902 32.0277 25.1981 32.0521C25.205 32.0737 25.2188 32.1222 25.2188 32.1875H24.2188C24.2188 32.32 24.2695 32.4217 24.2847 32.4521C24.3083 32.4993 24.336 32.5424 24.3604 32.5776C24.4099 32.6491 24.4755 32.7306 24.5501 32.8176C24.701 32.9937 24.9207 33.2292 25.2041 33.5206L25.9209 32.8232ZM25.2038 32.3088C25.1991 32.3276 25.1788 32.3994 25.1075 32.4707C25.0232 32.555 24.9127 32.5938 24.8125 32.5938V31.5938C24.6654 31.5938 24.5159 31.6481 24.4004 31.7636C24.2978 31.8662 24.254 31.9849 24.2337 32.0662L25.2038 32.3088ZM24.6989 32.5807L25.402 32.7447L25.6292 31.7709L24.9261 31.6068L24.6989 32.5807ZM25.3818 32.7396C25.9621 32.9008 26.4654 32.9922 26.875 32.9922V31.9922C26.5971 31.9922 26.1942 31.9274 25.6494 31.7761L25.3818 32.7396ZM26.875 32.9922C27.6367 32.9922 28.2916 32.6817 28.8164 32.1008L28.0743 31.4305C27.724 31.8183 27.332 31.9922 26.875 31.9922V32.9922ZM28.8091 32.1086C29.1255 31.7731 29.4166 31.268 29.6941 30.6367C29.9751 29.9972 30.2574 29.1922 30.5421 28.2274L29.5829 27.9444C29.3051 28.8859 29.0366 29.6473 28.7786 30.2344C28.517 30.8296 28.2808 31.2113 28.0815 31.4226L28.8091 32.1086ZM30.5407 28.232C31.1766 26.1493 31.5 24.2243 31.5 22.4609H30.5C30.5 24.1038 30.1984 25.9288 29.5843 27.9399L30.5407 28.232ZM31.5 22.4609C31.5 22.1648 31.4444 21.8586 31.2637 21.6102C31.0688 21.3422 30.7826 21.2145 30.479 21.1892L30.396 22.1858C30.4366 22.1892 30.4529 22.197 30.4551 22.1981C30.4552 22.1982 30.4538 22.1967 30.455 22.1984C30.4619 22.2078 30.5 22.2727 30.5 22.4609H31.5ZM30.4375 21.1875C30.0264 21.1875 29.3793 21.2909 28.5328 21.4742C27.6729 21.6605 26.5676 21.9384 25.2198 22.3067L25.4834 23.2714C26.823 22.9053 27.9091 22.6325 28.7445 22.4516C29.5933 22.2677 30.1454 22.1875 30.4375 22.1875V21.1875ZM24.8807 22.6209C24.1868 24.5639 23.4042 26.2337 22.5359 27.6351L23.386 28.1618C24.2989 26.6882 25.1101 24.9518 25.8224 22.9572L24.8807 22.6209ZM22.5357 27.6354C21.0158 30.0918 19.3612 31.8723 17.5824 33.0083L18.1207 33.8511C20.0607 32.6121 21.8123 30.7051 23.3861 28.1615L22.5357 27.6354ZM17.5866 33.0057C17.4014 33.1214 17.2635 33.2039 17.1693 33.2563C17.1214 33.2829 17.0922 33.2975 17.0778 33.3041C17.0702 33.3075 17.0741 33.3054 17.0859 33.3014C17.0863 33.3013 17.1408 33.2812 17.2188 33.2812V34.2812C17.3084 34.2812 17.3798 34.2575 17.4021 34.2501C17.4359 34.2388 17.4669 34.2257 17.4916 34.2145C17.5415 34.1917 17.5974 34.1624 17.6549 34.1304C17.7717 34.0656 17.9267 33.9724 18.1166 33.8537L17.5866 33.0057ZM17.2188 33.2812C17.2646 33.2812 17.3908 33.293 17.502 33.4043C17.6132 33.5155 17.625 33.6417 17.625 33.6875H16.625C16.625 33.7958 16.6524 33.9689 16.7949 34.1114C16.9373 34.2538 17.1104 34.2812 17.2188 34.2812V33.2812ZM17.625 33.6875C17.625 33.7378 17.6141 33.7692 17.6123 33.7741C17.6101 33.7805 17.6113 33.7752 17.6222 33.7564C17.6446 33.7177 17.6885 33.655 17.7645 33.5652L17.0011 32.9192C16.9053 33.0325 16.8203 33.1456 16.7567 33.2553C16.7008 33.3519 16.625 33.5064 16.625 33.6875H17.625ZM17.7451 33.5868C18.9964 32.2713 20.2136 30.6057 21.3993 28.598L20.5382 28.0895C19.3801 30.0505 18.2067 31.6506 17.0205 32.8976L17.7451 33.5868ZM21.3952 28.6048C22.5184 26.7697 23.3495 25.0635 23.8801 23.4877L22.9324 23.1686C22.4318 24.6552 21.6379 26.2928 20.5423 28.0827L21.3952 28.6048ZM23.275 22.8457C22.123 23.1591 21.189 23.4309 20.4756 23.6608C19.774 23.8869 19.2521 24.0827 18.9481 24.2486L19.4269 25.1264C19.6386 25.011 20.0775 24.8397 20.7823 24.6126C21.4751 24.3894 22.3926 24.1221 23.5375 23.8106L23.275 22.8457ZM18.9639 24.2403C18.7797 24.3324 18.6413 24.3977 18.5452 24.4389C18.4967 24.4597 18.4659 24.4713 18.4493 24.4768C18.441 24.4796 18.4419 24.4789 18.4496 24.4772C18.4528 24.4764 18.4845 24.4688 18.5312 24.4688V25.4688C18.6361 25.4688 18.7302 25.4373 18.7655 25.4255C18.8192 25.4076 18.8783 25.3841 18.9391 25.358C19.0618 25.3054 19.2203 25.2301 19.4111 25.1347L18.9639 24.2403ZM18.5312 24.4688C18.5766 24.4688 18.5972 24.4798 18.5837 24.4744C18.5721 24.4697 18.5451 24.4567 18.5009 24.4277C18.4114 24.369 18.2876 24.2687 18.1265 24.1149L17.436 24.8382C17.6186 25.0125 17.7917 25.1584 17.9522 25.2637C18.096 25.358 18.3009 25.4688 18.5312 25.4688V24.4688ZM18.1348 24.123C17.9859 23.9741 17.8884 23.8632 17.8315 23.7864C17.8179 23.7681 17.8081 23.7536 17.8012 23.7426C17.7978 23.7373 17.7953 23.7331 17.7936 23.7301C17.7928 23.7286 17.7922 23.7275 17.7918 23.7267C17.7913 23.726 17.7912 23.7256 17.7912 23.7256C17.7912 23.7256 17.7914 23.7261 17.7918 23.727C17.7922 23.728 17.7929 23.7294 17.7936 23.7314C17.7951 23.7351 17.7975 23.7415 17.8001 23.7503C17.8048 23.7666 17.8125 23.7992 17.8125 23.8438H16.8125C16.8125 23.9803 16.8581 24.0937 16.8924 24.164C16.9301 24.2412 16.9783 24.3146 17.0279 24.3816C17.1273 24.5157 17.2641 24.6665 17.4277 24.8301L18.1348 24.123ZM17.8125 23.8438C17.8125 23.8598 17.811 23.833 17.8412 23.7389C17.8687 23.6536 17.9134 23.5393 17.9794 23.3927L17.0675 22.9823C16.9928 23.1482 16.9321 23.2995 16.8892 23.4329C16.8491 23.5577 16.8125 23.7027 16.8125 23.8438H17.8125ZM17.9348 23.4718C18.6992 22.3658 19.2765 21.162 19.6664 19.8624L18.7086 19.5751C18.3485 20.7755 17.8164 21.8842 17.1121 22.9032L17.9348 23.4718ZM19.6517 19.9044C20.1619 18.6291 20.4375 17.5294 20.4375 16.625H19.4375C19.4375 17.3456 19.2131 18.3084 18.7233 19.5331L19.6517 19.9044ZM20.4375 16.625C20.4375 16.5704 20.4417 16.5362 20.4454 16.518C20.4492 16.499 20.4502 16.508 20.4366 16.5307C20.421 16.5567 20.3898 16.5941 20.3385 16.6226C20.2879 16.6507 20.2427 16.6562 20.2188 16.6562V15.6562C19.9556 15.6562 19.7195 15.7822 19.5791 16.0162C19.4631 16.2095 19.4375 16.4351 19.4375 16.625H20.4375Z" fill="#333333"/>
</svg>
