<svg xmlns="http://www.w3.org/2000/svg" width="50" height="50" fill="none"><path fill="#333" d="M22.375 15.219c.36 0 .773.265 1.242.797.485.593.727 1.14.727 1.64 0 .188-.14.367-.422.54-.422.28-.828.866-1.219 1.757-.515 1.016-1.406 2.32-2.672 3.914-.437.625-.656 1.125-.656 1.5 0 .344.234.766.703 1.266l2.93 3.234c.719.797 1.07 1.57 1.055 2.32 0 .672-.102 1.204-.305 1.594-.125.25-.336.375-.633.375-.25 0-.469-.062-.656-.187-.313-.297-.625-.852-.938-1.664-.875-1.875-1.656-3.414-2.343-4.617-.75-1.188-1.125-1.961-1.125-2.32 0-.516.25-1.204.75-2.063.5-.766 1.07-1.805 1.71-3.117.922-2.063 1.415-3.47 1.477-4.22.063-.5.188-.75.375-.75Zm7.031 0c.36 0 .774.265 1.242.797.485.593.727 1.14.727 1.64 0 .188-.14.367-.422.54-.437.28-.851.866-1.242 1.757-.516 1.016-1.422 2.32-2.719 3.914-.453.625-.68 1.125-.68 1.5 0 .344.235.766.704 1.266l2.93 3.234c.718.797 1.07 1.57 1.054 2.32 0 .672-.102 1.204-.305 1.594a.683.683 0 0 1-.633.375c-.25 0-.43-.062-.539-.187-.328-.297-.648-.852-.96-1.664-.875-1.875-1.657-3.414-2.344-4.617C25.406 26.5 25 25.727 25 25.367c0-.516.25-1.204.75-2.063.516-.766 1.11-1.805 1.781-3.117.938-2.063 1.438-3.47 1.5-4.22.063-.5.188-.75.375-.75Z"/><path fill="#333" d="m23.617 16.016.388-.316-.006-.008-.007-.007-.375.33Zm.305 2.18-.26-.427-.01.005-.008.005.278.416Zm-1.219 1.757.446.227.006-.013.006-.013-.458-.2Zm-2.672 3.914-.391-.31-.01.011-.008.012.41.287Zm.047 2.766.37-.336-.005-.006-.365.342Zm2.93 3.234.371-.335-.371.335Zm1.055 2.32-.5-.01v.01h.5Zm-.305 1.594-.444-.23-.003.007.447.223Zm-1.29.188-.344.362.032.03.035.024.278-.416Zm-.937-1.664.467-.18-.006-.016-.008-.016-.453.212Zm-2.343-4.617.434-.249-.006-.01-.006-.008-.422.267Zm-.375-4.383-.42-.274-.006.011-.007.011.433.252Zm1.71-3.117.45.219.004-.008.003-.008-.457-.203ZM22 15.968l-.496-.061-.001.01-.001.01.498.042Zm8.648.048.388-.316-.006-.008-.007-.007-.375.33Zm.305 2.18-.26-.427-.01.006.27.42Zm-1.242 1.757.446.227.006-.013.006-.013-.458-.2Zm-2.719 3.914-.388-.315-.008.01-.009.012.405.293Zm.024 2.766.37-.336-.006-.006-.364.342Zm2.93 3.234.37-.335-.37.335ZM31 32.187l-.5-.01v.01h.5Zm-.305 1.594.436.245.004-.007.004-.007-.444-.23Zm-1.172.188.377-.33-.02-.022-.021-.019-.336.37Zm-.96-1.664.466-.18-.006-.016-.007-.016-.453.212Zm-2.344-4.617.434-.249-.01-.017-.012-.017-.412.282Zm-.469-4.383-.415-.28-.009.014-.008.014.432.252Zm1.781-3.117.445.227.006-.01.004-.01-.455-.207Zm1.5-4.22-.496-.061-.001.01-.001.01.498.042Zm-6.656-.25c.127 0 .411.112.867.628l.75-.661c-.481-.546-1.025-.966-1.617-.966v1Zm.855.614c.448.55.614.987.614 1.324h1c0-.662-.32-1.319-.84-1.956l-.774.632Zm.614 1.324c0-.04.017-.054 0-.032a.706.706 0 0 1-.183.145l.522.853c.317-.194.66-.503.66-.966h-1Zm-.2.123c-.545.364-1 1.063-1.399 1.973l.916.402c.382-.87.74-1.344 1.038-1.543l-.555-.832Zm-1.387 1.948c-.493.97-1.359 2.245-2.617 3.83l.783.621c1.273-1.603 2.188-2.938 2.726-3.998l-.892-.453Zm-2.635 3.854c-.447.637-.747 1.247-.747 1.786h1c0-.21.137-.6.566-1.213l-.82-.573Zm-.747 1.786c0 .549.357 1.094.838 1.608l.73-.684c-.456-.487-.568-.785-.568-.924h-1Zm.832 1.601 2.93 3.235.741-.671-2.93-3.235-.74.671Zm2.93 3.234c.67.743.938 1.398.926 1.975l1 .02c.019-.922-.416-1.814-1.184-2.665l-.742.67Zm.925 1.985c0 .63-.096 1.072-.248 1.364l.887.46c.255-.489.361-1.11.361-1.824h-1Zm-.251 1.37c-.026.052-.048.068-.06.075-.014.008-.048.024-.126.024v1c.22 0 .438-.046.636-.163.199-.118.345-.29.444-.488l-.894-.447Zm-.186.1a.657.657 0 0 1-.379-.104l-.555.832c.279.185.597.271.934.271v-1Zm-.312-.05c-.227-.217-.508-.682-.815-1.482l-.933.36c.317.824.662 1.468 1.06 1.846l.688-.725Zm-.829-1.514c-.878-1.882-1.666-3.434-2.362-4.654l-.869.497c.679 1.186 1.453 2.712 2.325 4.58l.906-.423ZM19.61 27.42c-.37-.586-.64-1.059-.816-1.421-.189-.389-.232-.579-.232-.632h-1c0 .306.145.683.332 1.068.199.41.491.919.87 1.52l.846-.534Zm-1.047-2.053c0-.378.192-.969.682-1.81l-.865-.504c-.51.877-.817 1.66-.817 2.314h1Zm.668-1.789c.516-.79 1.097-1.85 1.742-3.171l-.899-.439c-.636 1.304-1.196 2.322-1.68 3.063l.837.547Zm1.749-3.186c.464-1.039.823-1.92 1.076-2.64.25-.713.406-1.301.442-1.742l-.996-.083c-.026.31-.147.8-.39 1.494-.24.685-.587 1.538-1.045 2.563l.913.407Zm1.516-4.361c.014-.11.03-.2.048-.27a.684.684 0 0 1 .044-.131c.01-.022.006-.002-.03.026a.3.3 0 0 1-.183.063v-1c-.369 0-.58.262-.682.464-.1.2-.156.455-.19.724l.993.124Zm6.91-.312c.127 0 .412.11.867.627l.75-.661c-.481-.546-1.024-.966-1.617-.966v1Zm.855.613c.448.55.614.987.614 1.324h1c0-.662-.319-1.319-.84-1.956l-.774.632Zm.614 1.324c0-.04.018-.054 0-.032a.708.708 0 0 1-.183.145l.522.853c.317-.194.661-.503.661-.966h-1Zm-.192.119c-.566.363-1.03 1.063-1.43 1.977l.916.402c.38-.867.745-1.34 1.055-1.538l-.541-.841Zm-1.418 1.952c-.491.968-1.371 2.24-2.66 3.825l.775.63c1.305-1.602 2.237-2.94 2.777-4.002l-.892-.453Zm-2.678 3.847c-.46.636-.774 1.248-.774 1.793h1c0-.205.139-.593.584-1.206l-.81-.587Zm-.774 1.793c0 .549.357 1.094.838 1.608l.73-.684c-.457-.487-.569-.785-.569-.924h-1Zm.832 1.601 2.93 3.235.74-.671-2.929-3.235-.741.671Zm2.929 3.234c.67.743.938 1.398.926 1.975l1 .02c.02-.922-.416-1.814-1.183-2.665l-.743.67Zm.926 1.985c0 .63-.097 1.072-.248 1.364l.887.46c.255-.489.361-1.11.361-1.824h-1Zm-.24 1.35c-.055.096-.101.12-.198.12v1c.467 0 .842-.227 1.07-.63l-.873-.49Zm-.198.12a.5.5 0 0 1-.158-.02c-.02-.007-.014-.01-.004.002l-.753.659c.244.279.595.358.916.358v-1Zm-.203-.059c-.237-.215-.523-.676-.83-1.473l-.933.36c.318.827.673 1.475 1.092 1.855l.67-.742Zm-.843-1.505c-.879-1.882-1.666-3.434-2.363-4.654l-.868.497c.678 1.186 1.453 2.712 2.324 4.58l.907-.423Zm-2.385-4.688a15.147 15.147 0 0 1-.884-1.42 3.584 3.584 0 0 1-.2-.44c-.02-.055-.032-.099-.04-.13-.007-.034-.007-.048-.007-.048h-1c0 .174.047.352.105.516.062.17.149.36.257.566.216.412.533.92.944 1.52l.825-.564ZM25.5 25.367c0-.378.192-.969.682-1.81l-.864-.504c-.51.877-.818 1.66-.818 2.314h1Zm.665-1.783c.531-.789 1.135-1.848 1.811-3.169l-.89-.455c-.667 1.303-1.25 2.323-1.75 3.065l.829.559Zm1.821-3.19a34.67 34.67 0 0 0 1.095-2.64c.253-.713.412-1.302.448-1.744l-.996-.083c-.026.308-.148.797-.395 1.491a33.748 33.748 0 0 1-1.062 2.563l.91.413Zm1.541-4.363c.014-.11.03-.2.048-.27a.675.675 0 0 1 .044-.131c.011-.022.006-.002-.03.026a.3.3 0 0 1-.183.063v-1c-.368 0-.58.262-.681.464-.1.2-.156.455-.19.724l.992.124Z"/></svg>