<svg xmlns="http://www.w3.org/2000/svg" width="50" height="50" fill="none"><path fill="#333" d="M15.625 16.719c.063 0 .148.039.258.117.234.047.46.07.68.07.609 0 1.5-.062 2.671-.187 2.875-.407 6.305-.727 10.29-.961 1.062-.047 1.851-.195 2.367-.445.312-.126.523-.188.632-.188.313 0 .743.203 1.29.61.5.406.75.734.75.984 0 .312-.188.468-.563.468-.172 0-.523-.039-1.055-.117a43.566 43.566 0 0 0-2.414-.07c-2.812 0-5.226.117-7.242.352.64.593.961 1.07.961 1.43 0 .202-.094.413-.281.632-.39.328-.82 1.008-1.29 2.04-.14.25-.21.421-.21.515 0 .187.062.281.187.281s.32-.031.586-.094c1.25-.234 2.758-.422 4.524-.562 1-.078 1.672-.203 2.015-.375.266-.125.453-.188.563-.188.312 0 .758.235 1.336.703.672.5 1.008.891 1.008 1.172 0 .172-.102.414-.305.727-.235.281-.367.64-.399 1.078-.28 1.844-.757 3.539-1.43 5.086-.593 1.312-1.445 2.523-2.554 3.633-.594.625-1.156.937-1.688.937-.265 0-.5-.172-.703-.515-.25-.329-.718-.79-1.406-1.383-.375-.297-.562-.485-.562-.563 0-.062.03-.093.093-.093.125 0 .399.078.82.234.579.234 1.009.351 1.29.351.5 0 1.015-.359 1.547-1.078.875-1.062 1.547-2.297 2.015-3.703.563-1.703.844-3.18.844-4.43.016-.437-.266-.656-.844-.656-1 0-2.258.125-3.773.375-1.781.313-3.024.57-3.727.774-.343.11-.625.164-.843.164-.266 0-.547-.211-.844-.633-.188-.281-.282-.531-.282-.75 0-.14.125-.336.375-.586.375-.234.844-.727 1.407-1.477.562-.953.843-1.554.843-1.804 0-.375-.132-.742-.398-1.102-2.156.297-3.648.617-4.477.961-.296.094-.546.14-.75.14-.203 0-.523-.265-.96-.796-.36-.453-.54-.75-.54-.89 0-.126.063-.188.188-.188Z"/><path fill="#333" d="m15.883 16.836-.29.407.087.062.105.021.098-.49Zm3.351-.117.053.497.009-.001.008-.001-.07-.495Zm10.29-.961-.023-.5h-.007l.03.5Zm2.367-.445-.186-.465-.016.007-.017.008.219.45Zm1.922.421.315-.388-.009-.007-.008-.006-.298.401Zm-.868 1.336.073-.494-.022-.004h-.023l-.028.498Zm-9.656.282-.058-.497-1.078.125.796.738.34-.366Zm.68 2.062.321.383.032-.026.026-.032-.38-.325Zm-1.29 2.04.437.244.01-.018.009-.02-.455-.207Zm.563.702-.092-.491-.011.002-.011.002.114.487Zm4.524-.562-.04-.499.04.499Zm2.015-.375-.213-.453-.01.006.223.447Zm1.899.515-.315.389.008.006.008.006.299-.4Zm.703 1.899.384.32.019-.023.016-.025-.42-.272Zm-.399 1.078.495.075.003-.02.001-.02-.499-.035Zm-1.43 5.086.456.206.003-.007-.458-.2ZM28 33.43l-.354-.354-.009.01.363.344Zm-2.39.422.43-.255-.015-.025-.018-.024-.398.304Zm-1.407-1.383.327-.379-.008-.007-.008-.006-.31.392Zm.352-.422.188-.463-.008-.003-.007-.003-.173.469Zm2.836-.727-.386-.317-.009.01-.008.01.403.297Zm2.015-3.703.475.158v-.001l-.475-.157Zm.844-4.43-.5-.017v.018h.5Zm-4.617-.28-.082-.494h-.005l.087.493Zm-3.727.773-.139-.48-.012.003.151.477Zm-1.687-.47-.416.278.007.01.409-.287Zm.093-1.335-.265-.424-.048.03-.04.04.354.354Zm1.407-1.477.4.3.016-.022.014-.023-.43-.255Zm.445-2.906.402-.297-.176-.239-.294.04.068.496Zm-4.477.961.151.477.021-.007.02-.008-.192-.462Zm-1.71-.656-.392.31.006.008.386-.318Zm-.352-.578a.298.298 0 0 1-.076-.01c-.014-.003-.021-.006-.02-.006l.019.01a.685.685 0 0 1 .044.03l.581-.814c-.115-.083-.315-.21-.548-.21v1Zm.16.107c.264.053.523.08.777.08v-1c-.183 0-.376-.02-.581-.06l-.196.98Zm.777.08c.637 0 1.549-.065 2.725-.19l-.106-.994c-1.167.124-2.036.184-2.619.184v1Zm2.742-.192c2.858-.404 6.273-.723 10.249-.957l-.059-.998c-3.993.235-7.437.556-10.33.965l.14.99Zm10.242-.957c1.082-.047 1.954-.2 2.563-.495l-.437-.9c-.422.205-1.128.35-2.17.396l.044 1Zm2.53-.48c.149-.06.264-.1.35-.126.095-.028.118-.026.097-.026v-1c-.13 0-.267.033-.382.068-.126.037-.272.09-.436.155l.371.929Zm.447-.152c.054 0 .164.02.343.104.176.083.391.216.648.407l.597-.803a4.968 4.968 0 0 0-.817-.508c-.25-.118-.512-.2-.77-.2v1Zm.974.497c.235.19.389.346.48.466.098.129.086.166.086.13h1c0-.285-.138-.537-.29-.736a3.921 3.921 0 0 0-.645-.636l-.63.776Zm.566.597c0 .029-.005.032 0 .02a.145.145 0 0 1 .039-.052c.017-.015.025-.015.01-.01a.437.437 0 0 1-.112.01v1c.245 0 .521-.049.742-.233.238-.198.32-.476.32-.735h-1ZM34 16.687c-.129 0-.444-.032-.982-.111l-.145.989c.524.077.912.122 1.127.122v-1Zm-1.027-.116a44.028 44.028 0 0 0-2.442-.071v1c.756 0 1.551.023 2.387.07l.055-.999Zm-2.442-.071c-2.825 0-5.26.118-7.3.355l.116.993c1.99-.231 4.384-.348 7.184-.348v-1Zm-7.582 1.218c.305.283.515.521.646.715.135.201.155.311.155.348h1c0-.322-.14-.63-.325-.906a5.29 5.29 0 0 0-.796-.89l-.68.733Zm.801 1.063c0 .043-.019.142-.16.308l.758.65c.233-.271.402-.594.402-.958h-1Zm-.103.25c-.484.407-.952 1.18-1.422 2.215l.91.414c.466-1.027.858-1.613 1.155-1.863l-.643-.766Zm-1.403 2.177a3.45 3.45 0 0 0-.185.372c-.04.099-.09.24-.09.389h1c0 .034-.006.052-.004.043a.465.465 0 0 1 .02-.053c.024-.06.066-.145.13-.26l-.871-.491Zm-.275.76c0 .134.02.322.13.489a.657.657 0 0 0 .557.293v-1a.35.35 0 0 1 .276.152c.049.074.037.12.037.067h-1Zm.687.782c.187 0 .43-.044.7-.107l-.228-.974c-.262.062-.409.081-.472.081v1Zm.678-.102c1.228-.23 2.717-.416 4.471-.556l-.08-.997c-1.776.142-3.302.331-4.575.57l.184.983Zm4.47-.556c.51-.04.948-.092 1.307-.159.352-.066.66-.15.894-.267l-.447-.895c-.11.055-.31.12-.63.179-.313.058-.712.107-1.201.145l.078.997Zm2.19-.42c.123-.059.217-.097.285-.12.077-.025.09-.02.065-.02v-1c-.136 0-.27.035-.381.072-.119.04-.252.095-.395.162l.426.905Zm.35-.14c.04 0 .145.017.335.117.184.097.411.251.686.474l.63-.777a5.351 5.351 0 0 0-.85-.581c-.255-.135-.529-.234-.801-.234v1Zm1.037.604c.322.24.542.437.675.592.148.172.132.223.132.178h1c0-.326-.185-.61-.373-.83a5.245 5.245 0 0 0-.837-.743l-.597.803Zm.806.77c0-.006 0 .029-.037.117a2.22 2.22 0 0 1-.186.337l.838.545c.207-.318.386-.669.386-.999h-1Zm-.188.407c-.314.376-.476.841-.513 1.362l.997.072c.025-.355.129-.608.284-.794l-.768-.64Zm-.509 1.323c-.275 1.805-.74 3.458-1.394 4.962l.917.398c.691-1.59 1.179-3.328 1.466-5.21l-.989-.15ZM30.1 29.59c-.568 1.253-1.383 2.415-2.454 3.485l.708.707c1.148-1.148 2.036-2.408 2.656-3.78l-.91-.412Zm-2.463 3.494c-.556.586-.995.782-1.325.782v1c.734 0 1.419-.428 2.05-1.093l-.724-.689Zm-1.325.782c-.01 0-.11.005-.272-.27l-.861.509c.244.413.612.761 1.134.761v-1Zm-.305-.319c-.284-.372-.787-.862-1.477-1.458l-.654.757c.685.592 1.12 1.024 1.336 1.308l.795-.607Zm-1.494-1.471a4.68 4.68 0 0 1-.418-.367c-.009-.01-.012-.014-.01-.013a.415.415 0 0 1 .056.21h-1c0 .186.096.323.126.367.047.066.105.129.16.185.115.114.273.25.466.402l.62-.784Zm-.372-.17a.408.408 0 0 1-.123.283.408.408 0 0 1-.284.123v-1a.594.594 0 0 0-.424.17.593.593 0 0 0-.17.423h1Zm-.407.405c-.013 0 .028.002.162.04.12.034.28.088.485.164l.347-.938a8.003 8.003 0 0 0-.557-.188 1.683 1.683 0 0 0-.437-.078v1Zm.633.198c.582.236 1.09.388 1.477.388v-1c-.177 0-.528-.082-1.102-.314l-.375.926Zm1.477.388c.749 0 1.395-.53 1.949-1.28l-.805-.595c-.508.688-.893.875-1.144.875v1Zm1.933-1.26c.916-1.113 1.617-2.403 2.104-3.863l-.95-.316c-.45 1.353-1.093 2.532-1.926 3.544l.772.635Zm2.104-3.864c.573-1.734.869-3.266.869-4.587h-1c0 1.18-.266 2.6-.819 4.273l.95.314Zm.869-4.569c.012-.338-.096-.674-.392-.904-.268-.209-.616-.27-.952-.27v1c.242 0 .325.049.338.059.002.002.001.001 0 0l-.001-.002c0 .003.01.026.007.082l1 .035Zm-1.344-1.174c-1.037 0-2.325.13-3.855.382l.163.987c1.502-.248 2.73-.369 3.692-.369v-1Zm-3.86.383c-1.78.312-3.047.574-3.779.785l.278.961c.674-.195 1.892-.449 3.674-.761l-.173-.985Zm-3.791.79c-.322.102-.548.14-.692.14v1c.292 0 .63-.072.995-.188l-.303-.953Zm-.692.14h-.005a.383.383 0 0 1-.106-.058 1.623 1.623 0 0 1-.324-.363l-.818.576c.308.438.72.845 1.253.845v-1Zm-.428-.41c-.16-.241-.198-.393-.198-.473h-1c0 .358.151.705.366 1.027l.832-.554Zm-.198-.473a.226.226 0 0 1-.008.059l.006-.011a1.612 1.612 0 0 1 .232-.28l-.708-.708c-.139.14-.26.279-.349.418a.98.98 0 0 0-.172.522h1Zm.14-.162c.46-.287.974-.844 1.542-1.6l-.8-.6c-.558.743-.98 1.17-1.271 1.352l.53.848Zm1.572-1.646c.285-.483.505-.887.655-1.209.076-.16.137-.308.18-.44.041-.124.078-.268.078-.41h-1c0-.018.002.007-.027.096-.027.081-.07.19-.136.33-.131.28-.333.654-.61 1.124l.86.509Zm.913-2.06c0-.5-.18-.97-.496-1.398l-.804.594c.215.29.3.556.3.805h1Zm-.966-1.596c-2.156.297-3.706.623-4.6.994l.383.924c.762-.316 2.196-.63 4.353-.927l-.136-.991Zm-4.56.98a2.101 2.101 0 0 1-.599.117v1c.274 0 .578-.062.901-.164l-.301-.954Zm-.599.117c.055 0 .077.016.052.004a.75.75 0 0 1-.125-.088 4.105 4.105 0 0 1-.502-.531l-.771.636c.227.276.44.503.635.664.171.142.421.315.712.315v-1Zm-.569-.608a5.306 5.306 0 0 1-.368-.51.989.989 0 0 1-.066-.125c-.013-.03.004-.005.004.055h-1c0 .13.038.245.07.325.036.087.084.175.137.262.105.175.254.38.44.615l.783-.622Zm-.43-.58a.319.319 0 0 1-.1.213.318.318 0 0 1-.213.1v-1a.688.688 0 0 0-.494.193.687.687 0 0 0-.194.494h1Z"/></svg>