<svg xmlns="http://www.w3.org/2000/svg" width="50" height="50" fill="none"><path fill="#333" d="M32.406 16.156c.344 0 .703.196 1.078.586.344.375.516.68.516.914 0 .25-.125.375-.375.375a7.766 7.766 0 0 0-1.031-.093c-3.64.109-7.39.585-11.25 1.43 0 1.577-.266 3.484-.797 5.718-.531 2.281-1.274 4.164-2.227 5.648-.812 1.235-1.617 2.063-2.414 2.485-.062 0-.094-.032-.094-.094 0-.063.094-.219.282-.469.812-1.125 1.531-2.812 2.156-5.062.75-2.735 1.125-5.203 1.125-7.407 0-.687-.125-1.218-.375-1.593-.125-.25-.188-.407-.188-.469 0-.188.125-.281.375-.281 1.688 0 4.282-.282 7.782-.844 3.375-.563 5.187-.844 5.437-.844Z"/><path fill="#333" d="m33.484 16.742.37-.338-.009-.008-.36.346Zm.141 1.29-.07.494.035.005h.035v-.5Zm-1.031-.095v-.5h-.015l.015.5Zm-11.25 1.43-.107-.488-.393.086v.402h.5Zm-.797 5.719-.487-.116v.003l.487.113Zm-2.227 5.648.418.275.003-.005-.42-.27Zm-2.414 2.485v.5h.124l.11-.058-.234-.442Zm.188-.563.4.3.005-.007-.405-.293Zm2.156-5.062.482.134v-.002l-.482-.132Zm.75-9-.447.223.014.028.017.026.416-.277ZM26.969 17l.08.494h.002L26.969 17Zm5.437-.344c.147 0 .384.085.718.433l.721-.693c-.416-.434-.898-.74-1.439-.74v1Zm.71.424c.156.17.259.31.32.418.063.111.064.16.064.158h1c0-.235-.084-.457-.193-.65a3.36 3.36 0 0 0-.454-.602l-.737.676Zm.384.576c0 .048-.012-.008.053-.072.064-.064.12-.053.072-.053v1c.202 0 .446-.05.635-.24.19-.19.24-.433.24-.635h-1Zm.196-.12a8.22 8.22 0 0 0-1.102-.099v1c.215 0 .531.028.96.09l.142-.99Zm-1.117-.098c-3.674.11-7.455.59-11.342 1.44l.214.978c3.831-.838 7.55-1.31 11.158-1.419l-.03-1Zm-11.735 1.93c0 1.525-.258 3.39-.784 5.602l.973.232c.537-2.257.81-4.205.81-5.835h-1Zm-.784 5.605c-.522 2.242-1.246 4.068-2.16 5.491l.841.54c.992-1.545 1.753-3.485 2.293-5.805l-.974-.227Zm-2.157 5.486c-.793 1.204-1.541 1.953-2.23 2.318l.467.884c.904-.48 1.765-1.387 2.598-2.652l-.835-.55Zm-1.997 2.26c.046 0 .172.011.283.123a.408.408 0 0 1 .123.283h-1c0 .108.028.281.17.424.143.142.316.17.424.17v-1Zm.406.406a.397.397 0 0 1-.013.104l-.01.029s.005-.011.023-.04c.034-.057.092-.142.182-.262l-.8-.6c-.098.13-.18.248-.24.348-.03.05-.06.104-.084.16a.668.668 0 0 0-.057.261h1Zm.187-.176c.863-1.195 1.601-2.948 2.233-5.221l-.964-.268c-.618 2.226-1.317 3.848-2.08 4.904l.811.585Zm2.233-5.223c.759-2.766 1.143-5.28 1.143-7.538h-1c0 2.147-.366 4.57-1.107 7.274l.964.264Zm1.143-7.538c0-.738-.133-1.382-.459-1.872l-.832.555c.174.26.291.68.291 1.317h1Zm-.428-1.818a3.779 3.779 0 0 1-.142-.318l.002.011c.002.009.006.03.006.062h-1c0 .085.018.16.03.202.015.05.033.1.052.148.039.096.093.212.158.342l.894-.447Zm-.134-.245a.206.206 0 0 1-.02.08.28.28 0 0 1-.087.11.185.185 0 0 1-.061.031c-.003.001.01-.002.043-.002v-1a.956.956 0 0 0-.582.17.745.745 0 0 0-.294.611h1Zm-.125.219c1.73 0 4.356-.287 7.86-.85l-.159-.988c-3.495.562-6.056.838-7.701.838v1Zm7.863-.85c1.687-.282 2.982-.492 3.885-.633.452-.07.804-.122 1.057-.157a12.628 12.628 0 0 1 .387-.046l.026-.002v-1c-.104 0-.303.024-.548.058-.262.035-.621.089-1.075.16-.91.14-2.208.351-3.896.633l.164.986Z"/></svg>