<svg xmlns="http://www.w3.org/2000/svg" width="50" height="50" fill="none"><path fill="#333" d="M19.375 16.813c.422 0 1.04.21 1.852.632.703.328 1.054.657 1.054.985 0 .125-.062.312-.187.562-.063.313-.094.68-.094 1.102v6.656c0 .688.156 1.031.469 1.031.218 0 .648-.133 1.289-.398 1.86-.766 3.492-1.54 4.898-2.32v-1.758c0-4.188-.172-6.82-.515-7.899l-.235-.75c0-.11.125-.164.375-.164.39 0 .875.18 1.453.54.594.421.891.796.891 1.124 0 .094-.086.297-.258.61-.078.265-.117.71-.117 1.336v6.68c0 5.25-.063 8.312-.188 9.187a1.952 1.952 0 0 1-.304.75c-.11.187-.258.281-.445.281-.266 0-.532-.21-.797-.633-.344-.562-.516-.976-.516-1.242 0-.156.07-.594.21-1.313.22-1.218.36-3.078.423-5.578-1.938 1.22-3.555 2.133-4.852 2.743-.578.234-1 .46-1.265.68a.873.873 0 0 1-.516.187c-.266 0-.68-.219-1.242-.657-.485-.375-.727-.718-.727-1.03 0-.126.032-.337.094-.634.125-.453.188-1.023.188-1.71 0-2.813-.125-4.844-.375-6.094-.125-.86-.438-1.703-.938-2.532 0-.25.125-.375.375-.375Z"/><path fill="#333" d="m21.227 17.445-.23.444.009.005.01.004.21-.453Zm.867 1.547-.448-.223-.03.06-.012.065.49.098Zm1.664 8.39-.19-.462h-.002l.192.463Zm4.898-2.32.243.438.257-.143v-.294h-.5Zm-.515-9.656-.478.15.001.002.477-.152Zm-.235-.75h-.5v.077l.023.072.477-.149Zm1.828.375.29-.407-.013-.01-.013-.007-.264.424Zm.633 1.735-.438-.241-.026.047-.015.053.48.14Zm-.305 17.203.493.087.001-.008.002-.009-.495-.07Zm-.304.75-.416-.278-.008.013-.008.013.432.252Zm-1.242-.352-.427.26.004.007.423-.267Zm-.305-2.554.49.096.002-.008-.492-.088Zm.422-5.579.5.013.023-.932-.79.496.267.423Zm-4.852 2.743.188.463.013-.005.012-.006-.213-.452Zm-1.265.68.294.404.012-.01.012-.009-.318-.386Zm-1.758-.47.307-.394h-.001l-.306.395Zm-.633-1.664-.482-.133-.004.015-.003.015.489.103Zm-.188-7.804-.494.072.002.013.002.013.49-.098ZM19 17.187h-.5v.14l.072.119.428-.259Zm.375.125c.291 0 .815.159 1.621.577l.461-.887c-.819-.426-1.53-.69-2.082-.69v1Zm1.64.586c.33.154.54.292.661.405.122.114.105.155.105.127h1c0-.357-.193-.644-.422-.858-.23-.215-.547-.405-.921-.58l-.423.906Zm.766.532c0-.013.002.007-.021.076-.021.064-.058.15-.114.263l.895.447c.127-.254.24-.534.24-.786h-1Zm-.177.464c-.071.353-.104.755-.104 1.2h1c0-.4.03-.732.084-1.004l-.98-.196Zm-.104 1.2v6.656h1v-6.656h-1Zm0 6.656c0 .366.04.71.162.98.064.142.16.283.306.39.15.11.325.161.5.161v-1c.02 0 .058.008.091.033.028.02.027.033.013.003-.033-.074-.072-.245-.072-.567h-1Zm.969 1.531c.188 0 .41-.053.634-.122.235-.072.518-.178.846-.314l-.383-.924c-.312.13-.564.223-.759.283a1.473 1.473 0 0 1-.338.077v1Zm1.48-.436c1.872-.771 3.523-1.553 4.95-2.345l-.486-.875c-1.385.77-3 1.535-4.846 2.296l.381.924Zm5.207-2.782v-1.758h-1v1.758h1Zm0-1.758c0-2.1-.043-3.817-.13-5.148-.086-1.318-.217-2.3-.409-2.903l-.953.304c.152.476.279 1.349.364 2.664.085 1.301.128 2.994.128 5.083h1Zm-.538-8.048-.234-.75-.955.298.234.75.955-.298Zm-.212-.6c0 .074-.024.158-.079.23a.332.332 0 0 1-.127.104c-.022.01-.03.009-.01.006a.678.678 0 0 1 .091-.005v-1c-.146 0-.323.014-.481.083a.671.671 0 0 0-.268.207.614.614 0 0 0-.126.374h1Zm-.125.335c.251 0 .639.122 1.19.464l.527-.85c-.606-.376-1.187-.614-1.717-.614v1Zm1.164.447c.276.196.457.364.565.5.11.139.115.207.115.217h1c0-.318-.143-.6-.33-.837a3.75 3.75 0 0 0-.771-.695l-.58.815Zm.68.717c0-.044.009-.065.004-.048a.747.747 0 0 1-.029.076c-.034.08-.089.191-.17.34l.875.483c.09-.164.164-.31.216-.433.043-.102.104-.26.104-.418h-1Zm-.238.469c-.1.34-.137.848-.137 1.477h1c0-.622.04-1.004.097-1.195l-.96-.282Zm-.137 1.477v6.68h1v-6.68h-1Zm0 6.68c0 2.623-.016 4.697-.047 6.223-.031 1.54-.078 2.492-.136 2.893l.99.141c.068-.473.115-1.49.146-3.013.031-1.536.047-3.618.047-6.245h-1Zm-.18 9.1c-.034.194-.109.38-.228.56l.832.554c.193-.29.322-.604.38-.94l-.984-.174Zm-.244.585c-.024.04-.036.045-.029.04a.058.058 0 0 1 .014-.006c.005-.002.006-.001.002-.001v1c.396 0 .695-.217.877-.53l-.864-.503Zm-.014.033h-.002a.301.301 0 0 1-.085-.05 1.405 1.405 0 0 1-.286-.35l-.846.534c.28.444.675.866 1.22.866v-1Zm-.37-.394a5.004 5.004 0 0 1-.351-.663c-.076-.182-.091-.281-.091-.318h-1c0 .229.07.47.167.702.1.239.242.507.422.8l.853-.52Zm-.442-.981c0-.032.01-.142.046-.366a27 27 0 0 1 .156-.85l-.982-.192c-.07.361-.124.657-.16.883-.035.214-.06.4-.06.525h1Zm.203-1.224c.226-1.258.367-3.149.43-5.654l-1-.025c-.062 2.495-.203 4.323-.414 5.502l.984.177Zm-.336-6.09c-1.93 1.214-3.527 2.116-4.798 2.713l.425.905c1.323-.621 2.96-1.547 4.905-2.771l-.532-.847Zm-4.774 2.702c-.593.24-1.07.49-1.395.757l.636.772c.206-.17.572-.374 1.135-.602l-.376-.927Zm-1.372.739c-.106.078-.178.092-.221.092v1c.3 0 .573-.111.81-.283l-.588-.81Zm-.221.092-.018-.003a.469.469 0 0 1-.056-.014 1.305 1.305 0 0 1-.202-.09 4.731 4.731 0 0 1-.66-.444l-.613.79c.294.228.563.41.806.539.231.122.488.222.743.222v-1Zm-.936-.552c-.47-.363-.533-.576-.533-.636h-1c0 .565.421 1.04.92 1.427l.613-.79Zm-.533-.636c0-.067.02-.232.083-.53l-.978-.206a3.971 3.971 0 0 0-.105.736h1Zm.076-.5c.141-.511.206-1.13.206-1.843h-1c0 .66-.061 1.183-.17 1.578l.964.265Zm.206-1.843c0-2.816-.125-4.89-.385-6.192l-.98.196c.239 1.198.364 3.186.364 5.995h1Zm-.38-6.166c-.136-.933-.474-1.84-1.005-2.718l-.856.517c.47.777.756 1.558.87 2.345l.99-.144Zm-.933-2.46c0-.047.012.008-.053.073-.064.064-.12.052-.072.052v-1a.877.877 0 0 0-.635.24.877.877 0 0 0-.24.636h1Z"/></svg>