<svg xmlns="http://www.w3.org/2000/svg" width="50" height="50" fill="none"><path fill="#333" d="M28 14.492c.344 0 .688.235 1.031.703.375.532.563.977.563 1.336 0 .203-.328.508-.985.914-.422.282-1.086.953-1.992 2.016a115.742 115.742 0 0 1-3.914 4.312c-.719.735-1.078 1.297-1.078 1.688 0 .344.336.758 1.008 1.242 3.156 2.422 5.094 4.078 5.812 4.969.516.64.774 1.375.774 2.203 0 .328-.078.594-.235.797-.125.156-.265.234-.422.234-.375 0-.75-.25-1.125-.75-1-1.437-2.187-2.875-3.562-4.312-1.25-1.375-2.367-2.438-3.352-3.188-.39-.234-.585-.734-.585-1.5 0-.25.156-.46.468-.633.938-.687 2.25-2.132 3.938-4.335 1.687-2.25 2.718-3.907 3.093-4.97.125-.484.313-.726.563-.726Z"/><path fill="#333" d="m29.031 15.195.409-.288-.006-.007-.403.295Zm-.422 2.25-.263-.425-.007.005-.007.004.277.416Zm-1.992 2.016.379.327.002-.003-.38-.324Zm-3.914 4.312.358.35.004-.004-.362-.346Zm-.07 2.93.304-.397-.006-.004-.006-.005-.292.406Zm5.812 4.969.39-.314-.39.314Zm.54 3 .39.312.006-.007-.397-.305Zm-1.547-.516-.411.286.005.007.006.007.4-.3Zm-3.563-4.312-.37.336.009.01.361-.346Zm-3.352-3.188.303-.397-.022-.017-.023-.015-.258.43Zm-.117-2.133.241.439.029-.016.026-.02-.296-.403Zm3.938-4.335.397.304.003-.005-.4-.3Zm3.093-4.97.472.167.007-.02.006-.021-.485-.125Zm.563-.226c.1 0 .314.071.628.499l.806-.591c-.373-.51-.847-.908-1.434-.908v1Zm.623.492c.357.506.47.846.47 1.047h1c0-.517-.26-1.068-.653-1.624l-.817.577Zm.47 1.047c0-.081.032-.12.02-.1a.697.697 0 0 1-.106.115c-.129.12-.344.278-.66.474l.526.85c.338-.21.616-.407.815-.591.1-.093.193-.194.264-.305a.82.82 0 0 0 .142-.443h-1Zm-.761.498c-.488.326-1.194 1.05-2.095 2.108l.76.648c.912-1.068 1.534-1.687 1.89-1.924l-.555-.832Zm-2.093 2.105a115.095 115.095 0 0 1-3.898 4.294l.724.69a116.218 116.218 0 0 0 3.93-4.33l-.756-.654Zm-3.893 4.29c-.372.38-.668.732-.873 1.053-.199.311-.348.647-.348.984h1c0-.054.03-.194.19-.446.155-.24.399-.538.745-.892l-.714-.7Zm-1.221 2.037c0 .335.161.634.364.883.206.255.497.51.851.765l.585-.812c-.317-.228-.53-.423-.66-.583-.133-.164-.14-.244-.14-.253h-1Zm1.203 1.639c3.17 2.432 5.054 4.051 5.728 4.886l.778-.628c-.763-.947-2.754-2.64-5.897-5.052l-.609.794Zm5.728 4.885c.443.551.663 1.175.663 1.89h1c0-.941-.297-1.786-.884-2.517l-.78.627Zm.663 1.89c0 .25-.059.398-.13.492l.792.61c.24-.313.338-.695.338-1.102h-1Zm-.125.484a.21.21 0 0 1-.052.052s.002-.002.007-.003a.053.053 0 0 1 .014-.002v1c.349 0 .62-.183.812-.422l-.781-.625Zm-.032.047c-.136 0-.382-.093-.725-.55l-.8.6c.408.543.912.95 1.526.95v-1Zm-.714-.535c-1.017-1.462-2.221-2.92-3.612-4.373l-.722.691c1.36 1.422 2.53 2.84 3.513 4.253l.821-.571Zm-3.603-4.364c-1.261-1.387-2.401-2.473-3.419-3.248l-.606.795c.952.725 2.046 1.764 3.285 3.126l.74-.673Zm-3.464-3.28c-.159-.095-.343-.358-.343-1.07h-1c0 .818.205 1.554.828 1.928l.515-.858Zm-.343-1.07c0-.013 0-.025.018-.049a.59.59 0 0 1 .191-.146l-.482-.877c-.396.218-.727.566-.727 1.071h1Zm.264-.23c1.001-.735 2.351-2.232 4.039-4.436l-.794-.607c-1.688 2.203-2.962 3.595-3.836 4.236l.59.807Zm4.042-4.44c1.686-2.247 2.762-3.959 3.165-5.102l-.943-.333c-.347.982-1.333 2.583-3.022 4.835l.8.6Zm3.178-5.143c.055-.213.111-.32.145-.364.015-.019.016-.014 0-.005a.143.143 0 0 1-.067.017v-1a.906.906 0 0 0-.724.376c-.153.198-.253.454-.323.726l.969.25Z"/></svg>