<svg width="50" height="50" viewBox="0 0 50 50" fill="none" xmlns="http://www.w3.org/2000/svg">
<path d="M18.4375 18.125C18.7812 18.125 19.1719 18.25 19.6094 18.5C20.0156 18.75 20.2188 18.9688 20.2188 19.1562C20.2188 19.2969 20.1875 19.4531 20.125 19.625C20.0625 19.9375 20.0312 20.7188 20.0312 21.9688C20.0312 23.6406 20.1094 24.7344 20.2656 25.25C20.3594 25.625 20.5312 25.8125 20.7812 25.8125C20.8281 25.8125 20.9375 25.7812 21.1094 25.7188C22.1094 25.5312 23.0938 25.3672 24.0625 25.2266C24.0469 20.3516 23.8984 17.5234 23.6172 16.7422C23.4766 16.2734 23.4062 16.0156 23.4062 15.9688C23.4062 15.8438 23.5 15.7812 23.6875 15.7812C24.0469 15.7812 24.5312 15.9844 25.1406 16.3906C25.7344 16.7969 26.0312 17.1328 26.0312 17.3984C26.0312 17.4609 25.9844 17.6562 25.8906 17.9844C25.7031 18.625 25.5781 20.9766 25.5156 25.0391L27.5781 24.875C28.875 24.8125 29.6016 24.5703 29.7578 24.1484C30.1484 23.0391 30.3438 21.5625 30.3438 19.7188C30.3438 19.1719 30.3047 18.6484 30.2266 18.1484C30.1797 17.9922 30.1562 17.8594 30.1562 17.75C30.1562 17.5781 30.25 17.4922 30.4375 17.4922C30.75 17.4922 31.1172 17.625 31.5391 17.8906C32.0547 18.3125 32.3125 18.6406 32.3125 18.875C32.3125 19.0156 32.2344 19.2891 32.0781 19.6953C31.6094 20.9297 31.375 22.1328 31.375 23.3047V24.5234C31.375 24.8984 31.25 25.2422 31 25.5547C30.7969 25.8359 30.5156 25.9844 30.1562 26C29 26 27.4531 26.1406 25.5156 26.4219L25.4688 31.2031C26.3594 31.0938 27.1172 31.0234 27.7422 30.9922C29.7578 30.8672 31.0312 30.7422 31.5625 30.6172L32.125 30.5234C32.3438 30.5234 32.6016 30.6641 32.8984 30.9453C33.4453 31.5391 33.7188 31.9531 33.7188 32.1875C33.7188 32.3906 33.5625 32.4922 33.25 32.4922C33.1406 32.4922 32.8594 32.4453 32.4062 32.3516C31.3281 32.3203 30.6094 32.3047 30.25 32.3047C28.1094 32.3047 26.0234 32.4453 23.9922 32.7266C22.1953 32.9609 20.6875 33.25 19.4688 33.5938L18.8125 33.7812C18.5156 33.7812 18.0469 33.5312 17.4062 33.0312C16.9062 32.7031 16.6562 32.4609 16.6562 32.3047C16.6562 32.1641 16.7188 32.0938 16.8438 32.0938L17.0078 32.1172C17.1641 32.1641 17.3906 32.1875 17.6875 32.1875C17.9062 32.1875 18.8516 32.0859 20.5234 31.8828L23.8984 31.4141C23.9922 29.8984 24.0469 28.3047 24.0625 26.6328C22.1875 26.8672 21.0547 27.0547 20.6641 27.1953C20.3516 27.2891 20.1406 27.3359 20.0312 27.3359C19.9375 27.3359 19.7109 27.2188 19.3516 26.9844C18.7422 26.5625 18.4375 26.2031 18.4375 25.9062C18.4375 25.8438 18.4766 25.7031 18.5547 25.4844C18.6016 25.2188 18.625 24.2969 18.625 22.7188C18.625 21.7188 18.5 20.6562 18.25 19.5312C18 18.9062 17.875 18.5703 17.875 18.5234C17.875 18.2578 18.0625 18.125 18.4375 18.125Z" fill="#333333"/>
<path d="M19.6094 18.5L19.8714 18.0742L19.8645 18.0699L19.8574 18.0659L19.6094 18.5ZM20.125 19.625L19.6551 19.4541L19.6421 19.4898L19.6347 19.5269L20.125 19.625ZM20.2656 25.25L20.7507 25.1287L20.7477 25.1168L20.7441 25.105L20.2656 25.25ZM21.1094 25.7188L21.0172 25.2273L20.977 25.2349L20.9385 25.2489L21.1094 25.7188ZM24.0625 25.2266L24.1343 25.7214L24.5639 25.659L24.5625 25.225L24.0625 25.2266ZM23.6172 16.7422L23.1383 16.8859L23.1422 16.8988L23.1467 16.9115L23.6172 16.7422ZM25.1406 16.3906L25.423 15.9779L25.418 15.9746L25.1406 16.3906ZM25.8906 17.9844L26.3705 18.1248L26.3714 18.1217L25.8906 17.9844ZM25.5156 25.0391L25.0157 25.0314L25.0072 25.5811L25.5553 25.5375L25.5156 25.0391ZM27.5781 24.875L27.5541 24.3756L27.5463 24.376L27.5385 24.3766L27.5781 24.875ZM29.7578 24.1484L30.2267 24.3221L30.2294 24.3145L29.7578 24.1484ZM30.2266 18.1484L30.7206 18.0712L30.7153 18.0375L30.7055 18.0048L30.2266 18.1484ZM31.5391 17.8906L31.8557 17.5036L31.8317 17.484L31.8055 17.4675L31.5391 17.8906ZM32.0781 19.6953L31.6114 19.5158L31.6107 19.5178L32.0781 19.6953ZM31 25.5547L30.6096 25.2423L30.6019 25.252L30.5947 25.2619L31 25.5547ZM30.1562 26V26.5H30.1671L30.178 26.4995L30.1562 26ZM25.5156 26.4219L25.4438 25.9271L25.0198 25.9886L25.0156 26.417L25.5156 26.4219ZM25.4688 31.2031L24.9688 31.1982L24.9632 31.769L25.5297 31.6994L25.4688 31.2031ZM27.7422 30.9922L27.7672 31.4916L27.7731 31.4912L27.7422 30.9922ZM31.5625 30.6172L31.4803 30.124L31.464 30.1267L31.448 30.1305L31.5625 30.6172ZM32.125 30.5234V30.0234H32.0836L32.0428 30.0302L32.125 30.5234ZM32.8984 30.9453L33.2662 30.6066L33.2547 30.594L33.2423 30.5823L32.8984 30.9453ZM32.4062 32.3516L32.5076 31.8619L32.4646 31.853L32.4207 31.8518L32.4062 32.3516ZM23.9922 32.7266L24.0569 33.2224L24.0608 33.2218L23.9922 32.7266ZM19.4688 33.5938L19.333 33.1125L19.3314 33.113L19.4688 33.5938ZM18.8125 33.7812V34.2812H18.8825L18.9499 34.262L18.8125 33.7812ZM17.4062 33.0312L17.7139 32.6371L17.6977 32.6245L17.6806 32.6132L17.4062 33.0312ZM16.8438 32.0938L16.9145 31.5988L16.8793 31.5938H16.8438V32.0938ZM17.0078 32.1172L17.1515 31.6383L17.1156 31.6275L17.0785 31.6222L17.0078 32.1172ZM20.5234 31.8828L20.5838 32.3792L20.5922 32.3781L20.5234 31.8828ZM23.8984 31.4141L23.9672 31.9093L24.3722 31.8531L24.3975 31.4449L23.8984 31.4141ZM24.0625 26.6328L24.5625 26.6375L24.5678 26.0658L24.0005 26.1367L24.0625 26.6328ZM20.6641 27.1953L20.8077 27.6742L20.8207 27.6703L20.8334 27.6658L20.6641 27.1953ZM19.3516 26.9844L19.0668 27.3956L19.0784 27.4032L19.3516 26.9844ZM18.5547 25.4844L19.0256 25.6525L19.0397 25.6128L19.0471 25.5713L18.5547 25.4844ZM18.25 19.5312L18.7381 19.4228L18.7293 19.3832L18.7142 19.3456L18.25 19.5312ZM18.4375 18.625C18.6629 18.625 18.9665 18.7085 19.3613 18.9341L19.8574 18.0659C19.3772 17.7915 18.8996 17.625 18.4375 17.625V18.625ZM19.3473 18.9258C19.532 19.0395 19.6419 19.1292 19.7 19.1918C19.7642 19.2609 19.7188 19.2454 19.7188 19.1562H20.7188C20.7188 18.8796 20.5717 18.661 20.4328 18.5113C20.2878 18.3552 20.093 18.2105 19.8714 18.0742L19.3473 18.9258ZM19.7188 19.1562C19.7188 19.224 19.7034 19.3214 19.6551 19.4541L20.5949 19.7959C20.6716 19.5848 20.7188 19.3697 20.7188 19.1562H19.7188ZM19.6347 19.5269C19.5603 19.8988 19.5312 20.7368 19.5312 21.9688H20.5312C20.5312 20.7007 20.5647 19.9762 20.6153 19.7231L19.6347 19.5269ZM19.5312 21.9688C19.5312 22.8111 19.5509 23.5154 19.5911 24.0786C19.6307 24.6327 19.692 25.0813 19.7871 25.395L20.7441 25.105C20.683 24.9031 20.6271 24.547 20.5886 24.0073C20.5507 23.4767 20.5312 22.7983 20.5312 21.9688H19.5312ZM19.7806 25.3713C19.838 25.6011 19.9323 25.8308 20.0963 26.0097C20.275 26.2048 20.5133 26.3125 20.7812 26.3125V25.3125C20.7811 25.3125 20.7814 25.3125 20.7813 25.3125C20.7811 25.3125 20.7814 25.3125 20.7813 25.3125C20.7813 25.3125 20.7813 25.3125 20.7813 25.3125C20.7813 25.3125 20.7814 25.3125 20.7814 25.3125C20.7815 25.3125 20.7817 25.3125 20.7819 25.3125C20.7824 25.3125 20.783 25.3126 20.7838 25.3127C20.7855 25.3128 20.7879 25.3131 20.7908 25.3137C20.7969 25.315 20.804 25.3171 20.8115 25.3204C20.8276 25.3276 20.8347 25.3355 20.8334 25.334C20.831 25.3313 20.8191 25.3172 20.8027 25.2826C20.7864 25.248 20.768 25.198 20.7507 25.1287L19.7806 25.3713ZM20.7812 26.3125C20.8822 26.3125 20.982 26.2852 21.0358 26.2698C21.1064 26.2496 21.189 26.2218 21.2802 26.1886L20.9385 25.2489C20.8579 25.2782 20.7998 25.2972 20.7611 25.3083C20.7417 25.3138 20.7321 25.3159 20.7301 25.3163C20.7238 25.3176 20.7451 25.3125 20.7812 25.3125V26.3125ZM21.2015 26.2102C22.195 26.0239 23.1726 25.861 24.1343 25.7214L23.9907 24.7317C23.0149 24.8734 22.0237 25.0386 21.0172 25.2273L21.2015 26.2102ZM24.5625 25.225C24.5547 22.7842 24.5136 20.849 24.4388 19.423C24.4014 18.7103 24.3552 18.1192 24.2997 17.6528C24.2455 17.1976 24.1786 16.8256 24.0876 16.5728L23.1467 16.9115C23.1964 17.0494 23.2535 17.3239 23.3067 17.771C23.3586 18.207 23.4033 18.7741 23.4401 19.4754C23.5137 20.8775 23.5547 22.7939 23.5625 25.2282L24.5625 25.225ZM24.0961 16.5985C24.0262 16.3655 23.9749 16.1885 23.9414 16.0657C23.9245 16.0038 23.9133 15.9598 23.9066 15.931C23.905 15.9242 23.9039 15.9188 23.9031 15.9149C23.9022 15.9109 23.9019 15.9092 23.9019 15.9093C23.902 15.9095 23.9021 15.9104 23.9024 15.9121C23.9026 15.9137 23.903 15.9166 23.9035 15.9204C23.9042 15.9258 23.9062 15.9439 23.9062 15.9688H22.9062C22.9062 16.0483 22.9267 16.1317 22.9322 16.1559C22.9432 16.2033 22.9583 16.2618 22.9766 16.3288C23.0134 16.4638 23.0676 16.6502 23.1383 16.8859L24.0961 16.5985ZM23.9062 15.9688C23.9062 16.0003 23.9001 16.0522 23.871 16.1103C23.8409 16.1705 23.7973 16.2152 23.7539 16.2442C23.6805 16.2931 23.6335 16.2812 23.6875 16.2812V15.2812C23.554 15.2812 23.3664 15.3006 23.1992 15.4121C22.9962 15.5474 22.9062 15.7606 22.9062 15.9688H23.9062ZM23.6875 16.2812C23.8887 16.2812 24.2662 16.4086 24.8633 16.8067L25.418 15.9746C24.7963 15.5601 24.205 15.2812 23.6875 15.2812V16.2812ZM24.8583 16.8033C25.139 16.9953 25.3241 17.1541 25.4339 17.2784C25.5529 17.413 25.5312 17.4475 25.5312 17.3984H26.5312C26.5312 17.0837 26.3611 16.8174 26.1833 16.6162C25.9962 16.4045 25.736 16.1922 25.423 15.978L24.8583 16.8033ZM25.5312 17.3984C25.5312 17.3665 25.5355 17.3533 25.5305 17.3808C25.527 17.4004 25.5205 17.4311 25.5099 17.4751C25.4889 17.5627 25.4559 17.6858 25.4099 17.847L26.3714 18.1217C26.4191 17.9548 26.4564 17.8162 26.4823 17.7085C26.5026 17.6237 26.5312 17.4997 26.5312 17.3984H25.5312ZM25.4108 17.8439C25.2973 18.2314 25.2186 19.0432 25.157 20.202C25.094 21.3869 25.047 22.9976 25.0157 25.0314L26.0156 25.0468C26.0468 23.018 26.0935 21.4217 26.1555 20.2551C26.2189 19.0623 26.2964 18.3779 26.3705 18.1248L25.4108 17.8439ZM25.5553 25.5375L27.6178 25.3734L27.5385 24.3766L25.476 24.5406L25.5553 25.5375ZM27.6022 25.3744C28.2693 25.3423 28.8275 25.2629 29.2538 25.1208C29.6629 24.9845 30.0683 24.7498 30.2267 24.3221L29.2889 23.9748C29.2888 23.9751 29.2884 23.9761 29.2874 23.9779C29.2863 23.9798 29.2843 23.9831 29.2807 23.9876C29.2734 23.9968 29.2591 24.012 29.2331 24.0316C29.179 24.0723 29.0863 24.1226 28.9376 24.1721C28.6374 24.2722 28.1838 24.3452 27.5541 24.3756L27.6022 25.3744ZM30.2294 24.3145C30.6464 23.1303 30.8438 21.5907 30.8438 19.7188H29.8438C29.8438 21.5343 29.6505 22.9478 29.2862 23.9824L30.2294 24.3145ZM30.8438 19.7188C30.8438 19.1481 30.803 18.5987 30.7206 18.0712L29.7326 18.2256C29.8064 18.6981 29.8438 19.1957 29.8438 19.7188H30.8438ZM30.7055 18.0048C30.6664 17.8746 30.6562 17.7931 30.6562 17.75H29.6562C29.6562 17.9256 29.6929 18.1098 29.7477 18.2921L30.7055 18.0048ZM30.6562 17.75C30.6562 17.7529 30.6535 17.8436 30.5644 17.9252C30.4836 17.9993 30.4106 17.9922 30.4375 17.9922V16.9922C30.2769 16.9922 30.0632 17.0281 29.8887 17.1881C29.7059 17.3556 29.6562 17.5753 29.6562 17.75H30.6562ZM30.4375 17.9922C30.6151 17.9922 30.8873 18.0711 31.2727 18.3137L31.8055 17.4675C31.347 17.1789 30.8849 16.9922 30.4375 16.9922V17.9922ZM31.2224 18.2776C31.4666 18.4774 31.6289 18.6385 31.726 18.762C31.8337 18.8991 31.8125 18.9285 31.8125 18.875H32.8125C32.8125 18.5872 32.6624 18.3353 32.5123 18.1442C32.3515 17.9396 32.1272 17.7258 31.8557 17.5036L31.2224 18.2776ZM31.8125 18.875C31.8125 18.8724 31.8097 18.9203 31.7731 19.0482C31.7397 19.1653 31.6867 19.3201 31.6115 19.5158L32.5448 19.8748C32.6258 19.6643 32.69 19.4792 32.7347 19.3229C32.7763 19.1773 32.8125 19.0182 32.8125 18.875H31.8125ZM31.6107 19.5178C31.1231 20.8018 30.875 22.065 30.875 23.3047H31.875C31.875 22.2007 32.0956 21.0576 32.5456 19.8728L31.6107 19.5178ZM30.875 23.3047V24.5234H31.875V23.3047H30.875ZM30.875 24.5234C30.875 24.777 30.7938 25.0121 30.6096 25.2423L31.3904 25.867C31.7062 25.4723 31.875 25.0199 31.875 24.5234H30.875ZM30.5947 25.2619C30.4848 25.414 30.3477 25.4912 30.1345 25.5005L30.178 26.4995C30.6836 26.4775 31.1089 26.2579 31.4053 25.8474L30.5947 25.2619ZM30.1562 25.5C28.9651 25.5 27.3912 25.6444 25.4438 25.9271L25.5875 26.9167C27.515 26.6369 29.0349 26.5 30.1562 26.5V25.5ZM25.0156 26.417L24.9688 31.1982L25.9687 31.208L26.0156 26.4268L25.0156 26.417ZM25.5297 31.6994C26.413 31.5909 27.1581 31.522 27.7672 31.4916L27.7172 30.4928C27.0763 30.5249 26.3057 30.5966 25.4078 30.7069L25.5297 31.6994ZM27.7731 31.4912C29.7751 31.3671 31.0957 31.2407 31.677 31.1039L31.448 30.1305C30.9668 30.2437 29.7405 30.3673 27.7112 30.4931L27.7731 31.4912ZM31.6447 31.1104L32.2072 31.0166L32.0428 30.0302L31.4803 30.124L31.6447 31.1104ZM32.125 31.0234C32.1428 31.0234 32.2787 31.0469 32.5546 31.3083L33.2423 30.5823C32.9244 30.2812 32.5447 30.0234 32.125 30.0234V31.0234ZM32.5307 31.284C32.7957 31.5718 32.9807 31.8015 33.0964 31.9767C33.2276 32.1753 33.2188 32.2295 33.2188 32.1875H34.2188C34.2188 31.9111 34.0732 31.6411 33.9309 31.4256C33.7732 31.1868 33.5481 30.9126 33.2662 30.6066L32.5307 31.284ZM33.2188 32.1875C33.2188 32.1737 33.2217 32.1372 33.2445 32.0926C33.2683 32.0463 33.3016 32.0146 33.3291 31.9968C33.3531 31.9812 33.3647 31.9811 33.3492 31.9845C33.334 31.9878 33.3026 31.9922 33.25 31.9922V32.9922C33.4444 32.9922 33.6768 32.9635 33.8741 32.8352C34.1086 32.6828 34.2188 32.4402 34.2188 32.1875H33.2188ZM33.25 31.9922C33.2523 31.9922 33.2373 31.992 33.1953 31.987C33.1566 31.9823 33.105 31.9748 33.0392 31.9638C32.9077 31.9419 32.7311 31.9082 32.5076 31.8619L32.3049 32.8412C32.5345 32.8887 32.7251 32.9253 32.8748 32.9502C33.0129 32.9732 33.1486 32.9922 33.25 32.9922V31.9922ZM32.4207 31.8518C31.3438 31.8206 30.6178 31.8047 30.25 31.8047V32.8047C30.6009 32.8047 31.3124 32.8201 32.3918 32.8514L32.4207 31.8518ZM30.25 31.8047C28.0874 31.8047 25.9786 31.9468 23.9236 32.2313L24.0608 33.2218C26.0683 32.9439 28.1313 32.8047 30.25 32.8047V31.8047ZM23.9275 32.2308C22.1159 32.4671 20.5826 32.7601 19.333 33.1125L19.6045 34.075C20.7924 33.7399 22.2747 33.4548 24.0569 33.2224L23.9275 32.2308ZM19.3314 33.113L18.6751 33.3005L18.9499 34.262L19.6061 34.0745L19.3314 33.113ZM18.8125 33.2812C18.7878 33.2812 18.6844 33.265 18.4736 33.1526C18.2742 33.0462 18.022 32.8776 17.7139 32.6371L17.0986 33.4254C17.4311 33.6849 17.7336 33.8913 18.003 34.0349C18.2609 34.1725 18.5403 34.2812 18.8125 34.2812V33.2812ZM17.6806 32.6132C17.4411 32.456 17.2836 32.3335 17.1916 32.2444C17.1698 32.2232 17.1539 32.2061 17.1428 32.193C17.1373 32.1865 17.1333 32.1815 17.1306 32.1778C17.1293 32.176 17.1283 32.1747 17.1276 32.1737C17.1273 32.1732 17.1271 32.1729 17.1269 32.1726C17.1267 32.1724 17.1267 32.1722 17.1267 32.1722C17.1267 32.1722 17.1267 32.1724 17.1269 32.1726C17.1271 32.1729 17.1273 32.1733 17.1276 32.1739C17.1282 32.1749 17.1291 32.1766 17.1303 32.179C17.1326 32.1835 17.136 32.191 17.1397 32.2014C17.1468 32.2219 17.1562 32.2575 17.1562 32.3047H16.1562C16.1562 32.4739 16.2219 32.6118 16.2796 32.7037C16.3398 32.7996 16.4169 32.8861 16.4959 32.9626C16.6539 33.1157 16.8714 33.2783 17.1319 33.4493L17.6806 32.6132ZM17.1562 32.3047C17.1562 32.305 17.1564 32.324 17.1474 32.3544C17.1378 32.3866 17.1175 32.4329 17.0768 32.4787C16.9846 32.5824 16.8746 32.5938 16.8438 32.5938V31.5938C16.6879 31.5938 16.4841 31.6403 16.3294 31.8143C16.1847 31.9771 16.1562 32.1709 16.1562 32.3047H17.1562ZM16.773 32.5887L16.9371 32.6122L17.0785 31.6222L16.9145 31.5988L16.773 32.5887ZM16.8641 32.5961C17.0905 32.664 17.3749 32.6875 17.6875 32.6875V31.6875C17.4064 31.6875 17.2376 31.6641 17.1515 31.6383L16.8641 32.5961ZM17.6875 32.6875C17.8301 32.6875 18.1528 32.658 18.614 32.6085C19.09 32.5573 19.747 32.4808 20.5837 32.3792L20.4631 31.3865C19.628 31.4879 18.9764 31.5638 18.5071 31.6142C18.023 31.6662 17.7637 31.6875 17.6875 31.6875V32.6875ZM20.5922 32.3781L23.9672 31.9093L23.8297 30.9188L20.4547 31.3876L20.5922 32.3781ZM24.3975 31.4449C24.4918 29.9198 24.5468 28.3172 24.5625 26.6375L23.5625 26.6281C23.547 28.2921 23.4926 29.8771 23.3994 31.3832L24.3975 31.4449ZM24.0005 26.1367C23.06 26.2542 22.3007 26.3606 21.725 26.4559C21.1635 26.5489 20.7391 26.6369 20.4947 26.7249L20.8334 27.6658C20.9797 27.6131 21.317 27.5371 21.8883 27.4425C22.4454 27.3503 23.19 27.2458 24.1245 27.129L24.0005 26.1367ZM20.5204 26.7164C20.3706 26.7614 20.2523 26.7928 20.163 26.8127C20.0658 26.8343 20.0293 26.8359 20.0312 26.8359V27.8359C20.2262 27.8359 20.5074 27.7643 20.8077 27.6742L20.5204 26.7164ZM20.0312 26.8359C20.0962 26.8359 20.1303 26.8526 20.1078 26.8444C20.0947 26.8396 20.0668 26.8278 20.0207 26.8039C19.929 26.7565 19.7984 26.6789 19.6247 26.5656L19.0784 27.4032C19.2641 27.5243 19.4265 27.6224 19.5613 27.6922C19.6285 27.7269 19.6973 27.759 19.7642 27.7835C19.8219 27.8046 19.9195 27.8359 20.0312 27.8359V26.8359ZM19.6362 26.5733C19.3494 26.3748 19.1601 26.2081 19.0474 26.0751C18.9292 25.9357 18.9375 25.884 18.9375 25.9062H17.9375C17.9375 26.2254 18.0981 26.5018 18.2846 26.7218C18.4766 26.9482 18.7443 27.1721 19.067 27.3955L19.6362 26.5733ZM18.9375 25.9062C18.9375 25.9361 18.9336 25.9508 18.9358 25.9391C18.9374 25.9312 18.9411 25.9147 18.9486 25.8877C18.9636 25.8337 18.9885 25.7564 19.0256 25.6525L18.0838 25.3162C18.0428 25.4311 18.0091 25.5335 17.985 25.6201C17.9652 25.6916 17.9375 25.8004 17.9375 25.9062H18.9375ZM19.0471 25.5713C19.0783 25.3944 19.0958 25.0575 19.1073 24.6065C19.1191 24.1394 19.125 23.5095 19.125 22.7188H18.125C18.125 23.5061 18.1191 24.1263 18.1076 24.581C18.0956 25.0519 18.078 25.3087 18.0623 25.3975L19.0471 25.5713ZM19.125 22.7188C19.125 21.6772 18.9948 20.5781 18.7381 19.4228L17.7619 19.6397C18.0052 20.7344 18.125 21.7603 18.125 22.7188H19.125ZM18.7142 19.3456C18.5897 19.0342 18.4977 18.7984 18.4374 18.6362C18.407 18.5545 18.3863 18.4959 18.3737 18.4576C18.3707 18.4484 18.3685 18.4412 18.3668 18.4358C18.366 18.4331 18.3655 18.4311 18.365 18.4297C18.3646 18.4282 18.3645 18.4276 18.3645 18.4277C18.3645 18.4278 18.3648 18.429 18.3654 18.4313C18.3659 18.4335 18.3668 18.4375 18.3678 18.4431C18.3688 18.4484 18.375 18.48 18.375 18.5234H17.375C17.375 18.6022 17.3945 18.6711 17.3972 18.6814C17.4047 18.7099 17.4139 18.7398 17.4231 18.768C17.4419 18.8254 17.468 18.8986 17.5001 18.9849C17.5648 19.1586 17.6603 19.4033 17.7858 19.7169L18.7142 19.3456ZM18.375 18.5234C18.375 18.5157 18.3763 18.5329 18.3626 18.562C18.3476 18.5937 18.325 18.6182 18.3046 18.6326C18.2875 18.6448 18.283 18.642 18.3063 18.6365C18.3297 18.631 18.3717 18.625 18.4375 18.625V17.625C18.2062 17.625 17.9431 17.6632 17.7266 17.8166C17.4785 17.9924 17.375 18.2575 17.375 18.5234H18.375Z" fill="#333333"/>
</svg>
