<svg xmlns="http://www.w3.org/2000/svg" width="50" height="50" fill="none"><path fill="#333" d="M18.438 18.125c.343 0 .734.125 1.171.375.407.25.61.469.61.656 0 .14-.032.297-.094.469-.063.313-.094 1.094-.094 2.344 0 1.672.078 2.765.235 3.281.093.375.265.563.515.563.047 0 .157-.032.328-.094 1-.188 1.985-.352 2.953-.492-.015-4.875-.164-7.704-.445-8.485-.14-.469-.21-.726-.21-.773 0-.125.093-.188.28-.188.36 0 .844.203 1.454.61.593.406.89.742.89 1.007 0 .063-.047.258-.14.586-.188.641-.313 2.993-.375 7.055l2.062-.164c1.297-.063 2.024-.305 2.18-.727.39-1.109.586-2.585.586-4.43 0-.546-.04-1.07-.117-1.57a1.427 1.427 0 0 1-.07-.398c0-.172.093-.258.28-.258.313 0 .68.133 1.102.399.516.422.773.75.773.984 0 .14-.078.414-.234.82-.469 1.235-.703 2.438-.703 3.61v1.218c0 .375-.125.72-.375 1.032-.203.28-.484.43-.844.445-1.156 0-2.703.14-4.64.422l-.047 4.781c.89-.11 1.648-.18 2.273-.21 2.016-.126 3.29-.25 3.82-.376l.563-.094c.219 0 .477.141.773.422.547.594.82 1.008.82 1.242 0 .204-.156.305-.468.305-.11 0-.39-.047-.844-.14a92.796 92.796 0 0 0-2.156-.047c-2.14 0-4.227.14-6.258.422-1.797.234-3.305.523-4.523.867l-.657.187c-.296 0-.765-.25-1.406-.75-.5-.328-.75-.57-.75-.726 0-.14.063-.211.188-.211l.164.023c.156.047.383.07.68.07.218 0 1.164-.101 2.835-.304l3.375-.469c.094-1.516.149-3.11.165-4.781-1.875.234-3.008.422-3.399.562-.312.094-.523.14-.633.14-.093 0-.32-.116-.68-.35-.609-.422-.913-.782-.913-1.079 0-.062.039-.203.117-.422.047-.265.07-1.187.07-2.765 0-1-.125-2.063-.375-3.188-.25-.625-.375-.96-.375-1.008 0-.265.188-.398.563-.398Z"/><path fill="#333" d="m19.61 18.5.261-.426-.006-.004-.008-.004-.248.434Zm.515 1.125-.47-.17-.013.035-.007.037.49.098Zm.14 5.625.486-.121-.003-.012-.004-.012-.478.145Zm.844.469-.092-.492-.04.008-.038.014.17.47Zm2.953-.492.072.494.43-.062-.002-.434-.5.002Zm-.445-8.485-.479.144.004.013.005.012.47-.169Zm1.524-.351.282-.413-.005-.003-.277.416Zm.75 1.593.48.14v-.002l-.48-.138Zm-.375 7.055-.5-.008-.009.55.548-.043-.04-.499Zm2.062-.164-.024-.5-.008.001h-.008l.04.499Zm2.18-.727.469.174.002-.008-.471-.166Zm.469-6 .494-.077-.006-.034-.01-.032-.478.143Zm1.312-.257.317-.387-.024-.02-.027-.017-.266.424Zm.54 1.804-.468-.18v.003l.467.177ZM31 25.555l-.39-.313-.008.01-.007.01.405.293Zm-.844.445v.5h.022l-.022-.5Zm-4.64.422-.072-.495-.424.062-.004.428.5.005Zm-.047 4.781-.5-.005-.006.571.567-.07-.061-.496Zm2.273-.21.025.499h.006l-.03-.5Zm3.82-.376-.082-.493-.016.003-.016.004.114.486Zm.563-.094v-.5h-.041l-.041.007.082.493Zm.773.422.368-.338-.011-.013-.013-.012-.344.363Zm-.492 1.407.102-.49-.043-.009-.044-.001-.015.5Zm-8.414.375.065.495h.004l-.069-.495Zm-4.523.867-.136-.482-.002.001.138.48Zm-.657.187v.5h.07l.068-.019-.137-.48Zm-1.406-.75.308-.394-.016-.013-.017-.01-.275.417Zm-.562-.937.07-.495-.035-.005h-.035v.5Zm.164.023.143-.479-.035-.01-.038-.006-.07.495Zm3.515-.234.06.496h.01l-.07-.496Zm3.375-.469.07.495.404-.056.026-.408-.5-.03Zm.165-4.781.5.005.005-.572-.568.07.063.497Zm-3.399.562.144.48.013-.005.012-.004-.169-.47Zm-1.312-.21-.285.41.011.008.274-.419Zm-.797-1.5.47.168.015-.04.007-.042-.492-.087Zm-.305-5.954.488-.108-.009-.04-.015-.037-.464.185Zm.188-.906c.225 0 .529.084.923.31l.496-.87c-.48-.274-.957-.44-1.42-.44v1Zm.91.3c.184.114.294.204.352.267.064.069.019.053.019-.036h1c0-.276-.147-.495-.286-.645-.145-.156-.34-.3-.562-.437l-.524.852Zm.37.231a.896.896 0 0 1-.063.298l.94.342c.077-.211.124-.426.124-.64h-1Zm-.083.37c-.075.373-.104 1.21-.104 2.443h1c0-1.268.034-1.993.084-2.246l-.98-.196Zm-.104 2.443c0 .842.02 1.546.06 2.11.04.554.101 1.002.196 1.316l.957-.29c-.061-.202-.117-.558-.155-1.098a29.592 29.592 0 0 1-.058-2.038h-1Zm.25 3.402c.057.23.151.46.315.639a.912.912 0 0 0 .685.302v-1h.003a.107.107 0 0 1 .028.008c.016.008.023.015.021.014a.225.225 0 0 1-.03-.051.847.847 0 0 1-.052-.154l-.97.242Zm1 .942c.101 0 .201-.028.255-.043.07-.02.153-.048.244-.081l-.341-.94a2.853 2.853 0 0 1-.209.067c-.006.002.015-.003.051-.003v1Zm.42-.103a72.16 72.16 0 0 1 2.933-.489l-.143-.99c-.976.142-1.967.308-2.974.496l.184.983Zm3.361-.985c-.007-2.44-.048-4.376-.123-5.802a27.855 27.855 0 0 0-.14-1.77c-.053-.455-.12-.827-.211-1.08l-.941.338c.05.138.107.413.16.86.052.436.096 1.003.133 1.704.074 1.402.115 3.319.122 5.753l1-.003Zm-.466-8.627a23.669 23.669 0 0 1-.19-.667l-.003-.016-.001-.006v.003l.002.008a.4.4 0 0 1 .002.049h-1c0 .08.02.163.026.187a24.532 24.532 0 0 0 .206.73l.958-.287Zm-.19-.63a.35.35 0 0 1-.152.275c-.073.05-.12.038-.066.038v-1a.872.872 0 0 0-.489.131.657.657 0 0 0-.293.557h1Zm-.218.313c.2 0 .578.128 1.175.526l.555-.832c-.622-.415-1.213-.694-1.73-.694v1Zm1.17.522c.281.192.466.351.576.475.119.135.097.17.097.12h1c0-.314-.17-.58-.348-.782a4.148 4.148 0 0 0-.76-.638l-.565.825Zm.673.595c0-.032.005-.045 0-.017-.004.02-.01.05-.021.094-.021.088-.054.21-.1.372l.961.275c.048-.167.085-.306.111-.413.02-.085.05-.21.05-.31h-1Zm-.12.446c-.114.387-.192 1.2-.254 2.358-.063 1.185-.11 2.796-.141 4.83l1 .015c.03-2.029.078-3.625.14-4.792.063-1.193.14-1.877.215-2.13l-.96-.281Zm.144 7.694 2.063-.165-.08-.996-2.062.164.08.997Zm2.047-.164c.667-.032 1.226-.111 1.652-.253.409-.136.814-.371.973-.799l-.938-.347-.002.003a.262.262 0 0 1-.054.054c-.054.04-.147.09-.295.14-.3.1-.754.173-1.384.204l.048.998Zm2.627-1.06c.417-1.184.615-2.723.615-4.595h-1c0 1.815-.194 3.229-.558 4.263l.943.332Zm.615-4.595c0-.57-.041-1.12-.123-1.648l-.988.155c.073.472.11.97.11 1.493h1Zm-.139-1.714a.958.958 0 0 1-.049-.255h-1c0 .176.037.36.092.542l.957-.287Zm-.049-.255a.264.264 0 0 1-.092.175c-.08.074-.153.067-.127.067v-1a.797.797 0 0 0-.548.196.746.746 0 0 0-.233.562h1Zm-.218.242c.177 0 .45.08.835.322l.532-.846c-.458-.29-.92-.476-1.367-.476v1Zm.784.286c.245.2.407.36.504.484.108.137.087.166.087.113h1c0-.288-.15-.54-.3-.73a4.323 4.323 0 0 0-.657-.641l-.634.774Zm.59.597c0-.003-.002.045-.039.173a5.796 5.796 0 0 1-.162.468l.934.359c.08-.21.145-.396.19-.552.041-.146.078-.305.078-.448h-1Zm-.201.643c-.488 1.284-.736 2.547-.736 3.787h1c0-1.104.22-2.247.67-3.432l-.934-.355Zm-.736 3.787v1.218h1v-1.218h-1Zm0 1.218c0 .254-.081.49-.265.72l.78.624c.316-.395.485-.847.485-1.344h-1Zm-.28.739a.546.546 0 0 1-.46.238l.043 1c.506-.023.93-.242 1.227-.653l-.81-.585Zm-.439.238c-1.19 0-2.765.144-4.712.427l.143.99c1.928-.28 3.448-.417 4.57-.417v-1Zm-5.14.917-.047 4.781 1 .01.047-4.781-1-.01Zm.514 5.282a31.845 31.845 0 0 1 2.237-.207l-.05-1c-.64.033-1.411.105-2.31.215l.123.992Zm2.243-.208c2.002-.124 3.323-.25 3.904-.387l-.229-.973c-.481.113-1.707.236-3.737.362l.062.998Zm3.872-.38.562-.094-.164-.987-.563.094.165.986Zm.48-.088c.018 0 .154.024.43.285l.687-.726c-.318-.3-.697-.559-1.117-.559v1Zm.406.261c.265.288.45.518.565.693.132.198.123.253.123.21h1c0-.276-.146-.546-.288-.761a6.808 6.808 0 0 0-.665-.82l-.735.678Zm.688.904a.253.253 0 0 1 .11-.19c.024-.017.036-.017.02-.014a.493.493 0 0 1-.099.008v1c.194 0 .427-.028.624-.157a.753.753 0 0 0 .345-.648h-1Zm.031-.196c.002 0-.013 0-.055-.005a3.63 3.63 0 0 1-.156-.023 14.446 14.446 0 0 1-.531-.102l-.203.98c.23.047.42.083.57.108.138.023.274.042.375.042v-1Zm-.83-.14a93.422 93.422 0 0 0-2.17-.047v1c.35 0 1.062.015 2.142.046l.029-1Zm-2.17-.047c-2.163 0-4.271.142-6.326.426l.137.99a45.094 45.094 0 0 1 6.189-.416v-1Zm-6.323.426c-1.811.236-3.344.53-4.594.881l.272.963c1.187-.335 2.67-.62 4.452-.853l-.13-.991Zm-4.596.882-.656.188.275.961.656-.188-.275-.961Zm-.518.168c-.025 0-.129-.016-.34-.128a5.534 5.534 0 0 1-.76-.516l-.614.788c.332.26.635.466.904.61.258.138.537.246.81.246v-1Zm-1.132-.668a3.5 3.5 0 0 1-.49-.369.753.753 0 0 1-.06-.066l-.003-.004-.001-.001.003.006a.317.317 0 0 1 .026.126h-1c0 .169.066.307.124.399.06.096.137.182.216.259.158.153.375.315.636.486l.549-.836Zm-.525-.308s0 .019-.009.05a.332.332 0 0 1-.07.124.328.328 0 0 1-.233.115v-1a.676.676 0 0 0-.515.22.727.727 0 0 0-.173.49h1Zm-.383.284.164.023.141-.99-.163-.023-.142.99Zm.091.007c.226.068.51.092.823.092v-1c-.28 0-.45-.024-.536-.05l-.287.958Zm.823.092c.143 0 .466-.03.927-.08.476-.05 1.133-.127 1.97-.229l-.12-.992c-.836.1-1.488.177-1.957.227-.484.052-.743.073-.82.073v1Zm2.905-.31 3.375-.469-.137-.99-3.375.469.137.99Zm3.806-.933a91.94 91.94 0 0 0 .165-4.808l-1-.009a90.802 90.802 0 0 1-.164 4.755l.998.062ZM24 26.137c-.94.117-1.7.224-2.275.319-.562.093-.986.18-1.23.269l.338.94c.147-.052.484-.128 1.055-.223a59.68 59.68 0 0 1 2.236-.313l-.123-.992Zm-3.48.58c-.15.044-.268.076-.357.096-.097.021-.134.023-.132.023v1c.195 0 .476-.072.777-.162l-.288-.958Zm-.489.119c.065 0 .1.017.077.008a.824.824 0 0 1-.087-.04 4.879 4.879 0 0 1-.396-.238l-.547.837c.186.121.349.22.483.29a1.8 1.8 0 0 0 .203.09.785.785 0 0 0 .267.053v-1Zm-.395-.263c-.287-.198-.476-.365-.589-.498-.118-.14-.11-.191-.11-.169h-1c0 .32.161.596.348.816.192.226.46.45.782.673l.57-.822Zm-.698-.667c0 .03-.004.045-.002.033a3.627 3.627 0 0 1 .09-.287l-.942-.336a4.624 4.624 0 0 0-.099.304c-.02.072-.047.18-.047.286h1Zm.11-.335c.03-.177.048-.514.06-.965.011-.467.017-1.097.017-1.887h-1c0 .787-.006 1.407-.017 1.862-.012.47-.03.728-.046.817l.985.173Zm.077-2.852c0-1.042-.13-2.14-.387-3.296l-.976.217c.243 1.094.363 2.12.363 3.079h1Zm-.41-3.373a33.789 33.789 0 0 1-.278-.71 5.295 5.295 0 0 1-.063-.178l-.007-.022-.002-.006v-.002.003l.003.012c0 .005.007.037.007.08h-1c0 .08.02.148.022.158l.026.087c.019.057.045.13.077.217.065.174.16.418.286.732l.928-.371Zm-.34-.823c0-.007.001.01-.012.039a.185.185 0 0 1-.058.07c-.017.013-.022.01.001.005a.596.596 0 0 1 .131-.012v-1c-.23 0-.494.038-.71.192a.84.84 0 0 0-.352.706h1Z"/></svg>