<svg xmlns="http://www.w3.org/2000/svg" width="50" height="50" fill="none"><path fill="#333" d="M27.625 13.813c.266 0 .656.21 1.172.632.484.344.726.703.726 1.078 0 .188-.18.36-.539.516-.28.14-.672.547-1.172 1.219-1.656 2.125-3.406 3.758-5.25 4.898-1.25.766-2.062 1.149-2.437 1.149-.063 0-.094-.04-.094-.117 0-.047.203-.243.61-.586a30.22 30.22 0 0 0 5.672-6.211c.671-.891.984-1.563.937-2.016 0-.375.125-.563.375-.563Zm1.406 5.343c.219 0 .555.14 1.008.422.453.328.68.633.68.914 0 .094-.11.211-.328.352-.157.11-.344.328-.563.656a33.114 33.114 0 0 1-2.86 3.281l.352.282c.453.375.68.656.68.843 0 .063-.031.172-.094.328-.062.235-.093.688-.093 1.36 0 1.172.046 2.367.14 3.586.094 1.297.14 2.289.14 2.976 0 .469-.085.852-.257 1.149-.14.234-.336.351-.586.351-.188 0-.422-.14-.703-.422-.344-.343-.516-.601-.516-.773 0-.25.04-.555.117-.914.11-.531.165-1.703.165-3.516-.032-2.062-.133-3.265-.305-3.61a5.76 5.76 0 0 0-.258-.468 31.863 31.863 0 0 1-1.781 1.477 24.42 24.42 0 0 1-4.219 2.39c-.438.203-.75.305-.938.305 0-.063.18-.258.54-.586 2.562-1.89 4.906-4.148 7.03-6.773 1.25-1.547 1.915-2.578 1.993-3.094.125-.344.344-.516.656-.516Z"/><path fill="#333" d="m28.797 14.445-.317.387.014.011.014.01.289-.408Zm.187 1.594-.199-.459-.012.006-.012.006.223.447Zm-1.172 1.219.395.307.007-.009-.401-.298Zm-5.25 4.898.262.427.002-.002-.264-.425Zm-1.921.446-.32-.386-.003.004.323.382Zm5.672-6.211-.4-.301-.006.008-.007.01.413.283Zm.937-2.016h-.5v.026l.003.025.497-.051Zm2.79 5.203.292-.405-.014-.01-.015-.01-.264.425Zm.35 1.266-.27-.42-.008.005-.008.005.287.41Zm-.562.656.397.304.01-.013.01-.014-.417-.277Zm-2.86 3.281-.353-.353-.395.395.436.349.313-.39Zm.352.282.32-.386-.007-.005-.313.39Zm.586 1.171-.464-.185-.011.027-.008.03.483.128Zm.047 4.946.499-.036v-.003l-.499.039Zm-.117 4.125.429.257.004-.007-.433-.25Zm-1.688-1.758.49.106v-.005l-.49-.101Zm.165-3.516h.5v-.007l-.5.007Zm-.563-4.078.424-.265-.314-.503-.443.395.333.373Zm-1.781 1.477.288.408.008-.006.009-.006-.305-.396Zm-4.219 2.39-.202-.457-.009.004.211.453Zm-.938.305h-.5v.5h.5v-.5Zm.54-.586-.297-.402-.021.015-.02.018.338.37Zm7.03-6.773.39.314-.39-.314Zm1.993-3.094-.47-.171-.017.047-.007.049.494.075Zm-.75-5.36c.012 0 .09.01.255.099.157.085.356.222.6.421l.633-.774a4.967 4.967 0 0 0-.758-.527c-.225-.122-.476-.219-.73-.219v1Zm.883.541c.43.306.515.535.515.67h1c0-.614-.4-1.104-.937-1.485l-.578.815Zm.515.67c0-.083.045-.115.02-.091a.933.933 0 0 1-.258.149l.399.917c.206-.09.4-.2.55-.344a.871.871 0 0 0 .29-.63h-1Zm-.262.069c-.217.108-.432.294-.64.51a9.034 9.034 0 0 0-.71.857l.803.597c.242-.326.451-.578.627-.76.182-.19.303-.278.367-.31l-.447-.894Zm-1.343 1.358c-1.628 2.09-3.336 3.678-5.119 4.781l.527.85c1.904-1.178 3.697-2.855 5.38-5.016l-.788-.615Zm-5.117 4.78c-.617.378-1.116.655-1.498.835-.408.192-.614.24-.678.24v1c.31 0 .699-.144 1.104-.335.43-.203.963-.5 1.595-.887l-.523-.853Zm-2.176 1.075c.08 0 .218.03.32.158.086.107.086.21.086.224h-1c0 .093.017.255.133.4.134.168.32.218.461.218v-1Zm.406.383a.473.473 0 0 1-.062.234l-.017.024c.009-.01.032-.035.078-.08.09-.086.233-.213.434-.383l-.646-.763c-.206.174-.368.317-.481.425a2.148 2.148 0 0 0-.15.158.827.827 0 0 0-.074.101c-.012.02-.082.13-.082.284h1Zm.428-.201a30.722 30.722 0 0 0 5.766-6.313l-.825-.566a29.72 29.72 0 0 1-5.578 6.108l.637.77Zm5.753-6.295c.347-.461.616-.883.792-1.262.173-.372.28-.75.243-1.106l-.994.102c.01.097-.016.282-.156.582-.136.292-.36.652-.684 1.082l.799.602Zm1.038-2.317c0-.068.006-.112.012-.138.005-.026.009-.023-.002-.007a.2.2 0 0 1-.118.08l-.017.002v-1c-.27 0-.53.114-.697.364-.143.214-.178.472-.178.699h1Zm1.281 5.281a.72.72 0 0 1 .223.067c.135.056.308.148.521.28l.528-.85a4.818 4.818 0 0 0-.663-.352 1.616 1.616 0 0 0-.609-.145v1Zm.715.327c.44.32.473.492.473.51h1c0-.547-.421-.983-.887-1.32l-.586.81Zm.473.51a.34.34 0 0 1 .035-.156c.013-.026.023-.035.017-.028a1.379 1.379 0 0 1-.151.114l.541.841c.125-.08.246-.17.341-.273a.738.738 0 0 0 .217-.499h-1Zm-.115-.059c-.237.166-.467.452-.692.789l.832.554c.213-.32.358-.47.433-.524l-.573-.819Zm-.673.762a32.612 32.612 0 0 1-2.816 3.232l.707.707a33.603 33.603 0 0 0 2.903-3.33l-.794-.61Zm-2.775 3.976.352.28.625-.78-.352-.281-.625.78Zm.346.276c.214.177.355.317.439.42.04.052.06.084.066.098.008.015-.007-.008-.007-.06h1c0-.274-.153-.506-.28-.665a4.155 4.155 0 0 0-.58-.564l-.639.77Zm.498.458c0-.023.003-.036.002-.034l-.006.026c-.01.032-.026.082-.054.15l.928.372c.035-.087.065-.17.087-.248a.983.983 0 0 0 .043-.266h-1Zm-.077.2c-.082.306-.11.823-.11 1.488h1c0-.68.033-1.069.076-1.23l-.966-.259Zm-.11 1.488c0 1.185.047 2.393.142 3.624l.997-.077a46.208 46.208 0 0 1-.14-3.547h-1Zm.141 3.622c.094 1.293.14 2.271.14 2.94h1c0-.706-.048-1.712-.142-3.012l-.998.072Zm.14 2.94c0 .412-.076.7-.19.898l.865.501c.229-.396.325-.873.325-1.399h-1Zm-.187.891c-.06.101-.102.11-.157.11v1c.445 0 .794-.227 1.015-.595l-.858-.515Zm-.157.11c.03 0 .014.009-.06-.035a1.611 1.611 0 0 1-.29-.241l-.707.707c.158.158.32.293.483.392.162.096.357.176.574.176v-1Zm-.35-.276a2.653 2.653 0 0 1-.324-.375c-.07-.104-.045-.11-.045-.045h-1c0 .236.11.446.213.6.112.167.266.343.45.527l.706-.707Zm-.369-.42c0-.202.032-.469.106-.808l-.977-.212a4.91 4.91 0 0 0-.129 1.02h1Zm.107-.813c.122-.591.174-1.817.174-3.617h-1c0 1.826-.056 2.943-.153 3.415l.98.202Zm.174-3.624a37.905 37.905 0 0 0-.1-2.484 8.976 8.976 0 0 0-.096-.786 2.105 2.105 0 0 0-.161-.556l-.894.447.002.006a2.29 2.29 0 0 1 .068.277c.03.173.059.403.084.696.049.585.082 1.388.098 2.415l1-.015Zm-.357-3.826a6.237 6.237 0 0 0-.281-.51l-.848.53c.067.107.145.249.235.427l.894-.447Zm-1.038-.618a31.38 31.38 0 0 1-1.753 1.453l.61.793a32.39 32.39 0 0 0 1.809-1.5l-.666-.746Zm-1.737 1.441a23.912 23.912 0 0 1-4.132 2.342l.404.915a24.92 24.92 0 0 0 4.305-2.44l-.577-.817Zm-4.14 2.346a4.7 4.7 0 0 1-.507.206.89.89 0 0 1-.22.052v1c.17 0 .355-.044.529-.1.182-.06.39-.145.619-.251l-.422-.907Zm-.227.758a.43.43 0 0 1-.04.183c-.01.023-.019.034-.017.031a.819.819 0 0 1 .06-.069c.074-.081.197-.2.373-.362l-.675-.738c-.183.167-.33.31-.435.423a1.713 1.713 0 0 0-.143.174.793.793 0 0 0-.068.116.57.57 0 0 0-.055.242h1Zm.335-.184c2.6-1.917 4.973-4.205 7.123-6.86l-.777-.63c-2.1 2.594-4.413 4.822-6.94 6.686l.594.804Zm7.124-6.861c.63-.78 1.12-1.44 1.467-1.977.332-.516.574-.982.63-1.356l-.988-.15c-.022.142-.151.449-.483.964-.318.495-.784 1.123-1.404 1.89l.778.629Zm2.073-3.237c.04-.111.08-.152.097-.165.01-.008.03-.022.09-.022v-1c-.255 0-.5.072-.708.236a1.339 1.339 0 0 0-.419.609l.94.342Z"/></svg>