<svg xmlns="http://www.w3.org/2000/svg" width="50" height="50" fill="none"><path fill="#333" d="m20.523 16.367.563.094.633.07c.39 0 1.75-.054 4.078-.164 2.906-.234 4.531-.453 4.875-.656.312-.188.547-.281.703-.281.172 0 .445.18.82.539.453.437.68.75.68.937 0 .188-.102.414-.305.68-.234.266-.476.89-.726 1.875-.313.984-.469 1.508-.469 1.57 0 .078.023.219.07.422.078.188.117.328.117.422 0 .375-.64.586-1.921.633-2.688.11-5.11.375-7.266.797-.14 2.03-.54 3.875-1.195 5.53a11.669 11.669 0 0 1-2.414 3.798c-.782.828-1.328 1.242-1.641 1.242-.063 0-.094-.031-.094-.094l.164-.21c.735-.798 1.453-2.118 2.157-3.962.703-1.812 1.054-3.453 1.054-4.922 0-.859-.086-1.625-.258-2.296-.14-.313-.21-.516-.21-.61 0-.234.156-.351.468-.351.14 0 .453.054.938.164.578.125.922.187 1.031.187l6.469-.656c.703-.11 1.14-.57 1.312-1.383.188-.937.282-1.601.282-1.992 0-.234-.22-.352-.657-.352-3.078.157-5.515.375-7.312.657l-.469.07c-.234 0-.57-.21-1.008-.633-.453-.453-.68-.773-.68-.96 0-.11.07-.165.211-.165Z"/><path fill="#333" d="m20.523 16.367.083-.493-.041-.007h-.042v.5Zm.563.094-.082.493.013.002.014.002.055-.497Zm.633.07-.056.497.028.003h.028v-.5Zm4.078-.164.023.5h.009l.008-.001-.04-.499Zm4.875-.656.254.43.003-.001-.257-.43Zm1.523.258.348-.36-.002-.001-.346.36Zm.375 1.617.375.33.012-.012.01-.014-.397-.304Zm-.726 1.875.476.151.005-.014.003-.014-.484-.123Zm-.399 1.992-.487.113.01.04.016.04.461-.193Zm-1.804 1.055-.019-.5h-.002l.02.5Zm-7.266.797-.096-.491-.376.074-.027.382.499.035Zm-1.195 5.53.464.186-.464-.185Zm-2.414 3.798-.362-.346-.002.003.364.343ZM17.03 33.78l-.394-.307-.106.136v.171h.5Zm.164-.21-.367-.34-.014.016-.013.016.394.307Zm2.157-3.962-.467-.18v.002l.467.178Zm.796-7.218.485-.124-.01-.042-.019-.04-.456.206Zm1.196-.797-.11.487.004.002.106-.49Zm1.031.187v.5h.025l.026-.002-.051-.498Zm6.469-.656.05.497h.014l.013-.003-.077-.494Zm1.312-1.383.49.104v-.006l-.49-.098Zm-.375-2.344v-.5h-.012l-.013.001.025.5Zm-7.312.657.074.494h.003l-.077-.494Zm-.469.07v.5h.037l.037-.006-.074-.494Zm-1.008-.633-.353.354.006.006.347-.36Zm-.55-.632.562.094.164-.986-.562-.094-.165.986Zm.589.098.633.07.11-.994-.633-.07-.11.994Zm.688.073c.405 0 1.78-.055 4.101-.164l-.047-1c-2.335.11-3.679.164-4.054.164v1Zm4.118-.165c1.456-.118 2.6-.232 3.425-.343.412-.056.753-.111 1.017-.168.242-.052.483-.117.647-.214l-.508-.86c.006-.004-.015.008-.084.03-.064.02-.15.042-.265.066-.228.05-.54.1-.94.155-.8.107-1.922.22-3.372.337l.08.997Zm5.092-.726c.143-.086.255-.142.339-.176.09-.036.12-.034.107-.034v-1a1.31 1.31 0 0 0-.479.106 3.44 3.44 0 0 0-.481.246l.514.858Zm.446-.21c-.041 0-.057-.01-.04-.003a.607.607 0 0 1 .1.055c.1.067.238.178.414.348l.692-.722a4.08 4.08 0 0 0-.557-.461c-.156-.103-.371-.217-.609-.217v1Zm.473.398c.217.21.364.374.452.497a.777.777 0 0 1 .077.124c.011.025-.002.007-.002-.043h1c0-.264-.144-.5-.265-.668-.138-.19-.331-.4-.567-.629l-.695.72Zm.527.578c0 .02-.02.137-.202.376l.794.608c.224-.293.408-.63.408-.984h-1Zm-.18.35c-.177.2-.321.49-.448.817-.131.338-.26.762-.388 1.265l.97.246c.122-.482.239-.863.35-1.15.115-.297.209-.452.266-.517l-.75-.662Zm-.828 2.054c-.156.493-.274.873-.354 1.139a11.764 11.764 0 0 0-.119.43c-.003.014-.019.081-.019.152h1c0 .055-.011.093-.004.063a11.134 11.134 0 0 1 .1-.359c.077-.258.193-.631.35-1.123l-.954-.302Zm-.492 1.721c0 .143.037.336.083.535l.975-.225a3.843 3.843 0 0 1-.047-.228c-.01-.061-.011-.084-.011-.082h-1Zm.109.614c.034.082.055.144.067.188.014.048.012.058.012.042h1c0-.2-.075-.42-.156-.614l-.923.384Zm.078.23c0-.171.16-.133-.136-.035-.252.082-.676.145-1.304.168l.037 1c.653-.024 1.19-.09 1.58-.219.344-.113.823-.368.823-.914h-1Zm-1.442.133c-2.707.11-5.155.378-7.341.806l.192.981c2.127-.416 4.523-.679 7.19-.788l-.04-.999Zm-7.744 1.262c-.137 1.987-.526 3.78-1.161 5.382l.93.368c.677-1.71 1.085-3.605 1.229-5.68l-.998-.07Zm-1.16 5.381a11.17 11.17 0 0 1-2.312 3.636l.723.691a12.17 12.17 0 0 0 2.517-3.957l-.929-.37Zm-2.314 3.639c-.382.405-.693.693-.934.876-.121.091-.214.148-.282.18-.072.036-.087.029-.061.029v1c.182 0 .352-.058.495-.127.147-.071.299-.17.451-.285.306-.231.66-.564 1.058-.987l-.727-.686Zm-1.277 1.085c.046 0 .172.012.283.123a.407.407 0 0 1 .123.283h-1c0 .109.028.282.17.424.143.143.316.17.424.17v-1Zm.3.713.165-.21-.79-.615-.163.211.789.614Zm.138-.179c.8-.867 1.546-2.259 2.256-4.121l-.935-.357c-.696 1.825-1.387 3.074-2.056 3.8l.735.678Zm2.255-4.119c.718-1.852 1.088-3.555 1.088-5.102h-1c0 1.39-.333 2.968-1.02 4.74l.932.362Zm1.088-5.102c0-.892-.089-1.7-.273-2.421l-.969.248c.16.623.242 1.345.242 2.172h1Zm-.302-2.503a4.403 4.403 0 0 1-.141-.345.919.919 0 0 1-.026-.083c-.004-.02 0-.008 0 .024h-1c0 .139.045.283.08.387.043.12.102.265.175.428l.912-.41Zm-.166-.404c0-.003 0 .017-.014.05a.225.225 0 0 1-.07.087c-.025.018-.04.02-.032.019a.375.375 0 0 1 .084-.007v-1c-.204 0-.448.035-.651.188a.807.807 0 0 0-.317.663h1Zm-.032.149c.074 0 .327.038.828.151l.22-.975c-.469-.106-.84-.176-1.048-.176v1Zm.832.152c.291.063.528.112.708.144.162.03.321.055.429.055v-1c.009 0-.005 0-.058-.007a4.725 4.725 0 0 1-.192-.032c-.164-.03-.389-.075-.676-.137l-.21.977Zm1.188.197 6.468-.657-.1-.994-6.47.656.101.995Zm6.495-.66c.447-.07.837-.257 1.14-.578.3-.315.485-.726.584-1.195l-.978-.207c-.073.343-.192.568-.33.714a.95.95 0 0 1-.57.278l.154.988Zm1.726-1.779c.187-.936.29-1.645.29-2.09h-1c0 .336-.083.956-.271 1.894l.98.196Zm.29-2.09a.784.784 0 0 0-.428-.704c-.218-.117-.48-.148-.728-.148v1c.089 0 .154.006.2.015.046.008.06.017.056.014a.192.192 0 0 1-.065-.067.217.217 0 0 1-.035-.11h1Zm-1.181-.85c-3.085.156-5.543.376-7.365.66l.155.989c1.772-.278 4.19-.495 7.26-.651l-.05-.999Zm-7.361.66-.47.07.15.99.468-.07-.148-.99Zm-.395.065c.021 0-.025.005-.162-.082a3.276 3.276 0 0 1-.499-.41l-.694.72c.232.223.453.406.661.537.2.125.438.235.694.235v-1Zm-.654-.486a4.3 4.3 0 0 1-.455-.516.83.83 0 0 1-.08-.13c-.012-.028.002-.01.002.038h-1c0 .262.141.5.261.67.137.193.329.409.565.645l.707-.707Zm-.534-.608a.322.322 0 0 1-.027.125.373.373 0 0 1-.113.147c-.09.07-.168.064-.149.064v-1a.748.748 0 0 0-.465.146.645.645 0 0 0-.245.518h1Z"/></svg>