<svg xmlns="http://www.w3.org/2000/svg" width="50" height="50" fill="none"><path fill="#333" d="M18.438 16.813c.453 0 .828.117 1.125.351 3.171-.312 5.828-.648 7.968-1.008 1.453-.25 2.235-.375 2.344-.375.375 0 .898.313 1.57.938.453.406.68.718.68.937 0 .11-.11.446-.328 1.008-.219.484-.328 1.117-.328 1.898 0 1.579.047 3.57.14 5.977.094 2.766.141 4.43.141 4.992 0 .453-.18.969-.54 1.547-.233.406-.491.61-.773.61-.234 0-.515-.22-.843-.657-.313-.422-.688-.633-1.125-.633-2.688 0-5.063.149-7.125.446-.703.125-1.14.187-1.313.187-.203 0-.515-.156-.937-.468-.438-.313-.657-.594-.657-.844l.047-1.078c.032-.922.047-3.844.047-8.766 0-1.313-.156-2.43-.468-3.352-.125-.453-.188-.742-.188-.867 0-.562.188-.843.563-.843Zm2.25 14.343 8.156-.468c.453 0 .68-.375.68-1.125l.257-10.688c0-.563-.078-.96-.234-1.195-.156-.188-.39-.282-.703-.282-.985 0-2.899.274-5.742.82-1.672.313-2.602.47-2.79.47h-.07l-.07.257c-.156.657-.235 2.602-.235 5.836 0 3.453.055 5.399.165 5.836.093.36.289.54.585.54Zm1.875-8.789c.406 0 1.265.555 2.578 1.664 1.156 1.047 1.734 1.836 1.734 2.367 0 .344-.094.68-.281 1.008-.172.25-.328.375-.469.375-.266 0-.5-.195-.703-.586-.875-1.656-1.633-2.93-2.274-3.82l-.585-.914v-.094Z"/><path fill="#333" d="m19.563 17.164-.31.392.158.125.2-.02-.049-.497Zm7.968-1.008.083.493h.002l-.085-.493Zm3.914.563-.34.366.006.006.334-.372Zm.352 1.945.456.206.005-.012.005-.013-.466-.18Zm-.188 7.875.5-.017v-.002l-.5.02Zm-.398 6.54-.425-.265-.004.007-.004.007.433.25Zm-1.617-.048-.402.298.002.002.4-.3Zm-8.25-.187-.072-.495-.008.001-.008.002.088.492Zm-2.25-.282.297-.401-.007-.005-.29.407Zm-.657-.843-.499-.022v.022h.5Zm.047-1.078.5.021v-.004l-.5-.017Zm-.422-12.118-.482.133.004.014.005.014.474-.16Zm2.625 12.633v.5H20.716l-.029-.5Zm8.157-.468v-.5H28.815l.029.5Zm.68-1.125-.5-.013v.012h.5Zm.257-10.688.5.012v-.012h-.5Zm-.234-1.195.416-.278-.015-.022-.017-.02-.384.32Zm-6.445.539.091.491h.003l-.094-.491Zm-2.86.468v-.5h-.382l-.1.369.482.131Zm-.07.258-.483-.131-.002.008-.002.008.487.115Zm-.07 11.672-.486.121.002.005.484-.126Zm2.46-8.25v-.5h-.5v.5h.5Zm2.579 1.664.335-.37-.006-.006-.007-.006-.322.382Zm1.453 3.375.412.284.012-.018.01-.018-.434-.248Zm-1.172-.21.444-.231-.002-.003-.442.233Zm-2.274-3.821-.42.27.007.011.008.011.405-.292Zm-.585-.914h-.5v.146l.079.124.42-.27Zm-4.125-5.148c.363 0 .623.092.815.244l.62-.785c-.402-.317-.893-.46-1.436-.46v1Zm1.174.349c3.178-.313 5.846-.65 8.002-1.013l-.166-.986c-2.125.357-4.77.692-7.934 1.003l.098.996Zm8.004-1.013c.726-.125 1.282-.218 1.67-.28l.45-.07c.125-.017.155-.018.139-.018v-1c-.07 0-.18.015-.277.028-.116.017-.273.04-.47.072-.393.063-.954.157-1.681.283l.169.985Zm2.259-.368c.057 0 .19.028.418.164.22.131.49.34.812.64l.68-.732a6.049 6.049 0 0 0-.98-.767c-.296-.176-.612-.305-.93-.305v1Zm1.236.81c.214.191.355.344.44.46.093.129.074.155.074.105h1c0-.268-.132-.508-.265-.692a4.112 4.112 0 0 0-.58-.617l-.669.744Zm.514.565c0-.036.006-.044-.006.006-.01.039-.026.096-.052.173-.05.155-.128.37-.236.648l.932.362c.11-.284.197-.52.255-.7.03-.09.054-.173.072-.245.015-.062.035-.153.035-.244h-1Zm-.284.802c-.258.572-.372 1.283-.372 2.105h1c0-.741.104-1.296.284-1.693l-.912-.412Zm-.372 2.105c0 1.587.047 3.586.14 5.995l1-.038a158.27 158.27 0 0 1-.14-5.957h-1Zm.14 5.993c.095 2.77.141 4.423.141 4.975h1c0-.573-.047-2.248-.14-5.009l-1 .034Zm.141 4.975c0 .324-.13.747-.464 1.283l.85.528c.385-.62.614-1.229.614-1.81h-1Zm-.472 1.297c-.207.359-.334.36-.34.36v1c.556 0 .944-.406 1.206-.86l-.866-.5Zm-.34.36c.038 0 .016.016-.08-.06a2.136 2.136 0 0 1-.364-.397l-.8.6c.178.238.36.44.55.587.185.144.42.27.694.27v-1Zm-.442-.454c-.386-.52-.899-.836-1.527-.836v1c.246 0 .483.108.723.43l.803-.594Zm-1.527-.836c-2.705 0-5.105.15-7.197.45l.143.99c2.033-.292 4.384-.44 7.054-.44v-1Zm-7.213.454c-.72.128-1.107.18-1.225.18v1c.227 0 .715-.074 1.4-.196l-.175-.984Zm-1.225.18c.013 0-.033 0-.163-.065-.12-.06-.279-.16-.477-.306l-.595.803c.224.166.433.302.625.397.182.092.394.17.61.17v-1Zm-.647-.376a1.888 1.888 0 0 1-.388-.346c-.07-.089-.058-.116-.058-.091h-1c0 .275.12.513.269.705.15.193.356.374.596.545l.581-.813Zm-.447-.415.047-1.079-1-.043-.046 1.078.999.044Zm.047-1.083c.032-.933.047-3.866.047-8.783h-1c0 4.927-.015 7.837-.046 8.749l1 .034Zm.047-8.783c0-1.35-.16-2.524-.495-3.512l-.947.321c.29.856.442 1.915.442 3.191h1Zm-.486-3.485a10.143 10.143 0 0 1-.134-.529 2.65 2.65 0 0 1-.03-.155c-.006-.041-.006-.055-.006-.05h-1c0 .121.027.271.058.417.034.157.084.352.148.583l.963-.265Zm-.17-.734c0-.241.043-.335.057-.355.002-.004-.004.005-.017.011-.011.006-.008 0 .023 0v-1a.972.972 0 0 0-.838.434c-.174.261-.225.59-.225.91h1Zm2.341 14 8.156-.47-.057-.998-8.156.47.057.997Zm8.128-.468c.394 0 .73-.18.938-.523.183-.303.241-.694.241-1.102h-1c0 .34-.054.513-.097.585a.136.136 0 0 1-.02.026.028.028 0 0 1-.006.005c-.001 0-.004.003-.012.004a.193.193 0 0 1-.044.005v1Zm1.18-1.613.257-10.688-1-.024-.257 10.687 1 .025Zm.257-10.7c0-.58-.075-1.108-.318-1.473l-.832.555c.069.104.15.373.15.918h1Zm-.35-1.515c-.277-.332-.671-.462-1.087-.462v1c.209 0 .283.059.319.102l.768-.64Zm-1.087-.462c-1.04 0-3 .284-5.837.83l.189.982c2.851-.549 4.719-.812 5.648-.812v-1Zm-5.834.83c-.835.155-1.482.272-1.943.35a20.68 20.68 0 0 1-.701.105l-.053.005v1c.087 0 .215-.016.349-.035.146-.02.337-.05.571-.09.47-.078 1.123-.196 1.96-.353l-.183-.983Zm-2.698.46h-.07v1h.07v-1Zm-.552.368-.07.258.964.263.07-.258-.964-.263Zm-.075.273c-.09.383-.15 1.082-.188 2.047-.04.983-.06 2.285-.06 3.905h1c0-1.614.02-2.901.059-3.864.039-.98.097-1.582.162-1.856l-.973-.232Zm-.247 5.952c0 1.729.013 3.084.04 4.063.014.49.032.89.053 1.197.02.294.046.54.085.697l.97-.242a3.905 3.905 0 0 1-.057-.524c-.02-.288-.037-.673-.05-1.156-.028-.966-.041-2.31-.041-4.035h-1Zm.18 5.962c.062.237.17.47.362.647.201.184.45.266.707.266v-1c-.011 0-.02 0-.024-.002l-.008-.001h.002c0 .001 0 .002 0 0-.004-.003-.04-.04-.072-.162l-.967.252Zm2.945-7.876c-.005 0 .009 0 .044.01.035.009.082.025.144.052.126.055.288.144.49.274.403.26.928.661 1.577 1.21l.645-.764c-.663-.56-1.224-.992-1.68-1.286a4.611 4.611 0 0 0-.63-.35 1.508 1.508 0 0 0-.59-.146v1Zm2.242 1.535c.566.512.972.946 1.233 1.302.272.371.337.593.337.694h1c0-.43-.224-.868-.53-1.285-.317-.433-.778-.918-1.369-1.452l-.671.74Zm1.57 1.996c0 .249-.067.5-.215.76l.868.496c.226-.396.347-.816.347-1.256h-1Zm-.193.725a.85.85 0 0 1-.147.174c-.026.021.007-.016.09-.016v1c.223 0 .405-.099.535-.203.13-.105.245-.242.346-.389l-.824-.566Zm-.057.158c-.003 0-.006 0-.011-.002a.163.163 0 0 1-.044-.028.937.937 0 0 1-.204-.286l-.888.461c.23.44.593.855 1.147.855v-1Zm-.261-.32c-.88-1.664-1.65-2.96-2.31-3.878l-.811.584c.62.863 1.366 2.114 2.237 3.762l.884-.467Zm-2.295-3.856-.586-.914-.841.54.585.914.842-.54Zm-.506-.644v-.094h-1v.094h1Z"/></svg>