<svg xmlns="http://www.w3.org/2000/svg" width="50" height="50" fill="none"><path fill="#333" d="M30.344 15.219c.406 0 .937.265 1.593.797.75.625 1.125 1.054 1.125 1.289 0 .047-.109.21-.328.492-.343.437-.68 1.586-1.007 3.445-.454 2.375-1.094 4.086-1.922 5.133-.47.563-.946.844-1.43.844-.297 0-.79-.29-1.477-.867-.64-.579-.96-.946-.96-1.102 0-.063.03-.094.093-.094.11 0 .336.047.68.14.36.11.695.165 1.008.165.531 0 .945-.18 1.242-.54.203-.233.469-1.108.797-2.624.453-1.922.68-3.375.68-4.36 0-.562-.25-.843-.75-.843-.438 0-2.282.281-5.532.843l-.75.165v6.539c0 3.015.04 4.851.117 5.507.047.735.07 1.29.07 1.665 0 .671-.1 1.273-.304 1.804-.187.5-.367.75-.539.75-.266 0-.563-.265-.89-.797-.344-.562-.516-1.023-.516-1.383 0-.203.031-.437.093-.703.094-.422.172-.867.235-1.336.156-1.656.234-3.562.234-5.718 0-1.922-.047-3.914-.14-5.977l-.938.164c-.875.235-1.422.352-1.64.352-.407 0-.922-.188-1.547-.563-.594-.375-.891-.68-.891-.914 0-.125.125-.187.375-.187a8.69 8.69 0 0 0 1.688.187c.875 0 2.687-.258 5.437-.773 2.625-.5 4.344-.875 5.156-1.125.438-.25.75-.375.938-.375Z"/><path fill="#333" d="m31.938 16.016.32-.384-.006-.005-.315.389Zm.796 1.78.393.31.002-.002-.395-.307Zm-1.007 3.446.49.094.002-.007-.492-.087Zm-1.922 5.133.384.32.008-.01-.392-.31Zm-2.907-.023-.334.37.006.007.007.005.321-.382Zm-.187-1.055.146-.479-.008-.002-.006-.002-.132.483Zm2.25-.375-.378-.328-.007.01.385.318Zm.797-2.625-.487-.115-.002.01.489.105Zm-5.602-4.36-.085-.492-.01.002-.012.002.107.488Zm-.75.165-.107-.489-.393.086v.403h.5Zm.117 12.046.5-.031-.001-.014-.002-.014-.497.06Zm-.234 3.47-.467-.18-.001.004.468.175Zm-1.43-.048-.426.261.001.002.425-.263Zm-.422-2.086.487.115.002-.006-.488-.109Zm.235-1.336.495.067.002-.01v-.01l-.497-.047Zm.094-11.695.5-.023-.027-.567-.56.098.087.492Zm-.938.164-.086-.492-.022.003-.021.006.13.483Zm-3.187-.21-.267.422.01.006.257-.429Zm-.516-1.102.098-.49-.049-.01h-.049v.5Zm7.125-.586.092.491h.002l-.094-.491Zm5.156-1.125.147.478.053-.017.048-.027-.248-.434Zm.938.125c.22 0 .632.162 1.279.685l.63-.777c-.667-.539-1.317-.908-1.91-.908v1Zm1.273.68c.367.306.625.55.787.736.082.093.129.16.153.203.028.05.005.032.005-.033h1a.942.942 0 0 0-.134-.459 2.287 2.287 0 0 0-.27-.368 8.168 8.168 0 0 0-.9-.847l-.64.769Zm.945.906a.456.456 0 0 1 .035-.172l.001-.001-.002.004a.394.394 0 0 1-.032.05 5.598 5.598 0 0 1-.224.304l.79.614c.111-.144.202-.267.267-.364.031-.047.063-.098.089-.148a.802.802 0 0 0 .042-.095.571.571 0 0 0 .035-.192h-1Zm-.22.183c-.236.3-.427.777-.597 1.358-.175.599-.345 1.37-.51 2.31l.984.173c.162-.92.325-1.653.486-2.202.165-.567.314-.883.422-1.021l-.786-.618Zm-1.107 3.66c-.448 2.35-1.07 3.966-1.822 4.917l.784.62c.904-1.142 1.563-2.95 2.02-5.35l-.982-.187Zm-1.814 4.907c-.424.508-.773.664-1.046.664v1c.696 0 1.3-.407 1.814-1.024l-.768-.64Zm-1.046.664c.003 0-.023 0-.087-.024a1.605 1.605 0 0 1-.252-.124 6.31 6.31 0 0 1-.816-.602l-.643.765c.354.298.673.535.953.7.264.154.558.285.845.285v-1Zm-1.142-.739a8.552 8.552 0 0 1-.678-.666 1.381 1.381 0 0 1-.131-.168c-.03-.05.014-.002.014.104h-1c0 .184.083.336.133.418.06.099.14.201.23.303.18.206.437.458.763.752l.67-.743Zm-.796-.73a.408.408 0 0 1-.123.283.407.407 0 0 1-.283.123v-1a.594.594 0 0 0-.424.17.594.594 0 0 0-.17.424h1Zm-.406.406.035.004c.028.004.066.01.116.021.1.02.23.053.397.098l.264-.965a7.8 7.8 0 0 0-.459-.112 1.835 1.835 0 0 0-.353-.046v1Zm.534.12c.398.12.783.185 1.154.185v-1c-.255 0-.541-.045-.863-.142l-.29.956Zm1.154.185c.657 0 1.222-.23 1.627-.72l-.77-.638c-.189.228-.452.358-.857.358v1Zm1.62-.712c.104-.12.183-.278.247-.428.068-.161.136-.358.205-.586.139-.456.29-1.069.456-1.832l-.978-.212a23.414 23.414 0 0 1-.435 1.754c-.064.21-.12.37-.17.486-.053.127-.083.166-.08.163l.755.655Zm.905-2.837c.456-1.93.694-3.43.694-4.474h-1c0 .924-.216 2.33-.667 4.244l.973.23Zm.694-4.474c0-.345-.076-.697-.314-.965-.249-.28-.593-.38-.936-.38v1c.156 0 .187.042.188.044.012.013.061.083.061.3h1Zm-1.25-1.344c-.266 0-.88.078-1.787.216-.927.142-2.204.353-3.83.635l.17.985a204.89 204.89 0 0 1 3.811-.631c.938-.143 1.464-.205 1.636-.205v-1Zm-5.639.855-.75.164.214.977.75-.164-.214-.977Zm-1.143.653v6.539h1V18.1h-1Zm0 6.539c0 3.002.038 4.874.12 5.567l.994-.119c-.074-.62-.114-2.419-.114-5.448h-1Zm.119 5.54c.046.731.069 1.273.069 1.631h1c0-.39-.024-.958-.072-1.695l-.997.063Zm.069 1.631c0 .622-.094 1.162-.272 1.627l.934.357c.229-.598.338-1.261.338-1.983h-1Zm-.273 1.63a2.058 2.058 0 0 1-.213.446c-.026.035-.033.036-.017.025a.281.281 0 0 1 .159-.046v1c.34 0 .558-.24.67-.395.127-.178.237-.413.337-.68l-.936-.35Zm-.071.425c.04 0 .013.019-.088-.072a2.27 2.27 0 0 1-.377-.487l-.851.525c.177.286.362.53.56.708.196.175.451.326.756.326v-1Zm-.464-.557c-.33-.54-.442-.904-.442-1.123h-1c0 .5.231 1.059.589 1.644l.853-.521Zm-.442-1.123c0-.154.024-.348.08-.588l-.973-.23a3.61 3.61 0 0 0-.107.819h1Zm.082-.594c.097-.437.177-.897.242-1.378l-.992-.133c-.06.456-.136.887-.227 1.294l.977.217Zm.244-1.398c.158-1.675.236-3.598.236-5.765h-1c0 2.145-.078 4.035-.232 5.672l.996.093Zm.236-5.765c0-1.93-.047-3.93-.14-6l-1 .046c.094 2.055.14 4.04.14 5.954h1Zm-.727-6.47-.937.165.172.985.938-.164-.173-.985Zm-.98.174c-.434.116-.78.202-1.042.258-.276.06-.42.077-.47.077v1c.17 0 .409-.041.68-.1.285-.06.65-.15 1.09-.269l-.258-.966Zm-1.512.335c-.268 0-.689-.131-1.29-.492l-.514.858c.65.39 1.261.634 1.805.634v-1Zm-1.28-.486a3.275 3.275 0 0 1-.576-.435c-.125-.128-.081-.141-.081-.056h-1c0 .32.192.577.364.753.188.193.448.387.76.584l.534-.846Zm-.657-.49a.357.357 0 0 1-.183.306c-.026.013-.038.013-.024.01a.533.533 0 0 1 .082-.004v-1c-.15 0-.338.016-.505.1a.644.644 0 0 0-.37.588h1Zm-.223.302c.649.13 1.245.197 1.785.197v-1c-.459 0-.988-.057-1.589-.178l-.196.981Zm1.785.197c.93 0 2.79-.268 5.53-.782l-.184-.983c-2.76.518-4.525.765-5.346.765v1Zm5.532-.782c2.62-.499 4.366-.879 5.21-1.138l-.295-.956c-.781.24-2.472.61-5.103 1.112l.188.982Zm5.31-1.182c.208-.119.373-.2.5-.251.137-.055.192-.058.19-.058v-1c-.19 0-.385.059-.56.13-.186.073-.396.18-.626.31l.496.869Z"/></svg>