<svg xmlns="http://www.w3.org/2000/svg" width="50" height="50" fill="none"><path fill="#333" d="M24.063 14.656c.343 0 .734.133 1.171.399.47.297.703.57.703.82 0 .094-.07.25-.21.469-.141.203-.25.633-.329 1.289L25 20.258c1.063-.125 2.188-.242 3.375-.352 1.438-.187 2.313-.367 2.625-.539.25-.14.438-.21.563-.21.28 0 .742.218 1.382.655.578.438.867.75.867.938a.651.651 0 0 1-.046.281.318.318 0 0 1-.235.094l-.586-.023a16.875 16.875 0 0 0-1.758-.07c-1.75 0-3.882.187-6.398.562l-.422 2.883-.023.398c0 .39.156.586.468.586.157 0 .352-.023.586-.07 1.25-.125 2.415-.25 3.493-.375.25-.032.578-.047.984-.047.484 0 .977.148 1.477.445.515.344.773.64.773.89 0 .235-.29.954-.867 2.157a13.376 13.376 0 0 1-3.094 4.125 10.18 10.18 0 0 1-3.82 2.133c-.063 0-.094-.032-.094-.094 0-.094.172-.32.516-.68a25.948 25.948 0 0 0 4.5-5.39c.593-1 .89-1.664.89-1.992 0-.25-.125-.375-.375-.375-.437 0-1.375.093-2.812.28-1.282.141-2.227.29-2.836.446-.375.078-.617.117-.727.117-.156 0-.36-.11-.61-.328-.28-.265-.421-.469-.421-.61 0-.124.063-.312.188-.562.25-.672.5-1.797.75-3.375l.046-.351c-2.125.328-3.648.672-4.57 1.03-.406.173-.68.259-.82.259-.235 0-.657-.258-1.266-.774-.344-.328-.515-.539-.515-.633 0-.171.062-.257.187-.257.656 0 1.406-.032 2.25-.094 1.438-.328 3.07-.61 4.898-.844.11-1.187.165-2.414.165-3.68v-1.476c0-.453.125-.68.375-.68Z"/><path fill="#333" d="m25.234 15.055.268-.423-.008-.005-.26.428Zm.493 1.289.41.284.005-.007.005-.007-.42-.27Zm-.329 1.289.495.075.001-.008v-.008l-.496-.06ZM25 20.258l-.494-.075-.099.648.651-.077-.058-.496Zm3.375-.352.046.498h.01l.009-.002-.065-.496ZM31 19.367l.241.438.004-.002-.245-.436Zm1.945.445.302-.398-.01-.008-.01-.006-.282.413Zm.82 1.22.354.353.058-.058.036-.072-.447-.224Zm-.234.093-.02.5h.02v-.5Zm-.586-.023-.055.497.018.002h.017l.02-.5Zm-8.156.492-.074-.495-.367.055-.054.367.495.073Zm-.422 2.883-.495-.073-.003.022v.021l.498.03Zm-.023.398-.5-.03v.03h.5Zm1.054.516-.05-.498-.024.002-.024.005.098.49Zm3.493-.375.057.496h.005l-.062-.496Zm2.46.398.278-.416-.01-.007-.012-.007-.255.43Zm-.093 3.047.45.218v-.002l-.45-.216Zm-3.094 4.125.33.376.005-.005-.335-.371Zm-3.82 2.133v.5h.073l.07-.021-.143-.48Zm.422-.774-.337-.37-.013.012-.012.013.362.345Zm4.5-5.39.423.267.007-.012-.43-.255Zm-2.297-2.086.054.497.01-.001-.064-.496Zm-2.836.445.102.49.011-.003.011-.003-.124-.484Zm-1.336-.21-.343.363.006.006.008.006.329-.376Zm-.235-1.173.448.224.012-.024.01-.025-.47-.175Zm.75-3.375.494.079.002-.013-.495-.066Zm.047-.351.496.066.088-.662-.66.102.076.494Zm-4.57 1.03-.181-.465-.007.003-.007.002.195.46Zm-2.086-.515-.345.362.01.01.012.01.323-.382Zm1.922-.984.037.499.038-.003.036-.009-.111-.487Zm4.898-.844.064.496.398-.05.036-.4-.498-.046Zm.54-5.336c.218 0 .517.086.912.326l.519-.855c-.48-.291-.962-.47-1.431-.47v1Zm.904.321c.212.135.343.246.415.33.073.086.055.105.055.068h1c0-.287-.134-.53-.296-.718a2.842 2.842 0 0 0-.64-.525l-.534.845Zm.47.398a.275.275 0 0 1 .005-.05v-.003h.001v.002l-.003.007a1.771 1.771 0 0 1-.134.242l.841.541c.078-.12.145-.237.194-.346a.974.974 0 0 0 .096-.393h-1Zm-.122.184c-.12.175-.2.402-.26.636a7.005 7.005 0 0 0-.153.879l.993.118c.038-.316.081-.564.129-.75a1.11 1.11 0 0 1 .114-.314l-.823-.569Zm-.41 1.499-.4 2.625.99.15.398-2.625-.989-.15Zm.153 3.196c1.058-.124 2.18-.24 3.363-.35l-.092-.996c-1.191.11-2.32.228-3.387.353l.116.993Zm3.382-.352a25.671 25.671 0 0 0 1.77-.281c.435-.09.8-.19 1.031-.316l-.482-.876c-.082.045-.31.122-.75.212a24.7 24.7 0 0 1-1.699.27l.13.991Zm2.805-.599a1.95 1.95 0 0 1 .259-.126c.067-.025.081-.02.058-.02v-1c-.267 0-.556.133-.807.274l.49.872Zm.317-.147c.029 0 .133.017.343.116.198.094.45.243.758.453l.564-.825a6.854 6.854 0 0 0-.893-.531c-.252-.12-.519-.213-.772-.213v1Zm1.082.555c.28.212.47.379.585.504a.762.762 0 0 1 .096.121c.014.024-.013-.01-.013-.086h1a.833.833 0 0 0-.12-.414 1.726 1.726 0 0 0-.23-.3 5.608 5.608 0 0 0-.715-.622l-.603.797Zm.669.539c0 .043-.003.07-.005.082-.001.006-.002.006 0 .003a.187.187 0 0 1 .01-.027l.895.447c.083-.167.1-.354.1-.505h-1Zm.1-.072a.187.187 0 0 1 .118-.053v1a.818.818 0 0 0 .588-.24l-.707-.707Zm.138-.053-.586-.023-.04 1 .586.023.04-1Zm-.55-.02a17.344 17.344 0 0 0-1.813-.074v1c.743 0 1.307.024 1.702.068l.11-.994Zm-1.813-.074c-1.784 0-3.942.191-6.473.568l.148.99c2.5-.374 4.608-.558 6.325-.558v-1Zm-6.894.99-.422 2.883.99.145.422-2.883-.99-.145Zm-.426 2.926-.023.399.998.058.023-.398-.998-.059Zm-.024.428c0 .249.047.528.226.752.197.245.476.334.742.334v-1c-.026 0-.027-.004-.012.002a.13.13 0 0 1 .051.04c.013.015.01.02.005 0a.512.512 0 0 1-.012-.128h-1Zm.968 1.086c.202 0 .433-.03.684-.08l-.196-.98a2.61 2.61 0 0 1-.488.06v1Zm.636-.073c1.252-.125 2.42-.25 3.5-.376l-.115-.993c-1.075.125-2.236.25-3.484.374l.1.995Zm3.505-.376a7.8 7.8 0 0 1 .922-.043v-1c-.416 0-.767.016-1.046.05l.124.993Zm.922-.043c.378 0 .783.115 1.221.375l.51-.86c-.56-.333-1.14-.515-1.731-.515v1Zm1.2.361c.239.16.391.291.48.392.092.107.07.13.07.083h1c0-.298-.15-.548-.316-.738a3.401 3.401 0 0 0-.68-.569l-.555.832Zm.55.475c0-.02.002.009-.033.121-.03.1-.078.234-.148.407-.138.345-.35.814-.637 1.411l.902.433c.29-.605.513-1.097.663-1.47.075-.188.135-.352.177-.49.038-.126.076-.275.076-.412h-1Zm-.817 1.938a12.878 12.878 0 0 1-2.98 3.972l.671.742a13.878 13.878 0 0 0 3.209-4.278l-.9-.436Zm-2.974 3.967a9.68 9.68 0 0 1-3.634 2.03l.287.958a10.68 10.68 0 0 0 4.007-2.236l-.66-.752Zm-3.49 2.009c.046 0 .172.011.283.123a.408.408 0 0 1 .123.283h-1c0 .108.027.281.17.424.142.142.315.17.424.17v-1Zm.406.406c0 .06-.013.103-.018.119-.006.018-.011.026-.01.022a.704.704 0 0 1 .055-.079c.07-.091.183-.222.35-.396l-.723-.691c-.177.185-.32.347-.423.483-.051.067-.1.138-.14.21a.708.708 0 0 0-.091.332h1Zm.352-.31a26.453 26.453 0 0 0 4.587-5.494l-.846-.533a25.45 25.45 0 0 1-4.414 5.287l.673.74Zm4.594-5.505c.301-.508.535-.942.694-1.3.15-.336.266-.669.266-.948h-1c0 .05-.032.213-.179.54-.137.308-.35.705-.641 1.197l.86.511Zm.96-2.247a.877.877 0 0 0-.24-.635.877.877 0 0 0-.635-.24v1c.048 0-.008.011-.072-.053-.064-.065-.053-.12-.053-.073h1Zm-.875-.875c-.476 0-1.447.099-2.877.285l.13.992c1.445-.189 2.348-.277 2.747-.277v-1Zm-2.867.284c-1.286.14-2.26.292-2.905.458l.248.968c.573-.147 1.49-.292 2.766-.432l-.109-.994Zm-2.883.453c-.184.038-.33.066-.44.083a2.7 2.7 0 0 1-.172.023h-.013v1c.172 0 .468-.052.829-.127l-.204-.98Zm-.625.106c.035 0 .029.01-.032-.022a1.43 1.43 0 0 1-.248-.182l-.658.752c.142.125.286.232.432.31.142.077.315.142.506.142v-1Zm-.266-.191a1.89 1.89 0 0 1-.248-.273.466.466 0 0 1-.022-.034l-.006-.011s.003.006.005.018c.003.011.006.03.006.054h-1c0 .223.105.413.194.542.098.142.231.286.385.43l.686-.726Zm-.265-.246c0 .013-.002-.008.021-.077.022-.064.058-.15.114-.262l-.895-.447c-.127.254-.24.533-.24.786h1Zm.156-.388c.269-.723.525-1.89.775-3.471l-.987-.157c-.25 1.575-.494 2.657-.725 3.279l.937.349Zm.777-3.484.047-.351-.991-.132-.047.351.991.132Zm-.525-.912c-2.13.33-3.7.68-4.675 1.06l.363.932c.867-.338 2.344-.676 4.465-1.003l-.153-.988Zm-4.689 1.066c-.195.082-.349.14-.465.176-.127.04-.17.042-.16.042v1c.15 0 .314-.042.46-.088.158-.05.344-.12.555-.21l-.39-.92Zm-.625.218c.031 0-.03.003-.232-.12a6.088 6.088 0 0 1-.71-.535l-.647.763c.314.266.594.477.836.625.22.134.487.267.753.267v-1Zm-.92-.635a4.29 4.29 0 0 1-.345-.359.874.874 0 0 1-.048-.065l.003.006a.377.377 0 0 1 .029.147h-1c0 .155.063.279.096.337.041.073.093.143.145.207.105.13.251.28.429.45l.69-.723Zm-.361-.271c0-.04.01.02-.05.1a.351.351 0 0 1-.137.112.307.307 0 0 1-.126.03v-1a.662.662 0 0 0-.545.27.82.82 0 0 0-.143.488h1Zm-.313.242c.672 0 1.434-.032 2.287-.095l-.074-.998c-.835.062-1.572.093-2.213.093v1Zm2.361-.107c1.419-.323 3.035-.602 4.851-.835l-.127-.992c-1.84.236-3.49.52-4.946.853l.222.974Zm5.285-1.285c.111-1.204.166-2.445.166-3.726h-1c0 1.252-.054 2.463-.162 3.634l.996.092Zm.166-3.726v-1.476h-1v1.476h1Zm0-1.476c0-.092.007-.16.016-.207.009-.049.018-.065.016-.061a.175.175 0 0 1-.062.059.192.192 0 0 1-.095.03v-1a.81.81 0 0 0-.422.114.83.83 0 0 0-.297.314c-.123.223-.155.495-.155.75h1Z"/></svg>