<svg xmlns="http://www.w3.org/2000/svg" width="50" height="50" fill="none"><path fill="#333" d="M31.188 24.688c-2.438 0-5.11.164-8.016.492-2.813.265-4.625.554-5.438.867-.453.172-.718.258-.797.258-.265 0-.671-.235-1.218-.703-.438-.438-.656-.774-.656-1.008 0-.172.093-.258.28-.258l.446.023c.281.047.602.07.961.07 1.188 0 2.695-.132 4.523-.398 3.032-.406 5.891-.703 8.579-.89.921-.016 1.718-.141 2.39-.375.297-.094.508-.141.633-.141.313 0 .734.273 1.266.82.468.47.703.883.703 1.242 0 .25-.094.375-.282.375-.14 0-.289-.023-.445-.07-.515-.203-1.492-.305-2.93-.305Z"/><path fill="#333" d="m23.172 25.18.047.498.009-.002-.056-.496Zm-5.438.867.178.467h.002l-.18-.467Zm-2.015-.445-.354.353.014.014.014.012.326-.38Zm-.375-1.266.026-.5h-.026v.5Zm.445.023.082-.493-.027-.005h-.029l-.026.498Zm5.484-.328-.066-.495h-.006l.072.495Zm8.579-.89-.009-.5h-.026l.035.5Zm2.39-.375-.15-.477-.008.002-.007.003.165.472Zm1.899.68-.36.348.006.005.354-.354Zm-.024 1.546-.183.465.02.008.02.006.143-.479Zm-2.93-.805c-2.459 0-5.15.166-8.071.496l.112.994c2.891-.327 5.544-.49 7.96-.49v-1Zm-8.062.495c-1.412.133-2.58.273-3.5.42-.912.145-1.612.302-2.07.478l.359.934c.354-.137.967-.28 1.868-.424.892-.143 2.036-.28 3.437-.413l-.094-.995Zm-5.568.897c-.223.085-.394.146-.516.186-.06.02-.103.032-.131.038-.04.01-.02.002.027.002v1c.087 0 .17-.02.215-.031.059-.015.125-.035.197-.058.145-.047.333-.114.563-.202l-.355-.935Zm-.62.226c.006 0-.013 0-.06-.016a1.168 1.168 0 0 1-.194-.093 4.483 4.483 0 0 1-.639-.474l-.65.76c.285.244.55.442.79.58.229.132.489.243.753.243v-1Zm-.865-.557a3.302 3.302 0 0 1-.426-.5c-.09-.137-.084-.18-.084-.154h-1c0 .26.117.502.246.7.135.209.326.43.557.661l.707-.707Zm-.51-.654a.265.265 0 0 1-.091.175c-.081.074-.154.067-.127.067v-1a.797.797 0 0 0-.549.196.746.746 0 0 0-.232.562h1Zm-.244.241.445.024.052-.999-.445-.023-.052.998Zm.389.018c.314.052.663.077 1.043.077v-1c-.339 0-.63-.023-.879-.064l-.164.987Zm1.043.077c1.22 0 2.755-.136 4.595-.404l-.143-.99c-1.816.264-3.298.394-4.452.394v1Zm4.59-.403c3.022-.405 5.87-.7 8.546-.888l-.07-.997c-2.699.188-5.569.486-8.609.894l.133.99Zm8.52-.886c.96-.017 1.812-.147 2.547-.403l-.33-.944c-.609.212-1.35.332-2.234.347l.017 1Zm2.533-.399c.3-.094.443-.117.482-.117v-1c-.21 0-.49.07-.783.164l.3.953Zm.482-.117c.017 0 .104.011.279.125.168.108.377.285.628.544l.717-.697a4.82 4.82 0 0 0-.801-.687c-.247-.16-.528-.285-.823-.285v1Zm.912.674c.447.446.557.737.557.889h1c0-.567-.359-1.105-.85-1.596l-.707.707Zm.557.889c0 .032-.004.045-.003.042 0-.003.008-.028.032-.061a.28.28 0 0 1 .11-.087.206.206 0 0 1 .08-.02v1c.215 0 .45-.079.61-.293a.956.956 0 0 0 .17-.581h-1Zm.218-.125c-.084 0-.184-.015-.301-.05l-.288.958c.196.059.393.091.59.091v-1Zm-.262-.036c-.615-.242-1.682-.34-3.112-.34v1c1.444 0 2.33.107 2.746.27l.366-.93Z"/></svg>