<svg xmlns="http://www.w3.org/2000/svg" width="50" height="50" fill="none"><path fill="#333" d="M27.625 15.43c.39 0 .844.203 1.36.61.593.577.89 1.062.89 1.452 0 .125-.14.274-.422.445-.312.266-.672 1.118-1.078 2.555-.719 2.078-1.422 3.79-2.11 5.133 1.563 1.078 3.266 2.453 5.11 4.125.813.781 1.219 1.594 1.219 2.438 0 1-.188 1.5-.563 1.5-.25 0-.86-.555-1.828-1.665-1.828-2.062-3.43-3.71-4.805-4.945-1.171 1.656-2.242 2.953-3.21 3.89-1.204 1.095-2.438 1.954-3.704 2.579-.75.281-1.172.422-1.265.422h-.094c0-.125.094-.25.281-.375 2.078-1.625 3.672-3.188 4.782-4.688a32.12 32.12 0 0 0 1.921-2.976 55.238 55.238 0 0 0-5.53-4.22l-.235-.187c0-.062.062-.093.187-.093.219 0 .79.164 1.711.492 1.156.531 2.68 1.43 4.57 2.695l.563-1.125c.875-2 1.5-3.758 1.875-5.273.25-1 .313-1.688.188-2.063-.125-.25-.188-.437-.188-.562 0-.11.125-.164.375-.164Z"/><path fill="#333" d="m28.984 16.04.35-.36-.02-.018-.02-.016-.31.393Zm.47 1.898-.262-.427-.033.02-.03.026.324.38Zm-1.079 2.554.473.164.004-.014.004-.014-.481-.136Zm-2.11 5.133-.445-.228-.2.39.362.25.284-.412Zm5.11 4.125.347-.36-.006-.006-.005-.004-.336.37Zm-1.172 2.273.377-.328-.003-.003-.374.331Zm-4.805-4.945.335-.372-.418-.375-.325.458.408.29Zm-3.21 3.89.336.37.006-.005.005-.005-.348-.36Zm-3.704 2.579.176.468.023-.009.023-.01-.222-.45Zm-1.359.422h-.5v.5h.5v-.5Zm.281-.375.278.416.015-.01.015-.012-.308-.394Zm4.782-4.688.402.298.002-.004-.404-.294Zm1.921-2.976.435.247.203-.357-.31-.269-.328.379Zm-5.53-4.22-.313.391.017.014.019.013.276-.417Zm-.235-.187h-.5v.24l.187.15.313-.39Zm1.898.399.209-.454-.02-.01-.021-.007-.168.47Zm4.57 2.695-.278.416.472.315.254-.507-.448-.224Zm.563-1.125.447.224.006-.012.005-.011-.458-.2Zm1.875-5.273-.485-.122v.002l.485.12Zm.188-2.063.474-.158-.011-.034-.016-.031-.448.223Zm.187-.226c.224 0 .568.122 1.05.502l.619-.786c-.55-.432-1.112-.716-1.669-.716v1Zm1.01.467c.28.272.472.506.591.7.12.197.149.325.149.395h1c0-.32-.12-.63-.296-.917a4.77 4.77 0 0 0-.746-.894l-.697.716Zm.74 1.095c0-.064.018-.11.029-.13.01-.02.015-.022.003-.009a1.122 1.122 0 0 1-.215.158l.522.853c.158-.097.305-.203.419-.323.105-.111.242-.298.242-.549h-1Zm-.246.064c-.254.217-.46.596-.64 1.025a15.718 15.718 0 0 0-.595 1.775l.962.272c.2-.71.386-1.26.554-1.658.178-.423.309-.602.367-.651l-.648-.762Zm-1.227 2.773c-.714 2.065-1.408 3.752-2.082 5.068l.89.456c.703-1.372 1.414-3.106 2.137-5.197l-.945-.327Zm-1.92 5.707c1.54 1.063 3.225 2.423 5.057 4.084l.672-.74c-1.855-1.683-3.576-3.073-5.161-4.166l-.568.823Zm5.046 4.074c.75.72 1.066 1.41 1.066 2.078h1c0-1.021-.496-1.956-1.372-2.798l-.694.72Zm1.066 2.078c0 .482-.047.785-.109.949-.03.079-.05.092-.04.083a.143.143 0 0 1 .086-.032v1a.859.859 0 0 0 .578-.22 1.19 1.19 0 0 0 .312-.48c.126-.336.173-.783.173-1.3h-1Zm-.063 1c.092 0 .112.037.017-.025a2.688 2.688 0 0 1-.325-.261c-.283-.258-.663-.658-1.143-1.207l-.753.657c.488.56.897.993 1.223 1.29.162.147.315.271.455.362.12.077.31.184.526.184v-1Zm-1.454-1.496c-1.835-2.07-3.45-3.734-4.845-4.986l-.668.744c1.356 1.217 2.944 2.85 4.765 4.905l.748-.663Zm-5.587-4.903c-1.162 1.643-2.212 2.912-3.15 3.82l.695.72c1-.968 2.09-2.292 3.272-3.962l-.817-.578Zm-3.139 3.81c-1.174 1.067-2.37 1.898-3.588 2.5l.443.896c1.313-.648 2.585-1.536 3.818-2.656l-.673-.74Zm-3.542 2.48c-.373.14-.66.242-.862.31a4.584 4.584 0 0 1-.228.071c-.073.02-.054.009 0 .009v1c.1 0 .207-.03.263-.044a5.48 5.48 0 0 0 .282-.087c.22-.074.519-.182.896-.323l-.351-.936Zm-1.09.39h-.094v1h.094v-1Zm.406.5c0 .032-.006.06-.014.082a.127.127 0 0 1-.016.03l.02-.02a.625.625 0 0 1 .069-.051l-.555-.832c-.218.145-.504.4-.504.79h1Zm.09.019c2.1-1.643 3.73-3.237 4.875-4.784l-.805-.595c-1.073 1.452-2.63 2.983-4.687 4.59l.616.789Zm4.877-4.788a32.577 32.577 0 0 0 1.952-3.023l-.87-.495c-.568 1-1.199 1.976-1.891 2.93l.81.588Zm1.844-3.649a55.74 55.74 0 0 0-5.581-4.257l-.553.834a54.706 54.706 0 0 1 5.48 4.18l.654-.757Zm-5.546-4.23-.234-.188-.625.78.235.188.625-.78Zm-.046.202a.429.429 0 0 1-.23.377c-.073.037-.12.03-.083.03v-1a.813.813 0 0 0-.364.076.572.572 0 0 0-.323.517h1Zm-.313.407.033.003c.023.003.055.009.095.017.083.017.19.044.326.083.27.078.633.197 1.09.36l.335-.942c-.465-.166-.85-.293-1.149-.379-.278-.08-.54-.142-.73-.142v1Zm1.502.446c1.12.515 2.618 1.396 4.501 2.657l.557-.831c-1.899-1.271-3.448-2.187-4.64-2.735l-.418.91Zm5.227 2.465.562-1.125-.894-.447-.563 1.125.895.447Zm.573-1.148c.882-2.017 1.519-3.803 1.902-5.354l-.97-.24c-.367 1.48-.98 3.21-1.848 5.193l.916.4Zm1.902-5.353c.129-.514.213-.963.247-1.342.034-.368.025-.715-.07-1l-.949.316c.03.09.052.275.023.594-.028.309-.1.703-.221 1.19l.97.242Zm.15-2.407a2.082 2.082 0 0 1-.114-.263c-.023-.069-.021-.09-.021-.076h-1c0 .252.113.532.24.786l.895-.447Zm-.135-.34c0 .076-.024.16-.079.232a.332.332 0 0 1-.127.104c-.022.01-.03.008-.01.006a.676.676 0 0 1 .091-.005v-1c-.146 0-.323.013-.482.083a.672.672 0 0 0-.267.206.615.615 0 0 0-.126.375h1Z"/></svg>