<svg xmlns="http://www.w3.org/2000/svg" width="50" height="50" fill="none"><path fill="#333" d="M16.938 18.781c.5 0 .992.18 1.476.54.578.421.867.78.867 1.077 0 .094-.047.204-.14.329-.094.203-.141.554-.141 1.054l.094 7.875c0 .297.023.524.07.68.156.125.32.187.492.187.235 0 .578-.03 1.032-.093l10.03-1.336v-7.969c0-.828-.132-1.547-.398-2.156a.917.917 0 0 1-.164-.54c0-.202.125-.304.375-.304.438 0 .938.156 1.5.469.875.515 1.313.984 1.313 1.406 0 .125-.094.313-.282.563-.25.375-.374 1.25-.374 2.625v6.468c0 1-.188 1.719-.563 2.157-.125.187-.313.28-.563.28-.125 0-.375-.187-.75-.562-.375-.5-.75-.75-1.125-.75-2.953.203-5.64.54-8.062 1.008-.813.094-1.43.29-1.852.586-.28.188-.476.281-.585.281-.25 0-.625-.187-1.125-.562-.563-.375-.844-.75-.844-1.125 0-.188.031-.367.093-.54v-.937l-.187-7.898a9.605 9.605 0 0 0-.469-2.227.985.985 0 0 1-.093-.398c0-.125.125-.188.375-.188Z"/><path fill="#333" d="m18.414 19.32-.298.402.003.002.295-.404Zm.727 1.407-.4-.3-.032.042-.022.048.454.21ZM19 21.78h-.5v.006l.5-.006Zm.094 7.875h.5v-.006l-.5.006Zm.07.68-.479.144.045.149.122.097.312-.39Zm1.523.094-.066-.496h-.002l.069.496Zm10.032-1.336.066.495.434-.057v-.438h-.5Zm-.399-10.125.459-.2-.02-.046-.03-.041-.409.287Zm1.711-.375.254-.431-.01-.006-.244.437Zm1.032 1.968-.4-.3-.009.012-.008.011.416.277Zm-.938 11.25-.38-.325-.02.023-.016.025.416.277Zm-1.313-.28-.4.3.022.028.025.025.354-.354Zm-1.125-.75v-.5h-.034l.035.5Zm-8.062 1.007.057.497.02-.002.018-.004-.095-.49Zm-1.852.586.278.416.01-.007-.288-.409Zm-1.71-.281.3-.4-.012-.009-.011-.007-.277.416Zm-.75-1.664.47.17.03-.082v-.088h-.5Zm0-.938h.5v-.012l-.5.012Zm-.188-7.898.5-.012v-.015l-.002-.016-.498.043Zm-.469-2.227.475-.158-.008-.023-.01-.022-.457.203Zm.282-.086c.372 0 .762.132 1.178.44l.596-.802c-.552-.41-1.146-.638-1.774-.638v1Zm1.181.443c.271.198.45.363.556.496.11.137.106.192.106.178h1c0-.31-.148-.583-.327-.805a3.93 3.93 0 0 0-.745-.677l-.59.808Zm.662.674c0-.036.01-.053.006-.044a.387.387 0 0 1-.046.073l.8.6c.119-.16.24-.376.24-.629h-1Zm-.094.119c-.144.31-.187.76-.187 1.264h1c0-.495.05-.75.095-.845l-.908-.419Zm-.187 1.27.094 7.875 1-.012-.094-7.875-1 .012Zm.094 7.87c0 .312.023.596.091.823l.958-.288c-.026-.086-.05-.255-.05-.536h-1Zm.258 1.07c.23.183.5.296.804.296v-1c-.04 0-.097-.011-.18-.078l-.624.781Zm.804.296c.27 0 .641-.035 1.1-.098l-.137-.99a7.776 7.776 0 0 1-.963.088v1Zm1.098-.098 10.03-1.336-.131-.99-10.031 1.335.131.991Zm10.465-1.831v-7.969h-1v7.969h1Zm0-7.969c0-.88-.141-1.67-.44-2.356l-.917.4c.232.532.357 1.18.357 1.956h1Zm-.49-2.443a.418.418 0 0 1-.073-.252h-1c0 .298.083.58.255.826l.819-.574Zm-.073-.252-.001.015a.264.264 0 0 1-.09.144c-.064.052-.104.036-.034.036v-1a.93.93 0 0 0-.596.188.775.775 0 0 0-.279.617h1Zm-.125.195c.322 0 .737.116 1.257.406l.486-.874c-.604-.336-1.19-.532-1.743-.532v1Zm1.246.4c.418.245.7.463.873.648.176.189.194.295.194.327h1c0-.39-.201-.729-.463-1.01-.265-.283-.638-.557-1.096-.827l-.508.861Zm1.067.975c0-.03.005-.044.003-.038a.359.359 0 0 1-.02.049c-.03.057-.08.14-.164.252l.8.6c.103-.139.193-.275.258-.405a1.04 1.04 0 0 0 .123-.458h-1Zm-.197.285c-.19.285-.296.69-.36 1.144a12.82 12.82 0 0 0-.1 1.759h1c0-.676.031-1.212.09-1.617.06-.422.141-.64.201-.731l-.831-.555Zm-.46 2.902v6.47h1v-6.47h-1Zm0 6.47c0 .96-.184 1.53-.442 1.83l.76.65c.492-.573.682-1.441.682-2.48h-1Zm-.478 1.878c-.021.032-.042.059-.146.059v1c.395 0 .749-.16.978-.504l-.832-.555Zm-.146.059c.082 0 .125.027.106.017a.678.678 0 0 1-.088-.058 4.205 4.205 0 0 1-.415-.375l-.707.707c.194.194.37.354.522.468.076.057.157.111.24.153a.767.767 0 0 0 .341.088v-1Zm-.35-.363c-.408-.543-.912-.95-1.526-.95v1c.137 0 .383.093.726.55l.8-.6Zm-1.56-.949c-2.97.205-5.678.543-8.123 1.016l.19.982c2.398-.464 5.065-.798 8.002-1l-.069-.998Zm-8.085 1.01c-.852.099-1.564.309-2.082.674l.575.818c.325-.229.848-.409 1.621-.498l-.114-.994Zm-2.072.667c-.13.087-.228.143-.296.176a.5.5 0 0 1-.061.026c-.01.003.009-.005.049-.005v1c.172 0 .333-.066.444-.12.127-.06.268-.145.419-.245l-.555-.832Zm-.308.197a.7.7 0 0 1-.246-.088 3.986 3.986 0 0 1-.58-.374l-.6.8c.264.197.51.357.733.469.216.108.454.193.692.193v-1Zm-.848-.478c-.532-.355-.621-.6-.621-.71h-1c0 .641.473 1.147 1.066 1.542l.555-.832Zm-.621-.71c0-.13.021-.252.063-.367l-.94-.342a2.066 2.066 0 0 0-.123.71h1Zm.093-.538v-.938h-1v.938h1Zm0-.95-.187-7.898-1 .024.188 7.898 1-.024Zm-.189-7.929a10.105 10.105 0 0 0-.492-2.342l-.95.316c.24.716.387 1.419.446 2.111l.996-.085Zm-.51-2.387a.492.492 0 0 1-.05-.195h-1c0 .209.052.411.136.601l.914-.406Zm-.05-.195a.357.357 0 0 1-.183.306c-.026.013-.038.014-.024.011a.515.515 0 0 1 .081-.005v-1c-.15 0-.337.016-.504.1a.644.644 0 0 0-.37.588h1Z"/></svg>