<svg xmlns="http://www.w3.org/2000/svg" width="50" height="50" fill="none"><path fill="#333" d="M30.625 14.656c.375 0 .797.242 1.266.727.53.61.797 1.086.797 1.43 0 .343-.188.617-.563.82-.484.125-1.016.64-1.594 1.547-1.328 1.828-2.492 3.172-3.492 4.03-.344.33-.516.852-.516 1.571 0 4.157.04 6.758.118 7.805.03.344.047.594.047.75 0 .36-.125.758-.375 1.195-.157.25-.313.375-.47.375-.218 0-.476-.187-.773-.562-.36-.516-.539-.953-.539-1.313l.094-1.265c.063-.672.094-2.594.094-5.766 0-.953-.235-1.68-.703-2.18a67.909 67.909 0 0 1-4.828-5.156c-.563-.734-1.047-1.281-1.454-1.64-.406-.297-.609-.516-.609-.657 0-.297.102-.492.305-.586.312-.125.71-.187 1.195-.187.734 0 1.21.062 1.43.187.218.156.422.492.61 1.008.187.656.843 1.703 1.968 3.14.984 1.344 1.992 2.43 3.023 3.259.875-1.125 1.852-2.696 2.93-4.711.625-1.125 1.078-2.172 1.36-3.141.171-.453.398-.68.679-.68Z"/><path fill="#333" d="m31.89 15.383.377-.329-.008-.01-.01-.009-.358.348Zm.235 2.25.125.484.06-.015.053-.03-.238-.44Zm-1.594 1.547.405.294.009-.013.008-.012-.422-.27Zm-3.492 4.03-.326-.378-.01.008-.01.01.346.36Zm-.398 9.376-.5.037.002.008.498-.045Zm-.328 1.945.424.265.005-.008.005-.009-.434-.248Zm-1.243-.187-.41.286.009.012.01.012.391-.31Zm-.539-1.313-.498-.037-.002.019v.018h.5Zm.094-1.265-.498-.047v.01l.498.037Zm-.61-7.946.365-.342-.008-.009-.01-.009-.346.36Zm-4.828-5.156-.396.304.007.01.007.008.383-.322Zm-1.453-1.64.332-.375-.018-.015-.019-.014-.295.403Zm-.304-1.243-.186-.464-.012.005-.012.005.21.454Zm2.625 0 .29-.407-.02-.014-.022-.013-.248.434Zm.61 1.008.48-.137-.005-.017-.006-.017-.47.171Zm1.968 3.14.403-.295-.005-.006-.004-.006-.394.308Zm3.023 3.259-.313.39.396.317.312-.4-.395-.308Zm2.93-4.711-.437-.243-.004.007.44.236Zm1.36-3.141-.468-.177-.007.018-.006.02.48.139Zm.679-.18c.165 0 .463.116.906.574l.719-.695c-.494-.51-1.04-.879-1.625-.879v1Zm.889.555c.252.29.428.533.537.73.114.203.136.32.136.372h1c0-.293-.11-.586-.262-.86a5.467 5.467 0 0 0-.657-.899l-.754.657Zm.674 1.101c0 .114-.042.24-.301.381l.476.88c.49-.266.825-.686.825-1.26h-1ZM32 17.15c-.357.092-.685.314-.985.605-.303.294-.604.684-.905 1.157l.843.538c.277-.434.53-.755.759-.977.23-.224.41-.322.538-.355l-.25-.968Zm-1.873 1.737c-1.32 1.815-2.457 3.123-3.414 3.946l.652.758c1.043-.896 2.234-2.276 3.57-4.116l-.808-.588Zm-3.433 3.963c-.484.462-.67 1.146-.67 1.932h1c0-.651.156-1.014.36-1.208l-.69-.724Zm-.67 1.932c0 4.15.038 6.773.118 7.842l.997-.074c-.076-1.024-.116-3.605-.116-7.768h-1Zm.119 7.85c.03.342.044.573.044.705h1c0-.18-.017-.45-.048-.795l-.996.09Zm.044.705c0 .244-.085.556-.309.947l.869.496c.276-.484.44-.969.44-1.443h-1Zm-.299.93a.654.654 0 0 1-.122.156c-.015.012.014-.016.078-.016v1c.437 0 .723-.339.892-.61l-.848-.53Zm-.044.14c.034 0 .017.014-.064-.045a1.766 1.766 0 0 1-.318-.328l-.784.621c.164.207.335.386.514.516.177.129.398.236.652.236v-1Zm-.364-.348c-.34-.487-.449-.821-.449-1.027h-1c0 .513.25 1.055.63 1.599l.82-.572Zm-.45-.99.094-1.265-.998-.074-.093 1.265.997.074Zm.093-1.256c.065-.7.096-2.651.096-5.812h-1c0 3.183-.032 5.076-.092 5.72l.996.092ZM25.219 26c0-1.03-.254-1.898-.839-2.522l-.73.684c.354.377.569.962.569 1.838h1Zm-.856-2.54a67.373 67.373 0 0 1-4.793-5.118l-.765.644a68.41 68.41 0 0 0 4.864 5.194l.694-.72Zm-4.779-5.1c-.57-.745-1.077-1.32-1.518-1.711l-.663.749c.371.328.833.846 1.388 1.57l.793-.608Zm-1.555-1.74a2.837 2.837 0 0 1-.385-.323c-.035-.038-.046-.056-.046-.056a.312.312 0 0 1 .027.126h-1c0 .153.053.28.103.366.05.09.116.172.183.244.133.143.314.294.528.45l.59-.807Zm-.404-.253a.33.33 0 0 1 .02-.138c0-.002 0 0-.005.004-.003.004-.005.004 0 .002l-.42-.908c-.44.203-.595.624-.595 1.04h1Zm-.01-.122c.234-.093.564-.151 1.01-.151v-1c-.522 0-.99.066-1.381.223l.371.928Zm1.01-.151c.355 0 .635.015.843.042.222.03.316.067.339.08l.496-.869c-.197-.112-.45-.169-.705-.202a7.68 7.68 0 0 0-.973-.051v1Zm1.14.094c.086.062.247.27.43.772l.939-.342c-.193-.53-.438-.993-.789-1.244l-.58.814Zm.418.738c.113.396.354.87.69 1.406.34.543.797 1.18 1.366 1.906l.788-.616c-.557-.711-.99-1.318-1.306-1.821-.32-.51-.502-.889-.576-1.15l-.962.275Zm2.047 3.3c1.003 1.37 2.04 2.49 3.113 3.351l.626-.78c-.99-.794-1.968-1.846-2.933-3.163l-.806.591Zm3.82 3.268c.9-1.156 1.892-2.754 2.977-4.782l-.882-.471c-1.072 2.003-2.033 3.546-2.883 4.64l.789.613Zm2.973-4.775c.639-1.149 1.108-2.23 1.402-3.244l-.96-.278c-.268.924-.705 1.936-1.316 3.037l.874.485Zm1.39-3.206c.072-.19.14-.289.185-.333a.186.186 0 0 1 .022-.02l.008-.005-.002.001h-.001v-1c-.616 0-.96.51-1.147 1.003l.935.354Z"/></svg>