<svg xmlns="http://www.w3.org/2000/svg" width="50" height="50" fill="none"><path fill="#333" d="M16 20.844c.125 0 .344.062.656.187.188.063.477.094.867.094.438 0 .852-.04 1.243-.117l5.648-.89-.07-1.688c0-1.266-.157-2.18-.469-2.742-.125-.11-.188-.196-.188-.258 0-.39.22-.586.657-.586.312 0 .703.078 1.172.234.593.266.89.5.89.703 0 .078-.054.164-.164.258-.14.344-.21.766-.21 1.266l-.024 2.578 4.148-.656c.61-.11 1.11-.22 1.5-.329.266-.078.453-.117.563-.117.203 0 .492.14.867.422.422.36.633.625.633.797 0 .266-.219.398-.657.398h-.843c-1.11.063-3.188.313-6.235.75l-.047 4.008c0 .828-.312 1.242-.937 1.242-.094 0-.305-.101-.633-.304-.265-.125-.492-.188-.68-.188-.765 0-1.414.25-1.945.75-.703.625-1.055 1.438-1.055 2.438 0 1.015.375 1.875 1.125 2.578.782.781 1.907 1.172 3.375 1.172 1.922 0 3.57-.633 4.946-1.899.344-.343.664-.515.96-.515.173 0 .321.054.446.164.14.11.211.234.211.375 0 .922-.68 1.765-2.04 2.531-1.296.688-2.804 1.031-4.523 1.031-1.75 0-3.25-.5-4.5-1.5-1.187-1.11-1.78-2.422-1.78-3.937 0-1.11.374-2.11 1.124-3 .875-.875 2.157-1.375 3.844-1.5.5-.047.719-.477.656-1.29l-.07-1.898c-3.281.5-5.172.86-5.672 1.078-.266.157-.508.235-.727.235-.296 0-.75-.211-1.359-.633-.594-.453-.89-.742-.89-.867 0-.25.062-.375.187-.375Z"/><path fill="#333" d="m16.656 21.031-.185.465.013.005.014.005.158-.475Zm2.11-.023-.078-.494-.01.002-.01.002.098.49Zm5.648-.89.078.493.44-.07-.018-.445-.5.021Zm-.07-1.688h-.5v.02l.5-.02Zm-.469-2.742.437-.243-.042-.076-.066-.058-.329.377Zm1.64-.61.205-.456-.023-.01-.023-.008-.158.474Zm.727.961-.325-.38-.092.079-.046.112.463.19Zm-.21 1.266.5.004v-.004h-.5Zm-.024 2.578-.5-.005-.005.591.583-.092-.078-.494Zm4.148-.656.078.494.01-.002-.088-.492Zm1.5-.329.135.482.006-.002-.14-.48Zm1.43.305.324-.38-.012-.01-.012-.01-.3.4Zm-.867 1.195v-.5h-.014l-.014.001.028.5Zm-6.235.75-.07-.494-.425.06-.005.429.5.005Zm-.047 4.008-.5-.006v.006h.5Zm-1.57.938.263-.425-.024-.015-.026-.013-.213.453Zm-2.625.562.332.374.006-.005.005-.005-.343-.364Zm.07 5.016.354-.354-.006-.005-.006-.006-.341.365Zm8.32-.727.34.368.007-.007.007-.007-.353-.354Zm1.407-.351-.33.376.012.01.011.008.307-.394ZM29.711 33.5l.234.442.011-.006-.245-.436Zm-9.023-.469-.342.366.014.013.015.012.313-.39Zm-.657-6.937-.353-.354-.015.015-.014.017.382.322Zm3.844-1.5.037.498h.01l-.047-.498Zm.656-1.29-.5.02.001.01v.009l.5-.038Zm-.07-1.898.5-.018-.021-.56-.554.084.075.494Zm-5.672 1.078-.2-.458-.028.012-.025.015.253.431Zm-2.086-.398-.303.397.009.007.01.007.284-.411ZM16 21.344c-.007 0 .026 0 .12.027.088.025.203.066.35.125l.372-.929a4.723 4.723 0 0 0-.447-.157 1.48 1.48 0 0 0-.395-.066v1Zm.498.162c.267.089.623.119 1.025.119v-1c-.378 0-.6-.032-.709-.068l-.316.949Zm1.025.119c.468 0 .915-.042 1.34-.127l-.195-.98a5.826 5.826 0 0 1-1.145.107v1Zm1.32-.123 5.649-.89-.156-.989-5.648.89.155.989Zm6.07-1.406-.07-1.687-.999.042.07 1.687 1-.042Zm-.07-1.666c0-1.284-.154-2.306-.53-2.985l-.875.485c.248.446.406 1.252.406 2.5h1Zm-.639-3.119a.792.792 0 0 1-.05-.047l-.015-.017s.01.014.021.04a.37.37 0 0 1 .027.143h-1c0 .188.089.33.143.405.062.085.139.162.216.229l.658-.753Zm-.017.119c0-.053.008-.076.01-.082 0-.002-.003.006-.012.015-.019.017.004-.02.159-.02v-1c-.283 0-.588.063-.825.274-.248.221-.331.525-.331.813h1Zm.157-.086c.237 0 .57.06 1.014.209l.316-.95c-.494-.164-.942-.26-1.33-.26v1Zm.967.19c.282.127.462.232.563.312.05.039.064.06.063.058a.23.23 0 0 1-.03-.123h1c0-.345-.242-.585-.414-.72a3.738 3.738 0 0 0-.773-.44l-.409.913Zm.595.247c0-.08.029-.132.037-.145.008-.012.005-.003-.026.023l.65.76c.134-.115.34-.33.34-.638h-1Zm-.127.069c-.172.42-.248.91-.248 1.455h1c0-.457.065-.81.174-1.077l-.926-.378Zm-.248 1.45-.023 2.578 1 .01.023-2.579-1-.009Zm.555 3.077 4.148-.657-.156-.987-4.148.656.156.988Zm4.159-.658c.617-.111 1.134-.224 1.546-.34l-.27-.962c-.37.103-.852.21-1.453.317l.177.985Zm1.552-.34c.125-.038.225-.063.301-.079.038-.008.067-.013.09-.016l.03-.003v-1c-.19 0-.44.06-.703.138l.282.96Zm.422-.098c-.006 0 .038 0 .15.055.106.052.244.138.417.267l.6-.8a3.662 3.662 0 0 0-.58-.366 1.365 1.365 0 0 0-.587-.156v1Zm.543.303c.2.17.33.302.407.399a.521.521 0 0 1 .06.088c.006.013-.01-.014-.01-.071h1c0-.266-.15-.49-.267-.64a4.076 4.076 0 0 0-.542-.537l-.648.76Zm.457.416c0-.003.001-.03.02-.066a.171.171 0 0 1 .056-.063c.008-.004-.003.004-.045.013a.977.977 0 0 1-.188.014v1c.254 0 .527-.035.752-.172A.826.826 0 0 0 34.22 20h-1Zm-.157-.102h-.843v1h.843v-1Zm-.871.001c-1.135.064-3.233.317-6.278.755l.142.99c3.05-.438 5.107-.685 6.192-.746l-.056-.999Zm-6.707 1.244-.047 4.007 1 .012.047-4.008-1-.011Zm-.047 4.013c0 .366-.071.549-.133.63-.042.056-.112.112-.304.112v1c.433 0 .832-.15 1.102-.509.25-.332.335-.77.335-1.233h-1Zm-.437.742c.055 0 .084.013.066.007a.753.753 0 0 1-.078-.033c-.082-.04-.2-.106-.358-.203l-.526.85c.17.106.322.192.45.254.065.03.13.06.196.08.058.02.148.045.25.045v-1Zm-.42-.257c-.298-.14-.601-.235-.892-.235v1c.084 0 .234.03.466.14l.426-.905Zm-.892-.235c-.886 0-1.66.294-2.288.886l.685.728c.433-.408.957-.614 1.602-.614v-1Zm-2.278.877c-.817.726-1.223 1.678-1.223 2.81h1c0-.867.298-1.54.887-2.063l-.664-.748Zm-1.223 2.81c0 1.157.434 2.147 1.284 2.944l.683-.73c-.65-.61-.966-1.338-.966-2.213h-1Zm1.272 2.932c.903.903 2.172 1.319 3.729 1.319v-1c-1.382 0-2.362-.366-3.022-1.026l-.707.707Zm3.729 1.319c2.043 0 3.813-.678 5.283-2.03l-.677-.737c-1.28 1.178-2.806 1.767-4.607 1.767v1Zm5.298-2.045c.307-.307.507-.37.608-.37v-1c-.493 0-.934.282-1.315.663l.707.707Zm.608-.37c.055 0 .085.014.116.041l.658-.752a1.153 1.153 0 0 0-.774-.288v1Zm.138.06c.03.023.034.033.03.026a.098.098 0 0 1-.012-.046h1c0-.335-.177-.594-.404-.77l-.614.79Zm.018-.02c0 .641-.47 1.355-1.784 2.095l.49.872c1.404-.791 2.294-1.765 2.294-2.967h-1Zm-1.773 2.09c-1.214.642-2.638.972-4.29.972v1c1.787 0 3.378-.357 4.758-1.09l-.468-.883Zm-4.29.972c-1.647 0-3.034-.468-4.187-1.39l-.625.78c1.347 1.078 2.96 1.61 4.813 1.61v-1Zm-4.158-1.365c-1.095-1.023-1.623-2.206-1.623-3.572h-1c0 1.665.66 3.106 1.94 4.303l.683-.731Zm-1.623-3.572c0-.986.33-1.873 1.008-2.678l-.765-.644c-.822.976-1.243 2.088-1.243 3.322h1Zm.979-2.647c.763-.763 1.915-1.235 3.527-1.355l-.074-.997c-1.763.13-3.174.659-4.16 1.645l.707.707Zm3.537-1.355c.412-.04.747-.254.938-.629.17-.335.204-.755.17-1.197l-.997.077c.028.37-.017.572-.065.666a.147.147 0 0 1-.047.061.2.2 0 0 1-.093.026l.094.996Zm1.109-1.806-.07-1.898-1 .037.07 1.898 1-.037Zm-.645-2.374c-1.643.25-2.943.466-3.897.648-.93.176-1.588.33-1.9.466l.4.916c.188-.082.725-.217 1.686-.4.937-.178 2.223-.392 3.861-.642l-.15-.988Zm-5.85 1.141c-.22.129-.373.166-.474.166v1c.338 0 .668-.12.98-.304l-.506-.862Zm-.474.166c-.042 0-.151-.019-.351-.112a5.134 5.134 0 0 1-.723-.432l-.57.822c.319.22.61.395.871.517.253.118.519.205.773.205v-1Zm-1.056-.53a7.279 7.279 0 0 1-.622-.518 1.03 1.03 0 0 1-.11-.12c-.028-.039.038.031.038.168h-1c0 .199.104.352.15.416.061.085.14.17.224.252.17.166.411.366.714.596l.607-.794Zm-.694-.47c0-.043.003-.07.005-.082.003-.014.003-.002-.01.024a.356.356 0 0 1-.307.183v-1a.644.644 0 0 0-.588.37c-.083.167-.1.354-.1.505h1Z"/></svg>