<svg xmlns="http://www.w3.org/2000/svg" width="50" height="50" fill="none"><path fill="#333" d="M30.625 15.219c.313 0 .719.226 1.219.68.5.468.75.804.75 1.007 0 .188-.094.282-.282.282-.062 0-.226-.04-.492-.118a5.053 5.053 0 0 0-.914-.07c-1.562 0-3.531.188-5.906.563.234.109.453.257.656.445.578.594.867 1.008.867 1.242 0 .156-.093.344-.28.563-.126.218-.274.632-.446 1.242-.172.64-.36 1.265-.563 1.875l3.164-.633a6.7 6.7 0 0 0 .961-.54c.266-.109.47-.163.61-.163.203 0 .523.218.96.656.423.531.634.914.634 1.148 0 .297-.063.54-.188.727-.25.313-.438.781-.563 1.406-.625 2.516-1.312 4.39-2.062 5.625-.625 1.25-1.188 2.188-1.688 2.813-.125.125-.25.187-.375.187-.062 0-.093-.062-.093-.187 0-.157.054-.336.164-.54.531-1.312 1.086-2.968 1.664-4.968.531-2.203.828-3.68.89-4.43 0-.312-.187-.468-.562-.468-.5 0-1.813.218-3.938.656a36.222 36.222 0 0 1-1.57 3.656c-.89 1.547-1.703 2.734-2.437 3.563-.782.859-1.602 1.609-2.461 2.25-.297.187-.485.28-.563.28-.062 0-.093-.03-.093-.093s.03-.125.093-.188c.75-.687 1.719-1.968 2.907-3.843.968-1.828 1.773-3.563 2.414-5.203-1.922.484-3.258.914-4.008 1.289-.25.11-.407.164-.469.164-.188 0-.39-.133-.61-.399-.218-.218-.328-.43-.328-.633 0-.156.047-.367.141-.632.531-2 .883-3.875 1.055-5.625-.14.047-.258.07-.352.07-.312 0-.664-.21-1.054-.633-.422-.453-.633-.765-.633-.937 0-.14.093-.211.281-.211.266 0 .453.031.563.093h.562c.5 0 1.063-.062 1.688-.187l8.437-1.219c.875-.125 1.5-.273 1.875-.445a.703.703 0 0 1 .375-.117Zm-7.031 8.039c.422-1.438.578-2.93.468-4.477 0-.36-.062-.71-.187-1.054a40.769 40.769 0 0 0-3.117.585l.023.118c0 .312-.11.75-.328 1.312-.344 1.625-.515 2.899-.515 3.82 0 .25.195.375.585.375.047 0 .204-.039.47-.117l2.6-.562Z"/><path fill="#333" d="m31.844 15.898.342-.364-.007-.006-.335.37Zm-.024 1.172.141-.48-.024-.006-.024-.005-.093.491Zm-6.82.492-.078-.493-1.616.255 1.483.692.211-.453Zm.656.446.359-.349-.01-.01-.01-.009-.339.368Zm.586 1.805-.38-.326-.03.036-.024.041.434.248Zm-.445 1.242-.481-.136-.002.006.483.13Zm-.563 1.875-.474-.158-.272.817.844-.169-.098-.49Zm3.164-.633.099.49.055-.01.052-.024-.206-.456Zm.961-.54-.19-.462-.046.02-.041.027.277.416Zm1.57.493.392-.31-.018-.023-.02-.02-.353.353Zm.446 1.875.39.312.014-.017.012-.018-.416-.277Zm-.563 1.406.486.12.003-.01.002-.012-.49-.098Zm-2.062 5.625-.427-.26-.011.018-.01.019.448.223Zm-1.688 2.813.354.353.02-.02.017-.02-.39-.313Zm-.304-.54.44.238.013-.024.01-.026-.463-.187Zm1.664-4.968.48.139.003-.011.003-.01-.486-.118Zm.89-4.43.499.042.002-.021v-.02h-.5Zm-4.5.188-.1-.49-.272.056-.097.26.47.174Zm-1.57 3.656.433.25.008-.013.006-.013-.447-.224Zm-2.437 3.563.37.336.004-.005-.374-.331Zm-2.461 2.25.267.422.016-.01.016-.012-.3-.4Zm-.563 0-.338-.37-.008.008-.007.008.353.353Zm2.907-3.844.422.267.01-.016.01-.017-.442-.234Zm2.414-5.203.465.182.353-.904-.94.237.122.485Zm-4.008 1.289.2.458.012-.005.011-.006-.223-.447Zm-1.078-.235.386-.317-.016-.02-.017-.016-.353.353Zm-.188-1.265.472.166.006-.019.005-.019-.483-.128Zm1.055-5.625.497.049.076-.767-.731.243.158.475Zm-1.406-.563.366-.34-.366.34Zm.21-1.055-.248.435.116.066h.133v-.5Zm2.25-.187-.071-.495-.013.002-.014.003.099.49Zm8.438-1.219-.07-.495h-.002l.072.495Zm1.875-.445.208.454.03-.013.027-.017-.265-.424Zm-6.656 7.922.105.489.29-.063.084-.285-.48-.141Zm.468-4.477h-.5v.018l.002.018.498-.036Zm-.187-1.054.47-.171-.14-.386-.406.062.076.495Zm-3.117.585-.115-.486-.47.111.095.474.49-.099Zm.023.118h.5v-.05l-.01-.048-.49.098Zm-.328 1.312-.466-.181-.015.038-.008.04.49.103Zm.54 4.078-.106-.488-.018.003-.018.006.141.48Zm9.632-8.101c.04 0 .133.016.296.106.158.089.354.233.587.444l.671-.741a4.314 4.314 0 0 0-.771-.576c-.244-.136-.51-.233-.783-.233v1Zm.877.544c.24.225.403.403.503.537.05.067.076.113.088.14.014.029 0 .014 0-.034h1c0-.275-.153-.524-.286-.703a5.327 5.327 0 0 0-.621-.67l-.684.73Zm.592.643c0 .017-.004-.062.076-.142.08-.08.16-.076.142-.076v1c.171 0 .391-.043.565-.217a.782.782 0 0 0 .217-.565h-1Zm.218-.218c.028 0 .039.003.02 0a6.105 6.105 0 0 1-.37-.097l-.283.959c.137.04.254.072.348.095.076.018.187.043.285.043v-1Zm-.4-.11a5.541 5.541 0 0 0-1.006-.078v1c.34 0 .612.022.822.062l.184-.983Zm-1.006-.078c-1.598 0-3.595.192-5.984.569l.156.987c2.361-.373 4.302-.556 5.828-.556v-1Zm-6.117 1.516c.184.086.36.204.528.36l.678-.736c-.238-.22-.5-.398-.784-.53l-.422.906Zm.509.34c.28.289.476.519.599.694.14.2.126.25.126.2h1c0-.285-.157-.56-.306-.773a6.895 6.895 0 0 0-.702-.818l-.717.698Zm.725.894c0-.021.006-.013-.017.034a1.052 1.052 0 0 1-.143.203l.759.65c.207-.24.401-.545.401-.887h-1Zm-.215.314c-.159.279-.321.748-.492 1.355l.962.271c.173-.611.307-.97.398-1.13l-.868-.496Zm-.494 1.361a32.33 32.33 0 0 1-.554 1.847l.949.316c.206-.62.396-1.254.57-1.904l-.965-.259Zm.018 2.495 3.165-.633-.197-.98-3.164.632.196.981Zm3.272-.667a7.186 7.186 0 0 0 1.033-.58l-.555-.831a6.196 6.196 0 0 1-.889.499l.41.912Zm.946-.533c.255-.105.381-.126.419-.126v-1c-.244 0-.524.088-.8.201l.38.925Zm.419-.126c-.056 0-.03-.02.11.077.124.084.289.224.497.433l.707-.708a4.684 4.684 0 0 0-.64-.551c-.179-.122-.416-.251-.674-.251v1Zm.57.467c.201.254.34.458.427.616.095.171.096.234.096.221h1c0-.246-.103-.492-.22-.704a5.636 5.636 0 0 0-.52-.755l-.784.622Zm.523.837c0 .23-.048.367-.103.45l.832.554c.195-.292.271-.639.271-1.004h-1Zm-.077.415c-.322.4-.53.958-.663 1.62l.98.196c.118-.588.285-.968.463-1.192l-.78-.624Zm-.658 1.598c-.62 2.499-1.294 4.316-2.004 5.486l.854.519c.79-1.3 1.492-3.232 2.12-5.764l-.97-.241Zm-2.024 5.522c-.62 1.238-1.163 2.139-1.63 2.723l.78.625c.532-.665 1.113-1.64 1.744-2.901l-.894-.447Zm-1.594 2.682a.261.261 0 0 1-.058.047l.009-.002a.114.114 0 0 1 .027-.004v1c.305 0 .55-.154.73-.334l-.708-.707Zm-.021.041a.428.428 0 0 1 .376.23c.037.073.03.12.03.083h-1c0 .088.008.228.076.364a.573.573 0 0 0 .517.323v-1Zm.406.313c0-.044.017-.14.104-.302l-.88-.474c-.132.244-.224.507-.224.776h1Zm.127-.352c.54-1.334 1.1-3.008 1.681-5.017l-.96-.278c-.576 1.99-1.125 3.629-1.648 4.92l.927.375Zm1.687-5.039c.53-2.197.836-3.71.903-4.505l-.997-.083c-.058.705-.345 2.144-.878 4.354l.972.234Zm.904-4.547c0-.26-.082-.537-.32-.735-.22-.184-.497-.233-.742-.233v1c.06 0 .096.006.112.01.015.005.007.005-.01-.01a.145.145 0 0 1-.039-.051c-.005-.013 0-.01 0 .02h1Zm-1.062-.968c-.297 0-.788.062-1.442.17-.665.111-1.531.277-2.596.496l.201.98a71.88 71.88 0 0 1 2.56-.49c.66-.11 1.074-.157 1.277-.157v-1Zm-4.407.983a35.714 35.714 0 0 1-1.548 3.605l.894.448a36.713 36.713 0 0 0 1.593-3.707l-.939-.346Zm-1.534 3.58c-.883 1.532-1.676 2.688-2.378 3.48l.748.663c.766-.864 1.598-2.084 2.497-3.644l-.867-.5ZM20.435 31.1a16.84 16.84 0 0 1-2.39 2.186l.598.801a17.84 17.84 0 0 0 2.532-2.314l-.74-.673Zm-2.358 2.164c-.143.09-.248.15-.32.186a.63.63 0 0 1-.063.029c-.015.005.022-.011.087-.011v1a.746.746 0 0 0 .246-.046c.06-.021.12-.049.177-.077.115-.058.252-.138.407-.236l-.534-.845Zm-.296.204c.046 0 .172.011.284.123a.408.408 0 0 1 .122.283h-1c0 .108.028.281.17.424.143.142.316.17.424.17v-1Zm.407.406c0 .117-.061.174-.053.166l-.707-.707a.766.766 0 0 0-.24.541h1Zm-.069.181c.803-.735 1.8-2.066 2.99-3.945l-.844-.535c-1.185 1.871-2.124 3.103-2.822 3.743l.676.737Zm3.01-3.978c.976-1.842 1.79-3.594 2.438-5.255l-.931-.364c-.633 1.62-1.429 3.337-2.39 5.15l.883.469Zm1.85-5.922c-1.922.484-3.305.925-4.109 1.327l.447.894c.697-.348 1.985-.767 3.907-1.252l-.245-.97Zm-4.086 1.316a4.096 4.096 0 0 1-.325.126c-.014.004.011-.004.057-.004v1c.128 0 .258-.044.33-.07.094-.033.209-.08.34-.136l-.402-.916Zm-.268.122c.028 0 .024.01-.02-.018a.992.992 0 0 1-.203-.198l-.772.635c.24.291.572.58.995.58v-1Zm-.256-.252c-.173-.173-.181-.264-.181-.28h-1c0 .392.21.723.474.987l.707-.707Zm-.181-.28c0-.07.024-.218.112-.466l-.943-.333c-.1.284-.17.558-.17.8h1Zm.123-.504c.537-2.022.895-3.923 1.07-5.704l-.996-.098c-.169 1.719-.515 3.567-1.04 5.545l.966.257Zm.414-6.228a.715.715 0 0 1-.194.045v1c.17 0 .344-.04.51-.096l-.316-.949Zm-.194.045c-.093 0-.319-.074-.688-.473l-.733.68c.412.445.89.793 1.421.793v-1Zm-.688-.474a4.535 4.535 0 0 1-.427-.513.862.862 0 0 1-.074-.128c-.012-.028.002-.008.002.045h-1c0 .138.04.262.08.355.043.097.1.194.163.288.127.187.305.4.524.635l.732-.681Zm-.5-.596c0 .02-.003.06-.025.11a.335.335 0 0 1-.104.132c-.078.058-.135.047-.089.047v-1a.84.84 0 0 0-.51.152.684.684 0 0 0-.271.559h1Zm-.218.289c.115 0 .2.007.258.016.062.01.072.02.056.012l.497-.869c-.232-.132-.535-.16-.811-.16v1Zm.563.093h.562v-1h-.563v1Zm.562 0c.54 0 1.137-.067 1.786-.197l-.197-.98c-.6.12-1.13.177-1.589.177v1Zm1.759-.192 8.438-1.219-.143-.99-8.438 1.22.143.989Zm8.437-1.219c.88-.126 1.567-.281 2.012-.486l-.416-.909c-.305.14-.869.281-1.738.405l.142.99Zm2.069-.516c.06-.037.094-.041.11-.041v-1c-.234 0-.45.074-.64.193l.53.848Zm-6.442 7.639c.44-1.497.602-3.049.488-4.653l-.997.07a12.11 12.11 0 0 1-.45 4.301l.96.282Zm.49-4.618c0-.418-.073-.828-.218-1.225l-.94.341c.105.29.157.584.157.884h1Zm-.764-1.549c-1.227.19-2.28.387-3.156.594l.23.973c.842-.2 1.868-.392 3.078-.578l-.152-.989Zm-3.532 1.179.024.117.98-.196-.023-.118-.98.197Zm.014.019c0 .216-.08.583-.294 1.131l.932.362c.224-.576.362-1.085.362-1.493h-1Zm-.317 1.209c-.346 1.636-.526 2.95-.526 3.924h1c0-.87.163-2.104.504-3.717l-.978-.207Zm-.526 3.924c0 .28.122.54.377.702.216.138.476.172.708.172v-1a.752.752 0 0 1-.152-.012c-.03-.006-.032-.011-.017-.002a.195.195 0 0 1 .084.14h-1Zm1.085.875c.063 0 .122-.011.15-.017.038-.007.08-.017.124-.028.088-.022.2-.053.336-.093l-.282-.96a7.972 7.972 0 0 1-.366.1h-.004c.001 0 .018-.003.042-.003v1Zm.575-.129 2.601-.563-.21-.977-2.602.563.21.977Z"/></svg>