<svg xmlns="http://www.w3.org/2000/svg" width="50" height="50" fill="none"><path fill="#333" d="M22.938 14.938c.187 0 .484.164.89.492.406.297.61.57.61.82 0 .234-.086.477-.258.727-.14.28-.211.57-.211.867 0 1.828 1.187 4.5 3.562 8.015 2.25 3.36 4.25 5.328 6 5.907.5.172.75.382.75.632 0 .157-.343.399-1.031.727-.688.313-1.219.469-1.594.469-.437 0-1.18-.586-2.226-1.758-1.407-1.547-2.75-3.555-4.032-6.023-1.28-2.422-2.125-4.735-2.53-6.938-.204-1.25-.43-1.875-.68-1.875-.25 0-1.29.516-3.118 1.547-.625.344-1.117.515-1.476.515-.328 0-.727-.18-1.196-.539-.453-.328-.68-.585-.68-.773 0-.172.579-.336 1.735-.492 1.422-.219 2.578-.531 3.469-.938.562-.234.992-.5 1.289-.797.281-.39.523-.585.727-.585Z"/><path fill="#333" d="m23.828 15.43-.314.389.01.007.01.007.294-.403Zm.352 1.547-.412-.284-.02.029-.015.031.447.224Zm3.351 8.882.416-.278-.001-.002-.415.28Zm6 5.907.163-.473-.006-.002-.157.475Zm-.281 1.359.207.455.008-.004-.215-.451Zm-3.82-1.29.373-.332-.003-.003-.37.336Zm-4.032-6.023.444-.23-.002-.003-.442.233Zm-2.53-6.937-.494.08.002.01.491-.09Zm-3.798-.328.241.438.005-.003-.246-.435Zm-2.672-.024.305-.396-.011-.008-.294.404Zm1.055-1.265.067.495.01-.001-.077-.494Zm3.469-.938-.192-.461-.008.003-.008.003.208.455Zm1.289-.797.354.354.028-.029.024-.032-.406-.293Zm.727-.085c-.035 0-.005-.01.12.06.114.063.265.166.456.32l.628-.777a4.3 4.3 0 0 0-.6-.418c-.17-.095-.383-.185-.605-.185v1Zm.595.395c.18.132.29.24.35.323.061.08.055.11.055.094h1a1.16 1.16 0 0 0-.252-.69 2.62 2.62 0 0 0-.563-.534l-.59.807Zm.404.417c0 .107-.038.252-.17.443l.825.567c.212-.31.346-.649.346-1.01h-1Zm-.204.503a2.416 2.416 0 0 0-.264 1.09h1c0-.214.05-.427.158-.643l-.894-.447Zm-.264 1.09c0 1.014.326 2.213.933 3.579.61 1.372 1.518 2.945 2.715 4.717l.829-.56c-1.178-1.743-2.052-3.263-2.63-4.563-.58-1.306-.847-2.358-.847-3.172h-1Zm3.647 8.295c1.136 1.696 2.22 3.058 3.252 4.074 1.029 1.012 2.03 1.706 3.006 2.028l.314-.95c-.774-.255-1.647-.835-2.619-1.79-.967-.954-2.009-2.256-3.122-3.919l-.831.557Zm6.253 6.1c.223.077.345.148.402.197.05.042.01.028.01-.037h1c0-.314-.164-.558-.365-.727-.192-.163-.445-.283-.722-.378l-.325.946Zm.412.16c0-.139.071-.21.057-.193a.65.65 0 0 1-.102.084 5.146 5.146 0 0 1-.701.385l.43.902c.353-.168.64-.325.846-.47.102-.072.204-.154.284-.248a.71.71 0 0 0 .186-.46h-1Zm-.738.272c-.675.307-1.124.424-1.387.424v1c.488 0 1.101-.196 1.8-.514l-.413-.91Zm-1.387.424s-.012 0-.041-.008a.738.738 0 0 1-.122-.05 2.48 2.48 0 0 1-.412-.274c-.338-.267-.763-.683-1.278-1.26l-.746.667c.532.595 1 1.059 1.405 1.378.202.16.398.291.587.385.184.091.392.162.607.162v-1ZM29.8 31.5c-1.37-1.507-2.69-3.476-3.958-5.918l-.887.46c1.295 2.496 2.662 4.543 4.105 6.13l.74-.672Zm-3.96-5.921c-1.262-2.387-2.086-4.651-2.481-6.795l-.984.182c.418 2.262 1.282 4.623 2.581 7.08l.884-.467Zm-2.48-6.784c-.102-.634-.215-1.14-.345-1.497a1.836 1.836 0 0 0-.247-.484c-.1-.13-.29-.314-.58-.314v1c-.166 0-.235-.106-.215-.08.015.02.052.082.102.22.097.267.198.699.299 1.315l.987-.16ZM22.189 16.5c-.103 0-.2.024-.27.044a2.742 2.742 0 0 0-.252.088 9.627 9.627 0 0 0-.668.307 49.74 49.74 0 0 0-2.173 1.172l.491.871c.911-.514 1.62-.895 2.127-1.147.255-.127.451-.217.595-.274.072-.029.123-.046.157-.056.043-.013.032-.005-.008-.005v-1Zm-3.359 1.609c-.61.335-1.009.453-1.235.453v1c.492 0 1.078-.225 1.717-.577l-.482-.876Zm-1.235.453c-.16 0-.448-.096-.891-.435l-.609.793c.495.38 1.003.642 1.5.642v-1Zm-.902-.444a2.684 2.684 0 0 1-.428-.364.424.424 0 0 1-.057-.077c-.004-.008.012.02.012.073h-1c0 .282.16.511.294.664.148.169.352.34.592.514l.587-.81Zm-.473-.368c0 .253-.199.339-.14.305.018-.01.079-.039.21-.076.254-.072.659-.148 1.231-.226l-.134-.99c-.584.078-1.046.162-1.37.254-.158.045-.314.1-.44.173-.086.05-.357.221-.357.56h1Zm1.31.002c1.448-.223 2.653-.545 3.6-.977l-.415-.91c-.834.38-1.941.684-3.337.899l.152.988Zm3.585-.97c.598-.25 1.092-.546 1.45-.905l-.707-.707c-.234.235-.6.47-1.127.689l.384.923Zm1.503-.966c.127-.177.228-.284.3-.343.077-.062.08-.036.02-.036v-1c-.262 0-.482.125-.647.258-.17.136-.33.322-.485.536l.812.585Z"/></svg>