<svg xmlns="http://www.w3.org/2000/svg" width="50" height="50" fill="none"><path fill="#333" d="M24.063 15.523c.265 0 .523.172.773.516.234.36.352.68.352.961 0 .203-.157.43-.47.68-.5.484-1.398 1.578-2.695 3.28-.828 1.173-1.242 1.915-1.242 2.227 0 .204.094.36.282.47l3.187 1.288c2.469-2.968 3.945-4.953 4.43-5.953.062-.14.148-.21.258-.21.265 0 .625.28 1.078.843.343.469.515.875.515 1.219 0 .5-.242.828-.726.984-.797.344-2.461 1.922-4.992 4.735-2.375 2.703-3.563 4.304-3.563 4.804 0 .235.094.352.281.352l7.547-1.735c-.781-1.406-1.172-2.172-1.172-2.297a.72.72 0 0 1 .282.094c1.125.688 2.062 1.438 2.812 2.25.688.89 1.031 1.547 1.031 1.969 0 .406-.093.766-.281 1.078-.156.234-.313.352-.469.352-.375 0-.664-.282-.867-.844-.14-.375-.406-.93-.797-1.664l-7.992 2.297c-.61.156-1.055.312-1.336.468-.36.188-.602.282-.727.282-.14 0-.484-.274-1.03-.82-.438-.438-.657-.758-.657-.962 0-.25.14-.492.422-.726.75-.516 2.367-2.258 4.851-5.227l-3.96-1.71c-.563-.22-.844-.563-.844-1.032 0-.547.226-.992.68-1.336.53-.36 1.328-1.265 2.39-2.718 1.203-1.594 2-2.844 2.39-3.75.063-.11.15-.165.259-.165Z"/><path fill="#333" d="m24.836 16.04.419-.274-.007-.01-.008-.011-.404.294Zm-.117 1.64-.313-.39-.018.014-.017.017.348.359Zm-2.696 3.28-.397-.302-.006.007-.005.007.408.289Zm-.96 2.696-.252.432.03.018.034.014.188-.464Zm3.187 1.29-.188.463.339.137.233-.281-.384-.32Zm4.43-5.954.45.218.003-.007.004-.008-.457-.203Zm1.336.633.403-.296-.007-.009-.007-.009-.39.314Zm-.211 2.203-.154-.476-.023.008-.021.009.198.46Zm-4.992 4.735-.372-.335-.004.005.375.33Zm-3.282 5.156v.5h.057l.055-.013-.112-.487Zm7.547-1.735.112.488.648-.15-.323-.58-.437.242Zm-1.172-2.297v-.5h-.5v.5h.5Zm.282.094.26-.426-.018-.012-.019-.009-.224.447ZM31 30.031l.396-.305-.014-.018-.015-.016-.367.34Zm.75 3.047.416.277.007-.01.006-.01-.429-.257Zm-1.336-.492.47-.17-.002-.006-.468.176Zm-.797-1.664.442-.235-.19-.358-.39.112.138.48Zm-7.992 2.297.124.484.007-.002.007-.002-.138-.48Zm-1.336.468.231.444.012-.006-.243-.438Zm-1.992-2.226-.283-.412-.02.013-.017.015.32.384Zm4.851-5.227.384.321.43-.514-.615-.266-.199.46Zm-3.96-1.71.198-.46-.009-.003-.008-.004-.181.466Zm-.165-2.368-.28-.414-.011.008-.01.008.301.398Zm2.391-2.718-.399-.302-.005.006.404.296Zm2.39-3.75-.433-.249-.014.025-.011.026.459.197Zm.259.335c.028 0 .155.017.369.31l.808-.588c-.287-.394-.675-.722-1.177-.722v1Zm.354.29c.207.317.27.541.27.687h1c0-.417-.17-.833-.432-1.234l-.838.546Zm.27.687c0-.03.012-.02-.028.038-.041.06-.119.144-.253.251l.625.781c.327-.262.657-.619.657-1.07h-1Zm-.316.32c-.532.516-1.453 1.64-2.745 3.338l.795.606c1.301-1.709 2.177-2.772 2.646-3.225l-.696-.718Zm-2.756 3.352a17.39 17.39 0 0 0-.96 1.48c-.11.197-.199.377-.262.538-.059.15-.112.325-.112.497h1c0 .017-.001-.019.043-.132.04-.103.107-.24.204-.415.195-.349.494-.81.904-1.39l-.817-.578Zm-1.334 2.515c0 .396.201.71.53.901l.503-.864a.173.173 0 0 1-.031-.022c-.004-.004-.004-.005-.003-.002a.027.027 0 0 1 .003.005s-.002-.005-.002-.017h-1Zm.594.933 3.188 1.289.375-.927-3.188-1.29-.375.928Zm3.76 1.145c1.237-1.488 2.23-2.734 2.975-3.736.74-.994 1.255-1.773 1.52-2.319l-.9-.436c-.22.454-.686 1.168-1.422 2.158-.731.982-1.711 2.213-2.942 3.694l.768.639Zm4.502-6.07c.01-.025.007-.004-.03.026a.267.267 0 0 1-.17.06v-1c-.386 0-.61.273-.714.508l.914.406Zm-.2.086c-.034 0 .012-.011.161.105.138.108.314.286.528.553l.779-.628a4.476 4.476 0 0 0-.69-.713c-.211-.164-.477-.317-.777-.317v1Zm.675.64c.32.436.42.737.42.923h1c0-.502-.246-1.014-.613-1.515l-.807.592Zm.42.923c0 .168-.04.264-.085.324-.045.06-.128.13-.296.184l.307.952c.317-.102.597-.275.794-.542.198-.268.28-.586.28-.918h-1Zm-.425.525c-.491.212-1.165.754-1.992 1.538-.846.802-1.905 1.91-3.174 3.321l.743.669c1.262-1.402 2.3-2.489 3.119-3.265.837-.794 1.394-1.213 1.7-1.345l-.396-.918Zm-5.17 4.864c-1.19 1.355-2.092 2.443-2.698 3.26-.302.408-.539.758-.702 1.047-.081.144-.15.281-.198.41a1.189 1.189 0 0 0-.089.417h1c0 .026-.005.012.023-.06.025-.066.068-.157.135-.275.134-.237.343-.55.634-.943.582-.784 1.462-1.848 2.646-3.197l-.751-.66Zm-3.687 5.134c0 .17.032.391.18.576a.752.752 0 0 0 .601.276v-1c.005 0 .031 0 .07.016.04.017.08.046.11.084.054.067.039.112.039.048h-1Zm.893.839 7.547-1.734-.224-.975-7.547 1.735.224.974Zm7.872-2.464c-.39-.702-.68-1.239-.87-1.614a8.662 8.662 0 0 1-.208-.427 1.358 1.358 0 0 1-.04-.099c-.012-.036.01.01.01.085h-1c0 .108.033.205.044.24.02.054.043.114.07.175.055.125.134.286.233.48.2.392.496.94.887 1.645l.874-.485Zm-1.609-1.555a.233.233 0 0 1-.045-.003l.004.001c.018.006.05.019.099.044l.447-.895c-.129-.064-.315-.146-.505-.146v1Zm.02.02c1.094.669 1.993 1.39 2.707 2.163l.734-.678c-.786-.852-1.762-1.63-2.919-2.337l-.521.853Zm2.678 2.13c.334.433.573.794.727 1.086.158.304.2.487.2.577h1c0-.332-.13-.688-.315-1.04a8.725 8.725 0 0 0-.82-1.234l-.792.61ZM31.531 32c0 .326-.074.595-.21.82l.858.515c.24-.398.352-.849.352-1.335h-1Zm-.197.8a.599.599 0 0 1-.118.142c-.014.01.01-.012.065-.012v1c.422 0 .709-.31.885-.575l-.832-.554Zm-.053.13c-.05 0-.216-.014-.397-.514l-.94.34c.226.625.637 1.174 1.337 1.174v-1Zm-.399-.52c-.152-.407-.431-.985-.823-1.723l-.883.47c.389.73.641 1.262.77 1.604l.936-.35Zm-1.403-1.969-7.992 2.297.276.961 7.992-2.297-.276-.96Zm-7.978 2.293c-.62.16-1.116.328-1.455.516l.486.875c.223-.124.618-.268 1.217-.422l-.248-.969Zm-1.443.51a4.19 4.19 0 0 1-.4.188.972.972 0 0 1-.104.035c-.023.006-.017.002.009.002v1c.16 0 .325-.054.455-.104.146-.056.314-.136.502-.234l-.462-.887Zm-.495.225c.1 0 .147.039.102.013a1.305 1.305 0 0 1-.154-.11 8.056 8.056 0 0 1-.626-.577l-.707.707c.278.278.516.499.71.653.096.076.192.146.285.198a.805.805 0 0 0 .39.116v-1Zm-.678-.674a3.732 3.732 0 0 1-.433-.497c-.096-.141-.077-.166-.077-.11h-1c0 .258.129.495.251.674.134.196.322.41.552.64l.707-.707Zm-.51-.608c0-.042.02-.157.242-.342l-.64-.768c-.341.284-.602.653-.602 1.11h1Zm.205-.314c.427-.293 1.053-.897 1.859-1.765.817-.88 1.848-2.065 3.093-3.553l-.767-.642c-1.24 1.482-2.259 2.652-3.06 3.514-.81.874-1.368 1.4-1.691 1.622l.566.824Zm4.767-6.098-3.961-1.71-.397.917 3.961 1.711.397-.918Zm-3.978-1.718c-.229-.088-.357-.187-.427-.272a.434.434 0 0 1-.098-.293h-1c0 .343.106.66.324.926.211.258.504.442.838.571l.363-.932Zm-.525-.565c0-.383.147-.684.482-.937l-.605-.797c-.572.434-.877 1.024-.877 1.734h1Zm.46-.922c.319-.216.684-.57 1.091-1.033.412-.468.886-1.071 1.423-1.804l-.808-.59c-.526.72-.98 1.296-1.366 1.734-.39.444-.689.722-.9.865l.56.828Zm2.51-2.831c1.207-1.6 2.034-2.89 2.45-3.854l-.918-.395c-.366.848-1.133 2.059-2.331 3.646l.798.603Zm2.425-3.803c0-.001-.015.025-.055.05a.234.234 0 0 1-.122.037v-1c-.319 0-.556.18-.691.416l.868.497Z"/></svg>