<svg xmlns="http://www.w3.org/2000/svg" width="50" height="50" fill="none"><path fill="#333" d="M30.25 15.781c.266 0 .625.242 1.078.727.531.5.797.883.797 1.148 0 .625-.125 1-.375 1.125-.375.25-.688.688-.938 1.313-.687 1.515-1.312 2.765-1.875 3.75-.625 1.125-1.218 2.07-1.78 2.836 1.765.968 3.241 1.922 4.429 2.86.39.327.727.843 1.008 1.546.187.812.281 1.398.281 1.758 0 .328-.117.492-.352.492-.265 0-.648-.227-1.148-.68-1.438-1.422-3.234-2.96-5.39-4.617-.891.906-1.938 1.82-3.141 2.742a24.265 24.265 0 0 1-3.938 2.344c-.812.375-1.437.563-1.875.563-.11 0-.172-.032-.187-.094.031 0 .125-.07.281-.211 1.922-1.11 3.516-2.227 4.781-3.352 1-1.015 1.899-2.023 2.696-3.023-1.672-1.219-3.133-2.149-4.383-2.79-.188-.062-.282-.124-.282-.187 0-.125.063-.187.188-.187.469 0 1.148.172 2.04.515.92.313 2.023.797 3.304 1.453.281-.39.539-.773.773-1.148a26.608 26.608 0 0 0 2.203-4.172c.578-1.375.867-2.226.867-2.555 0-.187-.062-.28-.187-.28-.61 0-1.727.273-3.352.82-1.375.437-2.539.89-3.492 1.359-.14.11-.265.164-.375.164-.515 0-1.18-.172-1.992-.516-.86-.328-1.289-.562-1.289-.703 0-.125.125-.187.375-.187.875 0 2.813-.344 5.813-1.032 2.625-.609 4.195-1.117 4.71-1.523.313-.172.555-.258.727-.258Z"/><path fill="#333" d="m31.328 16.508-.365.341.01.012.012.01.343-.363Zm.422 2.273-.224-.447-.027.014-.026.017.277.416Zm-.938 1.313.456.206.005-.01.004-.01-.465-.186Zm-1.875 3.75-.434-.248-.003.005.438.243Zm-1.78 2.836-.404-.296-.338.46.5.274.241-.438Zm4.429 2.86.322-.384-.006-.005-.006-.004-.31.392Zm1.008 1.546.487-.112-.009-.038-.014-.036-.464.186Zm-1.219 1.57-.352.356.008.007.008.008.336-.37Zm-5.39-4.617.304-.397-.351-.27-.31.317.356.35Zm-3.141 2.742.296.403.008-.006-.304-.397Zm-3.938 2.344.21.454.006-.003-.216-.451Zm-2.062.469v-.5h-.64l.155.621.485-.121Zm.281-.211-.25-.433-.045.026-.04.035.335.372Zm4.781-3.352.332.374.013-.011.011-.012-.356-.35Zm2.696-3.023.39.311.326-.408-.422-.307-.294.404Zm-4.383-2.79.228-.444-.034-.018-.036-.012-.158.475Zm1.945.141-.18.467.01.004.01.003.16-.474Zm3.305 1.453-.228.445.382.196.252-.348-.406-.293Zm.773-1.148-.42-.272-.004.007.424.265Zm2.203-4.172-.46-.194.46.194Zm-2.672-2.015.152.476.008-.003-.16-.473Zm-3.492 1.359-.22-.449-.046.023-.04.031.306.395Zm-2.367-.352.195-.46-.008-.004-.009-.003-.178.467Zm4.898-1.922.112.488h.002l-.113-.488Zm4.711-1.523-.24-.438-.037.02-.032.025.31.393Zm.727.242c-.012 0 .045 0 .19.097.136.092.31.244.523.471l.73-.683a4.23 4.23 0 0 0-.695-.618c-.215-.145-.47-.267-.748-.267v1Zm.735.59c.253.239.425.433.53.584.113.163.11.222.11.201h1c0-.286-.136-.552-.288-.771a4.908 4.908 0 0 0-.666-.741l-.686.728Zm.64.785c0 .286-.03.476-.068.592-.038.114-.066.104-.03.086l.447.895c.285-.143.445-.404.532-.665.086-.259.119-.569.119-.908h-1Zm-.152.71c-.492.327-.855.867-1.125 1.542l.929.371c.23-.574.492-.91.75-1.082l-.554-.832Zm-1.116 1.521c-.684 1.508-1.302 2.742-1.854 3.709l.869.496c.573-1.003 1.205-2.268 1.896-3.792l-.91-.413ZM28.5 23.601c-.618 1.113-1.2 2.039-1.747 2.783l.806.592c.579-.788 1.184-1.752 1.816-2.89l-.875-.485Zm-1.584 3.517c1.748.96 3.2 1.898 4.36 2.814l.62-.785c-1.215-.96-2.717-1.928-4.5-2.906l-.48.877Zm4.348 2.804c.305.256.601.689.866 1.35l.928-.372c-.298-.745-.674-1.343-1.15-1.744l-.644.766Zm.843 1.276c.187.812.268 1.349.268 1.646h1c0-.422-.106-1.057-.294-1.87l-.974.224Zm.268 1.646a.454.454 0 0 1-.008.1c-.004.013-.003.001.013-.022a.224.224 0 0 1 .086-.07c.034-.016.058-.016.057-.016v1a.801.801 0 0 0 .671-.332c.146-.206.181-.452.181-.66h-1Zm.148-.008c.004 0-.013 0-.056-.015a1.001 1.001 0 0 1-.175-.085 3.79 3.79 0 0 1-.581-.45l-.672.74c.264.24.512.433.743.57.223.132.477.24.741.24v-1Zm-.796-.535c-1.457-1.44-3.27-2.994-5.438-4.659l-.61.794c2.146 1.647 3.926 3.172 5.344 4.576l.704-.711Zm-6.1-4.612c-.87.886-1.9 1.785-3.087 2.695l.608.794a30.372 30.372 0 0 0 3.193-2.788l-.713-.701Zm-3.08 2.69a23.76 23.76 0 0 1-3.857 2.295l.432.902a24.769 24.769 0 0 0 4.018-2.392l-.593-.805Zm-3.85 2.292c-.802.37-1.343.517-1.666.517v1c.553 0 1.261-.229 2.085-.609l-.42-.908Zm-1.666.517c-.016 0 .029-.004.095.029a.398.398 0 0 1 .203.256l-.97.242c.046.186.17.322.32.396.129.065.26.077.352.077v-1Zm-.187.906c.15 0 .263-.068.28-.078.043-.024.082-.051.114-.075.064-.048.14-.113.221-.187l-.668-.743a2.465 2.465 0 0 1-.154.13c-.015.012-.015.01-.003.004a.345.345 0 0 1 .107-.04.472.472 0 0 1 .103-.011v1Zm.531-.278c1.943-1.122 3.566-2.258 4.863-3.411l-.664-.748c-1.234 1.097-2.798 2.195-4.699 3.293l.5.866Zm4.887-3.434a39.22 39.22 0 0 0 2.73-3.063l-.782-.623a38.202 38.202 0 0 1-2.66 2.984l.712.702Zm2.634-3.778c-1.684-1.228-3.168-2.174-4.45-2.83l-.455.89c1.218.624 2.656 1.538 4.316 2.748l.59-.808Zm-4.52-2.86c-.077-.026-.099-.04-.09-.035a.297.297 0 0 1 .07.07.423.423 0 0 1 .081.252h-1c0 .297.216.459.293.51a1.4 1.4 0 0 0 .33.152l.317-.949Zm.061.287a.319.319 0 0 1-.1.213.318.318 0 0 1-.212.1v-1a.688.688 0 0 0-.494.193.687.687 0 0 0-.194.494h1Zm-.312.313c.372 0 .979.142 1.859.482l.36-.933c-.901-.348-1.653-.55-2.219-.55v1Zm1.878.489c.891.302 1.97.775 3.238 1.425l.456-.89c-1.294-.663-2.42-1.16-3.372-1.482l-.322.947Zm3.872 1.272c.287-.4.55-.79.791-1.176l-.848-.53c-.228.365-.48.739-.755 1.121l.812.585Zm.787-1.17a27.111 27.111 0 0 0 2.244-4.25l-.922-.386a26.1 26.1 0 0 1-2.162 4.093l.84.544Zm2.244-4.249c.291-.692.513-1.261.663-1.703.142-.417.244-.787.244-1.046h-1c0 .07-.043.29-.19.724-.14.41-.352.955-.639 1.637l.922.388Zm.907-2.748a.873.873 0 0 0-.131-.489.657.657 0 0 0-.557-.293v1a.349.349 0 0 1-.275-.152c-.05-.073-.038-.12-.038-.066h1Zm-.688-.782c-.704 0-1.896.303-3.511.847l.319.947c1.635-.55 2.677-.794 3.192-.794v-1ZM25.622 18c-1.391.443-2.58.904-3.561 1.387l.44.898c.925-.455 2.065-.9 3.424-1.332L25.622 18Zm-3.648 1.441a.465.465 0 0 1-.092.06c-.015.006-.005-.001.024-.001v1c.272 0 .505-.131.682-.27l-.614-.789Zm-.068.059c-.417 0-1.009-.142-1.797-.476l-.39.92c.837.355 1.573.556 2.187.556v-1Zm-1.814-.483a8.005 8.005 0 0 1-.905-.393.982.982 0 0 1-.153-.096c-.006-.006.01.006.03.037.02.03.061.105.061.216h-1c0 .146.055.26.102.331a.828.828 0 0 0 .15.169c.094.082.21.155.33.22a8.88 8.88 0 0 0 1.029.45l.356-.934Zm-.967-.236a.357.357 0 0 1-.183.307c-.026.013-.038.013-.024.01a.52.52 0 0 1 .082-.004v-1c-.15 0-.338.016-.505.1a.644.644 0 0 0-.37.588h1Zm-.125.313c.943 0 2.94-.36 5.924-1.044l-.223-.975c-3.016.691-4.894 1.019-5.701 1.019v1Zm5.926-1.045c1.318-.306 2.383-.589 3.187-.849.781-.252 1.383-.503 1.72-.768l-.619-.786c-.18.141-.62.348-1.409.603-.766.248-1.8.523-3.106.827l.227.973Zm4.838-1.572c.302-.166.45-.196.486-.196v-1c-.307 0-.645.142-.968.32l.482.876Z"/></svg>