<svg width="50" height="50" viewBox="0 0 50 50" fill="none" xmlns="http://www.w3.org/2000/svg">
<path d="M27.9062 16.625C27.9844 16.625 25.8281 17.0938 21.4375 18.0312C21.5938 18.1875 21.6875 18.4062 21.7188 18.6875C21.7188 18.9219 21.5312 19.3516 21.1562 19.9766C20.375 21.2891 19.9375 22.2656 19.8438 22.9062C19.8438 23.0938 19.9688 23.1875 20.2188 23.1875C20.375 23.1875 21.5312 23 23.6875 22.625C26.6562 22.0625 28.8125 21.7812 30.1562 21.7812C30.5938 21.7812 31.0625 22.0312 31.5625 22.5312C32.0625 23.0156 32.3125 23.4219 32.3125 23.75C32.3125 24.0781 31.9688 25.0156 31.2812 26.5625C30.5156 28.2656 29.6328 29.7812 28.6328 31.1094C27.5859 32.4375 26.4844 33.4297 25.3281 34.0859C25.0312 34.2734 24.8594 34.3672 24.8125 34.3672C24.75 34.3672 24.7188 34.3281 24.7188 34.25L24.8828 34.0156C26.1172 32.6094 27.3594 30.6797 28.6094 28.2266C29.5781 26.1172 30.0625 24.6562 30.0625 23.8438C30.0625 23.4062 29.8125 23.1875 29.3125 23.1875C28.3594 23.1875 26.6328 23.4062 24.1328 23.8438C21.5703 24.2812 20 24.6094 19.4219 24.8281C19.125 24.9219 18.9219 24.9688 18.8125 24.9688C18.6719 24.9688 18.4453 24.7812 18.1328 24.4062C17.8359 24.0312 17.6875 23.7266 17.6875 23.4922C17.6875 23.3203 17.8047 23.0859 18.0391 22.7891C18.3828 22.3984 18.6406 21.9844 18.8125 21.5469L19.7969 19.3672C20.0156 18.8984 20.125 18.5859 20.125 18.4297C19.4531 18.1172 18.8203 17.7266 18.2266 17.2578C18.1172 17.1797 18.0625 17.125 18.0625 17.0938C18.0625 16.9219 18.1797 16.8203 18.4141 16.7891C19.9297 16.7422 21.8125 16.5312 24.0625 16.1562C26.3281 15.7812 27.8438 15.4531 28.6094 15.1719C28.8906 15.0781 29.0938 15.0312 29.2188 15.0312C29.5312 15.0312 29.9766 15.2578 30.5547 15.7109C31.1016 16.1172 31.375 16.4219 31.375 16.625C31.375 16.75 31.1641 16.9531 30.7422 17.2344C30.3203 17.5469 29.6094 18.5156 28.6094 20.1406C28.2188 20.7344 27.9531 21.0312 27.8125 21.0312C27.625 21.0312 27.5312 20.9375 27.5312 20.75C27.5312 20.6406 27.5703 20.4766 27.6484 20.2578C27.6641 20.2578 27.8828 19.4375 28.3047 17.7969C28.3516 17.5156 28.375 17.3125 28.375 17.1875C28.375 16.8125 28.2188 16.625 27.9062 16.625Z" fill="#333333"/>
<path d="M21.4375 18.0312L21.3331 17.5423L20.4335 17.7344L21.0839 18.3848L21.4375 18.0312ZM21.7188 18.6875H22.2188V18.6598L22.2157 18.6323L21.7188 18.6875ZM21.1562 19.9766L20.7275 19.7193L20.7266 19.7208L21.1562 19.9766ZM19.8438 22.9062L19.349 22.8339L19.3438 22.8699V22.9062H19.8438ZM23.6875 22.625L23.7732 23.1177L23.7806 23.1163L23.6875 22.625ZM31.5625 22.5312L31.2089 22.8848L31.2146 22.8904L31.5625 22.5312ZM31.2812 26.5625L31.7373 26.7675L31.7382 26.7656L31.2812 26.5625ZM28.6328 31.1094L29.0256 31.419L29.0322 31.4101L28.6328 31.1094ZM25.3281 34.0859L25.0813 33.6511L25.0711 33.6569L25.0611 33.6632L25.3281 34.0859ZM24.7188 34.25L24.3091 33.9633L24.2188 34.0924V34.25H24.7188ZM24.8828 34.0156L24.507 33.6858L24.4889 33.7064L24.4732 33.7289L24.8828 34.0156ZM28.6094 28.2266L29.0549 28.4536L29.0595 28.4445L29.0637 28.4352L28.6094 28.2266ZM24.1328 23.8438L24.217 24.3366L24.219 24.3363L24.1328 23.8438ZM19.4219 24.8281L19.5724 25.3049L19.5858 25.3007L19.5988 25.2958L19.4219 24.8281ZM18.1328 24.4062L17.7407 24.7167L17.7487 24.7263L18.1328 24.4062ZM18.0391 22.7891L17.6637 22.4587L17.6549 22.4688L17.6466 22.4792L18.0391 22.7891ZM18.8125 21.5469L18.3568 21.3411L18.3517 21.3524L18.3471 21.364L18.8125 21.5469ZM19.7969 19.3672L19.3437 19.1557L19.3412 19.1614L19.7969 19.3672ZM20.125 18.4297H20.625V18.1108L20.3359 17.9763L20.125 18.4297ZM18.2266 17.2578L18.5364 16.8654L18.527 16.8579L18.5172 16.8509L18.2266 17.2578ZM18.4141 16.7891L18.3986 16.2893L18.3732 16.2901L18.348 16.2934L18.4141 16.7891ZM24.0625 16.1562L23.9809 15.663L23.9803 15.6631L24.0625 16.1562ZM28.6094 15.1719L28.4513 14.6975L28.4441 14.6999L28.437 14.7025L28.6094 15.1719ZM30.5547 15.7109L30.2461 16.1046L30.2565 16.1123L30.5547 15.7109ZM30.7422 17.2344L30.4648 16.8183L30.4545 16.8252L30.4446 16.8326L30.7422 17.2344ZM28.6094 20.1406L29.0271 20.4154L29.0312 20.4091L29.0352 20.4027L28.6094 20.1406ZM27.6484 20.2578V19.7578H27.2961L27.1776 20.0896L27.6484 20.2578ZM28.3047 17.7969L28.7889 17.9214L28.7943 17.9004L28.7979 17.8791L28.3047 17.7969ZM27.9062 17.125C27.8969 17.125 27.8648 17.1249 27.8241 17.1181C27.8047 17.1148 27.7622 17.1066 27.7119 17.0851C27.6722 17.0682 27.5528 17.0122 27.4733 16.8718C27.3728 16.6946 27.405 16.5141 27.4611 16.4019C27.5066 16.3109 27.568 16.2582 27.5897 16.2402C27.6386 16.1998 27.684 16.1788 27.6921 16.1749C27.7198 16.1618 27.7421 16.1545 27.7439 16.1539C27.7503 16.1518 27.7546 16.1505 27.7549 16.1504C27.7558 16.1502 27.753 16.151 27.7445 16.1532C27.7366 16.1552 27.726 16.1579 27.7123 16.1612C27.6568 16.1748 27.5654 16.1959 27.4359 16.2251C27.1781 16.2833 26.7803 16.3708 26.2414 16.488C25.1643 16.7221 23.5283 17.0735 21.3331 17.5423L21.5419 18.5202C23.7373 18.0515 25.3748 17.6997 26.4539 17.4652C26.9932 17.3479 27.3942 17.2597 27.6559 17.2006C27.7862 17.1713 27.8847 17.1485 27.9493 17.1327C27.9795 17.1254 28.0103 17.1176 28.0345 17.1105C28.0412 17.1086 28.0506 17.1058 28.0612 17.1023C28.0671 17.1003 28.0924 17.0919 28.122 17.0778C28.131 17.0735 28.1771 17.0521 28.2264 17.0113C28.2483 16.9932 28.3099 16.9403 28.3555 16.8491C28.4116 16.7369 28.4438 16.5562 28.3433 16.3788C28.2637 16.2384 28.1442 16.1823 28.1042 16.1653C28.0537 16.1437 28.011 16.1355 27.9912 16.1321C27.9499 16.1251 27.9168 16.125 27.9062 16.125V17.125ZM21.0839 18.3848C21.1397 18.4406 21.1995 18.5422 21.2218 18.7427L22.2157 18.6323C22.1755 18.2703 22.0478 17.9344 21.7911 17.6777L21.0839 18.3848ZM21.2188 18.6875C21.2188 18.6841 21.2187 18.7065 21.2024 18.764C21.1869 18.819 21.1606 18.8921 21.1199 18.9856C21.038 19.1731 20.9093 19.4163 20.7275 19.7193L21.585 20.2338C21.7782 19.9118 21.9307 19.6277 22.0364 19.3855C22.1356 19.1581 22.2188 18.9129 22.2188 18.6875H21.2188ZM20.7266 19.7208C19.9453 21.0334 19.4585 22.0855 19.349 22.8339L20.3385 22.9786C20.4165 22.4457 20.8047 21.5447 21.5859 20.2323L20.7266 19.7208ZM19.3438 22.9062C19.3438 23.122 19.4233 23.3565 19.6375 23.5172C19.8247 23.6576 20.0457 23.6875 20.2188 23.6875V22.6875C20.1859 22.6875 20.1736 22.6843 20.176 22.6849C20.1789 22.6856 20.2044 22.6924 20.2375 22.7172C20.2734 22.7441 20.3045 22.7822 20.3241 22.8262C20.3424 22.8674 20.3438 22.8981 20.3438 22.9062H19.3438ZM20.2188 23.6875C20.3017 23.6875 20.4447 23.6687 20.5941 23.6473C20.7628 23.6232 20.993 23.5875 21.2832 23.5404C21.8641 23.4462 22.6945 23.3052 23.7732 23.1176L23.6018 22.1324C22.5243 22.3198 21.6984 22.46 21.1231 22.5533C20.8352 22.6 20.6122 22.6346 20.4527 22.6574C20.2741 22.6829 20.2139 22.6875 20.2188 22.6875V23.6875ZM23.7806 23.1163C26.7469 22.5542 28.8632 22.2812 30.1562 22.2812V21.2812C28.7618 21.2812 26.5656 21.5708 23.5944 22.1337L23.7806 23.1163ZM30.1562 22.2812C30.3993 22.2812 30.7473 22.4232 31.2089 22.8848L31.9161 22.1777C31.3777 21.6393 30.7882 21.2812 30.1562 21.2812V22.2812ZM31.2146 22.8904C31.447 23.1155 31.6035 23.3058 31.6992 23.4613C31.7964 23.6193 31.8125 23.7113 31.8125 23.75H32.8125C32.8125 23.4605 32.7036 23.1854 32.5508 22.9372C32.3965 22.6864 32.178 22.4313 31.9104 22.1721L31.2146 22.8904ZM31.8125 23.75C31.8125 23.7493 31.8125 23.7541 31.8113 23.7658C31.8101 23.7773 31.8079 23.793 31.8042 23.8136C31.7967 23.8552 31.7844 23.9099 31.7655 23.9793C31.7277 24.1185 31.6685 24.3 31.5852 24.5271C31.4189 24.9807 31.1662 25.5902 30.8243 26.3594L31.7382 26.7656C32.0838 25.9879 32.3467 25.3552 32.5241 24.8713C32.6127 24.6297 32.6824 24.4186 32.7306 24.2414C32.776 24.0741 32.8125 23.9012 32.8125 23.75H31.8125ZM30.8252 26.3575C30.073 28.0308 29.2085 29.5136 28.2334 30.8086L29.0322 31.4101C30.0572 30.0489 30.9583 28.5005 31.7373 26.7675L30.8252 26.3575ZM28.2401 30.7999C27.2229 32.0904 26.1683 33.0342 25.0813 33.6511L25.5749 34.5208C26.8005 33.8252 27.949 32.7846 29.0255 31.4189L28.2401 30.7999ZM25.0611 33.6632C24.9159 33.7549 24.8091 33.8186 24.7371 33.8579C24.7004 33.878 24.6808 33.8872 24.6741 33.89C24.6707 33.8915 24.6778 33.8882 24.6923 33.8839C24.7001 33.8815 24.7466 33.8672 24.8125 33.8672V34.8672C24.9393 34.8672 25.0461 34.8186 25.0681 34.8092C25.1161 34.7886 25.1668 34.7627 25.216 34.7358C25.3159 34.6814 25.4435 34.6044 25.5951 34.5087L25.0611 33.6632ZM24.8125 33.8672C24.8916 33.8672 25.0301 33.8974 25.1326 34.0255C25.2181 34.1323 25.2188 34.2356 25.2188 34.25H24.2188C24.2188 34.3425 24.2351 34.5044 24.3518 34.6502C24.4855 34.8174 24.6709 34.8672 24.8125 34.8672V33.8672ZM25.1284 34.5367L25.2924 34.3024L24.4732 33.7289L24.3091 33.9633L25.1284 34.5367ZM25.2586 34.3455C26.53 32.8971 27.794 30.9281 29.0549 28.4536L28.1639 27.9996C26.9248 30.4313 25.7044 32.3217 24.507 33.6858L25.2586 34.3455ZM29.0637 28.4352C29.5524 27.3713 29.9237 26.4605 30.1738 25.7062C30.4206 24.9618 30.5625 24.3319 30.5625 23.8438H29.5625C29.5625 24.1681 29.4622 24.6749 29.2246 25.3915C28.9903 26.0981 28.6351 26.9724 28.155 28.0179L29.0637 28.4352ZM30.5625 23.8438C30.5625 23.5293 30.4696 23.2074 30.2043 22.9753C29.9517 22.7543 29.6244 22.6875 29.3125 22.6875V23.6875C29.4027 23.6875 29.463 23.6975 29.5006 23.7085C29.5189 23.7138 29.5305 23.719 29.5371 23.7225C29.5404 23.7242 29.5426 23.7256 29.5439 23.7265C29.5451 23.7273 29.5457 23.7278 29.5457 23.7279C29.5458 23.7279 29.5456 23.7277 29.5452 23.7273C29.5449 23.7269 29.5447 23.7267 29.5447 23.7266C29.5445 23.7263 29.546 23.7284 29.5484 23.7346C29.5534 23.7478 29.5625 23.7808 29.5625 23.8438H30.5625ZM29.3125 22.6875C28.3101 22.6875 26.5432 22.9143 24.0466 23.3512L24.219 24.3363C26.7224 23.8982 28.4086 23.6875 29.3125 23.6875V22.6875ZM24.0487 23.3509C22.7646 23.5701 21.7246 23.7627 20.9309 23.9285C20.148 24.0921 19.5751 24.2355 19.2449 24.3605L19.5988 25.2958C19.8468 25.202 20.3481 25.0719 21.1355 24.9074C21.9121 24.7451 22.9386 24.5549 24.217 24.3366L24.0487 23.3509ZM19.2713 24.3513C19.13 24.396 19.0186 24.427 18.9344 24.4464C18.8429 24.4675 18.8092 24.4688 18.8125 24.4688V25.4688C19.0108 25.4688 19.2857 25.3955 19.5724 25.3049L19.2713 24.3513ZM18.8125 24.4688C18.8502 24.4688 18.8785 24.475 18.8946 24.4796C18.9029 24.482 18.909 24.4843 18.9127 24.4858C18.9146 24.4866 18.916 24.4872 18.9169 24.4876C18.9178 24.4881 18.9183 24.4883 18.9183 24.4883C18.9183 24.4883 18.9179 24.4881 18.9171 24.4877C18.9163 24.4872 18.9152 24.4866 18.9137 24.4856C18.9106 24.4838 18.9063 24.4811 18.9008 24.4773C18.8896 24.4696 18.8746 24.4584 18.8559 24.4429C18.7767 24.3774 18.6645 24.2633 18.5169 24.0862L17.7487 24.7263C17.9136 24.9242 18.0709 25.0913 18.2183 25.2133C18.3403 25.3143 18.5522 25.4688 18.8125 25.4688V24.4688ZM18.5248 24.0959C18.2372 23.7326 18.1875 23.5447 18.1875 23.4922H17.1875C17.1875 23.9085 17.4346 24.3299 17.7408 24.7166L18.5248 24.0959ZM18.1875 23.4922C18.1875 23.5139 18.1822 23.492 18.2226 23.4111C18.2609 23.3346 18.327 23.2312 18.4315 23.0989L17.6466 22.4792C17.5167 22.6438 17.4071 22.806 17.3282 22.9639C17.2514 23.1174 17.1875 23.2986 17.1875 23.4922H18.1875ZM18.4144 23.1194C18.7924 22.6898 19.0826 22.2267 19.2779 21.7297L18.3471 21.364C18.1986 21.7421 17.9732 22.107 17.6637 22.4587L18.4144 23.1194ZM19.2682 21.7527L20.2526 19.573L19.3412 19.1614L18.3568 21.3411L19.2682 21.7527ZM20.25 19.5786C20.3629 19.3365 20.4526 19.1246 20.5149 18.9464C20.5721 18.7829 20.625 18.5978 20.625 18.4297H19.625C19.625 18.4178 19.6232 18.4671 19.571 18.6161C19.524 18.7504 19.4496 18.9291 19.3438 19.1557L20.25 19.5786ZM20.3359 17.9763C19.7 17.6806 19.1003 17.3105 18.5364 16.8654L17.9167 17.6503C18.5404 18.1426 19.2063 18.5538 19.9141 18.883L20.3359 17.9763ZM18.5172 16.8509C18.4711 16.8181 18.4558 16.8034 18.4571 16.8046C18.4574 16.805 18.4745 16.8216 18.4946 16.8531C18.5051 16.8697 18.5207 16.8969 18.5342 16.9337C18.5477 16.9704 18.5625 17.0253 18.5625 17.0938H17.5625C17.5625 17.2392 17.6221 17.3447 17.6509 17.39C17.6846 17.443 17.7223 17.4841 17.75 17.5118C17.8059 17.5677 17.8726 17.6194 17.9359 17.6647L18.5172 16.8509ZM18.5625 17.0938C18.5625 17.1081 18.5599 17.138 18.544 17.175C18.5276 17.2133 18.5032 17.2445 18.4779 17.2665C18.4334 17.305 18.4124 17.2937 18.4801 17.2847L18.348 16.2934C18.1813 16.3157 17.9845 16.3708 17.8229 16.5108C17.6421 16.6675 17.5625 16.8804 17.5625 17.0938H18.5625ZM18.4295 17.2888C19.9756 17.241 21.8824 17.0265 24.1447 16.6494L23.9803 15.6631C21.7426 16.036 19.8837 16.2434 18.3986 16.2893L18.4295 17.2888ZM24.1441 16.6495C26.4041 16.2755 27.9653 15.9412 28.7818 15.6412L28.437 14.7025C27.7222 14.9651 26.2522 15.287 23.9809 15.663L24.1441 16.6495ZM28.7675 15.6462C29.0485 15.5525 29.1829 15.5312 29.2188 15.5312V14.5312C29.0046 14.5312 28.7327 14.6037 28.4513 14.6975L28.7675 15.6462ZM29.2188 15.5312C29.2627 15.5312 29.3704 15.5501 29.5604 15.6468C29.7442 15.7403 29.972 15.8895 30.2462 16.1045L30.8631 15.3174C30.5593 15.0793 30.2754 14.8886 30.0138 14.7555C29.7585 14.6256 29.4873 14.5312 29.2188 14.5312V15.5312ZM30.2565 16.1123C30.5183 16.3068 30.6932 16.4616 30.7978 16.5781C30.8498 16.636 30.8741 16.6732 30.8835 16.6907C30.8939 16.71 30.875 16.6844 30.875 16.625H31.875C31.875 16.3242 31.6899 16.0749 31.542 15.9102C31.3732 15.722 31.138 15.5214 30.8528 15.3096L30.2565 16.1123ZM30.875 16.625C30.875 16.5704 30.8864 16.5288 30.8954 16.5042C30.9043 16.4797 30.9131 16.4658 30.9149 16.463C30.9172 16.4594 30.9072 16.4751 30.87 16.5109C30.796 16.5822 30.6661 16.6842 30.4648 16.8183L31.0195 17.6504C31.2401 17.5033 31.4267 17.3631 31.5636 17.2313C31.6319 17.1655 31.701 17.0894 31.756 17.0038C31.8075 16.9237 31.875 16.7918 31.875 16.625H30.875ZM30.4446 16.8326C30.1676 17.0378 29.8464 17.4132 29.4895 17.8995C29.1227 18.3992 28.6871 19.0604 28.1835 19.8786L29.0352 20.4027C29.5317 19.5959 29.9515 18.9602 30.2957 18.4911C30.6497 18.0087 30.8949 17.7435 31.0398 17.6362L30.4446 16.8326ZM28.1917 19.8658C28.0012 20.1554 27.8529 20.3541 27.7446 20.4752C27.6897 20.5365 27.6575 20.5638 27.6464 20.5719C27.6218 20.5898 27.6862 20.5312 27.8125 20.5312V21.5312C28.0091 21.5312 28.1594 21.4355 28.2364 21.3793C28.3269 21.3132 28.4119 21.2291 28.4898 21.142C28.6471 20.9662 28.827 20.7196 29.0271 20.4154L28.1917 19.8658ZM27.8125 20.5312C27.7958 20.5312 27.8752 20.5274 27.9551 20.6074C28.0351 20.6873 28.0312 20.7667 28.0312 20.75H27.0312C27.0312 20.9208 27.0743 21.1408 27.248 21.3145C27.4217 21.4882 27.6417 21.5312 27.8125 21.5312V20.5312ZM28.0312 20.75C28.0312 20.7515 28.0312 20.745 28.0335 20.7284C28.0359 20.7123 28.04 20.69 28.047 20.6607C28.061 20.6016 28.0843 20.5241 28.1193 20.426L27.1776 20.0896C27.0969 20.3156 27.0312 20.5488 27.0312 20.75H28.0312ZM27.6484 20.7578C27.7852 20.7578 27.8834 20.7029 27.9305 20.6708C27.98 20.637 28.0125 20.6018 28.0289 20.5826C28.0618 20.5443 28.0814 20.5095 28.0882 20.4972C28.1043 20.468 28.1145 20.4427 28.118 20.4339C28.127 20.4114 28.1345 20.3889 28.1395 20.3734C28.1506 20.3392 28.164 20.2939 28.179 20.2414C28.2096 20.1344 28.2525 19.9771 28.3073 19.7714C28.4173 19.359 28.5779 18.742 28.7889 17.9214L27.8204 17.6724C27.6096 18.4923 27.4499 19.1058 27.3411 19.5137C27.2866 19.7182 27.2455 19.8685 27.2175 19.9666C27.2032 20.0166 27.1937 20.0483 27.1881 20.0653C27.1849 20.0755 27.1856 20.0722 27.1895 20.0625C27.1905 20.0601 27.1985 20.0396 27.2128 20.0136C27.2187 20.003 27.2375 19.9694 27.2697 19.9318C27.2858 19.9131 27.318 19.8781 27.3672 19.8445C27.414 19.8126 27.5119 19.7578 27.6484 19.7578V20.7578ZM28.7979 17.8791C28.845 17.5961 28.875 17.3574 28.875 17.1875H27.875C27.875 17.2676 27.8581 17.4351 27.8115 17.7147L28.7979 17.8791ZM28.875 17.1875C28.875 16.9429 28.8259 16.6663 28.6419 16.4455C28.4434 16.2073 28.166 16.125 27.9062 16.125V17.125C27.9354 17.125 27.9383 17.1295 27.9256 17.1244C27.919 17.1218 27.9099 17.1172 27.8997 17.1099C27.8895 17.1025 27.8807 17.0941 27.8737 17.0857C27.8594 17.0685 27.8597 17.0601 27.8639 17.0752C27.8685 17.0916 27.875 17.1268 27.875 17.1875H28.875Z" fill="#333333"/>
</svg>
