<svg xmlns="http://www.w3.org/2000/svg" width="50" height="50" fill="none"><path fill="#333" d="M27.906 16.625c.078 0-2.078.469-6.468 1.406.156.157.25.375.28.657 0 .234-.187.664-.562 1.289-.781 1.312-1.218 2.289-1.312 2.93 0 .187.125.28.375.28.156 0 1.312-.187 3.468-.562 2.97-.563 5.125-.844 6.47-.844.437 0 .905.25 1.405.75.5.485.75.89.75 1.219 0 .328-.343 1.266-1.03 2.813-.766 1.703-1.65 3.218-2.65 4.546-1.046 1.328-2.148 2.32-3.304 2.977-.297.187-.469.281-.515.281-.063 0-.094-.039-.094-.117l.164-.234c1.234-1.407 2.476-3.336 3.726-5.79.97-2.109 1.453-3.57 1.453-4.382 0-.438-.25-.657-.75-.657-.953 0-2.68.22-5.18.657-2.562.437-4.132.765-4.71.984-.297.094-.5.14-.61.14-.14 0-.367-.187-.68-.562-.296-.375-.445-.68-.445-.914 0-.172.118-.406.352-.703.344-.39.602-.805.773-1.242l.985-2.18c.219-.469.328-.781.328-.937a9.563 9.563 0 0 1-1.898-1.172c-.11-.078-.165-.133-.165-.164 0-.172.118-.274.352-.305 1.516-.047 3.398-.258 5.648-.633 2.266-.375 3.782-.703 4.547-.984.282-.094.485-.14.61-.14.312 0 .758.226 1.336.679.547.406.82.71.82.914 0 .125-.21.328-.633.61-.422.312-1.133 1.28-2.133 2.906-.39.593-.656.89-.797.89-.187 0-.28-.093-.28-.281 0-.11.038-.273.116-.492.016 0 .235-.82.657-2.461a4.21 4.21 0 0 0 .07-.61c0-.375-.156-.562-.469-.562Z"/><path fill="#333" d="m21.438 18.031-.105-.489-.9.192.65.65.355-.353Zm.28.657h.5v-.028l-.002-.028-.497.055Zm-.562 1.289-.428-.258-.001.002.43.256Zm-1.312 2.93-.495-.073-.005.036v.036h.5Zm3.843-.282.086.493.008-.002-.093-.491Zm7.875-.094-.353.354.006.005.348-.359Zm-.28 4.032.455.204.001-.001-.457-.203Zm-2.65 4.546.394.31.006-.009-.4-.3Zm-3.304 2.977-.247-.435-.01.006-.01.006.267.423Zm-.61.164-.409-.287-.09.13v.157h.5Zm.165-.234-.376-.33-.018.02-.016.023.41.287Zm3.726-5.79.446.228.005-.01.004-.009-.455-.208Zm-4.476-4.382.084.493h.002l-.086-.493Zm-4.711.984.15.477.014-.004.013-.005-.177-.468Zm-1.29-.422-.391.31.008.01.384-.32Zm-.093-1.617-.375-.33-.01.01-.007.01.392.31Zm.773-1.242-.455-.206-.005.011-.005.012.465.183Zm.985-2.18-.453-.211-.003.005.456.206Zm.328-.937h.5v-.32l-.29-.134-.21.454Zm-1.898-1.172.31-.393-.01-.007-.01-.007-.29.407Zm.187-.469-.015-.5-.026.001-.025.003.066.496Zm5.648-.633-.081-.493.081.493Zm4.547-.984-.158-.475-.007.003-.007.003.172.469Zm1.946.539-.309.394.01.007.299-.401Zm.187 1.523-.277-.416-.01.007-.01.008.297.401Zm-2.133 2.907.418.274.004-.006.004-.006-.426-.262Zm-.96.117v-.5h-.353l-.118.332.47.168Zm.656-2.461.484.124.005-.02.004-.022-.493-.082Zm-.399-.672a.5.5 0 0 1-.433-.253.5.5 0 0 1 .117-.632c.049-.04.094-.061.102-.065.028-.013.05-.02.052-.021l.01-.004-.01.003-.032.008a172.513 172.513 0 0 1-1.47.327c-1.078.234-2.714.585-4.909 1.054l.209.978c2.195-.468 3.833-.82 4.912-1.055a172.429 172.429 0 0 0 1.495-.332 1.954 1.954 0 0 0 .112-.03c.006-.003.031-.011.061-.025.009-.005.055-.026.104-.067a.5.5 0 0 0-.32-.886v1Zm-6.822 1.26c.056.056.116.157.138.358l.994-.11c-.04-.363-.168-.699-.425-.955l-.707.707Zm.135.302c0-.003 0 .02-.017.077a1.795 1.795 0 0 1-.082.222c-.082.187-.21.43-.393.733l.858.515a7.69 7.69 0 0 0 .451-.849c.1-.227.183-.472.183-.698h-1Zm-.492 1.034c-.782 1.312-1.268 2.364-1.378 3.113l.99.145c.078-.533.466-1.434 1.247-2.747l-.86-.511Zm-1.383 3.185c0 .216.08.45.293.611.188.14.409.17.582.17v-1c-.033 0-.045-.003-.043-.002.003 0 .028.007.062.032a.28.28 0 0 1 .086.11c.018.04.02.071.02.08h-1Zm.875.782c.083 0 .226-.02.375-.04.169-.025.399-.06.69-.108.58-.094 1.41-.235 2.49-.422l-.172-.986c-1.078.188-1.904.328-2.479.421-.288.047-.51.082-.67.104-.179.026-.24.03-.234.03v1Zm3.562-.572c2.966-.562 5.082-.835 6.375-.835v-1c-1.394 0-3.59.29-6.562.853l.187.982Zm6.375-.835c.243 0 .591.142 1.053.604l.707-.707c-.538-.539-1.128-.897-1.76-.897v1Zm1.059.61c.232.225.389.415.484.57.097.158.113.25.113.289h1c0-.29-.108-.565-.261-.813a4.073 4.073 0 0 0-.64-.765l-.696.718Zm.598.859-.002.016a1.986 1.986 0 0 1-.046.213c-.037.14-.096.321-.18.548a31.319 31.319 0 0 1-.76 1.832l.913.407c.346-.778.609-1.41.786-1.895a7.94 7.94 0 0 0 .207-.63c.045-.167.081-.34.081-.491h-1Zm-.988 2.608c-.752 1.673-1.616 3.156-2.592 4.45l.8.602c1.024-1.361 1.925-2.91 2.704-4.643l-.912-.41ZM28.24 30.8c-1.017 1.29-2.072 2.234-3.159 2.851l.494.87c1.226-.696 2.374-1.736 3.45-3.102l-.785-.62Zm-3.179 2.863a6.397 6.397 0 0 1-.387.227l.018-.006a.417.417 0 0 1 .12-.017v1c.127 0 .234-.048.256-.058.048-.02.099-.046.148-.073.1-.055.227-.132.38-.227l-.535-.846Zm-.248.204c.079 0 .217.03.32.159a.37.37 0 0 1 .086.224h-1c0 .093.016.254.133.4.133.167.319.217.46.217v-1Zm.315.67.164-.235-.819-.573-.164.234.82.574Zm.13-.191c1.272-1.449 2.536-3.418 3.797-5.892L28.164 28c-1.24 2.431-2.46 4.322-3.657 5.686l.752.66Zm3.806-5.91c.488-1.065.86-1.976 1.11-2.73.247-.744.389-1.374.389-1.862h-1c0 .324-.1.83-.338 1.547-.235.707-.59 1.581-1.07 2.627l.909.417Zm1.498-4.592c0-.315-.092-.637-.358-.869-.252-.22-.58-.288-.892-.288v1c.09 0 .151.01.189.021a.194.194 0 0 1 .044.02v-.001l.003.008a.32.32 0 0 1 .015.109h1Zm-1.25-1.157c-1.002 0-2.769.227-5.265.664l.172.985c2.503-.438 4.19-.648 5.093-.648v-1Zm-5.263.664c-1.284.22-2.324.412-3.118.578-.783.163-1.356.306-1.686.431l.354.936c.248-.094.75-.224 1.537-.389a88.805 88.805 0 0 1 3.081-.57l-.168-.986Zm-4.778 1a4.543 4.543 0 0 1-.337.095c-.091.021-.125.023-.122.023v1c.199 0 .474-.074.76-.164l-.3-.954Zm-.459.118a.3.3 0 0 1 .106.02v-.001l-.004-.002a2.85 2.85 0 0 1-.397-.4l-.768.64c.165.198.322.365.47.487.121.101.333.256.593.256v-1Zm-.287-.373c-.288-.363-.337-.551-.337-.604h-1c0 .416.247.838.553 1.225l.784-.621Zm-.337-.604c0 .022-.006 0 .035-.08.038-.077.104-.18.209-.313l-.785-.62a2.88 2.88 0 0 0-.319.485c-.077.153-.14.335-.14.528h1Zm.226-.373c.378-.43.669-.892.864-1.39l-.93-.365a3.71 3.71 0 0 1-.684 1.095l.75.66Zm.854-1.366.985-2.18-.912-.412-.984 2.18.911.412Zm.982-2.174c.113-.242.203-.454.265-.633.057-.163.11-.348.11-.516h-1c0-.012-.002.037-.054.186a6.103 6.103 0 0 1-.227.54l.906.423Zm.086-1.603a9.068 9.068 0 0 1-1.8-1.11l-.62.784c.624.493 1.29.904 1.998 1.233l.422-.907Zm-1.819-1.125c-.046-.033-.061-.048-.06-.046a.422.422 0 0 1 .077.13.463.463 0 0 1 .028.159h-1c0 .145.06.25.089.296a.72.72 0 0 0 .099.122c.056.056.123.107.186.153l.581-.814Zm.046.243a.211.211 0 0 1-.019.081.256.256 0 0 1-.066.091c-.045.039-.066.028.002.019l-.132-.992a.99.99 0 0 0-.525.218.757.757 0 0 0-.26.583h1Zm-.133.195c1.546-.048 3.452-.263 5.715-.64l-.165-.986c-2.237.373-4.096.58-5.581.626l.03 1Zm5.714-.64c2.26-.373 3.821-.708 4.638-1.008l-.345-.938c-.715.262-2.185.584-4.456.96l.163.986Zm4.623-1.003c.282-.094.416-.115.452-.115v-1c-.214 0-.486.073-.768.166l.316.95Zm.452-.115c.044 0 .151.02.341.116.184.093.412.242.686.458l.617-.788a5.364 5.364 0 0 0-.85-.562c-.255-.13-.526-.224-.794-.224v1Zm1.037.581a3.8 3.8 0 0 1 .542.466.643.643 0 0 1 .086.113c.01.019-.009-.007-.009-.066h1c0-.3-.185-.55-.333-.715a4.724 4.724 0 0 0-.69-.6l-.596.802Zm.619.513a.353.353 0 0 1 .04-.162c.002-.004-.008.012-.045.048a3.075 3.075 0 0 1-.405.307l.555.832c.22-.147.407-.287.544-.419.068-.066.137-.142.192-.227a.703.703 0 0 0 .119-.379h-1Zm-.43.208c-.277.205-.599.58-.956 1.067-.366.5-.802 1.16-1.306 1.979l.852.524a29.33 29.33 0 0 1 1.26-1.912c.355-.482.6-.747.745-.855l-.595-.803Zm-2.253 3.033c-.19.29-.34.488-.447.61a.762.762 0 0 1-.099.096c-.024.018.04-.04.166-.04v1a.726.726 0 0 0 .424-.153c.09-.066.176-.15.254-.237.157-.176.337-.422.537-.727l-.835-.55Zm-.38.665c-.016 0 .063-.004.143.076.08.08.076.16.076.143h-1c0 .17.043.39.217.564a.782.782 0 0 0 .564.217v-1Zm.22.219.002-.022a2.301 2.301 0 0 1 .086-.302l-.942-.336c-.081.226-.147.459-.147.66h1Zm-.384.008a.501.501 0 0 0 .47-.324 4.148 4.148 0 0 0 .061-.193c.03-.107.073-.264.128-.47.11-.412.27-1.029.482-1.85l-.969-.249c-.21.82-.37 1.434-.479 1.842a29.092 29.092 0 0 1-.153.551c-.003.01-.002.007.002-.003a.496.496 0 0 1 .459-.305v1Zm1.15-2.879a4.64 4.64 0 0 0 .077-.692h-1c0 .08-.017.248-.064.528l.987.164Zm.077-.692c0-.244-.05-.52-.233-.742-.199-.238-.476-.32-.736-.32v1c.03 0 .032.005.02 0a.145.145 0 0 1-.052-.039c-.015-.017-.014-.026-.01-.01a.437.437 0 0 1 .011.111h1Z"/></svg>