<svg xmlns="http://www.w3.org/2000/svg" width="50" height="50" fill="none"><path fill="#333" d="M18.531 15.594c.422 0 .922.164 1.5.492.563.36.844.664.844.914 0 .14-.086.375-.258.703-.187.266-.367.695-.539 1.29-.781 2.984-1.172 4.663-1.172 5.038s.25.563.75.563c.157 0 2.407-.266 6.75-.797 2.625-.39 4.11-.68 4.453-.867.313-.203.578-.305.797-.305.266 0 .657.297 1.172.89.469.579.703 1 .703 1.266 0 .172-.156.39-.468.657-.407.343-.79.898-1.149 1.664-1.062 1.89-2.047 3.343-2.953 4.359a14.469 14.469 0 0 1-3.023 2.602c-.063 0-.094-.032-.094-.094 2.078-2.907 3.5-5.219 4.265-6.938.47-.828.703-1.422.703-1.781 0-.125-.218-.188-.656-.188-1.125 0-2.906.149-5.343.446-2.672.297-4.383.562-5.133.797-.61.172-.992.258-1.149.258-.468 0-.906-.118-1.312-.352-.438-.313-.657-.664-.657-1.055 0-.281.125-.687.375-1.218.422-.985.766-2.04 1.032-3.165.312-1.171.468-2.117.468-2.835 0-.5-.046-.922-.14-1.266l-.14-.703c0-.25.124-.375.374-.375Z"/><path fill="#333" d="m20.031 16.086.27-.421-.012-.007-.01-.007-.248.435Zm.586 1.617.409.288.019-.027.015-.029-.443-.232Zm-.539 1.29-.48-.14-.004.013.484.126Zm6.328 4.804.061.496.013-.002-.074-.494Zm4.453-.867.24.439.017-.01.016-.01-.273-.42Zm1.97.586.388-.315-.006-.007-.005-.006-.378.328Zm.233 1.922.324.381-.324-.381Zm-1.148 1.664.436.244.009-.015.008-.017-.453-.212Zm-2.953 4.359-.373-.333-.004.005.377.328Zm-3.023 2.602v.5h.148l.125-.082-.273-.419Zm-.094-.094-.407-.291-.093.13v.16h.5Zm4.265-6.938-.435-.246-.012.02-.01.023.457.203Zm-5.297-1.523.056.497h.005l-.06-.497Zm-5.132.797.136.481.013-.004-.15-.477Zm-2.461-.094-.29.407.019.014.02.012.25-.433Zm-.282-2.273.453.212.004-.008.003-.008-.46-.197Zm1.032-3.165-.483-.128-.002.006-.002.008.487.114Zm.328-4.101-.49.098.003.017.005.016.482-.131Zm-.14-.703h-.5v.05l.009.048.49-.098Zm.374.125c.3 0 .711.12 1.253.427l.494-.87c-.614-.348-1.202-.557-1.747-.557v1Zm1.231.413c.264.17.435.308.535.416.108.117.078.138.078.077h1c0-.311-.17-.567-.343-.755a3.75 3.75 0 0 0-.732-.58l-.538.842Zm.613.493c0-.017.002.011-.034.11-.033.089-.087.208-.167.361l.886.464c.092-.175.167-.337.22-.482.05-.136.095-.295.095-.453h-1Zm-.166.415c-.237.335-.435.83-.611 1.438l.96.278c.168-.58.33-.944.468-1.14l-.817-.576Zm-.615 1.45a140.24 140.24 0 0 0-.882 3.512c-.098.423-.173.769-.224 1.035a3.793 3.793 0 0 0-.082.62h1c0-.04.015-.171.065-.433.047-.248.118-.579.215-.995.194-.834.486-1.995.876-3.485l-.968-.253Zm-1.188 5.166c0 .31.111.615.388.822.25.187.564.24.862.24v-1a.874.874 0 0 1-.207-.02c-.044-.01-.057-.021-.055-.02a.062.062 0 0 1 .016.021c.003.006-.004-.004-.004-.043h-1Zm1.25 1.063c.075 0 .285-.022.565-.053l1.299-.15c1.126-.133 2.775-.332 4.947-.598l-.121-.992c-2.172.265-3.82.464-4.944.597a189.96 189.96 0 0 1-1.638.186c-.095.009-.119.01-.108.01v1Zm6.824-.803a74.79 74.79 0 0 0 3.104-.513c.376-.073.687-.141.93-.205.228-.06.44-.125.585-.204l-.48-.878a2.1 2.1 0 0 1-.357.114c-.215.056-.503.12-.87.191a73.72 73.72 0 0 1-3.06.506l.148.99Zm4.652-.942c.282-.183.449-.224.524-.224v-1c-.362 0-.726.163-1.07.386l.546.838Zm.524-.224c-.036 0 .017-.01.19.12.157.12.358.314.605.598l.755-.655c-.269-.31-.521-.56-.755-.738-.218-.166-.493-.325-.795-.325v1Zm.784.706c.224.277.38.502.478.677.049.088.079.156.096.206.018.052.017.072.017.067h1c0-.262-.109-.525-.239-.758a5.925 5.925 0 0 0-.575-.822l-.777.63Zm.591.95c0-.062.026-.066-.024.003a1.647 1.647 0 0 1-.268.273l.647.762a2.61 2.61 0 0 0 .435-.454c.107-.15.21-.35.21-.584h-1Zm-.291.275c-.485.41-.905 1.037-1.279 1.833l.906.425c.345-.735.69-1.217 1.019-1.495l-.647-.763Zm-1.262 1.8c-1.054 1.876-2.018 3.294-2.89 4.272l.746.666c.94-1.054 1.945-2.542 3.016-4.448l-.872-.49Zm-2.894 4.276a13.972 13.972 0 0 1-2.92 2.512l.547.837a14.977 14.977 0 0 0 3.127-2.692l-.754-.657Zm-2.646 2.43c.045 0 .172.012.283.123a.408.408 0 0 1 .123.284h-1c0 .108.027.281.17.424.142.142.315.17.424.17v-1Zm.313.698c2.083-2.914 3.529-5.26 4.315-7.025l-.913-.407c-.745 1.672-2.143 3.951-4.216 6.85l.813.582Zm4.293-6.982c.241-.426.43-.803.558-1.13.125-.317.21-.625.21-.898h-1c0 .086-.031.255-.14.531-.106.268-.27.601-.498 1.004l.87.492Zm.768-2.028c0-.2-.096-.36-.215-.462a.821.821 0 0 0-.311-.16 2.383 2.383 0 0 0-.63-.066v1c.099 0 .178.004.24.01.064.006.1.014.115.018.021.006-.015 0-.065-.042a.404.404 0 0 1-.134-.298h1Zm-1.156-.688c-1.157 0-2.964.152-5.404.45l.121.992c2.435-.296 4.19-.442 5.283-.442v-1Zm-5.399.449c-2.659.295-4.421.565-5.226.816l.298.955c.695-.217 2.354-.479 5.039-.777l-.11-.994Zm-5.213.813c-.3.084-.539.146-.718.186a3.529 3.529 0 0 1-.276.051l-.019.002v1c.14 0 .325-.035.514-.077.204-.046.462-.113.77-.2l-.271-.963Zm-1.013.238c-.38 0-.732-.094-1.062-.284l-.5.866a3.082 3.082 0 0 0 1.562.419v-1Zm-1.022-.258c-.36-.257-.447-.475-.447-.648h-1c0 .608.35 1.094.866 1.462l.581-.814Zm-.447-.648c0-.163.082-.484.328-1.006l-.905-.425c-.254.54-.422 1.032-.422 1.431h1Zm.335-1.021a19.748 19.748 0 0 0 1.058-3.247l-.973-.23c-.26 1.1-.594 2.127-1.004 3.082l.92.395Zm1.055-3.233c.317-1.19.485-2.183.485-2.965h-1c0 .656-.143 1.553-.451 2.708l.966.257Zm.485-2.965c0-.528-.049-.997-.158-1.397l-.965.263c.079.288.123.663.123 1.134h1Zm-.15-1.363-.14-.703-.981.196.14.703.981-.196Zm-.13-.605c0-.048.01.008-.053.072-.065.064-.12.053-.073.053v-1a.877.877 0 0 0-.635.24.877.877 0 0 0-.24.635h1Z"/></svg>