<svg xmlns="http://www.w3.org/2000/svg" width="50" height="50" fill="none"><path fill="#333" d="M31.938 22.46c-1.375 0-3.477.188-6.305.563l.094.118c.328.453.492.882.492 1.289 0 .093-.04.367-.117.82-.172 1.719-.258 3.688-.258 5.906 0 .703.093 1.18.281 1.43.156.234.531.352 1.125.352 1.813 0 3.375-.196 4.688-.586.406-.11.656-.164.75-.164.25 0 .554.171.914.515.265.266.398.508.398.727 0 .437-.32.75-.96.937-.83.235-2.196.352-4.102.352-1.86 0-3.157-.258-3.891-.774-.531-.406-.797-1.117-.797-2.133V30.22c.094-.719.148-2.5.164-5.344-.734 1.89-1.57 3.484-2.508 4.781-1.312 1.766-2.773 3.078-4.383 3.938-.89.375-1.398.562-1.523.562-.063 0-.094-.031-.094-.093 0-.094.086-.204.258-.329.781-.687 1.758-1.742 2.93-3.164 1.75-2.25 3.07-4.625 3.96-7.125-1.874.297-3.288.602-4.241.914-.375.11-.594.164-.657.164-.234 0-.554-.171-.96-.515-.423-.406-.634-.711-.634-.914 0-.125.063-.188.188-.188.328.063.64.094.938.094.359 0 .89-.055 1.593-.164l4.196-.75c.703-2.297 1.054-4.172 1.054-5.625 0-.5-.047-.852-.14-1.055-.094-.172-.141-.297-.141-.375 0-.125.125-.187.375-.187.422 0 .969.242 1.64.726.532.39.797.711.797.961 0 .125-.062.25-.187.375-.234.266-.453.953-.656 2.063a48.38 48.38 0 0 1-.703 2.789l.726-.14c2.422-.36 3.852-.618 4.29-.774.452-.125.734-.188.843-.188.344 0 .727.196 1.148.586.36.422.54.758.54 1.008 0 .188-.094.281-.282.281a5.13 5.13 0 0 0-.843-.07Z"/><path fill="#333" d="m25.633 23.023-.066-.495-.878.116.553.692.39-.313Zm.094.118.404-.294-.006-.01-.008-.009-.39.313Zm.375 2.109-.493-.085-.003.018-.002.017.498.05Zm.023 7.336.416-.277-.008-.012-.008-.011-.4.3Zm5.813-.234-.13-.483-.013.003.142.48Zm1.664.351.353-.354-.008-.007-.345.361Zm-.563 1.664.136.481h.005l-.14-.48Zm-7.992-.422-.304.398.008.006.009.006.287-.41Zm-.797-3.726-.496-.065-.004.032v.033h.5Zm.164-5.344.5.003-.966-.184.466.181Zm-2.508 4.781.402.299.003-.006-.405-.293Zm-4.383 3.938.195.46.02-.008.021-.011-.236-.441Zm-1.359.14.294.405.019-.014.017-.015-.33-.376Zm2.93-3.164.386.318.008-.01-.394-.308Zm3.96-7.125.472.168.282-.793-.831.131.078.494Zm-4.241.914.14.48.007-.002.008-.003-.155-.475Zm-1.618-.351-.346.36.011.011.012.01.323-.381Zm-.445-1.102.094-.49-.047-.01h-.047v.5Zm2.531-.07.077.494.011-.002-.088-.492Zm4.196-.75.088.492.3-.054.09-.292-.478-.146Zm.914-6.68.454-.21-.007-.014-.008-.015-.44.24Zm1.875.164.296-.402-.004-.003-.292.405Zm.609 1.336-.354-.353-.01.01-.01.012.374.331Zm-.656 2.063.488.108.002-.009.002-.01-.492-.09Zm-.703 2.789-.481-.137-.224.782.8-.154-.095-.491Zm.726-.14-.073-.495-.011.001-.01.002.094.491Zm4.29-.774-.134-.482-.017.005-.018.006.168.47Zm1.991.398.381-.324-.02-.023-.02-.02-.34.367Zm.258 1.29-.082.492.04.007h.042v-.5Zm-.843-.571c-1.41 0-3.539.191-6.37.567l.13.991c2.825-.374 4.9-.558 6.24-.558v-1Zm-6.696 1.375.094.117.781-.625-.094-.117-.78.625Zm.08.098c.289.4.397.728.397.996h1c0-.545-.22-1.076-.588-1.583l-.81.587Zm.397.996-.005.05a19.867 19.867 0 0 1-.105.684l.985.171c.04-.229.07-.416.09-.56.02-.13.035-.257.035-.345h-1Zm-.115.77c-.174 1.74-.26 3.725-.26 5.956h1c0-2.206.085-4.158.255-5.856l-.995-.1Zm-.26 5.956c0 .371.024.7.08.982.054.275.144.539.301.748l.8-.6c-.03-.04-.08-.14-.12-.341a4.195 4.195 0 0 1-.061-.789h-1Zm.365 1.707c.163.244.411.384.665.464.254.08.552.11.876.11v-1c-.27 0-.456-.027-.577-.065-.121-.037-.138-.073-.132-.063l-.832.554Zm1.541.575c1.846 0 3.46-.2 4.83-.607l-.285-.959c-1.254.374-2.766.566-4.545.566v1Zm4.818-.604c.2-.053.355-.092.468-.117.13-.029.166-.03.151-.03v-1c-.108 0-.244.027-.364.053-.136.03-.309.073-.515.129l.26.965Zm.62-.147c.042 0 .222.047.568.377l.691-.722c-.373-.357-.802-.654-1.26-.654v1Zm.56.37c.235.234.252.355.252.373h1c0-.42-.248-.784-.545-1.08l-.707.707Zm.252.373a.26.26 0 0 1-.09.204c-.08.078-.234.172-.511.253l.28.96c.364-.106.69-.262.93-.497.254-.248.391-.563.391-.92h-1Zm-.597.456c-.756.214-2.063.333-3.965.333v1c1.91 0 3.337-.116 4.237-.37l-.272-.963Zm-3.965.333c-1.847 0-3.005-.263-3.604-.683l-.574.819c.87.61 2.305.864 4.177.864v-1Zm-3.587-.67c-.354-.271-.601-.794-.601-1.736h-1c0 1.088.285 1.988.993 2.53l.608-.795Zm-.601-1.736v-1.594h-1v1.593h1Zm-.004-1.53c.099-.756.152-2.573.168-5.405l-1-.006c-.016 2.855-.071 4.601-.16 5.282l.992.13Zm-.798-5.589c-.723 1.86-1.54 3.415-2.447 4.67l.81.585c.968-1.339 1.823-2.973 2.57-4.893l-.933-.362Zm-2.443 4.664c-1.277 1.718-2.685 2.976-4.217 3.795l.471.882c1.686-.9 3.2-2.268 4.549-4.08l-.803-.597Zm-4.176 3.775c-.442.186-.784.324-1.028.414a4.787 4.787 0 0 1-.277.095c-.085.025-.075.014-.024.014v1c.113 0 .234-.034.308-.056.094-.027.208-.067.34-.115.264-.098.622-.242 1.07-.43l-.389-.922ZM16 33.656c.046 0 .172.012.283.123a.407.407 0 0 1 .123.283h-1c0 .109.028.282.17.424.143.143.316.17.424.17v-1Zm.406.407a.313.313 0 0 1-.023.121c-.01.025-.02.036-.02.035.002 0 .008-.009.025-.024a.834.834 0 0 1 .07-.056l-.588-.809c-.106.077-.21.167-.292.271a.75.75 0 0 0-.172.462h1Zm.088.047c.811-.714 1.808-1.792 2.986-3.222l-.772-.636c-1.166 1.415-2.123 2.446-2.874 3.107l.66.75Zm2.994-3.233c1.78-2.289 3.128-4.71 4.038-7.264l-.942-.335c-.872 2.446-2.165 4.774-3.885 6.985l.79.614Zm3.489-7.925c-1.883.297-3.329.607-4.32.932l.311.95c.915-.3 2.297-.6 4.165-.895l-.156-.988Zm-4.305.927a12.223 12.223 0 0 1-.535.143c-.033.007-.018.001.02.001v1a.92.92 0 0 0 .17-.019 3.28 3.28 0 0 0 .161-.037c.119-.03.275-.072.465-.128l-.28-.96Zm-.516.144c.002 0-.011 0-.044-.01a.795.795 0 0 1-.135-.059 2.794 2.794 0 0 1-.459-.328l-.646.764c.22.185.43.337.632.445.196.105.42.188.652.188v-1Zm-.614-.375a3.265 3.265 0 0 1-.41-.458c-.09-.129-.07-.15-.07-.096h-1c0 .257.126.489.248.665.132.19.316.394.539.609l.693-.72Zm-.48-.554a.319.319 0 0 1-.1.213.318.318 0 0 1-.212.1v-1a.688.688 0 0 0-.494.193.688.688 0 0 0-.194.494h1Zm-.406.303c.356.068.7.103 1.032.103v-1c-.262 0-.543-.028-.844-.085l-.188.982Zm1.032.103c.399 0 .961-.06 1.67-.17l-.154-.988c-.697.108-1.197.158-1.517.158v1Zm1.681-.172 4.196-.75-.176-.984-4.196.75.176.984Zm4.586-1.096c.71-2.317 1.076-4.247 1.076-5.771h-1c0 1.382-.336 3.203-1.032 5.479l.956.292Zm1.076-5.771c0-.504-.043-.953-.186-1.264l-.908.419c.044.095.094.35.094.845h1Zm-.201-1.294a1.333 1.333 0 0 1-.077-.159l-.007-.022s.004.017.004.045h-1c0 .127.035.243.067.328.035.092.081.189.135.287l.878-.48Zm-.08-.136a.357.357 0 0 1-.183.307c-.026.013-.038.013-.024.01a.52.52 0 0 1 .082-.004v-1c-.15 0-.338.016-.505.1a.644.644 0 0 0-.37.588h1Zm-.125.313c.256 0 .693.16 1.348.632l.585-.811c-.688-.496-1.345-.821-1.933-.821v1Zm1.344.63c.25.183.413.333.51.449.103.125.084.155.084.108h1c0-.297-.153-.552-.315-.747a3.893 3.893 0 0 0-.686-.617l-.593.806Zm.593.557c0-.01.002-.02.004-.027l.002-.009a.256.256 0 0 1-.047.058l.708.707c.18-.18.334-.424.334-.729h-1Zm-.062.044c-.19.216-.328.54-.441.895-.119.371-.229.843-.332 1.409l.984.18c.1-.544.2-.97.3-1.286.106-.332.194-.485.239-.536l-.75-.662Zm-.77 2.285a47.893 47.893 0 0 1-.695 2.76l.961.275c.253-.885.49-1.825.71-2.818l-.975-.217Zm-.12 3.389.727-.14-.19-.983-.726.14.19.983Zm.706-.137a99.546 99.546 0 0 0 2.904-.466c.706-.127 1.215-.237 1.48-.331l-.337-.942c-.173.062-.598.159-1.32.29-.708.127-1.665.28-2.874.46l.147.989Zm4.348-.786c.223-.062.398-.106.526-.135.145-.032.192-.035.185-.035v-1c-.117 0-.265.029-.401.059-.153.034-.345.083-.576.147l.266.964Zm.711-.17c.156 0 .421.094.809.453l.68-.734c-.457-.422-.958-.719-1.489-.719v1Zm.768.41c.166.195.277.355.344.48.07.13.075.193.075.204h1c0-.24-.083-.47-.193-.675a3.82 3.82 0 0 0-.465-.657l-.761.648Zm.42.684c0 .017-.004-.063.076-.143.08-.08.159-.076.142-.076v1c.171 0 .391-.043.565-.216a.782.782 0 0 0 .217-.565h-1Zm.3-.212a5.616 5.616 0 0 0-.925-.077v1c.253 0 .507.021.761.063l.164-.986Z"/></svg>