<svg xmlns="http://www.w3.org/2000/svg" width="50" height="50" fill="none"><path fill="#333" d="M23.688 16.367c.421 0 .898.29 1.43.867.546.657.82 1.172.82 1.547 0 .157-.165.328-.493.516-.172.125-.351.328-.539.61L19 30.124c-.125.203-.188.336-.188.398 0 .11.094.165.282.165 1.172-.016 2.992-.188 5.46-.516 2.454-.297 4.204-.586 5.25-.867.532-.14.9-.211 1.102-.211.438 0 .992.226 1.664.68.703.515 1.055.976 1.055 1.382 0 .313-.188.469-.563.469-.156 0-.382-.055-.68-.164-.874-.203-1.96-.305-3.257-.305-2.156.047-4.469.282-6.938.703-1.859.313-3.21.641-4.054.985l-.54.281c-.265 0-.593-.234-.984-.703-.406-.438-.609-.758-.609-.961 0-.25.133-.484.398-.703.313-.297.602-.64.868-1.031.89-1.422 1.875-3.149 2.953-5.18 1.234-2.422 2.078-4.149 2.531-5.18.438-1 .656-1.883.656-2.648 0-.235.094-.352.282-.352Z"/><path fill="#333" d="m25.117 17.234.384-.32-.008-.009-.008-.009-.368.338Zm.328 2.063-.248-.434-.024.013-.022.016.294.405Zm-.539.61-.416-.278-.009.013-.008.014.433.25ZM19 30.124l.426.262.007-.012-.433-.25Zm.094.563v.5h.006l-.006-.5Zm5.46-.516-.06-.497-.005.001.066.496Zm5.25-.867-.127-.484h-.002l.13.484Zm2.766.468.296-.403-.008-.006-.008-.005-.28.414Zm-.187 1.688.173-.47-.03-.01-.03-.007-.113.487Zm-3.258-.305v-.5h-.01l.01.5Zm-6.938.703.083.493h.002l-.084-.493Zm-4.054.985-.189-.463-.022.009-.02.01.23.444Zm-.54.281v.5h.123l.109-.057-.231-.443Zm-.984-.703.384-.32-.008-.01-.01-.01-.366.34Zm-.21-1.664.317.386.014-.011.013-.013-.345-.362Zm.867-1.031.413.28.005-.007.005-.008-.423-.265Zm2.953-5.18.441.234.004-.007-.445-.227Zm2.531-5.18.458.201-.458-.2Zm.938-2.5c.2 0 .55.15 1.061.706l.736-.677c-.551-.6-1.155-1.029-1.797-1.029v1Zm1.045.688c.26.312.443.576.558.793.117.222.146.36.146.433h1c0-.302-.107-.608-.263-.902a5.804 5.804 0 0 0-.673-.965l-.768.64Zm.704 1.226c0-.103.054-.14.016-.099a1.186 1.186 0 0 1-.256.18l.496.869c.185-.105.354-.223.483-.358.126-.132.262-.332.262-.592h-1Zm-.286.111c-.24.175-.457.432-.66.737l.831.555c.172-.258.313-.407.417-.483l-.588-.809Zm-.678.764-5.906 10.219.866.5 5.906-10.218-.866-.501Zm-5.899 10.207c-.067.109-.125.21-.167.301a.866.866 0 0 0-.095.36h1a.367.367 0 0 1-.006.069c-.002.013-.005.02-.006.023 0 .003.002-.005.012-.026.02-.043.056-.109.114-.203l-.852-.524Zm-.262.66c0 .231.117.438.319.555.16.094.337.11.463.11v-1c-.062 0-.026-.012.04.027a.36.36 0 0 1 .178.308h-1Zm.788.665c1.204-.017 3.049-.192 5.52-.52l-.131-.992c-2.466.328-4.262.496-5.402.512l.013 1Zm5.515-.52c2.454-.297 4.235-.59 5.32-.88l-.26-.966c-1.01.271-2.729.557-5.18.854l.12.992Zm5.318-.88c.537-.142.844-.194.973-.194v-1c-.277 0-.704.088-1.23.227l.257.967Zm.973-.194c.284 0 .735.156 1.385.594l.559-.83c-.694-.467-1.353-.764-1.944-.764v1Zm1.369.583c.33.242.553.454.689.632.137.18.161.292.161.347h1c0-.35-.151-.672-.366-.953-.216-.283-.52-.56-.893-.833l-.591.807Zm.85.98c0 .028-.005.031 0 .019a.145.145 0 0 1 .039-.052c.017-.015.026-.014.01-.01a.437.437 0 0 1-.111.011v1c.244 0 .52-.05.741-.233.239-.199.321-.476.321-.736h-1Zm-.063-.032c-.063 0-.22-.028-.506-.133l-.346.938c.307.113.603.195.852.195v-1Zm-.566-.151c-.925-.215-2.051-.318-3.371-.318v1c1.274 0 2.32.1 3.145.292l.226-.974Zm-3.382-.318c-2.184.048-4.521.285-7.01.71l.168.986c2.448-.418 4.736-.65 6.864-.696l-.022-1Zm-7.01.71c-1.865.314-3.262.649-4.16 1.015l.378.926c.79-.322 2.095-.643 3.948-.955l-.165-.986Zm-4.203 1.035-.538.28.462.887.54-.281-.463-.886Zm-.307.224c.012 0-.034.004-.155-.083a2.562 2.562 0 0 1-.445-.44l-.769.64c.21.252.421.463.633.614.207.148.457.269.736.269v-1Zm-.618-.543a3.66 3.66 0 0 1-.401-.496c-.089-.14-.075-.17-.075-.125h-1c0 .248.115.48.23.66.124.197.3.411.513.641l.733-.68Zm-.476-.621c0-.05.02-.156.216-.317l-.635-.772c-.336.276-.581.639-.581 1.089h1Zm.243-.34c.34-.324.652-.696.936-1.113l-.827-.563c-.247.364-.514.68-.798.95l.689.725Zm.946-1.129c.9-1.435 1.89-3.172 2.971-5.21l-.883-.47c-1.074 2.025-2.053 3.74-2.935 5.15l.847.53Zm2.975-5.218c1.235-2.422 2.084-4.16 2.544-5.206l-.916-.402c-.447 1.017-1.284 2.732-2.519 5.154l.891.454Zm2.544-5.206c.454-1.039.698-1.992.698-2.85h-1c0 .675-.193 1.487-.614 2.449l.916.4Zm.698-2.85c0-.063.015-.018-.039.05a.282.282 0 0 1-.11.083.19.19 0 0 1-.07.016v-1a.752.752 0 0 0-.6.276.908.908 0 0 0-.18.576h1Z"/></svg>