<svg xmlns="http://www.w3.org/2000/svg" width="50" height="50" fill="none"><path fill="#333" d="M19.656 16.367c.453 0 1.032.258 1.735.774.468.343.703.672.703.984 0 .031-.117.266-.352.703-.203.406-.375 1.64-.515 3.703a17.862 17.862 0 0 1-1.782 6.211 11.253 11.253 0 0 1-2.765 3.75c-.578.422-.961.633-1.149.633-.125 0-.187-.063-.187-.188 0-.062.195-.343.586-.843 1.11-1.266 2.008-3.008 2.695-5.227.75-2.156 1.125-4.312 1.125-6.469 0-1.25-.078-2.187-.234-2.812-.22-.484-.328-.773-.328-.867 0-.235.156-.352.468-.352Zm5.157-.844c.5 0 1.101.235 1.804.704.547.437.82.859.82 1.265 0 .11-.093.297-.28.563-.204.406-.321.851-.352 1.336-.266 3.75-.399 6.984-.399 9.703 0 1.39.14 2.226.422 2.508.281.265.797.398 1.547.398.89 0 1.898-.133 3.023-.398.563-.157.961-.235 1.196-.235.5 0 .96.156 1.383.469.39.312.586.586.586.82 0 .313-.383.547-1.149.703-.875.047-1.937.07-3.187.07h-1.383c-1.578 0-2.649-.234-3.211-.702-.547-.454-.82-1.29-.82-2.508V18.78c0-.843-.07-1.586-.211-2.226-.235-.375-.352-.602-.352-.68 0-.234.188-.352.563-.352Z"/><path fill="#333" d="m21.742 18.828-.44-.236-.007.013.447.223Zm-.515 3.703.497.05v-.008l.001-.008-.498-.034Zm-1.782 6.211-.448-.222-.003.007-.003.008.454.207Zm-2.765 3.75.294.404.02-.015.02-.016-.334-.373Zm-.75-.398-.376-.33-.01.01-.008.012.394.308Zm2.695-5.227-.472-.164-.003.008-.003.008.478.148Zm.89-9.281.486-.121-.011-.044-.019-.04-.455.205Zm7.102-1.36.313-.39-.017-.013-.018-.013-.278.417Zm.54 1.829-.41-.289-.021.031-.017.034.447.224Zm-.352 1.336.498.035v-.003l-.498-.032Zm.023 12.21-.353.354.005.005.005.005.343-.363Zm4.57 0 .115.487.01-.002.01-.003-.135-.481Zm2.579.235.312-.39-.007-.006-.008-.006-.297.402Zm-.563 1.523.027.5.037-.002.036-.008-.1-.49Zm-7.781-.632.32-.384-.001-.001-.32.385Zm-1.031-16.172.488-.107-.019-.085-.045-.073-.424.265Zm-4.946.312c.286 0 .754.175 1.439.677l.591-.807c-.721-.529-1.41-.87-2.03-.87v1Zm1.439.677c.445.326.499.523.499.581h1c0-.567-.415-1.026-.908-1.388l-.591.807Zm.499.581c0-.062.012-.108.014-.117l.01-.03c.002-.006.002-.005-.004.007-.01.022-.027.06-.055.116-.056.11-.141.273-.258.491l.882.472c.118-.22.208-.393.27-.516a3.713 3.713 0 0 0 .106-.234.533.533 0 0 0 .035-.19h-1Zm-.299.48c-.144.287-.245.776-.33 1.385a37.611 37.611 0 0 0-.237 2.507l.997.068c.07-1.026.147-1.837.231-2.438.087-.626.174-.956.233-1.075l-.894-.447Zm-.566 3.877a17.363 17.363 0 0 1-1.732 6.038l.896.444a18.362 18.362 0 0 0 1.831-6.383l-.995-.1Zm-1.738 6.053a10.755 10.755 0 0 1-2.645 3.585l.667.745A11.753 11.753 0 0 0 19.9 28.95l-.91-.415Zm-2.606 3.553c-.281.206-.502.35-.667.44a1.427 1.427 0 0 1-.183.089c-.046.017-.041.008-.004.008v1c.132 0 .254-.035.35-.07.103-.038.21-.09.32-.15.217-.12.477-.292.773-.509l-.589-.808Zm-.854.537c.015 0 .118.004.213.1.096.095.1.198.1.212h-1c0 .14.035.337.193.495a.687.687 0 0 0 .494.193v-1Zm.313.313a.444.444 0 0 1-.03.158c-.004.012-.006.013.001 0 .014-.023.04-.066.086-.131.09-.13.23-.316.423-.563l-.788-.616c-.197.252-.35.456-.457.608a2.868 2.868 0 0 0-.133.209c-.018.03-.038.068-.055.108a.588.588 0 0 0-.047.227h1Zm.462-.515c1.17-1.334 2.096-3.146 2.797-5.408l-.956-.296c-.674 2.176-1.544 3.848-2.593 5.045l.752.66Zm2.791-5.392c.767-2.205 1.153-4.417 1.153-6.633h-1c0 2.098-.364 4.198-1.097 6.305l.944.328Zm1.153-6.633c0-1.26-.078-2.247-.25-2.933l-.97.242c.142.564.22 1.452.22 2.691h1Zm-.279-3.018c-.107-.238-.184-.42-.234-.551a1.854 1.854 0 0 1-.048-.14c-.012-.042-.002-.021-.002.03h-1c0 .097.025.19.04.244.02.066.045.14.075.22.06.159.147.363.258.609l.911-.412Zm-.284-.661c0-.004.001.017-.013.049a.225.225 0 0 1-.07.087c-.025.019-.04.021-.032.02a.375.375 0 0 1 .084-.008v-1c-.204 0-.448.036-.651.188a.807.807 0 0 0-.317.664h1Zm5.125-.696c.355 0 .856.172 1.528.62l.555-.833c-.735-.49-1.437-.787-2.082-.787v1Zm1.493.594c.511.409.633.702.633.875h1c0-.64-.426-1.19-1.008-1.656l-.625.781Zm.633.875c0-.04.007-.06.005-.054a.404.404 0 0 1-.023.053 2.278 2.278 0 0 1-.172.275l.817.577c.101-.143.187-.28.25-.404.055-.111.122-.272.122-.447h-1Zm-.229.34c-.235.47-.368.98-.403 1.526l.998.065c.027-.423.128-.802.3-1.145l-.895-.447Zm-.403 1.523c-.266 3.758-.4 7.005-.4 9.739h1c0-2.704.132-5.926.397-9.668l-.997-.07Zm-.4 9.739c0 .708.036 1.296.113 1.753.072.427.195.847.456 1.108l.707-.707s-.008-.007-.021-.03a.727.727 0 0 1-.05-.108c-.037-.1-.074-.24-.106-.43-.064-.378-.099-.904-.099-1.586h-1Zm.579 2.871c.43.405 1.117.535 1.89.535v-1c-.727 0-1.07-.136-1.204-.262l-.686.727Zm1.89.535c.939 0 1.986-.14 3.138-.412l-.23-.973c-1.097.26-2.066.385-2.908.385v1Zm3.157-.417c.565-.156.903-.216 1.062-.216v-1c-.31 0-.769.097-1.33.253l.268.963Zm1.062-.216c.387 0 .745.119 1.085.37l.595-.803a2.773 2.773 0 0 0-1.68-.567v1Zm1.07.36c.175.14.284.253.345.339.063.087.053.114.053.09h1c0-.258-.106-.485-.24-.671a2.8 2.8 0 0 0-.533-.54l-.625.781Zm.398.43c0-.088.066-.087-.048-.017-.118.072-.338.156-.7.23l.2.98c.404-.083.758-.195 1.022-.357.27-.165.526-.437.526-.837h-1Zm-.675.203c-.863.046-1.916.07-3.16.07v1c1.255 0 2.327-.024 3.214-.071l-.054-.999Zm-3.16.07h-1.383v1h1.383v-1Zm-1.383 0c-.768 0-1.391-.058-1.88-.164-.492-.108-.814-.26-1.011-.423l-.64.768c.366.305.86.505 1.438.631.581.128 1.282.188 2.093.188v-1Zm-2.892-.588c-.372-.308-.64-.95-.64-2.123h-1c0 1.265.28 2.294 1.002 2.893l.638-.77Zm-.64-2.123V18.78h-1V30.22h1Zm0-11.438c0-.87-.072-1.65-.222-2.333l-.977.214c.131.597.2 1.302.2 2.12h1Zm-.286-2.491a6.337 6.337 0 0 1-.244-.416 1.015 1.015 0 0 1-.043-.092c-.003-.007-.002-.004.001.006.002.007.01.04.01.087h-1c0 .117.037.22.055.266.024.062.055.127.089.192.068.131.164.295.284.487l.848-.53Zm-.276-.415a.184.184 0 0 1-.024.082.21.21 0 0 1-.07.078c-.016.01-.016.006.012 0a.732.732 0 0 1 .145-.012v-1c-.224 0-.476.032-.687.164a.79.79 0 0 0-.376.688h1Z"/></svg>