<svg width="100" height="100" viewBox="0 0 100 100" fill="none" xmlns="http://www.w3.org/2000/svg">
<path d="M43.0234 76.4141C42.7891 76.4141 42.6172 76.2891 42.5078 76.0391L42.2969 75.5703C41.6875 75.7266 41.1953 75.8438 40.8203 75.9219L39.2969 76.2969C38.9844 76.375 38.7891 76.4141 38.7109 76.4141C38.6172 76.4141 38.5391 76.3984 38.4766 76.3672C38.4297 76.3203 38.3906 76.2812 38.3594 76.25C38.3281 76.2031 38.3047 76.1641 38.2891 76.1328C38.1641 75.9141 38.1094 75.7656 38.125 75.6875L38.2891 75.4297C38.6953 74.8672 39.0703 74.0625 39.4141 73.0156L38.9453 73.0859L38.3359 73.1562C38.2891 73.1719 38.1875 73.2031 38.0312 73.25C37.8906 73.2812 37.7812 73.2734 37.7031 73.2266C37.5312 73.1172 37.3047 72.9219 37.0234 72.6406C36.9609 72.5781 36.9297 72.5312 36.9297 72.5C36.9297 72.4062 37.1016 72.3594 37.4453 72.3594H38.2422C38.7734 72.3281 39.2578 72.2891 39.6953 72.2422C39.7891 72.0078 39.8906 71.7109 40 71.3516C40.1094 70.9922 40.1875 70.7031 40.2344 70.4844C40.2344 70.4375 40.2344 70.3438 40.2344 70.2031C40.25 70.0625 40.2812 69.9766 40.3281 69.9453H40.3516C40.4141 69.9453 40.5 69.9766 40.6094 70.0391C40.7188 70.1016 40.8203 70.1797 40.9141 70.2734C41.2109 70.5703 41.2969 70.8047 41.1719 70.9766C41.1094 70.9922 40.9766 71.25 40.7734 71.75C40.7578 71.7812 40.7031 71.9219 40.6094 72.1719C40.7344 72.1562 41.1875 72.1016 41.9688 72.0078C42.3281 71.9766 42.6016 71.9375 42.7891 71.8906C43.0547 71.8125 43.2656 71.7734 43.4219 71.7734C43.5469 71.7734 43.6484 71.8203 43.7266 71.9141C43.8047 71.9922 43.8594 72.0469 43.8906 72.0781C43.9375 72.125 43.9922 72.2188 44.0547 72.3594C44.1172 72.4688 44.1406 72.5469 44.125 72.5938C44.0625 72.6875 43.9531 72.7344 43.7969 72.7344C43.2812 72.7031 42.6641 72.7188 41.9453 72.7812C41.6328 72.8125 41.3984 72.8438 41.2422 72.875L40.3281 72.9688L40.1172 73.6016L39.8594 74.1641C39.7812 74.3516 39.6953 74.5391 39.6016 74.7266C39.5078 74.9141 39.4375 75.0703 39.3906 75.1953C39.375 75.2266 39.3672 75.2734 39.3672 75.3359C39.3672 75.4141 39.4141 75.4531 39.5078 75.4531C39.6328 75.4531 40.0625 75.3828 40.7969 75.2422L41.6641 75.1016L42.0625 75.0078C41.9219 74.6172 41.8125 74.3672 41.7344 74.2578C41.6562 74.1484 41.6094 74.0781 41.5938 74.0469L41.7344 73.9062C42.3438 74.2969 42.8359 74.6953 43.2109 75.1016C43.3203 75.2422 43.3906 75.375 43.4219 75.5C43.4688 75.625 43.4844 75.7656 43.4688 75.9219C43.4375 76.0625 43.3828 76.1719 43.3047 76.25C43.2734 76.3281 43.1797 76.3828 43.0234 76.4141ZM43.1406 84.6641C42.9062 84.6641 42.6797 84.4922 42.4609 84.1484C42.1797 83.7109 41.9062 83.3516 41.6406 83.0703L41.0312 82.4375C40.7031 82.8125 40.4141 83.1094 40.1641 83.3281C39.9297 83.5469 39.6328 83.7578 39.2734 83.9609C38.6016 84.3516 38.0391 84.5469 37.5859 84.5469C37.4766 84.5469 37.4219 84.5078 37.4219 84.4297C37.4219 84.3828 37.5703 84.2812 37.8672 84.125C38.1641 83.9688 38.4453 83.7812 38.7109 83.5625C39.3828 83 39.9375 82.4219 40.375 81.8281C40.2812 81.7344 39.8125 81.3281 38.9688 80.6094C38.8594 80.5312 38.6953 80.3984 38.4766 80.2109C38.4297 80.1797 38.3359 80.1094 38.1953 80C38.0547 79.8906 37.9844 79.8125 37.9844 79.7656C37.9844 79.6875 38.0234 79.6484 38.1016 79.6484C38.3359 79.6484 38.7109 79.8125 39.2266 80.1406C39.7422 80.4531 40.2812 80.8281 40.8438 81.2656C41.0625 81 41.2344 80.75 41.3594 80.5156C41.4844 80.2812 41.625 79.9922 41.7812 79.6484C41.8594 79.4766 41.9062 79.3281 41.9219 79.2031C41.9375 79.0625 41.9453 78.9766 41.9453 78.9453C41.9453 78.7734 41.9922 78.6875 42.0859 78.6875C42.1953 78.6875 42.3438 78.7734 42.5312 78.9453C42.8594 79.2578 43.0234 79.4688 43.0234 79.5781C43.0234 79.6406 42.9844 79.7109 42.9062 79.7891C42.7188 79.9766 42.5469 80.2266 42.3906 80.5391C42.2969 80.7266 42.125 80.9922 41.875 81.3359C41.7969 81.4297 41.7344 81.5156 41.6875 81.5938C41.6406 81.6719 41.5938 81.7422 41.5469 81.8047C41.9062 82.0703 42.4375 82.5234 43.1406 83.1641C43.3125 83.3203 43.4219 83.4688 43.4688 83.6094C43.5312 83.7344 43.5625 83.9062 43.5625 84.125C43.5625 84.2812 43.5234 84.4141 43.4453 84.5234C43.3672 84.6172 43.2656 84.6641 43.1406 84.6641ZM47.9219 74.5391C48.1094 74.5391 48.2031 74.625 48.2031 74.7969C48.2031 74.8906 48.1172 75.0234 47.9453 75.1953C47.4766 75.7734 46.5469 76.875 45.1562 78.5C45.0469 78.6406 44.9453 78.7109 44.8516 78.7109C44.7734 78.7109 44.6016 78.5938 44.3359 78.3594C44.1172 78.1719 44.0078 78.0156 44.0078 77.8906C44.0078 77.75 44.125 77.6172 44.3594 77.4922C44.7188 77.2891 45.2578 76.8828 45.9766 76.2734C46.6953 75.6328 47.2266 75.125 47.5703 74.75C47.7109 74.6094 47.8281 74.5391 47.9219 74.5391ZM17.8516 87.6641C17.8516 87.8828 17.8203 88.0391 17.7578 88.1328C17.6953 88.2266 17.6016 88.2734 17.4766 88.2734C17.2422 88.2734 16.9844 88.1875 16.7031 88.0156C16.4219 87.8438 16.2812 87.6016 16.2812 87.2891C16.2812 87.2109 16.2969 87.0938 16.3281 86.9375C16.4062 86.4844 16.4453 85.9688 16.4453 85.3906L16.4219 70.0156C16.4219 69.4688 16.3203 69 16.1172 68.6094C16.0234 68.3906 15.9766 68.2578 15.9766 68.2109C15.9766 68.1016 16.0547 68.0469 16.2109 68.0469C16.4609 68.0469 17.0312 68.2031 17.9219 68.5156L31.9375 67.8828H32.1484C32.4922 67.8828 32.7812 67.9844 33.0156 68.1875C33.2656 68.375 33.3906 68.5625 33.3906 68.75C33.3906 68.8125 33.3594 68.8984 33.2969 69.0078C33.25 69.1016 33.2266 69.1719 33.2266 69.2188L33.1328 85.0859C33.6641 85.6641 33.9297 86.0547 33.9297 86.2578C33.9297 86.3672 33.875 86.4375 33.7656 86.4688C33.6719 86.5 33.5547 86.5156 33.4141 86.5156C33.2734 86.5312 33.1797 86.5391 33.1328 86.5391L17.8516 86.8906V87.6641ZM17.8516 85.6016L31.75 85.2031L31.8203 69.1016L17.7812 69.7578L17.8516 85.6016ZM18.0391 75.3125C18.0391 75.2344 18.0859 75.1953 18.1797 75.1953C18.2422 75.1953 18.2891 75.2031 18.3203 75.2188C18.6328 75.2969 18.8984 75.3359 19.1172 75.3359L19.3984 75.3125L24.0391 75.0781V73.9531L22.4922 74.0234L22.5156 74.1641V74.2578C22.5156 74.5078 22.3984 74.6328 22.1641 74.6328C21.9141 74.6172 21.7031 74.5625 21.5312 74.4688C21.3594 74.375 21.2734 74.2266 21.2734 74.0234V73.8359C21.2891 73.7578 21.2969 73.6562 21.2969 73.5312C21.2969 73.3906 21.2891 73.2734 21.2734 73.1797L21.0625 71.6328C21 71.1953 20.8984 70.8594 20.7578 70.625C20.6797 70.5 20.6406 70.4062 20.6406 70.3438C20.6406 70.2656 20.7109 70.2266 20.8516 70.2266C21.0703 70.2266 21.5 70.3359 22.1406 70.5547L27.25 70.2266H27.3906C27.7812 70.2266 28.0469 70.2969 28.1875 70.4375C28.3438 70.5781 28.4219 70.7188 28.4219 70.8594C28.4219 70.9219 28.3984 71 28.3516 71.0938C28.3203 71.1719 28.2969 71.2344 28.2812 71.2812L27.9531 72.8516C28.2031 73.1953 28.3281 73.4297 28.3281 73.5547C28.3281 73.6328 28.2969 73.6875 28.2344 73.7188C28.1719 73.7344 28.0703 73.75 27.9297 73.7656L25.2344 73.9062L25.2109 75.0312L29.2891 74.8203C29.3984 74.8047 29.5391 74.7812 29.7109 74.75C29.8984 74.7031 30.0469 74.6719 30.1562 74.6562C30.1719 74.6562 30.2031 74.6484 30.25 74.6328C30.2969 74.6016 30.3438 74.5859 30.3906 74.5859C30.5 74.5859 30.7031 74.7031 31 74.9375C31.2969 75.1562 31.4453 75.3516 31.4453 75.5234C31.4453 75.6641 31.2812 75.75 30.9531 75.7812L19.7969 76.3203H19.3281C19 76.3203 18.7734 76.2734 18.6484 76.1797C18.5078 76.0703 18.3672 75.9375 18.2266 75.7812C18.1016 75.6094 18.0391 75.4531 18.0391 75.3125ZM19.3047 77.0703C19.3047 76.9609 19.3906 76.9062 19.5625 76.9062C19.7188 76.9062 20.1641 77.0078 20.8984 77.2109L28.7734 76.8359H28.9609C29.1641 76.8359 29.375 76.9297 29.5938 77.1172C29.8281 77.2891 29.9453 77.4609 29.9453 77.6328C29.9453 77.6797 29.9297 77.7344 29.8984 77.7969C29.8828 77.8594 29.8672 77.9219 29.8516 77.9844L29.2422 82.7891C29.5703 83.1797 29.7344 83.4688 29.7344 83.6562C29.7344 83.7344 29.6875 83.7891 29.5938 83.8203C29.5156 83.8516 29.375 83.875 29.1719 83.8906L21.4141 84.1719L21.4375 84.5234V84.6172C21.4375 84.9297 21.3203 85.0859 21.0859 85.0859C20.9141 85.0859 20.7031 85.0234 20.4531 84.8984C20.2031 84.7578 20.0781 84.5547 20.0781 84.2891L20.1016 84.0781C20.1328 83.7031 20.1484 83.4141 20.1484 83.2109L20.125 82.6719L19.7969 78.5234C19.7656 78.1328 19.6328 77.7266 19.3984 77.3047C19.3359 77.1797 19.3047 77.1016 19.3047 77.0703ZM21.3438 83.1406L28.0938 82.8594L28.6328 77.8672L20.9922 78.2188L21.3438 83.1406ZM22.0938 78.9219C22.0938 78.8438 22.1641 78.8047 22.3047 78.8047C22.5391 78.8047 22.9141 78.8984 23.4297 79.0859L26.0547 78.8984L26.2656 78.875C26.4531 78.875 26.6328 78.9531 26.8047 79.1094C26.9922 79.2656 27.0859 79.4375 27.0859 79.625C27.0859 79.6562 27.0703 79.7031 27.0391 79.7656C27.0234 79.8125 27.0078 79.8516 26.9922 79.8828L26.6875 81.0078C26.9062 81.2891 27.0156 81.4922 27.0156 81.6172C27.0156 81.6953 26.9688 81.75 26.875 81.7812C26.7969 81.8125 26.6641 81.8359 26.4766 81.8516L23.7344 81.9922V82.1797C23.7344 82.4141 23.6484 82.5312 23.4766 82.5312C23.3828 82.5312 23.2422 82.4844 23.0547 82.3906C22.8984 82.3125 22.7891 82.2422 22.7266 82.1797C22.6797 82.1016 22.6562 82 22.6562 81.875V81.7109C22.6719 81.6172 22.6797 81.4922 22.6797 81.3359C22.6797 81.1953 22.6719 81.0859 22.6562 81.0078L22.5391 80.0938C22.4766 79.7188 22.3672 79.4219 22.2109 79.2031C22.1328 79.0781 22.0938 78.9844 22.0938 78.9219ZM22.3984 73.0859L26.875 72.8516L27.0859 71.2578L22.2344 71.5391L22.3984 73.0859ZM23.6406 81.1484L25.75 81.0312L25.8906 79.8359L23.5469 80L23.6406 81.1484Z" fill="#333333"/>
<path d="M76.6797 77.1172C76.4609 77.1172 76.2969 77.0469 76.1875 76.9062C76.0469 76.6406 75.7578 76.3516 75.3203 76.0391L75.3672 75.9219C75.8516 76.125 76.2578 76.2266 76.5859 76.2266C76.7891 76.2266 76.9609 76.1094 77.1016 75.875C77.2578 75.625 77.4219 75.2656 77.5938 74.7969C77.7969 74.2188 77.9062 73.7344 77.9219 73.3438C77.9219 73.2969 77.8984 73.2578 77.8516 73.2266C77.8047 73.1797 77.7656 73.1562 77.7344 73.1562C77.5938 73.1406 77.3281 73.1641 76.9375 73.2266L76.4453 73.2969C76.3047 73.3125 76.1406 73.3438 75.9531 73.3906C75.7812 73.4375 75.6406 73.4688 75.5312 73.4844C75.4688 73.5 75.3672 73.5312 75.2266 73.5781C75.0859 73.625 74.9844 73.6484 74.9219 73.6484C74.8438 73.6484 74.75 73.6094 74.6406 73.5312C74.5469 73.4375 74.4609 73.3359 74.3828 73.2266C74.3672 73.2109 74.3594 73.1797 74.3594 73.1328C74.3594 73.0703 74.4062 72.9922 74.5 72.8984C74.6094 72.7891 74.6953 72.7031 74.7578 72.6406C74.8359 72.5469 74.9141 72.4375 74.9922 72.3125C75.0703 72.1719 75.1328 72.0703 75.1797 72.0078C75.2578 71.8828 75.3203 71.7344 75.3672 71.5625L75.4141 71.3516C75.4141 71.3359 75.4062 71.2969 75.3906 71.2344C75.375 71.1562 75.3438 71.1172 75.2969 71.1172C74.6719 71.1953 74.2109 71.2891 73.9141 71.3984C73.8516 71.4297 73.7578 71.4609 73.6328 71.4922C73.5234 71.4922 73.4297 71.4453 73.3516 71.3516C73.3047 71.3359 73.2109 71.2109 73.0703 70.9766C73.0078 70.9141 72.9766 70.8594 72.9766 70.8125C72.9766 70.7031 73.1406 70.6406 73.4688 70.625L73.9141 70.5781C73.9922 70.5781 74.1562 70.5625 74.4062 70.5312C74.9062 70.4844 75.6016 70.4297 76.4922 70.3672C76.8047 70.3516 77.3438 70.3125 78.1094 70.25C78.3281 70.2344 78.5938 70.2031 78.9062 70.1562C79.0781 70.1094 79.1875 70.0859 79.2344 70.0859C79.3125 70.0859 79.3906 70.1172 79.4688 70.1797C79.5469 70.2109 79.6484 70.2734 79.7734 70.3672C79.8984 70.4453 79.9922 70.5312 80.0547 70.625C80.1172 70.7031 80.1484 70.7812 80.1484 70.8594C80.1484 70.9375 80.1094 70.9922 80.0312 71.0234C79.9531 71.0547 79.8516 71.0547 79.7266 71.0234C79.5391 70.9766 79.3203 70.9453 79.0703 70.9297C78.8359 70.9141 78.6953 70.9062 78.6484 70.9062C78.1172 70.8906 77.4531 70.9141 76.6562 70.9766C76.4375 71.0078 76.2734 71.0234 76.1641 71.0234C76.2578 71.1016 76.3438 71.2266 76.4219 71.3984V71.4453C76.4219 71.4922 76.3984 71.5547 76.3516 71.6328C76.3047 71.7109 76.25 71.7656 76.1875 71.7969C76.1094 71.8438 76.0156 71.9531 75.9062 72.125C75.7969 72.2969 75.7266 72.4062 75.6953 72.4531C75.6016 72.5781 75.5547 72.6797 75.5547 72.7578C75.5547 72.8203 75.6172 72.8438 75.7422 72.8281C75.8516 72.8125 76.0781 72.7812 76.4219 72.7344C76.7812 72.6719 77.0469 72.6172 77.2188 72.5703C77.2656 72.5547 77.3359 72.5391 77.4297 72.5234C77.5391 72.5078 77.6641 72.4766 77.8047 72.4297C77.9141 72.4141 78.0234 72.4375 78.1328 72.5C78.2578 72.5625 78.4453 72.6953 78.6953 72.8984C78.8828 73.0391 78.9766 73.1641 78.9766 73.2734C78.9766 73.3516 78.9453 73.4297 78.8828 73.5078C78.8203 73.6172 78.7734 73.7656 78.7422 73.9531C78.6016 74.6094 78.4375 75.1406 78.25 75.5469C78.1094 75.8281 77.9766 76.0625 77.8516 76.25C77.7266 76.4219 77.5703 76.5938 77.3828 76.7656C77.1797 77 76.9453 77.1172 76.6797 77.1172ZM76.7734 85.3203C76.6641 85.3203 76.5859 85.2891 76.5391 85.2266C76.4922 85.1641 76.4609 85.125 76.4453 85.1094C76.2891 84.8906 76.2188 84.6797 76.2344 84.4766C76.25 84.3516 76.2734 84.0156 76.3047 83.4688L76.3281 82.3438C76.3125 82.1719 76.2969 82.0703 76.2812 82.0391C76.2656 81.9922 76.1953 81.8984 76.0703 81.7578C75.8203 81.4453 75.5312 81.125 75.2031 80.7969C74.8281 80.4219 74.5859 80.1719 74.4766 80.0469C74.4766 80.0469 74.2422 79.8125 73.7734 79.3438C73.7266 79.2969 73.7031 79.25 73.7031 79.2031C73.7031 79.125 73.75 79.0625 73.8438 79.0156C73.9531 78.9531 74.0625 78.9297 74.1719 78.9453C74.4844 78.9766 74.6875 79.0156 74.7812 79.0625C74.8906 79.0938 74.9922 79.1875 75.0859 79.3438C75.1797 79.5 75.3125 79.6875 75.4844 79.9062C75.6719 80.1094 75.8125 80.2656 75.9062 80.375C76.2969 80.8438 76.5703 81.1562 76.7266 81.3125C77.0078 80.9844 77.3594 80.5156 77.7812 79.9062C78.125 79.4688 78.3281 79.1094 78.3906 78.8281C78.4531 78.625 78.5469 78.5234 78.6719 78.5234C78.7344 78.5234 78.8281 78.5625 78.9531 78.6406C79.3594 78.8906 79.5625 79.0938 79.5625 79.25C79.5625 79.3438 79.4609 79.4609 79.2578 79.6016C78.9766 79.8047 78.7422 80.0312 78.5547 80.2812L78.0859 80.8672C77.7734 81.2422 77.5391 81.5391 77.3828 81.7578C77.3047 81.8984 77.2656 82.1016 77.2656 82.3672V83.7969V84.7344C77.2812 84.8438 77.2188 84.9688 77.0781 85.1094C76.9531 85.25 76.8516 85.3203 76.7734 85.3203ZM84.0156 76.0859C84.0625 76.0859 84.1094 76.1094 84.1562 76.1562C84.2031 76.1875 84.2344 76.2344 84.25 76.2969V76.3438C84.25 76.4531 84.1641 76.6641 83.9922 76.9766L82.3047 79.9062C82.1797 80.1719 82.0156 80.3047 81.8125 80.3047C81.6094 80.3047 81.4375 80.1797 81.2969 79.9297C81.1562 79.7266 80.9844 79.4219 80.7812 79.0156C80.6875 78.875 80.6094 78.7344 80.5469 78.5938C80.4844 78.4531 80.4375 78.3516 80.4062 78.2891C80.2344 77.9922 80.1484 77.7812 80.1484 77.6562C80.1484 77.5938 80.1719 77.5469 80.2188 77.5156C80.2656 77.4688 80.3125 77.4453 80.3594 77.4453C80.5312 77.4453 80.6875 77.5391 80.8281 77.7266C80.9375 77.8359 81.0234 77.9531 81.0859 78.0781L81.3438 78.4297L81.8125 78.9688L82.0234 78.6406C82.2422 78.2656 82.7578 77.5234 83.5703 76.4141C83.7422 76.1953 83.8906 76.0859 84.0156 76.0859ZM60.8359 87.7812C60.8359 88.2031 60.7031 88.4141 60.4375 88.4141C60.375 88.4141 60.2266 88.375 59.9922 88.2969C59.7734 88.2188 59.5703 88.0938 59.3828 87.9219C59.1953 87.7656 59.1016 87.5625 59.1016 87.3125C59.1016 87.1875 59.1094 87.0859 59.125 87.0078C59.2344 86.4297 59.2891 85.9609 59.2891 85.6016V76.625L52.1641 77.0234L51.5547 77.0469C51.3047 77.0469 51.1328 77.0078 51.0391 76.9297C50.8203 76.7422 50.6484 76.5391 50.5234 76.3203C50.3984 76.1016 50.3359 75.9219 50.3359 75.7812C50.3359 75.6875 50.3906 75.6406 50.5 75.6406H50.6172C50.8984 75.6875 51.1719 75.7109 51.4375 75.7109H51.6953L59.3359 75.2891L59.2891 68.3047C59.2891 67.9453 59.1875 67.6016 58.9844 67.2734C58.9375 67.1953 58.9141 67.125 58.9141 67.0625C58.9141 66.9219 59.0156 66.8516 59.2188 66.8516C59.2969 66.8516 59.4688 66.8828 59.7344 66.9453C60 66.9922 60.25 67.0859 60.4844 67.2266C60.7188 67.3516 60.8359 67.5312 60.8359 67.7656V70.4844L63.9297 70.2734C64.4453 70.2422 64.8906 70.1641 65.2656 70.0391C65.3906 69.9922 65.5 69.9688 65.5938 69.9688C65.875 69.9688 66.1719 70.1172 66.4844 70.4141C66.8125 70.6953 66.9766 70.9297 66.9766 71.1172C66.9766 71.2734 66.8438 71.3672 66.5781 71.3984L60.8359 71.7266L60.8125 75.1953L68.7812 74.75C69.0938 74.7188 69.3906 74.6562 69.6719 74.5625C69.7031 74.5469 69.7578 74.5391 69.8359 74.5391C70.0391 74.5391 70.2891 74.6875 70.5859 74.9844C70.8984 75.2656 71.0547 75.5 71.0547 75.6875C71.0547 75.875 70.8672 75.9844 70.4922 76.0156L60.8125 76.5547L60.8359 87.7812ZM61.3047 79.2266C61.3047 79.0391 61.3828 78.8438 61.5391 78.6406C61.6953 78.4375 61.8438 78.3359 61.9844 78.3359C62.25 78.3359 62.9844 78.75 64.1875 79.5781C65.3906 80.3906 66.3203 81.0547 66.9766 81.5703C67.2734 81.8047 67.4219 82.0078 67.4219 82.1797C67.4219 82.3359 67.3203 82.5391 67.1172 82.7891C66.9297 83.0391 66.7656 83.1641 66.625 83.1641C66.5 83.1641 66.3359 83.0859 66.1328 82.9297C64.7734 81.8047 63.2969 80.7266 61.7031 79.6953C61.5625 79.6016 61.4609 79.5234 61.3984 79.4609C61.3359 79.3984 61.3047 79.3203 61.3047 79.2266Z" fill="#333333"/>
<path d="M72.5 20.5V53H25M72.5 20.5V16H22V53H25M72.5 20.5H76V58H25V53M25 49H30M32.5 49H40M69 49H52.5M40 49L45.5 40.5L54 46.5M40 49H52.5M54 46.5L52.5 49M54 46.5L61 35.5L69 43M35 18.5V21.5M40 20L38.5 22.5M43.5 23.5L41 25M45 28.5H42M41 32L43.5 34M38.5 34L40 37M35 35.5V38M31.5 34L30 37M29 32L26 34M28 28.5H25M29 25L26 23.5M31.5 22.5L29.5 20M35 25C37 25 38.5 26.5 38.5 28.5C38.5 30.5 37 32 35 32C33 32 31.5 30.5 31.5 28.5C31.5 26.5 33 25 35 25Z" stroke="#333333" stroke-width="2" stroke-linecap="round" stroke-linejoin="round"/>
</svg>
