<svg width="100" height="100" viewBox="0 0 100 100" fill="none" xmlns="http://www.w3.org/2000/svg">
<path d="M43.0234 75.9453C42.7891 75.9453 42.6172 75.8203 42.5078 75.5703L42.2969 75.1016C41.6875 75.2578 41.1953 75.375 40.8203 75.4531L39.2969 75.8281C38.9844 75.9062 38.7891 75.9453 38.7109 75.9453C38.6172 75.9453 38.5391 75.9297 38.4766 75.8984C38.4297 75.8516 38.3906 75.8125 38.3594 75.7812C38.3281 75.7344 38.3047 75.6953 38.2891 75.6641C38.1641 75.4453 38.1094 75.2969 38.125 75.2188L38.2891 74.9609C38.6953 74.3984 39.0703 73.5938 39.4141 72.5469L38.9453 72.6172L38.3359 72.6875C38.2891 72.7031 38.1875 72.7344 38.0312 72.7812C37.8906 72.8125 37.7812 72.8047 37.7031 72.7578C37.5312 72.6484 37.3047 72.4531 37.0234 72.1719C36.9609 72.1094 36.9297 72.0625 36.9297 72.0312C36.9297 71.9375 37.1016 71.8906 37.4453 71.8906H38.2422C38.7734 71.8594 39.2578 71.8203 39.6953 71.7734C39.7891 71.5391 39.8906 71.2422 40 70.8828C40.1094 70.5234 40.1875 70.2344 40.2344 70.0156C40.2344 69.9688 40.2344 69.875 40.2344 69.7344C40.25 69.5938 40.2812 69.5078 40.3281 69.4766H40.3516C40.4141 69.4766 40.5 69.5078 40.6094 69.5703C40.7188 69.6328 40.8203 69.7109 40.9141 69.8047C41.2109 70.1016 41.2969 70.3359 41.1719 70.5078C41.1094 70.5234 40.9766 70.7812 40.7734 71.2812C40.7578 71.3125 40.7031 71.4531 40.6094 71.7031C40.7344 71.6875 41.1875 71.6328 41.9688 71.5391C42.3281 71.5078 42.6016 71.4688 42.7891 71.4219C43.0547 71.3438 43.2656 71.3047 43.4219 71.3047C43.5469 71.3047 43.6484 71.3516 43.7266 71.4453C43.8047 71.5234 43.8594 71.5781 43.8906 71.6094C43.9375 71.6562 43.9922 71.75 44.0547 71.8906C44.1172 72 44.1406 72.0781 44.125 72.125C44.0625 72.2188 43.9531 72.2656 43.7969 72.2656C43.2812 72.2344 42.6641 72.25 41.9453 72.3125C41.6328 72.3438 41.3984 72.375 41.2422 72.4062L40.3281 72.5L40.1172 73.1328L39.8594 73.6953C39.7812 73.8828 39.6953 74.0703 39.6016 74.2578C39.5078 74.4453 39.4375 74.6016 39.3906 74.7266C39.375 74.7578 39.3672 74.8047 39.3672 74.8672C39.3672 74.9453 39.4141 74.9844 39.5078 74.9844C39.6328 74.9844 40.0625 74.9141 40.7969 74.7734L41.6641 74.6328L42.0625 74.5391C41.9219 74.1484 41.8125 73.8984 41.7344 73.7891C41.6562 73.6797 41.6094 73.6094 41.5938 73.5781L41.7344 73.4375C42.3438 73.8281 42.8359 74.2266 43.2109 74.6328C43.3203 74.7734 43.3906 74.9062 43.4219 75.0312C43.4688 75.1562 43.4844 75.2969 43.4688 75.4531C43.4375 75.5938 43.3828 75.7031 43.3047 75.7812C43.2734 75.8594 43.1797 75.9141 43.0234 75.9453ZM43.1406 84.1953C42.9062 84.1953 42.6797 84.0234 42.4609 83.6797C42.1797 83.2422 41.9062 82.8828 41.6406 82.6016L41.0312 81.9688C40.7031 82.3438 40.4141 82.6406 40.1641 82.8594C39.9297 83.0781 39.6328 83.2891 39.2734 83.4922C38.6016 83.8828 38.0391 84.0781 37.5859 84.0781C37.4766 84.0781 37.4219 84.0391 37.4219 83.9609C37.4219 83.9141 37.5703 83.8125 37.8672 83.6562C38.1641 83.5 38.4453 83.3125 38.7109 83.0938C39.3828 82.5312 39.9375 81.9531 40.375 81.3594C40.2812 81.2656 39.8125 80.8594 38.9688 80.1406C38.8594 80.0625 38.6953 79.9297 38.4766 79.7422C38.4297 79.7109 38.3359 79.6406 38.1953 79.5312C38.0547 79.4219 37.9844 79.3438 37.9844 79.2969C37.9844 79.2188 38.0234 79.1797 38.1016 79.1797C38.3359 79.1797 38.7109 79.3438 39.2266 79.6719C39.7422 79.9844 40.2812 80.3594 40.8438 80.7969C41.0625 80.5312 41.2344 80.2812 41.3594 80.0469C41.4844 79.8125 41.625 79.5234 41.7812 79.1797C41.8594 79.0078 41.9062 78.8594 41.9219 78.7344C41.9375 78.5938 41.9453 78.5078 41.9453 78.4766C41.9453 78.3047 41.9922 78.2188 42.0859 78.2188C42.1953 78.2188 42.3438 78.3047 42.5312 78.4766C42.8594 78.7891 43.0234 79 43.0234 79.1094C43.0234 79.1719 42.9844 79.2422 42.9062 79.3203C42.7188 79.5078 42.5469 79.7578 42.3906 80.0703C42.2969 80.2578 42.125 80.5234 41.875 80.8672C41.7969 80.9609 41.7344 81.0469 41.6875 81.125C41.6406 81.2031 41.5938 81.2734 41.5469 81.3359C41.9062 81.6016 42.4375 82.0547 43.1406 82.6953C43.3125 82.8516 43.4219 83 43.4688 83.1406C43.5312 83.2656 43.5625 83.4375 43.5625 83.6562C43.5625 83.8125 43.5234 83.9453 43.4453 84.0547C43.3672 84.1484 43.2656 84.1953 43.1406 84.1953ZM47.9219 74.0703C48.1094 74.0703 48.2031 74.1562 48.2031 74.3281C48.2031 74.4219 48.1172 74.5547 47.9453 74.7266C47.4766 75.3047 46.5469 76.4062 45.1562 78.0312C45.0469 78.1719 44.9453 78.2422 44.8516 78.2422C44.7734 78.2422 44.6016 78.125 44.3359 77.8906C44.1172 77.7031 44.0078 77.5469 44.0078 77.4219C44.0078 77.2812 44.125 77.1484 44.3594 77.0234C44.7188 76.8203 45.2578 76.4141 45.9766 75.8047C46.6953 75.1641 47.2266 74.6562 47.5703 74.2812C47.7109 74.1406 47.8281 74.0703 47.9219 74.0703ZM25.75 80.3984C25.8281 80.4609 25.8516 80.6172 25.8203 80.8672L25.375 80.8906C25.1406 80.9062 24.8906 80.9219 24.625 80.9375L23.9688 81.0078L23.6172 81.1953L23.2656 81.3359C23.1406 81.2109 23.0703 81.0312 23.0547 80.7969C23.0391 80.5625 23.0156 80.3516 22.9844 80.1641C22.9531 79.9766 22.9062 79.8047 22.8438 79.6484C22.7812 79.4922 22.7109 79.3594 22.6328 79.25L22.5859 78.7812L23.0312 78.8281L23.3594 78.9219C23.5469 78.9062 23.7344 78.875 23.9219 78.8281C24.1094 78.7969 24.2812 78.75 24.4375 78.6875C24.625 78.625 24.7891 78.5547 24.9297 78.4766L25.2344 78.3594C25.3594 78.3438 25.4766 78.3516 25.5859 78.3828C25.7266 78.4141 25.875 78.4609 26.0312 78.5234L26.3125 78.6875L26.4297 79.0156L26.2188 79.3672L26.0547 79.6484L25.8906 79.9531L25.75 80.3984ZM23.4531 79.3672L23.5 79.9297L23.5938 80.4922C24 80.4141 24.25 80.3672 24.3438 80.3516L25.0469 80.2344L25.1875 79.5547L25.2109 79.3203L24.9062 79.0859L24.5781 79.1562C24.3906 79.2031 24.1406 79.2578 23.8281 79.3203L23.4531 79.3672ZM21.4609 77.4922C21.7734 77.4453 22.0156 77.4141 22.1875 77.3984L23.3125 77.2578C23.6875 77.2266 24.0625 77.1797 24.4375 77.1172C24.8125 77.0547 25.1562 76.9922 25.4688 76.9297C25.7812 76.8672 26.0781 76.8047 26.3594 76.7422C26.6406 76.6797 26.8906 76.6172 27.1094 76.5547L27.5078 76.4141C27.6484 76.4141 27.8359 76.4453 28.0703 76.5078C28.3047 76.5703 28.4844 76.6328 28.6094 76.6953L29.1719 76.9766C29.4219 77.1016 29.5938 77.2109 29.6875 77.3047L29.8047 77.5391C29.7891 77.6328 29.7344 77.7344 29.6406 77.8438C29.5469 77.9531 29.4688 78.0859 29.4062 78.2422C29.3438 78.3984 29.2734 78.6016 29.1953 78.8516L28.8906 80.0469C28.7344 80.5938 28.6094 81.0859 28.5156 81.5234C28.4062 81.9609 28.3125 82.2969 28.2344 82.5312C28.1719 82.7656 28.0625 82.9453 27.9062 83.0703L27.6016 83.2578C27.3828 83.2422 27.2344 83.1562 27.1562 83L26.9219 82.6016C26.7031 82.6328 26.4062 82.6562 26.0312 82.6719C25.6406 82.6875 25.3906 82.7031 25.2812 82.7188L24.2969 82.8359C23.7812 82.8828 23.375 82.9141 23.0781 82.9297C22.7969 82.9609 22.5938 82.9766 22.4688 82.9766H21.9766C21.9609 83.1328 21.9375 83.2734 21.9062 83.3984L21.7188 83.6094L21.5078 83.5859C21.3828 83.4766 21.2812 83.2891 21.2031 83.0234C21.1406 82.7578 21.1016 82.5703 21.0859 82.4609C21.0703 82.3359 21.0469 82.1016 21.0156 81.7578L20.875 80.2812L20.7344 79.1562C20.7031 78.8594 20.6562 78.6094 20.5938 78.4062C20.5625 78.2031 20.4922 78.0078 20.3828 77.8203L20.4062 77.2344C20.5938 77.2188 20.7656 77.2344 20.9219 77.2812C21.0469 77.3281 21.1641 77.3672 21.2734 77.3984L21.4609 77.4922ZM21.9531 82.2734C22.4844 82.2266 22.8906 82.1875 23.1719 82.1562C23.4531 82.125 23.9062 82.0703 24.5312 81.9922C25.1562 81.9297 25.5938 81.875 25.8438 81.8281C26.0781 81.7969 26.25 81.7812 26.3594 81.7812C26.4844 81.7969 26.625 81.8281 26.7812 81.875L26.9922 81.9453C27.1016 81.9141 27.1875 81.7578 27.25 81.4766L27.4375 80.4219C27.5156 79.9375 27.5781 79.4219 27.625 78.875L27.7422 77.8203L27.6953 77.5625C27.6172 77.4531 27.4844 77.3984 27.2969 77.3984C27.1875 77.3984 27.0156 77.4141 26.7812 77.4453L25.75 77.5391L24.6953 77.6797C24.5391 77.7109 24.25 77.7422 23.8281 77.7734C23.4062 77.8047 23.0312 77.8438 22.7031 77.8906L22.2578 77.9375H21.5781C21.6094 78.2031 21.6328 78.4219 21.6484 78.5938C21.6641 78.7656 21.6875 79.1094 21.7188 79.625C21.75 80.1562 21.7969 80.6719 21.8594 81.1719L21.9531 82.2734ZM18.5781 69.1484C19.0469 69.1172 19.4688 69.0859 19.8438 69.0547C20.2188 69.0391 20.9375 68.9844 22 68.8906C23.0625 68.7969 23.7031 68.7422 23.9219 68.7266L25.7969 68.5625C26.5625 68.5 27.2969 68.4297 28 68.3516C28.7031 68.2578 29.2266 68.1797 29.5703 68.1172L30.4375 67.9531L30.8828 67.8828C31.0078 67.8828 31.1484 67.9062 31.3047 67.9531C31.4766 68 31.6406 68.0547 31.7969 68.1172C31.9531 68.1797 32.1406 68.2891 32.3594 68.4453C32.5938 68.5859 32.7891 68.7266 32.9453 68.8672L33.2031 69.125C33.2031 69.2656 33.1719 69.3984 33.1094 69.5234C33.0312 69.6797 32.9531 69.8672 32.875 70.0859C32.8125 70.3047 32.7656 70.5391 32.7344 70.7891C32.6875 71.0391 32.6562 71.3672 32.6406 71.7734C32.625 72.1797 32.6094 72.7422 32.5938 73.4609V75.1953L32.6406 78.7578C32.6406 79.5703 32.6562 80.1641 32.6875 80.5391L32.7344 82.4375L32.7812 84.1484V85.2734C32.75 85.5859 32.7031 85.8516 32.6406 86.0703C32.5781 86.2891 32.4609 86.5312 32.2891 86.7969C32.1172 87.0781 31.9531 87.2734 31.7969 87.3828L31.4688 87.5234C31.3438 87.5078 31.2266 87.4141 31.1172 87.2422C31.0078 87.0547 30.875 86.7734 30.7188 86.3984C30.5469 86.0234 30.4219 85.7578 30.3438 85.6016L30.0391 85.0156C29.3516 85.0469 28.9062 85.0703 28.7031 85.0859C28.4844 85.0859 27.6328 85.125 26.1484 85.2031L23.875 85.3203C23.1406 85.3516 22.5625 85.3828 22.1406 85.4141L20.5 85.5547C20.0312 85.6016 19.5938 85.625 19.1875 85.625C18.9219 85.625 18.7344 85.6172 18.625 85.6016L18.2031 85.5312L18.1328 86.0703C18.1016 86.3516 18.0625 86.5547 18.0156 86.6797C17.9531 86.7734 17.8203 86.8125 17.6172 86.7969C17.4609 86.6875 17.3281 86.5391 17.2188 86.3516C17.125 86.1641 17.0391 85.9375 16.9609 85.6719C16.8828 85.4062 16.8438 85.1328 16.8438 84.8516C16.8438 84.6016 16.8594 84.3516 16.8906 84.1016L17.125 82.6484C17.1875 82.2109 17.2422 81.6875 17.2891 81.0781C17.3359 80.4688 17.3906 79.6328 17.4531 78.5703L17.5469 75.7109C17.5781 74.6172 17.6016 73.9141 17.6172 73.6016C17.6172 73.2734 17.6094 72.7578 17.5938 72.0547C17.5625 71.5391 17.5312 71.1562 17.5 70.9062C17.4844 70.6562 17.4531 70.4062 17.4062 70.1562C17.3594 69.8906 17.3047 69.6797 17.2422 69.5234L17.1016 69.125L17.1484 68.9141L17.4531 68.8672L17.875 68.9375C17.9688 68.9531 18.0938 68.9922 18.25 69.0547L18.5781 69.1484ZM18.25 84.7578C18.8906 84.6953 19.375 84.6562 19.7031 84.6406L21.8594 84.5234C21.9844 84.5234 22.7812 84.4609 24.25 84.3359L26.3594 84.1484C27.0625 84.1172 27.6562 84.0703 28.1406 84.0078C28.6406 83.9453 29.0078 83.9141 29.2422 83.9141C29.4297 83.9141 29.5703 83.9219 29.6641 83.9375C29.8047 83.9844 29.9766 84.0547 30.1797 84.1484C30.3828 84.2422 30.5547 84.3359 30.6953 84.4297L30.9297 84.5469C31.0234 84.5312 31.0859 84.4062 31.1172 84.1719C31.1328 83.9375 31.1484 83.6797 31.1641 83.3984C31.1797 83.1172 31.2031 82.5547 31.2344 81.7109C31.2656 80.8672 31.2812 80.1953 31.2812 79.6953C31.2969 79.1953 31.3047 78.5703 31.3047 77.8203C31.2891 77.1328 31.2812 76.5078 31.2812 75.9453C31.2812 75.3672 31.2656 74.7266 31.2344 74.0234C31.2031 73.3203 31.1797 72.6797 31.1641 72.1016C31.1484 71.5078 31.1172 71.0234 31.0703 70.6484C31.0391 70.2734 31 69.9688 30.9531 69.7344C30.9062 69.5 30.8438 69.3438 30.7656 69.2656C30.7031 69.1875 30.5625 69.1328 30.3438 69.1016C30.25 69.0859 30.125 69.0781 29.9688 69.0781C29.8125 69.0781 29.625 69.0859 29.4062 69.1016L27.7188 69.1719C27.3906 69.1875 26.9297 69.2266 26.3359 69.2891C25.7578 69.3359 25.0547 69.3984 24.2266 69.4766C23.3984 69.5391 22.7188 69.6016 22.1875 69.6641C21.6719 69.7109 21.1328 69.7812 20.5703 69.875C19.9922 69.9688 19.625 70.0234 19.4688 70.0391L19.1406 70.0625L18.7188 70.0391V71.6094C18.7188 72.125 18.7109 72.6797 18.6953 73.2734L18.6484 74.9141L18.625 75.8047C18.875 75.7891 19.1094 75.7734 19.3281 75.7578C19.5312 75.7422 19.8281 75.7109 20.2188 75.6641L21.6484 75.5L23.0781 75.3594L23.8281 75.2422C23.8438 75.0703 23.8594 74.8828 23.875 74.6797V74.2344L23.8047 73.7422C23.6172 73.7734 23.4531 73.7969 23.3125 73.8125L23.0078 73.8359H22.5625L22.4922 74.0234L22.3516 74.1641C22.2109 74.1641 22.1016 74.1172 22.0234 74.0234C21.9453 73.9453 21.875 73.7891 21.8125 73.5547C21.75 73.3047 21.6953 73.0391 21.6484 72.7578C21.6016 72.4609 21.5625 72.2578 21.5312 72.1484C21.5 72.0234 21.4531 71.8984 21.3906 71.7734L21.2734 71.5156L20.9453 70.8828C21.0859 70.8516 21.2578 70.8516 21.4609 70.8828L21.9531 70.9766C22.4531 70.9297 22.7969 70.8828 22.9844 70.8359L24.0625 70.6484C24.2812 70.6016 24.6094 70.5391 25.0469 70.4609C25.5 70.3984 25.8359 70.3359 26.0547 70.2734C26.2578 70.2266 26.4062 70.1953 26.5 70.1797C26.625 70.1797 26.7734 70.2109 26.9453 70.2734C27.1172 70.3359 27.2734 70.4141 27.4141 70.5078C27.5547 70.6016 27.6875 70.6953 27.8125 70.7891C27.9219 70.8828 28.0156 70.9766 28.0938 71.0703L28.0703 71.4219L27.7188 71.7266C27.5938 71.8203 27.4609 71.9609 27.3203 72.1484C27.1797 72.3047 27.0859 72.4297 27.0391 72.5234L26.8047 72.9453L27.0625 73.2031L27.0156 73.4609L26.3125 73.5078L25.5156 73.6016L24.9062 73.7656L25.1172 74.0703C25.1016 74.1641 25.0391 74.2812 24.9297 74.4219L24.7422 74.7031L24.625 75.1484C24.9375 75.1016 25.1875 75.0703 25.375 75.0547L26.5 74.9141C26.6562 74.8984 27.0312 74.8438 27.625 74.75C28.2188 74.6719 28.6016 74.6172 28.7734 74.5859C28.9453 74.5547 29.0938 74.5391 29.2188 74.5391C29.3594 74.5391 29.4766 74.5547 29.5703 74.5859C29.6641 74.6328 29.8281 74.7344 30.0625 74.8906C30.3125 75.0312 30.4531 75.2109 30.4844 75.4297C30.4688 75.5234 30.3906 75.5703 30.25 75.5703L29.4531 75.5938L28.4453 75.6406L27.2031 75.7344L25.6562 75.8281L24.0156 75.9922L22.375 76.1797C21.7031 76.2734 21.1875 76.3516 20.8281 76.4141C20.5312 76.4766 20.2891 76.5078 20.1016 76.5078C19.9297 76.5078 19.7344 76.4844 19.5156 76.4375C19.2969 76.3906 19.1328 76.3359 19.0234 76.2734L18.625 76.0391C18.5938 77.0234 18.5703 77.7969 18.5547 78.3594C18.5391 78.9219 18.5156 79.5469 18.4844 80.2344C18.4531 80.9219 18.4297 81.4766 18.4141 81.8984C18.3984 82.3359 18.375 82.8984 18.3438 83.5859L18.25 84.7578ZM22.375 71.6094L22.4453 72.2422L22.6094 73.0859C22.9062 73.0859 23.1562 73.0703 23.3594 73.0391C23.5781 73.0391 23.8594 73.0078 24.2031 72.9453L25.1172 72.8281L25.8438 72.7344L25.8906 72.3828C25.9219 72.2578 25.9609 72.1016 26.0078 71.9141C26.0547 71.7266 26.0781 71.5469 26.0781 71.375V71.2109C26.0156 71.1328 25.8984 71.0938 25.7266 71.0938C25.5547 71.1094 25.2812 71.1484 24.9062 71.2109L23.8281 71.3516L22.75 71.5391L22.375 71.6094ZM76.6797 76.6484C76.4609 76.6484 76.2969 76.5781 76.1875 76.4375C76.0469 76.1719 75.7578 75.8828 75.3203 75.5703L75.3672 75.4531C75.8516 75.6562 76.2578 75.7578 76.5859 75.7578C76.7891 75.7578 76.9609 75.6406 77.1016 75.4062C77.2578 75.1562 77.4219 74.7969 77.5938 74.3281C77.7969 73.75 77.9062 73.2656 77.9219 72.875C77.9219 72.8281 77.8984 72.7891 77.8516 72.7578C77.8047 72.7109 77.7656 72.6875 77.7344 72.6875C77.5938 72.6719 77.3281 72.6953 76.9375 72.7578L76.4453 72.8281C76.3047 72.8438 76.1406 72.875 75.9531 72.9219C75.7812 72.9688 75.6406 73 75.5312 73.0156C75.4688 73.0312 75.3672 73.0625 75.2266 73.1094C75.0859 73.1562 74.9844 73.1797 74.9219 73.1797C74.8438 73.1797 74.75 73.1406 74.6406 73.0625C74.5469 72.9688 74.4609 72.8672 74.3828 72.7578C74.3672 72.7422 74.3594 72.7109 74.3594 72.6641C74.3594 72.6016 74.4062 72.5234 74.5 72.4297C74.6094 72.3203 74.6953 72.2344 74.7578 72.1719C74.8359 72.0781 74.9141 71.9688 74.9922 71.8438C75.0703 71.7031 75.1328 71.6016 75.1797 71.5391C75.2578 71.4141 75.3203 71.2656 75.3672 71.0938L75.4141 70.8828C75.4141 70.8672 75.4062 70.8281 75.3906 70.7656C75.375 70.6875 75.3438 70.6484 75.2969 70.6484C74.6719 70.7266 74.2109 70.8203 73.9141 70.9297C73.8516 70.9609 73.7578 70.9922 73.6328 71.0234C73.5234 71.0234 73.4297 70.9766 73.3516 70.8828C73.3047 70.8672 73.2109 70.7422 73.0703 70.5078C73.0078 70.4453 72.9766 70.3906 72.9766 70.3438C72.9766 70.2344 73.1406 70.1719 73.4688 70.1562L73.9141 70.1094C73.9922 70.1094 74.1562 70.0938 74.4062 70.0625C74.9062 70.0156 75.6016 69.9609 76.4922 69.8984C76.8047 69.8828 77.3438 69.8438 78.1094 69.7812C78.3281 69.7656 78.5938 69.7344 78.9062 69.6875C79.0781 69.6406 79.1875 69.6172 79.2344 69.6172C79.3125 69.6172 79.3906 69.6484 79.4688 69.7109C79.5469 69.7422 79.6484 69.8047 79.7734 69.8984C79.8984 69.9766 79.9922 70.0625 80.0547 70.1562C80.1172 70.2344 80.1484 70.3125 80.1484 70.3906C80.1484 70.4688 80.1094 70.5234 80.0312 70.5547C79.9531 70.5859 79.8516 70.5859 79.7266 70.5547C79.5391 70.5078 79.3203 70.4766 79.0703 70.4609C78.8359 70.4453 78.6953 70.4375 78.6484 70.4375C78.1172 70.4219 77.4531 70.4453 76.6562 70.5078C76.4375 70.5391 76.2734 70.5547 76.1641 70.5547C76.2578 70.6328 76.3438 70.7578 76.4219 70.9297V70.9766C76.4219 71.0234 76.3984 71.0859 76.3516 71.1641C76.3047 71.2422 76.25 71.2969 76.1875 71.3281C76.1094 71.375 76.0156 71.4844 75.9062 71.6562C75.7969 71.8281 75.7266 71.9375 75.6953 71.9844C75.6016 72.1094 75.5547 72.2109 75.5547 72.2891C75.5547 72.3516 75.6172 72.375 75.7422 72.3594C75.8516 72.3438 76.0781 72.3125 76.4219 72.2656C76.7812 72.2031 77.0469 72.1484 77.2188 72.1016C77.2656 72.0859 77.3359 72.0703 77.4297 72.0547C77.5391 72.0391 77.6641 72.0078 77.8047 71.9609C77.9141 71.9453 78.0234 71.9688 78.1328 72.0312C78.2578 72.0938 78.4453 72.2266 78.6953 72.4297C78.8828 72.5703 78.9766 72.6953 78.9766 72.8047C78.9766 72.8828 78.9453 72.9609 78.8828 73.0391C78.8203 73.1484 78.7734 73.2969 78.7422 73.4844C78.6016 74.1406 78.4375 74.6719 78.25 75.0781C78.1094 75.3594 77.9766 75.5938 77.8516 75.7812C77.7266 75.9531 77.5703 76.125 77.3828 76.2969C77.1797 76.5312 76.9453 76.6484 76.6797 76.6484ZM76.7734 84.8516C76.6641 84.8516 76.5859 84.8203 76.5391 84.7578C76.4922 84.6953 76.4609 84.6562 76.4453 84.6406C76.2891 84.4219 76.2188 84.2109 76.2344 84.0078C76.25 83.8828 76.2734 83.5469 76.3047 83L76.3281 81.875C76.3125 81.7031 76.2969 81.6016 76.2812 81.5703C76.2656 81.5234 76.1953 81.4297 76.0703 81.2891C75.8203 80.9766 75.5312 80.6562 75.2031 80.3281C74.8281 79.9531 74.5859 79.7031 74.4766 79.5781C74.4766 79.5781 74.2422 79.3438 73.7734 78.875C73.7266 78.8281 73.7031 78.7812 73.7031 78.7344C73.7031 78.6562 73.75 78.5938 73.8438 78.5469C73.9531 78.4844 74.0625 78.4609 74.1719 78.4766C74.4844 78.5078 74.6875 78.5469 74.7812 78.5938C74.8906 78.625 74.9922 78.7188 75.0859 78.875C75.1797 79.0312 75.3125 79.2188 75.4844 79.4375C75.6719 79.6406 75.8125 79.7969 75.9062 79.9062C76.2969 80.375 76.5703 80.6875 76.7266 80.8438C77.0078 80.5156 77.3594 80.0469 77.7812 79.4375C78.125 79 78.3281 78.6406 78.3906 78.3594C78.4531 78.1562 78.5469 78.0547 78.6719 78.0547C78.7344 78.0547 78.8281 78.0938 78.9531 78.1719C79.3594 78.4219 79.5625 78.625 79.5625 78.7812C79.5625 78.875 79.4609 78.9922 79.2578 79.1328C78.9766 79.3359 78.7422 79.5625 78.5547 79.8125L78.0859 80.3984C77.7734 80.7734 77.5391 81.0703 77.3828 81.2891C77.3047 81.4297 77.2656 81.6328 77.2656 81.8984V83.3281V84.2656C77.2812 84.375 77.2188 84.5 77.0781 84.6406C76.9531 84.7812 76.8516 84.8516 76.7734 84.8516ZM84.0156 75.6172C84.0625 75.6172 84.1094 75.6406 84.1562 75.6875C84.2031 75.7188 84.2344 75.7656 84.25 75.8281V75.875C84.25 75.9844 84.1641 76.1953 83.9922 76.5078L82.3047 79.4375C82.1797 79.7031 82.0156 79.8359 81.8125 79.8359C81.6094 79.8359 81.4375 79.7109 81.2969 79.4609C81.1562 79.2578 80.9844 78.9531 80.7812 78.5469C80.6875 78.4062 80.6094 78.2656 80.5469 78.125C80.4844 77.9844 80.4375 77.8828 80.4062 77.8203C80.2344 77.5234 80.1484 77.3125 80.1484 77.1875C80.1484 77.125 80.1719 77.0781 80.2188 77.0469C80.2656 77 80.3125 76.9766 80.3594 76.9766C80.5312 76.9766 80.6875 77.0703 80.8281 77.2578C80.9375 77.3672 81.0234 77.4844 81.0859 77.6094L81.3438 77.9609L81.8125 78.5L82.0234 78.1719C82.2422 77.7969 82.7578 77.0547 83.5703 75.9453C83.7422 75.7266 83.8906 75.6172 84.0156 75.6172ZM59.4531 75.5703L55.7266 75.9922C55.2891 76.0547 54.9219 76.1172 54.625 76.1797C54.3281 76.2422 54 76.3203 53.6406 76.4141C53.2812 76.4922 53.0156 76.5312 52.8438 76.5312C52.6406 76.5312 52.3828 76.4766 52.0703 76.3672C51.6953 76.2734 51.4297 76.1484 51.2734 75.9922L50.9922 75.7812L50.7344 75.5703L50.7578 75.3594C50.8516 75.3125 51.0234 75.2812 51.2734 75.2656L52 75.2188L52.8906 75.1484L54.0625 75.125L55.6328 74.9844L59.7812 74.6094L59.8516 69.0078V68.6094C59.8516 68.25 59.8359 67.9922 59.8047 67.8359C59.7734 67.6172 59.7344 67.4297 59.6875 67.2734C59.6406 67.1484 59.5859 67.0156 59.5234 66.875L59.4531 66.6406L59.4766 66.4531C59.5391 66.375 59.6562 66.3359 59.8281 66.3359C60.0938 66.3359 60.2969 66.3516 60.4375 66.3828C60.5938 66.4141 60.7734 66.4688 60.9766 66.5469C61.1641 66.625 61.3203 66.6875 61.4453 66.7344C61.5547 66.7812 61.6484 66.8516 61.7266 66.9453L61.8203 67.1094C61.8359 67.2188 61.8203 67.3359 61.7734 67.4609C61.6797 67.6172 61.625 67.75 61.6094 67.8594C61.5781 67.9531 61.5469 68.0859 61.5156 68.2578L61.4688 68.6094L61.3516 70.5547L63.7891 69.8984L64.5859 69.6641C64.7891 69.6016 64.9609 69.5703 65.1016 69.5703C65.2266 69.5859 65.4141 69.6484 65.6641 69.7578C65.9297 69.8516 66.1016 69.9375 66.1797 70.0156L66.2266 70.3906C66.0703 70.5312 65.8984 70.6172 65.7109 70.6484L64.4922 70.8828L63.1328 71.1641C62.8516 71.2109 62.5781 71.2422 62.3125 71.2578C62.0312 71.2578 61.8125 71.2422 61.6562 71.2109L61.3047 71.1641L61.0938 74.4922L65.1016 74.1641C65.7109 74.1328 66.3203 74.0625 66.9297 73.9531L68.2891 73.7188C68.5391 73.6719 68.7578 73.6484 68.9453 73.6484C69.1172 73.6641 69.3125 73.6953 69.5312 73.7422C69.75 73.8047 70.0156 73.9297 70.3281 74.1172C70.6562 74.3047 70.8984 74.4766 71.0547 74.6328L71.2422 74.9375C71.2109 75.0469 71.1328 75.1328 71.0078 75.1953C70.8828 75.2734 70.6484 75.3125 70.3047 75.3125L69.6016 75.3359L68.4297 75.2891L66.5547 75.3359H65.1016L60.6016 75.5234L61.2344 75.8984C61.4375 76.0234 61.5391 76.1719 61.5391 76.3438C61.5547 76.4531 61.5391 76.5547 61.4922 76.6484C61.3672 76.9297 61.2891 77.1172 61.2578 77.2109C61.2266 77.3047 61.2109 77.4531 61.2109 77.6562L61.1641 78.1484L62.7578 78.6641C63.2266 78.8203 63.7031 79.0156 64.1875 79.25C64.6719 79.4844 65.0781 79.7422 65.4062 80.0234C65.7344 80.3203 65.9844 80.6484 66.1562 81.0078C66.2344 81.2109 66.2734 81.3984 66.2734 81.5703C66.2734 81.7109 66.2422 81.8516 66.1797 81.9922C66.0391 82.2578 65.8125 82.4219 65.5 82.4844C65.2969 82.4844 65.0938 82.4141 64.8906 82.2734C64.625 82.0703 64.3203 81.8047 63.9766 81.4766L62.5938 80.1641C62.0156 79.5859 61.5547 79.1641 61.2109 78.8984L61.0234 82.6953C61.0234 83.0234 61.0312 83.4297 61.0469 83.9141C61.0625 84.3828 61.0859 84.7969 61.1172 85.1562C61.1484 85.5156 61.1641 85.7734 61.1641 85.9297C61.1484 86.1172 61.125 86.2891 61.0938 86.4453L60.8828 87.125C60.7891 87.4375 60.6875 87.6719 60.5781 87.8281C60.4531 88 60.3125 88.0859 60.1562 88.0859L59.875 87.8281C59.7031 87.625 59.5859 87.375 59.5234 87.0781C59.4609 86.7812 59.4141 86.5391 59.3828 86.3516L59.3594 86C59.3594 85.8281 59.3906 85.6172 59.4531 85.3672C59.5156 85.1016 59.5703 84.8203 59.6172 84.5234C59.6797 84.2266 59.7266 83.8672 59.7578 83.4453C59.7891 83.0391 59.8125 82.6641 59.8281 82.3203L59.8984 77.7969C59.8984 77.4375 59.8828 77.1016 59.8516 76.7891C59.8203 76.4766 59.7578 76.2344 59.6641 76.0625L59.4531 75.5703Z" fill="#333333"/>
<path d="M72.5 20.5V53H25M72.5 20.5V16H22V53H25M72.5 20.5H76V58H25V53M25 49H30M32.5 49H40M69 49H52.5M40 49L45.5 40.5L54 46.5M40 49H52.5M54 46.5L52.5 49M54 46.5L61 35.5L69 43M35 18.5V21.5M40 20L38.5 22.5M43.5 23.5L41 25M45 28.5H42M41 32L43.5 34M38.5 34L40 37M35 35.5V38M31.5 34L30 37M29 32L26 34M28 28.5H25M29 25L26 23.5M31.5 22.5L29.5 20M35 25C37 25 38.5 26.5 38.5 28.5C38.5 30.5 37 32 35 32C33 32 31.5 30.5 31.5 28.5C31.5 26.5 33 25 35 25Z" stroke="#333333" stroke-width="2" stroke-linecap="round" stroke-linejoin="round"/>
</svg>
