<svg width="100" height="100" viewBox="0 0 100 100" fill="none" xmlns="http://www.w3.org/2000/svg">
<path d="M38.4707 76.9556C38.2363 76.9556 38.0254 76.8618 37.8379 76.6743C37.6035 76.5024 37.4863 76.3696 37.4863 76.2759C37.4863 76.1665 37.666 76.1118 38.0254 76.1118L39.1738 76.0415L40.3457 75.9243C40.377 75.6743 40.3926 75.1978 40.3926 74.4946C40.4395 74.4946 40.1973 74.5259 39.666 74.5884L39.2207 74.6587C39.0801 74.7212 38.9551 74.7524 38.8457 74.7524C38.752 74.7524 38.6738 74.7212 38.6113 74.6587C38.3613 74.4399 38.2363 74.2524 38.2363 74.0962V72.9946C38.2363 72.8853 38.1973 72.4634 38.1191 71.729L38.0957 71.4712C38.0957 71.3462 38.1191 71.2681 38.166 71.2368C38.2129 71.2056 38.2988 71.2056 38.4238 71.2368C38.8926 71.3618 39.1191 71.5024 39.1035 71.6587L39.0801 71.8228C39.0488 72.0415 39.0332 72.3228 39.0332 72.6665C39.0332 73.0728 39.041 73.3306 39.0566 73.4399C39.0879 73.7524 39.1035 73.9009 39.1035 73.8853C39.1191 73.9478 39.1738 73.979 39.2676 73.979C39.3613 73.979 39.5488 73.9556 39.8301 73.9087C40.127 73.8462 40.3223 73.8071 40.416 73.7915V71.729C40.416 71.1509 40.3926 70.7603 40.3457 70.5571C40.3145 70.4009 40.2988 70.3149 40.2988 70.2993C40.2988 70.1899 40.3379 70.1353 40.416 70.1353C40.4473 70.1353 40.5566 70.1665 40.7441 70.229C41.041 70.3696 41.2363 70.4946 41.3301 70.604C41.4395 70.7134 41.4785 70.8306 41.4473 70.9556C41.4004 71.1118 41.3691 71.4243 41.3535 71.8931C41.3223 72.2681 41.291 72.8774 41.2598 73.7212L42.0566 73.6978C42.2129 73.6978 42.3301 73.6899 42.4082 73.6743C42.4863 73.6587 42.5254 73.6274 42.5254 73.5806C42.6348 72.9868 42.7051 72.4712 42.7363 72.0337L42.7598 71.7524C42.7754 71.7212 42.7754 71.6665 42.7598 71.5884C42.7598 71.5103 42.7598 71.4556 42.7598 71.4243L42.7363 71.2603C42.7363 71.1196 42.791 71.0493 42.9004 71.0493C42.9629 71.0493 43.0957 71.1118 43.2988 71.2368C43.3457 71.2681 43.4082 71.3149 43.4863 71.3774C43.5801 71.4243 43.6426 71.479 43.6738 71.5415C43.7051 71.5884 43.7207 71.6509 43.7207 71.729C43.7207 71.8228 43.7129 71.9009 43.6973 71.9634L43.4395 73.2759L43.3691 73.8149C43.3066 74.1743 43.1191 74.3696 42.8066 74.4009C42.7129 74.3853 42.6348 74.3618 42.5723 74.3306C42.5254 74.2993 42.4863 74.2837 42.4551 74.2837C42.2676 74.2837 41.877 74.3228 41.2832 74.4009L41.2598 75.854L41.6582 75.8306L42.0332 75.8071C42.6113 75.8071 43.041 75.7759 43.3223 75.7134C43.4473 75.7134 43.5566 75.6978 43.6504 75.6665L43.7207 75.6431C43.877 75.6431 44.041 75.7524 44.2129 75.9712C44.416 76.1743 44.5176 76.3228 44.5176 76.4165C44.5176 76.5571 44.2988 76.604 43.8613 76.5571L42.9707 76.5103H41.7988C41.5645 76.5103 41.1348 76.5415 40.5098 76.604C40.1816 76.604 39.8848 76.6196 39.6191 76.6509C39.3535 76.6821 39.1035 76.7368 38.8691 76.8149L38.4707 76.9556ZM43.5566 84.5024C43.3223 84.5024 43.0957 84.3306 42.877 83.9868C42.5957 83.5493 42.3223 83.1899 42.0566 82.9087L41.4473 82.2759C41.1191 82.6509 40.8301 82.9478 40.5801 83.1665C40.3457 83.3853 40.0488 83.5962 39.6895 83.7993C39.0176 84.1899 38.4551 84.3853 38.002 84.3853C37.8926 84.3853 37.8379 84.3462 37.8379 84.2681C37.8379 84.2212 37.9863 84.1196 38.2832 83.9634C38.5801 83.8071 38.8613 83.6196 39.127 83.4009C39.7988 82.8384 40.3535 82.2603 40.791 81.6665C40.6973 81.5728 40.2285 81.1665 39.3848 80.4478C39.2754 80.3696 39.1113 80.2368 38.8926 80.0493C38.8457 80.0181 38.752 79.9478 38.6113 79.8384C38.4707 79.729 38.4004 79.6509 38.4004 79.604C38.4004 79.5259 38.4395 79.4868 38.5176 79.4868C38.752 79.4868 39.127 79.6509 39.6426 79.979C40.1582 80.2915 40.6973 80.6665 41.2598 81.104C41.4785 80.8384 41.6504 80.5884 41.7754 80.354C41.9004 80.1196 42.041 79.8306 42.1973 79.4868C42.2754 79.3149 42.3223 79.1665 42.3379 79.0415C42.3535 78.9009 42.3613 78.8149 42.3613 78.7837C42.3613 78.6118 42.4082 78.5259 42.502 78.5259C42.6113 78.5259 42.7598 78.6118 42.9473 78.7837C43.2754 79.0962 43.4395 79.3071 43.4395 79.4165C43.4395 79.479 43.4004 79.5493 43.3223 79.6274C43.1348 79.8149 42.9629 80.0649 42.8066 80.3774C42.7129 80.5649 42.541 80.8306 42.291 81.1743C42.2129 81.2681 42.1504 81.354 42.1035 81.4321C42.0566 81.5103 42.0098 81.5806 41.9629 81.6431C42.3223 81.9087 42.8535 82.3618 43.5566 83.0024C43.7285 83.1587 43.8379 83.3071 43.8848 83.4478C43.9473 83.5728 43.9785 83.7446 43.9785 83.9634C43.9785 84.1196 43.9395 84.2524 43.8613 84.3618C43.7832 84.4556 43.6816 84.5024 43.5566 84.5024ZM45.3379 76.2524C45.416 76.2524 45.5332 76.3071 45.6895 76.4165C45.6738 76.4478 45.7051 76.5103 45.7832 76.604C45.8613 76.6821 45.916 76.7368 45.9473 76.7681C46.0254 76.8462 46.1035 76.9399 46.1816 77.0493C46.2754 77.1587 46.377 77.2759 46.4863 77.4009C46.7676 77.6978 47.416 78.4712 48.4316 79.7212C48.6035 79.9712 48.6895 80.1196 48.6895 80.1665C48.6895 80.3228 48.5957 80.4009 48.4082 80.4009C48.2988 80.4009 48.1816 80.3228 48.0566 80.1665C47.7598 79.854 47.2285 79.3618 46.4629 78.6899C45.8691 78.1431 45.3301 77.7212 44.8457 77.4243C44.6113 77.3149 44.4941 77.1899 44.4941 77.0493C44.4941 76.9399 44.6113 76.7837 44.8457 76.5806C45.0645 76.3618 45.2285 76.2524 45.3379 76.2524ZM15.7363 75.1274L15.4316 74.1899L16.4395 74.3306C16.5332 74.3462 16.7363 74.4009 17.0488 74.4946C17.3926 74.5884 17.6426 74.6899 17.7988 74.7993C17.9551 74.9087 18.0879 75.0415 18.1973 75.1978C18.3066 75.354 18.377 75.5649 18.4082 75.8306L18.4316 76.0649C18.4316 76.2368 18.4082 76.3696 18.3613 76.4634C18.2676 76.604 18.1035 76.7368 17.8691 76.8618C17.6816 76.8618 17.4863 76.8071 17.2832 76.6978C17.0957 76.6196 16.8379 76.4009 16.5098 76.0415C16.1816 75.6821 15.9238 75.3774 15.7363 75.1274ZM19.2051 79.4399L20.002 78.2212C20.0957 78.0962 20.2207 78.0415 20.377 78.0571L20.5645 78.1978C20.5645 78.3228 20.5332 78.4399 20.4707 78.5493L19.8613 79.8384C19.7207 80.1509 19.5488 80.5024 19.3457 80.8931L18.6426 82.3462L17.9395 83.7524C17.7832 84.1118 17.6348 84.479 17.4941 84.854C17.3535 85.229 17.2363 85.5103 17.1426 85.6978C17.0488 85.8696 16.8535 85.979 16.5566 86.0259C16.3535 85.979 16.2051 85.8618 16.1113 85.6743C16.0176 85.4868 15.9238 85.2524 15.8301 84.9712C15.7363 84.6743 15.6582 84.4087 15.5957 84.1743C15.5176 83.9712 15.4785 83.7993 15.4785 83.6587L15.502 83.3774C15.5645 83.2524 15.6582 83.1431 15.7832 83.0493L16.3926 82.6978C16.5801 82.5884 16.7832 82.4243 17.002 82.2056C17.2207 81.9868 17.4629 81.7134 17.7285 81.3853L18.4785 80.4243L19.2051 79.4399ZM18.2207 70.3462L17.8223 69.7603L17.7285 69.5024L18.0098 69.3853L18.5488 69.5024C18.7988 69.5649 19.1426 69.6665 19.5801 69.8071C20.0332 69.9478 20.3691 70.0962 20.5879 70.2524C20.791 70.3931 20.9395 70.5415 21.0332 70.6978C21.0957 70.8384 21.127 71.0181 21.127 71.2368C21.127 71.4868 21.0801 71.6821 20.9863 71.8228C20.8926 71.979 20.7988 72.0806 20.7051 72.1274C20.6113 72.1899 20.4707 72.2212 20.2832 72.2212C20.0957 72.2212 19.8457 72.0962 19.5332 71.8462C19.4082 71.7524 19.1816 71.5103 18.8535 71.1196C18.5254 70.729 18.3145 70.4712 18.2207 70.3462ZM26.1426 79.2759L25.1582 79.4165C24.8145 79.4634 24.5176 79.4868 24.2676 79.4868C24.0176 79.4712 23.7676 79.4399 23.5176 79.3931C23.2676 79.3306 23.0801 79.2368 22.9551 79.1118L22.8145 78.8774C22.8457 78.7837 22.9551 78.7212 23.1426 78.6899L23.8926 78.6431L24.5723 78.5259L25.252 78.4321L26.2129 78.2681L26.1426 75.7837C26.127 75.4556 26.1035 75.2056 26.0723 75.0337C26.0566 74.8462 26.0176 74.6899 25.9551 74.5649L25.8613 74.2603C25.5801 74.3071 25.2988 74.3462 25.0176 74.3774C24.7363 74.4087 24.3926 74.4243 23.9863 74.4243C23.4551 74.4243 23.041 74.3774 22.7441 74.2837C22.3848 74.1899 22.1816 74.0806 22.1348 73.9556L22.0879 73.7212C22.1035 73.6274 22.3145 73.5571 22.7207 73.5103L23.6113 73.4165C23.9238 73.3853 24.1973 73.354 24.4316 73.3228C24.666 73.2759 24.9863 73.2056 25.3926 73.1118L26.8926 72.7837C26.6426 72.5649 26.4707 72.3931 26.377 72.2681C26.2832 72.1431 26.127 71.8618 25.9082 71.4243L25.4395 70.4634L25.1113 69.6665L25.0645 69.479L25.2051 69.2446H25.416L26.2363 69.5024C26.5488 69.6118 26.8535 69.7993 27.1504 70.0649C27.4629 70.3149 27.6738 70.5415 27.7832 70.7446C27.9082 70.9478 27.9863 71.2056 28.0176 71.5181L28.041 71.7759L28.0176 72.0571L27.666 72.6196L28.9551 72.3384C29.0801 72.3228 29.3926 72.2212 29.8926 72.0337L30.2676 71.9165L30.666 71.8228C30.8535 71.8071 31.0176 71.8149 31.1582 71.8462L31.7676 72.0571C31.9863 72.1353 32.127 72.2212 32.1895 72.3149L32.2832 72.5024C32.2832 72.6274 32.2285 72.7368 32.1191 72.8306C32.0098 72.9556 31.8145 73.0649 31.5332 73.1587C31.2363 73.2524 30.9238 73.3462 30.5957 73.4399C30.252 73.5181 29.8535 73.5962 29.4004 73.6743L27.5957 74.0024C27.8145 74.1274 27.9551 74.3306 28.0176 74.6118L27.9004 75.0806C27.8535 75.1743 27.8301 75.3774 27.8301 75.6899L27.7363 77.9399L28.9082 77.6821L29.7051 77.4946C29.8301 77.4634 29.9473 77.4399 30.0566 77.4243C30.291 77.4243 30.5723 77.4712 30.9004 77.5649C31.2285 77.6587 31.4395 77.7446 31.5332 77.8228L31.6738 77.9868L31.627 78.2446L31.2051 78.3618L30.4551 78.5259L29.2129 78.7837L27.6895 79.0181L27.5723 83.4712L30.0332 83.2368L30.9238 83.1196C31.5176 83.0571 31.9004 83.0024 32.0723 82.9556L33.0332 82.7681C33.1426 82.7524 33.252 82.7446 33.3613 82.7446C33.4863 82.7446 33.6035 82.7524 33.7129 82.7681C33.9473 82.7993 34.1738 82.854 34.3926 82.9321C34.6113 83.0103 34.8223 83.1118 35.0254 83.2368C35.2285 83.3618 35.3926 83.479 35.5176 83.5884L35.7051 83.8462C35.6738 83.9712 35.6035 84.0884 35.4941 84.1978L35.0723 84.2212L33.6426 84.1978C32.9863 84.1821 32.2207 84.1743 31.3457 84.1743C30.9238 84.1587 30.5488 84.1509 30.2207 84.1509C29.9082 84.1509 29.6504 84.1587 29.4473 84.1743C29.0254 84.2056 28.3223 84.2681 27.3379 84.3618C26.3535 84.4399 25.7363 84.4946 25.4863 84.5259C25.2363 84.5728 24.7832 84.6509 24.127 84.7603C23.4707 84.8853 23.0488 84.9634 22.8613 84.9946L22.2754 85.1587L21.8301 85.2759C21.6738 85.2759 21.4316 85.2056 21.1035 85.0649C20.7441 84.9399 20.4941 84.8384 20.3535 84.7603C20.2129 84.6978 20.1035 84.6118 20.0254 84.5024L19.9316 84.3149C19.9785 84.2212 20.1582 84.1587 20.4707 84.1274L21.2676 84.0337C21.4551 84.0024 21.9004 83.9712 22.6035 83.9399C23.3066 83.9087 23.7988 83.8618 24.0801 83.7993L26.2832 83.5181L26.1426 79.2759ZM74.5176 73.9556C74.3457 73.9556 74.1348 73.8228 73.8848 73.5571C73.6973 73.3696 73.6035 73.229 73.6035 73.1353C73.6035 73.0884 73.6348 73.0649 73.6973 73.0649C73.7598 73.0493 73.8379 73.0415 73.9316 73.0415L74.4473 73.0181C74.7441 73.0181 74.9395 73.0103 75.0332 72.9946C75.3301 72.9946 75.5801 72.9868 75.7832 72.9712C77.127 72.8462 78.0332 72.7446 78.502 72.6665C78.7363 72.6353 78.9473 72.604 79.1348 72.5728C79.3223 72.5259 79.4707 72.5024 79.5801 72.5024C79.7988 72.5024 80.0176 72.6118 80.2363 72.8306C80.4082 73.0024 80.4941 73.1431 80.4941 73.2524C80.4941 73.3462 80.4395 73.4087 80.3301 73.4399C80.252 73.4556 79.791 73.4868 78.9473 73.5337C78.4785 73.5493 77.9004 73.5884 77.2129 73.6509C76.5254 73.7134 75.9238 73.7759 75.4082 73.8384C75.3145 73.854 75.1816 73.8774 75.0098 73.9087C74.8379 73.9399 74.6738 73.9556 74.5176 73.9556ZM79.9785 80.7993C80.1504 80.9868 80.2363 81.1431 80.2363 81.2681C80.2363 81.3774 80.1738 81.479 80.0488 81.5728C79.9707 81.6353 79.7754 81.979 79.4629 82.604C79.1191 83.1665 78.7363 83.6587 78.3145 84.0806C77.9082 84.4868 77.502 84.7837 77.0957 84.9712C77.002 85.0024 76.9238 85.0181 76.8613 85.0181C76.7988 85.0181 76.7676 85.0024 76.7676 84.9712V84.9243C76.7676 84.8306 76.8457 84.7212 77.002 84.5962C77.2832 84.3774 77.4941 84.1587 77.6348 83.9399C77.791 83.7056 77.9082 83.5337 77.9863 83.4243C78.3145 82.9556 78.5488 82.5728 78.6895 82.2759C78.8457 82.0103 78.9551 81.7368 79.0176 81.4556H78.9238C78.5176 81.4556 77.8613 81.5024 76.9551 81.5962C76.8145 81.6118 76.4082 81.6665 75.7363 81.7603C75.5957 81.7759 75.377 81.8149 75.0801 81.8774L74.7988 81.9478C74.7363 81.979 74.6738 81.9946 74.6113 81.9946C74.5332 81.9946 74.4551 81.979 74.377 81.9478C74.2988 81.9009 74.2207 81.8462 74.1426 81.7837C73.9551 81.6274 73.8613 81.4946 73.8613 81.3853C73.877 81.354 73.8926 81.3071 73.9082 81.2446C73.9395 81.1821 73.9551 81.1274 73.9551 81.0806L74.0723 80.3071C74.0879 80.229 74.1035 80.1431 74.1191 80.0493C74.1348 79.9556 74.1426 79.8618 74.1426 79.7681C74.1426 79.4712 74.1348 79.2368 74.1191 79.0649C74.1191 78.8774 74.0957 78.6821 74.0488 78.479V78.4087C74.0488 78.2993 74.0957 78.2446 74.1895 78.2446C74.2832 78.2446 74.4473 78.3149 74.6816 78.4556C74.9941 78.6743 75.1504 78.8462 75.1504 78.9712C75.1504 79.0181 75.1426 79.0571 75.127 79.0884C75.1113 79.1196 75.0957 79.1509 75.0801 79.1821C75.0332 79.4634 75.0098 79.6196 75.0098 79.6509L74.8926 80.8931C74.8926 80.9243 74.9082 80.9634 74.9395 81.0103C74.9863 81.0415 75.0332 81.0571 75.0801 81.0571C75.4551 81.0571 76.2988 80.9634 77.6113 80.7759C78.127 80.729 78.4941 80.6743 78.7129 80.6118C78.8535 80.5962 78.9707 80.5728 79.0645 80.5415C79.1738 80.4946 79.2441 80.4712 79.2754 80.4712C79.3691 80.4399 79.4316 80.4243 79.4629 80.4243C79.6035 80.4243 79.7754 80.5493 79.9785 80.7993ZM58.9551 76.0649C58.8613 75.8774 58.7832 75.7134 58.7207 75.5728C58.6582 75.4321 58.5723 75.1899 58.4629 74.8462L58.1582 73.8149L57.8535 72.6196L57.5957 71.6821C57.3301 71.6665 57.127 71.6509 56.9863 71.6353C56.8613 71.604 56.6973 71.5571 56.4941 71.4946C56.3066 71.4165 56.1738 71.3306 56.0957 71.2368L56.002 71.0493C56.0332 70.9243 56.127 70.854 56.2832 70.8384L56.752 70.7915C56.8457 70.7759 57.0645 70.7681 57.4082 70.7681C57.7207 70.7368 58.1738 70.6978 58.7676 70.6509C59.3613 70.604 59.752 70.5649 59.9395 70.5337C60.127 70.5181 60.4238 70.4868 60.8301 70.4399L61.5332 70.3462C61.377 70.2524 61.252 70.1587 61.1582 70.0649C61.0645 69.9868 60.9629 69.8306 60.8535 69.5962L60.4082 68.7056C60.1895 68.2837 60.0566 68.0181 60.0098 67.9087L59.7988 67.3462L60.0332 67.229L60.6191 67.3931C60.8535 67.4868 61.1113 67.5962 61.3926 67.7212C61.6738 67.8462 61.8926 67.9868 62.0488 68.1431C62.2207 68.2993 62.3457 68.5259 62.4238 68.8228C62.4395 69.0103 62.4238 69.1899 62.377 69.3618C62.2832 69.6431 62.1738 69.8462 62.0488 69.9712L61.7441 70.2993C62.1973 70.2524 62.5957 70.2056 62.9395 70.1587C63.2988 70.1274 63.5957 70.0806 63.8301 70.0181L64.4395 69.8774L65.0723 69.7368C65.1973 69.7368 65.3145 69.7446 65.4238 69.7603C65.5488 69.8071 65.6816 69.854 65.8223 69.9009C65.9629 69.9478 66.1113 70.0181 66.2676 70.1118L66.4082 70.5337C66.252 70.6899 65.9863 70.7993 65.6113 70.8618L65.0254 71.0728C65.1348 71.1509 65.2363 71.229 65.3301 71.3071C65.4082 71.3696 65.4785 71.4478 65.541 71.5415L65.6113 71.8228L65.4004 72.1274C65.2598 72.2837 65.127 72.5024 65.002 72.7837L64.3926 74.0024C64.1113 74.5181 63.9473 74.8228 63.9004 74.9165L63.4082 75.6899C63.6582 75.6899 63.9004 75.6821 64.1348 75.6665C64.3535 75.6509 64.9629 75.5962 65.9629 75.5024C66.9629 75.4243 67.6035 75.3618 67.8848 75.3149L68.5645 75.2212C69.127 75.1274 69.4863 75.0806 69.6426 75.0806L70.252 75.2915C70.5957 75.4165 70.9004 75.5962 71.166 75.8306L71.5176 76.2759C71.4863 76.4009 71.4004 76.5024 71.2598 76.5806C71.1035 76.6587 70.6895 76.6978 70.0176 76.6978H69.1738L67.8848 76.6743C67.6973 76.6587 67.4629 76.6509 67.1816 76.6509C66.916 76.6509 66.6113 76.6587 66.2676 76.6743C65.0801 76.6899 64.0645 76.7134 63.2207 76.7446L60.5957 76.8853C59.4551 76.9478 58.666 77.0024 58.2285 77.0493L56.377 77.3071L54.9941 77.5181L53.6113 77.8462L53.3535 77.8696H53.0488C52.8457 77.8384 52.627 77.7524 52.3926 77.6118L51.9707 77.354C51.7207 77.2134 51.5488 77.0024 51.4551 76.7212C51.5176 76.6118 51.6504 76.5493 51.8535 76.5337L52.252 76.5103L53.5645 76.4634C53.9707 76.4478 54.6738 76.4009 55.6738 76.3228C56.6738 76.2446 57.4082 76.1899 57.877 76.1587C58.3457 76.1274 58.627 76.104 58.7207 76.0884L58.9551 76.0649ZM58.2988 71.6353C58.4238 71.7759 58.5332 71.8774 58.627 71.9399C58.6895 72.0337 58.791 72.1509 58.9316 72.2915C59.0723 72.4321 59.2363 72.6431 59.4238 72.9243C59.627 73.2056 59.7598 73.4556 59.8223 73.6743C59.8691 73.8618 59.9082 74.1196 59.9395 74.4478C59.9395 74.9009 59.9238 75.1899 59.8926 75.3149L59.7754 75.9946C60.5879 75.9165 61.0801 75.8774 61.252 75.8774L62.7285 75.7603C62.7754 75.6196 62.8145 75.4946 62.8457 75.3853C62.8926 75.2759 62.9316 75.1665 62.9629 75.0571C63.0098 74.9478 63.1113 74.5806 63.2676 73.9556L63.4785 73.1118C63.5566 72.8306 63.6113 72.5649 63.6426 72.3149C63.6895 72.0649 63.7129 71.8228 63.7129 71.5884V71.4243L63.666 71.1196C63.4316 71.1353 63.252 71.1587 63.127 71.1899C62.9707 71.1899 62.5566 71.229 61.8848 71.3071C61.2129 71.3853 60.7051 71.4399 60.3613 71.4712L58.9551 71.5649L58.2988 71.6353ZM58.4863 86.0493L58.3691 86.5884C58.3066 86.854 58.2129 86.9946 58.0879 87.0103C57.9785 87.0103 57.8691 86.9478 57.7598 86.8228C57.5723 86.6353 57.4238 86.3618 57.3145 86.0024C57.2207 85.7056 57.1738 85.4556 57.1738 85.2524L57.2676 84.854C57.3301 84.6196 57.377 84.2681 57.4082 83.7993L57.4785 82.8618C57.4941 82.5649 57.502 82.1353 57.502 81.5728C57.4863 81.1665 57.4707 80.8306 57.4551 80.5649C57.4238 80.3149 57.377 80.1118 57.3145 79.9556L57.1035 79.5806L57.0098 79.2759C57.0723 79.1821 57.2051 79.1431 57.4082 79.1587L57.8301 79.2524L58.2988 79.3931L60.8301 78.9478C60.9863 78.9321 61.377 78.8462 62.002 78.6899C62.627 78.5493 63.0801 78.4009 63.3613 78.2446L63.9004 78.0337C64.0566 78.0337 64.252 78.0962 64.4863 78.2212L65.0957 78.5728C65.2988 78.6821 65.4785 78.8149 65.6348 78.9712L65.8691 79.2759C65.8535 79.3696 65.8145 79.4868 65.752 79.6274C65.6895 79.7524 65.627 79.8931 65.5645 80.0493C65.502 80.2056 65.4707 80.4399 65.4707 80.7524L65.4473 82.5571C65.4473 82.9321 65.4707 83.3774 65.5176 83.8931C65.5488 84.5493 65.5645 84.9556 65.5645 85.1118C65.5645 85.5493 65.5098 85.9399 65.4004 86.2837C65.291 86.5962 65.0801 86.9087 64.7676 87.2212C64.5332 87.4556 64.2598 87.5415 63.9473 87.479C63.8691 87.3384 63.7754 87.1431 63.666 86.8931C63.5566 86.6431 63.4316 86.3774 63.291 86.0962L63.0801 85.7212C62.5645 85.7837 62.1816 85.8228 61.9316 85.8384L60.2207 86.0024C59.6895 86.0649 59.291 86.0962 59.0254 86.0962L58.4863 86.0493ZM58.4863 85.1821C58.7363 85.1665 59.0176 85.1431 59.3301 85.1118C59.6582 85.0806 60.0176 85.0337 60.4082 84.9712L62.0254 84.6899C62.2598 84.6743 62.502 84.6665 62.752 84.6665C63.0332 84.6978 63.2832 84.7837 63.502 84.9243L63.877 85.0884C64.0332 85.0571 64.127 84.8462 64.1582 84.4556V82.4399C63.9395 82.4712 63.7598 82.5024 63.6191 82.5337L62.752 82.6743L61.8613 82.7915C61.0801 82.9009 60.5566 82.979 60.291 83.0259C60.0098 83.0728 59.7598 83.0962 59.541 83.0962C59.3379 83.0962 59.1426 83.0649 58.9551 83.0024L58.5801 82.9087L58.4863 85.1821ZM58.627 82.3696L60.1973 82.1118C60.7285 82.0181 61.1973 81.9243 61.6035 81.8306C62.0098 81.7524 62.3223 81.6978 62.541 81.6665C62.6973 81.6509 62.877 81.6431 63.0801 81.6431C63.2051 81.6431 63.3848 81.6665 63.6191 81.7134L64.1113 81.8071V80.3071L64.0645 79.9087C64.0332 79.6587 63.9785 79.4946 63.9004 79.4165C63.8379 79.3384 63.6738 79.2993 63.4082 79.2993C63.2676 79.3149 63.0332 79.3462 62.7051 79.3931L61.4863 79.5806L58.6738 80.2134V80.8462L58.627 82.3696Z" fill="#333333"/>
<path d="M19.5 31.5L17 40L30.5 35C30.8333 39.5 30 49.1429 28 50C27 50.4286 24.5 48.5 24 47.5M43 29L41 36.5L54 30C53.5 35.3333 50.6 45.5 43 47.5M45 40L56.5 45M66.5 42L63.5 29L77 25L80 39" stroke="#333333" stroke-width="2" stroke-linecap="round" stroke-linejoin="round"/>
</svg>
