<svg width="100" height="100" viewBox="0 0 100 100" fill="none" xmlns="http://www.w3.org/2000/svg">
<path d="M40.6562 76.9766C40.5312 76.9766 40.4062 76.9531 40.2812 76.9062C40.1562 76.8438 40.0625 76.75 40 76.625C39.9531 76.4844 39.8516 76.3203 39.6953 76.1328C39.5547 75.9453 39.4141 75.8047 39.2734 75.7109L39.3672 75.5938C39.4453 75.6406 39.6328 75.7344 39.9297 75.875C40.2266 76.0156 40.4453 76.0859 40.5859 76.0859C40.8047 76.0859 41 76.0078 41.1719 75.8516C41.3438 75.6953 41.5625 75.3984 41.8281 74.9609C42.0156 74.6641 42.1875 74.3125 42.3438 73.9062C42.5 73.5 42.6172 73.125 42.6953 72.7812L42.7188 72.7344C42.7188 72.6875 42.7031 72.6484 42.6719 72.6172C42.6406 72.5703 42.6094 72.5469 42.5781 72.5469L41.5 72.6406C40.7812 72.7656 40.0312 72.8672 39.25 72.9453C39.1094 72.9609 38.9453 73 38.7578 73.0625C38.5703 73.125 38.4375 73.1562 38.3594 73.1562C38.2344 73.1562 38.0703 73.0547 37.8672 72.8516C37.7891 72.7891 37.7109 72.7109 37.6328 72.6172C37.5703 72.5234 37.5547 72.4453 37.5859 72.3828C37.7109 72.2578 37.7734 72.1953 37.7734 72.1953L37.8906 72.1016C38.1094 71.8828 38.3281 71.5938 38.5469 71.2344C38.7031 71.0156 38.8672 70.6484 39.0391 70.1328C39.0391 69.9609 39.0781 69.875 39.1562 69.875C39.2031 69.875 39.2812 69.9062 39.3906 69.9688L39.7656 70.2031C39.8594 70.2812 39.9219 70.3438 39.9531 70.3906C39.9844 70.4375 40 70.5 40 70.5781C40 70.6719 39.9375 70.7891 39.8125 70.9297C39.6875 71.0547 39.5781 71.1797 39.4844 71.3047L38.9453 72.0781L38.8984 72.1719C38.8984 72.2188 38.9609 72.2422 39.0859 72.2422L40.8906 72.0078L42.1094 71.9141L42.5781 71.8672L42.8359 71.8203H42.9062C43.0625 71.8203 43.2344 71.9531 43.4219 72.2188C43.6406 72.4219 43.75 72.5938 43.75 72.7344L43.6328 73.0391C43.6172 73.0703 43.4922 73.4375 43.2578 74.1406C42.9766 74.8125 42.7344 75.3203 42.5312 75.6641C42.3281 76.0078 42.1094 76.2734 41.875 76.4609C41.4531 76.8047 41.0469 76.9766 40.6562 76.9766ZM38.1016 82.3203C37.9297 82.3203 37.7188 82.1875 37.4688 81.9219C37.2812 81.7344 37.1875 81.5938 37.1875 81.5C37.1875 81.4531 37.2188 81.4297 37.2812 81.4297C37.3438 81.4141 37.4219 81.4062 37.5156 81.4062L38.0312 81.3828C38.3281 81.3828 38.5234 81.375 38.6172 81.3594C38.9141 81.3594 39.1641 81.3516 39.3672 81.3359C40.7109 81.2109 41.6172 81.1094 42.0859 81.0312C42.3203 81 42.5312 80.9688 42.7188 80.9375C42.9062 80.8906 43.0547 80.8672 43.1641 80.8672C43.3828 80.8672 43.6016 80.9766 43.8203 81.1953C43.9922 81.3672 44.0781 81.5078 44.0781 81.6172C44.0781 81.7109 44.0234 81.7734 43.9141 81.8047C43.8359 81.8203 43.375 81.8516 42.5312 81.8984C42.0625 81.9141 41.4844 81.9531 40.7969 82.0156C40.1094 82.0781 39.5078 82.1406 38.9922 82.2031C38.8984 82.2188 38.7656 82.2422 38.5938 82.2734C38.4219 82.3047 38.2578 82.3203 38.1016 82.3203ZM48.0156 76.0859C48.0625 76.0859 48.1094 76.1094 48.1562 76.1562C48.2031 76.1875 48.2344 76.2344 48.25 76.2969V76.3438C48.25 76.4531 48.1641 76.6641 47.9922 76.9766L46.3047 79.9062C46.1797 80.1719 46.0156 80.3047 45.8125 80.3047C45.6094 80.3047 45.4375 80.1797 45.2969 79.9297C45.1562 79.7266 44.9844 79.4219 44.7812 79.0156C44.6875 78.875 44.6094 78.7344 44.5469 78.5938C44.4844 78.4531 44.4375 78.3516 44.4062 78.2891C44.2344 77.9922 44.1484 77.7812 44.1484 77.6562C44.1484 77.5938 44.1719 77.5469 44.2188 77.5156C44.2656 77.4688 44.3125 77.4453 44.3594 77.4453C44.5312 77.4453 44.6875 77.5391 44.8281 77.7266C44.9375 77.8359 45.0234 77.9531 45.0859 78.0781L45.3438 78.4297L45.8125 78.9688L46.0234 78.6406C46.2422 78.2656 46.7578 77.5234 47.5703 76.4141C47.7422 76.1953 47.8906 76.0859 48.0156 76.0859ZM25.1875 88.1328C25.1875 88.4453 25.0703 88.6016 24.8359 88.6016C24.6953 88.6016 24.5312 88.5547 24.3438 88.4609C23.875 88.2578 23.6406 87.9844 23.6406 87.6406C23.6406 87.5469 23.6484 87.4766 23.6641 87.4297C23.7266 87.1641 23.7578 86.75 23.7578 86.1875L23.7812 84.8281L16.2109 85.0859L15.7422 85.1094C15.3672 85.1094 15.0703 85.0234 14.8516 84.8516C14.6484 84.6797 14.5 84.5 14.4062 84.3125C14.3281 84.1094 14.2891 83.9531 14.2891 83.8438C14.2891 83.75 14.3281 83.7031 14.4062 83.7031L14.5234 83.7266C14.8203 83.8047 15.1641 83.8438 15.5547 83.8438H15.8594L23.7812 83.5859L23.8047 82.2031L19.9609 82.3672L19.2812 82.3906C19.0156 82.3906 18.7969 82.3047 18.625 82.1328C18.4531 81.9453 18.3281 81.75 18.25 81.5469C18.1719 81.3438 18.1328 81.2109 18.1328 81.1484C18.1328 81.0859 18.1719 81.0547 18.25 81.0547C18.3125 81.0547 18.3672 81.0625 18.4141 81.0781C18.6172 81.1406 18.8828 81.1719 19.2109 81.1719L19.5859 81.1484L23.8047 81.0078L23.8281 79.625L20.1719 79.8125H19.9141C19.5391 79.8125 19.2422 79.7578 19.0234 79.6484C18.8047 79.5391 18.6016 79.2969 18.4141 78.9219C18.3828 78.875 18.3672 78.8125 18.3672 78.7344C18.3672 78.6406 18.4141 78.5938 18.5078 78.5938C18.5547 78.5938 18.5938 78.6016 18.625 78.6172C18.8125 78.6641 19.0469 78.6875 19.3281 78.6875L19.8672 78.6641L23.8281 78.4531L23.8516 77.0234L17.2422 77.3516L16.5625 77.375C16.3438 77.375 16.1953 77.3438 16.1172 77.2812C15.9297 77.125 15.7656 76.9375 15.625 76.7188C15.4844 76.4844 15.4141 76.3047 15.4141 76.1797C15.4141 76.1016 15.4609 76.0625 15.5547 76.0625C15.6172 76.0625 15.6719 76.0703 15.7188 76.0859C15.9531 76.1484 16.25 76.1797 16.6094 76.1797H16.8438L23.8516 75.8516L23.875 74.5156L20.3359 74.7266L19.7969 74.75H19.6797C19.3984 74.75 19.1641 74.6406 18.9766 74.4219C18.8047 74.2031 18.6719 74 18.5781 73.8125C18.5469 73.7188 18.5312 73.6641 18.5312 73.6484C18.5312 73.5703 18.5859 73.5312 18.6953 73.5312C18.7578 73.5312 18.8047 73.5391 18.8359 73.5547C19.0234 73.6016 19.25 73.625 19.5156 73.625L19.9375 73.6016L23.875 73.3438C23.875 73.0781 23.8516 72.8672 23.8047 72.7109C23.7734 72.5391 23.7031 72.3828 23.5938 72.2422C23.5469 72.1641 23.5234 72.1016 23.5234 72.0547C23.5234 71.9453 23.6094 71.8906 23.7812 71.8906C23.9375 71.8906 24.2031 71.9453 24.5781 72.0547C24.8594 72.1484 25.0391 72.2422 25.1172 72.3359C25.1953 72.4297 25.2344 72.5547 25.2344 72.7109V73.25L29.6875 72.9688H29.875C30.2344 72.9688 30.5 73.0625 30.6719 73.25C30.8438 73.4219 30.9297 73.5781 30.9297 73.7188C30.9297 73.8125 30.8906 73.9297 30.8125 74.0703C30.75 74.1953 30.7188 74.2812 30.7188 74.3281L30.5547 75.5469L32.2188 75.4766C32.5781 75.4609 32.9531 75.3828 33.3438 75.2422C33.3906 75.2266 33.4531 75.2188 33.5312 75.2188C33.75 75.2188 34 75.3438 34.2812 75.5938C34.5781 75.8281 34.7266 76.0312 34.7266 76.2031C34.7266 76.3906 34.5391 76.5 34.1641 76.5312L30.3906 76.7188L30.2266 78.0781C30.6797 78.5156 30.9062 78.8281 30.9062 79.0156C30.9062 79.125 30.8438 79.1953 30.7188 79.2266C30.6094 79.2422 30.4062 79.2578 30.1094 79.2734L25.2109 79.5312V80.9375L28.8438 80.8203C29.125 80.8047 29.4844 80.7188 29.9219 80.5625C30.0469 80.5312 30.125 80.5156 30.1562 80.5156C30.375 80.5156 30.6406 80.6562 30.9531 80.9375C31.2656 81.2188 31.4219 81.4375 31.4219 81.5938C31.4219 81.7656 31.2344 81.8672 30.8594 81.8984L25.2109 82.1328V83.5391L32.6406 83.2812C33.0625 83.2656 33.5391 83.1641 34.0703 82.9766C34.1641 82.9453 34.2344 82.9297 34.2812 82.9297C34.4688 82.9297 34.75 83.0781 35.125 83.375C35.5 83.6719 35.6875 83.9219 35.6875 84.125C35.6875 84.3125 35.5 84.4219 35.125 84.4531L25.1875 84.7812V88.1328ZM14.8984 73.7891C14.8984 73.6484 15.0078 73.4609 15.2266 73.2266C16.2266 72.1484 17.125 70.9844 17.9219 69.7344C18.7344 68.4688 19.1406 67.6172 19.1406 67.1797V67.0625C19.1406 66.8594 19.2344 66.7578 19.4219 66.7578C19.5 66.7578 19.6406 66.8047 19.8438 66.8984C20.0625 66.9922 20.2578 67.1094 20.4297 67.25C20.6016 67.3906 20.6875 67.5391 20.6875 67.6953C20.6875 67.7891 20.6562 67.875 20.5938 67.9531C20.4062 68.2812 20.125 68.7031 19.75 69.2188L23.4766 68.9609C23.8047 68.9297 24.0781 68.8672 24.2969 68.7734C24.3906 68.7266 24.4922 68.7031 24.6016 68.7031C24.8047 68.7031 25.0312 68.8125 25.2812 69.0312C25.5469 69.25 25.6797 69.4531 25.6797 69.6406C25.6797 69.8281 25.5 69.9375 25.1406 69.9688L21.2266 70.2266C21.8516 70.7891 22.2734 71.1875 22.4922 71.4219C22.7266 71.6562 22.8438 71.8281 22.8438 71.9375C22.8438 72.0938 22.7422 72.2578 22.5391 72.4297C22.3516 72.5859 22.1953 72.6641 22.0703 72.6641C21.9609 72.6641 21.8281 72.5625 21.6719 72.3594C21.2031 71.7812 20.7656 71.2891 20.3594 70.8828C20.2344 70.7578 20.1719 70.6484 20.1719 70.5547C20.1719 70.4766 20.2188 70.3828 20.3125 70.2734L18.9297 70.3672C18.3047 71.1484 17.5625 71.9375 16.7031 72.7344C15.8594 73.5312 15.3047 73.9297 15.0391 73.9297C14.9453 73.9297 14.8984 73.8828 14.8984 73.7891ZM24.6953 71.7266C24.6953 71.5859 24.7812 71.3984 24.9531 71.1641C25.6562 70.1641 26.2109 69.2891 26.6172 68.5391C27.0234 67.7891 27.2266 67.2422 27.2266 66.8984V66.7344C27.2266 66.5781 27.3047 66.5 27.4609 66.5C27.6797 66.5 27.9609 66.6172 28.3047 66.8516C28.6484 67.0703 28.8203 67.2734 28.8203 67.4609C28.8203 67.5391 28.7656 67.6719 28.6562 67.8594C28.5469 68.0312 28.2891 68.3828 27.8828 68.9141L32.3828 68.5859C32.6953 68.5547 32.9688 68.5 33.2031 68.4219C33.2969 68.3906 33.3594 68.375 33.3906 68.375C33.5938 68.375 33.8203 68.4922 34.0703 68.7266C34.3203 68.9609 34.4453 69.1562 34.4453 69.3125C34.4453 69.4844 34.2891 69.5859 33.9766 69.6172L29.6406 69.9219C29.6562 69.9375 29.9297 70.1953 30.4609 70.6953C31.0078 71.1953 31.2812 71.5703 31.2812 71.8203C31.2812 71.9453 31.1797 72.1016 30.9766 72.2891C30.7891 72.4609 30.625 72.5469 30.4844 72.5469C30.3906 72.5469 30.2734 72.4531 30.1328 72.2656C29.7578 71.7031 29.2969 71.1641 28.75 70.6484C28.5781 70.4766 28.4922 70.3516 28.4922 70.2734C28.4922 70.1953 28.5547 70.0938 28.6797 69.9688L26.9453 70.0859C26.5234 70.5547 26.0078 71.0469 25.3984 71.5625L25.2812 71.6562C25.0781 71.7969 24.9297 71.8672 24.8359 71.8672C24.7422 71.8672 24.6953 71.8203 24.6953 71.7266ZM28.8438 78.1953L29.0078 76.7891L25.2109 76.9531V78.3828L28.8438 78.1953ZM29.1484 75.6172L29.3359 74.1875L25.2344 74.4219V75.8047L29.1484 75.6172Z" fill="#333333"/>
<path d="M73.4453 74.2812C73.3359 74.2812 73.2656 74.2734 73.2344 74.2578C73.2188 74.2266 73.2422 74.1719 73.3047 74.0938C73.5234 73.8906 73.6953 73.6953 73.8203 73.5078C73.9609 73.3047 74.1094 72.9844 74.2656 72.5469C74.5156 71.8281 74.6406 71.2734 74.6406 70.8828C74.6406 70.5234 74.6172 70.1953 74.5703 69.8984V69.8281C74.5703 69.6562 74.6797 69.6016 74.8984 69.6641C75.0859 69.7109 75.2969 69.7734 75.5312 69.8516C75.5781 69.8359 75.6484 69.8281 75.7422 69.8281C75.8359 69.8125 75.9844 69.7891 76.1875 69.7578C76.7188 69.6797 77.4062 69.6016 78.25 69.5234C78.25 69.4609 78.3125 69.2422 78.4375 68.8672L78.5781 68.3516C78.6406 68.1328 78.6172 68.0234 78.5078 68.0234C78.1953 68.0234 77.4688 68.1016 76.3281 68.2578L75.0859 68.4688C74.9766 68.4844 74.8359 68.4375 74.6641 68.3281C74.5078 68.2188 74.3828 68.0938 74.2891 67.9531C74.2109 67.8125 74.2266 67.7188 74.3359 67.6719C74.4609 67.5938 74.5859 67.5547 74.7109 67.5547C74.8359 67.5547 74.9141 67.5547 74.9453 67.5547H75.25L76.7969 67.5078L78.2969 67.3203C78.375 67.3047 78.4688 67.2812 78.5781 67.25C78.7031 67.2031 78.8203 67.1719 78.9297 67.1562C79.0859 67.125 79.3516 67.2969 79.7266 67.6719C79.7891 67.7344 79.8203 67.8047 79.8203 67.8828C79.8203 67.9766 79.7578 68.0703 79.6328 68.1641C79.4609 68.3359 79.3516 68.4844 79.3047 68.6094C79.2891 68.6875 79.2578 68.8047 79.2109 68.9609C79.1641 69.1016 79.1172 69.2812 79.0703 69.5C79.1641 69.6094 79.2109 69.7422 79.2109 69.8984C79.2109 70.0234 79.1719 70.1172 79.0938 70.1797C79.0312 70.2266 78.8984 70.25 78.6953 70.25C77.9922 70.2969 77.4375 70.3438 77.0312 70.3906C76.625 70.4219 76.1328 70.5 75.5547 70.625C75.4922 71.3281 75.3516 71.9766 75.1328 72.5703C74.9141 73.1484 74.6094 73.5859 74.2188 73.8828C73.8438 74.1484 73.5859 74.2812 73.4453 74.2812ZM79.1406 80.4453C78.9062 80.4453 78.6797 80.2734 78.4609 79.9297C78.1797 79.4922 77.9062 79.1328 77.6406 78.8516L77.0312 78.2188C76.7031 78.5938 76.4141 78.8906 76.1641 79.1094C75.9297 79.3281 75.6328 79.5391 75.2734 79.7422C74.6016 80.1328 74.0391 80.3281 73.5859 80.3281C73.4766 80.3281 73.4219 80.2891 73.4219 80.2109C73.4219 80.1641 73.5703 80.0625 73.8672 79.9062C74.1641 79.75 74.4453 79.5625 74.7109 79.3438C75.3828 78.7812 75.9375 78.2031 76.375 77.6094C76.2812 77.5156 75.8125 77.1094 74.9688 76.3906C74.8594 76.3125 74.6953 76.1797 74.4766 75.9922C74.4297 75.9609 74.3359 75.8906 74.1953 75.7812C74.0547 75.6719 73.9844 75.5938 73.9844 75.5469C73.9844 75.4688 74.0234 75.4297 74.1016 75.4297C74.3359 75.4297 74.7109 75.5938 75.2266 75.9219C75.7422 76.2344 76.2812 76.6094 76.8438 77.0469C77.0625 76.7812 77.2344 76.5312 77.3594 76.2969C77.4844 76.0625 77.625 75.7734 77.7812 75.4297C77.8594 75.2578 77.9062 75.1094 77.9219 74.9844C77.9375 74.8438 77.9453 74.7578 77.9453 74.7266C77.9453 74.5547 77.9922 74.4688 78.0859 74.4688C78.1953 74.4688 78.3438 74.5547 78.5312 74.7266C78.8594 75.0391 79.0234 75.25 79.0234 75.3594C79.0234 75.4219 78.9844 75.4922 78.9062 75.5703C78.7188 75.7578 78.5469 76.0078 78.3906 76.3203C78.2969 76.5078 78.125 76.7734 77.875 77.1172C77.7969 77.2109 77.7344 77.2969 77.6875 77.375C77.6406 77.4531 77.5938 77.5234 77.5469 77.5859C77.9062 77.8516 78.4375 78.3047 79.1406 78.9453C79.3125 79.1016 79.4219 79.25 79.4688 79.3906C79.5312 79.5156 79.5625 79.6875 79.5625 79.9062C79.5625 80.0625 79.5234 80.1953 79.4453 80.3047C79.3672 80.3984 79.2656 80.4453 79.1406 80.4453ZM79.5625 83.5391C79.7344 83.7266 79.8203 83.8828 79.8203 84.0078C79.8203 84.1172 79.7578 84.2188 79.6328 84.3125C79.5547 84.375 79.3594 84.7188 79.0469 85.3438C78.7031 85.9062 78.3203 86.3906 77.8984 86.7969C77.4922 87.2188 77.0859 87.5234 76.6797 87.7109C76.5859 87.7422 76.5078 87.7578 76.4453 87.7578C76.3828 87.7578 76.3516 87.7422 76.3516 87.7109V87.6641C76.3516 87.5703 76.4297 87.4609 76.5859 87.3359C76.8672 87.1172 77.0781 86.8906 77.2188 86.6562C77.375 86.4375 77.4922 86.2734 77.5703 86.1641C77.8984 85.6953 78.1328 85.3125 78.2734 85.0156C78.4297 84.75 78.5391 84.4766 78.6016 84.1953H78.5078C78.1016 84.1953 77.4453 84.2422 76.5391 84.3359C76.3984 84.3516 75.9922 84.4062 75.3203 84.5C75.1797 84.5156 74.9609 84.5547 74.6641 84.6172L74.3828 84.6875C74.3203 84.7188 74.2578 84.7344 74.1953 84.7344C74.1172 84.7344 74.0391 84.7188 73.9609 84.6875C73.8828 84.6406 73.8047 84.5859 73.7266 84.5234C73.5391 84.3672 73.4453 84.2344 73.4453 84.125C73.4609 84.0938 73.4766 84.0469 73.4922 83.9844C73.5234 83.9219 73.5391 83.8672 73.5391 83.8203L73.6562 83.0469C73.6719 82.9688 73.6875 82.8828 73.7031 82.7891C73.7188 82.6953 73.7266 82.6016 73.7266 82.5078C73.7266 82.2109 73.7188 81.9766 73.7031 81.8047C73.7031 81.6172 73.6797 81.4219 73.6328 81.2188V81.1484C73.6328 81.0391 73.6797 80.9844 73.7734 80.9844C73.8672 80.9844 74.0312 81.0547 74.2656 81.1953C74.5781 81.4141 74.7344 81.5859 74.7344 81.7109C74.7344 81.7578 74.7266 81.7969 74.7109 81.8281C74.6953 81.8594 74.6797 81.8906 74.6641 81.9219C74.6172 82.2031 74.5938 82.3594 74.5938 82.3906L74.4766 83.6328C74.4766 83.6641 74.4922 83.7031 74.5234 83.75C74.5703 83.7812 74.6172 83.7969 74.6641 83.7969C75.0391 83.7969 75.8828 83.7031 77.1953 83.5156C77.7109 83.4688 78.0781 83.4141 78.2969 83.3516C78.4375 83.3359 78.5547 83.3125 78.6484 83.2812C78.7578 83.2344 78.8281 83.2109 78.8594 83.2109C78.9531 83.1797 79.0156 83.1641 79.0469 83.1641C79.1875 83.1641 79.3594 83.2891 79.5625 83.5391ZM80.9219 78.9922C81 78.9922 81.1172 79.0469 81.2734 79.1562C81.2578 79.1875 81.2891 79.25 81.3672 79.3438C81.4453 79.4219 81.5 79.4766 81.5312 79.5078C81.6094 79.5859 81.6875 79.6797 81.7656 79.7891C81.8594 79.8984 81.9609 80.0156 82.0703 80.1406C82.3516 80.4375 83 81.2109 84.0156 82.4609C84.1875 82.7109 84.2734 82.8594 84.2734 82.9062C84.2734 83.0625 84.1797 83.1406 83.9922 83.1406C83.8828 83.1406 83.7656 83.0625 83.6406 82.9062C83.3438 82.5938 82.8125 82.1016 82.0469 81.4297C81.4531 80.8828 80.9141 80.4609 80.4297 80.1641C80.1953 80.0547 80.0781 79.9297 80.0781 79.7891C80.0781 79.6797 80.1953 79.5234 80.4297 79.3203C80.6484 79.1016 80.8125 78.9922 80.9219 78.9922ZM62.6406 82.9531V83C62.6406 83.1094 62.6016 83.2031 62.5234 83.2812C62.4453 83.3594 62.3438 83.3984 62.2188 83.3984C62.0469 83.3984 61.8281 83.3203 61.5625 83.1641C61.3125 83.0078 61.1875 82.8047 61.1875 82.5547L61.2109 82.3672C61.2422 82.0234 61.2578 81.7656 61.2578 81.5938V81.3125L61 74.1406C60.9844 73.625 60.9141 73.2109 60.7891 72.8984C60.7109 72.6953 60.6719 72.5469 60.6719 72.4531C60.6719 72.3594 60.7344 72.3125 60.8594 72.3125C61.0625 72.3125 61.5469 72.4531 62.3125 72.7344L63.6484 72.6406C63.8828 72.2812 64.1094 71.875 64.3281 71.4219C64.5625 70.9531 64.6797 70.6172 64.6797 70.4141C64.6797 70.2891 64.6719 70.1875 64.6562 70.1094L61.6797 70.3203C61.5234 70.3359 61.3125 70.3438 61.0469 70.3438C60.6875 70.3438 60.4062 70.2578 60.2031 70.0859C60.0156 69.9141 59.8594 69.6641 59.7344 69.3359C59.7188 69.3047 59.7109 69.2578 59.7109 69.1953C59.7109 69.1016 59.7656 69.0547 59.875 69.0547L59.9922 69.0781C60.2266 69.1406 60.4844 69.1719 60.7656 69.1719L61.2109 69.1484L68.5703 68.7031C68.8672 68.6875 69.1875 68.625 69.5312 68.5156C69.625 68.4844 69.6953 68.4688 69.7422 68.4688C69.9453 68.4688 70.2031 68.5938 70.5156 68.8438C70.8438 69.0938 71.0078 69.3125 71.0078 69.5C71.0078 69.6406 70.8672 69.7266 70.5859 69.7578L65.5234 70.0391C66.0078 70.3828 66.25 70.6406 66.25 70.8125C66.25 70.875 66.125 71.1094 65.875 71.5156C65.625 71.9062 65.3906 72.25 65.1719 72.5469L68.5938 72.3359L68.9453 72.3125C69.0703 72.3125 69.25 72.3906 69.4844 72.5469C69.7344 72.7031 69.8594 72.8828 69.8594 73.0859C69.8594 73.1484 69.8281 73.2344 69.7656 73.3438C69.7188 73.4375 69.6953 73.5078 69.6953 73.5547L69.3906 81.1016C69.7969 81.5547 70 81.8672 70 82.0391C70 82.1328 69.9609 82.1953 69.8828 82.2266C69.8047 82.2422 69.6562 82.2578 69.4375 82.2734L62.6172 82.5781L62.6406 82.9531ZM49.6797 87.4766C49.6797 87.3203 49.7188 87.1641 49.7969 87.0078C50.4062 85.7422 50.8594 84.4141 51.1562 83.0234C51.4531 81.6172 51.6406 80.2188 51.7188 78.8281C51.8125 77.4219 51.8594 75.75 51.8594 73.8125L51.8359 71.2109C51.8359 71.0078 51.8047 70.7891 51.7422 70.5547C51.6953 70.3203 51.625 70.1562 51.5312 70.0625C51.4688 70 51.4375 69.9375 51.4375 69.875C51.4375 69.7812 51.5391 69.7344 51.7422 69.7344C51.9766 69.7344 52.2812 69.7891 52.6562 69.8984C53.0312 70.0078 53.2188 70.1953 53.2188 70.4609V72.0078C53.2188 75.0703 53.1562 77.4844 53.0312 79.25C52.9062 80.7969 52.625 82.2109 52.1875 83.4922C51.7656 84.7734 51.3125 85.7969 50.8281 86.5625C50.3594 87.3281 50.0234 87.7109 49.8203 87.7109C49.7266 87.7109 49.6797 87.6328 49.6797 87.4766ZM54.5078 70.6719C54.5078 70.5781 54.6016 70.5312 54.7891 70.5312C54.9922 70.5312 55.2188 70.5703 55.4688 70.6484C55.75 70.7266 55.9297 70.8203 56.0078 70.9297C56.0859 71.0234 56.125 71.1641 56.125 71.3516V83C56.125 83.3281 56.0078 83.4922 55.7734 83.4922C55.5703 83.4922 55.3281 83.3984 55.0469 83.2109C54.7812 83.0234 54.6484 82.7969 54.6484 82.5312C54.6484 82.4062 54.6562 82.3125 54.6719 82.25C54.7812 81.75 54.8359 81.2266 54.8359 80.6797L54.7891 72.1016C54.7891 71.7734 54.7734 71.5156 54.7422 71.3281C54.7266 71.1406 54.6797 70.9922 54.6016 70.8828C54.5391 70.8203 54.5078 70.75 54.5078 70.6719ZM57.4844 68.5859C57.4844 68.4922 57.5781 68.4453 57.7656 68.4453C58.0469 68.4453 58.3438 68.5078 58.6562 68.6328C58.9844 68.7578 59.1484 68.9688 59.1484 69.2656V86.7266C59.1484 87.0391 59.0391 87.1953 58.8203 87.1953C58.7734 87.1953 58.6484 87.1562 58.4453 87.0781C58.2578 87 58.0781 86.8828 57.9062 86.7266C57.7344 86.5859 57.6484 86.4062 57.6484 86.1875C57.6484 86.0781 57.6562 86 57.6719 85.9531C57.7812 85.4062 57.8359 84.8672 57.8359 84.3359L57.7891 69.9688V69.7109C57.7891 69.4766 57.7812 69.2969 57.7656 69.1719C57.75 69.0312 57.7031 68.9219 57.625 68.8438C57.5312 68.75 57.4844 68.6641 57.4844 68.5859ZM58.8438 88.1094C58.8438 88.0156 58.9609 87.8594 59.1953 87.6406C60.3672 86.7031 61.3047 85.8125 62.0078 84.9688C62.7266 84.125 63.1016 83.5 63.1328 83.0938C63.1328 82.9531 63.1953 82.8828 63.3203 82.8828C63.3828 82.8828 63.5234 82.9531 63.7422 83.0938C63.9609 83.2344 64.1562 83.3984 64.3281 83.5859C64.5156 83.7734 64.6094 83.9453 64.6094 84.1016C64.6094 84.1797 64.5859 84.2422 64.5391 84.2891C63.7422 85.1953 62.9531 85.9453 62.1719 86.5391C61.4062 87.1328 60.7344 87.5625 60.1562 87.8281C59.5938 88.0938 59.2188 88.2266 59.0312 88.2266C58.9062 88.2266 58.8438 88.1875 58.8438 88.1094ZM62.3828 75.5703L68.2422 75.2422L68.2891 73.5312L62.3125 73.9062L62.3828 75.5703ZM62.4766 78.3359L68.125 78.0547L68.1953 76.3203L62.4062 76.6719L62.4766 78.3359ZM62.5938 81.3828L68.0312 81.1484L68.1016 79.1562L62.5234 79.4375L62.5938 81.3828ZM66.2031 83.7266C66.2031 83.6016 66.2891 83.4609 66.4609 83.3047C66.6328 83.1484 66.7969 83.0703 66.9531 83.0703C67.1094 83.0703 67.5234 83.375 68.1953 83.9844C68.8672 84.5781 69.5 85.2109 70.0938 85.8828C70.7031 86.5391 71.0078 86.9609 71.0078 87.1484C71.0078 87.3203 70.9141 87.4922 70.7266 87.6641C70.5391 87.8516 70.3672 87.9453 70.2109 87.9453C70.0703 87.9453 69.9219 87.8438 69.7656 87.6406C68.6719 86.2656 67.5938 85.1172 66.5312 84.1953C66.3125 84.0078 66.2031 83.8516 66.2031 83.7266Z" fill="#333333"/>
<path d="M51.5 24.5L28.5 47.5M51.5 24.5L62.5 35.5M51.5 24.5V22L55.5 18.5H58M28.5 47.5L34 49M28.5 47.5L27.2885 58M39 59.5L62.5 35.5M39 59.5L38 53M39 59.5L29.5 60.2917M62.5 35.5H65L68.5 31.5V29M58 18.5L68.5 29M58 18.5L62.5 14H65L73 22V24.5L68.5 29M51 32.5L48 35.5M34 49V52.5L38 53M34 49L46 37.5M38 53L51.5 39M27.2885 58L27 60.5L29.5 60.2917M27.2885 58L29.5 60.2917M59 23.5L56.5 26M62 27L60 29M64.5 30L62.5 32" stroke="#333333" stroke-width="2" stroke-linecap="round" stroke-linejoin="round"/>
</svg>
