<svg xmlns="http://www.w3.org/2000/svg" width="100" height="100" fill="none"><path stroke="#333" stroke-linecap="round" stroke-linejoin="round" stroke-width="2" d="M70.5 55s.515 5.923 1.5 9.5C73.833 71.156 84.5 77 84.5 77s-1.132-8.5-1-11.5c.132-3 2-7.5 3-17S78 32.445 78 32.445s.663-2.055-1-3.5c-1.663-1.445-4 0-4 0C71.667 26.778 65.508 22 55.5 22c-11.5 0-14 3.445-16 5.445-2 2-2.5 7.5-2.5 7.5M70.5 55s-2.245 2.952-4.65 6.5M70.5 55c1-2 2-11.055 0-14.555m-33.5-5.5V45l-5 7 4 3 1.5 10 2 1.5H47V79h18.85S62.656 72.028 64 65.5c.275-1.336.973-2.708 1.85-4M37 34.945s8.74 1.078 13.5 5.5c5.112 4.749 0 13.055 7 17.555 2.92 1.877 8.35 3.5 8.35 3.5M32 58v4.5m-3.5-7v9m-3.5-16v23m-4-18V67m-4-15.5v17m-4-12v6"/></svg>