<svg xmlns="http://www.w3.org/2000/svg" width="100" height="100" fill="none"><path stroke="#333" stroke-linecap="round" stroke-linejoin="round" stroke-width="2" d="M56.5 34.371c.788 2.611 1.05 7.166 1 9.129l4.5 8-4.5 2v12l-2 1-7-1v13h-26c2.703-4.635 3.361-12.85 3.027-17.5M56.5 34.371C54.679 28.335 50.052 22 40 22c-18 0-21 13.5-21 18s4.5 14.5 6 18c.244.569.428 1.63.527 3M56.5 34.371S41.407 31.928 38 38.5c-1.5 2.893 1 9 1 11.5 0 2.236-2.053 9.495-5 11-2.947 1.505-8.473 0-8.473 0M61 58v4.5m4-7V64m4-15v23m4-18.5v13m4-15V68m4-10v4.5"/></svg>