<svg xmlns="http://www.w3.org/2000/svg" width="100" height="100" fill="none"><path fill="#333" d="M40.656 76.977c-.125 0-.25-.024-.375-.07a.613.613 0 0 1-.281-.282c-.047-.14-.148-.305-.305-.492a1.79 1.79 0 0 0-.422-.422l.094-.117c.078.047.266.14.563.281.297.14.515.21.656.21a.848.848 0 0 0 .586-.233c.172-.157.39-.454.656-.891.188-.297.36-.648.516-1.055.156-.406.273-.781.351-1.125l.024-.047a.16.16 0 0 0-.047-.117c-.031-.047-.063-.07-.094-.07l-1.078.094a31.33 31.33 0 0 1-2.25.304c-.14.016-.305.055-.492.118a1.49 1.49 0 0 1-.399.093c-.125 0-.289-.101-.492-.304a1.66 1.66 0 0 1-.234-.235c-.063-.094-.078-.172-.047-.234l.187-.188.118-.093c.218-.22.437-.508.656-.868.156-.218.32-.586.492-1.101 0-.172.04-.258.117-.258.047 0 .125.031.235.094l.375.234c.093.078.156.14.187.188.031.046.047.109.047.187 0 .094-.063.211-.188.352-.124.125-.234.25-.328.375l-.539.773-.047.094c0 .047.063.07.188.07l1.805-.234 1.218-.094.47-.047.257-.047h.07c.157 0 .328.133.516.399.219.203.328.375.328.515l-.117.305c-.016.031-.14.398-.375 1.102-.281.671-.524 1.18-.727 1.523-.203.344-.422.61-.656.797-.422.344-.828.516-1.219.516Zm-2.554 5.343c-.172 0-.383-.132-.633-.398-.188-.188-.282-.328-.282-.422 0-.047.032-.07.094-.07a.988.988 0 0 1 .235-.024l.515-.023c.297 0 .492-.008.586-.024.297 0 .547-.007.75-.023 1.344-.125 2.25-.227 2.719-.305.234-.031.445-.062.633-.094a1.95 1.95 0 0 1 .445-.07c.219 0 .438.11.656.328.172.172.258.313.258.422 0 .094-.055.156-.164.188-.078.015-.539.047-1.383.093a31.25 31.25 0 0 0-1.734.118 61.47 61.47 0 0 0-1.805.187l-.398.07a2.75 2.75 0 0 1-.492.047Zm9.914-6.234c.047 0 .093.023.14.07a.228.228 0 0 1 .094.14v.048c0 .11-.086.32-.258.633l-1.687 2.93c-.125.265-.29.398-.492.398-.204 0-.376-.125-.516-.375a7.917 7.917 0 0 1-.516-.914 2.849 2.849 0 0 1-.234-.422 8.126 8.126 0 0 0-.14-.305c-.173-.297-.259-.508-.259-.633 0-.062.024-.11.07-.14.048-.047.094-.07.141-.07.172 0 .328.093.47.28.108.11.194.227.257.352l.258.352.468.539.211-.328c.22-.375.735-1.118 1.547-2.227.172-.219.32-.328.446-.328ZM25.188 88.133c0 .312-.118.469-.352.469-.14 0-.305-.047-.492-.141-.469-.203-.703-.477-.703-.82 0-.094.007-.164.023-.211.063-.266.094-.68.094-1.243l.023-1.359-7.57.258-.469.023c-.375 0-.672-.086-.89-.257a1.74 1.74 0 0 1-.446-.54c-.078-.203-.117-.359-.117-.468 0-.094.04-.14.117-.14l.117.023c.297.078.641.117 1.032.117h.304l7.922-.258.024-1.383-3.844.164-.68.024a.889.889 0 0 1-.656-.258 1.859 1.859 0 0 1-.375-.586c-.078-.203-.117-.336-.117-.399 0-.062.039-.093.117-.093a.52.52 0 0 1 .164.023c.203.063.469.094.797.094l.375-.024 4.219-.14.023-1.383-3.656.188h-.258c-.375 0-.672-.055-.89-.165-.22-.109-.422-.351-.61-.726a.333.333 0 0 1-.047-.188c0-.093.047-.14.14-.14.048 0 .087.008.118.023.188.047.422.07.703.07l.54-.023 3.96-.21.024-1.43-6.61.328-.68.023c-.218 0-.367-.031-.445-.094a2.449 2.449 0 0 1-.492-.562c-.14-.235-.21-.414-.21-.54 0-.077.046-.117.14-.117a.52.52 0 0 1 .164.024c.234.062.531.094.89.094h.235l7.008-.328.023-1.336-3.54.21-.538.024h-.117a.888.888 0 0 1-.703-.328 3.654 3.654 0 0 1-.399-.61.983.983 0 0 1-.047-.164c0-.078.055-.117.164-.117.063 0 .11.008.14.024.188.047.415.07.68.07l.422-.023 3.938-.258a2.28 2.28 0 0 0-.07-.633 1.065 1.065 0 0 0-.211-.469.4.4 0 0 1-.07-.187c0-.11.085-.164.257-.164.157 0 .422.054.797.164.281.093.461.187.54.28a.567.567 0 0 1 .116.376v.539l4.453-.281h.188c.36 0 .625.094.797.281.172.172.258.328.258.469 0 .094-.04.21-.117.351-.063.125-.094.211-.094.258l-.164 1.219 1.664-.07c.36-.016.734-.094 1.125-.235a.61.61 0 0 1 .187-.023c.219 0 .469.125.75.375.297.234.446.437.446.61 0 .187-.188.296-.563.327l-3.773.188-.164 1.36c.453.437.68.75.68.937 0 .109-.063.18-.188.21-.11.016-.313.032-.61.047l-4.898.258v1.406l3.633-.117c.281-.015.64-.101 1.078-.257.125-.032.203-.047.234-.047.219 0 .485.14.797.421.313.282.469.5.469.657 0 .172-.188.273-.563.304l-5.648.235v1.406l7.43-.258c.422-.015.898-.117 1.43-.304a.743.743 0 0 1 .21-.047c.188 0 .469.148.844.445.375.297.563.547.563.75 0 .188-.188.297-.563.328l-9.938.328v3.352Zm-10.29-14.344c0-.14.11-.328.329-.562 1-1.079 1.898-2.243 2.695-3.493.812-1.265 1.219-2.117 1.219-2.554v-.118c0-.203.093-.304.28-.304.079 0 .22.047.423.14.218.094.414.211.586.352.172.14.258.29.258.445 0 .094-.032.18-.094.258-.188.328-.469.75-.844 1.266l3.727-.258c.328-.031.601-.094.82-.188a.673.673 0 0 1 .305-.07c.203 0 .43.11.68.328.265.219.398.422.398.61 0 .187-.18.296-.54.328l-3.913.258c.625.562 1.046.96 1.265 1.195.235.234.352.406.352.516 0 .156-.102.32-.305.492-.187.156-.344.234-.469.234-.11 0-.242-.102-.398-.305a19.23 19.23 0 0 0-1.313-1.476c-.125-.125-.187-.235-.187-.328 0-.078.047-.172.14-.282l-1.382.094a22 22 0 0 1-2.227 2.367c-.844.797-1.398 1.196-1.664 1.196-.094 0-.14-.047-.14-.14Zm9.797-2.062c0-.141.086-.329.258-.563.703-1 1.258-1.875 1.664-2.625.406-.75.61-1.297.61-1.64v-.165c0-.156.078-.234.234-.234.219 0 .5.117.844.352.343.218.515.421.515.609 0 .078-.054.21-.164.398-.11.172-.367.524-.773 1.055l4.5-.328c.312-.031.586-.086.82-.164a.766.766 0 0 1 .188-.047c.203 0 .43.117.68.352.25.234.374.43.374.585 0 .172-.156.274-.468.305l-4.336.305c.015.016.289.273.82.773.547.5.82.875.82 1.125 0 .125-.101.282-.304.47-.188.17-.352.257-.493.257-.093 0-.21-.094-.351-.281a9.393 9.393 0 0 0-1.383-1.618c-.172-.171-.258-.296-.258-.375 0-.078.063-.18.188-.304l-1.735.117c-.422.469-.937.96-1.547 1.477l-.117.093c-.203.14-.351.211-.445.211-.094 0-.14-.047-.14-.14Zm4.149 6.468.164-1.406-3.797.164v1.43l3.633-.188Zm.304-2.578.188-1.43-4.102.235v1.383l3.914-.188ZM73.445 74.281a.582.582 0 0 1-.21-.023c-.016-.031.007-.086.07-.164a3.38 3.38 0 0 0 .515-.586c.14-.203.29-.524.446-.961.25-.719.375-1.274.375-1.664 0-.36-.024-.688-.07-.985v-.07c0-.172.109-.226.327-.164.188.047.399.11.633.188a.708.708 0 0 1 .211-.024c.094-.016.242-.039.445-.07a40.31 40.31 0 0 1 2.063-.235c0-.062.063-.28.188-.656l.14-.515c.063-.22.04-.329-.07-.329-.313 0-1.04.079-2.18.235l-1.242.21c-.11.016-.25-.03-.422-.14a1.422 1.422 0 0 1-.375-.375c-.078-.14-.062-.234.047-.281a.703.703 0 0 1 .375-.117h.539l1.547-.047 1.5-.188c.078-.015.172-.039.281-.07a1.69 1.69 0 0 1 .352-.094c.156-.031.422.14.797.516a.291.291 0 0 1 .093.21c0 .095-.062.188-.187.282-.172.172-.281.32-.328.445a4.238 4.238 0 0 1-.094.352c-.047.14-.094.32-.14.539.093.11.14.242.14.398 0 .125-.04.22-.117.282-.063.047-.196.07-.399.07a36.7 36.7 0 0 0-1.664.14c-.406.032-.898.11-1.476.235a7.534 7.534 0 0 1-.422 1.945c-.219.578-.524 1.016-.914 1.313-.375.265-.633.398-.774.398Zm5.696 6.164c-.235 0-.461-.172-.68-.515a7.414 7.414 0 0 0-.82-1.078l-.61-.633a9.628 9.628 0 0 1-.867.89c-.234.22-.531.43-.89.633-.672.39-1.235.586-1.688.586-.11 0-.164-.039-.164-.117 0-.047.148-.148.445-.305.297-.156.578-.344.844-.562a10.117 10.117 0 0 0 1.664-1.735c-.094-.093-.563-.5-1.406-1.218a7.947 7.947 0 0 1-.492-.399 6.148 6.148 0 0 1-.282-.21c-.14-.11-.21-.188-.21-.235 0-.078.038-.117.117-.117.234 0 .609.164 1.125.492.515.312 1.054.687 1.617 1.125.219-.266.39-.516.515-.75.125-.234.266-.524.422-.867.078-.172.125-.32.14-.446.016-.14.024-.226.024-.257 0-.172.047-.258.14-.258.11 0 .259.086.446.258.328.312.492.523.492.632 0 .063-.039.133-.117.211-.187.188-.36.438-.515.75a6.303 6.303 0 0 1-.516.797c-.078.094-.14.18-.188.258a2.473 2.473 0 0 1-.14.21c.36.267.89.72 1.594 1.36.171.157.28.305.328.446.062.125.094.296.094.515 0 .156-.04.29-.118.399a.378.378 0 0 1-.304.14Zm.421 3.094c.172.188.258.344.258.469 0 .11-.062.21-.187.305-.078.062-.274.406-.586 1.03a7.258 7.258 0 0 1-1.149 1.454c-.406.422-.812.726-1.218.914a.77.77 0 0 1-.235.047c-.062 0-.093-.016-.093-.047v-.047c0-.094.078-.203.234-.328a2.54 2.54 0 0 0 .633-.68l.351-.492c.328-.469.563-.852.703-1.148.157-.266.266-.54.329-.82h-.094c-.406 0-1.063.046-1.969.14-.14.016-.547.07-1.219.164-.14.016-.36.055-.656.117l-.281.07a.415.415 0 0 1-.188.047.627.627 0 0 1-.234-.046 2.136 2.136 0 0 1-.234-.165c-.188-.156-.282-.289-.282-.398a.725.725 0 0 0 .047-.14.378.378 0 0 0 .047-.165l.117-.773c.016-.078.031-.164.047-.258a1.7 1.7 0 0 0 .024-.281c0-.297-.008-.531-.024-.703 0-.188-.023-.383-.07-.586v-.07c0-.11.047-.165.14-.165.094 0 .258.07.493.211.312.22.468.39.468.516a.26.26 0 0 1-.023.117l-.047.094c-.047.281-.07.437-.07.469l-.117 1.242c0 .031.015.07.046.117a.253.253 0 0 0 .141.047c.375 0 1.219-.094 2.531-.281.516-.047.883-.102 1.102-.164.14-.016.258-.04.351-.07.11-.048.18-.071.211-.071a.767.767 0 0 1 .188-.047c.14 0 .312.125.516.375Zm1.36-4.547c.078 0 .195.055.351.164-.015.031.016.094.094.188l.164.164c.078.078.156.172.235.281.093.11.195.227.304.352.282.296.93 1.07 1.946 2.32.171.25.257.398.257.445 0 .156-.093.235-.28.235-.11 0-.227-.079-.352-.235-.297-.312-.829-.804-1.594-1.476-.594-.547-1.133-.97-1.617-1.266-.235-.11-.352-.234-.352-.375 0-.11.117-.266.352-.469.218-.218.382-.328.492-.328ZM62.64 82.953V83c0 .11-.04.203-.118.281a.412.412 0 0 1-.304.117c-.172 0-.39-.078-.657-.234-.25-.156-.374-.36-.374-.61l.023-.187a9.34 9.34 0 0 0 .047-.773v-.281L61 74.14c-.016-.516-.086-.93-.21-1.243-.08-.203-.118-.351-.118-.445 0-.094.062-.14.187-.14.203 0 .688.14 1.453.421l1.336-.093c.235-.36.461-.766.68-1.22.234-.468.352-.804.352-1.007a1.6 1.6 0 0 0-.024-.305l-2.976.211a6.695 6.695 0 0 1-.633.024c-.36 0-.64-.086-.844-.258-.187-.172-.344-.422-.469-.75a.326.326 0 0 1-.023-.14c0-.094.055-.141.164-.141l.117.023c.235.063.492.094.774.094l.445-.024 7.36-.445c.296-.016.617-.078.96-.187a.745.745 0 0 1 .211-.047c.203 0 .461.125.774.375.328.25.492.469.492.656 0 .14-.14.227-.422.258l-5.063.281c.485.344.727.602.727.773 0 .063-.125.297-.375.704-.25.39-.484.734-.703 1.03l3.422-.21.351-.023c.125 0 .305.078.54.234.25.156.374.336.374.539a.578.578 0 0 1-.093.258.54.54 0 0 0-.07.21l-.305 7.548c.406.453.609.765.609.937 0 .094-.04.156-.117.188a4.301 4.301 0 0 1-.445.046l-6.82.305.023.375ZM49.68 87.477c0-.157.039-.313.117-.47a17.637 17.637 0 0 0 1.36-3.984c.296-1.406.484-2.804.562-4.195.093-1.406.14-3.078.14-5.016l-.023-2.601c0-.203-.031-.422-.094-.656-.047-.235-.117-.399-.21-.493-.063-.062-.094-.124-.094-.187 0-.094.101-.14.304-.14.235 0 .54.054.914.163.375.11.563.297.563.563v1.547c0 3.062-.063 5.476-.188 7.242-.125 1.547-.406 2.96-.843 4.242-.422 1.281-.876 2.305-1.36 3.07-.469.766-.805 1.149-1.008 1.149-.093 0-.14-.078-.14-.234Zm4.828-16.805c0-.094.094-.14.281-.14.203 0 .43.038.68.116.281.079.46.172.539.282.078.093.117.234.117.422V83c0 .328-.117.492-.352.492-.203 0-.445-.094-.726-.281-.266-.188-.399-.414-.399-.68 0-.125.008-.219.024-.281.11-.5.164-1.023.164-1.57l-.047-8.578c0-.329-.016-.586-.047-.774a.883.883 0 0 0-.14-.445.291.291 0 0 1-.094-.211Zm2.976-2.086c0-.094.094-.14.282-.14.28 0 .578.062.89.187.328.125.492.336.492.633v17.46c0 .313-.109.47-.328.47-.047 0-.172-.04-.375-.118a1.879 1.879 0 0 1-.539-.351.666.666 0 0 1-.258-.54.82.82 0 0 1 .024-.234c.11-.547.164-1.086.164-1.617l-.047-14.367v-.258c0-.234-.008-.414-.023-.54a.53.53 0 0 0-.141-.327c-.094-.094-.14-.18-.14-.258Zm1.36 19.523c0-.093.117-.25.351-.468 1.172-.938 2.11-1.829 2.813-2.672.719-.844 1.094-1.469 1.125-1.875 0-.14.062-.211.187-.211.063 0 .203.07.422.21.219.141.414.305.586.493.188.187.281.36.281.516 0 .078-.023.14-.07.187-.797.906-1.586 1.656-2.367 2.25-.766.594-1.438 1.023-2.016 1.29-.562.265-.937.398-1.125.398-.125 0-.187-.04-.187-.118Zm3.539-12.539 5.86-.328.046-1.71-5.977.374.07 1.664Zm.094 2.766 5.648-.281.07-1.735-5.789.352.07 1.664Zm.117 3.047 5.437-.235.07-1.992-5.578.281.07 1.946Zm3.61 2.344c0-.125.085-.266.257-.422.172-.157.336-.235.492-.235.156 0 .57.305 1.242.914a21.76 21.76 0 0 1 1.899 1.899c.61.656.914 1.078.914 1.265 0 .172-.094.344-.281.516-.188.188-.36.281-.516.281-.14 0-.29-.101-.445-.304-1.094-1.375-2.172-2.524-3.235-3.446-.219-.187-.328-.343-.328-.468Z"/><path stroke="#333" stroke-linecap="round" stroke-linejoin="round" stroke-width="2" d="m51.5 24.5-23 23m23-23 11 11m-11-11V22l4-3.5H58m-29.5 29L34 49m-5.5-1.5L27.288 58M39 59.5l23.5-24M39 59.5 38 53m1 6.5-9.5.792m33-24.792H65l3.5-4V29M58 18.5 68.5 29M58 18.5l4.5-4.5H65l8 8v2.5L68.5 29M51 32.5l-3 3M34 49v3.5l4 .5m-4-4 12-11.5M38 53l13.5-14M27.288 58 27 60.5l2.5-.208M27.288 58l2.212 2.292M59 23.5 56.5 26m5.5 1-2 2m4.5 1-2 2"/></svg>