<svg xmlns="http://www.w3.org/2000/svg" width="100" height="100" fill="none"><path fill="#333" d="M43.023 76.414c-.234 0-.406-.125-.515-.375l-.211-.469c-.61.157-1.102.274-1.477.352l-1.523.375c-.313.078-.508.117-.586.117a.522.522 0 0 1-.234-.047l-.118-.117a1.13 1.13 0 0 1-.07-.117c-.125-.219-.18-.367-.164-.445l.164-.258c.406-.563.781-1.368 1.125-2.414l-.469.07-.61.07c-.046.016-.148.047-.304.094-.14.031-.25.023-.328-.023-.172-.11-.398-.305-.68-.586-.062-.063-.093-.11-.093-.141 0-.094.172-.14.515-.14h.797c.531-.032 1.016-.07 1.453-.118.094-.234.196-.531.305-.89.11-.36.188-.649.234-.868v-.28c.016-.141.047-.227.094-.259h.024c.062 0 .148.032.257.094.11.063.211.14.305.234.297.297.383.532.258.704-.063.015-.195.273-.399.773-.015.031-.07.172-.164.422l1.36-.164c.36-.031.633-.07.82-.117a2.39 2.39 0 0 1 .633-.118c.125 0 .226.047.305.141l.164.164c.047.047.101.14.164.281.062.11.086.188.07.235-.063.094-.172.14-.328.14a12.843 12.843 0 0 0-1.852.047 7.939 7.939 0 0 0-.703.094l-.914.094-.21.633-.259.562a9.06 9.06 0 0 1-.257.563 5.087 5.087 0 0 0-.211.468.327.327 0 0 0-.024.14c0 .08.047.118.14.118.126 0 .556-.07 1.29-.21l.867-.141.398-.094c-.14-.39-.25-.64-.328-.75a2.247 2.247 0 0 1-.14-.211l.14-.14c.61.39 1.102.788 1.477 1.195.11.14.18.273.21.398a.927.927 0 0 1 .048.422.652.652 0 0 1-.164.328c-.032.078-.125.133-.282.164Zm.118 8.25c-.235 0-.461-.172-.68-.516a7.42 7.42 0 0 0-.82-1.078l-.61-.632a9.616 9.616 0 0 1-.867.89c-.234.219-.531.43-.89.633-.672.39-1.235.586-1.688.586-.11 0-.164-.04-.164-.117 0-.047.148-.149.445-.305.297-.156.578-.344.844-.563a10.11 10.11 0 0 0 1.664-1.734c-.094-.094-.563-.5-1.406-1.219a7.996 7.996 0 0 1-.492-.398 6.041 6.041 0 0 1-.282-.211c-.14-.11-.21-.188-.21-.234 0-.079.038-.118.117-.118.234 0 .609.165 1.125.493.515.312 1.054.687 1.617 1.125a4.63 4.63 0 0 0 .515-.75c.125-.235.266-.524.422-.868a1.59 1.59 0 0 0 .14-.445c.017-.14.024-.226.024-.258 0-.172.047-.257.14-.257.11 0 .259.085.446.257.328.313.492.524.492.633 0 .063-.039.133-.117.211-.187.188-.36.438-.515.75a6.296 6.296 0 0 1-.516.797c-.078.094-.14.18-.188.258a2.473 2.473 0 0 1-.14.21c.36.266.89.72 1.594 1.36.172.156.28.305.328.445.062.125.093.297.093.516 0 .156-.039.29-.117.398a.378.378 0 0 1-.304.141Zm4.78-10.125c.188 0 .282.086.282.258 0 .094-.086.226-.258.398-.468.578-1.398 1.68-2.789 3.305-.11.14-.21.21-.304.21-.079 0-.25-.116-.516-.35-.219-.188-.328-.344-.328-.47 0-.14.117-.273.351-.398.36-.203.899-.61 1.618-1.219.718-.64 1.25-1.148 1.593-1.523.14-.14.258-.21.352-.21Zm-30.07 13.125c0 .219-.03.375-.093.469a.315.315 0 0 1-.281.14c-.235 0-.493-.085-.774-.257s-.422-.414-.422-.727c0-.078.016-.195.047-.352.078-.453.117-.968.117-1.546l-.023-15.375c0-.547-.102-1.016-.305-1.407-.094-.218-.14-.351-.14-.398 0-.11.078-.164.234-.164.25 0 .82.156 1.71.469l14.017-.633h.21c.344 0 .633.101.868.305.25.187.375.374.375.562a.577.577 0 0 1-.094.258.54.54 0 0 0-.07.21l-.094 15.868c.531.578.797.969.797 1.172 0 .11-.055.18-.164.21-.094.032-.211.048-.352.048-.14.015-.234.023-.281.023l-15.281.352v.773Zm0-2.062 13.899-.399.07-16.101-14.039.656.07 15.844Zm.188-10.29c0-.078.047-.117.14-.117.063 0 .11.008.141.024.313.078.578.117.797.117l.281-.023 4.641-.235v-1.125l-1.547.07.024.141v.094c0 .25-.118.375-.352.375a1.509 1.509 0 0 1-.633-.164.472.472 0 0 1-.258-.446v-.187a1.6 1.6 0 0 0 .024-.305c0-.14-.008-.258-.024-.351l-.21-1.547c-.063-.438-.165-.774-.305-1.008-.078-.125-.117-.219-.117-.281 0-.078.07-.117.21-.117.22 0 .649.109 1.29.328l5.109-.328h.14c.391 0 .657.07.797.21.157.141.235.282.235.422 0 .063-.024.141-.07.235-.032.078-.055.14-.07.187l-.329 1.57c.25.344.375.579.375.704 0 .078-.031.132-.094.164a2.58 2.58 0 0 1-.304.047l-2.696.14-.023 1.125 4.078-.21c.11-.016.25-.04.422-.071.187-.047.336-.078.445-.094a.384.384 0 0 0 .094-.023.253.253 0 0 1 .14-.047c.11 0 .313.117.61.352.297.218.445.414.445.585 0 .141-.164.227-.492.258l-11.156.54h-.469c-.328 0-.555-.048-.68-.141a3.293 3.293 0 0 1-.421-.399c-.125-.172-.188-.328-.188-.469Zm1.266 1.758c0-.11.086-.164.258-.164.156 0 .601.102 1.335.305l7.875-.375h.188c.203 0 .414.094.633.281.234.172.351.344.351.516a.377.377 0 0 1-.047.164l-.046.187-.61 4.805c.328.39.492.68.492.867 0 .078-.047.133-.14.164a1.625 1.625 0 0 1-.422.07l-7.758.282.023.351v.094c0 .313-.117.469-.351.469-.172 0-.383-.063-.633-.188-.25-.14-.375-.343-.375-.609l.024-.21c.03-.376.046-.665.046-.868l-.023-.54-.328-4.148c-.031-.39-.164-.796-.399-1.218-.062-.125-.093-.203-.093-.235Zm2.039 6.07 6.75-.28.539-4.993-7.64.352.35 4.922Zm.75-4.218c0-.078.07-.117.21-.117.235 0 .61.093 1.126.28l2.625-.187.21-.023c.188 0 .368.078.54.234.187.157.28.329.28.516a.36.36 0 0 1-.046.14.92.92 0 0 1-.047.118l-.305 1.125c.22.281.329.484.329.61 0 .077-.047.132-.141.163-.078.031-.21.055-.398.07l-2.743.141v.188c0 .234-.086.351-.257.351-.094 0-.235-.047-.422-.14a1.318 1.318 0 0 1-.328-.211.586.586 0 0 1-.07-.305v-.164a2.37 2.37 0 0 0 .023-.375c0-.14-.008-.25-.024-.328l-.117-.914c-.062-.375-.172-.672-.328-.89-.078-.126-.117-.22-.117-.282Zm.304-5.836 4.477-.234.21-1.594-4.85.281.163 1.547Zm1.243 8.062 2.109-.117.14-1.195-2.343.164.094 1.148ZM76.68 77.117c-.22 0-.383-.07-.493-.21-.14-.266-.43-.555-.867-.868l.047-.117c.485.203.89.305 1.219.305.203 0 .375-.118.516-.352.156-.25.32-.61.492-1.078.203-.578.312-1.063.328-1.453 0-.047-.024-.086-.07-.117-.047-.047-.086-.07-.118-.07-.14-.016-.406.007-.796.07l-.493.07c-.14.016-.304.047-.492.094a3.617 3.617 0 0 1-.422.093 4.7 4.7 0 0 0-.304.094c-.141.047-.243.07-.305.07-.078 0-.172-.039-.281-.117a2.418 2.418 0 0 1-.258-.304c-.016-.016-.024-.047-.024-.094 0-.063.047-.14.141-.235l.258-.257c.078-.094.156-.204.234-.329.078-.14.14-.242.188-.304.078-.125.14-.274.187-.445l.047-.211a.71.71 0 0 0-.023-.118c-.016-.078-.047-.117-.094-.117-.625.078-1.086.172-1.383.281a1.453 1.453 0 0 1-.281.094.355.355 0 0 1-.281-.14c-.047-.016-.141-.141-.282-.375-.062-.063-.093-.118-.093-.165 0-.109.164-.171.492-.187l.445-.047c.078 0 .242-.016.492-.047a95.63 95.63 0 0 1 2.086-.164 59.71 59.71 0 0 0 1.617-.117c.22-.016.485-.047.797-.094.172-.047.281-.07.328-.07.079 0 .157.031.235.094.078.03.18.093.304.187a.908.908 0 0 1 .282.258.375.375 0 0 1 .093.234c0 .079-.039.133-.117.164a.5.5 0 0 1-.304 0 3.68 3.68 0 0 0-.657-.093 10.274 10.274 0 0 0-.422-.024 19.107 19.107 0 0 0-1.992.07 3.825 3.825 0 0 1-.492.047c.094.079.18.204.258.375v.047c0 .047-.024.11-.07.188a.413.413 0 0 1-.165.164c-.078.047-.171.156-.28.328-.11.172-.18.281-.212.328-.093.125-.14.227-.14.305 0 .062.062.086.187.07l.68-.094c.36-.062.625-.117.797-.164.047-.015.117-.03.21-.047.11-.015.235-.046.376-.093a.505.505 0 0 1 .328.07c.125.063.312.195.562.398.188.141.282.266.282.375a.375.375 0 0 1-.094.235c-.063.11-.11.258-.14.445-.141.656-.305 1.188-.493 1.594-.14.281-.273.516-.398.703a3.497 3.497 0 0 1-.47.516c-.202.234-.437.351-.702.351Zm.093 8.203c-.109 0-.187-.03-.234-.093a1.422 1.422 0 0 0-.094-.118c-.156-.218-.226-.43-.21-.632.015-.125.038-.461.07-1.008l.023-1.125c-.016-.172-.031-.274-.047-.305-.015-.047-.086-.14-.21-.281-.25-.313-.54-.633-.868-.961a20.031 20.031 0 0 1-.726-.75l-.704-.703c-.046-.047-.07-.094-.07-.14 0-.079.047-.141.14-.188a.505.505 0 0 1 .329-.07c.312.03.516.07.61.117.109.03.21.124.304.28.094.157.227.344.398.563.188.203.329.36.422.469.39.469.664.781.82.938.282-.329.633-.797 1.055-1.407.344-.437.547-.797.61-1.078.062-.203.156-.305.28-.305.063 0 .157.04.282.118.406.25.61.453.61.609 0 .094-.102.21-.305.352a3.24 3.24 0 0 0-.703.68l-.47.585c-.312.375-.546.672-.702.89-.078.141-.117.345-.117.61v2.367c.015.11-.047.235-.188.375-.125.141-.226.211-.305.211Zm7.243-9.234c.046 0 .093.023.14.07a.228.228 0 0 1 .094.14v.048c0 .11-.086.32-.258.633l-1.687 2.93c-.125.265-.29.398-.493.398s-.374-.125-.515-.375a7.917 7.917 0 0 1-.516-.914 2.849 2.849 0 0 1-.234-.422 8.126 8.126 0 0 0-.14-.305c-.173-.297-.259-.508-.259-.633 0-.062.024-.11.07-.14.048-.047.094-.07.141-.07.172 0 .329.093.47.28.109.11.194.227.257.352l.258.352.469.539.21-.328c.22-.375.735-1.118 1.547-2.227.172-.219.32-.328.446-.328ZM60.836 87.78c0 .422-.133.633-.398.633-.063 0-.211-.039-.446-.117a1.79 1.79 0 0 1-.61-.375.756.756 0 0 1-.28-.61c0-.124.007-.226.023-.304.11-.578.164-1.047.164-1.406v-8.977l-7.125.398-.61.024c-.25 0-.421-.04-.515-.117a2.328 2.328 0 0 1-.516-.61c-.125-.218-.187-.398-.187-.539 0-.094.055-.14.164-.14h.117c.281.046.555.07.82.07h.258l7.64-.422-.046-6.984c0-.36-.102-.703-.305-1.032a.42.42 0 0 1-.07-.21c0-.141.102-.211.305-.211.078 0 .25.03.515.093.266.047.516.14.75.282.235.125.352.304.352.539v2.718l3.094-.21c.515-.032.96-.11 1.336-.235a.955.955 0 0 1 .328-.07c.281 0 .578.148.89.445.329.281.493.516.493.703 0 .156-.133.25-.399.281l-5.742.329-.023 3.468 7.968-.445c.313-.031.61-.094.89-.188a.402.402 0 0 1 .165-.023c.203 0 .453.148.75.445.312.282.469.516.469.704 0 .187-.188.296-.563.328l-9.68.539.024 11.226Zm.469-8.554c0-.188.078-.383.234-.586.156-.204.305-.305.445-.305.266 0 1 .414 2.203 1.242 1.204.813 2.133 1.477 2.79 1.992.296.235.445.438.445.61 0 .156-.102.36-.305.61-.187.25-.351.374-.492.374-.125 0-.29-.078-.492-.234a46.906 46.906 0 0 0-4.43-3.235 2.103 2.103 0 0 1-.305-.234.318.318 0 0 1-.093-.234Z"/><path stroke="#333" stroke-linecap="round" stroke-linejoin="round" stroke-width="2" d="M72.5 20.5V53H25m47.5-32.5V16H22v37h3m47.5-32.5H76V58H25v-5m0-4h5m2.5 0H40m29 0H52.5M40 49l5.5-8.5 8.5 6M40 49h12.5m1.5-2.5L52.5 49m1.5-2.5 7-11 8 7.5M35 18.5v3m5-1.5-1.5 2.5m5 1L41 25m4 3.5h-3M41 32l2.5 2m-5 0 1.5 3m-5-1.5V38m-3.5-4L30 37m-1-5-3 2m2-5.5h-3m4-3.5-3-1.5m5.5-1-2-2.5m5.5 5c2 0 3.5 1.5 3.5 3.5S37 32 35 32s-3.5-1.5-3.5-3.5S33 25 35 25Z"/></svg>