<svg xmlns="http://www.w3.org/2000/svg" width="100" height="100" fill="none"><path fill="#333" d="M38.47 77.424a.874.874 0 0 1-.632-.28c-.235-.173-.352-.306-.352-.4 0-.109.18-.163.54-.163l1.148-.07 1.172-.118c.031-.25.047-.727.047-1.43.047 0-.196.032-.727.094l-.445.07a.941.941 0 0 1-.375.094.318.318 0 0 1-.235-.094c-.25-.218-.375-.406-.375-.562v-1.102c0-.109-.039-.53-.117-1.265l-.023-.258c0-.125.023-.203.07-.234.047-.032.133-.032.258 0 .469.125.695.265.68.421l-.024.165c-.031.218-.047.5-.047.843 0 .406.008.664.024.774.03.312.046.46.046.445.016.063.07.094.165.094.093 0 .28-.024.562-.07.297-.063.492-.102.586-.118v-2.062c0-.578-.023-.969-.07-1.172a3.448 3.448 0 0 1-.047-.258c0-.11.039-.164.117-.164.031 0 .14.031.328.094.297.14.492.265.586.375.11.11.148.226.117.351-.047.157-.078.47-.094.938-.03.375-.062.984-.093 1.828l.797-.023c.156 0 .273-.008.351-.024.078-.016.117-.047.117-.094.11-.593.18-1.11.211-1.547l.024-.28c.015-.032.015-.087 0-.165v-.164l-.024-.164c0-.14.055-.21.164-.21.063 0 .196.062.399.187.047.03.11.078.187.14a.396.396 0 0 1 .188.164c.031.047.047.11.047.188a.987.987 0 0 1-.024.234l-.258 1.313-.07.539c-.062.36-.25.554-.562.586a.83.83 0 0 1-.235-.07.229.229 0 0 0-.117-.048c-.187 0-.578.04-1.172.118l-.023 1.453.398-.024.375-.023c.578 0 1.008-.031 1.29-.094.124 0 .234-.016.327-.047l.07-.023c.157 0 .321.11.493.328.203.203.305.352.305.445 0 .14-.22.188-.657.14l-.89-.046h-1.172c-.234 0-.664.031-1.29.094-.327 0-.624.015-.89.047a3.759 3.759 0 0 0-.75.164l-.398.14Zm5.087 7.547c-.235 0-.461-.172-.68-.515a7.421 7.421 0 0 0-.82-1.079l-.61-.632a9.643 9.643 0 0 1-.867.89c-.234.219-.531.43-.89.633-.672.39-1.235.586-1.688.586-.11 0-.164-.04-.164-.117 0-.047.148-.149.445-.305.297-.156.578-.344.844-.562a10.116 10.116 0 0 0 1.664-1.735c-.094-.094-.563-.5-1.406-1.219a7.947 7.947 0 0 1-.492-.398 6.207 6.207 0 0 1-.282-.21c-.14-.11-.21-.188-.21-.235 0-.078.038-.117.117-.117.234 0 .609.164 1.125.492.515.312 1.054.687 1.617 1.125.218-.266.39-.516.515-.75.125-.235.266-.524.422-.867a1.59 1.59 0 0 0 .14-.446c.016-.14.024-.226.024-.258 0-.171.047-.257.141-.257.11 0 .258.086.445.257.328.313.492.524.492.633 0 .063-.039.133-.117.211-.187.188-.36.438-.515.75a6.303 6.303 0 0 1-.516.797c-.078.094-.14.18-.188.258a2.473 2.473 0 0 1-.14.21c.36.266.89.72 1.594 1.36.171.156.28.305.328.445.062.126.093.297.093.516 0 .156-.038.29-.117.399a.378.378 0 0 1-.304.14Zm1.78-8.25c.079 0 .196.055.352.164-.015.031.016.094.094.188l.164.164c.078.078.156.172.235.281.093.11.195.227.304.352.282.296.93 1.07 1.946 2.32.171.25.258.398.258.445 0 .156-.094.235-.282.235-.11 0-.226-.079-.351-.235-.297-.312-.829-.804-1.594-1.476-.594-.547-1.133-.97-1.617-1.266-.235-.11-.352-.234-.352-.375 0-.11.117-.266.352-.469.219-.218.383-.328.492-.328ZM29.284 71.73c-.14 0-.297-.086-.469-.258a23.3 23.3 0 0 0-3.703-3.07c-.187-.14-.28-.274-.28-.399 0-.14.085-.304.257-.492.187-.203.344-.304.469-.304.172 0 .64.265 1.406.796a22.986 22.986 0 0 1 2.156 1.641c.672.578 1.008.961 1.008 1.148 0 .188-.094.391-.281.61-.188.219-.375.328-.563.328Zm-14.648 2.836c0-.14.07-.305.21-.492.141-.188.274-.281.4-.281.171 0 .648.265 1.429.796.797.532 1.539 1.063 2.226 1.594.25.188.375.36.375.516 0 .14-.093.336-.28.586-.173.25-.337.375-.493.375-.11 0-.273-.094-.492-.282a27.263 27.263 0 0 0-3.047-2.367c-.219-.14-.328-.289-.328-.445Zm.14 11.742c0-.078.063-.156.188-.234.328-.219.617-.492.867-.82 1.516-2.172 2.781-4.212 3.797-6.118.266-.469.484-.703.656-.703.11 0 .164.102.164.305 0 .156-.047.39-.14.703-.61 1.812-1.649 4.016-3.117 6.61-.235.406-.415.679-.54.82a.511.511 0 0 1-.421.21h-.07a2.383 2.383 0 0 1-.962-.351c-.281-.172-.422-.313-.422-.422Zm1.664-16.945c0-.156.079-.32.235-.492.156-.172.297-.258.422-.258.156 0 .547.242 1.172.726.625.485 1.218.993 1.78 1.524.579.531.868.86.868.984 0 .14-.102.328-.305.563-.187.234-.367.351-.539.351-.125 0-.281-.101-.468-.304a30.682 30.682 0 0 0-2.86-2.649c-.203-.156-.305-.305-.305-.445Zm3.657 16.594c0-.094.054-.141.164-.141a.61.61 0 0 1 .187.023c.313.079.711.118 1.196.118l5.39-.141-.023-5.625-2.578.14-.703.024c-.297 0-.493-.04-.586-.117-.516-.438-.774-.836-.774-1.195 0-.094.047-.141.14-.141a.52.52 0 0 1 .165.023c.265.063.586.094.96.094h.305l3.07-.164-.023-4.922-3.75.211a7.853 7.853 0 0 1-.68.023c-.312 0-.515-.039-.609-.117a2.85 2.85 0 0 1-.562-.586c-.14-.234-.211-.453-.211-.656 0-.094.047-.14.14-.14a.52.52 0 0 1 .165.023c.265.062.585.094.96.094h.305l8.977-.493a4.51 4.51 0 0 0 1.054-.21.325.325 0 0 1 .141-.024c.094 0 .25.07.469.211.234.14.437.305.61.492.187.172.28.328.28.469 0 .172-.172.273-.515.305l-5.25.304.023 4.946 2.438-.118c.36-.03.71-.101 1.054-.21a.764.764 0 0 1 .188-.047c.078 0 .227.07.445.21.235.141.438.297.61.47.187.171.28.32.28.445 0 .187-.179.297-.538.328l-4.477.234.024 5.695 4.78-.117c.329 0 .68-.054 1.056-.164a.4.4 0 0 1 .164-.023c.14 0 .312.078.515.234.219.14.406.313.563.516.172.187.258.328.258.422 0 .218-.172.343-.516.375h-.047l-13.195.304-.703.024a1.02 1.02 0 0 1-.75-.305 1.736 1.736 0 0 1-.446-.633c-.093-.234-.14-.39-.14-.468ZM74.518 74.424c-.172 0-.383-.133-.633-.398-.188-.188-.282-.328-.282-.422 0-.047.032-.07.094-.07a.987.987 0 0 1 .235-.024l.515-.023c.297 0 .492-.008.586-.024.297 0 .547-.007.75-.023 1.344-.125 2.25-.227 2.719-.305.234-.031.445-.062.633-.094.187-.046.336-.07.445-.07.219 0 .438.11.656.328.172.172.258.313.258.422 0 .094-.055.156-.164.188-.078.015-.539.047-1.383.093-.469.016-1.047.055-1.734.118a61.47 61.47 0 0 0-1.805.187l-.398.07a2.75 2.75 0 0 1-.492.047Zm5.46 6.844c.172.188.258.344.258.469 0 .11-.062.21-.187.305-.078.062-.274.406-.586 1.03a7.909 7.909 0 0 1-1.148 1.477c-.407.407-.813.703-1.22.89a.77.77 0 0 1-.234.048c-.062 0-.093-.016-.093-.047v-.047c0-.094.078-.203.234-.328a2.74 2.74 0 0 0 .633-.656c.156-.235.273-.407.351-.516.328-.469.563-.852.703-1.148a2.82 2.82 0 0 0 .329-.82h-.094c-.406 0-1.063.046-1.969.14-.14.016-.547.07-1.219.164-.14.016-.359.055-.656.117l-.281.07a.415.415 0 0 1-.188.047.626.626 0 0 1-.234-.046 2.127 2.127 0 0 1-.234-.165c-.188-.156-.282-.289-.282-.398a.718.718 0 0 0 .047-.14.377.377 0 0 0 .047-.165l.117-.773c.016-.078.031-.164.047-.258a1.7 1.7 0 0 0 .024-.281c0-.297-.008-.531-.024-.703 0-.188-.023-.383-.07-.586v-.07c0-.11.047-.165.14-.165.094 0 .258.07.493.211.312.22.468.39.468.516a.261.261 0 0 1-.023.117l-.047.094c-.047.281-.07.437-.07.469l-.117 1.242c0 .031.015.07.046.117a.251.251 0 0 0 .141.047c.375 0 1.219-.094 2.531-.281.516-.047.883-.102 1.102-.164.14-.016.258-.04.352-.07.109-.048.18-.071.21-.071a.767.767 0 0 1 .188-.047c.14 0 .312.125.516.375Zm-22.523 6.586v.094c0 .344-.117.515-.352.515-.25 0-.53-.109-.843-.328-.297-.203-.445-.414-.445-.633v-.093c.015-.094.03-.227.046-.399.016-.172.024-.328.024-.469 0-.187-.008-.335-.024-.445l-.515-5.812c-.063-.578-.156-.977-.281-1.196-.079-.156-.118-.265-.118-.328 0-.125.086-.187.258-.187.281 0 .828.164 1.64.492l9.071-.422h.164c.313 0 .586.086.82.258.25.156.375.36.375.61a.737.737 0 0 1-.07.28c-.047.11-.078.196-.094.258l-.539 5.672c.39.516.586.867.586 1.055 0 .11-.055.18-.164.21a1.528 1.528 0 0 1-.445.048l-9.14.164.046.656Zm-7.148-11.79c0-.108.046-.163.14-.163a.52.52 0 0 1 .164.023c.25.078.594.117 1.032.117h.304l6.516-.328c-.11-.062-.235-.226-.375-.492a14.753 14.753 0 0 0-1.57-2.32c-.157-.172-.235-.313-.235-.422 0-.156.18-.352.54-.586l-1.735.094c-.172.015-.39.023-.656.023h-.235a1.436 1.436 0 0 1-.89-.445c-.22-.25-.329-.516-.329-.797 0-.11.047-.164.141-.164a.52.52 0 0 1 .164.023c.282.079.625.118 1.032.118h.304l6.727-.375c-1.172-.907-2.016-1.54-2.531-1.899a1.083 1.083 0 0 1-.235-.21.343.343 0 0 1-.07-.212c0-.14.062-.297.187-.468.14-.188.266-.297.375-.329a.327.327 0 0 1 .14-.023c.11 0 .235.047.376.14l.422.258c.875.547 1.578 1 2.11 1.36.53.36.82.633.866.82l.024.117c0 .094-.047.22-.14.375l3.679-.21c.36-.032.71-.102 1.054-.212a.403.403 0 0 1 .165-.023c.187 0 .453.148.796.445.344.282.516.516.516.703 0 .157-.195.25-.586.282l-3.984.21c.203.126.43.329.68.61.265.281.398.523.398.727 0 .109-.047.226-.14.351-.673.86-1.36 1.625-2.063 2.297l6.14-.305a4.85 4.85 0 0 0 1.055-.21.402.402 0 0 1 .164-.024c.172 0 .43.148.774.445.359.297.539.547.539.75 0 .188-.196.297-.586.328l-19.055.914-.82.024c-.266 0-.446-.04-.54-.117-.28-.235-.476-.47-.585-.703-.11-.235-.164-.407-.164-.516Zm6.726 6.353 8.32-.305.141-2.133-8.625.375.164 2.063Zm.258 3.468 7.805-.164.164-2.367-8.133.305.164 2.226Zm-.047-14.015c.063.03.297.273.703.726.406.453.781.914 1.125 1.383.344.453.516.773.516.96 0 .188-.14.392-.422.61l-.117.094-.117.047 2.976-.14c.516-.657.961-1.305 1.336-1.946.375-.656.61-1.21.703-1.664l.024-.258.023-.164-6.75.352Z"/><path stroke="#333" stroke-linecap="round" stroke-linejoin="round" stroke-width="2" d="M19.5 31.5 17 40l13.5-5c.333 4.5-.5 14.143-2.5 15-1 .429-3.5-1.5-4-2.5M43 29l-2 7.5L54 30c-.5 5.333-3.4 15.5-11 17.5m2-7.5 11.5 5m10-3-3-13L77 25l3 14"/></svg>