<svg width="100" height="100" viewBox="0 0 100 100" fill="none" xmlns="http://www.w3.org/2000/svg">
<path d="M40.6562 76.5078C40.5312 76.5078 40.4062 76.4844 40.2812 76.4375C40.1562 76.375 40.0625 76.2812 40 76.1562C39.9531 76.0156 39.8516 75.8516 39.6953 75.6641C39.5547 75.4766 39.4141 75.3359 39.2734 75.2422L39.3672 75.125C39.4453 75.1719 39.6328 75.2656 39.9297 75.4062C40.2266 75.5469 40.4453 75.6172 40.5859 75.6172C40.8047 75.6172 41 75.5391 41.1719 75.3828C41.3438 75.2266 41.5625 74.9297 41.8281 74.4922C42.0156 74.1953 42.1875 73.8438 42.3438 73.4375C42.5 73.0312 42.6172 72.6562 42.6953 72.3125L42.7188 72.2656C42.7188 72.2188 42.7031 72.1797 42.6719 72.1484C42.6406 72.1016 42.6094 72.0781 42.5781 72.0781L41.5 72.1719C40.7812 72.2969 40.0312 72.3984 39.25 72.4766C39.1094 72.4922 38.9453 72.5312 38.7578 72.5938C38.5703 72.6562 38.4375 72.6875 38.3594 72.6875C38.2344 72.6875 38.0703 72.5859 37.8672 72.3828C37.7891 72.3203 37.7109 72.2422 37.6328 72.1484C37.5703 72.0547 37.5547 71.9766 37.5859 71.9141C37.7109 71.7891 37.7734 71.7266 37.7734 71.7266L37.8906 71.6328C38.1094 71.4141 38.3281 71.125 38.5469 70.7656C38.7031 70.5469 38.8672 70.1797 39.0391 69.6641C39.0391 69.4922 39.0781 69.4062 39.1562 69.4062C39.2031 69.4062 39.2812 69.4375 39.3906 69.5L39.7656 69.7344C39.8594 69.8125 39.9219 69.875 39.9531 69.9219C39.9844 69.9688 40 70.0312 40 70.1094C40 70.2031 39.9375 70.3203 39.8125 70.4609C39.6875 70.5859 39.5781 70.7109 39.4844 70.8359L38.9453 71.6094L38.8984 71.7031C38.8984 71.75 38.9609 71.7734 39.0859 71.7734L40.8906 71.5391L42.1094 71.4453L42.5781 71.3984L42.8359 71.3516H42.9062C43.0625 71.3516 43.2344 71.4844 43.4219 71.75C43.6406 71.9531 43.75 72.125 43.75 72.2656L43.6328 72.5703C43.6172 72.6016 43.4922 72.9688 43.2578 73.6719C42.9766 74.3438 42.7344 74.8516 42.5312 75.1953C42.3281 75.5391 42.1094 75.8047 41.875 75.9922C41.4531 76.3359 41.0469 76.5078 40.6562 76.5078ZM38.1016 81.8516C37.9297 81.8516 37.7188 81.7188 37.4688 81.4531C37.2812 81.2656 37.1875 81.125 37.1875 81.0312C37.1875 80.9844 37.2188 80.9609 37.2812 80.9609C37.3438 80.9453 37.4219 80.9375 37.5156 80.9375L38.0312 80.9141C38.3281 80.9141 38.5234 80.9062 38.6172 80.8906C38.9141 80.8906 39.1641 80.8828 39.3672 80.8672C40.7109 80.7422 41.6172 80.6406 42.0859 80.5625C42.3203 80.5312 42.5312 80.5 42.7188 80.4688C42.9062 80.4219 43.0547 80.3984 43.1641 80.3984C43.3828 80.3984 43.6016 80.5078 43.8203 80.7266C43.9922 80.8984 44.0781 81.0391 44.0781 81.1484C44.0781 81.2422 44.0234 81.3047 43.9141 81.3359C43.8359 81.3516 43.375 81.3828 42.5312 81.4297C42.0625 81.4453 41.4844 81.4844 40.7969 81.5469C40.1094 81.6094 39.5078 81.6719 38.9922 81.7344C38.8984 81.75 38.7656 81.7734 38.5938 81.8047C38.4219 81.8359 38.2578 81.8516 38.1016 81.8516ZM48.0156 75.6172C48.0625 75.6172 48.1094 75.6406 48.1562 75.6875C48.2031 75.7188 48.2344 75.7656 48.25 75.8281V75.875C48.25 75.9844 48.1641 76.1953 47.9922 76.5078L46.3047 79.4375C46.1797 79.7031 46.0156 79.8359 45.8125 79.8359C45.6094 79.8359 45.4375 79.7109 45.2969 79.4609C45.1562 79.2578 44.9844 78.9531 44.7812 78.5469C44.6875 78.4062 44.6094 78.2656 44.5469 78.125C44.4844 77.9844 44.4375 77.8828 44.4062 77.8203C44.2344 77.5234 44.1484 77.3125 44.1484 77.1875C44.1484 77.125 44.1719 77.0781 44.2188 77.0469C44.2656 77 44.3125 76.9766 44.3594 76.9766C44.5312 76.9766 44.6875 77.0703 44.8281 77.2578C44.9375 77.3672 45.0234 77.4844 45.0859 77.6094L45.3438 77.9609L45.8125 78.5L46.0234 78.1719C46.2422 77.7969 46.7578 77.0547 47.5703 75.9453C47.7422 75.7266 47.8906 75.6172 48.0156 75.6172ZM25.3984 73.4844L27.6719 72.9219C28.1562 72.8125 28.4688 72.7578 28.6094 72.7578C28.75 72.7578 28.9453 72.8281 29.1953 72.9688C29.4453 73.1094 29.6406 73.2422 29.7812 73.3672L30.0391 73.6484L29.8047 74.4453L29.5 75.1953L31.3047 74.9141L32.6875 74.7266C32.9531 74.7266 33.2109 74.7656 33.4609 74.8438C33.6953 74.9219 33.9219 75.0312 34.1406 75.1719C34.375 75.2969 34.5156 75.4297 34.5625 75.5703L34.6328 75.8047C34.6016 75.9141 34.5 75.9922 34.3281 76.0391C34.1562 76.0703 33.7891 76.1016 33.2266 76.1328L29.125 76.3203L28.6797 77.8672L29.0547 78.1719L28.8438 78.5L25.2109 78.8281L25.1406 80.375C25.9688 80.2344 26.5703 80.125 26.9453 80.0469C27.3359 79.9688 27.6172 79.9219 27.7891 79.9062C27.9609 79.9062 28.1719 79.9297 28.4219 79.9766C28.6719 80.0234 28.9219 80.1172 29.1719 80.2578L29.5234 80.4922C29.4922 80.5859 29.4141 80.6641 29.2891 80.7266C29.1641 80.8203 28.9141 80.8828 28.5391 80.9141L27.5547 81.0547C27.3359 81.1016 26.8984 81.1641 26.2422 81.2422L25.1406 81.3828L25.1641 82.7891L28.375 82.4609C28.875 82.4297 29.3359 82.3672 29.7578 82.2734L30.4609 82.1094C30.7109 82.0625 30.9219 82.0391 31.0938 82.0391C31.2344 82.0703 31.4531 82.1328 31.75 82.2266C32.0469 82.3203 32.2656 82.4062 32.4062 82.4844C32.5469 82.5625 32.6953 82.6719 32.8516 82.8125L33.0625 83.3047C33 83.4297 32.8203 83.4922 32.5234 83.4922L31.7266 83.5391H27.7656L25.1172 83.7266L25.0234 85.6484C24.9922 86.1172 24.9297 86.5547 24.8359 86.9609C24.7422 87.3359 24.6562 87.6641 24.5781 87.9453L24.3203 88.3438L24.1094 88.2969C24 88.1875 23.9297 88.0078 23.8984 87.7578L23.8047 86.9609C23.7734 86.6953 23.7578 86.375 23.7578 86V85.5781L23.8047 83.7969C23.3984 83.8281 23.0391 83.8672 22.7266 83.9141C22.4297 83.9453 21.9453 84.0234 21.2734 84.1484L19.9375 84.4297C19.2656 84.5859 18.8672 84.6641 18.7422 84.6641C18.6172 84.6641 18.4141 84.5938 18.1328 84.4531C17.8516 84.3281 17.6328 84.2188 17.4766 84.125L17.2891 83.5391L19.8672 83.3516L23.7578 82.8828L23.8047 81.5234L21.5078 81.8047C21.3516 81.8203 21.1641 81.8281 20.9453 81.8281C20.7266 81.8125 20.5078 81.7578 20.2891 81.6641C20.0703 81.5703 19.9141 81.4062 19.8203 81.1719C19.8828 81.0625 20.0078 81 20.1953 80.9844L21.7188 80.8438L23.0547 80.6797L23.8047 80.6094V79.0391L21.3438 79.2734H20.8281C20.6562 79.2734 20.4922 79.2266 20.3359 79.1328C20.1797 79.0547 20.0547 78.9609 19.9609 78.8516V78.5234L20.2891 78.4297L23.8047 78.1016V76.8359L21.4375 77.1406C20.7188 77.2188 20.0547 77.3125 19.4453 77.4219L17.9688 77.6797C17.5781 77.7578 17.25 77.7969 16.9844 77.7969C16.7188 77.7969 16.4297 77.7188 16.1172 77.5625L15.6016 77.2578V76.8828L17.9688 76.6016L22.1172 76.1094L23.8047 75.8984L23.8516 74.5391L21.6484 74.8203C21.2422 74.8828 20.8984 74.9219 20.6172 74.9375C20.3828 74.9375 20.2109 74.8984 20.1016 74.8203L19.8906 74.6562L19.8438 74.4219C19.9062 74.3125 20.0703 74.2422 20.3359 74.2109L21.1328 74.0703L22.75 73.9297L23.8047 73.7422V73.25L23.7109 72.5469C23.6641 72.2656 23.6094 72.0078 23.5469 71.7734L23.7344 71.5859C23.875 71.5859 24.1172 71.6406 24.4609 71.75C24.8047 71.8594 25.0859 71.9688 25.3047 72.0781L25.6562 72.5469L25.5391 72.9922L25.3984 73.4844ZM25.2344 77.8672L27.5547 77.4922L27.7891 76.4141L25.2812 76.6484L25.2344 77.8672ZM25.2344 75.7578L27.9766 75.4297C28.0078 75.1328 28.0547 74.8906 28.1172 74.7031C28.1484 74.5312 28.1641 74.3906 28.1641 74.2812L28.0938 74.1172C28.0469 74.0234 27.9688 73.9609 27.8594 73.9297C27.75 73.8984 27.6328 73.8828 27.5078 73.8828C27.3828 73.8828 27.2422 73.8906 27.0859 73.9062L26.2891 74.0469L25.3281 74.2109L25.2344 75.7578ZM27.6016 68.8906L31.0703 67.9766C31.2422 67.9766 31.4609 68.0234 31.7266 68.1172L32.125 68.3281L32.1719 68.6094C32.125 68.7188 32.0469 68.8125 31.9375 68.8906C31.8281 68.9688 31.6328 69.0312 31.3516 69.0781L29.9922 69.3359C29.2109 69.4766 28.6562 69.5703 28.3281 69.6172C28 69.6484 27.7578 69.6641 27.6016 69.6641L27.1328 69.6172L26.4766 70.3672L25.9141 70.9297L25.4688 71.3984L25.0469 71.4922C25.0312 71.3828 25.0547 71.2734 25.1172 71.1641L25.3984 70.6719C25.4922 70.5312 25.6484 70.2109 25.8672 69.7109C26.1172 69.2109 26.2891 68.8359 26.3828 68.5859C26.4766 68.3359 26.5547 68.0703 26.6172 67.7891C26.6797 67.5078 26.7188 67.2734 26.7344 67.0859L26.7578 66.7578L26.875 66.4531C26.9844 66.4219 27.1016 66.4297 27.2266 66.4766C27.3516 66.5078 27.5 66.5703 27.6719 66.6641C27.8438 66.7578 27.9922 66.8672 28.1172 66.9922C28.2578 67.1172 28.3594 67.2891 28.4219 67.5078C28.4375 67.6016 28.3906 67.7188 28.2812 67.8594C28.1719 67.9844 28.0859 68.1016 28.0234 68.2109L27.6016 68.8906ZM20.8047 69.5469L23.4297 68.8203C23.5703 68.8203 23.7734 68.8516 24.0391 68.9141C24.3828 69.0078 24.5781 69.1016 24.625 69.1953V69.5469C24.5156 69.6562 24.375 69.7344 24.2031 69.7812C24.0469 69.8281 23.8594 69.8672 23.6406 69.8984L21.1328 70.3672L20.5938 70.4141L20.2422 70.3672C19.9297 70.8359 19.6094 71.2891 19.2812 71.7266C18.9531 72.1641 18.6172 72.5391 18.2734 72.8516C17.9297 73.1484 17.5156 73.4531 17.0312 73.7656L16.6328 74.0234L16.3281 73.9297L16.8672 73.2734C17.3516 72.7109 17.75 72.1719 18.0625 71.6562C18.375 71.1406 18.6641 70.6016 18.9297 70.0391C19.1953 69.4766 19.3828 69.0547 19.4922 68.7734C19.6016 68.5078 19.6797 68.25 19.7266 68L20.0547 66.9688L20.4062 67.1328C20.5938 67.2266 20.7578 67.3281 20.8984 67.4375C21.0234 67.5469 21.1641 67.6797 21.3203 67.8359L21.5781 68.1406V68.3516L21.0625 69.1016L20.8047 69.5469ZM20.6172 71.0703L20.875 70.9766C21.0469 70.9766 21.3125 71.0391 21.6719 71.1641C22.0312 71.2734 22.3047 71.4297 22.4922 71.6328C22.6641 71.8359 22.75 72.0625 22.75 72.3125C22.7344 72.5781 22.6641 72.7656 22.5391 72.875C22.4141 72.9844 22.2812 73.0391 22.1406 73.0391C21.9531 73.0391 21.7734 72.9453 21.6016 72.7578C21.4141 72.5703 21.1953 72.2578 20.9453 71.8203L20.6172 71.0703ZM28.0938 70.2031C28.1875 70.1562 28.3047 70.1406 28.4453 70.1562L28.8203 70.2266C29.0391 70.2578 29.25 70.3047 29.4531 70.3672C29.6562 70.4297 29.8672 70.5234 30.0859 70.6484C30.3047 70.7734 30.4688 70.9062 30.5781 71.0469C30.6875 71.1875 30.75 71.4375 30.7656 71.7969C30.7656 72.0781 30.7188 72.2656 30.625 72.3594C30.5156 72.4688 30.3672 72.5312 30.1797 72.5469C30.0234 72.5469 29.875 72.5078 29.7344 72.4297C29.5938 72.3516 29.2969 72.0312 28.8438 71.4688C28.3906 70.9062 28.1406 70.4844 28.0938 70.2031ZM73.4453 73.8125C73.3359 73.8125 73.2656 73.8047 73.2344 73.7891C73.2188 73.7578 73.2422 73.7031 73.3047 73.625C73.5234 73.4219 73.6953 73.2266 73.8203 73.0391C73.9609 72.8359 74.1094 72.5156 74.2656 72.0781C74.5156 71.3594 74.6406 70.8047 74.6406 70.4141C74.6406 70.0547 74.6172 69.7266 74.5703 69.4297V69.3594C74.5703 69.1875 74.6797 69.1328 74.8984 69.1953C75.0859 69.2422 75.2969 69.3047 75.5312 69.3828C75.5781 69.3672 75.6484 69.3594 75.7422 69.3594C75.8359 69.3438 75.9844 69.3203 76.1875 69.2891C76.7188 69.2109 77.4062 69.1328 78.25 69.0547C78.25 68.9922 78.3125 68.7734 78.4375 68.3984L78.5781 67.8828C78.6406 67.6641 78.6172 67.5547 78.5078 67.5547C78.1953 67.5547 77.4688 67.6328 76.3281 67.7891L75.0859 68C74.9766 68.0156 74.8359 67.9688 74.6641 67.8594C74.5078 67.75 74.3828 67.625 74.2891 67.4844C74.2109 67.3438 74.2266 67.25 74.3359 67.2031C74.4609 67.125 74.5859 67.0859 74.7109 67.0859C74.8359 67.0859 74.9141 67.0859 74.9453 67.0859H75.25L76.7969 67.0391L78.2969 66.8516C78.375 66.8359 78.4688 66.8125 78.5781 66.7812C78.7031 66.7344 78.8203 66.7031 78.9297 66.6875C79.0859 66.6562 79.3516 66.8281 79.7266 67.2031C79.7891 67.2656 79.8203 67.3359 79.8203 67.4141C79.8203 67.5078 79.7578 67.6016 79.6328 67.6953C79.4609 67.8672 79.3516 68.0156 79.3047 68.1406C79.2891 68.2188 79.2578 68.3359 79.2109 68.4922C79.1641 68.6328 79.1172 68.8125 79.0703 69.0312C79.1641 69.1406 79.2109 69.2734 79.2109 69.4297C79.2109 69.5547 79.1719 69.6484 79.0938 69.7109C79.0312 69.7578 78.8984 69.7812 78.6953 69.7812C77.9922 69.8281 77.4375 69.875 77.0312 69.9219C76.625 69.9531 76.1328 70.0312 75.5547 70.1562C75.4922 70.8594 75.3516 71.5078 75.1328 72.1016C74.9141 72.6797 74.6094 73.1172 74.2188 73.4141C73.8438 73.6797 73.5859 73.8125 73.4453 73.8125ZM79.1406 79.9766C78.9062 79.9766 78.6797 79.8047 78.4609 79.4609C78.1797 79.0234 77.9062 78.6641 77.6406 78.3828L77.0312 77.75C76.7031 78.125 76.4141 78.4219 76.1641 78.6406C75.9297 78.8594 75.6328 79.0703 75.2734 79.2734C74.6016 79.6641 74.0391 79.8594 73.5859 79.8594C73.4766 79.8594 73.4219 79.8203 73.4219 79.7422C73.4219 79.6953 73.5703 79.5938 73.8672 79.4375C74.1641 79.2812 74.4453 79.0938 74.7109 78.875C75.3828 78.3125 75.9375 77.7344 76.375 77.1406C76.2812 77.0469 75.8125 76.6406 74.9688 75.9219C74.8594 75.8438 74.6953 75.7109 74.4766 75.5234C74.4297 75.4922 74.3359 75.4219 74.1953 75.3125C74.0547 75.2031 73.9844 75.125 73.9844 75.0781C73.9844 75 74.0234 74.9609 74.1016 74.9609C74.3359 74.9609 74.7109 75.125 75.2266 75.4531C75.7422 75.7656 76.2812 76.1406 76.8438 76.5781C77.0625 76.3125 77.2344 76.0625 77.3594 75.8281C77.4844 75.5938 77.625 75.3047 77.7812 74.9609C77.8594 74.7891 77.9062 74.6406 77.9219 74.5156C77.9375 74.375 77.9453 74.2891 77.9453 74.2578C77.9453 74.0859 77.9922 74 78.0859 74C78.1953 74 78.3438 74.0859 78.5312 74.2578C78.8594 74.5703 79.0234 74.7812 79.0234 74.8906C79.0234 74.9531 78.9844 75.0234 78.9062 75.1016C78.7188 75.2891 78.5469 75.5391 78.3906 75.8516C78.2969 76.0391 78.125 76.3047 77.875 76.6484C77.7969 76.7422 77.7344 76.8281 77.6875 76.9062C77.6406 76.9844 77.5938 77.0547 77.5469 77.1172C77.9062 77.3828 78.4375 77.8359 79.1406 78.4766C79.3125 78.6328 79.4219 78.7812 79.4688 78.9219C79.5312 79.0469 79.5625 79.2188 79.5625 79.4375C79.5625 79.5938 79.5234 79.7266 79.4453 79.8359C79.3672 79.9297 79.2656 79.9766 79.1406 79.9766ZM79.5625 83.0703C79.7344 83.2578 79.8203 83.4141 79.8203 83.5391C79.8203 83.6484 79.7578 83.75 79.6328 83.8438C79.5547 83.9062 79.3594 84.25 79.0469 84.875C78.7031 85.4375 78.3203 85.9219 77.8984 86.3281C77.4922 86.75 77.0859 87.0547 76.6797 87.2422C76.5859 87.2734 76.5078 87.2891 76.4453 87.2891C76.3828 87.2891 76.3516 87.2734 76.3516 87.2422V87.1953C76.3516 87.1016 76.4297 86.9922 76.5859 86.8672C76.8672 86.6484 77.0781 86.4219 77.2188 86.1875C77.375 85.9688 77.4922 85.8047 77.5703 85.6953C77.8984 85.2266 78.1328 84.8438 78.2734 84.5469C78.4297 84.2812 78.5391 84.0078 78.6016 83.7266H78.5078C78.1016 83.7266 77.4453 83.7734 76.5391 83.8672C76.3984 83.8828 75.9922 83.9375 75.3203 84.0312C75.1797 84.0469 74.9609 84.0859 74.6641 84.1484L74.3828 84.2188C74.3203 84.25 74.2578 84.2656 74.1953 84.2656C74.1172 84.2656 74.0391 84.25 73.9609 84.2188C73.8828 84.1719 73.8047 84.1172 73.7266 84.0547C73.5391 83.8984 73.4453 83.7656 73.4453 83.6562C73.4609 83.625 73.4766 83.5781 73.4922 83.5156C73.5234 83.4531 73.5391 83.3984 73.5391 83.3516L73.6562 82.5781C73.6719 82.5 73.6875 82.4141 73.7031 82.3203C73.7188 82.2266 73.7266 82.1328 73.7266 82.0391C73.7266 81.7422 73.7188 81.5078 73.7031 81.3359C73.7031 81.1484 73.6797 80.9531 73.6328 80.75V80.6797C73.6328 80.5703 73.6797 80.5156 73.7734 80.5156C73.8672 80.5156 74.0312 80.5859 74.2656 80.7266C74.5781 80.9453 74.7344 81.1172 74.7344 81.2422C74.7344 81.2891 74.7266 81.3281 74.7109 81.3594C74.6953 81.3906 74.6797 81.4219 74.6641 81.4531C74.6172 81.7344 74.5938 81.8906 74.5938 81.9219L74.4766 83.1641C74.4766 83.1953 74.4922 83.2344 74.5234 83.2812C74.5703 83.3125 74.6172 83.3281 74.6641 83.3281C75.0391 83.3281 75.8828 83.2344 77.1953 83.0469C77.7109 83 78.0781 82.9453 78.2969 82.8828C78.4375 82.8672 78.5547 82.8438 78.6484 82.8125C78.7578 82.7656 78.8281 82.7422 78.8594 82.7422C78.9531 82.7109 79.0156 82.6953 79.0469 82.6953C79.1875 82.6953 79.3594 82.8203 79.5625 83.0703ZM80.9219 78.5234C81 78.5234 81.1172 78.5781 81.2734 78.6875C81.2578 78.7188 81.2891 78.7812 81.3672 78.875C81.4453 78.9531 81.5 79.0078 81.5312 79.0391C81.6094 79.1172 81.6875 79.2109 81.7656 79.3203C81.8594 79.4297 81.9609 79.5469 82.0703 79.6719C82.3516 79.9688 83 80.7422 84.0156 81.9922C84.1875 82.2422 84.2734 82.3906 84.2734 82.4375C84.2734 82.5938 84.1797 82.6719 83.9922 82.6719C83.8828 82.6719 83.7656 82.5938 83.6406 82.4375C83.3438 82.125 82.8125 81.6328 82.0469 80.9609C81.4531 80.4141 80.9141 79.9922 80.4297 79.6953C80.1953 79.5859 80.0781 79.4609 80.0781 79.3203C80.0781 79.2109 80.1953 79.0547 80.4297 78.8516C80.6484 78.6328 80.8125 78.5234 80.9219 78.5234ZM63.8359 82.1797L63.5078 82.1094L63.4609 82.5547C63.4453 82.7734 63.3672 82.8828 63.2266 82.8828C63.1016 82.8828 62.9844 82.8047 62.875 82.6484C62.7656 82.5391 62.6797 82.4141 62.6172 82.2734C62.5391 82.1172 62.4766 81.9453 62.4297 81.7578C62.3984 81.6172 62.3828 81.4688 62.3828 81.3125C62.3828 81.1719 62.3984 80.9844 62.4297 80.75C62.4766 80.5156 62.5391 80.1406 62.6172 79.625C62.6953 79.0938 62.7422 78.7344 62.7578 78.5469L62.8047 75.6172C62.8047 75.3359 62.7891 75.1172 62.7578 74.9609C62.7422 74.8047 62.7109 74.6406 62.6641 74.4688C62.6016 74.2969 62.5469 74.1641 62.5 74.0703L62.3125 73.5781C62.3594 73.4688 62.4531 73.4062 62.5938 73.3906C62.7188 73.3906 62.9453 73.4453 63.2734 73.5547L63.625 73.6953L64.3281 72.5234C64.5312 72.1797 64.6953 71.8359 64.8203 71.4922C64.9453 71.1328 65.0078 70.875 65.0078 70.7188L64.9609 70.2969L64.4219 70.3906C64.2188 70.4375 64.0078 70.5 63.7891 70.5781L63.2969 70.6719C63.0938 70.6719 62.9141 70.6484 62.7578 70.6016C62.5703 70.5391 62.3359 70.4297 62.0547 70.2734L61.7031 69.8516C61.7812 69.7734 61.8672 69.7266 61.9609 69.7109L62.5234 69.6641C62.6484 69.6484 62.8672 69.6172 63.1797 69.5703L64.0938 69.4297C64.4219 69.3672 64.8828 69.2891 65.4766 69.1953L67.7266 68.8203C67.8516 68.8047 68.0547 68.7656 68.3359 68.7031C68.6328 68.625 68.8516 68.5703 68.9922 68.5391C69.1484 68.5078 69.2891 68.4766 69.4141 68.4453L69.6484 68.3984C69.8047 68.3984 69.9766 68.4297 70.1641 68.4922C70.3516 68.5547 70.5312 68.6328 70.7031 68.7266C70.875 68.8203 71.0234 68.9141 71.1484 69.0078L71.2656 69.4297C71.125 69.5703 70.8828 69.6484 70.5391 69.6641L69.7422 69.7109C69.6328 69.7109 69.2578 69.7422 68.6172 69.8047L67.3047 69.9453C67.1797 69.9609 66.8516 70.0078 66.3203 70.0859L65.8516 70.1562C65.9766 70.2344 66.0781 70.3047 66.1562 70.3672L66.4609 70.6016L66.6953 70.8359L66.7891 71.0469C66.7578 71.1406 66.6953 71.2266 66.6016 71.3047L66.3203 71.5859C66.2109 71.6797 65.9844 71.8984 65.6406 72.2422C65.2969 72.5859 65.0547 72.8359 64.9141 72.9922L64.6797 73.2266L64.3516 73.5547L67.0469 73.0859L67.75 72.9453C67.9844 72.8828 68.2031 72.8125 68.4062 72.7344L68.7812 72.6172C68.9219 72.6172 69.0938 72.6641 69.2969 72.7578L69.8125 73.0156C69.9688 73.1094 70.1172 73.2266 70.2578 73.3672L70.4922 73.625C70.4922 73.7344 70.4453 73.8906 70.3516 74.0938C70.2891 74.2188 70.2344 74.3828 70.1875 74.5859C70.1406 74.8047 70.1094 75.0391 70.0938 75.2891C70.0781 75.4609 70.0703 75.6641 70.0703 75.8984V76.2734L70.1172 80.0469L70.1641 81.4766C70.1641 81.6172 70.1406 81.7734 70.0938 81.9453C70.0469 82.1328 69.9766 82.3125 69.8828 82.4844C69.7891 82.6562 69.6953 82.7891 69.6016 82.8828L69.3438 83.0703C69.2188 83.0703 69.1016 82.9766 68.9922 82.7891L68.8047 82.2734L68.6172 81.8047L65.7578 82.0625L64.8672 82.1562L65.2891 82.3672C65.4141 82.4297 65.5391 82.5234 65.6641 82.6484L65.8047 82.9297L65.6875 83.1641L65.4062 83.375C65.2344 83.4844 64.9375 83.7734 64.5156 84.2422C64.0938 84.6953 63.6719 85.1094 63.25 85.4844C62.8281 85.8594 62.4453 86.1641 62.1016 86.3984C61.7422 86.6484 61.4609 86.8281 61.2578 86.9375L60.8828 87.1484L60.5312 87.1719C60.5156 87.0781 60.6016 86.9453 60.7891 86.7734L61.0234 86.5156C61.1797 86.375 61.3359 86.2031 61.4922 86C61.6797 85.8125 61.9844 85.4609 62.4062 84.9453C62.8438 84.4141 63.1484 83.9922 63.3203 83.6797C63.4922 83.3672 63.6172 83.1016 63.6953 82.8828C63.7578 82.6797 63.8047 82.5 63.8359 82.3438V82.1797ZM68.8047 75.8047C68.7734 75.4766 68.7578 75.2422 68.7578 75.1016V74.6562L68.7109 74.2109L68.6406 73.8359C68.5625 73.7578 68.3984 73.7266 68.1484 73.7422C67.8047 73.7578 67.5469 73.7734 67.375 73.7891L66.2031 73.9766L65.1016 74.1875L64.4453 74.3047L63.8359 74.3516L63.7656 76.2734L66.3203 75.7812L66.8125 75.6875L67.1172 75.6172L67.4219 75.5234C67.5781 75.5234 67.7734 75.5391 68.0078 75.5703L68.3828 75.6641L68.8047 75.8047ZM68.8047 76.2031C68.6797 76.25 68.5703 76.2891 68.4766 76.3203C68.3828 76.3516 68.2891 76.375 68.1953 76.3906L65.1953 76.8828L64.4688 76.9766C64.3281 76.9766 64.2109 76.9609 64.1172 76.9297L63.7422 76.8594L63.6953 78.8281L67.0234 78.1953C67.1484 78.1797 67.2891 78.1562 67.4453 78.125L67.7266 78.0781C67.8203 78.0938 67.9766 78.1172 68.1953 78.1484L68.5234 78.2188L68.8516 78.4297L68.8047 76.2031ZM68.8516 78.8281L68.5938 78.9219C68.4844 78.9375 68.3594 78.9609 68.2188 78.9922L65.2422 79.4375C64.8672 79.5 64.6094 79.5312 64.4688 79.5312L64.2109 79.5078L63.6484 79.3672L63.6016 81.3359L66.5547 81.0078C66.6797 81.0078 66.8594 80.9922 67.0938 80.9609C67.3281 80.9141 67.5078 80.8906 67.6328 80.8906C67.8828 80.9062 68.1016 80.9453 68.2891 81.0078L68.7578 81.2188L68.8047 80.6797C68.8359 80.5078 68.8516 80.3438 68.8516 80.1875C68.8672 80.0156 68.875 79.8438 68.875 79.6719L68.8516 78.8281ZM53.5469 74.0469C53.5312 73.5469 53.5156 73.1641 53.5 72.8984C53.4844 72.6172 53.4453 72.3906 53.3828 72.2188C53.3203 72.0469 53.2422 71.8984 53.1484 71.7734L52.9609 71.4219C52.9766 71.2969 53.0938 71.2109 53.3125 71.1641C53.4688 71.1484 53.6953 71.1797 53.9922 71.2578C54.3672 71.3516 54.6797 71.4688 54.9297 71.6094C55.1641 71.75 55.2578 71.9531 55.2109 72.2188C55.0859 72.4375 55.0078 72.6797 54.9766 72.9453C54.9453 73.2109 54.9141 73.4609 54.8828 73.6953C54.8828 73.9453 54.8594 74.6719 54.8125 75.875C54.7656 77.0781 54.6797 78.0703 54.5547 78.8516C54.4453 79.6172 54.2422 80.3438 53.9453 81.0312C53.6641 81.7188 53.3359 82.2969 52.9609 82.7656C52.5859 83.25 52.2266 83.6016 51.8828 83.8203L51.2266 84.2422L50.8281 84.2656C50.8125 84.1719 50.8359 84.0859 50.8984 84.0078L51.3672 83.5391C51.6797 83.1953 51.9844 82.7734 52.2812 82.2734C52.5781 81.7734 52.8203 81.2109 53.0078 80.5859C53.1953 79.9609 53.3359 79.2734 53.4297 78.5234C53.5234 77.7734 53.5703 77.0859 53.5703 76.4609C53.5703 75.8359 53.5625 75.0312 53.5469 74.0469ZM67.4922 83.4922L67.2578 83.2109L67.1406 83.0234L67.375 82.9062L67.8203 83.0234C68.0078 83.0859 68.2422 83.1953 68.5234 83.3516C68.8203 83.4922 69.1484 83.6719 69.5078 83.8906C69.8516 84.0938 70.1562 84.3125 70.4219 84.5469C70.6719 84.7656 70.8828 85.0234 71.0547 85.3203C71.2266 85.6172 71.3281 85.9453 71.3594 86.3047C71.3594 86.6016 71.3047 86.8359 71.1953 87.0078C71.0391 87.1953 70.875 87.2969 70.7031 87.3125C70.5156 87.3125 70.3125 87.1797 70.0938 86.9141C69.9375 86.7578 69.75 86.5234 69.5312 86.2109L68.7578 85.1094C68.4453 84.7188 68.2109 84.4141 68.0547 84.1953C67.8672 83.9766 67.6797 83.7422 67.4922 83.4922ZM60.7891 71.7969L60.6484 80.1406C60.6484 80.5625 60.6328 81.0234 60.6016 81.5234C60.5703 82.0234 60.5391 82.4297 60.5078 82.7422C60.4766 83.0547 60.4297 83.3984 60.3672 83.7734L60.2266 84.6172C60.1641 84.8047 60.1016 84.9453 60.0391 85.0391L59.7344 85.1094C59.6562 85 59.6016 84.8594 59.5703 84.6875L59.4766 84.0547C59.4453 83.8828 59.4297 83.6484 59.4297 83.3516C59.4141 83.0547 59.4062 82.6641 59.4062 82.1797V80.6562L59.5234 70.7891C59.5234 70.3672 59.5078 70.0391 59.4766 69.8047C59.4453 69.5859 59.3984 69.3906 59.3359 69.2188L59.1953 68.8672L59.2188 68.6797C59.2969 68.5859 59.4453 68.5391 59.6641 68.5391L60.0156 68.6328C60.2188 68.6953 60.3672 68.75 60.4609 68.7969C60.5703 68.8438 60.7266 68.9297 60.9297 69.0547L61.2109 69.3125C61.2266 69.4219 61.2109 69.5391 61.1641 69.6641C61.0547 69.8828 60.9766 70.0938 60.9297 70.2969C60.8984 70.5 60.8672 70.75 60.8359 71.0469C60.8047 71.3438 60.7891 71.5938 60.7891 71.7969ZM56.7109 77.8672L56.6641 74.1406C56.6484 74 56.6172 73.7891 56.5703 73.5078C56.5391 73.2266 56.5078 73.0391 56.4766 72.9453C56.4453 72.8203 56.375 72.6641 56.2656 72.4766L56.4531 72.2188C56.6719 72.2031 56.8984 72.2266 57.1328 72.2891C57.3672 72.3516 57.5469 72.4297 57.6719 72.5234L57.8125 72.9453C57.7812 73.0703 57.7578 73.1953 57.7422 73.3203L57.6953 73.6953C57.6797 73.8203 57.6719 74.0156 57.6719 74.2812L57.6484 78.1484V79.1328C57.6328 79.4141 57.6172 79.6797 57.6016 79.9297C57.5703 80.1797 57.5234 80.3906 57.4609 80.5625L57.2266 80.8438C57.1172 80.8438 57.0078 80.7812 56.8984 80.6562L56.7109 80.3281C56.6172 80.1562 56.5469 79.9531 56.5 79.7188C56.5 79.6094 56.5234 79.4688 56.5703 79.2969C56.6328 79.125 56.6719 78.9141 56.6875 78.6641C56.7031 78.4141 56.7109 78.1484 56.7109 77.8672Z" fill="#333333"/>
<path d="M51.5 24.5L28.5 47.5M51.5 24.5L62.5 35.5M51.5 24.5V22L55.5 18.5H58M28.5 47.5L34 49M28.5 47.5L27.2885 58M39 59.5L62.5 35.5M39 59.5L38 53M39 59.5L29.5 60.2917M62.5 35.5H65L68.5 31.5V29M58 18.5L68.5 29M58 18.5L62.5 14H65L73 22V24.5L68.5 29M51 32.5L48 35.5M34 49V52.5L38 53M34 49L46 37.5M38 53L51.5 39M27.2885 58L27 60.5L29.5 60.2917M27.2885 58L29.5 60.2917M59 23.5L56.5 26M62 27L60 29M64.5 30L62.5 32" stroke="#333333" stroke-width="2" stroke-linecap="round" stroke-linejoin="round"/>
</svg>
