<svg width="100" height="100" viewBox="0 0 100 100" fill="none" xmlns="http://www.w3.org/2000/svg">
<path d="M38.4707 77.4243C38.2363 77.4243 38.0254 77.3306 37.8379 77.1431C37.6035 76.9712 37.4863 76.8384 37.4863 76.7446C37.4863 76.6353 37.666 76.5806 38.0254 76.5806L39.1738 76.5103L40.3457 76.3931C40.377 76.1431 40.3926 75.6665 40.3926 74.9634C40.4395 74.9634 40.1973 74.9946 39.666 75.0571L39.2207 75.1274C39.0801 75.1899 38.9551 75.2212 38.8457 75.2212C38.752 75.2212 38.6738 75.1899 38.6113 75.1274C38.3613 74.9087 38.2363 74.7212 38.2363 74.5649V73.4634C38.2363 73.354 38.1973 72.9321 38.1191 72.1978L38.0957 71.9399C38.0957 71.8149 38.1191 71.7368 38.166 71.7056C38.2129 71.6743 38.2988 71.6743 38.4238 71.7056C38.8926 71.8306 39.1191 71.9712 39.1035 72.1274L39.0801 72.2915C39.0488 72.5103 39.0332 72.7915 39.0332 73.1353C39.0332 73.5415 39.041 73.7993 39.0566 73.9087C39.0879 74.2212 39.1035 74.3696 39.1035 74.354C39.1191 74.4165 39.1738 74.4478 39.2676 74.4478C39.3613 74.4478 39.5488 74.4243 39.8301 74.3774C40.127 74.3149 40.3223 74.2759 40.416 74.2603V72.1978C40.416 71.6196 40.3926 71.229 40.3457 71.0259C40.3145 70.8696 40.2988 70.7837 40.2988 70.7681C40.2988 70.6587 40.3379 70.604 40.416 70.604C40.4473 70.604 40.5566 70.6353 40.7441 70.6978C41.041 70.8384 41.2363 70.9634 41.3301 71.0728C41.4395 71.1821 41.4785 71.2993 41.4473 71.4243C41.4004 71.5806 41.3691 71.8931 41.3535 72.3618C41.3223 72.7368 41.291 73.3462 41.2598 74.1899L42.0566 74.1665C42.2129 74.1665 42.3301 74.1587 42.4082 74.1431C42.4863 74.1274 42.5254 74.0962 42.5254 74.0493C42.6348 73.4556 42.7051 72.9399 42.7363 72.5024L42.7598 72.2212C42.7754 72.1899 42.7754 72.1353 42.7598 72.0571C42.7598 71.979 42.7598 71.9243 42.7598 71.8931L42.7363 71.729C42.7363 71.5884 42.791 71.5181 42.9004 71.5181C42.9629 71.5181 43.0957 71.5806 43.2988 71.7056C43.3457 71.7368 43.4082 71.7837 43.4863 71.8462C43.5801 71.8931 43.6426 71.9478 43.6738 72.0103C43.7051 72.0571 43.7207 72.1196 43.7207 72.1978C43.7207 72.2915 43.7129 72.3696 43.6973 72.4321L43.4395 73.7446L43.3691 74.2837C43.3066 74.6431 43.1191 74.8384 42.8066 74.8696C42.7129 74.854 42.6348 74.8306 42.5723 74.7993C42.5254 74.7681 42.4863 74.7524 42.4551 74.7524C42.2676 74.7524 41.877 74.7915 41.2832 74.8696L41.2598 76.3228L41.6582 76.2993L42.0332 76.2759C42.6113 76.2759 43.041 76.2446 43.3223 76.1821C43.4473 76.1821 43.5566 76.1665 43.6504 76.1353L43.7207 76.1118C43.877 76.1118 44.041 76.2212 44.2129 76.4399C44.416 76.6431 44.5176 76.7915 44.5176 76.8853C44.5176 77.0259 44.2988 77.0728 43.8613 77.0259L42.9707 76.979H41.7988C41.5645 76.979 41.1348 77.0103 40.5098 77.0728C40.1816 77.0728 39.8848 77.0884 39.6191 77.1196C39.3535 77.1509 39.1035 77.2056 38.8691 77.2837L38.4707 77.4243ZM43.5566 84.9712C43.3223 84.9712 43.0957 84.7993 42.877 84.4556C42.5957 84.0181 42.3223 83.6587 42.0566 83.3774L41.4473 82.7446C41.1191 83.1196 40.8301 83.4165 40.5801 83.6353C40.3457 83.854 40.0488 84.0649 39.6895 84.2681C39.0176 84.6587 38.4551 84.854 38.002 84.854C37.8926 84.854 37.8379 84.8149 37.8379 84.7368C37.8379 84.6899 37.9863 84.5884 38.2832 84.4321C38.5801 84.2759 38.8613 84.0884 39.127 83.8696C39.7988 83.3071 40.3535 82.729 40.791 82.1353C40.6973 82.0415 40.2285 81.6353 39.3848 80.9165C39.2754 80.8384 39.1113 80.7056 38.8926 80.5181C38.8457 80.4868 38.752 80.4165 38.6113 80.3071C38.4707 80.1978 38.4004 80.1196 38.4004 80.0728C38.4004 79.9946 38.4395 79.9556 38.5176 79.9556C38.752 79.9556 39.127 80.1196 39.6426 80.4478C40.1582 80.7603 40.6973 81.1353 41.2598 81.5728C41.4785 81.3071 41.6504 81.0571 41.7754 80.8228C41.9004 80.5884 42.041 80.2993 42.1973 79.9556C42.2754 79.7837 42.3223 79.6353 42.3379 79.5103C42.3535 79.3696 42.3613 79.2837 42.3613 79.2524C42.3613 79.0806 42.4082 78.9946 42.502 78.9946C42.6113 78.9946 42.7598 79.0806 42.9473 79.2524C43.2754 79.5649 43.4395 79.7759 43.4395 79.8853C43.4395 79.9478 43.4004 80.0181 43.3223 80.0962C43.1348 80.2837 42.9629 80.5337 42.8066 80.8462C42.7129 81.0337 42.541 81.2993 42.291 81.6431C42.2129 81.7368 42.1504 81.8228 42.1035 81.9009C42.0566 81.979 42.0098 82.0493 41.9629 82.1118C42.3223 82.3774 42.8535 82.8306 43.5566 83.4712C43.7285 83.6274 43.8379 83.7759 43.8848 83.9165C43.9473 84.0415 43.9785 84.2134 43.9785 84.4321C43.9785 84.5884 43.9395 84.7212 43.8613 84.8306C43.7832 84.9243 43.6816 84.9712 43.5566 84.9712ZM45.3379 76.7212C45.416 76.7212 45.5332 76.7759 45.6895 76.8853C45.6738 76.9165 45.7051 76.979 45.7832 77.0728C45.8613 77.1509 45.916 77.2056 45.9473 77.2368C46.0254 77.3149 46.1035 77.4087 46.1816 77.5181C46.2754 77.6274 46.377 77.7446 46.4863 77.8696C46.7676 78.1665 47.416 78.9399 48.4316 80.1899C48.6035 80.4399 48.6895 80.5884 48.6895 80.6353C48.6895 80.7915 48.5957 80.8696 48.4082 80.8696C48.2988 80.8696 48.1816 80.7915 48.0566 80.6353C47.7598 80.3228 47.2285 79.8306 46.4629 79.1587C45.8691 78.6118 45.3301 78.1899 44.8457 77.8931C44.6113 77.7837 44.4941 77.6587 44.4941 77.5181C44.4941 77.4087 44.6113 77.2524 44.8457 77.0493C45.0645 76.8306 45.2285 76.7212 45.3379 76.7212ZM29.2832 71.729C29.1426 71.729 28.9863 71.6431 28.8145 71.4712C27.7363 70.3618 26.502 69.3384 25.1113 68.4009C24.9238 68.2603 24.8301 68.1274 24.8301 68.0024C24.8301 67.8618 24.916 67.6978 25.0879 67.5103C25.2754 67.3071 25.4316 67.2056 25.5566 67.2056C25.7285 67.2056 26.1973 67.4712 26.9629 68.0024C27.7285 68.5181 28.4473 69.0649 29.1191 69.6431C29.791 70.2212 30.127 70.604 30.127 70.7915C30.127 70.979 30.0332 71.1821 29.8457 71.4009C29.6582 71.6196 29.4707 71.729 29.2832 71.729ZM14.6348 74.5649C14.6348 74.4243 14.7051 74.2603 14.8457 74.0728C14.9863 73.8853 15.1191 73.7915 15.2441 73.7915C15.416 73.7915 15.8926 74.0571 16.6738 74.5884C17.4707 75.1196 18.2129 75.6509 18.9004 76.1821C19.1504 76.3696 19.2754 76.5415 19.2754 76.6978C19.2754 76.8384 19.1816 77.0337 18.9941 77.2837C18.8223 77.5337 18.6582 77.6587 18.502 77.6587C18.3926 77.6587 18.2285 77.5649 18.0098 77.3774C17.0723 76.5337 16.0566 75.7446 14.9629 75.0103C14.7441 74.8696 14.6348 74.7212 14.6348 74.5649ZM14.7754 86.3071C14.7754 86.229 14.8379 86.1509 14.9629 86.0728C15.291 85.854 15.5801 85.5806 15.8301 85.2524C17.3457 83.0806 18.6113 81.0415 19.627 79.1353C19.8926 78.6665 20.1113 78.4321 20.2832 78.4321C20.3926 78.4321 20.4473 78.5337 20.4473 78.7368C20.4473 78.8931 20.4004 79.1274 20.3066 79.4399C19.6973 81.2524 18.6582 83.4556 17.1895 86.0493C16.9551 86.4556 16.7754 86.729 16.6504 86.8696C16.541 87.0103 16.4004 87.0806 16.2285 87.0806H16.1582C15.8145 87.0337 15.4941 86.9165 15.1973 86.729C14.916 86.5571 14.7754 86.4165 14.7754 86.3071ZM16.4395 69.3618C16.4395 69.2056 16.5176 69.0415 16.6738 68.8696C16.8301 68.6978 16.9707 68.6118 17.0957 68.6118C17.252 68.6118 17.6426 68.854 18.2676 69.3384C18.8926 69.8228 19.4863 70.3306 20.0488 70.8618C20.627 71.3931 20.916 71.7212 20.916 71.8462C20.916 71.9868 20.8145 72.1743 20.6113 72.4087C20.4238 72.6431 20.2441 72.7603 20.0723 72.7603C19.9473 72.7603 19.791 72.6587 19.6035 72.4556C18.7129 71.5181 17.7598 70.6353 16.7441 69.8071C16.541 69.6509 16.4395 69.5024 16.4395 69.3618ZM20.0957 85.9556C20.0957 85.8618 20.1504 85.8149 20.2598 85.8149C20.3379 85.8149 20.4004 85.8228 20.4473 85.8384C20.7598 85.9165 21.1582 85.9556 21.6426 85.9556L27.0332 85.8149L27.0098 80.1899L24.4316 80.3306L23.7285 80.354C23.4316 80.354 23.2363 80.3149 23.1426 80.2368C22.627 79.7993 22.3691 79.4009 22.3691 79.0415C22.3691 78.9478 22.416 78.9009 22.5098 78.9009C22.5723 78.9009 22.627 78.9087 22.6738 78.9243C22.9395 78.9868 23.2598 79.0181 23.6348 79.0181H23.9395L27.0098 78.854L26.9863 73.9321L23.2363 74.1431C23.0645 74.1587 22.8379 74.1665 22.5566 74.1665C22.2441 74.1665 22.041 74.1274 21.9473 74.0493C21.7285 73.8774 21.541 73.6821 21.3848 73.4634C21.2441 73.229 21.1738 73.0103 21.1738 72.8071C21.1738 72.7134 21.2207 72.6665 21.3145 72.6665C21.377 72.6665 21.4316 72.6743 21.4785 72.6899C21.7441 72.7524 22.0645 72.7837 22.4395 72.7837H22.7441L31.7207 72.2915C32.0957 72.2603 32.4473 72.1899 32.7754 72.0806C32.8066 72.0649 32.8535 72.0571 32.916 72.0571C33.0098 72.0571 33.166 72.1274 33.3848 72.2681C33.6191 72.4087 33.8223 72.5728 33.9941 72.7603C34.1816 72.9321 34.2754 73.0884 34.2754 73.229C34.2754 73.4009 34.1035 73.5024 33.7598 73.5337L28.5098 73.8384L28.5332 78.7837L30.9707 78.6665C31.3301 78.6353 31.6816 78.5649 32.0254 78.4556C32.1191 78.4243 32.1816 78.4087 32.2129 78.4087C32.291 78.4087 32.4395 78.479 32.6582 78.6196C32.8926 78.7603 33.0957 78.9165 33.2676 79.0884C33.4551 79.2603 33.5488 79.4087 33.5488 79.5337C33.5488 79.7212 33.3691 79.8306 33.0098 79.8618L28.5332 80.0962L28.5566 85.7915L33.3379 85.6743C33.666 85.6743 34.0176 85.6196 34.3926 85.5103C34.4238 85.4946 34.4785 85.4868 34.5566 85.4868C34.6973 85.4868 34.8691 85.5649 35.0723 85.7212C35.291 85.8618 35.4785 86.0337 35.6348 86.2368C35.8066 86.4243 35.8926 86.5649 35.8926 86.6587C35.8926 86.8774 35.7207 87.0024 35.377 87.0337H35.3301L22.1348 87.3384L21.4316 87.3618C21.1348 87.3618 20.8848 87.2603 20.6816 87.0571C20.4785 86.8696 20.3301 86.6587 20.2363 86.4243C20.1426 86.1899 20.0957 86.0337 20.0957 85.9556Z" fill="#333333"/>
<path d="M74.5176 74.4243C74.3457 74.4243 74.1348 74.2915 73.8848 74.0259C73.6973 73.8384 73.6035 73.6978 73.6035 73.604C73.6035 73.5571 73.6348 73.5337 73.6973 73.5337C73.7598 73.5181 73.8379 73.5103 73.9316 73.5103L74.4473 73.4868C74.7441 73.4868 74.9395 73.479 75.0332 73.4634C75.3301 73.4634 75.5801 73.4556 75.7832 73.4399C77.127 73.3149 78.0332 73.2134 78.502 73.1353C78.7363 73.104 78.9473 73.0728 79.1348 73.0415C79.3223 72.9946 79.4707 72.9712 79.5801 72.9712C79.7988 72.9712 80.0176 73.0806 80.2363 73.2993C80.4082 73.4712 80.4941 73.6118 80.4941 73.7212C80.4941 73.8149 80.4395 73.8774 80.3301 73.9087C80.252 73.9243 79.791 73.9556 78.9473 74.0024C78.4785 74.0181 77.9004 74.0571 77.2129 74.1196C76.5254 74.1821 75.9238 74.2446 75.4082 74.3071C75.3145 74.3228 75.1816 74.3462 75.0098 74.3774C74.8379 74.4087 74.6738 74.4243 74.5176 74.4243ZM79.9785 81.2681C80.1504 81.4556 80.2363 81.6118 80.2363 81.7368C80.2363 81.8462 80.1738 81.9478 80.0488 82.0415C79.9707 82.104 79.7754 82.4478 79.4629 83.0728C79.1191 83.6353 78.7363 84.1274 78.3145 84.5493C77.9082 84.9556 77.502 85.2524 77.0957 85.4399C77.002 85.4712 76.9238 85.4868 76.8613 85.4868C76.7988 85.4868 76.7676 85.4712 76.7676 85.4399V85.3931C76.7676 85.2993 76.8457 85.1899 77.002 85.0649C77.2832 84.8462 77.4941 84.6274 77.6348 84.4087C77.791 84.1743 77.9082 84.0024 77.9863 83.8931C78.3145 83.4243 78.5488 83.0415 78.6895 82.7446C78.8457 82.479 78.9551 82.2056 79.0176 81.9243H78.9238C78.5176 81.9243 77.8613 81.9712 76.9551 82.0649C76.8145 82.0806 76.4082 82.1353 75.7363 82.229C75.5957 82.2446 75.377 82.2837 75.0801 82.3462L74.7988 82.4165C74.7363 82.4478 74.6738 82.4634 74.6113 82.4634C74.5332 82.4634 74.4551 82.4478 74.377 82.4165C74.2988 82.3696 74.2207 82.3149 74.1426 82.2524C73.9551 82.0962 73.8613 81.9634 73.8613 81.854C73.877 81.8228 73.8926 81.7759 73.9082 81.7134C73.9395 81.6509 73.9551 81.5962 73.9551 81.5493L74.0723 80.7759C74.0879 80.6978 74.1035 80.6118 74.1191 80.5181C74.1348 80.4243 74.1426 80.3306 74.1426 80.2368C74.1426 79.9399 74.1348 79.7056 74.1191 79.5337C74.1191 79.3462 74.0957 79.1509 74.0488 78.9478V78.8774C74.0488 78.7681 74.0957 78.7134 74.1895 78.7134C74.2832 78.7134 74.4473 78.7837 74.6816 78.9243C74.9941 79.1431 75.1504 79.3149 75.1504 79.4399C75.1504 79.4868 75.1426 79.5259 75.127 79.5571C75.1113 79.5884 75.0957 79.6196 75.0801 79.6509C75.0332 79.9321 75.0098 80.0884 75.0098 80.1196L74.8926 81.3618C74.8926 81.3931 74.9082 81.4321 74.9395 81.479C74.9863 81.5103 75.0332 81.5259 75.0801 81.5259C75.4551 81.5259 76.2988 81.4321 77.6113 81.2446C78.127 81.1978 78.4941 81.1431 78.7129 81.0806C78.8535 81.0649 78.9707 81.0415 79.0645 81.0103C79.1738 80.9634 79.2441 80.9399 79.2754 80.9399C79.3691 80.9087 79.4316 80.8931 79.4629 80.8931C79.6035 80.8931 79.7754 81.0181 79.9785 81.2681ZM57.4551 87.854V87.9478C57.4551 88.2915 57.3379 88.4634 57.1035 88.4634C56.8535 88.4634 56.5723 88.354 56.2598 88.1353C55.9629 87.9321 55.8145 87.7212 55.8145 87.5024V87.4087C55.8301 87.3149 55.8457 87.1821 55.8613 87.0103C55.877 86.8384 55.8848 86.6821 55.8848 86.5415C55.8848 86.354 55.877 86.2056 55.8613 86.0962L55.3457 80.2837C55.2832 79.7056 55.1895 79.3071 55.0645 79.0884C54.9863 78.9321 54.9473 78.8228 54.9473 78.7603C54.9473 78.6353 55.0332 78.5728 55.2051 78.5728C55.4863 78.5728 56.0332 78.7368 56.8457 79.0649L65.916 78.6431H66.0801C66.3926 78.6431 66.666 78.729 66.9004 78.9009C67.1504 79.0571 67.2754 79.2603 67.2754 79.5103C67.2754 79.5884 67.252 79.6821 67.2051 79.7915C67.1582 79.9009 67.127 79.9868 67.1113 80.0493L66.5723 85.7212C66.9629 86.2368 67.1582 86.5884 67.1582 86.7759C67.1582 86.8853 67.1035 86.9556 66.9941 86.9868C66.9004 87.0181 66.752 87.0337 66.5488 87.0337L57.4082 87.1978L57.4551 87.854ZM50.3066 76.0649C50.3066 75.9556 50.3535 75.9009 50.4473 75.9009C50.5098 75.9009 50.5645 75.9087 50.6113 75.9243C50.8613 76.0024 51.2051 76.0415 51.6426 76.0415H51.9473L58.4629 75.7134C58.3535 75.6509 58.2285 75.4868 58.0879 75.2212C57.6348 74.3931 57.1113 73.6196 56.5176 72.9009C56.3613 72.729 56.2832 72.5884 56.2832 72.479C56.2832 72.3228 56.4629 72.1274 56.8223 71.8931L55.0879 71.9868C54.916 72.0024 54.6973 72.0103 54.4316 72.0103H54.1973C53.8379 71.9634 53.541 71.8149 53.3066 71.5649C53.0879 71.3149 52.9785 71.0493 52.9785 70.7681C52.9785 70.6587 53.0254 70.604 53.1191 70.604C53.1816 70.604 53.2363 70.6118 53.2832 70.6274C53.5645 70.7056 53.9082 70.7446 54.3145 70.7446H54.6191L61.3457 70.3696C60.1738 69.4634 59.3301 68.8306 58.8145 68.4712C58.7051 68.3931 58.627 68.3228 58.5801 68.2603C58.5332 68.1978 58.5098 68.1274 58.5098 68.0493C58.5098 67.9087 58.5723 67.7524 58.6973 67.5806C58.8379 67.3931 58.9629 67.2837 59.0723 67.2524C59.1035 67.2368 59.1504 67.229 59.2129 67.229C59.3223 67.229 59.4473 67.2759 59.5879 67.3696L60.0098 67.6274C60.8848 68.1743 61.5879 68.6274 62.1191 68.9868C62.6504 69.3462 62.9395 69.6196 62.9863 69.8071L63.0098 69.9243C63.0098 70.0181 62.9629 70.1431 62.8691 70.2993L66.5488 70.0884C66.9082 70.0571 67.2598 69.9868 67.6035 69.8774C67.6348 69.8618 67.6895 69.854 67.7676 69.854C67.9551 69.854 68.2207 70.0024 68.5645 70.2993C68.9082 70.5806 69.0801 70.8149 69.0801 71.0024C69.0801 71.1587 68.8848 71.2524 68.4941 71.2837L64.5098 71.4946C64.7129 71.6196 64.9395 71.8228 65.1895 72.104C65.4551 72.3853 65.5879 72.6274 65.5879 72.8306C65.5879 72.9399 65.541 73.0571 65.4473 73.1821C64.7754 74.0415 64.0879 74.8071 63.3848 75.479L69.5254 75.1743C69.8848 75.1431 70.2363 75.0728 70.5801 74.9634C70.6113 74.9478 70.666 74.9399 70.7441 74.9399C70.916 74.9399 71.1738 75.0884 71.5176 75.3853C71.877 75.6821 72.0566 75.9321 72.0566 76.1353C72.0566 76.3228 71.8613 76.4321 71.4707 76.4634L52.416 77.3774L51.5957 77.4009C51.3301 77.4009 51.1504 77.3618 51.0566 77.2837C50.7754 77.0493 50.5801 76.8149 50.4707 76.5806C50.3613 76.3462 50.3066 76.1743 50.3066 76.0649ZM57.0332 82.4165L65.3535 82.1118L65.4941 79.979L56.8691 80.354L57.0332 82.4165ZM57.291 85.8853L65.0957 85.7212L65.2598 83.354L57.127 83.6587L57.291 85.8853ZM57.2441 71.8696C57.3066 71.9009 57.541 72.1431 57.9473 72.5962C58.3535 73.0493 58.7285 73.5103 59.0723 73.979C59.416 74.4321 59.5879 74.7524 59.5879 74.9399C59.5879 75.1274 59.4473 75.3306 59.166 75.5493L59.0488 75.6431L58.9316 75.6899L61.9082 75.5493C62.4238 74.8931 62.8691 74.2446 63.2441 73.604C63.6191 72.9478 63.8535 72.3931 63.9473 71.9399L63.9707 71.6821L63.9941 71.5181L57.2441 71.8696Z" fill="#333333"/>
<path d="M19.5 31.5L17 40L30.5 35C30.8333 39.5 30 49.1429 28 50C27 50.4286 24.5 48.5 24 47.5M43 29L41 36.5L54 30C53.5 35.3333 50.6 45.5 43 47.5M45 40L56.5 45M66.5 42L63.5 29L77 25L80 39" stroke="#333333" stroke-width="2" stroke-linecap="round" stroke-linejoin="round"/>
</svg>
