<svg xmlns="http://www.w3.org/2000/svg" viewBox="0 0 1068.48 951.17"><defs><style>.cls-1{fill:#fa770c;}.cls-1,.cls-2,.cls-3{stroke:#3d1c07;stroke-width:20px;}.cls-1,.cls-10,.cls-11,.cls-12,.cls-14,.cls-2,.cls-3,.cls-7,.cls-8{stroke-linecap:round;stroke-linejoin:round;}.cls-2{fill:#f7cb0f;}.cls-3,.cls-9{fill:#f8de76;}.cls-4{fill:#3d1c07;}.cls-5{fill:#be090e;}.cls-12,.cls-6{fill:#fbbde8;}.cls-10,.cls-7{fill:#f568cc;}.cls-10,.cls-11,.cls-12,.cls-14,.cls-7{stroke:#570751;}.cls-11,.cls-7,.cls-8{stroke-width:12px;}.cls-11,.cls-8{fill:none;}.cls-8{stroke:#be090e;}.cls-10,.cls-14{stroke-width:16px;}.cls-12{stroke-width:18px;}.cls-13{fill:#570751;}.cls-14{fill:#fabfe9;}</style></defs><g id="太陽"><path class="cls-1" d="M489.35,298.16C484,293.39,445.08,90,452.86,79.73s140.6-12.65,153.73,3.41-4.37,204.32-10.21,207.72S498.11,306,489.35,298.16Z" transform="translate(-5.51 -61.58)"/><path class="cls-2" d="M645.51,286.49C641,275.69,669.34,124.41,683,118.16c12.86-5.89,89,35,89.52,49.62S715.35,301.57,707.08,305,646.8,289.55,645.51,286.49Z" transform="translate(-5.51 -61.58)"/><path class="cls-1" d="M763.14,310.1c-9.35-8.49,70.64-198.75,83.29-203.61,10-3.86,91,70.54,95.84,83.19,4.25,11-100.22,154.21-116.27,154.21S768.5,315,763.14,310.1Z" transform="translate(-5.51 -61.58)"/><path class="cls-2" d="M865.89,387.68c6.18-7.08,130.87-96.82,144.49-97.3S1062,341,1059,351.19,900.92,455.3,895.08,451.89,862.53,391.53,865.89,387.68Z" transform="translate(-5.51 -61.58)"/><path class="cls-1" d="M908.7,490.81c10-2.3,149.35,12.65,154.71,22.38s-27.73,125-36.49,129.4S900.43,581.3,898,576.43,904.22,491.84,908.7,490.81Z" transform="translate(-5.51 -61.58)"/><path class="cls-1" d="M754.49,805.08c1.72,9.2,86.92,161.84,101.19,160.06,15.56-1.95,144.48-137.68,142.54-155.68s-139.63-99.24-150.81-95.84S753.54,800.05,754.49,805.08Z" transform="translate(-5.51 -61.58)"/><path class="cls-2" d="M602.7,825c-7.39,3.7-37.46,153.24-29.19,163.94s120.17-3.89,125-16.54S674.22,828.92,667.41,825,610.49,821.14,602.7,825Z" transform="translate(-5.51 -61.58)"/><path class="cls-1" d="M418.81,793.41c-6,2-75.4,128.43-73,139.62s134.89,77.68,146.08,68.92S524.38,830.38,519,823.08,427.57,790.49,418.81,793.41Z" transform="translate(-5.51 -61.58)"/><path class="cls-2" d="M302.54,715.57c-8,0-106,103.62-105.08,119.19s70,60.32,80.27,60.81S340.49,766.16,339,759.84,307.89,715.57,302.54,715.57Z" transform="translate(-5.51 -61.58)"/><path class="cls-1" d="M277.24,598.81c-5.57-11.14-245.67,28.7-258.32,41.35S31.57,783.68,50.05,790s240.81-86.15,247.14-95.69S280.16,604.65,277.24,598.81Z" transform="translate(-5.51 -61.58)"/><path class="cls-2" d="M273.66,507.35c-.48-8.27-119-74.53-129.23-71.61s-43.29,81.83-40.38,92.53,158.11,37,166.38,30.16S273.66,507.35,273.66,507.35Z" transform="translate(-5.51 -61.58)"/><path class="cls-1" d="M336.59,379.89C339,370.45,210.59,232,199.41,232S123,303,124.49,314.7,294.76,435.84,305.46,432,335.14,385.73,336.59,379.89Z" transform="translate(-5.51 -61.58)"/><path class="cls-2" d="M438.76,321c3.6-6.22-30.17-149.35-37.95-154.71s-93.4,26.27-95.35,32.11S365,340,375.86,343.41,433.41,330.27,438.76,321Z" transform="translate(-5.51 -61.58)"/><path class="cls-3" d="M552.76,264C842.2,248.32,952,395.49,920.29,588.29,877.44,849.33,656,865.65,580.72,860.46S235.88,853.23,235.88,575.3C235.88,332.45,463.15,268.81,552.76,264Z" transform="translate(-5.51 -61.58)"/><path class="cls-4" d="M438,389.72c.09,8.11-5.72,14.76-13,14.83-5.58.06-10.89-5.11-11-10.7-.13-7,8-15.75,14.69-15.81C434.56,378,437.93,382.22,438,389.72Z" transform="translate(-5.51 -61.58)"/><path class="cls-4" d="M603,349.27c-.12,7.4-6,14-12.34,13.78-5.23-.18-12-6.33-12-10.93,0-7,6.93-14.3,13.48-14.23C598,338,603.08,343.29,603,349.27Z" transform="translate(-5.51 -61.58)"/><path id="_路徑_" data-name="&lt;路徑&gt;" class="cls-5" d="M346.69,495c-13.53,0-23.82-12.41-18.27-21,3.54-5.49,9-10.23,14.52-13.84,10.28-6.68,25.05,1.22,30,8.38,5.25,7.62,1.81,18.88-7.44,22.16C359,493,352,495,346.69,495Z" transform="translate(-5.51 -61.58)"/><path id="_路徑_2" data-name="&lt;路徑&gt;" class="cls-5" d="M685.25,387.6c-8.57,0-15.55-5.41-17-12.47-1.69-8,2.44-16.55,10.47-19.37,8.61-3,17.39-2.83,25.12,3,6.87,5.15,7.62,13,2.1,19.53C700.22,385,692.7,387.43,685.25,387.6Z" transform="translate(-5.51 -61.58)"/><path class="cls-6" d="M363.51,473.51c1.71-.06,3.64,1.62,3.53,3.22-.25,3.58-4.89,9.32-8.51,8.91-1.59-.18-4.06-2.13-4.23-3.5C353.85,478.36,358.1,473.5,363.51,473.51Z" transform="translate(-5.51 -61.58)"/><path class="cls-6" d="M702.35,370.24c0,1.79-5.19,5.68-7,5.68-1.47,0-3.25-2.73-3.39-4-.23-2,4.39-5.36,5.69-5.54A4.07,4.07,0,0,1,702.35,370.24Z" transform="translate(-5.51 -61.58)"/><path class="cls-5" d="M526.93,490.18c-8.88,0-24.65-5.62-36-14.33-8-6.13-6.46-14.39,2.54-19,19.26-10,40.64-14.89,61-19.53,13.55-2.54,18.29.82,15.62,15.52C566.13,474.7,549.4,490.16,526.93,490.18Z" transform="translate(-5.51 -61.58)"/></g><g id="大象"><path class="cls-7" d="M763.73,858.44c-9.25,5.67-24,103-19.15,108.8s23.35,8.06,29.19,2.34c2.43-8.05,8.28-108.4,3.49-108.4C769.92,861.18,769.78,854.73,763.73,858.44Z" transform="translate(-5.51 -61.58)"/><path class="cls-7" d="M798.76,867.44c-4.42,2.33-8.83,93.82-8,100.15,3.15,5.48,20.67,7.92,28,3.42,3.62-11.14.09-94.93-6.78-101.53C809.08,866.74,805.58,863.86,798.76,867.44Z" transform="translate(-5.51 -61.58)"/><path class="cls-7" d="M872.7,873.68c-4.66,5.24-5.22,88.19-3.49,95.91,2,5.76,25.71,3.82,27.65-2,1.25-8.27-2.16-91.9-10.92-99.52C879.75,864.11,877.89,867.84,872.7,873.68Z" transform="translate(-5.51 -61.58)"/><path class="cls-7" d="M908.65,862.49c-4.41,19.35,3.06,88.91,5.91,105.1,2.31,6.65,16.92,4.62,22.54.95,2.64-7.72-7.35-103.41-11.54-107.36C917.7,853.9,915.83,857.79,908.65,862.49Z" transform="translate(-5.51 -61.58)"/><path class="cls-8" d="M667.18,802.66c-6.41-9,22.38-172,27.92-178.23" transform="translate(-5.51 -61.58)"/><path class="cls-5" d="M710.39,552.11c5.49-.65,17.83-11,37,1,9.58,6.7,19.63,20.27,10.46,41.27a55.83,55.83,0,0,1-22.49,25.17C714,632.44,691.57,639,686.62,639.68c-6.19-18.49-32.35-45.41-34.83-62.11-2.22-14.11,1-37.57,25.62-40.23C702.19,535.57,710.39,552.11,710.39,552.11Z" transform="translate(-5.51 -61.58)"/><path class="cls-9" d="M745.3,591.68c4.4,2.75-1.57,10.44-10.2,17-7.37,5.61-16.13,9.66-18.8,5.93-3-4.21,5.65-4.18,15.65-12.24C740.3,595.65,742.39,589.86,745.3,591.68Z" transform="translate(-5.51 -61.58)"/><path class="cls-9" d="M712.38,617.26c1.55,2.49-.14,4-1,4.73s-4,.42-4.9-.69-1.17-4,.66-5.17S710.83,614.77,712.38,617.26Z" transform="translate(-5.51 -61.58)"/><path class="cls-10" d="M745.76,717.59c-8.31,1.18-60.09,28.17-78.35,19.38-16.2-7.8-22.38-25.29-13.63-35s22.78,8,33.53,7.39,22-7,22.91-26.37-12.89-29.67-30.77-32.11-48.47,7.79-59.23,26.61c-11,19.29-6.82,55.42,7.78,73.57,21.57,26.8,77.77,35.23,117.57,14.43C748.49,736.21,749.17,719.74,745.76,717.59Z" transform="translate(-5.51 -61.58)"/><line class="cls-11" x1="632.71" y1="647.76" x2="644.06" y2="647.76"/><line class="cls-11" x1="638.38" y1="670.56" x2="650.28" y2="664.64"/><line class="cls-11" x1="668.89" y1="689.46" x2="668.89" y2="678.64"/><line class="cls-11" x1="694.98" y1="689.46" x2="689.59" y2="677.13"/><path class="cls-12" d="M750.63,642.8c22.83-54.36,149.32-60,174.41-12.21,11.73,27.79,29.82,188.76,6.54,236.57-24.62,32-172.25,25.35-186.56,1.49C723.24,832.32,734.5,678.48,750.63,642.8Z" transform="translate(-5.51 -61.58)"/><path class="cls-13" d="M769.4,666c3.13,0,10.58,2.28,10.66,10.76.05,5.52-5.86,9.63-11.43,9.38s-10.09-4.36-9.89-10.07C759,670.11,762.5,666,769.4,666Z" transform="translate(-5.51 -61.58)"/><path class="cls-10" d="M807.34,668.73c6.81-4.42,56.7-2.73,56.61,43.92-.09,43.58-52.61,40.38-58.42,36S801,672.86,807.34,668.73Z" transform="translate(-5.51 -61.58)"/><path class="cls-14" d="M966.9,638.29s-10.2,17-30.13,20.09" transform="translate(-5.51 -61.58)"/><path class="cls-10" d="M973.62,568.79c10-1.46,24.81,16.4,24.81,30.75,0,13.56-16,37.22-26.75,38.68S951.24,613.16,953,603.43,964,570.19,973.62,568.79Z" transform="translate(-5.51 -61.58)"/></g></svg>