<svg width="360" height="36" viewBox="0 0 360 36" fill="none" xmlns="http://www.w3.org/2000/svg">
<path d="M83.2461 12.8633C83.0352 12.8633 82.8711 12.8164 82.7539 12.7227C82.7539 12.7227 82.6953 12.6641 82.5781 12.5469C82.4844 12.3594 82.2031 11.8438 81.7344 11C81.2891 10.1562 80.9609 9.58203 80.75 9.27734C80.3047 8.62109 80.082 8.19922 80.082 8.01172C80.082 7.75391 80.2344 7.37891 80.5391 6.88672C81.0078 6.23047 81.3242 5.70312 81.4883 5.30469C81.793 4.74219 82.0156 4.30859 82.1562 4.00391C82.2969 3.67578 82.3555 3.41797 82.332 3.23047C82.3086 3.11328 82.2969 2.98438 82.2969 2.84375C82.2969 2.75 82.3203 2.70312 82.3672 2.70312C82.4141 2.67969 82.5078 2.69141 82.6484 2.73828C82.8828 2.80859 83.1523 2.97266 83.457 3.23047C83.5273 3.30078 83.6094 3.39453 83.7031 3.51172C83.7969 3.62891 83.8555 3.73438 83.8789 3.82812C83.9258 3.89844 83.9375 3.98047 83.9141 4.07422C83.9141 4.14453 83.8789 4.21484 83.8086 4.28516L83.6328 4.42578C83.4688 4.63672 83.2812 4.89453 83.0703 5.19922C82.8594 5.50391 82.6602 5.78516 82.4727 6.04297L81.5938 7.30859C81.3594 7.63672 81.2422 7.87109 81.2422 8.01172C81.2422 8.08203 81.3477 8.26953 81.5586 8.57422L82.2969 9.38281C83 10.1562 83.3281 10.5195 83.2812 10.4727C83.7266 10.918 83.9492 11.3516 83.9492 11.7734C83.9492 12.5 83.7148 12.8633 83.2461 12.8633ZM87.8867 12.7578C87.6758 12.7578 87.5 12.7227 87.3594 12.6523C87.1016 12.3945 86.9141 12.0898 86.7969 11.7383L86.0586 10.4375L85.3555 9.20703C84.9102 8.59766 84.6875 8.1875 84.6875 7.97656C84.6875 7.69531 84.8398 7.33203 85.1445 6.88672L85.707 6.07812C85.9414 5.67969 86.0703 5.44531 86.0938 5.375C86.3281 4.90625 86.5273 4.49609 86.6914 4.14453C86.8789 3.76953 86.9609 3.48828 86.9375 3.30078C86.9141 3.20703 86.9023 3.08984 86.9023 2.94922C86.9023 2.76172 87.0078 2.71484 87.2188 2.80859C87.5234 2.92578 87.8516 3.11328 88.2031 3.37109C88.3672 3.53516 88.4727 3.67578 88.5195 3.79297C88.5898 3.88672 88.625 4.01562 88.625 4.17969C88.625 4.22656 88.543 4.32031 88.3789 4.46094C88.2148 4.57812 88.0742 4.70703 87.957 4.84766C87.8164 4.98828 87.5 5.43359 87.0078 6.18359C86.9141 6.32422 86.7969 6.48828 86.6562 6.67578C86.5391 6.83984 86.3867 7.0625 86.1992 7.34375C85.9648 7.64844 85.8477 7.87109 85.8477 8.01172C85.8477 8.15234 85.9883 8.36328 86.2695 8.64453C86.3633 8.73828 86.457 8.85547 86.5508 8.99609C86.668 9.11328 86.8086 9.25391 86.9727 9.41797L87.8867 10.4375C88.332 10.8359 88.5547 11.2227 88.5547 11.5977C88.5547 12.3711 88.332 12.7578 87.8867 12.7578ZM88.3438 22.3555C87.9922 22.3555 87.6523 22.0977 87.3242 21.582C86.9023 20.9258 86.4922 20.3867 86.0938 19.9648L85.1797 19.0156C84.6875 19.5781 84.2539 20.0234 83.8789 20.3516C83.5273 20.6797 83.082 20.9961 82.543 21.3008C81.5352 21.8867 80.6914 22.1797 80.0117 22.1797C79.8477 22.1797 79.7656 22.1211 79.7656 22.0039C79.7656 21.9336 79.9883 21.7812 80.4336 21.5469C80.8789 21.3125 81.3008 21.0312 81.6992 20.7031C82.707 19.8594 83.5391 18.9922 84.1953 18.1016C84.0547 17.9609 83.3516 17.3516 82.0859 16.2734C81.9219 16.1562 81.6758 15.957 81.3477 15.6758C81.2773 15.6289 81.1367 15.5234 80.9258 15.3594C80.7148 15.1953 80.6094 15.0781 80.6094 15.0078C80.6094 14.8906 80.668 14.832 80.7852 14.832C81.1367 14.832 81.6992 15.0781 82.4727 15.5703C83.2461 16.0391 84.0547 16.6016 84.8984 17.2578C85.2266 16.8594 85.4844 16.4844 85.6719 16.1328C85.8594 15.7812 86.0703 15.3477 86.3047 14.832C86.4219 14.5742 86.4922 14.3516 86.5156 14.1641C86.5391 13.9531 86.5508 13.8242 86.5508 13.7773C86.5508 13.5195 86.6211 13.3906 86.7617 13.3906C86.9258 13.3906 87.1484 13.5195 87.4297 13.7773C87.9219 14.2461 88.168 14.5625 88.168 14.7266C88.168 14.8203 88.1094 14.9258 87.9922 15.043C87.7109 15.3242 87.4531 15.6992 87.2188 16.168C87.0781 16.4492 86.8203 16.8477 86.4453 17.3633C86.3281 17.5039 86.2344 17.6328 86.1641 17.75C86.0938 17.8672 86.0234 17.9727 85.9531 18.0664C86.4922 18.4648 87.2891 19.1445 88.3438 20.1055C88.6016 20.3398 88.7656 20.5625 88.8359 20.7734C88.9297 20.9609 88.9766 21.2188 88.9766 21.5469C88.9766 21.7812 88.918 21.9805 88.8008 22.1445C88.6836 22.2852 88.5312 22.3555 88.3438 22.3555ZM84.8984 33.1836C83.75 33.1836 82.8242 32.8906 82.1211 32.3047C81.3711 31.6484 80.9961 30.8867 80.9961 30.0195C80.9961 29.2695 81.2656 28.6602 81.8047 28.1914C82.0391 27.9805 82.3555 27.8047 82.7539 27.6641C83.1523 27.5 83.5273 27.418 83.8789 27.418C84.1133 27.418 84.2422 27.4062 84.2656 27.3828C84.3125 27.3359 84.3477 27.2188 84.3711 27.0312C84.3945 26.8672 84.4062 26.5273 84.4062 26.0117C84.3828 25.918 84.3711 25.7539 84.3711 25.5195C82.918 25.6602 81.8398 25.8008 81.1367 25.9414C80.9727 25.9648 80.7734 25.9297 80.5391 25.8359C80.3281 25.7188 80.1523 25.5781 80.0117 25.4141C79.8711 25.25 79.8242 25.1328 79.8711 25.0625C79.9648 24.9688 80.0586 24.9102 80.1523 24.8867C80.2461 24.8398 80.3984 24.8164 80.6094 24.8164C81.3359 24.8164 81.8633 24.793 82.1914 24.7461L87.1133 24.2539C87.1836 24.2539 87.3477 24.2422 87.6055 24.2188C87.8867 24.1953 88.1445 24.1484 88.3789 24.0781H88.4844C88.5781 24.0781 88.6602 24.1133 88.7305 24.1836C88.8242 24.2305 88.8828 24.2539 88.9062 24.2539C89.2578 24.5352 89.4336 24.7812 89.4336 24.9922C89.4336 25.1562 89.293 25.2383 89.0117 25.2383L88.5898 25.2031C88.4727 25.1797 87.8867 25.2031 86.832 25.2734L85.7773 25.3438C85.8008 25.625 85.8008 25.9766 85.7773 26.3984C85.7539 26.7969 85.7305 27.1367 85.707 27.418L85.7422 27.8047C85.7422 27.9453 85.6953 28.0742 85.6016 28.1914C85.4609 28.4258 85.2266 28.543 84.8984 28.543C84.7109 28.543 84.5469 28.5312 84.4062 28.5078L84.0547 28.4375C83.6797 28.4141 83.2812 28.5664 82.8594 28.8945C82.5078 29.2461 82.332 29.6211 82.332 30.0195C82.332 30.5586 82.5547 31.0156 83 31.3906C83.2578 31.6016 83.5273 31.7422 83.8086 31.8125C84.1133 31.9062 84.4766 31.9531 84.8984 31.9531C85.4609 31.9531 85.9883 31.8594 86.4805 31.6719C86.9727 31.4844 87.3359 31.2031 87.5703 30.8281C87.6641 30.6641 87.7461 30.5703 87.8164 30.5469C87.8867 30.5 88.0156 30.4766 88.2031 30.4766C88.3906 30.4766 88.543 30.5352 88.6602 30.6523C88.8008 30.793 88.8711 30.9336 88.8711 31.0742C88.8711 31.4961 88.4844 31.9531 87.7109 32.4453C86.9375 32.9375 86 33.1836 84.8984 33.1836ZM95.5156 17.3633C95.7969 17.3633 95.9375 17.4922 95.9375 17.75C95.9375 17.8906 95.8086 18.0898 95.5508 18.3477C94.8477 19.2148 93.4531 20.8672 91.3672 23.3047C91.2031 23.5156 91.0508 23.6211 90.9102 23.6211C90.793 23.6211 90.5352 23.4453 90.1367 23.0938C89.8086 22.8125 89.6445 22.5781 89.6445 22.3906C89.6445 22.1797 89.8203 21.9805 90.1719 21.793C90.7109 21.4883 91.5195 20.8789 92.5977 19.9648C93.6758 19.0039 94.4727 18.2422 94.9883 17.6797C95.1992 17.4688 95.375 17.3633 95.5156 17.3633ZM49.918 33.4297C49.918 34.0391 49.7422 34.3438 49.3906 34.3438C49.0156 34.3438 48.5938 34.1914 48.125 33.8867C47.6797 33.6055 47.457 33.207 47.457 32.6914C47.457 32.5273 47.4688 32.3984 47.4922 32.3047C47.6328 31.6484 47.7031 30.8867 47.7031 30.0195L47.668 6.74609C47.668 6.04297 47.5156 5.39844 47.2109 4.8125C47.0703 4.48438 47 4.28516 47 4.21484C47 4.05078 47.1289 3.96875 47.3867 3.96875C47.7852 3.96875 48.6523 4.20312 49.9883 4.67188L71.9258 3.37109H72.3125C72.7109 3.37109 73.0977 3.5 73.4727 3.75781C73.8711 4.01562 74.0703 4.32031 74.0703 4.67188C74.0703 4.76562 74.0352 4.89453 73.9648 5.05859C73.8945 5.19922 73.8594 5.30469 73.8594 5.375L73.7539 29.4922C74.5039 30.3359 74.8789 30.8984 74.8789 31.1797C74.8789 31.3203 74.7969 31.4023 74.6328 31.4258C74.4922 31.4727 74.3164 31.4961 74.1055 31.4961C73.918 31.5195 73.7773 31.5312 73.6836 31.5312L49.918 32.0586V33.4297ZM49.918 30.1953L71.5742 29.5977L71.6445 5.30469L49.8477 6.5L49.918 30.1953ZM50.9023 24.6406C50.9023 24.4766 50.9844 24.3945 51.1484 24.3945H51.2891C51.6172 24.4648 51.9219 24.5 52.2031 24.5C52.6953 24.5 53.75 24.2656 55.3672 23.7969C57.0078 23.3281 58.4844 22.8359 59.7969 22.3203C60.1484 22.2031 60.3945 22.1445 60.5352 22.1445C60.793 22.1445 60.9219 22.2148 60.9219 22.3555C60.9219 22.6367 60.3242 23.1172 59.1289 23.7969C57.9336 24.4766 56.6328 25.1211 55.2266 25.7305C53.8203 26.3164 52.9414 26.6094 52.5898 26.6094C52.332 26.6094 52.0742 26.4805 51.8164 26.2227C51.5586 25.9414 51.3359 25.6367 51.1484 25.3086C50.9844 24.9805 50.9023 24.7578 50.9023 24.6406ZM50.9023 12.0547C50.9023 11.9609 50.9609 11.9141 51.0781 11.9141L51.3594 11.9844C51.7578 12.1016 52.1797 12.1602 52.625 12.1602H52.9062L60.1484 11.7734C59.9141 10.5781 59.7383 9.57031 59.6211 8.75C59.5742 8.23438 59.3398 7.75391 58.918 7.30859C58.7773 7.16797 58.707 7.0625 58.707 6.99219C58.707 6.82812 58.9062 6.74609 59.3047 6.74609C60.5469 6.74609 61.25 7.05078 61.4141 7.66016L61.4492 7.87109C61.4961 8.29297 61.543 8.60938 61.5898 8.82031C61.6367 9.14844 61.6953 9.60547 61.7656 10.1914C61.8594 10.7773 61.9414 11.2695 62.0117 11.668L66.6172 11.3516C66.8516 11.3516 67.0859 11.3398 67.3203 11.3164C67.5547 11.2695 67.7891 11.1875 68.0234 11.0703C68.0938 11.0234 68.1992 11 68.3398 11C68.5977 11 68.9258 11.1992 69.3242 11.5977C69.7461 11.9727 69.957 12.2539 69.957 12.4414C69.957 12.6758 69.6992 12.8164 69.1836 12.8633L62.3633 13.3203C62.9727 16.25 63.6406 18.5469 64.3672 20.2109C64.8359 19.3672 65.2695 18.4883 65.668 17.5742C66.0898 16.6602 66.3008 16.0273 66.3008 15.6758C66.3008 15.5117 66.2891 15.3945 66.2656 15.3242V15.1133C66.2656 14.8789 66.3477 14.7617 66.5117 14.7617C66.7461 14.7617 67.1094 14.9727 67.6016 15.3945C68.0938 15.793 68.3398 16.1211 68.3398 16.3789C68.3398 16.4961 68.2109 16.8594 67.9531 17.4688C67.7188 18.0547 67.3672 18.7695 66.8984 19.6133C66.4297 20.4336 65.8906 21.2656 65.2812 22.1094C66.2891 24.1016 67.3086 25.4258 68.3398 26.082C68.4336 26.1289 68.5039 26.1523 68.5508 26.1523C68.6914 26.1523 68.7617 26.1055 68.7617 26.0117C69.1836 24.6055 69.4766 23.3047 69.6406 22.1094C69.6875 21.7109 69.7695 21.4062 69.8867 21.1953C70.0039 20.9609 70.1211 20.8438 70.2383 20.8438C70.3789 20.8438 70.4844 20.9609 70.5547 21.1953C70.6484 21.4297 70.707 21.7695 70.7305 22.2148V22.918C70.7305 25.2148 70.5664 26.7383 70.2383 27.4883C69.9336 28.2383 69.5352 28.6133 69.043 28.6133C68.1758 28.6133 67.3203 28.1562 66.4766 27.2422C65.6562 26.3047 64.8242 25.1328 63.9805 23.7266C63.1367 24.7109 62.082 25.7305 60.8164 26.7852C59.5508 27.8164 58.7188 28.332 58.3203 28.332C58.1562 28.332 58.0742 28.2617 58.0742 28.1211C58.0742 27.8867 58.332 27.5234 58.8477 27.0312C60.5586 25.4609 62 23.832 63.1719 22.1445C62.0234 19.5898 61.1211 16.6836 60.4648 13.4258L53.5391 13.8125L52.8359 13.8477C52.3438 13.8477 52.0039 13.7656 51.8164 13.6016C51.582 13.3672 51.3711 13.1094 51.1836 12.8281C50.9961 12.5234 50.9023 12.2656 50.9023 12.0547ZM51.8867 15.5C51.8867 15.3594 52.0273 15.2891 52.3086 15.2891C52.6133 15.2891 53.2578 15.4297 54.2422 15.7109L58.25 15.4297L58.4609 15.3945C58.7422 15.3945 59.0469 15.5117 59.375 15.7461C59.7031 15.9805 59.8672 16.1914 59.8672 16.3789C59.8672 16.4492 59.8438 16.5547 59.7969 16.6953C59.75 16.8125 59.7148 16.9297 59.6914 17.0469L59.3047 19.6484C59.7734 20.1406 60.0078 20.5039 60.0078 20.7383C60.0078 20.9492 59.7383 21.0781 59.1992 21.125L54.5938 21.4062L54.6289 21.7578V21.8633C54.6289 22.2148 54.4766 22.3906 54.1719 22.3906C53.8672 22.3906 53.5391 22.2969 53.1875 22.1094C52.8359 21.8984 52.6602 21.6758 52.6602 21.4414C52.6602 21.3477 52.6719 21.2773 52.6953 21.2305C52.7188 21.1133 52.7305 20.8906 52.7305 20.5625V20.2461L52.5195 17.4336C52.4492 16.7773 52.2734 16.2266 51.9922 15.7812C51.9219 15.6641 51.8867 15.5703 51.8867 15.5ZM54.4883 19.8945L57.582 19.7188L57.8633 17.0117L54.2773 17.2227L54.4883 19.8945ZM62.3633 8.01172C62.3633 7.84766 62.4219 7.63672 62.5391 7.37891C62.6562 7.12109 62.8438 6.99219 63.1016 6.99219C63.3594 6.99219 64.0039 7.22656 65.0352 7.69531C66.0664 8.14062 66.8047 8.48047 67.25 8.71484C67.5312 8.85547 67.6719 9.05469 67.6719 9.3125C67.6719 9.5 67.6016 9.74609 67.4609 10.0508C67.3203 10.3555 67.1211 10.5078 66.8633 10.5078C66.7227 10.5078 66.5586 10.4492 66.3711 10.332C65.3633 9.67578 64.1797 9.07812 62.8203 8.53906C62.5156 8.42188 62.3633 8.24609 62.3633 8.01172Z" fill="#333333"/>
<path d="M135.559 22.2852C134.785 22.0039 134.422 21.6992 134.469 21.3711C134.609 20.3867 134.68 19.2617 134.68 17.9961C134.68 17.4336 134.668 17.0234 134.645 16.7656C134.621 16.4609 134.598 16.2031 134.574 15.9922C134.551 15.7578 134.551 15.6289 134.574 15.6055C134.668 15.5117 134.785 15.4648 134.926 15.4648C135.137 15.4648 135.395 15.5586 135.699 15.7461C136.027 15.9336 136.191 16.1211 136.191 16.3086C136.191 16.4258 136.18 16.543 136.156 16.6602C136.133 16.7539 136.121 16.8594 136.121 16.9766L135.91 20.457C135.91 20.6445 135.98 20.7617 136.121 20.8086H136.297C136.484 20.8086 136.613 20.7969 136.684 20.7734L141.219 20.1406V19.2266C141.219 18.0781 141.195 17.1875 141.148 16.5547C141.125 16.0156 141.066 15.582 140.973 15.2539C140.902 14.8789 140.996 14.6914 141.254 14.6914C141.441 14.6914 141.688 14.7617 141.992 14.9023C142.367 15.0898 142.59 15.2539 142.66 15.3945C142.73 15.5117 142.754 15.6992 142.73 15.957C142.684 16.3789 142.66 17.0117 142.66 17.8555L142.695 20.5273C142.695 21.0898 142.59 21.5352 142.379 21.8633C142.262 22.0039 142.145 22.0742 142.027 22.0742C141.91 22.0742 141.746 21.9688 141.535 21.7578C141.488 21.7109 141.43 21.6406 141.359 21.5469C141.289 21.4531 141.219 21.3945 141.148 21.3711C141.078 21.3477 140.984 21.3359 140.867 21.3359C140.328 21.3828 139.027 21.5586 136.965 21.8633C136.613 21.9102 136.332 22.0039 136.121 22.1445C135.887 22.2617 135.734 22.3203 135.664 22.3203L135.559 22.2852ZM149.656 10.543C149.727 10.543 149.797 10.5781 149.867 10.6484C149.938 10.6953 149.984 10.7656 150.008 10.8594V10.9297C150.008 11.0938 149.879 11.4102 149.621 11.8789L147.09 16.2734C146.902 16.6719 146.656 16.8711 146.352 16.8711C146.047 16.8711 145.789 16.6836 145.578 16.3086C145.367 16.0039 145.109 15.5469 144.805 14.9375C144.664 14.7266 144.547 14.5156 144.453 14.3047C144.359 14.0938 144.289 13.9414 144.242 13.8477C143.984 13.4023 143.855 13.0859 143.855 12.8984C143.855 12.8047 143.891 12.7344 143.961 12.6875C144.031 12.6172 144.102 12.582 144.172 12.582C144.43 12.582 144.664 12.7227 144.875 13.0039C145.039 13.168 145.168 13.3438 145.262 13.5312L145.648 14.0586L146.352 14.8672L146.668 14.375C146.996 13.8125 147.77 12.6992 148.988 11.0352C149.246 10.707 149.469 10.543 149.656 10.543ZM112.637 19.8945C112.285 19.8945 112.016 19.8711 111.828 19.8242C111.641 19.7539 111.477 19.6367 111.336 19.4727C111.102 19.2148 110.926 18.957 110.809 18.6992C110.691 18.418 110.633 18.1953 110.633 18.0312C110.633 17.9141 110.691 17.8555 110.809 17.8555L111.02 17.8906C111.324 17.9844 111.688 18.0312 112.109 18.0312L112.812 17.9961L116.328 17.8203L117.559 12.7578L115.66 12.8633C115.496 12.8867 115.285 12.8984 115.027 12.8984C114.629 12.8984 114.336 12.8516 114.148 12.7578C113.984 12.6406 113.797 12.4297 113.586 12.125C113.422 11.8438 113.281 11.5273 113.164 11.1758C113.141 11.1289 113.129 11.0586 113.129 10.9648C113.129 10.8945 113.176 10.8594 113.27 10.8594L113.516 10.8945C113.914 10.9648 114.301 11 114.676 11L115.484 10.9648L118.016 10.8242L118.895 7.13281L114.922 7.37891L114.395 7.41406C113.855 7.41406 113.434 7.26172 113.129 6.95703C112.824 6.65234 112.59 6.23047 112.426 5.69141C112.402 5.64453 112.391 5.57422 112.391 5.48047C112.391 5.38672 112.449 5.33984 112.566 5.33984C112.66 5.33984 112.742 5.35156 112.812 5.375C113.211 5.44531 113.609 5.48047 114.008 5.48047H114.5L125.434 4.8125C125.855 4.78906 126.254 4.71875 126.629 4.60156L127.086 4.53125C127.344 4.53125 127.695 4.73047 128.141 5.12891C128.609 5.50391 128.844 5.83203 128.844 6.11328C128.844 6.39453 128.504 6.55859 127.824 6.60547L121.109 6.99219L120.266 10.6836L125.328 10.3672L125.68 10.332C125.961 10.332 126.289 10.4727 126.664 10.7539C127.039 11.0117 127.227 11.293 127.227 11.5977C127.227 11.7148 127.191 11.8438 127.121 11.9844C127.074 12.1016 127.039 12.207 127.016 12.3008L126.031 17.3633L128.105 17.2578C128.527 17.2344 129.02 17.1641 129.582 17.0469C129.816 17 129.98 16.9766 130.074 16.9766C130.426 16.9766 130.777 17.1758 131.129 17.5742C131.504 17.9727 131.691 18.2891 131.691 18.5234C131.691 18.8281 131.387 19.0039 130.777 19.0508L112.953 19.8945H112.637ZM98.082 9.69922C98.082 9.55859 98.1523 9.48828 98.293 9.48828C98.3867 9.48828 98.4688 9.5 98.5391 9.52344C98.8906 9.61719 99.2656 9.66406 99.6641 9.66406L100.262 9.62891L108.84 9.13672C109.52 9.01953 110 8.90234 110.281 8.78516C110.422 8.73828 110.527 8.71484 110.598 8.71484C110.879 8.71484 111.254 8.90234 111.723 9.27734C112.191 9.65234 112.426 9.99219 112.426 10.2969C112.426 10.6016 112.191 10.7773 111.723 10.8242L100.965 11.5273C100.684 11.5508 100.344 11.5625 99.9453 11.5625C99.5469 11.5625 99.2891 11.5039 99.1719 11.3867C98.4453 10.7539 98.082 10.1914 98.082 9.69922ZM100.262 22.6719C100.262 22.5312 100.367 22.4609 100.578 22.4609C100.977 22.4609 101.832 22.707 103.145 23.1992L108.629 22.918H108.945C109.25 22.918 109.578 23.0469 109.93 23.3047C110.305 23.5625 110.492 23.8438 110.492 24.1484C110.492 24.2422 110.457 24.3594 110.387 24.5C110.34 24.6172 110.305 24.7227 110.281 24.8164L109.719 29.668C110.258 30.418 110.527 30.9219 110.527 31.1797C110.527 31.3438 110.457 31.4375 110.316 31.4609C110.176 31.5078 109.93 31.543 109.578 31.5664L103.637 31.7773L103.672 32.2344V32.3398C103.672 32.8555 103.449 33.1133 103.004 33.1133C102.746 33.1133 102.406 33.0195 101.984 32.832C101.562 32.6445 101.352 32.3047 101.352 31.8125V31.6016C101.398 30.9922 101.422 30.5469 101.422 30.2656V29.8438L101.07 25.2734C101 24.4766 100.824 23.832 100.543 23.3398C100.355 23.0352 100.262 22.8125 100.262 22.6719ZM100.473 18.418C100.473 18.3008 100.531 18.2422 100.648 18.2422C100.719 18.2422 100.777 18.2539 100.824 18.2773C101.223 18.3711 101.656 18.418 102.125 18.418H102.512L107.188 18.1719C107.656 18.125 108.066 18.0312 108.418 17.8906C108.559 17.8438 108.664 17.8203 108.734 17.8203C109.016 17.8203 109.344 18.0195 109.719 18.418C110.117 18.793 110.316 19.0977 110.316 19.332C110.316 19.6602 110.082 19.8477 109.613 19.8945L103.215 20.2812H102.195C101.867 20.2344 101.633 20.1758 101.492 20.1055C101.047 19.7305 100.719 19.2383 100.508 18.6289C100.484 18.582 100.473 18.5117 100.473 18.418ZM100.473 14.0586C100.473 13.918 100.531 13.8477 100.648 13.8477L100.789 13.8828C101.188 13.9766 101.621 14.0234 102.09 14.0234H102.477L107.258 13.707C107.68 13.6602 108.102 13.5781 108.523 13.4609C108.664 13.4141 108.758 13.3906 108.805 13.3906C109.062 13.3906 109.391 13.5664 109.789 13.918C110.211 14.2695 110.422 14.5977 110.422 14.9023C110.422 15.0664 110.352 15.1953 110.211 15.2891C110.07 15.3828 109.895 15.4414 109.684 15.4648L103.18 15.8867C102.992 15.9102 102.734 15.9219 102.406 15.9219C102.195 15.9219 102.043 15.9102 101.949 15.8867C101.738 15.8867 101.574 15.8281 101.457 15.7109C101.246 15.5469 101.023 15.2891 100.789 14.9375C100.578 14.5625 100.473 14.2695 100.473 14.0586ZM102.02 4.74219C102.02 4.48438 102.102 4.22656 102.266 3.96875C102.453 3.71094 102.676 3.58203 102.934 3.58203C103.121 3.58203 103.707 3.78125 104.691 4.17969C105.699 4.57812 106.895 5.15234 108.277 5.90234C108.535 6.04297 108.723 6.18359 108.84 6.32422C108.957 6.44141 109.016 6.58203 109.016 6.74609C109.016 7.02734 108.887 7.35547 108.629 7.73047C108.395 8.08203 108.148 8.25781 107.891 8.25781C107.727 8.25781 107.48 8.15234 107.152 7.94141C105.723 6.95703 104.258 6.125 102.758 5.44531C102.5 5.32812 102.312 5.22266 102.195 5.12891C102.078 5.01172 102.02 4.88281 102.02 4.74219ZM103.496 29.8789L107.68 29.7734L108.066 24.8867L103.145 25.1328L103.496 29.8789ZM113.586 22.3555C113.586 22.2148 113.691 22.1445 113.902 22.1445C114.254 22.1445 115.051 22.3789 116.293 22.8477L125.609 22.3906H125.961C126.336 22.3906 126.699 22.5312 127.051 22.8125C127.426 23.0703 127.613 23.3516 127.613 23.6562C127.613 23.7734 127.566 23.9258 127.473 24.1133C127.379 24.2773 127.332 24.4062 127.332 24.5L126.523 29.5273C127.109 30.3008 127.402 30.8164 127.402 31.0742C127.402 31.2148 127.332 31.2969 127.191 31.3203C127.074 31.3672 126.828 31.4023 126.453 31.4258L116.785 31.6719L116.891 32.9023V33.0078C116.891 33.5 116.691 33.7461 116.293 33.7461C116.199 33.7461 115.988 33.6875 115.66 33.5703C115.355 33.4531 115.074 33.2891 114.816 33.0781C114.559 32.8906 114.43 32.668 114.43 32.4102C114.43 32.293 114.441 32.1875 114.465 32.0938C114.535 31.7188 114.57 31.3086 114.57 30.8633L114.535 30.0898L114.148 24.8867C114.078 23.9961 113.949 23.3398 113.762 22.918C113.645 22.6367 113.586 22.4492 113.586 22.3555ZM116.645 29.7734L124.379 29.5625L125.012 24.3242L116.293 24.7461L116.645 29.7734ZM123.852 17.4688L124.73 12.3008L119.773 12.6172L118.578 17.7148L123.852 17.4688Z" fill="#333333"/>
<path d="M192.547 12.6172C192.406 12.6172 192.219 12.4648 191.984 12.1602C191.75 11.832 191.645 11.5508 191.668 11.3164C191.715 11.1289 191.75 10.6016 191.773 9.73438C191.797 9.14844 191.809 8.11719 191.809 6.64062C191.809 5.60938 191.797 4.91797 191.773 4.56641L190.613 4.67188C189.793 4.78906 189.09 4.84766 188.504 4.84766C188.34 4.84766 188.105 4.71875 187.801 4.46094C187.496 4.20312 187.344 4.01562 187.344 3.89844C187.344 3.71094 187.543 3.64062 187.941 3.6875C188.199 3.71094 188.961 3.69922 190.227 3.65234C191.961 3.53516 193.215 3.46484 193.988 3.44141C194.387 3.41797 194.75 3.38281 195.078 3.33594C195.43 3.26562 195.676 3.21875 195.816 3.19531C196.027 3.17188 196.215 3.19531 196.379 3.26562C196.543 3.33594 196.695 3.42969 196.836 3.54688C197 3.64062 197.129 3.71094 197.223 3.75781C197.434 3.89844 197.539 4.02734 197.539 4.14453C197.539 4.23828 197.48 4.33203 197.363 4.42578C197.27 4.49609 197.164 4.53125 197.047 4.53125C196.93 4.53125 196.766 4.51953 196.555 4.49609C196.367 4.47266 196.156 4.46094 195.922 4.46094C195.055 4.46094 194.164 4.48438 193.25 4.53125C193.227 4.71875 193.215 5.1875 193.215 5.9375C193.168 7.20312 193.145 8.44531 193.145 9.66406V11.0352V11.3516C193.145 11.75 193.109 12.0078 193.039 12.125C192.828 12.4531 192.664 12.6172 192.547 12.6172ZM188.785 18.8398C188.527 18.8398 188.211 18.6406 187.836 18.2422C187.555 17.9609 187.414 17.75 187.414 17.6094C187.414 17.5391 187.461 17.5039 187.555 17.5039C187.648 17.4805 187.766 17.4688 187.906 17.4688L188.68 17.4336C189.125 17.4336 189.418 17.4219 189.559 17.3984C190.004 17.3984 190.379 17.3867 190.684 17.3633C192.699 17.1758 194.059 17.0234 194.762 16.9062C195.113 16.8594 195.43 16.8125 195.711 16.7656C195.992 16.6953 196.215 16.6602 196.379 16.6602C196.707 16.6602 197.035 16.8242 197.363 17.1523C197.621 17.4102 197.75 17.6211 197.75 17.7852C197.75 17.9258 197.668 18.0195 197.504 18.0664C197.387 18.0898 196.695 18.1367 195.43 18.207C194.727 18.2305 193.859 18.2891 192.828 18.3828C191.797 18.4766 190.895 18.5703 190.121 18.6641C189.98 18.6875 189.781 18.7227 189.523 18.7695C189.266 18.8164 189.02 18.8398 188.785 18.8398ZM196.344 30.9688C196.391 31.0625 196.473 31.2031 196.59 31.3906C196.707 31.5781 196.766 31.8008 196.766 32.0586C196.766 32.293 196.672 32.4805 196.484 32.6211C196.297 32.7852 196.086 32.8672 195.852 32.8672C195.641 32.8672 195.465 32.6562 195.324 32.2344C195.254 32.0703 195.195 31.9297 195.148 31.8125C195.125 31.7188 195.102 31.6367 195.078 31.5664C194.773 31.6602 194.375 31.7422 193.883 31.8125C193.391 31.8828 193.039 31.9414 192.828 31.9883C191.703 32.1992 190.93 32.3516 190.508 32.4453C190.344 32.4922 190.168 32.5391 189.98 32.5859C189.793 32.6562 189.688 32.7031 189.664 32.7266C189.523 32.7734 189.418 32.7969 189.348 32.7969C189.16 32.7969 188.984 32.7148 188.82 32.5508C188.539 32.3398 188.328 32.0586 188.188 31.707C188.164 31.6836 188.152 31.6484 188.152 31.6016C188.152 31.5547 188.211 31.4961 188.328 31.4258C188.469 31.3555 188.574 31.3086 188.645 31.2852C188.949 31.1211 189.488 30.6289 190.262 29.8086L191.211 28.8945L189.137 27.7695C188.902 27.6992 188.75 27.6172 188.68 27.5234C188.609 27.4297 188.574 27.2891 188.574 27.1016C188.574 26.9609 188.598 26.8672 188.645 26.8203C188.715 26.75 188.855 26.6445 189.066 26.5039C189.277 26.3633 189.488 26.1758 189.699 25.9414C189.816 25.8008 189.969 25.6484 190.156 25.4844C190.344 25.3203 190.52 25.1445 190.684 24.957C191.387 24.1367 191.832 23.4922 192.02 23.0234C192.137 22.7891 192.23 22.6719 192.301 22.6719C192.348 22.6719 192.441 22.7188 192.582 22.8125C193.027 23.1406 193.297 23.4453 193.391 23.7266V23.832C193.391 23.9492 193.332 24.043 193.215 24.1133C193.098 24.1836 193.016 24.2422 192.969 24.2891C192.898 24.3359 192.547 24.6758 191.914 25.3086L191.281 25.9414C191.164 26.0586 190.965 26.2578 190.684 26.5391C190.402 26.7969 190.262 26.9492 190.262 26.9961C190.262 27.0664 190.297 27.125 190.367 27.1719C190.461 27.2188 190.531 27.2656 190.578 27.3125L192.055 28.0156C192.969 27.1016 193.496 26.5625 193.637 26.3984C194.246 25.6953 194.586 25.25 194.656 25.0625C194.68 25.0391 194.715 24.9805 194.762 24.8867C194.809 24.793 194.855 24.7461 194.902 24.7461C194.973 24.7461 195.043 24.7812 195.113 24.8516C195.488 25.2031 195.758 25.5312 195.922 25.8359C195.969 25.9297 195.992 25.9883 195.992 26.0117C195.992 26.0586 195.934 26.1289 195.816 26.2227C195.723 26.293 195.629 26.3633 195.535 26.4336C194.715 27.1133 193.754 28.0039 192.652 29.1055L190.508 31.1094C190.461 31.1562 190.438 31.2031 190.438 31.25C190.438 31.2969 190.461 31.332 190.508 31.3555C190.555 31.3789 190.625 31.3789 190.719 31.3555L194.832 30.6523C194.715 30.1836 194.574 29.7148 194.41 29.2461V29.1758C194.41 29.1055 194.445 29.0703 194.516 29.0703C194.609 29.0703 194.75 29.1406 194.938 29.2812C195.312 29.6094 195.781 30.1719 196.344 30.9688ZM203.656 19.6836C203.727 19.6836 203.797 19.7188 203.867 19.7891C203.938 19.8359 203.984 19.9062 204.008 20V20.0703C204.008 20.2344 203.879 20.5508 203.621 21.0195L201.09 25.4141C200.902 25.8125 200.656 26.0117 200.352 26.0117C200.047 26.0117 199.789 25.8242 199.578 25.4492C199.367 25.1445 199.109 24.6875 198.805 24.0781C198.664 23.8672 198.547 23.6562 198.453 23.4453C198.359 23.2344 198.289 23.082 198.242 22.9883C197.984 22.543 197.855 22.2266 197.855 22.0391C197.855 21.9453 197.891 21.875 197.961 21.8281C198.031 21.7578 198.102 21.7227 198.172 21.7227C198.43 21.7227 198.664 21.8633 198.875 22.1445C199.039 22.3086 199.168 22.4844 199.262 22.6719L199.648 23.1992L200.352 24.0078L200.668 23.5156C200.996 22.9531 201.77 21.8398 202.988 20.1758C203.246 19.8477 203.469 19.6836 203.656 19.6836ZM168.148 4.53125C168.148 3.96875 167.996 3.5 167.691 3.125C167.574 2.96094 167.516 2.85547 167.516 2.80859C167.516 2.66797 167.645 2.59766 167.902 2.59766C168.09 2.59766 168.406 2.64453 168.852 2.73828C169.297 2.83203 169.707 2.97266 170.082 3.16016C170.457 3.34766 170.645 3.57031 170.645 3.82812L170.539 29.8086L170.574 31.2148C170.574 31.9883 170.363 32.5273 169.941 32.832C169.52 33.1367 169.156 33.2891 168.852 33.2891C168.5 33.2891 167.668 32.9258 166.355 32.1992C165.066 31.4727 163.859 30.7109 162.734 29.9141C161.609 29.0938 161.047 28.5312 161.047 28.2266C161.047 28.0156 161.199 27.9102 161.504 27.9102C161.762 27.9102 162.066 27.9922 162.418 28.1562C164.785 29.1641 166.66 29.8555 168.043 30.2305L168.148 4.53125ZM153.242 26.082C153.242 25.8711 153.383 25.543 153.664 25.0977C155.258 22.7539 156.559 20.6445 157.566 18.7695C158.574 16.8711 159.348 14.8438 159.887 12.6875C159.98 12.3125 160.027 12.0312 160.027 11.8438C160.027 11.6562 159.992 11.457 159.922 11.2461C159.898 11.1758 159.887 11.0938 159.887 11C159.887 10.7891 160.004 10.6836 160.238 10.6836C160.59 10.6836 161.117 10.8945 161.82 11.3164C162.617 11.7852 163.016 12.2188 163.016 12.6172C163.016 12.7344 163.004 12.8164 162.98 12.8633C161.855 15.5117 160.613 17.8555 159.254 19.8945C157.895 21.9102 156.664 23.4922 155.562 24.6406C154.484 25.7656 153.781 26.3281 153.453 26.3281C153.312 26.3281 153.242 26.2461 153.242 26.082ZM174.898 11.9844C174.898 11.75 175.074 11.4922 175.426 11.2109C175.777 10.9062 176.117 10.7539 176.445 10.7539C176.703 10.7539 176.926 10.8828 177.113 11.1406C178.191 12.5234 179.34 14.1523 180.559 16.0273C181.777 17.9023 182.809 19.5898 183.652 21.0898C184.496 22.5664 184.918 23.4219 184.918 23.6562C184.918 23.9141 184.801 24.1484 184.566 24.3594C184.332 24.5703 184.062 24.7461 183.758 24.8867C183.477 25.0273 183.266 25.0977 183.125 25.0977C182.82 25.0977 182.574 24.9219 182.387 24.5703C181.168 22.1094 179.984 19.9297 178.836 18.0312C177.711 16.1094 176.469 14.2695 175.109 12.5117C174.969 12.3242 174.898 12.1484 174.898 11.9844Z" fill="#333333"/>
<path d="M245.387 23.9727C245.199 23.9727 245.047 23.8203 244.93 23.5156C244.742 23.1406 244.648 22.8359 244.648 22.6016L244.684 21.6523C244.707 21.1836 244.719 20.2461 244.719 18.8398V17.082L244.684 15.8516C244.426 15.8516 244.156 15.8867 243.875 15.957L243.066 16.168C242.949 16.2148 242.762 16.1445 242.504 15.957C242.246 15.7695 242.047 15.5586 241.906 15.3242C241.836 15.1836 241.801 15.0781 241.801 15.0078C241.801 14.9375 241.836 14.8906 241.906 14.8672C241.977 14.8438 242.059 14.832 242.152 14.832C243.254 14.832 244.273 14.7734 245.211 14.6562L246.266 14.5859C246.945 14.5391 247.461 14.5039 247.812 14.4805C248.188 14.4336 248.445 14.3984 248.586 14.375C248.773 14.3516 248.984 14.3281 249.219 14.3047C249.477 14.2578 249.641 14.2461 249.711 14.2695C249.805 14.3398 249.922 14.4102 250.062 14.4805C250.227 14.5508 250.402 14.668 250.59 14.832C250.707 14.9492 250.801 15.0664 250.871 15.1836C250.965 15.2773 251.012 15.3828 251.012 15.5C251.012 15.5938 250.953 15.7344 250.836 15.9219C250.719 16.1094 250.602 16.4023 250.484 16.8008C250.391 17.1992 250.32 17.4805 250.273 17.6445C249.922 18.8164 249.488 19.6719 248.973 20.2109C248.598 20.5391 248.176 20.7031 247.707 20.7031C247.496 20.7031 247.32 20.5508 247.18 20.2461C246.969 19.7773 246.734 19.4492 246.477 19.2617L246.512 19.0859C247.145 19.2969 247.578 19.4023 247.812 19.4023C248 19.4023 248.129 19.3672 248.199 19.2969C248.293 19.2266 248.375 19.1211 248.445 18.9805C248.562 18.6758 248.656 18.4062 248.727 18.1719C248.82 17.9375 248.902 17.7266 248.973 17.5391C249.02 17.3281 249.078 17.0469 249.148 16.6953C249.242 16.3438 249.301 16.0625 249.324 15.8516C249.324 15.6406 249.266 15.5352 249.148 15.5352H248.375C248.023 15.5352 247.625 15.5469 247.18 15.5703C246.734 15.5938 246.371 15.6289 246.09 15.6758L246.02 18.875L246.055 20.7031C246.055 20.9609 246.055 21.207 246.055 21.4414C246.078 21.6523 246.078 21.8047 246.055 21.8984C246.055 22.0391 246.055 22.2617 246.055 22.5664C246.078 22.8477 246.078 23.0469 246.055 23.1641L245.809 23.7266C245.645 23.8906 245.504 23.9727 245.387 23.9727ZM253.016 11.0352C253.133 11.0352 253.309 11.1172 253.543 11.2812C253.52 11.3281 253.566 11.4219 253.684 11.5625C253.801 11.6797 253.883 11.7617 253.93 11.8086C254.047 11.9258 254.164 12.0664 254.281 12.2305C254.422 12.3945 254.574 12.5703 254.738 12.7578C255.16 13.2031 256.133 14.3633 257.656 16.2383C257.914 16.6133 258.043 16.8359 258.043 16.9062C258.043 17.1406 257.902 17.2578 257.621 17.2578C257.457 17.2578 257.281 17.1406 257.094 16.9062C256.648 16.4375 255.852 15.6992 254.703 14.6914C253.812 13.8711 253.004 13.2383 252.277 12.793C251.926 12.6289 251.75 12.4414 251.75 12.2305C251.75 12.0664 251.926 11.832 252.277 11.5273C252.605 11.1992 252.852 11.0352 253.016 11.0352ZM224.68 23.0234C224.914 24.3359 225.031 25.8125 225.031 27.4531V28.0508C225.031 30.4883 224.82 32.1289 224.398 32.9727C223.977 33.8164 223.484 34.2383 222.922 34.2383C222.43 34.2383 221.586 33.8633 220.391 33.1133C219.195 32.3867 218.07 31.5898 217.016 30.7227C215.984 29.8789 215.469 29.3164 215.469 29.0352C215.469 28.918 215.551 28.8594 215.715 28.8594C215.926 28.8594 216.254 28.9648 216.699 29.1758C218.129 29.9258 219.383 30.4883 220.461 30.8633C221.562 31.2617 222.195 31.4609 222.359 31.4609C222.453 31.4609 222.512 31.3906 222.535 31.25C222.723 30.0078 222.816 28.7656 222.816 27.5234C222.816 26.1172 222.699 24.6523 222.465 23.1289L210.336 23.6211L209.352 23.6562C208.883 23.6562 208.555 23.5391 208.367 23.3047C207.898 22.6953 207.605 22.2266 207.488 21.8984C207.465 21.8281 207.453 21.7461 207.453 21.6523C207.453 21.5117 207.512 21.4414 207.629 21.4414C207.699 21.4414 207.758 21.4531 207.805 21.4766C208.297 21.6172 208.812 21.6875 209.352 21.6875H209.668L221.973 21.125C221.715 20.2109 221.375 19.3555 220.953 18.5586C220.812 18.2773 220.742 18.043 220.742 17.8555C220.742 17.5273 220.906 17.3047 221.234 17.1875C221.586 17.0703 221.879 17.0117 222.113 17.0117C222.254 17.0117 222.371 17.0586 222.465 17.1523C222.582 17.2461 222.699 17.3984 222.816 17.6094L222.957 17.8906C225.113 16.3906 226.648 15.1016 227.562 14.0234L217.191 14.8672C216.629 14.9141 216.266 14.9375 216.102 14.9375C215.609 14.9375 215.27 14.8438 215.082 14.6562C214.73 14.3047 214.461 13.9648 214.273 13.6367C214.109 13.3086 214.027 13.0742 214.027 12.9336C214.027 12.7695 214.109 12.6875 214.273 12.6875C214.367 12.6875 214.438 12.6992 214.484 12.7227C215 12.8398 215.457 12.8984 215.855 12.8984L216.453 12.8633L228.582 11.9492L229.109 11.9141C229.438 11.9141 229.754 12.0078 230.059 12.1953C230.363 12.3828 230.609 12.5938 230.797 12.8281C230.984 13.0625 231.078 13.25 231.078 13.3906C231.078 13.625 230.949 13.8359 230.691 14.0234C230.434 14.2109 230.27 14.3398 230.199 14.4102C228.043 16.5664 225.91 18.3359 223.801 19.7188L224.223 21.0195L234.453 20.5625C235.109 20.5156 235.637 20.4219 236.035 20.2812C236.176 20.2344 236.281 20.2109 236.352 20.2109C236.516 20.2109 236.762 20.3164 237.09 20.5273C237.441 20.7148 237.746 20.9492 238.004 21.2305C238.285 21.5117 238.426 21.7578 238.426 21.9688C238.426 22.25 238.121 22.4141 237.512 22.4609L224.68 23.0234ZM208.508 13.6016C208.508 13.5078 208.555 13.3672 208.648 13.1797C209.914 10.8125 210.934 8.45703 211.707 6.11328C211.777 5.85547 211.859 5.67969 211.953 5.58594C212.07 5.46875 212.223 5.41016 212.41 5.41016C212.551 5.41016 212.738 5.44531 212.973 5.51562C213.277 5.63281 213.488 5.75 213.605 5.86719C213.746 5.98438 213.816 6.125 213.816 6.28906C213.816 6.35938 213.793 6.48828 213.746 6.67578L213.5 7.37891L223.484 6.81641C221.797 5.45703 220.496 4.47266 219.582 3.86328C219.418 3.74609 219.301 3.64062 219.23 3.54688C219.16 3.45312 219.125 3.34766 219.125 3.23047C219.125 3.01953 219.219 2.78516 219.406 2.52734C219.617 2.24609 219.805 2.08203 219.969 2.03516C220.016 2.01172 220.086 2 220.18 2C220.344 2 220.531 2.07031 220.742 2.21094L221.375 2.59766C222.688 3.41797 223.742 4.09766 224.539 4.63672C225.336 5.17578 225.77 5.58594 225.84 5.86719L225.875 6.04297C225.875 6.20703 225.793 6.41797 225.629 6.67578L235.578 6.11328H235.895C236.316 6.11328 236.691 6.25391 237.02 6.53516C237.371 6.81641 237.547 7.08594 237.547 7.34375C237.547 7.50781 237.441 7.69531 237.23 7.90625C237.043 8.09375 236.926 8.23438 236.879 8.32812C236.715 8.60938 236.352 9.16016 235.789 9.98047C235.25 10.7773 234.664 11.5508 234.031 12.3008C233.422 13.0508 232.965 13.4258 232.66 13.4258C232.473 13.4258 232.379 13.3203 232.379 13.1094C232.379 12.875 232.484 12.582 232.695 12.2305C233.422 10.918 234.031 9.55859 234.523 8.15234L212.832 9.3125C212.223 10.9297 211.73 12.1367 211.355 12.9336C211.004 13.7305 210.734 14.2461 210.547 14.4805C210.359 14.6914 210.184 14.7969 210.02 14.7969C209.926 14.7734 209.75 14.7148 209.492 14.6211C209.258 14.5039 209.035 14.3633 208.824 14.1992C208.613 14.0117 208.508 13.8125 208.508 13.6016Z" fill="#333333"/>
<path d="M301.145 13.2852C300.77 13.2852 300.547 13.0977 300.477 12.7227C300.336 12.3242 299.961 11.832 299.352 11.2461L299.457 11.1055C299.551 11.1523 299.82 11.2695 300.266 11.457C300.711 11.6211 301.016 11.7031 301.18 11.7031C301.32 11.7031 301.426 11.7031 301.496 11.7031C301.566 11.6797 301.648 11.6211 301.742 11.5273C302.023 11.3164 302.375 10.8359 302.797 10.0859C303.102 9.47656 303.371 8.76172 303.605 7.94141C303.863 7.12109 303.992 6.5 303.992 6.07812C303.992 5.96094 303.898 5.90234 303.711 5.90234L302.375 5.97266L301.461 6.04297L300.863 6.07812L300.617 6.11328C300.781 6.23047 300.887 6.33594 300.934 6.42969C301.004 6.5 301.039 6.59375 301.039 6.71094C301.039 6.82812 300.898 7.15625 300.617 7.69531C300.383 8.21094 300.008 8.79688 299.492 9.45312C299.07 10.0156 298.496 10.625 297.77 11.2812C297.066 11.9141 296.539 12.2422 296.188 12.2656C296.117 12.2656 296.047 12.2539 295.977 12.2305C295.93 12.1836 295.906 12.125 295.906 12.0547C295.906 12.0312 296.094 11.8086 296.469 11.3867L297.453 10.2266C298.156 9.28906 298.871 8.09375 299.598 6.64062C299.668 6.45312 299.633 6.34766 299.492 6.32422C299.352 6.34766 299.059 6.38281 298.613 6.42969C298.168 6.45312 297.77 6.52344 297.418 6.64062C297.395 6.64062 297.312 6.67578 297.172 6.74609C297.031 6.79297 296.914 6.81641 296.82 6.81641C296.68 6.81641 296.562 6.76953 296.469 6.67578L296.188 6.42969C295.977 6.26562 295.871 6.11328 295.871 5.97266C295.871 5.92578 295.895 5.85547 295.941 5.76172L296.117 5.48047C296.211 5.36328 296.363 5.17578 296.574 4.91797C296.785 4.66016 297.02 4.30859 297.277 3.86328C297.324 3.76953 297.418 3.55859 297.559 3.23047C297.723 2.90234 297.805 2.70312 297.805 2.63281V2.49219C297.805 2.35156 297.828 2.25781 297.875 2.21094C297.922 2.16406 298.027 2.16406 298.191 2.21094C298.355 2.25781 298.555 2.38672 298.789 2.59766L299.176 2.98438C299.246 3.05469 299.281 3.13672 299.281 3.23047C299.281 3.46484 298.953 3.88672 298.297 4.49609C298.18 4.61328 298.039 4.78906 297.875 5.02344C297.711 5.25781 297.629 5.41016 297.629 5.48047C297.629 5.62109 297.734 5.66797 297.945 5.62109L298.754 5.51562C300.605 5.23438 302 5.07031 302.938 5.02344L303.887 4.88281L304.203 4.8125L304.379 4.77734C304.566 4.77734 304.695 4.80078 304.766 4.84766C304.836 4.89453 304.906 4.97656 304.977 5.09375C305.047 5.1875 305.117 5.26953 305.188 5.33984C305.352 5.52734 305.469 5.69141 305.539 5.83203L305.609 6.14844L305.539 6.28906L305.469 6.5C305.422 6.61719 305.387 6.73438 305.363 6.85156C305.34 6.94531 305.305 7.05078 305.258 7.16797C304.766 9.06641 304.191 10.543 303.535 11.5977C303.324 11.9727 302.961 12.3477 302.445 12.7227C301.953 13.0977 301.52 13.2852 301.145 13.2852ZM296.785 18.8398C296.527 18.8398 296.211 18.6406 295.836 18.2422C295.555 17.9609 295.414 17.75 295.414 17.6094C295.414 17.5391 295.461 17.5039 295.555 17.5039C295.648 17.4805 295.766 17.4688 295.906 17.4688L296.68 17.4336C297.125 17.4336 297.418 17.4219 297.559 17.3984C298.004 17.3984 298.379 17.3867 298.684 17.3633C300.699 17.1758 302.059 17.0234 302.762 16.9062C303.113 16.8594 303.43 16.8125 303.711 16.7656C303.992 16.6953 304.215 16.6602 304.379 16.6602C304.707 16.6602 305.035 16.8242 305.363 17.1523C305.621 17.4102 305.75 17.6211 305.75 17.7852C305.75 17.9258 305.668 18.0195 305.504 18.0664C305.387 18.0898 304.695 18.1367 303.43 18.207C302.727 18.2305 301.859 18.2891 300.828 18.3828C299.797 18.4766 298.895 18.5703 298.121 18.6641C297.98 18.6875 297.781 18.7227 297.523 18.7695C297.266 18.8164 297.02 18.8398 296.785 18.8398ZM302.023 26.6797C301.789 26.9844 301.543 27.1367 301.285 27.1367C301.215 27.1367 301.18 27.0781 301.18 26.9609C301.18 26.7969 301.227 26.6094 301.32 26.3984C301.32 26.3984 301.555 25.9297 302.023 24.9922C302.047 24.8984 302.082 24.8047 302.129 24.7109C302.176 24.6172 302.211 24.5352 302.234 24.4648V24.4297C302.234 24.3828 302.199 24.3359 302.129 24.2891C302.059 24.2422 301.977 24.2305 301.883 24.2539C301.508 24.2773 300.945 24.3359 300.195 24.4297C299.469 24.5234 298.93 24.6172 298.578 24.7109C298.438 24.7578 298.262 24.8164 298.051 24.8867C297.863 24.957 297.711 24.9922 297.594 24.9922C297.172 24.9922 296.82 24.8633 296.539 24.6055C296.305 24.4414 296.129 24.2773 296.012 24.1133L295.941 23.9375C295.941 23.8203 296.141 23.7852 296.539 23.832C297.078 23.8789 298.191 23.8086 299.879 23.6211L300.582 23.5156C300.77 23.4922 301.062 23.457 301.461 23.4102C301.883 23.3398 302.211 23.2695 302.445 23.1992C302.516 23.1758 302.586 23.1523 302.656 23.1289C302.75 23.082 302.832 23.0586 302.902 23.0586C303.02 23.0586 303.16 23.1172 303.324 23.2344C303.512 23.3516 303.664 23.457 303.781 23.5508C303.945 23.668 304.051 23.7734 304.098 23.8672C304.168 23.9375 304.191 24.0312 304.168 24.1484C304.168 24.2656 304.109 24.3711 303.992 24.4648C303.875 24.5586 303.793 24.6289 303.746 24.6758C303.699 24.7461 303.535 24.9219 303.254 25.2031C303.137 25.3906 302.926 25.6484 302.621 25.9766C302.34 26.3047 302.141 26.5391 302.023 26.6797ZM300.266 33.6055C300.266 33.5352 300.383 33.3477 300.617 33.043C300.875 32.7617 301.074 32.5391 301.215 32.375C301.566 31.9062 301.988 31.2266 302.48 30.3359C302.996 29.4453 303.289 28.8594 303.359 28.5781C303.406 28.4375 303.336 28.3672 303.148 28.3672C302.773 28.3672 301.742 28.4727 300.055 28.6836C298.953 28.8242 298.133 28.9648 297.594 29.1055C297.477 29.1758 297.359 29.2109 297.242 29.2109C297.055 29.2109 296.855 29.082 296.645 28.8242C296.551 28.6602 296.504 28.5078 296.504 28.3672C296.504 28.2734 296.562 28.1797 296.68 28.0859L296.785 27.9453C296.855 27.8047 296.938 27.6172 297.031 27.3828C297.125 27.1484 297.207 26.9258 297.277 26.7148C297.395 26.3398 297.477 25.9297 297.523 25.4844C297.547 25.2266 297.688 25.1562 297.945 25.2734C298.273 25.4375 298.52 25.6016 298.684 25.7656C298.871 25.9062 298.93 26.0117 298.859 26.082C298.625 26.3633 298.438 26.6797 298.297 27.0312C298.18 27.4062 298.109 27.6523 298.086 27.7695C298.086 27.8633 298.145 27.9102 298.262 27.9102C298.613 27.9102 299.141 27.8516 299.844 27.7344C300.242 27.6875 300.734 27.6289 301.32 27.5586C301.906 27.4883 302.375 27.418 302.727 27.3477L303.605 27.1719C303.676 27.1484 303.77 27.1367 303.887 27.1367C304.004 27.1367 304.121 27.1836 304.238 27.2773C304.355 27.3477 304.484 27.4414 304.625 27.5586C304.859 27.7695 305.012 27.9453 305.082 28.0859C305.152 28.2031 305.188 28.3438 305.188 28.5078C305.188 28.6016 305.117 28.7188 304.977 28.8594C304.859 29 304.719 29.2227 304.555 29.5273C303.875 30.9102 302.996 32.0703 301.918 33.0078C301.613 33.2422 301.273 33.4414 300.898 33.6055C300.734 33.6523 300.582 33.6758 300.441 33.6758C300.324 33.6992 300.266 33.6758 300.266 33.6055ZM311.656 19.6836C311.727 19.6836 311.797 19.7188 311.867 19.7891C311.938 19.8359 311.984 19.9062 312.008 20V20.0703C312.008 20.2344 311.879 20.5508 311.621 21.0195L309.09 25.4141C308.902 25.8125 308.656 26.0117 308.352 26.0117C308.047 26.0117 307.789 25.8242 307.578 25.4492C307.367 25.1445 307.109 24.6875 306.805 24.0781C306.664 23.8672 306.547 23.6562 306.453 23.4453C306.359 23.2344 306.289 23.082 306.242 22.9883C305.984 22.543 305.855 22.2266 305.855 22.0391C305.855 21.9453 305.891 21.875 305.961 21.8281C306.031 21.7578 306.102 21.7227 306.172 21.7227C306.43 21.7227 306.664 21.8633 306.875 22.1445C307.039 22.3086 307.168 22.4844 307.262 22.6719L307.648 23.1992L308.352 24.0078L308.668 23.5156C308.996 22.9531 309.77 21.8398 310.988 20.1758C311.246 19.8477 311.469 19.6836 311.656 19.6836ZM262.684 25.2383C262.238 25.2383 261.898 25.1562 261.664 24.9922C261.195 24.5938 260.879 24.2539 260.715 23.9727C260.574 23.6914 260.504 23.4805 260.504 23.3398C260.504 23.2227 260.586 23.1641 260.75 23.1641C260.844 23.1641 260.926 23.1758 260.996 23.1992C261.582 23.3164 262.051 23.375 262.402 23.375L262.93 23.3398L266.445 23.1992L265.883 11.4922C265.836 10.6953 265.684 10.0508 265.426 9.55859C265.262 9.23047 265.18 8.99609 265.18 8.85547C265.18 8.66797 265.297 8.57422 265.531 8.57422C265.953 8.57422 266.762 8.85547 267.957 9.41797L272.211 9.17188L272.105 4.98828C272.105 4.68359 272.047 4.41406 271.93 4.17969C271.836 3.94531 271.684 3.69922 271.473 3.44141C271.332 3.25391 271.262 3.125 271.262 3.05469C271.262 2.89062 271.414 2.80859 271.719 2.80859C272.047 2.80859 272.516 2.90234 273.125 3.08984C273.594 3.23047 273.875 3.37109 273.969 3.51172C274.086 3.62891 274.145 3.82812 274.145 4.10938V4.21484L274.25 9.03125L278.504 8.78516L278.574 4.42578C278.574 3.81641 278.387 3.28906 278.012 2.84375C277.895 2.67969 277.836 2.55078 277.836 2.45703C277.836 2.31641 277.977 2.24609 278.258 2.24609C278.633 2.24609 279.078 2.31641 279.594 2.45703C280.039 2.57422 280.32 2.71484 280.438 2.87891C280.578 3.04297 280.648 3.33594 280.648 3.75781L280.543 8.67969L285.711 8.36328H286.062C286.461 8.36328 286.824 8.52734 287.152 8.85547C287.504 9.16016 287.68 9.44141 287.68 9.69922C287.68 9.81641 287.645 9.93359 287.574 10.0508C287.527 10.168 287.492 10.2734 287.469 10.3672L286.555 22.4258L289.121 22.3203C289.777 22.2734 290.281 22.1797 290.633 22.0391C290.773 21.9922 290.867 21.9688 290.914 21.9688C291.008 21.9688 291.219 22.0859 291.547 22.3203C291.875 22.5312 292.168 22.7656 292.426 23.0234C292.707 23.2812 292.848 23.5039 292.848 23.6914C292.848 23.9258 292.566 24.0664 292.004 24.1133L263.598 25.2031L262.684 25.2383ZM262.684 33.5703C262.684 33.3594 262.895 33.125 263.316 32.8672C266.293 31.1562 268.766 29.375 270.734 27.5234C270.852 27.4062 270.969 27.2305 271.086 26.9961C271.227 26.7617 271.309 26.5391 271.332 26.3281C271.402 25.9062 271.543 25.6953 271.754 25.6953C272.035 25.6953 272.422 25.9883 272.914 26.5742C273.406 27.1367 273.652 27.5586 273.652 27.8398C273.652 28.0273 273.535 28.2148 273.301 28.4023C271.848 29.6211 270.371 30.6289 268.871 31.4258C267.395 32.2461 266.117 32.8438 265.039 33.2188C263.961 33.6172 263.305 33.8164 263.07 33.8164C262.812 33.8164 262.684 33.7344 262.684 33.5703ZM268.168 15.957L272.387 15.7461L272.246 11.1406L267.957 11.3516L268.168 15.957ZM268.52 23.1289L272.562 22.9531L272.422 17.5742L268.273 17.75L268.52 23.1289ZM274.391 15.6406L278.363 15.4297L278.469 10.7891L274.285 11.0352L274.391 15.6406ZM274.566 22.8828L278.223 22.7422L278.328 17.293L274.426 17.4688L274.566 22.8828ZM278.785 27.1367C278.809 27.043 278.855 26.9023 278.926 26.7148C278.996 26.5039 279.113 26.3047 279.277 26.1172C279.441 25.9297 279.629 25.8359 279.84 25.8359C280.402 25.8359 283.215 27.6289 288.277 31.2148C288.676 31.4961 288.875 31.7656 288.875 32.0234C288.875 32.1172 288.805 32.293 288.664 32.5508C288.523 32.832 288.348 33.0781 288.137 33.2891C287.949 33.5234 287.75 33.6406 287.539 33.6406C287.352 33.6406 287.082 33.5 286.73 33.2188C284.434 31.2734 281.938 29.457 279.242 27.7695C278.938 27.582 278.785 27.3711 278.785 27.1367ZM284.445 22.4961L284.832 16.9766L280.367 17.1875L280.262 22.6719L284.445 22.4961ZM284.973 15.0781L285.289 10.4375L280.508 10.6836L280.402 15.3242L284.973 15.0781Z" fill="#333333"/>
</svg>
