<svg width="360" height="60" viewBox="0 0 360 60" fill="none" xmlns="http://www.w3.org/2000/svg">
<path d="M114.152 27.2188C113.879 27.2188 113.642 27.1185 113.441 26.918C112.84 26.2617 112.229 25.6693 111.609 25.1406C110.917 24.5573 110.306 24.1198 109.777 23.8281C109.522 23.6823 109.395 23.4544 109.395 23.1445C109.395 23.0898 109.458 23.0169 109.586 22.9258C109.75 22.8164 110.014 22.5794 110.379 22.2148L111.363 21.2578C111.801 20.8021 112.165 20.3919 112.457 20.0273C112.767 19.6628 112.94 19.4076 112.977 19.2617C112.995 19.2253 113.013 19.1523 113.031 19.043C113.068 18.9154 113.122 18.8516 113.195 18.8516C113.286 18.8516 113.405 18.8971 113.551 18.9883C113.715 19.0794 113.852 19.1706 113.961 19.2617C114.234 19.5169 114.371 19.7357 114.371 19.918C114.353 19.9727 114.28 20.0365 114.152 20.1094C114.043 20.1641 113.943 20.2188 113.852 20.2734C113.76 20.3464 113.432 20.638 112.867 21.1484L111.09 22.6797C110.78 22.9349 110.625 23.1354 110.625 23.2812C110.625 23.3542 110.771 23.4727 111.062 23.6367C111.409 23.8555 112.083 24.3021 113.086 24.9766C113.469 25.2318 113.833 25.5143 114.18 25.8242C114.471 26.1159 114.617 26.4167 114.617 26.7266C114.617 26.8724 114.553 27 114.426 27.1094C114.353 27.1823 114.262 27.2188 114.152 27.2188ZM109.285 31.7852C109.085 31.7852 108.839 31.6302 108.547 31.3203C108.328 31.1016 108.219 30.9375 108.219 30.8281C108.219 30.7734 108.255 30.7461 108.328 30.7461C108.401 30.7279 108.492 30.7188 108.602 30.7188L109.203 30.6914C109.549 30.6914 109.777 30.6823 109.887 30.6641C110.233 30.6641 110.525 30.6549 110.762 30.6367C112.329 30.4909 113.387 30.3724 113.934 30.2812C114.207 30.2448 114.453 30.2083 114.672 30.1719C114.891 30.1172 115.064 30.0898 115.191 30.0898C115.447 30.0898 115.702 30.2174 115.957 30.4727C116.158 30.6732 116.258 30.8372 116.258 30.9648C116.258 31.0742 116.194 31.1471 116.066 31.1836C115.975 31.2018 115.438 31.2383 114.453 31.293C113.906 31.3112 113.232 31.3568 112.43 31.4297C111.628 31.5026 110.926 31.5755 110.324 31.6484C110.215 31.6667 110.06 31.694 109.859 31.7305C109.659 31.7669 109.467 31.7852 109.285 31.7852ZM113.359 37.8828C113.177 38.1198 112.986 38.2383 112.785 38.2383C112.73 38.2383 112.703 38.1927 112.703 38.1016C112.703 37.974 112.74 37.8281 112.812 37.6641C112.812 37.6641 112.995 37.2995 113.359 36.5703C113.378 36.4974 113.405 36.4245 113.441 36.3516C113.478 36.2786 113.505 36.2148 113.523 36.1602V36.1328C113.523 36.0964 113.496 36.0599 113.441 36.0234C113.387 35.987 113.323 35.9779 113.25 35.9961C112.958 36.0143 112.521 36.0599 111.938 36.1328C111.372 36.2057 110.953 36.2786 110.68 36.3516C110.57 36.388 110.434 36.4336 110.27 36.4883C110.124 36.543 110.005 36.5703 109.914 36.5703C109.586 36.5703 109.312 36.4701 109.094 36.2695C108.911 36.1419 108.775 36.0143 108.684 35.8867L108.629 35.75C108.629 35.6589 108.784 35.6315 109.094 35.668C109.513 35.7044 110.379 35.6497 111.691 35.5039L112.238 35.4219C112.384 35.4036 112.612 35.3763 112.922 35.3398C113.25 35.2852 113.505 35.2305 113.688 35.1758C113.742 35.1576 113.797 35.1393 113.852 35.1211C113.924 35.0846 113.988 35.0664 114.043 35.0664C114.134 35.0664 114.243 35.112 114.371 35.2031C114.517 35.2943 114.635 35.3763 114.727 35.4492C114.854 35.5404 114.936 35.6224 114.973 35.6953C115.027 35.75 115.046 35.8229 115.027 35.9141C115.027 36.0052 114.982 36.0872 114.891 36.1602C114.799 36.2331 114.736 36.2878 114.699 36.3242C114.663 36.3789 114.535 36.5156 114.316 36.7344C114.225 36.8802 114.061 37.0807 113.824 37.3359C113.605 37.5911 113.451 37.7734 113.359 37.8828ZM111.992 43.2695C111.992 43.2148 112.083 43.069 112.266 42.832C112.466 42.6133 112.621 42.4401 112.73 42.3125C113.004 41.9479 113.332 41.4193 113.715 40.7266C114.116 40.0339 114.344 39.5781 114.398 39.3594C114.435 39.25 114.38 39.1953 114.234 39.1953C113.943 39.1953 113.141 39.2773 111.828 39.4414C110.971 39.5508 110.333 39.6602 109.914 39.7695C109.823 39.8242 109.732 39.8516 109.641 39.8516C109.495 39.8516 109.34 39.7513 109.176 39.5508C109.103 39.4232 109.066 39.3047 109.066 39.1953C109.066 39.1224 109.112 39.0495 109.203 38.9766L109.285 38.8672C109.34 38.7578 109.404 38.612 109.477 38.4297C109.549 38.2474 109.613 38.0742 109.668 37.9102C109.759 37.6185 109.823 37.2995 109.859 36.9531C109.878 36.7526 109.987 36.6979 110.188 36.7891C110.443 36.9167 110.634 37.0443 110.762 37.1719C110.908 37.2812 110.953 37.3633 110.898 37.418C110.716 37.6367 110.57 37.8828 110.461 38.1562C110.37 38.4479 110.315 38.6393 110.297 38.7305C110.297 38.8034 110.342 38.8398 110.434 38.8398C110.707 38.8398 111.117 38.7943 111.664 38.7031C111.974 38.6667 112.357 38.6211 112.812 38.5664C113.268 38.5117 113.633 38.457 113.906 38.4023L114.59 38.2656C114.645 38.2474 114.717 38.2383 114.809 38.2383C114.9 38.2383 114.991 38.2747 115.082 38.3477C115.173 38.4023 115.273 38.4753 115.383 38.5664C115.565 38.7305 115.684 38.8672 115.738 38.9766C115.793 39.0677 115.82 39.1771 115.82 39.3047C115.82 39.3776 115.766 39.4688 115.656 39.5781C115.565 39.6875 115.456 39.8607 115.328 40.0977C114.799 41.1732 114.116 42.0755 113.277 42.8047C113.04 42.987 112.776 43.1419 112.484 43.2695C112.357 43.306 112.238 43.3242 112.129 43.3242C112.038 43.3424 111.992 43.3242 111.992 43.2695ZM120.742 30.6367C120.961 30.6367 121.07 30.737 121.07 30.9375C121.07 31.0469 120.97 31.2018 120.77 31.4023C120.223 32.0768 119.138 33.362 117.516 35.2578C117.388 35.4219 117.27 35.5039 117.16 35.5039C117.069 35.5039 116.868 35.3672 116.559 35.0938C116.303 34.875 116.176 34.6927 116.176 34.5469C116.176 34.3828 116.312 34.2279 116.586 34.082C117.005 33.8451 117.634 33.3711 118.473 32.6602C119.311 31.9128 119.931 31.3203 120.332 30.8828C120.496 30.7188 120.633 30.6367 120.742 30.6367ZM84.4844 25.8789C83.974 25.9154 83.6549 25.9336 83.5273 25.9336C83.2357 25.9336 82.9805 25.8789 82.7617 25.7695C82.543 25.6602 82.3333 25.4596 82.1328 25.168C82.0234 25.0039 81.9414 24.8398 81.8867 24.6758L81.832 24.457C81.832 24.3659 81.8958 24.3203 82.0234 24.3203L82.2148 24.3477C82.6341 24.4206 83.0625 24.457 83.5 24.457H83.8555L91.0742 24.0469L90.8281 23.7461C89.9714 22.7253 89.0326 21.7865 88.0117 20.9297C87.8294 20.7656 87.7383 20.6107 87.7383 20.4648C87.7383 20.2826 87.8294 20.0911 88.0117 19.8906C88.2122 19.6719 88.3763 19.5625 88.5039 19.5625C88.6497 19.5625 89.0599 19.8177 89.7344 20.3281C90.4089 20.8385 91.0286 21.3763 91.5938 21.9414C92.1771 22.5065 92.4688 22.9076 92.4688 23.1445C92.4688 23.2904 92.3958 23.4635 92.25 23.6641C92.1224 23.8646 92.0312 23.974 91.9766 23.9922L94.4102 23.8555C95.7044 22.6341 96.6523 21.6042 97.2539 20.7656C97.8555 19.9271 98.1562 19.3164 98.1562 18.9336V18.8789C98.1562 18.6784 98.2109 18.5781 98.3203 18.5781C98.4297 18.5781 98.6029 18.6693 98.8398 18.8516C99.0951 19.0156 99.3229 19.2253 99.5234 19.4805C99.724 19.7174 99.8242 19.9362 99.8242 20.1367C99.8242 20.3372 99.4688 20.8294 98.7578 21.6133C98.0651 22.3789 97.3542 23.0807 96.625 23.7188L102.559 23.3906C103.051 23.3724 103.516 23.2812 103.953 23.1172C104.062 23.0807 104.154 23.0625 104.227 23.0625C104.482 23.0625 104.81 23.2266 105.211 23.5547C105.612 23.8646 105.812 24.1471 105.812 24.4023C105.812 24.6029 105.63 24.7214 105.266 24.7578L84.4844 25.8789ZM81.9414 43.4609C81.9414 43.2422 82.0417 42.9961 82.2422 42.7227C83.0443 41.6471 83.6732 40.5898 84.1289 39.5508C84.5846 38.4935 84.9128 37.2812 85.1133 35.9141C85.332 34.5469 85.4414 32.8607 85.4414 30.8555C85.4414 29.9258 85.4232 29.3151 85.3867 29.0234C85.3685 28.7135 85.3047 28.4401 85.1953 28.2031C85.0677 28.0026 85.0039 27.8568 85.0039 27.7656C85.0039 27.6562 85.0859 27.6016 85.25 27.6016C85.5417 27.6016 85.9701 27.7109 86.5352 27.9297L92.25 27.5742H92.4414C92.7148 27.5742 92.9701 27.6562 93.207 27.8203C93.4622 27.9844 93.5898 28.2031 93.5898 28.4766C93.5898 28.5677 93.5716 28.668 93.5352 28.7773C93.5169 28.8685 93.5078 28.9688 93.5078 29.0781L93.5898 41.2188C93.5898 41.3828 93.599 41.5378 93.6172 41.6836C93.6354 41.8294 93.6445 41.957 93.6445 42.0664C93.6445 42.3763 93.5078 42.668 93.2344 42.9414C92.9792 43.2148 92.7331 43.3516 92.4961 43.3516C92.2409 43.3516 91.7669 43.151 91.0742 42.75C90.3997 42.349 89.7617 41.9115 89.1602 41.4375C88.5768 40.9818 88.2852 40.6628 88.2852 40.4805C88.2852 40.3711 88.3672 40.3164 88.5312 40.3164C88.6406 40.3164 88.832 40.362 89.1055 40.4531C90.1081 40.8542 91.0469 41.1641 91.9219 41.3828L91.8945 36.9258L86.5078 37.1992C86.2526 38.3112 85.8333 39.3594 85.25 40.3438C84.6667 41.3281 84.0651 42.1211 83.4453 42.7227C82.8438 43.3242 82.3971 43.6341 82.1055 43.6523C81.9961 43.6523 81.9414 43.5885 81.9414 43.4609ZM91.8945 35.4492V32.9609L87.0273 33.207C86.9727 34.082 86.8906 34.9115 86.7812 35.6953L91.8945 35.4492ZM91.8672 31.5391V29.0508L87.1367 29.3516L87.082 31.7852L91.8672 31.5391ZM96.1875 28.5039C96.1875 28.3945 96.2604 28.3398 96.4062 28.3398C96.5521 28.3398 96.8802 28.431 97.3906 28.6133C97.737 28.7409 97.9557 28.8776 98.0469 29.0234C98.138 29.151 98.1836 29.3333 98.1836 29.5703L98.293 37.8281C98.293 38.3021 98.1471 38.5391 97.8555 38.5391C97.7826 38.5391 97.6276 38.5026 97.3906 38.4297C97.1536 38.3385 96.9349 38.2109 96.7344 38.0469C96.5339 37.8828 96.4336 37.6823 96.4336 37.4453C96.4336 37.3177 96.4427 37.2174 96.4609 37.1445C96.5339 36.7253 96.5703 36.1237 96.5703 35.3398L96.543 30.2266C96.543 29.9167 96.5247 29.6523 96.4883 29.4336C96.4518 29.2148 96.3789 28.9961 96.2695 28.7773C96.2148 28.668 96.1875 28.5768 96.1875 28.5039ZM97.0625 40.0977C97.0625 39.9701 97.1445 39.9062 97.3086 39.9062C97.5091 39.9062 97.7826 39.9974 98.1289 40.1797C99.3138 40.7995 100.371 41.2188 101.301 41.4375L101.383 28.1211C101.383 27.5742 101.264 27.1003 101.027 26.6992C100.936 26.5169 100.891 26.3984 100.891 26.3438C100.891 26.2708 100.945 26.2344 101.055 26.2344C101.201 26.2344 101.592 26.3346 102.23 26.5352C102.577 26.6445 102.814 26.7721 102.941 26.918C103.087 27.0638 103.16 27.2552 103.16 27.4922L103.105 41.3008L103.133 42.2578C103.133 42.6589 102.987 42.9779 102.695 43.2148C102.404 43.4701 102.112 43.5977 101.82 43.5977C101.51 43.5977 100.973 43.3516 100.207 42.8594C99.4414 42.3672 98.7214 41.8294 98.0469 41.2461C97.3906 40.681 97.0625 40.2982 97.0625 40.0977Z" fill="#333333"/>
<path d="M157.164 29.8711C156.891 29.8711 156.626 29.6706 156.371 29.2695C156.043 28.7591 155.724 28.3398 155.414 28.0117L154.703 27.2734C154.32 27.7109 153.983 28.0573 153.691 28.3125C153.418 28.5677 153.072 28.8138 152.652 29.0508C151.868 29.5065 151.212 29.7344 150.684 29.7344C150.556 29.7344 150.492 29.6888 150.492 29.5977C150.492 29.543 150.665 29.4245 151.012 29.2422C151.358 29.0599 151.686 28.8411 151.996 28.5859C152.78 27.9297 153.427 27.2552 153.938 26.5625C153.828 26.4531 153.281 25.9792 152.297 25.1406C152.169 25.0495 151.978 24.8945 151.723 24.6758C151.668 24.6393 151.559 24.5573 151.395 24.4297C151.23 24.3021 151.148 24.2109 151.148 24.1562C151.148 24.0651 151.194 24.0195 151.285 24.0195C151.559 24.0195 151.996 24.2109 152.598 24.5938C153.199 24.9583 153.828 25.3958 154.484 25.9062C154.74 25.5964 154.94 25.3047 155.086 25.0312C155.232 24.7578 155.396 24.4206 155.578 24.0195C155.669 23.819 155.724 23.6458 155.742 23.5C155.76 23.3359 155.77 23.2357 155.77 23.1992C155.77 22.9987 155.824 22.8984 155.934 22.8984C156.061 22.8984 156.234 22.9987 156.453 23.1992C156.836 23.5638 157.027 23.8099 157.027 23.9375C157.027 24.0104 156.982 24.0924 156.891 24.1836C156.672 24.4023 156.471 24.694 156.289 25.0586C156.18 25.2773 155.979 25.5872 155.688 25.9883C155.596 26.0977 155.523 26.1979 155.469 26.2891C155.414 26.3802 155.359 26.4622 155.305 26.5352C155.724 26.8451 156.344 27.3737 157.164 28.1211C157.365 28.3034 157.492 28.4766 157.547 28.6406C157.62 28.7865 157.656 28.987 157.656 29.2422C157.656 29.4245 157.611 29.5794 157.52 29.707C157.428 29.8164 157.31 29.8711 157.164 29.8711ZM157.492 39.1133C157.747 39.2773 157.875 39.4323 157.875 39.5781C157.875 39.7786 157.72 39.9062 157.41 39.9609C157.1 40.0156 156.663 40.0521 156.098 40.0703C155.277 40.0885 154.749 40.0612 154.512 39.9883C154.111 39.806 153.91 39.5052 153.91 39.0859L153.938 38.0742C153.974 37.7461 153.992 37.4544 153.992 37.1992C154.01 37.0352 154.02 36.7161 154.02 36.2422C153.746 36.862 153.391 37.4635 152.953 38.0469C152.643 38.4297 152.37 38.7487 152.133 39.0039C151.896 39.2409 151.613 39.4688 151.285 39.6875C150.957 39.9062 150.656 40.0156 150.383 40.0156C150.219 40.0156 150.137 39.9609 150.137 39.8516C150.137 39.8333 150.31 39.6966 150.656 39.4414C151.021 39.168 151.385 38.7943 151.75 38.3203C152.297 37.5911 152.771 36.7344 153.172 35.75C152.461 35.8411 151.987 35.9232 151.75 35.9961C151.659 36.0143 151.577 36.0417 151.504 36.0781C151.431 36.0964 151.34 36.0964 151.23 36.0781C151.139 36.0417 151.012 35.9688 150.848 35.8594C150.684 35.7318 150.556 35.6133 150.465 35.5039C150.392 35.3945 150.355 35.3216 150.355 35.2852C150.355 35.194 150.492 35.1484 150.766 35.1484C151.44 35.1484 152.306 35.0755 153.363 34.9297C153.473 34.5104 153.527 33.8359 153.527 32.9062V32.3867C153.527 32.168 153.573 32.0495 153.664 32.0312C153.682 32.013 153.719 32.0039 153.773 32.0039C153.919 32.0039 154.12 32.1133 154.375 32.332C154.576 32.4961 154.703 32.6237 154.758 32.7148C154.831 32.7878 154.84 32.888 154.785 33.0156C154.767 33.0521 154.73 33.125 154.676 33.2344C154.621 33.3438 154.585 33.4531 154.566 33.5625C154.548 33.6536 154.512 33.8359 154.457 34.1094C154.402 34.3646 154.366 34.5924 154.348 34.793C154.603 34.7747 154.922 34.7383 155.305 34.6836C155.688 34.6289 155.97 34.5742 156.152 34.5195L156.699 34.3828C156.882 34.3464 157.182 34.5013 157.602 34.8477C157.674 34.9023 157.711 34.9661 157.711 35.0391C157.711 35.112 157.674 35.1758 157.602 35.2305C157.547 35.2669 157.474 35.2852 157.383 35.2852C157.055 35.2852 156.453 35.3398 155.578 35.4492L154.676 35.5312C154.876 35.6771 155.004 35.8047 155.059 35.9141C155.113 36.0234 155.122 36.1328 155.086 36.2422L155.004 36.6797C154.967 37.0443 154.931 37.4453 154.895 37.8828C154.876 38.3203 154.876 38.6576 154.895 38.8945C154.895 38.9857 154.949 39.0677 155.059 39.1406C155.186 39.2135 155.314 39.25 155.441 39.25C155.897 39.25 156.408 39.2044 156.973 39.1133L157.219 39.0586C157.328 39.0586 157.419 39.0768 157.492 39.1133ZM162.852 29.4336C162.906 29.4336 162.961 29.4609 163.016 29.5156C163.07 29.5521 163.107 29.6068 163.125 29.6797V29.7344C163.125 29.862 163.025 30.1081 162.824 30.4727L160.855 33.8906C160.71 34.2005 160.518 34.3555 160.281 34.3555C160.044 34.3555 159.844 34.2096 159.68 33.918C159.516 33.681 159.315 33.3255 159.078 32.8516C158.969 32.6875 158.878 32.5234 158.805 32.3594C158.732 32.1953 158.677 32.0768 158.641 32.0039C158.44 31.6576 158.34 31.4115 158.34 31.2656C158.34 31.1927 158.367 31.138 158.422 31.1016C158.477 31.0469 158.531 31.0195 158.586 31.0195C158.786 31.0195 158.969 31.1289 159.133 31.3477C159.26 31.4753 159.361 31.612 159.434 31.7578L159.734 32.168L160.281 32.7969L160.527 32.4141C160.783 31.9766 161.384 31.1107 162.332 29.8164C162.533 29.5612 162.706 29.4336 162.852 29.4336ZM140.703 24.0195C140.557 24.0195 140.375 23.9102 140.156 23.6914C138.898 22.3971 137.458 21.2031 135.836 20.1094C135.617 19.9453 135.508 19.7812 135.508 19.6172C135.508 19.4349 135.608 19.2344 135.809 19.0156C136.009 18.7969 136.173 18.6875 136.301 18.6875C136.556 18.6875 137.276 19.125 138.461 20C139.664 20.875 140.603 21.6224 141.277 22.2422C141.423 22.3698 141.523 22.4792 141.578 22.5703C141.651 22.6615 141.688 22.7617 141.688 22.8711C141.688 23.0534 141.569 23.2904 141.332 23.582C141.113 23.8737 140.904 24.0195 140.703 24.0195ZM123.066 37.4727C123.066 37.2721 123.212 36.9896 123.504 36.625C124.233 35.7135 125.062 34.5286 125.992 33.0703C126.94 31.612 127.742 30.2448 128.398 28.9688C129.073 27.6745 129.41 26.7904 129.41 26.3164V26.1797C129.41 25.888 129.529 25.7422 129.766 25.7422C130.057 25.7422 130.395 25.8971 130.777 26.207C131.16 26.5169 131.352 26.7812 131.352 27C131.352 27.2005 131.105 27.7474 130.613 28.6406C130.121 29.5156 129.611 30.3724 129.082 31.2109L129.164 43.2148C129.164 43.5612 128.991 43.7344 128.645 43.7344C128.335 43.7344 128.025 43.625 127.715 43.4062C127.405 43.1875 127.25 42.9232 127.25 42.6133C127.25 42.5039 127.259 42.4128 127.277 42.3398C127.368 41.8659 127.414 41.319 127.414 40.6992L127.496 33.5625C126.566 34.7839 125.701 35.7773 124.898 36.543C124.096 37.2904 123.549 37.6641 123.258 37.6641C123.13 37.6641 123.066 37.6003 123.066 37.4727ZM123.969 28.7773C123.969 28.5951 124.133 28.3125 124.461 27.9297C125.664 26.5443 126.794 24.9948 127.852 23.2812C128.927 21.5677 129.465 20.4284 129.465 19.8633V19.7812C129.465 19.4714 129.574 19.3164 129.793 19.3164C130.066 19.3164 130.413 19.4896 130.832 19.8359C131.251 20.1823 131.461 20.4648 131.461 20.6836C131.461 20.8112 131.424 20.9206 131.352 21.0117C130.24 22.8346 129.201 24.3112 128.234 25.4414C127.286 26.5716 126.503 27.3828 125.883 27.875C125.281 28.3672 124.88 28.6406 124.68 28.6953C124.461 28.8411 124.279 28.9141 124.133 28.9141C124.023 28.9141 123.969 28.8685 123.969 28.7773ZM129.984 40.5898C129.984 40.4805 130.048 40.4258 130.176 40.4258C130.267 40.4258 130.34 40.4349 130.395 40.4531C130.759 40.5443 131.224 40.5898 131.789 40.5898L138.078 40.4258L138.051 33.8359L135.043 34L134.223 34.0273C133.876 34.0273 133.648 33.9818 133.539 33.8906C132.938 33.3802 132.637 32.9154 132.637 32.4961C132.637 32.3867 132.691 32.332 132.801 32.332C132.874 32.332 132.938 32.3411 132.992 32.3594C133.302 32.4323 133.676 32.4688 134.113 32.4688H134.469L138.051 32.3047L138.023 26.5898L133.84 26.8086L132.938 26.8359C132.646 26.8359 132.445 26.7904 132.336 26.6992C132.008 26.4076 131.771 26.125 131.625 25.8516C131.479 25.5599 131.406 25.3594 131.406 25.25C131.406 25.1406 131.47 25.0859 131.598 25.0859C131.671 25.0859 131.734 25.0951 131.789 25.1133C132.099 25.1862 132.473 25.2227 132.91 25.2227H133.266L143.547 24.7031C143.966 24.6667 144.376 24.5846 144.777 24.457C144.814 24.4388 144.878 24.4297 144.969 24.4297C145.151 24.4297 145.461 24.6029 145.898 24.9492C146.336 25.2773 146.555 25.5508 146.555 25.7695C146.555 25.9883 146.345 26.1159 145.926 26.1523L139.801 26.4805L139.828 32.2227L142.672 32.0859C143.091 32.0495 143.501 31.9674 143.902 31.8398C144.012 31.8034 144.085 31.7852 144.121 31.7852C144.212 31.7852 144.385 31.8672 144.641 32.0312C144.914 32.1953 145.151 32.3776 145.352 32.5781C145.57 32.7786 145.68 32.9518 145.68 33.0977C145.68 33.3164 145.47 33.444 145.051 33.4805L139.828 33.7539L139.855 40.3984L145.434 40.2617C145.835 40.2617 146.245 40.1979 146.664 40.0703C146.701 40.0521 146.773 40.043 146.883 40.043C147.156 40.043 147.475 40.207 147.84 40.5352C148.223 40.8633 148.414 41.1458 148.414 41.3828C148.414 41.4922 148.35 41.5833 148.223 41.6562C148.095 41.7292 147.94 41.7747 147.758 41.793L132.363 42.1484L131.543 42.1758C131.142 42.1758 130.805 42.0208 130.531 41.7109C130.276 41.401 130.094 41.0273 129.984 40.5898Z" fill="#333333"/>
<path d="M199.164 29.8711C198.891 29.8711 198.626 29.6706 198.371 29.2695C198.043 28.7591 197.724 28.3398 197.414 28.0117L196.703 27.2734C196.32 27.7109 195.983 28.0573 195.691 28.3125C195.418 28.5677 195.072 28.8138 194.652 29.0508C193.868 29.5065 193.212 29.7344 192.684 29.7344C192.556 29.7344 192.492 29.6888 192.492 29.5977C192.492 29.543 192.665 29.4245 193.012 29.2422C193.358 29.0599 193.686 28.8411 193.996 28.5859C194.78 27.9297 195.427 27.2552 195.938 26.5625C195.828 26.4531 195.281 25.9792 194.297 25.1406C194.169 25.0495 193.978 24.8945 193.723 24.6758C193.668 24.6393 193.559 24.5573 193.395 24.4297C193.23 24.3021 193.148 24.2109 193.148 24.1562C193.148 24.0651 193.194 24.0195 193.285 24.0195C193.559 24.0195 193.996 24.2109 194.598 24.5938C195.199 24.9583 195.828 25.3958 196.484 25.9062C196.74 25.5964 196.94 25.3047 197.086 25.0312C197.232 24.7578 197.396 24.4206 197.578 24.0195C197.669 23.819 197.724 23.6458 197.742 23.5C197.76 23.3359 197.77 23.2357 197.77 23.1992C197.77 22.9987 197.824 22.8984 197.934 22.8984C198.061 22.8984 198.234 22.9987 198.453 23.1992C198.836 23.5638 199.027 23.8099 199.027 23.9375C199.027 24.0104 198.982 24.0924 198.891 24.1836C198.672 24.4023 198.471 24.694 198.289 25.0586C198.18 25.2773 197.979 25.5872 197.688 25.9883C197.596 26.0977 197.523 26.1979 197.469 26.2891C197.414 26.3802 197.359 26.4622 197.305 26.5352C197.724 26.8451 198.344 27.3737 199.164 28.1211C199.365 28.3034 199.492 28.4766 199.547 28.6406C199.62 28.7865 199.656 28.987 199.656 29.2422C199.656 29.4245 199.611 29.5794 199.52 29.707C199.428 29.8164 199.31 29.8711 199.164 29.8711ZM199.492 39.1133C199.747 39.2773 199.875 39.4323 199.875 39.5781C199.875 39.7786 199.72 39.9062 199.41 39.9609C199.1 40.0156 198.663 40.0521 198.098 40.0703C197.277 40.0885 196.749 40.0612 196.512 39.9883C196.111 39.806 195.91 39.5052 195.91 39.0859L195.938 38.0742C195.974 37.7461 195.992 37.4544 195.992 37.1992C196.01 37.0352 196.02 36.7161 196.02 36.2422C195.746 36.862 195.391 37.4635 194.953 38.0469C194.643 38.4297 194.37 38.7487 194.133 39.0039C193.896 39.2409 193.613 39.4688 193.285 39.6875C192.957 39.9062 192.656 40.0156 192.383 40.0156C192.219 40.0156 192.137 39.9609 192.137 39.8516C192.137 39.8333 192.31 39.6966 192.656 39.4414C193.021 39.168 193.385 38.7943 193.75 38.3203C194.297 37.5911 194.771 36.7344 195.172 35.75C194.461 35.8411 193.987 35.9232 193.75 35.9961C193.659 36.0143 193.577 36.0417 193.504 36.0781C193.431 36.0964 193.34 36.0964 193.23 36.0781C193.139 36.0417 193.012 35.9688 192.848 35.8594C192.684 35.7318 192.556 35.6133 192.465 35.5039C192.392 35.3945 192.355 35.3216 192.355 35.2852C192.355 35.194 192.492 35.1484 192.766 35.1484C193.44 35.1484 194.306 35.0755 195.363 34.9297C195.473 34.5104 195.527 33.8359 195.527 32.9062V32.3867C195.527 32.168 195.573 32.0495 195.664 32.0312C195.682 32.013 195.719 32.0039 195.773 32.0039C195.919 32.0039 196.12 32.1133 196.375 32.332C196.576 32.4961 196.703 32.6237 196.758 32.7148C196.831 32.7878 196.84 32.888 196.785 33.0156C196.767 33.0521 196.73 33.125 196.676 33.2344C196.621 33.3438 196.585 33.4531 196.566 33.5625C196.548 33.6536 196.512 33.8359 196.457 34.1094C196.402 34.3646 196.366 34.5924 196.348 34.793C196.603 34.7747 196.922 34.7383 197.305 34.6836C197.688 34.6289 197.97 34.5742 198.152 34.5195L198.699 34.3828C198.882 34.3464 199.182 34.5013 199.602 34.8477C199.674 34.9023 199.711 34.9661 199.711 35.0391C199.711 35.112 199.674 35.1758 199.602 35.2305C199.547 35.2669 199.474 35.2852 199.383 35.2852C199.055 35.2852 198.453 35.3398 197.578 35.4492L196.676 35.5312C196.876 35.6771 197.004 35.8047 197.059 35.9141C197.113 36.0234 197.122 36.1328 197.086 36.2422L197.004 36.6797C196.967 37.0443 196.931 37.4453 196.895 37.8828C196.876 38.3203 196.876 38.6576 196.895 38.8945C196.895 38.9857 196.949 39.0677 197.059 39.1406C197.186 39.2135 197.314 39.25 197.441 39.25C197.897 39.25 198.408 39.2044 198.973 39.1133L199.219 39.0586C199.328 39.0586 199.419 39.0768 199.492 39.1133ZM204.852 29.4336C204.906 29.4336 204.961 29.4609 205.016 29.5156C205.07 29.5521 205.107 29.6068 205.125 29.6797V29.7344C205.125 29.862 205.025 30.1081 204.824 30.4727L202.855 33.8906C202.71 34.2005 202.518 34.3555 202.281 34.3555C202.044 34.3555 201.844 34.2096 201.68 33.918C201.516 33.681 201.315 33.3255 201.078 32.8516C200.969 32.6875 200.878 32.5234 200.805 32.3594C200.732 32.1953 200.677 32.0768 200.641 32.0039C200.44 31.6576 200.34 31.4115 200.34 31.2656C200.34 31.1927 200.367 31.138 200.422 31.1016C200.477 31.0469 200.531 31.0195 200.586 31.0195C200.786 31.0195 200.969 31.1289 201.133 31.3477C201.26 31.4753 201.361 31.612 201.434 31.7578L201.734 32.168L202.281 32.7969L202.527 32.4141C202.783 31.9766 203.384 31.1107 204.332 29.8164C204.533 29.5612 204.706 29.4336 204.852 29.4336ZM177.18 22.6523L177.125 42.8047C177.125 43.3698 176.979 43.6523 176.688 43.6523C176.633 43.6523 176.478 43.6068 176.223 43.5156C175.986 43.4245 175.767 43.2878 175.566 43.1055C175.366 42.9414 175.266 42.7409 175.266 42.5039L175.293 42.2578C175.421 41.4375 175.484 40.7083 175.484 40.0703L175.621 23.1445C175.621 22.707 175.603 22.3333 175.566 22.0234C175.53 21.6953 175.448 21.3854 175.32 21.0938C175.247 20.875 175.211 20.7383 175.211 20.6836C175.211 20.5924 175.266 20.5469 175.375 20.5469C175.612 20.5469 176.204 20.7656 177.152 21.2031L187.762 20.5195L188.145 20.4922C188.491 20.4922 188.764 20.6107 188.965 20.8477C189.184 21.0846 189.293 21.276 189.293 21.4219C189.293 21.4948 189.266 21.6042 189.211 21.75C189.156 21.8776 189.129 21.987 189.129 22.0781L189.156 41.1367L189.184 42.0391C189.184 42.4583 189.047 42.7956 188.773 43.0508C188.5 43.306 188.217 43.4336 187.926 43.4336C187.634 43.4336 187.069 43.1784 186.23 42.668C185.41 42.1758 184.654 41.6289 183.961 41.0273C183.268 40.444 182.922 40.0247 182.922 39.7695C182.922 39.6784 182.986 39.6328 183.113 39.6328C183.35 39.6328 183.669 39.7331 184.07 39.9336C185.219 40.4987 186.367 40.9362 187.516 41.2461L187.488 22.0234L177.18 22.6523ZM165.449 41.3828C165.449 41.237 165.504 41 165.613 40.6719C166.051 39.3776 166.424 37.8372 166.734 36.0508C166.789 35.7956 166.853 35.6224 166.926 35.5312C166.999 35.4401 167.099 35.3945 167.227 35.3945C167.391 35.3945 167.582 35.4492 167.801 35.5586C168.038 35.6497 168.156 35.7865 168.156 35.9688C168.156 36.3151 168.056 37.0898 167.855 38.293C167.655 39.4961 167.4 40.599 167.09 41.6016C166.98 42.0208 166.826 42.2305 166.625 42.2305C166.424 42.2305 166.178 42.1393 165.887 41.957C165.595 41.7747 165.449 41.5833 165.449 41.3828ZM165.668 32.7969C165.668 32.6693 165.823 32.5052 166.133 32.3047C166.406 32.0859 166.561 31.9583 166.598 31.9219C166.853 31.7031 167.327 31.1654 168.02 30.3086C168.73 29.4518 169.451 28.5312 170.18 27.5469L168.73 27.7109C167.345 27.8568 166.561 27.9297 166.379 27.9297C166.197 27.9297 166.033 27.8021 165.887 27.5469C165.741 27.2917 165.668 27.0547 165.668 26.8359C165.668 26.763 165.695 26.6992 165.75 26.6445C165.823 26.5898 165.887 26.5443 165.941 26.5078C166.014 26.4531 166.069 26.4167 166.105 26.3984C166.342 26.2526 166.589 26.0247 166.844 25.7148C167.044 25.4961 167.409 24.9674 167.938 24.1289C168.484 23.2721 168.977 22.4154 169.414 21.5586C169.852 20.6836 170.07 20.0365 170.07 19.6172C170.07 19.3984 170.161 19.2891 170.344 19.2891C170.508 19.2891 170.763 19.4076 171.109 19.6445C171.474 19.8815 171.656 20.1094 171.656 20.3281C171.656 20.5469 171.602 20.7656 171.492 20.9844C171.383 21.2031 171.319 21.3398 171.301 21.3945C171.064 21.9049 170.608 22.6888 169.934 23.7461C169.259 24.8034 168.63 25.7057 168.047 26.4531C168.758 26.3802 169.815 26.2526 171.219 26.0703C172.24 24.5755 172.759 23.6458 172.777 23.2812C172.777 23.026 172.859 22.8984 173.023 22.8984C173.206 22.8984 173.452 23.026 173.762 23.2812C174.072 23.5182 174.227 23.7461 174.227 23.9648C174.227 24.0742 174.172 24.2201 174.062 24.4023C173.953 24.5846 173.871 24.7122 173.816 24.7852C173.452 25.4414 172.622 26.6445 171.328 28.3945C170.034 30.1445 169.022 31.4023 168.293 32.168C168.931 32.0586 170.234 31.7305 172.203 31.1836C172.094 30.9648 172.003 30.7643 171.93 30.582C171.857 30.3997 171.793 30.2539 171.738 30.1445C171.629 29.9805 171.574 29.8346 171.574 29.707C171.592 29.543 171.693 29.4062 171.875 29.2969C172.057 29.1875 172.23 29.1328 172.395 29.1328C172.668 29.1328 172.868 29.2422 172.996 29.4609C173.288 29.8984 173.634 30.5638 174.035 31.457C174.436 32.3503 174.637 32.8971 174.637 33.0977C174.637 33.3346 174.491 33.5169 174.199 33.6445C173.926 33.7721 173.698 33.8359 173.516 33.8359C173.333 33.8177 173.197 33.681 173.105 33.4258L172.75 32.4688L172.094 32.6328C169.013 33.5078 167.208 33.9453 166.68 33.9453C166.424 33.9453 166.188 33.8086 165.969 33.5352C165.768 33.2617 165.668 33.0156 165.668 32.7969ZM169.113 35.3945C169.113 35.194 169.214 35.0573 169.414 34.9844C169.633 34.9115 169.824 34.875 169.988 34.875C170.134 34.875 170.243 34.9297 170.316 35.0391C170.408 35.1302 170.48 35.2852 170.535 35.5039L170.645 36.0508C170.809 36.7435 170.982 37.5365 171.164 38.4297C171.346 39.3047 171.438 39.8698 171.438 40.125C171.438 40.4349 171.292 40.6536 171 40.7812C170.727 40.8906 170.499 40.9453 170.316 40.9453C170.152 40.9453 170.034 40.8815 169.961 40.7539C169.888 40.6263 169.833 40.4167 169.797 40.125C169.615 38.3385 169.414 36.9805 169.195 36.0508C169.141 35.7773 169.113 35.5586 169.113 35.3945ZM171.82 34.793C171.82 34.7018 171.893 34.5924 172.039 34.4648C172.203 34.319 172.413 34.2461 172.668 34.2461C172.887 34.2461 173.078 34.4102 173.242 34.7383C173.625 35.5768 173.962 36.4518 174.254 37.3633C174.564 38.2747 174.719 38.8854 174.719 39.1953C174.719 39.4505 174.582 39.6419 174.309 39.7695C174.053 39.8971 173.826 39.9609 173.625 39.9609C173.406 39.9609 173.224 39.724 173.078 39.25C172.75 37.8464 172.395 36.6159 172.012 35.5586C171.884 35.1758 171.82 34.9206 171.82 34.793ZM177.562 32.2227C177.562 32.1315 177.599 32.0859 177.672 32.0859C177.708 32.0859 177.736 32.0951 177.754 32.1133C178.246 32.2044 178.656 32.25 178.984 32.25H179.258L182.703 32.0312C181.992 31.5208 181.236 31.056 180.434 30.6367C180.288 30.5273 180.215 30.3906 180.215 30.2266C180.233 30.0807 180.297 29.9258 180.406 29.7617C180.534 29.5977 180.698 29.5247 180.898 29.543C180.971 29.543 181.299 29.6797 181.883 29.9531C182.466 30.2083 182.995 30.4909 183.469 30.8008C183.961 31.0924 184.198 31.3203 184.18 31.4844C184.18 31.5938 184.116 31.7487 183.988 31.9492L184.508 31.9219C185.055 31.8854 185.456 31.8307 185.711 31.7578C185.857 31.7214 185.966 31.7031 186.039 31.7031C186.258 31.7031 186.513 31.8398 186.805 32.1133C187.096 32.3685 187.242 32.6055 187.242 32.8242C187.242 33.0065 187.051 33.1159 186.668 33.1523L180.98 33.5078L180.926 35.6133V35.8594C180.926 36.1693 180.953 36.388 181.008 36.5156C181.081 36.6432 181.254 36.7435 181.527 36.8164C181.801 36.8711 182.247 36.8984 182.867 36.8984C183.396 36.8984 183.842 36.8711 184.207 36.8164C184.572 36.7617 184.909 36.6615 185.219 36.5156C185.31 36.4609 185.401 36.4336 185.492 36.4336C185.747 36.4336 186.03 36.5794 186.34 36.8711C186.668 37.1628 186.832 37.3997 186.832 37.582C186.832 37.7096 186.768 37.819 186.641 37.9102C186.513 38.0013 186.349 38.056 186.148 38.0742C184.49 38.2383 183.296 38.3203 182.566 38.3203C181.71 38.3203 181.053 38.2565 180.598 38.1289C180.142 37.9831 179.814 37.7643 179.613 37.4727C179.431 37.1628 179.34 36.7253 179.34 36.1602V35.832L179.449 33.5898L178.957 33.6172C178.501 33.6172 178.164 33.4714 177.945 33.1797C177.745 32.888 177.626 32.6328 177.59 32.4141C177.572 32.3594 177.562 32.2956 177.562 32.2227ZM177.617 27.875C177.617 27.7656 177.681 27.7109 177.809 27.7109C177.9 27.7109 177.982 27.7292 178.055 27.7656C178.237 27.8568 178.51 27.9023 178.875 27.9023H179.148L182.074 27.7383C182.639 26.6445 183.049 25.7878 183.305 25.168C183.56 24.5299 183.733 23.8464 183.824 23.1172C183.861 22.9167 183.943 22.8164 184.07 22.8164C184.307 22.8164 184.608 22.9805 184.973 23.3086C185.355 23.6367 185.547 23.8737 185.547 24.0195C185.547 24.1654 185.346 24.612 184.945 25.3594C184.544 26.0885 184.043 26.8542 183.441 27.6562L184.727 27.6016C185.109 27.5651 185.41 27.5104 185.629 27.4375C185.775 27.3828 185.893 27.3555 185.984 27.3555C186.258 27.3555 186.531 27.5013 186.805 27.793C187.078 28.0846 187.215 28.3034 187.215 28.4492C187.215 28.668 186.987 28.7956 186.531 28.832L179.477 29.1875H179.148C178.747 29.1875 178.465 29.1237 178.301 28.9961C178.1 28.8685 177.936 28.6771 177.809 28.4219C177.681 28.1484 177.617 27.9661 177.617 27.875ZM178.547 23.9375C178.547 23.7552 178.656 23.6003 178.875 23.4727C179.094 23.3451 179.276 23.2812 179.422 23.2812C179.586 23.2812 179.868 23.5091 180.27 23.9648C180.689 24.4206 181.072 24.9128 181.418 25.4414C181.783 25.9701 181.965 26.3164 181.965 26.4805C181.965 26.6628 181.828 26.8359 181.555 27C181.281 27.1641 181.072 27.2461 180.926 27.2461C180.816 27.2461 180.716 27.2005 180.625 27.1094C180.534 27.0182 180.424 26.8633 180.297 26.6445C180.023 26.1523 179.513 25.4141 178.766 24.4297C178.62 24.2474 178.547 24.0833 178.547 23.9375Z" fill="#333333"/>
<path d="M235.23 30.6367C234.957 30.6367 234.711 30.5273 234.492 30.3086C234.219 30.1081 234.082 29.9531 234.082 29.8438C234.082 29.7161 234.292 29.6523 234.711 29.6523L236.051 29.5703L237.418 29.4336C237.454 29.1419 237.473 28.5859 237.473 27.7656C237.527 27.7656 237.245 27.8021 236.625 27.875L236.105 27.957C235.941 28.0299 235.796 28.0664 235.668 28.0664C235.559 28.0664 235.467 28.0299 235.395 27.957C235.103 27.7018 234.957 27.4831 234.957 27.3008V26.0156C234.957 25.888 234.911 25.3958 234.82 24.5391L234.793 24.2383C234.793 24.0924 234.82 24.0013 234.875 23.9648C234.93 23.9284 235.03 23.9284 235.176 23.9648C235.723 24.1107 235.987 24.2747 235.969 24.457L235.941 24.6484C235.905 24.9036 235.887 25.2318 235.887 25.6328C235.887 26.1068 235.896 26.4076 235.914 26.5352C235.951 26.8997 235.969 27.0729 235.969 27.0547C235.987 27.1276 236.051 27.1641 236.16 27.1641C236.27 27.1641 236.488 27.1367 236.816 27.082C237.163 27.0091 237.391 26.9635 237.5 26.9453V24.5391C237.5 23.8646 237.473 23.4089 237.418 23.1719C237.382 22.9896 237.363 22.8893 237.363 22.8711C237.363 22.7435 237.409 22.6797 237.5 22.6797C237.536 22.6797 237.664 22.7161 237.883 22.7891C238.229 22.9531 238.457 23.099 238.566 23.2266C238.694 23.3542 238.74 23.4909 238.703 23.6367C238.648 23.819 238.612 24.1836 238.594 24.7305C238.557 25.168 238.521 25.8789 238.484 26.8633L239.414 26.8359C239.596 26.8359 239.733 26.8268 239.824 26.8086C239.915 26.7904 239.961 26.7539 239.961 26.6992C240.089 26.0065 240.171 25.4049 240.207 24.8945L240.234 24.5664C240.253 24.5299 240.253 24.4661 240.234 24.375C240.234 24.2839 240.234 24.2201 240.234 24.1836L240.207 23.9922C240.207 23.8281 240.271 23.7461 240.398 23.7461C240.471 23.7461 240.626 23.819 240.863 23.9648C240.918 24.0013 240.991 24.056 241.082 24.1289C241.191 24.1836 241.264 24.2474 241.301 24.3203C241.337 24.375 241.355 24.4479 241.355 24.5391C241.355 24.6484 241.346 24.7396 241.328 24.8125L241.027 26.3438L240.945 26.9727C240.872 27.3919 240.654 27.6198 240.289 27.6562C240.18 27.638 240.089 27.6107 240.016 27.5742C239.961 27.5378 239.915 27.5195 239.879 27.5195C239.66 27.5195 239.204 27.5651 238.512 27.6562L238.484 29.3516L238.949 29.3242L239.387 29.2969C240.061 29.2969 240.562 29.2604 240.891 29.1875C241.036 29.1875 241.164 29.1693 241.273 29.1328L241.355 29.1055C241.538 29.1055 241.729 29.2331 241.93 29.4883C242.167 29.7253 242.285 29.8984 242.285 30.0078C242.285 30.1719 242.03 30.2266 241.52 30.1719L240.48 30.1172H239.113C238.84 30.1172 238.339 30.1536 237.609 30.2266C237.227 30.2266 236.88 30.2448 236.57 30.2812C236.26 30.3177 235.969 30.3815 235.695 30.4727L235.23 30.6367ZM239.359 34.875C239.177 35.112 238.986 35.2305 238.785 35.2305C238.73 35.2305 238.703 35.1849 238.703 35.0938C238.703 34.9661 238.74 34.8203 238.812 34.6562C238.812 34.6562 238.995 34.2917 239.359 33.5625C239.378 33.4896 239.405 33.4167 239.441 33.3438C239.478 33.2708 239.505 33.207 239.523 33.1523V33.125C239.523 33.0885 239.496 33.0521 239.441 33.0156C239.387 32.9792 239.323 32.9701 239.25 32.9883C238.958 33.0065 238.521 33.0521 237.938 33.125C237.372 33.1979 236.953 33.2708 236.68 33.3438C236.57 33.3802 236.434 33.4258 236.27 33.4805C236.124 33.5352 236.005 33.5625 235.914 33.5625C235.586 33.5625 235.312 33.4622 235.094 33.2617C234.911 33.1341 234.775 33.0065 234.684 32.8789L234.629 32.7422C234.629 32.651 234.784 32.6237 235.094 32.6602C235.513 32.6966 236.379 32.6419 237.691 32.4961L238.238 32.4141C238.384 32.3958 238.612 32.3685 238.922 32.332C239.25 32.2773 239.505 32.2227 239.688 32.168C239.742 32.1497 239.797 32.1315 239.852 32.1133C239.924 32.0768 239.988 32.0586 240.043 32.0586C240.134 32.0586 240.243 32.1042 240.371 32.1953C240.517 32.2865 240.635 32.3685 240.727 32.4414C240.854 32.5326 240.936 32.6146 240.973 32.6875C241.027 32.7422 241.046 32.8151 241.027 32.9062C241.027 32.9974 240.982 33.0794 240.891 33.1523C240.799 33.2253 240.736 33.2799 240.699 33.3164C240.663 33.3711 240.535 33.5078 240.316 33.7266C240.225 33.8724 240.061 34.0729 239.824 34.3281C239.605 34.5833 239.451 34.7656 239.359 34.875ZM237.992 40.2617C237.992 40.207 238.083 40.0703 238.266 39.8516C238.466 39.6146 238.621 39.4323 238.73 39.3047C239.004 38.9401 239.332 38.4115 239.715 37.7188C240.116 37.026 240.344 36.5703 240.398 36.3516C240.435 36.2422 240.38 36.1875 240.234 36.1875C239.943 36.1875 239.141 36.2695 237.828 36.4336C236.971 36.543 236.333 36.6523 235.914 36.7617C235.823 36.8164 235.732 36.8438 235.641 36.8438C235.495 36.8438 235.34 36.7435 235.176 36.543C235.103 36.4154 235.066 36.2969 235.066 36.1875C235.066 36.1146 235.112 36.0417 235.203 35.9688L235.285 35.8594C235.34 35.75 235.404 35.6042 235.477 35.4219C235.549 35.2396 235.613 35.0664 235.668 34.9023C235.759 34.6107 235.823 34.2917 235.859 33.9453C235.878 33.7448 235.987 33.6901 236.188 33.7812C236.443 33.9089 236.634 34.0365 236.762 34.1641C236.908 34.2734 236.953 34.3555 236.898 34.4102C236.716 34.6289 236.57 34.875 236.461 35.1484C236.37 35.4401 236.315 35.6315 236.297 35.7227C236.297 35.7956 236.342 35.832 236.434 35.832C236.707 35.832 237.117 35.7865 237.664 35.6953C237.974 35.6589 238.357 35.6133 238.812 35.5586C239.268 35.5039 239.633 35.4492 239.906 35.3945L240.59 35.2578C240.645 35.2396 240.717 35.2305 240.809 35.2305C240.9 35.2305 240.991 35.2669 241.082 35.3398C241.173 35.3945 241.273 35.4674 241.383 35.5586C241.565 35.7227 241.684 35.8594 241.738 35.9688C241.793 36.0599 241.82 36.1693 241.82 36.2969C241.82 36.3698 241.766 36.4609 241.656 36.5703C241.565 36.6797 241.456 36.8529 241.328 37.0898C240.799 38.1654 240.116 39.0677 239.277 39.7969C239.04 39.9792 238.776 40.1341 238.484 40.2617C238.357 40.2982 238.238 40.3255 238.129 40.3438C238.038 40.3438 237.992 40.3164 237.992 40.2617ZM243.242 29.8164C243.333 29.8164 243.47 29.8802 243.652 30.0078C243.634 30.0443 243.671 30.1172 243.762 30.2266C243.853 30.3177 243.917 30.3815 243.953 30.418C244.044 30.5091 244.135 30.6185 244.227 30.7461C244.336 30.8737 244.454 31.0104 244.582 31.1562C244.91 31.5026 245.667 32.4049 246.852 33.8633C247.052 34.1549 247.152 34.3281 247.152 34.3828C247.152 34.5651 247.043 34.6562 246.824 34.6562C246.697 34.6562 246.56 34.5651 246.414 34.3828C246.068 34.0182 245.448 33.444 244.555 32.6602C243.862 32.0221 243.233 31.5299 242.668 31.1836C242.395 31.056 242.258 30.9102 242.258 30.7461C242.258 30.6185 242.395 30.4362 242.668 30.1992C242.923 29.944 243.115 29.8164 243.242 29.8164ZM221.641 42.3945V42.4766C221.641 42.6406 221.595 42.7773 221.504 42.8867C221.413 42.9961 221.285 43.0508 221.121 43.0508C220.738 42.9779 220.41 42.8503 220.137 42.668C219.863 42.5039 219.727 42.2852 219.727 42.0117L219.754 41.793C219.79 41.319 219.809 40.9362 219.809 40.6445V40.2344L219.453 34.3555C219.417 33.6445 219.335 33.1615 219.207 32.9062C219.116 32.724 219.07 32.5872 219.07 32.4961C219.07 32.3503 219.18 32.2773 219.398 32.2773C219.708 32.2773 220.301 32.4323 221.176 32.7422L223.445 32.6328L223.391 21.3672C223.391 21.0026 223.281 20.6289 223.062 20.2461C222.99 20.1549 222.953 20.0547 222.953 19.9453C222.953 19.8177 223.053 19.7539 223.254 19.7539C223.564 19.7539 223.956 19.8359 224.43 20C224.922 20.1641 225.168 20.4102 225.168 20.7383L225.113 26.3438L229.023 26.125C229.37 26.1068 229.689 26.0339 229.98 25.9062C230.126 25.8516 230.245 25.8242 230.336 25.8242C230.609 25.8242 230.901 25.9792 231.211 26.2891C231.521 26.599 231.676 26.8724 231.676 27.1094C231.676 27.3464 231.439 27.4831 230.965 27.5195L225.113 27.793L225.059 32.5781L228.859 32.4141C228.932 32.3958 229.042 32.3867 229.188 32.3867C229.406 32.3867 229.661 32.4961 229.953 32.7148C230.263 32.9154 230.418 33.1523 230.418 33.4258C230.418 33.5169 230.382 33.6354 230.309 33.7812C230.236 33.9089 230.199 34.0091 230.199 34.082L229.324 39.6875C229.78 40.2526 230.008 40.6445 230.008 40.8633C230.008 41.0091 229.944 41.1003 229.816 41.1367C229.707 41.1914 229.534 41.2188 229.297 41.2188L221.586 41.4102L221.641 42.3945ZM207.203 37.8828C207.203 37.7552 207.322 37.6914 207.559 37.6914C208.525 37.6185 210.421 37.2174 213.246 36.4883C213.884 34.5378 214.349 32.9245 214.641 31.6484C214.932 30.3724 215.078 29.5247 215.078 29.1055C215.078 28.8138 215.042 28.5677 214.969 28.3672L214.914 28.1211C214.914 27.9388 215.014 27.8477 215.215 27.8477C215.47 27.8477 215.826 27.957 216.281 28.1758C216.591 28.3216 216.801 28.4492 216.91 28.5586C217.02 28.668 217.074 28.7865 217.074 28.9141C217.074 28.987 216.983 29.3607 216.801 30.0352C216.637 30.6914 216.372 31.5482 216.008 32.6055C215.643 33.6628 215.178 34.8294 214.613 36.1055C215.707 35.7956 216.746 35.4766 217.73 35.1484C217.986 35.0573 218.232 35.0117 218.469 35.0117C218.706 35.0117 218.824 35.0755 218.824 35.2031C218.824 35.4583 218.086 35.9141 216.609 36.5703C215.133 37.2266 213.529 37.8646 211.797 38.4844C210.083 39.0859 209.062 39.3867 208.734 39.3867C208.534 39.3867 208.315 39.2956 208.078 39.1133C207.841 38.9128 207.632 38.694 207.449 38.457C207.285 38.2018 207.203 38.0104 207.203 37.8828ZM207.641 26.0703C207.641 25.9427 207.704 25.8789 207.832 25.8789C207.905 25.8789 207.96 25.888 207.996 25.9062C208.306 25.9792 208.671 26.0156 209.09 26.0156H209.445L216.062 25.6055C216.518 25.569 216.919 25.4961 217.266 25.3867C217.302 25.3685 217.366 25.3594 217.457 25.3594C217.639 25.3594 217.922 25.5052 218.305 25.7969C218.688 26.0703 218.879 26.3255 218.879 26.5625C218.879 26.7812 218.678 26.9089 218.277 26.9453L209.992 27.4922C209.792 27.5104 209.536 27.5195 209.227 27.5195C208.844 27.5195 208.589 27.4648 208.461 27.3555C208.078 27.0273 207.823 26.681 207.695 26.3164L207.641 26.0703ZM209.391 29.1055C209.391 28.9232 209.509 28.7773 209.746 28.668C210.001 28.5404 210.211 28.4766 210.375 28.4766C210.484 28.4766 210.566 28.513 210.621 28.5859C210.694 28.6406 210.776 28.7591 210.867 28.9414C211.396 30.0898 211.87 31.293 212.289 32.5508C212.727 33.8086 212.945 34.556 212.945 34.793C212.945 35.0299 212.809 35.2122 212.535 35.3398C212.28 35.4492 212.034 35.5039 211.797 35.5039C211.633 35.5039 211.505 35.4583 211.414 35.3672C211.323 35.2578 211.259 35.0938 211.223 34.875C210.749 32.7969 210.174 31.0104 209.5 29.5156C209.427 29.3698 209.391 29.2331 209.391 29.1055ZM210.73 21.7773C210.73 21.6315 210.803 21.4583 210.949 21.2578C211.113 21.0573 211.259 20.9388 211.387 20.9023C211.423 20.8841 211.478 20.875 211.551 20.875C211.678 20.875 211.824 20.9297 211.988 21.0391C212.025 21.0573 212.216 21.1667 212.562 21.3672C213.529 21.9141 214.322 22.388 214.941 22.7891C215.561 23.1901 215.898 23.4909 215.953 23.6914C216.008 23.9102 215.917 24.1562 215.68 24.4297C215.443 24.6849 215.242 24.8307 215.078 24.8672L214.969 24.8945C214.878 24.8945 214.714 24.8125 214.477 24.6484C212.836 23.4271 211.706 22.625 211.086 22.2422C210.977 22.1693 210.885 22.0964 210.812 22.0234C210.758 21.9505 210.73 21.8685 210.73 21.7773ZM221.477 39.8789L227.684 39.6875L228.395 33.9727L221.148 34.2461L221.477 39.8789Z" fill="#333333"/>
<g clip-path="url(#clip0_963_422)">
<path fill-rule="evenodd" clip-rule="evenodd" d="M260.2 24.6001C260.2 24.0478 260.648 23.6001 261.2 23.6001H267.6C268.152 23.6001 268.6 24.0478 268.6 24.6001C268.6 25.1524 268.152 25.6001 267.6 25.6001H262.2V38.8001H275.4V34.6001C275.4 34.0478 275.848 33.6001 276.4 33.6001C276.952 33.6001 277.4 34.0478 277.4 34.6001V39.8001C277.4 40.3524 276.952 40.8001 276.4 40.8001H261.2C260.648 40.8001 260.2 40.3524 260.2 39.8001V24.6001Z" fill="#333333"/>
<path fill-rule="evenodd" clip-rule="evenodd" d="M273.405 22.1005C273.46 21.551 273.95 21.15 274.5 21.205L278.5 21.605C278.969 21.6519 279.342 22.0207 279.394 22.4896L279.794 26.0896C279.855 26.6385 279.46 27.1329 278.911 27.1939C278.362 27.2549 277.867 26.8594 277.807 26.3105L277.636 24.7784L267.107 35.3071C266.717 35.6977 266.084 35.6977 265.693 35.3071C265.303 34.9166 265.303 34.2834 265.693 33.8929L276.201 23.3851L274.301 23.1951C273.751 23.1401 273.35 22.6501 273.405 22.1005Z" fill="#333333"/>
</g>
<defs>
<clipPath id="clip0_963_422">
<rect width="20" height="20" fill="white" transform="translate(260 21)"/>
</clipPath>
</defs>
</svg>
