<svg xmlns="http://www.w3.org/2000/svg" width="350" height="40" fill="none"><path fill="#333" d="M30.008 19.172c-.094 0-.227-.07-.399-.211a1.534 1.534 0 0 1-.234-.188c-.063-.062-.094-.117-.094-.164l.024-.375c.015-.14.023-.453.023-.937a60.864 60.864 0 0 1-.023-2.156c0-.438-.04-.836-.117-1.196l-.094-.562v-.07c0-.141.093-.18.281-.118.078.016.258.047.54.094.296-.047 1.288-.164 2.976-.351a6.976 6.976 0 0 0 .867-.165h.094c.171 0 .328.086.468.258.25.297.352.508.305.633-.063.156-.125.422-.188.797-.03.219-.07.594-.117 1.125v2.789c0 .14-.07.328-.21.563a.365.365 0 0 1-.188.187.491.491 0 0 1-.258.07c-.094 0-.164-.023-.21-.07a82.908 82.908 0 0 1-.095-.094.266.266 0 0 0-.093-.093c-.016-.016-.047-.024-.094-.024-.969 0-1.844.063-2.625.188a.772.772 0 0 1-.188.023.442.442 0 0 0-.14.023l-.164.024h-.047Zm.445-.867c.39-.016.922-.063 1.594-.14.312-.032.492-.048.539-.048h.187c.25 0 .438.047.563.14.11-.78.164-2.21.164-4.288-.031-.235-.125-.352-.281-.352-.297 0-.899.055-1.805.164-.094 0-.187.008-.281.024-.094.015-.188.03-.281.047-.266.046-.461.07-.586.07-.11 0-.149.055-.118.164l-.023.797c-.016.11-.023.21-.023.305.015.093.023.18.023.257.016.125.023.328.023.61 0 1.218.008 1.89.024 2.015 0 .11.031.18.094.211.062.032.125.04.187.024Zm1.735-1.313c-.172 0-.305-.086-.399-.258-.328-.547-.633-1-.914-1.359l-.164-.258c-.063-.094-.094-.164-.094-.21.016-.063.055-.087.117-.071.407.125.782.328 1.125.61.532.406.797.718.797.937 0 .11-.031.219-.093.328-.11.187-.235.281-.376.281Zm2.132 10.172c-.234 0-.46-.172-.68-.516a7.42 7.42 0 0 0-.82-1.078l-.61-.633a9.616 9.616 0 0 1-.866.891c-.235.219-.532.43-.89.633-.673.39-1.235.586-1.688.586-.11 0-.164-.04-.164-.117 0-.047.148-.149.445-.305.297-.156.578-.344.844-.563a10.11 10.11 0 0 0 1.664-1.734c-.094-.094-.563-.5-1.407-1.219a8.058 8.058 0 0 1-.492-.398 6.115 6.115 0 0 1-.281-.211c-.14-.11-.21-.188-.21-.234 0-.078.038-.118.116-.118.235 0 .61.165 1.125.493.516.312 1.055.687 1.617 1.125.22-.266.391-.516.516-.75.125-.235.266-.524.422-.868a1.59 1.59 0 0 0 .14-.445c.016-.14.024-.226.024-.258 0-.172.047-.258.14-.258.11 0 .258.086.446.258.328.313.492.524.492.633 0 .063-.039.133-.117.211-.188.188-.36.438-.516.75a6.296 6.296 0 0 1-.515.797c-.078.094-.14.18-.188.258a2.497 2.497 0 0 1-.14.21c.359.266.89.72 1.593 1.36.172.156.282.305.328.445.063.125.094.297.094.516 0 .156-.039.29-.117.398a.378.378 0 0 1-.305.141Zm4.782-10.125c.187 0 .28.086.28.258 0 .094-.085.226-.257.398-.469.578-1.398 1.68-2.79 3.305-.108.14-.21.21-.304.21-.078 0-.25-.116-.515-.35-.22-.188-.328-.344-.328-.47 0-.14.117-.273.351-.398.36-.203.898-.61 1.617-1.219.719-.64 1.25-1.148 1.594-1.523.14-.14.258-.21.352-.21Zm-22.547-1.266c.172 0 .304.032.398.094.11.047.164.11.164.188 0 .14-.11.258-.328.351-.219.078-.633.188-1.242.328a27.08 27.08 0 0 1-.89 4.102c-.407 1.344-1.032 2.656-1.876 3.937 2.11 1.875 3.164 2.985 3.164 3.329 0 .203-.117.414-.351.632-.219.22-.406.328-.563.328-.14 0-.297-.109-.469-.328a28.043 28.043 0 0 0-2.671-2.812 16.499 16.499 0 0 1-2.461 2.344c-.86.672-1.633 1.187-2.32 1.547-.688.375-1.126.562-1.313.562-.125 0-.188-.047-.188-.14 0-.188.164-.391.493-.61 1.796-1.25 3.414-2.781 4.851-4.594a38.706 38.706 0 0 0-1.898-1.64 2.746 2.746 0 0 0-.375-.235 2.371 2.371 0 0 1-.399-.304 1.062 1.062 0 0 1-.164-.446 1.395 1.395 0 0 1-.023-.304c0-.22.039-.461.117-.727.281-.86.594-2.008.937-3.445-.28.047-.789.125-1.523.234-.734.094-1.188.14-1.36.14-.234 0-.468-.109-.702-.327-.235-.22-.415-.555-.54-1.008a.327.327 0 0 1-.023-.14c0-.095.055-.142.164-.142l.094.024c.14.031.36.047.656.047.313 0 1.5-.086 3.563-.258.203-1 .39-2.078.562-3.234.172-1.157.258-1.954.258-2.391 0-.344-.055-.633-.164-.867a.986.986 0 0 1-.047-.164c0-.125.086-.188.258-.188.437.063.804.18 1.101.352.313.172.47.39.47.656v.164A52.195 52.195 0 0 1 11 16.36l3.164-.375c.016-.109.031-.234.047-.375.016-.14.023-.312.023-.515v-.211c0-.281-.046-.57-.14-.867a.607.607 0 0 1-.024-.188c0-.14.07-.21.211-.21.14 0 .406.085.797.257.266.125.445.234.54.328.093.094.14.235.14.422v.094c-.016.265-.055.64-.117 1.125l.726-.07h.188ZM9.43 22.008a29.998 29.998 0 0 1 2.343 1.922c.391-.657.805-1.54 1.243-2.649.437-1.125.773-2.531 1.007-4.218a74.85 74.85 0 0 1-3.351.585c-.266 1.016-.68 2.47-1.242 4.36Zm8.11-7.453c0-.157.1-.235.304-.235.265 0 .789.172 1.57.516l4.57-.281h.188c.312 0 .555.062.726.187.188.125.313.266.375.422.079.14.118.242.118.305 0 .094-.04.219-.118.375-.078.156-.117.265-.117.328l-.515 8.719c.453.453.68.797.68 1.03 0 .188-.173.298-.516.329l-5.157.188.047 1.03v.048a.45.45 0 0 1-.14.328.53.53 0 0 1-.352.117c-.094 0-.234-.04-.422-.117a2.594 2.594 0 0 1-.492-.352.65.65 0 0 1-.21-.469l.023-.21c.046-.375.07-.743.07-1.102l-.024-.633-.304-8.836c-.016-.562-.102-1.047-.258-1.453a1.412 1.412 0 0 1-.047-.234Zm2.062 10.547 3.585-.141.446-9.047-4.336.281.305 8.907ZM64.414 19.125a.975.975 0 0 0-.164.047c-.078.015-.117-.008-.117-.07 0-.016.031-.047.094-.094l.164-.164c.046-.047.117-.11.21-.188.094-.093.165-.187.212-.281.234-.39.398-.781.492-1.172l.14-.82c.11-.61.157-1.32.14-2.133 0-.188-.022-.383-.07-.586-.015-.094-.093-.226-.234-.398v-.024c0-.031.04-.047.117-.047.11 0 .204.008.282.024.203.047.43.07.68.07.265-.016.43-.023.492-.023l1.57-.118c.312-.03.516-.046.61-.046.671-.094.976-.133.913-.118.36-.062.578-.093.657-.093.25.015.5.21.75.586l.046.117c0 .094-.07.148-.21.164-.141.015-.227.023-.258.023-.485 0-.844.008-1.078.024-.594 0-1.032.008-1.313.023l-.656.047-1.336.14c-.094 1.313-.18 2.172-.258 2.579-.125.734-.367 1.328-.727 1.781-.265.344-.648.594-1.148.75Zm3.61 8.672c-.75 0-1.376-.188-1.876-.563-.515-.422-.773-.914-.773-1.476 0-.438.164-.82.492-1.149.422-.359.953-.539 1.594-.539.031 0 .055-.03.07-.093a.831.831 0 0 0 .047-.305l.024-.61c-.11.016-.32.04-.633.07a6.427 6.427 0 0 0-.656.095c.078-.016-.165.039-.727.164a.943.943 0 0 1-.258.023c-.297 0-.547-.133-.75-.398-.094-.094-.14-.172-.14-.235 0-.093.14-.14.421-.14l.727-.047 1.992-.258v-.867a.874.874 0 0 1-.023-.211.607.607 0 0 0-.024-.188 1.41 1.41 0 0 1-.047-.234c0-.11.055-.164.164-.164.141 0 .383.101.727.305.11.062.164.148.164.257a.466.466 0 0 1-.047.211.52.52 0 0 0-.023.164v.657l.703-.07.867-.094c.078-.016.164-.04.258-.07.11-.032.195-.048.258-.048.093 0 .21.047.351.141.266.172.399.32.399.445s-.133.188-.399.188c-.078 0-.187.015-.328.047-.14.015-.32.03-.539.047l-1.57.117-.024 1.43c-.03.234-.203.382-.515.445h-.047a1.71 1.71 0 0 1-.281-.024.542.542 0 0 0-.188-.047c-.125 0-.25.008-.375.024a.622.622 0 0 0-.328.14c-.266.235-.398.508-.398.82 0 .313.148.595.445.845.265.25.687.375 1.265.375.766-.032 1.391-.243 1.875-.633.204-.14.36-.211.47-.211a.77.77 0 0 1 .234.047l.093.093c.047.047.07.094.07.141 0 .438-.367.797-1.1 1.078a4.685 4.685 0 0 1-1.642.305Zm7.078-10.758c.187 0 .28.086.28.258 0 .094-.085.226-.257.398-.469.578-1.398 1.68-2.79 3.305-.108.14-.21.21-.304.21-.078 0-.25-.116-.515-.35-.22-.188-.329-.344-.329-.47 0-.14.118-.273.352-.398.36-.203.898-.61 1.617-1.219.719-.64 1.25-1.148 1.594-1.523.14-.14.258-.21.352-.21Zm-24.844-2.508c-.156 0-.313.008-.469.024-.14.015-.273.023-.398.023-.297 0-.547-.086-.75-.258a2.124 2.124 0 0 1-.47-.61c-.108-.218-.163-.39-.163-.515 0-.062.031-.093.094-.093a.61.61 0 0 1 .187.023c.297.063.625.094.984.094h.329l10.898-.516c.328-.015.633-.078.914-.187a.61.61 0 0 1 .188-.024c.234 0 .507.14.82.422.328.266.492.492.492.68 0 .203-.195.32-.586.351l-2.766.14.024 14.485c0 .172.008.328.023.47.032.155.047.296.047.42 0 .345-.133.642-.398.892-.266.25-.516.375-.75.375-.125 0-.438-.125-.938-.375a16.31 16.31 0 0 1-1.687-.938 14.385 14.385 0 0 1-1.711-1.195c-.375-.328-.563-.563-.563-.703 0-.078.063-.118.188-.118.203 0 .469.079.797.235.765.344 1.922.719 3.468 1.125l-.023-14.602-7.781.375Zm-9.328 6.985c0-.157.101-.368.304-.633a51.035 51.035 0 0 0 3.258-4.805c.969-1.625 1.719-3.164 2.25-4.617.078-.313.117-.555.117-.727a1.97 1.97 0 0 0-.047-.351l-.023-.094c0-.156.094-.234.281-.234.25 0 .563.117.938.351.39.235.586.446.586.633 0 .156-.242.758-.727 1.805a26.11 26.11 0 0 1-1.71 3.14V30c0 .313-.141.469-.423.469-.203 0-.453-.086-.75-.258-.297-.156-.445-.406-.445-.75 0-.094.008-.172.023-.234.079-.375.118-.813.118-1.313l.093-9.984a21.968 21.968 0 0 1-2.273 2.648c-.75.735-1.227 1.102-1.43 1.102-.093 0-.14-.055-.14-.164Zm7.547-3.961c0-.094.078-.14.234-.14.281 0 .789.14 1.523.42l4.29-.233h.187c.281 0 .516.085.703.257.188.157.281.328.281.516a.42.42 0 0 1-.07.21c-.031.08-.055.142-.07.188l-.399 3.118c.438.484.657.812.657.984 0 .11-.055.18-.165.21-.093.032-.265.056-.515.071l-4.406.164.023.446v.093c0 .313-.117.47-.352.47-.25 0-.515-.079-.796-.235-.266-.157-.399-.344-.399-.563l.024-.164a4.07 4.07 0 0 0 .046-.726c0-.266-.007-.47-.023-.61l-.281-3.093c-.047-.438-.157-.782-.328-1.032-.11-.172-.164-.289-.164-.351Zm2.156 4.523 3.14-.117.211-3.07-3.539.187.188 3ZM103.859 19.617c-.218 0-.382-.07-.492-.21-.14-.266-.429-.555-.867-.868l.047-.117c.484.203.891.305 1.219.305.203 0 .375-.118.515-.352.157-.25.321-.61.492-1.078.204-.578.313-1.063.329-1.453 0-.047-.024-.086-.071-.117-.047-.047-.086-.07-.117-.07-.141-.016-.406.007-.797.07l-.492.07a3.775 3.775 0 0 0-.492.094 3.64 3.64 0 0 1-.422.093 4.652 4.652 0 0 0-.305.094 1.11 1.11 0 0 1-.304.07c-.079 0-.172-.039-.282-.117a2.562 2.562 0 0 1-.258-.304c-.015-.016-.023-.047-.023-.094 0-.063.047-.14.141-.235l.258-.257c.078-.094.156-.204.234-.329.078-.14.14-.242.187-.304.079-.125.141-.274.188-.445l.047-.211a.689.689 0 0 0-.024-.118c-.015-.078-.047-.117-.093-.117-.625.078-1.086.172-1.383.281a1.45 1.45 0 0 1-.282.094.355.355 0 0 1-.281-.14c-.047-.016-.14-.141-.281-.375-.062-.063-.094-.118-.094-.165 0-.109.164-.171.492-.187l.446-.047c.078 0 .242-.015.492-.047.5-.047 1.195-.101 2.086-.164a59.98 59.98 0 0 0 1.617-.117c.219-.016.484-.047.797-.094.172-.047.281-.07.328-.07.078 0 .156.031.234.094.079.03.18.093.305.187a.9.9 0 0 1 .281.258.373.373 0 0 1 .094.234c0 .079-.039.133-.117.164a.5.5 0 0 1-.305 0 3.67 3.67 0 0 0-.656-.093 10.226 10.226 0 0 0-.422-.024 19.106 19.106 0 0 0-1.992.07 3.833 3.833 0 0 1-.492.047c.094.079.179.204.258.375v.047c0 .047-.024.11-.071.188a.41.41 0 0 1-.164.164c-.078.047-.172.156-.281.328-.109.172-.18.281-.211.328-.094.125-.141.227-.141.305 0 .062.063.086.188.07l.68-.094c.359-.062.625-.117.796-.164a1.54 1.54 0 0 1 .211-.047 2.15 2.15 0 0 0 .375-.093.504.504 0 0 1 .328.07c.126.063.313.195.563.398.187.141.281.266.281.375a.373.373 0 0 1-.094.235c-.062.11-.109.258-.14.445-.141.656-.305 1.188-.492 1.594a6.698 6.698 0 0 1-.399.703 3.471 3.471 0 0 1-.469.516c-.203.234-.437.351-.703.351Zm.914 3.633c-.156.203-.32.305-.492.305-.047 0-.07-.04-.07-.117 0-.11.031-.235.094-.375l.468-.938a.898.898 0 0 1 .071-.188c.031-.062.054-.117.07-.164v-.023c0-.031-.023-.063-.07-.094a.198.198 0 0 0-.164-.023c-.25.015-.625.055-1.125.117a9.02 9.02 0 0 0-1.078.188c-.094.03-.211.07-.352.117a.92.92 0 0 1-.305.07c-.281 0-.515-.086-.703-.258a1.445 1.445 0 0 1-.351-.328l-.047-.117c0-.078.133-.102.398-.07.36.03 1.102-.016 2.227-.141l.468-.07c.126-.016.321-.04.586-.07.282-.048.5-.094.657-.141l.14-.047a.38.38 0 0 1 .164-.047c.079 0 .172.039.282.117.125.078.226.149.304.211.11.078.18.148.211.211.047.047.063.11.047.188 0 .078-.039.148-.117.21-.078.063-.133.11-.164.141a3.815 3.815 0 0 1-.328.352 3.85 3.85 0 0 1-.422.515c-.188.219-.32.375-.399.469Zm-1.171 4.617c0-.047.078-.164.234-.351l.398-.47c.235-.312.516-.765.844-1.358.344-.594.539-.985.586-1.172.031-.094-.016-.141-.141-.141-.25 0-.937.07-2.062.21-.734.095-1.281.188-1.641.282a.45.45 0 0 1-.234.07c-.125 0-.258-.085-.398-.257a.616.616 0 0 1-.094-.305c0-.063.039-.125.117-.188l.07-.093a7.796 7.796 0 0 0 .328-.82c.079-.25.133-.524.164-.82.016-.173.11-.22.282-.142.218.11.383.22.492.329.125.093.164.164.117.21a2.349 2.349 0 0 0-.375.633c-.078.25-.125.414-.141.493 0 .062.04.093.118.093.234 0 .586-.039 1.054-.117l.985-.117c.39-.047.703-.094.937-.14l.586-.118a.615.615 0 0 1 .188-.023c.078 0 .156.03.234.093.078.047.164.11.258.188.156.14.258.258.304.352a.536.536 0 0 1 .071.28c0 .063-.047.141-.141.235a2.815 2.815 0 0 0-.281.445 7.29 7.29 0 0 1-1.758 2.32 3.24 3.24 0 0 1-.68.4 2.795 2.795 0 0 1-.304.07c-.078 0-.117-.024-.117-.07Zm4.5-8.953c.078 0 .195.055.351.164-.015.031.016.094.094.188l.164.164c.078.078.156.172.234.28l.305.352c.281.297.93 1.07 1.945 2.32.172.25.258.4.258.446 0 .156-.094.235-.281.235-.11 0-.227-.079-.352-.235-.297-.312-.828-.805-1.593-1.476-.594-.547-1.133-.97-1.618-1.266-.234-.11-.351-.234-.351-.375 0-.11.117-.266.351-.469.219-.219.383-.328.493-.328ZM84.898 30.375v.047c0 .297-.132.445-.398.445-.25 0-.508-.086-.773-.258-.25-.172-.375-.398-.375-.68l.023-.187c.047-.25.07-.523.07-.82l-.023-.469-.258-6.539a17.652 17.652 0 0 1-2.414 1.875c-.828.516-1.555.914-2.18 1.195-.625.266-.992.399-1.101.399-.14 0-.211-.055-.211-.164 0-.157.148-.336.445-.54 1.484-.952 2.797-1.945 3.938-2.976a17.678 17.678 0 0 0 2.976-3.562l-5.273.257h-.328c-.422 0-.72-.07-.891-.21-.172-.157-.336-.477-.492-.961a.327.327 0 0 1-.024-.141c0-.063.032-.094.094-.094.047 0 .086.008.117.024.297.078.61.117.938.117h.422l6.164-.328c.281-.5.523-1.032.726-1.594l-3.726.21-.469.024c-.266 0-.508-.07-.727-.21-.218-.141-.398-.462-.539-.962l-.023-.093c0-.078.039-.117.117-.117.063 0 .11.007.14.023.36.094.704.14 1.032.14h.21l4.384-.28c.187-.594.312-1.087.375-1.477-1.39.234-2.969.406-4.735.515h-.187c-.25 0-.438-.023-.563-.07-.125-.047-.187-.11-.187-.187 0-.079.07-.157.21-.235.141-.078.345-.14.61-.187a56.126 56.126 0 0 0 4.922-.938c1.734-.422 3.227-.875 4.477-1.36.328-.124.64-.312.937-.562.11-.078.203-.117.281-.117.157 0 .313.094.47.281.171.188.312.407.421.657.11.25.164.43.164.539 0 .14-.07.234-.21.28-1.845.485-3.516.86-5.016 1.126-.126.61-.266 1.156-.422 1.64l4.734-.28c.344-.032.61-.079.797-.141a.624.624 0 0 1 .281-.07c.188 0 .43.132.727.398.297.25.445.46.445.633 0 .187-.219.296-.656.328l-6.703.398c-.25.688-.477 1.227-.68 1.617l8.906-.468a8.46 8.46 0 0 0 1.149-.164c.062-.016.148-.024.257-.024.204 0 .446.133.727.399.297.25.445.468.445.656 0 .187-.156.297-.468.328l-11.72.586-.28.469-.282.468c-.125.235-.257.43-.398.586l7.523-.375h.188c.25 0 .453.055.61.164.155.11.265.227.327.352.063.125.094.21.094.258a.453.453 0 0 1-.07.234.4.4 0 0 0-.07.188l-.376 7.523c.36.469.54.79.54.961 0 .11-.047.18-.141.21-.094.032-.25.056-.469.071l-8.601.258.046.961Zm-.304-7.945 7.781-.352.023-1.64-7.875.375.07 1.617Zm.094 2.742 7.593-.305.047-1.594-7.687.329.046 1.57Zm.117 3 7.36-.211.07-1.875-7.5.305.07 1.78Z"/><path fill="#FA760A" d="M141.594 16.758c-.11 0-.227-.07-.352-.211a1.401 1.401 0 0 1-.187-.258.49.49 0 0 1 0-.305l.023-.562a7.63 7.63 0 0 0 .024-.797v-.773l-.704.328-.82.351a7.263 7.263 0 0 0-.633.281 1.13 1.13 0 0 1-.492.141 1.457 1.457 0 0 1-.375-.117 3.204 3.204 0 0 1-.328-.164c-.172-.11-.25-.227-.234-.352l.07-.234c0-.125.008-.234.023-.328l.024-1.36v-1.265c0-.25-.016-.461-.047-.633-.031-.188-.055-.32-.07-.398 0-.079.023-.133.07-.165.016-.015.055-.023.117-.023.109 0 .32.07.633.211.266.125.375.281.328.469-.031.11-.062.273-.094.492l-.07 2.695c0 .078.008.14.023.188.032.031.063.047.094.047.188 0 .414-.055.68-.164.5-.157.93-.313 1.289-.47l.516-.21v-1.547c0-.625-.04-1.227-.118-1.805a.539.539 0 0 1-.023-.164c0-.156.062-.234.187-.234.016 0 .102.031.258.094.235.125.406.234.516.328.109.094.172.148.187.164.063.047.094.094.094.14 0 .032-.015.07-.047.118a.78.78 0 0 1-.047.117l-.07.703-.023 2.156.023 2.086c0 .36-.023.672-.07.938-.078.328-.203.492-.375.492Zm-4.313 3.844c-.172 0-.383-.133-.633-.399-.187-.187-.281-.328-.281-.422 0-.047.031-.07.094-.07a.986.986 0 0 1 .234-.023l.516-.024c.297 0 .492-.008.586-.023.297 0 .547-.008.75-.024 1.344-.125 2.25-.226 2.719-.305.234-.03.445-.062.632-.093.188-.047.336-.07.446-.07.218 0 .437.109.656.328.172.171.258.312.258.421 0 .094-.055.157-.164.188-.078.016-.539.047-1.383.094-.469.015-1.047.054-1.734.117-.688.062-1.289.125-1.805.187l-.399.07a2.742 2.742 0 0 1-.492.048Zm-.14 9.351c-.235 0-.414-.062-.539-.187-.141-.141-.211-.266-.211-.375 0-.11.062-.227.187-.352.016-.016.102-.14.258-.375a29.8 29.8 0 0 0 1.172-2.086c.453-.86.734-1.445.844-1.758.093-.297.179-.554.257-.773.094-.219.172-.328.235-.328.109 0 .203.039.281.117.078.062.156.156.234.281.094.11.164.188.211.235.11.125.164.242.164.351a.377.377 0 0 1-.093.235 1.185 1.185 0 0 0-.118.164l-1.031 1.734a47.442 47.442 0 0 1-1.054 1.805.373.373 0 0 0-.094.234c0 .063.07.094.211.094.297 0 .851-.04 1.664-.117.812-.063 1.359-.118 1.64-.165.407-.046.688-.093.844-.14.172-.047.422.07.75.351.391.329.477.54.258.633-.125.063-.367.094-.727.094h-.937c-.203 0-.524.016-.961.047-.266 0-.563.008-.891.023-.328.016-.601.032-.82.047-.25.016-.734.063-1.453.14l-.281.071Zm-18.305-9.586c.141-.156.266-.234.375-.234a.35.35 0 0 1 .258.094 20.72 20.72 0 0 1 2.695 2.671c.141.157.211.297.211.422 0 .11-.086.274-.258.492-.172.22-.344.329-.515.329-.11 0-.211-.07-.305-.211-.656-.89-1.477-1.79-2.461-2.696l-.07 8.578c0 .313-.141.47-.422.47-.063 0-.18-.032-.352-.095a1.504 1.504 0 0 1-.492-.304.728.728 0 0 1-.211-.54c0-.093.008-.163.023-.21.11-.516.165-.945.165-1.29V26.32l.117-7.289-2.438.188c-.14.015-.32.023-.539.023-.281 0-.461-.039-.539-.117a2.209 2.209 0 0 1-.562-.586c-.125-.219-.188-.367-.188-.445 0-.11.055-.164.164-.164.063 0 .11.008.141.023.375.063.687.094.937.094h.211l2.766-.188.047-6.422c0-.359-.086-.68-.258-.96a.572.572 0 0 1-.094-.258c0-.11.086-.164.258-.164.188 0 .438.054.75.164.281.094.461.187.539.281a.568.568 0 0 1 .117.375l-.047 6.914.985-.07c.406-.032.726-.086.961-.164a.737.737 0 0 1 .211-.047c.187 0 .406.14.656.422.266.265.398.484.398.656 0 .125-.164.203-.492.234l-2.742.164v1.383Zm-5.508 7.055c0-.172.063-.383.188-.633.468-.937.914-1.977 1.336-3.117.421-1.14.632-1.985.632-2.531 0-.172-.007-.297-.023-.375a.509.509 0 0 1-.023-.164c0-.172.085-.258.257-.258.235 0 .5.093.797.281.313.172.469.383.469.633 0 .219-.234.875-.703 1.969a26.007 26.007 0 0 1-1.524 3.023c-.531.906-.929 1.36-1.195 1.36a.253.253 0 0 1-.141-.047c-.046-.047-.07-.094-.07-.141Zm.844-14.11c0-.109.094-.226.281-.351.203-.14.367-.211.492-.211.188 0 .446.266.774.797s.633 1.117.914 1.758c.297.64.445 1.015.445 1.125 0 .156-.125.297-.375.422-.234.125-.43.187-.586.187a.316.316 0 0 1-.234-.094 1.42 1.42 0 0 1-.188-.351 20.52 20.52 0 0 0-1.383-2.907c-.093-.14-.14-.265-.14-.374Zm5.109 3.586c0-.109.055-.265.164-.468.969-1.797 1.453-3.11 1.453-3.938l-.023-.14c0-.157.07-.235.211-.235.078.016.226.07.445.164s.422.211.61.352c.203.14.304.297.304.469 0 .125-.218.53-.656 1.218a19.07 19.07 0 0 1-1.336 1.875c-.469.578-.812.867-1.031.867-.094 0-.141-.054-.141-.164Zm2.696.516c0-.094.046-.14.14-.14.063 0 .11.007.141.023.25.062.539.094.867.094h.211l3.82-.258-.023-1.5-1.594.117a3.55 3.55 0 0 1-.469.023c-.297 0-.508-.054-.632-.164a1.838 1.838 0 0 1-.352-.351 1.933 1.933 0 0 1-.234-.422l-.047-.188c0-.093.047-.14.14-.14.063 0 .11.008.141.023.312.078.586.117.82.117l.328-.023 1.899-.14v-1.36l-2.508.164-.422.024c-.328 0-.594-.086-.797-.258a1.787 1.787 0 0 1-.398-.563c-.063-.203-.094-.336-.094-.398 0-.078.047-.117.141-.117l.117.023c.359.078.703.117 1.031.117h.117l2.789-.187v-1.008c0-.485-.093-.899-.281-1.242a.536.536 0 0 1-.07-.211c0-.11.094-.164.281-.164.266 0 .57.054.914.164.359.094.539.312.539.656v1.71l1.946-.14c.187-.015.484-.078.89-.187l.117-.024c.157 0 .391.11.703.329.313.203.469.406.469.609 0 .094-.047.172-.14.234a.67.67 0 0 1-.352.117l-3.633.258-.023 1.36 1.383-.094a2.7 2.7 0 0 0 .82-.188.324.324 0 0 1 .14-.023c.157 0 .368.11.633.328.282.219.422.422.422.61 0 .171-.156.273-.469.304l-2.929.211v1.524l4.195-.282c.328-.015.617-.078.867-.187a.325.325 0 0 1 .141-.024c.156 0 .406.14.75.422.234.203.351.39.351.563 0 .11-.046.195-.14.258a.63.63 0 0 1-.328.117l-10.547.68a6.075 6.075 0 0 1-.586.023c-.25 0-.445-.055-.586-.164-.141-.125-.328-.422-.563-.89a.957.957 0 0 1-.046-.165ZM122 30.422c0-.203.062-.383.188-.54.531-.812.945-1.562 1.242-2.25.297-.687.523-1.491.679-2.413.157-.938.235-2.102.235-3.492 0-.625-.008-1.055-.024-1.29a1.34 1.34 0 0 0-.14-.562c-.094-.156-.141-.273-.141-.352 0-.03.016-.062.047-.093a.29.29 0 0 1 .164-.047c.344 0 .742.101 1.195.305l5.532-.305h.164c.234 0 .453.07.656.21.219.141.328.329.328.563a.83.83 0 0 1-.047.258 1.29 1.29 0 0 0-.023.258l.07 8.062c0 .141.008.274.023.399.016.125.024.234.024.328 0 .266-.117.516-.352.75-.218.234-.429.352-.632.352-.219 0-.626-.172-1.219-.516a15.266 15.266 0 0 1-1.641-1.125c-.5-.39-.75-.664-.75-.82 0-.094.07-.141.211-.141.094 0 .258.039.492.117.828.344 1.641.61 2.438.797l-.024-2.977-5.437.235a9.669 9.669 0 0 1-.891 2.25c-.375.672-.765 1.195-1.172 1.57-.406.39-.75.594-1.031.61h-.047c-.078 0-.117-.047-.117-.141Zm8.695-5.742v-1.5l-5.039.258-.14 1.476 5.179-.234Zm-.023-2.672v-1.36l-4.945.282-.024 1.336 4.969-.258ZM175.789 16.453c-.094 0-.219-.101-.375-.305-.156-.218-.226-.406-.211-.562.031-.125.055-.477.07-1.055.016-.39.024-1.078.024-2.062 0-.688-.008-1.149-.024-1.383l-.773.07c-.547.078-1.016.117-1.406.117-.11 0-.266-.085-.469-.257-.203-.172-.305-.297-.305-.375 0-.125.133-.172.399-.141.172.016.679.008 1.523-.023a76.299 76.299 0 0 1 2.508-.141 8.81 8.81 0 0 0 .727-.07c.234-.047.398-.079.492-.094.14-.016.265 0 .375.047.109.047.211.11.304.187.11.063.196.11.258.14.141.095.211.18.211.259 0 .062-.039.125-.117.187a.342.342 0 0 1-.211.07c-.078 0-.187-.007-.328-.023a3.416 3.416 0 0 0-.422-.023c-.578 0-1.172.015-1.781.046-.016.126-.024.438-.024.938a67.667 67.667 0 0 0-.046 2.484v1.125c0 .266-.024.438-.071.516-.14.219-.25.328-.328.328Zm-1.992 5.742c-.516-.187-.758-.39-.727-.61.094-.655.141-1.405.141-2.25a10.483 10.483 0 0 0-.07-1.335c-.016-.156-.016-.242 0-.258a.316.316 0 0 1 .234-.094c.141 0 .313.063.516.188.218.125.328.25.328.375 0 .078-.008.156-.024.234a.905.905 0 0 0-.023.211l-.141 2.32c0 .126.047.204.141.235h.117a.947.947 0 0 0 .258-.023l3.023-.422v-.61c0-.765-.015-1.36-.047-1.781a3.809 3.809 0 0 0-.117-.867c-.047-.25.016-.375.188-.375.125 0 .289.047.492.14.25.125.398.235.445.329.047.078.063.203.047.375-.031.28-.047.703-.047 1.265l.024 1.781c0 .375-.071.672-.211.891-.078.094-.156.14-.235.14-.078 0-.187-.07-.328-.21a1.433 1.433 0 0 1-.117-.14.314.314 0 0 0-.141-.118.604.604 0 0 0-.187-.023c-.359.03-1.227.148-2.602.351a1.32 1.32 0 0 0-.562.188c-.156.078-.258.117-.305.117l-.07-.024Zm2.976 3.633c-.156.203-.32.305-.492.305-.047 0-.07-.04-.07-.117 0-.11.031-.235.094-.375l.468-.938a.898.898 0 0 1 .071-.187 1.38 1.38 0 0 0 .07-.164v-.024c0-.031-.023-.062-.07-.094a.197.197 0 0 0-.164-.023c-.25.016-.625.055-1.125.117a9.02 9.02 0 0 0-1.078.188c-.094.03-.211.07-.352.117a.92.92 0 0 1-.305.07c-.281 0-.515-.086-.703-.258a1.443 1.443 0 0 1-.351-.328l-.047-.117c0-.078.133-.102.398-.07.36.03 1.102-.016 2.227-.14l.468-.071c.126-.016.321-.04.586-.07.282-.047.5-.094.657-.141l.14-.047a.38.38 0 0 1 .164-.047c.079 0 .172.04.282.117.125.078.226.149.304.211.11.078.18.149.211.211.047.047.063.11.047.188 0 .078-.039.148-.117.21a2.17 2.17 0 0 0-.164.141 3.81 3.81 0 0 1-.328.352 3.857 3.857 0 0 1-.422.515c-.188.22-.32.375-.399.47Zm-1.171 4.617c0-.047.078-.172.234-.375.172-.187.305-.336.398-.445.235-.313.516-.766.844-1.36.344-.593.539-.984.586-1.171.031-.094-.016-.14-.141-.14-.25 0-.937.07-2.062.21-.734.094-1.281.188-1.641.281a.45.45 0 0 1-.234.07c-.125 0-.258-.085-.398-.257a.616.616 0 0 1-.094-.305c0-.062.039-.125.117-.187l.07-.094a7.822 7.822 0 0 0 .328-.82c.079-.25.133-.524.164-.82.016-.173.11-.22.282-.141.218.109.383.218.492.328.125.093.164.164.117.21a2.349 2.349 0 0 0-.375.634 6.62 6.62 0 0 0-.141.492c0 .062.04.093.118.093.234 0 .586-.039 1.054-.117l.985-.117c.39-.047.703-.094.937-.14l.586-.118a.615.615 0 0 1 .188-.023c.078 0 .156.031.234.094.078.046.164.109.258.187.156.14.258.258.304.352a.536.536 0 0 1 .071.28c0 .063-.047.142-.141.235a2.812 2.812 0 0 0-.281.446 7.29 7.29 0 0 1-1.758 2.32 3.24 3.24 0 0 1-.68.398 1.11 1.11 0 0 1-.304.047c-.078.016-.117 0-.117-.047Zm7.593-9.28c.047 0 .094.023.141.07a.229.229 0 0 1 .094.14v.047c0 .11-.086.32-.258.633l-1.688 2.93c-.125.265-.289.398-.492.398s-.375-.125-.515-.375a7.841 7.841 0 0 1-.516-.914 2.78 2.78 0 0 1-.234-.422 9.537 9.537 0 0 0-.141-.305c-.172-.297-.258-.508-.258-.633a.16.16 0 0 1 .07-.14c.047-.047.094-.07.141-.07.172 0 .328.093.469.28.109.11.195.227.258.352l.257.352.469.539.211-.328c.219-.375.735-1.117 1.547-2.227.172-.219.32-.328.445-.328Zm-13.734 9.28c-1.813 0-4.008-.21-6.586-.633-2.563-.421-5.266-.93-8.109-1.523-.907-.187-1.633-.281-2.18-.281-.766 0-1.578.14-2.438.422-.14.047-.265.07-.375.07-.39 0-.585-.336-.585-1.008 0-.156.046-.273.14-.351.11-.078.289-.141.539-.188.266-.062.68-.125 1.242-.187A24.392 24.392 0 0 0 153.734 24a.39.39 0 0 0 .047-.117c0-.094-.172-.274-.515-.54a12.478 12.478 0 0 0-1.196-.89c-.406-.265-.609-.57-.609-.914 0-.219.117-.523.351-.914.25-.406.766-1.164 1.547-2.273l-2.203.28-.492.048c-.328 0-.602-.125-.82-.375-.219-.25-.36-.5-.422-.75a.32.32 0 0 1-.024-.14c0-.11.047-.165.141-.165l.141.023c.234.047.468.07.703.07.156 0 .273-.007.351-.023l3.516-.375.234-.023c.204 0 .407.086.61.258.203.172.304.343.304.515a.56.56 0 0 1-.187.399c-.125.11-.203.187-.234.234-.032.047-.399.531-1.102 1.453-.703.907-1.055 1.422-1.055 1.547 0 .063.039.117.118.164.921.594 1.539 1.055 1.851 1.383.328.328.492.648.492.96 0 .267-.156.602-.469 1.009-.296.406-.906 1.023-1.828 1.851.547.016 1.211.102 1.993.258 2.562.5 5.226.953 7.992 1.36 2.765.406 5.156.609 7.172.609h.117c.359 0 .539.07.539.21-.016.079-.07.22-.164.423a2.067 2.067 0 0 1-.422.586c-.172.203-.375.304-.609.304h-.141Zm-18.633-18.937c0-.125.102-.266.305-.422.203-.156.367-.234.492-.234.141 0 .508.273 1.102.82a22.202 22.202 0 0 1 1.687 1.734c.531.61.797 1 .797 1.172 0 .156-.109.344-.328.563-.203.218-.406.328-.61.328-.171 0-.359-.149-.562-.446a21.767 21.767 0 0 0-2.602-3.046c-.187-.188-.281-.344-.281-.47Zm4.594 11.18c0-.032.008-.063.023-.094.032-.032.063-.04.094-.024l.094.024c.312.078.679.117 1.101.117h.211l2.672-.117-.023-1.805-1.758.094h-.234c-.375 0-.625-.047-.75-.14-.407-.313-.61-.618-.61-.915 0-.094.047-.14.141-.14.062 0 .109.007.14.023.219.047.524.07.915.07h.281l1.851-.093v-.446c0-.484-.117-.875-.351-1.172a.42.42 0 0 1-.047-.117c0-.078.101-.117.305-.117.359 0 .687.07.984.21.297.142.445.282.445.423v1.125l2.742-.14.024-.493v-.188c0-.515-.07-.882-.211-1.101a.254.254 0 0 1-.047-.14c0-.079.07-.118.211-.118.203 0 .5.078.891.234.39.141.586.329.586.563v.023l-.071 1.149 1.219-.07c.391-.016.742-.07 1.055-.165a1.3 1.3 0 0 1 .257-.046c.204 0 .415.125.633.375.235.25.352.445.352.585 0 .125-.133.204-.399.235l-3.187.187-.094 1.852 2.742-.117a4.113 4.113 0 0 0 1.079-.188c.14-.047.257-.07.351-.07.156 0 .313.07.469.21.156.126.289.274.398.446.11.156.164.274.164.352 0 .156-.148.25-.445.281l-12.703.586h-.305c-.562 0-.953-.336-1.172-1.008a.337.337 0 0 1-.023-.14Zm.562 4.171c0-.125.141-.242.422-.351.985-.406 1.844-.82 2.578-1.242.735-.438 1.157-.79 1.266-1.055.078-.188.164-.281.258-.281.125 0 .289.172.492.515.219.344.328.625.328.844a.392.392 0 0 1-.234.375c-.672.328-1.352.594-2.039.797-.672.203-1.258.352-1.758.445-.485.094-.781.14-.891.14a.829.829 0 0 1-.304-.046c-.079-.047-.118-.094-.118-.14Zm.657-16.218c0-.094.062-.141.187-.141.234 0 .617.117 1.149.352l2.531-.235.234-.023c.297 0 .508.094.633.281.141.188.211.328.211.422a.595.595 0 0 1-.07.258c-.032.093-.055.18-.071.258l-.234 1.734c.328.375.492.633.492.773 0 .078-.047.133-.141.164a1.62 1.62 0 0 1-.421.07l-3.047.212-.024 1.828c1.547-.469 2.578-.774 3.094-.914.094-.016.188-.04.281-.07a.54.54 0 0 1 .211-.07c.141 0 .211.07.211.21 0 .11-.179.281-.539.516a16.58 16.58 0 0 1-1.359.726c-.375.172-.844.399-1.407.68-.25.125-.476.234-.679.328-.203.094-.352.14-.445.14-.094 0-.211-.054-.352-.163a1.394 1.394 0 0 1-.328-.422c-.063-.172-.063-.305 0-.399.109-.172.164-.86.164-2.062l.023-3.047c0-.422-.07-.781-.211-1.078-.062-.156-.093-.266-.093-.328Zm3.468 3 .164-1.899-2.179.188v1.851l2.015-.14Zm3.422 8.765.071-1.851-2.696.14v1.828l2.625-.117Zm-.82-12.023c0-.094.062-.14.187-.14.235 0 .618.116 1.149.35l2.648-.21h.188c.156 0 .344.062.562.187.219.11.328.258.328.446 0 .078-.023.18-.07.304-.031.11-.055.196-.07.258l-.235 1.735c.329.374.493.64.493.796 0 .079-.039.133-.118.164a4.241 4.241 0 0 1-.445.047l-3.164.211v1.008c0 .219.039.375.117.469.078.078.25.125.516.14l.422.024c.562 0 1.031-.024 1.406-.07.328-.047.609-.149.844-.305a.4.4 0 0 1 .164-.024c.172-.03.398.047.679.235.297.187.454.367.469.539v.023c0 .172-.148.297-.445.375-.625.172-1.07.266-1.336.282a23.07 23.07 0 0 1-1.898.07c-.813 0-1.368-.117-1.664-.352-.282-.234-.422-.633-.422-1.195v-3.96c0-.423-.071-.782-.211-1.08-.063-.155-.094-.265-.094-.327Zm.422 14.39c0-.078.055-.226.164-.445.125-.219.273-.328.445-.328.141 0 .649.242 1.524.727.89.484 1.718.968 2.484 1.453.312.187.469.375.469.562 0 .094-.071.266-.211.516-.125.25-.281.375-.469.375-.125 0-.297-.078-.516-.235a45.73 45.73 0 0 0-3.468-2.109c-.282-.172-.422-.344-.422-.516Zm3.164-11.367.164-1.898-2.297.164v1.875l2.133-.14ZM212.188 16.898c-.25 0-.399-.125-.446-.375-.094-.265-.344-.593-.75-.984l.07-.094c.063.032.243.11.54.235.296.11.5.164.609.164h.211a.466.466 0 0 0 .164-.117c.187-.141.422-.461.703-.961.203-.407.383-.883.539-1.43.172-.547.258-.961.258-1.242 0-.078-.063-.117-.188-.117l-.89.046-.61.047-.398.024-.164.023c.109.078.18.149.211.211.047.047.07.11.07.188s-.094.296-.281.656c-.156.344-.406.734-.75 1.172-.281.375-.664.781-1.148 1.219-.469.421-.821.64-1.055.656a.445.445 0 0 1-.141-.024.16.16 0 0 1-.047-.117c0-.015.125-.164.375-.445l.657-.774c.468-.625.945-1.421 1.429-2.39.047-.125.024-.196-.07-.211-.094.015-.289.039-.586.07a3.026 3.026 0 0 0-.797.14.759.759 0 0 0-.164.071.774.774 0 0 1-.234.047.32.32 0 0 1-.235-.094l-.187-.164c-.141-.11-.211-.21-.211-.305 0-.03.016-.078.047-.14l.117-.188c.062-.078.164-.203.305-.375.14-.172.297-.406.468-.703.032-.062.094-.203.188-.422.109-.218.164-.351.164-.398v-.094c0-.094.016-.156.047-.187.031-.032.101-.032.211 0 .109.03.242.117.398.257l.258.258c.047.047.07.102.07.164 0 .157-.218.438-.656.844a2.705 2.705 0 0 0-.281.352c-.11.156-.164.257-.164.304 0 .094.07.125.211.094l.539-.07c1.234-.188 2.164-.297 2.789-.328l.633-.094.211-.047.117-.023c.125 0 .211.015.258.046a.521.521 0 0 1 .14.165c.047.062.094.117.141.164.109.125.187.234.234.328l.047.21-.047.094-.047.141a1.388 1.388 0 0 0-.07.234 1.76 1.76 0 0 1-.07.211c-.328 1.266-.711 2.25-1.149 2.953-.14.25-.383.5-.726.75-.328.25-.617.375-.867.375Zm2.132 6.047c-.234 0-.461-.172-.679-.515a7.442 7.442 0 0 0-.821-1.078l-.609-.633a9.616 9.616 0 0 1-.867.89c-.235.22-.532.43-.891.633-.672.39-1.234.586-1.687.586-.11 0-.164-.039-.164-.117 0-.047.148-.148.445-.305.297-.156.578-.343.844-.562a10.17 10.17 0 0 0 1.664-1.735c-.094-.093-.563-.5-1.407-1.218a8.177 8.177 0 0 1-.492-.399 6.385 6.385 0 0 1-.281-.21c-.141-.11-.211-.188-.211-.235 0-.078.039-.117.117-.117.235 0 .61.164 1.125.492.516.312 1.055.687 1.617 1.125.219-.266.391-.516.516-.75.125-.235.266-.524.422-.867a1.61 1.61 0 0 0 .141-.446c.015-.14.023-.226.023-.257 0-.172.047-.258.141-.258.109 0 .257.086.445.258.328.312.492.523.492.632 0 .063-.039.133-.117.211a2.87 2.87 0 0 0-.516.75 6.204 6.204 0 0 1-.515.797c-.078.094-.141.18-.188.258a2.737 2.737 0 0 1-.14.21c.359.267.89.72 1.593 1.36.172.157.282.305.328.446.063.125.094.297.094.515 0 .157-.039.29-.117.399a.378.378 0 0 1-.305.14Zm-5.179 7.008c-.235 0-.414-.062-.539-.187-.141-.141-.211-.266-.211-.375 0-.11.062-.227.187-.352.016-.016.102-.14.258-.375a29.8 29.8 0 0 0 1.172-2.086c.453-.86.734-1.445.844-1.758.093-.297.179-.554.257-.773.094-.219.172-.328.235-.328.109 0 .203.039.281.117.078.062.156.156.234.281.094.11.164.188.211.235.11.125.164.242.164.351a.377.377 0 0 1-.093.235 1.185 1.185 0 0 0-.118.164l-1.031 1.734a47.442 47.442 0 0 1-1.054 1.805.373.373 0 0 0-.094.234c0 .063.07.094.211.094.297 0 .851-.04 1.664-.117.812-.063 1.359-.118 1.64-.165.407-.046.688-.093.844-.14.172-.047.422.07.75.351.391.329.477.54.258.633-.125.063-.367.094-.727.094h-.937c-.203 0-.524.016-.961.047-.266 0-.563.008-.891.023-.328.016-.601.032-.82.047-.25.016-.734.063-1.453.14l-.281.071Zm6.961-8.46c.078 0 .195.054.351.163-.015.032.016.094.094.188l.164.164c.078.078.156.172.234.281l.305.352c.281.297.93 1.07 1.945 2.32.172.25.258.398.258.445 0 .157-.094.235-.281.235-.11 0-.227-.078-.352-.235-.297-.312-.828-.804-1.593-1.476-.594-.547-1.133-.97-1.618-1.266-.234-.11-.351-.234-.351-.375 0-.11.117-.266.351-.469.219-.218.383-.328.493-.328Zm-23.766 5.859c1.344-.235 2.672-.485 3.984-.75l.399-.047c.281 0 .422.07.422.21 0 .172-.219.337-.657.493a76.753 76.753 0 0 1-4.476 1.312c-1.5.39-2.789.696-3.867.914-1.079.235-1.711.352-1.899.352-.437 0-.859-.492-1.265-1.477l-.024-.093c0-.094.063-.141.188-.141h.047c.406.031.679.047.82.047.437 0 1.18-.063 2.226-.188a75.173 75.173 0 0 0 2.789-.422v-1.828l-2.554.118-.563.023c-.406 0-.672-.07-.797-.21a3.023 3.023 0 0 1-.304-.423c-.141-.234-.211-.422-.211-.562 0-.11.047-.164.14-.164l.141.023c.25.078.539.117.867.117h.211l3.094-.164V23.11l-2.274.07v.212c0 .265-.109.398-.328.398a1.38 1.38 0 0 1-.468-.094c-.391-.11-.586-.36-.586-.75v-.07c.015-.125.023-.29.023-.492 0-.219-.008-.383-.023-.492l-.352-3.703a2.108 2.108 0 0 0-.258-.868c-.078-.187-.117-.312-.117-.375 0-.093.07-.14.211-.14.187 0 .656.117 1.406.351l2.789-.164v-1.289l-3.914.235h-.351c-.172 0-.305-.008-.399-.024a.664.664 0 0 1-.258-.164c-.359-.406-.539-.734-.539-.984 0-.094.039-.141.118-.141.062 0 .109.008.14.023.203.063.492.094.867.094h.282l4.078-.258v-1.289a45.7 45.7 0 0 1-3.75.54l-.258.023c-.172 0-.313-.024-.422-.07-.094-.047-.141-.11-.141-.188s.063-.156.188-.234c.125-.079.297-.141.516-.188 2.703-.562 5.085-1.297 7.148-2.203.328-.14.586-.352.773-.633.063-.11.141-.164.235-.164.156 0 .351.188.586.563.234.375.351.687.351.937 0 .188-.078.305-.234.352-1.141.375-2.359.71-3.656 1.008l-.024 1.476 3.492-.21c.313-.063.571-.126.774-.188a.415.415 0 0 1 .187-.047c.157 0 .407.125.75.375.344.25.516.46.516.633 0 .203-.187.32-.563.351l-5.156.305v1.289l3.094-.164h.164c.281 0 .524.07.727.21.203.141.304.305.304.493a.55.55 0 0 1-.07.234l-.07.211-.493 3.985c.344.343.516.593.516.75 0 .093-.055.164-.164.21a2.036 2.036 0 0 1-.445.07l-3.61.142v1.359l2.039-.094c.266-.015.594-.078.985-.187a.26.26 0 0 1 .117-.024c.203 0 .469.125.797.375.328.25.492.469.492.656 0 .188-.172.297-.516.329l-3.914.187-.023 1.688Zm-3.914-7.782 2.648-.117v-1.336l-2.765.14.117 1.313Zm.234 2.485 2.391-.07v-1.477l-2.531.117.14 1.43Zm6.164-.211.141-1.5-2.578.117v1.477l2.437-.094Zm.235-2.578.14-1.36-2.789.14-.023 1.337 2.672-.117Zm.398 10.968c0-.14.086-.32.258-.539 1.422-1.812 2.469-3.687 3.141-5.625.687-1.953 1.148-4.148 1.382-6.586l-1.242.07-.703.024c-.187 0-.328-.023-.422-.07a1.888 1.888 0 0 1-.586-.633c-.14-.25-.211-.43-.211-.54 0-.093.055-.14.164-.14l.141.024c.25.062.555.093.914.093h.281l1.782-.117c.093-1.39.14-3.054.14-4.992 0-.469-.086-.836-.258-1.101a.565.565 0 0 1-.07-.235c0-.11.102-.164.305-.164.281 0 .601.063.961.188.359.109.539.336.539.68v.843c0 1.625-.047 3.188-.141 4.688l2.625-.188h.164c.219 0 .461.07.727.211.265.125.398.313.398.563a.75.75 0 0 1-.094.328.94.94 0 0 0-.07.257c-.094 3.782-.344 7.079-.75 9.891-.14.984-.32 1.766-.539 2.344-.219.578-.601.867-1.148.867-.297 0-.735-.203-1.313-.61a12.886 12.886 0 0 1-1.57-1.335c-.485-.485-.727-.805-.727-.961 0-.094.063-.14.188-.14s.328.07.609.21c.75.406 1.547.75 2.391 1.031a.26.26 0 0 0 .117.024c.094 0 .148-.047.164-.14.359-1.032.625-2.587.797-4.665a87.13 87.13 0 0 0 .328-6.562l-2.391.164a36.103 36.103 0 0 1-.656 4.172c-.297 1.359-.844 2.812-1.64 4.359-.782 1.531-1.868 2.93-3.258 4.195-.219.203-.407.305-.563.305-.109 0-.164-.063-.164-.188ZM244.414 16.313a.972.972 0 0 0-.164.046c-.078.016-.117-.007-.117-.07 0-.016.031-.047.094-.094l.164-.164c.047-.047.117-.11.211-.187.093-.094.164-.188.21-.281.235-.391.399-.782.493-1.172l.14-.82c.11-.61.157-1.321.141-2.133 0-.188-.024-.383-.07-.586-.016-.094-.094-.227-.235-.399v-.023c0-.032.039-.047.117-.047.11 0 .204.008.282.023.203.047.429.07.679.07.266-.015.43-.023.493-.023l1.57-.117c.312-.031.516-.047.609-.047.672-.094.977-.133.914-.117.36-.063.578-.094.657-.094.25.016.5.211.75.586l.046.117c0 .094-.07.149-.21.164a3.611 3.611 0 0 1-.258.024c-.485 0-.844.008-1.078.023-.594 0-1.032.008-1.313.024l-.656.046-1.336.141c-.094 1.313-.18 2.172-.258 2.578-.125.735-.367 1.328-.727 1.781-.265.344-.648.594-1.148.75Zm5.906 6.632c-.234 0-.461-.172-.679-.515a7.442 7.442 0 0 0-.821-1.078l-.609-.633a9.616 9.616 0 0 1-.867.89c-.235.22-.532.43-.891.633-.672.39-1.234.586-1.687.586-.11 0-.164-.039-.164-.117 0-.047.148-.148.445-.305.297-.156.578-.343.844-.562a10.17 10.17 0 0 0 1.664-1.735c-.094-.093-.563-.5-1.407-1.218a8.177 8.177 0 0 1-.492-.399 6.385 6.385 0 0 1-.281-.21c-.141-.11-.211-.188-.211-.235 0-.078.039-.117.117-.117.235 0 .61.164 1.125.492.516.312 1.055.687 1.617 1.125.219-.266.391-.516.516-.75.125-.235.266-.524.422-.867a1.61 1.61 0 0 0 .141-.446c.015-.14.023-.226.023-.257 0-.172.047-.258.141-.258.109 0 .257.086.445.258.328.312.492.523.492.632 0 .063-.039.133-.117.211a2.87 2.87 0 0 0-.516.75 6.204 6.204 0 0 1-.515.797c-.078.094-.141.18-.188.258a2.737 2.737 0 0 1-.14.21c.359.267.89.72 1.593 1.36.172.157.282.305.328.446.063.125.094.297.094.515 0 .157-.039.29-.117.399a.378.378 0 0 1-.305.14Zm-2.367 7.453c-.109 0-.187-.03-.234-.093a1.345 1.345 0 0 0-.094-.117c-.156-.22-.227-.43-.211-.633.016-.125.039-.461.07-1.008l.024-1.125c-.016-.172-.031-.274-.047-.305-.016-.047-.086-.14-.211-.281-.25-.313-.539-.633-.867-.961a20.823 20.823 0 0 1-.727-.75l-.703-.703c-.047-.047-.07-.094-.07-.14 0-.079.047-.141.14-.188a.507.507 0 0 1 .329-.07c.312.03.515.07.609.117.109.03.211.125.305.28.093.157.226.345.398.563.188.203.328.36.422.47.391.468.664.78.82.937.282-.328.633-.797 1.055-1.407.344-.437.547-.797.609-1.078.063-.203.157-.304.282-.304.062 0 .156.039.281.117.406.25.609.453.609.61 0 .093-.101.21-.304.35a3.24 3.24 0 0 0-.704.68l-.468.586c-.313.375-.547.672-.704.89-.078.142-.117.345-.117.61v2.368c.016.109-.047.234-.187.375-.125.14-.227.21-.305.21Zm4.149-8.906c.078 0 .195.055.351.164-.015.032.016.094.094.188l.164.164c.078.078.156.172.234.281l.305.352c.281.297.93 1.07 1.945 2.32.172.25.258.398.258.445 0 .157-.094.235-.281.235-.11 0-.227-.078-.352-.235-.297-.312-.828-.804-1.593-1.476-.594-.547-1.133-.97-1.618-1.266-.234-.11-.351-.234-.351-.375 0-.11.117-.266.351-.469.219-.218.383-.328.493-.328Zm-29.297.235c-.375 0-.68-.055-.914-.165-.219-.109-.399-.39-.539-.843a.32.32 0 0 1-.024-.14c0-.079.047-.118.141-.118.062 0 .109.008.14.023.407.094.789.141 1.149.141h.117l8.203-.398.024-1.008-4.032.21h-.398c-.438 0-.719-.054-.844-.163a2.628 2.628 0 0 1-.445-.54c-.125-.234-.188-.39-.188-.468 0-.078.039-.117.117-.117l.188.047c.281.078.625.117 1.031.117h.211l4.36-.211.023-1.032-3.422.188-.469.023c-.375 0-.664-.062-.867-.187-.203-.14-.367-.398-.492-.773a1.012 1.012 0 0 1-.047-.165c0-.078.039-.117.117-.117.016 0 .086.016.211.047.172.047.438.07.797.07h.258l3.914-.21.023-1.172-6.164.328-.586.023c-.406 0-.718-.117-.937-.351-.219-.25-.328-.485-.328-.704 0-.109.055-.164.164-.164.047 0 .086.008.117.024.313.094.688.14 1.125.14h.141l6.492-.374v-1.243l-3.492.211h-.282c-.406 0-.703-.054-.89-.164-.172-.125-.36-.39-.563-.797a1.012 1.012 0 0 1-.047-.164c0-.078.047-.117.141-.117.063 0 .117.008.164.024.266.078.602.117 1.008.117h.164l3.82-.235v-.61c0-.296-.031-.57-.093-.82-.047-.25-.11-.437-.188-.562-.078-.11-.117-.187-.117-.234 0-.063.07-.094.211-.094.172 0 .422.047.75.14.328.079.547.165.656.258.109.094.164.243.164.446l-.023 1.383 3.961-.258a1.1 1.1 0 0 1 .257-.024c.235 0 .461.102.68.305.235.188.352.383.352.586 0 .078-.039.18-.117.305a.713.713 0 0 0-.094.28l-.141.915 1.055-.07c.187-.016.398-.047.633-.094.234-.063.429-.125.586-.188a.58.58 0 0 1 .257-.046c.172 0 .422.117.75.351.344.234.516.453.516.656 0 .172-.227.274-.68.305l-3.281.188-.187 1.171c.406.407.609.696.609.868 0 .093-.055.156-.164.187a6.032 6.032 0 0 1-.516.047l-4.523.258-.024 1.054 3.399-.164c.39-.015.75-.093 1.078-.234a1.42 1.42 0 0 1 .234-.047c.219 0 .485.125.797.375.328.25.492.453.492.61 0 .171-.203.273-.609.304l-5.391.281-.023 1.008 7.43-.351c.406-.016.836-.11 1.289-.282a.58.58 0 0 1 .258-.07c.187 0 .437.14.75.422.328.281.492.516.492.703 0 .188-.227.297-.68.328l-18.844.82h-.351Zm-.422 7.265c0-.094.039-.14.117-.14.062 0 .117.007.164.023.156.063.367.11.633.14.281.032.539.047.773.047h.188l14.836-.398c.39-.016.828-.102 1.312-.258.125-.031.211-.047.258-.047.203 0 .469.141.797.422.328.282.492.516.492.703 0 .11-.055.188-.164.235a.741.741 0 0 1-.375.093l-16.852.446-.726.023c-.422 0-.703-.062-.844-.187a2.142 2.142 0 0 1-.445-.563c-.109-.203-.164-.383-.164-.539Zm3.094-6.633c0-.093.085-.14.257-.14.297 0 .805.117 1.524.351l9.656-.422.234-.023c.219 0 .454.094.704.281.265.172.398.375.398.61a.775.775 0 0 1-.07.304 1.875 1.875 0 0 0-.094.211l-.492 2.883c.468.406.703.688.703.844 0 .11-.07.187-.211.234a3.38 3.38 0 0 1-.563.07l-9.843.282.023.164v.117c0 .266-.094.398-.281.398a1.49 1.49 0 0 1-.422-.093 1.81 1.81 0 0 1-.516-.328.668.668 0 0 1-.234-.516l.023-.164c.032-.313.047-.524.047-.633 0-.11-.015-.305-.047-.586l-.328-2.484a3.153 3.153 0 0 0-.304-.938c-.11-.187-.164-.328-.164-.422Zm1.875 2.368 3.773-.141V23.53l-3.891.164.118 1.032Zm.21 2.039 3.54-.094V25.64l-3.657.117.117 1.008Zm8.766-.258.141-1.055-4.102.14v1.032l3.961-.117Zm.258-2.133.117-1.055-4.312.164v1.055l4.195-.164Zm-.774-8.695.141-1.172-3.422.187-.023 1.172 3.304-.187Zm.258-2.274.141-1.265-3.656.21-.024 1.266 3.539-.21ZM282.922 19.43a.511.511 0 0 1-.328-.094l-.117-.117c-.063-.125-.25-.469-.563-1.032-.297-.562-.516-.945-.656-1.148-.297-.437-.446-.719-.446-.844 0-.172.102-.422.305-.75.313-.437.524-.789.633-1.054.203-.375.352-.664.445-.868.094-.218.133-.39.117-.515a1.368 1.368 0 0 1-.023-.258c0-.063.016-.094.047-.094.031-.015.094-.008.187.024.157.047.336.156.539.328.047.047.102.11.165.187a.593.593 0 0 1 .117.211.197.197 0 0 1 .023.164c0 .047-.023.094-.07.14l-.117.095c-.11.14-.235.312-.375.515-.141.203-.274.39-.399.563l-.586.844c-.156.218-.234.375-.234.468 0 .047.07.172.211.375l.492.54c.469.515.688.757.656.726.297.297.446.586.446.867 0 .485-.157.727-.469.727Zm3.094-.07a.785.785 0 0 1-.352-.07 1.534 1.534 0 0 1-.375-.61l-.492-.867-.469-.82c-.297-.407-.445-.68-.445-.821 0-.188.101-.43.305-.727l.374-.539c.157-.265.243-.422.258-.469.157-.312.289-.585.399-.82.125-.25.179-.437.164-.562a.964.964 0 0 1-.024-.235c0-.125.071-.156.211-.093.203.078.422.203.657.375.109.109.179.203.211.28.046.063.07.15.07.259 0 .03-.055.093-.164.187-.11.078-.203.164-.282.258-.093.094-.304.39-.632.89a7.732 7.732 0 0 1-.235.329c-.078.11-.179.258-.304.445-.157.203-.235.352-.235.445 0 .094.094.235.282.422.062.063.124.14.187.235l.281.28.61.68c.296.266.445.524.445.774 0 .516-.149.773-.445.773Zm.304 7.804c-.234 0-.461-.172-.679-.516a7.448 7.448 0 0 0-.821-1.078l-.609-.633a9.603 9.603 0 0 1-.867.891c-.235.219-.532.43-.891.633-.672.39-1.234.586-1.687.586-.11 0-.164-.04-.164-.117 0-.047.148-.149.445-.305.297-.156.578-.344.844-.563a10.162 10.162 0 0 0 1.664-1.734c-.094-.094-.563-.5-1.407-1.219a8.23 8.23 0 0 1-.492-.398 6.27 6.27 0 0 1-.281-.211c-.141-.11-.211-.188-.211-.234 0-.078.039-.118.117-.118.235 0 .61.165 1.125.493.516.312 1.055.687 1.617 1.125.219-.266.391-.516.516-.75.125-.235.266-.524.422-.868.078-.171.125-.32.141-.445.015-.14.023-.226.023-.258 0-.172.047-.258.141-.258.109 0 .257.086.445.258.328.313.492.524.492.633 0 .063-.039.133-.117.211a2.87 2.87 0 0 0-.516.75 6.197 6.197 0 0 1-.515.797c-.078.094-.141.18-.188.258a2.737 2.737 0 0 1-.14.21c.359.266.89.72 1.593 1.36.172.156.282.305.328.445.063.125.094.297.094.516 0 .156-.039.29-.117.398a.378.378 0 0 1-.305.141Zm1.782-8.25c.078 0 .195.055.351.164-.015.031.016.094.094.188l.164.164c.078.078.156.172.234.28l.305.352c.281.297.93 1.07 1.945 2.32.172.25.258.4.258.446 0 .156-.094.235-.281.235-.11 0-.227-.079-.352-.235-.297-.312-.828-.805-1.593-1.476-.594-.547-1.133-.97-1.618-1.266-.234-.11-.351-.234-.351-.375 0-.11.117-.266.351-.469.219-.219.383-.328.493-.328Zm-12.024-2.625c-.672 2.766-1.562 5.133-2.672 7.102 1.422 2.093 3.274 4.03 5.555 5.812.172.125.258.242.258.352 0 .125-.18.289-.539.492-.344.219-.586.328-.727.328-.203 0-.633-.32-1.289-.96a35.405 35.405 0 0 1-2.156-2.274 30.352 30.352 0 0 1-1.899-2.461 17.299 17.299 0 0 1-2.531 2.976c-.922.86-1.781 1.524-2.578 1.992-.781.485-1.312.727-1.594.727-.125 0-.187-.047-.187-.14 0-.141.148-.329.445-.563a24.147 24.147 0 0 0 3.094-2.86 21.45 21.45 0 0 0 2.531-3.445 27.953 27.953 0 0 1-2.32-4.945 15.37 15.37 0 0 1-1.5 2.156c-.516.61-.852.914-1.008.914-.078 0-.117-.055-.117-.164 0-.187.086-.43.258-.726a40.06 40.06 0 0 0 1.968-4.266c.563-1.438.992-2.688 1.289-3.75.313-1.078.469-1.758.469-2.04a3.43 3.43 0 0 0-.023-.444v-.047c0-.125.078-.188.234-.188.25 0 .563.14.938.422.39.266.585.516.585.75 0 .203-.203.836-.609 1.899a53.278 53.278 0 0 1-.984 2.484l4.781-.328a3.306 3.306 0 0 0 1.055-.235c.125-.03.203-.046.234-.046.188 0 .453.132.797.398.344.25.516.476.516.68 0 .171-.164.273-.493.304l-1.781.094Zm-18.89.047c0-.078.039-.117.117-.117.062 0 .109.008.14.023.235.078.555.117.961.117h.235l3.468-.187.024-4.125c0-.156-.024-.313-.071-.469a2.577 2.577 0 0 0-.21-.492.42.42 0 0 1-.071-.211c0-.125.102-.188.305-.188.172 0 .43.047.773.141.516.125.774.352.774.68l-.094 4.594 1.922-.118a4.734 4.734 0 0 0 1.289-.21.993.993 0 0 1 .82.188c.203.124.368.272.492.444.141.172.211.297.211.375 0 .219-.187.344-.562.375l-4.195.235-.094 3.843 2.156-.117.258-.023c.219 0 .445.101.68.304.234.188.351.368.351.54a.589.589 0 0 1-.094.28.58.58 0 0 0-.093.259l-.516 4.171c.391.485.586.813.586.985 0 .11-.047.18-.141.21a4.463 4.463 0 0 1-.468.048l-5.086.14.07.938v.07a.53.53 0 0 1-.117.352c-.063.093-.164.14-.305.14-.219 0-.476-.093-.773-.281-.282-.172-.422-.367-.422-.586 0-.094.008-.164.023-.21.047-.267.071-.548.071-.845l-.024-.492-.305-4.406c-.031-.469-.117-.86-.257-1.172-.078-.156-.118-.281-.118-.375 0-.11.079-.164.235-.164.25 0 .765.133 1.547.398l1.382-.07.024-3.844-3.047.164-.469.024c-.39 0-.656-.07-.797-.211a1.962 1.962 0 0 1-.445-.656c-.094-.25-.14-.407-.14-.47Zm3.773 10.453 3.82-.14.375-4.266-4.5.234.305 4.172Zm9.351-9.937c.61 1.875 1.344 3.585 2.204 5.132.718-1.453 1.343-3.312 1.875-5.578l-3.985.282-.094.164ZM316.625 24.281a.584.584 0 0 1-.211-.023c-.016-.031.008-.086.07-.164.219-.203.391-.399.516-.586.141-.203.289-.524.445-.961.25-.719.375-1.274.375-1.664 0-.36-.023-.688-.07-.985v-.07c0-.172.109-.226.328-.164.188.047.399.11.633.188a.708.708 0 0 1 .211-.024l.445-.07a40.273 40.273 0 0 1 2.063-.235c0-.062.062-.28.187-.656l.141-.515c.062-.22.039-.329-.07-.329-.313 0-1.04.079-2.18.235l-1.242.21c-.11.016-.25-.03-.422-.14a1.416 1.416 0 0 1-.375-.375c-.078-.14-.063-.234.047-.281a.703.703 0 0 1 .375-.117h.539l1.547-.047 1.5-.188c.078-.015.171-.039.281-.07.125-.047.242-.078.351-.094.157-.031.422.14.797.516a.29.29 0 0 1 .094.21c0 .095-.062.188-.188.282-.171.172-.281.32-.328.445a3.903 3.903 0 0 1-.093.352c-.047.14-.094.32-.141.539a.59.59 0 0 1 .141.398c0 .125-.039.22-.118.282-.062.047-.195.07-.398.07-.703.047-1.258.094-1.664.14-.406.032-.899.11-1.477.235a7.505 7.505 0 0 1-.422 1.945c-.218.578-.523 1.016-.914 1.313-.375.265-.632.398-.773.398Zm7.477-8.883c.078 0 .195.055.351.165-.015.03.016.093.094.187l.164.164c.078.078.156.172.234.281l.305.352c.281.297.93 1.07 1.945 2.32.172.25.258.399.258.445 0 .157-.094.235-.281.235-.11 0-.227-.078-.352-.235-.297-.312-.828-.804-1.593-1.476-.594-.547-1.133-.969-1.618-1.266-.234-.11-.351-.234-.351-.375 0-.11.117-.265.351-.468.219-.22.383-.329.493-.329Zm-14.086 8.977c.375.39.562.672.562.844 0 .11-.055.18-.164.21-.094.032-.25.055-.469.071l-5.578.234v2.508l.024.586c.015.11.023.274.023.492 0 .485-.141.875-.422 1.172-.281.313-.594.469-.937.469-.282 0-.735-.195-1.36-.586-.625-.39-1.203-.82-1.734-1.29-.531-.452-.797-.757-.797-.913 0-.125.086-.188.258-.188.156 0 .312.04.469.118 1.281.546 2.297.906 3.047 1.078V25.78l-4.454.188-.632.023c-.547 0-.946-.32-1.196-.96a.535.535 0 0 1-.07-.212c0-.078.039-.117.117-.117l.188.047c.171.063.445.094.82.094h.281l4.946-.188V23.18l-7.946.351h-.164c-.312 0-.594-.054-.844-.164-.25-.125-.437-.414-.562-.867a.256.256 0 0 1-.024-.117c0-.078.047-.117.141-.117l.141.023c.312.078.586.117.82.117h.188l8.25-.351v-1.29l-4.665.235h-.328c-.39 0-.695-.078-.914-.234a1.354 1.354 0 0 1-.422-.493 1.274 1.274 0 0 1-.093-.375c0-.078.039-.117.117-.117.062 0 .109.008.14.024.344.078.625.117.844.117l.352-.024 4.945-.28v-1.36l-4.125.187.023.188v.094c0 .203-.132.304-.398.304-.172 0-.398-.039-.68-.117-.265-.094-.398-.273-.398-.539v-.563a3.7 3.7 0 0 0-.024-.492l-.164-1.265c-.046-.453-.171-.828-.375-1.125-.109-.172-.164-.297-.164-.375 0-.11.086-.164.258-.164.281 0 .821.14 1.617.421l4.43-.257v-1.36l-6.656.375a5.346 5.346 0 0 1-.563.024c-.328 0-.593-.086-.797-.258a1.873 1.873 0 0 1-.421-.54c-.079-.202-.118-.335-.118-.398 0-.078.047-.117.141-.117.062 0 .117.008.164.024.313.078.633.117.961.117h.211l7.078-.422v-1.172c0-.484-.117-.875-.352-1.172a.42.42 0 0 1-.07-.164c0-.094.086-.14.258-.14.188 0 .406.039.656.117.391.11.641.226.75.351.11.125.164.313.164.563v1.523l5.977-.351c.219-.016.437-.055.656-.117.219-.079.359-.126.422-.141a.325.325 0 0 1 .141-.024c.218 0 .484.141.796.422.313.282.469.508.469.68 0 .172-.172.273-.515.305l-7.946.445v1.36l4.805-.282.375-.023c.203 0 .414.07.633.21.234.126.351.274.351.446a.536.536 0 0 1-.117.305c-.062.109-.101.187-.117.234l-.375 1.477c.391.375.586.64.586.796 0 .11-.055.18-.164.211a2.704 2.704 0 0 1-.516.07l-5.437.259v1.359l5.203-.305.258-.023c.203 0 .422.086.656.258.25.156.375.367.375.632 0 .078-.031.18-.094.305a.73.73 0 0 0-.094.281l-.187 1.032 1.781-.07c.266-.016.508-.063.727-.141l.398-.141c.125-.031.211-.047.258-.047.156 0 .398.125.727.375.328.25.492.469.492.656 0 .188-.211.297-.633.328l-3.938.165-.257 1.523Zm-11.344-6.96 4.242-.212v-1.617l-4.43.258.188 1.57Zm5.695 7.194 4.313-.164.211-1.523-4.547.21.023 1.477Zm4.664-2.812.188-1.36-4.875.258v1.29l4.687-.188Zm-.515-4.875.281-1.664-4.453.258v1.617l4.172-.211Z"/><path fill="#333" d="M340.789 24.54c0 .124-.07.218-.211.28a1.043 1.043 0 0 1-.469.094c-.359 0-.617-.055-.773-.164a.746.746 0 0 1-.305-.422 4.334 4.334 0 0 1-.047-.726c0-.407.032-.805.094-1.196.094-.656.344-1.21.75-1.664.406-.469.984-.992 1.734-1.57.547-.422.985-.79 1.313-1.102.328-.312.602-.68.82-1.101.235-.422.352-.899.352-1.43 0-.562-.258-1.039-.774-1.43-.515-.39-1.14-.586-1.875-.586a6.93 6.93 0 0 0-2.484.446c-.766.281-1.383.656-1.852 1.125-.359.39-.64.922-.843 1.594-.063.203-.203.304-.422.304-.235 0-.477-.101-.727-.305-.25-.218-.375-.445-.375-.68 0-.202.258-.624.774-1.265.515-.656 1.273-1.25 2.273-1.781 1-.547 2.211-.82 3.633-.82 1.234 0 2.273.296 3.117.89.844.594 1.266 1.383 1.266 2.367 0 .72-.141 1.352-.422 1.899a5.293 5.293 0 0 1-1.008 1.36c-.39.359-.906.78-1.547 1.265-.703.531-1.234.992-1.593 1.383a2.328 2.328 0 0 0-.61 1.312 4.596 4.596 0 0 0-.023.54c0 .359.07.788.211 1.288l.023.094Zm-2.156 3.116c0-.343.101-.625.305-.843.218-.22.531-.329.937-.329.297 0 .57.164.82.493.266.312.399.648.399 1.007 0 .328-.102.586-.305.774-.203.203-.508.305-.914.305-.328 0-.617-.149-.867-.446-.25-.297-.375-.617-.375-.96Z"/></svg>