<svg width="350" height="40" viewBox="0 0 350 40" fill="none" xmlns="http://www.w3.org/2000/svg">
<path d="M66.0078 18.8438C65.9141 18.8438 65.7812 18.7734 65.6094 18.6328C65.5156 18.5703 65.4375 18.5078 65.375 18.4453C65.3125 18.3828 65.2812 18.3281 65.2812 18.2812L65.3047 17.9062C65.3203 17.7656 65.3281 17.4531 65.3281 16.9688C65.3125 16.625 65.3047 15.9062 65.3047 14.8125C65.3047 14.375 65.2656 13.9766 65.1875 13.6172C65.1875 13.6172 65.1562 13.4297 65.0938 13.0547V12.9844C65.0938 12.8438 65.1875 12.8047 65.375 12.8672C65.4531 12.8828 65.6328 12.9141 65.9141 12.9609C66.2109 12.9141 67.2031 12.7969 68.8906 12.6094C69.125 12.5781 69.3125 12.5469 69.4531 12.5156C69.5938 12.4844 69.6953 12.4609 69.7578 12.4453H69.8516C70.0234 12.4453 70.1797 12.5312 70.3203 12.7031C70.5703 13 70.6719 13.2109 70.625 13.3359C70.5625 13.4922 70.5 13.7578 70.4375 14.1328C70.4062 14.3516 70.3672 14.7266 70.3203 15.2578V16.3359V18.0469C70.3203 18.1875 70.25 18.375 70.1094 18.6094C70.0781 18.6875 70.0156 18.75 69.9219 18.7969C69.8438 18.8438 69.7578 18.8672 69.6641 18.8672C69.5703 18.8672 69.5 18.8438 69.4531 18.7969C69.4219 18.7656 69.3906 18.7344 69.3594 18.7031C69.3281 18.6562 69.2969 18.625 69.2656 18.6094C69.25 18.5938 69.2188 18.5859 69.1719 18.5859C68.2031 18.5859 67.3281 18.6484 66.5469 18.7734C66.4844 18.7891 66.4219 18.7969 66.3594 18.7969C66.3125 18.7969 66.2656 18.8047 66.2188 18.8203L66.0547 18.8438H66.0078ZM66.4531 17.9766C66.8438 17.9609 67.375 17.9141 68.0469 17.8359C68.3594 17.8047 68.5391 17.7891 68.5859 17.7891H68.7734C69.0234 17.7891 69.2109 17.8359 69.3359 17.9297C69.4453 17.1484 69.5 15.7188 69.5 13.6406C69.4688 13.4062 69.375 13.2891 69.2188 13.2891C68.9219 13.2891 68.3203 13.3438 67.4141 13.4531C67.3203 13.4531 67.2266 13.4609 67.1328 13.4766C67.0391 13.4922 66.9453 13.5078 66.8516 13.5234C66.5859 13.5703 66.3906 13.5938 66.2656 13.5938C66.1562 13.5938 66.1172 13.6484 66.1484 13.7578L66.125 14.5547C66.1094 14.6641 66.1016 14.7656 66.1016 14.8594C66.1172 14.9531 66.125 15.0391 66.125 15.1172C66.1406 15.2422 66.1484 15.4453 66.1484 15.7266C66.1484 16.9453 66.1562 17.6172 66.1719 17.7422C66.1719 17.8516 66.2031 17.9219 66.2656 17.9531C66.3281 17.9844 66.3906 17.9922 66.4531 17.9766ZM68.1875 16.6641C68.0156 16.6641 67.8828 16.5781 67.7891 16.4062C67.4609 15.8594 67.1562 15.4062 66.875 15.0469L66.7109 14.7891C66.6484 14.6953 66.6172 14.625 66.6172 14.5781C66.6328 14.5156 66.6719 14.4922 66.7344 14.5078C67.1406 14.6328 67.5156 14.8359 67.8594 15.1172C68.3906 15.5234 68.6562 15.8359 68.6562 16.0547C68.6562 16.1641 68.625 16.2734 68.5625 16.3828C68.4531 16.5703 68.3281 16.6641 68.1875 16.6641ZM70.3203 26.8359C70.0859 26.8359 69.8594 26.6641 69.6406 26.3203C69.3594 25.8828 69.0859 25.5234 68.8203 25.2422L68.2109 24.6094C67.8828 24.9844 67.5938 25.2812 67.3438 25.5C67.1094 25.7188 66.8125 25.9297 66.4531 26.1328C65.7812 26.5234 65.2188 26.7188 64.7656 26.7188C64.6562 26.7188 64.6016 26.6797 64.6016 26.6016C64.6016 26.5547 64.75 26.4531 65.0469 26.2969C65.3438 26.1406 65.625 25.9531 65.8906 25.7344C66.5625 25.1719 67.1172 24.5938 67.5547 24C67.4609 23.9062 66.9922 23.5 66.1484 22.7812C66.0391 22.7031 65.875 22.5703 65.6562 22.3828C65.6094 22.3516 65.5156 22.2812 65.375 22.1719C65.2344 22.0625 65.1641 21.9844 65.1641 21.9375C65.1641 21.8594 65.2031 21.8203 65.2812 21.8203C65.5156 21.8203 65.8906 21.9844 66.4062 22.3125C66.9219 22.625 67.4609 23 68.0234 23.4375C68.2422 23.1719 68.4141 22.9219 68.5391 22.6875C68.6641 22.4531 68.8047 22.1641 68.9609 21.8203C69.0391 21.6484 69.0859 21.5 69.1016 21.375C69.1172 21.2344 69.125 21.1484 69.125 21.1172C69.125 20.9453 69.1719 20.8594 69.2656 20.8594C69.375 20.8594 69.5234 20.9453 69.7109 21.1172C70.0391 21.4297 70.2031 21.6406 70.2031 21.75C70.2031 21.8125 70.1641 21.8828 70.0859 21.9609C69.8984 22.1484 69.7266 22.3984 69.5703 22.7109C69.4766 22.8984 69.3047 23.1641 69.0547 23.5078C68.9766 23.6016 68.9141 23.6875 68.8672 23.7656C68.8203 23.8438 68.7734 23.9141 68.7266 23.9766C69.0859 24.2422 69.6172 24.6953 70.3203 25.3359C70.4922 25.4922 70.6016 25.6406 70.6484 25.7812C70.7109 25.9062 70.7422 26.0781 70.7422 26.2969C70.7422 26.4531 70.7031 26.5859 70.625 26.6953C70.5469 26.7891 70.4453 26.8359 70.3203 26.8359ZM75.1016 16.7109C75.2891 16.7109 75.3828 16.7969 75.3828 16.9688C75.3828 17.0625 75.2969 17.1953 75.125 17.3672C74.6562 17.9453 73.7266 19.0469 72.3359 20.6719C72.2266 20.8125 72.125 20.8828 72.0312 20.8828C71.9531 20.8828 71.7812 20.7656 71.5156 20.5312C71.2969 20.3438 71.1875 20.1875 71.1875 20.0625C71.1875 19.9219 71.3047 19.7891 71.5391 19.6641C71.8984 19.4609 72.4375 19.0547 73.1562 18.4453C73.875 17.8047 74.4062 17.2969 74.75 16.9219C74.8906 16.7812 75.0078 16.7109 75.1016 16.7109ZM52.5547 15.4453C52.7266 15.4453 52.8594 15.4766 52.9531 15.5391C53.0625 15.5859 53.1172 15.6484 53.1172 15.7266C53.1172 15.8672 53.0078 15.9844 52.7891 16.0781C52.5703 16.1562 52.1562 16.2656 51.5469 16.4062C51.3594 17.7812 51.0625 19.1484 50.6562 20.5078C50.25 21.8516 49.625 23.1641 48.7812 24.4453C50.8906 26.3203 51.9453 27.4297 51.9453 27.7734C51.9453 27.9766 51.8281 28.1875 51.5938 28.4062C51.375 28.625 51.1875 28.7344 51.0312 28.7344C50.8906 28.7344 50.7344 28.625 50.5625 28.4062C49.7656 27.4375 48.875 26.5 47.8906 25.5938C47.125 26.4844 46.3047 27.2656 45.4297 27.9375C44.5703 28.6094 43.7969 29.125 43.1094 29.4844C42.4219 29.8594 41.9844 30.0469 41.7969 30.0469C41.6719 30.0469 41.6094 30 41.6094 29.9062C41.6094 29.7188 41.7734 29.5156 42.1016 29.2969C43.8984 28.0469 45.5156 26.5156 46.9531 24.7031C46.3438 24.1406 45.7109 23.5938 45.0547 23.0625C44.9766 23 44.8516 22.9219 44.6797 22.8281C44.5078 22.7188 44.375 22.6172 44.2812 22.5234C44.2031 22.4141 44.1484 22.2656 44.1172 22.0781C44.1016 22.0156 44.0938 21.9141 44.0938 21.7734C44.0938 21.5547 44.1328 21.3125 44.2109 21.0469C44.4922 20.1875 44.8047 19.0391 45.1484 17.6016C44.8672 17.6484 44.3594 17.7266 43.625 17.8359C42.8906 17.9297 42.4375 17.9766 42.2656 17.9766C42.0312 17.9766 41.7969 17.8672 41.5625 17.6484C41.3281 17.4297 41.1484 17.0938 41.0234 16.6406C41.0078 16.6094 41 16.5625 41 16.5C41 16.4062 41.0547 16.3594 41.1641 16.3594L41.2578 16.3828C41.3984 16.4141 41.6172 16.4297 41.9141 16.4297C42.2266 16.4297 43.4141 16.3438 45.4766 16.1719C45.6797 15.1719 45.8672 14.0938 46.0391 12.9375C46.2109 11.7812 46.2969 10.9844 46.2969 10.5469C46.2969 10.2031 46.2422 9.91406 46.1328 9.67969C46.1016 9.58594 46.0859 9.53125 46.0859 9.51562C46.0859 9.39062 46.1719 9.32812 46.3438 9.32812C46.7812 9.39062 47.1484 9.50781 47.4453 9.67969C47.7578 9.85156 47.9141 10.0703 47.9141 10.3359V10.5C47.7266 12.25 47.4219 14.0938 47 16.0312L50.1641 15.6562C50.1797 15.5469 50.1953 15.4219 50.2109 15.2812C50.2266 15.1406 50.2344 14.9688 50.2344 14.7656V14.5547C50.2344 14.2734 50.1875 13.9844 50.0938 13.6875C50.0781 13.6406 50.0703 13.5781 50.0703 13.5C50.0703 13.3594 50.1406 13.2891 50.2812 13.2891C50.4219 13.2891 50.6875 13.375 51.0781 13.5469C51.3438 13.6719 51.5234 13.7812 51.6172 13.875C51.7109 13.9688 51.7578 14.1094 51.7578 14.2969V14.3906C51.7422 14.6562 51.7031 15.0312 51.6406 15.5156L52.3672 15.4453H52.5547ZM45.4297 21.6797C46.3672 22.3828 47.1484 23.0234 47.7734 23.6016C48.1641 22.9453 48.5781 22.0625 49.0156 20.9531C49.4531 19.8281 49.7891 18.4219 50.0234 16.7344C48.7422 16.9844 47.625 17.1797 46.6719 17.3203C46.4062 18.3359 45.9922 19.7891 45.4297 21.6797ZM53.5391 14.2266C53.5391 14.0703 53.6406 13.9922 53.8438 13.9922C54.1094 13.9922 54.6328 14.1641 55.4141 14.5078L59.9844 14.2266H60.1719C60.4844 14.2266 60.7266 14.2891 60.8984 14.4141C61.0859 14.5391 61.2109 14.6797 61.2734 14.8359C61.3516 14.9766 61.3906 15.0781 61.3906 15.1406C61.3906 15.2344 61.3516 15.3594 61.2734 15.5156C61.1953 15.6719 61.1562 15.7812 61.1562 15.8438L60.6406 24.5625C61.0938 25.0156 61.3203 25.3594 61.3203 25.5938C61.3203 25.7812 61.1484 25.8906 60.8047 25.9219L55.6484 26.1094L55.6953 27.1406V27.1875C55.6953 27.3125 55.6484 27.4219 55.5547 27.5156C55.4609 27.5938 55.3438 27.6328 55.2031 27.6328C55.1094 27.6328 54.9688 27.5938 54.7812 27.5156C54.6094 27.4219 54.4453 27.3047 54.2891 27.1641C54.1484 27.0234 54.0781 26.8672 54.0781 26.6953L54.1016 26.4844C54.1484 26.1094 54.1719 25.7422 54.1719 25.3828L54.1484 24.75L53.8438 15.9141C53.8281 15.3516 53.7422 14.8672 53.5859 14.4609C53.5547 14.3359 53.5391 14.2578 53.5391 14.2266ZM55.6016 24.7734L59.1875 24.6328L59.6328 15.5859L55.2969 15.8672L55.6016 24.7734Z" fill="#333333"/>
<path d="M100.414 18.7969C100.398 18.7969 100.344 18.8125 100.25 18.8438C100.172 18.8594 100.133 18.8359 100.133 18.7734C100.133 18.7578 100.164 18.7266 100.227 18.6797C100.289 18.6172 100.344 18.5625 100.391 18.5156C100.438 18.4688 100.508 18.4062 100.602 18.3281C100.695 18.2344 100.766 18.1406 100.812 18.0469C101.047 17.6562 101.211 17.2656 101.305 16.875L101.445 16.0547C101.555 15.4453 101.602 14.7344 101.586 13.9219C101.586 13.7344 101.562 13.5391 101.516 13.3359C101.5 13.2422 101.422 13.1094 101.281 12.9375V12.9141C101.281 12.8828 101.32 12.8672 101.398 12.8672C101.508 12.8672 101.602 12.875 101.68 12.8906C101.883 12.9375 102.109 12.9609 102.359 12.9609C102.625 12.9453 102.789 12.9375 102.852 12.9375L104.422 12.8203C104.734 12.7891 104.938 12.7734 105.031 12.7734C105.703 12.6797 106.008 12.6406 105.945 12.6562C106.305 12.5938 106.523 12.5625 106.602 12.5625C106.852 12.5781 107.102 12.7734 107.352 13.1484L107.398 13.2656C107.398 13.3594 107.328 13.4141 107.188 13.4297C107.047 13.4453 106.961 13.4531 106.93 13.4531C106.445 13.4531 106.086 13.4609 105.852 13.4766C105.258 13.4766 104.82 13.4844 104.539 13.5L103.883 13.5469L102.547 13.6875C102.453 15 102.367 15.8594 102.289 16.2656C102.164 17 101.922 17.5938 101.562 18.0469C101.297 18.3906 100.914 18.6406 100.414 18.7969ZM104.023 27.4688C103.273 27.4688 102.648 27.2812 102.148 26.9062C101.633 26.4844 101.375 25.9922 101.375 25.4297C101.375 24.9922 101.539 24.6094 101.867 24.2812C102.289 23.9219 102.82 23.7422 103.461 23.7422C103.492 23.7422 103.516 23.7109 103.531 23.6484C103.562 23.5703 103.578 23.4688 103.578 23.3438L103.602 22.7344C103.492 22.75 103.281 22.7734 102.969 22.8047C102.672 22.8359 102.453 22.8672 102.312 22.8984C102.391 22.8828 102.148 22.9375 101.586 23.0625C101.539 23.0781 101.453 23.0859 101.328 23.0859C101.031 23.0859 100.781 22.9531 100.578 22.6875C100.484 22.5938 100.438 22.5156 100.438 22.4531C100.438 22.3594 100.578 22.3125 100.859 22.3125L101.586 22.2656L103.578 22.0078V21.7266V21.1406C103.562 21.0781 103.555 21.0078 103.555 20.9297C103.555 20.8516 103.547 20.7891 103.531 20.7422C103.5 20.6172 103.484 20.5391 103.484 20.5078C103.484 20.3984 103.539 20.3438 103.648 20.3438C103.789 20.3438 104.031 20.4453 104.375 20.6484C104.484 20.7109 104.539 20.7969 104.539 20.9062C104.539 20.9844 104.523 21.0547 104.492 21.1172C104.477 21.1641 104.469 21.2188 104.469 21.2812V21.9375L105.172 21.8672L106.039 21.7734C106.117 21.7578 106.203 21.7344 106.297 21.7031C106.406 21.6719 106.492 21.6562 106.555 21.6562C106.648 21.6562 106.766 21.7031 106.906 21.7969C107.172 21.9688 107.305 22.1172 107.305 22.2422C107.305 22.3672 107.172 22.4297 106.906 22.4297C106.828 22.4297 106.719 22.4453 106.578 22.4766C106.438 22.4922 106.258 22.5078 106.039 22.5234L104.469 22.6406L104.445 24.0703C104.414 24.3047 104.242 24.4531 103.93 24.5156H103.883C103.789 24.5156 103.695 24.5078 103.602 24.4922C103.523 24.4609 103.461 24.4453 103.414 24.4453C103.289 24.4453 103.164 24.4531 103.039 24.4688C102.914 24.4844 102.805 24.5312 102.711 24.6094C102.445 24.8438 102.312 25.1172 102.312 25.4297C102.312 25.7422 102.461 26.0234 102.758 26.2734C103.023 26.5234 103.445 26.6484 104.023 26.6484C104.789 26.6172 105.414 26.4062 105.898 26.0156C106.102 25.875 106.258 25.8047 106.367 25.8047C106.43 25.8047 106.508 25.8203 106.602 25.8516C106.617 25.8672 106.648 25.8984 106.695 25.9453C106.742 25.9922 106.766 26.0391 106.766 26.0859C106.766 26.5234 106.398 26.8828 105.664 27.1641C105.117 27.3672 104.57 27.4688 104.023 27.4688ZM111.102 16.7109C111.289 16.7109 111.383 16.7969 111.383 16.9688C111.383 17.0625 111.297 17.1953 111.125 17.3672C110.656 17.9453 109.727 19.0469 108.336 20.6719C108.227 20.8125 108.125 20.8828 108.031 20.8828C107.953 20.8828 107.781 20.7656 107.516 20.5312C107.297 20.3438 107.188 20.1875 107.188 20.0625C107.188 19.9219 107.305 19.7891 107.539 19.6641C107.898 19.4609 108.438 19.0547 109.156 18.4453C109.875 17.8047 110.406 17.2969 110.75 16.9219C110.891 16.7812 111.008 16.7109 111.102 16.7109ZM86.2578 14.2031C86.1016 14.2031 85.9453 14.2109 85.7891 14.2266C85.6484 14.2422 85.5156 14.25 85.3906 14.25C85.0938 14.25 84.8438 14.1641 84.6406 13.9922C84.4375 13.8047 84.2812 13.6016 84.1719 13.3828C84.0625 13.1641 84.0078 12.9922 84.0078 12.8672C84.0078 12.8047 84.0391 12.7734 84.1016 12.7734C84.1797 12.7734 84.2422 12.7812 84.2891 12.7969C84.5859 12.8594 84.9141 12.8906 85.2734 12.8906H85.6016L96.5 12.375C96.8281 12.3594 97.1328 12.2969 97.4141 12.1875C97.4609 12.1719 97.5234 12.1641 97.6016 12.1641C97.8359 12.1641 98.1094 12.3047 98.4219 12.5859C98.75 12.8516 98.9141 13.0781 98.9141 13.2656C98.9141 13.4688 98.7188 13.5859 98.3281 13.6172L95.5625 13.7578L95.5859 28.2422C95.5859 28.4141 95.5938 28.5703 95.6094 28.7109C95.6406 28.8672 95.6562 29.0078 95.6562 29.1328C95.6562 29.4766 95.5234 29.7734 95.2578 30.0234C94.9922 30.2734 94.7422 30.3984 94.5078 30.3984C94.3828 30.3984 94.0703 30.2734 93.5703 30.0234C93.0703 29.7891 92.5078 29.4766 91.8828 29.0859C91.2578 28.7109 90.6875 28.3125 90.1719 27.8906C89.7969 27.5625 89.6094 27.3281 89.6094 27.1875C89.6094 27.1094 89.6719 27.0703 89.7969 27.0703C90 27.0703 90.2656 27.1484 90.5938 27.3047C91.3594 27.6484 92.5156 28.0234 94.0625 28.4297L94.0391 13.8281L86.2578 14.2031ZM76.9297 21.1875C76.9297 21.0312 77.0312 20.8203 77.2344 20.5547C78.4375 18.9766 79.5234 17.375 80.4922 15.75C81.4609 14.125 82.2109 12.5859 82.7422 11.1328C82.8203 10.8203 82.8594 10.5781 82.8594 10.4062C82.8594 10.3281 82.8438 10.2109 82.8125 10.0547L82.7891 9.96094C82.7891 9.80469 82.8828 9.72656 83.0703 9.72656C83.3203 9.72656 83.6328 9.84375 84.0078 10.0781C84.3984 10.3125 84.5938 10.5234 84.5938 10.7109C84.5938 10.8672 84.3516 11.4688 83.8672 12.5156C83.3984 13.5469 82.8281 14.5938 82.1562 15.6562V29.6719C82.1562 29.9844 82.0156 30.1406 81.7344 30.1406C81.5312 30.1406 81.2812 30.0547 80.9844 29.8828C80.6875 29.7266 80.5391 29.4766 80.5391 29.1328C80.5391 29.0391 80.5469 28.9609 80.5625 28.8984C80.6406 28.5234 80.6797 28.0859 80.6797 27.5859L80.7734 17.6016C80.0234 18.6172 79.2656 19.5 78.5 20.25C77.75 20.9844 77.2734 21.3516 77.0703 21.3516C76.9766 21.3516 76.9297 21.2969 76.9297 21.1875ZM84.4766 17.2266C84.4766 17.1328 84.5547 17.0859 84.7109 17.0859C84.9922 17.0859 85.5 17.2266 86.2344 17.5078L90.5234 17.2734H90.7109C90.9922 17.2734 91.2266 17.3594 91.4141 17.5312C91.6016 17.6875 91.6953 17.8594 91.6953 18.0469C91.6953 18.1094 91.6719 18.1797 91.625 18.2578C91.5938 18.3359 91.5703 18.3984 91.5547 18.4453L91.1562 21.5625C91.5938 22.0469 91.8125 22.375 91.8125 22.5469C91.8125 22.6562 91.7578 22.7266 91.6484 22.7578C91.5547 22.7891 91.3828 22.8125 91.1328 22.8281L86.7266 22.9922L86.75 23.4375V23.5312C86.75 23.8438 86.6328 24 86.3984 24C86.1484 24 85.8828 23.9219 85.6016 23.7656C85.3359 23.6094 85.2031 23.4219 85.2031 23.2031L85.2266 23.0391C85.2578 22.8828 85.2734 22.6406 85.2734 22.3125C85.2734 22.0469 85.2656 21.8438 85.25 21.7031L84.9688 18.6094C84.9219 18.1719 84.8125 17.8281 84.6406 17.5781C84.5312 17.4062 84.4766 17.2891 84.4766 17.2266ZM86.6328 21.75L89.7734 21.6328L89.9844 18.5625L86.4453 18.75L86.6328 21.75Z" fill="#333333"/>
<path d="M139.859 19.2891C139.641 19.2891 139.477 19.2188 139.367 19.0781C139.227 18.8125 138.938 18.5234 138.5 18.2109L138.547 18.0938C139.031 18.2969 139.438 18.3984 139.766 18.3984C139.969 18.3984 140.141 18.2812 140.281 18.0469C140.438 17.7969 140.602 17.4375 140.773 16.9688C140.977 16.3906 141.086 15.9062 141.102 15.5156C141.102 15.4688 141.078 15.4297 141.031 15.3984C140.984 15.3516 140.945 15.3281 140.914 15.3281C140.773 15.3125 140.508 15.3359 140.117 15.3984L139.625 15.4688C139.484 15.4844 139.32 15.5156 139.133 15.5625C138.961 15.6094 138.82 15.6406 138.711 15.6562C138.648 15.6719 138.547 15.7031 138.406 15.75C138.266 15.7969 138.164 15.8203 138.102 15.8203C138.023 15.8203 137.93 15.7812 137.82 15.7031C137.727 15.6094 137.641 15.5078 137.562 15.3984C137.547 15.3828 137.539 15.3516 137.539 15.3047C137.539 15.2422 137.586 15.1641 137.68 15.0703C137.789 14.9609 137.875 14.875 137.938 14.8125C138.016 14.7188 138.094 14.6094 138.172 14.4844C138.25 14.3438 138.312 14.2422 138.359 14.1797C138.438 14.0547 138.5 13.9062 138.547 13.7344L138.594 13.5234C138.594 13.5078 138.586 13.4688 138.57 13.4062C138.555 13.3281 138.523 13.2891 138.477 13.2891C137.852 13.3672 137.391 13.4609 137.094 13.5703C137.031 13.6016 136.938 13.6328 136.812 13.6641C136.703 13.6641 136.609 13.6172 136.531 13.5234C136.484 13.5078 136.391 13.3828 136.25 13.1484C136.188 13.0859 136.156 13.0312 136.156 12.9844C136.156 12.875 136.32 12.8125 136.648 12.7969L137.094 12.75C137.172 12.75 137.336 12.7344 137.586 12.7031C138.086 12.6562 138.781 12.6016 139.672 12.5391C139.984 12.5234 140.523 12.4844 141.289 12.4219C141.508 12.4062 141.773 12.375 142.086 12.3281C142.258 12.2812 142.367 12.2578 142.414 12.2578C142.492 12.2578 142.57 12.2891 142.648 12.3516C142.727 12.3828 142.828 12.4453 142.953 12.5391C143.078 12.6172 143.172 12.7031 143.234 12.7969C143.297 12.875 143.328 12.9531 143.328 13.0312C143.328 13.1094 143.289 13.1641 143.211 13.1953C143.133 13.2266 143.031 13.2266 142.906 13.1953C142.719 13.1484 142.5 13.1172 142.25 13.1016C142.016 13.0859 141.875 13.0781 141.828 13.0781C141.297 13.0625 140.633 13.0859 139.836 13.1484C139.617 13.1797 139.453 13.1953 139.344 13.1953C139.438 13.2734 139.523 13.3984 139.602 13.5703V13.6172C139.602 13.6641 139.578 13.7266 139.531 13.8047C139.484 13.8828 139.43 13.9375 139.367 13.9688C139.289 14.0156 139.195 14.125 139.086 14.2969C138.977 14.4688 138.906 14.5781 138.875 14.625C138.781 14.75 138.734 14.8516 138.734 14.9297C138.734 14.9922 138.797 15.0156 138.922 15C139.031 14.9844 139.258 14.9531 139.602 14.9062C139.961 14.8438 140.227 14.7891 140.398 14.7422C140.445 14.7266 140.516 14.7109 140.609 14.6953C140.719 14.6797 140.844 14.6484 140.984 14.6016C141.094 14.5859 141.203 14.6094 141.312 14.6719C141.438 14.7344 141.625 14.8672 141.875 15.0703C142.062 15.2109 142.156 15.3359 142.156 15.4453C142.156 15.5234 142.125 15.6016 142.062 15.6797C142 15.7891 141.953 15.9375 141.922 16.125C141.781 16.7812 141.617 17.3125 141.43 17.7188C141.289 18 141.156 18.2344 141.031 18.4219C140.906 18.5938 140.75 18.7656 140.562 18.9375C140.359 19.1719 140.125 19.2891 139.859 19.2891ZM140.773 22.9219C140.617 23.125 140.453 23.2266 140.281 23.2266C140.234 23.2266 140.211 23.1875 140.211 23.1094C140.211 23 140.242 22.875 140.305 22.7344C140.305 22.7344 140.461 22.4219 140.773 21.7969C140.789 21.7344 140.812 21.6719 140.844 21.6094C140.875 21.5469 140.898 21.4922 140.914 21.4453V21.4219C140.914 21.3906 140.891 21.3594 140.844 21.3281C140.797 21.2969 140.742 21.2891 140.68 21.3047C140.43 21.3203 140.055 21.3594 139.555 21.4219C139.07 21.4844 138.711 21.5469 138.477 21.6094C138.383 21.6406 138.266 21.6797 138.125 21.7266C138 21.7734 137.898 21.7969 137.82 21.7969C137.539 21.7969 137.305 21.7109 137.117 21.5391C136.961 21.4297 136.844 21.3203 136.766 21.2109L136.719 21.0938C136.719 21.0156 136.852 20.9922 137.117 21.0234C137.477 21.0547 138.219 21.0078 139.344 20.8828L139.812 20.8125C139.938 20.7969 140.133 20.7734 140.398 20.7422C140.68 20.6953 140.898 20.6484 141.055 20.6016C141.102 20.5859 141.148 20.5703 141.195 20.5547C141.258 20.5234 141.312 20.5078 141.359 20.5078C141.438 20.5078 141.531 20.5469 141.641 20.625C141.766 20.7031 141.867 20.7734 141.945 20.8359C142.055 20.9141 142.125 20.9844 142.156 21.0469C142.203 21.0938 142.219 21.1562 142.203 21.2344C142.203 21.3125 142.164 21.3828 142.086 21.4453C142.008 21.5078 141.953 21.5547 141.922 21.5859C141.891 21.6328 141.781 21.75 141.594 21.9375C141.516 22.0625 141.375 22.2344 141.172 22.4531C140.984 22.6719 140.852 22.8281 140.773 22.9219ZM139.602 27.5391C139.602 27.4922 139.68 27.375 139.836 27.1875C140.008 26.9844 140.141 26.8281 140.234 26.7188C140.469 26.4062 140.75 25.9531 141.078 25.3594C141.422 24.7656 141.617 24.375 141.664 24.1875C141.695 24.0938 141.648 24.0469 141.523 24.0469C141.273 24.0469 140.586 24.1172 139.461 24.2578C138.727 24.3516 138.18 24.4453 137.82 24.5391C137.742 24.5859 137.664 24.6094 137.586 24.6094C137.461 24.6094 137.328 24.5234 137.188 24.3516C137.125 24.2422 137.094 24.1406 137.094 24.0469C137.094 23.9844 137.133 23.9219 137.211 23.8594L137.281 23.7656C137.328 23.6719 137.383 23.5469 137.445 23.3906C137.508 23.2344 137.562 23.0859 137.609 22.9453C137.688 22.6953 137.742 22.4219 137.773 22.125C137.789 21.9531 137.883 21.9062 138.055 21.9844C138.273 22.0938 138.438 22.2031 138.547 22.3125C138.672 22.4062 138.711 22.4766 138.664 22.5234C138.508 22.7109 138.383 22.9219 138.289 23.1562C138.211 23.4062 138.164 23.5703 138.148 23.6484C138.148 23.7109 138.188 23.7422 138.266 23.7422C138.5 23.7422 138.852 23.7031 139.32 23.625C139.586 23.5938 139.914 23.5547 140.305 23.5078C140.695 23.4609 141.008 23.4141 141.242 23.3672L141.828 23.25C141.875 23.2344 141.938 23.2266 142.016 23.2266C142.094 23.2266 142.172 23.2578 142.25 23.3203C142.328 23.3672 142.414 23.4297 142.508 23.5078C142.664 23.6484 142.766 23.7656 142.812 23.8594C142.859 23.9375 142.883 24.0312 142.883 24.1406C142.883 24.2031 142.836 24.2812 142.742 24.375C142.664 24.4688 142.57 24.6172 142.461 24.8203C142.008 25.7422 141.422 26.5156 140.703 27.1406C140.5 27.2969 140.273 27.4297 140.023 27.5391C139.914 27.5703 139.812 27.5938 139.719 27.6094C139.641 27.6094 139.602 27.5859 139.602 27.5391ZM144.102 18.5859C144.18 18.5859 144.297 18.6406 144.453 18.75C144.438 18.7812 144.469 18.8438 144.547 18.9375C144.625 19.0156 144.68 19.0703 144.711 19.1016C144.789 19.1797 144.867 19.2734 144.945 19.3828C145.039 19.4922 145.141 19.6094 145.25 19.7344C145.531 20.0312 146.18 20.8047 147.195 22.0547C147.367 22.3047 147.453 22.4531 147.453 22.5C147.453 22.6562 147.359 22.7344 147.172 22.7344C147.062 22.7344 146.945 22.6562 146.82 22.5C146.523 22.1875 145.992 21.6953 145.227 21.0234C144.633 20.4766 144.094 20.0547 143.609 19.7578C143.375 19.6484 143.258 19.5234 143.258 19.3828C143.258 19.2734 143.375 19.1172 143.609 18.9141C143.828 18.6953 143.992 18.5859 144.102 18.5859ZM120.898 30.0469V30.0938C120.898 30.3906 120.766 30.5391 120.5 30.5391C120.25 30.5391 119.992 30.4531 119.727 30.2812C119.477 30.1094 119.352 29.8828 119.352 29.6016L119.375 29.4141C119.422 29.1641 119.445 28.8906 119.445 28.5938L119.422 28.125L119.164 21.5859C118.383 22.3047 117.578 22.9297 116.75 23.4609C115.922 23.9766 115.195 24.375 114.57 24.6562C113.945 24.9219 113.578 25.0547 113.469 25.0547C113.328 25.0547 113.258 25 113.258 24.8906C113.258 24.7344 113.406 24.5547 113.703 24.3516C115.188 23.3984 116.5 22.4062 117.641 21.375C118.781 20.3281 119.773 19.1406 120.617 17.8125L115.344 18.0703H115.016C114.594 18.0703 114.297 18 114.125 17.8594C113.953 17.7031 113.789 17.3828 113.633 16.8984C113.617 16.8672 113.609 16.8203 113.609 16.7578C113.609 16.6953 113.641 16.6641 113.703 16.6641C113.75 16.6641 113.789 16.6719 113.82 16.6875C114.117 16.7656 114.43 16.8047 114.758 16.8047H115.18L121.344 16.4766C121.625 15.9766 121.867 15.4453 122.07 14.8828L118.344 15.0938L117.875 15.1172C117.609 15.1172 117.367 15.0469 117.148 14.9062C116.93 14.7656 116.75 14.4453 116.609 13.9453L116.586 13.8516C116.586 13.7734 116.625 13.7344 116.703 13.7344C116.766 13.7344 116.812 13.7422 116.844 13.7578C117.203 13.8516 117.547 13.8984 117.875 13.8984H118.086L122.469 13.6172C122.656 13.0234 122.781 12.5312 122.844 12.1406C121.453 12.375 119.875 12.5469 118.109 12.6562H117.922C117.672 12.6562 117.484 12.6328 117.359 12.5859C117.234 12.5391 117.172 12.4766 117.172 12.3984C117.172 12.3203 117.242 12.2422 117.383 12.1641C117.523 12.0859 117.727 12.0234 117.992 11.9766C119.539 11.7578 121.18 11.4453 122.914 11.0391C124.648 10.6172 126.141 10.1641 127.391 9.67969C127.719 9.55469 128.031 9.36719 128.328 9.11719C128.438 9.03906 128.531 9 128.609 9C128.766 9 128.922 9.09375 129.078 9.28125C129.25 9.46875 129.391 9.6875 129.5 9.9375C129.609 10.1875 129.664 10.3672 129.664 10.4766C129.664 10.6172 129.594 10.7109 129.453 10.7578C127.609 11.2422 125.938 11.6172 124.438 11.8828C124.312 12.4922 124.172 13.0391 124.016 13.5234L128.75 13.2422C129.094 13.2109 129.359 13.1641 129.547 13.1016C129.641 13.0547 129.734 13.0312 129.828 13.0312C130.016 13.0312 130.258 13.1641 130.555 13.4297C130.852 13.6797 131 13.8906 131 14.0625C131 14.25 130.781 14.3594 130.344 14.3906L123.641 14.7891C123.391 15.4766 123.164 16.0156 122.961 16.4062L131.867 15.9375C132.273 15.9062 132.656 15.8516 133.016 15.7734C133.078 15.7578 133.164 15.75 133.273 15.75C133.477 15.75 133.719 15.8828 134 16.1484C134.297 16.3984 134.445 16.6172 134.445 16.8047C134.445 16.9922 134.289 17.1016 133.977 17.1328L122.258 17.7188L121.977 18.1875C121.93 18.2656 121.836 18.4219 121.695 18.6562C121.57 18.8906 121.438 19.0859 121.297 19.2422L128.82 18.8672H129.008C129.258 18.8672 129.461 18.9219 129.617 19.0312C129.773 19.1406 129.883 19.2578 129.945 19.3828C130.008 19.5078 130.039 19.5938 130.039 19.6406C130.039 19.7188 130.016 19.7969 129.969 19.875C129.922 19.9531 129.898 20.0156 129.898 20.0625L129.523 27.5859C129.883 28.0547 130.062 28.375 130.062 28.5469C130.062 28.6562 130.016 28.7266 129.922 28.7578C129.828 28.7891 129.672 28.8125 129.453 28.8281L120.852 29.0859L120.898 30.0469ZM120.594 22.1016L128.375 21.75L128.398 20.1094L120.523 20.4844L120.594 22.1016ZM120.688 24.8438L128.281 24.5391L128.328 22.9453L120.641 23.2734L120.688 24.8438ZM120.805 27.8438L128.164 27.6328L128.234 25.7578L120.734 26.0625L120.805 27.8438Z" fill="#333333"/>
<path d="M175.016 23.6953C174.891 23.6953 174.789 23.5938 174.711 23.3906C174.586 23.1406 174.523 22.9375 174.523 22.7812L174.547 22.1484C174.562 21.8359 174.57 21.2109 174.57 20.2734V19.1016L174.547 18.2812C174.375 18.2812 174.195 18.3047 174.008 18.3516L173.469 18.4922C173.391 18.5234 173.266 18.4766 173.094 18.3516C172.922 18.2266 172.789 18.0859 172.695 17.9297C172.648 17.8359 172.625 17.7656 172.625 17.7188C172.625 17.6719 172.648 17.6406 172.695 17.625C172.742 17.6094 172.797 17.6016 172.859 17.6016C173.594 17.6016 174.273 17.5625 174.898 17.4844L175.602 17.4375C176.055 17.4062 176.398 17.3828 176.633 17.3672C176.883 17.3359 177.055 17.3125 177.148 17.2969C177.273 17.2812 177.414 17.2656 177.57 17.25C177.742 17.2188 177.852 17.2109 177.898 17.2266C177.961 17.2734 178.039 17.3203 178.133 17.3672C178.242 17.4141 178.359 17.4922 178.484 17.6016C178.562 17.6797 178.625 17.7578 178.672 17.8359C178.734 17.8984 178.766 17.9688 178.766 18.0469C178.766 18.1094 178.727 18.2031 178.648 18.3281C178.57 18.4531 178.492 18.6484 178.414 18.9141C178.352 19.1797 178.305 19.3672 178.273 19.4766C178.039 20.2578 177.75 20.8281 177.406 21.1875C177.156 21.4062 176.875 21.5156 176.562 21.5156C176.422 21.5156 176.305 21.4141 176.211 21.2109C176.07 20.8984 175.914 20.6797 175.742 20.5547L175.766 20.4375C176.188 20.5781 176.477 20.6484 176.633 20.6484C176.758 20.6484 176.844 20.625 176.891 20.5781C176.953 20.5312 177.008 20.4609 177.055 20.3672C177.133 20.1641 177.195 19.9844 177.242 19.8281C177.305 19.6719 177.359 19.5312 177.406 19.4062C177.438 19.2656 177.477 19.0781 177.523 18.8438C177.586 18.6094 177.625 18.4219 177.641 18.2812C177.641 18.1406 177.602 18.0703 177.523 18.0703H177.008C176.773 18.0703 176.508 18.0781 176.211 18.0938C175.914 18.1094 175.672 18.1328 175.484 18.1641L175.438 20.2969L175.461 21.5156C175.461 21.6875 175.461 21.8516 175.461 22.0078C175.477 22.1484 175.477 22.25 175.461 22.3125C175.461 22.4062 175.461 22.5547 175.461 22.7578C175.477 22.9453 175.477 23.0781 175.461 23.1562L175.297 23.5312C175.188 23.6406 175.094 23.6953 175.016 23.6953ZM180.102 15.0703C180.18 15.0703 180.297 15.125 180.453 15.2344C180.438 15.2656 180.469 15.3281 180.547 15.4219C180.625 15.5 180.68 15.5547 180.711 15.5859C180.789 15.6641 180.867 15.7578 180.945 15.8672C181.039 15.9766 181.141 16.0938 181.25 16.2188C181.531 16.5156 182.18 17.2891 183.195 18.5391C183.367 18.7891 183.453 18.9375 183.453 18.9844C183.453 19.1406 183.359 19.2188 183.172 19.2188C183.062 19.2188 182.945 19.1406 182.82 18.9844C182.523 18.6719 181.992 18.1797 181.227 17.5078C180.633 16.9609 180.094 16.5391 179.609 16.2422C179.375 16.1328 179.258 16.0078 179.258 15.8672C179.258 15.7578 179.375 15.6016 179.609 15.3984C179.828 15.1797 179.992 15.0703 180.102 15.0703ZM161.211 23.0625C161.367 23.9375 161.445 24.9219 161.445 26.0156V26.4141C161.445 28.0391 161.305 29.1328 161.023 29.6953C160.742 30.2578 160.414 30.5391 160.039 30.5391C159.711 30.5391 159.148 30.2891 158.352 29.7891C157.555 29.3047 156.805 28.7734 156.102 28.1953C155.414 27.6328 155.07 27.2578 155.07 27.0703C155.07 26.9922 155.125 26.9531 155.234 26.9531C155.375 26.9531 155.594 27.0234 155.891 27.1641C156.844 27.6641 157.68 28.0391 158.398 28.2891C159.133 28.5547 159.555 28.6875 159.664 28.6875C159.727 28.6875 159.766 28.6406 159.781 28.5469C159.906 27.7188 159.969 26.8906 159.969 26.0625C159.969 25.125 159.891 24.1484 159.734 23.1328L151.648 23.4609L150.992 23.4844C150.68 23.4844 150.461 23.4062 150.336 23.25C150.023 22.8438 149.828 22.5312 149.75 22.3125C149.734 22.2656 149.727 22.2109 149.727 22.1484C149.727 22.0547 149.766 22.0078 149.844 22.0078C149.891 22.0078 149.93 22.0156 149.961 22.0312C150.289 22.125 150.633 22.1719 150.992 22.1719H151.203L159.406 21.7969C159.234 21.1875 159.008 20.6172 158.727 20.0859C158.633 19.8984 158.586 19.7422 158.586 19.6172C158.586 19.3984 158.695 19.25 158.914 19.1719C159.148 19.0938 159.344 19.0547 159.5 19.0547C159.594 19.0547 159.672 19.0859 159.734 19.1484C159.812 19.2109 159.891 19.3125 159.969 19.4531L160.062 19.6406C161.5 18.6406 162.523 17.7812 163.133 17.0625L156.219 17.625C155.844 17.6562 155.602 17.6719 155.492 17.6719C155.164 17.6719 154.938 17.6094 154.812 17.4844C154.578 17.25 154.398 17.0234 154.273 16.8047C154.164 16.5859 154.109 16.4297 154.109 16.3359C154.109 16.2266 154.164 16.1719 154.273 16.1719C154.336 16.1719 154.383 16.1797 154.414 16.1953C154.758 16.2734 155.062 16.3125 155.328 16.3125L155.727 16.2891L163.812 15.6797L164.164 15.6562C164.383 15.6562 164.594 15.7188 164.797 15.8438C165 15.9688 165.164 16.1094 165.289 16.2656C165.414 16.4219 165.477 16.5469 165.477 16.6406C165.477 16.7969 165.391 16.9375 165.219 17.0625C165.047 17.1875 164.938 17.2734 164.891 17.3203C163.453 18.7578 162.031 19.9375 160.625 20.8594L160.906 21.7266L167.727 21.4219C168.164 21.3906 168.516 21.3281 168.781 21.2344C168.875 21.2031 168.945 21.1875 168.992 21.1875C169.102 21.1875 169.266 21.2578 169.484 21.3984C169.719 21.5234 169.922 21.6797 170.094 21.8672C170.281 22.0547 170.375 22.2188 170.375 22.3594C170.375 22.5469 170.172 22.6562 169.766 22.6875L161.211 23.0625ZM150.43 16.7812C150.43 16.7188 150.461 16.625 150.523 16.5C151.367 14.9219 152.047 13.3516 152.562 11.7891C152.609 11.6172 152.664 11.5 152.727 11.4375C152.805 11.3594 152.906 11.3203 153.031 11.3203C153.125 11.3203 153.25 11.3438 153.406 11.3906C153.609 11.4688 153.75 11.5469 153.828 11.625C153.922 11.7031 153.969 11.7969 153.969 11.9062C153.969 11.9531 153.953 12.0391 153.922 12.1641L153.758 12.6328L160.414 12.2578C159.289 11.3516 158.422 10.6953 157.812 10.2891C157.703 10.2109 157.625 10.1406 157.578 10.0781C157.531 10.0156 157.508 9.94531 157.508 9.86719C157.508 9.72656 157.57 9.57031 157.695 9.39844C157.836 9.21094 157.961 9.10156 158.07 9.07031C158.102 9.05469 158.148 9.04688 158.211 9.04688C158.32 9.04688 158.445 9.09375 158.586 9.1875L159.008 9.44531C159.883 9.99219 160.586 10.4453 161.117 10.8047C161.648 11.1641 161.938 11.4375 161.984 11.625L162.008 11.7422C162.008 11.8516 161.953 11.9922 161.844 12.1641L168.477 11.7891H168.688C168.969 11.7891 169.219 11.8828 169.438 12.0703C169.672 12.2578 169.789 12.4375 169.789 12.6094C169.789 12.7188 169.719 12.8438 169.578 12.9844C169.453 13.1094 169.375 13.2031 169.344 13.2656C169.234 13.4531 168.992 13.8203 168.617 14.3672C168.258 14.8984 167.867 15.4141 167.445 15.9141C167.039 16.4141 166.734 16.6641 166.531 16.6641C166.406 16.6641 166.344 16.5938 166.344 16.4531C166.344 16.2969 166.414 16.1016 166.555 15.8672C167.039 14.9922 167.445 14.0859 167.773 13.1484L153.312 13.9219C152.906 15 152.578 15.8047 152.328 16.3359C152.094 16.8672 151.914 17.2109 151.789 17.3672C151.664 17.5078 151.547 17.5781 151.438 17.5781C151.375 17.5625 151.258 17.5234 151.086 17.4609C150.93 17.3828 150.781 17.2891 150.641 17.1797C150.5 17.0547 150.43 16.9219 150.43 16.7812Z" fill="#FA760A"/>
<path d="M212.188 20.7891C211.938 20.7891 211.789 20.6641 211.742 20.4141C211.648 20.1484 211.398 19.8203 210.992 19.4297L211.062 19.3359C211.125 19.3672 211.305 19.4453 211.602 19.5703C211.898 19.6797 212.102 19.7344 212.211 19.7344C212.305 19.7344 212.375 19.7344 212.422 19.7344C212.469 19.7188 212.523 19.6797 212.586 19.6172C212.773 19.4766 213.008 19.1562 213.289 18.6562C213.492 18.25 213.672 17.7734 213.828 17.2266C214 16.6797 214.086 16.2656 214.086 15.9844C214.086 15.9062 214.023 15.8672 213.898 15.8672L213.008 15.9141L212.398 15.9609L212 15.9844L211.836 16.0078C211.945 16.0859 212.016 16.1562 212.047 16.2188C212.094 16.2656 212.117 16.3281 212.117 16.4062C212.117 16.4844 212.023 16.7031 211.836 17.0625C211.68 17.4062 211.43 17.7969 211.086 18.2344C210.805 18.6094 210.422 19.0156 209.938 19.4531C209.469 19.875 209.117 20.0938 208.883 20.1094C208.836 20.1094 208.789 20.1016 208.742 20.0859C208.711 20.0547 208.695 20.0156 208.695 19.9688C208.695 19.9531 208.82 19.8047 209.07 19.5234L209.727 18.75C210.195 18.125 210.672 17.3281 211.156 16.3594C211.203 16.2344 211.18 16.1641 211.086 16.1484C210.992 16.1641 210.797 16.1875 210.5 16.2188C210.203 16.2344 209.938 16.2812 209.703 16.3594C209.688 16.3594 209.633 16.3828 209.539 16.4297C209.445 16.4609 209.367 16.4766 209.305 16.4766C209.211 16.4766 209.133 16.4453 209.07 16.3828L208.883 16.2188C208.742 16.1094 208.672 16.0078 208.672 15.9141C208.672 15.8828 208.688 15.8359 208.719 15.7734L208.836 15.5859C208.898 15.5078 209 15.3828 209.141 15.2109C209.281 15.0391 209.438 14.8047 209.609 14.5078C209.641 14.4453 209.703 14.3047 209.797 14.0859C209.906 13.8672 209.961 13.7344 209.961 13.6875V13.5938C209.961 13.5 209.977 13.4375 210.008 13.4062C210.039 13.375 210.109 13.375 210.219 13.4062C210.328 13.4375 210.461 13.5234 210.617 13.6641L210.875 13.9219C210.922 13.9688 210.945 14.0234 210.945 14.0859C210.945 14.2422 210.727 14.5234 210.289 14.9297C210.211 15.0078 210.117 15.125 210.008 15.2812C209.898 15.4375 209.844 15.5391 209.844 15.5859C209.844 15.6797 209.914 15.7109 210.055 15.6797L210.594 15.6094C211.828 15.4219 212.758 15.3125 213.383 15.2812L214.016 15.1875L214.227 15.1406L214.344 15.1172C214.469 15.1172 214.555 15.1328 214.602 15.1641C214.648 15.1953 214.695 15.25 214.742 15.3281C214.789 15.3906 214.836 15.4453 214.883 15.4922C214.992 15.6172 215.07 15.7266 215.117 15.8203L215.164 16.0312L215.117 16.125L215.07 16.2656C215.039 16.3438 215.016 16.4219 215 16.5C214.984 16.5625 214.961 16.6328 214.93 16.7109C214.602 17.9766 214.219 18.9609 213.781 19.6641C213.641 19.9141 213.398 20.1641 213.055 20.4141C212.727 20.6641 212.438 20.7891 212.188 20.7891ZM212.023 28.875C211.273 28.875 210.648 28.6875 210.148 28.3125C209.633 27.8906 209.375 27.3984 209.375 26.8359C209.375 26.3984 209.539 26.0156 209.867 25.6875C210.289 25.3281 210.82 25.1484 211.461 25.1484C211.492 25.1484 211.516 25.1172 211.531 25.0547C211.562 24.9766 211.578 24.875 211.578 24.75L211.602 24.1406C211.492 24.1562 211.281 24.1797 210.969 24.2109C210.672 24.2422 210.453 24.2734 210.312 24.3047C210.391 24.2891 210.148 24.3438 209.586 24.4688C209.539 24.4844 209.453 24.4922 209.328 24.4922C209.031 24.4922 208.781 24.3594 208.578 24.0938C208.484 24 208.438 23.9219 208.438 23.8594C208.438 23.7656 208.578 23.7188 208.859 23.7188L209.586 23.6719L211.578 23.4141V23.1328V22.5469C211.562 22.4844 211.555 22.4141 211.555 22.3359C211.555 22.2578 211.547 22.1953 211.531 22.1484C211.5 22.0234 211.484 21.9453 211.484 21.9141C211.484 21.8047 211.539 21.75 211.648 21.75C211.789 21.75 212.031 21.8516 212.375 22.0547C212.484 22.1172 212.539 22.2031 212.539 22.3125C212.539 22.3906 212.523 22.4609 212.492 22.5234C212.477 22.5703 212.469 22.625 212.469 22.6875V23.3438L213.172 23.2734L214.039 23.1797C214.117 23.1641 214.203 23.1406 214.297 23.1094C214.406 23.0781 214.492 23.0625 214.555 23.0625C214.648 23.0625 214.766 23.1094 214.906 23.2031C215.172 23.375 215.305 23.5234 215.305 23.6484C215.305 23.7734 215.172 23.8359 214.906 23.8359C214.828 23.8359 214.719 23.8516 214.578 23.8828C214.438 23.8984 214.258 23.9141 214.039 23.9297L212.469 24.0469L212.445 25.4766C212.414 25.7109 212.242 25.8594 211.93 25.9219H211.883C211.789 25.9219 211.695 25.9141 211.602 25.8984C211.523 25.8672 211.461 25.8516 211.414 25.8516C211.289 25.8516 211.164 25.8594 211.039 25.875C210.914 25.8906 210.805 25.9375 210.711 26.0156C210.445 26.25 210.312 26.5234 210.312 26.8359C210.312 27.1484 210.461 27.4297 210.758 27.6797C211.023 27.9297 211.445 28.0547 212.023 28.0547C212.789 28.0234 213.414 27.8125 213.898 27.4219C214.102 27.2812 214.258 27.2109 214.367 27.2109C214.43 27.2109 214.508 27.2266 214.602 27.2578C214.617 27.2734 214.648 27.3047 214.695 27.3516C214.742 27.3984 214.766 27.4453 214.766 27.4922C214.766 27.9297 214.398 28.2891 213.664 28.5703C213.117 28.7734 212.57 28.875 212.023 28.875ZM211.766 10.3594C212.078 10.3594 212.344 10.4688 212.562 10.6875C212.797 10.8906 212.914 11.1641 212.914 11.5078C212.914 11.8516 212.797 12.1328 212.562 12.3516C212.344 12.5547 212.078 12.6562 211.766 12.6562C211.453 12.6562 211.18 12.5547 210.945 12.3516C210.727 12.1328 210.617 11.8516 210.617 11.5078C210.617 11.1641 210.727 10.8906 210.945 10.6875C211.18 10.4688 211.453 10.3594 211.766 10.3594ZM188.703 28.7109V28.7812C188.703 29.125 188.57 29.2969 188.305 29.2969C188.07 29.2969 187.812 29.2188 187.531 29.0625C187.266 28.9219 187.133 28.7188 187.133 28.4531C187.133 28.3906 187.148 28.2969 187.18 28.1719C187.258 27.8125 187.297 27.5156 187.297 27.2812L187.086 16.3359C187.086 16.1484 187.055 15.9531 186.992 15.75C186.945 15.5312 186.883 15.3516 186.805 15.2109C186.695 14.9922 186.641 14.8438 186.641 14.7656C186.641 14.6719 186.719 14.625 186.875 14.625C187.172 14.625 187.695 14.7656 188.445 15.0469H188.656C189.297 13.8281 189.758 12.8906 190.039 12.2344C190.32 11.5625 190.461 11.0781 190.461 10.7812C190.461 10.6875 190.453 10.6172 190.438 10.5703L190.414 10.4297C190.414 10.2422 190.508 10.1484 190.695 10.1484C190.914 10.1484 191.195 10.25 191.539 10.4531C191.883 10.6406 192.055 10.8281 192.055 11.0156C192.055 11.2656 191.812 11.8203 191.328 12.6797C190.859 13.5234 190.406 14.2891 189.969 14.9766L193.273 14.7891H193.555C193.805 14.7891 194 14.8438 194.141 14.9531C194.281 15.0469 194.375 15.1562 194.422 15.2812C194.484 15.4062 194.516 15.4844 194.516 15.5156C194.516 15.5625 194.492 15.6406 194.445 15.75C194.414 15.8438 194.398 15.9219 194.398 15.9844L194.023 26.4141C194.398 26.8984 194.586 27.2422 194.586 27.4453C194.586 27.5547 194.531 27.6328 194.422 27.6797C194.312 27.7109 194.141 27.7344 193.906 27.75L188.68 27.9375L188.703 28.7109ZM188.539 20.625L192.852 20.4141L192.969 16.0781L188.469 16.3125L188.539 20.625ZM188.656 26.625L192.664 26.4844L192.805 21.6797L188.562 21.8672L188.656 26.625ZM194.844 19.5234C194.844 19.3516 194.922 19.1172 195.078 18.8203C195.875 17.3672 196.602 15.75 197.258 13.9688C197.93 12.1719 198.266 10.9922 198.266 10.4297C198.266 10.2734 198.258 10.1562 198.242 10.0781L198.219 9.89062C198.219 9.70312 198.297 9.60938 198.453 9.60938C198.516 9.60938 198.672 9.67188 198.922 9.79688C199.188 9.90625 199.422 10.0469 199.625 10.2188C199.844 10.3906 199.953 10.5625 199.953 10.7344C199.953 10.9531 199.789 11.4609 199.461 12.2578C199.133 13.0547 198.797 13.7969 198.453 14.4844L204.336 14.1328H204.43C204.648 14.1328 204.852 14.2109 205.039 14.3672C205.242 14.5234 205.344 14.7109 205.344 14.9297C205.344 15.0078 205.328 15.1016 205.297 15.2109C205.281 15.3047 205.273 15.3906 205.273 15.4688C205.117 19.875 204.836 23.7422 204.43 27.0703C204.305 28.0078 204.117 28.7578 203.867 29.3203C203.633 29.8828 203.234 30.1641 202.672 30.1641C202.391 30.1641 202.102 30.0625 201.805 29.8594C201.305 29.5312 200.625 29.0078 199.766 28.2891C198.922 27.5859 198.5 27.125 198.5 26.9062C198.5 26.7812 198.578 26.7188 198.734 26.7188C198.906 26.7188 199.094 26.7812 199.297 26.9062C200.453 27.5469 201.453 28.0234 202.297 28.3359H202.344C202.438 28.3359 202.508 28.2734 202.555 28.1484C202.914 26.8047 203.188 24.9453 203.375 22.5703C203.562 20.1953 203.68 17.8281 203.727 15.4688L197.844 15.8438C197.188 16.9844 196.586 17.9141 196.039 18.6328C195.492 19.3516 195.133 19.7109 194.961 19.7109C194.883 19.7109 194.844 19.6484 194.844 19.5234ZM196.859 19.1719C196.859 19.0312 196.938 18.875 197.094 18.7031C197.266 18.5312 197.414 18.4453 197.539 18.4453C197.695 18.4453 197.883 18.5547 198.102 18.7734C198.727 19.3672 199.461 20.1562 200.305 21.1406C201.164 22.1094 201.594 22.7031 201.594 22.9219C201.594 23.125 201.469 23.3281 201.219 23.5312C200.969 23.7188 200.773 23.8125 200.633 23.8125C200.539 23.8125 200.461 23.7812 200.398 23.7188C200.336 23.6562 200.25 23.5547 200.141 23.4141C199.75 22.7891 199.266 22.1172 198.688 21.3984C198.109 20.6797 197.578 20.0781 197.094 19.5938C196.938 19.4375 196.859 19.2969 196.859 19.1719Z" fill="#FA760A"/>
<path d="M246.922 19.1016C246.781 19.1016 246.672 19.0703 246.594 19.0078C246.594 19.0078 246.555 18.9688 246.477 18.8906C246.414 18.7656 246.227 18.4219 245.914 17.8594C245.617 17.2969 245.398 16.9141 245.258 16.7109C244.961 16.2734 244.812 15.9922 244.812 15.8672C244.812 15.6953 244.914 15.4453 245.117 15.1172C245.43 14.6797 245.641 14.3281 245.75 14.0625C245.953 13.6875 246.102 13.3984 246.195 13.1953C246.289 12.9766 246.328 12.8047 246.312 12.6797C246.297 12.6016 246.289 12.5156 246.289 12.4219C246.289 12.3594 246.305 12.3281 246.336 12.3281C246.367 12.3125 246.43 12.3203 246.523 12.3516C246.68 12.3984 246.859 12.5078 247.062 12.6797C247.109 12.7266 247.164 12.7891 247.227 12.8672C247.289 12.9453 247.328 13.0156 247.344 13.0781C247.375 13.125 247.383 13.1797 247.367 13.2422C247.367 13.2891 247.344 13.3359 247.297 13.3828L247.18 13.4766C247.07 13.6172 246.945 13.7891 246.805 13.9922C246.664 14.1953 246.531 14.3828 246.406 14.5547L245.82 15.3984C245.664 15.6172 245.586 15.7734 245.586 15.8672C245.586 15.9141 245.656 16.0391 245.797 16.2422L246.289 16.7812C246.758 17.2969 246.977 17.5391 246.945 17.5078C247.242 17.8047 247.391 18.0938 247.391 18.375C247.391 18.8594 247.234 19.1016 246.922 19.1016ZM250.016 19.0312C249.875 19.0312 249.758 19.0078 249.664 18.9609C249.492 18.7891 249.367 18.5859 249.289 18.3516L248.797 17.4844L248.328 16.6641C248.031 16.2578 247.883 15.9844 247.883 15.8438C247.883 15.6562 247.984 15.4141 248.188 15.1172L248.562 14.5781C248.719 14.3125 248.805 14.1562 248.82 14.1094C248.977 13.7969 249.109 13.5234 249.219 13.2891C249.344 13.0391 249.398 12.8516 249.383 12.7266C249.367 12.6641 249.359 12.5859 249.359 12.4922C249.359 12.3672 249.43 12.3359 249.57 12.3984C249.773 12.4766 249.992 12.6016 250.227 12.7734C250.336 12.8828 250.406 12.9766 250.438 13.0547C250.484 13.1172 250.508 13.2031 250.508 13.3125C250.508 13.3438 250.453 13.4062 250.344 13.5C250.234 13.5781 250.141 13.6641 250.062 13.7578C249.969 13.8516 249.758 14.1484 249.43 14.6484C249.367 14.7422 249.289 14.8516 249.195 14.9766C249.117 15.0859 249.016 15.2344 248.891 15.4219C248.734 15.625 248.656 15.7734 248.656 15.8672C248.656 15.9609 248.75 16.1016 248.938 16.2891C249 16.3516 249.062 16.4297 249.125 16.5234C249.203 16.6016 249.297 16.6953 249.406 16.8047L250.016 17.4844C250.312 17.75 250.461 18.0078 250.461 18.2578C250.461 18.7734 250.312 19.0312 250.016 19.0312ZM250.32 26.8359C250.086 26.8359 249.859 26.6641 249.641 26.3203C249.359 25.8828 249.086 25.5234 248.82 25.2422L248.211 24.6094C247.883 24.9844 247.594 25.2812 247.344 25.5C247.109 25.7188 246.812 25.9297 246.453 26.1328C245.781 26.5234 245.219 26.7188 244.766 26.7188C244.656 26.7188 244.602 26.6797 244.602 26.6016C244.602 26.5547 244.75 26.4531 245.047 26.2969C245.344 26.1406 245.625 25.9531 245.891 25.7344C246.562 25.1719 247.117 24.5938 247.555 24C247.461 23.9062 246.992 23.5 246.148 22.7812C246.039 22.7031 245.875 22.5703 245.656 22.3828C245.609 22.3516 245.516 22.2812 245.375 22.1719C245.234 22.0625 245.164 21.9844 245.164 21.9375C245.164 21.8594 245.203 21.8203 245.281 21.8203C245.516 21.8203 245.891 21.9844 246.406 22.3125C246.922 22.625 247.461 23 248.023 23.4375C248.242 23.1719 248.414 22.9219 248.539 22.6875C248.664 22.4531 248.805 22.1641 248.961 21.8203C249.039 21.6484 249.086 21.5 249.102 21.375C249.117 21.2344 249.125 21.1484 249.125 21.1172C249.125 20.9453 249.172 20.8594 249.266 20.8594C249.375 20.8594 249.523 20.9453 249.711 21.1172C250.039 21.4297 250.203 21.6406 250.203 21.75C250.203 21.8125 250.164 21.8828 250.086 21.9609C249.898 22.1484 249.727 22.3984 249.57 22.7109C249.477 22.8984 249.305 23.1641 249.055 23.5078C248.977 23.6016 248.914 23.6875 248.867 23.7656C248.82 23.8438 248.773 23.9141 248.727 23.9766C249.086 24.2422 249.617 24.6953 250.32 25.3359C250.492 25.4922 250.602 25.6406 250.648 25.7812C250.711 25.9062 250.742 26.0781 250.742 26.2969C250.742 26.4531 250.703 26.5859 250.625 26.6953C250.547 26.7891 250.445 26.8359 250.32 26.8359ZM252.102 18.5859C252.18 18.5859 252.297 18.6406 252.453 18.75C252.438 18.7812 252.469 18.8438 252.547 18.9375C252.625 19.0156 252.68 19.0703 252.711 19.1016C252.789 19.1797 252.867 19.2734 252.945 19.3828C253.039 19.4922 253.141 19.6094 253.25 19.7344C253.531 20.0312 254.18 20.8047 255.195 22.0547C255.367 22.3047 255.453 22.4531 255.453 22.5C255.453 22.6562 255.359 22.7344 255.172 22.7344C255.062 22.7344 254.945 22.6562 254.82 22.5C254.523 22.1875 253.992 21.6953 253.227 21.0234C252.633 20.4766 252.094 20.0547 251.609 19.7578C251.375 19.6484 251.258 19.5234 251.258 19.3828C251.258 19.2734 251.375 19.1172 251.609 18.9141C251.828 18.6953 251.992 18.5859 252.102 18.5859ZM240.078 15.9609C239.406 18.7266 238.516 21.0938 237.406 23.0625C238.828 25.1562 240.68 27.0938 242.961 28.875C243.133 29 243.219 29.1172 243.219 29.2266C243.219 29.3516 243.039 29.5156 242.68 29.7188C242.336 29.9375 242.094 30.0469 241.953 30.0469C241.75 30.0469 241.32 29.7266 240.664 29.0859C240.008 28.4609 239.289 27.7031 238.508 26.8125C237.742 25.9062 237.109 25.0859 236.609 24.3516C235.859 25.4609 235.016 26.4531 234.078 27.3281C233.156 28.1875 232.297 28.8516 231.5 29.3203C230.719 29.8047 230.188 30.0469 229.906 30.0469C229.781 30.0469 229.719 30 229.719 29.9062C229.719 29.7656 229.867 29.5781 230.164 29.3438C231.258 28.5 232.289 27.5469 233.258 26.4844C234.227 25.4062 235.07 24.2578 235.789 23.0391C234.852 21.4609 234.078 19.8125 233.469 18.0938C232.984 18.9219 232.484 19.6406 231.969 20.25C231.453 20.8594 231.117 21.1641 230.961 21.1641C230.883 21.1641 230.844 21.1094 230.844 21C230.844 20.8125 230.93 20.5703 231.102 20.2734C231.852 18.8672 232.508 17.4453 233.07 16.0078C233.633 14.5703 234.062 13.3203 234.359 12.2578C234.672 11.1797 234.828 10.5 234.828 10.2188C234.828 10.0312 234.82 9.88281 234.805 9.77344V9.72656C234.805 9.60156 234.883 9.53906 235.039 9.53906C235.289 9.53906 235.602 9.67969 235.977 9.96094C236.367 10.2266 236.562 10.4766 236.562 10.7109C236.562 10.9141 236.359 11.5469 235.953 12.6094C235.562 13.6562 235.234 14.4844 234.969 15.0938L239.75 14.7656C240.094 14.75 240.445 14.6719 240.805 14.5312C240.93 14.5 241.008 14.4844 241.039 14.4844C241.227 14.4844 241.492 14.6172 241.836 14.8828C242.18 15.1328 242.352 15.3594 242.352 15.5625C242.352 15.7344 242.188 15.8359 241.859 15.8672L240.078 15.9609ZM221.188 16.0078C221.188 15.9297 221.227 15.8906 221.305 15.8906C221.367 15.8906 221.414 15.8984 221.445 15.9141C221.68 15.9922 222 16.0312 222.406 16.0312H222.641L226.109 15.8438L226.133 11.7188C226.133 11.5625 226.109 11.4062 226.062 11.25C226.016 11.0938 225.945 10.9297 225.852 10.7578C225.805 10.6797 225.781 10.6094 225.781 10.5469C225.781 10.4219 225.883 10.3594 226.086 10.3594C226.258 10.3594 226.516 10.4062 226.859 10.5C227.375 10.625 227.633 10.8516 227.633 11.1797L227.539 15.7734L229.461 15.6562C229.93 15.6406 230.359 15.5703 230.75 15.4453C230.797 15.4297 230.867 15.4219 230.961 15.4219C231.18 15.4219 231.383 15.4922 231.57 15.6328C231.773 15.7578 231.938 15.9062 232.062 16.0781C232.203 16.25 232.273 16.375 232.273 16.4531C232.273 16.6719 232.086 16.7969 231.711 16.8281L227.516 17.0625L227.422 20.9062L229.578 20.7891L229.836 20.7656C230.055 20.7656 230.281 20.8672 230.516 21.0703C230.75 21.2578 230.867 21.4375 230.867 21.6094C230.867 21.6875 230.836 21.7812 230.773 21.8906C230.711 22 230.68 22.0859 230.68 22.1484L230.164 26.3203C230.555 26.8047 230.75 27.1328 230.75 27.3047C230.75 27.4141 230.703 27.4844 230.609 27.5156C230.531 27.5312 230.375 27.5469 230.141 27.5625L225.055 27.7031L225.125 28.6406V28.7109C225.125 28.8516 225.086 28.9688 225.008 29.0625C224.945 29.1562 224.844 29.2031 224.703 29.2031C224.484 29.2031 224.227 29.1094 223.93 28.9219C223.648 28.75 223.508 28.5547 223.508 28.3359C223.508 28.2422 223.516 28.1719 223.531 28.125C223.578 27.8594 223.602 27.5781 223.602 27.2812L223.578 26.7891L223.273 22.3828C223.242 21.9141 223.156 21.5234 223.016 21.2109C222.938 21.0547 222.898 20.9297 222.898 20.8359C222.898 20.7266 222.977 20.6719 223.133 20.6719C223.383 20.6719 223.898 20.8047 224.68 21.0703L226.062 21L226.086 17.1562L223.039 17.3203L222.57 17.3438C222.18 17.3438 221.914 17.2734 221.773 17.1328C221.57 16.9297 221.422 16.7109 221.328 16.4766C221.234 16.2266 221.188 16.0703 221.188 16.0078ZM224.961 26.4609L228.781 26.3203L229.156 22.0547L224.656 22.2891L224.961 26.4609ZM234.312 16.5234C234.922 18.3984 235.656 20.1094 236.516 21.6562C237.234 20.2031 237.859 18.3438 238.391 16.0781L234.406 16.3594L234.312 16.5234Z" fill="#FA760A"/>
<path d="M280.625 23.9531C280.516 23.9531 280.445 23.9453 280.414 23.9297C280.398 23.8984 280.422 23.8438 280.484 23.7656C280.703 23.5625 280.875 23.3672 281 23.1797C281.141 22.9766 281.289 22.6562 281.445 22.2188C281.695 21.5 281.82 20.9453 281.82 20.5547C281.82 20.1953 281.797 19.8672 281.75 19.5703V19.5C281.75 19.3281 281.859 19.2734 282.078 19.3359C282.266 19.3828 282.477 19.4453 282.711 19.5234C282.758 19.5078 282.828 19.5 282.922 19.5C283.016 19.4844 283.164 19.4609 283.367 19.4297C283.898 19.3516 284.586 19.2734 285.43 19.1953C285.43 19.1328 285.492 18.9141 285.617 18.5391L285.758 18.0234C285.82 17.8047 285.797 17.6953 285.688 17.6953C285.375 17.6953 284.648 17.7734 283.508 17.9297L282.266 18.1406C282.156 18.1562 282.016 18.1094 281.844 18C281.688 17.8906 281.562 17.7656 281.469 17.625C281.391 17.4844 281.406 17.3906 281.516 17.3438C281.641 17.2656 281.766 17.2266 281.891 17.2266C282.016 17.2266 282.094 17.2266 282.125 17.2266H282.43L283.977 17.1797L285.477 16.9922C285.555 16.9766 285.648 16.9531 285.758 16.9219C285.883 16.875 286 16.8438 286.109 16.8281C286.266 16.7969 286.531 16.9688 286.906 17.3438C286.969 17.4062 287 17.4766 287 17.5547C287 17.6484 286.938 17.7422 286.812 17.8359C286.641 18.0078 286.531 18.1562 286.484 18.2812C286.469 18.3594 286.438 18.4766 286.391 18.6328C286.344 18.7734 286.297 18.9531 286.25 19.1719C286.344 19.2812 286.391 19.4141 286.391 19.5703C286.391 19.6953 286.352 19.7891 286.273 19.8516C286.211 19.8984 286.078 19.9219 285.875 19.9219C285.172 19.9688 284.617 20.0156 284.211 20.0625C283.805 20.0938 283.312 20.1719 282.734 20.2969C282.672 21 282.531 21.6484 282.312 22.2422C282.094 22.8203 281.789 23.2578 281.398 23.5547C281.023 23.8203 280.766 23.9531 280.625 23.9531ZM288.102 15.0703C288.18 15.0703 288.297 15.125 288.453 15.2344C288.438 15.2656 288.469 15.3281 288.547 15.4219C288.625 15.5 288.68 15.5547 288.711 15.5859C288.789 15.6641 288.867 15.7578 288.945 15.8672C289.039 15.9766 289.141 16.0938 289.25 16.2188C289.531 16.5156 290.18 17.2891 291.195 18.5391C291.367 18.7891 291.453 18.9375 291.453 18.9844C291.453 19.1406 291.359 19.2188 291.172 19.2188C291.062 19.2188 290.945 19.1406 290.82 18.9844C290.523 18.6719 289.992 18.1797 289.227 17.5078C288.633 16.9609 288.094 16.5391 287.609 16.2422C287.375 16.1328 287.258 16.0078 287.258 15.8672C287.258 15.7578 287.375 15.6016 287.609 15.3984C287.828 15.1797 287.992 15.0703 288.102 15.0703ZM274.016 24.0469C274.391 24.4375 274.578 24.7188 274.578 24.8906C274.578 25 274.523 25.0703 274.414 25.1016C274.32 25.1328 274.164 25.1562 273.945 25.1719L268.367 25.4062V27.9141L268.391 28.5C268.406 28.6094 268.414 28.7734 268.414 28.9922C268.414 29.4766 268.273 29.8672 267.992 30.1641C267.711 30.4766 267.398 30.6328 267.055 30.6328C266.773 30.6328 266.32 30.4375 265.695 30.0469C265.07 29.6562 264.492 29.2266 263.961 28.7578C263.43 28.3047 263.164 28 263.164 27.8438C263.164 27.7188 263.25 27.6562 263.422 27.6562C263.578 27.6562 263.734 27.6953 263.891 27.7734C265.172 28.3203 266.188 28.6797 266.938 28.8516V25.4531L262.484 25.6406L261.852 25.6641C261.305 25.6641 260.906 25.3438 260.656 24.7031C260.609 24.6094 260.586 24.5391 260.586 24.4922C260.586 24.4141 260.625 24.375 260.703 24.375L260.891 24.4219C261.062 24.4844 261.336 24.5156 261.711 24.5156H261.992L266.938 24.3281V22.8516L258.992 23.2031H258.828C258.516 23.2031 258.234 23.1484 257.984 23.0391C257.734 22.9141 257.547 22.625 257.422 22.1719C257.406 22.1406 257.398 22.1016 257.398 22.0547C257.398 21.9766 257.445 21.9375 257.539 21.9375L257.68 21.9609C257.992 22.0391 258.266 22.0781 258.5 22.0781H258.688L266.938 21.7266V20.4375L262.273 20.6719H261.945C261.555 20.6719 261.25 20.5938 261.031 20.4375C260.828 20.2812 260.688 20.1172 260.609 19.9453C260.547 19.7734 260.516 19.6484 260.516 19.5703C260.516 19.4922 260.555 19.4531 260.633 19.4531C260.695 19.4531 260.742 19.4609 260.773 19.4766C261.117 19.5547 261.398 19.5938 261.617 19.5938L261.969 19.5703L266.914 19.2891V17.9297L262.789 18.1172L262.812 18.3047V18.3984C262.812 18.6016 262.68 18.7031 262.414 18.7031C262.242 18.7031 262.016 18.6641 261.734 18.5859C261.469 18.4922 261.336 18.3125 261.336 18.0469V17.4844C261.336 17.2656 261.328 17.1016 261.312 16.9922L261.148 15.7266C261.102 15.2734 260.977 14.8984 260.773 14.6016C260.664 14.4297 260.609 14.3047 260.609 14.2266C260.609 14.1172 260.695 14.0625 260.867 14.0625C261.148 14.0625 261.688 14.2031 262.484 14.4844L266.914 14.2266V12.8672L260.258 13.2422C260.117 13.2578 259.93 13.2656 259.695 13.2656C259.367 13.2656 259.102 13.1797 258.898 13.0078C258.711 12.8359 258.57 12.6562 258.477 12.4688C258.398 12.2656 258.359 12.1328 258.359 12.0703C258.359 11.9922 258.406 11.9531 258.5 11.9531C258.562 11.9531 258.617 11.9609 258.664 11.9766C258.977 12.0547 259.297 12.0938 259.625 12.0938H259.836L266.914 11.6719V10.5C266.914 10.0156 266.797 9.625 266.562 9.32812C266.516 9.25 266.492 9.19531 266.492 9.16406C266.492 9.07031 266.578 9.02344 266.75 9.02344C266.938 9.02344 267.156 9.0625 267.406 9.14062C267.797 9.25 268.047 9.36719 268.156 9.49219C268.266 9.61719 268.32 9.80469 268.32 10.0547V11.5781L274.297 11.2266C274.516 11.2109 274.734 11.1719 274.953 11.1094C275.172 11.0312 275.312 10.9844 275.375 10.9688C275.406 10.9531 275.453 10.9453 275.516 10.9453C275.734 10.9453 276 11.0859 276.312 11.3672C276.625 11.6484 276.781 11.875 276.781 12.0469C276.781 12.2188 276.609 12.3203 276.266 12.3516L268.32 12.7969V14.1562L273.125 13.875L273.5 13.8516C273.703 13.8516 273.914 13.9219 274.133 14.0625C274.367 14.1875 274.484 14.3359 274.484 14.5078C274.484 14.6016 274.445 14.7031 274.367 14.8125C274.305 14.9219 274.266 15 274.25 15.0469L273.875 16.5234C274.266 16.8984 274.461 17.1641 274.461 17.3203C274.461 17.4297 274.406 17.5 274.297 17.5312C274.188 17.5625 274.016 17.5859 273.781 17.6016L268.344 17.8594V19.2188L273.547 18.9141L273.805 18.8906C274.008 18.8906 274.227 18.9766 274.461 19.1484C274.711 19.3047 274.836 19.5156 274.836 19.7812C274.836 19.8594 274.805 19.9609 274.742 20.0859C274.68 20.2109 274.648 20.3047 274.648 20.3672L274.461 21.3984L276.242 21.3281C276.508 21.3125 276.75 21.2656 276.969 21.1875C277.188 21.1094 277.32 21.0625 277.367 21.0469C277.492 21.0156 277.578 21 277.625 21C277.781 21 278.023 21.125 278.352 21.375C278.68 21.625 278.844 21.8438 278.844 22.0312C278.844 22.2188 278.633 22.3281 278.211 22.3594L274.273 22.5234L274.016 24.0469ZM262.672 17.0859L266.914 16.875V15.2578L262.484 15.5156L262.672 17.0859ZM268.367 24.2812L272.68 24.1172L272.891 22.5938L268.344 22.8047L268.367 24.2812ZM273.031 21.4688L273.219 20.1094L268.344 20.3672V21.6562L273.031 21.4688ZM272.516 16.5938L272.797 14.9297L268.344 15.1875V16.8047L272.516 16.5938Z" fill="#FA760A"/>
<path d="M304.789 24.2109C304.789 24.3359 304.719 24.4297 304.578 24.4922C304.453 24.5547 304.297 24.5859 304.109 24.5859C303.75 24.5859 303.492 24.5312 303.336 24.4219C303.18 24.3125 303.078 24.1719 303.031 24C303 23.8281 302.984 23.5859 302.984 23.2734C302.984 22.8672 303.016 22.4688 303.078 22.0781C303.172 21.4219 303.422 20.8672 303.828 20.4141C304.234 19.9453 304.812 19.4219 305.562 18.8438C306.109 18.4219 306.547 18.0547 306.875 17.7422C307.203 17.4297 307.477 17.0625 307.695 16.6406C307.93 16.2188 308.047 15.7422 308.047 15.2109C308.047 14.6484 307.789 14.1719 307.273 13.7812C306.758 13.3906 306.133 13.1953 305.398 13.1953C304.523 13.1953 303.695 13.3438 302.914 13.6406C302.148 13.9219 301.531 14.2969 301.062 14.7656C300.703 15.1562 300.422 15.6875 300.219 16.3594C300.156 16.5625 300.016 16.6641 299.797 16.6641C299.562 16.6641 299.32 16.5625 299.07 16.3594C298.82 16.1406 298.695 15.9141 298.695 15.6797C298.695 15.4766 298.953 15.0547 299.469 14.4141C299.984 13.7578 300.742 13.1641 301.742 12.6328C302.742 12.0859 303.953 11.8125 305.375 11.8125C306.609 11.8125 307.648 12.1094 308.492 12.7031C309.336 13.2969 309.758 14.0859 309.758 15.0703C309.758 15.7891 309.617 16.4219 309.336 16.9688C309.055 17.5 308.719 17.9531 308.328 18.3281C307.938 18.6875 307.422 19.1094 306.781 19.5938C306.078 20.125 305.547 20.5859 305.188 20.9766C304.844 21.3516 304.641 21.7891 304.578 22.2891C304.562 22.4141 304.555 22.5938 304.555 22.8281C304.555 23.1875 304.625 23.6172 304.766 24.1172L304.789 24.2109ZM302.633 27.3281C302.633 26.9844 302.734 26.7031 302.938 26.4844C303.156 26.2656 303.469 26.1562 303.875 26.1562C304.172 26.1562 304.445 26.3203 304.695 26.6484C304.961 26.9609 305.094 27.2969 305.094 27.6562C305.094 27.9844 304.992 28.2422 304.789 28.4297C304.586 28.6328 304.281 28.7344 303.875 28.7344C303.547 28.7344 303.258 28.5859 303.008 28.2891C302.758 27.9922 302.633 27.6719 302.633 27.3281Z" fill="#333333"/>
</svg>
