<svg width="350" height="40" viewBox="0 0 350 40" fill="none" xmlns="http://www.w3.org/2000/svg">
<path d="M30.0078 19.1719C29.9141 19.1719 29.7812 19.1016 29.6094 18.9609C29.5156 18.8984 29.4375 18.8359 29.375 18.7734C29.3125 18.7109 29.2812 18.6562 29.2812 18.6094L29.3047 18.2344C29.3203 18.0938 29.3281 17.7812 29.3281 17.2969C29.3125 16.9531 29.3047 16.2344 29.3047 15.1406C29.3047 14.7031 29.2656 14.3047 29.1875 13.9453C29.1875 13.9453 29.1562 13.7578 29.0938 13.3828V13.3125C29.0938 13.1719 29.1875 13.1328 29.375 13.1953C29.4531 13.2109 29.6328 13.2422 29.9141 13.2891C30.2109 13.2422 31.2031 13.125 32.8906 12.9375C33.125 12.9062 33.3125 12.875 33.4531 12.8438C33.5938 12.8125 33.6953 12.7891 33.7578 12.7734H33.8516C34.0234 12.7734 34.1797 12.8594 34.3203 13.0312C34.5703 13.3281 34.6719 13.5391 34.625 13.6641C34.5625 13.8203 34.5 14.0859 34.4375 14.4609C34.4062 14.6797 34.3672 15.0547 34.3203 15.5859V16.6641V18.375C34.3203 18.5156 34.25 18.7031 34.1094 18.9375C34.0781 19.0156 34.0156 19.0781 33.9219 19.125C33.8438 19.1719 33.7578 19.1953 33.6641 19.1953C33.5703 19.1953 33.5 19.1719 33.4531 19.125C33.4219 19.0938 33.3906 19.0625 33.3594 19.0312C33.3281 18.9844 33.2969 18.9531 33.2656 18.9375C33.25 18.9219 33.2188 18.9141 33.1719 18.9141C32.2031 18.9141 31.3281 18.9766 30.5469 19.1016C30.4844 19.1172 30.4219 19.125 30.3594 19.125C30.3125 19.125 30.2656 19.1328 30.2188 19.1484L30.0547 19.1719H30.0078ZM30.4531 18.3047C30.8438 18.2891 31.375 18.2422 32.0469 18.1641C32.3594 18.1328 32.5391 18.1172 32.5859 18.1172H32.7734C33.0234 18.1172 33.2109 18.1641 33.3359 18.2578C33.4453 17.4766 33.5 16.0469 33.5 13.9688C33.4688 13.7344 33.375 13.6172 33.2188 13.6172C32.9219 13.6172 32.3203 13.6719 31.4141 13.7812C31.3203 13.7812 31.2266 13.7891 31.1328 13.8047C31.0391 13.8203 30.9453 13.8359 30.8516 13.8516C30.5859 13.8984 30.3906 13.9219 30.2656 13.9219C30.1562 13.9219 30.1172 13.9766 30.1484 14.0859L30.125 14.8828C30.1094 14.9922 30.1016 15.0938 30.1016 15.1875C30.1172 15.2812 30.125 15.3672 30.125 15.4453C30.1406 15.5703 30.1484 15.7734 30.1484 16.0547C30.1484 17.2734 30.1562 17.9453 30.1719 18.0703C30.1719 18.1797 30.2031 18.25 30.2656 18.2812C30.3281 18.3125 30.3906 18.3203 30.4531 18.3047ZM32.1875 16.9922C32.0156 16.9922 31.8828 16.9062 31.7891 16.7344C31.4609 16.1875 31.1562 15.7344 30.875 15.375L30.7109 15.1172C30.6484 15.0234 30.6172 14.9531 30.6172 14.9062C30.6328 14.8438 30.6719 14.8203 30.7344 14.8359C31.1406 14.9609 31.5156 15.1641 31.8594 15.4453C32.3906 15.8516 32.6562 16.1641 32.6562 16.3828C32.6562 16.4922 32.625 16.6016 32.5625 16.7109C32.4531 16.8984 32.3281 16.9922 32.1875 16.9922ZM34.3203 27.1641C34.0859 27.1641 33.8594 26.9922 33.6406 26.6484C33.3594 26.2109 33.0859 25.8516 32.8203 25.5703L32.2109 24.9375C31.8828 25.3125 31.5938 25.6094 31.3438 25.8281C31.1094 26.0469 30.8125 26.2578 30.4531 26.4609C29.7812 26.8516 29.2188 27.0469 28.7656 27.0469C28.6562 27.0469 28.6016 27.0078 28.6016 26.9297C28.6016 26.8828 28.75 26.7812 29.0469 26.625C29.3438 26.4688 29.625 26.2812 29.8906 26.0625C30.5625 25.5 31.1172 24.9219 31.5547 24.3281C31.4609 24.2344 30.9922 23.8281 30.1484 23.1094C30.0391 23.0312 29.875 22.8984 29.6562 22.7109C29.6094 22.6797 29.5156 22.6094 29.375 22.5C29.2344 22.3906 29.1641 22.3125 29.1641 22.2656C29.1641 22.1875 29.2031 22.1484 29.2812 22.1484C29.5156 22.1484 29.8906 22.3125 30.4062 22.6406C30.9219 22.9531 31.4609 23.3281 32.0234 23.7656C32.2422 23.5 32.4141 23.25 32.5391 23.0156C32.6641 22.7812 32.8047 22.4922 32.9609 22.1484C33.0391 21.9766 33.0859 21.8281 33.1016 21.7031C33.1172 21.5625 33.125 21.4766 33.125 21.4453C33.125 21.2734 33.1719 21.1875 33.2656 21.1875C33.375 21.1875 33.5234 21.2734 33.7109 21.4453C34.0391 21.7578 34.2031 21.9688 34.2031 22.0781C34.2031 22.1406 34.1641 22.2109 34.0859 22.2891C33.8984 22.4766 33.7266 22.7266 33.5703 23.0391C33.4766 23.2266 33.3047 23.4922 33.0547 23.8359C32.9766 23.9297 32.9141 24.0156 32.8672 24.0938C32.8203 24.1719 32.7734 24.2422 32.7266 24.3047C33.0859 24.5703 33.6172 25.0234 34.3203 25.6641C34.4922 25.8203 34.6016 25.9688 34.6484 26.1094C34.7109 26.2344 34.7422 26.4062 34.7422 26.625C34.7422 26.7812 34.7031 26.9141 34.625 27.0234C34.5469 27.1172 34.4453 27.1641 34.3203 27.1641ZM39.1016 17.0391C39.2891 17.0391 39.3828 17.125 39.3828 17.2969C39.3828 17.3906 39.2969 17.5234 39.125 17.6953C38.6562 18.2734 37.7266 19.375 36.3359 21C36.2266 21.1406 36.125 21.2109 36.0312 21.2109C35.9531 21.2109 35.7812 21.0938 35.5156 20.8594C35.2969 20.6719 35.1875 20.5156 35.1875 20.3906C35.1875 20.25 35.3047 20.1172 35.5391 19.9922C35.8984 19.7891 36.4375 19.3828 37.1562 18.7734C37.875 18.1328 38.4062 17.625 38.75 17.25C38.8906 17.1094 39.0078 17.0391 39.1016 17.0391ZM16.5547 15.7734C16.7266 15.7734 16.8594 15.8047 16.9531 15.8672C17.0625 15.9141 17.1172 15.9766 17.1172 16.0547C17.1172 16.1953 17.0078 16.3125 16.7891 16.4062C16.5703 16.4844 16.1562 16.5938 15.5469 16.7344C15.3594 18.1094 15.0625 19.4766 14.6562 20.8359C14.25 22.1797 13.625 23.4922 12.7812 24.7734C14.8906 26.6484 15.9453 27.7578 15.9453 28.1016C15.9453 28.3047 15.8281 28.5156 15.5938 28.7344C15.375 28.9531 15.1875 29.0625 15.0312 29.0625C14.8906 29.0625 14.7344 28.9531 14.5625 28.7344C13.7656 27.7656 12.875 26.8281 11.8906 25.9219C11.125 26.8125 10.3047 27.5938 9.42969 28.2656C8.57031 28.9375 7.79688 29.4531 7.10938 29.8125C6.42188 30.1875 5.98438 30.375 5.79688 30.375C5.67188 30.375 5.60938 30.3281 5.60938 30.2344C5.60938 30.0469 5.77344 29.8438 6.10156 29.625C7.89844 28.375 9.51562 26.8438 10.9531 25.0312C10.3438 24.4688 9.71094 23.9219 9.05469 23.3906C8.97656 23.3281 8.85156 23.25 8.67969 23.1562C8.50781 23.0469 8.375 22.9453 8.28125 22.8516C8.20312 22.7422 8.14844 22.5938 8.11719 22.4062C8.10156 22.3438 8.09375 22.2422 8.09375 22.1016C8.09375 21.8828 8.13281 21.6406 8.21094 21.375C8.49219 20.5156 8.80469 19.3672 9.14844 17.9297C8.86719 17.9766 8.35938 18.0547 7.625 18.1641C6.89062 18.2578 6.4375 18.3047 6.26562 18.3047C6.03125 18.3047 5.79688 18.1953 5.5625 17.9766C5.32812 17.7578 5.14844 17.4219 5.02344 16.9688C5.00781 16.9375 5 16.8906 5 16.8281C5 16.7344 5.05469 16.6875 5.16406 16.6875L5.25781 16.7109C5.39844 16.7422 5.61719 16.7578 5.91406 16.7578C6.22656 16.7578 7.41406 16.6719 9.47656 16.5C9.67969 15.5 9.86719 14.4219 10.0391 13.2656C10.2109 12.1094 10.2969 11.3125 10.2969 10.875C10.2969 10.5312 10.2422 10.2422 10.1328 10.0078C10.1016 9.91406 10.0859 9.85938 10.0859 9.84375C10.0859 9.71875 10.1719 9.65625 10.3438 9.65625C10.7812 9.71875 11.1484 9.83594 11.4453 10.0078C11.7578 10.1797 11.9141 10.3984 11.9141 10.6641V10.8281C11.7266 12.5781 11.4219 14.4219 11 16.3594L14.1641 15.9844C14.1797 15.875 14.1953 15.75 14.2109 15.6094C14.2266 15.4688 14.2344 15.2969 14.2344 15.0938V14.8828C14.2344 14.6016 14.1875 14.3125 14.0938 14.0156C14.0781 13.9688 14.0703 13.9062 14.0703 13.8281C14.0703 13.6875 14.1406 13.6172 14.2812 13.6172C14.4219 13.6172 14.6875 13.7031 15.0781 13.875C15.3438 14 15.5234 14.1094 15.6172 14.2031C15.7109 14.2969 15.7578 14.4375 15.7578 14.625V14.7188C15.7422 14.9844 15.7031 15.3594 15.6406 15.8438L16.3672 15.7734H16.5547ZM9.42969 22.0078C10.3672 22.7109 11.1484 23.3516 11.7734 23.9297C12.1641 23.2734 12.5781 22.3906 13.0156 21.2812C13.4531 20.1562 13.7891 18.75 14.0234 17.0625C12.7422 17.3125 11.625 17.5078 10.6719 17.6484C10.4062 18.6641 9.99219 20.1172 9.42969 22.0078ZM17.5391 14.5547C17.5391 14.3984 17.6406 14.3203 17.8438 14.3203C18.1094 14.3203 18.6328 14.4922 19.4141 14.8359L23.9844 14.5547H24.1719C24.4844 14.5547 24.7266 14.6172 24.8984 14.7422C25.0859 14.8672 25.2109 15.0078 25.2734 15.1641C25.3516 15.3047 25.3906 15.4062 25.3906 15.4688C25.3906 15.5625 25.3516 15.6875 25.2734 15.8438C25.1953 16 25.1562 16.1094 25.1562 16.1719L24.6406 24.8906C25.0938 25.3438 25.3203 25.6875 25.3203 25.9219C25.3203 26.1094 25.1484 26.2188 24.8047 26.25L19.6484 26.4375L19.6953 27.4688V27.5156C19.6953 27.6406 19.6484 27.75 19.5547 27.8438C19.4609 27.9219 19.3438 27.9609 19.2031 27.9609C19.1094 27.9609 18.9688 27.9219 18.7812 27.8438C18.6094 27.75 18.4453 27.6328 18.2891 27.4922C18.1484 27.3516 18.0781 27.1953 18.0781 27.0234L18.1016 26.8125C18.1484 26.4375 18.1719 26.0703 18.1719 25.7109L18.1484 25.0781L17.8438 16.2422C17.8281 15.6797 17.7422 15.1953 17.5859 14.7891C17.5547 14.6641 17.5391 14.5859 17.5391 14.5547ZM19.6016 25.1016L23.1875 24.9609L23.6328 15.9141L19.2969 16.1953L19.6016 25.1016Z" fill="#333333"/>
<path d="M64.4141 19.125C64.3984 19.125 64.3438 19.1406 64.25 19.1719C64.1719 19.1875 64.1328 19.1641 64.1328 19.1016C64.1328 19.0859 64.1641 19.0547 64.2266 19.0078C64.2891 18.9453 64.3438 18.8906 64.3906 18.8438C64.4375 18.7969 64.5078 18.7344 64.6016 18.6562C64.6953 18.5625 64.7656 18.4688 64.8125 18.375C65.0469 17.9844 65.2109 17.5938 65.3047 17.2031L65.4453 16.3828C65.5547 15.7734 65.6016 15.0625 65.5859 14.25C65.5859 14.0625 65.5625 13.8672 65.5156 13.6641C65.5 13.5703 65.4219 13.4375 65.2812 13.2656V13.2422C65.2812 13.2109 65.3203 13.1953 65.3984 13.1953C65.5078 13.1953 65.6016 13.2031 65.6797 13.2188C65.8828 13.2656 66.1094 13.2891 66.3594 13.2891C66.625 13.2734 66.7891 13.2656 66.8516 13.2656L68.4219 13.1484C68.7344 13.1172 68.9375 13.1016 69.0312 13.1016C69.7031 13.0078 70.0078 12.9688 69.9453 12.9844C70.3047 12.9219 70.5234 12.8906 70.6016 12.8906C70.8516 12.9062 71.1016 13.1016 71.3516 13.4766L71.3984 13.5938C71.3984 13.6875 71.3281 13.7422 71.1875 13.7578C71.0469 13.7734 70.9609 13.7812 70.9297 13.7812C70.4453 13.7812 70.0859 13.7891 69.8516 13.8047C69.2578 13.8047 68.8203 13.8125 68.5391 13.8281L67.8828 13.875L66.5469 14.0156C66.4531 15.3281 66.3672 16.1875 66.2891 16.5938C66.1641 17.3281 65.9219 17.9219 65.5625 18.375C65.2969 18.7188 64.9141 18.9688 64.4141 19.125ZM68.0234 27.7969C67.2734 27.7969 66.6484 27.6094 66.1484 27.2344C65.6328 26.8125 65.375 26.3203 65.375 25.7578C65.375 25.3203 65.5391 24.9375 65.8672 24.6094C66.2891 24.25 66.8203 24.0703 67.4609 24.0703C67.4922 24.0703 67.5156 24.0391 67.5312 23.9766C67.5625 23.8984 67.5781 23.7969 67.5781 23.6719L67.6016 23.0625C67.4922 23.0781 67.2812 23.1016 66.9688 23.1328C66.6719 23.1641 66.4531 23.1953 66.3125 23.2266C66.3906 23.2109 66.1484 23.2656 65.5859 23.3906C65.5391 23.4062 65.4531 23.4141 65.3281 23.4141C65.0312 23.4141 64.7812 23.2812 64.5781 23.0156C64.4844 22.9219 64.4375 22.8438 64.4375 22.7812C64.4375 22.6875 64.5781 22.6406 64.8594 22.6406L65.5859 22.5938L67.5781 22.3359V22.0547V21.4688C67.5625 21.4062 67.5547 21.3359 67.5547 21.2578C67.5547 21.1797 67.5469 21.1172 67.5312 21.0703C67.5 20.9453 67.4844 20.8672 67.4844 20.8359C67.4844 20.7266 67.5391 20.6719 67.6484 20.6719C67.7891 20.6719 68.0312 20.7734 68.375 20.9766C68.4844 21.0391 68.5391 21.125 68.5391 21.2344C68.5391 21.3125 68.5234 21.3828 68.4922 21.4453C68.4766 21.4922 68.4688 21.5469 68.4688 21.6094V22.2656L69.1719 22.1953L70.0391 22.1016C70.1172 22.0859 70.2031 22.0625 70.2969 22.0312C70.4062 22 70.4922 21.9844 70.5547 21.9844C70.6484 21.9844 70.7656 22.0312 70.9062 22.125C71.1719 22.2969 71.3047 22.4453 71.3047 22.5703C71.3047 22.6953 71.1719 22.7578 70.9062 22.7578C70.8281 22.7578 70.7188 22.7734 70.5781 22.8047C70.4375 22.8203 70.2578 22.8359 70.0391 22.8516L68.4688 22.9688L68.4453 24.3984C68.4141 24.6328 68.2422 24.7812 67.9297 24.8438H67.8828C67.7891 24.8438 67.6953 24.8359 67.6016 24.8203C67.5234 24.7891 67.4609 24.7734 67.4141 24.7734C67.2891 24.7734 67.1641 24.7812 67.0391 24.7969C66.9141 24.8125 66.8047 24.8594 66.7109 24.9375C66.4453 25.1719 66.3125 25.4453 66.3125 25.7578C66.3125 26.0703 66.4609 26.3516 66.7578 26.6016C67.0234 26.8516 67.4453 26.9766 68.0234 26.9766C68.7891 26.9453 69.4141 26.7344 69.8984 26.3438C70.1016 26.2031 70.2578 26.1328 70.3672 26.1328C70.4297 26.1328 70.5078 26.1484 70.6016 26.1797C70.6172 26.1953 70.6484 26.2266 70.6953 26.2734C70.7422 26.3203 70.7656 26.3672 70.7656 26.4141C70.7656 26.8516 70.3984 27.2109 69.6641 27.4922C69.1172 27.6953 68.5703 27.7969 68.0234 27.7969ZM75.1016 17.0391C75.2891 17.0391 75.3828 17.125 75.3828 17.2969C75.3828 17.3906 75.2969 17.5234 75.125 17.6953C74.6562 18.2734 73.7266 19.375 72.3359 21C72.2266 21.1406 72.125 21.2109 72.0312 21.2109C71.9531 21.2109 71.7812 21.0938 71.5156 20.8594C71.2969 20.6719 71.1875 20.5156 71.1875 20.3906C71.1875 20.25 71.3047 20.1172 71.5391 19.9922C71.8984 19.7891 72.4375 19.3828 73.1562 18.7734C73.875 18.1328 74.4062 17.625 74.75 17.25C74.8906 17.1094 75.0078 17.0391 75.1016 17.0391ZM50.2578 14.5312C50.1016 14.5312 49.9453 14.5391 49.7891 14.5547C49.6484 14.5703 49.5156 14.5781 49.3906 14.5781C49.0938 14.5781 48.8438 14.4922 48.6406 14.3203C48.4375 14.1328 48.2812 13.9297 48.1719 13.7109C48.0625 13.4922 48.0078 13.3203 48.0078 13.1953C48.0078 13.1328 48.0391 13.1016 48.1016 13.1016C48.1797 13.1016 48.2422 13.1094 48.2891 13.125C48.5859 13.1875 48.9141 13.2188 49.2734 13.2188H49.6016L60.5 12.7031C60.8281 12.6875 61.1328 12.625 61.4141 12.5156C61.4609 12.5 61.5234 12.4922 61.6016 12.4922C61.8359 12.4922 62.1094 12.6328 62.4219 12.9141C62.75 13.1797 62.9141 13.4062 62.9141 13.5938C62.9141 13.7969 62.7188 13.9141 62.3281 13.9453L59.5625 14.0859L59.5859 28.5703C59.5859 28.7422 59.5938 28.8984 59.6094 29.0391C59.6406 29.1953 59.6562 29.3359 59.6562 29.4609C59.6562 29.8047 59.5234 30.1016 59.2578 30.3516C58.9922 30.6016 58.7422 30.7266 58.5078 30.7266C58.3828 30.7266 58.0703 30.6016 57.5703 30.3516C57.0703 30.1172 56.5078 29.8047 55.8828 29.4141C55.2578 29.0391 54.6875 28.6406 54.1719 28.2188C53.7969 27.8906 53.6094 27.6562 53.6094 27.5156C53.6094 27.4375 53.6719 27.3984 53.7969 27.3984C54 27.3984 54.2656 27.4766 54.5938 27.6328C55.3594 27.9766 56.5156 28.3516 58.0625 28.7578L58.0391 14.1562L50.2578 14.5312ZM40.9297 21.5156C40.9297 21.3594 41.0312 21.1484 41.2344 20.8828C42.4375 19.3047 43.5234 17.7031 44.4922 16.0781C45.4609 14.4531 46.2109 12.9141 46.7422 11.4609C46.8203 11.1484 46.8594 10.9062 46.8594 10.7344C46.8594 10.6562 46.8438 10.5391 46.8125 10.3828L46.7891 10.2891C46.7891 10.1328 46.8828 10.0547 47.0703 10.0547C47.3203 10.0547 47.6328 10.1719 48.0078 10.4062C48.3984 10.6406 48.5938 10.8516 48.5938 11.0391C48.5938 11.1953 48.3516 11.7969 47.8672 12.8438C47.3984 13.875 46.8281 14.9219 46.1562 15.9844V30C46.1562 30.3125 46.0156 30.4688 45.7344 30.4688C45.5312 30.4688 45.2812 30.3828 44.9844 30.2109C44.6875 30.0547 44.5391 29.8047 44.5391 29.4609C44.5391 29.3672 44.5469 29.2891 44.5625 29.2266C44.6406 28.8516 44.6797 28.4141 44.6797 27.9141L44.7734 17.9297C44.0234 18.9453 43.2656 19.8281 42.5 20.5781C41.75 21.3125 41.2734 21.6797 41.0703 21.6797C40.9766 21.6797 40.9297 21.625 40.9297 21.5156ZM48.4766 17.5547C48.4766 17.4609 48.5547 17.4141 48.7109 17.4141C48.9922 17.4141 49.5 17.5547 50.2344 17.8359L54.5234 17.6016H54.7109C54.9922 17.6016 55.2266 17.6875 55.4141 17.8594C55.6016 18.0156 55.6953 18.1875 55.6953 18.375C55.6953 18.4375 55.6719 18.5078 55.625 18.5859C55.5938 18.6641 55.5703 18.7266 55.5547 18.7734L55.1562 21.8906C55.5938 22.375 55.8125 22.7031 55.8125 22.875C55.8125 22.9844 55.7578 23.0547 55.6484 23.0859C55.5547 23.1172 55.3828 23.1406 55.1328 23.1562L50.7266 23.3203L50.75 23.7656V23.8594C50.75 24.1719 50.6328 24.3281 50.3984 24.3281C50.1484 24.3281 49.8828 24.25 49.6016 24.0938C49.3359 23.9375 49.2031 23.75 49.2031 23.5312L49.2266 23.3672C49.2578 23.2109 49.2734 22.9688 49.2734 22.6406C49.2734 22.375 49.2656 22.1719 49.25 22.0312L48.9688 18.9375C48.9219 18.5 48.8125 18.1562 48.6406 17.9062C48.5312 17.7344 48.4766 17.6172 48.4766 17.5547ZM50.6328 22.0781L53.7734 21.9609L53.9844 18.8906L50.4453 19.0781L50.6328 22.0781Z" fill="#333333"/>
<path d="M103.859 19.6172C103.641 19.6172 103.477 19.5469 103.367 19.4062C103.227 19.1406 102.938 18.8516 102.5 18.5391L102.547 18.4219C103.031 18.625 103.438 18.7266 103.766 18.7266C103.969 18.7266 104.141 18.6094 104.281 18.375C104.438 18.125 104.602 17.7656 104.773 17.2969C104.977 16.7188 105.086 16.2344 105.102 15.8438C105.102 15.7969 105.078 15.7578 105.031 15.7266C104.984 15.6797 104.945 15.6562 104.914 15.6562C104.773 15.6406 104.508 15.6641 104.117 15.7266L103.625 15.7969C103.484 15.8125 103.32 15.8438 103.133 15.8906C102.961 15.9375 102.82 15.9688 102.711 15.9844C102.648 16 102.547 16.0312 102.406 16.0781C102.266 16.125 102.164 16.1484 102.102 16.1484C102.023 16.1484 101.93 16.1094 101.82 16.0312C101.727 15.9375 101.641 15.8359 101.562 15.7266C101.547 15.7109 101.539 15.6797 101.539 15.6328C101.539 15.5703 101.586 15.4922 101.68 15.3984C101.789 15.2891 101.875 15.2031 101.938 15.1406C102.016 15.0469 102.094 14.9375 102.172 14.8125C102.25 14.6719 102.312 14.5703 102.359 14.5078C102.438 14.3828 102.5 14.2344 102.547 14.0625L102.594 13.8516C102.594 13.8359 102.586 13.7969 102.57 13.7344C102.555 13.6562 102.523 13.6172 102.477 13.6172C101.852 13.6953 101.391 13.7891 101.094 13.8984C101.031 13.9297 100.938 13.9609 100.812 13.9922C100.703 13.9922 100.609 13.9453 100.531 13.8516C100.484 13.8359 100.391 13.7109 100.25 13.4766C100.188 13.4141 100.156 13.3594 100.156 13.3125C100.156 13.2031 100.32 13.1406 100.648 13.125L101.094 13.0781C101.172 13.0781 101.336 13.0625 101.586 13.0312C102.086 12.9844 102.781 12.9297 103.672 12.8672C103.984 12.8516 104.523 12.8125 105.289 12.75C105.508 12.7344 105.773 12.7031 106.086 12.6562C106.258 12.6094 106.367 12.5859 106.414 12.5859C106.492 12.5859 106.57 12.6172 106.648 12.6797C106.727 12.7109 106.828 12.7734 106.953 12.8672C107.078 12.9453 107.172 13.0312 107.234 13.125C107.297 13.2031 107.328 13.2812 107.328 13.3594C107.328 13.4375 107.289 13.4922 107.211 13.5234C107.133 13.5547 107.031 13.5547 106.906 13.5234C106.719 13.4766 106.5 13.4453 106.25 13.4297C106.016 13.4141 105.875 13.4062 105.828 13.4062C105.297 13.3906 104.633 13.4141 103.836 13.4766C103.617 13.5078 103.453 13.5234 103.344 13.5234C103.438 13.6016 103.523 13.7266 103.602 13.8984V13.9453C103.602 13.9922 103.578 14.0547 103.531 14.1328C103.484 14.2109 103.43 14.2656 103.367 14.2969C103.289 14.3438 103.195 14.4531 103.086 14.625C102.977 14.7969 102.906 14.9062 102.875 14.9531C102.781 15.0781 102.734 15.1797 102.734 15.2578C102.734 15.3203 102.797 15.3438 102.922 15.3281C103.031 15.3125 103.258 15.2812 103.602 15.2344C103.961 15.1719 104.227 15.1172 104.398 15.0703C104.445 15.0547 104.516 15.0391 104.609 15.0234C104.719 15.0078 104.844 14.9766 104.984 14.9297C105.094 14.9141 105.203 14.9375 105.312 15C105.438 15.0625 105.625 15.1953 105.875 15.3984C106.062 15.5391 106.156 15.6641 106.156 15.7734C106.156 15.8516 106.125 15.9297 106.062 16.0078C106 16.1172 105.953 16.2656 105.922 16.4531C105.781 17.1094 105.617 17.6406 105.43 18.0469C105.289 18.3281 105.156 18.5625 105.031 18.75C104.906 18.9219 104.75 19.0938 104.562 19.2656C104.359 19.5 104.125 19.6172 103.859 19.6172ZM104.773 23.25C104.617 23.4531 104.453 23.5547 104.281 23.5547C104.234 23.5547 104.211 23.5156 104.211 23.4375C104.211 23.3281 104.242 23.2031 104.305 23.0625C104.305 23.0625 104.461 22.75 104.773 22.125C104.789 22.0625 104.812 22 104.844 21.9375C104.875 21.875 104.898 21.8203 104.914 21.7734V21.75C104.914 21.7188 104.891 21.6875 104.844 21.6562C104.797 21.625 104.742 21.6172 104.68 21.6328C104.43 21.6484 104.055 21.6875 103.555 21.75C103.07 21.8125 102.711 21.875 102.477 21.9375C102.383 21.9688 102.266 22.0078 102.125 22.0547C102 22.1016 101.898 22.125 101.82 22.125C101.539 22.125 101.305 22.0391 101.117 21.8672C100.961 21.7578 100.844 21.6484 100.766 21.5391L100.719 21.4219C100.719 21.3438 100.852 21.3203 101.117 21.3516C101.477 21.3828 102.219 21.3359 103.344 21.2109L103.812 21.1406C103.938 21.125 104.133 21.1016 104.398 21.0703C104.68 21.0234 104.898 20.9766 105.055 20.9297C105.102 20.9141 105.148 20.8984 105.195 20.8828C105.258 20.8516 105.312 20.8359 105.359 20.8359C105.438 20.8359 105.531 20.875 105.641 20.9531C105.766 21.0312 105.867 21.1016 105.945 21.1641C106.055 21.2422 106.125 21.3125 106.156 21.375C106.203 21.4219 106.219 21.4844 106.203 21.5625C106.203 21.6406 106.164 21.7109 106.086 21.7734C106.008 21.8359 105.953 21.8828 105.922 21.9141C105.891 21.9609 105.781 22.0781 105.594 22.2656C105.516 22.3906 105.375 22.5625 105.172 22.7812C104.984 23 104.852 23.1562 104.773 23.25ZM103.602 27.8672C103.602 27.8203 103.68 27.7031 103.836 27.5156C104.008 27.3125 104.141 27.1562 104.234 27.0469C104.469 26.7344 104.75 26.2812 105.078 25.6875C105.422 25.0938 105.617 24.7031 105.664 24.5156C105.695 24.4219 105.648 24.375 105.523 24.375C105.273 24.375 104.586 24.4453 103.461 24.5859C102.727 24.6797 102.18 24.7734 101.82 24.8672C101.742 24.9141 101.664 24.9375 101.586 24.9375C101.461 24.9375 101.328 24.8516 101.188 24.6797C101.125 24.5703 101.094 24.4688 101.094 24.375C101.094 24.3125 101.133 24.25 101.211 24.1875L101.281 24.0938C101.328 24 101.383 23.875 101.445 23.7188C101.508 23.5625 101.562 23.4141 101.609 23.2734C101.688 23.0234 101.742 22.75 101.773 22.4531C101.789 22.2812 101.883 22.2344 102.055 22.3125C102.273 22.4219 102.438 22.5312 102.547 22.6406C102.672 22.7344 102.711 22.8047 102.664 22.8516C102.508 23.0391 102.383 23.25 102.289 23.4844C102.211 23.7344 102.164 23.8984 102.148 23.9766C102.148 24.0391 102.188 24.0703 102.266 24.0703C102.5 24.0703 102.852 24.0312 103.32 23.9531C103.586 23.9219 103.914 23.8828 104.305 23.8359C104.695 23.7891 105.008 23.7422 105.242 23.6953L105.828 23.5781C105.875 23.5625 105.938 23.5547 106.016 23.5547C106.094 23.5547 106.172 23.5859 106.25 23.6484C106.328 23.6953 106.414 23.7578 106.508 23.8359C106.664 23.9766 106.766 24.0938 106.812 24.1875C106.859 24.2656 106.883 24.3594 106.883 24.4688C106.883 24.5312 106.836 24.6094 106.742 24.7031C106.664 24.7969 106.57 24.9453 106.461 25.1484C106.008 26.0703 105.422 26.8438 104.703 27.4688C104.5 27.625 104.273 27.7578 104.023 27.8672C103.914 27.8984 103.812 27.9219 103.719 27.9375C103.641 27.9375 103.602 27.9141 103.602 27.8672ZM108.102 18.9141C108.18 18.9141 108.297 18.9688 108.453 19.0781C108.438 19.1094 108.469 19.1719 108.547 19.2656C108.625 19.3438 108.68 19.3984 108.711 19.4297C108.789 19.5078 108.867 19.6016 108.945 19.7109C109.039 19.8203 109.141 19.9375 109.25 20.0625C109.531 20.3594 110.18 21.1328 111.195 22.3828C111.367 22.6328 111.453 22.7812 111.453 22.8281C111.453 22.9844 111.359 23.0625 111.172 23.0625C111.062 23.0625 110.945 22.9844 110.82 22.8281C110.523 22.5156 109.992 22.0234 109.227 21.3516C108.633 20.8047 108.094 20.3828 107.609 20.0859C107.375 19.9766 107.258 19.8516 107.258 19.7109C107.258 19.6016 107.375 19.4453 107.609 19.2422C107.828 19.0234 107.992 18.9141 108.102 18.9141ZM84.8984 30.375V30.4219C84.8984 30.7188 84.7656 30.8672 84.5 30.8672C84.25 30.8672 83.9922 30.7812 83.7266 30.6094C83.4766 30.4375 83.3516 30.2109 83.3516 29.9297L83.375 29.7422C83.4219 29.4922 83.4453 29.2188 83.4453 28.9219L83.4219 28.4531L83.1641 21.9141C82.3828 22.6328 81.5781 23.2578 80.75 23.7891C79.9219 24.3047 79.1953 24.7031 78.5703 24.9844C77.9453 25.25 77.5781 25.3828 77.4688 25.3828C77.3281 25.3828 77.2578 25.3281 77.2578 25.2188C77.2578 25.0625 77.4062 24.8828 77.7031 24.6797C79.1875 23.7266 80.5 22.7344 81.6406 21.7031C82.7812 20.6562 83.7734 19.4688 84.6172 18.1406L79.3438 18.3984H79.0156C78.5938 18.3984 78.2969 18.3281 78.125 18.1875C77.9531 18.0312 77.7891 17.7109 77.6328 17.2266C77.6172 17.1953 77.6094 17.1484 77.6094 17.0859C77.6094 17.0234 77.6406 16.9922 77.7031 16.9922C77.75 16.9922 77.7891 17 77.8203 17.0156C78.1172 17.0938 78.4297 17.1328 78.7578 17.1328H79.1797L85.3438 16.8047C85.625 16.3047 85.8672 15.7734 86.0703 15.2109L82.3438 15.4219L81.875 15.4453C81.6094 15.4453 81.3672 15.375 81.1484 15.2344C80.9297 15.0938 80.75 14.7734 80.6094 14.2734L80.5859 14.1797C80.5859 14.1016 80.625 14.0625 80.7031 14.0625C80.7656 14.0625 80.8125 14.0703 80.8438 14.0859C81.2031 14.1797 81.5469 14.2266 81.875 14.2266H82.0859L86.4688 13.9453C86.6562 13.3516 86.7812 12.8594 86.8438 12.4688C85.4531 12.7031 83.875 12.875 82.1094 12.9844H81.9219C81.6719 12.9844 81.4844 12.9609 81.3594 12.9141C81.2344 12.8672 81.1719 12.8047 81.1719 12.7266C81.1719 12.6484 81.2422 12.5703 81.3828 12.4922C81.5234 12.4141 81.7266 12.3516 81.9922 12.3047C83.5391 12.0859 85.1797 11.7734 86.9141 11.3672C88.6484 10.9453 90.1406 10.4922 91.3906 10.0078C91.7188 9.88281 92.0312 9.69531 92.3281 9.44531C92.4375 9.36719 92.5312 9.32812 92.6094 9.32812C92.7656 9.32812 92.9219 9.42188 93.0781 9.60938C93.25 9.79688 93.3906 10.0156 93.5 10.2656C93.6094 10.5156 93.6641 10.6953 93.6641 10.8047C93.6641 10.9453 93.5938 11.0391 93.4531 11.0859C91.6094 11.5703 89.9375 11.9453 88.4375 12.2109C88.3125 12.8203 88.1719 13.3672 88.0156 13.8516L92.75 13.5703C93.0938 13.5391 93.3594 13.4922 93.5469 13.4297C93.6406 13.3828 93.7344 13.3594 93.8281 13.3594C94.0156 13.3594 94.2578 13.4922 94.5547 13.7578C94.8516 14.0078 95 14.2188 95 14.3906C95 14.5781 94.7812 14.6875 94.3438 14.7188L87.6406 15.1172C87.3906 15.8047 87.1641 16.3438 86.9609 16.7344L95.8672 16.2656C96.2734 16.2344 96.6562 16.1797 97.0156 16.1016C97.0781 16.0859 97.1641 16.0781 97.2734 16.0781C97.4766 16.0781 97.7188 16.2109 98 16.4766C98.2969 16.7266 98.4453 16.9453 98.4453 17.1328C98.4453 17.3203 98.2891 17.4297 97.9766 17.4609L86.2578 18.0469L85.9766 18.5156C85.9297 18.5938 85.8359 18.75 85.6953 18.9844C85.5703 19.2188 85.4375 19.4141 85.2969 19.5703L92.8203 19.1953H93.0078C93.2578 19.1953 93.4609 19.25 93.6172 19.3594C93.7734 19.4688 93.8828 19.5859 93.9453 19.7109C94.0078 19.8359 94.0391 19.9219 94.0391 19.9688C94.0391 20.0469 94.0156 20.125 93.9688 20.2031C93.9219 20.2812 93.8984 20.3438 93.8984 20.3906L93.5234 27.9141C93.8828 28.3828 94.0625 28.7031 94.0625 28.875C94.0625 28.9844 94.0156 29.0547 93.9219 29.0859C93.8281 29.1172 93.6719 29.1406 93.4531 29.1562L84.8516 29.4141L84.8984 30.375ZM84.5938 22.4297L92.375 22.0781L92.3984 20.4375L84.5234 20.8125L84.5938 22.4297ZM84.6875 25.1719L92.2812 24.8672L92.3281 23.2734L84.6406 23.6016L84.6875 25.1719ZM84.8047 28.1719L92.1641 27.9609L92.2344 26.0859L84.7344 26.3906L84.8047 28.1719Z" fill="#333333"/>
<path d="M141.594 16.7578C141.484 16.7578 141.367 16.6875 141.242 16.5469C141.148 16.4375 141.086 16.3516 141.055 16.2891C141.023 16.2109 141.023 16.1094 141.055 15.9844L141.078 15.4219C141.094 15.3125 141.102 15.0469 141.102 14.625V13.8516L140.398 14.1797L139.578 14.5312C139.375 14.6094 139.164 14.7031 138.945 14.8125C138.758 14.9062 138.594 14.9531 138.453 14.9531C138.344 14.9375 138.219 14.8984 138.078 14.8359C137.938 14.7734 137.828 14.7188 137.75 14.6719C137.578 14.5625 137.5 14.4453 137.516 14.3203L137.586 14.0859C137.586 13.9609 137.594 13.8516 137.609 13.7578L137.633 12.3984V11.1328C137.633 10.8828 137.617 10.6719 137.586 10.5C137.555 10.3125 137.531 10.1797 137.516 10.1016C137.516 10.0234 137.539 9.96875 137.586 9.9375C137.602 9.92188 137.641 9.91406 137.703 9.91406C137.812 9.91406 138.023 9.98438 138.336 10.125C138.602 10.25 138.711 10.4062 138.664 10.5938C138.633 10.7031 138.602 10.8672 138.57 11.0859L138.5 13.7812C138.5 13.8594 138.508 13.9219 138.523 13.9688C138.555 14 138.586 14.0156 138.617 14.0156C138.805 14.0156 139.031 13.9609 139.297 13.8516C139.797 13.6953 140.227 13.5391 140.586 13.3828L141.102 13.1719V11.625C141.102 11 141.062 10.3984 140.984 9.82031C140.969 9.77344 140.961 9.71875 140.961 9.65625C140.961 9.5 141.023 9.42188 141.148 9.42188C141.164 9.42188 141.25 9.45312 141.406 9.51562C141.641 9.64062 141.812 9.75 141.922 9.84375C142.031 9.9375 142.094 9.99219 142.109 10.0078C142.172 10.0547 142.203 10.1016 142.203 10.1484C142.203 10.1797 142.188 10.2188 142.156 10.2656C142.141 10.3125 142.125 10.3516 142.109 10.3828L142.039 11.0859L142.016 13.2422L142.039 15.3281C142.039 15.6875 142.016 16 141.969 16.2656C141.891 16.5938 141.766 16.7578 141.594 16.7578ZM137.281 20.6016C137.109 20.6016 136.898 20.4688 136.648 20.2031C136.461 20.0156 136.367 19.875 136.367 19.7812C136.367 19.7344 136.398 19.7109 136.461 19.7109C136.523 19.6953 136.602 19.6875 136.695 19.6875L137.211 19.6641C137.508 19.6641 137.703 19.6562 137.797 19.6406C138.094 19.6406 138.344 19.6328 138.547 19.6172C139.891 19.4922 140.797 19.3906 141.266 19.3125C141.5 19.2812 141.711 19.25 141.898 19.2188C142.086 19.1719 142.234 19.1484 142.344 19.1484C142.562 19.1484 142.781 19.2578 143 19.4766C143.172 19.6484 143.258 19.7891 143.258 19.8984C143.258 19.9922 143.203 20.0547 143.094 20.0859C143.016 20.1016 142.555 20.1328 141.711 20.1797C141.242 20.1953 140.664 20.2344 139.977 20.2969C139.289 20.3594 138.688 20.4219 138.172 20.4844C138.078 20.5 137.945 20.5234 137.773 20.5547C137.602 20.5859 137.438 20.6016 137.281 20.6016ZM137.141 29.9531C136.906 29.9531 136.727 29.8906 136.602 29.7656C136.461 29.625 136.391 29.5 136.391 29.3906C136.391 29.2812 136.453 29.1641 136.578 29.0391C136.594 29.0234 136.68 28.8984 136.836 28.6641C137.18 28.1172 137.57 27.4219 138.008 26.5781C138.461 25.7188 138.742 25.1328 138.852 24.8203C138.945 24.5234 139.031 24.2656 139.109 24.0469C139.203 23.8281 139.281 23.7188 139.344 23.7188C139.453 23.7188 139.547 23.7578 139.625 23.8359C139.703 23.8984 139.781 23.9922 139.859 24.1172C139.953 24.2266 140.023 24.3047 140.07 24.3516C140.18 24.4766 140.234 24.5938 140.234 24.7031C140.234 24.7812 140.203 24.8594 140.141 24.9375C140.078 25.0156 140.039 25.0703 140.023 25.1016L138.992 26.8359C138.727 27.3203 138.375 27.9219 137.938 28.6406C137.875 28.7188 137.844 28.7969 137.844 28.875C137.844 28.9375 137.914 28.9688 138.055 28.9688C138.352 28.9688 138.906 28.9297 139.719 28.8516C140.531 28.7891 141.078 28.7344 141.359 28.6875C141.766 28.6406 142.047 28.5938 142.203 28.5469C142.375 28.5 142.625 28.6172 142.953 28.8984C143.344 29.2266 143.43 29.4375 143.211 29.5312C143.086 29.5938 142.844 29.625 142.484 29.625H141.547C141.344 29.625 141.023 29.6406 140.586 29.6719C140.32 29.6719 140.023 29.6797 139.695 29.6953C139.367 29.7109 139.094 29.7266 138.875 29.7422C138.625 29.7578 138.141 29.8047 137.422 29.8828L137.141 29.9531ZM118.836 20.3672C118.977 20.2109 119.102 20.1328 119.211 20.1328C119.32 20.1328 119.406 20.1641 119.469 20.2266C120.422 21.0078 121.32 21.8984 122.164 22.8984C122.305 23.0547 122.375 23.1953 122.375 23.3203C122.375 23.4297 122.289 23.5938 122.117 23.8125C121.945 24.0312 121.773 24.1406 121.602 24.1406C121.492 24.1406 121.391 24.0703 121.297 23.9297C120.641 23.0391 119.82 22.1406 118.836 21.2344L118.766 29.8125C118.766 30.125 118.625 30.2812 118.344 30.2812C118.281 30.2812 118.164 30.25 117.992 30.1875C117.82 30.125 117.656 30.0234 117.5 29.8828C117.359 29.7422 117.289 29.5625 117.289 29.3438C117.289 29.25 117.297 29.1797 117.312 29.1328C117.422 28.6172 117.477 28.1875 117.477 27.8438V26.3203L117.594 19.0312L115.156 19.2188C115.016 19.2344 114.836 19.2422 114.617 19.2422C114.336 19.2422 114.156 19.2031 114.078 19.125C113.844 18.9531 113.656 18.7578 113.516 18.5391C113.391 18.3203 113.328 18.1719 113.328 18.0938C113.328 17.9844 113.383 17.9297 113.492 17.9297C113.555 17.9297 113.602 17.9375 113.633 17.9531C114.008 18.0156 114.32 18.0469 114.57 18.0469H114.781L117.547 17.8594L117.594 11.4375C117.594 11.0781 117.508 10.7578 117.336 10.4766C117.273 10.3672 117.242 10.2812 117.242 10.2188C117.242 10.1094 117.328 10.0547 117.5 10.0547C117.688 10.0547 117.938 10.1094 118.25 10.2188C118.531 10.3125 118.711 10.4062 118.789 10.5C118.867 10.5938 118.906 10.7188 118.906 10.875L118.859 17.7891L119.844 17.7188C120.25 17.6875 120.57 17.6328 120.805 17.5547C120.898 17.5234 120.969 17.5078 121.016 17.5078C121.203 17.5078 121.422 17.6484 121.672 17.9297C121.938 18.1953 122.07 18.4141 122.07 18.5859C122.07 18.7109 121.906 18.7891 121.578 18.8203L118.836 18.9844V20.3672ZM113.328 27.4219C113.328 27.25 113.391 27.0391 113.516 26.7891C113.984 25.8516 114.43 24.8125 114.852 23.6719C115.273 22.5312 115.484 21.6875 115.484 21.1406C115.484 20.9688 115.477 20.8438 115.461 20.7656C115.445 20.7188 115.438 20.6641 115.438 20.6016C115.438 20.4297 115.523 20.3438 115.695 20.3438C115.93 20.3438 116.195 20.4375 116.492 20.625C116.805 20.7969 116.961 21.0078 116.961 21.2578C116.961 21.4766 116.727 22.1328 116.258 23.2266C115.789 24.3203 115.281 25.3281 114.734 26.25C114.203 27.1562 113.805 27.6094 113.539 27.6094C113.492 27.6094 113.445 27.5938 113.398 27.5625C113.352 27.5156 113.328 27.4688 113.328 27.4219ZM114.172 13.3125C114.172 13.2031 114.266 13.0859 114.453 12.9609C114.656 12.8203 114.82 12.75 114.945 12.75C115.133 12.75 115.391 13.0156 115.719 13.5469C116.047 14.0781 116.352 14.6641 116.633 15.3047C116.93 15.9453 117.078 16.3203 117.078 16.4297C117.078 16.5859 116.953 16.7266 116.703 16.8516C116.469 16.9766 116.273 17.0391 116.117 17.0391C116.023 17.0391 115.945 17.0078 115.883 16.9453C115.82 16.8672 115.758 16.75 115.695 16.5938C115.305 15.5781 114.844 14.6094 114.312 13.6875C114.219 13.5469 114.172 13.4219 114.172 13.3125ZM119.281 16.8984C119.281 16.7891 119.336 16.6328 119.445 16.4297C120.414 14.6328 120.898 13.3203 120.898 12.4922L120.875 12.3516C120.875 12.1953 120.945 12.1172 121.086 12.1172C121.164 12.1328 121.312 12.1875 121.531 12.2812C121.75 12.375 121.953 12.4922 122.141 12.6328C122.344 12.7734 122.445 12.9297 122.445 13.1016C122.445 13.2266 122.227 13.6328 121.789 14.3203C121.367 14.9922 120.922 15.6172 120.453 16.1953C119.984 16.7734 119.641 17.0625 119.422 17.0625C119.328 17.0625 119.281 17.0078 119.281 16.8984ZM121.977 17.4141C121.977 17.3203 122.023 17.2734 122.117 17.2734C122.18 17.2734 122.227 17.2812 122.258 17.2969C122.508 17.3594 122.797 17.3906 123.125 17.3906H123.336L127.156 17.1328L127.133 15.6328L125.539 15.75C125.43 15.7656 125.273 15.7734 125.07 15.7734C124.773 15.7734 124.562 15.7188 124.438 15.6094C124.328 15.5312 124.211 15.4141 124.086 15.2578C123.977 15.1016 123.898 14.9609 123.852 14.8359L123.805 14.6484C123.805 14.5547 123.852 14.5078 123.945 14.5078C124.008 14.5078 124.055 14.5156 124.086 14.5312C124.398 14.6094 124.672 14.6484 124.906 14.6484L125.234 14.625L127.133 14.4844V13.125L124.625 13.2891L124.203 13.3125C123.875 13.3125 123.609 13.2266 123.406 13.0547C123.219 12.8672 123.086 12.6797 123.008 12.4922C122.945 12.2891 122.914 12.1562 122.914 12.0938C122.914 12.0156 122.961 11.9766 123.055 11.9766L123.172 12C123.531 12.0781 123.875 12.1172 124.203 12.1172H124.32L127.109 11.9297V10.9219C127.109 10.4375 127.016 10.0234 126.828 9.67969C126.781 9.58594 126.758 9.51562 126.758 9.46875C126.758 9.35938 126.852 9.30469 127.039 9.30469C127.305 9.30469 127.609 9.35938 127.953 9.46875C128.312 9.5625 128.492 9.78125 128.492 10.125V11.8359L130.438 11.6953C130.625 11.6797 130.922 11.6172 131.328 11.5078L131.445 11.4844C131.602 11.4844 131.836 11.5938 132.148 11.8125C132.461 12.0156 132.617 12.2188 132.617 12.4219C132.617 12.5156 132.57 12.5938 132.477 12.6562C132.398 12.7188 132.281 12.7578 132.125 12.7734L128.492 13.0312L128.469 14.3906L129.852 14.2969C130.117 14.2812 130.391 14.2188 130.672 14.1094C130.703 14.0938 130.75 14.0859 130.812 14.0859C130.969 14.0859 131.18 14.1953 131.445 14.4141C131.727 14.6328 131.867 14.8359 131.867 15.0234C131.867 15.1953 131.711 15.2969 131.398 15.3281L128.469 15.5391V17.0625L132.664 16.7812C132.992 16.7656 133.281 16.7031 133.531 16.5938C133.562 16.5781 133.609 16.5703 133.672 16.5703C133.828 16.5703 134.078 16.7109 134.422 16.9922C134.656 17.1953 134.773 17.3828 134.773 17.5547C134.773 17.6641 134.727 17.75 134.633 17.8125C134.555 17.875 134.445 17.9141 134.305 17.9297L123.758 18.6094C123.602 18.625 123.406 18.6328 123.172 18.6328C122.922 18.6328 122.727 18.5781 122.586 18.4688C122.445 18.3438 122.258 18.0469 122.023 17.5781C121.992 17.4844 121.977 17.4297 121.977 17.4141ZM122 30.4219C122 30.2188 122.062 30.0391 122.188 29.8828C122.719 29.0703 123.133 28.3203 123.43 27.6328C123.727 26.9453 123.953 26.1406 124.109 25.2188C124.266 24.2812 124.344 23.1172 124.344 21.7266C124.344 21.1016 124.336 20.6719 124.32 20.4375C124.305 20.2031 124.258 20.0156 124.18 19.875C124.086 19.7188 124.039 19.6016 124.039 19.5234C124.039 19.4922 124.055 19.4609 124.086 19.4297C124.133 19.3984 124.188 19.3828 124.25 19.3828C124.594 19.3828 124.992 19.4844 125.445 19.6875L130.977 19.3828H131.141C131.375 19.3828 131.594 19.4531 131.797 19.5938C132.016 19.7344 132.125 19.9219 132.125 20.1562C132.125 20.2344 132.109 20.3203 132.078 20.4141C132.062 20.4922 132.055 20.5781 132.055 20.6719L132.125 28.7344C132.125 28.875 132.133 29.0078 132.148 29.1328C132.164 29.2578 132.172 29.3672 132.172 29.4609C132.172 29.7266 132.055 29.9766 131.82 30.2109C131.602 30.4453 131.391 30.5625 131.188 30.5625C130.969 30.5625 130.562 30.3906 129.969 30.0469C129.391 29.7031 128.844 29.3281 128.328 28.9219C127.828 28.5312 127.578 28.2578 127.578 28.1016C127.578 28.0078 127.648 27.9609 127.789 27.9609C127.883 27.9609 128.047 28 128.281 28.0781C129.109 28.4219 129.922 28.6875 130.719 28.875L130.695 25.8984L125.258 26.1328C125.039 26.9609 124.742 27.7109 124.367 28.3828C123.992 29.0547 123.602 29.5781 123.195 29.9531C122.789 30.3438 122.445 30.5469 122.164 30.5625H122.117C122.039 30.5625 122 30.5156 122 30.4219ZM130.695 24.6797V23.1797L125.656 23.4375L125.516 24.9141L130.695 24.6797ZM130.672 22.0078V20.6484L125.727 20.9297L125.703 22.2656L130.672 22.0078Z" fill="#FA760A"/>
<path d="M175.789 16.4531C175.695 16.4531 175.57 16.3516 175.414 16.1484C175.258 15.9297 175.188 15.7422 175.203 15.5859C175.234 15.4609 175.258 15.1094 175.273 14.5312C175.289 14.1406 175.297 13.4531 175.297 12.4688C175.297 11.7812 175.289 11.3203 175.273 11.0859L174.5 11.1562C173.953 11.2344 173.484 11.2734 173.094 11.2734C172.984 11.2734 172.828 11.1875 172.625 11.0156C172.422 10.8438 172.32 10.7188 172.32 10.6406C172.32 10.5156 172.453 10.4688 172.719 10.5C172.891 10.5156 173.398 10.5078 174.242 10.4766C175.398 10.3984 176.234 10.3516 176.75 10.3359C177.016 10.3203 177.258 10.2969 177.477 10.2656C177.711 10.2188 177.875 10.1875 177.969 10.1719C178.109 10.1562 178.234 10.1719 178.344 10.2188C178.453 10.2656 178.555 10.3281 178.648 10.4062C178.758 10.4688 178.844 10.5156 178.906 10.5469C179.047 10.6406 179.117 10.7266 179.117 10.8047C179.117 10.8672 179.078 10.9297 179 10.9922C178.938 11.0391 178.867 11.0625 178.789 11.0625C178.711 11.0625 178.602 11.0547 178.461 11.0391C178.336 11.0234 178.195 11.0156 178.039 11.0156C177.461 11.0156 176.867 11.0312 176.258 11.0625C176.242 11.1875 176.234 11.5 176.234 12C176.203 12.8438 176.188 13.6719 176.188 14.4844V15.3984V15.6094C176.188 15.875 176.164 16.0469 176.117 16.125C175.977 16.3438 175.867 16.4531 175.789 16.4531ZM173.797 22.1953C173.281 22.0078 173.039 21.8047 173.07 21.5859C173.164 20.9297 173.211 20.1797 173.211 19.3359C173.211 18.9609 173.203 18.6875 173.188 18.5156C173.172 18.3125 173.156 18.1406 173.141 18C173.125 17.8438 173.125 17.7578 173.141 17.7422C173.203 17.6797 173.281 17.6484 173.375 17.6484C173.516 17.6484 173.688 17.7109 173.891 17.8359C174.109 17.9609 174.219 18.0859 174.219 18.2109C174.219 18.2891 174.211 18.3672 174.195 18.4453C174.18 18.5078 174.172 18.5781 174.172 18.6562L174.031 20.9766C174.031 21.1016 174.078 21.1797 174.172 21.2109H174.289C174.414 21.2109 174.5 21.2031 174.547 21.1875L177.57 20.7656V20.1562C177.57 19.3906 177.555 18.7969 177.523 18.375C177.508 18.0156 177.469 17.7266 177.406 17.5078C177.359 17.2578 177.422 17.1328 177.594 17.1328C177.719 17.1328 177.883 17.1797 178.086 17.2734C178.336 17.3984 178.484 17.5078 178.531 17.6016C178.578 17.6797 178.594 17.8047 178.578 17.9766C178.547 18.2578 178.531 18.6797 178.531 19.2422L178.555 21.0234C178.555 21.3984 178.484 21.6953 178.344 21.9141C178.266 22.0078 178.188 22.0547 178.109 22.0547C178.031 22.0547 177.922 21.9844 177.781 21.8438C177.75 21.8125 177.711 21.7656 177.664 21.7031C177.617 21.6406 177.57 21.6016 177.523 21.5859C177.477 21.5703 177.414 21.5625 177.336 21.5625C176.977 21.5938 176.109 21.7109 174.734 21.9141C174.5 21.9453 174.312 22.0078 174.172 22.1016C174.016 22.1797 173.914 22.2188 173.867 22.2188L173.797 22.1953ZM176.773 25.8281C176.617 26.0312 176.453 26.1328 176.281 26.1328C176.234 26.1328 176.211 26.0938 176.211 26.0156C176.211 25.9062 176.242 25.7812 176.305 25.6406C176.305 25.6406 176.461 25.3281 176.773 24.7031C176.789 24.6406 176.812 24.5781 176.844 24.5156C176.875 24.4531 176.898 24.3984 176.914 24.3516V24.3281C176.914 24.2969 176.891 24.2656 176.844 24.2344C176.797 24.2031 176.742 24.1953 176.68 24.2109C176.43 24.2266 176.055 24.2656 175.555 24.3281C175.07 24.3906 174.711 24.4531 174.477 24.5156C174.383 24.5469 174.266 24.5859 174.125 24.6328C174 24.6797 173.898 24.7031 173.82 24.7031C173.539 24.7031 173.305 24.6172 173.117 24.4453C172.961 24.3359 172.844 24.2266 172.766 24.1172L172.719 24C172.719 23.9219 172.852 23.8984 173.117 23.9297C173.477 23.9609 174.219 23.9141 175.344 23.7891L175.812 23.7188C175.938 23.7031 176.133 23.6797 176.398 23.6484C176.68 23.6016 176.898 23.5547 177.055 23.5078C177.102 23.4922 177.148 23.4766 177.195 23.4609C177.258 23.4297 177.312 23.4141 177.359 23.4141C177.438 23.4141 177.531 23.4531 177.641 23.5312C177.766 23.6094 177.867 23.6797 177.945 23.7422C178.055 23.8203 178.125 23.8906 178.156 23.9531C178.203 24 178.219 24.0625 178.203 24.1406C178.203 24.2188 178.164 24.2891 178.086 24.3516C178.008 24.4141 177.953 24.4609 177.922 24.4922C177.891 24.5391 177.781 24.6562 177.594 24.8438C177.516 24.9688 177.375 25.1406 177.172 25.3594C176.984 25.5781 176.852 25.7344 176.773 25.8281ZM175.602 30.4453C175.602 30.3984 175.68 30.2734 175.836 30.0703C176.008 29.8828 176.141 29.7344 176.234 29.625C176.469 29.3125 176.75 28.8594 177.078 28.2656C177.422 27.6719 177.617 27.2812 177.664 27.0938C177.695 27 177.648 26.9531 177.523 26.9531C177.273 26.9531 176.586 27.0234 175.461 27.1641C174.727 27.2578 174.18 27.3516 173.82 27.4453C173.742 27.4922 173.664 27.5156 173.586 27.5156C173.461 27.5156 173.328 27.4297 173.188 27.2578C173.125 27.1484 173.094 27.0469 173.094 26.9531C173.094 26.8906 173.133 26.8281 173.211 26.7656L173.281 26.6719C173.328 26.5781 173.383 26.4531 173.445 26.2969C173.508 26.1406 173.562 25.9922 173.609 25.8516C173.688 25.6016 173.742 25.3281 173.773 25.0312C173.789 24.8594 173.883 24.8125 174.055 24.8906C174.273 25 174.438 25.1094 174.547 25.2188C174.672 25.3125 174.711 25.3828 174.664 25.4297C174.508 25.6172 174.383 25.8281 174.289 26.0625C174.211 26.3125 174.164 26.4766 174.148 26.5547C174.148 26.6172 174.188 26.6484 174.266 26.6484C174.5 26.6484 174.852 26.6094 175.32 26.5312C175.586 26.5 175.914 26.4609 176.305 26.4141C176.695 26.3672 177.008 26.3203 177.242 26.2734L177.828 26.1562C177.875 26.1406 177.938 26.1328 178.016 26.1328C178.094 26.1328 178.172 26.1641 178.25 26.2266C178.328 26.2734 178.414 26.3359 178.508 26.4141C178.664 26.5547 178.766 26.6719 178.812 26.7656C178.859 26.8438 178.883 26.9375 178.883 27.0469C178.883 27.1094 178.836 27.1875 178.742 27.2812C178.664 27.375 178.57 27.5234 178.461 27.7266C178.008 28.6484 177.422 29.4219 176.703 30.0469C176.5 30.2031 176.273 30.3359 176.023 30.4453C175.914 30.4766 175.812 30.4922 175.719 30.4922C175.641 30.5078 175.602 30.4922 175.602 30.4453ZM183.195 21.1641C183.242 21.1641 183.289 21.1875 183.336 21.2344C183.383 21.2656 183.414 21.3125 183.43 21.375V21.4219C183.43 21.5312 183.344 21.7422 183.172 22.0547L181.484 24.9844C181.359 25.25 181.195 25.3828 180.992 25.3828C180.789 25.3828 180.617 25.2578 180.477 25.0078C180.336 24.8047 180.164 24.5 179.961 24.0938C179.867 23.9531 179.789 23.8125 179.727 23.6719C179.664 23.5312 179.617 23.4297 179.586 23.3672C179.414 23.0703 179.328 22.8594 179.328 22.7344C179.328 22.6719 179.352 22.625 179.398 22.5938C179.445 22.5469 179.492 22.5234 179.539 22.5234C179.711 22.5234 179.867 22.6172 180.008 22.8047C180.117 22.9141 180.203 23.0312 180.266 23.1562L180.523 23.5078L180.992 24.0469L181.203 23.7188C181.422 23.3438 181.938 22.6016 182.75 21.4922C182.922 21.2734 183.07 21.1641 183.195 21.1641ZM169.461 30.4453C167.648 30.4453 165.453 30.2344 162.875 29.8125C160.312 29.3906 157.609 28.8828 154.766 28.2891C153.859 28.1016 153.133 28.0078 152.586 28.0078C151.82 28.0078 151.008 28.1484 150.148 28.4297C150.008 28.4766 149.883 28.5 149.773 28.5C149.383 28.5 149.188 28.1641 149.188 27.4922C149.188 27.3359 149.234 27.2188 149.328 27.1406C149.438 27.0625 149.617 27 149.867 26.9531C150.133 26.8906 150.547 26.8281 151.109 26.7656C152.047 25.9219 152.922 25 153.734 24C153.766 23.9375 153.781 23.8984 153.781 23.8828C153.781 23.7891 153.609 23.6094 153.266 23.3438C152.938 23.0625 152.539 22.7656 152.07 22.4531C151.664 22.1875 151.461 21.8828 151.461 21.5391C151.461 21.3203 151.578 21.0156 151.812 20.625C152.062 20.2188 152.578 19.4609 153.359 18.3516L151.156 18.6328L150.664 18.6797C150.336 18.6797 150.062 18.5547 149.844 18.3047C149.625 18.0547 149.484 17.8047 149.422 17.5547C149.406 17.5234 149.398 17.4766 149.398 17.4141C149.398 17.3047 149.445 17.25 149.539 17.25L149.68 17.2734C149.914 17.3203 150.148 17.3438 150.383 17.3438C150.539 17.3438 150.656 17.3359 150.734 17.3203L154.25 16.9453L154.484 16.9219C154.688 16.9219 154.891 17.0078 155.094 17.1797C155.297 17.3516 155.398 17.5234 155.398 17.6953C155.398 17.8359 155.336 17.9688 155.211 18.0938C155.086 18.2031 155.008 18.2812 154.977 18.3281C154.945 18.375 154.578 18.8594 153.875 19.7812C153.172 20.6875 152.82 21.2031 152.82 21.3281C152.82 21.3906 152.859 21.4453 152.938 21.4922C153.859 22.0859 154.477 22.5469 154.789 22.875C155.117 23.2031 155.281 23.5234 155.281 23.8359C155.281 24.1016 155.125 24.4375 154.812 24.8438C154.516 25.25 153.906 25.8672 152.984 26.6953C153.531 26.7109 154.195 26.7969 154.977 26.9531C157.539 27.4531 160.203 27.9062 162.969 28.3125C165.734 28.7188 168.125 28.9219 170.141 28.9219H170.258C170.617 28.9219 170.797 28.9922 170.797 29.1328C170.781 29.2109 170.727 29.3516 170.633 29.5547C170.539 29.7578 170.398 29.9531 170.211 30.1406C170.039 30.3438 169.836 30.4453 169.602 30.4453H169.461ZM150.828 11.5078C150.828 11.3828 150.93 11.2422 151.133 11.0859C151.336 10.9297 151.5 10.8516 151.625 10.8516C151.766 10.8516 152.133 11.125 152.727 11.6719C153.32 12.2188 153.883 12.7969 154.414 13.4062C154.945 14.0156 155.211 14.4062 155.211 14.5781C155.211 14.7344 155.102 14.9219 154.883 15.1406C154.68 15.3594 154.477 15.4688 154.273 15.4688C154.102 15.4688 153.914 15.3203 153.711 15.0234C152.992 13.9922 152.125 12.9766 151.109 11.9766C150.922 11.7891 150.828 11.6328 150.828 11.5078ZM155.422 22.6875C155.422 22.6562 155.43 22.625 155.445 22.5938C155.477 22.5625 155.508 22.5547 155.539 22.5703L155.633 22.5938C155.945 22.6719 156.312 22.7109 156.734 22.7109H156.945L159.617 22.5938L159.594 20.7891L157.836 20.8828H157.602C157.227 20.8828 156.977 20.8359 156.852 20.7422C156.445 20.4297 156.242 20.125 156.242 19.8281C156.242 19.7344 156.289 19.6875 156.383 19.6875C156.445 19.6875 156.492 19.6953 156.523 19.7109C156.742 19.7578 157.047 19.7812 157.438 19.7812H157.719L159.57 19.6875V19.2422C159.57 18.7578 159.453 18.3672 159.219 18.0703C159.188 18.0078 159.172 17.9688 159.172 17.9531C159.172 17.875 159.273 17.8359 159.477 17.8359C159.836 17.8359 160.164 17.9062 160.461 18.0469C160.758 18.1875 160.906 18.3281 160.906 18.4688V19.5938L163.648 19.4531L163.672 18.9609V18.7734C163.672 18.2578 163.602 17.8906 163.461 17.6719C163.43 17.625 163.414 17.5781 163.414 17.5312C163.414 17.4531 163.484 17.4141 163.625 17.4141C163.828 17.4141 164.125 17.4922 164.516 17.6484C164.906 17.7891 165.102 17.9766 165.102 18.2109V18.2344L165.031 19.3828L166.25 19.3125C166.641 19.2969 166.992 19.2422 167.305 19.1484C167.43 19.1172 167.516 19.1016 167.562 19.1016C167.766 19.1016 167.977 19.2266 168.195 19.4766C168.43 19.7266 168.547 19.9219 168.547 20.0625C168.547 20.1875 168.414 20.2656 168.148 20.2969L164.961 20.4844L164.867 22.3359L167.609 22.2188C167.984 22.2031 168.344 22.1406 168.688 22.0312C168.828 21.9844 168.945 21.9609 169.039 21.9609C169.195 21.9609 169.352 22.0312 169.508 22.1719C169.664 22.2969 169.797 22.4453 169.906 22.6172C170.016 22.7734 170.07 22.8906 170.07 22.9688C170.07 23.125 169.922 23.2188 169.625 23.25L156.922 23.8359H156.617C156.055 23.8359 155.664 23.5 155.445 22.8281C155.43 22.7969 155.422 22.75 155.422 22.6875ZM155.984 26.8594C155.984 26.7344 156.125 26.6172 156.406 26.5078C157.391 26.1016 158.25 25.6875 158.984 25.2656C159.719 24.8281 160.141 24.4766 160.25 24.2109C160.328 24.0234 160.414 23.9297 160.508 23.9297C160.633 23.9297 160.797 24.1016 161 24.4453C161.219 24.7891 161.328 25.0703 161.328 25.2891C161.328 25.4609 161.25 25.5859 161.094 25.6641C160.422 25.9922 159.742 26.2578 159.055 26.4609C158.383 26.6641 157.797 26.8125 157.297 26.9062C156.812 27 156.516 27.0469 156.406 27.0469C156.281 27.0469 156.18 27.0312 156.102 27C156.023 26.9531 155.984 26.9062 155.984 26.8594ZM156.641 10.6406C156.641 10.5469 156.703 10.5 156.828 10.5C157.062 10.5 157.445 10.6172 157.977 10.8516L160.508 10.6172L160.742 10.5938C161.039 10.5938 161.25 10.6875 161.375 10.875C161.516 11.0625 161.586 11.2031 161.586 11.2969C161.586 11.375 161.562 11.4609 161.516 11.5547C161.484 11.6484 161.461 11.7344 161.445 11.8125L161.211 13.5469C161.539 13.9219 161.703 14.1797 161.703 14.3203C161.703 14.3984 161.656 14.4531 161.562 14.4844C161.484 14.5156 161.344 14.5391 161.141 14.5547L158.094 14.7656L158.07 16.5938C159.617 16.125 160.648 15.8203 161.164 15.6797C161.258 15.6641 161.352 15.6406 161.445 15.6094C161.539 15.5625 161.609 15.5391 161.656 15.5391C161.797 15.5391 161.867 15.6094 161.867 15.75C161.867 15.8594 161.688 16.0312 161.328 16.2656C160.969 16.4844 160.516 16.7266 159.969 16.9922C159.594 17.1641 159.125 17.3906 158.562 17.6719C158.312 17.7969 158.086 17.9062 157.883 18C157.68 18.0938 157.531 18.1406 157.438 18.1406C157.344 18.1406 157.227 18.0859 157.086 17.9766C156.945 17.8516 156.836 17.7109 156.758 17.5547C156.695 17.3828 156.695 17.25 156.758 17.1562C156.867 16.9844 156.922 16.2969 156.922 15.0938L156.945 12.0469C156.945 11.625 156.875 11.2656 156.734 10.9688C156.672 10.8125 156.641 10.7031 156.641 10.6406ZM160.109 13.6406L160.273 11.7422L158.094 11.9297V13.7812L160.109 13.6406ZM163.531 22.4062L163.602 20.5547L160.906 20.6953V22.5234L163.531 22.4062ZM162.711 10.3828C162.711 10.2891 162.773 10.2422 162.898 10.2422C163.133 10.2422 163.516 10.3594 164.047 10.5938L166.695 10.3828H166.883C167.039 10.3828 167.227 10.4453 167.445 10.5703C167.664 10.6797 167.773 10.8281 167.773 11.0156C167.773 11.0938 167.75 11.1953 167.703 11.3203C167.672 11.4297 167.648 11.5156 167.633 11.5781L167.398 13.3125C167.727 13.6875 167.891 13.9531 167.891 14.1094C167.891 14.1875 167.852 14.2422 167.773 14.2734C167.695 14.2891 167.547 14.3047 167.328 14.3203L164.164 14.5312V15.5391C164.164 15.7578 164.203 15.9141 164.281 16.0078C164.359 16.0859 164.531 16.1328 164.797 16.1484L165.219 16.1719C165.781 16.1719 166.25 16.1484 166.625 16.1016C166.953 16.0547 167.234 15.9531 167.469 15.7969C167.5 15.7812 167.555 15.7734 167.633 15.7734C167.805 15.7422 168.031 15.8203 168.312 16.0078C168.609 16.1953 168.766 16.375 168.781 16.5469V16.5703C168.781 16.7422 168.633 16.8672 168.336 16.9453C167.711 17.1172 167.266 17.2109 167 17.2266C166.438 17.2734 165.805 17.2969 165.102 17.2969C164.289 17.2969 163.734 17.1797 163.438 16.9453C163.156 16.7109 163.016 16.3125 163.016 15.75V11.7891C163.016 11.3672 162.945 11.0078 162.805 10.7109C162.742 10.5547 162.711 10.4453 162.711 10.3828ZM163.133 24.7734C163.133 24.6953 163.188 24.5469 163.297 24.3281C163.422 24.1094 163.57 24 163.742 24C163.883 24 164.391 24.2422 165.266 24.7266C166.156 25.2109 166.984 25.6953 167.75 26.1797C168.062 26.3672 168.219 26.5547 168.219 26.7422C168.219 26.8359 168.148 27.0078 168.008 27.2578C167.883 27.5078 167.727 27.6328 167.539 27.6328C167.414 27.6328 167.242 27.5547 167.023 27.3984C166.008 26.7109 164.852 26.0078 163.555 25.2891C163.273 25.1172 163.133 24.9453 163.133 24.7734ZM166.297 13.4062L166.461 11.5078L164.164 11.6719V13.5469L166.297 13.4062Z" fill="#FA760A"/>
<path d="M212.188 16.8984C211.938 16.8984 211.789 16.7734 211.742 16.5234C211.648 16.2578 211.398 15.9297 210.992 15.5391L211.062 15.4453C211.125 15.4766 211.305 15.5547 211.602 15.6797C211.898 15.7891 212.102 15.8438 212.211 15.8438C212.305 15.8438 212.375 15.8438 212.422 15.8438C212.469 15.8281 212.523 15.7891 212.586 15.7266C212.773 15.5859 213.008 15.2656 213.289 14.7656C213.492 14.3594 213.672 13.8828 213.828 13.3359C214 12.7891 214.086 12.375 214.086 12.0938C214.086 12.0156 214.023 11.9766 213.898 11.9766L213.008 12.0234L212.398 12.0703L212 12.0938L211.836 12.1172C211.945 12.1953 212.016 12.2656 212.047 12.3281C212.094 12.375 212.117 12.4375 212.117 12.5156C212.117 12.5938 212.023 12.8125 211.836 13.1719C211.68 13.5156 211.43 13.9062 211.086 14.3438C210.805 14.7188 210.422 15.125 209.938 15.5625C209.469 15.9844 209.117 16.2031 208.883 16.2188C208.836 16.2188 208.789 16.2109 208.742 16.1953C208.711 16.1641 208.695 16.125 208.695 16.0781C208.695 16.0625 208.82 15.9141 209.07 15.6328L209.727 14.8594C210.195 14.2344 210.672 13.4375 211.156 12.4688C211.203 12.3438 211.18 12.2734 211.086 12.2578C210.992 12.2734 210.797 12.2969 210.5 12.3281C210.203 12.3438 209.938 12.3906 209.703 12.4688C209.688 12.4688 209.633 12.4922 209.539 12.5391C209.445 12.5703 209.367 12.5859 209.305 12.5859C209.211 12.5859 209.133 12.5547 209.07 12.4922L208.883 12.3281C208.742 12.2188 208.672 12.1172 208.672 12.0234C208.672 11.9922 208.688 11.9453 208.719 11.8828L208.836 11.6953C208.898 11.6172 209 11.4922 209.141 11.3203C209.281 11.1484 209.438 10.9141 209.609 10.6172C209.641 10.5547 209.703 10.4141 209.797 10.1953C209.906 9.97656 209.961 9.84375 209.961 9.79688V9.70312C209.961 9.60938 209.977 9.54688 210.008 9.51562C210.039 9.48438 210.109 9.48438 210.219 9.51562C210.328 9.54688 210.461 9.63281 210.617 9.77344L210.875 10.0312C210.922 10.0781 210.945 10.1328 210.945 10.1953C210.945 10.3516 210.727 10.6328 210.289 11.0391C210.211 11.1172 210.117 11.2344 210.008 11.3906C209.898 11.5469 209.844 11.6484 209.844 11.6953C209.844 11.7891 209.914 11.8203 210.055 11.7891L210.594 11.7188C211.828 11.5312 212.758 11.4219 213.383 11.3906L214.016 11.2969L214.227 11.25L214.344 11.2266C214.469 11.2266 214.555 11.2422 214.602 11.2734C214.648 11.3047 214.695 11.3594 214.742 11.4375C214.789 11.5 214.836 11.5547 214.883 11.6016C214.992 11.7266 215.07 11.8359 215.117 11.9297L215.164 12.1406L215.117 12.2344L215.07 12.375C215.039 12.4531 215.016 12.5312 215 12.6094C214.984 12.6719 214.961 12.7422 214.93 12.8203C214.602 14.0859 214.219 15.0703 213.781 15.7734C213.641 16.0234 213.398 16.2734 213.055 16.5234C212.727 16.7734 212.438 16.8984 212.188 16.8984ZM214.32 22.9453C214.086 22.9453 213.859 22.7734 213.641 22.4297C213.359 21.9922 213.086 21.6328 212.82 21.3516L212.211 20.7188C211.883 21.0938 211.594 21.3906 211.344 21.6094C211.109 21.8281 210.812 22.0391 210.453 22.2422C209.781 22.6328 209.219 22.8281 208.766 22.8281C208.656 22.8281 208.602 22.7891 208.602 22.7109C208.602 22.6641 208.75 22.5625 209.047 22.4062C209.344 22.25 209.625 22.0625 209.891 21.8438C210.562 21.2812 211.117 20.7031 211.555 20.1094C211.461 20.0156 210.992 19.6094 210.148 18.8906C210.039 18.8125 209.875 18.6797 209.656 18.4922C209.609 18.4609 209.516 18.3906 209.375 18.2812C209.234 18.1719 209.164 18.0938 209.164 18.0469C209.164 17.9688 209.203 17.9297 209.281 17.9297C209.516 17.9297 209.891 18.0938 210.406 18.4219C210.922 18.7344 211.461 19.1094 212.023 19.5469C212.242 19.2812 212.414 19.0312 212.539 18.7969C212.664 18.5625 212.805 18.2734 212.961 17.9297C213.039 17.7578 213.086 17.6094 213.102 17.4844C213.117 17.3438 213.125 17.2578 213.125 17.2266C213.125 17.0547 213.172 16.9688 213.266 16.9688C213.375 16.9688 213.523 17.0547 213.711 17.2266C214.039 17.5391 214.203 17.75 214.203 17.8594C214.203 17.9219 214.164 17.9922 214.086 18.0703C213.898 18.2578 213.727 18.5078 213.57 18.8203C213.477 19.0078 213.305 19.2734 213.055 19.6172C212.977 19.7109 212.914 19.7969 212.867 19.875C212.82 19.9531 212.773 20.0234 212.727 20.0859C213.086 20.3516 213.617 20.8047 214.32 21.4453C214.492 21.6016 214.602 21.75 214.648 21.8906C214.711 22.0156 214.742 22.1875 214.742 22.4062C214.742 22.5625 214.703 22.6953 214.625 22.8047C214.547 22.8984 214.445 22.9453 214.32 22.9453ZM209.141 29.9531C208.906 29.9531 208.727 29.8906 208.602 29.7656C208.461 29.625 208.391 29.5 208.391 29.3906C208.391 29.2812 208.453 29.1641 208.578 29.0391C208.594 29.0234 208.68 28.8984 208.836 28.6641C209.18 28.1172 209.57 27.4219 210.008 26.5781C210.461 25.7188 210.742 25.1328 210.852 24.8203C210.945 24.5234 211.031 24.2656 211.109 24.0469C211.203 23.8281 211.281 23.7188 211.344 23.7188C211.453 23.7188 211.547 23.7578 211.625 23.8359C211.703 23.8984 211.781 23.9922 211.859 24.1172C211.953 24.2266 212.023 24.3047 212.07 24.3516C212.18 24.4766 212.234 24.5938 212.234 24.7031C212.234 24.7812 212.203 24.8594 212.141 24.9375C212.078 25.0156 212.039 25.0703 212.023 25.1016L210.992 26.8359C210.727 27.3203 210.375 27.9219 209.938 28.6406C209.875 28.7188 209.844 28.7969 209.844 28.875C209.844 28.9375 209.914 28.9688 210.055 28.9688C210.352 28.9688 210.906 28.9297 211.719 28.8516C212.531 28.7891 213.078 28.7344 213.359 28.6875C213.766 28.6406 214.047 28.5938 214.203 28.5469C214.375 28.5 214.625 28.6172 214.953 28.8984C215.344 29.2266 215.43 29.4375 215.211 29.5312C215.086 29.5938 214.844 29.625 214.484 29.625H213.547C213.344 29.625 213.023 29.6406 212.586 29.6719C212.32 29.6719 212.023 29.6797 211.695 29.6953C211.367 29.7109 211.094 29.7266 210.875 29.7422C210.625 29.7578 210.141 29.8047 209.422 29.8828L209.141 29.9531ZM216.102 21.4922C216.18 21.4922 216.297 21.5469 216.453 21.6562C216.438 21.6875 216.469 21.75 216.547 21.8438C216.625 21.9219 216.68 21.9766 216.711 22.0078C216.789 22.0859 216.867 22.1797 216.945 22.2891C217.039 22.3984 217.141 22.5156 217.25 22.6406C217.531 22.9375 218.18 23.7109 219.195 24.9609C219.367 25.2109 219.453 25.3594 219.453 25.4062C219.453 25.5625 219.359 25.6406 219.172 25.6406C219.062 25.6406 218.945 25.5625 218.82 25.4062C218.523 25.0938 217.992 24.6016 217.227 23.9297C216.633 23.3828 216.094 22.9609 215.609 22.6641C215.375 22.5547 215.258 22.4297 215.258 22.2891C215.258 22.1797 215.375 22.0234 215.609 21.8203C215.828 21.6016 215.992 21.4922 216.102 21.4922ZM192.336 27.3516C193.68 27.1172 195.008 26.8672 196.32 26.6016L196.719 26.5547C197 26.5547 197.141 26.625 197.141 26.7656C197.141 26.9375 196.922 27.1016 196.484 27.2578C195 27.7422 193.508 28.1797 192.008 28.5703C190.508 28.9609 189.219 29.2656 188.141 29.4844C187.062 29.7188 186.43 29.8359 186.242 29.8359C185.805 29.8359 185.383 29.3438 184.977 28.3594L184.953 28.2656C184.953 28.1719 185.016 28.125 185.141 28.125H185.188C185.594 28.1562 185.867 28.1719 186.008 28.1719C186.445 28.1719 187.188 28.1094 188.234 27.9844C189.281 27.8438 190.211 27.7031 191.023 27.5625V25.7344L188.469 25.8516L187.906 25.875C187.5 25.875 187.234 25.8047 187.109 25.6641C187.047 25.6016 186.945 25.4609 186.805 25.2422C186.664 25.0078 186.594 24.8203 186.594 24.6797C186.594 24.5703 186.641 24.5156 186.734 24.5156L186.875 24.5391C187.125 24.6172 187.414 24.6562 187.742 24.6562H187.953L191.047 24.4922V23.1094L188.773 23.1797V23.3906C188.773 23.6562 188.664 23.7891 188.445 23.7891C188.305 23.7891 188.148 23.7578 187.977 23.6953C187.586 23.5859 187.391 23.3359 187.391 22.9453V22.875C187.406 22.75 187.414 22.5859 187.414 22.3828C187.414 22.1641 187.406 22 187.391 21.8906L187.039 18.1875C187.023 17.9062 186.938 17.6172 186.781 17.3203C186.703 17.1328 186.664 17.0078 186.664 16.9453C186.664 16.8516 186.734 16.8047 186.875 16.8047C187.062 16.8047 187.531 16.9219 188.281 17.1562L191.07 16.9922V15.7031L187.156 15.9375H186.805C186.633 15.9375 186.5 15.9297 186.406 15.9141C186.312 15.8828 186.227 15.8281 186.148 15.75C185.789 15.3438 185.609 15.0156 185.609 14.7656C185.609 14.6719 185.648 14.625 185.727 14.625C185.789 14.625 185.836 14.6328 185.867 14.6484C186.07 14.7109 186.359 14.7422 186.734 14.7422H187.016L191.094 14.4844V13.1953C190.047 13.3984 188.797 13.5781 187.344 13.7344L187.086 13.7578C186.914 13.7578 186.773 13.7344 186.664 13.6875C186.57 13.6406 186.523 13.5781 186.523 13.5C186.523 13.4219 186.586 13.3438 186.711 13.2656C186.836 13.1875 187.008 13.125 187.227 13.0781C189.93 12.5156 192.312 11.7812 194.375 10.875C194.703 10.7344 194.961 10.5234 195.148 10.2422C195.211 10.1328 195.289 10.0781 195.383 10.0781C195.539 10.0781 195.734 10.2656 195.969 10.6406C196.203 11.0156 196.32 11.3281 196.32 11.5781C196.32 11.7656 196.242 11.8828 196.086 11.9297C194.945 12.3047 193.727 12.6406 192.43 12.9375L192.406 14.4141L195.898 14.2031C196.211 14.1406 196.469 14.0781 196.672 14.0156C196.734 13.9844 196.797 13.9688 196.859 13.9688C197.016 13.9688 197.266 14.0938 197.609 14.3438C197.953 14.5938 198.125 14.8047 198.125 14.9766C198.125 15.1797 197.938 15.2969 197.562 15.3281L192.406 15.6328V16.9219L195.5 16.7578H195.664C195.945 16.7578 196.188 16.8281 196.391 16.9688C196.594 17.1094 196.695 17.2734 196.695 17.4609C196.695 17.5234 196.672 17.6016 196.625 17.6953C196.594 17.7891 196.57 17.8594 196.555 17.9062L196.062 21.8906C196.406 22.2344 196.578 22.4844 196.578 22.6406C196.578 22.7344 196.523 22.8047 196.414 22.8516C196.32 22.8828 196.172 22.9062 195.969 22.9219L192.359 23.0625V24.4219L194.398 24.3281C194.664 24.3125 194.992 24.25 195.383 24.1406C195.414 24.125 195.453 24.1172 195.5 24.1172C195.703 24.1172 195.969 24.2422 196.297 24.4922C196.625 24.7422 196.789 24.9609 196.789 25.1484C196.789 25.3359 196.617 25.4453 196.273 25.4766L192.359 25.6641L192.336 27.3516ZM188.422 19.5703L191.07 19.4531V18.1172L188.305 18.2578L188.422 19.5703ZM188.656 22.0547L191.047 21.9844V20.5078L188.516 20.625L188.656 22.0547ZM194.82 21.8438L194.961 20.3438L192.383 20.4609V21.9375L194.82 21.8438ZM195.055 19.2656L195.195 17.9062L192.406 18.0469L192.383 19.3828L195.055 19.2656ZM195.453 30.2344C195.453 30.0938 195.539 29.9141 195.711 29.6953C197.133 27.8828 198.18 26.0078 198.852 24.0703C199.539 22.1172 200 19.9219 200.234 17.4844L198.992 17.5547L198.289 17.5781C198.102 17.5781 197.961 17.5547 197.867 17.5078C197.617 17.3359 197.422 17.125 197.281 16.875C197.141 16.625 197.07 16.4453 197.07 16.3359C197.07 16.2422 197.125 16.1953 197.234 16.1953L197.375 16.2188C197.625 16.2812 197.93 16.3125 198.289 16.3125H198.57L200.352 16.1953C200.445 14.8047 200.492 13.1406 200.492 11.2031C200.492 10.7344 200.406 10.3672 200.234 10.1016C200.188 10.0078 200.164 9.92969 200.164 9.86719C200.164 9.75781 200.266 9.70312 200.469 9.70312C200.75 9.70312 201.07 9.76562 201.43 9.89062C201.789 10 201.969 10.2266 201.969 10.5703V11.4141C201.969 13.0391 201.922 14.6016 201.828 16.1016L204.453 15.9141H204.617C204.836 15.9141 205.078 15.9844 205.344 16.125C205.609 16.25 205.742 16.4375 205.742 16.6875C205.742 16.7812 205.711 16.8906 205.648 17.0156C205.602 17.1406 205.578 17.2266 205.578 17.2734C205.484 21.0547 205.234 24.3516 204.828 27.1641C204.688 28.1484 204.508 28.9297 204.289 29.5078C204.07 30.0859 203.688 30.375 203.141 30.375C202.844 30.375 202.406 30.1719 201.828 29.7656C201.266 29.3594 200.742 28.9141 200.258 28.4297C199.773 27.9453 199.531 27.625 199.531 27.4688C199.531 27.375 199.594 27.3281 199.719 27.3281C199.844 27.3281 200.047 27.3984 200.328 27.5391C201.078 27.9453 201.875 28.2891 202.719 28.5703C202.75 28.5859 202.789 28.5938 202.836 28.5938C202.93 28.5938 202.984 28.5469 203 28.4531C203.359 27.4219 203.625 25.8672 203.797 23.7891C203.984 21.6953 204.094 19.5078 204.125 17.2266L201.734 17.3906C201.594 18.8125 201.375 20.2031 201.078 21.5625C200.781 22.9219 200.234 24.375 199.438 25.9219C198.656 27.4531 197.57 28.8516 196.18 30.1172C195.961 30.3203 195.773 30.4219 195.617 30.4219C195.508 30.4219 195.453 30.3594 195.453 30.2344Z" fill="#FA760A"/>
<path d="M244.414 16.3125C244.398 16.3125 244.344 16.3281 244.25 16.3594C244.172 16.375 244.133 16.3516 244.133 16.2891C244.133 16.2734 244.164 16.2422 244.227 16.1953C244.289 16.1328 244.344 16.0781 244.391 16.0312C244.438 15.9844 244.508 15.9219 244.602 15.8438C244.695 15.75 244.766 15.6562 244.812 15.5625C245.047 15.1719 245.211 14.7812 245.305 14.3906L245.445 13.5703C245.555 12.9609 245.602 12.25 245.586 11.4375C245.586 11.25 245.562 11.0547 245.516 10.8516C245.5 10.7578 245.422 10.625 245.281 10.4531V10.4297C245.281 10.3984 245.32 10.3828 245.398 10.3828C245.508 10.3828 245.602 10.3906 245.68 10.4062C245.883 10.4531 246.109 10.4766 246.359 10.4766C246.625 10.4609 246.789 10.4531 246.852 10.4531L248.422 10.3359C248.734 10.3047 248.938 10.2891 249.031 10.2891C249.703 10.1953 250.008 10.1562 249.945 10.1719C250.305 10.1094 250.523 10.0781 250.602 10.0781C250.852 10.0938 251.102 10.2891 251.352 10.6641L251.398 10.7812C251.398 10.875 251.328 10.9297 251.188 10.9453C251.047 10.9609 250.961 10.9688 250.93 10.9688C250.445 10.9688 250.086 10.9766 249.852 10.9922C249.258 10.9922 248.82 11 248.539 11.0156L247.883 11.0625L246.547 11.2031C246.453 12.5156 246.367 13.375 246.289 13.7812C246.164 14.5156 245.922 15.1094 245.562 15.5625C245.297 15.9062 244.914 16.1562 244.414 16.3125ZM250.32 22.9453C250.086 22.9453 249.859 22.7734 249.641 22.4297C249.359 21.9922 249.086 21.6328 248.82 21.3516L248.211 20.7188C247.883 21.0938 247.594 21.3906 247.344 21.6094C247.109 21.8281 246.812 22.0391 246.453 22.2422C245.781 22.6328 245.219 22.8281 244.766 22.8281C244.656 22.8281 244.602 22.7891 244.602 22.7109C244.602 22.6641 244.75 22.5625 245.047 22.4062C245.344 22.25 245.625 22.0625 245.891 21.8438C246.562 21.2812 247.117 20.7031 247.555 20.1094C247.461 20.0156 246.992 19.6094 246.148 18.8906C246.039 18.8125 245.875 18.6797 245.656 18.4922C245.609 18.4609 245.516 18.3906 245.375 18.2812C245.234 18.1719 245.164 18.0938 245.164 18.0469C245.164 17.9688 245.203 17.9297 245.281 17.9297C245.516 17.9297 245.891 18.0938 246.406 18.4219C246.922 18.7344 247.461 19.1094 248.023 19.5469C248.242 19.2812 248.414 19.0312 248.539 18.7969C248.664 18.5625 248.805 18.2734 248.961 17.9297C249.039 17.7578 249.086 17.6094 249.102 17.4844C249.117 17.3438 249.125 17.2578 249.125 17.2266C249.125 17.0547 249.172 16.9688 249.266 16.9688C249.375 16.9688 249.523 17.0547 249.711 17.2266C250.039 17.5391 250.203 17.75 250.203 17.8594C250.203 17.9219 250.164 17.9922 250.086 18.0703C249.898 18.2578 249.727 18.5078 249.57 18.8203C249.477 19.0078 249.305 19.2734 249.055 19.6172C248.977 19.7109 248.914 19.7969 248.867 19.875C248.82 19.9531 248.773 20.0234 248.727 20.0859C249.086 20.3516 249.617 20.8047 250.32 21.4453C250.492 21.6016 250.602 21.75 250.648 21.8906C250.711 22.0156 250.742 22.1875 250.742 22.4062C250.742 22.5625 250.703 22.6953 250.625 22.8047C250.547 22.8984 250.445 22.9453 250.32 22.9453ZM247.953 30.3984C247.844 30.3984 247.766 30.3672 247.719 30.3047C247.672 30.2422 247.641 30.2031 247.625 30.1875C247.469 29.9688 247.398 29.7578 247.414 29.5547C247.43 29.4297 247.453 29.0938 247.484 28.5469L247.508 27.4219C247.492 27.25 247.477 27.1484 247.461 27.1172C247.445 27.0703 247.375 26.9766 247.25 26.8359C247 26.5234 246.711 26.2031 246.383 25.875C246.008 25.5 245.766 25.25 245.656 25.125C245.656 25.125 245.422 24.8906 244.953 24.4219C244.906 24.375 244.883 24.3281 244.883 24.2812C244.883 24.2031 244.93 24.1406 245.023 24.0938C245.133 24.0312 245.242 24.0078 245.352 24.0234C245.664 24.0547 245.867 24.0938 245.961 24.1406C246.07 24.1719 246.172 24.2656 246.266 24.4219C246.359 24.5781 246.492 24.7656 246.664 24.9844C246.852 25.1875 246.992 25.3438 247.086 25.4531C247.477 25.9219 247.75 26.2344 247.906 26.3906C248.188 26.0625 248.539 25.5938 248.961 24.9844C249.305 24.5469 249.508 24.1875 249.57 23.9062C249.633 23.7031 249.727 23.6016 249.852 23.6016C249.914 23.6016 250.008 23.6406 250.133 23.7188C250.539 23.9688 250.742 24.1719 250.742 24.3281C250.742 24.4219 250.641 24.5391 250.438 24.6797C250.156 24.8828 249.922 25.1094 249.734 25.3594L249.266 25.9453C248.953 26.3203 248.719 26.6172 248.562 26.8359C248.484 26.9766 248.445 27.1797 248.445 27.4453V28.875V29.8125C248.461 29.9219 248.398 30.0469 248.258 30.1875C248.133 30.3281 248.031 30.3984 247.953 30.3984ZM252.102 21.4922C252.18 21.4922 252.297 21.5469 252.453 21.6562C252.438 21.6875 252.469 21.75 252.547 21.8438C252.625 21.9219 252.68 21.9766 252.711 22.0078C252.789 22.0859 252.867 22.1797 252.945 22.2891C253.039 22.3984 253.141 22.5156 253.25 22.6406C253.531 22.9375 254.18 23.7109 255.195 24.9609C255.367 25.2109 255.453 25.3594 255.453 25.4062C255.453 25.5625 255.359 25.6406 255.172 25.6406C255.062 25.6406 254.945 25.5625 254.82 25.4062C254.523 25.0938 253.992 24.6016 253.227 23.9297C252.633 23.3828 252.094 22.9609 251.609 22.6641C251.375 22.5547 251.258 22.4297 251.258 22.2891C251.258 22.1797 251.375 22.0234 251.609 21.8203C251.828 21.6016 251.992 21.4922 252.102 21.4922ZM222.805 21.7266C222.43 21.7266 222.125 21.6719 221.891 21.5625C221.672 21.4531 221.492 21.1719 221.352 20.7188C221.336 20.6875 221.328 20.6406 221.328 20.5781C221.328 20.5 221.375 20.4609 221.469 20.4609C221.531 20.4609 221.578 20.4688 221.609 20.4844C222.016 20.5781 222.398 20.625 222.758 20.625H222.875L231.078 20.2266L231.102 19.2188L227.07 19.4297H226.672C226.234 19.4297 225.953 19.375 225.828 19.2656C225.672 19.125 225.523 18.9453 225.383 18.7266C225.258 18.4922 225.195 18.3359 225.195 18.2578C225.195 18.1797 225.234 18.1406 225.312 18.1406L225.5 18.1875C225.781 18.2656 226.125 18.3047 226.531 18.3047H226.742L231.102 18.0938L231.125 17.0625L227.703 17.25L227.234 17.2734C226.859 17.2734 226.57 17.2109 226.367 17.0859C226.164 16.9453 226 16.6875 225.875 16.3125C225.844 16.2188 225.828 16.1641 225.828 16.1484C225.828 16.0703 225.867 16.0312 225.945 16.0312C225.961 16.0312 226.031 16.0469 226.156 16.0781C226.328 16.125 226.594 16.1484 226.953 16.1484H227.211L231.125 15.9375L231.148 14.7656L224.984 15.0938L224.398 15.1172C223.992 15.1172 223.68 15 223.461 14.7656C223.242 14.5156 223.133 14.2812 223.133 14.0625C223.133 13.9531 223.188 13.8984 223.297 13.8984C223.344 13.8984 223.383 13.9062 223.414 13.9219C223.727 14.0156 224.102 14.0625 224.539 14.0625H224.68L231.172 13.6875V12.4453L227.68 12.6562H227.398C226.992 12.6562 226.695 12.6016 226.508 12.4922C226.336 12.3672 226.148 12.1016 225.945 11.6953C225.914 11.6016 225.898 11.5469 225.898 11.5312C225.898 11.4531 225.945 11.4141 226.039 11.4141C226.102 11.4141 226.156 11.4219 226.203 11.4375C226.469 11.5156 226.805 11.5547 227.211 11.5547H227.375L231.195 11.3203V10.7109C231.195 10.4141 231.164 10.1406 231.102 9.89062C231.055 9.64062 230.992 9.45312 230.914 9.32812C230.836 9.21875 230.797 9.14062 230.797 9.09375C230.797 9.03125 230.867 9 231.008 9C231.18 9 231.43 9.04688 231.758 9.14062C232.086 9.21875 232.305 9.30469 232.414 9.39844C232.523 9.49219 232.578 9.64062 232.578 9.84375L232.555 11.2266L236.516 10.9688C236.578 10.9531 236.664 10.9453 236.773 10.9453C237.008 10.9453 237.234 11.0469 237.453 11.25C237.688 11.4375 237.805 11.6328 237.805 11.8359C237.805 11.9141 237.766 12.0156 237.688 12.1406C237.625 12.2656 237.594 12.3594 237.594 12.4219L237.453 13.3359L238.508 13.2656C238.695 13.25 238.906 13.2188 239.141 13.1719C239.375 13.1094 239.57 13.0469 239.727 12.9844C239.789 12.9531 239.875 12.9375 239.984 12.9375C240.156 12.9375 240.406 13.0547 240.734 13.2891C241.078 13.5234 241.25 13.7422 241.25 13.9453C241.25 14.1172 241.023 14.2188 240.57 14.25L237.289 14.4375L237.102 15.6094C237.508 16.0156 237.711 16.3047 237.711 16.4766C237.711 16.5703 237.656 16.6328 237.547 16.6641C237.453 16.6797 237.281 16.6953 237.031 16.7109L232.508 16.9688L232.484 18.0234L235.883 17.8594C236.273 17.8438 236.633 17.7656 236.961 17.625C237.086 17.5938 237.164 17.5781 237.195 17.5781C237.414 17.5781 237.68 17.7031 237.992 17.9531C238.32 18.2031 238.484 18.4062 238.484 18.5625C238.484 18.7344 238.281 18.8359 237.875 18.8672L232.484 19.1484L232.461 20.1562L239.891 19.8047C240.297 19.7891 240.727 19.6953 241.18 19.5234C241.273 19.4766 241.359 19.4531 241.438 19.4531C241.625 19.4531 241.875 19.5938 242.188 19.875C242.516 20.1562 242.68 20.3906 242.68 20.5781C242.68 20.7656 242.453 20.875 242 20.9062L223.156 21.7266H222.805ZM222.383 28.9922C222.383 28.8984 222.422 28.8516 222.5 28.8516C222.562 28.8516 222.617 28.8594 222.664 28.875C222.82 28.9375 223.031 28.9844 223.297 29.0156C223.578 29.0469 223.836 29.0625 224.07 29.0625H224.258L239.094 28.6641C239.484 28.6484 239.922 28.5625 240.406 28.4062C240.531 28.375 240.617 28.3594 240.664 28.3594C240.867 28.3594 241.133 28.5 241.461 28.7812C241.789 29.0625 241.953 29.2969 241.953 29.4844C241.953 29.5938 241.898 29.6719 241.789 29.7188C241.68 29.7812 241.555 29.8125 241.414 29.8125L224.562 30.2578L223.836 30.2812C223.414 30.2812 223.133 30.2188 222.992 30.0938C222.805 29.9219 222.656 29.7344 222.547 29.5312C222.438 29.3281 222.383 29.1484 222.383 28.9922ZM225.477 22.3594C225.477 22.2656 225.562 22.2188 225.734 22.2188C226.031 22.2188 226.539 22.3359 227.258 22.5703L236.914 22.1484L237.148 22.125C237.367 22.125 237.602 22.2188 237.852 22.4062C238.117 22.5781 238.25 22.7812 238.25 23.0156C238.25 23.1094 238.227 23.2109 238.18 23.3203C238.133 23.4141 238.102 23.4844 238.086 23.5312L237.594 26.4141C238.062 26.8203 238.297 27.1016 238.297 27.2578C238.297 27.3672 238.227 27.4453 238.086 27.4922C237.961 27.5234 237.773 27.5469 237.523 27.5625L227.68 27.8438L227.703 28.0078V28.125C227.703 28.3906 227.609 28.5234 227.422 28.5234C227.328 28.5234 227.188 28.4922 227 28.4297C226.812 28.3516 226.641 28.2422 226.484 28.1016C226.328 27.9609 226.25 27.7891 226.25 27.5859L226.273 27.4219C226.305 27.1094 226.32 26.8984 226.32 26.7891C226.32 26.6797 226.305 26.4844 226.273 26.2031L225.945 23.7188C225.883 23.3594 225.781 23.0469 225.641 22.7812C225.531 22.5938 225.477 22.4531 225.477 22.3594ZM227.352 24.7266L231.125 24.5859V23.5312L227.234 23.6953L227.352 24.7266ZM227.562 26.7656L231.102 26.6719V25.6406L227.445 25.7578L227.562 26.7656ZM236.328 26.5078L236.469 25.4531L232.367 25.5938V26.625L236.328 26.5078ZM236.586 24.375L236.703 23.3203L232.391 23.4844V24.5391L236.586 24.375ZM235.812 15.6797L235.953 14.5078L232.531 14.6953L232.508 15.8672L235.812 15.6797ZM236.07 13.4062L236.211 12.1406L232.555 12.3516L232.531 13.6172L236.07 13.4062Z" fill="#FA760A"/>
<path d="M282.922 19.4297C282.781 19.4297 282.672 19.3984 282.594 19.3359C282.594 19.3359 282.555 19.2969 282.477 19.2188C282.414 19.0938 282.227 18.75 281.914 18.1875C281.617 17.625 281.398 17.2422 281.258 17.0391C280.961 16.6016 280.812 16.3203 280.812 16.1953C280.812 16.0234 280.914 15.7734 281.117 15.4453C281.43 15.0078 281.641 14.6562 281.75 14.3906C281.953 14.0156 282.102 13.7266 282.195 13.5234C282.289 13.3047 282.328 13.1328 282.312 13.0078C282.297 12.9297 282.289 12.8438 282.289 12.75C282.289 12.6875 282.305 12.6562 282.336 12.6562C282.367 12.6406 282.43 12.6484 282.523 12.6797C282.68 12.7266 282.859 12.8359 283.062 13.0078C283.109 13.0547 283.164 13.1172 283.227 13.1953C283.289 13.2734 283.328 13.3438 283.344 13.4062C283.375 13.4531 283.383 13.5078 283.367 13.5703C283.367 13.6172 283.344 13.6641 283.297 13.7109L283.18 13.8047C283.07 13.9453 282.945 14.1172 282.805 14.3203C282.664 14.5234 282.531 14.7109 282.406 14.8828L281.82 15.7266C281.664 15.9453 281.586 16.1016 281.586 16.1953C281.586 16.2422 281.656 16.3672 281.797 16.5703L282.289 17.1094C282.758 17.625 282.977 17.8672 282.945 17.8359C283.242 18.1328 283.391 18.4219 283.391 18.7031C283.391 19.1875 283.234 19.4297 282.922 19.4297ZM286.016 19.3594C285.875 19.3594 285.758 19.3359 285.664 19.2891C285.492 19.1172 285.367 18.9141 285.289 18.6797L284.797 17.8125L284.328 16.9922C284.031 16.5859 283.883 16.3125 283.883 16.1719C283.883 15.9844 283.984 15.7422 284.188 15.4453L284.562 14.9062C284.719 14.6406 284.805 14.4844 284.82 14.4375C284.977 14.125 285.109 13.8516 285.219 13.6172C285.344 13.3672 285.398 13.1797 285.383 13.0547C285.367 12.9922 285.359 12.9141 285.359 12.8203C285.359 12.6953 285.43 12.6641 285.57 12.7266C285.773 12.8047 285.992 12.9297 286.227 13.1016C286.336 13.2109 286.406 13.3047 286.438 13.3828C286.484 13.4453 286.508 13.5312 286.508 13.6406C286.508 13.6719 286.453 13.7344 286.344 13.8281C286.234 13.9062 286.141 13.9922 286.062 14.0859C285.969 14.1797 285.758 14.4766 285.43 14.9766C285.367 15.0703 285.289 15.1797 285.195 15.3047C285.117 15.4141 285.016 15.5625 284.891 15.75C284.734 15.9531 284.656 16.1016 284.656 16.1953C284.656 16.2891 284.75 16.4297 284.938 16.6172C285 16.6797 285.062 16.7578 285.125 16.8516C285.203 16.9297 285.297 17.0234 285.406 17.1328L286.016 17.8125C286.312 18.0781 286.461 18.3359 286.461 18.5859C286.461 19.1016 286.312 19.3594 286.016 19.3594ZM286.32 27.1641C286.086 27.1641 285.859 26.9922 285.641 26.6484C285.359 26.2109 285.086 25.8516 284.82 25.5703L284.211 24.9375C283.883 25.3125 283.594 25.6094 283.344 25.8281C283.109 26.0469 282.812 26.2578 282.453 26.4609C281.781 26.8516 281.219 27.0469 280.766 27.0469C280.656 27.0469 280.602 27.0078 280.602 26.9297C280.602 26.8828 280.75 26.7812 281.047 26.625C281.344 26.4688 281.625 26.2812 281.891 26.0625C282.562 25.5 283.117 24.9219 283.555 24.3281C283.461 24.2344 282.992 23.8281 282.148 23.1094C282.039 23.0312 281.875 22.8984 281.656 22.7109C281.609 22.6797 281.516 22.6094 281.375 22.5C281.234 22.3906 281.164 22.3125 281.164 22.2656C281.164 22.1875 281.203 22.1484 281.281 22.1484C281.516 22.1484 281.891 22.3125 282.406 22.6406C282.922 22.9531 283.461 23.3281 284.023 23.7656C284.242 23.5 284.414 23.25 284.539 23.0156C284.664 22.7812 284.805 22.4922 284.961 22.1484C285.039 21.9766 285.086 21.8281 285.102 21.7031C285.117 21.5625 285.125 21.4766 285.125 21.4453C285.125 21.2734 285.172 21.1875 285.266 21.1875C285.375 21.1875 285.523 21.2734 285.711 21.4453C286.039 21.7578 286.203 21.9688 286.203 22.0781C286.203 22.1406 286.164 22.2109 286.086 22.2891C285.898 22.4766 285.727 22.7266 285.57 23.0391C285.477 23.2266 285.305 23.4922 285.055 23.8359C284.977 23.9297 284.914 24.0156 284.867 24.0938C284.82 24.1719 284.773 24.2422 284.727 24.3047C285.086 24.5703 285.617 25.0234 286.32 25.6641C286.492 25.8203 286.602 25.9688 286.648 26.1094C286.711 26.2344 286.742 26.4062 286.742 26.625C286.742 26.7812 286.703 26.9141 286.625 27.0234C286.547 27.1172 286.445 27.1641 286.32 27.1641ZM288.102 18.9141C288.18 18.9141 288.297 18.9688 288.453 19.0781C288.438 19.1094 288.469 19.1719 288.547 19.2656C288.625 19.3438 288.68 19.3984 288.711 19.4297C288.789 19.5078 288.867 19.6016 288.945 19.7109C289.039 19.8203 289.141 19.9375 289.25 20.0625C289.531 20.3594 290.18 21.1328 291.195 22.3828C291.367 22.6328 291.453 22.7812 291.453 22.8281C291.453 22.9844 291.359 23.0625 291.172 23.0625C291.062 23.0625 290.945 22.9844 290.82 22.8281C290.523 22.5156 289.992 22.0234 289.227 21.3516C288.633 20.8047 288.094 20.3828 287.609 20.0859C287.375 19.9766 287.258 19.8516 287.258 19.7109C287.258 19.6016 287.375 19.4453 287.609 19.2422C287.828 19.0234 287.992 18.9141 288.102 18.9141ZM276.078 16.2891C275.406 19.0547 274.516 21.4219 273.406 23.3906C274.828 25.4844 276.68 27.4219 278.961 29.2031C279.133 29.3281 279.219 29.4453 279.219 29.5547C279.219 29.6797 279.039 29.8438 278.68 30.0469C278.336 30.2656 278.094 30.375 277.953 30.375C277.75 30.375 277.32 30.0547 276.664 29.4141C276.008 28.7891 275.289 28.0312 274.508 27.1406C273.742 26.2344 273.109 25.4141 272.609 24.6797C271.859 25.7891 271.016 26.7812 270.078 27.6562C269.156 28.5156 268.297 29.1797 267.5 29.6484C266.719 30.1328 266.188 30.375 265.906 30.375C265.781 30.375 265.719 30.3281 265.719 30.2344C265.719 30.0938 265.867 29.9062 266.164 29.6719C267.258 28.8281 268.289 27.875 269.258 26.8125C270.227 25.7344 271.07 24.5859 271.789 23.3672C270.852 21.7891 270.078 20.1406 269.469 18.4219C268.984 19.25 268.484 19.9688 267.969 20.5781C267.453 21.1875 267.117 21.4922 266.961 21.4922C266.883 21.4922 266.844 21.4375 266.844 21.3281C266.844 21.1406 266.93 20.8984 267.102 20.6016C267.852 19.1953 268.508 17.7734 269.07 16.3359C269.633 14.8984 270.062 13.6484 270.359 12.5859C270.672 11.5078 270.828 10.8281 270.828 10.5469C270.828 10.3594 270.82 10.2109 270.805 10.1016V10.0547C270.805 9.92969 270.883 9.86719 271.039 9.86719C271.289 9.86719 271.602 10.0078 271.977 10.2891C272.367 10.5547 272.562 10.8047 272.562 11.0391C272.562 11.2422 272.359 11.875 271.953 12.9375C271.562 13.9844 271.234 14.8125 270.969 15.4219L275.75 15.0938C276.094 15.0781 276.445 15 276.805 14.8594C276.93 14.8281 277.008 14.8125 277.039 14.8125C277.227 14.8125 277.492 14.9453 277.836 15.2109C278.18 15.4609 278.352 15.6875 278.352 15.8906C278.352 16.0625 278.188 16.1641 277.859 16.1953L276.078 16.2891ZM257.188 16.3359C257.188 16.2578 257.227 16.2188 257.305 16.2188C257.367 16.2188 257.414 16.2266 257.445 16.2422C257.68 16.3203 258 16.3594 258.406 16.3594H258.641L262.109 16.1719L262.133 12.0469C262.133 11.8906 262.109 11.7344 262.062 11.5781C262.016 11.4219 261.945 11.2578 261.852 11.0859C261.805 11.0078 261.781 10.9375 261.781 10.875C261.781 10.75 261.883 10.6875 262.086 10.6875C262.258 10.6875 262.516 10.7344 262.859 10.8281C263.375 10.9531 263.633 11.1797 263.633 11.5078L263.539 16.1016L265.461 15.9844C265.93 15.9688 266.359 15.8984 266.75 15.7734C266.797 15.7578 266.867 15.75 266.961 15.75C267.18 15.75 267.383 15.8203 267.57 15.9609C267.773 16.0859 267.938 16.2344 268.062 16.4062C268.203 16.5781 268.273 16.7031 268.273 16.7812C268.273 17 268.086 17.125 267.711 17.1562L263.516 17.3906L263.422 21.2344L265.578 21.1172L265.836 21.0938C266.055 21.0938 266.281 21.1953 266.516 21.3984C266.75 21.5859 266.867 21.7656 266.867 21.9375C266.867 22.0156 266.836 22.1094 266.773 22.2188C266.711 22.3281 266.68 22.4141 266.68 22.4766L266.164 26.6484C266.555 27.1328 266.75 27.4609 266.75 27.6328C266.75 27.7422 266.703 27.8125 266.609 27.8438C266.531 27.8594 266.375 27.875 266.141 27.8906L261.055 28.0312L261.125 28.9688V29.0391C261.125 29.1797 261.086 29.2969 261.008 29.3906C260.945 29.4844 260.844 29.5312 260.703 29.5312C260.484 29.5312 260.227 29.4375 259.93 29.25C259.648 29.0781 259.508 28.8828 259.508 28.6641C259.508 28.5703 259.516 28.5 259.531 28.4531C259.578 28.1875 259.602 27.9062 259.602 27.6094L259.578 27.1172L259.273 22.7109C259.242 22.2422 259.156 21.8516 259.016 21.5391C258.938 21.3828 258.898 21.2578 258.898 21.1641C258.898 21.0547 258.977 21 259.133 21C259.383 21 259.898 21.1328 260.68 21.3984L262.062 21.3281L262.086 17.4844L259.039 17.6484L258.57 17.6719C258.18 17.6719 257.914 17.6016 257.773 17.4609C257.57 17.2578 257.422 17.0391 257.328 16.8047C257.234 16.5547 257.188 16.3984 257.188 16.3359ZM260.961 26.7891L264.781 26.6484L265.156 22.3828L260.656 22.6172L260.961 26.7891ZM270.312 16.8516C270.922 18.7266 271.656 20.4375 272.516 21.9844C273.234 20.5312 273.859 18.6719 274.391 16.4062L270.406 16.6875L270.312 16.8516Z" fill="#FA760A"/>
<path d="M316.625 24.2812C316.516 24.2812 316.445 24.2734 316.414 24.2578C316.398 24.2266 316.422 24.1719 316.484 24.0938C316.703 23.8906 316.875 23.6953 317 23.5078C317.141 23.3047 317.289 22.9844 317.445 22.5469C317.695 21.8281 317.82 21.2734 317.82 20.8828C317.82 20.5234 317.797 20.1953 317.75 19.8984V19.8281C317.75 19.6562 317.859 19.6016 318.078 19.6641C318.266 19.7109 318.477 19.7734 318.711 19.8516C318.758 19.8359 318.828 19.8281 318.922 19.8281C319.016 19.8125 319.164 19.7891 319.367 19.7578C319.898 19.6797 320.586 19.6016 321.43 19.5234C321.43 19.4609 321.492 19.2422 321.617 18.8672L321.758 18.3516C321.82 18.1328 321.797 18.0234 321.688 18.0234C321.375 18.0234 320.648 18.1016 319.508 18.2578L318.266 18.4688C318.156 18.4844 318.016 18.4375 317.844 18.3281C317.688 18.2188 317.562 18.0938 317.469 17.9531C317.391 17.8125 317.406 17.7188 317.516 17.6719C317.641 17.5938 317.766 17.5547 317.891 17.5547C318.016 17.5547 318.094 17.5547 318.125 17.5547H318.43L319.977 17.5078L321.477 17.3203C321.555 17.3047 321.648 17.2812 321.758 17.25C321.883 17.2031 322 17.1719 322.109 17.1562C322.266 17.125 322.531 17.2969 322.906 17.6719C322.969 17.7344 323 17.8047 323 17.8828C323 17.9766 322.938 18.0703 322.812 18.1641C322.641 18.3359 322.531 18.4844 322.484 18.6094C322.469 18.6875 322.438 18.8047 322.391 18.9609C322.344 19.1016 322.297 19.2812 322.25 19.5C322.344 19.6094 322.391 19.7422 322.391 19.8984C322.391 20.0234 322.352 20.1172 322.273 20.1797C322.211 20.2266 322.078 20.25 321.875 20.25C321.172 20.2969 320.617 20.3438 320.211 20.3906C319.805 20.4219 319.312 20.5 318.734 20.625C318.672 21.3281 318.531 21.9766 318.312 22.5703C318.094 23.1484 317.789 23.5859 317.398 23.8828C317.023 24.1484 316.766 24.2812 316.625 24.2812ZM324.102 15.3984C324.18 15.3984 324.297 15.4531 324.453 15.5625C324.438 15.5938 324.469 15.6562 324.547 15.75C324.625 15.8281 324.68 15.8828 324.711 15.9141C324.789 15.9922 324.867 16.0859 324.945 16.1953C325.039 16.3047 325.141 16.4219 325.25 16.5469C325.531 16.8438 326.18 17.6172 327.195 18.8672C327.367 19.1172 327.453 19.2656 327.453 19.3125C327.453 19.4688 327.359 19.5469 327.172 19.5469C327.062 19.5469 326.945 19.4688 326.82 19.3125C326.523 19 325.992 18.5078 325.227 17.8359C324.633 17.2891 324.094 16.8672 323.609 16.5703C323.375 16.4609 323.258 16.3359 323.258 16.1953C323.258 16.0859 323.375 15.9297 323.609 15.7266C323.828 15.5078 323.992 15.3984 324.102 15.3984ZM310.016 24.375C310.391 24.7656 310.578 25.0469 310.578 25.2188C310.578 25.3281 310.523 25.3984 310.414 25.4297C310.32 25.4609 310.164 25.4844 309.945 25.5L304.367 25.7344V28.2422L304.391 28.8281C304.406 28.9375 304.414 29.1016 304.414 29.3203C304.414 29.8047 304.273 30.1953 303.992 30.4922C303.711 30.8047 303.398 30.9609 303.055 30.9609C302.773 30.9609 302.32 30.7656 301.695 30.375C301.07 29.9844 300.492 29.5547 299.961 29.0859C299.43 28.6328 299.164 28.3281 299.164 28.1719C299.164 28.0469 299.25 27.9844 299.422 27.9844C299.578 27.9844 299.734 28.0234 299.891 28.1016C301.172 28.6484 302.188 29.0078 302.938 29.1797V25.7812L298.484 25.9688L297.852 25.9922C297.305 25.9922 296.906 25.6719 296.656 25.0312C296.609 24.9375 296.586 24.8672 296.586 24.8203C296.586 24.7422 296.625 24.7031 296.703 24.7031L296.891 24.75C297.062 24.8125 297.336 24.8438 297.711 24.8438H297.992L302.938 24.6562V23.1797L294.992 23.5312H294.828C294.516 23.5312 294.234 23.4766 293.984 23.3672C293.734 23.2422 293.547 22.9531 293.422 22.5C293.406 22.4688 293.398 22.4297 293.398 22.3828C293.398 22.3047 293.445 22.2656 293.539 22.2656L293.68 22.2891C293.992 22.3672 294.266 22.4062 294.5 22.4062H294.688L302.938 22.0547V20.7656L298.273 21H297.945C297.555 21 297.25 20.9219 297.031 20.7656C296.828 20.6094 296.688 20.4453 296.609 20.2734C296.547 20.1016 296.516 19.9766 296.516 19.8984C296.516 19.8203 296.555 19.7812 296.633 19.7812C296.695 19.7812 296.742 19.7891 296.773 19.8047C297.117 19.8828 297.398 19.9219 297.617 19.9219L297.969 19.8984L302.914 19.6172V18.2578L298.789 18.4453L298.812 18.6328V18.7266C298.812 18.9297 298.68 19.0312 298.414 19.0312C298.242 19.0312 298.016 18.9922 297.734 18.9141C297.469 18.8203 297.336 18.6406 297.336 18.375V17.8125C297.336 17.5938 297.328 17.4297 297.312 17.3203L297.148 16.0547C297.102 15.6016 296.977 15.2266 296.773 14.9297C296.664 14.7578 296.609 14.6328 296.609 14.5547C296.609 14.4453 296.695 14.3906 296.867 14.3906C297.148 14.3906 297.688 14.5312 298.484 14.8125L302.914 14.5547V13.1953L296.258 13.5703C296.117 13.5859 295.93 13.5938 295.695 13.5938C295.367 13.5938 295.102 13.5078 294.898 13.3359C294.711 13.1641 294.57 12.9844 294.477 12.7969C294.398 12.5938 294.359 12.4609 294.359 12.3984C294.359 12.3203 294.406 12.2812 294.5 12.2812C294.562 12.2812 294.617 12.2891 294.664 12.3047C294.977 12.3828 295.297 12.4219 295.625 12.4219H295.836L302.914 12V10.8281C302.914 10.3438 302.797 9.95312 302.562 9.65625C302.516 9.57812 302.492 9.52344 302.492 9.49219C302.492 9.39844 302.578 9.35156 302.75 9.35156C302.938 9.35156 303.156 9.39062 303.406 9.46875C303.797 9.57812 304.047 9.69531 304.156 9.82031C304.266 9.94531 304.32 10.1328 304.32 10.3828V11.9062L310.297 11.5547C310.516 11.5391 310.734 11.5 310.953 11.4375C311.172 11.3594 311.312 11.3125 311.375 11.2969C311.406 11.2812 311.453 11.2734 311.516 11.2734C311.734 11.2734 312 11.4141 312.312 11.6953C312.625 11.9766 312.781 12.2031 312.781 12.375C312.781 12.5469 312.609 12.6484 312.266 12.6797L304.32 13.125V14.4844L309.125 14.2031L309.5 14.1797C309.703 14.1797 309.914 14.25 310.133 14.3906C310.367 14.5156 310.484 14.6641 310.484 14.8359C310.484 14.9297 310.445 15.0312 310.367 15.1406C310.305 15.25 310.266 15.3281 310.25 15.375L309.875 16.8516C310.266 17.2266 310.461 17.4922 310.461 17.6484C310.461 17.7578 310.406 17.8281 310.297 17.8594C310.188 17.8906 310.016 17.9141 309.781 17.9297L304.344 18.1875V19.5469L309.547 19.2422L309.805 19.2188C310.008 19.2188 310.227 19.3047 310.461 19.4766C310.711 19.6328 310.836 19.8438 310.836 20.1094C310.836 20.1875 310.805 20.2891 310.742 20.4141C310.68 20.5391 310.648 20.6328 310.648 20.6953L310.461 21.7266L312.242 21.6562C312.508 21.6406 312.75 21.5938 312.969 21.5156C313.188 21.4375 313.32 21.3906 313.367 21.375C313.492 21.3438 313.578 21.3281 313.625 21.3281C313.781 21.3281 314.023 21.4531 314.352 21.7031C314.68 21.9531 314.844 22.1719 314.844 22.3594C314.844 22.5469 314.633 22.6562 314.211 22.6875L310.273 22.8516L310.016 24.375ZM298.672 17.4141L302.914 17.2031V15.5859L298.484 15.8438L298.672 17.4141ZM304.367 24.6094L308.68 24.4453L308.891 22.9219L304.344 23.1328L304.367 24.6094ZM309.031 21.7969L309.219 20.4375L304.344 20.6953V21.9844L309.031 21.7969ZM308.516 16.9219L308.797 15.2578L304.344 15.5156V17.1328L308.516 16.9219Z" fill="#FA760A"/>
<path d="M340.789 24.5391C340.789 24.6641 340.719 24.7578 340.578 24.8203C340.453 24.8828 340.297 24.9141 340.109 24.9141C339.75 24.9141 339.492 24.8594 339.336 24.75C339.18 24.6406 339.078 24.5 339.031 24.3281C339 24.1562 338.984 23.9141 338.984 23.6016C338.984 23.1953 339.016 22.7969 339.078 22.4062C339.172 21.75 339.422 21.1953 339.828 20.7422C340.234 20.2734 340.812 19.75 341.562 19.1719C342.109 18.75 342.547 18.3828 342.875 18.0703C343.203 17.7578 343.477 17.3906 343.695 16.9688C343.93 16.5469 344.047 16.0703 344.047 15.5391C344.047 14.9766 343.789 14.5 343.273 14.1094C342.758 13.7188 342.133 13.5234 341.398 13.5234C340.523 13.5234 339.695 13.6719 338.914 13.9688C338.148 14.25 337.531 14.625 337.062 15.0938C336.703 15.4844 336.422 16.0156 336.219 16.6875C336.156 16.8906 336.016 16.9922 335.797 16.9922C335.562 16.9922 335.32 16.8906 335.07 16.6875C334.82 16.4688 334.695 16.2422 334.695 16.0078C334.695 15.8047 334.953 15.3828 335.469 14.7422C335.984 14.0859 336.742 13.4922 337.742 12.9609C338.742 12.4141 339.953 12.1406 341.375 12.1406C342.609 12.1406 343.648 12.4375 344.492 13.0312C345.336 13.625 345.758 14.4141 345.758 15.3984C345.758 16.1172 345.617 16.75 345.336 17.2969C345.055 17.8281 344.719 18.2812 344.328 18.6562C343.938 19.0156 343.422 19.4375 342.781 19.9219C342.078 20.4531 341.547 20.9141 341.188 21.3047C340.844 21.6797 340.641 22.1172 340.578 22.6172C340.562 22.7422 340.555 22.9219 340.555 23.1562C340.555 23.5156 340.625 23.9453 340.766 24.4453L340.789 24.5391ZM338.633 27.6562C338.633 27.3125 338.734 27.0312 338.938 26.8125C339.156 26.5938 339.469 26.4844 339.875 26.4844C340.172 26.4844 340.445 26.6484 340.695 26.9766C340.961 27.2891 341.094 27.625 341.094 27.9844C341.094 28.3125 340.992 28.5703 340.789 28.7578C340.586 28.9609 340.281 29.0625 339.875 29.0625C339.547 29.0625 339.258 28.9141 339.008 28.6172C338.758 28.3203 338.633 28 338.633 27.6562Z" fill="#333333"/>
</svg>
