<svg width="350" height="40" viewBox="0 0 350 40" fill="none" xmlns="http://www.w3.org/2000/svg">
<path d="M84.0078 18.6797C83.9141 18.6797 83.7812 18.6094 83.6094 18.4688C83.5156 18.4062 83.4375 18.3438 83.375 18.2812C83.3125 18.2188 83.2812 18.1641 83.2812 18.1172L83.3047 17.7422C83.3203 17.6016 83.3281 17.2891 83.3281 16.8047C83.3125 16.4609 83.3047 15.7422 83.3047 14.6484C83.3047 14.2109 83.2656 13.8125 83.1875 13.4531C83.1875 13.4531 83.1562 13.2656 83.0938 12.8906V12.8203C83.0938 12.6797 83.1875 12.6406 83.375 12.7031C83.4531 12.7188 83.6328 12.75 83.9141 12.7969C84.2109 12.75 85.2031 12.6328 86.8906 12.4453C87.125 12.4141 87.3125 12.3828 87.4531 12.3516C87.5938 12.3203 87.6953 12.2969 87.7578 12.2812H87.8516C88.0234 12.2812 88.1797 12.3672 88.3203 12.5391C88.5703 12.8359 88.6719 13.0469 88.625 13.1719C88.5625 13.3281 88.5 13.5938 88.4375 13.9688C88.4062 14.1875 88.3672 14.5625 88.3203 15.0938V16.1719V17.8828C88.3203 18.0234 88.25 18.2109 88.1094 18.4453C88.0781 18.5234 88.0156 18.5859 87.9219 18.6328C87.8438 18.6797 87.7578 18.7031 87.6641 18.7031C87.5703 18.7031 87.5 18.6797 87.4531 18.6328C87.4219 18.6016 87.3906 18.5703 87.3594 18.5391C87.3281 18.4922 87.2969 18.4609 87.2656 18.4453C87.25 18.4297 87.2188 18.4219 87.1719 18.4219C86.2031 18.4219 85.3281 18.4844 84.5469 18.6094C84.4844 18.625 84.4219 18.6328 84.3594 18.6328C84.3125 18.6328 84.2656 18.6406 84.2188 18.6562L84.0547 18.6797H84.0078ZM84.4531 17.8125C84.8438 17.7969 85.375 17.75 86.0469 17.6719C86.3594 17.6406 86.5391 17.625 86.5859 17.625H86.7734C87.0234 17.625 87.2109 17.6719 87.3359 17.7656C87.4453 16.9844 87.5 15.5547 87.5 13.4766C87.4688 13.2422 87.375 13.125 87.2188 13.125C86.9219 13.125 86.3203 13.1797 85.4141 13.2891C85.3203 13.2891 85.2266 13.2969 85.1328 13.3125C85.0391 13.3281 84.9453 13.3438 84.8516 13.3594C84.5859 13.4062 84.3906 13.4297 84.2656 13.4297C84.1562 13.4297 84.1172 13.4844 84.1484 13.5938L84.125 14.3906C84.1094 14.5 84.1016 14.6016 84.1016 14.6953C84.1172 14.7891 84.125 14.875 84.125 14.9531C84.1406 15.0781 84.1484 15.2812 84.1484 15.5625C84.1484 16.7812 84.1562 17.4531 84.1719 17.5781C84.1719 17.6875 84.2031 17.7578 84.2656 17.7891C84.3281 17.8203 84.3906 17.8281 84.4531 17.8125ZM86.1875 16.5C86.0156 16.5 85.8828 16.4141 85.7891 16.2422C85.4609 15.6953 85.1562 15.2422 84.875 14.8828L84.7109 14.625C84.6484 14.5312 84.6172 14.4609 84.6172 14.4141C84.6328 14.3516 84.6719 14.3281 84.7344 14.3438C85.1406 14.4688 85.5156 14.6719 85.8594 14.9531C86.3906 15.3594 86.6562 15.6719 86.6562 15.8906C86.6562 16 86.625 16.1094 86.5625 16.2188C86.4531 16.4062 86.3281 16.5 86.1875 16.5ZM88.3203 26.6719C88.0859 26.6719 87.8594 26.5 87.6406 26.1562C87.3594 25.7188 87.0859 25.3594 86.8203 25.0781L86.2109 24.4453C85.8828 24.8203 85.5938 25.1172 85.3438 25.3359C85.1094 25.5547 84.8125 25.7656 84.4531 25.9688C83.7812 26.3594 83.2188 26.5547 82.7656 26.5547C82.6562 26.5547 82.6016 26.5156 82.6016 26.4375C82.6016 26.3906 82.75 26.2891 83.0469 26.1328C83.3438 25.9766 83.625 25.7891 83.8906 25.5703C84.5625 25.0078 85.1172 24.4297 85.5547 23.8359C85.4609 23.7422 84.9922 23.3359 84.1484 22.6172C84.0391 22.5391 83.875 22.4062 83.6562 22.2188C83.6094 22.1875 83.5156 22.1172 83.375 22.0078C83.2344 21.8984 83.1641 21.8203 83.1641 21.7734C83.1641 21.6953 83.2031 21.6562 83.2812 21.6562C83.5156 21.6562 83.8906 21.8203 84.4062 22.1484C84.9219 22.4609 85.4609 22.8359 86.0234 23.2734C86.2422 23.0078 86.4141 22.7578 86.5391 22.5234C86.6641 22.2891 86.8047 22 86.9609 21.6562C87.0391 21.4844 87.0859 21.3359 87.1016 21.2109C87.1172 21.0703 87.125 20.9844 87.125 20.9531C87.125 20.7812 87.1719 20.6953 87.2656 20.6953C87.375 20.6953 87.5234 20.7812 87.7109 20.9531C88.0391 21.2656 88.2031 21.4766 88.2031 21.5859C88.2031 21.6484 88.1641 21.7188 88.0859 21.7969C87.8984 21.9844 87.7266 22.2344 87.5703 22.5469C87.4766 22.7344 87.3047 23 87.0547 23.3438C86.9766 23.4375 86.9141 23.5234 86.8672 23.6016C86.8203 23.6797 86.7734 23.75 86.7266 23.8125C87.0859 24.0781 87.6172 24.5312 88.3203 25.1719C88.4922 25.3281 88.6016 25.4766 88.6484 25.6172C88.7109 25.7422 88.7422 25.9141 88.7422 26.1328C88.7422 26.2891 88.7031 26.4219 88.625 26.5312C88.5469 26.625 88.4453 26.6719 88.3203 26.6719ZM93.1016 16.5469C93.2891 16.5469 93.3828 16.6328 93.3828 16.8047C93.3828 16.8984 93.2969 17.0312 93.125 17.2031C92.6562 17.7812 91.7266 18.8828 90.3359 20.5078C90.2266 20.6484 90.125 20.7188 90.0312 20.7188C89.9531 20.7188 89.7812 20.6016 89.5156 20.3672C89.2969 20.1797 89.1875 20.0234 89.1875 19.8984C89.1875 19.7578 89.3047 19.625 89.5391 19.5C89.8984 19.2969 90.4375 18.8906 91.1562 18.2812C91.875 17.6406 92.4062 17.1328 92.75 16.7578C92.8906 16.6172 93.0078 16.5469 93.1016 16.5469ZM70.5547 15.2812C70.7266 15.2812 70.8594 15.3125 70.9531 15.375C71.0625 15.4219 71.1172 15.4844 71.1172 15.5625C71.1172 15.7031 71.0078 15.8203 70.7891 15.9141C70.5703 15.9922 70.1562 16.1016 69.5469 16.2422C69.3594 17.6172 69.0625 18.9844 68.6562 20.3438C68.25 21.6875 67.625 23 66.7812 24.2812C68.8906 26.1562 69.9453 27.2656 69.9453 27.6094C69.9453 27.8125 69.8281 28.0234 69.5938 28.2422C69.375 28.4609 69.1875 28.5703 69.0312 28.5703C68.8906 28.5703 68.7344 28.4609 68.5625 28.2422C67.7656 27.2734 66.875 26.3359 65.8906 25.4297C65.125 26.3203 64.3047 27.1016 63.4297 27.7734C62.5703 28.4453 61.7969 28.9609 61.1094 29.3203C60.4219 29.6953 59.9844 29.8828 59.7969 29.8828C59.6719 29.8828 59.6094 29.8359 59.6094 29.7422C59.6094 29.5547 59.7734 29.3516 60.1016 29.1328C61.8984 27.8828 63.5156 26.3516 64.9531 24.5391C64.3438 23.9766 63.7109 23.4297 63.0547 22.8984C62.9766 22.8359 62.8516 22.7578 62.6797 22.6641C62.5078 22.5547 62.375 22.4531 62.2812 22.3594C62.2031 22.25 62.1484 22.1016 62.1172 21.9141C62.1016 21.8516 62.0938 21.75 62.0938 21.6094C62.0938 21.3906 62.1328 21.1484 62.2109 20.8828C62.4922 20.0234 62.8047 18.875 63.1484 17.4375C62.8672 17.4844 62.3594 17.5625 61.625 17.6719C60.8906 17.7656 60.4375 17.8125 60.2656 17.8125C60.0312 17.8125 59.7969 17.7031 59.5625 17.4844C59.3281 17.2656 59.1484 16.9297 59.0234 16.4766C59.0078 16.4453 59 16.3984 59 16.3359C59 16.2422 59.0547 16.1953 59.1641 16.1953L59.2578 16.2188C59.3984 16.25 59.6172 16.2656 59.9141 16.2656C60.2266 16.2656 61.4141 16.1797 63.4766 16.0078C63.6797 15.0078 63.8672 13.9297 64.0391 12.7734C64.2109 11.6172 64.2969 10.8203 64.2969 10.3828C64.2969 10.0391 64.2422 9.75 64.1328 9.51562C64.1016 9.42188 64.0859 9.36719 64.0859 9.35156C64.0859 9.22656 64.1719 9.16406 64.3438 9.16406C64.7812 9.22656 65.1484 9.34375 65.4453 9.51562C65.7578 9.6875 65.9141 9.90625 65.9141 10.1719V10.3359C65.7266 12.0859 65.4219 13.9297 65 15.8672L68.1641 15.4922C68.1797 15.3828 68.1953 15.2578 68.2109 15.1172C68.2266 14.9766 68.2344 14.8047 68.2344 14.6016V14.3906C68.2344 14.1094 68.1875 13.8203 68.0938 13.5234C68.0781 13.4766 68.0703 13.4141 68.0703 13.3359C68.0703 13.1953 68.1406 13.125 68.2812 13.125C68.4219 13.125 68.6875 13.2109 69.0781 13.3828C69.3438 13.5078 69.5234 13.6172 69.6172 13.7109C69.7109 13.8047 69.7578 13.9453 69.7578 14.1328V14.2266C69.7422 14.4922 69.7031 14.8672 69.6406 15.3516L70.3672 15.2812H70.5547ZM63.4297 21.5156C64.3672 22.2188 65.1484 22.8594 65.7734 23.4375C66.1641 22.7812 66.5781 21.8984 67.0156 20.7891C67.4531 19.6641 67.7891 18.2578 68.0234 16.5703C66.7422 16.8203 65.625 17.0156 64.6719 17.1562C64.4062 18.1719 63.9922 19.625 63.4297 21.5156ZM71.5391 14.0625C71.5391 13.9062 71.6406 13.8281 71.8438 13.8281C72.1094 13.8281 72.6328 14 73.4141 14.3438L77.9844 14.0625H78.1719C78.4844 14.0625 78.7266 14.125 78.8984 14.25C79.0859 14.375 79.2109 14.5156 79.2734 14.6719C79.3516 14.8125 79.3906 14.9141 79.3906 14.9766C79.3906 15.0703 79.3516 15.1953 79.2734 15.3516C79.1953 15.5078 79.1562 15.6172 79.1562 15.6797L78.6406 24.3984C79.0938 24.8516 79.3203 25.1953 79.3203 25.4297C79.3203 25.6172 79.1484 25.7266 78.8047 25.7578L73.6484 25.9453L73.6953 26.9766V27.0234C73.6953 27.1484 73.6484 27.2578 73.5547 27.3516C73.4609 27.4297 73.3438 27.4688 73.2031 27.4688C73.1094 27.4688 72.9688 27.4297 72.7812 27.3516C72.6094 27.2578 72.4453 27.1406 72.2891 27C72.1484 26.8594 72.0781 26.7031 72.0781 26.5312L72.1016 26.3203C72.1484 25.9453 72.1719 25.5781 72.1719 25.2188L72.1484 24.5859L71.8438 15.75C71.8281 15.1875 71.7422 14.7031 71.5859 14.2969C71.5547 14.1719 71.5391 14.0938 71.5391 14.0625ZM73.6016 24.6094L77.1875 24.4688L77.6328 15.4219L73.2969 15.7031L73.6016 24.6094Z" fill="#333333"/>
<path d="M118.414 18.6328C118.398 18.6328 118.344 18.6484 118.25 18.6797C118.172 18.6953 118.133 18.6719 118.133 18.6094C118.133 18.5938 118.164 18.5625 118.227 18.5156C118.289 18.4531 118.344 18.3984 118.391 18.3516C118.438 18.3047 118.508 18.2422 118.602 18.1641C118.695 18.0703 118.766 17.9766 118.812 17.8828C119.047 17.4922 119.211 17.1016 119.305 16.7109L119.445 15.8906C119.555 15.2812 119.602 14.5703 119.586 13.7578C119.586 13.5703 119.562 13.375 119.516 13.1719C119.5 13.0781 119.422 12.9453 119.281 12.7734V12.75C119.281 12.7188 119.32 12.7031 119.398 12.7031C119.508 12.7031 119.602 12.7109 119.68 12.7266C119.883 12.7734 120.109 12.7969 120.359 12.7969C120.625 12.7812 120.789 12.7734 120.852 12.7734L122.422 12.6562C122.734 12.625 122.938 12.6094 123.031 12.6094C123.703 12.5156 124.008 12.4766 123.945 12.4922C124.305 12.4297 124.523 12.3984 124.602 12.3984C124.852 12.4141 125.102 12.6094 125.352 12.9844L125.398 13.1016C125.398 13.1953 125.328 13.25 125.188 13.2656C125.047 13.2812 124.961 13.2891 124.93 13.2891C124.445 13.2891 124.086 13.2969 123.852 13.3125C123.258 13.3125 122.82 13.3203 122.539 13.3359L121.883 13.3828L120.547 13.5234C120.453 14.8359 120.367 15.6953 120.289 16.1016C120.164 16.8359 119.922 17.4297 119.562 17.8828C119.297 18.2266 118.914 18.4766 118.414 18.6328ZM122.023 27.3047C121.273 27.3047 120.648 27.1172 120.148 26.7422C119.633 26.3203 119.375 25.8281 119.375 25.2656C119.375 24.8281 119.539 24.4453 119.867 24.1172C120.289 23.7578 120.82 23.5781 121.461 23.5781C121.492 23.5781 121.516 23.5469 121.531 23.4844C121.562 23.4062 121.578 23.3047 121.578 23.1797L121.602 22.5703C121.492 22.5859 121.281 22.6094 120.969 22.6406C120.672 22.6719 120.453 22.7031 120.312 22.7344C120.391 22.7188 120.148 22.7734 119.586 22.8984C119.539 22.9141 119.453 22.9219 119.328 22.9219C119.031 22.9219 118.781 22.7891 118.578 22.5234C118.484 22.4297 118.438 22.3516 118.438 22.2891C118.438 22.1953 118.578 22.1484 118.859 22.1484L119.586 22.1016L121.578 21.8438V21.5625V20.9766C121.562 20.9141 121.555 20.8438 121.555 20.7656C121.555 20.6875 121.547 20.625 121.531 20.5781C121.5 20.4531 121.484 20.375 121.484 20.3438C121.484 20.2344 121.539 20.1797 121.648 20.1797C121.789 20.1797 122.031 20.2812 122.375 20.4844C122.484 20.5469 122.539 20.6328 122.539 20.7422C122.539 20.8203 122.523 20.8906 122.492 20.9531C122.477 21 122.469 21.0547 122.469 21.1172V21.7734L123.172 21.7031L124.039 21.6094C124.117 21.5938 124.203 21.5703 124.297 21.5391C124.406 21.5078 124.492 21.4922 124.555 21.4922C124.648 21.4922 124.766 21.5391 124.906 21.6328C125.172 21.8047 125.305 21.9531 125.305 22.0781C125.305 22.2031 125.172 22.2656 124.906 22.2656C124.828 22.2656 124.719 22.2812 124.578 22.3125C124.438 22.3281 124.258 22.3438 124.039 22.3594L122.469 22.4766L122.445 23.9062C122.414 24.1406 122.242 24.2891 121.93 24.3516H121.883C121.789 24.3516 121.695 24.3438 121.602 24.3281C121.523 24.2969 121.461 24.2812 121.414 24.2812C121.289 24.2812 121.164 24.2891 121.039 24.3047C120.914 24.3203 120.805 24.3672 120.711 24.4453C120.445 24.6797 120.312 24.9531 120.312 25.2656C120.312 25.5781 120.461 25.8594 120.758 26.1094C121.023 26.3594 121.445 26.4844 122.023 26.4844C122.789 26.4531 123.414 26.2422 123.898 25.8516C124.102 25.7109 124.258 25.6406 124.367 25.6406C124.43 25.6406 124.508 25.6562 124.602 25.6875C124.617 25.7031 124.648 25.7344 124.695 25.7812C124.742 25.8281 124.766 25.875 124.766 25.9219C124.766 26.3594 124.398 26.7188 123.664 27C123.117 27.2031 122.57 27.3047 122.023 27.3047ZM129.102 16.5469C129.289 16.5469 129.383 16.6328 129.383 16.8047C129.383 16.8984 129.297 17.0312 129.125 17.2031C128.656 17.7812 127.727 18.8828 126.336 20.5078C126.227 20.6484 126.125 20.7188 126.031 20.7188C125.953 20.7188 125.781 20.6016 125.516 20.3672C125.297 20.1797 125.188 20.0234 125.188 19.8984C125.188 19.7578 125.305 19.625 125.539 19.5C125.898 19.2969 126.438 18.8906 127.156 18.2812C127.875 17.6406 128.406 17.1328 128.75 16.7578C128.891 16.6172 129.008 16.5469 129.102 16.5469ZM104.258 14.0391C104.102 14.0391 103.945 14.0469 103.789 14.0625C103.648 14.0781 103.516 14.0859 103.391 14.0859C103.094 14.0859 102.844 14 102.641 13.8281C102.438 13.6406 102.281 13.4375 102.172 13.2188C102.062 13 102.008 12.8281 102.008 12.7031C102.008 12.6406 102.039 12.6094 102.102 12.6094C102.18 12.6094 102.242 12.6172 102.289 12.6328C102.586 12.6953 102.914 12.7266 103.273 12.7266H103.602L114.5 12.2109C114.828 12.1953 115.133 12.1328 115.414 12.0234C115.461 12.0078 115.523 12 115.602 12C115.836 12 116.109 12.1406 116.422 12.4219C116.75 12.6875 116.914 12.9141 116.914 13.1016C116.914 13.3047 116.719 13.4219 116.328 13.4531L113.562 13.5938L113.586 28.0781C113.586 28.25 113.594 28.4062 113.609 28.5469C113.641 28.7031 113.656 28.8438 113.656 28.9688C113.656 29.3125 113.523 29.6094 113.258 29.8594C112.992 30.1094 112.742 30.2344 112.508 30.2344C112.383 30.2344 112.07 30.1094 111.57 29.8594C111.07 29.625 110.508 29.3125 109.883 28.9219C109.258 28.5469 108.688 28.1484 108.172 27.7266C107.797 27.3984 107.609 27.1641 107.609 27.0234C107.609 26.9453 107.672 26.9062 107.797 26.9062C108 26.9062 108.266 26.9844 108.594 27.1406C109.359 27.4844 110.516 27.8594 112.062 28.2656L112.039 13.6641L104.258 14.0391ZM94.9297 21.0234C94.9297 20.8672 95.0312 20.6562 95.2344 20.3906C96.4375 18.8125 97.5234 17.2109 98.4922 15.5859C99.4609 13.9609 100.211 12.4219 100.742 10.9688C100.82 10.6562 100.859 10.4141 100.859 10.2422C100.859 10.1641 100.844 10.0469 100.812 9.89062L100.789 9.79688C100.789 9.64062 100.883 9.5625 101.07 9.5625C101.32 9.5625 101.633 9.67969 102.008 9.91406C102.398 10.1484 102.594 10.3594 102.594 10.5469C102.594 10.7031 102.352 11.3047 101.867 12.3516C101.398 13.3828 100.828 14.4297 100.156 15.4922V29.5078C100.156 29.8203 100.016 29.9766 99.7344 29.9766C99.5312 29.9766 99.2812 29.8906 98.9844 29.7188C98.6875 29.5625 98.5391 29.3125 98.5391 28.9688C98.5391 28.875 98.5469 28.7969 98.5625 28.7344C98.6406 28.3594 98.6797 27.9219 98.6797 27.4219L98.7734 17.4375C98.0234 18.4531 97.2656 19.3359 96.5 20.0859C95.75 20.8203 95.2734 21.1875 95.0703 21.1875C94.9766 21.1875 94.9297 21.1328 94.9297 21.0234ZM102.477 17.0625C102.477 16.9688 102.555 16.9219 102.711 16.9219C102.992 16.9219 103.5 17.0625 104.234 17.3438L108.523 17.1094H108.711C108.992 17.1094 109.227 17.1953 109.414 17.3672C109.602 17.5234 109.695 17.6953 109.695 17.8828C109.695 17.9453 109.672 18.0156 109.625 18.0938C109.594 18.1719 109.57 18.2344 109.555 18.2812L109.156 21.3984C109.594 21.8828 109.812 22.2109 109.812 22.3828C109.812 22.4922 109.758 22.5625 109.648 22.5938C109.555 22.625 109.383 22.6484 109.133 22.6641L104.727 22.8281L104.75 23.2734V23.3672C104.75 23.6797 104.633 23.8359 104.398 23.8359C104.148 23.8359 103.883 23.7578 103.602 23.6016C103.336 23.4453 103.203 23.2578 103.203 23.0391L103.227 22.875C103.258 22.7188 103.273 22.4766 103.273 22.1484C103.273 21.8828 103.266 21.6797 103.25 21.5391L102.969 18.4453C102.922 18.0078 102.812 17.6641 102.641 17.4141C102.531 17.2422 102.477 17.125 102.477 17.0625ZM104.633 21.5859L107.773 21.4688L107.984 18.3984L104.445 18.5859L104.633 21.5859Z" fill="#333333"/>
<path d="M155.234 19.125C155 19.125 154.789 19.0312 154.602 18.8438C154.367 18.6719 154.25 18.5391 154.25 18.4453C154.25 18.3359 154.43 18.2812 154.789 18.2812L155.938 18.2109L157.109 18.0938C157.141 17.8438 157.156 17.3672 157.156 16.6641C157.203 16.6641 156.961 16.6953 156.43 16.7578L155.984 16.8281C155.844 16.8906 155.719 16.9219 155.609 16.9219C155.516 16.9219 155.438 16.8906 155.375 16.8281C155.125 16.6094 155 16.4219 155 16.2656V15.1641C155 15.0547 154.961 14.6328 154.883 13.8984L154.859 13.6406C154.859 13.5156 154.883 13.4375 154.93 13.4062C154.977 13.375 155.062 13.375 155.188 13.4062C155.656 13.5312 155.883 13.6719 155.867 13.8281L155.844 13.9922C155.812 14.2109 155.797 14.4922 155.797 14.8359C155.797 15.2422 155.805 15.5 155.82 15.6094C155.852 15.9219 155.867 16.0703 155.867 16.0547C155.883 16.1172 155.938 16.1484 156.031 16.1484C156.125 16.1484 156.312 16.125 156.594 16.0781C156.891 16.0156 157.086 15.9766 157.18 15.9609V13.8984C157.18 13.3203 157.156 12.9297 157.109 12.7266C157.078 12.5703 157.062 12.4844 157.062 12.4688C157.062 12.3594 157.102 12.3047 157.18 12.3047C157.211 12.3047 157.32 12.3359 157.508 12.3984C157.805 12.5391 158 12.6641 158.094 12.7734C158.203 12.8828 158.242 13 158.211 13.125C158.164 13.2812 158.133 13.5938 158.117 14.0625C158.086 14.4375 158.055 15.0469 158.023 15.8906L158.82 15.8672C158.977 15.8672 159.094 15.8594 159.172 15.8438C159.25 15.8281 159.289 15.7969 159.289 15.75C159.398 15.1562 159.469 14.6406 159.5 14.2031L159.523 13.9219C159.539 13.8906 159.539 13.8359 159.523 13.7578C159.523 13.6797 159.523 13.625 159.523 13.5938L159.5 13.4297C159.5 13.2891 159.555 13.2188 159.664 13.2188C159.727 13.2188 159.859 13.2812 160.062 13.4062C160.109 13.4375 160.172 13.4844 160.25 13.5469C160.344 13.5938 160.406 13.6484 160.438 13.7109C160.469 13.7578 160.484 13.8203 160.484 13.8984C160.484 13.9922 160.477 14.0703 160.461 14.1328L160.203 15.4453L160.133 15.9844C160.07 16.3438 159.883 16.5391 159.57 16.5703C159.477 16.5547 159.398 16.5312 159.336 16.5C159.289 16.4688 159.25 16.4531 159.219 16.4531C159.031 16.4531 158.641 16.4922 158.047 16.5703L158.023 18.0234L158.422 18L158.797 17.9766C159.375 17.9766 159.805 17.9453 160.086 17.8828C160.211 17.8828 160.32 17.8672 160.414 17.8359L160.484 17.8125C160.641 17.8125 160.805 17.9219 160.977 18.1406C161.18 18.3438 161.281 18.4922 161.281 18.5859C161.281 18.7266 161.062 18.7734 160.625 18.7266L159.734 18.6797H158.562C158.328 18.6797 157.898 18.7109 157.273 18.7734C156.945 18.7734 156.648 18.7891 156.383 18.8203C156.117 18.8516 155.867 18.9062 155.633 18.9844L155.234 19.125ZM160.32 26.6719C160.086 26.6719 159.859 26.5 159.641 26.1562C159.359 25.7188 159.086 25.3594 158.82 25.0781L158.211 24.4453C157.883 24.8203 157.594 25.1172 157.344 25.3359C157.109 25.5547 156.812 25.7656 156.453 25.9688C155.781 26.3594 155.219 26.5547 154.766 26.5547C154.656 26.5547 154.602 26.5156 154.602 26.4375C154.602 26.3906 154.75 26.2891 155.047 26.1328C155.344 25.9766 155.625 25.7891 155.891 25.5703C156.562 25.0078 157.117 24.4297 157.555 23.8359C157.461 23.7422 156.992 23.3359 156.148 22.6172C156.039 22.5391 155.875 22.4062 155.656 22.2188C155.609 22.1875 155.516 22.1172 155.375 22.0078C155.234 21.8984 155.164 21.8203 155.164 21.7734C155.164 21.6953 155.203 21.6562 155.281 21.6562C155.516 21.6562 155.891 21.8203 156.406 22.1484C156.922 22.4609 157.461 22.8359 158.023 23.2734C158.242 23.0078 158.414 22.7578 158.539 22.5234C158.664 22.2891 158.805 22 158.961 21.6562C159.039 21.4844 159.086 21.3359 159.102 21.2109C159.117 21.0703 159.125 20.9844 159.125 20.9531C159.125 20.7812 159.172 20.6953 159.266 20.6953C159.375 20.6953 159.523 20.7812 159.711 20.9531C160.039 21.2656 160.203 21.4766 160.203 21.5859C160.203 21.6484 160.164 21.7188 160.086 21.7969C159.898 21.9844 159.727 22.2344 159.57 22.5469C159.477 22.7344 159.305 23 159.055 23.3438C158.977 23.4375 158.914 23.5234 158.867 23.6016C158.82 23.6797 158.773 23.75 158.727 23.8125C159.086 24.0781 159.617 24.5312 160.32 25.1719C160.492 25.3281 160.602 25.4766 160.648 25.6172C160.711 25.7422 160.742 25.9141 160.742 26.1328C160.742 26.2891 160.703 26.4219 160.625 26.5312C160.547 26.625 160.445 26.6719 160.32 26.6719ZM162.102 18.4219C162.18 18.4219 162.297 18.4766 162.453 18.5859C162.438 18.6172 162.469 18.6797 162.547 18.7734C162.625 18.8516 162.68 18.9062 162.711 18.9375C162.789 19.0156 162.867 19.1094 162.945 19.2188C163.039 19.3281 163.141 19.4453 163.25 19.5703C163.531 19.8672 164.18 20.6406 165.195 21.8906C165.367 22.1406 165.453 22.2891 165.453 22.3359C165.453 22.4922 165.359 22.5703 165.172 22.5703C165.062 22.5703 164.945 22.4922 164.82 22.3359C164.523 22.0234 163.992 21.5312 163.227 20.8594C162.633 20.3125 162.094 19.8906 161.609 19.5938C161.375 19.4844 161.258 19.3594 161.258 19.2188C161.258 19.1094 161.375 18.9531 161.609 18.75C161.828 18.5312 161.992 18.4219 162.102 18.4219ZM141.266 28.9219C140.922 28.9219 140.633 28.7891 140.398 28.5234C140.18 28.2578 140.023 27.9375 139.93 27.5625C139.93 27.4688 139.984 27.4219 140.094 27.4219C140.172 27.4219 140.234 27.4297 140.281 27.4453C140.625 27.5234 140.961 27.5625 141.289 27.5625H141.477L145.039 27.4453L145.016 21.8438L143.469 21.9141L142.766 21.9375C142.469 21.9375 142.273 21.8984 142.18 21.8203C141.93 21.6172 141.734 21.4141 141.594 21.2109C141.469 20.9922 141.406 20.8047 141.406 20.6484C141.406 20.5547 141.453 20.5078 141.547 20.5078C141.609 20.5078 141.664 20.5156 141.711 20.5312C141.977 20.5938 142.297 20.625 142.672 20.625H142.977L145.016 20.5312L144.992 15.8203L142.695 15.9609L141.922 15.9844C141.672 15.9844 141.5 15.9453 141.406 15.8672C141.125 15.6172 140.922 15.375 140.797 15.1406C140.672 14.9062 140.609 14.7422 140.609 14.6484C140.609 14.5547 140.664 14.5078 140.773 14.5078C140.836 14.5078 140.891 14.5156 140.938 14.5312C141.203 14.5938 141.523 14.625 141.898 14.625H142.203L148.648 14.2969C149.008 14.2656 149.359 14.1953 149.703 14.0859C149.734 14.0703 149.789 14.0625 149.867 14.0625C149.945 14.0625 150.094 14.1328 150.312 14.2734C150.547 14.4141 150.758 14.5703 150.945 14.7422C151.133 14.9141 151.227 15.0625 151.227 15.1875C151.227 15.375 151.047 15.4844 150.688 15.5156L146.445 15.75L146.469 20.4609L147.57 20.4141C148.117 20.3828 148.547 20.3125 148.859 20.2031C148.953 20.1719 149.023 20.1562 149.07 20.1562C149.273 20.1562 149.539 20.2969 149.867 20.5781C150.211 20.8594 150.383 21.0859 150.383 21.2578C150.383 21.4453 150.203 21.5547 149.844 21.5859L146.469 21.75L146.492 27.375L150.125 27.2578C150.562 27.2266 150.914 27.1719 151.18 27.0938C151.273 27.0625 151.336 27.0469 151.367 27.0469C151.602 27.0469 151.875 27.1953 152.188 27.4922C152.516 27.7891 152.68 28.0234 152.68 28.1953C152.68 28.4141 152.508 28.5391 152.164 28.5703H152.117L141.969 28.8984L141.266 28.9219ZM130.953 14.0625C130.953 13.9688 131 13.9219 131.094 13.9219C131.156 13.9219 131.211 13.9297 131.258 13.9453C131.492 14.0078 131.766 14.0391 132.078 14.0391H132.383L138.125 13.6875C138.438 13.6562 138.742 13.5938 139.039 13.5C139.133 13.4688 139.211 13.4531 139.273 13.4531C139.477 13.4531 139.719 13.5859 140 13.8516C140.297 14.1016 140.445 14.3203 140.445 14.5078C140.445 14.6953 140.289 14.8047 139.977 14.8359H139.93L132.852 15.3047C132.68 15.3203 132.461 15.3281 132.195 15.3281H132.078C131.891 15.3281 131.711 15.25 131.539 15.0938C131.367 14.9375 131.227 14.7578 131.117 14.5547C131.008 14.3516 130.953 14.1875 130.953 14.0625ZM132.383 22.5938C132.383 22.5 132.461 22.4531 132.617 22.4531C132.883 22.4531 133.438 22.6094 134.281 22.9219L138.336 22.7109L138.57 22.6875C138.758 22.6875 138.969 22.7891 139.203 22.9922C139.453 23.1797 139.578 23.3672 139.578 23.5547C139.578 23.6328 139.555 23.7188 139.508 23.8125C139.477 23.9062 139.453 23.9844 139.438 24.0469L139.039 27.1406C139.398 27.6094 139.578 27.9297 139.578 28.1016C139.578 28.2109 139.523 28.2812 139.414 28.3125C139.305 28.3594 139.141 28.3906 138.922 28.4062L134.586 28.5469L134.609 28.9922V29.0625C134.609 29.4062 134.461 29.5781 134.164 29.5781C133.977 29.5781 133.742 29.5078 133.461 29.3672C133.195 29.2422 133.062 29.0234 133.062 28.7109L133.086 28.5234C133.117 28.2422 133.133 28.0234 133.133 27.8672L133.109 27.3984L132.875 24.2812C132.828 23.7656 132.719 23.3438 132.547 23.0156C132.438 22.7969 132.383 22.6562 132.383 22.5938ZM132.594 19.8516C132.594 19.7734 132.633 19.7344 132.711 19.7344C132.773 19.7344 132.82 19.7422 132.852 19.7578C133.086 19.8203 133.352 19.8516 133.648 19.8516H133.906L137.094 19.7109C137.375 19.6953 137.648 19.6406 137.914 19.5469C138.039 19.5156 138.125 19.5 138.172 19.5C138.406 19.5 138.641 19.625 138.875 19.875C139.125 20.125 139.25 20.3281 139.25 20.4844C139.25 20.5938 139.195 20.6797 139.086 20.7422C138.992 20.8047 138.875 20.8438 138.734 20.8594L134.375 21.0938L133.883 21.1172C133.57 21.1172 133.359 21.0703 133.25 20.9766C133.078 20.8203 132.922 20.625 132.781 20.3906C132.656 20.1562 132.594 19.9766 132.594 19.8516ZM132.617 17.0156C132.617 16.9219 132.656 16.875 132.734 16.875C132.797 16.875 132.844 16.8828 132.875 16.8984C133.109 16.9609 133.375 16.9922 133.672 16.9922H133.906L137.094 16.7812C137.344 16.7656 137.617 16.7109 137.914 16.6172C138.008 16.5859 138.078 16.5703 138.125 16.5703C138.203 16.5703 138.336 16.625 138.523 16.7344C138.711 16.8438 138.875 16.9766 139.016 17.1328C139.172 17.2891 139.25 17.4453 139.25 17.6016C139.25 17.6953 139.195 17.7734 139.086 17.8359C138.992 17.8984 138.875 17.9375 138.734 17.9531L134.375 18.2344L133.883 18.2578C133.586 18.2578 133.383 18.2109 133.273 18.1172C133.07 17.9453 132.906 17.75 132.781 17.5312C132.672 17.2969 132.617 17.125 132.617 17.0156ZM133.555 10.7109C133.555 10.6016 133.609 10.4375 133.719 10.2188C133.828 10 133.984 9.89062 134.188 9.89062C134.281 9.89062 134.68 10.0312 135.383 10.3125C136.102 10.5938 136.758 10.8984 137.352 11.2266C137.945 11.5391 138.242 11.7891 138.242 11.9766C138.242 12.0391 138.211 12.1562 138.148 12.3281C138.102 12.4844 138.023 12.6406 137.914 12.7969C137.805 12.9375 137.672 13.0078 137.516 13.0078C137.391 13.0078 137.227 12.9453 137.023 12.8203C136.039 12.1953 135.031 11.6484 134 11.1797C133.703 11.0703 133.555 10.9141 133.555 10.7109ZM134.492 27.2812L137.656 27.1875L137.938 24.0469L134.281 24.2109L134.492 27.2812ZM143 9.86719C143 9.78906 143.062 9.64062 143.188 9.42188C143.312 9.20312 143.469 9.09375 143.656 9.09375C143.797 9.09375 143.945 9.14844 144.102 9.25781C146.633 10.9141 147.898 11.9609 147.898 12.3984C147.898 12.5391 147.805 12.7266 147.617 12.9609C147.445 13.1953 147.281 13.3125 147.125 13.3125C147 13.3125 146.852 13.2266 146.68 13.0547C145.648 12.0703 144.531 11.1484 143.328 10.2891C143.109 10.1484 143 10.0078 143 9.86719Z" fill="#FA760A"/>
<path d="M196.953 13.6406C197.156 13.8125 197.258 13.9375 197.258 14.0156C197.258 14.1562 197.062 14.2188 196.672 14.2031H196.18C195.742 14.2031 194.812 14.2578 193.391 14.3672C193.359 14.5703 193.32 14.7812 193.273 15C193.227 15.2031 193.195 15.3594 193.18 15.4688V15.6562C193.18 15.6719 193.18 15.6875 193.18 15.7031C193.18 15.7188 193.18 15.7344 193.18 15.75C193.258 15.75 193.312 15.7422 193.344 15.7266C193.422 15.7109 193.602 15.6875 193.883 15.6562C194.18 15.6094 194.477 15.5625 194.773 15.5156C194.867 15.5 194.961 15.4766 195.055 15.4453C195.148 15.3984 195.227 15.375 195.289 15.375C195.461 15.375 195.672 15.4844 195.922 15.7031C196.094 15.8438 196.18 15.9531 196.18 16.0312C196.18 16.2031 196.078 16.4609 195.875 16.8047C195.547 17.3828 195.195 17.8594 194.82 18.2344C194.367 18.6875 193.898 18.9844 193.414 19.125C193.352 19.1406 193.281 19.1484 193.203 19.1484C193.141 19.1484 193.109 19.1328 193.109 19.1016C193.109 19.0547 193.219 18.9297 193.438 18.7266C194.016 18.2266 194.5 17.6406 194.891 16.9688C195.109 16.5781 195.219 16.3438 195.219 16.2656C195.219 16.2031 195.18 16.1719 195.102 16.1719C195.039 16.1719 195 16.1719 194.984 16.1719L194.375 16.2422C193.766 16.3359 193.383 16.4062 193.227 16.4531C193.039 16.5469 192.891 16.5938 192.781 16.5938C192.672 16.5938 192.531 16.5078 192.359 16.3359C192.344 16.3203 192.305 16.2891 192.242 16.2422C192.195 16.1953 192.172 16.125 192.172 16.0312C192.172 15.9844 192.203 15.9141 192.266 15.8203C192.328 15.6953 192.375 15.5391 192.406 15.3516C192.438 15.1641 192.453 15.0469 192.453 15L192.547 14.4609C192.281 14.4922 191.859 14.5625 191.281 14.6719C191.125 14.7031 191.016 14.7188 190.953 14.7188C190.844 14.7188 190.719 14.6719 190.578 14.5781C190.281 14.375 190.133 14.2422 190.133 14.1797C190.133 14.0703 190.273 14.0078 190.555 13.9922L191.375 13.9219L192.688 13.7812C192.766 13.1562 192.805 12.7734 192.805 12.6328L192.828 12.1406C192.859 11.875 192.922 11.7422 193.016 11.7422C193.094 11.7422 193.188 11.7734 193.297 11.8359C193.5 11.9453 193.648 12.0625 193.742 12.1875C193.852 12.2969 193.891 12.3906 193.859 12.4688L193.695 12.9609C193.648 13.0547 193.586 13.2969 193.508 13.6875L195.547 13.5C195.719 13.4844 195.922 13.4375 196.156 13.3594L196.344 13.3359C196.5 13.3359 196.633 13.3828 196.742 13.4766C196.852 13.5547 196.922 13.6094 196.953 13.6406ZM194.023 27.3047C193.273 27.3047 192.648 27.1172 192.148 26.7422C191.633 26.3203 191.375 25.8281 191.375 25.2656C191.375 24.8281 191.539 24.4453 191.867 24.1172C192.289 23.7578 192.82 23.5781 193.461 23.5781C193.492 23.5781 193.516 23.5469 193.531 23.4844C193.562 23.4062 193.578 23.3047 193.578 23.1797L193.602 22.5703C193.492 22.5859 193.281 22.6094 192.969 22.6406C192.672 22.6719 192.453 22.7031 192.312 22.7344C192.391 22.7188 192.148 22.7734 191.586 22.8984C191.539 22.9141 191.453 22.9219 191.328 22.9219C191.031 22.9219 190.781 22.7891 190.578 22.5234C190.484 22.4297 190.438 22.3516 190.438 22.2891C190.438 22.1953 190.578 22.1484 190.859 22.1484L191.586 22.1016L193.578 21.8438V21.5625V20.9766C193.562 20.9141 193.555 20.8438 193.555 20.7656C193.555 20.6875 193.547 20.625 193.531 20.5781C193.5 20.4531 193.484 20.375 193.484 20.3438C193.484 20.2344 193.539 20.1797 193.648 20.1797C193.789 20.1797 194.031 20.2812 194.375 20.4844C194.484 20.5469 194.539 20.6328 194.539 20.7422C194.539 20.8203 194.523 20.8906 194.492 20.9531C194.477 21 194.469 21.0547 194.469 21.1172V21.7734L195.172 21.7031L196.039 21.6094C196.117 21.5938 196.203 21.5703 196.297 21.5391C196.406 21.5078 196.492 21.4922 196.555 21.4922C196.648 21.4922 196.766 21.5391 196.906 21.6328C197.172 21.8047 197.305 21.9531 197.305 22.0781C197.305 22.2031 197.172 22.2656 196.906 22.2656C196.828 22.2656 196.719 22.2812 196.578 22.3125C196.438 22.3281 196.258 22.3438 196.039 22.3594L194.469 22.4766L194.445 23.9062C194.414 24.1406 194.242 24.2891 193.93 24.3516H193.883C193.789 24.3516 193.695 24.3438 193.602 24.3281C193.523 24.2969 193.461 24.2812 193.414 24.2812C193.289 24.2812 193.164 24.2891 193.039 24.3047C192.914 24.3203 192.805 24.3672 192.711 24.4453C192.445 24.6797 192.312 24.9531 192.312 25.2656C192.312 25.5781 192.461 25.8594 192.758 26.1094C193.023 26.3594 193.445 26.4844 194.023 26.4844C194.789 26.4531 195.414 26.2422 195.898 25.8516C196.102 25.7109 196.258 25.6406 196.367 25.6406C196.43 25.6406 196.508 25.6562 196.602 25.6875C196.617 25.7031 196.648 25.7344 196.695 25.7812C196.742 25.8281 196.766 25.875 196.766 25.9219C196.766 26.3594 196.398 26.7188 195.664 27C195.117 27.2031 194.57 27.3047 194.023 27.3047ZM198.102 18.4219C198.18 18.4219 198.297 18.4766 198.453 18.5859C198.438 18.6172 198.469 18.6797 198.547 18.7734C198.625 18.8516 198.68 18.9062 198.711 18.9375C198.789 19.0156 198.867 19.1094 198.945 19.2188C199.039 19.3281 199.141 19.4453 199.25 19.5703C199.531 19.8672 200.18 20.6406 201.195 21.8906C201.367 22.1406 201.453 22.2891 201.453 22.3359C201.453 22.4922 201.359 22.5703 201.172 22.5703C201.062 22.5703 200.945 22.4922 200.82 22.3359C200.523 22.0234 199.992 21.5312 199.227 20.8594C198.633 20.3125 198.094 19.8906 197.609 19.5938C197.375 19.4844 197.258 19.3594 197.258 19.2188C197.258 19.1094 197.375 18.9531 197.609 18.75C197.828 18.5312 197.992 18.4219 198.102 18.4219ZM180.641 19.9688L180.664 28.0547C180.664 28.3984 180.539 28.5703 180.289 28.5703C180.195 28.5703 180.039 28.5312 179.82 28.4531C179.602 28.375 179.406 28.2578 179.234 28.1016C179.062 27.9453 178.977 27.75 178.977 27.5156L179 27.3281C179.109 26.4688 179.164 25.4141 179.164 24.1641V20.0625L176.281 20.2031L176.352 28.4531C176.352 28.7656 176.227 28.9219 175.977 28.9219C175.648 28.9219 175.344 28.8047 175.062 28.5703C174.781 28.3516 174.641 28.125 174.641 27.8906L174.664 27.7031C174.789 26.7344 174.852 25.6797 174.852 24.5391L174.828 20.2734L171.805 20.4375L171.781 29.4609C171.781 29.8828 171.641 30.0938 171.359 30.0938C171.109 30.0938 170.836 30.0078 170.539 29.8359C170.242 29.6641 170.094 29.4219 170.094 29.1094C170.094 29.0625 170.109 28.9297 170.141 28.7109C170.234 28.2734 170.281 27.8203 170.281 27.3516L170.305 20.5078L168.898 20.5781C168.742 20.5938 168.531 20.6016 168.266 20.6016C168.078 20.6016 167.922 20.5859 167.797 20.5547C167.672 20.5078 167.562 20.4297 167.469 20.3203C167.297 20.1172 167.164 19.9062 167.07 19.6875C166.992 19.4688 166.953 19.3281 166.953 19.2656C166.953 19.1719 167 19.125 167.094 19.125C167.156 19.125 167.211 19.1328 167.258 19.1484C167.617 19.2422 167.945 19.2891 168.242 19.2891H168.383L170.328 19.1953L170.352 12.7969C170.352 12.1875 170.273 11.75 170.117 11.4844C170.008 11.2969 169.953 11.1562 169.953 11.0625C169.953 10.9219 170.047 10.8516 170.234 10.8516C170.5 10.8516 171.055 11.0391 171.898 11.4141L184.273 10.6641H184.555C184.805 10.6641 185.039 10.7578 185.258 10.9453C185.477 11.1172 185.586 11.3125 185.586 11.5312C185.586 11.5938 185.562 11.6797 185.516 11.7891C185.484 11.8828 185.469 11.9453 185.469 11.9766L185.422 18.3984L186.5 18.3516C186.938 18.3203 187.258 18.2734 187.461 18.2109C187.492 18.1953 187.547 18.1875 187.625 18.1875C187.844 18.1875 188.102 18.3203 188.398 18.5859C188.68 18.8203 188.82 19.0312 188.82 19.2188C188.82 19.3281 188.766 19.4141 188.656 19.4766C188.547 19.5391 188.406 19.5781 188.234 19.5938L185.398 19.7344L185.328 28.1484C185.328 28.2891 185.336 28.4297 185.352 28.5703C185.383 28.7109 185.398 28.8516 185.398 28.9922C185.398 29.3359 185.273 29.6172 185.023 29.8359C184.789 30.0703 184.539 30.1875 184.273 30.1875C183.992 30.1875 183.594 29.9844 183.078 29.5781C182.562 29.1875 182.094 28.75 181.672 28.2656C181.25 27.7812 181.039 27.4609 181.039 27.3047C181.039 27.1641 181.109 27.0938 181.25 27.0938C181.359 27.0938 181.539 27.1562 181.789 27.2812C182.461 27.6719 183.148 27.9766 183.852 28.1953L183.922 19.8047L180.641 19.9688ZM174.828 18.9609L174.805 12.5625L171.828 12.7266L171.805 19.1016L174.828 18.9609ZM176.281 18.8906L179.164 18.7266L179.188 12.3047L176.234 12.4688L176.281 18.8906ZM180.641 18.6562L183.922 18.4922L183.969 12.0234L180.617 12.2109L180.641 18.6562Z" fill="#FA760A"/>
<path d="M227.234 19.125C227 19.125 226.789 19.0312 226.602 18.8438C226.367 18.6719 226.25 18.5391 226.25 18.4453C226.25 18.3359 226.43 18.2812 226.789 18.2812L227.938 18.2109L229.109 18.0938C229.141 17.8438 229.156 17.3672 229.156 16.6641C229.203 16.6641 228.961 16.6953 228.43 16.7578L227.984 16.8281C227.844 16.8906 227.719 16.9219 227.609 16.9219C227.516 16.9219 227.438 16.8906 227.375 16.8281C227.125 16.6094 227 16.4219 227 16.2656V15.1641C227 15.0547 226.961 14.6328 226.883 13.8984L226.859 13.6406C226.859 13.5156 226.883 13.4375 226.93 13.4062C226.977 13.375 227.062 13.375 227.188 13.4062C227.656 13.5312 227.883 13.6719 227.867 13.8281L227.844 13.9922C227.812 14.2109 227.797 14.4922 227.797 14.8359C227.797 15.2422 227.805 15.5 227.82 15.6094C227.852 15.9219 227.867 16.0703 227.867 16.0547C227.883 16.1172 227.938 16.1484 228.031 16.1484C228.125 16.1484 228.312 16.125 228.594 16.0781C228.891 16.0156 229.086 15.9766 229.18 15.9609V13.8984C229.18 13.3203 229.156 12.9297 229.109 12.7266C229.078 12.5703 229.062 12.4844 229.062 12.4688C229.062 12.3594 229.102 12.3047 229.18 12.3047C229.211 12.3047 229.32 12.3359 229.508 12.3984C229.805 12.5391 230 12.6641 230.094 12.7734C230.203 12.8828 230.242 13 230.211 13.125C230.164 13.2812 230.133 13.5938 230.117 14.0625C230.086 14.4375 230.055 15.0469 230.023 15.8906L230.82 15.8672C230.977 15.8672 231.094 15.8594 231.172 15.8438C231.25 15.8281 231.289 15.7969 231.289 15.75C231.398 15.1562 231.469 14.6406 231.5 14.2031L231.523 13.9219C231.539 13.8906 231.539 13.8359 231.523 13.7578C231.523 13.6797 231.523 13.625 231.523 13.5938L231.5 13.4297C231.5 13.2891 231.555 13.2188 231.664 13.2188C231.727 13.2188 231.859 13.2812 232.062 13.4062C232.109 13.4375 232.172 13.4844 232.25 13.5469C232.344 13.5938 232.406 13.6484 232.438 13.7109C232.469 13.7578 232.484 13.8203 232.484 13.8984C232.484 13.9922 232.477 14.0703 232.461 14.1328L232.203 15.4453L232.133 15.9844C232.07 16.3438 231.883 16.5391 231.57 16.5703C231.477 16.5547 231.398 16.5312 231.336 16.5C231.289 16.4688 231.25 16.4531 231.219 16.4531C231.031 16.4531 230.641 16.4922 230.047 16.5703L230.023 18.0234L230.422 18L230.797 17.9766C231.375 17.9766 231.805 17.9453 232.086 17.8828C232.211 17.8828 232.32 17.8672 232.414 17.8359L232.484 17.8125C232.641 17.8125 232.805 17.9219 232.977 18.1406C233.18 18.3438 233.281 18.4922 233.281 18.5859C233.281 18.7266 233.062 18.7734 232.625 18.7266L231.734 18.6797H230.562C230.328 18.6797 229.898 18.7109 229.273 18.7734C228.945 18.7734 228.648 18.7891 228.383 18.8203C228.117 18.8516 227.867 18.9062 227.633 18.9844L227.234 19.125ZM232.602 26.3906C232.82 26.5312 232.93 26.6641 232.93 26.7891C232.93 26.9609 232.797 27.0703 232.531 27.1172C232.266 27.1641 231.891 27.1953 231.406 27.2109C230.703 27.2266 230.25 27.2031 230.047 27.1406C229.703 26.9844 229.531 26.7266 229.531 26.3672L229.555 25.5C229.586 25.2188 229.602 24.9688 229.602 24.75C229.617 24.6094 229.625 24.3359 229.625 23.9297C229.391 24.4609 229.086 24.9766 228.711 25.4766C228.445 25.8047 228.211 26.0781 228.008 26.2969C227.805 26.5 227.562 26.6953 227.281 26.8828C227 27.0703 226.742 27.1641 226.508 27.1641C226.367 27.1641 226.297 27.1172 226.297 27.0234C226.297 27.0078 226.445 26.8906 226.742 26.6719C227.055 26.4375 227.367 26.1172 227.68 25.7109C228.148 25.0859 228.555 24.3516 228.898 23.5078C228.289 23.5859 227.883 23.6562 227.68 23.7188C227.602 23.7344 227.531 23.7578 227.469 23.7891C227.406 23.8047 227.328 23.8047 227.234 23.7891C227.156 23.7578 227.047 23.6953 226.906 23.6016C226.766 23.4922 226.656 23.3906 226.578 23.2969C226.516 23.2031 226.484 23.1406 226.484 23.1094C226.484 23.0312 226.602 22.9922 226.836 22.9922C227.414 22.9922 228.156 22.9297 229.062 22.8047C229.156 22.4453 229.203 21.8672 229.203 21.0703V20.625C229.203 20.4375 229.242 20.3359 229.32 20.3203C229.336 20.3047 229.367 20.2969 229.414 20.2969C229.539 20.2969 229.711 20.3906 229.93 20.5781C230.102 20.7188 230.211 20.8281 230.258 20.9062C230.32 20.9688 230.328 21.0547 230.281 21.1641C230.266 21.1953 230.234 21.2578 230.188 21.3516C230.141 21.4453 230.109 21.5391 230.094 21.6328C230.078 21.7109 230.047 21.8672 230 22.1016C229.953 22.3203 229.922 22.5156 229.906 22.6875C230.125 22.6719 230.398 22.6406 230.727 22.5938C231.055 22.5469 231.297 22.5 231.453 22.4531L231.922 22.3359C232.078 22.3047 232.336 22.4375 232.695 22.7344C232.758 22.7812 232.789 22.8359 232.789 22.8984C232.789 22.9609 232.758 23.0156 232.695 23.0625C232.648 23.0938 232.586 23.1094 232.508 23.1094C232.227 23.1094 231.711 23.1562 230.961 23.25L230.188 23.3203C230.359 23.4453 230.469 23.5547 230.516 23.6484C230.562 23.7422 230.57 23.8359 230.539 23.9297L230.469 24.3047C230.438 24.6172 230.406 24.9609 230.375 25.3359C230.359 25.7109 230.359 26 230.375 26.2031C230.375 26.2812 230.422 26.3516 230.516 26.4141C230.625 26.4766 230.734 26.5078 230.844 26.5078C231.234 26.5078 231.672 26.4688 232.156 26.3906L232.367 26.3438C232.461 26.3438 232.539 26.3594 232.602 26.3906ZM234.102 18.4219C234.18 18.4219 234.297 18.4766 234.453 18.5859C234.438 18.6172 234.469 18.6797 234.547 18.7734C234.625 18.8516 234.68 18.9062 234.711 18.9375C234.789 19.0156 234.867 19.1094 234.945 19.2188C235.039 19.3281 235.141 19.4453 235.25 19.5703C235.531 19.8672 236.18 20.6406 237.195 21.8906C237.367 22.1406 237.453 22.2891 237.453 22.3359C237.453 22.4922 237.359 22.5703 237.172 22.5703C237.062 22.5703 236.945 22.4922 236.82 22.3359C236.523 22.0234 235.992 21.5312 235.227 20.8594C234.633 20.3125 234.094 19.8906 233.609 19.5938C233.375 19.4844 233.258 19.3594 233.258 19.2188C233.258 19.1094 233.375 18.9531 233.609 18.75C233.828 18.5312 233.992 18.4219 234.102 18.4219ZM217.227 20.3203C217.992 21.5703 218.633 22.5391 219.148 23.2266C220.523 22.1797 221.289 21.3516 221.445 20.7422C221.492 20.5391 221.586 20.4375 221.727 20.4375C221.898 20.4375 222.102 20.5938 222.336 20.9062C222.586 21.2031 222.711 21.4609 222.711 21.6797C222.711 21.9141 222.312 22.3281 221.516 22.9219C220.734 23.5156 220.18 23.9062 219.852 24.0938C220.539 24.9219 221.305 25.6406 222.148 26.25C222.992 26.8594 223.992 27.3984 225.148 27.8672C225.398 27.9609 225.523 28.0547 225.523 28.1484C225.523 28.1797 225.445 28.2891 225.289 28.4766C225.148 28.6641 224.984 28.8359 224.797 28.9922C224.609 29.1484 224.438 29.2266 224.281 29.2266C224.25 29.2266 224.188 29.2109 224.094 29.1797C222.812 28.5391 221.703 27.8125 220.766 27C219.844 26.1875 219.008 25.2734 218.258 24.2578C217.523 23.2266 216.734 21.9375 215.891 20.3906L215.094 20.4375L215.023 27.375C216.32 26.9219 217.516 26.4375 218.609 25.9219C218.75 25.8438 218.898 25.8047 219.055 25.8047C219.195 25.8047 219.266 25.8516 219.266 25.9453C219.266 26.0859 219 26.3594 218.469 26.7656C217.953 27.1719 217.305 27.625 216.523 28.125C216.211 28.3281 215.945 28.5 215.727 28.6406C215.523 28.7969 215.359 28.9141 215.234 28.9922C214.656 29.4141 214.289 29.625 214.133 29.625C213.992 29.625 213.82 29.5312 213.617 29.3438C213.43 29.1719 213.336 29.0078 213.336 28.8516C213.336 29.1016 213.391 28.8359 213.5 28.0547C213.609 27.2891 213.664 26.8203 213.664 26.6484L213.734 20.5078L213.242 20.5312C212.914 20.5312 212.656 20.4766 212.469 20.3672C212.281 20.2422 212.102 20 211.93 19.6406L211.953 20.9766C211.953 21.1484 211.961 21.2969 211.977 21.4219C211.992 21.5469 212 21.6562 212 21.75C212 21.9688 211.93 22.1641 211.789 22.3359C211.664 22.4922 211.516 22.6172 211.344 22.7109C211.188 22.8047 211.062 22.8516 210.969 22.8516C210.75 22.8516 210.383 22.6484 209.867 22.2422C209.367 21.8359 208.969 21.4219 208.672 21L208.531 29.4141C208.531 29.7109 208.414 29.8594 208.18 29.8594C208.117 29.8594 207.992 29.8281 207.805 29.7656C207.617 29.7188 207.438 29.625 207.266 29.4844C207.094 29.3594 207.008 29.1953 207.008 28.9922C207.008 28.8828 207.016 28.7969 207.031 28.7344C207.047 28.6406 207.078 28.4531 207.125 28.1719C207.172 27.9062 207.195 27.6328 207.195 27.3516L207.336 15.7734L205.719 15.8672L205.695 22.7812C205.695 22.9062 205.656 23.0156 205.578 23.1094C205.516 23.1875 205.43 23.2266 205.32 23.2266C205.07 23.2266 204.812 23.1016 204.547 22.8516C204.297 22.5859 204.172 22.3438 204.172 22.125V22.0078C204.266 21.5703 204.312 21.1484 204.312 20.7422L204.359 16.0078C204.359 15.4922 204.289 15.0625 204.148 14.7188C204.039 14.4688 203.984 14.3125 203.984 14.25C203.984 14.1406 204.055 14.0859 204.195 14.0859C204.445 14.0859 204.977 14.2734 205.789 14.6484L207.359 14.5547L207.406 10.8984C207.406 10.5078 207.328 10.1484 207.172 9.82031C207.141 9.75781 207.125 9.71094 207.125 9.67969C207.125 9.58594 207.195 9.53906 207.336 9.53906C207.477 9.53906 207.75 9.60156 208.156 9.72656C208.438 9.83594 208.617 9.9375 208.695 10.0312C208.789 10.1094 208.836 10.2344 208.836 10.4062L208.766 14.4609L210.805 14.3203H211.016C211.281 14.3203 211.508 14.3984 211.695 14.5547C211.898 14.6953 212 14.8672 212 15.0703C212 15.1328 211.984 15.2266 211.953 15.3516C211.922 15.4766 211.906 15.5703 211.906 15.6328L211.93 19.1016C211.961 19.1016 212.039 19.1172 212.164 19.1484C212.414 19.2109 212.695 19.2422 213.008 19.2422H213.266L214.156 19.2188V11.8594C214.156 11.4531 214.07 11.0391 213.898 10.6172C213.805 10.3672 213.758 10.2109 213.758 10.1484C213.758 10.0234 213.828 9.96094 213.969 9.96094C214.203 9.96094 214.734 10.1641 215.562 10.5703L220.391 10.2422C220.781 10.2109 221.117 10.1484 221.398 10.0547C221.492 10.0234 221.57 10.0078 221.633 10.0078C221.852 10.0078 222.102 10.1406 222.383 10.4062C222.664 10.6562 222.805 10.8672 222.805 11.0391C222.805 11.2266 222.633 11.3359 222.289 11.3672L215.539 11.7891L215.516 13.4766L219.477 13.1953C219.898 13.1641 220.234 13.1016 220.484 13.0078C220.578 12.9766 220.656 12.9609 220.719 12.9609C220.922 12.9609 221.172 13.0859 221.469 13.3359C221.766 13.5859 221.914 13.8047 221.914 13.9922C221.914 14.1641 221.742 14.2656 221.398 14.2969L215.516 14.6719L215.492 16.1484L219.406 15.9375C219.828 15.9062 220.172 15.8438 220.438 15.75C220.531 15.7188 220.602 15.7031 220.648 15.7031C220.852 15.7031 221.102 15.8281 221.398 16.0781C221.695 16.3281 221.844 16.5469 221.844 16.7344C221.844 16.9062 221.672 17.0078 221.328 17.0391L215.492 17.3672L215.469 19.1484L222.406 18.8203C222.844 18.7891 223.18 18.7344 223.414 18.6562C223.508 18.625 223.578 18.6094 223.625 18.6094C223.844 18.6094 224.094 18.7422 224.375 19.0078C224.672 19.2578 224.82 19.4766 224.82 19.6641C224.82 19.8359 224.648 19.9375 224.305 19.9688L217.227 20.3203ZM208.672 20.3203C209.297 20.7109 209.93 21.0391 210.57 21.3047L210.523 15.5625L208.742 15.6797L208.672 20.3203Z" fill="#FA760A"/>
<path d="M262.414 18.6328C262.398 18.6328 262.344 18.6484 262.25 18.6797C262.172 18.6953 262.133 18.6719 262.133 18.6094C262.133 18.5938 262.164 18.5625 262.227 18.5156C262.289 18.4531 262.344 18.3984 262.391 18.3516C262.438 18.3047 262.508 18.2422 262.602 18.1641C262.695 18.0703 262.766 17.9766 262.812 17.8828C263.047 17.4922 263.211 17.1016 263.305 16.7109L263.445 15.8906C263.555 15.2812 263.602 14.5703 263.586 13.7578C263.586 13.5703 263.562 13.375 263.516 13.1719C263.5 13.0781 263.422 12.9453 263.281 12.7734V12.75C263.281 12.7188 263.32 12.7031 263.398 12.7031C263.508 12.7031 263.602 12.7109 263.68 12.7266C263.883 12.7734 264.109 12.7969 264.359 12.7969C264.625 12.7812 264.789 12.7734 264.852 12.7734L266.422 12.6562C266.734 12.625 266.938 12.6094 267.031 12.6094C267.703 12.5156 268.008 12.4766 267.945 12.4922C268.305 12.4297 268.523 12.3984 268.602 12.3984C268.852 12.4141 269.102 12.6094 269.352 12.9844L269.398 13.1016C269.398 13.1953 269.328 13.25 269.188 13.2656C269.047 13.2812 268.961 13.2891 268.93 13.2891C268.445 13.2891 268.086 13.2969 267.852 13.3125C267.258 13.3125 266.82 13.3203 266.539 13.3359L265.883 13.3828L264.547 13.5234C264.453 14.8359 264.367 15.6953 264.289 16.1016C264.164 16.8359 263.922 17.4297 263.562 17.8828C263.297 18.2266 262.914 18.4766 262.414 18.6328ZM268.32 25.6172C268.352 25.6797 268.406 25.7734 268.484 25.8984C268.562 26.0234 268.602 26.1719 268.602 26.3438C268.602 26.5 268.539 26.625 268.414 26.7188C268.289 26.8281 268.148 26.8828 267.992 26.8828C267.852 26.8828 267.734 26.7422 267.641 26.4609C267.594 26.3516 267.555 26.2656 267.523 26.2031C267.508 26.125 267.492 26.0625 267.477 26.0156C267.273 26.0781 267.008 26.1328 266.68 26.1797C266.352 26.2266 266.117 26.2656 265.977 26.2969C265.227 26.4375 264.711 26.5391 264.43 26.6016C264.32 26.6328 264.203 26.6719 264.078 26.7188C263.953 26.75 263.883 26.7734 263.867 26.7891C263.773 26.8203 263.703 26.8359 263.656 26.8359C263.531 26.8359 263.414 26.7812 263.305 26.6719C263.117 26.5312 262.977 26.3438 262.883 26.1094C262.867 26.0938 262.859 26.0703 262.859 26.0391C262.859 26.0078 262.898 25.9688 262.977 25.9219C263.07 25.875 263.141 25.8438 263.188 25.8281C263.391 25.7188 263.75 25.3906 264.266 24.8438L264.898 24.2344L263.516 23.4844C263.359 23.4375 263.258 23.3828 263.211 23.3203C263.164 23.2578 263.141 23.1641 263.141 23.0391C263.141 22.9453 263.156 22.8828 263.188 22.8516C263.234 22.8047 263.328 22.7344 263.469 22.6406C263.609 22.5469 263.75 22.4219 263.891 22.2656C263.969 22.1719 264.07 22.0703 264.195 21.9609C264.32 21.8516 264.438 21.7344 264.547 21.6094C265.016 21.0625 265.312 20.6328 265.438 20.3203C265.516 20.1641 265.578 20.0859 265.625 20.0859C265.656 20.0859 265.719 20.1172 265.812 20.1797C266.109 20.3984 266.289 20.6016 266.352 20.7891V20.8594C266.352 20.9375 266.312 21 266.234 21.0469C266.156 21.0938 266.102 21.1328 266.07 21.1641C266.023 21.1953 265.789 21.4219 265.367 21.8438L264.945 22.2656C264.867 22.3438 264.734 22.4766 264.547 22.6641C264.359 22.8359 264.266 22.9375 264.266 22.9688C264.266 23.0156 264.289 23.0547 264.336 23.0859C264.398 23.1172 264.445 23.1484 264.477 23.1797L265.461 23.6484C266.07 23.0391 266.422 22.6797 266.516 22.5703C266.922 22.1016 267.148 21.8047 267.195 21.6797C267.211 21.6641 267.234 21.625 267.266 21.5625C267.297 21.5 267.328 21.4688 267.359 21.4688C267.406 21.4688 267.453 21.4922 267.5 21.5391C267.75 21.7734 267.93 21.9922 268.039 22.1953C268.07 22.2578 268.086 22.2969 268.086 22.3125C268.086 22.3438 268.047 22.3906 267.969 22.4531C267.906 22.5 267.844 22.5469 267.781 22.5938C267.234 23.0469 266.594 23.6406 265.859 24.375L264.43 25.7109C264.398 25.7422 264.383 25.7734 264.383 25.8047C264.383 25.8359 264.398 25.8594 264.43 25.875C264.461 25.8906 264.508 25.8906 264.57 25.875L267.312 25.4062C267.234 25.0938 267.141 24.7812 267.031 24.4688V24.4219C267.031 24.375 267.055 24.3516 267.102 24.3516C267.164 24.3516 267.258 24.3984 267.383 24.4922C267.633 24.7109 267.945 25.0859 268.32 25.6172ZM270.102 18.4219C270.18 18.4219 270.297 18.4766 270.453 18.5859C270.438 18.6172 270.469 18.6797 270.547 18.7734C270.625 18.8516 270.68 18.9062 270.711 18.9375C270.789 19.0156 270.867 19.1094 270.945 19.2188C271.039 19.3281 271.141 19.4453 271.25 19.5703C271.531 19.8672 272.18 20.6406 273.195 21.8906C273.367 22.1406 273.453 22.2891 273.453 22.3359C273.453 22.4922 273.359 22.5703 273.172 22.5703C273.062 22.5703 272.945 22.4922 272.82 22.3359C272.523 22.0234 271.992 21.5312 271.227 20.8594C270.633 20.3125 270.094 19.8906 269.609 19.5938C269.375 19.4844 269.258 19.3594 269.258 19.2188C269.258 19.1094 269.375 18.9531 269.609 18.75C269.828 18.5312 269.992 18.4219 270.102 18.4219ZM250.062 15.0703C250.062 17.3516 249.961 19.4062 249.758 21.2344C249.602 22.8438 249.258 24.2891 248.727 25.5703C248.195 26.8359 247.641 27.8359 247.062 28.5703C246.5 29.3203 246.117 29.6953 245.914 29.6953C245.805 29.6953 245.75 29.625 245.75 29.4844C245.75 29.3438 245.836 29.125 246.008 28.8281C247.039 27 247.742 25.0547 248.117 22.9922C248.492 20.9297 248.68 18.6953 248.68 16.2891V15.8203C248.664 14.9766 248.586 14.2969 248.445 13.7812C248.398 13.6406 248.375 13.5312 248.375 13.4531C248.375 13.3281 248.438 13.2656 248.562 13.2656C248.797 13.2656 249.305 13.4922 250.086 13.9453L252.781 13.7578V10.5C252.781 10 252.695 9.625 252.523 9.375C252.477 9.29688 252.453 9.22656 252.453 9.16406C252.453 9.05469 252.547 9 252.734 9C252.922 9 253.188 9.05469 253.531 9.16406C253.766 9.22656 253.922 9.3125 254 9.42188C254.078 9.53125 254.117 9.67969 254.117 9.86719V11.1094L256.461 10.9453C256.727 10.9141 256.984 10.8594 257.234 10.7812C257.266 10.7656 257.305 10.7578 257.352 10.7578C257.508 10.7578 257.664 10.8281 257.82 10.9688C257.977 11.0938 258.109 11.2422 258.219 11.4141C258.344 11.5859 258.406 11.6953 258.406 11.7422C258.406 11.8359 258.359 11.8984 258.266 11.9297C258.172 11.9609 258.031 11.9844 257.844 12L254.094 12.2578V13.6875L258.898 13.3594H259.086C259.383 13.3594 259.633 13.4609 259.836 13.6641C260.039 13.8672 260.141 14.0391 260.141 14.1797C260.141 14.3047 259.938 14.5625 259.531 14.9531C259.125 15.3281 258.688 15.6797 258.219 16.0078C257.75 16.3359 257.43 16.5 257.258 16.5C257.148 16.5 257.094 16.4531 257.094 16.3594C257.094 16.2188 257.203 16.0391 257.422 15.8203C257.859 15.3203 258.164 14.8984 258.336 14.5547L250.062 15.0703ZM239.141 18.3047C239.141 18.1797 239.18 18.1172 239.258 18.1172C239.305 18.1172 239.344 18.125 239.375 18.1406C239.641 18.25 239.906 18.3047 240.172 18.3047H240.336L245.656 18.0469C245.984 18.0312 246.336 17.9609 246.711 17.8359C246.836 17.8047 246.922 17.7891 246.969 17.7891C247.141 17.7891 247.32 17.8594 247.508 18C247.695 18.125 247.852 18.2734 247.977 18.4453C248.102 18.6016 248.164 18.7109 248.164 18.7734C248.164 18.9609 247.977 19.0703 247.602 19.1016L243.383 19.3594L242.609 21.5156L245.188 21.3281L245.539 21.3047C245.773 21.3047 245.984 21.3828 246.172 21.5391C246.359 21.6953 246.453 21.8672 246.453 22.0547C246.453 22.1328 246.422 22.25 246.359 22.4062C246.297 22.5625 246.266 22.6875 246.266 22.7812C246.141 23.75 245.984 24.6172 245.797 25.3828C245.625 26.1484 245.398 26.9609 245.117 27.8203C245.008 28.1016 244.844 28.3906 244.625 28.6875C244.422 28.9844 244.141 29.1328 243.781 29.1328C243.516 29.1328 243.109 28.9297 242.562 28.5234C242.031 28.1328 241.539 27.6953 241.086 27.2109C240.648 26.7266 240.43 26.3906 240.43 26.2031C240.43 26.125 240.477 26.0859 240.57 26.0859C240.727 26.0859 240.961 26.1875 241.273 26.3906C241.914 26.7969 242.664 27.1562 243.523 27.4688C243.539 27.4844 243.57 27.4922 243.617 27.4922C243.727 27.4922 243.789 27.4453 243.805 27.3516C244.305 26.0078 244.672 24.3906 244.906 22.5L242.797 22.6406C242.625 22.6562 242.438 22.6953 242.234 22.7578C242.031 22.8047 241.891 22.8281 241.812 22.8281C241.688 22.8281 241.523 22.75 241.32 22.5938C241.133 22.4375 241.039 22.2734 241.039 22.1016C241.039 22.0391 241.086 21.8828 241.18 21.6328L242 19.4297L240.641 19.5234H240.336C240.008 19.5234 239.781 19.4688 239.656 19.3594C239.469 19.2031 239.336 19.0234 239.258 18.8203C239.18 18.6016 239.141 18.4297 239.141 18.3047ZM240.734 11.1094C240.734 11.0156 240.797 10.9688 240.922 10.9688C241.172 10.9688 241.664 11.1094 242.398 11.3906L245.773 11.1094L246.008 11.0859C246.211 11.0859 246.438 11.1797 246.688 11.3672C246.906 11.5078 247.016 11.6719 247.016 11.8594C247.016 11.9375 246.977 12.0469 246.898 12.1875C246.836 12.3125 246.805 12.3984 246.805 12.4453L246.359 15.0234C246.781 15.4297 246.992 15.7344 246.992 15.9375C246.992 16.0938 246.828 16.1875 246.5 16.2188L242.727 16.4297L242.773 16.9219V16.9922C242.773 17.2422 242.664 17.3672 242.445 17.3672C242.227 17.3672 241.984 17.2891 241.719 17.1328C241.453 16.9766 241.32 16.7734 241.32 16.5234C241.32 16.3984 241.328 16.3047 241.344 16.2422C241.375 16.0703 241.391 15.8203 241.391 15.4922C241.391 15.2109 241.383 14.9922 241.367 14.8359L241.109 12.4453C241.047 12.0391 240.961 11.7109 240.852 11.4609C240.773 11.3047 240.734 11.1875 240.734 11.1094ZM242.656 15.3047L245.117 15.1641L245.445 12.2812L242.445 12.5156L242.656 15.3047ZM248.188 29.5781C248.188 29.4062 248.367 29.2109 248.727 28.9922C250.82 27.6641 251.906 25.7578 251.984 23.2734V23.0859C251.984 22.6953 251.914 22.3672 251.773 22.1016C251.727 22.0234 251.703 21.9531 251.703 21.8906C251.703 21.7969 251.781 21.75 251.938 21.75C252.188 21.75 252.492 21.8281 252.852 21.9844C253.211 22.125 253.391 22.3594 253.391 22.6875C253.344 23.9531 253.109 25.1328 252.688 26.2266C252.391 26.9766 251.953 27.6094 251.375 28.125C250.797 28.6562 250.219 29.0547 249.641 29.3203C249.062 29.5859 248.656 29.7188 248.422 29.7188C248.266 29.7188 248.188 29.6719 248.188 29.5781ZM250.297 17.625C250.297 17.5625 250.328 17.5312 250.391 17.5312C250.453 17.5312 250.508 17.5391 250.555 17.5547C250.742 17.6016 250.914 17.625 251.07 17.625C251.211 17.625 251.32 17.6172 251.398 17.6016L252.711 17.4609V16.5234C252.711 16.1641 252.641 15.8438 252.5 15.5625C252.453 15.4688 252.43 15.3984 252.43 15.3516C252.43 15.2578 252.5 15.2109 252.641 15.2109C252.828 15.2109 253.102 15.2734 253.461 15.3984C253.82 15.5234 254 15.75 254 16.0781L253.977 17.2969L256.32 17.0391C256.586 17.0234 256.852 16.9609 257.117 16.8516C257.18 16.8203 257.234 16.8047 257.281 16.8047C257.453 16.8047 257.648 16.9219 257.867 17.1562C258.102 17.375 258.219 17.5469 258.219 17.6719C258.219 17.8125 258.109 17.9062 257.891 17.9531L257.75 17.9766L253.953 18.3984L253.93 19.3828C253.93 19.5703 253.953 19.7031 254 19.7812C254.047 19.8594 254.141 19.9141 254.281 19.9453C254.438 19.9609 254.688 19.9688 255.031 19.9688C255.547 19.9688 255.945 19.9375 256.227 19.875C256.508 19.8125 256.758 19.7266 256.977 19.6172C257.07 19.5703 257.156 19.5469 257.234 19.5469C257.391 19.5469 257.586 19.6719 257.82 19.9219C258.07 20.1562 258.195 20.3594 258.195 20.5312C258.195 20.75 257.984 20.8828 257.562 20.9297C256.422 21.0859 255.492 21.1641 254.773 21.1641C254.305 21.1641 253.93 21.1406 253.648 21.0938C253.367 21.0312 253.133 20.8828 252.945 20.6484C252.773 20.4141 252.688 20.0547 252.688 19.5703V18.5391L251.656 18.6562C251.578 18.6719 251.469 18.6797 251.328 18.6797C251.031 18.6797 250.781 18.5625 250.578 18.3281C250.391 18.0781 250.297 17.8438 250.297 17.625ZM254.703 21.8203C254.703 21.7109 254.797 21.6562 254.984 21.6562C255.188 21.6562 255.469 21.7266 255.828 21.8672C256.203 21.9922 256.391 22.2188 256.391 22.5469L256.297 27.0234C256.297 27.4297 256.398 27.6875 256.602 27.7969C256.82 27.8906 257.195 27.9375 257.727 27.9375C258.383 27.9375 258.836 27.8828 259.086 27.7734C259.336 27.6641 259.516 27.4219 259.625 27.0469C259.75 26.6719 259.891 25.9609 260.047 24.9141C260.141 24.3047 260.281 24 260.469 24C260.547 24 260.609 24.0781 260.656 24.2344C260.703 24.3906 260.734 24.6172 260.75 24.9141V25.5938C260.75 26.6875 260.695 27.4688 260.586 27.9375C260.477 28.4062 260.203 28.75 259.766 28.9688C259.328 29.1875 258.602 29.2969 257.586 29.2969C256.992 29.2969 256.516 29.2578 256.156 29.1797C255.812 29.1172 255.523 28.9375 255.289 28.6406C255.07 28.3438 254.961 27.8906 254.961 27.2812V27.1875L255.031 22.9219C255.031 22.5469 254.945 22.2422 254.773 22.0078C254.727 21.9297 254.703 21.8672 254.703 21.8203Z" fill="#FA760A"/>
<path d="M286.789 24.0469C286.789 24.1719 286.719 24.2656 286.578 24.3281C286.453 24.3906 286.297 24.4219 286.109 24.4219C285.75 24.4219 285.492 24.3672 285.336 24.2578C285.18 24.1484 285.078 24.0078 285.031 23.8359C285 23.6641 284.984 23.4219 284.984 23.1094C284.984 22.7031 285.016 22.3047 285.078 21.9141C285.172 21.2578 285.422 20.7031 285.828 20.25C286.234 19.7812 286.812 19.2578 287.562 18.6797C288.109 18.2578 288.547 17.8906 288.875 17.5781C289.203 17.2656 289.477 16.8984 289.695 16.4766C289.93 16.0547 290.047 15.5781 290.047 15.0469C290.047 14.4844 289.789 14.0078 289.273 13.6172C288.758 13.2266 288.133 13.0312 287.398 13.0312C286.523 13.0312 285.695 13.1797 284.914 13.4766C284.148 13.7578 283.531 14.1328 283.062 14.6016C282.703 14.9922 282.422 15.5234 282.219 16.1953C282.156 16.3984 282.016 16.5 281.797 16.5C281.562 16.5 281.32 16.3984 281.07 16.1953C280.82 15.9766 280.695 15.75 280.695 15.5156C280.695 15.3125 280.953 14.8906 281.469 14.25C281.984 13.5938 282.742 13 283.742 12.4688C284.742 11.9219 285.953 11.6484 287.375 11.6484C288.609 11.6484 289.648 11.9453 290.492 12.5391C291.336 13.1328 291.758 13.9219 291.758 14.9062C291.758 15.625 291.617 16.2578 291.336 16.8047C291.055 17.3359 290.719 17.7891 290.328 18.1641C289.938 18.5234 289.422 18.9453 288.781 19.4297C288.078 19.9609 287.547 20.4219 287.188 20.8125C286.844 21.1875 286.641 21.625 286.578 22.125C286.562 22.25 286.555 22.4297 286.555 22.6641C286.555 23.0234 286.625 23.4531 286.766 23.9531L286.789 24.0469ZM284.633 27.1641C284.633 26.8203 284.734 26.5391 284.938 26.3203C285.156 26.1016 285.469 25.9922 285.875 25.9922C286.172 25.9922 286.445 26.1562 286.695 26.4844C286.961 26.7969 287.094 27.1328 287.094 27.4922C287.094 27.8203 286.992 28.0781 286.789 28.2656C286.586 28.4688 286.281 28.5703 285.875 28.5703C285.547 28.5703 285.258 28.4219 285.008 28.125C284.758 27.8281 284.633 27.5078 284.633 27.1641Z" fill="#333333"/>
</svg>
