<svg xmlns="http://www.w3.org/2000/svg" width="350" height="40" fill="none"><path fill="#333" d="M84.008 18.68c-.094 0-.227-.07-.399-.211a1.534 1.534 0 0 1-.234-.188c-.063-.062-.094-.117-.094-.164l.024-.375c.015-.14.023-.453.023-.937a60.864 60.864 0 0 1-.023-2.157c0-.437-.04-.835-.118-1.195l-.093-.562v-.07c0-.141.094-.18.281-.118.078.016.258.047.54.094.296-.047 1.288-.164 2.976-.352a6.932 6.932 0 0 0 .867-.164h.094c.171 0 .328.086.468.258.25.297.352.508.305.633-.063.156-.125.422-.188.797-.03.219-.07.594-.117 1.125V17.882c0 .141-.07.329-.21.563a.365.365 0 0 1-.188.188.491.491 0 0 1-.258.07c-.094 0-.164-.023-.21-.07l-.095-.094a.265.265 0 0 0-.093-.094c-.016-.015-.047-.023-.094-.023-.969 0-1.844.062-2.625.187a.772.772 0 0 1-.188.024.442.442 0 0 0-.14.023l-.164.024h-.047Zm.445-.867c.39-.016.922-.063 1.594-.141.312-.031.492-.047.539-.047h.187c.25 0 .438.047.563.14.11-.78.164-2.21.164-4.288-.031-.235-.125-.352-.281-.352-.297 0-.899.055-1.805.164-.094 0-.187.008-.281.024l-.281.046c-.266.047-.461.07-.586.07-.11 0-.149.055-.118.165l-.023.797c-.016.109-.023.21-.023.304.015.094.023.18.023.258.016.125.023.328.023.61 0 1.218.008 1.89.024 2.015 0 .11.031.18.094.211a.265.265 0 0 0 .187.023Zm1.734-1.313c-.171 0-.304-.086-.398-.258-.328-.547-.633-1-.914-1.36l-.164-.257c-.063-.094-.094-.164-.094-.21.016-.063.055-.087.117-.071.407.125.782.328 1.125.61.532.405.797.718.797.937 0 .109-.031.218-.094.328-.109.187-.234.281-.374.281Zm2.133 10.172c-.234 0-.46-.172-.68-.516a7.425 7.425 0 0 0-.82-1.078l-.61-.633a9.616 9.616 0 0 1-.866.89c-.235.22-.531.43-.89.634-.673.39-1.235.586-1.688.586-.11 0-.164-.04-.164-.117 0-.047.148-.149.445-.305.297-.156.578-.344.844-.563a10.11 10.11 0 0 0 1.664-1.734c-.094-.094-.563-.5-1.407-1.219a8.047 8.047 0 0 1-.492-.398 6.225 6.225 0 0 1-.281-.211c-.14-.11-.21-.188-.21-.235 0-.078.038-.117.116-.117.235 0 .61.164 1.125.492.516.313 1.055.688 1.617 1.125.22-.265.391-.515.516-.75.125-.234.266-.523.422-.867a1.59 1.59 0 0 0 .14-.445c.016-.14.024-.227.024-.258 0-.172.047-.258.14-.258.11 0 .258.086.446.258.328.313.492.524.492.633 0 .062-.039.133-.117.21-.188.188-.36.438-.516.75a6.303 6.303 0 0 1-.515.798c-.078.093-.14.18-.188.258a2.497 2.497 0 0 1-.14.21c.359.266.89.72 1.593 1.36.172.156.282.305.328.445.063.125.094.297.094.516 0 .156-.039.289-.117.398a.378.378 0 0 1-.305.14Zm4.782-10.125c.187 0 .28.086.28.258 0 .093-.085.226-.257.398-.469.578-1.398 1.68-2.79 3.305-.108.14-.21.21-.304.21-.078 0-.25-.116-.515-.35-.22-.188-.329-.345-.329-.47 0-.14.118-.273.352-.398.36-.203.898-.61 1.617-1.219.719-.64 1.25-1.148 1.594-1.523.14-.14.258-.211.352-.211ZM70.555 15.28c.172 0 .304.031.398.094.11.047.164.11.164.188 0 .14-.11.257-.328.351-.219.078-.633.188-1.242.328a27.085 27.085 0 0 1-.89 4.102C68.25 21.687 67.624 23 66.78 24.28c2.11 1.875 3.164 2.985 3.164 3.328 0 .203-.117.414-.351.633-.219.219-.406.328-.563.328-.14 0-.297-.11-.469-.328a28.043 28.043 0 0 0-2.671-2.812 16.499 16.499 0 0 1-2.461 2.343c-.86.672-1.633 1.188-2.32 1.547-.688.375-1.126.563-1.313.563-.125 0-.188-.047-.188-.14 0-.188.164-.391.493-.61 1.796-1.25 3.414-2.781 4.851-4.594a38.677 38.677 0 0 0-1.898-1.64 2.734 2.734 0 0 0-.375-.235 2.378 2.378 0 0 1-.399-.305 1.062 1.062 0 0 1-.164-.445 1.399 1.399 0 0 1-.023-.305c0-.218.039-.46.117-.726.281-.86.594-2.008.937-3.445-.28.046-.789.125-1.523.234-.734.094-1.188.14-1.36.14-.234 0-.468-.109-.703-.328-.234-.218-.414-.554-.539-1.007a.327.327 0 0 1-.023-.141c0-.094.055-.14.164-.14l.094.023c.14.031.36.047.656.047.313 0 1.5-.086 3.563-.258.203-1 .39-2.078.562-3.235.172-1.156.258-1.953.258-2.39 0-.344-.055-.633-.164-.867a.986.986 0 0 1-.047-.164c0-.125.086-.188.258-.188.437.063.804.18 1.101.352.313.171.47.39.47.656v.164A52.195 52.195 0 0 1 65 15.867l3.164-.375c.016-.11.031-.234.047-.375.016-.14.023-.312.023-.515v-.211c0-.282-.046-.57-.14-.868a.606.606 0 0 1-.024-.187c0-.14.07-.211.211-.211.14 0 .406.086.797.258.266.125.445.234.54.328.093.094.14.234.14.422v.094c-.016.265-.055.64-.117 1.125l.726-.07h.188Zm-7.125 6.235a30.022 30.022 0 0 1 2.343 1.922c.391-.657.805-1.54 1.243-2.649.437-1.125.773-2.531 1.007-4.219a74.85 74.85 0 0 1-3.351.586c-.266 1.016-.68 2.469-1.242 4.36Zm8.11-7.453c0-.157.1-.235.304-.235.265 0 .789.172 1.57.516l4.57-.281h.188c.312 0 .555.062.726.187.188.125.313.266.375.422.079.14.118.242.118.305 0 .093-.04.218-.118.375-.078.156-.117.265-.117.328l-.515 8.718c.453.454.68.797.68 1.032 0 .187-.173.297-.516.328l-5.157.187.047 1.032v.046a.45.45 0 0 1-.14.329.53.53 0 0 1-.352.117c-.094 0-.234-.04-.422-.117A2.594 2.594 0 0 1 72.29 27a.65.65 0 0 1-.21-.469l.023-.21c.046-.376.07-.743.07-1.102l-.024-.633-.304-8.836c-.016-.563-.102-1.047-.258-1.453a1.41 1.41 0 0 1-.047-.235Zm2.062 10.546 3.585-.14.446-9.047-4.336.281.305 8.906ZM118.414 18.633a.972.972 0 0 0-.164.047c-.078.015-.117-.008-.117-.07 0-.016.031-.047.094-.094l.164-.164a3.29 3.29 0 0 1 .211-.188c.093-.094.164-.187.21-.281.235-.39.399-.781.493-1.172l.14-.82c.11-.61.157-1.32.141-2.133 0-.188-.024-.383-.07-.586-.016-.094-.094-.227-.235-.399v-.023c0-.031.039-.047.117-.047.11 0 .204.008.282.024.203.046.429.07.679.07.266-.016.43-.024.493-.024l1.57-.117c.312-.031.516-.047.609-.047.672-.093.977-.132.914-.117.36-.062.578-.094.657-.094.25.016.5.211.75.586l.046.118c0 .093-.07.148-.21.164a3.611 3.611 0 0 1-.258.023c-.485 0-.844.008-1.078.024-.594 0-1.032.007-1.313.023l-.656.047-1.336.14c-.094 1.313-.18 2.172-.258 2.579-.125.734-.367 1.328-.727 1.78-.265.345-.648.595-1.148.75Zm3.609 8.672c-.75 0-1.375-.188-1.875-.563-.515-.422-.773-.914-.773-1.476 0-.438.164-.82.492-1.149.422-.36.953-.539 1.594-.539.031 0 .055-.031.07-.094a.837.837 0 0 0 .047-.304l.024-.61c-.11.016-.321.04-.633.07a6.46 6.46 0 0 0-.657.094c.079-.015-.164.04-.726.164a.942.942 0 0 1-.258.024c-.297 0-.547-.133-.75-.399-.094-.093-.14-.171-.14-.234 0-.094.14-.14.421-.14l.727-.047 1.992-.258v-.867a.854.854 0 0 1-.023-.211.597.597 0 0 0-.024-.188 1.445 1.445 0 0 1-.047-.234c0-.11.055-.164.164-.164.141 0 .383.101.727.304.109.063.164.149.164.258a.468.468 0 0 1-.047.211.539.539 0 0 0-.023.164v.656l.703-.07.867-.094c.078-.015.164-.039.258-.07a.999.999 0 0 1 .258-.047c.093 0 .211.047.351.14.266.173.399.321.399.446s-.133.188-.399.188c-.078 0-.187.015-.328.047-.14.015-.32.03-.539.046l-1.57.118-.024 1.43c-.031.234-.203.382-.515.445h-.047c-.094 0-.188-.008-.281-.024a.548.548 0 0 0-.188-.047c-.125 0-.25.008-.375.024a.622.622 0 0 0-.328.14c-.266.235-.399.508-.399.82 0 .313.149.594.446.844.265.25.687.375 1.265.375.766-.03 1.391-.242 1.875-.632.204-.141.36-.211.469-.211.063 0 .141.015.235.047l.093.093c.047.047.071.094.071.14 0 .438-.368.798-1.102 1.079a4.686 4.686 0 0 1-1.641.305Zm7.079-10.758c.187 0 .281.086.281.258 0 .093-.086.226-.258.398-.469.578-1.398 1.68-2.789 3.305-.109.14-.211.21-.305.21-.078 0-.25-.116-.515-.35-.219-.188-.328-.345-.328-.47 0-.14.117-.273.351-.398.359-.203.899-.61 1.617-1.219.719-.64 1.25-1.148 1.594-1.523.141-.14.258-.211.352-.211Zm-24.844-2.508a4.72 4.72 0 0 0-.469.024 3.62 3.62 0 0 1-.398.023 1.12 1.12 0 0 1-.75-.258 2.123 2.123 0 0 1-.469-.61c-.11-.218-.164-.39-.164-.515 0-.062.031-.094.094-.094.078 0 .14.008.187.024.297.062.625.094.984.094h.329l10.898-.516c.328-.016.633-.078.914-.188a.61.61 0 0 1 .188-.023c.234 0 .507.14.82.422.328.265.492.492.492.68 0 .203-.195.32-.586.351l-2.766.14.024 14.485c0 .172.008.328.023.469.032.156.047.297.047.422 0 .343-.133.64-.398.89-.266.25-.516.375-.75.375-.125 0-.438-.125-.938-.375-.5-.234-1.062-.547-1.687-.937a14.419 14.419 0 0 1-1.711-1.195c-.375-.329-.563-.563-.563-.704 0-.078.063-.117.188-.117.203 0 .469.078.797.235.765.343 1.922.718 3.468 1.125l-.023-14.602-7.781.375Zm-9.328 6.984c0-.156.101-.367.304-.632a51.035 51.035 0 0 0 3.258-4.805c.969-1.625 1.719-3.164 2.25-4.617.078-.313.117-.555.117-.727a1.91 1.91 0 0 0-.047-.351l-.023-.094c0-.156.094-.235.281-.235.25 0 .563.118.938.352.39.234.586.445.586.633 0 .156-.242.758-.727 1.805a26.124 26.124 0 0 1-1.711 3.14v14.016c0 .312-.14.469-.422.469-.203 0-.453-.086-.75-.258-.296-.157-.445-.407-.445-.75 0-.094.008-.172.023-.235.079-.375.118-.812.118-1.312l.093-9.985a21.968 21.968 0 0 1-2.273 2.649c-.75.734-1.227 1.102-1.43 1.102-.093 0-.14-.055-.14-.165Zm7.547-3.96c0-.094.078-.141.234-.141.281 0 .789.14 1.523.422l4.289-.235h.188a1 1 0 0 1 .703.258c.188.156.281.328.281.516a.419.419 0 0 1-.07.21 3.25 3.25 0 0 0-.07.188l-.399 3.117c.438.485.656.813.656.985 0 .11-.054.18-.164.21-.093.032-.265.055-.515.071l-4.406.164.023.445v.094c0 .313-.117.469-.352.469-.25 0-.515-.078-.796-.234-.266-.157-.399-.344-.399-.563l.024-.164c.031-.156.046-.398.046-.727a5.85 5.85 0 0 0-.023-.609l-.281-3.094c-.047-.437-.157-.78-.328-1.03-.11-.173-.164-.29-.164-.352Zm2.156 4.523 3.14-.117.211-3.07-3.539.187.188 3Z"/><path fill="#FA760A" d="M155.234 19.125a.873.873 0 0 1-.632-.281c-.235-.172-.352-.305-.352-.399 0-.11.18-.164.539-.164l1.149-.07 1.171-.117c.032-.25.047-.727.047-1.43.047 0-.195.031-.726.094l-.446.07a.937.937 0 0 1-.375.094.32.32 0 0 1-.234-.094c-.25-.219-.375-.406-.375-.562v-1.102c0-.11-.039-.531-.117-1.266l-.024-.257c0-.125.024-.204.071-.235.047-.031.132-.031.258 0 .468.125.695.266.679.422l-.023.164c-.032.219-.047.5-.047.844 0 .406.008.664.023.773.032.313.047.461.047.446.016.062.071.093.164.093.094 0 .281-.023.563-.07.297-.062.492-.101.586-.117v-2.063c0-.578-.024-.968-.071-1.171a3.613 3.613 0 0 1-.047-.258c0-.11.04-.164.118-.164.031 0 .14.03.328.093.297.141.492.266.586.375.109.11.148.227.117.352-.047.156-.078.469-.094.938-.031.374-.062.984-.094 1.828l.797-.024c.157 0 .274-.008.352-.023.078-.016.117-.047.117-.094.109-.594.18-1.11.211-1.547l.023-.281c.016-.031.016-.086 0-.164v-.164l-.023-.164c0-.14.055-.211.164-.211.063 0 .195.062.398.187.047.031.11.078.188.14a.4.4 0 0 1 .188.165c.031.047.046.11.046.187a.97.97 0 0 1-.023.235l-.258 1.312-.07.54c-.063.359-.25.554-.563.585a.834.834 0 0 1-.234-.07.229.229 0 0 0-.117-.047c-.188 0-.578.04-1.172.117l-.024 1.453.399-.023.375-.023c.578 0 1.008-.032 1.289-.094.125 0 .234-.016.328-.047l.07-.023c.157 0 .321.109.493.328.203.203.304.351.304.445 0 .14-.219.187-.656.14l-.891-.046h-1.172c-.234 0-.664.03-1.289.093-.328 0-.625.016-.89.047a3.74 3.74 0 0 0-.75.164l-.399.141Zm5.086 7.547c-.234 0-.461-.172-.679-.516a7.453 7.453 0 0 0-.821-1.078l-.609-.633a9.603 9.603 0 0 1-.867.89c-.235.22-.532.43-.891.634-.672.39-1.234.586-1.687.586-.11 0-.164-.04-.164-.117 0-.047.148-.149.445-.305.297-.156.578-.344.844-.563a10.162 10.162 0 0 0 1.664-1.734c-.094-.094-.563-.5-1.407-1.219a8.218 8.218 0 0 1-.492-.398 6.385 6.385 0 0 1-.281-.211c-.141-.11-.211-.188-.211-.235 0-.078.039-.117.117-.117.235 0 .61.164 1.125.492.516.313 1.055.688 1.617 1.125.219-.265.391-.515.516-.75.125-.234.266-.523.422-.867.078-.172.125-.32.141-.445.015-.14.023-.227.023-.258 0-.172.047-.258.141-.258.109 0 .257.086.445.258.328.313.492.524.492.633 0 .062-.039.133-.117.21a2.87 2.87 0 0 0-.516.75 6.204 6.204 0 0 1-.515.798c-.078.093-.141.18-.188.258a2.737 2.737 0 0 1-.14.21c.359.266.89.72 1.593 1.36.172.156.282.305.328.445.063.125.094.297.094.516 0 .156-.039.289-.117.398a.378.378 0 0 1-.305.14Zm1.782-8.25c.078 0 .195.055.351.164-.015.031.016.094.094.187l.164.165c.078.078.156.171.234.28l.305.352c.281.297.93 1.07 1.945 2.32.172.25.258.4.258.446 0 .156-.094.234-.281.234-.11 0-.227-.078-.352-.234-.297-.313-.828-.805-1.593-1.477-.594-.547-1.133-.968-1.618-1.265-.234-.11-.351-.235-.351-.375 0-.11.117-.266.351-.469.219-.219.383-.328.493-.328Zm-20.836 10.5c-.344 0-.633-.133-.868-.399a2.404 2.404 0 0 1-.468-.96c0-.094.054-.141.164-.141.078 0 .14.008.187.023.344.078.68.117 1.008.117h.188l3.562-.117-.023-5.601-1.547.07-.703.023c-.297 0-.493-.039-.586-.117a3.004 3.004 0 0 1-.586-.61c-.125-.218-.188-.405-.188-.562 0-.093.047-.14.141-.14.062 0 .117.008.164.023.266.063.586.094.961.094h.305l2.039-.094-.024-4.71-2.297.14-.773.023c-.25 0-.422-.039-.516-.117-.281-.25-.484-.492-.609-.726-.125-.235-.188-.399-.188-.493 0-.093.055-.14.164-.14.063 0 .118.008.165.023.265.063.585.094.96.094h.305l6.445-.328c.36-.031.711-.102 1.055-.211a.402.402 0 0 1 .164-.024c.078 0 .227.07.445.211.235.141.446.297.633.47.188.171.282.32.282.444 0 .188-.18.297-.539.329l-4.243.234.024 4.71 1.101-.046c.547-.031.977-.102 1.289-.21a.747.747 0 0 1 .211-.048c.203 0 .469.14.797.422.344.281.516.508.516.68 0 .187-.18.297-.539.328l-3.375.164.023 5.625 3.633-.117a5.18 5.18 0 0 0 1.055-.164.758.758 0 0 1 .187-.047c.235 0 .508.148.821.445.328.297.492.531.492.703 0 .22-.172.344-.516.375h-.047l-10.148.328-.703.024Zm-10.313-14.86c0-.093.047-.14.141-.14.062 0 .117.008.164.023a3.2 3.2 0 0 0 .82.094h.305l5.742-.351c.313-.032.617-.094.914-.188a.775.775 0 0 1 .234-.047c.204 0 .446.133.727.399.297.25.445.468.445.656 0 .187-.156.297-.468.328h-.047l-7.078.469a7.525 7.525 0 0 1-.657.023h-.117c-.187 0-.367-.078-.539-.234a2.026 2.026 0 0 1-.422-.54c-.109-.202-.164-.367-.164-.492Zm1.43 8.532c0-.094.078-.14.234-.14.266 0 .821.155 1.664.468l4.055-.211.234-.023c.188 0 .399.101.633.304.25.188.375.375.375.563a.58.58 0 0 1-.07.258 3.082 3.082 0 0 0-.07.234l-.399 3.094c.359.468.539.789.539.96 0 .11-.055.18-.164.212a1.601 1.601 0 0 1-.492.093l-4.336.14.023.446v.07c0 .344-.148.516-.445.516-.187 0-.422-.07-.703-.21-.266-.126-.399-.345-.399-.657l.024-.188c.031-.28.047-.5.047-.656l-.024-.469-.234-3.117c-.047-.515-.156-.937-.328-1.265-.109-.22-.164-.36-.164-.422Zm.211-2.742c0-.079.039-.118.117-.118.062 0 .109.008.141.024.234.062.5.094.796.094h.258l3.188-.141c.281-.016.554-.07.82-.164.125-.031.211-.047.258-.047.234 0 .469.125.703.375.25.25.375.453.375.61 0 .109-.055.195-.164.257a.782.782 0 0 1-.352.117l-4.359.235-.492.023c-.313 0-.524-.047-.633-.14a2.582 2.582 0 0 1-.469-.586c-.125-.235-.187-.414-.187-.54Zm.023-2.836c0-.094.039-.141.117-.141.063 0 .11.008.141.023.234.063.5.094.797.094h.234l3.188-.21c.25-.016.523-.071.82-.165a.744.744 0 0 1 .211-.047c.078 0 .211.055.398.164.188.11.352.243.493.399.156.156.234.312.234.469 0 .093-.055.171-.164.234a.782.782 0 0 1-.352.117l-4.359.281-.492.024c-.297 0-.5-.047-.61-.14a2.187 2.187 0 0 1-.492-.587c-.109-.234-.164-.406-.164-.515Zm.938-6.305c0-.11.054-.274.164-.492.109-.219.265-.328.469-.328.093 0 .492.14 1.195.421.719.282 1.375.586 1.969.915.593.312.89.562.89.75 0 .062-.031.18-.094.351a1.631 1.631 0 0 1-.234.469.49.49 0 0 1-.398.21c-.125 0-.289-.062-.493-.187A24.707 24.707 0 0 0 134 11.18c-.297-.11-.445-.266-.445-.47Zm.937 16.57 3.164-.093.282-3.141-3.657.164.211 3.07ZM143 9.867c0-.078.062-.226.188-.445.124-.219.281-.328.468-.328.141 0 .289.054.446.164 2.531 1.656 3.796 2.703 3.796 3.14 0 .141-.093.329-.281.563-.172.234-.336.351-.492.351-.125 0-.273-.085-.445-.257a30.694 30.694 0 0 0-3.352-2.766c-.219-.14-.328-.281-.328-.422ZM196.953 13.64c.203.172.305.297.305.376 0 .14-.196.203-.586.187h-.492c-.438 0-1.368.055-2.789.164-.032.203-.071.414-.118.633-.046.203-.078.36-.093.469V15.75a.405.405 0 0 0 .164-.023c.078-.016.258-.04.539-.07l.89-.141a1.85 1.85 0 0 0 .282-.07.55.55 0 0 1 .234-.071c.172 0 .383.11.633.328.172.14.258.25.258.328 0 .172-.102.43-.305.774-.328.578-.68 1.054-1.055 1.43-.453.453-.922.75-1.406.89a.871.871 0 0 1-.211.023c-.062 0-.094-.015-.094-.046 0-.047.11-.172.329-.375a6.884 6.884 0 0 0 1.453-1.758c.218-.39.328-.625.328-.703 0-.063-.039-.094-.117-.094h-.118l-.609.07c-.609.094-.992.164-1.148.211-.188.094-.336.14-.446.14-.109 0-.25-.085-.422-.257a1.236 1.236 0 0 0-.117-.094c-.047-.047-.07-.117-.07-.21 0-.048.031-.118.094-.212.062-.125.109-.28.14-.468.032-.188.047-.305.047-.352l.094-.54c-.266.032-.688.102-1.266.212a1.97 1.97 0 0 1-.328.047c-.109 0-.234-.047-.375-.14-.297-.204-.445-.337-.445-.4 0-.109.14-.171.422-.187l.82-.07 1.313-.14c.078-.626.117-1.009.117-1.15l.023-.491c.031-.266.094-.399.188-.399.078 0 .172.031.281.094.203.11.351.226.445.351.11.11.149.204.117.282l-.164.492c-.047.094-.109.336-.187.726l2.039-.187a2.76 2.76 0 0 0 .609-.14l.188-.024a.59.59 0 0 1 .398.14c.11.079.18.133.211.165Zm-2.93 13.665c-.75 0-1.375-.188-1.875-.563-.515-.422-.773-.914-.773-1.476 0-.438.164-.82.492-1.149.422-.36.953-.539 1.594-.539.031 0 .055-.031.07-.094a.837.837 0 0 0 .047-.304l.024-.61c-.11.016-.321.04-.633.07a6.46 6.46 0 0 0-.657.094c.079-.015-.164.04-.726.164a.942.942 0 0 1-.258.024c-.297 0-.547-.133-.75-.399-.094-.093-.14-.171-.14-.234 0-.094.14-.14.421-.14l.727-.047 1.992-.258v-.867a.854.854 0 0 1-.023-.211.597.597 0 0 0-.024-.188 1.445 1.445 0 0 1-.047-.234c0-.11.055-.164.164-.164.141 0 .383.101.727.304.109.063.164.149.164.258a.468.468 0 0 1-.047.211.539.539 0 0 0-.023.164v.656l.703-.07.867-.094c.078-.015.164-.039.258-.07a.999.999 0 0 1 .258-.047c.093 0 .211.047.351.14.266.173.399.321.399.446s-.133.188-.399.188c-.078 0-.187.015-.328.047-.14.015-.32.03-.539.046l-1.57.118-.024 1.43c-.031.234-.203.382-.515.445h-.047c-.094 0-.188-.008-.281-.024a.548.548 0 0 0-.188-.047c-.125 0-.25.008-.375.024a.622.622 0 0 0-.328.14c-.266.235-.399.508-.399.82 0 .313.149.594.446.844.265.25.687.375 1.265.375.766-.03 1.391-.242 1.875-.632.204-.141.36-.211.469-.211.063 0 .141.015.235.047l.093.093c.047.047.071.094.071.14 0 .438-.368.798-1.102 1.079a4.686 4.686 0 0 1-1.641.305Zm4.079-8.883c.078 0 .195.055.351.164-.015.031.016.094.094.187l.164.165c.078.078.156.171.234.28l.305.352c.281.297.93 1.07 1.945 2.32.172.25.258.4.258.446 0 .156-.094.234-.281.234-.11 0-.227-.078-.352-.234-.297-.313-.828-.805-1.593-1.477-.594-.547-1.133-.968-1.618-1.265-.234-.11-.351-.235-.351-.375 0-.11.117-.266.351-.469.219-.219.383-.328.493-.328Zm-17.461 1.547.023 8.086c0 .343-.125.515-.375.515-.094 0-.25-.039-.469-.117a1.734 1.734 0 0 1-.586-.351.758.758 0 0 1-.257-.586l.023-.188c.109-.86.164-1.914.164-3.164v-4.102l-2.883.141.071 8.25c0 .313-.125.469-.375.469-.329 0-.633-.117-.915-.352-.281-.218-.421-.445-.421-.68l.023-.187c.125-.969.188-2.023.188-3.164l-.024-4.266-3.023.165-.024 9.023c0 .422-.14.633-.422.633-.25 0-.523-.086-.82-.258-.297-.172-.445-.414-.445-.727 0-.047.015-.18.047-.398.093-.438.14-.89.14-1.36l.024-6.843-1.407.07a6.647 6.647 0 0 1-.632.024c-.188 0-.344-.016-.469-.047a.793.793 0 0 1-.328-.235 2.523 2.523 0 0 1-.399-.633c-.078-.218-.117-.359-.117-.421 0-.094.047-.141.141-.141.062 0 .117.008.164.023.359.094.687.141.984.141h.141l1.945-.094.024-6.398c0-.61-.079-1.047-.235-1.313-.109-.187-.164-.328-.164-.421 0-.141.094-.211.281-.211.266 0 .821.187 1.664.562l12.375-.75h.282c.25 0 .484.094.703.281.219.172.328.367.328.586a.728.728 0 0 1-.07.258.733.733 0 0 0-.047.188l-.047 6.421 1.078-.046c.438-.032.758-.079.961-.141a.402.402 0 0 1 .164-.023c.219 0 .477.132.773.398.282.234.422.445.422.633 0 .11-.054.195-.164.258-.109.062-.25.101-.422.117l-2.836.14-.07 8.414c0 .141.008.282.024.422.031.14.046.282.046.422 0 .344-.125.625-.375.844-.234.234-.484.352-.75.352-.281 0-.679-.204-1.195-.61a9.317 9.317 0 0 1-1.406-1.312c-.422-.485-.633-.805-.633-.961 0-.14.07-.211.211-.211.109 0 .289.062.539.187a10 10 0 0 0 2.063.914l.07-8.39-3.281.164Zm-5.813-1.008-.023-6.398-2.977.164-.023 6.375 3.023-.141Zm1.453-.07 2.883-.164.024-6.422-2.954.164.047 6.422Zm4.36-.235 3.281-.164.047-6.469-3.352.188.024 6.445ZM227.234 19.125a.873.873 0 0 1-.632-.281c-.235-.172-.352-.305-.352-.399 0-.11.18-.164.539-.164l1.149-.07 1.171-.117c.032-.25.047-.727.047-1.43.047 0-.195.031-.726.094l-.446.07a.937.937 0 0 1-.375.094.32.32 0 0 1-.234-.094c-.25-.219-.375-.406-.375-.562v-1.102c0-.11-.039-.531-.117-1.266l-.024-.257c0-.125.024-.204.071-.235.047-.031.132-.031.258 0 .468.125.695.266.679.422l-.023.164c-.032.219-.047.5-.047.844 0 .406.008.664.023.773.032.313.047.461.047.446.016.062.071.093.164.093.094 0 .281-.023.563-.07.297-.062.492-.101.586-.117v-2.063c0-.578-.024-.968-.071-1.171a3.613 3.613 0 0 1-.047-.258c0-.11.04-.164.118-.164.031 0 .14.03.328.093.297.141.492.266.586.375.109.11.148.227.117.352-.047.156-.078.469-.094.938-.031.374-.062.984-.094 1.828l.797-.024c.157 0 .274-.008.352-.023.078-.016.117-.047.117-.094.109-.594.18-1.11.211-1.547l.023-.281c.016-.031.016-.086 0-.164v-.164l-.023-.164c0-.14.055-.211.164-.211.063 0 .195.062.398.187.047.031.11.078.188.14a.4.4 0 0 1 .188.165c.031.047.046.11.046.187a.97.97 0 0 1-.023.235l-.258 1.312-.07.54c-.063.359-.25.554-.563.585a.834.834 0 0 1-.234-.07.229.229 0 0 0-.117-.047c-.188 0-.578.04-1.172.117l-.024 1.453.399-.023.375-.023c.578 0 1.008-.032 1.289-.094.125 0 .234-.016.328-.047l.07-.023c.157 0 .321.109.493.328.203.203.304.351.304.445 0 .14-.219.187-.656.14l-.891-.046h-1.172c-.234 0-.664.03-1.289.093-.328 0-.625.016-.89.047a3.74 3.74 0 0 0-.75.164l-.399.141Zm5.368 7.266c.218.14.328.273.328.398 0 .172-.133.281-.399.328-.265.047-.64.078-1.125.094-.703.016-1.156-.008-1.359-.07-.344-.157-.516-.414-.516-.774l.024-.867c.031-.281.047-.531.047-.75.015-.14.023-.414.023-.82a7.863 7.863 0 0 1-.914 1.547c-.266.328-.5.601-.703.82a4.76 4.76 0 0 1-.727.586c-.281.187-.539.281-.773.281-.141 0-.211-.047-.211-.14 0-.016.148-.133.445-.352.313-.235.625-.555.938-.961a9.839 9.839 0 0 0 1.218-2.203c-.609.078-1.015.148-1.218.21a.83.83 0 0 0-.211.071.59.59 0 0 1-.235 0 2.022 2.022 0 0 1-.328-.187c-.14-.11-.25-.211-.328-.305-.062-.094-.094-.156-.094-.188 0-.078.118-.117.352-.117.578 0 1.32-.062 2.226-.187.094-.36.141-.938.141-1.735v-.445c0-.188.039-.29.117-.305.016-.015.047-.023.094-.023.125 0 .297.094.516.281.172.14.281.25.328.328.062.063.07.149.023.258l-.093.188a.97.97 0 0 0-.094.28l-.094.47a5.043 5.043 0 0 0-.094.585c.219-.015.492-.046.821-.093.328-.047.57-.094.726-.14l.469-.118c.156-.031.414.102.773.398.063.047.094.102.094.164 0 .063-.031.118-.094.165a.332.332 0 0 1-.187.046c-.281 0-.797.047-1.547.141l-.773.07c.171.125.281.235.328.328a.36.36 0 0 1 .023.282l-.07.375c-.031.312-.063.656-.094 1.03a7.667 7.667 0 0 0 0 .868c0 .078.047.149.141.211a.653.653 0 0 0 .328.094c.39 0 .828-.04 1.312-.117l.211-.047c.094 0 .172.015.235.047Zm1.5-7.97c.078 0 .195.056.351.165-.015.031.016.094.094.187l.164.165c.078.078.156.171.234.28l.305.352c.281.297.93 1.07 1.945 2.32.172.25.258.4.258.446 0 .156-.094.234-.281.234-.11 0-.227-.078-.352-.234-.297-.313-.828-.805-1.593-1.477-.594-.547-1.133-.968-1.618-1.265-.234-.11-.351-.235-.351-.375 0-.11.117-.266.351-.469.219-.219.383-.328.493-.328Zm-16.875 1.9c.765 1.25 1.406 2.218 1.921 2.906 1.375-1.047 2.141-1.875 2.297-2.485.047-.203.141-.305.282-.305.171 0 .375.157.609.47.25.296.375.554.375.773 0 .234-.399.648-1.195 1.242-.782.594-1.336.984-1.664 1.172a12.471 12.471 0 0 0 2.296 2.156c.844.61 1.844 1.148 3 1.617.25.094.375.188.375.281 0 .032-.078.141-.234.329-.141.187-.305.359-.492.515-.188.156-.359.235-.516.235a.773.773 0 0 1-.187-.047c-1.282-.64-2.391-1.367-3.328-2.18a17.486 17.486 0 0 1-2.508-2.742c-.735-1.031-1.524-2.32-2.367-3.867l-.797.047-.071 6.937a37.08 37.08 0 0 0 3.586-1.453.905.905 0 0 1 .446-.117c.14 0 .211.047.211.14 0 .14-.266.414-.797.82-.516.407-1.164.86-1.946 1.36l-.796.516a6.745 6.745 0 0 1-.493.351c-.578.422-.945.633-1.101.633-.141 0-.313-.094-.516-.281-.187-.172-.281-.336-.281-.492 0 .25.055-.016.164-.797.109-.766.164-1.235.164-1.407l.07-6.14-.492.023c-.328 0-.586-.054-.773-.164-.188-.125-.367-.367-.539-.726l.023 1.336c0 .171.008.32.024.445.015.125.023.234.023.328 0 .219-.07.414-.211.586a1.459 1.459 0 0 1-.445.375c-.156.094-.282.14-.375.14-.219 0-.586-.203-1.102-.609-.5-.406-.898-.82-1.195-1.242l-.141 8.414c0 .297-.117.445-.351.445-.063 0-.188-.03-.375-.093a1.376 1.376 0 0 1-.539-.282.581.581 0 0 1-.258-.492c0-.11.008-.195.023-.258l.094-.562c.047-.266.07-.54.07-.82l.141-11.579-1.617.094-.024 6.914a.498.498 0 0 1-.117.328.311.311 0 0 1-.258.118c-.25 0-.508-.125-.773-.375-.25-.266-.375-.508-.375-.727v-.117c.094-.438.14-.86.14-1.266l.047-4.734c0-.516-.07-.945-.211-1.29-.109-.25-.164-.405-.164-.468 0-.11.071-.164.211-.164.25 0 .782.187 1.594.562l1.57-.093.047-3.657c0-.39-.078-.75-.234-1.078a.365.365 0 0 1-.047-.14c0-.094.07-.14.211-.14s.414.062.82.187c.282.109.461.21.539.304.094.078.141.203.141.375l-.07 4.055 2.039-.14h.211c.265 0 .492.077.679.234.203.14.305.312.305.515a1.3 1.3 0 0 1-.047.282 1.3 1.3 0 0 0-.047.28l.024 3.47c.031 0 .109.015.234.046.25.063.531.094.844.094h.258l.89-.023v-7.36c0-.406-.086-.82-.258-1.242-.093-.25-.14-.406-.14-.469 0-.125.07-.187.211-.187.234 0 .765.203 1.593.61l4.829-.329c.39-.031.726-.094 1.007-.187a.772.772 0 0 1 .235-.047c.219 0 .469.133.75.398.281.25.422.461.422.633 0 .188-.172.297-.516.328l-6.75.422-.023 1.688 3.961-.282c.421-.03.757-.093 1.007-.187a.775.775 0 0 1 .235-.047c.203 0 .453.125.75.375s.445.469.445.656c0 .172-.172.274-.516.305l-5.882.375-.024 1.476 3.914-.21c.422-.032.766-.094 1.032-.188a.742.742 0 0 1 .21-.047c.204 0 .454.125.75.375.297.25.446.469.446.656 0 .172-.172.274-.516.305l-5.836.328-.023 1.781 6.937-.328c.438-.03.774-.086 1.008-.164a.746.746 0 0 1 .211-.047c.219 0 .469.133.75.399.297.25.445.469.445.656 0 .172-.172.273-.515.305l-7.078.351Zm-8.555 0c.625.39 1.258.718 1.898.984l-.047-5.742-1.781.117-.07 4.64ZM262.414 18.633a.972.972 0 0 0-.164.047c-.078.015-.117-.008-.117-.07 0-.016.031-.047.094-.094l.164-.164a3.29 3.29 0 0 1 .211-.188c.093-.094.164-.187.21-.281.235-.39.399-.781.493-1.172l.14-.82c.11-.61.157-1.32.141-2.133 0-.188-.024-.383-.07-.586-.016-.094-.094-.227-.235-.399v-.023c0-.031.039-.047.117-.047.11 0 .204.008.282.024.203.046.429.07.679.07.266-.016.43-.024.493-.024l1.57-.117c.312-.031.516-.047.609-.047.672-.093.977-.132.914-.117.36-.062.578-.094.657-.094.25.016.5.211.75.586l.046.118c0 .093-.07.148-.21.164a3.611 3.611 0 0 1-.258.023c-.485 0-.844.008-1.078.024-.594 0-1.032.007-1.313.023l-.656.047-1.336.14c-.094 1.313-.18 2.172-.258 2.579-.125.734-.367 1.328-.727 1.78-.265.345-.648.595-1.148.75Zm5.906 6.984c.032.063.086.156.164.281a.825.825 0 0 1 .118.446.446.446 0 0 1-.188.375.625.625 0 0 1-.422.164c-.14 0-.258-.14-.351-.422a4.514 4.514 0 0 0-.118-.258 1.65 1.65 0 0 0-.046-.187 5.421 5.421 0 0 1-.797.164 10.48 10.48 0 0 0-.703.117c-.75.14-1.266.242-1.547.305-.11.03-.227.07-.352.117-.125.031-.195.054-.211.07a.746.746 0 0 1-.211.047.491.491 0 0 1-.351-.164 1.278 1.278 0 0 1-.422-.563c-.016-.015-.024-.039-.024-.07 0-.031.039-.07.118-.117.093-.047.164-.078.211-.094.203-.11.562-.437 1.078-.984l.632-.61-1.382-.75c-.157-.047-.258-.101-.305-.164-.047-.062-.07-.156-.07-.28 0-.095.015-.157.047-.188.046-.047.14-.118.281-.211.14-.094.281-.22.422-.375.078-.094.179-.196.304-.305.125-.11.243-.227.352-.352.469-.547.765-.976.891-1.289.078-.156.14-.234.187-.234.031 0 .094.031.187.094.297.218.477.422.54.61v.07c0 .078-.04.14-.118.187a.938.938 0 0 0-.164.117c-.047.031-.281.258-.703.68l-.422.422-.398.398c-.188.172-.281.273-.281.305 0 .047.023.086.07.117a.571.571 0 0 1 .141.094l.984.468c.609-.609.961-.968 1.055-1.078.406-.468.632-.765.679-.89a.55.55 0 0 0 .071-.117c.031-.063.062-.094.093-.094.047 0 .094.023.141.07.25.234.43.453.539.656a.422.422 0 0 1 .047.117c0 .032-.039.079-.117.141l-.188.14a28.902 28.902 0 0 0-1.922 1.782l-1.429 1.336c-.032.031-.047.062-.047.094 0 .03.015.054.047.07.031.016.078.016.14 0l2.742-.469a10.42 10.42 0 0 0-.281-.937v-.047c0-.047.024-.07.071-.07.062 0 .156.046.281.14.25.219.562.594.937 1.125Zm1.782-7.195c.078 0 .195.055.351.164-.015.031.016.094.094.187l.164.165c.078.078.156.171.234.28l.305.352c.281.297.93 1.07 1.945 2.32.172.25.258.4.258.446 0 .156-.094.234-.281.234-.11 0-.227-.078-.352-.234-.297-.313-.828-.805-1.593-1.477-.594-.547-1.133-.968-1.618-1.265-.234-.11-.351-.235-.351-.375 0-.11.117-.266.351-.469.219-.219.383-.328.493-.328Zm-20.04-3.352c0 2.282-.101 4.336-.304 6.164-.156 1.61-.5 3.055-1.031 4.336-.532 1.266-1.086 2.266-1.665 3-.562.75-.945 1.125-1.148 1.125-.109 0-.164-.07-.164-.21 0-.141.086-.36.258-.657a18.556 18.556 0 0 0 2.109-5.836c.375-2.062.563-4.297.563-6.703v-.469c-.016-.843-.094-1.523-.235-2.039-.047-.14-.07-.25-.07-.328 0-.125.063-.187.187-.187.235 0 .743.226 1.524.68l2.695-.188V10.5c0-.5-.086-.875-.258-1.125a.428.428 0 0 1-.07-.21c0-.11.094-.165.281-.165.188 0 .454.055.797.164.235.063.391.149.469.258.078.11.117.258.117.445v1.242l2.344-.164c.266-.03.523-.086.773-.164a.267.267 0 0 1 .118-.023c.156 0 .312.07.468.21.157.126.289.274.399.446.125.172.187.281.187.328 0 .094-.047.156-.14.188a1.947 1.947 0 0 1-.422.07l-3.75.258v1.43l4.804-.329h.188c.297 0 .547.102.75.305.203.203.305.375.305.516 0 .125-.203.383-.61.773-.406.375-.843.727-1.312 1.055-.469.328-.789.492-.961.492-.11 0-.164-.047-.164-.14 0-.141.109-.32.328-.54.437-.5.742-.922.914-1.265l-8.274.515Zm-10.921 3.235c0-.125.039-.188.117-.188a.26.26 0 0 1 .117.024c.266.109.531.164.797.164h.164l5.32-.258c.328-.016.68-.086 1.055-.211.125-.031.211-.047.258-.047.172 0 .351.07.539.211.187.125.344.273.469.445.125.157.187.266.187.328 0 .188-.187.297-.562.329l-4.219.257-.774 2.157 2.579-.188.351-.023c.234 0 .445.078.633.234.187.156.281.328.281.516 0 .078-.031.195-.094.351a1.088 1.088 0 0 0-.093.375 23.947 23.947 0 0 1-.469 2.602 26.736 26.736 0 0 1-.68 2.437c-.109.282-.273.57-.492.867a.967.967 0 0 1-.844.446c-.265 0-.672-.203-1.219-.61a10.688 10.688 0 0 1-1.476-1.312c-.438-.484-.656-.82-.656-1.008 0-.078.047-.117.14-.117.157 0 .391.102.703.305a11.62 11.62 0 0 0 2.25 1.078c.016.015.047.023.094.023.11 0 .172-.047.188-.14.5-1.344.867-2.961 1.101-4.852l-2.109.14a2.798 2.798 0 0 0-.563.118 2.24 2.24 0 0 1-.422.07c-.124 0-.289-.078-.492-.234-.187-.157-.281-.32-.281-.492 0-.063.047-.22.141-.47l.82-2.202-1.359.093h-.305c-.328 0-.555-.054-.68-.164a1.317 1.317 0 0 1-.398-.539c-.078-.218-.117-.39-.117-.515Zm1.593-7.196c0-.093.063-.14.188-.14.25 0 .742.14 1.476.422l3.375-.282.235-.023c.203 0 .43.094.68.281.218.14.328.305.328.492 0 .079-.039.188-.118.329-.062.124-.093.21-.093.257l-.446 2.578c.422.407.633.711.633.915 0 .156-.164.25-.492.28l-3.773.212.046.492v.07c0 .25-.109.375-.328.375-.218 0-.461-.078-.726-.234-.266-.156-.399-.36-.399-.61 0-.125.008-.218.024-.28.031-.173.047-.423.047-.75 0-.282-.008-.5-.024-.657l-.258-2.39c-.062-.407-.148-.735-.257-.985-.079-.156-.118-.274-.118-.352Zm1.922 4.196 2.461-.14.328-2.884-3 .235.211 2.789Zm5.532 14.273c0-.172.179-.367.539-.586 2.093-1.328 3.179-3.234 3.257-5.719v-.187c0-.39-.07-.719-.211-.984a.429.429 0 0 1-.07-.211c0-.094.078-.141.235-.141.25 0 .554.078.914.234.359.141.539.375.539.703a10.912 10.912 0 0 1-.703 3.54 4.94 4.94 0 0 1-1.313 1.898c-.578.531-1.156.93-1.734 1.195-.579.266-.985.399-1.219.399-.156 0-.234-.047-.234-.14Zm2.109-11.953c0-.063.031-.094.094-.094.062 0 .117.008.164.024a2.132 2.132 0 0 0 .843.047l1.313-.141v-.938c0-.359-.07-.68-.211-.96a.536.536 0 0 1-.07-.211c0-.094.07-.141.211-.141.187 0 .461.062.82.187.359.125.539.352.539.68l-.023 1.219 2.343-.258c.266-.016.532-.078.797-.187a.378.378 0 0 1 .164-.047c.172 0 .367.117.586.351.235.219.352.39.352.516 0 .14-.11.234-.328.281l-.141.024-3.797.421-.023.985c0 .187.023.32.07.398.047.078.141.133.281.164.157.016.407.024.75.024.516 0 .914-.032 1.196-.094.281-.063.531-.148.75-.258a.578.578 0 0 1 .257-.07c.157 0 .352.125.586.375.25.234.375.437.375.61 0 .218-.211.35-.633.398-1.14.156-2.07.234-2.789.234-.468 0-.843-.023-1.125-.07a1.22 1.22 0 0 1-.703-.446c-.172-.234-.257-.593-.257-1.078v-1.03l-1.032.116a1.756 1.756 0 0 1-.328.024.954.954 0 0 1-.75-.352c-.187-.25-.281-.484-.281-.703Zm4.406 4.195c0-.11.094-.164.281-.164.204 0 .485.07.844.211.375.125.563.352.563.68l-.094 4.476c0 .407.101.665.305.774.218.094.593.14 1.125.14.656 0 1.109-.054 1.359-.164.25-.109.43-.351.539-.726.125-.375.266-1.086.422-2.133.094-.61.234-.914.422-.914.078 0 .14.078.187.234.047.157.078.383.094.68v.68c0 1.093-.055 1.875-.164 2.343a1.48 1.48 0 0 1-.82 1.032c-.438.218-1.164.328-2.18.328-.594 0-1.07-.04-1.43-.117a1.399 1.399 0 0 1-.867-.54c-.219-.296-.328-.75-.328-1.359v-.093l.07-4.266c0-.375-.086-.68-.258-.914a.41.41 0 0 1-.07-.188Z"/><path fill="#333" d="M286.789 24.047c0 .125-.07.219-.211.281a1.043 1.043 0 0 1-.469.094c-.359 0-.617-.055-.773-.164a.746.746 0 0 1-.305-.422 4.333 4.333 0 0 1-.047-.727c0-.406.032-.804.094-1.195.094-.656.344-1.21.75-1.664.406-.469.984-.992 1.734-1.57.547-.422.985-.79 1.313-1.102.328-.312.602-.68.82-1.101.235-.422.352-.899.352-1.43 0-.563-.258-1.04-.774-1.43-.515-.39-1.14-.586-1.875-.586a6.93 6.93 0 0 0-2.484.446c-.766.28-1.383.656-1.852 1.125-.359.39-.64.921-.843 1.593-.063.203-.203.305-.422.305-.235 0-.477-.102-.727-.305-.25-.218-.375-.445-.375-.68 0-.203.258-.624.774-1.265.515-.656 1.273-1.25 2.273-1.781 1-.547 2.211-.82 3.633-.82 1.234 0 2.273.296 3.117.89.844.594 1.266 1.383 1.266 2.367 0 .719-.141 1.352-.422 1.899a5.293 5.293 0 0 1-1.008 1.36c-.39.358-.906.78-1.547 1.265-.703.53-1.234.992-1.593 1.383a2.328 2.328 0 0 0-.61 1.312 4.597 4.597 0 0 0-.023.54c0 .358.07.788.211 1.288l.023.094Zm-2.156 3.117c0-.344.101-.625.305-.844.218-.218.531-.328.937-.328.297 0 .57.164.82.492.266.313.399.649.399 1.008 0 .328-.102.586-.305.774-.203.203-.508.304-.914.304-.328 0-.617-.148-.867-.445-.25-.297-.375-.617-.375-.96Z"/></svg>