<svg xmlns="http://www.w3.org/2000/svg" width="350" height="40" fill="none"><path fill="#333" d="M66.008 18.844c-.094 0-.227-.07-.399-.211a1.534 1.534 0 0 1-.234-.188c-.063-.062-.094-.117-.094-.164l.024-.375c.015-.14.023-.453.023-.937a60.868 60.868 0 0 1-.023-2.157c0-.437-.04-.835-.118-1.195l-.093-.562v-.07c0-.141.094-.18.281-.118.078.016.258.047.54.094.296-.047 1.288-.164 2.976-.352a6.925 6.925 0 0 0 .867-.164h.094c.171 0 .328.086.468.258.25.297.352.508.305.633-.063.156-.125.422-.188.797-.03.219-.07.594-.117 1.125V18.046c0 .142-.07.329-.21.563a.365.365 0 0 1-.188.188.491.491 0 0 1-.258.07c-.094 0-.164-.023-.21-.07l-.095-.094a.265.265 0 0 0-.093-.094c-.016-.015-.047-.023-.094-.023-.969 0-1.844.062-2.625.187a.767.767 0 0 1-.188.024.442.442 0 0 0-.14.023l-.164.024h-.047Zm.445-.867c.39-.016.922-.063 1.594-.141.312-.031.492-.047.539-.047h.187c.25 0 .438.047.563.14.11-.78.164-2.21.164-4.288-.031-.235-.125-.352-.281-.352-.297 0-.899.055-1.805.164a1.7 1.7 0 0 0-.281.024l-.281.046c-.266.047-.461.07-.586.07-.11 0-.149.055-.118.165l-.023.797c-.016.11-.023.21-.023.304.015.094.023.18.023.258.016.125.023.328.023.61 0 1.218.008 1.89.024 2.015 0 .11.031.18.094.211.062.031.125.04.187.024Zm1.734-1.313c-.171 0-.304-.086-.398-.258-.328-.547-.633-1-.914-1.36l-.164-.257c-.063-.094-.094-.164-.094-.21.016-.063.055-.087.117-.071.407.125.782.328 1.125.61.532.405.797.718.797.937 0 .11-.031.218-.094.328-.109.187-.234.281-.374.281Zm2.133 10.172c-.234 0-.46-.172-.68-.516a7.414 7.414 0 0 0-.82-1.078l-.61-.633a9.628 9.628 0 0 1-.866.891c-.235.219-.531.43-.89.633-.673.39-1.235.586-1.688.586-.11 0-.164-.04-.164-.117 0-.047.148-.149.445-.305a4.96 4.96 0 0 0 .844-.563A10.11 10.11 0 0 0 67.555 24c-.094-.094-.563-.5-1.407-1.219a8.008 8.008 0 0 1-.492-.398 6.195 6.195 0 0 1-.281-.211c-.14-.11-.21-.188-.21-.235 0-.078.038-.117.116-.117.235 0 .61.164 1.125.492.516.313 1.055.688 1.617 1.125.22-.265.391-.515.516-.75.125-.234.266-.523.422-.867.078-.172.125-.32.14-.445.016-.14.024-.227.024-.258 0-.172.047-.258.14-.258.11 0 .258.086.446.258.328.313.492.524.492.633 0 .063-.039.133-.117.21-.188.188-.36.438-.516.75a6.296 6.296 0 0 1-.515.798 2.11 2.11 0 0 0-.188.258 2.483 2.483 0 0 1-.14.21c.359.266.89.72 1.593 1.36.172.156.282.305.328.445.063.125.094.297.094.516 0 .156-.039.289-.117.398a.378.378 0 0 1-.305.14Zm4.782-10.125c.187 0 .28.086.28.258 0 .093-.085.226-.257.398-.469.578-1.398 1.68-2.79 3.305-.108.14-.21.21-.304.21-.078 0-.25-.116-.515-.35-.22-.188-.329-.345-.329-.47 0-.14.118-.273.352-.398.36-.203.898-.61 1.617-1.219.719-.64 1.25-1.148 1.594-1.523.14-.14.258-.211.352-.211Zm-22.547-1.266c.172 0 .304.032.398.094.11.047.164.11.164.188 0 .14-.11.257-.328.351-.219.078-.633.188-1.242.328a27.085 27.085 0 0 1-.89 4.102c-.407 1.344-1.032 2.656-1.876 3.937 2.11 1.875 3.164 2.985 3.164 3.328 0 .204-.117.415-.351.633-.219.219-.407.328-.563.328-.14 0-.297-.109-.468-.328a28.053 28.053 0 0 0-2.672-2.812 16.504 16.504 0 0 1-2.461 2.343c-.86.672-1.633 1.188-2.32 1.547-.688.375-1.126.563-1.313.563-.125 0-.188-.047-.188-.14 0-.188.164-.391.493-.61 1.796-1.25 3.414-2.781 4.851-4.594a38.675 38.675 0 0 0-1.898-1.64 2.743 2.743 0 0 0-.375-.235 2.368 2.368 0 0 1-.399-.305 1.062 1.062 0 0 1-.164-.445 1.398 1.398 0 0 1-.023-.305c0-.218.039-.46.117-.726.281-.86.594-2.008.937-3.445-.28.046-.789.125-1.523.234-.734.094-1.188.14-1.36.14-.234 0-.468-.109-.703-.328-.234-.218-.414-.554-.539-1.007A.327.327 0 0 1 41 16.5c0-.094.055-.14.164-.14l.094.023c.14.031.36.047.656.047.313 0 1.5-.086 3.563-.258.203-1 .39-2.078.562-3.235.172-1.156.258-1.953.258-2.39 0-.344-.055-.633-.164-.867a.986.986 0 0 1-.047-.164c0-.125.086-.188.258-.188.437.063.804.18 1.101.352.313.172.47.39.47.656v.164A52.19 52.19 0 0 1 47 16.031l3.164-.375c.016-.11.031-.234.047-.375.016-.14.023-.312.023-.515v-.211c0-.282-.047-.57-.14-.867a.607.607 0 0 1-.024-.188c0-.14.07-.21.211-.21.14 0 .407.085.797.257.266.125.445.234.54.328.093.094.14.234.14.422v.094c-.016.265-.055.64-.117 1.125l.726-.07h.188ZM45.43 21.68a29.977 29.977 0 0 1 2.343 1.922c.391-.657.805-1.54 1.243-2.649.437-1.125.773-2.531 1.007-4.219a74.85 74.85 0 0 1-3.351.586c-.266 1.016-.68 2.47-1.242 4.36Zm8.11-7.453c0-.157.1-.235.304-.235.265 0 .789.172 1.57.516l4.57-.281h.188c.312 0 .555.062.726.187.188.125.313.266.375.422.079.14.118.242.118.305 0 .093-.04.218-.118.375-.078.156-.117.265-.117.328l-.515 8.719c.453.453.68.796.68 1.03 0 .188-.173.298-.516.329l-5.157.187.047 1.032v.047a.45.45 0 0 1-.14.328.53.53 0 0 1-.352.117c-.094 0-.234-.04-.422-.117a2.589 2.589 0 0 1-.492-.352.65.65 0 0 1-.21-.469l.023-.21c.046-.376.07-.743.07-1.102l-.024-.633-.304-8.836c-.016-.562-.102-1.047-.258-1.453a1.412 1.412 0 0 1-.047-.234Zm2.062 10.546 3.586-.14.445-9.047-4.336.281.305 8.906ZM100.414 18.797a.972.972 0 0 0-.164.047c-.078.015-.117-.008-.117-.07 0-.016.031-.047.094-.094l.164-.164c.047-.047.117-.11.211-.188.093-.094.164-.187.21-.281.235-.39.399-.781.493-1.172l.14-.82c.11-.61.157-1.32.141-2.133 0-.188-.024-.383-.07-.586-.016-.094-.094-.227-.235-.399v-.023c0-.031.039-.047.117-.047.11 0 .204.008.282.024.203.046.429.07.679.07.266-.016.43-.024.493-.024l1.57-.117c.312-.03.516-.047.609-.047.672-.093.977-.132.914-.117a5.95 5.95 0 0 1 .657-.094c.25.016.5.211.75.586l.046.118c0 .093-.07.148-.21.164a3.584 3.584 0 0 1-.258.023c-.485 0-.844.008-1.078.024-.594 0-1.032.007-1.313.023l-.656.047-1.336.14c-.094 1.313-.18 2.172-.258 2.579-.125.734-.367 1.328-.727 1.78-.265.345-.648.595-1.148.75Zm3.609 8.672c-.75 0-1.375-.188-1.875-.563-.515-.422-.773-.914-.773-1.476 0-.438.164-.82.492-1.149.422-.36.953-.539 1.594-.539.031 0 .055-.031.07-.094a.837.837 0 0 0 .047-.304l.024-.61c-.11.016-.321.04-.633.07a6.467 6.467 0 0 0-.657.094c.079-.015-.164.04-.726.165a.947.947 0 0 1-.258.023c-.297 0-.547-.133-.75-.398-.094-.094-.14-.172-.14-.235 0-.094.14-.14.421-.14l.727-.047 1.992-.258v-.867a.854.854 0 0 1-.023-.211.597.597 0 0 0-.024-.188 1.443 1.443 0 0 1-.047-.234c0-.11.055-.164.164-.164.141 0 .383.101.727.304.109.063.164.149.164.258a.469.469 0 0 1-.047.211.539.539 0 0 0-.023.164v.657l.703-.07.867-.095c.078-.015.164-.039.258-.07.109-.031.195-.047.258-.047.093 0 .211.047.351.14.266.173.399.321.399.446s-.133.188-.399.188c-.078 0-.187.015-.328.047-.14.015-.32.03-.539.046l-1.57.118-.024 1.43c-.031.234-.203.382-.515.445h-.047c-.094 0-.188-.008-.281-.024a.545.545 0 0 0-.188-.047c-.125 0-.25.008-.375.024a.622.622 0 0 0-.328.14c-.266.235-.399.508-.399.82 0 .313.149.594.446.844.265.25.687.375 1.265.375.766-.03 1.391-.242 1.875-.632.204-.141.36-.211.469-.211.063 0 .141.015.235.047l.093.093c.047.047.071.094.071.14 0 .438-.368.798-1.102 1.08a4.686 4.686 0 0 1-1.641.304Zm7.079-10.758c.187 0 .281.086.281.258 0 .093-.086.226-.258.398-.469.578-1.398 1.68-2.789 3.305-.109.14-.211.21-.305.21-.078 0-.25-.116-.515-.35-.219-.188-.328-.345-.328-.47 0-.14.117-.273.351-.398.359-.203.899-.61 1.617-1.219.719-.64 1.25-1.148 1.594-1.523.141-.14.258-.211.352-.211Zm-24.844-2.508c-.156 0-.313.008-.469.024-.14.015-.273.023-.398.023-.297 0-.547-.086-.75-.258a2.124 2.124 0 0 1-.47-.61c-.109-.218-.163-.39-.163-.515 0-.062.031-.094.094-.094.078 0 .14.008.187.024.297.062.625.094.984.094h.329l10.898-.516c.328-.016.633-.078.914-.188a.61.61 0 0 1 .188-.023c.234 0 .507.14.82.422.328.266.492.492.492.68 0 .203-.195.32-.586.351l-2.766.14.024 14.485c0 .172.008.328.023.469.032.156.047.297.047.422 0 .344-.133.64-.398.89-.266.25-.516.375-.75.375-.125 0-.438-.125-.938-.375-.5-.234-1.062-.546-1.687-.937a14.373 14.373 0 0 1-1.711-1.195c-.375-.328-.563-.563-.563-.703 0-.079.063-.118.188-.118.203 0 .469.078.797.235.765.343 1.922.718 3.469 1.125l-.024-14.602-7.781.375Zm-9.328 6.985c0-.157.101-.368.304-.633a51.035 51.035 0 0 0 3.258-4.805c.969-1.625 1.719-3.164 2.25-4.617.078-.313.117-.555.117-.727a1.97 1.97 0 0 0-.046-.351l-.024-.094c0-.156.094-.234.281-.234.25 0 .563.117.938.351.39.235.586.445.586.633 0 .156-.242.758-.727 1.805a26.095 26.095 0 0 1-1.71 3.14v14.016c0 .312-.141.469-.423.469-.203 0-.453-.086-.75-.258-.296-.156-.445-.406-.445-.75 0-.094.008-.172.023-.235.079-.375.118-.812.118-1.312l.093-9.984A21.968 21.968 0 0 1 78.5 20.25c-.75.734-1.227 1.102-1.43 1.102-.093 0-.14-.055-.14-.165Zm7.547-3.961c0-.094.078-.141.234-.141.281 0 .789.14 1.523.422l4.29-.235h.187c.281 0 .516.086.703.258.188.157.281.328.281.516a.42.42 0 0 1-.07.21c-.031.079-.055.141-.07.188l-.399 3.117c.438.485.656.813.656.985 0 .11-.054.18-.164.21-.093.032-.265.055-.515.071l-4.406.164.023.445v.094c0 .313-.117.469-.352.469-.25 0-.515-.078-.796-.234-.266-.157-.399-.344-.399-.563l.024-.164a4.07 4.07 0 0 0 .046-.727c0-.265-.007-.468-.023-.609l-.281-3.094c-.047-.437-.156-.78-.328-1.03-.11-.173-.164-.29-.164-.352Zm2.156 4.523 3.14-.117.211-3.07-3.539.187.188 3ZM139.859 19.29c-.218 0-.382-.071-.492-.212-.14-.265-.429-.555-.867-.867l.047-.117c.484.203.891.304 1.219.304.203 0 .375-.117.515-.351.157-.25.321-.61.492-1.078.204-.578.313-1.063.329-1.453 0-.047-.024-.086-.071-.118-.047-.046-.086-.07-.117-.07-.141-.015-.406.008-.797.07l-.492.07a3.759 3.759 0 0 0-.492.095 3.637 3.637 0 0 1-.422.093 4.735 4.735 0 0 0-.305.094 1.11 1.11 0 0 1-.304.07c-.079 0-.172-.039-.282-.117a2.555 2.555 0 0 1-.258-.305c-.015-.015-.023-.046-.023-.093 0-.063.047-.14.141-.235l.258-.258c.078-.093.156-.203.234-.328.078-.14.14-.242.187-.304.079-.125.141-.274.188-.446l.047-.21a.692.692 0 0 0-.024-.118c-.015-.078-.047-.117-.093-.117-.625.078-1.086.172-1.383.281a1.45 1.45 0 0 1-.282.094.355.355 0 0 1-.281-.14c-.047-.016-.14-.141-.281-.376-.062-.062-.094-.117-.094-.164 0-.109.164-.171.492-.187l.446-.047c.078 0 .242-.016.492-.047.5-.047 1.195-.101 2.086-.164a60.41 60.41 0 0 0 1.617-.117c.219-.016.484-.047.797-.094.172-.047.281-.07.328-.07.078 0 .156.031.234.094.079.03.18.093.305.187a.9.9 0 0 1 .281.258.373.373 0 0 1 .094.234c0 .078-.039.133-.117.164a.5.5 0 0 1-.305 0 3.66 3.66 0 0 0-.656-.093 10.032 10.032 0 0 0-.422-.024 19.102 19.102 0 0 0-1.992.07 3.82 3.82 0 0 1-.492.047c.094.078.179.203.258.375v.047c0 .047-.024.11-.071.188a.41.41 0 0 1-.164.164c-.078.047-.172.156-.281.328-.109.172-.18.281-.211.328-.094.125-.141.227-.141.305 0 .062.063.086.188.07l.68-.094c.359-.062.625-.117.796-.164.047-.015.118-.031.211-.047.11-.015.235-.047.375-.093a.503.503 0 0 1 .328.07c.126.062.313.195.563.398.187.14.281.266.281.375a.373.373 0 0 1-.094.235c-.062.11-.109.258-.14.445-.141.656-.305 1.188-.492 1.594a6.698 6.698 0 0 1-.399.703 3.476 3.476 0 0 1-.469.515c-.203.235-.437.352-.703.352Zm.914 3.632c-.156.203-.32.305-.492.305-.047 0-.07-.04-.07-.118 0-.109.031-.234.094-.375l.468-.937a.898.898 0 0 1 .071-.188c.031-.062.054-.117.07-.164v-.023c0-.031-.023-.063-.07-.094a.198.198 0 0 0-.164-.023c-.25.015-.625.054-1.125.117a9.02 9.02 0 0 0-1.078.187l-.352.118a.922.922 0 0 1-.305.07c-.281 0-.515-.086-.703-.258a1.444 1.444 0 0 1-.351-.328l-.047-.117c0-.078.133-.102.398-.07.36.03 1.102-.016 2.227-.141l.468-.07c.126-.016.321-.04.586-.07.282-.048.5-.095.657-.141l.14-.047a.378.378 0 0 1 .164-.047c.079 0 .172.039.282.117.125.078.226.148.304.21.11.08.18.15.211.212.047.047.063.11.047.187 0 .078-.039.149-.117.211-.078.063-.133.11-.164.14a3.796 3.796 0 0 1-.328.352 3.85 3.85 0 0 1-.422.516c-.188.219-.32.375-.399.469Zm-1.171 4.617c0-.047.078-.164.234-.352l.398-.468c.235-.313.516-.766.844-1.36.344-.593.539-.984.586-1.172.031-.093-.016-.14-.141-.14-.25 0-.937.07-2.062.21-.734.095-1.281.188-1.641.282a.452.452 0 0 1-.234.07c-.125 0-.258-.086-.398-.257a.617.617 0 0 1-.094-.305c0-.063.039-.125.117-.188l.07-.093a7.794 7.794 0 0 0 .328-.82c.079-.25.133-.524.164-.821.016-.172.11-.219.282-.14.218.109.383.218.492.328.125.093.164.164.117.21a2.35 2.35 0 0 0-.375.633 6.62 6.62 0 0 0-.141.492c0 .063.04.094.118.094.234 0 .586-.039 1.054-.117l.985-.117c.39-.047.703-.094.937-.14l.586-.118a.615.615 0 0 1 .188-.023c.078 0 .156.03.234.093.078.047.164.11.258.188.156.14.258.258.304.351a.535.535 0 0 1 .071.282c0 .062-.047.14-.141.234a2.815 2.815 0 0 0-.281.445 7.29 7.29 0 0 1-1.758 2.32c-.203.157-.43.29-.68.4a2.795 2.795 0 0 1-.304.07c-.078 0-.117-.024-.117-.07Zm4.5-8.953c.078 0 .195.055.351.164-.015.031.016.094.094.188l.164.164c.078.078.156.171.234.28l.305.352c.281.297.93 1.07 1.945 2.32.172.25.258.4.258.446 0 .156-.094.234-.281.234-.11 0-.227-.078-.352-.234-.297-.313-.828-.805-1.593-1.477-.594-.546-1.133-.968-1.618-1.265-.234-.11-.351-.235-.351-.375 0-.11.117-.266.351-.469.219-.219.383-.328.493-.328Zm-23.204 11.46v.048c0 .297-.132.445-.398.445-.25 0-.508-.086-.773-.258-.25-.172-.375-.398-.375-.68l.023-.187c.047-.25.07-.523.07-.82l-.023-.469-.258-6.54a17.623 17.623 0 0 1-2.414 1.876c-.828.516-1.555.914-2.18 1.195-.625.266-.992.399-1.101.399-.141 0-.211-.055-.211-.164 0-.157.148-.336.445-.54 1.485-.953 2.797-1.945 3.938-2.976a17.705 17.705 0 0 0 2.976-3.563l-5.273.258h-.328c-.422 0-.719-.07-.891-.21-.172-.157-.336-.477-.492-.962a.32.32 0 0 1-.024-.14c0-.063.032-.094.094-.094a.26.26 0 0 1 .117.023c.297.079.61.118.938.118h.422l6.164-.328c.281-.5.523-1.032.726-1.594l-3.726.21-.469.024c-.266 0-.508-.07-.727-.21-.218-.141-.398-.462-.539-.962l-.023-.093c0-.079.039-.118.117-.118a.33.33 0 0 1 .141.024c.359.094.703.14 1.031.14h.211l4.383-.28c.187-.595.312-1.087.375-1.477-1.391.234-2.969.406-4.735.515h-.187c-.25 0-.438-.023-.563-.07-.125-.047-.187-.11-.187-.188s.07-.156.211-.234c.14-.078.344-.14.609-.187a56.093 56.093 0 0 0 4.922-.938c1.734-.422 3.227-.875 4.477-1.36.328-.124.64-.312.937-.562.11-.078.203-.117.281-.117.157 0 .313.094.469.281.172.188.313.406.422.656.109.25.164.43.164.54 0 .14-.07.234-.211.28-1.844.485-3.515.86-5.015 1.126-.126.61-.266 1.156-.422 1.64l4.734-.28c.344-.032.609-.079.797-.141a.623.623 0 0 1 .281-.07c.188 0 .43.132.727.398.297.25.445.46.445.633 0 .187-.219.296-.656.328l-6.703.398c-.25.688-.477 1.227-.68 1.617l8.906-.468a8.488 8.488 0 0 0 1.149-.165c.062-.015.148-.023.257-.023.204 0 .446.133.727.398.297.25.445.47.445.657 0 .187-.156.297-.468.328l-11.719.586-.281.468-.282.47a2.93 2.93 0 0 1-.398.585l7.523-.375h.188c.25 0 .453.055.609.164a.98.98 0 0 1 .328.352c.063.125.094.21.094.258a.45.45 0 0 1-.07.234.402.402 0 0 0-.071.188l-.375 7.523c.36.469.539.789.539.96 0 .11-.046.18-.14.212-.094.031-.25.055-.469.07l-8.601.258.046.96Zm-.304-7.944 7.781-.352.023-1.64-7.875.374.071 1.618Zm.094 2.742 7.593-.305.047-1.594-7.687.328.047 1.57Zm.117 3 7.359-.211.07-1.875-7.5.305.071 1.78Z"/><path fill="#FA760A" d="M175.016 23.695c-.125 0-.227-.101-.305-.304-.125-.25-.188-.453-.188-.61l.024-.633c.015-.312.023-.937.023-1.875v-1.171l-.023-.82c-.172 0-.352.023-.539.07l-.539.14c-.078.031-.203-.015-.375-.14a1.451 1.451 0 0 1-.399-.422.536.536 0 0 1-.07-.211c0-.047.023-.078.07-.094a.522.522 0 0 1 .164-.023c.735 0 1.414-.04 2.039-.118l.704-.047 1.031-.07c.25-.031.422-.055.515-.07.125-.016.266-.031.422-.047.172-.031.282-.04.328-.023.063.046.141.093.235.14.109.047.226.125.351.235.078.078.141.156.188.234a.294.294 0 0 1 .094.21c0 .063-.039.157-.118.282-.078.125-.156.32-.234.586-.062.266-.109.453-.141.563-.234.78-.523 1.351-.867 1.71-.25.22-.531.329-.844.329-.14 0-.257-.102-.351-.305-.141-.313-.297-.531-.469-.656l.024-.117c.422.14.711.21.867.21.125 0 .211-.023.258-.07a.59.59 0 0 0 .164-.21c.078-.204.14-.384.187-.54.063-.156.117-.297.164-.422.032-.14.071-.328.117-.562.063-.235.102-.422.118-.563 0-.14-.039-.21-.118-.21h-.515c-.235 0-.5.007-.797.023a6.731 6.731 0 0 0-.727.07l-.046 2.133.023 1.219v.492a.938.938 0 0 1 0 .305v.445c.016.187.016.32 0 .398l-.164.375c-.109.11-.203.164-.281.164Zm5.086-8.625c.078 0 .195.055.351.164-.015.032.016.094.094.188l.164.164c.078.078.156.172.234.281l.305.352c.281.297.93 1.07 1.945 2.32.172.25.258.398.258.445 0 .157-.094.235-.281.235-.11 0-.227-.078-.352-.235-.297-.312-.828-.804-1.593-1.476-.594-.547-1.133-.969-1.618-1.266-.234-.11-.351-.234-.351-.375 0-.11.117-.265.351-.469.219-.218.383-.328.493-.328Zm-18.891 7.992c.156.875.234 1.86.234 2.954v.398c0 1.625-.14 2.719-.422 3.281-.281.563-.609.844-.984.844-.328 0-.891-.25-1.687-.75a19.4 19.4 0 0 1-2.25-1.594c-.688-.562-1.032-.937-1.032-1.125 0-.078.055-.117.164-.117.141 0 .36.07.657.211.953.5 1.789.875 2.507 1.125.735.266 1.157.398 1.266.398.063 0 .102-.046.117-.14.125-.828.188-1.656.188-2.485 0-.937-.078-1.914-.235-2.93l-8.086.329-.656.023c-.312 0-.531-.078-.656-.234-.313-.406-.508-.719-.586-.938a.51.51 0 0 1-.023-.164c0-.093.039-.14.117-.14a.26.26 0 0 1 .117.023c.328.094.672.14 1.031.14h.211l8.203-.374a8.703 8.703 0 0 0-.679-1.711c-.094-.188-.141-.344-.141-.469 0-.219.109-.367.328-.445.234-.078.43-.117.586-.117.094 0 .172.03.234.093.078.063.157.165.235.305l.093.188c1.438-1 2.461-1.86 3.071-2.578l-6.914.562c-.375.031-.617.047-.727.047-.328 0-.554-.063-.68-.188a3.314 3.314 0 0 1-.539-.68c-.109-.218-.164-.374-.164-.468 0-.11.055-.164.164-.164.063 0 .11.008.141.023.344.078.648.117.914.117l.399-.023 8.085-.61.352-.023c.219 0 .43.063.633.188s.367.265.492.422c.125.156.188.28.188.375 0 .156-.086.297-.258.422-.172.125-.281.21-.328.257-1.438 1.438-2.86 2.617-4.266 3.54l.281.867 6.821-.305c.437-.031.789-.094 1.054-.188a.744.744 0 0 1 .211-.047c.11 0 .274.07.492.211.235.125.438.282.61.47.187.187.281.35.281.491 0 .188-.203.297-.609.328l-8.555.375Zm-10.781-6.28c0-.063.031-.157.093-.282a29.742 29.742 0 0 0 2.039-4.71c.047-.173.102-.29.165-.352a.41.41 0 0 1 .304-.118c.094 0 .219.024.375.07.203.079.344.157.422.235a.355.355 0 0 1 .141.281c0 .047-.016.133-.047.258l-.164.469 6.656-.375c-1.125-.906-1.992-1.563-2.602-1.969a1.094 1.094 0 0 1-.234-.21.342.342 0 0 1-.07-.212c0-.14.062-.297.187-.469.141-.187.266-.296.375-.328a.33.33 0 0 1 .141-.023c.109 0 .234.047.375.14l.422.258c.875.547 1.578 1 2.109 1.36.531.36.821.633.867.82l.024.117c0 .11-.055.25-.164.422l6.633-.375h.211c.281 0 .531.094.75.281.234.188.351.367.351.54 0 .109-.07.234-.211.374a1.32 1.32 0 0 0-.234.282c-.11.187-.352.554-.727 1.101-.359.531-.75 1.047-1.172 1.547-.406.5-.711.75-.914.75-.125 0-.187-.07-.187-.21 0-.157.07-.352.211-.587a17.65 17.65 0 0 0 1.218-2.719l-14.461.774c-.406 1.078-.734 1.883-.984 2.414-.234.531-.414.875-.539 1.031-.125.14-.242.211-.351.211a4.3 4.3 0 0 1-.352-.117 2.645 2.645 0 0 1-.445-.281c-.141-.125-.211-.258-.211-.399ZM212.188 20.79c-.25 0-.399-.126-.446-.376-.094-.266-.344-.594-.75-.984l.07-.094c.063.031.243.11.54.234.296.11.5.164.609.164h.211a.464.464 0 0 0 .164-.117c.187-.14.422-.46.703-.96.203-.407.383-.884.539-1.43.172-.547.258-.961.258-1.243 0-.078-.063-.117-.188-.117l-.89.047-.61.047-.398.023-.164.024c.109.078.18.148.211.21.047.048.07.11.07.188s-.094.297-.281.657c-.156.343-.406.734-.75 1.171-.281.375-.664.782-1.148 1.22-.469.421-.821.64-1.055.655a.443.443 0 0 1-.141-.023.16.16 0 0 1-.047-.117c0-.016.125-.164.375-.446l.657-.773c.468-.625.945-1.422 1.429-2.39.047-.126.024-.196-.07-.212-.094.016-.289.04-.586.07a3.022 3.022 0 0 0-.797.141.759.759 0 0 0-.164.07.775.775 0 0 1-.234.048.32.32 0 0 1-.235-.094l-.187-.164c-.141-.11-.211-.211-.211-.305 0-.031.016-.078.047-.14l.117-.188c.062-.078.164-.203.305-.375a5.41 5.41 0 0 0 .468-.703c.032-.063.094-.203.188-.422.109-.219.164-.352.164-.399v-.093c0-.094.016-.156.047-.188.031-.031.101-.031.211 0 .109.031.242.117.398.258l.258.258c.047.047.07.101.07.164 0 .156-.218.437-.656.844a2.705 2.705 0 0 0-.281.351c-.11.156-.164.258-.164.305 0 .094.07.125.211.094l.539-.07c1.234-.188 2.164-.297 2.789-.329l.633-.094.211-.046.117-.024c.125 0 .211.016.258.047a.52.52 0 0 1 .14.164c.047.063.094.117.141.164.109.125.187.235.234.328l.047.211-.047.094-.047.14a1.393 1.393 0 0 0-.07.235 1.76 1.76 0 0 1-.07.21c-.328 1.267-.711 2.25-1.149 2.954-.14.25-.383.5-.726.75-.328.25-.617.375-.867.375Zm-.165 8.085c-.75 0-1.375-.188-1.875-.563-.515-.421-.773-.914-.773-1.476 0-.438.164-.82.492-1.148.422-.36.953-.54 1.594-.54.031 0 .055-.03.07-.093a.837.837 0 0 0 .047-.305l.024-.61c-.11.016-.321.04-.633.07a6.46 6.46 0 0 0-.657.095c.079-.016-.164.039-.726.164a.947.947 0 0 1-.258.023c-.297 0-.547-.133-.75-.398-.094-.094-.14-.172-.14-.235 0-.093.14-.14.421-.14l.727-.047 1.992-.258v-.867a.854.854 0 0 1-.023-.211.597.597 0 0 0-.024-.188 1.445 1.445 0 0 1-.047-.234c0-.11.055-.164.164-.164.141 0 .383.102.727.305.109.062.164.148.164.258a.468.468 0 0 1-.047.21.539.539 0 0 0-.023.165v.656l.703-.07.867-.094c.078-.016.164-.04.258-.07a.999.999 0 0 1 .258-.047c.093 0 .211.046.351.14.266.172.399.32.399.445s-.133.188-.399.188c-.078 0-.187.016-.328.047-.14.015-.32.031-.539.047l-1.57.117-.024 1.43c-.031.234-.203.382-.515.445h-.047c-.094 0-.188-.008-.281-.024a.547.547 0 0 0-.188-.046c-.125 0-.25.007-.375.023a.622.622 0 0 0-.328.14c-.266.235-.399.508-.399.82 0 .313.149.595.446.845.265.25.687.375 1.265.375.766-.032 1.391-.242 1.875-.633.204-.14.36-.211.469-.211.063 0 .141.016.235.047l.093.094c.047.046.071.093.071.14 0 .438-.368.797-1.102 1.078a4.686 4.686 0 0 1-1.641.305Zm-.257-18.516c.312 0 .578.11.796.329.235.203.352.476.352.82a1.1 1.1 0 0 1-.352.844 1.126 1.126 0 0 1-.796.304c-.313 0-.586-.101-.821-.304-.218-.22-.328-.5-.328-.844s.11-.617.328-.82c.235-.22.508-.329.821-.329Zm-23.063 18.352v.07c0 .344-.133.516-.398.516-.235 0-.493-.078-.774-.235-.265-.14-.398-.343-.398-.609 0-.062.015-.156.047-.281.078-.36.117-.656.117-.89l-.211-10.946c0-.188-.031-.383-.094-.586a1.974 1.974 0 0 0-.187-.54c-.11-.218-.164-.366-.164-.444 0-.094.078-.141.234-.141.297 0 .82.14 1.57.422h.211c.641-1.219 1.102-2.156 1.383-2.813.281-.671.422-1.156.422-1.453a.736.736 0 0 0-.023-.21l-.024-.141c0-.188.094-.282.281-.282.219 0 .5.102.844.305.344.188.516.375.516.563 0 .25-.243.804-.727 1.664-.469.843-.922 1.61-1.359 2.297l3.304-.188h.282c.25 0 .445.055.586.164.14.094.234.203.281.328.062.125.094.203.094.235a.712.712 0 0 1-.071.234.78.78 0 0 0-.047.234l-.375 10.43c.375.484.563.828.563 1.031 0 .11-.055.188-.164.235-.11.03-.281.054-.516.07l-5.226.188.023.773Zm-.164-8.086 4.313-.21.117-4.337-4.5.235.07 4.312Zm.117 6 4.008-.14.141-4.805-4.243.187.094 4.758Zm6.188-7.102c0-.171.078-.406.234-.703.797-1.453 1.524-3.07 2.18-4.851.672-1.797 1.008-2.977 1.008-3.54 0-.156-.008-.273-.024-.35l-.023-.188c0-.188.078-.282.234-.282.063 0 .219.063.469.188.266.11.5.25.703.422.219.172.328.344.328.515 0 .22-.164.727-.492 1.524-.328.797-.664 1.539-1.008 2.226l5.883-.351h.094c.218 0 .422.078.609.234.203.156.305.344.305.563 0 .078-.016.172-.047.28-.016.095-.024.18-.024.259-.156 4.406-.437 8.273-.843 11.601-.125.938-.313 1.688-.563 2.25-.234.563-.633.844-1.195.844-.281 0-.57-.102-.867-.305-.5-.328-1.18-.851-2.039-1.57-.844-.703-1.266-1.164-1.266-1.383 0-.125.078-.187.234-.187.172 0 .36.062.563.187 1.156.64 2.156 1.117 3 1.43h.047c.094 0 .164-.063.211-.188.359-1.343.633-3.203.82-5.578.187-2.375.305-4.742.352-7.101l-5.883.375c-.656 1.14-1.258 2.07-1.805 2.789-.547.719-.906 1.078-1.078 1.078-.078 0-.117-.063-.117-.188Zm2.015-.351c0-.14.079-.297.235-.469.172-.172.32-.258.445-.258.156 0 .344.11.563.328.625.594 1.359 1.383 2.203 2.368.859.968 1.289 1.562 1.289 1.78 0 .204-.125.407-.375.61-.25.188-.446.282-.586.282a.32.32 0 0 1-.235-.094 3.585 3.585 0 0 1-.257-.305 21.203 21.203 0 0 0-1.453-2.016 22.901 22.901 0 0 0-1.594-1.804c-.156-.157-.235-.297-.235-.422ZM246.922 19.102a.511.511 0 0 1-.328-.094l-.117-.117c-.063-.125-.25-.47-.563-1.032-.297-.562-.516-.945-.656-1.148-.297-.438-.446-.719-.446-.844 0-.172.102-.422.305-.75.313-.437.524-.789.633-1.055.203-.374.352-.664.445-.867.094-.218.133-.39.117-.515a1.368 1.368 0 0 1-.023-.258c0-.063.016-.094.047-.094.031-.015.094-.008.187.024.157.046.336.156.539.328.047.047.102.11.165.187a.593.593 0 0 1 .117.211.197.197 0 0 1 .023.164c0 .047-.023.094-.07.14l-.117.095c-.11.14-.235.312-.375.515-.141.203-.274.39-.399.563l-.586.843c-.156.22-.234.375-.234.47 0 .046.07.171.211.374l.492.54c.469.515.688.757.656.726.297.297.446.586.446.867 0 .484-.157.727-.469.727Zm3.094-.07a.784.784 0 0 1-.352-.071 1.534 1.534 0 0 1-.375-.61l-.492-.867-.469-.82c-.297-.406-.445-.68-.445-.82 0-.188.101-.43.305-.727l.374-.539c.157-.265.243-.422.258-.469.157-.312.289-.586.399-.82.125-.25.179-.437.164-.562a.964.964 0 0 1-.024-.235c0-.125.071-.156.211-.094.203.079.422.204.657.375.109.11.179.204.211.282.046.062.07.148.07.258 0 .03-.055.093-.164.187-.11.078-.203.164-.282.258-.093.094-.304.39-.632.89a7.665 7.665 0 0 1-.235.329c-.078.109-.179.257-.304.445-.157.203-.235.351-.235.445 0 .094.094.235.282.422a1.6 1.6 0 0 1 .187.234l.281.282.61.68c.296.265.445.523.445.773 0 .515-.149.773-.445.773Zm.304 7.804c-.234 0-.461-.172-.679-.516a7.442 7.442 0 0 0-.821-1.078l-.609-.633a9.616 9.616 0 0 1-.867.891c-.235.219-.532.43-.891.633-.672.39-1.234.586-1.687.586-.11 0-.164-.04-.164-.117 0-.047.148-.149.445-.305.297-.156.578-.344.844-.563A10.162 10.162 0 0 0 247.555 24c-.094-.094-.563-.5-1.407-1.219a8.177 8.177 0 0 1-.492-.398 6.353 6.353 0 0 1-.281-.211c-.141-.11-.211-.188-.211-.235 0-.078.039-.117.117-.117.235 0 .61.164 1.125.492.516.313 1.055.688 1.617 1.125.219-.265.391-.515.516-.75.125-.234.266-.523.422-.867a1.61 1.61 0 0 0 .141-.445c.015-.14.023-.227.023-.258 0-.172.047-.258.141-.258.109 0 .257.086.445.258.328.313.492.524.492.633 0 .063-.039.133-.117.21a2.87 2.87 0 0 0-.516.75 6.197 6.197 0 0 1-.515.798 2.14 2.14 0 0 0-.188.258 2.72 2.72 0 0 1-.14.21c.359.266.89.72 1.593 1.36.172.156.282.305.328.445.063.125.094.297.094.516a.668.668 0 0 1-.117.398.378.378 0 0 1-.305.14Zm1.782-8.25c.078 0 .195.055.351.164-.015.031.016.094.094.188l.164.164c.078.078.156.171.234.28l.305.352c.281.297.93 1.07 1.945 2.32.172.25.258.4.258.446 0 .156-.094.234-.281.234-.11 0-.227-.078-.352-.234-.297-.313-.828-.805-1.593-1.477-.594-.546-1.133-.968-1.618-1.265-.234-.11-.351-.235-.351-.375 0-.11.117-.266.351-.469.219-.219.383-.328.493-.328Zm-12.024-2.625c-.672 2.766-1.562 5.133-2.672 7.101 1.422 2.094 3.274 4.032 5.555 5.813.172.125.258.242.258.352 0 .125-.18.289-.539.492-.344.218-.586.328-.727.328-.203 0-.633-.32-1.289-.961a35.401 35.401 0 0 1-2.156-2.273 30.387 30.387 0 0 1-1.899-2.461 17.302 17.302 0 0 1-2.531 2.976c-.922.86-1.781 1.524-2.578 1.992-.781.485-1.312.727-1.594.727-.125 0-.187-.047-.187-.14 0-.141.148-.329.445-.563a24.147 24.147 0 0 0 3.094-2.86 21.454 21.454 0 0 0 2.531-3.445 27.957 27.957 0 0 1-2.32-4.945 15.376 15.376 0 0 1-1.5 2.156c-.516.61-.852.914-1.008.914-.078 0-.117-.055-.117-.164 0-.188.086-.43.258-.727a40.05 40.05 0 0 0 1.968-4.265c.563-1.438.992-2.688 1.289-3.75.313-1.078.469-1.758.469-2.04 0-.187-.008-.335-.023-.445v-.046c0-.125.078-.188.234-.188.25 0 .563.14.938.422.39.266.585.516.585.75 0 .203-.203.836-.609 1.898a53.323 53.323 0 0 1-.984 2.485l4.781-.328a3.3 3.3 0 0 0 1.055-.235c.125-.031.203-.047.234-.047.188 0 .453.133.797.399.344.25.516.476.516.68 0 .171-.164.273-.493.304l-1.781.094Zm-18.89.047c0-.078.039-.117.117-.117.062 0 .109.007.14.023.235.078.555.117.961.117h.235l3.468-.187.024-4.125a1.62 1.62 0 0 0-.071-.469 2.577 2.577 0 0 0-.21-.492.42.42 0 0 1-.071-.211c0-.125.102-.188.305-.188.172 0 .43.047.773.141.516.125.774.352.774.68l-.094 4.593 1.922-.117a4.734 4.734 0 0 0 1.289-.21.993.993 0 0 1 .82.188c.203.124.368.272.492.444.141.172.211.297.211.375 0 .219-.187.344-.562.375l-4.195.235-.094 3.843 2.156-.117.258-.023c.219 0 .445.101.68.304.234.188.351.367.351.54a.588.588 0 0 1-.094.28.58.58 0 0 0-.093.258l-.516 4.172c.391.485.586.813.586.985 0 .11-.047.18-.141.21a4.453 4.453 0 0 1-.468.047l-5.086.141.07.938v.07c0 .14-.039.258-.117.352-.063.093-.164.14-.305.14-.219 0-.476-.094-.773-.281-.282-.172-.422-.367-.422-.586 0-.094.008-.164.023-.211.047-.266.071-.547.071-.844l-.024-.492-.305-4.406c-.031-.469-.117-.86-.257-1.172-.078-.156-.118-.281-.118-.375 0-.11.079-.164.235-.164.25 0 .765.133 1.547.398l1.382-.07.024-3.844-3.047.164-.469.024c-.39 0-.656-.07-.797-.211a1.963 1.963 0 0 1-.445-.656c-.094-.25-.14-.407-.14-.47Zm3.773 10.453 3.82-.14.375-4.266-4.5.234.305 4.172Zm9.351-9.938c.61 1.875 1.344 3.586 2.204 5.133.718-1.453 1.343-3.312 1.875-5.578l-3.985.281-.094.164ZM280.625 23.953a.584.584 0 0 1-.211-.023c-.016-.032.008-.086.07-.164.219-.203.391-.399.516-.586.141-.203.289-.524.445-.961.25-.719.375-1.274.375-1.664 0-.36-.023-.688-.07-.985v-.07c0-.172.109-.227.328-.164.188.047.399.11.633.187a.712.712 0 0 1 .211-.023c.094-.016.242-.04.445-.07a40.16 40.16 0 0 1 2.063-.235c0-.062.062-.28.187-.656l.141-.516c.062-.218.039-.328-.07-.328-.313 0-1.04.078-2.18.235l-1.242.21c-.11.016-.25-.03-.422-.14a1.419 1.419 0 0 1-.375-.375c-.078-.14-.063-.234.047-.281a.702.702 0 0 1 .375-.117h.539l1.547-.047 1.5-.188c.078-.015.171-.039.281-.07.125-.047.242-.078.351-.094.157-.031.422.14.797.516a.29.29 0 0 1 .094.21c0 .094-.062.188-.188.282-.171.172-.281.32-.328.445a3.895 3.895 0 0 1-.093.352 5.18 5.18 0 0 0-.141.539.59.59 0 0 1 .141.398c0 .125-.039.22-.118.282-.062.046-.195.07-.398.07-.703.047-1.258.094-1.664.14-.406.032-.899.11-1.477.235a7.506 7.506 0 0 1-.422 1.945c-.218.578-.523 1.016-.914 1.313-.375.265-.632.398-.773.398Zm7.477-8.883c.078 0 .195.055.351.164-.015.032.016.094.094.188l.164.164c.078.078.156.172.234.281l.305.352c.281.297.93 1.07 1.945 2.32.172.25.258.398.258.445 0 .157-.094.235-.281.235-.11 0-.227-.078-.352-.235-.297-.312-.828-.804-1.593-1.476-.594-.547-1.133-.969-1.618-1.266-.234-.11-.351-.234-.351-.375 0-.11.117-.265.351-.469.219-.218.383-.328.493-.328Zm-14.086 8.977c.375.39.562.672.562.844 0 .109-.055.18-.164.21a2.14 2.14 0 0 1-.469.07l-5.578.235v2.508l.024.586c.015.11.023.273.023.492 0 .485-.141.875-.422 1.172-.281.313-.594.469-.937.469-.282 0-.735-.195-1.36-.586-.625-.39-1.203-.82-1.734-1.29-.531-.452-.797-.757-.797-.913 0-.125.086-.188.258-.188.156 0 .312.04.469.117 1.281.547 2.297.907 3.047 1.079v-3.399l-4.454.188-.632.023c-.547 0-.946-.32-1.196-.96a.535.535 0 0 1-.07-.212c0-.078.039-.117.117-.117l.188.047c.171.062.445.094.82.094h.281l4.946-.188v-1.476l-7.946.351h-.164c-.312 0-.594-.055-.844-.164-.25-.125-.437-.414-.562-.867a.256.256 0 0 1-.024-.117c0-.078.047-.117.141-.117l.141.023c.312.078.586.117.82.117h.188l8.25-.351v-1.29l-4.665.235h-.328c-.39 0-.695-.078-.914-.235a1.355 1.355 0 0 1-.422-.492 1.275 1.275 0 0 1-.093-.375c0-.078.039-.117.117-.117.062 0 .109.008.14.024.344.078.625.117.844.117l.352-.024 4.945-.28v-1.36l-4.125.187.023.188v.093c0 .204-.132.305-.398.305-.172 0-.398-.039-.68-.117-.265-.094-.398-.273-.398-.54v-.562a3.7 3.7 0 0 0-.024-.492l-.164-1.265c-.046-.454-.171-.829-.375-1.125-.109-.172-.164-.297-.164-.375 0-.11.086-.165.258-.165.281 0 .821.141 1.617.422l4.43-.257v-1.36l-6.656.375a5.35 5.35 0 0 1-.563.024c-.328 0-.593-.086-.797-.258a1.876 1.876 0 0 1-.421-.54c-.079-.202-.118-.335-.118-.398 0-.078.047-.117.141-.117a.52.52 0 0 1 .164.024c.313.078.633.117.961.117h.211l7.078-.422V10.5c0-.484-.117-.875-.352-1.172a.42.42 0 0 1-.07-.164c0-.094.086-.14.258-.14.188 0 .406.039.656.117.391.109.641.226.75.351.11.125.164.313.164.563v1.523l5.977-.351c.219-.016.437-.055.656-.118.219-.078.359-.125.422-.14a.325.325 0 0 1 .141-.024c.218 0 .484.14.796.422.313.281.469.508.469.68 0 .172-.172.273-.515.305l-7.946.445v1.36l4.805-.282.375-.023c.203 0 .414.07.633.21.234.126.351.274.351.446a.536.536 0 0 1-.117.305c-.062.109-.101.187-.117.234l-.375 1.476c.391.375.586.641.586.797 0 .11-.055.18-.164.211a2.702 2.702 0 0 1-.516.07l-5.437.258v1.36l5.203-.305.258-.023c.203 0 .422.086.656.257.25.157.375.368.375.633 0 .078-.031.18-.094.305a.73.73 0 0 0-.094.281l-.187 1.031 1.781-.07a2.61 2.61 0 0 0 .727-.14c.219-.079.351-.125.398-.141.125-.031.211-.047.258-.047.156 0 .398.125.727.375.328.25.492.469.492.656 0 .188-.211.297-.633.328l-3.938.164-.257 1.524Zm-11.344-6.961 4.242-.211v-1.617l-4.43.258.188 1.57Zm5.695 7.195 4.313-.164.211-1.523-4.547.21.023 1.477Zm4.664-2.812.188-1.36-4.875.258v1.29l4.687-.188Zm-.515-4.875.281-1.664-4.453.258v1.617l4.172-.211Z"/><path fill="#333" d="M304.789 24.21c0 .126-.07.22-.211.282a1.043 1.043 0 0 1-.469.094c-.359 0-.617-.055-.773-.164a.746.746 0 0 1-.305-.422 4.335 4.335 0 0 1-.047-.727c0-.406.032-.804.094-1.195.094-.656.344-1.21.75-1.664.406-.469.984-.992 1.734-1.57.547-.422.985-.79 1.313-1.102.328-.312.602-.68.82-1.101.235-.422.352-.899.352-1.43 0-.563-.258-1.04-.774-1.43-.515-.39-1.14-.586-1.875-.586-.875 0-1.703.149-2.484.446-.766.28-1.383.656-1.852 1.125-.359.39-.64.921-.843 1.593-.063.203-.203.305-.422.305-.235 0-.477-.102-.727-.305-.25-.218-.375-.445-.375-.68 0-.202.258-.624.774-1.265.515-.656 1.273-1.25 2.273-1.781 1-.547 2.211-.82 3.633-.82 1.234 0 2.273.296 3.117.89.844.594 1.266 1.383 1.266 2.367 0 .72-.141 1.352-.422 1.899a5.293 5.293 0 0 1-1.008 1.36c-.39.358-.906.78-1.547 1.265-.703.531-1.234.992-1.593 1.383a2.328 2.328 0 0 0-.61 1.312 4.596 4.596 0 0 0-.023.54c0 .358.07.788.211 1.288l.023.094Zm-2.156 3.118c0-.344.101-.625.305-.844.218-.218.531-.328.937-.328.297 0 .57.164.82.492.266.313.399.649.399 1.008 0 .328-.102.586-.305.774-.203.203-.508.304-.914.304-.328 0-.617-.148-.867-.445-.25-.297-.375-.617-.375-.96Z"/></svg>