<svg width="150" height="60" viewBox="0 0 150 60" fill="none" xmlns="http://www.w3.org/2000/svg">
<path d="M62.2305 30.6367C61.957 30.6367 61.7109 30.5273 61.4922 30.3086C61.2188 30.1081 61.082 29.9531 61.082 29.8438C61.082 29.7161 61.2917 29.6523 61.7109 29.6523L63.0508 29.5703L64.418 29.4336C64.4544 29.1419 64.4727 28.5859 64.4727 27.7656C64.5273 27.7656 64.2448 27.8021 63.625 27.875L63.1055 27.957C62.9414 28.0299 62.7956 28.0664 62.668 28.0664C62.5586 28.0664 62.4674 28.0299 62.3945 27.957C62.1029 27.7018 61.957 27.4831 61.957 27.3008V26.0156C61.957 25.888 61.9115 25.3958 61.8203 24.5391L61.793 24.2383C61.793 24.0924 61.8203 24.0013 61.875 23.9648C61.9297 23.9284 62.0299 23.9284 62.1758 23.9648C62.7227 24.1107 62.987 24.2747 62.9688 24.457L62.9414 24.6484C62.9049 24.9036 62.8867 25.2318 62.8867 25.6328C62.8867 26.1068 62.8958 26.4076 62.9141 26.5352C62.9505 26.8997 62.9688 27.0729 62.9688 27.0547C62.987 27.1276 63.0508 27.1641 63.1602 27.1641C63.2695 27.1641 63.4883 27.1367 63.8164 27.082C64.1628 27.0091 64.3906 26.9635 64.5 26.9453V24.5391C64.5 23.8646 64.4727 23.4089 64.418 23.1719C64.3815 22.9896 64.3633 22.8893 64.3633 22.8711C64.3633 22.7435 64.4089 22.6797 64.5 22.6797C64.5365 22.6797 64.6641 22.7161 64.8828 22.7891C65.2292 22.9531 65.457 23.099 65.5664 23.2266C65.694 23.3542 65.7396 23.4909 65.7031 23.6367C65.6484 23.819 65.612 24.1836 65.5938 24.7305C65.5573 25.168 65.5208 25.8789 65.4844 26.8633L66.4141 26.8359C66.5964 26.8359 66.7331 26.8268 66.8242 26.8086C66.9154 26.7904 66.9609 26.7539 66.9609 26.6992C67.0885 26.0065 67.1706 25.4049 67.207 24.8945L67.2344 24.5664C67.2526 24.5299 67.2526 24.4661 67.2344 24.375C67.2344 24.2839 67.2344 24.2201 67.2344 24.1836L67.207 23.9922C67.207 23.8281 67.2708 23.7461 67.3984 23.7461C67.4714 23.7461 67.6263 23.819 67.8633 23.9648C67.918 24.0013 67.9909 24.056 68.082 24.1289C68.1914 24.1836 68.2643 24.2474 68.3008 24.3203C68.3372 24.375 68.3555 24.4479 68.3555 24.5391C68.3555 24.6484 68.3464 24.7396 68.3281 24.8125L68.0273 26.3438L67.9453 26.9727C67.8724 27.3919 67.6536 27.6198 67.2891 27.6562C67.1797 27.638 67.0885 27.6107 67.0156 27.5742C66.9609 27.5378 66.9154 27.5195 66.8789 27.5195C66.6602 27.5195 66.2044 27.5651 65.5117 27.6562L65.4844 29.3516L65.9492 29.3242L66.3867 29.2969C67.0612 29.2969 67.5625 29.2604 67.8906 29.1875C68.0365 29.1875 68.1641 29.1693 68.2734 29.1328L68.3555 29.1055C68.5378 29.1055 68.7292 29.2331 68.9297 29.4883C69.1667 29.7253 69.2852 29.8984 69.2852 30.0078C69.2852 30.1719 69.0299 30.2266 68.5195 30.1719L67.4805 30.1172H66.1133C65.8398 30.1172 65.3385 30.1536 64.6094 30.2266C64.2266 30.2266 63.8802 30.2448 63.5703 30.2812C63.2604 30.3177 62.9688 30.3815 62.6953 30.4727L62.2305 30.6367ZM68.1641 39.4414C67.8906 39.4414 67.6263 39.2409 67.3711 38.8398C67.043 38.3294 66.724 37.9102 66.4141 37.582L65.7031 36.8438C65.3203 37.2812 64.9831 37.6276 64.6914 37.8828C64.418 38.138 64.0716 38.3841 63.6523 38.6211C62.8685 39.0768 62.2122 39.3047 61.6836 39.3047C61.556 39.3047 61.4922 39.2591 61.4922 39.168C61.4922 39.1133 61.6654 38.9948 62.0117 38.8125C62.3581 38.6302 62.6862 38.4115 62.9961 38.1562C63.7799 37.5 64.4271 36.8255 64.9375 36.1328C64.8281 36.0234 64.2812 35.5495 63.2969 34.7109C63.1693 34.6198 62.9779 34.4648 62.7227 34.2461C62.668 34.2096 62.5586 34.1276 62.3945 34C62.2305 33.8724 62.1484 33.7812 62.1484 33.7266C62.1484 33.6354 62.194 33.5898 62.2852 33.5898C62.5586 33.5898 62.9961 33.7812 63.5977 34.1641C64.1992 34.5286 64.8281 34.9661 65.4844 35.4766C65.7396 35.1667 65.9401 34.875 66.0859 34.6016C66.2318 34.3281 66.3958 33.9909 66.5781 33.5898C66.6693 33.3893 66.724 33.2161 66.7422 33.0703C66.7604 32.9062 66.7695 32.806 66.7695 32.7695C66.7695 32.569 66.8242 32.4688 66.9336 32.4688C67.0612 32.4688 67.2344 32.569 67.4531 32.7695C67.8359 33.1341 68.0273 33.3802 68.0273 33.5078C68.0273 33.5807 67.9818 33.6628 67.8906 33.7539C67.6719 33.9727 67.4714 34.2643 67.2891 34.6289C67.1797 34.8477 66.9792 35.1576 66.6875 35.5586C66.5964 35.668 66.5234 35.7682 66.4688 35.8594C66.4141 35.9505 66.3594 36.0326 66.3047 36.1055C66.724 36.4154 67.3438 36.944 68.1641 37.6914C68.3646 37.8737 68.4922 38.0469 68.5469 38.2109C68.6198 38.3568 68.6562 38.5573 68.6562 38.8125C68.6562 38.9948 68.6107 39.1497 68.5195 39.2773C68.4284 39.3867 68.3099 39.4414 68.1641 39.4414ZM73.8516 29.4336C73.9062 29.4336 73.9609 29.4609 74.0156 29.5156C74.0703 29.5521 74.1068 29.6068 74.125 29.6797V29.7344C74.125 29.862 74.0247 30.1081 73.8242 30.4727L71.8555 33.8906C71.7096 34.2005 71.5182 34.3555 71.2812 34.3555C71.0443 34.3555 70.8438 34.2096 70.6797 33.918C70.5156 33.681 70.3151 33.3255 70.0781 32.8516C69.9688 32.6875 69.8776 32.5234 69.8047 32.3594C69.7318 32.1953 69.6771 32.0768 69.6406 32.0039C69.4401 31.6576 69.3398 31.4115 69.3398 31.2656C69.3398 31.1927 69.3672 31.138 69.4219 31.1016C69.4766 31.0469 69.5312 31.0195 69.5859 31.0195C69.7865 31.0195 69.9688 31.1289 70.1328 31.3477C70.2604 31.4753 70.3607 31.612 70.4336 31.7578L70.7344 32.168L71.2812 32.7969L71.5273 32.4141C71.7826 31.9766 72.3841 31.1107 73.332 29.8164C73.5326 29.5612 73.7057 29.4336 73.8516 29.4336ZM36.1719 42.1484C35.7161 42.1484 35.3607 42.0208 35.1055 41.7656C34.8503 41.5104 34.6771 41.237 34.5859 40.9453C34.513 40.6536 34.4766 40.4531 34.4766 40.3438C34.4766 40.2344 34.5404 40.1797 34.668 40.1797C34.7409 40.1797 34.8047 40.1888 34.8594 40.207C35.3516 40.3164 35.7891 40.3711 36.1719 40.3711H36.3906L45.6055 40.043V33.6719L40.8477 33.8906L40.1641 33.918C39.7812 33.918 39.5443 33.8724 39.4531 33.7812C39.1979 33.5807 38.9883 33.3346 38.8242 33.043C38.6784 32.7513 38.6055 32.5326 38.6055 32.3867C38.6055 32.2773 38.6602 32.2227 38.7695 32.2227C38.8424 32.2227 38.9062 32.2318 38.9609 32.25C39.362 32.3411 39.7266 32.3867 40.0547 32.3867H40.2734L45.6328 32.1406V26.4258L39.3711 26.7539L38.5234 26.7812C38.1771 26.7812 37.931 26.7357 37.7852 26.6445C37.457 26.4076 37.2292 26.1432 37.1016 25.8516C36.974 25.5599 36.9102 25.3503 36.9102 25.2227C36.9102 25.0951 36.9648 25.0312 37.0742 25.0312C37.1471 25.0312 37.2109 25.0404 37.2656 25.0586C37.5938 25.1497 37.9948 25.1953 38.4688 25.1953H38.8242L53.1523 24.375C53.5716 24.3385 53.9818 24.2565 54.3828 24.1289C54.4193 24.1107 54.4831 24.1016 54.5742 24.1016C54.793 24.1016 55.1029 24.2747 55.5039 24.6211C55.9049 24.9674 56.1055 25.25 56.1055 25.4688C56.1055 25.7057 55.8776 25.8424 55.4219 25.8789L47.5195 26.3164V32.0586L52.25 31.8398C52.651 31.8034 53.0156 31.7305 53.3438 31.6211C53.3802 31.6029 53.4349 31.5938 53.5078 31.5938C53.7266 31.5938 54.0182 31.7578 54.3828 32.0859C54.7656 32.4141 54.957 32.6875 54.957 32.9062C54.957 33.125 54.7565 33.2526 54.3555 33.2891L47.4922 33.5898V39.9883L55.8047 39.6875C56.2604 39.651 56.6797 39.569 57.0625 39.4414C57.099 39.4232 57.1536 39.4141 57.2266 39.4141C57.3359 39.4141 57.5273 39.5052 57.8008 39.6875C58.0742 39.8698 58.3203 40.0794 58.5391 40.3164C58.7578 40.5352 58.8672 40.7357 58.8672 40.918C58.8672 41.1732 58.6484 41.319 58.2109 41.3555L37.1016 42.1211L36.1719 42.1484ZM42.2969 19.6719C42.2969 19.526 42.3516 19.3255 42.4609 19.0703C42.5703 18.8151 42.7526 18.6875 43.0078 18.6875C43.3542 18.6875 44.3568 19.0885 46.0156 19.8906C47.6745 20.6927 48.8867 21.3216 49.6523 21.7773C50.0169 21.9779 50.1992 22.1966 50.1992 22.4336C50.1992 22.6888 50.099 22.9622 49.8984 23.2539C49.7161 23.5273 49.5339 23.6641 49.3516 23.6641C49.2057 23.6641 49.0417 23.6003 48.8594 23.4727C46.8724 22.1419 44.8398 21.0482 42.7617 20.1914C42.4518 20.0456 42.2969 19.8724 42.2969 19.6719Z" fill="#333333"/>
<path d="M103.52 36.0781C103.392 36.0781 103.31 36.069 103.273 36.0508C103.255 36.0143 103.283 35.9505 103.355 35.8594C103.611 35.6224 103.811 35.3945 103.957 35.1758C104.121 34.9388 104.294 34.5651 104.477 34.0547C104.768 33.2161 104.914 32.569 104.914 32.1133C104.914 31.694 104.887 31.3112 104.832 30.9648V30.8828C104.832 30.6823 104.96 30.6185 105.215 30.6914C105.434 30.7461 105.68 30.819 105.953 30.9102C106.008 30.8919 106.09 30.8828 106.199 30.8828C106.309 30.8646 106.482 30.8372 106.719 30.8008C107.339 30.7096 108.141 30.6185 109.125 30.5273C109.125 30.4544 109.198 30.1992 109.344 29.7617L109.508 29.1602C109.581 28.9049 109.553 28.7773 109.426 28.7773C109.061 28.7773 108.214 28.8685 106.883 29.0508L105.434 29.2969C105.306 29.3151 105.142 29.2604 104.941 29.1328C104.759 29.0052 104.613 28.8594 104.504 28.6953C104.413 28.5312 104.431 28.4219 104.559 28.3672C104.704 28.276 104.85 28.2305 104.996 28.2305C105.142 28.2305 105.233 28.2305 105.27 28.2305H105.625L107.43 28.1758L109.18 27.957C109.271 27.9388 109.38 27.9115 109.508 27.875C109.654 27.8203 109.79 27.7839 109.918 27.7656C110.1 27.7292 110.41 27.9297 110.848 28.3672C110.921 28.4401 110.957 28.5221 110.957 28.6133C110.957 28.7227 110.884 28.832 110.738 28.9414C110.538 29.1419 110.41 29.3151 110.355 29.4609C110.337 29.5521 110.301 29.6888 110.246 29.8711C110.191 30.0352 110.137 30.2448 110.082 30.5C110.191 30.6276 110.246 30.7826 110.246 30.9648C110.246 31.1107 110.201 31.2201 110.109 31.293C110.036 31.3477 109.882 31.375 109.645 31.375C108.824 31.4297 108.177 31.4844 107.703 31.5391C107.229 31.5755 106.655 31.6667 105.98 31.8125C105.908 32.6328 105.743 33.3893 105.488 34.082C105.233 34.7565 104.878 35.2669 104.422 35.6133C103.984 35.9232 103.684 36.0781 103.52 36.0781ZM115.742 23.5273C115.961 23.5273 116.07 23.6276 116.07 23.8281C116.07 23.9375 115.97 24.0924 115.77 24.293C115.223 24.9674 114.138 26.2526 112.516 28.1484C112.388 28.3125 112.27 28.3945 112.16 28.3945C112.069 28.3945 111.868 28.2578 111.559 27.9844C111.303 27.7656 111.176 27.5833 111.176 27.4375C111.176 27.2734 111.312 27.1185 111.586 26.9727C112.005 26.7357 112.634 26.2617 113.473 25.5508C114.311 24.8034 114.931 24.2109 115.332 23.7734C115.496 23.6094 115.633 23.5273 115.742 23.5273ZM84.4336 32.3047V34.1367L92.8555 33.8086L93.1016 31.8672L84.4336 32.3047ZM76.0391 30.7188C76.0391 30.6276 76.0938 30.5182 76.2031 30.3906C76.3307 30.2448 76.513 30.099 76.75 29.9531C79.2292 28.3672 81.3529 26.7995 83.1211 25.25C84.9076 23.6823 86.5664 21.8411 88.0977 19.7266C88.2982 19.4531 88.3984 19.1341 88.3984 18.7695C88.3984 18.569 88.4896 18.4688 88.6719 18.4688C88.8542 18.4688 89.0729 18.569 89.3281 18.7695C89.5833 18.9518 89.8112 19.1615 90.0117 19.3984C90.2122 19.6354 90.3125 19.7995 90.3125 19.8906C90.3125 19.9818 90.2943 20.0456 90.2578 20.082L89.6016 20.875C91.5703 22.5521 93.4206 23.9375 95.1523 25.0312C96.8841 26.1068 99.0169 27.2096 101.551 28.3398C101.806 28.4674 101.934 28.5859 101.934 28.6953C101.934 28.7682 101.842 28.9141 101.66 29.1328C101.478 29.3333 101.268 29.5156 101.031 29.6797C100.812 29.8438 100.612 29.9258 100.43 29.9258C100.339 29.9258 100.238 29.8984 100.129 29.8438C97.7227 28.5677 95.681 27.3737 94.0039 26.2617C92.3451 25.1315 90.5495 23.737 88.6172 22.0781C87.8516 22.9714 87.0312 23.8555 86.1562 24.7305C86.6302 24.8034 86.9674 24.8398 87.168 24.8398H87.332L89.6836 24.7305C89.8659 24.7305 90.1576 24.6758 90.5586 24.5664C90.5951 24.5482 90.6589 24.5391 90.75 24.5391C90.9141 24.5391 91.0872 24.612 91.2695 24.7578C91.4701 24.9036 91.6341 25.0768 91.7617 25.2773C91.9076 25.4596 91.9805 25.5781 91.9805 25.6328C91.9805 25.7786 91.8164 25.8698 91.4883 25.9062L87.7969 26.125C87.6146 26.1432 87.3958 26.1523 87.1406 26.1523C86.5391 26.1523 86.1016 25.7786 85.8281 25.0312C84.9167 25.888 84.0326 26.6172 83.1758 27.2188C83.2305 27.237 83.3854 27.2917 83.6406 27.3828C83.9141 27.474 84.1966 27.6016 84.4883 27.7656L93.6758 27.1914H94.0039C94.2773 27.1914 94.5143 27.2552 94.7148 27.3828C94.9336 27.4922 95.0977 27.6289 95.207 27.793C95.3346 27.9388 95.3984 28.0573 95.3984 28.1484C95.3984 28.2214 95.362 28.3307 95.2891 28.4766C95.2344 28.6224 95.1979 28.7409 95.1797 28.832L94.4141 33.7539C94.9062 34.2461 95.1523 34.5833 95.1523 34.7656C95.1523 34.9661 94.9792 35.0664 94.6328 35.0664H94.5508L84.4336 35.4766L84.4062 41.4102C84.8438 41.2461 85.3086 41.0456 85.8008 40.8086C86.293 40.5716 86.6484 40.3984 86.8672 40.2891C87.013 40.2161 87.5052 39.9792 88.3438 39.5781C88.4349 39.5417 88.5625 39.5234 88.7266 39.5234C88.8542 39.5234 88.9453 39.5508 89 39.6055C89.0729 39.6419 89.1094 39.6966 89.1094 39.7695C89.1094 39.8242 89.0547 39.8971 88.9453 39.9883C88.8542 40.0794 88.7357 40.1797 88.5898 40.2891C87.9518 40.7812 87.1315 41.3281 86.1289 41.9297L84.4883 42.9141C84.2148 43.0964 83.9688 43.2422 83.75 43.3516C83.5312 43.4792 83.3763 43.543 83.2852 43.543C83.0846 43.543 82.8659 43.4062 82.6289 43.1328C82.3919 42.8776 82.3099 42.6589 82.3828 42.4766C82.4557 42.3307 82.5195 41.957 82.5742 41.3555C82.6471 40.7721 82.6927 40.3346 82.7109 40.043L82.7383 29.543C82.7383 28.8503 82.6654 28.2396 82.5195 27.7109C81.2982 28.5859 80.0404 29.3424 78.7461 29.9805C77.4701 30.6003 76.6589 30.9102 76.3125 30.9102C76.1302 30.9102 76.0391 30.8464 76.0391 30.7188ZM93.2383 30.5L93.4297 28.6133L84.4609 29.1328V30.9375L93.2383 30.5ZM87.0039 37.0078C86.931 36.8802 86.9401 36.6979 87.0312 36.4609C87.1406 36.224 87.2682 36.0599 87.4141 35.9688C87.4505 35.9323 87.5143 35.9141 87.6055 35.9141C87.6966 35.9141 87.8698 35.9688 88.125 36.0781C88.7083 36.3698 89.7383 36.944 91.2148 37.8008C92.8919 36.9805 94.0768 36.2695 94.7695 35.668C95.4622 35.0664 95.8724 34.6107 96 34.3008C96.0911 33.9362 96.2279 33.7539 96.4102 33.7539C96.4831 33.7539 96.6016 33.8451 96.7656 34.0273C96.9479 34.1914 97.1029 34.401 97.2305 34.6562C97.3763 34.8932 97.4492 35.1211 97.4492 35.3398C97.4492 35.668 96.9753 36.1419 96.0273 36.7617C95.0977 37.3633 93.9401 37.974 92.5547 38.5938C93.9036 39.3958 95.1068 40.1523 96.1641 40.8633C97.2396 41.556 97.8229 41.9753 97.9141 42.1211C97.987 42.2122 98.0234 42.3307 98.0234 42.4766C98.0234 42.6589 97.9688 42.8411 97.8594 43.0234C97.75 43.2057 97.6315 43.3333 97.5039 43.4062C97.431 43.4609 97.3398 43.4883 97.2305 43.4883C97.1029 43.4883 96.9479 43.4336 96.7656 43.3242C95.9818 42.7409 94.4323 41.7109 92.1172 40.2344C89.8021 38.7396 88.2526 37.7734 87.4688 37.3359C87.4323 37.3177 87.3503 37.2812 87.2227 37.2266C87.1133 37.1536 87.0404 37.0807 87.0039 37.0078Z" fill="#333333"/>
</svg>
