<svg width="150" height="60" viewBox="0 0 150 60" fill="none" xmlns="http://www.w3.org/2000/svg">
<path d="M68.0273 26.5352C67.7539 26.5352 67.5534 26.3893 67.4258 26.0977L67.1797 25.5508C66.4688 25.7331 65.8945 25.8698 65.457 25.9609L63.6797 26.3984C63.3151 26.4896 63.0872 26.5352 62.9961 26.5352C62.8867 26.5352 62.7956 26.5169 62.7227 26.4805C62.668 26.4258 62.6224 26.3802 62.5859 26.3438C62.5495 26.2891 62.5221 26.2435 62.5039 26.207C62.3581 25.9518 62.2943 25.7786 62.3125 25.6875L62.5039 25.3867C62.9779 24.7305 63.4154 23.7917 63.8164 22.5703L63.2695 22.6523L62.5586 22.7344C62.5039 22.7526 62.3854 22.7891 62.2031 22.8438C62.0391 22.8802 61.9115 22.8711 61.8203 22.8164C61.6198 22.6888 61.3555 22.4609 61.0273 22.1328C60.9544 22.0599 60.918 22.0052 60.918 21.9688C60.918 21.8594 61.1185 21.8047 61.5195 21.8047H62.4492C63.069 21.7682 63.6341 21.7227 64.1445 21.668C64.2539 21.3945 64.3724 21.0482 64.5 20.6289C64.6276 20.2096 64.7188 19.8724 64.7734 19.6172C64.7734 19.5625 64.7734 19.4531 64.7734 19.2891C64.7917 19.125 64.8281 19.0247 64.8828 18.9883H64.9102C64.9831 18.9883 65.0833 19.0247 65.2109 19.0977C65.3385 19.1706 65.457 19.2617 65.5664 19.3711C65.9128 19.7174 66.013 19.9909 65.8672 20.1914C65.7943 20.2096 65.6393 20.5104 65.4023 21.0938C65.3841 21.1302 65.3203 21.2943 65.2109 21.5859C65.3568 21.5677 65.8854 21.5039 66.7969 21.3945C67.2161 21.3581 67.5352 21.3125 67.7539 21.2578C68.0638 21.1667 68.3099 21.1211 68.4922 21.1211C68.638 21.1211 68.7565 21.1758 68.8477 21.2852C68.9388 21.3763 69.0026 21.4401 69.0391 21.4766C69.0938 21.5312 69.1576 21.6406 69.2305 21.8047C69.3034 21.9323 69.3307 22.0234 69.3125 22.0781C69.2396 22.1875 69.112 22.2422 68.9297 22.2422C68.3281 22.2057 67.6081 22.224 66.7695 22.2969C66.4049 22.3333 66.1315 22.3698 65.9492 22.4062L64.8828 22.5156L64.6367 23.2539L64.3359 23.9102C64.2448 24.1289 64.1445 24.3477 64.0352 24.5664C63.9258 24.7852 63.8438 24.9674 63.7891 25.1133C63.7708 25.1497 63.7617 25.2044 63.7617 25.2773C63.7617 25.3685 63.8164 25.4141 63.9258 25.4141C64.0716 25.4141 64.5729 25.332 65.4297 25.168L66.4414 25.0039L66.9062 24.8945C66.7422 24.4388 66.6146 24.1471 66.5234 24.0195C66.4323 23.8919 66.3776 23.8099 66.3594 23.7734L66.5234 23.6094C67.2344 24.0651 67.8086 24.5299 68.2461 25.0039C68.3737 25.168 68.4557 25.3229 68.4922 25.4688C68.5469 25.6146 68.5651 25.7786 68.5469 25.9609C68.5104 26.125 68.4466 26.2526 68.3555 26.3438C68.319 26.4349 68.2096 26.4987 68.0273 26.5352ZM62.2852 31.7852C62.0846 31.7852 61.8385 31.6302 61.5469 31.3203C61.3281 31.1016 61.2188 30.9375 61.2188 30.8281C61.2188 30.7734 61.2552 30.7461 61.3281 30.7461C61.401 30.7279 61.4922 30.7188 61.6016 30.7188L62.2031 30.6914C62.5495 30.6914 62.7773 30.6823 62.8867 30.6641C63.2331 30.6641 63.5247 30.6549 63.7617 30.6367C65.3294 30.4909 66.3867 30.3724 66.9336 30.2812C67.207 30.2448 67.4531 30.2083 67.6719 30.1719C67.8906 30.1172 68.0638 30.0898 68.1914 30.0898C68.4466 30.0898 68.7018 30.2174 68.957 30.4727C69.1576 30.6732 69.2578 30.8372 69.2578 30.9648C69.2578 31.0742 69.194 31.1471 69.0664 31.1836C68.9753 31.2018 68.4375 31.2383 67.4531 31.293C66.9062 31.3112 66.2318 31.3568 65.4297 31.4297C64.6276 31.5026 63.9258 31.5755 63.3242 31.6484C63.2148 31.6667 63.0599 31.694 62.8594 31.7305C62.6589 31.7669 62.4674 31.7852 62.2852 31.7852ZM66.3594 37.8828C66.1771 38.1198 65.9857 38.2383 65.7852 38.2383C65.7305 38.2383 65.7031 38.1927 65.7031 38.1016C65.7031 37.974 65.7396 37.8281 65.8125 37.6641C65.8125 37.6641 65.9948 37.2995 66.3594 36.5703C66.3776 36.4974 66.4049 36.4245 66.4414 36.3516C66.4779 36.2786 66.5052 36.2148 66.5234 36.1602V36.1328C66.5234 36.0964 66.4961 36.0599 66.4414 36.0234C66.3867 35.987 66.3229 35.9779 66.25 35.9961C65.9583 36.0143 65.5208 36.0599 64.9375 36.1328C64.3724 36.2057 63.9531 36.2786 63.6797 36.3516C63.5703 36.388 63.4336 36.4336 63.2695 36.4883C63.1237 36.543 63.0052 36.5703 62.9141 36.5703C62.5859 36.5703 62.3125 36.4701 62.0938 36.2695C61.9115 36.1419 61.7747 36.0143 61.6836 35.8867L61.6289 35.75C61.6289 35.6589 61.7839 35.6315 62.0938 35.668C62.513 35.7044 63.3789 35.6497 64.6914 35.5039L65.2383 35.4219C65.3841 35.4036 65.612 35.3763 65.9219 35.3398C66.25 35.2852 66.5052 35.2305 66.6875 35.1758C66.7422 35.1576 66.7969 35.1393 66.8516 35.1211C66.9245 35.0846 66.9883 35.0664 67.043 35.0664C67.1341 35.0664 67.2435 35.112 67.3711 35.2031C67.5169 35.2943 67.6354 35.3763 67.7266 35.4492C67.8542 35.5404 67.9362 35.6224 67.9727 35.6953C68.0273 35.75 68.0456 35.8229 68.0273 35.9141C68.0273 36.0052 67.9818 36.0872 67.8906 36.1602C67.7995 36.2331 67.7357 36.2878 67.6992 36.3242C67.6628 36.3789 67.5352 36.5156 67.3164 36.7344C67.2253 36.8802 67.0612 37.0807 66.8242 37.3359C66.6055 37.5911 66.4505 37.7734 66.3594 37.8828ZM64.9922 43.2695C64.9922 43.2148 65.0833 43.069 65.2656 42.832C65.4661 42.6133 65.6211 42.4401 65.7305 42.3125C66.0039 41.9479 66.332 41.4193 66.7148 40.7266C67.1159 40.0339 67.3438 39.5781 67.3984 39.3594C67.4349 39.25 67.3802 39.1953 67.2344 39.1953C66.9427 39.1953 66.1406 39.2773 64.8281 39.4414C63.9714 39.5508 63.3333 39.6602 62.9141 39.7695C62.8229 39.8242 62.7318 39.8516 62.6406 39.8516C62.4948 39.8516 62.3398 39.7513 62.1758 39.5508C62.1029 39.4232 62.0664 39.3047 62.0664 39.1953C62.0664 39.1224 62.112 39.0495 62.2031 38.9766L62.2852 38.8672C62.3398 38.7578 62.4036 38.612 62.4766 38.4297C62.5495 38.2474 62.6133 38.0742 62.668 37.9102C62.7591 37.6185 62.8229 37.2995 62.8594 36.9531C62.8776 36.7526 62.987 36.6979 63.1875 36.7891C63.4427 36.9167 63.6341 37.0443 63.7617 37.1719C63.9076 37.2812 63.9531 37.3633 63.8984 37.418C63.7161 37.6367 63.5703 37.8828 63.4609 38.1562C63.3698 38.4479 63.3151 38.6393 63.2969 38.7305C63.2969 38.8034 63.3424 38.8398 63.4336 38.8398C63.707 38.8398 64.1172 38.7943 64.6641 38.7031C64.974 38.6667 65.3568 38.6211 65.8125 38.5664C66.2682 38.5117 66.6328 38.457 66.9062 38.4023L67.5898 38.2656C67.6445 38.2474 67.7174 38.2383 67.8086 38.2383C67.8997 38.2383 67.9909 38.2747 68.082 38.3477C68.1732 38.4023 68.2734 38.4753 68.3828 38.5664C68.5651 38.7305 68.6836 38.8672 68.7383 38.9766C68.793 39.0677 68.8203 39.1771 68.8203 39.3047C68.8203 39.3776 68.7656 39.4688 68.6562 39.5781C68.5651 39.6875 68.4557 39.8607 68.3281 40.0977C67.7995 41.1732 67.1159 42.0755 66.2773 42.8047C66.0404 42.987 65.776 43.1419 65.4844 43.2695C65.3568 43.306 65.2383 43.3242 65.1289 43.3242C65.0378 43.3424 64.9922 43.3242 64.9922 43.2695ZM73.7422 30.6367C73.9609 30.6367 74.0703 30.737 74.0703 30.9375C74.0703 31.0469 73.9701 31.2018 73.7695 31.4023C73.2227 32.0768 72.138 33.362 70.5156 35.2578C70.388 35.4219 70.2695 35.5039 70.1602 35.5039C70.069 35.5039 69.8685 35.3672 69.5586 35.0938C69.3034 34.875 69.1758 34.6927 69.1758 34.5469C69.1758 34.3828 69.3125 34.2279 69.5859 34.082C70.0052 33.8451 70.6341 33.3711 71.4727 32.6602C72.3112 31.9128 72.931 31.3203 73.332 30.8828C73.4961 30.7188 73.6328 30.6367 73.7422 30.6367ZM49.2969 42.6133C49.2969 43.0508 49.1693 43.2695 48.9141 43.2695C48.6042 43.2695 48.276 43.1328 47.9297 42.8594C47.5833 42.6042 47.4102 42.3307 47.4102 42.0391V41.957C47.5013 41.4831 47.5469 40.8451 47.5469 40.043L47.4375 27.4922L47.0547 27.5195C46.6172 27.556 46.2891 27.5742 46.0703 27.5742C45.3411 27.5742 44.8307 27.0911 44.5391 26.125C44.5208 26.0885 44.5117 26.0339 44.5117 25.9609C44.5117 25.8698 44.5573 25.8242 44.6484 25.8242C44.7214 25.8242 44.776 25.8333 44.8125 25.8516C45.3229 25.9609 45.7604 26.0156 46.125 26.0156H46.2891L47.4102 25.9336L47.3828 22.0781C47.3828 21.7135 47.3372 21.4128 47.2461 21.1758C47.1732 20.9388 47.0547 20.7109 46.8906 20.4922C46.8724 20.4557 46.8451 20.4193 46.8086 20.3828C46.7904 20.3281 46.7812 20.2826 46.7812 20.2461C46.7812 20.1367 46.8997 20.082 47.1367 20.082C47.3737 20.082 47.6927 20.1367 48.0938 20.2461C48.4948 20.3555 48.7591 20.474 48.8867 20.6016C49.0143 20.7292 49.0781 20.9115 49.0781 21.1484L49.1328 25.8516L54.5195 25.5234L54.5742 21.4766V21.2031C54.5742 20.8932 54.556 20.6471 54.5195 20.4648C54.4831 20.2643 54.3919 20.082 54.2461 19.918C54.1367 19.7721 54.082 19.6719 54.082 19.6172C54.082 19.526 54.1823 19.4805 54.3828 19.4805C54.6016 19.4805 54.957 19.5534 55.4492 19.6992C55.8503 19.8086 56.1055 19.9362 56.2148 20.082C56.3424 20.2279 56.4062 20.4102 56.4062 20.6289L56.2695 25.4141L56.8711 25.3867C57.2539 25.3685 57.6914 25.2773 58.1836 25.1133C58.3294 25.0768 58.4206 25.0586 58.457 25.0586C58.7122 25.0586 59.0312 25.2135 59.4141 25.5234C59.7969 25.8333 59.9883 26.0977 59.9883 26.3164C59.9883 26.4622 59.9154 26.5716 59.7695 26.6445C59.6419 26.7174 59.487 26.763 59.3047 26.7812L56.2422 26.9727L55.9141 39.6328C56.5339 40.3255 56.8438 40.8177 56.8438 41.1094C56.8438 41.237 56.7799 41.319 56.6523 41.3555C56.543 41.4102 56.3698 41.4466 56.1328 41.4648L49.2969 41.7109V42.6133ZM34.2031 28.4766C34.2031 28.3854 34.2578 28.3398 34.3672 28.3398C34.4401 28.3398 34.5039 28.349 34.5586 28.3672C35.069 28.4401 35.4792 28.4766 35.7891 28.4766H36.0625L39.8086 28.2305L39.8359 24.0469L37.6758 24.1836C37.4935 24.2018 37.2656 24.2109 36.9922 24.2109C36.5547 24.2109 36.2266 24.0651 36.0078 23.7734C35.7891 23.4635 35.6432 23.1536 35.5703 22.8438V22.7344C35.5703 22.625 35.5977 22.5703 35.6523 22.5703L35.7617 22.5977C36.1263 22.6888 36.5729 22.7344 37.1016 22.7344H37.5117L42.1602 22.4062C42.8164 22.3698 43.3177 22.2969 43.6641 22.1875C43.8099 22.151 43.9102 22.1328 43.9648 22.1328C44.2201 22.1328 44.4935 22.2969 44.7852 22.625C45.0951 22.9349 45.25 23.181 45.25 23.3633C45.25 23.6003 45.0586 23.737 44.6758 23.7734L41.5039 23.9648L41.4492 28.1211L43.418 28.0117C43.7826 27.9935 44.1562 27.9206 44.5391 27.793C44.6849 27.7565 44.7852 27.7383 44.8398 27.7383C45.0586 27.7383 45.3594 27.8932 45.7422 28.2031C46.125 28.513 46.3164 28.7682 46.3164 28.9688C46.3164 29.1693 46.0977 29.2878 45.6602 29.3242L41.4492 29.5977L41.3945 33.2891L43.4727 33.1797H43.7734C44.1745 33.1797 44.4935 33.2799 44.7305 33.4805C44.9674 33.681 45.0859 33.8997 45.0859 34.1367C45.0859 34.2279 45.0404 34.3464 44.9492 34.4922C44.8763 34.638 44.8398 34.7565 44.8398 34.8477L44.2656 39.6328C44.6849 40.2161 44.8945 40.6263 44.8945 40.8633C44.8945 40.9909 44.8398 41.0729 44.7305 41.1094C44.6393 41.1458 44.4844 41.1641 44.2656 41.1641L38.5781 41.3281L38.6328 42.0391V42.1484C38.6328 42.4401 38.5143 42.5859 38.2773 42.5859C37.8763 42.5495 37.5391 42.4401 37.2656 42.2578C36.9922 42.0755 36.8555 41.8112 36.8555 41.4648C36.8555 41.3372 36.8646 41.2461 36.8828 41.1914C36.9193 41.0456 36.9375 40.8633 36.9375 40.6445C36.9375 40.3711 36.9284 40.1432 36.9102 39.9609L36.6094 34.957C36.5729 34.319 36.4727 33.8633 36.3086 33.5898C36.1992 33.3711 36.1445 33.2344 36.1445 33.1797C36.1445 33.0703 36.2357 33.0156 36.418 33.0156C36.7826 33.0156 37.3932 33.1615 38.25 33.4531L39.7539 33.3711L39.7812 29.707L36.7461 29.8984C36.582 29.9167 36.3997 29.9349 36.1992 29.9531C36.0169 29.9714 35.8346 29.9805 35.6523 29.9805C35.3607 29.9805 35.1055 29.8802 34.8867 29.6797C34.668 29.4792 34.4948 29.2513 34.3672 28.9961C34.2578 28.7409 34.2031 28.5677 34.2031 28.4766ZM38.4961 39.8516L42.6797 39.7422L43.0898 34.7109L38.1953 34.9297L38.4961 39.8516ZM49.1875 32.7148L54.3828 32.4414L54.4922 27.0547L49.1328 27.3828L49.1875 32.7148ZM49.2695 40.0703L54.2734 39.8789L54.3555 34.0273L49.2148 34.2461L49.2695 40.0703Z" fill="#333333"/>
<path d="M107.676 27.4648C107.384 27.4648 107.211 27.319 107.156 27.0273C107.047 26.7174 106.755 26.3346 106.281 25.8789L106.363 25.7695C106.436 25.806 106.646 25.8971 106.992 26.043C107.339 26.1706 107.576 26.2344 107.703 26.2344C107.812 26.2344 107.895 26.2344 107.949 26.2344C108.004 26.2161 108.068 26.1706 108.141 26.0977C108.359 25.9336 108.633 25.5599 108.961 24.9766C109.198 24.5026 109.408 23.9466 109.59 23.3086C109.79 22.6706 109.891 22.1875 109.891 21.8594C109.891 21.7682 109.818 21.7227 109.672 21.7227L108.633 21.7773L107.922 21.832L107.457 21.8594L107.266 21.8867C107.393 21.9779 107.475 22.0599 107.512 22.1328C107.566 22.1875 107.594 22.2604 107.594 22.3516C107.594 22.4427 107.484 22.6979 107.266 23.1172C107.083 23.5182 106.792 23.974 106.391 24.4844C106.062 24.9219 105.616 25.3958 105.051 25.9062C104.504 26.3984 104.094 26.6536 103.82 26.6719C103.766 26.6719 103.711 26.6628 103.656 26.6445C103.62 26.6081 103.602 26.5625 103.602 26.5078C103.602 26.4896 103.747 26.3164 104.039 25.9883L104.805 25.0859C105.352 24.3568 105.908 23.4271 106.473 22.2969C106.527 22.151 106.5 22.069 106.391 22.0508C106.281 22.069 106.053 22.0964 105.707 22.1328C105.361 22.151 105.051 22.2057 104.777 22.2969C104.759 22.2969 104.695 22.3242 104.586 22.3789C104.477 22.4154 104.385 22.4336 104.312 22.4336C104.203 22.4336 104.112 22.3971 104.039 22.3242L103.82 22.1328C103.656 22.0052 103.574 21.8867 103.574 21.7773C103.574 21.7409 103.592 21.6862 103.629 21.6133L103.766 21.3945C103.839 21.3034 103.957 21.1576 104.121 20.957C104.285 20.7565 104.467 20.4831 104.668 20.1367C104.704 20.0638 104.777 19.8997 104.887 19.6445C105.014 19.3893 105.078 19.2344 105.078 19.1797V19.0703C105.078 18.9609 105.096 18.888 105.133 18.8516C105.169 18.8151 105.251 18.8151 105.379 18.8516C105.507 18.888 105.661 18.9883 105.844 19.1523L106.145 19.4531C106.199 19.5078 106.227 19.5716 106.227 19.6445C106.227 19.8268 105.971 20.1549 105.461 20.6289C105.37 20.7201 105.26 20.8568 105.133 21.0391C105.005 21.2214 104.941 21.3398 104.941 21.3945C104.941 21.5039 105.023 21.5404 105.188 21.5039L105.816 21.4219C107.257 21.2031 108.341 21.0755 109.07 21.0391L109.809 20.9297L110.055 20.875L110.191 20.8477C110.337 20.8477 110.438 20.8659 110.492 20.9023C110.547 20.9388 110.602 21.0026 110.656 21.0938C110.711 21.1667 110.766 21.2305 110.82 21.2852C110.948 21.431 111.039 21.5586 111.094 21.668L111.148 21.9141L111.094 22.0234L111.039 22.1875C111.003 22.2786 110.975 22.3698 110.957 22.4609C110.939 22.5339 110.911 22.6159 110.875 22.707C110.492 24.1836 110.046 25.332 109.535 26.1523C109.371 26.444 109.089 26.7357 108.688 27.0273C108.305 27.319 107.967 27.4648 107.676 27.4648ZM104.285 31.7852C104.085 31.7852 103.839 31.6302 103.547 31.3203C103.328 31.1016 103.219 30.9375 103.219 30.8281C103.219 30.7734 103.255 30.7461 103.328 30.7461C103.401 30.7279 103.492 30.7188 103.602 30.7188L104.203 30.6914C104.549 30.6914 104.777 30.6823 104.887 30.6641C105.233 30.6641 105.525 30.6549 105.762 30.6367C107.329 30.4909 108.387 30.3724 108.934 30.2812C109.207 30.2448 109.453 30.2083 109.672 30.1719C109.891 30.1172 110.064 30.0898 110.191 30.0898C110.447 30.0898 110.702 30.2174 110.957 30.4727C111.158 30.6732 111.258 30.8372 111.258 30.9648C111.258 31.0742 111.194 31.1471 111.066 31.1836C110.975 31.2018 110.438 31.2383 109.453 31.293C108.906 31.3112 108.232 31.3568 107.43 31.4297C106.628 31.5026 105.926 31.5755 105.324 31.6484C105.215 31.6667 105.06 31.694 104.859 31.7305C104.659 31.7669 104.467 31.7852 104.285 31.7852ZM108.359 37.8828C108.177 38.1198 107.986 38.2383 107.785 38.2383C107.73 38.2383 107.703 38.1927 107.703 38.1016C107.703 37.974 107.74 37.8281 107.812 37.6641C107.812 37.6641 107.995 37.2995 108.359 36.5703C108.378 36.4974 108.405 36.4245 108.441 36.3516C108.478 36.2786 108.505 36.2148 108.523 36.1602V36.1328C108.523 36.0964 108.496 36.0599 108.441 36.0234C108.387 35.987 108.323 35.9779 108.25 35.9961C107.958 36.0143 107.521 36.0599 106.938 36.1328C106.372 36.2057 105.953 36.2786 105.68 36.3516C105.57 36.388 105.434 36.4336 105.27 36.4883C105.124 36.543 105.005 36.5703 104.914 36.5703C104.586 36.5703 104.312 36.4701 104.094 36.2695C103.911 36.1419 103.775 36.0143 103.684 35.8867L103.629 35.75C103.629 35.6589 103.784 35.6315 104.094 35.668C104.513 35.7044 105.379 35.6497 106.691 35.5039L107.238 35.4219C107.384 35.4036 107.612 35.3763 107.922 35.3398C108.25 35.2852 108.505 35.2305 108.688 35.1758C108.742 35.1576 108.797 35.1393 108.852 35.1211C108.924 35.0846 108.988 35.0664 109.043 35.0664C109.134 35.0664 109.243 35.112 109.371 35.2031C109.517 35.2943 109.635 35.3763 109.727 35.4492C109.854 35.5404 109.936 35.6224 109.973 35.6953C110.027 35.75 110.046 35.8229 110.027 35.9141C110.027 36.0052 109.982 36.0872 109.891 36.1602C109.799 36.2331 109.736 36.2878 109.699 36.3242C109.663 36.3789 109.535 36.5156 109.316 36.7344C109.225 36.8802 109.061 37.0807 108.824 37.3359C108.605 37.5911 108.451 37.7734 108.359 37.8828ZM106.992 43.2695C106.992 43.2148 107.083 43.069 107.266 42.832C107.466 42.6133 107.621 42.4401 107.73 42.3125C108.004 41.9479 108.332 41.4193 108.715 40.7266C109.116 40.0339 109.344 39.5781 109.398 39.3594C109.435 39.25 109.38 39.1953 109.234 39.1953C108.943 39.1953 108.141 39.2773 106.828 39.4414C105.971 39.5508 105.333 39.6602 104.914 39.7695C104.823 39.8242 104.732 39.8516 104.641 39.8516C104.495 39.8516 104.34 39.7513 104.176 39.5508C104.103 39.4232 104.066 39.3047 104.066 39.1953C104.066 39.1224 104.112 39.0495 104.203 38.9766L104.285 38.8672C104.34 38.7578 104.404 38.612 104.477 38.4297C104.549 38.2474 104.613 38.0742 104.668 37.9102C104.759 37.6185 104.823 37.2995 104.859 36.9531C104.878 36.7526 104.987 36.6979 105.188 36.7891C105.443 36.9167 105.634 37.0443 105.762 37.1719C105.908 37.2812 105.953 37.3633 105.898 37.418C105.716 37.6367 105.57 37.8828 105.461 38.1562C105.37 38.4479 105.315 38.6393 105.297 38.7305C105.297 38.8034 105.342 38.8398 105.434 38.8398C105.707 38.8398 106.117 38.7943 106.664 38.7031C106.974 38.6667 107.357 38.6211 107.812 38.5664C108.268 38.5117 108.633 38.457 108.906 38.4023L109.59 38.2656C109.645 38.2474 109.717 38.2383 109.809 38.2383C109.9 38.2383 109.991 38.2747 110.082 38.3477C110.173 38.4023 110.273 38.4753 110.383 38.5664C110.565 38.7305 110.684 38.8672 110.738 38.9766C110.793 39.0677 110.82 39.1771 110.82 39.3047C110.82 39.3776 110.766 39.4688 110.656 39.5781C110.565 39.6875 110.456 39.8607 110.328 40.0977C109.799 41.1732 109.116 42.0755 108.277 42.8047C108.04 42.987 107.776 43.1419 107.484 43.2695C107.357 43.306 107.238 43.3242 107.129 43.3242C107.038 43.3424 106.992 43.3242 106.992 43.2695ZM115.852 32.4414C115.906 32.4414 115.961 32.4688 116.016 32.5234C116.07 32.5599 116.107 32.6146 116.125 32.6875V32.7422C116.125 32.8698 116.025 33.1159 115.824 33.4805L113.855 36.8984C113.71 37.2083 113.518 37.3633 113.281 37.3633C113.044 37.3633 112.844 37.2174 112.68 36.9258C112.516 36.6888 112.315 36.3333 112.078 35.8594C111.969 35.6953 111.878 35.5312 111.805 35.3672C111.732 35.2031 111.677 35.0846 111.641 35.0117C111.44 34.6654 111.34 34.4193 111.34 34.2734C111.34 34.2005 111.367 34.1458 111.422 34.1094C111.477 34.0547 111.531 34.0273 111.586 34.0273C111.786 34.0273 111.969 34.1367 112.133 34.3555C112.26 34.4831 112.361 34.6198 112.434 34.7656L112.734 35.1758L113.281 35.8047L113.527 35.4219C113.783 34.9844 114.384 34.1185 115.332 32.8242C115.533 32.569 115.706 32.4414 115.852 32.4414ZM92.4453 42.4492V42.5312C92.4453 42.6953 92.3997 42.832 92.3086 42.9414C92.2174 43.0508 92.0898 43.1055 91.9258 43.1055C91.543 43.0326 91.2148 42.9049 90.9414 42.7227C90.6862 42.5586 90.5586 42.349 90.5586 42.0938L90.5859 41.8477C90.6224 41.3372 90.6406 40.9453 90.6406 40.6719V40.2617L90.1758 34.0547C90.1393 33.4167 90.0573 32.9518 89.9297 32.6602C89.8385 32.4414 89.793 32.2956 89.793 32.2227C89.793 32.0951 89.8841 32.0312 90.0664 32.0312C90.3581 32.0312 90.9596 32.1862 91.8711 32.4961L93.7031 32.4141L93.6484 20.9844C93.6484 20.5651 93.5391 20.1914 93.3203 19.8633C93.2292 19.681 93.1836 19.5625 93.1836 19.5078C93.1836 19.3984 93.2747 19.3438 93.457 19.3438C93.7669 19.3438 94.168 19.4258 94.6602 19.5898C95.1523 19.7357 95.3984 19.9909 95.3984 20.3555L95.3438 26.0703L98.3516 25.8789C98.6979 25.8607 99.0169 25.7878 99.3086 25.6602C99.4544 25.6055 99.5729 25.5781 99.6641 25.5781C99.9193 25.5781 100.202 25.7331 100.512 26.043C100.84 26.3529 101.004 26.6172 101.004 26.8359C101.004 27.0729 100.767 27.2096 100.293 27.2461L95.3438 27.5469L95.2891 32.332L98.4336 32.168L98.7344 32.1406C98.9531 32.1406 99.2083 32.2591 99.5 32.4961C99.7917 32.7148 99.9375 32.9336 99.9375 33.1523C99.9375 33.2435 99.901 33.3529 99.8281 33.4805C99.7552 33.6081 99.7188 33.7083 99.7188 33.7812L98.9805 39.7969C99.4362 40.362 99.6641 40.7448 99.6641 40.9453C99.6641 41.0729 99.6003 41.1549 99.4727 41.1914C99.3633 41.2279 99.1901 41.2461 98.9531 41.2461L92.3633 41.4648L92.4453 42.4492ZM76.2031 35.0938C76.1849 35.0208 76.2214 34.9661 76.3125 34.9297C76.3854 34.9297 76.4492 34.9388 76.5039 34.957C76.7227 35.0117 77.0417 35.0391 77.4609 35.0391H77.6797L82.6289 34.4375V32.2773L79.7578 32.4414L79.2656 32.4688C78.8828 32.4688 78.582 32.3776 78.3633 32.1953C78.1445 32.013 77.9896 31.8125 77.8984 31.5938C77.8073 31.375 77.7617 31.2292 77.7617 31.1562C77.7617 31.0651 77.8255 31.0195 77.9531 31.0195C78.0443 31.0195 78.1172 31.0286 78.1719 31.0469C78.4453 31.1016 78.7461 31.1289 79.0742 31.1289H79.4297L82.6016 30.9648V28.9414L79.6758 29.1055V29.4062C79.6758 29.7344 79.5573 29.8984 79.3203 29.8984C79.0651 29.8984 78.8008 29.8073 78.5273 29.625C78.2539 29.4427 78.1172 29.2057 78.1172 28.9141V28.7227L78.1445 28.0664C78.1445 27.7747 78.1354 27.556 78.1172 27.4102L77.7617 22.8164C77.707 22.2148 77.6068 21.7865 77.4609 21.5312C77.3333 21.3125 77.2695 21.1484 77.2695 21.0391C77.2695 20.9479 77.3424 20.9023 77.4883 20.9023C77.7253 20.9023 78.2721 21.0482 79.1289 21.3398L87.9883 20.793L88.3711 20.7656C88.5534 20.7656 88.7721 20.8477 89.0273 21.0117C89.2826 21.1576 89.4102 21.349 89.4102 21.5859C89.4102 21.6589 89.3737 21.7591 89.3008 21.8867C89.2461 22.0143 89.2188 22.1146 89.2188 22.1875L88.5352 27.3828C88.9544 27.8203 89.1641 28.1393 89.1641 28.3398C89.1641 28.4492 89.1003 28.5221 88.9727 28.5586C88.8633 28.5951 88.6719 28.6224 88.3984 28.6406L84.0781 28.8867V30.8828L86.5117 30.7461C86.8945 30.7279 87.2135 30.6732 87.4688 30.582C87.651 30.5456 87.7695 30.5273 87.8242 30.5273C87.9883 30.5273 88.1615 30.6003 88.3438 30.7461C88.5443 30.8919 88.7083 31.0651 88.8359 31.2656C88.9818 31.4479 89.0547 31.5664 89.0547 31.6211C89.0547 31.7305 89 31.8034 88.8906 31.8398C88.7812 31.8763 88.6172 31.9036 88.3984 31.9219L84.1055 32.168V34.2461L86.7031 33.918C87.2135 33.8451 87.5872 33.763 87.8242 33.6719C87.8607 33.6354 87.9245 33.6172 88.0156 33.6172C88.2344 33.6172 88.4896 33.7539 88.7812 34.0273C89.0911 34.3008 89.2461 34.5286 89.2461 34.7109C89.2461 34.8021 89.2096 34.875 89.1367 34.9297C89.0638 34.9661 88.9453 35.0026 88.7812 35.0391L78.2266 36.3516L77.7344 36.3789H77.4883C77.2513 36.3789 77.0781 36.3516 76.9688 36.2969C76.8594 36.224 76.7044 36.069 76.5039 35.832C76.3216 35.5768 76.2214 35.3307 76.2031 35.0938ZM76.8047 42.1758C76.8047 42.0482 76.8594 41.8841 76.9688 41.6836C77.5156 40.5169 77.9349 39.2409 78.2266 37.8555C78.2812 37.6185 78.3359 37.4544 78.3906 37.3633C78.4635 37.2721 78.582 37.2266 78.7461 37.2266C79.3294 37.2266 79.6211 37.4089 79.6211 37.7734C79.6211 38.0286 79.5117 38.6211 79.293 39.5508C79.0742 40.4805 78.7734 41.4557 78.3906 42.4766C78.2448 42.8411 78.0716 43.0234 77.8711 43.0234C77.7253 43.0234 77.5065 42.9323 77.2148 42.75C76.9414 42.5859 76.8047 42.3945 76.8047 42.1758ZM79.5664 27.8477L82.6016 27.6836L82.5742 22.5156L79.2109 22.7344L79.5664 27.8477ZM79.6211 23.9375C79.6211 23.8099 79.7305 23.6823 79.9492 23.5547C80.0586 23.4635 80.1771 23.418 80.3047 23.418C80.4323 23.418 80.6602 23.6276 80.9883 24.0469C81.3164 24.4661 81.6172 24.9219 81.8906 25.4141C82.1823 25.9062 82.3281 26.2344 82.3281 26.3984C82.3281 26.5807 82.2005 26.7357 81.9453 26.8633C81.6901 26.9909 81.5169 27.0547 81.4258 27.0547C81.2617 27.0547 81.1068 26.8906 80.9609 26.5625C80.6328 25.7786 80.25 25.0495 79.8125 24.375C79.6849 24.1562 79.6211 24.0104 79.6211 23.9375ZM80.8516 37.4727C80.8516 37.3633 80.9062 37.2539 81.0156 37.1445C81.125 37.0169 81.3711 36.9531 81.7539 36.9531C81.8815 36.9531 81.9727 36.9987 82.0273 37.0898C82.082 37.1628 82.1549 37.3177 82.2461 37.5547C82.4648 38.2474 82.6654 39.0404 82.8477 39.9336C83.0482 40.8268 83.1484 41.3464 83.1484 41.4922C83.1484 41.6745 83.1029 41.8021 83.0117 41.875C82.9206 41.9661 82.7565 42.0391 82.5195 42.0938C82.4102 42.1302 82.2643 42.1484 82.082 42.1484C81.918 42.1484 81.7995 42.1029 81.7266 42.0117C81.6536 41.9206 81.6081 41.7656 81.5898 41.5469C81.444 40.1432 81.2253 38.931 80.9336 37.9102C80.8789 37.7461 80.8516 37.6003 80.8516 37.4727ZM83.6133 36.8164C83.6133 36.6523 83.7044 36.5339 83.8867 36.4609C84.069 36.3698 84.2604 36.3242 84.4609 36.3242C84.5885 36.3242 84.7161 36.3971 84.8438 36.543C84.9714 36.6888 85.1536 37.0352 85.3906 37.582C85.6458 38.1107 85.9922 38.931 86.4297 40.043C86.5026 40.2982 86.5391 40.4531 86.5391 40.5078C86.5391 40.7448 86.4023 40.9089 86.1289 41C85.8555 41.0911 85.6367 41.1367 85.4727 41.1367C85.1992 41.1367 85.026 40.9727 84.9531 40.6445C84.6432 39.4414 84.2422 38.3112 83.75 37.2539C83.6589 37.0716 83.6133 36.9258 83.6133 36.8164ZM84.0781 27.6016L87.0859 27.4102L87.6328 22.2148L84.0508 22.4336L84.0781 27.6016ZM84.3242 26.8086C84.3242 26.681 84.4245 26.4622 84.625 26.1523C85.0078 25.6055 85.3542 24.8945 85.6641 24.0195C85.7188 23.8737 85.7461 23.7096 85.7461 23.5273V23.2812C85.7461 23.1354 85.8099 23.0625 85.9375 23.0625C86.138 23.0625 86.3841 23.1719 86.6758 23.3906C86.9857 23.5911 87.1406 23.7734 87.1406 23.9375C87.1406 24.0651 86.9492 24.3841 86.5664 24.8945C86.2018 25.3867 85.8099 25.8516 85.3906 26.2891C84.9714 26.7083 84.6523 26.918 84.4336 26.918C84.3607 26.918 84.3242 26.8815 84.3242 26.8086ZM86.5664 36.1055C86.5664 36.0326 86.6484 35.9232 86.8125 35.7773C86.9948 35.6133 87.1771 35.5312 87.3594 35.5312C87.5417 35.5312 87.806 35.7865 88.1523 36.2969C88.5169 36.7891 88.8542 37.3359 89.1641 37.9375C89.474 38.5391 89.6289 38.9219 89.6289 39.0859C89.6289 39.3047 89.4922 39.4961 89.2188 39.6602C88.9635 39.806 88.763 39.8789 88.6172 39.8789C88.4349 39.8789 88.2891 39.724 88.1797 39.4141C87.7786 38.3568 87.3138 37.418 86.7852 36.5977C86.6393 36.3607 86.5664 36.1966 86.5664 36.1055ZM92.2539 39.9883L97.3672 39.7969L97.9414 33.6719L91.8438 33.9453L92.2539 39.9883Z" fill="#333333"/>
</svg>
