<svg width="150" height="60" viewBox="0 0 150 60" fill="none" xmlns="http://www.w3.org/2000/svg">
<path d="M61.5195 27.3281C61.3919 27.3281 61.3099 27.319 61.2734 27.3008C61.2552 27.2643 61.2826 27.2005 61.3555 27.1094C61.6107 26.8724 61.8112 26.6445 61.957 26.4258C62.1211 26.1888 62.2943 25.8151 62.4766 25.3047C62.7682 24.4661 62.9141 23.819 62.9141 23.3633C62.9141 22.944 62.8867 22.5612 62.832 22.2148V22.1328C62.832 21.9323 62.9596 21.8685 63.2148 21.9414C63.4336 21.9961 63.6797 22.069 63.9531 22.1602C64.0078 22.1419 64.0898 22.1328 64.1992 22.1328C64.3086 22.1146 64.4818 22.0872 64.7188 22.0508C65.3385 21.9596 66.1406 21.8685 67.125 21.7773C67.125 21.7044 67.1979 21.4492 67.3438 21.0117L67.5078 20.4102C67.5807 20.1549 67.5534 20.0273 67.4258 20.0273C67.0612 20.0273 66.2135 20.1185 64.8828 20.3008L63.4336 20.5469C63.306 20.5651 63.1419 20.5104 62.9414 20.3828C62.7591 20.2552 62.6133 20.1094 62.5039 19.9453C62.4128 19.7812 62.431 19.6719 62.5586 19.6172C62.7044 19.526 62.8503 19.4805 62.9961 19.4805C63.1419 19.4805 63.2331 19.4805 63.2695 19.4805H63.625L65.4297 19.4258L67.1797 19.207C67.2708 19.1888 67.3802 19.1615 67.5078 19.125C67.6536 19.0703 67.7904 19.0338 67.918 19.0156C68.1003 18.9792 68.4102 19.1797 68.8477 19.6172C68.9206 19.6901 68.957 19.7721 68.957 19.8633C68.957 19.9727 68.8841 20.082 68.7383 20.1914C68.5378 20.3919 68.4102 20.5651 68.3555 20.7109C68.3372 20.8021 68.3008 20.9388 68.2461 21.1211C68.1914 21.2852 68.1367 21.4948 68.082 21.75C68.1914 21.8776 68.2461 22.0325 68.2461 22.2148C68.2461 22.3607 68.2005 22.47 68.1094 22.543C68.0365 22.5977 67.8815 22.625 67.6445 22.625C66.8242 22.6797 66.1771 22.7344 65.7031 22.7891C65.2292 22.8255 64.6549 22.9167 63.9805 23.0625C63.9076 23.8828 63.7435 24.6393 63.4883 25.332C63.2331 26.0065 62.8776 26.5169 62.4219 26.8633C61.9844 27.1732 61.6836 27.3281 61.5195 27.3281ZM68.1641 34.5195C67.8906 34.5195 67.6263 34.319 67.3711 33.918C67.043 33.4075 66.724 32.9883 66.4141 32.6602L65.7031 31.9219C65.3203 32.3594 64.9831 32.7057 64.6914 32.9609C64.418 33.2161 64.0716 33.4622 63.6523 33.6992C62.8685 34.1549 62.2122 34.3828 61.6836 34.3828C61.556 34.3828 61.4922 34.3372 61.4922 34.2461C61.4922 34.1914 61.6654 34.0729 62.0117 33.8906C62.3581 33.7083 62.6862 33.4896 62.9961 33.2344C63.7799 32.5781 64.4271 31.9036 64.9375 31.2109C64.8281 31.1016 64.2812 30.6276 63.2969 29.7891C63.1693 29.6979 62.9779 29.543 62.7227 29.3242C62.668 29.2878 62.5586 29.2057 62.3945 29.0781C62.2305 28.9505 62.1484 28.8594 62.1484 28.8047C62.1484 28.7135 62.194 28.668 62.2852 28.668C62.5586 28.668 62.9961 28.8594 63.5977 29.2422C64.1992 29.6068 64.8281 30.0443 65.4844 30.5547C65.7396 30.2448 65.9401 29.9531 66.0859 29.6797C66.2318 29.4062 66.3958 29.069 66.5781 28.668C66.6693 28.4674 66.724 28.2943 66.7422 28.1484C66.7604 27.9844 66.7695 27.8841 66.7695 27.8477C66.7695 27.6471 66.8242 27.5469 66.9336 27.5469C67.0612 27.5469 67.2344 27.6471 67.4531 27.8477C67.8359 28.2122 68.0273 28.4583 68.0273 28.5859C68.0273 28.6588 67.9818 28.7409 67.8906 28.832C67.6719 29.0508 67.4714 29.3424 67.2891 29.707C67.1797 29.9258 66.9792 30.2357 66.6875 30.6367C66.5964 30.7461 66.5234 30.8463 66.4688 30.9375C66.4141 31.0286 66.3594 31.1107 66.3047 31.1836C66.724 31.4935 67.3438 32.0221 68.1641 32.7695C68.3646 32.9518 68.4922 33.125 68.5469 33.2891C68.6198 33.4349 68.6562 33.6354 68.6562 33.8906C68.6562 34.0729 68.6107 34.2279 68.5195 34.3555C68.4284 34.4648 68.3099 34.5195 68.1641 34.5195ZM67.5078 42.8047C67.4349 42.8047 67.3529 42.7682 67.2617 42.6953C67.1706 42.6406 67.0521 42.5495 66.9062 42.4219C66.2682 41.9297 65.6484 41.1914 65.0469 40.207C64.4453 39.2227 64.0169 38.1562 63.7617 37.0078C63.7435 36.8984 63.7161 36.7708 63.6797 36.625C63.6432 36.4792 63.6068 36.3698 63.5703 36.2969C63.5703 36.2786 63.543 36.2695 63.4883 36.2695C63.3607 36.2695 63.1146 36.3516 62.75 36.5156C62.6406 36.5703 62.5312 36.6523 62.4219 36.7617C62.3307 36.8529 62.2305 36.8893 62.1211 36.8711C62.0482 36.8711 61.9479 36.8255 61.8203 36.7344C61.6927 36.6432 61.6016 36.5612 61.5469 36.4883C61.3646 36.2331 61.2734 36.0781 61.2734 36.0234C61.2734 35.9141 61.3737 35.8503 61.5742 35.832C61.8477 35.832 62.0208 35.8229 62.0938 35.8047C62.6224 35.7318 63.1237 35.6133 63.5977 35.4492C63.6706 35.431 63.7708 35.3763 63.8984 35.2852C63.9167 35.2852 63.944 35.276 63.9805 35.2578C64.0352 35.2396 64.099 35.2578 64.1719 35.3125C64.4453 35.4948 64.582 35.6315 64.582 35.7227C64.582 36.9987 64.9466 38.1927 65.6758 39.3047C66.4049 40.4167 67.4714 41.3555 68.875 42.1211C68.9479 42.1575 69.0391 42.194 69.1484 42.2305C69.2578 42.2669 69.3125 42.3216 69.3125 42.3945C69.3125 42.4857 69.0117 42.5677 68.4102 42.6406L67.7266 42.75L67.5078 42.8047ZM73.8516 32.4414C73.9062 32.4414 73.9609 32.4687 74.0156 32.5234C74.0703 32.5599 74.1068 32.6146 74.125 32.6875V32.7422C74.125 32.8698 74.0247 33.1159 73.8242 33.4805L71.8555 36.8984C71.7096 37.2083 71.5182 37.3633 71.2812 37.3633C71.0443 37.3633 70.8438 37.2174 70.6797 36.9258C70.5156 36.6888 70.3151 36.3333 70.0781 35.8594C69.9688 35.6953 69.8776 35.5312 69.8047 35.3672C69.7318 35.2031 69.6771 35.0846 69.6406 35.0117C69.4401 34.6654 69.3398 34.4193 69.3398 34.2734C69.3398 34.2005 69.3672 34.1458 69.4219 34.1094C69.4766 34.0547 69.5312 34.0273 69.5859 34.0273C69.7865 34.0273 69.9688 34.1367 70.1328 34.3555C70.2604 34.4831 70.3607 34.6198 70.4336 34.7656L70.7344 35.1758L71.2812 35.8047L71.5273 35.4219C71.7826 34.9844 72.3841 34.1185 73.332 32.8242C73.5326 32.569 73.7057 32.4414 73.8516 32.4414ZM46.043 21.0117C46.043 20.5742 45.8789 20.1094 45.5508 19.6172C45.4779 19.526 45.4414 19.4258 45.4414 19.3164C45.4414 19.1888 45.5508 19.125 45.7695 19.125C46.1523 19.125 46.6081 19.2344 47.1367 19.4531C47.6836 19.6719 47.957 19.9271 47.957 20.2187L47.9297 26.125C48.5495 27.0911 49.1602 27.9935 49.7617 28.832C51.0013 27.9206 52.1133 26.9544 53.0977 25.9336C54.082 24.8945 54.6198 24.0833 54.7109 23.5C54.7292 23.2448 54.8294 23.1172 55.0117 23.1172C55.2487 23.1172 55.5495 23.3359 55.9141 23.7734C56.2969 24.1927 56.4883 24.5299 56.4883 24.7852C56.4883 25.0404 55.7865 25.7969 54.3828 27.0547C52.9974 28.3125 51.7578 29.3333 50.6641 30.1172C53.3438 33.7448 56.3333 36.5065 59.6328 38.4023C59.9427 38.5482 60.0977 38.694 60.0977 38.8398C60.0977 39.0039 59.8698 39.2409 59.4141 39.5508C58.9766 39.8607 58.6484 40.0156 58.4297 40.0156C58.3203 40.0156 58.1927 39.97 58.0469 39.8789C54.1094 36.9987 50.737 33.3802 47.9297 29.0234L47.9023 40.6719L47.9297 41.7109C47.9297 41.9661 47.8932 42.1849 47.8203 42.3672C47.7474 42.5677 47.6107 42.75 47.4102 42.9141C47.1549 43.1146 46.8906 43.2148 46.6172 43.2148C46.2161 43.2148 45.5234 42.9505 44.5391 42.4219C43.5729 41.9115 42.6797 41.3464 41.8594 40.7266C41.0391 40.1068 40.6289 39.6784 40.6289 39.4414C40.6289 39.2773 40.7292 39.1953 40.9297 39.1953C41.0938 39.1953 41.2669 39.2409 41.4492 39.332C43.1081 40.0977 44.6393 40.6172 46.043 40.8906V21.0117ZM34.2578 39.9883C34.2578 39.7878 34.3763 39.5781 34.6133 39.3594C36.4544 37.5729 37.9857 35.7318 39.207 33.8359C40.4284 31.9219 41.3398 29.8984 41.9414 27.7656L37.8672 28.0391C37.4297 28.0755 37.1471 28.0937 37.0195 28.0937C36.7643 28.0937 36.5182 28.0117 36.2812 27.8477C36.0443 27.6836 35.7891 27.319 35.5156 26.7539C35.4609 26.6445 35.4336 26.5625 35.4336 26.5078C35.4336 26.4167 35.5065 26.3711 35.6523 26.3711L35.8711 26.3984C36.2539 26.4531 36.6094 26.4805 36.9375 26.4805H37.293L42.625 26.0977H42.9531C43.2812 26.0977 43.582 26.207 43.8555 26.4258C44.1471 26.6263 44.293 26.8542 44.293 27.1094C44.293 27.2917 44.2383 27.4557 44.1289 27.6016C44.0195 27.7292 43.9557 27.8112 43.9375 27.8477C43.099 30.4727 41.9596 32.7878 40.5195 34.793C39.0794 36.7982 37.2839 38.5391 35.1328 40.0156C34.8958 40.1797 34.7044 40.2617 34.5586 40.2617C34.3581 40.2617 34.2578 40.1706 34.2578 39.9883Z" fill="#333333"/>
<path d="M106.199 27.1367C106.035 27.1367 105.908 27.1003 105.816 27.0273C105.816 27.0273 105.771 26.9818 105.68 26.8906C105.607 26.7448 105.388 26.3437 105.023 25.6875C104.677 25.0312 104.422 24.5846 104.258 24.3477C103.911 23.8372 103.738 23.5091 103.738 23.3633C103.738 23.1628 103.857 22.8711 104.094 22.4883C104.458 21.9779 104.704 21.5677 104.832 21.2578C105.069 20.8203 105.242 20.4831 105.352 20.2461C105.461 19.9909 105.507 19.7904 105.488 19.6445C105.47 19.5534 105.461 19.4531 105.461 19.3437C105.461 19.2708 105.479 19.2344 105.516 19.2344C105.552 19.2161 105.625 19.2253 105.734 19.2617C105.917 19.3164 106.126 19.444 106.363 19.6445C106.418 19.6992 106.482 19.7721 106.555 19.8633C106.628 19.9544 106.673 20.0365 106.691 20.1094C106.728 20.1641 106.737 20.2279 106.719 20.3008C106.719 20.3555 106.691 20.4102 106.637 20.4648L106.5 20.5742C106.372 20.7383 106.227 20.9388 106.062 21.1758C105.898 21.4128 105.743 21.6315 105.598 21.832L104.914 22.8164C104.732 23.0716 104.641 23.2539 104.641 23.3633C104.641 23.418 104.723 23.5638 104.887 23.8008L105.461 24.4297C106.008 25.0312 106.263 25.3138 106.227 25.2773C106.573 25.6237 106.746 25.9609 106.746 26.2891C106.746 26.8542 106.564 27.1367 106.199 27.1367ZM109.809 27.0547C109.645 27.0547 109.508 27.0273 109.398 26.9727C109.198 26.7721 109.052 26.5352 108.961 26.2617L108.387 25.25L107.84 24.293C107.493 23.819 107.32 23.5 107.32 23.3359C107.32 23.1172 107.439 22.8346 107.676 22.4883L108.113 21.8594C108.296 21.5495 108.396 21.3672 108.414 21.3125C108.596 20.9479 108.751 20.6289 108.879 20.3555C109.025 20.0638 109.089 19.845 109.07 19.6992C109.052 19.6263 109.043 19.5352 109.043 19.4258C109.043 19.2799 109.125 19.2435 109.289 19.3164C109.526 19.4075 109.781 19.5534 110.055 19.7539C110.182 19.8815 110.264 19.9909 110.301 20.082C110.355 20.1549 110.383 20.2552 110.383 20.3828C110.383 20.4193 110.319 20.4922 110.191 20.6016C110.064 20.6927 109.954 20.793 109.863 20.9023C109.754 21.0117 109.508 21.3581 109.125 21.9414C109.052 22.0508 108.961 22.1784 108.852 22.3242C108.76 22.4518 108.642 22.625 108.496 22.8437C108.314 23.0807 108.223 23.2539 108.223 23.3633C108.223 23.4727 108.332 23.6367 108.551 23.8555C108.624 23.9284 108.697 24.0195 108.77 24.1289C108.861 24.22 108.97 24.3294 109.098 24.457L109.809 25.25C110.155 25.5599 110.328 25.8607 110.328 26.1523C110.328 26.7539 110.155 27.0547 109.809 27.0547ZM110.164 34.5195C109.891 34.5195 109.626 34.319 109.371 33.918C109.043 33.4075 108.724 32.9883 108.414 32.6602L107.703 31.9219C107.32 32.3594 106.983 32.7057 106.691 32.9609C106.418 33.2161 106.072 33.4622 105.652 33.6992C104.868 34.1549 104.212 34.3828 103.684 34.3828C103.556 34.3828 103.492 34.3372 103.492 34.2461C103.492 34.1914 103.665 34.0729 104.012 33.8906C104.358 33.7083 104.686 33.4896 104.996 33.2344C105.78 32.5781 106.427 31.9036 106.938 31.2109C106.828 31.1016 106.281 30.6276 105.297 29.7891C105.169 29.6979 104.978 29.543 104.723 29.3242C104.668 29.2878 104.559 29.2057 104.395 29.0781C104.23 28.9505 104.148 28.8594 104.148 28.8047C104.148 28.7135 104.194 28.668 104.285 28.668C104.559 28.668 104.996 28.8594 105.598 29.2422C106.199 29.6068 106.828 30.0443 107.484 30.5547C107.74 30.2448 107.94 29.9531 108.086 29.6797C108.232 29.4062 108.396 29.069 108.578 28.668C108.669 28.4674 108.724 28.2943 108.742 28.1484C108.76 27.9844 108.77 27.8841 108.77 27.8477C108.77 27.6471 108.824 27.5469 108.934 27.5469C109.061 27.5469 109.234 27.6471 109.453 27.8477C109.836 28.2122 110.027 28.4583 110.027 28.5859C110.027 28.6588 109.982 28.7409 109.891 28.832C109.672 29.0508 109.471 29.3424 109.289 29.707C109.18 29.9258 108.979 30.2357 108.688 30.6367C108.596 30.7461 108.523 30.8463 108.469 30.9375C108.414 31.0286 108.359 31.1107 108.305 31.1836C108.724 31.4935 109.344 32.0221 110.164 32.7695C110.365 32.9518 110.492 33.125 110.547 33.2891C110.62 33.4349 110.656 33.6354 110.656 33.8906C110.656 34.0729 110.611 34.2279 110.52 34.3555C110.428 34.4648 110.31 34.5195 110.164 34.5195ZM107.484 42.9414C106.591 42.9414 105.871 42.7135 105.324 42.2578C104.741 41.7474 104.449 41.1549 104.449 40.4805C104.449 39.8971 104.659 39.4232 105.078 39.0586C105.26 38.8945 105.507 38.7578 105.816 38.6484C106.126 38.5208 106.418 38.457 106.691 38.457C106.874 38.457 106.974 38.4479 106.992 38.4297C107.029 38.3932 107.056 38.3021 107.074 38.1562C107.092 38.0286 107.102 37.7643 107.102 37.3633C107.083 37.2904 107.074 37.1628 107.074 36.9805C105.944 37.0898 105.105 37.1992 104.559 37.3086C104.431 37.3268 104.276 37.2995 104.094 37.2266C103.93 37.1354 103.793 37.026 103.684 36.8984C103.574 36.7708 103.538 36.6797 103.574 36.625C103.647 36.5521 103.72 36.5065 103.793 36.4883C103.866 36.4518 103.984 36.4336 104.148 36.4336C104.714 36.4336 105.124 36.4154 105.379 36.3789L109.207 35.9961C109.262 35.9961 109.389 35.987 109.59 35.9687C109.809 35.9505 110.009 35.9141 110.191 35.8594H110.273C110.346 35.8594 110.41 35.8867 110.465 35.9414C110.538 35.9779 110.583 35.9961 110.602 35.9961C110.875 36.2148 111.012 36.4062 111.012 36.5703C111.012 36.6979 110.902 36.7617 110.684 36.7617L110.355 36.7344C110.264 36.7161 109.809 36.7344 108.988 36.7891L108.168 36.8437C108.186 37.0625 108.186 37.3359 108.168 37.6641C108.15 37.974 108.132 38.2383 108.113 38.457L108.141 38.7578C108.141 38.8672 108.104 38.9674 108.031 39.0586C107.922 39.2409 107.74 39.332 107.484 39.332C107.339 39.332 107.211 39.3229 107.102 39.3047L106.828 39.25C106.536 39.2318 106.227 39.3503 105.898 39.6055C105.625 39.8789 105.488 40.1706 105.488 40.4805C105.488 40.8997 105.661 41.2552 106.008 41.5469C106.208 41.7109 106.418 41.8203 106.637 41.875C106.874 41.9479 107.156 41.9844 107.484 41.9844C107.922 41.9844 108.332 41.9115 108.715 41.7656C109.098 41.6198 109.38 41.401 109.562 41.1094C109.635 40.9818 109.699 40.9089 109.754 40.8906C109.809 40.8542 109.909 40.8359 110.055 40.8359C110.201 40.8359 110.319 40.8815 110.41 40.9727C110.52 41.082 110.574 41.1914 110.574 41.3008C110.574 41.6289 110.273 41.9844 109.672 42.3672C109.07 42.75 108.341 42.9414 107.484 42.9414ZM115.852 32.4414C115.906 32.4414 115.961 32.4687 116.016 32.5234C116.07 32.5599 116.107 32.6146 116.125 32.6875V32.7422C116.125 32.8698 116.025 33.1159 115.824 33.4805L113.855 36.8984C113.71 37.2083 113.518 37.3633 113.281 37.3633C113.044 37.3633 112.844 37.2174 112.68 36.9258C112.516 36.6888 112.315 36.3333 112.078 35.8594C111.969 35.6953 111.878 35.5312 111.805 35.3672C111.732 35.2031 111.677 35.0846 111.641 35.0117C111.44 34.6654 111.34 34.4193 111.34 34.2734C111.34 34.2005 111.367 34.1458 111.422 34.1094C111.477 34.0547 111.531 34.0273 111.586 34.0273C111.786 34.0273 111.969 34.1367 112.133 34.3555C112.26 34.4831 112.361 34.6198 112.434 34.7656L112.734 35.1758L113.281 35.8047L113.527 35.4219C113.783 34.9844 114.384 34.1185 115.332 32.8242C115.533 32.569 115.706 32.4414 115.852 32.4414ZM90.2852 33.7812C91.9805 35.0755 93.6576 36.1784 95.3164 37.0898C96.9753 38.0013 98.862 38.8398 100.977 39.6055C101.25 39.7148 101.387 39.8333 101.387 39.9609C101.387 40.0339 101.332 40.1432 101.223 40.2891C100.931 40.6354 100.703 40.8724 100.539 41C100.375 41.1458 100.229 41.2187 100.102 41.2187C99.9375 41.2187 99.2721 40.9635 98.1055 40.4531C96.957 39.9245 95.5716 39.168 93.9492 38.1836C92.3451 37.181 90.7227 35.987 89.082 34.6016L89.0547 43.1875C89.0547 43.5885 88.9089 43.7891 88.6172 43.7891C88.5078 43.7891 88.3346 43.7344 88.0977 43.625C87.8789 43.5339 87.6784 43.3971 87.4961 43.2148C87.3138 43.0508 87.2227 42.8594 87.2227 42.6406L87.25 42.4219C87.3776 41.6745 87.4414 40.6719 87.4414 39.4141V34.9297C86.0924 36.3333 84.6341 37.5456 83.0664 38.5664C81.5169 39.569 80.1133 40.3346 78.8555 40.8633C77.6159 41.3919 76.8138 41.6562 76.4492 41.6562C76.2122 41.6562 76.0938 41.5924 76.0938 41.4648C76.0938 41.3555 76.1758 41.2279 76.3398 41.082C76.5039 40.9362 76.7409 40.7812 77.0508 40.6172C80.3867 38.8854 83.4401 36.6706 86.2109 33.9727L78.9922 34.3008L78.0352 34.3281C77.7435 34.3281 77.4792 34.2461 77.2422 34.082C77.0234 33.918 76.832 33.5352 76.668 32.9336L76.6406 32.8242C76.6406 32.7148 76.6953 32.6602 76.8047 32.6602L76.9141 32.6875C77.3333 32.7786 77.7161 32.8242 78.0625 32.8242L78.582 32.7969L87.4414 32.3867V30.0898L82.8203 30.3086L82.875 30.8555V30.9102C82.875 31.0378 82.8385 31.1471 82.7656 31.2383C82.6927 31.3294 82.5833 31.375 82.4375 31.375C82.2005 31.375 81.918 31.2656 81.5898 31.0469C81.2617 30.8099 81.0977 30.5638 81.0977 30.3086V30.2266L81.125 29.625C81.125 29.4609 81.1068 29.1419 81.0703 28.668L80.5508 22.707C80.4961 22.0143 80.3503 21.431 80.1133 20.957C80.0221 20.7747 79.9766 20.638 79.9766 20.5469C79.9766 20.4375 80.0586 20.3828 80.2227 20.3828C80.5143 20.3828 81.1159 20.5469 82.0273 20.875L94.9883 20.1641C95.0612 20.1458 95.1615 20.1367 95.2891 20.1367C95.5625 20.1367 95.8542 20.2552 96.1641 20.4922C96.4922 20.7292 96.6562 20.957 96.6562 21.1758C96.6562 21.2669 96.6198 21.3854 96.5469 21.5312C96.474 21.6588 96.4375 21.75 96.4375 21.8047L95.6719 28.2031C96.1823 28.7135 96.4375 29.1055 96.4375 29.3789C96.4375 29.5794 96.2279 29.6979 95.8086 29.7344L89.082 30.0352V32.3047L97.7227 31.9219C98.2331 31.8854 98.6979 31.8125 99.1172 31.7031C99.263 31.6667 99.3542 31.6484 99.3906 31.6484C99.6458 31.6484 99.9375 31.8034 100.266 32.1133C100.594 32.4232 100.758 32.6784 100.758 32.8789C100.758 33.1341 100.557 33.2799 100.156 33.3164L90.2852 33.7812ZM82.3555 24.8398L87.4414 24.5664V21.9687L82.1367 22.2695L82.3555 24.8398ZM82.7109 28.8594L87.4414 28.6406V25.9336L82.4648 26.1797L82.7109 28.8594ZM94.0586 28.3398L94.3047 25.5781L89.1094 25.8516L89.082 28.5586L94.0586 28.3398ZM94.4414 24.1836L94.6875 21.5859L89.1094 21.8867V24.457L94.4414 24.1836Z" fill="#333333"/>
</svg>
