<svg width="150" height="60" viewBox="0 0 150 60" fill="none" xmlns="http://www.w3.org/2000/svg">
<path d="M68.9023 24.2383C69.1393 24.4388 69.2578 24.5846 69.2578 24.6758C69.2578 24.8398 69.0299 24.9128 68.5742 24.8945H68C67.4896 24.8945 66.4049 24.9583 64.7461 25.0859C64.7096 25.3229 64.6641 25.569 64.6094 25.8242C64.5547 26.0612 64.5182 26.2435 64.5 26.3711V26.5898C64.5 26.6081 64.5 26.6263 64.5 26.6445C64.5 26.6628 64.5 26.681 64.5 26.6992C64.5911 26.6992 64.6549 26.6901 64.6914 26.6719C64.7826 26.6536 64.9922 26.6263 65.3203 26.5898C65.6667 26.5352 66.013 26.4805 66.3594 26.4258C66.4688 26.4076 66.5781 26.3802 66.6875 26.3438C66.7969 26.2891 66.888 26.2617 66.9609 26.2617C67.1615 26.2617 67.4076 26.3893 67.6992 26.6445C67.8997 26.8086 68 26.9362 68 27.0273C68 27.2279 67.8815 27.5286 67.6445 27.9297C67.2617 28.6042 66.8516 29.1602 66.4141 29.5977C65.8854 30.1263 65.3385 30.4727 64.7734 30.6367C64.7005 30.6549 64.6185 30.6641 64.5273 30.6641C64.4544 30.6641 64.418 30.6458 64.418 30.6094C64.418 30.5547 64.5456 30.4089 64.8008 30.1719C65.4753 29.5885 66.0404 28.9049 66.4961 28.1211C66.7513 27.6654 66.8789 27.3919 66.8789 27.3008C66.8789 27.2279 66.8333 27.1914 66.7422 27.1914C66.6693 27.1914 66.6237 27.1914 66.6055 27.1914L65.8945 27.2734C65.1836 27.3828 64.737 27.4648 64.5547 27.5195C64.3359 27.6289 64.1628 27.6836 64.0352 27.6836C63.9076 27.6836 63.7435 27.5833 63.543 27.3828C63.5247 27.3646 63.4792 27.3281 63.4062 27.2734C63.3516 27.2188 63.3242 27.1367 63.3242 27.0273C63.3242 26.9727 63.3607 26.8906 63.4336 26.7812C63.5065 26.6354 63.5612 26.4531 63.5977 26.2344C63.6341 26.0156 63.6523 25.8789 63.6523 25.8242L63.7617 25.1953C63.4518 25.2318 62.9596 25.3138 62.2852 25.4414C62.1029 25.4779 61.9753 25.4961 61.9023 25.4961C61.7747 25.4961 61.6289 25.4414 61.4648 25.332C61.1185 25.0951 60.9453 24.9401 60.9453 24.8672C60.9453 24.7396 61.1094 24.6667 61.4375 24.6484L62.3945 24.5664L63.9258 24.4023C64.0169 23.6732 64.0625 23.2266 64.0625 23.0625L64.0898 22.4883C64.1263 22.1784 64.1992 22.0234 64.3086 22.0234C64.3997 22.0234 64.5091 22.0599 64.6367 22.1328C64.8737 22.2604 65.0469 22.3971 65.1562 22.543C65.2839 22.6706 65.3294 22.7799 65.293 22.8711L65.1016 23.4453C65.0469 23.5547 64.974 23.8372 64.8828 24.293L67.2617 24.0742C67.4622 24.056 67.6992 24.0013 67.9727 23.9102L68.1914 23.8828C68.3737 23.8828 68.5286 23.9375 68.6562 24.0469C68.7839 24.138 68.8659 24.2018 68.9023 24.2383ZM65.7852 39.7148C65.7852 39.6966 65.8307 39.6328 65.9219 39.5234C66.0312 39.3958 66.1497 39.2409 66.2773 39.0586C66.4961 38.7487 66.7148 38.293 66.9336 37.6914C67.1523 37.0898 67.2708 36.5339 67.2891 36.0234C67.2891 35.987 67.2708 35.9505 67.2344 35.9141C67.2161 35.8594 67.1706 35.832 67.0977 35.832L66.4688 35.8867L65.5391 35.9688C65.3385 36.625 64.9922 37.3359 64.5 38.1016C64.2812 38.4479 63.9805 38.7578 63.5977 39.0312C63.2331 39.2865 62.8776 39.4688 62.5312 39.5781C62.4219 39.6146 62.2852 39.6328 62.1211 39.6328C61.9935 39.6146 61.9297 39.5781 61.9297 39.5234C61.9297 39.4505 61.9935 39.3867 62.1211 39.332C62.3398 39.1862 62.5859 38.9583 62.8594 38.6484C63.151 38.3385 63.4062 38.0195 63.625 37.6914C63.7526 37.5091 63.8893 37.2721 64.0352 36.9805C64.181 36.6706 64.2995 36.388 64.3906 36.1328C63.8073 36.2057 63.2057 36.3424 62.5859 36.543C62.5495 36.5794 62.4857 36.5977 62.3945 36.5977C62.3398 36.5977 62.2578 36.5612 62.1484 36.4883C62.0026 36.3424 61.9023 36.2331 61.8477 36.1602C61.8112 36.069 61.8294 35.987 61.9023 35.9141L62.0117 35.6953C62.0846 35.5859 62.1576 35.3672 62.2305 35.0391C62.3034 34.7109 62.3398 34.4466 62.3398 34.2461C62.3398 34.1914 62.3307 34.1276 62.3125 34.0547C62.3125 33.9635 62.3216 33.918 62.3398 33.918C62.3763 33.8997 62.4219 33.8997 62.4766 33.918C62.6771 33.9544 62.8594 34.0182 63.0234 34.1094C63.1693 34.2005 63.2695 34.3008 63.3242 34.4102C63.3971 34.5013 63.3971 34.5833 63.3242 34.6562C63.306 34.6745 63.2786 34.7109 63.2422 34.7656C63.2057 34.8021 63.1784 34.8568 63.1602 34.9297C63.1419 34.9479 63.1055 35.1484 63.0508 35.5312C63.0508 35.5495 63.0599 35.5677 63.0781 35.5859C63.1146 35.6042 63.151 35.6042 63.1875 35.5859C63.2422 35.5859 63.3242 35.5768 63.4336 35.5586C63.543 35.5404 63.625 35.5221 63.6797 35.5039C63.8073 35.4857 63.9531 35.4583 64.1172 35.4219C64.2995 35.3854 64.4635 35.3581 64.6094 35.3398C64.6641 35.1393 64.7005 34.9206 64.7188 34.6836C64.7552 34.4284 64.7826 34.2552 64.8008 34.1641L64.8281 33.5898V33.3984C64.2448 33.4167 63.6341 33.4714 62.9961 33.5625L62.5039 33.6445H62.3945C62.3034 33.6445 62.2122 33.6172 62.1211 33.5625C62.0482 33.5078 61.9661 33.444 61.875 33.3711C61.638 33.1523 61.5195 32.9883 61.5195 32.8789C61.5195 32.7695 61.6016 32.7331 61.7656 32.7695C61.9844 32.806 62.2122 32.8242 62.4492 32.8242L63.2422 32.7969L67.043 32.5234C67.1888 32.5052 67.3255 32.487 67.4531 32.4688C67.5807 32.4323 67.7083 32.4049 67.8359 32.3867H67.918C68.1549 32.3867 68.319 32.4323 68.4102 32.5234C68.5195 32.5964 68.5833 32.6419 68.6016 32.6602C68.8932 32.8971 69.0391 33.0794 69.0391 33.207C69.0391 33.3164 68.8841 33.362 68.5742 33.3438L68.0273 33.2891C67.5534 33.2708 66.8424 33.2891 65.8945 33.3438L65.7852 34.4102C65.7669 34.5924 65.7487 34.7383 65.7305 34.8477C65.7122 34.957 65.694 35.0482 65.6758 35.1211L65.6484 35.2031C66.0859 35.1667 66.5964 35.112 67.1797 35.0391C67.2161 35.0208 67.2799 35.0026 67.3711 34.9844C67.4622 34.9479 67.5534 34.9206 67.6445 34.9023H67.6992C67.8086 34.9023 67.918 34.9479 68.0273 35.0391C68.1367 35.1302 68.2005 35.1849 68.2188 35.2031C68.3646 35.3307 68.4648 35.4401 68.5195 35.5312C68.5924 35.6042 68.6016 35.668 68.5469 35.7227C68.5104 35.7956 68.4648 35.8685 68.4102 35.9414C68.3737 35.9961 68.3464 36.0599 68.3281 36.1328C68.237 36.8984 68.0911 37.5182 67.8906 37.9922C67.7266 38.4115 67.5443 38.7305 67.3438 38.9492C67.1615 39.1497 66.9336 39.3411 66.6602 39.5234C66.5508 39.5964 66.3776 39.6602 66.1406 39.7148C65.9036 39.7513 65.7852 39.7513 65.7852 39.7148ZM70.2422 29.8164C70.3333 29.8164 70.4701 29.8802 70.6523 30.0078C70.6341 30.0443 70.6706 30.1172 70.7617 30.2266C70.8529 30.3177 70.9167 30.3815 70.9531 30.418C71.0443 30.5091 71.1354 30.6185 71.2266 30.7461C71.3359 30.8737 71.4544 31.0104 71.582 31.1562C71.9102 31.5026 72.6667 32.4049 73.8516 33.8633C74.0521 34.1549 74.1523 34.3281 74.1523 34.3828C74.1523 34.5651 74.043 34.6562 73.8242 34.6562C73.6966 34.6562 73.5599 34.5651 73.4141 34.3828C73.0677 34.0182 72.4479 33.444 71.5547 32.6602C70.862 32.0221 70.2331 31.5299 69.668 31.1836C69.3945 31.056 69.2578 30.9102 69.2578 30.7461C69.2578 30.6185 69.3945 30.4362 69.668 30.1992C69.9232 29.944 70.1146 29.8164 70.2422 29.8164ZM48.5312 35.2852C51.612 37.6003 55.0755 39.3958 58.9219 40.6719C59.0495 40.7266 59.1497 40.7812 59.2227 40.8359C59.3138 40.8906 59.3594 40.9544 59.3594 41.0273C59.3594 41.1003 59.2773 41.2279 59.1133 41.4102C58.9492 41.6107 58.7578 41.7839 58.5391 41.9297C58.3385 42.0938 58.1562 42.1758 57.9922 42.1758C57.8099 42.1758 57.1263 41.9297 55.9414 41.4375C54.7747 40.9453 53.4167 40.2617 51.8672 39.3867C50.3177 38.4935 48.8229 37.4453 47.3828 36.2422V43.2148C47.3828 43.6341 47.2461 43.8438 46.9727 43.8438C46.8815 43.8438 46.7174 43.7982 46.4805 43.707C46.2617 43.6159 46.0521 43.4883 45.8516 43.3242C45.6693 43.1602 45.5781 42.987 45.5781 42.8047C45.5781 42.6953 45.5872 42.6042 45.6055 42.5312C45.6966 42.0208 45.7422 41.4648 45.7422 40.8633V36.4062C44.1562 37.8099 42.5885 38.9674 41.0391 39.8789C39.5078 40.7721 38.1862 41.4193 37.0742 41.8203C35.9805 42.2396 35.2878 42.4492 34.9961 42.4492C34.7227 42.4492 34.5859 42.3672 34.5859 42.2031C34.5859 42.112 34.6406 42.0117 34.75 41.9023C34.8594 41.793 35.0234 41.6927 35.2422 41.6016C36.8099 40.9271 38.332 40.0885 39.8086 39.0859C41.3034 38.0833 42.862 36.8802 44.4844 35.4766L38.1953 35.7773L37.5391 35.8047C37.2109 35.8047 36.9193 35.7135 36.6641 35.5312C36.4089 35.349 36.1992 35.0026 36.0352 34.4922L36.0078 34.3828C36.0078 34.2917 36.0534 34.2461 36.1445 34.2461L36.2266 34.2734C36.5547 34.3828 36.9102 34.4375 37.293 34.4375H37.5664L45.7422 34.0273V33.2891C45.7422 32.888 45.6419 32.5417 45.4414 32.25C45.3867 32.1589 45.3594 32.0859 45.3594 32.0312C45.3594 31.9401 45.4505 31.8945 45.6328 31.8945C45.9062 31.8945 46.2617 31.9583 46.6992 32.0859C47.1549 32.2135 47.3828 32.4141 47.3828 32.6875V33.9453L54.7383 33.5898C55.1758 33.5534 55.5495 33.4714 55.8594 33.3438C55.9688 33.3073 56.0508 33.2891 56.1055 33.2891C56.3789 33.2891 56.6797 33.4531 57.0078 33.7812C57.3359 34.1094 57.5 34.3555 57.5 34.5195C57.5 34.7201 57.263 34.8385 56.7891 34.875L48.5312 35.2852ZM35.4336 22.4336C35.4336 22.3242 35.5065 22.2695 35.6523 22.2695C35.7253 22.2695 35.7799 22.2786 35.8164 22.2969C36.1263 22.3698 36.4544 22.4062 36.8008 22.4062L37.293 22.3789L42.4883 22.0781L42.2969 20.9844C42.2422 20.6198 42.0326 20.2552 41.668 19.8906C41.5404 19.763 41.4766 19.6536 41.4766 19.5625C41.4766 19.4167 41.6589 19.3438 42.0234 19.3438C42.4792 19.3438 42.8711 19.3984 43.1992 19.5078C43.5273 19.599 43.7188 19.8086 43.7734 20.1367L44.0742 21.9688L44.7305 21.9414C44.8034 21.9232 44.8945 21.9141 45.0039 21.9141C45.1862 21.9141 45.332 21.9688 45.4414 22.0781C45.569 22.1693 45.6328 22.2878 45.6328 22.4336C45.6328 22.6341 45.5508 22.7799 45.3867 22.8711C45.2227 22.944 44.9857 22.9987 44.6758 23.0352C44.4935 23.0716 44.3477 23.0898 44.2383 23.0898L44.5117 24.7852L44.5391 25.0039C44.5391 25.2956 44.3932 25.4414 44.1016 25.4414C43.8646 25.4414 43.582 25.3776 43.2539 25.25C42.9258 25.1042 42.7617 24.8216 42.7617 24.4023C42.7617 24.2201 42.7526 24.056 42.7344 23.9102C42.7161 23.7461 42.707 23.5911 42.707 23.4453V23.3633L37.6758 23.6641C37.5117 23.6823 37.3021 23.6914 37.0469 23.6914C36.7917 23.6914 36.5911 23.6732 36.4453 23.6367C36.3177 23.6003 36.2083 23.5365 36.1172 23.4453C35.6615 23.0443 35.4336 22.707 35.4336 22.4336ZM37.3203 27.9844C37.3203 27.875 37.4023 27.7747 37.5664 27.6836C37.7487 27.5924 37.9948 27.5195 38.3047 27.4648C43.8828 26.681 48.5404 25.8607 52.2773 25.0039C52.4961 24.9492 52.6784 24.8763 52.8242 24.7852C52.9701 24.694 53.1615 24.5482 53.3984 24.3477C53.4896 24.293 53.5716 24.2656 53.6445 24.2656C53.7174 24.2656 53.8724 24.3659 54.1094 24.5664C54.3464 24.7487 54.556 24.9583 54.7383 25.1953C54.9206 25.4323 55.0117 25.651 55.0117 25.8516C55.0117 26.0521 54.8932 26.1797 54.6562 26.2344C51.1745 26.9089 48.1484 27.4193 45.5781 27.7656C43.0078 28.112 40.6107 28.2852 38.3867 28.2852H38.1133C37.8581 28.2852 37.6576 28.2578 37.5117 28.2031C37.3841 28.1484 37.3203 28.0755 37.3203 27.9844ZM39.1797 29.4062C39.1797 29.2422 39.2617 29.0781 39.4258 28.9141C39.6263 28.6589 39.7995 28.5312 39.9453 28.5312C40.1094 28.5312 40.3919 28.6953 40.793 29.0234C41.2122 29.3516 41.9596 29.9987 43.0352 30.9648C43.2721 31.1836 43.3906 31.3932 43.3906 31.5938C43.3906 31.7214 43.2812 31.9128 43.0625 32.168C42.8438 32.4232 42.625 32.5508 42.4062 32.5508C42.224 32.5508 41.9961 32.3867 41.7227 32.0586C41.194 31.4388 40.401 30.6641 39.3438 29.7344C39.2344 29.6432 39.1797 29.5339 39.1797 29.4062ZM44.7852 28.5312C44.7852 28.3307 44.8945 28.1667 45.1133 28.0391C45.332 27.9115 45.487 27.8477 45.5781 27.8477C45.7604 27.8477 46.0521 28.0664 46.4531 28.5039C46.8542 28.9232 47.2188 29.388 47.5469 29.8984C47.8932 30.4089 48.0664 30.7461 48.0664 30.9102C48.0664 30.9648 48.0208 31.0742 47.9297 31.2383C47.8385 31.3841 47.7109 31.5208 47.5469 31.6484C47.3828 31.7578 47.2005 31.8125 47 31.8125C46.7448 31.8125 46.5443 31.6211 46.3984 31.2383C46.1432 30.6003 45.6602 29.8255 44.9492 28.9141C44.8398 28.7682 44.7852 28.6406 44.7852 28.5312ZM46.7812 21.8867C46.763 21.8503 46.7812 21.8138 46.8359 21.7773C46.9089 21.7409 46.9909 21.7227 47.082 21.7227C47.7747 21.7227 48.3945 21.7135 48.9414 21.6953L49.1875 20.1367V19.9453C49.1875 19.6354 49.1146 19.3529 48.9688 19.0977C48.9141 18.9883 48.8867 18.9062 48.8867 18.8516C48.8867 18.7422 48.9505 18.6875 49.0781 18.6875C49.224 18.6875 49.4609 18.7513 49.7891 18.8789C50.1172 19.0065 50.4089 19.1706 50.6641 19.3711C50.9193 19.5716 51.0469 19.7721 51.0469 19.9727C51.0469 20.1003 50.8828 20.638 50.5547 21.5859L54.7383 21.3398C55.2852 21.3216 55.7409 21.2487 56.1055 21.1211C56.2513 21.0664 56.388 21.0391 56.5156 21.0391C56.7526 21.0391 57.026 21.194 57.3359 21.5039C57.6641 21.8138 57.8281 22.0599 57.8281 22.2422C57.8281 22.388 57.6276 22.4792 57.2266 22.5156L50.0078 22.9531C49.6432 23.737 49.3424 24.3294 49.1055 24.7305C48.8867 25.1315 48.6589 25.332 48.4219 25.332C48.2214 25.332 48.1211 25.1862 48.1211 24.8945C48.1211 24.7122 48.1576 24.5117 48.2305 24.293L48.5859 23.0898L48.1484 23.1172C47.8021 23.1172 47.4831 22.9987 47.1914 22.7617C46.8997 22.5065 46.763 22.2148 46.7812 21.8867ZM49.2969 31.7852C49.2969 31.6393 49.4245 31.4479 49.6797 31.2109C50.9557 30.0443 51.8125 29.1237 52.25 28.4492C52.6875 27.7565 52.9336 27.2279 52.9883 26.8633C52.9883 26.7174 53.0612 26.6445 53.207 26.6445C53.4987 26.6445 53.8359 26.7995 54.2188 27.1094C54.6016 27.401 54.793 27.6562 54.793 27.875C54.793 27.9479 54.7747 28.0026 54.7383 28.0391C53.9362 28.987 53.1615 29.7526 52.4141 30.3359C51.6667 30.9193 51.0378 31.3385 50.5273 31.5938C50.0169 31.8307 49.6888 31.9492 49.543 31.9492C49.3789 31.9492 49.2969 31.8945 49.2969 31.7852Z" fill="#333333"/>
<path d="M104.285 27.1367C104.085 27.1367 103.839 26.9818 103.547 26.6719C103.328 26.4531 103.219 26.2891 103.219 26.1797C103.219 26.125 103.255 26.0977 103.328 26.0977C103.401 26.0794 103.492 26.0703 103.602 26.0703L104.203 26.043C104.549 26.043 104.777 26.0339 104.887 26.0156C105.233 26.0156 105.525 26.0065 105.762 25.9883C107.329 25.8424 108.387 25.724 108.934 25.6328C109.207 25.5964 109.453 25.5599 109.672 25.5234C109.891 25.4688 110.064 25.4414 110.191 25.4414C110.447 25.4414 110.702 25.569 110.957 25.8242C111.158 26.0247 111.258 26.1888 111.258 26.3164C111.258 26.4258 111.194 26.4987 111.066 26.5352C110.975 26.5534 110.438 26.5898 109.453 26.6445C108.906 26.6628 108.232 26.7083 107.43 26.7812C106.628 26.8542 105.926 26.9271 105.324 27C105.215 27.0182 105.06 27.0456 104.859 27.082C104.659 27.1185 104.467 27.1367 104.285 27.1367ZM110.164 38.2109C110.201 38.2839 110.264 38.3932 110.355 38.5391C110.447 38.6849 110.492 38.8581 110.492 39.0586C110.492 39.2409 110.419 39.3867 110.273 39.4961C110.128 39.6237 109.964 39.6875 109.781 39.6875C109.617 39.6875 109.48 39.5234 109.371 39.1953C109.316 39.0677 109.271 38.9674 109.234 38.8945C109.216 38.8034 109.198 38.7305 109.18 38.6758C108.943 38.7487 108.633 38.8125 108.25 38.8672C107.867 38.9219 107.594 38.9674 107.43 39.0039C106.555 39.168 105.953 39.2865 105.625 39.3594C105.497 39.3958 105.361 39.4414 105.215 39.4961C105.069 39.5326 104.987 39.5599 104.969 39.5781C104.859 39.6146 104.777 39.6328 104.723 39.6328C104.577 39.6328 104.44 39.569 104.312 39.4414C104.094 39.2773 103.93 39.0586 103.82 38.7852C103.802 38.7669 103.793 38.7396 103.793 38.7031C103.793 38.6667 103.839 38.6211 103.93 38.5664C104.039 38.5117 104.121 38.4753 104.176 38.457C104.413 38.3294 104.832 37.9466 105.434 37.3086L106.172 36.5977L104.559 35.7227C104.376 35.668 104.258 35.6042 104.203 35.5312C104.148 35.4583 104.121 35.349 104.121 35.2031C104.121 35.0938 104.139 35.0208 104.176 34.9844C104.23 34.9297 104.34 34.8477 104.504 34.7383C104.668 34.6289 104.832 34.4831 104.996 34.3008C105.087 34.1914 105.206 34.0729 105.352 33.9453C105.497 33.8177 105.634 33.681 105.762 33.5352C106.309 32.8971 106.655 32.3958 106.801 32.0312C106.892 31.849 106.965 31.7578 107.02 31.7578C107.056 31.7578 107.129 31.7943 107.238 31.8672C107.585 32.1224 107.794 32.3594 107.867 32.5781V32.6602C107.867 32.7513 107.822 32.8242 107.73 32.8789C107.639 32.9336 107.576 32.9792 107.539 33.0156C107.484 33.0521 107.211 33.3164 106.719 33.8086L106.227 34.3008C106.135 34.3919 105.98 34.5469 105.762 34.7656C105.543 34.9661 105.434 35.0846 105.434 35.1211C105.434 35.1758 105.461 35.2214 105.516 35.2578C105.589 35.2943 105.643 35.3307 105.68 35.3672L106.828 35.9141C107.539 35.2031 107.949 34.7839 108.059 34.6562C108.533 34.1094 108.797 33.763 108.852 33.6172C108.87 33.599 108.897 33.5534 108.934 33.4805C108.97 33.4076 109.007 33.3711 109.043 33.3711C109.098 33.3711 109.152 33.3984 109.207 33.4531C109.499 33.7266 109.708 33.9818 109.836 34.2188C109.872 34.2917 109.891 34.3372 109.891 34.3555C109.891 34.3919 109.845 34.4466 109.754 34.5195C109.681 34.5742 109.608 34.6289 109.535 34.6836C108.897 35.2122 108.15 35.9049 107.293 36.7617L105.625 38.3203C105.589 38.3568 105.57 38.3932 105.57 38.4297C105.57 38.4661 105.589 38.4935 105.625 38.5117C105.661 38.5299 105.716 38.5299 105.789 38.5117L108.988 37.9648C108.897 37.6003 108.788 37.2357 108.66 36.8711V36.8164C108.66 36.7617 108.688 36.7344 108.742 36.7344C108.815 36.7344 108.924 36.7891 109.07 36.8984C109.362 37.1536 109.727 37.5911 110.164 38.2109ZM115.742 27.6289C115.961 27.6289 116.07 27.7292 116.07 27.9297C116.07 28.0391 115.97 28.194 115.77 28.3945C115.223 29.069 114.138 30.3542 112.516 32.25C112.388 32.4141 112.27 32.4961 112.16 32.4961C112.069 32.4961 111.868 32.3594 111.559 32.0859C111.303 31.8672 111.176 31.6849 111.176 31.5391C111.176 31.375 111.312 31.2201 111.586 31.0742C112.005 30.8372 112.634 30.3633 113.473 29.6523C114.311 28.9049 114.931 28.3125 115.332 27.875C115.496 27.7109 115.633 27.6289 115.742 27.6289ZM89.5469 33.5625C89.2005 34.0911 88.6354 34.8477 87.8516 35.832C87.0677 36.8164 86.5208 37.3086 86.2109 37.3086C86.1016 37.3086 86.0469 37.2448 86.0469 37.1172C86.0469 36.9349 86.138 36.7161 86.3203 36.4609C87.8698 34.2734 89.2643 31.776 90.5039 28.9688L88.1523 29.2148C87.9883 29.2331 87.7695 29.2422 87.4961 29.2422H87.3594C87.0495 29.2422 86.776 29.0872 86.5391 28.7773C86.3021 28.4492 86.1836 28.1484 86.1836 27.875C86.1836 27.7656 86.2292 27.7109 86.3203 27.7109C86.3932 27.7109 86.4479 27.7201 86.4844 27.7383C86.776 27.8112 87.1133 27.8477 87.4961 27.8477H87.7422L91.0781 27.5469L91.2695 27.082C91.3971 26.7539 91.4609 26.3984 91.4609 26.0156V25.6328C91.4609 25.4323 91.5339 25.332 91.6797 25.332C91.7891 25.332 91.9805 25.3867 92.2539 25.4961C92.5273 25.5872 92.7734 25.724 92.9922 25.9062C93.2109 26.0703 93.3203 26.2617 93.3203 26.4805C93.3203 26.5898 93.293 26.6992 93.2383 26.8086L92.9375 27.4375L98.7617 27C99.1445 26.9818 99.4818 26.9089 99.7734 26.7812C99.8099 26.763 99.8646 26.7539 99.9375 26.7539C100.156 26.7539 100.421 26.8997 100.73 27.1914C101.059 27.4831 101.223 27.7109 101.223 27.875C101.223 28.112 101.04 28.2487 100.676 28.2852L92.1719 28.8594C91.8438 29.625 91.4974 30.2995 91.1328 30.8828L97.0117 30.5273H97.1758C97.5221 30.5273 97.7956 30.6276 97.9961 30.8281C98.1966 31.0104 98.2969 31.2109 98.2969 31.4297C98.2969 31.5208 98.2786 31.6211 98.2422 31.7305C98.224 31.8216 98.2148 31.9219 98.2148 32.0312L98.2969 41.1641C98.2969 41.3281 98.306 41.4831 98.3242 41.6289C98.3424 41.7747 98.3516 41.9023 98.3516 42.0117C98.3516 42.3581 98.2148 42.6589 97.9414 42.9141C97.668 43.1693 97.431 43.2969 97.2305 43.2969C96.9935 43.2969 96.5469 43.0964 95.8906 42.6953C95.2526 42.3125 94.651 41.8932 94.0859 41.4375C93.5208 40.9818 93.2383 40.6719 93.2383 40.5078C93.2383 40.3802 93.3294 40.3164 93.5117 40.3164C93.694 40.3164 93.8763 40.362 94.0586 40.4531C95.0612 40.8906 95.9453 41.1823 96.7109 41.3281L96.6836 37.7461C96.0091 38.0742 95.2253 38.3659 94.332 38.6211C93.457 38.8763 92.8281 39.0039 92.4453 39.0039C91.9896 39.0039 91.6706 38.7578 91.4883 38.2656C91.2331 39.1771 90.8685 40.0156 90.3945 40.7812C89.9206 41.5469 89.4193 42.1484 88.8906 42.5859C88.3802 43.0417 87.9427 43.2878 87.5781 43.3242C87.4505 43.3242 87.3867 43.2604 87.3867 43.1328C87.3867 42.9141 87.4596 42.7135 87.6055 42.5312C88.2799 41.6745 88.8086 40.8542 89.1914 40.0703C89.5924 39.2865 89.8932 38.3659 90.0938 37.3086C90.3125 36.2331 90.4219 34.9297 90.4219 33.3984C90.4219 32.7422 90.4128 32.3138 90.3945 32.1133L89.5469 33.5625ZM75.793 30.8555C75.793 30.6732 75.9023 30.4271 76.1211 30.1172C77.1237 28.6953 78.026 27.2734 78.8281 25.8516C79.6302 24.4297 80.2591 23.1992 80.7148 22.1602C81.1706 21.1029 81.3984 20.401 81.3984 20.0547L81.3711 19.7812V19.6719C81.3711 19.4714 81.444 19.3711 81.5898 19.3711C82.0273 19.4987 82.401 19.681 82.7109 19.918C83.0208 20.1367 83.1758 20.3828 83.1758 20.6562C83.1758 20.7656 83.1484 20.875 83.0938 20.9844L82.6016 21.9961C83.7318 22.6159 84.9622 23.3906 86.293 24.3203C86.5846 24.5391 86.7305 24.7396 86.7305 24.9219C86.7305 25.0859 86.6393 25.3047 86.457 25.5781C86.293 25.8516 86.1107 25.9883 85.9102 25.9883C85.7826 25.9883 85.6094 25.8971 85.3906 25.7148C84.2422 24.6576 83.1393 23.7552 82.082 23.0078C81.5169 24.0651 81.0339 24.9128 80.6328 25.5508C80.7422 25.569 80.888 25.5781 81.0703 25.5781H81.2617L82.793 25.4414C83.0482 25.4232 83.2943 25.3594 83.5312 25.25C83.6042 25.2135 83.668 25.1953 83.7227 25.1953C83.9049 25.1953 84.1237 25.3229 84.3789 25.5781C84.6523 25.8333 84.7891 26.043 84.7891 26.207C84.7891 26.4076 84.5977 26.526 84.2148 26.5625L81.4258 26.8359H81.207C80.7513 26.8359 80.4232 26.6172 80.2227 26.1797C79.9857 26.5443 79.612 27.0729 79.1016 27.7656C79.3021 27.8021 79.7214 27.957 80.3594 28.2305L84.707 27.9023L84.9805 27.875C85.1445 27.875 85.3359 27.9661 85.5547 28.1484C85.7917 28.3307 85.9102 28.5312 85.9102 28.75C85.9102 28.8411 85.8828 28.9414 85.8281 29.0508C85.7734 29.1419 85.737 29.224 85.7188 29.2969L85.1992 33.6719C85.5638 34.1458 85.7461 34.4648 85.7461 34.6289C85.7461 34.7383 85.7005 34.8112 85.6094 34.8477C85.5182 34.8659 85.3451 34.8841 85.0898 34.9023L80.3047 35.1484L80.2773 40.0703C80.8789 39.8333 81.8086 39.3776 83.0664 38.7031L83.8047 38.293C83.6406 38.056 83.4674 37.8464 83.2852 37.6641C83.1029 37.4818 82.9753 37.3451 82.9023 37.2539C82.6471 36.9987 82.5195 36.7982 82.5195 36.6523C82.5195 36.4701 82.6289 36.2969 82.8477 36.1328C83.0664 35.9688 83.2487 35.8867 83.3945 35.8867C83.5586 35.8867 83.75 36.0052 83.9688 36.2422C84.6979 37.0443 85.3906 37.8828 86.0469 38.7578C86.7214 39.6146 87.0586 40.1706 87.0586 40.4258C87.0586 40.6263 86.931 40.8268 86.6758 41.0273C86.4388 41.2461 86.2201 41.3555 86.0195 41.3555C85.819 41.3555 85.6185 41.1641 85.418 40.7812C85.2721 40.5078 84.9714 40.0339 84.5156 39.3594L82.1367 40.8086C81.7174 41.0638 81.3802 41.2734 81.125 41.4375C80.8698 41.6016 80.6693 41.7292 80.5234 41.8203C79.9036 42.2396 79.5026 42.4583 79.3203 42.4766C79.138 42.4948 78.9284 42.3581 78.6914 42.0664C78.4544 41.7747 78.3815 41.5378 78.4727 41.3555C78.5456 41.2279 78.6003 40.8724 78.6367 40.2891C78.6914 39.6875 78.7188 39.2409 78.7188 38.9492L78.8008 29.8711C78.8008 29.2878 78.7461 28.7865 78.6367 28.3672C77.9258 29.224 77.3333 29.8802 76.8594 30.3359C76.3854 30.7734 76.0664 30.9922 75.9023 30.9922C75.8294 30.9922 75.793 30.9466 75.793 30.8555ZM83.7773 33.6992L83.9141 31.9766L80.2773 32.1953L80.25 33.8906L83.7773 33.6992ZM83.9961 30.7461L84.1055 29.2148L80.2773 29.4883V30.9922L83.9961 30.7461ZM87.0586 26.6172C87.0586 26.4349 87.2773 26.2344 87.7148 26.0156C88.4987 25.5964 89.2734 25.1497 90.0391 24.6758C90.8047 24.2018 91.4062 23.7734 91.8438 23.3906C90.8958 22.862 89.7201 22.3151 88.3164 21.75C88.0065 21.6042 87.8516 21.4401 87.8516 21.2578C87.8516 21.112 87.9062 20.9297 88.0156 20.7109C88.1432 20.4922 88.3073 20.3828 88.5078 20.3828C88.7995 20.3828 89.5013 20.638 90.6133 21.1484C91.7253 21.6406 92.5729 22.0417 93.1562 22.3516C94.1406 21.6224 94.8151 21.0117 95.1797 20.5195C95.5625 20.0091 95.7812 19.5534 95.8359 19.1523C95.8724 18.9336 95.9727 18.8242 96.1367 18.8242C96.3737 18.8242 96.6654 19.0156 97.0117 19.3984C97.3581 19.7812 97.5312 20.1276 97.5312 20.4375C97.5312 20.6016 97.4766 20.7292 97.3672 20.8203C96.5651 21.5677 95.6719 22.2969 94.6875 23.0078C96.2734 23.8099 97.3398 24.375 97.8867 24.7031C98.4518 25.0312 98.7344 25.2956 98.7344 25.4961C98.7344 25.6419 98.6523 25.8516 98.4883 26.125C98.3424 26.3984 98.1602 26.5352 97.9414 26.5352C97.832 26.5352 97.6224 26.444 97.3125 26.2617C95.9635 25.3685 94.6146 24.6211 93.2656 24.0195C92.3177 24.6758 91.2057 25.3047 89.9297 25.9062C88.6536 26.4896 87.806 26.7812 87.3867 26.7812C87.168 26.7812 87.0586 26.7266 87.0586 26.6172ZM91.7617 37.3906C92.3451 37.3906 93.1289 37.2995 94.1133 37.1172C94.3685 37.099 95.2253 36.944 96.6836 36.6523V34.9297C96.6107 35.0938 96.5104 35.2396 96.3828 35.3672C96.2734 35.4766 96.1276 35.5312 95.9453 35.5312C95.9089 35.513 95.8177 35.4948 95.6719 35.4766C95.5443 35.4401 95.3802 35.3945 95.1797 35.3398C94.3229 35.0846 93.3385 34.8568 92.2266 34.6562L91.9805 34.6016C91.9258 35.75 91.8346 36.6797 91.707 37.3906H91.7617ZM92.0078 33.4258C92.0625 33.4076 92.1628 33.3984 92.3086 33.3984C92.4544 33.3984 92.5729 33.4076 92.6641 33.4258C93.9401 33.6081 95.0703 33.8177 96.0547 34.0547C96.3646 34.1276 96.5742 34.2826 96.6836 34.5195L96.6562 31.9492L92.0352 32.25C92.0352 32.7604 92.026 33.1523 92.0078 33.4258Z" fill="#333333"/>
</svg>
