<svg width="150" height="60" viewBox="0 0 150 60" fill="none" xmlns="http://www.w3.org/2000/svg">
<path d="M62.2852 27.1367C62.0846 27.1367 61.8385 26.9818 61.5469 26.6719C61.3281 26.4531 61.2188 26.2891 61.2188 26.1797C61.2188 26.125 61.2552 26.0976 61.3281 26.0976C61.401 26.0794 61.4922 26.0703 61.6016 26.0703L62.2031 26.043C62.5495 26.043 62.7773 26.0338 62.8867 26.0156C63.2331 26.0156 63.5247 26.0065 63.7617 25.9883C65.3294 25.8424 66.3867 25.7239 66.9336 25.6328C67.207 25.5963 67.4531 25.5599 67.6719 25.5234C67.8906 25.4687 68.0638 25.4414 68.1914 25.4414C68.4466 25.4414 68.7018 25.569 68.957 25.8242C69.1576 26.0247 69.2578 26.1888 69.2578 26.3164C69.2578 26.4258 69.194 26.4987 69.0664 26.5351C68.9753 26.5534 68.4375 26.5898 67.4531 26.6445C66.9062 26.6628 66.2318 26.7083 65.4297 26.7812C64.6276 26.8542 63.9258 26.9271 63.3242 27C63.2148 27.0182 63.0599 27.0456 62.8594 27.082C62.6589 27.1185 62.4674 27.1367 62.2852 27.1367ZM68.6562 35.1211C68.8568 35.3398 68.957 35.5221 68.957 35.668C68.957 35.7956 68.8841 35.9141 68.7383 36.0234C68.6471 36.0963 68.4193 36.4974 68.0547 37.2266C67.6536 37.8828 67.207 38.457 66.7148 38.9492C66.2409 39.4232 65.7669 39.7695 65.293 39.9883C65.1836 40.0247 65.0924 40.043 65.0195 40.043C64.9466 40.043 64.9102 40.0247 64.9102 39.9883V39.9336C64.9102 39.8242 65.0013 39.6966 65.1836 39.5508C65.5117 39.2956 65.7578 39.0404 65.9219 38.7851C66.1042 38.5117 66.2409 38.3112 66.332 38.1836C66.7148 37.6367 66.9883 37.1901 67.1523 36.8437C67.3346 36.5338 67.4622 36.2148 67.5352 35.8867H67.4258C66.9518 35.8867 66.1862 35.9414 65.1289 36.0508C64.9648 36.069 64.4909 36.1328 63.707 36.2422C63.543 36.2604 63.2878 36.306 62.9414 36.3789L62.6133 36.4609C62.5404 36.4974 62.4674 36.5156 62.3945 36.5156C62.3034 36.5156 62.2122 36.4974 62.1211 36.4609C62.0299 36.4062 61.9388 36.3424 61.8477 36.2695C61.6289 36.0872 61.5195 35.9323 61.5195 35.8047C61.5378 35.7682 61.556 35.7135 61.5742 35.6406C61.6107 35.5677 61.6289 35.5039 61.6289 35.4492L61.7656 34.5469C61.7839 34.4557 61.8021 34.3555 61.8203 34.2461C61.8385 34.1367 61.8477 34.0273 61.8477 33.918C61.8477 33.5716 61.8385 33.2982 61.8203 33.0976C61.8203 32.8789 61.793 32.651 61.7383 32.4141V32.332C61.7383 32.2044 61.793 32.1406 61.9023 32.1406C62.0117 32.1406 62.2031 32.2226 62.4766 32.3867C62.8411 32.6419 63.0234 32.8424 63.0234 32.9883C63.0234 33.043 63.0143 33.0885 62.9961 33.125C62.9779 33.1614 62.9596 33.1979 62.9414 33.2344C62.8867 33.5625 62.8594 33.7448 62.8594 33.7812L62.7227 35.2305C62.7227 35.2669 62.7409 35.3125 62.7773 35.3672C62.832 35.4036 62.8867 35.4219 62.9414 35.4219C63.3789 35.4219 64.3633 35.3125 65.8945 35.0937C66.4961 35.0391 66.9245 34.9753 67.1797 34.9023C67.3438 34.8841 67.4805 34.8568 67.5898 34.8203C67.7174 34.7656 67.7995 34.7383 67.8359 34.7383C67.9453 34.7018 68.0182 34.6836 68.0547 34.6836C68.2188 34.6836 68.4193 34.8294 68.6562 35.1211ZM73.8516 29.4336C73.9062 29.4336 73.9609 29.4609 74.0156 29.5156C74.0703 29.5521 74.1068 29.6068 74.125 29.6797V29.7344C74.125 29.862 74.0247 30.1081 73.8242 30.4726L71.8555 33.8906C71.7096 34.2005 71.5182 34.3555 71.2812 34.3555C71.0443 34.3555 70.8438 34.2096 70.6797 33.918C70.5156 33.681 70.3151 33.3255 70.0781 32.8516C69.9688 32.6875 69.8776 32.5234 69.8047 32.3594C69.7318 32.1953 69.6771 32.0768 69.6406 32.0039C69.4401 31.6575 69.3398 31.4114 69.3398 31.2656C69.3398 31.1927 69.3672 31.138 69.4219 31.1016C69.4766 31.0469 69.5312 31.0195 69.5859 31.0195C69.7865 31.0195 69.9688 31.1289 70.1328 31.3476C70.2604 31.4753 70.3607 31.612 70.4336 31.7578L70.7344 32.168L71.2812 32.7969L71.5273 32.4141C71.7826 31.9766 72.3841 31.1107 73.332 29.8164C73.5326 29.5612 73.7057 29.4336 73.8516 29.4336ZM50.9375 29.8984C50.9375 29.5521 50.8737 29.2239 50.7461 28.9141C50.7096 28.8047 50.6914 28.7226 50.6914 28.668C50.6914 28.5221 50.8008 28.4492 51.0195 28.4492C51.3294 28.4492 51.7031 28.5404 52.1406 28.7226C52.5781 28.8867 52.7969 29.1237 52.7969 29.4336C52.7969 29.5612 52.7878 29.6614 52.7695 29.7344C52.6966 30.4818 52.569 31.3476 52.3867 32.332C53.207 34.2461 54.237 36.0417 55.4766 37.7187C56.7161 39.3958 58.056 40.8724 59.4961 42.1484C59.7513 42.3672 59.8789 42.5404 59.8789 42.668C59.8789 42.7773 59.7057 42.9414 59.3594 43.1601C59.013 43.3971 58.7487 43.5156 58.5664 43.5156C58.3841 43.5156 57.8737 43.069 57.0352 42.1758C56.1966 41.3008 55.2852 40.1888 54.3008 38.8398C53.3346 37.4726 52.5052 36.069 51.8125 34.6289C51.5026 35.595 51.2383 36.306 51.0195 36.7617C50.3633 38.1289 49.5521 39.3229 48.5859 40.3437C47.6198 41.3646 46.7083 42.1575 45.8516 42.7226C44.9948 43.306 44.457 43.5976 44.2383 43.5976C44.0742 43.5976 43.9922 43.5338 43.9922 43.4062C43.9922 43.2057 44.1471 42.9687 44.457 42.6953C46.8633 40.5989 48.5404 38.4844 49.4883 36.3516C50.4544 34.2005 50.9375 32.1133 50.9375 30.0898V29.8984ZM34.2305 30.8281C34.2305 30.6641 34.3398 30.4362 34.5586 30.1445C35.8346 28.3945 36.9284 26.7357 37.8398 25.168C38.7695 23.582 39.5443 21.9779 40.1641 20.3555C40.2552 20.1185 40.3008 19.7539 40.3008 19.2617C40.3008 19.0612 40.3737 18.9609 40.5195 18.9609C40.6107 18.9609 40.7747 19.0338 41.0117 19.1797C41.2669 19.3073 41.4948 19.4713 41.6953 19.6719C41.8958 19.8724 41.9961 20.0729 41.9961 20.2734C41.9961 20.3463 41.9779 20.4375 41.9414 20.5469L41.5039 21.5039C43.4362 22.7435 44.694 23.6003 45.2773 24.0742C45.8607 24.5299 46.1523 24.8489 46.1523 25.0312C46.1523 25.1771 46.0612 25.4049 45.8789 25.7148C45.7148 26.0065 45.5234 26.1523 45.3047 26.1523C45.1589 26.1523 44.9857 26.0521 44.7852 25.8516C43.7279 24.8489 42.4427 23.7825 40.9297 22.6523C40.401 23.6914 39.8359 24.6575 39.2344 25.5508C39.362 25.569 39.5625 25.5781 39.8359 25.5781L41.9414 25.4414C42.2513 25.4049 42.4974 25.3503 42.6797 25.2773C42.7161 25.2591 42.7799 25.25 42.8711 25.25C43.0716 25.25 43.2995 25.3776 43.5547 25.6328C43.8281 25.8698 43.9648 26.0703 43.9648 26.2344C43.9648 26.4349 43.7552 26.5534 43.3359 26.5898L40 26.8633H39.8086C39.5352 26.8633 39.3255 26.8086 39.1797 26.6992C39.0339 26.5898 38.9062 26.4258 38.7969 26.207C38.5417 26.5898 38.1589 27.1003 37.6484 27.7383C38.0312 27.8476 38.4505 28.0026 38.9062 28.2031L43.9375 27.875H44.1562C44.3385 27.875 44.5482 27.9661 44.7852 28.1484C45.0221 28.3307 45.1406 28.5221 45.1406 28.7226C45.1406 28.8138 45.1042 28.9232 45.0312 29.0508C44.9583 29.1784 44.9219 29.2604 44.9219 29.2969L44.4023 33.6992C44.7669 34.1732 44.9492 34.4922 44.9492 34.6562C44.9492 34.7656 44.9036 34.8385 44.8125 34.875C44.7214 34.8932 44.5482 34.9114 44.293 34.9297L38.8789 35.1758L38.8516 40.0703C40.1641 39.5417 41.5039 38.9128 42.8711 38.1836C42.707 37.9466 42.5339 37.737 42.3516 37.5547C42.1693 37.3724 42.0417 37.2357 41.9688 37.1445C41.7135 36.8893 41.5859 36.6888 41.5859 36.543C41.5859 36.3607 41.6953 36.1875 41.9141 36.0234C42.1328 35.8594 42.3151 35.7773 42.4609 35.7773C42.625 35.7773 42.8164 35.8958 43.0352 36.1328C43.7643 36.9349 44.457 37.7734 45.1133 38.6484C45.7878 39.5052 46.125 40.0612 46.125 40.3164C46.125 40.5169 45.9974 40.7266 45.7422 40.9453C45.5052 41.1458 45.2865 41.2461 45.0859 41.2461C44.8854 41.2461 44.6849 41.0547 44.4844 40.6719C44.3385 40.3984 44.0378 39.9245 43.582 39.25L40.7383 40.918C40.1003 41.2643 39.5625 41.5833 39.125 41.875C38.5052 42.276 38.0951 42.4857 37.8945 42.5039C37.7122 42.5039 37.5026 42.3581 37.2656 42.0664C37.0286 41.7747 36.9648 41.5378 37.0742 41.3555C37.1471 41.2279 37.2018 40.8724 37.2383 40.2891C37.2747 39.6875 37.293 39.2409 37.293 38.9492L37.3477 29.8711C37.3477 29.2513 37.293 28.7318 37.1836 28.3125C36.5273 29.0963 35.8164 29.862 35.0508 30.6094C34.7773 30.8828 34.5586 31.0195 34.3945 31.0195C34.2852 31.0195 34.2305 30.9557 34.2305 30.8281ZM42.9805 33.6992L43.0898 32.0312L38.8242 32.25V33.8906L42.9805 33.6992ZM43.1719 30.7734L43.2812 29.1875L38.8242 29.4609V30.9922L43.1719 30.7734ZM46.043 31.457C46.043 31.2747 46.1159 31.0469 46.2617 30.7734C46.9909 29.3151 47.6289 27.8203 48.1758 26.2891C48.7409 24.7396 49.1784 23.3906 49.4883 22.2422C49.8164 21.0937 49.9805 20.4193 49.9805 20.2187C49.9805 20.0364 49.9531 19.8542 49.8984 19.6719C49.8802 19.6354 49.8711 19.5807 49.8711 19.5078C49.8711 19.3255 49.9805 19.2344 50.1992 19.2344C50.3086 19.2344 50.5 19.2799 50.7734 19.3711C51.0469 19.4622 51.293 19.5898 51.5117 19.7539C51.7487 19.8997 51.8672 20.082 51.8672 20.3008C51.8672 20.6289 51.6576 21.3763 51.2383 22.543C50.819 23.6914 50.4909 24.5482 50.2539 25.1133L56.8164 24.6211L57.2266 24.5937C57.5 24.5937 57.7643 24.7031 58.0195 24.9219C58.293 25.1224 58.4297 25.3411 58.4297 25.5781C58.4297 25.7057 58.375 25.8424 58.2656 25.9883C58.1745 26.1159 58.1107 26.207 58.0742 26.2617C57.5273 27.3008 56.9167 28.3125 56.2422 29.2969C55.5859 30.263 55.1211 30.7461 54.8477 30.7461C54.7201 30.7461 54.6562 30.6549 54.6562 30.4726C54.6562 30.2904 54.7201 30.0716 54.8477 29.8164C55.3945 28.6862 55.8411 27.5013 56.1875 26.2617L49.5977 26.6992C48.9414 28.1029 48.2669 29.2878 47.5742 30.2539C46.8997 31.22 46.444 31.7031 46.207 31.7031C46.0977 31.7031 46.043 31.6211 46.043 31.457Z" fill="#333333"/>
<path d="M107.84 27.2187C107.548 27.2187 107.366 27.1367 107.293 26.9726C107.202 26.7539 107.111 26.5716 107.02 26.4258C106.928 26.2617 106.764 26.0703 106.527 25.8516L106.582 25.7422C107.238 25.9792 107.667 26.0976 107.867 26.0976C108.013 26.0976 108.122 26.0703 108.195 26.0156C108.268 25.9609 108.387 25.8333 108.551 25.6328C108.788 25.3776 109.007 24.9857 109.207 24.457C109.48 23.6732 109.654 22.862 109.727 22.0234V21.9414C109.727 21.832 109.708 21.7591 109.672 21.7226C109.435 21.7226 108.806 21.7773 107.785 21.8867C107.22 23.2904 106.564 24.4479 105.816 25.3594C105.087 26.2526 104.422 26.6992 103.82 26.6992C103.674 26.6992 103.602 26.6445 103.602 26.5351C103.602 26.4987 103.784 26.2891 104.148 25.9062C104.513 25.5234 104.914 25.0221 105.352 24.4023C105.807 23.7643 106.236 22.9805 106.637 22.0508C106.546 22.0508 106.281 22.069 105.844 22.1055C105.406 22.1419 105.033 22.2057 104.723 22.2969C104.577 22.4062 104.422 22.4245 104.258 22.3516C104.258 22.3516 104.24 22.3424 104.203 22.3242C104.167 22.306 104.13 22.2786 104.094 22.2422C103.966 22.1693 103.857 22.0781 103.766 21.9687C103.693 21.8411 103.656 21.7226 103.656 21.6133C103.656 21.5586 103.702 21.4857 103.793 21.3945L104.121 20.957C104.23 20.8112 104.331 20.6016 104.422 20.3281C104.513 20.0364 104.559 19.7904 104.559 19.5898C104.559 19.4622 104.549 19.3802 104.531 19.3437C104.513 19.3073 104.504 19.2617 104.504 19.207C104.504 19.1159 104.549 19.0703 104.641 19.0703C104.75 19.0703 104.905 19.1341 105.105 19.2617C105.16 19.2982 105.26 19.3711 105.406 19.4805C105.57 19.5716 105.661 19.681 105.68 19.8086C105.68 19.9362 105.607 20.1458 105.461 20.4375L105.105 21.0664C105.069 21.1211 105.051 21.1849 105.051 21.2578C105.051 21.3125 105.069 21.3581 105.105 21.3945C105.16 21.4128 105.224 21.4128 105.297 21.3945L106.938 21.1758C107.12 20.7018 107.266 20.2005 107.375 19.6719V19.5078V19.043C107.375 18.8424 107.43 18.7604 107.539 18.7969C107.776 18.8516 107.967 18.9245 108.113 19.0156C108.387 19.1797 108.523 19.3164 108.523 19.4258C108.523 19.5169 108.487 19.6719 108.414 19.8906C108.359 20.0911 108.314 20.2461 108.277 20.3555C108.259 20.4284 108.177 20.6654 108.031 21.0664C108.086 21.0664 108.423 21.0299 109.043 20.957L109.316 20.9023C109.371 20.9023 109.471 20.8841 109.617 20.8476C109.654 20.8294 109.699 20.8203 109.754 20.8203C109.973 20.8203 110.109 20.8294 110.164 20.8476C110.237 20.8659 110.346 20.9206 110.492 21.0117C110.656 21.1211 110.766 21.2305 110.82 21.3398C110.875 21.4492 110.893 21.5768 110.875 21.7226L110.711 22.625L110.52 23.6094C110.52 23.6823 110.456 23.9193 110.328 24.3203C110.201 24.7213 110.055 25.0768 109.891 25.3867C109.581 26.0065 109.216 26.4713 108.797 26.7812C108.432 27.0729 108.113 27.2187 107.84 27.2187ZM104.285 31.7851C104.085 31.7851 103.839 31.6302 103.547 31.3203C103.328 31.1016 103.219 30.9375 103.219 30.8281C103.219 30.7734 103.255 30.7461 103.328 30.7461C103.401 30.7279 103.492 30.7187 103.602 30.7187L104.203 30.6914C104.549 30.6914 104.777 30.6823 104.887 30.6641C105.233 30.6641 105.525 30.6549 105.762 30.6367C107.329 30.4909 108.387 30.3724 108.934 30.2812C109.207 30.2448 109.453 30.2083 109.672 30.1719C109.891 30.1172 110.064 30.0898 110.191 30.0898C110.447 30.0898 110.702 30.2174 110.957 30.4726C111.158 30.6732 111.258 30.8372 111.258 30.9648C111.258 31.0742 111.194 31.1471 111.066 31.1836C110.975 31.2018 110.438 31.2383 109.453 31.293C108.906 31.3112 108.232 31.3568 107.43 31.4297C106.628 31.5026 105.926 31.5755 105.324 31.6484C105.215 31.6667 105.06 31.694 104.859 31.7305C104.659 31.7669 104.467 31.7851 104.285 31.7851ZM110.164 41.2187C110.201 41.2917 110.264 41.401 110.355 41.5469C110.447 41.6927 110.492 41.8659 110.492 42.0664C110.492 42.2487 110.419 42.3945 110.273 42.5039C110.128 42.6315 109.964 42.6953 109.781 42.6953C109.617 42.6953 109.48 42.5312 109.371 42.2031C109.316 42.0755 109.271 41.9661 109.234 41.875C109.216 41.8021 109.198 41.7383 109.18 41.6836C108.943 41.7565 108.633 41.8203 108.25 41.875C107.867 41.9297 107.594 41.9753 107.43 42.0117C106.555 42.1758 105.953 42.2943 105.625 42.3672C105.497 42.4036 105.361 42.4401 105.215 42.4766C105.069 42.5312 104.987 42.5677 104.969 42.5859C104.859 42.6224 104.777 42.6406 104.723 42.6406C104.577 42.6406 104.44 42.5768 104.312 42.4492C104.094 42.2851 103.93 42.0664 103.82 41.793C103.802 41.7747 103.793 41.7474 103.793 41.7109C103.793 41.6745 103.839 41.6289 103.93 41.5742C104.039 41.5195 104.121 41.4831 104.176 41.4648C104.413 41.3372 104.832 40.9544 105.434 40.3164L106.172 39.6055L104.559 38.7305C104.376 38.6758 104.258 38.612 104.203 38.5391C104.148 38.4661 104.121 38.3568 104.121 38.2109C104.121 38.1016 104.139 38.0286 104.176 37.9922C104.23 37.9375 104.34 37.8555 104.504 37.7461C104.668 37.6367 104.832 37.4909 104.996 37.3086C105.087 37.1992 105.206 37.0807 105.352 36.9531C105.497 36.8255 105.634 36.6888 105.762 36.543C106.309 35.9049 106.655 35.4036 106.801 35.0391C106.892 34.8568 106.965 34.7656 107.02 34.7656C107.056 34.7656 107.129 34.8021 107.238 34.875C107.585 35.1302 107.794 35.3672 107.867 35.5859V35.668C107.867 35.7591 107.822 35.832 107.73 35.8867C107.639 35.9414 107.576 35.987 107.539 36.0234C107.484 36.0599 107.211 36.3242 106.719 36.8164L106.227 37.3086C106.135 37.3997 105.98 37.5547 105.762 37.7734C105.543 37.9739 105.434 38.0924 105.434 38.1289C105.434 38.1836 105.461 38.2292 105.516 38.2656C105.589 38.3021 105.643 38.3385 105.68 38.375L106.828 38.9219C107.539 38.2109 107.949 37.7917 108.059 37.6641C108.533 37.1172 108.797 36.7708 108.852 36.625C108.87 36.6068 108.897 36.5612 108.934 36.4883C108.97 36.4154 109.007 36.3789 109.043 36.3789C109.098 36.3789 109.152 36.4062 109.207 36.4609C109.499 36.7344 109.708 36.9896 109.836 37.2266C109.872 37.2995 109.891 37.345 109.891 37.3633C109.891 37.3997 109.845 37.4544 109.754 37.5273C109.681 37.582 109.608 37.6367 109.535 37.6914C108.897 38.22 108.15 38.9128 107.293 39.7695L105.625 41.3281C105.589 41.3646 105.57 41.401 105.57 41.4375C105.57 41.4739 105.589 41.5013 105.625 41.5195C105.661 41.5378 105.716 41.5378 105.789 41.5195L108.988 40.9726C108.897 40.6081 108.788 40.2435 108.66 39.8789V39.8242C108.66 39.7695 108.688 39.7422 108.742 39.7422C108.815 39.7422 108.924 39.7969 109.07 39.9062C109.362 40.1614 109.727 40.5989 110.164 41.2187ZM112.242 32.8242C112.333 32.8242 112.47 32.888 112.652 33.0156C112.634 33.0521 112.671 33.125 112.762 33.2344C112.853 33.3255 112.917 33.3893 112.953 33.4258C113.044 33.5169 113.135 33.6263 113.227 33.7539C113.336 33.8815 113.454 34.0182 113.582 34.1641C113.91 34.5104 114.667 35.4128 115.852 36.8711C116.052 37.1628 116.152 37.3359 116.152 37.3906C116.152 37.5729 116.043 37.6641 115.824 37.6641C115.697 37.6641 115.56 37.5729 115.414 37.3906C115.068 37.026 114.448 36.4518 113.555 35.668C112.862 35.0299 112.233 34.5378 111.668 34.1914C111.395 34.0638 111.258 33.918 111.258 33.7539C111.258 33.6263 111.395 33.444 111.668 33.207C111.923 32.9518 112.115 32.8242 112.242 32.8242ZM81.4805 38.1562C81.4805 36.0417 81.4896 34.5469 81.5078 33.6719V29.9258L78.4453 30.0898C78.263 30.1081 78.0352 30.1172 77.7617 30.1172C77.3789 30.1172 77.069 30.0169 76.832 29.8164C76.5951 29.5976 76.4128 29.3698 76.2852 29.1328C76.1758 28.8958 76.1211 28.75 76.1211 28.6953C76.1211 28.5859 76.1849 28.5312 76.3125 28.5312C76.4036 28.5312 76.4766 28.5404 76.5312 28.5586C76.9323 28.6497 77.3151 28.6953 77.6797 28.6953H77.8984L81.5898 28.4766L81.6445 21.0664C81.6445 20.6654 81.5352 20.2917 81.3164 19.9453C81.2617 19.8359 81.2344 19.7539 81.2344 19.6992C81.2344 19.5351 81.3529 19.4531 81.5898 19.4531C81.7357 19.4531 82 19.5169 82.3828 19.6445C82.7292 19.7539 82.9479 19.8633 83.0391 19.9726C83.1302 20.082 83.1758 20.2279 83.1758 20.4101L83.1211 28.3672L84.9805 28.2578C85.4544 28.2213 85.8646 28.1484 86.2109 28.0391C86.2656 28.0208 86.3477 28.0117 86.457 28.0117C86.7305 28.0117 87.0495 28.1667 87.4141 28.4766C87.7969 28.7864 87.9883 29.0417 87.9883 29.2422C87.9883 29.3516 87.9336 29.4336 87.8242 29.4883C87.7148 29.5247 87.5508 29.5521 87.332 29.5703L83.1211 29.8164L83.0938 31.8398C83.2943 31.6758 83.4583 31.5937 83.5859 31.5937C83.7318 31.5937 83.8867 31.6758 84.0508 31.8398C84.3242 32.0768 84.8984 32.6693 85.7734 33.6172C86.6667 34.5651 87.1133 35.1484 87.1133 35.3672C87.1133 35.5312 86.9766 35.7409 86.7031 35.9961C86.4479 36.2331 86.2383 36.3516 86.0742 36.3516C85.9284 36.3516 85.7552 36.2239 85.5547 35.9687C84.3698 34.4193 83.5495 33.3984 83.0938 32.9062L83.0391 43.0508C83.0391 43.47 82.8841 43.6797 82.5742 43.6797C82.3555 43.6797 82.082 43.5976 81.7539 43.4336C81.444 43.2695 81.2891 42.987 81.2891 42.5859C81.2891 42.4583 81.2982 42.3581 81.3164 42.2851C81.4258 41.7383 81.4805 41.2005 81.4805 40.6719V38.1562ZM76.6133 39.4687C76.6133 39.2682 76.6862 39.0221 76.832 38.7305C77.3789 37.6367 77.8984 36.4245 78.3906 35.0937C78.8828 33.763 79.1289 32.7786 79.1289 32.1406C79.1289 31.9401 79.1198 31.7943 79.1016 31.7031C79.0833 31.6484 79.0742 31.5846 79.0742 31.5117C79.0742 31.3112 79.1745 31.2109 79.375 31.2109C79.6484 31.2109 79.9583 31.3203 80.3047 31.5391C80.6693 31.7396 80.8516 31.9857 80.8516 32.2773C80.8516 32.5325 80.5781 33.2982 80.0312 34.5742C79.4844 35.8503 78.8919 37.026 78.2539 38.1016C77.6341 39.1588 77.1693 39.6875 76.8594 39.6875C76.8047 39.6875 76.75 39.6693 76.6953 39.6328C76.6406 39.5781 76.6133 39.5234 76.6133 39.4687ZM77.4883 23.2266C77.4883 23.0989 77.5977 22.9713 77.8164 22.8437C78.0534 22.6979 78.263 22.625 78.4453 22.625C78.5365 22.625 78.6185 22.6523 78.6914 22.707C78.7643 22.7617 78.8464 22.8529 78.9375 22.9805C79.4115 23.6549 79.8672 24.4023 80.3047 25.2226C80.7422 26.0247 80.9609 26.5625 80.9609 26.8359C80.9609 27.0364 80.8151 27.2005 80.5234 27.3281C80.2318 27.4557 79.9857 27.5195 79.7852 27.5195C79.5846 27.5195 79.4297 27.3646 79.3203 27.0547C78.8281 25.7969 78.2812 24.6758 77.6797 23.6914C77.5521 23.4726 77.4883 23.3177 77.4883 23.2266ZM83.7773 27.4648C83.7773 27.3372 83.832 27.1641 83.9414 26.9453C84.3242 26.2161 84.6615 25.4414 84.9531 24.6211C85.263 23.7825 85.418 23.1354 85.418 22.6797C85.418 22.5521 85.4089 22.4518 85.3906 22.3789V22.2422C85.3906 22.0234 85.5 21.9141 85.7188 21.9141C85.974 21.9141 86.3203 22.0508 86.7578 22.3242C87.1953 22.5976 87.4141 22.8346 87.4141 23.0351C87.4141 23.2721 87.1589 23.7734 86.6484 24.5391C86.1562 25.2864 85.6185 25.9974 85.0352 26.6719C84.4701 27.3281 84.0964 27.6562 83.9141 27.6562C83.8229 27.6562 83.7773 27.5924 83.7773 27.4648ZM87.2773 34.6289C87.2773 34.5195 87.3685 34.4648 87.5508 34.4648H87.6875C87.7604 34.4831 87.8789 34.4922 88.043 34.4922C88.3711 34.4922 88.7448 34.4466 89.1641 34.3555L96.0273 33.043L96.0547 20.4375C96.0547 20.0364 95.9453 19.6628 95.7266 19.3164C95.6719 19.2253 95.6445 19.1523 95.6445 19.0976C95.6445 18.9518 95.763 18.8789 96 18.8789C96.2188 18.8789 96.5104 18.9427 96.875 19.0703C97.2214 19.1979 97.4401 19.3164 97.5312 19.4258C97.6406 19.5351 97.6953 19.6901 97.6953 19.8906L97.668 32.7148L99.3633 32.3867C99.8008 32.2956 100.138 32.168 100.375 32.0039C100.484 31.931 100.603 31.8945 100.73 31.8945C101.004 31.8945 101.332 32.0312 101.715 32.3047C102.116 32.5599 102.316 32.7969 102.316 33.0156C102.316 33.1068 102.253 33.1979 102.125 33.2891C102.016 33.362 101.879 33.4167 101.715 33.4531L97.668 34.2461V43.3242C97.668 43.7253 97.5039 43.9258 97.1758 43.9258C96.9753 43.9258 96.6927 43.8255 96.3281 43.625C95.9818 43.4427 95.8086 43.1966 95.8086 42.8867C95.8086 42.832 95.8268 42.6953 95.8633 42.4766C95.9544 41.9844 96 41.401 96 40.7266L96.0273 34.5742L89.8203 35.8047C89.2005 35.9141 88.8359 35.9687 88.7266 35.9687C88.4714 35.9687 88.2344 35.8776 88.0156 35.6953C87.7969 35.513 87.6146 35.3125 87.4688 35.0937C87.3411 34.8568 87.2773 34.7018 87.2773 34.6289ZM89.1367 27.957C89.1367 27.793 89.237 27.6107 89.4375 27.4101C89.638 27.2096 89.8021 27.1094 89.9297 27.1094C90.1302 27.1094 90.5768 27.3646 91.2695 27.875C91.9622 28.3672 92.6094 28.9049 93.2109 29.4883C93.8125 30.0534 94.1133 30.4271 94.1133 30.6094C94.1133 30.7552 93.9857 30.9648 93.7305 31.2383C93.4935 31.4935 93.2839 31.6211 93.1016 31.6211C92.9193 31.6211 92.7188 31.4935 92.5 31.2383C91.4974 30.1628 90.4766 29.2239 89.4375 28.4219C89.237 28.2578 89.1367 28.1029 89.1367 27.957ZM89.8477 23.0351C89.8477 22.8711 89.9297 22.6888 90.0938 22.4883C90.2578 22.2878 90.4401 22.1875 90.6406 22.1875C90.8411 22.1875 91.2786 22.4518 91.9531 22.9805C92.6276 23.4909 93.2565 24.0469 93.8398 24.6484C94.4414 25.2318 94.7422 25.6237 94.7422 25.8242C94.7422 25.9518 94.6237 26.1614 94.3867 26.4531C94.1497 26.7266 93.931 26.8633 93.7305 26.8633C93.5482 26.8633 93.3477 26.7266 93.1289 26.4531C92.181 25.3594 91.1875 24.375 90.1484 23.5C89.9479 23.3359 89.8477 23.181 89.8477 23.0351Z" fill="#333333"/>
</svg>
