<svg width="150" height="60" viewBox="0 0 150 60" fill="none" xmlns="http://www.w3.org/2000/svg">
<path d="M61.5195 30.6094C61.3919 30.6094 61.3099 30.6003 61.2734 30.582C61.2552 30.5456 61.2826 30.4818 61.3555 30.3906C61.6107 30.1536 61.8112 29.9258 61.957 29.707C62.1211 29.4701 62.2943 29.0964 62.4766 28.5859C62.7682 27.7474 62.9141 27.1003 62.9141 26.6445C62.9141 26.2253 62.8867 25.8424 62.832 25.4961V25.4141C62.832 25.2135 62.9596 25.1497 63.2148 25.2227C63.4336 25.2773 63.6797 25.3503 63.9531 25.4414C64.0078 25.4232 64.0898 25.4141 64.1992 25.4141C64.3086 25.3958 64.4818 25.3685 64.7188 25.332C65.3385 25.2409 66.1406 25.1497 67.125 25.0586C67.125 24.9857 67.1979 24.7305 67.3438 24.293L67.5078 23.6914C67.5807 23.4362 67.5534 23.3086 67.4258 23.3086C67.0612 23.3086 66.2135 23.3997 64.8828 23.582L63.4336 23.8281C63.306 23.8464 63.1419 23.7917 62.9414 23.6641C62.7591 23.5365 62.6133 23.3906 62.5039 23.2266C62.4128 23.0625 62.431 22.9531 62.5586 22.8984C62.7044 22.8073 62.8503 22.7617 62.9961 22.7617C63.1419 22.7617 63.2331 22.7617 63.2695 22.7617H63.625L65.4297 22.707L67.1797 22.4883C67.2708 22.4701 67.3802 22.4427 67.5078 22.4062C67.6536 22.3516 67.7904 22.3151 67.918 22.2969C68.1003 22.2604 68.4102 22.4609 68.8477 22.8984C68.9206 22.9714 68.957 23.0534 68.957 23.1445C68.957 23.2539 68.8841 23.3633 68.7383 23.4727C68.5378 23.6732 68.4102 23.8464 68.3555 23.9922C68.3372 24.0833 68.3008 24.2201 68.2461 24.4023C68.1914 24.5664 68.1367 24.776 68.082 25.0312C68.1914 25.1589 68.2461 25.3138 68.2461 25.4961C68.2461 25.6419 68.2005 25.7513 68.1094 25.8242C68.0365 25.8789 67.8815 25.9062 67.6445 25.9062C66.8242 25.9609 66.1771 26.0156 65.7031 26.0703C65.2292 26.1068 64.6549 26.1979 63.9805 26.3438C63.9076 27.1641 63.7435 27.9206 63.4883 28.6133C63.2331 29.2878 62.8776 29.7982 62.4219 30.1445C61.9844 30.4544 61.6836 30.6094 61.5195 30.6094ZM62.1211 39.6875C61.8477 39.6875 61.638 39.6146 61.4922 39.4688C61.3281 39.3047 61.2461 39.1589 61.2461 39.0312C61.2461 38.9036 61.319 38.7669 61.4648 38.6211C61.4831 38.6029 61.5833 38.457 61.7656 38.1836C62.1667 37.5456 62.6224 36.7344 63.1328 35.75C63.6615 34.7474 63.9896 34.0638 64.1172 33.6992C64.2266 33.3529 64.3268 33.0521 64.418 32.7969C64.5273 32.5417 64.6185 32.4141 64.6914 32.4141C64.819 32.4141 64.9284 32.4596 65.0195 32.5508C65.1107 32.6237 65.2018 32.7331 65.293 32.8789C65.4023 33.0065 65.4844 33.0977 65.5391 33.1523C65.6667 33.2982 65.7305 33.4349 65.7305 33.5625C65.7305 33.6536 65.694 33.7448 65.6211 33.8359C65.5482 33.9271 65.5026 33.9909 65.4844 34.0273L64.2812 36.0508C63.9714 36.6159 63.5612 37.3177 63.0508 38.1562C62.9779 38.2474 62.9414 38.3385 62.9414 38.4297C62.9414 38.5026 63.0234 38.5391 63.1875 38.5391C63.5339 38.5391 64.181 38.5026 65.1289 38.4297C66.0768 38.3385 66.7148 38.2656 67.043 38.2109C67.5169 38.1562 67.8451 38.1016 68.0273 38.0469C68.2279 37.9922 68.5195 38.1289 68.9023 38.457C69.3581 38.8398 69.4583 39.0859 69.2031 39.1953C69.0573 39.2682 68.7747 39.3047 68.3555 39.3047H67.2617C67.0247 39.3047 66.651 39.3229 66.1406 39.3594C65.8307 39.3594 65.4844 39.3685 65.1016 39.3867C64.7188 39.4049 64.3997 39.4232 64.1445 39.4414C63.8529 39.4596 63.2878 39.5143 62.4492 39.6055L62.1211 39.6875ZM37.1562 41.8203C36.901 41.8203 36.6914 41.8294 36.5273 41.8477C36.3633 41.8659 36.2266 41.875 36.1172 41.875C35.7344 41.875 35.4245 41.7474 35.1875 41.4922C34.9505 41.237 34.7773 40.9635 34.668 40.6719C34.5768 40.3802 34.5312 40.1979 34.5312 40.125C34.5312 40.0156 34.5951 39.9609 34.7227 39.9609C34.7956 39.9609 34.8594 39.9701 34.9141 39.9883C35.3698 40.0977 35.8802 40.1523 36.4453 40.1523L45.6875 39.8789V34.2461L41.5859 34.4102L40.9023 34.4375C40.5195 34.4375 40.2826 34.3919 40.1914 34.3008C39.9362 34.1003 39.7266 33.8542 39.5625 33.5625C39.4167 33.2708 39.3438 33.0521 39.3438 32.9062C39.3438 32.7969 39.3984 32.7422 39.5078 32.7422C39.5807 32.7422 39.6445 32.7513 39.6992 32.7695C40.1003 32.8607 40.4648 32.9062 40.793 32.9062H41.0117L45.6875 32.6875L45.7148 28.0391L40.6016 28.3125C40.0182 29.3516 39.444 30.2174 38.8789 30.9102C38.332 31.6029 37.8581 32.1133 37.457 32.4414C37.056 32.7695 36.8099 32.9336 36.7188 32.9336C36.6458 32.9336 36.6094 32.888 36.6094 32.7969C36.6094 32.6328 36.7005 32.4049 36.8828 32.1133C37.5573 31.056 38.168 29.9167 38.7148 28.6953C39.2617 27.4557 39.6901 26.3255 40 25.3047C40.3281 24.2839 40.4922 23.5547 40.4922 23.1172C40.4922 22.9167 40.4831 22.7708 40.4648 22.6797C40.4466 22.625 40.4375 22.5521 40.4375 22.4609C40.4375 22.2604 40.5286 22.1602 40.7109 22.1602C40.8203 22.1784 41.0391 22.2422 41.3672 22.3516C41.6953 22.4427 42.0052 22.5703 42.2969 22.7344C42.5885 22.8984 42.7344 23.0807 42.7344 23.2812C42.7344 23.3724 42.5885 23.8008 42.2969 24.5664C42.0234 25.3138 41.7227 26.0339 41.3945 26.7266L45.7148 26.4805V21.1484C45.7148 20.6198 45.5781 20.1549 45.3047 19.7539C45.2318 19.6263 45.1953 19.526 45.1953 19.4531C45.1953 19.3255 45.2956 19.2617 45.4961 19.2617C45.6055 19.2617 45.8333 19.3073 46.1797 19.3984C46.526 19.4714 46.8451 19.5898 47.1367 19.7539C47.4466 19.918 47.6016 20.1185 47.6016 20.3555L47.5742 26.3711L52.3867 26.0977C52.806 26.0612 53.2161 25.9792 53.6172 25.8516C53.6536 25.8333 53.7174 25.8242 53.8086 25.8242C54.0273 25.8242 54.3372 25.9974 54.7383 26.3438C55.1393 26.6719 55.3398 26.9453 55.3398 27.1641C55.3398 27.3828 55.112 27.5104 54.6562 27.5469L47.5742 27.9297L47.5469 32.6055L51.375 32.4141C51.776 32.3776 52.1406 32.3047 52.4688 32.1953C52.5052 32.1771 52.5599 32.168 52.6328 32.168C52.724 32.168 52.888 32.25 53.125 32.4141C53.3802 32.5599 53.599 32.7331 53.7812 32.9336C53.9818 33.1341 54.082 33.3255 54.082 33.5078C54.082 33.6172 54.0273 33.7083 53.918 33.7812C53.8268 33.8542 53.6992 33.8997 53.5352 33.918H53.4805L47.5469 34.1641L47.5195 39.8242L56.1328 39.5781C56.5156 39.5781 56.9349 39.4961 57.3906 39.332C57.4271 39.3138 57.4909 39.3047 57.582 39.3047C57.7826 39.3047 58.0013 39.4049 58.2383 39.6055C58.4935 39.7878 58.7122 39.9974 58.8945 40.2344C59.0951 40.4714 59.1953 40.6445 59.1953 40.7539C59.1953 40.9909 58.9766 41.1276 58.5391 41.1641L37.1562 41.8203Z" fill="#333333"/>
<path d="M103.273 26.7812C103.255 26.7812 103.191 26.7995 103.082 26.8359C102.991 26.8542 102.945 26.8268 102.945 26.7539C102.945 26.7357 102.982 26.6992 103.055 26.6445C103.128 26.5716 103.191 26.5078 103.246 26.4531C103.301 26.3984 103.383 26.3255 103.492 26.2344C103.602 26.125 103.684 26.0156 103.738 25.9062C104.012 25.4505 104.203 24.9948 104.312 24.5391L104.477 23.582C104.604 22.8711 104.659 22.0417 104.641 21.0938C104.641 20.875 104.613 20.6471 104.559 20.4102C104.54 20.3008 104.449 20.1458 104.285 19.9453V19.918C104.285 19.8815 104.331 19.8633 104.422 19.8633C104.549 19.8633 104.659 19.8724 104.75 19.8906C104.987 19.9453 105.251 19.9727 105.543 19.9727C105.853 19.9544 106.044 19.9453 106.117 19.9453L107.949 19.8086C108.314 19.7721 108.551 19.7539 108.66 19.7539C109.444 19.6445 109.799 19.599 109.727 19.6172C110.146 19.5443 110.401 19.5078 110.492 19.5078C110.784 19.526 111.076 19.7539 111.367 20.1914L111.422 20.3281C111.422 20.4375 111.34 20.5013 111.176 20.5195C111.012 20.5378 110.911 20.5469 110.875 20.5469C110.31 20.5469 109.891 20.556 109.617 20.5742C108.924 20.5742 108.414 20.5833 108.086 20.6016L107.32 20.6562L105.762 20.8203C105.652 22.3516 105.552 23.3542 105.461 23.8281C105.315 24.6849 105.033 25.3776 104.613 25.9062C104.303 26.3073 103.857 26.599 103.273 26.7812ZM110.164 34.5195C109.891 34.5195 109.626 34.319 109.371 33.918C109.043 33.4076 108.724 32.9883 108.414 32.6602L107.703 31.9219C107.32 32.3594 106.983 32.7057 106.691 32.9609C106.418 33.2161 106.072 33.4622 105.652 33.6992C104.868 34.1549 104.212 34.3828 103.684 34.3828C103.556 34.3828 103.492 34.3372 103.492 34.2461C103.492 34.1914 103.665 34.0729 104.012 33.8906C104.358 33.7083 104.686 33.4896 104.996 33.2344C105.78 32.5781 106.427 31.9036 106.938 31.2109C106.828 31.1016 106.281 30.6276 105.297 29.7891C105.169 29.6979 104.978 29.543 104.723 29.3242C104.668 29.2878 104.559 29.2057 104.395 29.0781C104.23 28.9505 104.148 28.8594 104.148 28.8047C104.148 28.7135 104.194 28.668 104.285 28.668C104.559 28.668 104.996 28.8594 105.598 29.2422C106.199 29.6068 106.828 30.0443 107.484 30.5547C107.74 30.2448 107.94 29.9531 108.086 29.6797C108.232 29.4062 108.396 29.069 108.578 28.668C108.669 28.4674 108.724 28.2943 108.742 28.1484C108.76 27.9844 108.77 27.8841 108.77 27.8477C108.77 27.6471 108.824 27.5469 108.934 27.5469C109.061 27.5469 109.234 27.6471 109.453 27.8477C109.836 28.2122 110.027 28.4583 110.027 28.5859C110.027 28.6589 109.982 28.7409 109.891 28.832C109.672 29.0508 109.471 29.3424 109.289 29.707C109.18 29.9258 108.979 30.2357 108.688 30.6367C108.596 30.7461 108.523 30.8464 108.469 30.9375C108.414 31.0286 108.359 31.1107 108.305 31.1836C108.724 31.4935 109.344 32.0221 110.164 32.7695C110.365 32.9518 110.492 33.125 110.547 33.2891C110.62 33.4349 110.656 33.6354 110.656 33.8906C110.656 34.0729 110.611 34.2279 110.52 34.3555C110.428 34.4648 110.31 34.5195 110.164 34.5195ZM107.484 42.9414C106.591 42.9414 105.871 42.7135 105.324 42.2578C104.741 41.7474 104.449 41.1549 104.449 40.4805C104.449 39.8971 104.659 39.4232 105.078 39.0586C105.26 38.8945 105.507 38.7578 105.816 38.6484C106.126 38.5208 106.418 38.457 106.691 38.457C106.874 38.457 106.974 38.4479 106.992 38.4297C107.029 38.3932 107.056 38.3021 107.074 38.1562C107.092 38.0286 107.102 37.7643 107.102 37.3633C107.083 37.2904 107.074 37.1628 107.074 36.9805C105.944 37.0898 105.105 37.1992 104.559 37.3086C104.431 37.3268 104.276 37.2995 104.094 37.2266C103.93 37.1354 103.793 37.026 103.684 36.8984C103.574 36.7708 103.538 36.6797 103.574 36.625C103.647 36.5521 103.72 36.5065 103.793 36.4883C103.866 36.4518 103.984 36.4336 104.148 36.4336C104.714 36.4336 105.124 36.4154 105.379 36.3789L109.207 35.9961C109.262 35.9961 109.389 35.987 109.59 35.9688C109.809 35.9505 110.009 35.9141 110.191 35.8594H110.273C110.346 35.8594 110.41 35.8867 110.465 35.9414C110.538 35.9779 110.583 35.9961 110.602 35.9961C110.875 36.2148 111.012 36.4062 111.012 36.5703C111.012 36.6979 110.902 36.7617 110.684 36.7617L110.355 36.7344C110.264 36.7161 109.809 36.7344 108.988 36.7891L108.168 36.8438C108.186 37.0625 108.186 37.3359 108.168 37.6641C108.15 37.974 108.132 38.2383 108.113 38.457L108.141 38.7578C108.141 38.8672 108.104 38.9674 108.031 39.0586C107.922 39.2409 107.74 39.332 107.484 39.332C107.339 39.332 107.211 39.3229 107.102 39.3047L106.828 39.25C106.536 39.2318 106.227 39.3503 105.898 39.6055C105.625 39.8789 105.488 40.1706 105.488 40.4805C105.488 40.8997 105.661 41.2552 106.008 41.5469C106.208 41.7109 106.418 41.8203 106.637 41.875C106.874 41.9479 107.156 41.9844 107.484 41.9844C107.922 41.9844 108.332 41.9115 108.715 41.7656C109.098 41.6198 109.38 41.401 109.562 41.1094C109.635 40.9818 109.699 40.9089 109.754 40.8906C109.809 40.8542 109.909 40.8359 110.055 40.8359C110.201 40.8359 110.319 40.8815 110.41 40.9727C110.52 41.082 110.574 41.1914 110.574 41.3008C110.574 41.6289 110.273 41.9844 109.672 42.3672C109.07 42.75 108.341 42.9414 107.484 42.9414ZM115.742 30.6367C115.961 30.6367 116.07 30.737 116.07 30.9375C116.07 31.0469 115.97 31.2018 115.77 31.4023C115.223 32.0768 114.138 33.362 112.516 35.2578C112.388 35.4219 112.27 35.5039 112.16 35.5039C112.069 35.5039 111.868 35.3672 111.559 35.0938C111.303 34.875 111.176 34.6927 111.176 34.5469C111.176 34.3828 111.312 34.2279 111.586 34.082C112.005 33.8451 112.634 33.3711 113.473 32.6602C114.311 31.9128 114.931 31.3203 115.332 30.8828C115.496 30.7188 115.633 30.6367 115.742 30.6367ZM88.6172 42.7227V42.8594C88.6172 43.2422 88.4714 43.4336 88.1797 43.4336C87.9427 43.4336 87.6237 43.3242 87.2227 43.1055C86.8398 42.9049 86.6484 42.6589 86.6484 42.3672C86.6484 42.2578 86.6576 42.1758 86.6758 42.1211C86.7305 41.8477 86.7578 41.5469 86.7578 41.2188C86.7578 40.9453 86.7487 40.7266 86.7305 40.5625L86.293 35.1758C86.293 35.1211 86.2747 34.9206 86.2383 34.5742C86.2018 34.2279 86.1198 33.918 85.9922 33.6445C85.8828 33.3893 85.8281 33.2435 85.8281 33.207C85.8281 33.0794 85.9193 33.0156 86.1016 33.0156C86.4115 33.0156 87.0312 33.1797 87.9609 33.5078L90.7773 33.3711L90.8047 29.2148L84.543 29.5156H84.2969C84.0234 29.5156 83.8138 29.4974 83.668 29.4609C83.5221 29.4062 83.3945 29.3151 83.2852 29.1875C83.2122 29.1146 83.1029 28.9505 82.957 28.6953C82.8112 28.4219 82.7383 28.194 82.7383 28.0117C82.7383 27.9206 82.7839 27.875 82.875 27.875L83.0391 27.9023C83.276 27.9753 83.5586 28.0117 83.8867 28.0117L84.4336 27.9844L90.832 27.6836L90.8594 23.5273C89.6198 23.7826 88.5078 23.9922 87.5234 24.1562C86.5573 24.3021 85.9466 24.375 85.6914 24.375C85.2904 24.375 85.0898 24.293 85.0898 24.1289C85.0898 24.0378 85.1719 23.9375 85.3359 23.8281C85.5182 23.7188 85.7552 23.6276 86.0469 23.5547C89.6745 22.6432 92.7005 21.5768 95.125 20.3555C95.4896 20.1732 95.8177 19.8997 96.1094 19.5352C96.1641 19.4622 96.2279 19.4258 96.3008 19.4258C96.4831 19.4258 96.7201 19.6445 97.0117 20.082C97.3216 20.5195 97.4766 20.8659 97.4766 21.1211C97.4766 21.3581 97.3854 21.513 97.2031 21.5859C95.5078 22.224 93.9948 22.7161 92.6641 23.0625L92.6094 27.6016L98.2422 27.3281C98.5703 27.3099 98.9531 27.2552 99.3906 27.1641C99.5729 27.1276 99.7005 27.1094 99.7734 27.1094C99.974 27.1094 100.229 27.2643 100.539 27.5742C100.867 27.8659 101.031 28.1211 101.031 28.3398C101.031 28.5951 100.822 28.7409 100.402 28.7773H100.32L92.6094 29.1328L92.5547 33.2891L96.3555 33.125L96.7109 33.0977C96.9297 33.0977 97.194 33.1979 97.5039 33.3984C97.832 33.599 97.9961 33.8542 97.9961 34.1641C97.9961 34.2552 97.9596 34.3737 97.8867 34.5195C97.8138 34.6654 97.7773 34.7747 97.7773 34.8477L97.0117 40.043C97.4857 40.6445 97.7227 41.0547 97.7227 41.2734C97.7227 41.401 97.6497 41.4831 97.5039 41.5195C97.3763 41.556 97.1667 41.5833 96.875 41.6016L88.5352 41.7656L88.6172 42.7227ZM76.6133 27.4102C76.6133 27.3008 76.6953 27.1276 76.8594 26.8906C77.0234 26.6354 77.1966 26.5078 77.3789 26.5078C77.543 26.5078 78.0169 26.763 78.8008 27.2734C79.6029 27.7839 80.3503 28.3125 81.043 28.8594C81.7539 29.4062 82.1094 29.7526 82.1094 29.8984C82.1094 30.026 81.9909 30.263 81.7539 30.6094C81.5352 30.9375 81.3255 31.1016 81.125 31.1016C80.9974 31.1016 80.8151 31.0013 80.5781 30.8008C79.4661 29.7253 78.2812 28.7591 77.0234 27.9023C76.75 27.7383 76.6133 27.5742 76.6133 27.4102ZM76.8047 41.1914C76.8047 41.1003 76.8776 41.0091 77.0234 40.918C77.388 40.7174 77.7253 40.4167 78.0352 40.0156C79.8945 37.5 81.5443 35.0208 82.9844 32.5781C83.2943 32.0859 83.5495 31.8398 83.75 31.8398C83.8776 31.8398 83.9414 31.9492 83.9414 32.168C83.9414 32.6784 83.4857 33.8542 82.5742 35.6953C81.6628 37.5182 80.6875 39.2773 79.6484 40.9727C79.375 41.4466 79.1654 41.7565 79.0195 41.9023C78.8919 42.0664 78.7188 42.1484 78.5 42.1484H78.418C78.1081 42.112 77.7617 41.9844 77.3789 41.7656C76.9961 41.5651 76.8047 41.3737 76.8047 41.1914ZM78.2539 21.1484C78.2539 21.0208 78.3359 20.8477 78.5 20.6289C78.6641 20.4102 78.8464 20.3008 79.0469 20.3008C79.3021 20.3008 79.8672 20.6471 80.7422 21.3398C81.6172 22.0143 82.4922 22.7435 83.3672 23.5273C83.5677 23.7096 83.668 23.8737 83.668 24.0195C83.668 24.2201 83.5495 24.4661 83.3125 24.7578C83.0755 25.0312 82.8568 25.168 82.6562 25.168C82.5104 25.168 82.3281 25.0586 82.1094 24.8398C80.8151 23.5091 79.6484 22.4336 78.6094 21.6133C78.3724 21.431 78.2539 21.276 78.2539 21.1484ZM88.3984 40.1797L95.2617 40.0156L95.8633 34.7656L87.9883 35.0664L88.3984 40.1797Z" fill="#333333"/>
</svg>
