<svg width="150" height="60" viewBox="0 0 150 60" fill="none" xmlns="http://www.w3.org/2000/svg">
<path d="M65.2109 26.9453C65.1016 26.9453 64.9557 26.8268 64.7734 26.5898C64.5911 26.3346 64.5091 26.1159 64.5273 25.9336C64.5638 25.7878 64.5911 25.3776 64.6094 24.7031C64.6276 24.2474 64.6367 23.4453 64.6367 22.2969C64.6367 21.4948 64.6276 20.957 64.6094 20.6836L63.707 20.7656C63.069 20.8568 62.5221 20.9023 62.0664 20.9023C61.9388 20.9023 61.7565 20.8021 61.5195 20.6016C61.2826 20.401 61.1641 20.2552 61.1641 20.1641C61.1641 20.0182 61.319 19.9635 61.6289 20C61.8294 20.0182 62.4219 20.0091 63.4062 19.9727C64.7552 19.8815 65.7305 19.8268 66.332 19.8086C66.6419 19.7904 66.9245 19.763 67.1797 19.7266C67.4531 19.6719 67.6445 19.6354 67.7539 19.6172C67.918 19.599 68.0638 19.6172 68.1914 19.6719C68.319 19.7266 68.4375 19.7995 68.5469 19.8906C68.6745 19.9635 68.7747 20.0182 68.8477 20.0547C69.0117 20.1641 69.0938 20.2643 69.0938 20.3555C69.0938 20.4284 69.0482 20.5013 68.957 20.5742C68.8841 20.6289 68.8021 20.6562 68.7109 20.6562C68.6198 20.6562 68.4922 20.6471 68.3281 20.6289C68.1823 20.6107 68.0182 20.6016 67.8359 20.6016C67.1615 20.6016 66.4688 20.6198 65.7578 20.6562C65.7396 20.8021 65.7305 21.1667 65.7305 21.75C65.694 22.7344 65.6758 23.7005 65.6758 24.6484V25.7148V25.9609C65.6758 26.2708 65.6484 26.4714 65.5938 26.5625C65.4297 26.8177 65.3021 26.9453 65.2109 26.9453ZM62.2852 31.7852C62.0846 31.7852 61.8385 31.6302 61.5469 31.3203C61.3281 31.1016 61.2188 30.9375 61.2188 30.8281C61.2188 30.7734 61.2552 30.7461 61.3281 30.7461C61.401 30.7279 61.4922 30.7188 61.6016 30.7188L62.2031 30.6914C62.5495 30.6914 62.7773 30.6823 62.8867 30.6641C63.2331 30.6641 63.5247 30.6549 63.7617 30.6367C65.3294 30.4909 66.3867 30.3724 66.9336 30.2812C67.207 30.2448 67.4531 30.2083 67.6719 30.1719C67.8906 30.1172 68.0638 30.0898 68.1914 30.0898C68.4466 30.0898 68.7018 30.2174 68.957 30.4727C69.1576 30.6732 69.2578 30.8372 69.2578 30.9648C69.2578 31.0742 69.194 31.1471 69.0664 31.1836C68.9753 31.2018 68.4375 31.2383 67.4531 31.293C66.9062 31.3112 66.2318 31.3568 65.4297 31.4297C64.6276 31.5026 63.9258 31.5755 63.3242 31.6484C63.2148 31.6667 63.0599 31.694 62.8594 31.7305C62.6589 31.7669 62.4674 31.7852 62.2852 31.7852ZM68.7109 42.5586C68.6927 42.5768 68.6471 42.5859 68.5742 42.5859C68.4284 42.5859 68.2188 42.4857 67.9453 42.2852C67.3255 41.6654 66.5143 40.8997 65.5117 39.9883C65.0378 40.4622 64.5911 40.8724 64.1719 41.2188C64.026 41.3281 63.7708 41.4922 63.4062 41.7109C62.8776 42.0208 62.3672 42.2122 61.875 42.2852H61.7109C61.5469 42.2852 61.4466 42.2669 61.4102 42.2305C61.3919 42.2122 61.4284 42.1758 61.5195 42.1211C61.6289 42.0664 61.7109 42.0208 61.7656 41.9844C61.875 41.9297 62.1849 41.7292 62.6953 41.3828C62.9505 41.2005 63.3151 40.8906 63.7891 40.4531C64.263 40.0156 64.6094 39.6602 64.8281 39.3867L63.707 38.5117C63.5065 38.3659 63.2878 38.2109 63.0508 38.0469C62.832 37.8646 62.6771 37.7461 62.5859 37.6914L62.5586 37.6094C62.5586 37.5 62.6497 37.4453 62.832 37.4453C63.0508 37.4453 63.4062 37.582 63.8984 37.8555L65.293 38.7578C65.6029 38.3568 65.9128 37.9193 66.2227 37.4453C66.5508 36.9531 66.724 36.6615 66.7422 36.5703C66.7604 36.5156 66.7513 36.4701 66.7148 36.4336C66.6966 36.3789 66.6602 36.3516 66.6055 36.3516H66.0586L65.0742 36.4336C64.582 36.4701 64.0898 36.5339 63.5977 36.625C63.543 36.6432 63.4518 36.6706 63.3242 36.707C63.1966 36.7435 63.0872 36.7617 62.9961 36.7617C62.9596 36.7617 62.8047 36.6615 62.5312 36.4609C62.276 36.2422 62.1393 36.1055 62.1211 36.0508C62.1029 36.0326 62.0938 36.0052 62.0938 35.9688C62.0938 35.8776 62.194 35.8411 62.3945 35.8594C62.5951 35.8594 62.7227 35.8594 62.7773 35.8594C63.2878 35.8594 64.026 35.8138 64.9922 35.7227L65.9219 35.6406L66.7695 35.5312C67.043 35.4583 67.1979 35.4219 67.2344 35.4219H67.2891C67.3802 35.4219 67.4622 35.4492 67.5352 35.5039C67.6081 35.5586 67.6628 35.6133 67.6992 35.668C67.7357 35.7227 67.763 35.7591 67.7812 35.7773C67.7995 35.7956 67.8542 35.8503 67.9453 35.9414C68.0365 36.0143 68.0911 36.0872 68.1094 36.1602C68.1458 36.2148 68.1641 36.2786 68.1641 36.3516C68.1641 36.5156 68.1003 36.6341 67.9727 36.707C67.8815 36.7435 67.7174 36.9349 67.4805 37.2812C67.0794 37.9193 66.5964 38.6029 66.0312 39.332C66.3411 39.5326 66.7422 39.8242 67.2344 40.207C67.4531 40.3529 67.8086 40.599 68.3008 40.9453C68.5195 41.1094 68.6836 41.3281 68.793 41.6016C68.8659 41.8932 68.9023 42.112 68.9023 42.2578C68.8841 42.4036 68.8203 42.5039 68.7109 42.5586ZM48.5312 42.6953C48.6589 41.6745 48.7227 40.8542 48.7227 40.2344V31.9219C48.7227 31.1745 48.7682 30.1263 48.8594 28.7773C48.349 30.3268 47.5469 31.931 46.4531 33.5898C45.3594 35.2487 44.2656 36.6523 43.1719 37.8008C42.0964 38.9492 41.3854 39.5234 41.0391 39.5234C40.9115 39.5234 40.8477 39.4596 40.8477 39.332C40.8477 39.168 40.9388 38.9674 41.1211 38.7305C42.4336 37.0169 43.6276 35.276 44.7031 33.5078C45.7969 31.7214 46.7539 29.7982 47.5742 27.7383L44.4297 27.9297C43.9922 27.9661 43.7188 27.9844 43.6094 27.9844C43.2448 27.9844 42.9531 27.875 42.7344 27.6562C42.5156 27.4193 42.3516 27.1823 42.2422 26.9453C42.151 26.6901 42.1055 26.526 42.1055 26.4531C42.1055 26.362 42.1602 26.3164 42.2695 26.3164C42.3242 26.3164 42.3698 26.3255 42.4062 26.3438C42.7526 26.4167 43.1445 26.4531 43.582 26.4531H43.9102L48.7227 26.1797V20.6836C48.7227 20.0456 48.6133 19.5534 48.3945 19.207C48.3581 19.1341 48.3398 19.0794 48.3398 19.043C48.3398 18.9154 48.4583 18.8516 48.6953 18.8516C48.8776 18.8516 49.1602 18.9062 49.543 19.0156C49.9076 19.125 50.1445 19.2435 50.2539 19.3711C50.3633 19.4805 50.418 19.6445 50.418 19.8633V26.0977L54.3008 25.8789C54.6107 25.8607 54.8841 25.8151 55.1211 25.7422C55.3763 25.6693 55.5586 25.6237 55.668 25.6055C55.7227 25.5872 55.8047 25.5781 55.9141 25.5781C56.224 25.5781 56.5703 25.7148 56.9531 25.9883C57.3359 26.2617 57.5273 26.5169 57.5273 26.7539C57.5273 26.8997 57.4544 27.0091 57.3086 27.082C57.1628 27.1549 56.9805 27.2005 56.7617 27.2188L51.1562 27.5469C52.4323 29.5521 53.7266 31.3659 55.0391 32.9883C56.3698 34.5924 57.7917 36.069 59.3047 37.418C59.487 37.5638 59.5781 37.6823 59.5781 37.7734C59.5781 37.901 59.4049 38.0742 59.0586 38.293C58.7305 38.4935 58.4206 38.5938 58.1289 38.5938C57.9102 38.5938 57.737 38.5299 57.6094 38.4023C55.0755 35.832 52.6784 32.6875 50.418 28.9688L50.3906 43.3242C50.3906 43.4883 50.3359 43.6159 50.2266 43.707C50.1172 43.7982 49.9805 43.8438 49.8164 43.8438C49.6159 43.8438 49.4427 43.7982 49.2969 43.707C48.7865 43.4336 48.5312 43.1328 48.5312 42.8047V42.6953ZM33.9023 32.8242C33.9023 32.6419 34.0208 32.3958 34.2578 32.0859C35.5156 30.4089 36.6185 28.7409 37.5664 27.082C38.5326 25.4049 39.2799 23.9557 39.8086 22.7344C40.3372 21.4948 40.6016 20.6927 40.6016 20.3281C40.6016 20.1276 40.5742 19.9362 40.5195 19.7539C40.5013 19.7174 40.4922 19.6719 40.4922 19.6172C40.4922 19.4531 40.6107 19.3711 40.8477 19.3711C41.2487 19.3711 41.6497 19.5169 42.0508 19.8086C42.4518 20.082 42.6523 20.3464 42.6523 20.6016C42.6523 20.8932 42.3789 21.6133 41.832 22.7617C41.3034 23.9102 40.6654 25.0859 39.918 26.2891V42.7773C39.918 43.1237 39.7539 43.2969 39.4258 43.2969C39.1341 43.2969 38.8242 43.1966 38.4961 42.9961C38.1862 42.7956 38.0312 42.5312 38.0312 42.2031C38.0312 42.0755 38.0404 41.9753 38.0586 41.9023C38.1497 41.3555 38.1953 40.8451 38.1953 40.3711L38.3047 28.5859C36.9193 30.4453 35.9076 31.6484 35.2695 32.1953C34.6497 32.7422 34.2487 33.0156 34.0664 33.0156C33.957 33.0156 33.9023 32.9518 33.9023 32.8242Z" fill="#333333"/>
<path d="M107.211 26.9453C107.102 26.9453 106.956 26.8268 106.773 26.5898C106.591 26.3346 106.509 26.1159 106.527 25.9336C106.564 25.7878 106.591 25.3776 106.609 24.7031C106.628 24.2474 106.637 23.4453 106.637 22.2969C106.637 21.4948 106.628 20.957 106.609 20.6836L105.707 20.7656C105.069 20.8568 104.522 20.9023 104.066 20.9023C103.939 20.9023 103.757 20.8021 103.52 20.6016C103.283 20.401 103.164 20.2552 103.164 20.1641C103.164 20.0182 103.319 19.9635 103.629 20C103.829 20.0182 104.422 20.0091 105.406 19.9727C106.755 19.8815 107.73 19.8268 108.332 19.8086C108.642 19.7904 108.924 19.763 109.18 19.7266C109.453 19.6719 109.645 19.6354 109.754 19.6172C109.918 19.599 110.064 19.6172 110.191 19.6719C110.319 19.7266 110.438 19.7995 110.547 19.8906C110.674 19.9635 110.775 20.0182 110.848 20.0547C111.012 20.1641 111.094 20.2643 111.094 20.3555C111.094 20.4284 111.048 20.5013 110.957 20.5742C110.884 20.6289 110.802 20.6562 110.711 20.6562C110.62 20.6562 110.492 20.6471 110.328 20.6289C110.182 20.6107 110.018 20.6016 109.836 20.6016C109.161 20.6016 108.469 20.6198 107.758 20.6562C107.74 20.8021 107.73 21.1667 107.73 21.75C107.694 22.7344 107.676 23.7005 107.676 24.6484V25.7148V25.9609C107.676 26.2708 107.648 26.4714 107.594 26.5625C107.43 26.8177 107.302 26.9453 107.211 26.9453ZM104.285 31.7852C104.085 31.7852 103.839 31.6302 103.547 31.3203C103.328 31.1016 103.219 30.9375 103.219 30.8281C103.219 30.7734 103.255 30.7461 103.328 30.7461C103.401 30.7279 103.492 30.7188 103.602 30.7188L104.203 30.6914C104.549 30.6914 104.777 30.6823 104.887 30.6641C105.233 30.6641 105.525 30.6549 105.762 30.6367C107.329 30.4909 108.387 30.3724 108.934 30.2812C109.207 30.2448 109.453 30.2083 109.672 30.1719C109.891 30.1172 110.064 30.0898 110.191 30.0898C110.447 30.0898 110.702 30.2174 110.957 30.4727C111.158 30.6732 111.258 30.8372 111.258 30.9648C111.258 31.0742 111.194 31.1471 111.066 31.1836C110.975 31.2018 110.438 31.2383 109.453 31.293C108.906 31.3112 108.232 31.3568 107.43 31.4297C106.628 31.5026 105.926 31.5755 105.324 31.6484C105.215 31.6667 105.06 31.694 104.859 31.7305C104.659 31.7669 104.467 31.7852 104.285 31.7852ZM108.359 37.8828C108.177 38.1198 107.986 38.2383 107.785 38.2383C107.73 38.2383 107.703 38.1927 107.703 38.1016C107.703 37.974 107.74 37.8281 107.812 37.6641C107.812 37.6641 107.995 37.2995 108.359 36.5703C108.378 36.4974 108.405 36.4245 108.441 36.3516C108.478 36.2786 108.505 36.2148 108.523 36.1602V36.1328C108.523 36.0964 108.496 36.0599 108.441 36.0234C108.387 35.987 108.323 35.9779 108.25 35.9961C107.958 36.0143 107.521 36.0599 106.938 36.1328C106.372 36.2057 105.953 36.2786 105.68 36.3516C105.57 36.388 105.434 36.4336 105.27 36.4883C105.124 36.543 105.005 36.5703 104.914 36.5703C104.586 36.5703 104.312 36.4701 104.094 36.2695C103.911 36.1419 103.775 36.0143 103.684 35.8867L103.629 35.75C103.629 35.6589 103.784 35.6315 104.094 35.668C104.513 35.7044 105.379 35.6497 106.691 35.5039L107.238 35.4219C107.384 35.4036 107.612 35.3763 107.922 35.3398C108.25 35.2852 108.505 35.2305 108.688 35.1758C108.742 35.1576 108.797 35.1393 108.852 35.1211C108.924 35.0846 108.988 35.0664 109.043 35.0664C109.134 35.0664 109.243 35.112 109.371 35.2031C109.517 35.2943 109.635 35.3763 109.727 35.4492C109.854 35.5404 109.936 35.6224 109.973 35.6953C110.027 35.75 110.046 35.8229 110.027 35.9141C110.027 36.0052 109.982 36.0872 109.891 36.1602C109.799 36.2331 109.736 36.2878 109.699 36.3242C109.663 36.3789 109.535 36.5156 109.316 36.7344C109.225 36.8802 109.061 37.0807 108.824 37.3359C108.605 37.5911 108.451 37.7734 108.359 37.8828ZM106.992 43.2695C106.992 43.2148 107.083 43.069 107.266 42.832C107.466 42.6133 107.621 42.4401 107.73 42.3125C108.004 41.9479 108.332 41.4193 108.715 40.7266C109.116 40.0339 109.344 39.5781 109.398 39.3594C109.435 39.25 109.38 39.1953 109.234 39.1953C108.943 39.1953 108.141 39.2773 106.828 39.4414C105.971 39.5508 105.333 39.6602 104.914 39.7695C104.823 39.8242 104.732 39.8516 104.641 39.8516C104.495 39.8516 104.34 39.7513 104.176 39.5508C104.103 39.4232 104.066 39.3047 104.066 39.1953C104.066 39.1224 104.112 39.0495 104.203 38.9766L104.285 38.8672C104.34 38.7578 104.404 38.612 104.477 38.4297C104.549 38.2474 104.613 38.0742 104.668 37.9102C104.759 37.6185 104.823 37.2995 104.859 36.9531C104.878 36.7526 104.987 36.6979 105.188 36.7891C105.443 36.9167 105.634 37.0443 105.762 37.1719C105.908 37.2812 105.953 37.3633 105.898 37.418C105.716 37.6367 105.57 37.8828 105.461 38.1562C105.37 38.4479 105.315 38.6393 105.297 38.7305C105.297 38.8034 105.342 38.8398 105.434 38.8398C105.707 38.8398 106.117 38.7943 106.664 38.7031C106.974 38.6667 107.357 38.6211 107.812 38.5664C108.268 38.5117 108.633 38.457 108.906 38.4023L109.59 38.2656C109.645 38.2474 109.717 38.2383 109.809 38.2383C109.9 38.2383 109.991 38.2747 110.082 38.3477C110.173 38.4023 110.273 38.4753 110.383 38.5664C110.565 38.7305 110.684 38.8672 110.738 38.9766C110.793 39.0677 110.82 39.1771 110.82 39.3047C110.82 39.3776 110.766 39.4688 110.656 39.5781C110.565 39.6875 110.456 39.8607 110.328 40.0977C109.799 41.1732 109.116 42.0755 108.277 42.8047C108.04 42.987 107.776 43.1419 107.484 43.2695C107.357 43.306 107.238 43.3242 107.129 43.3242C107.038 43.3424 106.992 43.3242 106.992 43.2695ZM115.742 30.6367C115.961 30.6367 116.07 30.737 116.07 30.9375C116.07 31.0469 115.97 31.2018 115.77 31.4023C115.223 32.0768 114.138 33.362 112.516 35.2578C112.388 35.4219 112.27 35.5039 112.16 35.5039C112.069 35.5039 111.868 35.3672 111.559 35.0938C111.303 34.875 111.176 34.6927 111.176 34.5469C111.176 34.3828 111.312 34.2279 111.586 34.082C112.005 33.8451 112.634 33.3711 113.473 32.6602C114.311 31.9128 114.931 31.3203 115.332 30.8828C115.496 30.7188 115.633 30.6367 115.742 30.6367ZM91.3516 27.5742L91.3789 28.0391V28.1484C91.3789 28.4948 91.2513 28.668 90.9961 28.668C90.7591 28.668 90.4583 28.5495 90.0938 28.3125C89.7474 28.0755 89.5742 27.8477 89.5742 27.6289L89.6016 27.4648C89.6745 26.9909 89.7109 26.6081 89.7109 26.3164V26.0156L89.5469 21.9688C89.5286 21.4766 89.4193 21.0573 89.2188 20.7109C89.1094 20.4922 89.0547 20.3555 89.0547 20.3008C89.0547 20.1732 89.1732 20.1094 89.4102 20.1094C89.6836 20.1094 90.2396 20.2188 91.0781 20.4375L97.5312 19.8906L97.8867 19.8633C98.1419 19.8633 98.388 19.9635 98.625 20.1641C98.8802 20.3464 99.0078 20.5378 99.0078 20.7383C99.0078 20.8112 98.9805 20.9206 98.9258 21.0664C98.8893 21.194 98.8711 21.2852 98.8711 21.3398L98.7891 41.4375L98.8164 42.2578C98.8164 42.6406 98.6706 42.9779 98.3789 43.2695C98.0872 43.5794 97.8138 43.7344 97.5586 43.7344C97.3216 43.7344 96.8477 43.5156 96.1367 43.0781C95.4258 42.6406 94.7695 42.1576 94.168 41.6289C93.5846 41.1185 93.293 40.7266 93.293 40.4531C93.293 40.3255 93.3659 40.2617 93.5117 40.2617C93.7305 40.2617 93.9948 40.3529 94.3047 40.5352C95.1068 40.9727 96.0638 41.3464 97.1758 41.6562L97.2305 27.3008L91.3516 27.5742ZM78.0625 20.5195C78.0625 20.3919 78.1354 20.3281 78.2812 20.3281C78.5 20.3281 79.0378 20.5013 79.8945 20.8477L85.6914 20.3555L85.9922 20.3281C86.2109 20.3281 86.4388 20.4284 86.6758 20.6289C86.9128 20.8294 87.0312 21.0117 87.0312 21.1758C87.0312 21.2487 87.0039 21.349 86.9492 21.4766C86.8945 21.6042 86.8672 21.7044 86.8672 21.7773L86.4844 26.5625C86.8854 27.0547 87.0859 27.401 87.0859 27.6016C87.0859 27.7109 87.0312 27.7839 86.9219 27.8203C86.8125 27.8568 86.6302 27.8841 86.375 27.9023L80.0039 28.2578L79.9766 43.0781C79.9766 43.5156 79.8581 43.7344 79.6211 43.7344C79.5299 43.7344 79.3659 43.6888 79.1289 43.5977C78.8919 43.5065 78.6732 43.3789 78.4727 43.2148C78.2904 43.0508 78.1992 42.8503 78.1992 42.6133L78.2266 42.3672C78.2995 41.9115 78.3359 41.3828 78.3359 40.7812L78.418 22.4062C78.418 21.8776 78.3268 21.3672 78.1445 20.875C78.0898 20.7292 78.0625 20.6107 78.0625 20.5195ZM84.8984 26.5898L85.0078 24.7305L80.0039 25.0586V26.8906L84.8984 26.5898ZM85.0898 23.4727L85.1992 21.75L80.0039 22.1875V23.8281L85.0898 23.4727ZM81.1523 41.2188C81.1523 41.0911 81.2526 40.9271 81.4531 40.7266C82.2734 39.8698 82.9023 39.0951 83.3398 38.4023C83.7773 37.6914 84.0964 36.9167 84.2969 36.0781C84.4974 35.2396 84.5977 34.2005 84.5977 32.9609C84.5977 31.9036 84.5703 31.1562 84.5156 30.7188C84.4792 30.263 84.3698 29.8346 84.1875 29.4336C84.1328 29.3242 84.1055 29.2331 84.1055 29.1602C84.1055 29.0508 84.1784 28.9961 84.3242 28.9961C84.6159 28.9961 85.263 29.1966 86.2656 29.5977L91.2422 29.2695L91.707 29.2422C91.9258 29.2422 92.1628 29.3333 92.418 29.5156C92.6732 29.6797 92.8008 29.862 92.8008 30.0625C92.8008 30.1354 92.7643 30.2357 92.6914 30.3633C92.6367 30.4727 92.6094 30.5547 92.6094 30.6094L92.6367 39.0586L92.6641 40.0156C92.6641 40.3438 92.5182 40.6445 92.2266 40.918C91.9531 41.1914 91.6615 41.3281 91.3516 41.3281C91.0781 41.3281 90.5951 41.1276 89.9023 40.7266C89.2279 40.3073 88.599 39.8607 88.0156 39.3867C87.4505 38.8945 87.168 38.5573 87.168 38.375C87.168 38.2839 87.2318 38.2383 87.3594 38.2383C87.5417 38.2383 87.7695 38.3112 88.043 38.457C88.8268 38.8763 89.8385 39.2135 91.0781 39.4688L91.0508 36.543L85.6367 36.7344C85.3268 37.7005 84.8802 38.5391 84.2969 39.25C83.7135 39.9427 83.1393 40.4805 82.5742 40.8633C82.0091 41.2279 81.6172 41.4102 81.3984 41.4102C81.2344 41.4102 81.1523 41.3464 81.1523 41.2188ZM91.0508 35.2852V33.5352L86.1289 33.7812C86.0924 34.4557 86.0286 35.0208 85.9375 35.4766L91.0508 35.2852ZM91.0234 32.2773V30.6094L86.1836 30.9102V32.5234L91.0234 32.2773ZM91.2148 23.3359L97.2578 22.9805V21.2852L91.1602 21.7773L91.2148 23.3359ZM91.3242 26.2891L97.2305 25.9883L97.2578 24.2109L91.2695 24.5938L91.3242 26.2891Z" fill="#333333"/>
</svg>
