<svg width="150" height="60" viewBox="0 0 150 60" fill="none" xmlns="http://www.w3.org/2000/svg">
<path d="M67.3164 27.3008C67.1888 27.3008 67.0521 27.2188 66.9062 27.0547C66.7969 26.9271 66.724 26.8268 66.6875 26.7539C66.651 26.6628 66.651 26.5443 66.6875 26.3984L66.7148 25.7422C66.7331 25.6146 66.7422 25.3047 66.7422 24.8125V23.9102L65.9219 24.293L64.9648 24.7031C64.7279 24.7943 64.4818 24.9036 64.2266 25.0312C64.0078 25.1406 63.8164 25.1953 63.6523 25.1953C63.5247 25.1771 63.3789 25.1315 63.2148 25.0586C63.0508 24.9857 62.9232 24.9219 62.832 24.8672C62.6315 24.7396 62.5404 24.6029 62.5586 24.457L62.6406 24.1836C62.6406 24.0378 62.6497 23.9102 62.668 23.8008L62.6953 22.2148V20.7383C62.6953 20.4466 62.6771 20.2005 62.6406 20C62.6042 19.7812 62.5768 19.6263 62.5586 19.5352C62.5586 19.444 62.5859 19.3802 62.6406 19.3438C62.6589 19.3255 62.7044 19.3164 62.7773 19.3164C62.9049 19.3164 63.151 19.3984 63.5156 19.5625C63.8255 19.7083 63.9531 19.8906 63.8984 20.1094C63.862 20.237 63.8255 20.4284 63.7891 20.6836L63.707 23.8281C63.707 23.9193 63.7161 23.9922 63.7344 24.0469C63.7708 24.0833 63.8073 24.1016 63.8438 24.1016C64.0625 24.1016 64.3268 24.0378 64.6367 23.9102C65.2201 23.7279 65.7214 23.5456 66.1406 23.3633L66.7422 23.1172V21.3125C66.7422 20.5833 66.6966 19.8815 66.6055 19.207C66.5872 19.1523 66.5781 19.0885 66.5781 19.0156C66.5781 18.8333 66.651 18.7422 66.7969 18.7422C66.8151 18.7422 66.9154 18.7786 67.0977 18.8516C67.3711 18.9974 67.5716 19.125 67.6992 19.2344C67.8268 19.3438 67.8997 19.4076 67.918 19.4258C67.9909 19.4805 68.0273 19.5352 68.0273 19.5898C68.0273 19.6263 68.0091 19.6719 67.9727 19.7266C67.9544 19.7812 67.9362 19.8268 67.918 19.8633L67.8359 20.6836L67.8086 23.1992L67.8359 25.6328C67.8359 26.0521 67.8086 26.4167 67.7539 26.7266C67.6628 27.1094 67.5169 27.3008 67.3164 27.3008ZM62.2852 31.7852C62.0846 31.7852 61.8385 31.6302 61.5469 31.3203C61.3281 31.1016 61.2188 30.9375 61.2188 30.8281C61.2188 30.7734 61.2552 30.7461 61.3281 30.7461C61.401 30.7279 61.4922 30.7188 61.6016 30.7188L62.2031 30.6914C62.5495 30.6914 62.7773 30.6823 62.8867 30.6641C63.2331 30.6641 63.5247 30.6549 63.7617 30.6367C65.3294 30.4909 66.3867 30.3724 66.9336 30.2812C67.207 30.2448 67.4531 30.2083 67.6719 30.1719C67.8906 30.1172 68.0638 30.0898 68.1914 30.0898C68.4466 30.0898 68.7018 30.2174 68.957 30.4727C69.1576 30.6732 69.2578 30.8372 69.2578 30.9648C69.2578 31.0742 69.194 31.1471 69.0664 31.1836C68.9753 31.2018 68.4375 31.2383 67.4531 31.293C66.9062 31.3112 66.2318 31.3568 65.4297 31.4297C64.6276 31.5026 63.9258 31.5755 63.3242 31.6484C63.2148 31.6667 63.0599 31.694 62.8594 31.7305C62.6589 31.7669 62.4674 31.7852 62.2852 31.7852ZM65.4023 43.2148C65.2747 43.2148 65.1836 43.1784 65.1289 43.1055C65.0742 43.0326 65.0378 42.987 65.0195 42.9688C64.8372 42.7135 64.7552 42.4674 64.7734 42.2305C64.7917 42.0846 64.819 41.6927 64.8555 41.0547L64.8828 39.7422C64.8646 39.5417 64.8464 39.4232 64.8281 39.3867C64.8099 39.332 64.7279 39.2227 64.582 39.0586C64.2904 38.694 63.9531 38.3203 63.5703 37.9375C63.1328 37.5 62.8503 37.2083 62.7227 37.0625C62.7227 37.0625 62.4492 36.7891 61.9023 36.2422C61.8477 36.1875 61.8203 36.1328 61.8203 36.0781C61.8203 35.987 61.875 35.9141 61.9844 35.8594C62.112 35.7865 62.2396 35.7591 62.3672 35.7773C62.7318 35.8138 62.9688 35.8594 63.0781 35.9141C63.2057 35.9505 63.3242 36.0599 63.4336 36.2422C63.543 36.4245 63.6979 36.6432 63.8984 36.8984C64.1172 37.1354 64.2812 37.3177 64.3906 37.4453C64.8464 37.9922 65.1654 38.3568 65.3477 38.5391C65.6758 38.1562 66.0859 37.6094 66.5781 36.8984C66.9792 36.388 67.2161 35.9688 67.2891 35.6406C67.362 35.4036 67.4714 35.2852 67.6172 35.2852C67.6901 35.2852 67.7995 35.3307 67.9453 35.4219C68.4193 35.7135 68.6562 35.9505 68.6562 36.1328C68.6562 36.2422 68.5378 36.3789 68.3008 36.543C67.9727 36.7799 67.6992 37.0443 67.4805 37.3359L66.9336 38.0195C66.569 38.457 66.2956 38.8034 66.1133 39.0586C66.0221 39.2227 65.9766 39.4596 65.9766 39.7695V41.4375V42.5312C65.9948 42.6589 65.9219 42.8047 65.7578 42.9688C65.612 43.1328 65.4935 43.2148 65.4023 43.2148ZM46.125 32.2227C44.7943 33.207 43.4453 34.0273 42.0781 34.6836C40.7109 35.3398 39.526 35.8229 38.5234 36.1328C37.5208 36.4427 36.901 36.5977 36.6641 36.5977C36.3906 36.5977 36.2539 36.5247 36.2539 36.3789C36.2539 36.2695 36.3359 36.151 36.5 36.0234C36.6641 35.8776 36.8919 35.7409 37.1836 35.6133C38.7148 34.9206 40.1185 34.2096 41.3945 33.4805C42.6888 32.7513 44.0013 31.8398 45.332 30.7461C45.0586 30.3815 44.7396 30.0443 44.375 29.7344C42.4609 30.8464 40.4557 31.6393 38.3594 32.1133C38.0859 32.168 37.8672 32.1953 37.7031 32.1953C37.4297 32.1953 37.293 32.1315 37.293 32.0039C37.293 31.9128 37.3659 31.8125 37.5117 31.7031C37.6758 31.5755 37.8854 31.457 38.1406 31.3477C39.526 30.7643 40.7292 30.2083 41.75 29.6797C42.7708 29.151 43.8008 28.4766 44.8398 27.6562L41.4219 27.875C41.2396 27.8932 40.9935 27.9023 40.6836 27.9023C40.2279 27.9023 39.8906 27.8294 39.6719 27.6836C39.4531 27.5195 39.2344 27.2005 39.0156 26.7266C38.9427 26.599 38.9062 26.4896 38.9062 26.3984C38.9062 26.2708 38.9792 26.207 39.125 26.207C39.1797 26.207 39.2799 26.2253 39.4258 26.2617C39.7904 26.3529 40.237 26.3984 40.7656 26.3984H41.1758L50.0625 25.9062C50.6276 25.888 51.1654 25.7878 51.6758 25.6055C51.8216 25.5508 51.9492 25.5234 52.0586 25.5234C52.2956 25.5234 52.5052 25.6055 52.6875 25.7695C52.888 25.9336 53.0521 26.125 53.1797 26.3438C53.3073 26.5443 53.3711 26.6719 53.3711 26.7266C53.3711 27 53.0794 27.1549 52.4961 27.1914L47.4648 27.4922C46.6445 28.2031 46.0521 28.6862 45.6875 28.9414C46.6536 29.8164 47.3828 30.8828 47.875 32.1406C49.1875 31.5938 50.2995 31.0195 51.2109 30.418C52.1224 29.7982 52.6875 29.2148 52.9062 28.668C52.9974 28.431 53.1159 28.3125 53.2617 28.3125C53.444 28.3125 53.6536 28.5221 53.8906 28.9414C54.1276 29.3424 54.2461 29.707 54.2461 30.0352C54.2461 30.2357 54.2005 30.3633 54.1094 30.418C53.0521 31.1289 52.0768 31.7214 51.1836 32.1953C50.3086 32.651 49.3516 33.0703 48.3125 33.4531C50.1354 34.8021 51.8581 35.8867 53.4805 36.707C55.1211 37.5273 56.9987 38.2747 59.1133 38.9492C59.4049 39.0404 59.5508 39.1589 59.5508 39.3047C59.5508 39.5052 59.3503 39.7695 58.9492 40.0977C58.5482 40.4076 58.2565 40.5625 58.0742 40.5625C57.9648 40.5625 57.3724 40.3438 56.2969 39.9062C55.2214 39.4505 54 38.8581 52.6328 38.1289C51.2839 37.3815 50.026 36.5339 48.8594 35.5859C49.0964 36.7708 49.2148 37.7552 49.2148 38.5391C49.2148 38.7578 49.1966 39.0677 49.1602 39.4688C49.0872 40.4349 48.9779 41.1914 48.832 41.7383C48.6862 42.2852 48.4036 42.7865 47.9844 43.2422C47.6016 43.6615 47.2096 43.8711 46.8086 43.8711C46.4258 43.8711 45.888 43.6159 45.1953 43.1055C44.5026 42.6133 43.8737 42.0573 43.3086 41.4375C42.7617 40.8177 42.4883 40.3438 42.4883 40.0156C42.4883 39.9062 42.543 39.8516 42.6523 39.8516C42.8529 39.8516 43.1628 39.9974 43.582 40.2891C44.3294 40.7995 44.9857 41.1823 45.5508 41.4375C46.1341 41.6927 46.4714 41.8203 46.5625 41.8203C46.7995 41.8203 46.9909 41.474 47.1367 40.7812C47.3008 40.0703 47.3828 39.2682 47.3828 38.375C47.3828 37.4818 47.3008 36.5885 47.1367 35.6953C45.1497 37.1354 43.3177 38.2656 41.6406 39.0859C39.9635 39.9062 38.6055 40.4714 37.5664 40.7812C36.5456 41.0911 35.9076 41.2461 35.6523 41.2461C35.3971 41.2461 35.2695 41.1823 35.2695 41.0547C35.2695 40.8177 35.5885 40.5443 36.2266 40.2344C38.1406 39.3411 39.8997 38.4297 41.5039 37.5C43.1081 36.5521 44.849 35.3398 46.7266 33.8633C46.6901 33.7174 46.6263 33.5443 46.5352 33.3438L46.125 32.2227ZM35.707 27.1914C35.707 27.1003 35.7344 27.0182 35.7891 26.9453C36.6823 25.4505 37.4023 23.6458 37.9492 21.5312C38.0586 21.1667 38.2773 20.9844 38.6055 20.9844C38.8242 20.9844 39.0521 21.0482 39.2891 21.1758C39.5443 21.2852 39.6719 21.4492 39.6719 21.668C39.6719 21.9049 39.599 22.2422 39.4531 22.6797L46.6172 22.2695L46.4805 22.1055C46.0612 21.5404 45.3411 20.8112 44.3203 19.918C44.2292 19.8451 44.1562 19.7721 44.1016 19.6992C44.0469 19.6081 44.0378 19.5169 44.0742 19.4258C44.1107 19.2435 44.2383 19.0612 44.457 18.8789C44.694 18.6966 44.8763 18.6237 45.0039 18.6602C45.1315 18.6784 45.4232 18.8698 45.8789 19.2344C46.3346 19.599 46.9453 20.1641 47.7109 20.9297C47.9844 21.1484 48.0938 21.3763 48.0391 21.6133C48.0026 21.7591 47.875 21.9596 47.6562 22.2148L56.4609 21.6953L56.7891 21.668C57.026 21.668 57.2904 21.7865 57.582 22.0234C57.8737 22.2422 58.0195 22.4701 58.0195 22.707C58.0195 22.8529 57.9375 22.9987 57.7734 23.1445C57.6276 23.2721 57.5273 23.3815 57.4727 23.4727C56.6341 24.7305 55.8867 25.6784 55.2305 26.3164C54.5924 26.9362 54.1276 27.2461 53.8359 27.2461C53.7266 27.2461 53.6719 27.1914 53.6719 27.082C53.6719 26.8815 53.7995 26.5898 54.0547 26.207C54.5833 25.4232 55.1029 24.4479 55.6133 23.2812L38.9883 24.1836C38.569 25.4232 38.0768 26.5898 37.5117 27.6836C37.4206 27.8294 37.3385 27.9479 37.2656 28.0391C37.1927 28.112 37.0924 28.1484 36.9648 28.1484C36.7279 28.1484 36.4544 28.0208 36.1445 27.7656C35.8529 27.5104 35.707 27.319 35.707 27.1914Z" fill="#333333"/>
<path d="M110.027 26.5352C109.754 26.5352 109.553 26.3893 109.426 26.0977L109.18 25.5508C108.469 25.7331 107.895 25.8698 107.457 25.9609L105.68 26.3984C105.315 26.4896 105.087 26.5352 104.996 26.5352C104.887 26.5352 104.796 26.5169 104.723 26.4805C104.668 26.4258 104.622 26.3802 104.586 26.3438C104.549 26.2891 104.522 26.2435 104.504 26.207C104.358 25.9518 104.294 25.7786 104.312 25.6875L104.504 25.3867C104.978 24.7305 105.415 23.7917 105.816 22.5703L105.27 22.6523L104.559 22.7344C104.504 22.7526 104.385 22.7891 104.203 22.8438C104.039 22.8802 103.911 22.8711 103.82 22.8164C103.62 22.6888 103.355 22.4609 103.027 22.1328C102.954 22.0599 102.918 22.0052 102.918 21.9688C102.918 21.8594 103.118 21.8047 103.52 21.8047H104.449C105.069 21.7682 105.634 21.7227 106.145 21.668C106.254 21.3945 106.372 21.0482 106.5 20.6289C106.628 20.2096 106.719 19.8724 106.773 19.6172C106.773 19.5625 106.773 19.4531 106.773 19.2891C106.792 19.125 106.828 19.0247 106.883 18.9883H106.91C106.983 18.9883 107.083 19.0247 107.211 19.0977C107.339 19.1706 107.457 19.2617 107.566 19.3711C107.913 19.7174 108.013 19.9909 107.867 20.1914C107.794 20.2096 107.639 20.5104 107.402 21.0938C107.384 21.1302 107.32 21.2943 107.211 21.5859C107.357 21.5677 107.885 21.5039 108.797 21.3945C109.216 21.3581 109.535 21.3125 109.754 21.2578C110.064 21.1667 110.31 21.1211 110.492 21.1211C110.638 21.1211 110.757 21.1758 110.848 21.2852C110.939 21.3763 111.003 21.4401 111.039 21.4766C111.094 21.5312 111.158 21.6406 111.23 21.8047C111.303 21.9323 111.331 22.0234 111.312 22.0781C111.24 22.1875 111.112 22.2422 110.93 22.2422C110.328 22.2057 109.608 22.224 108.77 22.2969C108.405 22.3333 108.132 22.3698 107.949 22.4062L106.883 22.5156L106.637 23.2539L106.336 23.9102C106.245 24.1289 106.145 24.3477 106.035 24.5664C105.926 24.7852 105.844 24.9674 105.789 25.1133C105.771 25.1497 105.762 25.2044 105.762 25.2773C105.762 25.3685 105.816 25.4141 105.926 25.4141C106.072 25.4141 106.573 25.332 107.43 25.168L108.441 25.0039L108.906 24.8945C108.742 24.4388 108.615 24.1471 108.523 24.0195C108.432 23.8919 108.378 23.8099 108.359 23.7734L108.523 23.6094C109.234 24.0651 109.809 24.5299 110.246 25.0039C110.374 25.168 110.456 25.3229 110.492 25.4688C110.547 25.6146 110.565 25.7786 110.547 25.9609C110.51 26.125 110.447 26.2526 110.355 26.3438C110.319 26.4349 110.21 26.4987 110.027 26.5352ZM104.285 31.7852C104.085 31.7852 103.839 31.6302 103.547 31.3203C103.328 31.1016 103.219 30.9375 103.219 30.8281C103.219 30.7734 103.255 30.7461 103.328 30.7461C103.401 30.7279 103.492 30.7188 103.602 30.7188L104.203 30.6914C104.549 30.6914 104.777 30.6823 104.887 30.6641C105.233 30.6641 105.525 30.6549 105.762 30.6367C107.329 30.4909 108.387 30.3724 108.934 30.2812C109.207 30.2448 109.453 30.2083 109.672 30.1719C109.891 30.1172 110.064 30.0898 110.191 30.0898C110.447 30.0898 110.702 30.2174 110.957 30.4727C111.158 30.6732 111.258 30.8372 111.258 30.9648C111.258 31.0742 111.194 31.1471 111.066 31.1836C110.975 31.2018 110.438 31.2383 109.453 31.293C108.906 31.3112 108.232 31.3568 107.43 31.4297C106.628 31.5026 105.926 31.5755 105.324 31.6484C105.215 31.6667 105.06 31.694 104.859 31.7305C104.659 31.7669 104.467 31.7852 104.285 31.7852ZM104.121 42.6953C103.848 42.6953 103.638 42.6224 103.492 42.4766C103.328 42.3125 103.246 42.1667 103.246 42.0391C103.246 41.9115 103.319 41.7747 103.465 41.6289C103.483 41.6107 103.583 41.4648 103.766 41.1914C104.167 40.5534 104.622 39.7422 105.133 38.7578C105.661 37.7552 105.99 37.0716 106.117 36.707C106.227 36.3607 106.327 36.0599 106.418 35.8047C106.527 35.5495 106.618 35.4219 106.691 35.4219C106.819 35.4219 106.928 35.4674 107.02 35.5586C107.111 35.6315 107.202 35.7409 107.293 35.8867C107.402 36.0143 107.484 36.1055 107.539 36.1602C107.667 36.306 107.73 36.4427 107.73 36.5703C107.73 36.6615 107.694 36.7526 107.621 36.8438C107.548 36.9349 107.503 36.9987 107.484 37.0352L106.281 39.0586C105.971 39.6237 105.561 40.3255 105.051 41.1641C104.978 41.2552 104.941 41.3464 104.941 41.4375C104.941 41.5104 105.023 41.5469 105.188 41.5469C105.534 41.5469 106.181 41.5013 107.129 41.4102C108.077 41.3372 108.715 41.2734 109.043 41.2188C109.517 41.1641 109.845 41.1094 110.027 41.0547C110.228 41 110.52 41.1367 110.902 41.4648C111.358 41.8477 111.458 42.0938 111.203 42.2031C111.057 42.276 110.775 42.3125 110.355 42.3125H109.262C109.025 42.3125 108.651 42.3307 108.141 42.3672C107.831 42.3672 107.484 42.3763 107.102 42.3945C106.719 42.4128 106.4 42.431 106.145 42.4492C105.853 42.4674 105.288 42.5221 104.449 42.6133L104.121 42.6953ZM115.742 30.6367C115.961 30.6367 116.07 30.737 116.07 30.9375C116.07 31.0469 115.97 31.2018 115.77 31.4023C115.223 32.0768 114.138 33.362 112.516 35.2578C112.388 35.4219 112.27 35.5039 112.16 35.5039C112.069 35.5039 111.868 35.3672 111.559 35.0938C111.303 34.875 111.176 34.6927 111.176 34.5469C111.176 34.3828 111.312 34.2279 111.586 34.082C112.005 33.8451 112.634 33.3711 113.473 32.6602C114.311 31.9128 114.931 31.3203 115.332 30.8828C115.496 30.7188 115.633 30.6367 115.742 30.6367ZM84.543 33.8359C84.4154 33.8542 84.2604 33.8906 84.0781 33.9453C83.8958 34 83.7591 34.0273 83.668 34.0273C83.4674 34.0273 83.2396 33.918 82.9844 33.6992C82.7474 33.4622 82.6289 33.2526 82.6289 33.0703C82.6289 32.9245 82.6927 32.7604 82.8203 32.5781C83.7318 31.2656 84.6523 29.8073 85.582 28.2031L83.9414 28.4492C83.6133 28.5039 83.3854 28.5312 83.2578 28.5312C82.9297 28.5312 82.6471 28.3945 82.4102 28.1211C82.1732 27.8294 82.0182 27.5378 81.9453 27.2461C81.9271 27.2096 81.918 27.1641 81.918 27.1094C81.918 27.0365 81.9818 27 82.1094 27H82.2188C82.3646 27 82.5195 27.0182 82.6836 27.0547C82.8477 27.0729 82.9753 27.082 83.0664 27.082C83.194 27.082 83.4401 27.0638 83.8047 27.0273L86.2656 26.6992C86.3568 26.681 86.4753 26.6719 86.6211 26.6719C86.8581 26.6719 87.0586 26.7357 87.2227 26.8633C87.3867 26.9909 87.5052 27.1276 87.5781 27.2734C87.651 27.4193 87.6875 27.5195 87.6875 27.5742C87.6875 27.7201 87.6237 27.875 87.4961 28.0391C87.3685 28.1849 87.2773 28.2943 87.2227 28.3672C86.4753 29.7161 85.6458 31.0651 84.7344 32.4141L86.5391 32.2227H86.7852C87.0768 32.2227 87.3503 32.332 87.6055 32.5508C87.8789 32.7695 88.0156 32.9974 88.0156 33.2344C88.0156 33.3255 87.9792 33.4349 87.9062 33.5625C87.8333 33.6719 87.7878 33.763 87.7695 33.8359C87.3138 35.1484 86.8672 36.2422 86.4297 37.1172C86.6667 37.1719 87.0312 37.2995 87.5234 37.5C90.2214 38.5391 92.6094 39.3776 94.6875 40.0156C96.7656 40.6536 98.8255 41.1003 100.867 41.3555C101.214 41.4102 101.387 41.5104 101.387 41.6562C101.387 41.7292 101.341 41.8385 101.25 41.9844C100.94 42.3854 100.694 42.6589 100.512 42.8047C100.348 42.9505 100.184 43.0234 100.02 43.0234C99.7461 43.0234 98.9714 42.8594 97.6953 42.5312C96.4193 42.2214 94.8424 41.7474 92.9648 41.1094C91.1055 40.4896 89.1641 39.7422 87.1406 38.8672C86.6667 38.6484 86.2018 38.4661 85.7461 38.3203C85.1445 39.2682 84.4336 40.1068 83.6133 40.8359C82.8112 41.5469 82.0638 42.1029 81.3711 42.5039C80.6784 42.9232 80.2591 43.1328 80.1133 43.1328C80.0039 43.1328 79.9492 43.0872 79.9492 42.9961C79.9492 42.7956 80.1589 42.5039 80.5781 42.1211C81.362 41.4102 82.0365 40.7448 82.6016 40.125C83.1667 39.5052 83.6953 38.8034 84.1875 38.0195C83.5677 38.0195 82.793 38.1107 81.8633 38.293C81.7904 38.3112 81.681 38.3203 81.5352 38.3203C81.0977 38.3203 80.8789 38.0104 80.8789 37.3906C80.8789 37.1354 81.0612 36.9531 81.4258 36.8438C81.7904 36.7161 82.5651 36.6523 83.75 36.6523C84.1328 36.6523 84.5156 36.6797 84.8984 36.7344C85.3542 35.7865 85.7279 34.7656 86.0195 33.6719L84.543 33.8359ZM76.0391 42.75C76.0391 42.6042 76.1211 42.3763 76.2852 42.0664C77.707 39.4596 78.6549 36.7982 79.1289 34.082C79.6029 31.3477 79.8398 28.513 79.8398 25.5781V24.8125C79.8398 24.0833 79.7305 23.3268 79.5117 22.543C79.4753 22.3971 79.457 22.306 79.457 22.2695C79.457 22.1419 79.5208 22.0781 79.6484 22.0781C79.9036 22.0781 80.5781 22.3516 81.6719 22.8984L90.4219 22.3789C90.349 22.3424 90.1758 22.1875 89.9023 21.9141C89.5742 21.5677 89.237 21.2578 88.8906 20.9844C88.5625 20.7109 88.2435 20.474 87.9336 20.2734C87.6419 20.0547 87.4414 19.9089 87.332 19.8359C87.0951 19.6536 86.9766 19.4896 86.9766 19.3438C86.9766 19.1797 87.0586 19.0065 87.2227 18.8242C87.4049 18.6237 87.5781 18.5234 87.7422 18.5234C87.888 18.5234 88.2708 18.7331 88.8906 19.1523C89.5286 19.5534 90.1211 19.9818 90.668 20.4375C91.2148 20.8932 91.4883 21.2122 91.4883 21.3945C91.4883 21.5039 91.4154 21.668 91.2695 21.8867C91.1237 22.1055 90.9688 22.2604 90.8047 22.3516L96.0547 22.0234C96.5469 21.987 96.9935 21.8776 97.3945 21.6953C97.431 21.6771 97.4857 21.668 97.5586 21.668C97.7773 21.668 98.069 21.832 98.4336 22.1602C98.8164 22.4701 99.0078 22.7253 99.0078 22.9258C99.0078 23.181 98.7982 23.3268 98.3789 23.3633L81.6445 24.375C81.6263 26.9818 81.5169 29.2878 81.3164 31.293C81.1341 33.2982 80.6966 35.3125 80.0039 37.3359C79.3112 39.3594 78.263 41.0729 76.8594 42.4766L76.7227 42.6133C76.5039 42.832 76.3307 42.9414 76.2031 42.9414C76.0938 42.9414 76.0391 42.8776 76.0391 42.75ZM88.3984 36.1055C88.3984 35.9961 88.4805 35.9414 88.6445 35.9414C88.7357 35.9414 88.8086 35.9505 88.8633 35.9688C89.1367 36.0234 89.401 36.0508 89.6562 36.0508H89.9297L93.0195 35.9141L93.0469 32.332L90.7773 32.4688L90.2578 32.4961C89.9661 32.4961 89.7201 32.4049 89.5195 32.2227C89.3372 32.0221 89.1914 31.8034 89.082 31.5664C88.9909 31.3294 88.9453 31.1745 88.9453 31.1016C88.9453 31.0286 89 30.9922 89.1094 30.9922L89.3008 31.0195C89.6654 31.056 89.9388 31.0742 90.1211 31.0742H90.3945L93.0469 30.9102L93.0742 27.8477C91.6888 28.1576 90.5859 28.349 89.7656 28.4219L89.4102 28.4492C88.9362 28.4492 88.6992 28.3581 88.6992 28.1758C88.6992 28.0846 88.7721 27.9935 88.918 27.9023C89.0638 27.8112 89.2734 27.7292 89.5469 27.6562C90.7135 27.3646 91.8529 27.0273 92.9648 26.6445C94.0951 26.2435 94.9792 25.8516 95.6172 25.4688C95.8359 25.3411 96.0729 25.0768 96.3281 24.6758C96.3828 24.5846 96.4466 24.5391 96.5195 24.5391C96.7018 24.5391 96.9206 24.7578 97.1758 25.1953C97.4492 25.6328 97.5859 25.9518 97.5859 26.1523C97.5859 26.4076 97.4674 26.5716 97.2305 26.6445C96.1732 26.9909 95.5352 27.2005 95.3164 27.2734L94.7422 27.4375L94.6875 30.8008L96.5469 30.6367C96.9115 30.6003 97.2305 30.5365 97.5039 30.4453C97.6497 30.4089 97.75 30.3906 97.8047 30.3906C98.0052 30.3906 98.2604 30.5273 98.5703 30.8008C98.8984 31.0742 99.0625 31.3203 99.0625 31.5391C99.0625 31.776 98.8346 31.9128 98.3789 31.9492L94.6875 32.2227L94.6328 35.832L97.7773 35.6953C98.0872 35.6771 98.3789 35.6224 98.6523 35.5312C98.707 35.513 98.7799 35.5039 98.8711 35.5039C99.0898 35.5039 99.3359 35.6589 99.6094 35.9688C99.901 36.2604 100.047 36.5065 100.047 36.707C100.047 36.8893 99.8372 36.9987 99.418 37.0352L90.2031 37.4453H89.7656C89.401 37.4453 89.1276 37.3815 88.9453 37.2539C88.7812 37.1263 88.6081 36.7982 88.4258 36.2695C88.4076 36.2331 88.3984 36.1784 88.3984 36.1055Z" fill="#333333"/>
</svg>
