<svg width="150" height="60" viewBox="0 0 150 60" fill="none" xmlns="http://www.w3.org/2000/svg">
<path d="M61.5195 27.3282C61.3919 27.3282 61.3099 27.3191 61.2734 27.3008C61.2552 27.2644 61.2826 27.2006 61.3555 27.1094C61.6107 26.8725 61.8112 26.6446 61.957 26.4258C62.1211 26.1889 62.2943 25.8152 62.4766 25.3047C62.7682 24.4662 62.9141 23.8191 62.9141 23.3633C62.9141 22.9441 62.8867 22.5613 62.832 22.2149V22.1329C62.832 21.9323 62.9596 21.8685 63.2148 21.9415C63.4336 21.9962 63.6797 22.0691 63.9531 22.1602C64.0078 22.142 64.0898 22.1329 64.1992 22.1329C64.3086 22.1146 64.4818 22.0873 64.7188 22.0508C65.3385 21.9597 66.1406 21.8685 67.125 21.7774C67.125 21.7045 67.1979 21.4493 67.3438 21.0118L67.5078 20.4102C67.5807 20.155 67.5534 20.0274 67.4258 20.0274C67.0612 20.0274 66.2135 20.1185 64.8828 20.3008L63.4336 20.5469C63.306 20.5652 63.1419 20.5105 62.9414 20.3829C62.7591 20.2553 62.6133 20.1094 62.5039 19.9454C62.4128 19.7813 62.431 19.6719 62.5586 19.6172C62.7044 19.5261 62.8503 19.4805 62.9961 19.4805C63.1419 19.4805 63.2331 19.4805 63.2695 19.4805H63.625L65.4297 19.4258L67.1797 19.2071C67.2708 19.1889 67.3802 19.1615 67.5078 19.1251C67.6536 19.0704 67.7904 19.0339 67.918 19.0157C68.1003 18.9792 68.4102 19.1797 68.8477 19.6172C68.9206 19.6902 68.957 19.7722 68.957 19.8633C68.957 19.9727 68.8841 20.0821 68.7383 20.1915C68.5378 20.392 68.4102 20.5652 68.3555 20.711C68.3372 20.8021 68.3008 20.9389 68.2461 21.1212C68.1914 21.2852 68.1367 21.4948 68.082 21.7501C68.1914 21.8777 68.2461 22.0326 68.2461 22.2149C68.2461 22.3607 68.2005 22.4701 68.1094 22.543C68.0365 22.5977 67.8815 22.6251 67.6445 22.6251C66.8242 22.6797 66.1771 22.7344 65.7031 22.7891C65.2292 22.8256 64.6549 22.9167 63.9805 23.0626C63.9076 23.8829 63.7435 24.6394 63.4883 25.3321C63.2331 26.0066 62.8776 26.517 62.4219 26.8633C61.9844 27.1732 61.6836 27.3282 61.5195 27.3282ZM68.1641 34.5196C67.8906 34.5196 67.6263 34.3191 67.3711 33.918C67.043 33.4076 66.724 32.9883 66.4141 32.6602L65.7031 31.9219C65.3203 32.3594 64.9831 32.7058 64.6914 32.961C64.418 33.2162 64.0716 33.4623 63.6523 33.6993C62.8685 34.155 62.2122 34.3829 61.6836 34.3829C61.556 34.3829 61.4922 34.3373 61.4922 34.2462C61.4922 34.1915 61.6654 34.073 62.0117 33.8907C62.3581 33.7084 62.6862 33.4896 62.9961 33.2344C63.7799 32.5782 64.4271 31.9037 64.9375 31.211C64.8281 31.1016 64.2812 30.6277 63.2969 29.7891C63.1693 29.698 62.9779 29.543 62.7227 29.3243C62.668 29.2878 62.5586 29.2058 62.3945 29.0782C62.2305 28.9506 62.1484 28.8594 62.1484 28.8047C62.1484 28.7136 62.194 28.668 62.2852 28.668C62.5586 28.668 62.9961 28.8594 63.5977 29.2422C64.1992 29.6068 64.8281 30.0443 65.4844 30.5547C65.7396 30.2448 65.9401 29.9532 66.0859 29.6797C66.2318 29.4063 66.3958 29.0691 66.5781 28.668C66.6693 28.4675 66.724 28.2943 66.7422 28.1485C66.7604 27.9844 66.7695 27.8842 66.7695 27.8477C66.7695 27.6472 66.8242 27.5469 66.9336 27.5469C67.0612 27.5469 67.2344 27.6472 67.4531 27.8477C67.8359 28.2123 68.0273 28.4584 68.0273 28.586C68.0273 28.6589 67.9818 28.7409 67.8906 28.8321C67.6719 29.0508 67.4714 29.3425 67.2891 29.7071C67.1797 29.9258 66.9792 30.2357 66.6875 30.6368C66.5964 30.7462 66.5234 30.8464 66.4688 30.9376C66.4141 31.0287 66.3594 31.1107 66.3047 31.1837C66.724 31.4935 67.3438 32.0222 68.1641 32.7696C68.3646 32.9519 68.4922 33.1251 68.5469 33.2891C68.6198 33.435 68.6562 33.6355 68.6562 33.8907C68.6562 34.073 68.6107 34.2279 68.5195 34.3555C68.4284 34.4649 68.3099 34.5196 68.1641 34.5196ZM67.5078 42.8047C67.4349 42.8047 67.3529 42.7683 67.2617 42.6954C67.1706 42.6407 67.0521 42.5495 66.9062 42.4219C66.2682 41.9297 65.6484 41.1915 65.0469 40.2071C64.4453 39.2227 64.0169 38.1563 63.7617 37.0079C63.7435 36.8985 63.7161 36.7709 63.6797 36.6251C63.6432 36.4792 63.6068 36.3698 63.5703 36.2969C63.5703 36.2787 63.543 36.2696 63.4883 36.2696C63.3607 36.2696 63.1146 36.3516 62.75 36.5157C62.6406 36.5704 62.5312 36.6524 62.4219 36.7618C62.3307 36.8529 62.2305 36.8894 62.1211 36.8712C62.0482 36.8712 61.9479 36.8256 61.8203 36.7344C61.6927 36.6433 61.6016 36.5613 61.5469 36.4883C61.3646 36.2331 61.2734 36.0782 61.2734 36.0235C61.2734 35.9141 61.3737 35.8503 61.5742 35.8321C61.8477 35.8321 62.0208 35.823 62.0938 35.8047C62.6224 35.7318 63.1237 35.6133 63.5977 35.4493C63.6706 35.431 63.7708 35.3764 63.8984 35.2852C63.9167 35.2852 63.944 35.2761 63.9805 35.2579C64.0352 35.2396 64.099 35.2579 64.1719 35.3126C64.4453 35.4948 64.582 35.6316 64.582 35.7227C64.582 36.9988 64.9466 38.1928 65.6758 39.3047C66.4049 40.4167 67.4714 41.3555 68.875 42.1212C68.9479 42.1576 69.0391 42.1941 69.1484 42.2305C69.2578 42.267 69.3125 42.3217 69.3125 42.3946C69.3125 42.4857 69.0117 42.5678 68.4102 42.6407L67.7266 42.7501L67.5078 42.8047ZM73.8516 32.4415C73.9062 32.4415 73.9609 32.4688 74.0156 32.5235C74.0703 32.56 74.1068 32.6146 74.125 32.6876V32.7422C74.125 32.8698 74.0247 33.1159 73.8242 33.4805L71.8555 36.8985C71.7096 37.2084 71.5182 37.3633 71.2812 37.3633C71.0443 37.3633 70.8438 37.2175 70.6797 36.9258C70.5156 36.6889 70.3151 36.3334 70.0781 35.8594C69.9688 35.6954 69.8776 35.5313 69.8047 35.3672C69.7318 35.2032 69.6771 35.0847 69.6406 35.0118C69.4401 34.6654 69.3398 34.4193 69.3398 34.2735C69.3398 34.2006 69.3672 34.1459 69.4219 34.1094C69.4766 34.0547 69.5312 34.0274 69.5859 34.0274C69.7865 34.0274 69.9688 34.1368 70.1328 34.3555C70.2604 34.4831 70.3607 34.6198 70.4336 34.7657L70.7344 35.1758L71.2812 35.8047L71.5273 35.4219C71.7826 34.9844 72.3841 34.1185 73.332 32.8243C73.5326 32.5691 73.7057 32.4415 73.8516 32.4415ZM46.043 21.0118C46.043 20.5743 45.8789 20.1094 45.5508 19.6172C45.4779 19.5261 45.4414 19.4258 45.4414 19.3165C45.4414 19.1889 45.5508 19.1251 45.7695 19.1251C46.1523 19.1251 46.6081 19.2344 47.1367 19.4532C47.6836 19.6719 47.957 19.9271 47.957 20.2188L47.9297 26.1251C48.5495 27.0912 49.1602 27.9935 49.7617 28.8321C51.0013 27.9206 52.1133 26.9545 53.0977 25.9337C54.082 24.8946 54.6198 24.0834 54.7109 23.5001C54.7292 23.2448 54.8294 23.1172 55.0117 23.1172C55.2487 23.1172 55.5495 23.336 55.9141 23.7735C56.2969 24.1928 56.4883 24.53 56.4883 24.7852C56.4883 25.0404 55.7865 25.7969 54.3828 27.0547C52.9974 28.3126 51.7578 29.3334 50.6641 30.1172C53.3438 33.7448 56.3333 36.5066 59.6328 38.4024C59.9427 38.5482 60.0977 38.6941 60.0977 38.8399C60.0977 39.004 59.8698 39.2409 59.4141 39.5508C58.9766 39.8607 58.6484 40.0157 58.4297 40.0157C58.3203 40.0157 58.1927 39.9701 58.0469 39.879C54.1094 36.9988 50.737 33.3803 47.9297 29.0235L47.9023 40.6719L47.9297 41.711C47.9297 41.9662 47.8932 42.185 47.8203 42.3672C47.7474 42.5678 47.6107 42.7501 47.4102 42.9141C47.1549 43.1146 46.8906 43.2149 46.6172 43.2149C46.2161 43.2149 45.5234 42.9506 44.5391 42.4219C43.5729 41.9115 42.6797 41.3464 41.8594 40.7266C41.0391 40.1068 40.6289 39.6784 40.6289 39.4415C40.6289 39.2774 40.7292 39.1954 40.9297 39.1954C41.0938 39.1954 41.2669 39.2409 41.4492 39.3321C43.1081 40.0977 44.6393 40.6172 46.043 40.8907V21.0118ZM34.2578 39.9883C34.2578 39.7878 34.3763 39.5782 34.6133 39.3594C36.4544 37.573 37.9857 35.7318 39.207 33.836C40.4284 31.9219 41.3398 29.8985 41.9414 27.7657L37.8672 28.0391C37.4297 28.0756 37.1471 28.0938 37.0195 28.0938C36.7643 28.0938 36.5182 28.0118 36.2812 27.8477C36.0443 27.6837 35.7891 27.3191 35.5156 26.754C35.4609 26.6446 35.4336 26.5626 35.4336 26.5079C35.4336 26.4167 35.5065 26.3712 35.6523 26.3712L35.8711 26.3985C36.2539 26.4532 36.6094 26.4805 36.9375 26.4805H37.293L42.625 26.0977H42.9531C43.2812 26.0977 43.582 26.2071 43.8555 26.4258C44.1471 26.6264 44.293 26.8542 44.293 27.1094C44.293 27.2917 44.2383 27.4558 44.1289 27.6016C44.0195 27.7292 43.9557 27.8113 43.9375 27.8477C43.099 30.4727 41.9596 32.7878 40.5195 34.793C39.0794 36.7982 37.2839 38.5391 35.1328 40.0157C34.8958 40.1797 34.7044 40.2618 34.5586 40.2618C34.3581 40.2618 34.2578 40.1706 34.2578 39.9883Z" fill="#333333"/>
<path d="M103.52 30.6094C103.392 30.6094 103.31 30.6003 103.273 30.5821C103.255 30.5456 103.283 30.4818 103.355 30.3907C103.611 30.1537 103.811 29.9258 103.957 29.7071C104.121 29.4701 104.294 29.0964 104.477 28.586C104.768 27.7475 104.914 27.1003 104.914 26.6446C104.914 26.2253 104.887 25.8425 104.832 25.4962V25.4141C104.832 25.2136 104.96 25.1498 105.215 25.2227C105.434 25.2774 105.68 25.3503 105.953 25.4415C106.008 25.4232 106.09 25.4141 106.199 25.4141C106.309 25.3959 106.482 25.3685 106.719 25.3321C107.339 25.2409 108.141 25.1498 109.125 25.0587C109.125 24.9857 109.198 24.7305 109.344 24.293L109.508 23.6915C109.581 23.4363 109.553 23.3087 109.426 23.3087C109.061 23.3087 108.214 23.3998 106.883 23.5821L105.434 23.8282C105.306 23.8464 105.142 23.7917 104.941 23.6641C104.759 23.5365 104.613 23.3907 104.504 23.2266C104.413 23.0626 104.431 22.9532 104.559 22.8985C104.704 22.8073 104.85 22.7618 104.996 22.7618C105.142 22.7618 105.233 22.7618 105.27 22.7618H105.625L107.43 22.7071L109.18 22.4883C109.271 22.4701 109.38 22.4428 109.508 22.4063C109.654 22.3516 109.79 22.3152 109.918 22.2969C110.1 22.2605 110.41 22.461 110.848 22.8985C110.921 22.9714 110.957 23.0534 110.957 23.1446C110.957 23.254 110.884 23.3633 110.738 23.4727C110.538 23.6732 110.41 23.8464 110.355 23.9922C110.337 24.0834 110.301 24.2201 110.246 24.4024C110.191 24.5665 110.137 24.7761 110.082 25.0313C110.191 25.1589 110.246 25.3139 110.246 25.4962C110.246 25.642 110.201 25.7514 110.109 25.8243C110.036 25.879 109.882 25.9063 109.645 25.9063C108.824 25.961 108.177 26.0157 107.703 26.0704C107.229 26.1068 106.655 26.198 105.98 26.3438C105.908 27.1641 105.743 27.9206 105.488 28.6133C105.233 29.2878 104.878 29.7982 104.422 30.1446C103.984 30.4545 103.684 30.6094 103.52 30.6094ZM110.492 39.1133C110.747 39.2774 110.875 39.4323 110.875 39.5782C110.875 39.7787 110.72 39.9063 110.41 39.961C110.1 40.0157 109.663 40.0521 109.098 40.0704C108.277 40.0886 107.749 40.0613 107.512 39.9883C107.111 39.806 106.91 39.5053 106.91 39.086L106.938 38.0743C106.974 37.7462 106.992 37.4545 106.992 37.1993C107.01 37.0352 107.02 36.7162 107.02 36.2422C106.746 36.862 106.391 37.4636 105.953 38.0469C105.643 38.4297 105.37 38.7488 105.133 39.004C104.896 39.2409 104.613 39.4688 104.285 39.6876C103.957 39.9063 103.656 40.0157 103.383 40.0157C103.219 40.0157 103.137 39.961 103.137 39.8516C103.137 39.8334 103.31 39.6967 103.656 39.4415C104.021 39.168 104.385 38.7943 104.75 38.3204C105.297 37.5912 105.771 36.7344 106.172 35.7501C105.461 35.8412 104.987 35.9232 104.75 35.9962C104.659 36.0144 104.577 36.0417 104.504 36.0782C104.431 36.0964 104.34 36.0964 104.23 36.0782C104.139 36.0417 104.012 35.9688 103.848 35.8594C103.684 35.7318 103.556 35.6133 103.465 35.504C103.392 35.3946 103.355 35.3217 103.355 35.2852C103.355 35.1941 103.492 35.1485 103.766 35.1485C104.44 35.1485 105.306 35.0756 106.363 34.9297C106.473 34.5105 106.527 33.836 106.527 32.9063V32.3868C106.527 32.168 106.573 32.0495 106.664 32.0313C106.682 32.0131 106.719 32.004 106.773 32.004C106.919 32.004 107.12 32.1133 107.375 32.3321C107.576 32.4962 107.703 32.6238 107.758 32.7149C107.831 32.7878 107.84 32.8881 107.785 33.0157C107.767 33.0521 107.73 33.1251 107.676 33.2344C107.621 33.3438 107.585 33.4532 107.566 33.5626C107.548 33.6537 107.512 33.836 107.457 34.1094C107.402 34.3646 107.366 34.5925 107.348 34.793C107.603 34.7748 107.922 34.7383 108.305 34.6837C108.688 34.629 108.97 34.5743 109.152 34.5196L109.699 34.3829C109.882 34.3464 110.182 34.5014 110.602 34.8477C110.674 34.9024 110.711 34.9662 110.711 35.0391C110.711 35.112 110.674 35.1758 110.602 35.2305C110.547 35.267 110.474 35.2852 110.383 35.2852C110.055 35.2852 109.453 35.3399 108.578 35.4493L107.676 35.5313C107.876 35.6771 108.004 35.8047 108.059 35.9141C108.113 36.0235 108.122 36.1329 108.086 36.2422L108.004 36.6797C107.967 37.0443 107.931 37.4454 107.895 37.8829C107.876 38.3204 107.876 38.6576 107.895 38.8946C107.895 38.9857 107.949 39.0678 108.059 39.1407C108.186 39.2136 108.314 39.2501 108.441 39.2501C108.897 39.2501 109.408 39.2045 109.973 39.1133L110.219 39.0587C110.328 39.0587 110.419 39.0769 110.492 39.1133ZM112.242 29.8165C112.333 29.8165 112.47 29.8803 112.652 30.0079C112.634 30.0443 112.671 30.1172 112.762 30.2266C112.853 30.3178 112.917 30.3816 112.953 30.418C113.044 30.5092 113.135 30.6185 113.227 30.7462C113.336 30.8738 113.454 31.0105 113.582 31.1563C113.91 31.5027 114.667 32.405 115.852 33.8633C116.052 34.155 116.152 34.3282 116.152 34.3829C116.152 34.5652 116.043 34.6563 115.824 34.6563C115.697 34.6563 115.56 34.5652 115.414 34.3829C115.068 34.0183 114.448 33.4441 113.555 32.6602C112.862 32.0222 112.233 31.53 111.668 31.1837C111.395 31.056 111.258 30.9102 111.258 30.7462C111.258 30.6185 111.395 30.4363 111.668 30.1993C111.923 29.9441 112.115 29.8165 112.242 29.8165ZM78.1172 41.6837C77.6615 41.6837 77.3424 41.6016 77.1602 41.4376C76.8685 41.2006 76.6497 40.9363 76.5039 40.6446C76.3581 40.3529 76.2852 40.1342 76.2852 39.9883C76.2852 39.879 76.3398 39.8243 76.4492 39.8243C76.5221 39.8243 76.5859 39.8334 76.6406 39.8516C77.0417 39.9428 77.4427 39.9883 77.8438 39.9883L78.4453 39.961L86.9766 39.6602L86.8398 21.3672C86.8398 20.8386 86.7031 20.3738 86.4297 19.9727C86.3568 19.8451 86.3203 19.7448 86.3203 19.6719C86.3203 19.5443 86.4206 19.4805 86.6211 19.4805C86.7305 19.4805 86.9674 19.5261 87.332 19.6172C87.6966 19.7084 88.0247 19.836 88.3164 20.0001C88.6263 20.1641 88.7812 20.3555 88.7812 20.5743L88.8086 28.5313L93.7578 28.2579C94.3958 28.2214 94.888 28.1394 95.2344 28.0118C95.3438 27.9571 95.4622 27.9297 95.5898 27.9297C95.8268 27.9297 96.0729 28.0209 96.3281 28.2032C96.6016 28.3855 96.8294 28.5951 97.0117 28.8321C97.2122 29.0691 97.3125 29.2422 97.3125 29.3516C97.3125 29.5886 97.0846 29.7253 96.6289 29.7618L88.8086 30.2266L88.8633 39.5782L97.75 39.2501C98.2604 39.2136 98.7161 39.1407 99.1172 39.0313C99.263 38.9948 99.3633 38.9766 99.418 38.9766C99.582 38.9766 99.8008 39.0678 100.074 39.2501C100.348 39.4141 100.585 39.6146 100.785 39.8516C101.004 40.0886 101.113 40.2982 101.113 40.4805C101.113 40.7175 100.885 40.8542 100.43 40.8907L79.0195 41.6563L78.1172 41.6837Z" fill="#333333"/>
</svg>
