<svg width="150" height="60" viewBox="0 0 150 60" fill="none" xmlns="http://www.w3.org/2000/svg">
<path d="M65.6758 30.7461C65.3841 30.7461 65.2109 30.6003 65.1562 30.3086C65.0469 29.9987 64.7552 29.6159 64.2812 29.1602L64.3633 29.0508C64.4362 29.0872 64.6458 29.1784 64.9922 29.3242C65.3385 29.4518 65.5755 29.5156 65.7031 29.5156C65.8125 29.5156 65.8945 29.5156 65.9492 29.5156C66.0039 29.4974 66.0677 29.4518 66.1406 29.3789C66.3594 29.2148 66.6328 28.8411 66.9609 28.2578C67.1979 27.7839 67.4076 27.2279 67.5898 26.5898C67.7904 25.9518 67.8906 25.4688 67.8906 25.1406C67.8906 25.0495 67.8177 25.0039 67.6719 25.0039L66.6328 25.0586L65.9219 25.1133L65.457 25.1406L65.2656 25.168C65.3932 25.2591 65.4753 25.3411 65.5117 25.4141C65.5664 25.4688 65.5938 25.5417 65.5938 25.6328C65.5938 25.724 65.4844 25.9792 65.2656 26.3984C65.0833 26.7995 64.7917 27.2552 64.3906 27.7656C64.0625 28.2031 63.6159 28.6771 63.0508 29.1875C62.5039 29.6797 62.0938 29.9349 61.8203 29.9531C61.7656 29.9531 61.7109 29.944 61.6562 29.9258C61.6198 29.8893 61.6016 29.8438 61.6016 29.7891C61.6016 29.7708 61.7474 29.5977 62.0391 29.2695L62.8047 28.3672C63.3516 27.638 63.9076 26.7083 64.4727 25.5781C64.5273 25.4323 64.5 25.3503 64.3906 25.332C64.2812 25.3503 64.0534 25.3776 63.707 25.4141C63.3607 25.4323 63.0508 25.487 62.7773 25.5781C62.7591 25.5781 62.6953 25.6055 62.5859 25.6602C62.4766 25.6966 62.3854 25.7148 62.3125 25.7148C62.2031 25.7148 62.112 25.6784 62.0391 25.6055L61.8203 25.4141C61.6562 25.2865 61.5742 25.168 61.5742 25.0586C61.5742 25.0221 61.5924 24.9674 61.6289 24.8945L61.7656 24.6758C61.8385 24.5846 61.957 24.4388 62.1211 24.2383C62.2852 24.0378 62.4674 23.7643 62.668 23.418C62.7044 23.3451 62.7773 23.181 62.8867 22.9258C63.0143 22.6706 63.0781 22.5156 63.0781 22.4609V22.3516C63.0781 22.2422 63.0964 22.1693 63.1328 22.1328C63.1693 22.0964 63.2513 22.0964 63.3789 22.1328C63.5065 22.1693 63.6615 22.2695 63.8438 22.4336L64.1445 22.7344C64.1992 22.7891 64.2266 22.8529 64.2266 22.9258C64.2266 23.1081 63.9714 23.4362 63.4609 23.9102C63.3698 24.0013 63.2604 24.138 63.1328 24.3203C63.0052 24.5026 62.9414 24.6211 62.9414 24.6758C62.9414 24.7852 63.0234 24.8216 63.1875 24.7852L63.8164 24.7031C65.2565 24.4844 66.3411 24.3568 67.0703 24.3203L67.8086 24.2109L68.0547 24.1562L68.1914 24.1289C68.3372 24.1289 68.4375 24.1471 68.4922 24.1836C68.5469 24.2201 68.6016 24.2839 68.6562 24.375C68.7109 24.4479 68.7656 24.5117 68.8203 24.5664C68.9479 24.7122 69.0391 24.8398 69.0938 24.9492L69.1484 25.1953L69.0938 25.3047L69.0391 25.4688C69.0026 25.5599 68.9753 25.651 68.957 25.7422C68.9388 25.8151 68.9115 25.8971 68.875 25.9883C68.4922 27.4648 68.0456 28.6133 67.5352 29.4336C67.3711 29.7253 67.0885 30.0169 66.6875 30.3086C66.3047 30.6003 65.9674 30.7461 65.6758 30.7461ZM65.4023 40.207C65.2747 40.207 65.1836 40.1706 65.1289 40.0977C65.0742 40.0247 65.0378 39.9792 65.0195 39.9609C64.8372 39.7057 64.7552 39.4596 64.7734 39.2227C64.7917 39.0768 64.819 38.6849 64.8555 38.0469L64.8828 36.7344C64.8646 36.5339 64.8464 36.4154 64.8281 36.3789C64.8099 36.3242 64.7279 36.2148 64.582 36.0508C64.2904 35.6862 63.9531 35.3125 63.5703 34.9297C63.1328 34.4922 62.8503 34.2005 62.7227 34.0547C62.7227 34.0547 62.4492 33.7812 61.9023 33.2344C61.8477 33.1797 61.8203 33.125 61.8203 33.0703C61.8203 32.9792 61.875 32.9062 61.9844 32.8516C62.112 32.7786 62.2396 32.7513 62.3672 32.7695C62.7318 32.806 62.9688 32.8516 63.0781 32.9062C63.2057 32.9427 63.3242 33.0521 63.4336 33.2344C63.543 33.4167 63.6979 33.6354 63.8984 33.8906C64.1172 34.1276 64.2812 34.3099 64.3906 34.4375C64.8464 34.9844 65.1654 35.349 65.3477 35.5312C65.6758 35.1484 66.0859 34.6016 66.5781 33.8906C66.9792 33.3802 67.2161 32.9609 67.2891 32.6328C67.362 32.3958 67.4714 32.2773 67.6172 32.2773C67.6901 32.2773 67.7995 32.3229 67.9453 32.4141C68.4193 32.7057 68.6562 32.9427 68.6562 33.125C68.6562 33.2344 68.5378 33.3711 68.3008 33.5352C67.9727 33.7721 67.6992 34.0365 67.4805 34.3281L66.9336 35.0117C66.569 35.4492 66.2956 35.7956 66.1133 36.0508C66.0221 36.2148 65.9766 36.4518 65.9766 36.7617V38.4297V39.5234C65.9948 39.651 65.9219 39.7969 65.7578 39.9609C65.612 40.125 65.4935 40.207 65.4023 40.207ZM70.2422 29.8164C70.3333 29.8164 70.4701 29.8802 70.6523 30.0078C70.6341 30.0443 70.6706 30.1172 70.7617 30.2266C70.8529 30.3177 70.9167 30.3815 70.9531 30.418C71.0443 30.5091 71.1354 30.6185 71.2266 30.7461C71.3359 30.8737 71.4544 31.0104 71.582 31.1562C71.9102 31.5026 72.6667 32.4049 73.8516 33.8633C74.0521 34.1549 74.1523 34.3281 74.1523 34.3828C74.1523 34.5651 74.043 34.6562 73.8242 34.6562C73.6966 34.6562 73.5599 34.5651 73.4141 34.3828C73.0677 34.0182 72.4479 33.444 71.5547 32.6602C70.862 32.0221 70.2331 31.5299 69.668 31.1836C69.3945 31.056 69.2578 30.9102 69.2578 30.7461C69.2578 30.6185 69.3945 30.4362 69.668 30.1992C69.9232 29.944 70.1146 29.8164 70.2422 29.8164ZM47.4922 29.0508C48.7865 31.6758 50.418 34.0547 52.3867 36.1875C54.3555 38.3021 56.5339 39.9336 58.9219 41.082C59.1042 41.1732 59.2318 41.2461 59.3047 41.3008C59.3776 41.3737 59.4141 41.4466 59.4141 41.5195C59.4141 41.6654 59.1953 41.9206 58.7578 42.2852C58.3203 42.6497 57.9922 42.832 57.7734 42.832C57.5 42.832 56.6706 42.3398 55.2852 41.3555C53.918 40.3893 52.3867 38.9583 50.6914 37.0625C49.0143 35.1484 47.5195 32.8151 46.207 30.0625C45.4961 32.9974 44.2656 35.431 42.5156 37.3633C40.7839 39.2773 39.0703 40.6901 37.375 41.6016C35.6797 42.5312 34.6315 42.9961 34.2305 42.9961C34.0117 42.9961 33.9023 42.9232 33.9023 42.7773C33.9023 42.5768 34.1029 42.3581 34.5039 42.1211C39.8815 38.9128 43.1901 34.6107 44.4297 29.2148L38.3047 29.543L37.457 29.5703C37.0378 29.5703 36.7188 29.4609 36.5 29.2422C36.2812 29.0234 36.0625 28.6315 35.8438 28.0664C35.8255 28.0299 35.8164 27.9753 35.8164 27.9023C35.8164 27.793 35.8802 27.7383 36.0078 27.7383L36.1172 27.7656C36.4818 27.8385 36.8919 27.875 37.3477 27.875H37.7031L44.7578 27.4648C45.0677 25.6237 45.2227 23.5638 45.2227 21.2852C45.2227 20.8294 45.0859 20.3737 44.8125 19.918C44.7396 19.7904 44.7031 19.681 44.7031 19.5898C44.7031 19.4622 44.7943 19.3984 44.9766 19.3984C45.1042 19.3984 45.3503 19.444 45.7148 19.5352C46.0794 19.6081 46.4258 19.7539 46.7539 19.9727C47.082 20.1732 47.2461 20.4466 47.2461 20.793V20.875C47.1549 23.5 46.9818 25.6602 46.7266 27.3555L54.6836 26.8906C55.1029 26.8542 55.4583 26.7721 55.75 26.6445C55.8229 26.6081 55.9049 26.5898 55.9961 26.5898C56.2148 26.5898 56.5339 26.763 56.9531 27.1094C57.3724 27.4557 57.582 27.7565 57.582 28.0117C57.582 28.1576 57.5091 28.276 57.3633 28.3672C57.2174 28.4583 57.0443 28.513 56.8438 28.5312L47.4922 29.0508Z" fill="#333333"/>
<path d="M104.23 27.3555C103.957 27.3555 103.711 27.2461 103.492 27.0273C103.219 26.8268 103.082 26.6719 103.082 26.5625C103.082 26.4349 103.292 26.3711 103.711 26.3711L105.051 26.2891L106.418 26.1523C106.454 25.8607 106.473 25.3047 106.473 24.4844C106.527 24.4844 106.245 24.5208 105.625 24.5938L105.105 24.6758C104.941 24.7487 104.796 24.7852 104.668 24.7852C104.559 24.7852 104.467 24.7487 104.395 24.6758C104.103 24.4206 103.957 24.2018 103.957 24.0195V22.7344C103.957 22.6068 103.911 22.1146 103.82 21.2578L103.793 20.957C103.793 20.8112 103.82 20.7201 103.875 20.6836C103.93 20.6471 104.03 20.6471 104.176 20.6836C104.723 20.8294 104.987 20.9935 104.969 21.1758L104.941 21.3672C104.905 21.6224 104.887 21.9505 104.887 22.3516C104.887 22.8255 104.896 23.1263 104.914 23.2539C104.951 23.6185 104.969 23.7917 104.969 23.7734C104.987 23.8464 105.051 23.8828 105.16 23.8828C105.27 23.8828 105.488 23.8555 105.816 23.8008C106.163 23.7279 106.391 23.6823 106.5 23.6641V21.2578C106.5 20.5833 106.473 20.1276 106.418 19.8906C106.382 19.7083 106.363 19.6081 106.363 19.5898C106.363 19.4622 106.409 19.3984 106.5 19.3984C106.536 19.3984 106.664 19.4349 106.883 19.5078C107.229 19.6719 107.457 19.8177 107.566 19.9453C107.694 20.0729 107.74 20.2096 107.703 20.3555C107.648 20.5378 107.612 20.9023 107.594 21.4492C107.557 21.8867 107.521 22.5977 107.484 23.582L108.414 23.5547C108.596 23.5547 108.733 23.5456 108.824 23.5273C108.915 23.5091 108.961 23.4727 108.961 23.418C109.089 22.7253 109.171 22.1237 109.207 21.6133L109.234 21.2852C109.253 21.2487 109.253 21.1849 109.234 21.0938C109.234 21.0026 109.234 20.9388 109.234 20.9023L109.207 20.7109C109.207 20.5469 109.271 20.4648 109.398 20.4648C109.471 20.4648 109.626 20.5378 109.863 20.6836C109.918 20.7201 109.991 20.7747 110.082 20.8477C110.191 20.9023 110.264 20.9661 110.301 21.0391C110.337 21.0938 110.355 21.1667 110.355 21.2578C110.355 21.3672 110.346 21.4583 110.328 21.5312L110.027 23.0625L109.945 23.6914C109.872 24.1107 109.654 24.3385 109.289 24.375C109.18 24.3568 109.089 24.3294 109.016 24.293C108.961 24.2565 108.915 24.2383 108.879 24.2383C108.66 24.2383 108.204 24.2839 107.512 24.375L107.484 26.0703L107.949 26.043L108.387 26.0156C109.061 26.0156 109.562 25.9792 109.891 25.9062C110.036 25.9062 110.164 25.888 110.273 25.8516L110.355 25.8242C110.538 25.8242 110.729 25.9518 110.93 26.207C111.167 26.444 111.285 26.6172 111.285 26.7266C111.285 26.8906 111.03 26.9453 110.52 26.8906L109.48 26.8359H108.113C107.84 26.8359 107.339 26.8724 106.609 26.9453C106.227 26.9453 105.88 26.9635 105.57 27C105.26 27.0365 104.969 27.1003 104.695 27.1914L104.23 27.3555ZM110.164 34.5195C109.891 34.5195 109.626 34.319 109.371 33.918C109.043 33.4076 108.724 32.9883 108.414 32.6602L107.703 31.9219C107.32 32.3594 106.983 32.7057 106.691 32.9609C106.418 33.2161 106.072 33.4622 105.652 33.6992C104.868 34.1549 104.212 34.3828 103.684 34.3828C103.556 34.3828 103.492 34.3372 103.492 34.2461C103.492 34.1914 103.665 34.0729 104.012 33.8906C104.358 33.7083 104.686 33.4896 104.996 33.2344C105.78 32.5781 106.427 31.9036 106.938 31.2109C106.828 31.1016 106.281 30.6276 105.297 29.7891C105.169 29.6979 104.978 29.543 104.723 29.3242C104.668 29.2878 104.559 29.2057 104.395 29.0781C104.23 28.9505 104.148 28.8594 104.148 28.8047C104.148 28.7135 104.194 28.668 104.285 28.668C104.559 28.668 104.996 28.8594 105.598 29.2422C106.199 29.6068 106.828 30.0443 107.484 30.5547C107.74 30.2448 107.94 29.9531 108.086 29.6797C108.232 29.4062 108.396 29.069 108.578 28.668C108.669 28.4674 108.724 28.2943 108.742 28.1484C108.76 27.9844 108.77 27.8841 108.77 27.8477C108.77 27.6471 108.824 27.5469 108.934 27.5469C109.061 27.5469 109.234 27.6471 109.453 27.8477C109.836 28.2122 110.027 28.4583 110.027 28.5859C110.027 28.6589 109.982 28.7409 109.891 28.832C109.672 29.0508 109.471 29.3424 109.289 29.707C109.18 29.9258 108.979 30.2357 108.688 30.6367C108.596 30.7461 108.523 30.8464 108.469 30.9375C108.414 31.0286 108.359 31.1107 108.305 31.1836C108.724 31.4935 109.344 32.0221 110.164 32.7695C110.365 32.9518 110.492 33.125 110.547 33.2891C110.62 33.4349 110.656 33.6354 110.656 33.8906C110.656 34.0729 110.611 34.2279 110.52 34.3555C110.428 34.4648 110.31 34.5195 110.164 34.5195ZM104.121 42.6953C103.848 42.6953 103.638 42.6224 103.492 42.4766C103.328 42.3125 103.246 42.1667 103.246 42.0391C103.246 41.9115 103.319 41.7747 103.465 41.6289C103.483 41.6107 103.583 41.4648 103.766 41.1914C104.167 40.5534 104.622 39.7422 105.133 38.7578C105.661 37.7552 105.99 37.0716 106.117 36.707C106.227 36.3607 106.327 36.0599 106.418 35.8047C106.527 35.5495 106.618 35.4219 106.691 35.4219C106.819 35.4219 106.928 35.4674 107.02 35.5586C107.111 35.6315 107.202 35.7409 107.293 35.8867C107.402 36.0143 107.484 36.1055 107.539 36.1602C107.667 36.306 107.73 36.4427 107.73 36.5703C107.73 36.6615 107.694 36.7526 107.621 36.8438C107.548 36.9349 107.503 36.9987 107.484 37.0352L106.281 39.0586C105.971 39.6237 105.561 40.3255 105.051 41.1641C104.978 41.2552 104.941 41.3464 104.941 41.4375C104.941 41.5104 105.023 41.5469 105.188 41.5469C105.534 41.5469 106.181 41.5013 107.129 41.4102C108.077 41.3372 108.715 41.2734 109.043 41.2188C109.517 41.1641 109.845 41.1094 110.027 41.0547C110.228 41 110.52 41.1367 110.902 41.4648C111.358 41.8477 111.458 42.0938 111.203 42.2031C111.057 42.276 110.775 42.3125 110.355 42.3125H109.262C109.025 42.3125 108.651 42.3307 108.141 42.3672C107.831 42.3672 107.484 42.3763 107.102 42.3945C106.719 42.4128 106.4 42.431 106.145 42.4492C105.853 42.4674 105.288 42.5221 104.449 42.6133L104.121 42.6953ZM112.242 32.8242C112.333 32.8242 112.47 32.888 112.652 33.0156C112.634 33.0521 112.671 33.125 112.762 33.2344C112.853 33.3255 112.917 33.3893 112.953 33.4258C113.044 33.5169 113.135 33.6263 113.227 33.7539C113.336 33.8815 113.454 34.0182 113.582 34.1641C113.91 34.5104 114.667 35.4128 115.852 36.8711C116.052 37.1628 116.152 37.3359 116.152 37.3906C116.152 37.5729 116.043 37.6641 115.824 37.6641C115.697 37.6641 115.56 37.5729 115.414 37.3906C115.068 37.026 114.448 36.4518 113.555 35.668C112.862 35.0299 112.233 34.5378 111.668 34.1914C111.395 34.0638 111.258 33.918 111.258 33.7539C111.258 33.6263 111.395 33.444 111.668 33.207C111.923 32.9518 112.115 32.8242 112.242 32.8242ZM89.2734 43.2422C89.2734 43.3698 89.2188 43.4701 89.1094 43.543C89.0182 43.6341 88.8997 43.6797 88.7539 43.6797C88.4987 43.6797 88.2161 43.5703 87.9062 43.3516C87.6146 43.151 87.4688 42.9414 87.4688 42.7227C87.4688 42.6133 87.4779 42.5221 87.4961 42.4492C87.5872 41.9388 87.6328 41.4284 87.6328 40.918V31.8398C86.138 32.4414 85.0352 32.7422 84.3242 32.7422C84.0508 32.7422 83.9141 32.6784 83.9141 32.5508C83.9141 32.4596 83.9779 32.3594 84.1055 32.25C84.2513 32.1406 84.4518 32.0312 84.707 31.9219C85.8008 31.4661 86.7578 31.0104 87.5781 30.5547C88.3984 30.0807 89.237 29.5247 90.0938 28.8867C90.4401 28.6497 90.6862 28.3307 90.832 27.9297C90.8867 27.7292 90.987 27.6289 91.1328 27.6289C91.3516 27.6289 91.707 27.8203 92.1992 28.2031C92.6003 28.513 92.8008 28.7956 92.8008 29.0508C92.8008 29.1784 92.5911 29.3698 92.1719 29.625C91.7708 29.8802 90.7865 30.3815 89.2188 31.1289L89.2461 39.5781C91.0326 38.0833 92.3086 36.6068 93.0742 35.1484C93.293 34.7474 93.5482 34.1732 93.8398 33.4258C94.1497 32.6602 94.3047 32.0677 94.3047 31.6484C94.3047 31.3932 94.25 31.1562 94.1406 30.9375L94.0859 30.7188C94.0859 30.5729 94.1862 30.4818 94.3867 30.4453C94.6055 30.4453 94.9336 30.5273 95.3711 30.6914C95.681 30.7826 95.8997 30.8828 96.0273 30.9922C96.1732 31.1016 96.2461 31.2292 96.2461 31.375L96.2188 31.5391C96.0182 32.5599 95.681 33.5443 95.207 34.4922L94.9609 34.9023L94.8789 35.0664C96.6107 36.6888 98.4701 38.0195 100.457 39.0586C100.639 39.1497 100.767 39.2318 100.84 39.3047C100.913 39.3594 100.949 39.4232 100.949 39.4961C100.949 39.5326 100.876 39.6602 100.73 39.8789C100.603 40.0794 100.439 40.2617 100.238 40.4258C100.056 40.5898 99.8737 40.6719 99.6914 40.6719C99.4362 40.6719 98.7435 40.2435 97.6133 39.3867C96.4831 38.5299 95.3164 37.5 94.1133 36.2969C93.3477 37.4089 92.4909 38.3021 91.543 38.9766C90.6133 39.651 89.8568 40.0885 89.2734 40.2891V43.2422ZM76.9141 41.4102C76.9141 41.2826 77.0326 41.0729 77.2695 40.7812C78.2721 39.5599 79.0924 38.3659 79.7305 37.1992C80.3685 36.0143 80.8242 34.9935 81.0977 34.1367C81.3711 33.2617 81.5078 32.6328 81.5078 32.25C81.5078 31.9766 81.4622 31.7214 81.3711 31.4844C81.3164 31.375 81.2891 31.2839 81.2891 31.2109C81.2891 31.0833 81.3802 31.0195 81.5625 31.0195C81.6536 31.0195 81.8633 31.0742 82.1914 31.1836C82.5195 31.293 82.8203 31.4388 83.0938 31.6211C83.3672 31.7852 83.5039 31.9766 83.5039 32.1953C83.5039 32.2682 83.4948 32.3229 83.4766 32.3594C83.1484 33.5807 82.7839 34.6289 82.3828 35.5039C83.8047 36.5794 84.9622 37.6094 85.8555 38.5938C86.0742 38.8125 86.1836 39.0039 86.1836 39.168C86.1836 39.4049 86.0469 39.651 85.7734 39.9062C85.5182 40.1615 85.3086 40.2891 85.1445 40.2891C84.9987 40.2891 84.8073 40.1432 84.5703 39.8516C83.75 38.776 82.8021 37.7552 81.7266 36.7891C81.2526 37.6458 80.6966 38.4388 80.0586 39.168C79.4206 39.8971 78.819 40.4805 78.2539 40.918C77.707 41.3372 77.306 41.5469 77.0508 41.5469C76.9596 41.5469 76.9141 41.5013 76.9141 41.4102ZM79.1016 20.9023C79.1016 20.793 79.2018 20.7383 79.4023 20.7383C79.7305 20.7383 80.3776 20.9023 81.3438 21.2305L96.3555 20.3555H96.6289C96.9023 20.3555 97.1758 20.4466 97.4492 20.6289C97.7227 20.8112 97.8594 21.0117 97.8594 21.2305C97.8594 21.3216 97.8229 21.431 97.75 21.5586C97.6771 21.668 97.6406 21.7409 97.6406 21.7773L96.9844 25.7695C97.3672 26.2253 97.5586 26.5534 97.5586 26.7539C97.5586 26.8633 97.4948 26.9362 97.3672 26.9727C97.2578 27.0091 97.0846 27.0365 96.8477 27.0547L81.8633 27.7656L81.918 28.1758V28.2578C81.918 28.6224 81.7539 28.8047 81.4258 28.8047C81.207 28.8047 80.9427 28.7318 80.6328 28.5859C80.3229 28.4401 80.168 28.1758 80.168 27.793V27.6562L80.1953 27.082C80.1953 26.8997 80.1771 26.6263 80.1406 26.2617L79.7305 22.7344C79.6576 22.1693 79.5117 21.7044 79.293 21.3398C79.1654 21.1393 79.1016 20.9935 79.1016 20.9023ZM81.7266 26.4805L85.418 26.3164L85.0898 22.4336L81.3164 22.6523L81.7266 26.4805ZM86.9219 26.2344L90.1758 26.0703L90.3945 22.1328L86.5938 22.3516L86.9219 26.2344ZM95.4258 25.8242L95.9453 21.8047L91.9258 22.0508L91.6797 26.0156L95.4258 25.8242Z" fill="#333333"/>
</svg>
