<svg width="150" height="60" viewBox="0 0 150 60" fill="none" xmlns="http://www.w3.org/2000/svg">
<path d="M68.0273 29.8164C67.7539 29.8164 67.5534 29.6706 67.4258 29.3789L67.1797 28.832C66.4688 29.0143 65.8945 29.151 65.457 29.2422L63.6797 29.6797C63.3151 29.7708 63.0872 29.8164 62.9961 29.8164C62.8867 29.8164 62.7956 29.7982 62.7227 29.7617C62.668 29.707 62.6224 29.6615 62.5859 29.625C62.5495 29.5703 62.5221 29.5247 62.5039 29.4883C62.3581 29.2331 62.2943 29.0599 62.3125 28.9688L62.5039 28.668C62.9779 28.0117 63.4154 27.0729 63.8164 25.8516L63.2695 25.9336L62.5586 26.0156C62.5039 26.0339 62.3854 26.0703 62.2031 26.125C62.0391 26.1615 61.9115 26.1523 61.8203 26.0977C61.6198 25.9701 61.3555 25.7422 61.0273 25.4141C60.9544 25.3411 60.918 25.2865 60.918 25.25C60.918 25.1406 61.1185 25.0859 61.5195 25.0859H62.4492C63.069 25.0495 63.6341 25.0039 64.1445 24.9492C64.2539 24.6758 64.3724 24.3294 64.5 23.9102C64.6276 23.4909 64.7188 23.1536 64.7734 22.8984C64.7734 22.8438 64.7734 22.7344 64.7734 22.5703C64.7917 22.4062 64.8281 22.306 64.8828 22.2695H64.9102C64.9831 22.2695 65.0833 22.306 65.2109 22.3789C65.3385 22.4518 65.457 22.543 65.5664 22.6523C65.9128 22.9987 66.013 23.2721 65.8672 23.4727C65.7943 23.4909 65.6393 23.7917 65.4023 24.375C65.3841 24.4115 65.3203 24.5755 65.2109 24.8672C65.3568 24.849 65.8854 24.7852 66.7969 24.6758C67.2161 24.6393 67.5352 24.5938 67.7539 24.5391C68.0638 24.4479 68.3099 24.4023 68.4922 24.4023C68.638 24.4023 68.7565 24.457 68.8477 24.5664C68.9388 24.6576 69.0026 24.7214 69.0391 24.7578C69.0938 24.8125 69.1576 24.9219 69.2305 25.0859C69.3034 25.2135 69.3307 25.3047 69.3125 25.3594C69.2396 25.4688 69.112 25.5234 68.9297 25.5234C68.3281 25.487 67.6081 25.5052 66.7695 25.5781C66.4049 25.6146 66.1315 25.651 65.9492 25.6875L64.8828 25.7969L64.6367 26.5352L64.3359 27.1914C64.2448 27.4102 64.1445 27.6289 64.0352 27.8477C63.9258 28.0664 63.8438 28.2487 63.7891 28.3945C63.7708 28.431 63.7617 28.4857 63.7617 28.5586C63.7617 28.6497 63.8164 28.6953 63.9258 28.6953C64.0716 28.6953 64.5729 28.6133 65.4297 28.4492L66.4414 28.2852L66.9062 28.1758C66.7422 27.7201 66.6146 27.4284 66.5234 27.3008C66.4323 27.1732 66.3776 27.0911 66.3594 27.0547L66.5234 26.8906C67.2344 27.3464 67.8086 27.8112 68.2461 28.2852C68.3737 28.4492 68.4557 28.6042 68.4922 28.75C68.5469 28.8958 68.5651 29.0599 68.5469 29.2422C68.5104 29.4062 68.4466 29.5339 68.3555 29.625C68.319 29.7161 68.2096 29.7799 68.0273 29.8164ZM65.4844 40.1797C64.6094 40.1797 63.8802 39.9609 63.2969 39.5234C62.6953 39.0312 62.3945 38.457 62.3945 37.8008C62.3945 37.2904 62.5859 36.8438 62.9688 36.4609C63.4609 36.0417 64.0807 35.832 64.8281 35.832C64.8646 35.832 64.8919 35.7956 64.9102 35.7227C64.9466 35.6315 64.9648 35.513 64.9648 35.3672L64.9922 34.6562C64.8646 34.6745 64.6185 34.7018 64.2539 34.7383C63.9076 34.7747 63.6523 34.8112 63.4883 34.8477C63.5794 34.8294 63.2969 34.8932 62.6406 35.0391C62.5859 35.0573 62.4857 35.0664 62.3398 35.0664C61.9935 35.0664 61.7018 34.9115 61.4648 34.6016C61.3555 34.4922 61.3008 34.401 61.3008 34.3281C61.3008 34.2188 61.4648 34.1641 61.793 34.1641L62.6406 34.1094L64.9648 33.8086V33.4805V32.7969C64.9466 32.724 64.9375 32.6419 64.9375 32.5508C64.9375 32.4596 64.9284 32.3867 64.9102 32.332C64.8737 32.1862 64.8555 32.0951 64.8555 32.0586C64.8555 31.931 64.9193 31.8672 65.0469 31.8672C65.2109 31.8672 65.4935 31.9857 65.8945 32.2227C66.0221 32.2956 66.0859 32.3958 66.0859 32.5234C66.0859 32.6146 66.0677 32.6966 66.0312 32.7695C66.013 32.8242 66.0039 32.888 66.0039 32.9609V33.7266L66.8242 33.6445L67.8359 33.5352C67.9271 33.5169 68.0273 33.4896 68.1367 33.4531C68.2643 33.4167 68.3646 33.3984 68.4375 33.3984C68.5469 33.3984 68.6836 33.4531 68.8477 33.5625C69.1576 33.763 69.3125 33.9362 69.3125 34.082C69.3125 34.2279 69.1576 34.3008 68.8477 34.3008C68.7565 34.3008 68.6289 34.319 68.4648 34.3555C68.3008 34.3737 68.0911 34.3919 67.8359 34.4102L66.0039 34.5469L65.9766 36.2148C65.9401 36.4883 65.7396 36.6615 65.375 36.7344H65.3203C65.2109 36.7344 65.1016 36.7253 64.9922 36.707C64.901 36.6706 64.8281 36.6523 64.7734 36.6523C64.6276 36.6523 64.4818 36.6615 64.3359 36.6797C64.1901 36.6979 64.0625 36.7526 63.9531 36.8438C63.6432 37.1172 63.4883 37.4362 63.4883 37.8008C63.4883 38.1654 63.6615 38.4935 64.0078 38.7852C64.3177 39.0768 64.8099 39.2227 65.4844 39.2227C66.3776 39.1862 67.1068 38.9401 67.6719 38.4844C67.9089 38.3203 68.0911 38.2383 68.2188 38.2383C68.2917 38.2383 68.3828 38.2565 68.4922 38.293C68.5104 38.3112 68.5469 38.3477 68.6016 38.4023C68.6562 38.457 68.6836 38.5117 68.6836 38.5664C68.6836 39.0768 68.2552 39.4961 67.3984 39.8242C66.7604 40.0612 66.1224 40.1797 65.4844 40.1797ZM70.2422 29.8164C70.3333 29.8164 70.4701 29.8802 70.6523 30.0078C70.6341 30.0443 70.6706 30.1172 70.7617 30.2266C70.8529 30.3177 70.9167 30.3815 70.9531 30.418C71.0443 30.5091 71.1354 30.6185 71.2266 30.7461C71.3359 30.8737 71.4544 31.0104 71.582 31.1562C71.9102 31.5026 72.6667 32.4049 73.8516 33.8633C74.0521 34.1549 74.1523 34.3281 74.1523 34.3828C74.1523 34.5651 74.043 34.6562 73.8242 34.6562C73.6966 34.6562 73.5599 34.5651 73.4141 34.3828C73.0677 34.0182 72.4479 33.444 71.5547 32.6602C70.862 32.0221 70.2331 31.5299 69.668 31.1836C69.3945 31.056 69.2578 30.9102 69.2578 30.7461C69.2578 30.6185 69.3945 30.4362 69.668 30.1992C69.9232 29.944 70.1146 29.8164 70.2422 29.8164ZM39.7539 34.5742C38.0951 35.668 37.0195 36.3516 36.5273 36.625C36.0534 36.8802 35.6979 37.0078 35.4609 37.0078C35.2786 37.0078 35.1419 36.9714 35.0508 36.8984C34.7227 36.7161 34.4583 36.5065 34.2578 36.2695C34.0573 36.0143 33.957 35.832 33.957 35.7227C33.957 35.5951 34.0664 35.5221 34.2852 35.5039C34.8138 35.4128 35.3424 35.2396 35.8711 34.9844C36.3997 34.7292 37.7031 34.0365 39.7812 32.9062L39.8359 27.5742L37.4297 27.7383C36.8828 29.069 36.3359 30.1354 35.7891 30.9375C35.2604 31.7214 34.8776 32.1133 34.6406 32.1133C34.5312 32.1133 34.4766 32.0312 34.4766 31.8672C34.4766 31.7214 34.5312 31.5117 34.6406 31.2383C35.1693 30.0534 35.5977 28.8958 35.9258 27.7656C36.2539 26.6172 36.4909 25.651 36.6367 24.8672C36.7826 24.0651 36.8555 23.6003 36.8555 23.4727C36.8555 23.2721 36.8281 23.0807 36.7734 22.8984L36.7188 22.6797C36.7188 22.5156 36.8099 22.4336 36.9922 22.4336C37.2474 22.4336 37.5938 22.5612 38.0312 22.8164C38.4688 23.0534 38.6875 23.2995 38.6875 23.5547C38.6875 23.6641 38.6055 24.0286 38.4414 24.6484C38.2773 25.25 38.1042 25.806 37.9219 26.3164L39.8633 26.1797L39.918 21.0117C39.918 20.6471 39.7995 20.2734 39.5625 19.8906C39.4896 19.763 39.4531 19.6628 39.4531 19.5898C39.4531 19.444 39.5625 19.3711 39.7812 19.3711C40.0547 19.3711 40.4193 19.4622 40.875 19.6445C41.3307 19.8086 41.5586 20.0456 41.5586 20.3555L41.5039 26.0703L42.6523 25.9883C43.0169 25.9518 43.3268 25.888 43.582 25.7969C43.6914 25.7604 43.7643 25.7422 43.8008 25.7422C44.0195 25.7422 44.2839 25.888 44.5938 26.1797C44.9219 26.4714 45.0859 26.7174 45.0859 26.918C45.0859 27.1367 44.8763 27.2643 44.457 27.3008L41.4766 27.4922L41.4492 31.9492L44.1289 30.3633C44.4388 30.181 44.694 30.0898 44.8945 30.0898C45.0586 30.0898 45.1406 30.1536 45.1406 30.2812C45.1406 30.4453 44.9128 30.737 44.457 31.1562C44.0195 31.5755 43.0078 32.332 41.4219 33.4258L41.3398 43.0234C41.3398 43.4427 41.1667 43.6523 40.8203 43.6523C40.4557 43.5977 40.1458 43.4792 39.8906 43.2969C39.6354 43.1146 39.5078 42.8594 39.5078 42.5312C39.5078 42.4036 39.5169 42.3034 39.5352 42.2305C39.6445 41.6836 39.6992 41.1641 39.6992 40.6719L39.7539 34.5742ZM43.3086 32.3867C43.3086 32.3138 43.3451 32.2773 43.418 32.2773C43.4909 32.2773 43.5547 32.2865 43.6094 32.3047C43.974 32.3958 44.3659 32.4414 44.7852 32.4414H45.0586L52.9609 32.0586V31.6211C52.9609 31.0378 52.8242 30.5456 52.5508 30.1445C52.4596 29.9987 52.4141 29.8802 52.4141 29.7891C52.4141 29.6797 52.4961 29.625 52.6602 29.625C52.8789 29.625 53.207 29.707 53.6445 29.8711C53.9727 29.9987 54.2096 30.1263 54.3555 30.2539C54.5195 30.3815 54.6016 30.5456 54.6016 30.7461V31.9766L56.9258 31.8398C57.2357 31.8216 57.5638 31.7305 57.9102 31.5664C57.9466 31.5482 58.0104 31.5391 58.1016 31.5391C58.3568 31.5391 58.6849 31.7031 59.0859 32.0312C59.5052 32.3594 59.7148 32.6146 59.7148 32.7969C59.7148 33.0156 59.4961 33.1432 59.0586 33.1797L54.6289 33.4258L54.6836 41.5469L54.7109 42.3945C54.7109 42.8138 54.5833 43.151 54.3281 43.4062C54.0911 43.6615 53.8086 43.7891 53.4805 43.7891C53.2617 43.7891 52.7604 43.5977 51.9766 43.2148C51.2109 42.832 50.5 42.4128 49.8438 41.957C49.2057 41.5013 48.8867 41.1367 48.8867 40.8633C48.8867 40.7539 48.9688 40.6992 49.1328 40.6992C49.3333 40.6992 49.5977 40.763 49.9258 40.8906C50.8008 41.237 51.8307 41.5013 53.0156 41.6836L52.9609 33.5078L45.6055 33.8633L44.8945 33.8906C44.5299 33.8906 44.2201 33.8177 43.9648 33.6719C43.7279 33.5078 43.5182 33.125 43.3359 32.5234C43.3177 32.487 43.3086 32.4414 43.3086 32.3867ZM44.375 23.4453C44.375 23.3542 44.4115 23.3086 44.4844 23.3086C44.5391 23.3086 44.5846 23.3177 44.6211 23.3359C45.0039 23.4635 45.4414 23.5273 45.9336 23.5273H46.1523L50.0352 23.2812V20.3008C50.0352 19.8268 49.944 19.4349 49.7617 19.125C49.6523 18.9245 49.5977 18.7878 49.5977 18.7148C49.5977 18.5872 49.6797 18.5234 49.8438 18.5234C50.026 18.5234 50.3359 18.5964 50.7734 18.7422C51.1562 18.8698 51.4023 18.9792 51.5117 19.0703C51.6211 19.1615 51.6758 19.2982 51.6758 19.4805V23.1992L55.1211 22.9531C55.6133 22.9349 56.0417 22.8529 56.4062 22.707C56.5156 22.6706 56.5885 22.6523 56.625 22.6523C56.8438 22.6523 57.1354 22.8255 57.5 23.1719C57.8828 23.5 58.0742 23.7461 58.0742 23.9102C58.0742 24.0924 57.8464 24.2018 57.3906 24.2383L51.6484 24.6211V27.6289L54.6562 27.4648C55.1849 27.4284 55.6133 27.3464 55.9414 27.2188C56.0508 27.1823 56.1237 27.1641 56.1602 27.1641C56.3242 27.1641 56.5247 27.2552 56.7617 27.4375C56.9987 27.6016 57.2083 27.793 57.3906 28.0117C57.5729 28.2305 57.6641 28.3854 57.6641 28.4766C57.6641 28.6589 57.4271 28.7682 56.9531 28.8047L47.6016 29.3516L47.082 29.3789C46.7174 29.3789 46.3711 29.2878 46.043 29.1055C45.7331 28.9232 45.487 28.5312 45.3047 27.9297C45.2865 27.8932 45.2773 27.8477 45.2773 27.793C45.2773 27.7018 45.3229 27.6562 45.4141 27.6562C45.4688 27.6562 45.5143 27.6654 45.5508 27.6836C45.9701 27.8112 46.3984 27.875 46.8359 27.875H47.082L50.0078 27.7109V24.7031L46.6172 24.9219C46.4349 24.9401 46.1979 24.9492 45.9062 24.9492C45.487 24.9492 45.2044 24.8763 45.0586 24.7305C44.8763 24.5482 44.7122 24.3294 44.5664 24.0742C44.4388 23.8008 44.375 23.5911 44.375 23.4453ZM46.3984 35.3945C46.3984 35.194 46.4987 35.0117 46.6992 34.8477C46.8997 34.6836 47.0729 34.6016 47.2188 34.6016C47.3828 34.6016 47.7383 34.8385 48.2852 35.3125C48.832 35.7682 49.3516 36.2604 49.8438 36.7891C50.3542 37.3177 50.6094 37.6458 50.6094 37.7734C50.6094 37.9557 50.4727 38.1745 50.1992 38.4297C49.944 38.6667 49.7344 38.7852 49.5703 38.7852C49.4062 38.7852 49.2513 38.6849 49.1055 38.4844C48.5404 37.737 47.7109 36.8346 46.6172 35.7773C46.4714 35.6315 46.3984 35.5039 46.3984 35.3945Z" fill="#333333"/>
<path d="M103.52 30.6094C103.392 30.6094 103.31 30.6003 103.273 30.582C103.255 30.5456 103.283 30.4818 103.355 30.3906C103.611 30.1536 103.811 29.9258 103.957 29.707C104.121 29.4701 104.294 29.0964 104.477 28.5859C104.768 27.7474 104.914 27.1003 104.914 26.6445C104.914 26.2253 104.887 25.8424 104.832 25.4961V25.4141C104.832 25.2135 104.96 25.1497 105.215 25.2227C105.434 25.2773 105.68 25.3503 105.953 25.4414C106.008 25.4232 106.09 25.4141 106.199 25.4141C106.309 25.3958 106.482 25.3685 106.719 25.332C107.339 25.2409 108.141 25.1497 109.125 25.0586C109.125 24.9857 109.198 24.7305 109.344 24.293L109.508 23.6914C109.581 23.4362 109.553 23.3086 109.426 23.3086C109.061 23.3086 108.214 23.3997 106.883 23.582L105.434 23.8281C105.306 23.8464 105.142 23.7917 104.941 23.6641C104.759 23.5365 104.613 23.3906 104.504 23.2266C104.413 23.0625 104.431 22.9531 104.559 22.8984C104.704 22.8073 104.85 22.7617 104.996 22.7617C105.142 22.7617 105.233 22.7617 105.27 22.7617H105.625L107.43 22.707L109.18 22.4883C109.271 22.4701 109.38 22.4427 109.508 22.4062C109.654 22.3516 109.79 22.3151 109.918 22.2969C110.1 22.2604 110.41 22.4609 110.848 22.8984C110.921 22.9714 110.957 23.0534 110.957 23.1445C110.957 23.2539 110.884 23.3633 110.738 23.4727C110.538 23.6732 110.41 23.8464 110.355 23.9922C110.337 24.0833 110.301 24.2201 110.246 24.4023C110.191 24.5664 110.137 24.776 110.082 25.0312C110.191 25.1589 110.246 25.3138 110.246 25.4961C110.246 25.6419 110.201 25.7513 110.109 25.8242C110.036 25.8789 109.882 25.9062 109.645 25.9062C108.824 25.9609 108.177 26.0156 107.703 26.0703C107.229 26.1068 106.655 26.1979 105.98 26.3438C105.908 27.1641 105.743 27.9206 105.488 28.6133C105.233 29.2878 104.878 29.7982 104.422 30.1445C103.984 30.4544 103.684 30.6094 103.52 30.6094ZM110.164 39.4414C109.891 39.4414 109.626 39.2409 109.371 38.8398C109.043 38.3294 108.724 37.9102 108.414 37.582L107.703 36.8438C107.32 37.2812 106.983 37.6276 106.691 37.8828C106.418 38.138 106.072 38.3841 105.652 38.6211C104.868 39.0768 104.212 39.3047 103.684 39.3047C103.556 39.3047 103.492 39.2591 103.492 39.168C103.492 39.1133 103.665 38.9948 104.012 38.8125C104.358 38.6302 104.686 38.4115 104.996 38.1562C105.78 37.5 106.427 36.8255 106.938 36.1328C106.828 36.0234 106.281 35.5495 105.297 34.7109C105.169 34.6198 104.978 34.4648 104.723 34.2461C104.668 34.2096 104.559 34.1276 104.395 34C104.23 33.8724 104.148 33.7812 104.148 33.7266C104.148 33.6354 104.194 33.5898 104.285 33.5898C104.559 33.5898 104.996 33.7812 105.598 34.1641C106.199 34.5286 106.828 34.9661 107.484 35.4766C107.74 35.1667 107.94 34.875 108.086 34.6016C108.232 34.3281 108.396 33.9909 108.578 33.5898C108.669 33.3893 108.724 33.2161 108.742 33.0703C108.76 32.9062 108.77 32.806 108.77 32.7695C108.77 32.569 108.824 32.4688 108.934 32.4688C109.061 32.4688 109.234 32.569 109.453 32.7695C109.836 33.1341 110.027 33.3802 110.027 33.5078C110.027 33.5807 109.982 33.6628 109.891 33.7539C109.672 33.9727 109.471 34.2643 109.289 34.6289C109.18 34.8477 108.979 35.1576 108.688 35.5586C108.596 35.668 108.523 35.7682 108.469 35.8594C108.414 35.9505 108.359 36.0326 108.305 36.1055C108.724 36.4154 109.344 36.944 110.164 37.6914C110.365 37.8737 110.492 38.0469 110.547 38.2109C110.62 38.3568 110.656 38.5573 110.656 38.8125C110.656 38.9948 110.611 39.1497 110.52 39.2773C110.428 39.3867 110.31 39.4414 110.164 39.4414ZM92.0352 33.3164C90.9961 35.0664 89.8659 36.543 88.6445 37.7461C87.4414 38.931 86.3568 39.8242 85.3906 40.4258C84.4427 41.0091 83.8411 41.3008 83.5859 41.3008C83.4583 41.3008 83.3945 41.2552 83.3945 41.1641C83.3945 40.9635 83.5859 40.7174 83.9688 40.4258C85.3724 39.2773 86.6667 37.9922 87.8516 36.5703C89.0365 35.1484 90.1667 33.4896 91.2422 31.5938L87.6055 31.7852L86.8125 31.8125C86.3932 31.8125 86.1107 31.7396 85.9648 31.5938C85.819 31.4479 85.6549 31.2201 85.4727 30.9102C85.2904 30.6003 85.1992 30.3815 85.1992 30.2539C85.1992 30.1628 85.2539 30.1172 85.3633 30.1172L85.5273 30.1445C85.8919 30.2539 86.293 30.3086 86.7305 30.3086H86.9492L92.0078 30.0625V26.4258L89.2188 26.5898C88.7083 27.5378 88.1797 28.3216 87.6328 28.9414C87.1042 29.5612 86.7396 29.8711 86.5391 29.8711C86.4479 29.8711 86.4023 29.8073 86.4023 29.6797C86.4023 29.5156 86.4753 29.2969 86.6211 29.0234C87.1497 28.0391 87.6055 27.0091 87.9883 25.9336C88.3711 24.8398 88.6081 23.9102 88.6992 23.1445V22.8711C88.6992 22.5247 88.6901 22.2422 88.6719 22.0234C88.6719 21.8229 88.7357 21.7227 88.8633 21.7227C88.9544 21.7227 89.1549 21.7865 89.4648 21.9141C89.7747 22.0417 90.0482 22.2057 90.2852 22.4062C90.5404 22.5885 90.668 22.7708 90.668 22.9531C90.668 23.0807 90.5951 23.3542 90.4492 23.7734C90.3216 24.1745 90.1576 24.6029 89.957 25.0586L92.0078 24.9492V20.7109C92.0078 20.4375 91.9714 20.1914 91.8984 19.9727C91.8438 19.7539 91.7253 19.526 91.543 19.2891C91.4518 19.1979 91.4062 19.0977 91.4062 18.9883C91.4062 18.8789 91.5065 18.8242 91.707 18.8242C91.9622 18.8242 92.3177 18.9062 92.7734 19.0703C93.138 19.1797 93.375 19.2982 93.4844 19.4258C93.5938 19.5352 93.6484 19.6901 93.6484 19.8906V24.8398L96.082 24.6758C96.5195 24.6393 96.8841 24.5664 97.1758 24.457C97.2122 24.4388 97.276 24.4297 97.3672 24.4297C97.5677 24.4297 97.7773 24.5117 97.9961 24.6758C98.2148 24.8398 98.4062 25.0312 98.5703 25.25C98.7344 25.4688 98.8164 25.6146 98.8164 25.6875C98.8164 25.888 98.5794 26.0065 98.1055 26.043L93.6484 26.3164V29.9805L97.7773 29.7617C98.306 29.7435 98.7435 29.6615 99.0898 29.5156C99.1263 29.4974 99.1901 29.4883 99.2812 29.4883C99.5 29.4883 99.8099 29.6432 100.211 29.9531C100.612 30.263 100.812 30.5273 100.812 30.7461C100.812 30.9831 100.612 31.1198 100.211 31.1562L94.0586 31.457C95.1706 33.0247 96.3646 34.4466 97.6406 35.7227C98.9349 36.9805 100.339 38.1745 101.852 39.3047C102.052 39.4688 102.152 39.5964 102.152 39.6875C102.152 39.7969 102.07 39.9062 101.906 40.0156C101.378 40.4167 101.013 40.6172 100.812 40.6172C100.612 40.6172 100.092 40.2253 99.2539 39.4414C98.4154 38.6576 97.4674 37.6823 96.4102 36.5156C95.3711 35.349 94.4596 34.2279 93.6758 33.1523V42.8867C93.6758 43.1602 93.6393 43.3516 93.5664 43.4609C93.5117 43.5885 93.4115 43.6523 93.2656 43.6523C92.9922 43.6523 92.6823 43.5339 92.3359 43.2969C91.9896 43.0599 91.8164 42.8138 91.8164 42.5586C91.8164 42.4492 91.8255 42.3672 91.8438 42.3125C91.9714 41.7474 92.0352 41.1641 92.0352 40.5625V33.3164ZM76.2031 42.832C76.2031 42.6862 76.3216 42.4857 76.5586 42.2305C78.4544 40.207 80.0859 37.7643 81.4531 34.9023C80.7604 33.8997 80.0404 33.0612 79.293 32.3867C79.1836 32.2773 79.1289 32.1589 79.1289 32.0312C79.1289 31.8672 79.2292 31.6667 79.4297 31.4297C79.6302 31.1927 79.8216 31.0742 80.0039 31.0742C80.1862 31.0742 80.4961 31.3021 80.9336 31.7578C81.3893 32.1953 81.8086 32.6693 82.1914 33.1797C82.9023 31.3203 83.3854 29.625 83.6406 28.0938L80.7695 28.2578C80.2956 29.3151 79.7578 30.3086 79.1562 31.2383C78.5547 32.1497 77.9896 32.888 77.4609 33.4531C76.9505 34 76.6042 34.2734 76.4219 34.2734C76.3125 34.2734 76.2578 34.2188 76.2578 34.1094C76.2578 33.9271 76.349 33.7083 76.5312 33.4531C77.4427 32.013 78.2448 30.4635 78.9375 28.8047C79.6302 27.1458 80.1589 25.4505 80.5234 23.7188L78.5547 23.8555C78.4271 23.8737 78.2539 23.8828 78.0352 23.8828H77.8984C77.5521 23.8464 77.2786 23.7461 77.0781 23.582C76.8776 23.418 76.6862 23.0716 76.5039 22.543C76.4857 22.5065 76.4766 22.4518 76.4766 22.3789C76.4766 22.2513 76.5404 22.1875 76.668 22.1875L76.7773 22.2148C77.069 22.2878 77.3789 22.3242 77.707 22.3242H78.0352L84.5156 21.8867C84.8802 21.8685 85.2174 21.8047 85.5273 21.6953C85.6367 21.6589 85.7279 21.6406 85.8008 21.6406C86.056 21.6406 86.3294 21.8138 86.6211 22.1602C86.931 22.4883 87.0859 22.7435 87.0859 22.9258C87.0859 23.1263 86.8945 23.2448 86.5117 23.2812L82.4375 23.582C82.1094 24.7122 81.7539 25.7878 81.3711 26.8086L84.1055 26.5898H84.2695C84.6888 26.5898 85.026 26.6901 85.2812 26.8906C85.5365 27.0729 85.6641 27.2552 85.6641 27.4375C85.6641 27.5651 85.6185 27.7201 85.5273 27.9023C85.4544 28.0664 85.3997 28.194 85.3633 28.2852C84.6706 31.4388 83.6953 34.1185 82.4375 36.3242C81.1797 38.5299 79.9583 40.1888 78.7734 41.3008C77.5885 42.431 76.7956 42.9961 76.3945 42.9961C76.2669 42.9961 76.2031 42.9414 76.2031 42.832Z" fill="#333333"/>
</svg>
