<svg xmlns="http://www.w3.org/2000/svg" width="220" height="70" fill="none"><path fill="#333" d="M57.582 34.79c-.875 0-1.458-.056-1.75-.165-.346-.164-.574-.538-.684-1.121a6.968 6.968 0 0 1-.082-1.176l-.109-1.777v-.684c-.018-.018-.027-.064-.027-.137l-.028-.3c-.018-.146-.1-.32-.246-.52a.631.631 0 0 1-.082-.246c0-.128.155-.164.465-.11a6.87 6.87 0 0 0 1.121.083c.292 0 .839-.018 1.64-.055.274-.018.912-.1 1.915-.246l.875-.191.219-.055c.164 0 .364.1.601.3.2.165.3.32.3.465 0 .183-.136.292-.41.329-.71.054-1.257.082-1.64.082l-.984.054a5.811 5.811 0 0 1-.602.055 91.381 91.381 0 0 1-2.05.082c0 1.276.009 2.069.027 2.379.036.51.064.911.082 1.203.036.292.082.483.136.574.037.073.1.128.192.164.11.019.21.037.3.055h.247c.018 0 .064.01.136.027h.52c.182 0 .492-.018.93-.054a11.86 11.86 0 0 0 1.64-.22c.128-.017.42-.026.875-.026.22 0 .429.1.63.3a.518.518 0 0 1 .136.383c0 .128-.036.219-.11.274-.109.054-.282.1-.519.136a51.878 51.878 0 0 1-3.664.137Zm1.777 5.085c-.182.237-.373.355-.574.355-.054 0-.082-.045-.082-.136 0-.128.037-.274.11-.438l.546-1.093c.019-.073.046-.146.082-.22.037-.072.064-.136.082-.19v-.028c0-.036-.027-.073-.082-.11a.23.23 0 0 0-.191-.027c-.292.019-.73.064-1.313.137-.565.073-.984.146-1.257.219l-.41.136a1.07 1.07 0 0 1-.356.083c-.328 0-.602-.1-.82-.301a1.685 1.685 0 0 1-.41-.383l-.055-.137c0-.091.155-.118.465-.082.419.037 1.285-.018 2.597-.164l.547-.082c.146-.018.374-.046.684-.082.328-.055.583-.11.766-.164l.164-.055a.44.44 0 0 1 .191-.054c.091 0 .2.045.328.136.146.091.264.173.356.246.127.092.21.174.246.246.054.055.073.128.054.22 0 .09-.045.172-.136.245a2.606 2.606 0 0 0-.192.164 4.386 4.386 0 0 1-.383.41 4.489 4.489 0 0 1-.492.602 58.61 58.61 0 0 0-.465.547Zm-1.367 5.387c0-.055.091-.192.274-.41.2-.237.355-.42.465-.547.273-.365.601-.894.984-1.586.4-.693.629-1.149.683-1.367.037-.11-.018-.164-.164-.164-.291 0-1.093.081-2.406.246-.857.109-1.495.218-1.914.328a.528.528 0 0 1-.273.082c-.146 0-.301-.1-.465-.301a.725.725 0 0 1-.11-.355c0-.073.046-.146.137-.22l.082-.109c.055-.109.119-.255.192-.437.073-.182.136-.356.191-.52.091-.291.155-.61.191-.957.019-.2.128-.255.328-.164.256.128.447.255.575.383.146.11.191.191.136.246a2.726 2.726 0 0 0-.437.738 7.343 7.343 0 0 0-.164.575c0 .073.045.109.137.109.273 0 .683-.046 1.23-.137l1.148-.136c.456-.055.82-.11 1.094-.164l.684-.137a.713.713 0 0 1 .219-.028c.09 0 .182.037.273.11.091.054.191.127.3.219.183.164.302.3.356.41.055.09.082.2.082.328 0 .073-.054.164-.164.273-.09.11-.2.283-.328.52-.529 1.075-1.212 1.978-2.05 2.707a3.775 3.775 0 0 1-.794.465 3.25 3.25 0 0 1-.355.082c-.091 0-.137-.028-.137-.082Zm8.86-10.828c.054 0 .109.027.164.082a.266.266 0 0 1 .109.164v.054c0 .128-.1.374-.3.739l-1.97 3.418c-.145.31-.337.465-.574.465-.237 0-.437-.146-.601-.438a9.248 9.248 0 0 1-.602-1.066 3.33 3.33 0 0 1-.273-.493 9.53 9.53 0 0 0-.164-.355c-.2-.346-.301-.593-.301-.738 0-.073.027-.128.082-.164.055-.055.11-.082.164-.082.2 0 .383.109.547.328.127.127.228.264.3.41l.301.41.547.629.246-.383c.256-.437.857-1.303 1.805-2.598.2-.255.374-.382.52-.382Zm-32.43-4.457c0 .182-.137.4-.41.656-.255.255-.483.383-.684.383-.2 0-.428-.174-.684-.52-1.038-1.404-2.068-2.588-3.09-3.555-.236-.2-.355-.373-.355-.52 0-.145.128-.318.383-.519.219-.164.41-.246.574-.246.2 0 .647.32 1.34.957a25.772 25.772 0 0 1 1.969 2.024c.638.71.957 1.157.957 1.34Zm-7.356 14.52c0-.183.055-.32.165-.411.109-.091.31-.164.601-.219.875-.164 1.55-.255 2.023-.273 1.076-.948 1.987-1.896 2.735-2.844a.479.479 0 0 0 .054-.137c0-.2-.683-.756-2.05-1.668-.492-.328-.739-.683-.739-1.066a1.4 1.4 0 0 1 .11-.52c.091-.182.319-.537.683-1.066.365-.547.857-1.258 1.477-2.133l-2.625.328a4.54 4.54 0 0 1-.547.028c-.255 0-.538-.073-.848-.22-.31-.163-.537-.519-.683-1.066a.38.38 0 0 1-.027-.164c0-.127.054-.191.164-.191l.164.027c.273.055.556.082.847.082.2 0 .347-.009.438-.027l4.21-.438.301-.027c.22 0 .456.1.712.301.255.2.382.41.382.629 0 .146-.073.292-.218.437a1.82 1.82 0 0 0-.274.274c-.62.784-1.203 1.55-1.75 2.297-.547.729-.82 1.13-.82 1.203 0 .073.045.136.137.191 1.057.693 1.786 1.24 2.187 1.64.42.402.629.776.629 1.122 0 .328-.164.684-.492 1.066-.328.365-.985 1.003-1.969 1.914.674.055 1.313.146 1.914.274 7.857 1.531 13.772 2.297 17.746 2.297h.137c.42 0 .629.082.629.246 0 .054-.064.219-.192.492-.127.273-.3.52-.52.738a.934.934 0 0 1-.71.328h-.137c-2.206-.073-4.903-.364-8.094-.875a237.259 237.259 0 0 1-9.105-1.64c-1.094-.219-1.969-.328-2.625-.328-.912 0-1.869.164-2.871.492a1.471 1.471 0 0 1-.465.082c-.182 0-.346-.082-.492-.246-.128-.183-.192-.492-.192-.93Zm7.082-1.423c0-.218.128-.52.383-.902a15.665 15.665 0 0 0 1.996-4.266c.438-1.513.72-2.98.848-4.402.128-1.44.191-3.053.191-4.84 0-1.312-.118-2.178-.355-2.598a.692.692 0 0 1-.11-.328c0-.11.074-.164.22-.164.364 0 1.066.283 2.105.848l7.191-.492c.584-.037 1.012-.137 1.285-.301a.528.528 0 0 1 .274-.082c.255 0 .556.173.902.52.346.328.52.592.52.792 0 .256-.183.401-.547.438l-9.68.574a136.98 136.98 0 0 1-.11 3.39l8.04-.491.492-.028c.292 0 .538.082.738.246.2.146.347.31.438.492.09.165.136.283.136.356 0 .146-.063.31-.19.492a3.752 3.752 0 0 0-.274.438c-.839 1.987-1.905 3.755-3.2 5.304 3.263 3.081 4.895 4.804 4.895 5.168 0 .128-.128.328-.383.602-.237.273-.456.41-.656.41-.146 0-.3-.1-.465-.3a72.555 72.555 0 0 0-4.457-4.704c-.82.802-1.723 1.55-2.707 2.242-.966.693-1.841 1.249-2.625 1.668-.784.42-1.285.63-1.504.63-.182 0-.273-.065-.273-.192 0-.237.227-.51.683-.82 2.06-1.386 3.837-2.908 5.332-4.567A86.31 86.31 0 0 0 40 35.309c-.128-.128-.191-.256-.191-.383 0-.164.09-.356.273-.574.182-.22.374-.329.574-.329.128 0 .42.192.875.575.456.364 1.377 1.166 2.762 2.406 1.185-1.531 2.042-3.117 2.57-4.758l-7.71.465c-.165 2.187-.575 4.083-1.231 5.687-.638 1.586-1.322 2.808-2.05 3.664-.73.839-1.24 1.258-1.532 1.258-.128 0-.192-.082-.192-.246ZM96.273 31.781c-.018 0-.082.018-.191.055-.091.018-.137-.01-.137-.082 0-.018.037-.055.11-.11l.191-.19c.055-.056.137-.128.246-.22.11-.109.192-.218.246-.328a4.87 4.87 0 0 0 .575-1.367l.164-.957c.127-.71.182-1.54.164-2.488 0-.219-.028-.447-.082-.684-.019-.11-.11-.264-.274-.465v-.027c0-.037.046-.055.137-.055.127 0 .237.01.328.028.237.054.501.082.793.082.31-.019.501-.028.574-.028l1.832-.136c.365-.037.602-.055.711-.055.784-.11 1.139-.155 1.067-.137.419-.073.674-.11.765-.11.292.019.584.247.875.684l.055.137c0 .11-.082.173-.246.192a4.129 4.129 0 0 1-.301.027c-.565 0-.984.009-1.258.027-.693 0-1.203.01-1.531.028l-.766.054-1.558.164c-.11 1.532-.21 2.534-.301 3.008-.146.857-.428 1.55-.848 2.078-.31.401-.756.693-1.34.875Zm6.891 7.739c-.273 0-.538-.201-.793-.602a8.639 8.639 0 0 0-.957-1.258l-.711-.738c-.383.437-.72.784-1.012 1.039-.273.255-.62.501-1.039.738-.784.456-1.44.684-1.968.684-.128 0-.192-.046-.192-.137 0-.055.173-.173.52-.355.346-.183.674-.401.984-.657.784-.656 1.431-1.33 1.942-2.023-.11-.11-.657-.583-1.641-1.422a9.322 9.322 0 0 1-.574-.465 7.133 7.133 0 0 1-.329-.246c-.163-.128-.246-.219-.246-.273 0-.091.046-.137.137-.137.274 0 .711.191 1.313.574.601.365 1.23.802 1.886 1.313.256-.31.456-.602.602-.875.146-.274.31-.611.492-1.012.091-.2.146-.374.164-.52.018-.164.028-.264.028-.3 0-.2.054-.301.164-.301.127 0 .3.1.519.3.383.365.574.611.574.739 0 .073-.045.155-.136.246-.219.219-.42.51-.602.875-.109.219-.31.529-.601.93-.092.11-.165.21-.219.3-.055.092-.11.174-.164.247.419.31 1.039.838 1.859 1.586.201.182.328.355.383.52.073.145.109.345.109.6a.78.78 0 0 1-.136.465.443.443 0 0 1-.356.165Zm-.656 8.285c-.073 0-.155-.037-.246-.11a2.707 2.707 0 0 1-.356-.273c-.638-.492-1.258-1.23-1.859-2.215a10.425 10.425 0 0 1-1.285-3.2 4.996 4.996 0 0 0-.082-.382 1.695 1.695 0 0 0-.11-.328c0-.018-.027-.027-.082-.027-.127 0-.373.082-.738.246-.11.054-.219.136-.328.246-.091.09-.191.127-.3.11-.074 0-.174-.047-.302-.138a1.266 1.266 0 0 1-.273-.246c-.182-.255-.274-.41-.274-.465 0-.109.1-.173.301-.191.274 0 .447-.01.52-.027a7.874 7.874 0 0 0 1.504-.356c.073-.018.173-.073.3-.164a.21.21 0 0 0 .083-.027c.054-.018.118 0 .19.054.274.183.411.32.411.41 0 1.277.365 2.47 1.094 3.583.729 1.112 1.795 2.05 3.199 2.816.073.037.164.073.273.11.11.036.164.09.164.163 0 .092-.3.174-.902.247l-.683.109-.219.055Zm6.234-12.168c.219 0 .328.1.328.3 0 .11-.1.265-.3.465-.547.675-1.632 1.96-3.254 3.856-.128.164-.246.246-.356.246-.091 0-.292-.137-.601-.41-.256-.219-.383-.401-.383-.547 0-.164.136-.32.41-.465.419-.237 1.048-.71 1.887-1.422.838-.747 1.458-1.34 1.859-1.777.164-.164.301-.246.41-.246ZM74.125 47.148v.082c0 .42-.182.63-.547.63-.31 0-.629-.11-.957-.329-.328-.218-.492-.538-.492-.957l.027-.273c.055-.492.082-.985.082-1.477v-.328l-.574-14.574c-.036-.656-.155-1.176-.355-1.559-.11-.255-.165-.41-.165-.465 0-.127.092-.191.274-.191.292 0 .957.182 1.996.547l17.09-.93h.273c.401 0 .73.119.985.356.273.237.41.474.41.71a.68.68 0 0 1-.082.301 1.947 1.947 0 0 0-.082.247l-.793 14.519c.583.638.875 1.094.875 1.367 0 .146-.082.246-.246.301a4.226 4.226 0 0 1-.711.082l-17.063.41.055 1.531Zm-.137-3.144 15.422-.465.766-14.547-16.762.82.574 14.192Zm2.899-11.402c0-.11.09-.164.273-.164.31 0 .93.164 1.86.492l5.605-.328h.246c.31 0 .593.109.848.328.273.218.41.428.41.629a.68.68 0 0 1-.082.3c-.055.11-.091.2-.11.274l-.464 4.156c.492.565.738.966.738 1.203 0 .128-.064.21-.192.246a3.3 3.3 0 0 1-.628.082l-5.934.274.027.355v.082c0 .438-.155.657-.465.657-.072 0-.218-.028-.437-.083a2.45 2.45 0 0 1-.601-.328c-.183-.164-.274-.392-.274-.683v-.137c.037-.438.055-.757.055-.957l-.028-.574-.3-3.91c-.037-.638-.155-1.13-.356-1.477-.127-.219-.191-.364-.191-.437Zm2.46 6.015 4.512-.219.329-4.265-5.114.273.274 4.211ZM145.984 28.965c0 .4-.018.784-.054 1.148l-.055 1.532c-.018.419-.073 1.12-.164 2.105-.018.292-.109.52-.273.684-.146.164-.283.246-.411.246-.145-.019-.273-.146-.382-.383a1.577 1.577 0 0 1-.083-.766c.019-.146.073-.747.165-1.804.036-1.13.018-1.887-.055-2.27-.018-.128-.146-.21-.383-.246h-.766l-1.257.11a12.05 12.05 0 0 0-1.149.163c-.492.091-.893.174-1.203.246-.018.62-.009 1.404.027 2.352l.11 1.86c0 .163-.046.31-.137.437-.073.128-.164.191-.273.191-.219 0-.392-.145-.52-.437a1.633 1.633 0 0 1-.164-.739l-.027-.464-.055-1.559c0-.456-.018-1.103-.055-1.941 0-.146-.009-.256-.027-.328a.832.832 0 0 1-.027-.137.583.583 0 0 1-.028-.192c0-.145.073-.218.219-.218.109 0 .201.018.273.054l.493.164c.2-.036.373-.063.519-.082.164-.018.283-.036.356-.054.838-.128 1.877-.219 3.117-.274.456 0 .775-.045.957-.136a.297.297 0 0 1 .109-.055c.073-.037.128-.046.164-.027l.274.082a.616.616 0 0 1 .219.109.75.75 0 0 1 .191.137c.237.237.355.4.355.492Zm-.82 15.476c-.273 0-.538-.2-.793-.601a8.644 8.644 0 0 0-.957-1.258l-.711-.738c-.383.437-.72.784-1.012 1.039a5.413 5.413 0 0 1-1.039.738c-.784.456-1.44.684-1.968.684-.128 0-.192-.046-.192-.137 0-.055.173-.173.52-.355.346-.183.674-.402.984-.657.784-.656 1.431-1.33 1.942-2.023-.11-.11-.657-.584-1.641-1.422a9.141 9.141 0 0 1-.574-.465 7.016 7.016 0 0 1-.328-.246c-.165-.128-.247-.219-.247-.273 0-.092.046-.137.137-.137.274 0 .711.191 1.313.574.601.365 1.23.802 1.886 1.313.256-.31.456-.602.602-.875.146-.274.31-.611.492-1.012.091-.2.146-.374.164-.52.018-.164.028-.264.028-.3 0-.201.054-.301.164-.301.127 0 .3.1.519.3.383.365.574.611.574.739 0 .073-.045.155-.136.246-.219.219-.42.51-.602.875-.109.219-.31.529-.601.93-.092.109-.165.21-.219.3-.055.091-.11.174-.164.246.419.31 1.039.839 1.859 1.586.201.183.328.356.383.52.073.146.109.346.109.602a.78.78 0 0 1-.136.464.443.443 0 0 1-.356.164Zm2.078-9.625c.091 0 .228.064.41.192-.018.036.019.11.11.219l.191.191c.091.091.182.2.274.328.109.128.227.264.355.41.328.347 1.085 1.249 2.27 2.707.2.292.3.465.3.52 0 .182-.109.273-.328.273-.127 0-.264-.09-.41-.273-.346-.365-.966-.939-1.859-1.723-.693-.638-1.322-1.13-1.887-1.476-.273-.128-.41-.274-.41-.438 0-.128.137-.31.41-.547.255-.255.447-.383.574-.383Zm-28.847 12.688v.137c0 .455-.137.683-.411.683-.145 0-.355-.054-.629-.164a2.428 2.428 0 0 1-.683-.437c-.201-.183-.301-.392-.301-.63l.027-.19c.073-.584.11-1.058.11-1.422v-.383l-.465-16.625c-.036-.73-.164-1.304-.383-1.723-.109-.219-.164-.383-.164-.492 0-.146.091-.219.274-.219.328 0 .993.21 1.996.629l12.687-.629h.192c.273 0 .556.11.847.328.292.219.438.447.438.684a.916.916 0 0 1-.055.273 1.58 1.58 0 0 0-.082.274l-.492 16.515c.437.529.656.93.656 1.203 0 .146-.073.246-.219.301a2.675 2.675 0 0 1-.465.082h-.355l-12.578.465.055 1.34Zm-.465-14.957 11.949-.629.082-4.266-12.168.602.137 4.293Zm.164 5.66 11.648-.602.082-4.046-11.84.547.11 4.101Zm.218 6.371 11.293-.383.11-4.949-11.567.547.164 4.785ZM184.84 35.5c-.292 0-.474-.082-.547-.246a3.812 3.812 0 0 0-.273-.547c-.092-.164-.256-.355-.493-.574l.055-.11c.656.237 1.085.356 1.285.356.146 0 .255-.027.328-.082.073-.055.192-.182.356-.383.237-.255.456-.647.656-1.176.273-.784.447-1.595.52-2.433v-.082c0-.11-.019-.183-.055-.22-.237 0-.866.056-1.887.165-.565 1.404-1.221 2.561-1.969 3.473-.729.893-1.394 1.34-1.996 1.34-.146 0-.218-.055-.218-.165 0-.036.182-.246.546-.629.365-.382.766-.884 1.204-1.503.455-.638.884-1.422 1.285-2.352-.091 0-.356.018-.793.055a5.7 5.7 0 0 0-1.121.191.433.433 0 0 1-.465.055s-.018-.01-.055-.027a.428.428 0 0 1-.109-.083 1.185 1.185 0 0 1-.328-.273.725.725 0 0 1-.11-.355c0-.055.046-.128.137-.22l.328-.437c.109-.146.21-.355.301-.629.091-.291.137-.537.137-.738a.68.68 0 0 0-.028-.246.308.308 0 0 1-.027-.137c0-.09.045-.136.137-.136.109 0 .264.063.464.191.055.036.155.11.301.219.164.09.255.2.274.328 0 .127-.073.337-.219.629l-.356.629a.34.34 0 0 0-.054.191c0 .055.018.1.054.137a.343.343 0 0 0 .192 0l1.641-.219c.182-.474.328-.975.437-1.504v-.629c0-.2.055-.282.164-.246.237.055.428.128.574.219.274.164.41.3.41.41 0 .091-.036.246-.109.465a12.122 12.122 0 0 1-.383 1.176c.055 0 .392-.037 1.012-.11l.273-.054c.055 0 .155-.019.301-.055a.307.307 0 0 1 .137-.027c.219 0 .355.009.41.027.073.018.182.073.328.164.164.11.274.219.328.328.055.11.073.237.055.383l-.164.902-.191.985c0 .073-.064.31-.192.71a6.436 6.436 0 0 1-.437 1.067c-.31.62-.675 1.085-1.094 1.395-.365.291-.684.437-.957.437Zm2.324 8.941c-.273 0-.538-.2-.793-.601a8.644 8.644 0 0 0-.957-1.258l-.711-.738c-.383.437-.72.784-1.012 1.039a5.413 5.413 0 0 1-1.039.738c-.784.456-1.44.684-1.968.684-.128 0-.192-.046-.192-.137 0-.055.173-.173.52-.355.346-.183.674-.402.984-.657.784-.656 1.431-1.33 1.942-2.023-.11-.11-.657-.584-1.641-1.422a9.141 9.141 0 0 1-.574-.465 7.016 7.016 0 0 1-.328-.246c-.165-.128-.247-.219-.247-.273 0-.092.046-.137.137-.137.274 0 .711.191 1.313.574.601.365 1.23.802 1.886 1.313.256-.31.456-.602.602-.875.146-.274.31-.611.492-1.012.091-.2.146-.374.164-.52.018-.164.028-.264.028-.3 0-.201.054-.301.164-.301.127 0 .3.1.519.3.383.365.574.611.574.739 0 .073-.045.155-.136.246-.219.219-.42.51-.602.875-.109.219-.31.529-.601.93-.092.109-.165.21-.219.3-.055.091-.11.174-.164.246.419.31 1.039.839 1.859 1.586.201.183.328.356.383.52.073.146.109.346.109.602a.78.78 0 0 1-.136.464.443.443 0 0 1-.356.164Zm2.078-9.625c.091 0 .228.064.41.192-.018.036.019.11.11.219l.191.191c.091.091.182.2.274.328.109.128.227.264.355.41.328.347 1.085 1.249 2.27 2.707.2.292.3.465.3.52 0 .182-.109.273-.328.273-.127 0-.264-.09-.41-.273-.346-.365-.966-.939-1.859-1.723-.693-.638-1.322-1.13-1.887-1.476-.273-.128-.41-.274-.41-.438 0-.128.137-.31.41-.547.255-.255.447-.383.574-.383Zm-32.73 3.008a7.09 7.09 0 0 1-.684.028h-.137a.957.957 0 0 1-.656-.274 2.162 2.162 0 0 1-.437-.629c-.091-.237-.137-.41-.137-.52 0-.109.046-.163.137-.163.018 0 .082.018.191.054.219.073.538.11.957.11h.301l2.16-.137.027-2.352-.328.028a5.893 5.893 0 0 1-.629.027c-.419 0-.738-.21-.957-.629-.656.912-1.34 1.741-2.05 2.489-.693.729-1.158 1.093-1.395 1.093-.091 0-.137-.054-.137-.164 0-.146.091-.364.274-.656a46.59 46.59 0 0 0 2.816-4.484c.82-1.495 1.458-2.808 1.914-3.938.456-1.13.684-1.914.684-2.352 0-.31.1-.464.301-.464.255 0 .583.155.984.465.419.291.629.555.629.792 0 .11-.21.584-.629 1.422.82.565 1.659 1.194 2.516 1.887.856.693 1.285 1.176 1.285 1.45 0 .181-.101.41-.301.683-.182.273-.365.41-.547.41-.164 0-.374-.137-.629-.41-.784-.857-1.759-1.796-2.926-2.817a51.803 51.803 0 0 1-2.297 3.883l.356.028.328-.028 2.625-.191c.383-.037.665-.091.848-.164a.486.486 0 0 1 .219-.055c.236 0 .51.137.82.41.31.255.465.474.465.657 0 .2-.21.319-.629.355l-2.051.164-.027 2.352 1.039-.055c.455-.037.802-.1 1.039-.191a.861.861 0 0 1 .246-.055c.255 0 .538.155.848.465.309.31.464.547.464.71 0 .201-.2.32-.601.356l-3.063.191-.054 6.235a92.094 92.094 0 0 0 3.089-1.094c.31-.11.547-.164.711-.164.201 0 .301.055.301.164 0 .237-.656.711-1.969 1.422a47.01 47.01 0 0 1-4.183 1.969c-1.495.62-2.47.93-2.926.93-.328 0-.611-.146-.848-.438a3.871 3.871 0 0 1-.492-.766.464.464 0 0 1-.082-.218c0-.11.091-.174.274-.192.437-.018.966-.091 1.586-.219.619-.145 1.622-.437 3.007-.875l.055-6.644-1.695.11Zm-1.586 1.586c0-.164.1-.3.301-.41.218-.11.41-.164.574-.164.219 0 .392.137.519.41.347.693.647 1.431.903 2.215.273.766.41 1.23.41 1.395a.481.481 0 0 1-.137.355c-.073.073-.219.146-.437.219-.164.073-.319.11-.465.11-.146 0-.255-.047-.328-.138-.073-.09-.128-.237-.164-.437a21.004 21.004 0 0 0-1.067-3.172c-.073-.219-.109-.346-.109-.383Zm5.195 3.61c0-.146.055-.356.164-.63.766-1.695 1.149-2.834 1.149-3.417a3.46 3.46 0 0 0-.055-.438l-.027-.164c0-.2.1-.3.3-.3.201 0 .493.127.875.382.383.237.575.456.575.656 0 .183-.219.666-.657 1.45a15.942 15.942 0 0 1-1.504 2.187.757.757 0 0 0-.136.164c-.237.237-.41.356-.52.356-.109 0-.164-.082-.164-.246Zm2.543 1.23c0-.11.055-.173.164-.191h.082c.529-.073 1.176-.338 1.942-.793.783-.474 2.014-1.45 3.691-2.926.273-.255.51-.383.711-.383.128 0 .191.064.191.191 0 .22-.41.83-1.23 1.832a38.01 38.01 0 0 1-2.543 2.817c-.274.273-.492.465-.656.574a1.006 1.006 0 0 1-.493.137c-.255 0-.528-.073-.82-.219a3.357 3.357 0 0 1-.738-.547c-.201-.2-.301-.364-.301-.492Zm.301-10.91c0-.11.036-.164.109-.164.055 0 .1.009.137.027.456.128.866.191 1.23.191h.192l5.933-.3 1.067-2.024-4.184.22a6.026 6.026 0 0 0-.519.081 2.308 2.308 0 0 1-.41.055c-.292 0-.511-.137-.657-.41-.146-.292-.218-.52-.218-.684 0-.164.054-.337.164-.52.127-.2.218-.346.273-.437l2.051-4.047c.091-.182.137-.41.137-.683a.962.962 0 0 0-.028-.274l-.027-.191c0-.2.091-.301.273-.301.274 0 .602.137.985.41.382.273.574.492.574.656 0 .11-.046.237-.137.383l-.465.848 4.43-.274h.328c.328 0 .602.1.82.301.237.182.356.383.356.602 0 .127-.055.273-.164.437-.11.164-.192.31-.246.438-1.167 2.442-2.042 4.21-2.625 5.304l3.199-.164c.456-.036.839-.118 1.148-.246a.684.684 0 0 1 .301-.082c.164 0 .356.091.574.274.219.164.411.355.575.574.164.219.246.373.246.465 0 .2-.201.319-.602.355l-6.535.328.027 4.348.219-.164a10.32 10.32 0 0 0 1.887-1.805c.583-.729.929-1.321 1.039-1.777.055-.2.137-.3.246-.3.109 0 .273.1.492.3.237.182.447.4.629.656.182.255.273.492.273.711a.442.442 0 0 1-.191.383c-2.279 1.64-3.801 2.534-4.566 2.68l.054 6.535c0 .182.009.392.028.629.036.237.054.437.054.601 0 .383-.127.693-.382.93-.237.237-.502.355-.793.355-.292 0-.748-.21-1.368-.629a13.854 13.854 0 0 1-1.695-1.394c-.51-.492-.765-.839-.765-1.04 0-.109.072-.163.218-.163.164 0 .383.073.656.218.803.438 1.614.757 2.434.958l-.082-11.95-4.484.246a8.772 8.772 0 0 1-.766.028c-.401 0-.665-.064-.793-.192-.2-.2-.364-.428-.492-.683-.109-.274-.164-.483-.164-.63Zm1.64 3.445c0-.182.119-.373.356-.574.237-.2.41-.3.519-.3.11 0 .438.227.985.683.565.456 1.084.93 1.558 1.422.493.474.739.793.739.957 0 .182-.128.4-.383.656-.237.255-.447.383-.629.383-.146 0-.273-.073-.383-.219a26.071 26.071 0 0 0-2.488-2.57c-.182-.183-.274-.328-.274-.438Zm7.711-7.11c.347-.692.702-1.448 1.067-2.269l-4.758.246-1.23 2.242 4.921-.218Zm-.875 11.075c0-.182.073-.365.219-.547.164-.2.356-.3.574-.3.219 0 .939.4 2.161 1.203a47.825 47.825 0 0 1 3.39 2.378c.274.2.419.42.438.657 0 .127-.082.346-.246.656-.146.292-.338.447-.575.465h-.054c-.128 0-.31-.1-.547-.301a53.003 53.003 0 0 0-5.004-3.664c-.237-.128-.356-.31-.356-.547Z"/></svg>