<svg width="150" height="60" viewBox="0 0 150 60" fill="none" xmlns="http://www.w3.org/2000/svg">
<path d="M44.6758 27.4648C44.3841 27.4648 44.2109 27.319 44.1562 27.0273C44.0469 26.7174 43.7552 26.3346 43.2812 25.8789L43.3633 25.7695C43.4362 25.806 43.6458 25.8971 43.9922 26.043C44.3385 26.1706 44.5755 26.2344 44.7031 26.2344C44.8125 26.2344 44.8945 26.2344 44.9492 26.2344C45.0039 26.2161 45.0677 26.1706 45.1406 26.0977C45.3594 25.9336 45.6328 25.5599 45.9609 24.9766C46.1979 24.5026 46.4076 23.9466 46.5898 23.3086C46.7904 22.6706 46.8906 22.1875 46.8906 21.8594C46.8906 21.7682 46.8177 21.7227 46.6719 21.7227L45.6328 21.7773L44.9219 21.832L44.457 21.8594L44.2656 21.8867C44.3932 21.9779 44.4753 22.0599 44.5117 22.1328C44.5664 22.1875 44.5938 22.2604 44.5938 22.3516C44.5938 22.4427 44.4844 22.6979 44.2656 23.1172C44.0833 23.5182 43.7917 23.974 43.3906 24.4844C43.0625 24.9219 42.6159 25.3958 42.0508 25.9062C41.5039 26.3984 41.0938 26.6536 40.8203 26.6719C40.7656 26.6719 40.7109 26.6628 40.6562 26.6445C40.6198 26.6081 40.6016 26.5625 40.6016 26.5078C40.6016 26.4896 40.7474 26.3164 41.0391 25.9883L41.8047 25.0859C42.3516 24.3568 42.9076 23.4271 43.4727 22.2969C43.5273 22.151 43.5 22.069 43.3906 22.0508C43.2812 22.069 43.0534 22.0964 42.707 22.1328C42.3607 22.151 42.0508 22.2057 41.7773 22.2969C41.7591 22.2969 41.6953 22.3242 41.5859 22.3789C41.4766 22.4154 41.3854 22.4336 41.3125 22.4336C41.2031 22.4336 41.112 22.3971 41.0391 22.3242L40.8203 22.1328C40.6562 22.0052 40.5742 21.8867 40.5742 21.7773C40.5742 21.7409 40.5924 21.6862 40.6289 21.6133L40.7656 21.3945C40.8385 21.3034 40.957 21.1576 41.1211 20.957C41.2852 20.7565 41.4674 20.4831 41.668 20.1367C41.7044 20.0638 41.7773 19.8997 41.8867 19.6445C42.0143 19.3893 42.0781 19.2344 42.0781 19.1797V19.0703C42.0781 18.9609 42.0964 18.888 42.1328 18.8516C42.1693 18.8151 42.2513 18.8151 42.3789 18.8516C42.5065 18.888 42.6615 18.9883 42.8438 19.1523L43.1445 19.4531C43.1992 19.5078 43.2266 19.5716 43.2266 19.6445C43.2266 19.8268 42.9714 20.1549 42.4609 20.6289C42.3698 20.7201 42.2604 20.8568 42.1328 21.0391C42.0052 21.2214 41.9414 21.3398 41.9414 21.3945C41.9414 21.5039 42.0234 21.5404 42.1875 21.5039L42.8164 21.4219C44.2565 21.2031 45.3411 21.0755 46.0703 21.0391L46.8086 20.9297L47.0547 20.875L47.1914 20.8477C47.3372 20.8477 47.4375 20.8659 47.4922 20.9023C47.5469 20.9388 47.6016 21.0026 47.6562 21.0938C47.7109 21.1667 47.7656 21.2305 47.8203 21.2852C47.9479 21.431 48.0391 21.5586 48.0938 21.668L48.1484 21.9141L48.0938 22.0234L48.0391 22.1875C48.0026 22.2786 47.9753 22.3698 47.957 22.4609C47.9388 22.5339 47.9115 22.6159 47.875 22.707C47.4922 24.1836 47.0456 25.332 46.5352 26.1523C46.3711 26.444 46.0885 26.7357 45.6875 27.0273C45.3047 27.319 44.9674 27.4648 44.6758 27.4648ZM47.1641 34.5195C46.8906 34.5195 46.6263 34.319 46.3711 33.918C46.043 33.4076 45.724 32.9883 45.4141 32.6602L44.7031 31.9219C44.3203 32.3594 43.9831 32.7057 43.6914 32.9609C43.418 33.2161 43.0716 33.4622 42.6523 33.6992C41.8685 34.1549 41.2122 34.3828 40.6836 34.3828C40.556 34.3828 40.4922 34.3372 40.4922 34.2461C40.4922 34.1914 40.6654 34.0729 41.0117 33.8906C41.3581 33.7083 41.6862 33.4896 41.9961 33.2344C42.7799 32.5781 43.4271 31.9036 43.9375 31.2109C43.8281 31.1016 43.2812 30.6276 42.2969 29.7891C42.1693 29.6979 41.9779 29.543 41.7227 29.3242C41.668 29.2878 41.5586 29.2057 41.3945 29.0781C41.2305 28.9505 41.1484 28.8594 41.1484 28.8047C41.1484 28.7135 41.194 28.668 41.2852 28.668C41.5586 28.668 41.9961 28.8594 42.5977 29.2422C43.1992 29.6068 43.8281 30.0443 44.4844 30.5547C44.7396 30.2448 44.9401 29.9531 45.0859 29.6797C45.2318 29.4062 45.3958 29.069 45.5781 28.668C45.6693 28.4674 45.724 28.2943 45.7422 28.1484C45.7604 27.9844 45.7695 27.8841 45.7695 27.8477C45.7695 27.6471 45.8242 27.5469 45.9336 27.5469C46.0612 27.5469 46.2344 27.6471 46.4531 27.8477C46.8359 28.2122 47.0273 28.4583 47.0273 28.5859C47.0273 28.6589 46.9818 28.7409 46.8906 28.832C46.6719 29.0508 46.4714 29.3424 46.2891 29.707C46.1797 29.9258 45.9792 30.2357 45.6875 30.6367C45.5964 30.7461 45.5234 30.8464 45.4688 30.9375C45.4141 31.0286 45.3594 31.1107 45.3047 31.1836C45.724 31.4935 46.3438 32.0221 47.1641 32.7695C47.3646 32.9518 47.4922 33.125 47.5469 33.2891C47.6198 33.4349 47.6562 33.6354 47.6562 33.8906C47.6562 34.0729 47.6107 34.2279 47.5195 34.3555C47.4284 34.4648 47.3099 34.5195 47.1641 34.5195ZM46.5078 42.8047C46.4349 42.8047 46.3529 42.7682 46.2617 42.6953C46.1706 42.6406 46.0521 42.5495 45.9062 42.4219C45.2682 41.9297 44.6484 41.1914 44.0469 40.207C43.4453 39.2227 43.0169 38.1562 42.7617 37.0078C42.7435 36.8984 42.7161 36.7708 42.6797 36.625C42.6432 36.4792 42.6068 36.3698 42.5703 36.2969C42.5703 36.2786 42.543 36.2695 42.4883 36.2695C42.3607 36.2695 42.1146 36.3516 41.75 36.5156C41.6406 36.5703 41.5312 36.6523 41.4219 36.7617C41.3307 36.8529 41.2305 36.8893 41.1211 36.8711C41.0482 36.8711 40.9479 36.8255 40.8203 36.7344C40.6927 36.6432 40.6016 36.5612 40.5469 36.4883C40.3646 36.2331 40.2734 36.0781 40.2734 36.0234C40.2734 35.9141 40.3737 35.8503 40.5742 35.832C40.8477 35.832 41.0208 35.8229 41.0938 35.8047C41.6224 35.7318 42.1237 35.6133 42.5977 35.4492C42.6706 35.431 42.7708 35.3763 42.8984 35.2852C42.9167 35.2852 42.944 35.276 42.9805 35.2578C43.0352 35.2396 43.099 35.2578 43.1719 35.3125C43.4453 35.4948 43.582 35.6315 43.582 35.7227C43.582 36.9987 43.9466 38.1927 44.6758 39.3047C45.4049 40.4167 46.4714 41.3555 47.875 42.1211C47.9479 42.1576 48.0391 42.194 48.1484 42.2305C48.2578 42.2669 48.3125 42.3216 48.3125 42.3945C48.3125 42.4857 48.0117 42.5677 47.4102 42.6406L46.7266 42.75L46.5078 42.8047ZM49.2422 32.8242C49.3333 32.8242 49.4701 32.888 49.6523 33.0156C49.6341 33.0521 49.6706 33.125 49.7617 33.2344C49.8529 33.3255 49.9167 33.3893 49.9531 33.4258C50.0443 33.5169 50.1354 33.6263 50.2266 33.7539C50.3359 33.8815 50.4544 34.0182 50.582 34.1641C50.9102 34.5104 51.6667 35.4128 52.8516 36.8711C53.0521 37.1628 53.1523 37.3359 53.1523 37.3906C53.1523 37.5729 53.043 37.6641 52.8242 37.6641C52.6966 37.6641 52.5599 37.5729 52.4141 37.3906C52.0677 37.026 51.4479 36.4518 50.5547 35.668C49.862 35.0299 49.2331 34.5378 48.668 34.1914C48.3945 34.0638 48.2578 33.918 48.2578 33.7539C48.2578 33.6263 48.3945 33.444 48.668 33.207C48.9232 32.9518 49.1146 32.8242 49.2422 32.8242ZM21.1328 39.7148C22.8464 39.4049 24.487 39.0677 26.0547 38.7031C26.3099 38.6484 26.5104 38.6211 26.6562 38.6211C26.9844 38.6211 27.1484 38.7031 27.1484 38.8672C27.1484 39.1406 26.2552 39.5508 24.4688 40.0977C22.7005 40.6263 20.75 41.1367 18.6172 41.6289C16.5026 42.1211 15.3086 42.3672 15.0352 42.3672C14.7799 42.3672 14.5794 42.3125 14.4336 42.2031C14.1784 41.9479 14.0052 41.7474 13.9141 41.6016C13.8229 41.474 13.7227 41.2552 13.6133 40.9453L13.5859 40.8086C13.5859 40.6445 13.6589 40.5625 13.8047 40.5625C13.8776 40.5625 13.9323 40.5716 13.9688 40.5898C14.3333 40.6628 14.5977 40.6992 14.7617 40.6992C15.0352 40.6992 15.6641 40.6263 16.6484 40.4805C17.6328 40.3346 18.5807 40.1797 19.4922 40.0156L19.5195 36.9805L17.5781 37.0898H17.1406C16.7031 37.0898 16.4023 37.026 16.2383 36.8984C16.0378 36.7526 15.8737 36.5703 15.7461 36.3516C15.6185 36.1146 15.5547 35.9141 15.5547 35.75C15.5547 35.6953 15.582 35.668 15.6367 35.668C15.6914 35.668 15.737 35.6771 15.7734 35.6953C16.0833 35.7865 16.4479 35.832 16.8672 35.832H17.1133L19.5469 35.6953L19.5742 33.3711L16.4844 33.5625C16.3203 33.5807 16.1016 33.5898 15.8281 33.5898C15.5 33.5898 15.2174 33.5078 14.9805 33.3438C14.7435 33.1797 14.5247 32.8424 14.3242 32.332C14.306 32.2956 14.2969 32.2409 14.2969 32.168C14.2969 32.1133 14.3242 32.0859 14.3789 32.0859L14.5156 32.1133C14.8802 32.2044 15.2904 32.25 15.7461 32.25H16.0195L18.6445 32.1133L18.4805 31.8945C17.9701 31.1107 17.4141 30.418 16.8125 29.8164C16.6484 29.6523 16.5664 29.5156 16.5664 29.4062C16.5664 29.3333 16.6484 29.1966 16.8125 28.9961C16.9948 28.7956 17.1862 28.6953 17.3867 28.6953C17.5508 28.6953 17.8242 28.8958 18.207 29.2969C18.6081 29.6797 18.9818 30.1081 19.3281 30.582C19.6745 31.0378 19.8477 31.3294 19.8477 31.457C19.8477 31.6393 19.6745 31.8398 19.3281 32.0586L20.6133 32.0039C21.2878 31.0924 21.7161 30.4089 21.8984 29.9531C22.099 29.4974 22.2083 29.0964 22.2266 28.75C22.2266 28.5495 22.2995 28.4492 22.4453 28.4492C22.5182 28.4492 22.6732 28.5039 22.9102 28.6133C23.1654 28.7044 23.3932 28.8229 23.5938 28.9688C23.7943 29.1146 23.8945 29.2604 23.8945 29.4062C23.8945 29.5703 23.7122 29.8893 23.3477 30.3633C22.9831 30.819 22.5091 31.3385 21.9258 31.9219L23.8125 31.8125C24.2135 31.7943 24.5599 31.7214 24.8516 31.5938C24.9609 31.5391 25.0703 31.5117 25.1797 31.5117C25.4531 31.5117 25.7357 31.6576 26.0273 31.9492C26.3372 32.2409 26.4922 32.4688 26.4922 32.6328C26.4922 32.8516 26.2826 32.9792 25.8633 33.0156L21.2422 33.2891L21.2148 35.6133L22.6914 35.5312C23.0195 35.513 23.375 35.4401 23.7578 35.3125C23.9401 35.276 24.0495 35.2578 24.0859 35.2578C24.2682 35.2578 24.4596 35.3307 24.6602 35.4766C24.8607 35.6042 25.0339 35.7591 25.1797 35.9414C25.3255 36.1237 25.3984 36.2604 25.3984 36.3516C25.3984 36.5339 25.1797 36.6432 24.7422 36.6797L21.1875 36.8711L21.1328 39.7148ZM13.0938 27.1914C13.0938 27.1003 13.1393 27.0547 13.2305 27.0547L13.3672 27.082C13.7682 27.1732 14.151 27.2188 14.5156 27.2188H14.7617L18.3438 27L18.0977 21.5312C18.0794 21.112 17.9609 20.7474 17.7422 20.4375C17.6146 20.2552 17.5508 20.1185 17.5508 20.0273C17.5508 19.8997 17.6419 19.8359 17.8242 19.8359C18.0065 19.8359 18.3346 19.9089 18.8086 20.0547C19.1732 20.1641 19.4102 20.2734 19.5195 20.3828C19.6289 20.474 19.6836 20.6289 19.6836 20.8477L19.8203 26.8906L21.2695 26.8086L21.4336 21.2305V21.0664C21.4336 20.8477 21.4062 20.6654 21.3516 20.5195C21.3151 20.3737 21.2422 20.2096 21.1328 20.0273C21.0599 19.8997 21.0234 19.7904 21.0234 19.6992C21.0234 19.5716 21.1146 19.5078 21.2969 19.5078C21.8073 19.5625 22.2357 19.6719 22.582 19.8359C22.9284 20 23.1016 20.2005 23.1016 20.4375V20.5195L22.7734 26.6992L24.6328 26.5898C24.9792 26.5716 25.3529 26.4805 25.7539 26.3164C25.8997 26.2617 26.0182 26.2344 26.1094 26.2344C26.3646 26.2344 26.6654 26.3893 27.0117 26.6992C27.3581 27.0091 27.5312 27.2552 27.5312 27.4375C27.5312 27.6562 27.3125 27.7839 26.875 27.8203L15.2539 28.5312C15.0534 28.5495 14.8164 28.5586 14.543 28.5586C14.2878 28.5586 14.0326 28.4857 13.7773 28.3398C13.5221 28.194 13.3034 27.8568 13.1211 27.3281C13.1029 27.2917 13.0938 27.2461 13.0938 27.1914ZM14.1875 22.625C14.1875 22.4974 14.2969 22.3424 14.5156 22.1602C14.7526 21.9779 14.9167 21.8867 15.0078 21.8867C15.1719 21.8867 15.4635 22.1602 15.8828 22.707C16.3021 23.2357 16.694 23.819 17.0586 24.457C17.4414 25.0768 17.6328 25.4596 17.6328 25.6055C17.6328 25.806 17.4961 25.9974 17.2227 26.1797C16.9492 26.3438 16.7396 26.4258 16.5938 26.4258C16.4297 26.4258 16.293 26.2982 16.1836 26.043C15.7279 25.0768 15.1354 24.0833 14.4062 23.0625C14.2604 22.862 14.1875 22.7161 14.1875 22.625ZM23.2656 25.9609C23.2656 25.8333 23.3477 25.651 23.5117 25.4141C23.9857 24.7396 24.3594 24.0924 24.6328 23.4727C24.9062 22.8346 25.0885 22.3151 25.1797 21.9141C25.2891 21.4948 25.3438 21.2396 25.3438 21.1484C25.3438 20.9115 25.4167 20.793 25.5625 20.793C25.6172 20.793 25.7721 20.8659 26.0273 21.0117C26.2826 21.1576 26.5104 21.3307 26.7109 21.5312C26.9297 21.7318 27.0391 21.9141 27.0391 22.0781C27.0391 22.2057 26.9844 22.3424 26.875 22.4883C26.0911 23.6367 25.3711 24.5299 24.7148 25.168C24.0586 25.7878 23.6211 26.0977 23.4023 26.0977C23.3112 26.0977 23.2656 26.0521 23.2656 25.9609ZM27.4766 26.2891C27.4766 26.1979 27.513 26.1523 27.5859 26.1523C27.6406 26.1523 27.6862 26.1615 27.7227 26.1797C28.1055 26.3073 28.5065 26.3711 28.9258 26.3711H29.1719L33.1094 26.125L33.082 20.6562C33.082 20.1276 32.9271 19.6536 32.6172 19.2344C32.4714 18.9974 32.3984 18.8424 32.3984 18.7695C32.3984 18.6602 32.4714 18.6055 32.6172 18.6055C32.8542 18.6055 33.2734 18.7148 33.875 18.9336C34.2396 19.0612 34.4766 19.1888 34.5859 19.3164C34.6953 19.444 34.75 19.6445 34.75 19.918L34.7773 26.0156L35.8164 25.9609C36.3086 25.9245 36.7096 25.8516 37.0195 25.7422C37.1654 25.6875 37.293 25.6602 37.4023 25.6602C37.6576 25.6602 37.9401 25.8151 38.25 26.125C38.5781 26.4349 38.7422 26.6992 38.7422 26.918C38.7422 27.1185 38.5508 27.237 38.168 27.2734L34.7773 27.4648L34.8594 41.2734C34.8594 41.4375 34.8685 41.5924 34.8867 41.7383C34.9049 41.9023 34.9141 42.0482 34.9141 42.1758C34.9141 42.5221 34.8229 42.7956 34.6406 42.9961C34.4583 43.2148 34.2578 43.3698 34.0391 43.4609C33.8385 43.5703 33.7018 43.625 33.6289 43.625C33.2643 43.625 32.6719 43.3698 31.8516 42.8594C31.0495 42.349 30.3112 41.793 29.6367 41.1914C28.9622 40.5898 28.625 40.1706 28.625 39.9336C28.625 39.806 28.707 39.7422 28.8711 39.7422C29.0352 39.7422 29.2904 39.8333 29.6367 40.0156C30.7122 40.599 31.8971 41.082 33.1914 41.4648L33.1094 27.5742L29.8008 27.793C29.6367 27.8112 29.418 27.8203 29.1445 27.8203C28.6523 27.8203 28.3333 27.7474 28.1875 27.6016C27.9688 27.3828 27.7956 27.1367 27.668 26.8633C27.5404 26.5898 27.4766 26.3984 27.4766 26.2891ZM27.668 30.5547C27.668 30.4089 27.7865 30.2539 28.0234 30.0898C28.2604 29.9076 28.4609 29.8164 28.625 29.8164C28.7708 29.8164 28.9349 29.9349 29.1172 30.1719C29.6641 30.9193 30.2474 31.8307 30.8672 32.9062C31.487 33.9818 31.7969 34.6107 31.7969 34.793C31.7969 34.9206 31.6419 35.112 31.332 35.3672C31.0404 35.6224 30.7943 35.75 30.5938 35.75C30.4844 35.75 30.3932 35.7135 30.3203 35.6406C30.2656 35.5677 30.1927 35.4401 30.1016 35.2578C29.7005 34.3828 28.944 32.9427 27.832 30.9375C27.8138 30.901 27.7773 30.8464 27.7227 30.7734C27.6862 30.6823 27.668 30.6094 27.668 30.5547Z" fill="#333333"/>
<path d="M82.2734 26.7812C82.2552 26.7812 82.1914 26.7995 82.082 26.8359C81.9909 26.8542 81.9453 26.8268 81.9453 26.7539C81.9453 26.7357 81.9818 26.6992 82.0547 26.6445C82.1276 26.5716 82.1914 26.5078 82.2461 26.4531C82.3008 26.3984 82.3828 26.3255 82.4922 26.2344C82.6016 26.125 82.6836 26.0156 82.7383 25.9062C83.0117 25.4505 83.2031 24.9948 83.3125 24.5391L83.4766 23.582C83.6042 22.8711 83.6589 22.0417 83.6406 21.0938C83.6406 20.875 83.6133 20.6471 83.5586 20.4102C83.5404 20.3008 83.4492 20.1458 83.2852 19.9453V19.918C83.2852 19.8815 83.3307 19.8633 83.4219 19.8633C83.5495 19.8633 83.6589 19.8724 83.75 19.8906C83.987 19.9453 84.2513 19.9727 84.543 19.9727C84.8529 19.9544 85.0443 19.9453 85.1172 19.9453L86.9492 19.8086C87.3138 19.7721 87.5508 19.7539 87.6602 19.7539C88.444 19.6445 88.7995 19.599 88.7266 19.6172C89.1458 19.5443 89.401 19.5078 89.4922 19.5078C89.7839 19.526 90.0755 19.7539 90.3672 20.1914L90.4219 20.3281C90.4219 20.4375 90.3398 20.5013 90.1758 20.5195C90.0117 20.5378 89.9115 20.5469 89.875 20.5469C89.3099 20.5469 88.8906 20.556 88.6172 20.5742C87.9245 20.5742 87.4141 20.5833 87.0859 20.6016L86.3203 20.6562L84.7617 20.8203C84.6523 22.3516 84.5521 23.3542 84.4609 23.8281C84.3151 24.6849 84.0326 25.3776 83.6133 25.9062C83.3034 26.3073 82.8568 26.599 82.2734 26.7812ZM89.1641 34.5195C88.8906 34.5195 88.6263 34.319 88.3711 33.918C88.043 33.4076 87.724 32.9883 87.4141 32.6602L86.7031 31.9219C86.3203 32.3594 85.9831 32.7057 85.6914 32.9609C85.418 33.2161 85.0716 33.4622 84.6523 33.6992C83.8685 34.1549 83.2122 34.3828 82.6836 34.3828C82.556 34.3828 82.4922 34.3372 82.4922 34.2461C82.4922 34.1914 82.6654 34.0729 83.0117 33.8906C83.3581 33.7083 83.6862 33.4896 83.9961 33.2344C84.7799 32.5781 85.4271 31.9036 85.9375 31.2109C85.8281 31.1016 85.2812 30.6276 84.2969 29.7891C84.1693 29.6979 83.9779 29.543 83.7227 29.3242C83.668 29.2878 83.5586 29.2057 83.3945 29.0781C83.2305 28.9505 83.1484 28.8594 83.1484 28.8047C83.1484 28.7135 83.194 28.668 83.2852 28.668C83.5586 28.668 83.9961 28.8594 84.5977 29.2422C85.1992 29.6068 85.8281 30.0443 86.4844 30.5547C86.7396 30.2448 86.9401 29.9531 87.0859 29.6797C87.2318 29.4062 87.3958 29.069 87.5781 28.668C87.6693 28.4674 87.724 28.2943 87.7422 28.1484C87.7604 27.9844 87.7695 27.8841 87.7695 27.8477C87.7695 27.6471 87.8242 27.5469 87.9336 27.5469C88.0612 27.5469 88.2344 27.6471 88.4531 27.8477C88.8359 28.2122 89.0273 28.4583 89.0273 28.5859C89.0273 28.6589 88.9818 28.7409 88.8906 28.832C88.6719 29.0508 88.4714 29.3424 88.2891 29.707C88.1797 29.9258 87.9792 30.2357 87.6875 30.6367C87.5964 30.7461 87.5234 30.8464 87.4688 30.9375C87.4141 31.0286 87.3594 31.1107 87.3047 31.1836C87.724 31.4935 88.3438 32.0221 89.1641 32.7695C89.3646 32.9518 89.4922 33.125 89.5469 33.2891C89.6198 33.4349 89.6562 33.6354 89.6562 33.8906C89.6562 34.0729 89.6107 34.2279 89.5195 34.3555C89.4284 34.4648 89.3099 34.5195 89.1641 34.5195ZM86.4023 43.2148C86.2747 43.2148 86.1836 43.1784 86.1289 43.1055C86.0742 43.0326 86.0378 42.987 86.0195 42.9688C85.8372 42.7135 85.7552 42.4674 85.7734 42.2305C85.7917 42.0846 85.819 41.6927 85.8555 41.0547L85.8828 39.7422C85.8646 39.5417 85.8464 39.4232 85.8281 39.3867C85.8099 39.332 85.7279 39.2227 85.582 39.0586C85.2904 38.694 84.9531 38.3203 84.5703 37.9375C84.1328 37.5 83.8503 37.2083 83.7227 37.0625C83.7227 37.0625 83.4492 36.7891 82.9023 36.2422C82.8477 36.1875 82.8203 36.1328 82.8203 36.0781C82.8203 35.987 82.875 35.9141 82.9844 35.8594C83.112 35.7865 83.2396 35.7591 83.3672 35.7773C83.7318 35.8138 83.9688 35.8594 84.0781 35.9141C84.2057 35.9505 84.3242 36.0599 84.4336 36.2422C84.543 36.4245 84.6979 36.6432 84.8984 36.8984C85.1172 37.1354 85.2812 37.3177 85.3906 37.4453C85.8464 37.9922 86.1654 38.3568 86.3477 38.5391C86.6758 38.1562 87.0859 37.6094 87.5781 36.8984C87.9792 36.388 88.2161 35.9688 88.2891 35.6406C88.362 35.4036 88.4714 35.2852 88.6172 35.2852C88.6901 35.2852 88.7995 35.3307 88.9453 35.4219C89.4193 35.7135 89.6562 35.9505 89.6562 36.1328C89.6562 36.2422 89.5378 36.3789 89.3008 36.543C88.9727 36.7799 88.6992 37.0443 88.4805 37.3359L87.9336 38.0195C87.569 38.457 87.2956 38.8034 87.1133 39.0586C87.0221 39.2227 86.9766 39.4596 86.9766 39.7695V41.4375V42.5312C86.9948 42.6589 86.9219 42.8047 86.7578 42.9688C86.612 43.1328 86.4935 43.2148 86.4023 43.2148ZM91.2422 32.8242C91.3333 32.8242 91.4701 32.888 91.6523 33.0156C91.6341 33.0521 91.6706 33.125 91.7617 33.2344C91.8529 33.3255 91.9167 33.3893 91.9531 33.4258C92.0443 33.5169 92.1354 33.6263 92.2266 33.7539C92.3359 33.8815 92.4544 34.0182 92.582 34.1641C92.9102 34.5104 93.6667 35.4128 94.8516 36.8711C95.0521 37.1628 95.1523 37.3359 95.1523 37.3906C95.1523 37.5729 95.043 37.6641 94.8242 37.6641C94.6966 37.6641 94.5599 37.5729 94.4141 37.3906C94.0677 37.026 93.4479 36.4518 92.5547 35.668C91.862 35.0299 91.2331 34.5378 90.668 34.1914C90.3945 34.0638 90.2578 33.918 90.2578 33.7539C90.2578 33.6263 90.3945 33.444 90.668 33.207C90.9232 32.9518 91.1146 32.8242 91.2422 32.8242ZM69.5586 42.668V42.8047C69.5586 43.1875 69.4128 43.3789 69.1211 43.3789C68.8841 43.3789 68.5651 43.2695 68.1641 43.0508C67.7812 42.8503 67.5898 42.6042 67.5898 42.3125C67.5898 42.2031 67.599 42.1211 67.6172 42.0664C67.6719 41.793 67.6992 41.4922 67.6992 41.1641C67.6992 40.8906 67.6901 40.6719 67.6719 40.5078L67.2891 35.1758C67.2526 34.556 67.1523 34.0638 66.9883 33.6992C66.8789 33.444 66.8242 33.2982 66.8242 33.2617C66.8242 33.1341 66.9154 33.0703 67.0977 33.0703C67.4076 33.0703 68.0273 33.2344 68.957 33.5625L71.6094 33.4258L71.6367 29.1875L66.8516 29.4336H66.6055C66.332 29.4336 66.1224 29.4154 65.9766 29.3789C65.8307 29.3242 65.7031 29.2331 65.5938 29.1055C65.4115 28.9049 65.2747 28.7044 65.1836 28.5039C65.0924 28.2852 65.0469 28.112 65.0469 27.9844C65.0469 27.8932 65.0924 27.8477 65.1836 27.8477L65.3477 27.875C65.5846 27.9479 65.8672 27.9844 66.1953 27.9844L66.7422 27.957L71.6641 27.7109L71.6914 23.418C68.9935 24.0924 67.3984 24.4297 66.9062 24.4297C66.5781 24.4297 66.4141 24.3568 66.4141 24.2109C66.4141 24.1198 66.4961 24.0195 66.6602 23.9102C66.8242 23.8008 67.0612 23.6914 67.3711 23.582C68.8841 23.1081 70.388 22.5794 71.8828 21.9961C73.3958 21.3945 74.5716 20.8568 75.4102 20.3828C75.7747 20.1641 76.0938 19.8906 76.3672 19.5625C76.4219 19.4896 76.4948 19.4531 76.5859 19.4531C76.8229 19.4531 77.0781 19.6719 77.3516 20.1094C77.6432 20.5286 77.7891 20.875 77.7891 21.1484C77.7891 21.349 77.6979 21.4857 77.5156 21.5586C75.6198 22.2513 74.2435 22.7161 73.3867 22.9531L73.332 27.6289L78.0898 27.3555C78.418 27.3372 78.8008 27.2826 79.2383 27.1914C79.4206 27.1549 79.5482 27.1367 79.6211 27.1367C79.8216 27.1367 80.0768 27.2917 80.3867 27.6016C80.7148 27.8932 80.8789 28.1484 80.8789 28.3672C80.8789 28.6042 80.6419 28.7409 80.168 28.7773L73.332 29.1055L73.2773 33.3438L76.8867 33.1523L77.2422 33.125C77.4609 33.125 77.7161 33.2435 78.0078 33.4805C78.3177 33.6992 78.4727 33.9271 78.4727 34.1641C78.4727 34.2552 78.4362 34.3737 78.3633 34.5195C78.2904 34.6471 78.2539 34.7474 78.2539 34.8203L77.4883 40.0703C77.9805 40.6901 78.2266 41.1003 78.2266 41.3008C78.2266 41.4102 78.1628 41.474 78.0352 41.4922C77.9258 41.5286 77.7161 41.556 77.4062 41.5742L69.4766 41.7109L69.5586 42.668ZM54.8203 24.8125C54.8203 24.7214 54.875 24.6758 54.9844 24.6758C55.0573 24.6758 55.1211 24.6849 55.1758 24.7031C55.4492 24.776 55.7865 24.8125 56.1875 24.8125H56.5156L63.543 24.4023C64.0534 24.3112 64.418 24.2292 64.6367 24.1562C64.7461 24.1198 64.8281 24.1016 64.8828 24.1016C65.138 24.1016 65.4388 24.2565 65.7852 24.5664C66.1497 24.8581 66.332 25.1224 66.332 25.3594C66.332 25.5781 66.1315 25.7057 65.7305 25.7422L57.0625 26.2891C56.8802 26.3073 56.6523 26.3164 56.3789 26.3164C56.2148 26.3164 56.0964 26.3073 56.0234 26.2891C55.8594 26.2891 55.7318 26.2435 55.6406 26.1523C55.4219 25.9883 55.2305 25.7513 55.0664 25.4414C54.9023 25.1315 54.8203 24.9219 54.8203 24.8125ZM56.4336 34.9844C56.4336 34.875 56.5156 34.8203 56.6797 34.8203C56.9896 34.8203 57.6458 35.0117 58.6484 35.3945L63.2422 35.1484L63.5156 35.1211C63.7344 35.1211 63.9258 35.1849 64.0898 35.3125C64.2721 35.4401 64.418 35.5951 64.5273 35.7773C64.6367 35.9414 64.6914 36.0599 64.6914 36.1328C64.6914 36.224 64.6641 36.3242 64.6094 36.4336C64.5729 36.5247 64.5456 36.6068 64.5273 36.6797L64.0625 40.4258C64.4818 41.0091 64.6914 41.3919 64.6914 41.5742C64.6914 41.7018 64.6367 41.7747 64.5273 41.793C64.418 41.8294 64.2266 41.8568 63.9531 41.875L59.0039 41.9844L59.0312 42.3398V42.4219C59.0312 42.8229 58.8672 43.0234 58.5391 43.0234C58.2839 43.0234 58.0013 42.9323 57.6914 42.75C57.3815 42.5677 57.2266 42.3216 57.2266 42.0117L57.2539 41.793C57.2904 41.4648 57.3086 41.2096 57.3086 41.0273L57.2812 40.4805L57.0078 36.9805C56.9531 36.3424 56.8255 35.8503 56.625 35.5039C56.4974 35.2487 56.4336 35.0755 56.4336 34.9844ZM56.6523 31.6484C56.6523 31.5755 56.6888 31.5391 56.7617 31.5391C56.8346 31.5391 56.8893 31.5482 56.9258 31.5664C57.3997 31.6393 57.7461 31.6758 57.9648 31.6758H58.1836L62.1211 31.4844C62.4492 31.4661 62.7773 31.4023 63.1055 31.293C63.2148 31.2565 63.306 31.2383 63.3789 31.2383C63.5977 31.2383 63.8529 31.3841 64.1445 31.6758C64.4544 31.9674 64.6094 32.2135 64.6094 32.4141C64.6094 32.5234 64.5547 32.6146 64.4453 32.6875C64.3359 32.7604 64.1992 32.806 64.0352 32.8242L58.7578 33.125L58.0195 33.1523C57.6185 33.1523 57.2904 32.9792 57.0352 32.6328C56.7799 32.2682 56.6523 31.9401 56.6523 31.6484ZM56.6523 28.2852C56.6523 28.194 56.6979 28.1484 56.7891 28.1484C56.862 28.1484 56.9167 28.1576 56.9531 28.1758C57.2266 28.2487 57.5365 28.2852 57.8828 28.2852H58.1836L62.2305 28.0391C62.5586 28.0208 62.8867 27.957 63.2148 27.8477C63.3242 27.8112 63.4062 27.793 63.4609 27.793C63.6432 27.793 63.8984 27.9297 64.2266 28.2031C64.5547 28.4766 64.7188 28.7318 64.7188 28.9688C64.7188 29.0781 64.6641 29.1693 64.5547 29.2422C64.4453 29.3151 64.3086 29.3607 64.1445 29.3789L58.7305 29.707L57.9922 29.7344C57.6823 29.7344 57.4271 29.6341 57.2266 29.4336C57.026 29.2331 56.8802 29.0143 56.7891 28.7773C56.6979 28.5404 56.6523 28.3763 56.6523 28.2852ZM57.8281 20.7656C57.8281 20.6562 57.8919 20.4831 58.0195 20.2461C58.1471 20.0091 58.3112 19.8906 58.5117 19.8906C58.6211 19.8906 59.0951 20.0638 59.9336 20.4102C60.7721 20.7383 61.5378 21.0938 62.2305 21.4766C62.9232 21.8594 63.2695 22.1693 63.2695 22.4062C63.2695 22.5703 63.1875 22.8073 63.0234 23.1172C62.8594 23.4271 62.6497 23.582 62.3945 23.582C62.2669 23.582 62.0846 23.5091 61.8477 23.3633C60.8815 22.7253 59.7148 22.0508 58.3477 21.3398C58.1654 21.2305 58.0286 21.1393 57.9375 21.0664C57.8646 20.9753 57.8281 20.875 57.8281 20.7656ZM58.8945 40.5078L62.4766 40.4531L62.8047 36.6797L58.6484 36.8984L58.8945 40.5078ZM69.3672 40.1797L75.793 40.043L76.3945 34.7383L68.9844 35.0664L69.3672 40.1797Z" fill="#333333"/>
<path d="M131.492 25.6875C131.747 25.9062 131.875 26.2617 131.875 26.7539C131.839 27.0273 131.72 27.1549 131.52 27.1367C131.283 27.1549 130.991 27.0091 130.645 26.6992C130.499 26.5352 130.198 26.2799 129.742 25.9336C129.305 25.569 128.913 25.2773 128.566 25.0586C128.038 25.5326 127.4 25.9883 126.652 26.4258C125.923 26.8633 125.34 27.082 124.902 27.082C124.72 27.082 124.629 27.0273 124.629 26.918C124.629 26.8815 124.839 26.7357 125.258 26.4805C125.75 26.207 126.233 25.888 126.707 25.5234C127.163 25.1771 127.536 24.8581 127.828 24.5664L127.199 24.2109C126.78 23.9375 126.507 23.7734 126.379 23.7188C125.832 23.3724 125.559 23.1536 125.559 23.0625C125.559 23.0078 125.65 22.9805 125.832 22.9805C125.978 22.9622 126.315 23.0716 126.844 23.3086L128.375 24.0195L128.785 23.582C128.84 23.5091 128.904 23.4362 128.977 23.3633C129.049 23.2904 129.122 23.2083 129.195 23.1172C129.469 22.7708 129.688 22.4792 129.852 22.2422C130.034 21.987 130.134 21.7956 130.152 21.668C130.152 21.5951 130.089 21.5586 129.961 21.5586C129.779 21.5586 129.387 21.6042 128.785 21.6953L128.129 21.7773C127.618 21.8503 127.19 21.9323 126.844 22.0234C126.643 22.0599 126.47 22.1146 126.324 22.1875C126.27 22.2057 126.188 22.2148 126.078 22.2148C125.969 22.2148 125.887 22.2148 125.832 22.2148C125.777 22.1966 125.732 22.1602 125.695 22.1055C125.659 22.069 125.604 22.0052 125.531 21.9141C125.44 21.7682 125.395 21.6497 125.395 21.5586C125.395 21.5221 125.467 21.431 125.613 21.2852L126.133 20.6836C126.26 20.5195 126.415 20.2643 126.598 19.918C126.78 19.5534 126.88 19.2708 126.898 19.0703C126.898 19.0156 126.935 18.9883 127.008 18.9883C127.172 18.9883 127.363 19.0794 127.582 19.2617C127.673 19.3346 127.746 19.4167 127.801 19.5078C127.874 19.599 127.91 19.6719 127.91 19.7266C127.91 19.7995 127.865 19.8815 127.773 19.9727C127.682 20.0638 127.473 20.3372 127.145 20.793L126.762 21.2852L128.348 21.0117C129.022 20.957 129.523 20.8841 129.852 20.793L130.262 20.7383C130.353 20.7201 130.462 20.7109 130.59 20.7109C130.717 20.7109 130.927 20.8477 131.219 21.1211C131.328 21.2122 131.401 21.2943 131.438 21.3672C131.492 21.4219 131.52 21.4857 131.52 21.5586C131.52 21.6315 131.501 21.7044 131.465 21.7773C131.428 21.832 131.392 21.8867 131.355 21.9414C131.173 22.1237 130.909 22.4609 130.562 22.9531C130.271 23.3724 129.842 23.8828 129.277 24.4844L129.961 24.8125C130.836 25.25 131.346 25.5417 131.492 25.6875ZM125.285 31.7852C125.085 31.7852 124.839 31.6302 124.547 31.3203C124.328 31.1016 124.219 30.9375 124.219 30.8281C124.219 30.7734 124.255 30.7461 124.328 30.7461C124.401 30.7279 124.492 30.7188 124.602 30.7188L125.203 30.6914C125.549 30.6914 125.777 30.6823 125.887 30.6641C126.233 30.6641 126.525 30.6549 126.762 30.6367C128.329 30.4909 129.387 30.3724 129.934 30.2812C130.207 30.2448 130.453 30.2083 130.672 30.1719C130.891 30.1172 131.064 30.0898 131.191 30.0898C131.447 30.0898 131.702 30.2174 131.957 30.4727C132.158 30.6732 132.258 30.8372 132.258 30.9648C132.258 31.0742 132.194 31.1471 132.066 31.1836C131.975 31.2018 131.438 31.2383 130.453 31.293C129.906 31.3112 129.232 31.3568 128.43 31.4297C127.628 31.5026 126.926 31.5755 126.324 31.6484C126.215 31.6667 126.06 31.694 125.859 31.7305C125.659 31.7669 125.467 31.7852 125.285 31.7852ZM129.359 37.8828C129.177 38.1198 128.986 38.2383 128.785 38.2383C128.73 38.2383 128.703 38.1927 128.703 38.1016C128.703 37.974 128.74 37.8281 128.812 37.6641C128.812 37.6641 128.995 37.2995 129.359 36.5703C129.378 36.4974 129.405 36.4245 129.441 36.3516C129.478 36.2786 129.505 36.2148 129.523 36.1602V36.1328C129.523 36.0964 129.496 36.0599 129.441 36.0234C129.387 35.987 129.323 35.9779 129.25 35.9961C128.958 36.0143 128.521 36.0599 127.938 36.1328C127.372 36.2057 126.953 36.2786 126.68 36.3516C126.57 36.388 126.434 36.4336 126.27 36.4883C126.124 36.543 126.005 36.5703 125.914 36.5703C125.586 36.5703 125.312 36.4701 125.094 36.2695C124.911 36.1419 124.775 36.0143 124.684 35.8867L124.629 35.75C124.629 35.6589 124.784 35.6315 125.094 35.668C125.513 35.7044 126.379 35.6497 127.691 35.5039L128.238 35.4219C128.384 35.4036 128.612 35.3763 128.922 35.3398C129.25 35.2852 129.505 35.2305 129.688 35.1758C129.742 35.1576 129.797 35.1393 129.852 35.1211C129.924 35.0846 129.988 35.0664 130.043 35.0664C130.134 35.0664 130.243 35.112 130.371 35.2031C130.517 35.2943 130.635 35.3763 130.727 35.4492C130.854 35.5404 130.936 35.6224 130.973 35.6953C131.027 35.75 131.046 35.8229 131.027 35.9141C131.027 36.0052 130.982 36.0872 130.891 36.1602C130.799 36.2331 130.736 36.2878 130.699 36.3242C130.663 36.3789 130.535 36.5156 130.316 36.7344C130.225 36.8802 130.061 37.0807 129.824 37.3359C129.605 37.5911 129.451 37.7734 129.359 37.8828ZM127.992 43.2695C127.992 43.2148 128.083 43.069 128.266 42.832C128.466 42.6133 128.621 42.4401 128.73 42.3125C129.004 41.9479 129.332 41.4193 129.715 40.7266C130.116 40.0339 130.344 39.5781 130.398 39.3594C130.435 39.25 130.38 39.1953 130.234 39.1953C129.943 39.1953 129.141 39.2773 127.828 39.4414C126.971 39.5508 126.333 39.6602 125.914 39.7695C125.823 39.8242 125.732 39.8516 125.641 39.8516C125.495 39.8516 125.34 39.7513 125.176 39.5508C125.103 39.4232 125.066 39.3047 125.066 39.1953C125.066 39.1224 125.112 39.0495 125.203 38.9766L125.285 38.8672C125.34 38.7578 125.404 38.612 125.477 38.4297C125.549 38.2474 125.613 38.0742 125.668 37.9102C125.759 37.6185 125.823 37.2995 125.859 36.9531C125.878 36.7526 125.987 36.6979 126.188 36.7891C126.443 36.9167 126.634 37.0443 126.762 37.1719C126.908 37.2812 126.953 37.3633 126.898 37.418C126.716 37.6367 126.57 37.8828 126.461 38.1562C126.37 38.4479 126.315 38.6393 126.297 38.7305C126.297 38.8034 126.342 38.8398 126.434 38.8398C126.707 38.8398 127.117 38.7943 127.664 38.7031C127.974 38.6667 128.357 38.6211 128.812 38.5664C129.268 38.5117 129.633 38.457 129.906 38.4023L130.59 38.2656C130.645 38.2474 130.717 38.2383 130.809 38.2383C130.9 38.2383 130.991 38.2747 131.082 38.3477C131.173 38.4023 131.273 38.4753 131.383 38.5664C131.565 38.7305 131.684 38.8672 131.738 38.9766C131.793 39.0677 131.82 39.1771 131.82 39.3047C131.82 39.3776 131.766 39.4688 131.656 39.5781C131.565 39.6875 131.456 39.8607 131.328 40.0977C130.799 41.1732 130.116 42.0755 129.277 42.8047C129.04 42.987 128.776 43.1419 128.484 43.2695C128.357 43.306 128.238 43.3242 128.129 43.3242C128.038 43.3424 127.992 43.3242 127.992 43.2695ZM103.109 33.043C103.036 33.681 102.945 34.2279 102.836 34.6836C102.362 36.4883 101.779 37.9831 101.086 39.168C100.393 40.3346 99.737 41.1914 99.1172 41.7383C98.5156 42.2852 98.1055 42.5586 97.8867 42.5586C97.7773 42.5586 97.7227 42.5039 97.7227 42.3945C97.7227 42.194 97.8503 41.9297 98.1055 41.6016C99.582 39.6875 100.566 37.6914 101.059 35.6133C101.551 33.5169 101.797 31.1836 101.797 28.6133V28.2031C101.797 27.5104 101.706 26.7721 101.523 25.9883L101.469 25.7422C101.469 25.5781 101.551 25.4961 101.715 25.4961C101.97 25.4961 102.59 25.7604 103.574 26.2891C106.491 26.0703 108.724 25.8424 110.273 25.6055C111.841 25.3685 112.898 25.1497 113.445 24.9492C113.992 24.7487 114.421 24.5208 114.73 24.2656C114.84 24.1927 114.931 24.1562 115.004 24.1562C115.259 24.1562 115.551 24.3385 115.879 24.7031C116.207 25.0677 116.371 25.3594 116.371 25.5781C116.371 25.7786 116.234 25.9062 115.961 25.9609C113.865 26.3984 111.914 26.7266 110.109 26.9453C108.305 27.1458 106.072 27.3372 103.41 27.5195V28.7773L116.617 28.0117H116.727C117.036 28.0117 117.328 28.1302 117.602 28.3672C117.875 28.5859 118.012 28.8047 118.012 29.0234C118.012 29.1146 117.975 29.224 117.902 29.3516C117.829 29.4792 117.793 29.5612 117.793 29.5977L117.465 30.9922C117.957 31.4661 118.203 31.8125 118.203 32.0312C118.203 32.1953 118.03 32.2956 117.684 32.332L103.109 33.043ZM98.2422 26.6719C98.2422 26.4896 98.3789 26.2617 98.6523 25.9883C99.4544 25.1862 100.466 24.0378 101.688 22.543C102.909 21.0482 103.52 19.9362 103.52 19.207C103.52 18.9336 103.62 18.7969 103.82 18.7969C104.076 18.7969 104.385 18.9518 104.75 19.2617C105.133 19.5716 105.324 19.8086 105.324 19.9727C105.324 20.082 105.279 20.2005 105.188 20.3281L104.23 21.5859L108.223 21.2852C108.605 21.2487 108.943 21.1849 109.234 21.0938C109.271 21.0755 109.316 21.0573 109.371 21.0391C109.426 21.0208 109.49 21.0117 109.562 21.0117C109.799 21.0117 110.064 21.1576 110.355 21.4492C110.665 21.7409 110.82 21.9688 110.82 22.1328C110.82 22.3333 110.62 22.4518 110.219 22.4883L105.57 22.7617C105.844 22.8893 106.281 23.1719 106.883 23.6094C107.503 24.0469 107.812 24.3659 107.812 24.5664C107.812 24.694 107.721 24.8854 107.539 25.1406C107.357 25.3776 107.165 25.4961 106.965 25.4961C106.819 25.4961 106.646 25.3958 106.445 25.1953C105.898 24.6484 105.288 24.1562 104.613 23.7188C104.431 23.6094 104.34 23.4818 104.34 23.3359C104.34 23.1719 104.413 23.0078 104.559 22.8438L103.082 22.9531C102.116 24.0469 101.168 24.9674 100.238 25.7148C99.3086 26.4622 98.707 26.8359 98.4336 26.8359C98.306 26.8359 98.2422 26.7812 98.2422 26.6719ZM103.191 33.8633C103.191 33.7174 103.283 33.6445 103.465 33.6445C103.811 33.6445 104.449 33.8633 105.379 34.3008L117.684 33.7539L118.148 33.7266C118.404 33.7266 118.668 33.8542 118.941 34.1094C119.215 34.3646 119.352 34.6107 119.352 34.8477C119.352 34.9388 119.324 35.0482 119.27 35.1758C119.233 35.2852 119.215 35.3672 119.215 35.4219L119.242 41.2734L119.27 42.2031C119.27 42.6042 119.133 42.9323 118.859 43.1875C118.586 43.4427 118.322 43.5703 118.066 43.5703C117.793 43.5703 117.365 43.3516 116.781 42.9141C116.216 42.4766 115.697 41.9935 115.223 41.4648C114.749 40.9544 114.512 40.6081 114.512 40.4258C114.512 40.3346 114.566 40.2891 114.676 40.2891C114.858 40.2891 115.122 40.3893 115.469 40.5898C116.143 40.9362 116.872 41.237 117.656 41.4922V38.5117L114.184 38.6211L114.211 42.1484C114.211 42.349 114.193 42.4948 114.156 42.5859C114.12 42.6953 114.038 42.75 113.91 42.75C113.837 42.75 113.691 42.7135 113.473 42.6406C113.254 42.5677 113.053 42.4492 112.871 42.2852C112.689 42.1393 112.598 41.9388 112.598 41.6836V41.6016C112.725 41.0182 112.789 40.1797 112.789 39.0859V38.6758L109.562 38.8125L109.59 42.2305C109.59 42.431 109.572 42.5768 109.535 42.668C109.499 42.7591 109.417 42.8047 109.289 42.8047C109.089 42.8047 108.815 42.7044 108.469 42.5039C108.122 42.3034 107.949 42.0573 107.949 41.7656V41.6836C108.04 41.1732 108.086 40.3346 108.086 39.168V38.8672L105.051 38.9766L105.023 42.8867C105.023 43.1784 104.896 43.3242 104.641 43.3242C104.404 43.3242 104.112 43.1966 103.766 42.9414C103.419 42.6862 103.246 42.4401 103.246 42.2031C103.246 42.0938 103.255 42.0026 103.273 41.9297C103.383 41.4193 103.456 40.7083 103.492 39.7969L103.574 36.0781V35.832C103.574 35.2122 103.483 34.6836 103.301 34.2461C103.228 34.0273 103.191 33.8997 103.191 33.8633ZM115.934 31.2109L116.234 29.2969L103.355 29.9805C103.319 30.7826 103.283 31.4115 103.246 31.8672L115.934 31.2109ZM108.086 37.6641L108.059 35.4766L105.051 35.5859V37.7734L108.086 37.6641ZM108.961 25.0312C108.961 24.849 109.089 24.6302 109.344 24.375C110.255 23.4271 111.066 22.3789 111.777 21.2305C112.488 20.0638 112.844 19.2526 112.844 18.7969V18.7148C112.844 18.4779 112.926 18.3594 113.09 18.3594C113.327 18.3594 113.646 18.4961 114.047 18.7695C114.448 19.043 114.648 19.2982 114.648 19.5352C114.648 19.6081 114.612 19.7174 114.539 19.8633L113.691 21.0938L118.668 20.7109C119.051 20.6745 119.379 20.6107 119.652 20.5195C119.762 20.4831 119.844 20.4648 119.898 20.4648C120.135 20.4648 120.4 20.6107 120.691 20.9023C121.001 21.1758 121.156 21.3945 121.156 21.5586C121.156 21.7591 120.965 21.8776 120.582 21.9141L115.77 22.2695C116.207 22.5065 116.745 22.8529 117.383 23.3086C118.021 23.7461 118.34 24.0742 118.34 24.293C118.34 24.4753 118.23 24.6758 118.012 24.8945C117.793 25.1133 117.62 25.2227 117.492 25.2227C117.346 25.2227 117.201 25.1497 117.055 25.0039C116.508 24.5117 115.824 23.9831 115.004 23.418C114.822 23.2721 114.685 23.1628 114.594 23.0898C114.521 22.9987 114.484 22.8984 114.484 22.7891C114.484 22.6797 114.557 22.5247 114.703 22.3242L112.57 22.4609C111.932 23.1901 111.258 23.8281 110.547 24.375C109.854 24.9219 109.389 25.1953 109.152 25.1953C109.025 25.1953 108.961 25.1406 108.961 25.0312ZM109.535 37.582L112.762 37.4727L112.734 35.2852L109.508 35.4219L109.535 37.582ZM114.184 37.418L117.629 37.2539V35.0938L114.156 35.2305L114.184 37.418Z" fill="#333333"/>
</svg>
