<svg width="300" height="29" viewBox="0 0 300 29" fill="none" xmlns="http://www.w3.org/2000/svg">
<path d="M134.406 20.125C134.26 20.125 134.167 20.1146 134.125 20.0938C134.104 20.0521 134.135 19.9792 134.219 19.875C134.51 19.6042 134.74 19.3438 134.906 19.0938C135.094 18.8229 135.292 18.3958 135.5 17.8125C135.833 16.8542 136 16.1146 136 15.5938C136 15.1146 135.969 14.6771 135.906 14.2812V14.1875C135.906 13.9583 136.052 13.8854 136.344 13.9688C136.594 14.0312 136.875 14.1146 137.188 14.2188C137.25 14.1979 137.344 14.1875 137.469 14.1875C137.594 14.1667 137.792 14.1354 138.062 14.0938C138.771 13.9896 139.688 13.8854 140.812 13.7812C140.812 13.6979 140.896 13.4062 141.062 12.9062L141.25 12.2188C141.333 11.9271 141.302 11.7812 141.156 11.7812C140.74 11.7812 139.771 11.8854 138.25 12.0938L136.594 12.375C136.448 12.3958 136.26 12.3333 136.031 12.1875C135.823 12.0417 135.656 11.875 135.531 11.6875C135.427 11.5 135.448 11.375 135.594 11.3125C135.76 11.2083 135.927 11.1562 136.094 11.1562C136.26 11.1562 136.365 11.1562 136.406 11.1562H136.812L138.875 11.0938L140.875 10.8438C140.979 10.8229 141.104 10.7917 141.25 10.75C141.417 10.6875 141.573 10.6458 141.719 10.625C141.927 10.5833 142.281 10.8125 142.781 11.3125C142.865 11.3958 142.906 11.4896 142.906 11.5938C142.906 11.7188 142.823 11.8438 142.656 11.9688C142.427 12.1979 142.281 12.3958 142.219 12.5625C142.198 12.6667 142.156 12.8229 142.094 13.0312C142.031 13.2188 141.969 13.4583 141.906 13.75C142.031 13.8958 142.094 14.0729 142.094 14.2812C142.094 14.4479 142.042 14.5729 141.938 14.6562C141.854 14.7188 141.677 14.75 141.406 14.75C140.469 14.8125 139.729 14.875 139.188 14.9375C138.646 14.9792 137.99 15.0833 137.219 15.25C137.135 16.1875 136.948 17.0521 136.656 17.8438C136.365 18.6146 135.958 19.1979 135.438 19.5938C134.938 19.9479 134.594 20.125 134.406 20.125ZM148.375 5.78125C148.625 5.78125 148.75 5.89583 148.75 6.125C148.75 6.25 148.635 6.42708 148.406 6.65625C147.781 7.42708 146.542 8.89583 144.688 11.0625C144.542 11.25 144.406 11.3438 144.281 11.3438C144.177 11.3438 143.948 11.1875 143.594 10.875C143.302 10.625 143.156 10.4167 143.156 10.25C143.156 10.0625 143.312 9.88542 143.625 9.71875C144.104 9.44792 144.823 8.90625 145.781 8.09375C146.74 7.23958 147.448 6.5625 147.906 6.0625C148.094 5.875 148.25 5.78125 148.375 5.78125ZM112.594 15.8125V17.9062L122.219 17.5312L122.5 15.3125L112.594 15.8125ZM103 14C103 13.8958 103.062 13.7708 103.188 13.625C103.333 13.4583 103.542 13.2917 103.812 13.125C106.646 11.3125 109.073 9.52083 111.094 7.75C113.135 5.95833 115.031 3.85417 116.781 1.4375C117.01 1.125 117.125 0.760417 117.125 0.34375C117.125 0.114583 117.229 0 117.438 0C117.646 0 117.896 0.114583 118.188 0.34375C118.479 0.552083 118.74 0.791667 118.969 1.0625C119.198 1.33333 119.312 1.52083 119.312 1.625C119.312 1.72917 119.292 1.80208 119.25 1.84375L118.5 2.75C120.75 4.66667 122.865 6.25 124.844 7.5C126.823 8.72917 129.26 9.98958 132.156 11.2812C132.448 11.4271 132.594 11.5625 132.594 11.6875C132.594 11.7708 132.49 11.9375 132.281 12.1875C132.073 12.4167 131.833 12.625 131.562 12.8125C131.312 13 131.083 13.0938 130.875 13.0938C130.771 13.0938 130.656 13.0625 130.531 13C127.781 11.5417 125.448 10.1771 123.531 8.90625C121.635 7.61458 119.583 6.02083 117.375 4.125C116.5 5.14583 115.562 6.15625 114.562 7.15625C115.104 7.23958 115.49 7.28125 115.719 7.28125H115.906L118.594 7.15625C118.802 7.15625 119.135 7.09375 119.594 6.96875C119.635 6.94792 119.708 6.9375 119.812 6.9375C120 6.9375 120.198 7.02083 120.406 7.1875C120.635 7.35417 120.823 7.55208 120.969 7.78125C121.135 7.98958 121.219 8.125 121.219 8.1875C121.219 8.35417 121.031 8.45833 120.656 8.5L116.438 8.75C116.229 8.77083 115.979 8.78125 115.688 8.78125C115 8.78125 114.5 8.35417 114.188 7.5C113.146 8.47917 112.135 9.3125 111.156 10C111.219 10.0208 111.396 10.0833 111.688 10.1875C112 10.2917 112.323 10.4375 112.656 10.625L123.156 9.96875H123.531C123.844 9.96875 124.115 10.0417 124.344 10.1875C124.594 10.3125 124.781 10.4688 124.906 10.6562C125.052 10.8229 125.125 10.9583 125.125 11.0625C125.125 11.1458 125.083 11.2708 125 11.4375C124.938 11.6042 124.896 11.7396 124.875 11.8438L124 17.4688C124.562 18.0312 124.844 18.4167 124.844 18.625C124.844 18.8542 124.646 18.9688 124.25 18.9688H124.156L112.594 19.4375L112.562 26.2188C113.062 26.0312 113.594 25.8021 114.156 25.5312C114.719 25.2604 115.125 25.0625 115.375 24.9375C115.542 24.8542 116.104 24.5833 117.062 24.125C117.167 24.0833 117.312 24.0625 117.5 24.0625C117.646 24.0625 117.75 24.0938 117.812 24.1562C117.896 24.1979 117.938 24.2604 117.938 24.3438C117.938 24.4062 117.875 24.4896 117.75 24.5938C117.646 24.6979 117.51 24.8125 117.344 24.9375C116.615 25.5 115.677 26.125 114.531 26.8125L112.656 27.9375C112.344 28.1458 112.062 28.3125 111.812 28.4375C111.562 28.5833 111.385 28.6562 111.281 28.6562C111.052 28.6562 110.802 28.5 110.531 28.1875C110.26 27.8958 110.167 27.6458 110.25 27.4375C110.333 27.2708 110.406 26.8438 110.469 26.1562C110.552 25.4896 110.604 24.9896 110.625 24.6562L110.656 12.6562C110.656 11.8646 110.573 11.1667 110.406 10.5625C109.01 11.5625 107.573 12.4271 106.094 13.1562C104.635 13.8646 103.708 14.2188 103.312 14.2188C103.104 14.2188 103 14.1458 103 14ZM122.656 13.75L122.875 11.5938L112.625 12.1875V14.25L122.656 13.75ZM115.531 21.1875C115.448 21.0417 115.458 20.8333 115.562 20.5625C115.688 20.2917 115.833 20.1042 116 20C116.042 19.9583 116.115 19.9375 116.219 19.9375C116.323 19.9375 116.521 20 116.812 20.125C117.479 20.4583 118.656 21.1146 120.344 22.0938C122.26 21.1562 123.615 20.3438 124.406 19.6562C125.198 18.9688 125.667 18.4479 125.812 18.0938C125.917 17.6771 126.073 17.4688 126.281 17.4688C126.365 17.4688 126.5 17.5729 126.688 17.7812C126.896 17.9688 127.073 18.2083 127.219 18.5C127.385 18.7708 127.469 19.0312 127.469 19.2812C127.469 19.6562 126.927 20.1979 125.844 20.9062C124.781 21.5938 123.458 22.2917 121.875 23C123.417 23.9167 124.792 24.7812 126 25.5938C127.229 26.3854 127.896 26.8646 128 27.0312C128.083 27.1354 128.125 27.2708 128.125 27.4375C128.125 27.6458 128.062 27.8542 127.938 28.0625C127.812 28.2708 127.677 28.4167 127.531 28.5C127.448 28.5625 127.344 28.5938 127.219 28.5938C127.073 28.5938 126.896 28.5312 126.688 28.4062C125.792 27.7396 124.021 26.5625 121.375 24.875C118.729 23.1667 116.958 22.0625 116.062 21.5625C116.021 21.5417 115.927 21.5 115.781 21.4375C115.656 21.3542 115.573 21.2708 115.531 21.1875Z" fill="#333333"/>
<path d="M190 19.2812C189.688 19.2812 189.385 19.0521 189.094 18.5938C188.719 18.0104 188.354 17.5312 188 17.1562L187.188 16.3125C186.75 16.8125 186.365 17.2083 186.031 17.5C185.719 17.7917 185.323 18.0729 184.844 18.3438C183.948 18.8646 183.198 19.125 182.594 19.125C182.448 19.125 182.375 19.0729 182.375 18.9688C182.375 18.9062 182.573 18.7708 182.969 18.5625C183.365 18.3542 183.74 18.1042 184.094 17.8125C184.99 17.0625 185.729 16.2917 186.312 15.5C186.188 15.375 185.562 14.8333 184.438 13.875C184.292 13.7708 184.073 13.5938 183.781 13.3438C183.719 13.3021 183.594 13.2083 183.406 13.0625C183.219 12.9167 183.125 12.8125 183.125 12.75C183.125 12.6458 183.177 12.5938 183.281 12.5938C183.594 12.5938 184.094 12.8125 184.781 13.25C185.469 13.6667 186.188 14.1667 186.938 14.75C187.229 14.3958 187.458 14.0625 187.625 13.75C187.792 13.4375 187.979 13.0521 188.188 12.5938C188.292 12.3646 188.354 12.1667 188.375 12C188.396 11.8125 188.406 11.6979 188.406 11.6562C188.406 11.4271 188.469 11.3125 188.594 11.3125C188.74 11.3125 188.938 11.4271 189.188 11.6562C189.625 12.0729 189.844 12.3542 189.844 12.5C189.844 12.5833 189.792 12.6771 189.688 12.7812C189.438 13.0312 189.208 13.3646 189 13.7812C188.875 14.0312 188.646 14.3854 188.312 14.8438C188.208 14.9688 188.125 15.0833 188.062 15.1875C188 15.2917 187.938 15.3854 187.875 15.4688C188.354 15.8229 189.062 16.4271 190 17.2812C190.229 17.4896 190.375 17.6875 190.438 17.875C190.521 18.0417 190.562 18.2708 190.562 18.5625C190.562 18.7708 190.51 18.9479 190.406 19.0938C190.302 19.2188 190.167 19.2812 190 19.2812ZM192.375 8.28125C192.479 8.28125 192.635 8.35417 192.844 8.5C192.823 8.54167 192.865 8.625 192.969 8.75C193.073 8.85417 193.146 8.92708 193.188 8.96875C193.292 9.07292 193.396 9.19792 193.5 9.34375C193.625 9.48958 193.76 9.64583 193.906 9.8125C194.281 10.2083 195.146 11.2396 196.5 12.9062C196.729 13.2396 196.844 13.4375 196.844 13.5C196.844 13.7083 196.719 13.8125 196.469 13.8125C196.323 13.8125 196.167 13.7083 196 13.5C195.604 13.0833 194.896 12.4271 193.875 11.5312C193.083 10.8021 192.365 10.2396 191.719 9.84375C191.406 9.69792 191.25 9.53125 191.25 9.34375C191.25 9.19792 191.406 8.98958 191.719 8.71875C192.01 8.42708 192.229 8.28125 192.375 8.28125ZM174.688 9.0625C173.812 13.1875 172.573 16.6354 170.969 19.4062C169.365 22.1771 167.344 24.4583 164.906 26.25C164.823 26.3125 164.677 26.4062 164.469 26.5312C164.26 26.6562 164.094 26.7188 163.969 26.7188C163.844 26.7188 163.781 26.6562 163.781 26.5312C163.781 26.3438 163.969 26.0417 164.344 25.625C168.635 21.0625 171.385 15.5833 172.594 9.1875L170.656 9.34375C169.719 12.1979 168.667 14.5 167.5 16.25C166.354 18 165.333 19.2604 164.438 20.0312C163.562 20.8021 163.042 21.1875 162.875 21.1875C162.625 21.3542 162.417 21.4375 162.25 21.4375C162.125 21.4375 162.062 21.3854 162.062 21.2812C162.062 21.0521 162.24 20.75 162.594 20.375C165.156 17.5208 167.125 13.8854 168.5 9.46875L166.219 9.625C165.406 10.9583 164.51 12.1771 163.531 13.2812C162.573 14.3646 161.896 14.9062 161.5 14.9062C161.396 14.9062 161.344 14.8542 161.344 14.75C161.344 14.5208 161.49 14.2188 161.781 13.8438C162.781 12.4688 163.688 10.9583 164.5 9.3125C165.312 7.64583 165.948 6.125 166.406 4.75C166.885 3.375 167.125 2.46875 167.125 2.03125C167.125 1.88542 167.115 1.77083 167.094 1.6875L167.062 1.46875C167.062 1.19792 167.177 1.0625 167.406 1.0625C167.698 1.0625 168.104 1.23958 168.625 1.59375C169.146 1.94792 169.406 2.27083 169.406 2.5625C169.406 2.72917 169.385 2.85417 169.344 2.9375C168.823 4.41667 168.115 6.0625 167.219 7.875L176.781 7.21875H177.031C177.323 7.21875 177.604 7.32292 177.875 7.53125C178.146 7.71875 178.281 7.92708 178.281 8.15625C178.281 8.26042 178.26 8.39583 178.219 8.5625C178.177 8.70833 178.156 8.83333 178.156 8.9375C178.115 11.5833 177.979 14.3229 177.75 17.1562C177.521 19.9896 177.26 22.3333 176.969 24.1875C176.823 25.1667 176.688 25.875 176.562 26.3125C176.438 26.7708 176.25 27.1354 176 27.4062C175.542 27.8646 175.125 28.0938 174.75 28.0938C174.375 28.0938 173.698 27.7604 172.719 27.0938C171.74 26.4479 170.771 25.6667 169.812 24.75C169.438 24.375 169.25 24.0938 169.25 23.9062C169.25 23.7604 169.333 23.6875 169.5 23.6875C169.75 23.6875 170.073 23.8021 170.469 24.0312C171.719 24.6979 173 25.2708 174.312 25.75L174.438 25.7812C174.542 25.7812 174.604 25.6979 174.625 25.5312C175.125 23.7396 175.51 21.3021 175.781 18.2188C176.073 15.1146 176.229 12.0312 176.25 8.96875L174.688 9.0625ZM150.875 19.2188C150.875 19.0938 150.969 19.0312 151.156 19.0312H151.438C152 19.0312 152.688 18.9167 153.5 18.6875C154.333 18.4583 155.667 18 157.5 17.3125L157.562 10.375L155.156 10.5C154.76 11.5 154.344 12.3958 153.906 13.1875C153.469 13.9583 153.062 14.5625 152.688 15C152.333 15.4167 152.083 15.625 151.938 15.625C151.812 15.625 151.75 15.5208 151.75 15.3125C151.75 15.0417 151.833 14.7292 152 14.375C152.521 13.125 152.969 11.875 153.344 10.625C153.719 9.35417 153.99 8.26042 154.156 7.34375C154.344 6.40625 154.438 5.79167 154.438 5.5C154.438 5.35417 154.417 5.19792 154.375 5.03125C154.333 4.86458 154.312 4.75 154.312 4.6875C154.312 4.5 154.396 4.40625 154.562 4.40625C154.729 4.40625 154.979 4.47917 155.312 4.625C155.646 4.77083 155.938 4.94792 156.188 5.15625C156.458 5.36458 156.594 5.57292 156.594 5.78125V5.875C156.344 6.875 156.062 7.85417 155.75 8.8125L157.562 8.6875L157.625 3.28125C157.625 2.57292 157.531 2.03125 157.344 1.65625C157.281 1.48958 157.25 1.375 157.25 1.3125C157.25 1.16667 157.354 1.09375 157.562 1.09375C157.688 1.09375 158.021 1.16667 158.562 1.3125C158.958 1.4375 159.219 1.57292 159.344 1.71875C159.49 1.86458 159.562 2.08333 159.562 2.375L159.5 8.5625L160.781 8.5C161.156 8.45833 161.521 8.38542 161.875 8.28125L162.031 8.25C162.385 8.25 162.74 8.41667 163.094 8.75C163.469 9.0625 163.656 9.32292 163.656 9.53125C163.656 9.82292 163.427 9.98958 162.969 10.0312L159.469 10.25L159.375 16.5625C160.396 16.1458 161.615 15.625 163.031 15C163.344 14.8542 163.604 14.7812 163.812 14.7812C163.979 14.7812 164.062 14.8333 164.062 14.9375C164.062 15.3542 162.5 16.4062 159.375 18.0938L159.25 27.7812C159.25 28.0104 159.198 28.1875 159.094 28.3125C158.99 28.4375 158.833 28.5 158.625 28.5C158.333 28.5 158.021 28.3646 157.688 28.0938C157.354 27.8438 157.188 27.5729 157.188 27.2812C157.188 27.1354 157.198 27.0208 157.219 26.9375C157.323 26.0625 157.396 24.75 157.438 23L157.469 19.0625C156.156 19.7083 154.896 20.2604 153.688 20.7188C153.625 20.7396 153.521 20.7812 153.375 20.8438C153.229 20.8854 153.083 20.9062 152.938 20.9062C152.729 20.9062 152.521 20.8542 152.312 20.75C151.729 20.5208 151.292 20.125 151 19.5625C150.917 19.3542 150.875 19.2396 150.875 19.2188Z" fill="#333333"/>
</svg>
