<svg width="300" height="29" viewBox="0 0 300 29" fill="none" xmlns="http://www.w3.org/2000/svg">
<path d="M135.719 7.75C135.573 7.75 135.646 7.625 135.938 7.375C136.229 7.125 136.583 6.82292 137 6.46875C137.417 6.09375 137.885 5.60417 138.406 5C138.74 4.60417 138.99 4.1875 139.156 3.75C139.26 3.5 139.375 3.375 139.5 3.375C139.604 3.375 139.76 3.45833 139.969 3.625C140.385 3.95833 140.594 4.23958 140.594 4.46875C140.594 4.61458 140.51 4.71875 140.344 4.78125C140.26 4.80208 140.135 4.89583 139.969 5.0625C139.802 5.20833 139.677 5.32292 139.594 5.40625C138.698 6.28125 137.865 6.91667 137.094 7.3125C136.469 7.60417 136.052 7.75 135.844 7.75H135.719ZM139 13.5625C138.938 13.5625 138.833 13.4792 138.688 13.3125C138.562 13.125 138.469 12.9479 138.406 12.7812C138.385 12.6562 138.385 12.5 138.406 12.3125C138.448 12.1042 138.469 11.9479 138.469 11.8438C138.51 11.4271 138.531 11.0938 138.531 10.8438C138.552 10.6146 138.552 10.3646 138.531 10.0938C138.531 9.82292 138.531 9.64583 138.531 9.5625L138.5 9.09375C138 9.44792 137.615 9.69792 137.344 9.84375C136.74 10.1771 136.302 10.3854 136.031 10.4688C135.698 10.5938 135.396 10.6562 135.125 10.6562C134.979 10.6562 134.896 10.6354 134.875 10.5938C134.833 10.5104 135.25 10.2083 136.125 9.6875C136.958 9.16667 137.865 8.47917 138.844 7.625C139.385 7.125 139.802 6.64583 140.094 6.1875C140.135 6.125 140.167 6.05208 140.188 5.96875C140.229 5.86458 140.271 5.80208 140.312 5.78125C140.375 5.76042 140.458 5.77083 140.562 5.8125C140.833 5.95833 141.062 6.16667 141.25 6.4375C141.333 6.54167 141.375 6.64583 141.375 6.75C141.375 6.85417 141.323 6.95833 141.219 7.0625C141.115 7.14583 141.01 7.20833 140.906 7.25C140.552 7.47917 140.229 7.72917 139.938 8C139.646 8.27083 139.458 8.44792 139.375 8.53125C139.688 8.78125 139.844 8.95833 139.844 9.0625L139.75 9.71875C139.708 9.90625 139.688 10.375 139.688 11.125C139.688 11.8542 139.708 12.3438 139.75 12.5938V12.6562C139.75 12.7604 139.719 12.875 139.656 13C139.615 13.1042 139.583 13.1771 139.562 13.2188C139.417 13.4479 139.229 13.5625 139 13.5625ZM142.562 23C142.854 23.1875 143 23.3646 143 23.5312C143 23.7604 142.823 23.9062 142.469 23.9688C142.115 24.0312 141.615 24.0729 140.969 24.0938C140.031 24.1146 139.427 24.0833 139.156 24C138.698 23.7917 138.469 23.4479 138.469 22.9688L138.5 21.8125C138.542 21.4375 138.562 21.1042 138.562 20.8125C138.583 20.625 138.594 20.2604 138.594 19.7188C138.281 20.4271 137.875 21.1146 137.375 21.7812C137.021 22.2188 136.708 22.5833 136.438 22.875C136.167 23.1458 135.844 23.4062 135.469 23.6562C135.094 23.9062 134.75 24.0312 134.438 24.0312C134.25 24.0312 134.156 23.9688 134.156 23.8438C134.156 23.8229 134.354 23.6667 134.75 23.375C135.167 23.0625 135.583 22.6354 136 22.0938C136.625 21.2604 137.167 20.2812 137.625 19.1562C136.812 19.2604 136.271 19.3542 136 19.4375C135.896 19.4583 135.802 19.4896 135.719 19.5312C135.635 19.5521 135.531 19.5521 135.406 19.5312C135.302 19.4896 135.156 19.4062 134.969 19.2812C134.781 19.1354 134.635 19 134.531 18.875C134.448 18.75 134.406 18.6667 134.406 18.625C134.406 18.5208 134.562 18.4688 134.875 18.4688C135.646 18.4688 136.635 18.3854 137.844 18.2188C137.969 17.7396 138.031 16.9688 138.031 15.9062V15.3125C138.031 15.0625 138.083 14.9271 138.188 14.9062C138.208 14.8854 138.25 14.875 138.312 14.875C138.479 14.875 138.708 15 139 15.25C139.229 15.4375 139.375 15.5833 139.438 15.6875C139.521 15.7708 139.531 15.8854 139.469 16.0312C139.448 16.0729 139.406 16.1562 139.344 16.2812C139.281 16.4062 139.24 16.5312 139.219 16.6562C139.198 16.7604 139.156 16.9688 139.094 17.2812C139.031 17.5729 138.99 17.8333 138.969 18.0625C139.26 18.0417 139.625 18 140.062 17.9375C140.5 17.875 140.823 17.8125 141.031 17.75L141.656 17.5938C141.865 17.5521 142.208 17.7292 142.688 18.125C142.771 18.1875 142.812 18.2604 142.812 18.3438C142.812 18.4271 142.771 18.5 142.688 18.5625C142.625 18.6042 142.542 18.625 142.438 18.625C142.062 18.625 141.375 18.6875 140.375 18.8125L139.344 18.9062C139.573 19.0729 139.719 19.2188 139.781 19.3438C139.844 19.4688 139.854 19.5938 139.812 19.7188L139.719 20.2188C139.677 20.6354 139.635 21.0938 139.594 21.5938C139.573 22.0938 139.573 22.4792 139.594 22.75C139.594 22.8542 139.656 22.9479 139.781 23.0312C139.927 23.1146 140.073 23.1562 140.219 23.1562C140.74 23.1562 141.323 23.1042 141.969 23L142.25 22.9375C142.375 22.9375 142.479 22.9583 142.562 23ZM148.688 11.9375C148.75 11.9375 148.812 11.9688 148.875 12.0312C148.938 12.0729 148.979 12.1354 149 12.2188V12.2812C149 12.4271 148.885 12.7083 148.656 13.125L146.406 17.0312C146.24 17.3854 146.021 17.5625 145.75 17.5625C145.479 17.5625 145.25 17.3958 145.062 17.0625C144.875 16.7917 144.646 16.3854 144.375 15.8438C144.25 15.6562 144.146 15.4688 144.062 15.2812C143.979 15.0938 143.917 14.9583 143.875 14.875C143.646 14.4792 143.531 14.1979 143.531 14.0312C143.531 13.9479 143.562 13.8854 143.625 13.8438C143.688 13.7812 143.75 13.75 143.812 13.75C144.042 13.75 144.25 13.875 144.438 14.125C144.583 14.2708 144.698 14.4271 144.781 14.5938L145.125 15.0625L145.75 15.7812L146.031 15.3438C146.323 14.8438 147.01 13.8542 148.094 12.375C148.323 12.0833 148.521 11.9375 148.688 11.9375ZM126.531 25.7812C126.594 25.7812 126.635 25.7708 126.656 25.75C126.698 25.75 126.719 25.7188 126.719 25.6562C127.531 23.5938 127.99 20.75 128.094 17.125L126.656 17.1875C125.26 19.7083 123.74 21.7292 122.094 23.25C120.469 24.75 119.031 25.8021 117.781 26.4062C116.531 27.0104 115.74 27.3125 115.406 27.3125C115.219 27.3125 115.125 27.25 115.125 27.125C115.125 26.8958 115.417 26.5833 116 26.1875C119.562 23.7292 122.365 20.7604 124.406 17.2812L121.938 17.4062C120.771 18.7812 119.583 19.9479 118.375 20.9062C117.167 21.8646 116.115 22.5938 115.219 23.0938C114.323 23.5938 113.781 23.8438 113.594 23.8438C113.385 23.8438 113.281 23.7604 113.281 23.5938C113.281 23.3854 113.469 23.1458 113.844 22.875C116.031 21.375 117.938 19.5833 119.562 17.5L116.5 17.6562C115.417 18.6146 114.458 19.3438 113.625 19.8438C112.792 20.3229 112.26 20.5625 112.031 20.5625C111.885 20.5625 111.812 20.5 111.812 20.375C111.812 20.1458 112.021 19.8646 112.438 19.5312C114.792 17.5938 116.562 15.7396 117.75 13.9688L114.75 14.125H114.188C113.646 14.125 113.312 14.0521 113.188 13.9062C112.833 13.5521 112.583 13.1667 112.438 12.75L112.375 12.5C112.375 12.375 112.438 12.3125 112.562 12.3125C112.667 12.3125 112.75 12.3229 112.812 12.3438C113.188 12.4062 113.594 12.4375 114.031 12.4375H114.375L128.969 11.6562C129.51 11.6146 129.885 11.5521 130.094 11.4688C130.26 11.4271 130.385 11.4062 130.469 11.4062C130.781 11.4062 131.146 11.5625 131.562 11.875C131.979 12.1875 132.188 12.4688 132.188 12.7188C132.188 12.9896 131.948 13.1458 131.469 13.1875L120.219 13.8125C119.594 14.5625 118.948 15.2708 118.281 15.9375L128.688 15.4375H128.844C129.26 15.4375 129.573 15.5312 129.781 15.7188C130.073 15.9271 130.219 16.1562 130.219 16.4062C130.219 16.5104 130.188 16.6354 130.125 16.7812C130.062 16.9271 130.031 17.0312 130.031 17.0938C129.906 19.8854 129.604 22.4583 129.125 24.8125C128.938 25.7708 128.656 26.5417 128.281 27.125C127.906 27.7083 127.469 28 126.969 28C126.635 28 126.031 27.7708 125.156 27.3125C124.302 26.875 123.51 26.3854 122.781 25.8438C122.073 25.3021 121.719 24.8958 121.719 24.625C121.719 24.5 121.812 24.4375 122 24.4375C122.229 24.4375 122.573 24.5312 123.031 24.7188C124.031 25.1562 125.167 25.5104 126.438 25.7812H126.531ZM103.375 19.8438C103.375 19.6979 103.458 19.6042 103.625 19.5625C104.792 19.5208 106.344 19.0729 108.281 18.2188V10.4375L106.531 10.5625C106.344 10.5833 106.104 10.5938 105.812 10.5938C105.479 10.5938 105.146 10.5 104.812 10.3125C104.5 10.1042 104.219 9.65625 103.969 8.96875C103.948 8.92708 103.938 8.875 103.938 8.8125C103.938 8.70833 103.99 8.65625 104.094 8.65625L104.25 8.6875C104.583 8.77083 105 8.8125 105.5 8.8125H105.938L108.281 8.65625V3.25C108.281 2.75 108.125 2.29167 107.812 1.875C107.708 1.75 107.656 1.625 107.656 1.5C107.656 1.33333 107.792 1.25 108.062 1.25C108.667 1.33333 109.177 1.46875 109.594 1.65625C110.031 1.82292 110.25 2.05208 110.25 2.34375L110.188 8.5L111.188 8.4375C111.688 8.39583 112.125 8.30208 112.5 8.15625C112.542 8.13542 112.594 8.125 112.656 8.125C112.885 8.125 113.229 8.32292 113.688 8.71875C114.146 9.09375 114.375 9.40625 114.375 9.65625C114.375 9.88542 114.135 10.0208 113.656 10.0625L110.188 10.3125L110.125 17.4062C111.188 16.9271 112.302 16.3646 113.469 15.7188C113.823 15.5104 114.115 15.4062 114.344 15.4062C114.51 15.4062 114.594 15.4688 114.594 15.5938C114.594 15.9479 113.906 16.6146 112.531 17.5938C111.156 18.5521 109.667 19.4792 108.062 20.375C106.479 21.2708 105.552 21.7188 105.281 21.7188C105.052 21.7188 104.771 21.5625 104.438 21.25C104.104 20.9375 103.771 20.5312 103.438 20.0312C103.396 19.9896 103.375 19.9271 103.375 19.8438ZM115.344 1.5C115.344 1.39583 115.438 1.34375 115.625 1.34375C115.896 1.34375 116.594 1.5 117.719 1.8125L126.344 1.28125H126.625C126.979 1.28125 127.302 1.38542 127.594 1.59375C127.885 1.80208 128.031 2.02083 128.031 2.25C128.031 2.35417 128 2.46875 127.938 2.59375C127.896 2.69792 127.865 2.80208 127.844 2.90625L127.219 8.625C127.677 9.0625 127.906 9.39583 127.906 9.625C127.906 9.79167 127.823 9.90625 127.656 9.96875C127.49 10.0104 127.25 10.0417 126.938 10.0625L118.188 10.5L118.219 10.75V10.8438C118.219 11.2396 118.042 11.4375 117.688 11.4375C117.542 11.4375 117.323 11.375 117.031 11.25C116.719 11.0833 116.5 10.9375 116.375 10.8125C116.25 10.6875 116.188 10.5417 116.188 10.375V10.2188C116.25 9.80208 116.281 9.40625 116.281 9.03125L116.25 8.46875L115.875 3.46875C115.833 2.90625 115.729 2.4375 115.562 2.0625C115.417 1.77083 115.344 1.58333 115.344 1.5ZM117.844 5.3125L125.719 4.84375L125.875 2.8125L117.719 3.28125L117.844 5.3125ZM118.094 8.96875L125.406 8.59375L125.594 6.3125L117.938 6.75L118.094 8.96875Z" fill="#333333"/>
<path d="M190.406 8.6875C190.24 8.64583 190.104 8.54167 190 8.375C189.958 8.33333 189.906 8.25 189.844 8.125C189.802 7.97917 189.76 7.875 189.719 7.8125L189.562 7.46875L187.594 7.71875L186.844 7.84375C186.656 7.86458 186.229 7.9375 185.562 8.0625C185.292 8.10417 185 8.1875 184.688 8.3125C184.625 8.33333 184.552 8.375 184.469 8.4375C184.385 8.5 184.312 8.53125 184.25 8.53125H184C183.792 8.53125 183.562 8.39583 183.312 8.125C183.25 8.04167 183.167 7.95833 183.062 7.875C182.979 7.77083 182.938 7.69792 182.938 7.65625C182.938 7.48958 183.01 7.33333 183.156 7.1875C183.469 6.875 183.906 6.23958 184.469 5.28125C184.677 4.98958 184.927 4.5625 185.219 4C185.51 3.4375 185.74 2.96875 185.906 2.59375C185.885 2.65625 186 2.375 186.25 1.75C186.438 1.22917 186.531 0.895833 186.531 0.75C186.573 0.520833 186.646 0.40625 186.75 0.40625C186.833 0.40625 187.01 0.520833 187.281 0.75C187.51 0.9375 187.688 1.125 187.812 1.3125C187.958 1.5 188.031 1.64583 188.031 1.75C188.031 1.83333 188.01 1.90625 187.969 1.96875C187.927 2.03125 187.854 2.10417 187.75 2.1875C187.667 2.27083 187.562 2.39583 187.438 2.5625C187.167 2.91667 186.833 3.45833 186.438 4.1875L185.812 5.28125L185.344 6.0625L185 6.65625L184.781 7C184.76 7.04167 184.76 7.08333 184.781 7.125C184.802 7.14583 184.833 7.15625 184.875 7.15625C184.875 7.15625 185.406 7.09375 186.469 6.96875L189.344 6.65625C189.281 6.48958 189.198 6.27083 189.094 6C188.99 5.70833 188.865 5.38542 188.719 5.03125C188.698 5.01042 188.688 4.96875 188.688 4.90625C188.688 4.84375 188.719 4.8125 188.781 4.8125C188.885 4.8125 189.01 4.875 189.156 5C189.323 5.10417 189.573 5.32292 189.906 5.65625C190.156 5.86458 190.365 6.10417 190.531 6.375C190.719 6.64583 190.833 6.80208 190.875 6.84375C191.062 7.11458 191.156 7.375 191.156 7.625C191.156 7.75 191.115 7.95833 191.031 8.25C190.969 8.41667 190.885 8.53125 190.781 8.59375C190.698 8.65625 190.573 8.6875 190.406 8.6875ZM190.188 17.75C189.875 17.75 189.573 17.5208 189.281 17.0625C188.906 16.4792 188.542 16 188.188 15.625L187.375 14.7812C186.938 15.2812 186.552 15.6771 186.219 15.9688C185.906 16.2604 185.51 16.5417 185.031 16.8125C184.135 17.3333 183.385 17.5938 182.781 17.5938C182.635 17.5938 182.562 17.5417 182.562 17.4375C182.562 17.375 182.76 17.2396 183.156 17.0312C183.552 16.8229 183.927 16.5729 184.281 16.2812C185.177 15.5312 185.917 14.7604 186.5 13.9688C186.375 13.8438 185.75 13.3021 184.625 12.3438C184.479 12.2396 184.26 12.0625 183.969 11.8125C183.906 11.7708 183.781 11.6771 183.594 11.5312C183.406 11.3854 183.312 11.2812 183.312 11.2188C183.312 11.1146 183.365 11.0625 183.469 11.0625C183.781 11.0625 184.281 11.2812 184.969 11.7188C185.656 12.1354 186.375 12.6354 187.125 13.2188C187.417 12.8646 187.646 12.5312 187.812 12.2188C187.979 11.9062 188.167 11.5208 188.375 11.0625C188.479 10.8333 188.542 10.6354 188.562 10.4688C188.583 10.2812 188.594 10.1667 188.594 10.125C188.594 9.89583 188.656 9.78125 188.781 9.78125C188.927 9.78125 189.125 9.89583 189.375 10.125C189.812 10.5417 190.031 10.8229 190.031 10.9688C190.031 11.0521 189.979 11.1458 189.875 11.25C189.625 11.5 189.396 11.8333 189.188 12.25C189.062 12.5 188.833 12.8542 188.5 13.3125C188.396 13.4375 188.312 13.5521 188.25 13.6562C188.188 13.7604 188.125 13.8542 188.062 13.9375C188.542 14.2917 189.25 14.8958 190.188 15.75C190.417 15.9583 190.562 16.1562 190.625 16.3438C190.708 16.5104 190.75 16.7396 190.75 17.0312C190.75 17.2396 190.698 17.4167 190.594 17.5625C190.49 17.6875 190.354 17.75 190.188 17.75ZM187.125 27.375C186.104 27.375 185.281 27.1146 184.656 26.5938C183.99 26.0104 183.656 25.3333 183.656 24.5625C183.656 23.8958 183.896 23.3542 184.375 22.9375C184.583 22.75 184.865 22.5938 185.219 22.4688C185.573 22.3229 185.906 22.25 186.219 22.25C186.427 22.25 186.542 22.2396 186.562 22.2188C186.604 22.1771 186.635 22.0729 186.656 21.9062C186.677 21.7604 186.688 21.4583 186.688 21C186.667 20.9167 186.656 20.7708 186.656 20.5625C185.365 20.6875 184.406 20.8125 183.781 20.9375C183.635 20.9583 183.458 20.9271 183.25 20.8438C183.062 20.7396 182.906 20.6146 182.781 20.4688C182.656 20.3229 182.615 20.2188 182.656 20.1562C182.74 20.0729 182.823 20.0208 182.906 20C182.99 19.9583 183.125 19.9375 183.312 19.9375C183.958 19.9375 184.427 19.9167 184.719 19.875L189.094 19.4375C189.156 19.4375 189.302 19.4271 189.531 19.4062C189.781 19.3854 190.01 19.3438 190.219 19.2812H190.312C190.396 19.2812 190.469 19.3125 190.531 19.375C190.615 19.4167 190.667 19.4375 190.688 19.4375C191 19.6875 191.156 19.9062 191.156 20.0938C191.156 20.2396 191.031 20.3125 190.781 20.3125L190.406 20.2812C190.302 20.2604 189.781 20.2812 188.844 20.3438L187.906 20.4062C187.927 20.6562 187.927 20.9688 187.906 21.3438C187.885 21.6979 187.865 22 187.844 22.25L187.875 22.5938C187.875 22.7188 187.833 22.8333 187.75 22.9375C187.625 23.1458 187.417 23.25 187.125 23.25C186.958 23.25 186.812 23.2396 186.688 23.2188L186.375 23.1562C186.042 23.1354 185.688 23.2708 185.312 23.5625C185 23.875 184.844 24.2083 184.844 24.5625C184.844 25.0417 185.042 25.4479 185.438 25.7812C185.667 25.9688 185.906 26.0938 186.156 26.1562C186.427 26.2396 186.75 26.2812 187.125 26.2812C187.625 26.2812 188.094 26.1979 188.531 26.0312C188.969 25.8646 189.292 25.6146 189.5 25.2812C189.583 25.1354 189.656 25.0521 189.719 25.0312C189.781 24.9896 189.896 24.9688 190.062 24.9688C190.229 24.9688 190.365 25.0208 190.469 25.125C190.594 25.25 190.656 25.375 190.656 25.5C190.656 25.875 190.312 26.2812 189.625 26.7188C188.938 27.1562 188.104 27.375 187.125 27.375ZM196.688 15.375C196.75 15.375 196.812 15.4062 196.875 15.4688C196.938 15.5104 196.979 15.5729 197 15.6562V15.7188C197 15.8646 196.885 16.1458 196.656 16.5625L194.406 20.4688C194.24 20.8229 194.021 21 193.75 21C193.479 21 193.25 20.8333 193.062 20.5C192.875 20.2292 192.646 19.8229 192.375 19.2812C192.25 19.0938 192.146 18.9062 192.062 18.7188C191.979 18.5312 191.917 18.3958 191.875 18.3125C191.646 17.9167 191.531 17.6354 191.531 17.4688C191.531 17.3854 191.562 17.3229 191.625 17.2812C191.688 17.2188 191.75 17.1875 191.812 17.1875C192.042 17.1875 192.25 17.3125 192.438 17.5625C192.583 17.7083 192.698 17.8646 192.781 18.0312L193.125 18.5L193.75 19.2188L194.031 18.7812C194.323 18.2812 195.01 17.2917 196.094 15.8125C196.323 15.5208 196.521 15.375 196.688 15.375ZM156.344 16C156.115 18.2917 155.656 20.2604 154.969 21.9062C154.281 23.5312 153.573 24.7708 152.844 25.625C152.115 26.4792 151.635 26.9062 151.406 26.9062C151.323 26.9062 151.281 26.8438 151.281 26.7188C151.281 26.5312 151.375 26.25 151.562 25.875C152.375 24.3333 153 22.8542 153.438 21.4375C153.896 20 154.219 18.3646 154.406 16.5312C154.594 14.6979 154.688 12.4062 154.688 9.65625C154.688 7.84375 154.667 6.60417 154.625 5.9375C154.604 5.27083 154.521 4.78125 154.375 4.46875C154.271 4.21875 154.219 4.03125 154.219 3.90625C154.219 3.73958 154.312 3.65625 154.5 3.65625C154.854 3.65625 155.49 3.88542 156.406 4.34375C157.844 4.01042 159.219 3.5625 160.531 3C161.844 2.41667 162.646 1.875 162.938 1.375C163.062 1.16667 163.208 1.0625 163.375 1.0625C163.583 1.0625 163.844 1.3125 164.156 1.8125C164.49 2.29167 164.656 2.69792 164.656 3.03125C164.656 3.23958 164.51 3.40625 164.219 3.53125C161.865 4.59375 159.312 5.33333 156.562 5.75L156.594 8.3125L162.906 7.96875H163.156C163.469 7.96875 163.76 8.09375 164.031 8.34375C164.302 8.59375 164.438 8.82292 164.438 9.03125C164.438 9.13542 164.406 9.25 164.344 9.375C164.281 9.5 164.24 9.60417 164.219 9.6875L163.719 14.0312C164.198 14.6146 164.438 15.0417 164.438 15.3125C164.438 15.4583 164.375 15.5521 164.25 15.5938C164.125 15.6146 163.917 15.6354 163.625 15.6562L156.344 16ZM161.906 14.0312L162.25 9.6875L156.562 10C156.562 11.5208 156.521 12.9583 156.438 14.3125L161.906 14.0312ZM161.781 26.7188C161.781 26.5312 161.896 26.2604 162.125 25.9062C163.375 23.9896 164.323 22.2083 164.969 20.5625C165.635 18.8958 166.094 17.1354 166.344 15.2812C166.615 13.4271 166.75 11.1667 166.75 8.5C166.75 7.45833 166.729 6.73958 166.688 6.34375C166.646 5.92708 166.542 5.48958 166.375 5.03125C166.271 4.82292 166.219 4.64583 166.219 4.5C166.219 4.33333 166.323 4.25 166.531 4.25C166.906 4.25 167.583 4.48958 168.562 4.96875C169.625 4.51042 170.958 3.8125 172.562 2.875C174.188 1.91667 175.167 1.07292 175.5 0.34375C175.604 0.114583 175.74 0 175.906 0C176.177 0 176.5 0.229167 176.875 0.6875C177.25 1.14583 177.438 1.53125 177.438 1.84375C177.438 2.11458 176.969 2.54167 176.031 3.125C175.115 3.6875 173.958 4.28125 172.562 4.90625C171.188 5.51042 169.896 6.02083 168.688 6.4375C168.688 8.25 168.667 9.58333 168.625 10.4375L176.875 9.875C177.417 9.83333 177.865 9.75 178.219 9.625C178.344 9.58333 178.448 9.5625 178.531 9.5625C178.823 9.5625 179.167 9.76042 179.562 10.1562C179.979 10.5312 180.188 10.8333 180.188 11.0625C180.188 11.3125 179.938 11.4583 179.438 11.5L174.906 11.7812L174.875 27.25C174.875 27.8333 174.698 28.125 174.344 28.125C174.052 28.125 173.698 28 173.281 27.75C172.885 27.5 172.688 27.1875 172.688 26.8125C172.688 26.7083 172.708 26.5521 172.75 26.3438C172.854 25.8854 172.906 25.2812 172.906 24.5312L172.969 11.9062L168.562 12.1562C168.521 12.9479 168.479 13.5417 168.438 13.9375C168.208 16.375 167.646 18.5729 166.75 20.5312C165.875 22.4896 164.948 24.0417 163.969 25.1875C162.99 26.3542 162.323 26.9375 161.969 26.9375C161.844 26.9375 161.781 26.8646 161.781 26.7188Z" fill="#333333"/>
</svg>
