<svg xmlns="http://www.w3.org/2000/svg" width="354" height="30" fill="none"><path fill="#333" d="M32.469 16.781c-.23 0-.51-.177-.844-.531-.25-.25-.375-.438-.375-.563 0-.062.042-.093.125-.093a1.31 1.31 0 0 1 .313-.031l.687-.032c.396 0 .656-.01.781-.031.396 0 .73-.01 1-.031 1.792-.167 3-.302 3.625-.406.313-.042.594-.084.844-.126.25-.062.448-.093.594-.093.291 0 .583.146.875.437.229.23.343.417.343.563 0 .125-.072.208-.218.25-.104.02-.719.062-1.844.125-.625.02-1.396.073-2.313.156-.916.083-1.718.167-2.406.25-.125.02-.302.052-.531.094-.23.041-.448.062-.656.062Zm9.093-7.875c.105 0 .26.073.47.219-.022.042.02.125.124.25l.219.219c.104.104.208.229.313.375.124.146.26.302.406.469.375.395 1.24 1.427 2.593 3.093.23.334.344.531.344.594 0 .208-.125.313-.375.313-.146 0-.302-.105-.468-.313-.396-.417-1.105-1.073-2.126-1.969-.791-.729-1.51-1.291-2.156-1.687-.312-.146-.468-.313-.468-.5 0-.146.156-.354.468-.625.292-.292.51-.438.657-.438ZM2.438 16.844c-1.334 0-2-.677-2-2.032 0-1.333.666-2 2-2h24.437c1.333 0 2 .667 2 2 0 1.355-.667 2.032-2 2.032H2.437ZM86.031 14.375a1.11 1.11 0 0 1-.812-.344A23.835 23.835 0 0 0 83.125 12c-.792-.667-1.49-1.167-2.094-1.5-.291-.167-.437-.427-.437-.781 0-.063.073-.146.219-.25.187-.125.49-.396.906-.813l1.125-1.094c.5-.52.916-.99 1.25-1.406.354-.416.552-.708.594-.875.02-.041.041-.125.062-.25.042-.146.104-.218.188-.218.104 0 .24.052.406.156.187.104.344.208.469.312.312.292.468.542.468.75-.02.063-.104.136-.25.219-.125.063-.24.125-.344.188-.104.083-.479.416-1.124 1l-2.032 1.75c-.354.291-.531.52-.531.687 0 .083.167.219.5.406.396.25 1.167.76 2.313 1.531.437.292.854.615 1.25.97.333.333.5.676.5 1.03a.562.562 0 0 1-.22.438.424.424 0 0 1-.312.125Zm-5.562 7.094c-.23 0-.51-.177-.844-.532-.25-.25-.375-.437-.375-.562 0-.063.042-.094.125-.094.083-.02.188-.031.313-.031l.687-.031c.396 0 .656-.01.781-.032.396 0 .73-.01 1-.03 1.792-.167 3-.303 3.625-.407.313-.042.594-.083.844-.125.25-.063.448-.094.594-.094.291 0 .583.146.875.438.229.229.344.416.344.562 0 .125-.073.209-.22.25-.103.021-.718.063-1.843.125-.625.021-1.396.073-2.313.157-.916.083-1.718.166-2.406.25-.125.02-.302.052-.531.093-.23.042-.448.063-.656.063Zm13.219-8.313c.062 0 .124.031.187.094a.303.303 0 0 1 .125.188v.062c0 .146-.115.427-.344.844l-2.25 3.906c-.166.354-.385.531-.656.531-.27 0-.5-.166-.688-.5-.187-.27-.416-.677-.687-1.218a3.791 3.791 0 0 1-.313-.563 10.91 10.91 0 0 0-.187-.406c-.23-.396-.344-.677-.344-.844a.21.21 0 0 1 .094-.188c.063-.062.125-.093.188-.093.229 0 .437.125.624.375.146.146.26.302.344.469l.344.468.625.719.281-.438c.292-.5.98-1.49 2.063-2.968.229-.292.427-.438.594-.438ZM50.53 29.563c-.333.125-.781.041-1.343-.25-.542-.271-.886-.553-1.032-.844-.146-.313-.114-.74.094-1.282.77-2.291 1.208-5.729 1.313-10.312.02-.625.177-1.104.468-1.438.313-.354.75-.51 1.313-.468 1.083.083 1.604.677 1.562 1.781-.02.542-.052 1.333-.093 2.375.5 1.5 1.145 2.698 1.937 3.594V13h-4.594c-1.062 0-1.593-.542-1.593-1.625 0-1.063.53-1.594 1.593-1.594H54V6.844h-3.031c-1.063 0-1.594-.532-1.594-1.594 0-1.063.531-1.594 1.594-1.594H54V2.312c0-1.145.573-1.718 1.719-1.718 1.146 0 1.718.573 1.718 1.719v1.343h2.97c1.062 0 1.593.531 1.593 1.594 0 1.063-.531 1.594-1.594 1.594h-2.968V9.78h3.75c1.062 0 1.593.531 1.593 1.594 0 1.083-.531 1.625-1.593 1.625h-3.094v3.375h2.812c1.063 0 1.594.531 1.594 1.594 0 1.083-.531 1.625-1.594 1.625h-2.812v5.156c1.396.396 3.396.594 6 .594 3.146.062 6.823.052 11.031-.032.896-.02 1.438.125 1.625.438.188.313.125.896-.188 1.75-.354.938-1.093 1.406-2.218 1.406H64.093c-3.103 0-5.5-.27-7.187-.812-1.979-.625-3.541-1.771-4.687-3.438-.25 1.542-.521 2.813-.813 3.813-.229.604-.52.968-.875 1.093Zm17.563-6.125c-1.709 0-2.875-.334-3.5-1-.604-.667-.906-1.97-.906-3.907V4.156c0-.604.187-1.093.562-1.468.375-.376.865-.563 1.469-.563h7.75c.604 0 1.094.188 1.469.563.374.374.562.864.562 1.468v7.625c0 .604-.188 1.094-.563 1.469-.374.375-.864.563-1.468.563H67.25v4.718c0 .709.073 1.157.219 1.344.166.167.562.25 1.187.25h3.75c.396 0 .667-.104.813-.313.166-.895.437-1.562.812-2 .438-.52 1-.625 1.688-.312.458.208.75.625.875 1.25.104.52.104 1.104 0 1.75-.271 1.083-.709 1.844-1.313 2.281-.583.438-1.437.657-2.562.657h-4.625ZM67.25 10.5h3.906c.5 0 .75-.25.75-.75V6.156c0-.5-.25-.75-.75-.75H68c-.5 0-.75.25-.75.75V10.5ZM128.719 8.969c-.146 0-.073-.125.219-.375.291-.25.645-.552 1.062-.906.417-.375.885-.865 1.406-1.47.334-.395.584-.812.75-1.25.104-.25.219-.374.344-.374.104 0 .26.083.469.25.416.333.625.614.625.843 0 .146-.084.25-.25.313-.084.02-.209.115-.375.281-.167.146-.292.26-.375.344-.896.875-1.729 1.51-2.5 1.906-.625.292-1.042.438-1.25.438h-.125ZM132 14.78c-.062 0-.167-.083-.312-.25a2.624 2.624 0 0 1-.282-.531 1.735 1.735 0 0 1 0-.469c.042-.208.063-.364.063-.469.041-.416.062-.75.062-1 .021-.229.021-.479 0-.75v-.53l-.031-.47c-.5.355-.885.605-1.156.75-.604.334-1.042.542-1.313.626a2.606 2.606 0 0 1-.906.187c-.146 0-.229-.02-.25-.063-.042-.083.375-.385 1.25-.906.833-.52 1.74-1.208 2.719-2.062.541-.5.958-.98 1.25-1.438a.715.715 0 0 0 .094-.218c.041-.105.083-.167.124-.188.063-.02.146-.01.25.031.271.146.5.354.688.625a.502.502 0 0 1 .125.313c0 .104-.052.208-.156.312a1.246 1.246 0 0 1-.313.188 7 7 0 0 0-.968.75c-.292.27-.48.448-.563.531.313.25.469.427.469.531l-.094.656c-.042.188-.062.657-.062 1.407 0 .729.02 1.219.062 1.469v.062a.772.772 0 0 1-.094.344 2.888 2.888 0 0 1-.094.219c-.145.229-.333.343-.562.343Zm3.562 9.438c.292.187.438.364.438.531 0 .23-.177.375-.531.438-.354.062-.854.104-1.5.125-.938.02-1.542-.01-1.813-.094-.458-.209-.687-.552-.687-1.032l.031-1.156c.042-.375.062-.708.062-1 .021-.187.032-.552.032-1.093A10.534 10.534 0 0 1 130.375 23c-.354.438-.667.802-.937 1.094-.271.27-.594.531-.969.781s-.719.375-1.031.375c-.188 0-.282-.063-.282-.188 0-.02.198-.177.594-.468.417-.313.833-.74 1.25-1.282.625-.833 1.167-1.812 1.625-2.937-.813.104-1.354.198-1.625.281-.104.021-.198.052-.281.094a.785.785 0 0 1-.313 0 2.646 2.646 0 0 1-.437-.25 2.823 2.823 0 0 1-.438-.406c-.083-.125-.125-.209-.125-.25 0-.104.156-.157.469-.157.771 0 1.76-.083 2.969-.25.125-.479.187-1.25.187-2.312v-.594c0-.25.052-.385.157-.406.02-.02.062-.031.124-.031.167 0 .396.125.688.375.229.187.375.333.438.437.083.084.093.198.031.344l-.125.25c-.063.125-.104.25-.125.375l-.125.625a6.584 6.584 0 0 0-.125.781c.291-.02.656-.062 1.093-.125.438-.062.761-.125.969-.187l.625-.157c.209-.041.552.136 1.032.532.083.062.124.135.124.218 0 .084-.041.157-.124.22a.446.446 0 0 1-.25.062c-.376 0-1.063.062-2.063.187l-1.031.094c.229.167.375.313.437.438a.47.47 0 0 1 .031.375l-.093.5c-.042.416-.084.875-.125 1.375-.021.5-.021.885 0 1.156 0 .104.062.198.187.281a.877.877 0 0 0 .438.125c.521 0 1.104-.052 1.75-.156l.281-.063c.125 0 .229.021.312.063Zm2-10.625c.105 0 .261.073.469.219-.021.041.021.124.125.25l.219.218c.104.104.208.23.313.375.124.146.26.302.406.469.375.396 1.239 1.427 2.594 3.094.229.333.343.531.343.593 0 .209-.125.313-.375.313-.146 0-.302-.104-.468-.313-.396-.416-1.105-1.072-2.126-1.968-.791-.73-1.51-1.292-2.156-1.688-.312-.146-.468-.312-.468-.5 0-.146.156-.354.468-.625.292-.291.511-.437.656-.437Zm-35.25 16.093c-1.124 0-1.687-.552-1.687-1.656v-8.875h-2.063c-.562 0-1.01-.166-1.343-.5-.334-.333-.5-.781-.5-1.343V6.938c0-.605.187-1.094.562-1.47.375-.374.865-.562 1.469-.562h1.875V2.22c0-1.104.563-1.656 1.687-1.656 1.105 0 1.657.552 1.657 1.656v2.687h2.219c.604 0 1.093.188 1.468.563.375.375.563.864.563 1.468v6.282H123.406c1.084 0 1.625.541 1.625 1.625 0 1.083-.541 1.625-1.625 1.625h-9.281c-.167.333-.417.812-.75 1.437h9.125c.667 0 1.156.25 1.469.75.354.604.5 1.584.437 2.938-.125 2.187-.281 3.802-.468 4.843-.167 1-.407 1.688-.719 2.063-.479.583-1.115.938-1.907 1.063-.374.062-.874.093-1.5.093-1.041-.041-1.666-.437-1.874-1.187-.188-.625-.136-1.063.156-1.313.271-.229.771-.323 1.5-.281.396 0 .687-.125.875-.375.312-.333.552-1.802.719-4.406.02-.5-.021-.834-.126-1-.083-.167-.25-.25-.5-.25h-.093c-1.25 3.27-2.959 5.99-5.125 8.156-.313.27-.615.417-.906.438-.271.02-.584-.084-.938-.313-.521-.333-.792-.667-.812-1 0-.333.239-.708.718-1.125 1.667-1.646 3.011-3.698 4.032-6.156H116c-1.375 2.75-3.302 5.125-5.781 7.125-.667.5-1.334.52-2 .062-.542-.375-.781-.74-.719-1.093.042-.334.344-.698.906-1.094 1.834-1.438 3.282-3.104 4.344-5h-1.406a22.503 22.503 0 0 1-2.282 2.375c-.666.52-1.333.541-2 .062-1-.729-.968-1.49.094-2.281a15.561 15.561 0 0 0 3.656-4.531h-2.593v1.437c0 .375-.115.677-.344.907-.229.229-.531.343-.906.343h-3v8.875c0 1.104-.552 1.657-1.657 1.657Zm-2.187-13.656h.813V13.344h-1.563v1.937c0 .5.25.75.75.75Zm3.563 0h.937c.479 0 .719-.24.719-.718v-1.97h-1.656V16.032Zm8.156-3.968c-.604 0-1.094-.188-1.469-.563-.375-.375-.563-.865-.563-1.469V3.25c0-.604.188-1.094.563-1.469.375-.375.865-.562 1.469-.562h9.468c.605 0 1.094.187 1.469.562.375.375.563.865.563 1.469v6.781c0 .604-.188 1.094-.563 1.469-.375.375-.864.563-1.469.563h-9.468Zm-12.469-1.594h1.563V8.062h-.876c-.458 0-.687.23-.687.688v1.719Zm4.313 0h1.656V8.813c0-.5-.25-.75-.75-.75h-.906V10.468Zm10.062-1.063H119.188c.5 0 .75-.25.75-.75v-.781h-6.844v.875c0 .438.218.656.656.656Zm-.656-4.031h6.844v-.844c0-.416-.209-.625-.626-.625h-5.468c-.5 0-.75.25-.75.75v.719ZM176.469 10.531c-.229 0-.511-.177-.844-.531-.25-.25-.375-.438-.375-.563 0-.062.042-.093.125-.093.083-.021.187-.031.313-.031l.687-.032c.396 0 .656-.01.781-.031.396 0 .729-.01 1-.031 1.792-.167 3-.302 3.625-.406.313-.042.594-.084.844-.126.25-.062.448-.093.594-.093.291 0 .583.146.875.437.229.23.344.417.344.563 0 .125-.073.208-.219.25-.104.02-.719.062-1.844.125a41.63 41.63 0 0 0-2.313.156c-.916.083-1.718.167-2.406.25-.125.02-.302.052-.531.094a3.676 3.676 0 0 1-.656.062Zm7.343 14.188c-.02.02-.072.031-.156.031-.166 0-.406-.115-.718-.344a83.974 83.974 0 0 0-2.782-2.625 21.943 21.943 0 0 1-1.531 1.407 11.53 11.53 0 0 1-.875.562c-.604.354-1.188.573-1.75.656h-.188c-.187 0-.302-.02-.343-.062-.021-.021.021-.063.125-.125a2.84 2.84 0 0 0 .281-.157c.125-.062.479-.291 1.063-.687.291-.208.708-.563 1.25-1.063.541-.5.937-.906 1.187-1.218l-1.281-1a38.492 38.492 0 0 0-.75-.532 5.102 5.102 0 0 0-.532-.406l-.031-.093c0-.125.104-.188.313-.188.25 0 .656.156 1.218.469l1.594 1.031c.354-.458.709-.958 1.063-1.5.375-.563.573-.896.593-1 .021-.063.011-.115-.031-.156-.021-.063-.062-.094-.125-.094h-.625l-1.125.094a15.55 15.55 0 0 0-1.687.218c-.063.021-.167.053-.313.094a1.402 1.402 0 0 1-.375.063c-.041 0-.219-.115-.531-.344-.292-.25-.448-.406-.469-.469-.021-.02-.031-.052-.031-.093 0-.105.115-.146.344-.125h.437c.584 0 1.427-.053 2.531-.157l1.063-.093.969-.125c.312-.084.489-.125.531-.125h.063c.104 0 .197.03.281.093a.786.786 0 0 1 .187.188.953.953 0 0 0 .094.125l.188.187a.495.495 0 0 1 .187.25.383.383 0 0 1 .063.219c0 .188-.073.323-.219.406-.104.042-.292.26-.563.657-.458.729-1.01 1.51-1.656 2.343.354.23.812.563 1.375 1 .25.167.656.448 1.219.844.25.188.437.438.562.75.084.333.125.583.125.75-.021.167-.093.281-.219.344Zm5.75-13.625c.25 0 .376.114.376.344 0 .124-.115.302-.344.53-.625.772-1.865 2.24-3.719 4.407-.146.188-.281.281-.406.281-.104 0-.334-.156-.688-.468-.291-.25-.437-.459-.437-.625 0-.188.156-.365.468-.532.48-.27 1.198-.812 2.157-1.625.958-.854 1.666-1.531 2.125-2.031.187-.188.344-.281.468-.281ZM147.406 27.78c-1.146 1.084-2.041.959-2.687-.375-.459-1.02-.271-1.833.562-2.437a74.03 74.03 0 0 0 2.219-1.813v-4.375c0-.5-.25-.75-.75-.75h-.688c-1.124 0-1.687-.562-1.687-1.687s.563-1.688 1.687-1.688H149.375c.479 0 .854.136 1.125.406.271.271.406.646.406 1.126v6.625c1.188 1.916 3.521 2.937 7 3.062 4.084.167 8.521.125 13.313-.125.791-.063 1.302.052 1.531.344.229.291.229.823 0 1.593-.146.5-.354.844-.625 1.032-.25.208-.635.333-1.156.375-4.917.187-9.271.198-13.063.031-2-.083-3.646-.375-4.937-.875a8.341 8.341 0 0 1-3.5-2.531l-.688.687-1.375 1.375ZM165.844 25c-1.209.042-1.948-.375-2.219-1.25-.375-1.23.208-1.823 1.75-1.781h.281c.188 0 .313-.021.375-.063.063-.062.094-.166.094-.312v-3.907h-1.937c-.98 0-1.469-.49-1.469-1.468 0-.98.489-1.469 1.469-1.469h1.937v-1.063c0-.562.281-.843.844-.843h.187c.292-.354.656-.875 1.094-1.563h-3c-.542 0-.979-.156-1.312-.469-.313-.333-.469-.77-.469-1.312v-.094a14.202 14.202 0 0 0-2.157-1.781h-4.156v2.281h3.688c.354 0 .635.115.844.344.229.208.343.49.343.844v.094c-.104 4.374-.219 7.374-.343 9-.146 1.833-.396 2.99-.75 3.468-.438.646-1.021 1.032-1.75 1.157-.25.041-.688.083-1.313.125-.896 0-1.417-.407-1.563-1.22a.842.842 0 0 0-.031-.187.976.976 0 0 0-.062-.218c-.167-.417-.167-.73 0-.938.187-.23.521-.333 1-.313h.25a.898.898 0 0 0 .781-.406c.312-.437.521-2.854.625-7.25.021-.583-.031-.979-.156-1.187-.104-.188-.292-.281-.563-.281h-1.031c-.125 4.437-.979 7.854-2.563 10.25-.729.958-1.468 1.062-2.218.312-.709-.688-.729-1.5-.063-2.438 1.25-2.187 1.875-5.406 1.875-9.656V7.625h-1.281c-.333 0-.604-.094-.813-.281-.187-.209-.281-.48-.281-.813V5.094l-1.031.937c-.25.23-.521.344-.812.344a.802.802 0 0 1-.657-.313 20.241 20.241 0 0 0-2.125-1.968c-1.104-.813-1.177-1.636-.218-2.469.645-.583 1.354-.615 2.124-.094 1.646 1.188 2.782 2.167 3.407 2.938l-.094.093h3.063V2.25c0-1.125.572-1.688 1.718-1.688 1.125 0 1.688.563 1.688 1.688v2.313h1.844c.458 0 .822.135 1.093.406.271.27.407.635.407 1.093v.094c.708-1.187 1.312-2.593 1.812-4.218.25-1.042.885-1.448 1.906-1.22 1.042.21 1.417.834 1.125 1.876-.125.458-.229.802-.312 1.031h4.375c1.021 0 1.531.51 1.531 1.531s-.51 1.532-1.531 1.532H165.438c-.313.645-.667 1.27-1.063 1.875h5.844c.75 0 1.239.229 1.469.687.25.438.197 1.083-.157 1.938-.521.979-1.281 2.052-2.281 3.218v.344h2.094c.979 0 1.468.49 1.468 1.469 0 .979-.489 1.468-1.468 1.468h-2.094v3.97c0 .77-.073 1.353-.219 1.75a1.92 1.92 0 0 1-1 1.062c-.541.291-1.271.468-2.187.531Zm-16.75-12.438c-.417.021-.834-.177-1.25-.593-.604-.521-1.209-1-1.813-1.438-1.083-.75-1.177-1.562-.281-2.437.646-.604 1.333-.698 2.062-.281.584.333 1.105.677 1.563 1.03.458.334.792.595 1 .782.771.708.75 1.448-.063 2.219-.458.437-.864.677-1.218.719ZM223.312 10.125c-.02 0-.093.02-.218.063-.104.02-.156-.01-.156-.094 0-.021.041-.063.124-.125l.219-.219c.063-.063.157-.146.281-.25.126-.125.219-.25.282-.375.312-.52.531-1.042.656-1.563l.188-1.093c.145-.813.208-1.76.187-2.844 0-.25-.031-.51-.094-.781-.021-.125-.125-.302-.312-.531V2.28c0-.041.052-.062.156-.062.146 0 .271.01.375.031.271.063.573.094.906.094.354-.021.573-.031.656-.031l2.094-.157c.417-.041.688-.062.813-.062.896-.125 1.302-.177 1.219-.156.479-.084.77-.125.874-.125.334.02.667.28 1 .78l.063.157c0 .125-.094.198-.281.219A4.74 4.74 0 0 1 232 3c-.646 0-1.125.01-1.438.031-.791 0-1.374.01-1.75.031l-.874.063-1.782.188c-.125 1.75-.239 2.895-.344 3.437-.166.98-.489 1.77-.968 2.375-.354.458-.865.792-1.532 1Zm7.876 8.844c-.313 0-.615-.23-.907-.688a9.905 9.905 0 0 0-1.093-1.437l-.813-.844c-.437.5-.823.896-1.156 1.188a6.25 6.25 0 0 1-1.188.843c-.896.521-1.646.782-2.25.782-.146 0-.219-.053-.219-.157 0-.062.198-.198.594-.406a6.591 6.591 0 0 0 1.125-.75c.896-.75 1.636-1.52 2.219-2.313-.125-.124-.75-.666-1.875-1.624a10.426 10.426 0 0 1-.656-.532 7.616 7.616 0 0 1-.375-.281c-.188-.146-.282-.25-.282-.313 0-.104.053-.156.157-.156.312 0 .812.219 1.5.656.687.417 1.406.917 2.156 1.5.292-.354.521-.687.687-1 .167-.312.355-.697.563-1.156.104-.229.167-.427.187-.594a4.83 4.83 0 0 0 .032-.343c0-.23.062-.344.187-.344.146 0 .344.115.594.344.437.416.656.698.656.844 0 .083-.052.177-.156.28-.25.25-.479.584-.687 1-.126.25-.355.605-.688 1.063a2.76 2.76 0 0 0-.25.344 3.062 3.062 0 0 1-.188.281c.48.354 1.188.959 2.126 1.813.229.208.374.406.437.593.083.167.125.396.125.688a.89.89 0 0 1-.156.531.504.504 0 0 1-.406.188Zm-3.157 9.937c-.146 0-.25-.041-.312-.125a1.964 1.964 0 0 0-.125-.156c-.209-.292-.302-.573-.282-.844.021-.166.053-.614.094-1.343l.032-1.5c-.021-.23-.042-.365-.063-.407-.021-.062-.115-.187-.281-.375a15.88 15.88 0 0 0-1.156-1.281c-.5-.5-.823-.833-.969-1l-.938-.938c-.062-.062-.093-.125-.093-.187 0-.104.062-.188.187-.25a.674.674 0 0 1 .437-.094c.417.042.688.094.813.157.146.041.281.166.406.375.125.208.302.458.531.75.25.27.438.479.563.625.521.625.885 1.041 1.094 1.25.375-.438.843-1.063 1.406-1.875.458-.584.729-1.063.813-1.438.083-.27.208-.406.374-.406.084 0 .209.052.376.156.541.333.812.604.812.813 0 .125-.135.28-.406.468-.375.271-.688.573-.938.907l-.625.78c-.416.5-.729.897-.937 1.188-.104.188-.156.459-.156.813V28.125c.02.146-.063.313-.25.5-.167.188-.303.281-.407.281Zm9.531-14.375c.25 0 .376.115.376.344 0 .125-.115.302-.344.531-.625.771-1.865 2.24-3.719 4.406-.146.188-.281.282-.406.282-.104 0-.334-.157-.688-.469-.291-.25-.437-.458-.437-.625 0-.188.156-.365.468-.531.48-.271 1.198-.813 2.157-1.625.958-.854 1.666-1.532 2.125-2.032.187-.187.344-.28.468-.28ZM206.531 29.72c-1.208 0-1.812-.594-1.812-1.782v-1.906h-10.094c-1.063 0-1.594-.531-1.594-1.593 0-1.063.531-1.594 1.594-1.594h10.094V21.03h-8.563c-1 0-1.5-.51-1.5-1.531 0-1 .5-1.5 1.5-1.5h1.938v-1.969h-3.938c-1.021 0-1.531-.52-1.531-1.562 0-1.021.51-1.531 1.531-1.531h3.938v-1.876h-1.625c-1 0-1.5-.51-1.5-1.53 0-1 .5-1.5 1.5-1.5h20.5c1 0 1.5.5 1.5 1.5 0 1.02-.5 1.53-1.5 1.53h-1.844v1.876h3.937c1.021 0 1.532.51 1.532 1.53 0 1.042-.511 1.563-1.532 1.563h-3.937V18h2.25c1 0 1.5.5 1.5 1.5 0 1.02-.5 1.531-1.5 1.531h-9.063v1.813h10.438c1.062 0 1.594.531 1.594 1.593 0 1.063-.532 1.594-1.594 1.594h-10.438v1.907c0 1.187-.593 1.78-1.781 1.78Zm-5-11.719h3.188v-1.969h-3.188V18Zm6.781 0h3.407v-1.969h-3.407V18Zm-6.781-5.063h3.188v-1.874h-3.188v1.874Zm6.781 0h3.407v-1.874h-3.407v1.874Zm-7.124-5.624c-1.209 0-1.813-.563-1.813-1.688v-.063h-4.844c-1.083 0-1.625-.552-1.625-1.656 0-1.083.542-1.625 1.625-1.625h4.844V2.22c0-.542.156-.948.469-1.219.333-.292.781-.438 1.344-.438 1.187 0 1.781.553 1.781 1.657v.062h7.125V2.22c0-.542.156-.948.468-1.219.334-.292.782-.438 1.344-.438 1.188 0 1.782.553 1.782 1.657v.062h5.031c1.083 0 1.625.542 1.625 1.625 0 1.104-.542 1.656-1.625 1.656h-5.031v.063c0 1.125-.594 1.688-1.782 1.688-1.208 0-1.812-.563-1.812-1.688v-.063h-7.125v.063c0 1.125-.594 1.688-1.781 1.688ZM279.188 13.656c-.313 0-.615-.229-.907-.687a9.902 9.902 0 0 0-1.093-1.438l-.813-.844c-.437.5-.823.896-1.156 1.188a6.255 6.255 0 0 1-1.188.844c-.896.52-1.646.781-2.25.781-.146 0-.219-.052-.219-.156 0-.063.198-.198.594-.406a6.591 6.591 0 0 0 1.125-.75c.896-.75 1.636-1.521 2.219-2.313-.125-.125-.75-.667-1.875-1.625a10.41 10.41 0 0 1-.656-.531 7.656 7.656 0 0 1-.375-.282c-.188-.145-.282-.25-.282-.312 0-.104.053-.156.157-.156.312 0 .812.218 1.5.656.687.417 1.406.917 2.156 1.5.292-.354.521-.688.687-1 .167-.313.355-.698.563-1.156.104-.23.167-.427.187-.594.021-.188.032-.302.032-.344 0-.229.062-.343.187-.343.146 0 .344.114.594.343.437.417.656.698.656.844 0 .083-.052.177-.156.281-.25.25-.479.584-.687 1-.126.25-.355.604-.688 1.063-.104.125-.188.24-.25.344a3.071 3.071 0 0 1-.188.28c.48.355 1.188.96 2.126 1.813.229.209.374.406.437.594.083.167.125.396.125.688a.891.891 0 0 1-.156.53.504.504 0 0 1-.406.188Zm.562 6c.229.25.344.459.344.625 0 .146-.084.282-.25.407-.104.083-.365.541-.782 1.375-.458.75-.968 1.406-1.531 1.968-.541.542-1.083.938-1.625 1.188a1.029 1.029 0 0 1-.312.062c-.084 0-.125-.02-.125-.062v-.063c0-.125.104-.27.312-.437.375-.292.657-.584.844-.875.208-.313.365-.542.469-.688.437-.625.75-1.135.937-1.531a3.76 3.76 0 0 0 .438-1.094h-.125c-.542 0-1.417.063-2.625.188-.188.02-.729.093-1.625.218-.188.021-.479.073-.875.157l-.375.093a.557.557 0 0 1-.25.063.838.838 0 0 1-.313-.063 2.843 2.843 0 0 1-.312-.218c-.25-.209-.375-.386-.375-.532a.976.976 0 0 0 .062-.187.5.5 0 0 0 .063-.219l.156-1.031c.021-.104.042-.219.063-.344.02-.125.031-.25.031-.375 0-.396-.011-.708-.031-.937 0-.25-.032-.51-.094-.782v-.093c0-.146.062-.219.187-.219s.344.094.657.281c.416.292.624.521.624.688 0 .062-.01.114-.031.156l-.062.125a8.772 8.772 0 0 0-.094.625l-.156 1.656c0 .042.021.094.062.157a.337.337 0 0 0 .188.062c.5 0 1.625-.125 3.375-.375.687-.063 1.177-.135 1.468-.219a2.31 2.31 0 0 0 .469-.093c.146-.063.24-.094.281-.094.126-.042.209-.063.25-.063.188 0 .417.167.688.5Zm5.812-8.562c.25 0 .376.114.376.344 0 .124-.115.302-.344.53-.625.772-1.865 2.24-3.719 4.407-.146.188-.281.281-.406.281-.104 0-.334-.156-.688-.468-.291-.25-.437-.459-.437-.625 0-.188.156-.365.468-.532.48-.27 1.198-.812 2.157-1.625.958-.854 1.666-1.531 2.125-2.031.187-.188.344-.281.468-.281Zm-41.187 18.031c-1.333.458-2.323.177-2.969-.844-.875-1.375-.385-2.354 1.469-2.937 3.396-1.167 6.313-2.688 8.75-4.563-2.646-3.062-4.844-6.958-6.594-11.687h-2.593c-1.209 0-1.813-.604-1.813-1.813 0-1.208.604-1.812 1.813-1.812h10.312V2.375c0-1.23.625-1.844 1.875-1.844 1.229 0 1.844.615 1.844 1.844v3.094H266.938c1.208 0 1.812.604 1.812 1.812 0 1.209-.604 1.813-1.812 1.813h-2.626c-1.666 4.562-3.927 8.406-6.781 11.531 2.521 1.938 5.386 3.438 8.594 4.5 2.146.583 2.677 1.635 1.594 3.156-.688.98-1.719 1.26-3.094.844-3.958-1.292-7.354-3.146-10.187-5.563-2.855 2.292-6.209 4.146-10.063 5.563ZM254.656 18c2.229-2.458 4-5.427 5.313-8.906H249.156c1.292 3.416 3.125 6.385 5.5 8.906ZM323.875 16.219c-.167 0-.333-.032-.5-.094a.814.814 0 0 1-.375-.375c-.062-.188-.198-.406-.406-.656a2.388 2.388 0 0 0-.563-.563l.125-.156c.104.063.354.188.75.375.396.188.688.281.875.281.292 0 .552-.104.781-.312.23-.209.521-.604.876-1.188.25-.396.479-.864.687-1.406.208-.542.365-1.042.469-1.5l.031-.063a.211.211 0 0 0-.063-.156c-.041-.062-.083-.094-.124-.094l-1.438.126a41.73 41.73 0 0 1-3 .406 3.25 3.25 0 0 0-.656.156c-.25.083-.427.125-.532.125-.166 0-.385-.135-.656-.406a2.213 2.213 0 0 1-.312-.313c-.084-.125-.104-.229-.063-.312l.25-.25.157-.125c.291-.292.583-.677.874-1.156.209-.292.428-.782.657-1.47 0-.228.052-.343.156-.343.063 0 .167.042.313.125l.5.313c.124.104.208.187.25.25a.45.45 0 0 1 .062.25c0 .125-.083.28-.25.468a4.777 4.777 0 0 0-.438.5l-.718 1.031-.063.126c0 .062.084.093.25.093l2.407-.312 1.624-.125.626-.063.343-.062h.094c.208 0 .437.177.687.531.292.27.438.5.438.688l-.156.406c-.021.041-.188.531-.5 1.469-.375.895-.698 1.572-.969 2.03-.271.46-.563.813-.875 1.063-.562.459-1.104.688-1.625.688Zm.156 11.125c-.146 0-.25-.042-.312-.125a1.953 1.953 0 0 0-.125-.157c-.209-.291-.302-.572-.282-.843.021-.167.053-.615.094-1.344l.032-1.5c-.021-.23-.042-.365-.063-.406-.021-.063-.115-.188-.281-.375a15.863 15.863 0 0 0-1.156-1.282c-.5-.5-.823-.833-.969-1l-.938-.937c-.062-.063-.093-.125-.093-.188 0-.104.062-.187.187-.25a.673.673 0 0 1 .437-.093c.417.041.688.093.813.156.146.042.281.167.406.375s.302.458.531.75c.25.27.438.48.563.625.521.625.885 1.042 1.094 1.25.375-.438.843-1.063 1.406-1.875.458-.583.729-1.063.813-1.438.083-.27.208-.406.374-.406.084 0 .209.052.376.157.541.333.812.604.812.812 0 .125-.135.281-.406.469-.375.27-.688.573-.938.906l-.625.781c-.416.5-.729.896-.937 1.188-.104.187-.156.458-.156.812v3.157c.02.145-.063.312-.25.5-.167.187-.303.28-.407.28Zm-.25-24.719c.417 0 .771.146 1.063.438.312.27.468.635.468 1.093 0 .459-.156.834-.468 1.125-.292.271-.646.407-1.063.407-.416 0-.781-.136-1.093-.407-.292-.291-.438-.666-.438-1.125 0-.458.146-.823.438-1.093a1.551 1.551 0 0 1 1.093-.438Zm-18.062 26.594c-2.042 0-3.427-.375-4.157-1.125-.75-.771-1.124-2.271-1.124-4.5V4.437c0-.604.187-1.093.562-1.468.375-.375.865-.563 1.469-.563h11.562c.604 0 1.094.188 1.469.563.375.375.562.864.562 1.469v11.28c0 .605-.187 1.095-.562 1.47-.375.375-.865.562-1.469.562h-9.969v5.875c0 .938.115 1.531.344 1.781.229.25.802.375 1.719.375h5.719c.708 0 1.208-.198 1.5-.593.208-.938.51-1.636.906-2.094.479-.563 1.062-.698 1.75-.407.896.396 1.208 1.417.938 3.063-.334 1.25-.865 2.135-1.594 2.656-.709.542-1.761.813-3.156.813h-6.469Zm-14.438-7.657c-.604 0-1.093-.187-1.469-.562-.374-.375-.562-.865-.562-1.469V5.281c0-.604.188-1.093.562-1.468.376-.376.865-.563 1.469-.563h5.125c.604 0 1.094.188 1.469.563.375.374.563.864.563 1.468v14.25c0 .604-.188 1.094-.563 1.469-.375.375-.865.563-1.469.563h-5.125Zm2.063-3.406h.968c.5 0 .75-.25.75-.75v-10c0-.5-.25-.75-.75-.75h-.968c-.5 0-.75.25-.75.75v10c0 .5.25.75.75.75Zm10.718-3.781h2.438V5.813h-1.688c-.5 0-.75.25-.75.75v7.812Zm5.782 0h1.906c.5 0 .75-.25.75-.75V6.562c0-.5-.25-.75-.75-.75h-1.906V14.375ZM350.625 27.281c-.937 0-1.719-.281-2.344-.843-.604-.584-.906-1.323-.906-2.22 0-.895.313-1.635.937-2.218.626-.583 1.396-.875 2.313-.875.958 0 1.729.292 2.313.875.624.583.937 1.323.937 2.219 0 .896-.313 1.635-.937 2.218-.605.563-1.376.844-2.313.844Zm.031-8.312c-1.104 0-1.698-.49-1.781-1.469l-.969-9.219-.062-2.594c-.021-.625.146-1.125.5-1.5.375-.375.875-.562 1.5-.562h2.312c.417 0 .74.125.969.375.25.25.365.573.344.969l-.125 3.312-.938 9.219c-.083.98-.666 1.469-1.75 1.469Z"/></svg>