<svg width="354" height="30" viewBox="0 0 354 30" fill="none" xmlns="http://www.w3.org/2000/svg">
<path d="M32.4688 16.7812C32.2396 16.7812 31.9583 16.6042 31.625 16.25C31.375 16 31.25 15.8125 31.25 15.6875C31.25 15.625 31.2917 15.5938 31.375 15.5938C31.4583 15.5729 31.5625 15.5625 31.6875 15.5625L32.375 15.5312C32.7708 15.5312 33.0312 15.5208 33.1562 15.5C33.5521 15.5 33.8854 15.4896 34.1562 15.4688C35.9479 15.3021 37.1562 15.1667 37.7812 15.0625C38.0938 15.0208 38.375 14.9792 38.625 14.9375C38.875 14.875 39.0729 14.8438 39.2188 14.8438C39.5104 14.8438 39.8021 14.9896 40.0938 15.2812C40.3229 15.5104 40.4375 15.6979 40.4375 15.8438C40.4375 15.9688 40.3646 16.0521 40.2188 16.0938C40.1146 16.1146 39.5 16.1562 38.375 16.2188C37.75 16.2396 36.9792 16.2917 36.0625 16.375C35.1458 16.4583 34.3438 16.5417 33.6562 16.625C33.5312 16.6458 33.3542 16.6771 33.125 16.7188C32.8958 16.7604 32.6771 16.7812 32.4688 16.7812ZM41.5625 8.90625C41.6667 8.90625 41.8229 8.97917 42.0312 9.125C42.0104 9.16667 42.0521 9.25 42.1562 9.375C42.2604 9.47917 42.3333 9.55208 42.375 9.59375C42.4792 9.69792 42.5833 9.82292 42.6875 9.96875C42.8125 10.1146 42.9479 10.2708 43.0938 10.4375C43.4688 10.8333 44.3333 11.8646 45.6875 13.5312C45.9167 13.8646 46.0312 14.0625 46.0312 14.125C46.0312 14.3333 45.9062 14.4375 45.6562 14.4375C45.5104 14.4375 45.3542 14.3333 45.1875 14.125C44.7917 13.7083 44.0833 13.0521 43.0625 12.1562C42.2708 11.4271 41.5521 10.8646 40.9062 10.4688C40.5938 10.3229 40.4375 10.1562 40.4375 9.96875C40.4375 9.82292 40.5938 9.61458 40.9062 9.34375C41.1979 9.05208 41.4167 8.90625 41.5625 8.90625ZM2.4375 16.8438C1.10417 16.8438 0.4375 16.1667 0.4375 14.8125C0.4375 13.4792 1.10417 12.8125 2.4375 12.8125H26.875C28.2083 12.8125 28.875 13.4792 28.875 14.8125C28.875 16.1667 28.2083 16.8438 26.875 16.8438H14.6562H2.4375Z" fill="#333333"/>
<path d="M86.0312 14.375C85.7188 14.375 85.4479 14.2604 85.2188 14.0312C84.5312 13.2812 83.8333 12.6042 83.125 12C82.3333 11.3333 81.6354 10.8333 81.0312 10.5C80.7396 10.3333 80.5938 10.0729 80.5938 9.71875C80.5938 9.65625 80.6667 9.57292 80.8125 9.46875C81 9.34375 81.3021 9.07292 81.7188 8.65625L82.8438 7.5625C83.3438 7.04167 83.7604 6.57292 84.0938 6.15625C84.4479 5.73958 84.6458 5.44792 84.6875 5.28125C84.7083 5.23958 84.7292 5.15625 84.75 5.03125C84.7917 4.88542 84.8542 4.8125 84.9375 4.8125C85.0417 4.8125 85.1771 4.86458 85.3438 4.96875C85.5312 5.07292 85.6875 5.17708 85.8125 5.28125C86.125 5.57292 86.2812 5.82292 86.2812 6.03125C86.2604 6.09375 86.1771 6.16667 86.0312 6.25C85.9062 6.3125 85.7917 6.375 85.6875 6.4375C85.5833 6.52083 85.2083 6.85417 84.5625 7.4375L82.5312 9.1875C82.1771 9.47917 82 9.70833 82 9.875C82 9.95833 82.1667 10.0938 82.5 10.2812C82.8958 10.5312 83.6667 11.0417 84.8125 11.8125C85.25 12.1042 85.6667 12.4271 86.0625 12.7812C86.3958 13.1146 86.5625 13.4583 86.5625 13.8125C86.5625 13.9792 86.4896 14.125 86.3438 14.25C86.2604 14.3333 86.1562 14.375 86.0312 14.375ZM80.4688 21.4688C80.2396 21.4688 79.9583 21.2917 79.625 20.9375C79.375 20.6875 79.25 20.5 79.25 20.375C79.25 20.3125 79.2917 20.2812 79.375 20.2812C79.4583 20.2604 79.5625 20.25 79.6875 20.25L80.375 20.2188C80.7708 20.2188 81.0312 20.2083 81.1562 20.1875C81.5521 20.1875 81.8854 20.1771 82.1562 20.1562C83.9479 19.9896 85.1562 19.8542 85.7812 19.75C86.0938 19.7083 86.375 19.6667 86.625 19.625C86.875 19.5625 87.0729 19.5312 87.2188 19.5312C87.5104 19.5312 87.8021 19.6771 88.0938 19.9688C88.3229 20.1979 88.4375 20.3854 88.4375 20.5312C88.4375 20.6562 88.3646 20.7396 88.2188 20.7812C88.1146 20.8021 87.5 20.8438 86.375 20.9062C85.75 20.9271 84.9792 20.9792 84.0625 21.0625C83.1458 21.1458 82.3438 21.2292 81.6562 21.3125C81.5312 21.3333 81.3542 21.3646 81.125 21.4062C80.8958 21.4479 80.6771 21.4688 80.4688 21.4688ZM93.6875 13.1562C93.75 13.1562 93.8125 13.1875 93.875 13.25C93.9375 13.2917 93.9792 13.3542 94 13.4375V13.5C94 13.6458 93.8854 13.9271 93.6562 14.3438L91.4062 18.25C91.2396 18.6042 91.0208 18.7812 90.75 18.7812C90.4792 18.7812 90.25 18.6146 90.0625 18.2812C89.875 18.0104 89.6458 17.6042 89.375 17.0625C89.25 16.875 89.1458 16.6875 89.0625 16.5C88.9792 16.3125 88.9167 16.1771 88.875 16.0938C88.6458 15.6979 88.5312 15.4167 88.5312 15.25C88.5312 15.1667 88.5625 15.1042 88.625 15.0625C88.6875 15 88.75 14.9688 88.8125 14.9688C89.0417 14.9688 89.25 15.0938 89.4375 15.3438C89.5833 15.4896 89.6979 15.6458 89.7812 15.8125L90.125 16.2812L90.75 17L91.0312 16.5625C91.3229 16.0625 92.0104 15.0729 93.0938 13.5938C93.3229 13.3021 93.5208 13.1562 93.6875 13.1562ZM50.5312 29.5625C50.1979 29.6875 49.75 29.6042 49.1875 29.3125C48.6458 29.0417 48.3021 28.7604 48.1562 28.4688C48.0104 28.1562 48.0417 27.7292 48.25 27.1875C49.0208 24.8958 49.4583 21.4583 49.5625 16.875C49.5833 16.25 49.7396 15.7708 50.0312 15.4375C50.3438 15.0833 50.7812 14.9271 51.3438 14.9688C52.4271 15.0521 52.9479 15.6458 52.9062 16.75C52.8854 17.2917 52.8542 18.0833 52.8125 19.125C53.3125 20.625 53.9583 21.8229 54.75 22.7188V13H50.1562C49.0938 13 48.5625 12.4583 48.5625 11.375C48.5625 10.3125 49.0938 9.78125 50.1562 9.78125H54V6.84375H50.9688C49.9062 6.84375 49.375 6.3125 49.375 5.25C49.375 4.1875 49.9062 3.65625 50.9688 3.65625H54V2.3125C54 1.16667 54.5729 0.59375 55.7188 0.59375C56.8646 0.59375 57.4375 1.16667 57.4375 2.3125V3.65625H60.4062C61.4688 3.65625 62 4.1875 62 5.25C62 6.3125 61.4688 6.84375 60.4062 6.84375H57.4375V9.78125H61.1875C62.25 9.78125 62.7812 10.3125 62.7812 11.375C62.7812 12.4583 62.25 13 61.1875 13H58.0938V16.375H60.9062C61.9688 16.375 62.5 16.9062 62.5 17.9688C62.5 19.0521 61.9688 19.5938 60.9062 19.5938H58.0938V24.75C59.4896 25.1458 61.4896 25.3438 64.0938 25.3438C67.2396 25.4062 70.9167 25.3958 75.125 25.3125C76.0208 25.2917 76.5625 25.4375 76.75 25.75C76.9375 26.0625 76.875 26.6458 76.5625 27.5C76.2083 28.4375 75.4688 28.9062 74.3438 28.9062H70.0625H64.0938C60.9896 28.9062 58.5938 28.6354 56.9062 28.0938C54.9271 27.4688 53.3646 26.3229 52.2188 24.6562C51.9688 26.1979 51.6979 27.4688 51.4062 28.4688C51.1771 29.0729 50.8854 29.4375 50.5312 29.5625ZM68.0938 23.4375C66.3854 23.4375 65.2188 23.1042 64.5938 22.4375C63.9896 21.7708 63.6875 20.4688 63.6875 18.5312V4.15625C63.6875 3.55208 63.875 3.0625 64.25 2.6875C64.625 2.3125 65.1146 2.125 65.7188 2.125H69.5938H73.4688C74.0729 2.125 74.5625 2.3125 74.9375 2.6875C75.3125 3.0625 75.5 3.55208 75.5 4.15625V11.7812C75.5 12.3854 75.3125 12.875 74.9375 13.25C74.5625 13.625 74.0729 13.8125 73.4688 13.8125H67.25V18.5312C67.25 19.2396 67.3229 19.6875 67.4688 19.875C67.6354 20.0417 68.0312 20.125 68.6562 20.125H72.4062C72.8021 20.125 73.0729 20.0208 73.2188 19.8125C73.3854 18.9167 73.6562 18.25 74.0312 17.8125C74.4688 17.2917 75.0312 17.1875 75.7188 17.5C76.1771 17.7083 76.4688 18.125 76.5938 18.75C76.6979 19.2708 76.6979 19.8542 76.5938 20.5C76.3229 21.5833 75.8854 22.3438 75.2812 22.7812C74.6979 23.2188 73.8438 23.4375 72.7188 23.4375H68.0938ZM67.25 10.5H71.1562C71.6562 10.5 71.9062 10.25 71.9062 9.75V7.96875V6.15625C71.9062 5.65625 71.6562 5.40625 71.1562 5.40625H68C67.5 5.40625 67.25 5.65625 67.25 6.15625V10.5Z" fill="#333333"/>
<path d="M128.719 8.96875C128.573 8.96875 128.646 8.84375 128.938 8.59375C129.229 8.34375 129.583 8.04167 130 7.6875C130.417 7.3125 130.885 6.82292 131.406 6.21875C131.74 5.82292 131.99 5.40625 132.156 4.96875C132.26 4.71875 132.375 4.59375 132.5 4.59375C132.604 4.59375 132.76 4.67708 132.969 4.84375C133.385 5.17708 133.594 5.45833 133.594 5.6875C133.594 5.83333 133.51 5.9375 133.344 6C133.26 6.02083 133.135 6.11458 132.969 6.28125C132.802 6.42708 132.677 6.54167 132.594 6.625C131.698 7.5 130.865 8.13542 130.094 8.53125C129.469 8.82292 129.052 8.96875 128.844 8.96875H128.719ZM132 14.7812C131.938 14.7812 131.833 14.6979 131.688 14.5312C131.562 14.3438 131.469 14.1667 131.406 14C131.385 13.875 131.385 13.7188 131.406 13.5312C131.448 13.3229 131.469 13.1667 131.469 13.0625C131.51 12.6458 131.531 12.3125 131.531 12.0625C131.552 11.8333 131.552 11.5833 131.531 11.3125C131.531 11.0417 131.531 10.8646 131.531 10.7812L131.5 10.3125C131 10.6667 130.615 10.9167 130.344 11.0625C129.74 11.3958 129.302 11.6042 129.031 11.6875C128.698 11.8125 128.396 11.875 128.125 11.875C127.979 11.875 127.896 11.8542 127.875 11.8125C127.833 11.7292 128.25 11.4271 129.125 10.9062C129.958 10.3854 130.865 9.69792 131.844 8.84375C132.385 8.34375 132.802 7.86458 133.094 7.40625C133.135 7.34375 133.167 7.27083 133.188 7.1875C133.229 7.08333 133.271 7.02083 133.312 7C133.375 6.97917 133.458 6.98958 133.562 7.03125C133.833 7.17708 134.062 7.38542 134.25 7.65625C134.333 7.76042 134.375 7.86458 134.375 7.96875C134.375 8.07292 134.323 8.17708 134.219 8.28125C134.115 8.36458 134.01 8.42708 133.906 8.46875C133.552 8.69792 133.229 8.94792 132.938 9.21875C132.646 9.48958 132.458 9.66667 132.375 9.75C132.688 10 132.844 10.1771 132.844 10.2812L132.75 10.9375C132.708 11.125 132.688 11.5938 132.688 12.3438C132.688 13.0729 132.708 13.5625 132.75 13.8125V13.875C132.75 13.9792 132.719 14.0938 132.656 14.2188C132.615 14.3229 132.583 14.3958 132.562 14.4375C132.417 14.6667 132.229 14.7812 132 14.7812ZM135.562 24.2188C135.854 24.4062 136 24.5833 136 24.75C136 24.9792 135.823 25.125 135.469 25.1875C135.115 25.25 134.615 25.2917 133.969 25.3125C133.031 25.3333 132.427 25.3021 132.156 25.2188C131.698 25.0104 131.469 24.6667 131.469 24.1875L131.5 23.0312C131.542 22.6562 131.562 22.3229 131.562 22.0312C131.583 21.8438 131.594 21.4792 131.594 20.9375C131.281 21.6458 130.875 22.3333 130.375 23C130.021 23.4375 129.708 23.8021 129.438 24.0938C129.167 24.3646 128.844 24.625 128.469 24.875C128.094 25.125 127.75 25.25 127.438 25.25C127.25 25.25 127.156 25.1875 127.156 25.0625C127.156 25.0417 127.354 24.8854 127.75 24.5938C128.167 24.2812 128.583 23.8542 129 23.3125C129.625 22.4792 130.167 21.5 130.625 20.375C129.812 20.4792 129.271 20.5729 129 20.6562C128.896 20.6771 128.802 20.7083 128.719 20.75C128.635 20.7708 128.531 20.7708 128.406 20.75C128.302 20.7083 128.156 20.625 127.969 20.5C127.781 20.3542 127.635 20.2188 127.531 20.0938C127.448 19.9688 127.406 19.8854 127.406 19.8438C127.406 19.7396 127.562 19.6875 127.875 19.6875C128.646 19.6875 129.635 19.6042 130.844 19.4375C130.969 18.9583 131.031 18.1875 131.031 17.125V16.5312C131.031 16.2812 131.083 16.1458 131.188 16.125C131.208 16.1042 131.25 16.0938 131.312 16.0938C131.479 16.0938 131.708 16.2188 132 16.4688C132.229 16.6562 132.375 16.8021 132.438 16.9062C132.521 16.9896 132.531 17.1042 132.469 17.25C132.448 17.2917 132.406 17.375 132.344 17.5C132.281 17.625 132.24 17.75 132.219 17.875C132.198 17.9792 132.156 18.1875 132.094 18.5C132.031 18.7917 131.99 19.0521 131.969 19.2812C132.26 19.2604 132.625 19.2188 133.062 19.1562C133.5 19.0938 133.823 19.0312 134.031 18.9688L134.656 18.8125C134.865 18.7708 135.208 18.9479 135.688 19.3438C135.771 19.4062 135.812 19.4792 135.812 19.5625C135.812 19.6458 135.771 19.7188 135.688 19.7812C135.625 19.8229 135.542 19.8438 135.438 19.8438C135.062 19.8438 134.375 19.9062 133.375 20.0312L132.344 20.125C132.573 20.2917 132.719 20.4375 132.781 20.5625C132.844 20.6875 132.854 20.8125 132.812 20.9375L132.719 21.4375C132.677 21.8542 132.635 22.3125 132.594 22.8125C132.573 23.3125 132.573 23.6979 132.594 23.9688C132.594 24.0729 132.656 24.1667 132.781 24.25C132.927 24.3333 133.073 24.375 133.219 24.375C133.74 24.375 134.323 24.3229 134.969 24.2188L135.25 24.1562C135.375 24.1562 135.479 24.1771 135.562 24.2188ZM137.562 13.5938C137.667 13.5938 137.823 13.6667 138.031 13.8125C138.01 13.8542 138.052 13.9375 138.156 14.0625C138.26 14.1667 138.333 14.2396 138.375 14.2812C138.479 14.3854 138.583 14.5104 138.688 14.6562C138.812 14.8021 138.948 14.9583 139.094 15.125C139.469 15.5208 140.333 16.5521 141.688 18.2188C141.917 18.5521 142.031 18.75 142.031 18.8125C142.031 19.0208 141.906 19.125 141.656 19.125C141.51 19.125 141.354 19.0208 141.188 18.8125C140.792 18.3958 140.083 17.7396 139.062 16.8438C138.271 16.1146 137.552 15.5521 136.906 15.1562C136.594 15.0104 136.438 14.8438 136.438 14.6562C136.438 14.5104 136.594 14.3021 136.906 14.0312C137.198 13.7396 137.417 13.5938 137.562 13.5938ZM102.312 29.6875C101.188 29.6875 100.625 29.1354 100.625 28.0312V19.1562H98.5625C98 19.1562 97.5521 18.9896 97.2188 18.6562C96.8854 18.3229 96.7188 17.875 96.7188 17.3125V6.9375C96.7188 6.33333 96.9062 5.84375 97.2812 5.46875C97.6562 5.09375 98.1458 4.90625 98.75 4.90625H100.625V2.21875C100.625 1.11458 101.188 0.5625 102.312 0.5625C103.417 0.5625 103.969 1.11458 103.969 2.21875V4.90625H106.188C106.792 4.90625 107.281 5.09375 107.656 5.46875C108.031 5.84375 108.219 6.33333 108.219 6.9375V13.2188H116.625H123.406C124.49 13.2188 125.031 13.7604 125.031 14.8438C125.031 15.9271 124.49 16.4688 123.406 16.4688H114.125C113.958 16.8021 113.708 17.2812 113.375 17.9062H122.5C123.167 17.9062 123.656 18.1562 123.969 18.6562C124.323 19.2604 124.469 20.2396 124.406 21.5938C124.281 23.7812 124.125 25.3958 123.938 26.4375C123.771 27.4375 123.531 28.125 123.219 28.5C122.74 29.0833 122.104 29.4375 121.312 29.5625C120.938 29.625 120.438 29.6562 119.812 29.6562C118.771 29.6146 118.146 29.2188 117.938 28.4688C117.75 27.8438 117.802 27.4062 118.094 27.1562C118.365 26.9271 118.865 26.8333 119.594 26.875C119.99 26.875 120.281 26.75 120.469 26.5C120.781 26.1667 121.021 24.6979 121.188 22.0938C121.208 21.5938 121.167 21.2604 121.062 21.0938C120.979 20.9271 120.812 20.8438 120.562 20.8438H120.469C119.219 24.1146 117.51 26.8333 115.344 29C115.031 29.2708 114.729 29.4167 114.438 29.4375C114.167 29.4583 113.854 29.3542 113.5 29.125C112.979 28.7917 112.708 28.4583 112.688 28.125C112.688 27.7917 112.927 27.4167 113.406 27C115.073 25.3542 116.417 23.3021 117.438 20.8438H116C114.625 23.5938 112.698 25.9688 110.219 27.9688C109.552 28.4688 108.885 28.4896 108.219 28.0312C107.677 27.6562 107.438 27.2917 107.5 26.9375C107.542 26.6042 107.844 26.2396 108.406 25.8438C110.24 24.4062 111.688 22.7396 112.75 20.8438H111.344C110.615 21.7188 109.854 22.5104 109.062 23.2188C108.396 23.7396 107.729 23.7604 107.062 23.2812C106.062 22.5521 106.094 21.7917 107.156 21C108.635 19.75 109.854 18.2396 110.812 16.4688H108.219V17.9062C108.219 18.2812 108.104 18.5833 107.875 18.8125C107.646 19.0417 107.344 19.1562 106.969 19.1562H103.969V28.0312C103.969 29.1354 103.417 29.6875 102.312 29.6875ZM100.125 16.0312H100.938V14.6875V13.3438H99.375V15.2812C99.375 15.7812 99.625 16.0312 100.125 16.0312ZM103.688 16.0312H104.625C105.104 16.0312 105.344 15.7917 105.344 15.3125V13.3438H103.688V14.6875V16.0312ZM111.844 12.0625C111.24 12.0625 110.75 11.875 110.375 11.5C110 11.125 109.812 10.6354 109.812 10.0312V3.25C109.812 2.64583 110 2.15625 110.375 1.78125C110.75 1.40625 111.24 1.21875 111.844 1.21875H116.562H121.312C121.917 1.21875 122.406 1.40625 122.781 1.78125C123.156 2.15625 123.344 2.64583 123.344 3.25V10.0312C123.344 10.6354 123.156 11.125 122.781 11.5C122.406 11.875 121.917 12.0625 121.312 12.0625H111.844ZM99.375 10.4688H100.938V9.28125V8.0625H100.062C99.6042 8.0625 99.375 8.29167 99.375 8.75V10.4688ZM103.688 10.4688H105.344V8.8125C105.344 8.3125 105.094 8.0625 104.594 8.0625H103.688V9.28125V10.4688ZM113.75 9.40625H116.5H119.188C119.688 9.40625 119.938 9.15625 119.938 8.65625V7.875H113.094V8.75C113.094 9.1875 113.312 9.40625 113.75 9.40625ZM113.094 5.375H116.5H119.938V4.53125C119.938 4.11458 119.729 3.90625 119.312 3.90625H113.844C113.344 3.90625 113.094 4.15625 113.094 4.65625V5.375Z" fill="#333333"/>
<path d="M176.469 10.5312C176.24 10.5312 175.958 10.3542 175.625 10C175.375 9.75 175.25 9.5625 175.25 9.4375C175.25 9.375 175.292 9.34375 175.375 9.34375C175.458 9.32292 175.562 9.3125 175.688 9.3125L176.375 9.28125C176.771 9.28125 177.031 9.27083 177.156 9.25C177.552 9.25 177.885 9.23958 178.156 9.21875C179.948 9.05208 181.156 8.91667 181.781 8.8125C182.094 8.77083 182.375 8.72917 182.625 8.6875C182.875 8.625 183.073 8.59375 183.219 8.59375C183.51 8.59375 183.802 8.73958 184.094 9.03125C184.323 9.26042 184.438 9.44792 184.438 9.59375C184.438 9.71875 184.365 9.80208 184.219 9.84375C184.115 9.86458 183.5 9.90625 182.375 9.96875C181.75 9.98958 180.979 10.0417 180.062 10.125C179.146 10.2083 178.344 10.2917 177.656 10.375C177.531 10.3958 177.354 10.4271 177.125 10.4688C176.896 10.5104 176.677 10.5312 176.469 10.5312ZM183.812 24.7188C183.792 24.7396 183.74 24.75 183.656 24.75C183.49 24.75 183.25 24.6354 182.938 24.4062C182.229 23.6979 181.302 22.8229 180.156 21.7812C179.615 22.3229 179.104 22.7917 178.625 23.1875C178.458 23.3125 178.167 23.5 177.75 23.75C177.146 24.1042 176.562 24.3229 176 24.4062H175.812C175.625 24.4062 175.51 24.3854 175.469 24.3438C175.448 24.3229 175.49 24.2812 175.594 24.2188C175.719 24.1562 175.812 24.1042 175.875 24.0625C176 24 176.354 23.7708 176.938 23.375C177.229 23.1667 177.646 22.8125 178.188 22.3125C178.729 21.8125 179.125 21.4062 179.375 21.0938L178.094 20.0938C177.865 19.9271 177.615 19.75 177.344 19.5625C177.094 19.3542 176.917 19.2188 176.812 19.1562L176.781 19.0625C176.781 18.9375 176.885 18.875 177.094 18.875C177.344 18.875 177.75 19.0312 178.312 19.3438L179.906 20.375C180.26 19.9167 180.615 19.4167 180.969 18.875C181.344 18.3125 181.542 17.9792 181.562 17.875C181.583 17.8125 181.573 17.7604 181.531 17.7188C181.51 17.6562 181.469 17.625 181.406 17.625H180.781L179.656 17.7188C179.094 17.7604 178.531 17.8333 177.969 17.9375C177.906 17.9583 177.802 17.9896 177.656 18.0312C177.51 18.0729 177.385 18.0938 177.281 18.0938C177.24 18.0938 177.062 17.9792 176.75 17.75C176.458 17.5 176.302 17.3438 176.281 17.2812C176.26 17.2604 176.25 17.2292 176.25 17.1875C176.25 17.0833 176.365 17.0417 176.594 17.0625C176.823 17.0625 176.969 17.0625 177.031 17.0625C177.615 17.0625 178.458 17.0104 179.562 16.9062L180.625 16.8125L181.594 16.6875C181.906 16.6042 182.083 16.5625 182.125 16.5625H182.188C182.292 16.5625 182.385 16.5938 182.469 16.6562C182.552 16.7188 182.615 16.7812 182.656 16.8438C182.698 16.9062 182.729 16.9479 182.75 16.9688C182.771 16.9896 182.833 17.0521 182.938 17.1562C183.042 17.2396 183.104 17.3229 183.125 17.4062C183.167 17.4688 183.188 17.5417 183.188 17.625C183.188 17.8125 183.115 17.9479 182.969 18.0312C182.865 18.0729 182.677 18.2917 182.406 18.6875C181.948 19.4167 181.396 20.1979 180.75 21.0312C181.104 21.2604 181.562 21.5938 182.125 22.0312C182.375 22.1979 182.781 22.4792 183.344 22.875C183.594 23.0625 183.781 23.3125 183.906 23.625C183.99 23.9583 184.031 24.2083 184.031 24.375C184.01 24.5417 183.938 24.6562 183.812 24.7188ZM189.562 11.0938C189.812 11.0938 189.938 11.2083 189.938 11.4375C189.938 11.5625 189.823 11.7396 189.594 11.9688C188.969 12.7396 187.729 14.2083 185.875 16.375C185.729 16.5625 185.594 16.6562 185.469 16.6562C185.365 16.6562 185.135 16.5 184.781 16.1875C184.49 15.9375 184.344 15.7292 184.344 15.5625C184.344 15.375 184.5 15.1979 184.812 15.0312C185.292 14.7604 186.01 14.2188 186.969 13.4062C187.927 12.5521 188.635 11.875 189.094 11.375C189.281 11.1875 189.438 11.0938 189.562 11.0938ZM147.406 27.7812C146.26 28.8646 145.365 28.7396 144.719 27.4062C144.26 26.3854 144.448 25.5729 145.281 24.9688C146.177 24.2604 146.917 23.6562 147.5 23.1562V18.7812C147.5 18.2812 147.25 18.0312 146.75 18.0312H146.062C144.938 18.0312 144.375 17.4688 144.375 16.3438C144.375 15.2188 144.938 14.6562 146.062 14.6562H147.625H149.375C149.854 14.6562 150.229 14.7917 150.5 15.0625C150.771 15.3333 150.906 15.7083 150.906 16.1875V22.8125C152.094 24.7292 154.427 25.75 157.906 25.875C161.99 26.0417 166.427 26 171.219 25.75C172.01 25.6875 172.521 25.8021 172.75 26.0938C172.979 26.3854 172.979 26.9167 172.75 27.6875C172.604 28.1875 172.396 28.5312 172.125 28.7188C171.875 28.9271 171.49 29.0521 170.969 29.0938C166.052 29.2812 161.698 29.2917 157.906 29.125C155.906 29.0417 154.26 28.75 152.969 28.25C151.573 27.7083 150.406 26.8646 149.469 25.7188C149.323 25.8646 149.094 26.0938 148.781 26.4062C148.177 27.0104 147.719 27.4688 147.406 27.7812ZM165.844 25C164.635 25.0417 163.896 24.625 163.625 23.75C163.25 22.5208 163.833 21.9271 165.375 21.9688C165.479 21.9688 165.573 21.9688 165.656 21.9688C165.844 21.9688 165.969 21.9479 166.031 21.9062C166.094 21.8438 166.125 21.7396 166.125 21.5938V17.6875H164.188C163.208 17.6875 162.719 17.1979 162.719 16.2188C162.719 15.2396 163.208 14.75 164.188 14.75H166.125V13.6875C166.125 13.125 166.406 12.8438 166.969 12.8438H167.156C167.448 12.4896 167.812 11.9688 168.25 11.2812H165.25C164.708 11.2812 164.271 11.125 163.938 10.8125C163.625 10.4792 163.469 10.0417 163.469 9.5V9.40625C162.781 8.71875 162.062 8.125 161.312 7.625H157.156V9.90625H160.844C161.198 9.90625 161.479 10.0208 161.688 10.25C161.917 10.4583 162.031 10.7396 162.031 11.0938V11.1875C161.927 15.5625 161.812 18.5625 161.688 20.1875C161.542 22.0208 161.292 23.1771 160.938 23.6562C160.5 24.3021 159.917 24.6875 159.188 24.8125C158.938 24.8542 158.5 24.8958 157.875 24.9375C156.979 24.9375 156.458 24.5312 156.312 23.7188C156.312 23.6771 156.302 23.6146 156.281 23.5312C156.26 23.4271 156.24 23.3542 156.219 23.3125C156.052 22.8958 156.052 22.5833 156.219 22.375C156.406 22.1458 156.74 22.0417 157.219 22.0625C157.302 22.0625 157.385 22.0625 157.469 22.0625C157.802 22.0625 158.062 21.9271 158.25 21.6562C158.562 21.2188 158.771 18.8021 158.875 14.4062C158.896 13.8229 158.844 13.4271 158.719 13.2188C158.615 13.0312 158.427 12.9375 158.156 12.9375H157.125C157 17.375 156.146 20.7917 154.562 23.1875C153.833 24.1458 153.094 24.25 152.344 23.5C151.635 22.8125 151.615 22 152.281 21.0625C153.531 18.875 154.156 15.6562 154.156 11.4062V7.625H152.875C152.542 7.625 152.271 7.53125 152.062 7.34375C151.875 7.13542 151.781 6.86458 151.781 6.53125V5.09375L150.75 6.03125C150.5 6.26042 150.229 6.375 149.938 6.375C149.667 6.375 149.448 6.27083 149.281 6.0625C148.573 5.3125 147.865 4.65625 147.156 4.09375C146.052 3.28125 145.979 2.45833 146.938 1.625C147.583 1.04167 148.292 1.01042 149.062 1.53125C150.708 2.71875 151.844 3.69792 152.469 4.46875L152.375 4.5625H155.438V2.25C155.438 1.125 156.01 0.5625 157.156 0.5625C158.281 0.5625 158.844 1.125 158.844 2.25V4.5625H160.688C161.146 4.5625 161.51 4.69792 161.781 4.96875C162.052 5.23958 162.188 5.60417 162.188 6.0625V6.15625C162.896 4.96875 163.5 3.5625 164 1.9375C164.25 0.895833 164.885 0.489583 165.906 0.71875C166.948 0.927083 167.323 1.55208 167.031 2.59375C166.906 3.05208 166.802 3.39583 166.719 3.625H171.094C172.115 3.625 172.625 4.13542 172.625 5.15625C172.625 6.17708 172.115 6.6875 171.094 6.6875H169.031H165.438C165.125 7.33333 164.771 7.95833 164.375 8.5625H170.219C170.969 8.5625 171.458 8.79167 171.688 9.25C171.938 9.6875 171.885 10.3333 171.531 11.1875C171.01 12.1667 170.25 13.2396 169.25 14.4062V14.75H171.344C172.323 14.75 172.812 15.2396 172.812 16.2188C172.812 17.1979 172.323 17.6875 171.344 17.6875H169.25V21.6562C169.25 22.4271 169.177 23.0104 169.031 23.4062C168.844 23.8854 168.51 24.2396 168.031 24.4688C167.49 24.7604 166.76 24.9375 165.844 25ZM149.094 12.5625C148.677 12.5833 148.26 12.3854 147.844 11.9688C147.24 11.4479 146.635 10.9688 146.031 10.5312C144.948 9.78125 144.854 8.96875 145.75 8.09375C146.396 7.48958 147.083 7.39583 147.812 7.8125C148.396 8.14583 148.917 8.48958 149.375 8.84375C149.833 9.17708 150.167 9.4375 150.375 9.625C151.146 10.3333 151.125 11.0729 150.312 11.8438C149.854 12.2812 149.448 12.5208 149.094 12.5625Z" fill="#333333"/>
<path d="M223.312 10.125C223.292 10.125 223.219 10.1458 223.094 10.1875C222.99 10.2083 222.938 10.1771 222.938 10.0938C222.938 10.0729 222.979 10.0312 223.062 9.96875C223.146 9.88542 223.219 9.8125 223.281 9.75C223.344 9.6875 223.438 9.60417 223.562 9.5C223.688 9.375 223.781 9.25 223.844 9.125C224.156 8.60417 224.375 8.08333 224.5 7.5625L224.688 6.46875C224.833 5.65625 224.896 4.70833 224.875 3.625C224.875 3.375 224.844 3.11458 224.781 2.84375C224.76 2.71875 224.656 2.54167 224.469 2.3125V2.28125C224.469 2.23958 224.521 2.21875 224.625 2.21875C224.771 2.21875 224.896 2.22917 225 2.25C225.271 2.3125 225.573 2.34375 225.906 2.34375C226.26 2.32292 226.479 2.3125 226.562 2.3125L228.656 2.15625C229.073 2.11458 229.344 2.09375 229.469 2.09375C230.365 1.96875 230.771 1.91667 230.688 1.9375C231.167 1.85417 231.458 1.8125 231.562 1.8125C231.896 1.83333 232.229 2.09375 232.562 2.59375L232.625 2.75C232.625 2.875 232.531 2.94792 232.344 2.96875C232.156 2.98958 232.042 3 232 3C231.354 3 230.875 3.01042 230.562 3.03125C229.771 3.03125 229.188 3.04167 228.812 3.0625L227.938 3.125L226.156 3.3125C226.031 5.0625 225.917 6.20833 225.812 6.75C225.646 7.72917 225.323 8.52083 224.844 9.125C224.49 9.58333 223.979 9.91667 223.312 10.125ZM231.188 18.9688C230.875 18.9688 230.573 18.7396 230.281 18.2812C229.906 17.6979 229.542 17.2188 229.188 16.8438L228.375 16C227.938 16.5 227.552 16.8958 227.219 17.1875C226.906 17.4792 226.51 17.7604 226.031 18.0312C225.135 18.5521 224.385 18.8125 223.781 18.8125C223.635 18.8125 223.562 18.7604 223.562 18.6562C223.562 18.5938 223.76 18.4583 224.156 18.25C224.552 18.0417 224.927 17.7917 225.281 17.5C226.177 16.75 226.917 15.9792 227.5 15.1875C227.375 15.0625 226.75 14.5208 225.625 13.5625C225.479 13.4583 225.26 13.2812 224.969 13.0312C224.906 12.9896 224.781 12.8958 224.594 12.75C224.406 12.6042 224.312 12.5 224.312 12.4375C224.312 12.3333 224.365 12.2812 224.469 12.2812C224.781 12.2812 225.281 12.5 225.969 12.9375C226.656 13.3542 227.375 13.8542 228.125 14.4375C228.417 14.0833 228.646 13.75 228.812 13.4375C228.979 13.125 229.167 12.7396 229.375 12.2812C229.479 12.0521 229.542 11.8542 229.562 11.6875C229.583 11.5 229.594 11.3854 229.594 11.3438C229.594 11.1146 229.656 11 229.781 11C229.927 11 230.125 11.1146 230.375 11.3438C230.812 11.7604 231.031 12.0417 231.031 12.1875C231.031 12.2708 230.979 12.3646 230.875 12.4688C230.625 12.7188 230.396 13.0521 230.188 13.4688C230.062 13.7188 229.833 14.0729 229.5 14.5312C229.396 14.6562 229.312 14.7708 229.25 14.875C229.188 14.9792 229.125 15.0729 229.062 15.1562C229.542 15.5104 230.25 16.1146 231.188 16.9688C231.417 17.1771 231.562 17.375 231.625 17.5625C231.708 17.7292 231.75 17.9583 231.75 18.25C231.75 18.4583 231.698 18.6354 231.594 18.7812C231.49 18.9062 231.354 18.9688 231.188 18.9688ZM228.031 28.9062C227.885 28.9062 227.781 28.8646 227.719 28.7812C227.656 28.6979 227.615 28.6458 227.594 28.625C227.385 28.3333 227.292 28.0521 227.312 27.7812C227.333 27.6146 227.365 27.1667 227.406 26.4375L227.438 24.9375C227.417 24.7083 227.396 24.5729 227.375 24.5312C227.354 24.4688 227.26 24.3438 227.094 24.1562C226.76 23.7396 226.375 23.3125 225.938 22.875C225.438 22.375 225.115 22.0417 224.969 21.875C224.969 21.875 224.656 21.5625 224.031 20.9375C223.969 20.875 223.938 20.8125 223.938 20.75C223.938 20.6458 224 20.5625 224.125 20.5C224.271 20.4167 224.417 20.3854 224.562 20.4062C224.979 20.4479 225.25 20.5 225.375 20.5625C225.521 20.6042 225.656 20.7292 225.781 20.9375C225.906 21.1458 226.083 21.3958 226.312 21.6875C226.562 21.9583 226.75 22.1667 226.875 22.3125C227.396 22.9375 227.76 23.3542 227.969 23.5625C228.344 23.125 228.812 22.5 229.375 21.6875C229.833 21.1042 230.104 20.625 230.188 20.25C230.271 19.9792 230.396 19.8438 230.562 19.8438C230.646 19.8438 230.771 19.8958 230.938 20C231.479 20.3333 231.75 20.6042 231.75 20.8125C231.75 20.9375 231.615 21.0938 231.344 21.2812C230.969 21.5521 230.656 21.8542 230.406 22.1875L229.781 22.9688C229.365 23.4688 229.052 23.8646 228.844 24.1562C228.74 24.3438 228.688 24.6146 228.688 24.9688V26.875V28.125C228.708 28.2708 228.625 28.4375 228.438 28.625C228.271 28.8125 228.135 28.9062 228.031 28.9062ZM237.562 14.5312C237.812 14.5312 237.938 14.6458 237.938 14.875C237.938 15 237.823 15.1771 237.594 15.4062C236.969 16.1771 235.729 17.6458 233.875 19.8125C233.729 20 233.594 20.0938 233.469 20.0938C233.365 20.0938 233.135 19.9375 232.781 19.625C232.49 19.375 232.344 19.1667 232.344 19C232.344 18.8125 232.5 18.6354 232.812 18.4688C233.292 18.1979 234.01 17.6562 234.969 16.8438C235.927 15.9896 236.635 15.3125 237.094 14.8125C237.281 14.625 237.438 14.5312 237.562 14.5312ZM206.531 29.7188C205.323 29.7188 204.719 29.125 204.719 27.9375V26.0312H194.625C193.562 26.0312 193.031 25.5 193.031 24.4375C193.031 23.375 193.562 22.8438 194.625 22.8438H204.719V21.0312H196.156C195.156 21.0312 194.656 20.5208 194.656 19.5C194.656 18.5 195.156 18 196.156 18H198.094V16.0312H194.156C193.135 16.0312 192.625 15.5104 192.625 14.4688C192.625 13.4479 193.135 12.9375 194.156 12.9375H198.094V11.0625H196.469C195.469 11.0625 194.969 10.5521 194.969 9.53125C194.969 8.53125 195.469 8.03125 196.469 8.03125H206.719H216.969C217.969 8.03125 218.469 8.53125 218.469 9.53125C218.469 10.5521 217.969 11.0625 216.969 11.0625H215.125V12.9375H219.062C220.083 12.9375 220.594 13.4479 220.594 14.4688C220.594 15.5104 220.083 16.0312 219.062 16.0312H215.125V18H217.375C218.375 18 218.875 18.5 218.875 19.5C218.875 20.5208 218.375 21.0312 217.375 21.0312H208.312V22.8438H218.75C219.812 22.8438 220.344 23.375 220.344 24.4375C220.344 25.5 219.812 26.0312 218.75 26.0312H208.312V27.9375C208.312 29.125 207.719 29.7188 206.531 29.7188ZM201.531 18H204.719V16.0312H203.125H201.531V18ZM208.312 18H210H211.719V16.0312H208.312V18ZM201.531 12.9375H204.719V11.0625H203.125H201.531V12.9375ZM208.312 12.9375H210H211.719V11.0625H208.312V12.9375ZM201.188 7.3125C199.979 7.3125 199.375 6.75 199.375 5.625V5.5625H194.531C193.448 5.5625 192.906 5.01042 192.906 3.90625C192.906 2.82292 193.448 2.28125 194.531 2.28125H199.375V2.21875C199.375 1.67708 199.531 1.27083 199.844 1C200.177 0.708333 200.625 0.5625 201.188 0.5625C202.375 0.5625 202.969 1.11458 202.969 2.21875V2.28125H210.094V2.21875C210.094 1.67708 210.25 1.27083 210.562 1C210.896 0.708333 211.344 0.5625 211.906 0.5625C213.094 0.5625 213.688 1.11458 213.688 2.21875V2.28125H218.719C219.802 2.28125 220.344 2.82292 220.344 3.90625C220.344 5.01042 219.802 5.5625 218.719 5.5625H213.688V5.625C213.688 6.75 213.094 7.3125 211.906 7.3125C210.698 7.3125 210.094 6.75 210.094 5.625V5.5625H206.531H202.969V5.625C202.969 6.75 202.375 7.3125 201.188 7.3125Z" fill="#333333"/>
<path d="M279.188 13.6562C278.875 13.6562 278.573 13.4271 278.281 12.9688C277.906 12.3854 277.542 11.9062 277.188 11.5312L276.375 10.6875C275.938 11.1875 275.552 11.5833 275.219 11.875C274.906 12.1667 274.51 12.4479 274.031 12.7188C273.135 13.2396 272.385 13.5 271.781 13.5C271.635 13.5 271.562 13.4479 271.562 13.3438C271.562 13.2812 271.76 13.1458 272.156 12.9375C272.552 12.7292 272.927 12.4792 273.281 12.1875C274.177 11.4375 274.917 10.6667 275.5 9.875C275.375 9.75 274.75 9.20833 273.625 8.25C273.479 8.14583 273.26 7.96875 272.969 7.71875C272.906 7.67708 272.781 7.58333 272.594 7.4375C272.406 7.29167 272.312 7.1875 272.312 7.125C272.312 7.02083 272.365 6.96875 272.469 6.96875C272.781 6.96875 273.281 7.1875 273.969 7.625C274.656 8.04167 275.375 8.54167 276.125 9.125C276.417 8.77083 276.646 8.4375 276.812 8.125C276.979 7.8125 277.167 7.42708 277.375 6.96875C277.479 6.73958 277.542 6.54167 277.562 6.375C277.583 6.1875 277.594 6.07292 277.594 6.03125C277.594 5.80208 277.656 5.6875 277.781 5.6875C277.927 5.6875 278.125 5.80208 278.375 6.03125C278.812 6.44792 279.031 6.72917 279.031 6.875C279.031 6.95833 278.979 7.05208 278.875 7.15625C278.625 7.40625 278.396 7.73958 278.188 8.15625C278.062 8.40625 277.833 8.76042 277.5 9.21875C277.396 9.34375 277.312 9.45833 277.25 9.5625C277.188 9.66667 277.125 9.76042 277.062 9.84375C277.542 10.1979 278.25 10.8021 279.188 11.6562C279.417 11.8646 279.562 12.0625 279.625 12.25C279.708 12.4167 279.75 12.6458 279.75 12.9375C279.75 13.1458 279.698 13.3229 279.594 13.4688C279.49 13.5938 279.354 13.6562 279.188 13.6562ZM279.75 19.6562C279.979 19.9062 280.094 20.1146 280.094 20.2812C280.094 20.4271 280.01 20.5625 279.844 20.6875C279.74 20.7708 279.479 21.2292 279.062 22.0625C278.604 22.8125 278.094 23.4688 277.531 24.0312C276.99 24.5729 276.448 24.9688 275.906 25.2188C275.781 25.2604 275.677 25.2812 275.594 25.2812C275.51 25.2812 275.469 25.2604 275.469 25.2188V25.1562C275.469 25.0312 275.573 24.8854 275.781 24.7188C276.156 24.4271 276.438 24.1354 276.625 23.8438C276.833 23.5312 276.99 23.3021 277.094 23.1562C277.531 22.5312 277.844 22.0208 278.031 21.625C278.24 21.2708 278.385 20.9062 278.469 20.5312H278.344C277.802 20.5312 276.927 20.5938 275.719 20.7188C275.531 20.7396 274.99 20.8125 274.094 20.9375C273.906 20.9583 273.615 21.0104 273.219 21.0938L272.844 21.1875C272.76 21.2292 272.677 21.25 272.594 21.25C272.49 21.25 272.385 21.2292 272.281 21.1875C272.177 21.125 272.073 21.0521 271.969 20.9688C271.719 20.7604 271.594 20.5833 271.594 20.4375C271.615 20.3958 271.635 20.3333 271.656 20.25C271.698 20.1667 271.719 20.0938 271.719 20.0312L271.875 19C271.896 18.8958 271.917 18.7812 271.938 18.6562C271.958 18.5312 271.969 18.4062 271.969 18.2812C271.969 17.8854 271.958 17.5729 271.938 17.3438C271.938 17.0938 271.906 16.8333 271.844 16.5625V16.4688C271.844 16.3229 271.906 16.25 272.031 16.25C272.156 16.25 272.375 16.3438 272.688 16.5312C273.104 16.8229 273.312 17.0521 273.312 17.2188C273.312 17.2812 273.302 17.3333 273.281 17.375C273.26 17.4167 273.24 17.4583 273.219 17.5C273.156 17.875 273.125 18.0833 273.125 18.125L272.969 19.7812C272.969 19.8229 272.99 19.875 273.031 19.9375C273.094 19.9792 273.156 20 273.219 20C273.719 20 274.844 19.875 276.594 19.625C277.281 19.5625 277.771 19.4896 278.062 19.4062C278.25 19.3854 278.406 19.3542 278.531 19.3125C278.677 19.25 278.771 19.2188 278.812 19.2188C278.938 19.1771 279.021 19.1562 279.062 19.1562C279.25 19.1562 279.479 19.3229 279.75 19.6562ZM285.562 11.0938C285.812 11.0938 285.938 11.2083 285.938 11.4375C285.938 11.5625 285.823 11.7396 285.594 11.9688C284.969 12.7396 283.729 14.2083 281.875 16.375C281.729 16.5625 281.594 16.6562 281.469 16.6562C281.365 16.6562 281.135 16.5 280.781 16.1875C280.49 15.9375 280.344 15.7292 280.344 15.5625C280.344 15.375 280.5 15.1979 280.812 15.0312C281.292 14.7604 282.01 14.2188 282.969 13.4062C283.927 12.5521 284.635 11.875 285.094 11.375C285.281 11.1875 285.438 11.0938 285.562 11.0938ZM244.375 29.125C243.042 29.5833 242.052 29.3021 241.406 28.2812C240.531 26.9062 241.021 25.9271 242.875 25.3438C246.271 24.1771 249.188 22.6562 251.625 20.7812C248.979 17.7188 246.781 13.8229 245.031 9.09375H242.438C241.229 9.09375 240.625 8.48958 240.625 7.28125C240.625 6.07292 241.229 5.46875 242.438 5.46875H252.75V2.375C252.75 1.14583 253.375 0.53125 254.625 0.53125C255.854 0.53125 256.469 1.14583 256.469 2.375V5.46875H262.594H266.938C268.146 5.46875 268.75 6.07292 268.75 7.28125C268.75 8.48958 268.146 9.09375 266.938 9.09375H264.312C262.646 13.6562 260.385 17.5 257.531 20.625C260.052 22.5625 262.917 24.0625 266.125 25.125C268.271 25.7083 268.802 26.7604 267.719 28.2812C267.031 29.2604 266 29.5417 264.625 29.125C260.667 27.8333 257.271 25.9792 254.438 23.5625C251.583 25.8542 248.229 27.7083 244.375 29.125ZM254.656 18C256.885 15.5417 258.656 12.5729 259.969 9.09375H254.562H249.156C250.448 12.5104 252.281 15.4792 254.656 18Z" fill="#333333"/>
<path d="M323.875 16.2188C323.708 16.2188 323.542 16.1875 323.375 16.125C323.208 16.0417 323.083 15.9167 323 15.75C322.938 15.5625 322.802 15.3438 322.594 15.0938C322.406 14.8438 322.219 14.6562 322.031 14.5312L322.156 14.375C322.26 14.4375 322.51 14.5625 322.906 14.75C323.302 14.9375 323.594 15.0312 323.781 15.0312C324.073 15.0312 324.333 14.9271 324.562 14.7188C324.792 14.5104 325.083 14.1146 325.438 13.5312C325.688 13.1354 325.917 12.6667 326.125 12.125C326.333 11.5833 326.49 11.0833 326.594 10.625L326.625 10.5625C326.625 10.5 326.604 10.4479 326.562 10.4062C326.521 10.3438 326.479 10.3125 326.438 10.3125L325 10.4375C324.042 10.6042 323.042 10.7396 322 10.8438C321.812 10.8646 321.594 10.9167 321.344 11C321.094 11.0833 320.917 11.125 320.812 11.125C320.646 11.125 320.427 10.9896 320.156 10.7188C320.052 10.6354 319.948 10.5312 319.844 10.4062C319.76 10.2812 319.74 10.1771 319.781 10.0938C319.948 9.92708 320.031 9.84375 320.031 9.84375L320.188 9.71875C320.479 9.42708 320.771 9.04167 321.062 8.5625C321.271 8.27083 321.49 7.78125 321.719 7.09375C321.719 6.86458 321.771 6.75 321.875 6.75C321.938 6.75 322.042 6.79167 322.188 6.875L322.688 7.1875C322.812 7.29167 322.896 7.375 322.938 7.4375C322.979 7.5 323 7.58333 323 7.6875C323 7.8125 322.917 7.96875 322.75 8.15625C322.583 8.32292 322.438 8.48958 322.312 8.65625L321.594 9.6875L321.531 9.8125C321.531 9.875 321.615 9.90625 321.781 9.90625L324.188 9.59375L325.812 9.46875L326.438 9.40625L326.781 9.34375H326.875C327.083 9.34375 327.312 9.52083 327.562 9.875C327.854 10.1458 328 10.375 328 10.5625L327.844 10.9688C327.823 11.0104 327.656 11.5 327.344 12.4375C326.969 13.3333 326.646 14.0104 326.375 14.4688C326.104 14.9271 325.812 15.2812 325.5 15.5312C324.938 15.9896 324.396 16.2188 323.875 16.2188ZM324.031 27.3438C323.885 27.3438 323.781 27.3021 323.719 27.2188C323.656 27.1354 323.615 27.0833 323.594 27.0625C323.385 26.7708 323.292 26.4896 323.312 26.2188C323.333 26.0521 323.365 25.6042 323.406 24.875L323.438 23.375C323.417 23.1458 323.396 23.0104 323.375 22.9688C323.354 22.9062 323.26 22.7812 323.094 22.5938C322.76 22.1771 322.375 21.75 321.938 21.3125C321.438 20.8125 321.115 20.4792 320.969 20.3125C320.969 20.3125 320.656 20 320.031 19.375C319.969 19.3125 319.938 19.25 319.938 19.1875C319.938 19.0833 320 19 320.125 18.9375C320.271 18.8542 320.417 18.8229 320.562 18.8438C320.979 18.8854 321.25 18.9375 321.375 19C321.521 19.0417 321.656 19.1667 321.781 19.375C321.906 19.5833 322.083 19.8333 322.312 20.125C322.562 20.3958 322.75 20.6042 322.875 20.75C323.396 21.375 323.76 21.7917 323.969 22C324.344 21.5625 324.812 20.9375 325.375 20.125C325.833 19.5417 326.104 19.0625 326.188 18.6875C326.271 18.4167 326.396 18.2812 326.562 18.2812C326.646 18.2812 326.771 18.3333 326.938 18.4375C327.479 18.7708 327.75 19.0417 327.75 19.25C327.75 19.375 327.615 19.5312 327.344 19.7188C326.969 19.9896 326.656 20.2917 326.406 20.625L325.781 21.4062C325.365 21.9062 325.052 22.3021 324.844 22.5938C324.74 22.7812 324.688 23.0521 324.688 23.4062V25.3125V26.5625C324.708 26.7083 324.625 26.875 324.438 27.0625C324.271 27.25 324.135 27.3438 324.031 27.3438ZM323.781 2.625C324.198 2.625 324.552 2.77083 324.844 3.0625C325.156 3.33333 325.312 3.69792 325.312 4.15625C325.312 4.61458 325.156 4.98958 324.844 5.28125C324.552 5.55208 324.198 5.6875 323.781 5.6875C323.365 5.6875 323 5.55208 322.688 5.28125C322.396 4.98958 322.25 4.61458 322.25 4.15625C322.25 3.69792 322.396 3.33333 322.688 3.0625C323 2.77083 323.365 2.625 323.781 2.625ZM305.719 29.2188C303.677 29.2188 302.292 28.8438 301.562 28.0938C300.812 27.3229 300.438 25.8229 300.438 23.5938V4.4375C300.438 3.83333 300.625 3.34375 301 2.96875C301.375 2.59375 301.865 2.40625 302.469 2.40625H308.25H314.031C314.635 2.40625 315.125 2.59375 315.5 2.96875C315.875 3.34375 316.062 3.83333 316.062 4.4375V15.7188C316.062 16.3229 315.875 16.8125 315.5 17.1875C315.125 17.5625 314.635 17.75 314.031 17.75H304.062V23.625C304.062 24.5625 304.177 25.1562 304.406 25.4062C304.635 25.6562 305.208 25.7812 306.125 25.7812H311.844C312.552 25.7812 313.052 25.5833 313.344 25.1875C313.552 24.25 313.854 23.5521 314.25 23.0938C314.729 22.5312 315.312 22.3958 316 22.6875C316.896 23.0833 317.208 24.1042 316.938 25.75C316.604 27 316.073 27.8854 315.344 28.4062C314.635 28.9479 313.583 29.2188 312.188 29.2188H305.719ZM291.281 21.5625C290.677 21.5625 290.188 21.375 289.812 21C289.438 20.625 289.25 20.1354 289.25 19.5312V5.28125C289.25 4.67708 289.438 4.1875 289.812 3.8125C290.188 3.4375 290.677 3.25 291.281 3.25H293.844H296.406C297.01 3.25 297.5 3.4375 297.875 3.8125C298.25 4.1875 298.438 4.67708 298.438 5.28125V19.5312C298.438 20.1354 298.25 20.625 297.875 21C297.5 21.375 297.01 21.5625 296.406 21.5625H291.281ZM293.344 18.1562H294.312C294.812 18.1562 295.062 17.9062 295.062 17.4062V12.4062V7.40625C295.062 6.90625 294.812 6.65625 294.312 6.65625H293.344C292.844 6.65625 292.594 6.90625 292.594 7.40625V17.4062C292.594 17.9062 292.844 18.1562 293.344 18.1562ZM304.062 14.375H306.5V10.0938V5.8125H304.812C304.312 5.8125 304.062 6.0625 304.062 6.5625V14.375ZM309.844 14.375H311.75C312.25 14.375 312.5 14.125 312.5 13.625V6.5625C312.5 6.0625 312.25 5.8125 311.75 5.8125H309.844V10.0938V14.375Z" fill="#333333"/>
<path d="M350.625 27.2812C349.688 27.2812 348.906 27 348.281 26.4375C347.677 25.8542 347.375 25.1146 347.375 24.2188C347.375 23.3229 347.688 22.5833 348.312 22C348.938 21.4167 349.708 21.125 350.625 21.125C351.583 21.125 352.354 21.4167 352.938 22C353.562 22.5833 353.875 23.3229 353.875 24.2188C353.875 25.1146 353.562 25.8542 352.938 26.4375C352.333 27 351.562 27.2812 350.625 27.2812ZM350.656 18.9688C349.552 18.9688 348.958 18.4792 348.875 17.5L347.906 8.28125L347.844 5.6875C347.823 5.0625 347.99 4.5625 348.344 4.1875C348.719 3.8125 349.219 3.625 349.844 3.625H350.625H352.156C352.573 3.625 352.896 3.75 353.125 4C353.375 4.25 353.49 4.57292 353.469 4.96875L353.344 8.28125L352.406 17.5C352.323 18.4792 351.74 18.9688 350.656 18.9688Z" fill="#333333"/>
</svg>
