<svg width="376" height="81" viewBox="0 0 376 81" fill="none" xmlns="http://www.w3.org/2000/svg">
<path d="M35.3517 11.0156C35.3283 11.0156 35.2462 11.0391 35.1056 11.0859C34.9884 11.1094 34.9298 11.0742 34.9298 10.9805C34.9298 10.957 34.9767 10.9102 35.0705 10.8398C35.1642 10.7461 35.2462 10.6641 35.3166 10.5938C35.3869 10.5234 35.4923 10.4297 35.633 10.3125C35.7736 10.1719 35.8791 10.0312 35.9494 9.89062C36.3009 9.30469 36.547 8.71875 36.6876 8.13281L36.8986 6.90234C37.0626 5.98828 37.133 4.92188 37.1095 3.70312C37.1095 3.42188 37.0744 3.12891 37.0041 2.82422C36.9806 2.68359 36.8634 2.48438 36.6525 2.22656V2.19141C36.6525 2.14453 36.7111 2.12109 36.8283 2.12109C36.9923 2.12109 37.133 2.13281 37.2501 2.15625C37.5548 2.22656 37.8947 2.26172 38.2697 2.26172C38.6681 2.23828 38.9142 2.22656 39.008 2.22656L41.3634 2.05078C41.8322 2.00391 42.1369 1.98047 42.2775 1.98047C43.2853 1.83984 43.7423 1.78125 43.6486 1.80469C44.1876 1.71094 44.5158 1.66406 44.633 1.66406C45.008 1.6875 45.383 1.98047 45.758 2.54297L45.8283 2.71875C45.8283 2.85938 45.7228 2.94141 45.5119 2.96484C45.3009 2.98828 45.172 3 45.1251 3C44.3986 3 43.8595 3.01172 43.508 3.03516C42.6173 3.03516 41.9611 3.04688 41.5392 3.07031L40.5548 3.14062L38.5509 3.35156C38.4103 5.32031 38.2814 6.60938 38.1642 7.21875C37.9767 8.32031 37.6134 9.21094 37.0744 9.89062C36.6759 10.4062 36.1017 10.7812 35.3517 11.0156ZM44.2111 20.9648C43.8595 20.9648 43.5197 20.707 43.1916 20.1914C42.7697 19.5352 42.3595 18.9961 41.9611 18.5742L41.047 17.625C40.5548 18.1875 40.1212 18.6328 39.7462 18.9609C39.3947 19.2891 38.9494 19.6055 38.4103 19.9102C37.4025 20.4961 36.5587 20.7891 35.8791 20.7891C35.715 20.7891 35.633 20.7305 35.633 20.6133C35.633 20.543 35.8556 20.3906 36.3009 20.1562C36.7462 19.9219 37.1681 19.6406 37.5666 19.3125C38.5744 18.4688 39.4064 17.6016 40.0626 16.7109C39.922 16.5703 39.2189 15.9609 37.9533 14.8828C37.7892 14.7656 37.5431 14.5664 37.215 14.2852C37.1447 14.2383 37.0041 14.1328 36.7931 13.9688C36.5822 13.8047 36.4767 13.6875 36.4767 13.6172C36.4767 13.5 36.5353 13.4414 36.6525 13.4414C37.0041 13.4414 37.5666 13.6875 38.34 14.1797C39.1134 14.6484 39.922 15.2109 40.7658 15.8672C41.0939 15.4688 41.3517 15.0938 41.5392 14.7422C41.7267 14.3906 41.9376 13.957 42.172 13.4414C42.2892 13.1836 42.3595 12.9609 42.383 12.7734C42.4064 12.5625 42.4181 12.4336 42.4181 12.3867C42.4181 12.1289 42.4884 12 42.6291 12C42.7931 12 43.0158 12.1289 43.297 12.3867C43.7892 12.8555 44.0353 13.1719 44.0353 13.3359C44.0353 13.4297 43.9767 13.5352 43.8595 13.6523C43.5783 13.9336 43.3205 14.3086 43.0861 14.7773C42.9455 15.0586 42.6876 15.457 42.3126 15.9727C42.1955 16.1133 42.1017 16.2422 42.0314 16.3594C41.9611 16.4766 41.8908 16.582 41.8205 16.6758C42.3595 17.0742 43.1564 17.7539 44.2111 18.7148C44.4689 18.9492 44.633 19.1719 44.7033 19.3828C44.797 19.5703 44.8439 19.8281 44.8439 20.1562C44.8439 20.3906 44.7853 20.5898 44.6681 20.7539C44.5509 20.8945 44.3986 20.9648 44.2111 20.9648ZM41.8908 25.2891C41.6564 25.5938 41.4103 25.7461 41.1525 25.7461C41.0822 25.7461 41.047 25.6875 41.047 25.5703C41.047 25.4062 41.0939 25.2188 41.1876 25.0078C41.1876 25.0078 41.422 24.5391 41.8908 23.6016C41.9142 23.5078 41.9494 23.4141 41.9962 23.3203C42.0431 23.2266 42.0783 23.1445 42.1017 23.0742V23.0391C42.1017 22.9922 42.0666 22.9453 41.9962 22.8984C41.9259 22.8516 41.8439 22.8398 41.7501 22.8633C41.3751 22.8867 40.8126 22.9453 40.0626 23.0391C39.3361 23.1328 38.797 23.2266 38.4455 23.3203C38.3048 23.3672 38.1291 23.4258 37.9181 23.4961C37.7306 23.5664 37.5783 23.6016 37.4611 23.6016C37.0392 23.6016 36.6876 23.4727 36.4064 23.2148C36.172 23.0508 35.9962 22.8867 35.8791 22.7227L35.8087 22.5469C35.8087 22.4297 36.008 22.3945 36.4064 22.4414C36.9455 22.4883 38.0587 22.418 39.7462 22.2305L40.4494 22.125C40.6369 22.1016 40.9298 22.0664 41.3283 22.0195C41.7501 21.9492 42.0783 21.8789 42.3126 21.8086C42.383 21.7852 42.4533 21.7617 42.5236 21.7383C42.6173 21.6914 42.6994 21.668 42.7697 21.668C42.8869 21.668 43.0275 21.7266 43.1916 21.8438C43.3791 21.9609 43.5314 22.0664 43.6486 22.1602C43.8126 22.2773 43.9181 22.3828 43.965 22.4766C44.0353 22.5469 44.0587 22.6406 44.0353 22.7578C44.0353 22.875 43.9767 22.9805 43.8595 23.0742C43.7423 23.168 43.6603 23.2383 43.6134 23.2852C43.5666 23.3555 43.4025 23.5312 43.1212 23.8125C43.0041 24 42.7931 24.2578 42.4884 24.5859C42.2072 24.9141 42.008 25.1484 41.8908 25.2891ZM40.133 32.2148C40.133 32.1445 40.2501 31.957 40.4845 31.6523C40.7423 31.3711 40.9416 31.1484 41.0822 30.9844C41.4337 30.5156 41.8556 29.8359 42.3478 28.9453C42.8634 28.0547 43.1564 27.4688 43.2267 27.1875C43.2736 27.0469 43.2033 26.9766 43.0158 26.9766C42.6408 26.9766 41.6095 27.082 39.922 27.293C38.8205 27.4336 38.0001 27.5742 37.4611 27.7148C37.3439 27.7852 37.2267 27.8203 37.1095 27.8203C36.922 27.8203 36.7228 27.6914 36.5119 27.4336C36.4181 27.2695 36.3712 27.1172 36.3712 26.9766C36.3712 26.8828 36.4298 26.7891 36.547 26.6953L36.6525 26.5547C36.7228 26.4141 36.8048 26.2266 36.8986 25.9922C36.9923 25.7578 37.0744 25.5352 37.1447 25.3242C37.2619 24.9492 37.3439 24.5391 37.3908 24.0938C37.4142 23.8359 37.5548 23.7656 37.8126 23.8828C38.1408 24.0469 38.3869 24.2109 38.5509 24.375C38.7384 24.5156 38.797 24.6211 38.7267 24.6914C38.4923 24.9727 38.3048 25.2891 38.1642 25.6406C38.047 26.0156 37.9767 26.2617 37.9533 26.3789C37.9533 26.4727 38.0119 26.5195 38.1291 26.5195C38.4806 26.5195 39.008 26.4609 39.7111 26.3438C40.1095 26.2969 40.6017 26.2383 41.1876 26.168C41.7736 26.0977 42.2423 26.0273 42.5939 25.957L43.4728 25.7812C43.5431 25.7578 43.6369 25.7461 43.7541 25.7461C43.8712 25.7461 43.9884 25.793 44.1056 25.8867C44.2228 25.957 44.3517 26.0508 44.4923 26.168C44.7267 26.3789 44.8791 26.5547 44.9494 26.6953C45.0197 26.8125 45.0548 26.9531 45.0548 27.1172C45.0548 27.2109 44.9845 27.3281 44.8439 27.4688C44.7267 27.6094 44.5861 27.832 44.422 28.1367C43.7423 29.5195 42.8634 30.6797 41.7853 31.6172C41.4806 31.8516 41.1408 32.0508 40.7658 32.2148C40.6017 32.2617 40.4494 32.2852 40.3087 32.2852C40.1916 32.3086 40.133 32.2852 40.133 32.2148ZM19.672 31.793C18.7345 32.6133 17.9845 32.5547 17.422 31.6172L17.3869 31.582L17.3517 31.5117V31.5469H11.8673H6.41812V31.6172C6.41812 32.0156 6.27749 32.332 5.99624 32.5664C5.71499 32.8008 5.35171 32.918 4.9064 32.918C3.5939 32.918 2.93765 32.3438 2.93765 31.1953L2.90249 24.7266C2.17593 25.5469 1.48452 25.4297 0.828274 24.375C0.125149 23.2734 0.11343 22.3008 0.793118 21.457C2.22281 19.5352 3.32437 17.2383 4.09781 14.5664H2.58609C2.21109 14.5664 1.9064 14.4492 1.67202 14.2148C1.43765 13.9805 1.32046 13.6758 1.32046 13.3008V9.85547C1.32046 9.17578 1.5314 8.625 1.95327 8.20312C2.37515 7.78125 2.92593 7.57031 3.60562 7.57031H6.38296C7.06265 7.57031 7.61343 7.78125 8.03531 8.20312C8.45718 8.625 8.66812 9.17578 8.66812 9.85547V12.2812C8.66812 12.9609 8.45718 13.5117 8.03531 13.9336C7.61343 14.3555 7.06265 14.5664 6.38296 14.5664H5.4689L6.62906 14.8828C6.91031 14.9531 7.10952 15.1055 7.22671 15.3398C7.36734 15.5508 7.39077 15.7852 7.29702 16.043C7.25015 16.1836 7.17984 16.3828 7.08609 16.6406C7.01577 16.7812 6.9689 16.8867 6.94546 16.957H9.58218C9.91031 16.1367 10.1681 15.3398 10.3556 14.5664H9.93374C9.79312 14.5664 9.72281 14.4961 9.72281 14.3555V9.85547C9.72281 9.17578 9.93374 8.625 10.3556 8.20312C10.7775 7.78125 11.3283 7.57031 12.008 7.57031H14.9962C15.6759 7.57031 16.2267 7.78125 16.6486 8.20312C17.0705 8.625 17.2814 9.17578 17.2814 9.85547V12.6328C18.5001 9.98438 19.4025 6.57422 19.9884 2.40234C20.1291 0.925781 20.9025 0.28125 22.3087 0.46875C23.6447 0.632812 24.2189 1.39453 24.0314 2.75391C23.7736 4.41797 23.5392 5.68359 23.3283 6.55078H30.3244C31.0509 6.55078 31.6017 6.78516 31.9767 7.25391C32.3751 7.69922 32.5275 8.33203 32.4337 9.15234C32.1525 11.6602 31.7775 13.8516 31.3087 15.7266C31.1447 16.3125 30.8751 16.6289 30.5001 16.6758C30.1955 16.7461 29.7501 16.6055 29.1642 16.2539C28.3908 15.7852 28.0626 15.1523 28.1798 14.3555C28.3439 13.2305 28.4728 12.1992 28.5666 11.2617C28.59 10.6523 28.3322 10.3477 27.7931 10.3477H26.7033V14.0742C26.7033 16.043 26.9845 18.1055 27.547 20.2617C28.3439 23.1914 29.5392 25.6289 31.133 27.5742C31.6955 28.1367 32.047 28.7109 32.1876 29.2969C32.3283 29.9766 32.1994 30.5977 31.8009 31.1602C30.9806 32.4023 29.9494 32.4023 28.7072 31.1602C27.6056 29.7305 26.6798 27.9727 25.9298 25.8867C25.3439 24.2461 24.9572 22.6641 24.7697 21.1406C24.5353 22.7578 24.0314 24.457 23.258 26.2383C22.297 28.4648 21.1017 30.3164 19.672 31.793ZM6.98062 28.6992H9.26577V27.3633H7.82437H6.41812V28.1367C6.41812 28.5117 6.60562 28.6992 6.98062 28.6992ZM12.7111 28.6992H17.0001C19.133 26.7539 20.7033 24.1641 21.7111 20.9297C22.4376 18.4922 22.7775 16.207 22.7306 14.0742V10.3477H22.3791C21.9103 12.1055 21.3478 13.6523 20.6916 14.9883C20.3634 15.5977 19.9064 15.9492 19.3205 16.043C18.758 16.1367 18.1837 15.9375 17.5978 15.4453C17.0353 15.0234 16.6017 14.7305 16.297 14.5664H11.2345L12.7462 14.8828C13.1447 14.9766 13.4025 15.1523 13.5197 15.4102C13.6369 15.668 13.59 15.9727 13.3791 16.3242L13.0275 16.957H16.0861C17.0001 16.957 17.4572 17.4141 17.4572 18.3281C17.4572 19.2656 17.0001 19.7344 16.0861 19.7344H12.7111V21.1055H15.2775C16.0978 21.1055 16.508 21.5156 16.508 22.3359C16.508 23.1562 16.0978 23.5664 15.2775 23.5664H12.7111V24.9023H15.2775C16.0978 24.9023 16.508 25.3125 16.508 26.1328C16.508 26.9531 16.0978 27.3633 15.2775 27.3633H12.7111V28.6992ZM6.41812 24.9023H9.26577V23.5664H7.82437H6.41812V24.9023ZM6.41812 21.1055H9.26577V19.7344H7.82437H6.41812V21.1055ZM4.9064 12.1055H5.08218C5.59781 12.1055 5.85562 11.8477 5.85562 11.332V11.0859V10.4531C5.85562 10.1953 5.72671 10.0664 5.4689 10.0664H4.83609C4.32046 10.0664 4.06265 10.3242 4.06265 10.8398V11.2617C4.06265 11.8242 4.3439 12.1055 4.9064 12.1055ZM13.2736 12.1055H14.4337V11.0859V10.4531C14.4337 10.1953 14.3048 10.0664 14.047 10.0664H13.2736C12.7111 10.0664 12.4298 10.3477 12.4298 10.9102V11.2617C12.4298 11.8242 12.7111 12.1055 13.2736 12.1055ZM5.85562 7.04297C4.66031 7.04297 4.06265 6.49219 4.06265 5.39062V5.32031H2.05874C1.05093 5.32031 0.547024 4.81641 0.547024 3.80859C0.547024 2.80078 1.05093 2.29688 2.05874 2.29688H4.06265V2.05078C4.06265 0.855469 4.66031 0.257812 5.85562 0.257812C7.05093 0.257812 7.64859 0.855469 7.64859 2.05078V2.29688H10.9181V2.08594C10.9181 0.867188 11.5275 0.257812 12.7462 0.257812C13.965 0.257812 14.5744 0.867188 14.5744 2.08594V2.29688H16.7541C17.7619 2.29688 18.2658 2.80078 18.2658 3.80859C18.2658 4.81641 17.7619 5.32031 16.7541 5.32031H16.4025H14.5744V5.39062C14.5744 5.92969 14.4103 6.33984 14.0822 6.62109C13.7541 6.90234 13.3087 7.04297 12.7462 7.04297C12.1837 7.04297 11.7384 6.90234 11.4103 6.62109C11.0822 6.33984 10.9181 5.92969 10.9181 5.39062V5.32031H7.64859V5.39062C7.64859 6.49219 7.05093 7.04297 5.85562 7.04297Z" fill="#333333"/>
<path d="M90.6525 11.4727C90.3947 11.4727 90.0783 11.2734 89.7033 10.875C89.422 10.5938 89.2814 10.3828 89.2814 10.2422C89.2814 10.1719 89.3283 10.1367 89.422 10.1367C89.5158 10.1133 89.633 10.1016 89.7736 10.1016L90.547 10.0664C90.9923 10.0664 91.2853 10.0547 91.4259 10.0312C91.8712 10.0312 92.2462 10.0195 92.5509 9.99609C94.5666 9.80859 95.9259 9.65625 96.6291 9.53906C96.9806 9.49219 97.297 9.44531 97.5783 9.39844C97.8595 9.32812 98.0822 9.29297 98.2462 9.29297C98.5744 9.29297 98.9025 9.45703 99.2306 9.78516C99.4884 10.043 99.6173 10.2539 99.6173 10.418C99.6173 10.5586 99.5353 10.6523 99.3712 10.6992C99.2541 10.7227 98.5627 10.7695 97.297 10.8398C96.5939 10.8633 95.7267 10.9219 94.6955 11.0156C93.6642 11.1094 92.7619 11.2031 91.9884 11.2969C91.8478 11.3203 91.6486 11.3555 91.3908 11.4023C91.133 11.4492 90.8869 11.4727 90.6525 11.4727ZM90.4416 27.6094C90.09 27.6094 89.8205 27.5156 89.633 27.3281C89.422 27.1172 89.3166 26.9297 89.3166 26.7656C89.3166 26.6016 89.4103 26.4258 89.5978 26.2383C89.6212 26.2148 89.7502 26.0273 89.9845 25.6758C90.5002 24.8555 91.0861 23.8125 91.7423 22.5469C92.422 21.2578 92.8439 20.3789 93.008 19.9102C93.1486 19.4648 93.2775 19.0781 93.3947 18.75C93.5353 18.4219 93.6525 18.2578 93.7462 18.2578C93.9103 18.2578 94.0509 18.3164 94.1681 18.4336C94.2853 18.5273 94.4025 18.668 94.5197 18.8555C94.6603 19.0195 94.7658 19.1367 94.8361 19.207C95.0002 19.3945 95.0822 19.5703 95.0822 19.7344C95.0822 19.8516 95.0353 19.9688 94.9416 20.0859C94.8478 20.2031 94.7892 20.2852 94.7658 20.332L93.2189 22.9336C92.8205 23.6602 92.2931 24.5625 91.6369 25.6406C91.5431 25.7578 91.4962 25.875 91.4962 25.9922C91.4962 26.0859 91.6017 26.1328 91.8127 26.1328C92.258 26.1328 93.09 26.0859 94.3087 25.9922C95.5275 25.875 96.3478 25.7812 96.7697 25.7109C97.3791 25.6406 97.8009 25.5703 98.0353 25.5C98.2931 25.4297 98.6681 25.6055 99.1603 26.0273C99.7462 26.5195 99.8752 26.8359 99.547 26.9766C99.3595 27.0703 98.9962 27.1172 98.4572 27.1172H97.0509C96.7462 27.1172 96.2658 27.1406 95.6095 27.1875C95.2111 27.1875 94.7658 27.1992 94.2736 27.2227C93.7814 27.2461 93.3712 27.2695 93.0431 27.293C92.6681 27.3164 91.9416 27.3867 90.8634 27.5039L90.4416 27.6094ZM105.383 12.1055C105.664 12.1055 105.805 12.2344 105.805 12.4922C105.805 12.6328 105.676 12.832 105.418 13.0898C104.715 13.957 103.32 15.6094 101.235 18.0469C101.07 18.2578 100.918 18.3633 100.777 18.3633C100.66 18.3633 100.402 18.1875 100.004 17.8359C99.6759 17.5547 99.5119 17.3203 99.5119 17.1328C99.5119 16.9219 99.6877 16.7227 100.039 16.5352C100.578 16.2305 101.387 15.6211 102.465 14.707C103.543 13.7461 104.34 12.9844 104.856 12.4219C105.067 12.2109 105.242 12.1055 105.383 12.1055ZM58.1681 30.9141C56.7384 32.1328 55.6603 31.9453 54.9337 30.3516C54.3478 29.0859 54.6173 28.0781 55.7423 27.3281C56.5392 26.8125 57.5119 26.1094 58.6603 25.2188V20.8242C58.6603 20.2617 58.3791 19.9805 57.8166 19.9805H56.7267C55.4376 19.9805 54.7931 19.3359 54.7931 18.0469C54.7931 16.7578 55.4376 16.1133 56.7267 16.1133H58.7306H60.84C61.4025 16.1133 61.8478 16.2891 62.1759 16.6406C62.5275 16.9688 62.7033 17.4141 62.7033 17.9766V24.9375C63.4064 26.0859 64.4142 26.9531 65.7267 27.5391C66.9455 28.0547 68.5041 28.3594 70.4025 28.4531C74.6681 28.6406 79.3322 28.5938 84.3947 28.3125C85.3322 28.2422 85.9416 28.3945 86.2228 28.7695C86.5275 29.1211 86.5392 29.7539 86.258 30.668C86.0705 31.2539 85.8244 31.6758 85.5197 31.9336C85.215 32.1914 84.758 32.332 84.1486 32.3555C78.8986 32.5195 74.3048 32.5312 70.3673 32.3906C68.1408 32.2734 66.3127 31.9336 64.883 31.3711C63.3361 30.7617 62.0353 29.7891 60.9806 28.4531C59.9962 29.3672 59.0587 30.1875 58.1681 30.9141ZM75.9923 27.6445C74.7267 27.6445 74.0939 27.0234 74.0939 25.7812V3.73828C72.6173 4.53516 71.0119 5.28516 69.2775 5.98828V19.5586L71.2462 19.0664C72.465 18.7383 73.1447 19.207 73.2853 20.4727C73.4259 21.4805 72.9923 22.1484 71.9845 22.4766C71.7502 22.5469 71.3869 22.6523 70.8947 22.793C68.6447 23.4492 67.0041 23.918 65.9728 24.1992C65.3634 24.3633 64.8947 24.3398 64.5666 24.1289C64.2384 23.8945 63.9923 23.4609 63.8283 22.8281C63.5001 21.5391 63.9572 20.7773 65.1994 20.543C65.2462 20.5195 65.3048 20.4961 65.3752 20.4727C65.4689 20.4492 65.5275 20.4375 65.5509 20.4375V4.37109C65.5509 3.97266 65.6681 3.67969 65.9025 3.49219C66.1369 3.30469 66.4533 3.25781 66.8517 3.35156L66.9572 3.38672C68.1525 2.82422 69.2541 2.19141 70.2619 1.48828C70.7306 1.13672 71.258 0.996094 71.8439 1.06641C72.4298 1.13672 72.9455 1.41797 73.3908 1.91016L74.0939 2.68359V2.40234C74.0939 2.37891 74.1056 2.36719 74.1291 2.36719H79.5783H82.8127C83.4923 2.36719 84.0431 2.57812 84.465 3C84.8869 3.42188 85.0978 3.97266 85.0978 4.65234V20.2266C85.0978 21.1172 85.0158 21.7969 84.8517 22.2656C84.6408 22.8047 84.2892 23.2148 83.797 23.4961C83.2111 23.8242 82.4494 24.0234 81.5119 24.0938C80.2228 24.1406 79.4259 23.6602 79.1212 22.6523C78.7228 21.293 79.297 20.6367 80.8439 20.6836C81.1486 20.6836 81.3009 20.5195 81.3009 20.1914V6.72656C81.3009 6.16406 81.0197 5.88281 80.4572 5.88281H78.6994C78.1369 5.88281 77.8556 6.16406 77.8556 6.72656V25.7812C77.8556 27.0234 77.2345 27.6445 75.9923 27.6445ZM60.5236 13.6523C60.0548 13.6992 59.5744 13.4883 59.0822 13.0195C58.4494 12.457 57.6876 11.8828 56.797 11.2969C56.1642 10.8984 55.8126 10.4531 55.7423 9.96094C55.672 9.46875 55.8947 8.96484 56.4103 8.44922C57.1369 7.72266 57.922 7.58203 58.7658 8.02734C59.4689 8.44922 60.1134 8.85938 60.6994 9.25781C60.9103 9.39844 61.2384 9.63281 61.6837 9.96094C61.8009 10.0312 61.883 10.0898 61.9298 10.1367C62.8439 10.957 62.8439 11.8477 61.9298 12.8086C61.4142 13.3242 60.9455 13.6055 60.5236 13.6523ZM63.1603 5.95312C62.1291 6.9375 61.1681 6.97266 60.2775 6.05859C59.6681 5.47266 58.9533 4.88672 58.133 4.30078C57.5001 3.90234 57.1486 3.45703 57.0783 2.96484C57.0314 2.44922 57.2775 1.94531 57.8166 1.45312C58.5431 0.773438 59.3283 0.667969 60.172 1.13672C60.8517 1.55859 61.4728 1.98047 62.0353 2.40234C62.4103 2.66016 62.797 2.96484 63.1955 3.31641C64.1095 4.16016 64.0978 5.03906 63.1603 5.95312Z" fill="#333333"/>
<path d="M149.223 15.7969C148.848 15.7969 148.613 15.6914 148.52 15.4805C148.402 15.1992 148.285 14.9648 148.168 14.7773C148.051 14.5664 147.84 14.3203 147.535 14.0391L147.606 13.8984C148.449 14.2031 149 14.3555 149.258 14.3555C149.445 14.3555 149.586 14.3203 149.68 14.25C149.774 14.1797 149.926 14.0156 150.137 13.7578C150.442 13.4297 150.723 12.9258 150.981 12.2461C151.332 11.2383 151.555 10.1953 151.649 9.11719V9.01172C151.649 8.87109 151.625 8.77734 151.578 8.73047C151.274 8.73047 150.465 8.80078 149.152 8.94141C148.426 10.7461 147.582 12.2344 146.621 13.4062C145.684 14.5547 144.828 15.1289 144.055 15.1289C143.867 15.1289 143.774 15.0586 143.774 14.918C143.774 14.8711 144.008 14.6016 144.477 14.1094C144.945 13.6172 145.461 12.9727 146.024 12.1758C146.61 11.3555 147.16 10.3477 147.676 9.15234C147.559 9.15234 147.219 9.17578 146.656 9.22266C146.094 9.26953 145.613 9.35156 145.215 9.46875C145.027 9.60938 144.828 9.63281 144.617 9.53906C144.617 9.53906 144.594 9.52734 144.547 9.50391C144.5 9.48047 144.453 9.44531 144.406 9.39844C144.242 9.30469 144.102 9.1875 143.985 9.04688C143.891 8.88281 143.844 8.73047 143.844 8.58984C143.844 8.51953 143.902 8.42578 144.02 8.30859L144.442 7.74609C144.582 7.55859 144.711 7.28906 144.828 6.9375C144.945 6.5625 145.004 6.24609 145.004 5.98828C145.004 5.82422 144.992 5.71875 144.969 5.67188C144.945 5.625 144.934 5.56641 144.934 5.49609C144.934 5.37891 144.992 5.32031 145.11 5.32031C145.25 5.32031 145.449 5.40234 145.707 5.56641C145.777 5.61328 145.906 5.70703 146.094 5.84766C146.305 5.96484 146.422 6.10547 146.445 6.26953C146.445 6.43359 146.352 6.70312 146.164 7.07812L145.707 7.88672C145.66 7.95703 145.637 8.03906 145.637 8.13281C145.637 8.20312 145.66 8.26172 145.707 8.30859C145.777 8.33203 145.86 8.33203 145.953 8.30859L148.063 8.02734C148.297 7.41797 148.485 6.77344 148.625 6.09375V5.88281V5.28516C148.625 5.02734 148.695 4.92188 148.836 4.96875C149.141 5.03906 149.387 5.13281 149.574 5.25C149.926 5.46094 150.102 5.63672 150.102 5.77734C150.102 5.89453 150.055 6.09375 149.961 6.375C149.891 6.63281 149.832 6.83203 149.785 6.97266C149.762 7.06641 149.656 7.37109 149.469 7.88672C149.539 7.88672 149.973 7.83984 150.77 7.74609L151.121 7.67578C151.192 7.67578 151.32 7.65234 151.508 7.60547C151.555 7.58203 151.613 7.57031 151.684 7.57031C151.965 7.57031 152.141 7.58203 152.211 7.60547C152.305 7.62891 152.445 7.69922 152.633 7.81641C152.844 7.95703 152.985 8.09766 153.055 8.23828C153.125 8.37891 153.149 8.54297 153.125 8.73047L152.914 9.89062L152.668 11.1562C152.668 11.25 152.586 11.5547 152.422 12.0703C152.258 12.5859 152.07 13.043 151.86 13.4414C151.461 14.2383 150.992 14.8359 150.453 15.2344C149.985 15.6094 149.574 15.7969 149.223 15.7969ZM149.152 27.6445C149.152 27.6211 149.211 27.5391 149.328 27.3984C149.469 27.2344 149.621 27.0352 149.785 26.8008C150.067 26.4023 150.348 25.8164 150.629 25.043C150.91 24.2695 151.063 23.5547 151.086 22.8984C151.086 22.8516 151.063 22.8047 151.016 22.7578C150.992 22.6875 150.934 22.6523 150.84 22.6523L150.031 22.7227L148.836 22.8281C148.578 23.6719 148.133 24.5859 147.5 25.5703C147.219 26.0156 146.832 26.4141 146.34 26.7656C145.871 27.0938 145.414 27.3281 144.969 27.4688C144.828 27.5156 144.652 27.5391 144.442 27.5391C144.277 27.5156 144.195 27.4688 144.195 27.3984C144.195 27.3047 144.277 27.2227 144.442 27.1523C144.723 26.9648 145.039 26.6719 145.391 26.2734C145.766 25.875 146.094 25.4648 146.375 25.043C146.539 24.8086 146.715 24.5039 146.902 24.1289C147.09 23.7305 147.242 23.3672 147.36 23.0391C146.61 23.1328 145.836 23.3086 145.039 23.5664C144.992 23.6133 144.91 23.6367 144.793 23.6367C144.723 23.6367 144.617 23.5898 144.477 23.4961C144.289 23.3086 144.16 23.168 144.09 23.0742C144.043 22.957 144.067 22.8516 144.16 22.7578L144.301 22.4766C144.395 22.3359 144.488 22.0547 144.582 21.6328C144.676 21.2109 144.723 20.8711 144.723 20.6133C144.723 20.543 144.711 20.4609 144.688 20.3672C144.688 20.25 144.699 20.1914 144.723 20.1914C144.77 20.168 144.828 20.168 144.899 20.1914C145.156 20.2383 145.391 20.3203 145.602 20.4375C145.789 20.5547 145.918 20.6836 145.988 20.8242C146.082 20.9414 146.082 21.0469 145.988 21.1406C145.965 21.1641 145.93 21.2109 145.883 21.2812C145.836 21.3281 145.801 21.3984 145.777 21.4922C145.754 21.5156 145.707 21.7734 145.637 22.2656C145.637 22.2891 145.649 22.3125 145.672 22.3359C145.719 22.3594 145.766 22.3594 145.813 22.3359C145.883 22.3359 145.988 22.3242 146.129 22.3008C146.27 22.2773 146.375 22.2539 146.445 22.2305C146.61 22.207 146.797 22.1719 147.008 22.125C147.242 22.0781 147.453 22.043 147.641 22.0195C147.711 21.7617 147.758 21.4805 147.781 21.1758C147.828 20.8477 147.863 20.625 147.887 20.5078L147.922 19.7695V19.5234C147.172 19.5469 146.387 19.6172 145.567 19.7344L144.934 19.8398H144.793C144.676 19.8398 144.559 19.8047 144.442 19.7344C144.348 19.6641 144.242 19.582 144.125 19.4883C143.82 19.207 143.668 18.9961 143.668 18.8555C143.668 18.7148 143.774 18.668 143.985 18.7148C144.266 18.7617 144.559 18.7852 144.863 18.7852L145.883 18.75L150.77 18.3984C150.957 18.375 151.133 18.3516 151.297 18.3281C151.461 18.2812 151.625 18.2461 151.789 18.2227H151.895C152.199 18.2227 152.41 18.2812 152.527 18.3984C152.668 18.4922 152.75 18.5508 152.774 18.5742C153.149 18.8789 153.336 19.1133 153.336 19.2773C153.336 19.418 153.137 19.4766 152.738 19.4531L152.035 19.3828C151.426 19.3594 150.512 19.3828 149.293 19.4531L149.152 20.8242C149.129 21.0586 149.106 21.2461 149.082 21.3867C149.059 21.5273 149.035 21.6445 149.012 21.7383L148.977 21.8438C149.539 21.7969 150.195 21.7266 150.945 21.6328C150.992 21.6094 151.074 21.5859 151.192 21.5625C151.309 21.5156 151.426 21.4805 151.543 21.457H151.613C151.754 21.457 151.895 21.5156 152.035 21.6328C152.176 21.75 152.258 21.8203 152.281 21.8438C152.469 22.0078 152.598 22.1484 152.668 22.2656C152.762 22.3594 152.774 22.4414 152.703 22.5117C152.656 22.6055 152.598 22.6992 152.527 22.793C152.481 22.8633 152.445 22.9453 152.422 23.0391C152.305 24.0234 152.117 24.8203 151.86 25.4297C151.649 25.9688 151.414 26.3789 151.156 26.6602C150.922 26.918 150.629 27.1641 150.277 27.3984C150.137 27.4922 149.914 27.5742 149.61 27.6445C149.305 27.6914 149.152 27.6914 149.152 27.6445ZM159.383 12.1055C159.664 12.1055 159.805 12.2344 159.805 12.4922C159.805 12.6328 159.676 12.832 159.418 13.0898C158.715 13.957 157.32 15.6094 155.235 18.0469C155.07 18.2578 154.918 18.3633 154.777 18.3633C154.66 18.3633 154.402 18.1875 154.004 17.8359C153.676 17.5547 153.512 17.3203 153.512 17.1328C153.512 16.9219 153.688 16.7227 154.039 16.5352C154.578 16.2305 155.387 15.6211 156.465 14.707C157.543 13.7461 158.34 12.9844 158.856 12.4219C159.067 12.2109 159.242 12.1055 159.383 12.1055ZM124.473 33.0586C123.02 33.0586 122.293 32.3438 122.293 30.9141V23.0391C119.481 26.3203 116.363 28.8984 112.942 30.7734C112.285 31.1016 111.711 31.2188 111.219 31.125C110.75 31.0547 110.305 30.75 109.883 30.2109C109.274 29.4609 109.063 28.8164 109.25 28.2773C109.438 27.7852 109.988 27.3281 110.902 26.9062C113.246 25.6875 115.414 24.1992 117.406 22.4414C119.399 20.6602 121.027 18.7852 122.293 16.8164V8.69531H111.641C110.281 8.69531 109.602 8.00391 109.602 6.62109C109.602 5.26172 110.281 4.58203 111.641 4.58203H122.293V2.40234C122.293 0.972656 123.02 0.257812 124.473 0.257812C125.902 0.257812 126.617 0.972656 126.617 2.40234V4.58203H137.727C139.086 4.58203 139.766 5.26172 139.766 6.62109C139.766 8.00391 139.086 8.69531 137.727 8.69531H133.192H126.617V16.5703C126.688 16.6641 126.781 16.8047 126.899 16.9922C127.016 17.1562 127.098 17.2852 127.145 17.3789C128.832 15.8789 130.121 13.7461 131.012 10.9805C131.363 9.57422 132.195 9 133.508 9.25781C134.891 9.51562 135.395 10.3242 135.02 11.6836C134.902 12.082 134.703 12.6562 134.422 13.4062C135.5 14.2266 136.953 15.375 138.781 16.8516C139.297 17.2969 139.531 17.7188 139.485 18.1172C139.461 18.4922 139.18 18.9492 138.641 19.4883C138.125 20.0039 137.68 20.2734 137.305 20.2969C136.86 20.3438 136.402 20.1211 135.934 19.6289C135.301 19.043 134.235 18.1172 132.735 16.8516C132.336 17.5078 131.938 18.082 131.539 18.5742C131.188 18.9492 130.777 19.1719 130.309 19.2422C129.84 19.2891 129.406 19.1719 129.008 18.8906C128.75 18.7266 128.363 18.4922 127.848 18.1875C127.754 18.1406 127.695 18.1055 127.672 18.082C130.297 21.5977 133.742 24.4336 138.008 26.5898C139.016 27.0352 139.613 27.5273 139.801 28.0664C140.035 28.6523 139.824 29.3438 139.168 30.1406C138.699 30.7266 138.207 31.0547 137.692 31.125C137.199 31.1953 136.613 31.0547 135.934 30.7031C132.488 28.7344 129.383 26.1094 126.617 22.8281V30.9141C126.617 32.3438 125.902 33.0586 124.473 33.0586ZM112.309 21.2461C111.863 21.2695 111.383 21.0586 110.867 20.6133C110.235 20.0742 109.93 19.5469 109.953 19.0312C109.977 18.5391 110.317 18 110.973 17.4141C111.723 16.6406 112.391 15.7617 112.977 14.7773C113.61 13.7227 114.184 12.4336 114.699 10.9102C115.074 9.57422 115.918 9.03516 117.231 9.29297C118.613 9.57422 119.094 10.3828 118.672 11.7188C118.485 12.3516 118.274 12.9375 118.039 13.4766C119.024 14.3203 119.727 14.9414 120.149 15.3398C120.594 15.7852 120.805 16.207 120.781 16.6055C120.781 17.0039 120.559 17.4492 120.113 17.9414C119.598 18.4805 119.117 18.7617 118.672 18.7852C118.227 18.7852 117.758 18.5156 117.266 17.9766C117.172 17.8828 117.008 17.7305 116.774 17.5195C116.563 17.2852 116.399 17.1211 116.281 17.0273C115.578 18.2227 114.735 19.3711 113.75 20.4727C113.258 20.9414 112.777 21.1992 112.309 21.2461Z" fill="#333333"/>
<path d="M203.012 16.1133C202.637 16.1133 202.414 15.9258 202.344 15.5508C202.203 15.1523 201.828 14.6602 201.219 14.0742L201.324 13.9336C201.418 13.9805 201.688 14.0977 202.133 14.2852C202.578 14.4492 202.883 14.5312 203.047 14.5312C203.188 14.5312 203.293 14.5312 203.363 14.5312C203.434 14.5078 203.516 14.4492 203.61 14.3555C203.891 14.1445 204.242 13.6641 204.664 12.9141C204.969 12.3047 205.238 11.5898 205.473 10.7695C205.731 9.94922 205.86 9.32812 205.86 8.90625C205.86 8.78906 205.766 8.73047 205.578 8.73047L204.242 8.80078L203.328 8.87109L202.731 8.90625L202.485 8.94141C202.649 9.05859 202.754 9.16406 202.801 9.25781C202.871 9.32812 202.906 9.42188 202.906 9.53906C202.906 9.65625 202.766 9.98438 202.485 10.5234C202.25 11.0391 201.875 11.625 201.36 12.2812C200.938 12.8438 200.363 13.4531 199.637 14.1094C198.934 14.7422 198.406 15.0703 198.055 15.0938C197.985 15.0938 197.914 15.082 197.844 15.0586C197.797 15.0117 197.774 14.9531 197.774 14.8828C197.774 14.8594 197.961 14.6367 198.336 14.2148L199.32 13.0547C200.024 12.1172 200.738 10.9219 201.465 9.46875C201.535 9.28125 201.5 9.17578 201.36 9.15234C201.219 9.17578 200.926 9.21094 200.481 9.25781C200.035 9.28125 199.637 9.35156 199.285 9.46875C199.262 9.46875 199.18 9.50391 199.039 9.57422C198.899 9.62109 198.781 9.64453 198.688 9.64453C198.547 9.64453 198.43 9.59766 198.336 9.50391L198.055 9.25781C197.844 9.09375 197.738 8.94141 197.738 8.80078C197.738 8.75391 197.762 8.68359 197.809 8.58984L197.985 8.30859C198.078 8.19141 198.231 8.00391 198.442 7.74609C198.652 7.48828 198.887 7.13672 199.145 6.69141C199.192 6.59766 199.285 6.38672 199.426 6.05859C199.59 5.73047 199.672 5.53125 199.672 5.46094V5.32031C199.672 5.17969 199.695 5.08594 199.742 5.03906C199.789 4.99219 199.895 4.99219 200.059 5.03906C200.223 5.08594 200.422 5.21484 200.656 5.42578L201.043 5.8125C201.113 5.88281 201.149 5.96484 201.149 6.05859C201.149 6.29297 200.82 6.71484 200.164 7.32422C200.047 7.44141 199.906 7.61719 199.742 7.85156C199.578 8.08594 199.496 8.23828 199.496 8.30859C199.496 8.44922 199.602 8.49609 199.813 8.44922L200.621 8.34375C202.473 8.0625 203.867 7.89844 204.805 7.85156L205.754 7.71094L206.07 7.64062L206.246 7.60547C206.434 7.60547 206.563 7.62891 206.633 7.67578C206.703 7.72266 206.774 7.80469 206.844 7.92188C206.914 8.01562 206.985 8.09766 207.055 8.16797C207.219 8.35547 207.336 8.51953 207.406 8.66016L207.477 8.97656L207.406 9.11719L207.336 9.32812C207.289 9.44531 207.254 9.5625 207.231 9.67969C207.207 9.77344 207.172 9.87891 207.125 9.99609C206.633 11.8945 206.059 13.3711 205.402 14.4258C205.192 14.8008 204.828 15.1758 204.313 15.5508C203.82 15.9258 203.387 16.1133 203.012 16.1133ZM206.211 25.7109C206.258 25.8047 206.34 25.9453 206.457 26.1328C206.574 26.3203 206.633 26.543 206.633 26.8008C206.633 27.0352 206.539 27.2227 206.352 27.3633C206.164 27.5273 205.953 27.6094 205.719 27.6094C205.508 27.6094 205.332 27.3984 205.192 26.9766C205.121 26.8125 205.063 26.6836 205.016 26.5898C204.992 26.4727 204.969 26.3789 204.945 26.3086C204.641 26.4023 204.242 26.4844 203.75 26.5547C203.258 26.625 202.906 26.6836 202.695 26.7305C201.57 26.9414 200.797 27.0938 200.375 27.1875C200.211 27.2344 200.035 27.293 199.848 27.3633C199.66 27.4102 199.555 27.4453 199.531 27.4688C199.391 27.5156 199.285 27.5391 199.215 27.5391C199.027 27.5391 198.852 27.457 198.688 27.293C198.406 27.082 198.195 26.8008 198.055 26.4492C198.031 26.4258 198.02 26.3906 198.02 26.3438C198.02 26.2969 198.078 26.2383 198.195 26.168C198.336 26.0977 198.442 26.0508 198.512 26.0273C198.817 25.8633 199.356 25.3711 200.129 24.5508L201.078 23.6367L199.004 22.5117C198.77 22.4414 198.617 22.3594 198.547 22.2656C198.477 22.1719 198.442 22.0312 198.442 21.8438C198.442 21.7031 198.465 21.6094 198.512 21.5625C198.582 21.4922 198.723 21.3867 198.934 21.2461C199.145 21.1055 199.356 20.918 199.567 20.6836C199.684 20.543 199.836 20.3906 200.024 20.2266C200.211 20.0625 200.387 19.8867 200.551 19.6992C201.254 18.8789 201.699 18.2344 201.887 17.7656C202.004 17.5312 202.098 17.4141 202.168 17.4141C202.215 17.4141 202.309 17.4609 202.449 17.5547C202.895 17.8828 203.164 18.1875 203.258 18.4688V18.5742C203.258 18.6914 203.199 18.7852 203.082 18.8555C202.965 18.9258 202.883 18.9844 202.836 19.0312C202.766 19.0781 202.414 19.418 201.781 20.0508L201.149 20.6836C201.031 20.8008 200.832 21 200.551 21.2812C200.27 21.5391 200.129 21.6914 200.129 21.7383C200.129 21.8086 200.164 21.8672 200.235 21.9141C200.328 21.9609 200.399 22.0078 200.445 22.0547L201.922 22.7578C202.836 21.8438 203.363 21.3047 203.504 21.1406C204.113 20.4375 204.453 19.9922 204.524 19.8047C204.547 19.7812 204.582 19.7227 204.629 19.6289C204.676 19.5352 204.723 19.4883 204.77 19.4883C204.84 19.4883 204.91 19.5234 204.981 19.5938C205.356 19.9453 205.625 20.2734 205.789 20.5781C205.836 20.6719 205.86 20.7305 205.86 20.7539C205.86 20.8008 205.801 20.8711 205.684 20.9648C205.59 21.0352 205.496 21.1055 205.402 21.1758C204.582 21.8555 203.621 22.7461 202.52 23.8477L200.375 25.8516C200.328 25.8984 200.305 25.9453 200.305 25.9922C200.305 26.0391 200.328 26.0742 200.375 26.0977C200.422 26.1211 200.492 26.1211 200.586 26.0977L204.699 25.3945C204.582 24.9258 204.442 24.457 204.277 23.9883V23.918C204.277 23.8477 204.313 23.8125 204.383 23.8125C204.477 23.8125 204.617 23.8828 204.805 24.0234C205.18 24.3516 205.649 24.9141 206.211 25.7109ZM208.883 14.918C209 14.918 209.176 15 209.41 15.1641C209.387 15.2109 209.434 15.3047 209.551 15.4453C209.668 15.5625 209.75 15.6445 209.797 15.6914C209.914 15.8086 210.031 15.9492 210.149 16.1133C210.289 16.2773 210.442 16.4531 210.606 16.6406C211.027 17.0859 212 18.2461 213.524 20.1211C213.781 20.4961 213.91 20.7188 213.91 20.7891C213.91 21.0234 213.77 21.1406 213.488 21.1406C213.324 21.1406 213.149 21.0234 212.961 20.7891C212.516 20.3203 211.719 19.582 210.57 18.5742C209.68 17.7539 208.871 17.1211 208.145 16.6758C207.793 16.5117 207.617 16.3242 207.617 16.1133C207.617 15.9492 207.793 15.7148 208.145 15.4102C208.473 15.082 208.719 14.918 208.883 14.918ZM187.684 33.0234C185.996 33.0703 184.965 32.4961 184.59 31.3008C184.074 29.5898 184.965 28.7812 187.262 28.875C187.754 28.875 188.235 28.875 188.703 28.875C189.031 28.8516 189.254 28.793 189.371 28.6992C189.488 28.582 189.547 28.3711 189.547 28.0664V14.6367V3.24609C189.547 1.88672 190.227 1.20703 191.586 1.20703C192.945 1.20703 193.625 1.88672 193.625 3.24609V28.0664C193.625 29.2617 193.485 30.1758 193.203 30.8086C192.922 31.4648 192.43 31.9453 191.727 32.25C190.93 32.6484 189.582 32.9062 187.684 33.0234ZM164.692 32.0391C164.035 32.1328 163.555 32.0156 163.25 31.6875C162.969 31.4062 162.77 30.9023 162.652 30.1758C162.535 29.4727 162.594 28.9336 162.828 28.5586C163.086 28.1836 163.555 27.9609 164.235 27.8906C165.078 27.8203 166.461 27.6797 168.383 27.4688C168.875 27.3984 169.25 27.3516 169.508 27.3281V22.793H165.57C164.328 22.793 163.707 22.1719 163.707 20.9297C163.707 19.6875 164.328 19.0664 165.57 19.0664H166.59H169.508V17.6953C169.508 16.3359 170.188 15.6562 171.547 15.6562C172.906 15.6562 173.586 16.3359 173.586 17.6953V19.0664H177.418C178.66 19.0664 179.281 19.6875 179.281 20.9297C179.281 22.1719 178.66 22.793 177.418 22.793H173.586V26.8359L178.332 26.2734C179.692 26.0859 180.395 26.6953 180.442 28.1016C180.488 29.3438 179.891 30.0352 178.649 30.1758C176.164 30.5273 172.543 31.0195 167.785 31.6523C166.379 31.8164 165.348 31.9453 164.692 32.0391ZM183.641 24.2695C182.305 24.2695 181.637 23.6133 181.637 22.3008V14.3906V6.44531C181.637 5.13281 182.305 4.47656 183.641 4.47656C184.953 4.47656 185.61 5.13281 185.61 6.44531V22.3008C185.61 23.6133 184.953 24.2695 183.641 24.2695ZM179.809 15.4453C178.66 16.125 177.805 15.8555 177.242 14.6367C174.828 14.7773 171.324 14.9531 166.731 15.1641C165.723 15.2109 164.985 15.2461 164.516 15.2695C163.906 15.293 163.473 15.1523 163.215 14.8477C162.981 14.5664 162.84 14.0859 162.793 13.4062C162.723 12.0938 163.332 11.4258 164.621 11.4023L165.676 11.3672C166.262 9.75 166.789 8.00391 167.258 6.12891H164.551C163.332 6.12891 162.723 5.50781 162.723 4.26562C162.723 3.04688 163.332 2.4375 164.551 2.4375H171.512H178.508C179.727 2.4375 180.336 3.04688 180.336 4.26562C180.336 5.50781 179.727 6.12891 178.508 6.12891H171.899C171.219 7.86328 170.516 9.57422 169.789 11.2617C170.985 11.2383 172.789 11.1797 175.203 11.0859C175.133 10.9688 175.016 10.8047 174.852 10.5938C174.664 10.2891 174.512 10.0664 174.395 9.92578C173.668 8.91797 173.867 8.10938 174.992 7.5C175.906 7.03125 176.668 7.18359 177.277 7.95703C178.754 9.87891 179.902 11.6367 180.723 13.2305C180.957 13.7227 180.992 14.1562 180.828 14.5312C180.664 14.8359 180.324 15.1406 179.809 15.4453Z" fill="#333333"/>
<path d="M40.4142 58.2266C40.2736 58.2266 40.0861 58.0742 39.8517 57.7695C39.6173 57.4414 39.5119 57.1602 39.5353 56.9258C39.5822 56.7383 39.6173 56.2109 39.6408 55.3438C39.6642 54.7578 39.6759 53.7266 39.6759 52.25C39.6759 51.2188 39.6642 50.5273 39.6408 50.1758L38.4806 50.2812C37.6603 50.3984 36.9572 50.457 36.3712 50.457C36.2072 50.457 35.9728 50.3281 35.6681 50.0703C35.3634 49.8125 35.2111 49.625 35.2111 49.5078C35.2111 49.3203 35.4103 49.25 35.8087 49.2969C36.0666 49.3203 36.8283 49.3086 38.0939 49.2617C39.8283 49.1445 41.0822 49.0742 41.8556 49.0508C42.2541 49.0273 42.6173 48.9922 42.9455 48.9453C43.297 48.875 43.5431 48.8281 43.6837 48.8047C43.8947 48.7812 44.0822 48.8047 44.2462 48.875C44.4103 48.9453 44.5626 49.0391 44.7033 49.1562C44.8673 49.25 44.9962 49.3203 45.09 49.3672C45.3009 49.5078 45.4064 49.6367 45.4064 49.7539C45.4064 49.8477 45.3478 49.9414 45.2306 50.0352C45.1369 50.1055 45.0314 50.1406 44.9142 50.1406C44.797 50.1406 44.633 50.1289 44.422 50.1055C44.2345 50.082 44.0236 50.0703 43.7892 50.0703C42.922 50.0703 42.0314 50.0938 41.1173 50.1406C41.0939 50.3281 41.0822 50.7969 41.0822 51.5469C41.0353 52.8125 41.0119 54.0547 41.0119 55.2734V56.6445V56.9609C41.0119 57.3594 40.9767 57.6172 40.9064 57.7344C40.6955 58.0625 40.5314 58.2266 40.4142 58.2266ZM36.6525 64.4492C36.3947 64.4492 36.0783 64.25 35.7033 63.8516C35.422 63.5703 35.2814 63.3594 35.2814 63.2188C35.2814 63.1484 35.3283 63.1133 35.422 63.1133C35.5158 63.0898 35.633 63.0781 35.7736 63.0781L36.547 63.043C36.9923 63.043 37.2853 63.0312 37.4259 63.0078C37.8712 63.0078 38.2462 62.9961 38.5509 62.9727C40.5666 62.7852 41.9259 62.6328 42.6291 62.5156C42.9806 62.4688 43.297 62.4219 43.5783 62.375C43.8595 62.3047 44.0822 62.2695 44.2462 62.2695C44.5744 62.2695 44.9025 62.4336 45.2306 62.7617C45.4884 63.0195 45.6173 63.2305 45.6173 63.3945C45.6173 63.5352 45.5353 63.6289 45.3712 63.6758C45.2541 63.6992 44.5626 63.7461 43.297 63.8164C42.5939 63.8398 41.7267 63.8984 40.6955 63.9922C39.6642 64.0859 38.7619 64.1797 37.9884 64.2734C37.8478 64.2969 37.6486 64.332 37.3908 64.3789C37.133 64.4258 36.8869 64.4492 36.6525 64.4492ZM44.2111 76.5781C44.258 76.6719 44.34 76.8125 44.4572 77C44.5744 77.1875 44.633 77.4102 44.633 77.668C44.633 77.9023 44.5392 78.0898 44.3517 78.2305C44.1642 78.3945 43.9533 78.4766 43.7189 78.4766C43.508 78.4766 43.3322 78.2656 43.1916 77.8438C43.1212 77.6797 43.0626 77.5391 43.0158 77.4219C42.9923 77.3281 42.9689 77.2461 42.9455 77.1758C42.6408 77.2695 42.2423 77.3516 41.7501 77.4219C41.258 77.4922 40.9064 77.5508 40.6955 77.5977C39.5705 77.8086 38.797 77.9609 38.3751 78.0547C38.2111 78.1016 38.0353 78.1484 37.8478 78.1953C37.6603 78.2656 37.5548 78.3125 37.5314 78.3359C37.3908 78.3828 37.2853 78.4062 37.215 78.4062C37.0275 78.4062 36.8517 78.3242 36.6876 78.1602C36.4064 77.9492 36.1955 77.668 36.0548 77.3164C36.0314 77.293 36.0197 77.2578 36.0197 77.2109C36.0197 77.1641 36.0783 77.1055 36.1955 77.0352C36.3361 76.9648 36.4416 76.918 36.5119 76.8945C36.8166 76.7305 37.3556 76.2383 38.1291 75.418L39.0783 74.5039L37.0041 73.3789C36.7697 73.3086 36.6173 73.2266 36.547 73.1328C36.4767 73.0391 36.4416 72.8984 36.4416 72.7109C36.4416 72.5703 36.465 72.4766 36.5119 72.4297C36.5822 72.3594 36.7228 72.2539 36.9337 72.1133C37.1447 71.9727 37.3556 71.7852 37.5666 71.5508C37.6837 71.4102 37.8361 71.2578 38.0236 71.0938C38.2111 70.9297 38.3869 70.7539 38.5509 70.5664C39.2541 69.7461 39.6994 69.1016 39.8869 68.6328C40.0041 68.3984 40.0978 68.2812 40.1681 68.2812C40.215 68.2812 40.3087 68.3281 40.4494 68.4219C40.8947 68.75 41.1642 69.0547 41.258 69.3359V69.4414C41.258 69.5586 41.1994 69.6523 41.0822 69.7227C40.965 69.793 40.883 69.8516 40.8361 69.8984C40.7658 69.9453 40.4142 70.2852 39.7814 70.918L39.1486 71.5508C39.0314 71.668 38.8322 71.8672 38.5509 72.1484C38.2697 72.4062 38.1291 72.5586 38.1291 72.6055C38.1291 72.6758 38.1642 72.7344 38.2345 72.7812C38.3283 72.8281 38.3986 72.875 38.4455 72.9219L39.922 73.625C40.8361 72.7109 41.3634 72.1719 41.5041 72.0078C42.1134 71.3047 42.4533 70.8594 42.5236 70.6719C42.547 70.6484 42.5822 70.5898 42.6291 70.4961C42.6759 70.4023 42.7228 70.3555 42.7697 70.3555C42.84 70.3555 42.9103 70.3906 42.9806 70.4609C43.3556 70.8125 43.6251 71.1406 43.7892 71.4453C43.8361 71.5391 43.8595 71.5977 43.8595 71.6211C43.8595 71.668 43.8009 71.7383 43.6837 71.832C43.59 71.9023 43.4962 71.9727 43.4025 72.043C42.5822 72.7227 41.6212 73.6133 40.5197 74.7148L38.3751 76.7188C38.3283 76.7656 38.3048 76.8125 38.3048 76.8594C38.3048 76.9062 38.3283 76.9414 38.3751 76.9648C38.422 76.9883 38.4923 76.9883 38.5861 76.9648L42.6994 76.2617C42.5822 75.793 42.4416 75.3242 42.2775 74.8555V74.7852C42.2775 74.7148 42.3126 74.6797 42.383 74.6797C42.4767 74.6797 42.6173 74.75 42.8048 74.8906C43.1798 75.2188 43.6486 75.7812 44.2111 76.5781ZM51.5236 65.293C51.5939 65.293 51.6642 65.3281 51.7345 65.3984C51.8048 65.4453 51.8517 65.5156 51.8751 65.6094V65.6797C51.8751 65.8438 51.7462 66.1602 51.4884 66.6289L48.9572 71.0234C48.7697 71.4219 48.5236 71.6211 48.2189 71.6211C47.9142 71.6211 47.6564 71.4336 47.4455 71.0586C47.2345 70.7539 46.9767 70.2969 46.672 69.6875C46.5314 69.4766 46.4142 69.2656 46.3205 69.0547C46.2267 68.8438 46.1564 68.6914 46.1095 68.5977C45.8517 68.1523 45.7228 67.8359 45.7228 67.6484C45.7228 67.5547 45.758 67.4844 45.8283 67.4375C45.8986 67.3672 45.9689 67.332 46.0392 67.332C46.297 67.332 46.5314 67.4727 46.7423 67.7539C46.9064 67.918 47.0353 68.0938 47.1291 68.2812L47.5158 68.8086L48.2189 69.6172L48.5353 69.125C48.8634 68.5625 49.6369 67.4492 50.8556 65.7852C51.1134 65.457 51.3361 65.293 51.5236 65.293ZM12.008 79.9883C10.297 80.0352 9.23062 79.4727 8.80874 78.3008C8.17593 76.5195 9.06656 75.6758 11.4806 75.7695C11.8322 75.7695 12.2892 75.7578 12.8517 75.7344C13.133 75.7344 13.3205 75.7344 13.4142 75.7344C14.1173 75.7344 14.4689 75.4297 14.4689 74.8203V61.2852V49.9297C14.4689 48.4531 15.2189 47.7148 16.7189 47.7148C18.1955 47.7148 18.9337 48.4531 18.9337 49.9297V74.8203C18.9337 76.0859 18.7697 77.0469 18.4416 77.7031C18.1369 78.3828 17.5978 78.8867 16.8244 79.2148C15.7462 79.6602 14.1408 79.918 12.008 79.9883ZM31.3791 71.8672C30.4884 72.2188 29.8087 72.2891 29.34 72.0781C28.8244 71.8672 28.4728 71.3281 28.2853 70.4609C27.8634 68.8906 27.2775 67.1445 26.5275 65.2227C25.8009 63.2773 24.8869 61.1797 23.7853 58.9297C23.1056 57.5703 23.4923 56.6094 24.9455 56.0469C26.1876 55.5781 27.1251 55.918 27.758 57.0664C30.2189 61.6367 31.9416 65.7266 32.9259 69.3359C33.09 70.0156 33.0431 70.543 32.7853 70.918C32.5509 71.2695 32.0822 71.5859 31.3791 71.8672ZM3.95718 71.5508C3.48843 71.668 2.92593 71.5508 2.26968 71.1992C1.49624 70.7773 1.03921 70.3203 0.898586 69.8281C0.757961 69.3359 0.933743 68.7266 1.42593 68C2.90249 65.3516 4.06265 62.0117 4.9064 57.9805C5.18765 56.457 6.10171 55.8359 7.64859 56.1172C9.26577 56.3984 9.88687 57.3125 9.51187 58.8594C8.99624 60.9688 8.41031 62.9727 7.75406 64.8711C7.00406 67.0273 6.17202 68.8906 5.25796 70.4609C4.85952 71.0703 4.42593 71.4336 3.95718 71.5508Z" fill="#F568CC"/>
<path d="M98.0353 61.918C97.6837 61.918 97.4259 61.7305 97.2619 61.3555L96.9455 60.6523C96.0314 60.8867 95.2931 61.0625 94.7306 61.1797L92.4455 61.7422C91.9767 61.8594 91.6837 61.918 91.5666 61.918C91.4259 61.918 91.3087 61.8945 91.215 61.8477C91.1447 61.7773 91.0861 61.7188 91.0392 61.6719C90.9923 61.6016 90.9572 61.543 90.9337 61.4961C90.7462 61.168 90.6642 60.9453 90.6877 60.8281L90.9337 60.4414C91.5431 59.5977 92.1056 58.3906 92.6212 56.8203L91.9181 56.9258L91.0041 57.0312C90.9337 57.0547 90.7814 57.1016 90.547 57.1719C90.3361 57.2188 90.172 57.207 90.0548 57.1367C89.797 56.9727 89.4572 56.6797 89.0353 56.2578C88.9416 56.1641 88.8947 56.0938 88.8947 56.0469C88.8947 55.9062 89.1525 55.8359 89.6681 55.8359H90.8634C91.6603 55.7891 92.3869 55.7305 93.0431 55.6602C93.1837 55.3086 93.3361 54.8633 93.5002 54.3242C93.6642 53.7852 93.7814 53.3516 93.8517 53.0234C93.8517 52.9531 93.8517 52.8125 93.8517 52.6016C93.8752 52.3906 93.922 52.2617 93.9923 52.2148H94.0275C94.1212 52.2148 94.2502 52.2617 94.4142 52.3555C94.5783 52.4492 94.7306 52.5664 94.8712 52.707C95.3166 53.1523 95.4455 53.5039 95.258 53.7617C95.1642 53.7852 94.965 54.1719 94.6603 54.9219C94.6369 54.9688 94.5548 55.1797 94.4142 55.5547C94.6017 55.5312 95.2814 55.4492 96.4533 55.3086C96.9923 55.2617 97.4025 55.2031 97.6837 55.1328C98.0822 55.0156 98.3986 54.957 98.633 54.957C98.8205 54.957 98.9728 55.0273 99.09 55.168C99.2072 55.2852 99.2892 55.3672 99.3361 55.4141C99.4064 55.4844 99.4884 55.625 99.5822 55.8359C99.6759 56 99.7111 56.1172 99.6877 56.1875C99.5939 56.3281 99.4298 56.3984 99.1955 56.3984C98.422 56.3516 97.4962 56.375 96.4181 56.4688C95.9494 56.5156 95.5978 56.5625 95.3634 56.6094L93.9923 56.75L93.6759 57.6992L93.2892 58.543C93.172 58.8242 93.0431 59.1055 92.9025 59.3867C92.7619 59.668 92.6564 59.9023 92.5861 60.0898C92.5627 60.1367 92.5509 60.207 92.5509 60.3008C92.5509 60.418 92.6212 60.4766 92.7619 60.4766C92.9494 60.4766 93.5939 60.3711 94.6955 60.1602L95.9962 59.9492L96.5939 59.8086C96.383 59.2227 96.2189 58.8477 96.1017 58.6836C95.9845 58.5195 95.9142 58.4141 95.8908 58.3672L96.1017 58.1562C97.0158 58.7422 97.7541 59.3398 98.3166 59.9492C98.4806 60.1602 98.5861 60.3594 98.633 60.5469C98.7033 60.7344 98.7267 60.9453 98.7033 61.1797C98.6564 61.3906 98.5744 61.5547 98.4572 61.6719C98.4103 61.7891 98.2697 61.8711 98.0353 61.918ZM95.1525 74.6445C95.1525 74.6211 95.2111 74.5391 95.3283 74.3984C95.4689 74.2344 95.6212 74.0352 95.7853 73.8008C96.0666 73.4023 96.3478 72.8164 96.6291 72.043C96.9103 71.2695 97.0627 70.5547 97.0861 69.8984C97.0861 69.8516 97.0627 69.8047 97.0158 69.7578C96.9923 69.6875 96.9337 69.6523 96.84 69.6523L96.0314 69.7227L94.8361 69.8281C94.5783 70.6719 94.133 71.5859 93.5002 72.5703C93.2189 73.0156 92.8322 73.4141 92.34 73.7656C91.8712 74.0938 91.4142 74.3281 90.9689 74.4688C90.8283 74.5156 90.6525 74.5391 90.4416 74.5391C90.2775 74.5156 90.1955 74.4688 90.1955 74.3984C90.1955 74.3047 90.2775 74.2227 90.4416 74.1523C90.7228 73.9648 91.0392 73.6719 91.3908 73.2734C91.7658 72.875 92.0939 72.4648 92.3752 72.043C92.5392 71.8086 92.715 71.5039 92.9025 71.1289C93.09 70.7305 93.2423 70.3672 93.3595 70.0391C92.6095 70.1328 91.8361 70.3086 91.0392 70.5664C90.9923 70.6133 90.9103 70.6367 90.7931 70.6367C90.7228 70.6367 90.6173 70.5898 90.4767 70.4961C90.2892 70.3086 90.1603 70.168 90.09 70.0742C90.0431 69.957 90.0666 69.8516 90.1603 69.7578L90.3009 69.4766C90.3947 69.3359 90.4884 69.0547 90.5822 68.6328C90.6759 68.2109 90.7228 67.8711 90.7228 67.6133C90.7228 67.543 90.7111 67.4609 90.6877 67.3672C90.6877 67.25 90.6994 67.1914 90.7228 67.1914C90.7697 67.168 90.8283 67.168 90.8986 67.1914C91.1564 67.2383 91.3908 67.3203 91.6017 67.4375C91.7892 67.5547 91.9181 67.6836 91.9884 67.8242C92.0822 67.9414 92.0822 68.0469 91.9884 68.1406C91.965 68.1641 91.9298 68.2109 91.883 68.2812C91.8361 68.3281 91.8009 68.3984 91.7775 68.4922C91.7541 68.5156 91.7072 68.7734 91.6369 69.2656C91.6369 69.2891 91.6486 69.3125 91.672 69.3359C91.7189 69.3594 91.7658 69.3594 91.8127 69.3359C91.883 69.3359 91.9884 69.3242 92.1291 69.3008C92.2697 69.2773 92.3752 69.2539 92.4455 69.2305C92.6095 69.207 92.797 69.1719 93.008 69.125C93.2423 69.0781 93.4533 69.043 93.6408 69.0195C93.7111 68.7617 93.758 68.4805 93.7814 68.1758C93.8283 67.8477 93.8634 67.625 93.8869 67.5078L93.922 66.7695V66.5234C93.172 66.5469 92.3869 66.6172 91.5666 66.7344L90.9337 66.8398H90.7931C90.6759 66.8398 90.5587 66.8047 90.4416 66.7344C90.3478 66.6641 90.2423 66.582 90.1252 66.4883C89.8205 66.207 89.6681 65.9961 89.6681 65.8555C89.6681 65.7148 89.7736 65.668 89.9845 65.7148C90.2658 65.7617 90.5587 65.7852 90.8634 65.7852L91.883 65.75L96.7697 65.3984C96.9572 65.375 97.133 65.3516 97.297 65.3281C97.4611 65.2812 97.6252 65.2461 97.7892 65.2227H97.8947C98.1994 65.2227 98.4103 65.2812 98.5275 65.3984C98.6681 65.4922 98.7502 65.5508 98.7736 65.5742C99.1486 65.8789 99.3361 66.1133 99.3361 66.2773C99.3361 66.418 99.1369 66.4766 98.7384 66.4531L98.0353 66.3828C97.4259 66.3594 96.5119 66.3828 95.2931 66.4531L95.1525 67.8242C95.1291 68.0586 95.1056 68.2461 95.0822 68.3867C95.0587 68.5273 95.0353 68.6445 95.0119 68.7383L94.9767 68.8438C95.5392 68.7969 96.1955 68.7266 96.9455 68.6328C96.9923 68.6094 97.0744 68.5859 97.1916 68.5625C97.3087 68.5156 97.4259 68.4805 97.5431 68.457H97.6134C97.7541 68.457 97.8947 68.5156 98.0353 68.6328C98.1759 68.75 98.258 68.8203 98.2814 68.8438C98.4689 69.0078 98.5978 69.1484 98.6681 69.2656C98.7619 69.3594 98.7736 69.4414 98.7033 69.5117C98.6564 69.6055 98.5978 69.6992 98.5275 69.793C98.4806 69.8633 98.4455 69.9453 98.422 70.0391C98.3048 71.0234 98.1173 71.8203 97.8595 72.4297C97.6486 72.9688 97.4142 73.3789 97.1564 73.6602C96.922 73.918 96.6291 74.1641 96.2775 74.3984C96.1369 74.4922 95.9142 74.5742 95.6095 74.6445C95.3048 74.6914 95.1525 74.6914 95.1525 74.6445ZM100.883 61.918C101 61.918 101.176 62 101.41 62.1641C101.387 62.2109 101.434 62.3047 101.551 62.4453C101.668 62.5625 101.75 62.6445 101.797 62.6914C101.914 62.8086 102.031 62.9492 102.149 63.1133C102.289 63.2773 102.442 63.4531 102.606 63.6406C103.027 64.0859 104 65.2461 105.524 67.1211C105.781 67.4961 105.91 67.7188 105.91 67.7891C105.91 68.0234 105.77 68.1406 105.488 68.1406C105.324 68.1406 105.149 68.0234 104.961 67.7891C104.516 67.3203 103.719 66.582 102.57 65.5742C101.68 64.7539 100.871 64.1211 100.145 63.6758C99.7931 63.5117 99.6173 63.3242 99.6173 63.1133C99.6173 62.9492 99.7931 62.7148 100.145 62.4102C100.473 62.082 100.719 61.918 100.883 61.918ZM67.59 80.0586C66.3244 80.1055 65.5392 79.6836 65.2345 78.793C64.7423 77.4336 65.3986 76.7773 67.2033 76.8242C67.4377 76.8242 67.6603 76.8242 67.8712 76.8242C68.2697 76.8242 68.4689 76.6484 68.4689 76.2969V66.4883C68.4689 65.1758 69.1369 64.5195 70.4728 64.5195C71.7853 64.5195 72.4416 65.1758 72.4416 66.4883V70.4609V76.4023C72.4416 77.3398 72.3478 78.0195 72.1603 78.4414C71.9259 78.9102 71.5041 79.2852 70.8947 79.5664C70.1681 79.8477 69.0666 80.0117 67.59 80.0586ZM82.3205 78.793C81.8986 78.9336 81.4181 78.8516 80.8791 78.5469C79.8244 77.9375 78.7814 77.375 77.7502 76.8594C76.2502 76.1094 75.1252 75.5703 74.3752 75.2422C73.0861 74.7031 72.8634 73.8477 73.7072 72.6758C74.3166 71.832 75.09 71.5977 76.0275 71.9727C78.2306 72.8867 80.5392 73.9648 82.9533 75.207C83.5392 75.5117 83.8673 75.875 83.9377 76.2969C83.9845 76.6719 83.8087 77.1641 83.4103 77.7734C83.0587 78.3359 82.6955 78.6758 82.3205 78.793ZM59.8556 78.1602C58.8244 78.5586 58.0275 78.2305 57.465 77.1758C57.1134 76.5195 56.9962 75.9922 57.1134 75.5938C57.2541 75.1953 57.6642 74.8789 58.3439 74.6445C58.9298 74.457 59.8791 74.1523 61.1916 73.7305C62.0353 73.4492 63.3478 73.0039 65.1291 72.3945C66.2775 71.9961 66.9806 72.3945 67.2384 73.5898C67.4494 74.5508 67.0861 75.2188 66.1486 75.5938C65.7033 75.7812 65.0353 76.0625 64.1447 76.4375C62.1994 77.2578 60.7697 77.832 59.8556 78.1602ZM64.8127 71.1992C64.4142 71.2461 63.9923 71.0352 63.547 70.5664C62.7033 69.7695 61.8244 69.0195 60.9103 68.3164C60.3712 68.7617 59.7501 69.2188 59.047 69.6875C58.4845 70.0625 57.9103 70.2148 57.3244 70.1445C56.7384 70.0508 56.2228 69.7578 55.7775 69.2656C55.7541 69.2422 55.7306 69.2188 55.7072 69.1953C55.215 68.8438 54.9923 68.4688 55.0392 68.0703C55.0861 67.6719 55.3908 67.3086 55.9533 66.9805C57.4298 66.0195 58.8361 64.8945 60.172 63.6055H56.5509C55.4259 63.6055 54.8634 63.0312 54.8634 61.8828C54.8634 60.7578 55.4259 60.1953 56.5509 60.1953H63.0197C63.4181 59.6328 63.8166 59 64.215 58.2969H60.1369C59.0822 58.2969 58.5548 57.7578 58.5548 56.6797C58.5548 55.625 59.0822 55.0977 60.1369 55.0977H65.7619C66.0431 54.3477 66.2423 53.7852 66.3595 53.4102H58.4494C57.3478 53.4102 56.797 52.8477 56.797 51.7227C56.797 50.6211 57.3478 50.0703 58.4494 50.0703H67.2736C67.297 49.9766 67.3205 49.8359 67.3439 49.6484C67.3908 49.5312 67.4142 49.4375 67.4142 49.3672C67.6252 47.9609 68.4337 47.3047 69.84 47.3984C71.3869 47.4922 71.9962 48.3008 71.6681 49.8242C71.6681 49.8477 71.6564 49.8945 71.633 49.9648C71.633 50.0117 71.6212 50.0469 71.5978 50.0703H82.9181C84.0197 50.0703 84.5705 50.6211 84.5705 51.7227C84.5705 52.8477 84.0197 53.4102 82.9181 53.4102H77.6095H70.6837C70.4494 54.1602 70.2619 54.7227 70.1212 55.0977H81.6173C82.672 55.0977 83.1994 55.625 83.1994 56.6797C83.1994 57.7578 82.672 58.2969 81.6173 58.2969H76.6603C76.965 58.8359 77.3986 59.4688 77.9611 60.1953H84.6408C85.7658 60.1953 86.3283 60.7578 86.3283 61.8828C86.3283 63.0312 85.7658 63.6055 84.6408 63.6055H81.1955C82.2267 64.4961 83.3283 65.2695 84.5002 65.9258C85.3673 66.3477 85.8947 66.793 86.0822 67.2617C86.2697 67.7773 86.0705 68.3984 85.4845 69.125C84.7111 70.0859 83.7033 70.25 82.4611 69.6172C81.6408 69.125 80.9025 68.6211 80.2462 68.1055C79.2853 68.9258 78.2658 69.7227 77.1877 70.4961C76.508 70.9414 75.8283 70.8828 75.1486 70.3203C74.1173 69.5 74.0939 68.6914 75.0783 67.8945C75.9455 67.168 76.7423 66.4062 77.4689 65.6094C76.7423 64.8359 76.1798 64.168 75.7814 63.6055H65.4455C64.883 64.3555 64.2267 65.1289 63.4767 65.9258C64.4845 66.6523 65.3869 67.3672 66.1837 68.0703C66.9337 68.7969 66.8986 69.582 66.0783 70.4258C65.6095 70.918 65.1877 71.1758 64.8127 71.1992ZM67.7658 60.1953H70.6134H73.4962C73.2384 59.7734 72.8986 59.1406 72.4767 58.2969H68.7502C68.3283 59.1406 68.0002 59.7734 67.7658 60.1953Z" fill="#F568CC"/>
<path d="M144.652 58.4727C144.395 58.4727 144.078 58.2734 143.703 57.875C143.422 57.5938 143.281 57.3828 143.281 57.2422C143.281 57.1719 143.328 57.1367 143.422 57.1367C143.516 57.1133 143.633 57.1016 143.774 57.1016L144.547 57.0664C144.992 57.0664 145.285 57.0547 145.426 57.0312C145.871 57.0312 146.246 57.0195 146.551 56.9961C148.567 56.8086 149.926 56.6562 150.629 56.5391C150.981 56.4922 151.297 56.4453 151.578 56.3984C151.86 56.3281 152.082 56.293 152.246 56.293C152.574 56.293 152.902 56.457 153.231 56.7852C153.488 57.043 153.617 57.2539 153.617 57.418C153.617 57.5586 153.535 57.6523 153.371 57.6992C153.254 57.7227 152.563 57.7695 151.297 57.8398C150.594 57.8633 149.727 57.9219 148.695 58.0156C147.664 58.1094 146.762 58.2031 145.988 58.2969C145.848 58.3203 145.649 58.3555 145.391 58.4023C145.133 58.4492 144.887 58.4727 144.652 58.4727ZM152.633 73.8711C152.961 74.082 153.125 74.2812 153.125 74.4688C153.125 74.7266 152.926 74.8906 152.527 74.9609C152.129 75.0312 151.567 75.0781 150.84 75.1016C149.785 75.125 149.106 75.0898 148.801 74.9961C148.285 74.7617 148.027 74.375 148.027 73.8359L148.063 72.5352C148.11 72.1133 148.133 71.7383 148.133 71.4102C148.156 71.1992 148.168 70.7891 148.168 70.1797C147.817 70.9766 147.36 71.75 146.797 72.5C146.399 72.9922 146.047 73.4023 145.742 73.7305C145.438 74.0352 145.074 74.3281 144.652 74.6094C144.231 74.8906 143.844 75.0312 143.492 75.0312C143.281 75.0312 143.176 74.9609 143.176 74.8203C143.176 74.7969 143.399 74.6211 143.844 74.293C144.313 73.9414 144.781 73.4609 145.25 72.8516C145.953 71.9141 146.563 70.8125 147.078 69.5469C146.164 69.6641 145.555 69.7695 145.25 69.8633C145.133 69.8867 145.027 69.9219 144.934 69.9688C144.84 69.9922 144.723 69.9922 144.582 69.9688C144.465 69.9219 144.301 69.8281 144.09 69.6875C143.879 69.5234 143.715 69.3711 143.598 69.2305C143.504 69.0898 143.457 68.9961 143.457 68.9492C143.457 68.832 143.633 68.7734 143.985 68.7734C144.852 68.7734 145.965 68.6797 147.324 68.4922C147.465 67.9531 147.535 67.0859 147.535 65.8906V65.2227C147.535 64.9414 147.594 64.7891 147.711 64.7656C147.735 64.7422 147.781 64.7305 147.852 64.7305C148.039 64.7305 148.297 64.8711 148.625 65.1523C148.883 65.3633 149.047 65.5273 149.117 65.6445C149.211 65.7383 149.223 65.8672 149.152 66.0312C149.129 66.0781 149.082 66.1719 149.012 66.3125C148.942 66.4531 148.895 66.5938 148.871 66.7344C148.848 66.8516 148.801 67.0859 148.731 67.4375C148.66 67.7656 148.613 68.0586 148.59 68.3164C148.918 68.293 149.328 68.2461 149.82 68.1758C150.313 68.1055 150.676 68.0352 150.91 67.9648L151.613 67.7891C151.848 67.7422 152.235 67.9414 152.774 68.3867C152.867 68.457 152.914 68.5391 152.914 68.6328C152.914 68.7266 152.867 68.8086 152.774 68.8789C152.703 68.9258 152.61 68.9492 152.492 68.9492C152.07 68.9492 151.297 69.0195 150.172 69.1602L149.012 69.2656C149.27 69.4531 149.434 69.6172 149.504 69.7578C149.574 69.8984 149.586 70.0391 149.539 70.1797L149.434 70.7422C149.387 71.2109 149.34 71.7266 149.293 72.2891C149.27 72.8516 149.27 73.2852 149.293 73.5898C149.293 73.707 149.363 73.8125 149.504 73.9062C149.668 74 149.832 74.0469 149.996 74.0469C150.582 74.0469 151.238 73.9883 151.965 73.8711L152.281 73.8008C152.422 73.8008 152.539 73.8242 152.633 73.8711ZM159.383 59.1055C159.664 59.1055 159.805 59.2344 159.805 59.4922C159.805 59.6328 159.676 59.832 159.418 60.0898C158.715 60.957 157.32 62.6094 155.235 65.0469C155.07 65.2578 154.918 65.3633 154.777 65.3633C154.66 65.3633 154.402 65.1875 154.004 64.8359C153.676 64.5547 153.512 64.3203 153.512 64.1328C153.512 63.9219 153.688 63.7227 154.039 63.5352C154.578 63.2305 155.387 62.6211 156.465 61.707C157.543 60.7461 158.34 59.9844 158.856 59.4219C159.067 59.2109 159.242 59.1055 159.383 59.1055ZM111.535 80.0586C110.34 80.0586 109.742 79.4609 109.742 78.2656V51.0195C109.742 50.3398 109.953 49.7891 110.375 49.3672C110.797 48.9453 111.348 48.7344 112.027 48.7344H118.039C118.836 48.7344 119.41 48.9805 119.762 49.4727C120.113 49.9648 120.184 50.6797 119.973 51.6172C119.223 54.6875 118.426 57.3828 117.582 59.7031C119.27 61.8828 120.113 64.2383 120.113 66.7695C120.113 68.082 119.938 69.1484 119.586 69.9688C121.414 68.5156 122.809 66.9102 123.77 65.1523H121.731C120.652 65.1523 120.113 64.6016 120.113 63.5C120.113 62.4219 120.652 61.8828 121.731 61.8828H130.449H139.203C140.281 61.8828 140.82 62.4219 140.82 63.5C140.82 64.6016 140.281 65.1523 139.203 65.1523H127.567C127.356 65.6211 127.063 66.1719 126.688 66.8047H138.641C139.508 66.8047 139.906 67.2383 139.836 68.1055V68.2109C139.672 71.5625 139.461 74.0352 139.203 75.6289C138.945 77.1992 138.594 78.2305 138.149 78.7227C137.656 79.332 136.953 79.7422 136.039 79.9531C135.617 80.0234 135.078 80.0586 134.422 80.0586C133.297 80.0586 132.652 79.5547 132.488 78.5469C132.488 78.5 132.477 78.4297 132.453 78.3359C132.43 78.2656 132.406 78.207 132.383 78.1602C132.195 77.6914 132.207 77.3281 132.418 77.0703C132.629 76.8125 133.016 76.707 133.578 76.7539C133.719 76.7539 133.86 76.7539 134 76.7539C134.422 76.7539 134.75 76.6133 134.985 76.332C135.36 75.9102 135.664 74.2578 135.899 71.375C135.922 70.8594 135.887 70.5078 135.793 70.3203C135.699 70.1328 135.524 70.0391 135.266 70.0391H135.16C133.707 73.6484 131.809 76.6016 129.465 78.8984C129.043 79.2734 128.656 79.4609 128.305 79.4609C127.953 79.4609 127.567 79.2734 127.145 78.8984C126.207 78.0781 126.231 77.2461 127.215 76.4023C129.043 74.6445 130.496 72.5234 131.574 70.0391H129.817C128.082 73.2969 125.68 76.0742 122.61 78.3711C121.789 78.957 121.039 78.8633 120.36 78.0898C119.914 77.5742 119.738 77.1172 119.832 76.7188C119.926 76.3203 120.266 75.9336 120.852 75.5586C123.008 74.0117 124.766 72.1719 126.125 70.0391H124.438C123.781 70.8359 123.031 71.5977 122.188 72.3242C121.695 72.6992 121.168 72.8633 120.606 72.8164C120.043 72.7461 119.551 72.4883 119.129 72.043C119.035 71.9492 118.906 71.832 118.742 71.6914C118.602 71.5508 118.496 71.4453 118.426 71.375C117.981 71.6562 117.36 71.8672 116.563 72.0078C116.516 72.0078 116.445 72.0195 116.352 72.043C116.281 72.043 116.223 72.043 116.176 72.043C115.613 72.0664 115.121 71.9023 114.699 71.5508C114.277 71.1992 113.996 70.7305 113.856 70.1445C113.738 69.6523 113.762 69.2656 113.926 68.9844C114.113 68.6797 114.442 68.5391 114.91 68.5625C114.934 68.5625 114.957 68.5625 114.981 68.5625C115.402 68.5156 115.719 68.4102 115.93 68.2461C116.281 67.9883 116.457 67.332 116.457 66.2773C116.457 64.7305 116.024 63.207 115.156 61.707C114.43 60.6289 114.207 59.6562 114.488 58.7891C115.027 56.8672 115.543 54.7578 116.035 52.4609H114.172C113.61 52.4609 113.328 52.7422 113.328 53.3047V78.2656C113.328 79.4609 112.731 80.0586 111.535 80.0586ZM125.141 60.5117C124.461 60.5117 123.91 60.3008 123.488 59.8789C123.067 59.457 122.856 58.9062 122.856 58.2266V50.7734C122.856 50.0938 123.067 49.543 123.488 49.1211C123.91 48.6992 124.461 48.4883 125.141 48.4883H130.625H136.11C136.789 48.4883 137.34 48.6992 137.762 49.1211C138.184 49.543 138.395 50.0938 138.395 50.7734V58.2266C138.395 58.9062 138.184 59.457 137.762 59.8789C137.34 60.3008 136.789 60.5117 136.11 60.5117H125.141ZM127.25 57.5938H130.449H133.578C134.141 57.5938 134.422 57.3125 134.422 56.75V55.8711H126.512V56.8555C126.512 57.3477 126.758 57.5938 127.25 57.5938ZM126.512 53.1289H130.449H134.422V52.1797C134.422 51.6875 134.176 51.4414 133.684 51.4414H127.356C126.793 51.4414 126.512 51.7227 126.512 52.2852V53.1289Z" fill="#F568CC"/>
<path d="M197.352 58.0156C197.328 58.0156 197.246 58.0391 197.106 58.0859C196.988 58.1094 196.93 58.0742 196.93 57.9805C196.93 57.957 196.977 57.9102 197.07 57.8398C197.164 57.7461 197.246 57.6641 197.317 57.5938C197.387 57.5234 197.492 57.4297 197.633 57.3125C197.774 57.1719 197.879 57.0312 197.949 56.8906C198.301 56.3047 198.547 55.7188 198.688 55.1328L198.899 53.9023C199.063 52.9883 199.133 51.9219 199.11 50.7031C199.11 50.4219 199.074 50.1289 199.004 49.8242C198.981 49.6836 198.863 49.4844 198.652 49.2266V49.1914C198.652 49.1445 198.711 49.1211 198.828 49.1211C198.992 49.1211 199.133 49.1328 199.25 49.1562C199.555 49.2266 199.895 49.2617 200.27 49.2617C200.668 49.2383 200.914 49.2266 201.008 49.2266L203.363 49.0508C203.832 49.0039 204.137 48.9805 204.277 48.9805C205.285 48.8398 205.742 48.7812 205.649 48.8047C206.188 48.7109 206.516 48.6641 206.633 48.6641C207.008 48.6875 207.383 48.9805 207.758 49.543L207.828 49.7188C207.828 49.8594 207.723 49.9414 207.512 49.9648C207.301 49.9883 207.172 50 207.125 50C206.399 50 205.86 50.0117 205.508 50.0352C204.617 50.0352 203.961 50.0469 203.539 50.0703L202.555 50.1406L200.551 50.3516C200.41 52.3203 200.281 53.6094 200.164 54.2188C199.977 55.3203 199.613 56.2109 199.074 56.8906C198.676 57.4062 198.102 57.7812 197.352 58.0156ZM206.211 67.9648C205.86 67.9648 205.52 67.707 205.192 67.1914C204.77 66.5352 204.36 65.9961 203.961 65.5742L203.047 64.625C202.555 65.1875 202.121 65.6328 201.746 65.9609C201.395 66.2891 200.949 66.6055 200.41 66.9102C199.402 67.4961 198.559 67.7891 197.879 67.7891C197.715 67.7891 197.633 67.7305 197.633 67.6133C197.633 67.543 197.856 67.3906 198.301 67.1562C198.746 66.9219 199.168 66.6406 199.567 66.3125C200.574 65.4688 201.406 64.6016 202.063 63.7109C201.922 63.5703 201.219 62.9609 199.953 61.8828C199.789 61.7656 199.543 61.5664 199.215 61.2852C199.145 61.2383 199.004 61.1328 198.793 60.9688C198.582 60.8047 198.477 60.6875 198.477 60.6172C198.477 60.5 198.535 60.4414 198.652 60.4414C199.004 60.4414 199.567 60.6875 200.34 61.1797C201.113 61.6484 201.922 62.2109 202.766 62.8672C203.094 62.4688 203.352 62.0938 203.539 61.7422C203.727 61.3906 203.938 60.957 204.172 60.4414C204.289 60.1836 204.36 59.9609 204.383 59.7734C204.406 59.5625 204.418 59.4336 204.418 59.3867C204.418 59.1289 204.488 59 204.629 59C204.793 59 205.016 59.1289 205.297 59.3867C205.789 59.8555 206.035 60.1719 206.035 60.3359C206.035 60.4297 205.977 60.5352 205.86 60.6523C205.578 60.9336 205.32 61.3086 205.086 61.7773C204.945 62.0586 204.688 62.457 204.313 62.9727C204.195 63.1133 204.102 63.2422 204.031 63.3594C203.961 63.4766 203.891 63.582 203.82 63.6758C204.36 64.0742 205.156 64.7539 206.211 65.7148C206.469 65.9492 206.633 66.1719 206.703 66.3828C206.797 66.5703 206.844 66.8281 206.844 67.1562C206.844 67.3906 206.785 67.5898 206.668 67.7539C206.551 67.8945 206.399 67.9648 206.211 67.9648ZM202.66 79.1445C202.496 79.1445 202.379 79.0977 202.309 79.0039C202.238 78.9102 202.192 78.8516 202.168 78.8281C201.934 78.5 201.828 78.1836 201.852 77.8789C201.875 77.6914 201.91 77.1875 201.957 76.3672L201.992 74.6797C201.969 74.4219 201.945 74.2695 201.922 74.2227C201.899 74.1523 201.793 74.0117 201.606 73.8008C201.231 73.332 200.797 72.8516 200.305 72.3594C199.742 71.7969 199.379 71.4219 199.215 71.2344C199.215 71.2344 198.863 70.8828 198.16 70.1797C198.09 70.1094 198.055 70.0391 198.055 69.9688C198.055 69.8516 198.125 69.7578 198.266 69.6875C198.43 69.5938 198.594 69.5586 198.758 69.582C199.227 69.6289 199.531 69.6875 199.672 69.7578C199.836 69.8047 199.988 69.9453 200.129 70.1797C200.27 70.4141 200.469 70.6953 200.727 71.0234C201.008 71.3281 201.219 71.5625 201.36 71.7266C201.945 72.4297 202.356 72.8984 202.59 73.1328C203.012 72.6406 203.539 71.9375 204.172 71.0234C204.688 70.3672 204.992 69.8281 205.086 69.4062C205.18 69.1016 205.32 68.9492 205.508 68.9492C205.602 68.9492 205.742 69.0078 205.93 69.125C206.539 69.5 206.844 69.8047 206.844 70.0391C206.844 70.1797 206.692 70.3555 206.387 70.5664C205.965 70.8711 205.613 71.2109 205.332 71.5859L204.629 72.4648C204.16 73.0273 203.809 73.4727 203.574 73.8008C203.457 74.0117 203.399 74.3164 203.399 74.7148V76.8594V78.2656C203.422 78.4297 203.328 78.6172 203.117 78.8281C202.93 79.0391 202.777 79.1445 202.66 79.1445ZM213.383 62.9727C213.664 62.9727 213.805 63.1016 213.805 63.3594C213.805 63.5 213.676 63.6992 213.418 63.957C212.715 64.8242 211.32 66.4766 209.235 68.9141C209.07 69.125 208.918 69.2305 208.777 69.2305C208.66 69.2305 208.402 69.0547 208.004 68.7031C207.676 68.4219 207.512 68.1875 207.512 68C207.512 67.7891 207.688 67.5898 208.039 67.4023C208.578 67.0977 209.387 66.4883 210.465 65.5742C211.543 64.6133 212.34 63.8516 212.856 63.2891C213.067 63.0781 213.242 62.9727 213.383 62.9727ZM178.473 80.0586C177.113 80.0586 176.434 79.3906 176.434 78.0547V75.9102H165.078C163.883 75.9102 163.285 75.3125 163.285 74.1172C163.285 72.9219 163.883 72.3242 165.078 72.3242H176.434V70.2852H166.801C165.676 70.2852 165.113 69.7109 165.113 68.5625C165.113 67.4375 165.676 66.875 166.801 66.875H168.981V64.6602H164.551C163.402 64.6602 162.828 64.0742 162.828 62.9023C162.828 61.7539 163.402 61.1797 164.551 61.1797H168.981V59.0703H167.152C166.027 59.0703 165.465 58.4961 165.465 57.3477C165.465 56.2227 166.027 55.6602 167.152 55.6602H178.684H190.215C191.34 55.6602 191.902 56.2227 191.902 57.3477C191.902 58.4961 191.34 59.0703 190.215 59.0703H188.141V61.1797H192.57C193.719 61.1797 194.293 61.7539 194.293 62.9023C194.293 64.0742 193.719 64.6602 192.57 64.6602H188.141V66.875H190.672C191.797 66.875 192.36 67.4375 192.36 68.5625C192.36 69.7109 191.797 70.2852 190.672 70.2852H180.477V72.3242H192.219C193.414 72.3242 194.012 72.9219 194.012 74.1172C194.012 75.3125 193.414 75.9102 192.219 75.9102H180.477V78.0547C180.477 79.3906 179.809 80.0586 178.473 80.0586ZM172.848 66.875H176.434V64.6602H174.641H172.848V66.875ZM180.477 66.875H182.375H184.309V64.6602H180.477V66.875ZM172.848 61.1797H176.434V59.0703H174.641H172.848V61.1797ZM180.477 61.1797H182.375H184.309V59.0703H180.477V61.1797ZM172.461 54.8516C171.102 54.8516 170.422 54.2188 170.422 52.9531V52.8828H164.973C163.754 52.8828 163.145 52.2617 163.145 51.0195C163.145 49.8008 163.754 49.1914 164.973 49.1914H170.422V49.1211C170.422 48.5117 170.598 48.0547 170.949 47.75C171.324 47.4219 171.828 47.2578 172.461 47.2578C173.797 47.2578 174.465 47.8789 174.465 49.1211V49.1914H182.481V49.1211C182.481 48.5117 182.656 48.0547 183.008 47.75C183.383 47.4219 183.887 47.2578 184.52 47.2578C185.856 47.2578 186.524 47.8789 186.524 49.1211V49.1914H192.184C193.402 49.1914 194.012 49.8008 194.012 51.0195C194.012 52.2617 193.402 52.8828 192.184 52.8828H186.524V52.9531C186.524 54.2188 185.856 54.8516 184.52 54.8516C183.16 54.8516 182.481 54.2188 182.481 52.9531V52.8828H178.473H174.465V52.9531C174.465 54.2188 173.797 54.8516 172.461 54.8516Z" fill="#F568CC"/>
<path d="M260.211 61.9883C259.86 61.9883 259.52 61.7305 259.192 61.2148C258.77 60.5586 258.36 60.0195 257.961 59.5977L257.047 58.6484C256.555 59.2109 256.121 59.6562 255.746 59.9844C255.395 60.3125 254.949 60.6289 254.41 60.9336C253.402 61.5195 252.559 61.8125 251.879 61.8125C251.715 61.8125 251.633 61.7539 251.633 61.6367C251.633 61.5664 251.856 61.4141 252.301 61.1797C252.746 60.9453 253.168 60.6641 253.567 60.3359C254.574 59.4922 255.406 58.625 256.063 57.7344C255.922 57.5938 255.219 56.9844 253.953 55.9062C253.789 55.7891 253.543 55.5898 253.215 55.3086C253.145 55.2617 253.004 55.1562 252.793 54.9922C252.582 54.8281 252.477 54.7109 252.477 54.6406C252.477 54.5234 252.535 54.4648 252.652 54.4648C253.004 54.4648 253.567 54.7109 254.34 55.2031C255.113 55.6719 255.922 56.2344 256.766 56.8906C257.094 56.4922 257.352 56.1172 257.539 55.7656C257.727 55.4141 257.938 54.9805 258.172 54.4648C258.289 54.207 258.36 53.9844 258.383 53.7969C258.406 53.5859 258.418 53.457 258.418 53.4102C258.418 53.1523 258.488 53.0234 258.629 53.0234C258.793 53.0234 259.016 53.1523 259.297 53.4102C259.789 53.8789 260.035 54.1953 260.035 54.3594C260.035 54.4531 259.977 54.5586 259.86 54.6758C259.578 54.957 259.32 55.332 259.086 55.8008C258.945 56.082 258.688 56.4805 258.313 56.9961C258.195 57.1367 258.102 57.2656 258.031 57.3828C257.961 57.5 257.891 57.6055 257.82 57.6992C258.36 58.0977 259.156 58.7773 260.211 59.7383C260.469 59.9727 260.633 60.1953 260.703 60.4062C260.797 60.5938 260.844 60.8516 260.844 61.1797C260.844 61.4141 260.785 61.6133 260.668 61.7773C260.551 61.918 260.399 61.9883 260.211 61.9883ZM260.844 68.7383C261.102 69.0195 261.231 69.2539 261.231 69.4414C261.231 69.6055 261.137 69.7578 260.949 69.8984C260.832 69.9922 260.539 70.5078 260.07 71.4453C259.555 72.2891 258.981 73.0273 258.348 73.6602C257.738 74.2695 257.129 74.7148 256.52 74.9961C256.379 75.043 256.262 75.0664 256.168 75.0664C256.074 75.0664 256.027 75.043 256.027 74.9961V74.9258C256.027 74.7852 256.145 74.6211 256.379 74.4336C256.801 74.1055 257.117 73.7773 257.328 73.4492C257.563 73.0977 257.738 72.8398 257.856 72.6758C258.348 71.9727 258.699 71.3984 258.91 70.9531C259.145 70.5547 259.309 70.1445 259.402 69.7227H259.262C258.652 69.7227 257.668 69.793 256.309 69.9336C256.098 69.957 255.488 70.0391 254.481 70.1797C254.27 70.2031 253.942 70.2617 253.496 70.3555L253.074 70.4609C252.981 70.5078 252.887 70.5312 252.793 70.5312C252.676 70.5312 252.559 70.5078 252.442 70.4609C252.324 70.3906 252.207 70.3086 252.09 70.2148C251.809 69.9805 251.668 69.7812 251.668 69.6172C251.692 69.5703 251.715 69.5 251.738 69.4062C251.785 69.3125 251.809 69.2305 251.809 69.1602L251.985 68C252.008 67.8828 252.031 67.7539 252.055 67.6133C252.078 67.4727 252.09 67.332 252.09 67.1914C252.09 66.7461 252.078 66.3945 252.055 66.1367C252.055 65.8555 252.02 65.5625 251.949 65.2578V65.1523C251.949 64.9883 252.02 64.9062 252.16 64.9062C252.301 64.9062 252.547 65.0117 252.899 65.2227C253.367 65.5508 253.602 65.8086 253.602 65.9961C253.602 66.0664 253.59 66.125 253.567 66.1719C253.543 66.2188 253.52 66.2656 253.496 66.3125C253.426 66.7344 253.391 66.9688 253.391 67.0156L253.215 68.8789C253.215 68.9258 253.238 68.9844 253.285 69.0547C253.356 69.1016 253.426 69.125 253.496 69.125C254.059 69.125 255.324 68.9844 257.293 68.7031C258.067 68.6328 258.617 68.5508 258.945 68.457C259.156 68.4336 259.332 68.3984 259.473 68.3516C259.637 68.2812 259.742 68.2461 259.789 68.2461C259.93 68.1992 260.024 68.1758 260.07 68.1758C260.281 68.1758 260.539 68.3633 260.844 68.7383ZM267.383 59.1055C267.664 59.1055 267.805 59.2344 267.805 59.4922C267.805 59.6328 267.676 59.832 267.418 60.0898C266.715 60.957 265.32 62.6094 263.235 65.0469C263.07 65.2578 262.918 65.3633 262.777 65.3633C262.66 65.3633 262.402 65.1875 262.004 64.8359C261.676 64.5547 261.512 64.3203 261.512 64.1328C261.512 63.9219 261.688 63.7227 262.039 63.5352C262.578 63.2305 263.387 62.6211 264.465 61.707C265.543 60.7461 266.34 59.9844 266.856 59.4219C267.067 59.2109 267.242 59.1055 267.383 59.1055ZM221.047 79.3906C219.547 79.9062 218.434 79.5898 217.707 78.4414C216.723 76.8945 217.274 75.793 219.36 75.1367C223.18 73.8242 226.461 72.1133 229.203 70.0039C226.227 66.5586 223.754 62.1758 221.785 56.8555H218.867C217.508 56.8555 216.828 56.1758 216.828 54.8164C216.828 53.457 217.508 52.7773 218.867 52.7773H230.469V49.2969C230.469 47.9141 231.172 47.2227 232.578 47.2227C233.961 47.2227 234.652 47.9141 234.652 49.2969V52.7773H241.543H246.43C247.789 52.7773 248.469 53.457 248.469 54.8164C248.469 56.1758 247.789 56.8555 246.43 56.8555H243.477C241.602 61.9883 239.059 66.3125 235.848 69.8281C238.684 72.0078 241.906 73.6953 245.516 74.8906C247.93 75.5469 248.527 76.7305 247.309 78.4414C246.535 79.543 245.375 79.8594 243.828 79.3906C239.375 77.9375 235.555 75.8516 232.367 73.1328C229.156 75.7109 225.383 77.7969 221.047 79.3906ZM232.613 66.875C235.121 64.1094 237.113 60.7695 238.59 56.8555H232.508H226.426C227.879 60.6992 229.942 64.0391 232.613 66.875Z" fill="#F568CC"/>
<path d="M311.223 62.7969C310.848 62.7969 310.613 62.6914 310.52 62.4805C310.402 62.1992 310.285 61.9648 310.168 61.7773C310.051 61.5664 309.84 61.3203 309.535 61.0391L309.606 60.8984C310.449 61.2031 311 61.3555 311.258 61.3555C311.445 61.3555 311.586 61.3203 311.68 61.25C311.774 61.1797 311.926 61.0156 312.137 60.7578C312.442 60.4297 312.723 59.9258 312.981 59.2461C313.332 58.2383 313.555 57.1953 313.649 56.1172V56.0117C313.649 55.8711 313.625 55.7773 313.578 55.7305C313.274 55.7305 312.465 55.8008 311.152 55.9414C310.426 57.7461 309.582 59.2344 308.621 60.4062C307.684 61.5547 306.828 62.1289 306.055 62.1289C305.867 62.1289 305.774 62.0586 305.774 61.918C305.774 61.8711 306.008 61.6016 306.477 61.1094C306.945 60.6172 307.461 59.9727 308.024 59.1758C308.61 58.3555 309.16 57.3477 309.676 56.1523C309.559 56.1523 309.219 56.1758 308.656 56.2227C308.094 56.2695 307.613 56.3516 307.215 56.4688C307.027 56.6094 306.828 56.6328 306.617 56.5391C306.617 56.5391 306.594 56.5273 306.547 56.5039C306.5 56.4805 306.453 56.4453 306.406 56.3984C306.242 56.3047 306.102 56.1875 305.985 56.0469C305.891 55.8828 305.844 55.7305 305.844 55.5898C305.844 55.5195 305.902 55.4258 306.02 55.3086L306.442 54.7461C306.582 54.5586 306.711 54.2891 306.828 53.9375C306.945 53.5625 307.004 53.2461 307.004 52.9883C307.004 52.8242 306.992 52.7188 306.969 52.6719C306.945 52.625 306.934 52.5664 306.934 52.4961C306.934 52.3789 306.992 52.3203 307.11 52.3203C307.25 52.3203 307.449 52.4023 307.707 52.5664C307.777 52.6133 307.906 52.707 308.094 52.8477C308.305 52.9648 308.422 53.1055 308.445 53.2695C308.445 53.4336 308.352 53.7031 308.164 54.0781L307.707 54.8867C307.66 54.957 307.637 55.0391 307.637 55.1328C307.637 55.2031 307.66 55.2617 307.707 55.3086C307.777 55.332 307.86 55.332 307.953 55.3086L310.063 55.0273C310.297 54.418 310.485 53.7734 310.625 53.0938V52.8828V52.2852C310.625 52.0273 310.695 51.9219 310.836 51.9688C311.141 52.0391 311.387 52.1328 311.574 52.25C311.926 52.4609 312.102 52.6367 312.102 52.7773C312.102 52.8945 312.055 53.0938 311.961 53.375C311.891 53.6328 311.832 53.832 311.785 53.9727C311.762 54.0664 311.656 54.3711 311.469 54.8867C311.539 54.8867 311.973 54.8398 312.77 54.7461L313.121 54.6758C313.192 54.6758 313.32 54.6523 313.508 54.6055C313.555 54.582 313.613 54.5703 313.684 54.5703C313.965 54.5703 314.141 54.582 314.211 54.6055C314.305 54.6289 314.445 54.6992 314.633 54.8164C314.844 54.957 314.985 55.0977 315.055 55.2383C315.125 55.3789 315.149 55.543 315.125 55.7305L314.914 56.8906L314.668 58.1562C314.668 58.25 314.586 58.5547 314.422 59.0703C314.258 59.5859 314.07 60.043 313.86 60.4414C313.461 61.2383 312.992 61.8359 312.453 62.2344C311.985 62.6094 311.574 62.7969 311.223 62.7969ZM310.766 75.2422C309.641 75.2422 308.703 74.9609 307.953 74.3984C307.18 73.7656 306.793 73.0273 306.793 72.1836C306.793 71.5273 307.039 70.9531 307.531 70.4609C308.164 69.9219 308.961 69.6523 309.922 69.6523C309.969 69.6523 310.004 69.6055 310.027 69.5117C310.074 69.3945 310.098 69.2422 310.098 69.0547L310.133 68.1406C309.969 68.1641 309.652 68.1992 309.184 68.2461C308.738 68.293 308.41 68.3398 308.199 68.3867C308.317 68.3633 307.953 68.4453 307.11 68.6328C307.039 68.6562 306.91 68.668 306.723 68.668C306.277 68.668 305.902 68.4688 305.598 68.0703C305.457 67.9297 305.387 67.8125 305.387 67.7188C305.387 67.5781 305.598 67.5078 306.02 67.5078L307.11 67.4375L310.098 67.0508V66.6289V65.75C310.074 65.6562 310.063 65.5508 310.063 65.4336C310.063 65.3164 310.051 65.2227 310.027 65.1523C309.981 64.9648 309.957 64.8477 309.957 64.8008C309.957 64.6367 310.039 64.5547 310.203 64.5547C310.414 64.5547 310.777 64.707 311.293 65.0117C311.457 65.1055 311.539 65.2344 311.539 65.3984C311.539 65.5156 311.516 65.6211 311.469 65.7148C311.445 65.7852 311.434 65.8672 311.434 65.9609V66.9453L312.488 66.8398L313.789 66.6992C313.906 66.6758 314.035 66.6406 314.176 66.5938C314.34 66.5469 314.469 66.5234 314.563 66.5234C314.703 66.5234 314.879 66.5938 315.09 66.7344C315.488 66.9922 315.688 67.2148 315.688 67.4023C315.688 67.5898 315.488 67.6836 315.09 67.6836C314.973 67.6836 314.809 67.707 314.598 67.7539C314.387 67.7773 314.117 67.8008 313.789 67.8242L311.434 68L311.399 70.1445C311.352 70.4961 311.094 70.7188 310.625 70.8125H310.555C310.414 70.8125 310.274 70.8008 310.133 70.7773C310.016 70.7305 309.922 70.707 309.852 70.707C309.664 70.707 309.477 70.7188 309.289 70.7422C309.102 70.7656 308.938 70.8359 308.797 70.9531C308.399 71.3047 308.199 71.7148 308.199 72.1836C308.199 72.6523 308.422 73.0742 308.867 73.4492C309.266 73.8242 309.899 74.0117 310.766 74.0117C311.914 73.9648 312.852 73.6484 313.578 73.0625C313.883 72.8516 314.117 72.7461 314.281 72.7461C314.375 72.7461 314.492 72.7695 314.633 72.8164C314.656 72.8398 314.703 72.8867 314.774 72.957C314.844 73.0273 314.879 73.0977 314.879 73.168C314.879 73.8242 314.328 74.3633 313.227 74.7852C312.406 75.0898 311.586 75.2422 310.766 75.2422ZM316.883 61.918C317 61.918 317.176 62 317.41 62.1641C317.387 62.2109 317.434 62.3047 317.551 62.4453C317.668 62.5625 317.75 62.6445 317.797 62.6914C317.914 62.8086 318.031 62.9492 318.149 63.1133C318.289 63.2773 318.442 63.4531 318.606 63.6406C319.027 64.0859 320 65.2461 321.524 67.1211C321.781 67.4961 321.91 67.7188 321.91 67.7891C321.91 68.0234 321.77 68.1406 321.488 68.1406C321.324 68.1406 321.149 68.0234 320.961 67.7891C320.516 67.3203 319.719 66.582 318.57 65.5742C317.68 64.7539 316.871 64.1211 316.145 63.6758C315.793 63.5117 315.617 63.3242 315.617 63.1133C315.617 62.9492 315.793 62.7148 316.145 62.4102C316.473 62.082 316.719 61.918 316.883 61.918ZM286.543 79.9883C285.16 79.9883 284.469 79.2969 284.469 77.9141V72.5703C281.82 75.2188 278.586 77.3867 274.766 79.0742C273.617 79.543 272.668 79.3203 271.918 78.4062C271.309 77.6562 271.121 77.0234 271.356 76.5078C271.543 76.0391 272.117 75.6406 273.078 75.3125C276.219 74.0703 278.879 72.5586 281.059 70.7773H272.902C271.707 70.7773 271.11 70.168 271.11 68.9492C271.11 67.7539 271.707 67.1562 272.902 67.1562H284.469V64.9414H281.832V65.0117C281.856 65.0586 281.809 65.1172 281.692 65.1875C281.082 65.4219 280.508 65.4922 279.969 65.3984C279.313 65.3047 278.949 65 278.879 64.4844C278.879 64.4609 278.879 64.4375 278.879 64.4141L272.902 65.2227C271.731 65.4102 271.086 64.8945 270.969 63.6758C270.852 62.5977 271.32 62.0234 272.375 61.9531H272.445C273.266 60.8047 274.016 59.6562 274.695 58.5078C273.945 57.7109 273.031 56.8438 271.953 55.9062C271.602 55.6016 271.438 55.168 271.461 54.6055C271.485 54.0898 271.637 53.5977 271.918 53.1289C272.059 52.8945 272.235 52.7188 272.445 52.6016C272.656 52.4609 272.856 52.4609 273.043 52.6016L273.113 52.6367C273.582 51.7227 274.098 50.5156 274.66 49.0156C275.035 47.9844 275.738 47.6562 276.77 48.0312C277.848 48.4062 278.141 49.1562 277.649 50.2812C276.899 51.8281 276.149 53.2344 275.399 54.5C275.797 54.8047 276.149 55.1211 276.453 55.4492C276.735 54.9336 277.016 54.3828 277.297 53.7969C277.742 52.8125 278.469 52.5195 279.477 52.918C280.578 53.3633 280.836 54.1016 280.25 55.1328C280.203 55.2266 280.121 55.3672 280.004 55.5547C278.973 57.2891 278.188 58.5664 277.649 59.3867L278.949 58.9648C279.699 58.7539 280.203 58.9883 280.461 59.668C280.742 60.418 281.035 61.3672 281.34 62.5156V52.8125C281.34 52.1328 281.551 51.582 281.973 51.1602C282.395 50.7383 282.945 50.5273 283.625 50.5273H284.328C284.375 50.3867 284.422 50.1875 284.469 49.9297C284.539 49.6719 284.586 49.4844 284.61 49.3672C284.703 48.6406 284.926 48.125 285.277 47.8203C285.629 47.4922 286.168 47.3633 286.895 47.4336C287.692 47.5273 288.184 47.7852 288.371 48.207C288.582 48.6055 288.547 49.1914 288.266 49.9648C288.242 50.0117 288.207 50.1055 288.16 50.2461C288.137 50.3633 288.113 50.457 288.09 50.5273H290.094C290.633 50.5273 291.055 50.6914 291.36 51.0195C291.688 51.3242 291.852 51.7461 291.852 52.2852V53.3398L292.414 52.5664C292.672 52.1914 292.988 52.1562 293.363 52.4609L293.434 52.5312C294.09 51.2422 294.629 50.0586 295.051 48.9805C295.426 47.9492 296.129 47.6211 297.16 47.9961C298.238 48.3945 298.508 49.1445 297.969 50.2461C297.055 52.0742 296.281 53.5156 295.649 54.5703C295.766 54.6875 295.93 54.8633 296.141 55.0977C296.375 55.332 296.539 55.4961 296.633 55.5898C296.82 55.2617 297.067 54.793 297.371 54.1836C297.442 54.0195 297.5 53.9023 297.547 53.832C298.016 52.8711 298.754 52.6016 299.762 53.0234C300.84 53.4922 301.074 54.2539 300.465 55.3086C300.113 55.8711 299.574 56.7383 298.848 57.9102C298.496 58.4961 298.227 58.9297 298.039 59.2109L299.375 58.7188C300.102 58.4609 300.617 58.6836 300.922 59.3867C301.578 61.0273 302.094 62.5977 302.469 64.0977C302.563 64.5195 302.516 64.8477 302.328 65.082C302.164 65.3164 301.871 65.5156 301.449 65.6797C300.371 66.125 299.703 65.7617 299.445 64.5898C299.445 64.5664 299.445 64.543 299.445 64.5195C298.719 64.6133 297.652 64.7422 296.246 64.9062C294.324 65.1172 292.918 65.2812 292.027 65.3984C291.793 65.4453 291.652 65.3281 291.606 65.0469V64.9414H288.617V67.1562H295.332H300.289C301.485 67.1562 302.082 67.7539 302.082 68.9492C302.082 70.168 301.485 70.7773 300.289 70.7773H291.992C294.266 72.5117 296.949 73.9414 300.043 75.0664C301.004 75.3711 301.59 75.7578 301.801 76.2266C302.012 76.7422 301.824 77.375 301.238 78.125C300.863 78.6172 300.453 78.9102 300.008 79.0039C299.586 79.1211 299.07 79.0742 298.461 78.8633C294.735 77.3398 291.453 75.2773 288.617 72.6758V77.9141C288.617 79.2969 287.926 79.9883 286.543 79.9883ZM291.852 61.918L292.695 61.8828C293.281 61.1094 294.008 60.0312 294.875 58.6484C294.055 57.6406 293.047 56.5859 291.852 55.4844V58.7188V61.918ZM284.785 61.8125H288.301V59.1758H286.543H284.785V61.8125ZM276.102 61.6719L278.141 61.4961C278.094 61.332 278.012 61.0742 277.895 60.7227C277.754 60.1836 277.637 59.7969 277.543 59.5625C277.309 59.9609 277.074 60.3242 276.84 60.6523C276.77 60.7695 276.652 60.9453 276.488 61.1797C276.324 61.3906 276.195 61.5547 276.102 61.6719ZM296.317 61.6719L298.602 61.5312C298.274 60.5938 298.027 59.9023 297.863 59.457C297.746 59.668 297.547 59.9609 297.266 60.3359C297.195 60.4531 297.137 60.5352 297.09 60.582C296.832 60.9805 296.574 61.3438 296.317 61.6719ZM284.785 56.2578H286.543H288.301V54.5C288.301 53.9375 288.02 53.6562 287.457 53.6562H285.629C285.067 53.6562 284.785 53.9375 284.785 54.5V56.2578Z" fill="#F568CC"/>
<path d="M361.426 60.8633C360.652 60.582 360.289 60.2773 360.336 59.9492C360.477 58.9648 360.547 57.8398 360.547 56.5742C360.547 56.0117 360.535 55.6016 360.512 55.3438C360.488 55.0391 360.465 54.7812 360.442 54.5703C360.418 54.3359 360.418 54.207 360.442 54.1836C360.535 54.0898 360.652 54.043 360.793 54.043C361.004 54.043 361.262 54.1367 361.567 54.3242C361.895 54.5117 362.059 54.6992 362.059 54.8867C362.059 55.0039 362.047 55.1211 362.024 55.2383C362 55.332 361.988 55.4375 361.988 55.5547L361.777 59.0352C361.777 59.2227 361.848 59.3398 361.988 59.3867H362.164C362.352 59.3867 362.481 59.375 362.551 59.3516L367.086 58.7188V57.8047C367.086 56.6562 367.063 55.7656 367.016 55.1328C366.992 54.5938 366.934 54.1602 366.84 53.832C366.77 53.457 366.863 53.2695 367.121 53.2695C367.309 53.2695 367.555 53.3398 367.86 53.4805C368.235 53.668 368.457 53.832 368.527 53.9727C368.598 54.0898 368.621 54.2773 368.598 54.5352C368.551 54.957 368.527 55.5898 368.527 56.4336L368.563 59.1055C368.563 59.668 368.457 60.1133 368.246 60.4414C368.129 60.582 368.012 60.6523 367.895 60.6523C367.777 60.6523 367.613 60.5469 367.402 60.3359C367.356 60.2891 367.297 60.2188 367.227 60.125C367.156 60.0312 367.086 59.9727 367.016 59.9492C366.945 59.9258 366.852 59.9141 366.735 59.9141C366.195 59.9609 364.895 60.1367 362.832 60.4414C362.481 60.4883 362.199 60.582 361.988 60.7227C361.754 60.8398 361.602 60.8984 361.531 60.8984L361.426 60.8633ZM365.891 68.4219C365.656 68.7266 365.41 68.8789 365.152 68.8789C365.082 68.8789 365.047 68.8203 365.047 68.7031C365.047 68.5391 365.094 68.3516 365.188 68.1406C365.188 68.1406 365.422 67.6719 365.891 66.7344C365.914 66.6406 365.949 66.5469 365.996 66.4531C366.043 66.3594 366.078 66.2773 366.102 66.207V66.1719C366.102 66.125 366.067 66.0781 365.996 66.0312C365.926 65.9844 365.844 65.9727 365.75 65.9961C365.375 66.0195 364.813 66.0781 364.063 66.1719C363.336 66.2656 362.797 66.3594 362.445 66.4531C362.305 66.5 362.129 66.5586 361.918 66.6289C361.731 66.6992 361.578 66.7344 361.461 66.7344C361.039 66.7344 360.688 66.6055 360.406 66.3477C360.172 66.1836 359.996 66.0195 359.879 65.8555L359.809 65.6797C359.809 65.5625 360.008 65.5273 360.406 65.5742C360.945 65.6211 362.059 65.5508 363.746 65.3633L364.449 65.2578C364.637 65.2344 364.93 65.1992 365.328 65.1523C365.75 65.082 366.078 65.0117 366.313 64.9414C366.383 64.918 366.453 64.8945 366.524 64.8711C366.617 64.8242 366.699 64.8008 366.77 64.8008C366.887 64.8008 367.027 64.8594 367.192 64.9766C367.379 65.0938 367.531 65.1992 367.649 65.293C367.813 65.4102 367.918 65.5156 367.965 65.6094C368.035 65.6797 368.059 65.7734 368.035 65.8906C368.035 66.0078 367.977 66.1133 367.86 66.207C367.742 66.3008 367.66 66.3711 367.613 66.418C367.567 66.4883 367.402 66.6641 367.121 66.9453C367.004 67.1328 366.793 67.3906 366.488 67.7188C366.207 68.0469 366.008 68.2812 365.891 68.4219ZM364.133 75.3477C364.133 75.2773 364.25 75.1016 364.485 74.8203C364.742 74.5156 364.942 74.2812 365.082 74.1172C365.434 73.6484 365.856 72.9688 366.348 72.0781C366.863 71.1875 367.156 70.6016 367.227 70.3203C367.274 70.1797 367.203 70.1094 367.016 70.1094C366.641 70.1094 365.61 70.2148 363.922 70.4258C362.82 70.5664 362 70.707 361.461 70.8477C361.344 70.918 361.227 70.9531 361.11 70.9531C360.922 70.9531 360.723 70.8242 360.512 70.5664C360.418 70.4023 360.371 70.25 360.371 70.1094C360.371 70.0156 360.43 69.9219 360.547 69.8281L360.652 69.6875C360.723 69.5469 360.805 69.3594 360.899 69.125C360.992 68.8906 361.074 68.668 361.145 68.457C361.262 68.082 361.344 67.6719 361.391 67.2266C361.414 66.9688 361.555 66.8984 361.813 67.0156C362.141 67.1797 362.387 67.3438 362.551 67.5078C362.738 67.6484 362.797 67.7539 362.727 67.8242C362.492 68.1055 362.305 68.4219 362.164 68.7734C362.047 69.1484 361.977 69.3945 361.953 69.5117C361.953 69.6055 362.012 69.6523 362.129 69.6523C362.481 69.6523 363.008 69.5938 363.711 69.4766C364.11 69.4297 364.602 69.3711 365.188 69.3008C365.774 69.2305 366.242 69.1602 366.594 69.0898L367.473 68.9141C367.543 68.8906 367.637 68.8789 367.754 68.8789C367.871 68.8789 367.988 68.9258 368.106 69.0195C368.223 69.0898 368.352 69.1836 368.492 69.3008C368.727 69.5117 368.879 69.6875 368.949 69.8281C369.02 69.9453 369.055 70.0859 369.055 70.25C369.055 70.3438 368.985 70.4609 368.844 70.6016C368.727 70.7422 368.586 70.9648 368.422 71.2695C367.742 72.6523 366.863 73.8125 365.785 74.75C365.481 74.9844 365.141 75.1836 364.766 75.3477C364.602 75.3945 364.449 75.4297 364.309 75.4531C364.192 75.4531 364.133 75.418 364.133 75.3477ZM375.383 59.1055C375.664 59.1055 375.805 59.2344 375.805 59.4922C375.805 59.6328 375.676 59.832 375.418 60.0898C374.715 60.957 373.32 62.6094 371.235 65.0469C371.07 65.2578 370.918 65.3633 370.777 65.3633C370.66 65.3633 370.402 65.1875 370.004 64.8359C369.676 64.5547 369.512 64.3203 369.512 64.1328C369.512 63.9219 369.688 63.7227 370.039 63.5352C370.578 63.2305 371.387 62.6211 372.465 61.707C373.543 60.7461 374.34 59.9844 374.856 59.4219C375.067 59.2109 375.242 59.1055 375.383 59.1055ZM327.992 78.793C327.313 78.793 326.762 78.582 326.34 78.1602C325.918 77.7383 325.707 77.1875 325.707 76.5078V50.8438C325.707 50.1641 325.918 49.6133 326.34 49.1914C326.762 48.7695 327.313 48.5586 327.992 48.5586H340.543H353.129C353.809 48.5586 354.36 48.7695 354.781 49.1914C355.203 49.6133 355.414 50.1641 355.414 50.8438V76.5078C355.414 77.1875 355.203 77.7383 354.781 78.1602C354.36 78.582 353.809 78.793 353.129 78.793H327.992ZM330.453 75.0664H350.527C351.09 75.0664 351.371 74.7852 351.371 74.2227V53.1641C351.371 52.6016 351.09 52.3203 350.527 52.3203H340.473H330.453C329.891 52.3203 329.61 52.6016 329.61 53.1641V74.2227C329.61 74.7852 329.891 75.0664 330.453 75.0664ZM349.649 73.2734C349.11 73.9766 348.36 74.1523 347.399 73.8008C345.266 72.9102 343.402 71.7617 341.809 70.3555V72.5C341.809 73.6953 341.211 74.293 340.016 74.293C338.797 74.293 338.188 73.6953 338.188 72.5V70.6367C336.641 71.5977 335.117 72.3828 333.617 72.9922C332.703 73.3672 331.942 73.2031 331.332 72.5C330.863 71.9141 330.711 71.4336 330.875 71.0586C331.016 70.7305 331.473 70.4375 332.246 70.1797C334.59 69.2891 336.524 68.3047 338.047 67.2266H334.848C334.168 67.2266 333.617 67.0156 333.195 66.5938C332.774 66.1719 332.563 65.6211 332.563 64.9414V63.5C332.563 62.8203 332.774 62.2695 333.195 61.8477C333.617 61.4258 334.168 61.2148 334.848 61.2148H340.578H346.344C347.024 61.2148 347.574 61.4258 347.996 61.8477C348.418 62.2695 348.629 62.8203 348.629 63.5V66.6641L349.578 67.2969C350.094 67.625 350.106 67.9883 349.613 68.3867C348.723 69.043 347.785 69.6523 346.801 70.2148C347.199 70.4023 347.82 70.6602 348.664 70.9883C349.438 71.2227 349.906 71.5039 350.07 71.832C350.258 72.1836 350.117 72.6641 349.649 73.2734ZM344.445 68.8789C344.633 68.7617 344.891 68.5742 345.219 68.3164C345.383 68.1992 345.5 68.1172 345.57 68.0703C346.086 67.6953 346.461 67.4141 346.695 67.2266H342.617L342.512 67.332C343.145 67.918 343.789 68.4336 344.445 68.8789ZM336.781 65.1172H345.008V64.1328C345.008 63.6172 344.75 63.3594 344.235 63.3594H340.508H336.852C336.289 63.3594 336.008 63.6406 336.008 64.2031V64.3438C336.008 64.8594 336.266 65.1172 336.781 65.1172ZM331.965 60.1602C331.192 60.1602 330.805 59.7617 330.805 58.9648C330.805 58.1914 331.192 57.8047 331.965 57.8047H338.574V57.0312C338.574 56.6562 338.387 56.4688 338.012 56.4688H333.547C332.797 56.4688 332.422 56.0938 332.422 55.3438C332.422 54.5938 332.797 54.2188 333.547 54.2188H338.574V54.1484C338.574 53.7266 338.774 53.375 339.172 53.0938C339.547 52.8594 339.981 52.7422 340.473 52.7422C340.965 52.7422 341.387 52.8594 341.738 53.0938C342.137 53.375 342.336 53.7266 342.336 54.1484V54.2188H347.61C348.36 54.2188 348.735 54.5938 348.735 55.3438C348.735 56.0938 348.36 56.4688 347.61 56.4688H343.18C342.617 56.4688 342.336 56.75 342.336 57.3125V57.8047H348.981C349.754 57.8047 350.141 58.1914 350.141 58.9648C350.141 59.7617 349.754 60.1602 348.981 60.1602H340.473H331.965Z" fill="#F568CC"/>
</svg>
