<svg width="2250" height="720" viewBox="0 0 2250 720" fill="none" xmlns="http://www.w3.org/2000/svg">
<path d="M703.901 670H16.0992C13.283 670 11 672.638 11 675.892V684.108C11 687.362 13.283 690 16.0992 690H703.901C706.717 690 709 687.362 709 684.108V675.892C709 672.638 706.717 670 703.901 670Z" fill="#FFFEF9" stroke="#FFFEF9" stroke-miterlimit="10"/>
<path d="M120 669.766L360 346L150.634 669.766H120Z" fill="#FFFEF9"/>
<path d="M600 669.766L360 346L569.366 669.766H600Z" fill="#FFFEF9"/>
<path d="M360 71V346" stroke="#FFFEF9" stroke-width="10" stroke-miterlimit="10"/>
<path d="M521.641 124L360 346.48" stroke="#FFFEF9" stroke-width="10" stroke-miterlimit="10"/>
<path d="M621.541 261L360 345.98" stroke="#FFFEF9" stroke-width="10" stroke-miterlimit="10"/>
<path d="M621.541 430.98L360 346" stroke="#FFFEF9" stroke-width="10" stroke-miterlimit="10"/>
<path d="M521.641 568.48L360 346" stroke="#FFFEF9" stroke-width="10" stroke-miterlimit="10"/>
<path d="M360 621L360 346" stroke="#FFFEF9" stroke-width="10" stroke-miterlimit="10"/>
<path d="M198 568.48L359.641 346" stroke="#FFFEF9" stroke-width="10" stroke-miterlimit="10"/>
<path d="M98 430.98L359.541 346" stroke="#FFFEF9" stroke-width="10" stroke-miterlimit="10"/>
<path d="M98 261L359.541 345.98" stroke="#FFFEF9" stroke-width="10" stroke-miterlimit="10"/>
<path d="M198 124L359.641 346.48" stroke="#FFFEF9" stroke-width="10" stroke-miterlimit="10"/>
<path d="M606 346C606 481.862 495.862 592 360 592C224.138 592 114 481.862 114 346C114 210.138 224.138 100 360 100C495.862 100 606 210.138 606 346Z" stroke="#FFFEF9" stroke-width="8" stroke-miterlimit="10"/>
<path d="M627 346C627 493.46 507.46 613 360 613C212.54 613 93 493.46 93 346C93 198.54 212.54 79 360 79C507.46 79 627 198.54 627 346Z" stroke="#FFFEF9" stroke-width="16" stroke-miterlimit="10"/>
<path d="M360 112C382.644 112 401 93.6437 401 71C401 48.3563 382.644 30 360 30C337.356 30 319 48.3563 319 71C319 93.6437 337.356 112 360 112Z" fill="#FFFB78"/>
<path d="M479 139C501.644 139 520 120.644 520 98C520 75.3563 501.644 57 479 57C456.356 57 438 75.3563 438 98C438 120.644 456.356 139 479 139Z" fill="#FC987A"/>
<path d="M575 216C597.644 216 616 197.644 616 175C616 152.356 597.644 134 575 134C552.356 134 534 152.356 534 175C534 197.644 552.356 216 575 216Z" fill="#7AEDF2"/>
<path d="M628 326C650.644 326 669 307.644 669 285C669 262.356 650.644 244 628 244C605.356 244 587 262.356 587 285C587 307.644 605.356 326 628 326Z" fill="#A4FF94"/>
<path d="M628 448C650.644 448 669 429.644 669 407C669 384.356 650.644 366 628 366C605.356 366 587 384.356 587 407C587 429.644 605.356 448 628 448Z" fill="#FFA1E7"/>
<path d="M575 558C597.644 558 616 539.644 616 517C616 494.356 597.644 476 575 476C552.356 476 534 494.356 534 517C534 539.644 552.356 558 575 558Z" fill="#FFFB78"/>
<path d="M479 635C501.644 635 520 616.644 520 594C520 571.356 501.644 553 479 553C456.356 553 438 571.356 438 594C438 616.644 456.356 635 479 635Z" fill="#7AEDF2"/>
<path d="M360 662C382.644 662 401 643.644 401 621C401 598.356 382.644 580 360 580C337.356 580 319 598.356 319 621C319 643.644 337.356 662 360 662Z" fill="#A4FF94"/>
<path d="M241 635C263.644 635 282 616.644 282 594C282 571.356 263.644 553 241 553C218.356 553 200 571.356 200 594C200 616.644 218.356 635 241 635Z" fill="#FAB8FF"/>
<path d="M145 558C167.644 558 186 539.644 186 517C186 494.356 167.644 476 145 476C122.356 476 104 494.356 104 517C104 539.644 122.356 558 145 558Z" fill="#FFFB78"/>
<path d="M88 448C110.644 448 129 429.644 129 407C129 384.356 110.644 366 88 366C65.3563 366 47 384.356 47 407C47 429.644 65.3563 448 88 448Z" fill="#FC987A"/>
<path d="M92 325C114.644 325 133 306.644 133 284C133 261.356 114.644 243 92 243C69.3563 243 51 261.356 51 284C51 306.644 69.3563 325 92 325Z" fill="#7AEDF2"/>
<path d="M145 216C167.644 216 186 197.644 186 175C186 152.356 167.644 134 145 134C122.356 134 104 152.356 104 175C104 197.644 122.356 216 145 216Z" fill="#A4FF94"/>
<path d="M241 139C263.644 139 282 120.644 282 98C282 75.3563 263.644 57 241 57C218.356 57 200 75.3563 200 98C200 120.644 218.356 139 241 139Z" fill="#FAB8FF"/>
<path d="M345.132 277.624C343.606 276.263 332.506 218.26 334.725 215.331C336.944 212.402 374.822 211.723 378.567 216.303C382.311 220.883 377.32 274.572 375.655 275.542C373.99 276.511 347.63 279.86 345.132 277.624Z" fill="#FA770C"/>
<path d="M389.666 274.296C388.38 271.216 396.462 228.073 400.358 226.29C404.025 224.611 425.739 236.272 425.888 240.441C426.036 244.611 409.584 278.596 407.225 279.574C404.867 280.553 390.034 275.168 389.666 274.296Z" fill="#F7CB0F"/>
<path d="M423.213 281.029C420.546 278.608 443.358 224.348 446.966 222.962C449.817 221.861 472.917 243.079 474.298 246.687C475.51 249.824 445.716 290.665 441.139 290.665C436.562 290.665 424.741 282.426 423.213 281.029Z" fill="#FA770C"/>
<path d="M452.515 303.153C454.278 301.134 489.837 275.542 493.722 275.405C497.606 275.268 508.443 289.841 507.587 292.747C506.732 295.653 462.505 322.438 460.84 321.465C459.174 320.493 451.557 304.251 452.515 303.153Z" fill="#F7CB0F"/>
<path d="M464.724 332.565C467.576 331.909 507.317 336.172 508.845 338.947C510.374 341.722 500.937 374.595 498.439 375.85C495.94 377.105 462.366 358.371 461.673 356.982C460.98 355.593 463.446 332.858 464.724 332.565Z" fill="#FA770C"/>
<path d="M420.746 422.19C421.236 424.813 445.534 468.344 449.603 467.837C454.041 467.28 490.807 428.572 490.254 423.439C489.701 418.306 450.433 395.137 447.245 396.107C444.057 397.076 420.475 420.755 420.746 422.19Z" fill="#FA770C"/>
<path d="M377.457 427.871C375.35 428.926 366.774 471.572 369.133 474.624C371.491 477.675 403.404 473.515 404.781 469.907C406.158 466.299 397.854 428.989 395.912 427.871C393.97 426.753 379.679 426.77 377.457 427.871Z" fill="#F7CB0F"/>
<path d="M325.015 418.862C323.304 419.432 303.512 455.488 304.196 458.679C304.881 461.87 342.665 480.832 345.856 478.334C349.047 475.836 355.122 429.405 353.587 427.323C352.053 425.241 327.513 418.029 325.015 418.862Z" fill="#FA770C"/>
<path d="M291.856 396.663C289.575 396.663 261.627 426.214 261.889 430.654C262.151 435.094 281.852 447.856 284.781 447.996C287.71 448.136 302.679 411.09 302.254 409.288C301.829 407.486 293.382 396.663 291.856 396.663Z" fill="#F7CB0F"/>
<path d="M284.641 363.365C283.053 360.188 214.58 371.549 210.972 375.157C207.364 378.765 214.58 416.087 219.85 417.889C225.12 419.692 288.525 393.32 290.33 390.6C292.136 387.879 285.474 365.03 284.641 363.365Z" fill="#FA770C"/>
<path d="M283.62 337.282C283.483 334.923 249.683 316.027 246.766 316.859C243.848 317.692 234.42 340.196 235.25 343.248C236.08 346.299 280.34 353.8 282.699 351.849C285.057 349.898 283.62 337.282 283.62 337.282Z" fill="#F7CB0F"/>
<path d="M301.567 300.932C302.254 298.24 265.633 258.756 262.445 258.756C259.257 258.756 240.654 279.004 241.079 282.341C241.504 285.677 289.637 316.888 292.689 315.793C295.74 314.698 301.153 302.597 301.567 300.932Z" fill="#FA770C"/>
<path d="M330.704 284.137C331.731 282.363 322.1 241.545 319.881 240.016C317.663 238.488 293.245 247.508 292.689 249.174C292.133 250.839 309.669 289.556 312.766 290.528C315.863 291.501 329.178 286.781 330.704 284.137Z" fill="#F7CB0F"/>
<path d="M363.215 267.882C445.759 263.41 477.073 305.381 468.029 360.364C455.809 434.809 392.658 439.463 371.189 437.983C349.72 436.503 272.846 435.921 272.846 356.66C272.846 287.403 337.66 269.253 363.215 267.882Z" fill="#F8DE76"/>
<path d="M330.487 303.735C330.513 306.048 328.856 307.945 326.78 307.965C325.189 307.982 323.674 306.507 323.643 304.913C323.606 302.917 325.924 300.421 327.832 300.404C329.506 300.393 330.467 301.596 330.487 303.735Z" fill="#3D1C07"/>
<path d="M377.543 292.2C377.509 294.31 375.832 296.192 374.024 296.129C372.532 296.078 370.602 294.324 370.602 293.012C370.602 291.016 372.578 288.934 374.446 288.954C376.117 288.985 377.566 290.494 377.543 292.2Z" fill="#3D1C07"/>
<path d="M304.447 333.76C300.589 333.76 297.654 330.22 299.237 327.771C300.246 326.205 301.803 324.853 303.378 323.824C306.309 321.919 310.522 324.172 311.933 326.214C313.43 328.387 312.449 331.598 309.811 332.533C307.958 333.189 305.961 333.76 304.447 333.76Z" fill="#BE090E"/>
<path d="M400.999 303.131C398.555 303.131 396.565 301.588 396.151 299.574C395.669 297.293 396.847 294.855 399.137 294.05C401.593 293.195 404.097 293.243 406.301 294.906C408.26 296.375 408.474 298.613 406.9 300.476C405.269 302.389 403.124 303.082 400.999 303.131Z" fill="#BE090E"/>
<path d="M309.244 327.631C309.732 327.614 310.282 328.093 310.251 328.549C310.179 329.57 308.856 331.207 307.824 331.09C307.37 331.039 306.666 330.483 306.617 330.092C306.489 329.014 307.701 327.628 309.244 327.631Z" fill="#FBBDE8"/>
<path d="M405.876 298.18C405.876 298.69 404.396 299.8 403.88 299.8C403.461 299.8 402.953 299.021 402.913 298.659C402.847 298.089 404.165 297.13 404.536 297.079C404.698 297.054 404.863 297.063 405.021 297.106C405.179 297.149 405.326 297.225 405.453 297.329C405.58 297.433 405.683 297.562 405.756 297.709C405.829 297.856 405.87 298.016 405.876 298.18V298.18Z" fill="#FBBDE8"/>
<path d="M355.849 332.385C353.316 332.385 348.819 330.782 345.582 328.298C343.301 326.55 343.74 324.194 346.307 322.88C351.799 320.028 357.897 318.633 363.703 317.31C367.567 316.586 368.919 317.544 368.158 321.736C367.028 327.97 362.257 332.379 355.849 332.385Z" fill="#BE090E"/>
<path d="M657.735 645.228C655.713 646.467 652.488 667.745 653.549 669.013C654.609 670.281 658.654 670.776 659.93 669.525C660.461 667.765 661.74 645.827 660.693 645.827C659.089 645.827 659.058 644.417 657.735 645.228Z" fill="#F568CC"/>
<path d="M665.394 647.195C664.427 647.705 663.463 667.706 663.645 669.09C664.333 670.288 668.163 670.822 669.766 669.838C670.557 667.402 669.786 649.084 668.284 647.641C667.65 647.042 666.885 646.413 665.394 647.195Z" fill="#F568CC"/>
<path d="M681.558 648.559C680.54 649.705 680.417 667.839 680.795 669.527C681.233 670.786 686.416 670.362 686.84 669.09C687.113 667.282 686.368 648.999 684.453 647.333C683.1 646.467 682.693 647.283 681.558 648.559Z" fill="#F568CC"/>
<path d="M689.418 646.113C688.454 650.343 690.087 665.551 690.71 669.09C691.215 670.544 694.409 670.1 695.637 669.298C696.215 667.61 694.031 646.69 693.115 645.827C691.396 644.235 690.987 645.086 689.418 646.113Z" fill="#F568CC"/>
<path fill-rule="evenodd" clip-rule="evenodd" d="M643.803 594.826C644.184 594.287 644.107 593.537 643.603 593.088C643.062 592.607 642.233 592.656 641.751 593.197C641.568 593.403 641.458 593.641 641.403 593.765C641.333 593.924 641.267 594.105 641.204 594.294C641.077 594.672 640.939 595.16 640.794 595.726C640.501 596.864 640.156 598.399 639.785 600.188C639.042 603.772 638.183 608.433 637.406 613.109C636.629 617.782 635.932 622.488 635.516 626.159C635.309 627.99 635.169 629.588 635.127 630.804C635.106 631.409 635.108 631.951 635.145 632.394C635.163 632.615 635.192 632.84 635.241 633.05C635.284 633.235 635.368 633.525 635.559 633.794C635.979 634.384 636.798 634.522 637.389 634.102C637.929 633.716 638.09 632.996 637.79 632.424C637.78 632.376 637.769 632.297 637.759 632.178C637.735 631.882 637.729 631.456 637.749 630.895C637.787 629.78 637.919 628.261 638.123 626.454C638.532 622.847 639.221 618.19 639.994 613.539C640.767 608.889 641.62 604.263 642.354 600.721C642.722 598.948 643.057 597.459 643.334 596.38C643.474 595.838 643.594 595.418 643.692 595.124C643.741 594.978 643.778 594.881 643.803 594.826ZM637.801 632.475C637.801 632.475 637.8 632.471 637.798 632.462C637.8 632.47 637.801 632.474 637.801 632.475ZM643.815 594.799C643.819 594.79 643.821 594.786 643.821 594.787C643.822 594.787 643.819 594.791 643.815 594.799Z" fill="#BE090E"/>
<path d="M646.074 578.258C647.274 578.116 649.972 575.853 654.163 578.477C656.257 579.941 658.455 582.908 656.45 587.499C655.418 589.797 653.7 591.719 651.533 593.002C646.863 595.82 641.96 597.254 640.878 597.402C639.524 593.36 633.805 587.475 633.263 583.824C632.778 580.739 633.482 575.611 638.864 575.029C644.281 574.642 646.074 578.258 646.074 578.258Z" fill="#BE090E"/>
<path d="M653.706 586.909C654.668 587.51 653.363 589.191 651.476 590.625C649.865 591.852 647.95 592.737 647.366 591.922C646.71 591.001 648.601 591.008 650.788 589.246C652.613 587.777 653.07 586.511 653.706 586.909Z" fill="#F8DE76"/>
<path d="M646.509 592.501C646.848 593.045 646.479 593.375 646.291 593.535C646.103 593.695 645.416 593.627 645.219 593.384C645.023 593.142 644.964 592.51 645.364 592.254C645.764 591.998 646.17 591.957 646.509 592.501Z" fill="#F8DE76"/>
<path d="M653.807 614.435C651.99 614.693 640.67 620.594 636.678 618.672C633.136 616.967 631.785 613.143 633.698 611.02C635.611 608.897 638.678 612.769 641.028 612.636C643.379 612.503 645.838 611.106 646.037 606.871C646.236 602.636 643.219 600.384 639.31 599.851C635.401 599.318 628.714 601.554 626.361 605.668C623.956 609.886 624.87 617.784 628.062 621.752C632.778 627.611 645.064 629.454 653.765 624.907C654.404 618.506 654.552 614.905 653.807 614.435Z" fill="#F568CC"/>
<path fill-rule="evenodd" clip-rule="evenodd" d="M629.641 612.632C629.641 612.269 629.934 611.976 630.296 611.976H632.778C633.14 611.976 633.434 612.269 633.434 612.632C633.434 612.994 633.14 613.287 632.778 613.287H630.296C629.934 613.287 629.641 612.994 629.641 612.632Z" fill="#570751"/>
<path fill-rule="evenodd" clip-rule="evenodd" d="M634.725 616.03C634.886 616.354 634.754 616.748 634.43 616.909L631.828 618.203C631.504 618.365 631.11 618.233 630.949 617.908C630.787 617.584 630.92 617.19 631.244 617.029L633.845 615.735C634.17 615.573 634.563 615.705 634.725 616.03Z" fill="#570751"/>
<path fill-rule="evenodd" clip-rule="evenodd" d="M638.206 618.727C638.568 618.727 638.862 619.02 638.862 619.383V621.748C638.862 622.11 638.568 622.404 638.206 622.404C637.844 622.404 637.55 622.11 637.55 621.748V619.383C637.55 619.02 637.844 618.727 638.206 618.727Z" fill="#570751"/>
<path fill-rule="evenodd" clip-rule="evenodd" d="M642.469 618.451C642.801 618.306 643.187 618.458 643.332 618.79L644.511 621.485C644.656 621.817 644.504 622.204 644.173 622.349C643.841 622.494 643.454 622.343 643.309 622.011L642.131 619.315C641.985 618.983 642.137 618.596 642.469 618.451Z" fill="#570751"/>
<path d="M702.732 596.943C702.732 596.943 700.067 601.383 694.861 602.19Z" fill="#FABFE9"/>
<path fill-rule="evenodd" clip-rule="evenodd" d="M703.182 596.194C703.596 596.442 703.73 596.979 703.481 597.393L702.732 596.943C703.481 597.393 703.481 597.394 703.481 597.394L703.481 597.395L703.48 597.397L703.477 597.401L703.468 597.415C703.461 597.427 703.451 597.443 703.439 597.462C703.414 597.502 703.378 597.557 703.332 597.625C703.239 597.762 703.104 597.954 702.926 598.184C702.571 598.644 702.042 599.263 701.341 599.908C699.941 601.195 697.821 602.616 694.995 603.054C694.518 603.128 694.071 602.802 693.997 602.324C693.923 601.847 694.25 601.4 694.727 601.326C697.108 600.957 698.923 599.755 700.157 598.621C700.772 598.055 701.235 597.513 701.542 597.115C701.695 596.917 701.809 596.756 701.882 596.646C701.919 596.592 701.946 596.551 701.962 596.525C701.971 596.511 701.976 596.502 701.98 596.497L701.982 596.493C702.231 596.079 702.768 595.945 703.182 596.194Z" fill="#570751"/>
<path d="M654.871 598.085C659.863 586.2 687.516 584.967 693.001 595.415C695.565 601.491 699.52 636.682 694.431 647.134C689.048 654.13 656.773 652.676 653.645 647.46C648.884 639.517 651.345 605.885 654.871 598.085Z" fill="#FBBDE8"/>
<path d="M703.621 581.905C705.807 581.585 709.045 585.49 709.045 588.627C709.045 591.592 705.547 596.764 703.197 597.083C700.847 597.403 698.729 591.605 699.113 589.478C699.498 587.35 701.518 582.211 703.621 581.905Z" fill="#F568CC"/>
<path d="M658.975 603.157C659.659 603.157 661.288 603.655 661.305 605.509C661.316 606.716 660.024 607.614 658.807 607.56C657.589 607.505 656.601 606.606 656.644 605.358C656.701 604.055 657.466 603.157 658.975 603.157Z" fill="#570751"/>
<path d="M667.269 603.753C668.758 602.787 679.665 603.157 679.645 613.355C679.626 622.883 668.144 622.183 666.874 621.225C665.603 620.268 665.883 604.656 667.269 603.753Z" fill="#F568CC"/>
<path d="M1215.09 181.844C1214.16 181.844 1212.91 180.828 1211.34 178.797C1209.78 176.609 1209.08 174.734 1209.23 173.172C1209.55 171.922 1209.78 168.406 1209.94 162.625C1210.09 158.719 1210.17 151.844 1210.17 142C1210.17 135.125 1210.09 130.516 1209.94 128.172L1202.2 128.875C1196.73 129.656 1192.05 130.047 1188.14 130.047C1187.05 130.047 1185.48 129.188 1183.45 127.469C1181.42 125.75 1180.41 124.5 1180.41 123.719C1180.41 122.469 1181.73 122 1184.39 122.312C1186.11 122.469 1191.19 122.391 1199.62 122.078C1211.19 121.297 1219.55 120.828 1224.7 120.672C1227.36 120.516 1229.78 120.281 1231.97 119.969C1234.31 119.5 1235.95 119.188 1236.89 119.031C1238.3 118.875 1239.55 119.031 1240.64 119.5C1241.73 119.969 1242.75 120.594 1243.69 121.375C1244.78 122 1245.64 122.469 1246.27 122.781C1247.67 123.719 1248.38 124.578 1248.38 125.359C1248.38 125.984 1247.98 126.609 1247.2 127.234C1246.58 127.703 1245.88 127.938 1245.09 127.938C1244.31 127.938 1243.22 127.859 1241.81 127.703C1240.56 127.547 1239.16 127.469 1237.59 127.469C1231.81 127.469 1225.88 127.625 1219.78 127.938C1219.62 129.188 1219.55 132.312 1219.55 137.312C1219.23 145.75 1219.08 154.031 1219.08 162.156V171.297V173.406C1219.08 176.062 1218.84 177.781 1218.38 178.562C1216.97 180.75 1215.88 181.844 1215.09 181.844ZM1190.02 223.328C1188.3 223.328 1186.19 222 1183.69 219.344C1181.81 217.469 1180.88 216.062 1180.88 215.125C1180.88 214.656 1181.19 214.422 1181.81 214.422C1182.44 214.266 1183.22 214.188 1184.16 214.188L1189.31 213.953C1192.28 213.953 1194.23 213.875 1195.17 213.719C1198.14 213.719 1200.64 213.641 1202.67 213.484C1216.11 212.234 1225.17 211.219 1229.86 210.438C1232.2 210.125 1234.31 209.812 1236.19 209.5C1238.06 209.031 1239.55 208.797 1240.64 208.797C1242.83 208.797 1245.02 209.891 1247.2 212.078C1248.92 213.797 1249.78 215.203 1249.78 216.297C1249.78 217.234 1249.23 217.859 1248.14 218.172C1247.36 218.328 1242.75 218.641 1234.31 219.109C1229.62 219.266 1223.84 219.656 1216.97 220.281C1210.09 220.906 1204.08 221.531 1198.92 222.156C1197.98 222.312 1196.66 222.547 1194.94 222.859C1193.22 223.172 1191.58 223.328 1190.02 223.328ZM1240.41 304.188C1240.72 304.812 1241.27 305.75 1242.05 307C1242.83 308.25 1243.22 309.734 1243.22 311.453C1243.22 313.016 1242.59 314.266 1241.34 315.203C1240.09 316.297 1238.69 316.844 1237.12 316.844C1235.72 316.844 1234.55 315.438 1233.61 312.625C1233.14 311.531 1232.75 310.594 1232.44 309.812C1232.28 309.188 1232.12 308.641 1231.97 308.172C1229.94 308.797 1227.28 309.344 1224 309.812C1220.72 310.281 1218.38 310.672 1216.97 310.984C1209.47 312.391 1204.31 313.406 1201.5 314.031C1200.41 314.344 1199.23 314.656 1197.98 314.969C1196.73 315.438 1196.03 315.75 1195.88 315.906C1194.94 316.219 1194.23 316.375 1193.77 316.375C1192.52 316.375 1191.34 315.828 1190.25 314.734C1188.38 313.328 1186.97 311.453 1186.03 309.109C1185.88 308.953 1185.8 308.719 1185.8 308.406C1185.8 308.094 1186.19 307.703 1186.97 307.234C1187.91 306.766 1188.61 306.453 1189.08 306.297C1191.11 305.203 1194.7 301.922 1199.86 296.453L1206.19 290.359L1192.36 282.859C1190.8 282.391 1189.78 281.844 1189.31 281.219C1188.84 280.594 1188.61 279.656 1188.61 278.406C1188.61 277.469 1188.77 276.844 1189.08 276.531C1189.55 276.062 1190.48 275.359 1191.89 274.422C1193.3 273.484 1194.7 272.234 1196.11 270.672C1196.89 269.734 1197.91 268.719 1199.16 267.625C1200.41 266.531 1201.58 265.359 1202.67 264.109C1207.36 258.641 1210.33 254.344 1211.58 251.219C1212.36 249.656 1212.98 248.875 1213.45 248.875C1213.77 248.875 1214.39 249.188 1215.33 249.812C1218.3 252 1220.09 254.031 1220.72 255.906V256.609C1220.72 257.391 1220.33 258.016 1219.55 258.484C1218.77 258.953 1218.22 259.344 1217.91 259.656C1217.44 259.969 1215.09 262.234 1210.88 266.453L1206.66 270.672C1205.88 271.453 1204.55 272.781 1202.67 274.656C1200.8 276.375 1199.86 277.391 1199.86 277.703C1199.86 278.172 1200.09 278.562 1200.56 278.875C1201.19 279.188 1201.66 279.5 1201.97 279.812L1211.81 284.5C1217.91 278.406 1221.42 274.812 1222.36 273.719C1226.42 269.031 1228.69 266.062 1229.16 264.812C1229.31 264.656 1229.55 264.266 1229.86 263.641C1230.17 263.016 1230.48 262.703 1230.8 262.703C1231.27 262.703 1231.73 262.938 1232.2 263.406C1234.7 265.75 1236.5 267.938 1237.59 269.969C1237.91 270.594 1238.06 270.984 1238.06 271.141C1238.06 271.453 1237.67 271.922 1236.89 272.547C1236.27 273.016 1235.64 273.484 1235.02 273.953C1229.55 278.484 1223.14 284.422 1215.8 291.766L1201.5 305.125C1201.19 305.438 1201.03 305.75 1201.03 306.062C1201.03 306.375 1201.19 306.609 1201.5 306.766C1201.81 306.922 1202.28 306.922 1202.91 306.766L1230.33 302.078C1229.55 298.953 1228.61 295.828 1227.52 292.703V292.234C1227.52 291.766 1227.75 291.531 1228.22 291.531C1228.84 291.531 1229.78 292 1231.03 292.938C1233.53 295.125 1236.66 298.875 1240.41 304.188ZM1289.16 228.953C1289.62 228.953 1290.09 229.188 1290.56 229.656C1291.03 229.969 1291.34 230.438 1291.5 231.062V231.531C1291.5 232.625 1290.64 234.734 1288.92 237.859L1272.05 267.156C1270.8 269.812 1269.16 271.141 1267.12 271.141C1265.09 271.141 1263.38 269.891 1261.97 267.391C1260.56 265.359 1258.84 262.312 1256.81 258.25C1255.88 256.844 1255.09 255.438 1254.47 254.031C1253.84 252.625 1253.38 251.609 1253.06 250.984C1251.34 248.016 1250.48 245.906 1250.48 244.656C1250.48 244.031 1250.72 243.562 1251.19 243.25C1251.66 242.781 1252.12 242.547 1252.59 242.547C1254.31 242.547 1255.88 243.484 1257.28 245.359C1258.38 246.453 1259.23 247.625 1259.86 248.875L1262.44 252.391L1267.12 257.781L1269.23 254.5C1271.42 250.75 1276.58 243.328 1284.7 232.234C1286.42 230.047 1287.91 228.953 1289.16 228.953ZM1025.72 326.922C1014.31 327.234 1007.2 323.484 1004.39 315.672C1000.17 303.797 1006.11 298.172 1022.2 298.797C1024.55 298.797 1027.59 298.719 1031.34 298.562C1033.22 298.562 1034.47 298.562 1035.09 298.562C1039.78 298.562 1042.12 296.531 1042.12 292.469V202.234V126.531C1042.12 116.688 1047.12 111.766 1057.12 111.766C1066.97 111.766 1071.89 116.688 1071.89 126.531V292.469C1071.89 300.906 1070.8 307.312 1068.61 311.688C1066.58 316.219 1062.98 319.578 1057.83 321.766C1050.64 324.734 1039.94 326.453 1025.72 326.922ZM1154.86 272.781C1148.92 275.125 1144.39 275.594 1141.27 274.188C1137.83 272.781 1135.48 269.188 1134.23 263.406C1131.42 252.938 1127.52 241.297 1122.52 228.484C1117.67 215.516 1111.58 201.531 1104.23 186.531C1099.7 177.469 1102.28 171.062 1111.97 167.312C1120.25 164.188 1126.5 166.453 1130.72 174.109C1147.12 204.578 1158.61 231.844 1165.17 255.906C1166.27 260.438 1165.95 263.953 1164.23 266.453C1162.67 268.797 1159.55 270.906 1154.86 272.781ZM972.047 270.672C968.922 271.453 965.172 270.672 960.797 268.328C955.641 265.516 952.594 262.469 951.656 259.188C950.719 255.906 951.891 251.844 955.172 247C965.016 229.344 972.75 207.078 978.375 180.203C980.25 170.047 986.344 165.906 996.656 167.781C1007.44 169.656 1011.58 175.75 1009.08 186.062C1005.64 200.125 1001.73 213.484 997.359 226.141C992.359 240.516 986.812 252.938 980.719 263.406C978.062 267.469 975.172 269.891 972.047 270.672ZM1599.23 206.453C1596.89 206.453 1595.17 205.203 1594.08 202.703L1591.97 198.016C1585.88 199.578 1580.95 200.75 1577.2 201.531L1561.97 205.281C1558.84 206.062 1556.89 206.453 1556.11 206.453C1555.17 206.453 1554.39 206.297 1553.77 205.984C1553.3 205.516 1552.91 205.125 1552.59 204.812C1552.28 204.344 1552.05 203.953 1551.89 203.641C1550.64 201.453 1550.09 199.969 1550.25 199.188L1551.89 196.609C1555.95 190.984 1559.7 182.938 1563.14 172.469L1558.45 173.172L1552.36 173.875C1551.89 174.031 1550.88 174.344 1549.31 174.812C1547.91 175.125 1546.81 175.047 1546.03 174.578C1544.31 173.484 1542.05 171.531 1539.23 168.719C1538.61 168.094 1538.3 167.625 1538.3 167.312C1538.3 166.375 1540.02 165.906 1543.45 165.906H1551.42C1556.73 165.594 1561.58 165.203 1565.95 164.734C1566.89 162.391 1567.91 159.422 1569 155.828C1570.09 152.234 1570.88 149.344 1571.34 147.156C1571.34 146.688 1571.34 145.75 1571.34 144.344C1571.5 142.938 1571.81 142.078 1572.28 141.766H1572.52C1573.14 141.766 1574 142.078 1575.09 142.703C1576.19 143.328 1577.2 144.109 1578.14 145.047C1581.11 148.016 1581.97 150.359 1580.72 152.078C1580.09 152.234 1578.77 154.812 1576.73 159.812C1576.58 160.125 1576.03 161.531 1575.09 164.031C1576.34 163.875 1580.88 163.328 1588.69 162.391C1592.28 162.078 1595.02 161.688 1596.89 161.219C1599.55 160.438 1601.66 160.047 1603.22 160.047C1604.47 160.047 1605.48 160.516 1606.27 161.453C1607.05 162.234 1607.59 162.781 1607.91 163.094C1608.38 163.562 1608.92 164.5 1609.55 165.906C1610.17 167 1610.41 167.781 1610.25 168.25C1609.62 169.188 1608.53 169.656 1606.97 169.656C1601.81 169.344 1595.64 169.5 1588.45 170.125C1585.33 170.438 1582.98 170.75 1581.42 171.062L1572.28 172L1570.17 178.328L1567.59 183.953C1566.81 185.828 1565.95 187.703 1565.02 189.578C1564.08 191.453 1563.38 193.016 1562.91 194.266C1562.75 194.578 1562.67 195.047 1562.67 195.672C1562.67 196.453 1563.14 196.844 1564.08 196.844C1565.33 196.844 1569.62 196.141 1576.97 194.734L1585.64 193.328L1589.62 192.391C1588.22 188.484 1587.12 185.984 1586.34 184.891C1585.56 183.797 1585.09 183.094 1584.94 182.781L1586.34 181.375C1592.44 185.281 1597.36 189.266 1601.11 193.328C1602.2 194.734 1602.91 196.062 1603.22 197.312C1603.69 198.562 1603.84 199.969 1603.69 201.531C1603.38 202.938 1602.83 204.031 1602.05 204.812C1601.73 205.594 1600.8 206.141 1599.23 206.453ZM1580.02 291.297C1580.02 291.141 1580.41 290.594 1581.19 289.656C1582.12 288.562 1583.14 287.234 1584.23 285.672C1586.11 283.016 1587.98 279.109 1589.86 273.953C1591.73 268.797 1592.75 264.031 1592.91 259.656C1592.91 259.344 1592.75 259.031 1592.44 258.719C1592.28 258.25 1591.89 258.016 1591.27 258.016L1585.88 258.484L1577.91 259.188C1576.19 264.812 1573.22 270.906 1569 277.469C1567.12 280.438 1564.55 283.094 1561.27 285.438C1558.14 287.625 1555.09 289.188 1552.12 290.125C1551.19 290.438 1550.02 290.594 1548.61 290.594C1547.52 290.438 1546.97 290.125 1546.97 289.656C1546.97 289.031 1547.52 288.484 1548.61 288.016C1550.48 286.766 1552.59 284.812 1554.94 282.156C1557.44 279.5 1559.62 276.766 1561.5 273.953C1562.59 272.391 1563.77 270.359 1565.02 267.859C1566.27 265.203 1567.28 262.781 1568.06 260.594C1563.06 261.219 1557.91 262.391 1552.59 264.109C1552.28 264.422 1551.73 264.578 1550.95 264.578C1550.48 264.578 1549.78 264.266 1548.84 263.641C1547.59 262.391 1546.73 261.453 1546.27 260.828C1545.95 260.047 1546.11 259.344 1546.73 258.719L1547.67 256.844C1548.3 255.906 1548.92 254.031 1549.55 251.219C1550.17 248.406 1550.48 246.141 1550.48 244.422C1550.48 243.953 1550.41 243.406 1550.25 242.781C1550.25 242 1550.33 241.609 1550.48 241.609C1550.8 241.453 1551.19 241.453 1551.66 241.609C1553.38 241.922 1554.94 242.469 1556.34 243.25C1557.59 244.031 1558.45 244.891 1558.92 245.828C1559.55 246.609 1559.55 247.312 1558.92 247.938C1558.77 248.094 1558.53 248.406 1558.22 248.875C1557.91 249.188 1557.67 249.656 1557.52 250.281C1557.36 250.438 1557.05 252.156 1556.58 255.438C1556.58 255.594 1556.66 255.75 1556.81 255.906C1557.12 256.062 1557.44 256.062 1557.75 255.906C1558.22 255.906 1558.92 255.828 1559.86 255.672C1560.8 255.516 1561.5 255.359 1561.97 255.203C1563.06 255.047 1564.31 254.812 1565.72 254.5C1567.28 254.188 1568.69 253.953 1569.94 253.797C1570.41 252.078 1570.72 250.203 1570.88 248.172C1571.19 245.984 1571.42 244.5 1571.58 243.719L1571.81 238.797V237.156C1566.81 237.312 1561.58 237.781 1556.11 238.562L1551.89 239.266H1550.95C1550.17 239.266 1549.39 239.031 1548.61 238.562C1547.98 238.094 1547.28 237.547 1546.5 236.922C1544.47 235.047 1543.45 233.641 1543.45 232.703C1543.45 231.766 1544.16 231.453 1545.56 231.766C1547.44 232.078 1549.39 232.234 1551.42 232.234L1558.22 232L1590.8 229.656C1592.05 229.5 1593.22 229.344 1594.31 229.188C1595.41 228.875 1596.5 228.641 1597.59 228.484H1598.3C1600.33 228.484 1601.73 228.875 1602.52 229.656C1603.45 230.281 1604 230.672 1604.16 230.828C1606.66 232.859 1607.91 234.422 1607.91 235.516C1607.91 236.453 1606.58 236.844 1603.92 236.688L1599.23 236.219C1595.17 236.062 1589.08 236.219 1580.95 236.688L1580.02 245.828C1579.86 247.391 1579.7 248.641 1579.55 249.578C1579.39 250.516 1579.23 251.297 1579.08 251.922L1578.84 252.625C1582.59 252.312 1586.97 251.844 1591.97 251.219C1592.28 251.062 1592.83 250.906 1593.61 250.75C1594.39 250.438 1595.17 250.203 1595.95 250.047H1596.42C1597.36 250.047 1598.3 250.438 1599.23 251.219C1600.17 252 1600.72 252.469 1600.88 252.625C1602.12 253.719 1602.98 254.656 1603.45 255.438C1604.08 256.062 1604.16 256.609 1603.69 257.078C1603.38 257.703 1602.98 258.328 1602.52 258.953C1602.2 259.422 1601.97 259.969 1601.81 260.594C1601.03 267.156 1599.78 272.469 1598.06 276.531C1596.66 280.125 1595.09 282.859 1593.38 284.734C1591.81 286.453 1589.86 288.094 1587.52 289.656C1586.58 290.281 1585.09 290.828 1583.06 291.297C1581.03 291.609 1580.02 291.609 1580.02 291.297ZM1618.22 206.453C1619 206.453 1620.17 207 1621.73 208.094C1621.58 208.406 1621.89 209.031 1622.67 209.969C1623.45 210.75 1624 211.297 1624.31 211.609C1625.09 212.391 1625.88 213.328 1626.66 214.422C1627.59 215.516 1628.61 216.688 1629.7 217.938C1632.52 220.906 1639 228.641 1649.16 241.141C1650.88 243.641 1651.73 245.125 1651.73 245.594C1651.73 247.156 1650.8 247.938 1648.92 247.938C1647.83 247.938 1646.66 247.156 1645.41 245.594C1642.44 242.469 1637.12 237.547 1629.47 230.828C1623.53 225.359 1618.14 221.141 1613.3 218.172C1610.95 217.078 1609.78 215.828 1609.78 214.422C1609.78 213.328 1610.95 211.766 1613.3 209.734C1615.48 207.547 1617.12 206.453 1618.22 206.453ZM1396.27 327.391C1387.83 327.703 1382.59 324.891 1380.56 318.953C1377.28 309.891 1381.66 305.516 1393.69 305.828C1395.25 305.828 1396.73 305.828 1398.14 305.828C1400.8 305.828 1402.12 304.656 1402.12 302.312V236.922C1402.12 228.172 1406.58 223.797 1415.48 223.797C1424.23 223.797 1428.61 228.172 1428.61 236.922V263.406V303.016C1428.61 309.266 1427.98 313.797 1426.73 316.609C1425.17 319.734 1422.36 322.234 1418.3 324.109C1413.45 325.984 1406.11 327.078 1396.27 327.391ZM1494.47 318.953C1491.66 319.891 1488.45 319.344 1484.86 317.312C1477.83 313.25 1470.88 309.5 1464 306.062C1454 301.062 1446.5 297.469 1441.5 295.281C1432.91 291.688 1431.42 285.984 1437.05 278.172C1441.11 272.547 1446.27 270.984 1452.52 273.484C1467.2 279.578 1482.59 286.766 1498.69 295.047C1502.59 297.078 1504.78 299.5 1505.25 302.312C1505.56 304.812 1504.39 308.094 1501.73 312.156C1499.39 315.906 1496.97 318.172 1494.47 318.953ZM1344.7 314.734C1337.83 317.391 1332.52 315.203 1328.77 308.172C1326.42 303.797 1325.64 300.281 1326.42 297.625C1327.36 294.969 1330.09 292.859 1334.62 291.297C1338.53 290.047 1344.86 288.016 1353.61 285.203C1359.23 283.328 1367.98 280.359 1379.86 276.297C1387.52 273.641 1392.2 276.297 1393.92 284.266C1395.33 290.672 1392.91 295.125 1386.66 297.625C1383.69 298.875 1379.23 300.75 1373.3 303.25C1360.33 308.719 1350.8 312.547 1344.7 314.734ZM1377.75 268.328C1375.09 268.641 1372.28 267.234 1369.31 264.109C1363.69 258.797 1357.83 253.797 1351.73 249.109C1348.14 252.078 1344 255.125 1339.31 258.25C1335.56 260.75 1331.73 261.766 1327.83 261.297C1323.92 260.672 1320.48 258.719 1317.52 255.438C1317.36 255.281 1317.2 255.125 1317.05 254.969C1313.77 252.625 1312.28 250.125 1312.59 247.469C1312.91 244.812 1314.94 242.391 1318.69 240.203C1328.53 233.797 1337.91 226.297 1346.81 217.703H1322.67C1315.17 217.703 1311.42 213.875 1311.42 206.219C1311.42 198.719 1315.17 194.969 1322.67 194.969H1365.8C1368.45 191.219 1371.11 187 1373.77 182.312H1346.58C1339.55 182.312 1336.03 178.719 1336.03 171.531C1336.03 164.5 1339.55 160.984 1346.58 160.984H1384.08C1385.95 155.984 1387.28 152.234 1388.06 149.734H1335.33C1327.98 149.734 1324.31 145.984 1324.31 138.484C1324.31 131.141 1327.98 127.469 1335.33 127.469H1394.16C1394.31 126.844 1394.47 125.906 1394.62 124.656C1394.94 123.875 1395.09 123.25 1395.09 122.781C1396.5 113.406 1401.89 109.031 1411.27 109.656C1421.58 110.281 1425.64 115.672 1423.45 125.828C1423.45 125.984 1423.38 126.297 1423.22 126.766C1423.22 127.078 1423.14 127.312 1422.98 127.469H1498.45C1505.8 127.469 1509.47 131.141 1509.47 138.484C1509.47 145.984 1505.8 149.734 1498.45 149.734H1463.06H1416.89C1415.33 154.734 1414.08 158.484 1413.14 160.984H1489.78C1496.81 160.984 1500.33 164.5 1500.33 171.531C1500.33 178.719 1496.81 182.312 1489.78 182.312H1456.73C1458.77 185.906 1461.66 190.125 1465.41 194.969H1509.94C1517.44 194.969 1521.19 198.719 1521.19 206.219C1521.19 213.875 1517.44 217.703 1509.94 217.703H1486.97C1493.84 223.641 1501.19 228.797 1509 233.172C1514.78 235.984 1518.3 238.953 1519.55 242.078C1520.8 245.516 1519.47 249.656 1515.56 254.5C1510.41 260.906 1503.69 262 1495.41 257.781C1489.94 254.5 1485.02 251.141 1480.64 247.703C1474.23 253.172 1467.44 258.484 1460.25 263.641C1455.72 266.609 1451.19 266.219 1446.66 262.469C1439.78 257 1439.62 251.609 1446.19 246.297C1451.97 241.453 1457.28 236.375 1462.12 231.062C1457.28 225.906 1453.53 221.453 1450.88 217.703H1381.97C1378.22 222.703 1373.84 227.859 1368.84 233.172C1375.56 238.016 1381.58 242.781 1386.89 247.469C1391.89 252.312 1391.66 257.547 1386.19 263.172C1383.06 266.453 1380.25 268.172 1377.75 268.328ZM1397.44 194.969H1416.42H1435.64C1433.92 192.156 1431.66 187.938 1428.84 182.312H1404C1401.19 187.938 1399 192.156 1397.44 194.969ZM1910.02 183.484C1908.3 183.484 1906.19 182.156 1903.69 179.5C1901.81 177.625 1900.88 176.219 1900.88 175.281C1900.88 174.812 1901.19 174.578 1901.81 174.578C1902.44 174.422 1903.22 174.344 1904.16 174.344L1909.31 174.109C1912.28 174.109 1914.23 174.031 1915.17 173.875C1918.14 173.875 1920.64 173.797 1922.67 173.641C1936.11 172.391 1945.17 171.375 1949.86 170.594C1952.2 170.281 1954.31 169.969 1956.19 169.656C1958.06 169.188 1959.55 168.953 1960.64 168.953C1962.83 168.953 1965.02 170.047 1967.2 172.234C1968.92 173.953 1969.78 175.359 1969.78 176.453C1969.78 177.391 1969.23 178.016 1968.14 178.328C1967.36 178.484 1962.75 178.797 1954.31 179.266C1949.62 179.422 1943.84 179.812 1936.97 180.438C1930.09 181.062 1924.08 181.688 1918.92 182.312C1917.98 182.469 1916.66 182.703 1914.94 183.016C1913.22 183.328 1911.58 183.484 1910.02 183.484ZM1963.22 286.141C1965.41 287.547 1966.5 288.875 1966.5 290.125C1966.5 291.844 1965.17 292.938 1962.52 293.406C1959.86 293.875 1956.11 294.188 1951.27 294.344C1944.23 294.5 1939.7 294.266 1937.67 293.641C1934.23 292.078 1932.52 289.5 1932.52 285.906L1932.75 277.234C1933.06 274.422 1933.22 271.922 1933.22 269.734C1933.38 268.328 1933.45 265.594 1933.45 261.531C1931.11 266.844 1928.06 272 1924.31 277C1921.66 280.281 1919.31 283.016 1917.28 285.203C1915.25 287.234 1912.83 289.188 1910.02 291.062C1907.2 292.938 1904.62 293.875 1902.28 293.875C1900.88 293.875 1900.17 293.406 1900.17 292.469C1900.17 292.312 1901.66 291.141 1904.62 288.953C1907.75 286.609 1910.88 283.406 1914 279.344C1918.69 273.094 1922.75 265.75 1926.19 257.312C1920.09 258.094 1916.03 258.797 1914 259.422C1913.22 259.578 1912.52 259.812 1911.89 260.125C1911.27 260.281 1910.48 260.281 1909.55 260.125C1908.77 259.812 1907.67 259.188 1906.27 258.25C1904.86 257.156 1903.77 256.141 1902.98 255.203C1902.36 254.266 1902.05 253.641 1902.05 253.328C1902.05 252.547 1903.22 252.156 1905.56 252.156C1911.34 252.156 1918.77 251.531 1927.83 250.281C1928.77 246.688 1929.23 240.906 1929.23 232.938V228.484C1929.23 226.609 1929.62 225.594 1930.41 225.438C1930.56 225.281 1930.88 225.203 1931.34 225.203C1932.59 225.203 1934.31 226.141 1936.5 228.016C1938.22 229.422 1939.31 230.516 1939.78 231.297C1940.41 231.922 1940.48 232.781 1940.02 233.875C1939.86 234.188 1939.55 234.812 1939.08 235.75C1938.61 236.688 1938.3 237.625 1938.14 238.562C1937.98 239.344 1937.67 240.906 1937.2 243.25C1936.73 245.438 1936.42 247.391 1936.27 249.109C1938.45 248.953 1941.19 248.641 1944.47 248.172C1947.75 247.703 1950.17 247.234 1951.73 246.766L1956.42 245.594C1957.98 245.281 1960.56 246.609 1964.16 249.578C1964.78 250.047 1965.09 250.594 1965.09 251.219C1965.09 251.844 1964.78 252.391 1964.16 252.859C1963.69 253.172 1963.06 253.328 1962.28 253.328C1959.47 253.328 1954.31 253.797 1946.81 254.734L1939.08 255.438C1940.8 256.688 1941.89 257.781 1942.36 258.719C1942.83 259.656 1942.91 260.594 1942.59 261.531L1941.89 265.281C1941.58 268.406 1941.27 271.844 1940.95 275.594C1940.8 279.344 1940.8 282.234 1940.95 284.266C1940.95 285.047 1941.42 285.75 1942.36 286.375C1943.45 287 1944.55 287.312 1945.64 287.312C1949.55 287.312 1953.92 286.922 1958.77 286.141L1960.88 285.672C1961.81 285.672 1962.59 285.828 1963.22 286.141ZM2008.22 187.703C2010.09 187.703 2011.03 188.562 2011.03 190.281C2011.03 191.219 2010.17 192.547 2008.45 194.266C2003.77 200.047 1994.47 211.062 1980.56 227.312C1979.47 228.719 1978.45 229.422 1977.52 229.422C1976.73 229.422 1975.02 228.25 1972.36 225.906C1970.17 224.031 1969.08 222.469 1969.08 221.219C1969.08 219.812 1970.25 218.484 1972.59 217.234C1976.19 215.203 1981.58 211.141 1988.77 205.047C1995.95 198.641 2001.27 193.562 2004.7 189.812C2006.11 188.406 2007.28 187.703 2008.22 187.703ZM1689.23 327.391C1681.27 327.391 1677.28 323.406 1677.28 315.438V133.797C1677.28 129.266 1678.69 125.594 1681.5 122.781C1684.31 119.969 1687.98 118.562 1692.52 118.562H1732.59C1737.91 118.562 1741.73 120.203 1744.08 123.484C1746.42 126.766 1746.89 131.531 1745.48 137.781C1740.48 158.25 1735.17 176.219 1729.55 191.688C1740.8 206.219 1746.42 221.922 1746.42 238.797C1746.42 247.547 1745.25 254.656 1742.91 260.125C1755.09 250.438 1764.39 239.734 1770.8 228.016H1757.2C1750.02 228.016 1746.42 224.344 1746.42 217C1746.42 209.812 1750.02 206.219 1757.2 206.219H1815.33H1873.69C1880.88 206.219 1884.47 209.812 1884.47 217C1884.47 224.344 1880.88 228.016 1873.69 228.016H1796.11C1794.7 231.141 1792.75 234.812 1790.25 239.031H1869.94C1875.72 239.031 1878.38 241.922 1877.91 247.703V248.406C1876.81 270.75 1875.41 287.234 1873.69 297.859C1871.97 308.328 1869.62 315.203 1866.66 318.484C1863.38 322.547 1858.69 325.281 1852.59 326.688C1849.78 327.156 1846.19 327.391 1841.81 327.391C1834.31 327.391 1830.02 324.031 1828.92 317.312C1828.92 317 1828.84 316.531 1828.69 315.906C1828.53 315.438 1828.38 315.047 1828.22 314.734C1826.97 311.609 1827.05 309.188 1828.45 307.469C1829.86 305.75 1832.44 305.047 1836.19 305.359C1837.12 305.359 1838.06 305.359 1839 305.359C1841.81 305.359 1844 304.422 1845.56 302.547C1848.06 299.734 1850.09 288.719 1851.66 269.5C1851.81 266.062 1851.58 263.719 1850.95 262.469C1850.33 261.219 1849.16 260.594 1847.44 260.594H1846.73C1837.05 284.656 1824.39 304.344 1808.77 319.656C1805.95 322.156 1803.38 323.406 1801.03 323.406C1798.69 323.406 1796.11 322.156 1793.3 319.656C1787.05 314.188 1787.2 308.641 1793.77 303.016C1805.95 291.297 1815.64 277.156 1822.83 260.594H1811.11C1799.55 282.312 1783.53 300.828 1763.06 316.141C1757.59 320.047 1752.59 319.422 1748.06 314.266C1745.09 310.828 1743.92 307.781 1744.55 305.125C1745.17 302.469 1747.44 299.891 1751.34 297.391C1765.72 287.078 1777.44 274.812 1786.5 260.594H1775.25C1770.88 265.906 1765.88 270.984 1760.25 275.828C1756.97 278.328 1753.45 279.422 1749.7 279.109C1745.95 278.641 1742.67 276.922 1739.86 273.953C1739.23 273.328 1738.38 272.547 1737.28 271.609C1736.34 270.672 1735.64 269.969 1735.17 269.5C1732.2 271.375 1728.06 272.781 1722.75 273.719C1722.44 273.719 1721.97 273.797 1721.34 273.953C1720.88 273.953 1720.48 273.953 1720.17 273.953C1716.42 274.109 1713.14 273.016 1710.33 270.672C1707.52 268.328 1705.64 265.203 1704.7 261.297C1703.92 258.016 1704.08 255.438 1705.17 253.562C1706.42 251.531 1708.61 250.594 1711.73 250.75C1711.89 250.75 1712.05 250.75 1712.2 250.75C1715.02 250.438 1717.12 249.734 1718.53 248.641C1720.88 246.922 1722.05 242.547 1722.05 235.516C1722.05 225.203 1719.16 215.047 1713.38 205.047C1708.53 197.859 1707.05 191.375 1708.92 185.594C1712.52 172.781 1715.95 158.719 1719.23 143.406H1706.81C1703.06 143.406 1701.19 145.281 1701.19 149.031V315.438C1701.19 323.406 1697.2 327.391 1689.23 327.391ZM1779.94 197.078C1775.41 197.078 1771.73 195.672 1768.92 192.859C1766.11 190.047 1764.7 186.375 1764.7 181.844V132.156C1764.7 127.625 1766.11 123.953 1768.92 121.141C1771.73 118.328 1775.41 116.922 1779.94 116.922H1816.5H1853.06C1857.59 116.922 1861.27 118.328 1864.08 121.141C1866.89 123.953 1868.3 127.625 1868.3 132.156V181.844C1868.3 186.375 1866.89 190.047 1864.08 192.859C1861.27 195.672 1857.59 197.078 1853.06 197.078H1779.94ZM1794 177.625H1815.33H1836.19C1839.94 177.625 1841.81 175.75 1841.81 172V166.141H1789.08V172.703C1789.08 175.984 1790.72 177.625 1794 177.625ZM1789.08 147.859H1815.33H1841.81V141.531C1841.81 138.25 1840.17 136.609 1836.89 136.609H1794.7C1790.95 136.609 1789.08 138.484 1789.08 142.234V147.859ZM1001.34 468.438C1001.19 468.438 1000.64 468.594 999.703 468.906C998.922 469.062 998.531 468.828 998.531 468.203C998.531 468.047 998.844 467.734 999.469 467.266C1000.09 466.641 1000.64 466.094 1001.11 465.625C1001.58 465.156 1002.28 464.531 1003.22 463.75C1004.16 462.812 1004.86 461.875 1005.33 460.938C1007.67 457.031 1009.31 453.125 1010.25 449.219L1011.66 441.016C1012.75 434.922 1013.22 427.812 1013.06 419.688C1013.06 417.812 1012.83 415.859 1012.36 413.828C1012.2 412.891 1011.42 411.562 1010.02 409.844V409.609C1010.02 409.297 1010.41 409.141 1011.19 409.141C1012.28 409.141 1013.22 409.219 1014 409.375C1016.03 409.844 1018.3 410.078 1020.8 410.078C1023.45 409.922 1025.09 409.844 1025.72 409.844L1041.42 408.672C1044.55 408.359 1046.58 408.203 1047.52 408.203C1054.23 407.266 1057.28 406.875 1056.66 407.031C1060.25 406.406 1062.44 406.094 1063.22 406.094C1065.72 406.25 1068.22 408.203 1070.72 411.953L1071.19 413.125C1071.19 414.062 1070.48 414.609 1069.08 414.766C1067.67 414.922 1066.81 415 1066.5 415C1061.66 415 1058.06 415.078 1055.72 415.234C1049.78 415.234 1045.41 415.312 1042.59 415.469L1036.03 415.938L1022.67 417.344C1021.73 430.469 1020.88 439.062 1020.09 443.125C1018.84 450.469 1016.42 456.406 1012.83 460.938C1010.17 464.375 1006.34 466.875 1001.34 468.438ZM1060.41 534.766C1058.06 534.766 1055.8 533.047 1053.61 529.609C1050.8 525.234 1048.06 521.641 1045.41 518.828L1039.31 512.5C1036.03 516.25 1033.14 519.219 1030.64 521.406C1028.3 523.594 1025.33 525.703 1021.73 527.734C1015.02 531.641 1009.39 533.594 1004.86 533.594C1003.77 533.594 1003.22 533.203 1003.22 532.422C1003.22 531.953 1004.7 530.938 1007.67 529.375C1010.64 527.812 1013.45 525.938 1016.11 523.75C1022.83 518.125 1028.38 512.344 1032.75 506.406C1031.81 505.469 1027.12 501.406 1018.69 494.219C1017.59 493.438 1015.95 492.109 1013.77 490.234C1013.3 489.922 1012.36 489.219 1010.95 488.125C1009.55 487.031 1008.84 486.25 1008.84 485.781C1008.84 485 1009.23 484.609 1010.02 484.609C1012.36 484.609 1016.11 486.25 1021.27 489.531C1026.42 492.656 1031.81 496.406 1037.44 500.781C1039.62 498.125 1041.34 495.625 1042.59 493.281C1043.84 490.938 1045.25 488.047 1046.81 484.609C1047.59 482.891 1048.06 481.406 1048.22 480.156C1048.38 478.75 1048.45 477.891 1048.45 477.578C1048.45 475.859 1048.92 475 1049.86 475C1050.95 475 1052.44 475.859 1054.31 477.578C1057.59 480.703 1059.23 482.812 1059.23 483.906C1059.23 484.531 1058.84 485.234 1058.06 486.016C1056.19 487.891 1054.47 490.391 1052.91 493.516C1051.97 495.391 1050.25 498.047 1047.75 501.484C1046.97 502.422 1046.34 503.281 1045.88 504.062C1045.41 504.844 1044.94 505.547 1044.47 506.172C1048.06 508.828 1053.38 513.359 1060.41 519.766C1062.12 521.328 1063.22 522.812 1063.69 524.219C1064.31 525.469 1064.62 527.188 1064.62 529.375C1064.62 530.938 1064.23 532.266 1063.45 533.359C1062.67 534.297 1061.66 534.766 1060.41 534.766ZM1036.73 609.297C1035.64 609.297 1034.86 608.984 1034.39 608.359C1033.92 607.734 1033.61 607.344 1033.45 607.188C1031.89 605 1031.19 602.891 1031.34 600.859C1031.5 599.609 1031.73 596.25 1032.05 590.781L1032.28 579.531C1032.12 577.812 1031.97 576.797 1031.81 576.484C1031.66 576.016 1030.95 575.078 1029.7 573.672C1027.2 570.547 1024.31 567.344 1021.03 564.062C1017.28 560.312 1014.86 557.812 1013.77 556.562C1013.77 556.562 1011.42 554.219 1006.73 549.531C1006.27 549.062 1006.03 548.594 1006.03 548.125C1006.03 547.344 1006.5 546.719 1007.44 546.25C1008.53 545.625 1009.62 545.391 1010.72 545.547C1013.84 545.859 1015.88 546.25 1016.81 546.719C1017.91 547.031 1018.92 547.969 1019.86 549.531C1020.8 551.094 1022.12 552.969 1023.84 555.156C1025.72 557.188 1027.12 558.75 1028.06 559.844C1031.97 564.531 1034.7 567.656 1036.27 569.219C1039.08 565.938 1042.59 561.25 1046.81 555.156C1050.25 550.781 1052.28 547.188 1052.91 544.375C1053.53 542.344 1054.47 541.328 1055.72 541.328C1056.34 541.328 1057.28 541.719 1058.53 542.5C1062.59 545 1064.62 547.031 1064.62 548.594C1064.62 549.531 1063.61 550.703 1061.58 552.109C1058.77 554.141 1056.42 556.406 1054.55 558.906L1049.86 564.766C1046.73 568.516 1044.39 571.484 1042.83 573.672C1042.05 575.078 1041.66 577.109 1041.66 579.766V594.062V603.438C1041.81 604.531 1041.19 605.781 1039.78 607.188C1038.53 608.594 1037.52 609.297 1036.73 609.297ZM1108.22 501.484C1110.09 501.484 1111.03 502.344 1111.03 504.062C1111.03 505 1110.17 506.328 1108.45 508.047C1103.77 513.828 1094.47 524.844 1080.56 541.094C1079.47 542.5 1078.45 543.203 1077.52 543.203C1076.73 543.203 1075.02 542.031 1072.36 539.688C1070.17 537.812 1069.08 536.25 1069.08 535C1069.08 533.594 1070.25 532.266 1072.59 531.016C1076.19 528.984 1081.58 524.922 1088.77 518.828C1095.95 512.422 1101.27 507.344 1104.7 503.594C1106.11 502.188 1107.28 501.484 1108.22 501.484ZM875.484 615.391C866.422 615.391 861.891 610.938 861.891 602.031V587.734H786.188C778.219 587.734 774.234 583.75 774.234 575.781C774.234 567.812 778.219 563.828 786.188 563.828H861.891V550.234H797.672C790.172 550.234 786.422 546.406 786.422 538.75C786.422 531.25 790.172 527.5 797.672 527.5H812.203V512.734H782.672C775.016 512.734 771.188 508.828 771.188 501.016C771.188 493.359 775.016 489.531 782.672 489.531H812.203V475.469H800.016C792.516 475.469 788.766 471.641 788.766 463.984C788.766 456.484 792.516 452.734 800.016 452.734H876.891H953.766C961.266 452.734 965.016 456.484 965.016 463.984C965.016 471.641 961.266 475.469 953.766 475.469H939.938V489.531H969.469C977.125 489.531 980.953 493.359 980.953 501.016C980.953 508.828 977.125 512.734 969.469 512.734H939.938V527.5H956.812C964.312 527.5 968.062 531.25 968.062 538.75C968.062 546.406 964.312 550.234 956.812 550.234H888.844V563.828H967.125C975.094 563.828 979.078 567.812 979.078 575.781C979.078 583.75 975.094 587.734 967.125 587.734H888.844V602.031C888.844 610.938 884.391 615.391 875.484 615.391ZM837.984 527.5H861.891V512.734H849.938H837.984V527.5ZM888.844 527.5H901.5H914.391V512.734H888.844V527.5ZM837.984 489.531H861.891V475.469H849.938H837.984V489.531ZM888.844 489.531H901.5H914.391V475.469H888.844V489.531ZM835.406 447.344C826.344 447.344 821.812 443.125 821.812 434.688V434.219H785.484C777.359 434.219 773.297 430.078 773.297 421.797C773.297 413.672 777.359 409.609 785.484 409.609H821.812V409.141C821.812 405.078 822.984 402.031 825.328 400C827.828 397.812 831.188 396.719 835.406 396.719C844.312 396.719 848.766 400.859 848.766 409.141V409.609H902.203V409.141C902.203 405.078 903.375 402.031 905.719 400C908.219 397.812 911.578 396.719 915.797 396.719C924.703 396.719 929.156 400.859 929.156 409.141V409.609H966.891C975.016 409.609 979.078 413.672 979.078 421.797C979.078 430.078 975.016 434.219 966.891 434.219H929.156V434.688C929.156 443.125 924.703 447.344 915.797 447.344C906.734 447.344 902.203 443.125 902.203 434.688V434.219H875.484H848.766V434.688C848.766 443.125 844.312 447.344 835.406 447.344ZM1420.41 494.922C1418.06 494.922 1415.8 493.203 1413.61 489.766C1410.8 485.391 1408.06 481.797 1405.41 478.984L1399.31 472.656C1396.03 476.406 1393.14 479.375 1390.64 481.562C1388.3 483.75 1385.33 485.859 1381.73 487.891C1375.02 491.797 1369.39 493.75 1364.86 493.75C1363.77 493.75 1363.22 493.359 1363.22 492.578C1363.22 492.109 1364.7 491.094 1367.67 489.531C1370.64 487.969 1373.45 486.094 1376.11 483.906C1382.83 478.281 1388.38 472.5 1392.75 466.562C1391.81 465.625 1387.12 461.562 1378.69 454.375C1377.59 453.594 1375.95 452.266 1373.77 450.391C1373.3 450.078 1372.36 449.375 1370.95 448.281C1369.55 447.188 1368.84 446.406 1368.84 445.938C1368.84 445.156 1369.23 444.766 1370.02 444.766C1372.36 444.766 1376.11 446.406 1381.27 449.688C1386.42 452.812 1391.81 456.562 1397.44 460.938C1399.62 458.281 1401.34 455.781 1402.59 453.438C1403.84 451.094 1405.25 448.203 1406.81 444.766C1407.59 443.047 1408.06 441.562 1408.22 440.312C1408.38 438.906 1408.45 438.047 1408.45 437.734C1408.45 436.016 1408.92 435.156 1409.86 435.156C1410.95 435.156 1412.44 436.016 1414.31 437.734C1417.59 440.859 1419.23 442.969 1419.23 444.062C1419.23 444.688 1418.84 445.391 1418.06 446.172C1416.19 448.047 1414.47 450.547 1412.91 453.672C1411.97 455.547 1410.25 458.203 1407.75 461.641C1406.97 462.578 1406.34 463.438 1405.88 464.219C1405.41 465 1404.94 465.703 1404.47 466.328C1408.06 468.984 1413.38 473.516 1420.41 479.922C1422.12 481.484 1423.22 482.969 1423.69 484.375C1424.31 485.625 1424.62 487.344 1424.62 489.531C1424.62 491.094 1424.23 492.422 1423.45 493.516C1422.67 494.453 1421.66 494.922 1420.41 494.922ZM1424.62 539.922C1426.34 541.797 1427.2 543.359 1427.2 544.609C1427.2 545.703 1426.58 546.719 1425.33 547.656C1424.55 548.281 1422.59 551.719 1419.47 557.969C1416.03 563.594 1412.2 568.516 1407.98 572.734C1403.92 576.797 1399.86 579.766 1395.8 581.641C1394.86 581.953 1394.08 582.109 1393.45 582.109C1392.83 582.109 1392.52 581.953 1392.52 581.641V581.172C1392.52 580.234 1393.3 579.141 1394.86 577.891C1397.67 575.703 1399.78 573.516 1401.19 571.328C1402.75 568.984 1403.92 567.266 1404.7 566.172C1407.98 561.484 1410.33 557.656 1411.73 554.688C1413.3 552.031 1414.39 549.297 1415.02 546.484H1414.08C1410.02 546.484 1403.45 546.953 1394.39 547.891C1392.98 548.047 1388.92 548.594 1382.2 549.531C1380.8 549.688 1378.61 550.078 1375.64 550.703L1372.83 551.406C1372.2 551.719 1371.58 551.875 1370.95 551.875C1370.17 551.875 1369.39 551.719 1368.61 551.406C1367.83 550.938 1367.05 550.391 1366.27 549.766C1364.39 548.203 1363.45 546.875 1363.45 545.781C1363.61 545.469 1363.77 545 1363.92 544.375C1364.23 543.75 1364.39 543.203 1364.39 542.734L1365.56 535C1365.72 534.219 1365.88 533.359 1366.03 532.422C1366.19 531.484 1366.27 530.547 1366.27 529.609C1366.27 526.641 1366.19 524.297 1366.03 522.578C1366.03 520.703 1365.8 518.75 1365.33 516.719V516.016C1365.33 514.922 1365.8 514.375 1366.73 514.375C1367.67 514.375 1369.31 515.078 1371.66 516.484C1374.78 518.672 1376.34 520.391 1376.34 521.641C1376.34 522.109 1376.27 522.5 1376.11 522.812C1375.95 523.125 1375.8 523.438 1375.64 523.75C1375.17 526.562 1374.94 528.125 1374.94 528.438L1373.77 540.859C1373.77 541.172 1373.92 541.562 1374.23 542.031C1374.7 542.344 1375.17 542.5 1375.64 542.5C1379.39 542.5 1387.83 541.562 1400.95 539.688C1406.11 539.219 1409.78 538.672 1411.97 538.047C1413.38 537.891 1414.55 537.656 1415.48 537.344C1416.58 536.875 1417.28 536.641 1417.59 536.641C1418.53 536.328 1419.16 536.172 1419.47 536.172C1420.88 536.172 1422.59 537.422 1424.62 539.922ZM1468.22 475.703C1470.09 475.703 1471.03 476.562 1471.03 478.281C1471.03 479.219 1470.17 480.547 1468.45 482.266C1463.77 488.047 1454.47 499.062 1440.56 515.312C1439.47 516.719 1438.45 517.422 1437.52 517.422C1436.73 517.422 1435.02 516.25 1432.36 513.906C1430.17 512.031 1429.08 510.469 1429.08 509.219C1429.08 507.812 1430.25 506.484 1432.59 505.234C1436.19 503.203 1441.58 499.141 1448.77 493.047C1455.95 486.641 1461.27 481.562 1464.7 477.812C1466.11 476.406 1467.28 475.703 1468.22 475.703ZM1159.31 610.938C1149.31 614.375 1141.89 612.266 1137.05 604.609C1130.48 594.297 1134.16 586.953 1148.06 582.578C1173.53 573.828 1195.41 562.422 1213.69 548.359C1193.84 525.391 1177.36 496.172 1164.23 460.703H1144.78C1135.72 460.703 1131.19 456.172 1131.19 447.109C1131.19 438.047 1135.72 433.516 1144.78 433.516H1222.12V410.312C1222.12 401.094 1226.81 396.484 1236.19 396.484C1245.41 396.484 1250.02 401.094 1250.02 410.312V433.516H1295.95H1328.53C1337.59 433.516 1342.12 438.047 1342.12 447.109C1342.12 456.172 1337.59 460.703 1328.53 460.703H1308.84C1296.34 494.922 1279.39 523.75 1257.98 547.188C1276.89 561.719 1298.38 572.969 1322.44 580.938C1338.53 585.312 1342.52 593.203 1334.39 604.609C1329.23 611.953 1321.5 614.062 1311.19 610.938C1281.5 601.25 1256.03 587.344 1234.78 569.219C1213.38 586.406 1188.22 600.312 1159.31 610.938ZM1236.42 527.5C1253.14 509.062 1266.42 486.797 1276.27 460.703H1235.72H1195.17C1204.86 486.328 1218.61 508.594 1236.42 527.5ZM1760.48 500.312C1757.98 500.312 1756.42 499.609 1755.8 498.203C1755.02 496.328 1754.23 494.766 1753.45 493.516C1752.67 492.109 1751.27 490.469 1749.23 488.594L1749.7 487.656C1755.33 489.688 1759 490.703 1760.72 490.703C1761.97 490.703 1762.91 490.469 1763.53 490C1764.16 489.531 1765.17 488.438 1766.58 486.719C1768.61 484.531 1770.48 481.172 1772.2 476.641C1774.55 469.922 1776.03 462.969 1776.66 455.781V455.078C1776.66 454.141 1776.5 453.516 1776.19 453.203C1774.16 453.203 1768.77 453.672 1760.02 454.609C1755.17 466.641 1749.55 476.562 1743.14 484.375C1736.89 492.031 1731.19 495.859 1726.03 495.859C1724.78 495.859 1724.16 495.391 1724.16 494.453C1724.16 494.141 1725.72 492.344 1728.84 489.062C1731.97 485.781 1735.41 481.484 1739.16 476.172C1743.06 470.703 1746.73 463.984 1750.17 456.016C1749.39 456.016 1747.12 456.172 1743.38 456.484C1739.62 456.797 1736.42 457.344 1733.77 458.125C1732.52 459.062 1731.19 459.219 1729.78 458.594C1729.78 458.594 1729.62 458.516 1729.31 458.359C1729 458.203 1728.69 457.969 1728.38 457.656C1727.28 457.031 1726.34 456.25 1725.56 455.312C1724.94 454.219 1724.62 453.203 1724.62 452.266C1724.62 451.797 1725.02 451.172 1725.8 450.391L1728.61 446.641C1729.55 445.391 1730.41 443.594 1731.19 441.25C1731.97 438.75 1732.36 436.641 1732.36 434.922C1732.36 433.828 1732.28 433.125 1732.12 432.812C1731.97 432.5 1731.89 432.109 1731.89 431.641C1731.89 430.859 1732.28 430.469 1733.06 430.469C1734 430.469 1735.33 431.016 1737.05 432.109C1737.52 432.422 1738.38 433.047 1739.62 433.984C1741.03 434.766 1741.81 435.703 1741.97 436.797C1741.97 437.891 1741.34 439.688 1740.09 442.188L1737.05 447.578C1736.73 448.047 1736.58 448.594 1736.58 449.219C1736.58 449.688 1736.73 450.078 1737.05 450.391C1737.52 450.547 1738.06 450.547 1738.69 450.391L1752.75 448.516C1754.31 444.453 1755.56 440.156 1756.5 435.625V434.219V430.234C1756.5 428.516 1756.97 427.812 1757.91 428.125C1759.94 428.594 1761.58 429.219 1762.83 430C1765.17 431.406 1766.34 432.578 1766.34 433.516C1766.34 434.297 1766.03 435.625 1765.41 437.5C1764.94 439.219 1764.55 440.547 1764.23 441.484C1764.08 442.109 1763.38 444.141 1762.12 447.578C1762.59 447.578 1765.48 447.266 1770.8 446.641L1773.14 446.172C1773.61 446.172 1774.47 446.016 1775.72 445.703C1776.03 445.547 1776.42 445.469 1776.89 445.469C1778.77 445.469 1779.94 445.547 1780.41 445.703C1781.03 445.859 1781.97 446.328 1783.22 447.109C1784.62 448.047 1785.56 448.984 1786.03 449.922C1786.5 450.859 1786.66 451.953 1786.5 453.203L1785.09 460.938L1783.45 469.375C1783.45 470 1782.91 472.031 1781.81 475.469C1780.72 478.906 1779.47 481.953 1778.06 484.609C1775.41 489.922 1772.28 493.906 1768.69 496.562C1765.56 499.062 1762.83 500.312 1760.48 500.312ZM1757.44 583.281C1749.94 583.281 1743.69 581.406 1738.69 577.656C1733.53 573.438 1730.95 568.516 1730.95 562.891C1730.95 558.516 1732.59 554.688 1735.88 551.406C1740.09 547.812 1745.41 546.016 1751.81 546.016C1752.12 546.016 1752.36 545.703 1752.52 545.078C1752.83 544.297 1752.98 543.281 1752.98 542.031L1753.22 535.938C1752.12 536.094 1750.02 536.328 1746.89 536.641C1743.92 536.953 1741.73 537.266 1740.33 537.578C1741.11 537.422 1738.69 537.969 1733.06 539.219C1732.59 539.375 1731.73 539.453 1730.48 539.453C1727.52 539.453 1725.02 538.125 1722.98 535.469C1722.05 534.531 1721.58 533.75 1721.58 533.125C1721.58 532.188 1722.98 531.719 1725.8 531.719L1733.06 531.25L1752.98 528.672V525.859V520C1752.83 519.375 1752.75 518.672 1752.75 517.891C1752.75 517.109 1752.67 516.484 1752.52 516.016C1752.2 514.766 1752.05 513.984 1752.05 513.672C1752.05 512.578 1752.59 512.031 1753.69 512.031C1755.09 512.031 1757.52 513.047 1760.95 515.078C1762.05 515.703 1762.59 516.562 1762.59 517.656C1762.59 518.438 1762.44 519.141 1762.12 519.766C1761.97 520.234 1761.89 520.781 1761.89 521.406V527.969L1768.92 527.266L1777.59 526.328C1778.38 526.172 1779.23 525.938 1780.17 525.625C1781.27 525.312 1782.12 525.156 1782.75 525.156C1783.69 525.156 1784.86 525.625 1786.27 526.562C1788.92 528.281 1790.25 529.766 1790.25 531.016C1790.25 532.266 1788.92 532.891 1786.27 532.891C1785.48 532.891 1784.39 533.047 1782.98 533.359C1781.58 533.516 1779.78 533.672 1777.59 533.828L1761.89 535L1761.66 549.297C1761.34 551.641 1759.62 553.125 1756.5 553.75H1756.03C1755.09 553.75 1754.16 553.672 1753.22 553.516C1752.44 553.203 1751.81 553.047 1751.34 553.047C1750.09 553.047 1748.84 553.125 1747.59 553.281C1746.34 553.438 1745.25 553.906 1744.31 554.688C1741.66 557.031 1740.33 559.766 1740.33 562.891C1740.33 566.016 1741.81 568.828 1744.78 571.328C1747.44 573.828 1751.66 575.078 1757.44 575.078C1765.09 574.766 1771.34 572.656 1776.19 568.75C1778.22 567.344 1779.78 566.641 1780.88 566.641C1781.5 566.641 1782.28 566.797 1783.22 567.109C1783.38 567.266 1783.69 567.578 1784.16 568.047C1784.62 568.516 1784.86 568.984 1784.86 569.453C1784.86 573.828 1781.19 577.422 1773.84 580.234C1768.38 582.266 1762.91 583.281 1757.44 583.281ZM1798.22 494.453C1799 494.453 1800.17 495 1801.73 496.094C1801.58 496.406 1801.89 497.031 1802.67 497.969C1803.45 498.75 1804 499.297 1804.31 499.609C1805.09 500.391 1805.88 501.328 1806.66 502.422C1807.59 503.516 1808.61 504.688 1809.7 505.938C1812.52 508.906 1819 516.641 1829.16 529.141C1830.88 531.641 1831.73 533.125 1831.73 533.594C1831.73 535.156 1830.8 535.938 1828.92 535.938C1827.83 535.938 1826.66 535.156 1825.41 533.594C1822.44 530.469 1817.12 525.547 1809.47 518.828C1803.53 513.359 1798.14 509.141 1793.3 506.172C1790.95 505.078 1789.78 503.828 1789.78 502.422C1789.78 501.328 1790.95 499.766 1793.3 497.734C1795.48 495.547 1797.12 494.453 1798.22 494.453ZM1595.95 614.922C1586.73 614.922 1582.12 610.312 1582.12 601.094V565.469C1564.47 583.125 1542.91 597.578 1517.44 608.828C1509.78 611.953 1503.45 610.469 1498.45 604.375C1494.39 599.375 1493.14 595.156 1494.7 591.719C1495.95 588.594 1499.78 585.938 1506.19 583.75C1527.12 575.469 1544.86 565.391 1559.39 553.516H1505.02C1497.05 553.516 1493.06 549.453 1493.06 541.328C1493.06 533.359 1497.05 529.375 1505.02 529.375H1582.12V514.609H1564.55V515.078C1564.7 515.391 1564.39 515.781 1563.61 516.25C1559.55 517.812 1555.72 518.281 1552.12 517.656C1547.75 517.031 1545.33 515 1544.86 511.562C1544.86 511.406 1544.86 511.25 1544.86 511.094L1505.02 516.484C1497.2 517.734 1492.91 514.297 1492.12 506.172C1491.34 498.984 1494.47 495.156 1501.5 494.688H1501.97C1507.44 487.031 1512.44 479.375 1516.97 471.719C1511.97 466.406 1505.88 460.625 1498.69 454.375C1496.34 452.344 1495.25 449.453 1495.41 445.703C1495.56 442.266 1496.58 438.984 1498.45 435.859C1499.39 434.297 1500.56 433.125 1501.97 432.344C1503.38 431.406 1504.7 431.406 1505.95 432.344L1506.42 432.578C1509.55 426.484 1512.98 418.438 1516.73 408.438C1519.23 401.562 1523.92 399.375 1530.8 401.875C1537.98 404.375 1539.94 409.375 1536.66 416.875C1531.66 427.188 1526.66 436.562 1521.66 445C1524.31 447.031 1526.66 449.141 1528.69 451.328C1530.56 447.891 1532.44 444.219 1534.31 440.312C1537.28 433.75 1542.12 431.797 1548.84 434.453C1556.19 437.422 1557.91 442.344 1554 449.219C1553.69 449.844 1553.14 450.781 1552.36 452.031C1545.48 463.594 1540.25 472.109 1536.66 477.578L1545.33 474.766C1550.33 473.359 1553.69 474.922 1555.41 479.453C1557.28 484.453 1559.23 490.781 1561.27 498.438V433.75C1561.27 429.219 1562.67 425.547 1565.48 422.734C1568.3 419.922 1571.97 418.516 1576.5 418.516H1581.19C1581.5 417.578 1581.81 416.25 1582.12 414.531C1582.59 412.812 1582.91 411.562 1583.06 410.781C1583.69 405.938 1585.17 402.5 1587.52 400.469C1589.86 398.281 1593.45 397.422 1598.3 397.891C1603.61 398.516 1606.89 400.234 1608.14 403.047C1609.55 405.703 1609.31 409.609 1607.44 414.766C1607.28 415.078 1607.05 415.703 1606.73 416.641C1606.58 417.422 1606.42 418.047 1606.27 418.516H1619.62C1623.22 418.516 1626.03 419.609 1628.06 421.797C1630.25 423.828 1631.34 426.641 1631.34 430.234V437.266L1635.09 432.109C1636.81 429.609 1638.92 429.375 1641.42 431.406L1641.89 431.875C1646.27 423.281 1649.86 415.391 1652.67 408.203C1655.17 401.328 1659.86 399.141 1666.73 401.641C1673.92 404.297 1675.72 409.297 1672.12 416.641C1666.03 428.828 1660.88 438.438 1656.66 445.469C1657.44 446.25 1658.53 447.422 1659.94 448.984C1661.5 450.547 1662.59 451.641 1663.22 452.266C1664.47 450.078 1666.11 446.953 1668.14 442.891C1668.61 441.797 1669 441.016 1669.31 440.547C1672.44 434.141 1677.36 432.344 1684.08 435.156C1691.27 438.281 1692.83 443.359 1688.77 450.391C1686.42 454.141 1682.83 459.922 1677.98 467.734C1675.64 471.641 1673.84 474.531 1672.59 476.406L1681.5 473.125C1686.34 471.406 1689.78 472.891 1691.81 477.578C1696.19 488.516 1699.62 498.984 1702.12 508.984C1702.75 511.797 1702.44 513.984 1701.19 515.547C1700.09 517.109 1698.14 518.438 1695.33 519.531C1688.14 522.5 1683.69 520.078 1681.97 512.266C1681.97 512.109 1681.97 511.953 1681.97 511.797C1677.12 512.422 1670.02 513.281 1660.64 514.375C1647.83 515.781 1638.45 516.875 1632.52 517.656C1630.95 517.969 1630.02 517.188 1629.7 515.312V514.609H1609.78V529.375H1654.55H1687.59C1695.56 529.375 1699.55 533.359 1699.55 541.328C1699.55 549.453 1695.56 553.516 1687.59 553.516H1632.28C1647.44 565.078 1665.33 574.609 1685.95 582.109C1692.36 584.141 1696.27 586.719 1697.67 589.844C1699.08 593.281 1697.83 597.5 1693.92 602.5C1691.42 605.781 1688.69 607.734 1685.72 608.359C1682.91 609.141 1679.47 608.828 1675.41 607.422C1650.56 597.266 1628.69 583.516 1609.78 566.172V601.094C1609.78 610.312 1605.17 614.922 1595.95 614.922ZM1631.34 494.453L1636.97 494.219C1640.88 489.062 1645.72 481.875 1651.5 472.656C1646.03 465.938 1639.31 458.906 1631.34 451.562V473.125V494.453ZM1584.23 493.75H1607.67V476.172H1595.95H1584.23V493.75ZM1526.34 492.812L1539.94 491.641C1539.62 490.547 1539.08 488.828 1538.3 486.484C1537.36 482.891 1536.58 480.312 1535.95 478.75C1534.39 481.406 1532.83 483.828 1531.27 486.016C1530.8 486.797 1530.02 487.969 1528.92 489.531C1527.83 490.938 1526.97 492.031 1526.34 492.812ZM1661.11 492.812L1676.34 491.875C1674.16 485.625 1672.52 481.016 1671.42 478.047C1670.64 479.453 1669.31 481.406 1667.44 483.906C1666.97 484.688 1666.58 485.234 1666.27 485.547C1664.55 488.203 1662.83 490.625 1661.11 492.812ZM1584.23 456.719H1595.95H1607.67V445C1607.67 441.25 1605.8 439.375 1602.05 439.375H1589.86C1586.11 439.375 1584.23 441.25 1584.23 445V456.719ZM2095.17 487.422C2090.02 485.547 2087.59 483.516 2087.91 481.328C2088.84 474.766 2089.31 467.266 2089.31 458.828C2089.31 455.078 2089.23 452.344 2089.08 450.625C2088.92 448.594 2088.77 446.875 2088.61 445.469C2088.45 443.906 2088.45 443.047 2088.61 442.891C2089.23 442.266 2090.02 441.953 2090.95 441.953C2092.36 441.953 2094.08 442.578 2096.11 443.828C2098.3 445.078 2099.39 446.328 2099.39 447.578C2099.39 448.359 2099.31 449.141 2099.16 449.922C2099 450.547 2098.92 451.25 2098.92 452.031L2097.52 475.234C2097.52 476.484 2097.98 477.266 2098.92 477.578H2100.09C2101.34 477.578 2102.2 477.5 2102.67 477.344L2132.91 473.125V467.031C2132.91 459.375 2132.75 453.438 2132.44 449.219C2132.28 445.625 2131.89 442.734 2131.27 440.547C2130.8 438.047 2131.42 436.797 2133.14 436.797C2134.39 436.797 2136.03 437.266 2138.06 438.203C2140.56 439.453 2142.05 440.547 2142.52 441.484C2142.98 442.266 2143.14 443.516 2142.98 445.234C2142.67 448.047 2142.52 452.266 2142.52 457.891L2142.75 475.703C2142.75 479.453 2142.05 482.422 2140.64 484.609C2139.86 485.547 2139.08 486.016 2138.3 486.016C2137.52 486.016 2136.42 485.312 2135.02 483.906C2134.7 483.594 2134.31 483.125 2133.84 482.5C2133.38 481.875 2132.91 481.484 2132.44 481.328C2131.97 481.172 2131.34 481.094 2130.56 481.094C2126.97 481.406 2118.3 482.578 2104.55 484.609C2102.2 484.922 2100.33 485.547 2098.92 486.484C2097.36 487.266 2096.34 487.656 2095.88 487.656L2095.17 487.422ZM2124.94 537.812C2123.38 539.844 2121.73 540.859 2120.02 540.859C2119.55 540.859 2119.31 540.469 2119.31 539.688C2119.31 538.594 2119.62 537.344 2120.25 535.938C2120.25 535.938 2121.81 532.812 2124.94 526.562C2125.09 525.938 2125.33 525.312 2125.64 524.688C2125.95 524.062 2126.19 523.516 2126.34 523.047V522.812C2126.34 522.5 2126.11 522.188 2125.64 521.875C2125.17 521.562 2124.62 521.484 2124 521.641C2121.5 521.797 2117.75 522.188 2112.75 522.812C2107.91 523.438 2104.31 524.062 2101.97 524.688C2101.03 525 2099.86 525.391 2098.45 525.859C2097.2 526.328 2096.19 526.562 2095.41 526.562C2092.59 526.562 2090.25 525.703 2088.38 523.984C2086.81 522.891 2085.64 521.797 2084.86 520.703L2084.39 519.531C2084.39 518.75 2085.72 518.516 2088.38 518.828C2091.97 519.141 2099.39 518.672 2110.64 517.422L2115.33 516.719C2116.58 516.562 2118.53 516.328 2121.19 516.016C2124 515.547 2126.19 515.078 2127.75 514.609C2128.22 514.453 2128.69 514.297 2129.16 514.141C2129.78 513.828 2130.33 513.672 2130.8 513.672C2131.58 513.672 2132.52 514.062 2133.61 514.844C2134.86 515.625 2135.88 516.328 2136.66 516.953C2137.75 517.734 2138.45 518.438 2138.77 519.062C2139.23 519.531 2139.39 520.156 2139.23 520.938C2139.23 521.719 2138.84 522.422 2138.06 523.047C2137.28 523.672 2136.73 524.141 2136.42 524.453C2136.11 524.922 2135.02 526.094 2133.14 527.969C2132.36 529.219 2130.95 530.938 2128.92 533.125C2127.05 535.312 2125.72 536.875 2124.94 537.812ZM2113.22 583.984C2113.22 583.516 2114 582.344 2115.56 580.469C2117.28 578.438 2118.61 576.875 2119.55 575.781C2121.89 572.656 2124.7 568.125 2127.98 562.188C2131.42 556.25 2133.38 552.344 2133.84 550.469C2134.16 549.531 2133.69 549.062 2132.44 549.062C2129.94 549.062 2123.06 549.766 2111.81 551.172C2104.47 552.109 2099 553.047 2095.41 553.984C2094.62 554.453 2093.84 554.688 2093.06 554.688C2091.81 554.688 2090.48 553.828 2089.08 552.109C2088.45 551.016 2088.14 550 2088.14 549.062C2088.14 548.438 2088.53 547.812 2089.31 547.188L2090.02 546.25C2090.48 545.312 2091.03 544.062 2091.66 542.5C2092.28 540.938 2092.83 539.453 2093.3 538.047C2094.08 535.547 2094.62 532.812 2094.94 529.844C2095.09 528.125 2096.03 527.656 2097.75 528.438C2099.94 529.531 2101.58 530.625 2102.67 531.719C2103.92 532.656 2104.31 533.359 2103.84 533.828C2102.28 535.703 2101.03 537.812 2100.09 540.156C2099.31 542.656 2098.84 544.297 2098.69 545.078C2098.69 545.703 2099.08 546.016 2099.86 546.016C2102.2 546.016 2105.72 545.625 2110.41 544.844C2113.06 544.531 2116.34 544.141 2120.25 543.672C2124.16 543.203 2127.28 542.734 2129.62 542.266L2135.48 541.094C2135.95 540.938 2136.58 540.859 2137.36 540.859C2138.14 540.859 2138.92 541.172 2139.7 541.797C2140.48 542.266 2141.34 542.891 2142.28 543.672C2143.84 545.078 2144.86 546.25 2145.33 547.188C2145.8 547.969 2146.03 548.906 2146.03 550C2146.03 550.625 2145.56 551.406 2144.62 552.344C2143.84 553.281 2142.91 554.766 2141.81 556.797C2137.28 566.016 2131.42 573.75 2124.23 580C2122.2 581.562 2119.94 582.891 2117.44 583.984C2116.34 584.297 2115.33 584.531 2114.39 584.688C2113.61 584.688 2113.22 584.453 2113.22 583.984ZM2188.22 475.703C2190.09 475.703 2191.03 476.562 2191.03 478.281C2191.03 479.219 2190.17 480.547 2188.45 482.266C2183.77 488.047 2174.47 499.062 2160.56 515.312C2159.47 516.719 2158.45 517.422 2157.52 517.422C2156.73 517.422 2155.02 516.25 2152.36 513.906C2150.17 512.031 2149.08 510.469 2149.08 509.219C2149.08 507.812 2150.25 506.484 2152.59 505.234C2156.19 503.203 2161.58 499.141 2168.77 493.047C2175.95 486.641 2181.27 481.562 2184.7 477.812C2186.11 476.406 2187.28 475.703 2188.22 475.703ZM1872.28 606.953C1867.75 606.953 1864.08 605.547 1861.27 602.734C1858.45 599.922 1857.05 596.25 1857.05 591.719V420.625C1857.05 416.094 1858.45 412.422 1861.27 409.609C1864.08 406.797 1867.75 405.391 1872.28 405.391H1955.95H2039.86C2044.39 405.391 2048.06 406.797 2050.88 409.609C2053.69 412.422 2055.09 416.094 2055.09 420.625V591.719C2055.09 596.25 2053.69 599.922 2050.88 602.734C2048.06 605.547 2044.39 606.953 2039.86 606.953H1872.28ZM1888.69 582.109H2022.52C2026.27 582.109 2028.14 580.234 2028.14 576.484V436.094C2028.14 432.344 2026.27 430.469 2022.52 430.469H1955.48H1888.69C1884.94 430.469 1883.06 432.344 1883.06 436.094V576.484C1883.06 580.234 1884.94 582.109 1888.69 582.109ZM2016.66 570.156C2013.06 574.844 2008.06 576.016 2001.66 573.672C1987.44 567.734 1975.02 560.078 1964.39 550.703V565C1964.39 572.969 1960.41 576.953 1952.44 576.953C1944.31 576.953 1940.25 572.969 1940.25 565V552.578C1929.94 558.984 1919.78 564.219 1909.78 568.281C1903.69 570.781 1898.61 569.688 1894.55 565C1891.42 561.094 1890.41 557.891 1891.5 555.391C1892.44 553.203 1895.48 551.25 1900.64 549.531C1916.27 543.594 1929.16 537.031 1939.31 529.844H1917.98C1913.45 529.844 1909.78 528.438 1906.97 525.625C1904.16 522.812 1902.75 519.141 1902.75 514.609V505C1902.75 500.469 1904.16 496.797 1906.97 493.984C1909.78 491.172 1913.45 489.766 1917.98 489.766H1956.19H1994.62C1999.16 489.766 2002.83 491.172 2005.64 493.984C2008.45 496.797 2009.86 500.469 2009.86 505V526.094L2016.19 530.312C2019.62 532.5 2019.7 534.922 2016.42 537.578C2010.48 541.953 2004.23 546.016 1997.67 549.766C2000.33 551.016 2004.47 552.734 2010.09 554.922C2015.25 556.484 2018.38 558.359 2019.47 560.547C2020.72 562.891 2019.78 566.094 2016.66 570.156ZM1981.97 540.859C1983.22 540.078 1984.94 538.828 1987.12 537.109C1988.22 536.328 1989 535.781 1989.47 535.469C1992.91 532.969 1995.41 531.094 1996.97 529.844H1969.78L1969.08 530.547C1973.3 534.453 1977.59 537.891 1981.97 540.859ZM1930.88 515.781H1985.72V509.219C1985.72 505.781 1984 504.062 1980.56 504.062H1955.72H1931.34C1927.59 504.062 1925.72 505.938 1925.72 509.688V510.625C1925.72 514.062 1927.44 515.781 1930.88 515.781ZM1898.77 482.734C1893.61 482.734 1891.03 480.078 1891.03 474.766C1891.03 469.609 1893.61 467.031 1898.77 467.031H1942.83V461.875C1942.83 459.375 1941.58 458.125 1939.08 458.125H1909.31C1904.31 458.125 1901.81 455.625 1901.81 450.625C1901.81 445.625 1904.31 443.125 1909.31 443.125H1942.83V442.656C1942.83 439.844 1944.16 437.5 1946.81 435.625C1949.31 434.062 1952.2 433.281 1955.48 433.281C1958.77 433.281 1961.58 434.062 1963.92 435.625C1966.58 437.5 1967.91 439.844 1967.91 442.656V443.125H2003.06C2008.06 443.125 2010.56 445.625 2010.56 450.625C2010.56 455.625 2008.06 458.125 2003.06 458.125H1973.53C1969.78 458.125 1967.91 460 1967.91 463.75V467.031H2012.2C2017.36 467.031 2019.94 469.609 2019.94 474.766C2019.94 480.078 2017.36 482.734 2012.2 482.734H1955.48H1898.77Z" fill="#F8DE76"/>
</svg>
